<?xml version="1.0" encoding="UTF-8" standalone="no"?>
<svg
   xmlns:dc="http://purl.org/dc/elements/1.1/"
   xmlns:cc="http://creativecommons.org/ns#"
   xmlns:rdf="http://www.w3.org/1999/02/22-rdf-syntax-ns#"
   xmlns:svg="http://www.w3.org/2000/svg"
   xmlns="http://www.w3.org/2000/svg"
   xmlns:xlink="http://www.w3.org/1999/xlink"
   xmlns:sodipodi="http://sodipodi.sourceforge.net/DTD/sodipodi-0.dtd"
   xmlns:inkscape="http://www.inkscape.org/namespaces/inkscape"
   version="1.1"
   id="Layer_1"
   x="0px"
   y="0px"
   viewBox="0 0 419.99998 800"
   enable-background="new 0 0 605.4 1141"
   xml:space="preserve"
   sodipodi:docname="smart-Phone-ilnanny.svg.2017_04_07_18_45_14.0.svg"
   inkscape:version="0.92.1 r"
   width="420"
   height="800"><title
     id="title1018">SmartPhone</title><metadata
     id="metadata181"><rdf:RDF><cc:Work
         rdf:about=""><dc:format>image/svg+xml</dc:format><dc:type
           rdf:resource="http://purl.org/dc/dcmitype/StillImage" /><dc:title>SmartPhone</dc:title><cc:license
           rdf:resource="http://artlibre.org/licence/lal" /><dc:date>2017</dc:date><dc:creator><cc:Agent><dc:title>Cristian Pozzessere &quot;ilnanny&quot;</dc:title></cc:Agent></dc:creator><dc:subject><rdf:Bag><rdf:li>Global language</rdf:li></rdf:Bag></dc:subject><dc:description>Playing with Inkscape on Gnu/Linux O. S.</dc:description><dc:contributor><cc:Agent><dc:title>In the night, alone like a dog.</dc:title></cc:Agent></dc:contributor></cc:Work><cc:License
         rdf:about="http://artlibre.org/licence/lal"><cc:permits
           rdf:resource="http://creativecommons.org/ns#Reproduction" /><cc:permits
           rdf:resource="http://creativecommons.org/ns#Distribution" /><cc:permits
           rdf:resource="http://creativecommons.org/ns#DerivativeWorks" /><cc:requires
           rdf:resource="http://creativecommons.org/ns#ShareAlike" /><cc:requires
           rdf:resource="http://creativecommons.org/ns#Notice" /><cc:requires
           rdf:resource="http://creativecommons.org/ns#Attribution" /></cc:License></rdf:RDF></metadata><defs
     id="defs179"><linearGradient
       id="SVGID_3_"
       gradientUnits="userSpaceOnUse"
       x1="35.341999"
       y1="21.641899"
       x2="565.34198"
       y2="1109.642"
       gradientTransform="matrix(0.98147965,0,0,0.98147965,11.212219,-0.05639393)"><stop
         offset="0"
         style="stop-color:#F2F2F2"
         id="stop36" /><stop
         offset="1"
         style="stop-color:#E7E7E7"
         id="stop38" /></linearGradient><radialGradient
       id="SVGID_4_"
       cx="593.45947"
       cy="93.012604"
       r="957.20947"
       gradientUnits="userSpaceOnUse"><stop
         offset="2.534075e-04"
         style="stop-color:#FBB041"
         id="stop43" /><stop
         offset="1"
         style="stop-color:#8EC641"
         id="stop45" /></radialGradient><linearGradient
       y2="24.702801"
       x2="508.2475"
       y1="39.373699"
       x1="508.2475"
       gradientUnits="userSpaceOnUse"
       id="SVGID_9_"
       gradientTransform="matrix(1.4615008,0,0,1.4615008,-238.18058,-8.0762647)"><stop
         id="stop124"
         style="stop-color:#3C3D41"
         offset="0" /><stop
         id="stop126"
         style="stop-color:#1C1D21"
         offset="1" /></linearGradient><linearGradient
       y2="36.537399"
       x2="508.2475"
       y1="26.1702"
       x1="508.2475"
       gradientUnits="userSpaceOnUse"
       id="SVGID_10_"
       gradientTransform="matrix(1.4615008,0,0,1.4615008,-238.18058,-8.0762647)"><stop
         id="stop131"
         style="stop-color:#3C3D41"
         offset="0" /><stop
         id="stop133"
         style="stop-color:#1C1D21"
         offset="1" /></linearGradient><linearGradient
       y2="27.146999"
       x2="508.2475"
       y1="35.6572"
       x1="508.2475"
       gradientUnits="userSpaceOnUse"
       id="SVGID_11_"
       gradientTransform="matrix(1.4615008,0,0,1.4615008,-238.18058,-8.0762647)"><stop
         id="stop138"
         style="stop-color:#3C3D41"
         offset="0" /><stop
         id="stop140"
         style="stop-color:#1C1D21"
         offset="1" /></linearGradient><radialGradient
       gradientUnits="userSpaceOnUse"
       r="5.4857001"
       cy="34.321098"
       cx="509.75421"
       id="SVGID_12_"
       gradientTransform="matrix(1.4615008,0,0,1.4615008,-238.18058,-8.0762647)"><stop
         id="stop145"
         style="stop-color:#FFFFFF"
         offset="4.140787e-03" /><stop
         id="stop147"
         style="stop-color:#FFFFFF;stop-opacity:0"
         offset="1" /></radialGradient><linearGradient
       y2="27.8613"
       x2="410.996"
       y1="27.8613"
       x1="401.4989"
       gradientUnits="userSpaceOnUse"
       id="SVGID_8_"
       gradientTransform="matrix(1.4615008,0,0,1.4615008,-238.18058,-8.0762647)"><stop
         id="stop111"
         style="stop-color:#2075BC"
         offset="0.2156" /><stop
         id="stop113"
         style="stop-color:#673090"
         offset="0.742" /></linearGradient><linearGradient
       y2="27.8613"
       x2="386.6723"
       y1="27.8613"
       x1="378.556"
       gradientUnits="userSpaceOnUse"
       id="SVGID_7_"
       gradientTransform="matrix(1.4615008,0,0,1.4615008,-238.18058,-8.0762647)"><stop
         id="stop94"
         style="stop-color:#2075BC"
         offset="0.2156" /><stop
         id="stop96"
         style="stop-color:#673090"
         offset="0.742" /></linearGradient><linearGradient
       y2="570.50598"
       x2="602.82397"
       y1="570.50598"
       x1="2.5989001"
       gradientUnits="userSpaceOnUse"
       id="SVGID_1_"
       gradientTransform="matrix(0.9867182,0,0,0.9867182,9.6265307,-3.0449713)"><stop
         id="stop8"
         style="stop-color:#14171A"
         offset="0" /><stop
         id="stop10"
         style="stop-color:#F2F2F2"
         offset="4.000000e-02" /><stop
         id="stop12"
         style="stop-color:#34393F"
         offset="0.1" /><stop
         id="stop14"
         style="stop-color:#34393F"
         offset="0.5" /><stop
         id="stop16"
         style="stop-color:#34393F"
         offset="0.9" /><stop
         id="stop18"
         style="stop-color:#F2F2F2"
         offset="0.96" /><stop
         id="stop20"
         style="stop-color:#14171A"
         offset="1" /></linearGradient><linearGradient
       y2="1129.0198"
       x2="302.71149"
       y1="11.0126"
       x1="302.71149"
       gradientUnits="userSpaceOnUse"
       id="SVGID_2_"
       gradientTransform="matrix(0.98147965,0,0,0.98147965,11.212219,-0.05639393)"><stop
         id="stop25"
         style="stop-color:#F2F2F2"
         offset="6.712603e-04" /><stop
         id="stop27"
         style="stop-color:#424143"
         offset="0.4604" /><stop
         id="stop29"
         style="stop-color:#F2F2F2"
         offset="1" /></linearGradient><linearGradient
       id="SVGID_5_"
       gradientUnits="userSpaceOnUse"
       x1="302.7117"
       y1="31.6793"
       x2="302.7117"
       y2="19.8339"><stop
         offset="0"
         style="stop-color:#6E6F72"
         id="stop50" /><stop
         offset="0.1593"
         style="stop-color:#F2F2F2"
         id="stop52" /><stop
         offset="0.3081"
         style="stop-color:#939598"
         id="stop54" /><stop
         offset="0.4874"
         style="stop-color:#F2F2F2"
         id="stop56" /><stop
         offset="0.7304"
         style="stop-color:#939598"
         id="stop58" /><stop
         offset="0.8863"
         style="stop-color:#F2F2F2"
         id="stop60" /><stop
         offset="1"
         style="stop-color:#939598"
         id="stop62" /></linearGradient><linearGradient
       id="SVGID_6_"
       gradientUnits="userSpaceOnUse"
       x1="302.71149"
       y1="74.3022"
       x2="302.71149"
       y2="51.622799"><stop
         offset="0"
         style="stop-color:#D2D3D4"
         id="stop77" /><stop
         offset="1"
         style="stop-color:#D2D3D4"
         id="stop79" /></linearGradient><linearGradient
       id="SVGID_13_"
       gradientUnits="userSpaceOnUse"
       x1="302.71149"
       y1="1077.6344"
       x2="302.71149"
       y2="1113.2548"><stop
         offset="6.712603e-04"
         style="stop-color:#F2F2F2"
         id="stop160" /><stop
         offset="0.4604"
         style="stop-color:#424143"
         id="stop162" /><stop
         offset="1"
         style="stop-color:#F2F2F2"
         id="stop164" /></linearGradient><linearGradient
       inkscape:collect="always"
       xlink:href="#SVGID_5_"
       id="linearGradient1274"
       x1="25.65"
       y1="576.29999"
       x2="579.65002"
       y2="576.29999"
       gradientUnits="userSpaceOnUse"
       gradientTransform="matrix(0.98147965,0,0,1.0237224,11.212219,-36.977543)" /><linearGradient
       inkscape:collect="always"
       xlink:href="#SVGID_5_"
       id="linearGradient1304"
       gradientUnits="userSpaceOnUse"
       x1="302.7117"
       y1="31.6793"
       x2="302.7117"
       y2="19.8339"
       gradientTransform="matrix(2.2565304,0,0,2.2565304,-456.37184,-23.748425)" /><linearGradient
       inkscape:collect="always"
       xlink:href="#SVGID_5_"
       id="linearGradient1322"
       gradientUnits="userSpaceOnUse"
       gradientTransform="matrix(2.2565304,0,0,2.2565304,-456.37184,-23.748425)"
       x1="302.7117"
       y1="31.6793"
       x2="302.7117"
       y2="19.8339" /><linearGradient
       inkscape:collect="always"
       xlink:href="#SVGID_13_"
       id="linearGradient1344"
       gradientUnits="userSpaceOnUse"
       x1="302.71149"
       y1="1077.6344"
       x2="302.71149"
       y2="1113.2548"
       gradientTransform="matrix(0.98147965,0,0,1.4389634,11.212219,-495.5282)" /></defs><sodipodi:namedview
     pagecolor="#ffffff"
     bordercolor="#666666"
     borderopacity="1"
     objecttolerance="10"
     gridtolerance="10"
     guidetolerance="10"
     inkscape:pageopacity="0"
     inkscape:pageshadow="2"
     inkscape:window-width="1280"
     inkscape:window-height="973"
     id="namedview177"
     showgrid="false"
     inkscape:snap-global="false"
     inkscape:zoom="0.62431887"
     inkscape:cx="695.1002"
     inkscape:cy="293.11985"
     inkscape:current-layer="g1061"
     inkscape:window-x="0"
     inkscape:window-y="25"
     inkscape:window-maximized="1"
     inkscape:showpageshadow="false" /><g
     id="g1386"
     transform="translate(-5.6060973,10.622236)"><g
       id="g1061"
       transform="matrix(0.70514745,0,0,0.7079906,176.6035,327.86832)"><g
         id="g951"
         transform="matrix(0.98470851,0,0,0.98470851,-248.28038,-464.4375)"><path
           style="fill:#bdbec0;stroke-width:1.00237858"
           inkscape:connector-curvature="0"
           id="path2"
           d="M 25.14923,147.29249 H 13.469622 c -1.275923,0 -2.257403,1.02373 -2.257403,2.35457 V 362.9908 c 0,1.33084 0.98148,2.35457 2.257403,2.35457 H 25.14923 c 1.275924,0 2.257403,-1.02373 2.257403,-2.35457 V 149.64706 c 0.09815,-1.33084 -0.981479,-2.35457 -2.257403,-2.35457 z" /><path
           style="fill:#bdbec0;stroke-width:1.00237858"
           inkscape:connector-curvature="0"
           id="path4"
           d="m 604.41852,147.29249 h -5.20184 c -0.58889,0 -0.98148,0.51186 -0.98148,1.02373 v 95.20618 c 0,0.61423 0.49074,1.02372 0.98148,1.02372 h 5.20184 c 0.58889,0 0.98148,-0.51186 0.98148,-1.02372 v -95.20618 c 0,-0.51187 -0.39259,-1.02373 -0.98148,-1.02373 z" /><path
           d="M 541.07294,1122.8005 H 75.539304 c -35.028494,0 -63.347306,-28.4175 -63.347306,-63.3474 V 60.302335 c 0,-34.929823 28.417483,-63.3473063 63.347306,-63.3473063 H 541.07294 c 35.0285,0 63.34731,28.4174833 63.34731,63.3473063 V 1059.3545 c 0,35.1272 -28.31881,63.446 -63.34731,63.446 z"
           id="path23"
           style="fill:url(#SVGID_1_);stroke-width:0.98671818"
           inkscape:connector-curvature="0" /><path
           d="M 538.75753,1117.1619 H 77.854688 c -34.646232,0 -62.71655,-28.0703 -62.71655,-62.7166 V 65.310151 c 0,-34.646232 28.070318,-62.7165499 62.71655,-62.7165499 H 538.65938 c 34.64624,0 62.71655,28.0703179 62.71655,62.7165499 V 1054.4453 c 0.0981,34.6463 -27.97217,62.7166 -62.6184,62.7166 z"
           id="path32"
           style="fill:url(#SVGID_2_);stroke-width:0.98147964"
           inkscape:connector-curvature="0" /><path
           inkscape:connector-curvature="0"
           style="fill:url(#SVGID_3_);stroke-width:0.98147964"
           id="path41"
           d="M 539.93531,1111.7638 H 76.676912 c -31.014757,0 -56.140636,-25.1259 -56.140636,-56.1407 V 64.132375 c 0,-31.014757 25.125879,-56.1406358 56.140636,-56.1406358 H 539.93531 c 31.01475,0 56.14063,25.1258788 56.14063,56.1406358 V 1055.6231 c 0,31.0148 -25.12588,56.1407 -56.14063,56.1407 z" /><path
           inkscape:connector-curvature="0"
           style="clip-rule:evenodd;fill:#1d1e1f;fill-opacity:1;fill-rule:evenodd;stroke-width:1.00237858"
           id="path48"
           d="M 574.0908,57.716778 H 42.52142 c -2.649995,0 -4.907398,2.25219 -4.907398,5.118612 v 980.31651 c 0,2.7641 2.159255,5.1187 4.907398,5.1187 h 531.47123 c 2.65,0 4.9074,-2.2522 4.9074,-5.1187 V 62.83539 c 0,-2.866422 -2.15926,-5.118612 -4.80925,-5.118612 z" /><path
           style="fill:#ffffff;stroke-width:1.18840778"
           inkscape:connector-curvature="0"
           id="path156"
           d="m 351.68751,1058.6961 c 7.75369,0 13.93701,10.0728 13.93701,22.304 v 0.5755 c 0,12.3752 -6.28147,22.3039 -13.93701,22.3039 h -86.7628 c -7.75369,0 -13.93701,-10.0726 -13.93701,-22.3039 v -0.5755 c 0,-12.3751 6.28147,-22.304 13.93701,-22.304 h 86.7628" /><path
           inkscape:connector-curvature="0"
           style="fill:url(#linearGradient1344);stroke-width:1.18840778"
           id="path167"
           d="m 350.01899,1061.4301 c 7.45925,0 13.44628,8.7778 13.44628,19.7138 v 0.5756 c 0,10.9362 -5.98703,19.7138 -13.44628,19.7138 h -83.42577 c -7.45924,0 -13.44627,-8.7776 -13.44627,-19.7138 v -0.5756 c 0,-10.936 5.98703,-19.7138 13.44627,-19.7138 h 83.42577 m 0,-7.1948 h -83.42577 c -10.10924,0 -18.35367,12.0873 -18.35367,26.9086 v 0.5756 c 0,14.8214 8.24443,26.9086 18.35367,26.9086 h 83.42577 c 10.10925,0 18.35367,-12.0872 18.35367,-26.9086 v -0.5756 c 0,-14.9652 -8.24442,-26.9086 -18.35367,-26.9086 z" /><path
           d="M 574.0908,57.716778 H 42.52142 c -2.649995,0 -4.907398,2.25219 -4.907398,5.118612 v 980.31651 c 0,2.7641 2.159255,5.1187 4.907398,5.1187 h 531.47123 c 2.65,0 4.9074,-2.2522 4.9074,-5.1187 V 62.83539 c 0,-2.866422 -2.15926,-5.118612 -4.80925,-5.118612 z"
           id="path1266"
           style="clip-rule:evenodd;fill:none;fill-rule:evenodd;stroke:url(#linearGradient1274);stroke-width:5.0118928;stroke-miterlimit:4;stroke-dasharray:none;stroke-opacity:1"
           inkscape:connector-curvature="0" /><path
           sodipodi:nodetypes="sccssss"
           d="M 569.97918,61.403544 H 117.9813 c 270.91398,976.064756 2.51804,5.259995 272.76531,981.947956 h 179.13531 c 2.62612,0 4.86316,-2.2329 4.86316,-5.0743 V 66.477683 c 0,-2.841516 -2.13978,-5.074139 -4.7659,-5.074139 z"
           id="path1276"
           style="clip-rule:evenodd;opacity:0.10100002;fill:#ffffff;fill-rule:evenodd;stroke-width:0.99350613"
           inkscape:connector-curvature="0" /><path
           transform="matrix(0.98147965,0,0,1.0237224,11.212219,-36.977544)"
           style="color:#000000;font-style:normal;font-variant:normal;font-weight:normal;font-stretch:normal;font-size:medium;line-height:normal;font-family:sans-serif;font-variant-ligatures:normal;font-variant-position:normal;font-variant-caps:normal;font-variant-numeric:normal;font-variant-alternates:normal;font-feature-settings:normal;text-indent:0;text-align:start;text-decoration:none;text-decoration-line:none;text-decoration-style:solid;text-decoration-color:#000000;letter-spacing:normal;word-spacing:normal;text-transform:none;writing-mode:lr-tb;direction:ltr;text-orientation:mixed;dominant-baseline:auto;baseline-shift:baseline;text-anchor:start;white-space:normal;shape-padding:0;clip-rule:evenodd;display:inline;overflow:visible;visibility:visible;opacity:0.70603015;isolation:auto;mix-blend-mode:normal;color-interpolation:sRGB;color-interpolation-filters:linearRGB;solid-color:#000000;solid-opacity:1;vector-effect:none;fill:#0e232e;fill-opacity:1;fill-rule:evenodd;stroke:none;stroke-width:4.92113924;stroke-linecap:butt;stroke-linejoin:miter;stroke-miterlimit:4;stroke-dasharray:none;stroke-dashoffset:0;stroke-opacity:1;color-rendering:auto;image-rendering:auto;shape-rendering:auto;text-rendering:auto;enable-background:accumulate"
           d="m 36.667969,96.869141 c -3.994068,0 -7.373047,3.285269 -7.373047,7.388669 v 944.08399 c 0,3.9941 3.269865,7.3906 7.373047,7.3906 H 568.73242 c 3.99409,0 7.37305,-3.2872 7.37305,-7.3906 V 104.25781 c 0,-4.04502 -3.28133,-7.388669 -7.27539,-7.388669 z m 0,4.919919 H 568.83008 c 1.31184,0 2.35351,0.99282 2.35351,2.46875 v 944.08399 c 0,1.4176 -1.13936,2.4687 -2.45117,2.4687 H 36.667969 c -1.399233,0 -2.453125,-1.1388 -2.453125,-2.4687 V 104.25781 c 0,-1.41752 1.141292,-2.46875 2.453125,-2.46875 z"
           id="path1278"
           inkscape:connector-curvature="0" /><g
           id="g1417"
           transform="matrix(0.94579418,0,0,0.94579418,6.1824357,0.84276068)"
           style="opacity:0.82700004"><g
             id="g1302"
             transform="matrix(0.98147965,0,0,0.98147965,192.0015,-1.6284746)"><path
               d="m 320.98964,19.692251 c 7.16135,0 12.8612,5.699854 12.8612,12.861208 0,7.161354 -5.69985,12.861207 -12.8612,12.861207 -7.16136,0 -12.86121,-5.699853 -12.86121,-12.861207 0,-7.015204 5.69985,-12.861208 12.86121,-12.861208 z"
               id="path88"
               inkscape:connector-curvature="0"
               style="clip-rule:evenodd;fill:#010101;fill-rule:evenodd;stroke-width:1.46150088" /><path
               d="m 320.98964,23.053703 c 5.40755,0 9.6459,4.384503 9.6459,9.645906 0,5.407553 -4.3845,9.645905 -9.6459,9.645905 -5.40756,0 -9.64591,-4.384502 -9.64591,-9.645905 0,-5.407553 4.3845,-9.645906 9.64591,-9.645906 z"
               id="path90"
               inkscape:connector-curvature="0"
               style="clip-rule:evenodd;opacity:0.5;fill:#424143;fill-rule:evenodd;stroke-width:1.46150088" /><path
               d="m 320.98964,26.269005 c 3.5076,0 6.4306,2.923002 6.4306,6.430604 0,3.507602 -2.923,6.430603 -6.4306,6.430603 -3.5076,0 -6.43061,-2.923001 -6.43061,-6.430603 0,-3.507602 2.92301,-6.430604 6.43061,-6.430604 z"
               id="path92"
               inkscape:connector-curvature="0"
               style="clip-rule:evenodd;opacity:0.5;fill:#010101;fill-rule:evenodd;stroke-width:1.46150088" /><path
               d="m 320.98964,26.707455 c 3.2153,0 5.99215,2.630702 5.99215,5.992154 0,3.215302 -2.6307,5.992153 -5.99215,5.992153 -3.36145,0 -5.99216,-2.630701 -5.99216,-5.992153 0.14615,-3.361452 2.77686,-5.992154 5.99216,-5.992154 z"
               id="path99"
               style="clip-rule:evenodd;fill:url(#SVGID_7_);fill-rule:evenodd;stroke-width:1.46150088"
               inkscape:connector-curvature="0" /><path
               d="m 320.98964,27.730506 c 1.60765,0 2.77685,0.73075 2.77685,1.461501 0,0.8769 -1.31535,1.461501 -2.77685,1.461501 -1.60765,0 -2.77685,-0.730751 -2.77685,-1.461501 0,-0.730751 1.1692,-1.461501 2.77685,-1.461501 z"
               id="path101"
               inkscape:connector-curvature="0"
               style="clip-rule:evenodd;opacity:0.3;fill:#ffffff;fill-rule:evenodd;stroke-width:1.46150088" /><path
               d="m 355.48106,17.5 c 8.33055,0 15.05346,6.722904 15.05346,15.053459 0,8.330554 -6.72291,15.053458 -15.05346,15.053458 -8.33056,0 -15.05346,-6.722904 -15.05346,-15.053458 0,-8.184405 6.86905,-15.053459 15.05346,-15.053459 z"
               id="path105"
               inkscape:connector-curvature="0"
               style="clip-rule:evenodd;fill:#010101;fill-rule:evenodd;stroke-width:1.46150088" /><path
               d="m 355.48106,21.299902 c 6.28445,0 11.25355,5.115253 11.25355,11.253557 0,6.284453 -5.11525,11.253556 -11.25355,11.253556 -6.28446,0 -11.25356,-5.115253 -11.25356,-11.253556 0,-6.138304 5.11525,-11.253557 11.25356,-11.253557 z"
               id="path107"
               inkscape:connector-curvature="0"
               style="clip-rule:evenodd;opacity:0.5;fill:#424143;fill-rule:evenodd;stroke-width:1.46150088" /><path
               d="m 355.48106,25.099804 c 4.0922,0 7.5998,3.361452 7.5998,7.599805 0,4.238352 -3.36145,7.599804 -7.5998,7.599804 -4.0922,0 -7.59981,-3.361452 -7.59981,-7.599804 0,-4.238353 3.50761,-7.599805 7.59981,-7.599805 z"
               id="path109"
               inkscape:connector-curvature="0"
               style="clip-rule:evenodd;opacity:0.5;fill:#010101;fill-rule:evenodd;stroke-width:1.46150088" /><path
               d="m 355.48106,25.684405 c 3.7999,0 6.86905,3.069151 6.86905,7.015204 0,3.799902 -3.06915,7.015204 -6.86905,7.015204 -3.7999,0 -6.86906,-3.069152 -6.86906,-7.015204 0,-3.946053 3.06916,-7.015204 6.86906,-7.015204 z"
               id="path116"
               style="clip-rule:evenodd;fill:url(#SVGID_8_);fill-rule:evenodd;stroke-width:1.46150088"
               inkscape:connector-curvature="0" /><path
               d="m 355.48106,26.853605 c 1.7538,0 3.36145,0.730751 3.36145,1.753801 0,1.023051 -1.4615,1.753801 -3.36145,1.753801 -1.7538,0 -3.36145,-0.73075 -3.36145,-1.753801 0.14615,-0.8769 1.60765,-1.753801 3.36145,-1.753801 z"
               id="path118"
               inkscape:connector-curvature="0"
               style="clip-rule:evenodd;opacity:0.3;fill:#ffffff;fill-rule:evenodd;stroke-width:1.46150088" /><g
               id="g1342"
               transform="translate(-603.85809,-6.4069824)"><path
                 style="clip-rule:evenodd;opacity:0.5;fill:#ffffff;fill-rule:evenodd;stroke-width:1.46150088"
                 inkscape:connector-curvature="0"
                 id="path122"
                 d="m 504.55414,28.022806 c 6.28446,0 11.54586,5.115253 11.54586,11.545857 0,6.284453 -5.11525,11.545856 -11.54586,11.545856 -6.28445,0 -11.54585,-5.115253 -11.54585,-11.545856 0.14615,-6.430604 5.2614,-11.545857 11.54585,-11.545857 z" /><path
                 inkscape:connector-curvature="0"
                 style="clip-rule:evenodd;fill:url(#SVGID_9_);fill-rule:evenodd;stroke-width:1.46150088"
                 id="path129"
                 d="m 504.55414,27.145906 c 6.28446,0 11.54586,5.115253 11.54586,11.545856 0,6.284454 -5.11525,11.545857 -11.54586,11.545857 -6.28445,0 -11.54585,-5.115253 -11.54585,-11.545857 0.14615,-6.430603 5.2614,-11.545856 11.54585,-11.545856 z" /><path
                 inkscape:connector-curvature="0"
                 style="clip-rule:evenodd;fill:url(#SVGID_10_);fill-rule:evenodd;stroke-width:1.46150088"
                 id="path136"
                 d="m 504.55414,29.922757 c 4.82296,0 8.62286,3.799902 8.62286,8.622855 0,4.822953 -3.7999,8.622855 -8.62286,8.622855 -4.82295,0 -8.62285,-3.799902 -8.62285,-8.622855 0,-4.676803 3.94605,-8.622855 8.62285,-8.622855 z" /><path
                 inkscape:connector-curvature="0"
                 style="clip-rule:evenodd;fill:url(#SVGID_11_);fill-rule:evenodd;stroke-width:1.46150088"
                 id="path143"
                 d="m 504.55414,32.845759 c 3.21531,0 5.69986,2.630701 5.69986,5.699853 0,3.069152 -2.6307,5.699853 -5.69986,5.699853 -3.2153,0 -5.69985,-2.630701 -5.69985,-5.699853 0,-3.069152 2.6307,-5.699853 5.69985,-5.699853 z" /><path
                 inkscape:connector-curvature="0"
                 style="clip-rule:evenodd;opacity:0.5;fill:url(#SVGID_12_);fill-rule:evenodd;stroke-width:1.46150088"
                 id="path150"
                 d="m 504.55414,34.59956 c 2.19225,0 3.94606,1.753801 3.94606,3.946052 0,2.192251 -1.75381,3.946052 -3.94606,3.946052 -2.19225,0 -3.94605,-1.753801 -3.94605,-3.946052 0.14615,-2.192251 1.89995,-3.946052 3.94605,-3.946052 z" /><path
                 style="clip-rule:evenodd;opacity:0.3;fill:#ffffff;fill-rule:evenodd;stroke-width:1.46150088"
                 inkscape:connector-curvature="0"
                 id="path152"
                 d="m 504.55414,35.62261 c 1.02305,0 1.89995,0.438451 1.89995,1.023051 0,0.5846 -0.8769,1.023051 -1.89995,1.023051 -1.02305,0 -1.89995,-0.438451 -1.89995,-1.023051 0,-0.5846 0.8769,-1.023051 1.89995,-1.023051 z" /></g></g><g
             id="g1334"
             transform="matrix(0.90526507,0,0,0.90526507,-9.2369446,1.3840616)"
             style="opacity:0.61600001"><g
               transform="matrix(0.68216713,0,0,0.68216713,104.71696,6.0070412)"
               id="g1310"><path
                 d="m 105.05292,20.253918 h 243.02833 c 7.6722,0 13.76483,6.092632 13.76483,13.764836 0,7.672203 -6.09263,13.764835 -13.76483,13.764835 H 105.05292 c -7.672202,0 -13.764834,-6.092632 -13.764834,-13.764835 0.225653,-7.672204 6.318285,-13.764836 13.764834,-13.764836 z"
                 id="path65"
                 style="clip-rule:evenodd;fill:url(#linearGradient1304);fill-rule:evenodd;stroke-width:2.25653052"
                 inkscape:connector-curvature="0" /><path
                 d="M 348.3069,49.137507 H 105.05292 c -8.349161,0 -15.118753,-6.769591 -15.118753,-15.118753 C 89.934167,25.669591 96.703759,18.9 105.05292,18.9 h 243.02833 c 8.34916,0 15.11875,6.769591 15.11875,15.118754 0,8.349162 -6.54394,15.118753 -14.8931,15.118753 z M 105.05292,21.382183 c -6.76959,0 -12.410916,5.641326 -12.410916,12.410918 0,6.769591 5.641326,12.410917 12.410916,12.410917 h 243.02833 c 6.76959,0 12.41091,-5.641326 12.41091,-12.410917 0,-6.769592 -5.64132,-12.410918 -12.41091,-12.410918 z"
                 id="path67"
                 inkscape:connector-curvature="0"
                 style="opacity:0.1;fill:#010101;stroke-width:2.25653052" /><path
                 style="clip-rule:evenodd;opacity:0.2;fill:#ffffff;fill-rule:evenodd;stroke-width:2.25653052"
                 inkscape:connector-curvature="0"
                 id="path71"
                 d="m 343.56819,41.690957 c -3.3848,0 -6.31829,-2.707836 -6.31829,-5.866979 0,-3.159143 2.70784,-5.866979 6.31829,-5.866979 3.38479,0 6.31828,2.707836 6.31828,5.866979 0,3.159143 -2.93349,5.866979 -6.31828,5.866979 z m -19.40617,0 c -3.38479,0 -6.31828,-2.707836 -6.31828,-5.866979 0,-3.159143 2.70784,-5.866979 6.31828,-5.866979 3.3848,0 6.31829,2.707836 6.31829,5.866979 0,3.159143 -2.70784,5.866979 -6.31829,5.866979 z m -19.1805,0 c -3.3848,0 -6.31829,-2.707836 -6.31829,-5.866979 0,-3.159143 2.70784,-5.866979 6.31829,-5.866979 3.61044,0 6.31828,2.707836 6.31828,5.866979 -0.22565,3.159143 -2.93349,5.866979 -6.31828,5.866979 z m -19.40617,0 c -3.38479,0 -6.31828,-2.707836 -6.31828,-5.866979 0,-3.159143 2.70784,-5.866979 6.31828,-5.866979 3.3848,0 6.31829,2.707836 6.31829,5.866979 0,3.159143 -2.93349,5.866979 -6.31829,5.866979 z m -19.40616,0 c -3.38479,0 -6.31828,-2.707836 -6.31828,-5.866979 0,-3.159143 2.70783,-5.866979 6.31828,-5.866979 3.3848,0 6.31829,2.707836 6.31829,5.866979 0,3.159143 -2.93349,5.866979 -6.31829,5.866979 z m -19.40616,0 c -3.38479,0 -6.31828,-2.707836 -6.31828,-5.866979 0,-3.159143 2.70783,-5.866979 6.31828,-5.866979 3.3848,0 6.31829,2.707836 6.31829,5.866979 0,3.159143 -2.70784,5.866979 -6.31829,5.866979 z m -19.18051,0 c -3.38479,0 -6.31828,-2.707836 -6.31828,-5.866979 0,-3.159143 2.70783,-5.866979 6.31828,-5.866979 3.3848,0 6.31829,2.707836 6.31829,5.866979 -0.22566,3.159143 -2.93349,5.866979 -6.31829,5.866979 z m -19.40616,0 c -3.38479,0 -6.31828,-2.707836 -6.31828,-5.866979 0,-3.159143 2.70783,-5.866979 6.31828,-5.866979 3.61045,0 6.31829,2.707836 6.31829,5.866979 0,3.159143 -2.93349,5.866979 -6.31829,5.866979 z m -19.40616,0 c -3.3848,0 -6.31829,-2.707836 -6.31829,-5.866979 0,-3.159143 2.70784,-5.866979 6.31829,-5.866979 3.61045,0 6.31828,2.707836 6.31828,5.866979 0,3.159143 -2.70783,5.866979 -6.31828,5.866979 z m -19.18051,0 c -3.38479,0 -6.31828,-2.707836 -6.31828,-5.866979 0,-3.159143 2.70783,-5.866979 6.31828,-5.866979 3.3848,0 6.31829,2.707836 6.31829,5.866979 -0.22566,3.159143 -2.93349,5.866979 -6.31829,5.866979 z m -19.40616,0 c -3.3848,0 -6.31829,-2.707836 -6.31829,-5.866979 0,-3.159143 2.70784,-5.866979 6.31829,-5.866979 3.3848,0 6.31828,2.707836 6.31828,5.866979 0,3.159143 -2.93348,5.866979 -6.31828,5.866979 z m -19.40616,0 c -3.3848,0 -6.31829,-2.707836 -6.31829,-5.866979 0,-3.159143 2.70784,-5.866979 6.31829,-5.866979 3.38479,0 6.31828,2.707836 6.31828,5.866979 0,3.159143 -2.70783,5.866979 -6.31828,5.866979 z m -19.40616,0 c -3.3848,0 -6.31829,-2.707836 -6.31829,-5.866979 0,-3.159143 2.70784,-5.866979 6.31829,-5.866979 3.38479,0 6.31828,2.707836 6.31828,5.866979 0,3.159143 -2.70783,5.866979 -6.31828,5.866979 z" /><path
                 style="clip-rule:evenodd;fill:#010101;fill-rule:evenodd;stroke-width:2.25653052"
                 inkscape:connector-curvature="0"
                 id="path73"
                 d="m 343.56819,39.885733 c -3.3848,0 -6.31829,-2.707837 -6.31829,-5.866979 0,-3.159143 2.70784,-5.866979 6.31829,-5.866979 3.38479,0 6.31828,2.707836 6.31828,5.866979 0,3.159142 -2.93349,5.866979 -6.31828,5.866979 z m -19.40617,0 c -3.38479,0 -6.31828,-2.707837 -6.31828,-5.866979 0,-3.159143 2.70784,-5.866979 6.31828,-5.866979 3.3848,0 6.31829,2.707836 6.31829,5.866979 0,3.159142 -2.70784,5.866979 -6.31829,5.866979 z m -19.1805,0 c -3.3848,0 -6.31829,-2.707837 -6.31829,-5.866979 0,-3.159143 2.70784,-5.866979 6.31829,-5.866979 3.61044,0 6.31828,2.707836 6.31828,5.866979 -0.22565,3.159142 -2.93349,5.866979 -6.31828,5.866979 z m -19.40617,0 c -3.38479,0 -6.31828,-2.707837 -6.31828,-5.866979 0,-3.159143 2.70784,-5.866979 6.31828,-5.866979 3.3848,0 6.31829,2.707836 6.31829,5.866979 0,3.159142 -2.93349,5.866979 -6.31829,5.866979 z m -19.40616,0 c -3.38479,0 -6.31828,-2.707837 -6.31828,-5.866979 0,-3.159143 2.70783,-5.866979 6.31828,-5.866979 3.3848,0 6.31829,2.707836 6.31829,5.866979 0,3.159142 -2.93349,5.866979 -6.31829,5.866979 z m -19.40616,0 c -3.38479,0 -6.31828,-2.707837 -6.31828,-5.866979 0,-3.159143 2.70783,-5.866979 6.31828,-5.866979 3.3848,0 6.31829,2.707836 6.31829,5.866979 0,3.159142 -2.70784,5.866979 -6.31829,5.866979 z m -19.18051,0 c -3.38479,0 -6.31828,-2.707837 -6.31828,-5.866979 0,-3.159143 2.70783,-5.866979 6.31828,-5.866979 3.3848,0 6.31829,2.707836 6.31829,5.866979 -0.22566,3.159142 -2.93349,5.866979 -6.31829,5.866979 z m -19.40616,0 c -3.38479,0 -6.31828,-2.707837 -6.31828,-5.866979 0,-3.159143 2.70783,-5.866979 6.31828,-5.866979 3.61045,0 6.31829,2.707836 6.31829,5.866979 0,3.159142 -2.93349,5.866979 -6.31829,5.866979 z m -19.40616,0 c -3.3848,0 -6.31829,-2.707837 -6.31829,-5.866979 0,-3.159143 2.70784,-5.866979 6.31829,-5.866979 3.61045,0 6.31828,2.707836 6.31828,5.866979 0,3.159142 -2.70783,5.866979 -6.31828,5.866979 z m -19.18051,0 c -3.38479,0 -6.31828,-2.707837 -6.31828,-5.866979 0,-3.159143 2.70783,-5.866979 6.31828,-5.866979 3.3848,0 6.31829,2.707836 6.31829,5.866979 -0.22566,3.159142 -2.93349,5.866979 -6.31829,5.866979 z m -19.40616,0 c -3.3848,0 -6.31829,-2.707837 -6.31829,-5.866979 0,-3.159143 2.70784,-5.866979 6.31829,-5.866979 3.3848,0 6.31828,2.707836 6.31828,5.866979 0,3.159142 -2.93348,5.866979 -6.31828,5.866979 z m -19.40616,0 c -3.3848,0 -6.31829,-2.707837 -6.31829,-5.866979 0,-3.159143 2.70784,-5.866979 6.31829,-5.866979 3.38479,0 6.31828,2.707836 6.31828,5.866979 0,3.159142 -2.70783,5.866979 -6.31828,5.866979 z m -19.40616,0 c -3.3848,0 -6.31829,-2.707837 -6.31829,-5.866979 0,-3.159143 2.70784,-5.866979 6.31829,-5.866979 3.38479,0 6.31828,2.707836 6.31828,5.866979 0,3.159142 -2.70783,5.866979 -6.31828,5.866979 z" /></g><g
               id="g1320"
               transform="matrix(0.68216713,0,0,0.68216713,287.71696,6.0070412)"><path
                 inkscape:connector-curvature="0"
                 style="clip-rule:evenodd;fill:url(#linearGradient1322);fill-rule:evenodd;stroke-width:2.25653052"
                 id="path1312"
                 d="m 105.05292,20.253918 h 243.02833 c 7.6722,0 13.76483,6.092632 13.76483,13.764836 0,7.672203 -6.09263,13.764835 -13.76483,13.764835 H 105.05292 c -7.672202,0 -13.764834,-6.092632 -13.764834,-13.764835 0.225653,-7.672204 6.318285,-13.764836 13.764834,-13.764836 z" /><path
                 style="opacity:0.1;fill:#010101;stroke-width:2.25653052"
                 inkscape:connector-curvature="0"
                 id="path1314"
                 d="M 348.3069,49.137507 H 105.05292 c -8.349161,0 -15.118753,-6.769591 -15.118753,-15.118753 C 89.934167,25.669591 96.703759,18.9 105.05292,18.9 h 243.02833 c 8.34916,0 15.11875,6.769591 15.11875,15.118754 0,8.349162 -6.54394,15.118753 -14.8931,15.118753 z M 105.05292,21.382183 c -6.76959,0 -12.410916,5.641326 -12.410916,12.410918 0,6.769591 5.641326,12.410917 12.410916,12.410917 h 243.02833 c 6.76959,0 12.41091,-5.641326 12.41091,-12.410917 0,-6.769592 -5.64132,-12.410918 -12.41091,-12.410918 z" /><path
                 d="m 343.56819,41.690957 c -3.3848,0 -6.31829,-2.707836 -6.31829,-5.866979 0,-3.159143 2.70784,-5.866979 6.31829,-5.866979 3.38479,0 6.31828,2.707836 6.31828,5.866979 0,3.159143 -2.93349,5.866979 -6.31828,5.866979 z m -19.40617,0 c -3.38479,0 -6.31828,-2.707836 -6.31828,-5.866979 0,-3.159143 2.70784,-5.866979 6.31828,-5.866979 3.3848,0 6.31829,2.707836 6.31829,5.866979 0,3.159143 -2.70784,5.866979 -6.31829,5.866979 z m -19.1805,0 c -3.3848,0 -6.31829,-2.707836 -6.31829,-5.866979 0,-3.159143 2.70784,-5.866979 6.31829,-5.866979 3.61044,0 6.31828,2.707836 6.31828,5.866979 -0.22565,3.159143 -2.93349,5.866979 -6.31828,5.866979 z m -19.40617,0 c -3.38479,0 -6.31828,-2.707836 -6.31828,-5.866979 0,-3.159143 2.70784,-5.866979 6.31828,-5.866979 3.3848,0 6.31829,2.707836 6.31829,5.866979 0,3.159143 -2.93349,5.866979 -6.31829,5.866979 z m -19.40616,0 c -3.38479,0 -6.31828,-2.707836 -6.31828,-5.866979 0,-3.159143 2.70783,-5.866979 6.31828,-5.866979 3.3848,0 6.31829,2.707836 6.31829,5.866979 0,3.159143 -2.93349,5.866979 -6.31829,5.866979 z m -19.40616,0 c -3.38479,0 -6.31828,-2.707836 -6.31828,-5.866979 0,-3.159143 2.70783,-5.866979 6.31828,-5.866979 3.3848,0 6.31829,2.707836 6.31829,5.866979 0,3.159143 -2.70784,5.866979 -6.31829,5.866979 z m -19.18051,0 c -3.38479,0 -6.31828,-2.707836 -6.31828,-5.866979 0,-3.159143 2.70783,-5.866979 6.31828,-5.866979 3.3848,0 6.31829,2.707836 6.31829,5.866979 -0.22566,3.159143 -2.93349,5.866979 -6.31829,5.866979 z m -19.40616,0 c -3.38479,0 -6.31828,-2.707836 -6.31828,-5.866979 0,-3.159143 2.70783,-5.866979 6.31828,-5.866979 3.61045,0 6.31829,2.707836 6.31829,5.866979 0,3.159143 -2.93349,5.866979 -6.31829,5.866979 z m -19.40616,0 c -3.3848,0 -6.31829,-2.707836 -6.31829,-5.866979 0,-3.159143 2.70784,-5.866979 6.31829,-5.866979 3.61045,0 6.31828,2.707836 6.31828,5.866979 0,3.159143 -2.70783,5.866979 -6.31828,5.866979 z m -19.18051,0 c -3.38479,0 -6.31828,-2.707836 -6.31828,-5.866979 0,-3.159143 2.70783,-5.866979 6.31828,-5.866979 3.3848,0 6.31829,2.707836 6.31829,5.866979 -0.22566,3.159143 -2.93349,5.866979 -6.31829,5.866979 z m -19.40616,0 c -3.3848,0 -6.31829,-2.707836 -6.31829,-5.866979 0,-3.159143 2.70784,-5.866979 6.31829,-5.866979 3.3848,0 6.31828,2.707836 6.31828,5.866979 0,3.159143 -2.93348,5.866979 -6.31828,5.866979 z m -19.40616,0 c -3.3848,0 -6.31829,-2.707836 -6.31829,-5.866979 0,-3.159143 2.70784,-5.866979 6.31829,-5.866979 3.38479,0 6.31828,2.707836 6.31828,5.866979 0,3.159143 -2.70783,5.866979 -6.31828,5.866979 z m -19.40616,0 c -3.3848,0 -6.31829,-2.707836 -6.31829,-5.866979 0,-3.159143 2.70784,-5.866979 6.31829,-5.866979 3.38479,0 6.31828,2.707836 6.31828,5.866979 0,3.159143 -2.70783,5.866979 -6.31828,5.866979 z"
                 id="path1316"
                 inkscape:connector-curvature="0"
                 style="clip-rule:evenodd;opacity:0.2;fill:#ffffff;fill-rule:evenodd;stroke-width:2.25653052" /><path
                 d="m 343.56819,39.885733 c -3.3848,0 -6.31829,-2.707837 -6.31829,-5.866979 0,-3.159143 2.70784,-5.866979 6.31829,-5.866979 3.38479,0 6.31828,2.707836 6.31828,5.866979 0,3.159142 -2.93349,5.866979 -6.31828,5.866979 z m -19.40617,0 c -3.38479,0 -6.31828,-2.707837 -6.31828,-5.866979 0,-3.159143 2.70784,-5.866979 6.31828,-5.866979 3.3848,0 6.31829,2.707836 6.31829,5.866979 0,3.159142 -2.70784,5.866979 -6.31829,5.866979 z m -19.1805,0 c -3.3848,0 -6.31829,-2.707837 -6.31829,-5.866979 0,-3.159143 2.70784,-5.866979 6.31829,-5.866979 3.61044,0 6.31828,2.707836 6.31828,5.866979 -0.22565,3.159142 -2.93349,5.866979 -6.31828,5.866979 z m -19.40617,0 c -3.38479,0 -6.31828,-2.707837 -6.31828,-5.866979 0,-3.159143 2.70784,-5.866979 6.31828,-5.866979 3.3848,0 6.31829,2.707836 6.31829,5.866979 0,3.159142 -2.93349,5.866979 -6.31829,5.866979 z m -19.40616,0 c -3.38479,0 -6.31828,-2.707837 -6.31828,-5.866979 0,-3.159143 2.70783,-5.866979 6.31828,-5.866979 3.3848,0 6.31829,2.707836 6.31829,5.866979 0,3.159142 -2.93349,5.866979 -6.31829,5.866979 z m -19.40616,0 c -3.38479,0 -6.31828,-2.707837 -6.31828,-5.866979 0,-3.159143 2.70783,-5.866979 6.31828,-5.866979 3.3848,0 6.31829,2.707836 6.31829,5.866979 0,3.159142 -2.70784,5.866979 -6.31829,5.866979 z m -19.18051,0 c -3.38479,0 -6.31828,-2.707837 -6.31828,-5.866979 0,-3.159143 2.70783,-5.866979 6.31828,-5.866979 3.3848,0 6.31829,2.707836 6.31829,5.866979 -0.22566,3.159142 -2.93349,5.866979 -6.31829,5.866979 z m -19.40616,0 c -3.38479,0 -6.31828,-2.707837 -6.31828,-5.866979 0,-3.159143 2.70783,-5.866979 6.31828,-5.866979 3.61045,0 6.31829,2.707836 6.31829,5.866979 0,3.159142 -2.93349,5.866979 -6.31829,5.866979 z m -19.40616,0 c -3.3848,0 -6.31829,-2.707837 -6.31829,-5.866979 0,-3.159143 2.70784,-5.866979 6.31829,-5.866979 3.61045,0 6.31828,2.707836 6.31828,5.866979 0,3.159142 -2.70783,5.866979 -6.31828,5.866979 z m -19.18051,0 c -3.38479,0 -6.31828,-2.707837 -6.31828,-5.866979 0,-3.159143 2.70783,-5.866979 6.31828,-5.866979 3.3848,0 6.31829,2.707836 6.31829,5.866979 -0.22566,3.159142 -2.93349,5.866979 -6.31829,5.866979 z m -19.40616,0 c -3.3848,0 -6.31829,-2.707837 -6.31829,-5.866979 0,-3.159143 2.70784,-5.866979 6.31829,-5.866979 3.3848,0 6.31828,2.707836 6.31828,5.866979 0,3.159142 -2.93348,5.866979 -6.31828,5.866979 z m -19.40616,0 c -3.3848,0 -6.31829,-2.707837 -6.31829,-5.866979 0,-3.159143 2.70784,-5.866979 6.31829,-5.866979 3.38479,0 6.31828,2.707836 6.31828,5.866979 0,3.159142 -2.70783,5.866979 -6.31828,5.866979 z m -19.40616,0 c -3.3848,0 -6.31829,-2.707837 -6.31829,-5.866979 0,-3.159143 2.70784,-5.866979 6.31829,-5.866979 3.38479,0 6.31828,2.707836 6.31828,5.866979 0,3.159142 -2.70783,5.866979 -6.31828,5.866979 z"
                 id="path1318"
                 inkscape:connector-curvature="0"
                 style="clip-rule:evenodd;fill:#010101;fill-rule:evenodd;stroke-width:2.25653052" /></g></g></g></g></g></g></svg>