<?xml version="1.0" encoding="UTF-8"?>
<!DOCTYPE svg PUBLIC "-//W3C//DTD SVG 1.1//EN" "http://www.w3.org/Graphics/SVG/1.1/DTD/svg11.dtd">
<svg xmlns="http://www.w3.org/2000/svg" version="1.1" width="254px" height="300px" style="shape-rendering:geometricPrecision; text-rendering:geometricPrecision; image-rendering:optimizeQuality; fill-rule:evenodd; clip-rule:evenodd" xmlns:xlink="http://www.w3.org/1999/xlink">
<g><path style="opacity:0.993" fill="#fbc5dd" d="M 191.5,98.5 C 190.778,98.0825 190.278,97.4158 190,96.5C 189.667,96.8333 189.333,97.1667 189,97.5C 180.379,115.198 174.212,133.864 170.5,153.5C 169.71,154.794 168.71,155.961 167.5,157C 163.848,157.499 160.182,157.665 156.5,157.5C 156.172,154.828 154.672,153.161 152,152.5C 149.643,147.645 146.143,143.979 141.5,141.5C 140.833,138.833 139.167,137.167 136.5,136.5C 131.333,126.167 134.333,121.333 145.5,122C 148.797,124.295 151.797,126.962 154.5,130C 155.793,130.49 157.127,130.657 158.5,130.5C 159.527,123.914 161.193,117.581 163.5,111.5C 164.73,109.703 165.396,107.703 165.5,105.5C 168.24,98.4072 171.406,91.4072 175,84.5C 177.158,80.1895 179.825,76.1895 183,72.5C 184.352,69.2799 185.186,65.9466 185.5,62.5C 192.891,52.0714 200.058,41.4048 207,30.5C 213.167,23.6667 219.333,16.8333 225.5,10C 232.317,5.8303 237.484,7.3303 241,14.5C 241.817,17.9643 241.483,21.2976 240,24.5C 222.877,43.4096 208.21,64.0763 196,86.5C 193.636,90.2186 192.136,94.2186 191.5,98.5 Z"/></g>
<g><path style="opacity:0.944" fill="#fcfdfe" d="M 185.5,62.5 C 185.186,65.9466 184.352,69.2799 183,72.5C 179.825,76.1895 177.158,80.1895 175,84.5C 171.406,91.4072 168.24,98.4072 165.5,105.5C 147.465,106.504 129.465,108.004 111.5,110C 90.2209,112.343 69.0542,115.176 48,118.5C 47.2797,120.112 47.4464,121.612 48.5,123C 50.6667,123.167 52.8333,123.333 55,123.5C 91.1762,119.54 127.343,115.54 163.5,111.5C 161.193,117.581 159.527,123.914 158.5,130.5C 157.127,130.657 155.793,130.49 154.5,130C 151.797,126.962 148.797,124.295 145.5,122C 134.333,121.333 131.333,126.167 136.5,136.5C 133.103,137.192 129.77,137.192 126.5,136.5C 126.954,133.274 126.954,129.94 126.5,126.5C 118.029,124.48 115.362,127.647 118.5,136C 116.972,138.281 116.472,140.781 117,143.5C 118.126,144.944 119.626,145.61 121.5,145.5C 128.384,145.108 135.051,143.775 141.5,141.5C 146.143,143.979 149.643,147.645 152,152.5C 154.672,153.161 156.172,154.828 156.5,157.5C 154.052,158.473 151.385,158.806 148.5,158.5C 150.069,148.807 147.069,147.141 139.5,153.5C 138.071,152.065 136.405,151.065 134.5,150.5C 132.688,150.952 131.688,152.118 131.5,154C 133.831,157.325 135.831,160.825 137.5,164.5C 146.833,165.842 156.166,165.675 165.5,164C 166.167,163.333 166.833,162.667 167.5,162C 172.181,160.656 176.847,159.323 181.5,158C 182.406,156.301 182.739,154.467 182.5,152.5C 178.4,152.237 174.4,152.57 170.5,153.5C 174.212,133.864 180.379,115.198 189,97.5C 189.333,97.1667 189.667,96.8333 190,96.5C 190.278,97.4158 190.778,98.0825 191.5,98.5C 196.09,151.557 201.257,204.557 207,257.5C 207.784,262.887 207.618,268.22 206.5,273.5C 204.343,274.79 202.01,275.624 199.5,276C 151.925,280.173 104.425,285.007 57,290.5C 54.4088,290.435 51.9088,289.935 49.5,289C 48.8095,287.933 48.3095,286.766 48,285.5C 41.7359,218.093 34.9026,150.76 27.5,83.5C 27.5494,79.8964 29.216,77.3964 32.5,76C 82.076,71.4327 131.576,66.266 181,60.5C 182.585,61.0439 184.085,61.7106 185.5,62.5 Z"/></g>
<g><path style="opacity:1" fill="#b2c6f7" d="M 156.5,73.5 C 158.167,73.5 159.833,73.5 161.5,73.5C 161.5,77.5 161.5,81.5 161.5,85.5C 159.5,85.5 157.5,85.5 155.5,85.5C 155.237,81.3998 155.57,77.3998 156.5,73.5 Z"/></g>
<g><path style="opacity:1" fill="#b4c8f6" d="M 127.5,83.5 C 129.591,83.3184 131.591,83.6518 133.5,84.5C 134.167,86.8333 134.833,89.1667 135.5,91.5C 138.77,89.8395 142.103,89.5061 145.5,90.5C 146.485,92.0983 146.651,93.765 146,95.5C 138.805,98.2153 131.305,99.2153 123.5,98.5C 124.147,93.2407 125.48,88.2407 127.5,83.5 Z"/></g>
<g><path style="opacity:1" fill="#becef3" d="M 158.5,88.5 C 163.123,87.4082 164.956,89.0748 164,93.5C 158.42,95.7516 156.587,94.0849 158.5,88.5 Z"/></g>
<g><path style="opacity:1" fill="#adc7f8" d="M 46.5,87.5 C 48.1439,87.2865 49.6439,87.6198 51,88.5C 51.3333,92.1667 51.6667,95.8333 52,99.5C 52.414,99.9574 52.914,100.291 53.5,100.5C 54.3142,98.2338 54.8142,95.9005 55,93.5C 55.8926,92.9186 56.8926,92.5852 58,92.5C 60.1608,93.454 62.3275,94.454 64.5,95.5C 66.9162,95.1253 69.2496,94.4587 71.5,93.5C 79.0343,95.9366 85.3676,94.2699 90.5,88.5C 93.1062,87.3483 95.7728,87.1816 98.5,88C 100.607,89.2635 101.607,91.0968 101.5,93.5C 104.545,93.5079 107.545,93.8413 110.5,94.5C 110.739,96.4672 110.406,98.3005 109.5,100C 105.5,100.667 101.5,100.667 97.5,100C 96.6667,99.1667 95.8333,98.3333 95,97.5C 92.1478,99.3352 89.3145,101.169 86.5,103C 80.8333,102.667 75.1667,102.333 69.5,102C 64.1012,101.901 59.7679,103.901 56.5,108C 50.9579,109.892 47.4579,108.059 46,102.5C 45.2223,97.4158 45.3889,92.4158 46.5,87.5 Z"/></g>
<g><path style="opacity:1" fill="#adc6f7" d="M 165.5,105.5 C 165.396,107.703 164.73,109.703 163.5,111.5C 127.343,115.54 91.1762,119.54 55,123.5C 52.8333,123.333 50.6667,123.167 48.5,123C 47.4464,121.612 47.2797,120.112 48,118.5C 69.0542,115.176 90.2209,112.343 111.5,110C 129.465,108.004 147.465,106.504 165.5,105.5 Z"/></g>
<g><path style="opacity:1" fill="#b0c7f5" d="M 136.5,136.5 C 139.167,137.167 140.833,138.833 141.5,141.5C 135.051,143.775 128.384,145.108 121.5,145.5C 119.626,145.61 118.126,144.944 117,143.5C 116.472,140.781 116.972,138.281 118.5,136C 115.362,127.647 118.029,124.48 126.5,126.5C 126.954,129.94 126.954,133.274 126.5,136.5C 129.77,137.192 133.103,137.192 136.5,136.5 Z"/></g>
<g><path style="opacity:1" fill="#afc7f8" d="M 51.5,137.5 C 53.4672,137.261 55.3005,137.594 57,138.5C 57.3333,140.833 57.6667,143.167 58,145.5C 58.6904,141.81 60.8571,140.643 64.5,142C 65.0465,142.925 65.7132,143.758 66.5,144.5C 68.2525,142.739 70.2525,141.406 72.5,140.5C 83.0701,140.437 93.7368,140.604 104.5,141C 107.399,144.233 106.899,146.733 103,148.5C 92.835,147.465 82.6683,147.632 72.5,149C 71.5,150 70.5,151 69.5,152C 64.5302,153.081 59.5302,153.414 54.5,153C 53.3333,151.833 52.1667,150.667 51,149.5C 50.2375,145.413 50.4042,141.413 51.5,137.5 Z"/></g>
<g><path style="opacity:1" fill="#adc6f7" d="M 156.5,157.5 C 160.182,157.665 163.848,157.499 167.5,157C 168.71,155.961 169.71,154.794 170.5,153.5C 174.4,152.57 178.4,152.237 182.5,152.5C 182.739,154.467 182.406,156.301 181.5,158C 176.847,159.323 172.181,160.656 167.5,162C 166.833,162.667 166.167,163.333 165.5,164C 156.166,165.675 146.833,165.842 137.5,164.5C 135.831,160.825 133.831,157.325 131.5,154C 131.688,152.118 132.688,150.952 134.5,150.5C 136.405,151.065 138.071,152.065 139.5,153.5C 147.069,147.141 150.069,148.807 148.5,158.5C 151.385,158.806 154.052,158.473 156.5,157.5 Z"/></g>
<g><path style="opacity:1" fill="#b6c9f2" d="M 100.5,159.5 C 108.801,159.954 117.134,160.12 125.5,160C 128.033,162.084 128.033,164.084 125.5,166C 119.983,166.703 114.483,167.537 109,168.5C 101.91,169.576 99.0763,166.576 100.5,159.5 Z"/></g>
<g><path style="opacity:1" fill="#c6d1f8" d="M 83.5,164.5 C 85.5,164.5 87.5,164.5 89.5,164.5C 90.5,169.5 88.5,171.5 83.5,170.5C 83.5,168.5 83.5,166.5 83.5,164.5 Z"/></g>
<g><path style="opacity:1" fill="#afc8f7" d="M 58.5,165.5 C 64.5,165.5 70.5,165.5 76.5,165.5C 76.9167,168.079 76.25,170.246 74.5,172C 68.8144,172.614 63.1477,172.947 57.5,173C 56.2819,170.35 56.6152,167.85 58.5,165.5 Z"/></g>
<g><path style="opacity:1" fill="#bdcaeb" d="M 164.5,175.5 C 166.167,175.5 167.833,175.5 169.5,175.5C 170.322,181.209 168.489,182.543 164,179.5C 163.421,178.072 163.588,176.738 164.5,175.5 Z"/></g>
<g><path style="opacity:1" fill="#cbd9f4" d="M 132.5,177.5 C 137.511,177.334 142.511,177.501 147.5,178C 150.363,182.117 149.197,184.617 144,185.5C 138.521,186.486 133.021,186.652 127.5,186C 125.327,184.135 124.993,181.969 126.5,179.5C 128.631,178.831 130.631,178.165 132.5,177.5 Z"/></g>
<g><path style="opacity:1" fill="#a7c3f6" d="M 138.5,178.5 C 141.249,178.274 143.916,178.607 146.5,179.5C 147.731,180.651 147.731,181.817 146.5,183C 140.194,183.897 133.861,184.397 127.5,184.5C 127.286,182.856 127.62,181.356 128.5,180C 132.025,179.821 135.359,179.321 138.5,178.5 Z"/></g>
<g><path style="opacity:1" fill="#c3cff6" d="M 155.5,176.5 C 160.486,176.305 162.152,178.472 160.5,183C 154.741,184.139 153.074,181.972 155.5,176.5 Z"/></g>
<g><path style="opacity:1" fill="#b3c8f5" d="M 82.5,178.5 C 82.6107,177.883 82.944,177.383 83.5,177C 86.5,176.333 89.5,176.333 92.5,177C 93.6867,179.774 95.0201,182.441 96.5,185C 102.167,185.333 107.833,185.667 113.5,186C 116.054,188.269 116.054,190.602 113.5,193C 107.5,193.667 101.5,193.667 95.5,193C 93.99,192.15 92.49,191.317 91,190.5C 89.5805,192.422 87.7472,193.755 85.5,194.5C 79.7212,192.48 73.7212,191.98 67.5,193C 56.9321,197.815 52.4321,194.315 54,182.5C 55.4152,179.782 57.4152,179.115 60,180.5C 60.1816,183.226 60.6816,185.893 61.5,188.5C 62.3816,187.24 63.3816,186.074 64.5,185C 69.4889,184.501 74.4889,184.334 79.5,184.5C 79.0246,181.687 80.0246,179.687 82.5,178.5 Z"/></g>
<g><path style="opacity:1" fill="#a7c1fb" d="M 82.5,178.5 C 88.4937,176.322 92.327,178.322 94,184.5C 95.1711,185.893 96.6711,186.727 98.5,187C 103.823,187.499 109.156,187.666 114.5,187.5C 114.5,188.5 114.5,189.5 114.5,190.5C 110.465,190.393 106.465,190.726 102.5,191.5C 98.657,190.887 94.8237,190.221 91,189.5C 89.6739,189.755 88.6739,190.422 88,191.5C 87.0094,190.061 85.676,189.061 84,188.5C 80.2564,189.626 76.423,189.793 72.5,189C 74.6787,187.858 77.0121,187.025 79.5,186.5C 80.2548,183.675 81.2548,181.009 82.5,178.5 Z"/></g>
<g><path style="opacity:1" fill="#aec6f7" d="M 145.5,196.5 C 149.514,196.334 153.514,196.501 157.5,197C 158.025,197.692 158.692,198.192 159.5,198.5C 160.292,201.973 161.292,205.306 162.5,208.5C 165.524,206.997 168.19,204.83 170.5,202C 176.357,201.721 182.191,201.221 188,200.5C 192.082,201.159 193.416,203.492 192,207.5C 191.5,208 191,208.5 190.5,209C 184.833,209.333 179.167,209.667 173.5,210C 165.984,217.784 159.484,216.951 154,207.5C 152.272,210.953 149.438,212.786 145.5,213C 137.112,213.831 128.779,213.497 120.5,212C 117.646,208.4 118.313,205.4 122.5,203C 126.14,202.486 129.14,203.652 131.5,206.5C 135.512,205.439 139.512,205.272 143.5,206C 144.304,202.883 144.97,199.716 145.5,196.5 Z"/></g>
<g><path style="opacity:1" fill="#adc7f7" d="M 63.5,202.5 C 66.3198,202.248 68.9865,202.748 71.5,204C 72.3802,205.356 72.7135,206.856 72.5,208.5C 66.5827,208.126 65.9161,209.793 70.5,213.5C 74.0938,214.426 77.7604,214.759 81.5,214.5C 81.1774,210.774 81.5108,207.107 82.5,203.5C 84.6439,202.047 86.4773,202.38 88,204.5C 88.3333,207.167 88.6667,209.833 89,212.5C 95.4184,211.357 101.918,211.19 108.5,212C 110.25,213.754 110.917,215.921 110.5,218.5C 99.7936,218.518 89.4603,219.852 79.5,222.5C 76.0445,222.32 72.7111,221.653 69.5,220.5C 66.4624,221.937 63.2958,222.937 60,223.5C 54.2762,222.697 52.4429,219.531 54.5,214C 56.0249,212.991 57.6916,212.491 59.5,212.5C 58.7414,208.094 60.0748,204.761 63.5,202.5 Z"/></g>
<g><path style="opacity:1" fill="#abc5f4" d="M 162.5,220.5 C 164.833,220.5 167.167,220.5 169.5,220.5C 169.261,222.467 169.594,224.301 170.5,226C 177.5,226.333 184.5,226.667 191.5,227C 192.935,229.267 192.602,231.267 190.5,233C 180.488,233.025 170.655,233.858 161,235.5C 157.242,235.858 153.909,234.858 151,232.5C 150.808,234.577 150.308,236.577 149.5,238.5C 147.356,239.953 145.523,239.62 144,237.5C 143.183,234.036 143.517,230.702 145,227.5C 149.996,224.526 154.496,225.193 158.5,229.5C 158.898,225.996 160.231,222.996 162.5,220.5 Z"/></g>
<g><path style="opacity:1" fill="#abc6f8" d="M 96.5,228.5 C 99.5682,228.547 102.568,229.047 105.5,230C 106.244,232.907 107.91,235.073 110.5,236.5C 111.442,236.392 112.275,236.059 113,235.5C 113.495,233.527 113.662,231.527 113.5,229.5C 116.86,229.616 120.193,229.949 123.5,230.5C 123.799,232.604 123.466,234.604 122.5,236.5C 119.698,237.469 117.698,239.302 116.5,242C 111.087,244.459 106.253,243.626 102,239.5C 99.1333,243.433 95.4667,244.433 91,242.5C 88.1433,235.892 89.9766,231.225 96.5,228.5 Z"/></g>
<g><path style="opacity:1" fill="#b5cbf2" d="M 132.5,233.5 C 136.701,233.426 138.035,235.259 136.5,239C 134.866,239.494 133.199,239.66 131.5,239.5C 131.325,237.379 131.659,235.379 132.5,233.5 Z"/></g>
<g><path style="opacity:1" fill="#b2caf5" d="M 61.5,232.5 C 65.5138,232.334 69.5138,232.501 73.5,233C 74.1667,234.667 74.8333,236.333 75.5,238C 78.095,238.226 80.595,238.726 83,239.5C 84.0419,242.804 82.8753,244.971 79.5,246C 73.075,245.117 66.7417,245.451 60.5,247C 58.9346,241.963 59.2679,237.129 61.5,232.5 Z"/></g>
<g><path style="opacity:1" fill="#afc6f6" d="M 168.5,240.5 C 172.308,240.163 175.974,240.663 179.5,242C 181.278,244.135 181.945,246.635 181.5,249.5C 184.5,249.5 187.5,249.5 190.5,249.5C 190.5,251.167 190.5,252.833 190.5,254.5C 185.471,255.348 180.471,255.348 175.5,254.5C 168.651,255.751 161.818,257.085 155,258.5C 153.289,258.561 151.956,257.894 151,256.5C 150.333,253.167 150.333,249.833 151,246.5C 155.9,242.017 159.066,243.017 160.5,249.5C 162.144,249.714 163.644,249.38 165,248.5C 165.333,246.5 165.667,244.5 166,242.5C 166.995,241.934 167.828,241.267 168.5,240.5 Z"/></g>
<g><path style="opacity:1" fill="#aec7f9" d="M 86.5,249.5 C 90.554,249.987 92.554,252.32 92.5,256.5C 94.3615,255.472 95.6948,253.972 96.5,252C 97.3333,251.833 98.1667,251.667 99,251.5C 103.209,252.915 107.543,253.581 112,253.5C 120.051,251.763 128.218,251.263 136.5,252C 138.032,254.33 137.698,256.33 135.5,258C 123.61,259.914 111.61,261.247 99.5,262C 93.6614,266.013 88.8281,265.179 85,259.5C 84.063,255.833 84.563,252.499 86.5,249.5 Z"/></g>
<g><path style="opacity:1" fill="#bdcfeb" d="M 71.5,257.5 C 76.1225,256.408 77.9558,258.075 77,262.5C 72.3252,264.334 70.4919,262.667 71.5,257.5 Z"/></g>
<g><path style="opacity:1" fill="#b1cbee" d="M 62.5,257.5 C 66.3948,257.857 67.3948,259.857 65.5,263.5C 62.5002,265.226 60.8336,264.392 60.5,261C 60.8618,259.566 61.5285,258.399 62.5,257.5 Z"/></g>
</svg>
