<?xml version="1.0" encoding="UTF-8"?>
<!DOCTYPE svg PUBLIC "-//W3C//DTD SVG 1.1//EN" "http://www.w3.org/Graphics/SVG/1.1/DTD/svg11.dtd">
<svg xmlns="http://www.w3.org/2000/svg" version="1.1" width="250px" height="289px" style="shape-rendering:geometricPrecision; text-rendering:geometricPrecision; image-rendering:optimizeQuality; fill-rule:evenodd; clip-rule:evenodd" xmlns:xlink="http://www.w3.org/1999/xlink">
<g><path style="opacity:0.979" fill="#069b71" d="M 175.5,256.5 C 174.022,256.762 172.689,256.429 171.5,255.5C 172.246,254.264 172.579,252.93 172.5,251.5C 176.5,251.5 180.5,251.5 184.5,251.5C 184.461,249.641 185.294,248.308 187,247.5C 187.474,238.475 187.474,229.475 187,220.5C 187.333,221.5 187.667,222.5 188,223.5C 191.203,218.181 191.203,212.848 188,207.5C 186.701,207.034 185.201,207.034 183.5,207.5C 181.328,192.754 179.995,177.92 179.5,163C 179.475,160.071 178.809,157.571 177.5,155.5C 175.604,141.739 174.271,127.906 173.5,114C 173.475,111.071 172.809,108.571 171.5,106.5C 171.473,100.949 170.806,95.6161 169.5,90.5C 168.751,70.7628 167.251,51.0961 165,31.5C 164.768,30.2625 164.268,29.2625 163.5,28.5C 163.703,26.6096 163.037,25.1096 161.5,24C 153.615,23.2782 145.949,23.7782 138.5,25.5C 127.616,26.2001 116.949,27.5335 106.5,29.5C 99.1599,29.6287 91.8265,29.962 84.5,30.5C 81.0866,30.517 78.0866,31.1836 75.5,32.5C 67.2707,32.1779 59.2707,32.8446 51.5,34.5C 51.1667,34.5 50.8333,34.5 50.5,34.5C 45.7607,33.4071 43.7607,35.2404 44.5,40C 45.594,57.5664 47.594,74.7331 50.5,91.5C 50.7723,103.174 51.2723,114.84 52,126.5C 53.117,127.949 53.7837,129.616 54,131.5C 54.0066,138.425 54.8399,145.092 56.5,151.5C 56.6459,155.387 57.3126,159.054 58.5,162.5C 58.5,165.5 58.5,168.5 58.5,171.5C 58.8551,182.218 59.8551,192.884 61.5,203.5C 61.5989,208.202 60.9323,212.702 59.5,217C 59.6667,218.5 59.8333,220 60,221.5C 61.1313,220.396 61.9646,220.729 62.5,222.5C 60.5666,227.958 59.8999,233.458 60.5,239C 59.6195,239.708 58.9528,240.542 58.5,241.5C 50.065,171.075 42.8983,100.409 37,29.5C 38.0975,28.0325 39.5975,27.1992 41.5,27C 82.342,22.5731 123.175,18.0731 164,13.5C 169.498,13.3341 171.832,16.0008 171,21.5C 179.09,96.4744 186.923,171.474 194.5,246.5C 194.333,248.833 194.167,251.167 194,253.5C 193.5,254 193,254.5 192.5,255C 186.865,255.904 181.198,256.404 175.5,256.5 Z"/></g>
<g><path style="opacity:1" fill="#4084a1" d="M 163.5,28.5 C 164.865,38.6712 165.532,49.0046 165.5,59.5C 163.622,48.6825 162.122,37.6825 161,26.5C 159.322,24.4468 157.489,24.1134 155.5,25.5C 149.833,25.5 144.167,25.5 138.5,25.5C 145.949,23.7782 153.615,23.2782 161.5,24C 163.037,25.1096 163.703,26.6096 163.5,28.5 Z"/></g>
<g><path style="opacity:1" fill="#6881b0" d="M 138.5,25.5 C 144.167,25.5 149.833,25.5 155.5,25.5C 143.607,26.3331 131.607,27.4998 119.5,29C 118.5,29.3333 117.5,29.6667 116.5,30C 117.807,31.9435 117.807,33.7768 116.5,35.5C 117.176,31.5095 115.51,29.8429 111.5,30.5C 104.833,31.3333 98.1667,32.1667 91.5,33C 88.2768,33.9381 86.9435,36.1048 87.5,39.5C 86.5386,37.7354 86.2053,35.7354 86.5,33.5C 82.8333,33.5 79.1667,33.5 75.5,33.5C 75.5,33.1667 75.5,32.8333 75.5,32.5C 86.0331,32.0796 96.3665,31.0796 106.5,29.5C 116.949,27.5335 127.616,26.2001 138.5,25.5 Z"/></g>
<g><path style="opacity:1" fill="#3c849b" d="M 106.5,29.5 C 96.3665,31.0796 86.0331,32.0796 75.5,32.5C 78.0866,31.1836 81.0866,30.517 84.5,30.5C 91.8265,29.962 99.1599,29.6287 106.5,29.5 Z"/></g>
<g><path style="opacity:1" fill="#f2f1f9" d="M 116.5,35.5 C 116.389,36.1174 116.056,36.6174 115.5,37C 107.711,38.3714 99.8781,39.5381 92,40.5C 90.4085,40.3948 88.9085,40.0614 87.5,39.5C 86.9435,36.1048 88.2768,33.9381 91.5,33C 98.1667,32.1667 104.833,31.3333 111.5,30.5C 115.51,29.8429 117.176,31.5095 116.5,35.5 Z"/></g>
<g><path style="opacity:1" fill="#756fb7" d="M 165.5,59.5 C 165.833,64.8333 166.167,70.1667 166.5,75.5C 166.334,81.1764 166.501,86.8431 167,92.5C 167.698,95.0037 168.531,97.337 169.5,99.5C 170.167,101.833 170.833,104.167 171.5,106.5C 172.998,122.465 174.165,138.465 175,154.5C 176.1,158.503 176.933,162.503 177.5,166.5C 177.994,180.673 178.66,194.84 179.5,209C 177.4,214.402 178.234,219.235 182,223.5C 182.459,231.175 182.959,238.842 183.5,246.5C 178.99,246.884 174.657,247.551 170.5,248.5C 159.7,250.371 148.7,251.371 137.5,251.5C 135.5,251.5 133.5,251.5 131.5,251.5C 131.62,249.801 131.954,248.135 132.5,246.5C 132.253,245.287 131.586,244.62 130.5,244.5C 128.5,243.167 126.5,243.167 124.5,244.5C 123.265,244.721 122.265,245.388 121.5,246.5C 119.529,243.063 116.529,241.73 112.5,242.5C 107.302,243.466 102.135,243.466 97,242.5C 93.9442,243.077 90.9442,243.743 88,244.5C 86.9326,243.809 85.7659,243.309 84.5,243C 82.8676,239.532 80.201,237.365 76.5,236.5C 74.9704,236.64 73.9704,237.307 73.5,238.5C 72.0337,239.347 71.2004,240.68 71,242.5C 70.6667,242.167 70.3333,241.833 70,241.5C 69.1545,234.969 67.9879,228.636 66.5,222.5C 66.5,222.167 66.5,221.833 66.5,221.5C 66.2526,215.459 66.5859,209.459 67.5,203.5C 67.2972,201.792 66.4638,200.459 65,199.5C 64.3863,194.89 63.2197,190.557 61.5,186.5C 61.5,185.833 61.5,185.167 61.5,184.5C 61.8195,179.637 61.4861,174.97 60.5,170.5C 60.6663,163.825 60.4996,157.158 60,150.5C 59.2023,141.279 57.7023,132.279 55.5,123.5C 53.7542,107.867 52.4208,92.2003 51.5,76.5C 52.1081,64.0773 50.7748,51.9106 47.5,40C 47.7355,39.1268 48.0688,38.2935 48.5,37.5C 57.7424,36.8117 66.7424,35.4784 75.5,33.5C 79.1667,33.5 82.8333,33.5 86.5,33.5C 86.2053,35.7354 86.5386,37.7354 87.5,39.5C 88.9085,40.0614 90.4085,40.3948 92,40.5C 99.8781,39.5381 107.711,38.3714 115.5,37C 116.056,36.6174 116.389,36.1174 116.5,35.5C 117.807,33.7768 117.807,31.9435 116.5,30C 117.5,29.6667 118.5,29.3333 119.5,29C 131.607,27.4998 143.607,26.3331 155.5,25.5C 157.489,24.1134 159.322,24.4468 161,26.5C 162.122,37.6825 163.622,48.6825 165.5,59.5 Z"/></g>
<g><path style="opacity:1" fill="#2d8a95" d="M 75.5,32.5 C 75.5,32.8333 75.5,33.1667 75.5,33.5C 67.5052,33.9355 59.5052,34.2688 51.5,34.5C 59.2707,32.8446 67.2707,32.1779 75.5,32.5 Z"/></g>
<g><path style="opacity:1" fill="#169387" d="M 163.5,28.5 C 164.268,29.2625 164.768,30.2625 165,31.5C 167.251,51.0961 168.751,70.7628 169.5,90.5C 168.111,85.7312 167.444,80.7312 167.5,75.5C 167.927,69.8864 167.26,64.5531 165.5,59.5C 165.532,49.0046 164.865,38.6712 163.5,28.5 Z"/></g>
<g><path style="opacity:1" fill="#169287" d="M 50.5,34.5 C 49.469,35.2485 48.3024,35.9152 47,36.5C 47.0364,43.8189 47.2031,51.1522 47.5,58.5C 48.427,69.5094 49.427,80.5094 50.5,91.5C 47.594,74.7331 45.594,57.5664 44.5,40C 43.7607,35.2404 45.7607,33.4071 50.5,34.5 Z"/></g>
<g><path style="opacity:1" fill="#6676b0" d="M 75.5,33.5 C 66.7424,35.4784 57.7424,36.8117 48.5,37.5C 48.0688,38.2935 47.7355,39.1268 47.5,40C 50.7748,51.9106 52.1081,64.0773 51.5,76.5C 50.7784,76.0825 50.2784,75.4158 50,74.5C 50.1223,68.7401 49.289,63.4068 47.5,58.5C 47.2031,51.1522 47.0364,43.8189 47,36.5C 48.3024,35.9152 49.469,35.2485 50.5,34.5C 50.8333,34.5 51.1667,34.5 51.5,34.5C 59.5052,34.2688 67.5052,33.9355 75.5,33.5 Z"/></g>
<g><path style="opacity:1" fill="#3d859f" d="M 165.5,59.5 C 167.26,64.5531 167.927,69.8864 167.5,75.5C 167.167,75.5 166.833,75.5 166.5,75.5C 166.167,70.1667 165.833,64.8333 165.5,59.5 Z"/></g>
<g><path style="opacity:1" fill="#3c859f" d="M 47.5,58.5 C 49.289,63.4068 50.1223,68.7401 50,74.5C 50.2784,75.4158 50.7784,76.0825 51.5,76.5C 52.4208,92.2003 53.7542,107.867 55.5,123.5C 55.5,125.833 55.5,128.167 55.5,130.5C 53.4613,117.543 51.7947,104.543 50.5,91.5C 49.427,80.5094 48.427,69.5094 47.5,58.5 Z"/></g>
<g><path style="opacity:1" fill="#577cac" d="M 166.5,75.5 C 166.833,75.5 167.167,75.5 167.5,75.5C 167.444,80.7312 168.111,85.7312 169.5,90.5C 169.5,93.5 169.5,96.5 169.5,99.5C 168.531,97.337 167.698,95.0037 167,92.5C 166.501,86.8431 166.334,81.1764 166.5,75.5 Z"/></g>
<g><path style="opacity:1" fill="#298998" d="M 169.5,90.5 C 170.806,95.6161 171.473,100.949 171.5,106.5C 170.833,104.167 170.167,101.833 169.5,99.5C 169.5,96.5 169.5,93.5 169.5,90.5 Z"/></g>
<g><path style="opacity:1" fill="#5c7aad" d="M 55.5,123.5 C 57.7023,132.279 59.2023,141.279 60,150.5C 60.4996,157.158 60.6663,163.825 60.5,170.5C 59.8333,167.833 59.1667,165.167 58.5,162.5C 58.0198,153.837 57.5198,145.17 57,136.5C 56.8019,134.618 56.3019,132.952 55.5,131.5C 55.5,131.167 55.5,130.833 55.5,130.5C 55.5,128.167 55.5,125.833 55.5,123.5 Z"/></g>
<g><path style="opacity:0.999" fill="#0f9883" d="M 50.5,91.5 C 51.7947,104.543 53.4613,117.543 55.5,130.5C 55.5,130.833 55.5,131.167 55.5,131.5C 56.1395,138.148 56.4728,144.814 56.5,151.5C 54.8399,145.092 54.0066,138.425 54,131.5C 53.7837,129.616 53.117,127.949 52,126.5C 51.2723,114.84 50.7723,103.174 50.5,91.5 Z"/></g>
<g><path style="opacity:1" fill="#2f8897" d="M 171.5,106.5 C 172.809,108.571 173.475,111.071 173.5,114C 174.271,127.906 175.604,141.739 177.5,155.5C 177.5,159.167 177.5,162.833 177.5,166.5C 176.933,162.503 176.1,158.503 175,154.5C 174.165,138.465 172.998,122.465 171.5,106.5 Z"/></g>
<g><path style="opacity:1" fill="#288c93" d="M 55.5,131.5 C 56.3019,132.952 56.8019,134.618 57,136.5C 57.5198,145.17 58.0198,153.837 58.5,162.5C 57.3126,159.054 56.6459,155.387 56.5,151.5C 56.4728,144.814 56.1395,138.148 55.5,131.5 Z"/></g>
<g><path style="opacity:1" fill="#2d8896" d="M 58.5,162.5 C 59.1667,165.167 59.8333,167.833 60.5,170.5C 61.4861,174.97 61.8195,179.637 61.5,184.5C 60.4076,180.184 59.4076,175.851 58.5,171.5C 58.5,168.5 58.5,165.5 58.5,162.5 Z"/></g>
<g><path style="opacity:1" fill="#5e7aad" d="M 61.5,186.5 C 63.2197,190.557 64.3863,194.89 65,199.5C 66.4638,200.459 67.2972,201.792 67.5,203.5C 66.5859,209.459 66.2526,215.459 66.5,221.5C 65.9375,216.089 64.9375,210.756 63.5,205.5C 62.7138,199.186 62.0471,192.853 61.5,186.5 Z"/></g>
<g><path style="opacity:1" fill="#1f918b" d="M 177.5,155.5 C 178.809,157.571 179.475,160.071 179.5,163C 179.995,177.92 181.328,192.754 183.5,207.5C 183.5,208.833 183.5,210.167 183.5,211.5C 182.883,211.389 182.383,211.056 182,210.5C 181.667,208.167 181.333,205.833 181,203.5C 180.131,190.988 178.964,178.655 177.5,166.5C 177.5,162.833 177.5,159.167 177.5,155.5 Z"/></g>
<g><path style="opacity:1" fill="#238e92" d="M 63.5,205.5 C 64.9375,210.756 65.9375,216.089 66.5,221.5C 66.5,221.833 66.5,222.167 66.5,222.5C 66.6123,229.18 66.9457,235.847 67.5,242.5C 65.8031,240.695 64.9698,238.361 65,235.5C 64.2505,225.509 63.7505,215.509 63.5,205.5 Z"/></g>
<g><path style="opacity:1" fill="#6078ad" d="M 177.5,166.5 C 178.964,178.655 180.131,190.988 181,203.5C 181.333,205.833 181.667,208.167 182,210.5C 182.383,211.056 182.883,211.389 183.5,211.5C 183.206,221.413 183.872,231.246 185.5,241C 185.369,243.777 184.702,246.277 183.5,248.5C 179.167,248.5 174.833,248.5 170.5,248.5C 174.657,247.551 178.99,246.884 183.5,246.5C 182.959,238.842 182.459,231.175 182,223.5C 178.234,219.235 177.4,214.402 179.5,209C 178.66,194.84 177.994,180.673 177.5,166.5 Z"/></g>
<g><path style="opacity:0.96" fill="#0a9b76" d="M 58.5,171.5 C 59.4076,175.851 60.4076,180.184 61.5,184.5C 61.5,185.167 61.5,185.833 61.5,186.5C 62.0471,192.853 62.7138,199.186 63.5,205.5C 63.7505,215.509 64.2505,225.509 65,235.5C 64.9698,238.361 65.8031,240.695 67.5,242.5C 67.9525,247.998 68.6191,253.331 69.5,258.5C 69.6107,259.117 69.944,259.617 70.5,260C 75.0204,260.814 79.3537,260.647 83.5,259.5C 90.175,259.666 96.8417,259.5 103.5,259C 110.177,258.301 116.511,257.134 122.5,255.5C 143.008,253.423 163.342,251.09 183.5,248.5C 184.702,246.277 185.369,243.777 185.5,241C 183.872,231.246 183.206,221.413 183.5,211.5C 183.5,210.167 183.5,208.833 183.5,207.5C 185.201,207.034 186.701,207.034 188,207.5C 191.203,212.848 191.203,218.181 188,223.5C 187.667,222.5 187.333,221.5 187,220.5C 187.474,229.475 187.474,238.475 187,247.5C 185.294,248.308 184.461,249.641 184.5,251.5C 180.5,251.5 176.5,251.5 172.5,251.5C 172.579,252.93 172.246,254.264 171.5,255.5C 172.689,256.429 174.022,256.762 175.5,256.5C 139.865,260.959 104.032,264.959 68,268.5C 65.3746,268.419 63.0413,267.752 61,266.5C 59.5435,258.225 58.7102,249.892 58.5,241.5C 58.9528,240.542 59.6195,239.708 60.5,239C 59.8999,233.458 60.5666,227.958 62.5,222.5C 61.9646,220.729 61.1313,220.396 60,221.5C 59.8333,220 59.6667,218.5 59.5,217C 60.9323,212.702 61.5989,208.202 61.5,203.5C 59.8551,192.884 58.8551,182.218 58.5,171.5 Z"/></g>
<g><path style="opacity:1" fill="#537eaa" d="M 170.5,248.5 C 174.833,248.5 179.167,248.5 183.5,248.5C 163.342,251.09 143.008,253.423 122.5,255.5C 118.481,255.646 114.481,255.979 110.5,256.5C 119.387,255.031 128.387,253.364 137.5,251.5C 148.7,251.371 159.7,250.371 170.5,248.5 Z"/></g>
<g><path style="opacity:1" fill="#7473b5" d="M 66.5,222.5 C 67.9879,228.636 69.1545,234.969 70,241.5C 70.3333,241.833 70.6667,242.167 71,242.5C 71.2004,240.68 72.0337,239.347 73.5,238.5C 73.9704,237.307 74.9704,236.64 76.5,236.5C 80.201,237.365 82.8676,239.532 84.5,243C 85.7659,243.309 86.9326,243.809 88,244.5C 90.9442,243.743 93.9442,243.077 97,242.5C 102.135,243.466 107.302,243.466 112.5,242.5C 116.529,241.73 119.529,243.063 121.5,246.5C 122.265,245.388 123.265,244.721 124.5,244.5C 124.701,248.35 126.534,249.35 130,247.5C 130.483,246.552 130.649,245.552 130.5,244.5C 131.586,244.62 132.253,245.287 132.5,246.5C 131.954,248.135 131.62,249.801 131.5,251.5C 133.5,251.5 135.5,251.5 137.5,251.5C 128.387,253.364 119.387,255.031 110.5,256.5C 101.319,257.15 92.3189,258.15 83.5,259.5C 78.7697,259.717 74.1031,259.383 69.5,258.5C 69.6658,253.821 69.4992,249.155 69,244.5C 68.7216,243.584 68.2216,242.918 67.5,242.5C 66.9457,235.847 66.6123,229.18 66.5,222.5 Z"/></g>
<g><path style="opacity:1" fill="#3d869e" d="M 67.5,242.5 C 68.2216,242.918 68.7216,243.584 69,244.5C 69.4992,249.155 69.6658,253.821 69.5,258.5C 68.6191,253.331 67.9525,247.998 67.5,242.5 Z"/></g>
<g><path style="opacity:1" fill="#ededf8" d="M 130.5,244.5 C 130.649,245.552 130.483,246.552 130,247.5C 126.534,249.35 124.701,248.35 124.5,244.5C 126.5,243.167 128.5,243.167 130.5,244.5 Z"/></g>
<g><path style="opacity:1" fill="#f3f3f9" d="M 73.5,238.5 C 75.0683,237.527 76.735,237.36 78.5,238C 78.9767,240.899 79.9767,243.566 81.5,246C 87.5,246.667 93.5,246.667 99.5,246C 105.513,245.162 111.513,244.329 117.5,243.5C 117.917,246.079 117.25,248.246 115.5,250C 103.993,252.804 92.3263,253.804 80.5,253C 74.8356,249.868 72.5023,245.034 73.5,238.5 Z"/></g>
<g><path style="opacity:1" fill="#2a8c95" d="M 122.5,255.5 C 116.511,257.134 110.177,258.301 103.5,259C 96.8417,259.5 90.175,259.666 83.5,259.5C 92.3189,258.15 101.319,257.15 110.5,256.5C 114.481,255.979 118.481,255.646 122.5,255.5 Z"/></g>
<g><path style="opacity:1" fill="#3a849d" d="M 69.5,258.5 C 74.1031,259.383 78.7697,259.717 83.5,259.5C 79.3537,260.647 75.0204,260.814 70.5,260C 69.944,259.617 69.6107,259.117 69.5,258.5 Z"/></g>
</svg>
