<?xml version="1.0" encoding="UTF-8"?>
<!DOCTYPE svg PUBLIC "-//W3C//DTD SVG 1.1//EN" "http://www.w3.org/Graphics/SVG/1.1/DTD/svg11.dtd">
<svg xmlns="http://www.w3.org/2000/svg" version="1.1" width="216px" height="308px" style="shape-rendering:geometricPrecision; text-rendering:geometricPrecision; image-rendering:optimizeQuality; fill-rule:evenodd; clip-rule:evenodd" xmlns:xlink="http://www.w3.org/1999/xlink">
<g><path style="opacity:0.976" fill="#f9c4dd" d="M 156.5,21.5 C 163.312,19.9775 166.812,22.6442 167,29.5C 174.667,102.167 182.333,174.833 190,247.5C 190.667,252.167 190.667,256.833 190,261.5C 189.5,262 189,262.5 188.5,263C 147.023,267.72 105.523,272.22 64,276.5C 61.8333,276.167 59.6667,275.833 57.5,275.5C 49.4541,207.253 41.9541,138.92 35,70.5C 33.6127,59.5244 32.946,48.5244 33,37.5C 34.1711,36.1068 35.6711,35.2735 37.5,35C 77.3506,30.8132 117.017,26.3132 156.5,21.5 Z"/></g>
<g><path style="opacity:1" fill="#a6c4fd" d="M 175.5,195.5 C 176.321,213.372 177.654,231.206 179.5,249C 179.167,250.833 178.833,252.667 178.5,254.5C 160.93,256.858 143.597,259.524 126.5,262.5C 106.094,266.506 85.4276,268.173 64.5,267.5C 60.3266,219.391 55.1599,171.391 49,123.5C 48.3333,112.833 47.6667,102.167 47,91.5C 43.2218,75.795 41.7218,59.9616 42.5,44C 46.7205,42.5283 51.0539,41.5283 55.5,41C 87.2564,38.7388 118.923,35.5721 150.5,31.5C 152.833,31.6667 155.167,31.8333 157.5,32C 158,32.5 158.5,33 159,33.5C 162.856,82.3486 168.19,131.015 175,179.5C 175.499,184.823 175.666,190.156 175.5,195.5 Z"/></g>
<g><path style="opacity:1" fill="#f7fdfd" d="M 96.5,39.5 C 101.833,39.5 107.167,39.5 112.5,39.5C 113.363,43.1616 112.03,45.3282 108.5,46C 100.201,47.2458 91.8679,48.0792 83.5,48.5C 83.1043,45.9556 83.771,43.7889 85.5,42C 89.3121,41.2045 92.9788,40.3712 96.5,39.5 Z"/></g>
<g><path style="opacity:1" fill="#f8fcfd" d="M 70.5,245.5 C 71.9305,245.421 73.2638,245.754 74.5,246.5C 76.0605,254.956 81.0605,257.789 89.5,255C 96.3659,254.019 103.199,252.853 110,251.5C 114.643,252.28 115.477,254.447 112.5,258C 100.301,260.763 87.9675,261.763 75.5,261C 69.7876,257.18 68.1209,252.013 70.5,245.5 Z"/></g>
<g><path style="opacity:1" fill="#cadaf7" d="M 119.5,250.5 C 121.857,250.337 124.19,250.503 126.5,251C 127.767,252.796 127.767,254.629 126.5,256.5C 120.093,258.824 117.76,256.824 119.5,250.5 Z"/></g>
<g><path style="opacity:1" fill="#bcc1f3" d="M 175.5,195.5 C 178.821,215.24 180.654,235.24 181,255.5C 179.509,257.004 177.676,257.837 175.5,258C 159.257,260.534 142.924,262.034 126.5,262.5C 143.597,259.524 160.93,256.858 178.5,254.5C 178.833,252.667 179.167,250.833 179.5,249C 177.654,231.206 176.321,213.372 175.5,195.5 Z"/></g>
</svg>
