<?xml version="1.0" encoding="UTF-8"?>
<!DOCTYPE svg PUBLIC "-//W3C//DTD SVG 1.1//EN" "http://www.w3.org/Graphics/SVG/1.1/DTD/svg11.dtd">
<svg xmlns="http://www.w3.org/2000/svg" version="1.1" width="206px" height="206px" style="shape-rendering:geometricPrecision; text-rendering:geometricPrecision; image-rendering:optimizeQuality; fill-rule:evenodd; clip-rule:evenodd" xmlns:xlink="http://www.w3.org/1999/xlink">
<g><path style="opacity:0.911" fill="#888888" d="M 174.5,75.5 C 169.881,76.3136 165.214,76.6469 160.5,76.5C 158.462,74.4684 156.129,72.8018 153.5,71.5C 140.86,73.4967 128.194,75.33 115.5,77C 114.234,77.3095 113.067,77.8095 112,78.5C 110.989,84.842 107.655,89.5087 102,92.5C 105.085,112.104 108.251,131.77 111.5,151.5C 115.722,151.737 119.889,151.404 124,150.5C 126.541,151.007 129.041,151.674 131.5,152.5C 133.454,156.942 133.787,161.442 132.5,166C 115.616,169.235 98.6165,171.569 81.5,173C 78.6974,168.244 78.0307,163.244 79.5,158C 85.8939,156.319 92.2272,154.485 98.5,152.5C 94.8433,132.893 91.5099,113.226 88.5,93.5C 81.5321,92.7045 76.6988,89.0379 74,82.5C 61.9223,84.615 49.7556,86.4484 37.5,88C 35.8548,90.7941 33.8548,93.2941 31.5,95.5C 27.2147,96.2949 22.8814,96.6282 18.5,96.5C 12.1751,93.0561 10.0085,87.7228 12,80.5C 16.3828,72.5415 22.8828,70.3748 31.5,74C 33.3783,75.5429 34.8783,77.3762 36,79.5C 47.7449,77.393 59.5783,75.5597 71.5,74C 73.9859,58.5795 82.9859,52.2462 98.5,55C 100.949,55.7246 103.283,56.7246 105.5,58C 108.443,61.2619 110.943,64.7619 113,68.5C 126.873,66.3043 140.706,63.9709 154.5,61.5C 158.618,52.6281 165.284,50.1281 174.5,54C 180.119,59.784 180.953,66.284 177,73.5C 176.292,74.3805 175.458,75.0472 174.5,75.5 Z"/></g>
<g><path style="opacity:1" fill="#0a0a0b" d="M 163.5,59.5 C 170.327,58.1737 173.494,60.8404 173,67.5C 170.177,70.5712 166.844,71.2379 163,69.5C 160.872,65.9752 161.039,62.6418 163.5,59.5 Z"/></g>
<g><path style="opacity:1" fill="#050505" d="M 86.5,63.5 C 90.6049,63.2338 94.6049,63.7338 98.5,65C 105.814,72.8033 104.814,79.4699 95.5,85C 85.2268,85.7234 80.7268,80.89 82,70.5C 82.9042,67.7666 84.4042,65.4333 86.5,63.5 Z"/></g>
<g><path style="opacity:0.738" fill="#030303" d="M 174.5,75.5 C 180.937,84.0551 187.604,92.3884 194.5,100.5C 189.865,101.778 185.198,101.778 180.5,100.5C 176.93,94.7557 172.763,89.4224 168,84.5C 164.82,90.8599 161.653,97.1932 158.5,103.5C 154.425,105.612 150.092,107.279 145.5,108.5C 150.5,97.8333 155.5,87.1667 160.5,76.5C 165.214,76.6469 169.881,76.3136 174.5,75.5 Z"/></g>
<g><path style="opacity:1" fill="#0b0b0b" d="M 21.5,79.5 C 29.8185,79.9869 31.4851,83.4869 26.5,90C 19.1444,91.8167 16.311,88.9834 18,81.5C 19.3024,80.9152 20.469,80.2485 21.5,79.5 Z"/></g>
<g><path style="opacity:0.751" fill="#010101" d="M 31.5,95.5 C 38.8001,102.966 46.3001,110.299 54,117.5C 54.4643,118.094 54.631,118.761 54.5,119.5C 49.8333,119.5 45.1667,119.5 40.5,119.5C 35.8698,114.369 31.0365,109.369 26,104.5C 23.1547,110.855 20.3214,117.188 17.5,123.5C 13.4113,124.92 9.41135,126.587 5.5,128.5C 5.52304,126.073 6.02304,123.74 7,121.5C 11.3926,113.384 15.2259,105.051 18.5,96.5C 22.8814,96.6282 27.2147,96.2949 31.5,95.5 Z"/></g>
<g><path style="opacity:0.979" fill="#888888" d="M 180.5,100.5 C 185.198,101.778 189.865,101.778 194.5,100.5C 195.79,101.058 196.623,102.058 197,103.5C 197.183,119.826 189.017,128.826 172.5,130.5C 165.01,129.902 158.01,127.736 151.5,124C 146.853,119.898 144.853,114.731 145.5,108.5C 150.092,107.279 154.425,105.612 158.5,103.5C 166.003,101.952 173.336,100.952 180.5,100.5 Z"/></g>
<g><path style="opacity:1" fill="#f0f1e4" d="M 151.5,113.5 C 154.961,112.889 157.628,114.056 159.5,117C 163.167,117.333 166.833,117.667 170.5,118C 171.991,123.019 169.991,125.185 164.5,124.5C 156.619,124.759 152.286,121.092 151.5,113.5 Z"/></g>
<g><path style="opacity:0.962" fill="#8a8a89" d="M 40.5,119.5 C 45.1667,119.5 49.8333,119.5 54.5,119.5C 58.5553,136.011 51.8886,145.511 34.5,148C 23.9115,149.583 15.0782,146.416 8,138.5C 5.99372,135.464 5.16039,132.131 5.5,128.5C 9.41135,126.587 13.4113,124.92 17.5,123.5C 25.2538,122.486 32.9204,121.152 40.5,119.5 Z"/></g>
<g><path style="opacity:1" fill="#edeee1" d="M 173.5,119.5 C 177.5,118.833 179.167,120.5 178.5,124.5C 176.833,124.5 175.167,124.5 173.5,124.5C 173.5,122.833 173.5,121.167 173.5,119.5 Z"/></g>
<g><path style="opacity:1" fill="#f1f2e5" d="M 11.5,132.5 C 14.967,132.446 17.6337,133.946 19.5,137C 22.5,137.333 25.5,137.667 28.5,138C 30.1629,142.519 28.4963,144.686 23.5,144.5C 17.1606,144.18 12.8273,141.18 10.5,135.5C 10.685,134.416 11.0183,133.416 11.5,132.5 Z"/></g>
<g><path style="opacity:1" fill="#eff1e3" d="M 31.5,138.5 C 35.5,137.833 37.1667,139.5 36.5,143.5C 34.8333,143.5 33.1667,143.5 31.5,143.5C 31.5,141.833 31.5,140.167 31.5,138.5 Z"/></g>
<g><path style="opacity:0.063" fill="#0f0628" d="M -0.5,199.5 C 0.461384,201.265 0.794717,203.265 0.5,205.5C 0.166667,205.5 -0.166667,205.5 -0.5,205.5C -0.5,203.5 -0.5,201.5 -0.5,199.5 Z"/></g>
</svg>
