<?xml version="1.0" encoding="UTF-8" standalone="no"?>
<!-- Created with Inkscape (http://www.inkscape.org/) -->

<svg
   width="108.84064mm"
   height="94.185966mm"
   viewBox="0 0 108.84064 94.185966"
   version="1.1"
   id="svg1"
   xml:space="preserve"
   xmlns="http://www.w3.org/2000/svg"
   xmlns:svg="http://www.w3.org/2000/svg"><defs
     id="defs1"><style
       id="style1-8">
      .backbone {
        fill: none;
        stroke: #111111;
        stroke-width: 9;
        stroke-linecap: round;
        stroke-linejoin: round;
      }
      .pair {
        stroke: #111111;
        stroke-width: 3.2;
        stroke-linecap: round;
        opacity: 0.86;
      }
    </style></defs><g
     id="layer1"
     transform="translate(-0.27507885,-0.29450315)"><g
       id="g15"
       transform="translate(-37.570833,-55.033334)"><g
         id="g13"
         transform="translate(81.717954,8.2098719)"
         style="stroke-width:1.9;stroke-dasharray:none"><path
           style="fill:#161616;fill-opacity:1;stroke:#000000;stroke-width:1.9;stroke-linecap:butt;stroke-dasharray:none;stroke-opacity:1"
           d="M 27.48377,86.055969 V 68.663099"
           id="path10" /><path
           style="fill:#161616;fill-opacity:1;stroke:#000000;stroke-width:1.9;stroke-linecap:butt;stroke-dasharray:none;stroke-opacity:1"
           d="M 22.232905,86.06967 V 68.630027"
           id="path10-2" /><path
           style="fill:#161616;fill-opacity:0;stroke:#000000;stroke-width:1.9;stroke-linecap:round;stroke-dasharray:none;stroke-opacity:1"
           id="path12"
           d="m 22.229809,68.654292 a 4.4598198,4.4598198 0 0 1 -1.611627,-4.985309 4.4598198,4.4598198 0 0 1 4.24031,-3.077404 4.4598198,4.4598198 0 0 1 4.240097,3.077699 4.4598198,4.4598198 0 0 1 -1.611974,4.985196" /></g><g
         id="g13-56"
         transform="rotate(-129.21995,51.196029,90.830012)"
         style="stroke-width:1.9;stroke-dasharray:none"><path
           style="fill:#161616;fill-opacity:1;stroke:#000000;stroke-width:1.9;stroke-linecap:butt;stroke-dasharray:none;stroke-opacity:1"
           d="M 27.47019,93.532138 V 68.596709"
           id="path10-39" /><path
           style="fill:#161616;fill-opacity:1;stroke:#000000;stroke-width:1.9;stroke-linecap:butt;stroke-dasharray:none;stroke-opacity:1"
           d="M 22.219134,93.426499 V 68.562702"
           id="path10-2-4" /><path
           style="fill:#161616;fill-opacity:0;stroke:#000000;stroke-width:1.9;stroke-linecap:round;stroke-dasharray:none;stroke-opacity:1"
           id="path12-8"
           d="m 22.229809,68.654292 a 4.4598198,4.4598198 0 0 1 -1.611627,-4.985309 4.4598198,4.4598198 0 0 1 4.24031,-3.077404 4.4598198,4.4598198 0 0 1 4.240097,3.077699 4.4598198,4.4598198 0 0 1 -1.611974,4.985196" /></g><g
         id="g13-4"
         transform="matrix(0.74468311,0,0,0.74468311,42.265886,11.156311)"
         style="stroke-width:2.55142;stroke-dasharray:none"><path
           style="fill:#161616;fill-opacity:1;stroke:#000000;stroke-width:2.55142;stroke-linecap:butt;stroke-dasharray:none;stroke-opacity:1"
           d="M 27.48377,89.640081 V 68.663099"
           id="path10-8" /><path
           style="fill:#161616;fill-opacity:1;stroke:#000000;stroke-width:2.55142;stroke-linecap:butt;stroke-dasharray:none;stroke-opacity:1"
           d="M 22.232905,89.575606 V 68.630027"
           id="path10-2-71" /><path
           style="fill:#161616;fill-opacity:0;stroke:#000000;stroke-width:2.55142;stroke-linecap:round;stroke-dasharray:none;stroke-opacity:1"
           id="path12-72"
           d="m 22.229809,68.654292 a 4.4598198,4.4598198 0 0 1 -1.611627,-4.985309 4.4598198,4.4598198 0 0 1 4.24031,-3.077404 4.4598198,4.4598198 0 0 1 4.240097,3.077699 4.4598198,4.4598198 0 0 1 -1.611974,4.985196" /></g><g
         id="g13-4-1"
         transform="matrix(0,0.74468311,-0.74468311,0,134.81834,66.949636)"
         style="stroke-width:2.55142;stroke-dasharray:none"><path
           style="fill:#161616;fill-opacity:1;stroke:#000000;stroke-width:2.55142;stroke-linecap:butt;stroke-dasharray:none;stroke-opacity:1"
           d="M 27.48377,89.702889 V 68.663099"
           id="path10-8-0" /><path
           style="fill:#161616;fill-opacity:1;stroke:#000000;stroke-width:2.55142;stroke-linecap:butt;stroke-dasharray:none;stroke-opacity:1"
           d="M 22.232905,89.481393 V 68.630027"
           id="path10-2-71-6" /><path
           style="fill:#161616;fill-opacity:0;stroke:#000000;stroke-width:2.55142;stroke-linecap:round;stroke-dasharray:none;stroke-opacity:1"
           id="path12-72-1"
           d="m 22.229809,68.654292 a 4.4598198,4.4598198 0 0 1 -1.611627,-4.985309 4.4598198,4.4598198 0 0 1 4.24031,-3.077404 4.4598198,4.4598198 0 0 1 4.240097,3.077699 4.4598198,4.4598198 0 0 1 -1.611974,4.985196" /></g><g
         id="g13-4-1-0"
         transform="matrix(0.52657048,-0.52657048,0.52657048,0.52657048,-5.2280683,46.297631)"
         style="stroke-width:2.55142;stroke-dasharray:none"><path
           style="fill:#161616;fill-opacity:1;stroke:#000000;stroke-width:2.55142;stroke-linecap:butt;stroke-dasharray:none;stroke-opacity:1"
           d="M 27.48377,89.606314 V 68.503529"
           id="path10-8-0-9" /><path
           style="fill:#161616;fill-opacity:1;stroke:#000000;stroke-width:2.55142;stroke-linecap:butt;stroke-dasharray:none;stroke-opacity:1"
           d="M 22.232905,90.533431 V 68.487334"
           id="path10-2-71-6-1" /><path
           style="fill:#161616;fill-opacity:0;stroke:#000000;stroke-width:2.55142;stroke-linecap:round;stroke-dasharray:none;stroke-opacity:1"
           id="path12-72-1-7"
           d="m 22.229809,68.654292 a 4.4598198,4.4598198 0 0 1 -1.611627,-4.985309 4.4598198,4.4598198 0 0 1 4.24031,-3.077404 4.4598198,4.4598198 0 0 1 4.240097,3.077699 4.4598198,4.4598198 0 0 1 -1.611974,4.985196" /></g><g
         id="g13-5"
         transform="rotate(-90,69.919858,62.305277)"
         style="stroke-width:1.9;stroke-dasharray:none"><path
           style="fill:#161616;fill-opacity:1;stroke:#000000;stroke-width:1.9;stroke-linecap:butt;stroke-dasharray:none;stroke-opacity:1"
           d="M 27.48377,85.711024 V 68.663099"
           id="path10-4" /><path
           style="fill:#161616;fill-opacity:1;stroke:#000000;stroke-width:1.9;stroke-linecap:butt;stroke-dasharray:none;stroke-opacity:1"
           d="M 22.232905,85.730572 V 68.630027"
           id="path10-2-7" /><path
           style="fill:#161616;fill-opacity:0;stroke:#000000;stroke-width:1.9;stroke-linecap:round;stroke-dasharray:none;stroke-opacity:1"
           id="path12-4"
           d="m 22.229809,68.654292 a 4.4598198,4.4598198 0 0 1 -1.676123,-4.76907" /><path
           style="fill:#161616;fill-opacity:0;stroke:#000000;stroke-width:1.9;stroke-linecap:round;stroke-dasharray:none;stroke-opacity:1"
           id="path12-4-9"
           d="m 24.697733,60.644268 a 4.4598198,4.4598198 0 0 1 2.462839,0.547698" /><path
           style="fill:#161616;fill-opacity:0;stroke:#000000;stroke-width:1.9;stroke-linecap:round;stroke-dasharray:none;stroke-opacity:1"
           id="path12-4-9-0"
           d="m 29.362086,65.89664 a 4.4598198,4.4598198 0 0 1 -1.885055,2.876945" /></g><g
         id="g14-2"
         transform="translate(32.280975,56.799051)"
         style="stroke-width:1.9;stroke-dasharray:none"><path
           style="fill:#161616;fill-opacity:1;stroke:#000000;stroke-width:1.9;stroke-linecap:butt;stroke-dasharray:none;stroke-opacity:1"
           d="M 76.920749,92.71475 V 63.769155"
           id="path10-1-6" /><path
           style="fill:#161616;fill-opacity:1;stroke:#000000;stroke-width:1.9;stroke-linecap:butt;stroke-dasharray:none;stroke-opacity:1"
           d="M 71.669884,92.681679 V 63.595766"
           id="path10-2-5-6" /></g><g
         id="g14-4"
         transform="rotate(152.17533,68.08318,84.948683)"
         style="stroke-width:1.9;stroke-dasharray:none"><path
           style="fill:#161616;fill-opacity:1;stroke:#000000;stroke-width:1.9;stroke-linecap:butt;stroke-dasharray:none;stroke-opacity:1"
           d="M 76.863504,80.687851 V 66.938371"
           id="path10-1-9" /><path
           style="fill:#161616;fill-opacity:1;stroke:#000000;stroke-width:1.9;stroke-linecap:butt;stroke-dasharray:none;stroke-opacity:1"
           d="m 71.646187,81.278188 v -14.7499"
           id="path10-2-5-2" /></g><g
         id="g13-9"
         transform="translate(106.85157,29.04441)"
         style="stroke-width:1.9;stroke-dasharray:none"><path
           style="fill:#161616;fill-opacity:1;stroke:#000000;stroke-width:1.9;stroke-linecap:butt;stroke-dasharray:none;stroke-opacity:1"
           d="M 12.955709,80.947824 H 30.813463"
           id="path10-3" /><path
           style="fill:#161616;fill-opacity:1;stroke:#000000;stroke-width:1.9;stroke-linecap:butt;stroke-dasharray:none;stroke-opacity:1"
           d="M 12.985943,75.696959 H 30.846535"
           id="path10-2-1" /><path
           style="fill:#161616;fill-opacity:0;stroke:#000000;stroke-width:1.9;stroke-linecap:round;stroke-dasharray:none;stroke-opacity:1"
           id="path12-9"
           d="m 75.69386,-30.822271 a 4.4598198,4.4598198 0 0 1 -1.611628,-4.985308 4.4598198,4.4598198 0 0 1 4.240311,-3.077404 4.4598198,4.4598198 0 0 1 4.240096,3.077698 4.4598198,4.4598198 0 0 1 -1.611974,4.985197"
           transform="rotate(90)" /></g><g
         id="g13-2"
         transform="rotate(46.203397,54.72705,198.34224)"
         style="stroke-width:1.9;stroke-dasharray:none"><path
           style="fill:#161616;fill-opacity:1;stroke:#000000;stroke-width:1.9;stroke-linecap:butt;stroke-dasharray:none;stroke-opacity:1"
           d="M 27.476028,84.66278 V 68.478893"
           id="path10-28" /><path
           style="fill:#161616;fill-opacity:1;stroke:#000000;stroke-width:1.9;stroke-linecap:butt;stroke-dasharray:none;stroke-opacity:1"
           d="M 22.225233,84.757761 V 68.447504"
           id="path10-2-9" /><path
           style="fill:#161616;fill-opacity:0;stroke:#000000;stroke-width:1.9;stroke-linecap:round;stroke-dasharray:none;stroke-opacity:1"
           id="path12-7"
           d="m 22.229809,68.654292 a 4.4598198,4.4598198 0 0 1 -1.611627,-4.985309 4.4598198,4.4598198 0 0 1 4.24031,-3.077404 4.4598198,4.4598198 0 0 1 4.240097,3.077699 4.4598198,4.4598198 0 0 1 -1.611974,4.985196" /></g><path
         style="fill:#161616;fill-opacity:0;stroke:#000000;stroke-width:1.9;stroke-linecap:round;stroke-dasharray:none;stroke-opacity:1"
         id="path13"
         d="m 119.87634,109.99254 a 13.563929,13.37684 0 0 1 -10.6761,10.49841" /><path
         style="fill:#161616;fill-opacity:0;stroke:#000000;stroke-width:1.9;stroke-linecap:round;stroke-dasharray:none;stroke-opacity:1"
         id="path13-4"
         d="M 103.95298,120.46721 A 13.563929,13.37684 0 0 1 93.289265,109.98709" /><path
         style="fill:#161616;fill-opacity:0;stroke:#000000;stroke-width:1.9;stroke-linecap:round;stroke-dasharray:none;stroke-opacity:1"
         id="path13-4-1"
         d="M 93.303695,104.74303 A 13.563929,13.37684 0 0 1 103.95705,94.273712" /><path
         style="fill:#161616;fill-opacity:0;stroke:#000000;stroke-width:1.9;stroke-linecap:round;stroke-dasharray:none;stroke-opacity:1"
         id="path13-4-1-2"
         d="m 109.19448,94.285543 a 13.563929,13.37684 0 0 1 4.97818,2.033433" /><path
         style="fill:#161616;fill-opacity:0;stroke:#000000;stroke-width:1.9;stroke-linecap:round;stroke-dasharray:none;stroke-opacity:1"
         id="path13-0"
         d="M 67.985812,87.408485 A 7.6382871,7.5329313 0 0 1 66.674743,89.91798" /><path
         style="fill:#161616;fill-opacity:0;stroke:#000000;stroke-width:1.9;stroke-linecap:round;stroke-dasharray:none;stroke-opacity:1"
         id="path13-0-5"
         d="m 62.313575,92.829304 a 7.6382871,7.5329313 0 0 1 -7.371046,-2.856361 7.6382871,7.5329313 0 0 1 -0.841052,-7.76625" /><path
         style="fill:#161616;fill-opacity:0;stroke:#000000;stroke-width:1.9;stroke-linecap:round;stroke-dasharray:none;stroke-opacity:1"
         id="path13-0-5-9"
         d="m 56.428356,79.015112 a 7.6382871,7.5329313 0 0 1 2.389265,-1.132863" /><path
         style="fill:#161616;fill-opacity:0;stroke:#000000;stroke-width:1.9;stroke-linecap:round;stroke-dasharray:none;stroke-opacity:1"
         id="path13-0-5-9-0"
         d="m 62.726069,77.831891 a 7.6382871,7.5329313 0 0 1 5.60473,5.66721" /><path
         style="fill:#161616;fill-opacity:0;stroke:#000000;stroke-width:1.9;stroke-linecap:round;stroke-dasharray:none;stroke-opacity:1"
         id="path13-4-1-2-9"
         d="m 117.89405,100.01575 a 13.563929,13.37684 0 0 1 1.98303,4.71843" /></g></g><style
     id="style1">
    .label { font-family: Inter, Arial, Helvetica, sans-serif; font-size: 28px; fill: #1f2937; }
    .small { font-family: Inter, Arial, Helvetica, sans-serif; font-size: 21px; fill: #374151; }
    .tiny { font-family: Inter, Arial, Helvetica, sans-serif; font-size: 18px; fill: #4b5563; }
    .mono { font-family: &quot;DejaVu Sans Mono&quot;, Consolas, monospace; font-size: 26px; fill: #111827; font-weight: 700; }
    .exonText { font-family: Inter, Arial, Helvetica, sans-serif; font-size: 26px; fill: white; font-weight: 700; }
    .line { stroke: #222; stroke-width: 8; stroke-linecap: round; fill: none; }
    .thin { stroke: #374151; stroke-width: 3; stroke-linecap: round; fill: none; }
    .dash { stroke: #6b7280; stroke-width: 3; stroke-dasharray: 7 9; fill: none; }
  </style></svg>
