<?xml version="1.0" standalone="no"?>
<!DOCTYPE svg PUBLIC "-//W3C//DTD SVG 20010904//EN"
 "http://www.w3.org/TR/2001/REC-SVG-20010904/DTD/svg10.dtd">
<svg version="1.0" xmlns="http://www.w3.org/2000/svg"
 width="2048.000000pt" height="2048.000000pt" viewBox="0 0 2048.000000 2048.000000"
 preserveAspectRatio="xMidYMid meet">

<g transform="translate(0.000000,2048.000000) scale(0.100000,-0.100000)"
fill="#000000" stroke="none">
<path d="M9513 19024 c-3 -8 3 -25 14 -37 12 -12 46 -65 78 -117 31 -52 65
-105 76 -118 10 -14 19 -30 19 -37 0 -26 -385 -185 -411 -170 -8 5 -66 152
-104 264 -28 83 -40 101 -66 101 -25 0 -33 -18 -21 -43 5 -12 15 -57 21 -100
6 -43 20 -117 32 -164 16 -66 18 -87 9 -93 -20 -12 -507 -86 -515 -78 -2 2
-15 57 -30 123 -31 137 -47 175 -75 175 -33 0 -38 -28 -27 -173 5 -76 8 -139
6 -141 -9 -8 -436 -38 -564 -39 l-140 -2 -28 135 c-30 146 -45 176 -74 147
-15 -15 -19 -40 -21 -153 l-4 -135 -256 7 c-141 3 -260 9 -263 13 -4 3 -32 70
-64 148 -56 138 -76 166 -105 148 -15 -9 -12 -90 6 -170 8 -38 18 -84 21 -102
l5 -31 -78 -6 c-120 -9 -411 -37 -484 -46 -52 -6 -68 -5 -82 7 -22 20 -107
150 -155 238 -28 50 -45 71 -61 73 -13 2 -25 -3 -28 -13 -11 -28 16 -126 62
-224 47 -99 46 -111 -3 -111 -39 0 -279 -50 -369 -76 l-85 -24 -157 141 c-206
186 -253 221 -288 217 -41 -5 -51 -28 -33 -84 15 -48 39 -71 39 -38 0 18 272
-257 278 -280 1 -6 -44 -30 -101 -53 -56 -24 -146 -68 -200 -99 l-98 -55 -229
220 c-126 122 -235 221 -242 221 -33 0 -52 -51 -24 -67 8 -4 42 -46 76 -93 62
-83 126 -159 242 -289 32 -35 58 -67 58 -71 0 -4 -33 -33 -72 -64 -122 -96
-287 -255 -316 -304 -23 -40 -27 -58 -27 -120 l0 -73 -24 28 c-161 191 -243
273 -396 395 -124 98 -255 178 -475 287 -242 119 -413 182 -650 236 -373 86
-586 108 -835 85 -130 -11 -144 -11 -175 5 -56 29 -148 31 -205 6 -65 -29 -83
-46 -111 -106 -77 -163 43 -331 261 -367 52 -9 102 -9 204 0 206 18 318 15
481 -13 368 -65 565 -125 828 -255 413 -204 617 -391 915 -838 236 -354 339
-606 472 -1162 66 -275 94 -377 214 -770 39 -129 71 -241 71 -250 0 -23 -135
-231 -250 -385 -83 -111 -105 -134 -112 -121 -5 9 -32 71 -59 139 -70 170
-126 284 -142 290 -8 3 -20 1 -28 -3 -11 -7 -11 -19 0 -72 7 -35 17 -65 21
-68 5 -3 23 -46 41 -95 17 -50 49 -134 70 -187 l39 -98 -93 -116 c-92 -117
-240 -289 -359 -418 l-63 -69 -143 291 c-78 159 -149 295 -158 302 -11 10 -18
10 -26 2 -9 -9 -9 -23 0 -59 20 -74 119 -316 190 -467 l67 -139 -110 -105
c-112 -106 -173 -158 -179 -151 -1 2 -48 97 -105 210 -94 192 -136 259 -160
259 -14 0 -41 -29 -41 -45 0 -8 8 -22 19 -32 10 -10 40 -72 66 -138 26 -66 67
-164 91 -218 24 -53 44 -99 44 -101 0 -2 -98 -64 -217 -137 -283 -172 -279
-169 -291 -169 -5 0 -42 98 -81 218 -96 291 -118 333 -157 301 -18 -15 -18
-66 0 -76 7 -4 28 -66 45 -138 17 -71 45 -178 62 -237 17 -59 29 -113 26 -120
-4 -12 -484 -278 -500 -278 -9 0 -27 40 -104 230 -79 195 -125 291 -137 287
-22 -8 -7 -97 44 -252 29 -88 65 -193 81 -233 16 -40 29 -74 29 -76 0 -8 -287
-125 -437 -180 -182 -65 -188 -68 -236 -114 -115 -110 -30 -272 143 -272 76 0
291 75 544 190 l136 62 47 -51 c52 -55 98 -75 109 -47 4 10 -3 26 -18 41 -27
26 -65 92 -58 98 9 8 489 277 494 277 2 0 26 -37 54 -83 58 -95 120 -157 157
-157 35 0 32 24 -10 72 -43 51 -121 206 -109 218 5 5 90 60 189 123 99 62 219
139 266 169 l86 56 50 -55 c44 -48 54 -54 83 -51 41 4 58 27 45 64 -12 32 -35
44 -35 17 0 -11 -12 0 -32 31 l-32 48 55 46 c30 25 90 83 135 129 44 45 83 83
86 83 4 0 23 -27 43 -60 47 -77 83 -120 101 -120 23 0 17 26 -32 142 l-47 110
45 46 c92 96 345 412 413 515 21 31 41 57 44 57 4 0 27 -35 50 -77 56 -99 98
-153 121 -153 38 0 30 34 -41 174 l-71 141 86 129 c47 72 116 183 153 248 38
65 70 118 73 118 3 0 36 -147 74 -327 37 -179 90 -405 117 -502 26 -97 78
-282 114 -411 36 -129 101 -401 146 -605 183 -835 393 -1616 578 -2145 l49
-140 -26 0 c-38 -1 -126 -39 -252 -109 -60 -34 -113 -61 -117 -61 -5 0 -15 17
-22 38 -45 129 -96 247 -118 272 -47 56 -124 24 -107 -44 4 -17 0 -35 -11 -52
-19 -30 -12 -43 14 -27 16 10 21 -2 60 -135 l43 -145 -23 -18 c-122 -93 -420
-289 -439 -289 -3 0 -46 78 -94 174 -89 177 -104 198 -143 210 -28 9 -70 -28
-54 -48 6 -7 19 -39 29 -72 10 -32 45 -122 77 -198 56 -134 57 -140 39 -153
-10 -8 -107 -70 -214 -139 -107 -69 -242 -159 -300 -201 -57 -41 -109 -77
-115 -79 -5 -2 -48 69 -95 158 -90 171 -120 206 -157 182 -10 -6 -20 -21 -21
-34 -5 -28 34 -140 100 -288 43 -96 49 -116 37 -126 -8 -8 -70 -62 -139 -122
-69 -59 -175 -157 -237 -217 l-112 -109 -47 73 c-25 41 -76 121 -113 178 -81
128 -120 171 -154 171 -31 0 -41 -23 -28 -65 25 -83 105 -252 188 -398 38 -67
42 -81 31 -95 -7 -9 -40 -48 -73 -87 -62 -72 -216 -273 -274 -358 -18 -26 -36
-47 -41 -45 -4 2 -88 104 -187 228 -224 284 -233 295 -261 309 -26 14 -52 1
-52 -25 0 -43 126 -254 302 -506 l109 -157 -71 -118 c-72 -119 -191 -350 -268
-521 l-42 -93 -83 69 c-187 157 -363 285 -405 295 -13 3 -31 -2 -44 -12 l-21
-18 44 -48 c24 -26 133 -131 241 -233 109 -101 198 -189 198 -195 0 -6 -19
-58 -41 -116 -43 -111 -106 -344 -134 -496 -10 -49 -18 -91 -19 -92 -1 -2 -63
33 -137 78 -74 44 -144 82 -156 85 -31 8 -53 -2 -53 -23 0 -23 122 -140 233
-223 60 -46 86 -71 87 -86 0 -12 -9 -89 -20 -170 -31 -231 -44 -521 -31 -677
21 -236 43 -312 101 -342 93 -48 171 31 221 221 15 61 23 146 34 374 8 162 18
314 22 338 l8 44 155 -103 c273 -180 309 -195 274 -110 -21 52 -79 107 -249
238 -82 64 -154 120 -159 124 -9 8 23 255 50 384 18 89 75 295 81 295 3 0 73
-64 156 -142 297 -276 358 -318 329 -221 -16 52 -76 128 -237 305 -76 82 -149
163 -163 179 l-25 30 63 142 c63 142 229 478 253 512 12 16 23 2 110 -132 54
-82 110 -162 126 -178 38 -36 61 -28 61 20 0 42 -26 105 -122 301 -82 167 -83
143 13 287 69 104 254 353 269 362 11 7 50 -68 140 -270 35 -77 67 -144 72
-150 5 -5 15 -3 25 8 40 40 13 183 -78 416 l-48 124 104 112 c116 124 360 350
378 350 12 0 187 -396 207 -467 19 -68 50 -35 50 54 0 85 -33 207 -118 435
l-31 82 117 89 c99 75 414 296 504 354 l26 17 51 -120 c53 -125 122 -312 162
-437 19 -60 21 -75 10 -81 -18 -11 -5 -31 19 -31 58 0 66 117 21 292 -16 62
-55 185 -86 273 -30 88 -57 164 -58 169 -1 5 50 46 114 90 65 45 160 116 213
160 53 43 99 77 101 74 2 -2 31 -80 63 -173 85 -242 135 -361 169 -405 12 -15
23 36 23 112 0 64 -8 116 -30 200 -16 62 -45 173 -64 246 l-35 133 142 113
c78 62 144 109 145 104 8 -18 20 -6 26 26 6 30 41 76 50 65 2 -2 42 -102 89
-221 111 -279 215 -515 334 -753 119 -237 169 -325 456 -805 535 -893 693
-1114 1162 -1619 178 -191 430 -433 590 -566 233 -194 646 -484 938 -659 l148
-89 -78 -37 c-67 -32 -116 -66 -263 -188 l-27 -22 -185 94 c-259 131 -358 160
-358 106 0 -23 98 -100 288 -227 95 -64 139 -99 134 -107 -86 -110 -117 -153
-161 -218 -28 -43 -53 -78 -55 -78 -2 0 -44 16 -94 35 -217 84 -356 106 -400
65 -41 -39 -25 -80 32 -80 46 0 380 -147 372 -164 -2 -6 -32 -69 -64 -141 -33
-71 -75 -172 -94 -222 -18 -51 -37 -93 -42 -93 -4 0 -71 20 -149 45 -194 63
-295 82 -333 64 -40 -19 -44 -60 -9 -87 21 -17 304 -143 408 -181 15 -6 27
-14 27 -18 0 -5 -20 -69 -44 -143 -24 -74 -53 -180 -65 -235 -12 -55 -23 -110
-26 -122 -3 -13 -11 -23 -18 -23 -6 0 -93 27 -192 59 -164 54 -182 58 -202 45
-36 -23 -30 -63 15 -106 35 -36 172 -109 295 -159 l59 -23 -7 -46 c-3 -25 -15
-90 -25 -145 -10 -55 -22 -128 -26 -162 -4 -36 -11 -63 -18 -63 -6 0 -67 12
-136 26 -168 34 -330 43 -365 20 -14 -9 -25 -25 -25 -36 0 -22 11 -26 308
-124 l202 -68 0 -30 c0 -61 -21 -474 -25 -503 l-5 -31 -113 23 c-137 29 -343
41 -376 24 -33 -18 -24 -51 21 -76 20 -11 131 -52 247 -90 l210 -69 -2 -176
c-2 -184 6 -243 46 -328 32 -69 95 -99 161 -77 85 30 160 145 94 145 -15 0
-18 4 -13 17 13 34 34 148 41 221 4 40 10 74 13 77 4 2 52 -14 106 -36 182
-72 352 -108 370 -78 19 30 -193 174 -389 264 l-76 36 5 237 c6 263 12 342 25
342 5 0 60 -15 122 -34 221 -67 238 -68 238 -16 0 39 -30 60 -210 153 l-145
74 3 54 c2 47 41 351 46 356 1 1 87 -25 191 -58 189 -59 371 -103 387 -93 16
10 7 41 -19 66 -58 53 -135 96 -323 180 -168 74 -195 90 -198 110 -5 38 44
268 83 394 30 95 39 115 53 111 9 -3 91 -33 182 -67 245 -91 330 -107 330 -60
0 34 -78 88 -274 190 -131 68 -196 107 -196 118 0 57 179 470 198 458 58 -35
413 -186 439 -186 2 0 3 9 3 21 0 39 -93 121 -234 204 -75 44 -136 85 -136 90
0 6 36 65 80 130 88 133 104 155 114 155 3 0 95 -47 204 -105 204 -108 288
-139 316 -116 22 19 2 64 -48 107 -22 19 -114 83 -203 141 l-162 106 29 36
c16 20 57 65 90 101 55 61 59 63 60 38 0 -15 4 -29 9 -32 10 -6 21 16 21 42 0
10 9 34 20 55 11 20 20 46 20 57 0 11 3 20 6 20 3 0 78 -39 167 -87 432 -232
717 -355 1337 -578 406 -146 622 -215 971 -310 593 -162 1079 -256 1629 -316
165 -18 235 -20 452 -17 l257 5 32 -33 c46 -47 121 -77 180 -72 101 10 164 96
162 223 -2 152 -85 269 -228 321 -43 15 -74 17 -225 13 -279 -7 -414 -3 -585
15 -169 19 -426 54 -432 60 -2 2 7 10 20 19 13 8 97 74 187 146 109 87 169
129 180 125 38 -15 234 -54 320 -64 128 -15 203 2 221 47 12 31 2 48 -17 32
-24 -20 -246 31 -382 88 l-34 14 84 87 c104 109 194 214 263 307 l53 72 169
-43 c382 -97 579 -122 620 -81 17 18 17 19 -2 33 -11 8 -58 26 -105 40 -47 14
-166 52 -265 84 -99 32 -209 66 -245 75 -36 10 -69 22 -74 26 -5 4 7 29 26 56
19 26 68 102 108 168 40 66 74 121 75 123 2 2 63 -10 137 -27 170 -38 278 -53
403 -55 106 -1 139 8 150 44 7 22 -18 70 -35 70 -6 0 -10 -9 -10 -20 0 -25
-20 -25 -123 -6 -84 16 -428 114 -440 126 -4 4 4 34 18 66 46 101 77 185 105
284 25 86 30 95 51 94 13 0 76 -6 139 -12 148 -15 252 -15 302 0 47 14 66 44
49 77 -12 22 -37 28 -43 11 -5 -16 -392 38 -428 60 -7 4 -4 38 10 106 17 80
54 292 86 492 4 25 9 32 22 28 9 -3 125 -26 257 -52 268 -53 391 -62 422 -32
9 10 15 19 12 21 -19 15 -216 79 -423 137 -137 38 -251 71 -252 73 -2 2 13 70
33 152 29 121 36 171 37 255 1 99 -1 108 -29 159 -41 75 -93 111 -158 111 -46
0 -54 -3 -92 -44 -47 -48 -51 -62 -121 -369 -22 -93 -42 -174 -46 -179 -4 -8
-44 -7 -132 2 -140 14 -226 9 -279 -16 -35 -17 -63 -57 -52 -75 4 -5 41 -9 84
-9 77 0 327 -44 345 -60 19 -18 -78 -627 -99 -624 -6 1 -95 17 -200 35 -239
41 -397 46 -442 13 -15 -12 -29 -31 -31 -43 -3 -20 1 -21 62 -21 44 0 147 -19
322 -60 142 -33 260 -62 262 -65 13 -13 -64 -267 -117 -388 -16 -37 -25 -47
-38 -43 -43 13 -276 57 -329 62 -69 6 -129 -17 -129 -50 0 -15 12 -22 60 -32
33 -6 112 -28 175 -49 63 -20 130 -41 147 -46 l33 -11 -26 -46 c-112 -199
-178 -302 -193 -302 -9 0 -92 20 -186 45 -182 48 -263 56 -290 29 -24 -24 -15
-48 19 -52 16 -2 91 -30 165 -61 75 -32 154 -64 176 -71 22 -7 44 -16 48 -20
14 -13 -160 -246 -290 -389 l-68 -73 -145 45 c-208 64 -394 114 -476 128 -58
9 -76 9 -100 -2 -35 -17 -41 -61 -9 -67 11 -2 91 -33 177 -68 87 -35 212 -85
280 -110 68 -25 125 -47 127 -50 8 -8 -334 -334 -352 -334 -31 0 -367 70 -532
111 -461 115 -771 209 -1190 359 -589 211 -874 330 -1215 507 -859 447 -1437
872 -1980 1457 -160 172 -360 403 -360 415 0 3 37 25 83 48 45 23 130 71 189
107 l108 64 66 -84 c81 -102 154 -161 154 -124 0 21 -51 144 -86 206 -20 36
-33 69 -28 73 5 4 59 43 119 86 134 95 232 174 348 278 49 45 92 76 96 71 260
-290 280 -309 350 -355 41 -26 98 -40 89 -21 -12 26 -273 368 -354 462 -11 13
2 33 82 130 53 63 123 150 156 193 33 42 62 77 64 77 2 0 45 -28 96 -61 160
-106 239 -135 289 -109 26 15 24 30 -5 30 -23 0 -297 198 -305 221 -1 5 17 36
41 67 106 135 231 342 314 516 25 53 47 96 48 96 2 0 30 -12 62 -26 82 -37
177 -43 223 -14 40 25 34 35 -19 31 -42 -3 -110 23 -188 72 l-42 27 16 38 c8
20 66 163 129 317 164 407 151 380 178 362 12 -8 56 -36 97 -62 41 -26 88 -56
103 -67 36 -25 59 -17 55 19 -2 22 -26 45 -117 114 -63 47 -116 90 -119 97 -2
6 32 103 76 214 44 112 87 227 96 256 10 28 20 52 22 52 3 0 50 -31 104 -70
107 -76 130 -84 130 -45 0 32 -43 80 -135 151 -41 31 -75 60 -75 65 0 4 5 41
10 83 22 158 -33 299 -127 322 -69 18 -145 -35 -190 -133 l-24 -53 -57 38
c-125 84 -201 132 -212 132 -31 0 72 -112 182 -198 l66 -52 -10 -38 c-5 -20
-46 -135 -91 -254 -68 -183 -83 -215 -96 -208 -9 5 -87 78 -173 162 -87 85
-158 147 -158 139 0 -34 86 -154 195 -274 l117 -128 -85 -217 c-48 -119 -111
-282 -141 -361 -31 -79 -58 -146 -60 -149 -3 -3 -49 35 -102 84 -154 143 -206
186 -249 205 -45 21 -90 24 -100 8 -7 -10 122 -147 313 -335 l92 -91 -50 -119
c-28 -65 -74 -162 -101 -214 -53 -99 -187 -308 -211 -328 -11 -9 -33 3 -103
53 -146 104 -231 138 -299 121 -36 -9 -35 -42 2 -49 62 -13 331 -218 314 -240
-5 -7 -64 -85 -131 -175 l-122 -163 -155 150 c-85 82 -170 156 -188 165 -43
20 -90 20 -110 0 -19 -19 -14 -29 24 -49 32 -16 340 -357 340 -375 0 -30 -457
-452 -486 -449 -5 0 -39 42 -76 92 -85 116 -255 304 -332 367 -65 54 -102 68
-122 48 -11 -11 25 -64 206 -305 l220 -292 -58 -43 c-31 -23 -106 -78 -167
-123 -60 -44 -115 -84 -122 -88 -13 -8 -119 142 -285 403 -116 183 -529 871
-630 1050 -263 464 -529 1110 -758 1840 -105 335 -303 1102 -395 1530 -53 246
-156 683 -191 809 -7 24 -7 24 17 8 13 -9 36 -17 52 -17 34 0 107 38 107 55 0
7 9 20 21 31 18 16 19 19 4 30 -14 10 0 27 97 117 132 124 300 258 310 249 3
-4 32 -81 63 -172 75 -220 152 -414 175 -442 21 -27 37 -19 21 10 -6 11 -29
109 -51 216 -23 108 -58 256 -80 328 -21 73 -38 133 -37 134 1 0 74 50 162
110 252 172 472 311 479 303 12 -13 156 -559 156 -592 0 -35 29 -17 41 25 15
58 -2 209 -47 413 -19 88 -37 174 -40 190 -6 29 -3 31 103 87 172 90 536 239
549 225 11 -10 85 -328 134 -571 28 -138 53 -252 56 -255 2 -3 10 1 17 8 8 8
12 53 11 149 -1 143 -36 380 -89 599 -13 54 -21 101 -19 104 11 19 510 124
519 109 2 -4 15 -67 29 -141 55 -299 68 -395 63 -451 -3 -32 -2 -58 2 -58 4 0
15 13 24 30 40 66 40 256 1 516 -10 62 -14 117 -11 120 12 13 351 6 417 -7
l65 -14 11 -46 c49 -196 122 -742 103 -765 -12 -15 3 -27 24 -18 58 22 60 286
6 658 -10 71 -17 131 -15 133 10 10 436 -113 453 -130 18 -18 93 -587 93 -704
0 -56 14 -70 30 -29 30 79 35 319 13 610 -4 59 -3 87 4 83 16 -10 279 -74 361
-88 40 -7 75 -15 77 -19 2 -3 13 -100 25 -215 39 -384 70 -503 109 -419 21 46
23 173 7 394 -8 118 -14 216 -12 217 2 2 43 -3 92 -12 157 -28 262 -35 348
-24 139 17 206 66 206 152 0 54 -23 92 -73 120 -55 32 -89 40 -367 82 -129 19
-237 38 -240 42 -4 5 -19 106 -34 225 -33 270 -48 318 -99 318 -16 0 -18 -5
-13 -32 7 -42 29 -474 25 -486 -7 -16 -412 79 -458 107 -14 9 -23 59 -61 325
-17 116 -35 228 -41 248 -11 41 -40 58 -66 36 -14 -11 -15 -36 -10 -193 3 -99
11 -220 18 -268 6 -48 9 -90 6 -93 -3 -4 -93 17 -199 44 -106 28 -213 54 -238
59 l-45 9 -27 99 c-45 162 -98 312 -119 339 -22 28 -48 33 -67 14 -9 -9 -9
-15 2 -27 10 -12 96 -363 96 -393 0 -3 -73 -5 -162 -4 -90 0 -199 -1 -242 -3
l-80 -4 -36 134 c-135 492 -134 489 -169 489 -11 0 -21 -5 -23 -12 -7 -21 30
-227 77 -424 26 -107 45 -197 43 -199 -3 -3 -60 -16 -129 -30 -68 -14 -184
-41 -258 -60 -74 -19 -140 -35 -147 -35 -7 0 -50 116 -104 278 -91 275 -110
322 -132 322 -27 0 38 -329 116 -583 17 -56 32 -43 -124 -103 -52 -20 -191
-83 -308 -140 -117 -57 -215 -104 -217 -104 -2 0 -9 17 -16 38 -18 58 -154
372 -200 464 -59 118 -85 142 -108 100 -11 -20 40 -181 154 -487 61 -164 65
-181 49 -190 -77 -44 -355 -237 -476 -331 -83 -63 -151 -114 -153 -112 -1 2
-21 46 -45 98 -47 107 -127 259 -177 338 -33 53 -58 66 -70 35 -10 -26 11 -89
108 -323 l92 -220 -29 -22 c-150 -117 -306 -268 -385 -373 -44 -59 -119 -197
-120 -223 -3 -59 -130 429 -200 768 -93 448 -144 647 -279 1080 -33 107 -97
341 -141 520 -94 382 -143 548 -214 725 -101 253 -219 463 -418 749 l-55 80
31 15 c22 11 37 29 47 59 20 53 34 67 147 144 50 35 144 99 208 143 l117 80
258 -262 c248 -252 305 -303 343 -303 25 0 21 19 -16 81 -42 70 -262 352 -341
438 -33 36 -72 79 -85 94 l-24 27 84 39 c99 46 311 121 344 121 12 0 29 -7 36
-17 30 -36 429 -404 464 -428 71 -48 86 -22 34 59 -31 50 -184 235 -296 360
-35 38 -61 71 -59 73 10 10 246 43 349 49 l113 7 108 -131 c59 -71 141 -174
183 -228 41 -55 79 -100 84 -102 5 -2 9 16 9 40 0 58 -37 133 -143 292 -48 72
-87 133 -87 136 0 11 113 19 336 27 l201 6 30 -79 c17 -43 40 -111 52 -151 30
-102 79 -205 93 -201 18 6 30 84 22 153 -5 56 -37 216 -50 259 -6 18 -2 19 77
11 46 -4 156 -10 243 -14 l160 -6 42 -130 c23 -71 51 -152 62 -179 l19 -49 17
24 c21 30 21 129 0 239 -11 58 -12 85 -5 90 12 7 491 35 601 35 l64 0 10 -35
c54 -201 133 -390 163 -390 22 0 15 113 -18 282 -17 88 -29 161 -27 163 2 1
80 12 173 24 94 12 223 31 287 42 65 12 122 19 128 17 5 -1 49 -85 98 -184 94
-194 106 -214 130 -214 27 0 8 113 -47 277 -28 83 -51 154 -51 156 0 3 24 13
53 23 103 33 254 97 352 147 55 29 102 52 106 52 3 0 46 -47 96 -105 108 -125
143 -159 143 -139 0 15 -95 184 -143 254 l-27 40 33 25 c168 129 244 278 188
367 -63 100 -172 87 -359 -43 -35 -24 -68 -44 -75 -43 -7 0 -48 50 -92 111
-44 60 -93 121 -108 134 -32 27 -75 32 -84 8z"/>
</g>
</svg>
