<?xml version="1.0" encoding="utf-8"?>
<!-- Generator: Adobe Illustrator 25.3.1, SVG Export Plug-In . SVG Version: 6.00 Build 0)  -->
<svg version="1.1" id="レイヤー_1" xmlns="http://www.w3.org/2000/svg" xmlns:xlink="http://www.w3.org/1999/xlink" x="0px"
	 y="0px" viewBox="0 0 400 750" style="enable-background:new 0 0 400 750;" xml:space="preserve">
<style type="text/css">
	.st0{fill:#173017;}
	.st1{fill:#244524;}
	.st2{fill:#94AB83;}
	.st3{fill:#4C784B;}
	.st4{fill:#6AAB6B;}
	.st5{fill:#1A3B1E;}
	.st6{fill:#1C3E21;}
	.st7{fill:#6B9861;}
	.st8{fill:#264322;}
	.st9{fill:#2C4729;}
	.st10{fill:#33512A;}
	.st11{fill:#567143;}
	.st12{fill:#659351;}
	.st13{fill:#519555;}
	.st14{fill:#5D7554;}
	.st15{fill:#639162;}
	.st16{fill:#72BC67;}
	.st17{fill:#729B62;}
	.st18{fill:#596E55;}
	.st19{fill:#76A277;}
	.st20{fill:#A8B4A6;}
	.st21{fill:#8DB883;}
	.st22{fill:#70AC70;}
	.st23{fill:#416C3D;}
	.st24{fill:#98AB94;}
	.st25{fill:#9EC291;}
	.st26{fill:#557845;}
	.st27{fill:#32582F;}
	.st28{fill:#ADC99B;}
	.st29{fill:#778C6B;}
	.st30{fill:#112D16;}
	.st31{fill:#5B6042;}
	.st32{fill:#486B38;}
	.st33{fill:#A8D19C;}
	.st34{fill:#224827;}
	.st35{fill:#72A565;}
	.st36{fill:#5E824C;}
	.st37{fill:#2F562E;}
	.st38{fill:#E7EBE5;}
	.st39{fill:#76AC73;}
	.st40{fill:#BEBFB6;}
	.st41{fill:#5F7457;}
	.st42{fill:#99CA96;}
	.st43{fill:#6FA262;}
	.st44{fill:#3C5E39;}
	.st45{fill:#6A805F;}
	.st46{fill:#8A8853;}
	.st47{fill:#526F4A;}
	.st48{fill:#7A794B;}
	.st49{fill:#4A6146;}
	.st50{fill:#6B966B;}
	.st51{fill:#4E7843;}
	.st52{fill:#638C51;}
	.st53{fill:#79916F;}
	.st54{fill:#E3E3DD;}
	.st55{fill:#659762;}
	.st56{fill:#38492D;}
	.st57{fill:#7CA57A;}
	.st58{fill:#CFDBCD;}
	.st59{fill:#667A62;}
	.st60{fill:#30482C;}
	.st61{fill:#315A33;}
	.st62{fill:#78B86E;}
	.st63{fill:#57704F;}
	.st64{fill:#616B5A;}
	.st65{fill:#638355;}
	.st66{fill:#525F48;}
	.st67{fill:#717668;}
	.st68{fill:#8AA387;}
	.st69{fill:#5B6654;}
	.st70{fill:#638856;}
	.st71{fill:#7FA970;}
	.st72{fill:#6D8464;}
	.st73{fill:#517641;}
	.st74{fill:#C9D8C9;}
	.st75{fill:#C1DEBA;}
	.st76{fill:#63A046;}
	.st77{fill:#A7B8A0;}
	.st78{fill:#D8E0D6;}
	.st79{fill:#3C5032;}
	.st80{fill:#919689;}
	.st81{fill:#5F8B51;}
	.st82{fill:#6D8166;}
	.st83{fill:#7B9372;}
	.st84{fill:#B3C9B1;}
	.st85{fill:#A6CD9B;}
	.st86{fill:#929F8A;}
	.st87{fill:#92B18F;}
	.st88{fill:#A09D8E;}
	.st89{fill:#8DA280;}
	.st90{fill:#6D8662;}
	.st91{fill:#6A8C54;}
	.st92{fill:#6B805A;}
	.st93{fill:#4C743B;}
	.st94{fill:#435835;}
	.st95{fill:#9FAD9A;}
	.st96{fill:#687952;}
	.st97{fill:#9EB08D;}
	.st98{fill:#C8CDC7;}
	.st99{fill:#435C36;}
	.st100{fill:#9C9F94;}
	.st101{fill:#536F4F;}
	.st102{fill:#8EA08A;}
	.st103{fill:#959D8F;}
	.st104{fill:#647962;}
	.st105{fill:#536046;}
	.st106{fill:#56564E;}
	.st107{fill:#A6A393;}
	.st108{fill:#6D7D55;}
	.st109{fill:#85817C;}
	.st110{fill:#707769;}
	.st111{fill:#67895B;}
	.st112{fill:#667D61;}
	.st113{fill:#416436;}
	.st114{fill:#909C8C;}
	.st115{fill:#668267;}
	.st116{fill:#D4D2CE;}
	.st117{fill:#45573C;}
	.st118{fill:#4F683E;}
	.st119{fill:#4C7440;}
	.st120{fill:#8E9486;}
	.st121{fill:#5A6448;}
	.st122{fill:#708567;}
	.st123{fill:#697062;}
	.st124{fill:#4D654D;}
	.st125{fill:#769A6C;}
	.st126{fill:#667D54;}
	.st127{fill:#4E5A47;}
	.st128{fill:#628A5E;}
	.st129{fill:#989D90;}
	.st130{fill:#5E705B;}
	.st131{fill:#47593E;}
	.st132{fill:#8FA68C;}
	.st133{fill:#93988C;}
	.st134{fill:#518252;}
	.st135{fill:#79B076;}
	.st136{fill:#679767;}
	.st137{fill:#558853;}
	.st138{fill:#2A4D28;}
	.st139{fill:#4F8249;}
	.st140{fill:#3D773D;}
	.st141{fill:#5C9559;}
	.st142{fill:#5D8F58;}
	.st143{fill:#5C9355;}
	.st144{fill:#83BD7F;}
	.st145{fill:#568B54;}
	.st146{fill:#3F703D;}
	.st147{fill:#589147;}
	.st148{fill:#6FBB66;}
	.st149{fill:#8EC992;}
	.st150{fill:#67AE5C;}
	.st151{fill:#74BE69;}
	.st152{fill:#629455;}
	.st153{fill:#64A760;}
	.st154{fill:#72BA69;}
	.st155{fill:#76AB70;}
	.st156{fill:#48793E;}
	.st157{fill:#A4D19A;}
	.st158{fill:#4F8247;}
	.st159{fill:#3C703C;}
	.st160{fill:#46793E;}
	.st161{fill:#4A7B43;}
	.st162{fill:#465B3B;}
	.st163{fill:#90C87F;}
	.st164{fill:#6BA068;}
	.st165{fill:#52824C;}
	.st166{fill:#DBE2DA;}
	.st167{fill:#DEE4DB;}
	.st168{fill:#FFFFFF;}
	.st169{fill:#88C284;}
	.st170{fill:#3E683B;}
	.st171{fill:#486D3D;}
	.st172{fill:#7ABE6E;}
	.st173{fill:#67A465;}
	.st174{fill:#A0D099;}
</style>
<g>
	<path class="st0" d="M249.62,710.33c-1.56,0.5-1.92,1.37-0.81,2.67c1.23,1.44,2.18,2.99,1.97,5c-0.22,0.08-0.44,0.16-0.66,0.24
		c-5.77-5.64-12.57-9.33-20.35-11.52c-4.04-1.14-6.89-4.19-8.62-8.03c-2.91-6.43-4.22-7.24-11.25-6.37
		c-0.46,0.06-0.91,0.19-1.37,0.29c-0.96,0.2-1.91,0.24-2.87,0.03c-2.38-0.77-3.73-2.55-4.83-4.68c-1.32-2.54-1.18-4.41,1.94-5.25
		c3.82-0.96,7.64-0.34,11.8,0.32c-0.42-2.54-0.45-4.88-3.85-3.26c-2.03,0.96-4.19,1.06-6.37,1c-1.55-0.04-3.2-0.33-3.82,1.7
		c-1.71,2.4-0.39,4.58,0.76,6.51c1.93,3.21,1.25,5.76-0.99,8.48c-3.59,4.36-3.31,6.07,0.92,9.69c5.66,4.85,11.99,8.92,16.88,14.66
		c1.17,1.38,2.97,2.4,2.77,4.61c-0.35,0.37-0.72,0.41-1.11,0.06c-4.71-2.84-7.49-7.78-11.86-10.98c-1.47-1.08-3.07-1.99-5.14-3.32
		c0.59,3.48,1.64,6.14,3.04,8.68c-1.74,0.66-1.77,0.68-2.43-0.02c-1.73-1.82-2.42-4.22-3.49-6.41c-1.84-3.8-3.14-4.14-7.15-2.04
		c-2.31,3.71-5.62,6.51-8.58,9.64c-1.59,1.69-3.23,3.37-2.46,6.04c-2.05,2.47-1.66,6.07-3.88,8.46c-2.46-1.44-5.49-1.85-7.11-4.78
		c-0.86-1.55-2.54-1.58-4.4-0.7c-2.76,1.3-4.98,3.7-8.18,4.09c-0.31-0.32-0.44-0.7-0.4-1.14c0.15-0.4,0.37-0.75,0.67-1.07
		c2.94-1.96,5.86-3.96,9.27-5.08c0.38-0.17,0.77-0.3,1.17-0.43c3.45-0.92,6.3-2.91,9.05-5.09c0.45-0.43,0.91-0.85,1.36-1.28
		c1.97-1.91,3.91-3.85,5.75-5.89c5.77-6.06,4.02-12.29,0.41-18.56c0.82-4.36,4.09-7.89,4.23-12.49c3.12-1.12,3.85-3.42,3.81-6.57
		c-0.08-6.38,1.07-7.64,7.22-9.6c1.64-0.52,3.37-0.64,4.97-1.24c1.42-0.54,3.05-0.56,4.2-1.86c-2.9,0.95-5.66,2.33-8.71,2.8
		c-0.92,0.14-1.78,0.52-2.62-0.19c-1.43-1.21,2.08-2.84-0.12-3.61c-2.45-0.86-1.88-2.34-1.54-4c1.68-2.74,4.37-3.6,7.33-3.96
		c0.95-0.13,1.89-0.4,2.86-0.2c3.95,3.26,6.85,7.46,9.94,11.47c1.28,1.66,1.2,3.82,0.75,5.85c-0.56,2.51-0.45,5,0.49,7.34
		c2.47,6.17,6.07,11.85,7.76,18.38c0.47,1.84,2.36,2.92,4.1,3.58c5.07,1.91,9.98,4.29,15.35,5.31c1.12,0.24,2.21,0.6,3.24,1.12
		C249.25,709.09,249.76,709.52,249.62,710.33z"/>
	<path class="st1" d="M189.88,684.36c1.83,4.99-2.49,8.06-3.76,12.09c-3.06,0.83-6.44,0.07-9.29,1.91
		c-3.51,1.93-7.14,2.46-11.13,1.64c-5.47-1.12-10.11,1.82-14.97,3.57c-0.51-0.04-0.93-0.25-1.26-0.64c0.86-2.19,0.19-2.55-2.09-2.35
		c-12.25,1.11-21.78,7.1-29.93,15.95c-6.16,6.69-18.4,9.52-26,6.48c-1.49-0.6-2.8-1.27-3.69-2.63c-0.4-1.94,0.83-1.82,1.86-1.26
		c6.4,3.44,11.38,0.76,15.85-3.69c7.89-7.84,17.75-12.69,27.16-18.24c6.55-4.17,12.46-9.4,19.93-12.05c1.91-3.01,4.89-1.93,7.54-1.9
		c1.97,0.02,3.89,1.12,5.91,0.26c4.06-2.62,8.54-3.78,13.32-3.92c3.08-0.26,6.25-1.06,8.86,1.47c0.66,3.34,0.13,5.98-4.01,6.02
		c-6.35,0.06-12.31,1.98-18.34,3.63c6.17-1.68,12.31-3.91,18.78-3.47c3.4,0.23,3.01-3.03,4.88-4.03
		C190.06,683.46,190.18,683.84,189.88,684.36z"/>
	<path class="st2" d="M137.34,515.8c-3.03-7.11-3.14-14.76-3.88-22.26c-1.05-10.68-4.99-20.93-5.53-31.55
		c-0.66-13-3.81-25.85-2.48-38.96c1.2-6.46,1.01-12.9,0.22-19.42c-0.9-7.42-0.32-14.89,0.21-22.33c2.18-4.14,1.76-8.64,1.85-13.09
		c0.05-2.39-0.59-4.98,1.45-6.97c1.85,7.84,1.18,15.83,0.46,23.64c-1.17,12.67,0.11,25.23,0.68,37.79
		c0.37,8.21,0.29,16.45,1.23,24.69c1.89,16.53,4.83,32.93,6.42,49.48c1.28,13.27,4.58,25.9,9.13,38.42
		c4.71,12.97,11.62,24.27,21.19,34.07c1.25,2.4,3.04,4.66,1.86,7.65c-4.05-2.54-7.34-5.88-10.1-9.76c-0.36-3.19-3.2-4.77-4.75-7.2
		C146.6,546.36,141.05,531.46,137.34,515.8z"/>
	<path class="st3" d="M129.19,361.22c-0.06,4.78-0.15,9.56-0.18,14.34c-0.02,2.25-0.14,4.39-2.79,5.2
		c-0.36-0.09-0.57-0.31-0.62-0.69c-2.94-26.21-2.71-52.46-0.94-78.73c0.63-0.86-0.6-3.57,2.23-2.25c1.64,5.34,0.4,10.66-0.48,17.05
		c0.59-2.15-0.02-3.4,1.09-4.54c1.63,1.05,1.2,2.44,0.66,3.85c-1.32,10.84-2.16,21.71-1.75,32.66c1.86,0.82,1.49-1.68,2.71-1.77
		c0.45-0.39,0.87-0.35,1.25,0.11c-0.7,1.18-1.41,2.36-2.46,4.13c8.17-5.21,16.82-7.92,25.01-11.6c3.98-1.79,8.84-1.25,13.33-1.08
		c2.35,0.09,2.53,1.31,1.29,3c-4.12,5.64-8.62,11.02-14.21,15.18c-5.62,4.17-11.83,2.3-17.82,0.39c-1.11-0.75-2.8,0.31-4.01-1.39
		c5.89-3.33,12.32-0.19,18.09-2.12c2.29-1.63,4.42-3.4,7.35-4.03c1.21-0.26,2.47-1.95,1.32-3.37c-1.18-1.46-2.07,0.33-3.01,0.9
		c-2.73,1.68-4.07,4.64-6.22,6.86c-5.86-1.18-11.58-0.23-17.26,1.17c-0.74,0.18-1.51,0.31-2.18,0.72c0.61,0.24,1.46,0.2,1.44,1.21
		C127.99,357.07,128.19,358.99,129.19,361.22z"/>
	<path class="st4" d="M254.82,678.73c1.63,1.76-0.61,4.22,1.08,5.97c0.09,0.86-0.83,1.15-1.02,0.81c-1.13-2.1-1.73,0.14-2.56,0.23
		c-1.34,0.33-2.47-0.22-3.21-1.19c-1.97-2.61-4.42-2.75-7.21-1.69c-2.25-3.62-4.64-7.09-9.44-7.92c-1.88,1.81-0.62,5.34-3.09,7.19
		c-2.53,0.44-4.99,0.82-3.59-3.21c0.6-1.74,0.15-3.08-1.83-3.5c-2.76-0.6-4.55-1.14-2.89-4.94c0.51-1.16-2.04-4.46-3.15-6.81
		c-1.37-2.9-2.23-6.23-6.71-6.53c-2.09-0.14-2.72-4.76-6.27-3.31c-0.45,0.04-0.88-0.05-1.28-0.25c-0.84-1.04-1.73-2.06-1.9-3.47
		c2.08-2.76,5.29-2.38,8.15-2.96c0.94-0.01,1.78,0.32,2.59,0.75c1.34,0.73,2.82,1.23,4.03,2.22c1.58,1.51,3.51,2.59,5.03,4.14
		c2.93,2.99,5.59,6.09,10.04,1.91c1.38-1.3,3.37-0.31,4.35,1.34c1.67,2.81,4.32,4.33,6.99,5.89c5.68,2.58,8.13,7.82,10.6,13.02
		C253.94,677.21,253.72,678.33,254.82,678.73z"/>
	<path class="st5" d="M254.82,678.73c-2.06-0.86-2.62-2.98-3.45-4.64c-2.16-4.33-5.36-7.61-9.18-10.4
		c-2.79-2.77-6.48-4.95-6.37-9.64c5.45-1.5,10.87-2.7,15.87,1.31c3.36,3.17,6.7,6.37,8.94,10.49c0.86,1.08,2.06,1.61,3.34,1.99
		c5.57,0.58,11.17-0.12,16.72,0.33c7.17,0.57,13.67,2.64,17.47,9.54c0.34,0.39,0.67,0.78,1.01,1.18c-1.23,2.82-3.02,0.99-4.53,0.46
		c-4.03-1.41-7.57-4.24-12.38-4.52c0.94,2.59,4.03,2.1,4.91,4.58c-0.88,1.05-2.04,0.7-3.19,0.38c-8.65-2.11-17.49-2.99-26.29-4.07
		C255.83,675.48,253.19,675.27,254.82,678.73z"/>
	<path class="st6" d="M252.42,685.23c0.8-2.52,2.57,1.27,3.48-0.53c4.61-1.68,8.88-3.71,14.17-0.88c2.2,1.18,5.98-0.73,9.06-1.04
		c12.05-1.2,22.21,5.49,26.66,17.46c0.1,1.92-1.32,1.25-2.12,1.09c-1.92-0.4-3.84-0.45-5.78-0.49c-2.16-0.58-3.77-2.11-5.58-3.31
		c-9.02-5.98-18.82-7.76-29.36-5.31c-1.32,0.31-2.81,0.4-3.59,2.25c3.2,1.56,7.15,0.33,10.05,2.67c1.76,1.22,3.73,2.27,3.86,4.81
		c-0.31,0.51-0.69,0.56-1.13,0.16c-4.53-3.68-9.39-5.62-15.13-2.83c-0.47,0.28-0.87,0.21-1.21-0.22c-1.16-4.22-2.74-8.32-3.91-12.55
		C251.94,686.03,252.12,685.6,252.42,685.23z"/>
	<path class="st7" d="M93.91,671.18c3.68-1.89,5.79-5.98,9.96-7.18c1.68,0.16,3.24-1.23,4.97-0.36c2.3,1.14,2.08,2.21,0.8,2.96
		c6.56-2.26,6.56-2.26,9.72-0.7c0.53,0.76,0.88,1.58,0.65,2.53c-3.28,2.28-5.37,5.61-7.71,8.73c-0.74,0.6-3.37-0.84-2.01,2.09
		c0.68,1.47,0.36,3.3,0.08,4.97c-0.1,0.43-0.27,0.84-0.5,1.22c-0.85,1.13-3.08,0.79-2.71,3.42c0.27,1.95-5.88,6.9-8.28,6.32
		c-5.33-1.3-7.89,2.29-11.14,5.01c-2.03,1.69-4.25,3.57-6.57,0.27c6.09-5.86,11.22-12.74,18.54-17.32c1.74-1.09,2.36-3.17,2.25-5.3
		c-0.28-1.55,0.95-2.89,0.56-4.42c-3.55,1.91-5.55,5.08-7.21,8.54c-0.77,1.42-1.7,2.65-3.46,2.87c-1.6-0.94-2.31-0.03-3.22,1.24
		c-1.32,1.85-2.75,3.94-5.65,2.87c-1.48-2.8,0.25-4.66,1.97-6.43c3.19-3.27,7.09-5.81,9.7-9.66
		C97.47,670.96,92.74,672.33,93.91,671.18z"/>
	<path class="st8" d="M203.95,653.27c0.27,0.13,0.55,0.26,0.83,0.38c1.38,0.33,2.51,0.84,1.8,2.61c-0.7,0.24-1.39,0.48-2.09,0.72
		c-4.79-2.08-4.79-2.08-7.09,2.81c0,1.05,0,2.1,0,3.06c1.95,0.52,2.9-2.95,4.09-1.22c1.67,2.43-2.26,3.19-2.63,5.75
		c3.33-1.7,6.99-1.44,9.93-4.27c1.61-1.55,2.35,1.83,5.04,2.62c-4.28,1.1-7.28,2.05-10.35,2.62c-7.88,1.48-9,2.58-8.9,10.55
		c0.04,3.44-0.44,5.94-4.69,5.45c-0.01-0.34-0.03-0.68-0.04-1.02c-1.64-5.28,0.12-10.67-0.56-15.98c0.04-1.63,0.36-3.24,0.26-4.87
		c0.02-3.04-0.09-6.1,1.02-9.01c0.63-1.18,0.03-2.45,0.27-3.66c2.54-3.27,1.66-6.83,0.87-10.37c-0.57-1.26,0.07-2.1,0.97-2.86
		c1.58-5.18-0.1-10.29-0.52-15.41c-0.14-1.65-0.4-3.33-0.51-5.01c-0.48-1.18-0.61-2.17,1.14-2.18c3.64,5.57,4.03,11.86,3.96,18.23
		c-0.05,2.89-0.08,5.8-0.05,8.94c1.09-1.95-0.75-5.09,2.82-5.44c0.78,1.04,0.89,2.26,0.96,3.49c-0.02,1.48,0.01,2.96-0.19,4.42
		c-0.39,2.15-1.1,4.28-0.61,6.5C200.8,651.58,203.18,651.33,203.95,653.27z"/>
	<path class="st9" d="M109.34,685.17c0.08-0.26,0.16-0.51,0.25-0.76c0.99-2.52,0.83-5.42,2.56-7.69c0.92-4.16,3.75-6.64,7.38-8.42
		c1.69-2.51,4.4-1.4,6.7-1.93c-2.5-1.26-4.95,1.67-7.41,0.09c-3.95-2.28-7.03,0.68-10.42,1.8c-0.67-1.68,1.74-1.82,1.52-3.23
		c-1.79-1.7-4.19,0.3-6.05-1.01c6.51-3.53,13.41-5.62,20.86-4.8c10.65,1.18,21.25,1.88,31.83-0.49c0.77-0.15,1.55-0.22,2.31-0.11
		c1.3,0.19,3.21-0.79,3.76,0.77c0.6,1.71-1.08,2.67-2.46,3.46c-2.15,0.92-4.43,1.54-6.71,1.11c-4.4-0.82-8.77-0.67-13.18-0.24
		c-3.72-1.71-7.98-0.89-9.71,2.19c-1.37,2.44-3,3.92-5.92,3.36c-4.68-0.91-7.29,1.76-8.93,5.52c-2.02,4.64-3.65,9.46-5.54,14.17
		c-0.75,1.87-1.74,3.6-3.46,4.86c-8.02,5.86-16.9,10.08-25.94,14.06c-3.05,1.34-5.78-0.24-8.66-0.31c0.27-2.18,2.09-1.78,3.43-1.95
		c1.92-0.24,3.88-0.1,5.73-0.77c8.49-3.18,15.89-8.39,23.76-12.74C107.91,690.53,107.41,687.16,109.34,685.17z"/>
	<path class="st10" d="M255.5,630.82c6.58,0.45,11.19,4.65,16.01,8.43c1.97,1.54,2.58,3.74,2.56,6.15c-0.01,1.51-0.49,3.07,0.39,4.5
		c0.27,1.14,0.62,2.28-0.1,3.39c-0.34,0.38-0.76,0.57-1.26,0.59c-1.87-0.38-1.94-1.95-2.24-3.38c-0.43-3.42-2.79-5.29-5.72-6.08
		c-13.41-3.61-26.18-9.95-40.52-9.6c-1.5-0.55-3.37-0.97-1.08-2.92c5.3-1.05,10.23-4.24,15.96-2.73c0.89,0.24,1.92-0.22,2.7,0.25
		C246.44,631.94,250.94,631.59,255.5,630.82z"/>
	<path class="st11" d="M223.53,631.91c-0.82,1.27-0.22,1.79,1.04,1.96c-0.4,2.04-1.98,1.66-3.37,1.66
		c-4.31-1.02-7.57,1.29-10.9,3.42c-0.68,0.14-1.33,0.06-1.9-0.35c0.21-4.25,0.66-8.47-0.41-12.72c-0.68-2.7-1.58-2.97-3.69-1.34
		c-2.57,2-4.59,4.13-4.1,7.75c0.16,1.2,0.08,2.51-1.11,3.36c-1.66,2.03-0.41,4.44-0.89,6.63c-0.23,1.03-0.3,2.37-1.71,2.25
		c-1.23-0.11-0.97-1.35-0.97-2.22c0.02-3.21,0.09-6.43,0.14-9.64c2.43,0.93,0.39,3.05,1.18,4.02c-0.12-10.01-1.49-20.2-4.95-30.07
		c-0.54-1.53-1.91-3.47,0.61-4.73c2.24,4.37,3.95,8.97,4.75,13.79c0.67,4.01,1.73,1.4,2.83,0.44c3.3-5.03,5.88-10.54,9.89-15.11
		c0.91-1.04,1.5-2.45,3.29-1.92c-0.39,2.39-1.86,4.25-3.25,6.05c-2.71,3.5-2.4,7-0.41,10.81c-0.61-3.13,0.63-4.84,3.52-5.71
		c3.62-1.08,6.27,0.23,8.52,2.92c1,1.31,0.31,2.06-0.88,2.64c-11.13,2.67-10.96,2.64-8.97,13.84c0.66,3.69,1.6,5.14,5.44,3.54
		C219.16,632.38,221.42,632.31,223.53,631.91z"/>
	<path class="st12" d="M117.84,265.94c-3.68,1.59-7.43,3.06-11.03,4.81c-4.71,2.29-9.1,0.5-13.34-1.09
		c-2.96-1.11-2.91-5.95,0.25-7.04c7.89-2.73,15.64-6.39,24.34-5.9c1.19,0.85,0.73,2.37,1.63,3.54
		C122.4,263.77,122,264.57,117.84,265.94z"/>
	<path class="st13" d="M177.82,736.54c0.46-3.33,0.52-6.82,3.59-9.13c0.75-3.89,6.57-9.83,9.42-9.61c4.32,0.34,9.53,7.27,8.68,11.6
		c-0.42,2.13-1.48,4.11-1.54,6.33c-0.19,0.69-0.59,1.16-1.31,1.33c-2.92-1.55-3.81,1.87-5.87,2.43c-2.29,1.03-4.51,1.15-6.57-0.53
		c-1.78-1.45-4.16-1.18-6.09-2.21l-0.25,0.02L177.82,736.54z"/>
	<path class="st14" d="M130.38,346.44c-0.42-0.04-0.84-0.07-1.26-0.11c2.18-3.69,5.32-6.51,8.78-8.86
		c20.35-13.82,32.07-33.22,36.39-57.13c3.36-18.63,11.41-34.79,22.98-49.61c6.38-8.18,13.56-15.79,18.92-24.76
		c1.05-3.2,2.75-6.07,4.82-8.66c0.73-0.91,1.72-3.18,3.49-0.84c-6.14,9.84-12.85,19.26-20.5,27.99c0.29,3-2.12,4.13-3.92,5.68
		c-14.4,16.08-21.33,35.29-25.43,56.27c-2.59,13.27-8.72,25.61-17.65,36.29C149.26,331.95,138.75,337.97,130.38,346.44z"/>
	<path class="st15" d="M298.16,677.69c-5.62-5.62-12.25-8.38-20.34-8.43c-5.02-0.03-10.18,1.29-15.12-0.73
		c1.37-1.66,3.31-1.42,5.12-1.46c7.68-0.17,15.3-1.6,23.01-1.11c1.55,0.1,3.03-0.46,4.55-0.7c2.34-0.66,4.69-0.23,7.04-0.04
		c4.84-0.23,9.57,0.47,14.2,1.79c1.69,0.48,3.79,0.65,4,3.12C313.14,672.64,306.46,677.57,298.16,677.69z"/>
	<path class="st16" d="M296.45,666.41c-11.21,1.28-22.48,1.66-33.75,2.12c-1.25-0.23-2.09-1-2.72-2.04c0.66-2.67,1.24-4.29,5.1-3.67
		c3.71,0.59,7.59-1.64,11.01-3.6c1.05-0.6,1.15-1.99,0.15-2.77c-1.14-0.89-1.47-2.29-2.46-3.22c0.22-1.11,0.44-2.22,0.66-3.33
		c2.31,0.61,4.62,1.22,6.92,1.83c1.87,1.86,4.63,2.71,5.94,5.22c1.37,3.56,3.38,5.5,7.78,5.11
		C298.46,661.76,295.94,664.92,296.45,666.41z"/>
	<path class="st17" d="M213.26,599.08c-5.04,4.06-7.42,10.12-11.33,15.04c-0.56,0.71-1.23,1.33-1.85,1.99
		c-0.08-1.83,0.71-3.48,1.87-4.67c3.21-3.28,1.93-6.57,0.84-10.26c-3.68-12.48-8.87-24.57-10-37.72c1.03-1.77-1.25-4.09,0.95-5.66
		c0.18,10.98,4.93,20.81,7.57,31.21c1.12-4.96,3.75-8.93,6.66-12.81c-2.51,8.74-3.88,17.49-1.57,27.47
		c6.53-6.97,10.66-14.33,15.12-21.44c2.26,0.03,1.51,1.35,0.98,2.43c-1.25,2.51-3.05,4.68-4.59,7.01
		C216.35,594.14,214.81,596.61,213.26,599.08z"/>
	<path class="st18" d="M131.99,177.73c1.99,1.94,4.4,4.97,6.68,4.31c2.14-0.61,1.44-4.57,1.83-7.1c1.01-6.59,1.71-13.28,3.35-19.72
		c0.77-3-1.22-5.78,0.83-8.99c1.78-2.77,1.56-6.84,2.2-10.35c0.63-3.51,1.27-7.03,1.81-10.55c0.14-0.88-0.1-1.82-0.16-2.74
		c0.16-0.55,0.73-0.69,1.05-1.08c1.82-7.86,3.63-15.71,5.45-23.57c0.66-0.32,1.33-0.38,2.01-0.07c1.19,0.76,0.46,2.17,1.05,3.14
		c-0.05,0.92-0.1,1.84-0.15,2.75c-0.54,4.32-2.66,8.19-3.59,12.4c-3.98,18.16-8,36.28-10.21,54.81c-1.41,11.82-2.4,23.79-5.28,35.42
		c-0.39,1.57-0.07,4.13-3.13,3.16c1.15-7.01,2.55-13.97,3.04-21.11c0.24-3.48-1.01-5.23-3.63-6.65c-1.79-0.97-3.56-1.91-4.29-4
		C131.19,177.36,131.57,177.33,131.99,177.73z"/>
	<path class="st19" d="M224.49,196.48c-3.29,0.09-3.57,3.11-4.96,5.06c-1.08,1.51-2.23,2.96-3.34,4.44
		c2.15-6.71,0.9-13.34-0.19-20.06c-0.99-6.11,0.84-11.77,4.02-17.18c0.06,3.71,1.72,6.58,3.72,9.44c2.74,3.9,1.62,8.34,1.03,12.6
		c-0.24,1.75,0.02,2.01,1.46,1.07c0.59,0.09,0.94,0.43,1.02,1.03C226.33,194.08,225.41,195.28,224.49,196.48z"/>
	<path class="st20" d="M135.71,209.57c1.58,0.19,1.67-0.94,1.87-2.05c2.41-13.44,3.76-27.03,5.73-40.54
		c1.59-10.87,2.76-21.81,5.89-32.44c1.87-6.35,2.88-12.96,4.28-19.45c0.6-0.91,1.02-2.07,2.46-1.88c-1.3,5.87-2.48,11.77-3.95,17.6
		c-0.68,2.7,0.03,3.15,2.37,2.19c0.29,0.21,0.38,0.42,0.28,0.63c-0.1,0.2-0.2,0.31-0.3,0.31c-2.2,0.72-2.88,2.66-3.64,4.54
		c-1.17,4.35-2.05,8.77-2.92,13.19l0.05-0.12c-0.35,6.26-2.77,12.3-2.04,18.68c-1.03,5-0.51,10.28-2.71,15.06
		c-1.46,10.77-2.76,21.57-4.69,32.27c-0.27,0.44-0.65,0.75-1.12,0.95c-1.16,0.25-1.91-0.28-2.43-1.27
		C136.44,214.84,135.95,212.19,135.71,209.57z"/>
	<path class="st21" d="M192.5,601.89c-0.55,3.81,1.73,6.96,2.53,10.46c2.03,8.93,2.61,17.89,2.19,27.51
		c-1.79-2.55-0.1-5.16-1.55-7.18c-0.08-6.34-1.21-12.51-3.05-18.56c-2.73-4.99-3.48-10.82-6.62-15.64c-2.23-4-4.6-7.92-7.45-11.52
		l0.03,0.05c-2.24-2.49-3.41-5.91-6.57-7.61c-0.62-0.81-1.23-1.63-1.85-2.44c-0.71-2.53-2.06-4.9-1.86-7.65
		c6.94,6.47,13.41,13.36,17.81,21.85C188.03,594.89,191.22,597.82,192.5,601.89z"/>
	<path class="st22" d="M132.63,697.2c-3.72,4.81-9.47,6.64-14.37,9.68c-4.37,2.71-8.4,5.74-12.02,9.37
		c-6.24,6.27-9.99,6.89-17.82,3.14c-0.05-0.02-0.43,0.65-0.66,0.99c-1.83-6.09-1.37-6.83,4.51-5.35c7.55,1.9,13.6,0.08,18.8-5.71
		c2.79-3.1,6.11-5.71,9.17-8.56C123.77,697.46,127.88,696.24,132.63,697.2z"/>
	<path class="st23" d="M166.58,684.49c-2.42,1.82-4.79-0.22-7.18-0.08c-2.29,0.13-4.68-0.59-6.84,0.75
		c-1.26-0.87-2.53-1.74-3.8-2.62c-1.55-2.29-3.89-2.27-6.07-1.63c-2.51,0.74-4.79,0.27-7.13-0.42c-0.89-0.13-1.04-0.79-1.07-1.53
		c0.21-0.42,0.53-0.73,0.97-0.9c9.07-2.02,18.2-2.47,27.48-1.57c3.63,0.35,6.45-1.66,7.49-5.57c0.52-1.98,0.55-4.51,3.61-4.54
		c2.76,5.12,1.54,10.05-3.16,13.76C169.31,681.38,166.67,681.72,166.58,684.49z"/>
	<path class="st24" d="M136.41,218.15c0.35-0.03,0.69-0.06,1.04-0.09c1.17,1.66,0.48,3.35,0.09,5.03c0.06,1.56,0.47,3.17-0.79,4.49
		c-1.12,2.3-1.63,4.7-1.19,7.26c0.12,0.83-0.08,1.55-0.79,2.07c-1.33,6.54-4.13,12.71-4.94,19.39c-0.84,3.49-0.2,7.19-1.53,10.61
		c-0.74-0.56-0.6-1.34-0.6-1.34c0.33,3.02-0.71,6.85,0.47,10.6c-0.01,3.71-0.02,7.43-0.03,11.14c1.53,4.28-0.41,8.77,0.77,13.07
		c-0.19,5.03,1.29,10.14-0.76,15.07c-0.14-0.89-0.29-1.79-0.6-3.73c-0.23,2.2-0.35,3.38-0.47,4.56c-0.36-0.01-0.72-0.01-1.07-0.02
		c0-5.86,0-11.71,0-17.57c-1.55-4.94-1.05-10.16-1.19-15.13c-0.15-5.51-0.26-11.05-0.58-16.58c2.85-15.49,8.26-30.39,10.62-46
		C135.04,219.91,135.69,218.98,136.41,218.15z"/>
	<path class="st25" d="M113.23,655.12c-1.78-0.67-4.46,2.09-5.28-0.61c-0.53-1.77,2.04-3.26,3.64-4.32
		c6.65-4.42,13.51-8.09,22.03-7.31c4.31,0.39,8.51-1.37,12.75-2.2c7.02-1.38,14.05-1.98,21.13-0.41c-3.73,1.94-7.88,0.48-11.74,1.42
		c-0.84,0.2-1.9-0.26-2.39,0.87c-0.32,0.12-0.64,0.24-0.96,0.37c-5.44,0.38-10.05,2.11-13.71,6.6c-2.04,2.5-4.81,4.91-8.72,4.13
		c-0.92-4.28,3.76-3.64,5.11-6.23c-6.02,1.8-12.41,1.61-18.3,3.93c-1.06,1.04-3.01,0.99-3.41,2.82
		C113.52,654.53,113.46,654.84,113.23,655.12z"/>
	<path class="st26" d="M171.14,619.72c0.33,0.92,0.67,1.83,1,2.75c0.05,2.16-1.62,1.26-2.62,1.42c-1.63,0.26-3.35-0.37-4.94,0.43
		c-2.97,1.23-5.93,1.33-9.05,0.42c-4.06-1.19-8.14-1.21-12.1,0.66c-1.04,0.49-2.17,1.49-3.23-0.04c-1.1-1.59-0.06-3.16,1-3.53
		c5.71-2,10.53-6.39,16.97-6.38c0.9,0,1.79,0.31,2.69,0.47c-0.35,2.61-2.36,1.86-3.84,1.73c-1.51-0.13-2.92-0.43-3.64,0.42
		C159.16,617.88,165.3,616.21,171.14,619.72z"/>
	<path class="st27" d="M283.99,679.77c0.75-0.13,1.51-0.26,2.74-0.47c-1.08-0.48-1.84-0.65-2.37-1.1c-1.47-1.26-5.28-0.96-4.05-3.9
		c1.15-2.72,4.05-0.51,5.82,0.01c3.39,0.99,6.56,2.76,9.74,4.36c1.16,0.58,2.11,1.41,3.29,0.19c2.73,2.27,5.52,4.22,9.32,4.45
		c3.92,0.24,3.18,4.9,5.65,6.63c-0.49,3.15-2.2,2.66-4.38,1.66c-2.11-0.97-3.3-3.4-5.87-3.55
		C297.78,684.04,291.03,681.57,283.99,679.77z"/>
	<path class="st28" d="M287.04,657.22c-2.29-1.41-4.45-2.96-5.66-5.49c4.63,0.92,8.37,3.87,12.65,5.62
		c5.39,2.21,11.24,1.36,16.64,3.51c5.36,2.13,10.11,5.04,15.32,8.51c-2.14,1.27-3.77,0.9-5.37,0.75c-5.7-3.55-12.22-3.11-18.5-3.86
		c0.49-1.98,0.59-3.38-2.12-4.07C295.52,661.07,290.48,661.14,287.04,657.22z"/>
	<path class="st29" d="M164.61,43.2c1.12-0.33,1.65,2.08,2.6,0.87c0.87-1.11,0.25-2.7-0.31-4.02c4.66-0.95,6.07-4.22,6.07-8.51
		c1.9-1,3.13-0.2,4.03,1.5c0.63,2.69-0.45,5.2-1.48,7.43c-1.48,3.2,0.31,3.57,2.56,3.97c1.65,0.5,0.74,2.28,1.6,3.18
		c-0.22,1.1-2.65,2.77,0.75,2.94c0.28,0.41,0.3,0.84,0.11,1.3c-1.27,1.53-2.74,2.49-4.82,1.67c-1.18-0.97-0.46-2.64-1.62-4.16
		c-0.41,2.12-3.03,3.34-0.99,5.69c-1.48,4.41-2.81,4.9-6.23,2.33c-1.1-0.09-1.9-0.58-2.19-1.7c-0.94-3.09,1.1-6.61-1.4-9.48
		C163.26,45,163.67,43.99,164.61,43.2z"/>
	<path class="st30" d="M140.29,663.7c2.75-2.47,6.14-2.34,9.25-1.58c3.63,0.89,7.04,0.71,10.53-0.25c0.01,3.06-2.31,4.22-4.53,5.17
		c-5.78,2.47-11.85,4.19-17.68,6.56c-2.19-1.49-4.34-2.34-7.06-0.95c-1.14,0.58-3.07,1.08-3.55-1.27
		C131.15,668.05,135.46,665.44,140.29,663.7z"/>
	<path class="st31" d="M167.28,56.19c0.41-0.18,1.1-0.61,1.18-0.51c2.12,2.48,2.11,2.49,4.58-0.64c0.13-1.86,1.22-2.19,2.79-1.74
		c1.85,0.13,3.07-1.26,4.61-1.89c1.48-1.1,2.93-2.25,4.75-2.75c1.42-0.39,2.5-0.25,2.22,1.67c-4.51,2.74-8.55,6.06-12.12,9.95
		c-2.97-1.83-5.47,0.57-5.72,5.51c-1.46,3.4-5.33,6.1-2.99,10.58c0.22,0.4,0.17,0.78-0.13,1.12c-3.04-0.53-3.07,1.94-3.49,3.74
		c-1.54,6.62-2.67,13.33-4.87,19.79c-1.14-0.68-0.84-1.88-1.03-2.9c-0.56-3.96,0.22-7.78,1.06-11.63c1.3-5.97,3.42-11.77,3.75-17.93
		c-0.09-0.72-0.07-1.43,0.03-2.15C163.39,62.85,165.72,59.73,167.28,56.19z"/>
	<path class="st32" d="M245.93,507.3c-0.34-1.77-0.68-3.53-1.02-5.3c-1.02-3.28-0.59-6.57-0.07-9.86
		c-0.13-12.16,1.68-24.41-1.72-36.42c-0.33-1.17-0.68-2.33-1.02-3.5c-0.04-1.5-0.85-3.06-0.1-4.47c0.75-1.4,1.42-3.76,3.72-1.42
		c-1.01,1.2-1.85,2.51-1.41,4.16c2.05,7.78,3.64,15.63,3.82,23.96c1.89-3.04,3.78-6.09,6.12-9.84c-0.05,4.52-2.17,7.63-4.27,9.81
		c-3.31,3.45-2.81,7.18-3.09,11.14c-0.61,8.74,0.69,17.38,0.94,26.07c0.04,1.39-0.15,2.8-0.24,4.2c-2.19-0.69-0.86-2.48-1.13-3.75
		C246.12,510.5,246.9,508.8,245.93,507.3z"/>
	<path class="st33" d="M93.91,671.18c1.25,0,2.51,0,3.83,0c-0.32,1.33-1.54,1.35-2.31,1.92c-5.31,3.69-11.82,6.58-15.21,11.82
		c-2.72,4.22-5.76,7.85-9.04,11.49c-1.09,1.21-0.58,3.3-0.92,4.96c-0.28,1.35-0.13,3.48-2.69,2.37c-1.9-2.43-0.72-4.93-0.19-7.42
		c3.15-9.53,8.79-17.18,17.39-22.42C87.51,672.24,91.18,673.17,93.91,671.18z"/>
	<path class="st34" d="M127.26,671.39c2.03,1.71,3.7,0.07,5.49-0.58c2.28-0.84,4.46-1.41,4.62,2.22c1.01,1.34-0.43,2.05-0.77,3.04
		c-0.43,0.82-0.21,1.86-0.83,2.62c-0.42,0.09-0.85,0.18-1.27,0.27c-4.89-0.12-9.07,2.29-13.51,3.77c-1.46,0.48-3.12,2.56-4.49,0.69
		c-1.16-1.59,1.25-2.43,1.9-3.69C120.37,675.87,123.2,672.99,127.26,671.39z"/>
	<path class="st35" d="M243.16,538.4c0.12,0.3,0.08,0.59-0.11,0.85c-0.78,2.84-1.51,5.69-2.77,8.37c-0.11,1.25,0.44,2.64-0.75,3.67
		c-3.11,6.81-6.56,13.48-8.54,20.75l0.12,0.12c-1.82,0.26-2.26-1.09-2.82-2.36c-0.51,1.01,0.18,2.96-1.59,2.99
		c-1.23,0.02-1.37-1.5-1.43-2.53c-0.17-2.59-0.18-5.19-1.65-7.48c-1.09-2.18-0.09-4.63-0.92-6.84c0.02-1.39-0.09-3.23,1.47-3.51
		c1.66-0.3,1.96,1.68,2.56,2.86c1.33,2.61,2.56,5.26,4.09,8.42c7.62-11.11,9.31-23.89,13.19-35.84c2.03,1.35,1.72,3.3,1.37,5.27
		C245.41,535.23,244.18,536.77,243.16,538.4z"/>
	<path class="st36" d="M191.67,542.02c-0.14-7.89,1.92-15.57,2.35-23.44c0.27-4.93-1.79-8.79-3.22-13.03
		c1.26-1.23,2.49-0.39,3.73,0.04c0.59,0.36,1.09,0.78,0.9,1.59c0.35,3.21,0.71,6.42,1.07,9.75c2.72-0.71,2.83-3.86,5.69-5.78
		c-0.34,10.08-8.34,16.91-8.51,26.11c-1.37,2.07,0.04,4.5-0.88,6.63C191.12,544.06,191.17,543.17,191.67,542.02z"/>
	<path class="st37" d="M196.38,736.59c0.34-0.25,0.67-0.51,1.01-0.76c0.46-1.54,2.03-1.79,3.06-2.67c2.74-2.33,3.02-5.53,0.52-7.96
		c-1.6-1.56-3.06-3.25-3.6-5.32c-0.92-3.57-5.7-4.38-5.69-8.46c5.74-3.01,7.11-2.51,9.69,3.52c1.96,4.57,2,4.63,4.44,5.92
		c3.58,5.14,2.59,10.73-2.54,13.78c-2.11,1.25-4.37,2.25-6.56,3.37c-0.42,0.14-0.65-0.02-0.73-0.44
		C195.98,737.19,196.11,736.86,196.38,736.59z"/>
	<path class="st38" d="M171.24,21.41c1.77-3.67,4.39-6.92,5.47-10.93c0.63-2.34,2.89-2.16,4.1-1.74c2.36,0.82,0.54,2.06-0.3,3.02
		c-0.93,1.07-0.3,2.63,0.17,2.96c2.43,1.69,1.07,2.77-0.34,3.97c-0.81,1.1-0.22,2.21,0.26,3.07c1.52,2.72,0.77,4.68-1.63,6.36
		c-1.79,1.25-3.72,2.16-5.53,0.54C171.36,26.78,169.37,24.61,171.24,21.41z"/>
	<path class="st39" d="M113.23,655.12c-0.01-0.31-0.01-0.63-0.02-0.94c0.08-1.86,2.66-1.82,2.76-3.66
		c6.88-2.93,14.43-2.53,22.24-5.05c-2.04,4.29-6.37,4.76-8.14,7.9c-2.2,3.62-5.78,3.42-9.29,3.35c-2.3-0.04-4.31-1.48-6.63-1.49
		C113.83,655.2,113.53,655.16,113.23,655.12z"/>
	<path class="st40" d="M171.24,21.41c-0.33,1.62,0.35,3,1.09,4.35c0.97,1.78,2.13,3.89,4.47,2.41c1.9-1.2,5.16-2.06,3.38-5.79
		c-0.5-1.04-1.99-2.59,0.17-3.7c0.6,3.29,3.82,5.74,3.01,9.48c-0.12,0.18-0.24,0.36-0.35,0.54c-0.5,0.55-1.15,0.93-1.66,1.46
		c-0.38,0.4-1.08,0.48-1.16,1.17c0.58-0.14,1.16-0.2,1.75-0.05c1.43,0.69,0.3,2.32,1.17,3.22c2.72,5.06,0.96,11.79-3.42,13.12
		c-1.76-0.08-0.66-2.26-1.96-2.67c-0.46-1.48,0.44-2.12,1.62-1.99c2.54,0.28,1.7-1.58,1.83-2.72c0.17-1.48-0.35-1.61-1.83-1.15
		c-1.36,0.42-1.59-1.17-1.56-2.19c0.03-1.27,0.13-2.45-1.17-3.19c-1.06-1.41-2.32-2.4-4.23-1.97c-1.07,0.49-1.61,0.19-1.52-1.04
		C170.06,27.57,167.04,24.34,171.24,21.41z"/>
	<path class="st41" d="M136.41,218.15c-2.06,12.34-5.55,24.34-8.78,36.4c-1.08,4.03-0.76,8.31-2.5,12.17
		c-3.6-1.43-6.21-6.92-5.35-11.23c1.44,0.64,1.65,2.17,2.3,3.34c0.65,1.17,1.04,2.48,1.85,4.51c3.02-11.83,6.33-22.71,8.4-33.81
		c0.9-4.8-2.27-9.63-3.96-14.34c0.18-1.29-0.67-2.81,0.81-3.82c2.48,3.8,1.39,8.72,4.63,13.76c-0.5-3.57,0.74-5.59,1.04-7.87
		C135.37,217.56,135.89,217.85,136.41,218.15z"/>
	<path class="st42" d="M135.66,675.87c0.57-0.95,1.14-1.89,1.71-2.84c5.11-2.85,10.76-4.33,16.18-6.42c2.59-1,5.1-2.13,6.54-4.73
		c1.01-0.61,2.13-1.13,2.36-2.78c-2.02-0.13-3.95-0.26-5.88-0.38c4.8-0.22,9.18-1.2,11.4-6.18c2.24-1.82,4.47-3.69,7.68-2.33
		c0.89,0.88,0.72,1.76,0.01,2.65c-3.5,3.68-7.79,6.45-11.32,10.17c-4.39,4.63-9.96,7.74-16.47,8.65c-2.72,0.38-4.85,1.93-7.18,3.14
		C139.14,675.63,137.7,677.29,135.66,675.87z"/>
	<path class="st43" d="M256.14,513.82c1.57-1.54,3.23-2.41,4.12,0.47c1.32,4.29,1.47,8.41-1.79,12.2c-2.15,2.5-4.73,4.36-7.37,6.2
		c-2.28,0.86-2.7,0.04-2.29-2.18c0.72-3.87,1.86-7.51,4.14-10.78c1.15-1.65,2.18-3.41,3.03-5.26
		C256.03,514.26,256.09,514.04,256.14,513.82z"/>
	<path class="st44" d="M175.73,650.71c-2.8-0.31-5.27,0.83-7.76,1.83c0.61-1.28,1.49-2.22,2.72-3.02c5.13-3.3,15.43-3.21,20.13,0.3
		c0.43,0.85,2.87,1.09,0.84,2.71c-2.78,1.66-5.89,2.65-8.69,4.27c-0.41,0.11-0.84,0.17-1.26,0.2c-2.55,0.62-4.66,0.31-3.51-2.99
		C179.17,651.21,176.73,651.65,175.73,650.71z"/>
	<path class="st45" d="M137.34,515.8c2.91,3.99,3.47,8.87,4.61,13.41c3.11,12.39,10,22.76,16.61,33.32
		c0.91,1.45,2.87,2.52,1.49,4.68c-6.97-5.55-10.1-13.4-13.5-21.31C142.37,536.16,138.3,526.49,137.34,515.8z"/>
	<path class="st46" d="M187.06,50.44c-0.12-1.81-1.11-1.23-2.11-0.81c-1.49,0.63-3.01,1.19-4.51,1.78c0.04-0.28,0.04-0.56,0-0.84
		c2.53-2.76,6.59-3.08,9.17-5.76c0.93,0.61,0.89-1.7,1.96-0.65c0.82,1.09,1.47,0.79,2.01-0.25c0.84-1.62,1.35-3.44,2.83-4.67
		c1.76,1.09,2.91,3.5,5.59,2.58c1.93,0.07,4.11-0.9,5.57,1.26c-1.5,5.15-5.89,5.65-10,5.41c-2.31-0.14-4.52,0.16-6.77,0.14
		c-2.26-0.35-1.63,3.24-3.91,2.87C186.66,51.08,186.72,50.74,187.06,50.44z"/>
	<path class="st47" d="M119.78,255.49c0.86,4.18,1.96,8.25,5.35,11.23c0.7,10.64,1.16,21.29,0.89,31.96
		c-0.45,0.89-0.91,1.78-1.36,2.66c-0.12-8.79-0.91-17.56-0.53-26.38c0.27-6.23-1.76-8.7-6.3-9.02c-0.15-0.04-0.33-0.04-0.44-0.13
		c-0.21-0.16-0.37-0.37-0.56-0.56c6.57-1.13,2.93-3.82,0.69-5.77c-1.88-1.63,0.23-1.89,0.52-2.77c-0.53-3.79-3.49-6.7-3.87-10.55
		c0.3-0.34,0.6-0.34,0.9,0.01C117.14,249.02,118.64,252.16,119.78,255.49z"/>
	<path class="st48" d="M164.61,43.2c-0.06,0.92,0.25,1.93-0.7,2.61c-1.21,0.08-1.87-1.06-2.91-1.28c-0.72,0.64-0.38,2.77-1.8,2
		c-1.26-0.68-0.68-2.42-0.32-3.73c-1.04-2.47-6.84-5.73-8.81-4.26c-3.45,2.57-7.12,1.28-10.66,1.82c-1.78,0.05-1.78-1.42-1.11-2.07
		c2.2-2.13-0.15-3.11-0.87-4.5c-0.54-0.3-1.07-0.59-1.61-0.89c4.85-2.22,9.12,0.77,13.64,1.55c0.73,0.13,1.42,0.58,2.09,0.97
		c2.19,0.79,4.63,0.88,6.59,2.34c1.56,0.25,2.63,1.2,3.48,2.45C162.6,41.21,163.6,42.21,164.61,43.2z"/>
	<path class="st41" d="M129.83,256.29c-1.43-4.99,2.09-9.08,2.5-13.76c0.17-1.94,1.07-3.82,1.66-5.72c0.03-0.09,0.26-0.18,0.39-0.16
		c0.14,0.02,0.26,0.16,0.38,0.25c0.13,0.54-0.28,2.02,0.98,0.95c3.97-3.37,8.72-4.92,13.45-6.85c6.78-2.76,11.37-8.44,14.76-14.96
		c0.56-1.08,0.73-2.43,2.14-3.2c1.54,1.79,0.63,3.49-0.45,4.93c-5.32,7.08-10.73,13.61-20.18,16.02
		c-6.03,1.53-11.46,5.28-12.6,12.74C132.37,249.86,130.88,253.04,129.83,256.29z"/>
	<path class="st49" d="M129.18,211.37c-0.42,1.24,0.41,2.75-0.81,3.82c-4.52-8.67-4.78-18.22-5.71-27.63
		c-0.28-2.78-0.24-5.59-0.31-8.39c-0.02-0.99,0.3-2.03,1.43-2.01c1.38,0.02,0.95,1.11,0.94,2.04
		C124.57,190.15,126.85,200.77,129.18,211.37z"/>
	<path class="st50" d="M200.07,230.14c1.31-1.89,2.62-3.78,3.92-5.68c6.19-3.26,12.71-4.89,19.78-3.97
		C215.87,223.77,209.04,229.57,200.07,230.14z"/>
	<path class="st51" d="M114.14,655.23c2.05-1.05,4.12-0.01,6.02,0.32c3.74,0.64,6.79-0.62,9.9-2.18c3.9-1.08,7.11-3.11,9.79-6.23
		c3.27-3.81,7.38-5.76,12.56-4.22c-6.79,1.86-11.82,6.36-17,10.86C129.62,658.82,120.9,659.08,114.14,655.23z"/>
	<path class="st52" d="M224.45,562.6c2.96,2.55,1.3,6.17,2.15,9.41c1.42-1.57-0.22-3.67,1.48-5.39c0.87,2.03,1.23,4.26,3.04,5.55
		c-3.92,6.83-7.81,13.68-13.21,19.5c0.13-2.34,2.19-3.64,3-5.59c0.5-1.2,2.6-2.24,0.61-3.86c2.46-3.67,4.24-7.44,1.72-11.84
		C224.07,567.86,222.58,564.97,224.45,562.6z"/>
	<path class="st53" d="M131.99,177.73c-0.39,0.03-0.77,0.06-1.16,0.09c-11.43-9.11-14.55-22.12-16.69-35.6
		c-0.4-0.49-0.6-1.02-0.12-1.56c0.6-0.67,1.07-0.27,1.32,0.31c0.7,1.63,0.35,3.57,1.44,5.1
		C119.8,157.61,123.63,168.76,131.99,177.73z"/>
	<path class="st54" d="M201.97,42.84c-2.87,0.37-5.71,0.7-5.56-3.6c0.58-0.89,1.52-0.88,2.43-1.04c3.72-0.66,7.55-1.01,7.18-6.54
		c-0.09-1.39,0.3-3.94,2.65-4.38c1.89-0.35,2,1.5,2.68,2.62c0.18,3.46-0.9,6.37-3.77,8.47l0.08-0.08
		C206.66,40.93,204.52,42.13,201.97,42.84z"/>
	<path class="st55" d="M140.3,713.73l0.05-0.35l0.35-0.06c0.37-0.23,0.77-0.38,1.19-0.46c1.38,0.33,2.62,0.28,3.94-0.56
		c2.09-1.34,4.1-0.87,5.82,0.9c0.22,2.09-1.6,2.41-2.84,3.16c-1.45,0.88-3.07,1.5-3.98,3.07c-2.41,2.21-4.13,5.15-7.84,5.92
		c-1.53,0.32-2.57,0.58-3.66-0.51c-1.29-1.29-1.2-2.72-0.37-4.23c1.39-2.53,3.62-4.15,6.02-5.59
		C139.57,714.74,140.12,714.42,140.3,713.73z"/>
	<path class="st56" d="M303.89,688.07c2.9-1.76,3.71,1.58,5.39,2.49c2.14,1.16,3.45,1.47,4.87-0.61c5.55,5.22,12.98,5.73,19.93,7.45
		C322.19,699.8,312.46,695.71,303.89,688.07z"/>
	<path class="st57" d="M162.75,68.13c0.62,6.08-2.16,11.55-3.24,17.32c-0.79,4.22-1.63,8.46-2.47,12.68
		c-0.68-0.06-1.35-0.12-2.03-0.17c2.19-5.64,0.15-10.34-3.27-14.72c0.06-0.41,0.27-0.73,0.64-0.93c1.3,1.48,2.61,2.96,4.41,5
		c1.07-7.28,4.94-13.39,2.95-20.47c-0.23-1.67,0.43-1.88,1.6-0.9C162.02,66.49,162.11,67.51,162.75,68.13z"/>
	<path class="st58" d="M151.52,35.42c-5.41,0.23-10.19-3.53-15.72-2.52c-2.1-2.21-3.56-4.62-3.04-7.89c0.2-1.26,0.12-2.75,1.55-3.04
		c1.7-0.33,1.96,1.42,2.08,2.48c0.29,2.4,1.68,4.28,2.72,7.09c-0.05-3.36,0.85-5.69,2.75-7.92c1.18,2.78-2.43,4.91-0.72,7.14
		c1.59,2.08,4.48,0.18,6.59,1.37C149.24,32.98,150.67,33.83,151.52,35.42z"/>
	<path class="st59" d="M173.9,95.2c3.05-3.84,6.27-7.56,9.13-11.54c5.45-7.57,10.76-15.26,14.58-23.78
		c-3.22,14.79-13.64,25.16-22.9,36.24c-0.38,0.15-0.78,0.28-1.02-0.2C173.59,95.72,173.72,95.46,173.9,95.2z"/>
	<path class="st60" d="M140.3,713.73c-0.35,0.55-0.71,1.1-1.06,1.65c-2.5,1.44-5.48,2.14-7.05,4.96c-2.26,4.05-1.04,8.29,3.58,11.98
		c5.54,1.56,11.12,2.4,16.89,1.53c1.8-0.27,3.65-0.85,5.43,0.15c0.01,0.38,0.02,0.76,0.04,1.15c-6.87,2.89-13.91,2.21-20.93,0.9
		c-3.59-0.67-6.04-3.28-7.77-6.23c-4.07-6.95-0.25-14.46,7.7-15.54C138.19,714.12,139.25,713.91,140.3,713.73z"/>
	<path class="st43" d="M244.24,532.9c0.87-1.72,0.14-3.36-0.23-5.02c0.07-6.91,2.54-13.61,1.91-20.59c2,2.56-0.06,5.9,1.65,8.52
		c0.15,1.46,0.29,2.93,0.47,4.76c2.75-2.61,4.57-5.74,8.08-6.76c0.09,0.14,0.19,0.29,0.28,0.44c-0.96,3.03-3.34,5.2-4.74,7.98
		c-0.98,1.95-1.86,3.8-2.11,6.08C249.24,531.2,248.15,533.86,244.24,532.9z"/>
	<path class="st61" d="M298.16,700.32c2.52-2.37,5.1,0.97,7.63-0.09c1.39,1.8,2.75,3.63,4.18,5.4c1.58,1.95,4.64,3.43,3.05,6.53
		c-1.57,3.05-3.93,5.64-7.75,5.89c-1.67,0.11-3.37-0.14-5.06-0.23c-0.09-1.22,0.86-1.41,1.69-1.72c1.48-0.31,2.96-0.61,4.39-1.1
		c4.02-2.91,4.12-3.59,0.63-6.4c-2.16-1.74-4.1-3.77-6.64-5.05C299.04,702.95,297.9,702.04,298.16,700.32z"/>
	<path class="st62" d="M255.5,630.82c-5.83,4.33-10.89,1.07-16-1.64c3.23-1.47,6.56-2.74,10.12-2.99
		C252.84,625.95,255.55,626.72,255.5,630.82z"/>
	<path class="st63" d="M125.6,380.07c0.21,0.23,0.41,0.46,0.62,0.69c0.31,11.6,0.64,23.2,0.92,34.81c0.06,2.61,0.16,5.27-1.68,7.46
		C125.52,408.71,122.9,394.39,125.6,380.07z"/>
	<path class="st64" d="M198.99,161.84c-7.23,11.24-17.68,18.43-29.69,23.65c-0.23-0.26-0.31-0.53-0.26-0.81
		c0.06-0.28,0.12-0.42,0.19-0.42c8.13-3.77,14.77-9.6,21.36-15.49c1.71-1.53,3.07-3.45,4.59-5.19
		C196.48,163.06,196.96,160.74,198.99,161.84z"/>
	<path class="st65" d="M240.52,158.08c-0.45-3.49-5.85-2.99-5.65-7.27c0.1-2.21-2.14-4.96,2.39-5.03c0.93-0.01,1.84-0.92,2.81-1.44
		c1.67,4.62,2.05,9.19,2.14,13.8C241.63,158.61,241.06,158.72,240.52,158.08z"/>
	<path class="st66" d="M172.93,154.37c9.97-5.85,19.35-12.4,26.62-21.62c1.9-2.41,3.04-5.47,5.81-7.24
		c-0.06,6.86-19.71,25.21-31,29.02C173.84,154.84,173.37,154.79,172.93,154.37z"/>
	<path class="st67" d="M130.51,130.59c-5.15-10.6-8.06-21.49-3.94-33.2C124.62,108.86,127.62,119.7,130.51,130.59z"/>
	<path class="st68" d="M97.05,163.65c0.55-0.99-0.27-2.46,1.09-3.21c1.16,1.51-0.39,3.98,1.87,5.03c1.16,1.92-0.98,3.6-0.42,5.51
		c0.17,0.57-0.21-0.11,0.04,0.41c0.32,0.67,0.26-0.47,0.61-0.25c0.44,0.8,0.89,1.61,1.36,2.46c2.12-0.29-0.56-3.4,1.81-3.21
		c1.3,0.11,1.74,1.4,1.52,2.73c-1.88,2.26-0.21,5.88-2.99,7.8c-4.99-0.17-5.23-4.15-6.11-7.63
		C96.88,170.17,96.61,166.86,97.05,163.65z"/>
	<path class="st69" d="M144.2,114.79c-7.03-4.52-12.67-27.02-9.02-34.47C134.21,92.37,138.34,103.19,144.2,114.79z"/>
	<path class="st70" d="M67.39,696.32c0.46,2.47-0.98,5.21,1.05,7.45c2.45,1.44,4.17,0.01,5.49-1.72c2.22-2.91,4.37-3.42,6.85-0.43
		c1.13,1.17,2.15,2.38,1.46,4.19c-3.05,2.44-6.98-0.2-10.11,1.75C66.05,706.49,64.38,702.54,67.39,696.32z"/>
	<path class="st71" d="M191.67,542.02c0.27,0.69,0.53,1.38,0.8,2.06c1.22,0.51,0.16,2,1.12,2.63c0.01,0.6,0.01,1.21,0.02,1.81
		c-1.89,2.41-0.2,5.06-0.5,7.58c-0.23,1.92,0.58,3.95-0.6,5.78c-0.24-0.71-0.7-1.43-0.7-2.14c0.03-7.97-2-15.08-8.93-20.34
		C186.53,538.38,186.53,538.38,191.67,542.02z"/>
	<path class="st72" d="M115.08,246.16l-0.45,0.02c0,0-0.45-0.03-0.45-0.03c-5.76-10.91-9.61-22.45-11.46-34.66
		c3.29,1.17,2.76,4.14,3.14,6.69C108.06,227.8,111.97,236.85,115.08,246.16z"/>
	<path class="st73" d="M244.24,532.9c2.85-0.66,4.16-2.29,4.52-5.37c0.63-5.41,4.33-9.29,7.65-13.27c1.28,1.78-0.33,2.88-1.15,3.93
		c-3.13,3.99-4.58,8.66-5.72,13.46c-0.3,1.25,0.97,0.78,1.56,1.04c-2.25,2.46-5.17,3.98-7.94,5.72
		C243.52,536.57,243.88,534.73,244.24,532.9z"/>
	<path class="st74" d="M137.41,33.78c0.53,0.28,1.08,0.81,1.6,0.78c1.16-0.06,2.32-0.13,2.61,1.22c0.23,1.09-0.86,1.48-1.62,1.98
		c-1.01,0.66-1.69,1.43-0.61,2.59c-1.33,1.68-2.59,3.4-3.1,5.72C133.18,36.64,133.18,36.64,137.41,33.78z"/>
	<path class="st75" d="M194.24,506.28c-1.19-0.05-2.13-1.28-3.45-0.73c-0.53-1.11-1.27-2.17-1.56-3.33
		c-0.64-2.58,0.13-6.03,2.12-6.38c2.28-0.4,5.86,0.89,5.04,5.07C195.73,502.72,196.26,505.01,194.24,506.28z"/>
	<path class="st76" d="M131.04,356.39c-0.76-0.43-2.1-0.79-2.16-1.31c-0.14-1.14,1.19-0.94,1.97-1.3c4.57-2.06,9.65-1.32,14.34-2.71
		c2-0.59,2.68,1.96,4.46,1.85l-0.04-0.04c-2.75,1.46-5.18,3.15-8.82,1.82c-2.32-0.84-5.28,0.07-8.67,0.23
		c1.58,0.71,2.49,1.11,3.39,1.52C134.03,356.43,132.54,356.41,131.04,356.39z"/>
	<path class="st77" d="M116.79,146.06c-2.82-0.64-1.32-3.04-1.87-4.6c-0.21-0.59-0.73-0.65-0.46-0.09c0.09,0.19-0.2,0.56-0.32,0.85
		c-2.45-5.62,0-11.26-0.03-16.89c-0.01-0.86,0.62-1.48,1.53-1.24c1.38,0.35,1.53,1.57,1.19,2.62c-1.19,3.8-0.86,7.7-0.8,11.56
		C116.07,140.87,116.52,143.46,116.79,146.06z"/>
	<path class="st78" d="M170.85,30.71c0.29,0.67,0.72,1.14,1.53,1.04c2.25,2.02,1.87,4.27,0.63,6.66c-1.46,2.84-3.97,1.48-6.11,1.64
		c-1.56-1.46-2.29-2.96-0.23-4.61c0.38-2,2.79-2.04,3.55-3.67C170.43,31.42,170.64,31.07,170.85,30.71z"/>
	<path class="st79" d="M219.76,726.48c0.38-0.02,0.76-0.05,1.14-0.07c1.81-1.07,2.82,0.41,4.02,1.26c3.13,2.25,6.58,3.86,10.01,5.61
		c5.79,2.95,10.82,2.74,15.72-1.45c0.48-0.07,0.87,0.1,1.16,0.49c-3.43,5.77-6.59,7.47-12.59,5.31
		C232.15,735.07,224.92,732.51,219.76,726.48z"/>
	<path class="st80" d="M169.23,184.26c0.02,0.41,0.04,0.82,0.07,1.23c-2.75,2.72-6.87,2.13-9.98,2.8
		c-6.67,1.42-10.57,6.01-15.49,9.5c-0.25,0.17-0.56,0.25-0.84,0.37c-0.82-0.39-1.56-0.82-0.64-1.83c2.36,0.03,3.48-1.96,4.75-3.31
		C153.14,186.56,161.31,185.78,169.23,184.26z"/>
	<path class="st31" d="M187.24,51.42c1.58-3.43,1.58-3.43,3.57-2.81c-2.62,3.37-3.22,7.58-4.62,11.44
		c-1.78,4.9-3.75,9.51-9.41,11.05c-0.37,0.36-0.74,0.37-1.1,0c0-2.2,2.13-2.88,3.15-4.37c2.62-3.83,5.57-7.48,5.94-12.39
		C184.88,52.82,185.59,51.68,187.24,51.42z"/>
	<path class="st81" d="M220.75,615.8c0.29-0.88,0.59-1.76,0.88-2.64c1.79,1.32,3.71,1.17,5.69,0.54c3.08-0.98,6.1-0.49,9.05,0.56
		c1.04,0.37,1.94,1.08,1.43,2.44c-0.5,1.35-1.59,1.41-2.65,0.9C230.55,615.33,225.49,616.88,220.75,615.8z"/>
	<path class="st82" d="M142.34,196.33c0.21,0.61,0.43,1.22,0.64,1.83c-2.75,5.54-2.24,11.69-3.28,17.55
		c-0.46,2.55-0.73,5.13-2.16,7.38c-0.03-1.68-0.06-3.35-0.09-5.03c2.5-9.92,2.86-20.18,4.76-30.19c0.16-0.87-0.63-2.14,0.88-2.56
		C143.22,189,143.13,192.69,142.34,196.33z"/>
	<path class="st83" d="M176.78,118.98c4.8-6.8,7.82-14.51,11.4-21.96c-2.28,9.2-5.92,17.78-11.52,25.48
		C174.97,121.53,174.97,121.53,176.78,118.98z"/>
	<path class="st68" d="M105.87,218.19c-1.53-2-1.1-4.93-3.14-6.69c-1.27-3.58-2.11-7.22-1.71-11.06c-0.33-1.52-0.17-2.91,1.1-3.99
		C103.51,203.67,106.32,210.65,105.87,218.19z"/>
	<path class="st84" d="M167.28,56.19c0.39,4.28-2.89,6.94-4.55,10.32c-5.21-1.2-3.72-6.27-5.45-9.48c0-0.33,0.01-0.66,0.01-0.99
		c1.7-1.53-0.65-4.94,2.66-5.72c2.27,2.7,0.31,6.18,1.58,9.11c1.76-0.64,1.5-3.59,3.94-3.25C166.06,57.43,166.68,56.21,167.28,56.19
		z"/>
	<path class="st85" d="M245.71,446.33c-2.5,0.71-2.5,0.71-3.62,5.89c-2.84-3.54-0.73-7.39-0.63-11.1c0.02-0.79,0.7-2.08,1.28-2.21
		c1.01-0.23,2.02,0.47,2.55,1.59C246.2,442.39,248.8,444.15,245.71,446.33z"/>
	<path class="st86" d="M176.78,118.98c0.39,1.19-1.73,2.3-0.11,3.52c-5.64,7.33-14.22,8.92-22.32,11.44
		c0.01-0.31,0.02-0.62,0.02-0.93c3.31-1.27,6.64-2.49,9.93-3.81C169.51,127.1,173.38,123.32,176.78,118.98z"/>
	<path class="st87" d="M173.9,95.2c0.27,0.3,0.54,0.61,0.81,0.91c-3.1,3.95-7.64,6.02-11.6,8.83c-3.07,2.18-6.59,3.93-7.15,8.27
		c-0.82,0.63-1.64,1.25-2.46,1.88c1.65-3.71,2.26-7.82,4.45-11.32c0.28,1.1-0.36,3.31,2.13,1.54
		C164.72,102.01,169.88,99.39,173.9,95.2z"/>
	<path class="st88" d="M207.58,38.37c1.26-2.82,2.51-5.65,3.77-8.47c0.37,0.29,0.74,0.58,1.11,0.87c-0.56,2.83,0.42,5,2.82,6.56
		c-0.5,2.33,2.3,3.13,2.34,5.01C213.15,43.97,211.06,39.46,207.58,38.37z"/>
	<path class="st89" d="M240.52,158.08c0.56,0.02,1.13,0.04,1.69,0.06c1.97,3.6,0.44,6.98-0.73,10.59c1.5-0.12,1.88-1.38,2.65-2.12
		c0.87-0.14,1.43,0.02,0.99,1.08c-1.18,2.18-2.95,3.83-4.83,5.38c-1.52-0.73-1.45-1.92-0.94-3.24
		C239.74,165.92,240.13,162,240.52,158.08z"/>
	<path class="st90" d="M239.35,169.84c-0.21,1.23,0.4,2.23,0.94,3.24c-3.5,7.16-7.42,14.04-13.05,19.8
		c-0.34-0.34-0.68-0.69-1.02-1.03C232.07,185.39,236.31,177.97,239.35,169.84z"/>
	<path class="st91" d="M244.83,492.14c0.02,3.29,0.05,6.57,0.07,9.86c-1.15-3.41-3.5-6.09-5.41-9.04c-2.25-3.47-3.6-7.19-2.97-11.44
		c2.18,4.82,3.04,10.22,7.12,14C244.04,494.38,244.44,493.26,244.83,492.14z"/>
	<path class="st92" d="M153.37,642.56c4.33-3.09,9.38-1.76,14.13-2.29c3.59,0.53,7.34,0.54,10.24,3.49
		C169.65,641.66,161.52,641.86,153.37,642.56z"/>
	<path class="st93" d="M171.14,619.72c-6.16-1.5-12.49-0.75-18.76-1.45c2.28-2.8,6.11,0.03,8.47-2.35
		C164.74,615.96,168.56,616.15,171.14,619.72z"/>
	<path class="st94" d="M230.99,572.05c0.19-4.85,5.51-17.79,8.54-20.75C237.88,558.71,234.06,565.22,230.99,572.05z"/>
	<path class="st37" d="M178.13,736.75c2.18-0.11,4.39,0,6.16,1.38c2.13,1.66,4.24,1.17,6.44,0.43c1.88-0.19,3.41-2.53,5.59-0.94
		c0.13,0.13,0.26,0.26,0.39,0.39C189.38,742.96,186.98,742.79,178.13,736.75z"/>
	<path class="st95" d="M96.05,191.9c-4.02-0.67-5.24-3.91-6.25-7.15c-1.57-5.06-1.62-7.32-0.28-11.13
		c0.79,7.82,1.53,14.74,8.73,18.16C97.55,192.48,96.81,192.32,96.05,191.9z"/>
	<path class="st96" d="M192.66,636.58c0.26,1.15-0.47,1.97-0.97,2.86c-3.21-4.29-8.23-6.78-11.23-11.28l-0.08,0.08
		c3.7-0.41,5.03,3.13,7.57,4.65C189.64,633.91,191.1,635.34,192.66,636.58z"/>
	<path class="st97" d="M245.12,167.7c-0.33-0.36-0.66-0.72-0.99-1.08c3.97-5.84,2.41-12.55,3.18-18.91
		C249.49,154.66,249.03,161.35,245.12,167.7z"/>
	<path class="st98" d="M97.05,163.65c1.72,3.22,1.66,6.33-0.53,9.33c-1.35,0.13-0.05,1.89-1.28,2.1
		C94.16,171,92.06,166.76,97.05,163.65z"/>
	<path class="st99" d="M185.98,598.23c3.9,4.59,5.6,10.1,6.64,15.89c-0.33,0.68-0.66,1.36-0.99,2.04c-2-6.02-3.55-12.19-6.28-17.96
		C185.56,598.21,185.77,598.22,185.98,598.23z"/>
	<path class="st100" d="M168.5,157.43c-7.32,0.9-14.16,4.11-21.58,4.55c-0.54-1.42-1.51-2.93,0.75-3.8
		c0.08,1.14-0.39,2.21,1.83,2.08c5.35-0.33,10.09-2.61,15.1-3.98C165.65,157.47,167.53,155.92,168.5,157.43z"/>
	<path class="st101" d="M96.05,191.9c0.74-0.04,1.47-0.07,2.21-0.11c2.12-2.57,0.05-5.56,0.84-8.27c0.06-1.8,0.89-1.12,1.45-0.36
		c0.72,0.99,0.44,2.34,0.9,3.45c0.14,3.28-0.1,6.58,0.65,9.82c0,0,0.01,0.02,0.01,0.02c-0.37,1.33-0.73,2.66-1.1,3.99
		C99.59,197.46,100.69,193,96.05,191.9z"/>
	<path class="st79" d="M250.78,718c2.56,4.61,4.97,9.23,1.02,14.31l-0.25-0.24c-2.11-2.24-0.68-5.26-1.71-7.73
		c-0.48-1.58-1.25-3.12-0.81-4.86c0.24-0.71,0.8-1.14,1.37-1.56L250.78,718z"/>
	<path class="st102" d="M105.6,190.6c4.42-3.78,6.29-8.88,7.07-15c2.56,5.09-0.39,11.4-6.97,16.22
		C105.16,191.46,105.13,191.05,105.6,190.6z"/>
	<path class="st103" d="M160.12,50.69c-2.25,1.09-0.01,4.57-2.83,5.35c-0.47-4.53,0.64-8.87,1.59-13.24
		c0.13,1.02,0.27,2.05,0.41,3.1c1.3-0.73,0.16-2.23,1.02-3.06c0.07-0.06,0.29-0.04,0.39,0.02c0.12,0.07,0.17,0.23,0.26,0.36
		C162.13,45.87,163.3,48.52,160.12,50.69z"/>
	<path class="st104" d="M100.86,186.32c-1.48-0.37,0.43-2.88-1.76-2.8c-0.05-3.38-3.73-5.1-3.86-8.44c0.54-0.89-0.64-2.3,0.89-2.85
		c0.03-0.01,0.25,0.49,0.39,0.75c1.04,3.07,0.96,6.94,5.41,7.57c0.49,0.35,0.52,0.73,0.09,1.16c0,0.28-0.05,0.54-0.17,0.8
		C100.93,183.62,102.19,185.31,100.86,186.32z"/>
	<path class="st105" d="M272.14,702.1c0.44-0.01,0.89-0.02,1.33-0.03c0.69-0.11,1.3,0.09,1.9,0.4c4,3.27,8.37,6.09,11.96,9.88
		c-0.02,0.75-0.22,1.3-1.15,1.09C280.64,710.73,276.22,706.61,272.14,702.1z"/>
	<path class="st106" d="M183.1,34.51c-1.43-0.58-1.24-1.69-0.91-2.83c-0.92-1.64,0.14-2.62,1.18-3.62c0,0-0.02,0.11-0.03,0.11
		c1.19-1.38,2.22-2.97,3.63-4.07c0.75-0.59,0.46-2.5,1.77-1.86c1.53,0.74,0.4,1.93-0.3,2.63C185.71,27.56,184.46,31.06,183.1,34.51z
		"/>
	<path class="st107" d="M201.97,42.84c1.89-1.52,3.79-3.03,5.68-4.55c0.79,2.27,3.37,3.44,3.72,6.07c-1.86,1.23-2.38-1.42-3.8-1.29
		C205.74,42.1,203.83,43.26,201.97,42.84z"/>
	<path class="st108" d="M164.58,624.33c2.18-2.04,5.42,0.32,7.57-1.85c3.73,0.52,6.44,2.48,8.23,5.77c0,0,0.08-0.08,0.08-0.08
		C175.38,625.99,170.52,622.94,164.58,624.33z"/>
	<path class="st34" d="M135.57,680.49c3.9,0.67,7.79-2.01,11.69,0c0.86,0.44,2.39,0.34,1.51,2.05c-1.84-0.95-3.66-1.23-5.79-0.73
		C140.42,682.42,137.76,682.49,135.57,680.49z"/>
	<path class="st109" d="M142.57,70.23c-2.99-4.9-3.81-9.8-1.99-13.89c-0.12,4.96,1.65,9.4,3.5,13.82
		C143.59,70.65,143.09,70.67,142.57,70.23z"/>
	<path class="st110" d="M142.57,70.23c0.5-0.02,1-0.05,1.51-0.07c2.43,4.28,6.23,7.62,8.32,12.14c-0.21,0.31-0.42,0.62-0.64,0.93
		C148.72,78.88,144.78,75.17,142.57,70.23z"/>
	<path class="st111" d="M286.18,713.43c0.28-0.3,0.56-0.6,0.84-0.89c5.08,1.2,10.64,0.8,15.01,4.43c-0.6,0.29-1.21,0.57-1.81,0.86
		C295.21,717.41,290.42,716.3,286.18,713.43z"/>
	<path class="st112" d="M147.67,158.18c-1.27,1.07-0.76,2.48-0.75,3.8c-0.37,2.75-0.74,5.51-1.12,8.27c-2-2.02-0.95-4.5-0.54-6.56
		c0.81-4.04,0.75-8.29,2.57-12.12C147.78,153.76,147.73,155.97,147.67,158.18z"/>
	<path class="st113" d="M224.45,562.6c-0.63,2.56,1.19,5.51-1.22,7.8c-1.34-4.77-1.16-9.6-0.53-14.44
		C224.25,557.91,222.8,560.66,224.45,562.6z"/>
	<path class="st114" d="M198.99,161.84c-1.27,0.58-2.54,1.16-3.81,1.74c1.19-2.07,2.37-4.15,3.57-6.22c0.52-0.9,1.02-2.19,2.32-1.51
		c1.66,0.87,0.56,2.07-0.04,3.06C200.41,159.92,199.68,160.87,198.99,161.84z"/>
	<path class="st68" d="M100.86,186.32c0.35-1.27-0.31-2.8,0.99-3.82c0.04,2,0.19,4.01,0.11,6.01c-0.13,3.16,1.49,3.02,3.64,2.1
		c0.03,0.41,0.07,0.81,0.1,1.22c-1.89,1-3.59,2.14-3.6,4.61C99.84,193.29,101.71,189.64,100.86,186.32z"/>
	<path class="st115" d="M161.6,40.21c-1.65-0.12-2.55-1.31-3.48-2.45c2.18-0.56,1.6-2.32,1.49-3.73c-0.08-1.06-0.63-2.48,0.78-2.59
		c1.45-0.11,1.09,1.3,1.05,2.4C161.35,35.95,161.53,38.08,161.6,40.21z"/>
	<path class="st116" d="M215.28,37.32c-0.8-0.06-1.8,1.64-2.23,0.28c-0.69-2.16-4.04-4.29-0.59-6.84
		C212.61,33.29,216.44,34.23,215.28,37.32z"/>
	<path class="st117" d="M256.22,699.25c0.26-0.03,0.53-0.02,0.79,0.02c-0.89,4.74-3.19,8.54-7.39,11.06
		c-0.32-0.28-0.63-0.56-0.95-0.84c0.41-2.67,3.56-3.45,4.11-6.02C253.75,701.92,253.55,699.41,256.22,699.25z"/>
	<path class="st103" d="M157.28,57.03c1.09,0.14,1.71,0.84,1.57,1.86c-0.48,3.48,1.47,5.65,3.88,7.62c0.01,0.54,0.02,1.08,0.03,1.62
		c-1.45,0.61-1.15-2.85-3.01-1.3C158.03,63.79,157.18,60.53,157.28,57.03z"/>
	<path class="st118" d="M185.98,598.23c-0.21,0-0.42-0.01-0.62-0.03c-2.63-3.52-5.17-7.11-6.8-11.24
		C182.19,589.95,184.79,593.62,185.98,598.23z"/>
	<path class="st119" d="M192.5,561.87c0.22-3.06,0.36-6.11-0.44-9.13c-0.46-1.73-0.56-3.4,1.54-4.23c0.04,3.09,0.09,6.19,0.13,9.28
		c-0.74,1.82,0.36,3.94-0.95,5.66C192.69,562.93,192.6,562.4,192.5,561.87z"/>
	<path class="st120" d="M170.22,31.77c-0.16,2.21-2.61,2.21-3.55,3.67c0-2.97-1.74-5.48-2.2-8.33c0.32-0.38,0.64-0.4,0.96,0
		c1.44,1.09,1.86,2.72,2.33,4.34C168.31,33.38,169.35,31.99,170.22,31.77z"/>
	<path class="st121" d="M142.09,713.28c-0.46,0.01-0.93,0.03-1.39,0.04c0.93-5.15,3.76-8.69,8.76-10.39c0,0,0.2,0.06,0.2,0.06
		c0.51,1.06-0.12,1.87-0.84,2.35C145.82,707.35,144.2,710.52,142.09,713.28z"/>
	<path class="st122" d="M147.79,151.68c-0.26-4.67,0.99-9,2.92-13.19C150.34,143.02,149.93,147.54,147.79,151.68z"/>
	<path class="st123" d="M175.97,71.08c0.27-0.11,0.55-0.11,0.81,0.02c-2.56,3.57-6.36,5.13-10.34,6.4c-0.01-0.28,0-0.56,0.02-0.84
		C168.49,72.85,172.06,71.67,175.97,71.08z"/>
	<path class="st31" d="M191.57,44.15c-0.76-0.12-0.73,2.18-1.96,0.65c0.24-3.12,2.56-5,4.19-7.31
		C194.22,40.17,192.31,41.95,191.57,44.15z"/>
	<path class="st124" d="M100.24,171.15c-0.12,0.6-0.23,1.21-0.35,1.81c-0.85-2.51-1.06-5.01,0.11-7.48c0.53-0.6,1.2-1.23,1.93-0.59
		c0.78,0.7,0.51,1.98,0.03,2.53C100.99,168.55,99.8,169.42,100.24,171.15z"/>
	<path class="st125" d="M128.93,300.37c-1.63-4.28-0.32-8.73-0.77-13.07c3,2.15,0.77,5.07,1.05,7.61
		C129.4,296.7,129.04,298.55,128.93,300.37z"/>
	<path class="st126" d="M172,579.41c3.77,1.17,5.34,4.24,6.57,7.61C175.67,585.1,174.22,581.92,172,579.41z"/>
	<path class="st127" d="M168.5,157.43c-1.31-0.37-3.05,0.75-3.9-1.16c2.78-0.63,5.56-1.27,8.34-1.9c0.47,0.05,0.95,0.1,1.42,0.16
		C172.4,155.49,170.45,156.46,168.5,157.43z"/>
	<path class="st128" d="M128.18,276.16c-2.01-4.24-0.42-8.68-0.99-13.4c1.44,1.44,0.5,2.96,1.11,4.13
		C128.26,269.99,128.22,273.08,128.18,276.16z"/>
	<path class="st129" d="M149.57,121.52c-0.35,0.36-0.7,0.72-1.05,1.08c-2.5-1.61-4.01-3.84-4.85-7.46
		C146.5,117.25,146.93,120.4,149.57,121.52z"/>
	<path class="st130" d="M102.02,181.7c-0.03-0.38-0.06-0.77-0.09-1.16c1.65-2.21,0.09-5.72,3-7.41
		C104.45,176.15,105.4,179.66,102.02,181.7z"/>
	<path class="st131" d="M194.24,506.28c0.18-2,0.15-4.09,2.15-5.37c1.93,2.44,0.58,4.37-0.96,6.27
		C195.03,506.88,194.64,506.58,194.24,506.28z"/>
	<path class="st132" d="M238.29,161.53c-3.07-1.23-3.87-3.76-3.94-6.71C235.67,157.06,236.98,159.3,238.29,161.53z"/>
	<path class="st41" d="M135.56,234.83c-1.95-2.57,0.24-4.94,0.37-7.4c0-0.04,0.28-0.1,0.42-0.08c0.14,0.03,0.27,0.15,0.4,0.23
		C136.94,230.09,136.4,232.49,135.56,234.83z"/>
	<path class="st133" d="M165.42,27.11c-0.32,0-0.64,0-0.95,0c-1.44-1.73-2.31-3.69-3.26-6.94
		C164.29,22.51,164.57,24.97,165.42,27.11z"/>
	<path class="st73" d="M240.29,547.63c0.24-3.02,1.4-5.73,2.77-8.37C243.22,542.41,242.36,545.22,240.29,547.63z"/>
	<path class="st119" d="M193.59,546.71c-1-0.61-0.84-1.71-1.12-2.63c0.67-2.22-0.74-4.82,1.22-6.81
		C193.65,540.42,193.62,543.56,193.59,546.71z"/>
	<path class="st134" d="M249.7,718.97c0.34,1.52,0.68,3.04,1.02,4.57c-0.11,0.93-0.01,1.88-0.17,2.8c-0.5,2.82-1.79,3.21-4.22,1.64
		c-3.74-2.41-6.69-6.02-11.25-7.23c-0.34,0.52,0.45,0.85,0.5,1.4c0.35,3.58,1.26,8-2.15,9.85c-2.65,1.44-5.49-2.01-7.89-3.71
		c-3.79-2.68-7.22-5.86-10.13-9.54c-0.57-0.73-1.71-1.34-1.57-2.22c0.79-5.2-3.18-4.94-6.21-5.26c-2.7-0.29-4.03-1.23-3.8-4.01
		c0.13-1.53-0.25-2.48-1.96-3.16c-1.86-0.74-3.3-2.78-3.11-4.67c0.23-2.28,2.47-3.8,3.95-5.54c0.65-0.76,1.43,0,1.74,0.77
		c0.48,1.18,0.25,2.42-0.11,3.96c1.5-2.27-0.26-4.79,1.42-6.67c0.91,0.01,1.82,0.02,2.73,0.04c1.98,1.03,3.35,2.69,4.72,4.41
		c7.11,8.93,15.05,16.46,27.48,16.9C244.57,713.4,247.87,715.2,249.7,718.97z"/>
	<path class="st135" d="M158.09,734c-7.9,2.02-15.73,2.2-23.41-0.99c0.05-1.7,1.13-2.92,2.59-2.67c5.33,0.92,8.97-2.46,13.11-4.67
		c1.18-0.63,2.36-1.37,3.76-1.54c-3.94-0.75-7.89-1.71-11.34,1.62c-0.62,0.6-1.65,1.27-2.47,0.47c-1.08-1.06,0.04-1.95,0.59-2.83
		c1.49-2.4,4.36-3.51,5.65-6.1c4.17-2.06,7.61-5.49,12.32-6.53c4.4-1.74,8.76-3.57,13.22-5.17c5.81-2.07,7.63-0.99,7.96,5.46
		c-3.22,1.28-3.77,3.3-1.65,6.04c1.1,1.41,1.8,2.9,1.22,4.74c-0.28,0.33-0.56,0.67-0.84,1c-5.05,0.49-5.06-4.42-7.14-6.38
		c3.01,7.23,2.52,9.13-3.36,11.78l-0.02,0.01c-3.96-0.58-3.39-5-5.97-7c-0.34,4.62-3.11,8.3-4.35,12.53L158.09,734z"/>
	<path class="st136" d="M205.75,691.93c0.02,2.12,1.01,4.22,0.03,6.35c-0.36,0.78,0.62,2.6-1.45,2.04
		c-1.32-0.35-1.52-1.42-1.03-2.61c0.41-1.02,0.82-2.02,0.21-3.37c-1.78,0.54-2.13,2.43-3.18,3.55c-1.29,1.38,0.55,4.61,2.64,4.8
		c1.96,0.18,2.95,1.34,2.28,3.08c-2.23,5.82,4.43,5.04,4.97,4.76c3.7-1.95,4.93,1.98,5,2.92c0.66,8.52,7.86,11.49,13.26,15.53
		c4.87,3.65,6.36,2.23,6.31-4.4c-0.02-2.07-0.34-3.84-2.26-5.25c3.6,1.42,7.7,0.78,10.13,4.71c1.05,1.7,4.5,1.16,5.4,3.98
		c0.14,0.45,1.35-0.26,1.52-1.13c0.23-1.18-0.15-2.56,1.16-3.35c1.68,2.71,0.67,5.68,0.84,8.53c-6.8,6.21-11.51,6.36-21.12,0.53
		c-3.24-1.97-6.37-4.13-9.54-6.2c-5.93-7.04-13.23-12.56-20.32-18.32c-4.97-4.04-5.43-7.15-1.1-11.58c2.44-2.49,2.46-4.45,0.82-7.34
		c-1.11-1.95-2.97-4.44-0.32-6.81c1.18-0.06,2.3,0.02,2.91,1.28c-1.11,0.78-2.57,1.17-1.51,3.23
		C202.45,688.95,204.17,690.35,205.75,691.93z"/>
	<path class="st137" d="M206.57,656.26c-0.6-0.87-1.2-1.74-1.8-2.61c2.35-3.72,4.23-1.34,5.38,0.78c0.95,1.76,1.47,2.84,3.71,2.06
		c1.85-0.64,3.46,0.86,3.34,2.28c-0.26,3.23,4.19,4.67,2.74,8.14c-0.08,0.2,0.16,0.78,0.31,0.8c6.11,0.83,2.44,3.21,0.59,5.26
		c1.7,2.09,4.71,0.36,6.04,2.22c1.44,2.02,0.84,4.13-1.72,6.27c1.98,0,3.02,0,4.06,0c-1.23,2.5-1.25,3.19-0.16,5.45
		c-1.98,3.91,1.34,6.58,2.31,9.8c1.25,3.84,5.23,4.03,7.96,5.85c1.5,1,3.31,1.65,5.03,2.35c0.4,0.19,0.77,0.43,1.12,0.72
		c0.74,0.89,1.45,1.79,0.48,2.96c-6.68-0.86-12.78-3.47-18.73-6.46c-1.05-0.53-2.46-1.59-2.57-2.54c-0.9-7.63-6.25-13.47-8.12-20.69
		c-0.4-1.54-0.91-3.19-0.32-4.59c1.87-4.41,0.15-7.6-3.19-10.2C210.25,661.96,209.3,658.4,206.57,656.26z"/>
	<path class="st138" d="M249.7,718.97c-3.58-3.26-7.68-4.54-12.62-4.98c-5.05-0.45-9.99-1.91-13.96-6.34
		c-2.25-2.51-5.75-4.32-8.13-7.07c-2.36-2.72-4.89-5.33-6.5-8.63c6.48-2.8,11.17-0.75,13.32,5.41c1.5,4.3,4.65,7.22,9.08,8.59
		c5.58,1.73,11.06,3.62,15.73,7.4c1.62,1.32,2.44,3.13,3.8,4.56C250.17,718.27,249.94,718.62,249.7,718.97z"/>
	<path class="st139" d="M176.65,697.31c3.02-1.78,6.14-2.49,9.47-0.86c5.75,8.17,5.54,13.18-0.84,19.84
		c-1.96-0.19-3.18-1.42-4.21-2.94c0.48-2.54,2.61-4.9-0.19-7.66c-1.32-1.3,0.71-3.29,1-5.45c-6.52,2.71-11.84,7.84-18.97,8.81
		c-2.1-0.14-3.69,1.12-5.39,2.02c-1.33,0.7-2.55,1.72-4.13,0.63c1.99-6.11,7.06-8.35,12.62-9.63
		C169.91,701.15,173.46,699.71,176.65,697.31z"/>
	<path class="st140" d="M191.68,711.42c1.66,0.09,2.01,1.17,1.97,2.57c-0.05,1.63,0.18,2.09,1.68,0.73c1.56-1.42,1.1,0.71,1.31,1.12
		c1.55,2.92,2.38,6.18,5.11,8.48c3.72,3.13,2.72,8.48-1.78,10.45c-0.85,0.37-1.72,0.7-2.59,1.05c-1.85-2.37,0.55-4.27,0.89-6.34
		c0.7-4.32-1.12-8.03-6.53-10.44c-3.02-1.35-4.26,1.6-5.78,3.24c-1.55,1.67-3.81,2.74-4.56,5.13c-1.22-0.87-1.91-1.41-0.59-3.18
		c2.4-3.22,5.53-5.67,8.12-8.66C190.05,714.27,191.02,712.98,191.68,711.42z"/>
	<path class="st141" d="M245.95,708.58c-0.32-0.91-0.63-1.81-0.95-2.72c0.23-1.72,0.18-3.38-0.71-4.95
		c-2.95-5.24-1.94-11.19-2.9-16.79c-0.11-0.62,0.36-1.16,0.79-1.62c2.48-2.32,4.8-2.46,6.87,0.53c0.83,1.2,1.81,2.14,3.37,2.19
		c-0.02,0.35-0.03,0.7-0.05,1.05c-0.4,1.51-1.66,2.05-2.85,2.82c-2.18,1.4-2.02,4.69,0.31,6.08c1.3,0.78,1.15,1.84,0.83,2.78
		c-0.99,2.95,0.32,4.71,2.75,6.02c-0.47,2.79-2.96,3.84-4.73,5.51C247.77,709.19,246.86,708.88,245.95,708.58z"/>
	<path class="st142" d="M157.96,733.78c0.2-3.02-0.54-6.27,2.61-8.45c1.51-1.05,0.33-2.58,0.15-3.87c-0.12-0.86-0.96-1.83,0.37-2.31
		c1.13-0.41,1.98-0.06,2.59,1.19c1.35,2.74,2.32,5.71,4.59,7.92C164.84,730.1,161.4,731.94,157.96,733.78z"/>
	<path class="st143" d="M181.47,713.32c1.77,0.35,2.65,1.84,3.81,2.98c-1.78,1.95-3.33,4.13-5.64,5.54
		c-0.62-2.02-1.89-3.65-3.07-5.37c-1.09-1.59-1.3-3.65-0.26-5.27c0.92-1.43,2.17-0.05,3.23,0.39
		C180.45,711.87,180.55,713.06,181.47,713.32z"/>
	<path class="st143" d="M168.3,728.24c5.07-2.97,4.11-7.49,2.6-12.25c4.19,1.05,4.04,6.21,7.91,6.84
		C175.75,725.52,172.64,728.08,168.3,728.24z"/>
	<path class="st144" d="M176.65,697.31c0.37,0.21,0.75,0.42,1.12,0.63c-4.14,0.93-6.71,4.88-11.4,5.24
		c-5.46,0.42-9.24,4.47-12.81,8.36c0.06,1.37-0.49,2.11-1.96,1.9c-2.29-0.48-4.65-2.39-6.44,1.29c-0.57,1.18-2.38-0.12-3.06-1.46
		c-0.06-5.34,5.06-6.85,7.58-10.29c3.44-1.1,6.12-3.84,10.08-4.03c2.58-0.13,5.04-0.81,7.66,0.08
		C170.73,700.17,173.72,698.7,176.65,697.31z"/>
	<path class="st145" d="M175.73,650.71c3.1-0.58,5.28-0.4,3.37,3.69c-1.69,3.63,2.05,0.58,2.33,1.83
		c-0.2,5.05-1.12,10.08-0.39,15.15c0.17,2.57-0.66,4.86-2.56,6.54c-1.31,1.16-0.96,1.91,0.04,2.84c-4.45-0.29-8.11,1.97-11.92,3.72
		c-0.74-0.12-1.47-0.24-2.75-0.45c5.96-4.66,13.25-8.21,10.1-17.48c0.8-3.43,1.71-6.83,0.43-10.38c-0.42-1.16-0.1-2.44,0.67-3.51
		C175.74,652.19,175.84,651.49,175.73,650.71z"/>
	<path class="st146" d="M187.98,681.55c1.15-2.8,0.61-5.77,0.92-8.66c-1.33-2.21-1.04-4.11,1.09-5.66
		c1.29,5.38,0.49,10.75-0.15,16.12c-0.94,3.91-3.3,5.13-7.32,4.8c-4.79-0.39-9.41,1.24-14.02,2.52c-1.56,0.43-3.06,1.67-5.23,0.72
		c6.54-3.05,13.2-4.62,20.01-5.14C186.69,685.99,188.08,684.8,187.98,681.55z"/>
	<path class="st147" d="M149.65,352.92c-0.19-5.47,5.15-6.61,7.79-9.86c0.4-0.5,1.39-0.32,1.62,0.27c0.51,1.32,1.51,3.41,0.98,3.99
		c-1.32,1.47-2.06,4.22-5.1,3.49c-1.26-0.3-1.32-0.04-1.59,2.19c-0.13,1.05-0.14,1.05-3.73-0.12
		C149.62,352.88,149.65,352.92,149.65,352.92z"/>
	<path class="st148" d="M242.18,682.51c1.67,6.44-0.13,13.6,4.13,19.54c1.1,1.53,0.36,2.97-1.31,3.82c0,0-0.01-0.01-0.01-0.01
		c-2.48-2.57-7.6-2.43-7.68-7.5c0-0.04-0.23,0.4-0.41,0.57c-2,1.81-2.56,0.13-3.22-1.33c-0.83-2.88-2.94-5.32-2.78-8.55
		c0.09-1.8-2-0.94-2.65-1.92c-1.33-2.17-1.07-4.07,0.97-5.67c0.12-0.1,0.33-0.18,0.36-0.29c0.56-3,0.35-6.39,2.82-8.56
		c0.88-0.77,8.32,6.35,8.92,8.32C241.48,681.49,241.89,681.98,242.18,682.51z"/>
	<path class="st149" d="M216.03,650.83c2.84-2.19,6.06-2.5,9.46-1.9c4.88-0.89,8.35,0.85,10.24,5.52c2.15,3.08,4.31,6.16,6.46,9.24
		c-2.59-1.48-5.81-1.88-6.94-5.55c-0.66-2.15-2.77-2.3-4.36-0.39c-2.76,3.32-5.12,2.43-7.71-0.34
		C220.98,655.05,218.43,653.01,216.03,650.83z"/>
	<path class="st10" d="M210.5,647.94c-0.08-3.15,0.63-6.32-0.13-9.46c2.5-3.78,6.24-4.26,10.31-3.88c-7.82,2.54-7.8,2.54-8.03,11.03
		c-0.03,1.06-0.31,2.12-0.48,3.18C211.61,648.52,211.06,648.23,210.5,647.94z"/>
	<path class="st137" d="M198.44,651.37c1.35,0.46,2.19-0.83,3.36-1c1.57,0.33,2.23,1.35,2.15,2.91
		C202.46,651.64,199.9,653.08,198.44,651.37z"/>
	<path class="st150" d="M258.1,653.42c2.44-0.01,4.89-0.03,7.33-0.04c2.56-0.75,5.17-2.39,7.5,0.54c0.16,0.21,0.77-0.23,0.94-0.69
		c0,0-0.08,0-0.08,0c0.79,0.27,2.25-1.18,2.24-0.01c-0.01,2.54,5.09,4.76,0.98,7.2c-3.39,2.01-7.37,3.07-11.18,4.27
		c-1.83,0.58-5.18,1.26-5.86,1.81c-2.27-3.89-5.24-7.18-8.55-10.19c-0.33-1.71,0.28-2.71,2.1-2.63
		C255.07,653.73,256.58,653.47,258.1,653.42z"/>
	<path class="st151" d="M258.1,653.42c-1.05,1.16-2.24,2.19-3.86,1.32c-1.92-1.03-2.09,0.67-2.81,1.56
		c-3.84-2.15-7.8-3.63-12.15-1.65c-1.32,0.6-2.36-0.35-3.55-0.2c-2.95-2.7-5.92-5.37-10.24-5.52c9.49-7.74,15.87-6.12,28.13,1.35
		C255.17,651.23,256.61,652.37,258.1,653.42z"/>
	<path class="st152" d="M298.16,700.32c2.55,3.2,6.48,4.55,9.47,7.25c4.96,4.47,5.15,4.73-1.01,8.48c-1.02-1.14-1.74-2.16-3.78-2.26
		c-4.77-0.22-7.44-1.9-11.84-5.88c-5.87-3.94-11.3-8.42-16.69-12.98c-1.88-1.59-4.57-1.79-7.22-1.38c0.83,0.91,2.05,0.61,2.92,1.16
		c2.61,1.68,2.07,2.79-0.63,3.5c-2.81-1.43-5.71-2.32-8.93-1.84c-1.37,0.2-2.91,0.37-3.08-1.75c-0.14-1.73,0.85-2.49,2.35-2.95
		c3.27-1,6.58-1.7,10-1.83C280.63,689.47,289.97,693.32,298.16,700.32z"/>
	<path class="st153" d="M269.38,698.23c3.11-2.7,0.02-2.19-1.35-3.01c-1.29-0.77-4,0.84-3.77-1.34c0.2-1.92,3.16-1.88,4.67-1.76
		c2.36,0.19,5.03,0.47,6.96,2.22c4.54,4.12,8.51,8.94,14.61,10.99c0.93,0.31,1.19,1.37,1.3,2.33c-2.43,1.84-5.45,0.43-8.05,1.46
		c-0.54,0.22-1.58-0.23-1.56-0.72c0.12-5.22-4.86-3.56-7.19-5.44c-0.51-0.3-1.02-0.6-1.52-0.9
		C272.11,700.79,270.74,699.51,269.38,698.23z"/>
	<path class="st154" d="M253.41,703.98c-4.67-0.15-5-0.9-3.44-8.26c-1.52,0.55-2.86,1.03-4.74,1.71c0.49-2.71,3.51-4.65,0.95-7.27
		c-0.51-0.53,0.83-1.99,2.04-1.98c1.73,0,2.84-1.11,4.15-1.9c2.19,4.06,3.96,8.24,3.85,12.98
		C255.28,700.83,254.35,702.41,253.41,703.98z"/>
	<path class="st155" d="M80.38,702.05c-3.13-2.62-4.98-0.34-6.68,1.87c-1.9,2.47-3.57,2.86-5.25-0.14c1.32-1.28,0.66-2.93,0.8-4.42
		c0.35-3.93,1.35-7.37,6.03-7.82c1.25-0.12,1.99-1.08,1.81-1.66c-2.02-6.36,4.22-7.41,7.02-10.14c3.02-2.95,6.8-5.73,11.33-6.64
		c-2.06,4.54-6.43,6.87-9.78,10.16c-1.65,1.62-2.68,3.3-2.45,5.64c-0.85,3.72-4.44,4.49-6.41,5.69c0.02-0.03,0.87-0.29,1.73-0.52
		c3.57-0.83,6.07-3.58,9.14-5.3c2.27-1.27,4.25-3.05,6.81-3.9c1.54-0.51,2.46-1.71,3.16-3.22c1.01-2.18,2.64-3.75,5.22-3.95
		c1.07,3.42-1.1,5.65-3.39,7.18c-2.32,1.55-4.22,3.56-6.49,5.05c-3.05,2.01-5.37,4.48-6.73,7.8c-0.96,2.34-3.14,1.95-4.88,2.59
		C80.89,700.81,81.2,701.75,80.38,702.05z"/>
	<path class="st156" d="M80.38,702.05c0.16-0.67,0.11-1.46,0.98-1.73c4.51,2.95,6.42-1.58,8.51-3.6c2.37-2.31,4.49-3.54,7.47-2.42
		c3.27,1.22,3.92-2.44,6.2-2.97c3.41-0.78,3.57-2.62,1.78-5.3c-0.8-1.2,0.25-1.71,1.29-1.48c0.91,0.2,1.5,1.7,2.73,0.63
		c-0.36,4.52-3.07,6.55-6.79,9.19c-6.45,4.58-13.45,7.81-20.3,11.45C81.63,704.56,81,703.3,80.38,702.05z"/>
	<path class="st157" d="M102.85,677.7c-5.42,8.38-15.34,11.06-22.23,17.58c-0.59,0.56-1.47,0.15-1.97-0.61
		c3.4-4.85,8.59-7.34,13.44-10.28c0.81-0.79,1.62-1.58,2.43-2.38c2.73-3.65,4.43-8.28,9.36-9.83
		C105.4,674.37,101.94,675.62,102.85,677.7z"/>
	<path class="st158" d="M92.09,684.39c-3.97,4.1-9.6,6.01-13.44,10.28c-1.4,1.07-2.8,2.14-4.76,3.63c1.2-5.77,6.97-5.83,9.31-9.39
		c2.2-0.81,4.06-2,5.09-4.26C89.36,682.34,90.74,683.28,92.09,684.39z"/>
	<path class="st159" d="M118.82,666.44c2-0.72,3.96-1.73,6.03-2.05c1.17-0.18,2.79-0.11,3.81,0.99c0.17,0.19-0.03,0.92-0.26,1.25
		c-0.86,1.2-2.07,2.14-3.53,1.47c-1.9-0.87-3.58-0.48-5.34,0.19C119.3,667.67,119.06,667.06,118.82,666.44z"/>
	<path class="st160" d="M112.15,676.71c0.45,3-0.87,5.41-2.56,7.69c-0.25-3.12,0.49-6.48-2.09-9.19
		C109.05,675.72,110.6,676.21,112.15,676.71z"/>
	<path class="st161" d="M103.88,672.18c-4.23,2.21-5.84,6.93-9.36,9.83c0.96-4.76,4.55-7.54,7.91-10.46
		C102.91,671.12,103.58,671.52,103.88,672.18z"/>
	<path class="st162" d="M182.76,656.36c-2.52,5.43-1.22,7.53,4.55,8.7c2.63,0.54,2.76-0.96,3.38-2.46c0.49,1.65,0.15,3.17-0.7,4.62
		c-0.36,1.88-0.72,3.77-1.08,5.66c-1.91-0.75-2.35-2.64-3.26-4.16c-0.92-1.52-2.17-2.73-4.05-2.26c-2.02,0.51-0.55,2.31-0.95,3.46
		c-0.24,0.7-0.24,1.49-0.36,2.24c-1.28-5.43-1.52-10.79,1.14-15.93C181.87,656.28,182.31,656.32,182.76,656.36z"/>
	<path class="st10" d="M199.2,639.36c1.03,0.73,1.85,2.31,3.41,0.64c0.9-0.96,2.08-1.35,3.38-0.62c-1.52,2.67-4.58,3.03-6.83,4.6
		C199.17,642.44,199.19,640.9,199.2,639.36z"/>
	<path class="st16" d="M273.87,653.23c-0.05,0.74-0.51,2.13-0.94,1.61c-2.2-2.66-4.98-1.2-7.5-1.46c1.99-1.31,4.09-2.39,6.45-2.91
		C272.56,651.38,271.79,653.34,273.87,653.23z"/>
	<path class="st140" d="M196.32,737.61c-1.96-0.29-3.58,1.48-5.59,0.94c0.8-0.67,2.02-1.19,2.34-2.04c1.31-3.54,2.26-1.28,3.31,0.08
		C196.36,736.93,196.34,737.27,196.32,737.61z"/>
	<path class="st163" d="M287.04,657.22c4.65,1.53,9.22,3.27,14.05,4.25c3.56,0.73,3.5,2.59,1.03,4.8c-1.88,0.45-3.81-1.05-5.67,0.15
		c-2.11-1.03-0.59-2.45-0.27-3.8C291.36,665.15,288.16,663.21,287.04,657.22z"/>
	<path class="st164" d="M175.03,652.67c0.04,4.32,2.54,8.58,0.25,12.98c-0.34,0.65-0.75,0.83-1.35,0.91
		c-2.06,0.89-2.04,3.05-2.54,4.69c-1.45,4.79-4.65,6.79-9.55,6.54c-7.53-0.39-15.22-2.14-22.51,1.46c-1.33,0.66-2.32-0.72-3.56-0.55
		c0.21-0.95-1.14-1.84-0.1-2.82c2.48-0.19,4.23-1.88,6.15-3.13c4.43-2.87,10-2.14,14.51-5.2c3.36-2.28,6.62-4.36,9.3-7.51
		C168.2,656.99,171.46,654.57,175.03,652.67z"/>
	<path class="st165" d="M115.97,650.52c0.76,2.49-2.05,2.29-2.76,3.66c-0.72,0.04-1.45,0.08-3.5,0.19
		C112.5,652.66,114.23,651.59,115.97,650.52z"/>
	<path class="st166" d="M176.61,33.72c2.2,0.5,2.2,0.5,2.08,4.34c1.41,0.11,0.89-2.64,2.58-1.84c1.15,0.54,1.11,1.75,1.12,2.83
		c0.01,1.07,0,2.15-0.1,3.22c-0.27,2.92-0.25,2.85-3.09,1.43c-0.81-0.41-1.34,0.42-1.48,1.27c-3.53,0.56-4.76-0.4-3.88-3.06
		C174.74,39.16,175.68,36.44,176.61,33.72z"/>
	<path class="st167" d="M174.91,60.11c-1.72,1.74-2.53,4.35-5.08,5.29c-3.13-0.04-1.6-2.1-1.07-3.11c1.44-2.77,3.77-4.74,6.54-6.15
		C177,57.72,172.56,58.52,174.91,60.11z"/>
	<path class="st168" d="M183.38,28.06c-0.39,1.21-0.79,2.41-1.18,3.62c-1.45,0.21-2.69,1.57-4.74,0.64
		C179.72,31.04,180.48,28.21,183.38,28.06z"/>
	<path class="st169" d="M146.59,717.84c1.31,2.38-1.32,2.15-2.13,2.96c-1.4,1.41-3.2,2.42-4.33,4.47
		c5.22-4.15,10.24-4.56,15.91-1.13c-4.64,2.7-9.54,4.2-13.28,7.65c-0.93,0.86-1.53,0.53-2.41,0c-2.24-1.38-4.11-0.67-5.68,1.23
		c-4.36-2.81-5.76-7.03-4.34-11.68c1.21-3.98,4.45-6.19,8.9-5.95c-0.84,2.2-3.64,2.42-4.58,4.5c-0.63,1.39-2.74,2.5-0.76,4.41
		c2.16,2.07,2.34,0.4,2.57-1.28c4.25,1.98,4.82-3.07,7.57-3.97C144.67,718.17,145.23,717.15,146.59,717.84z"/>
	<path class="st170" d="M146.59,717.84c-0.85,0.4-1.7,0.8-2.55,1.19c1.15-3.72,5.33-3.33,7.56-5.58c0.65-0.63,1.3-1.26,1.96-1.9
		c2.38,0.16,3.82-1.68,5.62-2.7c1.2-0.68,2.25-1.76,3.53-0.22c-0.8,1.53-2.09,2.4-3.75,2.76
		C154.84,713.54,150.71,715.69,146.59,717.84z"/>
	<path class="st171" d="M246.47,528.32c-2.03-2.14-0.32-4.08-0.43-5.96c-0.08-1.28,0.39-1.13,1.28-0.64
		c0.57,0.32,1.65-0.02,1.17,1.25C247.84,524.68,247.2,526.39,246.47,528.32z"/>
	<path class="st172" d="M274.99,702.96c3.83-1.67,6.11,2.79,9.52,2.15c0.9,2.28-3.13,0.47-1.82,2.67c0.87,1.45,2,0.19,2.78-0.24
		c2.19-1.22,4.21,0.85,6.31,0.12c0.97,1.59,2.59,1,4,1.26c2.62,0.49,1.22,1.76-0.06,3.44c4.15-1.56,7.39,1.92,11.21,0.09
		c-0.06,1.43-1.15,2.46-0.31,3.61c-1.5,0.47-2.93,1.3-4.6,0.91c-4.97-1.58-10.47-1.37-15.01-4.43
		C282.72,709.71,278.57,706.7,274.99,702.96z"/>
	<path class="st173" d="M158.96,711.39c0.75-1.6,2.43-1.94,3.75-2.76c5.2-1.92,10.44-3.75,14.37-8c2.32-2.5,5-1.38,7.9-0.52
		c-2.17,2.36-6.14,4.39-1.05,7.71c1.02,0.67,2.21,3.5-1.29,3.77c-0.96,0.07-1.1,0.93-1.17,1.73c-1.99,0.93-1.6-0.8-1.92-1.73
		c-1.11-6.48-1.78-6.64-7.57-4.52c-4.08,1.5-8.34,2.46-11.98,5.01C159.88,712.17,159.32,711.64,158.96,711.39z"/>
	<path class="st4" d="M228.25,687.12c2.73-1.1,4.48-1.17,3.75,2.77c-0.53,2.87,2.83,4.64,2.7,7.55c-1.55,1.17-3.07,0.81-4.57-0.11
		c0.04-1.27-0.2-2.44-1.13-3.38C226.93,691.86,226.85,689.57,228.25,687.12z"/>
	<path class="st141" d="M230.12,697.32c1.52,0.04,3.04,0.07,4.57,0.11c1.39,1.15,1.39,1.15,3.72-2.08c-1.92,6.86,5,6.68,6.58,10.5
		C239.57,703.82,233.59,702.76,230.12,697.32z"/>
	<path class="st174" d="M140.78,675.97c12.23-5.72,26.01-7.16,32-20.71c2.31,2.68,0.37,4.37-0.31,5.57
		c-2.64,4.62-5.02,9.88-10.5,11.7c-3.11,1.03-6.69,0.62-10.04,0.96c-2.46,0.25-4.87,0.87-6.9,2.34
		C144.06,676.54,143.21,676.95,140.78,675.97z"/>
</g>
</svg>
