<svg xmlns="http://www.w3.org/2000/svg" version="1.0" viewBox="0 0 331.54 271.143"><defs><clipPath clipPathUnits="userSpaceOnUse" id="a"><path d="M7.835 4.477h331.16v271.356H7.835z"/></clipPath></defs><path clip-path="url(#a)" d="M263.32 228.442s3.518 10.673 11.913 17.529c8.835 7.016 15.41 14.87 51.829 15.71 13.012.28 10.214 0 10.214 0s2.378-3.777-6.716-4.197c-9.115-.28-20.728.14-31.521-5.057-11.753-5.597-19.329-6.876-30.382-38.437l-5.337 14.452z" fill="#321b0f" fill-rule="evenodd" fill-opacity="1" stroke="none"/><path clip-path="url(#a)" d="M263.36 228.482s3.518 10.673 11.913 17.529c8.835 7.016 15.41 14.87 51.829 15.71 13.012.28 10.214 0 10.214 0s2.378-3.777-6.716-4.197c-9.115-.28-20.728.14-31.521-5.057-11.753-5.597-19.329-6.876-30.382-38.437l-5.337 14.452z" fill="none" stroke="#343434" stroke-width="1.1992731px" stroke-linecap="round" stroke-linejoin="miter" stroke-miterlimit="8" stroke-dasharray="none" stroke-opacity="1"/><path clip-path="url(#a)" d="M9.354 48.35s37.418-15.27 37.138-20.467c-.28-5.197.7-6.316 4.917-9.954 4.337-3.498 9.514-9.254 24.525-11.213 14.851-2.119 23.406-2.119 31.82 6.716 8.396 8.835 14.432 14.73 20.588 23.845 6.037 8.975 9.954 16.27 15.151 21.887 5.177 5.597 3.778 7.835 8.975 14.291 5.176 6.317 5.037 11.633 12.752 18.09 7.695 6.316 18.069 15.15 23.965 21.886 5.877 6.716 56.346 46.832 65.32 63.662 8.955 16.81 19.05 33.22 13.453 47.53-5.617 14.152-6.456 15.272-2.659 20.189 3.778 4.777 10.494 17.949-4.497 17.949s-43.734 6.736-51.15.7c-7.574-6.037-6.035-9.675-6.035-9.675s-6.017-1.959-8.975-2.238c-2.938-.42-33.64 1.119-38.816 1.119-5.337 0-8.275-1.68-8.275-4.917.14-6.996 2.238-8.275 25.364-10.794 0 0-10.094-11.213-15.69-14.99-5.617-3.798-13.452-12.353-17.53-8.555-4.057 3.637-7.415 17.529-10.493 24.665-2.959 7.015-4.498 16.83-4.078 21.607.42 4.897-2.238 13.451-8.275 13.451-5.876 0-22.986 2.659-23.825-.28-1.68-5.736 4.357-9.953 7.295-14.43 3.078-4.498 19.768-46.992 15.83-56.666-.699-1.82-8.254-7.856-8.254-7.856s-.28 9.395-1.84 14.592c-1.538 5.196-6.295 17.949-6.715 23.565-.42 5.597-1.54 8.555-3.358 7.136-1.84-1.539-.7 10.394-3.798 11.233-2.938.7-1.399 10.794-8.115 10.794-6.736 0-21.727.7-24.405-.7-2.519-1.539 0-7.156 4.217-9.394 4.058-2.259 19.329-16.41 21.307-28.743 1.82-12.352 8.115-30.721 5.177-43.473-2.938-12.633-7.855-23.146-10.094-31.002-2.238-7.855 3.358-48.93.42-56.505-3.078-7.436.28-25.805-13.452-19.349-13.871 6.317-16.11 4.757-21.027 2.239-4.757-2.658-13.452 3.938-25.365-6.736C4.437 52.57 9.354 48.351 9.354 48.351z" fill="#f4efe9" fill-rule="evenodd" fill-opacity="1" stroke="none"/><path d="M148.93 243.592c-.56 1.12-.7 2.519-.7 4.198 0 3.218 2.938 4.897 8.275 4.897 5.177 0 35.878-1.54 38.817-1.12 2.958.42 8.974 2.24 8.974 2.24s-1.539 3.777 6.037 9.673c7.415 6.017 36.158-.7 51.169-.7 9.374 0 10.213-5.196 8.534-10.233-.98 2.099-2.658 6.456-7.555 6.456-15.011 0-44.873 8.815-52.288 2.938-7.576-6.036-5.757-10.793-5.757-10.793s-11.353-2.799-14.431-3.218c-2.938-.42-29.862 1.12-35.039 1.12-3.658 0-4.777-3.919-6.036-5.458zM94.543 265.86c-2.099 2.938-3.498 5.457-1.96 6.296 2.52 1.4 19.05 1.12 24.946 1.12 6.036 0 8.695-8.675 8.275-13.432-.42-4.918 1.12-14.572 4.057-21.727 3.078-7.136 6.456-20.868 10.514-24.645 4.077-3.798 11.913 4.897 17.53 8.534 2.798 1.96 6.855 5.617 10.093 8.975 1.68-.28 5.317 7.555 7.416 7.276 0 0-11.913-19.189-17.51-22.966-5.616-3.638-14.171-5.617-18.229-1.82-4.057 3.638-6.736 10.774-9.814 17.93-2.938 7.135-7.575 16.67-7.155 21.567.44 4.757-2.239 17.09-8.255 17.09-5.057 0-14.731-3.359-19.908-4.198zm-33.36-11.773c-1.959 2.518-2.539 5.477-.84 6.456 2.659 1.54 17.65.7 24.386.7 6.736 0 5.177-10.094 8.135-10.794 3.078-.7 1.959-12.752 3.777-11.213 1.82 1.54 2.939-1.54 3.358-7.136.42-5.596 5.197-18.209 6.736-23.545 1.54-5.177 1.82-14.552 1.82-14.552s7.575 6.017 8.274 7.836c.14.28.14.56.28.84.42-3.219.42-5.877-.28-7.556-.7-1.84-8.974-1.12-8.974-1.12s.42 2.659-1.12 7.836c-1.539 5.316-9.114 18.209-9.394 23.805-.42 5.617-1.12 8.695-2.938 7.296-1.82-1.54-.56 9.954-3.518 10.653-3.078.84-1.54 15.131-8.255 15.131-6.316 0-17.53-3.518-21.447-4.637z" fill="#ddcebf" fill-rule="evenodd" fill-opacity="1" stroke="none"/><path d="M18.459 44.483c4.057 0 14.7-4.627 12.182 3.223-.979 3.228-2.803 3.788-1.679 7.57 1.12 3.084 2.659 5.892 3.638 8.975.7 2.244 1.82 5.327-.98 6.586-1.958.84-5.041-.42-6.58-1.4-1.82-1.403-3.363-3.507-5.042-4.906-1.959-1.684-4.063-2.524-5.462-4.767-1.399-2.104-2.798-4.068-2.938-6.306-.285-3.228 1.959-4.068 3.358-6.312z" fill="#e6d5c2" fill-rule="evenodd" fill-opacity="1" stroke="none"/><path d="M41.305 32.96c3.088-2.109 5.187-3.788 5.187-5.057-.28-5.187.7-6.316 4.897-9.964 4.347-3.508 9.524-9.264 24.515-11.233 14.841-2.109 23.386-2.109 31.79 6.736 2.1 2.248 4.058 4.217 5.877 6.186 0 0-5.317 13.892-6.016 18.389-.84 4.487-22.127 32.14-30.672 29.192-8.544-2.948-7.145-2.948-15.69-4.067-8.535-1.12-16.38 2.948-16.8-6.456-.42-9.265-13.172-16.29-3.088-23.726z" fill="#a46825" fill-rule="evenodd" fill-opacity="1" stroke="none"/><path d="M164.3 90.705c.42 0 .56.58.98.86 7.695 6.296 18.069 15.15 23.965 21.886 5.897 6.716 56.366 46.852 65.34 63.682 8.955 16.83 19.05 33.26 13.453 47.55-1.82 4.498-3.079 7.576-3.918 9.975 0 0-2.119 5.317-5.477.42-3.358-4.778-2.658-12.633-11.913-10.394-9.394 2.258-15.71-6.017-16.13-12.752-.42-6.736 8.275-15.71-9.674-7.856-17.949 7.856-51.309 18.37-40.096 6.736 11.214-11.653 8.695-11.933-.28-15.01-8.974-2.959-27.763-14.172-23.965-23.167 3.778-8.974-8.275-2.238-7.156-15.01 1.12-12.613 1.54-21.308-8.554-22.727-10.094-1.539-6.297-6.436-5.597-13.452.7-7.155-12.352-13.891-.42-16.57 12.053-2.518 18.49-13.871 29.442-14.171z" fill="#321b0f" fill-rule="evenodd" fill-opacity="1" stroke="none"/><path d="M114.64 20.907c5.057 5.327 9.275 10.094 13.622 16.4 6.037 8.965 9.964 16.25 15.161 21.847 5.197 5.607 3.788 7.845 8.985 14.291 3.088 3.648 4.357 7.146 6.456 10.644 0 0 .28 9.254-6.456 7.286-6.736-1.82-9.824 2.668-12.353 5.606-2.668 3.078-4.917 1.12-8.705-2.238-3.647-3.368-8.145-5.607-13.761-4.488-5.607 1.12-17.69-12.322-15.021-21.996 2.668-9.665 7.026-40.626 12.073-47.352z" fill="#1e1009" fill-rule="evenodd" fill-opacity="1" stroke="none"/><path d="M108.015 193.803c-4.058-.84-7.416-5.917-10.504-8.455-3.918-3.238-6.856-5.777-8.125-10.574M116.6 202.517c.519-4.487.13-9.114.26-13.741.259-3.368.509-6.736.389-10.104-.13-3.928-1.56-7.856-1.43-11.653M139.675 213.07c4.807-2.797 6.496-11.912 7.636-16.969a93.153 93.153 0 0 1 4.377-13.462c1.41-3.368 1.829-7.855 3.098-10.663M203.497 253.446c4.337-13.172 24.525-7.295 35.158-7.435-4.477-1.819-8.814-3.358-13.451-4.477-4.338-.98-8.675-1.4-12.473-4.078-7.415-5.457-9.814-15.29-1.4-21.187" fill="none" stroke="#343434" stroke-width="1.1992731px" stroke-linecap="round" stroke-linejoin="miter" stroke-miterlimit="8" stroke-dasharray="none" stroke-opacity="1"/><path d="M237.696 245.851c2.259 1.2 7.875 1.599 9.834 1.48M172.615 236.417c1.42 2.378 4.937 3.358 7.316 4.197 3.238 1.12 4.637.56 6.336 3.338 2.239 4.058 6.736 7.416 11.373 7.815" fill="none" stroke="#343434" stroke-width="1.1992731px" stroke-linecap="round" stroke-linejoin="miter" stroke-miterlimit="8" stroke-dasharray="none" stroke-opacity="1"/><path clip-path="url(#a)" d="M16.33 45.452s-6.296 2.654-6.996 3.069c-.84.42-1.539 3.907 2.379 8.924 0 0 8.395-6.83 7.415-7.805-.979-.98-2.798-4.188-2.798-4.188z" fill="#000" fill-rule="evenodd" fill-opacity="1" stroke="none"/><path d="M43.614 73.445c1.119.41 2.098-.41 3.078-.69 1.679-.679 3.358-1.498 5.167-1.908 1.119-.27 2.938-.69 3.917.14 1.11.68.97 2.049-.14 2.588-1.819.82-5.177-.27-6.985-.41-1.68-.13-2.799 0-4.198.41z" fill="#321b0f" fill-rule="evenodd" fill-opacity="1" stroke="none"/><path d="M43.614 73.445c1.119.41 2.098-.41 3.078-.69 1.679-.679 3.358-1.498 5.167-1.908 1.119-.27 2.938-.69 3.917.14 1.11.68.97 2.049-.14 2.588-1.819.82-5.177-.27-6.985-.41-1.68-.13-2.799 0-4.198.41" fill="none" stroke="#343434" stroke-width=".63961238px" stroke-linecap="round" stroke-linejoin="miter" stroke-miterlimit="8" stroke-dasharray="none" stroke-opacity="1"/><path clip-path="url(#a)" d="M9.854 48.45S47.151 33.3 46.872 28.104c-.14-5.197.72-6.316 5.057-9.974 4.217-3.638 9.394-9.254 24.405-11.353 14.87-1.979 23.565-1.979 31.84 6.876 8.415 8.834 14.572 14.73 20.608 23.705 6.176 9.135 9.954 16.29 15.15 22.047 5.178 5.597 3.918 7.855 9.115 14.171 5.197 6.317 4.917 11.773 12.613 18.09 7.715 6.316 18.109 15.17 23.985 22.046 5.896 6.736 56.386 46.852 65.36 63.701 8.975 16.83 19.069 33.26 13.472 47.432-5.616 14.311-6.316 15.43-2.678 20.207 3.798 4.918 10.514 17.97-4.477 17.97-14.871 0-43.754 6.736-51.19.84-7.435-6.037-6.036-9.835-6.036-9.835s-5.896-1.819-8.974-2.239c-2.938-.28-33.66 1.12-38.857 1.12-5.177 0-8.275-1.68-8.275-4.777.14-7.016 2.259-8.275 25.525-10.934 0 0-10.094-11.233-15.69-14.87-5.617-3.798-13.472-12.353-17.69-8.715-4.057 3.797-7.415 17.689-10.374 24.705-3.078 7.155-4.477 16.83-4.197 21.746.42 4.917-2.259 13.472-8.135 13.472-6.037 0-24.965 1.82-25.105-1.12-.42-5.476 2.099-8.134 7.156-13.051 3.777-3.778 21.027-47.711 17.11-57.245-.7-1.98-8.136-7.876-8.136-7.876s-.42 9.275-1.979 14.611c-1.399 5.177-6.296 17.95-6.715 23.566-.28 5.617-1.42 8.555-3.378 7.016-1.82-1.4-.7 10.534-3.638 11.233-3.098.84-1.54 10.933-8.275 10.933-6.736 0-21.747.72-24.265-.839-2.659-1.4 0-7.016 4.057-9.254 4.078-2.24 19.508-16.57 21.327-28.903 1.819-12.352 8.275-30.601 5.197-43.374-2.958-12.772-7.855-23.146-10.114-31-2.239-7.856 3.378-49.131.42-56.567-2.938-7.435.44-25.824-13.452-19.508-13.892 6.456-16.13 4.917-20.907 2.259-4.897-2.539-13.592 4.057-25.525-6.736C4.797 52.808 9.854 48.451 9.854 48.451" fill="none" stroke="#343434" stroke-width="1.1992731px" stroke-linecap="round" stroke-linejoin="miter" stroke-miterlimit="8" stroke-dasharray="none" stroke-opacity="1"/><path d="M88.846 17.56s12.603 7.285 16.24 7.285c3.638 0 9.944 7.565 10.364 14.581.56 6.866 6.996 18.359-.14 25.645-7.285 7.145-37.807 33.07-40.745 25.924-2.808-7.286-.7-38.397 1.539-49.61 2.378-11.073 8.115-26.634 12.742-23.826z" fill="#9f5919" fill-rule="evenodd" fill-opacity="1" stroke="none"/><path d="M99.54 23.026c.81.38 1.489.63 2.158.88M93.463 19.988c1.14.74 2.409 1.33 3.678 1.919" fill="none" stroke="#343434" stroke-width="1.1992731px" stroke-linecap="round" stroke-linejoin="miter" stroke-miterlimit="8" stroke-dasharray="none" stroke-opacity="1"/><path d="M103.867 24.605c.42.14.98.28 1.26.28 3.637 0 9.943 7.565 10.363 14.581.56 6.866 6.996 18.359-.14 25.645-7.285 7.145-37.807 33.07-40.745 25.924-2.809-7.286-.7-38.397 1.539-49.61 2.378-11.073 8.115-26.634 12.742-23.826 0 0 1.4.84 3.358 1.82" fill="none" stroke="#343434" stroke-width="1.1992731px" stroke-linecap="round" stroke-linejoin="miter" stroke-miterlimit="8" stroke-dasharray="none" stroke-opacity="1"/><path d="M51.189 25.535c3.938-.71 16.17 4.067 9.564 8.984-1.409.99-2.818 1.69-4.077 2.958-1.27 1.26-1.97 2.379-4.078 2.099-3.238-.28-3.947-4.627-3.798-7.306.14-2.238 1.68-4.917 2.809-6.735z" fill="#321b0f" fill-rule="evenodd" fill-opacity="1" stroke="none"/><path d="M51.589 26.744S49.21 31.49 48.93 32.33c-.28.83 1.54 5.437 3.498 5.717 1.959.13 7.416-4.188 8.535-5.447 1.12-1.11-6.436-5.856-9.374-5.856z" fill="#000" fill-rule="evenodd" fill-opacity="1" stroke="none"/><path d="M58.814 30.262c.14.14.43.28.57.42.28.14.43.41.57.55.28.279.85.689.71 1.108-.14.27-.57.41-.85.55-.29.28-.43.55-.72.69-.42.42-.99.97-1.569 1.239.58-.82 1.15-1.789 1.29-2.758.14-.41.14-1.1 0-1.52z" fill="#fff" fill-rule="evenodd" fill-opacity="1" stroke="none"/><path d="M57.885 32.69c-.85 1.27-1.56 2.808-2.978 3.368-.71.28-1.99.84-2.699.42-.71-.56-1.279-1.12-1.709-1.959-.28-.56-.57-1.13-.42-1.689.14-.56.71-1.819 1.28-2.099.28-.15.71 0 .99 0 .709.14 1.278.28 1.988.42.85.14 1.849.56 2.698.84.42.28.85.42 1.13.7z" fill="#130b07" fill-rule="evenodd" fill-opacity="1" stroke="none"/><path d="M50.41 30.941c0-.46.34-.84.759-.84.42 0 .76.38.76.84 0 .47-.34.84-.76.84s-.76-.37-.76-.84zM52.728 30.741c0-.17.18-.32.4-.32.23 0 .4.15.4.32 0 .18-.17.32-.4.32-.22 0-.4-.14-.4-.32z" fill="#fff" fill-rule="evenodd" fill-opacity="1" stroke="none"/><path d="M30.262 47.731c0-.375.324-.68.72-.68.399 0 .719.305.719.68 0 .38-.32.68-.72.68-.395 0-.72-.3-.72-.68zM28.343 52.248c0-.35.29-.64.64-.64a.64.64 0 0 1 0 1.28.64.64 0 0 1-.64-.64zM25.864 49.85c0-.35.325-.64.72-.64.4 0 .72.29.72.64 0 .355-.32.64-.72.64-.395 0-.72-.285-.72-.64zM32.66 52.728c0-.615.47-1.12 1.04-1.12.574 0 1.039.505 1.039 1.12 0 .62-.465 1.12-1.04 1.12-.57 0-1.039-.5-1.039-1.12zM27.623 56.886c0-.395.305-.72.68-.72.38 0 .68.325.68.72 0 .4-.3.72-.68.72-.375 0-.68-.32-.68-.72zM23.466 55.846c0-.35.255-.64.56-.64.31 0 .56.29.56.64 0 .355-.25.64-.56.64-.305 0-.56-.285-.56-.64zM28.823 43.054c0-.44.324-.8.72-.8.399 0 .719.36.719.8 0 .445-.32.8-.72.8-.395 0-.72-.355-.72-.8zM34.42 43.294c0-.13.179-.24.399-.24.225 0 .4.11.4.24 0 .135-.175.24-.4.24-.22 0-.4-.105-.4-.24zM36.098 58.165c0-.3.26-.56.56-.56a.559.559 0 1 1-.56.56zM30.901 58.724c0-.174.18-.32.4-.32.225 0 .4.146.4.32 0 .18-.175.32-.4.32-.22 0-.4-.14-.4-.32zM36.098 49.21c0-.08.11-.16.24-.16.14 0 .24.08.24.16 0 .09-.1.16-.24.16-.13 0-.24-.07-.24-.16zM22.666 47.931c0-.085.11-.16.24-.16.135 0 .24.075.24.16 0 .09-.105.16-.24.16-.13 0-.24-.07-.24-.16zM29.142 62.682c0-.24.255-.44.56-.44.31 0 .56.2.56.44 0 .245-.25.44-.56.44-.305 0-.56-.195-.56-.44zM35.538 61.363c0-.3.24-.56.52-.56.29 0 .52.26.52.56 0 .31-.23.56-.52.56-.28 0-.52-.25-.52-.56z" fill="#ccb9a7" fill-rule="evenodd" fill-opacity="1" stroke="none"/><path d="M20.028 47.491c0-.415.38-.76.84-.76.464 0 .839.345.839.76 0 .42-.375.76-.84.76-.46 0-.84-.34-.84-.76zM19.548 52.168c0-.57.45-1.039 1-1.039.554 0 .999.47.999 1.04 0 .574-.445 1.039-1 1.039-.55 0-.999-.465-.999-1.04zM16.51 55.167c0-.195.18-.36.4-.36.225 0 .4.165.4.36 0 .2-.175.36-.4.36-.22 0-.4-.16-.4-.36zM23.146 45.213c0-.22.215-.4.48-.4s.48.18.48.4c0 .224-.215.4-.48.4s-.48-.176-.48-.4zM20.428 45.852c0-.13.04-.24.08-.24.045 0 .08.11.08.24 0 .135-.035.24-.08.24-.04 0-.08-.105-.08-.24zM21.867 56.886c0-.22.18-.4.4-.4.224 0 .4.18.4.4 0 .224-.176.4-.4.4-.22 0-.4-.176-.4-.4zM24.585 60.084c0-.305.29-.56.64-.56.354 0 .64.255.64.56 0 .31-.286.56-.64.56-.35 0-.64-.25-.64-.56zM30.262 50.89c0-.306.255-.56.56-.56a.559.559 0 1 1-.56.56zM30.901 56.166c0-.175.145-.32.32-.32.18 0 .32.145.32.32 0 .18-.14.32-.32.32a.319.319 0 0 1-.32-.32z" fill="#b29e8d" fill-rule="evenodd" fill-opacity="1" stroke="none"/><path d="M15.93 47.051c.285 1.135 1.86 1.7 1.43 3.119-.43 1.978-2.434 2.403-3.728 3.677 1.149-1.274 2.728-2.403 2.728-4.247.14-.85-.72-1.554-.575-2.404zM54.967 69.218c1.139 0 2.408.42 2.978 1.55.56.989.42 1.838-.14 2.827 1.13-.84 2.678-2.678 1.549-4.237-.99-1.28-3.248-.57-4.387-.28zM46.412 30.581s-12.563 8.535-19.268 11.194c0 0 15.92-6.297 19.268-11.194z" fill="#fff" fill-rule="evenodd" fill-opacity="1" stroke="none"/><path d="M51.869 24.305c1.669 0 3.348-.56 5.156-.14 1.95.28 3.768.98 5.297 2.369 1.4 1.12 2.229 2.928 3.628.98 1.25-1.81 1.25-4.038.42-5.857-1.82-3.628-6.836-3.208-9.904-2.089-1.53.56-5.017 1.39-5.437 3.208-.14.7.28 1.67 1.12 1.53z" fill="#c6833f" fill-rule="evenodd" fill-opacity="1" stroke="none"/><path d="M60.643 36.898c-2.378.72-3.777 3.847-6.156 4.277-2.948.42-4.347-1.709-6.166-3.138-3.508 2.139 2.378 8.535 5.886 7.256 2.798-.85 4.757-5.257 5.877-8.106zM71.147 62.242c-2.339-1.679 1.09-15.67-2.619-15.53-1.509 3.078-1.649 4.617-.819 8.255.69 2.658 1.789 4.897 2.748 7.275z" fill="#8e5720" fill-rule="evenodd" fill-opacity="1" stroke="none"/><path d="M88.646 8.155c2.109.14 4.358.98 6.476 1.4 2.11.559 4.358.699 5.907 2.238 1.13.98 2.388 2.798 2.388 4.337 0 3.498-3.378 1.54-5.207.42-2.388-1.54-5.066-3.358-7.875-4.058-2.538-.56-4.647.42-7.035.7-2.819.28-5.347-.56-8.026-.84-1.549-.14-4.647.28-5.916-.7.43-2.518 8.165-2.378 10.284-2.657 2.808-.28 6.466-1.68 9.144-.84z" fill="#bc7936" fill-rule="evenodd" fill-opacity="1" stroke="none"/><path d="M88.376 20.108c3.368 4.207 9.685 6.736 14.732 7.295 5.056.56 8.274 6.736 9.684 11.224 1.119 3.368.98 6.875 1.539 10.523.28 2.379.84 6.166.42 8.555-.56 3.218-4.628 7.286-7.006 9.115-.99.7-3.648 2.378-4.917 1.539-2.239-1.82 1.129-5.607 1.968-7.006 3.788-6.316 1.68-13.332 1.4-20.198-.14-1.969.84-4.067-.42-5.756-1.12-1.68-4.208-2.379-5.897-3.089-2.658-1.119-5.046-2.378-7.285-3.927-1.55-1.26-3.648-2.099-5.057-3.498-2.099-2.389-2.668-4.347 1.12-4.347z" fill="#b76720" fill-rule="evenodd" fill-opacity="1" stroke="none"/><path d="M98.02 75.154c-4.197 1.68-7.415 5.737-11.203 8.255-1.539.98-7.555 4.897-9.514 3.498-1.549-1.119 0-5.876.14-7.275.28-2.659 0-5.177-.14-7.696-.28-3.917-.42-8.395 1.819-11.613 2.099 2.1 1.4 5.317 2.938 7.696 1.54-.56 2.099-2.379 2.799-3.778.28 3.218-.42 6.296-.14 9.514.98-2.098 1.539-4.897 2.658-6.576-.42 1.68-.7 3.638-.84 5.317.84-1.4 1.69-2.938 2.529-4.337-.14.98-.14 2.098-.28 3.078.84-.7 1.82-1.68 2.938-2.239.28 1.12-.28 2.379-.56 3.638 1.12-.28 2.52-.7 3.639-.98-.56.7-.7 1.54-1.12 2.24 1.68-.42 3.498-.42 5.177-.42-.42.979-1.26 1.818-2.099 2.238z" fill="#8d4b19" fill-rule="evenodd" fill-opacity="1" stroke="none"/><path d="M118.288 273.534c-2.838 2.099-6.236 1.82-9.354.56a2.1 2.1 0 0 1 0-1.4c.98-.579 3.538-.579 4.677-.579 1.56 0 3.258.16 4.537.86zM106.296 273.414c-.84.3-6.077 1.42-6.237-.28 0-2.138 5.257-.42 6.097-.28z" fill="#343434" fill-rule="evenodd" fill-opacity="1" stroke="none"/><path clip-path="url(#a)" d="M108.834 273.554c-.86-3.458 1.14-5.257 2.978-7.755" fill="none" stroke="#343434" stroke-width=".63961238px" stroke-linecap="round" stroke-linejoin="miter" stroke-miterlimit="8" stroke-dasharray="none" stroke-opacity="1"/><path d="M99.86 272.755c-.28-3.078-1-7.975 3.397-8.555" fill="none" stroke="#343434" stroke-width=".63961238px" stroke-linecap="round" stroke-linejoin="miter" stroke-miterlimit="8" stroke-dasharray="none" stroke-opacity="1"/><path d="M76.993 261.242c-1.679 0-4.637 1.039-6.196.14.58-1.58 4.797-1.3 6.336-1.18.56.14 2.379.14 1.68 1.04-.28.4-2.52.4-3.079.4z" fill="#343434" fill-rule="evenodd" fill-opacity="1" stroke="none"/><path d="M79.472 261.162c-1.56-3.558-.98-7.696 3.398-8.795M68.079 260.842s.16-1.799.16-2.638c0-.96-.16-1.94.14-2.919.58-1.799 2.158-2.498 4.017-2.918" fill="none" stroke="#343434" stroke-width=".63961238px" stroke-linecap="round" stroke-linejoin="miter" stroke-miterlimit="8" stroke-dasharray="none" stroke-opacity="1"/><path d="M66.9 261.502c-.56-.82-5.337-2.18-5.617-.54-.16 1.479 5.057.68 5.756.94z" fill="#343434" fill-rule="evenodd" fill-opacity="1" stroke="none"/><path d="M77.753 253.247c-.28 1.818-4.477 7.435-6.576 4.077-1.979-2.958 3.498-4.237 5.457-3.798zM67.679 252.607c-.42 1.14-.98 3.878-1.819 4.737-.58.58-2.538.86-3.398-.42-1.979-2.738 3.118-3.757 4.937-4.477zM82.57 253.566c.28-.16.56 0 .56.14-.98.84-3.618 6.097-.56 5.397 1.4-.28 1.659-4.417 1.26-5.117zM117.05 265.3c.279 4.377-1.4 6.495-5.737 5.516-.14-2.259 3.078-6.936 5.456-4.797zM107.735 265.959c0 1.279-3.398 6.796-4.538 2.278-.58-2.698 2.699-3.557 4.538-2.278zM99.02 263.4c-.54 1.4-2.199 9.994-4.138 5.417-.979-2.079 1.52-4.997 3.318-4.437zM84.859 103.567c0 7.576.15 15.141-1.12 22.577-.7 5.046-1.829 10.093-1.12 15.14.84 5.607 2.81 10.234 5.048 15.281 2.249 4.767 3.798 9.674 6.046 14.441 1.959 4.198 4.627 7.706 7.576 11.074 2.668 2.938 8.984 8.964 9.264 2.098.14-2.518-.7-4.347-1.26-6.586-.559-2.668-.14-5.606-.28-8.275-.279-7.005-5.336-12.752-7.864-19.068-3.088-7.565-5.897-14.991-7.576-22.986-1.409-6.446-.15-12.752-.85-19.069-.279-2.518-1.678-8.824-5.056-9.114-2.239-.14-3.508 2.249-3.228 4.207zM218.228 214.31c-3.218 2.399-9.514 4.238-10.074 9.015-.56 4.637 5.736 8.854 9.234 10.833 4.178 2.259 8.655 4.497 13.132 6.056 2.499.84 4.737.84 7.396 1.26 2.099.42 4.757 1.539 6.696 1.119-2.359-4.078-7.256-4.637-11.173-6.456-4.458-1.979-8.096-4.937-11.454-8.455-3.477-3.518-7.255-9.274-3.058-13.372zM234.098 249.409c-1.399.14-2.378-.56-3.778-.7-2.218-.44-4.737-.3-6.975-.44-3.338-.42-6.277-.859-9.635.14-4.457 1.44-7.395 4.997-4.037 9.115 1.679 2.279 1.959 2.139 4.177 1.14 3.358-1.56 6.157-1.84 9.774-1.84 4.198 0 12.273.14 12.013-5.836zM169.677 239.975c-1.679.28-19.728 1.259-16.23 5.736 3.638.26 7.695-.7 11.333-.98 2.938-.14 5.737.56 8.115-.979-.42-1.959-.84-3.078-2.938-3.218z" fill="#fff" fill-rule="evenodd" fill-opacity="1" stroke="none"/><path d="M154.586 252.207c-2.558-.84 1.98-5.357 2.959-6.076M148.51 249.649c.58-2.319 1.839-4.058 3.678-4.637" fill="none" stroke="#343434" stroke-width=".63961238px" stroke-linecap="round" stroke-linejoin="miter" stroke-miterlimit="8" stroke-dasharray="none" stroke-opacity="1"/><path d="M159.463 252.347c-1.399-2.379-3.518-.56-5.216 0-.3 2.499 3.817 1.12 4.937.84zM153.147 252.067c-.98-1.04-2.518-2.099-3.917-1.959-.72 1.56 2.238 1.7 3.497 2.339z" fill="#343434" fill-rule="evenodd" fill-opacity="1" stroke="none"/><path d="M210.832 264.52c-2.618-2.379-3.877-9.674 1.8-8.675M204.076 257.404c.72-3.538 1.58-4.237 5.117-4.957" fill="none" stroke="#343434" stroke-width=".63961238px" stroke-linecap="round" stroke-linejoin="miter" stroke-miterlimit="8" stroke-dasharray="none" stroke-opacity="1"/><path d="M210.992 264.64c-.42-.86-.84-1.88-.84-2.739 1.96-.58 3.219 1.58 4.758 2.299 1.539.72 4.057.44 5.157 1.739-1.94 1.14-7.816-.3-9.495-1.44zM208.873 262.281c-1.439-1.539-.999-7.435-4.357-6.716-.44 2.519 1.759 5.317 3.778 6.436z" fill="#343434" fill-rule="evenodd" fill-opacity="1" stroke="none"/><path d="M121.406 137.637c-2.098 4.897-6.296 6.316-6.296 12.212-.14 5.177 1.96 10.234 3.358 15.151 2.379 8.555 1.54 17.83 1.12 26.384-.42 8.435 1.958 15.87 0 24.145-1.96 8.575-5.457 16.71-8.955 24.845-1.12 2.679-2.099 5.337-3.218 7.995 3.638-2.938 5.457-9.254 7.275-13.331 2.519-5.897 5.037-11.653 7.416-17.55 4.177-10.793 3.778-21.467 2.798-32.84-.84-10.234.28-20.208 1.38-30.042.56-5.616-1.94-12.772-4.178-17.689zM100.699 193.643c-2.519-2.539-5.037-5.337-7.695-7.316-.28 5.777 1.259 10.674 0 16.43-1.12 5.637-1.82 11.393-3.498 16.87-1.4 5.337-2.239 12.212-5.317 16.85-2.239 3.498-7.975 5.616-9.394 9.534 4.217.28 9.114-5.617 11.213-8.835 1.679-2.538 1.679-5.756 3.358-8.295 1.26-1.959 3.498-2.518 4.757-4.637 3.078-5.057 2.798-14.031 3.358-19.788.42-3.518-.14-9.694 2.518-11.933zM103.197 81.14c3.069 4.488 4.748 10.954 9.914 14.042 4.328 2.529 7.256.56 5.167 7.436-.84 2.668-2.378 4.917-3.078 7.725-.97 3.368-.69 6.746-1.529 10.114-.98 4.068-3.078 7.725-4.197 11.793-.69 2.808-.83 6.466-1.95 8.984-8.664-10.803 1.68-27.093.7-39.036-.42-4.627-2.238-8.984-3.917-13.342-.83-2.099-2.928-6.036-1.39-8.145zM249.729 245.051c2.378 0 2.798 3.298 1.539 5.077 1.819-1.219 3.338-6.316.28-5.336z" fill="#fff" fill-rule="evenodd" fill-opacity="1" stroke="none"/><path d="M87.747 20.568c-5.537 1.129-6.096 9.114-7.066 13.601-1.519 6.586-1.519 13.452-2.628 20.048-.97 5.747-2.779 11.073-2.499 16.96.14 3.078 1.25 5.746 1.53 8.685.27 2.248-.28 4.767.409 7.005 1.39-5.746.28-13.032 0-18.918-.27-7.286 2.359-14.012 4.437-21.027 2.499-8.545 0-19.479 5.687-26.494z" fill="#c6833f" fill-rule="evenodd" fill-opacity="1" stroke="none"/></svg>