<svg xmlns="http://www.w3.org/2000/svg" version="1.0" viewBox="0 0 218.532 199.899"><defs><clipPath clipPathUnits="userSpaceOnUse" id="a"><path d="M5.836 13.272h218.268v200.039H5.836z"/></clipPath></defs><path clip-path="url(#a)" d="M37.137 60.723c-6.675 24.385-4.197 33.74-6.675 41.735-2.919 7.515-18.35 18.189-22.907 41.255-3.358 15.11 6.676 31.98 48.73 40.855 42.495 9.314 66.2 3.558 87.028 4.437 21.267.88 65 .44 79.552 23.066-14.551-22.626-53.728-26.623-74.955-27.503-20.827-.88-41.215 2.679-83.709-6.236-34.979-9.754-48.33-18.629-45.412-33.7 2.078-9.794 13.751-19.988 15.83-21.347 3.758-2.638 7.915-3.518 12.512-.88 7.476 3.559 22.067 8.875 26.624 8.436 4.997 0 19.588 1.359 28.743-.88 9.594-2.198 17.11-7.995 25.424-.44 3.318 2.679 8.755 7.116 12.473 9.755 3.358 2.678 11.273 7.115 12.512 8.874.84 1.8 2.919 3.998 3.318 4.438.84.919.84 2.238 2.119 1.798.8-.44-.44-1.359-.44-1.798 0-.88.44-3.518-.4-4.878.84.44 2.919 1.8 4.158 2.24 1.24.439 1.679 0 2.479.439.44.44.44 1.32.839.88.84-.44.44-1.76-.84-3.998 0 0 .44 0 .84.88.44.439 1.24 0 1.24 0l-.8-2.64c-.44-1.358-.84-2.238-1.28-3.117-.799-.88-3.317-.88-3.317-.88s-.4-.88-.84-1.359c-.84-.88-5.397-.44-5.836-.44-.4-.44-6.237-5.756-6.636-6.636-.84-1.359.4-3.558 1.239-3.558.84.44 3.318.88 4.557 2.679l3.358 3.518c1.24.92.4 1.359 1.24 1.359.439 0 .839-.88 0-2.678 0 0 .839 0 2.078.44.84 0 2.079.439 2.519.879.4.92.4 2.238.839 1.359.4-.44.4-2.678-1.679-5.797 0 0 1.679 0 2.479.92.44-1.36-1.64-4.917-3.318-5.797-1.24-1.319-4.158-1.759-4.997-2.198-1.24-.44-2.519-1.36-4.598-2.239-2.078-.88-1.239-.88-2.478-3.558 0-.44 0-1.319.84-2.638l-.84 1.319c1.24-3.118 6.236-9.314 15.83-8.875 0 0 2.479.88 7.476-.44 5.436-.879 11.273 3.559 14.191 4.878 3.318 1.759 9.155-1.76 11.633-2.239 2.079-.44 5.437-1.32 7.076-4.877 2.119-3.558-1.64-8.435-4.158-14.191-2.078-5.757-5.396-10.234-6.236-14.192.4-9.354-4.597-11.113-4.597-11.113s-4.997-4.877-7.476-11.113c-2.918-6.197-4.597-8.435-7.915-12.433 0 0 .84-14.191-9.154-23.066-9.994-8.874-12.513-4.877-10.834 2.199 1.24 6.676 1.64 12.432 1.64 12.432s-1.64 1.36-6.237-.88C80.431.76 42.534 41.176 37.137 60.724z" fill="#fede75" fill-rule="evenodd" fill-opacity="1" stroke="none"/><path d="M61.283 114.81c3.758 3.079 19.188 1.76 23.386.44 11.233-3.118 21.267-9.314 28.742-19.068 7.955-10.194 12.513-26.144 12.113-39.456.4 2.238 4.157 5.356 5.836 7.115 3.758 4.438 7.516 7.076 9.595 12.833 3.318 8.874-4.598 22.626-10.434 28.822-5.397 5.317-11.673 10.194-19.188 12.393-6.676 2.238-14.592 3.557-21.667 4.437-9.195 1.32-16.27-.88-25.025-3.078z" fill="#feda64" fill-rule="evenodd" fill-opacity="1" stroke="none"/><path d="M59.124 127.323c.44.48 1.28.92 2.119 1.359 2.079.88 8.755 3.518 10.434 4.837 1.239.44 2.918 3.998 4.157 6.196 0 .44.44.88.84 1.32.4.44.4.879.4.879.439.44.439 0 .439-.88 0-.44.4-1.319.4-1.758-.4-1.76-.84-3.998-.84-3.998s5.037 0 6.276 1.36c1.24 1.318 3.758 4.397 4.198 5.716.4.44 1.24.88 2.079 1.759.4 0 .4.88.84.88.399 0 0-.44 0-.88 0-1.76-.44-5.277-.44-5.277s1.678.44 2.918.88c.84.44 2.078.879 2.518 1.319.4 0 .4.44.84 0 .4 0 .4-.44 0-.88-.44-.88-.44-1.759-.84-2.199 0-.44 1.24-.44 2.079 0 .44.44.84 1.32 1.24.44 0-.44-.4-.88-.8-1.32-.84-.919-2.519-2.677-3.358-3.557-1.24-.88-2.919-1.759-5.437-2.199-6.236 0-12.512-.44-15.43-.44-2.52.44-8.755-1.319-14.632-3.557z" fill="#fed041" fill-rule="evenodd" fill-opacity="1" stroke="none"/><path d="M20.827 137.077c1.68-3.998 7.116-9.314 10.874-11.113 1.239-1.32 2.478-2.199 2.918-2.639 3.718-2.678 7.915-3.558 12.472-.92 7.516 3.559 22.107 8.915 26.704 8.476 4.997 0 19.588 1.319 28.743-.92 9.594-2.198 17.07-7.995 25.424-.44 3.318 2.679 8.755 7.116 12.513 9.795 3.318 2.638 11.233 7.075 12.512 8.874.8 1.76 2.879 3.998 3.318 4.438.84.879.84 2.198 2.079 1.758.84-.44-.4-1.319-.4-1.758 0-.88.4-3.558-.44-4.878.84.44 2.919 1.76 4.158 2.2 1.28.439 1.679 0 2.518.439.4.44.4 1.359.84.92.84-.48.4-1.8-.84-3.998 0 0 .4 0 .84.88.4.439 1.24 0 1.24 0s-.4-1.36-.84-2.68c-.4-1.318-.84-2.198-1.24-3.117-.839-.88-3.318-.88-3.318-.88s-.44-.88-.839-1.319c-.84-.88-5.437-.44-5.836-.44-.44-.44-6.277-5.796-6.676-6.676-.84-1.319.4-3.558 1.239-3.558.84.44 3.358.88 4.597 2.679.84.88 2.479 2.678 3.318 3.558 1.28.88.44 1.319 1.28 1.319.399 0 .799-.88 0-2.678 0 0 .799 0 2.078.48.84 0 2.079.439 2.478.879.44.88.44 2.198.84 1.319.44-.44.44-1.32-.4-3.118-2.518-1.32-5.836-3.558-6.676-5.317-.84-1.32 0-2.678.4-3.998-.4 0-.84-.44-.84-.44-1.239-.439-2.478-1.318-4.557-2.238-2.078-.88-1.239-.88-2.518-3.558 0-.44 0-1.319.84-2.638l-.84 1.319c1.28-3.118 6.276-9.314 15.83-8.875 0 0 2.519.88 7.516-.44h2.918c2.079-.439 3.758-.439 5.437.44 2.918 1.32 4.157 2.679 7.475 3.119 2.918 0 5.437 0 7.915-1.36 5.437-2.198 10.834-5.756 6.676-12.432.84 7.116-4.557 6.676-9.594 5.357-2.079-.44-4.557-.92-6.636-1.8-2.918-1.318-3.358-3.997-6.676-3.997h-9.594c-2.519 0-4.597 0-6.676-.44-2.079 0-4.597 0-6.676-.88-2.478-.439-3.718-3.557-6.236-3.997-7.516-1.799-8.755 6.676-14.192 9.315-4.157 2.238-7.915 3.558-11.633 6.676-4.197 3.558-9.194 5.756-14.19 7.555-12.074 3.998-25.825 3.558-38.338 2.199-9.594-.88-19.188-8.435-28.782-5.317-4.997 1.759-7.915 5.757-12.073 9.314-4.157 3.998-9.994 9.355-10.434 15.55z" fill="#fed041" fill-rule="evenodd" fill-opacity="1" stroke="none"/><path d="M105.416 117.489c10.834-3.518 20.428-11.953 26.704-22.147 3.318-5.317 5.796-11.073 3.718-17.749-1.64-3.518 1.279-8.875 3.757-7.955 2.519.88 4.997 2.638 7.076 3.957 2.079 1.8 2.519 4.438 4.198 6.237 1.639 1.759 2.478 1.759 2.478 3.997.4 2.199-.4 2.639.4 4.877 1.279 3.518 4.197 5.317 6.676 7.516 4.157 3.997-2.079 5.316-5.837 6.196-5.396.92-10.833 1.799-16.23 3.558-2.518.88-7.915 5.317-10.833 4.877zM157.944 17.55c4.158-.88 9.594 7.115 11.673 10.233 2.079 3.558 4.957 9.754 2.479 13.752-4.158-.88-4.158-7.995-5.837-11.113-2.478-4.438-5.796-11.553-9.994-14.232zM151.748 54.407c-5.876-2.239-3.358 2.239-3.358 5.836 0 .88-1.679 7.116 1.68 4.438.839-.88-.4-3.558 0-4.438.439-2.238 1.278-2.678 2.518-4.037zM150.949 47.811c-2.519-5.397-5.877-8.115-11.713-8.555-5.037-.44-10.474-.92-10.474 6.276 2.958-.88 5.876-3.597 9.234-3.597 2.08 0 5.397 1.798 7.516 2.718 2.918 1.36 1.679 2.678 2.918 5.397.84 2.678 1.679.44 4.158.88-.4-.88-.4-1.8-.8-2.24z" fill="#fed041" fill-rule="evenodd" fill-opacity="1" stroke="none"/><path d="M154.267 126.843c2.478.88 2.478.44 4.517 2.199.84.88 2.438 2.638 2.438 3.957-1.599-.88-3.238-1.319-4.877-1.319z" fill="#ffbe00" fill-rule="evenodd" fill-opacity="1" stroke="none"/><path d="M181.73 87.387c-.84-.92.84-4.957-3.358-7.635-3.758-2.719-6.716 2.238-6.716 2.238-.44 2.679 1.28 4.957 3.358 5.837 1.679.88 5.477-.88 5.477-.88l1.239.44z" fill="#fff" fill-rule="evenodd" fill-opacity="1" stroke="none"/><path d="M173.375 81.11c1.24-1.758 3.718-2.238 5.357-.879 2.078 1.36 2.478 4.038.84 5.797-1.24 2.239-3.719 2.678-5.398.92-1.639-1.36-2.078-4.038-.8-5.837z" fill="#949494" fill-rule="evenodd" fill-opacity="1" stroke="none"/><path d="M175.454 82.43c.4-.44 1.279-.92 2.118 0 .84.44.84 1.32.44 2.199-.44.88-1.719.88-2.159.44-.84-.44-1.279-1.76-.4-2.639z" fill="#303030" fill-rule="evenodd" fill-opacity="1" stroke="none"/><path d="M193.363 73.555c.44 1.32.44 3.998 1.679 4.438-.4 0-.4-.44-.4-.88.4-9.354-4.677-11.113-4.677-11.113l-.44-.48c.44 1.36.88 2.679 1.72 4.038.839 1.319 1.678 2.678 2.118 3.997zM97.421 128.962c5.037-.88 10.474-2.639 15.07-4.877 2.08-.88 4.198-1.32 6.277-2.199 3.318-1.759 5.437-4.437 7.515-7.076 1.24-1.359 4.198-5.796 5.037-2.678.8 1.32-1.279 4.437-1.679 5.757-.84 2.678-.84 5.316 0 7.555.4 2.199 1.68 3.078 2.479 4.837-2.079-.44-3.318-3.078-4.997-4.397-1.679-.92-3.358-1.8-5.037-1.8-4.157-1.318-8.755 1.36-12.952 2.24zM148.39 121.167c-2.119 1.758-2.119 7.035-2.119 9.674 2.12-3.078 3.798-2.199 6.317-.88-1.24-1.759-4.198-7.036-2.919-9.274zM69.598 131.2c2.518 1.36 4.197 2.679 5.876 4.918 2.079-4.918 11.233 0 13.312-5.357-4.997 2.238-11.233-.48-15.83.44zM37.457 119.647c4.997-3.078 9.195.88 14.152 2.639-2.879-1.32-3.718-4.837-6.236-5.277-2.08-.88-5.397.44-7.076 2.199zM185.048 103.657c0 1.84.84 4.078 2.518 4.997 1.24.88 4.118 1.32 4.118-.48-3.318 0-2.479-5.876-6.636-5.876z" fill="#ffbe00" fill-rule="evenodd" fill-opacity="1" stroke="none"/><path d="M196.72 105.016c2.08.44.44 2.639 3.319 1.76 1.679 0 2.518-1.76 3.318-3.119-1.24.48-1.64.92-3.318 1.36-1.24 0-2.479-.88-3.318 0z" fill="#878787" fill-rule="evenodd" fill-opacity="1" stroke="none"/><path d="M149.63 54.327c-2.879 0-1.64 3.198-.4 4.557.4-1.799.8-3.158 1.998-4.557zM131.36 41.135c1.24-1.759 2.479-1.32 4.558-1.32h4.557c3.278 0 6.596 1.32 7.395 5.238-1.639-3.918-6.156-3.478-9.074-3.918-1.64-.44-3.278 0-4.957 0-1.24-.44-2.479-1.32-3.718 0z" fill="#ffbe00" fill-rule="evenodd" fill-opacity="1" stroke="none"/><path d="M152.588 34.899c.839.44 2.078.44 3.278 0-.4.88-.4 1.759-.4 2.638z" fill="#fed041" fill-rule="evenodd" fill-opacity="1" stroke="none"/><path d="M161.222 52.168c-5.716 4.917-6.955 22.227-2.038 27.983-1.2-3.078-.8-7.995-.8-11.992.4-2.199-.4-3.518.4-7.076.4-2.678.84-6.676 2.438-8.915z" fill="#fff" fill-rule="evenodd" fill-opacity="1" stroke="none"/><path d="M128.762 49.53c0 3.118 3.358 8.475 5.037 10.713 2.518 3.119 6.276 3.998 9.594 5.757-3.318-2.638-6.236-4.437-8.355-7.995-1.679-2.679-4.997-5.357-6.276-7.995z" fill="#f5f5f5" fill-rule="evenodd" fill-opacity="1" stroke="none"/><path d="M125.444 46.012c-2.519 4.877.44 14.631 2.918 18.629 2.119 2.678 4.198 4.877 5.437 7.995 1.24 2.638 1.679 6.196 3.358 8.395 1.679-1.32 1.679-3.518 2.918-5.317.84-1.32 2.519-2.199 2.918-3.957.4-3.558-5.436-4.438-7.515-6.237-4.198-3.078-9.195-7.075-10.034-13.272z" fill="#fed041" fill-rule="evenodd" fill-opacity="1" stroke="none"/><path d="M140.115 68.718c2.479 1.8 4.118 1.36 6.196 3.998 1.24 2.638 2.439 7.475-.84 8.795zM140.515 31.7c2.918 3.119 7.475 4.918 10.354 8.915.84.88 2.078 5.317 2.518 5.757 2.878 1.32 1.639-4.877 1.24-6.676-.4-2.638-.4-2.638-2.48-3.998-2.518-1.319-4.996-2.638-7.475-3.518-4.157-1.798-7.915-3.557-12.072-4.477 1.679 1.8 7.475 4.477 9.994 5.797z" fill="#fed041" fill-rule="evenodd" fill-opacity="1" stroke="none"/><path d="M37.937 74.315c4.197-19.908 12.512-36.298 34.18-44.293 22.106-7.995 26.663-5.317 26.663-5.317-10.394 2.638-47.091 5.317-60.843 49.61z" fill="#fff" fill-rule="evenodd" fill-opacity="1" stroke="none"/><path clip-path="url(#a)" d="M15.03 128.682c-2.917 7.076-15.07 26.984 8.756 41.575-6.237-4.398-17.11-15.47-8.755-41.575z" fill="#fff" fill-rule="evenodd" fill-opacity="1" stroke="none"/><path d="M147.51 115.33c2.919-4.877 7.956-9.354 13.353-8.875 2.518 0 4.996.44 7.515.44 2.478-.44 4.997.44 7.475 0-7.075-.44-14.55-4.037-22.066-1.359-2.519.92-5.437 2.678-6.676 5.797-1.68 3.557-2.079 9.354-2.519 13.351.44-.879.84-2.198 1.28-3.557.4-2.2 1.639-3.998 2.918-5.797z" fill="#ffbe00" fill-rule="evenodd" fill-opacity="1" stroke="none"/><path clip-path="url(#a)" d="M37.137 60.723c-6.675 24.385-4.197 33.74-6.675 41.735-2.919 7.515-18.35 18.189-22.907 41.255-3.358 15.11 6.676 31.98 48.73 40.855 42.495 9.314 66.2 3.558 87.028 4.437 21.267.88 65 .44 79.552 23.066-14.551-22.626-53.728-26.623-74.955-27.503-20.827-.88-41.215 2.679-83.709-6.236-34.979-9.754-48.33-18.629-45.412-33.7 2.078-9.794 13.751-19.988 15.83-21.347 3.758-2.638 7.915-3.518 12.512-.88 7.476 3.559 22.067 8.875 26.624 8.436 4.997 0 19.588 1.359 28.743-.88 9.594-2.198 17.11-7.995 25.424-.44 3.318 2.679 8.755 7.116 12.473 9.755 3.358 2.678 11.273 7.115 12.512 8.874.84 1.8 2.919 3.998 3.318 4.438.84.919.84 2.238 2.119 1.798.8-.44-.44-1.359-.44-1.798 0-.88.44-3.518-.4-4.878.84.44 2.919 1.8 4.158 2.24 1.24.439 1.679 0 2.479.439.44.44.44 1.32.839.88.84-.44.44-1.76-.84-3.998 0 0 .44 0 .84.88.44.439 1.24 0 1.24 0l-.8-2.64c-.44-1.358-.84-2.238-1.28-3.117-.799-.88-3.317-.88-3.317-.88s-.4-.88-.84-1.359c-.84-.88-5.397-.44-5.836-.44-.4-.44-6.237-5.756-6.636-6.636-.84-1.359.4-3.558 1.239-3.558.84.44 3.318.88 4.557 2.679l3.358 3.518c1.24.92.4 1.359 1.24 1.359.439 0 .839-.88 0-2.678 0 0 .839 0 2.078.44.84 0 2.079.439 2.519.879.4.92.4 2.238.839 1.359.4-.44.4-2.678-1.679-5.797 0 0 1.679 0 2.479.92.44-1.36-1.64-4.917-3.318-5.797-1.24-1.319-4.158-1.759-4.997-2.198-1.24-.44-2.519-1.36-4.598-2.239-2.078-.88-1.239-.88-2.478-3.558 0-.44 0-1.319.84-2.638l-.84 1.319c1.24-3.118 6.236-9.314 15.83-8.875 0 0 2.479.88 7.476-.44 5.436-.879 11.273 3.559 14.191 4.878 3.318 1.759 9.155-1.76 11.633-2.239 2.079-.44 5.437-1.32 7.076-4.877 2.119-3.558-1.64-8.435-4.158-14.191-2.078-5.757-5.396-10.234-6.236-14.192.4-9.354-4.597-11.113-4.597-11.113s-4.997-4.877-7.476-11.113c-2.918-6.197-4.597-8.435-7.915-12.433 0 0 .84-14.191-9.154-23.066-9.994-8.874-12.513-4.877-10.834 2.199 1.24 6.676 1.64 12.432 1.64 12.432s-1.64 1.36-6.237-.88C80.431.76 42.534 41.176 37.137 60.724" fill="none" stroke="#333" stroke-width=".79951543px" stroke-linecap="round" stroke-linejoin="round" stroke-miterlimit="4" stroke-dasharray="none" stroke-opacity="1"/><path d="M156.745 50.45c-2.478-8.435-15.47-23.546-27.184-12.873-12.152 10.674 3.758 27.544 8.355 29.302 4.638 2.24 9.635 4.478 10.914 7.996" fill="none" stroke="#333" stroke-width=".79951543px" stroke-linecap="round" stroke-linejoin="round" stroke-miterlimit="4" stroke-dasharray="none" stroke-opacity="1"/><path d="M151.708 54.007c-4.597 0-5.437 1.36-3.758 4.478 2.12 2.638-1.239 5.756 1.68 7.515" fill="none" stroke="#333" stroke-width=".79951543px" stroke-linecap="round" stroke-linejoin="round" stroke-miterlimit="4" stroke-dasharray="none" stroke-opacity="1"/><path d="M189.205 106.855c-2.878 3.998-10.793 17.31-8.275 26.144M187.846 106.296c-2.478 2.678-12.033 19.668-12.472 23.665M187.047 105.496c-4.118 3.118-14.072 16.43-16.15 19.508M210.073 92.704c-2.08.44-6.756 2.198-7.196 2.638M206.715 90.305c-1.28.92-3.398 3.118-3.838 3.998M207.514 84.709c-2.079 1.319-4.997 6.596-5.436 8.315M190.085 108.694c-1.64 1.799-5.837 15.55-4.997 22.626M187.047 104.697c-1.64.919-15.351 10.153-21.188 12.792M203.357 96.142c1.239-.4 2.478-.8 4.477 0" fill="none" stroke="#333" stroke-width=".31980619px" stroke-linecap="round" stroke-linejoin="round" stroke-miterlimit="4" stroke-dasharray="none" stroke-opacity="1"/><path d="M181.73 87.387c-.84-.92.84-4.957-3.358-7.635-3.758-2.719-6.716 2.238-6.716 2.238-.44 2.679 1.28 4.957 3.358 5.837 1.679.88 5.477-.88 5.477-.88l1.239.44z" fill="none" stroke="#333" stroke-width=".79951543px" stroke-linecap="round" stroke-linejoin="round" stroke-miterlimit="4" stroke-dasharray="none" stroke-opacity="1"/><path d="M173.375 81.11c1.24-1.758 3.718-2.238 5.357-.879 2.078 1.36 2.478 4.038.84 5.797-1.24 2.239-3.719 2.678-5.398.92-1.639-1.36-2.078-4.038-.8-5.837" fill="none" stroke="#333" stroke-width=".79951543px" stroke-linecap="round" stroke-linejoin="round" stroke-miterlimit="4" stroke-dasharray="none" stroke-opacity="1"/><path d="M175.454 82.43c.4-.44 1.279-.92 2.118 0 .84.44.84 1.32.44 2.199-.44.88-1.719.88-2.159.44-.84-.44-1.279-1.76-.4-2.639M95.422 137.956c-2.039-2.198-3.718-3.517-5.796-3.957-1.64-.44-7.036-2.199-7.476-2.679M89.906 138.836c-.8-1.32-1.64-3.118-2.479-3.118-.8-.44-8.275-3.118-9.114-3.598M77.113 135.318c0-1.36-1.359-3.198-1.359-3.198" fill="none" stroke="#333" stroke-width=".79951543px" stroke-linecap="round" stroke-linejoin="round" stroke-miterlimit="4" stroke-dasharray="none" stroke-opacity="1"/><path d="M59.124 127.323c.44.48 1.28.92 2.119 1.359 2.079.88 8.755 3.518 10.434 4.837 1.239.44 2.918 3.998 4.157 6.196 0 .44.44.88.84 1.32.4.44.4.879.4.879.439.44.439 0 .439-.88 0-.44.4-1.319.4-1.758-.4-1.76-.84-3.998-.84-3.998s5.037 0 6.276 1.36c1.24 1.318 3.758 4.397 4.198 5.716.4.44 1.24.88 2.079 1.759.4 0 .4.88.84.88.399 0 0-.44 0-.88 0-1.76-.44-5.277-.44-5.277s1.678.44 2.918.88c.84.44 2.078.879 2.518 1.319.4 0 .4.44.84 0 .4 0 .4-.44 0-.88-.44-.88-.44-1.759-.84-2.199 0-.44 1.24-.44 2.079 0 .44.44.84 1.32 1.24.44 0-.44-.4-.88-.8-1.32-.84-.919-2.519-2.677-3.358-3.557-1.24-.88-2.919-1.759-5.437-2.199-6.236 0-12.512-.44-15.43-.44-2.52.44-8.755-1.319-14.632-3.557M164.26 147.31c-1.239-1.758-3.318-3.117-4.557-3.117-1.279-.44-7.115-2.719-7.115-2.719M157.545 147.63c-.8-.879-4.118-3.078-4.957-3.997M157.864 134.279c-.8-1.76-1.239-3.958-2.478-5.717-1.64-1.759-3.718-3.558-4.158-3.558M161.702 131.32c-.84-1.359-2.918-4.117-4.637-5.037M147.95 133.48c-2.438-3.079-3.677-5.757.8-16.47M160.902 141.474c-1.239-.48-3.717-.48-4.157-.48M156.265 33.54c0 .92 0 2.318-.4 3.198" fill="none" stroke="#333" stroke-width=".79951543px" stroke-linecap="round" stroke-linejoin="round" stroke-miterlimit="4" stroke-dasharray="none" stroke-opacity="1"/><path d="M174.254 82.19c0-.64.48-1.16 1-1.16.56 0 1 .52 1 1.16 0 .64-.44 1.16-1 1.16-.52 0-1-.52-1-1.16z" fill="#fff" fill-rule="evenodd" fill-opacity="1" stroke="none"/><path d="M155.945 51.409c1.24-.92 2.839-1.36 2.839-3.198-1.2-.48-2.839 0-3.678.92M147.99 74.035c-.4 0 .8-1.359.8-1.839M150.469 54.367c0-.4-.32-.84-.32-1.28M154.306 143.353c-.44.88-.879 1.32-1.359 2.159M151.748 126.883c.8-.44 1.2-.88 1.2-1.36M154.306 129.042c.4-.44 1.2-.88 1.6-.88" fill="none" stroke="#fede75" stroke-width="1.6789824px" stroke-linecap="butt" stroke-linejoin="miter" stroke-miterlimit="8" stroke-dasharray="none" stroke-opacity="1"/></svg>