<svg xmlns="http://www.w3.org/2000/svg" version="1.0" viewBox="0 0 155.717 124.8"><defs><clipPath clipPathUnits="userSpaceOnUse" id="a"><path d="M-.16.32h155.506v124.884H-.16z"/></clipPath></defs><path d="M61.763 112.492c2.558-.92 6.835-.92 9.394-.28 1.399.28 7.076 2.998 6.796 4.197-1.4.32-2.839 0-4.238.6z" fill="#6dc178" fill-rule="evenodd" fill-opacity="1" stroke="none"/><path d="M7.316 104.936c-1.72-2.438-2.559-5.476-2.839-8.474l-.28-.32c-.879-.6-2.558-1.84-3.118 0-.32.6 1.96 1.839-.32 2.438 1.72.88 1.16 2.119.6 3.318 1.4.32 1.4 1.24 1.959 2.119 0 .6-.28.92 0 1.519 0 .32.88.6 1.16 1.24.559.879.559 1.518 1.119 2.398.6.6 1.159 2.119 1.719 2.758 1.119 1.52 3.677 2.719 5.396 2.998h.84c-1.68-2.398-3.398-5.436-6.236-9.994z" fill="#91d294" fill-rule="evenodd" fill-opacity="1" stroke="none"/><path d="M152.268 61.683c-2-2.439-4.837-5.157-6.796-7.276-1.999-2.438-6.236-8.475-8.515-10.314-2.279-1.799-5.117-3.038-8.795-4.837-3.677-1.519-3.957-3.957-5.676-7.875-3.118-5.757-2.559-12.113-3.958-18.469C116.81 6.836 112.572.76 111.133 1.4c-1.4.88-3.958 8.155-3.958 11.793-.28 3.638 0 5.157 1.44 8.795l.559.6c-1.44-1.8-3.118-3.918-5.397-6.077-4.517-4.237-10.753-6.956-11.633-6.356-.84.92-1.399 8.795 2.279 14.87 3.118 5.438 8.515 12.393 10.473 16.95l.28.6c-.56 2.719-5.916 3.038-8.754 2.719-3.119-.28-12.473-2.719-17.31-5.437-5.117-2.719-18.988-6.076-30.901-3.318C22.706 41.375 10.793 56.206 5.677 82.55c-1.68 6.356-2.28 16.07 1.719 22.426 3.957 6.357 5.956 9.994 7.915 12.433 2.278 2.718 11.633 3.038 16.75 3.638 5.076.6 10.193-.92 12.472-.92 2.558 0 9.354.92 14.751 1.52 5.357.599 13.592.919 14.431.919 1.44-.92 5.677.28 7.676-.92 1.958-.92 2.238-1.519 2.238-1.519-1.679-2.438-7.075-4.557-8.754-5.437-1.72-.919-3.718-1.838-4.558-1.838-1.119.32-7.915.32-10.193.32 1.399 0 3.957-.32 5.396-2.12.56-.32.84-.639 1.12-1.239v.32l.28-.32c.56-.6 1.119-.879 1.718-1.199.84.32.56 1.52.84 2.119.28-2.119 1.999-2.439 3.398-1.799.84-1.52 2.278-.92 3.398-1.24 1.719 0 2.278-.599 3.957.6 0-.28 0-.6.28-.6h.6c2.238.92 11.593 6.677 15.59 9.395 4.238 2.439 8.795 5.157 11.314 6.076 2.558.6 5.676.88 7.675.88 1.999 0 2.838-.28 3.678-.28.84 0 .84-.6.84-.6 1.438.28 1.998-.92 1.998-.92 1.12 0 1.4-1.198 1.4-1.198s-2.24-1.52-4.238-2.439c-1.68-.6-4.518-1.799-5.957-1.2-1.679.6-3.398-1.518-3.398-1.518 2.559-.32 6.237-.32 8.235-.32 1.96.32 4.797-.6 4.238-.88 1.719.28 2.558-.919 2.558-.919s-1.439-1.839-3.398-2.438c-1.999-.6-3.957-1.52-4.837-2.12-2.558-1.798-14.151-.599-15.03-.599-.56 0-2.24-2.438-1.68-3.318.56-.92 5.677.28 8.195 0 .32-.32.88-.32 1.44-.32 0 0 0 .32.28.32s.559-.32.839-.92c.28 0 .88 0 1.16-.32 1.398 1.24 3.957-1.798 4.237.32.28-.599.28-1.518.839-1.838.28.32.88.32 1.16.64.559-1.24 1.398 0 2.238-.64.88-.28 1.16-1.48 1.999-1.799 1.12-.32 1.719 0 2.558-.6.84-.6.84-1.839 1.999-.92.28-1.198 1.4-1.798 2.518-1.518 0-1.2.88-3.038 2.28-2.119.559-1.2.279-4.237 2.558-3.638-.28-.88-.28-1.799-.28-2.398 1.119-2.439 1.959-5.157 2.278-7.276 2.239-1.24 3.398-5.756 5.957-5.477 2.238 0 3.677-.879 5.077-1.798 1.439-1.2 4.277-3.958 5.117-6.077 0 0 .839 0 1.119-.88.56-.919.84-4.237-1.4-6.355z" fill="#91d294" fill-rule="evenodd" fill-opacity="1" stroke="none"/><path d="M131 55.286c0-1.678 1.2-3.038 2.679-3.038 1.48 0 2.678 1.36 2.678 3.038 0 1.68-1.199 3.039-2.678 3.039-1.48 0-2.678-1.36-2.678-3.039z" fill="#333" fill-rule="evenodd" fill-opacity="1" stroke="none"/><path d="M132.12 54.487c0-.36.32-.72.68-.72.4 0 .68.36.68.72 0 .4-.28.72-.68.72-.36 0-.68-.32-.68-.72z" fill="#fff" fill-rule="evenodd" fill-opacity="1" stroke="none"/><path d="M55.886 79.232c3.398 4.837 4.238 13.912 3.958 19.948-.28 2.718-.56 5.437-1.4 8.155-1.439 3.638-2.558 2.758-5.116 4.557.84 1.2 6.516.92 7.955.28 2.838-.88 3.678-3.918 6.516-4.517 2.279-.6 4.517-.6 6.516-1.2 2.838-.6 5.397 0 7.955-1.519 3.958 3.638 8.795 7.236 13.872 9.355-3.398-3.318-.84-6.636 1.719-8.755 1.399-1.2.56-1.2 3.118-1.2.84-.319 1.999 0 3.118 0 2.838-.319 5.117-.319 7.675-1.238 1.96-.88 4.238-1.8 6.236-2.719 1.96-.88 3.958-.88 5.957-1.799 1.679-.6 3.118-2.118 4.797-3.638 3.678-3.637 4.557-9.074 6.796-13.911-3.118.32-5.077-2.119-7.636-3.638-1.119-.6-2.558-.6-3.677-1.2-1.44-.919-2-2.438-3.998-2.438.6 2.439 4.557 5.757 3.998 8.195-.88 3.318-4.278.88-6.237 1.2-.6 2.438-.6 3.917-1.998 5.756-2.279 3.638-3.958 2.998-7.676 2.399-4.237-.28-6.516.32-9.914 2.438-3.118 2.119-6.516 1.8-9.914 1.52-3.118 0-12.752-.92-14.191-4.238-.56-1.52-1.12-.32-2.279-2.119-1.679-2.438-2.838-1.839-4.797-3.957-5.117-4.838-9.954-7.556-15.63-9.954z" fill="#6dc178" fill-rule="evenodd" fill-opacity="1" stroke="none"/><path d="M103.817 109.494c1.16 1.479 2.279 3.597 3.958 5.077 1.399.919 2.278.6 3.957.6 2.799 0 6.756.879 9.275-.28-.56-1.2-1.96-.6-2.799-1.52-.28-.28.28-.6-.56-1.199-.839-.6-1.678 0-2.558 0-2.518 0-4.757-.88-7.035-1.799-1.4-.6-2.799-.6-3.918-1.2zM103.817 120.007c1.16.28 1.999 1.52 3.438 1.8 1.12.639 2.239.639 3.678.919 2.278.32 4.237.6 6.516.6 1.12 0 3.957-.6 4.237-1.8.28-1.519-2.838-2.438-3.957-2.758.84 3.358-2 1.839-4.238 1.839-1.16 0-1.719.32-2.558.32-1.999 0-3.678-.92-5.677-.92zM47.851 119.488c4.837-.32 9.674 1.199 14.511 1.519 3.118.32 6.516.32 9.355.6 2.278.599 4.557.32 7.115 0 .56 0 2.559 0 2.839-.92.56-1.799-2.839-3.038-3.958-3.038 1.12 3.038-1.72 1.519-3.438 1.519-.84 0-.84.32-1.679.32-1.16.32-1.719 0-3.118-.32-3.158-.88-7.116-.28-10.234-.28-3.118 0-6.836-.32-10.234.28zM7.316 105.496c.6.92 1.159 2.479.879 3.398 0 .88-.88.88-.88 1.799 0 1.839 3.119 3.358 4.238 3.358-.28-2.119-1.679-3.958-2.518-5.797zM94.703 47.091c2.558 0 9.114.32 10.233-2.438.84.32 1.68 3.638 1.68 4.557-3.399.6-6.237 2.399-8.475 5.117.839-2.998 3.118-5.437-.88-7.236zM96.102 16.83c-1.16 3.318 1.12 7.275 2.838 9.674 1.679 2.119 3.398 5.756 5.956 6.956-1.439-1.8 1.68-2.119 1.96-3.598-1.96-.64-.84-1.839-.84-3.358-.28-1.52-1.68-2.998-2.559-4.237-1.399-2.399-3.957-5.757-6.796-5.437zM110.293 8.675c-.28 4.237-1.439 8.195-.56 12.432.28 2.439 1.4 3.918 2.559 5.757 1.679 2.718 3.398 6.356 5.397 8.754 1.399 2.12 3.677 6.357 5.956 6.996 2.239.88 5.677.28 7.915 1.48-2.238-.88-5.356-2.4-7.075-4.238-1.12-1.2-1.12-2.719-1.72-4.238-1.678-3.917-4.517-6.955-4.237-11.473-2.278 1.52-3.997-3.637-4.557-5.157-.84-1.798-2.279-3.957-2.559-5.756-.56-1.52-.28-3.038-.56-4.237z" fill="#6dc178" fill-rule="evenodd" fill-opacity="1" stroke="none"/><path d="M150.829 65.04c-.88 1.48.56 4.478 1.998 3.598 1.44-.6 1.44-3.318.88-5.116-.56-.32-.56-.32-1.16-.32.28 1.239 0 2.438-1.439 2.118z" fill="#333" fill-rule="evenodd" fill-opacity="1" stroke="none"/><path d="M115.33 35.379c2.039 1.479 1.44 5.076 1.44 7.195 0 1.48-.56 2.998-.56 4.477.84 0 2.278-.879 3.437-1.199.84-.28 1.72-.6 2.559-.6 1.16-.28 1.719.32 2.878.32 1.12.28 1.999 0 3.118.28-1.399-.88-2.558-1.2-3.997-1.479-1.72-.6-1.72-.92-2.839-2.119-1.159-1.199-2.318-1.799-3.158-3.278-.84-1.199-1.439-2.718-2.558-3.917zM55.047 112.772c-1.72-.92-2.279-1.84-4.558-2.12-2.238 0-3.957 0-6.236.88.6-3.917 3.118-2.718 5.677-3.597 2.838-.92 2.838-2.719 3.957-5.477.56-.88 1.72-1.799 2-2.998.839-1.84 1.118-6.077.839-7.876 0-3.038-.56-3.317-1.68-6.076 1.68 2.119 2.52 3.638 2.799 6.676.28 1.52.56 3.318.56 4.837-.28 1.52-.56 2.719-.84 4.557-.28 2.12-.84 4.518-1.399 6.956-.28 1.52.84 3.918 0 5.117zM6.196 94.303c0 5.477 3.398 9.114 6.236 13.352 2 3.318 2.28 6.636 5.397 9.074 3.678 2.719 7.116 2.119 11.353 2.399 2 .32 3.998.6 5.997.6 1.679 0 3.118-.6 5.077-1.2-2.519 0-4.797-.6-7.356-.92-3.158-.28-4.837-.28-7.675-2.398-2-1.839-.88-1.2-1.44-3.038-.28-1.799-3.677-2.119-4.836-2.399-3.678-.64-4.518-4.237-7.356-6.675-2.279-1.8-5.717-5.157-5.397-8.475zM140.115 75.914c2.279-.28 3.998 0 5.996-1.52 1.4-.599 4.518-3.357 4.798-4.876-1.68-.28-1.96-3.038-3.678-3.958-1.12-.32-3.958-1.239-4.837-.92 0 1.84 1.998 1.52 2.558 3.039.28.92-1.12 2.159-1.959 2.758-1.159.6-1.719 0-2.558 1.52-.32 1.239.28 2.438-.32 3.677zM73.675 39.536c6.277 1.52 11.953 4.837 18.19 6.676 1.998.28 7.115.6 7.955 2.718.56 1.2-.56 2.999-1.12 4.238-1.719 2.398-3.398 4.517-4.837 6.916.84-2.08 3.398-6.916 1.72-9.355-.88-1.519-3.439-1.799-4.558-2.998-1.999-1.839-7.116-4.237-10.234-5.477z" fill="#6dc178" fill-rule="evenodd" fill-opacity="1" stroke="none"/><path d="M11.553 71.037c1.999-7.276 5.677-18.789 19.308-26.064 13.632-7.276 24.425-8.795 34.9-6.956-6.237.32-19.829.32-34.34 9.714-14.191 9.674-15.87 15.43-19.868 23.306zM3.078 96.462h-.88c.28.919.28 2.118-.32 2.718 1.2.92 1.2 2.119.6 3.358 1.16 0 1.76.88 2.04 2.079.559-.28-.6-7.236-1.44-8.155zM99.26 30.741c-6.476-8.435-7.356-12.992-6.756-17.829.84 2.119.84 9.674 6.756 17.83zM108.614 15.31c0-6.315 1.72-10.873 3.118-12.392-.56 1.52-3.438 9.994-3.118 12.393zM130.44 52.608c2.28-2.119 4.278-1.799 6.237.28-.56-2.718-5.077-2.399-6.236-.28zM133.32 59.244c1.398.28 3.077-1.2 3.917-2.438-.56 1.519-1.959 2.718-3.358 2.438zM105.496 23.466c.56.92 1.68 1.519 1.959 2.718 0 .92-.56 1.52-.28 2.439.28 1.199.84 1.519.28 2.718 0 .6-.28.32-.56.92 0 .6.28 2.118.56 2.398 0-.6-.28-1.48 0-2.399.28-.32.84-.919.84-1.519 0-.6-.28-2.718-.28-3.318-.56-1.839-1.96-4.557-3.398-5.796z" fill="#fff" fill-rule="evenodd" fill-opacity="1" stroke="none"/><path d="M60.883 93.743c0 3.918 0 7.875-1.12 11.793-.28 1.24-.559 2.758-1.438 3.638-.56 1.24-1.96 1.839-2.559 3.358 1.44.28 3.718.28 5.117 0 1.72-.32 2.559-1.52 3.998-2.719.84-.64 2.278-1.838 3.677-2.118.56 0 2 0 1.72.88.28-.6 1.119-1.2 1.998-1.2.28.6.56 0 1.12-.32 1.119-.28 1.998-.28 2.838 0 1.16 0 3.398-.6 3.997.32 1.68-2.718 6.516 2.119 7.956 3.638 2.238 1.519 4.797 3.638 7.635 3.917-3.958-2.998-7.356-7.235-11.633-9.994-.84-.6-1.999-1.199-3.118-1.519-1.12 0-2.838.64-4.278.64-3.677.28-7.675.28-11.353 1.479-.84 0-2.558 1.839-3.398 1.24-1.159-.92 0-6.077.28-7.276 0-2.119-.28-4.238-1.16-6.356-.279-.92-.839-2.12-.839-2.759zM99.26 17.79c1.439 1.238 2.838 3.637 3.678 5.156.28.92.56 1.52.56 2.399 0 .64-.56.64-.56 1.239.28.28.56.88.84 1.519 0 .28-.28.6-.28.88.28.6.839.919.839 1.199 0 .64-.56 1.519-.28 1.839.56.88 1.12-.6 1.4-.92.279-.28.839 0 1.118-.6.28-.919-.28-.6-.28-1.199-.28-.32-.56-.32-.56-1.199 0-.32.28-.92.28-1.24.28-.599 0-1.518-.28-2.118zM14.351 111.333c1.16 1.519 1.72 3.318 2.839 4.797 1.439 1.199 2.838 1.519 4.557 2.118 2.838.88 7.076 1.48 10.194 1.2-2.519 0-5.357-1.8-8.195-2.12-2-.279-3.998 0-5.397-1.478-1.44-1.52-2.559-2.719-3.678-4.517zM106.376 112.212c.56.92 2.238 2.119 3.357 2.718 1.16.56 2.28.28 3.398 0 2.24 0 4.798.28 6.756 0-2.518.28-5.077-.6-7.595-.6-1.999-.32-4.797-.919-6.236-2.118z" fill="#45a25b" fill-rule="evenodd" fill-opacity="1" stroke="none"/><path d="M113.411 56.806c0 2.158-.32 4.277.84 6.076.56 1.2 2.278 2.718 1.999 4.557.28-.32.28-.92.56-1.24.839.92.279 3.039 1.718 3.359v-.32l.56-.28c.28.88.84 1.8 1.439 2.119.28-.32.56-.32.84-.6.28 2.399 2.558 2.119 3.397 3.598-1.119-1.799-2.838-2.718-2.558-5.117-2.279.28-4.557-3.038-5.677-4.557-.56-.6-1.719-2.439-2.278-3.318-.56-1.24-.28-2.439-.56-3.958z" fill="#fff" fill-rule="evenodd" fill-opacity="1" stroke="none"/><path d="M100.38 107.335c2.278 1.839 8.274 7.635 10.793 9.434M117.089 121.326c1.719.32 3.118 1.76 3.118 1.76M119.328 120.047c1.399.96 2.798 2.159 2.798 2.159M114.77 109.813c1.44-.32 5.997 1.12 5.997 1.12M118.768 112.772c2.039.64 4.317 1.519 4.317 1.519M67.44 118.608c2.837.6 4.237.92 5.076 2.119 1.12.88 1.4 1.479 1.4 1.479M71.677 115.49c1.439 1.52 3.437 1.52 5.156 2.998 2 1.52 4.838 1.2 4.558 2.998M43.294 73.475c7.715-1.239 15.95 6.956 16.79 18.47.56 11.472-1.12 15.43-3.398 18.428M48.17 111.852c3.719-.92 4.558.32 5.957.92 1.44.88 5.957.28 5.957.28M104.617 33.78c-2.839-2.399-9.914-12.353-8.755-16.59 0-2.12 6.196 1.798 7.635 4.237.56.88 1.68 2.399 1.96 3.318.279.28.839.28 1.118 1.2.28.599-.56.879-.28 1.199v1.798c0 .32 1.12.32 1.12.92 0 1.2-1.68 1.519-2.519 1.799 1.12.92 1.96 1.799 1.68 2.998M109.094 22.586c2.279 3.038 4.277 6.077 7.116 10.314 1.399 2.718 4.837 7.875 7.355 9.394 2.279 1.52 3.718.6 6.556 1.52 2.838.919 7.356 3.637 7.915 4.837M7.316 104.936c-1.72-2.438-2.559-5.476-2.839-8.474l-.28-.32c-.879-.6-2.558-1.84-3.118 0-.32.6 1.96 1.839-.32 2.438 1.72.88 1.16 2.119.6 3.318 1.4.32 1.4 1.24 1.959 2.119 0 .6-.28.92 0 1.519 0 .32.88.6 1.16 1.24.559.879.559 1.518 1.119 2.398.6.6 1.159 2.119 1.719 2.758 1.119 1.52 3.677 2.719 5.396 2.998h.84c-1.68-2.398-3.398-5.436-6.236-9.994M150.549 64.96c-.6 2.48 1.16 3.399 2.039 3.678M133.28 58.325c2.278 0 3.117-2.12 3.957-2.719-.56-.6-.56-3.038-3.078-3.358-2.559-.32-3.678 3.038-4.837 2.759 1.159.28 1.998 3.318 3.957 3.318M112.252 56.806c.56 4.797-1.4 5.396 2.518 8.394M121.966 73.755c5.397 4.238 8.235 6.316 11.913 6.037M142.594 70.637c.88 5.197 1.998 8.195.32 14.871M144.033 71.597c1.159 4.237 1.719 13.312 3.438 15.43M145.792 72.476c.56 2.439.84 7.316 3.038 9.754M110.213 51.05c-1.639-1.2-3.038-4.238-5.277-9.115" fill="none" stroke="#333" stroke-width=".79951543px" stroke-linecap="round" stroke-linejoin="round" stroke-miterlimit="4" stroke-dasharray="none" stroke-opacity="1"/><path d="M131 55.286c0-1.678 1.2-3.038 2.679-3.038 1.48 0 2.678 1.36 2.678 3.038 0 1.68-1.199 3.039-2.678 3.039-1.48 0-2.678-1.36-2.678-3.039" fill="none" stroke="#333" stroke-width=".79951543px" stroke-linecap="round" stroke-linejoin="round" stroke-miterlimit="4" stroke-dasharray="none" stroke-opacity="1"/><path clip-path="url(#a)" d="M152.268 61.683c-2-2.439-4.837-5.157-6.796-7.276-1.999-2.438-6.236-8.475-8.515-10.314-2.279-1.799-5.117-3.038-8.795-4.837-3.677-1.519-3.957-3.957-5.676-7.875-3.118-5.757-2.559-12.113-3.958-18.469C116.81 6.836 112.572.76 111.133 1.4c-1.4.88-3.958 8.155-3.958 11.793-.28 3.638 0 5.157 1.44 8.795l.559.6c-1.44-1.8-3.118-3.918-5.397-6.077-4.517-4.237-10.753-6.956-11.633-6.356-.84.92-1.399 8.795 2.279 14.87 3.118 5.438 8.515 12.393 10.473 16.95l.28.6c-.56 2.719-5.916 3.038-8.754 2.719-3.119-.28-12.473-2.719-17.31-5.437-5.117-2.719-18.988-6.076-30.901-3.318C22.706 41.375 10.793 56.206 5.677 82.55c-1.68 6.356-2.28 16.07 1.719 22.426 3.957 6.357 5.956 9.994 7.915 12.433 2.278 2.718 11.633 3.038 16.75 3.638 5.076.6 10.193-.92 12.472-.92 2.558 0 9.354.92 14.751 1.52 5.357.599 13.592.919 14.431.919 1.44-.92 5.677.28 7.676-.92 1.958-.92 2.238-1.519 2.238-1.519-1.679-2.438-7.075-4.557-8.754-5.437-1.72-.919-3.718-1.838-4.558-1.838-1.119.32-7.915.32-10.193.32 1.399 0 3.957-.32 5.396-2.12.56-.32.84-.639 1.12-1.239v.32l.28-.32c.56-.6 1.119-.879 1.718-1.199.84.32.56 1.52.84 2.119.28-2.119 1.999-2.439 3.398-1.799.84-1.52 2.278-.92 3.398-1.24 1.719 0 2.278-.599 3.957.6 0-.28 0-.6.28-.6h.6c2.238.92 11.593 6.677 15.59 9.395 4.238 2.439 8.795 5.157 11.314 6.076 2.558.6 5.676.88 7.675.88 1.999 0 2.838-.28 3.678-.28.84 0 .84-.6.84-.6 1.438.28 1.998-.92 1.998-.92 1.12 0 1.4-1.198 1.4-1.198s-2.24-1.52-4.238-2.439c-1.68-.6-4.518-1.799-5.957-1.2-1.679.6-3.398-1.518-3.398-1.518 2.559-.32 6.237-.32 8.235-.32 1.96.32 4.797-.6 4.238-.88 1.719.28 2.558-.919 2.558-.919s-1.439-1.839-3.398-2.438c-1.999-.6-3.957-1.52-4.837-2.12-2.558-1.798-14.151-.599-15.03-.599-.56 0-2.24-2.438-1.68-3.318.56-.92 5.677.28 8.195 0 .32-.32.88-.32 1.44-.32 0 0 0 .32.28.32s.559-.32.839-.92c.28 0 .88 0 1.16-.32 1.398 1.24 3.957-1.798 4.237.32.28-.599.28-1.518.839-1.838.28.32.88.32 1.16.64.559-1.24 1.398 0 2.238-.64.88-.28 1.16-1.48 1.999-1.799 1.12-.32 1.719 0 2.558-.6.84-.6.84-1.839 1.999-.92.28-1.198 1.4-1.798 2.518-1.518 0-1.2.88-3.038 2.28-2.119.559-1.2.279-4.237 2.558-3.638-.28-.88-.28-1.799-.28-2.398 1.119-2.439 1.959-5.157 2.278-7.276 2.239-1.24 3.398-5.756 5.957-5.477 2.238 0 3.677-.879 5.077-1.798 1.439-1.2 4.277-3.958 5.117-6.077 0 0 .839 0 1.119-.88.56-.919.84-4.237-1.4-6.355" fill="none" stroke="#333" stroke-width=".79951543px" stroke-linecap="round" stroke-linejoin="round" stroke-miterlimit="4" stroke-dasharray="none" stroke-opacity="1"/><path d="M71.157 111.892c-1.12-.32-4.517-.32-6.516 0 0 0 0 0 0 0-1.72.92-3.398 1.24-4.557 1.24 2.278 0 9.074 0 10.233-.32.84 0 2.839.92 4.518 1.839.6.28 1.998.919 3.398 1.798 0-.28 0-.6-.56-1.199-.56-.6-5.677-2.758-6.516-3.358" fill="none" stroke="#333" stroke-width=".79951543px" stroke-linecap="round" stroke-linejoin="round" stroke-miterlimit="4" stroke-dasharray="none" stroke-opacity="1"/><path d="M112.852 57.405c-.56-.32-1.12 0-1.12.6 0 .64.56.32.56.64.84 1.519.28 2.118-1.4 1.838M114.57 64.72c.56 2.12-2.798.6-.56-.919M122.566 74.355c.28 0 .28-.24.56-.24M133.28 80.111c.24-1.758-1.68-1.758-1.4-.28M106.096 34.38h.8M109.214 51.649c.32-.28 1.439-.88 1.16-1.48-.28-.599-1.44 0-2 0 .56-.32 1.44-1.798.84-2.718-.28-.6-1.999 0-2.319.92M138.396 47.731c-.28.32-1.439 1.52-1.999 1.24-.88-.32.28-1.52.28-2.12-.56 0-1.16.6-1.719.88-.88-.88-.28-2.119-.28-3.038M44.293 74.435c0-.92.28-1.799.56-2.399.56.88.28 2.399 1.12 3.318.559-.6 1.678-3.957 2.238-3.637 1.679 0 1.12 4.237.28 5.116M48.77 111.373c-.32 2.318 1.48 1.159 1.76.32M72.876 115.21c-.56.96-.84 1.56-.84 2.199.84.28 1.4-.64 1.92-1.24M115.37 109.534c0 .64.28 1.239.56 1.838M119.927 113.691c0-.28 0-.88.32-.88" fill="none" stroke="#91d294" stroke-width="1.6789824px" stroke-linecap="butt" stroke-linejoin="miter" stroke-miterlimit="8" stroke-dasharray="none" stroke-opacity="1"/></svg>