<svg xmlns="http://www.w3.org/2000/svg" version="1.0" viewBox="0 0 102.085 130.356"><defs><clipPath clipPathUnits="userSpaceOnUse" id="a"><path d="M1.28.64h101.937v130.4H1.28z"/></clipPath></defs><path clip-path="url(#a)" d="M93.164 68.498c-4.338-13.032-8.455-11.433-14.412-11.892-5.936-.46-19.648 2.518-19.648 2.518s-.92-2.518-3.897-3.897c-2.979-1.36.46-5.937.46-5.937 2.278 1.14 13.711 7.995 24.005.46 10.293-7.556 4.797-21.967 1.839-23.566-2.979-1.599-12.353-15.55-15.79-18.309C62.301 5.137 54.806 1.24 46.071 1.48c-9.374.22-16.01 10.514-16.01 10.514-8.455 9.614-17.83 30.201-20.128 35.458-2.279 5.257-6.396 17.85-7.535 27.464-1.16 9.594 1.599 47.111 26.983 52.608 25.365 5.476 31.541 2.518 48.011-10.294 16.45-12.812 20.108-35.698 15.77-48.73zM68.359 83.15C65.5 90.165 58.345 94.743 55.886 95.322c0 0-3.937-1.479-1.699-4.177 2.219-2.679 6.176-4.917 4.058-9.714-2.06-4.857-5.897-7.556-6.296-8.935-.34-1.3-2.579-3.658-2.579-3.658s6.076-.74 6.176-2.218c0 0 3.558 7.035 8.515 6.636 4.917-.36 7.156 2.858 4.298 9.894z" fill="#f9dcdc" fill-rule="evenodd" fill-opacity="1" stroke="none"/><path d="M55.686 49.21c-.5-.24-1.02-.98-1.579-1.379-.74-.5-1.539-.74-2.398-.86-.92-.1-1.72.06-2.619 0-1.14-.04-2.118-.16-3.198.4-1.539.8-2.898 1.96-4.437 2.799-1.2.7-2.459 1.599-3.318 2.698-.56.8-1.26 1.539-.4 2.399.8.74 1.939 1.359 2.858 2.058 2.04 1.6 4.278 3.698 4.278 6.616.1 4.617-5.417 4.518-8.155 2.459-1.48-1.08-2.918-2.579-3.878-4.118-1.2-1.819-1.32-3.937-1.659-5.936-.16-1.08-.4-2.279-1.02-3.198-.459-.74-1.259-1.26-1.758-1.939-1.5-1.939-.46-4.637.28-6.636M34.12 64.261c-.5.62-.06 1.2.18 1.779.339.86.439 1.779.399 2.698-.18 1.9-2.439 2.859-4.197 2.699-2.34-.18-3.239-1.78-4.098-3.858-1.36-3.218-3.578-5.157-6.916-5.796-.22-.06-.34-.12-.58-.18M56.246 95.202c-.56-.18-1.26.4-1.879.58-.86.28-1.679.44-2.538.74-1.48.44-2.859 1.079-4.298 1.698-1.659.74-3.438.98-5.237 1.38-1.319.28-4.297.78-5.396-.18" fill="none" stroke="#343434" stroke-width=".31980619px" stroke-linecap="round" stroke-linejoin="miter" stroke-miterlimit="8" stroke-dasharray="none" stroke-opacity="1"/><path d="M28.203 121.007c1.539-.44 1.719-1.7 1.38-3.458-.36-1.94-1.16-3.998-2.64-5.317-1.199-1.02-2.518-2.159-3.037-3.758-.52-1.659-.1-3.877 0-5.576.06-1.6.06-3.658.979-5.077.86-1.38 2.518-1.44 3.997-1.44 2.799 0 5.317 1.2 7.496 2.859 1.08.86 1.999 1.879 3.098 2.798 1.36 1.02 3.658 1.54 5.317 2.039 2.059.7 4.177 0 6.236-.38 1.6-.3 3.258-.76 4.797-1.2.58-.179 2.699-1.258 2.739-1.098" fill="none" stroke="#343434" stroke-width=".31980619px" stroke-linecap="round" stroke-linejoin="miter" stroke-miterlimit="8" stroke-dasharray="none" stroke-opacity="1"/><path d="M27.423 75.015c-.24-.3-.24 1.718-.12 2.338.18 1.1.8 2.479 1.5 3.338 1.339 1.66 2.838 1.26 4.557 1.72-2.239 2.677-1.04 7.954 3.058 7.734-1.719.56-3.458-.46-4.377-1.839-1.1-1.659-.34-2.978-.24-4.697-4.558.12-4.737-5.276-4.737-8.435z" fill="#eacaca" fill-rule="evenodd" fill-opacity="1" stroke="none"/><path d="M54.527 30.222c-3.378-1.48-4.417 1.139-4.697 4.097-.3 2.479.56 5.317 3.038 6.636 2.798 1.46 3.478-2.278 4.397-4.197 1.14-2.279.52-4.717-1.659-6.017-.4-.24-1.079-.34-1.539-.52z" fill="#f9eded" fill-rule="evenodd" fill-opacity="1" stroke="none"/><path d="M50.25 20.108c-.74 2.278-3.298 3.358-5.357 4.097-2.119.86-4.697 2.619-6.596 3.938-1.939 1.42-3.718 2.998-5.657 4.477-1.879 1.44-4.117 2.159-5.896 3.638M48.41 30.581c-.739 1.04-3.177 2.599-4.357 3.638-1.04.94-4.057 2.839-4.357 4.038M25.704 99.9c1.66.799 3.099 1.359 4.538 2.658 1.419 1.359 2.338 3.118 3.538 4.637 1.379 1.699 2.758 2.898 4.637 3.918.98.56 4.757 1.739 4.797 1.699" fill="none" stroke="#ddbbba" stroke-width=".31980619px" stroke-linecap="round" stroke-linejoin="miter" stroke-miterlimit="8" stroke-dasharray="none" stroke-opacity="1"/><path d="M85.428 77.473c-.08.24-.08.54-.08.78 1.04.3.78-1.22.34-1.02zM85.968 80.071c-1.42.52.9 2.479 0 0zM83.69 85.748c-.22.24-.5 1.24-.26 1.639.16.28 1.099.84 1.479.62.22-.1.44-.96.4-1.24-.22-.62-.9-.5-1.4-.78zM81.27 92.224c-.359.7-1.258 1.16-1.438 1.959.84.58 1.739 1.32 2.758 1.719.28-.68.18-1.999-.18-2.698-.3-.62-.72-.56-1.38-.92zM77.633 97.9c-1 .76-1.64 1-.58 2 .58.52 1.96 2.318 2.719 1.339.46-.7.06-1.98-.58-2.339-.52-.3-1.34-.46-1.919-.7zM73.036 103.597c.42-.52.3-.94.92-1 .419-.06 1.099.3 1.498.48 1.26.46.86 1.56.58 2.779-.28 1.16-1.04 2.199-1.719.7-.4-.94-1.04-1.86-1.04-2.799zM67.52 108.514c0-1.259 1.678-2.458 2.897-1.939 1.22.52 2.299 1.44 2.139 2.919-.12.96-1.859 2.218-2.838 2.398-.74.16-.86-.06-1.16-.74-.4-.859-.8-1.718-.979-2.638zM62.242 112.712c.3-.64 1.12-.82 1.76-.64.579.12 1.398.3 2.038.52 1.539.52 1.639 1.899.6 2.938-2.459 2.359-4.098-.46-4.638-2.758zM55.526 115.19c.98-1.619 3.318-.1 4.358.74.56.44 1.139 1 1.359 1.659.28.68.18.84-.28 1.459-.64.84-2.239 2.278-3.198 1.22-1.26-1.34-.98-3.899-2.179-5.298zM50.01 117.349c.42-.56 1.739-1.14 2.478-1.14.86 0 1.32.96 1.78 1.76.859 1.399 1.418 2.938.619 4.517-.62 1.279-2.339 1.559-3.558.78-.9-.56-.8-1.98-.96-2.939-.18-.84-.36-1.859-.3-2.698zM44.713 117.229c.8-.1 1.599-.7 2.358-.4.92.4 1.38 1.52 1.54 2.379.36 1.16.919 4.357.06 5.357-1.2 1.319-3.159.06-3.558-1.28-.28-.94-.28-2.098-.34-3.018 0-.76-.36-2.338-.06-2.978zM42.774 118.248c-.46-.52-2.698-.22-3.038.36-.36.58 0 1.959 0 2.639.06.979.06 2.318.34 3.238.34.919 1.259 1.079 2.118 1.039.98-.06 1.16-.58 1.2-1.44.06-1.218.46-5.656-1.2-5.836zM34.799 117.449c1.12-.12 2.998.12 3.238 1.14.22.799.22 3.577-.66 4.097-.22.16-1.159.12-1.519 0-.48-.12-1-.62-1.359-1.02-1.12-1.259 0-2.118.42-3.478zM26.044 114.05c.86.8 1.82.92 1.6 2.38-.06.739-.34 3.337-1.2 3.457-.92.16-1.659-1.419-1.959-2.098-.46-1.18.82-2.04 1.44-3.059zM23.246 109.953c.82-.06 1.979 1.06 1.879 2-.06.679-.62 1.458-.94 2.058-.34.72-.72 1.719-1.379 2.219-1.339.939-1.719-.78-1.779-1.88-.12-1.618 1.16-2.718 2.279-3.717zM20.767 104.537c1.22 1.279 2.14 2.298 1.62 4.137-.28.88-.8 1.5-1.32 2.259-.4.68-.76 1.839-1.499 2.238-1.16.56-2.498-1.779-2.498-2.818.06-1.1 1.059-2.019 1.679-2.878.58-.74 1.039-1.6 1.799-2.239zM17.59 100.859c.659.18 1.518 1.659 1.738 2.338.38 1.02-.34 1.76-.9 2.559-.559.86-2.698 4.137-4.037 3.758-.46-.12-1.139-1.42-1.239-1.78-.24-.739-.24-1.698-.06-2.438.4-1.639 2.419-3.518 3.878-4.197zM13.372 95.582c.92.36 2.179 2.199 2.019 3.298-.12.56-.76 1.08-1.1 1.54-.52.759-1.039 1.798-1.779 2.258-.74.5-.64.22-1.039-.42-.62-.98-1.44-1.839-1.2-3.098.18-.92.8-1.04 1.5-1.62.56-.399.98-1.018 1.539-1.438z" fill="#f6e7e7" fill-rule="evenodd" fill-opacity="1" stroke="none"/><path clip-path="url(#a)" d="M73.835 60.084s28.383 25.484-19.268 51.648" fill="none" stroke="#ddbbba" stroke-width=".31980619px" stroke-linecap="round" stroke-linejoin="miter" stroke-miterlimit="8" stroke-dasharray="none" stroke-opacity="1"/><path d="M59.044 59.204s-5.836 2.479-3.658 7.036" fill="none" stroke="#343434" stroke-width=".31980619px" stroke-linecap="round" stroke-linejoin="miter" stroke-miterlimit="8" stroke-dasharray="none" stroke-opacity="1"/><path d="M55.326 33.06c-1.419-.94-3.318-1.999-4.157.22-.76 1.639-.24 3.678.62 5.137.4.7.74 1.399 1.599 1.519.98.16 1.659-.54 2.278-1.24 1.14-1.279 1.54-3.317.58-4.717-.28-.4-.64-.7-1.04-.919z" fill="#ddbbba" fill-rule="evenodd" fill-opacity="1" stroke="none"/><path d="M53.368 29.062s3.597 2.18 2.938 7.996c0 0 1.539-6.037-2.938-7.996z" fill="#fff" fill-rule="evenodd" fill-opacity="1" stroke="none"/><path d="M54.007 32.82c0-.22.28-.4.6-.4.34 0 .6.18.6.4 0 .24-.26.4-.6.4-.32 0-.6-.16-.6-.4zM49.05 35.938c0-.92.76-1.679 1.68-1.679.939 0 1.678.76 1.678 1.68 0 .939-.74 1.678-1.679 1.678-.92 0-1.679-.74-1.679-1.679zM52.888 29.902c0-.28.22-.52.48-.52.28 0 .48.24.48.52 0 .3-.2.52-.48.52-.26 0-.48-.22-.48-.52z" fill="#fff" fill-rule="evenodd" fill-opacity="1" stroke="none"/><path d="M49.21 19.948c-.8 1.799-3.238 2.998-4.957 3.638-2.059.8-3.818 1.559-5.536 2.938-1.78 1.499-3.318 3.338-5.197 4.717-.96.7-2.279 1.5-3.358 2.079-1.32.64-2.859 2.139-4.298 2.298 2.519-1.379 5.037-3.038 7.096-4.997 1.939-1.858 3.198-4.377 5.477-5.776 1.759-1.02 3.937-1.959 5.876-2.519 1.6-.52 2.918-1.439 4.218-2.018zM48.25 29.622c-1.818 1.26-3.297 2.838-5.176 4.138-2.239 1.479-3.718 2.958-5.377 4.817 1.6-4.857 6.576-6.217 10.454-8.955z" fill="#f6e7e7" fill-rule="evenodd" fill-opacity="1" stroke="none"/><path d="M49.37 68.878c-.68-.86-1.479-.6-2.438-1.08-.92-.439-1.48-1.218-2.519-1.718" fill="none" stroke="#343434" stroke-width=".31980619px" stroke-linecap="round" stroke-linejoin="miter" stroke-miterlimit="8" stroke-dasharray="none" stroke-opacity="1"/><path d="M25.844 99.12c.34.46 2.459.76 3.338 1.2.96.579 1.82 1.198 2.639 2.058 1.879 1.939 2.638 4.337 5.097 5.716 1.199.68 2.818 1.64 4.257 1.36 1.14-.22 2.678-1.54 2.399-2.739-.46-1.819-4.598-3.657-6.017-4.677-2.138-1.539-4.137-3.198-6.776-3.758-1.099-.3-6.036-1.898-5.396.68zM52.708 91.864c-.28-3.098 3.538-4.757 3.318-8.115-.22-3.777-2.678-6.416-4.737-9.214-1.999-2.619-3.998-5.077-7.476-5.357-2.858-.3-5.716.68-7.895 2.459-1.479 1.259-5.656 3.697-3.478 6.156.86.98 2.339.76 2.979 1.999.74 1.379-.4 2.918-.58 4.357-.28 1.879.18 2.618 1.719 3.658 1.3.84 2.099 1.699 3.018 3.138 2.239 3.358 4.737 5.756 9.075 5.596 2.178-.12 4.976-2.398 4.057-4.677zM37.177 51.829c-2.878 2.798.7 4.737 2.659 6.396 1.719 1.479 4.017 6.276 1.2 7.475-2.82 1.18-5.997-2.578-7.077-4.737-.82-1.659-2.898-10.394 1.04-9.814.62.12 1.319.92 1.479 1.599zM21.967 60.184c2.118 1.039 4.137 2.638 5.177 4.837.5 1.159.859 3.517 1.998 4.197 1.44.86 3.438-.62 2.939-2.179-.18-.7-1.1-1.499-1.44-2.198-.52-1.04-.7-2.239-.859-3.398-.46-3.338-1.1-10.714-6.196-9.494-3.458.799-4.038 6.036-1.34 7.895zM59.484 48.21c.4-.299 3.318 1.42 4.297 1.7 1.82.58 4.518 1.14 6.476.8 2.799-.5 5.437-1.7 7.896-3.139 5.676-3.198 6.875-11.993 3.398-17.19-1.72-2.518-4.318-4.217-6.437-6.336-2.338-2.218-4.117-4.677-6.076-7.135-1.939-2.399-4.237-5.437-7.096-6.636-1.259-.5-2.578-1.2-3.617-.1-.8.9-.74 2.398-.74 3.478-.06 5.197 3.658 9.074 3.658 14.271 0 3.378-1.14 6.456-2.339 9.594-1.319 3.538-2.018 7.716.86 10.694z" fill="#f6e7e7" fill-rule="evenodd" fill-opacity="1" stroke="none"/><path d="M9.194 65.98c-.12-1.559 1.2-3.558 2.579-4.237 1.439-.7 3.738.28 4.777 1.479 1.2 1.539 1.2 4.237 1.719 6.016.7 2.339 1.619 4.178 2.938 6.236 1.959 3.198 3.858 6.276 6.036 9.315 1.32 1.838 3.498 4.297 1.56 6.396-1.74 1.839-4.318 2.638-6.037 4.697-.86 1.1-1.1 2.338-2.718 2.338-2.059-.04-2.978-2.458-3.718-4.057-1.799-4.118-3.977-8.115-5.237-12.413-1.1-3.817-2.598-8.334-2.658-12.292 0-1.48.52-2.738.64-4.178zM54.007 4.317c-2.398.24-4.977-.52-7.435-.28-3.198.28-6.796 1.08-9.375 3.019-6.116 4.637-9.714 11.893-13.092 18.568-2.898 5.837-5.596 11.773-8.454 17.65-1.02 2.178-3.778 5.896-3.199 8.395 1.04 4.737 5.137-2.859 5.717-4.058 1.659-3.658 3.478-7.136 5.377-10.673 1.759-3.478 3.078-6.736 6.176-9.255 2.219-1.879 4.737-3.538 6.796-5.656 2.159-2.279 4.397-4.518 6.976-6.337 2.458-1.718 4.857-1.878 7.715-2.518 1.699-.34 3.718-1.48 4.517-3.138.84-1.779.56-5.437-1.719-5.837zM67.679 59.824c-3.138 0-10.953.34-9.694 5.716.58 2.619 4.337 3.538 6.496 4.338 2.219.8 4.337 1.779 5.976 3.478 4.677 4.757.24 11.952-1.919 16.79-.76 1.778-4.617 5.656-3.477 7.715 1.479 2.678 9.274-6.336 10.193-7.756 4.278-6.576 6.257-17.15 2.559-24.285-1.939-3.818-6.216-6.456-10.594-5.996z" fill="#f7e2e1" fill-rule="evenodd" fill-opacity="1" stroke="none"/><path d="M29.522 95.662c.56-1.38 6.376 1.56 7.276 2.179 1.719 1.099 5.976 1.499 7.455-.1-1.419-.06-2.898-.12-4.157-.92-1.24-.82-1.92-1.799-3.458-2.198-.92-.18-8.615-1.28-7.516 1.219zM24.905 99.58c-.52 2.358-.58 4.857-.64 7.255 0 2.699 2.659 4.058 4.138 6.057 1.299 1.719 1.579 3.438 2.019 5.476 0-1.639-.72-3.697-1.4-5.297-.68-1.659-1.858-2.578-2.998-3.937-1.02-1.38-1.02-3.318-1.02-4.977v-4.218z" fill="#eacaca" fill-rule="evenodd" fill-opacity="1" stroke="none"/><path d="M70.557 58.085c-2.258 0-4.257.52-6.416.7-1.879.24-4.557.799-6.076 1.898-1.72 1.14-2.459 3.278-1.88 5.297.62 2.399 2.96 3.378 4.039 5.217-2.28-3.378-5.017-7.875.1-10.294 1.878-.92 3.537-1.38 5.576-1.599 1.66-.18 3.238-.7 4.557-.98zM33.54 9.454S39.716 1.4 49.73 3.018c10.054 1.56 17.31 8.375 17.31 8.375s-9.775-7.056-17.31-7.395c-10.874-.52-16.19 5.456-16.19 5.456zM25.225 98.54c.18-.74 1.399-1.02 2.098-1.119 1.04-.24 2.2-.12 3.298 0 2.499.22 4.338 1.559 5.957 3.278-.34-.16-.58-.5-.92-.72-.52-.38-1.099-.56-1.619-.899-.979-.54-1.439-1-2.598-1.16-1.34-.18-2.499.16-3.778.34-.46.04-2.198.6-2.378.04zM28.743 100.859c1.619.94 2.838 2.139 3.977 3.538 1.28 1.379 2.199 2.998 3.858 3.977-.86-.86-1.84-1.559-2.579-2.538-.64-.74-1.219-1.44-1.838-2.139-.82-.92-2.02-2.478-3.298-2.718zM34.759 119.448c-.18-.44.24-1 .58-1.28.46-.44.8-.32 1.379-.22 1.14.28.98 1.54.86 2.579-.18-.76-.06-1.699-.98-2.019-.52-.16-1.84-.16-1.72.72zM39.916 120.367c.06 0 .1-.04.1-.1-.96-1.739 3.038-2.698 2.938 0-.52-.56-.8-1.18-1.639-1.18-.62-.06-1.34.28-1.34.96zM50.63 118.528c-.78-.9.619-1.659 1.339-1.819.959-.18 1.499.48 1.718 1.34-.72-1.02-2.938-.86-3.318.38zM57.065 116.85c-.52-.62-1.219-1.8-.22-2.08.8-.24 2.3.5 2.519 1.24-.62-.28-3.338-.9-2.518.46zM68.179 108.754c-.82-1.759 1.899-2.858 2.858-1.26-.56-.06-1.26-.379-1.839-.159-.56.16-.96.92-.74 1.519zM77.713 100.06c-.24-.28-.88-1.14-.64-1.48.28-.36 1.1-.06 1.32.16-.86-.16-1.68.76-.68 1.32zM83.91 87.347c-.12-.26-.4-1.44.319-.9-.44.06-.52.48-.32.74zM12.912 97.001c.42-.06.42-.56.82-.6.58-.18.64.38.88.76.619.88.619 1.04.219 2.019-.46-1.08-.06-1.959-1.5-2.299zM16.91 101.419c1.02-.24 2.318 1.838 2.638 2.478-1.22-.28-1.399-1.999-2.518-2.299zM23.546 110.713c.78-.34 1.359.54 1.139 1.18-.24-.54-.18-1.4-1.08-1.18z" fill="#fff" fill-rule="evenodd" fill-opacity="1" stroke="none"/><path d="M32.26 59.924c.7 1.339 1.26 2.538 2.18 3.697.799 1.04 1.898 1.68 2.917 2.479 1.02.8 2.12 1.22 3.438 1.26 1.2 0 2-.68 2.899-1.26-.96.52-2.34.4-3.358.4-1.32-.06-2.18-.74-3.258-1.44-1.14-.739-2-1.678-2.919-2.758-.58-.7-1.139-1.499-1.899-2.019zM27.104 48.25c0 .98.1 1.96.62 2.819.379.68 1.119 1.26 1.558 1.879 1.3 1.779 1.42 4.257 1.46 6.416-.44-1.3-.22-2.798-.84-4.117-.44-.98-1.06-1.66-1.74-2.519-.439-.64-1.238-1.38-1.458-2.179-.12-.62-.06-1.479.12-2.118zM20.328 61.323c.18.24 1.539.52 1.998.7.62.34 1.02.799 1.58 1.259.959.92 1.579 1.779 2.218 2.918.56 1.16.96 2.418 1.76 3.398.379.56.839.68 1.458.86.74.1 1.36-.24 2.039-.12-1.46.12-2.878-1.2-3.618-2.36-.96-1.378-1.539-2.917-2.658-4.177-1.14-1.319-3.018-2.598-4.837-2.358zM42.015 57.765c.76 1.16 1.878 2.059 2.518 3.258.46.92.7 1.939.76 2.918.06.46-.06.9-.06 1.36 0 .639.12.679.7 1.079.459.36.919.64 1.518.86.64.28 1.5.28 2.079.679-.92-.68-2.319-.84-3.198-1.7-1.1-.979-.4-2.737-.82-4.057-.58-1.699-1.798-3.418-3.378-4.337zM38.417 100.38c.98.599 1.779 1.378 2.858 1.858 1.14.48 2.239.9 3.378 1.26 1.32.399 2.858.18 4.217.24.98 0 1.9-.24 2.799-.48.92-.3 1.839-.84 2.738-1.02-.9.54-2.279.3-3.298.48-1.659.24-3.498.24-5.197.12-1.439-.06-2.858-.36-4.117-.96-.98-.48-2.339-.66-3.138-1.259z" fill="#eacaca" fill-rule="evenodd" fill-opacity="1" stroke="none"/><path d="M14.431 95.742c.86 1.14 2.779 2.958 1.54 4.477 2.038.06 4.477 2.099 4.537 4.258 1.339-1.08 2.358 1.699 2.818 2.538-.74-1.02.22-2.318-.96-3.098-1.239-.8-2.098-1.42-2.998-2.678-.52-.68-.86-.96-1.539-1.3-.68-.34-.96-.44-1.299-1.179-.56-1.14-.9-2.378-2.039-2.958zM51.529 115.83c1.779-.3 2.638-.24 3.777 1.18-.18-.78-.64-1.54 0-2.28.34-.44 1.26-.68 1.82-.839 1.778-.46 2.678.68 4.157 1.36-.9-1.02.34-2.4 1.04-3.199 1.139-1.18 2.438-1.18 3.877-.74-.64-.839.06-1.579.4-2.318.4-.92.46-1.659 1.239-2.299-1.42.18-2.219 2.519-3.238 3.378-.58.5-1.26.74-1.999 1.02-.86.4-1.32.86-1.939 1.479-1.199 1.14-2.618.24-4.097.86-.64.22-.98.739-1.6 1.079-.699.4-1.438.46-2.118.68-.28.12-.56.279-.86.399z" fill="#d8a9a9" fill-rule="evenodd" fill-opacity="1" stroke="none"/><path d="M39.096 55.446c-.86-.1-1.559-1.019-1.139-1.918.44-.92 1.819-1.38 2.578-1.94 1.72-1.199 3.658-2.098 5.557-3.117 1.779-.92 3.838-1.1 5.777-.36.58.24 1.499.7 1.778 1.319.4.86-.28 1.819-.46 2.618-.559 2.619 1.6 3.798 3.039 5.577 1.14 1.52-1.38 3.458-1.66 5.117-.179.84-.119 1.819-.279 2.658-.18.98-.76 1.42-1.619 1.88-.62.339-1.779.959-2.518.739-.4-.12-.56-.52-.92-.68-.4-.28-.96-.46-1.419-.62-1.839-.739-1.839-1.938-1.839-3.817 0-.86.12-1.76-.24-2.559-.28-.52-.8-.899-1.259-1.359-.96-.98-1.719-1.719-2.918-2.278-1.02-.52-1.939-.86-2.978-1.42z" fill="#eacaca" fill-rule="evenodd" fill-opacity="1" stroke="none"/><path d="M42.714 56.406c-1.22-.28-4.857-2.339-3.338-3.698.74-.7 2.239-.98 3.158-1.38.94-.399 2.019-.859 2.998-.919-1.379.64-4.037.8-4.657 2.579-.36 1.14.22 2.858 1.26 3.418zM53.268 75.354c1.779 2.239 4.577 5.177 4.697 8.215.04 1.36-.52 2.739-1.38 3.718-.459.52-.979 1.04-1.478 1.5-.34.339-1.2 1.598-1.66 1.718 0 0 0 .04-.06.04.62-.56 1.02-1.659 1.54-2.398.34-.52.8-1.04 1.139-1.6.58-1.159.7-2.818.52-4.077-.28-2.518-2.179-4.937-3.378-6.996zM45.053 67.2c.98.919 2.458.979 3.498 1.718.959.7 2.098 2.239 2.498 3.318-1.08-.68-1.939-2.059-2.958-2.918-.68-.44-2.679-1.26-2.918-1.999zM88.746 62.242s12.273 21.327-2.918 44.134c0 0 13.212-19.489 2.918-44.134zM24.745 21.067S2.798 53.987 3.258 80.031c.44 26.065 12.812 41.595 19.328 44.334 0 0-16.13-11.713-18.129-38.377-2.018-26.624 18.01-62.003 20.288-64.92z" fill="#ddbbba" fill-rule="evenodd" fill-opacity="1" stroke="none"/><path d="M63.681 51.988s18.829 4.418 21.507-13.411c0 0-2.058 15.99-21.507 13.411z" fill="#fff" fill-rule="evenodd" fill-opacity="1" stroke="none"/><path d="M51.369 97.341s15.05-2.319 18.629-17.75c0 0-.96 15.551-18.63 17.75z" fill="#eacaca" fill-rule="evenodd" fill-opacity="1" stroke="none"/><path d="M40.256 57.925c1.299.76 2.598 2.079 3.278 3.358.52 1.08 1.519 3.618.18 4.477.44-1.539-.06-3.398-.8-4.837-.62-1.08-1.639-1.839-2.479-2.698zM33.54 64.081c-.78 1.32 2.158 6.156-1.12 6.156.4-.38.74-.62.9-1.239.12-.52.22-1.04.16-1.599-.04-.58-.94-2.678-.16-2.958zM41.535 49.17c.42.04.98-.5 1.379-.72.7-.38 1.32-.759 1.959-1.199a7.105 7.105 0 0 1 4.177-1.319c-1.599 0-3.098 0-4.457.82-.58.34-1.1.72-1.679 1.099-.46.28-.96.94-1.38 1.1zM38.577 57.885c0-.36.38-.68.84-.68.479 0 .839.32.839.68 0 .38-.36.68-.84.68-.46 0-.84-.3-.84-.68z" fill="#fff" fill-rule="evenodd" fill-opacity="1" stroke="none"/><path d="M40.016 59.644c0-.24.28-.44.6-.44.34 0 .599.2.599.44 0 .26-.26.44-.6.44-.32 0-.6-.18-.6-.44zM31.86 67.08c0-.36.28-.68.6-.68.34 0 .6.32.6.68 0 .38-.26.679-.6.679-.32 0-.6-.3-.6-.68zM31.54 68.798c0-.22.2-.4.44-.4.26 0 .44.18.44.4 0 .24-.18.4-.44.4-.24 0-.44-.16-.44-.4zM64.401 52.048c0-.36.36-.68.8-.68.46 0 .799.32.799.68 0 .38-.34.68-.8.68-.44 0-.799-.3-.799-.68zM62.402 51.249c0-.28.3-.52.64-.52.36 0 .64.24.64.52 0 .3-.28.52-.64.52-.34 0-.64-.22-.64-.52zM28.423 101.379c0-.54.34-1 .72-1 .4 0 .719.46.719 1 0 .56-.32.999-.72.999-.38 0-.72-.44-.72-1zM29.862 76.793c0-.879.72-1.599 1.599-1.599.9 0 1.599.72 1.599 1.6 0 .899-.7 1.598-1.6 1.598-.879 0-1.598-.7-1.598-1.599zM33.7 79.392c0-.64.52-1.16 1.159-1.16.66 0 1.16.52 1.16 1.16 0 .66-.5 1.16-1.16 1.16-.64 0-1.16-.5-1.16-1.16zM79.672 57.765c2.518 0 4.597.7 6.576 2.119 1.339 1.02 1.859 2.218 2.498 3.638.64 1.379 1.7 3.078 1.8 4.557-1.22-1.24-1.44-3.178-2.14-4.657-.64-1.26-1.219-2.339-2.338-3.139-.8-.58-1.859-1.019-2.778-1.419-1-.4-2.1-1.039-3.199-1.099z" fill="#fff" fill-rule="evenodd" fill-opacity="1" stroke="none"/><path d="M74.275 62.122c1.739.42 3.618.76 5.277 1.28-.66 1.339-1.1 2.978-1.66 4.237M79.872 70.417c.939-.3 1.619.78 1.978 1.46-.58.62-1.219.999-1.279 1.858.92.38 1.8.72 1.919 1.92.1.839-.7 1.678-.12 2.458M63.082 108.254c.52-1.259 1.599-5.156 3.038-5.556.56-.12 1.819.64 2.159.8" fill="none" stroke="#f9dcdc" stroke-width="1.0393701px" stroke-linecap="round" stroke-linejoin="miter" stroke-miterlimit="8" stroke-dasharray="none" stroke-opacity="1"/><path clip-path="url(#a)" d="M93.164 68.498c-4.338-13.032-8.455-11.433-14.412-11.892-5.936-.46-19.648 2.518-19.648 2.518s-.92-2.518-3.897-3.897c-2.979-1.36.46-5.937.46-5.937 2.278 1.14 13.711 7.995 24.005.46 10.293-7.556 4.797-21.967 1.839-23.566-2.979-1.599-12.353-15.55-15.79-18.309C62.301 5.137 54.806 1.24 46.071 1.48c-9.374.22-16.01 10.514-16.01 10.514-8.455 9.614-17.83 30.201-20.128 35.458-2.279 5.257-6.396 17.85-7.535 27.464-1.16 9.594 1.599 47.111 26.983 52.608 25.365 5.476 31.541 2.518 48.011-10.294 16.45-12.812 20.108-35.698 15.77-48.73zM68.359 83.15C65.5 90.165 58.345 94.743 55.886 95.322c0 0-3.937-1.479-1.699-4.177 2.219-2.679 6.176-4.917 4.058-9.714-2.06-4.857-5.897-7.556-6.296-8.935-.34-1.3-2.579-3.658-2.579-3.658s6.076-.74 6.176-2.218c0 0 3.558 7.035 8.515 6.636 4.917-.36 7.156 2.858 4.298 9.894z" fill="none" stroke="#343434" stroke-width=".31980619px" stroke-linecap="round" stroke-linejoin="miter" stroke-miterlimit="8" stroke-dasharray="none" stroke-opacity="1"/><path d="M27.623 44.573c.48.18 1.76.94.88 1.16-.52.18-1.06-.4-1.6.06.42.799 1.3 1.378 1.54 2.298M19.308 60.883c-.08.58.3 1 .36 1.52.12.12.24.16.44.16 0-.34.18-.62.48-.74M28.763 121.886c.06 0 .06 0 .06-.04-.22-.58-.56-1.419-.56-2.039.56.06 2.099 2.04 2.478 1.58.22-.28-.5-.74-.6-.96-.439-.46-.719-.84-1.159-1.3.28.06 2.04-1.019 2.08-1.079M54.787 103.417c-.06-.86.18-1.899.42-2.778.34.42.58.88.8 1.34.299.519.759 1.558 1.458 1.598.18-.4.12-1.08.12-1.539-.06-.64-.12-1.339-.12-1.979.06.24.18.52.24.82.12.52.46 1.439.92 1.779.58.36.3-.62.24-.98-.06-.22-.18-.58-.3-.8M45.373 97.82c.819.58 1.918 1.52 2.878 1.52 0-.76-.8-1.46-1.26-1.999" fill="none" stroke="#f9dcdc" stroke-width=".31980619px" stroke-linecap="butt" stroke-linejoin="miter" stroke-miterlimit="8" stroke-dasharray="none" stroke-opacity="1"/></svg>