<svg xmlns="http://www.w3.org/2000/svg" version="1.0" viewBox="0 0 364.195 293.291"><defs><clipPath clipPathUnits="userSpaceOnUse" id="a"><path d="M.48 2.478h363.78v293.503H.48z"/></clipPath></defs><path d="M264.12 14.271c0-4.837 5.437-8.974 9.334-9.874 4.418-1.079 8.495-1.079 12.733.36 2.038.72 4.417 1.62 6.116 2.878 2.358 1.62 1.699 2.339-.68 2.879-4.077.9-8.315 1.079-12.392 1.799-2.199.36-9.155.36-10.354 1.619z" fill="#faf7f7" fill-rule="evenodd" fill-opacity="1" stroke="none"/><path d="M264.12 14.271c0-4.837 5.437-8.974 9.334-9.874 4.418-1.079 8.495-1.079 12.733.36 2.038.72 4.417 1.62 6.116 2.878 2.358 1.62 1.699 2.339-.68 2.879-4.077.9-8.315 1.079-12.392 1.799-2.199.36-9.155.36-10.354 1.619" fill="none" stroke="#343434" stroke-width=".63961238px" stroke-linecap="round" stroke-linejoin="round" stroke-miterlimit="4" stroke-dasharray="none" stroke-opacity="1"/><path d="M264.12 14.271c0-4.837 5.437-8.974 9.334-9.874 4.418-1.079 8.495-1.079 12.733.36 2.038.72 4.417 1.62 6.116 2.878 2.358 1.62 1.699 2.339-.68 2.879-4.077.9-8.315 1.079-12.392 1.799-2.199.36-9.155.36-10.354 1.619" fill="none" stroke="#343434" stroke-width=".63961238px" stroke-linecap="round" stroke-linejoin="round" stroke-miterlimit="4" stroke-dasharray="none" stroke-opacity="1"/><path clip-path="url(#a)" d="M243.592 20.887s8.475-7.975 29.882-12.132c9.335-1.82 19.528-8.155 28.863-2.899 9.514 5.257 43.473 29.343 54.847 50.15 11.193 20.648 3.897 23.186-1.2 26.064-4.917 2.899-28.343 20.648-34.459 17.21-7.815-4.338-15.11-1.999-16.81-6.336-1.879-4.338-8.994-4.158-14.95-.9-5.777 3.258-15.95 11.393-18.85 13.032 0 0-3.897 6.696-1.178 17.01 2.718 10.334 8.494 30.062 14.25 33.5 5.957 3.258 14.272 9.054 15.631 13.751.34 1.82-.5 2.719-.5 2.719s0 1.459-4.417.18c0 0-3.058 2.358-6.456.54 0 0-2.898 1.818-5.257.2 0 0-2.718.719-4.417-2.18-1.539-2.898 1.02-7.435-1.359-12.492-2.558-5.257-10.694-13.392-10.694-13.392s.66 11.573 1.68 13.932c1.019 2.178 6.296 4.337 5.776 8.515 0 0-.16 1.798-3.058 1.079-2.878-.72-8.815-.9-11.533-.54-2.559.54-3.738-.18-3.738-2.538 0-2.179 3.398-9.594 2.199-13.932-1.36-4.177-4.577-21.906-5.777-23.366 0 0-8.475-6.696-10.513-9.054 0 0-9.175 2.718-14.272 2.179-5.257-.54-13.412 3.977-15.27 13.751-2.04 9.774-7.316 21.007-23.606 26.264 0 0 5.936 2.339 8.834 2.539 3.039.18 4.917 3.258 2.379 4.697 0 0 6.956.72 5.936 5.617 0 0 1.18 3.437-2.558 3.797 0 0 .18 1.999-4.058 2.359 0 0-1.199 4.877-4.077 2.178-2.898-2.898-18.17-9.414-26.504-9.414-8.135 0-22.746-2.538-26.644-2.179-3.738.18-10.534 3.259-11.213-1.998-.5-2.899 1.539-6.516 1.539-6.516s-8.335-5.797-14.951-4.158c-6.616 1.8-31.081 15.75-67.739 15.21-36.678-.359-40.256 10.674-38.716 18.65 1.519 7.775 9.674 16.11 21.387 16.83 11.553.719 21.906 9.054 20.887 26.983-1.02 17.91.84 49.23 31.58 57.385 2.88.72 1.86 1.8-1.019 1.8-2.878 0-29.881-4.698-36.338-48.152-3.557-22.446-1.019-23.905-16.13-28.422-15.11-4.338-28.523-11.773-29.382-27.524-1.02-15.75 11.053-27.883 39.576-30.401 28.523-2.359 59.424-1.1 64.68-33.68 5.278-32.78 7.137-57.405 48.052-73.875 41.095-16.47 50.949 3.618 89.665-32.04z" fill="#faf7f7" fill-rule="evenodd" fill-opacity="1" stroke="none"/><path clip-path="url(#a)" d="M243.612 20.907s8.475-7.995 29.862-12.152c9.355-1.8 19.548-8.155 28.863-2.879 9.514 5.237 43.493 29.303 54.847 50.13 11.193 20.668 3.917 23.186-1.2 26.064-4.917 2.918-28.343 20.668-34.459 17.23-7.795-4.358-15.11-1.999-16.79-6.356-1.879-4.318-8.994-4.158-14.95-.88-5.797 3.238-15.951 11.393-18.87 13.032 0 0-3.877 6.676-1.158 16.99 2.718 10.354 8.474 30.062 14.23 33.5 5.957 3.278 14.272 9.074 15.631 13.751.36 1.84-.48 2.719-.48 2.719s0 1.479-4.437.2c0 0-3.038 2.358-6.436.52 0 0-2.918 1.838-5.277.2 0 0-2.718.719-4.397-2.16-1.559-2.918 1-7.435-1.359-12.512-2.558-5.237-10.714-13.392-10.714-13.392s.68 11.593 1.68 13.952c1.039 2.158 6.316 4.317 5.796 8.515 0 0-.16 1.798-3.078 1.079-2.878-.72-8.795-.92-11.513-.56-2.559.56-3.758-.16-3.758-2.518 0-2.199 3.398-9.594 2.199-13.952-1.36-4.157-4.558-21.906-5.757-23.346 0 0-8.475-6.716-10.513-9.074 0 0-9.195 2.718-14.272 2.199-5.277-.56-13.432 3.957-15.27 13.751-2.04 9.754-7.316 20.987-23.626 26.264 0 0 5.956 2.319 8.834 2.519 3.039.2 4.917 3.278 2.359 4.717 0 0 6.996.72 5.956 5.597 0 0 1.2 3.437-2.558 3.797 0 0 .2 1.999-4.038 2.359 0 0-1.199 4.877-4.077 2.158-2.918-2.878-18.19-9.394-26.504-9.394-8.155 0-22.746-2.518-26.664-2.159-3.718.16-10.514 3.239-11.193-1.998-.52-2.919 1.519-6.516 1.519-6.516s-8.315-5.797-14.951-4.158c-6.596 1.8-31.061 15.75-67.759 15.19-36.658-.359-40.216 10.674-38.696 18.67 1.519 7.755 9.674 16.11 21.387 16.83 11.553.719 21.906 9.034 20.907 26.983-1.04 17.91.84 49.21 31.58 57.365 2.879.72 1.84 1.8-1.039 1.8-2.878 0-29.861-4.678-36.338-48.132-3.557-22.466-.999-23.905-16.11-28.422-15.11-4.358-28.543-11.793-29.382-27.544-1.04-15.75 11.033-27.863 39.576-30.421 28.503-2.319 59.404-1.08 64.68-33.66 5.278-32.78 7.117-57.405 48.052-73.875 41.095-16.47 50.929 3.638 89.665-32.02" fill="none" stroke="#343434" stroke-width=".63961238px" stroke-linecap="round" stroke-linejoin="round" stroke-miterlimit="4" stroke-dasharray="none" stroke-opacity="1"/><path d="M308.253 33.14c-5.756-2.898-10.174-7.615-14.75-11.973-1.88-1.639-3.399-4.177-5.777-4.897-3.738-1.28-8.835 2.539-12.053 4.178-4.757 2.178-11.033 2.898-15.27 6.156-3.918 3.098-5.957 8.715-2.9 13.252 1.36 1.999 3.239 4.357 5.438 4.897 2.878.54 6.116-.18 8.834-.36 2.379-.18 4.917-.54 7.116-1.08 2.718-.739 5.097-2.358 7.815-2.738 2.039-.36 6.117.56 7.476 2.359.16.2.16.2 0-.36" fill="none" stroke="#343434" stroke-width=".63961238px" stroke-linecap="round" stroke-linejoin="round" stroke-miterlimit="4" stroke-dasharray="none" stroke-opacity="1"/><path d="M298.18 35.219c-1.34-1.84-6.097-4.038-8.476-4.598-4.417-.919-7.995 0-12.072 0" fill="none" stroke="#343434" stroke-width=".63961238px" stroke-linecap="round" stroke-linejoin="round" stroke-miterlimit="4" stroke-dasharray="none" stroke-opacity="1"/><path d="M291.303 30.981c-1.699.18-3.238-.56-5.116.18-3.059 1.1-5.617 4.178-8.875 4.537" fill="none" stroke="#343434" stroke-width=".63961238px" stroke-linecap="round" stroke-linejoin="round" stroke-miterlimit="4" stroke-dasharray="none" stroke-opacity="1"/><path d="M335.597 52.888c-.5-.36-1.18-.54-1.86-.92-.34 0-.679-.36-1.019-.54-.34 0-.84 0-1.179-.18-.86-.379-2.898-2.957-1.2-3.497 1.36-.38 2.38 1.839 3.059 2.938.18.56.52.92 1.02 1.48.18.18.34.36.519.54.16 0 .5.179.5.179z" fill="#d20e1c" fill-rule="evenodd" fill-opacity="1" stroke="none"/><path d="M335.597 52.888c-.5-.36-1.18-.54-1.86-.92-.34 0-.679-.36-1.019-.54-.34 0-.84 0-1.179-.18-.86-.379-2.898-2.957-1.2-3.497 1.36-.38 2.38 1.839 3.059 2.938.18.56.52.92 1.02 1.48.18.18.34.36.519.54.16 0 .5.179.5.179" fill="none" stroke="#343434" stroke-width=".15990309px" stroke-linecap="butt" stroke-linejoin="miter" stroke-miterlimit="8" stroke-dasharray="none" stroke-opacity="1"/><path d="M335.597 52.888c-.5-.36-1.18-.54-1.86-.92-.34 0-.679-.36-1.019-.54-.34 0-.84 0-1.179-.18-.86-.379-2.898-2.957-1.2-3.497 1.36-.38 2.38 1.839 3.059 2.938.18.56.52.92 1.02 1.48.18.18.34.36.519.54.16 0 .5.179.5.179" fill="none" stroke="#343434" stroke-width=".15990309px" stroke-linecap="butt" stroke-linejoin="miter" stroke-miterlimit="8" stroke-dasharray="none" stroke-opacity="1"/><path d="M329.28 47.051c-.64.2-.48 1.48-.48 1.84.16.739.96 2.558 1.44 2.558M334.157 50.41c.18.719 1.44 1.059 1.98 1.419.36.18 1.059 1.059.18 1.219M337.675 52.728c.4.36.4 1.08 0 1.44" fill="none" stroke="#343434" stroke-width=".31980619px" stroke-linecap="round" stroke-linejoin="miter" stroke-miterlimit="8" stroke-dasharray="none" stroke-opacity="1"/><path d="M330.48 50.01c-.18-.18.36-.56.54-.56.34 0 .699 0 .879.18.18.2.54.38.72.58.18 0 .18.18.34.36 0-.36-.16-.74-.34-.94-.36-.18-.54-.38-.72-.74-.36-.2-.7-.76-1.24-.959-.18 0-.36 0-.54.2-.359.18-.359.38-.359.56 0 .56.54.939.72 1.319z" fill="#821418" fill-rule="evenodd" fill-opacity="1" stroke="none"/><path d="M332.019 49.91c-.18-.18-.18-.34-.18-.52.18-.18.36-.18.54 0 0 0 .18.34 0 .52 0 .18-.18.34-.18.18z" fill="#fff" fill-rule="evenodd" fill-opacity="1" stroke="none"/><path d="M333.998 53.807c1.219-.36 2.578.5 3.797.68.68 0 1.2-.18 1.88-.18.339 0 1.039.18 1.198.34" fill="none" stroke="#343434" stroke-width=".31980619px" stroke-linecap="round" stroke-linejoin="miter" stroke-miterlimit="8" stroke-dasharray="none" stroke-opacity="1"/><path d="M352.067 79.832c1.019-1.04 2.178-1.92 3.178-2.979.34-.7 1.998-1.419 2.338-.18.16.7-.84 1.4-1.499 1.58-1.18.54-2.838.36-3.498 1.579z" fill="#343434" fill-rule="evenodd" fill-opacity="1" stroke="none"/><path d="M270.036 106.216c.18-1.26 1.02-2.699 1.52-3.798.52-1.799 1.019-3.438 1.678-5.077M241.973 119.328c-.999-1.08-1.839-2.339-2.678-3.418-.84-.74-3.518-4.178-4.197-3.798M251.248 127.483c1.699.38 3.218.74 4.917 1.1 2.538.539 4.057 4.336 5.077 6.495 1.019 2.179 2.198 4.158 3.058 6.156.66 1.44 1.519 3.418 2.858 4.318M294.502 172.336c0-1.76-.72-2.639-1.44-4.238M288.425 172.655c-.34-1.399-1.22-2.278-1.919-3.518M283.148 173.215c-.34-1.42-.7-1.959-1.599-3.038M191.844 137.637c-2.039 1.279-4.078 1.998-5.957 3.438-2.038 1.798-3.558 4.157-5.436 6.316-1.54 1.998-3.238 3.797-5.277 5.416-1.879 1.82-4.258 2.539-6.636 3.258-2.559.9-4.937 1.98-7.316 2.879-2.378.74-4.937 1.639-7.315 2.538-1.54.54-3.398 1.26-4.438 2.698 0-.18 0-.18.18-.36" fill="none" stroke="#343434" stroke-width=".63961238px" stroke-linecap="round" stroke-linejoin="round" stroke-miterlimit="10" stroke-dasharray="none" stroke-opacity="1"/><path d="M148.05 158.664c0 1.28-.34 2.538.18 3.798.68 1.439 2.379 1.798 3.738 2.158 2.378.72 4.917 1.44 7.455 1.62 8.655.719 17.31 1.798 25.965 2.158 2.898.18 5.776 0 8.654 0 1.2 0 2.379-.18 3.398 0 .86 0 2.379-.18 2.879.18" fill="none" stroke="#343434" stroke-width=".63961238px" stroke-linecap="round" stroke-linejoin="round" stroke-miterlimit="10" stroke-dasharray="none" stroke-opacity="1"/><path d="M189.525 160.663c-3.558 1.639-7.635 2.558-11.373 3.657-3.058.9-5.956 2.539-9.015 2.899M198.56 180.65c-.16-1.219-.68-3.337-2.08-3.517M202.797 178.172c-.34-1.24-1.24-1.959-2.478-2.319M205.515 174.974c-.32-.96-.999-1.719-1.998-1.919M199.679 168.098c-1.08-.88-1.619-1.399-2.878-1.759M131.92 162.741c-.34-.54 3.738-4.697 4.417-5.416 1.7-1.8 2.879-4.338 3.059-6.856.16-2.898-1.7-4.717-3.059-6.876-1.359-2.179-3.398-5.417-5.097-6.516" fill="none" stroke="#343434" stroke-width=".63961238px" stroke-linecap="round" stroke-linejoin="round" stroke-miterlimit="10" stroke-dasharray="none" stroke-opacity="1"/><path d="M137.237 144.832c-2.719-2.238-6.116-.34-9.355-.34h.18M323.684 76.074c-4.398 1.439-10.834-1.46-15.071-1.999-6.616-.92-13.572-3.838-20.188-2.378M317.368 82.47c-3.738 1.08-7.496 1.26-11.413 1.619-4.598.36-9.555.72-13.992 2.319-1.859.54-3.578 1.619-5.457 2.138M321.205 87.467c-.84-.2-4.757 4.697-5.776 5.417-2.739 2.338-5.457 4.517-8.175 6.856-1.54 1.099-3.578 2.358-4.278 4.157M329.66 74.135s-.14.42.14.42c.14-.2.14-.42.28-.84-.28-.44-.42 0-.72.2M319.127 70.617c.52 0 .7.18 1.199.18v-.56c-.34 0-.34.38-.5.38M320.486 79.272c0 .2.2.38.2.56.2-.56 0-.36 0-.36M328.321 81.65c0 .34-.52 0-.36.34.52-.16.18 0 .52-.7-.52-.18-.68.18-1.04.36M325.523 86.887c0 .18.18.36.36.54.52-.54 0-.54-.18-.72M333.438 84.229c.16.24.16.24 0 0M312.73 79.472c.32.36.32.18.16-.2M333.278 78.273c.14.18 0 .52.56.18-.28-.54-.42 0-.56 0" fill="none" stroke="#343434" stroke-width=".63961238px" stroke-linecap="round" stroke-linejoin="round" stroke-miterlimit="10" stroke-dasharray="none" stroke-opacity="1"/><path d="M358.063 67.759c-2.139 1.42-4.118 3.198-5.277 5.676M329.36 42.974c.52.54 2.399 1.26 3.418 1.599 1.7.54 3.398.9 4.418 2.478v-.16" fill="none" stroke="#343434" stroke-width=".31980619px" stroke-linecap="round" stroke-linejoin="round" stroke-miterlimit="10" stroke-dasharray="none" stroke-opacity="1"/><path d="M254.026 34.979c1.02 3.098 1.54 5.836 3.758 8.375 2.039 2.378 4.097 4.017 7.155 3.658 3.418-.38 6.836-1.64 10.234-2.2 2.399-.539 6.996-1.458 8.695.92-3.578-.18-6.476-.36-9.874.9-3.418 1.1-6.836 2.918-10.234 3.098-6.996.36-10.593-8.375-10.234-14.751zM267.018 9.094c0 .36-.18.54.34.54 2.359-.72 4.537-1.459 7.076-1.999 2.018-.56 5.217-.92 6.716-2.398-4.378 2.019-9.415 1.479-13.632 3.498zM283.868 31.301c-1.18.38-3.058.56-4.237 1.28-1.54.899-2.399 2.358-4.098 3.257-1.859.74-10.214 2.179-11.233 0-1.54-3.438 7.155-3.258 8.854-3.618 2.899-.72 5.617-.919 8.675-.919zM296.58 35.498c-4.237-3.118-6.956-4.037-11.713-1.459-3.238 1.64-8.674 6.217-12.592 4.218 4.257 3.278 9.694.9 13.612-1.3 1.699-.899 4.077-2.738 6.116-2.738 1.36 0 3.218 2.019 3.898 1.84zM328.74 46.332c-1.019.54-1.199 1.999-1.019 3.278.34 1.639 1.02 2.199 2.04 3.278-1.02-.36-2.22-1.819-2.9-2.718-.859-1.46-.339-3.478 1.02-4.398zM327.621 40.815c-.18.92 1.34 2.359 1.84 2.918.679.54 1.518 1.08 2.178 1.26 1.18.54 2.359.54 3.538 1.279 1.16.72 2.498 2.359 2.498 3.978-1-2.16-3.178-3.438-5.356-4.158-1-.56-2.02-.74-2.859-1.639-.66-.72-1.839-1.819-1.679-2.898zM332.239 54.347c.86 0 1.539-.18 2.398 0 .68.18 1.2.36 1.7.36 1.698.34 3.577.16 4.936 1.379-1.18-.68-3.058-.52-4.597-.34-.84 0-1.36 0-2.219-.34-.34-.18-1.859-.7-1.859-1.059zM336.316 51.129c.62.54.92 1.779.62 2.479.74-.34.3-2.479-.46-2.479zM333.398 49.01c-.68.56 1.639 2.819 1.799 3.558-.82-.56-1.979-2.438-2.139-3.758zM358.303 65.68c-1.36.92-2.898 1.64-4.258 3.118-1.719 2-3.258 4.558-4.457 7.116 1.04-.72 1.2-4.018 1.72-5.117 1.018-2.558 3.077-5.477 5.975-5.676z" fill="#e1e2ea" fill-rule="evenodd" fill-opacity="1" stroke="none"/><path d="M353.086 76.833c2.179-.36 3.198-2.518 5.377-.18 1.02 1.08 1.519 1.26 2.358-.36.68-1.258.84-2.698.68-4.137 0-1.259 0-2.698-.84-3.598-1.339-1.279-1.679.54-2.698 1.62-1.519 1.439-5.896 3.417-5.557 6.116 0 .36.18.36.18.54z" fill="#f9d2dd" fill-rule="evenodd" fill-opacity="1" stroke="none"/><path d="M238.615 117.889c-3.717 1.978-9.314.54-13.392 1.079-4.917.72-10.173 3.438-13.052 8.155-5.596 9.054-7.815 33.86-23.086 25.904-6.276-3.438-2.878-8.694 1.54-11.952 5.756-4.358 9.154-10.874 14.41-15.77 6.277-5.797 12.393-9.415 20.708-9.415 3.558 0 10.334-1.999 12.712 1.639.16.18.16.18.16.36z" fill="#f8e4ea" fill-rule="evenodd" fill-opacity="1" stroke="none"/><path d="M195.222 137.677c-1.2.54-2.219 1.639-3.418 2.538-1.36.72-2.879 1.26-4.418 2.179-3.577 1.998-6.296 6.156-9.014 9.414-3.578 4.177-8.335 5.796-13.272 7.615-3.578 1.08-7.316 2.359-10.893 3.258-.68.18-1.36.18-1.54 1.1 3.758.18 7.316.9 10.894 1.619 3.058.54 6.816.54 9.694-1.08 4.597-2.538 9.534-4.897 14.631-6.536 3.578-1.079 8.515-1.259 11.233-4.157 3.078-3.078 4.937-6.516 6.476-10.514.68-1.819 2.879-7.075 1.7-8.694-.86-1.1-4.758 1.259-5.797 1.818zM274.534 97.84c-.84 1.08-1.36 3.059-1.7 4.298 2.54-.88 5.597-3.398 7.796-4.657 2.358-1.6 4.737-3.938 6.756-5.737-2.019.54-4.218 2.16-6.256 3.059-2.359 1.079-4.558 1.978-6.596 3.577zM137.477 151.868c-.34 2.379-2.879 5.836-4.917 6.756-2.379 1.1-5.777-.92-8.335-1.46-4.078-.919-7.136-.359-11.034.72a72.187 72.187 0 0 0-12.052 3.838c-2.559.92-4.757 2.379-7.136 3.278-1.36.56-3.238.92-4.257 1.819 6.116-1.999 12.412-7.096 18.189-10.214 4.917-2.538 10.173-2.538 15.45-2.918 3.558-.36 6.117-1.64 8.995-3.458 2.378-1.46 4.237-2.199 5.257 1.28z" fill="#f8e4ea" fill-rule="evenodd" fill-opacity="1" stroke="none"/><path d="M149.29 154.626c-.86 2.339-.5 5.797.34 7.955 2.738-1.798 5.996-2.718 8.914-3.797 1.699-.72 3.078-1.64 4.777-2.179 1.38-.54 3.438-1.08 4.617-1.979-5.117 1.08-9.754 3.258-14.71 4.877-1.2.56-3.079 1.64-3.759.36-.86-1.619 0-3.798 0-5.437zM132.58 163.86c-.68.38-.86 2.36-.86 3.459 0 1.439.68 2.338 2.199 2.518 1.519.18 3.218-.36 4.737-.54 2.199 0 4.557.36 6.576.18-1.52-.36-3.038-.9-4.717-1.08-1.52-.179-2.878 0-4.397 0-1.18 0-2.2 0-2.859-1.258-.52-.56-1.359-2.359-.68-2.719zM123.645 144.672c1.699.74 3.398 1.46 5.257 1.1 1.519 0 2.878-.54 4.397-.72 3.878-.18 4.897 2.359 4.737 6.176.32-3.458-3.398-5.456-6.096-5.636-2.878-.18-5.756 1.999-8.295-.18zM128.062 135.078c1.54.92 2.739 3.098 4.118 4.357 1.38.9 2.059 2.36 2.738 3.798-.34-.36-.84-.9-1.359-1.08-.7-.179-1.719 0-2.398-.359-1.56-1.08-2.24-4.717-3.279-6.336zM174.094 166.979c2.719-2.019 7.136-2.759 10.354-3.498 2.878-.74 6.436-.74 9.315.38-1.34.92-3.039.92-4.398 1.459-1.519.74-2.378 2.378-3.738 2.378-1.858-.18-3.897-.9-5.936-.9h-4.397zM192.004 179.111c1.019.74 4.737 3.698 5.416 2.779.66-.92-.18-2.399-.86-2.779-.839-.38-2.697 0-3.697 0zM203.117 176.433c0-.72.48-1.26 1.12-1.459.16 1.1-.64 1.999-1.76 1.819zM198.96 178.872c.679.34 1.818-.18 2.478-1.06-.66-.36-1.48 0-1.799.7zM253.326 129.282c.7-.2 2.06 0 2.739.36.86.36 1.2 1.079 1.699 1.978 1.199 2.359 3.078 4.537 4.437 7.076 2.559 4.897 4.078 10.494 3.578 16.29-.68-3.078-1.699-7.236-4.937-8.695-1.04-.36-1.719 0-2.738 0-1.02-.18-1.02-1.079-1.18-2.158-.52-2.899-1.04-5.797-1.879-8.515-.18-1.1-.52-2.179-.68-3.258-.18-.74-.339-2.179-.679-2.719zM256.884 164.2c-.16.94-.68 2.06.34 2.599.86.56 2.199.2 3.218 0 2.039 0 4.058-.18 6.096.38 1.7.36 3.378.36 5.077.18 3.378-.36.68-3.518-1.019-4.458.34 3.158-4.897 2.239-6.436 1.86-1.68-.18-2.539 0-4.058.379-1.019.18-1.859-.38-2.878-.38zM279.01 169.837c0-.18 0-.18-.179-.18.34.72 1.699 2.679 2.718 2.159-.16-.36-.5-.54-.68-.9-.339-.36-.499-.899-.679-1.079-.34-.54-.84-.54-1.18-.18zM282.569 169.297c-.7.56 3.078 4.957 3.917 2.579.34-.74-.34-.36-1.019-.74-.68-.18-1.54-.72-2.059-1.1zM288.125 169.157c-.18-.18.32 1.42.48 1.76.66 1.059 1.5 1.578 2.638 1.578.5 0 2.3-.34 2.14-1.219-.66-.36-1.48-.18-2.3-.36-.979 0-1.638-.52-2.638-.88zM294.262 167.698c0 1.06.7 3.178 1.739 3.718.86.52 2.398 0 2.398-1.24.34-2.478-2.918-.359-3.618-1.418.18-.34.18 0 .36 0zM263.8 137.956c.86 1.82 1.7 4.198 3.038 5.817 1.18 1.459 2.679 2.558 3.858 3.818 1.36 1.459 2.698 2.738 3.538 4.557a93.653 93.653 0 0 0 2.678 5.796c-.66-1.619-1.16-3.258-1.839-4.897-1.02-2.358-2.358-4.537-3.857-6.536-2.02-2.738-5.397-4.557-6.896-7.455zM314.33 95.422c1.019.36 1.698-1.08 2.558-1.619 1.18-.72 1.36-.36 2.718-.18 3.058.36 6.616.36 9.674-.18 3.738-.9 6.796-3.777 10.014-5.936 2.219-1.799 5.277-4.138 7.976-5.037-2.539 4.138-7.796 6.836-11.374 9.714-2.378 1.979-4.757 3.418-7.635 4.318-2.199.72-4.577 1.798-6.956 1.439-2.378-.36-4.077-1.98-6.796-1.98zM311.351 95.102c1-.36 1.52-1.459 2.199-2.178.5-.38 1.02-.56 1.34-1.1-.84.36-2.02.36-2.86.36-.859 0-1.538.18-2.198 0-.86 0-1.699-.36-2.378-.72-1.36-.739-2.199-2.558-3.558-3.297-1.18-.54-2.359-.74-3.558-.36 1.36 0 2.718 1.279 3.738 2.178.68.92 1 2.02 1.859 2.759 1.519 1.279 3.378 1.459 5.077 2.358zM327.042 58.824c-2.379-.18-4.757-.9-7.296-.9-3.078.18-5.277 1.08-8.175 2.36-4.417 1.998-7.995 4.896-9.874 9.794 1.38-11.254 16.17-14.712 24.505-10.894zM337.036 67.44c2.518 4.137 3.518 10.253 1.339 14.55 2.498-.88 2.179-6.096 1.839-8.435-.16-1.619-2.659-5.216-2.499-5.756z" fill="#e1e2ea" fill-rule="evenodd" fill-opacity="1" stroke="none"/><path d="M281.89 56.965c-9.835-7.435-19.689 4.338-25.286 11.773-11.033 14.472-34.439 13.392-49.37 19.009-10.014 3.798-17.829 9.954-26.304 16.47-7.475 5.616-16.97 5.437-25.784 6.336-10.014 1.08-28.863-2.898-34.28 10.494-2.897 7.055 5.258 8.514 10.175 8.874 6.795.54 12.212.36 18.668 2.359 7.136 2.159 12.393 1.979 18.829-2.359 7.815-5.257 13.911-12.672 21.547-18.289 6.636-4.877 12.572-7.955 20.208-10.493 7.635-2.539 15.43-3.078 22.906-6.516 10.693-4.897 23.585-4.538 33.76-10.314 4.576-2.539 7.974-5.077 10.513-9.794 1.699-3.078 3.578-4.338 5.616-7.056 2.699-3.618 1.52-9.054-2.558-10.494z" fill="#f3f4f4" fill-rule="evenodd" fill-opacity="1" stroke="none"/><path d="M75.594 169.357s-20.547 2.719-43.473 3.258c-23.106.36-26.005 12.653-22.607 20.428 3.238 7.795 6.636 13.932 21.927 16.83 0 0-20.907 1.799-24.465-20.628-3.578-22.426 28.363-18.988 31.76-18.628 3.398.56 36.858-1.26 36.858-1.26zM42.814 221.426s3.538 5.616 4.198 15.19c.839 9.415 3.198 26.584 9.394 36.698 0 0-6.876-19.148-7.536-28.023-.84-9.034-2.018-17.889-6.056-23.865z" fill="#e1e2ea" fill-rule="evenodd" fill-opacity="1" stroke="none"/><path d="M250.668 47.97c0-.199-7.096 5.837-8.295 7.297 2.718 0 5.417-2.739 7.955-3.838-1.02 2.198-3.717 3.298-4.897 5.496 2.359 0 4.058-2.198 6.416-2.558-.84.9-1.699 1.819-2.358 2.918 1.679.72 3.198-.36 4.717-.92M271.955 53.927c-2.698 1.84-5.237 4.957-7.435 7.516 3.558-1.82 6.915-4.577 10.293-6.596-1.179 1.1-2.198 2.398-3.198 3.498 1.52-.74 2.699-1.84 4.038-2.579-.16.38-.34 1.1-.5 1.48.84-.2 1.86 0 2.519-.38 0 .38 0 .919-.16 1.279 1.859-.54 2.538.74 4.037-.36M254.206 27.403c-2.179 1.76-5.217 2.299-7.595 4.058 1.858-1.58 4.057-3.178 6.256-4.237-1.36-.88-3.718.54-5.397.54 1.34-.36 2.518-1.06 3.198-2.14-.68.36-2.019.36-2.358.36M124.125 125.724c3.238 2.178 5.956 5.596 8.015 9.194-.52-2.338-1.7-4.497-2.219-6.656 1.7.9 3.398 2.519 5.277 2.879-.52-1.08-1.2-2.34-.68-3.418.5.9 1.18 2.158 2.22 2.518.159-1.08.499-2.159 1.518-2.698 1.02 2.158 2.379 1.439 3.058-.54M181.29 131.96c-.68 2.199-2.558 3.458-3.598 5.277 2.06-.9 3.938-2.359 6.157-2.898-.86.899-2.22 1.818-2.559 2.898 1.879.72 4.437-.72 6.476-.9" fill="none" stroke="#e1e2ea" stroke-width=".47970927px" stroke-linecap="round" stroke-linejoin="miter" stroke-miterlimit="8" stroke-dasharray="none" stroke-opacity="1"/><path d="M87.327 154.426c-1.519 1.28-.84 5.297-.34 6.936 1.02 3.098 2.879 4.198 5.237 6.017-4.217-2.539-7.435-6.017-6.236-12.213zM74.975 159.543c-.68 3.458-.18 7.616 2.378 10.154-2.039-1.26-3.238-1.619-3.578-4.337-.18-1.64-.18-3.458.86-4.717zM64.88 160.103c-2.918 2.898-.34 9.554 2.4 11.353-4.118-2.338-5.677-6.476-2.919-10.973zM55.207 161.382c-3.298.9-1.48 8.595.16 10.554-3.139-2.319-4.798-7.316-1.64-9.834zM44.573 161.542c-1.36 3.058-3.238 7.556 0 10.234-3.598-2.139-3.238-7.895-.84-10.234zM33.08 163.101c-2.379 2.699-.86 7.216 1.34 9.554-.66-1.619-3.039-1.619-3.898-3.957-.34-1.1-.34-5.797 1.539-4.518zM20.008 166.659c-1.72 2.379 0 7.635 2.898 7.995-2.558-1.799-6.156-3.618-4.097-7.435zM11.133 170.737c-1.159 2.918 1.68 6.536 4.338 6.715-1.66-.54-5.677-2.898-4.498-5.076zM6.016 176.573c-1.179 2.738 3.039 6.016 5.217 6.556-2.178-.36-6.216-2.179-6.216-5.097zM41.695 213.29c-2.359-2.178-4.218 4.698-4.218 6.137.16-1.799-.18-8.115 3.378-5.956zM47.531 218.028c-2.518-.88-7.595 2.139-5.736 5.317.68-1.58 3.717-7.276 5.736-4.418zM44.893 227.822c1.559-2.379 4.497-6.076 6.396-2.019-1.38-.92-6.216-1.28-6.216 1.48zM46.592 235.977c-1.7-1.659 3.058-5.197 5.257-2.399-1.86 0-4.058-1.299-5.257 1.3zM47.211 243.732c0-2.978 3.438-3.358 4.398-.74-1.14-.379-4.058-.939-3.898 1.3zM48.25 251.927c.7-1.599 3.978-2.838 4.318-.54-1.2-1.059-2.758 0-3.798 1.06zM50.73 259.123c.18-1.3 1.678-2.598 1.998-.92-1-.2-1.819 0-1.999 1.28zM52.328 262.86c.38-.36.38-.899 1.12-.899-.74.36-.92.9-1.12 1.6zM2.718 185.608c1.18 2.498 3.858 3.038 6.357 3.038-1.66.18-7.196.88-6.177-2.319zM8.435 193.043c-1.839.18-4.517.9-5.357 2.878 1.68-1.979 3.678-2.158 5.517-2.878zM10.753 197.28c-.68 1.84-2.818 3.498-4.157 4.957 1.999-.18 3.478-3.298 4.637-4.757zM12.133 208.614c-.18-1.8 1.059-5.217 2.458-6.137 0 2.179-1.759 4.158-2.099 6.316zM17.27 211.632c-.36-1.82.18-4.558 1.798-5.477-.72 1.839-3.597 4.018-1.978 6.556zM24.505 213.91v1.1c-.18-1.82.9-4.558 2.319-5.657-.88 1.28-3.038 5.477-1.42 6.556z" fill="#e1e2ea" fill-rule="evenodd" fill-opacity="1" stroke="none"/></svg>