<svg xmlns="http://www.w3.org/2000/svg" version="1.0" viewBox="0 0 665.877 247.975"><defs><clipPath clipPathUnits="userSpaceOnUse" id="a"><path d="M1.2.08h665.116v248.17H1.2z"/></clipPath></defs><path d="M596.518 189.885c-12.752 8.795-18.748 27.183-23.265 42.374" fill="none" stroke="#fff" stroke-width="1.6789824px" stroke-linecap="round" stroke-linejoin="round" stroke-miterlimit="4" stroke-dasharray="none" stroke-opacity="1"/><path clip-path="url(#a)" d="M599.637 191.484c-8.235 8.835-17.95 39.256-20.228 55.246" fill="none" stroke="#fff" stroke-width="1.6789824px" stroke-linecap="round" stroke-linejoin="round" stroke-miterlimit="4" stroke-dasharray="none" stroke-opacity="1"/><path d="M601.795 197.16c-5.956 10.434-14.231 29.663-14.231 45.653M616.746 160.303c3.798-11.993 26.424-33.58 34.7-35.978" fill="none" stroke="#fff" stroke-width="1.6789824px" stroke-linecap="round" stroke-linejoin="round" stroke-miterlimit="4" stroke-dasharray="none" stroke-opacity="1"/><path clip-path="url(#a)" d="M618.265 162.062c6.037-8.795 30.782-32.02 46.532-36.858" fill="none" stroke="#fff" stroke-width="1.6789824px" stroke-linecap="round" stroke-linejoin="round" stroke-miterlimit="4" stroke-dasharray="none" stroke-opacity="1"/><path d="M619.784 165.98c7.516-7.996 32.26-19.189 39.736-22.387M622.023 170.856c6.036-4.797 24.065-10.393 27.823-11.193" fill="none" stroke="#fff" stroke-width="1.6789824px" stroke-linecap="round" stroke-linejoin="round" stroke-miterlimit="4" stroke-dasharray="none" stroke-opacity="1"/><path d="M574.092 53.288c3.718 4.797 5.237 11.992 5.996 18.389.72 3.997 2.959 12.792 2.24 18.388.719-2.398 2.238-5.596 2.238-7.995.72-4.797 0-7.995-1.52-11.992-.719-3.199-5.236-14.392-10.473-18.39l1.52 1.6z" fill="#d8d9da" fill-rule="evenodd" fill-opacity="1" stroke="none"/><path d="M382.808 187.606c-3.758.8-8.995-1.599-11.993-1.599-5.277 1.6-8.275 6.396-12.752 9.594-.76-1.599-2.998-2.398-2.998-5.596-5.997 4.797-17.23 6.396-18.749-6.396-4.477 2.398-8.235 6.396-12.752 1.599-1.48 1.599-4.477 2.398-5.996 3.997v-5.596c-2.999.8-6.716 3.198-9.715 4.797.72-3.198 2.24-7.196 2.24-11.193-5.997-1.6-8.995 1.599-13.513 5.596 0-2.398-1.479-1.599 0-8.794-4.477 2.398-5.237 2.398-8.235 5.596 2.239-2.398 0-5.596 0-9.594-2.238 0-5.237.8-6.756.8.76-.8.76-1.6 1.52-2.4-.76-.799-2.28-2.398-2.999-3.197l-.76-10.394s-4.517 3.998 7.516-49.61c11.233-53.647 66.68-93.623 116.17-100.02 8.994-.799 17.23-1.598 24.745-.799 2.998 0 5.237-.8 5.237-3.238 2.238 2.439 5.236 3.238 8.235 3.238V1.96c1.519 3.238 5.996 4.037 8.994 2.438 2.279 2.399 6.756 3.998 9.754 1.6 2.279 3.997 9.754 6.395 11.993 2.398 1.519 3.198 3.758 3.997 6.756 4.797 4.517 1.599 3.758 1.599 7.515 4.797 2.239 3.198 5.237 5.597 8.235 7.995.76-.8 1.48-2.398 1.48-3.198.759 3.198 2.278 4.797 5.276 6.396 1.48.8 5.237 3.198 7.476 3.198-.76 3.198 6.756 7.196 8.994 8.795a878.47 878.47 0 0 1 5.997 6.396c1.519 1.6 4.517 5.637 6.756 5.637 0-.84 1.479-.84 1.479-1.64 1.519 3.239 2.998 6.437 5.996 8.835.76 0 2.279 0 2.998.8.76.8.76 1.599 1.52 2.398 1.478 1.6 2.997 3.998 5.996 1.6.76 3.198 4.517 6.396 7.515 7.195 0 0 3.718 3.998 5.237 2.399 0-3.198 2.239-6.396 2.998-9.595.76-4.797 0-9.594 2.239-13.631 1.519-3.998 4.517-1.6 7.515 1.639 3.718 4.797 5.237 11.992 5.996 18.389.72 4.797 4.478 17.589.72 21.587 4.517 6.396 8.995 13.631 10.514 19.228 1.479 3.198 5.996 11.193 7.475 13.592 4.517 6.396 8.275 14.39 9.754 15.99 1.52 1.599 2.239 3.998 3.758 7.196 2.998 5.636 5.996 12.832 8.235 18.428 1.52 4.798 5.237 9.595 5.237 14.392-.72 7.195-2.998 7.995-8.235 11.992-4.477 3.198-6.756 6.397-12.752 6.397-6.716 0-14.232-2.399-20.228-4.798-10.474-5.596-26.224-11.992-38.977-13.591-5.996-.8-8.235-.8-12.752 2.398-1.479 2.399-4.477 7.196-1.479 7.995-2.279 0-5.277 0-6.756-2.398-1.519 0-.76 2.398-2.239 3.198-.76 0-2.278-.8-2.998-.8h-4.517c-2.998-.8-6.756 3.998-5.996-2.398-2.999 1.599-6.756 3.198-8.995 5.596.76-.8 1.52-2.398 2.239-3.997-2.998-3.198-15.71-.8-19.468 2.398.76-.8.76-2.398 1.479-3.997-1.48 1.599-3.718 2.398-5.997 3.198-1.479-3.998-19.468-4.797-22.466-3.198v-5.597c-2.279.8-3.758 2.399-5.996 3.198 0-.8 0-3.198.72-4.797-2.24 0-5.238.8-7.476.8 2.238-.8 3.757-3.198 3.757-5.597 0 0-5.996-2.398-4.517 2.399-1.479-.8-1.479-.8-2.998-2.399-2.239-1.599-3.758-3.997-4.477-5.596 2.998 4.797 0 7.195-4.518 10.393-5.236 3.198-5.996 3.198-11.233 3.198-2.998 0-2.998.8-5.237 2.399-.76.8-.76 2.398-2.278 2.398-2.239 0-2.998-3.198-5.237-2.398-2.239 0-4.477 2.398-5.996 3.997-.76-4.797-5.237-7.195-7.476-1.599 1.48-6.396-5.996-2.398-7.515.8 0-1.6-.76-2.399-2.239-3.198z" fill="#f5f5f6" fill-rule="evenodd" fill-opacity="1" stroke="none"/><path d="M282.509 143.393c.76-21.587 6.756-47.171 23.226-73.555 16.47-27.184 53.207-48.77 65.2-51.969-12.752 7.196-26.224 16.79-38.217 28.783-2.278 3.198-3.757 6.396-3.757 9.594-2.239-.8-3.758 1.599-5.237 3.997l.76.8-2.999.8c-.76 1.599-1.519 3.198-2.278 3.997 0 0 0 2.399-.72 3.198-.76.8-2.998 1.6-3.758 3.198-.76 1.6 0 3.198-.76 4.797 0 0-.759 2.399-1.478 2.399-.76 3.997-2.279 4.797 0 9.594-5.997 3.198-14.232 32.78-2.999 31.98-3.757 1.6-6.755 7.196-2.278 9.595-4.477 2.398-2.998 7.195-2.239 11.193 0 .8 0 .8.76 1.6 1.479 6.395 4.477 11.192 7.475 12.791.76 0 1.52-.8 2.279-1.599-.76 3.198.72 7.995 2.998 8.795 2.998 1.599 5.996-3.198 8.995-3.998.72 3.198 2.238 7.196 5.956 7.996 3.758.8 5.277-2.399 8.275-2.399.72 1.599 1.479 3.998 2.239 5.597 3.757 0 8.235-2.399 11.233-4.797 11.233 19.987 39.696 0 53.207-7.196 5.997-3.998 9.715-8.795 11.234-16.79 2.238-5.597 3.757-7.995 7.475-11.993 2.239-3.198 3.758-7.995 4.517-11.193v15.99c-.76 8.795-2.998 16.79-1.519 26.384 0 3.198 2.239 11.194 1.52 14.392-2.28 9.594-22.507 3.198-22.507 11.193-2.998-1.6-4.477-2.399-6.716.8-1.519-3.199-6.756-4.798-8.994-2.4-2.24-.799-3.758 0-5.237 0-2.998 0-5.997-1.598-8.995-2.398-5.237-.8-14.99-1.599-17.23 5.597-2.998-3.998-6.755-1.6-11.233 0-2.278.8-3.757.8-6.755 0-.76-.8-2.999-7.995-2.999-8.795-2.238-1.599-4.517 0-6.756 1.6-.76 0-2.238 1.598-2.998 1.598-1.479 0-1.479-.8-2.238-1.599-2.999-.8-4.478.8-8.235 1.6.76-4.798-2.999-4.798-5.997-2.4-.76-7.994-5.237-7.994-10.513-5.596-.72-3.997-8.235-8.794-11.234-3.997-.72-3.198-2.238-5.597-5.236-3.998 0-3.998-2.239-4.797-4.478-7.196-.76-2.398-2.278-5.596-2.278-8.794 0-2.399.76-4.797 1.519-7.196z" fill="#ececed" fill-rule="evenodd" fill-opacity="1" stroke="none"/><path d="M578.49 150.829c-2.2-12.793-11.873-13.592-14.112-6.397-.76 6.397 2.958 12.793 14.111 6.397z" fill="#d3d4d5" fill-rule="evenodd" fill-opacity="1" stroke="none"/><path d="M565.018 147.47c-.76-3.197 1.519-6.395 5.236-6.395 2.999-.8 5.997 1.599 5.997 5.596.72 3.198-1.52 6.396-4.478 6.396-3.757.8-6.755-1.599-6.755-5.596z" fill="#5c5d5f" fill-rule="evenodd" fill-opacity="1" stroke="none"/><path d="M570.414 145.992c0-.8.76-1.6 1.48-2.439 1.478 0 2.198.84 2.198 2.439.72.839-.72 2.438-1.479 2.438-1.44 0-2.199-.8-2.199-2.438z" fill="#fff" fill-rule="evenodd" fill-opacity="1" stroke="none"/><path clip-path="url(#a)" d="m280.11 165.14-.72-10.394s-.759.8-.759-4.797c-29.982-4.797-47.251 4.797-63.721 15.19-15.75 9.595-30.782 20.788-63.002 19.989-33.02-.8-54.007-8.795-72.756-15.99-20.228-7.996-36.738-13.592-61.483-6.397-5.996.8-9.754 3.198-12.752 4.797-3.758 1.6-2.998 2.399.76 2.399 1.519-.8 3.757-.8 5.996-1.599 2.998-.8 17.989-3.998 29.262-3.198 11.993 1.599 23.226 5.597 35.219 10.394 17.989 7.195 40.495 19.988 75.754 20.787 34.499.8 53.248-11.193 68.998-21.587 16.47-9.594 31.461-15.19 59.204-9.594z" fill="#e5d6c6" fill-rule="evenodd" fill-opacity="1" stroke="none"/><path d="M414.349 187.606s-.76 0-.76.8c-.76.8-.76 2.398-2.238 2.398-2.239 0-2.998-3.198-5.237-2.398-2.239 0-4.517 2.398-5.996 3.957-.76-4.757-5.237-7.155-7.476-1.559 1.48-6.396-5.996-2.398-7.515.8 0-1.6-.76-2.399-2.24-3.198v-.8c-3.757.8-8.994-1.599-11.992-1.599-3.718.8-5.996 3.198-8.994 5.597 1.519 4.757 0 6.356 5.996 7.156 5.237.76 9.754-.8 14.99-1.6 6.757-.799 17.99 0 25.466 0 3.757 0 12.712-.799 15.71 2.36-.72-3.959-3.718-4.758-6.716-6.357 2.998 0 8.235-2.359 10.474.8 1.479-8.755-7.476-5.557-13.472-6.357zM478.11 193.123c2.279-.8 4.517-1.6 5.997-3.198-.72 1.599-.72 3.198-1.48 3.997 3.758-3.198 16.51-5.596 19.509-2.398-.76 1.599-1.52 3.198-2.239 3.998 2.239-2.399 5.996-3.998 8.995-5.597-.76 6.396 2.998 2.398 5.236 2.398 2.999 1.6 5.277 3.998 5.997 7.196-5.237-5.597-17.23 0-24.745-.8-2.239 0-4.517-1.598-7.516-1.598-2.998 0-7.475 1.599-9.754-1.6-.76-.799-.76-2.398-.76-3.997 0 .8.76.8.76 1.599z" fill="#e5d6c6" fill-rule="evenodd" fill-opacity="1" stroke="none"/><path d="M605.593 177.852c1.519 1.6 2.239 1.6 3.758 3.198.76.8 1.479 1.6 2.238 2.399 1.52 1.599 2.999 3.997 4.518 5.596 1.479 3.998-1.52 3.998-4.518 5.597-.76.8-2.238 1.6-3.757 1.6-1.48 0-3.758-.8-5.997-.8-7.515 0-13.512-2.399-20.267-5.597-5.237-2.399-11.274-3.998-16.51-6.396-2.999-.8-5.237-1.6-8.275-1.6-2.24-.799-5.237-.799-6.756-1.598 3.038-.8 6.036 0 9.034 0 4.477.8 8.995 1.599 12.752 2.398 5.237.8 12.753 7.196 18.03 3.198 4.477-2.398 9.754-11.992 15.75-7.995z" fill="#d8d9da" fill-rule="evenodd" fill-opacity="1" stroke="none"/><path d="M429.3 80.391c19.508 15.99 18.748 59.924 18.748 59.924 0 3.998-.76 7.995.76 11.193 2.239 4.797 9.754 8.795 11.233 1.6 2.279 3.997 6.756 10.393 10.514 5.596-.76-.8.76 4.797 5.277 5.596 3.717 0 5.236-5.596 5.236-5.596s2.999 5.596 5.237 4.797c1.52-.8 2.998-4.797 4.518-6.396h-.76 1.52v-.8h.759c2.238-2.398.72-8.794 0-11.193.72 0 2.238 0 2.998-.8.72-.799 1.479-2.398 2.238-3.198.76-2.398 2.999-3.997.76-5.596 2.239-.8 5.237-.8 7.475-1.6 2.28-.799 6.756-1.598 7.516-3.997h.76c-1.52 3.198-2.999 4.797-5.277 7.196-2.239 1.599-5.237 3.198-7.476 5.597-1.519 1.599-1.519 2.398.72 3.198 3.038 0 6.036 0 9.034.8 0 2.398-3.757 3.997-4.517 6.395.76-.8 1.52 0 2.998 0 .76 1.6-.76 2.399-.76 3.198 1.52 1.6 3.758.8 2.999 2.399 0 1.599-.72 1.599 0 2.398 0 .8 1.519 1.6 2.278 1.6-1.519 1.598-.76 3.197 0 4.796h.76c.72.8 2.239 1.6 2.998 1.6.72 1.599-1.519 3.198 0 4.797.72.8 2.998.8 4.477 0 1.52 0 3.758 0 5.277.8-.76 1.598.72 7.195 2.998 6.395h.72c-1.48 2.399-2.998 5.597-2.998 8.755-1.48-1.56-2.239-3.158-4.477-2.359-1.52.8-1.52 3.158-2.999 3.158-.76 0-2.998-.8-3.757 0-2.239 0-4.518 0-5.997.8 1.48-1.6 1.48-5.557-.76-5.557-2.238 0-4.517 2.399-5.996 3.198 2.239-5.596-15.75 0-18.029 0h.76c-2.239-3.198-3.758-3.198-6.756-2.398-2.239.8-3.758 1.599-6.756 1.599-5.237-.8-9.754-3.198-14.99-2.399 2.238-3.198-3.759-4.797-5.238-2.398 0-3.998-2.278-3.998-4.517-2.399 2.998-1.599-.76-5.596-2.239-6.396-1.519-.8-4.517-.8-6.036.8-2.998-.8-5.237-6.396-5.996-8.795-.72-1.6-.72-3.198-.72-4.797-2.279-5.597 0-13.592 0-28.783.72-18.349-.76-29.542-8.275-45.532-8.235-15.19-33.02-20.787-46.532-19.188C390.283 64.4 409.792 64.4 429.3 80.39zM509.691 81.27c2.998-4.796 8.275-1.598 8.995-.799 6.756 3.998 14.231 6.396 17.989 15.191 2.238 6.396-1.52 15.95 3.757 19.948.72.8 2.24 1.599 2.959 3.198-2.959-.8-4.478 1.599-2.959 3.998-2.998-1.6-.76 6.356-4.517 7.155-2.998 0-6.716-3.158-7.475-5.556 0 1.599 0 2.398.76 2.398-2.999 0-5.997 2.359-8.995 0v.8c-15.75-6.396-21.747-33.54-10.514-46.332z" fill="#ececed" fill-rule="evenodd" fill-opacity="1" stroke="none"/><path d="M582.247 151.468c-3.718-11.993-8.195-17.59-18.629-12.792 4.478-4.797 17.15-7.196 18.63 12.792z" fill="#d0d1d3" fill-rule="evenodd" fill-opacity="1" stroke="none"/><path d="M571.054 155.626c-5.996 1.599-9.035-4.797-9.035-9.595-1.519 5.597 0 11.194 9.035 9.595z" fill="#fff" fill-rule="evenodd" fill-opacity="1" stroke="none"/><path d="M517.806 85.228c4.517.8 5.277 3.998 9.035 7.196 2.998 2.399 5.996 3.998 4.517 7.995-1.52 2.399-3.758 5.637-1.52 8.035 0 .8 2.28 1.6 2.28 2.399.72 1.599-1.52 3.198-2.28 3.997 3 1.6 1.52 2.399-.759 4.797-1.479 1.6-2.238 3.998-.72 6.397-1.518-1.6-3.037-2.399-5.276-3.198 3.758-3.199 4.517-8.795-1.52-7.996 2.28-2.398-1.478-7.995-2.997-7.195 3.757-.8.76-10.434-2.239-12.033-3.758-.8-4.517 3.998-5.277 7.196-.76-3.998-2.278-8.795 0-12.793.76-2.398 2.998-7.235 5.997-4.797z" fill="#d8d9da" fill-rule="evenodd" fill-opacity="1" stroke="none"/><path d="M571.853 54.807c-4.557-5.597-3.797 4.797-4.557 7.995 0 4.757-2.278 10.354-4.557 14.351 2.279 0 3.798 3.198 4.557 4.757.76-3.158-3.038-11.153 2.279-8.754 0-.8-.76-2.399-.76-3.198 0-2.399 1.52-3.998 2.279-6.357.76-3.198-1.52-5.596 1.479-7.995z" fill="#ececed" fill-rule="evenodd" fill-opacity="1" stroke="none"/><path d="M622.143 179.531c.72-3.997-3.038-7.195-5.277-11.993-2.278-5.596-4.557-12.792-6.796-17.589-2.278-4.837-6.036-9.634-10.553-17.63-4.518-7.195-8.315-13.591-9.834-16.829 0 4.038 6.036 15.23 8.315 21.627 2.998 6.396 9.034 12.832 11.313 19.228 2.998 7.196 5.277 10.394 7.555 14.392 2.239 3.198 5.277 5.596 5.277 8.794z" fill="#fff" fill-rule="evenodd" fill-opacity="1" stroke="none"/><path d="M421.864 81.91c.76.8 2.279 1.6 3.038 1.6 5.997 3.997 10.474 15.19 12.753 21.586 4.477 11.993 4.477 27.983 4.477 40.776 0 4.797-.72 11.193 2.279 15.19 1.479 3.198 8.994 9.595 11.233 3.998-.72 2.399 0 7.196 2.278 7.995.76 3.198 2.999 3.198 3.758 3.998.72 0 2.998 2.398 3.758 2.398 4.477 2.399 9.754-3.198 12.752-.8 1.48.8.76 3.199 2.998 4.798h4.518c3.717 0 7.475.8 11.233-.8 2.998-.8 4.517-2.398 6.756-2.398 5.277-.8 9.754-.8 11.273 4.797.76 2.398.76 3.997 1.479 5.596-1.48 0-3.718 0-5.237.8 1.52-1.6 1.52-5.597-.76-5.597-1.478 0-4.477 2.399-5.996 3.198l1.52-1.599c-1.52-1.599-3.039-2.398-5.277-1.599-.76 0-1.48.8-1.48.8-1.519 0-3.038.8-5.276.8-2.999-.8-4.518-.8-6.756-.8h-3.758s-.76-.8-1.48-.8c-2.278 0-7.515.8-12.032 1.6-3.758-.8-6.756-2.4-10.513-1.6h-.72c.72-1.599 0-3.198-1.52-3.198v-.8c-.759 0-2.238 0-2.997.8 0 0-.76 0-.76-.8-.76-.799-.76-1.598-2.238-1.598v-1.6c-.76-.799-1.52-1.598-2.279-1.598-.72-1.6-1.48-2.399-2.239-2.399-1.479-.8-4.517-.8-5.996.8h-.76c-2.998-3.198-5.236-8.795-5.996-12.793v-.8c-.76 0-.76-.799-.76-.799v-2.398c-.76-5.597.76-12.792.76-25.585.76-18.389-.76-29.582-8.275-45.572-1.48-1.6-2.239-3.998-3.758-5.597zM293.582 169.857c0 .8-.76 1.6 0-1.599 2.998.8 6.756-1.599 9.754 0 2.998 1.6 7.516 5.597 10.514 1.6.76 3.997 4.477 3.997 6.756 1.598.72 4.797 5.237 5.597 8.994 2.399 1.48 5.556 5.997.8 9.754.8 5.237-.8 4.478 3.157 7.476 5.556 0 .8.76 2.398 1.519 2.398 1.479 0 2.239-2.398 2.239-2.398 2.238 0 2.238 1.599 4.517 1.599.72.8 5.237-1.6 6.716-2.399 1.519 0 2.278.8 3.757-1.599 5.997 6.396 15.75 2.399 21.747-1.559 1.52 1.56 5.277 6.356 6.756 3.158 1.52 1.6 4.517 3.198 5.997 0 3.757 1.6 4.517.8 8.235 0 .76-.8 1.519-1.599 2.278-1.599.76 0 .76 1.6 2.239.8 1.519-.8 2.998-3.158 5.237-3.158 0 0 2.278.8 2.998.8 1.519 0 4.517-1.6 4.517-3.199h1.48v7.156c-6.717 2.398-17.99 0-17.99 6.396-2.998-1.6-4.477-2.399-6.756.8-1.479-3.199-6.716-4.798-8.994-2.4-2.239-.799-3.758 0-5.237 0-2.998 0-5.997-1.598-8.995-2.398-5.237-.8-14.99-1.599-17.27 5.597-2.997-3.998-6.715-1.6-11.232 0-2.24.76-3.758.76-6.756 0-.76-.8-2.999-7.995-2.999-8.795-2.238-1.599-4.477 0-6.755 1.6-.76 0-2.24 1.598-2.999 1.598-1.479 0-1.479-.8-2.238-1.599-2.998-.8-4.518.8-8.235 1.6.72-4.798-2.998-4.798-5.997-2.4-.76-7.954-5.276-7.954-10.513-5.556-.76-3.997-6.756-7.995-10.514-4.797z" fill="#d8d9da" fill-rule="evenodd" fill-opacity="1" stroke="none"/><path d="M429.34 112.452c1.479-14.391-7.516-25.625-17.99-33.62-10.513-7.195-33.779-14.431-43.533-1.599 1.52-1.599 4.517-3.198 6.756-3.198 0 1.6.76 3.198.76 4.797 0-.8.76-4.797 2.238-4.797 2.279 0 2.998 5.597 3.758 7.196.76-3.198 7.515-8.795 8.275-2.399 1.479-1.599 4.477-1.599 6.716-1.599 5.277.8 6.036 2.399 7.515 7.196 1.52-3.198 5.237-3.998 6.756 0 2.998-2.399 3.758 2.398 2.998 4.837 2.239-1.64 7.516-1.64 5.997 2.398 2.998 0 2.238 3.199 1.519 5.597.72-.8 2.238-.8 3.718-.8 0 0 0 .8.76 1.6.759.8 0-.8 0-.8zM502.855 85.188c-2.958 4.797-3.718 11.993-2.958 18.35.72 5.596 3.718 17.589 8.155 20.747-2.199-3.158-5.916-6.356-9.634-3.158 7.435-3.198-1.52-6.397-2.239-9.595-.76-1.599 1.48-3.997 1.48-6.396 0-3.198-2.24-5.556-4.478-7.955 3.718 0 5.237-9.594 5.237-12.792 4.437 0 7.435-2.399 9.634-6.396zM576.33 70.677c1.52 3.238 2.28 7.236 3.039 10.474.72 5.636-2.279 6.436-3.798 10.433 3.038-3.198 3.038-7.235-.76-8.834 3.039-2.399.76-4.837.76-7.236 0-2.438 1.52-5.636 0-8.075zM516.367 137.237c-2.239 3.198-5.956 5.596-8.955 6.396 4.478-.8 11.194-.8 5.957 5.557.76-.8 1.519-.8 2.239-.8 0 1.6-1.48 3.198-2.959 4.757 4.438-3.957 5.957 2.399 2.239 5.597 9.634-5.597.72 10.314 6.676 7.155-1.48-4.797-1.48-10.353 1.479-15.11-3.718-2.399-6.676-7.156-5.956-11.953zM519.245 47.451c-3.717-3.957-6.716-6.356-11.233-9.554-2.998-2.359-5.237-5.557-8.954-7.955-3.758-2.359-5.997.8-10.514-2.359-2.998-2.398-7.476-6.396-8.235-10.353-2.998 4.757-8.995-1.6-11.233-3.998-2.239 3.198-10.474-1.599-14.232-2.399-2.998 0-8.235-.8-10.473-2.398-1.52.8-2.998 2.398-4.518 2.398 2.999-2.398 9.755 2.399 11.993 5.597 2.998-3.998 8.995 0 12.752 1.56 1.48.799 3.718.799 5.237 1.598 2.998 1.6 4.478 3.998 6.756 5.597 4.477 3.158 11.953 4.757 14.232 11.153 2.238-3.998 2.958-3.198 6.715-1.6 2.24 1.6 3.758 1.6 6.756 2.4z" fill="#fff" fill-rule="evenodd" fill-opacity="1" stroke="none"/><path d="M395 193.922c-6.036 0-12.792-.799-18.068.8-2.999.8-5.237 2.399-8.275 1.599-1.48-.8-4.518-2.399-3.758-4.797.76-5.597 12.033-4.797 15.03-3.198 1.52.8 3.039 3.198 3.758 3.997 2.28.8 4.518-2.398 6.796-3.198 0 1.6-.76 1.6 0 3.198l2.999 1.6c2.238-.8 2.238-4.798 4.517-3.998 0 1.599.76 3.198 1.479 4.797-3.758 0-7.516-.8-10.514-1.599zM499.098 192.243c-1.48 2.439-2.24 4.878-4.518 4.078-2.238 0-3.757-.8-5.996-1.639-1.52 0-3.038.84-3.798 0 3.038-5.717 9.075-.8 13.592-3.238zM248.69 158.584c-8.995 0-20.268 4.797-33.02 13.592-13.473 9.594-14.232 11.992-27.744 16.79 12.752-3.199 26.264-12.793 44.253-22.387 17.99-9.594 40.496-4.797 44.213-4.797 2.999 0 .76-4.797.76-8.795-.76 3.998-17.23 4.797-28.463 5.597z" fill="#dac3ac" fill-rule="evenodd" fill-opacity="1" stroke="none"/><path d="M181.13 185.108c-8.994 4.857-50.29 10.493-78.832-4.857 9.015 2.438 37.557 12.932 78.832 4.857z" fill="#fff" fill-rule="evenodd" fill-opacity="1" stroke="none"/><path d="M520.205 127.603c-15.71-6.356-21.707-33.5-10.474-46.292 2.998-4.797 8.235-1.6 8.995-.8 6.716 3.998 14.191 6.396 17.949 15.191 2.238 6.356-1.52 15.95 3.717 19.948M578.53 150.869c-2.2-12.793-11.873-13.592-14.112-6.397-.76 6.397 2.958 12.793 14.111 6.397M612.349 185.088c2.958 0 2.199 3.997 4.397 5.596-2.198.8-4.397 0-3.638-2.398" fill="none" stroke="#1a171b" stroke-width="1.1992731px" stroke-linecap="round" stroke-linejoin="round" stroke-miterlimit="4" stroke-dasharray="none" stroke-opacity="1"/><path d="M565.058 147.51c-.76-3.197 1.519-6.396 5.236-6.396 2.999-.799 5.997 1.6 5.997 5.597.72 3.198-1.52 6.396-4.478 6.396-3.757.8-6.755-1.599-6.755-5.596" fill="none" stroke="#1a171b" stroke-width="1.1992731px" stroke-linecap="round" stroke-linejoin="round" stroke-miterlimit="4" stroke-dasharray="none" stroke-opacity="1"/><path d="M517.726 85.188c3.798 3.198 14.391 7.996 14.391 13.592 0 3.198-3.797 4.797-3.038 7.955 0 3.198 2.279 3.198 3.758 5.597-.72 1.599-2.239 2.398-2.998 3.198.76 0 1.519.8 2.278.8-1.519 4.797-9.074 5.596-2.278 10.353" fill="none" stroke="#1a171b" stroke-width=".47970927px" stroke-linecap="round" stroke-linejoin="round" stroke-miterlimit="4" stroke-dasharray="none" stroke-opacity="1"/><path d="M511.09 134.878c-2.278 4.797-7.515 6.396-9.794 11.154 2.279.799 6.756-1.56 8.275 0 2.998 3.198-2.998 5.596-4.517 7.195 1.519 0 2.998 0 5.277.8-.76.8-1.52 2.358-2.279 3.158 4.517.8 5.277.8 2.279 4.797 1.479 0 2.238 0 3.757.8 0 .799-1.519 3.157-.76 3.957.76 1.599 3.759.8 3.759 2.398 1.479 2.399-2.279 3.199 1.479 5.597 2.278.8 6.036-.8 9.034 0 .72.8 0 .8 0 1.56M373.853 69.198c15.031-5.637 36.818.8 48.051 13.592 17.27 18.429 11.273 52.848 11.273 76.873 0 3.198 0 9.594 1.52 13.592" fill="none" stroke="#1a171b" stroke-width="1.1992731px" stroke-linecap="round" stroke-linejoin="round" stroke-miterlimit="4" stroke-dasharray="none" stroke-opacity="1"/><path clip-path="url(#a)" d="M382.848 187.646c-3.758.8-8.995-1.599-11.993-1.599-5.277 1.6-8.275 6.396-12.752 9.594-.76-1.599-2.998-2.398-2.998-5.596-5.997 4.797-17.23 6.396-18.749-6.396-4.477 2.398-8.235 6.396-12.752 1.599-1.48 1.599-4.477 2.398-5.996 3.997v-5.596c-2.999.8-6.716 3.198-9.715 4.797.72-3.198 2.239-7.196 2.239-11.193-5.996-1.6-8.995 1.599-13.512 5.596 0-2.398-1.479-1.599 0-8.794-4.477 2.398-5.237 2.398-8.235 5.596 2.239-2.398 0-5.596 0-9.594-2.238 0-5.237.8-6.756.8.76-.8.76-1.6 1.52-2.4-.76-.799-2.28-2.398-2.999-3.197l-.76-10.394s-4.517 3.998 7.516-49.61c11.233-53.647 66.68-93.623 116.17-100.02 8.994-.799 17.23-1.598 24.745-.799 2.998 0 5.237-.8 5.237-3.238 2.238 2.439 5.236 3.238 8.235 3.238V2c1.519 3.238 5.996 4.037 8.994 2.438 2.279 2.399 6.756 3.998 9.754 1.6 2.279 3.997 9.754 6.395 11.993 2.398 1.519 3.198 3.758 3.997 6.756 4.797 4.517 1.599 3.758 1.599 7.515 4.797 2.239 3.198 5.237 5.597 8.235 7.995.76-.8 1.48-2.398 1.48-3.198.759 3.198 2.278 4.797 5.276 6.396 1.48.8 5.237 3.198 7.476 3.198-.76 3.198 6.756 7.196 8.994 8.795a878.692 878.692 0 0 1 5.997 6.396c1.519 1.6 4.517 5.637 6.755 5.637 0-.84 1.48-.84 1.48-1.64 1.519 3.239 2.998 6.437 5.996 8.835.76 0 2.279 0 2.998.8.76.8.76 1.599 1.52 2.398 1.478 1.6 2.997 3.998 5.996 1.6.76 3.198 4.517 6.396 7.515 7.195 0 0 3.718 3.998 5.237 2.399 0-3.198 2.238-6.396 2.998-9.595.76-4.797 0-9.594 2.239-13.631 1.519-3.998 4.517-1.6 7.515 1.639 3.718 4.797 5.237 11.992 5.996 18.389.72 4.797 4.478 17.589.72 21.587 4.517 6.396 8.995 13.631 10.514 19.228 1.479 3.198 5.996 11.193 7.475 13.592 4.517 6.396 8.275 14.39 9.754 15.99 1.52 1.599 2.239 3.998 3.758 7.196 2.998 5.636 5.996 12.832 8.235 18.428 1.519 4.797 5.237 9.595 5.237 14.392-.72 7.195-2.998 7.995-8.235 11.992-4.478 3.198-6.756 6.397-12.752 6.397-6.716 0-14.232-2.399-20.228-4.798-10.474-5.596-26.224-11.992-38.977-13.591-5.996-.8-8.235-.8-12.752 2.398-1.479 2.399-4.477 7.196-1.479 7.995-2.279 0-5.277 0-6.756-2.398-1.519 0-.76 2.398-2.239 3.198-.76 0-2.278-.8-2.998-.8h-4.517c-2.998-.8-6.756 3.998-5.996-2.398-2.999 1.599-6.756 3.198-8.995 5.596.76-.8 1.52-2.398 2.239-3.997-2.998-3.198-15.71-.8-19.468 2.398.76-.8.76-2.398 1.479-3.997-1.48 1.599-3.718 2.398-5.997 3.198-1.479-3.998-19.468-4.797-22.466-3.198v-5.597c-2.279.8-3.758 2.399-5.996 3.198 0-.8 0-3.198.72-4.797-2.24 0-5.238.8-7.476.8 2.238-.8 3.757-3.198 3.757-5.597 0 0-5.996-2.398-4.517 2.399-1.479-.8-1.479-.8-2.998-2.399-2.239-1.599-3.758-3.997-4.477-5.597 2.998 4.798 0 7.196-4.518 10.394-5.236 3.198-5.996 3.198-11.233 3.198-2.998 0-2.998.8-5.237 2.399-.76.8-.76 2.398-2.278 2.398-2.239 0-2.998-3.198-5.237-2.398-2.239 0-4.477 2.398-5.996 3.997-.76-4.797-5.237-7.195-7.476-1.599 1.48-6.396-5.996-2.398-7.515.8 0-1.6-.76-2.399-2.239-3.198" fill="none" stroke="#1a171b" stroke-width="1.1992731px" stroke-linecap="round" stroke-linejoin="round" stroke-miterlimit="4" stroke-dasharray="none" stroke-opacity="1"/><path clip-path="url(#a)" d="m280.15 165.18-.72-10.394s-.759.8-.759-4.797c-29.982-4.797-47.251 4.797-63.721 15.19-15.75 9.595-30.782 20.788-63.002 19.989-33.02-.8-54.007-8.795-72.756-15.99-20.228-7.996-36.738-13.592-61.483-6.397-5.996.8-9.754 3.198-12.752 4.797-3.758 1.6-2.998 2.399.76 2.399 1.519-.8 3.757-.8 5.996-1.6 0 0 0 0 0 0 2.998-.799 17.989-3.997 29.262-3.197 11.993 1.599 23.226 5.596 35.219 10.394 17.989 7.195 40.495 19.987 75.754 20.787 34.499.8 53.248-11.193 68.998-21.587 16.47-9.594 31.461-15.19 59.204-9.594 0 0 0 0 0 0" fill="none" stroke="#1a171b" stroke-width="1.1992731px" stroke-linecap="round" stroke-linejoin="round" stroke-miterlimit="4" stroke-dasharray="none" stroke-opacity="1"/><path d="M574.132 53.328c3.718 4.797 5.237 11.992 5.996 18.389.72 3.997 2.959 12.792 2.239 18.388.72-2.398 2.239-5.596 2.239-7.995.72-4.797 0-7.995-1.52-11.992-.719-3.199-5.236-14.392-10.473-18.39l1.519 1.6M414.389 187.646s-.76 0-.76.8c-.76.8-.76 2.398-2.238 2.398-2.239 0-2.999-3.198-5.237-2.398-2.239 0-4.517 2.398-5.997 3.957-.76-4.757-5.236-7.155-7.475-1.559 1.48-6.396-5.996-2.398-7.515.8 0-1.6-.76-2.399-2.24-3.198v-.8c-3.757.8-8.994-1.599-11.992-1.599-3.718.8-5.996 3.198-8.994 5.597 1.519 4.757 0 6.356 5.996 7.156 5.237.76 9.754-.8 14.99-1.6 6.757-.799 17.99 0 25.465 0 3.758 0 12.713-.799 15.711 2.36-.72-3.959-3.718-4.758-6.716-6.357 2.998 0 8.235-2.359 10.474.8 1.479-8.755-7.476-5.557-13.472-6.357M571.733 85.948l-.24.16M478.15 193.163c2.279-.8 4.517-1.6 5.997-3.198-.72 1.599-.72 3.198-1.48 3.997 3.758-3.198 16.51-5.596 19.509-2.398-.76 1.599-1.52 3.198-2.239 3.997 2.239-2.398 5.996-3.997 8.995-5.596-.76 6.396 2.998 2.398 5.236 2.398 2.999 1.6 5.277 3.998 5.997 7.196-5.237-5.597-17.23 0-24.745-.8-2.239 0-4.518-1.598-7.516-1.598s-7.475 1.599-9.754-1.6c-.76-.799-.76-2.398-.76-3.997 0 .8.76.8.76 1.599" fill="none" stroke="#1a171b" stroke-width="1.1992731px" stroke-linecap="round" stroke-linejoin="round" stroke-miterlimit="4" stroke-dasharray="none" stroke-opacity="1"/><path d="M374.613 70.757c-.76-1.599-.76-4.797 0-7.196 2.199 1.6 2.918 5.597 2.199 7.196M510.33 134.878c0 .76.76 1.52 1.52 1.52M507.452 137.916c.72.84 1.44 1.64 2.16 3.278M518.646 125.204c-.72 1.52-2.159 2.279-2.159 3.038M433.977 158.784c-6.156-.76-3.838-7.915 0-5.517" fill="none" stroke="#f5f5f6" stroke-width="1.1992731px" stroke-linecap="butt" stroke-linejoin="miter" stroke-miterlimit="8" stroke-dasharray="none" stroke-opacity="1"/><path d="M518.646 85.948c.64 0 .64-.8.64-1.6M529.839 125.204c-.76 0-2.279 1.52-3.038.76M522.403 88.346c0-.76.64-.76.64-1.519" fill="none" stroke="#ececed" stroke-width="1.1992731px" stroke-linecap="round" stroke-linejoin="round" stroke-miterlimit="10" stroke-dasharray="none" stroke-opacity="1"/><path d="M596.479 189.845c-12.753 8.795-18.75 27.183-23.266 42.374M599.597 191.444c-8.235 8.835-17.95 39.256-20.228 55.246M601.755 197.12c-5.956 10.434-14.231 29.663-14.231 45.653M616.706 160.263c3.798-11.993 26.424-33.58 34.7-35.978M618.225 162.022c6.037-8.795 30.782-32.02 46.532-36.858M619.744 165.94c7.516-7.996 32.26-19.189 39.736-22.387M621.983 170.816c6.036-4.797 24.065-10.393 27.823-11.193" fill="none" stroke="#1a171b" stroke-width=".47970927px" stroke-linecap="round" stroke-linejoin="round" stroke-miterlimit="10" stroke-dasharray="none" stroke-opacity="1"/><path d="M601.795 190.764s0 0 0 0v-.88.88M604.034 186.847c-.72-.88 0-.88-.72-.88l.72.88M601.795 195.641s0 0 0 0v-.879M607.712 196.281c0-.64 0-.64-.64-.64M607.072 186.847v.64l.64-.64c-.64 0 0 .64-.64.64" fill="none" stroke="#1a171b" stroke-width="1.1992731px" stroke-linecap="round" stroke-linejoin="round" stroke-miterlimit="10" stroke-dasharray="none" stroke-opacity="1"/></svg>