<svg xmlns="http://www.w3.org/2000/svg" version="1.0" viewBox="0 0 256.403 23.206"><defs><clipPath clipPathUnits="userSpaceOnUse" id="a"><path d="M-.16 2.558h256.085v23.186H-.16z"/></clipPath></defs><path clip-path="url(#a)" d="M1.04 3.758c6.835 1.839 13.631 6.356 20.467 9.074 5.077 2.679 10.753 5.397 15.87 7.236 25.545 7.195 50.53 5.397 74.355-3.638 24.386-9.954 47.092-12.672 73.756-8.155 8.514 1.839 17.629 4.557 26.703 7.236 14.192 4.557 28.383 8.155 42.535 7.235-14.152.92-28.343-5.397-41.975-9.034-9.074-3.598-18.149-6.316-27.263-7.236-26.664-5.437-49.37-2.718-74.315 7.236-23.866 9.954-48.251 10.873-73.236 3.637-5.677-.919-10.753-3.637-15.87-6.356C15.23 7.396 8.435 5.597 1.039 3.758z" fill="silver" fill-rule="evenodd"/><path clip-path="url(#a)" d="M1.04 3.758c6.835 1.839 13.631 6.356 20.467 9.074 5.077 2.679 10.753 5.397 15.87 7.236 25.545 7.195 50.53 5.397 74.355-3.638 24.386-9.954 47.092-12.672 73.756-8.155 8.514 1.839 17.629 4.557 26.703 7.236 14.192 4.557 28.383 8.155 42.535 7.235-14.152.92-28.343-5.397-41.975-9.034-9.074-3.598-18.149-6.316-27.263-7.236-26.664-5.437-49.37-2.718-74.315 7.236-23.866 9.954-48.251 10.873-73.236 3.637-5.677-.919-10.753-3.637-15.87-6.356C15.23 7.396 8.435 5.597 1.039 3.758" fill="none" stroke="silver" stroke-width="1.039" stroke-linejoin="round"/></svg>