<svg xmlns="http://www.w3.org/2000/svg" version="1.0" viewBox="0 0 369.26 51.326"><defs><clipPath clipPathUnits="userSpaceOnUse" id="a"><path d="M-.16 8.155h368.817v51.329H-.16z"/></clipPath></defs><path clip-path="url(#a)" d="M1.04 19.388c34.978-16.79 73.715-5.317 110.372 5.357 20.388 6.876 41.615 12.992 61.603 13.752 18.349 1.559 36.658-.76 54.567-3.038 22.067-3.079 44.533-5.357 66.6-2.28 12.512 1.52 25.424 7.636 37.497 13.753 11.633 5.356 23.706 9.914 35.778 11.433-12.072-1.52-23.705-8.395-35.378-13.752-12.473-6.116-24.985-11.433-37.897-13.752-22.067-3.038-44.533 0-66.6 2.319-17.91 2.279-36.218 4.557-54.567 3.798-19.988-1.52-41.215-7.636-61.203-13.752C74.755 11.753 36.858 1.039 1.04 19.388z" fill="silver" fill-rule="evenodd"/><path clip-path="url(#a)" d="M1.04 19.388c34.978-16.79 73.715-5.317 110.372 5.357 20.388 6.876 41.615 12.992 61.603 13.752 18.349 1.559 36.658-.76 54.567-3.038 22.067-3.079 44.533-5.357 66.6-2.28 12.512 1.52 25.424 7.636 37.497 13.753 11.633 5.356 23.706 9.914 35.778 11.433-12.072-1.52-23.705-8.395-35.378-13.752-12.473-6.116-24.985-11.433-37.897-13.752-22.067-3.038-44.533 0-66.6 2.319-17.91 2.279-36.218 4.557-54.567 3.798-19.988-1.52-41.215-7.636-61.203-13.752C74.755 11.753 36.858 1.039 1.04 19.388" fill="none" stroke="silver" stroke-width="1.039" stroke-linejoin="round"/></svg>