<svg xmlns="http://www.w3.org/2000/svg" version="1.0" viewBox="0 0 140.901 168.605"><defs><clipPath clipPathUnits="userSpaceOnUse" id="a"><path d="M4.797 2.159h140.715v168.697H4.797z"/></clipPath></defs><path clip-path="url(#a)" d="M54.927 23.866c7.915-7.996 21.267-19.109 32.5-20.428 21.667-2.678 35.419 21.787 40.855 37.297 2.479 7.556 9.554 13.352 13.312 20.468 7.076 12.872-1.639 32.42-4.157 47.051-2.919 16.43-7.516 24.905-21.667 31.102-4.597 2.238-10.394 4.437-14.591 7.555-4.158 3.998-4.158 9.754-7.916 14.231-7.475 10.194-28.742 11.513-36.657 1.76-8.755-9.755-7.516-17.31-20.828-22.227C17.03 134.039.76 121.167 7.435 97.18c2.08-8.475 8.355-12.472 11.274-19.988 2.918-7.555 2.078-15.99 2.918-23.985 2.079-18.669 17.07-27.104 33.3-29.342z" fill="#bfe6b4" fill-rule="evenodd"/><path d="M59.924 158.944c7.515 7.995 19.588 10.193 27.103.88 3.718-4.438 3.318-11.554 7.076-15.551 3.718-3.518 11.233-6.197 15.83-9.315 7.916-6.196 16.23-11.113 20.788-21.307 4.597-11.113 4.597-23.546 4.997-35.099-.8 10.674-6.236 27.104-12.872 35.979-6.277 8.874-16.67 11.553-25.425 17.789-2.918 1.759-7.915 4.437-9.594 7.955-2.479 3.558-.8 8.475-2.878 12.432-.84 1.8-4.198 1.36-4.997 3.119-.84 1.798-.44 4.437-1.68 5.796-2.518 3.078-3.317 6.196-9.154 3.518zM114.85 25.545c2.12 4.917 5.877 9.354 8.395 14.23 2.079 3.998 2.479 6.237 4.997 9.795 5.837 8.875 10.434 10.234 4.597 21.307 2.08-10.194-5.436-10.194-9.594-15.99-4.597-5.757-2.958-15.99-8.395-23.106z" fill="#9fd894" fill-rule="evenodd"/><path d="M25.784 71.916C23.306 82.15 14.071 89.226 11.553 99.86c-2.958 12.873 1.679 16.87 9.634 24.825-7.955-7.515-7.555-12.392-4.597-21.706 2.518-7.556 3.758-14.632 5.876-22.187zm1.599-28.542C34.5 30.102 56.166 30.98 68.24 26.104c-7.076 1.8-12.913 8.435-19.988 11.073-5.437 1.8-17.51 0-20.868 4.438z" fill="#ecf8e7" fill-rule="evenodd"/><path d="M29.942 85.108c0-25.504 19.388-46.212 43.294-46.212 23.945 0 43.293 20.708 43.293 46.212 0 25.545-19.348 46.212-43.293 46.212-23.906 0-43.294-20.667-43.294-46.212z" fill="#bfe6b4" fill-rule="evenodd"/><path d="M30.422 84.429c0-24.865 18.908-45.053 42.214-45.053 23.346 0 42.214 20.188 42.214 45.053 0 24.905-18.868 45.053-42.214 45.053-23.306 0-42.214-20.148-42.214-45.053z" fill="#c0e6b5" fill-rule="evenodd"/><path d="M31.221 84.229c0-24.265 18.509-43.973 41.255-43.973 22.786 0 41.255 19.708 41.255 43.973 0 24.305-18.469 43.973-41.255 43.973-22.746 0-41.255-19.668-41.255-43.973z" fill="#c1e7b6" fill-rule="evenodd"/><path d="M32.1 83.87c0-23.547 17.91-42.655 39.976-42.655 22.107 0 39.976 19.108 39.976 42.654 0 23.586-17.87 42.654-39.976 42.654-22.066 0-39.975-19.068-39.975-42.654z" fill="#c2e7b7" fill-rule="evenodd"/><path d="M32.42 83.63c0-22.907 17.55-41.536 39.137-41.536 21.627 0 39.136 18.63 39.136 41.535 0 22.946-17.51 41.535-39.136 41.535-21.587 0-39.137-18.589-39.137-41.535z" fill="#c3e7b8" fill-rule="evenodd"/><path d="M33.22 83.39c0-22.347 16.99-40.496 37.897-40.496 20.947 0 37.897 18.149 37.897 40.495 0 22.387-16.95 40.496-37.897 40.496-20.907 0-37.897-18.11-37.897-40.496z" fill="#c3e8b9" fill-rule="evenodd"/><path d="M34.1 82.71c0-21.707 16.55-39.336 36.897-39.336 20.388 0 36.898 17.629 36.898 39.336 0 21.747-16.51 39.336-36.898 39.336-20.348 0-36.898-17.59-36.898-39.336z" fill="#c4e8ba" fill-rule="evenodd"/><path d="M34.579 82.47c0-21.107 16.07-38.217 35.818-38.217 19.788 0 35.819 17.11 35.819 38.217s-16.03 38.217-35.819 38.217c-19.748 0-35.818-17.11-35.818-38.217z" fill="#c5e9bb" fill-rule="evenodd"/><path d="M35.379 82.27c0-20.427 15.59-37.057 34.739-37.057 19.188 0 34.738 16.63 34.738 37.057 0 20.468-15.55 37.058-34.738 37.058-19.149 0-34.74-16.59-34.74-37.058z" fill="#c6e9bc" fill-rule="evenodd"/><path d="M36.258 81.79c0-19.708 14.99-35.698 33.46-35.698 18.509 0 33.46 15.99 33.46 35.698 0 19.748-14.951 35.699-33.46 35.699-18.47 0-33.46-15.95-33.46-35.699z" fill="#c7e9bd" fill-rule="evenodd"/><path d="M36.578 81.55c0-19.108 14.67-34.658 32.74-34.658 18.109 0 32.74 15.55 32.74 34.659 0 19.148-14.631 34.659-32.74 34.659-18.07 0-32.74-15.511-32.74-34.66z" fill="#c8eabe" fill-rule="evenodd"/><path d="M37.377 80.95c0-18.508 14.112-33.579 31.501-33.579 17.43 0 31.501 15.071 31.501 33.58 0 18.549-14.071 33.58-31.5 33.58-17.39 0-31.502-15.031-31.502-33.58z" fill="#c9eabf" fill-rule="evenodd"/><path d="M38.257 80.711c0-17.91 13.632-32.46 30.381-32.46 16.79 0 30.382 14.55 30.382 32.46 0 17.95-13.592 32.46-30.382 32.46-16.75 0-30.381-14.51-30.381-32.46z" fill="#caeac0" fill-rule="evenodd"/><path d="M38.737 80.551c0-17.31 13.152-31.34 29.302-31.34 16.19 0 29.302 14.03 29.302 31.34 0 17.31-13.112 31.341-29.302 31.341-16.15 0-29.302-14.031-29.302-31.34z" fill="#cbebc1" fill-rule="evenodd"/><path d="M39.536 80.071c0-16.55 12.592-29.981 28.103-29.981 15.55 0 28.103 13.432 28.103 29.981 0 16.59-12.552 29.982-28.103 29.982-15.51 0-28.103-13.392-28.103-29.982z" fill="#ccebc2" fill-rule="evenodd"/><path d="M40.416 79.792c0-15.95 12.152-28.903 27.063-28.903 14.951 0 27.064 12.952 27.064 28.903 0 15.99-12.113 28.902-27.064 28.902-14.91 0-27.063-12.912-27.063-28.902z" fill="#ccebc2" fill-rule="evenodd"/><path d="M40.735 79.392c0-15.15 11.673-27.463 26.065-27.463 14.43 0 26.064 12.312 26.064 27.463 0 15.19-11.633 27.463-26.064 27.463-14.392 0-26.065-12.272-26.065-27.463z" fill="#cdecc3" fill-rule="evenodd"/><path d="M41.535 78.872c0-14.67 11.193-26.624 24.985-26.624 13.831 0 24.985 11.953 24.985 26.624 0 14.711-11.154 26.624-24.985 26.624-13.792 0-24.985-11.913-24.985-26.624z" fill="#ceecc4" fill-rule="evenodd"/><path d="M42.414 78.712c0-14.071 10.634-25.504 23.746-25.504 13.152 0 23.746 11.433 23.746 25.504 0 14.112-10.594 25.505-23.746 25.505-13.112 0-23.746-11.393-23.746-25.505z" fill="#cfecc5" fill-rule="evenodd"/><path d="M42.894 78.313c0-13.352 10.274-24.226 22.906-24.226 12.672 0 22.906 10.874 22.906 24.226 0 13.391-10.234 24.225-22.906 24.225-12.632 0-22.906-10.834-22.906-24.225z" fill="#d0edc6" fill-rule="evenodd"/><path d="M43.773 78.033c0-12.753 9.715-23.146 21.627-23.146 11.953 0 21.627 10.393 21.627 23.146 0 12.792-9.674 23.146-21.627 23.146-11.912 0-21.627-10.354-21.627-23.146z" fill="#d1edc7" fill-rule="evenodd"/><path d="M44.573 77.913c0-12.113 9.234-21.987 20.588-21.987 11.393 0 20.587 9.874 20.587 21.987 0 12.152-9.194 21.986-20.587 21.986-11.354 0-20.588-9.834-20.588-21.986z" fill="#d2eec8" fill-rule="evenodd"/><path d="M44.893 77.153c0-11.513 8.794-20.907 19.588-20.907 10.833 0 19.588 9.394 19.588 20.907 0 11.553-8.755 20.908-19.588 20.908-10.794 0-19.588-9.355-19.588-20.908z" fill="#d3eec9" fill-rule="evenodd"/><path d="M45.772 76.953c0-10.873 8.315-19.748 18.549-19.748 10.274 0 18.549 8.875 18.549 19.748 0 10.914-8.275 19.748-18.549 19.748-10.234 0-18.549-8.834-18.549-19.748z" fill="#d4eeca" fill-rule="evenodd"/><path d="M46.572 76.474c0-10.154 7.755-18.39 17.31-18.39 9.593 0 17.309 8.236 17.309 18.39 0 10.193-7.716 18.389-17.31 18.389-9.554 0-17.31-8.196-17.31-18.39z" fill="#d4efcb" fill-rule="evenodd"/><path d="M47.051 76.194c0-9.554 7.356-17.31 16.43-17.31 9.075 0 16.43 7.756 16.43 17.31 0 9.594-7.355 17.31-16.43 17.31-9.074 0-16.43-7.716-16.43-17.31z" fill="#d5efcc" fill-rule="evenodd"/><path d="M47.931 76.074c0-8.915 6.796-16.15 15.15-16.15 8.396 0 15.152 7.235 15.152 16.15 0 8.954-6.756 16.15-15.151 16.15-8.355 0-15.151-7.196-15.151-16.15z" fill="#d6efcd" fill-rule="evenodd"/><path d="M48.73 75.394c0-8.355 6.357-15.15 14.152-15.15 7.835 0 14.151 6.795 14.151 15.15 0 8.395-6.316 15.151-14.151 15.151-7.795 0-14.152-6.756-14.152-15.15z" fill="#d7f0ce" fill-rule="evenodd"/><path d="M49.05 75.194c0-7.715 5.917-13.991 13.152-13.991 7.276 0 13.152 6.276 13.152 13.991 0 7.756-5.876 13.992-13.152 13.992-7.235 0-13.152-6.236-13.152-13.992z" fill="#d8f0cf" fill-rule="evenodd"/><path d="M83.75 161.462c6.275-2.638 7.115-9.314 11.272-14.191 2.479-3.118 6.237-5.757 9.555-8.435 10.833-7.116 18.748-10.194 23.305-23.986-6.635 7.996-12.872 14.232-21.626 19.109-3.758 1.759-9.994 2.678-12.913 6.196-2.078 2.678-3.757 9.794-4.157 13.352z" fill="#73c36f" fill-rule="evenodd"/><path clip-path="url(#a)" d="M54.927 23.866c7.915-7.996 21.267-19.109 32.5-20.428 21.667-2.678 35.419 21.787 40.855 37.297 2.479 7.556 9.554 13.352 13.312 20.468 7.076 12.872-1.639 32.42-4.157 47.051-2.919 16.43-7.516 24.905-21.667 31.102-4.597 2.238-10.394 4.437-14.591 7.555-4.158 3.998-4.158 9.754-7.916 14.231-7.475 10.194-28.742 11.513-36.657 1.76-8.755-9.755-7.516-17.31-20.828-22.227C17.03 134.039.76 121.167 7.435 97.18c2.08-8.475 8.355-12.472 11.274-19.988 2.918-7.555 2.078-15.99 2.918-23.985 2.079-18.669 17.07-27.104 33.3-29.342" fill="none" stroke="#333" stroke-width=".8" stroke-linecap="round" stroke-linejoin="round"/><path d="M28.343 52.728c.4 6.236-6.716 21.347-11.753 28.463m38.297-57.246c5.476-.879 16.75-2.678 21.347-7.195M36.258 134.838c6.236 2.679 6.236 5.837 10.793 13.832" fill="none" stroke="#333" stroke-width=".8" stroke-linecap="round" stroke-linejoin="round"/><path d="M26.584 54.567c1.28-.48 2.558-.48 3.838.44 0 2.198-2.12 3.078-3.838 2.198M73.276 15.95c.84.44 1.239 2.199 2.078 3.518-1.679 2.639-4.637.44-4.197-2.198m-33.22 119.367c0-1.359.4-2.678 1.999-3.158.8 1.799-.4 4.078-1.6 5.837" fill="none" stroke="#bfe6b4" stroke-width=".8" stroke-miterlimit="8"/><path d="M77.913 62.482c0-3.158 2.438-5.756 5.397-5.756 2.998 0 5.396 2.598 5.396 5.756 0 3.198-2.398 5.757-5.396 5.757-2.959 0-5.397-2.559-5.397-5.757zM49.93 107.175c0-3.278 2.558-5.996 5.636-5.996 3.118 0 5.637 2.718 5.637 5.996 0 3.318-2.519 5.996-5.637 5.996-3.078 0-5.636-2.678-5.636-5.996zM25.784 78.992c0-1.679 1.32-3.078 2.879-3.078 1.599 0 2.878 1.4 2.878 3.078 0 1.72-1.28 3.078-2.878 3.078-1.56 0-2.879-1.359-2.879-3.078zm67.08 48.771c0-1.68 1.399-3.079 3.078-3.079a3.08 3.08 0 0 1 3.078 3.079 3.054 3.054 0 0 1-3.078 3.078 3.08 3.08 0 0 1-3.078-3.078zm35.818-27.223c0-1.84 1.4-3.359 3.078-3.359 1.72 0 3.078 1.52 3.078 3.358 0 1.879-1.359 3.358-3.078 3.358-1.679 0-3.078-1.48-3.078-3.358zM54.087 45.652c0-1.679 1.32-3.078 2.918-3.078 1.64 0 2.919 1.4 2.919 3.078 0 1.72-1.28 3.078-2.919 3.078-1.599 0-2.918-1.359-2.918-3.078zm35.819-26.384c0-1.799 1.439-3.318 3.158-3.318 1.759 0 3.158 1.52 3.158 3.318 0 1.84-1.4 3.318-3.158 3.318-1.72 0-3.158-1.479-3.158-3.318zM58.724 145.832c0-1.8 1.4-3.318 3.079-3.318 1.719 0 3.078 1.519 3.078 3.318 0 1.839-1.36 3.318-3.078 3.318-1.68 0-3.079-1.48-3.079-3.318zm-32.14-24.705c0-1.68 1.32-3.079 2.918-3.079 1.64 0 2.918 1.4 2.918 3.079 0 1.719-1.279 3.078-2.918 3.078-1.599 0-2.918-1.36-2.918-3.078zM37.058 66.72c0-1.84 1.319-3.358 2.918-3.358 1.639 0 2.918 1.519 2.918 3.358 0 1.878-1.28 3.358-2.918 3.358-1.6 0-2.918-1.48-2.918-3.358zm33.659 70.877c0-1.68 1.32-3.079 2.918-3.079 1.64 0 2.919 1.4 2.919 3.079 0 1.719-1.28 3.078-2.919 3.078-1.599 0-2.918-1.36-2.918-3.078zm22.147-98.701c0-2.198 1.719-3.997 3.757-3.997 2.08 0 3.758 1.799 3.758 3.997 0 2.24-1.679 3.998-3.758 3.998-2.038 0-3.757-1.759-3.757-3.998z" fill="#9fd894" fill-rule="evenodd"/><path d="M85.748 71.796c0-3.877 2.998-7.075 6.636-7.075 3.678 0 6.636 3.198 6.636 7.075 0 3.918-2.958 7.076-6.636 7.076-3.638 0-6.636-3.158-6.636-7.076zm16.63-11.992c0-3.878 2.998-7.076 6.676-7.076 3.718 0 6.676 3.198 6.676 7.076 0 3.917-2.958 7.075-6.676 7.075-3.678 0-6.676-3.158-6.676-7.075zM88.706 45.532c0-2.198 1.72-3.997 3.758-3.997 2.079 0 3.758 1.799 3.758 3.997 0 2.239-1.68 3.998-3.758 3.998-2.039 0-3.758-1.759-3.758-3.998zM85.748 98.7c0-3.278 2.439-5.996 5.397-5.996 2.998 0 5.396 2.718 5.396 5.996 0 3.318-2.398 5.997-5.396 5.997-2.958 0-5.397-2.679-5.397-5.997zm35.738-10.633c0-3.278 2.559-5.997 5.677-5.997 3.158 0 5.676 2.719 5.676 5.997 0 3.318-2.518 5.996-5.676 5.996-3.118 0-5.677-2.678-5.677-5.996zm-85.228 24.225c0-3.158 2.439-5.757 5.397-5.757 2.998 0 5.396 2.599 5.396 5.757 0 3.198-2.398 5.756-5.396 5.756-2.958 0-5.397-2.558-5.397-5.756zm21.667 6.636c0-3.158 2.438-5.757 5.397-5.757 2.998 0 5.396 2.599 5.396 5.757 0 3.198-2.398 5.756-5.396 5.756-2.959 0-5.397-2.558-5.397-5.756zm46.931-14.072c0-3.278 2.439-5.996 5.437-5.996 3.038 0 5.437 2.718 5.437 5.996 0 3.318-2.399 5.997-5.437 5.997-2.998 0-5.437-2.679-5.437-5.997z" fill="#9fd894" fill-rule="evenodd"/><path d="M103.177 114.93c0-3.158 2.439-5.756 5.437-5.756 3.038 0 5.437 2.598 5.437 5.756 0 3.198-2.399 5.757-5.437 5.757-2.998 0-5.437-2.559-5.437-5.757zM64.56 156.265c0-3.158 2.52-5.756 5.597-5.756 3.119 0 5.597 2.598 5.597 5.756 0 3.198-2.478 5.757-5.597 5.757-3.078 0-5.596-2.559-5.596-5.757zM97.021 26.264c0-3.278 2.519-5.996 5.597-5.996 3.118 0 5.596 2.718 5.596 5.996 0 3.318-2.478 5.996-5.596 5.996-3.078 0-5.597-2.678-5.597-5.996zm17.029 37.537c0-3.158 2.44-5.716 5.398-5.716 2.998 0 5.396 2.558 5.396 5.716 0 3.158-2.398 5.717-5.396 5.717-2.959 0-5.397-2.559-5.397-5.717zM80.391 34.979c0-3.158 2.439-5.757 5.397-5.757 2.998 0 5.397 2.599 5.397 5.757 0 3.198-2.399 5.756-5.397 5.756-2.958 0-5.397-2.558-5.397-5.756zM63.202 90.545c0-2.199 1.719-3.997 3.757-3.997 2.08 0 3.758 1.798 3.758 3.997 0 2.239-1.679 3.998-3.758 3.998-2.038 0-3.757-1.76-3.757-3.998z" fill="#9fd894" fill-rule="evenodd"/><path d="M22.426 77.113c0-2.398 1.88-4.397 4.158-4.397 2.318 0 4.157 1.999 4.157 4.397 0 2.439-1.839 4.398-4.157 4.398-2.279 0-4.158-1.96-4.158-4.398z" fill="#ff0" fill-rule="evenodd"/><path d="M27.024 73.515c1.239.48 2.078 1.84 2.078 3.199 0 2.238-1.679 4.037-3.757 4.037h-.44c.44 0 .84.44 1.679.44 1.679 0 3.358-1.8 3.358-4.038 0-1.799-1.24-3.638-2.918-3.638z" fill="#ffd100" fill-rule="evenodd"/><path d="M23.786 76.314c0-.96.76-1.76 1.639-1.76.919 0 1.639.8 1.639 1.76 0 1-.72 1.759-1.64 1.759-.879 0-1.638-.76-1.638-1.76z" fill="#fff" fill-rule="evenodd"/><path d="M89.506 126.004c0-2.479 1.879-4.518 4.197-4.518 2.319 0 4.198 2.04 4.198 4.518 0 2.518-1.88 4.517-4.198 4.517-2.318 0-4.197-1.999-4.197-4.517z" fill="#ff0" fill-rule="evenodd"/><path d="M94.063 122.526c1.24.48 2.039 1.799 2.039 3.118 0 2.199-1.64 3.957-3.278 3.957h-.44c.44 0 .84.44 1.24.44 2.078 0 3.717-1.759 3.717-3.957 0-1.76-1.639-3.558-3.278-3.558z" fill="#ffd100" fill-rule="evenodd"/><path d="M90.705 125.084c0-.96.76-1.759 1.679-1.759.96 0 1.679.8 1.679 1.76 0 .999-.72 1.758-1.679 1.758-.92 0-1.679-.76-1.679-1.759z" fill="#fff" fill-rule="evenodd"/><path d="M125.324 98.7c0-2.558 1.959-4.637 4.357-4.637 2.439 0 4.358 2.079 4.358 4.637 0 2.599-1.92 4.637-4.358 4.637-2.398 0-4.357-2.038-4.357-4.637z" fill="#ff0" fill-rule="evenodd"/><path d="M129.881 94.863c1.24.48 2.04 1.838 2.04 3.637 0 1.8-1.24 3.598-3.279 3.598h-.44c.44.44.84.44 1.24.44 2.078 0 3.717-1.799 3.717-4.038 0-1.799-1.239-3.158-3.278-3.637z" fill="#ffd100" fill-rule="evenodd"/><path d="M126.523 97.62c0-.919.76-1.718 1.68-1.718.959 0 1.678.8 1.678 1.719 0 .96-.72 1.719-1.679 1.719-.92 0-1.679-.76-1.679-1.72z" fill="#fff" fill-rule="evenodd"/><path d="M73.755 118.408c0-1.679 1.32-3.078 2.879-3.078 1.599 0 2.878 1.4 2.878 3.078 0 1.72-1.28 3.078-2.878 3.078-1.56 0-2.879-1.359-2.879-3.078z" fill="#9fd894" fill-rule="evenodd"/><path d="M70.397 116.69c0-2.44 1.88-4.478 4.158-4.478 2.318 0 4.157 2.039 4.157 4.477 0 2.479-1.839 4.478-4.157 4.478-2.279 0-4.158-2-4.158-4.478z" fill="#ff0" fill-rule="evenodd"/><path d="M74.995 112.692c1.239.92 2.078 2.238 2.078 3.558 0 2.198-1.679 3.957-3.757 3.957 0 0-.44 0-.44-.44.44.44.84.44 1.679.44 1.679 0 3.358-1.759 3.358-3.518 0-2.198-1.24-3.518-2.918-3.997z" fill="#ffd100" fill-rule="evenodd"/><path d="M71.517 115.77c0-.92.76-1.72 1.679-1.72.96 0 1.679.8 1.679 1.72 0 .96-.72 1.719-1.68 1.719-.919 0-1.678-.76-1.678-1.72z" fill="#fff" fill-rule="evenodd"/><path d="M26.584 102.018c0-1.719 1.32-3.158 2.918-3.158 1.64 0 2.918 1.44 2.918 3.158 0 1.76-1.279 3.158-2.918 3.158-1.599 0-2.918-1.399-2.918-3.158z" fill="#9fd894" fill-rule="evenodd"/><path d="M22.906 100.3c0-2.4 1.959-4.398 4.318-4.398 2.398 0 4.317 1.999 4.317 4.397 0 2.439-1.919 4.398-4.317 4.398-2.36 0-4.318-1.96-4.318-4.398z" fill="#ff0" fill-rule="evenodd"/><path d="M27.863 96.222c.84.92 2.079 2.278 2.079 3.637 0 2.24-1.68 4.038-3.718 4.038l-.44-.44c.44.44.84.44 1.24.44 2.078 0 3.717-1.799 3.717-3.598 0-2.238-1.239-3.598-2.878-4.077z" fill="#ffd100" fill-rule="evenodd"/><path d="M24.585 99.1c0-.88.64-1.6 1.4-1.6.799 0 1.398.72 1.398 1.6 0 .92-.6 1.599-1.399 1.599-.76 0-1.399-.68-1.399-1.6z" fill="#fff" fill-rule="evenodd"/><path d="M50.73 43.813c0-2.438 1.878-4.437 4.157-4.437 2.318 0 4.157 1.999 4.157 4.437 0 2.479-1.839 4.438-4.157 4.438-2.279 0-4.158-1.96-4.158-4.438z" fill="#ff0" fill-rule="evenodd"/><path d="M55.326 39.936c1.24.88 2.08 2.198 2.08 3.518 0 2.198-1.68 3.917-3.759 3.917h-.44 1.68c1.679 0 3.358-1.279 3.358-3.478 0-1.759-1.24-3.517-2.919-3.957z" fill="#ffd100" fill-rule="evenodd"/><path d="M52.088 42.974c0-.96.76-1.759 1.64-1.759.919 0 1.638.8 1.638 1.759 0 1-.72 1.759-1.639 1.759-.879 0-1.639-.76-1.639-1.759z" fill="#fff" fill-rule="evenodd"/><path d="M86.548 17.15c0-2.399 1.878-4.398 4.157-4.398 2.319 0 4.158 2 4.158 4.398 0 2.438-1.84 4.397-4.158 4.397-2.279 0-4.157-1.959-4.157-4.397z" fill="#ff0" fill-rule="evenodd"/><path d="M91.145 13.552c1.239.48 2.079 1.839 2.079 3.638 0 1.798-1.68 3.597-3.758 3.597h-.44c.44 0 1.28.44 1.679.44 2.119 0 3.358-1.799 3.358-4.037 0-1.8-1.24-3.638-2.918-3.638z" fill="#ffd100" fill-rule="evenodd"/><path d="M87.907 16.35c0-.96.76-1.759 1.639-1.759.92 0 1.639.8 1.639 1.76 0 .998-.72 1.758-1.64 1.758-.879 0-1.638-.76-1.638-1.759z" fill="#fff" fill-rule="evenodd"/><path d="M55.366 143.753c0-2.439 1.88-4.437 4.198-4.437 2.318 0 4.197 1.998 4.197 4.437 0 2.478-1.879 4.437-4.197 4.437-2.319 0-4.198-1.959-4.198-4.437z" fill="#ff0" fill-rule="evenodd"/><path d="M59.964 140.195c1.239.48 2.038 1.839 2.038 3.198 0 2.239-1.639 4.038-3.238 4.038h-.84c.84 0 1.24.44 1.64.44 2.039 0 3.638-1.8 3.638-4.038 0-1.8-1.6-3.638-3.238-3.638z" fill="#ffd100" fill-rule="evenodd"/><path d="M56.566 142.913c0-.959.76-1.759 1.679-1.759.96 0 1.679.8 1.679 1.76 0 .999-.72 1.758-1.68 1.758-.919 0-1.678-.76-1.678-1.759z" fill="#fff" fill-rule="evenodd"/><path d="M23.226 119.368c0-2.479 1.879-4.518 4.157-4.518 2.319 0 4.158 2.04 4.158 4.518 0 2.518-1.839 4.517-4.158 4.517-2.278 0-4.157-1.999-4.157-4.517z" fill="#ff0" fill-rule="evenodd"/><path d="M27.863 115.33c1.24.92 2.079 1.799 2.079 3.558 0 2.199-1.68 3.518-3.718 3.518h-.44c.44.44.84.44 1.68.44 1.638 0 3.277-1.76 3.277-3.518 0-2.199-1.239-3.518-2.878-3.998z" fill="#ffd100" fill-rule="evenodd"/><path d="M24.585 118.288c0-.88.76-1.599 1.68-1.599.959 0 1.678.72 1.678 1.6 0 .919-.72 1.598-1.679 1.598-.92 0-1.679-.68-1.679-1.599z" fill="#fff" fill-rule="evenodd"/><path d="M33.22 64.88c0-2.558 1.999-4.637 4.437-4.637 2.479 0 4.437 2.08 4.437 4.638 0 2.598-1.958 4.637-4.437 4.637-2.438 0-4.437-2.039-4.437-4.637z" fill="#ff0" fill-rule="evenodd"/><path d="M37.937 61.203c1.24.48 2.039 1.799 2.039 3.558s-1.24 3.518-3.278 3.518h-.44c.44.44.84.44 1.24.44 2.078 0 3.717-1.76 3.717-3.958 0-1.76-1.24-3.558-3.278-3.558z" fill="#ffd100" fill-rule="evenodd"/><path d="M34.899 63.801c0-.92.68-1.719 1.519-1.719.84 0 1.519.8 1.519 1.72 0 .959-.68 1.718-1.52 1.718-.839 0-1.518-.76-1.518-1.719z" fill="#fff" fill-rule="evenodd"/><path d="M67.36 135.758c0-2.439 1.878-4.438 4.197-4.438 2.318 0 4.197 2 4.197 4.438 0 2.478-1.879 4.437-4.197 4.437-2.319 0-4.198-1.959-4.198-4.437z" fill="#ff0" fill-rule="evenodd"/><path d="M71.996 131.88c1.24.88 2.08 2.199 2.08 3.518 0 2.199-1.68 3.918-3.719 3.918 0 0-.44 0-.44-.4.44.4.84.4 1.68.4 1.639 0 3.278-1.72 3.278-3.478 0-2.199-1.24-3.518-2.879-3.958z" fill="#ffd100" fill-rule="evenodd"/><path d="M68.718 134.918c0-.96.76-1.759 1.68-1.759.959 0 1.678.8 1.678 1.76 0 .999-.72 1.758-1.679 1.758-.92 0-1.679-.76-1.679-1.759z" fill="#fff" fill-rule="evenodd"/><path d="M89.906 37.137c0-2.398 1.998-4.397 4.397-4.397 2.438 0 4.397 1.999 4.397 4.397a4.385 4.385 0 0 1-4.397 4.398c-2.399 0-4.397-1.959-4.397-4.398z" fill="#ff0" fill-rule="evenodd"/><path d="M94.543 33.22c1.279.92 2.118 2.239 2.118 3.558 0 2.198-1.279 3.957-3.358 3.957h-.44 1.28c2.079 0 3.758-1.319 3.758-3.518 0-2.198-1.24-3.517-3.358-3.997z" fill="#ffd100" fill-rule="evenodd"/><path d="M91.505 36.338c0-.96.68-1.759 1.519-1.759.84 0 1.519.8 1.519 1.759 0 1-.68 1.759-1.52 1.759-.839 0-1.518-.76-1.518-1.759z" fill="#fff" fill-rule="evenodd"/><path d="M82.39 68.958c0-4.277 3.198-7.755 7.076-7.755 3.917 0 7.075 3.478 7.075 7.755 0 4.318-3.158 7.756-7.075 7.756-3.878 0-7.076-3.438-7.076-7.756z" fill="#ff0" fill-rule="evenodd"/><path d="M90.385 62.562c2.079 1.36 3.318 3.558 3.318 5.757 0 3.517-2.518 6.596-5.836 6.596h-.84c.84.44 1.68.44 2.519.44 3.318 0 5.796-2.64 5.796-6.157 0-3.518-2.079-6.156-4.957-6.636z" fill="#ffd100" fill-rule="evenodd"/><path d="M84.549 67.4c0-1.72 1.319-3.159 2.918-3.159 1.639 0 2.918 1.44 2.918 3.158 0 1.76-1.279 3.158-2.918 3.158-1.599 0-2.918-1.399-2.918-3.158z" fill="#fff" fill-rule="evenodd"/><path d="M99.5 56.726c0-4.118 3.198-7.516 7.115-7.516 3.958 0 7.116 3.398 7.116 7.516 0 4.157-3.158 7.515-7.116 7.515-3.917 0-7.115-3.358-7.115-7.515z" fill="#ff0" fill-rule="evenodd"/><path d="M107.055 50.57c2.039.919 3.678 3.117 3.678 5.756 0 3.518-2.878 6.156-6.156 6.156h-.84c.84.44 1.68.88 2.479.88 3.278 0 6.156-3.079 6.156-6.596 0-3.079-2.439-5.717-5.317-6.197z" fill="#ffd100" fill-rule="evenodd"/><path d="M101.498 55.167c0-1.6 1.24-2.919 2.759-2.919 1.559 0 2.758 1.32 2.758 2.919 0 1.639-1.2 2.918-2.758 2.918-1.52 0-2.759-1.28-2.759-2.918z" fill="#fff" fill-rule="evenodd"/><path d="M86.228 43.414c0-2.479 1.959-4.518 4.317-4.518 2.399 0 4.318 2.04 4.318 4.518 0 2.518-1.92 4.517-4.318 4.517-2.358 0-4.317-1.999-4.317-4.517z" fill="#ff0" fill-rule="evenodd"/><path d="M90.705 39.376c1.28.92 2.119 2.239 2.119 3.558 0 2.199-1.28 3.958-3.358 3.958h-.44 1.28c2.078 0 3.757-1.32 3.757-3.518 0-1.76-1.24-3.518-3.358-3.998z" fill="#ffd100" fill-rule="evenodd"/><path d="M87.347 42.494c0-.96.76-1.759 1.679-1.759.96 0 1.679.8 1.679 1.76 0 .999-.72 1.758-1.679 1.758-.92 0-1.679-.76-1.679-1.759z" fill="#fff" fill-rule="evenodd"/><path d="M83.75 96.302c0-3.438 2.598-6.237 5.796-6.237 3.238 0 5.796 2.799 5.796 6.237 0 3.478-2.558 6.236-5.796 6.236-3.198 0-5.797-2.758-5.797-6.236z" fill="#ff0" fill-rule="evenodd"/><path d="M89.866 90.865c1.679.92 2.958 2.718 2.958 4.957 0 2.678-2.119 5.357-5.037 5.357l-.44-.44c.44.44 1.28.44 2.119.44 2.518 0 4.597-2.239 4.597-4.917 0-2.679-1.679-4.917-4.197-5.397z" fill="#ffd100" fill-rule="evenodd"/><path d="M85.348 94.703c0-1.36 1.04-2.479 2.279-2.479 1.28 0 2.279 1.12 2.279 2.479 0 1.399-1 2.478-2.28 2.478-1.238 0-2.278-1.08-2.278-2.478z" fill="#fff" fill-rule="evenodd"/><path d="M119.887 85.628c0-3.438 2.559-6.276 5.637-6.276 3.118 0 5.637 2.838 5.637 6.276 0 3.478-2.519 6.276-5.637 6.276-3.078 0-5.637-2.798-5.637-6.276z" fill="#ff0" fill-rule="evenodd"/><path d="M126.164 80.231c1.679.92 2.958 2.679 2.958 4.877 0 2.679-2.559 5.317-5.077 5.317-.44 0-.44-.44-.88-.44.88.44 1.28.88 2.12.88 2.997 0 5.076-2.638 5.076-5.317 0-2.638-2.079-4.837-4.197-5.317z" fill="#ffd100" fill-rule="evenodd"/><path d="M121.486 84.309c0-1.2 1.08-2.239 2.359-2.239 1.32 0 2.359 1.04 2.359 2.239 0 1.24-1.04 2.239-2.36 2.239-1.278 0-2.358-1-2.358-2.24z" fill="#fff" fill-rule="evenodd"/><path d="M34.579 109.614c0-3.438 2.519-6.277 5.597-6.277 3.118 0 5.596 2.839 5.596 6.277 0 3.477-2.478 6.276-5.596 6.276-3.078 0-5.597-2.799-5.597-6.276z" fill="#ff0" fill-rule="evenodd"/><path d="M40.815 104.217c1.64.92 2.479 2.678 2.479 4.877 0 2.678-2.079 5.317-4.518 5.317h-.839c.84 0 1.24.44 2.079.44 2.838 0 4.877-2.639 4.877-5.317 0-2.639-2.039-4.837-4.078-5.317z" fill="#ffd100" fill-rule="evenodd"/><path d="M36.258 108.294c0-1.199.96-2.238 2.079-2.238 1.16 0 2.079 1.04 2.079 2.238 0 1.24-.92 2.239-2.08 2.239-1.119 0-2.078-1-2.078-2.239z" fill="#fff" fill-rule="evenodd"/><path d="M48.25 104.697c0-3.398 2.56-6.157 5.637-6.157 3.118 0 5.637 2.759 5.637 6.157 0 3.437-2.519 6.156-5.637 6.156-3.078 0-5.636-2.719-5.636-6.156z" fill="#ff0" fill-rule="evenodd"/><path d="M54.527 99.34c1.679.92 2.518 2.678 2.518 4.877 0 2.638-2.118 5.277-4.637 5.277-.44 0-.44-.44-.88-.44.88.44 1.28.44 2.12.44 2.998 0 5.076-2.199 5.076-4.837 0-2.639-2.078-4.837-4.197-5.317z" fill="#ffd100" fill-rule="evenodd"/><path d="M49.93 103.098c0-1.32.96-2.399 2.078-2.399 1.16 0 2.08 1.08 2.08 2.399 0 1.359-.92 2.398-2.08 2.398-1.119 0-2.078-1.04-2.078-2.398z" fill="#fff" fill-rule="evenodd"/><path d="M55.766 116.53c0-3.279 2.599-5.997 5.797-5.997 3.238 0 5.796 2.718 5.796 5.996 0 3.318-2.558 5.997-5.796 5.997-3.198 0-5.797-2.679-5.797-5.997z" fill="#ff0" fill-rule="evenodd"/><path d="M62.042 111.333c1.68.919 2.959 2.678 2.959 4.437 0 3.078-2.12 5.277-5.037 5.277h-.44c.44.44 1.28.44 2.119.44 2.518 0 4.597-2.2 4.597-5.277 0-2.639-1.68-4.398-4.198-4.877z" fill="#ffd100" fill-rule="evenodd"/><path d="M57.365 115.09c0-1.319 1.08-2.398 2.359-2.398 1.319 0 2.358 1.08 2.358 2.398 0 1.36-1.039 2.399-2.358 2.399a2.372 2.372 0 0 1-2.359-2.399z" fill="#fff" fill-rule="evenodd"/><path d="M102.858 102.458c0-3.438 2.638-6.236 5.836-6.236 3.238 0 5.837 2.798 5.837 6.236 0 3.478-2.599 6.236-5.837 6.236-3.198 0-5.836-2.758-5.836-6.236z" fill="#ff0" fill-rule="evenodd"/><path d="M109.054 97.181c1.639.92 2.878 2.678 2.878 4.917 0 2.678-2.079 5.357-4.957 5.357 0 0-.44 0-.44-.44.44.44 1.28.88 2.08.88 2.518 0 4.556-2.679 4.556-5.357 0-2.679-1.639-4.877-4.117-5.357z" fill="#ffd100" fill-rule="evenodd"/><path d="M104.537 101.099c0-1.2 1.039-2.239 2.238-2.239 1.24 0 2.239 1.04 2.239 2.239 0 1.239-1 2.238-2.239 2.238-1.199 0-2.238-.999-2.238-2.238z" fill="#fff" fill-rule="evenodd"/><path d="M101.179 112.532c0-3.278 2.638-5.997 5.836-5.997 3.238 0 5.837 2.719 5.837 5.997 0 3.318-2.599 5.996-5.837 5.996-3.198 0-5.836-2.678-5.836-5.996z" fill="#ff0" fill-rule="evenodd"/><path d="M107.375 107.335c1.639.92 2.878 2.678 2.878 4.437 0 3.078-2.079 5.277-4.957 5.277h-.44c.44.44 1.28.44 1.68.44 2.918 0 4.956-2.199 4.956-5.277 0-2.199-1.639-4.397-4.117-4.877z" fill="#ffd100" fill-rule="evenodd"/><path d="M102.858 111.093c0-1.32 1.039-2.399 2.238-2.399 1.24 0 2.239 1.08 2.239 2.399 0 1.359-1 2.398-2.239 2.398-1.199 0-2.238-1.04-2.238-2.398z" fill="#fff" fill-rule="evenodd"/><path d="M62.882 153.587c0-3.438 2.518-6.276 5.596-6.276 3.119 0 5.597 2.838 5.597 6.276 0 3.478-2.478 6.276-5.597 6.276-3.078 0-5.596-2.798-5.596-6.276z" fill="#ff0" fill-rule="evenodd"/><path d="M69.118 148.67c1.64.48 2.878 2.239 2.878 4.437 0 3.078-2.478 5.277-4.917 5.277h-.84c.84 0 1.64.44 2.08.44 2.838 0 4.877-2.199 4.877-5.277 0-2.638-1.6-4.877-4.078-4.877z" fill="#ffd100" fill-rule="evenodd"/><path d="M64.56 152.428c0-1.32 1.04-2.399 2.24-2.399 1.239 0 2.238 1.08 2.238 2.399 0 1.359-1 2.398-2.238 2.398-1.2 0-2.24-1.04-2.24-2.398z" fill="#fff" fill-rule="evenodd"/><path d="M95.342 23.826c0-3.438 2.519-6.277 5.597-6.277 3.118 0 5.596 2.839 5.596 6.277 0 3.477-2.478 6.276-5.596 6.276-3.078 0-5.597-2.799-5.597-6.276z" fill="#ff0" fill-rule="evenodd"/><path d="M101.618 18.589c1.64.92 2.879 2.678 2.879 4.877 0 2.678-2.479 5.317-4.957 5.317-.4 0-.4 0-.84-.44.84.44 1.68.88 2.079.88 2.918 0 4.957-2.64 4.957-5.317 0-2.639-1.64-4.838-4.118-5.317z" fill="#ffd100" fill-rule="evenodd"/><path d="M97.021 22.506c0-1.199 1.04-2.238 2.239-2.238 1.24 0 2.238 1.04 2.238 2.238 0 1.24-.999 2.239-2.238 2.239-1.2 0-2.239-1-2.239-2.239z" fill="#fff" fill-rule="evenodd"/><path d="M112.052 61.123c0-3.438 2.638-6.236 5.837-6.236 3.238 0 5.836 2.798 5.836 6.236 0 3.478-2.598 6.236-5.836 6.236-3.199 0-5.837-2.758-5.837-6.236z" fill="#ff0" fill-rule="evenodd"/><path d="M118.248 56.246c1.64.92 2.879 2.718 2.879 4.517 0 3.118-2.08 5.357-4.957 5.357h-.44c.44 0 1.28.44 2.079.44 2.518 0 4.557-2.239 4.557-5.357 0-2.678-1.64-4.957-4.118-4.957z" fill="#ffd100" fill-rule="evenodd"/><path d="M113.731 60.044c0-1.36 1.04-2.519 2.239-2.519 1.239 0 2.238 1.16 2.238 2.519 0 1.399-.999 2.518-2.238 2.518-1.2 0-2.239-1.12-2.239-2.518z" fill="#fff" fill-rule="evenodd"/><path d="M78.233 32.34c0-3.438 2.638-6.236 5.836-6.236 3.238 0 5.837 2.798 5.837 6.236 0 3.478-2.599 6.237-5.837 6.237-3.198 0-5.836-2.759-5.836-6.237z" fill="#ff0" fill-rule="evenodd"/><path d="M84.589 27.383c1.639.92 2.878 2.679 2.878 4.438 0 3.078-2.079 5.277-4.957 5.277h-.44c.44.44 1.28.44 1.68.44 2.917 0 4.956-2.2 4.956-5.278 0-2.638-1.639-4.877-4.117-4.877z" fill="#ffd100" fill-rule="evenodd"/><path d="M79.912 31.141c0-1.32 1.039-2.398 2.318-2.398 1.32 0 2.319 1.079 2.319 2.398 0 1.36-1 2.399-2.319 2.399-1.28 0-2.318-1.04-2.318-2.399z" fill="#fff" fill-rule="evenodd"/><path d="M60.403 39.376c0-3.198 2.439-5.836 5.397-5.836 2.998 0 5.397 2.638 5.397 5.836 0 3.238-2.399 5.837-5.397 5.837-2.958 0-5.397-2.599-5.397-5.837z" fill="#9fd894" fill-rule="evenodd"/><path d="M58.245 36.738c0-3.398 2.638-6.157 5.836-6.157 3.238 0 5.837 2.759 5.837 6.157 0 3.438-2.599 6.156-5.837 6.156-3.198 0-5.836-2.718-5.836-6.156z" fill="#ff0" fill-rule="evenodd"/><path d="M64.56 31.94c1.64.92 2.88 2.679 2.88 4.438 0 3.078-2.08 5.277-4.918 5.277h-.44c.44 0 1.24.44 2.08.44 2.438 0 4.876-2.2 4.876-5.277 0-2.639-2.039-4.877-4.477-4.877z" fill="#ffd100" fill-rule="evenodd"/><path d="M59.924 35.658c0-1.319 1.04-2.438 2.318-2.438 1.32 0 2.319 1.12 2.319 2.438 0 1.36-1 2.439-2.319 2.439-1.279 0-2.318-1.08-2.318-2.439z" fill="#fff" fill-rule="evenodd"/><path d="M75.754 59.804c0-3.438 2.599-6.276 5.797-6.276 3.238 0 5.796 2.838 5.796 6.276 0 3.478-2.558 6.276-5.796 6.276-3.198 0-5.797-2.798-5.797-6.276z" fill="#ff0" fill-rule="evenodd"/><path d="M82.03 54.887c1.68.48 2.958 2.278 2.958 4.517 0 3.118-2.118 5.357-5.036 5.357h-.44c.44 0 1.279.44 2.119.44 2.518 0 4.597-2.24 4.597-5.357 0-2.679-1.68-4.957-4.198-4.957z" fill="#ffd100" fill-rule="evenodd"/><path d="M77.353 58.485c0-1.2 1.08-2.24 2.359-2.24 1.319 0 2.358 1.04 2.358 2.24 0 1.239-1.04 2.238-2.358 2.238-1.28 0-2.359-1-2.359-2.238z" fill="#fff" fill-rule="evenodd"/><path d="M86.228 113.891c0-3.278 2.438-5.996 5.396-5.996 2.999 0 5.397 2.718 5.397 5.996 0 3.318-2.398 5.996-5.397 5.996-2.958 0-5.396-2.678-5.396-5.996z" fill="#9fd894" fill-rule="evenodd"/><path d="M84.069 111.333c0-3.398 2.638-6.157 5.837-6.157 3.238 0 5.836 2.759 5.836 6.157 0 3.437-2.598 6.156-5.836 6.156-3.199 0-5.837-2.719-5.837-6.156z" fill="#ff0" fill-rule="evenodd"/><path d="M90.425 106.056c1.64.92 2.878 2.678 2.878 4.877 0 2.678-2.078 5.317-4.957 5.317 0 0-.44 0-.44-.44.44.44 1.28.88 1.68.88 2.918 0 4.957-2.64 4.957-5.317 0-2.639-1.64-4.838-4.118-5.317z" fill="#ffd100" fill-rule="evenodd"/><path d="M85.748 110.053c0-1.159 1.04-2.158 2.319-2.158 1.319 0 2.318.999 2.318 2.158 0 1.2-1 2.159-2.318 2.159-1.28 0-2.319-.96-2.319-2.159z" fill="#fff" fill-rule="evenodd"/><path d="M125.324 74.075c0-3.198 2.439-5.836 5.437-5.836 3.038 0 5.436 2.638 5.436 5.836 0 3.238-2.398 5.837-5.436 5.837-2.998 0-5.437-2.599-5.437-5.837z" fill="#9fd894" fill-rule="evenodd"/><path d="M122.846 72.716c0-3.398 2.518-6.156 5.596-6.156 3.118 0 5.597 2.758 5.597 6.156 0 3.438-2.479 6.156-5.597 6.156-3.078 0-5.596-2.718-5.596-6.156z" fill="#ff0" fill-rule="evenodd"/><path d="M129.082 67.919c1.639.92 2.478 2.678 2.478 4.437 0 3.078-2.078 5.277-4.517 5.277h-.84c.84.44 1.24.44 2.08.44 2.838 0 4.876-2.199 4.876-5.277 0-2.639-2.038-4.877-4.077-4.877z" fill="#ffd100" fill-rule="evenodd"/><path d="M124.525 71.637c0-1.32.959-2.439 2.078-2.439 1.16 0 2.079 1.12 2.079 2.439 0 1.359-.92 2.438-2.079 2.438-1.12 0-2.078-1.08-2.078-2.438z" fill="#fff" fill-rule="evenodd"/><path d="M60.723 88.306c0-2.398 1.88-4.397 4.158-4.397 2.318 0 4.157 1.999 4.157 4.397 0 2.439-1.839 4.398-4.157 4.398-2.279 0-4.158-1.959-4.158-4.398z" fill="#ff0" fill-rule="evenodd"/><path d="M65.32 84.709c1.24.48 2.08 1.799 2.08 3.558 0 1.758-1.68 3.517-3.759 3.517h-.44c.44.44.84.44 1.28.44 2.079 0 3.758-1.759 3.758-3.957 0-1.76-1.24-3.558-2.919-3.558z" fill="#ffd100" fill-rule="evenodd"/><path d="M62.082 87.347c0-1 .76-1.839 1.64-1.839.919 0 1.638.84 1.638 1.84 0 1.038-.72 1.838-1.639 1.838-.88 0-1.639-.8-1.639-1.839zm-15.47-1.839c-2.519-11.073 6.676-35.938 23.785-38.616-4.997 3.557-22.106 17.35-23.785 38.616zM82.39 96.222c8.315-1.32 29.102-10.194 24.545-40.856.4 3.119-4.997 35.539-24.545 40.856z" fill="#fff" fill-rule="evenodd"/><path d="M46.252 110.853c-3.758-10.194-1.679-18.19 1.639-20.388-4.158-7.555-1.639-34.18 19.468-43.094-11.593 4.478-26.943 15.111-25.664 38.657-1.28 7.515 1.239 18.629 4.557 24.825zm44.453-16.31c9.594-5.317 21.667-23.146 17.51-39.656 4.157 11.153 4.956 30.781-17.51 39.656z" fill="#9fd894" fill-rule="evenodd"/><path d="M47.012 90.065c-7.956-16.43 11.672-47.171 27.543-43.133m4.477 50.209c17.95 2.199 39.176-31.021 25.025-46.572" fill="none" stroke="#333" stroke-width=".8" stroke-linecap="round" stroke-linejoin="round" stroke-miterlimit="10"/><path d="M53.208 85.508c-5.397 3.118-14.152 12.912-2.879 31.98-3.757-9.314-5.436-22.625 2.879-31.98z" fill="#fff" fill-rule="evenodd"/><path d="M79.512 98.54c.88-.92.88-2.278.88-3.677" fill="none" stroke="#bfe6b4" stroke-width=".8" stroke-miterlimit="8"/><path d="M52.008 119.887c-11.273-13.312-9.993-29.302 2.879-35.978" fill="none" stroke="#333" stroke-width=".8" stroke-linecap="round" stroke-linejoin="round" stroke-miterlimit="10"/><path d="M50.85 119.887c.839-.88 1.238-2.198 1.238-3.078-1.639-.92-2.878 0-4.157 1.32M73.356 48.77c.4-1.758.4-3.517-.84-4.837-2.558.88-2.119 3.079-2.119 5.277-2.158 0-1.719-2.638-2.158-4.397" fill="none" stroke="#bfe6b4" stroke-width=".8" stroke-miterlimit="8"/></svg>