<svg xmlns="http://www.w3.org/2000/svg" version="1.0" viewBox="0 0 157.077 217.172"><defs><clipPath clipPathUnits="userSpaceOnUse" id="a"><path d="M2.558 3.598h156.865v217.308H2.558z"/></clipPath></defs><path d="M59.484 78.353s37.337 7.435 13.832 40.615" fill="none" stroke="#fff" stroke-width="2.478" stroke-linecap="round" stroke-miterlimit="8"/><path d="M104.497 78.353s-37.658 7.435-14.032 40.615" fill="none" stroke="#fff" stroke-width="2.478" stroke-linecap="round" stroke-miterlimit="8"/><path d="M77.153 146.111c.32-.959.48-1.798.48-2.438a21.335 21.335 0 0 0 3.518-6.756c2.918-9.194-.44-18.869-7.676-21.507-7.235-2.638-15.51 2.638-18.468 11.833-.76 2.478-1.04 4.917-1.04 7.395-.48.48-1.08 1.32-1.399 2.439-.32 1-.32 1.999-.32 2.638-1.359 2-2.598 4.118-3.358 6.596-2.958 9.195.44 18.869 7.676 21.507 7.235 2.599 15.51-2.638 18.469-11.833a19.546 19.546 0 0 0 1.039-7.715c.48-.48.96-1.32 1.08-2.159z" fill="#f8bc60" fill-rule="evenodd"/><path d="M72.796 134.838c-4.797 5.117-11.593 6.237-15.15 2.479-3.399-3.798-2.44-11.034 2.478-16.11 4.797-5.117 11.593-6.277 15.15-2.479 3.518 3.798 2.439 11.033-2.478 16.11z" fill="#f9cd93" fill-rule="evenodd"/><path d="M54.967 135.958s-2.879 1.359-1.76 4.637c0 0 .16-3.278 1.76-4.637z" fill="#f8ddbc" fill-rule="evenodd"/><path d="M63.881 153.587c.76 7.036-1.839 12.912-6.196 13.552-4.157.48-8.195-4.558-9.114-11.433-.8-6.876 1.998-12.913 6.196-13.552 4.157-.52 8.355 4.557 9.114 11.433z" fill="#f9cd93" fill-rule="evenodd"/><path d="M60.363 151.268c-.76 3.918-3.837 6.676-6.755 6.037-3.079-.64-4.798-4.398-3.998-8.315.6-4.078 3.678-6.716 6.756-6.037 2.918.64 4.757 4.398 3.997 8.315z" fill="#f8ddbc" fill-rule="evenodd"/><path d="M56.206 144.992c-.32.96-1.24 1.44-2.159 1.12-.92-.48-1.399-1.44-1.08-2.24.32-.959 1.24-1.278 2.16-.959.919.32 1.359 1.28 1.079 2.08zm-3.398 3.118c-.32.64-.96.96-1.599.8-.8-.32-1.12-.96-.96-1.64.32-.639.96-.999 1.76-.799.64.32.959.96.799 1.64z" fill="#fff" fill-rule="evenodd"/><path d="M73.276 118.968c1.519 2.958-.48 7.196-4.598 9.674-3.997 2.279-8.634 1.959-10.153-1-1.56-2.958.6-7.355 4.597-9.673 4.157-2.479 8.635-1.96 10.154.999z" fill="#f8ddbc" fill-rule="evenodd"/><path d="M69.638 123.965c-1.84 1.12-3.998.64-4.917-1-.96-1.599-.16-3.877 1.679-5.036 1.839-1 3.997-.64 4.917.959.92 1.639.16 3.918-1.68 5.077zm-6.596 2.838c-.88 1-2.239 1.16-2.998.36-.76-.84-.76-2.359.16-3.358.879-1 2.238-1.2 2.998-.36.72.84.6 2.359-.16 3.358z" fill="#fff" fill-rule="evenodd"/><path d="M77.313 145.792c.32-.96.48-1.8.48-2.439 1.399-1.959 2.758-4.117 3.518-6.756 2.918-9.194-.44-18.868-7.676-21.507-7.235-2.638-15.55 2.639-18.468 11.833-.76 2.479-1.2 5.077-1.08 7.396-.44.64-1.08 1.479-1.359 2.438-.32 1-.32 1.999-.32 2.798-1.399 1.84-2.598 3.958-3.398 6.437-3.078 9.194.48 18.868 7.716 21.506 7.235 2.599 15.51-2.638 18.428-11.832.8-2.639 1.08-5.277 1.08-7.716.48-.48.8-1.319 1.08-2.158" fill="none" stroke="#333" stroke-width=".64" stroke-miterlimit="8"/><path d="M88.227 145.632c-.32-.8-.48-1.8-.32-2.439-1.56-1.799-2.759-4.117-3.678-6.756-2.958-9.194.44-18.708 7.675-21.507 7.236-2.638 15.55 2.799 18.47 11.833.919 2.639 1.198 5.077 1.078 7.556.6.48 1.04 1.319 1.36 2.278.32 1 .48 1.999.32 2.799 1.399 1.798 2.598 4.117 3.397 6.596 3.039 9.194-.48 18.708-7.715 21.347-7.236 2.758-15.39-2.639-18.469-11.833-.76-2.479-1.04-5.077-.92-7.556-.439-.68-.919-1.319-1.198-2.318z" fill="#f8bc60" fill-rule="evenodd"/><path d="M92.664 134.359c4.757 5.276 11.513 6.236 15.07 2.638 3.519-3.798 2.48-11.033-2.318-16.11-4.917-5.277-11.673-6.276-15.07-2.639-3.559 3.798-2.48 11.034 2.318 16.11z" fill="#f9cd93" fill-rule="evenodd"/><path d="M110.773 135.478s2.478 1.519 1.479 4.797c0 0-.16-3.278-1.48-4.797z" fill="#f8ddbc" fill-rule="evenodd"/><path d="M101.578 153.227c-.8 6.876 2 12.952 6.157 13.432 4.157.64 8.315-4.597 9.074-11.473.76-6.876-1.999-12.952-6.156-13.432-4.158-.68-8.155 4.597-9.075 11.473z" fill="#f9cd93" fill-rule="evenodd"/><path d="M105.256 150.789c.76 4.077 3.838 6.676 6.756 6.036 3.078-.64 4.917-4.397 4.158-8.315-.76-3.918-3.838-6.716-6.756-6.036-3.078.64-4.957 4.397-4.158 8.315z" fill="#f8ddbc" fill-rule="evenodd"/><path d="M109.254 144.672c.32.8 1.399 1.28 2.158.96.92-.32 1.52-1.28 1.24-2.239-.32-.8-1.4-1.28-2.159-.96-.92.32-1.4 1.28-1.24 2.24zm3.518 3.118c.28.64.88.96 1.599.64.6-.16.88-.96.76-1.639-.16-.64-.88-1-1.48-.64-.72.16-1.04.96-.88 1.64z" fill="#fff" fill-rule="evenodd"/><path d="M92.184 118.408c-1.559 2.958.64 7.436 4.677 9.754 4.158 2.439 8.675 1.96 10.234-1 1.52-2.997-.64-7.275-4.677-9.753-4.158-2.319-8.675-1.959-10.234 1z" fill="#f8ddbc" fill-rule="evenodd"/><path d="M95.902 123.485c1.679 1.12 3.997.64 4.757-1 .92-1.598.16-3.717-1.679-4.876-1.839-1.16-3.998-.64-4.917 1-.8 1.598 0 3.877 1.839 4.876zm6.636 2.838c.76 1 2.159 1.16 2.918.36.76-.68.76-2.198-.16-3.198-.76-1-2.159-1.2-2.918-.52-.8.84-.8 2.359.16 3.358z" fill="#fff" fill-rule="evenodd"/><path d="M88.067 145.312c-.32-.8-.48-1.64-.32-2.439-1.56-1.798-2.759-4.117-3.678-6.755-2.958-9.195.6-18.71 7.835-21.348 7.236-2.798 15.391 2.639 18.43 11.833.799 2.479 1.078 4.917.959 7.396.6.48 1.039 1.319 1.359 2.278.32 1 .48 2.16.32 2.799 1.519 1.799 2.598 4.117 3.517 6.596 2.919 9.194-.6 18.708-7.835 21.507-7.235 2.598-15.39-2.639-18.469-11.833a23.7 23.7 0 0 1-.92-7.715c-.439-.48-.919-1.32-1.198-2.32" fill="none" stroke="#333" stroke-width=".64" stroke-miterlimit="8"/><path clip-path="url(#a)" d="M81.55 187.766c.32.8.48 1.8.48 2.439 1.52 1.959 2.759 4.117 3.518 6.716 2.918 9.194-.44 18.868-7.715 21.507-7.236 2.598-15.55-2.639-18.469-11.833-.76-2.439-1.08-5.077-1.08-7.356-.479-.68-1.079-1.479-1.398-2.478-.28-.96-.28-1.96-.28-2.759-1.4-1.838-2.639-3.957-3.398-6.396-2.958-9.194.44-18.868 7.675-21.507 7.276-2.638 15.59 2.639 18.509 11.793.92 2.639 1.24 5.117 1.08 7.716.479.52.919 1.159 1.079 2.158z" fill="#e8679e" fill-rule="evenodd"/><path d="M77.113 199c-4.757-5.118-11.513-6.277-15.07-2.48-3.399 3.799-2.44 10.874 2.478 16.111 4.757 5.117 11.513 6.236 15.07 2.479 3.519-3.798 2.48-11.034-2.478-16.11zm-17.829-1.08s-2.798-1.48-1.679-4.637c0 0 .16 3.318 1.68 4.637zm8.915-17.75c.76-6.875-1.84-12.911-6.197-13.391-4.157-.68-8.195 4.557-9.114 11.433-.8 6.876 1.999 12.912 6.196 13.552 4.158.48 8.355-4.557 9.115-11.593z" fill="#eb88b2" fill-rule="evenodd"/><path d="M64.68 182.65c-.759-3.918-3.837-6.717-6.755-6.037-3.078.64-4.797 4.397-3.998 8.315.6 4.077 3.678 6.676 6.756 6.036 2.918-.64 4.757-4.397 3.998-8.315z" fill="#eea7c6" fill-rule="evenodd"/><path d="M60.523 188.726a1.705 1.705 0 0 0-2.158-.96c-.92.32-1.4 1.28-1.08 2.239.32.8 1.24 1.28 2.159.96.92-.32 1.36-1.28 1.08-2.24zm-3.358-2.959c-.32-.68-.96-1.039-1.559-.84-.8.32-1.119 1-.96 1.68.32.68.96 1 1.72.68.64-.16.92-.84.8-1.52z" fill="#fff" fill-rule="evenodd"/><path d="M77.593 214.99c1.52-2.959-.48-7.196-4.597-9.634-3.998-2.479-8.635-1.96-10.154.959-1.56 2.958.6 7.196 4.597 9.634 4.158 2.439 8.635 1.959 10.154-.96z" fill="#eea7c6" fill-rule="evenodd"/><path d="M73.995 209.873c-1.839-1.16-4.037-.64-4.957 1-.96 1.598-.16 3.877 1.72 4.876 1.838 1.12 4.037.64 4.956-1 .92-1.598.16-3.717-1.719-4.876zm-6.635-2.759c-.88-.999-2.24-1.199-2.999-.36-.76.84-.76 2.36.16 3.359.88 1 2.239 1.159 2.998.36.72-.84.6-2.36-.16-3.359z" fill="#fff" fill-rule="evenodd"/><path clip-path="url(#a)" d="M81.71 188.086c.32.84.48 1.839.48 2.479 1.36 1.798 2.759 4.117 3.518 6.755 2.918 9.195-.44 18.71-7.715 21.507-7.236 2.599-15.55-2.638-18.47-11.832-.759-2.639-1.238-5.077-1.078-7.556a6.047 6.047 0 0 1-1.4-2.318c-.32-.96-.32-1.96-.32-2.759-1.359-1.839-2.598-3.957-3.357-6.596-3.118-9.194.44-18.708 7.675-21.347 7.276-2.638 15.59 2.639 18.509 11.833.76 2.478 1.08 5.077 1.08 7.555.479.64.759 1.32 1.078 2.279" fill="none" stroke="#333" stroke-width=".64" stroke-miterlimit="8"/><path clip-path="url(#a)" d="M85.068 188.086c-.32 1-.48 1.839-.32 2.638-1.558 1.8-2.798 4.118-3.717 6.756-2.958 9.195.48 18.709 7.755 21.347 7.276 2.759 15.63-2.638 18.549-11.832a17.63 17.63 0 0 0 1.08-7.396c.639-.48 1.079-1.32 1.398-2.319.32-1.119.48-2.118.32-2.758a21.446 21.446 0 0 0 3.398-6.596c3.078-9.194-.48-18.709-7.755-21.507-7.236-2.638-15.47 2.639-18.549 11.833-.76 2.638-1.08 5.237-.92 7.715-.479.48-.959 1.32-1.239 2.119z" fill="#e8679e" fill-rule="evenodd"/><path d="M89.626 199.32c4.757-5.118 11.513-6.277 15.07-2.48 3.518 3.798 2.48 11.074-2.318 16.19-4.917 5.118-11.673 6.237-15.07 2.48-3.559-3.798-2.48-10.914 2.318-16.19zm17.949-.92s2.638-1.48 1.559-4.797c0 0-.16 3.318-1.56 4.797zm-9.035-17.75c-.8-6.875 2-12.912 6.197-13.551 4.157-.52 8.354 4.557 9.114 11.593.76 6.876-1.999 12.912-6.196 13.392-4.158.64-8.195-4.558-9.115-11.433z" fill="#eb88b2" fill-rule="evenodd"/><path d="M102.058 182.97c.76-3.919 3.838-6.557 6.756-5.877 3.078.48 4.917 4.237 4.158 8.315-.76 3.917-3.838 6.676-6.756 6.036-3.079-.64-4.957-4.397-4.158-8.475z" fill="#eea7c6" fill-rule="evenodd"/><path d="M106.216 189.205c.32-.8 1.399-1.279 2.158-.96.92.32 1.52 1.28 1.24 2.08-.32.96-1.4 1.439-2.16 1.119-.919-.32-1.398-1.44-1.238-2.239zm3.358-3.118c.32-.68.959-1.04 1.719-.68.64.16.919.84.8 1.52-.16.68-.96 1-1.56.84-.8-.32-1.12-1-.96-1.68z" fill="#fff" fill-rule="evenodd"/><path d="M89.146 215.27c-1.56-2.799.6-7.196 4.597-9.515 4.158-2.478 8.635-1.959 10.154 1 1.52 2.958-.6 7.195-4.597 9.674-4.158 2.278-8.635 1.799-10.154-1.16z" fill="#eea7c6" fill-rule="evenodd"/><path d="M92.824 210.273c1.679-1 3.997-.64 4.757.959.88 1.639.12 3.918-1.68 5.077-1.838 1.12-3.997.64-4.876-1-.8-1.599 0-3.877 1.799-5.036zm6.596-2.679c.76-1 2.158-1.2 2.918-.52.76.84.76 2.36-.16 3.358-.76 1-2.159 1.16-2.918.36-.8-.68-.8-2.198.16-3.198z" fill="#fff" fill-rule="evenodd"/><path clip-path="url(#a)" d="M85.028 188.406c-.32 1-.48 1.839-.32 2.638-1.518 1.8-2.758 4.118-3.677 6.596-2.958 9.195.6 18.869 7.835 21.507 7.276 2.599 15.43-2.638 18.509-11.833.76-2.478 1.08-4.917.92-7.395.639-.48 1.079-1.32 1.399-2.479.32-.96.44-1.958.32-2.598 1.518-1.999 2.598-4.118 3.517-6.596 2.918-9.195-.6-18.869-7.835-21.507-7.276-2.638-15.43 2.638-18.509 11.833-.76 2.638-1.08 5.237-.92 7.715-.479.48-.919 1.32-1.239 2.119" fill="none" stroke="#333" stroke-width=".64" stroke-miterlimit="8"/><path clip-path="url(#a)" d="M31.62 34.46c0-.8-.319-1.64-.759-2.28.6-2.478.76-5.076.44-7.715-1.24-9.674-8.435-16.59-15.99-15.43-7.716 1.159-12.793 9.834-11.553 19.548.48 2.598 1.239 4.917 2.318 7.035-.32.64-.32 1.64-.16 2.799.16.96.48 1.959.76 2.598-.44 2.319-.6 4.757-.28 7.396 1.36 9.674 8.435 16.55 15.99 15.43 7.676-1.159 12.753-9.834 11.553-19.548-.48-2.598-1.239-5.077-2.318-7.195.16-.68.16-1.64 0-2.639z" fill="#e8679e" fill-rule="evenodd"/><path d="M22.866 26.584c-2.159 6.876-7.675 11.113-12.312 9.514-4.758-1.639-6.916-8.515-4.758-15.39 2.16-6.876 7.676-11.154 12.313-9.515 4.757 1.64 6.876 8.515 4.757 15.39zm-15.51 9.594s-1.72 2.678.6 4.957c0 0-1.2-2.958-.6-4.957zm15.63 11.553c3.718 5.757 3.838 12.552.32 14.991-3.558 2.638-9.235 0-12.912-5.916-3.718-5.757-3.878-12.553-.32-15.031 3.518-2.639 9.234 0 12.912 5.956z" fill="#eb88b2" fill-rule="evenodd"/><path d="M18.709 47.251c1.079 3.958-.44 7.916-3.518 8.755-2.918.8-6.156-1.639-7.116-5.597-1.08-3.957.48-7.755 3.398-8.754 3.078-.84 6.156 1.639 7.236 5.596z" fill="#eea7c6" fill-rule="evenodd"/><path d="M12.512 43.853c.16 1-.64 1.84-1.599 2-.959.16-1.918-.48-1.918-1.48-.16-1 .48-1.839 1.439-1.999.96-.2 1.919.48 2.078 1.48zm-1.838 4.317c0 .68-.44 1.36-1.04 1.36-.76.16-1.359-.32-1.359-1-.16-.679.32-1.359 1.08-1.558.599 0 1.199.52 1.319 1.199z" fill="#fff" fill-rule="evenodd"/><path d="M16.59 12.153c2.558 1.958 2.558 6.716 0 10.793-2.598 4.278-6.876 6.036-9.474 4.078-2.599-1.96-2.599-6.676 0-10.754 2.598-4.117 6.876-5.916 9.474-4.117z" fill="#eea7c6" fill-rule="evenodd"/><path d="M15.59 18.509c-1.239 1.839-3.437 2.478-4.837 1.519-1.599-1.16-1.918-3.518-.64-5.317 1.08-1.999 3.279-2.678 4.838-1.679 1.599 1.16 1.719 3.478.64 5.477zm-4.876 5.596c-.32 1.28-1.56 2.08-2.479 1.76-1.08-.32-1.719-1.6-1.24-2.919.32-1.28 1.4-2.119 2.48-1.759 1.079.32 1.518 1.6 1.239 2.918z" fill="#fff" fill-rule="evenodd"/><path clip-path="url(#a)" d="M31.62 34.14c-.16-.8-.319-1.8-.759-2.28.6-2.478.76-5.076.44-7.715-1.24-9.674-8.435-16.59-15.99-15.43C7.595 9.874 2.518 18.549 3.758 28.263c.48 2.598 1.239 4.917 2.318 7.036-.32.64-.32 1.639-.16 2.798.16.96.48 1.959.76 2.598-.44 2.319-.6 4.757-.28 7.396 1.36 9.674 8.435 16.55 15.99 15.43 7.676-1.159 12.753-9.834 11.553-19.548-.48-2.598-1.239-5.077-2.318-7.195.16-.68.16-1.64 0-2.639" fill="none" stroke="#333" stroke-width=".64" stroke-miterlimit="8"/><path clip-path="url(#a)" d="M40.495 14.191c-.76-.48-1.559-.84-2.158-.84-1.4-2.118-3.238-3.917-5.397-5.396-7.715-5.117-17.27-3.798-21.427 3.118-4.038 6.876-1.08 16.59 6.476 21.827 2.159 1.48 4.317 2.319 6.636 2.798.28.64.92 1.48 1.839 1.96.76.679 1.679.999 2.478.999 1.24 1.958 3.079 3.757 5.077 5.076 7.716 5.237 17.27 3.958 21.427-2.958 4.158-6.876 1.24-16.75-6.476-21.986-2.158-1.32-4.477-2.319-6.756-2.799-.32-.64-.959-1.159-1.719-1.799z" fill="#83b838" fill-rule="evenodd"/><path d="M29.142 16.39c3.518 6.036 3.078 13.392-1.239 15.99-4.317 2.759-10.673 0-14.231-6.036-3.558-6.196-2.919-13.392 1.239-16.15 4.317-2.798 10.673 0 14.231 6.196z" fill="#9bc568" fill-rule="evenodd"/><path d="M25.784 35.139s.8 3.198 3.998 2.718c0 0-3.038-.84-3.998-2.718z" fill="#b5d494" fill-rule="evenodd"/><path d="M44.253 29.982c6.436.8 11.353 5.077 10.914 9.474-.48 4.437-6.157 7.516-12.633 6.716-6.596-.8-11.393-5.077-10.913-9.474.48-4.438 5.996-7.556 12.632-6.716z" fill="#9bc568" fill-rule="evenodd"/><path d="M41.015 33.22c3.558 1.639 5.237 5.596 4.038 8.555-1.4 2.958-5.277 3.917-8.635 2.118-3.558-1.639-5.277-5.436-4.038-8.395 1.4-2.958 5.237-3.957 8.635-2.278z" fill="#b5d494" fill-rule="evenodd"/><path d="M34.38 36.058c.799.48.919 1.68.479 2.479-.48.84-1.52 1.159-2.319.68-.76-.48-.92-1.68-.28-2.48.44-.999 1.52-1.199 2.12-.679zm2.198 4.318c.44.32.56 1.159.28 1.798-.44.48-1.16.8-1.6.32-.599-.32-.759-1.16-.32-1.799.32-.48 1.04-.84 1.64-.32z" fill="#fff" fill-rule="evenodd"/><path d="M14.591 11.993c3.078-.84 6.596 2.318 7.835 7.115 1.2 4.798-.32 9.435-3.398 10.434-2.918.8-6.436-2.318-7.675-7.116-1.24-4.797.32-9.434 3.238-10.433z" fill="#b5d494" fill-rule="evenodd"/><path d="M18.389 17.07c.6 2.158-.32 4.477-1.999 4.957-1.679.48-3.518-.84-4.117-2.999-.64-2.158.28-4.277 1.998-4.957 1.68-.52 3.518.84 4.118 2.999zm.959 7.435c.76 1.16.64 2.679-.32 3.358-.919.64-2.158.16-2.918-1-.8-1.199-.64-2.678.32-3.197.92-.68 2.319-.32 2.918.84z" fill="#fff" fill-rule="evenodd"/><path clip-path="url(#a)" d="M40.176 14.031c-.76-.48-1.56-.839-2.159-.839-1.4-2.119-3.078-3.918-5.237-5.397-7.715-5.277-17.27-3.957-21.427 2.958-4.197 6.876-1.24 16.75 6.476 21.987 1.999 1.48 4.318 2.319 6.476 2.798.44.64 1.08 1.32 1.84 1.96.919.679 1.678.999 2.478.999 1.359 1.958 3.078 3.597 5.236 5.077 7.556 5.236 17.27 3.957 21.268-2.959 4.157-6.875 1.239-16.75-6.476-21.986-2.16-1.48-4.478-2.319-6.636-2.799-.44-.64-1.08-1.319-1.84-1.799" fill="none" stroke="#333" stroke-width=".64" stroke-miterlimit="8"/><path d="M45.572 56.326c-.76-.48-1.519-.84-2.278-1-1.4-1.958-3.078-3.757-5.237-5.236-7.675-5.277-17.23-3.958-21.387 2.958-4.158 6.876-1.2 16.75 6.476 21.987 2.159 1.319 4.317 2.318 6.436 2.798.48.64 1.08 1.319 1.999 1.959.8.52 1.719.84 2.318.84 1.4 1.958 3.079 3.757 5.237 5.236 7.676 5.077 17.23 3.798 21.347-3.118 3.998-6.876 1.24-16.59-6.436-21.827-2.158-1.479-4.477-2.478-6.756-2.958-.48-.48-.92-1.16-1.719-1.64z" fill="#83b838" fill-rule="evenodd"/><path d="M34.1 58.245c3.517 6.236 2.918 13.512-1.24 16.31-4.317 2.798-10.593 0-14.151-6.276-3.558-6.237-2.919-13.512 1.239-16.31 4.317-2.839 10.593 0 14.151 6.276z" fill="#9bc568" fill-rule="evenodd"/><path d="M30.981 77.113s.64 3.198 3.838 2.879c0 0-2.878-1-3.838-2.879z" fill="#b5d494" fill-rule="evenodd"/><path d="M49.09 71.796c6.636.84 11.393 5.117 10.954 9.595-.48 4.597-6.037 7.555-12.673 6.756-6.476-.84-11.433-4.957-10.953-9.595.64-4.437 6.196-7.435 12.672-6.756z" fill="#9bc568" fill-rule="evenodd"/><path d="M46.212 75.035c3.558 1.798 5.237 5.596 3.998 8.554-1.36 2.959-5.237 3.918-8.675 2.279-3.558-1.799-5.277-5.597-4.038-8.555 1.28-2.958 5.277-3.957 8.715-2.278z" fill="#b5d494" fill-rule="evenodd"/><path d="M39.576 78.033c.8.48.92 1.679.48 2.478-.48.84-1.52 1.16-2.319.68-.76-.48-.92-1.68-.44-2.479.6-.84 1.52-1.199 2.279-.68zm1.919 4.277c.64.32.76 1.08.32 1.72-.32.639-1.08.759-1.56.479-.639-.48-.799-1.24-.32-1.72.32-.639 1.08-.799 1.56-.479z" fill="#fff" fill-rule="evenodd"/><path d="M19.668 53.967c3.118-.84 6.516 2.279 7.755 7.036 1.24 4.917-.12 9.514-3.238 10.354-3.118.96-6.516-2.319-7.755-7.076-1.28-4.757.12-9.314 3.238-10.314z" fill="#b5d494" fill-rule="evenodd"/><path d="M23.506 59.124c.6 2.119-.28 4.238-1.96 4.717-1.798.48-3.637-.8-4.077-2.918-.64-2.119.28-4.237 1.96-4.717 1.678-.68 3.477.64 4.077 2.918zm.919 7.356c.72 1.159.6 2.678-.32 3.358-.88.64-2.238.16-2.838-1-.76-1.199-.6-2.518.32-3.198.88-.68 2.079-.32 2.838.84z" fill="#fff" fill-rule="evenodd"/><path d="M45.213 56.006c-.8-.48-1.56-.84-2.16-.84-1.398-2.118-3.237-3.917-5.396-5.396-7.515-5.117-17.23-3.798-21.227 3.118-4.157 6.876-1.2 16.59 6.476 21.827 1.999 1.479 4.318 2.318 6.436 2.798.32.64.92 1.48 1.88 1.959.759.68 1.678 1 2.438 1 1.399 1.958 3.078 3.757 5.077 5.076 7.675 5.237 17.23 3.958 21.387-2.958 4.117-6.876 1.199-16.75-6.477-21.987-2.158-1.319-4.437-2.318-6.755-2.798-.32-.64-.92-1.16-1.68-1.799" fill="none" stroke="#333" stroke-width=".64" stroke-miterlimit="8"/><path d="M66.24 52.968c0-.8-.32-1.799-.76-2.279.6-2.478.76-5.117.44-7.755-1.24-9.674-8.435-16.59-15.99-15.43-7.716 1.159-12.793 9.873-11.553 19.547.48 2.639 1.239 4.957 2.318 7.076-.32.64-.32 1.64-.16 2.798.16.96.48 1.96.76 2.639-.44 2.279-.6 4.757-.28 7.355 1.36 9.715 8.435 16.59 15.99 15.471 7.676-1.16 12.753-9.874 11.553-19.548-.48-2.638-1.239-5.117-2.318-7.236.16-.68.16-1.639 0-2.638z" fill="#e8679e" fill-rule="evenodd"/><path d="M57.445 45.173c-1.999 6.875-7.715 11.153-12.352 9.514-4.797-1.64-6.996-8.555-4.797-15.47 2.158-6.917 7.715-11.194 12.352-9.515 4.797 1.639 6.956 8.555 4.797 15.47zm-15.59 9.634s-1.76 2.638.64 4.877c0 0-1.28-2.918-.64-4.877zm15.59 11.553c3.718 5.716 3.838 12.432.32 14.87-3.558 2.6-9.234 0-12.912-5.876-3.718-5.716-3.878-12.432-.32-14.87 3.518-2.64 9.234 0 12.912 5.876z" fill="#eb88b2" fill-rule="evenodd"/><path d="M53.168 65.8c1.08 3.958-.44 7.915-3.518 8.755-2.918.8-6.156-1.64-7.116-5.597-1.08-3.957.48-7.755 3.398-8.754 3.078-.84 6.316 1.639 7.236 5.596z" fill="#eea7c6" fill-rule="evenodd"/><path d="M46.972 62.322c.16 1-.64 1.84-1.6 1.999-.959.16-1.918-.48-1.918-1.48-.16-.998.48-1.838 1.439-1.998.96-.2 1.919.48 2.079 1.48zm-1.679 4.518c0 .68-.44 1.319-1.08 1.319-.76.16-1.399-.32-1.399-.96-.16-.68.32-1.319 1.12-1.519.599 0 1.239.52 1.359 1.16z" fill="#fff" fill-rule="evenodd"/><path d="M51.05 30.661c2.558 1.96 2.558 6.716 0 10.834-2.6 4.237-6.877 5.876-9.475 4.077-2.599-1.958-2.599-6.716 0-10.833 2.598-4.078 6.876-5.916 9.474-4.078z" fill="#eea7c6" fill-rule="evenodd"/><path d="M50.05 37.098c-1.24 1.798-3.438 2.438-4.837 1.479-1.6-1.16-1.92-3.478-.64-5.277 1.08-1.959 3.278-2.639 4.837-1.64 1.6 1.16 1.719 3.439.64 5.438zm-4.877 5.596c-.28 1.32-1.48 2.119-2.399 1.799-1.04-.32-1.639-1.639-1.16-2.958.28-1.32 1.32-2.159 2.36-1.8 1.039.32 1.478 1.64 1.199 2.96z" fill="#fff" fill-rule="evenodd"/><path d="M66.24 52.608c-.16-.8-.32-1.799-.76-2.279.6-2.478.76-5.076.44-7.715-1.24-9.674-8.435-16.59-15.99-15.43-7.716 1.159-12.793 9.834-11.553 19.548.48 2.438 1.239 4.917 2.318 7.035-.32.64-.32 1.64-.16 2.799.16.96.48 1.959.76 2.598-.44 2.319-.6 4.757-.28 7.396 1.36 9.674 8.435 16.55 15.99 15.43 7.676-1.159 12.753-9.834 11.553-19.548-.48-2.598-1.239-5.077-2.318-7.195.16-.84.16-1.64 0-2.639" fill="none" stroke="#333" stroke-width=".64" stroke-miterlimit="8"/><path d="M130.321 34.619c.16-.96.48-1.799.76-2.439-.44-2.318-.76-4.917-.28-7.715 1.199-9.514 8.435-16.43 15.99-15.27 7.515.999 12.592 9.833 11.393 19.348-.32 2.638-1.08 5.117-2.159 7.075.16.8.32 1.8.16 2.799-.16 1.119-.48 1.959-.92 2.598.44 2.479.6 4.917.28 7.556-1.239 9.674-8.434 16.39-15.99 15.43-7.555-1.16-12.632-9.834-11.393-19.508.32-2.638 1.08-5.277 2.319-7.395-.16-.68-.32-1.48-.16-2.479z" fill="#e8679e" fill-rule="evenodd"/><path d="M139.076 26.744c2.158 6.876 7.675 11.113 12.392 9.514 4.757-1.639 6.716-8.675 4.757-15.55-2.158-6.876-7.675-11.154-12.392-9.515-4.757 1.64-6.756 8.675-4.757 15.55zm15.43 9.594s1.92 2.518-.48 5.037c0 0 1.28-2.998.48-5.037zm-15.51 11.433c-3.598 5.757-3.758 12.512-.32 15.15 3.558 2.44 9.434-.159 13.152-5.916 3.718-5.756 3.718-12.512.32-15.15-3.558-2.479-9.434.16-13.152 5.916z" fill="#eb88b2" fill-rule="evenodd"/><path d="M143.153 47.411c-.96 3.958.6 7.756 3.558 8.755 2.958.8 6.196-1.639 7.276-5.597 1.079-3.957-.6-7.915-3.558-8.754-2.958-.84-6.196 1.639-7.276 5.596z" fill="#eea7c6" fill-rule="evenodd"/><path d="M149.71 43.853c-.16 1 .479 2 1.398 2 1.08.16 1.84-.48 2-1.32.12-1-.64-1.839-1.56-1.999-.92-.2-1.679.48-1.839 1.32zm1.678 4.317c-.16.68.28 1.36 1.04 1.52.56.16 1.159-.32 1.319-1 .12-.839-.44-1.359-1.04-1.519-.6-.2-1.319.32-1.319 1z" fill="#fff" fill-rule="evenodd"/><path d="M145.552 12.353c-2.639 1.758-2.639 6.675 0 10.753 2.598 4.118 6.756 5.876 9.394 4.118 2.599-2 2.599-6.876 0-10.954-2.638-4.117-6.796-5.916-9.394-3.917z" fill="#eea7c6" fill-rule="evenodd"/><path d="M146.631 18.509c1.08 1.999 3.238 2.638 4.757 1.479 1.4-.96 1.68-3.318.64-5.277-1.24-1.839-3.398-2.518-4.757-1.519-1.56 1-1.88 3.478-.64 5.317zm4.757 5.756c.32 1.28 1.4 2.079 2.479 1.76 1.08-.32 1.519-1.6 1.239-2.919-.32-1.28-1.56-2.119-2.478-1.759-1.08.32-1.72 1.6-1.24 2.918z" fill="#fff" fill-rule="evenodd"/><path clip-path="url(#a)" d="M130.321 34.3c.16-.96.48-1.8.76-2.44-.44-2.318-.6-4.916-.28-7.715 1.199-9.514 8.435-16.43 15.99-15.27 7.515.999 12.592 9.834 11.393 19.348-.32 2.638-1.08 5.117-2.159 7.076.16.8.32 1.799.16 2.798-.16 1.12-.48 1.959-.92 2.598.44 2.479.6 4.917.28 7.556-1.239 9.674-8.434 16.39-15.99 15.43-7.555-1.159-12.632-9.834-11.393-19.508.32-2.798 1.08-5.277 2.319-7.395-.16-.68-.32-1.48-.16-2.479" fill="none" stroke="#333" stroke-width=".64" stroke-miterlimit="8"/><path clip-path="url(#a)" d="M121.686 14.351c.8-.48 1.56-.84 2.159-1 1.4-1.958 3.078-3.757 5.237-5.236 7.675-5.277 17.23-3.958 21.387 2.958 4.117 6.876 1.2 16.75-6.476 21.987-2 1.32-4.318 2.319-6.436 2.798-.48.64-1.08 1.32-1.88 1.96-.919.479-1.678.839-2.438.998-1.399 1.96-3.078 3.598-5.237 5.077-7.515 5.237-17.23 3.958-21.227-2.958-4.157-6.876-1.199-16.75 6.476-21.986 2.159-1.48 4.438-2.479 6.596-2.799.48-.64 1.08-1.319 1.84-1.799z" fill="#83b838" fill-rule="evenodd"/><path d="M132.8 16.43c-3.558 6.196-2.919 13.392 1.399 16.19 4.157 2.759 10.433 0 13.991-6.236 3.518-6.196 3.078-13.392-1.24-16.19-4.157-2.639-10.593 0-14.15 6.236z" fill="#9bc568" fill-rule="evenodd"/><path d="M136.038 35.139s-.6 3.198-3.838 2.878c0 0 2.918-1 3.838-2.878z" fill="#eb88b2" fill-rule="evenodd"/><path d="M118.008 30.222c-6.436.64-11.393 4.877-10.913 9.434.48 4.397 6.156 7.316 12.632 6.516 6.437-.64 11.354-4.877 10.914-9.274-.48-4.558-6.156-7.516-12.633-6.676z" fill="#9bc568" fill-rule="evenodd"/><path d="M120.847 33.38c-3.398 1.639-5.277 5.436-3.878 8.395 1.24 2.958 5.117 3.917 8.715 2.278 3.398-1.799 5.237-5.596 3.877-8.555-1.239-2.958-5.116-3.957-8.714-2.118z" fill="#b5d494" fill-rule="evenodd"/><path d="M127.523 36.058c-.76.48-.92 1.68-.44 2.479.6.999 1.48 1.159 2.239.68.76-.48.88-1.68.44-2.48-.44-.839-1.48-1.199-2.24-.679zm-1.999 4.318c-.6.32-.6 1.119-.28 1.798.28.64 1 .8 1.6.48.439-.32.559-1.16.279-1.799-.44-.64-1-.84-1.6-.48z" fill="#fff" fill-rule="evenodd"/><path d="M147.31 12.153c-3.037-1-6.395 2.318-7.635 7.115-1.239 4.797.16 9.435 3.198 10.274 3.079.96 6.556-2.159 7.796-7.116 1.199-4.797-.32-9.434-3.358-10.273z" fill="#b5d494" fill-rule="evenodd"/><path d="M143.713 17.23c-.64 2.158.28 4.277 1.959 4.797 1.679.64 3.478-.68 4.077-2.999.44-2.158-.28-4.317-2.118-4.797-1.68-.52-3.478.84-3.918 2.999zm-1.199 7.435c-.64 1.2-.48 2.519.48 3.198.959.64 2.198.32 2.998-.84.6-1.159.48-2.678-.48-3.357-.96-.68-2.199-.16-2.998 1z" fill="#fff" fill-rule="evenodd"/><path clip-path="url(#a)" d="M121.766 14.191c.76-.48 1.52-.84 2.319-.999 1.24-1.959 3.078-3.758 5.237-5.237 7.715-5.277 17.27-3.957 21.427 2.958 3.997 6.876 1.239 16.75-6.476 21.987-2.16 1.32-4.318 2.319-6.636 2.798-.28.64-.92 1.32-1.84 1.96-.759.519-1.718.839-2.478.839a18.01 18.01 0 0 1-5.077 5.236c-7.715 5.077-17.27 3.798-21.427-3.118-4.197-6.875-1.239-16.59 6.476-21.826 2.159-1.48 4.478-2.479 6.756-2.959.32-.48.96-1.159 1.72-1.639" fill="none" stroke="#333" stroke-width=".64" stroke-miterlimit="8"/><path d="M116.57 56.326c.759-.48 1.518-.84 2.158-.84 1.4-2.118 3.238-3.917 5.397-5.396 7.555-5.277 17.27-3.798 21.267 3.118 4.157 6.716 1.24 16.59-6.476 21.827-1.999 1.479-4.318 2.318-6.476 2.798-.28.64-.92 1.479-1.84 1.959-.919.68-1.718.999-2.478.999-1.399 1.959-3.078 3.758-5.077 5.077-7.715 5.237-17.27 3.958-21.427-2.958-4.197-6.876-1.239-16.75 6.476-21.987 2.16-1.479 4.478-2.319 6.756-2.798.32-.64.96-1.32 1.72-1.8z" fill="#83b838" fill-rule="evenodd"/><path d="M128.002 58.285c-3.557 6.236-3.078 13.472 1.24 16.27 4.157 2.798 10.473 0 14.151-6.236 3.518-6.077 2.918-13.512-1.4-16.15-4.157-2.799-10.433 0-13.99 6.116z" fill="#9bc568" fill-rule="evenodd"/><path d="M131.08 77.353s-.64 2.958-3.997 2.639c0 0 3.038-.8 3.998-2.639z" fill="#eb88b2" fill-rule="evenodd"/><path d="M112.812 71.956c-6.436.84-11.393 5.117-10.914 9.595.48 4.437 6.157 7.395 12.633 6.755 6.436-.839 11.353-5.116 10.913-9.594-.48-4.437-6.156-7.595-12.632-6.756z" fill="#9bc568" fill-rule="evenodd"/><path d="M115.97 75.194c-3.518 1.64-5.197 5.437-3.958 8.395 1.24 3.118 5.037 4.078 8.555 2.279 3.358-1.639 5.157-5.437 3.958-8.555-1.36-2.958-5.197-3.957-8.555-2.119z" fill="#b5d494" fill-rule="evenodd"/><path d="M122.366 78.193c-.64.52-.96 1.479-.32 2.478.44.84 1.52 1.16 2.279.52.64-.52.92-1.52.32-2.479-.44-.84-1.52-1.199-2.28-.52zm-1.999 4.117c-.48.48-.64 1.24-.32 1.72.48.639 1.12.759 1.76.479.639-.32.639-1.12.319-1.72-.32-.639-1.12-.799-1.759-.479z" fill="#fff" fill-rule="evenodd"/><path d="M142.274 54.127c-2.958-1-6.516 2.319-7.756 7.036-1.279 4.757.28 9.354 3.239 10.354 3.118.8 6.675-2.279 7.915-7.036 1.239-4.957-.28-9.514-3.398-10.354z" fill="#b5d494" fill-rule="evenodd"/><path d="M138.516 59.124c-.64 2.119.32 4.238 2.039 4.877 1.719.48 3.598-.8 4.237-2.918.6-2.119-.32-4.397-2.039-4.877-1.718-.52-3.597.8-4.237 2.918zm-.839 7.516c-.76 1.199-.6 2.678.32 3.358.879.48 2.078.16 2.838-1 .56-1.16.44-2.678-.32-3.358-.88-.68-2.239-.16-2.838 1z" fill="#fff" fill-rule="evenodd"/><path d="M116.81 56.166a5.59 5.59 0 0 1 2.158-1c1.4-1.958 3.078-3.757 5.237-5.236 7.675-5.277 17.23-3.958 21.387 2.958 4.117 6.876 1.199 16.75-6.476 21.987-2.159 1.319-4.318 2.318-6.436 2.798-.48.64-1.08 1.32-1.88 1.959-.919.48-1.838.84-2.438 1-1.399 1.958-3.078 3.597-5.237 5.076-7.675 5.237-17.23 3.958-21.227-2.958-4.157-6.876-1.199-16.75 6.316-21.987 2.16-1.479 4.478-2.478 6.756-2.798.48-.64 1.08-1.32 1.84-1.799" fill="none" stroke="#333" stroke-width=".64" stroke-miterlimit="8"/><path d="M95.862 53.128c.16-.96.48-1.8.76-2.439-.44-2.318-.76-4.957-.28-7.755 1.199-9.514 8.434-16.43 15.99-15.27 7.515.999 12.592 9.873 11.393 19.387-.32 2.639-1.08 5.117-2.159 7.076.16.8.32 1.8.16 2.798-.16 1.12-.48 1.96-.92 2.599.44 2.478.6 4.957.28 7.595-1.239 9.674-8.434 16.39-15.99 15.431-7.555-1.16-12.632-9.874-11.393-19.548.32-2.639 1.08-5.277 2.319-7.396-.16-.68-.32-1.479-.16-2.478z" fill="#e8679e" fill-rule="evenodd"/><path d="M104.617 45.333c2.158 6.875 7.675 11.153 12.392 9.514 4.757-1.64 6.716-8.715 4.757-15.63-2.158-6.917-7.675-11.194-12.392-9.515-4.757 1.639-6.756 8.715-4.757 15.63zm15.43 9.634s1.84 2.438-.48 4.877c0 0 1.24-2.919.48-4.877zm-15.55 11.393c-3.558 5.716-3.718 12.432-.32 15.03 3.558 2.44 9.394-.16 13.072-5.876 3.678-5.716 3.678-12.432.32-15.03-3.558-2.48-9.395.16-13.072 5.876z" fill="#eb88b2" fill-rule="evenodd"/><path d="M108.694 65.96c-.96 3.958.6 7.755 3.558 8.755 2.958.8 6.196-1.64 7.276-5.597 1.079-3.957-.6-7.915-3.558-8.755-2.958-.84-6.197 1.64-7.276 5.597z" fill="#eea7c6" fill-rule="evenodd"/><path d="M115.09 62.322c-.16 1 .48 1.999 1.44 1.999 1.119.16 1.918-.48 2.078-1.32.16-.999-.64-1.838-1.599-1.998-.96-.2-1.759.48-1.919 1.32zm1.84 4.518c-.16.68.279 1.319 1.038 1.479.56.16 1.16-.32 1.32-.96.12-.84-.44-1.319-1.04-1.479-.6-.2-1.319.32-1.319.96z" fill="#fff" fill-rule="evenodd"/><path d="M111.053 30.821c-2.599 1.8-2.599 6.716 0 10.834 2.598 4.077 6.716 5.876 9.314 4.077 2.558-1.959 2.558-6.876 0-10.993-2.598-4.078-6.716-5.916-9.314-3.918z" fill="#eea7c6" fill-rule="evenodd"/><path d="M112.052 37.098c1.08 1.958 3.278 2.598 4.837 1.479 1.44-1 1.72-3.318.64-5.277-1.24-1.8-3.438-2.479-4.837-1.48-1.6 1-1.92 3.439-.64 5.278zm4.878 5.756c.319 1.32 1.398 2.119 2.478 1.799 1.079-.32 1.519-1.64 1.239-2.958-.32-1.32-1.56-2.159-2.479-1.8-1.079.32-1.719 1.64-1.239 2.959z" fill="#fff" fill-rule="evenodd"/><path d="M95.862 52.768c.16-.96.48-1.799.76-2.439-.44-2.318-.6-4.917-.28-7.715 1.199-9.514 8.434-16.43 15.99-15.27 7.515.999 12.592 9.833 11.393 19.348-.32 2.638-1.08 5.117-2.159 7.075.16.8.32 1.8.16 2.799-.16 1.119-.48 1.959-.92 2.598.44 2.479.6 4.917.28 7.556-1.239 9.674-8.434 16.39-15.99 15.43-7.555-1.16-12.632-9.834-11.393-19.508.32-2.798 1.08-5.277 2.319-7.395-.16-.68-.32-1.48-.16-2.479" fill="none" stroke="#333" stroke-width=".64" stroke-miterlimit="8"/><path d="M69.438 161.862c0-1.4 1.04-2.559 2.319-2.559 1.319 0 2.318 1.16 2.318 2.559 0 1.439-1 2.558-2.318 2.558-1.28 0-2.32-1.119-2.32-2.558z" fill="#c04040" fill-rule="evenodd"/><path d="M69.438 161.862c0-1.4 1.04-2.559 2.319-2.559 1.319 0 2.318 1.16 2.318 2.559 0 1.439-1 2.558-2.318 2.558-1.28 0-2.32-1.119-2.32-2.558" fill="none" stroke="#333" stroke-width=".48" stroke-linecap="round" stroke-miterlimit="8"/><path d="M70.957 159.943s-1.52.84-.88 2.638c0 0-.16-1.119.88-2.638z" fill="#fff" fill-rule="evenodd"/><path d="M91.425 161.862c0-1.4 1.159-2.559 2.518-2.559 1.4 0 2.519 1.16 2.519 2.559 0 1.439-1.12 2.558-2.519 2.558-1.36 0-2.518-1.119-2.518-2.558z" fill="#c04040" fill-rule="evenodd"/><path d="M91.425 161.862c0-1.4 1.159-2.559 2.518-2.559 1.4 0 2.519 1.16 2.519 2.559 0 1.439-1.12 2.558-2.519 2.558-1.36 0-2.518-1.119-2.518-2.558" fill="none" stroke="#333" stroke-width=".48" stroke-linecap="round" stroke-miterlimit="8"/><path d="M93.104 159.943s-1.68.84-.88 2.638c0 0-.16-1.119.88-2.638z" fill="#fff" fill-rule="evenodd"/></svg>