<svg xmlns="http://www.w3.org/2000/svg" version="1.0" viewBox="0 0 161.953 142.639"><defs><clipPath clipPathUnits="userSpaceOnUse" id="a"><path d="M1.36.48H163.1v142.713H1.36z"/></clipPath></defs><path d="M33.46 65c0-34.698 26.464-62.881 59.044-62.881 32.62 0 59.044 28.183 59.044 62.882 0 34.739-26.424 62.881-59.044 62.881-32.58 0-59.044-28.142-59.044-62.881z" fill="#d5d6e4" fill-rule="evenodd"/><path d="M58.565 65c0-19.348 14.99-35.058 33.42-35.058 18.468 0 33.419 15.71 33.419 35.059 0 19.388-14.95 35.058-33.42 35.058-18.429 0-33.42-15.67-33.42-35.058z" fill="#ff0" fill-rule="evenodd"/><path d="M42.774 69.958c0-33.38 26.224-60.084 56.606-60.084h8.355c-5.237-1.12-10.474-2.239-15.71-2.239-29.343 0-53.448 25.585-53.448 56.766 0 12.233 4.197 24.465 11.553 33.34-4.198-7.756-7.356-17.79-7.356-27.783z" fill="#fff" fill-rule="evenodd"/><path d="M118.088 14.271c10.434 11.154 16.71 25.625 16.71 42.335 0 31.18-22.986 55.686-52.248 55.686-9.394 0-17.79-2.239-25.105-6.716 9.434 8.915 21.947 14.471 35.539 14.471 28.223 0 52.248-24.465 52.248-55.646 0-21.147-11.473-40.096-27.144-50.13z" fill="#bbbcd3" fill-rule="evenodd"/><path d="M67.959 65.6c0-17.869 15.71-30.141 32.42-30.141 1.04 0-1.04-1.12 0-1.12-3.118 0-5.237-1.12-8.355-1.12-15.71 0-28.263 13.393-28.263 30.143 0 6.716 2.12 15.63 6.277 20.067-2.08-4.437-2.08-12.272-2.08-17.829z" fill="#fff" fill-rule="evenodd"/><path d="M107.615 38.737c5.237 5.596 9.394 13.391 9.394 22.306 0 16.71-12.512 30.102-28.143 30.102-5.237 0-9.394-1.12-13.592-3.358 5.237 4.477 11.473 7.795 18.789 7.795 15.63 0 28.143-13.352 28.143-30.062 0-11.153-6.236-21.187-14.591-26.783z" fill="#ffd100" fill-rule="evenodd"/><path d="M49.13 42.094c4.158 7.836 10.394 7.836 15.59 0z" fill="#bbbcd3" fill-rule="evenodd"/><path clip-path="url(#a)" d="M33.5 65.04c0-34.697 26.464-62.88 59.044-62.88 32.62 0 59.044 28.183 59.044 62.882 0 34.739-26.424 62.881-59.044 62.881-32.58 0-59.044-28.142-59.044-62.881" fill="none" stroke="#333" stroke-width="2.159" stroke-linecap="round" stroke-linejoin="round"/><path d="M58.604 65.04c0-19.348 14.991-35.058 33.42-35.058 18.469 0 33.42 15.71 33.42 35.059 0 19.388-14.951 35.058-33.42 35.058-18.429 0-33.42-15.67-33.42-35.058" fill="none" stroke="#333" stroke-width="1.039" stroke-linecap="round" stroke-linejoin="round"/><path d="M126.483 37.697c3.158 3.318 5.237 7.755 2.12 12.233-2.12 4.437-7.356 5.516-10.475 2.198-4.197-2.198-5.276-7.755-3.158-11.113 2.08-4.437 7.316-5.556 11.513-3.318zm-13.551-5.637c2.078 1.12 3.118 4.518 2.078 6.756-2.078 2.24-4.197 2.24-6.276 1.12-2.079-1.12-3.158-4.517-2.079-6.756 2.08-2.279 4.158-2.279 6.277-1.12zm12.552 23.466c2.079 1.12 2.079 3.358 1.04 4.478-1.04 1.119-2.12 2.238-4.198 1.119-1.08-1.12-1.08-3.358 0-4.477 0-1.12 2.079-2.239 3.158-1.12z" fill="#fff" fill-rule="evenodd"/><path d="m79.472 17.71-3.118 3.357c-13.592 7.796-15.67 8.875-29.263 3.318-13.591-5.556-23.026-2.198-28.222 1.12-8.355 5.556-14.632 16.71-15.67 30.061C2.118 76.714 15.71 80.031 28.262 82.27l8.355 2.239c14.63 4.437 15.67 5.556 14.63 20.028-1.038 11.113-1.038 23.385 7.317 31.14 5.236 5.597 13.591 6.677 25.104 4.478 20.908-3.358 26.104-17.83 31.341-30.062l4.198-12.232c5.197-7.796 10.433-6.676 26.104-3.358l6.276 1.119c5.237 0 9.394-2.239 9.394-7.795 1.04-4.438-2.078-8.915-6.276-9.994l-6.236-1.12c-14.631-2.238-32.42-6.675-42.854 12.233l-6.276 14.471c-4.198 11.114-6.276 17.79-17.79 20.028-9.394 1.12-11.472 0-12.512-1.12-2.119-2.198-2.119-13.351-1.04-16.669 1.04-23.386-5.236-31.181-27.183-37.857L32.46 65.56c-12.552-3.318-12.552-3.318-12.552-8.874 0-7.796 3.118-13.352 7.316-16.71 4.157-2.239 8.354-2.239 13.591 0 20.908 8.914 28.223 5.556 43.894-4.438l3.118-2.238c4.197-2.239 5.237-7.795 3.158-12.233-3.158-3.358-7.316-5.596-11.513-3.358z" fill="#82b3d5" fill-rule="evenodd"/><path d="M65.92 29.942c-7.316 2.199-15.67-1.12-20.867-3.358-6.277-3.358-24.066-7.835-36.618 17.83 8.395-10.035 15.71-17.83 25.105-16.71 9.394 0 27.183 5.556 32.38 2.238zM40.735 69.918c11.473 3.358 23.986 8.914 23.986 28.942-2.079-7.755-6.236-22.226-23.986-28.942zm97.141 6.636c-10.433 0-22.946 1.119-29.182 12.312-5.237 11.153-10.474 25.665-10.474 25.665 5.237-8.915 10.474-22.307 16.71-29.023 6.277-6.716 13.592-7.835 22.946-8.954z" fill="#eaf1f7" fill-rule="evenodd"/><path d="M55.446 116.69c0 12.232 7.316 24.464 27.144 21.146 19.868-4.437 25.065-16.67 27.143-21.147-5.196 5.597-14.59 16.71-32.34 17.83-17.75 1.079-18.789-8.915-21.947-17.83zm-8.315-77.914c13.552 3.358 15.631 4.438 25.025 0 9.355-4.477 15.59-10.033 16.63-11.153 2.079-2.238 0-6.716-4.157-6.716 3.118 1.12 5.197 4.478-3.118 8.955-8.315 4.437-14.592 10.034-19.788 10.034-6.237 0-14.592-1.12-14.592-1.12z" fill="#3087bc" fill-rule="evenodd"/><path clip-path="url(#a)" d="m79.512 17.75-3.118 3.357c-13.592 7.795-15.67 8.875-29.263 3.318-13.591-5.556-23.026-2.198-28.222 1.12C10.554 31.1 4.277 42.255 3.238 55.606 2.158 76.753 15.75 80.071 28.303 82.31l8.355 2.239c14.63 4.437 15.67 5.556 14.63 20.028-1.038 11.113-1.038 23.385 7.316 31.14 5.237 5.597 13.592 6.677 25.105 4.478 20.908-3.358 26.104-17.83 31.341-30.062l4.198-12.232c5.197-7.796 10.433-6.676 26.104-3.358l6.276 1.119c5.237 0 9.394-2.239 9.394-7.795 1.04-4.438-2.078-8.915-6.276-9.994l-6.236-1.12c-14.631-2.238-32.42-6.675-42.854 12.233l-6.276 14.471c-4.198 11.114-6.276 17.79-17.79 20.028-9.394 1.12-11.472 0-12.512-1.12-2.119-2.198-2.119-13.351-1.04-16.67 1.04-23.385-5.236-31.18-27.183-37.856L32.5 65.6c-12.552-3.318-12.552-3.318-12.552-8.874 0-7.796 3.118-13.352 7.315-16.71 4.158-2.239 8.355-2.239 13.592 0 20.908 8.914 28.223 5.556 43.894-4.438l3.118-2.238c4.197-2.239 5.237-7.795 3.158-12.233-3.158-3.358-7.316-5.596-11.513-3.358" fill="none" stroke="#333" stroke-width="2.159" stroke-linecap="round" stroke-linejoin="round"/></svg>