<svg xmlns="http://www.w3.org/2000/svg" version="1.0" viewBox="0 0 177.071 183.609"><defs><clipPath clipPathUnits="userSpaceOnUse" id="a"><path d="M.96 1.28h176.852v183.728H.96z"/></clipPath></defs><path clip-path="url(#a)" d="M76.614 2.998c-27.084 0-50.01 10.654-63.762 37.757C1.18 62.542.76 83.87 3.278 108.755c2.079 20.447 4.157 30.66 15.83 47.55 19.589 27.544 42.914 27.544 73.336 27.544 25.405 0 51.669-5.777 68.339-29.323 17.489-24.885 19.148-58.204 11.233-88.426-4.577-18.229-14.571-32-27.903-44.893C126.603 4.777 98.28.76 76.613 2.998z" fill="#abd4eb" fill-rule="evenodd"/><path d="M58.704 20.368c-21.247-1.78-36.677 21.746-42.914 41.714-7.515 21.747-.42 44.393 3.738 65.68 4.178 20.428 16.25 25.745 37.517 31.961 11.653 3.098 42.075 1.78 50.83-.88 14.59-4.437 28.342-15.09 33.34-30.181 6.236-17.31 8.734-40.395 3.317-58.584-5.416-19.968-22.486-31.062-37.917-40.836-7.915-4.877-16.25-8.435-25.824-9.314-4.997-.44-14.171 0-22.087.44z" fill="#cca6bd" fill-rule="evenodd"/><path d="M27.843 153.507c-10.833-15.55-12.912-25.305-14.591-44.413-2.499-22.646-2.079-42.634 8.755-63.502C34.919 20.288 56.166 10.514 81.57 10.514c11.253-.88 24.165-.44 36.238 2.658-13.732-4.877-29.143-5.776-42.075-4.437-25.824 0-46.652 9.774-59.984 35.078C5.337 64.241 4.917 84.23 7.016 107.315c2.078 19.108 3.737 28.882 14.99 44.413 9.575 13.332 19.989 19.988 31.661 23.086-9.174-3.538-17.909-10.214-25.824-21.307z" fill="#eaf1f9" fill-rule="evenodd"/><path d="M167.419 67.859c-4.578-16.43-13.732-29.302-26.225-41.295-3.737-3.558-8.335-6.656-13.311-9.334l6.236 5.336c12.072 11.553 21.647 24.426 25.804 41.295 7.496 27.983 5.837 58.625-10.394 82.15-15.41 21.767-39.556 27.084-63.281 27.084-17.91 0-32.9 0-46.232-6.216 14.99 10.653 32.48 10.653 53.307 10.653 23.726-.44 47.871-5.316 63.282-27.083 16.23-23.526 17.89-54.607 10.814-82.59z" fill="#8abde2" fill-rule="evenodd"/><path d="M139.935 74.515c8.735 11.533-1.24 46.592-7.076 58.584-5.416 10.654-22.066 19.529-33.3 22.187-12.492 2.219-30.4 3.538-42.054 0-14.171-4.437-27.903-6.656-31.24-22.626 4.596 11.533 32.9 14.191 42.473 11.533 7.916-2.659 13.332-7.096 20.408-11.533 8.315-4.897 18.309-5.777 25.804-11.993 10.834-8.875 17.07-23.966 17.07-38.157.42-6.656 0-27.523-7.076-29.302 10.414 5.776 13.752 11.113 14.991 23.086z" fill="#ba94aa" fill-rule="evenodd"/><path d="M18.749 90.865c2.498-24.405 9.594-48.81 32.5-59.464 16.65-7.995 41.235-6.656 54.967 6.216-29.143-15.99-78.713.44-84.13 37.717z" fill="#e3d5de" fill-rule="evenodd"/><path d="M60.403 154.107c15.411 3.537 47.891 5.756 64.541-11.993 17.07-18.23 16.23-43.094 17.89-50.21-1.66 7.116-13.732 42.654-24.546 49.31-10.833 6.656-34.139 16.43-57.885 12.893z" fill="#ac7d98" fill-rule="evenodd"/><path d="M107.815 177.133c17.909-2.659 65.8-13.752 63.721-87.947-1.24 8.455-5.816 74.635-63.721 87.947z" fill="#65addb" fill-rule="evenodd"/><path clip-path="url(#a)" d="M76.614 2.998c-27.504 0-50.01 10.214-64.182 37.318C1.18 62.542.76 83.869 3.278 108.314c2.079 20.448 4.157 31.102 15.83 47.552 19.589 27.983 42.914 27.983 73.336 27.983 25.405-.44 51.669-5.777 67.919-29.323 17.909-25.324 19.568-58.664 11.653-88.886-4.577-17.769-14.571-31.54-27.903-44.433C126.603 4.317 98.28.76 76.613 2.998" fill="none" stroke="#585759" stroke-width=".8" stroke-linecap="round" stroke-linejoin="round"/><path d="M58.704 20.368c-21.247-1.78-36.677 21.746-42.914 41.714-7.515 21.747-.42 44.393 3.738 65.68 4.178 20.428 16.25 25.745 37.517 31.961 11.653 3.098 42.075 1.78 50.83-.88 14.59-4.437 28.342-15.09 33.34-30.181 6.236-17.31 8.734-40.395 3.317-58.584-5.416-19.968-22.486-31.062-37.917-40.836-7.915-4.877-16.25-8.435-25.824-9.314-4.997-.44-14.171 0-22.087.44" fill="none" stroke="#585759" stroke-width=".8" stroke-linecap="round" stroke-linejoin="round"/><path d="M34.899 26.264c0-4.057 3.098-7.355 6.916-7.355 3.837 0 6.915 3.298 6.915 7.355 0 4.078-3.078 7.356-6.915 7.356-3.818 0-6.916-3.278-6.916-7.356zm13.831-5.517c0-1.439 1.12-2.638 2.479-2.638 1.38 0 2.478 1.2 2.478 2.638 0 1.46-1.099 2.639-2.478 2.639-1.36 0-2.479-1.18-2.479-2.639zM30.422 31.9c0-1.478 1.119-2.678 2.478-2.678 1.38 0 2.479 1.2 2.479 2.679 0 1.479-1.1 2.678-2.479 2.678-1.36 0-2.478-1.2-2.478-2.678z" fill="#fff" fill-rule="evenodd"/></svg>