<svg xmlns="http://www.w3.org/2000/svg" version="1.0" viewBox="0 0 175.71 170.608"><defs><clipPath clipPathUnits="userSpaceOnUse" id="a"><path d="M5.517 7.196H181.01v170.696H5.517z"/></clipPath></defs><path clip-path="url(#a)" d="M48.69 19.988C19.548 33.3.76 75.914 8.275 105.656c9.594 38.617 56.286 67.04 91.265 70.597 27.103 2.639 47.53-4.877 63.361-29.742 12.513-19.988 17.91-43.973 16.67-67.919-3.318-52.848-58.324-77.273-102.098-67.918-10.833 2.198-18.749 4.877-28.783 9.314z" fill="#abd4eb" fill-rule="evenodd"/><path d="M42.454 38.936C33.3 46.052 24.944 57.606 22.866 65.6c-2.079 8.435-4.597 23.106-2.079 31.98 2.08 7.556 8.755 15.112 15.031 18.23 6.237 3.118 13.312 5.317 17.91 11.113 4.996 5.317 7.075 12.433 12.112 18.19 12.912 14.23 30.821 16.43 48.37 13.79 31.662-3.997 55.007-35.098 47.932-68.438-1.68-7.555 1.679-11.073 2.078-18.189.84-7.555-4.157-12.912-8.314-18.229-9.595-11.992-10.434-23.545-27.104-27.103-12.113-2.199-26.264-6.197-38.777-6.676-5.436 0-10.433 1.359-15.87 1.359-6.676 0-9.594.44-14.591 5.317-5.397 4.437-13.352 9.354-17.11 11.992z" fill="#cca6bd" fill-rule="evenodd"/><path d="M19.548 106.975c-7.076-27.983 10.034-67.12 37.537-79.552 8.755-4.477 16.23-6.676 26.225-8.914 15.03-3.118 31.26-2.199 46.251 3.118-16.67-7.556-35.418-9.354-52.488-5.797-10.433 2.239-17.51 4.917-26.664 8.915-27.503 12.432-44.613 52.008-37.497 79.592 7.076 28.463 35.419 51.129 63.322 60.883-25.425-11.113-50.41-31.98-56.686-58.245z" fill="#eaf1f9" fill-rule="evenodd"/><path d="M175.094 79.872c-1.64-23.986-14.591-41.735-31.66-52.409 13.351 11.114 22.905 26.664 24.184 47.092 1.24 22.626-3.757 44.813-15.43 63.481-14.591 23.066-33.74 30.182-58.725 27.544-15.03-1.36-32.5-7.556-47.53-17.79 16.67 12.873 37.097 21.308 54.606 23.106 25.385 2.639 44.133-4.877 58.724-27.983 11.673-18.628 17.07-40.855 15.83-63.041z" fill="#8abde2" fill-rule="evenodd"/><path d="M46.252 112.252c19.628 3.118 22.107 31.98 41.735 37.777 20.427 5.757 35.458 6.636 52.128-7.995 15.87-14.231 15.43-35.539 15.87-55.087 0-9.314 3.718-15.11-.839-24.425-3.358-7.116-10.434-14.231-14.191-20.907 0 6.676 3.318 13.352 3.757 20.467.84 9.754-.44 19.069-2.518 28.423-4.597 19.109-2.079 32.86-22.507 40.416-5.436 1.759-13.351 7.115-19.188 6.236-7.915-.92-11.273-11.553-17.11-16.91-9.993-8.435-27.103-5.756-36.298-7.995z" fill="#ba94aa" fill-rule="evenodd"/><path d="M26.624 90.545C24.105 63.482 37.857 46.612 63.282 32.86c13.352-7.555 16.27-5.317 31.26-4.877 10.834.88 17.11 1.32 25.825 6.236-21.667-7.995-43.733 1.76-62.922 11.513-13.312 7.116-30.821 23.066-29.142 43.054z" fill="#e3d5de" fill-rule="evenodd"/><path d="M115.85 145.712c28.343-10.234 37.937-28.903 40.016-40.456-2.08 25.345-9.155 37.777-38.337 46.652-29.622 9.314-40.855-6.196-48.81-21.747 10.033 9.754 25.464 22.626 47.13 15.55z" fill="#ac7d98" fill-rule="evenodd"/><path d="M173.855 92.224c-.8 16.47-9.595 75.195-57.645 78.273 13.791-4.877 46.371-18.669 57.645-78.273z" fill="#65addb" fill-rule="evenodd"/><path clip-path="url(#a)" d="M48.69 19.428C19.108 33.22.76 75.394 8.275 105.616c9.594 38.657 56.286 67.08 91.265 70.637 27.103 2.639 47.53-5.357 63.361-30.221 12.513-19.549 17.91-43.534 16.67-67.52C176.253 25.225 121.247.76 77.473 10.114 66.64 12.752 58.724 14.99 48.69 19.428" fill="none" stroke="#585759" stroke-width=".8" stroke-linecap="round" stroke-linejoin="round"/><path d="M42.454 38.936C33.3 46.052 24.944 57.606 22.866 65.6c-2.079 8.435-4.597 23.106-2.079 31.98 2.08 7.556 8.755 15.112 15.031 18.23 6.237 3.118 13.312 5.317 17.91 11.113 4.996 5.317 7.075 12.433 12.112 18.19 12.912 14.23 30.821 16.43 48.37 13.79 31.662-3.997 55.007-35.098 47.932-68.438-1.68-7.555 1.679-11.073 2.078-18.189.84-7.555-4.157-12.912-8.314-18.229-9.595-11.992-10.434-23.545-27.104-27.103-12.113-2.199-26.264-6.197-38.777-6.676-5.436 0-10.433 1.359-15.87 1.359-6.676 0-9.594.44-14.591 5.317-5.397 4.437-13.352 9.354-17.11 11.992" fill="none" stroke="#585759" stroke-width=".8" stroke-linecap="round" stroke-linejoin="round"/><path d="M45.452 33.18c0-4.158 3.119-7.556 6.916-7.556 3.838 0 6.916 3.398 6.916 7.556 0 4.197-3.078 7.555-6.916 7.555-3.797 0-6.916-3.358-6.916-7.555zm13.832-5.757c0-1.479 1.12-2.678 2.479-2.678 1.399 0 2.478 1.2 2.478 2.678 0 1.48-1.08 2.679-2.478 2.679-1.36 0-2.479-1.2-2.479-2.679zM40.895 38.617c0-1.48 1.16-2.679 2.519-2.679 1.399 0 2.518 1.2 2.518 2.679 0 1.479-1.12 2.678-2.518 2.678-1.36 0-2.519-1.2-2.519-2.678z" fill="#fff" fill-rule="evenodd"/></svg>