<svg xmlns="http://www.w3.org/2000/svg" version="1.0" viewBox="0 0 124.913 128.353"><defs><clipPath clipPathUnits="userSpaceOnUse" id="a"><path d="M-.16 1.52h124.725v128.4H-.16z"/></clipPath></defs><path clip-path="url(#a)" d="M55.766 2.558C22.426 2.558.76 35.418.76 66.52c0 31.1 22.506 62.162 60.843 62.162 38.296 0 60.803-11.993 61.642-56.846.8-43.533-26.664-71.076-67.479-69.278z" fill="#b0d0eb" fill-rule="evenodd"/><path d="M7.915 69.558c0-29.742 20.788-60.803 52.408-60.803 14.552-.88 27.024 2.678 37.418 8.874C86.947 9.194 72.396 4.757 55.326 5.237c-31.62 0-52.008 31.5-52.008 61.203 0 19.548 9.594 39.496 26.624 50.57C15.83 105.495 7.915 87.746 7.915 69.557z" fill="#eaf2fa" fill-rule="evenodd"/><path d="M92.864 14.111c14.63 11.553 22.986 30.222 22.546 53.768-.84 42.654-22.107 54.167-58.844 54.167-11.273 0-21.307-3.078-29.662-7.995 9.194 7.555 21.307 11.993 35.498 11.993 36.338 0 57.605-11.993 58.445-54.168.4-26.663-10.034-47.091-27.983-57.765z" fill="#89bde3" fill-rule="evenodd"/><path d="M62.402 126.044c36.258 0 57.485-11.993 58.285-54.287-3.718 24.944-11.233 52.967-58.285 54.287z" fill="#63aedc" fill-rule="evenodd"/><path d="M61.523 14.551c-32.46 1.76-49.57 24.865-48.73 54.647.839 31.501 27.063 47.491 54.966 46.612 27.903-.88 42.494-19.548 43.334-41.735.8-22.226-16.67-61.323-49.57-59.524z" fill="#cc78a1" fill-rule="evenodd"/><path d="M18.229 70.477c-.8-27.583 17.51-46.252 47.491-48.05 9.994-.44 18.349 3.118 24.985 8.434-7.475-7.995-17.47-13.791-29.542-12.872C30.74 19.31 15.31 40.655 15.75 68.24c.4 6.676 1.68 12.032 3.758 17.35.4-4.438-.84-3.559-1.279-15.112z" fill="#f1dde7" fill-rule="evenodd"/><path d="M94.423 34.42c4.557 9.353 7.875 16.43 7.475 28.862-.4 12.912-9.154 19.988-19.948 27.103-5.836 3.998-12.912 12.872-22.026 13.312-12.073.44-23.306-.44-32.46-6.636 9.993 10.634 24.944 15.95 40.335 15.51 26.184-.879 39.496-18.188 40.335-39.056.4-11.113-4.557-27.103-13.711-39.096z" fill="#b90071" fill-rule="evenodd"/><path d="M108.214 73.595c-.8 20.908-14.151 38.217-40.455 39.097 7.116-1.32 29.622-5.757 40.455-39.097z" fill="#9e0061" fill-rule="evenodd"/><path clip-path="url(#a)" d="M55.766 2.558C22.426 2.558.76 35.418.76 66.52c0 31.1 22.506 62.162 60.843 62.162 38.296 0 60.803-11.993 61.642-56.846.8-43.533-26.664-71.076-67.479-69.278" fill="none" stroke="#58585a" stroke-width=".8" stroke-linecap="round" stroke-linejoin="round"/><path d="M61.523 14.551c-32.46 1.76-49.57 24.865-48.73 54.647.839 31.501 27.063 47.491 54.966 46.612 27.903-.88 42.494-19.548 43.334-41.735.8-22.226-16.67-61.323-49.57-59.524" fill="none" stroke="#fff" stroke-width=".8" stroke-linecap="round" stroke-linejoin="round"/><path d="M25.345 26.544c-.44-3.078 1.639-6.156 4.957-6.596 2.878-.48 5.796 1.759 6.196 5.277.4 3.078-1.64 6.156-4.557 6.596-3.278.44-6.197-1.76-6.596-5.277zm12.112-6.196c0-1.36.84-2.719 1.68-2.719 1.239 0 2.478.92 2.478 1.8 0 1.358-.8 2.678-1.64 2.678-1.238 0-2.518-.88-2.518-1.76zM20.747 33.18c0-.92.84-2.299 2.08-2.299.839-.46 2.078.46 2.078 1.84.4 1.378-.42 2.298-1.66 2.738-1.238 0-2.078-.9-2.498-2.28z" fill="#fff" fill-rule="evenodd"/></svg>