<svg xmlns="http://www.w3.org/2000/svg" version="1.0" viewBox="0 0 129.298 131.717"><defs><clipPath clipPathUnits="userSpaceOnUse" id="a"><path d="M7.995-.24h129.122v131.76H7.995z"/></clipPath></defs><path clip-path="url(#a)" d="M69.898.76C34.079.76 6.596 29.182 9.094 66.46c2.499 37.277 20.408 63.901 58.725 63.901s68.698-12.412 67.879-60.343C134.858 22.067 105.716.76 69.898.76z" fill="#95bad6" fill-rule="evenodd"/><path d="M100.759 9.554c14.591 10.674 24.605 28.863 25.005 55.507.84 46.172-28.343 58.144-65.02 58.144-10.015 0-18.35-1.759-25.445-5.316 8.754 6.216 19.608 9.754 32.94 9.754 37.097 0 66.28-11.973 65.46-57.705-.84-31.521-13.772-51.05-32.94-60.384z" fill="#4b95be" fill-rule="evenodd"/><path d="M79.912 13.232c-18.77-3.118-40.016 8.875-50.45 21.747-9.154 11.533-11.673 28.403-2.918 47.491 12.932 28.403 49.19 40.376 74.215 25.305 11.253-6.676 24.165-20.868 19.588-36.838-1.26-5.776-4.177-8.435-6.676-13.332-2.498-5.756-1.24-12.412-2.498-18.629-2.08-8.874-15.83-22.186-31.261-25.744z" fill="#a887ad" fill-rule="evenodd"/><path d="M118.768 70.797c-1.679-5.337-4.597-7.995-6.696-13.332-2.498-5.317-.82-11.533-2.079-17.31-1.659-6.216-9.594-15.11-19.608-20.447 5.837 4.897 10.014 10.674 11.253 15.11 1.26 5.777 0 9.775 1.26 15.551 1.679 7.556-5.837 12.873-4.598 18.21 4.178 15.09 4.178 25.324-6.676 31.54-14.61 8.875-32.98 7.995-48.01 0 16.29 12.433 38.836 15.53 56.365 5.317 10.854-6.216 22.947-19.988 18.789-34.639z" fill="#7b427d" fill-rule="evenodd"/><path d="M37.038 85.508c-7.916-17.77 2.918-34.639 11.652-45.312 9.155-11.533 17.05-23.986 34.12-20.868 3.738.88 1.659-.44-4.577-1.779-17.47-3.118-36.618 7.996-45.773 19.549-8.734 10.653-10.833 25.764-2.918 43.533 4.577 9.774 8.735 15.55 17.89 20.867-5.817-4.877-7.476-8.874-10.394-15.99z" fill="#d3c3d8" fill-rule="evenodd"/><path d="M122.386 41.595c-2.918.88-4.178 7.935-.42 6.616 3.758-1.76 2.938-8.835.42-6.616z" fill="#007ead" fill-rule="evenodd"/><path d="M122.386 41.595c-2.918.88-4.178 7.935-.42 6.616 3.758-1.76 2.938-8.835.42-6.616" fill="none" stroke="#d3e1ed" stroke-width=".48" stroke-linecap="round" stroke-linejoin="round"/><path d="M122.386 41.595c-2.918.88-4.178 7.935-.42 6.616 3.758-1.76 2.938-8.835.42-6.616" fill="none" stroke="#d3e1ed" stroke-width=".48" stroke-linecap="round" stroke-linejoin="round"/><path d="M125.384 50.53c-1.3-.44-3.018 2.578-1.3 2.578 1.72.42 2.999-1.72 1.3-2.579z" fill="#007ead" fill-rule="evenodd"/><path d="M125.384 50.53c-1.3-.44-3.018 2.578-1.3 2.578 1.72.42 2.999-1.72 1.3-2.579" fill="none" stroke="#d3e1ed" stroke-width=".48" stroke-linecap="round" stroke-linejoin="round"/><path d="M125.384 50.53c-1.3-.44-3.018 2.578-1.3 2.578 1.72.42 2.999-1.72 1.3-2.579" fill="none" stroke="#d3e1ed" stroke-width=".48" stroke-linecap="round" stroke-linejoin="round"/><path d="M127.803 46.492c-.84.86-1.28 3.038.44 2.618 2.118-.88.839-4.377-.44-2.618z" fill="#007ead" fill-rule="evenodd"/><path d="M127.803 46.492c-.84.86-1.28 3.038.44 2.618 2.118-.88.839-4.377-.44-2.618" fill="none" stroke="#d3e1ed" stroke-width=".48" stroke-linecap="round" stroke-linejoin="round"/><path d="M127.803 46.492c-.84.86-1.28 3.038.44 2.618 2.118-.88.839-4.377-.44-2.618" fill="none" stroke="#d3e1ed" stroke-width=".48" stroke-linecap="round" stroke-linejoin="round"/><path d="M126.224 96.621c-.4.86-.82 3.039.42 3.039 2.438-.86 1.219-4.797-.42-3.039z" fill="#007ead" fill-rule="evenodd"/><path d="M126.224 96.621c-.4.86-.82 3.039.42 3.039 2.438-.86 1.219-4.797-.42-3.039" fill="none" stroke="#d3e1ed" stroke-width=".48" stroke-linecap="round" stroke-linejoin="round"/><path d="M126.224 96.621c-.4.86-.82 3.039.42 3.039 2.438-.86 1.219-4.797-.42-3.039" fill="none" stroke="#d3e1ed" stroke-width=".48" stroke-linecap="round" stroke-linejoin="round"/><path d="M117.349 109.973c-.4.86-.82 3.039.42 2.619 2.438-.88 1.219-4.378-.42-2.619z" fill="#007ead" fill-rule="evenodd"/><path d="M117.349 109.973c-.4.86-.82 3.039.42 2.619 2.438-.88 1.219-4.378-.42-2.619" fill="none" stroke="#d3e1ed" stroke-width=".48" stroke-linecap="round" stroke-linejoin="round"/><path d="M117.349 109.973c-.4.86-.82 3.039.42 2.619 2.438-.88 1.219-4.378-.42-2.619" fill="none" stroke="#d3e1ed" stroke-width=".48" stroke-linecap="round" stroke-linejoin="round"/><path d="M113.171 26.024c-.84.86-1.279 3.038.44 3.038 2.119-.86.84-4.797-.44-3.038z" fill="#007ead" fill-rule="evenodd"/><path d="M113.171 26.024c-.84.86-1.279 3.038.44 3.038 2.119-.86.84-4.797-.44-3.038" fill="none" stroke="#d3e1ed" stroke-width=".48" stroke-linecap="round" stroke-linejoin="round"/><path d="M113.171 26.024c-.84.86-1.279 3.038.44 3.038 2.119-.86.84-4.797-.44-3.038" fill="none" stroke="#d3e1ed" stroke-width=".48" stroke-linecap="round" stroke-linejoin="round"/><path d="M117.349 48.59c-2.459.46-4.098 6.297-.4 5.857 2.858-.46 3.258-6.756.4-5.856z" fill="#007ead" fill-rule="evenodd"/><path d="M117.349 48.59c-2.459.46-4.098 6.297-.4 5.857 2.858-.46 3.258-6.756.4-5.856" fill="none" stroke="#d3e1ed" stroke-width=".48" stroke-linecap="round" stroke-linejoin="round"/><path d="M117.349 48.59c-2.459.46-4.098 6.297-.4 5.857 2.858-.46 3.258-6.756.4-5.856" fill="none" stroke="#d3e1ed" stroke-width=".48" stroke-linecap="round" stroke-linejoin="round"/><path d="M123.205 57.625c-2.518 1.759 1.68 5.737 2.939 2.658 1.259-2.658-1.26-3.557-2.939-2.658z" fill="#007ead" fill-rule="evenodd"/><path d="M123.205 57.625c-2.518 1.759 1.68 5.737 2.939 2.658 1.259-2.658-1.26-3.557-2.939-2.658" fill="none" stroke="#d3e1ed" stroke-width=".48" stroke-linecap="round" stroke-linejoin="round"/><path d="M123.205 57.625c-2.518 1.759 1.68 5.737 2.939 2.658 1.259-2.658-1.26-3.557-2.939-2.658" fill="none" stroke="#d3e1ed" stroke-width=".48" stroke-linecap="round" stroke-linejoin="round"/><path d="M127.863 87.307c-2.939 1.34 1.259 5.397 2.938 2.239 1.239-2.699-1.68-3.158-2.938-2.239z" fill="#007ead" fill-rule="evenodd"/><path d="M127.863 87.307c-2.939 1.34 1.259 5.397 2.938 2.239 1.239-2.699-1.68-3.158-2.938-2.239" fill="none" stroke="#d3e1ed" stroke-width=".48" stroke-linecap="round" stroke-linejoin="round"/><path d="M127.863 87.307c-2.939 1.34 1.259 5.397 2.938 2.239 1.239-2.699-1.68-3.158-2.938-2.239" fill="none" stroke="#d3e1ed" stroke-width=".48" stroke-linecap="round" stroke-linejoin="round"/><path d="M126.563 69.198c-3.318.88-4.997-5.836-.84-5.377 3.759 0 4.158 4.917.84 5.377z" fill="#007ead" fill-rule="evenodd"/><path d="M126.563 69.198c-3.318.88-4.997-5.836-.84-5.377 3.759 0 4.158 4.917.84 5.377" fill="none" stroke="#d3e1ed" stroke-width=".48" stroke-linecap="round" stroke-linejoin="round"/><path d="M126.563 69.198c-3.318.88-4.997-5.836-.84-5.377 3.759 0 4.158 4.917.84 5.377" fill="none" stroke="#d3e1ed" stroke-width=".48" stroke-linecap="round" stroke-linejoin="round"/><path d="M20.328 78.852c-1.22-.46-2.859 2.759-1.22 2.759 1.62.46 2.839-1.84 1.22-2.759z" fill="#007ead" fill-rule="evenodd"/><path d="M20.328 78.852c-1.22-.46-2.859 2.759-1.22 2.759 1.62.46 2.839-1.84 1.22-2.759" fill="none" stroke="#d3e1ed" stroke-width=".48" stroke-linecap="round" stroke-linejoin="round"/><path d="M20.328 78.852c-1.22-.46-2.859 2.759-1.22 2.759 1.62.46 2.839-1.84 1.22-2.759" fill="none" stroke="#d3e1ed" stroke-width=".48" stroke-linecap="round" stroke-linejoin="round"/><path d="M18.289 85.928c-2.499 1.759 1.659 5.736 2.898 2.658 1.24-2.658-1.24-3.558-2.898-2.658z" fill="#007ead" fill-rule="evenodd"/><path d="M18.289 85.928c-2.499 1.759 1.659 5.736 2.898 2.658 1.24-2.658-1.24-3.558-2.898-2.658" fill="none" stroke="#d3e1ed" stroke-width=".48" stroke-linecap="round" stroke-linejoin="round"/><path d="M18.289 85.928c-2.499 1.759 1.659 5.736 2.898 2.658 1.24-2.658-1.24-3.558-2.898-2.658" fill="none" stroke="#d3e1ed" stroke-width=".48" stroke-linecap="round" stroke-linejoin="round"/><path d="M18.269 33.52c-1.26-.46-2.958 2.758-1.26 2.758 1.68.46 2.939-1.839 1.26-2.758z" fill="#007ead" fill-rule="evenodd"/><path d="M18.269 33.52c-1.26-.46-2.958 2.758-1.26 2.758 1.68.46 2.939-1.839 1.26-2.758" fill="none" stroke="#d3e1ed" stroke-width=".48" stroke-linecap="round" stroke-linejoin="round"/><path d="M18.269 33.52c-1.26-.46-2.958 2.758-1.26 2.758 1.68.46 2.939-1.839 1.26-2.758" fill="none" stroke="#d3e1ed" stroke-width=".48" stroke-linecap="round" stroke-linejoin="round"/><path d="M35.329 16.17c-1.25-.46-2.909 2.759-1.25 2.759 1.66.46 2.899-1.84 1.25-2.759z" fill="#007ead" fill-rule="evenodd"/><path d="M35.329 16.17c-1.25-.46-2.909 2.759-1.25 2.759 1.66.46 2.899-1.84 1.25-2.759" fill="none" stroke="#d3e1ed" stroke-width=".48" stroke-linecap="round" stroke-linejoin="round"/><path d="M35.329 16.17c-1.25-.46-2.909 2.759-1.25 2.759 1.66.46 2.899-1.84 1.25-2.759" fill="none" stroke="#d3e1ed" stroke-width=".48" stroke-linecap="round" stroke-linejoin="round"/><path d="M16.13 40.595c-2.498 1.8 1.66 5.817 2.898 2.699 1.24-2.699-1.239-3.598-2.898-2.699z" fill="#007ead" fill-rule="evenodd"/><path d="M16.13 40.595c-2.498 1.8 1.66 5.817 2.898 2.699 1.24-2.699-1.239-3.598-2.898-2.699" fill="none" stroke="#d3e1ed" stroke-width=".48" stroke-linecap="round" stroke-linejoin="round"/><path d="M16.13 40.595c-2.498 1.8 1.66 5.817 2.898 2.699 1.24-2.699-1.239-3.598-2.898-2.699" fill="none" stroke="#d3e1ed" stroke-width=".48" stroke-linecap="round" stroke-linejoin="round"/><path d="M21.627 97.5c-3.358.88-5.037-5.836-.84-5.376 3.778 0 4.198 4.917.84 5.377z" fill="#007ead" fill-rule="evenodd"/><path d="M21.627 97.5c-3.358.88-5.037-5.836-.84-5.376 3.778 0 4.198 4.917.84 5.377" fill="none" stroke="#d3e1ed" stroke-width=".48" stroke-linecap="round" stroke-linejoin="round"/><path d="M21.627 97.5c-3.358.88-5.037-5.836-.84-5.376 3.778 0 4.198 4.917.84 5.377" fill="none" stroke="#d3e1ed" stroke-width=".48" stroke-linecap="round" stroke-linejoin="round"/><path d="M119.468 99.74c-2.939-2.2 1.259-7.516 3.358-3.978 2.098 3.098-.84 6.616-3.358 3.978z" fill="#007ead" fill-rule="evenodd"/><path d="M119.468 99.74c-2.939-2.2 1.259-7.516 3.358-3.978 2.098 3.098-.84 6.616-3.358 3.978" fill="none" stroke="#d3e1ed" stroke-width=".48" stroke-linecap="round" stroke-linejoin="round"/><path d="M119.468 99.74c-2.939-2.2 1.259-7.516 3.358-3.978 2.098 3.098-.84 6.616-3.358 3.978" fill="none" stroke="#d3e1ed" stroke-width=".48" stroke-linecap="round" stroke-linejoin="round"/><path d="M81.51 84.209c-.42.9-1.279 3.138.44 3.138 2.119-.9.84-4.957-.44-3.138z" fill="#007ead" fill-rule="evenodd"/><path d="M81.51 84.209c-.42.9-1.279 3.138.44 3.138 2.119-.9.84-4.957-.44-3.138" fill="none" stroke="#d3e1ed" stroke-width=".48" stroke-linecap="round" stroke-linejoin="round"/><path d="M81.51 84.209c-.42.9-1.279 3.138.44 3.138 2.119-.9.84-4.957-.44-3.138" fill="none" stroke="#d3e1ed" stroke-width=".48" stroke-linecap="round" stroke-linejoin="round"/><path d="M74.835 87.367c-2.919-2.259.84-7.695 3.318-4.077 2.078 3.178-1.24 6.775-3.318 4.077z" fill="#007ead" fill-rule="evenodd"/><path d="M74.835 87.367c-2.919-2.259.84-7.695 3.318-4.077 2.078 3.178-1.24 6.775-3.318 4.077" fill="none" stroke="#d3e1ed" stroke-width=".48" stroke-linecap="round" stroke-linejoin="round"/><path d="M74.835 87.367c-2.919-2.259.84-7.695 3.318-4.077 2.078 3.178-1.24 6.775-3.318 4.077" fill="none" stroke="#d3e1ed" stroke-width=".48" stroke-linecap="round" stroke-linejoin="round"/><path d="M125.784 77.093c-2.059 2.239 0 7.616 2.059 3.138 2.038-4.037-.82-5.836-2.06-3.138z" fill="#007ead" fill-rule="evenodd"/><path d="M125.784 77.093c-2.059 2.239 0 7.616 2.059 3.138 2.038-4.037-.82-5.836-2.06-3.138" fill="none" stroke="#d3e1ed" stroke-width=".48" stroke-linecap="round" stroke-linejoin="round"/><path d="M125.784 77.093c-2.059 2.239 0 7.616 2.059 3.138 2.038-4.037-.82-5.836-2.06-3.138" fill="none" stroke="#d3e1ed" stroke-width=".48" stroke-linecap="round" stroke-linejoin="round"/><path d="M91.964 82.81c-2.538 1.779-.42 7.575 2.099 2.678 1.679-4.017-.84-5.816-2.099-2.678z" fill="#007ead" fill-rule="evenodd"/><path d="M91.964 82.81c-2.538 1.779-.42 7.575 2.099 2.678 1.679-4.017-.84-5.816-2.099-2.678" fill="none" stroke="#d3e1ed" stroke-width=".48" stroke-linecap="round" stroke-linejoin="round"/><path d="M91.964 82.81c-2.538 1.779-.42 7.575 2.099 2.678 1.679-4.017-.84-5.816-2.099-2.678" fill="none" stroke="#d3e1ed" stroke-width=".48" stroke-linecap="round" stroke-linejoin="round"/><path d="M72.376 94.423c-2.099-2.199-7.096.88-2.498 2.638 3.737 1.32 5.396-1.759 2.498-2.638z" fill="#007ead" fill-rule="evenodd"/><path d="M72.376 94.423c-2.099-2.199-7.096.88-2.498 2.638 3.737 1.32 5.396-1.759 2.498-2.638" fill="none" stroke="#d3e1ed" stroke-width=".48" stroke-linecap="round" stroke-linejoin="round"/><path d="M72.376 94.423c-2.099-2.199-7.096.88-2.498 2.638 3.737 1.32 5.396-1.759 2.498-2.638" fill="none" stroke="#d3e1ed" stroke-width=".48" stroke-linecap="round" stroke-linejoin="round"/><path d="M43.654 118.508c1.259 2.659 7.955 3.538 6.296-.46-1.68-3.997-8.815-2.218-6.296.46z" fill="#007ead" fill-rule="evenodd"/><path d="M43.654 118.508c1.259 2.659 7.955 3.538 6.296-.46-1.68-3.997-8.815-2.218-6.296.46" fill="none" stroke="#d3e1ed" stroke-width=".48" stroke-linecap="round" stroke-linejoin="round"/><path d="M43.654 118.508c1.259 2.659 7.955 3.538 6.296-.46-1.68-3.997-8.815-2.218-6.296.46" fill="none" stroke="#d3e1ed" stroke-width=".48" stroke-linecap="round" stroke-linejoin="round"/><path d="M52.008 114.41c-.4 1.3 2.399 2.6 2.399.42 0-1.299-1.999-2.618-2.399-.42z" fill="#007ead" fill-rule="evenodd"/><path d="M52.008 114.41c-.4 1.3 2.399 2.6 2.399.42 0-1.299-1.999-2.618-2.399-.42" fill="none" stroke="#d3e1ed" stroke-width=".48" stroke-linecap="round" stroke-linejoin="round"/><path d="M52.008 114.41c-.4 1.3 2.399 2.6 2.399.42 0-1.299-1.999-2.618-2.399-.42" fill="none" stroke="#d3e1ed" stroke-width=".48" stroke-linecap="round" stroke-linejoin="round"/><path d="M68.239 116.63c0 1.358 2.878 2.698 2.878.899 0-1.8-2.039-3.158-2.878-.9z" fill="#007ead" fill-rule="evenodd"/><path d="M68.239 116.63c0 1.358 2.878 2.698 2.878.899 0-1.8-2.039-3.158-2.878-.9" fill="none" stroke="#d3e1ed" stroke-width=".48" stroke-linecap="round" stroke-linejoin="round"/><path d="M68.239 116.63c0 1.358 2.878 2.698 2.878.899 0-1.8-2.039-3.158-2.878-.9" fill="none" stroke="#d3e1ed" stroke-width=".48" stroke-linecap="round" stroke-linejoin="round"/><path d="M93.583 122.406c0 1.299 2.958 2.598 2.958.86 0-1.74-2.098-3.059-2.958-.86z" fill="#007ead" fill-rule="evenodd"/><path d="M93.583 122.406c0 1.299 2.958 2.598 2.958.86 0-1.74-2.098-3.059-2.958-.86" fill="none" stroke="#d3e1ed" stroke-width=".48" stroke-linecap="round" stroke-linejoin="round"/><path d="M93.583 122.406c0 1.299 2.958 2.598 2.958.86 0-1.74-2.098-3.059-2.958-.86" fill="none" stroke="#d3e1ed" stroke-width=".48" stroke-linecap="round" stroke-linejoin="round"/><path d="M112.792 104.657c-.42 1.339 2.938 2.678 2.518.899 0-1.799-2.099-2.698-2.518-.9z" fill="#007ead" fill-rule="evenodd"/><path d="M112.792 104.657c-.42 1.339 2.938 2.678 2.518.899 0-1.799-2.099-2.698-2.518-.9" fill="none" stroke="#d3e1ed" stroke-width=".48" stroke-linecap="round" stroke-linejoin="round"/><path d="M112.792 104.657c-.42 1.339 2.938 2.678 2.518.899 0-1.799-2.099-2.698-2.518-.9" fill="none" stroke="#d3e1ed" stroke-width=".48" stroke-linecap="round" stroke-linejoin="round"/><path d="M47.791 111.772c.84.46 2.938.92 2.519-.46-1.26-2.298-4.218-.919-2.519.46z" fill="#007ead" fill-rule="evenodd"/><path d="M47.791 111.772c.84.46 2.938.92 2.519-.46-1.26-2.298-4.218-.919-2.519.46" fill="none" stroke="#d3e1ed" stroke-width=".48" stroke-linecap="round" stroke-linejoin="round"/><path d="M47.791 111.772c.84.46 2.938.92 2.519-.46-1.26-2.298-4.218-.919-2.519.46" fill="none" stroke="#d3e1ed" stroke-width=".48" stroke-linecap="round" stroke-linejoin="round"/><path d="M50.71 122.406c.839 2.638 6.255 3.957 5.436 0-.42-3.078-6.696-2.639-5.437 0z" fill="#007ead" fill-rule="evenodd"/><path d="M50.71 122.406c.839 2.638 6.255 3.957 5.436 0-.42-3.078-6.696-2.639-5.437 0" fill="none" stroke="#d3e1ed" stroke-width=".48" stroke-linecap="round" stroke-linejoin="round"/><path d="M50.71 122.406c.839 2.638 6.255 3.957 5.436 0-.42-3.078-6.696-2.639-5.437 0" fill="none" stroke="#d3e1ed" stroke-width=".48" stroke-linecap="round" stroke-linejoin="round"/><path d="M59.964 120.667c2.038 2.658 5.316-2.219 2.038-3.558-2.458-.9-2.878 1.779-2.038 3.558z" fill="#007ead" fill-rule="evenodd"/><path d="M59.964 120.667c2.038 2.658 5.316-2.219 2.038-3.558-2.458-.9-2.878 1.779-2.038 3.558" fill="none" stroke="#d3e1ed" stroke-width=".48" stroke-linecap="round" stroke-linejoin="round"/><path d="M59.964 120.667c2.038 2.658 5.316-2.219 2.038-3.558-2.458-.9-2.878 1.779-2.038 3.558" fill="none" stroke="#d3e1ed" stroke-width=".48" stroke-linecap="round" stroke-linejoin="round"/><path d="M112.832 36.218c.84 2.698 6.256 4.038 5.436 0-.42-3.158-6.696-2.698-5.436 0z" fill="#007ead" fill-rule="evenodd"/><path d="M112.832 36.218c.84 2.698 6.256 4.038 5.436 0-.42-3.158-6.696-2.698-5.436 0" fill="none" stroke="#d3e1ed" stroke-width=".48" stroke-linecap="round" stroke-linejoin="round"/><path d="M112.832 36.218c.84 2.698 6.256 4.038 5.436 0-.42-3.158-6.696-2.698-5.436 0" fill="none" stroke="#d3e1ed" stroke-width=".48" stroke-linecap="round" stroke-linejoin="round"/><path d="M21.207 35.299c.42-.9 0-3.598-1.26-2.239-1.678 1.799.84 4.477 1.26 2.239z" fill="#007ead" fill-rule="evenodd"/><path d="M21.207 35.299c.42-.9 0-3.598-1.26-2.239-1.678 1.799.84 4.477 1.26 2.239" fill="none" stroke="#d3e1ed" stroke-width=".48" stroke-linecap="round" stroke-linejoin="round"/><path d="M21.207 35.299c.42-.9 0-3.598-1.26-2.239-1.678 1.799.84 4.477 1.26 2.239" fill="none" stroke="#d3e1ed" stroke-width=".48" stroke-linecap="round" stroke-linejoin="round"/><path d="M26.584 28.783c2.518-.9 3.358-6.676-.42-5.777-2.538.88-2.538 7.096.42 5.777z" fill="#007ead" fill-rule="evenodd"/><path d="M26.584 28.783c2.518-.9 3.358-6.676-.42-5.777-2.538.88-2.538 7.096.42 5.777" fill="none" stroke="#d3e1ed" stroke-width=".48" stroke-linecap="round" stroke-linejoin="round"/><path d="M26.584 28.783c2.518-.9 3.358-6.676-.42-5.777-2.538.88-2.538 7.096.42 5.777" fill="none" stroke="#d3e1ed" stroke-width=".48" stroke-linecap="round" stroke-linejoin="round"/><path d="M119.388 33.18c1.719 3.078 5.137-1.779 2.138-3.098-2.558-1.34-2.998 1.759-2.138 3.098z" fill="#007ead" fill-rule="evenodd"/><path d="M119.388 33.18c1.719 3.078 5.137-1.779 2.138-3.098-2.558-1.34-2.998 1.759-2.138 3.098" fill="none" stroke="#d3e1ed" stroke-width=".48" stroke-linecap="round" stroke-linejoin="round"/><path d="M119.388 33.18c1.719 3.078 5.137-1.779 2.138-3.098-2.558-1.34-2.998 1.759-2.138 3.098" fill="none" stroke="#d3e1ed" stroke-width=".48" stroke-linecap="round" stroke-linejoin="round"/><path d="M72.356 70.877c0-3.098-6.276-6.636-5.856-2.219 0 3.978 7.095 5.737 5.856 2.219z" fill="#007ead" fill-rule="evenodd"/><path d="M72.356 70.877c0-3.098-6.276-6.636-5.856-2.219 0 3.978 7.095 5.737 5.856 2.219" fill="none" stroke="#d3e1ed" stroke-width=".48" stroke-linecap="round" stroke-linejoin="round"/><path d="M72.356 70.877c0-3.098-6.276-6.636-5.856-2.219 0 3.978 7.095 5.737 5.856 2.219" fill="none" stroke="#d3e1ed" stroke-width=".48" stroke-linecap="round" stroke-linejoin="round"/><path d="M63.242 70.937c.84-.9-1.72-3.578-2.139-1.779-.86 1.779.86 3.558 2.139 1.779z" fill="#007ead" fill-rule="evenodd"/><path d="M63.242 70.937c.84-.9-1.72-3.578-2.139-1.779-.86 1.779.86 3.558 2.139 1.779" fill="none" stroke="#d3e1ed" stroke-width=".48" stroke-linecap="round" stroke-linejoin="round"/><path d="M63.242 70.937c.84-.9-1.72-3.578-2.139-1.779-.86 1.779.86 3.558 2.139 1.779" fill="none" stroke="#d3e1ed" stroke-width=".48" stroke-linecap="round" stroke-linejoin="round"/><path d="M62.802 86.468c-.84-.9-2.559-2.239-2.559-.9 0 2.659 3.838 2.659 2.559.9z" fill="#007ead" fill-rule="evenodd"/><path d="M62.802 86.468c-.84-.9-2.559-2.239-2.559-.9 0 2.659 3.838 2.659 2.559.9" fill="none" stroke="#d3e1ed" stroke-width=".48" stroke-linecap="round" stroke-linejoin="round"/><path d="M62.802 86.468c-.84-.9-2.559-2.239-2.559-.9 0 2.659 3.838 2.659 2.559.9" fill="none" stroke="#d3e1ed" stroke-width=".48" stroke-linecap="round" stroke-linejoin="round"/><path d="M88.626 66.48c-.84-.9-2.558-2.239-2.558-.9 0 2.659 3.838 2.659 2.558.9z" fill="#007ead" fill-rule="evenodd"/><path d="M88.626 66.48c-.84-.9-2.558-2.239-2.558-.9 0 2.659 3.838 2.659 2.558.9" fill="none" stroke="#d3e1ed" stroke-width=".48" stroke-linecap="round" stroke-linejoin="round"/><path d="M88.626 66.48c-.84-.9-2.558-2.239-2.558-.9 0 2.659 3.838 2.659 2.558.9" fill="none" stroke="#d3e1ed" stroke-width=".48" stroke-linecap="round" stroke-linejoin="round"/><path d="M63.202 53.608c.4-2.659-4.178-6.237-5.017-2.22-.42 3.119 5.017 5.338 5.017 2.22z" fill="#007ead" fill-rule="evenodd"/><path d="M63.202 53.608c.4-2.659-4.178-6.237-5.017-2.22-.42 3.119 5.017 5.338 5.017 2.22" fill="none" stroke="#d3e1ed" stroke-width=".48" stroke-linecap="round" stroke-linejoin="round"/><path d="M63.202 53.608c.4-2.659-4.178-6.237-5.017-2.22-.42 3.119 5.017 5.338 5.017 2.22" fill="none" stroke="#d3e1ed" stroke-width=".48" stroke-linecap="round" stroke-linejoin="round"/><path d="M48.17 89.566c-.419-3.178-5.436-.46-2.917 2.258 1.659 2.239 3.318-.46 2.918-2.258z" fill="#007ead" fill-rule="evenodd"/><path d="M48.17 89.566c-.419-3.178-5.436-.46-2.917 2.258 1.659 2.239 3.318-.46 2.918-2.258" fill="none" stroke="#d3e1ed" stroke-width=".48" stroke-linecap="round" stroke-linejoin="round"/><path d="M48.17 89.566c-.419-3.178-5.436-.46-2.917 2.258 1.659 2.239 3.318-.46 2.918-2.258" fill="none" stroke="#d3e1ed" stroke-width=".48" stroke-linecap="round" stroke-linejoin="round"/><path d="M31.56 79.232c0-3.558 6.697-3.098 5.458.9-1.26 3.537-5.877 2.658-5.457-.9z" fill="#007ead" fill-rule="evenodd"/><path d="M31.56 79.232c0-3.558 6.697-3.098 5.458.9-1.26 3.537-5.877 2.658-5.457-.9" fill="none" stroke="#d3e1ed" stroke-width=".48" stroke-linecap="round" stroke-linejoin="round"/><path d="M31.56 79.232c0-3.558 6.697-3.098 5.458.9-1.26 3.537-5.877 2.658-5.457-.9" fill="none" stroke="#d3e1ed" stroke-width=".48" stroke-linecap="round" stroke-linejoin="round"/><path d="M39.076 63.781c-.84-3.058-6.656-2.618-2.918 1.3 2.918 2.598 4.977.859 2.918-1.3z" fill="#007ead" fill-rule="evenodd"/><path d="M39.076 63.781c-.84-3.058-6.656-2.618-2.918 1.3 2.918 2.598 4.977.859 2.918-1.3" fill="none" stroke="#d3e1ed" stroke-width=".48" stroke-linecap="round" stroke-linejoin="round"/><path d="M39.076 63.781c-.84-3.058-6.656-2.618-2.918 1.3 2.918 2.598 4.977.859 2.918-1.3" fill="none" stroke="#d3e1ed" stroke-width=".48" stroke-linecap="round" stroke-linejoin="round"/><path d="M79.452 62.862c-2.519 0-5.057 5.417-1.68 5.417 3.359.44 4.618-5.877 1.68-5.417z" fill="#007ead" fill-rule="evenodd"/><path d="M79.452 62.862c-2.519 0-5.057 5.417-1.68 5.417 3.359.44 4.618-5.877 1.68-5.417" fill="none" stroke="#d3e1ed" stroke-width=".48" stroke-linecap="round" stroke-linejoin="round"/><path d="M79.452 62.862c-2.519 0-5.057 5.417-1.68 5.417 3.359.44 4.618-5.877 1.68-5.417" fill="none" stroke="#d3e1ed" stroke-width=".48" stroke-linecap="round" stroke-linejoin="round"/><path d="M80.311 70.517c-2.878.88.4 5.717 2.459 3.078 1.619-2.198-.82-3.517-2.459-3.078z" fill="#007ead" fill-rule="evenodd"/><path d="M80.311 70.517c-2.878.88.4 5.717 2.459 3.078 1.619-2.198-.82-3.517-2.459-3.078" fill="none" stroke="#d3e1ed" stroke-width=".48" stroke-linecap="round" stroke-linejoin="round"/><path d="M80.311 70.517c-2.878.88.4 5.717 2.459 3.078 1.619-2.198-.82-3.517-2.459-3.078" fill="none" stroke="#d3e1ed" stroke-width=".48" stroke-linecap="round" stroke-linejoin="round"/><path d="M26.144 107.735c1.26 3.158 7.955 3.598 6.296-.46-1.679-3.618-8.814-2.259-6.296.46z" fill="#007ead" fill-rule="evenodd"/><path d="M26.144 107.735c1.26 3.158 7.955 3.598 6.296-.46-1.679-3.618-8.814-2.259-6.296.46" fill="none" stroke="#d3e1ed" stroke-width=".48" stroke-linecap="round" stroke-linejoin="round"/><path d="M26.144 107.735c1.26 3.158 7.955 3.598 6.296-.46-1.679-3.618-8.814-2.259-6.296.46" fill="none" stroke="#d3e1ed" stroke-width=".48" stroke-linecap="round" stroke-linejoin="round"/><path d="M30.302 101.498c.86.44 2.998.88 2.578-.879-1.28-2.239-4.297-.46-2.578.88z" fill="#007ead" fill-rule="evenodd"/><path d="M30.302 101.498c.86.44 2.998.88 2.578-.879-1.28-2.239-4.297-.46-2.578.88" fill="none" stroke="#d3e1ed" stroke-width=".48" stroke-linecap="round" stroke-linejoin="round"/><path d="M30.302 101.498c.86.44 2.998.88 2.578-.879-1.28-2.239-4.297-.46-2.578.88" fill="none" stroke="#d3e1ed" stroke-width=".48" stroke-linecap="round" stroke-linejoin="round"/><path d="M11.573 58.025c1.26 3.078 8.375 3.498 6.296-.42-1.679-3.518-8.395-2.199-6.296.42z" fill="#007ead" fill-rule="evenodd"/><path d="M11.573 58.025c1.26 3.078 8.375 3.498 6.296-.42-1.679-3.518-8.395-2.199-6.296.42" fill="none" stroke="#d3e1ed" stroke-width=".48" stroke-linecap="round" stroke-linejoin="round"/><path d="M11.573 58.025c1.26 3.078 8.375 3.498 6.296-.42-1.679-3.518-8.395-2.199-6.296.42" fill="none" stroke="#d3e1ed" stroke-width=".48" stroke-linecap="round" stroke-linejoin="round"/><path d="M15.79 51.849c.84.44 3.358.879 2.519-.88-.84-2.239-4.198-.46-2.519.88z" fill="#007ead" fill-rule="evenodd"/><path d="M15.79 51.849c.84.44 3.358.879 2.519-.88-.84-2.239-4.198-.46-2.519.88" fill="none" stroke="#d3e1ed" stroke-width=".48" stroke-linecap="round" stroke-linejoin="round"/><path d="M15.79 51.849c.84.44 3.358.879 2.519-.88-.84-2.239-4.198-.46-2.519.88" fill="none" stroke="#d3e1ed" stroke-width=".48" stroke-linecap="round" stroke-linejoin="round"/><path d="M35.818 117.129c2.04 3.078 5.317-1.779 2.04-3.098-2.46-1.34-2.88 1.759-2.04 3.098z" fill="#007ead" fill-rule="evenodd"/><path d="M35.818 117.129c2.04 3.078 5.317-1.779 2.04-3.098-2.46-1.34-2.88 1.759-2.04 3.098" fill="none" stroke="#d3e1ed" stroke-width=".48" stroke-linecap="round" stroke-linejoin="round"/><path d="M35.818 117.129c2.04 3.078 5.317-1.779 2.04-3.098-2.46-1.34-2.88 1.759-2.04 3.098" fill="none" stroke="#d3e1ed" stroke-width=".48" stroke-linecap="round" stroke-linejoin="round"/><path d="M73.276 122.426c1.679 3.118-4.618 5.776-5.037 1.339 0-4.018 4.617-4.917 5.037-1.34z" fill="#007ead" fill-rule="evenodd"/><path d="M73.276 122.426c1.679 3.118-4.618 5.776-5.037 1.339 0-4.018 4.617-4.917 5.037-1.34" fill="none" stroke="#d3e1ed" stroke-width=".48" stroke-linecap="round" stroke-linejoin="round"/><path d="M73.276 122.426c1.679 3.118-4.618 5.776-5.037 1.339 0-4.018 4.617-4.917 5.037-1.34" fill="none" stroke="#d3e1ed" stroke-width=".48" stroke-linecap="round" stroke-linejoin="round"/><path d="M109.913 108.614c1.66 3.578-4.557 6.236-4.977 1.8 0-4.018 4.578-4.918 4.977-1.8z" fill="#007ead" fill-rule="evenodd"/><path d="M109.913 108.614c1.66 3.578-4.557 6.236-4.977 1.8 0-4.018 4.578-4.918 4.977-1.8" fill="none" stroke="#d3e1ed" stroke-width=".48" stroke-linecap="round" stroke-linejoin="round"/><path d="M109.913 108.614c1.66 3.578-4.557 6.236-4.977 1.8 0-4.018 4.578-4.918 4.977-1.8" fill="none" stroke="#d3e1ed" stroke-width=".48" stroke-linecap="round" stroke-linejoin="round"/><path d="M68.259 4.677c1.659 3.568-4.558 6.236-4.977 1.79 0-4.008 4.567-4.908 4.977-1.79z" fill="#007ead" fill-rule="evenodd"/><path d="M68.259 4.677c1.659 3.568-4.558 6.236-4.977 1.79 0-4.008 4.567-4.908 4.977-1.79" fill="none" stroke="#d3e1ed" stroke-width=".48" stroke-linecap="round" stroke-linejoin="round"/><path d="M68.259 4.677c1.659 3.568-4.558 6.236-4.977 1.79 0-4.008 4.567-4.908 4.977-1.79" fill="none" stroke="#d3e1ed" stroke-width=".48" stroke-linecap="round" stroke-linejoin="round"/><path d="M77.323 7.875c1.23 3.568-4.927 6.236-4.927 1.79 0-4.008 4.108-4.908 4.927-1.79z" fill="#007ead" fill-rule="evenodd"/><path d="M77.323 7.875c1.23 3.568-4.927 6.236-4.927 1.79 0-4.008 4.108-4.908 4.927-1.79" fill="none" stroke="#d3e1ed" stroke-width=".48" stroke-linecap="round" stroke-linejoin="round"/><path d="M77.323 7.875c1.23 3.568-4.927 6.236-4.927 1.79 0-4.008 4.108-4.908 4.927-1.79" fill="none" stroke="#d3e1ed" stroke-width=".48" stroke-linecap="round" stroke-linejoin="round"/><path d="M69.458 29.202c1.26 3.538-4.617 6.177-5.057 1.78 0-3.978 4.637-4.878 5.057-1.78z" fill="#007ead" fill-rule="evenodd"/><path d="M69.458 29.202c1.26 3.538-4.617 6.177-5.057 1.78 0-3.978 4.637-4.878 5.057-1.78" fill="none" stroke="#d3e1ed" stroke-width=".48" stroke-linecap="round" stroke-linejoin="round"/><path d="M69.458 29.202c1.26 3.538-4.617 6.177-5.057 1.78 0-3.978 4.637-4.878 5.057-1.78" fill="none" stroke="#d3e1ed" stroke-width=".48" stroke-linecap="round" stroke-linejoin="round"/><path d="M82.41 123.805c2.059 2.239 7.016-.88 2.479-2.678-3.718-1.8-4.977 1.339-2.479 2.678z" fill="#007ead" fill-rule="evenodd"/><path d="M82.41 123.805c2.059 2.239 7.016-.88 2.479-2.678-3.718-1.8-4.977 1.339-2.479 2.678" fill="none" stroke="#d3e1ed" stroke-width=".48" stroke-linecap="round" stroke-linejoin="round"/><path d="M82.41 123.805c2.059 2.239 7.016-.88 2.479-2.678-3.718-1.8-4.977 1.339-2.479 2.678" fill="none" stroke="#d3e1ed" stroke-width=".48" stroke-linecap="round" stroke-linejoin="round"/><path d="M39.476 105.536c-1.699 1.3 1.26 3.478 2.099 2.618.84-1.319-.42-4.817-2.099-2.618z" fill="#007ead" fill-rule="evenodd"/><path d="M39.476 105.536c-1.699 1.3 1.26 3.478 2.099 2.618.84-1.319-.42-4.817-2.099-2.618" fill="none" stroke="#d3e1ed" stroke-width=".48" stroke-linecap="round" stroke-linejoin="round"/><path d="M78.592 42.015c-3.318.879-4.997-5.757-.84-5.757 3.339.46 4.158 5.317.84 5.757z" fill="#007ead" fill-rule="evenodd"/><path d="M78.592 42.015c-3.318.879-4.997-5.757-.84-5.757 3.339.46 4.158 5.317.84 5.757" fill="none" stroke="#d3e1ed" stroke-width=".48" stroke-linecap="round" stroke-linejoin="round"/><path d="M78.592 42.015c-3.318.879-4.997-5.757-.84-5.757 3.339.46 4.158 5.317.84 5.757" fill="none" stroke="#d3e1ed" stroke-width=".48" stroke-linecap="round" stroke-linejoin="round"/><path d="M90.265 60.144c1.26 2.658 7.955 3.537 6.296-.46-2.098-3.998-8.814-2.219-6.296.46z" fill="#007ead" fill-rule="evenodd"/><path d="M90.265 60.144c1.26 2.658 7.955 3.537 6.296-.46-2.098-3.998-8.814-2.219-6.296.46" fill="none" stroke="#d3e1ed" stroke-width=".48" stroke-linecap="round" stroke-linejoin="round"/><path d="M90.265 60.144c1.26 2.658 7.955 3.537 6.296-.46-2.098-3.998-8.814-2.219-6.296.46" fill="none" stroke="#d3e1ed" stroke-width=".48" stroke-linecap="round" stroke-linejoin="round"/><path d="M96.961 35.858c.84.44 2.938.88 2.519-.44-1.26-2.678-4.218-.899-2.519.44z" fill="#007ead" fill-rule="evenodd"/><path d="M96.961 35.858c.84.44 2.938.88 2.519-.44-1.26-2.678-4.218-.899-2.519.44" fill="none" stroke="#d3e1ed" stroke-width=".48" stroke-linecap="round" stroke-linejoin="round"/><path d="M96.961 35.858c.84.44 2.938.88 2.519-.44-1.26-2.678-4.218-.899-2.519.44" fill="none" stroke="#d3e1ed" stroke-width=".48" stroke-linecap="round" stroke-linejoin="round"/><path d="M83.21 52.148c1.259 2.659 7.895 3.538 5.816-.46-1.659-3.997-8.315-2.218-5.816.46z" fill="#007ead" fill-rule="evenodd"/><path d="M83.21 52.148c1.259 2.659 7.895 3.538 5.816-.46-1.659-3.997-8.315-2.218-5.816.46" fill="none" stroke="#d3e1ed" stroke-width=".48" stroke-linecap="round" stroke-linejoin="round"/><path d="M83.21 52.148c1.259 2.659 7.895 3.538 5.816-.46-1.659-3.997-8.315-2.218-5.816.46" fill="none" stroke="#d3e1ed" stroke-width=".48" stroke-linecap="round" stroke-linejoin="round"/><path d="M96.182 50.01c-1.24 1.319 1.619 3.518 2.438 2.198.8-.88-.42-4.837-2.438-2.198z" fill="#007ead" fill-rule="evenodd"/><path d="M96.182 50.01c-1.24 1.319 1.619 3.518 2.438 2.198.8-.88-.42-4.837-2.438-2.198" fill="none" stroke="#d3e1ed" stroke-width=".48" stroke-linecap="round" stroke-linejoin="round"/><path d="M15.35 74.475c-2.038.88-2.038-2.639-.4-3.518 1.62-.88 2.84 1.759.4 3.518z" fill="#007ead" fill-rule="evenodd"/><path d="M15.35 74.475c-2.038.88-2.038-2.639-.4-3.518 1.62-.88 2.84 1.759.4 3.518" fill="none" stroke="#d3e1ed" stroke-width=".48" stroke-linecap="round" stroke-linejoin="round"/><path d="M101.508 10.454c-2.968 1.789 1.27 5.816 2.959 2.688 1.269-2.688-1.69-3.588-2.959-2.688z" fill="#007ead" fill-rule="evenodd"/><path d="M101.508 10.454c-2.968 1.789 1.27 5.816 2.959 2.688 1.269-2.688-1.69-3.588-2.959-2.688" fill="none" stroke="#d3e1ed" stroke-width=".48" stroke-linecap="round" stroke-linejoin="round"/><path d="M101.508 10.454c-2.968 1.789 1.27 5.816 2.959 2.688 1.269-2.688-1.69-3.588-2.959-2.688" fill="none" stroke="#d3e1ed" stroke-width=".48" stroke-linecap="round" stroke-linejoin="round"/><path d="M104.896 22.027c-3.328.88-4.997-5.757-.84-5.307 3.329 0 4.158 4.867.84 5.307z" fill="#007ead" fill-rule="evenodd"/><path d="M104.896 22.027c-3.328.88-4.997-5.757-.84-5.307 3.329 0 4.158 4.867.84 5.307" fill="none" stroke="#d3e1ed" stroke-width=".48" stroke-linecap="round" stroke-linejoin="round"/><path d="M104.896 22.027c-3.328.88-4.997-5.757-.84-5.307 3.329 0 4.158 4.867.84 5.307" fill="none" stroke="#d3e1ed" stroke-width=".48" stroke-linecap="round" stroke-linejoin="round"/><path d="M94.423 13.232c.86.44 2.998.88 2.578-.45-.86-2.668-4.297-.89-2.578.45z" fill="#007ead" fill-rule="evenodd"/><path d="M94.423 13.232c.86.44 2.998.88 2.578-.45-.86-2.668-4.297-.89-2.578.45" fill="none" stroke="#d3e1ed" stroke-width=".48" stroke-linecap="round" stroke-linejoin="round"/><path d="M94.423 13.232c.86.44 2.998.88 2.578-.45-.86-2.668-4.297-.89-2.578.45" fill="none" stroke="#d3e1ed" stroke-width=".48" stroke-linecap="round" stroke-linejoin="round"/><path d="M81.12 4.677c.85.44 2.949.88 2.53-.45-.84-2.668-4.218-.889-2.53.45z" fill="#007ead" fill-rule="evenodd"/><path d="M81.12 4.677c.85.44 2.949.88 2.53-.45-.84-2.668-4.218-.889-2.53.45" fill="none" stroke="#d3e1ed" stroke-width=".48" stroke-linecap="round" stroke-linejoin="round"/><path d="M81.12 4.677c.85.44 2.949.88 2.53-.45-.84-2.668-4.218-.889-2.53.45" fill="none" stroke="#d3e1ed" stroke-width=".48" stroke-linecap="round" stroke-linejoin="round"/><path d="M53.608 7.835c1.259.44 3.357.44 2.938-.88-1.26-2.198-4.617-.439-2.938.88z" fill="#007ead" fill-rule="evenodd"/><path d="M53.608 7.835c1.259.44 3.357.44 2.938-.88-1.26-2.198-4.617-.439-2.938.88" fill="none" stroke="#d3e1ed" stroke-width=".48" stroke-linecap="round" stroke-linejoin="round"/><path d="M53.608 7.835c1.259.44 3.357.44 2.938-.88-1.26-2.198-4.617-.439-2.938.88" fill="none" stroke="#d3e1ed" stroke-width=".48" stroke-linecap="round" stroke-linejoin="round"/><path d="M87.427 11.383c-2.478.89-2.478-2.678-.82-3.568 1.65-.9 3.299 1.78.82 3.568z" fill="#007ead" fill-rule="evenodd"/><path d="M87.427 11.383c-2.478.89-2.478-2.678-.82-3.568 1.65-.9 3.299 1.78.82 3.568" fill="none" stroke="#d3e1ed" stroke-width=".48" stroke-linecap="round" stroke-linejoin="round"/><path d="M107.435 116.55c-2.499 1.798 1.659 5.816 2.898 2.698 1.24-2.699-1.24-3.598-2.898-2.699z" fill="#007ead" fill-rule="evenodd"/><path d="M107.435 116.55c-2.499 1.798 1.659 5.816 2.898 2.698 1.24-2.699-1.24-3.598-2.898-2.699" fill="none" stroke="#d3e1ed" stroke-width=".48" stroke-linecap="round" stroke-linejoin="round"/><path d="M107.435 116.55c-2.499 1.798 1.659 5.816 2.898 2.698 1.24-2.699-1.24-3.598-2.898-2.699" fill="none" stroke="#d3e1ed" stroke-width=".48" stroke-linecap="round" stroke-linejoin="round"/><path d="M100.22 119.328c1.258.44 3.357.88 2.937-.44-1.259-2.678-4.617-.9-2.938.44z" fill="#007ead" fill-rule="evenodd"/><path d="M100.22 119.328c1.258.44 3.357.88 2.937-.44-1.259-2.678-4.617-.9-2.938.44" fill="none" stroke="#d3e1ed" stroke-width=".48" stroke-linecap="round" stroke-linejoin="round"/><path d="M100.22 119.328c1.258.44 3.357.88 2.937-.44-1.259-2.678-4.617-.9-2.938.44" fill="none" stroke="#d3e1ed" stroke-width=".48" stroke-linecap="round" stroke-linejoin="round"/><path d="M93.224 117.489c-2.12.88-2.12-2.679-.42-3.578 1.679-.9 2.938 1.779.42 3.578z" fill="#007ead" fill-rule="evenodd"/><path d="M93.224 117.489c-2.12.88-2.12-2.679-.42-3.578 1.679-.9 2.938 1.779.42 3.578" fill="none" stroke="#d3e1ed" stroke-width=".48" stroke-linecap="round" stroke-linejoin="round"/><path d="M39.936 33.54c-8.355 4.457-17.99 20.887-10.874 39.975-.42-14.65.84-27.083 10.874-39.975z" fill="#ebe4ee" fill-rule="evenodd"/><path d="M16.61 69.518C14.11 33.56 40.356 6.476 74.915 6.476c12.492 0 23.725 2.658 33.3 7.995C97.82 6.476 84.068 2.918 69.497 2.918c-34.56 0-61.223 27.084-58.725 63.042 1.68 25.305 10.834 45.293 28.743 55.047-14.151-10.654-21.647-28.843-22.906-51.49z" fill="#e2eaf3" fill-rule="evenodd"/><path clip-path="url(#a)" d="M17.03 94.383c-3.338-7.975-5.417-17.75-6.237-28.403C8.295 30.002 34.92 2.918 69.438 2.918 48.23 6.916-.04 22.027 17.03 94.383z" fill="#fff" fill-rule="evenodd"/><path clip-path="url(#a)" d="M69.898.76C34.079.76 6.596 29.182 9.094 66.46c2.499 37.277 20.408 63.901 58.725 63.901s68.698-12.412 67.879-60.343C134.858 22.067 105.716.76 69.898.76" fill="none" stroke="#58585a" stroke-width=".8" stroke-linecap="round" stroke-linejoin="round"/><path d="M79.912 13.232c-18.77-3.118-40.016 8.875-50.45 21.747-9.154 11.533-11.673 28.403-2.918 47.491 12.932 28.403 49.19 40.376 74.215 25.305 11.253-6.676 24.165-20.868 19.588-36.838-1.26-5.776-4.177-8.435-6.676-13.332-2.498-5.756-1.24-12.412-2.498-18.629-2.08-8.874-15.83-22.186-31.261-25.744" fill="none" stroke="#fff" stroke-width=".8" stroke-linecap="round" stroke-linejoin="round"/><path d="M36.998 24.645c-.42-3.558 1.659-6.676 4.957-7.116 2.898-.46 5.796 2.219 6.216 5.337.4 3.558-1.66 6.676-4.957 7.116-2.898.44-5.797-2.219-6.216-5.337zM49 18.06c-.43-1.33.43-2.22 1.72-2.22 1.288-.45 2.148.44 2.568 1.77 0 1.329-.85 2.218-2.139 2.218-.86.44-2.149-.44-2.149-1.769zM32.42 31.361c0-1.3.84-2.179 1.68-2.618 1.239 0 2.478.879 2.478 2.198 0 .86-.82 2.179-1.66 2.179-1.238.42-2.498-.44-2.498-1.759z" fill="#fff" fill-rule="evenodd"/></svg>