<svg xmlns="http://www.w3.org/2000/svg" version="1.0" viewBox="0 0 149.216 156.435"><defs><clipPath clipPathUnits="userSpaceOnUse" id="a"><path d="M-.16 5.357h149.03v156.545H-.16z"/></clipPath></defs><path d="M110.373 96.861c6.316 4.458 6.316 8.915 6.316 15.59 3.158-1.098 6.316-6.675 5.277-10.013-1.06-5.577-5.277-2.219-8.435-5.577z" fill="#4e99be" fill-rule="evenodd"/><path d="M.76 84.069c0-42.294 32.06-76.594 71.596-76.594 39.556 0 71.597 34.3 71.597 76.594 0 42.314-32.04 76.594-71.597 76.594C32.82 160.663.76 126.383.76 84.069z" fill="#9dc3d9" fill-rule="evenodd"/><path d="M.76 84.069c0-42.294 32.06-76.594 71.596-76.594 39.556 0 71.597 34.3 71.597 76.594 0 42.314-32.04 76.594-71.597 76.594C32.82 160.663.76 126.383.76 84.069" fill="none" stroke="#333" stroke-width=".8" stroke-linecap="round" stroke-linejoin="round"/><path d="M31.46 84.069c0-23.746 18.15-43.014 40.496-43.014 22.367 0 40.496 19.268 40.496 43.014 0 23.766-18.13 43.014-40.496 43.014-22.346 0-40.495-19.248-40.495-43.014z" fill="#ff0" fill-rule="evenodd"/><path d="M11.553 90.245c0-40.395 30.482-72.916 68.339-72.916 3.158 0 6.316 0 9.454 1.12-5.257-2.239-11.553-3.378-18.909-3.378-34.719 0-64.16 30.302-64.16 68.438 0 15.71 5.276 30.282 13.67 41.495-5.256-10.094-8.394-22.426-8.394-34.759z" fill="#fff" fill-rule="evenodd"/><path d="M103.177 19.628c13.672 13.452 22.087 32.5 22.087 53.807 0 40.336-29.442 71.717-67.3 71.717-11.552 0-22.066-2.239-31.54-7.855 11.573 11.213 27.343 17.929 45.213 17.929 36.797 0 67.279-32.48 67.279-71.717 0-26.883-14.711-51.548-35.739-63.88z" fill="#4e99be" fill-rule="evenodd"/><path d="M39.836 85.668c0-21.267 19.948-36.938 39.896-36.938 2.098 0-2.1-1.119 0 0-3.138-1.119-6.297-2.238-9.455-2.238-18.888 0-34.659 16.79-34.659 36.937 0 7.836 3.158 17.91 7.356 23.506-3.138-5.596-3.138-14.551-3.138-21.267z" fill="#fff" fill-rule="evenodd"/><path d="M88.247 53.208c7.375 6.736 11.573 16.83 11.573 26.943 0 20.188-14.732 37.018-33.68 37.018-6.316 0-11.593-2.239-15.81-4.497 5.276 5.616 13.691 8.974 22.126 8.974 18.949 0 33.68-15.69 33.68-35.898 0-13.452-6.316-25.804-17.89-32.54z" fill="#ffd100" fill-rule="evenodd"/><path d="M75.514 17.55c10.554 5.576 25.305 14.51 32.68 25.684 6.337 11.173 3.159 23.446 7.376 36.837 11.593-5.576 10.554-27.903 7.395-39.076-5.276-21.207-18.988-24.565-37.957-26.804z" fill="#4e99be" fill-rule="evenodd"/><path d="M31.46 84.069c0-23.746 18.15-43.014 40.496-43.014 22.367 0 40.496 19.268 40.496 43.014 0 23.766-18.13 43.014-40.496 43.014-22.346 0-40.495-19.248-40.495-43.014" fill="none" stroke="#333" stroke-width=".48" stroke-linecap="round" stroke-linejoin="round"/><path d="M35.618 52.608c0-5.876 4.238-10.673 9.435-10.673 5.217 0 9.434 4.797 9.434 10.673 0 5.897-4.217 10.674-9.434 10.674-5.197 0-9.435-4.777-9.435-10.674z" fill="#fff" fill-rule="evenodd"/><path d="M30.581 66.04c0-3.378 2.559-6.116 5.677-6.116 3.138 0 5.677 2.738 5.677 6.116 0 3.378-2.539 6.116-5.677 6.116-3.118 0-5.677-2.738-5.677-6.116zm25.185-22.267c0-2.198 1.42-3.997 3.158-3.997 1.76 0 3.158 1.799 3.158 3.997 0 2.22-1.399 3.998-3.158 3.998-1.739 0-3.158-1.779-3.158-3.998z" fill="#fff" fill-rule="evenodd"/><path clip-path="url(#a)" d="m71.437 8.595-7.376 1.12c-5.277 1.118-10.553 6.715-9.494 13.411 1.06 6.716 6.316 11.193 12.652 10.074l7.376-1.12c11.593-2.238 23.186-4.477 25.304 1.12 1.06 3.358 0 6.696-3.158 13.412-4.217 11.193-11.593 27.963 8.435 44.733 5.257 4.477 10.534 5.596 14.751 6.696 4.218 1.119 4.218 1.119 5.277 2.238 2.099 4.478-2.119 11.193-6.336 15.67-7.376 8.935-16.87 8.935-30.562 8.935-11.592 0-25.304 0-37.957 10.074-5.276 3.338-6.336 11.173-3.158 16.77 4.218 4.477 10.534 5.577 15.81 2.239 6.317-5.597 15.811-5.597 25.305-5.597 14.752 0 31.621 0 46.392-15.65 9.475-10.074 16.85-26.844 10.534-42.495-5.277-12.292-15.81-14.53-21.087-15.65-3.158 0-4.218-1.12-5.277-1.12-6.316-5.596-6.316-7.835-2.099-16.77 3.158-7.835 8.435-19.008 3.158-32.44C111.492.76 85.148 6.356 71.437 8.595z" fill="#f5bcc5" fill-rule="evenodd"/><path clip-path="url(#a)" d="M65.04 13.952c18.99-4.478 39.017-8.955 51.65 11.193-4.198-7.835-24.226-15.67-51.65-11.193z" fill="#eaf1f7" fill-rule="evenodd"/><path d="M128.042 106.935c-6.276 14.531-7.315 18.989-28.262 22.347-20.948 2.218-34.56-2.239-46.093 10.034 13.632-6.696 32.48-4.458 46.093-5.577 19.887-2.239 28.262-8.935 28.262-26.804z" fill="#eaf1f7" fill-rule="evenodd"/><path d="M118.768 38.577c-2.079 10.074-18.869 33.58 0 36.937-10.474-1.12-13.612-1.12-12.572-12.312 0-10.074 11.533-17.91 12.572-24.625z" fill="#ec6d88" fill-rule="evenodd"/><path clip-path="url(#a)" d="m71.437 8.595-7.376 1.12c-5.277 1.118-10.553 6.715-9.494 13.411 1.06 6.716 6.316 11.193 12.652 10.074l7.376-1.12c11.593-2.238 23.186-4.477 25.304 1.12 1.06 3.358 0 6.696-3.158 13.412-4.217 11.193-11.593 27.963 8.435 44.733 5.257 4.477 10.534 5.596 14.751 6.696 4.218 1.119 4.218 1.119 5.277 2.238 2.099 4.478-2.119 11.193-6.336 15.67-7.376 8.935-16.87 8.935-30.562 8.935-11.592 0-25.304 0-37.957 10.074-5.276 3.338-6.336 11.173-3.158 16.77 4.218 4.477 10.534 5.577 15.81 2.239 6.317-5.597 15.811-5.597 25.305-5.597 14.752 0 31.621 0 46.392-15.65 9.475-10.074 16.85-26.844 10.534-42.495-5.277-12.292-15.81-14.53-21.087-15.65-3.158 0-4.218-1.12-5.277-1.12-6.316-5.596-6.316-7.835-2.099-16.77 3.158-7.835 8.435-19.008 3.158-32.44C111.492.76 85.148 6.356 71.437 8.595" fill="none" stroke="#333" stroke-width=".8" stroke-linecap="round" stroke-linejoin="round"/></svg>