<svg xmlns="http://www.w3.org/2000/svg" version="1.0" viewBox="0 0 113.386 116.674"><defs><clipPath clipPathUnits="userSpaceOnUse" id="a"><path d="M-.16 4.317h113.211v116.73H-.159z"/></clipPath></defs><path d="M.76 62.602c0-31.62 23.905-57.285 53.367-57.285 29.482 0 53.368 25.664 53.368 57.285 0 31.64-23.886 57.285-53.368 57.285C24.665 119.887.76 94.243.76 62.602z" fill="#9dc3d9" fill-rule="evenodd"/><path d="M.76 62.602c0-31.62 23.905-57.285 53.367-57.285 29.482 0 53.368 25.664 53.368 57.285 0 31.64-23.886 57.285-53.368 57.285C24.665 119.887.76 94.243.76 62.602" fill="none" stroke="#333" stroke-width=".8" stroke-linecap="round" stroke-linejoin="round"/><path d="M24.185 62.442c0-17.67 13.552-32.02 30.262-32.02 16.73 0 30.262 14.35 30.262 32.02 0 17.69-13.532 32.02-30.262 32.02-16.71 0-30.262-14.33-30.262-32.02z" fill="#ff0" fill-rule="evenodd"/><path d="M9.554 66.86c0-30.322 22.926-54.607 51.569-54.607 2.458 0 4.917.879 7.355.879-4.897-1.739-9.814-2.618-14.73-2.618-26.185 0-47.472 23.405-47.472 51.149 0 12.132 3.278 22.546 9.834 31.2-4.097-7.795-6.556-16.47-6.556-26.004z" fill="#fff" fill-rule="evenodd"/><path d="M77.313 17.39c9.794 8.674 15.51 22.526 15.51 37.257 0 27.723-21.226 51.129-47.37 51.129-8.156 0-16.33-2.599-22.867-6.076 8.175 7.795 19.608 12.992 31.861 12.992 26.124 0 48.17-22.527 48.17-51.11 0-19.068-10.613-35.518-25.304-44.193z" fill="#4e99be" fill-rule="evenodd"/><path d="M31.68 63.322c0-16.41 14.632-27.644 29.263-27.644 1.62 0-.82-.86.82 0-2.439-.86-4.877-1.739-8.136-1.739-13.811 0-25.204 12.113-25.204 26.804 0 6.896 2.438 13.812 5.696 18.13-2.438-3.439-2.438-10.355-2.438-15.551z" fill="#fff" fill-rule="evenodd"/><path d="M68.319 39.136c4.917 5.197 8.195 12.133 8.195 19.928 0 14.711-11.473 26.844-25.405 26.844-4.097 0-8.195-.86-12.293-2.598 4.917 4.337 10.654 6.915 17.21 6.915 13.932 0 25.405-12.112 25.405-26.843 0-10.374-5.737-19.049-13.112-24.246z" fill="#ffd100" fill-rule="evenodd"/><path d="M15.39 41.775c4.038 6.975 9.655 7.835 13.672.88z" fill="#4e99be" fill-rule="evenodd"/><path d="M24.185 62.442c0-17.67 13.552-32.02 30.262-32.02 16.73 0 30.262 14.35 30.262 32.02 0 17.69-13.532 32.02-30.262 32.02-16.71 0-30.262-14.33-30.262-32.02" fill="none" stroke="#333" stroke-width=".48" stroke-linecap="round" stroke-linejoin="round"/><path d="M83.01 34c3.218 2.598 4.017 6.935 1.599 10.413-1.6 4.337-6.456 5.197-9.674 2.599-3.238-1.74-4.857-6.936-2.419-10.414 2.419-3.478 6.456-5.217 10.494-2.599zm-12.133-5.397c1.659.9 2.479 3.558.84 5.316-.84 2.659-3.318 2.659-4.977 1.78-2.499-1.78-2.499-4.438-1.66-6.197.82-1.779 4.138-2.678 5.797-.9zm13.832 25.244c.84.88 1.679 2.639.84 4.398-.84.88-2.54 1.759-3.379.88-1.699-.88-1.699-2.64-.84-3.519 0-1.759 1.68-1.759 3.379-1.759z" fill="#fff" fill-rule="evenodd"/><path d="M36.378 108.454c4.877-2.598 6.516-11.253 7.316-15.59-5.677 1.739-10.554 7.795-14.632 12.992zM82.15 57.365c7.396 1.76 7.396 8.715 8.215 15.67 4.098-2.598 3.278-9.573 3.278-13.91z" fill="#4e99be" fill-rule="evenodd"/><path clip-path="url(#a)" d="M9.774 20.727C3.258 32.021 4.078 48.511 18.73 58.045l5.696 3.478c7.336 4.337 10.594 6.955 9.774 15.63 0 9.534-14.65 19.968-26.044 20.828-3.258.86-5.716 3.478-5.716 6.935.819 3.478 3.258 6.077 6.516 6.077 15.47-.86 37.457-14.751 37.457-33.84.82-16.49-8.135-21.707-16.27-26.903l-4.897-3.478c-8.955-5.217-8.135-13.892-4.877-19.968 3.258-6.936 11.393-11.273 21.167-5.197 4.877 2.598 8.135 8.675 12.212 13.871 2.439 4.358 4.897 8.695 8.155 12.153 6.497 6.076 13.832 7.815 21.168 9.554 4.877 1.74 9.774 2.599 13.032 5.217 1.619 1.72 4.057 11.273 3.258 20.828 0 7.815-1.64 12.152-3.258 13.012-4.078 3.478-8.955.88-17.11-2.599-5.696-3.478-10.593-6.076-16.29-6.076-3.258 0-5.697 2.598-5.697 6.076 0 4.338 2.439 6.936 5.697 6.936 2.459 0 7.336 1.739 10.594 4.337 8.954 4.338 19.548 10.414 30.121 1.74 6.516-5.197 8.155-14.752 8.155-22.567.8-11.273-1.639-25.165-8.155-31.241-4.877-5.217-12.212-6.936-17.909-7.815-5.696-1.74-11.393-2.599-15.47-6.936-2.439-2.619-4.078-6.076-6.516-9.554-4.078-6.077-8.955-13.892-16.29-18.23C31.76.76 16.29 8.576 9.773 20.728z" fill="#f5bcc5" fill-rule="evenodd"/><path d="M46.972 13.132C36.438 7.935 26.724 5.317 16.19 15.73 6.456 26.124 5.637 37.397 11.313 48.65c-2.418-8.654-2.418-21.666 6.496-32.06 9.714-9.534 23.506-6.936 29.163-3.458zm44.932 44.073c6.516 2.599 8.955 4.338 9.754 16.53 1.64 12.173-.8 26.964-8.115 26.964 8.115-1.739 12.992-7.815 9.754-30.442-2.438-14.81-11.393-13.052-11.393-13.052zM14.431 99.02c7.396-2.598 19.688-6.936 22.147-23.426 0 7.815-4.098 20.828-22.147 23.426z" fill="#eaf1f7" fill-rule="evenodd"/><path d="M21.947 47.611c8.135 6.096 25.984 13.052 21.926 33.9 0-7.816-2.438-15.63-7.295-20.848-5.697-4.357-12.992-9.574-14.631-13.052zM65.2 98.06c5.697 1.74 17.91 12.073 28.483 10.354 10.574-1.719 11.373-6.036 13.812-10.353-3.238 4.317-8.935 8.634-16.25 8.634-6.516 0-21.967-8.634-26.045-8.634z" fill="#ec6d88" fill-rule="evenodd"/><path clip-path="url(#a)" d="M9.774 20.727C3.258 32.021 4.078 48.511 18.73 58.045l5.696 3.478c7.336 4.337 10.594 6.955 9.774 15.63 0 9.534-14.65 19.968-26.044 20.828-3.258.86-5.716 3.478-5.716 6.935.819 3.478 3.258 6.077 6.516 6.077 15.47-.86 37.457-14.751 37.457-33.84.82-16.49-8.135-21.707-16.27-26.903l-4.897-3.478c-8.955-5.217-8.135-13.892-4.877-19.968 3.258-6.936 11.393-11.273 21.167-5.197 4.877 2.598 8.135 8.675 12.212 13.871 2.439 4.358 4.897 8.695 8.155 12.153 6.497 6.076 13.832 7.815 21.168 9.554 4.877 1.74 9.774 2.599 13.032 5.217 1.619 1.72 4.057 11.273 3.258 20.828 0 7.815-1.64 12.152-3.258 13.012-4.078 3.478-8.955.88-17.11-2.599-5.696-3.478-10.593-6.076-16.29-6.076-3.258 0-5.697 2.598-5.697 6.076 0 4.338 2.439 6.936 5.697 6.936 2.459 0 7.336 1.739 10.594 4.337 8.954 4.338 19.548 10.414 30.121 1.74 6.516-5.197 8.155-14.752 8.155-22.567.8-11.273-1.639-25.165-8.155-31.241-4.877-5.217-12.212-6.936-17.909-7.815-5.696-1.74-11.393-2.599-15.47-6.936-2.439-2.619-4.078-6.076-6.516-9.554-4.078-6.077-8.955-13.892-16.29-18.23C31.76.76 16.29 8.576 9.773 20.728" fill="none" stroke="#333" stroke-width=".8" stroke-linecap="round" stroke-linejoin="round"/></svg>