<?xml version="1.0" encoding="UTF-8" standalone="no"?>
<!-- Generator: Adobe Illustrator 26.0.3, SVG Export Plug-In . SVG Version: 6.00 Build 0)  -->

<svg
   version="1.1"
   id="Layer_1"
   x="0px"
   y="0px"
   viewBox="0 0 223.26215 295.80685"
   xml:space="preserve"
   sodipodi:docname="Physcomitrella_patens.svg"
   width="223.26215"
   height="295.80685"
   inkscape:version="1.2-beta (1b65182ce9, 2022-04-05)"
   xmlns:inkscape="http://www.inkscape.org/namespaces/inkscape"
   xmlns:sodipodi="http://sodipodi.sourceforge.net/DTD/sodipodi-0.dtd"
   xmlns="http://www.w3.org/2000/svg"
   xmlns:svg="http://www.w3.org/2000/svg"><defs
   id="defs227" /><sodipodi:namedview
   id="namedview225"
   pagecolor="#ffffff"
   bordercolor="#000000"
   borderopacity="0.25"
   inkscape:pageshadow="2"
   inkscape:pageopacity="0.0"
   inkscape:pagecheckerboard="0"
   inkscape:deskcolor="#d1d1d1"
   showgrid="false"
   inkscape:zoom="1.1919192"
   inkscape:cx="280.63983"
   inkscape:cy="172.41102"
   inkscape:window-width="3200"
   inkscape:window-height="1261"
   inkscape:window-x="2391"
   inkscape:window-y="-9"
   inkscape:window-maximized="1"
   inkscape:current-layer="Layer_1" />
<style
   type="text/css"
   id="style2">
	.st0{fill:#8DC63F;stroke:#000000;}
	.st1{fill:#006838;}
	.st2{fill:#009444;}
	.st3{fill:none;stroke:#000000;stroke-width:2;}
	.st4{fill:none;stroke:#000000;}
	.st5{font-family:'ArialMT';}
	.st6{font-size:18px;}
	.st7{fill:none;}
	.st8{fill:#8B5E3C;}
</style>
<g
   id="g36"
   transform="translate(-348.08842,-6.5896335)">
	<path
   class="st0"
   d="m 474.8,230.1 c 0,1.2 -1,2.2 -2.2,2.2 H 468 c -1.2,0 -2.2,-1 -2.2,-2.2 v 0 c 0,-1.2 1,-2.2 2.2,-2.2 h 4.7 c 1.2,0 2.1,1 2.1,2.2 z"
   id="path4" />
	<path
   class="st0"
   d="m 483.9,230.1 c 0,1.2 -1,2.2 -2.2,2.2 H 477 c -1.2,0 -2.2,-1 -2.2,-2.2 v 0 c 0,-1.2 1,-2.2 2.2,-2.2 h 4.7 c 1.2,0 2.2,1 2.2,2.2 z"
   id="path6" />
	<path
   class="st0"
   d="m 492.9,230.1 c 0,1.2 -1,2.2 -2.2,2.2 H 486 c -1.2,0 -2.2,-1 -2.2,-2.2 v 0 c 0,-1.2 1,-2.2 2.2,-2.2 h 4.7 c 1.3,0 2.2,1 2.2,2.2 z"
   id="path8" />
	<path
   class="st0"
   d="m 502,230.1 c 0,1.2 -1,2.2 -2.2,2.2 h -4.7 c -1.2,0 -2.2,-1 -2.2,-2.2 v 0 c 0,-1.2 1,-2.2 2.2,-2.2 h 4.7 c 1.2,0 2.2,1 2.2,2.2 z"
   id="path10" />
	<path
   class="st0"
   d="m 465.8,230.1 c 0,1.2 -1,2.2 -2.2,2.2 h -4.7 c -1.2,0 -2.2,-1 -2.2,-2.2 v 0 c 0,-1.2 1,-2.2 2.2,-2.2 h 4.7 c 1.2,0 2.2,1 2.2,2.2 z"
   id="path12" />
	<path
   class="st0"
   d="m 489,222.2 c 0.7,1 0.5,2.3 -0.5,3 l -3.8,2.7 c -1,0.7 -2.3,0.5 -3,-0.5 v 0 c -0.7,-1 -0.5,-2.3 0.5,-3 l 3.8,-2.7 c 0.9,-0.7 2.2,-0.5 3,0.5 z"
   id="path14" />
	<path
   class="st0"
   d="m 496.2,217 c 0.7,1 0.5,2.3 -0.5,3 l -3.8,2.7 c -1,0.7 -2.3,0.5 -3,-0.5 v 0 c -0.7,-1 -0.5,-2.3 0.5,-3 l 3.8,-2.8 c 0.9,-0.6 2.3,-0.4 3,0.6 z"
   id="path16" />
	<path
   class="st0"
   d="m 503.5,211.7 c 0.7,1 0.5,2.3 -0.5,3 l -3.8,2.8 c -1,0.7 -2.3,0.5 -3,-0.5 v 0 c -0.7,-1 -0.5,-2.3 0.5,-3 l 3.8,-2.7 c 0.9,-0.8 2.3,-0.6 3,0.4 z"
   id="path18" />
	<path
   class="st0"
   d="m 457.8,227.9 c -1,0.6 -2.4,0.2 -3,-0.8 l -2.3,-4.1 c -0.6,-1 -0.2,-2.4 0.8,-3 v 0 c 1,-0.6 2.4,-0.2 3,0.8 l 2.3,4.1 c 0.6,1 0.2,2.4 -0.8,3 z"
   id="path20" />
	<path
   class="st0"
   d="m 447.8,213.2 c 0.9,-0.8 2.3,-0.7 3.1,0.2 l 3.1,3.5 c 0.8,0.9 0.7,2.3 -0.2,3.1 v 0 c -0.9,0.8 -2.3,0.7 -3.1,-0.2 l -3.1,-3.5 c -0.8,-0.9 -0.8,-2.2 0.2,-3.1 z"
   id="path22" />
	<path
   class="st0"
   d="m 456.7,229.6 c 0,1.2 -1,2.2 -2.2,2.2 h -4.7 c -1.2,0 -2.2,-1 -2.2,-2.2 v 0 c 0,-1.2 1,-2.2 2.2,-2.2 h 4.7 c 1.3,0 2.2,0.9 2.2,2.2 z"
   id="path24" />
	<path
   class="st0"
   d="m 447.6,229.5 c 0,1.2 -1,2.2 -2.2,2.2 h -4.7 c -1.2,0 -2.2,-1 -2.2,-2.2 v 0 c 0,-1.2 1,-2.2 2.2,-2.2 h 4.7 c 1.2,0 2.2,1 2.2,2.2 z"
   id="path26" />
	<path
   class="st0"
   d="m 438.6,229.6 c 0,1.2 -1,2.2 -2.2,2.2 h -4.7 c -1.2,0 -2.2,-1 -2.2,-2.2 v 0 c 0,-1.2 1,-2.2 2.2,-2.2 h 4.7 c 1.2,0 2.2,0.9 2.2,2.2 z"
   id="path28" />
	<path
   class="st0"
   d="m 511.4,230.1 c 0,1.2 -1,2.2 -2.2,2.2 h -4.7 c -1.2,0 -2.2,-1 -2.2,-2.2 v 0 c 0,-1.2 1,-2.2 2.2,-2.2 h 4.7 c 1.2,0 2.2,0.9 2.2,2.2 z"
   id="path30" />
	<path
   class="st0"
   d="m 429.5,229.5 c 0,1.2 -1,2.2 -2.2,2.2 h -4.7 c -1.2,0 -2.2,-1 -2.2,-2.2 v 0 c 0,-1.2 1,-2.2 2.2,-2.2 h 4.7 c 1.2,0 2.2,1 2.2,2.2 z"
   id="path32" />
	<path
   class="st0"
   d="m 520.5,230.1 c 0,1.2 -1,2.2 -2.2,2.2 h -4.7 c -1.2,0 -2.2,-1 -2.2,-2.2 v 0 c 0,-1.2 1,-2.2 2.2,-2.2 h 4.7 c 1.2,0 2.2,1 2.2,2.2 z"
   id="path34" />
</g>
<g
   id="XMLID_2_"
   transform="translate(-348.08842,-6.5896335)">
	<g
   id="g66">
		<path
   class="st1"
   d="m 472.5,126.3 c 6.03557,-0.44234 13.66327,14.66342 4.83281,7.14844 -2.03848,-1.63549 -5.15932,-5.57963 -4.83281,-7.14844 z"
   id="path38" />
		<path
   class="st2"
   d="m 484.2,40.4 c -5.02056,0.254462 -9.10527,-1.22412 -2.6,-3.6 4.75038,-6.026891 2.16878,0.555701 2.6,3.6 z"
   id="path40" />
		<path
   class="st2"
   d="m 465,185.6 c 0.19987,13.50667 -0.69995,26.99675 -0.8,40.5 -5.98942,-7.82846 -1.23617,-18.47643 -8.09219,-26.67969 -5.99562,-7.06035 -10.17926,-15.15462 -10.67656,-24.45215 2.42543,-0.36878 12.92524,5.60776 16.69531,10.25684 l 1.40567,0.44766 z"
   id="path42" />
		<path
   class="st2"
   d="m 465.5,95.1 c -2.09606,7.2406 -6.72245,20.69496 -6.8804,23.59551 0.54894,-8.94641 -0.84648,-18.42285 -0.0783,-26.460329 C 457.3696,73.348133 440.77727,60.322643 424.42969,53.845313 414.55896,48.439821 403.2668,46.956153 393.05156,42.425 c -5.10265,-0.746376 -7.12124,-2.817469 -0.73608,-1.950732 18.86612,0.06565 38.99338,-1.754979 56.24077,7.405419 6.38546,5.391285 10.33156,13.096068 16.80625,18.482813 8.42646,8.144906 1.01251,19.332981 0.1375,28.7375 z"
   id="path44" />
		<path
   class="st2"
   d="m 476.6,139.7 c -3.54813,-4.05019 -3.1935,-15.19925 -0.46406,-5.42813 0.0688,1.81542 0.22948,3.62683 0.46406,5.42813 z"
   id="path46" />
		<path
   class="st2"
   d="m 460.3,141.1 c -4.61025,-11.16818 -3.02825,-23.39998 -5.97148,-34.68926 C 445.66337,93.327127 436.84751,80.235966 427.5125,67.6 c -3.02365,-4.812497 -15.87207,-8.985231 -3.99905,-7.460986 7.29157,3.715839 14.41061,7.95339 21.54905,12.035986 13.56531,8.657691 13.49721,26.37481 13.52087,40.68574 -0.56068,9.48884 -1.43908,18.45296 2.37913,27.40176 0.36492,2.99345 1.62922,7.34026 -0.6625,0.8375 z"
   id="path48" />
		<path
   class="st2"
   d="m 473.5,124 c 8.15537,-6.10339 12.84204,-15.95969 21.95286,-20.83 13.0509,-7.092436 28.14726,-7.608709 42.10027,-11.748125 3.95764,-1.105466 10.75251,-7.541065 6.925,0.261133 -6.31405,11.522752 -20.98616,12.671332 -31.03086,19.575392 -10.29435,4.59019 -22.49963,7.8098 -28.28731,18.50781 C 481.87326,140.67735 479.37702,126.3711 472.6,126.3 l 0.3,-1.1875 z"
   id="path50" />
		<path
   class="st2"
   d="m 473.5,124 c -0.59008,-13.93597 -0.32279,-27.987601 3.37179,-41.513905 6.9711,-10.002315 16.38642,-18.586223 26.27567,-25.779821 C 517.4968,47.105726 535.59865,47.118606 552.1,49.2 c 4.07096,-0.785195 14.94782,-2.366184 5.93906,2.184961 -10.5682,1.586179 -16.35605,11.640094 -26.42168,14.278516 -11.72546,2.660248 -20.68275,10.572294 -29.53821,18.156671 C 488.25201,93.345392 473.67842,105.68368 473.5,124 Z"
   id="path52" />
		<path
   class="st2"
   d="m 464.5,171.9 c 1.83612,10.69163 -2.32603,-5.9787 -8.40273,-5.97422 -5.77373,-8.45324 -8.76976,-19.04158 -11.2211,-29.04238 -3.55007,-13.42495 -6.07955,-27.46355 -4.5717,-41.356911 1.99417,-7.170386 1.32939,8.010571 3.86155,10.680741 3.82871,9.96344 -1.53388,22.36299 7.19336,30.68027 3.33243,10.02908 14.42998,14.61387 12.53308,26.27617 0.23972,2.90938 0.43354,5.82235 0.60754,8.73633 z"
   id="path54" />
		<path
   class="st2"
   d="m 464.2,226.1 c 0.21336,-16.06632 1.31116,-32.29643 0.70586,-48.17676 -2.2055,-8.6012 9.60003,-12.00649 11.02851,-20.97949 3.77253,-6.672 -2.11579,-21.42634 1.28438,-23.65156 8.13268,4.90942 13.84464,13.32377 13.72185,23.04819 2.63697,12.23715 -15.04673,12.43405 -13.69372,23.58774 0.60139,13.31836 -0.0969,27.26692 0.45312,40.27188 -1.23949,7.17011 0.40234,13.28352 -8.8625,10.82109 -4.83336,0.25475 -5.66471,0.61754 -4.6375,-4.92109 z"
   id="path56" />
		<path
   class="st2"
   d="m 464.5,171.9 c -1.04383,-14.60638 -2.05493,-29.50981 -6.84688,-43.40781 0.36346,-11.01659 3.79214,-21.62338 7.49454,-31.939846 0.88592,-5.926636 10.81515,-11.980293 11.52265,-13.352344 -3.81611,13.311507 -3.78894,27.17529 -3.27031,40.9 -3.03661,6.31236 4.49088,14.43787 3.62812,22.60156 1.30525,8.73436 -3.59443,17.34022 -9.32812,23.09844 l -1.4875,1.125 z"
   id="path58" />
		<path
   class="st2"
   d="m 469.3,74.8 c -0.84312,-13.722941 1.04647,-27.372623 0.6,-41.1 2.18297,4.42965 11.01135,6.483413 14.22969,8.067187 -2.1028,6.62389 -7.02299,11.504057 -3.95489,17.065821 -1.47805,9.129097 0.0259,20.804741 -6.5748,27.666992 -4.72593,1.046287 -9.803,14.10122 -7.23125,3.48125 1.513,-4.958335 3.19858,-9.909075 2.93125,-15.18125 z"
   id="path60" />
		<path
   class="st2"
   d="m 478.6,217.4 c -1.68771,7.07409 -0.76812,-3.87769 -1,-6.22705 0.0602,-4.31544 -0.88779,-8.56083 2.73281,-10.69639 8.52051,-3.727 16.20019,-10.86808 26.10899,-10.50097 8.47136,2.0306 25.61375,-3.15716 28.19824,6.75 -8.47146,6.16756 -20.80291,-0.0244 -30.72754,2.9541 -9.16476,3.25928 -17.51254,9.83238 -24.06406,16.92344 0.1257,1.95141 -0.6488,1.10215 -1.24844,0.79687 z"
   id="path62" />
		<path
   class="st2"
   d="m 469.4,52.8 c -1.40677,-7.883166 -6.98318,-14.743225 -8.87344,-22.785938 -3.11184,-5.608599 -4.96217,-17.926543 -5.58066,-19.88496 10.00647,5.358255 18.49933,13.460061 25.08222,22.633398 4.99154,8.778411 -9.12597,6.827812 -9.8815,0.9375 -0.859,5.619941 0.10725,13.068803 -0.74662,19.1 z"
   id="path64" />
	</g>
	<g
   id="g120">
		<path
   class="st3"
   d="m 478.7,203.8 c 4.33369,-7.40559 14.8214,-10.18452 22.57671,-13.5386 10.73424,-0.91546 22.02118,-0.38262 32.40141,2.2261 3.74716,10.95731 -15.00702,5.30453 -21.45908,6.30505 -10.93421,-1.44648 -18.92061,6.59268 -27.13779,12.28245 -2.56287,2.16515 -6.36777,4.89608 -5.78125,8.725"
   id="path68" />
		<path
   class="st3"
   d="m 477.6,220.3 c 0.0918,-14.50001 -0.14116,-29.02428 0,-43.5 3.23141,-8.30896 17.41715,-11.49454 13.16223,-23.53159 -0.32465,-10.32476 -8.85006,-16.23377 -15.84973,-22.25591 -9.21303,-11.08491 7.2162,-0.39766 7.3875,4.5875"
   id="path70" />
		<path
   class="st3"
   d="m 468.3,169.7 c 5.68402,-6.98929 10.56451,-15.51179 8.7,-24.9 -0.28847,-4.1365 -0.97355,-8.24537 -1,-12.4"
   id="path72" />
		<path
   class="st3"
   d="m 444.8,173.9 c 1.96326,8.62357 3.62185,17.62526 10.50046,24.19561 3.71917,5.83147 6.17748,12.71516 5.79954,19.70439"
   id="path74" />
		<path
   class="st3"
   d="m 444.8,173.9 c -0.16667,-0.23333 -0.16667,-0.23333 0,0 z"
   id="path76" />
		<path
   class="st3"
   d="m 463.2,152.6 c -8.44929,-7.20494 -14.70825,-17.92911 -17.21172,-28.73223 1.11099,-9.3674 -3.61526,-27.189245 -5.27226,-29.503903 -1.67874,10.150813 -0.28124,20.719533 1.44221,30.796753 2.59828,10.04056 3.98069,20.46903 8.64021,29.84094 0.12733,11.74292 16.10019,13.33732 14.55332,25.44942 0.28272,13.48163 -12.1293,-6.62625 -19.41914,-5.65157 L 444.9,173.9"
   id="path78" />
		<path
   class="st3"
   d="m 458.5,122.6 c -0.34063,-14.85469 2.05907,-31.507321 -6.93828,-44.388672 -6.57661,-8.456431 -17.43288,-11.127309 -25.8228,-17.208227 -3.63421,-2.194905 -12.57371,-1.050267 -4.29712,1.275122 10.33526,7.655459 15.65385,20.000977 23.3457,30.020825 6.56795,8.424112 13.42138,17.717422 11.225,29.075952 0.6661,10.59979 5.75792,20.40599 7.1875,30.625"
   id="path80" />
		<path
   class="st3"
   d="m 476.6,153.6 c 2.09044,-8.80537 -1.2896,-15.67573 -3.2,-23.8"
   id="path82" />
		<path
   class="st3"
   d="m 480.2,53.9 c 0.33504,16.210668 -4.79812,31.785814 -6.68818,47.71123 -0.49694,7.72322 0.0122,15.45993 -0.0118,23.18877"
   id="path84" />
		<path
   class="st3"
   d="m 473.5,125.7 c -0.83507,-17.39143 12.37083,-30.841577 25.669,-39.993039 9.62567,-6.654803 17.41631,-16.460734 29.356,-19.119461 10.23613,-1.656076 16.05421,-11.239001 25.62031,-14.017773 7.96133,-1.42418 9.37419,-7.021135 0.57344,-3.766602 -11.35599,0.07913 -22.9318,-2.581859 -34.16814,0.651465 -17.87506,3.162632 -30.86024,17.298028 -42.24788,30.37666 -1.57977,2.041869 -3.07541,4.153048 -4.40273,6.36875"
   id="path86" />
		<path
   class="st3"
   d="m 480.7,137.6 c 4.46495,-10.53168 12.83726,-19.44825 24.03413,-22.70574 10.02959,-4.12 19.52612,-9.37912 29.49087,-13.66926 5.23791,-1.663076 13.03517,-11.094528 10.38599,-13.510895 -12.67685,8.289268 -28.8353,6.26866 -42.39515,12.503615 C 491.52035,102.59968 485.83516,111.92097 478.6,119 c -2.67347,2.01857 -5.50892,4.34512 -6.2,7.8"
   id="path88" />
		<path
   class="st3"
   d="m 478.7,55.4 c 0.80744,-7.241063 7.94259,-13.050814 5.5,-21.2 -1.86037,3.144498 -5.73046,3.761055 -8.2,6.2"
   id="path90" />
		<path
   class="st3"
   d="m 471.4,32.7 c -0.71609,6.567683 8.22155,7.722674 12.9,7.8"
   id="path92" />
		<path
   class="st3"
   d="m 458,127.8 c -0.47747,-11.43848 4.38312,-21.96891 7.4,-32.7 1.44607,-9.121794 5.05421,-17.988256 3.68574,-27.440234 C 468.64452,56.323161 470.37075,45.06353 469.8,33.7"
   id="path94" />
		<path
   class="st3"
   d="M 469.4,75.1 C 468.52391,65.745797 458.53848,61.595448 454.3259,53.955981 447.84389,43.738819 434.48588,42.941639 423.72061,40.918188 411.61357,39.848984 399.4368,40.730513 387.3,40.4 c 9.96087,4.06799 20.50807,6.838706 30.68328,10.470337 15.41478,6.530522 32.38081,14.933926 38.49016,31.754663 1.55281,4.16492 2.27679,8.632795 2.12656,13.075"
   id="path96" />
		<path
   class="st3"
   d="m 453.7,9.4 c 3.73122,9.19544 5.33526,19.398817 9.69763,28.632104 1.11728,5.322157 6.28096,9.189927 5.90237,14.767896"
   id="path98" />
		<path
   class="st3"
   d="m 453.7,9.4 c -3.86836,-2.367396 -2.95493,-2.7574145 0,0 z"
   id="path100" />
		<path
   class="st3"
   d="M 481.8,39.4 C 481.2711,29.90042 472.2635,23.92247 466.08828,17.718945 462.49582,14.257347 458.12228,11.967215 453.9,9.4"
   id="path102" />
		<path
   class="st3"
   d="m 464.2,230.7 c 0.47405,-28.17223 2.28472,-56.56123 -2.4875,-84.5 0.40854,-6.95172 -4.36527,-13.27678 -3.8125,-19.9"
   id="path104" />
		<path
   class="st3"
   d="m 460.6,214.1 c -1.48186,6.59519 4.343,10.67755 5.1,16.5"
   id="path106" />
		<path
   class="st3"
   d="m 478.7,217.2 c -1.224,4.04505 -1.48542,8.32164 -2.6,12.4"
   id="path108" />
		<path
   class="st3"
   d="m 478.2,202.2 c -1.16233,1.63127 -1.03194,3.74571 -1.5,5.6"
   id="path110" />
		<path
   class="st3"
   d="m 463.7,172.2 c 1.45687,-0.71063 2.90072,-1.48825 4.1,-2.6"
   id="path112" />
		<path
   class="st3"
   d="m 482.3,134 c -0.33327,1.61146 0.0795,3.34163 1,4.7"
   id="path114" />
		<path
   class="st3"
   d="m 473.5,86.4 c -3.80605,1.654713 -6.36968,5.769254 -8.3,9.3"
   id="path116" />
		<path
   class="st3"
   d="m 463.7,231.2 c 2.64251,-1.06552 16.21414,2.53239 12.4,-2.6"
   id="path118" />
	</g>
</g>
<line
   class="st4"
   x1="24.111588"
   y1="13.110367"
   x2="24.111588"
   y2="211.51038"
   id="line123" />
<line
   class="st4"
   x1="24.111588"
   y1="236.11037"
   x2="24.111588"
   y2="285.01038"
   id="line125" />
<text
   transform="rotate(-90)"
   class="st5 st6"
   id="text127"
   x="-183.13696"
   y="13.359375">GAMETOPHORE</text>
<text
   transform="rotate(-90)"
   class="st5 st6"
   id="text129"
   x="-297.56467"
   y="13.359375">RHIZOID</text>
<rect
   x="198.8116"
   y="156.11037"
   class="st7"
   width="24"
   height="137"
   id="rect131" />
<text
   transform="rotate(90)"
   class="st5 st6"
   id="text133"
   x="166.57927"
   y="-209.90277">PROTONEMA</text>
<path
   class="st4"
   d="m 125.11158,90.810366 c 11,-17.3 30,-30 48,-37"
   id="path135" />
<path
   class="st4"
   d="m 76.111575,39.810366 c 13,0.1 16.5,5.5 23.8,15.3 5.000005,6.8 18.300005,17.8 16.200005,26.7"
   id="path137" />
<path
   class="st4"
   d="m 111.11158,14.810366 c 2.5,4.9 8.1,7.3 10,12"
   id="path139" />
<path
   class="st4"
   d="m 130.11158,123.81037 c -1.9,-15 37.9,-29.100004 49,-32.000004"
   id="path141" />
<path
   class="st4"
   d="m 103.11158,177.81037 c 8.7,5.5 7.6,16.1 13,24"
   id="path143" />
<path
   class="st4"
   d="m 130.11158,202.81037 c 5.13432,-0.0956 9.38877,-3.27434 12.56464,-7.04045 3.72376,-4.28368 9.3594,-6.31456 14.961,-6.06187 4.16273,-0.0825 8.41454,0.22822 12.47435,-0.89768"
   id="path145" />
<g
   id="XMLID_3_"
   transform="translate(-348.08842,-6.5896335)">
	<g
   id="g181">
		<path
   class="st8"
   d="m 479.5,245 c -2.11227,4.16308 -3.7985,-0.0102 -3.46094,-2.70625 -0.64512,-4.76657 -4.65819,-8.78285 -3.62187,-13.83125 0.64419,-3.89028 2.97355,3.87908 3.57148,5.49727 0.67858,3.9126 1.51355,7.60683 3.51133,11.04023 z"
   id="path147" />
		<path
   class="st8"
   d="m 479.1,275.6 c -1.06934,-3.39507 -4.63678,-8.09492 -4.7,-12.4 2.29759,-4.23315 3.31351,3.98131 3.83613,6.09785 0.33697,2.28067 2.79458,3.94164 0.86387,6.30215 z"
   id="path149" />
		<path
   class="st8"
   d="m 450.8,262.4 c 3.8539,-0.55413 0.50353,5.78764 -0.91094,8.23906 -0.0152,2.30425 -3.56561,5.14051 -2.99844,1.21094 0.69802,-3.37241 2.76639,-6.24608 3.90938,-9.45 z"
   id="path151" />
		<path
   class="st8"
   d="m 473.9,255.1 c 0.16123,2.13244 3.1188,7.58202 0.0428,7.95918 -1.91207,-3.52598 -2.62847,-7.61056 -3.6832,-11.45566 -1.03998,-2.58917 1.03348,-8.02306 2.44043,-3.44102 0.19652,2.35524 0.61543,4.64825 1.2,6.9375 z"
   id="path153" />
		<path
   class="st8"
   d="m 463.1,237.4 c 1.42131,4.51623 -1.38818,8.47143 -2.65342,12.66479 -0.19117,3.09643 -5.12751,4.09486 -3.40908,0.26021 2.16129,-2.71359 2.5065,-6.44492 4.4832,-9.3457 0.54848,-1.15773 0.92003,-2.58005 1.5793,-3.5793 z"
   id="path155" />
		<path
   class="st8"
   d="m 470,229.2 c 4.16703,1.15457 1.63406,7.68904 2.15605,11.06914 0.41509,1.75136 0.0569,8.46368 -1.92761,5.30474 0.25729,-4.43699 -0.91065,-9.65342 -0.18625,-13.44888 -0.0422,-0.97439 -0.0422,-1.94991 -0.0422,-2.925 z"
   id="path157" />
		<path
   class="st8"
   d="m 467.9,230.8 c 0.62618,-4.77068 2.88883,3.34646 1.08281,4.89687 -1.02458,2.84781 -1.03863,7.92058 -2.71875,9.40469 -1.12228,-3.78839 0.71489,-7.9145 0.71836,-11.85117 0.1801,-0.8558 0.46441,-1.69803 0.91758,-2.45039 z"
   id="path159" />
		<path
   class="st8"
   d="m 488.2,284.7 c -2.44399,4.05169 -4.67967,-3.75274 -6.22656,-5.60312 -1.75607,-2.2262 -3.46378,-3.66968 -2.17344,-6.59688 3.40496,3.25258 5.41528,7.53803 7.79707,11.50566 z"
   id="path161" />
		<path
   class="st8"
   d="m 452.7,262.6 c -3.4555,-0.50166 1.07128,-6.36675 1.39453,-8.77793 0.59369,-3.27896 3.74708,-3.13404 3.29004,0.1668 -0.85387,3.12909 -2.89237,5.94896 -4.68457,8.61113 z"
   id="path163" />
		<path
   class="st8"
   d="m 488.3,268.5 c 2.10047,-2.95138 4.49816,3.0003 6.1166,5.10391 3.37282,0.81054 3.14112,10.50409 -0.004,4.67109 -1.31109,-4.11066 -7.15864,-5.16299 -6.1125,-9.775 z"
   id="path165" />
		<path
   class="st8"
   d="m 450.6,291 c 0.1044,-4.19499 5.71563,-5.12973 8.4,-6.9 0.41833,2.68337 0.74569,3.5531 -2.07031,4.2875 -1.18044,1.31771 -5.0891,5.92291 -6.32969,2.6125 z"
   id="path167" />
		<path
   class="st8"
   d="m 485.7,265.1 c -1.5803,-1.99211 -4.24682,-3.05084 -1.6375,-4.775 0.10861,-2.19263 0.12888,-3.27918 1.41367,-0.70371 1.19075,2.91084 4.92993,7.21853 2.82383,9.60757 0.18457,4.13081 -2.26001,-3.61317 -2.6,-4.12886 z"
   id="path169" />
		<path
   class="st8"
   d="m 463.3,262.2 c 0.14027,-2.06927 1.51077,-5.95756 2.68672,-2.6957 -0.36152,5.16076 -0.8072,10.31827 -0.88672,15.4957 -3.50439,-1.84285 -0.92149,-7.97248 -1.88281,-11.56719 l 0.0256,-0.62402 z"
   id="path171" />
		<path
   class="st8"
   d="m 465,258.5 c -1.86756,-3.14855 0.75027,-8.19204 0.1998,-12.13809 -0.0912,-1.78384 0.35538,-4.62216 1.10645,-1.27441 1.70168,3.30554 -0.0247,7.67122 -0.10625,11.3125 -0.0196,0.71827 0.22494,2.89577 -1.2,2.1 z"
   id="path173" />
		<path
   class="st8"
   d="m 479.2,250.2 c -2.87998,-1.70844 -1.65559,-3.92259 0.4,-5.3 1.60075,4.94142 5.37598,9.42336 4.4332,14.91621 -1.84907,5.01553 -3.47364,-3.32184 -3.3332,-5.31621 -0.24861,-1.49949 -0.54972,-3.06533 -1.5,-4.3 z"
   id="path175" />
		<path
   class="st8"
   d="m 462.8,280.5 c -0.79658,1.48582 -3.16919,9.74498 -3.94688,4.44687 -0.20013,-3.77529 3.46028,-6.31081 3.74063,-10.09999 0.67314,-3.41642 0.23805,-0.69438 2.00625,0.15312 -0.26399,1.92137 -0.60677,3.9043 -1.8,5.5 z"
   id="path177" />
		<path
   class="st8"
   d="m 466.3,229.5 c 1.36878,-1.53773 1.33612,-5.31059 1.86563,-1.24844 -0.81527,3.92103 -3.20818,7.7996 -4.66563,11.74844 -1.30628,-3.5801 1.08916,-7.4837 2.8,-10.5 z"
   id="path179" />
	</g>
	<g
   id="g219">
		<path
   class="st4"
   d="m 467.8,226.1 c 1.55428,4.20299 -2.35626,7.35792 -3.09062,11.38281 -0.66283,1.98073 -1.63509,3.4764 -1.64532,0.43438 0.16936,-4.44228 3.49606,-7.85993 4.63594,-11.91719"
   id="path183" />
		<path
   class="st4"
   d="m 462.9,237.4 c -1.32698,3.86143 -3.70132,7.25534 -4.73906,11.21719 -2.19169,1.16822 -1.81912,6.35983 0.96347,3.66367 1.85024,-3.6975 3.69874,-7.67805 4.27461,-11.77344 0.001,-0.3358 8.7e-4,-0.67161 9.8e-4,-1.00742"
   id="path185" />
		<path
   class="st4"
   d="m 456.2,251.2 c -2.51065,2.70909 -5.19889,7.84367 -4.35781,11.58281 2.93292,-1.76545 4.93063,-6.49458 5.65781,-10.02576 V 252.7"
   id="path187" />
		<path
   class="st4"
   d="m 450.8,262.4 c -0.99069,3.73093 -4.44859,7.14386 -3.66284,11.16321 2.94149,0.19761 3.59902,-5.82124 5.26557,-8.13469 0.28644,-1.08379 0.40399,-2.20926 0.39727,-3.32852"
   id="path189" />
		<path
   class="st4"
   d="m 469.6,232.5 c -0.0476,-1.36924 -1.01253,-2.52924 -1,-3.9"
   id="path191" />
		<path
   class="st4"
   d="m 467.9,230.8 c -1.86447,3.8855 -1.41105,8.43285 -2.2,12.6 0.97811,4.67876 2.22584,-3.44396 2.54492,-5.18789 0.13699,-1.88706 1.32839,-3.5141 1.35508,-5.41211"
   id="path193" />
		<path
   class="st4"
   d="m 465.2,243.4 c -0.16504,4.77809 -0.31404,9.5788 -1.13906,14.28125 3.3227,2.9243 2.15545,-5.56702 2.79375,-7.70625 -0.009,-1.4396 0.50554,-3.00756 -0.15469,-4.375"
   id="path195" />
		<path
   class="st4"
   d="m 464.2,258.1 c -1.15867,3.49925 -1.1002,7.17065 -1.05273,10.8543 -1.0005,1.8503 1.37309,8.9862 1.80964,4.21184 0.0606,-5.10262 0.67967,-10.17403 0.84309,-15.26614"
   id="path197" />
		<path
   class="st4"
   d="m 463.2,272.9 c -0.62088,3.65907 -2.1712,7.03904 -4.11094,10.09941 -0.68362,1.96345 0.47701,6.27428 1.85879,2.33399 1.24668,-3.87394 3.9181,-7.20477 3.85215,-11.4334"
   id="path199" />
		<path
   class="st4"
   d="m 458.6,284 c -2.52272,1.9578 -11.04166,4.65805 -6.66406,8.26387 3.16604,-1.07593 4.58548,-4.31474 7.66406,-5.36387"
   id="path201" />
		<path
   class="st4"
   d="m 469.6,232.1 c -0.0124,4.77219 0.72353,9.52425 0.5,14.3 4.10007,-0.38539 0.9482,-7.16261 2.09119,-10.12681 0.29473,-1.89626 0.1526,-8.2743 -2.29119,-6.58728 0,1.13803 0,2.27606 0,3.41409"
   id="path203" />
		<path
   class="st4"
   d="m 470.4,246.1 c -0.38299,3.46238 -0.0775,6.94354 1.22754,10.19863 0.71043,1.73758 1.4825,8.57532 3.73027,6.017 -0.13351,-4.81166 -2.46,-9.31973 -2.48281,-14.17813 -0.13161,-0.8001 -0.39852,-1.62998 -1.075,-2.1375"
   id="path205" />
		<path
   class="st4"
   d="m 474.6,263.2 c -0.22928,4.5478 3.65668,8.91396 4.6,12.4 1.60647,-4.10825 -2.00804,-8.33627 -2.40645,-12.67109 -0.25866,-0.52463 -0.57148,-1.15838 -1.19355,-1.32891"
   id="path207" />
		<path
   class="st4"
   d="m 479.1,275.4 c 2.83752,2.98836 4.39943,7.07819 6.9125,10.4 4.29954,1.0563 -0.20277,-4.13409 -0.92031,-6.09063 -1.61817,-2.58936 -3.4886,-5.09377 -5.59219,-7.30937"
   id="path209" />
		<path
   class="st4"
   d="m 472.3,230.8 c 0.41982,4.80367 4.14444,8.66656 4.00098,13.61563 0.0161,5.35299 5.69765,-0.56222 1.66093,-2.69981 -1.74596,-4.23285 -1.4779,-9.19859 -4.11875,-13.12109 -1.50292,-5.11561 -1.50243,1.3252 -1.54316,2.80527"
   id="path211" />
		<path
   class="st4"
   d="m 477.4,247.1 c 1.88891,3.35841 3.97032,6.93624 3.825,11.2125 -0.30699,2.69479 3.05136,4.98826 2.88594,0.9125 0.48483,-5.28989 -2.92469,-9.54738 -4.51094,-14.325"
   id="path213" />
		<path
   class="st4"
   d="m 482.5,261.4 c 2.74398,2.22192 4.17912,6.81953 5.7,8.85705 0.16252,-2.35782 1.47709,-3.74333 -0.59219,-6.40236 -1.01695,-2.16314 -2.07412,-4.33092 -3.50781,-6.25469"
   id="path215" />
		<path
   class="st4"
   d="m 488.2,270 c 1.58204,3.724 5.69714,6.05193 7.66094,9.95469 2.7149,0.4401 0.30682,-6.1992 -1.92359,-7.16153 -1.31988,-1.9326 -2.18821,-4.58144 -4.53735,-5.49316"
   id="path217" />
	</g>
</g>
<line
   class="st4"
   x1="197.61159"
   y1="209.51038"
   x2="197.61159"
   y2="231.21037"
   id="line222" />
</svg>
