<?xml version="1.0" encoding="UTF-8" standalone="no"?>
<svg
   xmlns:dc="http://purl.org/dc/elements/1.1/"
   xmlns:cc="http://creativecommons.org/ns#"
   xmlns:rdf="http://www.w3.org/1999/02/22-rdf-syntax-ns#"
   xmlns:svg="http://www.w3.org/2000/svg"
   xmlns="http://www.w3.org/2000/svg"
   xmlns:xlink="http://www.w3.org/1999/xlink"
   id="svg1198"
   version="1.1"
   viewBox="0 0 100 100"
   height="100mm"
   width="100mm">
  <defs
     id="defs1192">
    <linearGradient
       gradientTransform="matrix(1.0257653,1.5258632e-8,2.3727065e-8,0.93674538,-51.590699,178.46295)"
       gradientUnits="userSpaceOnUse"
       y2="170.3268"
       x2="-167.15363"
       y1="170.3268"
       x1="-182.47626"
       id="linearGradient14619"
       xlink:href="#linearGradient14625" />
    <linearGradient
       id="linearGradient14625">
      <stop
         style="stop-color:#bdcdd4;stop-opacity:1"
         offset="0"
         id="stop14621" />
      <stop
         style="stop-color:#bdcdd4;stop-opacity:1"
         offset="1"
         id="stop14623" />
    </linearGradient>
  </defs>
  <metadata
     id="metadata1195">
    <rdf:RDF>
      <cc:Work
         rdf:about="">
        <dc:format>image/svg+xml</dc:format>
        <dc:type
           rdf:resource="http://purl.org/dc/dcmitype/StillImage" />
        <dc:title></dc:title>
      </cc:Work>
    </rdf:RDF>
  </metadata>
  <g
     transform="translate(0,-197)"
     id="layer1">
    <g
       transform="matrix(3.973768,0,0,3.973768,-130.55141,-845.05752)"
       id="g3488">
      <rect
         transform="matrix(0.9624445,-0.27147853,0.79270702,0.60960281,0,0)"
         y="346.59357"
         x="-250.60945"
         height="11.634372"
         width="14.548869"
         id="rect14484"
         style="opacity:1;fill:#ffffff;fill-opacity:1;stroke:#364e59;stroke-width:1.11670053;stroke-linecap:round;stroke-linejoin:round;stroke-miterlimit:4;stroke-dasharray:none;stroke-dashoffset:0;stroke-opacity:1;paint-order:stroke markers fill" />
      <rect
         style="opacity:1;fill:#ffffff;fill-opacity:1;stroke:#364e59;stroke-width:1.11670053;stroke-linecap:round;stroke-linejoin:round;stroke-miterlimit:4;stroke-dasharray:none;stroke-dashoffset:0;stroke-opacity:1;paint-order:stroke markers fill"
         id="rect14482"
         width="14.548869"
         height="11.634372"
         x="-246.46774"
         y="341.79526"
         transform="matrix(0.9624445,-0.27147853,0.79270702,0.60960281,0,0)" />
      <rect
         transform="matrix(0.9624445,-0.27147853,0.79270702,0.60960281,0,0)"
         y="336.99692"
         x="-242.32597"
         height="11.634372"
         width="14.548869"
         id="rect14480"
         style="opacity:1;fill:#ffffff;fill-opacity:1;stroke:#364e59;stroke-width:1.11670053;stroke-linecap:round;stroke-linejoin:round;stroke-miterlimit:4;stroke-dasharray:none;stroke-dashoffset:0;stroke-opacity:1;paint-order:stroke markers fill" />
      <rect
         style="opacity:1;fill:url(#linearGradient14619);fill-opacity:1;stroke:#364e59;stroke-width:1.11670053;stroke-linecap:round;stroke-linejoin:round;stroke-miterlimit:4;stroke-dasharray:none;stroke-dashoffset:0;stroke-opacity:1;paint-order:stroke markers fill"
         id="rect14468"
         width="14.548869"
         height="11.634372"
         x="-238.18425"
         y="332.19861"
         transform="matrix(0.9624445,-0.27147853,0.79270702,0.60960281,0,0)" />
      <g
         transform="matrix(0.76147308,-0.01109776,0.05561203,0.75955753,-12.460909,172.77261)"
         id="g14534"
         style="fill:#ffffff">
        <g
           aria-label="0101001 10101100 0101001 "
           transform="matrix(0.15332613,-0.04077346,0.13523602,0.12820604,-16.131749,68.919709)"
           style="font-style:normal;font-variant:normal;font-weight:normal;font-stretch:normal;font-size:18.66666603px;line-height:1.25;font-family:'Roboto Slab';-inkscape-font-specification:'Roboto Slab';text-align:center;letter-spacing:0px;word-spacing:0px;text-anchor:middle;fill:#ffffff;fill-opacity:1;stroke:none"
           id="g14532">
          <path
             d="m 86.542644,468.19759 q 0,2.54296 -1.130208,3.90104 -1.130209,1.34896 -3.089844,1.34896 -1.950521,0 -3.089844,-1.35808 -1.139322,-1.35807 -1.139322,-3.89192 v -3.14453 q 0,-2.53386 1.130208,-3.89193 1.130208,-1.36719 3.080729,-1.36719 1.959635,0 3.098958,1.36719 1.139323,1.35807 1.139323,3.89193 z m -1.795573,-3.52735 q 0,-1.72265 -0.628906,-2.58854 -0.619792,-0.875 -1.813802,-0.875 -1.175781,0 -1.795573,0.875 -0.619792,0.86589 -0.619792,2.58854 v 3.89193 q 0,1.72266 0.628907,2.60677 0.628906,0.875 1.804687,0.875 1.19401,0 1.804688,-0.875 0.619791,-0.875 0.619791,-2.60677 z"
             id="path14488"
             style="fill:#ffffff" />
          <path
             d="m 88.739259,472.10774 2.050781,-0.25521 v -9.94401 l -2.08724,0.0365 v -1.12109 l 3.882813,-0.83854 v 11.86718 l 2.041666,0.25521 v 1.14844 h -5.88802 z"
             id="path14490"
             style="fill:#ffffff" />
          <path
             d="m 104.88119,468.19759 q 0,2.54296 -1.13021,3.90104 -1.13021,1.34896 -3.08985,1.34896 -1.950518,0 -3.089841,-1.35808 -1.139322,-1.35807 -1.139322,-3.89192 v -3.14453 q 0,-2.53386 1.130208,-3.89193 1.130208,-1.36719 3.080725,-1.36719 1.95964,0 3.09896,1.36719 1.13933,1.35807 1.13933,3.89193 z m -1.79558,-3.52735 q 0,-1.72265 -0.6289,-2.58854 -0.6198,-0.875 -1.81381,-0.875 -1.175777,0 -1.795569,0.875 -0.619792,0.86589 -0.619792,2.58854 v 3.89193 q 0,1.72266 0.628907,2.60677 0.628906,0.875 1.804684,0.875 1.19401,0 1.80469,-0.875 0.61979,-0.875 0.61979,-2.60677 z"
             id="path14492"
             style="fill:#ffffff" />
          <path
             d="m 107.0778,472.10774 2.05078,-0.25521 v -9.94401 l -2.08724,0.0365 v -1.12109 l 3.88281,-0.83854 v 11.86718 l 2.04167,0.25521 v 1.14844 h -5.88802 z"
             id="path14494"
             style="fill:#ffffff" />
          <path
             d="m 123.21973,468.19759 q 0,2.54296 -1.13021,3.90104 -1.13021,1.34896 -3.08985,1.34896 -1.95052,0 -3.08984,-1.35808 -1.13932,-1.35807 -1.13932,-3.89192 v -3.14453 q 0,-2.53386 1.13021,-3.89193 1.1302,-1.36719 3.08072,-1.36719 1.95964,0 3.09896,1.36719 1.13933,1.35807 1.13933,3.89193 z m -1.79558,-3.52735 q 0,-1.72265 -0.6289,-2.58854 -0.61979,-0.875 -1.81381,-0.875 -1.17578,0 -1.79557,0.875 -0.61979,0.86589 -0.61979,2.58854 v 3.89193 q 0,1.72266 0.62891,2.60677 0.6289,0.875 1.80468,0.875 1.19401,0 1.80469,-0.875 0.61979,-0.875 0.61979,-2.60677 z"
             id="path14496"
             style="fill:#ffffff" />
          <path
             d="m 133.86556,468.19759 q 0,2.54296 -1.13021,3.90104 -1.13021,1.34896 -3.08984,1.34896 -1.95052,0 -3.08985,-1.35808 -1.13932,-1.35807 -1.13932,-3.89192 v -3.14453 q 0,-2.53386 1.13021,-3.89193 1.13021,-1.36719 3.08073,-1.36719 1.95963,0 3.09896,1.36719 1.13932,1.35807 1.13932,3.89193 z m -1.79557,-3.52735 q 0,-1.72265 -0.62891,-2.58854 -0.61979,-0.875 -1.8138,-0.875 -1.17578,0 -1.79558,0.875 -0.61979,0.86589 -0.61979,2.58854 v 3.89193 q 0,1.72266 0.62891,2.60677 0.6289,0.875 1.80469,0.875 1.19401,0 1.80468,-0.875 0.6198,-0.875 0.6198,-2.60677 z"
             id="path14498"
             style="fill:#ffffff" />
          <path
             d="m 136.06218,472.10774 2.05078,-0.25521 v -9.94401 l -2.08724,0.0365 v -1.12109 l 3.88281,-0.83854 v 11.86718 l 2.04167,0.25521 v 1.14844 h -5.88802 z"
             id="path14500"
             style="fill:#ffffff" />
          <path
             d="m 74.247072,495.44109 2.050781,-0.25521 v -9.94401 l -2.08724,0.0365 v -1.1211 l 3.882813,-0.83854 v 11.86719 l 2.041666,0.25521 v 1.14843 h -5.88802 z"
             id="path14502"
             style="fill:#ffffff" />
          <path
             d="m 90.388998,491.53093 q 0,2.54297 -1.130208,3.90104 -1.130209,1.34896 -3.089844,1.34896 -1.950521,0 -3.089844,-1.35807 -1.139322,-1.35808 -1.139322,-3.89193 v -3.14453 q 0,-2.53386 1.130208,-3.89193 1.130208,-1.36719 3.080729,-1.36719 1.959635,0 3.098958,1.36719 1.139323,1.35807 1.139323,3.89193 z m -1.795573,-3.52734 q 0,-1.72266 -0.628906,-2.58855 -0.619792,-0.875 -1.813802,-0.875 -1.175781,0 -1.795573,0.875 -0.619792,0.86589 -0.619792,2.58855 v 3.89192 q 0,1.72266 0.628907,2.60677 0.628906,0.875 1.804687,0.875 1.19401,0 1.804688,-0.875 0.619791,-0.875 0.619791,-2.60677 z"
             id="path14504"
             style="fill:#ffffff" />
          <path
             d="m 92.585613,495.44109 2.050781,-0.25521 v -9.94401 l -2.08724,0.0365 v -1.1211 l 3.882813,-0.83854 v 11.86719 l 2.041666,0.25521 v 1.14843 h -5.88802 z"
             id="path14506"
             style="fill:#ffffff" />
          <path
             d="m 108.72754,491.53093 q 0,2.54297 -1.13021,3.90104 -1.13021,1.34896 -3.08984,1.34896 -1.95052,0 -3.08985,-1.35807 -1.13932,-1.35808 -1.13932,-3.89193 v -3.14453 q 0,-2.53386 1.13021,-3.89193 1.13021,-1.36719 3.08073,-1.36719 1.95963,0 3.09896,1.36719 1.13932,1.35807 1.13932,3.89193 z m -1.79557,-3.52734 q 0,-1.72266 -0.62891,-2.58855 -0.61979,-0.875 -1.8138,-0.875 -1.17578,0 -1.79557,0.875 -0.6198,0.86589 -0.6198,2.58855 v 3.89192 q 0,1.72266 0.62891,2.60677 0.62891,0.875 1.80469,0.875 1.19401,0 1.80469,-0.875 0.61979,-0.875 0.61979,-2.60677 z"
             id="path14508"
             style="fill:#ffffff" />
          <path
             d="m 110.92415,495.44109 2.05078,-0.25521 v -9.94401 l -2.08723,0.0365 v -1.1211 l 3.88281,-0.83854 v 11.86719 l 2.04166,0.25521 v 1.14843 h -5.88802 z"
             id="path14510"
             style="fill:#ffffff" />
          <path
             d="m 118.61686,495.44109 2.05078,-0.25521 v -9.94401 l -2.08724,0.0365 v -1.1211 l 3.88281,-0.83854 v 11.86719 l 2.04167,0.25521 v 1.14843 h -5.88802 z"
             id="path14512"
             style="fill:#ffffff" />
          <path
             d="m 134.75879,491.53093 q 0,2.54297 -1.13021,3.90104 -1.13021,1.34896 -3.08984,1.34896 -1.95052,0 -3.08985,-1.35807 -1.13932,-1.35808 -1.13932,-3.89193 v -3.14453 q 0,-2.53386 1.13021,-3.89193 1.13021,-1.36719 3.08073,-1.36719 1.95963,0 3.09896,1.36719 1.13932,1.35807 1.13932,3.89193 z m -1.79557,-3.52734 q 0,-1.72266 -0.62891,-2.58855 -0.61979,-0.875 -1.8138,-0.875 -1.17578,0 -1.79557,0.875 -0.6198,0.86589 -0.6198,2.58855 v 3.89192 q 0,1.72266 0.62891,2.60677 0.62891,0.875 1.80469,0.875 1.19401,0 1.80469,-0.875 0.61979,-0.875 0.61979,-2.60677 z"
             id="path14514"
             style="fill:#ffffff" />
          <path
             d="m 145.40462,491.53093 q 0,2.54297 -1.13021,3.90104 -1.1302,1.34896 -3.08984,1.34896 -1.95052,0 -3.08984,-1.35807 -1.13933,-1.35808 -1.13933,-3.89193 v -3.14453 q 0,-2.53386 1.13021,-3.89193 1.13021,-1.36719 3.08073,-1.36719 1.95964,0 3.09896,1.36719 1.13932,1.35807 1.13932,3.89193 z m -1.79557,-3.52734 q 0,-1.72266 -0.62891,-2.58855 -0.61979,-0.875 -1.8138,-0.875 -1.17578,0 -1.79557,0.875 -0.61979,0.86589 -0.61979,2.58855 v 3.89192 q 0,1.72266 0.6289,2.60677 0.62891,0.875 1.80469,0.875 1.19401,0 1.80469,-0.875 0.61979,-0.875 0.61979,-2.60677 z"
             id="path14516"
             style="fill:#ffffff" />
          <path
             d="m 86.542644,514.86427 q 0,2.54297 -1.130208,3.90104 -1.130209,1.34896 -3.089844,1.34896 -1.950521,0 -3.089844,-1.35807 -1.139322,-1.35807 -1.139322,-3.89193 v -3.14453 q 0,-2.53385 1.130208,-3.89192 1.130208,-1.36719 3.080729,-1.36719 1.959635,0 3.098958,1.36719 1.139323,1.35807 1.139323,3.89192 z m -1.795573,-3.52734 q 0,-1.72266 -0.628906,-2.58854 -0.619792,-0.875 -1.813802,-0.875 -1.175781,0 -1.795573,0.875 -0.619792,0.86588 -0.619792,2.58854 v 3.89193 q 0,1.72265 0.628907,2.60677 0.628906,0.875 1.804687,0.875 1.19401,0 1.804688,-0.875 0.619791,-0.875 0.619791,-2.60677 z"
             id="path14518"
             style="fill:#ffffff" />
          <path
             d="m 88.739259,518.77443 2.050781,-0.25521 v -9.94401 l -2.08724,0.0365 v -1.12109 l 3.882813,-0.83855 v 11.86719 l 2.041666,0.25521 v 1.14844 h -5.88802 z"
             id="path14520"
             style="fill:#ffffff" />
          <path
             d="m 104.88119,514.86427 q 0,2.54297 -1.13021,3.90104 -1.13021,1.34896 -3.08985,1.34896 -1.950518,0 -3.089841,-1.35807 -1.139322,-1.35807 -1.139322,-3.89193 v -3.14453 q 0,-2.53385 1.130208,-3.89192 1.130208,-1.36719 3.080725,-1.36719 1.95964,0 3.09896,1.36719 1.13933,1.35807 1.13933,3.89192 z m -1.79558,-3.52734 q 0,-1.72266 -0.6289,-2.58854 -0.6198,-0.875 -1.81381,-0.875 -1.175777,0 -1.795569,0.875 -0.619792,0.86588 -0.619792,2.58854 v 3.89193 q 0,1.72265 0.628907,2.60677 0.628906,0.875 1.804684,0.875 1.19401,0 1.80469,-0.875 0.61979,-0.875 0.61979,-2.60677 z"
             id="path14522"
             style="fill:#ffffff" />
          <path
             d="m 107.0778,518.77443 2.05078,-0.25521 v -9.94401 l -2.08724,0.0365 v -1.12109 l 3.88281,-0.83855 v 11.86719 l 2.04167,0.25521 v 1.14844 h -5.88802 z"
             id="path14524"
             style="fill:#ffffff" />
          <path
             d="m 123.21973,514.86427 q 0,2.54297 -1.13021,3.90104 -1.13021,1.34896 -3.08985,1.34896 -1.95052,0 -3.08984,-1.35807 -1.13932,-1.35807 -1.13932,-3.89193 v -3.14453 q 0,-2.53385 1.13021,-3.89192 1.1302,-1.36719 3.08072,-1.36719 1.95964,0 3.09896,1.36719 1.13933,1.35807 1.13933,3.89192 z m -1.79558,-3.52734 q 0,-1.72266 -0.6289,-2.58854 -0.61979,-0.875 -1.81381,-0.875 -1.17578,0 -1.79557,0.875 -0.61979,0.86588 -0.61979,2.58854 v 3.89193 q 0,1.72265 0.62891,2.60677 0.6289,0.875 1.80468,0.875 1.19401,0 1.80469,-0.875 0.61979,-0.875 0.61979,-2.60677 z"
             id="path14526"
             style="fill:#ffffff" />
          <path
             d="m 133.86556,514.86427 q 0,2.54297 -1.13021,3.90104 -1.13021,1.34896 -3.08984,1.34896 -1.95052,0 -3.08985,-1.35807 -1.13932,-1.35807 -1.13932,-3.89193 v -3.14453 q 0,-2.53385 1.13021,-3.89192 1.13021,-1.36719 3.08073,-1.36719 1.95963,0 3.09896,1.36719 1.13932,1.35807 1.13932,3.89192 z m -1.79557,-3.52734 q 0,-1.72266 -0.62891,-2.58854 -0.61979,-0.875 -1.8138,-0.875 -1.17578,0 -1.79558,0.875 -0.61979,0.86588 -0.61979,2.58854 v 3.89193 q 0,1.72265 0.62891,2.60677 0.6289,0.875 1.80469,0.875 1.19401,0 1.80468,-0.875 0.6198,-0.875 0.6198,-2.60677 z"
             id="path14528"
             style="fill:#ffffff" />
          <path
             d="m 136.06218,518.77443 2.05078,-0.25521 v -9.94401 l -2.08724,0.0365 v -1.12109 l 3.88281,-0.83855 v 11.86719 l 2.04167,0.25521 v 1.14844 h -5.88802 z"
             id="path14530"
             style="fill:#ffffff" />
        </g>
      </g>
    </g>
  </g>
</svg>
