<svg xmlns="http://www.w3.org/2000/svg" viewBox="0 0 2146 1668.039" xml:space="preserve"><path d="m1479.589 451.673 57.831-2.71 2.99 63.795-57.832 2.71zm205.436 121.47 54.06-20.739 22.877 59.634-54.06 20.739zm-27.836-66.585 17.62-61.388 55.65 15.974-17.62 61.388zm163.721 521.807 13.022-62.525 56.68 11.805-13.023 62.525zm-44.253-636.055 57.354-7.938 8.756 63.268-57.354 7.938zm-178.389-15.06 20.136-60.609 54.943 18.255-20.137 60.607zm171.139 250.202 28.215-57.293 51.937 25.578-28.215 57.292zm-217.426 21.402 51.716-26.017 28.7 57.049-51.715 26.017zm-163.283-22.044 57.895-.14.154 63.866-57.895.139zm80.62-59.953 55.75-15.596 17.205 61.5-55.75 15.596zm-189.328-11.303 57.805-3.323 3.666 63.765-57.805 3.324zm30.36 229.401 23.092-59.54 53.974 20.934-23.093 59.54zm25.702-438.035 30.56-56.08 50.839 27.702-30.56 56.081zm263.145 478.55 18.177-61.23 55.507 16.478-18.177 61.23zm403.28-621.633-1.352-10.28c-19.633-11.288-40.43-21.371-62.359-30.156l6.311 47.985 57.4-7.549zM1538.78 913.02l53.182-22.88 25.24 58.666-53.183 22.88zm-110.647-136.135 56.999-10.16 11.208 62.876-56.998 10.16zm61.11-7.691 4.183-63.734 57.776 3.793-4.183 63.734zm199.614 148.132 54.224-20.286 22.378 59.816-54.224 20.286zm55.279-105.386 55.867-15.173 16.738 61.627-55.867 15.174zm-96.128 246.54 57.881-1.049 1.156 63.85-57.881 1.049zm-338.6-85.669 55.337-17.027 18.783 61.044-55.337 17.027zm251.949-385.476 25.399-58.596 53.117 23.025-25.398 58.595zm102.786 183.475 1.169-63.85 57.881 1.06-1.169 63.85zM1147.88 207.691l54.707-18.961 20.917 60.348-54.708 18.962zm76.892 154.236 10.517 62.993 57.104-9.534-3.551-21.269c-16.047-12.471-33.125-23.934-51.179-34.342l-12.891 2.152zm791.996 276.448.798-63.857 57.888.723-.798 63.858zm-553.477 433.96 30.355-56.187 50.935 27.517-30.355 56.187zm-22.033-842.998 23.445-59.408 53.855 21.254-23.445 59.408zm-103.333 697.035 20.067-60.636 54.968 18.191-20.068 60.637zm-121.003-470.385 28.156 57.323 28.455-13.977c-16.737-16.465-34.628-31.433-53.579-44.835l-3.032 1.489zm882.622-120.634-27.754-15.32-30.863 55.913 42.829 23.64c6.881-21.274 12.154-42.715 15.788-64.233zm-776.763 186.676 56.25-8.89c-4.703-21.337-10.688-41.965-17.9-61.829l-48.32 7.636 9.97 63.083zM1450.8 341.523l29.147 56.826 51.513-26.423-2.776-5.413a426.247 426.247 0 0 0-61.329-33.481l-16.555 8.491zm535.997 435.362 14.465 3.847c13.25-18.708 25.348-37.535 36.304-56.43l-34.355-9.137-16.414 61.72zm28.437-260.491 50.855 25.578c10.889-18.812 20.469-37.849 28.717-57.044l-50.876-25.588-28.696 57.054zm-812.393 352.265 49.598-1.81c2.848-21.733 4.493-43.114 4.959-64.088l-56.887 2.076 2.33 63.822zm790.244 4.277 35.044-5.973c2.157-22.224 3.194-44.012 3.151-65.323l-48.926 8.339 10.731 62.957zM1456.987 83.945 1428.3 34.192a812.522 812.522 0 0 0-16.235 7.013 825.84 825.84 0 0 0-36.547 17.348l31.314 54.31 50.155-28.918zM974.659 207.076l-7.361-32.388c-19.396-1.336-39.302-1.818-59.693-1.419l10.599 46.638 56.455-12.831zm880.554-120.384a531.23 531.23 0 0 0-21.643-25.596l-26.05-10.687-24.24 59.086 53.563 21.974 18.37-44.777zm-756.918 215.192-2.858-12.279c-19.745-3.285-40.108-5.612-61.059-6.944l7.531 32.349 56.386-13.126zm188.656-175.573-10.416-49.838c-18.835 8.189-36.685 17.133-53.553 26.758l7.299 34.923 56.67-11.843zm405.626 234.855 56.75-11.475 12.659 62.603-56.751 11.475zm195.138 236.715 56.152-14.091 15.544 61.94-56.151 14.092zm.941-129.874 57.684-4.886 5.39 63.633-57.684 4.886zM1599.085 81.221l29.059-56.871 51.555 26.342-29.058 56.872zm198.805 655.471 50.656-28.046 30.937 55.878-50.655 28.046zm-61.649-545.979 56.466-12.795 14.115 62.29-56.466 12.795zM1127.26 336.678l56.535-12.482 13.77 62.365-56.536 12.483zm805.092-1.744 57.897-.515.569 63.868-57.897.515zm-110.229-64.074 57.886-.578.639 63.855-57.887.579zM1057.18 145.066l54.399-19.818 21.861 60.009-54.399 19.818zm252.129 105.394 18.833-61.022 55.317 17.073-18.834 61.02zm249.407-44.027 51.796-25.855 28.522 57.138-51.797 25.855zm384.724 805.469 15.463 7.192c19.687-15.503 41.039-28.849 62.372-41.424l-50.901-23.675-26.934 57.907zm-48.617-178.218 3.238-63.781 57.819 2.935-3.238 63.78z"/><path d="M1085.868 995.373v-127.73h57.895v-127.73h57.895V548.318h-57.895v.001h-115.79v-63.865h-57.895v-63.865h-57.893v-63.865H854.29v-47.827c-18.716-3.87-38.015-7.085-57.895-9.603V420.59H738.5V294.034c-19.835-1.093-39.129-1.402-57.895-.991-19.902.437-39.201 1.693-57.895 3.717-19.991 2.164-39.292 5.201-57.895 9.051v50.915H506.92v63.865h-57.895v-63.865h57.895v-35.678c-20.286 6.554-39.586 14.147-57.895 22.667a477.545 477.545 0 0 0-25.883 13.01 461.336 461.336 0 0 0-32.012 19.034c-20.988 13.659-40.274 28.685-57.846 44.831l-.049.045c-21.489 19.751-40.413 41.174-56.748 63.82-.382.53-.767 1.058-1.146 1.589a411.344 411.344 0 0 0-36.701 62.276 403.902 403.902 0 0 0-24.02 63.864 393.874 393.874 0 0 0-11.352 54.844 124.86 124.86 0 0 0-.852 9.02c-1.124 19.126 2.269 38.338 11.281 58.173a393.214 393.214 0 0 1-3.724 5.692c-13.064 19.636-29.922 41.435-47.89 63.865a2920.68 2920.68 0 0 1-2.532 3.156c-16.198 20.162-33.173 40.767-48.985 60.709a1602.598 1602.598 0 0 0-8.909 11.332c-14.493 18.615-27.596 36.439-37.667 52.533-10.349 16.539-17.494 31.252-19.622 43.105-1.481 8.149-.143 14.954 2.975 20.76 9.176 17.088 33.792 25.501 47.491 33.912 2.253.751 4.534 1.335 6.822 1.816 15.506 3.256 31.381 1.678 41.556 14.043 3.124 3.907 3.498 8.81 2.614 14.093-1.478 8.825-6.47 18.714-8.037 26.807-.305 15.536-13.708 25.294-19.958 37.058-2.312 4.353-3.654 8.978-2.978 14.275 2.506 16.694 16.683 23.372 29.613 33.806 5.153 4.062 1.537 9.528-4.172 15.784-9.542 10.456-24.932 23.121-15.016 35.132 7.669 8.855 17.005 18.36 23.86 28.733 7.683 11.626 12.247 24.343 7.836 38.459-2.469 8.434-5.407 16.938-8.357 25.406-7.728 22.18-15.532 44.106-15.19 63.865.167 9.647 2.272 18.778 7.282 27.169 5.585 9.233 11.812 17.361 18.844 24.463a111.497 111.497 0 0 0 14.331 12.233c12.233 8.763 26.556 15.269 43.563 19.729 3.372.884 6.842 1.693 10.429 2.419 15.798 0 31.623.077 47.465.191 19.273.138 38.576.331 57.895.517 19.286.186 38.587.356 57.895.457 10.505.055 21.01.096 31.517.096 8.605 7.496 16.236 21.397 23.079 40.457 1.12 3.12 2.22 6.379 3.299 9.771 4.913 15.444 9.405 33.645 13.554 54.094 3.938 19.411 7.567 40.842 10.952 63.865h655.215c-4.181-19.648-8.486-41.222-12.733-63.865a3258.292 3258.292 0 0 1-11.314-63.865 3018.77 3018.77 0 0 1-9.977-63.865c-3.175-21.914-6.017-43.426-8.38-63.865-.16-1.385-.318-2.764-.474-4.139-2.427-21.423-4.308-41.595-5.476-59.726-1.704-26.462-1.884-48.572-.011-63.865.525-4.287 1.21-8.043 2.069-11.204a231.588 231.588 0 0 1 3.418-11.664c4.551-14.179 10.381-27.806 17.055-40.997h-17.055v-63.865h56.138c.585-.85 1.171-1.699 1.757-2.547 14.487-20.96 29.199-41.198 41.819-61.318 5.896-9.4 11.33-18.774 16.075-28.184v-35.681h-115.79zm.001-128.317h-57.895v-63.278h57.895v63.278zm-57.896-191.008h57.895v-63.865h57.895v63.865h-57.895v63.865h-57.895v-63.865zM854.29 484.454v-63.865h57.893v127.73h57.895v63.865h-57.895v-63.865H854.29v-63.865zm-115.79 0h57.895v63.865H738.5v-63.865zM622.711 612.183h57.895v63.865h-57.895v-63.865zm-115.788 574.783h-57.895v-63.865h57.895v63.865zm-.001-319.324h-57.895v-127.73h57.895v63.865h57.895v63.865h-57.895zm405.263 255.459H854.29v63.865h-57.895v-63.865h57.895v-63.865h57.895v63.865zM854.29 739.913v-63.865h-57.895v63.865H738.5v191.595h57.895v-63.865h115.79v63.865h-115.79v63.865h-115.79v-63.865H622.71v63.865h-57.895v-63.865h57.895v-63.865h57.895v-127.73H738.5v-63.865h57.895v-63.865h57.895v63.865h57.895v63.865h57.895v63.865h-57.895v-63.865H854.29zm173.684 383.188h-57.895v-63.865h57.895v63.865z"/></svg>