<svg xmlns="http://www.w3.org/2000/svg" xml:space="preserve" id="Layer_1" x="0" y="0" version="1.1" viewBox="0 0 550 650"><style id="style1" type="text/css">.st0{fill:#212322}.st3{fill:#909293}</style><g id="g10" transform="translate(-53.009 -30.334)"><path id="path1" d="m478.231 651.056-22.476-.501a4.135 4.135 0 0 1-4.044-4.228l.307-13.652a4.136 4.136 0 0 1 4.228-4.043l22.476.502a4.135 4.135 0 0 1 4.044 4.227l-.307 13.652a4.136 4.136 0 0 1-4.228 4.043z" class="st0" style="stroke-width:.557631"/><path id="path2" d="m554.961 617.53-22.474.65a4.136 4.136 0 0 1-4.255-4.017l-.394-13.651a4.136 4.136 0 0 1 4.017-4.255l22.474-.649a4.136 4.136 0 0 1 4.255 4.017l.394 13.65a4.143 4.143 0 0 1-4.017 4.256z" class="st0" style="stroke-width:.557631"/><path id="path3" d="m139.185 616.644-22.464-.891a4.136 4.136 0 0 1-3.97-4.297l.544-13.645a4.136 4.136 0 0 1 4.297-3.969l22.465.892a4.136 4.136 0 0 1 3.969 4.297l-.544 13.644a4.132 4.132 0 0 1-4.297 3.97z" class="st0" style="stroke-width:.557631"/><path id="path4" d="M526.077 97.59 490.21 63.976s-.597.96-1.048 4.372c-.313 2.376-.552 5.939-.474 11.192.01.669.01 1.678 0 2.994-.173 23.794-3.374 147.036-3.374 147.036L78.272 243.556V102.609s-.028-.268-.05-.742c-.095-2.03-.084-7.84 2.61-12.43 1.65-2.804 4.299-5.152 8.548-5.91 9.396 0 400.35-23.917 400.35-23.917Z" style="stroke-width:.557631;fill:#060707"/><path id="polygon4" d="m778.43 328.4 23.75-.45-23.74 736.85-396.04-39.34-4-.4-329.92-32.77V342.25l728.93-13.83.98-.02z" style="fill:#b7b9ba" transform="translate(51.238 46.444) scale(.55763)"/><path id="polygon5" d="m48.48 408.94 729 .74 7.85.01v4l-7.84-.01-395.09-.4v612.18l-4-.4V413.28l-329.92-.34z" class="st3" style="stroke-width:1;stroke-dasharray:none" transform="rotate(-.454 6023.977 -6077.35) scale(.55763)"/><path id="path5" d="m358.704 563.388-37.774-2.148c-2.465.103-4.46-3.365-4.46-7.742v-98.433c0-4.378 1.995-8.014 4.46-8.117l37.774.749c2.465-.104 4.461 3.364 4.461 7.742v99.838c0 4.377-1.996 8.008-4.46 8.111z" class="st3" style="stroke-width:.557631"/><path id="path6" d="m379.894 575.714-80.154-4.461a9.467 9.467 0 0 1-9.468-9.469V444.23a9.467 9.467 0 0 1 9.468-9.468l80.154 2.788a9.467 9.467 0 0 1 9.469 9.468v119.227a9.467 9.467 0 0 1-9.469 9.469z" style="stroke-width:2.78815;stroke-dasharray:none;fill:none;stroke:#909293;stroke-miterlimit:10"/><path id="path7" d="m225.09 564.182-92.594-5.665c-6.04 0-10.935-5.382-10.935-12.023V397.239c0-6.642 4.896-12.023 10.935-12.023l92.594 3.541c6.04 0 10.935 5.381 10.935 12.023v151.38c0 6.64-4.896 12.022-10.935 12.022z" class="st3" style="stroke-width:.557631"/><path id="path8" d="M348.332 421.239h-17.889a7.996 7.996 0 0 1-7.996-7.996v-98.668a7.996 7.996 0 0 1 7.996-7.996h17.895a7.996 7.996 0 0 1 7.996 7.996v98.668c-.006 4.416-3.585 7.996-8.002 7.996z" class="st3" style="stroke-width:.557631"/><path id="polygon8" d="M656.14 134.42v137.36l-210.38 6.13V142.59z" style="fill:#202222" transform="translate(51.238 46.444) scale(.55763)"/><path id="polygon9" d="M656.14 134.42v52.59l-210.38 6.13v-50.55z" style="fill:#2ea549" transform="translate(51.238 46.444) scale(.55763)"/><path id="path9" d="M485.766 68.52c-.435 1.93-.753 4.495-.876 7.891-.028.803-.055 2.95-.078 6.307l-406.59 19.15c-.095-2.03-.084-7.841 2.61-12.43z" style="stroke-width:.557631;fill:#b2b4b5"/><path id="path10" d="M490.444 62.883s-2.72-1.316-4.372 4.428c0 .005-.006.011-.006.022-.066.229-.128.469-.19.72a4.88 4.88 0 0 0-.094.496c-1.416 6.636-.976 15.2-.976 15.2v.213a1.267 1.267 0 0 0 0 .29c-.368 69.347.519 555.963.519 555.963l92.684-45.135V148.167Z" style="stroke-width:.557631;fill:#706d6e"/><path id="path11" d="M447.16 372.911a12.007 17.28 0 0 1-12.008 17.28 12.007 17.28 0 0 1-12.007-17.28 12.007 17.28 0 0 1 12.007-17.28 12.007 17.28 0 0 1 12.008 17.28Z" style="fill:#909293;fill-opacity:1;stroke:#2ea549;stroke-width:5.57631;stroke-dasharray:none;stroke-opacity:1"/></g></svg>
