<svg xmlns="http://www.w3.org/2000/svg" version="1.0" viewBox="0 0 168.34 221.254"><defs><clipPath clipPathUnits="userSpaceOnUse" id="a"><path d="M.4 0h168.138v221.386H.4z"/></clipPath></defs><path d="M1.639 216.969c0 1.339 17.09 3.098 27.503 3.098 10.434 0 27.504-1.76 27.504-3.538V196.56c0 1.779-.82 3.118-2.499 4.437-2.498 2.219-14.571 4.437-25.005 4.437-10.413 0-22.486-2.218-25.404-4.437-1.26-1.319-2.099-2.658-2.099-3.977v19.948z" fill="#bde4f7" fill-rule="evenodd" fill-opacity="1" stroke="none"/><path d="M29.062 205.356c-10.393 0-22.486-2.22-25.404-4.438-2.499-2.658-2.079-5.756-2.079-9.754V23.366c0-4.877 2.918-9.315 7.915-9.754 4.997-.46 19.568 0 19.568 0s14.592-.46 19.589 0c4.996.44 7.915 4.877 7.915 9.754v167.798c0 3.998.4 7.096-2.499 9.754-2.498 2.219-14.59 4.438-25.005 4.438z" fill="#f3c9d2" fill-rule="evenodd" fill-opacity="1" stroke="none"/><path d="M17.87 133.28c0-13.872 7.015-25.146 15.63-25.146 8.634 0 15.63 11.274 15.63 25.145 0 13.892-6.996 25.145-15.63 25.145-8.615 0-15.63-11.253-15.63-25.145z" fill="#e899ac" fill-rule="evenodd" fill-opacity="1" stroke="none"/><path d="M15.87 131.04c0-13.831 6.976-25.064 15.551-25.064 8.595 0 15.55 11.233 15.55 25.065 0 13.851-6.955 25.064-15.55 25.064-8.575 0-15.55-11.213-15.55-25.064z" fill="#d46283" fill-rule="evenodd" fill-opacity="1" stroke="none"/><path d="M3.638 197.88c0 .44.42.88.84.88 2.498 2.678 13.77 4.437 24.205 4.437 10.014 0 21.287-1.76 23.785-4.437 2.499-2.22 2.099-4.877 2.099-8.875v-165.7c0-3.098-1.26-6.216-3.338-7.995.4.46 1.659 2.679 2.079 6.676 1.259 27.084-3.338 131.04-3.758 140.355-.84 17.77-2.918 35.539-27.124 35.978-8.355.9-16.69-.44-18.788-1.319z" fill="#e899ac" fill-rule="evenodd" fill-opacity="1" stroke="none"/><path d="M28.663 203.197c10.034 0 21.307-1.76 23.805-4.437 2.499-2.22 2.099-4.877 2.099-8.875V24.665c.4 5.777-2.099 159.443-3.758 164.78-1.679 5.317-5.017 12.433-22.146 13.752z" fill="#d46283" fill-rule="evenodd" fill-opacity="1" stroke="none"/><path d="M3.638 62.482V25.105c0-5.777 2.518-8.895 7.515-9.335 4.577-.46 18.749 0 18.749 0h14.591c-3.738.88-11.673.88-19.588 2.22-7.496.899-12.093 0-15.43 5.776-2.5 4.457-4.578 21.806-5.837 38.716z" fill="#fcf1f3" fill-rule="evenodd" fill-opacity="1" stroke="none"/><path d="M22.027 15.77H11.173c-5.017.44-7.535 3.538-7.535 9.295v20.387c.42-4.857.84-17.27 1.679-21.706 1.259-4.877 4.177-8.435 16.71-7.976z" fill="#fff" fill-rule="evenodd" fill-opacity="1" stroke="none"/><path d="M13.312 129.282c0-13.872 6.996-25.145 15.59-25.145 8.615 0 15.591 11.273 15.591 25.145 0 13.891-6.976 25.144-15.59 25.144-8.595 0-15.591-11.253-15.591-25.144z" fill="#8d81ab" fill-rule="evenodd" fill-opacity="1" stroke="none"/><path d="M36.238 110.453c1.659 3.558 2.898 8.435 2.898 13.752 0 11.992-6.236 22.186-13.711 22.186-2.499 0-4.997-1.319-7.076-3.098 2.918 5.317 6.656 8.415 10.813 8.415 7.896 0 14.132-9.754 14.132-22.167 0-7.995-2.898-15.53-7.056-19.088z" fill="#665990" fill-rule="evenodd" fill-opacity="1" stroke="none"/><path d="M5.317 204.556c4.177 2.199 22.986 5.277 37.177 1.759-9.594 4.397-30.062 4.397-37.177-1.759z" fill="#fff" fill-rule="evenodd" fill-opacity="1" stroke="none"/><path d="M18.349 119.927c0-4.777 3.618-8.674 8.075-8.674 4.477 0 8.075 3.897 8.075 8.674 0 4.797-3.598 8.675-8.075 8.675-4.457 0-8.075-3.878-8.075-8.675z" fill="#bab1cc" fill-rule="evenodd" fill-opacity="1" stroke="none"/><path d="M13.312 129.282c0-13.872 6.996-25.145 15.59-25.145 8.615 0 15.591 11.273 15.591 25.145 0 13.891-6.976 25.144-15.59 25.144-8.595 0-15.591-11.253-15.591-25.144" fill="none" stroke="#000" stroke-width=".79951543px" stroke-linecap="round" stroke-linejoin="round" stroke-miterlimit="4" stroke-dasharray="none" stroke-opacity="1"/><path clip-path="url(#a)" d="M29.102 205.396c-10.393 0-22.486-2.22-25.404-4.438-2.499-2.658-2.079-5.756-2.079-9.754V23.406c0-4.877 2.918-9.315 7.915-9.754 4.997-.46 19.568 0 19.568 0s0 0 0 0 14.592-.46 19.588 0c4.997.44 7.916 4.877 7.916 9.754v167.798c0 3.998.4 7.096-2.499 9.754-2.498 2.219-14.59 4.438-25.005 4.438" fill="none" stroke="#000" stroke-width="1.1992731px" stroke-linecap="round" stroke-linejoin="round" stroke-miterlimit="4" stroke-dasharray="none" stroke-opacity="1"/><path d="M29.182 205.396h.16v.16h-.16zM1.679 216.589v.44c0 1.319 17.09 3.078 27.503 3.078 10.434 0 27.504-1.76 27.504-3.518 0 0 0 0 0 0" fill="none" stroke="#000" stroke-width="1.1992731px" stroke-linecap="round" stroke-linejoin="round" stroke-miterlimit="4" stroke-dasharray="none" stroke-opacity="1"/><path d="M17.47 108.334c0-1.599 1.199-2.918 2.678-2.918 1.479 0 2.678 1.32 2.678 2.918 0 1.62-1.2 2.919-2.678 2.919-1.48 0-2.679-1.3-2.679-2.919z" fill="#fff" fill-rule="evenodd" fill-opacity="1" stroke="none"/><path d="M21.147 117.929c0-1.92 1.52-3.478 3.358-3.478 1.859 0 3.358 1.559 3.358 3.478 0 1.938-1.499 3.477-3.358 3.477-1.839 0-3.358-1.539-3.358-3.477z" fill="#e5e1ec" fill-rule="evenodd" fill-opacity="1" stroke="none"/><path d="M23.306 105.016c0-.96.66-1.759 1.439-1.759.8 0 1.44.8 1.44 1.76 0 .979-.64 1.758-1.44 1.758-.78 0-1.44-.78-1.44-1.759zM14.99 114.17c0-.859.66-1.558 1.44-1.558.8 0 1.44.7 1.44 1.559 0 .88-.64 1.559-1.44 1.559-.78 0-1.44-.68-1.44-1.56z" fill="#fff" fill-rule="evenodd" fill-opacity="1" stroke="none"/><path d="M111.972 216.969c0 1.339 16.71 3.098 27.543 3.098 10.434 0 27.144-1.76 27.544-3.538V196.56c-.4 1.779-1.24 3.118-2.499 4.437-2.498 2.219-14.61 4.437-25.045 4.437-10.833 0-22.526-2.218-25.444-4.437-1.26-1.319-2.099-2.658-2.099-3.977v19.948z" fill="#bde4f7" fill-rule="evenodd" fill-opacity="1" stroke="none"/><path d="M139.535 205.356c-10.853 0-22.526-2.22-25.444-4.438-2.519-2.658-2.099-5.756-2.099-9.754V23.366c0-4.877 2.519-9.315 7.516-9.754 5.017-.46 20.027 0 20.027 0s14.592-.46 19.609 0c4.997.44 7.915 4.877 7.915 9.754v167.798c0 3.998 0 7.096-2.499 9.754-2.498 2.219-14.59 4.438-25.025 4.438z" fill="#f3c9d2" fill-rule="evenodd" fill-opacity="1" stroke="none"/><path d="M127.803 133.28c0-13.872 7.115-25.146 15.87-25.146 8.775 0 15.87 11.274 15.87 25.145 0 13.892-7.095 25.145-15.87 25.145-8.755 0-15.87-11.253-15.87-25.145z" fill="#e899ac" fill-rule="evenodd" fill-opacity="1" stroke="none"/><path d="M126.124 131.04c0-13.831 7.015-25.064 15.63-25.064 8.635 0 15.63 11.233 15.63 25.065 0 13.851-6.995 25.064-15.63 25.064-8.615 0-15.63-11.213-15.63-25.064z" fill="#d46283" fill-rule="evenodd" fill-opacity="1" stroke="none"/><path d="M114.13 197.88c0 .44.42.88.84.88 2.499 2.678 13.752 4.437 23.746 4.437 10.414 0 21.667-1.76 24.165-4.437 2.499-2.22 2.099-4.877 2.099-8.875v-165.7c0-3.098-1.26-6.216-3.758-7.995.42.46 2.079 2.679 2.079 6.676 1.679 27.084-3.338 131.04-3.738 140.355-.84 17.77-2.498 35.539-27.083 35.978-7.915.9-16.67-.44-18.35-1.319z" fill="#e899ac" fill-rule="evenodd" fill-opacity="1" stroke="none"/><path d="M138.756 203.197c10.414 0 21.647-1.76 24.145-4.437 2.479-2.22 2.079-4.877 2.079-8.875V24.665c.4 5.777-2.079 159.443-3.758 164.78-1.659 5.317-4.977 12.433-22.466 13.752z" fill="#d46283" fill-rule="evenodd" fill-opacity="1" stroke="none"/><path d="M114.13 62.482V25.105c0-5.777 2.5-8.895 7.077-9.335 4.997-.46 18.728 0 18.728 0h14.971c-3.738.88-12.053.88-19.548 2.22-7.895.899-12.073 0-15.39 5.776-2.5 4.457-4.578 21.806-5.837 38.716z" fill="#fcf1f3" fill-rule="evenodd" fill-opacity="1" stroke="none"/><path d="M132.44 15.77h-11.233c-4.578.44-7.076 3.538-7.076 9.295v20.387c0-4.857.84-17.27 1.679-21.706.82-4.877 4.157-8.435 16.63-7.976z" fill="#fff" fill-rule="evenodd" fill-opacity="1" stroke="none"/><path d="M123.565 129.282c0-13.872 7.016-25.145 15.67-25.145 8.655 0 15.671 11.273 15.671 25.145 0 13.891-7.016 25.144-15.67 25.144-8.655 0-15.67-11.253-15.67-25.144z" fill="#8d81ab" fill-rule="evenodd" fill-opacity="1" stroke="none"/><path d="M146.131 110.453c2.1 3.558 3.358 8.435 3.358 13.752 0 11.992-6.276 22.186-14.191 22.186-2.518 0-4.597-1.319-6.696-3.098 2.519 5.317 6.696 8.415 10.853 8.415 7.516 0 13.772-9.754 13.772-22.167 0-7.995-2.918-15.53-7.096-19.088z" fill="#665990" fill-rule="evenodd" fill-opacity="1" stroke="none"/><path d="M115.25 204.556c4.597 2.199 23.406 5.277 37.178 1.759-9.175 4.397-29.642 4.397-37.178-1.759z" fill="#fff" fill-rule="evenodd" fill-opacity="1" stroke="none"/><path d="M128.602 119.927c0-4.777 3.598-8.674 7.995-8.674 4.418 0 7.995 3.897 7.995 8.674 0 4.797-3.577 8.675-7.995 8.675-4.397 0-7.995-3.878-7.995-8.675z" fill="#bab1cc" fill-rule="evenodd" fill-opacity="1" stroke="none"/><path d="M123.565 129.282c0-13.872 7.016-25.145 15.67-25.145 8.655 0 15.671 11.273 15.671 25.145 0 13.891-7.016 25.144-15.67 25.144-8.655 0-15.67-11.253-15.67-25.144" fill="none" stroke="#000" stroke-width=".79951543px" stroke-linecap="round" stroke-linejoin="round" stroke-miterlimit="4" stroke-dasharray="none" stroke-opacity="1"/><path d="M139.575 205.396c-10.853 0-22.526-2.22-25.444-4.438-2.519-2.658-2.099-5.756-2.099-9.754V23.406c0-4.877 2.519-9.315 7.516-9.754 5.017-.46 20.027 0 20.027 0s0 0 0 0 14.592-.46 19.609 0c4.996.44 7.915 4.877 7.915 9.754v167.798c0 3.998 0 7.096-2.499 9.754-2.498 2.219-14.59 4.438-25.025 4.438M139.595 205.396h.24v.16h-.24zM112.012 216.589v.44c0 1.319 16.71 3.078 27.543 3.078 10.434 0 27.144-1.76 27.544-3.518 0 0 0 0 0 0" fill="none" stroke="#000" stroke-width="1.1992731px" stroke-linecap="round" stroke-linejoin="round" stroke-miterlimit="4" stroke-dasharray="none" stroke-opacity="1"/><path d="M127.403 108.334a2.935 2.935 0 0 1 2.918-2.918 2.922 2.922 0 0 1 2.918 2.918c0 1.62-1.299 2.919-2.918 2.919a2.922 2.922 0 0 1-2.918-2.919z" fill="#fff" fill-rule="evenodd" fill-opacity="1" stroke="none"/><path d="M131.56 117.929c0-1.92 1.52-3.478 3.358-3.478 1.86 0 3.358 1.559 3.358 3.478 0 1.938-1.499 3.477-3.358 3.477-1.839 0-3.358-1.539-3.358-3.477z" fill="#e5e1ec" fill-rule="evenodd" fill-opacity="1" stroke="none"/><path d="M133.24 105.016c0-.96.759-1.759 1.678-1.759.94 0 1.68.8 1.68 1.76 0 .979-.74 1.758-1.68 1.758-.92 0-1.679-.78-1.679-1.759zM124.924 114.17c0-.859.76-1.558 1.68-1.558.939 0 1.678.7 1.678 1.559 0 .88-.74 1.559-1.679 1.559-.92 0-1.679-.68-1.679-1.56z" fill="#fff" fill-rule="evenodd" fill-opacity="1" stroke="none"/><path d="M111.153 191.684c-.42 3.118-1.26 6.216-2.499 9.314-3.738 7.096-10.813 11.093-24.545 11.093-12.892 0-20.388-3.537-24.125-10.633-1.24-3.118-2.08-6.216-2.499-9.774-.42 3.118-.84 5.776-.84 5.337v19.948c.42 1.339 17.07 3.098 27.464 3.098 10.813 0 27.463-1.76 27.863-3.538V196.58c-.4.88-.4-1.78-.82-4.897z" fill="#bde4f7" fill-rule="evenodd" fill-opacity="1" stroke="none"/><path d="M56.686 216.589v.44c.42 1.319 17.07 3.078 27.463 3.078 10.813 0 27.463-1.76 27.863-3.518 0 0 0 0 0 0" fill="none" stroke="#000" stroke-width="1.1992731px" stroke-linecap="round" stroke-linejoin="round" stroke-miterlimit="4" stroke-dasharray="none" stroke-opacity="1"/><path d="M59.924 201.418c-9.595-18.649 6.656-58.605 6.656-73.695 0-23.546-8.335-43.974-9.575-71.497-1.259-33.74 1.24-55.067 27.064-55.067 25.844 0 28.743 21.767 27.503 55.507-1.259 27.543-9.574 47.51-9.574 71.057 0 15.09 15.81 54.167 6.656 73.255-3.758 7.116-10.833 11.093-24.585 11.093-12.912 0-20.408-3.537-24.145-10.653z" fill="#f3f2bc" fill-rule="evenodd" fill-opacity="1" stroke="none"/><path d="M85.328 3.798c-25.804 0-27.063 19.548-25.404 53.307.84 27.104 9.594 47.552 9.594 71.537 0 15.09-17.51 51.969-7.915 70.637 2.498 4.877 7.075 8.435 13.731 9.754-4.577-1.759-7.915-4.437-9.994-8.435-9.574-18.648 10.834-55.526 10.834-70.637 0-23.545-11.253-44.413-12.493-71.956-1.259-33.76-1.659-53.748 24.146-53.748z" fill="#fff" fill-rule="evenodd" fill-opacity="1" stroke="none"/><path d="M99.9 9.154c9.154 7.556 9.154 24.446 8.314 47.991-1.239 27.104-9.574 47.532-9.574 71.517 0 15.11 17.49 51.969 7.915 70.637-2.498 4.877-7.075 8.435-14.171 9.774-4.997.88-11.233 1.32-13.752.44 6.676-.44 12.093-5.337 18.35-15.11 9.993-18.65-3.339-51.53-3.339-66.62 0-23.546 9.574-42.215 10.834-69.758.84-21.767 2.498-40.416-4.578-48.87z" fill="#d8e294" fill-rule="evenodd" fill-opacity="1" stroke="none"/><path d="M78.632 209.513c2.519.88 8.755.44 13.752-.44 7.096-1.339 11.673-4.897 14.171-9.794 9.575-18.668-7.915-55.546-7.915-70.677-.84 8.015 5.837 33.34 7.496 45.353 1.679 11.992 0 32-17.49 34.679z" fill="#b5ca00" fill-rule="evenodd" fill-opacity="1" stroke="none"/><path d="M84.089 9.134c-4.177-.46-9.614.44-11.713 4.878-.42 1.778.42 4.437-.42 6.216-.4 1.779-2.498 3.558-3.338 5.337-1.659 3.537-1.659 6.216-2.078 9.314-.42 4.437-2.519 9.334-2.939 14.211 0 9.315 6.696 15.53 6.277 23.986-.42 8.435-2.499 9.314 4.177 15.53 3.758 3.558 4.597 4.438 5.857 9.335.82 3.098 0 8.435 3.757 9.314 4.997.88 4.997-5.776 5.417-8.435 1.26-3.997 3.338-7.096 4.597-10.653 1.68-5.337-.84-11.114.42-16.87 1.26-5.337 3.338-10.654 4.597-15.55 2.079-7.536-1.679-11.534-1.679-18.65 0-8.434 3.758-10.213-2.079-18.208-2.098-2.659-4.597-9.315-10.853-9.755z" fill="#1da7d1" fill-rule="evenodd" fill-opacity="1" stroke="none"/><path d="M66.64 127.683c0-23.546-8.335-43.994-9.595-71.537-.42-5.317-.42-10.654-.42-15.53v-.46s-1.259-18.649-2.918-21.327c-1.259-2.659-3.757-3.998-3.757-3.998s-.84 46.652-.84 90.185c0 17.77-.42 49.77-1.259 67.54 2.938-31.102 9.194 15.53 9.194 15.53-.84-19.988 9.595-47.97 9.595-60.403zM114.93 113.451c0-40.875-2.918-71.996-2.918-71.996l-.42.46c.42 4.437 0 9.334 0 14.65-1.239 27.564-9.614 47.552-9.614 71.098 0 11.113 8.775 35.998 9.614 55.546 0 .44.42.88.42.88s2.918-30.202 2.918-70.638z" fill="#f3c9d2" fill-rule="evenodd" fill-opacity="1" stroke="none"/><path d="M109.514 89.985c-1.26 7.556-6.257 30.642-5.417 39.057.84 7.995 7.915 31.96 8.755 39.056.4-10.633-5.837-32.84-5.837-44.813 0-11.553 1.24-25.304 2.499-33.3z" fill="#fcf1f3" fill-rule="evenodd" fill-opacity="1" stroke="none"/><path d="M59.964 201.458c-9.595-18.649 6.656-58.605 6.656-73.695 0-23.546-8.335-43.974-9.575-71.497-1.259-33.74 1.24-55.067 27.064-55.067 0 0 0 0 0 0 25.844 0 28.743 21.767 27.503 55.507-1.259 27.543-9.574 47.51-9.574 71.057 0 15.09 15.81 54.167 6.656 73.255-3.758 7.116-10.833 11.093-24.585 11.093-12.912 0-20.408-3.537-24.145-10.653" fill="none" stroke="#000" stroke-width="1.1992731px" stroke-linecap="round" stroke-linejoin="round" stroke-miterlimit="4" stroke-dasharray="none" stroke-opacity="1"/><path d="M76.953 45.133c0-2.959 2.239-5.357 4.997-5.357 2.779 0 4.997 2.398 4.997 5.357 0 2.958-2.218 5.356-4.997 5.356-2.758 0-4.997-2.398-4.997-5.356z" fill="#bedceb" fill-rule="evenodd" fill-opacity="1" stroke="none"/><path d="M76.953 45.133c0-2.959 2.239-5.357 4.997-5.357 2.779 0 4.997 2.398 4.997 5.357 0 2.958-2.218 5.356-4.997 5.356-2.758 0-4.997-2.398-4.997-5.356" fill="none" stroke="#fff" stroke-width=".79951543px" stroke-linecap="round" stroke-linejoin="round" stroke-miterlimit="4" stroke-dasharray="none" stroke-opacity="1"/><path d="M81.11 36.658c0-3.218 2.44-5.837 5.438-5.837 3.018 0 5.436 2.619 5.436 5.837 0 3.238-2.418 5.836-5.436 5.836-2.999 0-5.437-2.598-5.437-5.836z" fill="#bedceb" fill-rule="evenodd" fill-opacity="1" stroke="none"/><path d="M81.11 36.658c0-3.218 2.44-5.837 5.438-5.837 3.018 0 5.436 2.619 5.436 5.837 0 3.238-2.418 5.836-5.436 5.836-2.999 0-5.437-2.598-5.437-5.836" fill="none" stroke="#fff" stroke-width=".79951543px" stroke-linecap="round" stroke-linejoin="round" stroke-miterlimit="4" stroke-dasharray="none" stroke-opacity="1"/><path d="M72.796 37.737c0-2.358 1.799-4.277 3.997-4.277 2.22 0 3.998 1.919 3.998 4.277 0 2.379-1.779 4.278-3.998 4.278-2.198 0-3.997-1.9-3.997-4.278z" fill="#bedceb" fill-rule="evenodd" fill-opacity="1" stroke="none"/><path d="M72.796 37.737c0-2.358 1.799-4.277 3.997-4.277 2.22 0 3.998 1.919 3.998 4.277 0 2.379-1.779 4.278-3.998 4.278-2.198 0-3.997-1.9-3.997-4.278" fill="none" stroke="#fff" stroke-width=".79951543px" stroke-linecap="round" stroke-linejoin="round" stroke-miterlimit="4" stroke-dasharray="none" stroke-opacity="1"/><path d="M86.947 44.893c0-1.32 1.04-2.399 2.319-2.399 1.3 0 2.318 1.08 2.318 2.399 0 1.339-1.019 2.398-2.318 2.398-1.28 0-2.319-1.059-2.319-2.398z" fill="#bedceb" fill-rule="evenodd" fill-opacity="1" stroke="none"/><path d="M86.947 44.893c0-1.32 1.04-2.399 2.319-2.399 1.3 0 2.318 1.08 2.318 2.399 0 1.339-1.019 2.398-2.318 2.398-1.28 0-2.319-1.059-2.319-2.398" fill="none" stroke="#fff" stroke-width=".79951543px" stroke-linecap="round" stroke-linejoin="round" stroke-miterlimit="4" stroke-dasharray="none" stroke-opacity="1"/><path d="M71.996 58.884c0-3.917 2.979-7.115 6.636-7.115 3.678 0 6.636 3.198 6.636 7.115 0 3.938-2.958 7.116-6.636 7.116-3.657 0-6.636-3.178-6.636-7.116z" fill="#bedceb" fill-rule="evenodd" fill-opacity="1" stroke="none"/><path d="M71.996 58.884c0-3.917 2.979-7.115 6.636-7.115 3.678 0 6.636 3.198 6.636 7.115 0 3.938-2.958 7.116-6.636 7.116-3.657 0-6.636-3.178-6.636-7.116" fill="none" stroke="#fff" stroke-width=".79951543px" stroke-linecap="round" stroke-linejoin="round" stroke-miterlimit="4" stroke-dasharray="none" stroke-opacity="1"/><path d="M71.996 49.13c0-1.439 1.12-2.638 2.479-2.638 1.379 0 2.478 1.2 2.478 2.638 0 1.46-1.099 2.639-2.478 2.639-1.36 0-2.479-1.18-2.479-2.639z" fill="#bedceb" fill-rule="evenodd" fill-opacity="1" stroke="none"/><path d="M71.996 49.13c0-1.439 1.12-2.638 2.479-2.638 1.379 0 2.478 1.2 2.478 2.638 0 1.46-1.099 2.639-2.478 2.639-1.36 0-2.479-1.18-2.479-2.639" fill="none" stroke="#fff" stroke-width=".79951543px" stroke-linecap="round" stroke-linejoin="round" stroke-miterlimit="4" stroke-dasharray="none" stroke-opacity="1"/><path d="M64.96 52.208c0-1.958 1.5-3.557 3.319-3.557 1.839 0 3.318 1.599 3.318 3.557 0 1.98-1.48 3.558-3.318 3.558-1.82 0-3.318-1.579-3.318-3.558z" fill="#bedceb" fill-rule="evenodd" fill-opacity="1" stroke="none"/><path d="M64.96 52.208c0-1.958 1.5-3.557 3.319-3.557 1.839 0 3.318 1.599 3.318 3.557 0 1.98-1.48 3.558-3.318 3.558-1.82 0-3.318-1.579-3.318-3.558" fill="none" stroke="#fff" stroke-width=".79951543px" stroke-linecap="round" stroke-linejoin="round" stroke-miterlimit="4" stroke-dasharray="none" stroke-opacity="1"/><path d="M64.96 46.252c0-2.339 1.76-4.237 3.918-4.237 2.179 0 3.918 1.898 3.918 4.237 0 2.359-1.74 4.237-3.918 4.237-2.158 0-3.917-1.878-3.917-4.237z" fill="#bedceb" fill-rule="evenodd" fill-opacity="1" stroke="none"/><path d="M64.96 46.252c0-2.339 1.76-4.237 3.918-4.237 2.179 0 3.918 1.898 3.918 4.237 0 2.359-1.74 4.237-3.918 4.237-2.158 0-3.917-1.878-3.917-4.237" fill="none" stroke="#fff" stroke-width=".79951543px" stroke-linecap="round" stroke-linejoin="round" stroke-miterlimit="4" stroke-dasharray="none" stroke-opacity="1"/><path d="M68.319 27.064c0-2.339 1.759-4.238 3.917-4.238 2.179 0 3.918 1.899 3.918 4.238 0 2.358-1.74 4.237-3.918 4.237-2.158 0-3.917-1.879-3.917-4.237z" fill="#bedceb" fill-rule="evenodd" fill-opacity="1" stroke="none"/><path d="M68.319 27.064c0-2.339 1.759-4.238 3.917-4.238 2.179 0 3.918 1.899 3.918 4.238 0 2.358-1.74 4.237-3.918 4.237-2.158 0-3.917-1.879-3.917-4.237" fill="none" stroke="#fff" stroke-width=".79951543px" stroke-linecap="round" stroke-linejoin="round" stroke-miterlimit="4" stroke-dasharray="none" stroke-opacity="1"/><path d="M72.796 15.35c0-1.478 1.14-2.678 2.518-2.678 1.4 0 2.519 1.2 2.519 2.679 0 1.479-1.12 2.678-2.519 2.678-1.379 0-2.518-1.2-2.518-2.678z" fill="#bedceb" fill-rule="evenodd" fill-opacity="1" stroke="none"/><path d="M72.796 15.35c0-1.478 1.14-2.678 2.518-2.678 1.4 0 2.519 1.2 2.519 2.679 0 1.479-1.12 2.678-2.519 2.678-1.379 0-2.518-1.2-2.518-2.678" fill="none" stroke="#fff" stroke-width=".79951543px" stroke-linecap="round" stroke-linejoin="round" stroke-miterlimit="4" stroke-dasharray="none" stroke-opacity="1"/><path d="M76.953 27.743c0-1.959 1.5-3.558 3.318-3.558 1.84 0 3.318 1.6 3.318 3.558 0 1.979-1.479 3.558-3.318 3.558-1.819 0-3.318-1.579-3.318-3.558z" fill="#bedceb" fill-rule="evenodd" fill-opacity="1" stroke="none"/><path d="M76.953 27.743c0-1.959 1.5-3.558 3.318-3.558 1.84 0 3.318 1.6 3.318 3.558 0 1.979-1.479 3.558-3.318 3.558-1.819 0-3.318-1.579-3.318-3.558" fill="none" stroke="#fff" stroke-width=".79951543px" stroke-linecap="round" stroke-linejoin="round" stroke-miterlimit="4" stroke-dasharray="none" stroke-opacity="1"/><path d="M83.27 21.507c0-2.918 2.238-5.317 4.997-5.317 2.778 0 4.996 2.399 4.996 5.317 0 2.938-2.218 5.317-4.996 5.317-2.759 0-4.997-2.379-4.997-5.317z" fill="#bedceb" fill-rule="evenodd" fill-opacity="1" stroke="none"/><path d="M83.27 21.507c0-2.918 2.238-5.317 4.997-5.317 2.778 0 4.996 2.399 4.996 5.317 0 2.938-2.218 5.317-4.996 5.317-2.759 0-4.997-2.379-4.997-5.317" fill="none" stroke="#fff" stroke-width=".79951543px" stroke-linecap="round" stroke-linejoin="round" stroke-miterlimit="4" stroke-dasharray="none" stroke-opacity="1"/><path d="M80.311 14.671c0-1.36 1.04-2.478 2.319-2.478 1.3 0 2.319 1.119 2.319 2.478 0 1.38-1.02 2.479-2.32 2.479-1.278 0-2.318-1.1-2.318-2.479z" fill="#bedceb" fill-rule="evenodd" fill-opacity="1" stroke="none"/><path d="M80.311 14.671c0-1.36 1.04-2.478 2.319-2.478 1.3 0 2.319 1.119 2.319 2.478 0 1.38-1.02 2.479-2.32 2.479-1.278 0-2.318-1.1-2.318-2.479" fill="none" stroke="#fff" stroke-width=".79951543px" stroke-linecap="round" stroke-linejoin="round" stroke-miterlimit="4" stroke-dasharray="none" stroke-opacity="1"/><path d="M85.268 58.445c0-2.919 2.239-5.317 4.997-5.317 2.779 0 4.997 2.398 4.997 5.317 0 2.938-2.218 5.316-4.997 5.316-2.758 0-4.997-2.378-4.997-5.316z" fill="#bedceb" fill-rule="evenodd" fill-opacity="1" stroke="none"/><path d="M85.268 58.445c0-2.919 2.239-5.317 4.997-5.317 2.779 0 4.997 2.398 4.997 5.317 0 2.938-2.218 5.316-4.997 5.316-2.758 0-4.997-2.378-4.997-5.316" fill="none" stroke="#fff" stroke-width=".79951543px" stroke-linecap="round" stroke-linejoin="round" stroke-miterlimit="4" stroke-dasharray="none" stroke-opacity="1"/><path d="M94.463 50.65c0-1.1.86-2 1.919-2 1.059 0 1.918.9 1.918 2 0 1.119-.86 1.998-1.918 1.998-1.06 0-1.92-.88-1.92-1.999z" fill="#bedceb" fill-rule="evenodd" fill-opacity="1" stroke="none"/><path d="M94.463 50.65c0-1.1.86-2 1.919-2 1.059 0 1.918.9 1.918 2 0 1.119-.86 1.998-1.918 1.998-1.06 0-1.92-.88-1.92-1.999" fill="none" stroke="#fff" stroke-width=".79951543px" stroke-linecap="round" stroke-linejoin="round" stroke-miterlimit="4" stroke-dasharray="none" stroke-opacity="1"/><path d="M82.79 54.127c0-1.819 1.419-3.318 3.158-3.318 1.759 0 3.158 1.5 3.158 3.318 0 1.84-1.4 3.318-3.158 3.318-1.739 0-3.158-1.479-3.158-3.318z" fill="#bedceb" fill-rule="evenodd" fill-opacity="1" stroke="none"/><path d="M82.79 54.127c0-1.819 1.419-3.318 3.158-3.318 1.759 0 3.158 1.5 3.158 3.318 0 1.84-1.4 3.318-3.158 3.318-1.739 0-3.158-1.479-3.158-3.318" fill="none" stroke="#fff" stroke-width=".79951543px" stroke-linecap="round" stroke-linejoin="round" stroke-miterlimit="4" stroke-dasharray="none" stroke-opacity="1"/><path d="M80.791 79.032c0-3.518 2.698-6.396 5.996-6.396 3.318 0 5.997 2.878 5.997 6.396 0 3.538-2.679 6.396-5.997 6.396-3.298 0-5.996-2.858-5.996-6.396z" fill="#bedceb" fill-rule="evenodd" fill-opacity="1" stroke="none"/><path d="M80.791 79.032c0-3.518 2.698-6.396 5.996-6.396 3.318 0 5.997 2.878 5.997 6.396 0 3.538-2.679 6.396-5.997 6.396-3.298 0-5.996-2.858-5.996-6.396" fill="none" stroke="#fff" stroke-width=".79951543px" stroke-linecap="round" stroke-linejoin="round" stroke-miterlimit="4" stroke-dasharray="none" stroke-opacity="1"/><path d="M71.117 79.032c0-3.078 2.358-5.597 5.237-5.597 2.898 0 5.237 2.519 5.237 5.597 0 3.098-2.339 5.597-5.237 5.597-2.879 0-5.237-2.499-5.237-5.597z" fill="#bedceb" fill-rule="evenodd" fill-opacity="1" stroke="none"/><path d="M71.117 79.032c0-3.078 2.358-5.597 5.237-5.597 2.898 0 5.237 2.519 5.237 5.597 0 3.098-2.339 5.597-5.237 5.597-2.879 0-5.237-2.499-5.237-5.597" fill="none" stroke="#fff" stroke-width=".79951543px" stroke-linecap="round" stroke-linejoin="round" stroke-miterlimit="4" stroke-dasharray="none" stroke-opacity="1"/><path d="M76.953 71.717c0-2.699 2.06-4.917 4.598-4.917s4.597 2.218 4.597 4.917c0 2.718-2.059 4.917-4.597 4.917-2.539 0-4.598-2.2-4.598-4.917z" fill="#bedceb" fill-rule="evenodd" fill-opacity="1" stroke="none"/><path d="M76.953 71.717c0-2.699 2.06-4.917 4.598-4.917s4.597 2.218 4.597 4.917c0 2.718-2.059 4.917-4.597 4.917-2.539 0-4.598-2.2-4.598-4.917" fill="none" stroke="#fff" stroke-width=".79951543px" stroke-linecap="round" stroke-linejoin="round" stroke-miterlimit="4" stroke-dasharray="none" stroke-opacity="1"/><path d="M84.949 66.4c0-1.979 1.499-3.598 3.318-3.598 1.838 0 3.317 1.619 3.317 3.598 0 1.999-1.479 3.598-3.317 3.598-1.82 0-3.318-1.6-3.318-3.598z" fill="#bedceb" fill-rule="evenodd" fill-opacity="1" stroke="none"/><path d="M84.949 66.4c0-1.979 1.499-3.598 3.318-3.598 1.838 0 3.317 1.619 3.317 3.598 0 1.999-1.479 3.598-3.317 3.598-1.82 0-3.318-1.6-3.318-3.598" fill="none" stroke="#fff" stroke-width=".79951543px" stroke-linecap="round" stroke-linejoin="round" stroke-miterlimit="4" stroke-dasharray="none" stroke-opacity="1"/><path d="M68.638 66.36c0-2.699 2.06-4.917 4.598-4.917s4.597 2.218 4.597 4.917c0 2.718-2.059 4.917-4.597 4.917-2.539 0-4.598-2.199-4.598-4.917z" fill="#bedceb" fill-rule="evenodd" fill-opacity="1" stroke="none"/><path d="M68.638 66.36c0-2.699 2.06-4.917 4.598-4.917s4.597 2.218 4.597 4.917c0 2.718-2.059 4.917-4.597 4.917-2.539 0-4.598-2.199-4.598-4.917" fill="none" stroke="#fff" stroke-width=".79951543px" stroke-linecap="round" stroke-linejoin="round" stroke-miterlimit="4" stroke-dasharray="none" stroke-opacity="1"/><path d="M74.955 88.187c0-1.96 1.499-3.558 3.318-3.558 1.838 0 3.318 1.599 3.318 3.558 0 1.978-1.48 3.557-3.318 3.557-1.82 0-3.318-1.579-3.318-3.557z" fill="#bedceb" fill-rule="evenodd" fill-opacity="1" stroke="none"/><path d="M74.955 88.187c0-1.96 1.499-3.558 3.318-3.558 1.838 0 3.318 1.599 3.318 3.558 0 1.978-1.48 3.557-3.318 3.557-1.82 0-3.318-1.579-3.318-3.557" fill="none" stroke="#fff" stroke-width=".79951543px" stroke-linecap="round" stroke-linejoin="round" stroke-miterlimit="4" stroke-dasharray="none" stroke-opacity="1"/><path d="M83.27 90.385c0-1.979 1.519-3.598 3.357-3.598 1.86 0 3.358 1.62 3.358 3.598 0 1.999-1.499 3.598-3.358 3.598-1.838 0-3.357-1.599-3.357-3.598z" fill="#bedceb" fill-rule="evenodd" fill-opacity="1" stroke="none"/><path d="M83.27 90.385c0-1.979 1.519-3.598 3.357-3.598 1.86 0 3.358 1.62 3.358 3.598 0 1.999-1.499 3.598-3.358 3.598-1.838 0-3.357-1.599-3.357-3.598" fill="none" stroke="#fff" stroke-width=".79951543px" stroke-linecap="round" stroke-linejoin="round" stroke-miterlimit="4" stroke-dasharray="none" stroke-opacity="1"/><path d="M78.632 95.302c0-2.658 2.179-4.837 4.837-4.837a4.841 4.841 0 0 1 4.837 4.837 4.828 4.828 0 0 1-4.837 4.837 4.841 4.841 0 0 1-4.837-4.837z" fill="#bedceb" fill-rule="evenodd" fill-opacity="1" stroke="none"/><path d="M78.632 95.302c0-2.658 2.179-4.837 4.837-4.837a4.841 4.841 0 0 1 4.837 4.837 4.828 4.828 0 0 1-4.837 4.837 4.841 4.841 0 0 1-4.837-4.837" fill="none" stroke="#fff" stroke-width=".79951543px" stroke-linecap="round" stroke-linejoin="round" stroke-miterlimit="4" stroke-dasharray="none" stroke-opacity="1"/><path d="M81.99 102.778c0-1.44 1.12-2.639 2.479-2.639 1.379 0 2.478 1.2 2.478 2.639 0 1.459-1.099 2.638-2.478 2.638-1.36 0-2.479-1.18-2.479-2.638z" fill="#bedceb" fill-rule="evenodd" fill-opacity="1" stroke="none"/><path d="M81.99 102.778c0-1.44 1.12-2.639 2.479-2.639 1.379 0 2.478 1.2 2.478 2.639 0 1.459-1.099 2.638-2.478 2.638-1.36 0-2.479-1.18-2.479-2.638" fill="none" stroke="#fff" stroke-width=".79951543px" stroke-linecap="round" stroke-linejoin="round" stroke-miterlimit="4" stroke-dasharray="none" stroke-opacity="1"/><path d="M81.99 85.548c0-1.699 1.32-3.078 2.919-3.078 1.619 0 2.918 1.38 2.918 3.078 0 1.72-1.3 3.078-2.918 3.078-1.6 0-2.919-1.359-2.919-3.078z" fill="#bedceb" fill-rule="evenodd" fill-opacity="1" stroke="none"/><path d="M81.99 85.548c0-1.699 1.32-3.078 2.919-3.078 1.619 0 2.918 1.38 2.918 3.078 0 1.72-1.3 3.078-2.918 3.078-1.6 0-2.919-1.359-2.919-3.078" fill="none" stroke="#fff" stroke-width=".79951543px" stroke-linecap="round" stroke-linejoin="round" stroke-miterlimit="4" stroke-dasharray="none" stroke-opacity="1"/><path d="M88.626 85.788c0-1.819 1.5-3.318 3.318-3.318 1.84 0 3.318 1.5 3.318 3.318a3.31 3.31 0 0 1-3.318 3.318 3.323 3.323 0 0 1-3.318-3.318z" fill="#bedceb" fill-rule="evenodd" fill-opacity="1" stroke="none"/><path d="M88.626 85.788c0-1.819 1.5-3.318 3.318-3.318 1.84 0 3.318 1.5 3.318 3.318a3.31 3.31 0 0 1-3.318 3.318 3.323 3.323 0 0 1-3.318-3.318" fill="none" stroke="#fff" stroke-width=".79951543px" stroke-linecap="round" stroke-linejoin="round" stroke-miterlimit="4" stroke-dasharray="none" stroke-opacity="1"/><path d="M90.305 69.958c0-1.48 1.12-2.679 2.479-2.679 1.379 0 2.478 1.2 2.478 2.679 0 1.479-1.1 2.678-2.478 2.678-1.36 0-2.479-1.2-2.479-2.678z" fill="#bedceb" fill-rule="evenodd" fill-opacity="1" stroke="none"/><path d="M90.305 69.958c0-1.48 1.12-2.679 2.479-2.679 1.379 0 2.478 1.2 2.478 2.679 0 1.479-1.1 2.678-2.478 2.678-1.36 0-2.479-1.2-2.479-2.678" fill="none" stroke="#fff" stroke-width=".79951543px" stroke-linecap="round" stroke-linejoin="round" stroke-miterlimit="4" stroke-dasharray="none" stroke-opacity="1"/><path d="M85.828 28.663c0-3.658 2.798-6.636 6.236-6.636 3.458 0 6.236 2.978 6.236 6.636 0 3.677-2.778 6.636-6.236 6.636-3.438 0-6.236-2.959-6.236-6.636z" fill="#bedceb" fill-rule="evenodd" fill-opacity="1" stroke="none"/><path d="M85.828 28.663c0-3.658 2.798-6.636 6.236-6.636 3.458 0 6.236 2.978 6.236 6.636 0 3.677-2.778 6.636-6.236 6.636-3.438 0-6.236-2.959-6.236-6.636" fill="none" stroke="#fff" stroke-width=".79951543px" stroke-linecap="round" stroke-linejoin="round" stroke-miterlimit="4" stroke-dasharray="none" stroke-opacity="1"/><path d="M87.827 35.978c0-1.819 1.419-3.318 3.158-3.318 1.759 0 3.158 1.5 3.158 3.318 0 1.84-1.4 3.318-3.158 3.318-1.74 0-3.158-1.479-3.158-3.318z" fill="#bedceb" fill-rule="evenodd" fill-opacity="1" stroke="none"/><path d="M87.827 35.978c0-1.819 1.419-3.318 3.158-3.318 1.759 0 3.158 1.5 3.158 3.318 0 1.84-1.4 3.318-3.158 3.318-1.74 0-3.158-1.479-3.158-3.318" fill="none" stroke="#fff" stroke-width=".79951543px" stroke-linecap="round" stroke-linejoin="round" stroke-miterlimit="4" stroke-dasharray="none" stroke-opacity="1"/><path d="M92.464 42.374c0-1.699 1.32-3.078 2.918-3.078 1.62 0 2.918 1.38 2.918 3.078 0 1.72-1.299 3.078-2.918 3.078-1.599 0-2.918-1.359-2.918-3.078z" fill="#bedceb" fill-rule="evenodd" fill-opacity="1" stroke="none"/><path d="M92.464 42.374c0-1.699 1.32-3.078 2.918-3.078 1.62 0 2.918 1.38 2.918 3.078 0 1.72-1.299 3.078-2.918 3.078-1.599 0-2.918-1.359-2.918-3.078" fill="none" stroke="#fff" stroke-width=".79951543px" stroke-linecap="round" stroke-linejoin="round" stroke-miterlimit="4" stroke-dasharray="none" stroke-opacity="1"/><path d="M94.143 37.737c0-.86.64-1.559 1.4-1.559.779 0 1.398.7 1.398 1.56 0 .879-.62 1.558-1.399 1.558-.76 0-1.4-.68-1.4-1.559z" fill="#bedceb" fill-rule="evenodd" fill-opacity="1" stroke="none"/><path d="M94.143 37.737c0-.86.64-1.559 1.4-1.559.779 0 1.398.7 1.398 1.56 0 .879-.62 1.558-1.399 1.558-.76 0-1.4-.68-1.4-1.559" fill="none" stroke="#fff" stroke-width=".79951543px" stroke-linecap="round" stroke-linejoin="round" stroke-miterlimit="4" stroke-dasharray="none" stroke-opacity="1"/><path d="M85.268 13.072c0-1.22.94-2.239 2.08-2.239 1.158 0 2.078 1.02 2.078 2.24 0 1.238-.92 2.238-2.079 2.238-1.14 0-2.079-1-2.079-2.239z" fill="#bedceb" fill-rule="evenodd" fill-opacity="1" stroke="none"/><path d="M85.268 13.072c0-1.22.94-2.239 2.08-2.239 1.158 0 2.078 1.02 2.078 2.24 0 1.238-.92 2.238-2.079 2.238-1.14 0-2.079-1-2.079-2.239" fill="none" stroke="#fff" stroke-width=".79951543px" stroke-linecap="round" stroke-linejoin="round" stroke-miterlimit="4" stroke-dasharray="none" stroke-opacity="1"/><path d="M79.112 20.188c0-2.199 1.699-3.998 3.758-3.998 2.079 0 3.757 1.8 3.757 3.998 0 2.218-1.678 3.997-3.757 3.997-2.059 0-3.758-1.779-3.758-3.997z" fill="#bedceb" fill-rule="evenodd" fill-opacity="1" stroke="none"/><path d="M79.112 20.188c0-2.199 1.699-3.998 3.758-3.998 2.079 0 3.757 1.8 3.757 3.998 0 2.218-1.678 3.997-3.757 3.997-2.059 0-3.758-1.779-3.758-3.997" fill="none" stroke="#fff" stroke-width=".79951543px" stroke-linecap="round" stroke-linejoin="round" stroke-miterlimit="4" stroke-dasharray="none" stroke-opacity="1"/><path d="M77.433 10.833c0-1.439 1.14-2.638 2.519-2.638 1.399 0 2.518 1.2 2.518 2.638 0 1.46-1.12 2.639-2.518 2.639-1.38 0-2.519-1.18-2.519-2.639z" fill="#bedceb" fill-rule="evenodd" fill-opacity="1" stroke="none"/><path d="M77.433 10.833c0-1.439 1.14-2.638 2.519-2.638 1.399 0 2.518 1.2 2.518 2.638 0 1.46-1.12 2.639-2.518 2.639-1.38 0-2.519-1.18-2.519-2.639" fill="none" stroke="#fff" stroke-width=".79951543px" stroke-linecap="round" stroke-linejoin="round" stroke-miterlimit="4" stroke-dasharray="none" stroke-opacity="1"/><path d="M74.955 12.512c0-1.099.76-1.998 1.679-1.998.939 0 1.679.9 1.679 1.998 0 1.12-.74 2-1.68 2-.919 0-1.678-.88-1.678-2z" fill="#bedceb" fill-rule="evenodd" fill-opacity="1" stroke="none"/><path d="M74.955 12.512c0-1.099.76-1.998 1.679-1.998.939 0 1.679.9 1.679 1.998 0 1.12-.74 2-1.68 2-.919 0-1.678-.88-1.678-2" fill="none" stroke="#fff" stroke-width=".79951543px" stroke-linecap="round" stroke-linejoin="round" stroke-miterlimit="4" stroke-dasharray="none" stroke-opacity="1"/><path d="M71.597 21.307c0-.84.66-1.519 1.439-1.519.8 0 1.439.68 1.439 1.52 0 .839-.64 1.518-1.44 1.518-.779 0-1.438-.68-1.438-1.519z" fill="#bedceb" fill-rule="evenodd" fill-opacity="1" stroke="none"/><path d="M71.597 21.307c0-.84.66-1.519 1.439-1.519.8 0 1.439.68 1.439 1.52 0 .839-.64 1.518-1.44 1.518-.779 0-1.438-.68-1.438-1.519" fill="none" stroke="#fff" stroke-width=".79951543px" stroke-linecap="round" stroke-linejoin="round" stroke-miterlimit="4" stroke-dasharray="none" stroke-opacity="1"/><path d="M66.64 36.378c0-1.6 1.199-2.918 2.678-2.918 1.48 0 2.678 1.319 2.678 2.918 0 1.619-1.199 2.918-2.678 2.918-1.48 0-2.678-1.299-2.678-2.918z" fill="#bedceb" fill-rule="evenodd" fill-opacity="1" stroke="none"/><path d="M66.64 36.378c0-1.6 1.199-2.918 2.678-2.918 1.48 0 2.678 1.319 2.678 2.918 0 1.619-1.199 2.918-2.678 2.918-1.48 0-2.678-1.299-2.678-2.918" fill="none" stroke="#fff" stroke-width=".79951543px" stroke-linecap="round" stroke-linejoin="round" stroke-miterlimit="4" stroke-dasharray="none" stroke-opacity="1"/><path d="M70.317 35.339c0-1.48 1.12-2.679 2.479-2.679 1.379 0 2.478 1.2 2.478 2.679 0 1.479-1.099 2.678-2.478 2.678-1.36 0-2.479-1.2-2.479-2.678z" fill="#bedceb" fill-rule="evenodd" fill-opacity="1" stroke="none"/><path d="M70.317 35.339c0-1.48 1.12-2.679 2.479-2.679 1.379 0 2.478 1.2 2.478 2.679 0 1.479-1.099 2.678-2.478 2.678-1.36 0-2.479-1.2-2.479-2.678" fill="none" stroke="#fff" stroke-width=".79951543px" stroke-linecap="round" stroke-linejoin="round" stroke-miterlimit="4" stroke-dasharray="none" stroke-opacity="1"/><path d="M67.44 59.804c0-1.48 1.138-2.679 2.518-2.679 1.399 0 2.518 1.2 2.518 2.679 0 1.479-1.12 2.678-2.518 2.678-1.38 0-2.519-1.2-2.519-2.678z" fill="#bedceb" fill-rule="evenodd" fill-opacity="1" stroke="none"/><path d="M67.44 59.804c0-1.48 1.138-2.679 2.518-2.679 1.399 0 2.518 1.2 2.518 2.679 0 1.479-1.12 2.678-2.518 2.678-1.38 0-2.519-1.2-2.519-2.678" fill="none" stroke="#fff" stroke-width=".79951543px" stroke-linecap="round" stroke-linejoin="round" stroke-miterlimit="4" stroke-dasharray="none" stroke-opacity="1"/><path d="M70.317 57.805c0-1.819 1.32-3.318 2.919-3.318 1.619 0 2.918 1.5 2.918 3.318 0 1.839-1.3 3.318-2.918 3.318-1.6 0-2.919-1.48-2.919-3.318z" fill="#bedceb" fill-rule="evenodd" fill-opacity="1" stroke="none"/><path d="M70.317 57.805c0-1.819 1.32-3.318 2.919-3.318 1.619 0 2.918 1.5 2.918 3.318 0 1.839-1.3 3.318-2.918 3.318-1.6 0-2.919-1.48-2.919-3.318" fill="none" stroke="#fff" stroke-width=".79951543px" stroke-linecap="round" stroke-linejoin="round" stroke-miterlimit="4" stroke-dasharray="none" stroke-opacity="1"/><path d="M68.638 79.312c0-1.48 1.24-2.678 2.759-2.678 1.539 0 2.758 1.199 2.758 2.678 0 1.479-1.22 2.678-2.758 2.678-1.52 0-2.759-1.199-2.759-2.678z" fill="#bedceb" fill-rule="evenodd" fill-opacity="1" stroke="none"/><path d="M68.638 79.312c0-1.48 1.24-2.678 2.759-2.678 1.539 0 2.758 1.199 2.758 2.678 0 1.479-1.22 2.678-2.758 2.678-1.52 0-2.759-1.199-2.759-2.678" fill="none" stroke="#fff" stroke-width=".79951543px" stroke-linecap="round" stroke-linejoin="round" stroke-miterlimit="4" stroke-dasharray="none" stroke-opacity="1"/><path d="M70.797 83.71c0-1.24.94-2.28 2.079-2.28 1.16 0 2.079 1.04 2.079 2.28 0 1.259-.92 2.278-2.08 2.278-1.138 0-2.078-1.02-2.078-2.279z" fill="#bedceb" fill-rule="evenodd" fill-opacity="1" stroke="none"/><path d="M70.797 83.71c0-1.24.94-2.28 2.079-2.28 1.16 0 2.079 1.04 2.079 2.28 0 1.259-.92 2.278-2.08 2.278-1.138 0-2.078-1.02-2.078-2.279" fill="none" stroke="#fff" stroke-width=".79951543px" stroke-linecap="round" stroke-linejoin="round" stroke-miterlimit="4" stroke-dasharray="none" stroke-opacity="1"/><path d="M71.996 71.117c0-1.1.86-1.999 1.92-1.999 1.059 0 1.918.9 1.918 1.999 0 1.12-.86 1.999-1.919 1.999-1.06 0-1.919-.88-1.919-2z" fill="#bedceb" fill-rule="evenodd" fill-opacity="1" stroke="none"/><path d="M71.996 71.117c0-1.1.86-1.999 1.92-1.999 1.059 0 1.918.9 1.918 1.999 0 1.12-.86 1.999-1.919 1.999-1.06 0-1.919-.88-1.919-2" fill="none" stroke="#fff" stroke-width=".79951543px" stroke-linecap="round" stroke-linejoin="round" stroke-miterlimit="4" stroke-dasharray="none" stroke-opacity="1"/><path d="M91.984 55.486c0-1.819 1.42-3.318 3.158-3.318 1.76 0 3.158 1.5 3.158 3.318 0 1.84-1.399 3.318-3.158 3.318-1.739 0-3.158-1.479-3.158-3.318z" fill="#bedceb" fill-rule="evenodd" fill-opacity="1" stroke="none"/><path d="M91.984 55.486c0-1.819 1.42-3.318 3.158-3.318 1.76 0 3.158 1.5 3.158 3.318 0 1.84-1.399 3.318-3.158 3.318-1.739 0-3.158-1.479-3.158-3.318" fill="none" stroke="#fff" stroke-width=".79951543px" stroke-linecap="round" stroke-linejoin="round" stroke-miterlimit="4" stroke-dasharray="none" stroke-opacity="1"/><path d="M77.393 12.193c-2.918.46-3.338 2.238-2.918 4.897.42 3.557-.42 4.457-2.918 6.236-2.939 2.658-2.1 4.877-2.519 8.894-.42 5.337-3.758 10.214-2.079 15.551 0-3.998 1.66-13.772 6.257-14.231-.42-3.098-2.499-4.438 0-7.556 1.259-1.339 5.416-1.339 5.416-3.118 0-.88-1.239-2.219-1.659-3.098-.42-.9-.42-2.678-.42-3.558.42-1.779 1.68-2.238 1.68-4.017z" fill="#fff" fill-rule="evenodd" fill-opacity="1" stroke="none"/></svg>