<svg xmlns="http://www.w3.org/2000/svg" version="1.0" viewBox="0 0 518.854 49.323"><defs><clipPath clipPathUnits="userSpaceOnUse" id="a"><path d="M-.16 3.038h518.246v49.33H-.16z"/></clipPath></defs><path clip-path="url(#a)" d="M163.101 12.872c34.5 13.152 72.716-5.277 108.494-6.596 33.26-1.319 65.32 11.193 99.22 13.832 17.87 1.319 35.739 3.278 54.207 5.277 9.275 1.279 19.748 6.556 29.582 7.235 20.988 2.599 40.696 1.32 62.243 3.918-21.547.68-42.494 5.277-64.081 1.999-19.708-3.318-38.817-5.277-59.165-3.318-22.786 2.638-41.894-3.278-64.72-.64-28.943 2.638-57.925 17.75-86.868 16.47-14.191-.68-25.904-10.554-39.456-15.15-12.352-3.958-22.186-9.875-35.738-11.834-14.191-2.638-32.66-9.874-46.852-9.234-39.456-.64-52.368-7.236-75.794-1.959-22.826 5.237-32.66 1.32-43.174.64 10.514 0 25.305-1.959 42.535-7.236C60.804 1 79.912 7.596 99.62 7.596c19.748 0 36.378-5.277 63.481 5.276z" fill="#f9b500" fill-rule="evenodd" fill-opacity="1" stroke="none"/><path clip-path="url(#a)" d="M235.657 36.618c17.91 19.068 55.527-.64 75.834-3.958 16.67-2.598 30.862-2.598 47.491-.64 20.948 1.96 43.774-5.916 64.721.64-19.108-11.833-41.295-3.917-62.882-5.916-16.63-1.32-41.295 3.318-57.925-.64-19.148-5.277-45.652-10.553-61.682 1.959z" fill="#f29400" fill-rule="evenodd" fill-opacity="1" stroke="none"/><path d="M230.84 31.321c.62 5.896 16.61 9.174 35.079 6.556 19.068-2.618 33.22-8.535 31.38-14.431-1.838-6.576-25.224-7.895-38.756-5.257-12.932 2.618-28.323 6.556-27.703 13.132z" fill="#933b72" fill-rule="evenodd" fill-opacity="1" stroke="none"/><path d="M275.853 20.148c-14.212-1.32-25.345 1.319-32.14 5.237-7.416 3.937-9.895 5.896-1.24 8.514 8.035 1.96 15.45 1.32 21.627-1.958 5.577-3.278 10.514-6.556 16.07-5.897 6.176 1.3 2.479-5.237-4.317-5.896z" fill="#b984a2" fill-rule="evenodd" fill-opacity="1" stroke="none"/><path d="M251.767 22.826c-7.975 1.979-14.75 10.554-5.536 9.894 4.317-.66 3.698-3.298 6.756-5.277 2.458-1.978 9.214 0 9.214-4.617 0-1.999-6.136-1.999-10.434 0z" fill="#d5b9c9" fill-rule="evenodd" fill-opacity="1" stroke="none"/><path d="M187.047 27.303c12.332 4.598 24.045 8.555 35.738 15.131 12.333 7.236 25.904 8.535 38.217 1.32-6.156.64-11.693 1.299-17.87 0-8.014-1.32-14.79-6.577-22.186-10.534-7.395-3.278-14.171-7.236-22.186-7.895-4.937-.66-9.874 0-14.192 0z" fill="#f29400" fill-rule="evenodd" fill-opacity="1" stroke="none"/><path d="M211.052 20.787c8.655-.66 16.69-5.236 25.964-5.236-3.078.66-6.796 1.319-9.274 2.618-3.078 1.959-3.698 4.577-5.557 5.896-3.717 2.599-8.035-4.577-12.992-3.278z" fill="#ffe7b8" fill-rule="evenodd" fill-opacity="1" stroke="none"/><path d="M196.88 22.107c4.318 0 8.635-2 12.353-2.659 4.318 0 8.015-.66 12.333-1.319 8.634-1.979 17.27-5.297 27.123-5.297-11.093 1.34-19.108 5.957-27.123 12.573-6.177 4.617-11.114-3.298-18.51-2.639zM267.798 10.314c6.776 0 10.473-1.32 17.869-1.32 6.156 0 15.39 1.32 22.166 3.279 13.552 4.577 28.963 5.236 43.114 8.514-9.234-.66-17.849-.66-27.083-.66-4.937 0-11.094 3.259-16.03 1.3-1.84-.64-3.678-3.258-5.537-4.577-2.459-1.3-6.156-2.619-9.235-3.258-4.317-1.32-9.234-3.278-13.551-3.278z" fill="#ffe7b8" fill-rule="evenodd" fill-opacity="1" stroke="none"/><path d="M296.82 12.832c1.859 0 3.698.68 5.537 1.36 1.239.659 1.859 1.339 3.078 1.998 1.24.68 2.458 2.019 3.078 2.699 1.859.66 1.859-.68 4.317-.68 1.84-.66 4.298.68 6.137 0-4.298-3.358-11.074-4.018-15.99-4.697zM213.51 20.787c3.119 1.3 6.876-1.958 9.355 0-1.24.64-3.118 2.599-4.357 2.599-1.88.64-2.499-.66-4.358-.66zM224.604 18.869c-.62.66 0 1.319 0 1.958 1.839 0 4.897-3.278 1.839-3.278z" fill="#fff" fill-rule="evenodd" fill-opacity="1" stroke="none"/><path clip-path="url(#a)" d="M163.141 12.912c34.5 13.152 72.716-5.277 108.494-6.596 33.26-1.319 65.32 11.193 99.22 13.832 17.87 1.319 35.739 3.278 54.207 5.277 9.275 1.279 19.748 6.556 29.582 7.235 20.988 2.599 40.696 1.32 62.243 3.918-21.547.68-42.495 5.277-64.081 1.999-19.708-3.318-38.817-5.277-59.165-3.318-22.786 2.638-41.894-3.278-64.72-.64-28.943 2.638-57.925 17.75-86.868 16.47-14.191-.68-25.904-10.554-39.456-15.15-12.352-3.958-22.186-9.875-35.738-11.834-14.192-2.638-32.66-9.874-46.852-9.234-39.456-.64-52.368-7.236-75.794-1.959-22.826 5.237-32.66 1.32-43.174.64 10.514 0 25.305-1.959 42.535-7.236 17.27-5.277 36.378 1.32 56.086 1.32 19.748 0 36.378-5.277 63.481 5.276" fill="none" stroke="#000" stroke-width="1.0393701px" stroke-linecap="round" stroke-linejoin="round" stroke-miterlimit="4" stroke-dasharray="none" stroke-opacity="1"/><path d="M230.88 31.361c.62 5.896 16.61 9.174 35.079 6.556 19.068-2.618 33.22-8.535 31.38-14.431-1.838-6.576-25.224-7.895-38.756-5.257-12.932 2.618-28.323 6.556-27.703 13.132" fill="none" stroke="#000" stroke-width="1.0393701px" stroke-linecap="round" stroke-linejoin="round" stroke-miterlimit="4" stroke-dasharray="none" stroke-opacity="1"/><path d="M231.98 23.746c0-2.699 2.098-4.917 4.677-4.917 2.598 0 4.677 2.218 4.677 4.917 0 2.718-2.079 4.917-4.677 4.917-2.579 0-4.678-2.199-4.678-4.917zM243.173 19.828c0-1.639 1.239-2.998 2.758-2.998 1.539 0 2.758 1.359 2.758 2.998 0 1.659-1.219 2.998-2.758 2.998-1.52 0-2.758-1.339-2.758-2.998zM228.382 31.341c0-1.48 1.219-2.678 2.718-2.678 1.519 0 2.718 1.199 2.718 2.678 0 1.48-1.199 2.678-2.718 2.678-1.5 0-2.718-1.199-2.718-2.678z" fill="#fff" fill-rule="evenodd" fill-opacity="1" stroke="none"/></svg>