<svg xmlns="http://www.w3.org/2000/svg" version="1.0" viewBox="0 0 466.091 52.12"><defs><clipPath clipPathUnits="userSpaceOnUse" id="a"><path d="M-.16-.16h465.558V51.97H-.16z"/></clipPath></defs><path clip-path="url(#a)" d="M1 10.873C5.955 6.916 39.255 1.68 52.847 1.68c28.982.64 57.365 6.556 85.708 7.236 26.544 0 51.209-7.916 77.113-7.916 24.066.68 49.37 7.916 72.157 17.11 20.987 7.875 44.413 14.431 67.239 14.431 16.07-.64 29.022-8.515 45.053-4.597 16.03 4.597 30.82 13.152 46.851 17.11 6.196 1.319 12.952-.68 17.27-.68-7.996 2.639-18.47 3.958-27.104 1.999-11.113-2.639-25.944-11.193-37.657-12.513-14.791-1.958-22.826 3.278-37.617 7.236-18.51 4.597-38.857-7.236-57.965-9.834-11.113-1.999-22.227.64-31.461 5.876-14.831 8.555-24.665 15.111-41.335 13.153-12.952-1.96-23.426-4.598-31.461-9.195-9.234-6.556-20.348-15.75-30.861-19.068-22.786-7.876-46.852-7.196-70.318-10.514-21.587-2.598-36.977-7.196-58.564-5.237-6.796.64-33.94 1.959-38.897 4.597z" fill="#f9b500" fill-rule="evenodd" fill-opacity="1" stroke="none"/><path d="M157.105 15.51c22.826-.679 35.738 22.307 56.086 27.584 10.513 2.598 22.226 5.876 32.7 3.278 6.156-1.959 11.073-6.556 17.27-9.195 6.156-2.638 13.551-5.276 20.307-7.235-5.516 0-13.552.68-19.708-.64-4.317-.68-6.156-1.959-9.874-3.957-4.317-1.96-9.874-1.96-14.79-1.96-7.396-.639-14.792-2.638-21.588-1.318-3.078.68-5.516 1.319-8.635.68-1.838 0-3.677-1.32-5.516-1.32-.64 11.793-11.713 0-15.43-1.999-6.797-3.917-12.313-4.597-19.709-3.917-4.957 0-10.514 1.319-14.831 0z" fill="#f29400" fill-rule="evenodd" fill-opacity="1" stroke="none"/><path d="M203.836 23.306c0 9.234 10.514 15.19 27.864 15.19 12.352.64 22.266-1.998 23.465-12.552 0-15.15-50.09-20.467-51.329-2.638z" fill="#933b72" fill-rule="evenodd" fill-opacity="1" stroke="none"/><path d="M245.211 18.709c-12.312-6.596-23.985-4.598-31.38-2-6.756 3.319-10.474 7.916-3.678 13.793 3.078 3.278 5.516 3.278 9.234 3.278 3.078 0 9.194-7.196 12.273-8.515 6.156-1.96 10.473 0 16.03-.64 6.116 0 3.678-3.318-2.479-5.916z" fill="#b984a2" fill-rule="evenodd" fill-opacity="1" stroke="none"/><path d="M221.186 16.79c-8.635.68-12.952 6.596-8.635 9.874 1.24 1.28 4.917-2.639 8.635-4.597 2.438-1.32 10.474-.68 11.073-2.639.6-3.278-6.156-3.957-11.073-2.638z" fill="#d5b9c9" fill-rule="evenodd" fill-opacity="1" stroke="none"/><path d="M179.211 8.235c24.066-6.596 53.648-5.916 76.434 4.637-6.756-2.638-15.39-3.318-22.786-5.277-7.995-1.998-16.03-1.998-24.665.64-2.439.68-4.917 1.999-7.396 4.637-1.839 3.278-1.839 4.597-6.756 3.958-4.957-.68-6.795-7.276-12.352-6.596z" fill="#ffe7b8" fill-rule="evenodd" fill-opacity="1" stroke="none"/><path d="M241.494 7.475c8.075 0 16.71 2.679 24.145 5.317 8.035 3.278 16.07 6.596 24.705 9.235-3.678-.68-8.035-2-11.713-1.32-2.478 0-4.957 1.96-7.435 1.96-3.079-.64-7.436-2.64-9.914-4.598-4.917-3.318-10.514-7.915-16.07-8.595z" fill="#ffe7b8" fill-rule="evenodd" fill-opacity="1" stroke="none"/><path d="M260.122 13.472c2.439 1.319 4.278 4.557 6.716 5.197 1.84.64 3.678 0 5.517.64-.6-1.92-3.678-1.92-4.877-3.239-3.078-1.279-4.917-1.919-7.995-2.598zM187.207 9.474c1.878 0 3.118.68 4.357 1.36 1.24.639 1.24 2.638 3.118 1.998 1.24-.68 3.078-2.678 3.718-3.358 1.239-.64 3.078-1.319 4.317-1.319-3.718-.68-9.914-.68-12.992 1.32zM204.476 6.156c-.64 3.318 1.879 2.679 4.397 2 0-1.32-1.239-2-2.518-2.68z" fill="#fff" fill-rule="evenodd" fill-opacity="1" stroke="none"/><path clip-path="url(#a)" d="M1.04 10.913C5.995 6.956 39.295 1.72 52.887 1.72c28.982.64 57.365 6.556 85.708 7.236 26.544 0 51.209-7.916 77.113-7.916 24.066.68 49.37 7.916 72.157 17.11 20.987 7.875 44.413 14.431 67.239 14.431 16.07-.64 29.022-8.515 45.052-4.597 16.03 4.597 30.822 13.152 46.852 17.11 6.196 1.319 12.952-.68 17.27-.68-7.996 2.638-18.47 3.958-27.104 1.999-11.113-2.639-25.944-11.193-37.657-12.513-14.791-1.958-22.826 3.278-37.617 7.236-18.51 4.597-38.857-7.236-57.965-9.834-11.113-1.999-22.227.64-31.461 5.876-14.831 8.555-24.665 15.111-41.335 13.152-12.952-1.958-23.426-4.597-31.461-9.194-9.234-6.556-20.348-15.75-30.861-19.068C146.03 14.19 121.966 14.87 98.5 11.553 76.913 8.955 61.523 4.357 39.936 6.316c-6.796.64-33.94 1.959-38.897 4.597" fill="none" stroke="#000" stroke-width="1.0393701px" stroke-linecap="round" stroke-linejoin="round" stroke-miterlimit="4" stroke-dasharray="none" stroke-opacity="1"/><path d="M203.876 23.346c0 9.234 10.514 15.19 27.864 15.19 12.352.64 22.266-1.998 23.465-12.552 0-15.15-50.09-20.467-51.329-2.638" fill="none" stroke="#000" stroke-width="1.0393701px" stroke-linecap="round" stroke-linejoin="round" stroke-miterlimit="4" stroke-dasharray="none" stroke-opacity="1"/><path d="M207.674 13.432c0-2.599 2.439-4.597 4.917-3.918 2.439 0 4.278 2.599 3.678 5.237 0 2.598-2.439 4.557-4.917 3.918-2.439 0-4.317-2.599-3.678-5.237zM218.707 11.513c0-1.999 1.92-2.678 3.159-2.678 1.279 0 2.518 1.359 2.518 3.358-.6 1.319-1.879 2.638-3.118 1.998-1.919 0-2.559-1.359-2.559-2.678zM202.717 20.627c0-1.998 1.24-2.678 3.078-2.678 1.24 0 2.439 1.999 1.84 3.358 0 1.32-1.24 2.638-2.44 2.638-1.838-.64-2.478-1.998-2.478-3.318z" fill="#fff" fill-rule="evenodd" fill-opacity="1" stroke="none"/></svg>