<svg xmlns="http://www.w3.org/2000/svg" version="1.0" viewBox="0 0 323.679 535.975"><defs><clipPath clipPathUnits="userSpaceOnUse" id="a"><path d="M.64 0h323.324v536.395H.64z"/></clipPath></defs><path d="M4.917 24.825s47.012 23.006 48.33 82.59c1.3 59.924 0 321.245 0 321.245S49.33 487.205 1.32 500.437l25.485 5.217s42.754-13.932 44.073-77.334c.98-65.86 0-314.989 0-314.989s4.557-53.307-34.619-82.93L4.917 24.826z" fill="#eda5c3" fill-rule="evenodd" fill-opacity="1" stroke="none"/><path d="M179.451 482.627s42.814-13.911 44.133-76.993c1-66.2 0-315.369 0-315.369s4.558-53.327-34.659-82.95L35.939 30.702c38.897 29.582 34.3 82.91 34.3 82.91s1.319 249.17 0 315.01c-.96 63.44-44.134 77.352-44.134 77.352l153.347-23.346z" fill="#dc86b3" fill-rule="evenodd" fill-opacity="1" stroke="none"/><path d="m6.436 24.825 31.181 6.476L188.806 7.316l-28.623-5.997L6.436 24.825z" fill="#f4dde8" fill-rule="evenodd" fill-opacity="1" stroke="none"/><path clip-path="url(#a)" d="M4.297 24.865s47.672 23.006 48.99 82.59c1.3 59.924 0 321.245 0 321.245S49.37 487.245 1.36 500.477l25.485 5.217s42.754-13.932 44.073-77.334c.98-65.86 0-314.989 0-314.989s4.557-53.307-34.619-82.93l-32-5.576z" fill="none" stroke="#343434" stroke-width="1.3591763px" stroke-linecap="round" stroke-linejoin="round" stroke-miterlimit="4" stroke-dasharray="none" stroke-opacity="1"/><path d="M179.491 482.667s42.814-13.911 44.133-76.993c1-66.2 0-315.369 0-315.369s4.558-53.327-34.659-82.95L35.978 30.742c38.897 29.582 34.3 82.91 34.3 82.91s1.319 249.17 0 315.01c-.96 63.44-44.134 77.352-44.134 77.352l153.347-23.346z" fill="none" stroke="#343434" stroke-width="1.3591763px" stroke-linecap="round" stroke-linejoin="round" stroke-miterlimit="4" stroke-dasharray="none" stroke-opacity="1"/><path d="m4.317 24.865 32.34 6.156L188.847 7.396l-28.623-6.037L4.317 24.865z" fill="none" stroke="#343434" stroke-width="1.3591763px" stroke-linecap="round" stroke-linejoin="round" stroke-miterlimit="4" stroke-dasharray="none" stroke-opacity="1"/><path d="M79.032 119.568v88.746s40.216-48.71 0-88.746z" fill="#b6d8ae" fill-rule="evenodd" fill-opacity="1" stroke="none"/><path d="M79.072 119.288v88.746s40.216-48.37 0-88.746" fill="none" stroke="#343434" stroke-width="1.3591763px" stroke-linecap="round" stroke-linejoin="round" stroke-miterlimit="4" stroke-dasharray="none" stroke-opacity="1"/><path d="M83.91 127.243c1.658 2.438 1.998 5.577 2.658 8.355.34.7.66 1.739 1.319 2.438.66.36 1.999.36 2.978 1.04-1.32-2.419-1.979-4.857-3.298-6.956-1-1.739-2.319-2.778-3.658-4.517zM84.949 193.683c0 2.118-1.6 4.937-2.24 7.035 1.28-1.759 3.199-4.557 3.199-6.676-.32-.36-.64-.36-1.28-.36z" fill="#9ccb99" fill-rule="evenodd" fill-opacity="1" stroke="none"/><path d="M79.032 225.503v88.747s40.216-48.71 0-88.747z" fill="#b6d8ae" fill-rule="evenodd" fill-opacity="1" stroke="none"/><path d="M79.072 225.224v88.746s40.216-48.371 0-88.747" fill="none" stroke="#343434" stroke-width="1.3591763px" stroke-linecap="round" stroke-linejoin="round" stroke-miterlimit="4" stroke-dasharray="none" stroke-opacity="1"/><path d="M83.91 233.179c1.658 2.438 1.998 5.576 2.658 8.355.34.7.66 1.739 1.319 2.438.66.36 1.999.36 2.978 1.04-1.32-2.419-1.979-4.858-3.298-6.956-1-1.74-2.319-2.779-3.658-4.518zM84.949 299.778c0 2.08-1.6 4.817-2.24 6.876 1.28-1.719 3.199-4.457 3.199-6.516-.32-.36-.64-.36-1.28-.36z" fill="#9ccb99" fill-rule="evenodd" fill-opacity="1" stroke="none"/><path d="M79.032 340.474v88.906s40.216-48.81 0-88.906z" fill="#b6d8ae" fill-rule="evenodd" fill-opacity="1" stroke="none"/><path d="M79.072 340.114V429.1s40.216-48.85 0-88.986" fill="none" stroke="#343434" stroke-width="1.3591763px" stroke-linecap="round" stroke-linejoin="round" stroke-miterlimit="4" stroke-dasharray="none" stroke-opacity="1"/><path d="M83.91 348.07c1.658 2.438 1.998 5.576 2.658 8.014.34 1.04.66 2.079 1.319 2.779.66.36 1.999.36 2.978 1.039-1.32-2.419-1.979-4.857-3.298-6.956-1-1.739-2.319-3.118-3.658-4.517zM84.949 414.749c0 2.098-1.6 4.877-2.24 6.955 1.28-1.739 3.199-4.517 3.199-6.955h-1.28z" fill="#9ccb99" fill-rule="evenodd" fill-opacity="1" stroke="none"/><path d="M145.432 52.688s-39.216 7.316-40.536 67.24c-1.279 59.963 0 321.325 0 321.325s-2.598 59.603 67.28 93.743l-40.496-6.956s-43.094-24.025-44.413-87.107c-.96-66.24 0-315.09 0-315.09s-7.196-48.41 32.02-78.072l26.145 4.917z" fill="#eda5c3" fill-rule="evenodd" fill-opacity="1" stroke="none"/><path d="M322.565 509.93c-69.958-34.138-67.32-93.742-67.32-93.742s-1.319-261.362 0-321.286c1.32-59.963 37.897-66.24 37.897-66.24l-147.75 24.066s-39.216 7.316-40.536 67.24c-1.319 59.963 0 321.325 0 321.325s-2.638 59.563 67.36 93.703l150.349-25.065z" fill="#dc86b3" fill-rule="evenodd" fill-opacity="1" stroke="none"/><path d="m119.248 47.811 25.504 5.157 148.71-24.785-24.145-5.197-150.07 24.825z" fill="#f4dde8" fill-rule="evenodd" fill-opacity="1" stroke="none"/><path clip-path="url(#a)" d="M145.472 52.728s-39.216 7.316-40.536 67.24c-1.279 59.963 0 321.325 0 321.325s-2.598 59.603 67.28 93.743l-40.496-6.956s-43.094-24.025-44.413-87.107c-.96-66.24 0-315.09 0-315.09s-7.196-48.41 32.02-78.072l26.145 4.917z" fill="none" stroke="#343434" stroke-width="1.3591763px" stroke-linecap="round" stroke-linejoin="round" stroke-miterlimit="4" stroke-dasharray="none" stroke-opacity="1"/><path clip-path="url(#a)" d="M322.604 509.97c-69.957-34.138-67.319-93.742-67.319-93.742s-1.319-261.362 0-321.286c1.32-59.963 37.897-66.24 37.897-66.24l-147.75 24.066s-39.216 7.316-40.536 67.24c-1.319 59.963 0 321.325 0 321.325s-2.638 59.563 67.36 93.703l150.348-25.065z" fill="none" stroke="#343434" stroke-width="1.3591763px" stroke-linecap="round" stroke-linejoin="round" stroke-miterlimit="4" stroke-dasharray="none" stroke-opacity="1"/><path d="m119.288 47.851 25.504 5.157 148.71-24.785-24.145-5.197-150.07 24.825z" fill="none" stroke="#343434" stroke-width="1.3591763px" stroke-linecap="round" stroke-linejoin="round" stroke-miterlimit="4" stroke-dasharray="none" stroke-opacity="1"/><path d="m55.286 131.68 12.633 2.039s-7.116-4.797-12.633-2.039zM88.866 137.956l14.391 2.799s-9.154-7.356-14.39-2.799zM55.606 237.336l13.672 2.479s-10.733-5.677-13.672-2.479zM88.866 243.932l13.672 2.039s-10.734-5.117-13.672-2.039zM55.286 352.027l13.592 2.758s-8.075-5.197-13.592-2.758zM88.866 358.623l13.992 2.798s-10.394-6.316-13.992-2.798z" fill="#f4dde8" fill-rule="evenodd" fill-opacity="1" stroke="none"/><path d="m55.286 185.048 13.992 3.838s-11.713 0-13.992-3.838zM88.546 194.562l13.352 3.118s-10.094 1.04-13.352-3.118zM55.286 290.664l13.992 4.157s-10.394 0-13.992-4.157zM88.546 299.778l13.992 4.198s-9.754.68-13.992-4.198zM54.887 405.394l13.671 4.138s-8.135 1.699-13.671-4.138zM88.227 414.749l15.03 4.457s-12.412.34-15.03-4.457z" fill="#dc86b3" fill-rule="evenodd" fill-opacity="1" stroke="none"/><path d="m12.113 27.783 23.186 4.637s-17.63-.7-23.186-4.637zM119.248 49.13l19.588 3.818s-17.63.34-19.588-3.818zM37.617 27.783 178.492 7.316S47.77 21.227 37.617 27.783zM146.031 50.09l137.597-22.627S156.505 43.133 146.032 50.09z" fill="#fff" fill-rule="evenodd" fill-opacity="1" stroke="none"/><path d="M190.525 199.639c3.597 8.355 7.155 12.552 6.516 25.425-.64 18.868-2.919 15.35-5.237 21.986-2.279 13.952-12.393 20.908-21.867 20.908-9.434 0-17.63-8.715-22.187-21.587-5.236-7.356-4.877-13.272-4.877-20.948 0-7.995 0-15.67 5.197-22.306 4.597-12.552 6.556-19.188 21.867-20.947 8.515 0 17.63 5.236 20.588 17.469zM236.936 126.243c3.958 8.355 7.516 12.553 6.876 25.785-.64 18.828-2.918 14.99-5.237 21.627-2.278 13.951-12.752 20.907-21.906 20.907-9.475 0-17.95-8.715-22.227-21.587-5.237-7.355-4.877-13.272-4.877-20.947 0-7.995 0-15.67 5.197-22.307 4.277-12.552 6.556-19.188 21.907-20.947 8.195 0 17.669 5.237 20.267 17.47zM190.205 318.287c3.917 8.355 7.475 12.552 6.836 25.784-.96 18.83-2.919 14.991-5.237 21.627-2.279 13.952-12.713 20.908-21.867 20.908-9.434 0-17.95-8.715-22.187-21.587-5.236-7.356-5.236-13.272-5.236-20.948 0-7.995 0-15.67 5.556-22.306 4.238-12.552 6.556-19.188 21.867-20.947 8.195 0 17.63 5.237 20.268 17.47zM238.296 394.241c3.917 8.355 7.515 12.552 6.875 25.425-.64 18.868-2.958 15.35-5.236 21.627-2.279 14.31-12.753 21.267-21.947 21.267-9.474 0-17.99-8.715-22.267-21.587-5.236-7.356-5.236-13.272-5.236-20.948 0-7.995 0-16.03 5.596-22.306 4.238-12.552 6.516-19.188 21.907-20.947 8.195 0 17.71 5.236 20.308 17.47zM244.452 259.603c3.917 8.355 7.515 12.552 6.876 25.424-.96 18.869-2.959 15.351-5.237 21.627-2.279 14.311-12.752 21.267-21.947 21.267-9.474 0-17.989-8.714-22.266-21.587-5.237-7.355-5.237-13.272-5.237-20.947 0-7.995 0-16.03 5.596-22.306 4.238-12.553 6.516-19.189 21.907-20.948 8.195 0 17.71 5.237 20.308 17.47z" fill="#cb629d" fill-rule="evenodd" fill-opacity="1" stroke="none"/><path d="M186.007 317.168c3.598 8.355 7.196 12.872 6.876 25.744-.96 18.829-3.278 15.35-5.557 21.587-2.278 14.271-12.432 21.227-21.946 21.227-9.474 0-17.67-8.675-22.267-21.547-5.237-7.675-4.877-13.232-4.877-21.267 0-7.995 0-15.63 5.237-22.266 4.557-12.193 6.516-19.149 21.907-20.548 8.515 0 17.709 5.237 20.627 17.07z" fill="#b6d8ae" fill-rule="evenodd" fill-opacity="1" stroke="none"/><path d="M157.864 342.752c0-6.995 3.358-12.672 7.476-12.672 4.157 0 7.475 5.677 7.475 12.672 0 7.036-3.318 12.673-7.475 12.673-4.118 0-7.476-5.637-7.476-12.673z" fill="#9ccb99" fill-rule="evenodd" fill-opacity="1" stroke="none"/><path d="M187.286 320.726c4.918 5.916 5.557 13.911 5.557 22.266 0 7.995-1.28 17.75-5.557 22.267-.959 11.832-12.752 20.507-21.906 20.507-8.795 0-19.908-8.675-21.547-19.828-4.597-4.877-5.917-15.31-5.917-23.985 0-8.715 1.32-18.11 6.237-22.986 1.639-12.513 11.113-18.789 21.227-18.789 11.473-.36 20.947 7.675 21.906 20.548" fill="none" stroke="#343434" stroke-width="1.3591763px" stroke-linecap="round" stroke-linejoin="round" stroke-miterlimit="4" stroke-dasharray="none" stroke-opacity="1"/><path d="M157.904 342.792c0-6.996 3.358-12.672 7.476-12.672 4.157 0 7.475 5.676 7.475 12.672 0 7.036-3.318 12.673-7.475 12.673-4.118 0-7.476-5.637-7.476-12.673M172.216 349.628l14.151 15.35M144.712 320.286l14.551 15.35M159.263 350.268l-14.87 15.67M186.687 321.325l-14.471 15.351" fill="none" stroke="#343434" stroke-width="1.3591763px" stroke-linecap="round" stroke-linejoin="round" stroke-miterlimit="4" stroke-dasharray="none" stroke-opacity="1"/><path d="M184.968 326.522c2.598-5.237 4.237 2.798 4.557 5.237.64 4.557 1.28 9.434 1.28 13.991-.32 3.838-.96 8.036-1.92 11.513-.68 2.439-1.319 6.956-4.237 4.198-1-.72-2.279-2.479-2.958-3.518 2.638.72 3.918.36 4.917-2.798 1.28-3.838 1.28-7.995 1.28-12.193 0-3.478-.32-6.996-.64-10.474 0-1.758-.64-4.877-2.28-5.956zM166.34 301.857c1.998-.72 7.235.68 9.194 1.719 2.638 1.4 4.917 4.877 6.915 7.675 1.64 2.399 2.919 5.557 2.279 8.675-.64 3.118-3.918 4.517-5.557 6.956-.36.32-.68.68-.999 1.36.64-3.119 1.959-5.558 1.959-8.676.32-3.478-1.32-6.236-2.599-9.034-1.319-2.759-2.638-4.877-5.276-6.236-.96-.72-1.96-1.4-3.278-1.76-.64-.32-1.96-.32-2.279-.679zM173.135 354.105c0-.36 1 1.04 1.64 1.76.679.679 1.318 1.398 1.998 2.078 1 1.08 1.959 2.119 3.278 3.158 2.318 2.119 4.597 3.838 3.957 7.715-.999 6.277-7.915 12.233-13.511 13.952 2.318-2.438 4.957-4.157 6.276-6.956 1.32-2.478 1.639-5.277 1.639-8.075-.32-4.517-2.958-10.474-5.597-13.991zM153.007 331.759c1.62 1.4 3.258 2.458 3.578 4.557.32 1.74.32 4.537 0 6.636 0 2.099.64 4.877.32 6.976 0 1.759-2.599 3.858-3.898 4.537 1.94-3.837 1.94-7.335 2.279-11.873 0-1.739.32-3.837 0-5.576-.66-1.76-1.959-2.799-2.619-4.198z" fill="#9ccb99" fill-rule="evenodd" fill-opacity="1" stroke="none"/><path d="M143.793 322.624c-2.279 1.76-3.258 8.375-3.578 10.814-.66 3.138-.66 6.976-.66 10.114 0 3.837 0 7.315.66 11.153.32 1.759 1.3 7.336 3.578 8.375 1.639.34 3.917-3.138 4.557-4.178-.96-.36-2.598.7-3.578.34-1.299-.7-1.959-3.478-2.278-4.877-1.62-4.537-1.96-9.774-1.62-14.65.64-3.839.98-7.676 1.62-11.514.32-2.079 3.917-5.577 5.216-2.438-1.299-1.04-2.598-2.779-3.917-3.838-.32 0-.32.36-.32.36zM150.649 323.424c-1.32-1.4-2.639-3.498-3.298-5.237-1-2.798.66-5.596 1.978-7.695 2.959-4.557 6.257-5.957 10.854-7.356-4.277 2.099-8.555 5.597-10.534 10.154-.98 2.798-1.319 8.395 1 10.474zM154.926 357.583c-1.979 2.439-4.297 4.178-6.616 6.256-.66.7-1.979 1.74-2.638 2.419-.68 1.4 0 1.739.66 3.118 1.319 2.778 2.638 5.557 4.956 7.636 1.32 1.039 2.659 2.438 3.978 3.118 1.659.7 2.978 1.039 4.637 1.739.66 0 .98.34 1.64.34-2.3-2.08-4.958-3.798-6.937-6.237-1.998-1.739-4.317-3.818-4.977-6.596-.98-2.418-.32-4.157 1.34-5.896 1.639-1.72 2.638-4.158 3.957-5.537z" fill="#cfe5cb" fill-rule="evenodd" fill-opacity="1" stroke="none"/><path d="M166.02 332.079c3.837.36 4.796 7.715 4.796 10.873 0 2.439-.32 4.557-.959 6.636-.64 1.04-2.239 3.838-3.838 3.158 0-2.118 1.92-4.197 2.239-5.956.64-2.079.64-4.198.32-6.636 0-2.798-.96-5.957-2.878-8.075z" fill="#b6d8ae" fill-rule="evenodd" fill-opacity="1" stroke="none"/><path d="M168.018 333.118c.32 1.44 1.919 2.479 2.559 4.238.64 1.758.64 3.517.64 5.596 0 2.838-.64 8.115-3.519 9.834 1.92-3.478 3.198-6.636 2.879-10.873-.32-2.439-.96-6.676-2.559-8.435z" fill="#cfe5cb" fill-rule="evenodd" fill-opacity="1" stroke="none"/><path d="M142.554 325.123c0 2.438-1.32 5.217-2 7.655-.659 2.779-.999 5.577-.999 8.355 0 5.557 0 14.611 3.998 18.769-2.998-4.857-2.998-12.852-2.658-18.769 0-4.177-.34-10.094 1.339-13.911zM149.71 309.772c-.32 2.479-2.66 3.878-2.34 6.676.34 2.819 3.019 4.577 4.338 6.676-2.319-2.458-5.677-9.474-2.319-12.292zM150.689 361.74c-.32 3.479-5.297 4.178-4.298 7.996 1 3.138 3.318 6.276 6.276 7.995-1.639-1.719-3.957-4.517-4.957-6.936-1.319-3.478.66-4.517 2.32-7.315zM161.542 329.7c-.66 1.72-2.658 3.118-3.318 5.197-1 2.079-1.679 4.857-1.679 7.296.34 4.517 1 10.753 4.338 13.871-3.998-1.379-5.337-10.413-4.997-14.231.34-3.458 1.659-13.192 5.656-12.493z" fill="#fff" fill-rule="evenodd" fill-opacity="1" stroke="none"/><path d="M170.497 328.321c4.357 2.079 6.356 7.995 6.356 12.472 1.639-1.719 1.959-5.876 1-7.955-.68-1.759-3.998-5.237-5.677-4.517z" fill="#b6d8ae" fill-rule="evenodd" fill-opacity="1" stroke="none"/><path d="M169.697 326.202c2.599 1.4 4.198 3.158 6.156 5.237.96 1.08 1.6 2.119 2.24 3.158.639 1.4.958 2.799 1.918 3.478.32-2.438-1.6-6.956-3.198-9.074-.64-1.4-1.959-2.439-3.238-3.118-1.28-.72-3.518-.36-3.878-1.08z" fill="#cfe5cb" fill-rule="evenodd" fill-opacity="1" stroke="none"/><path d="M163.74 332.798c-4.556 3.158-6.195 11.573-3.897 16.83.64 1.4 4.557 6.996 5.537 3.858.96-2.819-4.238-3.518-2.938-6.316.66-1.4 1.619-1.74 2.278-3.158.32-1.4 0-2.799-.32-4.198-.66-1.06-1.639-1.759-1.299-3.158 0-1.04 1.62-2.099.32-3.498zM186.327 325.563c2.279-2.439 3.598 5.596 3.918 6.636.32 3.478.32 7.315.32 10.433.64-4.877-.96-13.911-4.238-16.71zM183.01 312.65c.359 2.12 2.997 9.115-.68 10.154.36-2.798 1.678-6.276 0-9.074zM181.37 363.1c2.319 1.44 3.278 7.395.36 8.795.96-2.08 1.639-6.317 0-8.075z" fill="#68b56f" fill-rule="evenodd" fill-opacity="1" stroke="none"/><path d="M186.007 199c3.918 8.354 7.516 12.552 6.876 25.424-.64 18.869-2.958 15.35-5.237 21.627-2.278 14.311-12.752 21.267-21.946 21.267-9.475 0-17.99-8.715-22.267-21.587-5.237-7.355-4.877-13.272-4.877-20.947 0-7.995 0-16.03 5.237-22.307 4.237-12.552 6.516-19.188 21.907-20.947 8.195 0 17.709 5.237 20.307 17.47z" fill="#b6d8ae" fill-rule="evenodd" fill-opacity="1" stroke="none"/><path d="M157.864 224.584c0-7.036 3.438-12.752 7.676-12.752 4.277 0 7.675 5.716 7.675 12.752 0 7.076-3.398 12.752-7.675 12.752-4.238 0-7.676-5.676-7.676-12.752z" fill="#9ccb99" fill-rule="evenodd" fill-opacity="1" stroke="none"/><path d="M187.646 202.517c4.558 5.557 5.197 13.952 5.197 21.947 0 8.395-.96 17.79-5.557 22.346-.959 11.833-12.392 20.548-21.546 20.548-9.155 0-19.948-8.715-21.587-19.508-4.917-4.877-5.917-15.71-5.917-24.066 0-9.074 1.32-18.149 6.236-23.026 1.64-12.552 10.794-19.188 21.268-19.188 11.433 0 20.587 7.675 21.906 20.947" fill="none" stroke="#343434" stroke-width="1.3591763px" stroke-linecap="round" stroke-linejoin="round" stroke-miterlimit="4" stroke-dasharray="none" stroke-opacity="1"/><path d="M157.904 224.624c0-7.036 3.438-12.752 7.676-12.752 4.277 0 7.675 5.716 7.675 12.752 0 7.076-3.398 12.752-7.675 12.752-4.238 0-7.676-5.676-7.676-12.752M172.216 231.38l14.151 14.95M145.032 201.878l14.231 15.67M159.583 231.7l-14.87 15.83M186.687 203.237l-14.471 14.95" fill="none" stroke="#343434" stroke-width="1.3591763px" stroke-linecap="round" stroke-linejoin="round" stroke-miterlimit="4" stroke-dasharray="none" stroke-opacity="1"/><path d="M185.328 208.114c2.598-5.237 4.237 3.118 4.597 5.197.64 4.517 1.28 9.394.96 14.271 0 3.478-.64 7.635-1.64 11.473-.64 2.079-1.639 6.916-4.597 4.158-.64-.68-2.279-2.439-2.958-3.478 2.958.68 3.957.36 5.277-3.118 1.319-3.838 1.319-7.996 1.319-12.193 0-3.438-.36-6.916-.68-10.074-.32-2.079-.64-4.837-2.278-5.876zM166.34 183.769c2.318-.72 7.235.36 9.194 1.399 2.958 1.719 5.236 5.197 6.875 7.995 2 2.438 3.278 5.197 2.319 8.675-.68 2.798-3.958 4.517-5.597 6.636-.32.32-.64 1.039-.959 1.359.96-2.758 1.959-5.557 2.279-8.675 0-3.118-1.32-6.276-2.599-9.034-1.639-2.799-2.638-4.877-5.277-6.277-.959-.36-2.278-1.039-3.278-1.719-.64 0-1.958 0-2.598-.36zM173.135 235.857c.32-.36 1.32 1.04 1.64 1.759.679.68 1.318 1.4 1.998 2.079.96 1.08 2.278 2.118 3.278 3.158 2.318 2.119 4.917 3.837 4.277 7.715-1 6.276-7.915 11.873-13.512 13.952 2-2.439 4.638-4.158 6.277-6.956 1.319-2.479 1.639-5.597 1.319-8.395-.32-4.557-2.639-10.154-5.597-13.672zM153.327 213.67c1.3 1.4 2.918 2.439 3.258 4.178.64 2.099.32 4.537.32 6.616-.32 2.438.64 5.237.32 7.316-.32 1.738-2.599 3.477-3.898 4.517 1.62-4.178 1.939-7.656 1.939-12.173 0-1.739.66-3.478 0-5.217-.32-1.739-1.62-2.798-2.279-4.537z" fill="#9ccb99" fill-rule="evenodd" fill-opacity="1" stroke="none"/><path d="M144.113 204.536c-2.279 1.4-3.238 8.035-3.898 10.813-.32 3.139-.32 6.976-.32 10.114 0 3.838-.34 7.316.32 10.814.32 2.099 1.3 7.675 3.578 8.375 1.639.68 4.237-2.799 4.877-4.198-1.3 0-2.599 1.06-3.578.36-1.3-.7-1.939-3.498-2.598-4.897-1.3-4.517-1.62-9.414-1.3-14.291.32-3.838.64-8.015 1.62-11.853.34-1.74 3.577-5.577 4.896-2.099-.979-1.379-2.618-2.778-3.917-3.838v.36zM150.969 204.856c-1.32-1.38-2.979-3.458-3.298-5.197-1-2.439.66-5.217 1.978-7.296 2.639-4.497 6.257-5.896 10.534-7.635-3.938 2.099-8.555 5.557-10.214 10.074-.98 2.778-1.32 8.675 1 10.394zM154.926 239.495c-1.659 2.099-4.297 4.177-6.276 5.916-1 .7-1.999 1.74-2.658 2.779-1 1.039 0 1.379.66 2.778 1.338 2.778 2.658 5.896 4.976 7.975 1.32 1.04 2.319 2.079 3.638 2.778 1.659 1.04 3.298 1.4 4.957 1.74.34.34 1 .34 1.32.34-1.98-2.08-4.618-3.819-6.937-5.897-1.659-2.079-3.977-4.158-4.977-6.596-.66-2.439-.32-4.518 1.34-6.257 1.639-1.718 2.638-3.817 4.297-5.556z" fill="#cfe5cb" fill-rule="evenodd" fill-opacity="1" stroke="none"/><path d="M166.38 213.67c3.557.72 4.516 7.996 4.836 11.154 0 2.078-.32 4.477-1.279 6.596-.32 1.04-2.279 3.438-3.558 2.758 0-1.719 1.919-3.798 2.279-5.916.64-2.08.64-4.158.32-6.237-.32-3.118-1-6.236-3.278-8.355z" fill="#b6d8ae" fill-rule="evenodd" fill-opacity="1" stroke="none"/><path d="M168.018 214.71c.32 1.399 2.239 2.798 2.559 4.517.64 1.4.959 3.478.959 5.197-.32 3.158-.64 8.355-3.518 9.714 1.919-3.438 3.198-6.556 2.878-10.753-.32-2.399-1.279-6.556-2.558-8.315z" fill="#cfe5cb" fill-rule="evenodd" fill-opacity="1" stroke="none"/><path d="M142.554 207.035c0 2.098-1.32 5.236-1.66 7.315-.659 2.778-1.339 5.577-1.339 8.715 0 5.556 0 14.251 3.998 18.429-2.998-4.857-2.658-12.873-2.658-18.43.34-4.177-.34-10.453 1.659-14.27zM150.05 191.364c-.34 2.439-2.68 4.177-2.34 6.956.34 2.778 2.999 4.157 3.998 6.236-1.999-2.419-5.677-9.354-1.999-12.133zM151.028 243.333c-.68 3.477-5.316 4.177-4.317 7.995.66 3.478 3.318 6.616 5.956 7.995-1.639-1.72-3.637-4.158-4.637-6.596-1.639-3.478.34-4.857 2.319-7.296zM161.542 211.252c-.68 1.739-2.338 3.478-3.338 5.217-1 2.079-1.34 4.857-1.34 7.295 0 4.518 1 11.114 4.338 13.892-4.337-1.38-5.336-10.074-4.997-14.231 0-3.139 1.34-12.873 5.657-12.513z" fill="#fff" fill-rule="evenodd" fill-opacity="1" stroke="none"/><path d="M170.497 210.113c4.357 2.078 6.396 7.675 6.716 12.192 1.679-1.359 1.998-5.916.999-7.995-.64-1.399-4.357-5.277-6.036-4.557z" fill="#b6d8ae" fill-rule="evenodd" fill-opacity="1" stroke="none"/><path d="M169.697 207.714c2.599 1.72 4.198 3.118 6.476 5.557.64 1.04 1.6 1.719 2.239 3.118.64 1.04.96 2.758 1.599 3.438.64-2.399-1.6-7.276-2.878-8.995-.96-1.399-2.279-2.438-3.238-3.118-1.28-.68-3.518-.68-4.198-1.399z" fill="#cfe5cb" fill-rule="evenodd" fill-opacity="1" stroke="none"/><path d="M164.06 214.31c-4.557 3.138-6.515 11.493-3.897 17.07.64 1.04 4.217 6.596 5.537 3.478.959-2.439-4.558-3.138-2.939-6.277.66-1.039 1.62-1.379 1.96-3.118.319-1.399.319-2.798-.34-3.837-.32-1.4-1.3-1.74-1.3-3.478.34-1.04 1.959-2.079.66-3.138zM186.687 207.314c1.919-2.438 3.558 5.557 3.558 6.596.64 3.158.64 7.316.64 10.074.32-4.837-.96-13.871-4.558-16.67zM183.01 194.002c.679 2.479 2.997 9.115-.36 10.154.36-2.798 1.358-6.276 0-9.074zM181.69 244.692c2.318 1.759 3.278 7.595.36 8.954.64-2.038 1.279-6.196 0-8.235z" fill="#68b56f" fill-rule="evenodd" fill-opacity="1" stroke="none"/><path d="M232.14 125.484c3.917 8.355 7.515 12.872 6.875 25.744-.96 18.789-2.958 15.311-5.237 21.547-2.598 13.952-12.752 21.227-22.266 21.227-9.474 0-17.67-8.674-21.947-21.906-5.237-7.316-5.237-13.232-5.237-20.868 0-7.995 0-15.67 5.237-22.266 4.597-12.553 6.876-19.149 21.947-20.907 8.515 0 18.029 5.596 20.627 17.429z" fill="#b6d8ae" fill-rule="evenodd" fill-opacity="1" stroke="none"/><path d="M203.996 151.028c0-6.995 3.438-12.672 7.676-12.672 4.277 0 7.675 5.677 7.675 12.672 0 7.036-3.398 12.673-7.675 12.673-4.238 0-7.676-5.637-7.676-12.673z" fill="#9ccb99" fill-rule="evenodd" fill-opacity="1" stroke="none"/><path d="M233.419 129.002c4.917 5.916 5.556 13.911 5.556 22.266 0 7.995-1.28 17.75-5.556 21.907-.96 12.193-12.393 20.867-21.907 20.867-8.795 0-19.588-8.674-21.227-19.828-4.917-4.877-5.917-15.31-5.917-23.985 0-8.715 1-18.11 6.236-22.986 1.32-12.513 10.794-19.149 20.908-19.149 11.793 0 20.947 8.036 21.907 20.908" fill="none" stroke="#343434" stroke-width="1.3591763px" stroke-linecap="round" stroke-linejoin="round" stroke-miterlimit="4" stroke-dasharray="none" stroke-opacity="1"/><path d="M204.036 151.068c0-6.995 3.438-12.672 7.676-12.672 4.277 0 7.675 5.677 7.675 12.672 0 7.036-3.398 12.673-7.675 12.673-4.238 0-7.676-5.637-7.676-12.673M218.348 157.904l13.991 15.351M190.844 128.642l14.392 15.27M205.555 158.624l-15.03 15.59M232.659 129.601l-14.311 15.351" fill="none" stroke="#343434" stroke-width="1.3591763px" stroke-linecap="round" stroke-linejoin="round" stroke-miterlimit="4" stroke-dasharray="none" stroke-opacity="1"/><path d="M231.42 134.478c2.278-4.917 3.917 3.159 4.237 5.597.64 4.557 1.28 9.434 1.28 13.992-.32 3.837-.96 8.035-1.92 11.553-.679 2.078-1.319 6.955-4.237 4.157-1-.68-2.278-2.438-2.958-3.478 2.958.72 3.918.36 4.917-2.798 1.28-3.838 1.28-8.395 1.28-12.233 0-3.518 0-6.995-.32-10.513-.32-1.72-.96-4.877-2.28-5.917zM212.471 110.133c2.279-.72 7.196.36 9.115 1.72 2.598 1.398 4.877 4.876 6.836 7.675 1.639 2.438 2.918 5.556 2.278 8.674-.64 2.799-3.877 4.518-5.516 6.636-.32.68-.64 1.04-1 1.36.68-2.759 1.959-5.557 1.959-8.316.32-3.477-.96-6.276-2.598-9.394-1.28-2.438-2.599-4.517-5.197-5.916-.96-.72-1.96-1.4-2.919-1.76-.999-.319-2.278-.319-2.598-.679zM219.307 162.382c.32-.36.96 1.039 1.64 1.759.679.68 1.318 1.399 1.998 2.078.96 1.08 2.318 2.119 3.278 3.158 2.318 2.12 4.957 3.838 4.317 7.716-1.319 6.276-8.275 12.232-13.911 13.951 2.318-2.438 4.997-4.157 6.316-6.956 1.32-2.478 1.959-5.276 1.639-8.075-.32-4.877-2.958-10.473-5.637-13.991zM199 140.035c1.678 1.4 3.357 2.479 3.717 4.198.32 2.118.32 4.917 0 6.995 0 2.12.64 4.877.64 6.996-.32 1.759-2.998 3.838-4.358 4.517 2-3.837 2.359-7.315 2.359-11.872 0-1.72.32-3.838 0-5.557-.68-1.759-1.679-2.798-2.718-4.198z" fill="#9ccb99" fill-rule="evenodd" fill-opacity="1" stroke="none"/><path d="M189.925 131.08c-2.279 1.4-3.238 8.355-3.558 10.794-.68 3.158-.32 6.996-.32 10.114 0 3.838-.36 7.315.32 10.833.32 2.08 1.28 7.676 3.558 8.355 1.639.68 3.918-2.798 4.557-3.837-.96-.36-2.278.72-3.558.36-1.319-.72-1.959-3.479-2.278-4.878-1.32-4.557-1.96-9.794-1.32-14.67.32-3.838.68-7.676 1.32-11.514.32-2.079 3.917-5.916 5.197-2.438-.96-1.36-2.599-2.759-3.918-3.838-.32 0 0 .36-.32.36zM196.72 131.36c-1.278-1.039-2.598-3.118-3.237-4.837-.68-2.798.96-5.556 2.278-7.635 2.599-4.517 6.197-5.916 10.394-7.316-3.878 2.12-8.435 5.557-10.074 10.074-1.319 2.799-1.319 8.315.64 10.394zM200.998 165.86c-1.959 2.118-4.237 4.237-6.516 5.956-.64.72-1.959 1.759-2.278 2.798-1 1.44-.32 1.76.32 3.158 1.638 2.799 2.958 5.597 5.236 7.716.96 1.039 2.279 2.118 3.558 3.158 1.639.68 2.958 1.039 4.597 1.759.64 0 .96.32 1.6.32-2.28-2.08-4.878-3.838-6.837-6.277-1.639-2.119-4.237-3.877-4.877-6.676-1-2.438-.32-4.197 1.28-6.276 1.639-1.4 2.638-3.878 4.237-5.277z" fill="#cfe5cb" fill-rule="evenodd" fill-opacity="1" stroke="none"/><path d="M212.191 140.355c3.878.36 4.837 7.715 4.837 10.873.32 2.08-.32 4.558-.959 6.636-.64 1.04-2.279 3.838-3.558 2.799-.32-1.76 1.6-3.838 2.279-5.597.32-2.079.32-4.197.32-6.636-.32-2.798-1-6.316-3.278-8.075z" fill="#b6d8ae" fill-rule="evenodd" fill-opacity="1" stroke="none"/><path d="M213.99 141.554c.36 1.4 2.04 2.479 2.679 4.198.68 1.759 1 3.478.68 5.236 0 3.159-.68 8.395-3.359 9.755 2.04-3.478 3.038-6.277 2.679-10.434 0-2.439-1-6.996-2.679-8.395z" fill="#cfe5cb" fill-rule="evenodd" fill-opacity="1" stroke="none"/><path d="M188.566 133.4c0 2.478-1.28 5.276-1.92 7.714a37.567 37.567 0 0 0-.959 8.395c0 5.557 0 14.672 3.838 18.829-2.878-4.877-2.878-13.272-2.558-18.829 0-4.197-.32-10.153 1.599-13.991zM195.761 118.048c-.32 2.479-2.278 3.878-1.958 6.676.32 2.839 2.598 4.598 3.877 6.676-2.238-2.438-5.516-9.474-2.238-12.272zM196.72 170.017c-.319 3.478-4.876 3.838-3.877 7.995.64 3.158 2.918 6.276 5.797 7.995-1.6-1.719-3.558-4.517-4.837-6.916-1.28-3.477.64-4.517 2.598-7.315zM207.514 137.996c-.64 1.76-2.598 3.158-3.238 4.877-.96 2.479-1.279 5.277-1.279 7.716 0 4.197.64 10.873 4.197 13.991-4.197-1.719-5.196-10.473-5.196-14.67.36-3.159 1.639-12.993 5.836-12.633z" fill="#fff" fill-rule="evenodd" fill-opacity="1" stroke="none"/><path d="M216.629 136.597c4.277 2.119 6.236 8.075 6.236 12.633 1.599-1.72 1.919-5.957.96-8.076-.64-1.758-3.918-5.276-5.557-4.557z" fill="#b6d8ae" fill-rule="evenodd" fill-opacity="1" stroke="none"/><path d="M215.67 134.478c2.638 1.4 4.277 2.799 6.236 5.237.959 1.08 1.958 2.119 2.598 3.158.36 1.04.68 2.799 1.639 3.478.32-2.438-1.64-6.955-2.918-9.074-1-1.4-2.319-2.439-3.598-3.118-1-.72-3.278-.72-3.958-1.08z" fill="#cfe5cb" fill-rule="evenodd" fill-opacity="1" stroke="none"/><path d="M209.873 140.755c-4.238 3.518-6.196 11.912-3.558 17.15.32 1.398 4.237 6.995 5.197 3.877.96-2.798-4.238-3.518-2.599-6.316.32-1.4 1.64-1.76 1.96-3.478.319-1.4.319-2.798-.32-3.878-.68-1.04-1.64-1.719-1.32-3.118.32-1.08 1.959-2.478.32-3.518zM232.659 133.839c1.999-2.439 3.358 5.596 3.678 6.636.36 3.478.68 7.315.68 10.434.32-4.877-1-14.272-4.718-16.71zM229.101 120.927c.32 2.118 2.878 8.754-.64 10.154.32-2.799 1.6-6.277.32-9.075zM227.822 171.376c1.999 1.44 2.958 7.396.36 8.795.64-2.079 1.319-6.316-.36-8.075z" fill="#68b56f" fill-rule="evenodd" fill-opacity="1" stroke="none"/><path d="M240.614 259.283c3.918 8.355 7.516 12.552 6.876 25.424-.96 18.869-2.958 15.351-5.237 21.627-2.278 14.312-12.752 21.267-21.947 21.267-9.474 0-17.989-8.714-22.266-21.586-5.237-7.356-5.237-13.272-5.237-20.948 0-7.995 0-16.03 5.597-22.306 4.237-12.553 6.516-19.189 21.906-20.948 8.196 0 17.71 5.237 20.308 17.47z" fill="#b6d8ae" fill-rule="evenodd" fill-opacity="1" stroke="none"/><path d="M212.471 284.707c0-7.115 3.438-12.912 7.676-12.912 4.277 0 7.675 5.797 7.675 12.912 0 7.156-3.398 12.913-7.675 12.913-4.238 0-7.676-5.757-7.676-12.913z" fill="#9ccb99" fill-rule="evenodd" fill-opacity="1" stroke="none"/><path d="M241.973 262.8c4.917 5.557 5.557 13.952 5.557 21.947 0 8.395-.96 17.79-5.557 22.347-.96 11.833-12.432 20.547-21.587 20.547-9.194 0-19.987-8.714-21.626-19.508-4.917-4.877-5.917-15.71-5.917-24.065 0-9.075 1.32-18.15 6.236-23.026 1.64-12.553 10.794-19.189 21.307-19.189 11.434 0 20.628 7.676 21.587 20.948" fill="none" stroke="#343434" stroke-width="1.3591763px" stroke-linecap="round" stroke-linejoin="round" stroke-miterlimit="4" stroke-dasharray="none" stroke-opacity="1"/><path d="M212.511 284.747c0-7.115 3.438-12.912 7.676-12.912 4.277 0 7.675 5.797 7.675 12.912 0 7.156-3.398 12.913-7.675 12.913-4.238 0-7.676-5.757-7.676-12.913M226.823 291.343l13.991 15.351M199.719 262.161l14.151 15.67M214.03 291.983 199 307.813M241.214 263.52l-14.391 15.031" fill="none" stroke="#343434" stroke-width="1.3591763px" stroke-linecap="round" stroke-linejoin="round" stroke-miterlimit="4" stroke-dasharray="none" stroke-opacity="1"/><path d="M239.935 268.397c2.278-5.236 4.237 2.799 4.597 5.197.64 4.557 1.279 9.394.96 13.912 0 3.837-.64 7.995-1.96 11.833-.32 2.078-1.319 6.596-4.277 4.197-.64-1.08-2.279-2.438-2.958-3.478 2.958.68 3.957.32 4.957-3.158 1.279-3.798 1.279-7.995 1.279-12.153 0-3.477 0-6.955-.32-10.433-.32-1.76-.64-4.518-2.278-5.917zM220.946 244.052c2.279-.72 7.156.36 9.115 1.4 2.918 1.718 5.196 5.196 6.835 7.635 1.64 2.798 3.238 5.556 2.28 9.034-.64 2.798-3.919 4.517-5.518 6.636-.32.32-.68 1.04-.999 1.36.68-2.759 1.959-5.557 1.959-8.675.32-3.119-.96-6.277-2.599-9.035-1.279-2.798-2.278-4.877-4.877-6.276-1.279-.36-2.278-1.4-3.238-1.72-.68 0-1.959-.359-2.598-.359zM227.822 295.78c.32 0 1.32 1.4 1.639 2.12.68.719 1.32 1.399 1.999 2.118.96 1.04 2.278 1.72 3.278 2.798 2.318 2.439 4.917 4.198 4.277 8.036-1.32 6.316-8.235 11.912-13.512 13.631 2-2.078 4.638-3.837 6.277-6.636 1.319-2.438 1.639-5.596 1.319-8.395-.32-4.557-2.958-10.153-5.597-13.671zM207.554 273.954c1.64 1.4 3.318 2.478 3.638 4.197.64 2.12.32 4.558.32 6.636-.32 2.479.32 5.237.32 7.356-.32 1.759-2.959 3.478-3.958 4.517 1.639-4.157 1.999-7.675 1.999-12.192 0-1.76.32-3.518 0-5.237-.36-1.76-1.68-2.799-2.679-4.557z" fill="#9ccb99" fill-rule="evenodd" fill-opacity="1" stroke="none"/><path d="M198.44 264.88c-1.96 1.399-2.958 7.995-3.598 10.793-.32 3.158-.32 6.956-.32 10.114 0 3.837-.36 7.315.32 10.793.32 2.119 1.32 7.676 3.598 8.395 1.639.32 3.957-2.798 4.917-4.197-1.28 0-2.599 1.04-3.598.36-1.32-.72-1.959-3.478-2.638-4.878-1.28-4.557-1.64-9.434-1.28-14.31.32-4.198.64-8.036 1.28-11.874.68-1.719 3.957-5.556 5.276-2.078-1-1.4-2.638-2.799-3.957-4.198 0 .36 0 .36-.32.72zM205.276 265.16c-1-1.4-2.599-3.479-3.238-5.198-.68-2.438.959-5.236 2.238-7.315 2.599-4.477 6.156-5.877 10.354-7.635-3.878 2.118-8.395 5.556-10.034 10.073-.96 2.799-1.28 8.315.68 10.394zM209.473 299.299c-1.639 2.478-4.237 4.557-6.196 6.316-.96.68-1.959 1.719-2.599 2.438-.999 1.4 0 1.72.64 3.118 1.32 2.799 2.638 5.957 4.917 8.036.96 1.039 2.279 2.118 3.558 2.798 1.639 1.04 3.278 1.399 4.917 1.759.32.32.96.32 1.28.32-2.28-2.08-4.558-3.838-6.837-5.917-1.639-2.079-3.917-4.197-4.877-6.636-.68-2.438-.32-4.517 1.28-6.276 1.638-1.759 2.638-3.838 4.237-5.597z" fill="#cfe5cb" fill-rule="evenodd" fill-opacity="1" stroke="none"/><path d="M220.666 273.954c3.878.72 4.837 7.995 4.837 10.793.32 2.439 0 4.837-.96 6.956-.319 1.04-2.278 3.438-3.557 2.759 0-1.72 1.6-3.798 2.279-5.917.32-2.079.32-4.157.32-6.236-.32-3.118-1-6.236-3.279-8.355z" fill="#b6d8ae" fill-rule="evenodd" fill-opacity="1" stroke="none"/><path d="M222.625 274.993c.32 1.4 2.239 2.799 2.559 4.198.64 1.759.959 3.837.959 5.556-.32 2.799-.64 8.395-3.518 9.755 1.919-3.478 3.198-6.596 2.878-10.794-.32-2.438-1.279-6.596-2.878-8.355z" fill="#cfe5cb" fill-rule="evenodd" fill-opacity="1" stroke="none"/><path d="M197.04 267.318c0 2.119-1.279 4.877-1.918 7.316-.32 2.798-.96 5.596-.96 8.714 0 5.557 0 14.272 3.838 18.43-2.878-4.838-2.878-12.873-2.558-18.43.32-4.517-.32-10.433 1.599-14.271zM204.556 251.647c-.32 2.439-2.598 4.198-2.279 6.956.32 2.799 2.599 4.158 3.878 6.236-2.239-2.398-5.517-9.354-1.919-12.112zM205.595 303.616c-.68 3.478-5.276 4.197-4.277 7.995.64 3.478 3.278 6.636 5.876 7.995-1.599-1.719-3.597-4.157-4.557-6.596-1.639-3.478.32-4.837 2.279-7.635zM215.99 271.555c-.64 1.72-2.24 3.478-3.239 5.197-.96 2.079-1.28 4.877-1.28 7.316 0 4.517.96 11.113 4.198 13.871-4.197-1.359-5.197-10.393-4.837-14.23 0-3.12 1.28-12.873 5.477-12.513z" fill="#fff" fill-rule="evenodd" fill-opacity="1" stroke="none"/><path d="M225.184 270.396c4.237 1.76 6.196 7.715 6.196 12.273 1.959-1.4 2.278-5.957 1.319-8.075-.96-1.4-4.237-5.277-5.876-4.558z" fill="#b6d8ae" fill-rule="evenodd" fill-opacity="1" stroke="none"/><path d="M224.144 268.078c2.639 1.718 4.318 3.078 6.596 5.516.68 1.04 1.64 1.72 2.319 3.078.64 1.04.64 2.759 1.639 3.438.64-2.398-1.64-7.195-2.958-9.274-1-1.04-2.319-2.079-3.638-2.758-.96-.68-3.278-.68-3.958-1.4z" fill="#cfe5cb" fill-rule="evenodd" fill-opacity="1" stroke="none"/><path d="M218.747 274.674c-4.597 3.158-6.596 11.473-3.957 17.03.32 1.039 4.277 6.555 5.596 3.437.96-2.398-4.597-3.118-2.958-6.236.64-1.04 1.64-1.719 1.959-3.118.32-1.4.32-2.759-.32-3.798-.64-1.399-1.319-1.759-1.319-3.478.32-1.04 1.959-2.079.32-3.118zM241.134 267.598c1.999-2.439 3.358 5.556 3.678 6.596.68 3.158.68 7.315.68 10.074.319-4.837-1-13.872-4.718-16.67zM237.576 254.286c.32 2.119 2.878 9.194-.64 10.234.64-2.799 1.6-6.316.32-9.155zM236.297 304.975c2.358 1.76 3.358 7.236.36 8.955.68-2.039 1.319-6.197 0-8.235z" fill="#68b56f" fill-rule="evenodd" fill-opacity="1" stroke="none"/><path d="M234.338 394.241c3.598 8.355 7.156 12.552 6.836 25.425-.96 18.868-3.238 15.35-5.557 21.627-2.278 14.31-12.392 21.267-21.867 21.267-9.434 0-17.629-8.715-22.186-21.587-5.237-7.356-4.877-13.272-4.877-20.948 0-7.995 0-16.03 5.197-22.306 4.597-12.552 6.556-19.188 21.866-20.947 8.515 0 17.63 5.236 20.588 17.47z" fill="#b6d8ae" fill-rule="evenodd" fill-opacity="1" stroke="none"/><path d="M206.155 419.666c0-7.116 3.438-12.913 7.595-12.913 4.198 0 7.596 5.797 7.596 12.913 0 7.155-3.398 12.912-7.596 12.912-4.157 0-7.595-5.757-7.595-12.912z" fill="#9ccb99" fill-rule="evenodd" fill-opacity="1" stroke="none"/><path d="M235.697 397.44c4.877 5.916 5.517 14.27 5.517 22.306 0 8.355-1.28 17.789-5.517 22.306-1 11.833-12.752 20.548-21.907 20.548-8.794 0-19.907-8.715-21.547-19.509-4.557-4.877-5.876-15.67-5.876-24.065 0-9.034 1.32-18.109 6.236-23.346 1.6-12.192 10.754-18.828 21.187-18.828 11.434-.36 20.908 7.675 21.907 20.587" fill="none" stroke="#343434" stroke-width="1.3591763px" stroke-linecap="round" stroke-linejoin="round" stroke-miterlimit="4" stroke-dasharray="none" stroke-opacity="1"/><path d="M206.195 419.706c0-7.116 3.438-12.913 7.595-12.913 4.198 0 7.596 5.797 7.596 12.913 0 7.155-3.398 12.912-7.596 12.912-4.157 0-7.595-5.757-7.595-12.912M220.346 426.222l14.312 15.35M193.243 396.96l14.311 15.27M207.554 426.941l-14.71 15.67M234.978 398.478l-14.312 14.951" fill="none" stroke="#343434" stroke-width="1.3591763px" stroke-linecap="round" stroke-linejoin="round" stroke-miterlimit="4" stroke-dasharray="none" stroke-opacity="1"/><path d="M233.459 403.276c2.598-5.237 4.237 2.798 4.597 5.236.64 4.518 1.279 9.395 1.279 13.952-.32 3.798-.96 7.995-1.959 11.833-.64 2.079-1.32 6.596-4.277 4.157-.96-1.04-2.279-2.438-2.958-3.478 2.638.72 3.957.36 4.957-3.118 1.319-3.837 1.319-8.035 1.319-12.192 0-3.478-.36-6.956-.68-10.474 0-1.719-.64-4.517-2.278-5.916zM214.63 378.77c1.999-.72 7.236.36 9.194 1.4 2.639 1.719 4.917 5.236 6.916 7.675 1.64 2.798 2.918 5.557 2.279 9.074-.64 2.799-3.918 4.518-5.557 6.636-.36.32-.68 1.04-1 1.36.64-2.759 1.96-5.557 1.96-8.715.32-3.118-1.32-6.276-2.599-9.075-1.32-2.758-2.638-4.877-5.277-6.276-.96-.32-1.958-1.399-3.278-1.719-.64 0-1.958-.36-2.278-.36zM221.586 430.739s.96 1.4 1.599 2.119c.68.68 1.319 1.399 1.959 2.078.999 1.04 1.958 1.76 3.278 2.799 2.238 2.438 4.517 4.197 3.877 8.035-.96 6.276-7.795 11.873-13.352 13.592 2.279-2.08 4.917-3.838 6.197-6.596 1.319-2.479 1.639-5.597 1.639-8.395-.32-4.558-2.919-10.114-5.557-13.632zM201.318 408.752c1.599 1.4 3.238 2.439 3.558 4.198.32 2.078.32 4.517 0 6.596 0 2.438.64 5.237.32 7.315 0 1.76-2.599 3.478-3.878 4.518 1.919-4.158 1.919-7.636 2.279-12.153 0-1.759.32-3.478 0-5.237-.68-1.719-1.96-2.798-2.639-4.517z" fill="#9ccb99" fill-rule="evenodd" fill-opacity="1" stroke="none"/><path d="M192.084 399.838c-2.279 1.359-3.238 7.995-3.558 10.753-.68 3.158-.68 6.996-.68 10.114 0 3.838 0 7.316.68 10.793.32 2.08 1.279 7.636 3.558 8.355 1.639.32 3.917-2.798 4.557-4.197-.96 0-2.599 1.04-3.558.36-1.32-.68-1.959-3.478-2.279-4.877-1.639-4.518-1.958-9.395-1.639-14.272.64-4.157 1-7.995 1.64-11.832.32-2.08 3.917-5.557 5.196-2.08-1.279-1.398-2.598-2.798-3.917-4.197-.32.36-.32.36-.32.72zM199.04 400.118c-1.28-1.4-2.6-3.478-3.239-5.237-1-2.439.64-5.237 1.96-7.316 2.917-4.517 6.155-5.916 10.713-7.675-4.198 2.118-8.435 5.596-10.394 10.114-1 2.798-1.32 8.355.96 10.433zM203.317 434.177c-1.959 2.478-4.238 4.557-6.516 6.316-.64.72-1.96 1.759-2.599 2.439-.68 1.439 0 1.758.64 3.158 1.32 2.798 2.598 5.956 4.917 8.075 1.28 1.04 2.598 2.078 3.878 2.798 1.319 1.04 2.958 1.4 4.597 1.759.64.32.96.32 1.599.32-2.279-2.079-4.877-3.838-6.836-6.276-1.959-1.76-4.237-3.878-4.877-6.317-1-2.438-.32-4.557 1.28-6.316 1.638-1.719 2.638-3.837 3.917-5.596z" fill="#cfe5cb" fill-rule="evenodd" fill-opacity="1" stroke="none"/><path d="M214.35 408.752c3.998.72 4.997 8.035 4.997 10.834 0 2.438-.32 4.877-1 6.636-.639 1.359-2.318 3.797-3.997 3.118 0-1.76 1.999-3.838 2.319-5.917.68-2.118.68-4.197.36-6.276 0-3.158-1-6.276-3.039-8.395z" fill="#b6d8ae" fill-rule="evenodd" fill-opacity="1" stroke="none"/><path d="M216.349 409.872c.32 1.399 1.999 2.798 2.678 4.197.64 1.759.64 3.838.64 5.557 0 2.798-.64 8.395-3.678 9.754 2.039-3.478 3.358-6.596 3.038-10.794-.36-2.438-1-6.596-2.678-8.355z" fill="#cfe5cb" fill-rule="evenodd" fill-opacity="1" stroke="none"/><path d="M190.844 401.876c0 2.479-1.319 5.237-1.998 7.676-.64 2.798-1 5.596-1 8.715 0 5.596 0 14.31 3.998 18.468-2.998-4.877-2.998-12.872-2.639-18.468 0-4.518-.36-10.434 1.32-14.272zM198.08 386.606c-.32 2.438-2.598 4.157-2.279 6.916.32 2.758 2.919 4.157 4.198 6.196-2.239-2.399-5.517-9.315-2.239-12.073zM199.04 438.414c-.32 3.518-5.197 4.238-4.198 8.075.96 3.518 3.238 6.676 6.116 8.076-1.599-1.72-3.877-4.198-4.837-6.636-1.28-3.518.64-4.917 2.279-7.756zM209.833 406.434c-.64 1.719-2.559 3.478-3.238 5.236-.96 2.08-1.6 4.878-1.6 7.316.32 4.517.96 11.153 4.198 13.912-3.877-1.36-5.197-10.434-4.837-14.272.32-3.118 1.28-12.912 5.477-12.552z" fill="#fff" fill-rule="evenodd" fill-opacity="1" stroke="none"/><path d="M218.947 405.274c4.318 1.76 6.276 7.716 6.276 12.273 1.64-1.4 1.96-5.956 1-8.075-.68-1.4-3.958-5.277-5.597-4.557z" fill="#b6d8ae" fill-rule="evenodd" fill-opacity="1" stroke="none"/><path d="M217.668 402.836c2.958 1.719 4.597 3.118 6.556 5.596 1 1.04 1.64 1.76 2.279 3.159.68 1.039 1 2.798 1.959 3.477.32-2.438-1.64-7.355-3.238-9.434-.68-1.08-2-2.119-3.279-2.798-1.319-.72-3.597-.72-4.277-1.44z" fill="#cfe5cb" fill-rule="evenodd" fill-opacity="1" stroke="none"/><path d="M212.031 409.552c-4.557 3.158-6.196 11.513-3.877 17.07.64 1.039 4.197 6.595 5.517 3.477.959-2.438-4.238-3.118-2.919-6.276.64-1.04 1.6-1.719 2.279-3.118.32-1.4 0-2.798-.32-3.838-.68-1.399-1.639-1.719-1.32-3.478 0-1.039 1.64-2.078.32-3.118zM234.618 402.156c2.358-2.118 3.718 5.917 4.037 6.956.36 3.158.36 7.356.36 10.114.64-4.877-1.04-13.952-4.397-16.71zM231.42 389.244c.32 2.119 2.558 9.115-.64 10.154.32-2.798 1.6-6.276 0-9.075zM229.82 439.853c2.2 1.76 3.119 7.316.32 9.035.96-2.079 1.56-6.236 0-8.315z" fill="#68b56f" fill-rule="evenodd" fill-opacity="1" stroke="none"/><path d="M106.256 129.881c8.494 0 25.164 6.276 27.783 18.49 3.937 8.354 7.515 12.531 6.876 25.424-.98 18.828-2.939 15.35-5.237 21.607-2.299 14.29-20.928 20.907-30.422 20.907zM106.256 235.977c8.494 0 25.164 6.296 27.783 18.489 3.937 8.375 7.515 12.572 6.876 25.464-.98 18.849-2.939 15.351-5.237 21.627-2.299 14.312-20.928 20.928-30.422 20.928zM106.256 351.267c8.494 0 25.164 6.276 27.783 18.13 3.937 8.374 7.515 12.891 6.876 25.784-.98 18.828-2.939 15.35-5.237 21.606-2.299 14.292-20.928 20.908-30.422 20.908z" fill="#cb629d" fill-rule="evenodd" fill-opacity="1" stroke="none"/><path d="M104.856 235.977s33.34 11.513 31.381 41.855c1.32 31.38-31.04 44.972-31.04 44.972l-.34-86.827z" fill="#9ccb99" fill-rule="evenodd" fill-opacity="1" stroke="none"/><path d="M105.296 236.737s19.229 6.636 23.446 17.449c5.537 4.517 7.815 13.931 7.815 23.706 0 11.852-4.217 25.084-10.413 28.222-5.217 10.474-20.508 16.73-20.508 16.73" fill="none" stroke="#343434" stroke-width="1.3591763px" stroke-linecap="round" stroke-linejoin="round" stroke-miterlimit="4" stroke-dasharray="none" stroke-opacity="1"/><path d="M37.557 254.806c1.96.34 3.918 3.477 3.918 6.955s-1.959 6.616-4.577 6.976c1.958 23.326 15.99 40.396 15.99 40.396v-87.787c-9.454 11.513-14.032 22.646-15.33 33.46zM121.626 273.614c-1.319-11.173-5.896-23.386-16.37-35.958v85.148s13.752-14.65 16.05-36.278h.32c2.619 0 4.897-2.798 4.897-6.636 0-3.498-2.278-6.276-4.897-6.276zM78.392 225.823v89.306s-22.466-48.49 0-89.306zM78.392 225.823v89.306s22.307-52.328 0-89.306z" fill="#b6d8ae" fill-rule="evenodd" fill-opacity="1" stroke="none"/><path d="m50.89 288.125 57.005 15.81V249.85l-57.006-11.154v49.43z" fill="#b6d8ae" fill-rule="evenodd" fill-opacity="1" stroke="none"/><path d="M78.432 225.603c-3.258 5.557-5.536 11.134-6.855 17.05l-18.63-3.818v-17.769c-9.473 11.493-14.03 22.626-15.35 33.42 1.959.34 3.918 3.478 3.918 6.956 0 3.477-1.959 6.616-4.577 6.975 1.978 23.306 16.01 40.356 16.01 40.356v-20.168l18.629 4.857c2.938 12.892 6.855 21.227 6.855 21.227" fill="none" stroke="#343434" stroke-width="1.3591763px" stroke-linecap="round" stroke-linejoin="round" stroke-miterlimit="4" stroke-dasharray="none" stroke-opacity="1"/><path d="M78.432 314.85s2.959-6.977 5.577-17.79l21.287 5.936v19.529s13.752-14.652 16.03-36.278h.34c2.619 0 4.897-2.779 4.897-6.616 0-3.498-2.278-6.277-4.897-6.277 0 0 0 0 0 0-1.319-11.173-5.896-23.385-16.37-35.938v11.853l-18.988-3.838c-1.64-6.976-3.938-13.592-7.876-19.888" fill="none" stroke="#343434" stroke-width="1.3591763px" stroke-linecap="round" stroke-linejoin="round" stroke-miterlimit="4" stroke-dasharray="none" stroke-opacity="1"/><path d="m37.917 254.006 83.59 18.909s5.536 2.098 4.896 6.995c-.66 4.897-2.298 6.636-5.236 6.636l-84.23-17.829s4.258-1.399 4.578-6.296c.66-5.597-3.598-8.415-3.598-8.415M122.886 272.875l5.516-17.67M121.286 286.546l4.638 19.109M78.752 227.222l.16.16M78.113 277.832l.16 36.138M78.113 262.56l.16-36.377" fill="none" stroke="#343434" stroke-width="1.3591763px" stroke-linecap="round" stroke-linejoin="round" stroke-miterlimit="4" stroke-dasharray="none" stroke-opacity="1"/><path d="M78.133 263.2h.64c3.237 0 5.816 3.159 5.816 7.336 0 3.838-2.579 6.976-5.817 6.976-.32 0-.64 0-.98-.34" fill="none" stroke="#343434" stroke-width="1.3591763px" stroke-linecap="round" stroke-linejoin="round" stroke-miterlimit="4" stroke-dasharray="none" stroke-opacity="1"/><path d="M41.775 256.525c2.958 1.758 7.215 1.758 10.493 2.798 4.258 1.06 8.835 1.739 13.432 2.798 3.598.7 7.196 1.74 10.794 2.798 1.958.7 6.216 1.38 6.216 4.538 0 1.379-.32 1.379-1.62 1.379-1.638 0-3.937-.68-5.896-.68-4.597-.36-9.174-.7-13.751-1.399-3.618-.7-7.536-1.399-11.153-2.458-1.96-.34-4.578-2.08-6.537-2.08-.979-2.098-.979-4.536-1.978-6.635zM85.588 266.998c1.64.7 1.64 3.138 1.64 4.877 3.597 0 6.555 1.04 10.153 1.74 1.639.339 3.598 0 5.237.679 1.639.36 2.938 1.04 4.577 1.399 5.896 1.04 11.793 1.739 17.01 3.458 0-2.779-4.897-4.857-6.856-5.537-3.278-1.06-6.876-1.06-10.154-1.739-6.216-1.04-13.092-1.739-18.988-3.817-.64 0-1.3-.7-2.28-.7z" fill="#9ccb99" fill-rule="evenodd" fill-opacity="1" stroke="none"/><path d="M41.055 267.678c2.639-.36 6.236 1.04 8.855 1.379 3.937.34 7.535 1.38 11.133 2.079 5.896 1.039 11.793 4.497 17.35 4.157-1.62-3.458-8.835-4.497-11.773-4.857-3.618-.34-6.896-1.04-10.494-1.38-2.618-.339-5.557-.699-8.175-1.038-2.299 0-5.257.34-6.896-.7zM83.59 277.392c6.535 0 12.432 2.478 18.628 4.257 3.598.7 7.196 1.42 10.794 1.76 2.298.359 5.236 1.079 7.835 1.418-1.959-3.178-7.516-3.537-10.454-4.257-3.918-1.06-7.515-1.759-11.433-2.479-2.938-.36-5.876-1.059-8.835-1.419-.979-.36-2.278-.72-3.577-.36-.66 0-2.3.72-2.959.36zM79.432 238.296c.66 7.335 1.32 15.37.34 22.706 1.958 0 4.597 1.06 6.556 1.759 1.978 1.04 3.937 1.739 5.896 2.078-2.618-.68-5.237-2.438-7.535-3.837-.98-.7-1.96-1.04-2.619-2.099-.34-1.04-.66-3.478-.98-4.537-.339-3.138-.339-6.276-.659-9.075 0-1.739 0-4.897-1-5.936zM45.073 235.497c-.34 1.76-1.64 3.158-1.96 4.577-.639 1.74-1.298 3.498-1.938 4.898-.98 2.098-1.619 4.917-2.279 7.015 1.64 1.06 4.218 1.4 5.837 2.099 1.959.36 4.217 1.4 6.156 1.4-2.898-1.74-7.455-2.1-8.095-5.957-.64-3.858.64-9.115 1.939-12.613zM47.451 273.254c-2.598 0-5.856-1.039-8.155-2.098.66 5.936 1.959 13.252 5.557 18.468-1.959-3.817-3.598-9.754-3.258-13.931 0-2.079.32-2.079 1.619-1.739.98 0 2.618 0 3.278.7zM110.713 248.85c2.279 6.595 5.537 12.851 7.815 19.427-2.598-1.379-6.496-1.039-8.795-2.758 1.32-.7 2.3-.7 2.939-2.438.66-1.38 0-3.119 0-4.858 0-2.418-.98-7.275-2.279-9.014zM101.259 299.339c1.319-.34 3.917.7 5.216 1.399 1.64 1.06 1.3 2.098 1.3 4.197 0 3.478-.32 7.316-.32 11.153.66-5.216 1.959-10.453 2.598-15.69 0-2.459-.64-2.459-2.598-2.459-1.959 0-3.578.36-5.537.36zM85.568 280.85c-1.619.7-3.917-1.06-5.876-.7.34 6.656-.66 13.332-.32 19.628 1.3-4.557 1.639-9.454 2.938-14.011.98-2.818 1.64-3.518 4.238-3.518zM125.164 272.515c-.32 1.06 1.28 3.158 1.6 4.217.319 1.76.319 3.498.319 5.257 0 3.158-.96 5.597-3.518 6.656 3.518.34 5.117-4.197 5.117-7.355 0-3.159-1.28-6.317-3.518-8.056zM113.731 242.133c.34 1.42 4.238 3.158 5.537 4.218 1.639 1.04 3.578 2.438 5.217 4.197 2.918 3.138 2.278 9.095-.32 12.932-.34-2.798 1.299-5.237.96-8.035-.32-2.458-1.62-3.857-3.239-5.257-1.32-1.039-2.618-2.438-3.917-3.498-.98-1.039-2.919-2.098-3.578-3.138zM124.205 292.423c.34 2.798.98 9.094 2.918 11.193.66-2.099 2.598-3.838 3.578-5.597.96-1.759 1.619-3.857 2.258-5.956 1.3-4.197 3.238-10.853 1.96-15.07 0 3.857-1.62 8.074-2.6 11.912-.979 2.458-1.618 5.257-2.598 7.355-.32.7-.979 1.76-1.619 2.459-.979.7-.979.7-1.299-1.04-.96-1.758-1.939-3.157-2.598-4.916zM122.586 300.818c.98 2.438 1.619 5.197 0 7.275-1.64 2.419-4.578 4.138-6.217 6.556 1.96-2.058 3.598-5.516 4.898-8.295.979-1.719.66-3.797.979-5.536z" fill="#cfe5cb" fill-rule="evenodd" fill-opacity="1" stroke="none"/><path d="M84.869 280.81c-1.62-.7-3.558-.34-5.177-.7v12.553c0 4.537-.66 9.074-.66 13.591 0-3.118.98-6.955.98-10.453.32-2.079.32-4.518.32-6.616 0-2.099 0-4.877.34-6.616.639-1.76 1.938-2.099 3.557-1.4zM41.535 244.692c-.32 2.778-1.6 5.197-1.919 7.615 1.28.34 3.198.34 4.157 1.02-1.279-.68-3.198-1.02-3.517-2.759 0-1.379.64-3.798.959-4.837zM42.414 272.195c-.92-.36-2.178-.36-3.118-.72.64 2.12.94 4.578 1.56 6.317-.92-1.74-1.24-4.897 1.258-5.257zM122.206 248.53c1.679 2.438 4.317 3.137 4.317 6.615 0 2.779-1.319 5.557-2.318 8.335 0-2.778 1.659-5.556 1.659-8.335 0-2.438-1.98-4.517-3.658-5.916zM124.844 294.821c0 1.76 1.32 9.115 2.299 9.115 1.959 0 4.897-6.656 4.897-8.395 0 2.438-3.598 5.596-4.897 7.695-.32-2.438-.66-5.596-1.959-7.695zM122.566 301.137c1.639 3.478.66 5.577-1.32 7.996.34-1.04 1.32-2.08 1.66-3.118v-3.478zM85.248 266.279c.66 3.458 2 6.915-1.019 9.674 3.678-1.02 1.34-6.896 1.02-8.635zM122.906 275.633c2.338 3.178 2.018 6.696-1.02 8.815 1.68.7 2.698-2.459 2.698-3.518 0-1.76-.34-3.178-1.339-4.238zM42.075 256.844c2.338 3.858 1.339 6.636-1.02 10.134 2.359.34 2.698-3.138 2.698-4.897 0-.68 0-2.079-.34-2.778-.34-.7-1.338-1.76-1.338-2.099zM115.99 259.323c.32 1.399 1.639 4.537 2.278 6.296.66 1.739.98 3.478.98 5.217-.98-.34-2.279-1.04-3.578-1.38-1.32-.36-2.938 0-4.258-.699 2.3 0 4.898-.36 6.856.34-1.299-2.778-.98-6.616-2.598-9.414zM79.052 231.34c1.32 1.759 1 5.596 1 7.675v8.715c0 3.138-1.34 10.474.66 12.552.319-5.217 0-11.153 0-16.73 0-2.778.319-8.714-1.32-10.813z" fill="#fff" fill-rule="evenodd" fill-opacity="1" stroke="none"/><path d="M104.856 350.947s33.34 11.513 31.381 41.815c1.32 31.361-31.04 44.933-31.04 44.933l-.34-86.748z" fill="#9ccb99" fill-rule="evenodd" fill-opacity="1" stroke="none"/><path d="M105.296 351.627s19.229 6.636 23.446 17.45c5.537 4.517 7.815 13.93 7.815 23.705 0 11.493-4.217 25.085-10.413 28.223-5.217 10.474-20.508 16.73-20.508 16.73" fill="none" stroke="#343434" stroke-width="1.3591763px" stroke-linecap="round" stroke-linejoin="round" stroke-miterlimit="4" stroke-dasharray="none" stroke-opacity="1"/><path d="M37.557 369.756c1.96.34 3.918 3.138 3.918 6.976 0 3.478-1.959 6.636-4.577 6.975 1.958 23.386 15.99 40.476 15.99 40.476v-87.947c-9.454 11.173-14.032 22.686-15.33 33.52zM121.626 388.285c-1.319-10.774-5.896-22.966-16.37-35.499v84.909s13.752-14.611 16.05-36.178h.32c2.619 0 4.897-2.779 4.897-6.616 0-3.478-2.278-6.616-4.897-6.616zM78.392 340.474V429.7s-22.466-48.091 0-89.226zM78.392 340.793v89.226s22.307-52.268 0-89.226z" fill="#b6d8ae" fill-rule="evenodd" fill-opacity="1" stroke="none"/><path d="m50.89 403.256 57.005 15.65V364.92l-57.006-11.173v49.51z" fill="#b6d8ae" fill-rule="evenodd" fill-opacity="1" stroke="none"/><path d="M78.432 340.154c-3.258 5.916-5.536 11.513-6.855 17.09l-18.63-3.498v-17.79c-9.473 11.174-14.03 22.687-15.35 33.48 1.959.36 3.918 3.138 3.918 6.976 0 3.498-1.959 6.636-4.577 6.976 1.978 23.365 16.01 40.455 16.01 40.455v-20.567l18.629 5.236c2.938 12.553 6.855 20.908 6.855 20.908" fill="none" stroke="#343434" stroke-width="1.3591763px" stroke-linecap="round" stroke-linejoin="round" stroke-miterlimit="4" stroke-dasharray="none" stroke-opacity="1"/><path d="M78.432 429.76s2.959-6.976 5.577-17.79l21.287 5.937v19.508s13.752-14.631 16.03-36.238h.34c2.619 0 4.897-2.798 4.897-6.636 0-3.478-2.278-6.616-4.897-6.616 0 0 0 0 0 0-1.319-10.794-5.896-23.006-16.37-35.559v11.513l-18.988-3.497c-1.64-6.956-3.938-13.592-7.876-19.868" fill="none" stroke="#343434" stroke-width="1.3591763px" stroke-linecap="round" stroke-linejoin="round" stroke-miterlimit="4" stroke-dasharray="none" stroke-opacity="1"/><path d="m37.917 369.136 83.59 18.769s5.536 2.079 4.896 6.936c-.66 4.877-2.298 6.596-5.236 6.596l-84.23-17.71s4.258-1.739 4.578-6.236c.66-5.916-3.598-8.355-3.598-8.355M122.886 387.925l5.516-17.83M121.286 401.437l4.638 18.788M78.752 342.273l.16.24M78.113 392.802l.16 36.298M78.113 377.451l.16-36.138" fill="none" stroke="#343434" stroke-width="1.3591763px" stroke-linecap="round" stroke-linejoin="round" stroke-miterlimit="4" stroke-dasharray="none" stroke-opacity="1"/><path d="M78.133 378.09h.64c3.237 0 5.816 3.179 5.816 7.037 0 4.197-2.579 7.355-5.817 7.355-.32 0-.64-.34-.98-.34" fill="none" stroke="#343434" stroke-width="1.3591763px" stroke-linecap="round" stroke-linejoin="round" stroke-miterlimit="4" stroke-dasharray="none" stroke-opacity="1"/><path d="M41.775 371.575c2.958 1.739 7.215 1.739 10.493 2.778 4.258 1.02 8.835 1.72 13.432 2.758 3.598.68 7.196 1.38 10.794 2.759 1.958.68 6.216 1.379 6.216 4.477 0 1.38-.32 1.38-1.62 1.38-1.638 0-3.937-.68-5.896-.68-4.597-.34-9.174-.7-13.751-1.72-3.618-.36-7.536-1.039-11.153-2.078-1.96-.7-4.578-2.419-6.537-2.079-.979-2.059-.979-4.477-1.978-6.556zM85.588 381.889c1.64.36 1.64 3.178 1.64 4.577 3.597.36 6.555 1.06 10.153 1.759 1.639.36 3.598.36 5.237 1.06 1.639.359 2.938 1.058 4.577 1.398 5.896 1.06 11.793 1.76 17.01 3.518 0-2.798-4.897-4.917-6.856-5.617-3.278-1.059-6.876-1.059-10.154-1.758-6.216-1.06-13.092-1.76-18.988-3.878-.64-.34-1.3-.7-2.28-.7z" fill="#9ccb99" fill-rule="evenodd" fill-opacity="1" stroke="none"/><path d="M41.055 382.568c2.639-.36 6.236 1.08 8.855 1.44 3.937.36 7.535 1.438 11.133 2.158 5.896 1.06 11.793 4.277 17.35 3.938-1.62-3.238-8.835-4.298-11.773-4.658-3.618-.36-6.896-1.079-10.494-1.439-2.618-.36-5.557-.72-8.175-1.08-2.299 0-5.257.36-6.896-.719zM83.59 392.122c6.535 0 12.432 2.779 18.628 4.158 3.598 1.04 7.196 1.379 10.794 2.059 2.298.36 5.236 1.039 7.835 1.379-1.959-3.098-7.516-3.438-10.454-4.138-3.918-1.04-7.515-1.719-11.433-2.418-2.938-.68-5.876-1.04-8.835-1.72-.979 0-2.278-.359-3.577-.359-.66.36-2.3 1.04-2.959.36zM79.432 353.426c.66 7.315 1.32 15.33.34 22.646 1.958-.36 4.597 1.04 6.556 1.739 1.978 1.04 3.937 1.739 5.896 2.079-2.618-.68-5.237-2.419-7.535-3.818-.98-.7-1.96-1.04-2.619-2.099-.34-1.039-.66-3.478-.98-4.877-.339-2.778-.339-5.916-.659-9.054 0-1.38 0-4.517-1-5.557zM45.073 350.627c-.34 1.74-1.64 3.139-1.96 4.538-.639 1.739-1.298 3.118-1.938 4.857-.98 2.099-1.619 4.537-2.279 6.956 1.64 1.059 4.218 1.399 5.837 2.098 1.959.34 4.217 1.04 6.156 1.38-2.898-1.74-7.455-2.08-8.095-6.257-.64-3.478.64-8.694 1.939-12.172zM47.451 388.165c-2.598-.36-5.856-1.06-8.155-2.119.66 5.956 1.959 13.312 5.557 18.549-1.959-3.838-3.598-9.794-3.258-13.992 0-2.098.32-2.098 1.619-1.739.98 0 2.618 0 3.278.34zM110.713 363.42c2.279 7.015 5.537 13.332 7.815 19.988-2.598-1.4-6.496-1.04-8.795-2.799 1.32-.7 2.3-.7 2.939-2.458.66-1.4 0-3.158 0-4.897 0-2.459-.98-7.376-2.279-9.115zM101.259 414.469c1.319-.36 3.917.68 5.216 1.379 1.64 1.04 1.3 2.079 1.3 3.798 0 3.817-.32 7.615-.32 11.413.66-5.177 1.959-10.374 2.598-15.55 0-2.44-.64-2.44-2.598-2.44-1.959 0-3.578.36-5.537.36zM85.568 395.98c-1.619.68-3.917-1.06-5.876-.7.34 6.257-.66 12.873-.32 19.469 1.3-4.518 1.639-9.734 2.938-14.252.98-2.438 1.64-3.478 4.238-3.478zM125.164 387.565c-.32.7 1.28 2.778 1.6 4.178.319 1.739.319 3.457.319 5.196 0 2.779-.96 5.557-3.518 6.596 3.518.34 5.117-4.157 5.117-7.275 0-3.138-1.28-6.256-3.518-7.995zM113.731 357.263c.34 1.4 4.238 3.139 5.537 3.838 1.639 1.38 3.578 2.778 5.217 4.158 2.918 3.478 2.278 9.034-.32 13.192-.34-2.779 1.299-5.557.96-7.976-.32-2.438-1.62-3.817-3.239-5.216-1.32-1.04-2.618-2.419-3.917-3.478-.98-1.04-2.919-2.079-3.578-3.118zM124.205 407.393c.34 2.778.98 8.715 2.918 10.794.66-1.74 2.598-3.478 3.578-5.217.96-1.74 1.619-4.178 2.258-5.937 1.3-4.177 3.238-10.793 1.96-14.99 0 3.837-1.62 8.035-2.6 11.852-.979 2.459-1.618 5.237-2.598 7.336-.32.7-.979 1.739-1.619 2.079-.979 1.059-.979.7-1.299-.7-.96-1.739-1.939-3.478-2.598-4.877zM122.586 415.388v.36c.98 2.439 1.619 5.237 0 7.336-1.64 2.438-4.578 4.177-6.217 6.616 1.96-2.08 3.598-5.577 4.898-8.375.979-1.74.66-3.838.979-5.937z" fill="#cfe5cb" fill-rule="evenodd" fill-opacity="1" stroke="none"/><path d="M84.869 395.98c-1.62-.7-3.558-.36-5.177-1.06v12.893c0 4.537-.66 9.054-.66 13.572 0-3.118.98-7.296.98-10.434.32-2.439.32-4.537.32-6.616 0-2.099 0-4.877.34-6.616.639-1.739 1.938-2.099 3.557-1.739zM41.535 359.582c-.32 2.858-1.6 5.337-1.919 7.815 1.28.36 3.198 0 4.157 1.06-1.279-.7-3.198-1.42-3.517-2.839 0-1.419.64-3.897.959-4.957zM42.414 387.305c-.92-.34-2.178-.34-3.118-.7.64 2.06.94 4.458 1.56 6.157-.92-1.699-1.24-5.117 1.258-5.117zM122.206 363.42c1.679 2.098 4.317 3.158 4.317 6.296 0 3.158-1.319 5.956-2.318 8.735 0-3.138 1.659-5.577 1.659-8.375 0-2.459-1.98-4.897-3.658-5.957zM124.844 409.872c0 1.739 1.32 9.034 2.299 9.034 1.959 0 4.897-6.596 4.897-8.335 0 2.439-3.598 5.557-4.897 7.656-.32-2.439-.66-5.557-1.959-7.656zM122.566 416.028c1.639 3.558.66 5.676-1.32 8.155.34-1.06 1.32-2.119 1.66-3.178v-3.898zM85.248 381.249c.66 3.538 2 7.056-1.019 9.514 3.678-.7 1.34-6.676 1.02-8.455zM122.906 390.763c2.338 2.759 2.018 6.536-1.02 8.255 1.68 1.02 2.698-2.059 2.698-3.438s-.34-2.738-1.339-4.117zM42.075 371.895c2.338 3.797 1.339 6.536-1.02 9.974 2.359.34 2.698-3.438 2.698-4.818 0-1.019 0-2.058-.34-2.738-.34-.7-1.338-1.719-1.338-2.059zM115.99 374.213c.32 1.4 1.639 4.198 2.278 6.296.66 1.74.98 3.478.98 5.217-.98-.68-2.279-1.379-3.578-1.739-1.32 0-2.938 0-4.258-.34 2.3 0 4.898-.36 6.856.34-1.299-3.138-.98-6.616-2.598-9.414zM79.052 346.47c1.32 1.759 1 5.597 1 7.675v8.715c0 3.138-1.34 10.114.66 12.552.319-5.576 0-11.153 0-16.73 0-2.778.319-8.714-1.32-10.813z" fill="#fff" fill-rule="evenodd" fill-opacity="1" stroke="none"/><path d="M104.856 129.881s33.34 11.513 31.381 41.855c1.32 31.38-31.04 44.973-31.04 44.973l-.34-86.828z" fill="#9ccb99" fill-rule="evenodd" fill-opacity="1" stroke="none"/><path d="M105.296 130.8s19.229 6.617 23.446 17.41c5.537 4.517 7.815 13.912 7.815 23.666 0 11.833-4.217 25.045-10.413 28.183-5.217 10.433-20.508 16.69-20.508 16.69" fill="none" stroke="#343434" stroke-width="1.3591763px" stroke-linecap="round" stroke-linejoin="round" stroke-miterlimit="4" stroke-dasharray="none" stroke-opacity="1"/><path d="M37.557 148.87c1.96.34 3.918 3.478 3.918 6.956 0 3.477-1.959 6.616-4.577 6.975 1.958 23.326 15.99 40.396 15.99 40.396V115.41c-9.454 11.513-14.032 22.646-15.33 33.46zM121.626 167.598c-1.319-11.133-5.896-23.325-16.37-35.878v84.989s13.752-14.611 16.05-36.218h.32c2.619 0 4.897-2.779 4.897-6.616 0-3.478-2.278-6.277-4.897-6.277zM78.392 119.887v89.146s-22.466-48.39 0-89.146zM78.392 119.887v89.146s22.307-52.228 0-89.146z" fill="#b6d8ae" fill-rule="evenodd" fill-opacity="1" stroke="none"/><path d="M50.89 182.19 107.894 198v-54.087L50.889 132.76v49.43z" fill="#b6d8ae" fill-rule="evenodd" fill-opacity="1" stroke="none"/><path d="M78.432 119.667c-3.258 5.557-5.536 11.134-6.855 17.05l-18.63-3.818V115.13c-9.473 11.493-14.03 22.627-15.35 33.42 1.959.34 3.918 3.478 3.918 6.956s-1.959 6.616-4.577 6.976c1.978 23.305 16.01 40.355 16.01 40.355V182.67l18.629 4.857c2.938 12.893 6.855 21.227 6.855 21.227" fill="none" stroke="#343434" stroke-width="1.3591763px" stroke-linecap="round" stroke-linejoin="round" stroke-miterlimit="4" stroke-dasharray="none" stroke-opacity="1"/><path d="M78.432 208.694s2.959-6.956 5.577-17.73l21.287 5.917v19.468s13.752-14.611 16.03-36.178h.34c2.619 0 4.897-2.779 4.897-6.616 0-3.478-2.278-6.256-4.897-6.256 0 0 0 0 0 0-1.319-11.134-5.896-23.326-16.37-35.859v11.833l-18.988-3.818c-1.64-6.955-3.938-13.571-7.876-19.847" fill="none" stroke="#343434" stroke-width="1.3591763px" stroke-linecap="round" stroke-linejoin="round" stroke-miterlimit="4" stroke-dasharray="none" stroke-opacity="1"/><path d="m37.917 148.07 83.59 18.909s5.536 2.099 4.896 6.996c-.66 4.897-2.298 6.636-5.236 6.636l-84.23-17.83s4.258-1.399 4.578-6.296c.66-5.596-3.598-8.415-3.598-8.415M122.886 166.939l5.516-17.67M121.286 180.61l4.638 19.109M78.752 121.286l.16.16M78.113 171.896l.16 36.138M78.113 156.625l.16-36.378" fill="none" stroke="#343434" stroke-width="1.3591763px" stroke-linecap="round" stroke-linejoin="round" stroke-miterlimit="4" stroke-dasharray="none" stroke-opacity="1"/><path d="M78.133 157.265h.64c3.237 0 5.816 3.118 5.816 7.255 0 3.798-2.579 6.896-5.817 6.896-.32 0-.64 0-.98-.34" fill="none" stroke="#343434" stroke-width="1.3591763px" stroke-linecap="round" stroke-linejoin="round" stroke-miterlimit="4" stroke-dasharray="none" stroke-opacity="1"/><path d="M41.775 150.589c2.958 1.759 7.215 1.759 10.493 2.798 4.258 1.06 8.835 1.739 13.432 2.798 3.598.7 7.196 1.74 10.794 2.799 1.958.7 6.216 1.379 6.216 4.537 0 1.38-.32 1.38-1.62 1.38-1.638 0-3.937-.68-5.896-.68-4.597-.36-9.174-.7-13.751-1.4-3.618-.7-7.536-1.399-11.153-2.458-1.96-.34-4.578-2.079-6.537-2.079-.979-2.099-.979-4.537-1.978-6.636zM85.588 161.062c1.64.7 1.64 3.138 1.64 4.877 3.597 0 6.555 1.04 10.153 1.74 1.639.34 3.598 0 5.237.679 1.639.36 2.938 1.04 4.577 1.4 5.896 1.038 11.793 1.738 17.01 3.457 0-2.778-4.897-4.857-6.856-5.537-3.278-1.059-6.876-1.059-10.154-1.739-6.216-1.039-13.092-1.739-18.988-3.817-.64 0-1.3-.7-2.28-.7z" fill="#9ccb99" fill-rule="evenodd" fill-opacity="1" stroke="none"/><path d="M41.055 161.742c2.639-.36 6.236 1.04 8.855 1.38 3.937.339 7.535 1.378 11.133 2.078 5.896 1.04 11.793 4.497 17.35 4.157-1.62-3.458-8.835-4.497-11.773-4.857-3.618-.34-6.896-1.04-10.494-1.379-2.618-.34-5.557-.7-8.175-1.04-2.299 0-5.257.34-6.896-.699zM83.59 171.416c6.535 0 12.432 2.439 18.628 4.198 3.598.68 7.196 1.379 10.794 1.739 2.298.34 5.236 1.039 7.835 1.379-1.959-3.118-7.516-3.478-10.454-4.178-3.918-1.04-7.515-1.739-11.433-2.438-2.938-.34-5.876-1.04-8.835-1.4-.979-.34-2.278-.699-3.577-.34-.66 0-2.3.7-2.959.34zM79.432 132.36c.66 7.335 1.32 15.37.34 22.706 1.958 0 4.597 1.06 6.556 1.759 1.978 1.04 3.937 1.739 5.896 2.079-2.618-.68-5.237-2.439-7.535-3.838-.98-.7-1.96-1.04-2.619-2.099-.34-1.04-.66-3.478-.98-4.537-.339-3.138-.339-6.276-.659-9.074 0-1.74 0-4.897-1-5.937zM45.073 129.561c-.34 1.76-1.64 3.159-1.96 4.578-.639 1.739-1.298 3.498-1.938 4.897-.98 2.098-1.619 4.917-2.279 7.015 1.64 1.06 4.218 1.4 5.837 2.1 1.959.359 4.217 1.398 6.156 1.398-2.898-1.739-7.455-2.098-8.095-5.956-.64-3.858.64-9.114 1.939-12.612zM47.451 167.319c-2.598 0-5.856-1.04-8.155-2.1.66 5.937 1.959 13.253 5.557 18.47-1.959-3.818-3.598-9.754-3.258-13.932 0-2.079.32-2.079 1.619-1.739.98 0 2.618 0 3.278.7zM110.713 142.913c2.279 6.596 5.537 12.853 7.815 19.429-2.598-1.38-6.496-1.04-8.795-2.759 1.32-.7 2.3-.7 2.939-2.438.66-1.38 0-3.118 0-4.857 0-2.419-.98-7.276-2.279-9.015zM101.259 193.403c1.319-.34 3.917.7 5.216 1.399 1.64 1.06 1.3 2.099 1.3 4.197 0 3.478-.32 7.316-.32 11.154.66-5.217 1.959-10.454 2.598-15.69 0-2.46-.64-2.46-2.598-2.46-1.959 0-3.578.36-5.537.36zM85.568 174.914c-1.619.68-3.917-1.06-5.876-.7.34 6.616-.66 13.212-.32 19.469 1.3-4.518 1.639-9.375 2.938-13.912.98-2.778 1.64-3.478 4.238-3.478zM125.164 166.579c-.32 1.06 1.28 3.158 1.6 4.217.319 1.76.319 3.498.319 5.257 0 3.158-.96 5.597-3.518 6.656 3.518.34 5.117-4.197 5.117-7.355 0-3.158-1.28-6.316-3.518-8.055zM113.731 136.197c.34 1.42 4.238 3.159 5.537 4.218 1.639 1.04 3.578 2.438 5.217 4.197 2.918 3.138 2.278 9.095-.32 12.933-.34-2.799 1.299-5.237.96-8.036-.32-2.458-1.62-3.857-3.239-5.256-1.32-1.04-2.618-2.439-3.917-3.498-.98-1.04-2.919-2.099-3.578-3.138zM124.205 186.387c.34 2.778.98 9.055 2.918 11.133.66-2.078 2.598-3.817 3.578-5.556.96-1.74 1.619-3.838 2.258-5.917 1.3-4.177 3.238-10.793 1.96-14.99 0 3.837-1.62 8.014-2.6 11.852-.979 2.439-1.618 5.217-2.598 7.316-.32.68-.979 1.739-1.619 2.438-.979.68-.979.68-1.299-1.06-.96-1.738-1.939-3.117-2.598-4.876zM122.586 194.882c.98 2.438 1.619 5.197 0 7.275-1.64 2.419-4.578 4.138-6.217 6.557 1.96-2.06 3.598-5.517 4.898-8.295.979-1.72.66-3.798.979-5.537z" fill="#cfe5cb" fill-rule="evenodd" fill-opacity="1" stroke="none"/><path d="M84.869 174.874c-1.62-.7-3.558-.34-5.177-.7v12.553c0 4.537-.66 9.074-.66 13.592 0-3.119.98-6.956.98-10.454.32-2.079.32-4.517.32-6.616 0-2.099 0-4.877.34-6.616.639-1.759 1.938-2.099 3.557-1.4zM41.535 138.756c-.32 2.778-1.6 5.197-1.919 7.615 1.28.34 3.198.34 4.157 1.02-1.279-.68-3.198-1.02-3.517-2.759 0-1.379.64-3.797.959-4.837zM42.414 166.26c-.92-.36-2.178-.36-3.118-.72.64 2.118.94 4.577 1.56 6.316-.92-1.74-1.24-4.897 1.258-5.257zM122.206 142.594c1.679 2.438 4.317 3.138 4.317 6.616 0 2.778-1.319 5.556-2.318 8.335 0-2.779 1.659-5.557 1.659-8.335 0-2.439-1.98-4.518-3.658-5.917zM124.844 188.886c0 1.758 1.32 9.114 2.299 9.114 1.959 0 4.897-6.656 4.897-8.395 0 2.439-3.598 5.597-4.897 7.695-.32-2.438-.66-5.596-1.959-7.695zM122.566 195.202c1.639 3.478.66 5.576-1.32 7.995.34-1.04 1.32-2.079 1.66-3.118V196.6zM85.248 160.343c.66 3.458 2 6.916-1.019 9.674 3.678-1.02 1.34-6.896 1.02-8.635zM122.906 169.697c2.338 3.178 2.018 6.696-1.02 8.815 1.68.7 2.698-2.459 2.698-3.518 0-1.759-.34-3.178-1.339-4.237zM42.075 150.909c2.338 3.857 1.339 6.636-1.02 10.133 2.359.34 2.698-3.138 2.698-4.897 0-.68 0-2.078-.34-2.778-.34-.7-1.338-1.759-1.338-2.099zM115.99 153.387c.32 1.4 1.639 4.537 2.278 6.296.66 1.74.98 3.478.98 5.217-.98-.34-2.279-1.04-3.578-1.38-1.32-.359-2.938 0-4.258-.699 2.3 0 4.898-.36 6.856.34-1.299-2.778-.98-6.616-2.598-9.414zM79.052 125.404c1.32 1.759 1 5.597 1 7.675v8.715c0 3.138-1.34 10.474.66 12.552.319-5.216 0-11.153 0-16.73 0-2.778.319-8.714-1.32-10.813z" fill="#fff" fill-rule="evenodd" fill-opacity="1" stroke="none"/><path d="M149.39 186.007c-5.217 3.498-4.898 10.454-7.836 15.331-1.639 2.439-2.938 4.537-3.917 8.015-.66 1.74-.66 3.478-.98 5.237-.34 1.739-.34 4.177-.66 5.557-1.319-5.917 0-13.572 3.259-18.45 2.958-4.536 3.937-13.591 9.494-15.69zM202.317 247.49c-3.597 4.197-3.597 10.114-7.235 13.912-4.597 5.236-5.557 13.911-5.557 20.867-1.679-6.236 0-14.591 3.278-19.788 1.64-2.119 3.278-3.838 4.278-6.636.32-1.4.64-3.118 1.319-4.517.64-1.04 1.959-1.72 2.638-2.759zM142.194 318.087c-3.918 3.498-5.217 10.474-5.877 15.37-.32 2.78-.979 6.277-.979 9.075 0 3.139.66 5.917 1.32 9.055-1.96-2.079-1.96-7.675-1.96-10.454-.34-3.138-.34-6.636.32-9.774 1.3-4.537 3.598-8.735 6.536-12.212zM192.164 387.565c-.32 2.479-.96 5.957-1.96 8.395-1.638 2.798-3.277 5.237-4.237 8.355-1.959 7.316-1.639 16.07-1.639 23.706-1.639-8.355-2.638-16.71.32-24.745 1-3.119 2.638-5.597 3.918-8.355 1-2.439 1-5.957 3.278-7.356zM183.05 143.873c.319 9.074-.96 18.149 1.958 26.864.96 3.118 3.878 5.916 5.157 9.034 1.639 3.838 3.598 7.316 6.476 9.754-2.878-.68-5.797-5.197-7.116-7.635-1.599-2.799-3.238-4.877-4.837-7.676-6.196-9.394-2.918-20.547-1.639-30.341z" fill="#f0c0d8" fill-rule="evenodd" fill-opacity="1" stroke="none"/></svg>