<?xml version="1.0" encoding="UTF-8" standalone="no"?>
<!-- Created with Inkscape (http://www.inkscape.org/) -->

<svg
   xmlns:ns="http://ns.adobe.com/SaveForWeb/1.0/"
   xmlns:dc="http://purl.org/dc/elements/1.1/"
   xmlns:cc="http://creativecommons.org/ns#"
   xmlns:rdf="http://www.w3.org/1999/02/22-rdf-syntax-ns#"
   xmlns:svg="http://www.w3.org/2000/svg"
   xmlns="http://www.w3.org/2000/svg"
   version="1.1"
   width="315.87399"
   height="1198.413"
   viewBox="-35.087 -952.356 315.874 1198.413"
   id="svg2"
   xml:space="preserve"><defs
   id="defs472" />
<metadata
   id="metadata4">
	<ns:sfw>
		<ns:slices />
		<ns:sliceSourceBounds
   bottomLeftOrigin="true"
   x="188.899"
   y="389.669"
   width="231.281"
   height="1051.52" />
	</ns:sfw>
<rdf:RDF><cc:Work
     rdf:about=""><dc:format>image/svg+xml</dc:format><dc:type
       rdf:resource="http://purl.org/dc/dcmitype/StillImage" /><dc:title></dc:title></cc:Work></rdf:RDF></metadata>
<g
   id="Base">
	
		<line
   fill="none"
   stroke="#1A171B"
   stroke-width="0.75"
   stroke-linecap="round"
   stroke-linejoin="round"
   x1="87.694"
   y1="166.599"
   x2="87.694"
   y2="174.394"
   id="line7"
   style="fill:none;stroke:#1a171b;stroke-width:0.75;stroke-linecap:round;stroke-linejoin:round" />
	
		<line
   fill="none"
   stroke="#1A171B"
   stroke-width="0.75"
   stroke-linecap="round"
   stroke-linejoin="round"
   x1="148.36301"
   y1="78.320999"
   x2="148.36301"
   y2="86.177002"
   id="line9"
   style="fill:none;stroke:#1a171b;stroke-width:0.75;stroke-linecap:round;stroke-linejoin:round" />
	<g
   id="g11">
		
			<line
   fill="none"
   stroke="#1A171B"
   stroke-width="0.75"
   stroke-linecap="round"
   stroke-linejoin="round"
   x1="33.105999"
   y1="111.312"
   x2="9.8380003"
   y2="125.803"
   id="line13"
   style="fill:none;stroke:#1a171b;stroke-width:0.75;stroke-linecap:round;stroke-linejoin:round" />
	</g>
	<g
   id="g15">
		<path
   d="m 73.566,91.791 -8.328,0.632 c -1.129,0.085 -2.839,0.646 -3.8,1.244 l -11.82,7.361"
   id="path17"
   style="fill:none;stroke:#1a171b;stroke-width:0.75;stroke-linecap:round;stroke-linejoin:round" />
	</g>
	<g
   id="g19">
		<path
   d="m 162.424,91.073 -12.192,-4.271 c -1.069,-0.375 -2.867,-0.61 -3.996,-0.525 l -61.813,4.69"
   id="path21"
   style="fill:none;stroke:#1a171b;stroke-width:0.75;stroke-linecap:round;stroke-linejoin:round" />
	</g>
	
		<line
   fill="none"
   stroke="#1A171B"
   stroke-width="0.75"
   stroke-linecap="round"
   stroke-linejoin="round"
   x1="196.646"
   y1="103.06"
   x2="170.534"
   y2="93.914001"
   id="line23"
   style="fill:none;stroke:#1a171b;stroke-width:0.75;stroke-linecap:round;stroke-linejoin:round" />
	
		<line
   fill="none"
   stroke="#1A171B"
   stroke-width="0.75"
   stroke-linecap="round"
   stroke-linejoin="round"
   x1="227.235"
   y1="113.776"
   x2="209.89799"
   y2="107.703"
   id="line25"
   style="fill:none;stroke:#1a171b;stroke-width:0.75;stroke-linecap:round;stroke-linejoin:round" />
	<path
   d="m 204.384,111.854 c 4.018,3.14 6.228,6.568 6.228,10.157"
   id="path27"
   style="fill:none;stroke:#161413;stroke-width:1.5;stroke-linecap:round;stroke-linejoin:round" />
	<path
   d="m 161.869,97.491 c 14.434,2.224 26.616,5.661 35.192,9.889"
   id="path29"
   style="fill:none;stroke:#161413;stroke-width:1.5;stroke-linecap:round;stroke-linejoin:round" />
	<path
   d="m 105.422,95.289 c 5.821,-0.384 11.856,-0.586 18.042,-0.586 5.741,0 11.354,0.174 16.786,0.506"
   id="path31"
   style="fill:none;stroke:#161413;stroke-width:1.5;stroke-linecap:round;stroke-linejoin:round" />
	<path
   d="M 48.855,107.891 C 57.294,103.522 69.53,99.954 84.129,97.637"
   id="path33"
   style="fill:none;stroke:#161413;stroke-width:1.5;stroke-linecap:round;stroke-linejoin:round" />
	<path
   d="m 36.314,122.011 c 0,-3.532 2.139,-6.908 6.035,-10.006"
   id="path35"
   style="fill:none;stroke:#161413;stroke-width:1.5;stroke-linecap:round;stroke-linejoin:round" />
	<polyline
   fill="none"
   stroke="#161413"
   stroke-width="0.75"
   stroke-linecap="round"
   stroke-linejoin="round"
   points="   170.105,85.907 148.288,78.264 84.424,83.764  "
   id="polyline37"
   style="fill:none;stroke:#161413;stroke-width:0.75;stroke-linecap:round;stroke-linejoin:round" />
	
		<line
   fill="none"
   stroke="#1A171B"
   stroke-width="0.75"
   stroke-linecap="round"
   stroke-linejoin="round"
   x1="184.87801"
   y1="91.073997"
   x2="176.439"
   y2="88.125"
   id="line39"
   style="fill:none;stroke:#1a171b;stroke-width:0.75;stroke-linecap:round;stroke-linejoin:round" />
	<path
   d="m 177.584,82.014 c 15.187,7.288 27.319,17.438 35.31,29.55"
   id="path41"
   style="fill:none;stroke:#161413;stroke-width:3;stroke-linecap:round;stroke-linejoin:round" />
	<path
   d="M 32.473,112.598 C 40.517,99.907 53.266,89.327 69.107,81.82"
   id="path43"
   style="fill:none;stroke:#161413;stroke-width:3;stroke-linecap:round;stroke-linejoin:round" />
	<g
   id="g45">
		<path
   d="M 63.185,84.723 3.647,121.801 c -0.961,0.599 -1.748,2.015 -1.748,3.147 v 3.739 c 0,1.132 0.825,2.479 1.834,2.994 l 81.971,41.812 c 1.009,0.515 2.754,0.828 3.879,0.697 l 138.553,-16.178 c 1.125,-0.131 2.045,-1.165 2.045,-2.297 v -3.74 c 0,-1.132 -0.062,-2.983 -0.138,-4.113 l -2.67,-39.889 c -0.076,-1.13 -1.012,-2.361 -2.08,-2.736 l -26.106,-9.163"
   id="path47"
   style="fill:none;stroke:#161413;stroke-width:3;stroke-linecap:round;stroke-linejoin:round" />
	</g>
	<path
   d="M 44.833,138.169 C 35.119,133.289 29.464,127.443 29.464,121.163"
   id="path49"
   style="fill:none;stroke:#1a171b;stroke-width:0.75;stroke-linecap:round;stroke-linejoin:round" />
	<path
   d="m 216.529,121.163 c 0,17.096 -41.876,30.953 -93.532,30.953 -24.41,0 -46.637,-3.094 -63.292,-8.164"
   id="path51"
   style="fill:none;stroke:#1a171b;stroke-width:0.75;stroke-linecap:round;stroke-linejoin:round" />
	<path
   d="M 48.195,133.618 C 38.563,128.891 32.944,123.201 32.944,117.077"
   id="path53"
   style="fill:none;stroke:#1a171b;stroke-width:1.5;stroke-linecap:round;stroke-linejoin:round" />
	<path
   d="m 213.053,117.077 c 0,16.402 -40.32,29.697 -90.056,29.697 -23.018,0 -44.019,-2.849 -59.94,-7.535"
   id="path55"
   style="fill:none;stroke:#1a171b;stroke-width:1.5;stroke-linecap:round;stroke-linejoin:round" />
	<g
   id="g57">
		<path
   d="m 47.759,146.282 37.945,19.355 c 1.009,0.515 2.754,0.828 3.879,0.697 l 140.598,-16.418"
   id="path59"
   style="fill:none;stroke:#1a171b;stroke-width:0.75;stroke-linecap:round;stroke-linejoin:round" />
	</g>
	<g
   id="g61">
		
			<line
   fill="none"
   stroke="#1A171B"
   stroke-width="0.75"
   stroke-linecap="round"
   stroke-linejoin="round"
   x1="1.899"
   y1="122.889"
   x2="36.011002"
   y2="140.291"
   id="line63"
   style="fill:none;stroke:#1a171b;stroke-width:0.75;stroke-linecap:round;stroke-linejoin:round" />
	</g>
</g>
<g
   id="Cylinder">
	<path
   d="M 77.773,94.494 C 73.976,92.351 71.753,89.973 70.51,87.673"
   id="path66"
   style="fill:none;stroke:#161413;stroke-width:1.5;stroke-linecap:round;stroke-linejoin:round" />
	<path
   d="m 176.625,86.76 c -3.084,7.073 -14.907,15.3 -53.28,15.3 -16.142,0 -27.584,-1.455 -35.657,-3.669"
   id="path68"
   style="fill:none;stroke:#161413;stroke-width:1.5;stroke-linecap:round;stroke-linejoin:round" />
	<path
   d="m 60.536,-848.228 c 0.704,-0.461 2.308,-0.933 3.06,-1.079 6.068,-1.173 10.259,-0.936 17.512,0.747 10.441,2.425 24.868,3.924 40.804,3.924 23.371,0 42.648,-3.415 51.765,-7.888 2.201,-1.079 3.373,-2.552 3.605,-3.617"
   id="path70"
   style="fill:none;stroke:#161413;stroke-width:1.5;stroke-linecap:round;stroke-linejoin:round" />
	<path
   d="m 69.107,81.819 v -914.945 c 0,0 0.655,-10.071 -8.917,-11.449 -0.478,-0.068 -2.016,0.611 -2.547,0.591 -3.066,-0.116 -3.772,-3.671 1.306,-8.444 5.65,-5.309 2.997,-11.14 14.227,-15.104 10.754,-3.795 29.143,-6.769 50.169,-6.769 33.007,0 59.762,6.747 59.762,14.832 0,5.856 -5.522,6.452 -5.522,15.043 v 926.44"
   id="path72"
   style="fill:none;stroke:#161413;stroke-width:3;stroke-linecap:round;stroke-linejoin:round" />
	<path
   d="m 66.629,-846.505 c 7.208,-0.778 9.18,0.081 15.403,1.658 0.407,0.103 0.83,0.209 1.275,0.32"
   id="path74"
   style="fill:none;stroke:#161413;stroke-width:0.75;stroke-linecap:round;stroke-linejoin:round" />
	<path
   d="m 175.216,-849.435 c -9.584,5.896 -29.983,9.075 -51.955,9.075 -11.425,0 -22.079,-0.864 -31.06,-2.354"
   id="path76"
   style="fill:none;stroke:#161413;stroke-width:0.75;stroke-linecap:round;stroke-linejoin:round" />
	<path
   d="m 154.712,-866.748 c 8.517,1.588 16.27,4.264 19.362,6.364 1.42,0.964 2.245,2.076 2.245,3.387"
   id="path78"
   style="fill:none;stroke:#161413;stroke-width:0.75;stroke-linecap:round;stroke-linejoin:round" />
	<path
   d="m 67.2,-853.145 c 1.839,-4.518 2.907,-8.248 13.04,-11.261 10.456,-3.107 25.488,-5.057 42.191,-5.057 8.279,0 16.146,0.478 23.25,1.339"
   id="path80"
   style="fill:none;stroke:#161413;stroke-width:0.75;stroke-linecap:round;stroke-linejoin:round" />
	<path
   d="m 172.883,74.77 v -919.018 c 0,-1.118 0.415,-2.844 0.766,-3.418"
   id="path82"
   style="fill:none;stroke:#161413;stroke-width:0.75;stroke-linecap:round;stroke-linejoin:round" />
	<path
   d="m 73.639,74.77 c 0,0 0,-903.224 0,-907.296 0,-7.272 -2.454,-11.884 -7.639,-13.077"
   id="path84"
   style="fill:none;stroke:#161413;stroke-width:0.75;stroke-linecap:round;stroke-linejoin:round" />
	<path
   d="m 82.296,90.46 c -7.039,-3.319 -8.65,-7.527 -8.65,-11.079"
   id="path86"
   style="fill:none;stroke:#161413;stroke-width:0.75;stroke-linecap:round;stroke-linejoin:round" />
	<path
   d="m 172.817,79.382 c 0,7.102 -6.401,16.831 -49.527,16.831 -14.847,0 -25.342,-1.153 -32.721,-2.957"
   id="path88"
   style="fill:none;stroke:#161413;stroke-width:0.75;stroke-linecap:round;stroke-linejoin:round" />
	<path
   d="m 166.345,83.283 c -2.733,-2.494 -9.31,-4.627 -18.159,-6.034"
   id="path90"
   style="fill:none;stroke:#161413;stroke-width:0.75;stroke-linecap:round;stroke-linejoin:round" />
	<path
   d="m 135.006,75.431 c -3.74,-0.241 -7.681,-0.37 -11.745,-0.37 -24.566,0 -44.481,4.667 -44.481,10.427"
   id="path92"
   style="fill:none;stroke:#161413;stroke-width:0.75;stroke-linecap:round;stroke-linejoin:round" />
	<path
   d="m 141.254,67.17 c -5.605,-0.605 -11.665,-0.938 -17.993,-0.938 -21.132,0 -39.31,3.684 -47.373,8.966"
   id="path94"
   style="fill:none;stroke:#161413;stroke-width:0.75;stroke-linecap:round;stroke-linejoin:round" />
	<path
   d="m 170.633,75.197 c -2.891,-1.895 -6.638,-3.418 -11.649,-4.807"
   id="path96"
   style="fill:none;stroke:#161413;stroke-width:0.75;stroke-linecap:round;stroke-linejoin:round" />
</g>
<g
   id="Label">
	<g
   id="g99">
		<path
   d="m 104.412,-752.688 c 0,-0.583 0,-1.167 0,-1.75 1.324,-1.392 2.649,-2.798 3.975,-4.219 0.389,-0.429 0.554,-0.744 0.554,-1.237 0,-0.793 -0.464,-1.369 -1.286,-1.447 -0.643,-0.061 -1.301,0.203 -1.3,1.234 -0.647,-0.065 -1.295,-0.135 -1.942,-0.208 0,-1.944 1.418,-2.947 3.242,-2.776 1.884,0.177 3.231,1.454 3.231,3.37 0,1.031 -0.403,1.555 -1.138,2.347 -0.992,1.07 -1.984,2.132 -2.976,3.185 1.37,0.136 2.741,0.255 4.113,0.359 0,0.583 0,1.166 0,1.749 -2.159,-0.163 -4.318,-0.366 -6.473,-0.607 z"
   id="path101" />
		<path
   d="m 118.11,-752.457 c -0.479,0.461 -1.244,0.823 -2.354,0.769 -1.108,-0.054 -1.918,-0.492 -2.382,-0.983 -0.659,-0.699 -0.809,-1.488 -0.868,-2.269 0.648,0.043 1.298,0.083 1.946,0.119 0.105,0.843 0.494,1.344 1.304,1.384 0.375,0.018 0.69,-0.073 0.93,-0.302 0.345,-0.329 0.419,-0.894 0.419,-1.567 0,-1.226 -0.359,-1.927 -1.304,-1.972 -0.793,-0.039 -1.153,0.389 -1.288,0.8 -0.595,-0.033 -1.188,-0.069 -1.783,-0.107 0,-2.004 0,-4.007 0,-6.011 2.027,0.132 4.056,0.23 6.085,0.294 0,0.583 0,1.166 0,1.75 -1.439,-0.045 -2.879,-0.107 -4.317,-0.187 0,0.763 0,1.525 0,2.288 0.285,-0.254 0.885,-0.49 1.604,-0.457 0.884,0.041 1.559,0.35 1.993,0.799 0.84,0.867 0.96,1.87 0.96,2.873 0,1.194 -0.164,2.028 -0.945,2.779 z"
   id="path103" />
		<path
   d="m 123.873,-751.479 c -1.739,-0.005 -3.255,-1.177 -3.255,-3.21 0,-1.495 0,-2.991 0,-4.486 0,-2.034 1.516,-3.136 3.255,-3.131 1.739,0.007 3.241,1.118 3.24,3.151 0,1.495 0,2.991 0,4.486 0,2.034 -1.5,3.196 -3.24,3.19 z m 1.29,-7.627 c 0,-0.897 -0.524,-1.448 -1.29,-1.45 -0.765,-0.002 -1.305,0.544 -1.305,1.441 0,1.48 0,2.961 0,4.441 0,0.898 0.54,1.442 1.305,1.444 0.766,0.003 1.29,-0.539 1.29,-1.436 0,-1.48 0,-2.96 0,-4.44 z"
   id="path105" />
		<path
   d="m 131.017,-755.741 c 0,-0.738 0,-1.476 0,-2.213 0.739,-0.027 1.479,-0.059 2.218,-0.095 0,0.738 0,1.476 0,2.213 -0.74,0.036 -1.479,0.068 -2.218,0.095 z m 0,4.052 c 0,-0.737 0,-1.475 0,-2.213 0.739,-0.027 1.479,-0.059 2.218,-0.095 0,0.738 0,1.475 0,2.213 -0.74,0.036 -1.479,0.068 -2.218,0.095 z"
   id="path107" />
		<path
   d="m 137.416,-752.038 c 0,-0.583 0,-1.167 0,-1.75 1.328,-1.637 2.655,-3.287 3.98,-4.954 0.389,-0.5 0.553,-0.846 0.553,-1.339 0,-0.794 -0.464,-1.284 -1.286,-1.21 -0.643,0.058 -1.301,0.443 -1.301,1.474 -0.648,0.054 -1.297,0.105 -1.946,0.152 0,-1.944 1.423,-3.21 3.247,-3.375 1.885,-0.17 3.229,0.859 3.229,2.773 0,1.032 -0.403,1.63 -1.136,2.557 -0.99,1.253 -1.982,2.498 -2.975,3.735 1.371,-0.118 2.741,-0.251 4.11,-0.4 0,0.583 0,1.167 0,1.75 -2.155,0.234 -4.314,0.43 -6.475,0.587 z"
   id="path109" />
		<path
   d="m 105.379,-734.63 c 0,-1.57 0,-3.14 0,-4.71 0,-1.061 -0.672,-1.492 -1.284,-1.562 -0.598,-0.068 -1.299,0.206 -1.299,1.222 0,1.585 0,3.17 0,4.756 -0.646,-0.079 -1.292,-0.161 -1.938,-0.246 0,-1.57 0,-3.141 0,-4.711 0,-1.061 -0.671,-1.508 -1.281,-1.595 -0.61,-0.084 -1.295,0.173 -1.295,1.235 0,1.57 0,3.14 0,4.71 -0.645,-0.095 -1.289,-0.193 -1.933,-0.295 0,-2.597 0,-5.194 0,-7.791 0.629,0.1 1.258,0.196 1.888,0.289 0,0.239 0,0.479 0,0.718 0.506,-0.447 1.221,-0.629 1.936,-0.532 0.864,0.117 1.565,0.521 2.057,1.255 0.656,-0.607 1.357,-0.821 2.328,-0.712 0.777,0.087 1.479,0.413 1.912,0.891 0.627,0.691 0.852,1.445 0.852,2.297 0,1.66 0,3.319 0,4.979 -0.648,-0.063 -1.296,-0.129 -1.943,-0.198 z"
   id="path111" />
		<path
   d="m 111.621,-734.074 c -1.602,-0.117 -2.275,-1.3 -2.275,-2.405 0,-2.806 0,-5.613 0,-8.419 0.648,0.055 1.297,0.106 1.945,0.153 0,2.767 0,5.533 0,8.3 0,0.462 0.195,0.718 0.688,0.751 0.25,0.018 0.5,0.035 0.749,0.051 0,0.548 0,1.097 0,1.645 -0.369,-0.024 -0.738,-0.049 -1.107,-0.076 z"
   id="path113" />
		<path
   d="m 117.589,-733.746 c 0,-2.611 0,-5.222 0,-7.833 0.511,0.019 1.021,0.037 1.533,0.052 0,2.611 0,5.222 0,7.833 -0.512,-0.015 -1.022,-0.033 -1.533,-0.052 z"
   id="path115" />
		<path
   d="m 124.187,-733.616 c 0,-1.155 0,-2.311 0,-3.465 0,-0.781 -0.496,-1.046 -0.949,-1.049 -0.452,-0.003 -0.96,0.256 -0.96,1.037 0,1.155 0,2.31 0,3.465 -0.479,-0.006 -0.956,-0.014 -1.435,-0.023 0,-1.91 0,-3.821 0,-5.731 0.467,0.009 0.935,0.017 1.401,0.022 0,0.176 0,0.352 0,0.528 0.375,-0.391 0.905,-0.586 1.435,-0.583 0.573,0.002 1.037,0.189 1.357,0.506 0.463,0.46 0.585,0.998 0.585,1.625 0,1.221 0,2.442 0,3.664 -0.478,0.004 -0.956,0.005 -1.434,0.004 z"
   id="path117" />
		<path
   d="m 129.57,-733.689 c 0,-0.429 0,-0.858 0,-1.287 0.978,-1.161 1.955,-2.33 2.933,-3.507 0.287,-0.354 0.409,-0.602 0.408,-0.965 0,-0.583 -0.341,-0.962 -0.948,-0.937 -0.474,0.02 -0.959,0.279 -0.959,1.039 -0.479,0.018 -0.956,0.033 -1.434,0.047 0,-1.431 1.048,-2.316 2.393,-2.373 1.39,-0.059 2.383,0.751 2.382,2.162 0.001,0.758 -0.297,1.182 -0.838,1.837 -0.731,0.884 -1.463,1.764 -2.194,2.639 1.012,-0.039 2.022,-0.086 3.032,-0.142 0,0.429 0,0.858 0,1.287 -1.591,0.088 -3.183,0.154 -4.775,0.2 z"
   id="path119" />
		<path
   d="m 137.902,-734.055 c -1.278,0.096 -2.39,-0.673 -2.39,-2.168 0,-1.1 0,-2.201 0,-3.301 -0.001,-1.497 1.112,-2.4 2.39,-2.496 1.277,-0.095 2.378,0.641 2.378,2.137 0,1.101 0,2.201 0,3.301 0,1.496 -1.1,2.431 -2.378,2.527 z m 0.948,-5.685 c 0,-0.66 -0.386,-1.036 -0.947,-0.993 -0.562,0.042 -0.958,0.475 -0.958,1.136 0,1.089 0,2.178 0,3.268 0,0.661 0.396,1.029 0.958,0.987 0.562,-0.042 0.947,-0.47 0.947,-1.13 0,-1.09 0,-2.179 0,-3.268 z"
   id="path121" />
		<path
   d="m 143.513,-738.57 c -1.121,0.12 -2.022,-0.698 -2.022,-1.82 0,-1.122 0.901,-2.119 2.022,-2.24 1.121,-0.12 2.021,0.685 2.021,1.808 -0.001,1.121 -0.9,2.132 -2.021,2.252 z m -0.011,-2.904 c -0.483,0.051 -0.856,0.474 -0.856,0.969 0,0.495 0.384,0.841 0.867,0.79 0.483,-0.051 0.867,-0.48 0.867,-0.976 0.001,-0.494 -0.395,-0.834 -0.878,-0.783 z"
   id="path123" />
		<path
   d="m 149.656,-735.33 c -0.854,0.122 -1.556,-0.094 -2.104,-0.572 -0.79,-0.69 -0.768,-1.675 -0.768,-3.026 0,-1.354 -0.022,-2.329 0.768,-3.223 0.549,-0.621 1.25,-1.022 2.104,-1.144 1.457,-0.207 2.594,0.448 2.867,2.044 -0.514,0.082 -1.028,0.161 -1.543,0.238 -0.152,-0.604 -0.547,-1.028 -1.312,-0.92 -0.418,0.059 -0.757,0.26 -0.976,0.543 -0.296,0.371 -0.384,0.755 -0.384,2.263 0,1.507 0.088,1.87 0.384,2.16 0.219,0.223 0.559,0.33 0.976,0.271 0.766,-0.108 1.16,-0.653 1.312,-1.302 0.515,-0.077 1.029,-0.156 1.543,-0.238 -0.273,1.682 -1.421,2.701 -2.867,2.906 z"
   id="path125" />
	</g>
</g>
<g
   id="Scale">
	<path
   d="m 117.123,-683.289 c 4.288,0.437 8.881,0.674 13.657,0.674 14.986,0 27.695,-2.47 35.198,-5.932"
   id="path128"
   style="fill:none;stroke:#000000;stroke-width:1.5;stroke-linecap:round;stroke-linejoin:round" />
	<path
   d="m 117.123,-621.991 c 4.288,0.437 8.881,0.673 13.657,0.673 14.986,0 27.695,-2.469 35.198,-5.931"
   id="path130"
   style="fill:none;stroke:#000000;stroke-width:1.5;stroke-linecap:round;stroke-linejoin:round" />
	<path
   d="m 117.123,-560.695 c 4.288,0.438 8.881,0.675 13.657,0.675 14.986,0 27.695,-2.47 35.198,-5.932"
   id="path132"
   style="fill:none;stroke:#000000;stroke-width:1.5;stroke-linecap:round;stroke-linejoin:round" />
	<path
   d="m 117.123,-499.397 c 4.288,0.437 8.881,0.673 13.657,0.673 14.986,0 27.695,-2.47 35.198,-5.931"
   id="path134"
   style="fill:none;stroke:#000000;stroke-width:1.5;stroke-linecap:round;stroke-linejoin:round" />
	<path
   d="m 117.123,-438.101 c 4.288,0.437 8.881,0.673 13.657,0.673 14.986,0 27.695,-2.469 35.198,-5.931"
   id="path136"
   style="fill:none;stroke:#000000;stroke-width:1.5;stroke-linecap:round;stroke-linejoin:round" />
	<path
   d="m 117.123,-376.804 c 4.288,0.437 8.881,0.673 13.657,0.673 14.986,0 27.695,-2.469 35.198,-5.93"
   id="path138"
   style="fill:none;stroke:#000000;stroke-width:1.5;stroke-linecap:round;stroke-linejoin:round" />
	<path
   d="m 117.123,-315.508 c 4.288,0.438 8.881,0.674 13.657,0.674 14.986,0 27.695,-2.468 35.198,-5.931"
   id="path140"
   style="fill:none;stroke:#000000;stroke-width:1.5;stroke-linecap:round;stroke-linejoin:round" />
	<path
   d="m 117.123,-254.211 c 4.288,0.437 8.881,0.674 13.657,0.674 14.986,0 27.695,-2.469 35.198,-5.931"
   id="path142"
   style="fill:none;stroke:#000000;stroke-width:1.5;stroke-linecap:round;stroke-linejoin:round" />
	<path
   d="m 117.123,-192.915 c 4.288,0.437 8.881,0.675 13.657,0.675 14.986,0 27.695,-2.47 35.198,-5.932"
   id="path144"
   style="fill:none;stroke:#000000;stroke-width:1.5;stroke-linecap:round;stroke-linejoin:round" />
	<path
   d="m 117.123,-131.618 c 4.288,0.438 8.881,0.674 13.657,0.674 14.986,0 27.695,-2.468 35.198,-5.93"
   id="path146"
   style="fill:none;stroke:#000000;stroke-width:1.5;stroke-linecap:round;stroke-linejoin:round" />
	<path
   d="m 117.123,-70.321 c 4.288,0.438 8.881,0.674 13.657,0.674 14.986,0 27.695,-2.47 35.198,-5.931"
   id="path148"
   style="fill:none;stroke:#000000;stroke-width:1.5;stroke-linecap:round;stroke-linejoin:round" />
	<path
   d="m 117.123,-9.024 c 4.288,0.437 8.881,0.674 13.657,0.674 14.986,0 27.695,-2.469 35.198,-5.932"
   id="path150"
   style="fill:none;stroke:#000000;stroke-width:1.5;stroke-linecap:round;stroke-linejoin:round" />
	<path
   d="m 117.123,52.273 c 4.288,0.436 8.881,0.674 13.657,0.674 14.986,0 27.695,-2.47 35.198,-5.931"
   id="path152"
   style="fill:none;stroke:#000000;stroke-width:1.5;stroke-linecap:round;stroke-linejoin:round" />
	<g
   id="g154">
		<path
   d="m 117.916,-687.604 c 0,-0.507 0,-1.014 0,-1.522 1.464,-1.59 2.938,-3.233 4.412,-4.928 0.172,-0.2 0.281,-0.39 0.333,-0.566 0.052,-0.175 0.079,-0.349 0.079,-0.52 0,-0.393 -0.141,-0.773 -0.42,-1.142 -0.28,-0.367 -0.661,-0.579 -1.141,-0.637 -0.441,-0.053 -0.818,0.043 -1.128,0.292 -0.312,0.25 -0.488,0.623 -0.521,1.125 -0.541,-0.08 -1.078,-0.166 -1.615,-0.259 0.004,-0.917 0.315,-1.633 0.934,-2.164 0.617,-0.531 1.351,-0.738 2.204,-0.633 0.942,0.116 1.729,0.51 2.357,1.199 0.631,0.687 0.946,1.472 0.946,2.368 0,0.766 -0.226,1.415 -0.677,1.938 -1.217,1.424 -2.43,2.812 -3.641,4.166 1.435,0.2 2.875,0.352 4.317,0.454 0,0.538 0,1.077 0,1.616 -2.153,-0.152 -4.304,-0.413 -6.439,-0.787 z"
   id="path156" />
		<path
   d="m 125.828,-691.928 c 0,-2.041 0,-4.082 0,-6.123 2.017,0.096 4.033,0.095 6.052,-0.003 0,0.541 0,1.083 0,1.624 -1.506,0.073 -3.01,0.092 -4.515,0.057 0,0.852 0,1.705 0,2.556 0.52,-0.402 1.125,-0.603 1.816,-0.607 0.433,-0.002 0.825,0.076 1.181,0.232 0.356,0.156 0.639,0.342 0.845,0.557 0.313,0.324 0.539,0.68 0.683,1.069 0.143,0.389 0.214,1.052 0.214,1.99 0,0.761 -0.056,1.33 -0.165,1.706 -0.113,0.376 -0.289,0.725 -0.535,1.045 -0.233,0.305 -0.562,0.592 -0.982,0.856 -0.42,0.264 -0.914,0.4 -1.482,0.401 -0.732,0.002 -1.439,-0.235 -2.119,-0.706 -0.683,-0.473 -1.082,-1.249 -1.2,-2.311 0.541,0.027 1.085,0.048 1.627,0.061 0.194,0.885 0.736,1.341 1.631,1.34 0.796,-0.002 1.262,-0.285 1.395,-0.832 0.137,-0.547 0.204,-1.087 0.204,-1.621 0.001,-0.627 -0.106,-1.144 -0.319,-1.554 -0.216,-0.41 -0.656,-0.607 -1.326,-0.607 -0.629,0 -1.116,0.304 -1.465,0.923 -0.516,-0.01 -1.029,-0.029 -1.54,-0.053 z"
   id="path158" />
		<path
   d="m 133.295,-689.98 c 0,-1.666 0,-3.331 0,-4.996 0,-1.041 0.327,-1.866 0.982,-2.489 0.652,-0.624 1.397,-0.982 2.235,-1.084 0.834,-0.102 1.574,0.074 2.227,0.539 0.65,0.463 0.976,1.208 0.976,2.25 0,1.666 0,3.33 0,4.995 0,1.04 -0.325,1.902 -0.976,2.571 -0.652,0.667 -1.393,1.057 -2.227,1.159 -0.838,0.103 -1.583,-0.106 -2.235,-0.613 -0.653,-0.51 -0.982,-1.292 -0.982,-2.332 z m 4.805,-0.619 c 0,-1.603 0,-3.205 0,-4.809 0,-0.543 -0.146,-0.945 -0.436,-1.21 -0.291,-0.265 -0.675,-0.366 -1.151,-0.308 -0.48,0.058 -0.865,0.253 -1.156,0.589 -0.289,0.335 -0.436,0.774 -0.436,1.317 0,1.603 0,3.206 0,4.809 0,0.549 0.146,0.961 0.436,1.233 0.291,0.273 0.676,0.383 1.156,0.324 0.477,-0.058 0.86,-0.262 1.151,-0.605 0.29,-0.343 0.437,-0.791 0.436,-1.34 z"
   id="path160" />
	</g>
	<g
   id="g162">
		<path
   d="m 117.916,-626.322 c 0,-0.507 0,-1.016 0,-1.524 1.464,-1.59 2.938,-3.232 4.412,-4.927 0.172,-0.201 0.281,-0.389 0.333,-0.565 0.052,-0.176 0.079,-0.351 0.079,-0.521 0,-0.394 -0.141,-0.773 -0.42,-1.141 -0.28,-0.368 -0.661,-0.579 -1.141,-0.638 -0.441,-0.052 -0.818,0.044 -1.128,0.293 -0.312,0.248 -0.488,0.623 -0.521,1.125 -0.541,-0.08 -1.078,-0.167 -1.615,-0.261 0.004,-0.915 0.315,-1.632 0.934,-2.163 0.617,-0.529 1.351,-0.738 2.204,-0.633 0.942,0.117 1.729,0.511 2.357,1.199 0.631,0.687 0.946,1.473 0.946,2.369 0,0.767 -0.226,1.414 -0.677,1.938 -1.217,1.423 -2.43,2.812 -3.641,4.166 1.435,0.2 2.875,0.351 4.317,0.453 0,0.538 0,1.077 0,1.616 -2.153,-0.152 -4.304,-0.414 -6.439,-0.786 z"
   id="path164" />
		<path
   d="m 127.84,-630.506 c 0,-0.477 0,-0.953 0,-1.429 0.188,0.002 0.374,0.005 0.562,0.005 0.538,0.005 0.969,-0.151 1.282,-0.458 0.312,-0.308 0.472,-0.697 0.472,-1.163 0,-0.461 -0.166,-0.845 -0.491,-1.157 -0.329,-0.312 -0.719,-0.466 -1.17,-0.469 -0.344,-10e-4 -0.667,0.107 -0.976,0.329 -0.307,0.222 -0.502,0.558 -0.593,1.01 -0.542,-0.015 -1.085,-0.04 -1.628,-0.069 0.064,-0.795 0.397,-1.473 1.006,-2.045 0.607,-0.575 1.316,-0.855 2.127,-0.851 1.015,0.007 1.827,0.321 2.437,0.967 0.612,0.645 0.916,1.374 0.916,2.196 0,0.436 -0.084,0.864 -0.256,1.283 -0.172,0.419 -0.493,0.789 -0.958,1.103 0.476,0.292 0.819,0.652 1.026,1.089 0.21,0.436 0.314,0.881 0.314,1.338 0,1.056 -0.335,1.915 -0.999,2.565 -0.664,0.648 -1.48,0.979 -2.448,0.973 -0.771,-0.004 -1.461,-0.269 -2.079,-0.787 -0.615,-0.519 -0.997,-1.263 -1.148,-2.218 0.543,0.03 1.085,0.053 1.628,0.07 0.153,0.393 0.353,0.71 0.609,0.953 0.255,0.241 0.615,0.364 1.085,0.366 0.449,0.002 0.852,-0.161 1.199,-0.484 0.35,-0.324 0.522,-0.767 0.522,-1.327 -0.001,-0.565 -0.172,-1.001 -0.517,-1.315 -0.348,-0.312 -0.76,-0.469 -1.238,-0.471 -0.226,0.002 -0.458,0 -0.684,-0.004 z"
   id="path166" />
		<path
   d="m 133.295,-628.7 c 0,-1.665 0,-3.33 0,-4.995 0,-1.041 0.327,-1.867 0.982,-2.489 0.652,-0.624 1.397,-0.982 2.235,-1.084 0.834,-0.103 1.574,0.074 2.227,0.538 0.65,0.463 0.976,1.208 0.976,2.249 0,1.666 0,3.332 0,4.996 0,1.041 -0.325,1.903 -0.976,2.571 -0.652,0.667 -1.393,1.057 -2.227,1.159 -0.838,0.102 -1.583,-0.105 -2.235,-0.614 -0.653,-0.508 -0.982,-1.29 -0.982,-2.331 z m 4.805,-0.618 c 0,-1.602 0,-3.205 0,-4.809 0,-0.543 -0.146,-0.945 -0.436,-1.21 -0.291,-0.265 -0.675,-0.365 -1.151,-0.308 -0.48,0.059 -0.865,0.253 -1.156,0.589 -0.289,0.335 -0.436,0.774 -0.436,1.319 0,1.603 0,3.205 0,4.808 0,0.549 0.146,0.962 0.436,1.235 0.291,0.272 0.676,0.381 1.156,0.323 0.477,-0.058 0.86,-0.262 1.151,-0.606 0.29,-0.343 0.437,-0.791 0.436,-1.341 z"
   id="path168" />
	</g>
	<g
   id="g170">
		<path
   d="m 119.042,-564.89 c 0,-0.507 0,-1.015 0,-1.522 1.469,-1.618 2.942,-3.286 4.421,-5.008 0.172,-0.202 0.282,-0.394 0.335,-0.57 0.052,-0.176 0.078,-0.352 0.078,-0.521 0,-0.394 -0.142,-0.771 -0.422,-1.135 -0.279,-0.363 -0.66,-0.566 -1.142,-0.616 -0.439,-0.046 -0.817,0.057 -1.129,0.312 -0.312,0.255 -0.488,0.631 -0.524,1.135 -0.539,-0.069 -1.078,-0.147 -1.617,-0.23 0.006,-0.917 0.315,-1.638 0.938,-2.18 0.616,-0.543 1.354,-0.762 2.208,-0.672 0.943,0.098 1.729,0.477 2.362,1.155 0.629,0.677 0.945,1.455 0.945,2.353 0,0.766 -0.227,1.418 -0.68,1.949 -1.214,1.444 -2.433,2.856 -3.646,4.231 1.438,0.174 2.88,0.3 4.325,0.375 0,0.541 0,1.078 0,1.616 -2.158,-0.115 -4.31,-0.338 -6.452,-0.672 z"
   id="path172" />
		<path
   d="m 128.839,-564.109 c 0,-3.208 0,-6.417 0,-9.625 -0.541,0.394 -1.081,0.781 -1.623,1.161 0,-0.575 0,-1.15 0,-1.726 0.542,-0.377 1.082,-0.762 1.623,-1.153 0.545,0 1.09,-0.007 1.637,-0.021 0,3.781 0,7.562 0,11.342 -0.547,0.014 -1.092,0.022 -1.637,0.022 z"
   id="path174" />
		<path
   d="m 132.159,-567.382 c 0,-1.667 0,-3.331 0,-4.995 0,-1.042 0.328,-1.861 0.98,-2.473 0.654,-0.611 1.4,-0.956 2.239,-1.043 0.834,-0.086 1.577,0.103 2.231,0.579 0.65,0.475 0.978,1.226 0.978,2.269 0,1.664 0,3.329 0,4.995 0,1.04 -0.327,1.896 -0.978,2.553 -0.655,0.655 -1.397,1.031 -2.231,1.119 -0.839,0.087 -1.585,-0.135 -2.239,-0.653 -0.652,-0.522 -0.98,-1.31 -0.98,-2.351 z m 4.813,-0.532 c 0,-1.604 0,-3.206 0,-4.809 0,-0.545 -0.148,-0.949 -0.439,-1.22 -0.293,-0.271 -0.677,-0.377 -1.153,-0.328 -0.48,0.051 -0.867,0.238 -1.156,0.568 -0.291,0.331 -0.436,0.766 -0.437,1.311 0,1.603 0,3.206 0,4.808 0.001,0.55 0.146,0.965 0.437,1.243 0.289,0.277 0.676,0.394 1.156,0.345 0.477,-0.051 0.86,-0.247 1.153,-0.586 0.29,-0.337 0.439,-0.783 0.439,-1.332 z"
   id="path176" />
	</g>
	<g
   id="g178">
		<path
   d="m 121.077,-503.344 c 0,-3.209 0,-6.417 0,-9.626 -0.537,0.329 -1.073,0.648 -1.61,0.962 0,-0.575 0,-1.15 0,-1.725 0.537,-0.311 1.073,-0.629 1.61,-0.954 0.544,0.066 1.087,0.126 1.631,0.179 0,3.781 0,7.562 0,11.342 -0.544,-0.052 -1.087,-0.111 -1.631,-0.178 z"
   id="path180" />
		<path
   d="m 124.561,-510.145 c 0,-0.351 0,-0.701 0,-1.049 0.006,-1.042 0.331,-1.822 0.98,-2.358 0.597,-0.528 1.313,-0.78 2.15,-0.763 0.858,0.015 1.588,0.289 2.191,0.839 0.613,0.563 0.928,1.359 0.943,2.4 0,1.668 0,3.335 0,5.003 -0.016,1.042 -0.33,1.858 -0.943,2.438 -0.586,0.56 -1.318,0.849 -2.191,0.854 -0.748,-0.033 -1.4,-0.283 -1.955,-0.74 -0.582,-0.475 -0.953,-1.131 -1.114,-1.96 0.543,0.036 1.086,0.064 1.628,0.087 0.249,0.647 0.73,0.984 1.441,0.998 1.005,0.012 1.525,-0.579 1.56,-1.731 0,-0.357 0,-0.715 0,-1.074 -0.758,0.254 -1.462,0.363 -2.113,0.33 -0.715,-0.004 -1.328,-0.285 -1.83,-0.836 -0.51,-0.531 -0.757,-1.347 -0.747,-2.438 z m 1.579,-0.862 c 0,0.312 0,0.622 0,0.933 0.012,1.145 0.528,1.751 1.552,1.788 1.01,0 1.529,-0.589 1.56,-1.733 0,-0.311 0,-0.621 0,-0.932 -0.034,-1.135 -0.555,-1.707 -1.56,-1.748 -1.019,0.005 -1.536,0.557 -1.552,1.692 z"
   id="path182" />
		<path
   d="m 132.268,-506.15 c 0,-1.666 0,-3.33 0,-4.996 0,-1.041 0.329,-1.86 0.982,-2.474 0.654,-0.612 1.4,-0.958 2.238,-1.047 0.834,-0.087 1.576,0.101 2.23,0.575 0.653,0.473 0.976,1.225 0.976,2.265 0,1.665 0,3.331 0,4.996 0,1.042 -0.322,1.896 -0.976,2.554 -0.654,0.657 -1.396,1.035 -2.23,1.124 -0.838,0.09 -1.584,-0.131 -2.238,-0.65 -0.653,-0.519 -0.982,-1.306 -0.982,-2.347 z m 4.812,-0.541 c 0,-1.602 0,-3.205 0,-4.807 0,-0.545 -0.147,-0.95 -0.439,-1.218 -0.292,-0.271 -0.675,-0.377 -1.152,-0.326 -0.48,0.05 -0.866,0.239 -1.158,0.571 -0.29,0.33 -0.435,0.766 -0.435,1.31 0,1.603 0,3.205 0,4.809 0,0.549 0.145,0.963 0.435,1.242 0.291,0.277 0.678,0.394 1.158,0.342 0.478,-0.05 0.86,-0.248 1.152,-0.586 0.292,-0.341 0.439,-0.786 0.439,-1.337 z"
   id="path184" />
	</g>
	<g
   id="g186">
		<path
   d="m 121.188,-441.991 c 0,-3.209 0,-6.418 0,-9.626 -0.54,0.329 -1.074,0.651 -1.611,0.965 0,-0.575 0,-1.15 0,-1.726 0.537,-0.311 1.071,-0.63 1.611,-0.957 0.541,0.066 1.086,0.125 1.629,0.176 0,3.781 0,7.562 0,11.343 -0.544,-0.051 -1.088,-0.108 -1.629,-0.175 z"
   id="path188" />
		<path
   d="m 124.708,-449.75 c 0,-1.086 0,-2.171 0,-3.256 2.15,0.14 4.308,0.17 6.462,0.089 0,0.542 0,1.083 0,1.625 -1.282,3.279 -2.564,6.52 -3.846,9.721 -0.607,-0.015 -1.215,-0.037 -1.823,-0.069 1.284,-3.166 2.566,-6.368 3.852,-9.611 -1.004,0.009 -2.01,-0.007 -3.018,-0.046 0,0.543 0,1.088 0,1.631 -0.543,-0.022 -1.085,-0.049 -1.627,-0.084 z"
   id="path190" />
		<path
   d="m 132.159,-444.804 c 0,-1.665 0,-3.33 0,-4.996 0,-1.042 0.328,-1.859 0.98,-2.471 0.654,-0.612 1.4,-0.958 2.239,-1.044 0.834,-0.087 1.577,0.103 2.231,0.578 0.65,0.476 0.978,1.227 0.978,2.268 0,1.665 0,3.331 0,4.996 0,1.041 -0.327,1.897 -0.978,2.553 -0.655,0.656 -1.397,1.032 -2.231,1.119 -0.839,0.086 -1.585,-0.135 -2.239,-0.653 -0.652,-0.521 -0.98,-1.311 -0.98,-2.35 z m 4.813,-0.531 c 0,-1.603 0,-3.206 0,-4.809 0,-0.544 -0.148,-0.949 -0.439,-1.219 -0.293,-0.269 -0.677,-0.377 -1.153,-0.328 -0.48,0.05 -0.867,0.238 -1.156,0.569 -0.291,0.33 -0.436,0.765 -0.437,1.31 0,1.602 0,3.205 0,4.808 0.001,0.548 0.146,0.964 0.437,1.242 0.289,0.281 0.676,0.396 1.156,0.345 0.477,-0.049 0.86,-0.246 1.153,-0.585 0.29,-0.338 0.439,-0.784 0.439,-1.333 z"
   id="path192" />
	</g>
	<g
   id="g194">
		<path
   d="m 121.188,-380.762 c 0,-3.208 0,-6.417 0,-9.625 -0.54,0.328 -1.074,0.65 -1.611,0.965 0,-0.576 0,-1.15 0,-1.725 0.537,-0.312 1.071,-0.631 1.611,-0.957 0.541,0.066 1.086,0.124 1.629,0.176 0,3.78 0,7.562 0,11.343 -0.544,-0.052 -1.088,-0.111 -1.629,-0.177 z"
   id="path196" />
		<path
   d="m 124.692,-385.657 c 0,-2.039 0,-4.08 0,-6.121 2.014,0.131 4.033,0.166 6.05,0.105 0,0.541 0,1.083 0,1.623 -1.506,0.046 -3.011,0.038 -4.516,-0.023 0,0.852 0,1.703 0,2.556 0.52,-0.394 1.127,-0.583 1.816,-0.573 0.432,0.004 0.826,0.088 1.181,0.252 0.357,0.164 0.638,0.354 0.848,0.571 0.31,0.33 0.539,0.69 0.682,1.083 0.142,0.391 0.214,1.056 0.214,1.994 0,0.761 -0.056,1.328 -0.167,1.703 -0.113,0.375 -0.288,0.721 -0.535,1.036 -0.233,0.301 -0.56,0.582 -0.982,0.838 -0.42,0.257 -0.914,0.384 -1.481,0.374 -0.733,-0.011 -1.438,-0.26 -2.119,-0.746 -0.682,-0.484 -1.08,-1.266 -1.2,-2.331 0.544,0.037 1.086,0.068 1.628,0.091 0.192,0.888 0.736,1.354 1.63,1.37 0.795,0.013 1.259,-0.264 1.396,-0.808 0.136,-0.544 0.201,-1.083 0.201,-1.617 0,-0.626 -0.104,-1.145 -0.318,-1.56 -0.214,-0.413 -0.654,-0.619 -1.325,-0.631 -0.63,-0.011 -1.118,0.285 -1.466,0.897 -0.514,-0.021 -1.026,-0.049 -1.537,-0.083 z"
   id="path198" />
		<path
   d="m 132.159,-383.574 c 0,-1.665 0,-3.33 0,-4.997 0,-1.041 0.328,-1.86 0.98,-2.471 0.654,-0.612 1.4,-0.958 2.239,-1.043 0.834,-0.087 1.577,0.103 2.231,0.578 0.65,0.476 0.978,1.226 0.978,2.267 0,1.666 0,3.331 0,4.996 0,1.04 -0.327,1.897 -0.978,2.553 -0.655,0.656 -1.397,1.033 -2.231,1.119 -0.839,0.087 -1.585,-0.134 -2.239,-0.654 -0.652,-0.52 -0.98,-1.308 -0.98,-2.348 z m 4.813,-0.531 c 0,-1.603 0,-3.206 0,-4.81 0,-0.544 -0.148,-0.948 -0.439,-1.218 -0.293,-0.271 -0.677,-0.378 -1.153,-0.329 -0.48,0.05 -0.867,0.237 -1.156,0.569 -0.291,0.33 -0.436,0.766 -0.437,1.309 0,1.604 0,3.206 0,4.809 0.001,0.549 0.146,0.964 0.437,1.243 0.289,0.278 0.676,0.395 1.156,0.344 0.477,-0.049 0.86,-0.246 1.153,-0.584 0.29,-0.34 0.439,-0.785 0.439,-1.333 z"
   id="path200" />
	</g>
	<g
   id="g202">
		<path
   d="m 121.188,-319.476 c 0,-3.209 0,-6.417 0,-9.626 -0.54,0.328 -1.074,0.65 -1.611,0.965 0,-0.576 0,-1.15 0,-1.725 0.537,-0.312 1.071,-0.631 1.611,-0.957 0.541,0.066 1.086,0.125 1.629,0.176 0,3.781 0,7.562 0,11.343 -0.544,-0.052 -1.088,-0.112 -1.629,-0.176 z"
   id="path204" />
		<path
   d="m 126.702,-324.194 c 0,-0.476 0,-0.954 0,-1.43 0.188,0.007 0.373,0.012 0.56,0.017 0.542,0.013 0.971,-0.133 1.284,-0.436 0.314,-0.301 0.472,-0.688 0.472,-1.154 0,-0.46 -0.164,-0.848 -0.492,-1.167 -0.327,-0.316 -0.716,-0.479 -1.167,-0.489 -0.345,-0.006 -0.67,0.096 -0.976,0.312 -0.306,0.217 -0.503,0.548 -0.594,1 -0.543,-0.026 -1.085,-0.06 -1.627,-0.1 0.064,-0.793 0.398,-1.465 1.005,-2.028 0.606,-0.562 1.316,-0.829 2.129,-0.81 1.013,0.024 1.825,0.354 2.437,1.01 0.608,0.656 0.915,1.391 0.915,2.214 0,0.435 -0.085,0.861 -0.259,1.277 -0.17,0.416 -0.489,0.779 -0.957,1.084 0.478,0.301 0.821,0.668 1.028,1.108 0.208,0.44 0.313,0.888 0.313,1.344 0,1.056 -0.335,1.91 -0.998,2.548 -0.666,0.637 -1.481,0.951 -2.451,0.93 -0.769,-0.018 -1.461,-0.295 -2.076,-0.825 -0.615,-0.53 -0.998,-1.28 -1.147,-2.239 0.543,0.041 1.084,0.074 1.628,0.1 0.151,0.396 0.354,0.718 0.606,0.963 0.255,0.246 0.617,0.377 1.085,0.387 0.451,0.01 0.852,-0.146 1.198,-0.463 0.35,-0.318 0.524,-0.758 0.524,-1.317 0,-0.565 -0.173,-1.005 -0.52,-1.325 -0.345,-0.318 -0.757,-0.482 -1.234,-0.492 -0.228,-0.005 -0.458,-0.012 -0.686,-0.019 z"
   id="path206" />
		<path
   d="m 132.159,-322.289 c 0,-1.666 0,-3.331 0,-4.996 0,-1.042 0.328,-1.862 0.98,-2.473 0.654,-0.612 1.4,-0.956 2.239,-1.043 0.834,-0.087 1.577,0.103 2.231,0.578 0.65,0.475 0.978,1.226 0.978,2.269 0,1.664 0,3.33 0,4.995 0,1.041 -0.327,1.896 -0.978,2.553 -0.655,0.655 -1.397,1.032 -2.231,1.118 -0.839,0.087 -1.585,-0.134 -2.239,-0.653 -0.652,-0.52 -0.98,-1.308 -0.98,-2.348 z m 4.813,-0.533 c 0,-1.603 0,-3.205 0,-4.808 0,-0.544 -0.148,-0.949 -0.439,-1.219 -0.293,-0.27 -0.677,-0.378 -1.153,-0.329 -0.48,0.051 -0.867,0.238 -1.156,0.568 -0.291,0.331 -0.436,0.766 -0.437,1.311 0,1.602 0,3.205 0,4.809 0.001,0.548 0.146,0.963 0.437,1.241 0.289,0.278 0.676,0.395 1.156,0.345 0.477,-0.049 0.86,-0.248 1.153,-0.585 0.29,-0.337 0.439,-0.783 0.439,-1.333 z"
   id="path208" />
	</g>
	<g
   id="g210">
		<path
   d="m 122.32,-258.1 c 0,-3.208 0,-6.418 0,-9.626 -0.539,0.338 -1.077,0.67 -1.615,0.994 0,-0.575 0,-1.15 0,-1.725 0.538,-0.321 1.076,-0.65 1.615,-0.987 0.543,0.057 1.087,0.107 1.632,0.147 0,3.783 0,7.562 0,11.344 -0.545,-0.043 -1.089,-0.091 -1.632,-0.147 z"
   id="path212" />
		<path
   d="m 127.699,-257.776 c 0,-3.208 0,-6.417 0,-9.626 -0.539,0.384 -1.079,0.763 -1.619,1.131 0,-0.574 0,-1.15 0,-1.725 0.54,-0.367 1.08,-0.742 1.619,-1.123 0.545,0.009 1.093,0.012 1.637,0.007 0,3.782 0,7.562 0,11.343 -0.544,0.005 -1.092,0.002 -1.637,-0.007 z"
   id="path214" />
		<path
   d="m 131.021,-260.99 c 0,-1.666 0,-3.331 0,-4.995 0,-1.043 0.328,-1.854 0.983,-2.455 0.653,-0.6 1.4,-0.931 2.24,-1.004 0.836,-0.071 1.579,0.132 2.234,0.62 0.652,0.486 0.979,1.243 0.979,2.284 0,1.666 0,3.331 0,4.997 0,1.041 -0.327,1.89 -0.979,2.535 -0.655,0.645 -1.398,1.007 -2.234,1.08 -0.84,0.071 -1.587,-0.164 -2.24,-0.694 -0.656,-0.533 -0.983,-1.327 -0.983,-2.368 z m 4.816,-0.445 c 0,-1.604 0,-3.206 0,-4.809 0,-0.544 -0.146,-0.952 -0.438,-1.227 -0.292,-0.275 -0.678,-0.39 -1.155,-0.35 -0.48,0.042 -0.867,0.224 -1.159,0.549 -0.29,0.324 -0.436,0.757 -0.436,1.301 0,1.604 0,3.207 0,4.81 0.001,0.549 0.146,0.967 0.436,1.249 0.292,0.285 0.679,0.408 1.159,0.366 0.478,-0.04 0.863,-0.229 1.155,-0.564 0.292,-0.333 0.438,-0.776 0.438,-1.325 z"
   id="path216" />
	</g>
	<g
   id="g218">
		<path
   d="m 121.874,-204.049 c 0,-0.351 0,-0.7 0,-1.05 0.005,-1.041 0.33,-1.808 0.978,-2.316 0.597,-0.503 1.312,-0.723 2.147,-0.673 0.856,0.052 1.586,0.358 2.191,0.933 0.612,0.59 0.925,1.4 0.942,2.441 0,1.667 0,3.335 0,5.003 -0.018,1.04 -0.33,1.843 -0.942,2.398 -0.588,0.534 -1.319,0.793 -2.191,0.761 -0.748,-0.066 -1.396,-0.343 -1.953,-0.823 -0.581,-0.5 -0.95,-1.172 -1.109,-2.008 0.539,0.059 1.081,0.111 1.622,0.156 0.251,0.658 0.729,1.016 1.44,1.06 1.002,0.054 1.521,-0.514 1.559,-1.667 0,-0.356 0,-0.714 0,-1.071 -0.76,0.222 -1.462,0.3 -2.112,0.24 -0.714,-0.035 -1.325,-0.342 -1.826,-0.916 -0.509,-0.55 -0.757,-1.377 -0.746,-2.468 z m 1.576,-0.795 c 0,0.311 0,0.622 0,0.933 0.012,1.144 0.526,1.774 1.549,1.853 1.008,0.044 1.527,-0.523 1.559,-1.666 0,-0.312 0,-0.622 0,-0.933 -0.037,-1.136 -0.557,-1.729 -1.559,-1.815 -1.017,-0.036 -1.532,0.494 -1.549,1.628 z"
   id="path220" />
		<path
   d="m 129.576,-199.727 c 0,-1.665 0,-3.331 0,-4.996 0,-1.042 0.327,-1.847 0.982,-2.432 0.653,-0.586 1.401,-0.898 2.243,-0.952 0.834,-0.052 1.58,0.167 2.235,0.671 0.656,0.501 0.983,1.265 0.983,2.307 0,1.666 0,3.331 0,4.996 0,1.04 -0.327,1.883 -0.983,2.513 -0.655,0.629 -1.401,0.974 -2.235,1.027 -0.842,0.053 -1.59,-0.199 -2.243,-0.745 -0.654,-0.547 -0.982,-1.348 -0.982,-2.389 z m 4.82,-0.335 c 0,-1.603 0,-3.206 0,-4.81 0.002,-0.543 -0.144,-0.954 -0.438,-1.236 -0.295,-0.281 -0.679,-0.405 -1.156,-0.375 -0.482,0.03 -0.869,0.202 -1.159,0.521 -0.292,0.318 -0.438,0.748 -0.438,1.292 0,1.603 0,3.206 0,4.809 0,0.549 0.146,0.97 0.438,1.26 0.29,0.29 0.677,0.422 1.159,0.392 0.479,-0.03 0.861,-0.21 1.156,-0.538 0.294,-0.326 0.438,-0.765 0.438,-1.315 z"
   id="path222" />
	</g>
	<g
   id="g224">
		<path
   d="m 122.021,-143.627 c 0,-1.085 0,-2.17 0,-3.255 2.146,0.23 4.3,0.353 6.456,0.364 0,0.542 0,1.082 0,1.624 -1.283,3.225 -2.563,6.409 -3.844,9.559 -0.607,-0.041 -1.215,-0.089 -1.819,-0.147 1.28,-3.111 2.562,-6.26 3.846,-9.448 -1.005,-0.035 -2.012,-0.093 -3.013,-0.174 0,0.543 0,1.087 0,1.631 -0.544,-0.045 -1.085,-0.095 -1.626,-0.154 z"
   id="path226" />
		<path
   d="m 129.466,-138.363 c 0,-1.666 0,-3.331 0,-4.996 0,-1.042 0.328,-1.848 0.982,-2.43 0.656,-0.584 1.404,-0.896 2.244,-0.949 0.837,-0.05 1.582,0.17 2.237,0.674 0.655,0.503 0.98,1.268 0.98,2.31 0,1.665 0,3.33 0,4.996 0,1.04 -0.325,1.882 -0.98,2.511 -0.655,0.628 -1.4,0.972 -2.237,1.022 -0.84,0.052 -1.588,-0.2 -2.244,-0.749 -0.654,-0.546 -0.981,-1.349 -0.982,-2.389 z m 4.822,-0.326 c 0,-1.604 0,-3.207 0,-4.809 0,-0.544 -0.146,-0.955 -0.441,-1.239 -0.292,-0.281 -0.677,-0.406 -1.154,-0.376 -0.482,0.028 -0.869,0.2 -1.16,0.518 -0.291,0.318 -0.437,0.748 -0.437,1.292 0,1.602 0,3.206 0,4.809 0,0.549 0.146,0.97 0.437,1.261 0.291,0.291 0.678,0.423 1.16,0.393 0.478,-0.028 0.862,-0.208 1.154,-0.535 0.295,-0.328 0.441,-0.767 0.441,-1.314 z"
   id="path228" />
	</g>
	<g
   id="g230">
		<path
   d="m 122.005,-79.485 c 0,-2.041 0,-4.082 0,-6.123 2.009,0.217 4.024,0.337 6.043,0.362 0,0.542 0,1.083 0,1.625 -1.506,-0.018 -3.009,-0.091 -4.511,-0.215 0,0.852 0,1.703 0,2.556 0.517,-0.374 1.121,-0.535 1.813,-0.497 0.431,0.023 0.823,0.123 1.179,0.302 0.356,0.179 0.639,0.381 0.847,0.608 0.312,0.343 0.539,0.714 0.683,1.112 0.143,0.396 0.215,1.064 0.215,2.002 0,0.761 -0.056,1.327 -0.168,1.696 -0.11,0.369 -0.29,0.707 -0.534,1.012 -0.233,0.291 -0.562,0.558 -0.983,0.797 -0.421,0.239 -0.912,0.343 -1.479,0.311 -0.731,-0.041 -1.438,-0.321 -2.116,-0.835 -0.678,-0.514 -1.078,-1.313 -1.195,-2.383 0.539,0.06 1.081,0.114 1.623,0.16 0.192,0.896 0.734,1.384 1.628,1.438 0.791,0.046 1.259,-0.209 1.395,-0.748 0.134,-0.54 0.201,-1.076 0.201,-1.61 0,-0.626 -0.107,-1.149 -0.319,-1.57 -0.213,-0.425 -0.654,-0.648 -1.324,-0.689 -0.629,-0.036 -1.116,0.237 -1.463,0.835 -0.516,-0.044 -1.024,-0.092 -1.535,-0.146 z"
   id="path232" />
		<path
   d="m 129.466,-77.087 c 0,-1.665 0,-3.33 0,-4.995 0,-1.042 0.328,-1.848 0.982,-2.429 0.656,-0.585 1.404,-0.897 2.244,-0.949 0.837,-0.051 1.582,0.169 2.237,0.675 0.655,0.502 0.98,1.266 0.98,2.309 0,1.664 0,3.33 0,4.994 0,1.04 -0.325,1.883 -0.98,2.513 -0.655,0.628 -1.4,0.971 -2.237,1.023 -0.84,0.052 -1.588,-0.202 -2.244,-0.749 -0.654,-0.549 -0.981,-1.35 -0.982,-2.392 z m 4.822,-0.326 c 0,-1.603 0,-3.207 0,-4.809 0,-0.545 -0.146,-0.955 -0.441,-1.239 -0.292,-0.282 -0.677,-0.406 -1.154,-0.376 -0.482,0.028 -0.869,0.201 -1.16,0.519 -0.291,0.318 -0.437,0.748 -0.437,1.292 0,1.603 0,3.206 0,4.808 0,0.55 0.146,0.971 0.437,1.261 0.291,0.292 0.678,0.424 1.16,0.394 0.478,-0.028 0.862,-0.209 1.154,-0.535 0.295,-0.328 0.441,-0.766 0.441,-1.315 z"
   id="path234" />
	</g>
	<g
   id="g236">
		<path
   d="m 124.011,-17.999 c 0,-0.475 0,-0.953 0,-1.43 0.188,0.015 0.374,0.029 0.562,0.042 0.538,0.035 0.965,-0.092 1.279,-0.382 0.313,-0.289 0.472,-0.666 0.472,-1.133 0,-0.462 -0.165,-0.854 -0.492,-1.186 -0.326,-0.33 -0.716,-0.51 -1.167,-0.538 -0.343,-0.025 -0.666,0.067 -0.973,0.269 -0.307,0.203 -0.504,0.527 -0.593,0.975 -0.54,-0.05 -1.082,-0.105 -1.622,-0.168 0.062,-0.791 0.396,-1.448 1.001,-1.984 0.606,-0.538 1.314,-0.775 2.125,-0.72 1.012,0.067 1.824,0.43 2.434,1.112 0.611,0.684 0.917,1.428 0.917,2.254 0,0.433 -0.088,0.856 -0.259,1.265 -0.172,0.408 -0.491,0.759 -0.959,1.044 0.479,0.321 0.822,0.703 1.031,1.151 0.206,0.451 0.31,0.9 0.31,1.357 0,1.055 -0.332,1.896 -0.998,2.505 -0.662,0.608 -1.48,0.888 -2.446,0.826 -0.768,-0.052 -1.458,-0.357 -2.073,-0.915 -0.612,-0.555 -0.993,-1.32 -1.144,-2.287 0.541,0.062 1.083,0.12 1.622,0.169 0.151,0.402 0.352,0.731 0.608,0.989 0.252,0.257 0.613,0.402 1.081,0.432 0.451,0.029 0.85,-0.109 1.198,-0.412 0.348,-0.302 0.523,-0.735 0.523,-1.294 0,-0.563 -0.174,-1.011 -0.519,-1.345 -0.346,-0.334 -0.757,-0.516 -1.234,-0.548 -0.227,-0.013 -0.456,-0.029 -0.684,-0.048 z"
   id="path238" />
		<path
   d="m 129.466,-15.862 c 0,-1.664 0,-3.33 0,-4.994 0,-1.042 0.328,-1.848 0.982,-2.429 0.656,-0.585 1.404,-0.897 2.244,-0.948 0.837,-0.052 1.582,0.168 2.237,0.674 0.655,0.502 0.98,1.266 0.98,2.308 0,1.664 0,3.33 0,4.996 0,1.04 -0.325,1.881 -0.98,2.511 -0.655,0.627 -1.4,0.971 -2.237,1.022 -0.84,0.052 -1.588,-0.201 -2.244,-0.748 -0.654,-0.549 -0.981,-1.351 -0.982,-2.392 z m 4.822,-0.324 c 0,-1.604 0,-3.207 0,-4.81 0,-0.544 -0.146,-0.955 -0.441,-1.238 -0.292,-0.282 -0.677,-0.407 -1.154,-0.376 -0.482,0.028 -0.869,0.201 -1.16,0.518 -0.291,0.317 -0.437,0.747 -0.437,1.292 0,1.602 0,3.206 0,4.81 0,0.548 0.146,0.969 0.437,1.258 0.291,0.293 0.678,0.425 1.16,0.396 0.478,-0.029 0.862,-0.209 1.154,-0.535 0.295,-0.33 0.441,-0.767 0.441,-1.315 z"
   id="path240" />
	</g>
	<g
   id="g242">
		<path
   d="m 125.008,48.422 c 0,-3.208 0,-6.417 0,-9.624 -0.54,0.36 -1.081,0.715 -1.619,1.062 0,-0.575 0,-1.151 0,-1.724 0.538,-0.344 1.079,-0.698 1.619,-1.055 0.546,0.032 1.091,0.057 1.636,0.076 0,3.781 0,7.562 0,11.343 -0.545,-0.019 -1.09,-0.044 -1.636,-0.078 z"
   id="path244" />
		<path
   d="m 128.328,45.351 c 0,-1.666 0,-3.332 0,-4.997 0,-1.042 0.327,-1.84 0.982,-2.414 0.655,-0.571 1.403,-0.871 2.244,-0.907 0.838,-0.036 1.583,0.198 2.239,0.715 0.656,0.514 0.984,1.284 0.984,2.326 0,1.665 0,3.329 0,4.995 0,1.04 -0.328,1.877 -0.984,2.494 -0.656,0.617 -1.401,0.948 -2.239,0.985 -0.841,0.037 -1.589,-0.231 -2.244,-0.791 -0.655,-0.559 -0.982,-1.366 -0.982,-2.406 z m 4.823,-0.241 c 0,-1.603 0,-3.206 0,-4.809 0,-0.544 -0.146,-0.958 -0.44,-1.245 -0.293,-0.29 -0.676,-0.42 -1.156,-0.398 -0.482,0.02 -0.872,0.185 -1.162,0.499 -0.288,0.312 -0.435,0.738 -0.435,1.282 0,1.603 0,3.207 0,4.81 0,0.548 0.146,0.972 0.435,1.269 0.291,0.296 0.68,0.435 1.162,0.415 0.479,-0.021 0.863,-0.194 1.156,-0.516 0.295,-0.321 0.44,-0.759 0.44,-1.307 z"
   id="path246" />
	</g>
	<path
   d="m 143.903,-677.147 c 9.202,-0.956 16.886,-2.875 22.075,-5.269"
   id="path248"
   style="fill:none;stroke:#000000;stroke-width:1.5;stroke-linecap:round;stroke-linejoin:round" />
	<path
   d="m 165.979,-676.286 c -5.189,2.393 -12.873,4.312 -22.075,5.269"
   id="path250"
   style="fill:none;stroke:#000000;stroke-width:1.5;stroke-linecap:round;stroke-linejoin:round" />
	<path
   d="m 143.903,-664.888 c 9.202,-0.955 16.886,-2.873 22.075,-5.268"
   id="path252"
   style="fill:none;stroke:#000000;stroke-width:1.5;stroke-linecap:round;stroke-linejoin:round" />
	<path
   d="m 143.903,-658.758 c 9.202,-0.956 16.886,-2.875 22.075,-5.268"
   id="path254"
   style="fill:none;stroke:#000000;stroke-width:1.5;stroke-linecap:round;stroke-linejoin:round" />
	<path
   d="m 143.903,-646.499 c 9.202,-0.956 16.886,-2.875 22.075,-5.268"
   id="path256"
   style="fill:none;stroke:#000000;stroke-width:1.5;stroke-linecap:round;stroke-linejoin:round" />
	<path
   d="m 143.903,-640.369 c 9.202,-0.957 16.886,-2.874 22.075,-5.269"
   id="path258"
   style="fill:none;stroke:#000000;stroke-width:1.5;stroke-linecap:round;stroke-linejoin:round" />
	<path
   d="m 143.903,-634.24 c 9.202,-0.956 16.886,-2.874 22.075,-5.269"
   id="path260"
   style="fill:none;stroke:#000000;stroke-width:1.5;stroke-linecap:round;stroke-linejoin:round" />
	<path
   d="m 143.903,-628.11 c 9.202,-0.955 16.886,-2.874 22.075,-5.268"
   id="path262"
   style="fill:none;stroke:#000000;stroke-width:1.5;stroke-linecap:round;stroke-linejoin:round" />
	<path
   d="m 143.903,-615.851 c 9.202,-0.955 16.886,-2.874 22.075,-5.268"
   id="path264"
   style="fill:none;stroke:#000000;stroke-width:1.5;stroke-linecap:round;stroke-linejoin:round" />
	<path
   d="m 143.903,-609.721 c 9.202,-0.956 16.886,-2.874 22.075,-5.269"
   id="path266"
   style="fill:none;stroke:#000000;stroke-width:1.5;stroke-linecap:round;stroke-linejoin:round" />
	<path
   d="m 143.903,-603.59 c 9.202,-0.957 16.886,-2.875 22.075,-5.269"
   id="path268"
   style="fill:none;stroke:#000000;stroke-width:1.5;stroke-linecap:round;stroke-linejoin:round" />
	<path
   d="m 143.903,-597.461 c 9.202,-0.956 16.886,-2.875 22.075,-5.269"
   id="path270"
   style="fill:none;stroke:#000000;stroke-width:1.5;stroke-linecap:round;stroke-linejoin:round" />
	<path
   d="m 143.903,-585.202 c 9.202,-0.957 16.886,-2.875 22.075,-5.269"
   id="path272"
   style="fill:none;stroke:#000000;stroke-width:1.5;stroke-linecap:round;stroke-linejoin:round" />
	<path
   d="m 143.903,-579.073 c 9.202,-0.957 16.886,-2.874 22.075,-5.268"
   id="path274"
   style="fill:none;stroke:#000000;stroke-width:1.5;stroke-linecap:round;stroke-linejoin:round" />
	<path
   d="m 143.903,-572.943 c 9.202,-0.956 16.886,-2.874 22.075,-5.268"
   id="path276"
   style="fill:none;stroke:#000000;stroke-width:1.5;stroke-linecap:round;stroke-linejoin:round" />
	<path
   d="m 143.903,-566.813 c 9.202,-0.957 16.886,-2.875 22.075,-5.269"
   id="path278"
   style="fill:none;stroke:#000000;stroke-width:1.5;stroke-linecap:round;stroke-linejoin:round" />
	<path
   d="m 143.903,-554.553 c 9.202,-0.956 16.886,-2.874 22.075,-5.27"
   id="path280"
   style="fill:none;stroke:#000000;stroke-width:1.5;stroke-linecap:round;stroke-linejoin:round" />
	<path
   d="m 143.903,-548.423 c 9.202,-0.957 16.886,-2.875 22.075,-5.269"
   id="path282"
   style="fill:none;stroke:#000000;stroke-width:1.5;stroke-linecap:round;stroke-linejoin:round" />
	<path
   d="m 143.903,-542.294 c 9.202,-0.956 16.886,-2.874 22.075,-5.269"
   id="path284"
   style="fill:none;stroke:#000000;stroke-width:1.5;stroke-linecap:round;stroke-linejoin:round" />
	<path
   d="m 143.903,-536.165 c 9.202,-0.956 16.886,-2.874 22.075,-5.269"
   id="path286"
   style="fill:none;stroke:#000000;stroke-width:1.5;stroke-linecap:round;stroke-linejoin:round" />
	<path
   d="m 143.903,-523.906 c 9.202,-0.955 16.886,-2.874 22.075,-5.269"
   id="path288"
   style="fill:none;stroke:#000000;stroke-width:1.5;stroke-linecap:round;stroke-linejoin:round" />
	<path
   d="m 143.903,-517.776 c 9.202,-0.956 16.886,-2.873 22.075,-5.269"
   id="path290"
   style="fill:none;stroke:#000000;stroke-width:1.5;stroke-linecap:round;stroke-linejoin:round" />
	<path
   d="m 143.903,-511.646 c 9.202,-0.957 16.886,-2.874 22.075,-5.269"
   id="path292"
   style="fill:none;stroke:#000000;stroke-width:1.5;stroke-linecap:round;stroke-linejoin:round" />
	<path
   d="m 143.903,-505.517 c 9.202,-0.955 16.886,-2.874 22.075,-5.268"
   id="path294"
   style="fill:none;stroke:#000000;stroke-width:1.5;stroke-linecap:round;stroke-linejoin:round" />
	<path
   d="m 143.903,-493.257 c 9.202,-0.956 16.886,-2.873 22.075,-5.269"
   id="path296"
   style="fill:none;stroke:#000000;stroke-width:1.5;stroke-linecap:round;stroke-linejoin:round" />
	<path
   d="m 143.903,-487.127 c 9.202,-0.956 16.886,-2.874 22.075,-5.269"
   id="path298"
   style="fill:none;stroke:#000000;stroke-width:1.5;stroke-linecap:round;stroke-linejoin:round" />
	<path
   d="m 143.903,-480.998 c 9.202,-0.956 16.886,-2.874 22.075,-5.269"
   id="path300"
   style="fill:none;stroke:#000000;stroke-width:1.5;stroke-linecap:round;stroke-linejoin:round" />
	<path
   d="m 143.903,-474.868 c 9.202,-0.956 16.886,-2.874 22.075,-5.269"
   id="path302"
   style="fill:none;stroke:#000000;stroke-width:1.5;stroke-linecap:round;stroke-linejoin:round" />
	<path
   d="m 143.903,-462.609 c 9.202,-0.955 16.886,-2.874 22.075,-5.269"
   id="path304"
   style="fill:none;stroke:#000000;stroke-width:1.5;stroke-linecap:round;stroke-linejoin:round" />
	<path
   d="m 143.903,-456.479 c 9.202,-0.957 16.886,-2.874 22.075,-5.269"
   id="path306"
   style="fill:none;stroke:#000000;stroke-width:1.5;stroke-linecap:round;stroke-linejoin:round" />
	<path
   d="m 143.903,-450.349 c 9.202,-0.957 16.886,-2.875 22.075,-5.269"
   id="path308"
   style="fill:none;stroke:#000000;stroke-width:1.5;stroke-linecap:round;stroke-linejoin:round" />
	<path
   d="m 143.903,-444.219 c 9.202,-0.957 16.886,-2.874 22.075,-5.269"
   id="path310"
   style="fill:none;stroke:#000000;stroke-width:1.5;stroke-linecap:round;stroke-linejoin:round" />
	<path
   d="m 143.903,-431.96 c 9.202,-0.956 16.886,-2.875 22.075,-5.269"
   id="path312"
   style="fill:none;stroke:#000000;stroke-width:1.5;stroke-linecap:round;stroke-linejoin:round" />
	<path
   d="m 143.903,-425.831 c 9.202,-0.956 16.886,-2.874 22.075,-5.269"
   id="path314"
   style="fill:none;stroke:#000000;stroke-width:1.5;stroke-linecap:round;stroke-linejoin:round" />
	<path
   d="m 143.903,-419.701 c 9.202,-0.956 16.886,-2.874 22.075,-5.268"
   id="path316"
   style="fill:none;stroke:#000000;stroke-width:1.5;stroke-linecap:round;stroke-linejoin:round" />
	<path
   d="m 143.903,-413.572 c 9.202,-0.955 16.886,-2.873 22.075,-5.268"
   id="path318"
   style="fill:none;stroke:#000000;stroke-width:1.5;stroke-linecap:round;stroke-linejoin:round" />
	<path
   d="m 143.903,-401.312 c 9.202,-0.956 16.886,-2.874 22.075,-5.269"
   id="path320"
   style="fill:none;stroke:#000000;stroke-width:1.5;stroke-linecap:round;stroke-linejoin:round" />
	<path
   d="m 143.903,-395.183 c 9.202,-0.956 16.886,-2.875 22.075,-5.269"
   id="path322"
   style="fill:none;stroke:#000000;stroke-width:1.5;stroke-linecap:round;stroke-linejoin:round" />
	<path
   d="m 143.903,-389.053 c 9.202,-0.956 16.886,-2.873 22.075,-5.268"
   id="path324"
   style="fill:none;stroke:#000000;stroke-width:1.5;stroke-linecap:round;stroke-linejoin:round" />
	<path
   d="m 143.903,-382.922 c 9.202,-0.957 16.886,-2.875 22.075,-5.269"
   id="path326"
   style="fill:none;stroke:#000000;stroke-width:1.5;stroke-linecap:round;stroke-linejoin:round" />
	<path
   d="m 143.903,-370.663 c 9.202,-0.957 16.886,-2.875 22.075,-5.269"
   id="path328"
   style="fill:none;stroke:#000000;stroke-width:1.5;stroke-linecap:round;stroke-linejoin:round" />
	<path
   d="m 143.903,-364.534 c 9.202,-0.956 16.886,-2.874 22.075,-5.269"
   id="path330"
   style="fill:none;stroke:#000000;stroke-width:1.5;stroke-linecap:round;stroke-linejoin:round" />
	<path
   d="m 143.903,-358.404 c 9.202,-0.955 16.886,-2.873 22.075,-5.269"
   id="path332"
   style="fill:none;stroke:#000000;stroke-width:1.5;stroke-linecap:round;stroke-linejoin:round" />
	<path
   d="m 143.903,-352.274 c 9.202,-0.955 16.886,-2.875 22.075,-5.268"
   id="path334"
   style="fill:none;stroke:#000000;stroke-width:1.5;stroke-linecap:round;stroke-linejoin:round" />
	<path
   d="m 143.903,-340.016 c 9.202,-0.955 16.886,-2.874 22.075,-5.268"
   id="path336"
   style="fill:none;stroke:#000000;stroke-width:1.5;stroke-linecap:round;stroke-linejoin:round" />
	<path
   d="m 143.903,-333.886 c 9.202,-0.956 16.886,-2.874 22.075,-5.269"
   id="path338"
   style="fill:none;stroke:#000000;stroke-width:1.5;stroke-linecap:round;stroke-linejoin:round" />
	<path
   d="m 143.903,-327.756 c 9.202,-0.956 16.886,-2.874 22.075,-5.269"
   id="path340"
   style="fill:none;stroke:#000000;stroke-width:1.5;stroke-linecap:round;stroke-linejoin:round" />
	<path
   d="m 143.903,-321.626 c 9.202,-0.956 16.886,-2.875 22.075,-5.268"
   id="path342"
   style="fill:none;stroke:#000000;stroke-width:1.5;stroke-linecap:round;stroke-linejoin:round" />
	<path
   d="m 143.903,-309.366 c 9.202,-0.956 16.886,-2.874 22.075,-5.27"
   id="path344"
   style="fill:none;stroke:#000000;stroke-width:1.5;stroke-linecap:round;stroke-linejoin:round" />
	<path
   d="m 143.903,-303.237 c 9.202,-0.956 16.886,-2.874 22.075,-5.268"
   id="path346"
   style="fill:none;stroke:#000000;stroke-width:1.5;stroke-linecap:round;stroke-linejoin:round" />
	<path
   d="m 143.903,-297.107 c 9.202,-0.956 16.886,-2.874 22.075,-5.269"
   id="path348"
   style="fill:none;stroke:#000000;stroke-width:1.5;stroke-linecap:round;stroke-linejoin:round" />
	<path
   d="m 143.903,-290.978 c 9.202,-0.955 16.886,-2.873 22.075,-5.269"
   id="path350"
   style="fill:none;stroke:#000000;stroke-width:1.5;stroke-linecap:round;stroke-linejoin:round" />
	<path
   d="m 143.903,-278.718 c 9.202,-0.956 16.886,-2.875 22.075,-5.269"
   id="path352"
   style="fill:none;stroke:#000000;stroke-width:1.5;stroke-linecap:round;stroke-linejoin:round" />
	<path
   d="m 143.903,-272.589 c 9.202,-0.956 16.886,-2.874 22.075,-5.269"
   id="path354"
   style="fill:none;stroke:#000000;stroke-width:1.5;stroke-linecap:round;stroke-linejoin:round" />
	<path
   d="m 143.903,-266.458 c 9.202,-0.957 16.886,-2.874 22.075,-5.269"
   id="path356"
   style="fill:none;stroke:#000000;stroke-width:1.5;stroke-linecap:round;stroke-linejoin:round" />
	<path
   d="m 143.903,-260.329 c 9.202,-0.957 16.886,-2.874 22.075,-5.269"
   id="path358"
   style="fill:none;stroke:#000000;stroke-width:1.5;stroke-linecap:round;stroke-linejoin:round" />
	<path
   d="m 143.903,-248.07 c 9.202,-0.957 16.886,-2.874 22.075,-5.269"
   id="path360"
   style="fill:none;stroke:#000000;stroke-width:1.5;stroke-linecap:round;stroke-linejoin:round" />
	<path
   d="m 143.903,-241.94 c 9.202,-0.956 16.886,-2.874 22.075,-5.268"
   id="path362"
   style="fill:none;stroke:#000000;stroke-width:1.5;stroke-linecap:round;stroke-linejoin:round" />
	<path
   d="m 143.903,-235.811 c 9.202,-0.956 16.886,-2.873 22.075,-5.268"
   id="path364"
   style="fill:none;stroke:#000000;stroke-width:1.5;stroke-linecap:round;stroke-linejoin:round" />
	<path
   d="m 143.903,-229.681 c 9.202,-0.956 16.886,-2.873 22.075,-5.269"
   id="path366"
   style="fill:none;stroke:#000000;stroke-width:1.5;stroke-linecap:round;stroke-linejoin:round" />
	<path
   d="m 143.903,-217.421 c 9.202,-0.956 16.886,-2.874 22.075,-5.269"
   id="path368"
   style="fill:none;stroke:#000000;stroke-width:1.5;stroke-linecap:round;stroke-linejoin:round" />
	<path
   d="m 143.903,-211.292 c 9.202,-0.956 16.886,-2.874 22.075,-5.268"
   id="path370"
   style="fill:none;stroke:#000000;stroke-width:1.5;stroke-linecap:round;stroke-linejoin:round" />
	<path
   d="m 143.903,-205.162 c 9.202,-0.956 16.886,-2.875 22.075,-5.269"
   id="path372"
   style="fill:none;stroke:#000000;stroke-width:1.5;stroke-linecap:round;stroke-linejoin:round" />
	<path
   d="m 143.903,-199.033 c 9.202,-0.955 16.886,-2.875 22.075,-5.269"
   id="path374"
   style="fill:none;stroke:#000000;stroke-width:1.5;stroke-linecap:round;stroke-linejoin:round" />
	<path
   d="m 143.903,-186.773 c 9.202,-0.956 16.886,-2.874 22.075,-5.269"
   id="path376"
   style="fill:none;stroke:#000000;stroke-width:1.5;stroke-linecap:round;stroke-linejoin:round" />
	<path
   d="m 143.903,-180.643 c 9.202,-0.957 16.886,-2.875 22.075,-5.269"
   id="path378"
   style="fill:none;stroke:#000000;stroke-width:1.5;stroke-linecap:round;stroke-linejoin:round" />
	<path
   d="m 143.903,-174.514 c 9.202,-0.955 16.886,-2.873 22.075,-5.268"
   id="path380"
   style="fill:none;stroke:#000000;stroke-width:1.5;stroke-linecap:round;stroke-linejoin:round" />
	<path
   d="m 143.903,-168.384 c 9.202,-0.957 16.886,-2.875 22.075,-5.268"
   id="path382"
   style="fill:none;stroke:#000000;stroke-width:1.5;stroke-linecap:round;stroke-linejoin:round" />
	<path
   d="m 143.903,-156.125 c 9.202,-0.956 16.886,-2.873 22.075,-5.268"
   id="path384"
   style="fill:none;stroke:#000000;stroke-width:1.5;stroke-linecap:round;stroke-linejoin:round" />
	<path
   d="m 143.903,-149.995 c 9.202,-0.956 16.886,-2.875 22.075,-5.269"
   id="path386"
   style="fill:none;stroke:#000000;stroke-width:1.5;stroke-linecap:round;stroke-linejoin:round" />
	<path
   d="m 143.903,-143.866 c 9.202,-0.955 16.886,-2.874 22.075,-5.268"
   id="path388"
   style="fill:none;stroke:#000000;stroke-width:1.5;stroke-linecap:round;stroke-linejoin:round" />
	<path
   d="m 143.903,-137.736 c 9.202,-0.956 16.886,-2.874 22.075,-5.27"
   id="path390"
   style="fill:none;stroke:#000000;stroke-width:1.5;stroke-linecap:round;stroke-linejoin:round" />
	<path
   d="m 143.903,-125.477 c 9.202,-0.956 16.886,-2.874 22.075,-5.269"
   id="path392"
   style="fill:none;stroke:#000000;stroke-width:1.5;stroke-linecap:round;stroke-linejoin:round" />
	<path
   d="m 143.903,-119.346 c 9.202,-0.956 16.886,-2.875 22.075,-5.269"
   id="path394"
   style="fill:none;stroke:#000000;stroke-width:1.5;stroke-linecap:round;stroke-linejoin:round" />
	<path
   d="m 143.903,-113.218 c 9.202,-0.956 16.886,-2.874 22.075,-5.268"
   id="path396"
   style="fill:none;stroke:#000000;stroke-width:1.5;stroke-linecap:round;stroke-linejoin:round" />
	<path
   d="m 143.903,-107.087 c 9.202,-0.957 16.886,-2.874 22.075,-5.269"
   id="path398"
   style="fill:none;stroke:#000000;stroke-width:1.5;stroke-linecap:round;stroke-linejoin:round" />
	<path
   d="m 143.903,-94.828 c 9.202,-0.956 16.886,-2.874 22.075,-5.269"
   id="path400"
   style="fill:none;stroke:#000000;stroke-width:1.5;stroke-linecap:round;stroke-linejoin:round" />
	<path
   d="m 143.903,-88.699 c 9.202,-0.956 16.886,-2.873 22.075,-5.269"
   id="path402"
   style="fill:none;stroke:#000000;stroke-width:1.5;stroke-linecap:round;stroke-linejoin:round" />
	<path
   d="m 143.903,-82.568 c 9.202,-0.957 16.886,-2.874 22.075,-5.269"
   id="path404"
   style="fill:none;stroke:#000000;stroke-width:1.5;stroke-linecap:round;stroke-linejoin:round" />
	<path
   d="m 143.903,-76.439 c 9.202,-0.956 16.886,-2.875 22.075,-5.269"
   id="path406"
   style="fill:none;stroke:#000000;stroke-width:1.5;stroke-linecap:round;stroke-linejoin:round" />
	<path
   d="m 143.903,-64.179 c 9.202,-0.957 16.886,-2.875 22.075,-5.269"
   id="path408"
   style="fill:none;stroke:#000000;stroke-width:1.5;stroke-linecap:round;stroke-linejoin:round" />
	<path
   d="m 143.903,-58.05 c 9.202,-0.956 16.886,-2.875 22.075,-5.269"
   id="path410"
   style="fill:none;stroke:#000000;stroke-width:1.5;stroke-linecap:round;stroke-linejoin:round" />
	<path
   d="m 143.903,-51.92 c 9.202,-0.957 16.886,-2.875 22.075,-5.269"
   id="path412"
   style="fill:none;stroke:#000000;stroke-width:1.5;stroke-linecap:round;stroke-linejoin:round" />
	<path
   d="m 143.903,-45.791 c 9.202,-0.956 16.886,-2.874 22.075,-5.269"
   id="path414"
   style="fill:none;stroke:#000000;stroke-width:1.5;stroke-linecap:round;stroke-linejoin:round" />
	<path
   d="m 143.903,-33.532 c 9.202,-0.956 16.886,-2.874 22.075,-5.269"
   id="path416"
   style="fill:none;stroke:#000000;stroke-width:1.5;stroke-linecap:round;stroke-linejoin:round" />
	<path
   d="m 143.903,-27.401 c 9.202,-0.956 16.886,-2.874 22.075,-5.269"
   id="path418"
   style="fill:none;stroke:#000000;stroke-width:1.5;stroke-linecap:round;stroke-linejoin:round" />
	<path
   d="m 143.903,-21.272 c 9.202,-0.956 16.886,-2.875 22.075,-5.269"
   id="path420"
   style="fill:none;stroke:#000000;stroke-width:1.5;stroke-linecap:round;stroke-linejoin:round" />
	<path
   d="m 143.903,-15.143 c 9.202,-0.956 16.886,-2.874 22.075,-5.268"
   id="path422"
   style="fill:none;stroke:#000000;stroke-width:1.5;stroke-linecap:round;stroke-linejoin:round" />
	<path
   d="m 143.903,-2.882 c 9.202,-0.956 16.886,-2.875 22.075,-5.269"
   id="path424"
   style="fill:none;stroke:#000000;stroke-width:1.5;stroke-linecap:round;stroke-linejoin:round" />
	<path
   d="m 143.903,3.247 c 9.202,-0.956 16.886,-2.875 22.075,-5.268"
   id="path426"
   style="fill:none;stroke:#000000;stroke-width:1.5;stroke-linecap:round;stroke-linejoin:round" />
	<path
   d="m 143.903,9.377 c 9.202,-0.957 16.886,-2.875 22.075,-5.27"
   id="path428"
   style="fill:none;stroke:#000000;stroke-width:1.5;stroke-linecap:round;stroke-linejoin:round" />
	<path
   d="m 143.903,15.505 c 9.202,-0.956 16.886,-2.874 22.075,-5.268"
   id="path430"
   style="fill:none;stroke:#000000;stroke-width:1.5;stroke-linecap:round;stroke-linejoin:round" />
	<path
   d="m 143.903,27.766 c 9.202,-0.957 16.886,-2.875 22.075,-5.269"
   id="path432"
   style="fill:none;stroke:#000000;stroke-width:1.5;stroke-linecap:round;stroke-linejoin:round" />
	<path
   d="m 143.903,33.896 c 9.202,-0.957 16.886,-2.874 22.075,-5.269"
   id="path434"
   style="fill:none;stroke:#000000;stroke-width:1.5;stroke-linecap:round;stroke-linejoin:round" />
	<path
   d="m 143.903,40.023 c 9.202,-0.955 16.886,-2.874 22.075,-5.268"
   id="path436"
   style="fill:none;stroke:#000000;stroke-width:1.5;stroke-linecap:round;stroke-linejoin:round" />
	<path
   d="m 143.903,46.154 c 9.202,-0.956 16.886,-2.873 22.075,-5.268"
   id="path438"
   style="fill:none;stroke:#000000;stroke-width:1.5;stroke-linecap:round;stroke-linejoin:round" />
	<path
   d="m 143.903,58.414 c 9.202,-0.956 16.886,-2.875 22.075,-5.268"
   id="path440"
   style="fill:none;stroke:#000000;stroke-width:1.5;stroke-linecap:round;stroke-linejoin:round" />
	<path
   d="m 143.903,64.543 c 9.202,-0.957 16.886,-2.874 22.075,-5.27"
   id="path442"
   style="fill:none;stroke:#000000;stroke-width:1.5;stroke-linecap:round;stroke-linejoin:round" />
	<path
   d="m 143.903,70.673 c 9.202,-0.957 16.886,-2.875 22.075,-5.268"
   id="path444"
   style="fill:none;stroke:#000000;stroke-width:1.5;stroke-linecap:round;stroke-linejoin:round" />
	<path
   d="m 128.898,-651.99 c 0.626,0.008 1.248,0.022 1.882,0.022 14.986,0 27.695,-2.467 35.198,-5.93"
   id="path446"
   style="fill:none;stroke:#000000;stroke-width:1.5;stroke-linecap:round;stroke-linejoin:round" />
	<path
   d="m 165.979,-596.601 c -7.503,3.461 -20.212,5.931 -35.198,5.931 -0.634,0 -1.256,-0.015 -1.882,-0.023"
   id="path448"
   style="fill:none;stroke:#000000;stroke-width:1.5;stroke-linecap:round;stroke-linejoin:round" />
	<path
   d="m 165.979,-535.305 c -7.503,3.463 -20.212,5.932 -35.198,5.932 -0.634,0 -1.256,-0.016 -1.882,-0.023"
   id="path450"
   style="fill:none;stroke:#000000;stroke-width:1.5;stroke-linecap:round;stroke-linejoin:round" />
	<path
   d="m 165.979,-474.007 c -7.503,3.461 -20.212,5.931 -35.198,5.931 -0.634,0 -1.256,-0.015 -1.882,-0.024"
   id="path452"
   style="fill:none;stroke:#000000;stroke-width:1.5;stroke-linecap:round;stroke-linejoin:round" />
	<path
   d="m 165.979,-412.71 c -7.503,3.462 -20.212,5.931 -35.198,5.931 -0.634,0 -1.256,-0.014 -1.882,-0.022"
   id="path454"
   style="fill:none;stroke:#000000;stroke-width:1.5;stroke-linecap:round;stroke-linejoin:round" />
	<path
   d="m 165.979,-351.414 c -7.503,3.462 -20.212,5.931 -35.198,5.931 -0.634,0 -1.256,-0.015 -1.882,-0.023"
   id="path456"
   style="fill:none;stroke:#000000;stroke-width:1.5;stroke-linecap:round;stroke-linejoin:round" />
	<path
   d="m 165.979,-290.117 c -7.503,3.461 -20.212,5.931 -35.198,5.931 -0.634,0 -1.256,-0.015 -1.882,-0.023"
   id="path458"
   style="fill:none;stroke:#000000;stroke-width:1.5;stroke-linecap:round;stroke-linejoin:round" />
	<path
   d="m 165.979,-228.819 c -7.503,3.461 -20.212,5.93 -35.198,5.93 -0.634,0 -1.256,-0.015 -1.882,-0.023"
   id="path460"
   style="fill:none;stroke:#000000;stroke-width:1.5;stroke-linecap:round;stroke-linejoin:round" />
	<path
   d="m 165.979,-167.523 c -7.503,3.462 -20.212,5.932 -35.198,5.932 -0.634,0 -1.256,-0.016 -1.882,-0.023"
   id="path462"
   style="fill:none;stroke:#000000;stroke-width:1.5;stroke-linecap:round;stroke-linejoin:round" />
	<path
   d="m 165.979,-106.226 c -7.503,3.461 -20.212,5.931 -35.198,5.931 -0.634,0 -1.256,-0.015 -1.882,-0.023"
   id="path464"
   style="fill:none;stroke:#000000;stroke-width:1.5;stroke-linecap:round;stroke-linejoin:round" />
	<path
   d="m 165.979,-44.929 c -7.503,3.462 -20.212,5.929 -35.199,5.929 -0.634,0 -1.256,-0.015 -1.882,-0.022"
   id="path466"
   style="fill:none;stroke:#000000;stroke-width:1.5;stroke-linecap:round;stroke-linejoin:round" />
	<path
   d="m 165.979,16.367 c -7.503,3.462 -20.212,5.931 -35.198,5.931 -0.634,0 -1.256,-0.016 -1.882,-0.023"
   id="path468"
   style="fill:none;stroke:#000000;stroke-width:1.5;stroke-linecap:round;stroke-linejoin:round" />
</g>
</svg>