<svg xmlns="http://www.w3.org/2000/svg" width="382.677" height="803.306" viewBox="-68.489 -557.249 382.677 803.306" xml:space="preserve"><path fill="none" stroke="#1a171b" stroke-width=".75" stroke-linecap="round" stroke-linejoin="round" d="M81.652 169.032v7.28M153.514 64.47v7.354M46.417 83.272l-56.983 35.488m202.085-33.658-38.093-13.344-91.986 6.979m185.497 25.776-49.102-17.199"/><path fill="none" stroke="#1a171b" stroke-width=".75" stroke-linecap="round" stroke-linejoin="round" d="m194.386 78.743-40.96-14.341-87.638 7.534m140.324 10.911-5.451-1.908"/><path d="m47.034 75.615-65.255 40.558c-.962.598-1.749 2.013-1.749 3.146v3.237c0 1.132.825 2.479 1.834 2.994l97.77 49.871c1.009.515 2.754.828 3.879.697l164.869-19.25c1.125-.131 2.045-1.165 2.045-2.297v-3.24a74.27 74.27 0 0 0-.138-4.113l-3.215-48.005c-.076-1.13-1.012-2.361-2.08-2.736l-31.28-10.979" fill="none" stroke="#161413" stroke-width="3" stroke-linecap="round" stroke-linejoin="round"/><path d="M30.884 135.359c-11.506-5.78-18.204-12.704-18.204-20.144m221.577 0c0 20.25-49.603 36.663-110.787 36.663-28.913 0-55.241-3.666-74.97-9.669" fill="none" stroke="#1a171b" stroke-width=".75" stroke-linecap="round" stroke-linejoin="round"/><path d="M34.867 129.969c-11.409-5.599-18.065-12.34-18.065-19.593m213.338 0c0 19.429-47.76 35.177-106.67 35.177-27.265 0-52.141-3.376-70.999-8.926" fill="none" stroke="#1a171b" stroke-width="1.5" stroke-linecap="round" stroke-linejoin="round"/><path d="m-19.969 117.26 99.604 50.807c1.009.515 2.754.828 3.879.696l166.914-19.491" fill="none" stroke="#1a171b" stroke-width=".75" stroke-linecap="round" stroke-linejoin="round"/><path d="M218.884 103.943c4.459 3.702 6.905 7.728 6.905 11.939 0 1.6-.353 3.174-1.034 4.713m-31.293-28.769c6.993 2.114 13.065 4.541 17.999 7.212M61.808 89.631c17.161-4.207 38.574-6.703 61.798-6.703 22.686 0 44.581 2.588 61.536 6.62M34.93 99.491c5.011-2.814 11.273-5.367 18.541-7.579m-31.523 27.342a11.177 11.177 0 0 1-.528-3.372c0-4.35 2.61-8.502 7.353-12.303" fill="none" stroke="#161413" stroke-width="1.5" stroke-linecap="round" stroke-linejoin="round"/><path d="M16.245 105.07c7.278-11.483 17.766-21.344 30.696-29.401m153.076-.244c12.496 7.799 22.655 17.387 29.934 28.419" fill="none" stroke="#161413" stroke-width="3" stroke-linecap="round" stroke-linejoin="round"/><g fill="none" stroke="#161413" stroke-linecap="round" stroke-linejoin="round"><path d="M57.973 94.808c-5.458-3.13-8.653-6.605-10.439-9.963m152.518-1.335c-4.432 10.334-21.427 22.352-76.579 22.352-23.2 0-39.647-2.126-51.249-5.36M32.5-456.579c1.021-.668 3.349-1.353 4.44-1.565 8.807-1.703 14.89-1.358 25.416 1.083 15.153 3.519 36.092 5.695 59.22 5.695 33.918 0 61.896-4.956 75.126-11.448 3.195-1.566 4.896-3.704 5.233-5.25" stroke-width="1.5"/><path d="M41.344-454.079c10.46-1.13 13.323.117 22.355 2.407.59.149 1.204.303 1.851.464m133.388-7.122c-13.911 8.556-43.516 13.171-75.404 13.171-16.581 0-32.044-1.254-45.077-3.416m90.723-34.883c12.36 2.305 23.612 6.188 28.102 9.236 2.061 1.398 3.258 3.013 3.258 4.915m-158.368 5.593c2.669-6.557 4.218-11.97 18.924-16.343 15.175-4.51 36.992-7.339 61.233-7.339 12.017 0 23.434.693 33.742 1.944m39.482 554.637v-519.988c0-1.623.602-4.127 1.11-4.961M51.517 69.185v-502.977c0-10.554-3.561-17.247-11.086-18.979M64.475 91.802C54.357 87.209 52.042 81.39 52.042 76.477m142.537 0c0 9.823-9.2 23.281-71.184 23.281-21.341 0-36.425-1.594-47.031-4.09m110.569-22.093c-4.034-4.304-13.737-7.985-26.796-10.412m-19.447-3.137a231.922 231.922 0 0 0-17.331-.638c-36.249 0-65.634 8.053-65.634 17.993" stroke-width=".75"/><path d="M149.909 52.829c-8.271-1.044-17.211-1.619-26.55-1.619-31.182 0-58.004 6.357-69.902 15.472m139.803-.001c-4.266-3.271-9.795-5.899-17.188-8.295" stroke-width=".75"/><path d="M46.941 75.669v-510.801s.923-14.212-12.583-16.155c-.675-.097-2.844.862-3.594.834-4.328-.164-5.323-5.181 1.842-11.916 7.974-7.492 4.229-15.72 20.076-21.313 15.176-5.354 41.125-9.551 70.797-9.551 46.576 0 84.332 9.521 84.332 20.93 0 8.264-7.794 9.104-7.794 21.228v526.5" stroke-width="3"/></g><path d="M123.732-312.031v-1.755l3.99-4.774c.39-.479.555-.814.555-1.31 0-.795-.465-1.319-1.29-1.29-.645.022-1.305.376-1.305 1.411l-1.95.068c0-1.95 1.425-3.169 3.255-3.233 1.89-.066 3.24 1.072 3.24 2.992 0 1.035-.405 1.604-1.14 2.484l-2.985 3.569 4.125-.144v1.755l-6.495.227zm13.725-1.259c-.48.497-1.245.913-2.355.952-1.109.039-1.92-.323-2.385-.771-.659-.637-.81-1.412-.87-2.189l1.95-.068c.105.836.495 1.303 1.305 1.274.375-.013.69-.129.931-.377.345-.357.42-.93.42-1.604 0-1.23-.36-1.908-1.305-1.875-.796.028-1.155.49-1.29.915l-1.785.062v-6.03l6.09-.213v1.755l-4.32.151v2.295c.285-.28.885-.571 1.605-.596.885-.031 1.56.231 1.995.651.84.811.96 1.811.96 2.816-.001 1.199-.166 2.044-.946 2.852zm5.761.668c-1.74.061-3.255-1.026-3.255-3.066v-4.5c0-2.04 1.515-3.232 3.255-3.293 1.739-.061 3.239 1.027 3.239 3.066v4.5c0 2.04-1.5 3.232-3.239 3.293zm1.29-7.694c0-.9-.525-1.437-1.29-1.41-.766.026-1.306.601-1.306 1.5v4.455c0 .9.54 1.421 1.306 1.395.765-.027 1.29-.585 1.29-1.485v-4.455zm-20.776 91.196v-1.755l3.99-4.774c.39-.479.555-.814.555-1.31 0-.795-.465-1.319-1.29-1.29-.645.023-1.305.376-1.305 1.411l-1.95.068c0-1.95 1.425-3.169 3.255-3.233 1.89-.066 3.24 1.072 3.24 2.992 0 1.035-.405 1.604-1.14 2.484l-2.985 3.569 4.125-.144v1.755l-6.495.227zm11.34-.306c-1.74.061-3.255-1.026-3.255-3.066v-4.5c0-2.04 1.515-3.232 3.255-3.293 1.739-.061 3.239 1.027 3.239 3.067v4.5c.001 2.04-1.499 3.232-3.239 3.292zm1.29-7.694c0-.9-.525-1.437-1.29-1.41-.766.027-1.306.601-1.306 1.501v4.455c0 .9.54 1.421 1.306 1.394.765-.027 1.29-.585 1.29-1.485v-4.455zm6.856 7.41c-1.74.061-3.255-1.026-3.255-3.066v-4.5c0-2.04 1.515-3.232 3.255-3.293 1.739-.061 3.239 1.027 3.239 3.066v4.5c0 2.04-1.5 3.232-3.239 3.293zm1.29-7.695c0-.9-.525-1.437-1.29-1.41-.766.026-1.306.601-1.306 1.5v4.455c0 .9.54 1.421 1.306 1.395.765-.027 1.29-.585 1.29-1.485v-4.455zM126.567-146.307v-8.58l-2.175 1.966v-2.1l2.175-1.966 1.95-.068v10.68l-1.95.068zm10.89-1.16c-.48.497-1.245.913-2.355.952-1.109.039-1.92-.323-2.385-.771-.659-.637-.81-1.412-.87-2.189l1.95-.068c.105.836.495 1.303 1.305 1.274.375-.013.69-.129.931-.377.345-.357.42-.93.42-1.604 0-1.23-.36-1.908-1.305-1.875-.796.028-1.155.49-1.29.915l-1.785.062v-6.03l6.09-.213v1.755l-4.32.151v2.295c.285-.28.885-.571 1.605-.596.885-.031 1.56.231 1.995.651.84.811.96 1.811.96 2.816-.001 1.199-.166 2.045-.946 2.852zm5.761.669c-1.74.061-3.255-1.026-3.255-3.066v-4.5c0-2.04 1.515-3.232 3.255-3.293 1.739-.061 3.239 1.027 3.239 3.066v4.5c0 2.04-1.5 3.232-3.239 3.293zm1.29-7.695c0-.9-.525-1.437-1.29-1.41-.766.026-1.306.601-1.306 1.5v4.455c0 .9.54 1.421 1.306 1.395.765-.027 1.29-.585 1.29-1.485v-4.455zM126.567-63.396v-8.58l-2.175 1.966v-2.1l2.175-1.966 1.95-.068v10.68l-1.95.068zm8.505-.207c-1.74.061-3.255-1.026-3.255-3.066v-4.5c0-2.04 1.515-3.232 3.255-3.293 1.739-.061 3.239 1.027 3.239 3.067v4.5c.001 2.04-1.499 3.232-3.239 3.292zm1.29-7.694c0-.9-.525-1.437-1.29-1.41-.766.027-1.306.601-1.306 1.501v4.455c0 .9.54 1.421 1.306 1.394.765-.027 1.29-.585 1.29-1.485v-4.455zm6.856 7.41c-1.74.061-3.255-1.026-3.255-3.066v-4.5c0-2.04 1.515-3.232 3.255-3.293 1.739-.061 3.239 1.027 3.239 3.066v4.5c0 2.04-1.5 3.232-3.239 3.293zm1.29-7.695c0-.9-.525-1.437-1.29-1.41-.766.026-1.306.601-1.306 1.5v4.455c0 .9.54 1.421 1.306 1.395.765-.027 1.29-.585 1.29-1.485v-4.455zM136.867 18.641c-.48.497-1.245.913-2.355.952-1.109.039-1.92-.323-2.385-.772-.659-.637-.81-1.412-.87-2.189l1.95-.068c.105.836.495 1.302 1.305 1.274.375-.013.69-.129.931-.377.345-.357.42-.93.42-1.604 0-1.23-.36-1.907-1.305-1.875-.796.028-1.155.49-1.29.915l-1.785.062v-6.03l6.09-.212v1.755l-4.32.151v2.295c.285-.28.885-.571 1.605-.596.885-.031 1.56.23 1.995.65.84.811.96 1.812.96 2.816-.001 1.2-.166 2.045-.946 2.853zm5.76.668c-1.74.061-3.255-1.026-3.255-3.066v-4.5c0-2.04 1.515-3.232 3.255-3.293 1.739-.061 3.239 1.027 3.239 3.066v4.5c0 2.04-1.5 3.233-3.239 3.293zm1.29-7.694c0-.9-.525-1.437-1.29-1.41-.766.027-1.306.601-1.306 1.501v4.455c0 .9.54 1.421 1.306 1.394.765-.026 1.29-.585 1.29-1.485v-4.455zM104.208-380.735v-1.75a704.063 704.063 0 0 0 3.976-4.3c.389-.436.553-.754.553-1.247 0-.792-.463-1.362-1.286-1.424-.643-.047-1.3.228-1.3 1.259-.647-.052-1.295-.107-1.942-.166 0-1.944 1.419-2.979 3.243-2.843 1.885.141 3.231 1.399 3.231 3.314 0 1.031-.403 1.562-1.138 2.366a800.16 800.16 0 0 1-2.975 3.239c1.37.108 2.741.204 4.113.287v1.75a218.934 218.934 0 0 1-6.475-.485zm13.693.029c-.479.464-1.243.831-2.352.788-1.108-.042-1.916-.471-2.38-.957-.659-.69-.809-1.478-.868-2.258.648.035 1.297.066 1.945.095.105.841.494 1.339 1.303 1.37.374.015.689-.079.93-.31.344-.332.418-.898.418-1.571 0-1.226-.358-1.924-1.303-1.96-.793-.031-1.152.401-1.288.813-.594-.026-1.188-.055-1.781-.086v-6.011c2.026.105 4.053.184 6.08.235v1.75a229.776 229.776 0 0 1-4.313-.149v2.288c.285-.257.884-.501 1.604-.474.883.033 1.557.337 1.991.783.839.86.958 1.863.958 2.866 0 1.199-.164 2.032-.944 2.788zm5.757.956c-1.738-.004-3.252-1.168-3.252-3.202v-4.485c0-2.034 1.514-3.143 3.252-3.139 1.737.005 3.237 1.121 3.236 3.155v4.486c.002 2.032-1.498 3.19-3.236 3.185zm1.288-7.627c.001-.896-.524-1.449-1.288-1.45-.765-.001-1.304.546-1.304 1.444v4.441c0 .896.539 1.44 1.304 1.443.764.001 1.288-.54 1.288-1.437v-4.441zm5.848 3.389v-2.214c.738-.021 1.478-.047 2.216-.076v2.213c-.739.03-1.478.055-2.216.077zm0 4.052v-2.213c.738-.021 1.478-.047 2.216-.076v2.213c-.739.029-1.478.054-2.216.076zm11.959-1.448c-.478.518-1.24.97-2.347 1.049-1.107.08-1.915-.258-2.379-.693-.658-.618-.808-1.387-.867-2.161.647-.037 1.296-.078 1.944-.121.105.83.494 1.284 1.302 1.226.373-.026.688-.156.927-.413.344-.371.419-.944.419-1.617 0-1.227-.359-1.884-1.301-1.816-.793.058-1.152.53-1.286.957-.594.04-1.188.077-1.781.112v-6.011c2.025-.12 4.049-.266 6.071-.44v1.75c-1.435.124-2.87.233-4.306.329v2.288c.284-.29.883-.597 1.601-.651.882-.065 1.554.164 1.987.562.838.768.956 1.757.957 2.76 0 1.194-.164 2.047-.941 2.89zm-37.579 18.686v-4.71c0-1.062-.672-1.478-1.284-1.534-.598-.054-1.3.237-1.3 1.253v4.755a182 182 0 0 1-1.94-.197v-4.71c0-1.061-.671-1.491-1.283-1.56-.611-.068-1.297.21-1.297 1.272v4.71a249.64 249.64 0 0 1-1.937-.236v-7.791c.63.08 1.261.157 1.892.231v.718c.507-.463 1.222-.666 1.938-.587.866.094 1.567.479 2.06 1.201.657-.623 1.358-.854 2.33-.767.777.069 1.479.381 1.913.849.627.679.852 1.428.852 2.28v4.979c-.648-.048-1.296-.1-1.944-.156zm6.242.445c-1.6-.093-2.274-1.264-2.274-2.37v-8.419c.648.044 1.297.085 1.945.123v8.299c0 .463.194.714.688.742l.748.04v1.646c-.369-.019-.738-.039-1.107-.061zm5.964.262v-7.833c.511.016 1.021.03 1.532.042v7.833c-.511-.013-1.021-.027-1.532-.042zm6.592.104v-3.465c-.001-.781-.496-1.046-.948-1.049-.452-.002-.959.256-.959 1.039v3.465a227.54 227.54 0 0 1-1.434-.019v-5.732l1.4.018v.528c.374-.393.903-.586 1.432-.585.574.002 1.036.188 1.356.506.463.461.584 1 .584 1.626v3.664c-.477.004-.955.005-1.431.004zm5.377-.058v-1.287a826.466 826.466 0 0 0 2.931-3.486c.287-.352.408-.598.408-.961 0-.583-.342-.966-.948-.945-.474.016-.958.272-.958 1.031-.478.014-.955.027-1.433.038 0-1.431 1.047-2.31 2.391-2.355 1.389-.047 2.381.776 2.381 2.185 0 .759-.298 1.18-.839 1.829-.73.876-1.461 1.75-2.191 2.619 1.01-.031 2.021-.069 3.03-.113v1.287a245.53 245.53 0 0 1-4.772.158zm8.326-.28c-1.277.077-2.389-.706-2.389-2.201v-3.301c0-1.497 1.111-2.386 2.389-2.463 1.277-.077 2.378.68 2.378 2.176v3.301c0 1.497-1.101 2.412-2.378 2.488zm.947-5.67c0-.66-.386-1.042-.947-1.008-.561.034-.958.462-.958 1.123v3.268c0 .66.397 1.035.958 1 .562-.033.946-.455.947-1.115v-3.268zm4.663 1.257c-1.121.096-2.022-.74-2.022-1.861 0-1.123.901-2.102 2.022-2.199 1.122-.096 2.022.731 2.022 1.854.001 1.122-.9 2.111-2.022 2.206zm-.011-2.903a.95.95 0 0 0-.857.952c0 .495.385.85.868.808a.962.962 0 0 0 .868-.956.789.789 0 0 0-.879-.804zm6.161 6.297c-.854.097-1.558-.137-2.107-.629-.79-.711-.769-1.694-.768-3.046 0-1.354-.022-2.33.768-3.203a3.264 3.264 0 0 1 2.107-1.086c1.46-.166 2.599.527 2.873 2.131-.516.065-1.03.128-1.546.19-.153-.609-.548-1.046-1.315-.958a1.422 1.422 0 0 0-.977.516c-.297.362-.384.746-.385 2.253.001 1.507.088 1.872.385 2.17.219.229.559.346.977.298.768-.088 1.162-.619 1.315-1.264.516-.062 1.03-.125 1.546-.19-.275 1.673-1.425 2.655-2.873 2.818z"/><g><path d="M189.414-320.768c-13.392 7.211-37.848 12.036-65.809 12.036m0 82.996c27.961 0 52.417-4.825 65.809-12.036m-65.809 95.032c27.961 0 52.417-4.825 65.809-12.036m-65.809 95.031c27.961 0 52.417-4.825 65.809-12.036m-65.809 95.032c27.961 0 52.417-4.825 65.809-12.036m-40.26-304.758c16.95-1.931 31.158-5.729 40.26-10.628m-40.26 27.227c16.95-1.931 31.158-5.729 40.26-10.628m-40.26 27.227c16.95-1.931 31.158-5.729 40.26-10.628m0 16.599c-9.102 4.899-23.31 8.697-40.26 10.628m0 33.199c16.95-1.931 31.158-5.729 40.26-10.628m-40.26 27.227c16.95-1.931 31.158-5.729 40.26-10.628m-40.26 27.227c16.95-1.931 31.158-5.729 40.26-10.628m-40.26 27.227c16.95-1.931 31.158-5.729 40.26-10.628m-40.26 43.826c16.95-1.931 31.158-5.729 40.26-10.628m-40.26 27.227c16.95-1.931 31.158-5.729 40.26-10.628m-40.26 27.227c16.95-1.931 31.158-5.729 40.26-10.628m-40.26 27.228c16.95-1.931 31.158-5.729 40.26-10.628m-40.26 43.826c16.95-1.931 31.158-5.729 40.26-10.628m-40.26 27.227c16.95-1.931 31.158-5.729 40.26-10.628m-40.26 27.227c16.95-1.931 31.158-5.729 40.26-10.628m-40.26 27.227c16.95-1.931 31.158-5.729 40.26-10.628m-40.26 43.826c16.95-1.931 31.158-5.729 40.26-10.628m-40.26 27.228c16.95-1.931 31.158-5.729 40.26-10.628m0-356.881c-5.407 2.909-12.614 5.429-21.127 7.401m21.127 9.198c-5.407 2.909-12.614 5.429-21.127 7.401m21.127 9.199c-5.407 2.909-12.614 5.429-21.127 7.401m0 16.599c8.513-1.972 15.72-4.493 21.127-7.401m0 16.599c-5.407 2.909-12.614 5.429-21.127 7.401m21.127 9.197c-5.407 2.909-12.614 5.429-21.127 7.401m21.127 9.199c-5.407 2.909-12.614 5.429-21.127 7.401m21.127 9.198c-5.407 2.909-12.614 5.429-21.127 7.401m21.127 9.198c-5.407 2.909-12.614 5.429-21.127 7.401m21.127 9.198c-5.407 2.909-12.614 5.429-21.127 7.401m21.127 9.198c-5.407 2.909-12.614 5.429-21.127 7.401m21.127 9.198c-5.407 2.909-12.614 5.429-21.127 7.401m21.127 9.199c-5.407 2.909-12.614 5.429-21.127 7.401m21.127 9.197c-5.407 2.909-12.614 5.429-21.127 7.401m21.127 9.199c-5.407 2.909-12.614 5.429-21.127 7.401m21.127 9.198c-5.407 2.909-12.614 5.429-21.127 7.401m21.127 9.198c-5.407 2.909-12.614 5.429-21.127 7.401m21.127 9.198c-5.407 2.909-12.614 5.429-21.127 7.401m21.127 9.198c-5.407 2.909-12.614 5.429-21.127 7.401m21.127 9.198c-5.407 2.909-12.614 5.429-21.127 7.401m21.127 9.199c-5.407 2.909-12.614 5.429-21.127 7.401m21.127 9.197c-5.407 2.909-12.614 5.429-21.127 7.401m21.127 9.199c-5.407 2.909-12.614 5.429-21.127 7.401" fill="none" stroke="#000" stroke-width="1.5" stroke-linecap="round" stroke-linejoin="round"/></g></svg>