<svg xmlns="http://www.w3.org/2000/svg" width="680.315" height="504.846" viewBox="0 0 180 133.574"><path d="m204.302 148.615-14.762 4.144s3.11 8.151 2.683 12.338c-.375 3.68-1.907 7.509-4.502 10.146-.548.556-1.344.975-2.124.983-3.39.033-38.52-7.555-38.63-7.557-.123-.003-.3-.055-.333.044-.033.11.184.202.237.214.066.022 36.511 7.976 36.752 8.111.158.088.327.318-.021.463-.64.267-1.635.514-2.172.638-.355.076-52.37 8.84-52.44 8.865-.078.033-.376.146-.35.296.022.15.336.16.428.162.088.003 56.362-8.958 56.598-8.95.28.008.324.065.326.277 0 .249-54.914 21.897-54.989 21.954-.055.044-.318.213-.259.342.055.136.359.055.448.022.066-.022 52.416-20.374 53.267-20.545 1.017-.204 2.041-.536 3.079-.48.774.045 1.775-.008 2.248.61.259.338.123.867.004 1.275-.125.432-.36.72-.516 1.036-.697 1.424-15.245 24.22-15.263 24.26-.022.054-.088.25-.01.317.087.076.309-.033.356-.088.055-.066 13.603-20.558 14.093-20.733.868-.308 1.042.796 1.042.796l10.353 2.621s23.584-1.592 23.584-2.61-17.175-39.435-17.175-39.435z" style="fill:#05a70c;fill-opacity:.256471;stroke:#05750b;stroke-width:.102029;stroke-linecap:butt;stroke-linejoin:miter;stroke-dasharray:none;stroke-opacity:1" transform="translate(-128.588 -74.083)"/><path d="m223.422 187.581-7.881-16.576-9.962-24.977 2.725-23.073 19.748-28.865 37.479-7.482 24.579 13.786 13.364 24.074-3.649 31.928-15.005 25.003-29.91 9.264-30.452 1.453-1.036-4.535" style="fill:#00bf0c;fill-opacity:.1;stroke:#05750b;stroke-width:.413944;stroke-linecap:butt;stroke-linejoin:miter;stroke-dasharray:none;stroke-opacity:1" transform="translate(-128.588 -74.083)"/><path d="M217.194 181.672c-.533-.146-1.07-.336-1.527-.65-.824-.567-1.738-1.22-2.08-2.16-.615-1.694.47-3.594.377-5.395-.077-1.504-.29-3.029-.773-4.438-.509-1.486-1.565-2.686-2.194-4.104-1.862-4.198-3.782-8.46-4.643-12.97-.138-.723-.11-1.876-.077-2.21.01-.198.254-.493.477-.634.25-.157.575-.226.865-.172.23.044.416.224.59.38 1.11.993 2.017 2.209 2.826 3.459.873 1.35 1.462 2.865 2.155 4.315 1.31 2.738 2.383 5.59 3.788 8.28 1.382 2.646 3.193 5.054 4.556 7.71.689 1.342 1.5 2.668 1.823 4.142.146.672.12 1.38.033 2.062-.066.558-.12 1.173-.456 1.624-.26.349-.706.524-1.106.696-.398.173-.83.281-1.262.33-.65.065-1.306-.022-1.957-.066-.471-.033-.95-.066-1.408-.192z" style="fill:#05a70c;fill-opacity:1;stroke:#05610a;stroke-width:.623767;stroke-linecap:butt;stroke-linejoin:miter;stroke-dasharray:none;stroke-opacity:1" transform="translate(-128.588 -74.083)"/><path d="M587.786 654.56c.478-1.002.92-2.021 1.431-3.004.191-.365.524-.948.733-1.305.803-1.371 1.661-2.715 2.622-3.979.172-.227.459-.59.64-.812a22 22 0 0 1 2.151-2.305c.222-.203.598-.516.862-.659.192-.103.39-.2.565-.318.223-.15.485-.52.543-.782q.012-.055.02-.111c.026-.152.046-.402.046-.556 0-.788-.27-1.571-.31-2.36a6 6 0 0 1 .004-.55q.003-.062.011-.123c.024-.198.162-.507.31-.644a.6.6 0 0 1 .189-.122.8.8 0 0 1 .352-.047c.19.015.483.146.624.275q.09.085.174.18c.187.213.51.54.71.742.376.374.743.758 1.135 1.114.152.14.408.357.56.497.163.149.328.298.506.42.21.142.612.26.862.237.16-.015.534-.051.831-.104l.043-.008c1.264-.231 3.337-.49 4.615-.348.817.09 2.622.533 3.953 1.117q.512.226 1.015.472c.48.232 1.25.622 1.725.865.847.434 1.687.89 2.457 1.438a12 12 0 0 1 1.702 1.533c.435.491.83 1.02 1.2 1.569.49.728 1.214 1.955 1.619 2.734.48.923.909 1.874 1.277 2.846.312.825.733 2.194.925 3.055q.18.803.288 1.619c.11.85.158 2.244.114 3.1q-.042.872-.18 1.733c-.135.843-.511 2.181-.815 2.98-.471 1.24-1.076 2.434-1.742 3.586a55 55 0 0 1-1.284 2.085c-.395.606-.81 1.202-1.263 1.763-.817 1.014-2.532 2.28-3.727 2.794-2.029.873-4.991 1.877-7.296 2.568-1.69.507-4.513.967-6.276 1.041-2.138.09-4.286.068-6.424.037l-1.048-.014c-1.41-.016-2.986-.017-4.162-.11-.25-.019-.658-.065-.91-.088-1.373-.13-3.594-.298-5.078-1.189-.261-.156-.662-.467-.812-.73-.147-.258-.052-.787.174-.98q.04-.033.08-.063c.224-.163.672-.29.944-.25.24.035.485.12.73.182.22.055.59.079.819.093.69.043 1.39.086 2.065-.014a4.7 4.7 0 0 0 .924-.249q.202-.082.386-.196c.224-.14.51-.47.59-.72.064-.196.118-.399.257-.54.196-.2.439-.362.701-.475.272-.117.756-.193 1.049-.154.392.052.786.193 1.179.249.374.053.756.07 1.13.125.27.04.699.16.954.262q.289.117.57.256c.391.188 1.028.49 1.414.688q.262.135.524.268c.426.212 1.145.5 1.595.66.237.083.476.159.718.22.34.086.908.153 1.26.17.877.041 1.761-.036 2.64-.145a65 65 0 0 0 2.027-.287c1.47-.24 2.93-.56 4.358-.979.465-.136 1.213-.377 1.674-.525.892-.285 1.786-.591 2.585-1.052a8.6 8.6 0 0 0 1.282-.959c.803-.744 1.474-1.638 2.07-2.572.373-.583.934-1.556 1.23-2.18.471-.993.846-2.035 1.168-3.089.164-.536.407-1.412.54-1.957.204-.842.369-1.696.457-2.555.063-.62.08-1.633.041-2.255a17 17 0 0 0-.163-1.503c-.184-1.204-.692-3.12-1.106-4.266-.26-.72-.56-1.425-.909-2.103a19 19 0 0 0-1.046-1.734c-.299-.434-.62-.855-.967-1.251-.752-.86-2.264-1.968-3.31-2.424a20 20 0 0 0-1.459-.56c-.678-.235-1.78-.611-2.475-.795a14 14 0 0 0-1.042-.236 14 14 0 0 0-1.405-.168 18 18 0 0 0-2.056.02c-.329.02-.862.061-1.191.088-.948.077-1.9.174-2.823.382-.48.108-1.244.35-1.702.533-.834.333-1.636.76-2.35 1.295-1.128.845-2.084 1.919-2.93 3.052-.188.25-.482.662-.655.922-.979 1.468-1.746 3.077-2.465 4.692-.073.164-.19.43-.264.594-.469 1.039-.979 2.085-1.238 3.184-.1.42-.173 1.124-.1 1.548.105.614.338 1.228.335 1.836a2.4 2.4 0 0 1-.138.724 3.6 3.6 0 0 1-.397.715c-.137.201-.369.522-.52.714q-.11.143-.231.271c-.215.222-.68.45-.987.48-.162.016-.327.018-.492.023a6 6 0 0 0-.765.09c-.73.14-1.306.363-2.325.353-.197-.002-.518-.02-.705-.082a1.4 1.4 0 0 1-.576-.343c-.165-.174-.261-.6-.171-.824.097-.241.409-.465 1.248-1.174 1.117-.945 2.057-3.565 3.02-5.647.195-.422.538-1.096.739-1.516z" style="fill:#008a07;fill-opacity:1;stroke:#054807;stroke-width:.243906;stroke-linecap:butt;stroke-linejoin:miter;stroke-dasharray:none;stroke-opacity:1" transform="matrix(2.89232 0 0 2.89232 -1626.048 -1841.71)"/></svg>