<svg xmlns="http://www.w3.org/2000/svg" xmlns:xlink="http://www.w3.org/1999/xlink" width="518.323" height="236.3" viewBox="0 0 137.14 62.521" version="1.1" id="svg106318"><defs id="defs106312"><path id="SVGID_35_" d="M699.6 446.7c-19.8 10.9-52 10.1-71.8-1.9-19.8-12-19.8-30.5 0-41.5 19.8-10.9 52-10.1 71.8 1.9 19.8 12 19.8 30.6 0 41.5z"/><path id="SVGID_43_" d="m708.2 431.3-31.9-4c-.6 1.3-1.7 2.4-3.4 3.4-5.1 2.8-13.3 2.6-18.4-.5-1.6-1-2.7-2.1-3.3-3.3l-29.8 1.2-3 1.6 11.4 11.1 7.1 5.1 9.4.7 48.1.1 17.3-12z"/><path id="SVGID_51_" d="M580.9 471.8c-19.8 10.9-52 10.1-71.8-1.9-19.8-12-19.8-30.5 0-41.5 19.8-10.9 52-10.1 71.8 1.9 19.8 12 19.8 30.6 0 41.5z"/><path id="SVGID_59_" d="m589.5 456.3-31.9-4c-.6 1.3-1.7 2.4-3.4 3.4-5.1 2.8-13.3 2.6-18.4-.5-1.6-1-2.7-2.1-3.3-3.3l-29.8 1.2-3 1.6 11.4 11.1 7.1 5.1 9.4.7 48.1.1 17.3-12z"/><path id="SVGID_67_" d="M462.2 497.7c-19.8 10.9-52 10.1-71.8-1.9-19.8-12-19.8-30.5 0-41.5 19.8-10.9 52-10.1 71.8 1.9 19.8 12 19.8 30.5 0 41.5z"/><path id="SVGID_75_" d="m470.8 482.2-31.9-4c-.6 1.3-1.7 2.4-3.4 3.4-5.1 2.8-13.3 2.6-18.4-.5-1.6-1-2.7-2.1-3.3-3.3L384 479l-3 1.6 11.4 11.1 7.1 5.1 9.4.7 48.1.1 17.3-12z"/></defs><g id="layer1" transform="translate(-65.26 -74.323)"><g id="g110239" transform="translate(-13.109 -25.796) scale(.26458)"><path d="m180.7 560 523.6-115.7c8.2-1.8 16.8.1 23.5 5.1l169.7 128.1c4 3 2.6 9.4-2.3 10.5L369.6 704.1c-7.6 1.7-15.7-.1-21.9-4.8L178.2 571.4c-4.4-3.3-2.9-10.2 2.5-11.4z" id="path106971" opacity=".3" fill="url(#SVGID_7_)"/><path id="polygon107001" d="M296.2 457.1 71.8 17.8l782.3-8.9-89.9 393.3z" opacity=".2" fill="url(#SVGID_11_)"/><g id="g108475"><g id="g111420" transform="matrix(1.10558 0 0 1 -31.272 0)"><path id="polygon106994" d="m406.4 614.5 353.5-76.1 2.9-47.4-99.1-20.1-351.1 73.7z" opacity=".4" fill="url(#SVGID_10_)"/><path class="st13" d="m683.8 518.2-1.9.4-4.4-3.4c-2-1.6-5.1-2.5-6.9-2.1l-7.5 1.6c-.9.2-2.6-.3-3.7-1.1l-17.7-13.5-14.2 3-144.3 30.7-26.1 5.6 19.7 15 8.4 6.4 7.2 5.5c.6.5 1.6.8 2.1.7l18.7-4c.3-.1.4-.2.4-.4v-2.9l-2.7.6-5-3.8 5.5-1.2 7.2 5.5c.6.5 1.6.8 2.1.7l142.4-30.3c.3-.1.4-.2.4-.4v-2.9l-2.7.6-5-3.8 4.9-1c2 1.6 5.1 2.5 6.9 2.1l15.4-3.3c.8-.2 1.2-.6 1.2-1.1v-3.2z" id="path107003"/><path class="st14" d="m659.3 510.6-17.7-13.5-14.2 3-144.3 30.7-26.1 5.6 19.7 15 8.4 6.4 7.2 5.5c.6.5 1.6.8 2.1.7l18.7-4c.5-.1.5-.6-.2-1.1l-7.2-5.5 5.5-1.2 7.2 5.5c.6.5 1.6.8 2.1.7l142.4-30.3c.5-.1.5-.6-.2-1.1l-7.2-5.5 4.9-1c2 1.6 5.1 2.5 6.9 2.1l15.4-3.3c1.8-.4 1.5-1.9-.5-3.5l-4.7-3.6c-2-1.6-5.1-2.5-6.9-2.1l-7.5 1.6c-1 .2-2.7-.3-3.8-1.1z" id="path107005"/><path class="st14" d="m659.3 510.6-17.7-13.5-14.2 3-144.3 30.7-26.1 5.6 19.7 15 8.4 6.4 7.2 5.5c.6.5 1.6.8 2.1.7l18.7-4c.5-.1.5-.6-.2-1.1l-7.2-5.5 5.5-1.2 7.2 5.5c.6.5 1.6.8 2.1.7l142.4-30.3c.5-.1.5-.6-.2-1.1l-7.2-5.5 4.9-1c2 1.6 5.1 2.5 6.9 2.1l15.4-3.3c1.8-.4 1.5-1.9-.5-3.5l-4.7-3.6c-2-1.6-5.1-2.5-6.9-2.1l-7.5 1.6c-1 .2-2.7-.3-3.8-1.1z" id="path107007"/><path class="st15" d="m481.9 555.4 17-3.6L679 513.5l-1.6-1.2c-2-1.6-5.1-2.5-6.9-2.1l-7.5 1.6c-.9.2-2.6-.3-3.7-1.1l-17.7-13.5-14.2 3-144.3 30.7-26.1 5.6 19.7 15z" id="path107009"/><g id="g107045" transform="translate(-6 -8)" fill="#e8d050"><linearGradient id="SVGID_12_" gradientUnits="userSpaceOnUse" x1="520.286" y1="549.176" x2="669.173" y2="549.176"><stop offset="0" id="stop107011" stop-color="#b3b3b3"/><stop offset=".017" id="stop107013" stop-color="#b0b0b0"/><stop offset=".347" id="stop107015" stop-color="#7b7b7b"/><stop offset=".632" id="stop107017" stop-color="#545454"/><stop offset=".86" id="stop107019" stop-color="#3c3c3c"/><stop offset="1" id="stop107021" stop-color="#333"/><stop offset="1" id="stop107023" stop-color="#182484"/></linearGradient><path d="m668.7 535-4-3.1-144.3 30.7 4 3.1c.6.5 1.6.8 2.1.7l142.4-30.3c.5-.1.4-.6-.2-1.1z" id="path107026" fill="#e8d050"/><linearGradient id="SVGID_13_" gradientUnits="userSpaceOnUse" x1="494.145" y1="567.903" x2="519.38" y2="567.903"><stop offset="0" id="stop107028" stop-color="#b3b3b3"/><stop offset=".017" id="stop107030" stop-color="#b0b0b0"/><stop offset=".347" id="stop107032" stop-color="#7b7b7b"/><stop offset=".632" id="stop107034" stop-color="#545454"/><stop offset=".86" id="stop107036" stop-color="#3c3c3c"/><stop offset="1" id="stop107038" stop-color="#333"/><stop offset="1" id="stop107040" stop-color="#182484"/></linearGradient><path d="m518.9 566.9-4-3.1-20.7 4.4 4 3.1c.6.5 1.6.8 2.1.7l18.7-4c.6-.1.5-.6-.1-1.1z" id="path107043" fill="#e8d050"/></g><path class="st15" id="polygon107130" d="m648.5 383.2 15.7-1.3 100.3 20.8-3 49.8-4.4 28-331.7 70.2-13.9-22.3-98.1-73.5-13.9 1.4z" stroke="#000"/><path id="polygon107137" d="M757.1 503.5v-23l-331.7 70.2v23z" fill="url(#SVGID_21_)"/><path id="polygon107152" d="m761.5 452.5-4.4 28-331.7 70.2-13.9-22.3z" fill="url(#SVGID_22_)"/><path id="polygon107167" d="m664.2 381.9-17.9 1.6-346.6 72.8 13.7-1.4z" fill="url(#SVGID_23_)"/><path class="st13" id="polygon107169" d="m408 525.7 352.9-76.1 2.9-47.4-98.5-20.1-351 73.7z"/><path id="polygon107176" d="m407.6 521.9 353.5-76.1 2.9-47.3-99.1-20.1-351 73.7z" fill="url(#SVGID_24_)"/><path id="polygon107191" d="M761.5 445.8v3.8L408 525.7v-3.8z" fill="url(#SVGID_25_)"/><path id="polygon107198" d="M761.5 445.8v3.8l3-47.4v-3.7z" fill="url(#SVGID_26_)"/><path class="st13" id="polygon107200" d="m408 525.7-93.7-69.9v-3.7l93.7 69.8z"/><path class="st14" id="polygon107202" d="m408.2 529.1 13.9 22.3v63.3l-125.9-94.3v-63.3l13.9-1.5z"/><path class="st31" id="polyline107204" d="m422.1 614.7 3.3-.7v-63.3l-3.3.7"/><path class="st32" id="polygon107206" d="m313.4 454.9-3.3.7 98.1 73.5 3.3-.7z"/><path class="st33" id="polygon107208" d="m411.5 528.4-3.3.7 13.9 22.3 3.3-.7z"/><path class="st32" id="polygon107210" d="m310.1 455.6-13.9 1.5 3.3-.8 13.9-1.4z"/><path id="polygon107225" d="m363.8 488.9 400.4-86.7.3-3.7-21-4.3-392.4 85.2z" fill="url(#SVGID_27_)"/><g id="g107271"><g id="g107233"><path class="st13" d="m398.6 557.3-.2-.1c-.7-.5-1.2-1.6-1.2-2.5v-17.4c0-.9.6-1.2 1.2-.8l.2.1c.7.5 1.2 1.6 1.2 2.5v17.4c.1.9-.5 1.3-1.2.8z" id="path107229"/><path class="st32" d="M399.7 556.9c-.7-.5-1.2-1.6-1.2-2.5V537c0-.2 0-.3.1-.4h-.1c-.7-.5-1.2-.1-1.2.8v17.4c0 .9.6 2 1.2 2.5l.2.1c.6.4 1 .2 1.2-.3z" id="path107231"/></g><g id="g107239"><path class="st13" d="m393.1 553.1-.2-.1c-.7-.5-1.2-1.6-1.2-2.5v-17.4c0-.9.6-1.2 1.2-.8l.2.1c.7.5 1.2 1.6 1.2 2.5v17.4c0 .9-.5 1.3-1.2.8z" id="path107235"/><path class="st32" d="M394.1 552.7c-.7-.5-1.2-1.6-1.2-2.5v-17.4c0-.2 0-.3.1-.4h-.1c-.7-.5-1.2-.1-1.2.8v17.4c0 .9.6 2 1.2 2.5l.2.1c.6.4 1 .2 1.2-.3z" id="path107237"/></g><g id="g107245"><path class="st13" d="m387.6 549-.2-.1c-.7-.5-1.2-1.6-1.2-2.5V529c0-.9.6-1.2 1.2-.8l.2.1c.7.5 1.2 1.6 1.2 2.5v17.4c0 .9-.6 1.2-1.2.8z" id="path107241"/><path class="st32" d="M388.6 548.5c-.7-.5-1.2-1.6-1.2-2.5v-17.4c0-.2 0-.3.1-.4h-.1c-.7-.5-1.2-.1-1.2.8v17.4c0 .9.6 2 1.2 2.5l.2.1c.6.4 1 .2 1.2-.3z" id="path107243"/></g><g id="g107251"><path class="st13" d="m382 544.8-.2-.1c-.7-.5-1.2-1.6-1.2-2.5v-17.4c0-.9.6-1.2 1.2-.8l.2.1c.7.5 1.2 1.6 1.2 2.5V544c.1 1-.5 1.3-1.2.8z" id="path107247"/><path class="st32" d="M383.1 544.4c-.7-.5-1.2-1.6-1.2-2.5v-17.4c0-.2 0-.3.1-.4h-.1c-.7-.5-1.2-.1-1.2.8v17.4c0 .9.6 2 1.2 2.5l.2.1c.6.4 1 .2 1.2-.3z" id="path107249"/></g><g id="g107257"><path class="st13" d="m376.5 540.7-.2-.1c-.7-.5-1.2-1.6-1.2-2.5v-17.4c0-.9.6-1.2 1.2-.8l.2.1c.7.5 1.2 1.6 1.2 2.5v17.4c0 .9-.5 1.3-1.2.8z" id="path107253"/><path class="st32" d="M377.5 540.3c-.7-.5-1.2-1.6-1.2-2.5v-17.4c0-.2 0-.3.1-.4h-.1c-.7-.5-1.2-.1-1.2.8V538c0 .9.6 2 1.2 2.5l.2.1c.6.4 1 .2 1.2-.3z" id="path107255"/></g><g id="g107263"><path class="st13" d="m371 536.5-.2-.1c-.7-.5-1.2-1.6-1.2-2.5v-17.4c0-.9.6-1.2 1.2-.8l.2.1c.7.5 1.2 1.6 1.2 2.5v17.4c0 1-.6 1.3-1.2.8z" id="path107259"/><path class="st32" d="M372 536.1c-.7-.5-1.2-1.6-1.2-2.5v-17.4c0-.2 0-.3.1-.4h-.1c-.7-.5-1.2-.1-1.2.8V534c0 .9.6 2 1.2 2.5l.2.1c.6.4 1 .2 1.2-.3z" id="path107261"/></g><g id="g107269"><path class="st13" d="m365.4 532.4-.2-.1c-.7-.5-1.2-1.6-1.2-2.5v-17.4c0-.9.6-1.2 1.2-.8l.2.1c.7.5 1.2 1.6 1.2 2.5v17.4c.1 1-.5 1.3-1.2.8z" id="path107265"/><path class="st32" d="M366.5 532c-.7-.5-1.2-1.6-1.2-2.5v-17.4c0-.2 0-.3.1-.4h-.1c-.7-.5-1.2-.1-1.2.8v17.4c0 .9.6 2 1.2 2.5l.2.1c.6.4 1 .2 1.2-.3z" id="path107267"/></g></g><g id="g107315"><g id="g107277"><path class="st13" d="m346 517.9-.2-.1c-.7-.5-1.2-1.6-1.2-2.5v-17.4c0-.9.6-1.2 1.2-.8l.2.1c.7.5 1.2 1.6 1.2 2.5v17.4c.1 1-.5 1.3-1.2.8z" id="path107273"/><path class="st32" d="M347.1 517.5c-.7-.5-1.2-1.6-1.2-2.5v-17.4c0-.2 0-.3.1-.4h-.1c-.7-.5-1.2-.1-1.2.8v17.4c0 .9.6 2 1.2 2.5l.2.1c.6.4 1 .2 1.2-.3z" id="path107275"/></g><g id="g107283"><path class="st13" d="m340.5 513.7-.2-.1c-.7-.5-1.2-1.6-1.2-2.5v-17.4c0-.9.6-1.2 1.2-.8l.2.1c.7.5 1.2 1.6 1.2 2.5V513c0 .9-.5 1.2-1.2.7z" id="path107279"/><path class="st32" d="M341.5 513.3c-.7-.5-1.2-1.6-1.2-2.5v-17.4c0-.2 0-.3.1-.4h-.1c-.7-.5-1.2-.1-1.2.8v17.4c0 .9.6 2 1.2 2.5l.2.1c.6.4 1 .2 1.2-.3z" id="path107281"/></g><g id="g107289"><path class="st13" d="m335 509.6-.2-.1c-.7-.5-1.2-1.6-1.2-2.5v-17.4c0-.9.6-1.2 1.2-.8l.2.1c.7.5 1.2 1.6 1.2 2.5v17.4c0 .9-.6 1.3-1.2.8z" id="path107285"/><path class="st32" d="M336 509.2c-.7-.5-1.2-1.6-1.2-2.5v-17.4c0-.2 0-.3.1-.4h-.1c-.7-.5-1.2-.1-1.2.8v17.4c0 .9.6 2 1.2 2.5l.2.1c.6.4 1 .2 1.2-.3z" id="path107287"/></g><g id="g107295"><path class="st13" d="m329.4 505.4-.2-.1c-.7-.5-1.2-1.6-1.2-2.5v-17.4c0-.9.6-1.2 1.2-.8l.2.1c.7.5 1.2 1.6 1.2 2.5v17.4c.1 1-.5 1.3-1.2.8z" id="path107291"/><path class="st32" d="M330.5 505c-.7-.5-1.2-1.6-1.2-2.5v-17.4c0-.2 0-.3.1-.4h-.1c-.7-.5-1.2-.1-1.2.8v17.4c0 .9.6 2 1.2 2.5l.2.1c.6.4 1 .2 1.2-.3z" id="path107293"/></g><g id="g107301"><path class="st13" d="m323.9 501.3-.2-.1c-.7-.5-1.2-1.6-1.2-2.5v-17.4c0-.9.6-1.2 1.2-.8l.2.1c.7.5 1.2 1.6 1.2 2.5v17.4c0 1-.5 1.3-1.2.8z" id="path107297"/><path class="st32" d="M324.9 500.9c-.7-.5-1.2-1.6-1.2-2.5V481c0-.2 0-.3.1-.4h-.1c-.7-.5-1.2-.1-1.2.8v17.4c0 .9.6 2 1.2 2.5l.2.1c.6.4 1 .2 1.2-.3z" id="path107299"/></g><g id="g107307"><path class="st13" d="m318.3 497.2-.2-.1c-.7-.5-1.2-1.6-1.2-2.5v-17.4c0-.9.6-1.2 1.2-.8l.2.1c.7.5 1.2 1.6 1.2 2.5v17.4c.1.9-.5 1.3-1.2.8z" id="path107303"/><path class="st32" d="M319.4 496.8c-.7-.5-1.2-1.6-1.2-2.5v-17.4c0-.2 0-.3.1-.4h-.1c-.7-.5-1.2-.1-1.2.8v17.4c0 .9.6 2 1.2 2.5l.2.1c.6.4 1 .2 1.2-.3z" id="path107305"/></g><g id="g107313"><path class="st13" d="m312.8 493.1-.2-.1c-.7-.5-1.2-1.6-1.2-2.5V473c0-.9.6-1.2 1.2-.8l.2.1c.7.5 1.2 1.6 1.2 2.5v17.4c0 1-.5 1.3-1.2.9z" id="path107309"/><path class="st32" d="M313.9 492.6c-.7-.5-1.2-1.6-1.2-2.5v-17.4c0-.2 0-.3.1-.4h-.1c-.7-.5-1.2-.1-1.2.8v17.4c0 .9.6 2 1.2 2.5l.2.1c.6.4 1 .2 1.2-.3z" id="path107311"/></g></g><g id="g107358"><g id="g107328"><linearGradient id="SVGID_28_" gradientUnits="userSpaceOnUse" x1="352.487" y1="546.589" x2="364.03" y2="546.589"><stop offset="0" id="stop107317" stop-color="#666"/><stop offset="1" id="stop107319" stop-color="#1a1a1a"/></linearGradient><path d="M362.5 542.7c-.5-.3-.9-.4-1.3-.3l-8.7 1.9 1.3 6.5 8.7-1.9h.2c.6-.2 1.1-.8 1.4-1.7.2-1.7-.5-3.7-1.6-4.5z" id="path107322" fill="url(#SVGID_28_)"/><path class="st32" d="M355.1 549.1c-.4 1.6-1.6 2.3-2.7 1.4-1.1-.8-1.8-2.8-1.4-4.4.4-1.6 1.6-2.3 2.7-1.4 1.1.8 1.7 2.8 1.4 4.4z" id="path107324" fill="#eeeeec"/><path class="st13" d="M353.4 550.2c-.2 0-.4-.1-.6-.2-.9-.7-1.4-2.3-1.2-3.7.2-.8.6-1.2 1-1.2.2 0 .4.1.6.2.9.7 1.4 2.3 1.2 3.7-.2.7-.6 1.2-1 1.2z" id="path107326"/></g><g id="g107343"><linearGradient id="SVGID_29_" gradientUnits="userSpaceOnUse" x1="358.841" y1="559.239" x2="391.873" y2="559.239"><stop offset="0" id="stop107330" stop-color="#666"/><stop offset="1" id="stop107332" stop-color="#1a1a1a"/></linearGradient><path d="m390.4 562.5-21.1-15.8c-.3-.2-.6-.3-.8-.3l-9.6 2.1 1.9 6.3 3.9-.8c.2.3.5.6.7.8l14.5 10.9h-.2l1.9 6.3 9.6-2.1c.3-.1.6-.5.6-1.1v-3.2c.1-1.1-.6-2.5-1.4-3.1z" id="path107335" fill="url(#SVGID_29_)"/><g id="g107341"><path class="st32" d="m380.8 571.8-21-15.8c-.8-.6-1.5-2-1.5-3.1v-3.2c0-1.1.7-1.5 1.5-.9l21.1 15.8c.8.6 1.5 2 1.5 3.1v3.2c-.1 1.1-.7 1.5-1.6.9z" id="path107337" fill="#eeeeec"/><path class="st13" d="m377.3 567.9-13.9-10.4c-.5-.4-1-1.3-1-2.1v-2.1c0-.7.4-1 1-.6l13.9 10.4c.5.4 1 1.3 1 2.1v2.1c-.1.7-.5 1-1 .6z" id="path107339"/></g></g><g id="g107356"><linearGradient id="SVGID_30_" gradientUnits="userSpaceOnUse" x1="387.798" y1="573.176" x2="399.34" y2="573.176"><stop offset="0" id="stop107345" stop-color="#666"/><stop offset="1" id="stop107347" stop-color="#1a1a1a"/></linearGradient><path d="M397.8 569.3c-.5-.3-.9-.4-1.3-.3l-8.7 1.9 1.3 6.5 8.7-1.9h.2c.6-.2 1.1-.8 1.4-1.7.2-1.7-.4-3.7-1.6-4.5z" id="path107350" fill="url(#SVGID_30_)"/><path class="st32" d="M390.4 575.7c-.4 1.6-1.6 2.3-2.7 1.4-1.1-.8-1.8-2.8-1.4-4.4.4-1.6 1.6-2.3 2.7-1.4 1.1.9 1.7 2.7 1.4 4.4z" id="path107352" fill="#eeeeec"/><path class="st13" d="M388.7 576.8c-.2 0-.4-.1-.6-.2-.9-.7-1.4-2.3-1.2-3.7.2-.8.6-1.2 1-1.2.2 0 .4.1.6.2.9.7 1.4 2.3 1.2 3.7-.2.7-.6 1.2-1 1.2z" id="path107354"/></g></g><g id="g107401"><g id="g107371"><linearGradient id="SVGID_31_" gradientUnits="userSpaceOnUse" x1="300.876" y1="509.61" x2="312.418" y2="509.61"><stop offset="0" id="stop107360" stop-color="#666"/><stop offset="1" id="stop107362" stop-color="#1a1a1a"/></linearGradient><path d="M310.9 505.8c-.5-.3-.9-.4-1.3-.3l-8.7 1.9 1.3 6.5 8.7-1.9h.2c.6-.2 1.1-.8 1.4-1.7.2-1.8-.5-3.7-1.6-4.5z" id="path107365" fill="url(#SVGID_31_)"/><path class="st32" d="M303.5 512.1c-.4 1.6-1.6 2.3-2.7 1.4-1.1-.8-1.8-2.8-1.4-4.4.4-1.6 1.6-2.3 2.7-1.4 1.1.8 1.7 2.8 1.4 4.4z" id="path107367" fill="#eeeeec"/><path class="st13" d="M301.8 513.2c-.2 0-.4-.1-.6-.2-.9-.7-1.4-2.3-1.2-3.7.2-.8.6-1.2 1-1.2.2 0 .4.1.6.2.9.7 1.4 2.3 1.2 3.7-.2.7-.6 1.2-1 1.2z" id="path107369"/></g><g id="g107386"><linearGradient id="SVGID_32_" gradientUnits="userSpaceOnUse" x1="307.23" y1="522.26" x2="340.262" y2="522.26"><stop offset="0" id="stop107373" stop-color="#666"/><stop offset="1" id="stop107375" stop-color="#1a1a1a"/></linearGradient><path d="m338.8 525.5-21.1-15.8c-.3-.2-.6-.3-.8-.3l-9.6 2.1 1.9 6.3 3.9-.8c.2.3.5.6.7.8l14.5 10.9h-.2l1.9 6.3 9.6-2.1c.3-.1.6-.5.6-1.1v-3.2c.1-1.1-.6-2.5-1.4-3.1z" id="path107378" fill="url(#SVGID_32_)"/><g id="g107384"><path class="st32" d="M329.2 534.8 308.1 519c-.8-.6-1.5-2-1.5-3.1v-3.2c0-1.1.7-1.5 1.5-.9l21.1 15.8c.8.6 1.5 2 1.5 3.1v3.2c0 1.1-.7 1.5-1.5.9z" id="path107380" fill="#eeeeec"/><path class="st13" d="m325.6 530.9-13.9-10.4c-.5-.4-1-1.3-1-2.1v-2.1c0-.7.4-1 1-.6l13.9 10.4c.5.4 1 1.3 1 2.1v2.1c0 .8-.4 1-1 .6z" id="path107382"/></g></g><g id="g107399"><linearGradient id="SVGID_33_" gradientUnits="userSpaceOnUse" x1="336.186" y1="536.197" x2="347.729" y2="536.197"><stop offset="0" id="stop107388" stop-color="#666"/><stop offset="1" id="stop107390" stop-color="#1a1a1a"/></linearGradient><path d="M346.2 532.3c-.5-.3-.9-.4-1.3-.3l-8.7 1.9 1.3 6.5 8.7-1.9h.2c.6-.2 1.1-.8 1.4-1.7.2-1.7-.5-3.6-1.6-4.5z" id="path107393" fill="url(#SVGID_33_)"/><path class="st32" d="M338.8 538.7c-.4 1.6-1.6 2.3-2.7 1.4-1.1-.9-1.8-2.8-1.4-4.4.4-1.6 1.6-2.3 2.7-1.4 1.1.9 1.7 2.8 1.4 4.4z" id="path107395" fill="#eeeeec"/><path class="st13" d="M337.1 539.8c-.2 0-.4-.1-.6-.2-.9-.7-1.4-2.3-1.2-3.7.2-.8.6-1.2 1-1.2.2 0 .4.1.6.2.9.7 1.4 2.3 1.2 3.7-.2.7-.6 1.2-1 1.2z" id="path107397"/></g></g><g id="g107763"><g id="g107754"><path class="st41" d="M663.7 457.4c-14.1-.4-28.3-3.8-39.1-10.3-10.7-6.5-16.5-14.9-16.4-23.7.1-8.6 6-16.5 16.4-22.2 21.5-11.9 56.6-11 78.1 2 10.3 6.2 16.2 14.4 16.4 22.9.2 8.9-5.6 17.1-16.4 23-10.7 6-24.9 8.7-39 8.3zm0-63.1c-13.9-.4-27.8 2.3-38.3 8.2-10 5.5-15.5 13-15.7 21-.1 8.3 5.4 16.2 15.7 22.4 21.1 12.8 55.5 13.6 76.7 2 10.3-5.7 15.9-13.4 15.7-21.8-.2-8-5.8-15.7-15.7-21.7-10.6-6.4-24.5-9.8-38.4-10.1z" id="path107409"/><g id="g107750"><g id="g107744"><linearGradient id="SVGID_34_" gradientUnits="userSpaceOnUse" x1="609.192" y1="296.026" x2="718.2" y2="296.026" gradientTransform="matrix(1 .0258 0 1 0 93.61)"><stop offset="0" id="stop107411" stop-color="#4d4d4d"/><stop offset="1" id="stop107413" stop-color="#1a1a1a"/></linearGradient><path d="M715.1 416v-6.1L707 400l-9.4-5.5-14.1-5.8-13.8-2.2-16.5-.4-15.7 2.9-10.5 4.1-8.6 5.9-7.2 11.5v4.9c-1.4 2.9-2 5.9-1.9 8.9 1.2 0 2.5.1 3.7.1-.1-2.4.3-4.7 1.2-7l33.8-20.6c1-.2 1.9-.3 2.9-.4l23.4 3.3 21.5 6.8 16.3 10.7c2 3.7 2.8 7.5 2.4 11.2 1.4 0 2.5.1 3.8.1.3-4.1-.7-8.4-3.2-12.5z" id="path107416" fill="url(#SVGID_34_)"/><g id="g107526"><clipPath id="SVGID_36_"><use xlink:href="#SVGID_35_" id="use107421" x="0" y="0" width="100%" height="100%" overflow="visible"/></clipPath><g clip-path="url(#SVGID_36_)" id="g107524"><path class="st44" id="polygon107424" d="m657.2 374.2 1.9-1 85.7 51.6-1.9 1.1z"/><path class="st45" id="polygon107426" d="m655.8 375 1.4-.8 85.7 51.7-1.4.8z"/><path class="st44" id="polygon107428" d="m653.9 376.1 1.9-1.1 85.7 51.7-2 1z"/><path class="st45" id="polygon107430" d="m652.4 376.8 1.5-.7 85.6 51.6-1.4.8z"/><path class="st46" id="polygon107432" d="m650.5 377.9 1.9-1.1 85.7 51.7-1.9 1.1z"/><path class="st47" id="polygon107434" d="m649.1 378.7 1.4-.8 85.7 51.7-1.4.8z"/><path class="st46" id="polygon107436" d="m647.2 379.8 1.9-1.1 85.7 51.7-1.9 1z"/><path class="st47" id="polygon107438" d="m645.7 380.5 1.5-.7 85.7 51.6-1.5.8z"/><path class="st46" id="polygon107440" d="m643.8 381.6 1.9-1.1 85.7 51.7-1.9 1.1z"/><path class="st47" id="polygon107442" d="m642.4 382.4 1.4-.8 85.7 51.7-1.4.8z"/><path class="st46" id="polygon107444" d="m640.5 383.4 1.9-1 85.7 51.7-1.9 1z"/><path class="st47" id="polygon107446" d="m639.1 384.2 1.4-.8 85.7 51.7-1.5.8z"/><path class="st46" id="polygon107448" d="m637.1 385.3 2-1.1 85.6 51.7-1.9 1.1z"/><path class="st47" id="polygon107450" d="m635.7 386.1 1.4-.8 85.7 51.7-1.4.8z"/><path class="st46" id="polygon107452" d="m633.8 387.1 1.9-1 85.7 51.7-1.9 1z"/><path class="st47" id="polygon107454" d="m632.4 387.9 1.4-.8 85.7 51.7-1.5.8z"/><path class="st46" id="polygon107456" d="m630.4 389 2-1.1 85.6 51.7-1.9 1.1z"/><path class="st47" id="polygon107458" d="m629 389.8 1.4-.8 85.7 51.7-1.4.7z"/><path class="st46" id="polygon107460" d="m627.1 390.8 1.9-1 85.7 51.6-1.9 1.1z"/><path class="st47" id="polygon107462" d="m625.7 391.6 1.4-.8 85.7 51.7-1.4.8z"/><path class="st33" id="polygon107464" d="m623.8 392.7 1.9-1.1 85.7 51.7-2 1z"/><path class="st47" id="polygon107466" d="m622.3 393.4 1.5-.7 85.6 51.6-1.4.8z"/><path class="st46" id="polygon107468" d="m620.4 394.5 1.9-1.1 85.7 51.7-1.9 1.1z"/><path class="st47" id="polygon107470" d="m619 395.3 1.4-.8 85.7 51.7-1.4.8z"/><path class="st46" id="polygon107472" d="m617.1 396.4 1.9-1.1 85.7 51.7-2 1z"/><path class="st14" id="polygon107474" d="m615.6 397.1 1.5-.7 85.6 51.6-1.4.8z"/><path class="st44" id="polygon107476" d="m613.7 398.2 1.9-1.1 85.7 51.7-1.9 1.1z"/><path class="st45" id="polygon107478" d="m612.3 399 1.4-.8 85.7 51.7-1.4.8z"/><path class="st44" id="polygon107480" d="m610.4 400 1.9-1 85.7 51.7-1.9 1z"/><path class="st45" id="polygon107482" d="m609 400.8 1.4-.8 85.7 51.7-1.5.8z"/><path class="st46" id="polygon107484" d="m607 401.9 2-1.1 85.6 51.7-1.9 1.1z"/><path class="st14" id="polygon107486" d="m605.6 402.7 1.4-.8 85.7 51.7-1.4.8z"/><path class="st46" id="polygon107488" d="m603.7 403.7 1.9-1 85.7 51.7-1.9 1z"/><path class="st14" id="polygon107490" d="m602.3 404.5 1.4-.8 85.7 51.7-1.5.8z"/><path class="st46" id="polygon107492" d="m600.3 405.6 2-1.1 85.6 51.7-1.9 1.1z"/><path class="st45" id="polygon107494" d="m598.9 406.4 1.4-.8 85.7 51.7-1.4.7z"/><path class="st44" id="polygon107496" d="m597 407.4 1.9-1 85.7 51.6-1.9 1.1z"/><path class="st45" id="polygon107498" d="m595.6 408.2 1.4-.8 85.7 51.7-1.4.8z"/><path class="st44" id="polygon107500" d="m593.7 409.3 1.9-1.1 85.7 51.7-2 1z"/><path class="st45" id="polygon107502" d="m592.2 410.1 1.5-.8 85.6 51.6-1.4.8z"/><path class="st44" id="polygon107504" d="m590.3 411.1 1.9-1 85.7 51.6-1.9 1.1z"/><path class="st45" id="polygon107506" d="m588.9 411.9 1.4-.8 85.7 51.7-1.4.8z"/><path class="st44" id="polygon107508" d="m587 413 1.9-1.1 85.7 51.7-2 1z"/><path class="st45" id="polygon107510" d="m585.5 413.7 1.5-.7 85.6 51.6-1.4.8z"/><path class="st44" id="polygon107512" d="m583.6 414.8 1.9-1.1 85.7 51.7-1.9 1.1z"/><path class="st45" id="polygon107514" d="m582.2 415.6 1.4-.8 85.7 51.7-1.4.8z"/><path class="st44" id="polygon107516" d="m580.3 416.6 1.9-1 85.7 51.7-1.9 1z"/><path class="st45" id="polygon107518" d="m578.8 417.4 1.5-.8 85.7 51.7-1.5.8z"/><path class="st44" id="polygon107520" d="m576.9 418.5 1.9-1.1 85.7 51.7-1.9 1.1z"/><path class="st45" id="polygon107522" d="m575.5 419.3 1.4-.8 85.7 51.7-1.4.8z"/></g></g><path class="st48" d="M699.6 446.7c-19.8 10.9-52 10.1-71.8-1.9-19.8-12-19.8-30.5 0-41.5 19.8-10.9 52-10.1 71.8 1.9 19.8 12 19.8 30.6 0 41.5z" id="path107528"/><path class="st31" d="M702.2 395.3c-21.3-12.8-55.8-13.7-77.1-2-10.5 5.8-15.8 13.6-16 21.6 1.4 0 2.4.1 3.7.1.1-7.4 5.1-14.7 14.9-20.1 19.8-10.9 52-10.1 71.8 1.9 9.7 5.9 14.7 13.3 14.9 20.7 1.2-.6 2.5 0 3.7.3 0-8.1-5.3-16.2-15.9-22.5z" id="path107530"/><path class="st49" d="m711.8 435.7-34.9-4.3c.3-.6.4-1.2.4-1.9v-.5l35-3.6c.7-1.2.9-2.3.8-3.2.3-2.5-1.5-4.2-4.9-3.6l-30.9 8c0-.8-.2-1.5-.6-2.2l28.7-14.8a37.6 37.6 0 0 0-5.8-4.2c-1.8-1.1-3.7-2-5.6-2.9-2.2.3-4.4 1.2-6.2 3L673.2 421c-.9-.5-1.8-.9-2.8-1.2l13.1-21.2c-5.5-1.5-11.2-2.4-17-2.7-3 1.2-5.8 3-8 5.4v1.5l4 16c-.5 0-1 .1-1.5.2l-5-23c-5.9.4-11.7 1.3-17.1 3-2.1 1.5-3.9 3.2-5.3 4.9l-2.4-2.1c-1.2.5-2.3 1.1-3.4 1.7-1.9 1.1-3.6 2.2-5.2 3.4-1.7 2.8-3.2 6-4.3 8.9l-2-.6c-.5 2.3-1.1 5.9-1 10 0 3.4.4 7.1 1.7 10.5 1.3 1.8 2.9 3.5 4.8 5.2l2.7-.7c1.1 1.9 2.6 3.8 4.2 5.5 4.4 2.5 9.3 4.5 14.6 5.9l2.8-3c1.7 1.9 4 3.5 6.6 4.9 5.5.8 11.2 1.2 16.9.9l-4.4-17.7c1 0 2-.1 2.9-.2l4 8.6c1.1 2.4 2.9 4.4 5.2 5.6 1.8.9 3.6 1.6 5.5 2.1 4.3-.9 8.4-2.2 12.2-3.8l-22.4-13.8c.3-.1.7-.3 1-.4.8-.4 1.5-.9 2-1.5l24.2 7.1c3.2.9 5.9 1 8 .5 1.6-1.7 2.9-3.4 4-5.2z" id="path107532"/><g id="g107742"><path class="st50" d="m662.1 424.7-7.6-35.2c-8.8.8-21.5 8.6-23.8 15.9z" id="path107534"/><path class="st50" d="m660.5 425.6-32.2-28.4c-6.1 3.6-12.1 17.1-12.1 22.9z" id="path107536"/><path class="st50" d="M660.2 426.4 615.7 412c-1.1 5.1-2.8 17.4 4.2 24.8z" id="path107538"/><path class="st50" d="m661.2 427.6-39.8 1.6c.6 7.2 10.9 18.1 18.9 20.9z" id="path107540"/><path class="st50" d="m663.1 428-19.9 13.3c4.2 7.5 17.3 13 26.4 12.6z" id="path107542"/><linearGradient id="SVGID_37_" gradientUnits="userSpaceOnUse" x1="659.573" y1="294.102" x2="636.517" y2="302.853" gradientTransform="matrix(1 .0258 0 1 0 93.61)"><stop offset="0" id="stop107544" stop-color="#ccc"/><stop offset=".011" id="stop107546" stop-color="#cacaca"/><stop offset=".343" id="stop107548" stop-color="#959595"/><stop offset=".63" id="stop107550" stop-color="#6e6e6e"/><stop offset=".859" id="stop107552" stop-color="#565656"/><stop offset="1" id="stop107554" stop-color="#4d4d4d"/></linearGradient><path d="m662.1 423.2-7.6-35.2c-8.8.8-21.5 8.6-23.8 15.9z" id="path107557" fill="url(#SVGID_37_)"/><linearGradient id="SVGID_38_" gradientUnits="userSpaceOnUse" x1="644.692" y1="298.891" x2="629.696" y2="315.887" gradientTransform="matrix(1 .0258 0 1 0 93.61)"><stop offset="0" id="stop107559" stop-color="#ccc"/><stop offset=".011" id="stop107561" stop-color="#cacaca"/><stop offset=".343" id="stop107563" stop-color="#959595"/><stop offset=".63" id="stop107565" stop-color="#6e6e6e"/><stop offset=".859" id="stop107567" stop-color="#565656"/><stop offset="1" id="stop107569" stop-color="#4d4d4d"/></linearGradient><path d="m660.5 424.1-32.2-28.4c-6.1 3.6-12.1 17.1-12.1 22.9z" id="path107572" fill="url(#SVGID_38_)"/><linearGradient id="SVGID_39_" gradientUnits="userSpaceOnUse" x1="639.561" y1="303.219" x2="630.053" y2="331.276" gradientTransform="matrix(1 .0258 0 1 0 93.61)"><stop offset="0" id="stop107574" stop-color="#ccc"/><stop offset=".01" id="stop107576" stop-color="#cacaca"/><stop offset=".304" id="stop107578" stop-color="#959595"/><stop offset=".559" id="stop107580" stop-color="#6e6e6e"/><stop offset=".762" id="stop107582" stop-color="#565656"/><stop offset=".887" id="stop107584" stop-color="#4d4d4d"/></linearGradient><path d="m660.2 425.3-44.5-14.4c-1.1 5.1-2.8 17.4 4.2 24.8z" id="path107587" fill="url(#SVGID_39_)"/><g id="g107610"><path class="st50" d="m664.3 424.6 19.9-32.2c-8.1-2.4-19.7-.9-26.4 6.4z" id="path107589"/><path id="polygon107591" d="M684.2 390.8 664.3 423v1.6l19.9-32.3z"/><path id="polygon107593" d="M657.8 397.2v1.5l6.5 25.9V423l-5.5-23.9z"/><linearGradient id="SVGID_40_" gradientUnits="userSpaceOnUse" x1="675.531" y1="296.758" x2="653.373" y2="282.837" gradientTransform="matrix(1 .0258 0 1 0 93.61)"><stop offset="0" id="stop107595" stop-color="#e6e6e6"/><stop offset=".137" id="stop107597" stop-color="#cacaca"/><stop offset=".426" id="stop107599" stop-color="#959595"/><stop offset=".677" id="stop107601" stop-color="#6e6e6e"/><stop offset=".877" id="stop107603" stop-color="#565656"/><stop offset="1" id="stop107605" stop-color="#4d4d4d"/></linearGradient><path d="m664.3 423 19.9-32.2c-8.1-2.4-19.7-.9-26.4 6.4z" id="path107608" fill="url(#SVGID_40_)"/></g><g id="g107631"><path class="st50" d="m666.2 425.2 39.8-20.5c-4.4-4.6-13.2-7.5-18.9-1.9z" id="path107612"/><path id="polygon107614" d="M706 404.7v-1.5l-14.9 3.7-24.9 16.8v1.5z"/><linearGradient id="SVGID_41_" gradientUnits="userSpaceOnUse" x1="687.062" y1="303.598" x2="673.582" y2="282.184" gradientTransform="matrix(1 .0258 0 1 0 93.61)"><stop offset="0" id="stop107616" stop-color="#e6e6e6"/><stop offset=".137" id="stop107618" stop-color="#cacaca"/><stop offset=".426" id="stop107620" stop-color="#959595"/><stop offset=".677" id="stop107622" stop-color="#6e6e6e"/><stop offset=".877" id="stop107624" stop-color="#565656"/><stop offset="1" id="stop107626" stop-color="#4d4d4d"/></linearGradient><path d="m666.2 423.7 39.8-20.5c-4.4-4.6-13.2-7.5-18.9-1.9z" id="path107629" fill="url(#SVGID_41_)"/></g><g id="g107635"><path d="m667.2 425.8 44.5-4.6c2-3.5.2-6.6-4.2-5.9z" id="path107633"/></g><g id="g107652"><linearGradient id="SVGID_42_" gradientUnits="userSpaceOnUse" x1="690.521" y1="312.056" x2="687.239" y2="299.044" gradientTransform="matrix(1 .0258 0 1 0 93.61)"><stop offset="0" id="stop107637" stop-color="#e6e6e6"/><stop offset=".137" id="stop107639" stop-color="#cacaca"/><stop offset=".426" id="stop107641" stop-color="#959595"/><stop offset=".677" id="stop107643" stop-color="#6e6e6e"/><stop offset=".877" id="stop107645" stop-color="#565656"/><stop offset="1" id="stop107647" stop-color="#4d4d4d"/></linearGradient><path d="m667.2 424.8 44.5-4.6c2-3.5.2-6.6-4.2-5.9z" id="path107650" fill="url(#SVGID_42_)"/></g><path class="st14" d="M675.7 422.5c-.6-.9-1.6-1.7-2.8-2.5-5.1-3.1-13.3-3.3-18.4-.5-1.2.7-2.1 1.5-2.8 2.3h-1v6.4c0 1.9 1.3 3.9 3.8 5.4 5.1 3.1 13.3 3.3 18.4.5 2.5-1.4 3.8-3.3 3.8-5.2v-6.4z" id="path107654"/><g id="g107732"><clipPath id="SVGID_44_"><use xlink:href="#SVGID_43_" id="use107659" x="0" y="0" width="100%" height="100%" overflow="visible"/></clipPath><g clip-path="url(#SVGID_44_)" id="g107730"><path class="st58" d="M667.8 433.3v2.5s.7-.1 1.1-.2c.4-.1.5-2.6.5-2.6z" id="path107662"/><path d="m665.3 427.8 6.1 13.1c1.1 2.4 2.9 4.4 5.2 5.6 6.7 3.5 14.5 3.5 20.1.6z" id="path107664"/><linearGradient id="SVGID_45_" gradientUnits="userSpaceOnUse" x1="641.267" y1="317.04" x2="643.385" y2="340.314" gradientTransform="matrix(1 .0258 0 1 0 93.61)"><stop offset="0" id="stop107666" stop-color="#e6e6e6"/><stop offset=".137" id="stop107668" stop-color="#cacaca"/><stop offset=".426" id="stop107670" stop-color="#959595"/><stop offset=".677" id="stop107672" stop-color="#6e6e6e"/><stop offset=".877" id="stop107674" stop-color="#565656"/><stop offset="1" id="stop107676" stop-color="#4d4d4d"/></linearGradient><path d="m661.2 426.5-39.8 1.6c.6 7.2 10.9 18.1 18.9 20.9z" id="path107679" fill="url(#SVGID_45_)"/><linearGradient id="SVGID_46_" gradientUnits="userSpaceOnUse" x1="648.099" y1="324.221" x2="672.227" y2="332.31" gradientTransform="matrix(1 .0258 0 1 0 93.61)"><stop offset="0" id="stop107681" stop-color="#e6e6e6"/><stop offset=".137" id="stop107683" stop-color="#cacaca"/><stop offset=".426" id="stop107685" stop-color="#959595"/><stop offset=".677" id="stop107687" stop-color="#6e6e6e"/><stop offset=".877" id="stop107689" stop-color="#565656"/><stop offset="1" id="stop107691" stop-color="#4d4d4d"/></linearGradient><path d="m663.1 427.1-19.9 13.3c4.2 7.5 17.3 13 26.4 12.6z" id="path107694" fill="url(#SVGID_46_)"/><linearGradient id="SVGID_47_" gradientUnits="userSpaceOnUse" x1="670.354" y1="331.093" x2="697.848" y2="316.612" gradientTransform="matrix(1 .0258 0 1 0 93.61)"><stop offset="0" id="stop107696" stop-color="#e6e6e6"/><stop offset=".137" id="stop107698" stop-color="#cacaca"/><stop offset=".426" id="stop107700" stop-color="#959595"/><stop offset=".677" id="stop107702" stop-color="#6e6e6e"/><stop offset=".877" id="stop107704" stop-color="#565656"/><stop offset="1" id="stop107706" stop-color="#4d4d4d"/></linearGradient><path d="m665.3 427 5.8 12.4c1.4 3 3.8 5.6 6.9 7 6.3 2.9 13.5 2.7 18.7 0z" id="path107709" fill="url(#SVGID_47_)"/><path class="st58" d="M675.4 429.3v2.8s.6-.6.9-1.5c.4-.9.3-1.2.3-1.2z" id="path107711"/><path d="m666.9 426.8 32.2 9.5c6.9 2 11.6.2 12.1-3.9z" id="path107713"/><linearGradient id="SVGID_48_" gradientUnits="userSpaceOnUse" x1="687.007" y1="324.52" x2="690.998" y2="310.983" gradientTransform="matrix(1 .0258 0 1 0 93.61)"><stop offset="0" id="stop107715" stop-color="#e6e6e6"/><stop offset=".137" id="stop107717" stop-color="#cacaca"/><stop offset=".426" id="stop107719" stop-color="#959595"/><stop offset=".677" id="stop107721" stop-color="#6e6e6e"/><stop offset=".877" id="stop107723" stop-color="#565656"/><stop offset="1" id="stop107725" stop-color="#4d4d4d"/></linearGradient><path d="m666.9 426.1 32.2 9.5c6.9 2 11.6.2 12.1-3.9z" id="path107728" fill="url(#SVGID_48_)"/></g></g><path class="st13" d="M672.9 427.7c-5.1 2.8-13.3 2.6-18.4-.5-5.1-3.1-5.1-7.8 0-10.6s13.3-2.6 18.4.5c5.1 3 5.1 7.8 0 10.6z" id="path107734"/><path class="st14" d="M672.2 426.8c-4.7 2.6-12.4 2.4-17.1-.4-4.7-2.8-4.7-7.3 0-9.9 4.7-2.6 12.4-2.4 17.1.4 4.7 2.8 4.7 7.3 0 9.9z" id="path107736"/><path class="st47" d="M667.4 423.9c-2.1 1.1-5.4 1-7.4-.2-2.1-1.2-2.1-3.2 0-4.3 2.1-1.1 5.4-1 7.4.2 2.1 1.2 2.1 3.1 0 4.3z" id="path107738"/><path class="st13" d="M660 419.9c2.1-1.1 5.4-1 7.4.2.9.5 1.4 1.2 1.5 1.9.1-.9-.4-1.8-1.5-2.5-2.1-1.2-5.4-1.3-7.4-.2-1.1.6-1.6 1.5-1.5 2.4.1-.6.6-1.3 1.5-1.8z" id="path107740"/></g></g><path class="st14" d="m718.2 417.7-3.5 7.5-5.7 7.7-5.6 5-12.5 5.5-17.2 3.5-13.2.1-15.3-2.4-13.8-4.5-9.4-5.8-8.9-8.9c0-.3-.1-.6-.1-.9h-.3l-3.4-9.3v9.8l.1.1c.6 7.6 5.8 15.3 15.9 21.3 21.3 12.8 55.8 13.7 77.1 2 9.7-5.4 15-12.4 15.8-19.8-.2 0 .2 0 0 0l.1-2c0-.8.1-1.7.1-2.5z" id="path107746"/><path class="st31" d="M714.5 417.4c.2 7.6-4.8 15.2-14.9 20.8-19.8 10.9-52 10.1-71.8-1.9-10-6.1-15-13.8-14.9-21.4-1.3 0-2.4-.1-3.7-.1-.1 8.1 5.2 16.5 16 23 21.3 12.8 55.8 13.7 77.1 2 10.8-5.9 16.1-14 16-22.1-1.3-.3-2.6-.9-3.8-.3z" id="path107748"/></g><path d="M663.7 446.2c-13.1-.3-26.1-3.5-36.1-9.5-9.8-5.9-15.2-13.6-15-21.7.1-7.9 5.5-15.1 15-20.4 19.9-11 52.3-10.1 72.2 1.9 9.5 5.7 14.8 13.2 15 21 .2 8.1-5.1 15.6-15 21.1-10 5.4-23 7.9-36.1 7.6zm0-58.6c-12.9-.3-25.9 2.2-35.7 7.6-9.3 5.2-14.6 12.2-14.7 19.8-.1 7.8 5.1 15.3 14.7 21.1 19.7 11.9 51.8 12.7 71.5 1.8 9.7-5.3 14.9-12.6 14.7-20.5-.2-7.6-5.4-14.8-14.7-20.4-9.9-5.9-22.9-9.1-35.8-9.4z" id="path107752"/></g><linearGradient id="SVGID_49_" gradientUnits="userSpaceOnUse" x1="663.69" y1="27.404" x2="663.69" y2="335.119" gradientTransform="matrix(1 .0258 0 1 0 93.61)"><stop offset="0" id="stop107756" stop-color="#fff" stop-opacity="0"/><stop offset="1" id="stop107758" stop-color="#fff"/></linearGradient></g><g id="g108119"><g id="g108110"><path class="st41" d="M545 482.5c-14.1-.4-28.3-3.8-39.1-10.3-10.7-6.5-16.5-14.9-16.4-23.7.1-8.6 6-16.5 16.4-22.2 21.5-11.9 56.6-11 78.1 2 10.3 6.2 16.2 14.4 16.4 22.9.2 8.9-5.6 17.1-16.4 23-10.7 5.9-24.9 8.7-39 8.3zm0-63.2c-13.9-.4-27.8 2.3-38.3 8.2-10 5.5-15.5 13-15.7 21-.1 8.3 5.4 16.2 15.7 22.4 21.1 12.8 55.5 13.6 76.7 2 10.3-5.7 15.9-13.4 15.7-21.8-.2-8-5.8-15.7-15.7-21.7-10.6-6.3-24.5-9.7-38.4-10.1z" id="path107765"/><g id="g108106"><g id="g108100"><linearGradient id="SVGID_50_" gradientUnits="userSpaceOnUse" x1="490.496" y1="324.153" x2="599.503" y2="324.153" gradientTransform="matrix(1 .0258 0 1 0 93.61)"><stop offset="0" id="stop107767" stop-color="#4d4d4d"/><stop offset="1" id="stop107769" stop-color="#1a1a1a"/></linearGradient><path d="M596.4 441.1V435l-8.2-9.9-9.4-5.5-14.1-5.8-13.8-2.2-16.5-.4-15.7 2.9-10.5 4.1-8.6 5.9-7.2 11.5v4.9c-1.4 2.9-2 5.9-1.9 8.9 1.2 0 2.5.1 3.7.1-.1-2.4.3-4.7 1.2-7l33.8-20.6c1-.2 1.9-.3 2.9-.4l23.4 3.3 21.5 6.8 16.3 10.7c2 3.7 2.8 7.5 2.4 11.2 1.4 0 2.5.1 3.8.1.4-4.2-.6-8.5-3.1-12.5z" id="path107772" fill="url(#SVGID_50_)"/><g id="g107882"><clipPath id="SVGID_52_"><use xlink:href="#SVGID_51_" id="use107777" x="0" y="0" width="100%" height="100%" overflow="visible"/></clipPath><g clip-path="url(#SVGID_52_)" id="g107880"><path class="st44" id="polygon107780" d="m538.5 399.3 1.9-1.1 85.7 51.7-1.9 1.1z"/><path class="st45" id="polygon107782" d="m537.1 400.1 1.4-.8 85.7 51.7-1.4.7z"/><path class="st44" id="polygon107784" d="m535.2 401.1 1.9-1 85.7 51.6-2 1.1z"/><path class="st45" id="polygon107786" d="m533.7 401.9 1.5-.8 85.6 51.7-1.4.8z"/><path class="st46" id="polygon107788" d="m531.8 403 1.9-1.1 85.7 51.7-1.9 1.1z"/><path class="st47" id="polygon107790" d="m530.4 403.8 1.4-.8 85.7 51.7-1.4.7z"/><path class="st46" id="polygon107792" d="m528.5 404.8 1.9-1 85.7 51.6-1.9 1.1z"/><path class="st47" id="polygon107794" d="m527 405.6 1.5-.8 85.7 51.7-1.5.8z"/><path class="st46" id="polygon107796" d="m525.1 406.7 1.9-1.1 85.7 51.7-1.9 1z"/><path class="st47" id="polygon107798" d="m523.7 407.4 1.4-.7 85.7 51.6-1.4.8z"/><path class="st46" id="polygon107800" d="m521.8 408.5 1.9-1.1 85.7 51.7-1.9 1.1z"/><path class="st47" id="polygon107802" d="m520.4 409.3 1.4-.8 85.7 51.7-1.5.8z"/><path class="st46" id="polygon107804" d="m518.4 410.3 2-1L606 461l-1.9 1z"/><path class="st47" id="polygon107806" d="m517 411.1 1.4-.8 85.7 51.7-1.4.8z"/><path class="st46" id="polygon107808" d="m515.1 412.2 1.9-1.1 85.7 51.7-1.9 1.1z"/><path class="st47" id="polygon107810" d="m513.7 413 1.4-.8 85.7 51.7-1.4.8z"/><path class="st46" id="polygon107812" d="m511.7 414 2-1 85.7 51.7-2 1z"/><path class="st47" id="polygon107814" d="m510.3 414.8 1.4-.8 85.7 51.7-1.4.8z"/><path class="st46" id="polygon107816" d="m508.4 415.9 1.9-1.1 85.7 51.7-1.9 1.1z"/><path class="st47" id="polygon107818" d="m507 416.7 1.4-.8 85.7 51.7-1.4.7z"/><path class="st33" id="polygon107820" d="m505.1 417.7 1.9-1 85.7 51.6-2 1.1z"/><path class="st47" id="polygon107822" d="m503.6 418.5 1.5-.8 85.6 51.7-1.4.8z"/><path class="st46" id="polygon107824" d="m501.7 419.6 1.9-1.1 85.7 51.7-1.9 1.1z"/><path class="st47" id="polygon107826" d="m500.3 420.4 1.4-.8 85.7 51.7-1.4.7z"/><path class="st46" id="polygon107828" d="m498.4 421.4 1.9-1L586 472l-1.9 1.1z"/><path class="st14" id="polygon107830" d="m496.9 422.2 1.5-.8 85.7 51.7-1.5.8z"/><path class="st44" id="polygon107832" d="m495 423.3 1.9-1.1 85.7 51.7-1.9 1z"/><path class="st45" id="polygon107834" d="m493.6 424 1.4-.7 85.7 51.6-1.4.8z"/><path class="st44" id="polygon107836" d="m491.7 425.1 1.9-1.1 85.7 51.7-1.9 1.1z"/><path class="st45" id="polygon107838" d="m490.3 425.9 1.4-.8 85.7 51.7-1.5.8z"/><path class="st46" id="polygon107840" d="m488.3 427 2-1.1 85.6 51.7-1.9 1z"/><path class="st14" id="polygon107842" d="m486.9 427.7 1.4-.7 85.7 51.6-1.4.8z"/><path class="st46" id="polygon107844" d="m485 428.8 1.9-1.1 85.7 51.7-1.9 1.1z"/><path class="st14" id="polygon107846" d="m483.6 429.6 1.4-.8 85.7 51.7-1.5.8z"/><path class="st46" id="polygon107848" d="m481.6 430.6 2-1 85.6 51.7-1.9 1z"/><path class="st45" id="polygon107850" d="m480.2 431.4 1.4-.8 85.7 51.7-1.4.8z"/><path class="st44" id="polygon107852" d="m478.3 432.5 1.9-1.1 85.7 51.7-1.9 1.1z"/><path class="st45" id="polygon107854" d="m476.9 433.3 1.4-.8 85.7 51.7-1.4.8z"/><path class="st44" id="polygon107856" d="m475 434.3 1.9-1 85.7 51.7-2 1z"/><path class="st45" id="polygon107858" d="m473.5 435.1 1.5-.8 85.6 51.7-1.4.8z"/><path class="st44" id="polygon107860" d="m471.6 436.2 1.9-1.1 85.7 51.7-1.9 1.1z"/><path class="st45" id="polygon107862" d="m470.2 437 1.4-.8 85.7 51.7-1.4.7z"/><path class="st44" id="polygon107864" d="m468.3 438 1.9-1 85.7 51.6-1.9 1.1z"/><path class="st45" id="polygon107866" d="m466.8 438.8 1.5-.8 85.7 51.7-1.5.8z"/><path class="st44" id="polygon107868" d="m464.9 439.9 1.9-1.1 85.7 51.7-1.9 1z"/><path class="st45" id="polygon107870" d="m463.5 440.7 1.4-.8 85.7 51.6-1.4.8z"/><path class="st44" id="polygon107872" d="m461.6 441.7 1.9-1 85.7 51.6-1.9 1.1z"/><path class="st45" id="polygon107874" d="m460.2 442.5 1.4-.8 85.7 51.7-1.5.8z"/><path class="st44" id="polygon107876" d="m458.2 443.6 2-1.1 85.6 51.7-1.9 1z"/><path class="st45" id="polygon107878" d="m456.8 444.3 1.4-.7 85.7 51.6-1.4.8z"/></g></g><path class="st48" d="M580.9 471.8c-19.8 10.9-52 10.1-71.8-1.9-19.8-12-19.8-30.5 0-41.5 19.8-10.9 52-10.1 71.8 1.9 19.8 12 19.8 30.6 0 41.5z" id="path107884"/><path class="st31" d="M583.5 420.3c-21.3-12.8-55.8-13.7-77.1-2-10.5 5.8-15.8 13.6-16 21.6 1.4 0 2.4.1 3.7.1.1-7.4 5.1-14.7 14.9-20.1 19.8-10.9 52-10.1 71.8 1.9 9.7 5.9 14.7 13.3 14.9 20.7 1.2-.6 2.5 0 3.7.3 0-8-5.3-16.1-15.9-22.5z" id="path107886"/><path class="st49" d="m593.1 460.8-34.9-4.3c.3-.6.4-1.2.4-1.9v-.6l35-3.6c.7-1.2.9-2.3.8-3.2.3-2.5-1.5-4.2-4.9-3.6l-30.9 8c0-.8-.2-1.5-.6-2.2l28.7-14.8a37.6 37.6 0 0 0-5.8-4.2c-1.8-1.1-3.7-2-5.6-2.9-2.2.3-4.4 1.2-6.2 3l-14.6 15.7c-.9-.5-1.8-.9-2.8-1.2l13.1-21.2c-5.5-1.5-11.2-2.4-17-2.7-3 1.2-5.8 3-8 5.4v1.5l4 16c-.5 0-1 .1-1.5.2l-5-23c-5.9.4-11.7 1.3-17.1 3-2.1 1.5-3.9 3.2-5.3 4.9l-2.4-2.1c-1.2.5-2.3 1.1-3.4 1.7-1.9 1.1-3.6 2.2-5.2 3.4-1.7 2.8-3.2 6-4.3 8.9l-2-.6c-.5 2.3-1.1 5.9-1 10 0 3.4.4 7.1 1.7 10.5 1.3 1.8 2.9 3.5 4.8 5.2l2.7-.7c1.1 1.9 2.6 3.8 4.2 5.5 4.4 2.5 9.3 4.5 14.6 5.9l2.8-3c1.7 1.9 4 3.5 6.6 4.9 5.5.8 11.2 1.2 16.9.9l-4.4-17.7c1 0 2-.1 2.9-.2l4 8.6c1.1 2.4 2.9 4.4 5.2 5.6 1.8.9 3.6 1.6 5.5 2.1 4.3-.9 8.4-2.2 12.2-3.8l-22.4-13.8c.3-.1.7-.3 1-.4.8-.4 1.5-.9 2-1.5l24.2 7.1c3.2.9 5.9 1 8 .5 1.6-1.8 2.9-3.5 4-5.3z" id="path107888"/><g id="g108098"><path class="st50" d="m543.4 449.8-7.6-35.2c-8.8.8-21.5 8.6-23.8 15.9z" id="path107890"/><path class="st50" d="m541.8 450.7-32.2-28.4c-6.1 3.6-12.1 17.1-12.1 22.9z" id="path107892"/><path class="st50" d="M541.5 451.5 497 437.1c-1.1 5.1-2.8 17.4 4.2 24.8z" id="path107894"/><path class="st50" d="m542.5 452.6-39.8 1.6c.6 7.2 10.9 18.1 18.9 20.9z" id="path107896"/><path class="st50" d="m544.4 453.1-19.9 13.3c4.2 7.5 17.3 13 26.4 12.6z" id="path107898"/><linearGradient id="SVGID_53_" gradientUnits="userSpaceOnUse" x1="540.876" y1="322.229" x2="517.82" y2="330.98" gradientTransform="matrix(1 .0258 0 1 0 93.61)"><stop offset="0" id="stop107900" stop-color="#ccc"/><stop offset=".011" id="stop107902" stop-color="#cacaca"/><stop offset=".343" id="stop107904" stop-color="#959595"/><stop offset=".63" id="stop107906" stop-color="#6e6e6e"/><stop offset=".859" id="stop107908" stop-color="#565656"/><stop offset="1" id="stop107910" stop-color="#4d4d4d"/></linearGradient><path d="m543.4 448.3-7.6-35.2c-8.8.8-21.5 8.6-23.8 15.9z" id="path107913" fill="url(#SVGID_53_)"/><linearGradient id="SVGID_54_" gradientUnits="userSpaceOnUse" x1="525.995" y1="327.018" x2="510.999" y2="344.014" gradientTransform="matrix(1 .0258 0 1 0 93.61)"><stop offset="0" id="stop107915" stop-color="#ccc"/><stop offset=".011" id="stop107917" stop-color="#cacaca"/><stop offset=".343" id="stop107919" stop-color="#959595"/><stop offset=".63" id="stop107921" stop-color="#6e6e6e"/><stop offset=".859" id="stop107923" stop-color="#565656"/><stop offset="1" id="stop107925" stop-color="#4d4d4d"/></linearGradient><path d="m541.8 449.1-32.2-28.4c-6.1 3.6-12.1 17.1-12.1 22.9z" id="path107928" fill="url(#SVGID_54_)"/><linearGradient id="SVGID_55_" gradientUnits="userSpaceOnUse" x1="520.864" y1="331.346" x2="511.356" y2="359.402" gradientTransform="matrix(1 .0258 0 1 0 93.61)"><stop offset="0" id="stop107930" stop-color="#ccc"/><stop offset=".01" id="stop107932" stop-color="#cacaca"/><stop offset=".304" id="stop107934" stop-color="#959595"/><stop offset=".559" id="stop107936" stop-color="#6e6e6e"/><stop offset=".762" id="stop107938" stop-color="#565656"/><stop offset=".887" id="stop107940" stop-color="#4d4d4d"/></linearGradient><path d="M541.5 450.4 497 436c-1.1 5.1-2.8 17.4 4.2 24.8z" id="path107943" fill="url(#SVGID_55_)"/><g id="g107966"><path class="st50" d="m545.6 449.6 19.9-32.2c-8.1-2.4-19.7-.9-26.4 6.4z" id="path107945"/><path id="polygon107947" d="m565.5 415.9-19.9 32.2v1.5l19.9-32.2z"/><path id="polygon107949" d="M539.1 422.3v1.5l6.5 25.8v-1.5l-5.5-23.9z"/><linearGradient id="SVGID_56_" gradientUnits="userSpaceOnUse" x1="556.834" y1="324.884" x2="534.677" y2="310.964" gradientTransform="matrix(1 .0258 0 1 0 93.61)"><stop offset="0" id="stop107951" stop-color="#e6e6e6"/><stop offset=".137" id="stop107953" stop-color="#cacaca"/><stop offset=".426" id="stop107955" stop-color="#959595"/><stop offset=".677" id="stop107957" stop-color="#6e6e6e"/><stop offset=".877" id="stop107959" stop-color="#565656"/><stop offset="1" id="stop107961" stop-color="#4d4d4d"/></linearGradient><path d="m545.6 448.1 19.9-32.2c-8.1-2.4-19.7-.9-26.4 6.4z" id="path107964" fill="url(#SVGID_56_)"/></g><g id="g107987"><path class="st50" d="m547.5 450.3 39.8-20.5c-4.4-4.6-13.2-7.5-18.9-1.9z" id="path107968"/><path id="polygon107970" d="M587.3 429.8v-1.6l-14.9 3.8-24.9 16.7v1.6z"/><linearGradient id="SVGID_57_" gradientUnits="userSpaceOnUse" x1="568.365" y1="331.725" x2="554.885" y2="310.311" gradientTransform="matrix(1 .0258 0 1 0 93.61)"><stop offset="0" id="stop107972" stop-color="#e6e6e6"/><stop offset=".137" id="stop107974" stop-color="#cacaca"/><stop offset=".426" id="stop107976" stop-color="#959595"/><stop offset=".677" id="stop107978" stop-color="#6e6e6e"/><stop offset=".877" id="stop107980" stop-color="#565656"/><stop offset="1" id="stop107982" stop-color="#4d4d4d"/></linearGradient><path d="m547.5 448.7 39.8-20.5c-4.4-4.6-13.2-7.5-18.9-1.9z" id="path107985" fill="url(#SVGID_57_)"/></g><g id="g107991"><path d="m548.5 450.9 44.5-4.6c2-3.5.2-6.6-4.2-5.9z" id="path107989"/></g><g id="g108008"><linearGradient id="SVGID_58_" gradientUnits="userSpaceOnUse" x1="571.825" y1="340.183" x2="568.542" y2="327.171" gradientTransform="matrix(1 .0258 0 1 0 93.61)"><stop offset="0" id="stop107993" stop-color="#e6e6e6"/><stop offset=".137" id="stop107995" stop-color="#cacaca"/><stop offset=".426" id="stop107997" stop-color="#959595"/><stop offset=".677" id="stop107999" stop-color="#6e6e6e"/><stop offset=".877" id="stop108001" stop-color="#565656"/><stop offset="1" id="stop108003" stop-color="#4d4d4d"/></linearGradient><path d="m548.5 449.9 44.5-4.6c2-3.5.2-6.6-4.2-5.9z" id="path108006" fill="url(#SVGID_58_)"/></g><path class="st14" d="M557 447.5c-.6-.9-1.6-1.7-2.8-2.5-5.1-3.1-13.3-3.3-18.4-.5-1.2.7-2.1 1.5-2.8 2.3h-1v6.4c0 1.9 1.3 3.9 3.8 5.4 5.1 3.1 13.3 3.3 18.4.5 2.5-1.4 3.8-3.3 3.8-5.2v-6.4z" id="path108010"/><g id="g108088"><clipPath id="SVGID_60_"><use xlink:href="#SVGID_59_" id="use108015" x="0" y="0" width="100%" height="100%" overflow="visible"/></clipPath><g clip-path="url(#SVGID_60_)" id="g108086"><path class="st58" d="M549.1 458.3v2.5s.7-.1 1.1-.2c.5-.1.5-2.6.5-2.6z" id="path108018"/><path d="m546.6 452.9 6.1 13.1c1.1 2.4 2.9 4.4 5.2 5.6 6.7 3.5 14.5 3.5 20.1.6z" id="path108020"/><linearGradient id="SVGID_61_" gradientUnits="userSpaceOnUse" x1="522.57" y1="345.167" x2="524.688" y2="368.441" gradientTransform="matrix(1 .0258 0 1 0 93.61)"><stop offset="0" id="stop108022" stop-color="#e6e6e6"/><stop offset=".137" id="stop108024" stop-color="#cacaca"/><stop offset=".426" id="stop108026" stop-color="#959595"/><stop offset=".677" id="stop108028" stop-color="#6e6e6e"/><stop offset=".877" id="stop108030" stop-color="#565656"/><stop offset="1" id="stop108032" stop-color="#4d4d4d"/></linearGradient><path d="m542.5 451.5-39.8 1.6c.6 7.2 10.9 18.1 18.9 20.9z" id="path108035" fill="url(#SVGID_61_)"/><linearGradient id="SVGID_62_" gradientUnits="userSpaceOnUse" x1="529.402" y1="352.348" x2="553.53" y2="360.437" gradientTransform="matrix(1 .0258 0 1 0 93.61)"><stop offset="0" id="stop108037" stop-color="#e6e6e6"/><stop offset=".137" id="stop108039" stop-color="#cacaca"/><stop offset=".426" id="stop108041" stop-color="#959595"/><stop offset=".677" id="stop108043" stop-color="#6e6e6e"/><stop offset=".877" id="stop108045" stop-color="#565656"/><stop offset="1" id="stop108047" stop-color="#4d4d4d"/></linearGradient><path d="m544.4 452.2-19.9 13.3c4.2 7.5 17.3 13 26.4 12.6z" id="path108050" fill="url(#SVGID_62_)"/><linearGradient id="SVGID_63_" gradientUnits="userSpaceOnUse" x1="551.658" y1="359.22" x2="579.151" y2="344.739" gradientTransform="matrix(1 .0258 0 1 0 93.61)"><stop offset="0" id="stop108052" stop-color="#e6e6e6"/><stop offset=".137" id="stop108054" stop-color="#cacaca"/><stop offset=".426" id="stop108056" stop-color="#959595"/><stop offset=".677" id="stop108058" stop-color="#6e6e6e"/><stop offset=".877" id="stop108060" stop-color="#565656"/><stop offset="1" id="stop108062" stop-color="#4d4d4d"/></linearGradient><path d="m546.6 452 5.8 12.4c1.4 3 3.8 5.6 6.9 7 6.3 2.9 13.5 2.7 18.7 0z" id="path108065" fill="url(#SVGID_63_)"/><path class="st58" d="M556.7 454.4v2.8s.6-.6.9-1.5c.4-.9.3-1.2.3-1.2z" id="path108067"/><path d="m548.2 451.9 32.2 9.5c6.9 2 11.6.2 12.1-3.9z" id="path108069"/><linearGradient id="SVGID_64_" gradientUnits="userSpaceOnUse" x1="568.31" y1="352.647" x2="572.301" y2="339.11" gradientTransform="matrix(1 .0258 0 1 0 93.61)"><stop offset="0" id="stop108071" stop-color="#e6e6e6"/><stop offset=".137" id="stop108073" stop-color="#cacaca"/><stop offset=".426" id="stop108075" stop-color="#959595"/><stop offset=".677" id="stop108077" stop-color="#6e6e6e"/><stop offset=".877" id="stop108079" stop-color="#565656"/><stop offset="1" id="stop108081" stop-color="#4d4d4d"/></linearGradient><path d="m548.2 451.2 32.2 9.5c6.9 2 11.6.2 12.1-3.9z" id="path108084" fill="url(#SVGID_64_)"/></g></g><path class="st13" d="M554.2 452.8c-5.1 2.8-13.3 2.6-18.4-.5-5.1-3.1-5.1-7.8 0-10.6s13.3-2.6 18.4.5c5.1 3 5.1 7.8 0 10.6z" id="path108090"/><path class="st14" d="M553.5 451.8c-4.7 2.6-12.4 2.4-17.1-.4-4.7-2.8-4.7-7.3 0-9.9 4.7-2.6 12.4-2.4 17.1.4 4.7 2.9 4.7 7.3 0 9.9z" id="path108092"/><path class="st47" d="M548.7 448.9c-2.1 1.1-5.4 1-7.4-.2-2.1-1.2-2.1-3.2 0-4.3 2.1-1.1 5.4-1 7.4.2 2.1 1.3 2.1 3.2 0 4.3z" id="path108094"/><path class="st13" d="M541.3 445c2.1-1.1 5.4-1 7.4.2.9.5 1.4 1.2 1.5 1.9.1-.9-.4-1.8-1.5-2.5-2.1-1.2-5.4-1.3-7.4-.2-1.1.6-1.6 1.5-1.5 2.4.1-.7.6-1.3 1.5-1.8z" id="path108096"/></g></g><path class="st14" d="m599.5 442.8-3.5 7.5-5.7 7.7-5.6 5-12.5 5.5L555 472l-13.2.1-15.3-2.4-13.8-4.5-9.4-5.8-8.9-8.9c0-.3-.1-.6-.1-.9h-.3l-3.4-9.3v9.8l.1.1c.6 7.6 5.8 15.3 15.9 21.3 21.3 12.8 55.8 13.7 77.1 2 9.7-5.4 15-12.4 15.8-19.8-.2 0 .2 0 0 0l.1-2c0-.8.1-1.7.1-2.5z" id="path108102"/><path class="st31" d="M595.8 442.5c.2 7.6-4.8 15.2-14.9 20.8-19.8 10.9-52 10.1-71.8-1.9-10-6.1-15-13.8-14.9-21.4-1.3 0-2.4-.1-3.7-.1-.1 8.1 5.2 16.5 16 23 21.3 12.8 55.8 13.7 77.1 2 10.8-5.9 16.1-14 16-22.1-1.3-.3-2.6-.9-3.8-.3z" id="path108104"/></g><path d="M545 471.2c-13.1-.3-26.1-3.5-36.1-9.5-9.8-5.9-15.2-13.6-15-21.7.1-7.9 5.5-15.1 15-20.4 19.9-11 52.3-10.1 72.2 1.9 9.5 5.7 14.8 13.2 15 21 .2 8.1-5.1 15.6-15 21.1-10 5.4-23 8-36.1 7.6zm0-58.6c-12.9-.3-25.9 2.2-35.7 7.6-9.3 5.2-14.6 12.2-14.7 19.8-.1 7.8 5.1 15.3 14.7 21.1 19.7 11.9 51.8 12.7 71.5 1.8 9.7-5.3 14.9-12.6 14.7-20.5-.2-7.6-5.4-14.8-14.7-20.4-9.9-5.8-22.9-9-35.8-9.4z" id="path108108"/></g><linearGradient id="SVGID_65_" gradientUnits="userSpaceOnUse" x1="544.993" y1="55.531" x2="544.993" y2="363.246" gradientTransform="matrix(1 .0258 0 1 0 93.61)"><stop offset="0" id="stop108112" stop-color="#fff" stop-opacity="0"/><stop offset="1" id="stop108114" stop-color="#fff"/></linearGradient></g><g id="g108466"><path class="st41" d="M426.3 508.4c-14.1-.4-28.3-3.8-39.1-10.3-10.7-6.5-16.5-14.9-16.4-23.7.1-8.6 6-16.5 16.4-22.2 21.5-11.9 56.6-11 78.1 2 10.3 6.2 16.2 14.4 16.4 22.9.2 8.9-5.6 17.1-16.4 23-10.7 5.9-24.9 8.7-39 8.3zm0-63.2c-13.9-.4-27.8 2.3-38.3 8.2-10 5.5-15.5 13-15.7 21-.1 8.3 5.4 16.2 15.7 22.4 21.1 12.8 55.5 13.6 76.7 2 10.3-5.7 15.9-13.4 15.7-21.8-.2-8-5.8-15.7-15.7-21.7-10.6-6.3-24.5-9.7-38.4-10.1z" id="path108121"/><g id="g108462"><g id="g108456"><linearGradient id="SVGID_66_" gradientUnits="userSpaceOnUse" x1="371.799" y1="353.105" x2="480.807" y2="353.105" gradientTransform="matrix(1 .0258 0 1 0 93.61)"><stop offset="0" id="stop108123" stop-color="#4d4d4d"/><stop offset="1" id="stop108125" stop-color="#1a1a1a"/></linearGradient><path d="M477.7 466.9v-6.1l-8.2-9.9-9.4-5.5-14.1-5.8-13.8-2.2-16.5-.4-15.7 3-10.5 4.1-8.6 5.9-7.2 11.5v4.9c-1.4 2.9-2 5.9-1.9 8.9 1.2 0 2.5.1 3.7.1-.1-2.4.3-4.7 1.2-7l33.8-20.6c1-.2 1.9-.3 2.9-.4l23.4 3.3 21.5 6.8 16.3 10.7c2 3.7 2.8 7.5 2.4 11.2 1.4 0 2.5.1 3.8.1.4-4.2-.6-8.5-3.1-12.6z" id="path108128" fill="url(#SVGID_66_)"/><g id="g108238"><clipPath id="SVGID_68_"><use xlink:href="#SVGID_67_" id="use108133" x="0" y="0" width="100%" height="100%" overflow="visible"/></clipPath><g clip-path="url(#SVGID_68_)" id="g108236"><path class="st44" id="polygon108136" d="m419.8 425.2 1.9-1.1 85.7 51.7-1.9 1.1z"/><path class="st45" id="polygon108138" d="m418.4 426 1.4-.8 85.7 51.7-1.4.7z"/><path class="st44" id="polygon108140" d="m416.5 427 1.9-1 85.7 51.6-2 1.1z"/><path class="st45" id="polygon108142" d="m415 427.8 1.5-.8 85.6 51.7-1.4.8z"/><path class="st46" id="polygon108144" d="m413.1 428.9 1.9-1.1 85.7 51.7-1.9 1z"/><path class="st47" id="polygon108146" d="m411.7 429.6 1.4-.7 85.7 51.6-1.4.8z"/><path class="st46" id="polygon108148" d="m409.8 430.7 1.9-1.1 85.7 51.7-1.9 1.1z"/><path class="st47" id="polygon108150" d="m408.3 431.5 1.5-.8 85.7 51.7-1.5.8z"/><path class="st46" id="polygon108152" d="m406.4 432.5 1.9-1 85.7 51.7-1.9 1z"/><path class="st47" id="polygon108154" d="m405 433.3 1.4-.8 85.7 51.7-1.4.8z"/><path class="st46" id="polygon108156" d="m403.1 434.4 1.9-1.1 85.7 51.7-1.9 1.1z"/><path class="st47" id="polygon108158" d="m401.7 435.2 1.4-.8 85.7 51.7-1.5.8z"/><path class="st46" id="polygon108160" d="m399.7 436.2 2-1 85.6 51.7-1.9 1z"/><path class="st47" id="polygon108162" d="m398.3 437 1.4-.8 85.7 51.7-1.4.8z"/><path class="st46" id="polygon108164" d="m396.4 438.1 1.9-1.1 85.7 51.7-1.9 1.1z"/><path class="st47" id="polygon108166" d="m395 438.9 1.4-.8 85.7 51.7-1.4.7z"/><path class="st46" id="polygon108168" d="m393.1 439.9 1.9-1 85.7 51.6-2 1.1z"/><path class="st47" id="polygon108170" d="m391.6 440.7 1.5-.8 85.6 51.7-1.4.8z"/><path class="st46" id="polygon108172" d="m389.7 441.8 1.9-1.1 85.7 51.7-1.9 1.1z"/><path class="st47" id="polygon108174" d="m388.3 442.6 1.4-.8 85.7 51.7-1.4.7z"/><path class="st33" id="polygon108176" d="m386.4 443.6 1.9-1 85.7 51.6-2 1.1z"/><path class="st47" id="polygon108178" d="m384.9 444.4 1.5-.8 85.6 51.7-1.4.8z"/><path class="st46" id="polygon108180" d="m383 445.5 1.9-1.1 85.7 51.7-1.9 1z"/><path class="st47" id="polygon108182" d="m381.6 446.2 1.4-.7 85.7 51.6-1.4.8z"/><path class="st46" id="polygon108184" d="m379.7 447.3 1.9-1.1 85.7 51.7-1.9 1.1z"/><path class="st14" id="polygon108186" d="m378.2 448.1 1.5-.8 85.7 51.7-1.5.8z"/><path class="st44" id="polygon108188" d="m376.3 449.2 1.9-1.1 85.7 51.7-1.9 1z"/><path class="st45" id="polygon108190" d="m374.9 449.9 1.4-.7 85.7 51.6-1.4.8z"/><path class="st44" id="polygon108192" d="m373 451 1.9-1.1 85.7 51.7-1.9 1.1z"/><path class="st45" id="polygon108194" d="m371.6 451.8 1.4-.8 85.7 51.7-1.5.8z"/><path class="st46" id="polygon108196" d="m369.6 452.8 2-1 85.6 51.7-1.9 1z"/><path class="st14" id="polygon108198" d="m368.2 453.6 1.4-.8 85.7 51.7-1.4.8z"/><path class="st46" id="polygon108200" d="m366.3 454.7 1.9-1.1 85.7 51.7-1.9 1.1z"/><path class="st14" id="polygon108202" d="m364.9 455.5 1.4-.8 85.7 51.7-1.4.8z"/><path class="st46" id="polygon108204" d="m362.9 456.5 2-1 85.7 51.7-2 1z"/><path class="st45" id="polygon108206" d="m361.5 457.3 1.4-.8 85.7 51.7-1.4.8z"/><path class="st44" id="polygon108208" d="m359.6 458.4 1.9-1.1 85.7 51.7-1.9 1.1z"/><path class="st45" id="polygon108210" d="m358.2 459.2 1.4-.8 85.7 51.7-1.4.7z"/><path class="st44" id="polygon108212" d="m356.3 460.2 1.9-1 85.7 51.6-2 1.1z"/><path class="st45" id="polygon108214" d="m354.8 461 1.5-.8 85.6 51.7-1.4.8z"/><path class="st44" id="polygon108216" d="m352.9 462.1 1.9-1.1 85.7 51.7-1.9 1z"/><path class="st45" id="polygon108218" d="m351.5 462.9 1.4-.8 85.7 51.6-1.4.8z"/><path class="st44" id="polygon108220" d="m349.6 463.9 1.9-1 85.7 51.6-1.9 1.1z"/><path class="st45" id="polygon108222" d="m348.1 464.7 1.5-.8 85.7 51.7-1.5.8z"/><path class="st44" id="polygon108224" d="m346.2 465.8 1.9-1.1 85.7 51.7-1.9 1z"/><path class="st45" id="polygon108226" d="m344.8 466.5 1.4-.7 85.7 51.6-1.4.8z"/><path class="st44" id="polygon108228" d="m342.9 467.6 1.9-1.1 85.7 51.7-1.9 1.1z"/><path class="st45" id="polygon108230" d="m341.5 468.4 1.4-.8 85.7 51.7-1.5.8z"/><path class="st44" id="polygon108232" d="m339.5 469.4 2-1 85.6 51.7-1.9 1z"/><path class="st45" id="polygon108234" d="m338.1 470.2 1.4-.8 85.7 51.7-1.4.8z"/></g></g><path class="st48" d="M462.2 497.7c-19.8 10.9-52 10.1-71.8-1.9-19.8-12-19.8-30.5 0-41.5 19.8-10.9 52-10.1 71.8 1.9 19.8 12 19.8 30.5 0 41.5z" id="path108240"/><path class="st31" d="M464.9 446.2c-21.3-12.8-55.8-13.7-77.1-2-10.5 5.8-15.8 13.6-16 21.6 1.4 0 2.4.1 3.7.1.1-7.4 5.1-14.7 14.9-20.1 19.8-10.9 52-10.1 71.8 1.9 9.7 5.9 14.7 13.3 14.9 20.7 1.2-.6 2.5 0 3.7.3-.1-8-5.4-16.1-15.9-22.5z" id="path108242"/><path class="st49" d="m474.4 486.7-34.9-4.3c.3-.6.4-1.2.4-1.9v-.6l35-3.6c.7-1.2.9-2.3.8-3.2.3-2.5-1.5-4.2-4.9-3.6l-30.9 8c0-.8-.2-1.5-.6-2.2l28.7-14.8a37.6 37.6 0 0 0-5.8-4.2c-1.8-1.1-3.7-2-5.6-2.9-2.2.3-4.4 1.2-6.2 3L435.8 472c-.9-.5-1.8-.9-2.8-1.2l13.1-21.2c-5.5-1.5-11.2-2.4-17-2.7-3 1.2-5.8 3-8 5.4v1.5l4 16c-.5 0-1 .1-1.5.2l-5-23c-5.9.4-11.7 1.3-17.1 3-2.1 1.5-3.9 3.2-5.3 4.9l-2.4-2.1c-1.2.5-2.3 1.1-3.4 1.7-1.9 1.1-3.6 2.2-5.2 3.4-1.7 2.8-3.2 6-4.3 8.9l-2-.6c-.5 2.3-1.1 5.9-1 10 0 3.4.4 7.1 1.7 10.5 1.3 1.8 2.9 3.5 4.8 5.2l2.7-.7c1.1 1.9 2.6 3.8 4.2 5.5 4.4 2.5 9.3 4.5 14.6 5.9l2.8-3c1.7 1.9 4 3.5 6.6 4.9 5.5.8 11.2 1.2 16.9.9l-4.4-17.7c1 0 2-.1 2.9-.2l4 8.6c1.1 2.4 2.9 4.4 5.2 5.6 1.8.9 3.6 1.6 5.5 2.1 4.3-.9 8.4-2.2 12.2-3.8l-22.4-13.8c.3-.1.7-.3 1-.4.8-.4 1.5-.9 2-1.5l24.2 7.1c3.2.9 5.9 1 8 .5 1.6-1.7 2.9-3.4 4-5.2z" id="path108244"/><g id="g108454"><path class="st50" d="m424.7 475.7-7.6-35.2c-8.8.8-21.5 8.6-23.8 15.9z" id="path108246"/><path class="st50" d="m423.1 476.5-32.2-28.4c-6.1 3.6-12.1 17.1-12.1 22.9z" id="path108248"/><path class="st50" d="M422.8 477.4 378.3 463c-1.1 5.1-2.8 17.4 4.2 24.8z" id="path108250"/><path class="st50" d="m423.8 478.5-39.8 1.6c.6 7.2 10.9 18.1 18.9 20.9z" id="path108252"/><path class="st50" d="m425.7 479-19.9 13.3c4.2 7.5 17.3 13 26.4 12.6z" id="path108254"/><linearGradient id="SVGID_69_" gradientUnits="userSpaceOnUse" x1="422.18" y1="351.181" x2="399.124" y2="359.932" gradientTransform="matrix(1 .0258 0 1 0 93.61)"><stop offset="0" id="stop108256" stop-color="#ccc"/><stop offset=".011" id="stop108258" stop-color="#cacaca"/><stop offset=".343" id="stop108260" stop-color="#959595"/><stop offset=".63" id="stop108262" stop-color="#6e6e6e"/><stop offset=".859" id="stop108264" stop-color="#565656"/><stop offset="1" id="stop108266" stop-color="#4d4d4d"/></linearGradient><path d="m424.7 474.1-7.6-35.2c-8.8.8-21.5 8.6-23.8 15.9z" id="path108269" fill="url(#SVGID_69_)"/><linearGradient id="SVGID_70_" gradientUnits="userSpaceOnUse" x1="407.299" y1="355.97" x2="392.303" y2="372.966" gradientTransform="matrix(1 .0258 0 1 0 93.61)"><stop offset="0" id="stop108271" stop-color="#ccc"/><stop offset=".011" id="stop108273" stop-color="#cacaca"/><stop offset=".343" id="stop108275" stop-color="#959595"/><stop offset=".63" id="stop108277" stop-color="#6e6e6e"/><stop offset=".859" id="stop108279" stop-color="#565656"/><stop offset="1" id="stop108281" stop-color="#4d4d4d"/></linearGradient><path d="m423.1 475-32.2-28.4c-6.1 3.6-12.1 17.1-12.1 22.9z" id="path108284" fill="url(#SVGID_70_)"/><linearGradient id="SVGID_71_" gradientUnits="userSpaceOnUse" x1="402.167" y1="360.298" x2="392.66" y2="388.354" gradientTransform="matrix(1 .0258 0 1 0 93.61)"><stop offset="0" id="stop108286" stop-color="#ccc"/><stop offset=".01" id="stop108288" stop-color="#cacaca"/><stop offset=".304" id="stop108290" stop-color="#959595"/><stop offset=".559" id="stop108292" stop-color="#6e6e6e"/><stop offset=".762" id="stop108294" stop-color="#565656"/><stop offset=".887" id="stop108296" stop-color="#4d4d4d"/></linearGradient><path d="m422.8 476.3-44.5-14.4c-1.1 5.1-2.8 17.4 4.2 24.8z" id="path108299" fill="url(#SVGID_71_)"/><g id="g108322"><path class="st50" d="m426.9 475.5 19.9-32.2c-8.1-2.4-19.7-.9-26.4 6.4z" id="path108301"/><path id="polygon108303" d="M446.8 441.8 426.9 474v1.5l19.9-32.2z"/><path id="polygon108305" d="M420.4 448.1v1.6l6.5 25.8V474l-5.5-23.9z"/><linearGradient id="SVGID_72_" gradientUnits="userSpaceOnUse" x1="438.137" y1="353.836" x2="415.98" y2="339.916" gradientTransform="matrix(1 .0258 0 1 0 93.61)"><stop offset="0" id="stop108307" stop-color="#e6e6e6"/><stop offset=".137" id="stop108309" stop-color="#cacaca"/><stop offset=".426" id="stop108311" stop-color="#959595"/><stop offset=".677" id="stop108313" stop-color="#6e6e6e"/><stop offset=".877" id="stop108315" stop-color="#565656"/><stop offset="1" id="stop108317" stop-color="#4d4d4d"/></linearGradient><path d="m426.9 474 19.9-32.2c-8.1-2.4-19.7-.9-26.4 6.4z" id="path108320" fill="url(#SVGID_72_)"/></g><g id="g108343"><path class="st50" d="m428.8 476.2 39.8-20.5c-4.4-4.6-13.2-7.5-18.9-1.9z" id="path108324"/><path id="polygon108326" d="M468.6 455.6v-1.5l-14.9 3.8-24.9 16.7v1.6z"/><linearGradient id="SVGID_73_" gradientUnits="userSpaceOnUse" x1="449.668" y1="360.677" x2="436.189" y2="339.263" gradientTransform="matrix(1 .0258 0 1 0 93.61)"><stop offset="0" id="stop108328" stop-color="#e6e6e6"/><stop offset=".137" id="stop108330" stop-color="#cacaca"/><stop offset=".426" id="stop108332" stop-color="#959595"/><stop offset=".677" id="stop108334" stop-color="#6e6e6e"/><stop offset=".877" id="stop108336" stop-color="#565656"/><stop offset="1" id="stop108338" stop-color="#4d4d4d"/></linearGradient><path d="m428.8 474.6 39.8-20.5c-4.4-4.6-13.2-7.5-18.9-1.9z" id="path108341" fill="url(#SVGID_73_)"/></g><g id="g108347"><path d="m429.8 476.8 44.5-4.6c2-3.5.2-6.6-4.2-5.9z" id="path108345"/></g><g id="g108364"><linearGradient id="SVGID_74_" gradientUnits="userSpaceOnUse" x1="453.128" y1="369.135" x2="449.845" y2="356.123" gradientTransform="matrix(1 .0258 0 1 0 93.61)"><stop offset="0" id="stop108349" stop-color="#e6e6e6"/><stop offset=".137" id="stop108351" stop-color="#cacaca"/><stop offset=".426" id="stop108353" stop-color="#959595"/><stop offset=".677" id="stop108355" stop-color="#6e6e6e"/><stop offset=".877" id="stop108357" stop-color="#565656"/><stop offset="1" id="stop108359" stop-color="#4d4d4d"/></linearGradient><path d="m429.8 475.8 44.5-4.6c2-3.5.2-6.6-4.2-5.9z" id="path108362" fill="url(#SVGID_74_)"/></g><path class="st14" d="M438.3 473.4c-.6-.9-1.6-1.7-2.8-2.5-5.1-3.1-13.3-3.3-18.4-.5-1.2.7-2.1 1.5-2.8 2.3h-1v6.4c0 1.9 1.3 3.9 3.8 5.4 5.1 3.1 13.3 3.3 18.4.5 2.5-1.4 3.8-3.3 3.8-5.2v-6.4z" id="path108366"/><g id="g108444"><clipPath id="SVGID_76_"><use xlink:href="#SVGID_75_" id="use108371" x="0" y="0" width="100%" height="100%" overflow="visible"/></clipPath><g clip-path="url(#SVGID_76_)" id="g108442"><path class="st58" d="M430.4 484.2v2.5s.7-.1 1.1-.2c.5-.1.5-2.6.5-2.6z" id="path108374"/><path d="m427.9 478.8 6.1 13.1c1.1 2.4 2.9 4.4 5.2 5.6 6.7 3.5 14.5 3.5 20.1.6z" id="path108376"/><linearGradient id="SVGID_77_" gradientUnits="userSpaceOnUse" x1="403.874" y1="374.119" x2="405.992" y2="397.393" gradientTransform="matrix(1 .0258 0 1 0 93.61)"><stop offset="0" id="stop108378" stop-color="#e6e6e6"/><stop offset=".137" id="stop108380" stop-color="#cacaca"/><stop offset=".426" id="stop108382" stop-color="#959595"/><stop offset=".677" id="stop108384" stop-color="#6e6e6e"/><stop offset=".877" id="stop108386" stop-color="#565656"/><stop offset="1" id="stop108388" stop-color="#4d4d4d"/></linearGradient><path d="M423.8 477.4 384 479c.6 7.2 10.9 18.1 18.9 20.9z" id="path108391" fill="url(#SVGID_77_)"/><linearGradient id="SVGID_78_" gradientUnits="userSpaceOnUse" x1="410.705" y1="381.3" x2="434.833" y2="389.389" gradientTransform="matrix(1 .0258 0 1 0 93.61)"><stop offset="0" id="stop108393" stop-color="#e6e6e6"/><stop offset=".137" id="stop108395" stop-color="#cacaca"/><stop offset=".426" id="stop108397" stop-color="#959595"/><stop offset=".677" id="stop108399" stop-color="#6e6e6e"/><stop offset=".877" id="stop108401" stop-color="#565656"/><stop offset="1" id="stop108403" stop-color="#4d4d4d"/></linearGradient><path d="m425.7 478.1-19.9 13.3c4.2 7.5 17.3 13 26.4 12.6z" id="path108406" fill="url(#SVGID_78_)"/><linearGradient id="SVGID_79_" gradientUnits="userSpaceOnUse" x1="432.961" y1="388.172" x2="460.455" y2="373.69" gradientTransform="matrix(1 .0258 0 1 0 93.61)"><stop offset="0" id="stop108408" stop-color="#e6e6e6"/><stop offset=".137" id="stop108410" stop-color="#cacaca"/><stop offset=".426" id="stop108412" stop-color="#959595"/><stop offset=".677" id="stop108414" stop-color="#6e6e6e"/><stop offset=".877" id="stop108416" stop-color="#565656"/><stop offset="1" id="stop108418" stop-color="#4d4d4d"/></linearGradient><path d="m427.9 477.9 5.8 12.4c1.4 3 3.8 5.6 6.9 7 6.3 2.9 13.5 2.7 18.7 0z" id="path108421" fill="url(#SVGID_79_)"/><path class="st58" d="M438 480.3v2.8s.6-.6.9-1.5c.4-.9.3-1.2.3-1.2z" id="path108423"/><path d="m429.5 477.8 32.2 9.5c6.9 2 11.6.2 12.1-3.9z" id="path108425"/><linearGradient id="SVGID_80_" gradientUnits="userSpaceOnUse" x1="449.614" y1="381.599" x2="453.604" y2="368.061" gradientTransform="matrix(1 .0258 0 1 0 93.61)"><stop offset="0" id="stop108427" stop-color="#e6e6e6"/><stop offset=".137" id="stop108429" stop-color="#cacaca"/><stop offset=".426" id="stop108431" stop-color="#959595"/><stop offset=".677" id="stop108433" stop-color="#6e6e6e"/><stop offset=".877" id="stop108435" stop-color="#565656"/><stop offset="1" id="stop108437" stop-color="#4d4d4d"/></linearGradient><path d="m429.5 477.1 32.2 9.5c6.9 2 11.6.2 12.1-3.9z" id="path108440" fill="url(#SVGID_80_)"/></g></g><path class="st13" d="M435.5 478.6c-5.1 2.8-13.3 2.6-18.4-.5-5.1-3.1-5.1-7.8 0-10.6s13.3-2.6 18.4.5c5.1 3.1 5.1 7.8 0 10.6z" id="path108446"/><path class="st14" d="M434.8 477.7c-4.7 2.6-12.4 2.4-17.1-.4-4.7-2.8-4.7-7.3 0-9.9 4.7-2.6 12.4-2.4 17.1.4 4.7 2.9 4.7 7.3 0 9.9z" id="path108448"/><path class="st47" d="M430 474.8c-2.1 1.1-5.4 1-7.4-.2-2.1-1.2-2.1-3.2 0-4.3 2.1-1.1 5.4-1 7.4.2 2.1 1.2 2.1 3.2 0 4.3z" id="path108450"/><path class="st13" d="M422.6 470.9c2.1-1.1 5.4-1 7.4.2.9.5 1.4 1.2 1.5 1.9.1-.9-.4-1.8-1.5-2.5-2.1-1.2-5.4-1.3-7.4-.2-1.1.6-1.6 1.5-1.5 2.4.1-.7.6-1.3 1.5-1.8z" id="path108452"/></g></g><path class="st14" d="m480.8 468.6-3.5 7.5-5.7 7.7-5.6 5-12.5 5.5-17.2 3.5-13.2.1-15.3-2.4L394 491l-9.4-5.8-8.9-8.9c0-.3-.1-.6-.1-.9h-.3l-3.4-9.3v9.8l.1.1c.6 7.6 5.8 15.3 15.9 21.3 21.3 12.8 55.8 13.7 77.1 2 9.7-5.4 15-12.4 15.8-19.8-.2 0 .2 0 0 0l.1-2c0-.8.1-1.7.1-2.5z" id="path108458"/><path class="st31" d="M477.1 468.4c.2 7.6-4.8 15.2-14.9 20.8-19.8 10.9-52 10.1-71.8-1.9-10-6.1-15-13.8-14.9-21.4-1.3 0-2.4-.1-3.7-.1-.1 8.1 5.2 16.5 16 23 21.3 12.8 55.8 13.7 77.1 2 10.8-5.9 16.1-14 16-22.1-1.3-.3-2.6-1-3.8-.3z" id="path108460"/></g><path d="M426.3 497.1c-13.1-.3-26.1-3.5-36.1-9.5-9.8-5.9-15.2-13.6-15-21.7.1-7.9 5.5-15.1 15-20.4 19.9-11 52.3-10.1 72.2 1.9 9.5 5.7 14.8 13.2 15 21 .2 8.1-5.1 15.6-15 21.1-10 5.4-23 8-36.1 7.6zm0-58.6c-12.9-.3-25.9 2.2-35.7 7.6-9.3 5.2-14.6 12.2-14.7 19.8-.1 7.8 5.1 15.3 14.7 21.1 19.7 11.9 51.8 12.7 71.5 1.8 9.7-5.3 14.9-12.6 14.7-20.5-.2-7.6-5.4-14.8-14.7-20.4-9.9-5.9-22.9-9-35.8-9.4z" id="path108464"/></g></g><linearGradient id="SVGID_81_" gradientUnits="userSpaceOnUse" x1="426.297" y1="84.483" x2="426.297" y2="392.197" gradientTransform="matrix(1 .0258 0 1 0 93.61)"><stop offset="0" id="stop108468" stop-color="#fff" stop-opacity="0"/><stop offset="1" id="stop108470" stop-color="#fff"/></linearGradient></g><path id="polygon108527" d="m56.7 65.1 131.5 97.6L439 107 309.1 10.2z" fill="url(#SVGID_83_)"/><path id="polygon108536" d="m58.4 65.9 129.8 96.8V347L58.4 250.2z" fill="url(#SVGID_84_)"/><g id="g108705"><g id="g108675"><path class="st110" d="M129.8 402.2c-13.1-17.9-29.6-28-36.8-22.7l-33 24.3c-7.2 5.3-2.4 24.1 10.7 41.9 13.1 17.9 29.6 28 36.8 22.7l33-24.3c7.3-5.3 2.5-24.1-10.7-41.9z" id="path108671"/><ellipse transform="rotate(-36.312 116.82 411.771)" class="st111" cx="116.8" cy="411.7" rx="16.2" ry="40.1" id="ellipse108673"/></g><g id="g108685"><path class="st110" d="M90.4 431.1c-6.6-8.9-14.8-14-18.4-11.4l-42.4 31.2c-3.6 2.6-1.2 12 5.4 21 6.6 8.9 14.8 14 18.4 11.4l42.4-31.2c3.6-2.7 1.2-12.1-5.4-21z" id="path108677"/><path class="st112" d="m95.8 452.1-11.4 8.4c-4.6-3.9-9.3-9-13.6-14.9-4.3-5.9-7.8-11.9-10.1-17.4l11.4-8.4c3.6-2.6 11.8 2.4 18.4 11.4 6.5 8.8 8.9 18.2 5.3 20.9z" id="path108679"/><ellipse transform="rotate(-36.312 83.941 435.94)" class="st112" cx="83.9" cy="435.9" rx="8.1" ry="20.1" id="ellipse108681"/><path class="st112" d="M53.4 483.3c-3.6 2.6-11.8-2.4-18.4-11.4-6.6-8.9-9-18.3-5.4-21 3.6-2.6 11.8 2.4 18.4 11.4 6.6 8.9 9 18.3 5.4 21z" id="path108683"/></g><ellipse transform="rotate(-36.312 83.818 436.03)" class="st112" cx="83.8" cy="436" rx="16.2" ry="40.1" id="ellipse108687"/><g id="g108695"><path class="st110" d="M157.3 382c-22.7-30.8-51.1-48.4-63.5-39.3l-18.3 13.4c-12.4 9.1-4.1 41.5 18.5 72.4 22.7 30.8 51.1 48.4 63.5 39.3l18.3-13.4c12.4-9.2 4.1-41.6-18.5-72.4z" id="path108689"/><ellipse transform="rotate(-36.312 116.51 411.998)" class="st112" cx="116.5" cy="412" rx="27.9" ry="69.3" id="ellipse108691"/><ellipse transform="rotate(-36.312 134.805 398.55)" class="st111" cx="134.8" cy="398.5" rx="27.9" ry="69.3" id="ellipse108693"/></g><g id="g108703"><path class="st110" d="M184.5 362c-13.1-17.9-29.6-28-36.8-22.7l-33 24.3c-7.2 5.3-2.4 24.1 10.7 41.9 13.1 17.9 29.6 28 36.8 22.7l33-24.3c7.2-5.3 2.4-24.1-10.7-41.9z" id="path108697"/><ellipse transform="rotate(-36.312 138.506 395.83)" class="st112" cx="138.5" cy="395.8" rx="16.2" ry="40.1" id="ellipse108699"/><ellipse transform="rotate(-36.312 171.507 371.57)" class="st111" cx="171.5" cy="371.5" rx="16.2" ry="40.1" id="ellipse108701"/></g></g><path d="m778.8 714.4-92.6 20c-4.8.9-9.7-.6-13.5-3.3l-50-37.1c-2.7-2.2-1-5.5 2.9-6.2l89.8-19.4c3.7-.9 9.7.2 12.1 1.9l52.4 39c2 1.4 1.3 4.6-1.1 5.1z" id="path108736" opacity=".4" fill="url(#SVGID_88_)"/></g></g><style type="text/css" id="style106890">.st13{fill:#1a1a1a}.st14{fill:#666}.st15{fill:#333}.st31{fill:gray}.st32{fill:#999}.st33{fill:#ccc}.st41{opacity:.3;fill:#333}.st44{fill:#5f74ea}.st45{fill:#3c53c9}.st46{fill:#b3b3b3}.st47{fill:#4d4d4d}.st48,.st49{opacity:.5;fill:#333}.st49{opacity:.6}.st50{fill:#111e72}.st58{opacity:.6;fill:#1a1a1a}.st110,.st111,.st112{fill:none;stroke:#fff;stroke-width:.5;stroke-linecap:round;stroke-linejoin:round;stroke-miterlimit:10}.st111,.st112{opacity:.4;enable-background:new}.st112{opacity:.3}</style></svg>