<svg xmlns="http://www.w3.org/2000/svg" width="429.232" height="523.687" viewBox="0 0 429.232 523.687" xml:space="preserve"><path fill="#999" stroke="#000" stroke-width="1.178" stroke-miterlimit="10" d="m160.876 14.63 4.714 11.193-25.335 7.07-6.481.59-6.481-11.784 26.513-6.48z"/><path fill="#cfdee5" d="M422.167 260.672c1.222-1.787 8.438-15.274 4.546-15.149-.316-1.112-.818-1.81-.818-1.81s-16.772-10.769-57.147-10.164c-36.646.55-47.204 8.953-52.483 11.073-5.28 2.12-12.734 12.415-12.734 12.415s.62 1.817 8.698 1.817c8.073 0 6.83 1.21 9.315 4.24 2.484 3.027 3.104 16.352 3.104 20.591v81.76s-6.836 30.756 45.964 30.756c55.901 0 50.312-30.15 50.312-30.15v-87.21s0-16.352 1.243-18.169zm-116.033-3.878c3.17-1.75 7.956-6.418 7.956-6.418l3.104-.605s-4.133 2.887 2.424 5.762z" opacity=".19"/><path fill="#fafdff" d="M373.046 313.606c-26.554 0-48.081 5.055-48.081 11.291 0 6.237 21.527 11.292 48.081 11.292 26.552 0 48.077-5.055 48.077-11.292 0-6.236-21.526-11.29-48.077-11.29zm-.352 47.905c-26.553 0-46.324 8.477-46.324 14.714 0 6.236 17.793 21.266 44.347 21.266 26.553 0 48.301-14.688 48.301-20.923-.001-6.238-19.771-15.057-46.324-15.057z" opacity=".31"/><path opacity=".38" fill="#fffdff" d="M421.123 325.583c0 6.236-18.146 11.325-48.077 11.292-26.554-.03-48.081-5.056-48.081-11.292 0-6.237 12.751-14.6 48.081-14.829 31.143-.2 48.077 8.592 48.077 14.83z"/><path opacity=".68" fill="none" stroke="#b6bdc3" stroke-width="2.079" stroke-linecap="round" stroke-linejoin="round" d="M314.09 253.91s-9.317 5.55-10.561 3.127c0 0 7.454-10.295 12.734-12.415 5.279-2.12 15.837-10.523 52.483-11.073 40.375-.605 57.146 10.164 57.146 10.164"/><path opacity=".34" fill="none" stroke="#c6cdd4" stroke-width="2.079" stroke-linecap="round" stroke-linejoin="round" d="M303.529 257.037s.62 1.817 8.696 1.817c8.074 0 6.832 1.21 9.317 4.24 2.484 3.027 3.104 16.352 3.104 20.591v81.76s-6.834 30.756 45.965 30.756c55.902 0 50.312-30.15 50.312-30.15v-87.21s0-16.352 1.242-18.169c1.241-1.817 8.695-15.747 4.348-15.14"/><path opacity=".69" fill="#fff" d="M425.936 249.71c1.642-.785-9.042 10.775-8.178 8.25 1.241-3.634-.562 10.584-.562 10.584v88.422s-.62 10.296-2.484 13.324c-1.863 3.027-1.264 13.36-1.264 13.36s5.203-6.398 6.446-9.427c1.241-3.028.407-9.99.407-14.229 0-4.239-3.173-95.298 3.104-104.774 4.173-6.294 2.531-5.51 2.531-5.51zm-81.845 10.355s-10.902-5.45-12.114 0c-1.212 5.452-1.817 16.353-1.817 16.353v84.788l3.029-1.817s5.45-78.73 7.268-86.604c1.816-7.874.604-11.508 3.634-12.72z"/><path opacity=".76" fill="#fff" d="M332.722 377.558s7.993-13.939 38.429-13.939 37.971 14.545 37.971 14.545 5.591-2.422 2.485-4.845c-3.105-2.422-7.433-11.254-40.376-12.046-33.114-.796-41.614 13.863-41.614 13.863z"/><path fill="none" stroke="#fff" stroke-width="1.386" stroke-linecap="round" stroke-linejoin="round" d="M371.231 292.77s4.351 0 17.394-.606m-10.559 9.085 10.559-.606m-18.014 8.478 17.393-.605m-9.938 8.479 9.938-.606m-16.773 8.48 17.394-.606m-10.559 7.872h10.559m-18.014 9.085 18.014-1.212m-9.938 7.874h8.696m-15.529 8.48 16.15-.606m-9.938 8.479 10.559-.605m-17.394 8.477 17.394-1.21"/><path fill="none" stroke="#fff" stroke-width=".693" d="M319.562 252.068s-8.643-5.892 1.179.786c5.669 3.855 11.587 9.23 54.989 9.82 8.203.111 47.331-3.24 46.35-12.569"/><path opacity=".62" fill="#d6d7d7" d="M324.027 244.925s10.874-7.922 49.69-8.953c15.158-.403 33.556 3.886 38.524 5.097 0 0-21.754-4.32-42.252-3.886-31.06.66-45.962 7.742-45.962 7.742z"/><path fill="none" stroke="#231815" stroke-width="1.178" d="M428.579 247.347c.168-1.18.006-2.01-.673-2.219-.562-1.149-1.253-1.876-1.253-1.876s-16.971-10.84-57.823-10.229c-37.081.557-47.766 9.004-53.107 11.148-5.341 2.145-12.884 12.563-12.884 12.563s.628 1.838 8.799 1.838 6.912 1.225 9.427 4.29c2.514 3.063 3.142 16.545 3.142 20.835v82.73s-6.916 31.062 46.511 31.062c56.563 0 50.908-30.45 50.908-30.45v-88.246s0-16.546 1.258-18.384c.645-.942 2.937-5.103 4.429-8.854 1.149-1.468 1.412-2.93 1.266-4.208z"/><path fill="#fff" d="M340.456 320.024s10.296-.605 13.323 4.846c3.029 5.45 1.211 11.506 1.211 11.506s-3.027 6.056-10.295 4.845c-7.268-1.212-13.324-3.633-13.324-9.69 0-6.057-.607-10.902 9.085-11.507z"/><path opacity=".75" fill="none" stroke="#dce6ed" stroke-width=".693" d="M420.772 323.87c0 6.237-16.185 14.215-48.412 14.215-32.227 0-47.745-7.978-47.745-14.215 0-6.236 21.526-13.649 48.079-13.649s48.078 7.414 48.078 13.65z"/><path opacity=".41" fill="#efefef" stroke="#000" stroke-width="1.178" stroke-miterlimit="10" d="M332.914 204.54v161.828s3.456 3.535 8.986 3.535c5.532 0 8.296-3.929 8.296-3.929V204.54z"/><path opacity=".24" fill="#efefef" stroke="#000" stroke-width=".779" stroke-miterlimit="10" d="M336.794 205.718v162.615s1.512 1.571 3.931 1.571c2.42 0 5.154-.393 5.154-.393l.832-163.793z"/><path opacity=".11" fill="#efefef" stroke="#000" stroke-width=".779" stroke-miterlimit="10" d="M349.414 366.368c0 1.735-2.867 3.142-7.855 3.142-4.989 0-7.855-1.406-7.855-3.142s2.866-3.143 7.855-3.143c4.988.001 7.855 1.408 7.855 3.143z"/><path fill="#999" stroke="#000" stroke-width="1.178" stroke-miterlimit="10" d="M8.279 356.942v45.956l28.87 25.334s10.016 3.535 31.227 11.195c0 0 5.303 0 19.443 14.14 14.14 14.141 35.94 44.188 36.529 48.902l21.799 20.621s34.762.59 53.615-8.838l.589-4.124 127.263-52.438 1.768 4.125 15.318-8.838.59-5.303 1.767-17.676-158.489-165.557-171.451 43.01-7.66 2.946z"/><path fill="#f4f4f4" stroke="#000" stroke-width="1.178" stroke-miterlimit="10" d="m4.155 301.56 189.716-47.135 162.614 164.97s-43.6 34.172-88.377 48.312c0 0-32.994 12.962-115.479 24.745z"/><path fill="#a0a0a0" stroke="#7f7f7f" stroke-width="1.178" stroke-miterlimit="10" d="M299.923 395.827 154.985 445.32 63.073 327.483l134.333-36.53z"/><path fill="#f4f4f4" stroke="#000" stroke-width="1.178" stroke-miterlimit="10" d="m222.151 283.294 14.729 14.73 12.373-4.125s1.767-4.714-1.179-12.373c-2.946-7.659-78.95-238.617-78.95-238.617l1.178-34.762s-.589-1.768-4.713-1.768c-4.124 0-25.334 1.768-25.334 1.768l1.768 30.048z"/><linearGradient id="a" gradientUnits="userSpaceOnUse" x1="243.875" y1="168.144" x2="243.875" y2="98.071" gradientTransform="translate(-82.594 -85.799)"><stop offset="0" stop-color="#d1d1d1"/><stop offset=".006" stop-color="#cfcfcf"/><stop offset=".154" stop-color="#a8a8a8"/><stop offset=".306" stop-color="#888"/><stop offset=".463" stop-color="#6f6f6f"/><stop offset=".626" stop-color="#5d5d5d"/><stop offset=".8" stop-color="#525252"/><stop offset="1" stop-color="#4f4f4f"/></linearGradient><path opacity=".49" fill="url(#a)" d="M178.183 63.792c-3.104-9.426-4.934-14.99-4.934-14.99l1.178-34.763s-.589-1.768-4.713-1.768c-4.125 0-25.335 1.768-25.335 1.768l1.768 30.048 12.507 38.257z"/><path fill="#999" stroke="#000" stroke-width="1.178" stroke-miterlimit="10" d="m150.86 38.785 2.357-1.178 129.03 106.052 1.179 4.713"/><path fill="#999" stroke="#000" stroke-width="1.178" stroke-miterlimit="10" d="m178.552 35.84 131.976 99.57 7.07 5.892-26.513 10.016-137.868-113.71 12.373-1.769z"/><linearGradient id="b" gradientUnits="userSpaceOnUse" x1="380.16" y1="243.893" x2="413.743" y2="243.893"><stop offset="0" stop-color="#707070"/><stop offset=".083" stop-color="#646464"/><stop offset=".289" stop-color="#4b4b4b"/><stop offset=".505" stop-color="#393939"/><stop offset=".735" stop-color="#2f2f2f"/><stop offset="1" stop-color="#2b2b2b"/></linearGradient><path fill="url(#b)" stroke="#000" stroke-width="1.178" stroke-miterlimit="10" transform="translate(-82.594 -85.799)" d="m403.138 258.917 10.605-25.335-18.264-8.837-15.319 12.372v25.924l11.783-4.124z"/><linearGradient id="c" gradientUnits="userSpaceOnUse" x1="434.953" y1="249.697" x2="465.002" y2="249.697" gradientTransform="translate(-82.594 -85.799)"><stop offset="0" stop-color="#cfcfcf"/><stop offset=".08" stop-color="#bcbcbc"/><stop offset=".244" stop-color="#9c9c9c"/><stop offset=".415" stop-color="#838383"/><stop offset=".593" stop-color="#717171"/><stop offset=".782" stop-color="#676767"/><stop offset="1" stop-color="#636363"/></linearGradient><path fill="url(#c)" stroke="#000" stroke-width="1.178" stroke-miterlimit="10" d="M382.408 155.443v26.513s-3.535 1.768-6.481-1.768c-2.945-3.535-8.838-2.946-10.605-2.946h.59l-13.552-23.567s4.125-8.838 9.427-8.249c5.302.59 18.264 7.66 20.621 10.017z"/><path fill="#c4c4c4" stroke="#000" stroke-width="1.178" stroke-linecap="round" stroke-linejoin="round" stroke-miterlimit="10" d="M283.426 136 151.449 24.054l-1.178-11.194 131.387 108.41-5.303.588 12.373 10.016v14.14l8.838 5.303v25.924l-14.729-9.427v-9.426L151.449 49.39l-.589-10.605 132.566 109.587z"/><path fill="#e8e8f5" d="M327.241 379.722s14.799 17.691 43.37 16.48c28.573-1.212 43.795-11.635 45.658-16.48 0 0-12.916 16.827-49.384 15.27-35.615-1.522-31.569-12.24-39.644-15.27z"/><linearGradient id="d" gradientUnits="userSpaceOnUse" x1="83.214" y1="495.177" x2="439.078" y2="495.177" gradientTransform="translate(-82.594 -85.799)"><stop offset="0" stop-color="#a1a1a1"/><stop offset=".171" stop-color="#b1b1b1"/><stop offset=".422" stop-color="#c3c3c3"/><stop offset=".69" stop-color="#cecece"/><stop offset="1" stop-color="#d1d1d1"/></linearGradient><path fill="url(#d)" stroke="#000" stroke-width="1.178" stroke-miterlimit="10" d="M4.155 301.56.62 352.227s25.924 8.25 103.695 106.053c0 0 36.529 50.67 41.243 55.383l8.249 3.535s66.851-5.489 126.084-31.816c31.815-14.14 70.701-42.42 70.701-42.42l5.893-23.567s-36.529 29.46-80.129 45.956c-43.599 16.497-123.728 27.102-123.728 27.102z"/><path fill="#d0d4c4" d="m67.786 333.374 99.571-28.28 92.501 98.982-108.409 37.12z"/><path d="m259.858 404.076-3.535 1.178-89.555-96.625-96.625 25.924-2.357-3.535 100.161-27.103z"/><ellipse transform="rotate(5.532)" fill="none" stroke="#fff" stroke-width="1.14" stroke-miterlimit="10" cx="224.75" cy="285.178" rx="8.839" ry="5.417"/><ellipse transform="rotate(5.532)" fill="none" stroke="#fff" stroke-width="1.14" stroke-miterlimit="10" cx="237.826" cy="297.406" rx="8.839" ry="5.417"/><ellipse transform="rotate(5.532)" fill="none" stroke="#fff" stroke-width="1.14" stroke-miterlimit="10" cx="250.724" cy="308.857" rx="8.839" ry="5.417"/><ellipse transform="rotate(5.532)" fill="none" stroke="#fff" stroke-width="1.14" stroke-miterlimit="10" cx="263.628" cy="320.302" rx="8.84" ry="5.417"/><ellipse transform="rotate(5.532)" fill="none" stroke="#fff" stroke-width="1.14" stroke-miterlimit="10" cx="276.538" cy="331.745" rx="8.839" ry="5.417"/><ellipse transform="rotate(5.532)" fill="none" stroke="#fff" stroke-width="1.14" stroke-miterlimit="10" cx="289.445" cy="343.189" rx="8.839" ry="5.417"/><path fill="#f4f4f4" stroke="#000" stroke-width="1.178" stroke-linecap="round" stroke-linejoin="round" stroke-miterlimit="10" d="m140.255 8.148 34.762-4.713s5.302 2.946 3.535 5.302l-2.356.59 138.457 106.641 9.427-1.178 11.783 6.48v11.784l8.249 3.535s-5.892 1.178-5.892 3.535 5.303 5.303 11.194 5.303c5.891 0 7.659-2.357 7.659-2.357h3.535l21.21 10.016s1.768 4.124-2.356 2.357c-4.124-1.768-10.605-7.66-15.908-7.07-5.302.59-8.837 0-7.659 4.713 1.179 4.713 7.07 5.892 7.07 5.892l1.768 2.357v24.746l-8.248 2.356v-28.28l-7.66-4.125s-11.194-4.124-17.086 0c-5.892 4.125.59 4.125 4.124 7.66l1.768 2.356v27.102l-7.659 1.768-21.21-13.55 1.178-27.104s.59-2.946 4.714-2.946c4.124 0 11.194 2.357 11.194-.589v-2.946s-3.535-2.356-8.248-2.356c-4.714 0-8.249-.589-11.195 1.178-2.945 1.768-8.837 4.713-8.837 4.713l-8.838-5.303v-14.14l-15.318-10.016L152.039 18.753l-1.768-4.713h-3.535s-7.659 1.767-6.481-5.892z"/><path fill="#d1d1d1" stroke="#000" stroke-width="1.178" stroke-linecap="round" stroke-linejoin="round" stroke-miterlimit="10" d="M206.243 266.208 137.898 46.444l-1.178-3.535s-14.729-17.086-9.427-21.21c0 0 4.124-3.535 10.016 5.892 2.946 4.713 2.946 5.303 2.946 5.303l-.589-22.389s-.589-3.535 2.946-.589 2.946 2.356 2.946 14.73v19.442l76.593 239.207z"/><linearGradient id="e" gradientUnits="userSpaceOnUse" x1="411.581" y1="246.114" x2="439.094" y2="246.114" gradientTransform="translate(-82.594 -85.799)"><stop offset="0"/><stop offset=".62" stop-color="#5c5c5c"/><stop offset=".686" stop-color="#555"/><stop offset=".784" stop-color="#414141"/><stop offset=".9" stop-color="#212121"/><stop offset="1"/></linearGradient><path fill="url(#e)" stroke="#000" stroke-width="1.178" stroke-linecap="round" stroke-linejoin="round" stroke-miterlimit="10" d="m328.987 158.976 6.286-4.123 1.176-35.94s-.785-5.893 6.678-5.107c5.469.575 4.714 7.07 4.714 7.07v32.21s3.93 1.768 6.284 5.498c2.721 4.31 2.359 7.464 2.359 7.464v36.135s-4.716 4.713-13.357 4.713c-8.641 0-14.14-3.142-14.14-3.142l.002-9.426 8.641-1.179v-27.102z"/><path fill="none" stroke="#000" stroke-width="2.357" stroke-miterlimit="10" d="M341.165 113.611c-10.211-10.605-32.358-8.433-43.604-7.27-6.881.71-11.653.538-17.321-5.045-5.774-5.688-9.277-9.996-16.832-13.98-14.004-7.387-25.467-17.384-37.966-26.713-7.426-5.543-14.106-12.574-21.342-18.113-6.93-5.304-14.092-10.667-20.387-17.085-7.028-7.166-15.811-12.163-23.8-17.849-7.927-5.642-14.91-10.985-17.89.003"/><linearGradient id="f" gradientUnits="userSpaceOnUse" x1="116.163" y1="491.383" x2="157.712" y2="540.899" gradientTransform="translate(-82.594 -85.799)"><stop offset="0" stop-color="#707070"/><stop offset=".098" stop-color="#595959"/><stop offset=".26" stop-color="#393939"/><stop offset=".427" stop-color="#202020"/><stop offset=".601" stop-color="#0e0e0e"/><stop offset=".786" stop-color="#030303"/><stop offset="1"/></linearGradient><path fill="url(#f)" d="M39.114 429.212v-28.28s29.852 30.638 44.385 47.135c0 0-11.392-8.246-15.123-8.64-3.731-.393-29.262-10.215-29.262-10.215z"/><path fill="none" stroke="#494c47" stroke-width=".589" stroke-miterlimit="10" d="m73.678 338.875 91.912-25.924m-66.774 56.561 91.127-26.71m-48.705 80.915 95.839-31.424"/><ellipse opacity=".1" fill="#efefef" stroke="#000" stroke-width=".779" stroke-miterlimit="10" cx="341.165" cy="363.128" rx="3.535" ry="3.24"/><path opacity=".68" fill="none" stroke="#b6bdc3" stroke-width="2.079" stroke-linecap="round" stroke-linejoin="round" d="M426.302 246.765s.589 17.97-56.562 17.676c-49.493-.255-52.152-10.546-52.152-10.546l-1.757-.06"/><path opacity=".41" fill="#fff" d="M345.29 331.018c-11.195-.589-8.7-4.098-12.376-5.032v40.972s3.456 3.535 8.986 3.535c5.532 0 8.296-3.929 8.296-3.929v-36.83c-1.213.065-3.635 1.35-4.906 1.284z"/><linearGradient id="g" gradientUnits="userSpaceOnUse" x1="420.224" y1="262.157" x2="391.354" y2="262.157" gradientTransform="translate(-82.594 -85.799)"><stop offset="0" stop-color="#cfcfcf"/><stop offset=".137" stop-color="#b8b8b8"/><stop offset=".331" stop-color="#9f9f9f"/><stop offset=".534" stop-color="#8e8e8e"/><stop offset=".75" stop-color="#838383"/><stop offset="1" stop-color="gray"/></linearGradient><path fill="url(#g)" stroke="#000" stroke-width="1.178" stroke-miterlimit="10" d="M309.349 158.39s15.318 11.783 18.854 11.783c3.536 0 9.427-1.768 9.427-1.768v24.157l-8.641 1.768-20.229-12.962z"/><linearGradient id="h" gradientUnits="userSpaceOnUse" x1="387.398" y1="237.666" x2="401.209" y2="199.721"><stop offset="0" stop-color="#dbdbdb"/><stop offset=".23" stop-color="#cacaca"/><stop offset=".726" stop-color="#aaa"/><stop offset="1" stop-color="#9e9e9e"/></linearGradient><path fill="url(#h)" stroke="#000" stroke-width="1.178" stroke-miterlimit="10" transform="translate(-82.594 -85.799)" d="M418.456 207.069v9.427l-47.134 15.318v-14.14l43.6-12.962z"/></svg>