<svg xmlns="http://www.w3.org/2000/svg" version="1.0" viewBox="0 0 82.205 54.917"><defs><clipPath clipPathUnits="userSpaceOnUse" id="a"><path d="M-.32.16h82.11v54.927H-.32z"/></clipPath></defs><path d="M19.628 17.63v19.987h4.317V17.63h-4.317z" fill="#c1dffd" fill-rule="evenodd" fill-opacity="1" stroke="none"/><path d="M19.628 17.63h4.317v19.987h-4.317z" fill="none" stroke="#000" stroke-width=".63961238px" stroke-linecap="round" stroke-linejoin="round" stroke-miterlimit="4" stroke-dasharray="none" stroke-opacity="1"/><path d="M12.752 17.63v19.987h3.678V17.63h-3.678z" fill="#c1dffd" fill-rule="evenodd" fill-opacity="1" stroke="none"/><path d="M12.752 17.63h3.678v19.987h-3.678z" fill="none" stroke="#000" stroke-width=".63961238px" stroke-linecap="round" stroke-linejoin="round" stroke-miterlimit="4" stroke-dasharray="none" stroke-opacity="1"/><path d="M6.116 17.63v19.987h2.479V17.63H6.116z" fill="#c1dffd" fill-rule="evenodd" fill-opacity="1" stroke="none"/><path d="M6.116 17.63h2.479v19.987H6.116z" fill="none" stroke="#000" stroke-width=".63961238px" stroke-linecap="round" stroke-linejoin="round" stroke-miterlimit="4" stroke-dasharray="none" stroke-opacity="1"/><path d="M.6 17.63v19.987h1.679V17.63H.599z" fill="#c1dffd" fill-rule="evenodd" fill-opacity="1" stroke="none"/><path d="M.6 17.63h1.679v19.987H.599z" fill="none" stroke="#000" stroke-width=".63961238px" stroke-linecap="round" stroke-linejoin="round" stroke-miterlimit="4" stroke-dasharray="none" stroke-opacity="1"/><path d="M79.712 25.025 56.925 2.179c-1.579-1.58-4.337-1.18-6.296.8l-2.758 2.758c-1.959 2.358-2.738 5.116-1.16 6.296 0 0 2.34 2.358 5.098 5.516H26.264v20.088H51.81c-2.759 2.759-5.097 5.117-5.097 5.117-1.58 1.58-.8 4.337 1.159 6.316l2.758 2.759c1.96 2.358 4.717 2.738 6.297 1.179l22.786-22.846c1.159-1.58 1.159-3.958 0-5.137z" fill="#c1dffd" fill-rule="evenodd" fill-opacity="1" stroke="none"/><path clip-path="url(#a)" d="M79.712 25.025 56.925 2.179c-1.579-1.58-4.337-1.18-6.296.8l-2.758 2.758c-1.959 2.358-2.738 5.116-1.16 6.296 0 0 2.34 2.358 5.098 5.516H26.264v20.088H51.81c-2.759 2.759-5.097 5.117-5.097 5.117-1.58 1.58-.8 4.337 1.159 6.316l2.758 2.759c1.96 2.358 4.717 2.738 6.297 1.179l22.786-22.846c1.159-1.58 1.159-3.958 0-5.137" fill="none" stroke="#000" stroke-width=".63961238px" stroke-linecap="round" stroke-linejoin="round" stroke-miterlimit="4" stroke-dasharray="none" stroke-opacity="1"/></svg>