<svg xmlns="http://www.w3.org/2000/svg" version="1.0" viewBox="0 0 53.329 62.929"><defs><clipPath clipPathUnits="userSpaceOnUse" id="a"><path d="M.16.16h53.248v62.922H.16z"/></clipPath></defs><path d="M47.931 52.848H23.566c-2.359 0-3.138-1.58-3.138-2.758V32.74l10.993 4.338L16.091.76.76 37.078l10.613-4.338v21.687c0 4.357 3.538 7.495 7.476 7.495H47.93c2.359 0 4.317-1.958 4.317-4.337 0-2.758-1.958-4.737-4.317-4.737z" fill="#c1dffd" fill-rule="evenodd" fill-opacity="1" stroke="none"/><path clip-path="url(#a)" d="M47.931 52.848H23.566c-2.359 0-3.138-1.58-3.138-2.758V32.74l10.993 4.338L16.091.76.76 37.078l10.613-4.338v21.687c0 4.357 3.538 7.495 7.476 7.495H47.93c2.359 0 4.317-1.958 4.317-4.337 0-2.758-1.958-4.737-4.317-4.737" fill="none" stroke="#000" stroke-width=".79951543px" stroke-linecap="round" stroke-linejoin="round" stroke-miterlimit="4" stroke-dasharray="none" stroke-opacity="1"/></svg>