<svg xmlns="http://www.w3.org/2000/svg" version="1.0" viewBox="0 0 223.635 342.123"><defs><clipPath clipPathUnits="userSpaceOnUse" id="a"><path d="M-.32 1.999h223.385V344.35H-.32z"/></clipPath></defs><path d="M30.422 3.158v339.634H197.52V3.158H30.422z" fill="#acb9d8" fill-rule="evenodd"/><path d="M156.185 16.35 38.896 163.7M130.201 7.475 40.416 120.287m154.946-46.852L30.582 280.19m162.221-92.983L82.39 325.603" fill="none" stroke="#fff" stroke-width=".64" stroke-linecap="round" stroke-linejoin="round"/><path d="M184.648 183.689 73.116 323.764" fill="none" stroke="#fff" stroke-width=".32" stroke-linecap="round" stroke-linejoin="round"/><path d="M188.006 29.622 34.74 221.985" fill="none" stroke="#fff" stroke-width=".64" stroke-linecap="round" stroke-linejoin="round"/><path d="M192.004 133.24 84.069 279.95m107.935-146.71L81.27 278.83" fill="none" stroke="#fff" stroke-width=".16" stroke-linecap="round" stroke-linejoin="round"/><path d="M30.422 3.158H197.52v48.93s-1.719 2.799-3.917 1.4c-2.159-1.4-2.159 4.397-6.516-2.08 0 0-8.036 12.953-11.513 5.557-3.478-7.435-8.715-1.639-9.595-7.195-.84-5.557-15.87 20.148-28.942 8.355-13.032-11.833-11.953-6.716-17.83-3.238-6.076 3.478-19.787 2.518-20.227-11.593 0 0-3.038.92-5.876-1.16-2.599-1.878-5.237-3.717-11.753.92-6.316 4.637-20.228 12.752-24.386-5.117 0 0-18.029 17.63-26.543-8.115V3.158z" fill="#97a0b1" fill-rule="evenodd"/><path clip-path="url(#a)" d="M30.422 3.158H197.52v48.93s-1.719 2.799-3.917 1.4c-2.159-1.4-2.159 4.397-6.516-2.08 0 0-8.036 12.953-11.513 5.557-3.478-7.435-8.715-1.639-9.595-7.195-.84-5.557-15.87 20.148-28.942 8.355-13.032-11.833-11.953-6.716-17.83-3.238-6.076 3.478-19.787 2.518-20.227-11.593 0 0-3.038.92-5.876-1.16-2.599-1.878-5.237-3.717-11.753.92-6.316 4.637-20.228 12.752-24.386-5.117 0 0-18.029 17.63-26.543-8.115V3.158z" fill="none" stroke="#fff" stroke-width=".8" stroke-miterlimit="8"/><path d="M189.365 107.095 38.257 294.981" fill="none" stroke="#fff" stroke-width=".32" stroke-linecap="round" stroke-linejoin="round" stroke-miterlimit="10"/><path clip-path="url(#a)" d="M98.86 43.334s3.278-.2 6.556-4.158c0 0 12.033 5.317 16.15-1.159 4.158-6.756 13.352-9.514 17.71-10.234 4.357-.44 5.676-6.716 1.279-9.274 0 0 8.515-8.835 2.198-15.35" fill="none" stroke="#fff" stroke-width=".8" stroke-miterlimit="8"/><path d="M30.422 284.667v58.125H197.52v-58.125H30.422z" fill="#bd7340" fill-rule="evenodd"/><path d="M30.422 284.348H197.52v58.444H30.422z" fill="none" stroke="#343434" stroke-width=".32" stroke-linecap="round" stroke-linejoin="round" stroke-miterlimit="10"/><path d="M30.422 3.318H197.52v339.794H30.422z" fill="none" stroke="#343434" stroke-width=".8" stroke-linecap="round" stroke-linejoin="round" stroke-miterlimit="10"/><path d="M132 290.344c0 1.679 30.541 0 35.978-.24 8.515-.48 17.23 0 25.705 0-2.399 0-4.757.96-6.956 1.44-3.718.919-6.556.679-10.034.24-6.316-.72-12.193.439-18.07 1.638-3.077.72-6.355 1.4-9.393.72-2.16-.48-4.118-1.44-6.516-1.44-3.718-.24-7.436-.48-11.154-.48zm-37.098-.4c-5.876 0-11.313-.48-16.99.24-7.635.68-14.35 1.12-21.786.2-4.557-.44-9.354-.2-13.912-.2-3.477 0-7.395 1.839-10.913 1.12 6.996 1.838 14.831 1.638 22.027 1.399 5.197-.24 11.073-1.84 16.31-1.16 1.319.24 2.398 1.4 3.917 1.4 1.08 0 2.639-.48 3.918-.72 2.638-.2 5.037-.44 7.635-.68 3.039-.24 6.956-.68 9.994-.44zm33.14 6.476c1.96 0 6.117-.96 9.155-.72 3.917.24 7.635.48 11.553.96 4.117.44 8.035-.72 12.152-.72 3.918 0 7.836.48 11.753.48-10.433 2.08-20.427 1.88-30.9.92-4.118-.44-9.355-.92-13.473 0zm-36.298-3.438c-7.195 1.6-15.87 2.08-23.305 1.84-4.997 0-9.555-.68-14.352.479-3.718.88-6.756 0-10.473.2 9.394 2.279 19.388-.2 28.742 0 6.996.24 13.512-.2 20.028-2.279zm64.921 6.237c11.553 2.078 24.385-2.559 35.658-2.559-5.836-.48-11.273 3.038-16.95 3.278-2.598 0-5.196.68-7.595.44-2.398 0-5.237-1.16-7.395-.24zM64.64 298.5c-5.876.239-11.552 0-17.429.719-2.598.24-5.236.72-7.835.96-1.759.239-4.357-.24-5.916.958 3.717 0 6.995 1.2 10.713.72 3.238-.48 6.316-1.44 9.355-2.159 4.157-.72 7.835-.72 11.752-.72zm65.081 3.517c0 1.44 1.96 0 3.278-.48 2.359-.72 4.957-.72 7.556-.72 3.917 0 7.595-1.199 11.473-.479-4.078-.24-9.075.96-13.192 1.679-2.599.48-5.197.24-7.596.24zm6.596 9.794v.92c.68-1.4 2.399-2.799 3.958-2.799 1.719.24 1.719 1.879 3.038 2.559 2.399 1.199 5.437-.2 5.677 4.197 3.278 0 6.316 1.16 9.354 1.64 2.838.679 5.237.439 7.875 1.838 3.278 1.4 2.839 0 6.316-1.6 3.039-1.398 5.437-.239 6.996 2.76 7.396-6.717 6.077 6.515 9.994 8.634-3.678.2-4.997-2.798-7.835-4.677-2.838-1.839-4.997-.44-8.275-.92-2.199-.24-4.357-1.159-6.756-1.399-1.959-.24-3.958-.44-5.916-.92-5.237-1.398-11.114-3.477-16.55-2.558-3.079.68-2.839 1.4-5.037-.72-1.28-1.358-3.278-2.518-2.839-4.876zm-43.213-10.474c-3.918-1.399-2.839 2.559-1.96 4.877-1.958.68-3.037 1.84-2.398 3.718-3.038-1.399-4.117 1.4-6.516 2.319-3.278.92-4.997.92-6.316-2.559-1.28 1.64-2.159 4.158-4.317 4.637-.68.24-1.76-1.159-2.839-.919-1.519.24-2.198 2.319-3.478 2.758-1.958.72-2.838 0-4.797 0-.88 0-2.798.24-3.478.72-.879.24-1.719 1.839-2.398 1.839-.84.24-2.159-1.16-3.038-1.4-2.799-.679-.84.48-3.038 1.16-1.96.96-3.918-.2-6.516 0-2.599.24-3.478 2.319-5.437 3.478-1.32.72-3.038.96-4.797.96 1.959.439 3.917 1.358 6.116 1.838 3.678.68 5.197.24 8.475-.92 2.398-.919 4.557.68 6.956.24 1.519-.24 3.238-1.638 4.557-2.118 3.278-1.36 5.876-1.6 9.114-2.519 2.2-.48 3.718-.48 5.677-.24 1.719 0 3.038-.719 4.317-.48 1.56 0 2.199.92 3.478 1.16 2.199.48 1.12.72 3.278-.92 1.76-1.398 4.118-2.078 5.637-3.717 1.759-2.319 4.997-10.194 3.917-13.192zm24.625 31.341c-.2-2.358-2.799-5.836-5.637-4.437-.64-4.477-2.398-3.758-5.437-1.2-2.198 1.88-2.398 2.6-4.997 2.84-2.198.199-3.478.199-5.436 1.158-2.639 1.64-2.639 2.08-5.677 1.16-1.08-.24-2.598-1.16-3.918-1.16-2.398.24-2.158 1.88-3.677 3.278-.88.68-3.078 1.16-3.518 1.4 1.959.24 4.157.44 6.316 0 2.399-.24 5.037-2.359 7.396-2.12 2.198.24 2.838 1.4 5.036 1.16 1.52-.2 3.239-.44 4.997-.68 1.96 0 2.839-.959 4.558-1.638.64-.48 3.478-1.88 4.157-1.88 1.72 0 1.72 1.4 3.038 2.12 1.28.44 1.72.44 2.799.24zm6.955.64c3.478-2.359 5.237 2.079 8.036 2.558 2.398.48 4.997-1.159 7.395-1.399 4.557-.48 11.713.68 14.951 3.718-4.317.48-8.875.92-13.432.48-2.398-.24-4.357-1.16-6.756-1.16-1.719 0-2.798.44-4.757 0-1.519-.24-2.598-1.399-4.357-1.399-1.52 0-2.359.92-3.878 1.16-2.199 0-3.718-1.88-5.676-.92 2.638.92 7.635-3.518 9.554-3.038z" fill="#a05724" fill-rule="evenodd"/><path d="M101.179 239.415v-17.39c.2-3.038-1.76-5.356-5.877-3.717-4.157 1.839-10.034 6.276-13.711 10.913-3.718 4.397-8.076 6.236-13.073 6.716-4.996.24-11.313 6.956-18.069 4.637-6.955-2.079-9.994-1.399-13.272-4.397-3.477-2.798-8.035-7.915-10.433-8.835-2.399-1.16-4.358-8.355-6.956-8.794-2.838-.48-8.915-3.478-10.474-4.198 0 0 6.117 2.559 9.794 3.238 3.718.96 3.518 1.4 5.477 4.437 1.72 2.999 5.637 4.398 8.235 6.956 2.838 2.559 3.918 2.998 6.556 3.718 2.599.68 3.918 1.16 5.437 2.079 1.519.92 1.959-.68 6.516.48 4.357 1.159 8.715 1.598 7.635-1.64-.88-3.477-4.157-5.356-4.797-7.875-.64-2.558-2.598-5.596-4.357-6.996-1.52-1.599-5.237-1.359-7.396-2.758-2.158-1.16-5.237-2.319-5.237-2.319s3.718 0 5.677.92c1.719.92 6.516-.24 9.115 3.478 2.638 3.718 3.517 3.238 5.236 6.036 1.52 2.798 2.399 8.835 6.317 8.835 3.717.2 6.516-3.278 9.354-3.038 2.598.24 6.316-2.319 8.075-4.638 1.719-2.078 13.912-15.79 14.111-17.389 0 0-2.158-.96-3.238-1.879-1.079-1.16-1.759-1.16-3.478.24-1.519 1.4-6.995.68-8.954-1.16-1.72-1.878-6.516-5.356-7.596-6.275-1.079-1.16-4.797-5.317-6.116-4.158-1.519 1.16-5.197 0-6.516 1.6-1.32 1.878-5.437 3.717-6.076 6.035-.88 2.319-3.278 2.319-6.556 2.559-3.238.24-13.912-1.16-13.912-1.16s12.393.68 14.152 0c1.958-.919 3.677-3.477 5.436-4.637 1.72-.92 3.278-4.637 4.997-4.197 1.96.24 3.038-1.16 1.32-1.839-1.76-.68-10.234-1.839-13.712-1.639-3.478 0-13.952 1.639-17.19-1.839-3.038-3.478-10.673-9.754-13.951-9.754 0 0 7.835 2.319 10.234 4.198 2.198 1.838 5.436 5.316 8.914 4.397 3.518-.68 13.512.48 16.99.68 3.478.24 16.31 0 20.028 3.717 3.478 3.478 11.753 10.914 15.03 9.275 3.239-1.6 9.555-6.477 13.033-5.557 0 0 .24-4.877-2.599-9.274-2.838-4.398-4.357-7.196-4.357-9.075.2-1.839.64-9.954-1.32-10.873-1.958-1.16-3.037-2.12-5.636-4.877-2.638-3.039-8.915-5.357-11.753-5.797-2.838-.48-5.676-1.4-7.635.2-1.959 1.639-5.437.24-7.596 1.4-1.958.919-5.676 7.914-11.113 8.114 0 0 4.997-1.839 5.677-3.917.64-2.319 4.117-5.357 4.117-5.357s0-.44-2.398-1.16c-2.159-.68-6.316-3.957-8.475-2.558-1.959 1.64-7.636-.44-9.794 1.4 0 0 4.797-2.8 6.956-2.56 1.958 0 4.357-2.758 7.835-.919 3.478 1.88 7.835 3.958 10.673 4.198 3.039.2 7.156-1.88 9.555-1.64 2.398.24 5.037-1.878 8.954 1.16 4.118 2.998 15.43 10.913 15.67 6.516 0-4.437.2-16.27-.24-20.667-.639-4.198 1.76-7.436-1.318-9.515-3.039-1.878-4.997-3.717-6.716-3.717-1.96 0-3.278-1.4-4.598-3.718-1.519-2.319-2.798-9.274-5.876-12.752 0 0 3.718 5.316 5.037 8.594 1.28 3.239 3.038 3.918 6.516 6.237 3.478 2.318 7.396.24 7.835 3.478.2 3.038 1.52 6.516 2.399 9.074 1.08 2.559 2.398 13.432 1.08 17.87-1.32 4.397-1.96 6.275-1.76 10.433.24 4.197-.84 9.994 1.12 12.312 1.958 2.08 3.477 3.238 4.557 7.636 1.319 4.637 6.316 7.195 6.756 9.074.44 1.84 3.917.44 3.917.44s2.399-5.317 4.757-6.236c2.399-.72-.2-7.196-2.798-10.674-2.398-3.518-3.078-5.356-1.519-8.355 1.52-3.278 6.516-10.713 5.876-15.55-.879-4.877-.68-15.35-3.078-17.43-2.398-1.839-5.436-3.478-6.076-6.716-.64-3.238-3.718-13.911-6.956-14.87 0 0 4.757 4.876 6.516 10.233 1.76 5.317 3.278 9.035 4.358 7.196.88-1.64.64-2.559 1.519-5.597.64-2.758 5.436-11.353 4.997-15.07-.44-3.958-1.28-9.035-.64-14.872 0 0-.44 2.359.88 6.277 1.519 3.957 2.158 9.754.839 13.471-1.52 3.478-4.317 8.835-4.117 12.513 0 3.957 1.319 4.677 2.398 8.355.88 3.957 1.719 9.754 1.719 9.754s.24-6.276 6.756-8.595c6.556-2.518 26.544-14.591 31.34-21.547 0 0-11.512 14.351-19.787 17.87-8.275 3.477-3.278 4.157-3.038 4.397.4.24 4.117 6.716 8.035 6.036 4.117-.72 17.39-2.798 20.468-5.117 0 0-10.034 5.357-13.952 5.557-3.918 0-6.956 3.038-10.634.96-3.717-2.32-5.037-6.757-8.514-6.517-3.478.24-5.197 1.4-6.077 5.117-.88 3.918-2.398 7.635-3.917 10.674-1.52 2.998-7.396 12.992-6.317 16.47 1.08 3.477 1.96 4.157 3.478 8.115 1.52 3.717 1.32 6.276 4.797 4.397 3.238-2.079 4.798-4.837 7.156-8.555 2.638-3.957 4.797-7.675 9.594-9.994 4.797-2.318 12.193-12.512 15.67-12.752 3.679-.48 7.836-9.754 12.393-9.075 4.597.72 8.915-.44 12.193-.44 3.278.24 6.316 0 11.313 1.84 4.797 1.639 19.828-3.718 22.187-.24 0 0-5.197-1.36-9.115 1.639-4.157 2.798-9.354 2.798-14.79 2.998-5.438 0-6.117-.44-3.08 2.119 2.84 2.758 4.358 3.478 6.117 4.877 1.52 1.359 4.797 1.599 7.396 4.157 0 0-1.52-1.16-4.358-1.599-2.838-.24-4.797-1.639-7.395-3.278-2.838-1.599-5.437-8.355-8.915-8.595-3.478-.2-10.034-2.998-12.632 0-2.599 3.278-3.918 5.597-7.835 8.355-3.918 2.799-11.953 9.075-8.715 11.633 3.278 2.559 5.876 5.077 8.075 6.956 2.399 1.839 8.035 4.877 10.873 6.716 2.599 2.079 6.317 3.478 10.674 2.319 4.118-1.16 12.832-2.999 16.11-1.16 0 0-2.638-.68-6.116.48-3.278 1.16-13.912 3.238-18.07 2.079-3.917-1.16-14.99-10.674-13.71-6.476 1.318 3.917 1.518 8.554 4.796 10.433 3.478 1.84 9.994 6.037 11.313 8.795 1.32 3.038 1.76 6.276 3.718 7.675 0 0-3.917-3.238-4.357-5.556-.68-2.559-8.275-2.559-12.193-7.676-3.917-4.877-4.357-8.834-5.436-11.833-.88-2.998-.68-5.796-5.437-7.875-4.997-2.118-7.196-4.877-10.034-1.879-2.798 3.039-5.877 4.198-6.076 8.355 0 4.398-2.399 6.956-3.718 7.676-1.52.68-2.798 1.599-.44 2.758 2.399 1.16 4.158 3.478 7.436 3.278 3.238-.24 10.873-6.956 18.269-1.639 0 0-4.158-3.238-9.155 0-4.797 3.478-9.994 3.478-13.032 2.558-3.078-1.159-7.635-4.877-9.394-1.159-1.72 3.478-5.437 6.037-3.038 7.875 2.398 1.88 3.038-1.159 4.797 1.16 1.958 2.558 5.236 1.879 6.955 2.558 1.96.92 4.797-1.16 8.075.92 3.478 2.318 7.156 4.437 10.634 4.877 3.478.48 8.515 2.118 10.674 3.478 2.198 1.159 17.429 2.118 21.786 1.159 4.558-.92 8.915-6.037 14.112-3.478 0 0-6.077-.24-8.675 3.038-2.398 3.478-8.954 4.397-11.313 4.397-2.199 0-3.278.92-1.959 2.08 1.08 1.158 4.317 7.195 6.716 7.435 2.399 0 3.718 1.159 6.996.24 3.238-1.16 6.276-1.16 9.354 1.159 0 0-3.478-2.559-6.996-.72-3.478 1.64-6.076.24-8.035.72-2.158.48-4.797-2.079-6.956-3.958-2.198-1.839-2.638-6.956-7.635-7.435-4.997-.68-8.715-1.36-12.392-2.079-3.918-.68-13.912-3.478-15.87-4.637-1.96-1.16-5.238-.92-4.158.72 1.319 1.598 3.478 5.796 4.557 8.354 1.32 2.319 2.638 5.317 6.316 5.797 3.718.2 7.835-.72 10.034 1.839 2.159 2.798 3.678 1.159 5.437 4.397 1.719 3.278 1.519 3.718 3.678 3.038 2.398-.92 11.313-4.397 15.67-1.879 0 0-8.915-.2-11.753 2.119-3.038 2.319-6.316 3.718-3.917 4.397 2.638.68 5.876 0 8.275 1.64 2.398 1.359 3.278 1.598 6.116 3.917 3.038 2.319 14.151-2.079 16.95 2.798 0 0-3.478-3.238-10.234-1.639-6.716 1.88-7.835 3.718-10.194.96-2.399-2.799-8.715-2.359-12.872-4.877-3.918-2.799-3.478-6.516-6.316-8.835-2.799-2.558-9.795-3.478-11.314-4.397-1.519-.96-3.038-.72-3.038 1.399.24 2.079 1.52 3.478 5.677 6.476 4.117 2.798 6.716 6.716 8.035 10.913 1.08 4.158 2.598 8.355 6.756 8.115 3.917-.44 6.076-2.078 8.715 1.88 0 0-.88-2.56-3.918-1.64-3.078.92-8.715 3.718-11.113-.68-2.599-4.197-1.76-13.471-6.756-15.11-4.997-1.84-9.115-5.117-9.794-9.275-.84-4.397-1.28-9.274-3.918-11.153-2.598-1.839-4.557-9.274-7.395-7.395-3.039 1.839-3.039-1.64-6.516.68-3.478 2.558-6.317 2.558-4.798 8.354 1.52 5.797 1.76 14.391 0 20.868-1.719 6.516-.88 17.429 1.96 22.546 2.838 5.077 3.037 12.752 3.277 19.468.2 6.756 0 15.79 2.839 19.029 2.798 3.238 3.477 18.588 15.67 19.508 0 0-6.116 2.078-7.635.92-1.52-1.16-4.797-1.84-6.077 0-1.319 1.878-2.398 3.957-4.597 1.878-2.159-2.119-11.313-9.314-13.712-4.437 0 0-3.917-4.398-7.595-.68-3.718 3.718-7.196 6.956-14.151 6.276-6.956-.48-8.075-.48-9.355.92-1.08 1.599-3.278 3.917-7.195 3.238-4.118-.92-8.915-1.84-11.513-1.84 0 0 13.272 1.16 14.111-1.878.88-2.998 3.078-7.196 6.996-7.435 3.678-.44 6.956-5.317 8.914-13.672 1.96-8.355 6.077-16.03 5.197-21.827-1.519-9.514 3.278-20.627 3.078-27.143 0-2.559-.24-7.676-.24-13.472 0 0-2.158-2.999-4.117-2.759-2.199.2-4.157.44-6.116-.96-1.96-1.598-5.197-4.396-8.035-3.237-2.839.92-6.516 4.197-8.915 3.478-2.399-.68-5.677-1.4-7.635 0 0 0 3.478-2.079 6.756-1.16 3.038 1.16 7.395-4.157 11.313-3.717 3.917.48 6.756 3.038 9.594 3.038 2.598.24 5.197-2.798 6.956-1.64z" fill="#47231c" fill-rule="evenodd"/><path d="M101.179 239.415v-17.39c.2-3.038-1.76-5.356-5.877-3.717-4.157 1.839-10.034 6.276-13.711 10.913-3.718 4.397-8.076 6.236-13.073 6.716-4.996.24-11.313 6.956-18.069 4.637-6.955-2.079-9.994-1.399-13.272-4.397-3.477-2.798-8.035-7.915-10.433-8.835-2.399-1.16-4.358-8.355-6.956-8.794-2.838-.48-8.915-3.478-10.474-4.198 0 0 6.117 2.559 9.794 3.238 3.718.96 3.518 1.4 5.477 4.437 1.72 2.999 5.637 4.398 8.235 6.956 2.838 2.559 3.918 2.998 6.556 3.718 2.599.68 3.918 1.16 5.437 2.079 1.519.92 1.959-.68 6.516.48 4.357 1.159 8.715 1.598 7.635-1.64-.88-3.477-4.157-5.356-4.797-7.875-.64-2.558-2.598-5.596-4.357-6.996-1.52-1.599-5.237-1.359-7.396-2.758-2.158-1.16-5.237-2.319-5.237-2.319s3.718 0 5.677.92c1.719.92 6.516-.24 9.115 3.478 2.638 3.718 3.517 3.238 5.236 6.036 1.52 2.798 2.399 8.835 6.317 8.835 3.717.2 6.516-3.278 9.354-3.038 2.598.24 6.316-2.319 8.075-4.638 1.719-2.078 13.912-15.79 14.111-17.389 0 0-2.158-.96-3.238-1.879-1.079-1.16-1.759-1.16-3.478.24-1.519 1.4-6.995.68-8.954-1.16-1.72-1.878-6.516-5.356-7.596-6.275-1.079-1.16-4.797-5.317-6.116-4.158-1.519 1.16-5.197 0-6.516 1.6-1.32 1.878-5.437 3.717-6.076 6.035-.88 2.319-3.278 2.319-6.556 2.559-3.238.24-13.912-1.16-13.912-1.16s12.393.68 14.152 0c1.958-.919 3.677-3.477 5.436-4.637 1.72-.92 3.278-4.637 4.997-4.197 1.96.24 3.038-1.16 1.32-1.839-1.76-.68-10.234-1.839-13.712-1.639-3.478 0-13.952 1.639-17.19-1.839-3.038-3.478-10.673-9.754-13.711-9.754 0 0 7.595 2.319 9.994 4.198 2.198 1.838 5.436 5.316 8.914 4.397 3.518-.68 13.512.48 16.99.68 3.478.24 16.31 0 20.028 3.717 3.478 3.478 11.753 10.914 15.03 9.275 3.239-1.6 9.555-6.477 13.033-5.557 0 0 .24-4.877-2.599-9.274-2.838-4.398-4.357-7.196-4.357-9.075.2-1.839.64-9.954-1.32-10.873-1.958-1.16-3.037-2.12-5.636-4.877-2.638-3.039-8.915-5.357-11.753-5.797-2.838-.48-5.676-1.4-7.635.2-1.959 1.639-5.437.24-7.596 1.4-1.958.919-5.676 7.914-11.113 8.114 0 0 4.997-1.839 5.677-3.917.64-2.319 4.117-5.357 4.117-5.357s0-.44-2.398-1.16c-2.159-.68-6.316-3.957-8.475-2.558-1.959 1.64-7.636-.44-9.794 1.4 0 0 4.797-2.8 6.956-2.56 1.958 0 4.357-2.758 7.835-.919 3.478 1.88 7.835 3.958 10.673 4.198 3.039.2 7.156-1.88 9.555-1.64 2.398.24 5.037-1.878 8.954 1.16 4.118 2.998 15.43 10.913 15.67 6.516 0-4.437.2-16.27-.24-20.667-.639-4.198 1.76-7.436-1.318-9.515-3.039-1.878-4.997-3.717-6.716-3.717-1.96 0-3.278-1.4-4.598-3.718-1.519-2.319-2.798-9.274-5.876-12.752 0 0 3.718 5.316 5.037 8.594 1.28 3.239 3.038 3.918 6.516 6.237 3.478 2.318 7.396.24 7.835 3.478.2 3.038 1.52 6.516 2.399 9.074 1.08 2.559 2.398 13.432 1.08 17.87-1.32 4.397-1.96 6.275-1.76 10.433.24 4.197-.84 9.994 1.12 12.312 1.958 2.08 3.477 3.238 4.557 7.636 1.319 4.637 6.316 7.195 6.756 9.074.44 1.84 3.917.44 3.917.44s2.399-5.317 4.757-6.236c2.399-.72-.2-7.196-2.798-10.674-2.398-3.518-3.078-5.356-1.519-8.355 1.52-3.278 6.516-10.713 5.876-15.55-.879-4.877-.68-15.35-3.078-17.43-2.398-1.839-5.436-3.478-6.076-6.716-.64-3.238-3.718-13.911-6.956-14.87 0 0 4.757 4.876 6.516 10.233 1.76 5.317 3.278 9.035 4.358 7.196.88-1.64.64-2.559 1.519-5.597.64-2.758 5.436-11.353 4.997-15.07-.44-3.958-1.28-9.035-.64-14.872 0 0-.44 2.359.88 6.277 1.519 3.957 2.158 9.754.839 13.471-1.52 3.478-4.317 8.835-4.117 12.513 0 3.957 1.319 4.677 2.398 8.355.88 3.957 1.719 9.754 1.719 9.754s.24-6.276 6.756-8.595c6.556-2.518 26.544-14.591 31.34-21.547 0 0-11.512 14.351-19.787 17.87-8.275 3.477-3.278 4.157-3.038 4.397.4.24 4.117 6.716 8.035 6.036 4.117-.72 17.39-2.798 20.468-5.117 0 0-10.034 5.357-13.952 5.557-3.918 0-6.956 3.038-10.634.96-3.717-2.32-5.037-6.757-8.514-6.517-3.478.24-5.197 1.4-6.077 5.117-.88 3.918-2.398 7.635-3.917 10.674-1.52 2.998-7.396 12.992-6.317 16.47 1.08 3.477 1.96 4.157 3.478 8.115 1.52 3.717 1.32 6.276 4.797 4.397 3.238-2.079 4.798-4.837 7.156-8.555 2.638-3.957 4.797-7.675 9.594-9.994 4.797-2.318 12.193-12.512 15.67-12.752 3.679-.48 7.836-9.754 12.393-9.075 4.597.72 8.915-.44 12.193-.44 3.278.24 6.316 0 11.313 1.84 4.797 1.639 19.828-3.718 22.187-.24 0 0-5.197-1.36-9.115 1.639-4.157 2.798-9.354 2.798-14.79 2.998-5.438 0-6.117-.44-3.08 2.119 2.84 2.758 4.358 3.478 6.117 4.877 1.52 1.359 4.797 1.599 7.396 4.157 0 0-1.52-1.16-4.358-1.599-2.838-.24-4.797-1.639-7.395-3.278-2.838-1.599-5.437-8.355-8.915-8.595-3.478-.2-10.034-2.998-12.632 0-2.599 3.278-3.918 5.597-7.835 8.355-3.918 2.799-11.953 9.075-8.715 11.633 3.278 2.559 5.876 5.077 8.075 6.956 2.399 1.839 8.035 4.877 10.873 6.716 2.599 2.079 6.317 3.478 10.674 2.319 4.118-1.16 12.832-2.999 16.11-1.16 0 0-2.638-.68-6.116.48-3.278 1.16-13.912 3.238-18.07 2.079-3.917-1.16-14.99-10.674-13.71-6.476 1.318 3.917 1.518 8.554 4.796 10.433 3.478 1.84 9.994 6.037 11.313 8.795 1.32 3.038 1.76 6.276 3.718 7.675 0 0-3.917-3.238-4.357-5.556-.68-2.559-8.275-2.559-12.193-7.676-3.917-4.877-4.357-8.834-5.436-11.833-.88-2.998-.68-5.796-5.437-7.875-4.997-2.118-7.196-4.877-10.034-1.879-2.798 3.039-5.877 4.198-6.076 8.355 0 4.398-2.399 6.956-3.718 7.676-1.52.68-2.798 1.599-.44 2.758 2.399 1.16 4.158 3.478 7.436 3.278 3.238-.24 10.873-6.956 18.269-1.639 0 0-4.158-3.238-9.155 0-4.797 3.478-9.994 3.478-13.032 2.558-3.078-1.159-7.635-4.877-9.394-1.159-1.72 3.478-5.437 6.037-3.038 7.875 2.398 1.88 3.038-1.159 4.797 1.16 1.958 2.558 5.236 1.879 6.955 2.558 1.96.92 4.797-1.16 8.075.92 3.478 2.318 7.156 4.437 10.634 4.877 3.478.48 8.515 2.118 10.674 3.478 2.198 1.159 17.429 2.118 21.786 1.159 4.558-.92 8.915-6.037 14.112-3.478 0 0-6.077-.24-8.675 3.038-2.398 3.478-8.954 4.397-11.313 4.397-2.199 0-3.278.92-1.959 2.08 1.08 1.158 4.317 7.195 6.716 7.435 2.399 0 3.718 1.159 6.996.24 3.238-1.16 6.276-1.16 9.354 1.159 0 0-3.478-2.559-6.996-.72-3.478 1.64-6.076.24-8.035.72-2.158.48-4.797-2.079-6.956-3.958-2.198-1.839-2.638-6.956-7.635-7.435-4.997-.68-8.715-1.36-12.392-2.079-3.918-.68-13.912-3.478-15.87-4.637-1.96-1.16-5.238-.92-4.158.72 1.319 1.598 3.478 5.796 4.557 8.354 1.32 2.319 2.638 5.317 6.316 5.797 3.718.2 7.835-.72 10.034 1.839 2.159 2.798 3.678 1.159 5.437 4.397 1.719 3.278 1.519 3.718 3.678 3.038 2.398-.92 11.313-4.397 15.67-1.879 0 0-8.915-.2-11.753 2.119-3.038 2.319-6.316 3.718-3.917 4.397 2.638.68 5.876 0 8.275 1.64 2.398 1.359 3.278 1.598 6.116 3.917 3.038 2.319 14.151-2.079 16.95 2.798 0 0-3.478-3.238-10.234-1.639-6.716 1.88-7.835 3.718-10.194.96-2.399-2.799-8.715-2.359-12.872-4.877-3.918-2.799-3.478-6.516-6.316-8.835-2.799-2.558-9.795-3.478-11.314-4.397-1.519-.96-3.038-.72-3.038 1.399.24 2.079 1.52 3.478 5.677 6.476 4.117 2.798 6.716 6.716 8.035 10.913 1.08 4.158 2.598 8.355 6.756 8.115 3.917-.44 6.076-2.078 8.715 1.88 0 0-.88-2.56-3.918-1.64-3.078.92-8.715 3.718-11.113-.68-2.599-4.197-1.76-13.471-6.756-15.11-4.997-1.84-9.115-5.117-9.794-9.275-.84-4.397-1.28-9.274-3.918-11.153-2.598-1.839-4.557-9.274-7.395-7.395-3.039 1.839-3.039-1.64-6.516.68-3.478 2.558-6.317 2.558-4.798 8.354 1.52 5.797 1.76 14.391 0 20.868-1.719 6.516-.88 17.429 1.96 22.546 2.838 5.077 3.037 12.752 3.277 19.468.2 6.756 0 15.79 2.839 19.029 2.798 3.238 3.477 18.588 15.67 19.508 0 0-6.116 2.078-7.635.92-1.52-1.16-4.797-1.84-6.077 0-1.319 1.878-2.398 3.957-4.597 1.878-2.159-2.119-11.313-9.314-13.712-4.437 0 0-3.917-4.398-7.595-.68-3.718 3.718-7.196 6.956-14.151 6.276-6.956-.48-8.075-.48-9.355.92-1.08 1.599-3.278 3.917-7.195 3.238-4.118-.92-8.915-1.84-11.513-1.84 0 0 13.272 1.16 14.111-1.878.88-2.998 3.078-7.196 6.996-7.435 3.678-.44 6.956-5.317 8.914-13.672 1.96-8.355 6.077-16.03 5.197-21.827-1.519-9.514 3.278-20.627 3.078-27.143 0-2.559-.24-7.676-.24-13.472 0 0-2.158-2.999-4.117-2.759-2.199.2-4.157.44-6.116-.96-1.96-1.598-5.197-4.396-8.035-3.237-2.839.92-6.516 4.197-8.915 3.478-2.399-.68-5.677-1.4-7.635 0 0 0 3.478-2.079 6.756-1.16 3.038 1.16 7.395-4.157 11.313-3.717 3.917.48 6.756 3.038 9.594 3.038 2.598.24 5.197-2.798 6.956-1.64" fill="none" stroke="#343434" stroke-width=".8" stroke-linecap="round" stroke-linejoin="round" stroke-miterlimit="10"/><path d="M111.373 276.552c-1.32 5.557-5.397 11.793-7.996 10.874-2.598-.68-4.117-5.757-2.598-11.553 1.32-5.557 5.197-9.514 7.795-8.795 2.559.68 4.278 3.918 2.799 9.474z" fill="#5e2e29" fill-rule="evenodd"/><path d="M111.373 276.552c-1.32 5.557-5.397 11.793-7.996 10.874-2.598-.68-4.117-5.757-2.598-11.553 1.32-5.557 5.197-9.514 7.795-8.795 2.559.68 4.278 3.918 2.799 9.474" fill="none" stroke="#343434" stroke-width=".64" stroke-miterlimit="8"/><path d="M109.853 276.472c-1.119 3.958-3.957 8.355-5.916 7.676-1.719-.48-2.838-4.198-1.959-8.155 1.12-4.198 3.718-6.996 5.677-6.516 1.959.72 3.038 2.798 2.198 6.995" fill="none" stroke="#343434" stroke-width=".32" stroke-linecap="round" stroke-linejoin="round" stroke-miterlimit="10"/><path d="M113.571 196.001c-.84 2.079-1.519 3.958-2.798 6.037-.88 1.359-1.56 1.159-2.838 1.599-1.32.48-2.2 1.639-3.079 2.758M97.9 195.681c0 1.4.68 3.039.48 4.638-.24 1.599.2 2.318.88 3.677m-4.557 4.238c1.599-1.36 2.998-.44 4.557-1.12m-.08-27.423c-3.918-3.918 3.278-9.514 4.557-12.992.44-1.16.88-2.998 1.959-3.918.88-1.159 2.638-1.639 3.718-2.798 1.959-2.319.64-7.196 2.798-9.074" fill="none" stroke="#343434" stroke-width=".8" stroke-linecap="round" stroke-linejoin="round" stroke-miterlimit="10"/><path d="M105.096 163.221c.2-1.36 1.08-2.279 1.08-3.678.2-1.399 0-1.399-.88-2.558-1.319-1.64-2.198-5.317-1.08-7.436m5.038 10.874c.44-1.56 1.759-.68 2.598-.68 1.52 0 2.399-1.12 3.238-2.039m-23.985 19.029c-.4-1.44-1.52-3.078-2.359-4.238-1.12-.959-1.519-.959-2.838-.48-3.718.96-7.396 3.519-10.674 5.877-1.719 1.16-3.677 2.119-5.436 3.278-1.72 1.2-2.359 1.4-4.318.48-3.478-1.4-5.876-4.477-10.034-3.518" fill="none" stroke="#343434" stroke-width=".8" stroke-linecap="round" stroke-linejoin="round" stroke-miterlimit="10"/><path d="M78.073 175.773c-1.28.92-4.118 1.6-5.637.92-1.519-.92-2.358-2.758-3.878-3.678-1.119-.92-2.838-1.16-4.157-.92m12.313-18.868c-1.08-.2-1.96-.92-2.839-1.599-1.719-1.16-4.117-1.879-5.676-3.478-.84-1.16-1.08-2.798-1.52-4.397-.639-2.119-1.319-4.198-2.158-6.036-1.12-2.559-1.999-3.278-4.397-4.198-2.599-.92-7.636-1.839-9.395-3.958m11.034 4.478c-1.52-.44-2.839-1.84-3.079-2.519-.44-1.399 0-2.798-.44-3.957M46.892 166.26c-2.799.479-4.997 2.318-8.036 2.558-1.758.2-3.038-.24-5.036.44-1.52.679-3.039 1.399-4.358 2.278" fill="none" stroke="#343434" stroke-width=".8" stroke-linecap="round" stroke-linejoin="round" stroke-miterlimit="10"/><path d="M41.775 168.138c-1.52.24-3.518.44-4.837-.24-1.12-.48-2.2-1.16-3.318-1.639-.88-.48-2.199-.48-2.879-1.199m18.549-14.471c-2.159-1.36-3.238-3.718-5.197-5.117-.64-.68-2.598-1.84-3.238-2.079-1.959-.48-4.357 1.879-6.076 2.079-2.638.72-5.237 0-7.635 0" fill="none" stroke="#343434" stroke-width=".8" stroke-linecap="round" stroke-linejoin="round" stroke-miterlimit="10"/><path d="M36.898 144.193c-2.559.24-4.318-1.44-6.476-2.16m20.867 47.052c-3.238 0-7.156.44-9.314-2.558-1.96-2.798-3.079-5.597-4.798-8.395-.24-.68-.24-.68-.64-.92-.879-.24-1.958-.48-2.837-.719-1.52-.24-2.839-.68-4.158-.92-1.28-.24-2.798-.24-4.117-.719-1.96-.92-1.72-2.558-2.399-4.637-.88-2.798-3.238-3.718-5.637-4.877-2.398-1.2-5.436-1.64-8.075-2.599" fill="none" stroke="#343434" stroke-width=".8" stroke-linecap="round" stroke-linejoin="round" stroke-miterlimit="10"/><path d="M30.102 175.813c-.64.44-3.438-.24-4.318-.24-1.079 0-1.519 0-2.358.44-.68.44-1.52.88-2.399.88-.64 0-1.279-.44-1.959-.64-1.519-.44-2.798-1.12-4.317-1.319-2.398-.44-5.197-.68-7.595-.44m13.432-7.755c-1.52-1.16-2.359-3.038-3.918-4.437-1.28-1.4-2.159-1.88-3.918-1.88m29.342 78.273c-2.598 0-4.117.24-6.076 2.12-1.08.719-1.519 1.438-2.838 1.438-1.52.2-3.238-.24-4.757-.24-1.76 0-3.478.24-5.237.24-.88.2-1.759.2-2.399.44-.88.24-.64 0-1.319.72-.84 1.159-1.919 1.878-3.478 1.878-1.959.24-3.917.92-5.876.92" fill="none" stroke="#343434" stroke-width=".8" stroke-linecap="round" stroke-linejoin="round" stroke-miterlimit="10"/><path d="M33.46 242.173c-1.28.68-4.757-1.399-6.077-2.079-1.519-.68-3.477-2.318-4.997-2.318-2.638 0-6.356 2.079-8.075-.68-.88-1.399-1.319-2.558-2.638-3.717-.84-.68-1.719-1.16-2.598-1.16-.64 0-1.32.24-1.76 0" fill="none" stroke="#343434" stroke-width=".8" stroke-linecap="round" stroke-linejoin="round" stroke-miterlimit="10"/><path d="M20.907 237.976c-1.239-1.36-2.758-2.279-3.997-3.918-1.08-1.359-.88-2.998-2.159-4.397M64.88 181.61c-1.718-1.36-4.517-.88-6.435-.44-1.72.44-2.999 1.32-4.718 1.999-1.079.2-2.398 0-3.477 0m31.02-60.084c-1.079-.68-2.358-2.518-3.437-3.477-1.52-1.4-3.038-2.559-4.797-3.239a46.988 46.988 0 0 0-11.074-2.078c-1.519 0-3.038.24-4.557.44-1.759 0-2.158-.68-3.478-2.32-1.519-2.078-3.038-4.157-4.757-6.275-.68-.92-1.759-2.559-3.078-2.559" fill="none" stroke="#343434" stroke-width=".8" stroke-linecap="round" stroke-linejoin="round" stroke-miterlimit="10"/><path d="M65.28 114.77c-.879-.68-1.958-1.159-2.838-2.078-1.559-1.16-1.759-3.038-1.759-5.117 0-2.319.44-6.996-1.559-8.635m44.773 17.99c-2.998-2.52-5.836-4.838-9.954-5.318-3.238-.48-4.757-1.839-6.276-5.117-1.08-2.318-3.478-3.717-4.797-6.036" fill="none" stroke="#343434" stroke-width=".8" stroke-linecap="round" stroke-linejoin="round" stroke-miterlimit="10"/><path d="M94.383 111.053c-1.48.2-2.799-2.119-3.198-3.478-.68-2.799-1.08-5.597-1.76-8.155m31.822 20.627c.44-.2.879-.68 1.319-1.159.84-1.36 2.158-2.319 3.438-3.238 1.918-1.4 6.236-1.6 7.515-3.718.84-1.599.44-4.397.44-5.996 0-2.319 0-4.677.4-6.996" fill="none" stroke="#343434" stroke-width=".8" stroke-linecap="round" stroke-linejoin="round" stroke-miterlimit="10"/><path d="M134.039 108.294c0-1.159-1.28-2.998-2.159-3.677-1.959-1.16-4.557-2.559-4.797-5.357M98.7 141.714c-.64-1.16-1.12-5.077-.88-6.236.44-2.079 1.56-2.079 2.64-3.478 2.638-3.478 1.318-7.196-.2-10.913m38.816 47.811c-.44-3.238-1.52-6.716-.24-9.714 1.519-3.039 2.558-3.478 2.358-6.756" fill="none" stroke="#343434" stroke-width=".8" stroke-linecap="round" stroke-linejoin="round" stroke-miterlimit="10"/><path d="M138.516 163.061c0-2.998 2.838-3.238 5.037-4.157 2.359-.92 3.238-2.799 4.317-5.357m23.826-7.516c.88-.2 2.398-.919 3.278-1.359a25.904 25.904 0 0 1 8.275-2.758c1.08-.24 2.359-.24 3.038-1.16 1.08-1.159 1.52-2.997 2.159-4.397.64-1.399 1.719-2.078 2.598-3.238.44-.48.64-1.399.44-2.078-.44-1.4-1.959-1.84-2.159-3.678 0-1.4.84-2.559 1.28-3.958m1.079 9.195c.24-.92 1.559-1.6 2.198-2.279 1.76-1.4 3.718-2.798 4.798-4.637 1.519-2.798 1.319-6.476 3.477-8.595m-15.51 37.657c.88 1.64 1.959 3.038 2.398 4.877.24 2.079.44 4.158.44 6.236 0 1.6 0 1.84 1.08 2.32 1.559.919 2.638 1.838 3.917 2.518 1.56.68 2.838 1.639 4.158 2.318 1.519.44 2.598.24 4.117 0 1.959-.48 3.038.24 4.597 1.839.84.92 1.72 1.839 2.599 2.758.2.48 1.719 1.88 1.519 2.08m-17.47-8.955c1.56 1.199.88 2.798.88 4.197 0 1.639.68 2.319 1.999 3.038 1.958.92 3.917.44 5.676 1.16.88.44 5.437 3.717 5.037 3.917m-44.373 10.953c1.12 2.359 2.638 4.238 2.399 7.276 0 1.839-.44 3.478.44 5.117 1.518.48 3.237.24 4.756.96 1.12.44 4.558 4.197 4.158 4.637" fill="none" stroke="#343434" stroke-width=".8" stroke-linecap="round" stroke-linejoin="round" stroke-miterlimit="10"/><path d="M165.38 200.878c-.64 2.119-1.52 2.119-2.878 3.078-2 1.6-.88 4.678-2 6.277m33.181 18.948c.88 1.36 4.757-4.677 6.076-5.117 1.519-.72 3.438-.24 4.957-.24 3.878 0 6.476-2.078 9.914-3.278m-14.471 10.314c2.198.96 3.078 3.038 5.716 3.038 1.72.2 3.478-.24 5.237 0 1.08 0 3.518 1.12 3.918.92" fill="none" stroke="#343434" stroke-width=".8" stroke-linecap="round" stroke-linejoin="round" stroke-miterlimit="10"/><path d="M207.834 233.818c1.08.72 1.52 1.4 1.959 2.559.44 1.599 1.719 3.198 2.358 4.317m-52.448-121.286c.68-1.16 1.32-1.84 2.199-2.519.88-.72 2.598-1.399 3.038-2.558.44-1.4.44-2.799 1.32-3.958.839-1.399 2.598-2.079 3.437-3.278" fill="none" stroke="#343434" stroke-width=".8" stroke-linecap="round" stroke-linejoin="round" stroke-miterlimit="10"/><path d="M163.78 104.297c-.959 3.038.92 5.317 1.6 8.315m-.16 29.262c.68-.92 1.759-1.16 2.838-1.599 1.52-.96 3.038-1.879 3.878-3.518 2.398-4.197 6.076-8.155 8.874-11.193" fill="none" stroke="#343434" stroke-width=".8" stroke-linecap="round" stroke-linejoin="round" stroke-miterlimit="10"/><path d="M170.776 137.876c-.44 0 0-.2 0-.68.2-.919.44-1.598.44-2.318 0-1.599-.88-2.518-1.319-3.917-.68-2.279 0-4.598.44-6.916.2-1.6.44-5.077 1.519-6.476" fill="none" stroke="#343434" stroke-width=".8" stroke-linecap="round" stroke-linejoin="round" stroke-miterlimit="10"/><path d="M169.857 128.922c.68-2.998 5.677-3.438 5.677-6.476M81.91 323.124c-1.479-1.439-3.438 1.16-5.157.92-.879-.24-1.758-1.4-2.598-1.88-.88-.719-2.398-.959-3.478-1.199-2.798 0-4.757 3.318-7.355 3.079-1.52 0-3.039-.48-4.318-.24-1.319 0-2.398 1.639-3.718 1.639m57.805-1.679c1.76 1.399 1.96 2.118 2.16 3.518 3.677.24 3.877 1.159 4.956 4.877m24.465-6.716c2.439-.48 4.598 0 6.796-1.2 1.52-.48 1.28-.959 2.838 0 1.28.72 1.28 1.92 2.839 1.68 1.08-.48 1.719-2.4 3.238-2.4 1.559 0 2.638 1.68 3.957 1.92 2.839.72 6.317 1.199 9.355.48" fill="none" stroke="#343434" stroke-width=".8" stroke-linecap="round" stroke-linejoin="round" stroke-miterlimit="10"/><path d="M118.688 191.524c-1.479 1.2-2.558 1.4-3.638 3.278-.88 1.4-1.519 3.518-2.158 4.917-.44 1.4-.88 2.319-1.96 3.238-.879.96-2.598 1.4-3.037 2.558 1.519-.68 2.838-1.599 4.317-2.798 1.32-1.16 1.32-2.079 1.959-3.718.44-1.159.88-2.798 1.519-3.717.64-.96 1.519-2.359 2.358-3.039zM96.541 198.4c-3.238-1.2-6.516 4.157-9.993 4.157 1.958 0 4.997-1.16 6.556-2.078 1.279-.68 2.158-2.08 3.437-2.32zm17.469 71.636c.88 1.4.68 4.438.44 6.037-.2 3.238-.839 6.276-2.158 9.274-2.399 5.117-1.08 10.234-1.28 15.31 0-2.518.64-5.316.64-7.874.2-1.16.2-2.08.2-3.238 0-1.16.44-2.32.64-3.478.44-1.16 1.319-1.88 1.759-2.799.84-2.078.84-4.637.64-6.955-.2-1.84.2-4.638-.44-6.517z" fill="#5e2e29" fill-rule="evenodd"/><path d="M113.171 287.786c-1.119 2.358-.44 6.076-.24 8.634 0 2.559-.2 5.157.44 7.476 1.52 5.596 6.276 9.794 9.315 14.431-2.359-2.998-3.878-6.756-6.077-9.554-1.279-1.839-2.798-4.198-3.238-6.276-.44-2.319-.2-4.917-.2-6.996 0-2.319-.24-4.917 0-6.756zm-4.957 6.396c0 1.159-.4 2.558-.64 3.957-.2 2.079-.2 4.158-.2 6.237 0 2.798.44 5.796-.639 8.354-1.279 3.238-2.158 6.916-3.877 9.914.88-2.518 1.519-5.516 2.358-8.075.68-2.078 1.32-3.957 1.52-6.236 0-2.318.2-4.637.439-6.956.2-2.078 0-4.397.84-6.236zm2.999-9.355c-.92 1.64-.72 4.198-.92 6.077 0 2.318 0 4.197.2 6.276v7.715c.24 2.559.92 5.117.92 7.436-1.36-2.759-.92-6.276-1.12-9.315-.24-2.078-.72-4.197-.72-6.276.24-4.197.24-7.915 1.84-11.673zm2.198 2.159c.44-2.079 2.079-3.918 2.479-5.996.4-2.119 0-4.877-.2-6.756-.2-2.559-.84-5.117-1.24-7.436-.4-2.758-.4-5.796-.4-8.594.2 5.596 1.44 10.713 2.24 16.03.4 2.318.4 5.117-.2 7.435-.2.92-.6 1.64-1.24 2.559-.4.68-1.199 1.599-1.199 2.558z" fill="#5e2e29" fill-rule="evenodd"/><path d="M111.852 295.78c0 4.198-.44 8.116 0 12.273.24 2.119.24 3.958 1.12 6.037.839 2.078 2.158 4.157 3.238 6.236-1.52-1.839-1.96-4.837-2.599-7.156-.44-1.639-1.08-3.478-1.08-5.317-.24-2.078-.439-4.397-.439-6.516 0-1.599-.44-3.917 0-5.556zm8.675-31.1c.44 4.197 2.838 7.435 3.678 11.633.64 2.998.24 6.236.44 9.474-1.08-3.478-.64-7.636-1.28-11.113-.68-3.239-2.158-6.277-2.398-9.275zm-4.077 0c-.24 4.437 1.958 9.074 1.958 13.951 0 3.918-.88 7.875-.88 12.033-.2-4.837 2.36-9.275 1.52-14.351-.44-3.718-1.08-7.676-2.399-11.154zm-16.79 27.103c-1.32 5.357-3.278 11.193-3.718 16.99-.2 2.318-.44 4.437-1.32 6.516-.639 1.639-2.158 2.798-2.398 4.637 3.518-4.397 3.918-8.355 4.797-13.712.24-2.318.88-4.877 1.32-7.195.44-2.319.2-5.117 1.718-6.756zm-6.277 21.187c.2 2.119-2.158 4.198-3.278 5.837-.88 1.16-1.519 3.478-2.838 4.397-2.798 2.359-5.876.48-7.196 5.117 2.2-2.998 5.917-2.319 8.315-5.317 1.28-1.399.84-3.278 1.96-4.917.639-1.16 2.158-2.998 3.037-3.718zm23.906-81.23c-.44.919.44 3.038.44 4.197.44 2.319.44 4.157-.44 6.236-1.12 3.518-1.799 6.996-1.56 10.674-1.358-3.678.44-8.555 1.56-12.033 1.08-3.278.2-6.036.2-9.314zm-2.199-32.54c-1.08 3.557-3.877 4.477-5.197 7.515.68-1.4 2.599-1.64 3.478-2.799.88-1.159.44-3.038 1.32-4.237zm-13.991 17.749c2.038 2.318 1.839 4.877 1.359 7.875-.44 3.438 0 7.155-.2 10.353 0-3.677.2-7.355.68-10.833.2-1.4.64-2.998.44-4.397-.24-1.6-.92-2.079-2.04-3.238z" fill="#5e2e29" fill-rule="evenodd"/><path d="M114.89 239.335c0 4.397-1.719 8.115-1.079 12.512.2 1.64.44 2.999.84 4.638.44 1.599 1.079 3.238 1.079 4.837-1.72-6.237-3.678-15.271-.2-21.028zm-11.792-13.672c0 2.359-.24 4.478 0 6.796 0 1.879.44 4.437.44 6.076 0-2.318.2-4.677.2-6.995-.2-1.64-.64-3.038-.64-4.677zm7.595 20.148c.2 3.038-.24 6.076.2 9.314.44 3.039 1.319 6.077 1.12 9.075-.24-3.238-1.56-6.276-1.56-9.514 0-1.4-.24-2.799 0-3.958 0-1.4.44-2.798.44-3.958zm14.071 45.812c.68 2.319.44 4.877.44 7.436 0 2.558.68 5.077 1.56 7.395 1.358 3.038 5.116 6.516 4.676 10.194-.2-1.16-1.119-2.279-1.559-3.438-.44-1.16-.88-2.558-1.559-3.718-.88-1.878-2.238-3.477-2.878-5.356-.68-2.08-.92-3.918-.92-5.997 0-2.318.68-4.197.68-6.516zm-7.515 16.15c1.959 1.88 3.718 4.878 4.997 7.196 1.519 2.559 2.598 4.877 4.317 7.196 1.52 1.879 2.399 1.159 4.558 1.159 1.079 0 2.598 0 3.238 1.16-1.28-2.08-2.799-1.84-4.957-2.08-2.399-.24-2.599-2.078-3.918-3.917-1.28-1.879-3.038-2.558-3.878-4.677-.64-.92-.88-2.079-1.519-3.238-.64-1.16-1.319-1.64-2.158-2.559z" fill="#5e2e29" fill-rule="evenodd"/><path d="M108.214 268.237s-3.837-1.878-6.636 6.916c0 0 1.96-6.476 6.636-6.916z" fill="#7c3f3c" fill-rule="evenodd"/><path d="M100.46 286.906c.639 0 1.518 1.16 1.918 1.4 1.08.719 1.959.959 3.038.479a6.54 6.54 0 0 0 3.238-3.318c.2 1.679-1.08 4.038-2.159 4.757-.879.44-2.358.44-3.238.24-.88-.24-1.519-.72-2.158-1.44-.2-.479-.44-.719-.44-.959-.2-.44-.2-.68-.44-.919zm24.384-71.716c-2.358 1.159-4.757 1.878-4.757 5.116-.24 2.999.84 5.797 1.08 8.555-1.76-3.238-2.639-7.875-1.76-11.353 1.76-1.16 3.079-1.839 5.038-2.318zm-32.94 3.038c1.12-1.6 5.077-2.519 6.796-1.84-2.159-2.558-4.357-.239-6.356 1.16z" fill="#351612" fill-rule="evenodd"/><path d="M118.528 220.546c0 2.599.48 4.917 1.36 7.276.919 2.798 1.359 5.357 1.359 8.395-.68-.68-.44-3.238-.68-4.437-.2-1.16-.68-2.32-1.12-3.478-.679-2.359-.919-4.917-.919-7.516z" fill="#351612" fill-rule="evenodd"/><path d="M46.692 183.729c.44-1.88-1.52-3.718-.68-5.357.88-1.4 3.278-4.637 2.199-6.276-.88-1.6-1.76-6.276-4.158-4.398-2.158 2.08-3.478 3.478-5.197 1.16-1.519-2.319-3.078-5.557-4.597-4.877-1.279.68-2.598 2.318-4.117 1.839-1.32-.44-3.038-2.999-3.718-1.36-.44 1.84.24 4.158-.64 4.158s-3.478-2.798-4.157-4.637c-.64-1.64-1.72-3.958-3.918-4.398-1.959-.48-3.038-2.358-3.478-.72-.64 1.88-1.079 3.958-2.598 3.479-1.52-.44-3.478-1.6-4.357-1.4-.88.24-2.839 7.676-.68 6.996 1.959-.72 4.797-2.558 6.116-1.639 1.52.92-1.519 2.799-.44 4.198 1.08 1.159 2.599-.24 4.558.44 2.198.719 0 2.558 2.398 2.558 2.199 0 2.399-2.798 4.158-.24 1.519 2.798 1.959 2.319 2.398 4.197.44 2.08-1.519 2.999-3.038 1.16-1.759-1.64-3.518-3.238-4.797-3.478-1.12-.24-2.638-.48-3.718-1.4-1.319-.719-1.719-1.398-2.598-.719-.88.72-1.759.72-3.918 0-1.958-.68-4.357.24-2.638 1.879 1.959 1.4 3.078 2.319 4.597 2.558 1.28.24 3.238-.919 3.478 0 .2.92-1.759.24-3.478 1.84-1.959 1.398-3.917 1.878-1.759 3.037 2.399 1.4 3.478.68 5.237 2.08 1.959 1.159.88 2.798 2.598 2.558 1.76-.24 2.2-2.999 3.079-.92.64 2.319-3.079 3.238-.24 4.637 2.598 1.4 3.717-1.639 4.557 1.16.68 3.038-2.598 4.197.44 4.637 2.838.48 4.597-1.6 6.116-.24 1.719 1.64.64 3.718 1.32 3.718.839 0 2.358-.44 1.718.72-.64 1.159-3.278.24-3.478 1.598-.2 1.16-1.959-.919-3.278 0-1.08.72-2.598 0-4.357 1.16-1.52 1.199-3.918 2.358-.84 3.518 3.039.919 9.555-1.16 9.355 1.359-.24 2.358-.24.96.88 3.278 1.278 2.078 1.718 2.318 2.798 2.318 1.119 0 2.198-.48 2.198.68 0 1.4-1.519.72-1.08 3.478.44 2.798.2 4.437-1.558 3.718-1.72-.68-2.359-3.718-3.918-2.999-1.519.68-2.798-1.878-3.038 0-.2 2.08-3.678.44-5.237-2.318-1.28-3.038-2.159-4.637-4.557-3.958-2.159.68-3.718.68-5.237-.68-1.519-1.638-3.918.68-3.918.68s-.44 4.398 1.32 5.357c1.958.92 1.079 2.319 3.038 2.758 2.198.24 3.917-1.399 5.437.96 1.758 2.078 1.119 1.599 1.758 3.238.64 1.839.2 3.478-1.958 3.238-1.96-.24-3.039-3.958-3.918-1.4-.64 2.32-2.199 6.277-3.478 4.678-1.519-1.88-3.278-3.278-3.917-1.88-.88 1.64-3.718 3.04-1.96 4.198 1.96 1.4 3.678.2 3.039 2.559-.64 2.079-5.437 3.917-4.158 4.157 1.32.24 3.518.24 2.399 1.88-.84 1.838-4.797 2.758-4.557 3.917.2 1.16 0 1.16.88 4.197.639 2.998 1.078 4.158 3.037 4.158 2.159 0-1.519-4.398 2.159-4.158 3.718.24 2.638 0 3.918-1.639 1.119-1.839 1.759-4.877 4.157-2.558 2.159 2.558-.44 2.558 3.718.72 3.917-1.64 7.595.44 9.794.44 1.959 0 2.598-.2 3.678-1.16.88-.92.44-2.998 3.078-2.079 2.798.68 3.478.92 5.197.24 1.519-.92-1.28-2.559 2.838-2.319 4.157.24 4.157-1.399 3.718-2.318-.44-1.16-2.199-2.559-2.199-3.958 0-1.639 1.759-4.637.68-5.117-1.32-.44-2.639-1.399-2.199-3.957.44-2.759.24-5.317 3.038-2.999 2.838 2.559 2.399 2.08 4.797 2.559 2.399.44 2.399-.48 3.918-.72 1.519-.2 1.519-3.238 1.319-4.637-.2-1.639.2-3.957-1.759-4.397-2.159-.48-.4-5.597-2.598-5.797-1.96-.24-2.159-1.399-4.358-.48-1.958.92-4.997-2.078-5.876-2.558-.88-.48-3.478.68-4.118-.68-.68-1.638-2.638-3.517-.88-4.677 1.52-1.359 3.679-2.318 2.4-3.917-1.12-1.88-4.358-1.64-3.718-2.559.88-.92 2.198-1.879 1.519-3.278-.64-1.159-2.599-.68-2.159-2.318.44-1.6.88-5.077 3.238-4.158 2.399.92.88-1.399 3.278-.48 2.199.92 5.237.48 5.677-1.838z" fill="#f39c5a" fill-rule="evenodd"/><path d="M4.477 173.975c.44-.44 1.08-.68 1.52-1.16-.88.24-1.52.48-1.52 1.16zm16.11 15.79c-2.838-.44.2-1.599-.44-4.637-.639-2.998-1.758.24-4.556-1.16-2.639-1.599.839-2.558.2-4.637-.64-2.318-1.08.68-2.839.92-1.519.24-1.08-.92-1.719-1.84-.44.24-1.08.44-1.519.92-1.959 1.4-3.918 1.84-1.759 3.038 2.399 1.36 3.478.68 5.237 2.08 1.959 1.159.88 2.758 2.598 2.558 1.76-.24 2.16-3.038 3.039-.96.68 2.319-3.039 3.278-.2 4.677 2.598 1.36 3.677-1.639 4.557 1.16.44 1.839-.88 2.998-.88 3.917.24-.2.68-.2.88-.44 1.08-.719 3.038 1.16 3.278 0 .2-1.159 2.598-.24 3.478-1.399.64-1.159-1.08-.72-1.76-.72-.639 0 .24-2.318-1.278-3.677-1.76-1.399-3.278.68-6.316.2zm-10.233-12.273c-1.08-.72-1.96-.72-3.038-.959.879.48 1.519.96 2.398.96h.64zm23.266 8.355c.88 1.16-.64 2.319-1.28 3.238-.44.68.84.68 2.16 1.4v-.24c.439-1.64.879-5.117 3.277-4.198 2.399.96.88-1.359 3.238-.44 2.199.92 5.237.44 5.677-1.878.44-1.84-1.52-3.718-.64-5.317.84-1.4 3.238-4.637 2.159-6.276-.64-1.4-1.32-4.398-2.838-4.877-.44 1.639-1.72 3.478-2.16 4.397-1.079 1.4.88 3.478.64 5.117-.44 2.558-3.477 3.038-5.876 2.079-2.159-1.16-.88 1.399-3.038.48-2.399-.92-2.838 2.318-3.278 4.197-.4 1.599 1.319 1.16 1.959 2.318zm22.426 35.02c-.2-1.6.2-3.918-1.759-4.398-.64-.24-.84-.68-1.08-1.16 0 1.4-.2 3.039-1.278 3.239-1.76.24-1.76 1.159-3.918.72-2.399-.48-2.199 0-4.797-2.32-2.838-2.558-2.599.24-3.038 2.759-.44 2.798.84 3.518 1.958 3.957 1.28.48-.68 3.718-.68 5.117 0 1.64 1.96 2.999 2.4 3.958.44 1.16.44 2.758-3.678 2.518-4.158-.2-1.32 1.4-3.078 2.12-1.52.679-2.16.439-4.997-.24-2.799-.68-2.16 1.398-3.238 2.318-.88.92-1.52 1.16-3.718 1.16-1.96 0-5.637-2.08-9.794-.48-4.118 1.638-1.28 1.638-3.678-.68-2.199-2.559-2.838.68-4.158 2.318-1.079 1.64-.2 2.08-3.477 1.88-.64.44-1.52.679-1.96 1.159 0 1.159.88 2.998-.439 2.998-.2 0-.64-.24-.88-.24 0 .48.24 1.4.68 2.798.64 2.998 1.08 4.158 3.038 4.158 2.159 0-1.519-4.398 2.159-4.158 3.718.24 2.638 0 3.918-1.639 1.119-1.839 1.759-4.877 4.157-2.558 2.159 2.558-.44 2.558 3.678.72 3.917-1.64 7.635.44 9.794.44 1.959 0 2.638-.2 3.718-1.16.88-.92.44-2.998 3.038-2.079 2.838.72 3.478.92 5.237.24 1.519-.92-1.32-2.559 2.798-2.319 4.157.24 4.157-1.399 3.718-2.318-.44-1.16-2.159-2.559-2.159-3.958 0-1.639 1.719-4.637.64-5.117-1.32-.44-2.599-1.359-2.199-3.917.44-2.799.24-5.357 3.078-3.039 2.798 2.559 2.399 2.08 4.757 2.559 2.399.48 2.399-.48 3.918-.68 1.519-.24 1.519-3.278 1.319-4.677zm-27.863-16.231c-1.08-1.839-1.08-.92-.84-2.558-.44 0-.879 0-1.319.24-1.08.679-2.598 0-4.357 1.159-1.52 1.159-3.918 2.318-.88 3.478 3.039.919 9.595-1.16 9.355 1.399-.2 2.318-.2.92.88 3.238.639.92.879 1.399 1.318 1.879 0-.72 0-1.4-.24-2.12-.44-2.757.88-2.318.88-3.477 0-1.16-.88-.68-1.959-.68-1.08 0-1.719-.24-2.838-2.558zM8.835 166.339c.44-.48.88-.24 1.519 0 .88-.24 1.759-.48 2.398 0 .64.24.44.92.2 1.4.68.2 1.52.44 2.199.44 1.08.239 3.038 2.118 4.557 3.717.44.48 1.08.72 1.52.92.439-.44.879-.68 1.318-.44.44-.24.64-.92.44-1.64-.44-2.078-.88-1.399-2.638-4.157-1.52-2.798-1.72.2-4.118.2-2.159 0-.24-1.839-2.159-2.758-2.198-.72-3.517.919-4.597-.48-.64-.44-.2-1.16.24-2.079-.88-.24-1.959-.72-2.398-.48-.68 0-1.76 3.478-1.52 5.597 1.28.44 2.16.44 3.039-.24z" fill="#ef8f4c" fill-rule="evenodd"/><path d="M67.999 143.993c2.838.72-3.038 1.879-.64 4.437 2.159 2.758 3.278 3.478 5.237 2.079 1.959-1.16-1.52-6.037 3.478-3.958 5.237 2.079 4.117.24 5.437-.68 1.079-1.159 3.038-6.276 4.557-3.237 1.319 2.758 1.959 3.477 3.278 3.477 1.08 0 1.759-2.118 3.038-.959 1.12 1.4 6.556-1.839 9.154-.68 2.839.92 4.598-1.838 4.798-2.998.44-1.159-1.96-3.038-.44-4.877 1.519-1.879.44 1.84 4.157-2.558 3.478-4.637 4.558-3.238 6.316-3.238 1.52-.24 2.16-.96 3.918.92 1.72 1.838 3.238 2.318 2.599 4.397-.88 2.078-3.918 1.639-4.158 4.637-.2 2.798-2.359 6.276-4.757 6.716-2.199.24-2.199-3.918-2.199.24 0 3.957 4.597 1.399 0 3.957-4.557 2.798-5.636.48-6.076 2.998-.44 2.319-2.838 3.478.44 5.597 3.238 2.079 3.478-.96 6.316 1.839 2.798 2.998 1.719 4.157 4.117.92 2.159-3.239.44-8.116 3.039-7.636 2.398.24 3.477-.72 5.876.24 2.638 1.159 1.519 0 3.918-1.4 2.198-1.638 5.476-6.036 4.597-7.675-1.08-1.599-3.478-4.637-1.32-4.877 2.2-.2 2.4-2.079 4.798-1.599 2.158.68.44-.24 2.598-2.079 1.959-1.879 2.838-3.278 3.278-4.677.2-1.16 0-4.157-2.598-5.796-2.639-1.6-1.76-3.478-1.96-4.837-.239-1.4-2.837-3.958-3.717-1.4-.64 2.759-.64 5.077-1.959 4.638-1.319-.48-.64-6.516-3.917-4.198-3.278 2.559-7.636 4.877-4.997 1.4 2.398-3.479 1.959-4.158 4.997-5.557 3.038-1.4 2.598-3.038 5.876-2.319 3.478.44 2.399-3.238 4.557-3.957 2.399-.44 2.639-1.16 2.399-3.238-.2-1.84.24-6.037-1.52-3.718-1.718 2.558-3.277 2.558-2.837-.24.44-2.758.24-5.797 1.758-6.956 1.52-1.16 1.96-2.079 1.76-4.637-.24-2.319-.24-4.637-1.12-3.918-1.08.44-1.08-1.879-2.159-.24-.88 1.6.88 2.559-.88 5.077-1.958 2.319-5.875 2.799-6.075 2.12-.24-.96.64-4.638-.68-1.88-1.08 2.559-2.159 5.357-3.478 3.238-1.32-2.318-.88-4.837-1.759-6.956-.64-2.318-1.279-3.477-3.917-5.796-2.799-2.079-1.52-4.877-4.118-2.558-2.598 2.118-1.759 4.197-1.32 5.836.68 1.599 1.52 4.157-.639 5.996-2.398 1.88-1.319 4.198-.24 6.037.88 1.879-.4 8.115-.84 6.956-.439-.92-.439-3.478-1.958-2.32-1.559 1.16-1.959 2.12-3.078 2.8-1.08.479-1.52-.48-1.719-2.999-.24-2.798.44-6.276-1.759-6.276-2.398 0-3.918-2.319-5.636-.48-1.76 1.879-2.639-1.599-3.918 1.16-1.32 2.558-.24 3.477.64 5.356 1.079 1.84 1.319 3.238-.64 3.238-2.199 0-3.278-2.558-4.597-2.798-1.32-.2.64-7.635-3.038-6.956-3.478.92-7.836.48-6.956 6.516.2 2.759 0 3.718 1.08 5.317 1.278 1.639 3.237 4.877 3.237 4.877s0 2.079-1.959 1.839c-1.959-.2-5.197-3.478-5.197-4.397 0-.68-1.519-6.037-1.119-6.956.44-.68 1.32-2.319-.2-2.998-1.519-.48-1.519-3.039-2.158-1.16-.88 1.84-2.639-.96-2.639.68 0 1.639 0 4.877-1.28 4.637-1.318-.24-3.077-1.4-3.077-2.079 0-.92-1.28-2.798-.88-3.717.24-.68 3.958-5.797-.64-2.999-4.557 2.519-4.557-2.798-6.515-2.558-1.96.24-4.358-.92-4.797.44-.44 1.639-1.76 2.318-3.039 3.717-1.319 1.16-1.319-1.159-2.638.24-1.52 1.16-6.316-2.318-4.117 1.16 2.158 3.717-3.079 2.078-1.96 4.397.88 2.319 2.6 3.718 4.118 4.437 1.52.44 3.918 2.079 3.918 3.678 0 1.639 1.959 2.319 1.959 2.319s-1.72 1.878-1.72 4.677c0 2.518-.879 1.359-1.958 2.318-1.32 1.16-2.399 3.478-1.52 5.077.64 1.64-3.277 6.516-3.277 6.516-2.199-.48-6.556 1.6-5.677 4.158 1.08 2.318-.44 2.798-1.719 3.718-1.319.68-1.959.48-4.357 0-2.199-.68-3.078-4.398-4.797-2.559-1.76 1.879-3.718 3.958-3.478 4.877.2 1.16-1.12 2.798 2.398 3.238 3.238.48 4.758 0 7.156.24 2.639.24-7.595.92-4.997 3.718 2.599 2.998 4.358 1.399 6.956 2.798 2.838 1.36 1.559 2.758 4.357 4.397 2.839 1.6 3.278 0 5.037-.919 1.72-.72 2.399-2.119 3.238-2.558 1.12-.72 6.117-4.198 6.117-5.797 0-1.639-.88-3.718.879-4.437 1.719-.92 2.159-.44 3.918-.44 1.719 0-.88-3.478 1.719-3.718 2.838-.24 4.157-2.558 4.157 1.4 0 2.558-3.718-4.398-6.316-4.198-3.478.24-6.116 3.718-9.594 2.319z" fill="#f39c5a" fill-rule="evenodd"/><path d="M65.88 127.243c0-3.238-.84-2.319-2.598-1.6 1.519 1.6 2.598 2.999 2.598 1.6zm-15.87-1.839c.44 0 .88.24 1.319.24l-1.32-.24zm55.686 15.31c0-.439.24-.679.24-.919-.44-.92-.88-2.078 0-3.238 1.519-1.879.44 1.84 4.117-2.558 3.478-4.637 4.598-3.238 6.316-3.238.44 0 .64-.24 1.08-.24.68-1.16 1.319-2.559 1.319-3.958.2-2.798 3.278-2.318 4.118-4.397.68-2.359-.84-2.558-2.599-4.437-1.719-1.84-2.398-1.16-3.918-.92-1.718 0-2.838-1.399-6.316 2.998-3.677 4.678-2.598.96-4.117 2.799-1.52 1.879.88 3.717.44 4.877-.24 1.159-1.96 3.957-4.798 3.038-2.598-1.16-8.035 2.079-9.154.68-1.28-1.4-1.959.919-3.038.919-1.28 0-1.959-.68-3.238-3.478-1.52-2.998-3.478 2.119-4.597 3.038-1.28 1.16-.2 2.998-5.437.92-4.997-2.08-1.52 2.798-3.478 3.957-1.959 1.4-3.038.68-5.197-2.118-2.398-2.759 3.478-3.678.64-4.638l-7.396-1.839c0 .92.2 1.6-.64 1.6-1.758 0-2.198-.44-3.917.24-1.759.959-.88 3.037-.88 4.637 0 1.199-3.038 3.717-4.797 4.877l.88.24c-.44 0-.68 0-1.08-.24-.44.48-.879.72-1.119.72-.84.679-1.519 1.838-3.238 2.797-1.759.68-2.198 2.319-4.997.68-1.959-.92-1.959-2.079-2.638-2.998-.2.2-.44.2-.64.44-1.319.72-1.959.48-4.357 0-2.159-.68-3.038-4.398-4.797-2.559-1.72 1.879-3.678 3.958-3.478 4.877.24 1.16-.88 2.798 2.398 3.278 3.278.44 4.797 0 7.196.2 2.598.24-7.635.96-4.997 3.718 2.598 3.038 4.317 1.399 6.956 2.798 2.798 1.4 1.519 2.798 4.357 4.397 2.799 1.64 3.238 0 4.997-.919 1.72-.68 2.399-2.079 3.238-2.558 1.12-.68 6.117-4.158 6.117-5.797 0-1.639-.88-3.718.879-4.397 1.719-.96 2.159-.48 3.918-.48.84 0 .64-.68.64-1.639l7.395 2.119c2.838.68-3.038 1.839-.64 4.397 2.159 2.798 3.238 3.478 5.197 2.079 1.959-1.16-1.52-6.037 3.478-3.918 5.237 2.079 4.157.2 5.437-.72 1.119-1.159 3.078-6.276 4.597-3.237 1.279 2.798 1.959 3.477 3.238 3.477 1.08 0 1.759-2.078 3.038-.919 1.12 1.4 6.556-1.879 9.154-.72 1.32.48 2.16.24 2.839-.2 0-1.199 1.08-2.118 1.279-3.517zm-42.414-1.159c1.759-.68 2.598-1.599 2.598 1.64 0 1.399-1.08 0-2.598-1.64zm77.473-12.072c-1.08-.68-1.52-1.4-1.76-2.079-.439.68 0 1.16-1.518.68-2.399-.44-2.599 1.399-4.797 1.639-2.16.24.24 3.238 1.319 4.877.88 1.639-2.399 5.796-4.557 7.435-2.399 1.64-1.32 2.798-3.918 1.64-2.399-.96-3.478 0-5.877-.24-.44 0-.879 0-1.079.24 0 .679-.24 1.158-.68 1.838 0 1.639-.2 3.718-1.279 5.597-2.398 2.998-1.319 2.078-4.157-.96-.2-.24-.44-.44-.64-.68v.24c0 3.918 4.557 1.4 0 3.918-4.557 2.798-5.676.48-6.116 3.038-.4 2.319-2.798 3.478.44 5.557 3.278 2.119 3.478-.92 6.316 1.879 2.838 2.998 1.759 4.157 4.157.92 2.159-3.239.4-8.116 3.038-7.676 2.399.24 3.478-.68 5.877.24 2.598 1.159 1.519 0 3.918-1.4 2.158-1.598 5.436-6.036 4.557-7.635-1.08-1.639-3.478-4.677-1.32-4.877 2.2-.24 2.4-2.119 4.798-1.639 2.198.68.44-.24 2.598-2.079 1.959-1.878 2.838-3.278 3.278-4.677.2-1.16 0-4.157-2.598-5.796zm-11.553-19.748c3.278-2.319 2.638 3.478 3.917 4.197 1.32.48 1.32-1.879 1.96-4.637.879-2.798 3.477 0 3.717 1.4 0 .679-.24 1.838.2 2.997.24-.24.44-.24.68-.48 2.358-.44 2.598-1.159 2.358-3.237-.2-1.84.24-6.037-1.52-3.718-1.718 2.558-3.237 2.558-2.797-.24.4-2.079.4-4.637 1.079-6.276-1.08 1.199-.88 3.718-3.718 3.278-3.238-.48-2.838 1.16-5.876 2.558-3.038 1.4-2.599 2.079-4.997 5.557-2.599 3.478 1.759 1.16 4.997-1.4z" fill="#ef8f4c" fill-rule="evenodd"/><path d="M160.783 241.614c-1.08 0-1.76 1.399-.24 4.637 1.319 3.238 1.319 3.957-.84 3.478-1.959-.44-3.917-3.478-4.597-1.16-.64 2.08-.64 2.559 1.08 4.198 1.958 1.359-.4.2.44 3.478.679 2.998 3.717 2.318 4.596 3.478.84 1.359-.88 3.677.64 3.677 1.519 0 2.398-1.839 4.557-2.318 2.399-.44 3.078 1.399 4.158 2.318 1.319 1.16 1.519-.2 2.838-.44 1.519-.24 2.798-1.638 3.678.92.88 2.319 0 3.918 3.038-.68 3.078-4.437 3.518-5.356 2.638-6.036-.88-.72-3.917-2.558-3.278-3.238.64-.72 2.599-.96 2.599-.96s1.559-2.318 3.717-.2c1.96 1.84.88 3.679 4.158 2.999 3.238-.48 1.719-3.958 3.917-2.998 1.96.68 1.08.2 3.918 1.839 2.798 1.839 1.28 2.798 3.678.24 2.398-2.32 2.598-4.198 1.959-5.117-.88-.92-2.399-6.476-4.797-5.997-2.16.44-3.039 1.16-4.757.44-1.96-.44-1.12-3.918-3.518-2.079-2.359 1.64-5.637 0-5.637 0s-1.08-.92-2.399.24c-1.519 1.16-1.758 1.6-2.198.68-.4-.92-1.28-1.84.44-3.478 1.958-1.4.24-3.718 2.638-4.158 2.399-.48-2.638-.24 2.399-.48 4.757-.24 2.158.24 4.757-.24 2.638-.439-.4-.679 2.838-1.358 3.278-.96 1.759-2.559 4.357-1.64 2.599.92 3.038-1.598 4.358.24 1.519 2.08-.44 2.759 2.158 3.478 2.399.68 2.399-2.078 4.598-.24 2.158 2.08-.24 2.32.64 5.117.879 2.999-.88 1.6 1.758 3.478 2.399 2.079 2.399 1.36 3.478.2.88-.92 2.159-.92.88-4.397-1.52-3.478-1.96-4.158-.24-3.718 1.519.48 2.838 0 2.838-1.36 0-1.638-1.32-5.556-2.159-3.957-.88 1.4-2.838 1.64-3.278-.24-.44-2.078 2.838-4.397.44-3.917-2.199.44-6.316-.24-2.399-1.4 3.678-.919 4.118-2.078 3.678-4.157-.64-1.879.44-5.357-.84-3.957-1.119 1.639-1.758-.24-3.277 1.639-1.32 1.599-.64 2.078-3.478 1.159-2.639-.96-1.08-5.357-3.278-2.798-2.399 2.798-5.237 2.998-3.918 1.399 1.52-1.88 3.478-3.238 3.478-4.637 0-1.16 0-4.877-1.28-4.877-1.318 0 0-2.759-3.077-1.4-3.039 1.16-3.478 2.12-5.197.96-1.96-1.16-1.96-2.799-1.76-5.357.24-2.758.64-6.956-2.398-5.317-3.238 1.84-5.876 4.637-6.076 1.4-.24-3.478 1.519-6.717-.44-6.277-2.198.48-2.838 1.88-4.157-.44-1.52-2.558-2.399-4.437-3.038-3.278-.64 1.16 2.838-1.159 4.357-.68 1.519.48 3.478-2.078 1.08-3.717-2.16-1.839-3.918-2.318-4.118-4.397-.24-2.319-1.52-6.476 2.398-5.557 3.918 1.16-.44-.68 4.757-2.079 5.477-1.639 5.917-4.877 7.196-2.078 1.52 2.758.44 1.599 3.038 4.397 2.639 2.998 4.158.92 5.037 2.758 1.08 2.08 0 1.16 1.52 3.718 1.279 2.559 2.838 2.559 4.117 2.079 1.319-.68 1.08-2.079 2.198-2.559.88-.44-.44-1.839 2.16-.92 2.638.72 3.477-1.158 2.198-2.997-1.52-2.079-3.718-5.797-3.718-5.797s3.038-3.478-.64-2.798c-3.717.48-3.477 2.558-5.676 1.4-2.159-1.16-1.08-4.878-3.038-4.158-1.76.68-4.158 2.998-4.358.24-.2-2.799 8.036.919 9.355-.48 1.079-1.64.64-2.799 1.759-3.238 1.079-.48 2.838-2.799-.68-2.799-3.478 0-3.238-.44-5.197-1.599-1.759-1.159-2.198-1.639-3.478-1.878-1.119-.2 1.52-4.158 2.799-4.158 1.519 0 2.638-5.117 5.436 0 2.639 5.317 2.639 5.117 5.677 5.117s3.038-1.16 3.918-2.119c1.079-.92.64-1.599 1.319-2.518.64-.72.88-3.718 2.398-4.198 1.72-.44 1.72-3.478 1.52-4.157-.24-.68-2.64-2.319 0-2.559 2.598-.44 3.237-1.159 3.237-2.318 0-1.16-2.358-7.396-4.317-3.478-2.199 3.957-4.597 6.036-5.876 4.397-1.32-1.359-2.2-5.556-3.079-2.318-.84 3.038-3.238 4.637-3.677 2.558-.44-1.839-3.078-3.918-3.078-2.079 0 1.64-6.716 1.16-7.836 1.16-1.08 0-4.317 2.318-2.798-.68 1.719-3.038 1.519-5.597 6.076-5.357 4.558.48 3.038 1.88 4.797-1.839 1.96-3.717 1.72.24 1.96-4.637.199-5.117.199-6.276 0-7.195-.24-.92 4.117-2.759-.44-3.478-4.798-.68-3.279 1.159-5.677 1.399-2.359.24-2.798-2.079-4.317-1.16-1.76.92-2.2-.24-3.518.92-1.28 1.4-2.16 2.798-1.28 4.397.64 1.88-1.958 3.278-3.278 3.278-1.519 0-5.236 1.84-3.278 3.918 1.76 2.319 5.677 2.079 4.158 3.718-1.76 1.839-4.797-1.4-5.877 0-.88 1.599-1.519 4.397-2.838 5.316-1.08.72-1.759-2.078-2.398-1.599-.64.44 1.519-5.356 3.038-6.036 1.319-.92 4.357-3.718 3.478-5.796-1.08-1.84-1.72-3.478-2.799-2.799-1.319.96-1.519 1.88-1.759 3.278-.2 1.6-2.838 3.678-1.719.44 1.08-2.998 3.478-5.557 1.52-6.716-1.76-1.399-1.52-.24-2.399.48-1.08.68-.68-1.879-1.08-3.038-.44-1.16-1.558-2.998-2.198-1.84-.64 1.4-.2 0-1.719 4.158-1.32 3.958-3.518 5.797-2.838 6.716.88 1.16 1.719 1.64 1.519 4.398-.24 3.038.88 3.278-1.52 4.197-2.198.68-3.917-.48-5.236-.72-1.32-.2-4.118-1.359-2.838-3.477 1.519-1.84 1.519-3.438 3.278-3.238 1.958.24-2.839 0 1.519-3.918 4.157-3.958 6.116-8.595 6.756-9.754.88-1.16 1.319-1.4 1.719-2.519.44-.96-.4-4.877-2.799-5.117-2.398-.24-6.116-8.594-7.835-5.556-1.959 2.758-4.597 8.355-3.078 9.514 1.759 1.16 2.638 2.998 2.638 2.998s-2.638 1.4-4.357 1.6c-1.959.24-3.478-.68-3.038.719.4 1.599-1.56 5.317-.44 6.036.84.68-.24 5.797.2 6.716.44.92-1.08 1.16-.44 2.998.44 1.64 3.478.68 2.639 2.998-.68 2.559-2.639 2.12-3.278 2.799-.44.68 1.319 2.998.64 3.957-.88.92-2.84 2.319-4.358.44-1.28-1.599-2.599-8.115-2.599-2.998 0 5.317 1.76 5.796-1.079 7.196-2.638 1.599-3.918-3.958-3.918.2 0 4.397-1.519 3.237-3.717 6.276-1.96 2.998-3.278 2.758-1.08 4.637 1.96 2.079 2.599.68 4.358.68 1.959 0 1.959-3.918 5.436-3.718 3.478.48 1.32-1.36 4.558-1.6 3.278-.24 1.519-3.717 4.597-1.399 3.038 2.08-.88 2.799 1.28 4.398 1.958 1.399 1.758-1.84 3.077.92 1.52 2.798.2 2.318-1.559 4.437-1.959 2.318-3.678 3.677-2.358 5.076 1.519 1.16 1.719 3.958 1.719 3.958s-1.72.68-2.399 1.6c-.64.919-.88 3.477-.88 3.477s0 1.639 1.32 4.637c1.519 2.998 2.838 3.238 4.797 3.958 1.719.68 1.319 2.998 2.838 3.678 1.72.72 1.52 2.318 1.52 2.318l-6.117-2.518-4.997-2.799s-4.557 0-3.038 4.398c1.319 4.637 2.158 7.435 5.237 7.435 3.038 0 2.598-3.957 5.636-1.16 3.038 2.76-2.398 4.158.44 4.838 2.838.96 2.598-1.36 4.557-.2 2.199 1.36-.84 2.519.44 4.397 1.519 2.08 2.638 1.16 3.478 1.84 1.12.719 1.959 3.477 1.319 4.397-.88.96-3.678 2.558-1.32 4.197 2.64 1.839 5.238-.72 5.238 1.6 0 2.078-4.358.719-2.839 4.197 1.52 3.477 1.32 3.677 3.718 3.677 2.399 0 4.118-2.318 4.118.48 0 2.559.44 3.238-.2 4.397-.64 1.16-1.52 1.16-3.278 1.64-1.52.679-1.96.679-3.038.919-.88.24-2.399-3.718-2.399-.92 0 2.999 1.759 3.238-.2 3.918-2.199.92-5.676-2.079-4.597-.44 1.32 1.84 1.959 2.079 1.959 3.238 0 1.16-1.72 2.559-2.799 1.6-1.119-1.16-3.517-1.6-3.278.48.2 1.838-1.958 4.157-1.958 4.157z" fill="#f39c5a" fill-rule="evenodd"/><path d="M203.876 169.537c-.879.48-1.319.96-2.398.24-2.199-1.16-1.12-4.877-3.078-4.157-1.52.68-3.478 2.318-4.118 1.159-.2 0-.64 0-.88.24-5.436 1.359-.839 3.238-4.996 2.079-2.399-.72-2.838.919-2.599 2.758 3.678-1.6 4.358-3.678 5.437-1.36 1.52 2.759.44 1.6 3.038 4.398 2.599 2.998 4.118.92 4.997 2.758 1.08 2.08 0 1.16 1.52 3.718 1.319 2.559 2.838 2.559 4.157 2.079 1.279-.68 1.08-2.079 2.158-2.559.88-.44-.44-1.839 2.2-.92 2.158.48 3.237-.679 2.598-2.078-.64-.44-1.32-.92-1.96-2.079-.879-1.639-.639-1.838-.879-2.318l-1.279-2.319c-.88-.24-2.199.24-3.918-1.639zm-16.99-37.297h.44c1.08-.92 1.96-3.718 2.839-5.317.84-1.4 4.117 1.839 5.876 0 1.52-1.639-2.398-1.4-4.357-3.718-1.76-2.078 1.959-3.957 3.238-3.957 1.12 0 2.638-.68 3.278-1.84-2.399.24-2.838-2.078-4.357-1.158-1.52.919-2.16-.24-3.478.919.44.48.64.92.88 1.639 1.078 2.079-1.96 4.877-3.479 5.796-1.08.44-2.838 4.638-3.038 5.797 1.52.68 2.798.92 2.159 1.839zm15.431-.92c1.76-3.238 1.76-.72 1.76-3.238-1.96.68-1.96 2.519-3.279 4.837-.2.24-.2.48-.44.72 1.12.24.88.24 1.96-2.319zm1.12 28.983c0 2.079 1.519 1.16 3.038.2.2-.44-.24-1.16-1.959-1.16h-.64c-.44.24-.68.48-.44.96zm-50.29-30.382c.24.92 1.52.92 2.199 1.4.2-4.638 1.519 1.598 2.798 3.237 1.32 1.84 3.478.48 4.158-.48.2-.2.2-.439.2-.919-.2 0-.44 0-.64-.24-1.32-.2-4.158-1.359-2.838-3.477 1.519-1.84 1.519-3.438 3.278-3.238 1.519 0-1.32 0 0-2.32-.24-1.358.88-1.598.44-2.518-.44-.959.839-6.036-.24-6.755-.88-.68 1.079-4.398.44-5.997-.44-1.399 1.318-.48 3.037-.72 1.96-.2 4.358-1.598 4.358-1.598s-.2-.72-.88-1.4c-2.358-.24-6.076-8.594-7.835-5.556-1.959 2.758-4.557 8.355-3.038 9.514 1.759 1.16 2.638 2.998 2.638 2.998s-2.638 1.4-4.357 1.6c-1.959.24-3.478-.68-3.078.719.44 1.599-1.52 5.317-.4 6.036.84.68-.24 5.797.2 6.716.44.92-1.08 1.16-.44 2.998zm47.651 35.699c0-.24-.2-.48-.2-.72-.879-1.599-1.519-.92-3.038 0 1.08.24 2.399.48 3.238.72zm1.32 81.59c-.64.68-.44 2.758-3.039 2.998-3.038.68-1.958-1.159-4.157-2.998-1.959-2.119-3.678.2-3.678.2s-1.759.24-2.398.92c-.88.72 2.158 2.558 3.038 3.278.88.44.68 1.359-1.08 3.917 1.96-.92 1.08-3.478 3.039-2.758 1.958.68 1.079.2 3.917 1.839 2.838 1.839 1.32 2.798 3.718.24 2.398-2.32 2.598-4.198 1.959-5.117-.44-.44-.88-1.4-1.32-2.519zm-19.349 10.194c-1.559.2-1.759 1.599-2.838.44-1.08-.92-1.759-2.759-4.158-2.319-2.398.48-3.038 2.319-4.557 2.319-1.759 0 .2-2.319-.88-3.718-.879-1.16-3.917-.44-4.556-3.478-.64-3.238 1.718-2.079-.24-3.438-1.72-1.639-1.72-2.119-1.08-4.197.68-2.319 2.399.72 4.598 1.159 2.158.48 2.158-.24.64-3.478-1.32-3.238-.64-4.637.199-4.637 0 0 1.959-1.839 2.199-3.718-.24 0-.44.24-.68.24-2.159.92-5.636-2.079-4.557-.44 1.32 1.84 1.959 2.079 1.959 3.238 0 1.16-1.72 2.559-2.839 1.6-1.079-1.16-3.477-1.6-3.238.48.2 1.838-1.958 4.157-1.958 4.157-1.12 0-1.76 1.399-.24 4.637 1.319 3.238 1.319 3.957-.88 3.478-1.959-.44-3.917-3.478-4.557-1.16-.64 2.08-.64 2.559 1.08 4.198 1.958 1.359-.44.2.44 3.478.679 2.998 3.717 2.318 4.596 3.478.84 1.359-.88 3.677.64 3.677 1.519 0 2.398-1.839 4.557-2.318 2.399-.44 3.038 1.399 4.158 2.318 1.279 1.16 1.519-.2 2.798-.44 1.559-.24 2.838-1.638 3.718.92.88 2.319 0 3.918 3.038-.68 2.638-3.717 3.278-5.116 2.838-5.796h-.2zm33.06-26.904c-.88 1.4-2.838 1.64-3.278-.24v-.68c-1.279-.679-.2-1.398-1.279-3.237-.88 0-1.759 0-2.199-.24-.44.24-1.279.48-2.158 0-2.639-.92-1.32.68-4.598 1.639-3.238.68-.2.92-2.598 1.36-2.598.479 0 0-4.997.239-4.797.24 0 0-2.159.48-2.398.44-.88 2.758-2.638 4.157-.44.48-.64.68-.88.92.24 0 .44 0 1.32-.24 2.598-.44-.44-.68 2.838-1.36 3.238-.959 1.719-2.558 4.357-1.638 2.599.919 3.038-1.6 4.358.24 1.519 2.078-.44 2.758 2.158 3.477 2.399.68 2.399-2.078 4.558-.24 1.519 1.4.68 2.08.44 3.239 1.758 1.159 3.037 4.877 3.477 5.796.24.24.24.48.44.72.68.2.88-.24 1.519-.96.88-.92 2.199-.92.88-4.397-1.52-3.478-1.96-4.158-.2-3.718 1.519.48 2.798 0 2.798-1.36 0-1.638-1.28-5.556-2.159-3.957zm-60.483-81.11c3.038 2.078-.88 2.798 1.28 4.397 1.958 1.399 1.758-1.84 3.037.92 1.56 2.798.24 2.318-1.519 4.437-1.959 2.318-3.678 3.677-2.398 5.076 1.559 1.16 1.759 3.958 1.759 3.958s-1.76.68-2.399 1.6c-.64.919-.88 3.477-.88 3.477s0 1.639 1.32 4.637c1.319 2.798 2.598 3.238 4.357 3.958 0-.24 0-.24-.24-.48-1.279-4.397 3.078-4.397 3.078-4.397l5.197 2.758 5.877 2.559s.24-1.6-1.28-2.32c-1.519-.679-1.119-2.997-3.078-3.677-1.719-.72-3.238-.96-4.557-3.957-1.32-2.999-1.32-4.638-1.32-4.638s.24-2.558.88-3.478c.68-.919 2.199-1.639 2.199-1.639s-.24-2.758-1.52-3.917c-1.318-1.4.4-2.798 2.36-5.117 1.758-2.079 2.838-1.6 1.559-4.397-1.32-2.759-1.12.48-3.278-.92-1.96-1.639 1.958-2.318-1.08-4.397-3.078-2.319-1.519 1.16-4.597 1.399-3.238.2-1.28 2.079-4.757 1.599-3.518-.24-3.518 3.718-5.237 3.718-1.959 0-2.399 1.399-4.357-.68-2.159-1.879-1.08-1.639 1.079-4.637 1.759-2.319 3.038-2.319 3.478-4.197-.44 0-1.08-.2-1.52-.92-1.278-1.599-2.598-8.115-2.598-2.998 0 5.317 1.72 5.796-1.079 7.196-2.638 1.599-3.918-3.958-3.918.2 0 4.397-1.519 3.237-3.717 6.276-1.96 2.998-3.278 2.758-1.08 4.637 1.96 2.079 2.599.68 4.358.68 1.959 0 1.959-3.918 5.436-3.718 3.478.48 1.32-1.36 4.558-1.6 3.278-.24 1.519-3.717 4.597-1.399zm-.88-10.674c2.399-1.16 1.28-1.6 1.08-4.837-.88 1.599-2.599 1.16-3.038 1.839-.24.68.64 2.318.64 3.238.439.24.879 0 1.318-.24zm35.259 82.75c.64-1.16.2-1.84.2-4.398 0-2.798-1.959-.48-4.118-.48-2.398 0-2.198-.24-3.717-3.677-1.72-3.478 2.638-2.119 2.638-4.197 0-2.32-2.399.24-5.037-1.6-2.598-1.639.44-3.278 1.12-4.197.839-.92-.24-3.718-1.12-4.397-.84-.68-2.159.24-3.478-1.84-1.279-1.878 1.76-3.037-.44-4.397-2.158-1.159-1.958 1.16-4.557.2-2.838-.68 2.399-2.078-.44-4.837-3.038-2.798-2.598 1.16-5.636 1.16-1.56 0-2.638-.72-3.518-2.319l-3.038-1.16-4.997-2.798s-4.557 0-3.038 4.398c1.279 4.637 2.158 7.435 5.197 7.435 3.078 0 2.638-3.957 5.676-1.16 3.038 2.76-2.398 4.158.44 4.838 2.838.96 2.598-1.36 4.557-.2 2.199 1.36-.88 2.519.44 4.397 1.519 2.08 2.598 1.16 3.478 1.84 1.08.719 1.959 3.477 1.319 4.397-.88.96-3.718 2.558-1.32 4.197 2.64 1.839 5.238-.72 5.238 1.6 0 2.078-4.358.719-2.839 4.197 1.52 3.477 1.32 3.677 3.718 3.677 2.399 0 4.118-2.318 4.118.48 0 2.559.44 3.238-.2 4.397v.24s.2 0 .2-.24c2.198-.68.24-.919.24-3.917 0-2.799 1.718 1.16 2.598.92.88-.24 1.319-.24 3.038-.92 1.52-.48 2.598-.48 3.278-1.64zm-14.391 9.954c1.12.92 2.838-.44 2.838-1.6 0-.479-.2-.919-.44-1.159h-.64c-1.518.68-1.958.68-3.037.92-.88.24-2.399-3.718-2.399-.92 0 1.16.2 2.08.44 2.519.2-1.12 2.158-.68 3.238.24z" fill="#ef8f4c" fill-rule="evenodd"/><path d="M59.604 284.667c-3.038 0-4.357-3.957-3.918-6.516.24-2.078 1.12-4.197.88-6.276-.2-2.079-1.72-3.038-2.839-4.877-1.079-1.879-2.398-4.197-3.038-6.316-.64-2.319-.2-4.397-.44-6.756-.44-3.718-4.996-3.718-5.676-6.756" fill="none" stroke="#343434" stroke-width=".8" stroke-linecap="round" stroke-linejoin="round" stroke-miterlimit="10"/><path d="M56.406 272.355c.68-1.16 1.12-3.238 2.438-4.158 2.399-1.399 5.037.92 7.436.92 3.478 0 3.718-2.998 5.916-5.077 1.72-1.639 3.918-1.879 5.877-3.038" fill="none" stroke="#343434" stroke-width=".8" stroke-linecap="round" stroke-linejoin="round" stroke-miterlimit="10"/><path d="M67.959 268.197c2.598-1.159 0-5.316-.88-6.715-2.198-3.718-1.759-6.277-.44-10.474m-10.713 26.624c0-2.998-3.038-7.236-5.237-8.835-2.838-2.358-3.518-.24-6.556.2-2.438.48-3.518-1.6-5.476-2.319-1.76-.72-2 .72-3.758.48" fill="none" stroke="#343434" stroke-width=".8" stroke-linecap="round" stroke-linejoin="round" stroke-miterlimit="10"/><path d="M47.131 267.598c-3.477.2-4.117-2.319-5.196-5.077-1.12-2.279-3.958-5.996-6.796-5.517m31.381 2.799c-.44-3.958 2.198-3.718 4.797-4.638 2.398-.96 3.678-4.917 4.757-7.515" fill="none" stroke="#343434" stroke-width=".8" stroke-linecap="round" stroke-linejoin="round" stroke-miterlimit="10"/><path d="M151.388 284.548c1.999-1.4 4.837-6.716 4.597-8.995-.2-2.079-1.758-3.718-2.598-5.317-.88-1.639-.88-3.718-1.559-5.317-2.598-5.076-10.674-3.238-13.312-9.274 2.638 3.478 7.675 5.117 11.593 6.476 5.677 1.879 3.718 7.636 7.396 11.113.44-3.477 3.517-3.717 6.116-3.717 2.838-.2 6.316-2.08 8.715-1.6-3.238 2.999-9.595.92-12.873 3.918-2.838 2.559.88 9.714.44 12.713-4.117 2.758-6.076 2.078-8.515 0z" fill="#343434" fill-rule="evenodd"/><path d="M152.667 267.478c-1.279-.92-1.958-3.038-3.677-3.518-2.199-.48-4.358 1.16-6.316 1.639-1.96.48-4.358.72-6.317 0-1.319-.48-4.557-3.078-5.676-1.879m29.022 6.956c1.959-1.6 1.959-4.118 4.118-5.517 1.759-1.159 3.677-1.839 5.396-2.318m-16.19 1.999c.2-2.32-1.319-3.718-2.438-5.557-1.76-3.038-1.52-5.797-1.08-9.315m-.119 7.196c-1.08-1.16-1.48-2.998-2.559-4.157-1.52-1.4-4.117-1.16-4.797-3.518" fill="none" stroke="#343434" stroke-width=".8" stroke-linecap="round" stroke-linejoin="round" stroke-miterlimit="10"/><path d="M56.126 285.107c-1.959-1.399-2.159-6.036-1.52-8.115.64-2.558 2.2-3.957 1.08-6.756-.44-1.16-1.279-2.318-1.959-3.718-.2-.919-.64-2.318-1.519-4.157-.64-1.16-1.279-2.558-1.519-3.958 0-1.159-.44-.44-.44-1.399 0 3.278.88 5.357 2.4 7.915.679 1.16 2.837 3.238 3.917 3.478.88.24 1.759-.72 2.598-1.159.88-.24 1.959-.48 3.278-.24 1.08.24 1.959.92 3.238 1.4.88.24 2.199.24 3.038.24 0 1.598-4.557 1.158-5.636.919-2.399-.24-4.358-.72-4.997 2.318-.44 2.559-1.72 5.317-.44 7.875 1.52 2.32 3.718 3.238 5.677 4.877-2.639 0-1.76 2.999-7.196.48z" fill="#343434" fill-rule="evenodd"/><path d="M130.68 307.334c1.12.24 2.4.68 3.519.92v-.68c2.838-1.2 6.316-2.599 9.594-1.64 1.28.24 3.038 1.4 4.117 2.559.88 1.4.88 2.798 1.76 3.958 4.557-2.08 5.876 1.878 8.914 3.717 2.199-4.197 8.755-1.839 10.913.72 1.96-5.157 8.715-3.758 10.674.92.24-1.64 1.519-2.08 3.078-2.08 2.798.44 3.238 2.999 3.238 5.797 1.759-4.197 3.078-.44 3.078 1.879 2.159-.48 2.838 1.4 3.238 3.238m-97.781-27.383c.4.24-1.319-1.64-2.398-1.4-1.52.24-2.399 2.08-2.199 3.478-1.519-.92-3.478-1.399-2.798.92.4 1.16 1.719 1.16 1.719 2.758-1.959-.44-4.118 1.4-2.159 2.998-1.759-.92-4.597-.92-4.357 1.84-1.32-.68-2.599-2.52-3.718-.44-2.159-.92-3.238-3.678-6.076-2.759-1.96.68-4.118 4.837-4.797 6.916-3.478-1.4-6.077-2.319-8.675.92-.68-1.4-1.959-1.16-2.399.24-2.838-1.64-2.598 0-4.797.919-1.08.44-4.357.68-5.436.68-1.08-.24-1.96-1.4-3.039-1.6-1.519 0-1.519 1.16-2.598 1.84-2.399 1.358-3.078 0-5.037-.92" fill="none" stroke="#343434" stroke-width=".8" stroke-miterlimit="8"/><path d="M156.225 290.664c-.44-1.2-3.717-.96-4.557-.96-1.759 0-2.638 1.88-3.318 3.518.88-.72 1.759-.96 2.638-.96-.64.48-1.079 1.64-1.319 2.12-.44 1.159-.44 2.318-.44 3.477 0 1.4.24 2.799.44 3.958.24.92 0 2.079.24 2.998.44-.68.44-1.599.64-2.318.68-1.4 1.759-2.799 2.838-3.718 1.12-.92 2.838-1.839 4.158-1.16 0-.679-.2-1.638 0-2.318.44.48.68.68.68 1.16.639-1.4.839-3.039-.24-4.198-.2-.44-1.32-1.6-1.76-1.6zm21.347 29.782c-4.117-2.119-9.794-.96-10.473 4.837 1.319-1.16 3.078-1.6 4.597-1.36-1.959 1.84-2.399 4.838-5.037 6.237 3.718 1.599 6.796-2.079 7.435-5.557.88 1.16.64 2.759-.2 3.918.84-1.6 3.039-1.36 4.118-2.758 1.12-1.64 1.52-5.117-.64-5.317zm-91.224-8.116c-2.199 2.32-6.596 1.16-6.157 6.157.68-3.158 6.357-1.12 6.157-5.237zm-17.35 21.708c-4.197 0-6.396-1.88-9.074 2.798 1.799-.68 3.318-.68 5.117-.68-1.32.24-4.438 3.038-2.439 3.718 2.638.92 6.836-3.718 6.636-6.316z" fill="#f39c5a" fill-rule="evenodd"/><path d="M67.999 143.993c2.838.72-3.038 1.879-.64 4.437 2.159 2.758 3.278 3.478 5.237 2.079 1.959-1.16-1.52-6.037 3.478-3.958 5.237 2.079 4.117.24 5.437-.68 1.079-1.159 3.038-6.276 4.557-3.237 1.319 2.758 1.959 3.477 3.278 3.477 1.08 0 1.759-2.118 3.038-.959 1.12 1.4 6.556-1.839 9.154-.68 2.839.92 4.598-1.838 4.798-2.998.44-1.159-1.96-3.038-.44-4.877 1.519-1.879.44 1.84 4.157-2.558 3.478-4.637 4.558-3.238 6.316-3.238 1.52-.24 2.16-.96 3.918.92 1.72 1.838 3.238 2.318 2.599 4.397-.88 2.078-3.918 1.639-4.158 4.637-.2 2.798-2.359 6.276-4.757 6.716-2.199.24-2.199-3.918-2.199.24 0 3.957 4.597 1.399 0 3.957-4.557 2.798-5.636.48-6.076 2.998-.44 2.319-2.838 3.478.44 5.597 3.238 2.079 3.478-.96 6.316 1.839 2.798 2.998 1.719 4.157 4.117.92 2.159-3.239.44-8.116 3.039-7.636 2.398.24 3.477-.72 5.876.24 2.638 1.159 1.519 0 3.918-1.4 2.198-1.638 5.476-6.036 4.597-7.675-1.08-1.599-3.478-4.637-1.32-4.877 2.2-.2 2.4-2.079 4.798-1.599 2.158.68.44-.24 2.598-2.079 1.959-1.879 2.838-3.278 3.278-4.677.2-1.16 0-4.157-2.598-5.796-2.639-1.6-1.76-3.478-1.96-4.837-.239-1.4-2.837-3.958-3.717-1.4-.64 2.759-.64 5.077-1.959 4.638-1.319-.48-.64-6.516-3.917-4.198-3.278 2.559-7.636 4.877-4.997 1.4 2.398-3.479 1.959-4.158 4.997-5.557 3.038-1.4 2.598-3.038 5.876-2.319 3.478.44 2.399-3.238 4.557-3.957 2.399-.44 2.639-1.16 2.399-3.238-.2-1.84.24-6.037-1.52-3.718-1.718 2.558-3.277 2.558-2.837-.24.44-2.758.24-5.797 1.758-6.956 1.52-1.16 1.96-2.079 1.76-4.637-.24-2.319-.24-4.637-1.12-3.918-1.08.44-1.08-1.879-2.159-.24-.88 1.6.88 2.559-.88 5.077-1.958 2.319-5.875 2.799-6.075 2.12-.24-.96.64-4.638-.68-1.88-1.08 2.559-2.159 5.357-3.478 3.238-1.32-2.318-.88-4.837-1.759-6.956-.64-2.318-1.279-3.477-3.917-5.796-2.799-2.079-1.52-4.877-4.118-2.558-2.598 2.118-1.759 4.197-1.32 5.836.68 1.599 1.52 4.157-.639 5.996-2.398 1.88-1.319 4.198-.24 6.037.88 1.879-.4 8.115-.84 6.956-.439-.92-.439-3.478-1.958-2.32-1.559 1.16-1.959 2.12-3.078 2.8-1.08.479-1.52-.48-1.719-2.999-.24-2.798.44-6.276-1.759-6.276-2.398 0-3.918-2.319-5.636-.48-1.76 1.879-2.639-1.599-3.918 1.16-1.32 2.558-.24 3.477.64 5.356 1.079 1.84 1.319 3.238-.64 3.238-2.199 0-3.278-2.558-4.597-2.798-1.32-.2.64-7.635-3.038-6.956-3.478.92-7.836.48-6.956 6.516.2 2.759 0 3.718 1.08 5.317 1.278 1.639 3.237 4.877 3.237 4.877s0 2.079-1.959 1.839c-1.959-.2-5.197-3.478-5.197-4.397 0-.68-1.519-6.037-1.119-6.956.44-.68 1.32-2.319-.2-2.998-1.519-.48-1.519-3.039-2.158-1.16-.88 1.84-2.639-.96-2.639.68 0 1.639 0 4.877-1.28 4.637-1.318-.24-3.077-1.4-3.077-2.079 0-.92-1.28-2.798-.88-3.717.24-.68 3.958-5.797-.64-2.999-4.557 2.519-4.557-2.798-6.515-2.558-1.96.24-4.358-.92-4.797.44-.44 1.639-1.76 2.318-3.039 3.717-1.319 1.16-1.319-1.159-2.638.24-1.52 1.16-6.316-2.318-4.117 1.16 2.158 3.717-3.079 2.078-1.96 4.397.88 2.319 2.6 3.718 4.118 4.437 1.52.44 3.918 2.079 3.918 3.678 0 1.639 1.959 2.319 1.959 2.319s-1.72 1.878-1.72 4.677c0 2.518-.879 1.359-1.958 2.318-1.32 1.16-2.399 3.478-1.52 5.077.64 1.64-3.277 6.516-3.277 6.516-2.199-.48-6.556 1.6-5.677 4.158 1.08 2.318-.44 2.798-1.719 3.718-1.319.68-1.959.48-4.357 0-2.199-.68-3.078-4.398-4.797-2.559-1.76 1.879-3.718 3.958-3.478 4.877.2 1.16-1.12 2.798 2.398 3.238 3.238.48 4.758 0 7.156.24 2.639.24-7.595.92-4.997 3.718 2.599 2.998 4.358 1.399 6.956 2.798 2.838 1.36 1.559 2.758 4.357 4.397 2.839 1.6 3.278 0 5.037-.919 1.72-.72 2.399-2.119 3.238-2.558 1.12-.72 6.117-4.198 6.117-5.797 0-1.639-.88-3.718.879-4.437 1.719-.92 2.159-.44 3.918-.44 0 0 1.079.44.64-1.639l7.395 2.079z" fill="none" stroke="#343434" stroke-width=".32" stroke-linecap="round" stroke-linejoin="round" stroke-miterlimit="10"/><path d="M63.282 139.435s2.198-1.159 2.438 0c.2 1.16.84 4.838-2.438 0m-16.59 44.294c.44-1.88-1.52-3.718-.68-5.357.88-1.4 3.278-4.637 2.199-6.276-.88-1.6-1.76-6.276-4.158-4.398-2.158 2.08-3.478 3.478-5.197 1.16-1.519-2.319-3.078-5.557-4.597-4.877-1.279.68-2.598 2.318-4.117 1.839-1.32-.44-3.038-2.999-3.718-1.36-.44 1.84.24 4.158-.64 4.158s-3.478-2.798-4.157-4.637c-.64-1.64-1.72-3.958-3.918-4.398-1.959-.48-3.038-2.358-3.478-.72-.64 1.88-1.079 3.958-2.598 3.479-1.52-.44-3.478-1.6-4.357-1.4-.88.24-2.839 7.676-.68 6.996 1.959-.72 4.797-2.558 6.116-1.639 1.52.92-1.519 2.799-.44 4.198 1.08 1.159 2.599-.24 4.558.44 2.198.719 0 2.558 2.398 2.558 2.199 0 2.399-2.798 4.158-.24 1.519 2.798 1.959 2.319 2.398 4.197.44 2.08-1.519 2.999-3.038 1.16-1.759-1.64-3.518-3.238-4.797-3.478-1.12-.24-2.638-.48-3.718-1.4-1.319-.719-1.719-1.398-2.598-.719-.88.72-1.759.72-3.918 0-1.958-.68-4.357.24-2.638 1.879 1.959 1.4 3.078 2.319 4.597 2.558 1.28.24 3.238-.919 3.478 0 .2.92-1.759.24-3.478 1.84-1.959 1.398-3.917 1.878-1.759 3.037 2.399 1.4 3.478.68 5.237 2.08 1.959 1.159.88 2.798 2.598 2.558 1.76-.24 2.2-2.999 3.079-.92.64 2.319-3.079 3.238-.24 4.637 2.598 1.4 3.717-1.639 4.557 1.16.68 3.038-2.598 4.197.44 4.637 2.838.48 4.597-1.6 6.116-.24 1.719 1.64.64 3.718 1.32 3.718.839 0 2.358-.44 1.718.72-.64 1.159-3.278.24-3.478 1.598-.2 1.16-1.959-.919-3.278 0-1.08.72-2.598 0-4.357 1.16-1.52 1.199-3.918 2.358-.84 3.518 3.039.919 9.555-1.16 9.355 1.359-.24 2.358-.24.96.88 3.278 1.278 2.078 1.718 2.318 2.798 2.318 1.119 0 2.198-.48 2.198.68 0 1.4-1.519.72-1.08 3.478.44 2.798.2 4.437-1.558 3.718-1.72-.68-2.359-3.718-3.918-2.999-1.519.68-2.798-1.878-3.038 0-.2 2.08-3.678.44-5.237-2.318-1.28-3.038-2.159-4.637-4.557-3.958-2.159.68-3.718.68-5.237-.68-1.519-1.638-3.918.68-3.918.68s-.44 4.398 1.32 5.357c1.958.92 1.079 2.319 3.038 2.758 2.198.24 3.917-1.399 5.437.96 1.758 2.078 1.119 1.599 1.758 3.238.64 1.839.2 3.478-1.958 3.238-1.96-.24-3.039-3.958-3.918-1.4-.64 2.32-2.199 6.277-3.478 4.678-1.519-1.88-3.278-3.278-3.917-1.88-.88 1.64-3.718 3.04-1.96 4.198 1.96 1.4 3.678.2 3.039 2.559-.64 2.079-5.437 3.917-4.158 4.157 1.32.24 3.518.24 2.399 1.88-.84 1.838-4.797 2.758-4.557 3.917.2 1.16 0 1.16.88 4.197.639 2.998 1.078 4.158 3.037 4.158 2.159 0-1.519-4.398 2.159-4.158 3.718.24 2.638 0 3.918-1.639 1.119-1.839 1.759-4.877 4.157-2.558 2.159 2.558-.44 2.558 3.718.72 3.917-1.64 7.595.44 9.794.44 1.959 0 2.598-.2 3.678-1.16.88-.92.44-2.998 3.078-2.079 2.798.68 3.478.92 5.197.24 1.519-.92-1.28-2.559 2.838-2.319 4.157.24 4.157-1.399 3.718-2.318-.44-1.16-2.199-2.559-2.199-3.958 0-1.639 1.759-4.637.68-5.117-1.32-.44-2.639-1.399-2.199-3.957.44-2.759.24-5.317 3.038-2.999 2.838 2.559 2.399 2.08 4.797 2.559 2.399.44 2.399-.48 3.918-.72 1.519-.2 1.519-3.238 1.319-4.637-.2-1.639.2-3.957-1.759-4.397-2.159-.48-.4-5.597-2.598-5.797-1.96-.24-2.159-1.399-4.358-.48-1.958.92-4.997-2.078-5.876-2.558-.88-.48-3.478.68-4.118-.68-.68-1.638-2.638-3.517-.88-4.677 1.52-1.359 3.679-2.318 2.4-3.917-1.12-1.88-4.358-1.64-3.718-2.559.88-.92 2.198-1.879 1.519-3.278-.64-1.159-2.599-.68-2.159-2.318.44-1.6.88-5.077 3.238-4.158 2.399.92.88-1.399 3.278-.48 2.199.92 5.237.48 5.677-1.838m114.091 57.885c-1.08 0-1.76 1.399-.24 4.637 1.319 3.238 1.319 3.957-.84 3.478-1.959-.44-3.917-3.478-4.597-1.16-.64 2.08-.64 2.559 1.08 4.198 1.958 1.359-.4.2.44 3.478.679 2.998 3.717 2.318 4.596 3.478.84 1.359-.88 3.677.64 3.677 1.519 0 2.398-1.839 4.557-2.318 2.399-.44 3.078 1.399 4.158 2.318 1.319 1.16 1.519-.2 2.838-.44 1.519-.24 2.798-1.638 3.678.92.88 2.319 0 3.918 3.038-.68 3.078-4.437 3.518-5.356 2.638-6.036-.88-.72-3.917-2.558-3.278-3.238.64-.72 2.599-.96 2.599-.96s1.559-2.318 3.717-.2c1.96 1.84.88 3.679 4.158 2.999 3.238-.48 1.719-3.958 3.917-2.998 1.96.68 1.08.2 3.918 1.839 2.798 1.839 1.28 2.798 3.678.24 2.398-2.32 2.598-4.198 1.959-5.117-.88-.92-2.399-6.476-4.797-5.997-2.16.44-3.039 1.16-4.757.44-1.96-.44-1.12-3.918-3.518-2.079-2.359 1.64-5.637 0-5.637 0s-1.08-.92-2.399.24c-1.519 1.16-1.758 1.6-2.198.68-.4-.92-1.28-1.84.44-3.478 1.958-1.4.24-3.718 2.638-4.158 2.399-.48-2.638-.24 2.399-.48 4.757-.24 2.158.24 4.757-.24 2.638-.439-.4-.679 2.838-1.358 3.278-.96 1.759-2.559 4.357-1.64 2.599.92 3.038-1.598 4.358.24 1.519 2.08-.44 2.759 2.158 3.478 2.399.68 2.399-2.078 4.598-.24 2.158 2.08-.24 2.32.64 5.117.879 2.999-.88 1.6 1.758 3.478 2.399 2.079 2.399 1.36 3.478.2.88-.92 2.159-.92.88-4.397-1.52-3.478-1.96-4.158-.24-3.718 1.519.48 2.838 0 2.838-1.36 0-1.638-1.32-5.556-2.159-3.957-.88 1.4-2.838 1.64-3.278-.24-.44-2.078 2.838-4.397.44-3.917-2.199.44-6.316-.24-2.399-1.4 3.678-.919 4.118-2.078 3.678-4.157-.64-1.879.44-5.357-.84-3.957-1.119 1.639-1.758-.24-3.277 1.639-1.32 1.599-.64 2.078-3.478 1.159-2.639-.96-1.08-5.357-3.278-2.798-2.399 2.798-5.237 2.998-3.918 1.399 1.52-1.88 3.478-3.238 3.478-4.637 0-1.16 0-4.877-1.28-4.877-1.318 0 0-2.759-3.077-1.4-3.039 1.16-3.478 2.12-5.197.96-1.96-1.16-1.96-2.799-1.76-5.357.24-2.758.64-6.956-2.398-5.317-3.238 1.84-5.876 4.637-6.076 1.4-.24-3.478 1.519-6.717-.44-6.277-2.198.48-2.838 1.88-4.157-.44-1.52-2.558-2.399-4.437-3.038-3.278-.64 1.16 2.838-1.159 4.357-.68 1.519.48 3.478-2.078 1.08-3.717-2.16-1.839-3.918-2.318-4.118-4.397-.24-2.319-1.52-6.476 2.398-5.557 3.918 1.16-.44-.68 4.757-2.079 5.477-1.639 5.917-4.877 7.196-2.078 1.52 2.758.44 1.599 3.038 4.397 2.639 2.998 4.158.92 5.037 2.758 1.08 2.08 0 1.16 1.52 3.718 1.279 2.559 2.838 2.559 4.117 2.079 1.319-.68 1.08-2.079 2.198-2.559.88-.44-.44-1.839 2.16-.92 2.638.72 3.477-1.158 2.198-2.997-1.52-2.079-3.718-5.797-3.718-5.797s3.038-3.478-.64-2.798c-3.717.48-3.477 2.558-5.676 1.4-2.159-1.16-1.08-4.878-3.038-4.158-1.76.68-4.158 2.998-4.358.24-.2-2.799 8.036.919 9.355-.48 1.079-1.64.64-2.799 1.759-3.238 1.079-.48 2.838-2.799-.68-2.799-3.478 0-3.238-.44-5.197-1.599-1.759-1.159-2.198-1.639-3.478-1.878-1.119-.2 1.52-4.158 2.799-4.158 1.519 0 2.638-5.117 5.436 0 2.639 5.317 2.639 5.117 5.677 5.117s3.038-1.16 3.918-2.119c1.079-.92.64-1.599 1.319-2.518.64-.72.88-3.718 2.398-4.198 1.72-.44 1.72-3.478 1.52-4.157-.24-.68-2.64-2.319 0-2.559 2.598-.44 3.237-1.159 3.237-2.318 0-1.16-2.358-7.396-4.317-3.478-2.199 3.957-4.597 6.036-5.876 4.397-1.32-1.359-2.2-5.556-3.079-2.318-.84 3.038-3.238 4.637-3.677 2.558-.44-1.839-3.078-3.918-3.078-2.079 0 1.64-6.716 1.16-7.836 1.16-1.08 0-4.317 2.318-2.798-.68 1.719-3.038 1.519-5.597 6.076-5.357 4.558.48 3.038 1.88 4.797-1.839 1.96-3.717 1.72.24 1.96-4.637.199-5.117.199-6.276 0-7.195-.24-.92 4.117-2.759-.44-3.478-4.798-.68-3.279 1.159-5.677 1.399-2.359.24-2.798-2.079-4.317-1.16-1.76.92-2.2-.24-3.518.92-1.28 1.4-2.16 2.798-1.28 4.397.64 1.88-1.958 3.278-3.278 3.278-1.519 0-5.236 1.84-3.278 3.918 1.76 2.319 5.677 2.079 4.158 3.718-1.76 1.839-4.797-1.4-5.877 0-.88 1.599-1.519 4.397-2.838 5.316-1.08.72-1.759-2.078-2.398-1.599-.64.44 1.519-5.356 3.038-6.036 1.319-.92 4.357-3.718 3.478-5.796-1.08-1.84-1.72-3.478-2.799-2.799-1.319.96-1.519 1.88-1.759 3.278-.2 1.6-2.838 3.678-1.719.44 1.08-2.998 3.478-5.557 1.52-6.716-1.76-1.399-1.52-.24-2.399.48-1.08.68-.68-1.879-1.08-3.038-.44-1.16-1.558-2.998-2.198-1.84-.64 1.4-.2 0-1.719 4.158-1.32 3.958-3.518 5.797-2.838 6.716.88 1.16 1.719 1.64 1.519 4.398-.24 3.038.88 3.278-1.52 4.197-2.198.68-3.917-.48-5.236-.72-1.32-.2-4.118-1.359-2.838-3.477 1.519-1.84 1.519-3.438 3.278-3.238 1.958.24-2.839 0 1.519-3.918 4.157-3.958 6.116-8.595 6.756-9.754.88-1.16 1.319-1.4 1.719-2.519.44-.96-.4-4.877-2.799-5.117-2.398-.24-6.116-8.594-7.835-5.556-1.959 2.758-4.597 8.355-3.078 9.514 1.759 1.16 2.638 2.998 2.638 2.998s-2.638 1.4-4.357 1.6c-1.959.24-3.478-.68-3.038.719.4 1.599-1.56 5.317-.44 6.036.84.68-.24 5.797.2 6.716.44.92-1.08 1.16-.44 2.998.44 1.64 3.478.68 2.639 2.998-.68 2.559-2.639 2.12-3.278 2.799-.44.68 1.319 2.998.64 3.957-.88.92-2.84 2.319-4.358.44-1.28-1.599-2.599-8.115-2.599-2.998 0 5.317 1.76 5.796-1.079 7.196-2.638 1.599-3.918-3.958-3.918.2 0 4.397-1.519 3.237-3.717 6.276-1.96 2.998-3.278 2.758-1.08 4.637 1.96 2.079 2.599.68 4.358.68 1.959 0 1.959-3.918 5.436-3.718 3.478.48 1.32-1.36 4.558-1.6 3.278-.24 1.519-3.717 4.597-1.399 3.038 2.08-.88 2.799 1.28 4.398 1.958 1.399 1.758-1.84 3.077.92 1.52 2.798.2 2.318-1.559 4.437-1.959 2.318-3.678 3.677-2.358 5.076 1.519 1.16 1.719 3.958 1.719 3.958s-1.72.68-2.399 1.6c-.64.919-.88 3.477-.88 3.477s0 1.639 1.32 4.637c1.519 2.998 2.838 3.238 4.797 3.958 1.719.68 1.319 2.998 2.838 3.678 1.72.72 1.52 2.318 1.52 2.318l-6.117-2.518-4.997-2.799s-4.557 0-3.038 4.398c1.319 4.637 2.158 7.435 5.237 7.435 3.038 0 2.598-3.957 5.636-1.16 3.038 2.76-2.398 4.158.44 4.838 2.838.96 2.598-1.36 4.557-.2 2.199 1.36-.84 2.519.44 4.397 1.519 2.08 2.638 1.16 3.478 1.84 1.12.719 1.959 3.477 1.319 4.397-.88.96-3.678 2.558-1.32 4.197 2.64 1.839 5.238-.72 5.238 1.6 0 2.078-4.358.719-2.839 4.197 1.52 3.477 1.32 3.677 3.718 3.677 2.399 0 4.118-2.318 4.118.48 0 2.559.44 3.238-.2 4.397-.64 1.16-1.52 1.16-3.278 1.64-1.52.679-1.96.679-3.038.919-.88.24-2.399-3.718-2.399-.92 0 2.999 1.759 3.238-.2 3.918-2.199.92-5.676-2.079-4.597-.44 1.32 1.84 1.959 2.079 1.959 3.238 0 1.16-1.72 2.559-2.799 1.6-1.119-1.16-3.517-1.6-3.278.48.2 1.838-1.958 4.157-1.958 4.157" fill="none" stroke="#343434" stroke-width=".32" stroke-linecap="round" stroke-linejoin="round" stroke-miterlimit="10"/><path d="M55.247 130.56c-5.197-2.837-5.837 5.597-6.916 8.836-.24-2.799 2.358-2.559 4.117-3.478 1.52-.92 2.998-3.278 2.998-5.157zm2.838 4.838c-2.159 2.119-1.08 5.597-2.159 8.155.68-1.4 2.399-1.4 3.038-2.558 1.28-1.84 0-3.958-.2-5.357zm-31.981 53.607c-.2-2.118-2.798-1.159-3.678 0-1.319 1.88-1.519 4.917-2.398 7.236-.24-1.839 1.32-1.599 2.398-2.079 3.278-1.159 2.599-2.798 3.678-5.636zm141.594-35.698c1.76-2.319 4.598-2.558 7.036-1.4 3.278 1.4 3.918 3.719 5.437 6.477-1.52-2.998-2.838-1.4-4.997-.44-3.518 1.12-4.158-1.639-5.717-4.157zm10.434 62.323c-3.838-2.12-4.477 9.074-4.277 10.913-.64-1.6.88-2.079 2.158-2.998 2.319-1.64 2.319-3.718 1.92-6.756zm14.871 4.597c-2.838.72-.4 6.116.24 7.755-.24-3.038 2.598-5.157.44-7.995zm-24.185 26.903c-3.318-.92-3.998 6.156-3.318 8.195-.44-2.039 1.119-2.278 2.438-3.398 1.76-1.599 1.32-2.518.44-4.117zm3.717 1.56c2.16 2.598 3.638 4.437 3.438 8.154-.88-1.159-1.279-2.318-2.598-3.478-1.28-.919-3.038-2.318-1.28-4.197zM18.589 234.778c-3.878-3.918-4.717 7.155-4.957 9.194-1.52-2.278 2.598-2.278 3.478-3.198 1.479-1.4.64-4.357.64-6.436zm3.278 2.318c0-.24 0-.24-.24-.48-3.518 3.239 2.199 6.517 3.278 9.035-1.28-1.16-.64-2.998-.64-4.637 0-1.839-.2-3.238-1.959-4.637zm29.422 90.745c.64-5.197-6.916-4.477-7.995-.48 1.08-.719 3.238-.719 3.678.48-2.999 0-4.758 4.438-7.356 5.877 3.038-1.44 6.916.44 9.074-2.839-.4.72-.839 1.88-1.079 2.839 2.399-1.88 4.318-2.839 3.918-6.356zm15.231-11.393c-2.359-1.16-6.916-.24-7.796 2.479 1.52-2.479 6.277 2.038 7.996-2.919zm7.075-105.336c-1.559-2.079-5.716-.92-7.475.96-1.999 2.078-2.678 6.915-2.439 9.434.44-4.358 4.638-2.519 7.276-3.438 2.838-1.16 4.157-4.637 2.838-6.956zm113.572-67.999c-.68-2.838 2.998-2.598 4.517-1.879 1.919.92 3.838 3.278 4.477 5.357-.64-.44-1.28-1.399-2.119-1.599-1.079-.24-1.719.68-2.798.68-1.959.24-3.878-.68-3.878-3.278zm2.318-9.993c.24-.92-.44-4.398.64-6.517 1.08-1.839 2.398-2.318 4.517-2.078-2.998 2.318-1.28 9.034-5.157 9.034zm-97.461-11.354c-6.116-1.16-2.598 10.674-2.198 12.992-1.28-3.677 2.838-4.157 4.157-6.236 1.28-2.079.2-4.877-1.519-5.796zm13.472-8.195c1.04 3.038.2 3.718-.64 6.276-.64 2.759.24 4.638 1.28 6.916-1.92-2.758 1.679-4.157 2.118-5.996.6-2.079-1.279-5.557-2.558-6.956zm48.531 202.557c2.358-2.358 5.796 3.079 6.636 5.157-1.04-1.159-2.559 0-3.838-.92-1.08-.959-1.919-2.598-2.359-3.997zm12.233 19.109c-.44-1.4-2.2-1.64-3.319-1.16-1.519.68-1.959 2.759-3.078 3.678.24-.92 2.639-.2 3.518-.2 1.32 0 2.878-.72 3.278-2.078z" fill="#79a461" fill-rule="evenodd"/><path d="M74.835 119.568c-2.599 2.798 1.759 10.073 3.677 12.152 0-4.197 1.08-10.753-3.438-12.632zm19.308.759c-.24-4.597 7.395-4.117 9.114-.92-1.279-.48-1.519.2-2.798.68-1.959 1.12-4.997 1.8-6.556-.68zm-38.857 15.031c-3.717-2.119-8.155 5.876-6.156 8.915-.2-1.88 1.56-2.319 2.639-3.039 1.998-1.159 3.318-2.358 3.078-5.156zm-12.792 9.714c-3.598 0-5.117 2.399-6.396 6.156.64-2.118 2.359-1.639 3.838-1.879 1.719-.24 2.558-1.639 2.958-3.797zm-2.918 29.182c-3.958.92-2.838 8.995-.88 11.274-1.319-2.28.44-2.959 1.32-4.598 1.279-2.038.2-3.677-.44-5.956zm-7.796-2.878c-1.758 0-3.317-.96-5.076-.48-1.8.48-2.679 2.319-3.798 3.918 1.999-2.079 6.916 2.079 7.356-2.518zm13.593 43.654c-2.639 2.318 1.319 11.113 3.517 12.952-.2-1.12-1.319-2.279-.88-3.678.24-.92.88-.92 1.12-1.839.64-2.558-1.319-4.877-2.878-6.476zm-4.158 6.955c-1.919 3.039-4.078 6.477-1.919 10.394-.24-2.518 1.04-2.758 2.319-4.157 1.08-1.36 1.279-3.678.88-5.517zm-23.106 7.196c-1.28.72-3.198.24-4.717.92-1.48.919-4.078 3.677-4.078 5.716.68-2.279 2.359-2.279 4.078-2.279 2.598 0 3.678-1.359 3.878-4.117zm151.988 24.345c-4.078-1.879 0 11.353 0 12.273-1.28-1.839.44-2.998 1.08-4.397.839-1.84.839-5.317-.44-6.956zm10.833-52.888c-.44-2.278 3.078-3.438 4.638-2.958 1.758.24 3.517 1.6 5.236 2.279-1.279.48-2.398 1.16-3.478 2.079-2.438 1.798-2.438.2-4.837-.92zm-13.551-51.728c0-3.718.68-9.834 5.676-9.115-1.719 1.4-1.719 3.518-2.159 5.637-.44 1.839-1.519 1.839-2.838 3.278zm-3.319 18.748c-1.479-1.639-1.718 3.238-1.718 3.958 0 2.758 1.319 5.557 1.079 8.075-.84-2.518 1.08-3.238 2.359-4.597 1.918-2.319.64-5.797-.64-8.355zm-6.515-45.212c-.88-2.079 0-4.637 1.519-5.797 1.559-1.399 3.717-.96 4.797-2.358-.4 1.639-1.96 3.278-2.799 4.917-1.119 2.318-1.319 1.399-3.517 2.078zm-31.741 17.509c-3.758-.24-3.518 7.516-2.199 9.594-1.12-2.318.64-3.278 1.959-4.677 1.519-2.079.68-3.038-.44-5.157zm-18.389-28.063c0-.48.68.48.88.96.879 1.399 1.319 2.798 1.758 4.397.68 2.598.68 5.157 3.518 5.836-2.198-.919-1.519-4.637-1.519-6.516-.24-3.278-1.32-3.278-3.518-4.197zm-33.5 176.213c-.4-2.798-3.917-2.558-5.876-1.399-3.038 1.84-3.478 5.557-7.636 6.236 3.278 1.16 13.512 4.358 13.112-3.677zm84.549 43.614c-1.32-4.437-11.793-4.917-11.353.96.88-.96 3.957-.24 5.037.44-3.078 0-5.677 3.277-8.755 1.878 2.199 1.4 6.356 3.278 8.515 1.4-.44.719-.64 1.638-1.08 2.358 4.358.2 8.715-1.64 6.996-7.276zm26.024-6.516c3.478-.72 8.875 3.518 8.035 8.395-1.319-2.559-11.313-3.478-9.114-7.236zm-36.138-9.434c-.84-1.4-2.598-4.158-4.357-4.398-2.599-.72-3.918 2.319-5.477 3.918 2.199-.24 5.277 4.157 6.796.24zm9.195 3.238c-.68-2.519-6.557 0-7.676 1.559 1.32-.68 2.639-.44 2.439 1.359 1.279-.2 7.395-1.36 5.436-2.918zm-21.827-59.045c-.84 3.758-1.52 6.996 1.759 10.034 1.719 1.4 7.795 2.999 8.874.24-1.279 0-3.038-.72-3.877-1.879.84.72 1.958.72 2.798.48-2.159-2.798-5.837-4.677-8.435-7.236zm-6.716-94.742c-7.116-.96-5.597 11.113-5.157 15.51-.24-2.318.64-4.397 2.359-5.556 0 1.399.44 2.558 1.479 3.238-1.04-1.839.44-3.678 1.319-5.797.84-2.078 1.04-5.316.4-7.635z" fill="#f9c73e" fill-rule="evenodd"/><path d="M71.796 121.566c-3.318-.96-6.196 5.317-4.837 8.315 1.96-2.518 5.277-2.998 4.837-7.395zm21.667 1.519c5.677 0 6.756 9.994 5.917 14.152-.68-2.998-8.995-10.874-5.477-13.432zm11.633-12.472c2.639.24 4.158-1.2 6.956 1.16 1.759 1.638 3.678 4.197 3.678 6.995-2.359-3.478-9.754-1.4-10.194-6.276zm-67.479 63.322c-5.077-2.559-6.596 2.558-6.396 6.955-1.12-2.078 1.32-3.238 2.878-3.677 2.439-1.16 3.078-.96 3.518-3.718zm6.316 39.855c-4.597-2.118-4.597 5.397-4.597 8.435-.44-3.038 1.12-2.558 2.639-3.518 1.958-1.399 1.958-2.318 1.958-4.917zm-21.986 17.23c1.279-2.319 4.277.48 5.157 1.639 1.479 2.079 1.279 4.397 1.279 6.676-.44-1.6-1.28-3.918-2.359-5.077-1.279-1.599-6.236-.24-4.717-3.238zm61.923-48.69c.199-2.799-4.718-1.84-6.037-.92-2.559 2.079-3.438 4.637-6.236 5.357.88 0 1.719-.24 2.798-.48 1.959 0 3.678.92 5.397.92 2.798 0 4.917-1.84 3.877-5.117zm85.347-32.3c.88-2.36 3.918-3.999 6.077-2.8 1.759.92 3.478 4.198 4.557 6.077-3.678-1.879-7.795 1.6-10.634-3.278zm8.555 52.127c.24-.24 0-.48-.2-.48-5.236 2.12 2.839 11.954 5.637 13.353-1.919-1.84-1.919-4.917-1.719-7.476.44-1.879.64-5.157-1.759-5.636zM78.073 314.33c-1.08 1.878-7.676-1.68-6.996 1.878 1.959.72 6.156 1.4 6.796-1.639zm-1.24-64.761c-2.598-.48-4.797-2.799-7.435-2.799-3.518-.24-5.717 3.238-6.596 6.277 1.559-.92 4.197-.92 5.956-1.16-1.559 2.759-4.197 6.237-6.836 7.636 3.958.68 6.397-3.478 9.874-3.918v3.238c1.12-.92 3.079-.92 4.198-2.318 1.28-2.08.2-3.958.2-6.037z" fill="#c67239" fill-rule="evenodd"/><path d="M69.118 17.99c0-1.16 1.959.919 3.078 1.598 3.238 2.319 6.316 3.238 10.234 3.038 4.997 0 11.113-1.159 13.472-6.276m67.638 1.44c2.88 5.396 8.756 10.273 14.912 10.993 4.797.2 7.835-2.12 11.553-4.678M78.073 22.506c-3.238 7.116-11.553 6.916-17.67 5.517" fill="none" stroke="#fff" stroke-width=".32" stroke-linecap="round" stroke-linejoin="round" stroke-miterlimit="10"/><path d="M169.857 25.624s.64-.48.44.24c-3.038 2.359-6.316 3.278-10.034 3.758-4.357.72-12.193 3.038-15.91.72m-33.26 12.952-74.355 93.303M80.391 32.66 34.26 90.625" fill="none" stroke="#fff" stroke-width=".32" stroke-linecap="round" stroke-linejoin="round" stroke-miterlimit="10"/><path d="m59.124 29.942-.16.36-25.664 32.5m151.028-20.867L38.896 224.544" fill="none" stroke="#fff" stroke-width=".64" stroke-linecap="round" stroke-linejoin="round" stroke-miterlimit="10"/><path d="M171.056 40.495 36.098 209.833M194.642 54.487 30.582 260.202" fill="none" stroke="#fff" stroke-width=".32" stroke-linecap="round" stroke-linejoin="round" stroke-miterlimit="10"/><path d="M188.806 173.695 81.91 307.773" fill="none" stroke="#fff" stroke-width=".16" stroke-linecap="round" stroke-linejoin="round" stroke-miterlimit="10"/><path d="m183.05 262.52-35.18 44.134" fill="none" stroke="#fff" stroke-width=".32" stroke-linecap="round" stroke-linejoin="round" stroke-miterlimit="10"/><path d="m188.326 259.163-36.458 45.812" fill="none" stroke="#fff" stroke-width=".16" stroke-linecap="round" stroke-linejoin="round" stroke-miterlimit="10"/><path d="M195.202 272.995 163.86 312.49" fill="none" stroke="#fff" stroke-width=".64" stroke-linecap="round" stroke-linejoin="round" stroke-miterlimit="10"/></svg>