<svg xmlns="http://www.w3.org/2000/svg" version="1.0" viewBox="0 0 285.694 153.827"><defs><clipPath clipPathUnits="userSpaceOnUse" id="a"><path d="M3.198 2.159h285.347v153.906H3.198z"/></clipPath></defs><path d="M280.19 122.566c0 17.749-60.183 32.26-134.398 32.26-74.435 0-134.639-14.511-134.639-32.26V31.78H280.19v90.785z" fill="#6eacd9" fill-rule="evenodd"/><path d="M280.19 31.94h-25.824v109.934c16.27-5.417 25.824-12.133 25.824-19.288V31.94z" fill="#3a92cb" fill-rule="evenodd"/><path d="M93.823 30.581h-81.95v90.925c0 13.232 33.76 24.745 81.95 29.722V30.581z" fill="#97cdec" fill-rule="evenodd"/><path d="M13.872 50.09v63.801s2.028 6.946 12.152 12.153V55.516s-6.076-.43-12.152-5.426z" fill="#bde2f6" fill-rule="evenodd"/><path d="M277.552 50.41v67.199s-2.838 4.977-5.677 6.916V53.028s4.877-1.959 5.677-2.619z" fill="#1e84c2" fill-rule="evenodd"/><path clip-path="url(#a)" d="M280.19 122.566c0 17.749-60.183 32.26-134.398 32.26-74.435 0-134.639-14.511-134.639-32.26V31.78H280.19v90.785z" fill="none" stroke="#343434" stroke-width=".8" stroke-miterlimit="8"/><path d="M145.792 147.27c-74.435 0-134.639-14.47-134.639-32.42v7.796c0 17.709 60.204 32.18 134.639 32.18 74.215 0 134.398-14.471 134.398-32.18v-7.576c-.2 17.73-60.183 32.2-134.398 32.2z" fill="#a9aaaa" fill-rule="evenodd"/><path clip-path="url(#a)" d="M145.792 147.27c-74.435 0-134.639-14.47-134.639-32.42v7.796c0 17.709 60.204 32.18 134.639 32.18 74.215 0 134.398-14.471 134.398-32.18v-7.576c-.2 17.73-60.183 32.2-134.398 32.2" fill="none" stroke="#343434" stroke-width=".8" stroke-miterlimit="8"/><path clip-path="url(#a)" d="M287.306 36.018c0 17.99-63.442 32.7-141.554 32.7-78.313 0-140.755-14.71-141.575-32.7-1.019-19.048 63.262-32.7 141.575-32.7 78.112 0 141.554 12.133 141.554 32.7z" fill="#a9aaaa" fill-rule="evenodd"/><path clip-path="url(#a)" d="M287.306 36.018c0 17.99-63.442 32.7-141.554 32.7-78.313 0-140.755-14.71-141.575-32.7-1.019-19.048 63.262-32.7 141.575-32.7 78.112 0 141.554 12.133 141.554 32.7" fill="none" stroke="#343434" stroke-width=".8" stroke-miterlimit="8"/><path d="M4.197 33.02c0-16.49 63.382-29.862 141.555-29.862 78.192 0 141.554 13.372 141.554 29.862 0 16.51-63.362 29.862-141.554 29.862C67.579 62.882 4.197 49.53 4.197 33.02z" fill="#a9aaaa" fill-rule="evenodd"/><path d="M145.872 7.156c75.454 0 135.438 13.072 139.715 28.742.2-.44.6-1.959.4-2.398-7.936-14.811-62.023-28.743-140.115-28.743-78.293 0-133.82 13.072-139.296 29.182-.22.42-.22 1.52-.22 2.16C10.634 20.227 70.417 7.155 145.872 7.155z" fill="#c7c8c9" fill-rule="evenodd"/><path clip-path="url(#a)" d="M287.306 33.02c0-16.43-63.442-29.862-141.554-29.862C67.459 3.158 4.197 16.59 4.197 33.02v3.038c.82 17.95 63.262 32.66 141.555 32.66 78.112 0 141.554-14.71 141.554-32.66 0-.66-.2-1.08-.2-1.739 0-.42.2-.86.2-1.299" fill="none" stroke="#343434" stroke-width=".8" stroke-miterlimit="8"/><path d="M77.273 39.696c0-14.771 59.984-26.904 133.979-26.904h8.335c-21.127-2.618-46.352-4.357-73.396-4.357-74.015 0-133.998 12.153-133.998 26.904 0 14.33 55.526 26.044 125.663 26.903-36.597-4.757-60.583-13.012-60.583-22.546z" fill="#cacbcb" fill-rule="evenodd"/><path d="M131.96 36.458c0-7.256 18.309-13.152 40.895-13.152 22.587 0 40.895 5.896 40.895 13.152 0 7.275-18.308 13.152-40.895 13.152-22.586 0-40.895-5.877-40.895-13.152z" fill="#a9aaaa" fill-rule="evenodd"/><path d="M131.96 36.458c0-7.256 18.309-13.152 40.895-13.152 22.587 0 40.895 5.896 40.895 13.152 0 7.275-18.308 13.152-40.895 13.152-22.586 0-40.895-5.877-40.895-13.152" fill="none" stroke="#343434" stroke-width=".8" stroke-miterlimit="8"/><path d="M16.51 33.62s18.309-22.247 126.643-23.106c108.155-.88 133.16 19.868 134.159 24.385 0 0-41.875-23.086-133.739-21.807C51.489 14.392 16.51 33.62 16.51 33.62z" fill="#807f7f" fill-rule="evenodd"/><path d="M60.963 59.924s77.713 14.311 166.38.44c0 0-83.79 9.973-166.38-.44zM92.144 8.275s63.042-5.836 116.09.64c0 0-90.066-4.738-116.09-.64z" fill="#fff" fill-rule="evenodd"/><path d="M12.033 35.658c0-14.85 60.003-26.903 133.999-26.903 74.015 0 133.998 12.052 133.998 26.903 0 14.871-59.983 26.904-133.998 26.904-73.996 0-134-12.033-134-26.904" fill="none" stroke="#343434" stroke-width=".8" stroke-miterlimit="8"/><path d="m264.98 33.62-45.173 3.038c-3.858-8.035-23.206-13.912-46.192-13.912-25.845 0-47.012 7.616-47.012 16.73 0 9.334 21.167 16.93 47.012 16.93 22.386 0 41.115-5.637 45.792-13.012l44.553-1.96c4.877-3.257 1.02-7.814 1.02-7.814zm-91.365 19.108c-22.587 0-40.895-5.876-40.895-13.252 0-7.156 18.308-13.032 40.895-13.032 22.586 0 40.895 5.876 40.895 13.032 0 7.376-18.309 13.252-40.895 13.252z" fill="#686867" fill-rule="evenodd"/><path d="M30.821 38.577c0-13.232 51.43-23.986 114.85-23.986 63.442 0 114.851 10.754 114.851 23.986 0 13.252-51.409 23.985-114.85 23.985-63.422 0-114.85-10.733-114.85-23.985" fill="none" stroke="#343434" stroke-width=".8" stroke-miterlimit="8"/><path d="M41.695 40.096c0-10.194 46.611-18.47 104.097-18.47 57.505 0 104.097 8.276 104.097 18.47 0 10.214-46.592 18.469-104.097 18.469-57.486 0-104.097-8.255-104.097-18.47" fill="none" stroke="#343434" stroke-width=".8" stroke-miterlimit="8"/><path d="M264.82 33.54h-45.733c-3.857-7.816-22.986-13.912-46.152-13.912-25.824 0-46.971 7.615-46.971 16.95 0 9.114 21.147 16.71 46.971 16.71 22.367 0 41.055-5.637 45.732-13.012H263.8c4.877-3.258 1.02-6.736 1.02-6.736zm-91.885 16.07c-22.566 0-40.855-5.877-40.855-13.032 0-7.376 18.289-13.252 40.855-13.252 22.567 0 40.855 5.876 40.855 13.252 0 7.155-18.288 13.032-40.855 13.032z" fill="#c2c3c4" fill-rule="evenodd"/><path d="M264.82 33.54h-45.733c-3.857-7.816-22.986-13.912-46.152-13.912-25.824 0-46.971 7.615-46.971 16.95 0 9.114 21.147 16.71 46.971 16.71 22.367 0 41.055-5.637 45.732-13.012H263.8c4.877-3.258 1.02-6.736 1.02-6.736zm-91.885 16.07c-22.566 0-40.855-5.877-40.855-13.032 0-7.376 18.289-13.252 40.855-13.252 22.567 0 40.855 5.876 40.855 13.252 0 7.155-18.288 13.032-40.855 13.032z" fill="none" stroke="#343434" stroke-width=".8" stroke-miterlimit="8"/><path d="M138.436 26.524s41.555-14.571 73.316 2.378c0 0-30.742-13.251-73.316-2.378zm80.591 12.372h44.293s-38.996-1.998-44.293 0z" fill="#fff" fill-rule="evenodd"/><path clip-path="url(#a)" d="M42.654 140.835s90.505 26.544 201.718 1.759c0 0-100.859 18.488-201.718-1.76z" fill="#fff" fill-rule="evenodd"/></svg>