<svg xmlns="http://www.w3.org/2000/svg" version="1.0" viewBox="0 0 401.65 151.181"><defs><clipPath clipPathUnits="userSpaceOnUse" id="a"><path d="M-.56 2.319h401.197v151.268H-.56z"/></clipPath></defs><path clip-path="url(#a)" d="M246.81 34.34c-1.119-5.517-6.616-9.195-18.868-13.293-12.253-3.957-40.136-21.087-60.543-17.11C146.97 7.756 80.79 21.748 12.073 46.073 1.239 49.89.52 49.75.82 59.664c.28 9.894 4.217 14.411 10.413 14.411l-1.12-3.957s86.169-35.08 113.772-44.693c27.603-9.615 50.969-20.088 71.257-9.615 20.267 10.474 24.785 11.174 33.22 21.507 8.594 10.174 10.573 11.314 14.65 5.797 4.078-5.377 3.798-8.775 3.798-8.775z" fill="#7b2a17" fill-rule="evenodd"/><path clip-path="url(#a)" d="M246.55 34.52c-.979-5.378-6.615-9.055-18.868-13.153C215.569 17.27 187.686.28 167.259 4.117 146.85 8.076 80.65 21.928 11.913 46.253 1.079 50.07.36 49.93.66 59.844c0 1.979.28 3.817.56 5.356 0-.979-.14-1.978-.14-3.098-.28-9.914.42-9.754 11.253-13.591C81.07 24.185 147.13 10.334 167.538 6.376c20.568-3.818 48.311 13.152 60.564 17.25 11.133 3.677 16.77 7.075 18.449 11.733.14-.56 0-.84 0-.84z" fill="#93321a" fill-rule="evenodd"/><path clip-path="url(#a)" d="M.52 60.243c.44 9.615 4.377 13.992 10.433 13.992l-1.119-3.818C5.037 70.137 1.659 66.88.52 60.243M246.51 34.5c0-.58-.28-1.28-.56-1.859-.279 1.56-1.258 3.978-3.517 6.936-4.077 5.517-6.056 4.397-14.651-5.796-8.455-10.334-12.972-11.034-33.26-21.507-20.288-10.474-43.673 0-71.277 9.634C95.622 31.52 9.415 66.6 9.415 66.6l1.119 3.398c7.755-3.119 86.927-35.22 113.131-44.414 27.603-9.634 51.01-20.107 71.297-9.634 20.288 10.474 24.645 11.333 33.24 21.507 8.455 10.334 10.433 11.313 14.65 5.937 4.078-5.517 3.659-8.895 3.659-8.895z" fill="#652214" fill-rule="evenodd"/><path d="M246.55 34.44h.56c-.28-1.56-.84-2.82-1.679-4.098-1.419-1.84-3.518-3.538-6.336-5.077-2.958-1.56-6.616-2.979-11.133-4.538-2.818-.84-6.336-2.398-10.274-4.237-6.216-2.818-13.532-6.216-21.147-8.895-7.596-2.698-15.49-4.677-22.946-4.677-2.259 0-4.378.16-6.476.58C146.69 7.455 80.47 21.308 11.733 45.612c-2.519.98-4.357 1.56-5.917 2.259-1.119.42-2.098.84-2.958 1.42-1.12.699-1.819 1.698-2.238 2.957-.42 1.28-.58 2.839-.58 4.817v2.679c.16 5.097 1.28 8.754 3.118 11.313.98 1.26 2.099 2.119 3.518 2.818 1.26.56 2.818.84 4.357.84h.7l-1.26-4.657-.559.14.28.56s.28-.14.98-.42c4.656-1.98 26.483-10.734 50.289-20.208 23.665-9.475 49.59-19.509 62.402-24.026 19.588-6.776 36.898-13.991 52.408-13.991 6.476 0 12.533 1.279 18.449 4.377 10.134 5.237 16.33 8.055 20.987 10.753 4.637 2.819 7.895 5.497 12.113 10.594 2.538 3.118 4.657 5.377 6.196 6.916.84.86 1.7 1.419 2.399 1.699.7.44 1.399.72 2.118.72.84 0 1.68-.44 2.379-1 .86-.56 1.56-1.42 2.399-2.538 3.517-4.658 3.937-7.916 3.937-8.915 0-.14-.14-.28-.14-.28h-.56l-.56.14h.14-.14.14-.14s.14 0 .14.14c0 .72-.279 3.678-3.797 8.215a9.538 9.538 0 0 1-2.119 2.399c-.56.42-1.119.7-1.679.7-.44 0-.999-.14-1.559-.56-.979-.42-2.118-1.42-3.378-2.699-1.419-1.4-2.958-3.238-4.937-5.637-4.217-5.236-7.595-8.055-12.392-10.893-4.637-2.678-10.853-5.517-20.987-10.733-6.057-3.258-12.393-4.518-19.009-4.518-15.93 0-33.26 7.336-52.688 13.992-13.812 4.797-42.254 15.97-67.34 26.004-24.924 9.894-46.47 18.649-46.47 18.649l-.56.28 1.259 4.377.56-.14v-.56c-1.4 0-2.819-.28-3.938-.86-1.7-.699-3.098-2.118-4.238-4.376-.98-2.12-1.539-4.937-1.679-8.615v-2.679c0-1.699 0-3.118.28-4.097.28-.72.56-1.28.98-1.839.72-.72 1.698-1.42 3.238-1.979 1.559-.72 3.677-1.419 6.336-2.418C80.77 22.426 146.97 8.435 167.399 4.617c1.958-.42 4.077-.56 6.196-.56 9.574 0 20.427 3.538 30.002 7.496 4.917 1.979 9.434 4.098 13.511 5.936 4.098 1.84 7.616 3.378 10.434 4.378 6.056 1.979 10.554 3.957 13.512 5.936 1.419 1.14 2.538 2.119 3.398 3.258.84 1.12 1.399 2.259 1.679 3.518l.42-.14-.56.14.56-.14z" fill="#343434" fill-rule="evenodd"/><path d="M51.749 54.087c-18.43 7.356-34.2 13.832-39.556 15.95.72 6.217 2.118 12.433 4.517 16.51 5.756 9.735 19.708 28.084 60.523 28.783h.28c9.274 0 11.393-9.734 11.673-22.286.28-12.833 4.637-24.126-10.833-30.622-5.777-2.538-16.05-5.636-26.604-8.335z" fill="#fff" fill-rule="evenodd"/><path d="M21.217 49.21c-4.207 0-7.156.57-8.275 2.129-1.12 1.689-1.549 7.625-1.12 14.261 4.908-1.969 17.39-7.055 32.671-13.132-8.835-1.979-17.25-3.258-23.276-3.258z" fill="#b7866b" fill-rule="evenodd"/><path d="M44.503 52.408c-15.33 6.107-27.863 11.223-32.79 13.212 0 1.13.15 2.129.29 3.258a3570.742 3570.742 0 0 1 37.847-15.33c-1.83-.42-3.518-.85-5.347-1.14z" fill="#aa7d65" fill-rule="evenodd"/><path d="M49.87 53.608a3799.504 3799.504 0 0 0-37.837 15.34c0 .42 0 .71.15 1.13 5.336-2.13 21.087-8.655 39.506-16.04-.56-.14-1.26-.28-1.82-.43z" fill="#8b8685" fill-rule="evenodd"/><path d="M97.081 74.235c-3.358 0-4.197 1.859-4.197 1.859s-5.057 11.753-.7 19.268c1.26 1.84 2.379 2.539 3.638 2.539 3.498 0 6.716-6.217 7.136-9.914.7-4.957-.56-13.312-4.758-13.752h-1.119z" fill="#fefefe" fill-rule="evenodd"/><path d="m92.844 76.074.16.14c.14-.28.979-1.84 4.117-1.84h1.14c.839.14 1.559.56 2.118 1.28 1.999 1.979 2.838 6.236 2.838 9.794 0 .84-.14 1.84-.28 2.539-.14 1.859-1.139 4.257-2.418 6.256-.7.98-1.42 1.979-2.259 2.558-.72.7-1.579.98-2.418.98-1.14 0-2.419-.7-3.558-2.559-1.28-2.258-1.839-4.817-1.839-7.375 0-2.978.7-5.957 1.28-8.095.28-1.12.56-1.98.839-2.539.14-.44.28-.58.28-.86l.16-.14-.16-.14.16.14-.16-.14h-.14s-2.559 5.677-2.559 11.774c0 2.558.58 5.257 2 7.535 1.138 1.979 2.418 2.679 3.697 2.679.98 0 1.839-.42 2.698-.98 2.419-1.999 4.398-6.256 4.677-9.094.14-.7.28-1.7.28-2.539 0-2.418-.42-5.117-1.259-7.255-.44-1.12-1-2.12-1.579-2.839a4.64 4.64 0 0 0-2.399-1.279h-1.139c-3.418 0-4.417 1.999-4.417 1.999h.14zm44.593 11.233v.14c.14-.14.98-.28 1.959-.28 2.518 0 7.015 1.12 11.073 7.775 2.518 4.258 3.358 7.796 3.358 10.474 0 3.558-1.54 5.537-2.938 6.376-.28.14-.56.14-.84.14-1.679 0-4.477-1.26-7.296-3.538-2.798-2.398-5.596-5.656-7.275-9.474-1.12-2.558-1.56-4.397-1.56-5.956 0-2.259.86-3.678 1.84-4.538.42-.42.84-.56 1.119-.84.14 0 .28-.139.42-.139h.14v-.28c-.14 0-.98.28-1.96 1.12-.839.859-1.838 2.278-1.838 4.677 0 1.559.44 3.538 1.56 6.096 1.678 3.818 4.476 7.216 7.415 9.474 2.818 2.419 5.616 3.678 7.435 3.678.28 0 .7 0 .98-.14 1.539-.84 3.078-3.098 3.078-6.656 0-2.678-.84-6.216-3.498-10.613-3.918-6.796-8.555-7.936-11.213-7.936-1.26 0-1.96.3-2.1.3l.14.14v-.14.14z" fill="#343434" fill-rule="evenodd"/><path d="M90.845 74.715s-3.078.44-3.358 2.138c-.3 1.7.42 3.958 3.078 4.118 2.818.14 4.937.14 4.377 3.258-.72 3.258-.58 6.236 0 7.355.7 1-.58 7.656-3.657 8.515l-.72 5.237s4.937-1.839 5.777-7.355c.84-5.537.84-5.537 2.118-6.237 1.26-.86 3.358-4.257 2.939-5.956-.42-1.699 0-4.117 0-4.117s-10.114-2.26-10.394-3.538c-.16-1.14-.16-3.418-.16-3.418z" fill="#999" fill-rule="evenodd"/><path d="M90.845 74.855v-.3s-.84.16-1.679.44c-.42.14-.84.42-1.26.7-.28.279-.559.719-.719 1.278v.7c0 .86.16 1.719.72 2.418.56.7 1.399 1.14 2.658 1.28 1.28 0 2.259 0 2.958.28.42.14.7.28.84.56.3.299.3.719.3 1.138v1c-.3 1.559-.44 2.978-.44 4.237 0 .72 0 1.28.14 1.86 0 .559.14.979.44 1.418 0 0 .14.42.14.84 0 1-.44 2.698-1 4.257-.28.7-.7 1.42-1.12 1.84-.559.559-.979.999-1.678 1.138h-.14l-.72 5.797.42-.14s1.28-.42 2.678-1.559c1.28-1.12 2.819-2.978 3.238-5.936.42-2.699.56-4.118.84-4.838.14-.42.28-.56.42-.7.14-.279.44-.419.72-.559.699-.44 1.398-1.279 2.098-2.418.56-1 1.12-2.259 1.12-3.258 0-.14-.14-.28-.14-.42-.14-.72-.14-1.56-.14-2.279V81.79l.14-.28h-.28s-.56-.14-1.54-.42c-1.399-.299-3.657-.859-5.356-1.418-.98-.28-1.68-.58-2.379-.86-.28-.14-.42-.28-.56-.42-.14 0-.14 0-.28-.14-.14-.999-.14-2.698-.14-3.257v-.44h-.3v.3h-.279v.14c0 .56 0 2.258.14 3.397.14.14.14.28.3.28.28.28.56.42.84.56 1.398.58 3.657 1.28 5.756 1.859 1.979.56 3.658.84 3.658.84l.14-.14-.28-.14s-.14.999-.14 1.978c0 .86 0 1.56.28 2.279v.42c0 .86-.42 1.978-1.12 3.118-.56 1-1.259 1.839-1.819 2.119-.3.14-.58.3-.72.58-.279.14-.419.419-.419.559-.42.86-.56 2.278-1.12 5.397-.419 2.678-1.838 4.377-3.097 5.516-.56.56-1.26 1-1.68 1.14-.28.14-.44.28-.579.28l-.14.14v.28h.28l.72-5.238h-.28v.14c.7-.14 1.399-.56 1.819-1.14.84-.839 1.399-2.118 1.699-3.257.42-1.28.56-2.399.56-3.258 0-.42 0-.84-.14-1.14-.14-.28-.28-.7-.42-1.119 0-.58-.14-1.14-.14-1.859 0-1.259.14-2.678.42-4.097.14-.42.14-.72.14-1.14 0-.56-.14-.999-.42-1.419-.3-.56-1-.84-1.7-.98-.699-.159-1.538-.159-2.538-.159-1.12-.14-1.819-.42-2.239-1.12-.42-.579-.7-1.279-.7-1.998 0-.28 0-.42.14-.7 0-.28.14-.56.56-.86.42-.419.98-.699 1.54-.839.28 0 .56-.14.7-.14h.279v-.28h-.28.28z" fill="#343434" fill-rule="evenodd"/><path clip-path="url(#a)" d="M244.052 103.857s3.238 15.43 2.678 24.025c0 0 16.35 1.84 22.107 1.56 5.637-.28 14.391-3.678 24.945-8.915 10.434-5.197 72.636-37.737 84.189-50.21 11.713-12.432 16.35-15.83 16.35-15.83s-.44 5.956-1.959 11.193c-1.439 5.237.84 7.915 3.798 1.4 2.958-6.357 5.317-24.346 1.4-24.346-3.959 0-6.917 3.278-10.155 5.517-3.238 2.278-17.03 13.472-105.456 49.93-5.077 1.998-21.267 9.194-37.897 5.676z" fill="#7b2a17" fill-rule="evenodd"/><path d="M396.6 52.848s-1.12-4.277-20.148 16.51c-11.393 12.592-73.835 44.973-84.23 50.09-10.593 5.236-19.307 8.754-25.104 9.034-4.637.16-16.47-1-20.587-1.399v1.12s16.35 1.678 21.986 1.558c5.797-.28 14.511-3.837 24.945-9.034 10.594-5.237 72.876-37.617 84.429-50.09 7.755-8.315 12.392-12.592 14.631-14.551.28-1.559 4.078-3.238 4.078-3.238z" fill="#652214" fill-rule="evenodd"/><path d="M397.599 42.734c-3.958 0-6.916 3.278-10.154 5.517-3.238 2.278-17.03 13.472-105.496 49.97-5.077 1.958-21.267 9.194-37.897 5.636 0 0 .16-.4.44 1.44 16.35 3.077 35.218-3.119 40.136-5.238 61.282-25.184 75.194-30.021 102.657-49.09 3.238-2.279 6.197-5.517 10.154-5.517 1.68 0 2.119 3.119 1.959 7.196.56-5.357.16-9.914-1.799-9.914z" fill="#93321a" fill-rule="evenodd"/><path d="m243.972 104.057-.56.16s0 .12.12.56c.16 1.279.84 4.677 1.4 8.754.72 4.118 1.119 8.755 1.119 12.593v2.558h.44c.16 0 3.677.4 8.035.68 4.357.44 9.554.84 12.792.84h1.28c2.957-.12 6.635-1.12 10.833-2.68 4.357-1.558 9.154-3.797 14.39-6.355 5.318-2.679 23.507-11.993 41.816-22.347 9.154-5.197 18.308-10.593 25.904-15.55 3.918-2.399 7.315-4.638 10.114-6.756 2.838-2.12 5.077-3.958 6.636-5.677 5.756-6.076 9.874-10.034 12.552-12.432 1.24-1.28 2.239-2.12 2.798-2.559.28-.28.56-.4.72-.56 0-.12.12-.12.12-.12l-.28-.56h-.56v.28c-.16 1.12-.72 6.197-1.958 10.714-.28 1.28-.44 2.279-.44 3.278 0 .68 0 1.28.28 1.84.16.279.28.399.56.679.16.16.44.28.719.28.4 0 .68-.12.96-.4.44-.28.879-.72 1.279-1.28a10 10 0 0 0 1.399-2.398c1-2.119 1.839-5.357 2.558-8.755.56-3.398.96-7.075.96-9.914 0-1.839-.12-3.398-.4-4.517-.16-.56-.44-1-.84-1.4a2.27 2.27 0 0 0-.56-.439c-.16-.16-.439-.16-.719-.16-2.119 0-3.957.88-5.636 2-1.68 1.118-3.238 2.398-4.798 3.517-.839.6-2.238 1.719-5.476 3.678-9.275 5.676-33.66 18.828-99.98 46.252-2.118.84-5.916 2.398-10.833 3.797-4.917 1.56-10.993 2.679-17.47 2.679-2.958 0-6.036-.28-9.274-.84l-.88-.12.32.84.56-.16-.16.56c3.238.6 6.356.88 9.435.88 6.635 0 12.672-1.28 17.749-2.72 5.077-1.398 8.874-3.077 10.993-3.957 44.213-18.229 69.838-30.102 84.749-37.737 7.475-3.798 12.272-6.636 15.51-8.595 3.078-1.839 4.638-2.998 5.317-3.558 1.72-1.119 3.278-2.558 4.797-3.518 1.56-1.159 3.238-1.838 5.077-1.838h.28c.16.12.28.28.44.56.28.28.4.999.56 1.838.12.84.12 1.839.12 2.958 0 2.839-.4 6.356-.96 9.754-.72 3.238-1.56 6.357-2.399 8.355-.72 1.28-1.279 2.239-1.719 2.799-.28.32-.4.44-.56.6-.12 0-.28.12-.4.12v-.12c-.159 0-.279-.16-.279-.44-.16-.28-.16-.72-.16-1.12 0-.84.16-1.839.44-2.998 1.4-5.197 1.959-11.153 1.959-11.153l.16-1.28-1 .72c-.16 0-4.797 3.518-16.47 15.99-1.399 1.52-3.678 3.358-6.476 5.357-9.874 7.356-26.904 17.39-42.814 26.144-15.75 8.755-30.262 16.27-34.779 18.51-5.357 2.558-10.154 4.676-14.231 6.235-4.198 1.56-7.875 2.559-10.554 2.679h-1.279c-3.238 0-8.435-.4-12.672-.84-2.239-.16-4.198-.28-5.637-.44-.68-.12-1.24-.12-1.679-.12-.4-.16-.68-.16-.68-.16v.56h.56v-1.958c0-4.518-.72-10.034-1.439-14.432-.68-4.517-1.24-7.755-1.24-7.755l-.559.12-.16.56.16-.56z" fill="#343434" fill-rule="evenodd"/><path d="M250.928 104.776s1.839.4 5.357.4c7.595 0 23.106-1.679 45.492-12.552 16.47-7.915 30.542-12.872 45.493-19.508 15.03-6.796 30.82-15.271 50.369-30.102l-.28-.44c-19.548 14.871-35.338 23.346-50.25 29.982-14.91 6.636-29.142 11.593-45.612 19.628-22.386 10.754-37.737 12.433-45.212 12.433-1.68 0-3.078-.12-3.918-.12-.44-.16-.84-.16-1-.16h-.28l-.16.44zM394.64 54.927c.16-.12.44-.4.84-.84.28-.12.44-.28.72-.4.12-.16.4-.16.56-.16h.12c.16 0 .16.16.28.44.16.28.439.28.719.12.28-.12.4-.4.28-.68-.16-.28-.28-.559-.56-.719-.28-.28-.56-.28-.84-.28-.44 0-.839.16-1.119.28-.56.28-1 .72-1.279 1-.44.28-.56.56-.56.56-.16.279-.16.559 0 .679.28.28.72.28.84 0z" fill="#343434" fill-rule="evenodd"/><path d="M280.19 100.859v25.345h1.2v-25.345h-1.2z" fill="#343434" fill-rule="evenodd"/><path d="M126.823 83.23s-10.394-5.657-34.699-6.516l-.3 5.236s24.046.16 35.979 7.076l-.98-5.796z" fill="#999" fill-rule="evenodd"/><path d="m126.863 83.37.14-.14s-10.554-5.817-34.919-6.676h-.28l-.3 5.816h1.421c2.398.16 8.455.3 15.35 1.28 6.756.999 14.232 2.838 19.429 5.816l.42.28-.98-6.516h-.14l-.14.14-.28.14.98 5.816.28-.14.14-.14c-6.057-3.538-15.071-5.397-22.527-6.236-7.595-1-13.652-1-13.652-1v.28h.28l.28-5.237h-.28v.28c12.113.42 20.828 1.98 26.464 3.538 2.818.86 4.937 1.56 6.196 2.139.72.28 1.28.42 1.56.56.14.14.28.14.42.28l.14-.28-.28.14.28-.14z" fill="#343434" fill-rule="evenodd"/><path d="M80.571 60.443c-16.93-7.215-66.44-19.388-71.516-11.872-2.699 3.817-1.98 27.443 4.077 38.056 6.216 10.474 21.447 30.422 66.16 31.122 10.434.14 12.692-10.314 12.972-24.186.44-13.871 5.077-26.044-11.693-33.12zm8.735 32.56c-.28 12.733-2.399 22.487-11.993 22.347-40.895-.7-54.867-19.108-60.643-28.862-5.657-9.774-6.216-31.701-3.818-35.24 4.657-6.935 50.07 4.398 65.6 11.034 15.511 6.516 11.134 17.83 10.854 30.722z" fill="#999" fill-rule="evenodd"/><path d="M80.551 60.443c-16.93-7.215-66.48-19.388-71.556-11.872h-.16c8.335-5.517 54.647 5.936 70.737 12.732 16.93 7.076 12.272 19.228 11.853 33.1-.28 9.054-1.28 16.69-4.937 20.927 4.377-3.957 5.636-12.013 5.776-21.787.42-13.851 5.077-26.024-11.713-33.1z" fill="#c5c3c2" fill-rule="evenodd"/><path d="M16.43 86.687c-5.477-9.614-6.176-31.24-3.798-35.078-.42.16-.7.44-.84.72-2.398 3.677-1.818 25.464 3.799 35.218 5.616 9.894 19.548 28.143 60.483 28.842 3.218.14 5.616-.979 7.435-3.098-1.679 1.56-3.797 2.259-6.596 2.259-40.795-.7-54.706-19.088-60.483-28.863z" fill="#686968" fill-rule="evenodd"/><path d="M98.6 83.01c-1.02.56-2.778 2.438-2.039 3.578.88.999 1.32 2.998 1.9.999.579-1.999.719-4.877.14-4.577z" fill="#fff" fill-rule="evenodd"/><path d="M131.74 103.637s-.14-2.258.98-4.537c1.259-2.259 1.399-4.118.42-4.817-.84-.86-3.658-6.956.979-8.935 4.637-1.999 6.056 1.42 7.175 3.818.98 2.558 2.519 3.418 3.498 2.838.86-.56 3.938.16 4.637 2.139.56 1.979.84 5.397-2.098 6.676-2.958 1.26-5.757-1.859-7.016-3.138-1.28-1.28-1-1.12-1.14-3.258 0-2.119-1.259-7.096-3.637-5.677-2.399 1.56 1.399 8.095 1.12 10.494-.14 2.558 0 5.816.839 8.375.7 2.558 2.518 7.515-.14 8.235-2.679.84-5.617-12.213-5.617-12.213z" fill="#999" fill-rule="evenodd"/><path d="M131.74 103.637h.28v-.16c0-.56 0-2.398.98-4.237.699-1.4.979-2.539.979-3.518 0-.72-.14-1.28-.7-1.699 0 0-.14-.28-.42-.56-.42-.86-1.119-2.398-1.119-3.957 0-.72.14-1.56.56-2.259.42-.58.98-1.14 1.959-1.559.979-.42 1.819-.7 2.378-.7 1.28.14 2.119.7 2.818 1.4.7.86 1.12 1.978 1.54 2.978.42.98.979 1.839 1.539 2.258.56.56 1.119.84 1.559.84.28 0 .56-.14.84-.28.14 0 .419-.14.699-.14.56 0 1.399.28 2.098.56.7.44 1.26 1 1.4 1.699.28.56.42 1.419.42 2.258 0 .86-.14 1.7-.56 2.26-.28.719-.84 1.278-1.82 1.698-.419.28-.839.28-1.398.28-.98 0-2.12-.56-3.098-1.26-.84-.719-1.68-1.558-2.24-1.978-.279-.44-.559-.58-.699-.72-.14-.28-.14-.42-.14-.7-.14-.419 0-.839-.14-1.698 0-.98-.28-2.399-.839-3.678-.14-.7-.56-1.26-.84-1.679-.44-.44-.859-.86-1.419-.86-.28 0-.7.14-.98.42-.279.14-.559.44-.699.86-.14.28-.14.7-.14 1.12 0 1.278.42 2.977.98 4.536.42 1.54.84 2.959.84 3.938v2.119c0 2.118.28 4.537.839 6.516.42 1.539 1.28 3.937 1.28 5.636 0 .56-.14 1.14-.28 1.42-.14.42-.42.699-1 .839h-.14c-.14 0-.42-.14-.7-.42-.56-.56-1.119-1.559-1.679-2.818-.7-1.7-1.399-3.958-1.958-5.657-.28-.98-.42-1.699-.56-2.258-.14-.56-.14-.84-.14-.84h-.28.28-.28l-.28.14s.7 2.958 1.68 6.076c.559 1.54 1.119 3.099 1.818 4.238.28.56.56 1.12.98 1.399.28.42.7.56 1.119.56h.28c.58-.14 1-.56 1.279-.98.28-.42.42-.98.42-1.699 0-1.839-.98-4.237-1.42-5.796-.56-1.979-.699-4.238-.699-6.356v-2.12c0-1.118-.42-2.538-.98-4.097-.42-1.539-.979-3.238-.979-4.377 0-.42.14-.7.14-.98.14-.28.28-.42.56-.559.28-.14.42-.3.7-.3.28 0 .699.16.979.58.44.56.86 1.539 1.14 2.538.279.98.419 1.98.559 2.539 0 1.14-.14 1.559 0 1.979.14.28.14.42.42.7.14.159.28.439.7.719.419.56 1.258 1.399 2.238 2.118.98.7 2.118 1.4 3.378 1.4.56 0 1.119-.14 1.679-.28.979-.56 1.679-1.12 2.098-1.98.28-.699.56-1.678.56-2.538 0-.839-.28-1.698-.42-2.538-.28-.84-.98-1.42-1.679-1.839a5.33 5.33 0 0 0-2.378-.56c-.42 0-.7 0-.98.14-.14.14-.28.14-.56.14-.3 0-.719-.14-1.279-.56-.42-.579-.979-1.279-1.399-2.258-.42-.86-.84-1.979-1.539-2.978-.7-.84-1.679-1.56-3.238-1.56-.7 0-1.539.16-2.658.58-.98.56-1.68 1.12-2.099 1.98-.42.699-.72 1.538-.72 2.398 0 1.12.44 2.258.72 3.098.14.44.42.86.56 1.14.28.419.42.559.56.699.28.28.56.72.56 1.279 0 .84-.42 1.979-.98 3.238-1.12 1.979-1.12 3.958-1.12 4.517v.3l.28-.14z" fill="#343434" fill-rule="evenodd"/><path d="M145.892 93.164c-1.44.3-3.618 2.478-2.319 2.618 1.16.28 2.598-.44 3.178-.88.44-.44.72-2.038-.86-1.738zM18.689 89.746l17.33-15.001-.33-.51-17.34 15.01.34.5zm24.645-2.159 30.341-26.684-.32-.34-30.54 26.524.519.5z" fill="#fff" fill-rule="evenodd"/><path d="m9.075 48.63-.28-.14c-.56.7-.84 2.12-1.12 3.818-.28 1.84-.44 4.098-.44 6.496 0 4.538.44 9.754 1.42 14.711.84 5.097 2.258 9.894 4.377 13.292 3.098 5.237 8.455 12.873 18.609 19.369 10.274 6.376 25.225 11.453 47.631 11.872h.14c2.678 0 4.797-.7 6.496-1.978 2.538-1.84 4.217-4.937 5.217-8.755.98-3.818 1.259-8.635 1.399-13.712.14-5.237.98-10.054.98-14.71 0-3.819-.56-7.356-2.38-10.474-1.978-3.239-5.216-6.077-10.433-8.195-6.636-2.819-18.189-6.357-30.162-9.195-11.992-2.818-24.245-5.097-32.44-5.097-2.379 0-4.357.3-5.916.58-1.54.42-2.679.98-3.378 1.979l.28.14.14.14c.56-.7 1.558-1.28 3.098-1.7 1.559-.28 3.397-.56 5.776-.56 8.035 0 20.448 2.26 32.28 5.078 11.993 2.838 23.546 6.376 30.042 9.054 5.217 2.259 8.315 4.957 10.134 8.055 1.839 2.979 2.399 6.516 2.399 10.194 0 4.517-.84 9.474-.98 14.711-.14 6.776-.84 12.852-2.678 17.11-.84 2.119-2.119 3.818-3.658 4.937-1.699 1.14-3.678 1.839-6.216 1.839h-.14c-22.267-.42-37.217-5.517-47.351-11.873C21.907 99.26 16.55 91.764 13.45 86.528c-1.978-3.398-3.377-8.056-4.237-13.013-.979-4.957-1.399-10.313-1.399-14.71 0-2.4.14-4.658.42-6.357.28-1.699.56-3.118.98-3.678l-.14-.14z" fill="#343434" fill-rule="evenodd"/><path d="m12.952 51.309-.14-.14c-.56.7-.84 1.979-1.12 3.678-.139 1.559-.299 3.678-.299 5.956 0 4.098.44 9.055 1.28 13.732.839 4.677 2.098 9.054 3.937 12.172 2.818 4.957 7.735 12.033 17.01 17.99 9.434 5.936 23.066 10.753 43.593 11.033h.28c2.259 0 4.217-.56 5.777-1.7 2.378-1.838 3.797-4.656 4.777-8.194.84-3.698 1.259-8.075 1.399-12.752.14-4.817.7-9.355.7-13.592 0-3.538-.42-6.936-2.1-9.774-1.678-2.978-4.637-5.517-9.554-7.656-6.056-2.538-16.61-5.796-27.563-8.494-10.973-2.679-22.226-4.678-29.682-4.678-2.119 0-3.937.16-5.337.58-1.559.28-2.538.84-3.098 1.699l.14.14.28.14c.42-.56 1.4-1.14 2.678-1.56 1.4-.28 3.218-.419 5.337-.419 7.456 0 18.709 1.979 29.522 4.677 10.974 2.539 21.527 5.797 27.424 8.355 4.937 2.119 7.735 4.517 9.434 7.356 1.539 2.978 2.099 6.096 2.099 9.634 0 4.097-.7 8.775-.84 13.592-.14 6.236-.7 11.892-2.378 15.85-.86 1.999-1.98 3.558-3.518 4.677-1.42 1-3.238 1.56-5.497 1.56h-.28c-20.387-.28-34.02-5.098-43.314-10.894-9.134-5.957-14.051-12.892-16.87-17.85-1.838-2.978-3.097-7.355-3.937-12.032-.84-4.537-1.12-9.494-1.12-13.592 0-2.278 0-4.257.28-5.956.28-1.56.56-2.839.98-3.398l-.28-.14z" fill="#343434" fill-rule="evenodd"/><path d="M149.85 75.754c-7.476 0-13.233.86-16.33 2.698-2.54 1.4-8.036 3.238-1.84 22.287.14.14.14.28.14.28.14-.56.42-1.26.86-1.959.56-1.28.979-2.399.979-3.258 0-.56-.28-.98-.56-1.26-.14-.14-.28-.28-.56-.719-.14-.28-.44-.7-.579-1.12-.28-.859-.7-1.978-.7-3.117 0-.84.28-1.68.7-2.399.44-.84 1.14-1.399 2.119-1.959 1.12-.44 1.979-.58 2.678-.58 1.54 0 2.539.72 3.238 1.56.14.28.28.56.56.7 2.678.28 6.616 1.978 10.134 7.915 2.678 4.377 3.518 7.895 3.518 10.573 0 3.538-1.54 5.797-3.099 6.636-.28.14-.7.14-.979.14-1.839 0-4.657-1.26-7.455-3.658-2.12-1.559-4.098-3.678-5.637-6.216 0 1.839.28 3.678.7 5.357.42 1.559 1.419 3.957 1.419 5.796 0 .7-.16 1.26-.44 1.7-.14.419-.56.699-.98.839 6.896 13.132 19.149 24.425 50.81 30.481 9.854 1.84 18.309 2.679 25.484 2.679 22.227 0 31.94-8.315 32.5-20.448h-.56v-2.558c0-3.798-.419-8.455-1.118-12.553-.28-2.678-.7-4.937-1.12-6.636-3.098-8.755-10.853-15.67-32.66-21.447-23.786-6.216-46.172-9.754-61.223-9.754z" fill="#fff" fill-rule="evenodd"/><path d="M140.615 87.187c.28.58.7 1.28.84 1.859.419 1 .979 1.699 1.398 2.259.56.44.98.58 1.26.58s.42 0 .56-.14c.3-.14.579-.14.999-.14.7 0 1.539.14 2.378.56.7.419 1.4.999 1.68 1.838.14.86.419 1.719.419 2.558 0 .86-.28 1.86-.56 2.559-.42.86-1.119 1.42-2.098 1.999-.56.14-1.12.28-1.68.28-1.279 0-2.398-.72-3.377-1.42-.98-.72-1.82-1.559-2.239-2.138-.42-.28-.56-.56-.7-.7-.28-.28-.28-.44-.42-.72-.14-.42 0-.839 0-1.978-.14-.58-.28-1.56-.559-2.559-.28-1-.7-1.998-1.12-2.558-.28-.42-.699-.56-.979-.56s-.42.14-.7.28c-.28.14-.439.28-.579.56 0 .28-.14.58-.14 1 0 1.138.58 2.837 1 4.396.56 1.56.979 2.979.979 4.118v2.559c1.54 2.698 3.638 4.976 5.737 6.675 2.818 2.279 5.616 3.538 7.155 3.538h.14c.28 0 .56 0 .84-.14 1.399-.84 2.938-2.838 2.938-6.376 0-2.698-.84-6.256-3.358-10.513-3.498-5.817-7.296-7.376-9.814-7.676z" fill="#fefefe" fill-rule="evenodd"/><path d="M140.515 86.867c0 .16 0 .3.14.44 2.518.28 6.316 1.839 9.814 7.635 2.518 4.258 3.358 7.796 3.358 10.474 0 3.558-1.54 5.537-2.938 6.376-.28.14-.56.14-.84.14h-.14c-1.539 0-4.357-1.26-7.156-3.538-2.098-1.699-4.197-3.957-5.756-6.656v.58c1.559 2.538 3.518 4.657 5.617 6.216 2.798 2.419 5.616 3.678 7.435 3.678.28 0 .7 0 .98-.14 1.539-.84 3.078-3.098 3.078-6.656 0-2.678-.84-6.216-3.498-10.613-3.498-5.937-7.436-7.636-10.094-7.936zm103.217 19.988c.42 1.72.84 3.978 1.12 6.676.7 4.098 1.119 8.775 1.119 12.613v2.538h.56c0-1.12 0-2.259-.14-3.398-.56-6.936-.7-13.032-2.659-18.429z" fill="#8b8685" fill-rule="evenodd"/><path d="M144.033 95.922c-.14 0-.3 0-.44-.14-1.26-.14.86-2.259 2.259-2.539h.42c.979 0 .699 1.42.42 1.7-.42.42-1.54.979-2.66.979m-7.315-10.894c-.56 0-1.399.3-2.378.72-.98.42-1.54.98-1.96 1.56-.439.699-.579 1.538-.579 2.258 0 1.559.72 3.098 1.14 3.957.28.28.42.56.42.56.559.42.699 1 .699 1.699 0 1-.28 2.119-.98 3.538-.56.98-.84 1.979-.98 2.678 1.54 4.677 3.219 9.195 5.458 13.572.28-.14.58-.28.72-.7.14-.28.279-.84.279-1.419 0-1.699-.86-4.097-1.28-5.656-.559-1.98-.839-4.378-.839-6.496v-2.12c0-.999-.42-2.398-.84-3.957-.559-1.559-.979-3.258-.979-4.537 0-.42 0-.84.14-1.12.14-.419.42-.719.7-.859.28-.28.7-.42.98-.42.559 0 .979.42 1.398.86.3.42.72.98.86 1.699.56 1.26.84 2.678.84 3.658.14.86 0 1.279.14 1.699 0 .28 0 .44.14.72.14.14.419.28.699.699.56.42 1.399 1.28 2.238 1.979.98.7 2.12 1.279 3.099 1.279.56 0 .979 0 1.399-.28.98-.44 1.539-1 1.819-1.699.42-.58.56-1.42.56-2.259 0-.86-.14-1.699-.42-2.278-.14-.7-.7-1.26-1.4-1.7-.7-.279-1.539-.559-2.098-.559-.28 0-.56.14-.7.14-.28.14-.56.28-.84.28-.44 0-.999-.28-1.558-.84-.56-.42-1.12-1.279-1.54-2.258-.42-1-.839-2.119-1.539-2.978-.7-.7-1.539-1.26-2.818-1.42z" fill="#cdcbca" fill-rule="evenodd"/><path d="M136.637 84.549c-.7 0-1.539.16-2.658.58-.98.56-1.68 1.139-2.099 1.978-.42.72-.72 1.56-.72 2.419 0 1.14.44 2.278.72 3.118.14.42.42.86.56 1.14.28.419.42.559.56.699.28.3.56.72.56 1.279 0 .86-.42 1.999-.98 3.278-.42.7-.7 1.42-.84 1.979.14.42.28.7.28 1 .14-.72.42-1.72.98-2.7.699-1.418.979-2.558.979-3.557 0-.7-.14-1.28-.7-1.699 0 0-.14-.28-.42-.56-.42-.86-1.119-2.418-1.119-3.977 0-.72.14-1.56.56-2.279.42-.56.98-1.12 1.959-1.559.979-.42 1.819-.7 2.378-.7 1.28.14 2.119.7 2.818 1.42.7.84 1.12 1.978 1.54 2.978.42 1 .979 1.839 1.539 2.258.56.58 1.119.86 1.559.86.28 0 .56-.14.84-.28.14 0 .419-.14.699-.14.56 0 1.399.28 2.098.56.7.42 1.26 1 1.4 1.699.28.58.42 1.419.42 2.278 0 .84-.14 1.7-.56 2.26-.28.719-.84 1.278-1.82 1.718-.419.28-.839.28-1.398.28-.98 0-2.12-.58-3.098-1.28-.84-.719-1.68-1.558-2.24-1.978-.279-.44-.559-.58-.699-.72-.14-.28-.14-.42-.14-.7-.14-.439 0-.859-.14-1.718 0-.98-.28-2.399-.839-3.678-.14-.72-.56-1.28-.84-1.699-.44-.44-.859-.86-1.419-.86-.28 0-.7.14-.98.42-.279.14-.559.44-.699.86-.14.28-.14.7-.14 1.14 0 1.278.42 2.977.98 4.536.42 1.56.84 2.978.84 3.978v2.119c0 2.138.28 4.537.839 6.536.42 1.559 1.28 3.957 1.28 5.676 0 .56-.14 1.12-.28 1.42-.14.42-.42.559-.72.699 0 .14.14.28.14.42.44-.14.86-.42.999-.84.28-.42.42-1 .42-1.699 0-1.859-.98-4.257-1.42-5.816-.42-1.72-.699-3.558-.699-5.397V99.18c0-1.14-.42-2.559-.98-4.118-.42-1.559-.979-3.258-.979-4.397 0-.44.14-.72.14-1 .14-.28.28-.42.56-.559.28-.14.42-.3.7-.3.28 0 .699.16.979.58.44.56.86 1.559 1.14 2.558.279.98.419 1.98.559 2.539 0 1.139-.14 1.559 0 1.999.14.28.14.42.42.7.14.139.28.439.7.719.419.56 1.258 1.419 2.238 2.118.98.72 2.118 1.42 3.378 1.42.56 0 1.119-.14 1.679-.28.979-.56 1.679-1.14 2.098-1.98.28-.719.56-1.718.56-2.558 0-.859-.28-1.699-.42-2.558-.28-.84-.98-1.42-1.679-1.839a5.375 5.375 0 0 0-2.378-.58c-.42 0-.7 0-.98.16-.14.14-.28.14-.56.14-.3 0-.719-.14-1.279-.58-.42-.559-.979-1.279-1.399-2.258-.14-.58-.56-1.28-.84-1.859-.14-.14-.14-.28-.14-.42-.279-.14-.419-.42-.559-.7-.7-.859-1.679-1.578-3.238-1.578z" fill="#8b8685" fill-rule="evenodd"/><path d="M146.311 93.184h-.44c-1.439.3-3.597 2.438-2.298 2.578.14.14.3.14.44.14 1.139 0 2.298-.56 2.738-1 .28-.28.56-1.718-.44-1.718zm43.274-12.953-38.437 45.473.34.5 38.597-45.633-.5-.34zm-25.305 59.484 17.65-20.187-.5-.52-17.49 20.388.34.32zm65.3-47.651-13.99 15.35.34.32 13.97-15.17-.32-.5z" fill="#fff" fill-rule="evenodd"/><path clip-path="url(#a)" d="M250.368 126.144c-1.699-19.808.14-33.38-37.497-43.854-37.757-10.334-72.296-13.732-82.43-7.775-2.539 1.559-8.475 3.678-1.839 24.605 6.616 21.087 14.092 41.155 60.323 50.35 46.073 9.194 63.122-3.518 61.443-23.326zm-61.862 20.367c-43.554-8.355-50.61-26.744-56.946-45.832-6.196-19.088-.7-20.927 1.84-22.346 9.433-5.517 42.134-2.26 77.652 7.075 35.499 9.474 33.82 21.767 35.359 39.876 1.559 17.97-14.372 29.562-57.905 21.227z" fill="#999" fill-rule="evenodd"/><path clip-path="url(#a)" d="M188.506 146.511c-43.574-8.335-50.63-26.724-56.966-45.812-3.538-11.033-3.258-16.41-1.839-19.108-1.978 2.278-3.258 7.355 1.12 20.367 6.216 19.109 13.272 37.358 56.845 45.693 32.16 6.216 49.37 1.559 55.427-8.635-6.756 9.334-23.686 13.312-54.587 7.495z" fill="#686968" fill-rule="evenodd"/><path d="M250.268 126.144c-1.679-19.808.14-33.38-37.457-43.854-37.737-10.334-72.236-13.732-82.37-7.775-1 .7-2.678 1.399-3.678 3.398 1-1.14 2.119-1.7 2.818-2.139 10.154-6.076 44.653-2.538 82.39 7.795 37.598 10.314 35.779 24.046 37.458 43.854.42 5.377-.42 10.174-2.958 14.131 3.098-4.237 4.217-9.474 3.797-15.41z" fill="#c5c3c2" fill-rule="evenodd"/><path d="m130.56 74.475-.139-.14c-.84.42-2.119 1-3.098 2.398-1.12 1.28-1.84 3.398-1.84 6.936s.86 8.495 2.96 15.57c3.377 10.455 6.895 20.788 15.47 29.703 8.455 8.894 21.946 16.25 45.012 20.787 10.414 2.119 19.409 3.098 27.004 3.098 12.253 0 20.828-2.538 26.444-6.776 5.637-4.237 8.155-10.333 8.155-17.269v-2.678c-.84-9.894-.84-18.25-5.337-25.605-2.258-3.538-5.616-6.936-10.833-10.034-5.197-2.978-12.093-5.796-21.507-8.355-25.185-6.916-48.95-10.753-65-10.753-7.876 0-13.912.86-17.43 2.978l.14.14.14.28c3.238-1.98 9.274-2.959 17.15-2.959 16.05 0 39.675 3.818 64.84 10.754 9.434 2.538 16.33 5.357 21.387 8.475 7.735 4.537 11.393 9.614 13.232 15.41 1.959 5.657 2.099 12.313 2.659 19.669 0 .999.14 1.838.14 2.678 0 6.796-2.52 12.732-8.016 16.85-5.476 4.237-14.051 6.636-26.164 6.636-7.595 0-16.45-.98-27.004-3.118-22.926-4.518-36.278-11.873-44.732-20.648-8.295-8.755-11.813-18.948-15.191-29.422-2.239-7.056-3.078-12.013-3.078-15.41 0-3.399.84-5.377 1.819-6.637.979-1.279 2.118-1.839 2.958-2.278l-.14-.28z" fill="#343434" fill-rule="evenodd"/><path d="m133.38 78.333-.14-.28c-.84.56-1.96 1-2.959 2.258-.98 1.28-1.839 3.118-1.839 6.376 0 3.119.86 7.656 2.978 14.172 3.098 9.474 6.476 18.968 14.532 27.043 8.035 8.056 20.727 14.712 42.594 18.83 9.874 1.978 18.329 2.817 25.524 2.817 11.573 0 19.748-2.258 25.105-6.076 5.217-3.818 7.755-9.354 7.755-15.87 0-.7-.14-1.54-.14-2.259-.84-9.054-.7-16.71-5.076-23.366-2.12-3.258-5.217-6.376-10.154-9.054-4.937-2.839-11.413-5.377-20.448-7.656-23.706-6.356-46.272-9.914-61.363-9.914-7.615 0-13.252.86-16.51 2.699l.14.28.16.14c2.958-1.7 8.735-2.539 16.21-2.539 15.091 0 37.518 3.398 61.363 9.774 8.895 2.259 15.37 4.797 20.168 7.635 7.335 4.118 10.713 8.635 12.552 14.012 1.7 5.257 1.84 11.193 2.399 17.989.14.72.14 1.56.14 2.259 0 6.376-2.399 11.613-7.476 15.45-5.217 3.818-13.392 5.937-24.825 5.937-7.195 0-15.65-.84-25.524-2.679-21.727-4.117-34.28-10.773-42.315-18.848-7.915-7.915-11.293-17.27-14.39-26.764-2.12-6.496-2.82-10.893-2.82-14.012 0-3.118.7-4.957 1.54-6.076 1-1.14 2.119-1.559 2.978-2.139l-.16-.14z" fill="#343434" fill-rule="evenodd"/><path d="M396.6 53.927c-.12-.72-.96 0-1.24.28-.4.88-.52 1.999-.52 2.838-.16 1.16-.16 2.279-.28 3.438-.279 1.28-.679 2.399-.839 3.678-.28 1.12-1.119 2.279-1.119 3.398.16.56.28.84.72.28.4-.56.56-1.4.8-2.119.279-.72.719-1.559.839-2.398.56-2 .84-4.118 1.119-6.277.12-.999.4-1.838.52-2.838zm-114.89 70.757.28-22.466s-.44 22.047 11.552 17.11l-11.833 5.356zm-2.5-18.628.56 19.468s-7.055 3.798-14.53 3.098c0 0 14.95-.84 13.97-22.566z" fill="#652214" fill-rule="evenodd"/></svg>