<svg xmlns="http://www.w3.org/2000/svg" version="1.0" viewBox="0 0 175.257 200.391"><defs><clipPath clipPathUnits="userSpaceOnUse" id="a"><path d="M-.16-.16h175.014v200.52H-.16z"/></clipPath></defs><path d="M108.614 9.674c-.36 7.396 1.12 15.99-1.279 24.745-1.08 5.237.2 9.314.76 15.55.36 5.078 3.078 8.755 2.918 14.232-.2 7.396-5.117 17.71-7.876 21.987-2.918 4.877-5.076 6.236-7.115 12.832-1.08 3.518-1.8 8.555-3.438 11.473-4.397 7.595-12.033 1-17.35 6.436-2.198 2.359-3.837 5.277-5.116 8.555 3.118 1 5.836 2.159 8.235 3.918 9.314 6.196 11.473 2.118 15.51.959 3.998-.96 15.67-6.996 18.789-6.996 2.718-1.359 11.113-3.917 19.308-4.477-.16-7.196 4.917-18.309 2.399-25.305-1.64-5.077-5.837-7.395-3.838-9.154l.36-.76c-1.84-5.077.72-12.272.56-17.709-.4-6.436-3.319-11.513-4.198-18.309-1.64-17.51-3.678-32.7-2.918-37.977" fill="none" stroke="#000" stroke-width="2.478" stroke-linecap="round" stroke-linejoin="round"/><path d="M108.614 9.674c-.36 7.396 1.12 15.99-1.279 24.745-1.08 5.237.2 9.314.76 15.55.36 5.078 3.078 8.755 2.918 14.232-.2 7.396-5.117 17.71-7.876 21.987-2.918 4.877-5.076 6.236-7.115 12.832-1.08 3.518-1.8 8.555-3.438 11.473-4.397 7.595-12.033 1-17.35 6.436-2.198 2.359-3.837 5.277-5.116 8.555 3.118 1 5.836 2.159 8.235 3.918 9.314 6.196 11.473 2.118 15.51.959 3.998-.96 15.67-6.996 18.789-6.996 2.718-1.359 11.113-3.917 19.308-4.477-.16-7.196 4.917-18.309 2.399-25.305-1.64-5.077-5.837-7.395-3.838-9.154l.36-.76c-1.84-5.077.72-12.272.56-17.709-.4-6.436-3.319-11.513-4.198-18.309-1.64-17.51-3.678-32.7-2.918-37.977" fill="none" stroke="#000" stroke-width="2.478" stroke-linecap="round" stroke-linejoin="round"/><path d="M133.2 43.574c3.117 1.759 11.672 5.676 7.515 10.113-4.198 4.278-5.677-7.555-7.516-10.113" fill="none" stroke="#000" stroke-width="1.679" stroke-linecap="round" stroke-linejoin="round"/><path clip-path="url(#a)" d="M67.16 190.245c-1.64 2.158-6.197 7.995-2.72 8.754 4.718 1.16 2.16-6.396 2.72-8.754zm43.813 3.717c4.717-1.199-.56-6.835-1.12-9.154-.56 2.718-2.358 10.114 1.12 9.154zm-4.757-4.117c-.56 0-.92.4-.92 1 0 .559.36.959.92.959s.92-.4.92-.96c0-.6-.36-1-.92-1zm-47.612-2.319c2.919 2.159 3.278-3.518 4.198-4.877-1.64 1-6.236 3.318-4.198 4.877zm84.27-8.355c7.475-1.958-.92-10.913-1.64-14.43-.919 4.117-3.637 15.79 1.64 14.43zm2.558-25.504c2.758 2.918 3.478 7.196 6.556 6.396 2.918-.56-1.08-6.396-6.556-6.396zm-8.755 7.595c2.559-7.795-1.999-10.513-2.198-13.072-.16-.96-1.44-2.119-3.079-3.118-3.118.6-6.396 2.359-8.235 2.559-1.998.4-3.278 1.918-5.836 1.918-1.44.4-2.918 1.96-5.637 2.759-2.758.56-13.312 5.836-15.87 8.555-2.559 2.518-17.91 10.113-19.148 10.113l-7.876 4.078s-9.474 0-5.276 4.677c2.558 2.918 3.837 6.436 5.476 8.755-.56.4-.92 1-.92 1.559 0 1 .72 1.559 1.48 1.559.72 0 1.24-.4 1.439-.96.56.2 1.08.4 1.839.4 4.197 0 6.756-3.718 12.392-5.077 2.199-.6 3.118-.4 3.838-.2-1.839 2.519-4.557 7.196-1.639 7.596 3.998.8 2.718-4.278 2.359-7.396.919.6 2.358.96 7.115.6h2v.16c0 1.2.919 1.959 2.038 1.959 1.08 0 1.799-.76 1.799-1.96v-.759c2.758-.76 2.758-1.759 6.956-4.077.16-.2.36-.2.52-.4.359.76 1.119 1.36 1.998 1.36 1.28 0 2.399-1.16 2.399-2.72 0-.199 0-.599-.2-.799 1.998-.96 3.837-1.519 10.393-4.077h.4c-.56 2.718-.56 5.836 1.64 5.277 3.277-.8 1.798-3.718.519-6.237 1.639-.6 2.918-.96 3.678-1.559.36.6.72.76 1.279.76.88 0 1.639-.56 1.639-1.56 0-.559-.4-1.159-.92-1.358.36-.96.92-2.519 1.8-4.837.399.36.919.56 1.279.56 1.479 0 2.558-1.16 2.558-2.72 0-1.158-.92-2.158-1.999-2.318zm-16.59 19.269c-.56 0-1.12.36-1.12.959 0 .6.56.96 1.12.96.36 0 .92-.36.92-.96s-.56-.96-.92-.96z" fill="none" stroke="#000" stroke-width=".8" stroke-linecap="round" stroke-linejoin="round"/><path d="M65.2 175.534c-2.198.56-4.037 1.759-1.639 4.277 4.198 4.877 5.117 11.273 9.275 11.273 4.197 0 6.756-3.678 12.432-5.037 5.837-1.359 2.359 1.36 11.673.56 9.275-.56 6.716-1.36 12.753-4.637 6.196-3.518 4.557-2.559 15.15-6.636 10.554-4.078 6.356-1.96 10.914-11.673 4.557-9.554-.88-12.673-1.28-15.39-.16-.8-.879-1.56-1.998-2.36" fill="none" stroke="#000" stroke-width="1.679" stroke-linecap="round" stroke-linejoin="round"/><path d="M19.428 177.173s17.35-.36 18.989-.36c1.639 0 15.87-3.318 26.624-2.159 10.753 1.16 33.34-.56 38.256-.56 4.198 0 10.394-5.076 14.951-8.554 2.04.76 4.398.76 6.237-.2 2.518-1.56 4.357-5.077 4.157-8.555 2.039-1.959 4.397-4.078 7.675-6.236.92-.56 1.84-1.16 2.719-1.92 1.839 1.72 5.317 2.88 8.954 1.36 3.838-1.959 4.757-7.595 4.358-12.073 0 .2-.16.4-.36.6.92-1 1.479-2.159 1.839-3.118v.2c.72.56 2.558 1.559 5.476 1.359 4.198-.4 5.997-5.437 5.997-8.355s-2.359-14.99-3.838-20.827v.4c2.399-5.837 3.318-16.15 3.478-19.429 7.675-3.518 7.835-10.913 8.035-12.832l.52-1.36c-2.159-2.158-9.834-3.117-11.633-3.117 0 0-3.478 0-4.397-.6-1.08-.4-5.837-2.918-7.476-4.077 0 0-2.558-1.56-3.638-1.56 0 0-3.997-2.518-5.117-2.718 0 0-5.117-3.678-10.034-5.836-4.717-2.319-7.835-5.037-11.473-7.396-3.837-2.518-9.314-5.636-11.672-6.596-2.36-.8-20.068-7.195-24.266-8.555-4.197-1.359-14.551-5.077-17.67-6.436-3.277-1.359-11.832-7.355-14.59-10.673C48.81 13.872 36.778 6.476 30.94 1.999M1.92 58.804c6.236 4.278 14.591 9.714 16.99 11.473 2.158 1.92 6.356 5.037 8.754 6.796 2.359 1.76 3.638 3.478 4.917 6.037 1.28 2.718 8.755 12.632 12.393 16.71 2.918 3.278 12.392 9.714 15.51 11.672-4.557.16-9.514 1.16-14.43 1.36-7.636.36-19.669 4.637-23.707 6.596-3.997 1.759-8.554 6.995-12.192 7.595" fill="none" stroke="#000" stroke-width="1.199" stroke-linecap="round" stroke-linejoin="round"/><path d="M131.36 145.072c-3.078.6-6.356 2.359-8.195 2.559-1.998.4-3.278 1.958-5.836 1.958-1.44.36-2.918 1.92-5.637 2.719-2.758.56-13.312 5.836-15.87 8.555-2.559 2.558-17.87 10.153-19.108 10.153l-7.836 4.078s-9.514 0-5.317 4.677c4.198 4.877 5.117 11.273 9.315 11.273 4.197 0 6.716-3.678 12.392-5.037 5.837-1.359 2.359 1.36 11.673.56 9.275-.56 6.716-1.36 12.753-4.677 6.196-3.478 4.557-2.519 15.11-6.596 10.554-4.118 6.396-1.96 10.954-11.713 4.517-9.514-.92-12.632-1.28-15.39-.2-.96-1.479-2.12-3.118-3.119z" fill="#dcf0fa" fill-rule="evenodd"/><path d="M18.869 178.172s17.869-1.36 19.508-1.36c1.639 0 15.87-3.277 26.624-2.118 10.753 1.16 33.38-.6 38.296-.6 5.077 0 13.312-7.395 17.87-10.673 4.357-3.118 7.475-7.795 15.11-12.872 7.676-4.837 16.59-15.35 17.35-23.146 1.28-3.278 4.717-12.233 7.835-19.269 2.359-5.836 3.278-16.11 3.438-19.428-3.798 1.76-9.634 2.319-18.229.76-4.717-.56-8.195-3.678-10.034-4.478-1.639-.959-7.475-2.518-11.473-5.036-.72-.4-1.28-.6-1.839-1l-.16.2c-.92 1-2.358 3.518-3.637 7.396-.92 3.717-1.64 8.954-2.399 11.672-.16 1.16.4-4.077.2-2.918 0-.76 0-1.759.2-2.918.16-2.718.36-6.036.36-7.196 0-1.759-1.64-3.677-4.198-3.677-2.918 0-10.394 5.037-10.953 14.79 0 0-2.199 1.56-4.358 3.878-2.398 2.519-2.558 5.637-3.837 5.837-1.28.4-8.955 1.759-10.394 3.877-7.316-2.118-13.512.8-17.35 1.96-5.436-1.16-13.311.599-20.787.959-7.635.4-19.668 4.677-23.706 6.636-3.997 1.759-9.634 6.036-13.311 6.596z" fill="#fef1eb" fill-rule="evenodd"/><path d="M161.422 107.735v.4c-2.918 6.795-6.596 15.75-7.875 19.228.4 1 .56 1.759.56 2.558.2 1.36.36 3.478-.36 5.637.72.56 2.558 1.519 5.476 1.359 4.198-.4 5.997-5.437 5.997-8.355s-2.359-14.99-3.798-20.827zm-40.295 55.646c-.88.56-1.8 1.36-2.919 2.119 2.04.76 4.398.76 6.197-.2 2.558-1.56 4.357-5.037 4.197-8.555-2.918 2.558-4.917 4.877-7.475 6.636zm26.983-22.386c-.72.2-1.239.4-1.799.6-2.358 2.718-4.757 5.036-7.315 6.995 1.839 1.719 5.317 2.878 8.954 1.36 3.838-1.96 4.717-7.596 4.358-12.074-.88 1.2-2.159 2.359-4.198 3.119z" fill="#fce5de" fill-rule="evenodd"/><path d="M123.525 78.952c.16.2.36.4.72.4v.2c.16 0 .52.2.92.4 3.997 2.518 9.833 4.077 11.472 5.036 1.84.8 5.277 3.878 10.034 4.478.36 0 .92.2 1.28.2h.559c.36.2.52.2.88.2.2 0 .36 0 .36.2h1.478c.36.16.72.16 1.08.16h1.479s.16 0 .16.2h2.559c.359 0 .559 0 .919-.2h1.279c.36 0 .56 0 .92-.16h.16c.559 0 1.278-.2 1.838-.4.36 0 .56 0 .92-.2.919-.2 1.638-.6 2.358-.76 7.675-3.518 7.835-10.913 8.035-12.872l.52-1.36c-2.159-2.118-9.834-3.077-11.633-3.077 0 0-3.478 0-4.397-.6-1.08-.4-5.837-2.918-7.476-4.077 0 0-2.558-1.56-3.638-1.56 0 0-4.037-2.518-5.117-2.718 0 0-5.116-3.718-10.033-5.836-4.718-2.359-7.836-5.077-11.474-7.396-3.837-2.518-9.314-5.636-11.672-6.636-2.399-.76-20.068-7.195-24.266-8.555-4.197-1.359-14.59-5.037-17.669-6.396-3.318-1.359-11.873-7.395-14.591-10.713C48.73 13.792 36.538 5.237 30.86.76L.76 58.724c6.396 4.278 15.71 9.754 18.069 11.473 2.198 1.96 6.396 5.077 8.754 6.836 2.359 1.72 3.638 3.478 4.917 5.997 1.28 2.758 8.755 12.672 12.393 16.75 2.918 3.318 12.432 9.714 15.51 11.672 2.359 0 4.558 0 6.397.36 3.837-1.16 10.033-4.077 17.309-1.919 1.48-2.158 9.115-3.517 10.394-3.877 1.279-.2 1.479-3.318 3.837-5.837 2.2-2.358 4.398-3.917 4.398-3.917.52-9.714 7.995-14.751 10.913-14.751 2.559 0 4.198 1.918 4.198 3.677 0 1.16-.16 4.478-.36 7.196-.2 1.16-.2 2.119-.2 2.918.2-1.16-.36 4.078-.16 2.918.72-2.718 1.44-7.995 2.359-11.672.56-1.56 1.119-3.119 1.639-4.278z" fill="#fef1eb" fill-rule="evenodd"/><path d="M173.135 75.474v-1.159c-2.358-1.919-9.514-2.918-11.313-2.918h-1.28c-1.279.4-4.597-.2-4.756 0-2.2 1.959-2.959 5.436-2.04 5.836 3.119 1.36 10.075 4.038 12.473 3.078 2.918-1.359 6.197-3.278 6.916-4.837z" fill="#fbf6f4" fill-rule="evenodd"/><path d="M37.777 88.466s6.236 8.355 8.035 10.514c1.84 2.319 15.51 12.432 15.51 12.432h4.558s1.08 0 5.637-1.159c4.597-1.16 9.874-1.16 12.592-.36 4.397-2.918 9.115-3.517 11.153-4.677 2-4.077 7.476-8.954 7.476-8.954s1.08-7.396 4.357-11.114c3.118-3.877 7.675-4.277 9.834-2.318 2.039 1.959.4 12.472.4 12.472l.72-2.358c0-4.478 4.717-14.192 4.717-14.192l-5.277-2.358c-3.998 5.476-20.068 7.035-28.463 6.236 2.758.2 10.594 6.636 7.515 8.755-3.118 2.358-9.314 2.918-13.511 5.636-4.198 2.719-5.117 4.278-10.594 8.555-5.477 4.317-11.833 3.518-16.23-1.36-3.998-4.836-16.59-12.831-18.429-15.75z" fill="#fce5de" fill-rule="evenodd"/><path d="M68.558 79.352c7.496 2.718 19.009 4.257 30.342 2.918 11.313-1.16 1.999 7.915 1.999 7.915l-4.377 1.16s-1.1-4.438-6.936-5.797c-5.857-1.359-16.27-.96-21.028-6.196zm46.372 26.624-1.239 5.237-4.037 2.518 5.276-7.755zm10.234-24.706c1.28.2 2.199 1 3.478 1.36.92.4 2.718.4 3.638 1 1.439.759 1.08 3.477.72 5.236-.16 1.76-.72 3.678-1.28 5.637-.72 2.118-2.518 3.877-3.438 6.196-.2-2.119.56-4.237.36-6.196-.2-1.56-.92-3.118-1.08-4.877-.36-1.92-.2-4.078-.559-5.997-.36-1-.92-1.359-1.639-2.158zm13.072 4.718c1.84 1.959 6.396 3.918 10.194 3.718-1.799 1.918-5.437 12.632-5.277 14.95 0 0 .36.56-.88 1.96-1.478 1.359-7.115 11.632-7.315 12.032-.16.36-5.277.2-5.277.2s-4.197-1.2-3.797-2.159c.16-.96 2.718-3.478 4.157-3.278 1.64.16 3.118 2.719 4.757.16 1.8-2.518 5.837-9.114 4.358-11.073-1.44-2.119-4.358-3.078-4.558-4.637-.36-1.56 7.276 1.919 7.836-2.319.56-4.277-4.198-9.354-4.198-9.554zm13.352 4.717c2.559.16 10.953-.2 12.033-1.2 0 3.319-.52 10.115-2.918 16.71-2.559 6.397-7.676 19.989-7.676 19.989s-2.358-5.237-11.873-7.556c2.399-.2 8.076.76 10.074-1.959 1.8-2.878-3.278-7.955-4.397-7.955-1.08 0 4.757 1.56 8.035-1.559 3.118-3.078 4.397-12.592 1.28-13.592-3.119-.96-4.558-2.878-4.558-2.878z" fill="#fce5de" fill-rule="evenodd"/><path d="M76.234 79.332c11.873 3.538 32.86-.4 37.417-1.979zm44.773-3.738c4.197 3.358 10.393 6.077 13.871 7.236 3.638 1.2 8.755 6.076 16.03 6.276 7.316.16 17.71.16 20.788-10.554-1.08 1.36-4.717 3.878-7.276 3.518-2.558-.2-9.114-2.958-9.114-2.958 3.638 2.559 3.997 7.236-2.199 6.676-6.356-.6-12.392-3.158-16.39-5.477-4.197-2.358-14.231-2.758-15.71-4.717zm-31.381 91.265c1.839-1.16 6.396-4.677 8.035-6.236 1.799-1.72 10.913-5.037 13.272-6.396 2.398-1.36 4.197-2.759 5.836-3.119 1.64-.6 2.359-1.359 5.477-2.358 3.078-.76 3.478-.36 7.475-1.76 3.798-1.558 9.475-1.358 13.272-3.117-6.716 5.077-12.192 9.154-16.19 12.872-3.997 3.878-16.59 14.591-20.028 15.59-3.677.76-20.787 1.92-29.182 1.16 5.836.6 26.424-5.837 33.54-9.754 7.115-3.678 7.835-5.437 6.915-6.236-.919-.56-9.993 2.758-13.671 4.517-3.438 1.559-12.912 4.837-14.751 4.837z" fill="#fce5de" fill-rule="evenodd"/><path d="M95.782 160.823c-2.558 2.518-17.87 10.113-19.148 10.113l-7.676 4.078c11.513.36 29.942-1 34.3-1 5.116 0 13.311-7.355 17.869-10.673 4.197-2.918 7.515-7.555 14.59-12.432-.519-.96-1.239-1.92-1.239-2.719-.2-.96-1.479-2.119-3.118-3.118-3.118.6-6.396 2.359-8.195 2.559-2.038.36-3.278 1.918-5.836 1.918-1.48.4-2.918 1.96-5.677 2.719-2.718.6-13.312 5.836-15.87 8.555z" fill="#f0f0f0" fill-rule="evenodd"/><path d="M126.803 156.825c2.199-2.159 5.117-4.477 8.195-6.796-.16-.6-.52-1.2-.52-1.759-.2-.6-.72-1.359-1.639-2.159-1.119.2-2.198.6-3.118 1-3.997 1.359-4.357.96-7.475 1.719-3.078 1-3.798 1.759-5.437 2.358-1.639.36-3.478 1.72-5.836 3.079-2.399 1.359-11.473 4.677-13.312 6.436-1.64 1.519-6.196 5.037-8.035 6.196 1.839 0 11.313-3.318 14.79-4.837 3.639-1.76 12.753-5.077 13.672-4.478.88.76.16 2.519-6.955 6.197-7.116 3.877-27.704 10.313-33.54 9.714 8.395.76 25.544-.4 29.182-1.16 3.438-.959 16.03-11.632 20.028-15.51z" fill="#ecdfda" fill-rule="evenodd"/><path d="M21.387 175.993c6.216.58 15.51-.38 21.527-1.359 6.036-.78 22.806-2.159 29.202-1.379 3.818.6 14.591.4 14.591.4s6.556-2.938 6.017-2.739c-.54.2-9.115.38-12.952.58-3.838.2-3.098 1.18-15.331-.38-12.213-1.579-22.786 2.919-29.002 2.919-6.377 0-14.052 1.958-14.052 1.958zm14.911-99.959c4.737-5.657 5.836-7.016 11.133-9.754 5.477-2.918 9.674-1.54 11.493-11.493 1.64-9.734 3.638-13.632 8.195-17.73-5.636.98-10.213 9.955-15.67 16.17-5.657 6.237-16.25 12.673-24.625 11.514-8.215-1.38-23.186-6.236-23.186-6.236s15.33 9.734 20.068 12.852c4.937 3.118 10.213 7.795 10.213 10.314zm10.034 46.312c8.215.2 22.426 1.559 28.083 4.857 5.477 3.318 8.195 5.636 12.392 5.457 4.018-.2 9.295-3.698 14.232-5.657 4.737-2.139 5.816-2.319 5.816-2.319s-7.275-2.918-8.734-4.477c-1.46-1.559-6.017-4.097-6.756-4.677 2.198 2.718 6.756 7.395 1.459 9.334-5.277 2.139-6.017 1.56-9.654-1.159-3.658-2.918-10.214-8.375-10.214-8.375.74 4.677 6.756 11.493 8.195 11.493 1.459 0-11.293-6.036-34.82-4.477z" fill="#fce5de" fill-rule="evenodd"/><path d="m115.89 105.016-1.68 6.636-5.116 2.479 6.796-9.115zm-2.199-23.546c2.559.2 4.198 1.96 4.198 4.078 0 2.359-.36 11.513-.36 11.513s1.799-15.59 5.796-18.109l-4.917-2.558s-1.239 1.559-5.636 3.118c-4.358 1.399-12.553 4.117-25.505 3.118 5.277-.16 14.751-.36 14.591 2.358-.2 2.719-3.118 7.596-3.118 10.514 0 2.918-4.917 2.319-7.475 6.796-2.359 4.517-4.917 1.56-8.555 3.318-3.638 1.559-8.395 3.918-8.395 3.918s5.317-1.2 9.874.36c1.639-2.52 8.915-3.279 10.713-4.078 1.84-.56 1.84-4.477 3.678-6.436a22.672 22.672 0 0 1 4.158-3.118s1.12-12.273 10.953-14.791zm47.411 29.623s2.199 12.832 2.919 16.51c.88 3.877-3.638 9.874-8.395 7.755 3.278-2.918 6.915-12.433 2.918-17.83zm-13.472 31.061c1.84-.2 3.998-2.359 3.998-2.359-.16 3.118-1.799 9.954-6.196 10.154-4.357.2-4.757-1.759-4.757-1.759 4.757 2.319 8.035-1.359 8.035-3.118 0-1.959-1.08-2.918-1.08-2.918zm-22.826 19.108 3.078-2.918c-.36 1.759-1.998 7.116-7.275 6.756 1.639-.4 5.277-2.718 4.197-3.838z" fill="#ebc9bc" fill-rule="evenodd"/><path d="M173.135 75.474c-.72 1.56-3.998 3.478-6.916 4.837-2.398.96-9.354-1.719-12.472-3.078-.92-.4-.16-3.877 2.039-5.836.16-.2 3.477 0 4.757 0" fill="none" stroke="#dfd5d0" stroke-width=".8" stroke-linecap="round" stroke-linejoin="round"/><path d="M67.12 108.694c7.675-2.918 10.773-7.975 14.95-10.893 4.198-2.919 12.393-5.257 12.393-5.257" fill="none" stroke="#d1c2bd" stroke-width=".8" stroke-linecap="round" stroke-linejoin="round"/><path d="M18.869 178.172s17.869-1.36 19.508-1.36c1.639 0 15.87-3.277 26.624-2.118 10.753 1.16 33.38-.6 38.296-.6 5.077 0 13.312-7.395 17.87-10.673 4.357-3.118 7.475-7.795 15.11-12.872 7.676-4.837 16.59-15.35 17.35-23.146 1.28-3.278 4.717-12.233 7.835-19.269 2.359-5.836 3.278-16.11 3.438-19.428-3.798 1.76-9.634 2.319-18.229.76-4.717-.56-8.195-3.678-10.034-4.478-1.639-.959-7.475-2.518-11.473-5.036-.72-.4-1.28-.6-1.839-1l-.16.2c-.92 1-2.358 3.518-3.637 7.396-.92 3.717-1.64 8.954-2.399 11.672-.16 1.16.4-4.077.2-2.918 0-.76 0-1.759.2-2.918.16-2.718.36-6.036.36-7.196 0-1.759-1.64-3.677-4.198-3.677-2.918 0-10.394 5.037-10.953 14.79 0 0-2.199 1.56-4.358 3.878-2.398 2.519-2.558 5.637-3.837 5.837-1.28.4-8.955 1.759-10.394 3.877-7.316-2.118-13.512.8-17.35 1.96-5.436-1.16-13.311.599-20.787.959-7.635.4-19.668 4.677-23.706 6.636-3.997 1.759-9.634 6.036-13.311 6.596" fill="none" stroke="#000" stroke-width=".8" stroke-linecap="round" stroke-linejoin="round"/><path d="M139.555 62.962c-1.958 1.759-2.718 4.677-2.318 6.796m8.315-4.238c-1.64.8-3.278.2-4.398 2.719m8.236-.959c-2.16.399-3.598 2.478-3.598 2.478M35.299 77.913c3.278-6.596 6.356-7.376 8.714-9.914M67.52 36.978c-4.738 2.138-10.235 12.992-8.036 19.188" fill="none" stroke="#d1c2bd" stroke-width=".8" stroke-linecap="round" stroke-linejoin="round"/><path d="M148.67 89.826c-1.999 2.758-5.077 11.712-5.077 15.23-1.48 1.96-4.957 6.037-7.875 13.632" fill="none" stroke="#000" stroke-width=".8" stroke-linecap="round" stroke-linejoin="round"/><path d="M145.952 106.376c.4 5.036 8.315 5.036 8.315 5.036m-27.104 5.598c1.28 1.038 1.999 1.038 1.999 1.038" fill="none" stroke="#d1c2bd" stroke-width=".8" stroke-linecap="round" stroke-linejoin="round"/><path d="M109.414 114.37c2.578-1.538 4.417-2.918 4.417-2.918s1.48-4.657 2.399-8.354c.38-1.36.74-4.278 1.099-4.878" fill="none" stroke="#000" stroke-width=".8" stroke-linecap="round" stroke-linejoin="round"/><path d="M68.958 113.171c4.038 1.56 3.478 1.76 6.236 6.816 2.919 5.057 7.116 7.576 7.116 7.576" fill="none" stroke="#d1c2bd" stroke-width=".8" stroke-linecap="round" stroke-linejoin="round"/><path d="M161.422 107.735v.4c-2.918 6.795-6.596 15.75-7.875 19.228.4 1 .56 1.759.56 2.558.2 1.36.36 3.478-.36 5.637.72.56 2.558 1.519 5.476 1.359 4.198-.4 5.997-5.437 5.997-8.355s-2.359-14.99-3.798-20.827m-40.295 55.646c-.88.56-1.8 1.36-2.919 2.119 2.04.76 4.398.76 6.197-.2 2.558-1.56 4.357-5.037 4.197-8.555-2.918 2.558-4.917 4.877-7.475 6.636m26.983-22.386c-.72.2-1.239.4-1.799.6-2.358 2.718-4.757 5.036-7.315 6.995 1.839 1.719 5.317 2.878 8.954 1.36 3.838-1.96 4.717-7.596 4.358-12.074-.88 1.2-2.159 2.359-4.198 3.119m-24.585-62.043c.2.16.36.36.72.36v.2c.2 0 .56.2.92.4 3.997 2.518 9.833 4.077 11.472 5.037 1.84.799 5.317 3.917 10.034 4.477.36 0 .92.2 1.28.2h.559c.36.2.52.2.92.2.16 0 .36 0 .36.2h1.438s0 0 0 0c.36.2.72.2 1.08.2h1.479s.2 0 .2.16h2.519c.359 0 .559 0 .919-.16h1.279c.36 0 .56 0 .92-.2h.16c.559 0 1.278-.2 1.838-.4 0 0 0 0 0 0 .36 0 .56 0 .92-.2 0 0 0 0 0 0 .919-.2 1.638-.56 2.358-.76 0 0 0 0 0 0 7.675-3.518 7.835-10.913 8.035-12.832l.52-1.36c-2.159-2.158-9.834-3.117-11.633-3.117 0 0-3.478 0-4.397-.6-1.08-.36-5.837-2.918-7.476-4.077 0 0-2.558-1.56-3.638-1.56 0 0-3.997-2.518-5.117-2.718 0 0-5.076-3.678-9.994-5.836-4.757-2.319-7.875-5.037-11.513-7.396-3.837-2.518-9.274-5.636-11.672-6.596-2.359-.76-20.028-7.195-24.226-8.555-4.197-1.359-14.59-5.037-17.67-6.396-3.317-1.359-11.872-7.395-14.59-10.713C48.77 13.792 36.578 5.237 30.9.76" fill="none" stroke="#000" stroke-width=".8" stroke-linecap="round" stroke-linejoin="round"/><path d="M147.43 106.775c-.879-.2-2.558.8-2.158 2 .36 1.558 1.999.399 1.999-1m-76.994 5.197c-.36 1.399-.899 2.578-1.279 3.757m-25.664-48.85c.2.8 1.279 1.379 1.999 1.759m20.587-33.1c-.2 1.2 2.359 1.779 3.078 2.558m66.04 29.183c1.08-.16 3.278 1.359 3.278-.16.16-1.56-2.918-2.359-3.838-2.958m5.677 1.119c.92.44 1.799.84 2.479 1.439m2.558.759c1.12-.2 2.239.4 2.958 1m-80.271 39.656c0-.74-.08-1.32-.08-2.079m25.664-13.911c0-.54-.2-.9-.4-1.28" fill="none" stroke="#fef1eb" stroke-width="1.679" stroke-miterlimit="8"/><path d="M78.313 129.362c9.314 6.196 11.473 2.118 15.51.959 3.998-.96 15.67-6.996 18.789-6.996 2.718-1.359 11.113-3.917 19.308-4.477-.16-7.196 4.917-18.309 2.399-25.305-1.64-5.077-5.837-7.395-3.838-9.154l.36-.76c-1.84-5.077.72-12.272.56-17.709-.4-6.436-3.319-11.513-4.198-18.309-1.64-17.51-3.118-33.66-2.399-38.936h-17.15c-.359 7.235 2.04 16.95-.359 25.704-1.08 5.237.2 9.354.76 15.59.36 5.038 3.078 8.755 2.918 14.192-.2 7.396-5.117 17.71-7.875 21.987-2.919 4.877-5.077 6.236-7.116 12.832-1.08 3.518-1.8 8.555-3.438 11.473-4.397 7.595-12.033 1-17.35 6.436-2.198 2.359-3.837 5.277-5.116 8.555 3.118 1 5.836 2.159 8.235 3.918z" fill="#dcf0fa" fill-rule="evenodd"/><path d="m123.365 78.952-.2.2c-.92 1-2.358 3.518-3.637 7.396-.92 3.717-1.64 8.954-2.359 11.672-.2 1.16.36-4.077.16-2.918 0-.76 0-1.759.2-2.918.16-2.718.36-6.036.36-7.196 0-1.759-1.64-3.677-4.198-3.677-2.918 0-10.394 5.037-10.953 14.79 0 0-2.199 1.52-4.358 3.878-2.398 2.519-2.558 5.637-3.837 5.837-.2 0-.2.2-.36.2-.56 1.559-1.12 3.118-1.64 4.277-4.396 7.595-12.032.96-17.349 6.396-2.198 2.359-3.837 5.277-5.116 8.555 3.118 1 5.836 2.159 8.235 3.918 9.314 6.196 11.473 2.118 15.51.959 3.998-.96 15.67-6.996 18.789-6.996 2.718-1.359 11.113-3.877 19.308-4.477-.16-7.196 4.917-18.269 2.399-25.305-1.64-5.037-5.837-7.355-3.838-9.114l.36-.8c0-.36-.2-.76-.2-.96-1.999-.799-3.798-1.758-5.477-2.717-.72-.4-1.24-.6-1.799-1z" fill="#f0f0f0" fill-rule="evenodd"/><path d="M128.442 91.984c0 2.958 0 3.118-2.558 4.677-1.64 1.2-3.078 2.359-5.277 2.16 1.439 1.958 1.08 4.676.92 7.195 0 1.399-.36 2.758-1.28 3.717-1.28 1.16-2.718.8-4.357.8-.2 1.36-.56 1.919-.56 3.278 0 1.56.2 2.918-.56 4.118-1.639 2.718-3.637 4.677-6.556 5.636 1.84 0 4.558.96 6.556.4 1.12-.4.56-.4 1.48-1.36.879-.999.16-1.358 1.279-1.958 1.239-.8 1.799-1.16 3.078-2.359 1.439-1.159 5.836-2.718 6.716-4.477.76-1.559.92-4.277 1.12-5.836 0-1.96-.2-3.678.359-5.237.36-1.76 1.08-1.76 1.999-2.958.52-.56.52-1.16.52-2.12v-5.276zm-21.587 32.7s-7.275-2.938-8.734-4.497c-1.46-1.559-5.997-4.097-6.736-4.697 2.198 2.738 6.736 7.436 1.459 9.394-5.277 2.139-6.017 1.56-9.654-1.179-2.359-1.959-5.997-4.877-8.195-6.636-.36.38-.72.78-1.08 1.16 1.46 2.938 3.998 6.056 5.817 7.615-1.82-.78-4.737-1.56-8.915-2.339-.18.58-.54 1.18-.74 1.959 1.28.38 2.559.78 3.478 1.36 1.82.779 3.258 1.558 4.718 2.538 3.457 2.358 6.016 3.138 7.835 3.318h.72c1.099 0 2.378-.38 3.837-.96 1.08-.4 1.999-.98 3.098-1.379h.18c2.359-.98 4.737-2.339 7.096-3.318 4.737-2.139 5.816-2.339 5.816-2.339z" fill="#ecdfda" fill-rule="evenodd"/><path d="M72.956 126.563c2.378.8 4.757 2.559 6.416 3.538 1.639 1.18 6.756 3.538 8.775 2.758 2.018-.78 4.377-1.958 5.476-2.558 1.1-.38 9.874-3.938 9.874-3.938-3.658.6-9.874 3.358-12.432 3.938-2.739.4-5.657.98-9.135-.78-3.478-1.579-7.495-3.158-8.974-2.958z" fill="#d9c6be" fill-rule="evenodd"/><path d="M125.884 116.65c-.4.959 3.837 2.118 3.837 2.118h2.199c0-1.36.16-2.878.36-4.437-.72-.4-1.48-.96-2.199-.96-1.479-.2-4.037 2.319-4.197 3.278zm9.114-19.229c-.36 0-.36.2-.36.4s.2.6.36.8v-1.2z" fill="#ecdfda" fill-rule="evenodd"/><path d="M117.329 95.342c-.18 2.918-.72 6.996-1.64 9.135-1.098 2.318-3.117 5.616-5.116 8.335-2.019 2.718-4.577 6.396-8.435 7.555" fill="none" stroke="gray" stroke-width=".8" stroke-linecap="round" stroke-linejoin="round" stroke-miterlimit="10"/><path d="M118.448 97.181c.56 1.799 7.316 5.517 8.395 5.517m-11.593 10.234c.38 2.398 3.518 3.198 3.518 3.198m-3.118-5.037c2.798.4 3.518 2.318 3.518 2.318m-23.026-7.435c2.898.6 4.877 2.338 4.877 4.477m-3.998-1.359c1.899 1.959 2.259 2.718 3.198 2.718" fill="none" stroke="#d1c2bd" stroke-width=".8" stroke-linecap="round" stroke-linejoin="round" stroke-miterlimit="10"/><path d="M119.368 97.061c0 .8-.4 1.38-.4 2.159z" fill="#f0f0f0" fill-rule="evenodd"/><path d="M119.368 97.061c0 .8-.4 1.4-.4 2.159" fill="none" stroke="#f0f0f0" stroke-width="1.679" stroke-miterlimit="8"/><path d="M119.368 97.061c0 .8-.4 1.4-.4 2.159" fill="none" stroke="#f0f0f0" stroke-width="1.679" stroke-miterlimit="8"/><path d="M96.581 107.135c.56-.38 1.48-1.14 1.84-1.519z" fill="#f0f0f0" fill-rule="evenodd"/><path d="M96.581 107.135c.56-.38 1.48-1.14 1.84-1.519" fill="none" stroke="#f0f0f0" stroke-width="1.679" stroke-miterlimit="8"/><path d="M96.581 107.135c.56-.38 1.48-1.14 1.84-1.519" fill="none" stroke="#f0f0f0" stroke-width="1.679" stroke-miterlimit="8"/><path d="M114.95 83.01c.74 0 1.82-.18 1.64 5.656 0 6.037-.9 12.653-1.46 14.392-.54 1.958-5.456 9.554-6.736 10.713-1.459 1.36-4.017 5.637-7.115 5.637-3.278 0-8.375-4.278-11.114-6.616-2.738-2.319 4.198 2.538 7.296 1.559 3.098-1.16-1.28-4.657-1.28-6.816.18-2.319 5.297 4.477 8.016 3.118 2.738-1.36-1.08-9.334-.72-11.873.36-2.718 3.458 5.057 6.736 2.339 3.458-2.919 6.376-18.889 4.737-18.11zm15.49 1.379.36-.76c0-.2 0-.4-.2-.6-.719 0-1.438-.2-1.998-.4-1.24-.359-2.159-1.158-3.438-1.358l.2.2c.72.8 1.28 1.159 1.639 2.158.36 1.92.16 4.078.52 5.997.2 1.759.92 3.318 1.08 4.877.199 1.959-.52 4.077-.36 6.196.919-2.319 2.718-4.078 3.437-6.196l1.08-4.078c-1.8-3.118-3.798-4.677-2.32-6.036z" fill="#ecdfda" fill-rule="evenodd"/><path d="M131.4 65.96c-.2-3.718-1.279-7.036-2.358-10.514-3.678-1.958-6.236-4.317-9.315-6.236-3.837-2.558-9.314-5.636-11.712-6.636-.16 0-.52-.2-.88-.4.16 2.359.52 4.877.88 7.796.4 5.077 3.118 8.754 2.958 14.231-.2 7.396-5.117 17.71-7.875 21.987-2.919 4.877-5.117 6.236-7.116 12.832-.72 2.159-1.28 4.677-1.84 7.196.2 0 .2-.16.4-.16 1.28-.2 1.44-3.318 3.798-5.837 2.2-2.358 4.398-3.917 4.398-3.917.56-9.714 8.035-14.791 10.953-14.791 2.559 0 4.198 1.958 4.198 3.717 0 1.16-.2 4.478-.36 7.196-.2 1.16-.2 2.119-.2 2.918.2-1.16-.36 4.078-.16 2.918.72-2.718 1.44-7.995 2.359-11.672.56-1.56 1.119-3.119 1.639-4.278l2.398-3.318c.16.2.36.4.72.4v.16c.16 0 .56.2.92.4 1.638.959 3.437 1.958 5.476 2.718-1.28-5.037.88-11.673.72-16.71z" fill="#f0f0f0" fill-rule="evenodd"/><path d="M107.095 85.188c1.48-1.759 3.118-2.718 4.757-3.118.72-.4 1.28-.6 1.8-.6 2.558 0 4.197 1.96 4.197 3.718v.96c.36 3.718-.52 9.154-.52 9.154v-.2l.72-2.118c0-1.96.919-5.077 1.998-7.796.36-1.159.72-1.958 1.08-2.918.919-1.959 1.639-3.518 1.639-3.518l-5.277-2.358c-1.8 2.558-6.556 4.317-11.833 5.277a70.954 70.954 0 0 1-2.558 4.477c-2.919 4.877-5.117 6.236-7.116 12.872-.72 1.959-1.28 4.477-1.84 6.796.4-.16.76-.36 1.12-.56.16-.4.56-1 .92-1.559.52-1.16 1.08-2.358 2.158-3.518 2.2-2.318 4.398-3.877 4.398-3.877.16-3.118 1.08-5.877 2.358-7.996.56-1.159 1.08-2.358 2-3.118z" fill="#ecdfda" fill-rule="evenodd"/><path d="M130.041 78.353c-3.238-.76-6.676-1.16-8.275-2.16 2.519 2 5.757 3.559 8.435 4.918-.16-.96-.16-1.76-.16-2.758zm-8.275-2.16c-.2-.2-.56-.399-.76-.599.2.2.36.4.76.6z" fill="#ebe3df" fill-rule="evenodd"/><path d="M117.889 85.588c0 2.319-.4 11.473-.4 11.473s1.839-15.59 5.836-18.109l-4.917-2.558s-1.279 1.559-5.636 3.118c-1.84.6-4.038 1.399-7.116 1.959a44.945 44.945 0 0 1-2.558 4.677c-1.08 1.959-2.2 3.318-3.119 4.477-.72 1.959-1.239 3.718-1.239 4.877 0 1.56-1.12 1.959-2.558 2.758 0 .16-.2.56-.2.76-.72 2.159-1.28 4.677-1.84 7.196.2-.16.56-.16.76-.36 1.8-.6 1.8-4.477 3.638-6.436 2-1.96 4.198-3.118 4.198-3.118s1.08-12.273 10.953-14.831c2.559.2 4.198 1.958 4.198 4.117z" fill="#d9c6be" fill-rule="evenodd"/><path d="M42.574 122.686c9.315-.36 26.464.2 35.739 6.636 9.314 6.236 11.473 2.158 15.51.959 3.998-.96 15.67-6.996 18.749-6.996 4.037-2.158 22.426-6.836 31.54-3.717 8.915 3.118 9.675 7.595 10.035 10.353.52 2.719.52 8.555-6.037 11.074-6.556 2.358-10.753 3.717-14.55 3.717-3.839 0-8.236 2.719-10.395 2.919-1.998.4-3.278 1.958-5.836 1.958-1.48.36-2.918 1.92-5.677 2.719-2.718.56-13.272 5.836-15.83 8.555-2.559 2.518-17.87 10.113-19.148 10.113z" fill="#fef1eb" fill-rule="evenodd"/><path d="M133.919 125.844c4.197-1.96 7.315-1.76 9.314-1.56 2.199.2 6.756 1.76 8.035 8.755.52 2.719-1.119 4.837-2.918 5.997-2.758 2.158-6.756 2.518-9.674 2.518-4.917 0-5.837-1.919-7.116-6.196-1.12-4.277.56-8.915 2.359-9.514z" fill="#fbf6f4" fill-rule="evenodd"/><path d="M85.348 164.9c5.477-3.078 10.434-6.396 14.072-8.715 3.638-2.318 10.393-5.436 12.592-5.636 2.199-.36 5.477-3.078 6.556-3.078.92 0 2.399-.6 4.038-1.16 1.639-.4 3.078-.4 5.996-1.559 2.918-1 5.117-1.759 7.116-1.759-2.159-.2-5.837-2.318-5.837-8.554-2.158 3.517-2.918 8.155-4.917 8.155-1.839 0-4.917-4.238-6.036-4.238-.88 0 1.679 5.997 1.12 5.997-.72 0-5.118-4.078-6.197-4.078-.92 0 2.159 6.396-1.48 6.396-3.637 0-6.755 3.118-13.311 5.037-3.278 2.159-11.873 13.032-13.712 13.192z" fill="#fce5de" fill-rule="evenodd"/><path d="M67.699 142.594c-4.977 4.277-2.758 14.171 2.379 15.91m44.852-27.264c.92 5.277 1.46 7.836 2.199 9.595a61.82 61.82 0 0 0 1.799 4.477m-5.437.32c-2.398-1.74-1.659-9.514-1.459-12.633m9.454 5.677c.36 2.159 1.64 5.437 2.16 5.996" fill="none" stroke="#d1c2bd" stroke-width=".8" stroke-linecap="round" stroke-linejoin="round" stroke-miterlimit="10"/><path d="M133.919 125.844c4.197-1.96 7.315-1.76 9.314-1.56 2.199.2 6.756 1.76 8.035 8.755.52 2.719-1.119 4.837-2.918 5.997-2.758 2.158-6.756 2.518-9.674 2.518-4.917 0-5.837-1.919-7.116-6.196-1.12-4.277.56-8.915 2.359-9.514" fill="none" stroke="#dfd5d0" stroke-width=".8" stroke-linecap="round" stroke-linejoin="round" stroke-miterlimit="10"/><path d="M110.413 134.838c.72-1.159 3.278-.36 2.918 1.36-.52 2.118-2.918 2.118-4.597 2.118m5.356-5.836c1.08-.16 2-.56 3.039-.56m-49.25 11.833c0-1.36-2.179-.96-3.078-.96-.2.76-.2 1.74.18 2.32.54.559 1.819.559 2.538.559m.24 13.272c.18-.76 1.28-.96 1.999-1.34 1.279-.959 1.639-1.918 1.459-3.657-3.098-.2-7.276 1.739-9.654 3.857" fill="none" stroke="#fef1eb" stroke-width="1.679" stroke-miterlimit="8"/><path d="M42.574 122.686c9.315-.36 26.464.2 35.739 6.636 9.314 6.236 11.473 2.158 15.51.959 3.998-.96 15.67-6.996 18.749-6.996 4.037-2.158 22.426-6.836 31.54-3.717 8.915 3.118 9.675 7.595 10.035 10.353.52 2.719.52 8.555-6.037 11.074-6.556 2.358-10.753 3.717-14.55 3.717-3.839 0-8.236 2.719-10.395 2.919-1.998.4-3.278 1.958-5.836 1.958-1.48.36-2.918 1.92-5.677 2.719-2.718.56-13.272 5.836-15.83 8.555-2.559 2.518-17.87 10.113-19.148 10.113" fill="none" stroke="#000" stroke-width=".8" stroke-linecap="round" stroke-linejoin="round" stroke-miterlimit="10"/><path d="M76.993 170.057c.74 0 2.379 1.759 2.559.98m-36.618-49.99c.56 1.559 1.3 3.098 1.839 4.637" fill="none" stroke="#fef1eb" stroke-width="1.679" stroke-miterlimit="8"/><path d="M90.305 113.571c1.46 1.18 3.298 2.339 4.737 3.298 3.838 2.519 9.475 4.837 9.655 5.417 1.279.2 3.278 2.318 3.278 2.318" fill="none" stroke="gray" stroke-width=".8" stroke-linecap="round" stroke-linejoin="round" stroke-miterlimit="10"/><path d="M84.149 109.893c1.28.2 3.638 1.94 6.156 3.678" fill="none" stroke="#000" stroke-width=".8" stroke-linecap="round" stroke-linejoin="round" stroke-miterlimit="10"/><path d="M94.463 105.976c1.319-.16 1.479-3.278 3.877-5.797 2.16-2.358 4.358-3.917 4.358-3.917.56-9.714 8.075-14.751 10.993-14.751 2.559 0 4.198 1.918 4.198 3.677 0 1.16-.16 4.478-.36 7.196-.16 1.16-.16 2.159-.16 2.918.16-1.16-.4 4.078-.2 2.918.72-2.718 1.48-7.955 2.359-11.672.56-1.56 1.119-3.119 1.679-4.278.919-1.759 2.358-3.318 2.358-3.318.2.2.36.4.72.4v.2" fill="none" stroke="gray" stroke-width=".8" stroke-linecap="round" stroke-linejoin="round" stroke-miterlimit="10"/><path d="M.76 58.644c6.396 4.298 15.69 9.755 18.049 11.493 2.198 1.96 6.396 5.077 8.754 6.816 2.379 1.76 3.658 3.518 4.917 6.037 1.28 2.738 8.755 12.672 12.413 16.75 2.918 3.318 12.392 9.754 15.49 11.692 2.359 0 4.558 0 6.377.38 3.837-1.16 10.033-4.077 17.329-1.939 1.46-2.138 9.115-3.497 10.374-3.897" fill="none" stroke="#000" stroke-width=".8" stroke-linecap="round" stroke-linejoin="round" stroke-miterlimit="10"/><path d="M105.256 81.67c.38 0 .56 0 .92-.18 6.736-1.578 10.933-3.757 11.473-5.336" fill="none" stroke="gray" stroke-width=".8" stroke-linecap="round" stroke-linejoin="round" stroke-miterlimit="10"/><path d="M68.558 79.512c9.874 3.917 29.403 3.738 36.698 2.159" fill="none" stroke="#000" stroke-width=".8" stroke-linecap="round" stroke-linejoin="round" stroke-miterlimit="10"/><path d="M69.558 78.592v4.877" fill="none" stroke="#fef1eb" stroke-width="1.679" stroke-miterlimit="8"/><path d="M112.372 75.434s2.558.4 5.317.8c0 0 2.518.96 5.796 2.718" fill="none" stroke="gray" stroke-width=".8" stroke-linecap="round" stroke-linejoin="round" stroke-miterlimit="10"/><path d="M113.131 76.194c.18-1.16 0-3.478.72-4.078z" fill="#f0f0f0" fill-rule="evenodd"/><path d="M113.131 76.194c.2-1.16 0-3.478.72-4.078" fill="none" stroke="#f0f0f0" stroke-width="1.679" stroke-miterlimit="8"/><path d="M113.131 76.194c.2-1.16 0-3.478.72-4.078" fill="none" stroke="#f0f0f0" stroke-width="1.679" stroke-miterlimit="8"/><path d="M130.6 82.63c2.6 1 5.158 1.759 6.077 2.319" fill="none" stroke="#000" stroke-width=".8" stroke-linecap="round" stroke-linejoin="round" stroke-miterlimit="10"/><path d="M124.285 79.512c.2 0 .56.2.92.4 1.638.999 3.597 1.958 5.396 2.718m2.559 8.715c-.16 1.759-.36 3.118-.36 3.717-1.8 1.96-4.358 9.555-4.358 12.673 0 2.918-1.12 3.917-1.28 5.277-.199 1.359-2.558 3.118-3.837 3.877-1.279.6-5.676 4.278-5.676 4.278" fill="none" stroke="gray" stroke-width=".8" stroke-linecap="round" stroke-linejoin="round" stroke-miterlimit="10"/><path d="M134.598 84.229c-.36 1.559-1.079 4.637-1.439 7.116" fill="none" stroke="#000" stroke-width=".8" stroke-linecap="round" stroke-linejoin="round" stroke-miterlimit="10"/><path d="M133.48 95.902c.559 1.559 7.395 4.077 8.314 4.077m-13.032 12.953c1.679 0 4.957 1.599 4.957 3.198" fill="none" stroke="#d1c2bd" stroke-width=".8" stroke-linecap="round" stroke-linejoin="round" stroke-miterlimit="10"/><path d="M134.638 95.942c-.72.4-1.119 1.359-.919 1.919z" fill="#f0f0f0" fill-rule="evenodd"/><path d="M134.638 95.942c-.72.4-1.119 1.359-.919 1.919" fill="none" stroke="#f0f0f0" stroke-width="1.679" stroke-miterlimit="8"/><path d="M134.638 95.942c-.72.4-1.119 1.359-.919 1.919" fill="none" stroke="#f0f0f0" stroke-width="1.679" stroke-miterlimit="8"/><path d="M103.577 98.38c1.5 3.538 5.217 5.677 5.757 5.677" fill="none" stroke="#d1c2bd" stroke-width=".8" stroke-linecap="round" stroke-linejoin="round" stroke-miterlimit="10"/><path d="M102.898 99.54c2.758-1.32 6.596-2.859 7.675-5.917z" fill="#f0f0f0" fill-rule="evenodd"/><path d="M102.898 99.54c2.758-1.32 6.596-2.859 7.675-5.917" fill="none" stroke="#f0f0f0" stroke-width="1.679" stroke-miterlimit="8"/><path d="M102.898 99.54c2.758-1.32 6.596-2.859 7.675-5.917" fill="none" stroke="#f0f0f0" stroke-width="1.679" stroke-miterlimit="8"/><path d="M106.535 42.015c-.899-.2-2.178-.82-3.837-1.44" fill="none" stroke="#000" stroke-width=".8" stroke-linecap="round" stroke-linejoin="round" stroke-miterlimit="10"/><path d="M128.602 55.207c-3.438-1.92-5.996-4.038-8.915-5.997-3.837-2.518-9.314-5.636-11.672-6.596-.36 0-.72-.2-1.48-.6" fill="none" stroke="gray" stroke-width=".8" stroke-linecap="round" stroke-linejoin="round" stroke-miterlimit="10"/><path d="M130.6 56.166c-.719-.16-1.238-.56-1.998-.96" fill="none" stroke="#000" stroke-width=".8" stroke-linecap="round" stroke-linejoin="round" stroke-miterlimit="10"/><path d="M107.135 43.414c.36 1.959.72 4.097.9 6.616.38 5.057 3.098 8.754 2.918 14.191-.18 7.376-5.097 17.69-7.835 21.947C100.199 91.025 98 92.404 96.002 99c-1.1 3.498-1.82 8.555-3.458 11.473-4.377 7.575-12.053.96-17.33 6.416-2.018 2.139-3.657 4.657-4.937 7.755m61.683-5.836c-.16-7.156 4.917-18.269 2.399-25.265-1.68-5.037-5.877-7.395-3.838-9.114l.36-.8c-1.84-5.037.72-12.232.56-17.669-.2-3.518-1.12-6.636-2.04-9.754" fill="none" stroke="#fff" stroke-width="1.679" stroke-miterlimit="8"/><path d="M62.722 52.248c0-5.636 6.756-15.75 15.53-15.35 8.755.58 26.285 7.395 26.285 7.395-12.413-2.918-24.286-4.277-30.122-1.959-5.837 2.339-11.493 6.037-11.693 9.914zm-8.715 72.596c7.296 0 21.867 4.278 26.224 8.155zm68.599-2.558c2.918-2.079 16.23-2.479 20.787-.76zm26.224-29.502c-2.199 3.118-3.678 6.956-3.678 10.234zm-5.437 16.07c-2.918 1.6-5.117 4.717-5.117 6.636z" fill="#fff" fill-rule="evenodd"/><path d="M142.833 179.131c7.436-1.918-.919-10.873-1.639-14.39-.879 4.117-3.637 15.75 1.64 14.39zm-55.406 14.192c4.717.76 1.999-6.416 2.359-8.755-1.64 2.139-5.637 8.155-2.359 8.755zm39.376-12.873c4.757-1.159-.56-6.795-.92-9.154-.719 2.759-2.398 9.914.92 9.155zm-15.85 13.472c4.697-1.179-.54-6.835-1.1-9.194-.54 2.738-2.358 10.154 1.1 9.194zM64.44 199c4.758 1.159 2.2-6.417 2.76-8.755-1.66 2.138-6.237 7.975-2.76 8.754zm-5.875-11.514c2.898 2.12 3.258-3.478 4.157-4.837-1.619.98-6.156 3.298-4.157 4.837zm86.827-33.779c5.517 0 9.514 5.796 6.596 6.356-3.118.76-3.838-3.438-6.596-6.356zM133.16 43.534c3.117 1.759 11.672 5.676 7.515 10.113-4.198 4.278-5.677-7.555-7.516-10.113z" fill="#dcf0fa" fill-rule="evenodd"/><path d="M145.392 153.707c5.517 0 9.514 5.796 6.596 6.356-3.118.76-3.838-3.438-6.596-6.356zm-11.673 9.953c0-1.398 1.12-2.598 2.438-2.598 1.36 0 2.439 1.2 2.439 2.599 0 1.439-1.08 2.598-2.439 2.598-1.319 0-2.438-1.16-2.438-2.598zm-20.068 9.555c0-1.44 1.1-2.638 2.439-2.638 1.359 0 2.438 1.199 2.438 2.638 0 1.46-1.08 2.638-2.438 2.638-1.34 0-2.439-1.179-2.439-2.638z" fill="#dcf0fa" fill-rule="evenodd"/><path d="M113.651 173.215c0-1.44 1.12-2.638 2.439-2.638 1.359 0 2.438 1.199 2.438 2.638 0 1.48-1.08 2.638-2.438 2.638-1.32 0-2.439-1.159-2.439-2.638" fill="none" stroke="#fff" stroke-width=".8" stroke-miterlimit="8"/><path d="M109.813 180.21c0-1.418 1.06-2.598 2.359-2.598 1.32 0 2.359 1.18 2.359 2.599 0 1.439-1.04 2.598-2.359 2.598-1.3 0-2.359-1.16-2.359-2.598zm-10.953 6.397c0-1.12.86-2.039 1.919-2.039 1.06 0 1.919.92 1.919 2.039 0 1.14-.86 2.039-1.92 2.039-1.058 0-1.918-.9-1.918-2.04zm6.396 4.197c0-.52.42-.96.92-.96.52 0 .92.44.92.96 0 .54-.4.96-.92.96-.5 0-.92-.42-.92-.96z" fill="#dcf0fa" fill-rule="evenodd"/><path d="M105.256 190.804c0-.52.42-.96.92-.96.52 0 .92.44.92.96 0 .54-.4.96-.92.96-.5 0-.92-.42-.92-.96" fill="none" stroke="#fff" stroke-width=".8" stroke-miterlimit="8"/><path d="M118.928 181.45c0-.52.48-.96 1.04-.96.599 0 1.039.44 1.039.96 0 .56-.44.96-1.04.96-.56 0-1.04-.4-1.04-.96z" fill="#dcf0fa" fill-rule="evenodd"/><path d="M118.928 181.45c0-.52.48-.96 1.04-.96.599 0 1.039.44 1.039.96 0 .56-.44.96-1.04.96-.56 0-1.04-.4-1.04-.96" fill="none" stroke="#fff" stroke-width=".8" stroke-miterlimit="8"/><path d="M130.84 171.936c0-.88.68-1.6 1.52-1.6s1.519.72 1.519 1.6c0 .92-.68 1.599-1.52 1.599-.839 0-1.518-.68-1.518-1.6zm-62.761 18.109c0-.86.68-1.56 1.519-1.56.84 0 1.519.7 1.519 1.56 0 .88-.68 1.559-1.52 1.559-.839 0-1.518-.68-1.518-1.56z" fill="#dcf0fa" fill-rule="evenodd"/><path d="M69.518 178.532c1.1 0 2.378-.2 3.478 0 1.639.4 2.738 1.959 4.397 2.558 2.559.98 4.377-.98 6.396-.78 1.08 4.098-9.334 2.34-9.874-.599z" fill="#fff" fill-rule="evenodd"/><path d="M81.23 183.649c5.837-.38 3.479-1.36 8.216-3.878 4.917-2.538 4.377-3.318 7.295-2.918 2.919.58 1.46 3.118 6.017 2.139 4.557-1.16 6.376-2.34 7.095-2.539" fill="none" stroke="#fff" stroke-width="1.679" stroke-miterlimit="8"/><path d="M113.331 26.824c0 1.359 0 1.719.56 2.918.36.96 1.28 2.319 1.28 3.478 0 .96-.72 1.559-.72 2.518.16 1.36 1.998 2.359 3.078 2.919 0 2.318.76 5.236.2 7.595 1.639 0-.36.16 1.079-.4.2-.8.92-5.836.56-7.595-.36-1.72-.92-3.478-.92-5.437.2-3.278 3.278-5.437 1.48-8.914-1.12-2.32-1.12-3.718-1.28-6.437-.56 1.96.36 3.718 0 5.637-.2 1.36-.56 1.759-.36 3.318.16 1.759.52 3.678-.2 5.437-.56.96-1.998 1.959-2.358 3.318-.2-1.76.36-3.718 0-5.277-.2-1.16-1.839-2.119-2.199-3.278zm-1.479 26.044c0 1.16.9 1.939 1.44 2.918.36.98.539 2.139.539 3.318.18 1.939-.72 3.498-.9 5.257-.36 3.118.72 7.396-1.079 10.114 1.08-1.74 2.878-3.298 2.878-5.637 0-.78-.18-1.179-.36-1.959-.18-2.518.36-4.677 1.08-6.995.52-1.96.36-2.939-.9-4.498-.719-.78-1.439-1.359-1.798-2.338-.54-.96-.72-2.139-1.26-3.118zm10.394-5.976c.36.959 1.08 2.678 1.24 3.677 0 .96-.52 1.72-.52 2.519-.2 1.719.52 3.278.52 4.997 0-1.32-.16-2.878 0-4.438.199-.76.719-1.359.719-2.518.16-1.719-1.08-1.719-1.6-3.278-.559-1.16-.2-3.118-.2-4.477zm1.279 46.651c.16 1.76 1.08 3.318 1.08 5.077-.2 1.959-1.08 2.719-1.64 4.278-.36 1.159.2 1.958.2 3.118.16 2.158-1.479 3.518-1.479 5.636 0-1.559-.92-3.118-.72-4.677.16-1.16.72-1.559 1.44-2.518.56-.76.92-1.16 1.12-2.159.159-.36 0-.96.159-1.36.36-1.158 1.48-1.758 2.199-2.518 1.279-.96 1.439-1.159 1.079-2.518-.36-1.2-1.08-2.359-1.28-3.918-.359-1.359-.359-2.918-.719-4.477-.16-1.16-.56-2.558-1.279-3.518-.52-.96-2.359-1.16-2.918-2.159-.56-.959.56-2.118.92-3.118-1.28 2.759-.56 8.995 2.198 10.754.36 2.318-2.199 4.277-2.559 6.236-2.918 0-3.837 4.277-4.037 6.596 0 .6 0 1.4-.16 1.959-.56 1.16-2.199 1.559-2.758 2.558 1.679-1.759 3.318-4.517 4.597-6.436zm-19.368 2.919c-.72 2.338-3.098 3.497-3.458 6.036-.36 1.36.36 2.718.18 4.277 0 2.139-2.179 3.498-2.359 5.817-.18.6.18 1.759-.18 2.538-.74 1.36-4.377.96-5.656.96-1.26.2-5.097-.58-5.097 1.379 2.918 2.318 7.295 2.518 10.574 4.257-.18-1.16.54-2.318.36-3.498-.18-.76-.36-1.359-.36-1.938.72-.38 2.358-.96 2.718-1.74.74-1.558-1.08-2.538.18-3.897 1.459-1.56 3.278-1.16 3.278-3.878-.18-3.498-1.82-5.636.36-8.934zm3.338 65.76c1.459-3.118 5.457-5.057 6.376-8.755 1.28 4.078 4.537 1.759 4.357-1.759 0 2.738.54 6.816-3.078 6.236-.56-1.759-4.017.38-4.737 1.36-.9 1.159-.54 3.697-1.999 4.077zm16.79-10.874c2.158-.8 6.156-.8 7.595-2.358-1.999 2.918-5.237 2.718-8.155 4.477-1.839 1.16-2.359 3.318-3.838 5.037z" fill="#f9fcfe" fill-rule="evenodd"/><path d="M83.07 136.317c-1.26 4.298-1.46 14.632-5.457 11.134-4.217-3.718 1.639-7.616 5.457-11.134z" fill="#f0f0f0" fill-rule="evenodd"/><path d="M83.07 136.317c-1.26 4.298-1.46 14.632-5.457 11.134-4.217-3.718 1.639-7.616 5.457-11.134" fill="none" stroke="#fff" stroke-width="1.679" stroke-miterlimit="8"/><path d="M120.247 127.043c3.118 3.318 10.394 9.514 5.317 11.833-5.117 2.318-4.198-6.396-5.317-11.833z" fill="#f0f0f0" fill-rule="evenodd"/><path d="M120.247 127.043c3.118 3.318 10.394 9.514 5.317 11.833-5.117 2.318-4.198-6.396-5.317-11.833" fill="none" stroke="#fff" stroke-width="1.679" stroke-miterlimit="8"/><path d="M83.83 161.282c7.635.38 2.178-10.533 2.358-14.251-1.999 3.518-7.835 13.851-2.359 14.251z" fill="#f0f0f0" fill-rule="evenodd"/><path d="M83.83 161.282c7.635.38 2.178-10.533 2.358-14.251-1.999 3.518-7.835 13.851-2.359 14.251" fill="none" stroke="#fff" stroke-width="1.679" stroke-miterlimit="8"/></svg>