<svg xmlns="http://www.w3.org/2000/svg" version="1.0" viewBox="0 0 176.58 248.164"><defs><clipPath clipPathUnits="userSpaceOnUse" id="a"><path d="M1.759 1.12h176.373v248.329H1.759z"/></clipPath></defs><path d="M176.973 232.3c0 8.834-39.177 16.15-87.147 16.15-48.211 0-87.148-7.316-87.148-16.15V113.09s-.8-14.87 10.834-23.265c11.593-8.395 8.235-30.462 8.235-30.462h135.358s-2.559 24.345 6.876 31.301c7.675 5.437 13.152 10.074 13.152 23.266 0 13.232-.16 118.368-.16 118.368z" fill="#c1c0de" fill-rule="evenodd"/><path d="M171.256 228.022c0 8.355-36.378 15.07-81.19 15.07-45.013 0-81.391-6.715-81.391-15.07V114.05s-.8-14.032 10.034-21.827c10.993-7.955 7.875-28.543 7.875-28.543h126.363s-2.558 22.667 6.316 29.383c7.076 5.276 12.353 9.474 12.353 21.826 0 12.393-.36 113.132-.36 113.132z" fill="#dedded" fill-rule="evenodd"/><path d="M171.256 228.022s.2-59.764.36-92.904c-6.876-5.676-13.752-11.313-22.386-13.432-17.31-4.197-33.22 12.393-50.73 13.032-9.434.4-23.186-6.516-32.42-8.594-7.276-1.68-11.393-7.356-19.068-6.516-10.994 1.039-18.47.64-27.504 7.115-3.358 2.519-6.876 6.077-10.833 9.235v92.064c0 8.395 36.378 15.07 81.39 15.07 44.813 0 81.191-6.675 81.191-15.07z" fill="#428972" fill-rule="evenodd"/><path d="M171.296 228.022s.16-7.356.16-18.07c-3.718-2.078-7.435-3.557-10.793-4.197-.2 1.08-6.476-.6-7.876-1.639-.4 3.118-8.035 3.118-9.434-1.479.4 4.198-5.876 6.716-6.876 3.118-1.759.84-5.516.44-7.275 1.28-1.96-5.677-3.518-11.114-4.917-16.35-1.76 1.039-5.677.839-8.035 2.278-6.916-15.91-15.551-24.105-17.11-1.04-3.758-4.597-9.234-8.154-15.55-5.036-2.36-26.424-12.753-9.235-23.986-11.513-19.668-4.198 5.716-21.187-12.752-25.185-.2 3.758 21.626-15.71-7.116-23.906 2.398-1.479 2.398-4.197 1.599-6.316-6.876.64-14.551 1.48-21.827 6.716-3.358 2.519-6.876 6.117-10.833 9.235v92.104c0 8.395 36.378 15.07 81.39 15.07 44.853 0 81.231-6.675 81.231-15.07z" fill="#36765f" fill-rule="evenodd"/><path d="M120.927 155.586c-2.759.4-5.877-2.959-8.035-4.637-5.517-3.998-11.234-7.996-16.15-12.873-4.518-4.637-7.876-9.874-9.435-16.43-.6-2.718-.4-5.876-1-8.195 7.676-.44 14.752 2.958 22.227 5.037 7.676 2.319 13.192 4.877 17.11 12.433 1.599 2.958 7.275 25.264 2.358 24.665zm12.513-11.793c-4.518-3.798-5.318-14.272-5.118-20.148.2-5.037 1-10.274 2.958-14.91.6-1.44 3.358-8.156 4.917-8.396 4.718-.84 11.234 14.511 11.993 17.87 2.559 10.073-1.16 16.79-4.317 25.984zm-60.244-.96c-1.76-15.71-13.372-40.035-30.702-40.455 1.979 5.677 1.979 12.173 4.338 18.029 3.158 7.755 9.054 12.373 14.77 16.77z" fill="#428972" fill-rule="evenodd"/><path d="M56.686 229.241c-7.676 0-15.55-8.815-20.088-14.271-8.075-9.874-12.413-20.568-11.613-33.58 4.137-.42 9.454 3.778 12.592 6.096 7.496 5.657 12.613 12.173 15.75 21.188 2.58 7.335 5.317 15.11 4.738 23.066zm11.912 6.596c-.2-7.975 2.559-16.59 7.456-22.466 5.517-6.316 11.793-7.995 18.868-10.734 0 4.218.58 7.356-.979 11.573-2.359 6.716-5.117 11.133-10.014 16.17-3.538 3.998-11.213 8.395-15.93 7.556zm47.612 1.539c-9.235-3.358-10.234-24.785-8.036-32.98 2.16-9.274 5.277-7.156 8.835-.24 3.758 6.956 6.476 16.19 5.317 24.385-.6 3.798-2.559 10.314-6.116 11.753z" fill="#125b3b" fill-rule="evenodd"/><path d="M116.57 232.46c-.6-8.156 5.516-15.711 10.833-20.708 5.556-5.237 11.673-6.317 18.549-5.677-1.16 1.879-.16 4.397-.96 6.516-1.2 4.158-5.916 9.394-9.274 11.713-4.757 3.558-15.59 7.755-20.948 5.237z" fill="#125b3b" fill-rule="evenodd"/><path d="M130.041 235.337c4.158-15.91 19.868-24.065 34.38-16.71-1.96 1.24-2.16 3.758-3.718 5.397-2.759 3.558-9.035 6.916-12.753 8.795-3.957 1.679-14.151 3.958-18.309 2.079z" fill="#125b3b" fill-rule="evenodd"/><path clip-path="url(#a)" d="M176.973 232.3c0 8.834-39.177 16.15-87.147 16.15-48.211 0-87.148-7.316-87.148-16.15V113.09s-.8-14.87 10.834-23.265c11.593-8.395 8.235-30.462 8.235-30.462h135.358s-2.559 24.345 6.876 31.301c7.675 5.437 13.152 10.074 13.152 23.266 0 13.232-.16 118.368-.16 118.368" fill="none" stroke="#343434" stroke-width=".48" stroke-miterlimit="8"/><path d="M166.42 59.124c0 5.237-34.58 9.434-77.274 9.434-42.654 0-77.273-4.197-77.273-9.434V33.7h154.546v25.424z" fill="#a4a4a5" fill-rule="evenodd"/><path d="M53.847 67.52c10.634.839 22.467 1.038 35.259 1.038 16.31 0 31.46-.6 44.053-1.679V33.7H53.847v33.82z" fill="#b6b6b7" fill-rule="evenodd"/><path d="M75.834 68.478c6.916.2 13.992.4 21.467.4 6.676 0 13.192-.2 19.468-.2V33.7H75.834v34.778z" fill="#cacacb" fill-rule="evenodd"/><path d="M166.42 59.124c0 5.237-34.58 9.434-77.274 9.434-42.654 0-77.273-4.197-77.273-9.434V33.7h154.546v25.424z" fill="none" stroke="#343434" stroke-width=".48" stroke-miterlimit="8"/><path d="M11.873 33.62c0-5.277 34.619-9.595 77.273-9.595 42.694 0 77.273 4.318 77.273 9.595 0 5.316-34.579 9.594-77.273 9.594-42.654 0-77.273-4.278-77.273-9.594z" fill="#bfbfc1" fill-rule="evenodd"/><path d="M18.469 33.38c0-5.037 32.84-9.455 74.155-9.455-.98 0-1.959-.22-2.938-.22-42.694 0-77.333 4.418-77.333 9.675 0 5.277 34.639 9.674 77.333 9.674h2.938c-41.315-.2-74.155-4.397-74.155-9.674z" fill="#d7d7db" fill-rule="evenodd"/><path d="M11.873 33.38c0-5.317 34.619-9.674 77.273-9.674 42.694 0 77.273 4.357 77.273 9.674 0 5.357-34.579 9.674-77.273 9.674-42.654 0-77.273-4.317-77.273-9.674" fill="none" stroke="#343434" stroke-width=".48" stroke-miterlimit="8"/><path d="m76.674 33.7-13.752-4.158V9.834s-.6-7.955 6.676-7.955h34.419s9.794.44 9.794 8.795V31.42l-11.593-3.558v-15.27s.2-5.677-7.635-5.677H82.99s-6.316.44-6.316 7.755V33.7z" fill="#d6d6d8" fill-rule="evenodd"/><path clip-path="url(#a)" d="m76.674 33.7-13.752-4.158V9.834s-.6-7.955 6.676-7.955h34.419s9.794.44 9.794 8.795V31.42l-11.593-3.558v-15.27s.2-5.677-7.635-5.677H82.99s-6.316.44-6.316 7.755V33.7" fill="none" stroke="#343434" stroke-width=".48" stroke-miterlimit="8"/><path d="M112.572 29.542v-16.11s.76-6.516-17.39-6.516" fill="none" stroke="#343434" stroke-width=".48" stroke-linecap="round" stroke-miterlimit="8"/><path d="M99.5 7.715s3.358 1.28 3.358 4.877v14.951l9.034 2.719.2-16.63s.36-5.037-12.592-5.917z" fill="#a4a4a5" fill-rule="evenodd"/><path d="M68.598 2.598s-4.557 1.06-4.757 5.457l12.253 5.017s.4-4.597 4.537-6.476L68.598 2.598z" fill="#e3e2e5" fill-rule="evenodd"/><path d="M64.8 5.816s1-1.679 1.98-2.098l11.213 3.997s-1.56 1.68-1.76 2.719L64.802 5.816z" fill="#eaeaed" fill-rule="evenodd"/><path d="M65.68 4.977s9.734 4.417 11.513 4.217c0 0-9.514-4.437-11.513-4.217zm38.937-2.219s8.874.84 8.514 9.115c0 0-.4-6.836-8.514-9.115zM93.663 43.534v24.705h5.277V43.534h-5.277zM63.522 10.753v18.49L76.154 32.9 64.36 28.083l-.84-17.33z" fill="#fff" fill-rule="evenodd"/><path d="M12.512 35.698v23.506s2.16-18.249 0-23.506z" fill="#cacacb" fill-rule="evenodd"/><path d="M6.196 198.32v32.26s-3.358 9.634 44.133 14.032c0 0-39.596-3.978-41.175-15.291-1.778-11.093-2.958-31.001-2.958-31.001zm148.15-132.64s-1.399 19.948 7.116 26.264c8.275 6.516 12.033 8.195 11.633 41.535 0 0 1.16-31.46-9.674-36.098-10.674-4.597-9.075-31.7-9.075-31.7z" fill="#f2f2f9" fill-rule="evenodd"/><path d="M22.946 66.88c1 3.597 1.799 7.795 1.2 11.792-.6 3.598-2.759 6.316-3.958 9.475 5.117 1.039 12.992-1.68 17.909-2.719 8.675-1.919 18.908-1.479 27.743-.84 13.192.6 25.385.2 38.737-1.278 6.875-.84 17.909-3.798 24.185-2.959-9.234 0-17.87-3.558-27.144-4.397-11.193-1.04-22.386 0-33.42.64-10.233.4-20.667 0-30.7-2.319-5.477-1.28-9.035-5.077-13.353-7.396zm23.066 23.365c-3.718-1.06-10.573 1.88-14.111 3.558-4.697 2.099-7.256 5.457-9.215 10.474-5.476 13.432-3.338 31.021-3.338 45.712 0 9.414-4.117 34.16 2.759 41.275 6.076 6.496 11.373-2.718 13.132-8.175 2.538-9.214.2-20.747-.2-30.182-.38-15.09.78-28.922 3.338-43.373.98-4.837 6.856-18.869 6.476-20.348z" fill="#eaeaf4" fill-rule="evenodd"/><path d="M22.606 200.159c-1.379 3.578-.38 10.293-.2 14.071.2 3.978-.18 8.175.4 11.953 1.18 5.676 8.255 11.953 13.952 11.333 9.414-.64 0-10.693-1.78-14.051-3.137-6.297-2.158-16.79-6.675-21.827-1.76-1.06-3.918-.42-5.697-1.06zm-.519-8.875c6.056 6.476 11.313-2.738 13.072-8.175 2.538-9.214.98-20.108.8-29.522-.4-12.992-.6-20.528.579-32.9-5.277 1.679-8.395 1.06-17.01 6.076-.18.22-.38.42-.58.42v22.826c0 9.634-3.717 34.14 3.139 41.275z" fill="#53ab89" fill-rule="evenodd"/><path d="M138.196 84.709c6.117-.88 13.392 2.718 17.15 7.795 1.559 2.319 12.592 9.954 5.317 11.633-5.117 1.04-10.834-9.514-15.391-11.833-2.159-1.04-14.991-4.237-8.075-8.475zm10.314 15.671c4.917 1.678 9.594 17.988 4.118 17.189-2.919-.64-6.676-14.032-4.518-15.91z" fill="#eaeaf4" fill-rule="evenodd"/><path d="M46.692 139.715s56.845 9.275 113.89-3.358v70.118s-57.045 16.15-114.09.84l.2-67.6z" fill="#fafdfb" fill-rule="evenodd"/><path d="M46.692 139.715s56.845 9.275 113.89-3.358v70.118s-57.045 16.15-114.09.84l.2-67.6z" fill="none" stroke="#343434" stroke-width=".48" stroke-miterlimit="8"/><text xml:space="preserve" style="line-height:125%;text-align:start" transform="translate(59.137 182.663)" font-size="24" font-weight="400" font-stretch="Normal" letter-spacing="0" word-spacing="0" font-family="Arial"><tspan x="0" y="0"><tspan dx="0" dy="0" fill="#7b879d">Bay leaf</tspan></tspan></text></svg>