<svg xmlns="http://www.w3.org/2000/svg" version="1.0" viewBox="0 0 196.913 147.024"><defs><clipPath clipPathUnits="userSpaceOnUse" id="a"><path d="M9.114 2.478h196.681V149.59H9.115z"/></clipPath></defs><path d="M140.555 26.624c-5.157-3.158-12.513 6.276-16.19 9.394-7.316 9.434-18.35 10.994-28.663 15.71-11.753 3.918-22.786 10.954-33.82 15.671-5.116 2.359-10.993 3.918-13.951 8.635-3.678 4.677-5.157 10.194-5.876 16.43 0 7.076-.76 15.71 2.198 22.746 2.199 4.717 5.877 12.553 10.274 14.911 4.437 3.118 10.314 1.56 15.47 2.359 6.597.76 13.233 2.358 19.109 4.677 8.075 2.358 13.952 3.158 20.588-2.319 8.075-7.875 18.348-1.599 27.183 1.56 7.356 2.358 16.91 4.677 24.265 0 1.48-.8 2.959-2.36 3.678-3.918 1.48-.8 2.199-1.6 3.678-2.359 1.479-3.158-1.48-6.276-2.199-8.635-2.198-4.717 0-10.953.72-15.67 1.479-5.477 3.678-7.076 6.636-10.993 4.397-4.678 7.315-14.112 6.596-20.388-.72-5.477-2.918-7.036-8.075-7.036-5.877.76-9.555 1.56-15.431-1.559z" fill="#b61d40" fill-rule="evenodd"/><path d="M97.221 57.325c5.877-6.276 21.267-.76 23.466 5.517l-2.199 9.394L92.784 83.99z" fill="#d85e67" fill-rule="evenodd"/><path clip-path="url(#a)" d="M171.576 86.308c6.636-9.395 24.345-12.553 29.502-5.477 5.157 6.276 3.718 11.753 0 17.23-2.918 4.677-11.033 3.118-13.272 5.476-1.479 2.359-2.958 6.276-2.958 6.276l-2.199 6.237-12.552-.76z" fill="#d85e67" fill-rule="evenodd"/><path d="M168.618 58.844c1.519-7.835 13.352-10.993 19.268-3.917 4.437 4.717 5.157 18.029 2.958 21.986l-3.717 7.036-12.553 1.56s-7.435-7.037-6.676-12.553zm-67.639-22.026c-6.596-13.352-25.665-5.517-24.945 6.236l-1.48 12.552 6.637 13.312c0 .8 13.951 1.56 13.951 1.56l13.912-10.155 2.199-16.47zm-31.581 91.784c2.199 6.316.76 11.833-3.678 15.75-5.157 4.718-19.188 2.36-25.824-7.875-7.396-10.993-6.636-25.184 2.958-27.543 3.678-.8 6.636 0 8.835.8 5.916 3.917 6.636 7.875 8.874 11.033 2.919 2.358 8.115 3.917 8.835 7.835zm58.804-60.323c8.075 9.394-.76 19.588-11.833 25.064-10.313 6.237-22.866 3.119-25.784-4.717-3.718-7.835 1.48-14.87 5.877-17.23 3.717-2.318 9.594 0 14.031-3.877 3.678-4.717 13.992-5.517 17.71.76zm18.988 57.245c-6.595-2.319-7.315.8-14.67-4.677-7.316-5.437-10.994-6.236-16.11-.76-5.157 5.437-1.48 14.791 4.397 21.027 6.596 5.437 13.192 6.996 21.986 5.437 11.713-.76 11.713-18.668 4.398-21.027z" fill="#d85e67" fill-rule="evenodd"/><path d="M70.118 130.161c-1.48 8.675 7.355 18.909 22.786 18.15 16.19-.8 21.307-11.834 20.587-17.35-1.479-4.757-4.397-8.675-11.033-9.475-7.356-1.599-10.274 2.359-19.828.8-9.554-1.6-11.753 2.358-12.512 7.875zm11.632-29.022c-2.238 7.075 5.877 19.628 18.39 18.868 12.472 0 23.505-7.075 22.785-14.95-1.479-7.836-8.075-8.635-13.231-7.036-11.034 2.358-21.348-8.675-27.944 3.118z" fill="#d85e67" fill-rule="evenodd"/><path d="M143.673 93.463c-9.554-7.075-18.389-6.276-24.265-.76-2.919 3.119-3.678 4.678-3.678 4.678l.76.8c2.918.799 5.876 2.358 6.595 7.075 0 1.56 0 2.319-.72 3.918 5.877-.8 8.796 7.835 10.275 10.194 1.479 1.559 11.033 9.394 18.388 0 7.316-10.194 1.44-18.829-7.355-25.905z" fill="#d85e67" fill-rule="evenodd"/><path d="M151.548 94.942c.76 7.036 4.437 10.954 3.678 14.871 0 4.678-3.678 16.39 7.355 19.509 10.314 2.318 14.712-9.395 14.712-21.867.72-13.272-6.596-25.784-14.712-25.784-7.355 0-11.033 6.276-11.033 13.271z" fill="#d85e67" fill-rule="evenodd"/><path d="M183.369 109.014c-2.199 0-3.678 0-5.917.8-.72 11.792-4.437 21.227-14.75 19.628-2.959-.76-5.197-2.359-5.917-3.918l-.76.8c-5.916 7.835-2.958 14.11 2.959 18.828 6.676 3.918 11.113 1.6 16.27-3.118 5.916-4.717 8.874-3.158 15.51-6.316 7.396-2.319 8.115-6.276 7.396-14.112-.76-7.875-5.157-11.793-14.791-12.592zM64.121 79.912c-9.554 0-8.795 8.674-3.678 20.467 2.959 6.276-2.198 20.428 7.356 22.786 9.554 2.319 14.671-11.793 13.232-22.026-2.199-14.152-10.274-21.227-16.91-21.227zm75.794-15.631c-10.993 3.918-10.234 16.47-5.836 19.588 5.836 5.477 13.911 5.477 19.788 0 5.117-4.717 5.836-.76 13.911-3.917 8.035-2.359 10.234-14.112 2.199-20.388-4.397-3.158-10.993-3.158-10.993-3.158z" fill="#d85e67" fill-rule="evenodd"/><path clip-path="url(#a)" d="M31.061 87.227c-8.115 5.477-30.301 20.388-16.23 32.14 5.157 4.678 12.552.76 16.23-3.157 4.437-3.119 7.396-7.836 11.833-7.836 11.073 0 19.908-12.552 8.835-22.746-6.636-6.276-15.511-1.559-20.668 1.6z" fill="#d85e67" fill-rule="evenodd"/><path d="M90.625 88.666c-3.638-7.875 1.48-14.95 5.877-17.31 3.637-7.075-.72-19.667-9.515-21.266-8.794-.8-13.951 8.674-16.15 14.191-.72 3.118-2.199 10.234-.72 17.31 3.678 2.358 7.316 6.276 9.515 13.351h2.198c5.877 0 8.795-.76 10.994-2.358-.72-.76-2.199-2.359-2.199-3.918z" fill="#d85e67" fill-rule="evenodd"/><path d="M70.877 64.321c1.44-3.878 4.397-10.154 9.514-12.472-1.439-7.036-8.794-14.871-14.67-9.395-7.356 6.276-5.158 8.595-10.275 13.272-5.156 3.918-13.951 4.717-14.71 14.871 0 10.154 10.313 14.032 20.587 9.355 3.678-1.56 6.596-3.119 8.075-3.878 0-5.477.72-9.394 1.479-11.753zm57.325-17.27c-2.238 3.159-2.238 7.836-.76 10.994 1.48 8.595 17.67 6.276 26.505 2.358 8.834-4.717 11.753-14.91 7.355-20.387-7.355-8.635-13.991.8-17.669 1.559-3.678 1.559-13.232 3.158-15.43 5.476z" fill="#d85e67" fill-rule="evenodd"/><path d="M97.94 44.693c2.2 10.194 12.553 9.434 20.668 7.835 7.396-2.358 16.23-9.434 16.23-20.427 0-10.234-11.073-11.034-15.47-8.675-3.718 1.599-4.438 5.516-10.354 7.115-8.115 3.119-11.833 9.435-11.073 14.152z" fill="#d85e67" fill-rule="evenodd"/><path clip-path="url(#a)" d="M153.787 28.263c.72-7.076-11.034-27.503-22.067-24.345-11.033 3.158-9.554 12.552-.72 20.427 6.597 5.477 6.597 11.793 9.555 13.352 4.397 2.359 12.512 3.118 13.232-9.434z" fill="#d85e67" fill-rule="evenodd"/><path d="M170.097 79.352c.76 2.319 2.958 4.637 2.958 4.637z" fill="#d85e67" fill-rule="evenodd"/><path d="M101.738 45.532c-3.677-7.075 5.157-11.832 10.314-13.391 4.397-1.6 11.753-11.074 16.87-5.517-5.877-2.399-8.795 3.917-13.192 6.316-2.239 1.56-5.157 1.56-7.356 3.158-2.198 1.56-3.677 3.918-5.157 6.316zm33.1-40.055c-2.958 0-6.636 1.599-7.395 4.757-1.48 2.358 0 4.717.76 7.115 1.478 1.56 2.958 3.918 4.397 5.517 2.238 2.359 3.717 4.717 5.916 7.076.72-5.517-4.437-8.675-7.355-12.593-2.24-2.398-2.959-8.714 1.439-10.273zm-5.157 50.929c0-3.118 0-7.076 2.2-8.635 2.917-2.359 5.836-1.559 8.754-2.359 2.958 0 5.157-1.559 7.315-3.158 3.678-2.358 6.596-4.717 9.515-.76-2.919-2.358-5.837.76-8.036 3.119-2.918 3.958-5.836 3.958-9.514 3.958-2.918 0-5.117 1.559-7.315 2.358-.72.76-3.678 4.717-2.919 4.717zm-37.537 0c-3.678-4.717-11.073-3.118-14.031.8-5.197 5.476-5.957 15.67-5.197 22.706.76-7.836 6.676-28.223 18.509-23.506zm-.879 27.584c0-3.159 2.958-7.916 5.916-9.475 2.239-1.6 5.917-.8 8.875-1.6 3.677 0 5.916-3.157 8.834-4.756 4.438-1.6 8.155 0 11.074 3.957-6.636-6.356-13.272 3.958-19.908 3.958-5.917 0-9.594.8-13.312 5.557zM70.078 43.134c-8.835 1.599-7.356 11.033-14.712 14.99-5.916 3.918-15.51 7.876-11.792 16.51-.76-7.874 11.033-10.233 14.71-13.351 3.718-3.158 5.198-7.116 6.637-11.033.76-2.359 2.958-5.517 5.157-6.317zM62.602 83.03c-6.596 2.398-3.638 7.915-1.44 13.472 1.44 3.158 2.2 4.717 2.92 7.915v7.875c0-2.359 1.478-5.517 1.478-7.875 0-3.198-.76-6.356-.76-9.515-1.438-5.516-1.438-9.474 4.398-10.273-1.44-2.399-4.397-2.399-6.596-2.399z" fill="#eaaeaa" fill-rule="evenodd"/><path clip-path="url(#a)" d="M14.111 116.05c-6.636-8.555 6.636-18.709 12.513-22.627 5.876-3.917 21.307-14.071 24.985-3.118-5.877-7.035-18.39 2.359-24.266 6.236-5.156 3.119-16.19 12.513-13.232 19.509z" fill="#eaaeaa" fill-rule="evenodd"/><path d="M56.766 119.288c-3.678-3.118-6.636-9.395-12.513-7.796-2.198.76-4.397 3.119-5.876 4.678-1.48 3.917-1.48 11.712.76 14.071 0-3.918-1.48-8.595 2.198-11.713 2.199-2.358 7.355-2.358 10.274 0 2.198 2.319 3.677 5.477 6.636 7.795 3.637 2.359 8.794 3.159 8.794 8.595.72-3.118-1.479-7.036-3.677-10.154-2.2-1.559-5.117-2.358-6.596-4.677zm16.31 18.828c-1.48-3.118-1.48-9.354 1.479-11.713 2.198-2.358 6.596-1.559 9.514-.76 3.678.76 6.596.76 10.274 0 4.397-.799 10.234-1.598 13.152 2.32-3.638-.76-7.316-1.56-10.954 0-3.677.799-6.596 1.559-10.273 1.559-4.398 0-11.713-3.878-13.192 2.358zm11.753-31.421c-1.48-6.196 3.677-8.554 8.794-7.755 2.918 0 5.877 1.56 8.795 2.319 4.397.8 8.075 0 12.432-.76-2.918 0-5.117 2.319-7.315 3.118-2.918 1.56-5.117.76-8.795 0-2.918 0-13.192-2.358-13.911 2.319zm36.737-11.033c1.48-4.717 9.595-4.717 13.272-3.918 5.877 2.359 11.793 6.277 14.711 12.553-6.596-6.276-16.91-14.951-25.744-9.434zm39.736-11.033c-4.397.8-7.355 6.356-6.596 10.273.72 3.159 2.199 6.317 2.918 8.715 1.48 4.717 0 9.474 0 13.392.76-3.158 2.24-6.316 2.24-10.234 0-3.158-1.48-6.316-1.48-9.474-.76-3.158-.76-9.514 2.918-11.073zm-44.252 44.013c-.76-6.316 5.876-11.073 10.992-7.915 4.438 3.158 9.555 8.715 16.15 7.116-6.595 2.358-10.273 0-16.15-3.159-3.637-2.358-8.075-2.358-10.993 1.6zm22.066-62.002c-8.115 4.717-7.356 16.43 2.198 17.989-2.918-1.56-5.157-4.677-5.157-8.595-.72-3.918 1.48-7.036 3.718-9.394zm33.06-10.034c2.238-3.158 5.956-3.158 9.634-2.359 5.197.8 6.676 6.276 7.395 10.953-2.198-3.917-3.677-8.594-8.874-9.394-2.958-.76-5.917 0-8.155.8zm2.878 29.782c3.718-5.477 19.308-9.435 24.465-3.918-3.678-1.559-18.509-.8-24.465 3.918zm-1.439 40.615c3.718-2.319 3.718-8.555 5.956-12.472.76-1.56 2.958-2.319 4.437-3.119 3.718 0 5.197.8 8.156 2.359-2.959-.8-8.156 0-10.354 2.319-.76 1.559-1.48 3.917-2.239 5.476-1.479 1.56-2.958 4.677-5.197 5.437z" fill="#eaaeaa" fill-rule="evenodd"/><path d="M112.612 87.787c6.596-3.158 16.15-10.234 16.15-12.593.72 4.718-4.397 9.435-12.472 14.911-7.356 6.277-19.109 4.718-22.067 0 2.958 2.359 11.753.8 18.389-2.318zm13.392 19.708c2.918 0 5.117 4.717 5.836 7.076 1.48 3.118 3.678 5.476 7.316 6.276 6.596 2.318 15.35-6.276 10.993-13.352 0 3.158-.76 4.717-2.918 6.276-2.199 3.158-5.877 3.918-8.075 1.56-2.919-2.36-4.358-6.277-8.035-7.836-2.2-.8-4.398 0-6.596 0zm44.093-17.27c4.437 5.517 5.916 16.55 3.718 27.544-1.52 10.993-11.913 10.233-14.911 7.075 2.998 1.56 11.912-2.358 12.672-9.434.72-6.276 2.239-19.668-1.48-25.185zm-13.272 48.611c2.958 4.717 7.395 7.835 11.793 5.517 5.157-3.159 7.355-7.076 11.793-8.635 3.677-.8 8.794-1.56 12.472-3.158 2.958-2.319 3.678-7.036 2.239-14.112.72 4.717-.76 9.434-7.356 10.994-5.916 1.559-12.512 2.358-14.75 6.276-2.2 3.118-9.555 10.194-16.191 3.118zm19.748-45.573c.76 3.159 1.48 7.836 1.48 10.994v3.877h5.196c.72-.76.72-3.118 1.479-5.476.72-2.319 2.199-3.118 5.157-3.918 2.239 0 4.437 0 6.676-1.559 2.918-1.559 3.678-4.677 4.397-7.835-.72 2.358-2.198 3.917-5.157 5.517-2.958.759-5.157 0-8.115.759-2.958.8-3.718 1.56-7.395 0-2.239-1.559-5.197-3.118-6.676-5.477zm-4.277-13.351c1.479 2.318 1.479 1.559 3.717 0 1.48-1.56 3.718-2.359 6.676-3.119 1.48 0 3.718 0 5.197-1.599 2.199-.76 1.48-4.677 1.48-7.035-.76 1.599-.76 3.917-2.24 4.717-2.958 2.318-3.717-.8-5.196-3.118-.72-2.359-2.958-5.477-5.197-6.276-.72-.76-2.958-1.56-3.678-2.359 2.958 3.158 2.958 14.87-1.519 16.43z" fill="#ca1442" fill-rule="evenodd"/><path d="M145.712 84.829c2.958 1.559 6.676-4.678 9.634-5.477 2.958-1.56 6.636-.8 9.594-1.56 2.958 0 5.197-.799 6.636-3.917 1.48-3.158 1.48-8.635-1.44-10.993 2.2 7.076 0 11.753-6.675 10.993-4.437 0-6.636-.8-9.594 1.56-2.958 2.358-3.718 6.275-6.676 7.835zm-7.995-23.706c5.156 0 11.792-1.52 16.19-4.637 1.479-1.56 2.958-2.359 4.437-3.918 1.44-3.078 1.44-5.437 1.44-8.555-.72 5.477-3.679 7.796-8.796 10.114a954.13 954.13 0 0 0-6.635 4.677c-2.959 1.56-2.959 1.56-6.636 2.319zm5.916-50.929c3.598 5.516 7.196 9.474 7.915 17.35 0 2.358 0 5.516-2.159 7.075-1.439 2.359-5.756 2.359-7.195 0 3.598 1.599 6.476-6.276 5.756-9.434 0-3.158-2.158-11.034-4.317-14.192zM98.62 59.764c.76 2.318.76 6.236 0 9.394 2.239 0 4.478.76 6.716 0 2.199-.8 3.678-3.158 5.917-4.717.76-.76 5.916-1.56 5.916-3.118 0-.8-5.157-3.158-5.916-2.359 1.479 1.56-2.959 4.717-4.438 5.477-2.998 0-6.676-3.918-8.195-5.477zM79.512 44.773c.76 1.559.76 3.158 1.519 4.717 4.437-.8 8.875-1.559 11.833 1.56.72.799 2.198 4.716 2.958 4.716.72 0 1.479-.76 2.199-.76 1.479-1.598 2.958-1.598 4.437-2.358-5.157-1.599-6.636-7.076-5.917-12.592.76-2.359 2.24-4.717.76-7.076-2.239-1.599-5.916-1.599-8.155-1.599 2.239 2.399 4.437 8.675 2.239 11.833-2.959 3.917-7.396 1.559-11.114 1.559zm15.43 17.229c.72 4.718 0 6.317-2.158 9.435-2.878 2.358-4.358 4.717-5.797 8.634v4.718c0 1.599 1.44 3.957.72 5.516-.72 3.118-3.598 2.359-5.797 1.56 2.199 0 2.919-2.36 2.919-4.718-1.44-3.917-2.919-6.276-1.44-10.194 1.44-3.158 5.037-4.717 7.236-7.075 2.159-1.56 3.598-4.717 4.317-7.076zM47.211 77.673c2.959 3.118 9.635 1.559 13.312 0 2.959-.8 7.356-2.359 7.356-6.276.76-4.717 1.479-10.194 4.437-14.112 1.48-3.158 6.636-5.476 5.197-9.434 0 3.158-1.48 3.958-4.437 5.517-2.958 2.358-5.197 4.717-7.396 7.835-3.678 7.835-6.636 17.27-16.23 17.27zM16.27 116.97c2.239 3.117 7.396 3.117 11.113-.8 4.438-3.918 7.396-7.036 11.074-9.395 4.437-1.559 10.353 0 14.071-5.476 2.918-4.718.72-7.876.72-7.876.72 3.158-2.199 5.517-6.636 7.876-4.438 2.318-8.875.76-13.312 5.476-3.718 4.717-8.875 14.871-17.03 10.194zm24.465 16.51c2.199 4.716 12.433 11.752 18.989 10.193 6.596-.76 7.315-6.276 8.035-7.835-1.44 2.358-7.276 7.075-13.112 4.717-5.877-1.56-12.433-4.717-13.912-7.076zm35.259 7.634c2.958 3.119 16.19 6.996 24.305 3.918 8.075-3.118 12.473-10.913 10.274-14.83-.72 3.917-4.397 10.153-14.711 10.912-10.274 1.56-16.19 2.359-19.868 0zm41.735-8.434c1.479 4.717 10.353 10.993 16.27 11.792 5.916.76 11.833 0 14.071-2.358 2.199-2.359 2.918-9.434 1.44-11.033.759 3.957-.72 8.674-6.637 10.233-5.156 2.359-22.186-3.917-25.144-8.634zm-6.556-20.388c9.554-3.158 10.273-6.276 9.554-9.434 2.918 9.434-8.835 13.352-16.91 14.91-8.835 1.56-16.15-3.917-18.389-7.835 3.678 2.359 13.992 5.477 25.745 2.359zM73.076 87.827c5.117 3.957 7.315 15.71 5.117 23.546-1.44 7.835-5.117 9.394-8.795 9.394-3.678-.76-5.157-3.118-5.157-4.677 2.239 2.358 5.157 2.358 8.075 0 2.958-1.56 8.075-17.27.76-28.263zm29.382-39.857c2.199 4.718 13.192 5.478 21.987-1.558 8.794-6.276 9.514-15.71 6.596-18.869 1.479 4.717-2.919 14.152-8.036 15.71-5.156 2.36-11.752 7.876-20.547 5.517z" fill="#ca1442" fill-rule="evenodd"/><path d="M87.747 32.26c-2.918 0-5.877 2.359-7.356 3.918-1.479 1.56-1.479 3.118-2.958 4.637 2.239-2.318 8.115-7.755 10.314-8.555z" fill="#eaaeaa" fill-rule="evenodd"/><path d="M120.127 52.568c-1.439 1.56-1.439 3.878-1.439 6.156-2.958-3.078-7.355-2.278-10.314-4.597 2.959-1.559 6.636 0 9.555-1.559zm13.832-14.151c1.479 0 2.958-.8 3.678.8.76 2.358-.72 2.358-1.44 3.917 2.2 0 7.316-1.56 9.515-3.158-2.199-1.56-4.398-1.56-5.877-3.918-2.198-1.599-3.638-3.957-4.397-5.556zm-3.638 23.585c-.72 3.159-2.878 4.758-5.796 3.159 3.637.799 4.357 4.717 5.796 7.075 2.199-3.118 3.638-7.075 6.516-7.835zm4.517 22.707c-1.479.76-.72 2.318 0 3.877-2.198-1.559-7.395-.76-8.874.76 0-1.52 1.479-3.078 2.958-4.637.76-.8 1.479-3.118 2.239-3.918zm12.392 3.078c2.24 0 2.999 3.957 1.48 4.757-1.48 1.559-2.998.76-4.517.76 2.278.799 3.757 3.158 5.276 4.757 1.48.8 2.999 3.158 4.478 3.917-.72-3.917-2.239-7.076-1.48-11.033 0-1.56 0-4.717 1.48-6.316zm19.03-6.077c1.518.8 3.037 1.56 3.797 2.359.76.76 1.519 2.319 2.279 2.319 0-.76.72-2.319.72-3.118 0-.76-2.24-3.119-3-3.918zm-12.393 32.021c0 2.359-2.239 3.918-2.958 6.236-1.52.8-3.758 2.359-3.758 3.918 1.519-2.359 6.716-3.118 5.956.76-.72 1.559-2.198 2.358-2.198 3.917-.76.76.72 2.319 1.479 3.078 1.479-.76 1.479-3.078 2.238-4.637.72-.8 1.48-1.559 2.199-2.359-2.958-2.318-2.199-6.995-2.199-10.113zm-41.255 4.717c-2.879 1.6-.72 3.198.72 4.797-1.44.76-.72 3.958-.72 5.517-.72-1.56-2.159-3.158-3.598-4.757-1.48-.76-3.638-1.56-5.117-3.158zm7.515-6.396c1.48 0 2.958-1.559 4.438 0 1.439 1.6 0 3.158-1.48 3.918 1.48.8 8.076 3.917 8.795 2.358 0-.76-2.918-5.476-3.638-7.035-.76-1.56-2.958-3.159-5.157-3.159zM92.904 93.423c-.72 0-2.199 0-2.199.76.76 1.479 4.397 2.199 5.836 1.479zm23.386.64c-1.44 0-5.877 1.599-7.356 3.198 2.239 0 5.157 0 7.356-.8zm-35.899.8c0 1.599.72 3.957 1.44 4.717 1.439-1.56 2.158-4.717 5.036-5.517zm-.879 21.187c1.519-2.279 3.798-2.279 6.796-1.52-.72-1.558-2.239-2.318-2.998-3.078-.76-1.559-.76-3.078-1.52-3.877zm.799 0c-1.439 1.559.72 4.677 2.159 5.476-2.159-.8-5.037.76-6.476 0zM67.2 123.965c1.438.8 1.438 3.158 2.838 3.917.72-1.559 1.439-3.118 2.118-4.717zm-12.633-22.027c2.199-.76 5.117-.76 6.556 2.359.72-1.56-2.159-8.635-3.638-9.434-.72-.8 0-.8 0-.8zM65.68 79.152c1.48 0 2.199.76 4.398.76-.72-1.52-2.2-2.28-.72-3.838zm-11.833 25.145c-1.479 2.398-.72 5.556.72 7.115-1.44-.76-2.199-1.559-3.678-2.358-1.439 0-2.918 0-3.678-.8z" fill="#a10535" fill-rule="evenodd"/><path d="M42.734 69.918c1.52-4.718 5.197-7.836 9.674-9.435 4.438-2.358 7.396-4.717 8.875-9.434-.72 3.958-4.437 7.875-7.396 9.434-2.238 1.6-9.634 4.717-11.153 9.435zm43.574-16.47c-5.197.8-11.873 4.677-12.633 14.71 1.52-6.156 5.957-12.352 12.633-14.71zm6.476 25.904c1.479-3.238 4.437-5.637 7.355-5.637 2.959-.84 5.157 0 7.356-.84-2.199.84-5.117.84-7.356 1.64-2.198 0-6.596 3.238-7.355 4.837zm20.547-9.434c2.199-2.439 5.877-3.278 8.795-1.64-2.199-.799-8.035 0-8.795 1.64zm16.151-18.229c.76-3.158 2.998-5.517 7.475-5.517 4.477-.8 6.676-1.599 6.676-1.599-2.199 1.599-5.956 1.599-8.155 2.399-2.239.799-5.237 2.358-5.996 4.717zm5.916 18.229c-1.4 2.358-3.518 7.835 0 11.753-.68-1.56-1.4-6.237 0-11.753zm-34.379-29.103c1.439-3.917 4.317-6.316 7.915-7.115-2.159.8-7.196 5.556-7.915 7.115zm27.903-32.94c-2.958 2.359-2.958 6.236 0 10.874-.72-2.319-2.958-6.197 0-10.874zm46.132 46.292c3.718-1.599 8.875-.8 10.314 1.6-1.44-.8-6.596-2.4-10.314-1.6zm7.356 27.503c5.276-1.599 11.992-3.198 16.47 0-2.24-1.599-11.194-1.599-16.47 0zm-27.024 11.713c0 2.359.68 5.557 2.079 9.475 0 0-.68-2.359-2.08-4.717-1.438-3.958-.719-7.116 1.4-10.314-.72 1.599-1.4 3.957-1.4 5.556zm-27.344-1.479c2.999-.8 10.434 1.52 12.633 3.038-2.199-.76-8.915-3.038-12.633-3.038zm-43.253 10.954c1.479-4.717 5.117-4.717 8.035-4.717 2.918.799 5.796 2.358 5.796 2.358-3.638-.76-7.995-2.358-10.154-.76-2.198 1.56-2.918 1.56-3.677 3.119zM72.156 131.08c1.52-5.516 4.478-7.915 11.193-6.316-2.238 0-8.954 0-11.193 6.317zm45.013-7.035c2.239-4.717 8.115-4.717 11.753-2.359-2.199-.76-8.795-2.358-11.753 2.359zm63.961-11.193c-1.519.8-2.278 3.198-2.278 5.596-.76 2.399-2.279 5.597-2.279 5.597 2.279-3.198 2.279-3.998 3.038-6.396.76-2.399.76-3.998 2.239-4.797zM60.563 83.99c-2.238 2.358-2.238 6.275.72 10.952-.72-3.118-2.199-9.354-.72-10.953zm-22.866 3.957c-5.157 1.559-10.354 4.717-11.113 5.476 5.197-4.717 15.55-9.434 19.988-7.835-.72 0-4.438.76-8.875 2.359zm.08 31.94c.76-4.597 4.437-8.475 8.835-8.475 5.157.8 5.876 3.878 5.876 3.878-2.198-2.318-6.596-3.078-9.554-1.559-2.199 2.319-4.397 3.878-5.157 6.156z" fill="#fdf7f6" fill-rule="evenodd"/><path clip-path="url(#a)" d="M69.398 128.602c2.199 6.316.76 11.833-3.678 15.75-5.157 4.718-19.188 2.36-25.824-7.875-7.396-10.993-6.636-25.184 2.958-27.543 3.678-.8 6.636 0 8.835.8 5.916 3.917 6.636 7.875 8.874 11.033 2.919 2.358 8.115 3.917 8.835 7.835" fill="none" stroke="#1a171b" stroke-width=".8" stroke-linecap="round" stroke-linejoin="round"/><path d="M128.202 68.279c8.075 9.394-.76 19.588-11.833 25.064-10.313 6.237-22.866 3.119-25.784-4.717-3.718-7.835 1.48-14.87 5.877-17.23 3.717-2.318 9.594 0 14.031-3.877 3.678-4.717 13.992-5.517 17.71.76m18.987 57.245c-6.595-2.319-7.315.8-14.67-4.677-7.316-5.437-10.994-6.236-16.11-.76-5.157 5.437-1.48 14.791 4.397 21.027 6.596 5.437 13.192 6.996 21.986 5.437 11.713-.76 11.713-18.668 4.398-21.027" fill="none" stroke="#1a171b" stroke-width=".8" stroke-linecap="round" stroke-linejoin="round"/><path clip-path="url(#a)" d="M70.118 130.161c-1.48 8.675 7.355 18.909 22.786 18.15 16.19-.8 21.307-11.834 20.587-17.35-1.479-4.757-4.397-8.675-11.033-9.475-7.356-1.599-10.274 2.359-19.828.8-9.554-1.6-11.753 2.358-12.512 7.875" fill="none" stroke="#1a171b" stroke-width=".8" stroke-linecap="round" stroke-linejoin="round"/><path d="M81.75 101.139c-2.238 7.075 5.877 19.628 18.39 18.868 12.472 0 23.505-7.075 22.785-14.95-1.479-7.836-8.075-8.635-13.231-7.036-11.034 2.358-21.348-8.675-27.944 3.118" fill="none" stroke="#1a171b" stroke-width=".8" stroke-linecap="round" stroke-linejoin="round"/><path d="M143.673 93.463c-9.554-7.075-18.389-6.276-24.265-.76-2.919 3.119-3.678 4.678-3.678 4.678l.76.8c2.918.799 5.876 2.358 6.595 7.075 0 1.56 0 2.319-.72 3.918 5.877-.8 8.796 7.835 10.275 10.194 1.479 1.559 11.033 9.394 18.388 0 7.316-10.194 1.44-18.829-7.355-25.905" fill="none" stroke="#1a171b" stroke-width=".8" stroke-linecap="round" stroke-linejoin="round"/><path d="M151.548 94.942c.76 7.036 4.437 10.954 3.678 14.871 0 4.678-3.678 16.39 7.355 19.509 10.314 2.318 14.712-9.395 14.712-21.867.72-13.272-6.596-25.784-14.712-25.784-7.355 0-11.033 6.276-11.033 13.271" fill="none" stroke="#1a171b" stroke-width=".8" stroke-linecap="round" stroke-linejoin="round"/><path clip-path="url(#a)" d="M183.369 109.014c-2.199 0-3.678 0-5.917.8-.72 11.792-4.437 21.227-14.75 19.628-2.959-.76-5.197-2.359-5.917-3.918l-.76.8c-5.916 7.835-2.958 14.11 2.959 18.828 6.676 3.918 11.113 1.6 16.27-3.118 5.916-4.717 8.874-3.158 15.51-6.316 7.396-2.319 8.115-6.276 7.396-14.112-.76-7.875-5.157-11.793-14.791-12.592" fill="none" stroke="#1a171b" stroke-width=".8" stroke-linecap="round" stroke-linejoin="round"/><path d="M64.121 79.912c-9.554 0-8.795 8.674-3.678 20.467 2.959 6.276-2.198 20.428 7.356 22.786 9.554 2.319 14.671-11.793 13.232-22.026-2.199-14.152-10.274-21.227-16.91-21.227m75.794-15.631c-10.993 3.918-10.234 16.47-5.836 19.588 5.836 5.477 13.911 5.477 19.788 0 5.117-4.717 5.836-.76 13.911-3.917 8.035-2.359 10.234-14.112 2.199-20.388-4.397-3.158-10.993-3.158-10.993-3.158" fill="none" stroke="#1a171b" stroke-width=".8" stroke-linecap="round" stroke-linejoin="round"/><path clip-path="url(#a)" d="M31.061 87.227c-8.115 5.477-30.301 20.388-16.23 32.14 5.157 4.678 12.552.76 16.23-3.157 4.437-3.119 7.396-7.836 11.833-7.836 11.073 0 19.908-12.552 8.835-22.746-6.636-6.276-15.511-1.559-20.668 1.6" fill="none" stroke="#1a171b" stroke-width=".8" stroke-linecap="round" stroke-linejoin="round"/><path d="M90.625 88.666c-3.638-7.875 1.48-14.95 5.877-17.31 3.637-7.075-.72-19.667-9.515-21.266-8.794-.8-13.951 8.674-16.15 14.191-.72 3.118-2.199 10.234-.72 17.31 3.678 2.358 7.316 6.276 9.515 13.351h2.198c5.877 0 8.795-.76 10.994-2.358-.72-.76-2.199-2.359-2.199-3.918" fill="none" stroke="#1a171b" stroke-width=".8" stroke-linecap="round" stroke-linejoin="round"/><path d="M70.877 64.321c1.44-3.878 4.397-10.154 9.514-12.472-1.439-7.036-8.794-14.871-14.67-9.395-7.356 6.276-5.158 8.595-10.275 13.272-5.156 3.918-13.951 4.717-14.71 14.871 0 10.154 10.313 14.032 20.587 9.355 3.678-1.56 6.596-3.119 8.075-3.878 0-5.477.72-9.394 1.479-11.753m26.304-6.956c5.877-6.316 21.307-.76 23.506 5.517m7.515-15.831c-2.238 3.159-2.238 7.836-.76 10.994 1.48 8.595 17.67 6.276 26.505 2.358 8.834-4.717 11.753-14.91 7.355-20.387-7.355-8.635-13.991.8-17.669 1.559-3.678 1.559-13.232 3.158-15.43 5.476" fill="none" stroke="#1a171b" stroke-width=".8" stroke-linecap="round" stroke-linejoin="round"/><path d="M97.94 44.693c2.2 10.194 12.553 9.434 20.668 7.835 7.396-2.358 16.23-9.434 16.23-20.427 0-10.234-11.073-11.034-15.47-8.675-3.718 1.599-4.438 5.516-10.354 7.115-8.115 3.119-11.833 9.435-11.073 14.152" fill="none" stroke="#1a171b" stroke-width=".8" stroke-linecap="round" stroke-linejoin="round"/><path clip-path="url(#a)" d="M171.536 86.308c6.676-9.395 24.385-12.553 29.542-5.477 5.157 6.276 3.718 11.753 0 17.23-2.958 4.717-11.073 3.118-13.272 5.476-1.479 2.359-2.238 5.477-2.238 5.477" fill="none" stroke="#1a171b" stroke-width=".8" stroke-linecap="round" stroke-linejoin="round"/><path d="M168.658 58.884c1.479-7.875 13.312-11.033 19.228-3.917 4.437 4.717 5.157 18.069 2.958 21.986" fill="none" stroke="#1a171b" stroke-width=".8" stroke-linecap="round" stroke-linejoin="round"/><path clip-path="url(#a)" d="M153.787 28.263c.72-7.076-11.034-27.503-22.067-24.345-11.033 3.158-9.554 12.552-.72 20.427 6.597 5.477 6.597 11.793 9.555 13.352 4.397 2.359 12.512 3.118 13.232-9.434" fill="none" stroke="#1a171b" stroke-width=".8" stroke-linecap="round" stroke-linejoin="round"/><path d="M75.874 43.134c-.76-11.793 18.509-19.668 25.145-6.276m69.078 42.494c.76 2.319 2.958 4.637 2.958 4.637M45.133 79.912c-.88.879-.88 1.759-.88 1.759" fill="none" stroke="#1a171b" stroke-width=".8" stroke-linecap="round" stroke-linejoin="round"/></svg>