<svg xmlns="http://www.w3.org/2000/svg" version="1.0" viewBox="0 0 159.798 365.518"><defs><clipPath clipPathUnits="userSpaceOnUse" id="a"><path d="M-.16.8h159.583v365.778H-.16z"/></clipPath></defs><path d="M101.978 46.812v8.714C99.66 72.316 82.71 84.79 64.001 83.51c-9.354 0-18.668-4.957-23.945-11.792-4.078-4.997-5.837-10.594-5.837-16.19V49.93c-.6 1.88-1.159 3.758-1.159 5.597-1.2 7.476 1.16 14.312 5.836 19.908 5.237 7.476 14.592 11.833 25.105 12.433 19.868 1.239 37.378-11.793 39.736-28.583.56-4.357 0-8.115-1.759-12.472z" fill="#e4e5e6" fill-rule="evenodd"/><path d="M32.34 58.684v4.957c0 6.237 1.76 9.355 5.877 14.312 5.836 7.475 15.15 11.233 25.664 11.833 19.868 1.239 37.378-12.433 39.696-25.505v-8.115 3.118c-2.318 16.83-19.828 29.902-39.696 28.663-10.513-.64-19.828-4.997-25.105-12.473-4.077-4.957-6.436-10.593-6.436-16.79z" fill="#fff" fill-rule="evenodd"/><path clip-path="url(#a)" d="M63.921 62.442c-9.354-.6-18.668-4.957-23.945-12.432-4.677-5.637-6.436-12.473-5.837-19.948C36.498 13.232 53.408.76 72.116 2.039c9.914 0 18.669 4.957 23.946 11.833 4.677 5.596 6.396 13.072 5.836 19.908-2.358 16.83-19.268 29.9-37.977 28.662z" fill="#f9f9f9" fill-rule="evenodd"/><path d="M94.303 15.63c-2.878-3.757-6.996-6.915-11.633-8.794 2.318 1.879 4.637 3.758 6.396 5.636 4.078 5.637 5.836 11.913 4.677 18.15-1.759 15.63-16.91 27.543-33.86 26.303-4.077 0-7.595-1.279-10.513-2.518 4.677 3.118 9.954 4.997 15.79 5.637 16.91.6 32.061-10.634 34.42-26.304.56-6.237-1.16-13.113-5.277-18.11z" fill="#f2f2f2" fill-rule="evenodd"/><path d="M101.978 31.141v2.519C99.66 50.57 82.71 63.68 64.001 62.442c-9.354-.64-18.708-4.997-23.945-12.512-4.118-4.398-5.877-10.634-5.877-16.91v22.546c0 5.637 1.76 11.273 5.877 16.27C45.293 78.712 54.646 83.71 64 83.71c18.709 1.24 35.659-11.273 37.977-28.143V31.141z" fill="#ececed" fill-rule="evenodd"/><path d="m134.119 270.636.56-.6V132.84c-4.078 16.87-39.177 35.579-70.758 35.579-31.58 0-57.285-21.227-63.161-29.942v132.16c0 26.824 45.652 48.01 62.602 48.01 23.385 0 67.239-18.068 70.757-48.01z" fill="#dbebf3" fill-rule="evenodd"/><path d="M64.56 168.418v150.229c23.986-.6 66.04-18.669 69.559-48.011l.56-.6V132.84c-4.078 16.23-38.537 34.94-70.118 35.579z" fill="#c1deec" fill-rule="evenodd"/><path d="M134.678 133.48c-.56-51.09-18.109-59.805-30.98-74.756v5.637c-2.32 13.072-19.869 26.784-39.777 25.505-10.513-.6-19.868-4.358-25.704-11.833-4.118-4.957-5.877-8.075-5.877-14.312v-4.997C18.91 74.315.76 83.03.76 138.476c5.876 9.314 31.58 29.862 63.161 29.862 31.581 0 66.68-18.669 70.757-35.499v.64zM63.362 318.687C46.412 318.687.76 297.5.76 270.676v46.772c0 26.783 38.616 47.97 62.602 47.97 23.385 0 67.239-18.069 70.757-47.97.56-1.88.56-3.758.56-5.637v-41.775l-.56.64c-3.518 29.942-47.372 48.01-70.757 48.01z" fill="#f2f2f2" fill-rule="evenodd"/><path d="M134.678 133.48c-.56-51.09-18.069-59.805-30.94-74.756v5.637c-2.32 12.432-18.07 24.905-36.779 25.505-2.918 18.708-3.517 57.325-2.918 78.472 31.541 0 66.56-18.669 70.637-35.499v.64zM63.921 318.687v46.732c23.986 0 66.68-18.67 70.198-47.971.56-1.88.56-3.758.56-5.637v-41.775l-.56.64c-3.518 29.302-46.212 48.01-70.198 48.01z" fill="#ececed" fill-rule="evenodd"/><path d="M4.277 133.56c0-17.43 5.277-39.257 11.114-48.012 3.518-5.596 8.195-11.233 11.113-14.351 1.16-1.839 2.359-3.118 2.918.64 2.359 7.475 11.713 19.348 27.464 21.187C46.972 94.902 32.34 82.43 26.504 82.43c-6.436 0-19.268 21.227-22.227 51.13zm56.766-69.799c-16.31-1.918-20.388-8.834-23.266-13.232-1.2-2.518-1.2 4.398-.6 8.835 1.16-1.919 12.233 6.876 23.866 4.397z" fill="#fff" fill-rule="evenodd"/><path d="M100.14 44.973v10.593c0 3.118-6.397 26.105-36.698 26.105 11.672-2.479 23.905-8.076 23.905-14.272 0-6.236-10.474-3.118-10.474-3.118 9.315-3.758 19.189-10.594 23.266-19.308zm8.234 22.427c7.636 6.235 14.072 15.59 18.19 28.702 4.676 12.472 5.836 29.342 6.435 34.939.56 3.757-16.39 24.944-51.568 32.42 11.713-4.357 36.897-14.311 41.614-34.3 4.678-19.947-5.876-41.774-21.107-42.414-15.79 0-20.507 4.997-27.543 4.997 14.071-4.997 22.266-9.994 26.384-16.23 4.077-6.236 5.277-9.994 7.595-8.115zm23.466 219.906c1.72 13.112 1.16 29.342-1.2 36.218-2.318 6.236-18.708 30.581-56.725 37.417 19.309-6.836 44.453-24.305 50.89-38.656 6.435-13.752 7.035-34.98 7.035-34.98z" fill="#dcddde" fill-rule="evenodd"/><path d="M128.322 261.202c1.16-17.47 2.319-83.59 3.518-108.535 0 0 1.72 116.61 0 120.368-9.354 24.944-43.853 39.296-57.925 41.135 11.113-4.358 52.049-22.427 54.407-52.968z" fill="#a2cee3" fill-rule="evenodd"/><path d="M3.678 153.987c-.6-4.997 2.358-3.718 4.117-1.88 11.114 8.756 34.54 21.828 53.248 19.989-14.031 3.717-40.975-8.115-48.01-9.994-7.596-1.88-5.837 4.357-6.437 30.541-.56 26.224-1.759 74.835-1.759 74.835-1.759-9.354-.56-91.025-1.16-102.898-.599-4.357 0-7.475 0-10.593z" fill="#f3f8fb" fill-rule="evenodd"/><path d="M3.278 318.647c-.6-13.712 0-21.787 0-27.423 0-6.237 5.797 9.993 31.381 21.227-12.193-2.519-21.507-9.994-24.985-11.873-3.478-1.839-6.396 10.593-6.396 18.069z" fill="#fff" fill-rule="evenodd"/><path d="M66.24 357.184v-33.1c0-4.997 9.354-3.119 22.146-6.876-5.796 4.397-17.469 4.397-18.628 9.994-1.16 6.276-3.518 29.982-3.518 29.982z" fill="#dcddde" fill-rule="evenodd"/><path d="M101.978 163.94c-10.513 4.398-25.744 6.277-32.78 6.876-2.958.64-2.359 2.519-2.359 13.752v55.566c.6-14.35 1.76-48.05 3.518-57.445 1.76-8.754 1.16-9.354 6.436-10.593 5.877-.64 19.948-4.997 25.185-8.155z" fill="#a2cee3" fill-rule="evenodd"/><path d="M101.978 46.812v4.357s0 0 0 0v4.357C99.66 72.316 82.71 84.79 64.001 83.51c-9.354 0-18.668-4.957-23.945-11.792-4.078-4.997-5.837-10.594-5.837-16.19V49.93c-.6 1.88-1.159 3.758-1.159 5.597-1.2 7.476 1.16 14.312 5.836 19.908 5.237 7.476 14.592 11.833 25.105 12.433 19.868 1.239 37.378-11.793 39.736-28.583.56-4.357 0-8.115-1.759-12.472" fill="none" stroke="#1a171b" stroke-width=".8" stroke-linecap="round" stroke-linejoin="round"/><path d="M32.34 58.684v4.957c0 6.237 1.76 9.355 5.877 14.312 5.836 7.475 15.15 11.233 25.664 11.833 19.868 1.239 37.378-12.433 39.696-25.505v-8.115s0 0 0 0v3.118c-2.318 16.83-19.828 29.902-39.696 28.663-10.513-.64-19.828-4.997-25.105-12.473-4.077-4.957-6.436-10.593-6.436-16.79 0 0 0 0 0 0" fill="none" stroke="#1a171b" stroke-width=".8" stroke-linecap="round" stroke-linejoin="round"/><path clip-path="url(#a)" d="M63.921 62.442c-9.354-.6-18.668-4.957-23.945-12.432-4.677-5.637-6.436-12.473-5.837-19.948 0 0 0 0 0 0C36.498 13.232 53.408.76 72.116 2.039c9.914 0 18.669 4.957 23.946 11.833 4.677 5.596 6.396 13.072 5.836 19.908-2.358 16.83-19.268 29.9-37.977 28.662" fill="none" stroke="#1a171b" stroke-width=".8" stroke-linecap="round" stroke-linejoin="round"/><path d="M101.978 31.141v2.519C99.66 50.57 82.71 63.68 64.001 62.442c-9.354-.64-18.708-4.997-23.945-12.512-4.118-4.398-5.877-10.634-5.877-16.91 0 0 0 0 0 0v22.546c0 5.637 1.76 11.273 5.877 16.27C45.293 78.712 54.646 83.71 64 83.71c18.709 1.24 35.659-11.273 37.977-28.143V51.17s0 0 0 0V31.141m32.142 239.495.56-.6V132.84c-4.078 16.87-39.177 35.579-70.758 35.579-31.58 0-57.285-21.227-63.161-29.942v132.16s0 0 0 0c0 26.824 45.652 48.01 62.602 48.01 23.385 0 67.239-18.068 70.757-48.01" fill="none" stroke="#1a171b" stroke-width=".8" stroke-linecap="round" stroke-linejoin="round"/><path d="M134.678 133.48c-.56-51.09-18.109-59.805-30.98-74.756v5.637c-2.32 13.072-19.869 26.784-39.777 25.505-10.513-.6-19.868-4.358-25.704-11.833-4.118-4.957-5.877-8.075-5.877-14.312v-4.997s0 0 0 0C18.91 74.315.76 83.03.76 138.476c5.876 9.314 31.58 29.862 63.161 29.862 31.581 0 66.68-18.669 70.757-35.499v.64M63.362 318.687C46.412 318.687.76 297.5.76 270.676c0 0 0 0 0 0v46.772s0 0 0 0c0 26.783 38.616 47.97 62.602 47.97 23.385 0 67.239-18.069 70.757-47.97.56-1.88.56-3.758.56-5.637 0 0 0 0 0 0v-41.775l-.56.64c-3.518 29.942-47.372 48.01-70.757 48.01" fill="none" stroke="#1a171b" stroke-width=".8" stroke-linecap="round" stroke-linejoin="round"/><path d="m80.351 250.248-8.315-21.307 4.238-1.679 10.913 13.152c1.04 1.2 1.8 2.159 2.279 2.759-.08-.88-.12-2.16-.2-3.878l-.68-16.83 3.798-1.479 8.315 21.347-2.718 1.04-6.956-17.83.76 20.268-2.56 1-13.231-15.791 7.076 18.189zm17.43-27.863-1.16-3.038 2.599-1 1.16 2.999zm7.115 18.31L98.9 225.223l2.598-1 6.037 15.43zm6.556-2.56-8.275-21.346 2.599-1 8.315 21.347zm6.716-2.598-8.315-21.347 2.639-1 4.717 12.153 3.758-8.714 3.398-1.32-3.678 8.036 10.274 7.195-3.198 1.28-8.195-5.917-1.16 2.479 2.399 6.116z" fill="#7b879d"/></svg>