<svg xmlns="http://www.w3.org/2000/svg" version="1.0" viewBox="0 0 386.721 246.728"><defs><clipPath clipPathUnits="userSpaceOnUse" id="a"><path d="M7.915 4.797h386.246v246.89H7.915z"/></clipPath></defs><path clip-path="url(#a)" d="M12.952 126.963s-9.794 39.536 1.24 79.112c12.232 43.614 63.241 52.368 94.662 37.697 29.782-14.071 54.487-39.136 85.508-76.873 30.782-37.497 71.197-91.545 96.062-105.416 24.705-13.872 50.81-27.104 94.902-31.581 11.593-1.24 7.516-10.194 2.24-15.51-5.318-5.317-14.312-11.234-20.828-7.156-14.671 4.317-65.88 16.35-106.096 42.214 0 0-43.054 28.543-85.268 69.758 0 0-32.22 31.18-39.576 37.497-7.156 6.516-17.55 10.194-21.427 0-3.678-10.194-10.834-37.097-16.51-41.775-5.717-4.517-84.909 12.033-84.909 12.033z" fill="#cd6736" fill-rule="evenodd"/><path clip-path="url(#a)" d="M12.952 126.963s-9.794 39.536 1.24 79.112c12.232 43.614 63.241 52.368 94.662 37.697 29.782-14.071 54.487-39.136 85.508-76.873 30.782-37.497 71.197-91.545 96.062-105.416 24.705-13.872 50.81-27.104 94.902-31.581 11.593-1.24 7.516-10.194 2.24-15.51-5.318-5.317-14.312-11.234-20.828-7.156-14.671 4.317-65.88 16.35-106.096 42.214 0 0-43.054 28.543-85.268 69.758 0 0-32.22 31.18-39.576 37.497-7.156 6.516-17.55 10.194-21.427 0-3.678-10.194-10.834-37.097-16.51-41.775-5.717-4.517-84.909 12.033-84.909 12.033" fill="none" stroke="#343434" stroke-width=".8" stroke-miterlimit="8"/><path d="M97.261 168.218c5.916 11.633 13.872 22.027 26.704 25.904 9.794 3.039 15.95-4.677 23.706-3.677 1.798 15.11-28.783 29.142-39.816 34.259-14.272 6.716-38.977 7.115-54.088 1.24-16.31-6.557-30.621-29.383-28.342-47.132 2.838-23.426 30.381-12.233 45.692-16.07 5.716-1.44 13.072-8.396 19.388-5.717 4.917 1.839 7.356 10.593 9.195 14.471z" fill="#d76a3f" fill-rule="evenodd"/><path d="M99.1 118.448c1.2 9.954-16.95 20.348-40.575 23.386-23.666 2.838-43.854-2.838-45.093-12.832-1.24-10.154 16.95-20.548 40.575-23.386 23.666-3.078 43.854 2.838 45.093 12.832z" fill="#e17950" fill-rule="evenodd"/><path d="M86.308 118.248c.8 6.916-11.833 14.032-28.343 16.07-16.55 2.04-30.422-1.798-31.221-8.754-1.04-6.916 11.633-14.072 28.143-16.11 16.55-2.04 30.421 1.839 31.42 8.794z" fill="#5e2413" fill-rule="evenodd"/><path d="M61.043 115.13c-16.51 2.039-29.182 9.195-28.343 16.15.2.2.2.6.2.84 5.916 2.438 15.07 3.438 25.065 2.239 16.51-2.04 29.142-9.195 28.343-16.15-.2-.2-.2-.6-.2-.84-5.917-2.439-15.071-3.478-25.065-2.239z" fill="#3c180e" fill-rule="evenodd"/><path clip-path="url(#a)" d="M183.929 111.133c1.439 7.115 7.355 21.826 30.82 30.581 26.745-33.26 55.887-69.158 75.675-80.191 24.705-13.872 50.81-27.144 94.902-31.621 11.593-1.2 7.516-10.194 2.24-15.51-5.318-5.278-14.312-11.234-20.828-7.116-14.671 4.277-65.88 16.31-106.096 42.214 0 0-37.537 24.905-76.713 61.643z" fill="#725145" fill-rule="evenodd"/><path clip-path="url(#a)" d="M387.765 14.471c-1.44-1.439-3.278-3.078-5.517-4.517 1.24.84 2.239 1.839 3.038 2.678 5.317 5.277 9.595 14.272-2.238 15.51-44.053 4.478-69.918 17.71-94.823 31.582-19.548 11.033-48.93 46.931-75.434 80.191-5.916-2.278-10.833-4.917-14.711-7.555 4.317 3.478 9.794 6.716 17.15 9.354 26.503-33.22 55.886-69.118 75.434-80.151 24.905-13.872 50.81-27.104 94.862-31.621 11.793-1.2 7.516-10.194 2.239-15.47z" fill="#7e584d" fill-rule="evenodd"/><path d="M371.575 6.876s-1.64-.44-3.038 1c-1.64 1.238 2.238-.4 8.554 5.116 6.117 5.477 12.833 12.233 8.555 12.832-4.477.4-73.235 3.478-111.572 28.343-33.66 22.027-85.508 66.48-85.508 66.48s4.317 8.155 12.072 12.432c0 0 57.526-55.046 76.274-68.518 12.233-8.755 25.904-18.949 78.353-31.181 28.343-6.716 35.498-4.917 36.098-7.955.6-3.278-4.078-8.355-7.556-11.234-3.438-2.838-7.755-5.716-12.232-7.315z" fill="#49261b" fill-rule="evenodd"/><path d="M379.05 16.43c3.838 4.118 6.516 7.555 3.238 7.995-4.477.4-73.235 3.438-111.612 28.343-33.46 22.027-84.269 65.32-84.269 65.32s1.839 5.077 6.156 9.155c-3.677-3.638-4.917-8.355-4.917-8.355 51.21-43.853 49.77-42.654 84.07-65.08 38.336-25.105 107.094-27.984 111.612-28.383 3.438-.4.2-4.478-4.278-8.995z" fill="#49261b" fill-rule="evenodd"/><path d="M364.739 10.394c1.639-1.4 3.238-.8 3.238-.8 4.477 1.4 8.515 4.437 11.993 7.036.8.6 1.399 1.2 1.998 1.799-.999-1-1.998-1.999-3.038-2.798-3.438-2.639-7.475-5.637-11.952-7.036 0 0-1.64-.64-3.238.8-.64.599-.2.599.999.999z" fill="#49261b" fill-rule="evenodd"/><path d="M47.571 143.993c-1.24-.44-3.518.2-4.957.2-1.639 0-3.278 0-4.717.4-5.557 1.439-1.639 8.154-.8 11.792.6 3.278.4 6.556.8 9.594.64 2.839 1.24 5.917 1.839 8.755.84 3.038 3.078 9.994 6.396 11.593 1.44-1.4.6-5.277.6-7.116.2-3.238.6-6.316 1.239-9.354a208.852 208.852 0 0 0 3.078-14.271c.6-4.078.8-10.394-3.478-11.593zm25.225-4.118c-2.439.8-5.317 1.44-7.356 3.038-3.278 2.439-2.038 5.117-.4 8.155 2.04 4.278 5.117 8.955 6.517 13.632 1.039 3.878 1.839 7.755 3.677 11.393.64 1.24 3.918 6.716 5.317 6.316 2.039-.4 1.84-13.032 1.84-14.83.399-8.156 0-16.11-1.64-24.026-.8-3.878-4.277-4.717-7.955-3.678z" fill="#d96e44" fill-rule="evenodd"/><path d="M136.397 194.082c-2.638.2-6.316-1.439-8.355 1.4-2.238 2.638.24 6.476 3.278 6.675 2.24 0 5.077-1.798 6.516-3.637 1.4-1.6 1.2-4.038-1.439-4.438z" fill="#e17950" fill-rule="evenodd"/><path clip-path="url(#a)" d="M17.31 207.354s9.394 49.81 77.792 39.217c0 0-58.644 9.194-77.792-39.217z" fill="#e17950" fill-rule="evenodd"/><path d="M118.928 164.38s7.555 2.839 15.91-3.677c7.756-5.917 36.058-33.46 36.058-33.46s-28.302 31.42-34.619 36.098c-6.316 4.677-13.471 4.078-17.35 1.04z" fill="#f7c0ae" fill-rule="evenodd"/><path d="M373.094 6.436s11.833 2.039 18.709 15.67c0 0-6.277-10.553-18.71-15.67zm-65.56 42.854s-17.75 4.318-43.654 26.944c-25.704 22.426-60.843 56.845-60.843 56.845s56.965-52.568 62.482-56.645c5.517-3.878 25.305-22.027 42.015-27.144z" fill="#af8173" fill-rule="evenodd"/><path d="M213.63 139.875s36.019-45.572 42.895-51.329l-46.772 49.93 3.878 1.4z" fill="#916559" fill-rule="evenodd"/><path d="M375.253 15.03c-1.24-1.478-3.039-2.278-4.478-3.117-1.239-.64-2.238-1.04-3.478-.84-1.599.2-1.998.64-3.637 0-1.64-.64-2.439-.64-4.078 0-2.438.84-5.077 1.24-7.515 2.279-1.24.44-2.439 1.24-2.839 2.718-.44 1.84 1.8 2.079 3.039 2.079 4.477 0 8.754-.64 13.231-1.04 3.039-.44 6.277.6 9.155 1.44 1 .2 4.437.6 3.238-1.44-.4-1.039-1.839-1.678-2.638-2.518zm-26.624 3.039c-1 .24-1.2-1.4-1.8-1.799-1.238-.64-3.277.4-4.516.4-2.04.2-3.438.4-5.077 1.399-.8.64-3.079 2.878-2.239 3.878.6.8 4.477-.6 5.277-.8 1.439-.4 2.878-.84 4.077-1.24 1.24-.199 4.278 0 4.078-1.838z" fill="#7e584d" fill-rule="evenodd"/><path d="M86.108 118.208c1 6.916-11.633 14.272-28.143 16.31-16.55 2-30.622-2.038-31.421-8.954-.84-6.956 11.833-14.072 28.343-16.11 16.31-2.04 30.421 1.839 31.22 8.754" fill="none" stroke="#f7c0ae" stroke-width=".32" stroke-miterlimit="8"/><path d="M13.152 127.563c.44-9.594 17.99-19.389 40.615-22.027 21.228-2.678 39.377 1.639 44.054 9.594" fill="none" stroke="#343434" stroke-width=".8" stroke-miterlimit="8"/><path d="M196.8 134.838c1.84 1.24 10.394 6.756 10.195 8.595-.2 1.44-4.877 5.117-5.917 6.156-2.838 3.238-5.317 7.156-7.955 10.594-6.556 8.195-14.111 15.55-21.227 23.106-6.356 6.956-12.872 13.312-20.668 18.389 16.35-21.027 34.74-42.095 46.572-65.4z" fill="#d76a3f" fill-rule="evenodd"/><path d="M41.775 144.273c-1.84-1.04-5.917-.44-5.277 2.238.2 1.44 2.239 2.838 3.038 3.678 1.639 1.839 2.439 4.717 4.277 6.556 4.038 3.438 6.676-5.317 6.077-8.395-1-3.678-4.677-6.156-8.515-4.717zm27.783-3.758c-1.44-.4-4.078 2.039-4.677 3.478-1.04 2.038.2 3.278 1.839 4.477 2.038 1.839 4.037 4.078 5.876 6.316.64.64 1.24 2.439 2.239 2.439.84 0 2.878-2.04 3.278-2.639 2.838-3.478 4.037-9.594.4-13.032-2.44-2.238-6.117-2.478-8.955-.64z" fill="#e17950" fill-rule="evenodd"/><path d="M72.436 139.396c-1.2 0-6.916 1.439-6.476 3.318 0 .2 2.199 1.399 2.638 1.838.8.8 2.399 2.639 3.838 2.639 1.839.2 3.038-2.639 3.438-4.278.6-2.878-1.4-3.517-4.038-3.517zm-28.583 3.957c-1.239-.84-4.957-.2-5.996 1.04 1.679 2.238 5.357 5.316 8.475 3.477 3.678-2.038-.84-5.356-3.518-5.117z" fill="#ed8865" fill-rule="evenodd"/><path d="M72.796 142.793c0-.4.32-.76.68-.76.4 0 .68.36.68.76 0 .44-.28.76-.68.76-.36 0-.68-.32-.68-.76zm-26.464 1.32c0-.36.36-.72.76-.72.44 0 .759.36.759.72 0 .4-.32.72-.76.72-.4 0-.76-.32-.76-.72zm86.748 50.209c0-1 .839-1.839 1.838-1.839 1.04 0 1.84.84 1.84 1.84a1.81 1.81 0 0 1-1.84 1.838c-1 0-1.839-.8-1.839-1.839z" fill="#fff" fill-rule="evenodd"/><path clip-path="url(#a)" d="M15.07 134.718c-.999-1.239-1.838-2.678-1.838-2.678s-6.556 42.015 1.44 66.28c0 0-7.356-26.504 2.638-61.763 0 0-1.4-1.04-2.24-1.839z" fill="#f7c0ae" fill-rule="evenodd"/><path clip-path="url(#a)" d="M183.929 111.133c1.439 7.115 7.355 21.826 30.82 30.581 26.745-33.26 55.887-69.158 75.675-80.191 24.705-13.872 50.81-27.144 94.902-31.621 11.593-1.2 7.516-10.194 2.24-15.51-5.318-5.278-14.312-11.234-20.828-7.116-14.671 4.277-65.88 16.31-106.096 42.214 0 0-37.537 24.905-76.713 61.643" fill="none" stroke="#343434" stroke-width=".8" stroke-miterlimit="8"/><path d="M198.4 133.28c0-.76.64-1.4 1.399-1.4.8 0 1.4.64 1.4 1.4 0 .799-.6 1.398-1.4 1.398-.76 0-1.4-.6-1.4-1.399zm4.637 3.357c0-.48.4-.92.84-.92.48 0 .839.44.839.92 0 .52-.36.92-.84.92-.44 0-.84-.4-.84-.92z" fill="#fff" fill-rule="evenodd"/><path d="M97.86 115.25c.64 1.04 1.04 2.039 1.24 3.278 1.2 9.914-16.95 20.468-40.815 23.306-23.666 2.838-43.894-2.838-45.133-12.752v-1.44" fill="none" stroke="#f7c0ae" stroke-width=".8" stroke-linecap="round" stroke-linejoin="round" stroke-miterlimit="10"/><path d="M40.655 142.634c0-.76.68-1.4 1.52-1.4.839 0 1.519.64 1.519 1.4 0 .8-.68 1.399-1.52 1.399s-1.519-.6-1.519-1.4zm28.303-2.479c0-.56.52-1.08 1.08-1.08.6 0 1.079.52 1.079 1.08 0 .6-.48 1.08-1.08 1.08-.56 0-1.079-.48-1.079-1.08z" fill="#fff" fill-rule="evenodd"/></svg>