<svg xmlns="http://www.w3.org/2000/svg" version="1.0" viewBox="0 0 657.6 283.767"><path d="m70.078 240.055-3.898 5.116H53.448v-36.298h16.63v31.182z" fill="#f1bea3" fill-rule="evenodd"/><path d="m70.118 240.094-3.898 5.117H53.488v-36.298h16.63v31.181zm-3.918 5.117.24-31.58" fill="none" stroke="#494f4e" stroke-width=".08" stroke-linecap="round" stroke-miterlimit="8"/><path d="m54.887 219.167 9.874-.44.2 21.567s-2.839-22.226-10.074-21.127zm12.073-.04v19.728l2.318-20.148-2.319.42z" fill="#e4b098" fill-rule="evenodd"/><path d="m28.583 278.431-4.078 5.117H11.793v-79.232h16.79v74.115z" fill="#f1bea3" fill-rule="evenodd"/><path d="m28.623 278.471-4.078 5.117H11.833v-79.232h16.79v74.115zm-4.078 5.117.16-74.675" fill="none" stroke="#494f4e" stroke-width=".08" stroke-linecap="round" stroke-miterlimit="8"/><path d="M22.666 219.107h-9.674l.22 48.69s.22-46.051 9.454-48.69zm2.879-.639v49.73l2.238-49.51-2.238-.22z" fill="#e4b098" fill-rule="evenodd"/><path d="m593.44 238.615 3.918 5.117h12.952v-36.298h-16.87v31.181z" fill="#f1bea3" fill-rule="evenodd"/><path d="m593.48 238.655 3.918 5.117h12.952v-36.298h-16.87v31.181zm3.918 5.117.16-31.98" fill="none" stroke="#494f4e" stroke-width=".08" stroke-linecap="round" stroke-miterlimit="8"/><path d="m608.631 217.348-9.594-.24-.24 21.507s2.798-22.386 9.834-21.267zm-12.073.16v19.428l-2.078-19.668 2.078.24z" fill="#e4b098" fill-rule="evenodd"/><path d="m617.506 278.431 3.917 5.117h12.713v-79.232h-16.63v74.115z" fill="#f1bea3" fill-rule="evenodd"/><path d="m617.546 278.471 3.917 5.117h12.713v-79.232h-16.63v74.115zm3.837 5.117.24-74.675" fill="none" stroke="#494f4e" stroke-width=".08" stroke-linecap="round" stroke-miterlimit="8"/><path d="M623.262 219.107h9.834l-.2 48.69s-.44-46.051-9.634-48.69zm-2.718-.639v49.73l-2.239-49.49 2.239-.24z" fill="#e4b098" fill-rule="evenodd"/><path d="M648.287 126.523s3.038-14.83-26.264-24.865l-123.245.44 13.911 31.381 135.598-6.956z" fill="#97cee0" fill-rule="evenodd"/><path d="M648.327 126.563s3.038-14.83-26.264-24.865l-123.245.44 13.911 31.381 135.598-6.956z" fill="none" stroke="#494f4e" stroke-width=".08" stroke-linecap="round" stroke-miterlimit="8"/><path d="M.44 179.691v37.977h653.604v-37.977H.44z" fill="#f1bea3" fill-rule="evenodd"/><path d="M.04 179.93v8.396h653.764v-8.395H.04z" fill="#e4b098" fill-rule="evenodd"/><path d="M.32 179.331h653.524v37.977H.32z" fill="none" stroke="#494f4e" stroke-width=".08" stroke-linecap="round" stroke-linejoin="round" stroke-miterlimit="10"/><path d="M654.044 179.531H.44l35.538-4.517 588.923-6.196 29.143 10.713z" fill="#be9383" fill-rule="evenodd"/><path d="M654.243 179.571H.48l35.738-4.517 588.683-6.196 29.342 10.713z" fill="none" stroke="#494f4e" stroke-width=".08" stroke-linecap="round" stroke-linejoin="round" stroke-miterlimit="10"/><path d="M37.177 74.675c4.558-12.193 11.713-14.831 17.59-13.512 0 0 225.903 54.607 238.935 54.607h342.193c6.995 0 12.392 6.316 12.392 14.151v35.899c0 7.835-5.397 14.111-12.392 14.111H298.499c-17.19 0-255.885-59.364-255.885-59.364-6.556-1.32-15.47-6.116-13.072-16.11l7.635-29.782z" fill="#a6daed" fill-rule="evenodd"/><path d="M642.21 117.729c1.52 2.398 2.6 5.436 2.6 8.714v35.899c0 7.835-5.438 14.111-12.393 14.111H295.02c-17.39 0-255.885-59.364-255.885-59.364-2.638-.44-5.676-1.519-8.075-3.278 2.639 3.918 7.636 5.876 11.553 6.756 0 0 238.696 59.364 255.885 59.364h337.396c6.995 0 12.392-6.276 12.392-14.112v-35.898c0-5.197-2.358-9.794-6.076-12.192z" fill="#c4e3ed" fill-rule="evenodd"/><path d="M37.217 74.715c4.558-12.193 11.713-14.831 17.59-13.512 0 0 225.903 54.607 238.935 54.607h342.193c6.995 0 12.392 6.316 12.392 14.151v35.898c0 7.836-5.397 14.112-12.392 14.112H298.539c-17.19 0-255.885-59.364-255.885-59.364-6.556-1.32-15.47-6.116-13.072-16.11l7.635-29.782z" fill="none" stroke="#494f4e" stroke-width=".08" stroke-linecap="round" stroke-miterlimit="8"/><path d="M192.483 164.52s-1.938-2.818-4.777-4.117c-3.038-1.32-9.774-6.736-9.774-6.736L67.7 126.523s-15.87-3.038-30.002 5.657c-14.131 8.675-15.87 8.894-18.689 9.974-2.838.88-8.494 2.838-6.096 6.736 2.179 3.698 5.437 6.076 6.316 9.554 1.08 3.478 8.915 18.01 19.349 20.607l139.775-.2s4.797-1.958 6.976-5.656c2.378-3.458 3.478-4.117 4.117-5.417.66-1.299 1.959-1.519 3.038-3.258z" fill="#d7edf5" fill-rule="evenodd"/><path d="M190.105 162.162c-.22.22-.44.44-.66.88-.64 1.298-1.739 1.938-4.137 5.416-2.159 3.458-6.956 5.397-6.956 5.397l-139.795.44c-10.454-2.6-18.27-17.11-19.369-20.568-.86-3.258-3.697-5.417-5.856-8.895-1.1 1.1-1.54 2.399-.44 4.118 2.179 3.697 5.437 6.076 6.296 9.534 1.1 3.458 8.915 17.97 19.369 20.567l139.795-.2s4.797-1.958 6.956-5.636c2.398-3.458 3.498-4.117 4.137-5.417.66-1.299 1.959-1.519 3.038-3.258 0 0-.86-1.08-2.378-2.378z" fill="#c6e3ea" fill-rule="evenodd"/><path d="M192.523 164.56s-1.939-2.818-4.777-4.117c-3.038-1.32-9.774-6.736-9.774-6.736L67.74 126.563s-15.87-3.038-30.002 5.657c-14.131 8.675-15.87 8.894-18.689 9.974-2.838.88-8.494 2.838-6.096 6.736 2.179 3.697 5.437 6.076 6.316 9.554 1.08 3.478 8.915 18.009 19.349 20.607l139.775-.2s4.797-1.958 6.976-5.656c2.378-3.458 3.478-4.118 4.117-5.417.66-1.299 1.959-1.519 3.038-3.258" fill="none" stroke="#494f4e" stroke-width=".08" stroke-linecap="round" stroke-miterlimit="8"/><path d="M19.028 147.51c27.204 11.893 56.566 13.213 85.928 14.312 6.077.22 12.173-.44 18.27-.44 5.876 0 11.732 1.32 17.829 1.1 11.093-.66 23.485-4.178 34.359 0" fill="none" stroke="#494f4e" stroke-width=".08" stroke-linecap="round" stroke-miterlimit="8"/><path d="M508.452 114.73s6.956 10.194 18.709 6.956c11.513-3.038 18.029-5.676 25.424-6.076 7.196-.24 40.895 1.08 48.25-.24 7.396-1.32 20.468-3.678 27.424-8.475 7.156-4.997 11.953-11.753 14.991-19.588 3.038-8.035 3.038-9.554 4.118-12.392.88-2.599 5.636-6.077 1.079-8.475-4.557-2.399-7.595-5.197-10.434-9.994-2.598-4.997-21.946-8.915-29.542-9.794-7.635-1.08-13.472 1.759-21.307-2.159-8.035-4.157-37.177 11.313-44.773 18.269-7.635 6.956-30.861 37.817-33.94 51.968z" fill="#d7edf5" fill-rule="evenodd"/><path d="M639.972 59.204c-.64-.88-1.28-1.759-1.959-2.838-.44-1.12-1.719-2.199-3.677-3.078 1.719 2.398 3.477 4.357 5.636 5.916zm8.475 7.156c-1.08-.64-1.959-1.08-3.038-1.72-.2 1.72 4.357 3.239 3.917 4.998-1.079 2.838-7.595 8.914-10.873 12.632-5.637 6.516-8.035 14.791-14.99 19.588-6.957 4.997-20.229 7.396-27.384 8.715-7.396 1.08-37.378 1.52-44.773 1.759-7.396.4-15.031 4.757-26.544 7.835-5.876 1.52-13.032-3.518-16.31-5.676v.2s6.956 10.233 18.709 6.995c11.513-3.038 18.029-5.676 25.424-6.116 7.196-.2 40.895 1.08 48.25-.2 7.396-1.32 20.468-3.718 27.424-8.515 7.156-4.997 11.953-11.753 14.991-19.588 3.038-8.035 3.038-9.554 4.118-12.392.88-2.639 5.636-6.117 1.079-8.515z" fill="#c6e3ea" fill-rule="evenodd"/><path d="M508.492 114.77s6.956 10.194 18.708 6.956c11.514-3.038 18.03-5.676 25.425-6.076 7.196-.24 40.895 1.08 48.25-.24 7.396-1.32 20.468-3.678 27.424-8.475 7.156-4.997 11.953-11.753 14.991-19.588 3.038-8.035 3.038-9.554 4.118-12.392.88-2.599 5.636-6.077 1.079-8.475-4.557-2.399-7.595-5.197-10.434-9.994-2.598-4.997-21.946-8.915-29.542-9.794-7.635-1.08-13.472 1.759-21.307-2.159-8.035-4.157-37.177 11.313-44.773 18.269-7.635 6.956-30.861 37.817-33.94 51.968" fill="none" stroke="#494f4e" stroke-width=".08" stroke-linecap="round" stroke-miterlimit="8"/><path d="M529.44 121.207s10.433-5.197 18.268-7.996c8.035-2.838 4.557-3.278 15.63-5.236 10.874-1.72 25.865-6.277 31.941-9.315 6.316-3.038 14.112-5.237 20.628-5.876 6.316-.64 14.99.24 20.227-5.837 4.997-6.076 9.315-10.673 12.353-13.711" fill="none" stroke="#494f4e" stroke-width=".08" stroke-linecap="round" stroke-miterlimit="8"/><path d="M137.677 52.288s-8.695-1.959-11.953-3.038c-3.038-.88-11.273-3.498-13.892-5.017-2.598-1.739-8.235-5.876-10.413-6.736-2.18-1.1-12.813-10.014-14.332-11.533-1.519-1.539-5.636-4.577-6.936-5.656-1.299-1.1-3.258-2.619-4.357-4.578-.86-1.738-3.458-6.096-4.757-7.175-1.32-1.1-2.399-2.399-2.399-2.399L66.46 1.58s-2.819-.66-3.458.88c0 0-1.3 1.958-1.1 3.258 0 0-1.079-1.52-1.718-.22 0 0-1.96 1.519-.88 4.137 0 0-2.159.44-2.159 1.74 0 1.518.2 3.057 2.16 3.917h-1.3l-1.959-1.08s-1.3.42-1.08 1.52c.22.859-.879 3.917 2.819 4.996 0 0-1.959 1.32-1.52 3.278.66 1.96 1.3 2.599 1.74 3.039.22.44.44 1.299.44 2.178.22.66 1.938 11.094 7.155 14.571 4.997 3.718 6.956 6.536 8.675 9.375 1.739 2.818 7.176 9.574 8.475 14.79l14.331 3.259s6.296-.22 9.554.44c3.238.44 17.79 1.099 22.567 2.618 4.777 1.52 11.713 2.598 11.713 2.598l-3.238-24.585z" fill="#f6ebdc" fill-rule="evenodd"/><path d="M59.044 6.836v.22h.2l-.2-.22zm-1.539 11.753c-1.939-.66-2.378-2.179-2.598-3.478v.66c.22.859-.66 3.038 1.299 4.337 4.557 1.1 1.3-1.52 1.3-1.52zm83.21 55.686c-1.52-.22-7.396-1.3-11.513-2.618-4.777-1.52-19.349-2.18-22.607-2.599-3.258-.66-9.554-.44-9.554-.44L82.71 65.36c-1.3-5.216-6.736-11.972-8.475-14.79-1.739-2.839-3.678-5.657-8.675-9.355-5.217-3.478-6.956-13.932-7.175-14.571 0-.88-.22-1.74-.44-2.179-.44-.22-.86-.88-1.52-2.398-.22.66-.22 1.099-.22 1.958.66 1.96 1.3 2.619 1.74 3.039.22.44.44 1.319.44 2.178.22.66 1.958 11.094 7.175 14.571 4.997 3.698 6.936 6.536 8.675 9.355 1.739 2.838 7.176 9.574 8.475 14.79l14.331 3.279s6.296-.22 9.554.42c3.258.44 17.83 1.099 22.607 2.618 4.777 1.52 11.713 2.598 11.713 2.598l-.2-2.598z" fill="#efd3bd" fill-rule="evenodd"/><path d="M137.677 52.288s-8.675-1.959-11.933-3.038c-3.038-.88-11.293-3.498-13.892-5.017-2.598-1.739-8.235-5.876-10.413-6.736-2.16-1.1-12.793-10.014-14.312-11.533-1.519-1.539-5.636-4.577-6.936-5.656-1.299-1.1-3.258-2.619-4.337-4.578-.88-1.738-3.478-6.096-4.777-7.175-1.3-1.1-2.379-2.399-2.379-2.399L66.52 1.58s-2.819-.66-3.478.88c0 0-1.3 1.958-1.08 3.258 0 0-1.079-1.52-1.738-.22 0 0-1.94 1.519-.86 4.137 0 0-2.179.44-2.179 1.74 0 .879.22 1.958.88 2.837.42-.44 0-.88 0-.88-1.1-2.617 2.159-3.917 2.159-3.917-1.08-1.08.44-3.038.44-3.038-.22-1.32 2.378 0 2.378 0 .66-1.539 3.478-.88 3.478-.88l2.178 4.578s1.08 1.3 2.379 2.398c1.3 1.08 3.898 5.437 4.777 7.176 1.08 1.959 3.038 3.478 4.337 4.577 1.3 1.08 5.417 4.118 6.936 5.657 1.52 1.519 12.153 10.434 14.312 11.533 2.178.86 7.815 4.997 10.413 6.736 2.599 1.519 10.854 4.137 13.892 5.017 3.258 1.08 11.933 3.038 11.933 3.038l2.818 20.667h.42l-3.238-24.585z" fill="#f7f4ee" fill-rule="evenodd"/><path d="M137.717 52.328s-8.695-1.959-11.953-3.038c-3.038-.88-11.273-3.498-13.892-5.017-2.598-1.739-8.235-5.876-10.413-6.736-2.18-1.1-12.813-10.014-14.332-11.533-1.519-1.539-5.636-4.577-6.936-5.656-1.299-1.1-3.258-2.619-4.357-4.578-.86-1.739-3.458-6.096-4.757-7.175-1.32-1.1-2.399-2.399-2.399-2.399L66.5 1.62s-2.819-.66-3.458.88c0 0-1.3 1.958-1.1 3.258 0 0-1.079-1.52-1.718-.22 0 0-1.96 1.519-.88 4.137 0 0-2.159.44-2.159 1.74 0 1.518.2 3.057 2.159 3.917h-1.3l-1.958-1.08s-1.3.42-1.08 1.52c.22.859-.879 3.917 2.819 4.996 0 0-1.959 1.32-1.52 3.278.66 1.96 1.3 2.599 1.74 3.039.22.44.44 1.299.44 2.178.22.66 1.938 11.094 7.155 14.571 4.997 3.718 6.956 6.536 8.675 9.375 1.739 2.818 7.176 9.574 8.475 14.79l14.331 3.259s6.296-.22 9.554.44c3.238.44 17.79 1.099 22.567 2.618 4.777 1.519 11.713 2.598 11.713 2.598l-3.238-24.585z" fill="none" stroke="#494f4e" stroke-width=".08" stroke-linecap="round" stroke-miterlimit="8"/><path d="M61.882 5.277c.66.88 1.76 1.519 2.639 2.178.86.64 1.959 1.52 2.838 2.16.88.659 1.32 1.958 1.74 2.817.879 1.1 1.538 2.399 2.418 3.258.22.44.66.66 1.079.86M59.004 9.594c.22.24 1.12.68 1.34.9.44.22.879.44 1.099.66.88.659 1.759 1.099 2.638 1.758 1.1.44 1.76.88 2.199 1.78.44 1.098.88 1.978 1.319 2.857l.44.44m-9.035-2.879c.66.44 1.54.66 2.199 1.1.66.44 1.1.88 1.759 1.54.44.439.88.879 1.1 1.538.439.88.439 1.98 1.099 2.619m-7.596-1.439c.66 0 1.3 0 1.72.46.639.439 1.078.879 1.718 1.319.64.44 1.06.66 1.5 1.339.419.88.639 1.759 1.058 2.638" fill="none" stroke="#494f4e" stroke-width=".08" stroke-linecap="round" stroke-miterlimit="8"/><path d="M57.005 21.667c.44.42.44.84.86 1.06.22.2.86.619 1.08.619.439 0 1.498-1.26 1.498-1.68m-5.276-5.916c.66.2 1.519 1 2.178 1.2.44 0 .86-1.2.66-1.6m3.318-4.477c0 .88-.66 1.76-1.76.88-.439-.44-1.758-1.54-.659-1.999m1.18-4.317c-.44.94.66 1.859 1.539 2.098.66.22 1.539-.939.88-1.619m.419-3.517c.24 1.359 1.559 2.698 2.658 3.377.66.46 2.639 1.34 2.859 0M98.9 61.083c.22 1.3 1.1 3.018 2.399 3.678 1.299.64 3.258.42 4.557 1.279m2.478.8c1.96.22 3.898 1.099 5.637 1.738 1.719.44 3.678 1.08 5.397 1.94" fill="none" stroke="#494f4e" stroke-width=".08" stroke-linecap="round" stroke-miterlimit="8"/><path d="M540.912 35.419s3.278-1.76 4.358-3.278c1.319-1.52 4.357-4.558 6.516-4.997 2.198-.24 4.997 0 6.955-.88 1.76-.64 3.278-.64 5.237-1.08 1.72-.24 4.118-.679 8.035 1.08 3.918 1.759 5.877 2.838 7.836 3.918 1.958 1.08 4.557.24 5.836 3.038 1.12 2.838.44 3.917 2.399 5.477 2.198 1.519 3.477 3.917 4.997 5.196 1.519 1.32 3.917 3.478 4.797 5.877.88 2.398 1.719 6.556 1.079 8.715-.64 2.198-1.719 4.597-1.719 4.597s-2.399.64-3.038 1.719c-.68.88-.88 1.08-1.959 1.319-1.12.2-1.519 1.719-2.638 1.719-1.08 0-2.159-.4-3.678-.4-1.52 0-2.838.2-3.678 0-1.12-.24-1.959-5.676-1.959-5.676l5.197-18.31-18.029-12.632-13.272-.4-6.956 4.758-6.316.24z" fill="#ecdab6" fill-rule="evenodd"/><path d="M540.952 35.459s3.278-1.76 4.358-3.279c1.319-1.519 4.357-4.557 6.516-4.996 2.198-.24 4.997 0 6.955-.88 1.76-.64 3.278-.64 5.237-1.08 1.72-.24 4.118-.679 8.035 1.08 3.918 1.759 5.877 2.838 7.836 3.918 1.958 1.079 4.557.24 5.836 3.038 1.12 2.838.44 3.917 2.399 5.477 2.198 1.519 3.477 3.917 4.997 5.196 1.519 1.32 3.917 3.478 4.797 5.877.88 2.398 1.719 6.556 1.079 8.715-.64 2.198-1.719 4.597-1.719 4.597s-2.399.64-3.038 1.719c-.68.88-.88 1.079-1.959 1.319-1.12.2-1.519 1.719-2.638 1.719-1.08 0-2.159-.4-3.678-.4-1.52 0-2.838.2-3.678 0-1.12-.24-1.959-5.676-1.959-5.676l5.197-18.31-18.029-12.632-13.272-.4-6.956 4.758-6.316.24z" fill="none" stroke="#494f4e" stroke-width=".08" stroke-linecap="round" stroke-miterlimit="8"/><path d="M571.733 30.581s-10.873-4.797-18.468-.879c-3.238 1.759-3.678 1.959-4.558 3.038-1.079 1.12-1.958 1.76-3.917 1.959-1.72.24-5.637.68-8.235 2.838-2.639 2.399-3.918 3.918-6.316 4.997-2.159 1.08-8.915 4.358-9.555 13.032 0 0-11.952 7.836-15.63 8.275l-4.797-3.677s-11.953 7.155-6.077 14.55c5.877 7.396 17.59 8.476 17.59 8.476l16.31 1.279 5.836-.84s0-2.638 2.639-3.478c2.598-.68 4.557-2.198 6.276-3.038 1.759-.88 11.073-5.436 15.87-6.116 4.758-.64 9.115-1.28 13.032-1.28 3.918 0 7.156-2.398 9.994-2.198 2.599.24 7.796-15.87 7.796-15.87l-4.558-13.872-13.232-7.196z" fill="#f6ebdc" fill-rule="evenodd"/><path d="M524.882 66.2c3.038 3.957 8.235 8.315 17.51 11.113" fill="none" stroke="#494f4e" stroke-width=".08" stroke-linecap="round" stroke-miterlimit="8"/><path d="m500.257 61.363 4.797 3.718c3.678-.44 15.63-8.036 15.63-8.036.64-8.914 7.396-12.152 9.555-13.232 2.398-1.079 3.677-2.398 6.276-4.797 2.638-2.358 6.556-2.798 8.275-2.798 1.959-.24 2.838-1.08 3.917-2.159.88-1.079 1.28-1.319 4.558-3.038 7.595-3.718 18.468.84 18.468.84l13.232 7.395 4.358 13.232c.2-.44.2-.88.2-.88l-4.558-13.87-13.232-7.157s-10.873-4.797-18.468-.879c-3.278 1.759-3.678 1.959-4.558 3.038-1.079 1.08-1.958 1.76-3.917 1.959-1.72.2-5.637.64-8.275 2.798-2.599 2.399-3.878 3.918-6.276 4.997-2.159 1.08-8.915 4.358-9.555 13.032 0 0-11.952 7.796-15.63 8.235l-4.797-3.677s-8.275 4.997-7.596 11.033c.64-5.397 7.596-9.754 7.596-9.754z" fill="#f7f4ee" fill-rule="evenodd"/><path d="M571.773 30.621s-10.873-4.797-18.468-.879c-3.238 1.759-3.678 1.959-4.558 3.038-1.079 1.12-1.958 1.76-3.917 1.959-1.72.24-5.637.68-8.235 2.838-2.639 2.399-3.918 3.918-6.316 4.997-2.16 1.08-8.915 4.358-9.555 13.032 0 0-11.952 7.836-15.63 8.275l-4.797-3.677s-11.953 7.155-6.077 14.55c5.877 7.396 17.59 8.476 17.59 8.476l16.31 1.279 5.836-.84s0-2.638 2.639-3.478c2.598-.68 4.557-2.198 6.276-3.038 1.759-.88 11.073-5.436 15.87-6.116 4.757-.64 9.115-1.28 13.032-1.28 3.918 0 7.156-2.398 9.994-2.198 2.599.24 7.796-15.87 7.796-15.87l-4.558-13.872-13.232-7.196z" fill="none" stroke="#494f4e" stroke-width=".08" stroke-linecap="round" stroke-miterlimit="8"/><path d="M567.616 29.462s3.918 1.76 5.677 3.918c1.958 2.198 2.358 3.278 3.677 3.478 0 0 0 1.958 1.72 4.157 1.518 2.159 1.958 1.28 1.518 4.797-.2 3.238-1.279 7.156-2.798 9.315-1.519 2.198-3.038 4.797-3.918 5.236-.64.64-5.196 8.915-5.196 8.915s3.038.64 5.436-.2c2.599-.68 4.318-1.519 6.276-1.519 1.96-.24 3.039.2 4.358.2 1.08 0 3.678-4.557 4.997-7.595 1.279-3.079 3.438-6.117 1.919-11.314-1.52-5.436-5.397-10.034-7.596-11.992-2.158-2.159-10.393-7.156-16.07-7.396z" fill="#efded0" fill-rule="evenodd"/><path d="M569.455 29.462s3.957 1.76 5.676 3.918c1.96 2.198 2.399 3.478 3.718 3.718 0 0 0 1.718 1.72 3.917 1.518 2.159 1.958 1.52 1.518 4.797-.2 3.478-1.279 7.396-2.798 9.554-1.52 2.16-3.078 4.558-3.918 5.237-.68.4-5.237 8.675-5.237 8.675s3.039.64 5.437 0c2.599-.88 4.358-1.52 6.316-1.719 1.96 0 3.039.2 4.358.2 1.08 0 3.717-4.557 4.997-7.595 1.319-3.079 3.478-5.877 1.958-11.314-1.519-5.236-5.436-9.794-7.595-11.992-2.199-1.96-10.474-6.956-16.15-7.396z" fill="#ecdab6" fill-rule="evenodd"/><path d="M569.495 29.502s3.877 1.76 5.596 3.918c1.92 2.198 2.359 3.518 3.638 3.717 0 0 0 1.76 1.72 3.918 1.518 2.159 1.918 1.52 1.518 4.797-.24 3.478-1.279 7.396-2.798 9.554-1.52 2.2-2.998 4.558-3.878 5.237-.64.44-5.117 8.675-5.117 8.675" fill="none" stroke="#494f4e" stroke-width=".08" stroke-linecap="round" stroke-miterlimit="8"/><path d="M582.247 45.213c-.88 1.759-1.08 3.477-2.398 5.037-1.76 1.918-3.958 3.477-5.917 4.997-2.199 1.718-3.718 3.477-4.797 5.836-.88 2.199-1.759 4.357-1.999 6.516 0-1.28 1.32-2.798 2-4.117.639-1.08 1.318-2.599 2.158-3.678a20.488 20.488 0 0 1 4.157-4.158c1.32-1.279 2.639-2.158 3.958-3.238 1.759-1.759 3.078-3.718 4.357-5.876z" fill="#ecdab6" fill-rule="evenodd"/><path d="M582.607 44.853c-.84 1.759-1.28 3.718-2.599 5.237-1.519 1.958-3.677 3.478-5.636 4.997-2.159 1.759-3.678 3.278-4.757 5.876-.84 1.959-1.959 4.158-1.959 6.516 0-1.28 1.12-3.038 1.759-4.117.64-1.32 1.519-2.599 2.358-3.918 1.12-1.32 2.599-3.038 3.918-4.118 1.32-1.119 2.798-1.958 4.118-3.278.88-.879 1.519-1.719 2.158-2.598" fill="none" stroke="#494f4e" stroke-width=".08" stroke-linecap="round" stroke-miterlimit="8"/><path d="M555.423 38.497c-.84.4-.2-2.999-1.479-4.038-1.239-.84-1.879-1.919-3.598-2.119 0 0 1.72-.24 3.398 1.48 1.92 1.479 2.519 4.037 1.68 4.677zm4.437 10.113c-.879.64 2.52 3.079 2.959 5.677.44 2.838 0 6.996 0 6.996s1.679-4.597.84-7.436c-.84-2.838-2.959-5.916-3.798-5.236zm-12.911-12.832c-.64.88.44 2.559.879 3.398.64.88 1.32 1.72 1.719 2.559-.2 0-.64.2-.84 0-.24 0-.44-.2-.68-.4-.439-.88-.839-1.52-1.278-2.359-.68-1.039-1.12-2.318.2-3.198zm6.955 16.23c.2 1.32 0 2.599.68 3.678.44 1.08 1.08 1.96 1.999 2.599.2.44 1.759 1.719.44 1.719-.68 0-.88-.64-1.36-1.08-.2-.4-.64-.84-1.08-1.279-.479-.88-1.118-1.719-1.358-2.798-.24-.88 0-2.159.44-2.839z" fill="#494f4e" fill-rule="evenodd"/><path d="M547.108 35.419c.88-.2 1.52-.64 2.16-.64.879 0 1.758.24 2.158.64m.799 1.279c0 .64.4 1.08.6 1.719 0 .64.2 1.479 0 2.118m2.039 10.914c1.759-.2 4.357-.2 5.197 1.399m.799 2.478c.4 1.12.4 2.24 0 3.119m-8.395-16.87s-4.117 1.759-8.675 1.12c-1.079 0-1.958-.88-2.398-.44-.44.639-1.08 1.319-1.76 1.518-.639.24-1.718.68-1.958 1.32" fill="none" stroke="#494f4e" stroke-width=".08" stroke-linecap="round" stroke-miterlimit="8"/><path d="M540.313 43.654s-1.56 2.638-2.479 3.278m6.396 2.078s-1.08 3.678-2.798 3.678c-1.76-.2-1.76-1.08-1.76-1.08m3.278-4.716s1.44.28 1.84-.6m1.04-.56s2.678-1.04 5.356-1.04" fill="none" stroke="#494f4e" stroke-width=".08" stroke-linecap="round" stroke-miterlimit="8"/><path d="M540.712 48.61c.6-.679 1.4 0 1.2.88-.2.64-1 1.08-1.64 1.08.44-.2 1.24-.64 1.24-1.08 0-.88-.8-.24-.8-1.12z" fill="#494f4e" fill-rule="evenodd"/><path d="M529.599 45.213s2.798 1.759 3.878 2.638c.2.24-.64 1.12-.44 1.959.44.68 1.479.44 1.719 1.12.2.879-1.52 4.596.4 8.514 0 0-2.119-1.08-2.119-3.478-.2-2.638 0-2.838-.88-3.958-1.039-1.079-1.918-2.198-1.678-3.278 0-.879-1.32-3.078-.88-3.517z" fill="#efdad3" fill-rule="evenodd"/><path d="M529.639 45.253s2.798 1.759 3.878 2.638c.2.24-.64 1.12-.44 1.959.44.68 1.479.44 1.719 1.12.2.879-1.52 4.596.4 8.514 0 0-2.12-1.08-2.12-3.478-.199-2.638 0-2.838-.879-3.958-1.039-1.079-1.918-2.198-1.679-3.278 0-.879-1.319-3.078-.879-3.517m-.239 1.439s-2.2.88-1.32 3.957c.88 3.238 2.199 6.077 5.037 7.156" fill="none" stroke="#494f4e" stroke-width=".08" stroke-linecap="round" stroke-miterlimit="8"/><path d="M502.815 61.962s-6.276-5.236-8.874-6.316c-2.399-1.319-5.877-3.677-11.753-2.398-5.637 1.319-10.834 3.917-12.153 3.478 0 0-11.513-3.918-14.111-4.558-2.399-.44-12.593-1.759-17.15 1.76-4.557 3.477-6.756 7.155-7.635 8.914-.84 1.719-2.359 7.395-13.032 9.994l20.867 52.408s12.153 1.52 16.51.44c4.357-.88 11.713-3.238 16.07-3.478 4.358 0 9.554-2.159 14.112-1.959 4.557.24 20.627-1.719 26.064-7.395 5.437-5.637 10.234-8.275 13.032-10.874 2.838-2.598 8.275-5.876 8.035-10.234 0-4.117 1.08-8.035 1.08-8.035s-4.318.88-5.837.2c-1.759-.84-4.997-3.478-9.794-3.678-4.757-.2-8.035-.2-8.035-.2s-2.799-1.958-5.837-3.717c-3.078-1.76-4.997-2.599-6.116-5.637-1.08-3.078-1.519-7.395 4.557-8.715z" fill="#f4dae8" fill-rule="evenodd"/><path d="M528.04 83.91c-1.759-.88-4.997-3.479-9.794-3.719-4.757-.2-8.035-.2-8.035-.2s-2.799-1.958-5.837-3.717c-3.078-1.72-4.997-2.599-6.116-5.637-.2-.44-.4-1.08-.4-1.759-.44 1.56 0 3.278.4 4.597 1.12 3.039 3.038 3.878 6.116 5.637 3.038 1.719 5.837 3.678 5.837 3.678s3.278 0 8.035.24c4.797.44 8.035 3.038 9.794 3.677 1.08.64 3.918.24 5.197 0 .24-1.719.64-3.038.64-3.038s-4.318.88-5.837.24zm-25.225-21.948s-6.276-5.236-8.874-6.316c-2.399-1.319-5.877-3.677-11.753-2.398-5.637 1.319-10.834 3.917-12.153 3.478 0 0-11.513-3.918-14.111-4.558-2.399-.44-12.593-1.759-17.15 1.72-4.557 3.477-6.756 7.195-7.635 8.914-.84 1.759-2.359 7.395-13.032 9.994l1.119 2.638c9.754-2.838 11.073-8.075 11.913-9.594.88-1.719 3.078-5.636 7.635-9.114 4.557-3.478 14.751-2.16 17.15-1.52 2.598.44 14.111 4.558 14.111 4.558 1.32.24 6.516-2.159 12.153-3.678 5.876-1.32 9.354 1.28 11.753 2.399 1.519.64 4.317 2.798 6.516 4.317.64-.2 1.519-.64 2.358-.84z" fill="#f4ebf0" fill-rule="evenodd"/><path d="M502.855 62.002s-6.276-5.236-8.874-6.316c-2.399-1.319-5.877-3.678-11.753-2.398-5.637 1.319-10.834 3.917-12.153 3.478 0 0-11.513-3.918-14.111-4.558-2.399-.44-12.593-1.759-17.15 1.76-4.557 3.477-6.756 7.155-7.635 8.914-.84 1.719-2.359 7.395-13.032 9.994l20.867 52.408s12.153 1.52 16.51.44c4.357-.88 11.713-3.238 16.07-3.478 4.358 0 9.554-2.159 14.112-1.959 4.557.24 20.627-1.719 26.064-7.395 5.437-5.637 10.234-8.275 13.032-10.874 2.838-2.598 8.275-5.876 8.035-10.234 0-4.117 1.08-8.035 1.08-8.035s-4.318.88-5.837.2c-1.759-.84-4.997-3.478-9.794-3.678-4.757-.2-8.035-.2-8.035-.2s-2.799-1.958-5.837-3.717c-3.078-1.76-4.997-2.599-6.116-5.637-1.08-3.078-1.52-7.395 4.557-8.715" fill="none" stroke="#494f4e" stroke-width=".08" stroke-linecap="round" stroke-miterlimit="8"/><path d="M446.69 100.1s1.758.639 2.638 0c1.079-.64 2.398-1.96 2.598-.64.44 1.279 1.959 0 3.678-.24 1.959-.2 2.398-.4 3.718-.4 1.279 0 4.117 1.08 9.354-1.759 5.197-2.798 9.114-3.678 13.032-5.437 3.918-1.718 12.792-6.076 12.792-6.076m-16.79-22.986s-13.511-4.357-19.188-2.159c-5.437 2.399-8.515 7.396-12.232 8.675m-11.274.88s2.639 1.119 4.398 2.638a665.685 665.685 0 0 0 5.037 4.078m25.824-19.908s10.194 2.918 16.23 3.118m13.992 0s-6.157 1.998-5.717 7.635c.44 5.477 5.277 9.155 5.277 9.155" fill="none" stroke="#494f4e" stroke-width=".08" stroke-linecap="round" stroke-miterlimit="8"/><path d="M499.857 60.443c.4.48.8.96 1.2 1.68m-2.799-.4c.48.44.96.64 1.2 1.039m-2.239.16c.48.24.96.44 1.439.88m-2.318.399c.639.28 1.079.56 1.678.8m-2.078 1.439h1.279m.399 1.599h-2.078m2.478 1.919c-.6.2-1.04.4-1.679.4m2.479 1.998c-.24.2-.72.4-1.2.4m2.879 1.039c-.2.24-.84.68-1.28.88m2.479.959c-.4 0-1 .84-1.2 1.04m3.279.639c-.2.44-.84.84-1.28 1.04m2.879.159c-.2.28-.6.52-.8 1.04m2.878.639s-.2 0-.2-.24c-.2.24-.4.44-.6.64m4.078-.639c-.839 0-1.718.44-2.598.64-1.519.439-2.838 1.278-4.597 1.678m26.304 3.838c.6.72.8 1.639.8 2.318m-.001-4.317v1.6m1.44-1.2v.8" fill="none" stroke="#494f4e" stroke-width=".08" stroke-linecap="round" stroke-miterlimit="8"/><path d="M137.876 51.609s-8.275 3.078-8.914 10.673c-.44 7.836 0 16.11-4.997 14.991-4.997-1.08-9.794-4.317-13.472 1.12-3.918 5.196-12.632 13.032-13.952 38.936 0 0 82.03 23.466 121.607 28.263 39.576 4.797 71.317 5.636 83.51 9.554 12.192 3.918 56.085 13.912 142.673 4.357 11.753-1.319 12.152-4.357 8.674-17.39-3.477-13.071-4.317-32.62-4.757-37.416-.44-4.798-9.354-29.143-26.544-36.338-6.516-2.599-19.148-.4-19.148-.4s-5.437 2.598-9.994 3.478c-4.357.84-17.39 3.238-20.867 1.279-3.278-1.719-9.594-6.716-25.225-3.678-15.67 3.038-29.382 1.28-35.019-.88-5.876-1.958-19.148-2.838-23.945-2.598-4.557.44-17.39 1.52-21.947-.44-4.597-2.198-14.151-5.876-21.547-4.797-7.156 1.32-14.351 3.478-19.348 2.2-4.997-1.56-74.155-6.557-86.788-10.914z" fill="#d7edf5" fill-rule="evenodd"/><path d="M110.093 87.347c3.918-5.437 8.715-2.199 13.712-1.08 4.997 1.08 4.557-7.195 4.997-15.03.64-7.636 8.915-10.674 8.915-10.674 12.632 4.358 81.79 9.355 86.787 10.874 4.997 1.519 12.153-.84 19.348-1.96 7.396-1.278 16.95 2.64 21.547 4.598 4.557 1.959 17.39.84 21.947.64 4.797-.44 18.069.44 23.945 2.598 5.637 1.959 19.349 3.718 34.98.68 15.67-3.078 21.986 1.959 25.224 3.917 3.518 1.72 16.35-.68 20.907-1.519 4.557-.88 9.794-3.518 9.794-3.518s12.832-2.158 19.349.44c16.95 7.196 26.104 31.78 26.503 36.578.44 4.797 1.32 24.385 4.798 37.417.44 1.76.879 3.278 1.079 4.558 1.519-2.359.68-6.517-1.08-13.272-3.477-13.033-4.357-32.62-4.797-37.418-.4-4.797-9.554-29.382-26.503-36.538-6.517-2.638-19.349-.44-19.349-.44s-5.237 2.6-9.794 3.479-17.39 3.238-20.907 1.519c-3.238-1.96-9.554-6.956-25.225-3.918-15.63 3.038-29.342 1.32-34.979-.64-5.876-2.198-19.148-3.078-23.945-2.638-4.557.24-17.39 1.32-21.947-.64-4.597-1.958-14.151-5.876-21.547-4.557-7.195 1.08-14.351 3.478-19.348 1.959-4.997-1.52-74.155-6.556-86.787-10.913 0 0-8.275 3.078-8.915 10.673-.44 7.835 0 16.11-4.997 15.031-4.997-1.08-9.794-4.357-13.712 1.08-3.677 5.236-12.392 13.071-13.711 38.936 0 0 .24 0 .68.24 2.598-19.149 9.793-25.665 13.031-30.462z" fill="#e9f2f6" fill-rule="evenodd"/><path d="M137.916 51.649s-8.275 3.078-8.914 10.673c-.44 7.835 0 16.11-4.997 14.991-4.997-1.08-9.794-4.317-13.472 1.12-3.918 5.196-12.632 13.032-13.952 38.936 0 0 82.03 23.466 121.607 28.263 39.576 4.797 71.317 5.636 83.51 9.554 12.192 3.918 56.085 13.912 142.673 4.357 11.753-1.319 12.152-4.357 8.674-17.39-3.477-13.071-4.317-32.62-4.757-37.416-.44-4.798-9.354-29.143-26.544-36.338-6.516-2.599-19.148-.4-19.148-.4s-5.437 2.598-9.994 3.478c-4.357.84-17.39 3.238-20.867 1.279-3.278-1.72-9.594-6.716-25.225-3.678-15.67 3.038-29.382 1.28-35.019-.88-5.876-1.958-19.148-2.838-23.945-2.598-4.558.44-17.39 1.52-21.947-.44-4.597-2.198-14.151-5.876-21.547-4.797-7.156 1.32-14.351 3.478-19.348 2.2-4.997-1.56-74.155-6.557-86.788-10.914" fill="none" stroke="#494f4e" stroke-width=".08" stroke-linecap="round" stroke-miterlimit="8"/><path d="M129.282 78.752s50.689 8.755 66.12 14.192c15.67 5.676 49.57 10.713 62.642 14.87 13.032 4.158 50.649 4.158 58.484 4.598 8.035.4 76.514.4 84.989.4m-24.865 5.836c2.398-.88 6.995 1.759 9.354 2.638 9.594 3.079 18.709 6.796 27.184 12.233" fill="none" stroke="#494f4e" stroke-width=".08" stroke-linecap="round" stroke-miterlimit="8"/><path d="M275.033 92.904c12.173 8.095 27.384 9.834 41.495 9.834m-78.272-5.917c-.2-1.279-8.016-1.279-10.394-1.279-8.035-.22-16.71-3.458-19.748-11.673" fill="none" stroke="#494f4e" stroke-width=".08" stroke-linecap="round" stroke-miterlimit="8"/><path d="M399.078 74.155s-4.397-5.437 1.08-8.475c5.236-3.038 25.784-8.954 25.384-.44l-26.464 8.915z" fill="#f4dae8" fill-rule="evenodd"/><path d="M399.118 74.195s-4.397-5.437 1.08-8.475c5.236-3.038 25.784-8.954 25.384-.44l-26.464 8.915z" fill="none" stroke="#494f4e" stroke-width=".08" stroke-linecap="round" stroke-miterlimit="8"/><path d="M411.19 57.805c-1.718-.68-3.677.88-5.836 1.519-1.958.88-4.357 2.638-4.797 3.078-.44.44-1.959.88-1.519 2.399.64 1.319.88 2.398.44 4.597-.68 1.959-1.12 2.838-.88 4.597.2 1.56.2 3.078.88 4.397.64 1.08 1.519 1.52 1.719 2.2 0 .639.64 1.958.64 1.958l11.313 5.677s1.079 0 .44-1.76c0 0 1.079 2.44 1.518 2.879.68.44 3.478 1.28 3.478 1.28s1.76-1.52 1.08-3.279c-.4-1.759-.84-2.838-1.28-3.918-.64-1.319-1.319-4.157-1.319-4.157s1.52 2.159 1.959 3.278c.44 1.08 1.52 5.916 4.118 5.037 1.559-.68 1.319-1.759 1.319-1.759s1.08-1.32-.2-5.477a330.957 330.957 0 0 0-2.639-6.995v-2.2l1.76.88c.639.44 1.958.88 2.398 1.52.44.679 1.519 1.998 4.357 2.638 3.038.64 5.397 0 5.197-1.959 0 0 .2-.44-.64-.88-.879-.44-2.638-1.119-2.638-1.119s-1.719-2.158-2.798-3.038c-1.08-1.12-2.838-3.278-3.478-3.518-.44-.44-1.959-1.519-3.278-1.959-1.08-.68-2.598-.88-3.918-1.998-1.519-1.08-6.276-3.478-7.395-3.918z" fill="#f6ebdc" fill-rule="evenodd"/><path d="M399.678 66.84c.44-1.52.24-2.599-.2-3.718-.44.44-.68.88-.44 1.759.2.68.44 1.319.64 1.958zm19.988 20.107c-.4.64-.84 1.28-.84 1.28s-2.838-1.08-3.478-1.52c-.44-.44-2.638-2.838-2.638-2.838.68 1.76.68 1.959.68 1.959l-7.196-2.159-4.118-3.518s-.64-1.279-.64-1.958c-.24-.88-1.119-1.32-1.758-2.399-.64-1.08-.64-2.598-.88-4.157-.2.68-.44 1.319-.2 2.398.2 1.56.2 3.078.88 4.397.64 1.08 1.519 1.52 1.719 2.16 0 .679.64 1.958.64 1.958l11.313 5.677s1.079 0 .44-1.72c0 0 1.079 2.4 1.518 2.839.68.44 3.478 1.28 3.478 1.28s1.76-1.52 1.08-3.239v-.44zm15.03-13.551c-.879.64-2.398.64-4.357.44-2.838-.64-3.917-1.96-4.357-2.6-.44-.679-1.72-1.118-2.399-1.558-.84-.44-1.719-.88-1.719-.88v2.199s0 .24.2.44c.44.2.88.44 1.32.64.639.44 1.958.879 2.398 1.558.44.64 1.519 1.96 4.357 2.599 3.038.64 5.397 0 5.197-1.959 0 0 .2-.44-.64-.88zm-9.993 9.594v.44s.2 1.119-1.32 1.758c-2.598.88-3.717-4.157-4.117-5.037-.44-1.079-2.838-3.278-2.838-3.278s1.719 2.839 2.158 3.958c.44 1.08.88 2.399 1.32 4.157 0 0 .2.2.2.4.679 1.56 1.518 2.639 3.038 2.199 1.559-.64 1.319-1.759 1.319-1.759s.44-.84.24-2.838z" fill="#efded0" fill-rule="evenodd"/><path d="M411.23 57.845c-1.718-.68-3.677.88-5.836 1.519-1.959.88-4.357 2.638-4.797 3.078-.44.44-1.959.88-1.519 2.399.64 1.319.88 2.398.44 4.597-.68 1.959-1.12 2.838-.88 4.597.2 1.56.2 3.078.88 4.397.64 1.08 1.519 1.52 1.719 2.2 0 .639.64 1.958.64 1.958l11.313 5.677s1.079 0 .44-1.76c0 0 1.079 2.44 1.518 2.879.68.44 3.478 1.28 3.478 1.28s1.76-1.52 1.08-3.279c-.4-1.759-.84-2.838-1.28-3.918-.64-1.319-1.319-4.157-1.319-4.157s1.52 2.159 1.959 3.278c.44 1.08 1.52 5.916 4.118 5.037 1.559-.68 1.319-1.759 1.319-1.759s1.08-1.32-.2-5.477a330.957 330.957 0 0 0-2.639-6.995v-2.2l1.76.88c.639.44 1.958.88 2.398 1.52.44.679 1.519 1.998 4.357 2.638 3.038.64 5.397 0 5.197-1.959 0 0 .2-.44-.64-.88-.879-.44-2.638-1.119-2.638-1.119s-1.719-2.158-2.798-3.038c-1.08-1.12-2.838-3.278-3.478-3.518-.44-.44-1.959-1.519-3.278-1.959-1.08-.68-2.599-.88-3.918-1.998-1.519-1.08-6.276-3.478-7.395-3.918" fill="none" stroke="#494f4e" stroke-width=".08" stroke-linecap="round" stroke-miterlimit="8"/><path d="M407.033 85.148c-.44-1.079-.44-2.158-1.079-3.038-.44-1.08-1.12-1.759-1.56-2.838-.639-.88-.639-1.959-1.078-2.838-.24-.44-.24-1.08-.68-1.52-.2-.44-.64-.679-1.12-1.119m12.314 12.793c-.2-.44-.4-1.08-.64-1.52-.2-.64-.64-1.319-.88-1.958-.4-1.12-.84-2-1.519-2.879-.64-1.079-1.08-2.198-1.519-3.278-.44-1.319-1.08-2.438-1.959-3.518-.2-.24-.2-.44-.44-.68m10.234 6.797c-.4-1.28-1-2.359-1.839-3.678-.2-.4-.4-1.08-.6-1.719-.4-.64-.4-1.28-.839-1.959m7.995-.639c0-1.04-.64-2.999-.2-4.078m-20.747 3.918c.48-.2.68-.64 1.16-.84.44-.2 1.119-.2 1.558-.44m1.839-1.599c.68 0 .88-.72 1.32-1.199.68-.48 1.319-.72 1.958-.72m2.079-.799c1.28-.88 2.798-2.478 4.477-2.478m5.797 23.425c.24-.64-.44-1.519 0-2.398.24-.44.88-.88 1.519-.88 1.08.24 1.719 1.76 1.719 2.639m-4.717 3.158c-.2-1.24-.4-2.678-2.159-2.039-.4 0-1.28.4-1.52 1 0 .44.44 1.239.68 1.639m-3.797-2.079c-.4-1.12-1.4-2.239-2.239-1.12m2.479-8.954c0 .24-.24.24-.24 0m3.917-3.518c0-.2.52-.4 1.04-.4m-.8 1.839s1.2-.52 1.44-.8m-13.193 2.479c.2-.24.6-.24.8-.24m-.8 1.439h.2c.2 0 .4-.16.6-.16m1.919 5.757c.2-.2.6-.2.8-.4m-8.236-6.636c.24 0 .44 0 .64-.16m-.24 1.2c.24.24.44.24.64 0m30.861-5.757c-.44 0-1.12 0-.44.64.2.2.64.2 1.08.4.68.4 1.559.799 2.398.799" fill="none" stroke="#494f4e" stroke-width=".08" stroke-linecap="round" stroke-miterlimit="8"/><path d="M116.29 70.697c-.86-2.578-8.255-3.658-10.414-4.297-3.918-.86-5.437-2.159-8.055-4.957 1.539 2.378 2.178 4.317 4.797 5.596.86.44 2.378.44 2.598 1.3.22 1.279-2.178.64-2.818.64 1.08.639 2.379 1.278 3.698 1.718.86.22 1.939 0 2.598.42z" fill="#efd3bd" fill-rule="evenodd"/><path d="M520.804 55.566s0 1.96.8 4.717" fill="none" stroke="#494f4e" stroke-width=".08" stroke-linecap="round" stroke-miterlimit="8"/><path d="M568.815 69.278s-13.472-.44-26.504 7.356c0 0-7.195-2.359-10.034-4.558 0 0 6.996.44 11.993-1.279 5.197-1.519 7.835-.68 9.354-.88 1.72-.24 8.036-1.079 9.355-2.598 1.08-1.559 3.478 1.72 5.836 1.959zm-28.143 8.235c-2.598-.44-4.957-1.999-7.155-3.118.24 3.758-5.197 8.395-8.675 6.876 1.519.2 2.398 1.519 3.918 1.959 1.079.44 3.477.44 4.357-.44.4-.64.2-1.32.84-1.959.44-.68 1.079-.88 1.758-1.32 1.52-.679 3.038-1.358 4.318-1.998zm5.437-38.617c.2 1.12 1.08 1.96 1.52 3.039-.44 0-.88-.2-1.32-.2h-1.32c-.439 0-1.798 0-2.478-.44 1.12-.64 2.239-.2 3.358-.88.24-.4.44-1.079 0-1.519zm6.116 14.951c.24.44 0 1.08.24 1.52 0 .839.2 1.678.64 2.518.2 1.08 1.319 1.719 1.719 2.758-2.359-.6-3.038-4.237-3.038-6.156zm1.559-2.678c.68-.64 1.96-.88 3.039-.64.44 0 .839.2 1.279.44.44.2.64.64 1.08.64-.44-.88-.2-1.32.199-1.96 0-.239-.2-.439-.2-.919-1.719.92-4.077.92-5.157 2.879z" fill="#efded0" fill-rule="evenodd"/><path d="M542.511 42.814c-.6-.24-.8-.48-1.399.24-.4.44-.84 1.16-.84 1.599 0-.92 1.44-1.839 2.24-1.839zm-.16 3.958c.92.48 1.36.72 2.239.24.68-.44 1.599-1.16 2.239-1.16-.88.48-1.76 1.4-2.679 1.64-.68.2-1.12.2-1.799-.24zm12.313 7.715c-.64-1.08-.4-2.638.64-2.638 1.279-.24 2.998.44 3.837 1.119-.84-.68-2.318-.88-3.398-.44-.64 0-1.719.64-1.279 1.52zm-7.156-17.27c-.68-.919.2-1.359 1.08-1.599.839-.24 1.718-.24 2.558.48-1.08-.48-2.998-.24-3.438.68zm-12.112 14.152c.879-1.08 2.158-1.52 3.437-1.999-1.079.24-2.558.92-3.677.68 0 .44.24.88.24 1.319z" fill="#fff" fill-rule="evenodd"/><path d="M534.156 47.931c1.08.2 2.399-.2 3.238-.64-.64.44-1.519.64-2.358.84-.68.2-1.12.6-1.56 1 0-.4.24-.8.44-1.2z" fill="#efded0" fill-rule="evenodd"/><path d="M402.276 62.482c1.12-1.08 3.118-1.28 4.438-2.159 1.319-.44 2.398-1.079 3.717-1.279 1.32-.24 2.439.64 3.758 1.28.64.44 1.52.64 2.199 1.079.64.44 1.079 1.319 1.958 1.719-2.198-1.08-5.036-3.238-7.475-2.998-1.08 0-2.199.2-3.078.44-1.52.2-3.278.639-4.397 1.279zm13.552 1.958c-.64-1.318-3.478.64-4.118 1.28-1.079.88-2.198 1.08-3.477 1.72-1.08.439-1.96 1.278-3.039 1.958-.44.2-.879.4-1.519.84-.68.44-1.958.44-2.198 1.279 1.519-.84 3.478-1.04 4.797-2.12 1.08-.679 1.959-1.318 3.238-1.958.44-.2 1.12-.64 1.759-.84.44-.24.88 0 1.519-.44 1.08-1.078 1.719-1.718 3.238-1.718z" fill="#f7f4ee" fill-rule="evenodd"/><path d="M423.064 83.87c-.4-.44-1.04-.2-1.48.199 0 .2-.44.6-.2.8.2 0 .64-.4.64-.6.4-.2.64-.2 1.04-.4zm-1.44 2.797c0 .24.64.48.64.68.4 0 .6 0 1-.2.4-.24.999-.92.6-1.639-.4.48-1 1.64-1.8 1.16zm-5.276 1.719c-.48-.2.64-.84.88-1.039.199 0 .639-.24 1.078-.24.24 0 .24.24.44.24 0 .2 0 .4-.2.4h-1.119c-.44 0-1.08.24-1.32.64zm2.198 1.839c.4-.24.6-.76.6-1.279 0 .28-.2.52-.4.8-.2 0-.2.24-.4.24l.2.24zm-7.396-3.558c.2-.6.4-.28.56.28-.16 0-.56 0-.56-.56zm21.108-13.951c0 .24.2.24.4.24 0 0-.2-.24-.4-.24z" fill="#fff" fill-rule="evenodd"/><path d="M529.52 47.131c-1.8 1.08-1.12 4.318-.44 5.597.679 1.28 1.598 3.438 3.357 3.838 0-.64-.44-1.68-.44-2.359 0-.84 0-1.479-.44-2.119-.439-.64-1.358-1.279-1.558-2.158-.24-.84-.24-1.92-.48-2.799z" fill="#efdad3" fill-rule="evenodd"/><path d="M530.439 46.892c-.24 0 .2.44.2.64.2.399.2.599.2.799 0 .44 0 1.239.439 1.439.2-.6-.2-2.439-.84-2.639zm-1.239 1.039c-.2.4-.6 1.599 0 1.999.36-.8 0-1.6 0-2.399zm-.04 3.278c.439.64.439 1.44 1.079 1.839.2-.6-.44-1.2-.84-1.839z" fill="#fff" fill-rule="evenodd"/><path d="M580.328 36.818c.2 1.079 1.08 1.759 1.72 2.598.439.88.879 1.959 1.278 3.038.68 2.159.88 3.678.88 5.837-.2-1.96-.2-4.318-.2-6.476 1.28 2.158 1.719 4.957 2.359 7.315 0-1.719-.88-3.678-1.08-5.397-.2-1.279 0-3.238-.64-4.317 2.16 2.399 4.758 6.916 4.958 10.354-.64-2.359-3.038-5.597-2.799-7.955 1.92 1.479 2.999 4.317 4.318 6.236-.44-1.28-1.08-2.599-1.52-3.878 1.28.44 2.16 1.959 3.239 2.599-.2-.88-.64-1.72-1.08-2.599.44.64.88 1.28 1.28 1.959-2.16-3.678-6.037-5.397-8.395-8.635-.24.84.44 1.48.84 2.159-.4-.68-1.08-1.32-1.48-1.52 0 .64.2 1.52.4 1.92-.4-.2-.84-.64-1.08-1.08 0 .88.68 1.52.68 2.399-.24-.44-.44-1.08-.68-1.52 0 .2.24 1.08.44 1.52-.64-1.959-2.598-2.599-3.678-4.118z" fill="#d6c39d" fill-rule="evenodd"/><path d="M580.288 36.618c-.68-1.12-2.198-1.12-2.838-2.199-.88-.84-1.28-1.719-1.959-2.598-.64-.64-1.519-1.08-1.959-1.96 2.399 1.52 4.158 3.919 6.077 6.077-.4-1.279-1.72-1.959-2.159-3.038.88.24 1.52 1.08 2.399 1.759-.24-.44-.24-.88-.44-1.08.88.4 1.719 1.08 2.598 1.52-2.158-1.32-3.677-3.478-5.436-5.237 1.519 2.838 6.316 3.038 7.395 6.076-.44-.84-1.08-1.719-1.519-2.598.88.44 1.32 1.319 1.959 1.959-.44-.44-.44-.64-.44-1.08.88.88 1.719 2.599 1.52 3.878-.64-.64-1.08-1.719-1.96-2.159.24.44.44.88.88 1.32-1.32-1.08-2.599-2.16-3.678-3.478.64.879 1.719 1.718 2.359 2.838-1.08-.24-1.96-1.12-2.599-1.76.24.44.64 1.08 1.08 1.52-.44-.2-.84-.44-1.28-.64.44.64.44.88.64.64z" fill="#d6c39d" fill-rule="evenodd"/><path d="M583.087 49.01c.88 2.839-1.52 5.917-3.079 8.115-1.758 2.399-3.477 4.558-5.036 7.436 1.559-1.999 3.717-3.718 5.916-4.837-.88 1.319-2.399 2.398-3.038 3.957.2-.68.84-1.319 1.719-1.559-.44.88-1.32 1.56-1.52 2.439 2.2-1.999 4.798-3.718 5.917-6.556-1.12 2.598-1.759 4.557-3.518 6.956 1.32-.2 3.078-1.72 3.958-2.599 1.519-1.519 3.478-4.157 4.357-6.116-.24 2.159-1.759 6.756-3.518 8.315.68-1.56 2.879-3.718 4.598-3.718 0 1.08-.88 2.159-1.32 3.278.44-.68 1.12-1.559 2-1.759 0 .88-.44 1.52-.44 2.399.639-.88 1.079-2.199 2.158-2.199 0 .44-.2.88-.2 1.32 2.199-1.08 3.278-4.798 3.918-6.996 1.12.879.24 4.157-.44 5.236 3.278-3.278 2.199-9.834-.2-13.551-.44 1.758 0 3.717-.44 5.476-.44 1.76-.64 4.358-1.758 5.917-.2-1.12.44-1.96.879-2.839.24 1.28-.88 3.718-1.959 4.358-.44-.88 0-1.96.2-2.839-.44.88-1.08 1.96-1.719 2.399-.24-.64 0-1.52.2-2.199-.64.44-1.32 1.32-1.759 2 1.12-2.2 2.199-6.557 1.32-8.995-1.32 1.319-2.16 4.157-3.918 4.597.2-.44.44-1.08.64-1.72-.44 1.28-1.76 3.279-2.839 3.679.24-1.28 1.08-2.599 1.759-3.678-1.08.4-1.959 1.519-2.838 2.398.2-1.119 1.079-1.998 1.519-2.838-1.52.84-2.399 2.838-3.718 3.918 1.08-2.639 3.958-5.477 3.278-8.315h-.44z" fill="#f2e2c8" fill-rule="evenodd"/><path d="M582.727 53.048c-.88 1.319-1.32 2.878-2.199 4.197-.88 1.52-1.959 2.639-3.078 3.958 1.32-1.12 2.878-1.999 4.158-3.078-.64.64-1.28 1.319-1.52 1.959.64-.2 1.08-1.08 1.76-1.52 0 .44-.24 1.08-.44 1.32.44-.24 1.079-.88 1.519-1.12-.2.68-.64 1.32-.44 2 .24-.24.68-.44 1.12-.88-.24.88-.68 1.759-.88 2.838 1.719-1.52 3.038-3.958 4.557-5.916a15.886 15.886 0 0 1-3.278 3.717c.44-.88 1.32-1.958 1.12-3.078-.68.44-1.32 1.12-1.96 1.76 0-.88.64-1.52.84-2.4-.4.44-1.08.88-1.519 1.32 0-.68.44-1.32.68-1.76-.44.2-1.12.64-1.76.88.2 0 .2-.24.2-.44-.2.44-.64.64-.879.88.44-1.32 1.12-2.199 1.32-3.318zm7.875 5.037c.44 1.319-.68 2.398-.68 3.478.44-.44.88-1.32 1.32-1.72 0 .84-.64 1.72-.88 2.56.24-.44.68-.84.88-1.08.2.88-.64 1.959-.88 2.998 1.52-1.04 2.199-3.198 3.478-4.477 0 .84-.44 1.919-1.08 2.758.2-.4.44-.84.64-1.28v1.52c1.32-2.359 3.039-4.757 3.718-7.316-.88 2.359-.88 5.157-1.959 7.516.44-1.72.84-3.438 1.52-5.157v.64c.839-1.72.2-4.718.44-6.676-.44 2.398-1.12 4.317-1.96 6.476 0-.88.2-1.96.44-2.799-.24 1.28-.68 2.359-1.12 3.638 0-.64.24-1.479.44-2.119-.839 1.04-1.079 2.559-1.958 3.638.24-.84.44-1.519.24-2.158-.64.64-1.08 1.718-1.76 2.158 0-.64.24-1.519 0-2.158-.4.44-.64 1.319-1.079 1.718v-.64z" fill="#f7eddc" fill-rule="evenodd"/><path d="M477.43 63.522c-2.358-1.32-4.996-1.56-7.355-2-2.199-.439-4.157-1.119-6.556-.879-5.876.68-9.994 4.637-14.791 8.395 3.918-3.518 10.034-5.516 15.03-6.396 2.16-.24 4.358-.24 6.717 0 1.959.2 5.237.2 6.956 1.12zm35.979 18.988c-8.915 1.959-17.19 4.797-25.265 8.955-2.398 1.319-4.557 2.638-7.195 3.717-2.16.88-4.558 1.32-6.756 2.639-2.839 1.719-7.396 3.677-10.914 3.677 2.399-.4 4.597-2.398 6.996-3.238 1.759-.44 3.038-1.319 4.557-1.998 2.639-1.08 5.237-1.96 7.636-3.038 3.917-1.96 7.875-4.158 11.792-5.917 3.478-1.519 6.756-3.038 10.234-4.357 2.399-.64 5.677-2.639 8.275-1.76zm-75.155-12.193c2.2.88 3.958 2.839 5.277 4.837 1.32 1.52 3.078 3.918 3.518 5.637-1.08-1.719-1.08-4.357-2.199-6.316-1.079-1.72-4.597-2.599-5.037-4.158z" fill="#f4ebf0" fill-rule="evenodd"/><path d="M444.17 89.426c.24 1.959 1.76 3.877 2.4 5.836.44.88.44 3.478 1.319 4.158.879.4 3.278-1.12 4.557-.88.68 0 .88.2 1.759.2.88 0 1.959-.64 2.838-.64 1.919-.2 3.678.44 5.437 0 2.358-.44 4.757-1.519 7.155-2.398 2.399-.84 4.558-2.598 7.196-3.478 3.238-1.28 6.276-2.798 9.794-3.878 2.159-.68 3.878-1.559 5.837-2.638-1.08-.44-4.318 1.08-5.637 1.32-3.038 1.079-6.316 1.518-9.354 2.598-2.16.88-4.558 1.519-6.756 2.398-1.52.64-3.678 1.959-5.197 1.72-.88 0-2.199-.84-3.038-1.28-1.32-.44-1.76 0-2.839-.24-2.398-.2-5.236-3.038-7.835-2.798-.24 2.158 1.08 6.276-2.398 7.155-2.16.44-3.678-3.917-4.797-5.436zm7.436 35.178c3.278 1.28 8.275-1.079 11.553-1.958 3.918-1.08 7.836-1.28 11.953-1.96 2.399-.399 4.557-1.518 6.756-2.158 2.359-.44 4.997-.2 7.356-.2 5.436 0 10.233-.68 15.23-3.278 2.839-1.279 5.237-2.598 7.636-4.517 1.279-1.08 2.158-2.598 3.677-3.478 1.96-1.519 4.358-2.398 5.637-4.357-4.317 2.638-8.235 6.076-12.792 8.475-3.278 1.719-5.877 2.158-9.594 2.598-3.478.44-6.716 1.719-10.194 1.959-3.718.44-7.196.84-10.674 1.719-5.436 1.08-11.313 1.08-16.51 3.038-2.838 1.08-7.195 3.038-10.034 2.159z" fill="#e6c6d5" fill-rule="evenodd"/><path d="M119.967 82.89c1.74 2.838 7.176 3.038 10.014 3.478 6.296.66 12.373 1.319 18.449 2.838 7.615 1.739 15.43 3.478 22.826 6.096 8.695 2.819 17.37 3.698 25.845 6.956 9.574 3.918 17.829 6.316 28.043 7.835 10.213 1.74 19.987 3.038 30.421 3.918 7.376.42 14.331 3.258 21.727 3.698 6.296.42 16.29-3.058 21.927-.22-1.72.64-4.997-.66-6.936-1.1-4.797-.859-9.574-1.738-14.132-1.958-7.175-.64-13.911-2.599-20.647-4.338-10.414-2.838-19.768-4.357-30.622-5.436-5.876-.66-11.952-.44-17.609-1.96-6.076-1.738-12.172-3.917-18.029-6.315-9.994-3.918-21.067-6.097-31.94-8.495-7.176-1.74-14.132-3.478-21.068-6.077-4.357-1.539-9.994-3.497-14.79-3.058zm84.769-6.636c1.28 3.478.86 7.175 2.578 10.433 1.72 3.258 4.538 5.657 6.676 8.255-6.036-3.038-16.39-11.073-11.413-19.348zm55.127-7.975c3.038 2.418 6.715 3.058 9.334 6.116 2.818 3.058 4.557 6.556 7.156 9.614 5.636 6.556 12.592 10.714 20.387 13.972-9.534-2.839-17.79-5.897-25.165-12.873-6.076-5.456-7.155-14.85-15.85-17.27zM379.73 116.13c10.274 2.398 19.628 4.797 28.583 11.313 8.714 6.116 16.79 12.432 23.945 20.267-4.117-3.677-7.156-12.192-12.193-16.35-4.357-3.677-9.594-6.516-14.83-8.474-7.596-2.839-14.792-5.677-22.227-7.876z" fill="#e9f2f6" fill-rule="evenodd"/><path d="M401.916 82.43s-1.479-.64-3.837-1.919c-2.119-1.519-5.557-2.398-5.997-2.398m20.308 9.674s2.439 1.08 3.078 1.519c.68.44 3.958 1.519 5.677 2.398 1.759.84 5.916 1.72 7.435 2.16 1.32.439 3.518 1.078 3.718 1.918" fill="none" stroke="#494f4e" stroke-width=".08" stroke-linecap="round" stroke-miterlimit="8"/><path d="M380.13 80.751c3.957 1.759 7.635 2.199 11.992 2.838 3.918.64 6.317 2.159 10.034 3.918 6.556 3.238 13.512 5.637 20.028 8.875-6.756-3.039-13.272-6.916-19.388-11.074-5.637-3.677-10.874-5.636-17.19-8.035z" fill="#e9f2f6" fill-rule="evenodd"/><path d="M589.403 68.039c1.959.88 5.197-.64 6.956-1.76 2.598-1.079 5.396-2.398 8.235-3.077 2.598-.88 6.036-1.96 7.755-4.198" fill="none" stroke="#494f4e" stroke-width=".08" stroke-linecap="round" stroke-miterlimit="8"/><path d="M21.167 144.752c1.74.66 8.695 3.278 12.613 4.158 5.656 1.319 11.313 2.618 16.97 3.718 11.093 2.198 22.825 4.377 33.919 4.817 22.626 1.099 45.252.88 67.859 1.978 4.137.2 8.275.2 12.612.2-15.65-4.797-32.4-3.058-48.71-5.237-15.231-1.758-31.102-1.319-46.113-4.597-10.213-2.198-20.667-4.817-30.661-5.916-3.258-.22-7.176-.88-10.234-.88-3.478.22-8.255 2.419-11.313 1.32zm618.565-82.43c-.24 4.158 5.237 4.797 7.396 6.756 2.598 2.599-2.399 4.997-4.797 6.716-4.797 3.478-8.915 9.794-14.791 11.513-5.037 1.52-10.034.68-15.031 1.12-4.158.4-8.275 0-12.193 1.279-3.278 1.079-6.316 2.598-9.594 3.917-7.196 2.599-14.591 4.997-21.787 7.596-3.038 1.079-6.516 2.198-9.794 3.038-3.478 1.08-7.395 1.08-10.474 2.598 6.996-3.038 14.392-5.197 21.787-7.595 7.196-2.159 13.952-5.637 21.347-7.596 8.715-2.598 17.87-5.436 26.784-6.516 3.518-.64 6.316-1.319 9.394-2.838 3.478-1.919 6.756-4.757 10.234-6.716 2.159-1.319 6.316-1.759 6.516-4.997.24-3.038-4.557-5.436-6.316-7.395zm-23.585-6.796c-1.32 2.639-1.72 4.358-4.118 5.877a40.873 40.873 0 0 1-6.556 2.638c-3.878 1.08-7.156 3.238-10.873 4.557-4.118 1.52-6.716-.2-10.634-.2-2.398 0-4.997 1.08-7.196 1.96-3.238.839-6.516 1.079-9.794 1.718 6.756.64 13.952-1.079 20.668-.44 3.718.44 8.275-.639 11.753-1.718 4.997-1.32 9.594-2.839 13.072-6.556 1.959-1.72 5.836-4.318 4.557-7.396z" fill="#ecf4f7" fill-rule="evenodd"/><path d="M599.796 52.008c.44 3.478 1.76 5.877-.2 8.915-1.758 2.399-3.957 4.118-6.156 5.637 2.879-.64 5.277-3.038 7.916-4.118 2.838-1.08 5.676-1.959 8.075-3.678-2.839.64-3.718 1.72-5.237-.88-.44-1.078-.44-2.398-1.08-3.037-.879-1.08-1.998-.88-3.078-1.72z" fill="#c6e3ea" fill-rule="evenodd"/></svg>