<svg xmlns="http://www.w3.org/2000/svg" version="1.0" viewBox="0 0 172.573 208.781"><defs><clipPath clipPathUnits="userSpaceOnUse" id="a"><path d="M1.599-.4h172.376v208.914H1.599z"/></clipPath></defs><path d="M10.034 184.608c0-8.355 34.899-15.15 77.873-15.15 43.014 0 77.873 6.795 77.873 15.15 0 8.395-34.86 15.15-77.873 15.15-42.974 0-77.873-6.755-77.873-15.15z" fill="#feedb4" fill-rule="evenodd" fill-opacity="1" stroke="none"/><path clip-path="url(#a)" d="M89.666 198.08c37.417-.32 72.596-6.636 72.596-13.952 0-4.997-16.19-8.634-37.058-10.993 38.017 5.677 49.21 18.629-35.538 24.945z" fill="#fff" fill-rule="evenodd" fill-opacity="1" stroke="none"/><path d="M165.78 192.483c0 8.315-34.94 14.951-77.993 14.951-43.094 0-77.753-6.636-77.753-14.95v-7.996c0 8.315 34.659 15.31 77.753 15.31 43.054 0 77.993-6.995 77.993-15.31v7.995z" fill="#fedf77" fill-rule="evenodd" fill-opacity="1" stroke="none"/><path d="M10.354 124.325c0-2.319 12.672-4.198 28.263-4.198 15.61 0 28.262 1.88 28.262 4.198 0 2.318-12.652 4.197-28.262 4.197-15.591 0-28.263-1.879-28.263-4.197zM108.614 124.325c0-2.319 12.672-4.198 28.263-4.198 15.63 0 28.263 1.88 28.263 4.198 0 2.318-12.632 4.197-28.263 4.197-15.59 0-28.263-1.879-28.263-4.197z" fill="#6faabb" fill-rule="evenodd" fill-opacity="1" stroke="none"/><path d="M85.028 16.19v21.347h5.837V16.19h-5.837z" fill="#fede77" fill-rule="evenodd" fill-opacity="1" stroke="none"/><path d="M80.151 11.553v4.637h15.031v-4.637h-15.03zM80.151 37.537v4.318h15.031v-4.318h-15.03z" fill="#feeeb6" fill-rule="evenodd" fill-opacity="1" stroke="none"/><path d="M61.523 173.495c0-2.758 11.753-4.997 26.224-4.997 14.511 0 26.224 2.239 26.224 4.997 0 2.798-11.713 4.997-26.224 4.997-14.471 0-26.224-2.199-26.224-4.997z" fill="#feedb4" fill-rule="evenodd" fill-opacity="1" stroke="none"/><path d="M83.03 160.303c0-.46 2.118-.84 4.717-.84 2.618 0 4.717.38 4.717.84 0 .48-2.099.84-4.717.84-2.599 0-4.717-.36-4.717-.84z" fill="#fede77" fill-rule="evenodd" fill-opacity="1" stroke="none"/><path d="M119.008 183.449c0 3.358-14.032 7.355-31.261 7.355-17.19 0-31.261-3.997-31.261-7.355v-5.357c0 3.718 14.071 7.715 31.26 7.715 17.23 0 31.262-3.997 31.262-7.715v5.357z" fill="#feca2c" fill-rule="evenodd" fill-opacity="1" stroke="none"/><path d="M113.97 177.492c0 2.679-11.512 4.997-26.223 4.997-14.351 0-26.224-2.318-26.224-4.997v-4.037c0 2.678 11.873 5.037 26.224 5.037 14.71 0 26.224-2.359 26.224-5.037v4.037z" fill="#feca2c" fill-rule="evenodd" fill-opacity="1" stroke="none"/><path d="M114.01 175.134v2.358c0 2.639-11.552 4.957-26.263 4.957-14.351 0-26.224-2.318-26.224-4.957v-2.358c-3.158.68-5.037 1.999-5.037 2.998 0 3.678 14.071 7.635 31.26 7.635 17.23 0 31.262-3.957 31.262-7.635 0-1-1.839-2.319-4.997-2.998z" fill="#feeeb8" fill-rule="evenodd" fill-opacity="1" stroke="none"/><path d="M35.059 29.382c0-2.119 1.599-3.837 3.558-3.837 1.978 0 3.557 1.718 3.557 3.837 0 2.139-1.579 3.838-3.557 3.838-1.96 0-3.558-1.7-3.558-3.838z" fill="#feeeb6" fill-rule="evenodd" fill-opacity="1" stroke="none"/><path d="m59.384 25.205-2.199 1c-6.256 2.997-12.512 2.658-15.33 1.658.32.34.32 1 .32 1.68 0 .319 0 .998-.32 1.658 3.757 1.34 10.014 2.658 16.59-.34l2.198-1c6.876-2.997 14.691-3.997 24.385 3.679v-7.676c-11.573-7.675-18.768-3.997-25.644-.66z" fill="#a8cad3" fill-rule="evenodd" fill-opacity="1" stroke="none"/><path d="M83.99 4.397C83.99 2.32 85.687.6 87.746.6c2.079 0 3.758 1.719 3.758 3.797 0 2.1-1.68 3.798-3.758 3.798-2.059 0-3.758-1.699-3.758-3.798zM35.698 43.853v8.315h6.157v-8.315h-6.157z" fill="#feeeb6" fill-rule="evenodd" fill-opacity="1" stroke="none"/><path d="M41.255 32.18c-.3.34-.92.68-1.54 1 .62 1.679 1.24 3.678 1.24 4.997 0 1-.94 1.999-2.179 1.999-.919 0-1.858-1-1.858-2 0-.659-.3-.999-.92-.999-.32 0-.94.34-.94 1 0 1.999 1.86 3.997 3.718 3.997 2.18 0 3.718-1.998 3.718-3.997 0-1.66-.62-4.318-1.239-5.997z" fill="#7bb0c0" fill-rule="evenodd" fill-opacity="1" stroke="none"/><path d="M133.32 29.382c0-2.119 1.598-3.837 3.557-3.837 1.999 0 3.558 1.718 3.558 3.837s-1.56 3.838-3.558 3.838c-1.959 0-3.558-1.72-3.558-3.838z" fill="#feeeb6" fill-rule="evenodd" fill-opacity="1" stroke="none"/><path d="m116.17 25.225 2.198 1c6.236 2.997 12.473 2.638 15.271 1.638-.28.36-.28 1-.28 1.68 0 .319 0 .998.28 1.678-3.718 1.32-9.954 2.638-16.51-.36l-2.199-1c-6.875-2.997-14.67-3.997-24.065 3.679v-7.676c11.273-7.675 18.429-3.997 25.305-.64z" fill="#a8cad3" fill-rule="evenodd" fill-opacity="1" stroke="none"/><path d="M133.959 43.853v8.315h5.836v-8.315h-5.836z" fill="#feeeb6" fill-rule="evenodd" fill-opacity="1" stroke="none"/><path d="M134.239 32.18c.32.36.96.68 1.559 1-.6 1.679-.92 3.678-.92 4.997 0 1 .6 1.999 1.84 1.999.959 0 1.878-1 1.878-2 0-.639.32-.999.92-.999.32 0 .919.36.919 1 0 1.999-1.839 3.997-3.718 3.997-2.159 0-3.718-1.998-3.718-3.997 0-1.64.96-4.318 1.24-5.997z" fill="#7bb0c0" fill-rule="evenodd" fill-opacity="1" stroke="none"/><path d="M87.747 161.162c-1.24 0-2.499 0-3.458-.34h-1.26v12.333c.64 1.32 8.496 1.979 9.435 0v-12.332h-1.24c-.959.34-2.218.34-3.477.34z" fill="#feeeb6" fill-rule="evenodd" fill-opacity="1" stroke="none"/><path d="M89.985 159.843V42.174h-4.477v117.67c.32.339 4.158.659 4.477 0z" fill="#fede77" fill-rule="evenodd" fill-opacity="1" stroke="none"/><path d="M86.867 6.536c1.56 1.659 4.957-2.998 1.86-4.337.619 1.339.319 3.997-1.24 3.997zM83.35 14.911h8.155c1.858.32 2.798-.34 1.858-2.319-1.239.34-1.858 1.32-3.118 1.66-.94.32-1.879 0-2.818 0-.94.32-1.879.659-2.818.979zM87.107 17.57c.96.34 1.919-.34 2.559.34v7.335c0 2.338 0 4.677-.32 6.676 0 .66.32 3.338 0 3.657-.64 1-3.198 0-4.158.68 2.239-1 2.879-2.678 3.198-5.017.32-1.659.32-3.658 0-5.337 0-1-.64-7.335-.64-8.335z" fill="#feca2d" fill-rule="evenodd" fill-opacity="1" stroke="none"/><path d="M91.824 26.904v4.677c3.758-3.678 11.553-8.035 21.507-3.318 9.674 4.317 11.234 3.678 14.631 2.998-6.516.68-11.513-3.358-17.429-5.357-6.236-2.358-17.15-1-18.709 1z" fill="#8cb9c6" fill-rule="evenodd" fill-opacity="1" stroke="none"/><path d="M138.596 27.863c1.2 1.04 0 4.717-2.478 4.078 1.239-1.04 3.078-2.359 2.478-4.078zM138.596 45.213v5.676h-3.758c2.199-.64 3.758-1.639 3.758-5.676z" fill="#feca2d" fill-rule="evenodd" fill-opacity="1" stroke="none"/><path d="m83.37 26.904.3 4.677c-3.738-3.678-11.514-8.035-21.488-3.338-9.974 4.337-11.533 3.678-14.97 3.018 6.855.66 11.852-3.358 17.769-5.357 6.236-2.358 17.15-1.02 18.388 1z" fill="#8cb9c6" fill-rule="evenodd" fill-opacity="1" stroke="none"/><path d="M40.316 27.863c1.219 1.02 0 4.717-2.459 4.058 1.24-1.02 3.078-2.359 2.459-4.058zM40.655 45.213v5.676h-3.757c1.878-.66 3.757-1.659 3.757-5.676zM94.303 38.896v2H83.669c4.398 0 10.014-.32 10.634-2zM86.468 43.534h2.558v114.97s-.96-111.293-1.28-113.291zM85.028 172.136c1.52 1 4.538.68 5.437 0v-8.995c0 3.678-1.499 8.675-5.437 8.995z" fill="#feca2d" fill-rule="evenodd" fill-opacity="1" stroke="none"/><path d="M95.502 172.116c-.6-1.66-3.078-2.339-3.078-2.339s.32 1 0 2.678c0 1.66-3.998 3.318-7.396 2.999 7.396.32 10.474-.68 10.474-3.338zM106.455 181.49c3.438.32 8.715-1 9.035-5.397.32.36 1.56 1.04 1.879 1.36.6 1.359-.96 1.998-1.879 2.678-2.798 1.679-6.556 2.678-9.994 2.678z" fill="#feca2d" fill-rule="evenodd" fill-opacity="1" stroke="none"/><path d="M44.013 173.135c-18.988 3.338-37.977 7.995-30.501 13.992-.3-5.657 9.034-9.655 30.501-13.992zM77.193 170.097c-6.576 1-15.99 2.998-11.273 3.997 1.56-1.659 7.835-3.657 11.273-3.997zM84.929 170.497c0-2.319-.62-5.337-.3-7.676.92 0 2.138.34 3.038.34-2.119 1.34-2.119 2.998-1.819 5.337zM38.077 27.224c-1.779.34-2.379 2.678-.9 3.677.3-1.319-.28-3.677 1.48-3.677zM136.437 26.904c-1.519.68-2.158 2.998-.6 4.317.28-1.639 1.2-2.319 1.8-3.638zM86.767 1.879c-1.818.68-2.138 2.998-.62 4.317 0-1.659.92-2.638 1.52-3.638zM135.478 45.572c0 1.32-.32 2.639-.32 3.638.32-1.319.32-2.638.32-3.997.92 0 1.559 0 2.159.36-.6.639-2.16 1.319-1.84 2.638z" fill="#fff" fill-rule="evenodd" fill-opacity="1" stroke="none"/><path d="M87.707 178.532c-14.311 0-26.144-2.339-26.144-5.037" fill="none" stroke="#fec43e" stroke-width="1.1992731px" stroke-linecap="round" stroke-linejoin="round" stroke-miterlimit="4" stroke-dasharray="none" stroke-opacity="1"/><path d="M85.508 8.195v3.358h4.477V8.195h-4.477z" fill="#feeeb6" fill-rule="evenodd" fill-opacity="1" stroke="none"/><path d="m83.07 168.538.16.16" fill="none" stroke="#ffad00" stroke-width="1.1992731px" stroke-linecap="round" stroke-linejoin="round" stroke-miterlimit="4" stroke-dasharray="none" stroke-opacity="1"/><path d="m61.563 177.492.16-2.318" fill="none" stroke="#fec43e" stroke-width="1.1992731px" stroke-linecap="round" stroke-linejoin="round" stroke-miterlimit="4" stroke-dasharray="none" stroke-opacity="1"/><path d="M114.01 177.492c0 2.719-11.512 5.037-26.223 5.037-14.352 0-26.224-2.318-26.224-5.037" fill="none" stroke="#fff" stroke-width="1.1992731px" stroke-linecap="round" stroke-linejoin="round" stroke-miterlimit="4" stroke-dasharray="none" stroke-opacity="1"/><path d="M165.14 124.125c0 8.675-12.792 15.67-28.383 15.67-15.31 0-28.143-6.995-28.143-15.67 0 2.358 12.832 4.357 28.143 4.357 15.59 0 28.383-1.999 28.383-4.357z" fill="#a8cad3" fill-rule="evenodd" fill-opacity="1" stroke="none"/><path d="M136.437 138.516c7.196 0 20.628-1.999 26.864-10.394-3.718.68-7.156 1.36-9.674 1.36-.6 3.038-8.755 8.035-17.19 9.034z" fill="#8cb9c6" fill-rule="evenodd" fill-opacity="1" stroke="none"/><path d="M10.354 124.125c0 8.675 12.812 15.67 28.422 15.67 15.311 0 28.103-6.995 28.103-15.67 0 2.338-12.492 4.337-28.103 4.337-15.61 0-28.422-1.999-28.422-4.337z" fill="#a8cad3" fill-rule="evenodd" fill-opacity="1" stroke="none"/><path d="M37.857 138.516c7.176 0 20.568-1.999 26.784-10.394-3.738.68-7.156 1.36-9.335 1.36-.939 3.018-8.714 8.035-17.449 9.034z" fill="#8cb9c6" fill-rule="evenodd" fill-opacity="1" stroke="none"/><path d="M123.725 136.118c-1.879-.64-5.956-2.639-7.236-4.957-.919-2 18.19-.32 20.668-1.68-9.674 1.36-22.546-.999-25.665-1.998-.64 1 2.2 4.997 12.233 8.635zM24.965 136.118c-1.879-.66-5.917-2.639-7.176-4.977-.92-1.98 18.07-.32 20.548-1.66-9.954 1.34-22.726-.999-25.525-1.998-.94 1 1.88 4.997 12.153 8.635zM55.526 121.806c3.138 0 9.694 1.36 10.314 2.719-1.559-.68-7.495-2.04-10.314-2.719zM154.426 121.806c2.839 0 9.715 1.36 9.994 2.719-1.239-.68-7.475-2.04-9.994-2.719z" fill="#fff" fill-rule="evenodd" fill-opacity="1" stroke="none"/><path d="M115.85 127.203c5.317.68 12.792 1.32 20.907 1.32 9.035 0 17.15-.64 22.107-1.68 1.239-.32-10.914-3.038-22.107-3.038-10.913 0-22.466 3.038-20.907 3.398zM17.45 127.183c5.316.68 12.812 1.34 20.947 1.34 9.074 0 17.21-.66 22.206-1.68 1.24-.34-11.253-3.038-22.206-3.038-10.954 0-22.527 3.038-20.948 3.378z" fill="#2e778e" fill-rule="evenodd" fill-opacity="1" stroke="none"/><path d="M10.354 124.325c0-2.319 12.672-4.198 28.263-4.198 15.61 0 28.262 1.88 28.262 4.198 0 2.318-12.652 4.197-28.262 4.197-15.591 0-28.263-1.879-28.263-4.197M80.151 11.553h15.031v4.637h-15.03zM83.99 4.397C83.99 2.32 85.687.6 87.746.6c2.079 0 3.758 1.719 3.758 3.797 0 2.1-1.68 3.798-3.758 3.798-2.059 0-3.758-1.699-3.758-3.798M85.028 16.19h5.837v21.347h-5.837zM85.508 8.195h4.477v3.358h-4.477zM59.384 25.205l-2.199 1c-6.256 2.997-12.512 2.658-15.33 1.658.32.34.32 1 .32 1.68 0 .319 0 .998-.32 1.658 3.757 1.34 10.014 2.658 16.59-.34l2.198-1c6.876-2.997 14.691-3.997 24.385 3.679v-7.676c-11.573-7.675-18.768-3.997-25.644-.66M116.17 25.225l2.198 1c6.236 2.997 12.473 2.638 15.271 1.638-.28.36-.28 1-.28 1.68 0 .319 0 .998.28 1.678-3.718 1.32-9.954 2.638-16.51-.36l-2.199-1c-6.875-2.997-14.67-3.997-24.065 3.679v-7.676c11.273-7.675 18.429-3.997 25.305-.64" fill="none" stroke="#333" stroke-width=".63961238px" stroke-linecap="round" stroke-linejoin="round" stroke-miterlimit="4" stroke-dasharray="none" stroke-opacity="1"/><path d="M80.151 37.537h15.031v4.318h-15.03zM35.059 29.382c0-2.119 1.599-3.837 3.558-3.837 1.978 0 3.557 1.718 3.557 3.837 0 2.139-1.579 3.838-3.557 3.838-1.96 0-3.558-1.7-3.558-3.838M133.32 29.382c0-2.119 1.598-3.837 3.557-3.837 1.999 0 3.558 1.718 3.558 3.837s-1.56 3.838-3.558 3.838c-1.959 0-3.558-1.72-3.558-3.838M38.657 39.216l.24 4.637M133.959 43.853h5.836v8.315h-5.836zM35.698 43.853h6.157v8.315h-6.157z" fill="none" stroke="#333" stroke-width=".63961238px" stroke-linecap="round" stroke-linejoin="round" stroke-miterlimit="4" stroke-dasharray="none" stroke-opacity="1"/><path d="M57.485 90.145h17.15v33.98H2.518v-33.98h54.967z" fill="#fff" fill-rule="evenodd" fill-opacity="1" stroke="none"/><path clip-path="url(#a)" d="M57.485 90.145h17.15v33.98H2.518v-33.98h17.49" fill="none" stroke="#000" stroke-width=".63961238px" stroke-linecap="butt" stroke-linejoin="miter" stroke-miterlimit="8" stroke-dasharray="none" stroke-opacity="1"/><path d="m25.704 90.145 26.784.16" fill="none" stroke="#000" stroke-width=".63961238px" stroke-linecap="butt" stroke-linejoin="miter" stroke-miterlimit="8" stroke-dasharray="none" stroke-opacity="1"/><path d="M66.88 124.125 41.214 52.568M108.614 124.325c0-2.319 12.672-4.198 28.263-4.198 15.63 0 28.263 1.88 28.263 4.198 0 2.318-12.632 4.197-28.263 4.197-15.59 0-28.263-1.879-28.263-4.197M10.354 124.125c0 8.675 12.812 15.67 28.422 15.67 15.311 0 28.103-6.995 28.103-15.67 0 0 0 0 0 0 0 2.338-12.492 4.337-28.103 4.337-15.61 0-28.422-1.999-28.422-4.337M10.354 124.125l25.824-71.557M136.837 39.216l.16 4.637M89.965 159.463c1.56.34 2.499.34 2.499 1.02 0 .34-2.199.66-4.717.66-2.499 0-4.717-.32-4.717-.66s.96-.68 2.218-1.02" fill="none" stroke="#333" stroke-width=".63961238px" stroke-linecap="round" stroke-linejoin="round" stroke-miterlimit="10" stroke-dasharray="none" stroke-opacity="1"/><path d="M87.747 161.162c-1.24 0-2.499 0-3.458-.34h-1.26v12.333c.64 1.32 8.496 1.979 9.435 0v-12.332h-1.24c-.959.34-2.218.34-3.477.34M89.985 159.843V42.174h-4.477v117.67c.32.339 4.158.659 4.477 0M61.483 175.134c-3.118.68-4.997 1.999-4.997 2.998 0 3.658 14.031 7.635 31.18 7.635" fill="none" stroke="#333" stroke-width=".63961238px" stroke-linecap="round" stroke-linejoin="round" stroke-miterlimit="10" stroke-dasharray="none" stroke-opacity="1"/><path d="M56.486 178.092c0 3.718 14.071 7.715 31.26 7.715 17.23 0 31.262-3.997 31.262-7.715v5.357c0 3.358-14.032 7.355-31.261 7.355-17.19 0-31.261-3.997-31.261-7.355M56.486 183.449l.16-5.357" fill="none" stroke="#333" stroke-width=".63961238px" stroke-linecap="round" stroke-linejoin="round" stroke-miterlimit="10" stroke-dasharray="none" stroke-opacity="1"/><path d="M87.787 185.767c17.19 0 31.22-3.957 31.22-7.635 0-1-1.838-2.319-4.996-2.998v2.358c0 2.639-11.553 4.957-26.224 4.957-14.391 0-26.264-2.318-26.264-4.957" fill="none" stroke="#333" stroke-width=".63961238px" stroke-linecap="round" stroke-linejoin="round" stroke-miterlimit="10" stroke-dasharray="none" stroke-opacity="1"/><path d="M56.486 178.092c0 3.678 14.071 7.675 31.26 7.675 17.23 0 31.262-3.997 31.262-7.675" fill="none" stroke="#333" stroke-width=".63961238px" stroke-linecap="round" stroke-linejoin="round" stroke-miterlimit="10" stroke-dasharray="none" stroke-opacity="1"/><path d="M113.97 177.492c0 2.679-11.512 4.997-26.223 4.997-14.351 0-26.224-2.318-26.224-4.997v-4.037c0 2.678 11.873 5.037 26.224 5.037 14.71 0 26.224-2.359 26.224-5.037v4.037zM165.78 192.483c0 8.315-34.94 14.951-77.993 14.951-43.094 0-77.753-6.636-77.753-14.95v-7.996c0 8.315 34.659 15.31 77.753 15.31 43.054 0 77.993-6.995 77.993-15.31v7.995z" fill="none" stroke="#333" stroke-width=".63961238px" stroke-linecap="round" stroke-linejoin="round" stroke-miterlimit="10" stroke-dasharray="none" stroke-opacity="1"/><path d="M92.464 168.498v4.677c-.96 1.999-8.755 1.32-9.394 0v-4.677c-12.153.36-21.547 2.358-21.547 4.997 0 2.678 11.873 4.997 26.224 4.997 14.71 0 26.224-2.319 26.224-4.997 0-2.639-9.354-4.637-21.507-4.997" fill="none" stroke="#333" stroke-width=".63961238px" stroke-linecap="round" stroke-linejoin="round" stroke-miterlimit="10" stroke-dasharray="none" stroke-opacity="1"/><path d="M105.856 169.777c4.997 1 8.115 2.359 8.115 3.678 0 2.678-11.513 4.997-26.184 4.997-14.391 0-26.224-2.319-26.224-4.997 0-1.32 3.118-2.679 8.115-3.678-34.34 1.68-59.644 7.675-59.644 14.671 0 8.315 34.659 15.31 77.753 15.31 43.054 0 77.993-6.995 77.993-15.31 0-6.996-25.585-12.992-59.924-14.67M165.14 124.125c0 8.675-12.792 15.67-28.383 15.67-15.31 0-28.143-6.995-28.143-15.67 0 0 0 0 0 0 0 2.358 12.832 4.357 28.143 4.357 15.59 0 28.383-1.999 28.383-4.357M41.255 32.18c-.3.34-.92.68-1.54 1 .62 1.679 1.24 3.678 1.24 4.997 0 1-.94 1.999-2.179 1.999-.919 0-1.858-1-1.858-2 0-.659-.3-.999-.92-.999-.32 0-.94.34-.94 1 0 1.999 1.86 3.997 3.718 3.997 2.18 0 3.718-1.998 3.718-3.997 0-1.66-.62-4.318-1.239-5.997M134.239 32.18c.32.36.96.68 1.559 1-.6 1.679-.92 3.678-.92 4.997 0 1 .6 1.999 1.84 1.999.959 0 1.878-1 1.878-2 0-.639.32-.999.92-.999.32 0 .919.36.919 1 0 1.999-1.839 3.997-3.718 3.997-2.159 0-3.718-1.998-3.718-3.997 0-1.64.96-4.318 1.24-5.997" fill="none" stroke="#333" stroke-width=".63961238px" stroke-linecap="round" stroke-linejoin="round" stroke-miterlimit="10" stroke-dasharray="none" stroke-opacity="1"/><path d="m38.337 52.168.16 38.377" fill="none" stroke="#000" stroke-width=".63961238px" stroke-linecap="butt" stroke-linejoin="miter" stroke-miterlimit="8" stroke-dasharray="none" stroke-opacity="1"/><path d="M155.826 90.145h17.15v33.98h-72.117v-33.98h54.967z" fill="#fff" fill-rule="evenodd" fill-opacity="1" stroke="none"/><path clip-path="url(#a)" d="M155.826 90.145h17.15v33.98h-72.117v-33.98h17.51" fill="none" stroke="#000" stroke-width=".63961238px" stroke-linecap="butt" stroke-linejoin="miter" stroke-miterlimit="8" stroke-dasharray="none" stroke-opacity="1"/><path d="m123.965 90.145 26.864.16" fill="none" stroke="#000" stroke-width=".63961238px" stroke-linecap="butt" stroke-linejoin="miter" stroke-miterlimit="8" stroke-dasharray="none" stroke-opacity="1"/><path d="m165.14 124.125-25.505-71.557M108.614 124.125l25.665-71.557" fill="none" stroke="#333" stroke-width=".63961238px" stroke-linecap="round" stroke-linejoin="round" stroke-miterlimit="10" stroke-dasharray="none" stroke-opacity="1"/><path d="m136.837 52.168.16 38.377" fill="none" stroke="#000" stroke-width=".63961238px" stroke-linecap="butt" stroke-linejoin="miter" stroke-miterlimit="8" stroke-dasharray="none" stroke-opacity="1"/></svg>