<?xml version="1.0" encoding="UTF-8" standalone="no"?>
<svg
   xmlns:dc="http://purl.org/dc/elements/1.1/"
   xmlns:cc="http://creativecommons.org/ns#"
   xmlns:rdf="http://www.w3.org/1999/02/22-rdf-syntax-ns#"
   xmlns:svg="http://www.w3.org/2000/svg"
   xmlns="http://www.w3.org/2000/svg"
   id="svg1198"
   version="1.1"
   viewBox="0 0 100 100"
   height="100mm"
   width="100mm">
  <defs
     id="defs1192" />
  <metadata
     id="metadata1195">
    <rdf:RDF>
      <cc:Work
         rdf:about="">
        <dc:format>image/svg+xml</dc:format>
        <dc:type
           rdf:resource="http://purl.org/dc/dcmitype/StillImage" />
        <dc:title></dc:title>
      </cc:Work>
    </rdf:RDF>
  </metadata>
  <g
     transform="translate(0,-197)"
     id="layer1">
    <g
       transform="matrix(2.1137145,0,0,2.1137145,-191.95014,-9.1019386)"
       id="g6148">
      <g
         id="g1134"
         style="fill:#ffc022"
         transform="translate(104.82901,-34.785643)">
        <path
           transform="scale(0.26458333)"
           id="path1130"
           style="opacity:1;fill:#ffc022;fill-opacity:1;stroke:#000000;stroke-width:0.04772374;stroke-linecap:round;stroke-linejoin:round;stroke-miterlimit:4;stroke-dasharray:none;stroke-dashoffset:0;stroke-opacity:1;paint-order:stroke markers fill"
           d="m 15.486881,573.8039 c 0.01419,1.72923 0.02107,3.4593 0.03983,5.188 0.540826,1.44121 1.939594,2.28457 3.237003,2.96176 3.297726,1.61814 6.957368,2.30172 10.570608,2.78889 2.840359,0.3472 5.704216,0.52897 8.56616,0.4478 2.215856,-0.005 4.431733,-0.0882 6.632833,-0.35559 3.686324,-0.41971 7.39395,-1.11373 10.807179,-2.61425 1.356445,-0.64795 2.811937,-1.41702 3.557299,-2.7874 0.389855,-0.51865 0.21529,-1.17194 0.259021,-1.77266 0.01017,-1.2611 0.02034,-2.5222 0.03051,-3.78331 -0.319289,0.14514 -0.599844,0.522 -0.938263,0.72149 -2.256758,1.51782 -4.942558,2.20787 -7.575944,2.73863 -5.485761,1.01779 -11.099097,1.20567 -16.665875,0.99322 -4.475868,-0.21739 -8.981462,-0.65782 -13.297436,-1.91304 -1.841734,-0.59078 -3.752211,-1.26997 -5.172367,-2.63561 z m 21.614329,-8.93835 c -2.474638,-0.003 -4.953379,0.0574 -7.40904,0.38847 -3.696796,0.46319 -7.432836,1.16013 -10.818667,2.77425 -1.234662,0.63981 -2.572174,1.3937 -3.201658,2.69683 -0.411811,0.83921 -0.02078,1.82525 0.638127,2.41367 1.383697,1.27058 3.225998,1.87168 4.988163,2.41175 4.404488,1.23267 8.991612,1.64107 13.546707,1.81804 3.693502,0.0407 7.397142,0.0599 11.073755,-0.34787 3.433437,-0.37949 6.914213,-0.90437 10.103121,-2.2937 1.135597,-0.53176 2.313338,-1.22765 2.933837,-2.35911 0.404583,-0.81198 0.113559,-1.78548 -0.49292,-2.41162 -1.410848,-1.56197 -3.447478,-2.34952 -5.39372,-3.01421 -3.937015,-1.26043 -8.068154,-1.81614 -12.185116,-2.03543 -1.260423,-0.0389 -2.521664,-0.0432 -3.782589,-0.0411 z" />
        <path
           id="path1132"
           style="fill:#ffc022;stroke:#000000;stroke-width:0.5;stroke-linecap:butt;stroke-linejoin:miter;stroke-miterlimit:4;stroke-dasharray:none;stroke-opacity:1"
           d="m 15.786412,151.22049 -0.005,1.84323 c 9.22e-4,1.05604 -2.643642,1.90975 -5.9058783,1.90975 -3.2622361,0 -5.9067997,-0.85371 -5.9067947,-1.9068 m 0,0 v -1.85209 m 11.81359,0 c 5e-6,1.0531 -2.520104,1.69221 -5.78234,1.69221 -3.2622361,0 -6.031255,-0.63911 -6.03125,-1.69221 1.21e-5,-1.05309 2.6445707,-1.90679 5.9067947,-1.90679 3.2622243,0 5.9067833,0.8537 5.9067953,1.90679 z" />
      </g>
      <g
         id="g1110"
         transform="translate(104.82902,-39.724537)"
         style="fill:#ff4141">
        <g
           id="g1108"
           style="fill:#ff4141">
          <path
             transform="scale(0.26458333)"
             id="path1104"
             style="opacity:1;fill:#ff4141;fill-opacity:1;stroke:#000000;stroke-width:0.04772374;stroke-linecap:round;stroke-linejoin:round;stroke-miterlimit:4;stroke-dasharray:none;stroke-dashoffset:0;stroke-opacity:1;paint-order:stroke markers fill"
             d="m 15.486881,573.8039 c 0.01419,1.72923 0.02107,3.4593 0.03983,5.188 0.540826,1.44121 1.939594,2.28457 3.237003,2.96176 3.297726,1.61814 6.957368,2.30172 10.570608,2.78889 2.840359,0.3472 5.704216,0.52897 8.56616,0.4478 2.215856,-0.005 4.431733,-0.0882 6.632833,-0.35559 3.686324,-0.41971 7.39395,-1.11373 10.807179,-2.61425 1.356445,-0.64795 2.811937,-1.41702 3.557299,-2.7874 0.389855,-0.51865 0.21529,-1.17194 0.259021,-1.77266 0.01017,-1.2611 0.02034,-2.5222 0.03051,-3.78331 -0.319289,0.14514 -0.599844,0.522 -0.938263,0.72149 -2.256758,1.51782 -4.942558,2.20787 -7.575944,2.73863 -5.485761,1.01779 -11.099097,1.20567 -16.665875,0.99322 -4.475868,-0.21739 -8.981462,-0.65782 -13.297436,-1.91304 -1.841734,-0.59078 -3.752211,-1.26997 -5.172367,-2.63561 z m 21.614329,-8.93835 c -2.474638,-0.003 -4.953379,0.0574 -7.40904,0.38847 -3.696796,0.46319 -7.432836,1.16013 -10.818667,2.77425 -1.234662,0.63981 -2.572174,1.3937 -3.201658,2.69683 -0.411811,0.83921 -0.02078,1.82525 0.638127,2.41367 1.383697,1.27058 3.225998,1.87168 4.988163,2.41175 4.404488,1.23267 8.991612,1.64107 13.546707,1.81804 3.693502,0.0407 7.397142,0.0599 11.073755,-0.34787 3.433437,-0.37949 6.914213,-0.90437 10.103121,-2.2937 1.135597,-0.53176 2.313338,-1.22765 2.933837,-2.35911 0.404583,-0.81198 0.113559,-1.78548 -0.49292,-2.41162 -1.410848,-1.56197 -3.447478,-2.34952 -5.39372,-3.01421 -3.937015,-1.26043 -8.068154,-1.81614 -12.185116,-2.03543 -1.260423,-0.0389 -2.521664,-0.0432 -3.782589,-0.0411 z" />
          <path
             id="path1106"
             style="fill:#ff4141;stroke:#000000;stroke-width:0.5;stroke-linecap:butt;stroke-linejoin:miter;stroke-miterlimit:4;stroke-dasharray:none;stroke-opacity:1"
             d="m 15.786412,151.22049 -0.005,1.84323 c 9.22e-4,1.05604 -2.643642,1.90975 -5.9058783,1.90975 -3.2622361,0 -5.9067997,-0.85371 -5.9067947,-1.9068 m 0,0 v -1.85209 m 11.81359,0 c 5e-6,1.0531 -2.520104,1.69221 -5.78234,1.69221 -3.2622361,0 -6.031255,-0.63911 -6.03125,-1.69221 1.21e-5,-1.05309 2.6445707,-1.90679 5.9067947,-1.90679 3.2622243,0 5.9067833,0.8537 5.9067953,1.90679 z" />
        </g>
      </g>
      <g
         transform="translate(104.82902,-44.663425)"
         id="g1118"
         style="fill:#19aeff">
        <g
           id="g1116"
           style="fill:#19aeff">
          <path
             d="m 15.486881,573.8039 c 0.01419,1.72923 0.02107,3.4593 0.03983,5.188 0.540826,1.44121 1.939594,2.28457 3.237003,2.96176 3.297726,1.61814 6.957368,2.30172 10.570608,2.78889 2.840359,0.3472 5.704216,0.52897 8.56616,0.4478 2.215856,-0.005 4.431733,-0.0882 6.632833,-0.35559 3.686324,-0.41971 7.39395,-1.11373 10.807179,-2.61425 1.356445,-0.64795 2.811937,-1.41702 3.557299,-2.7874 0.389855,-0.51865 0.21529,-1.17194 0.259021,-1.77266 0.01017,-1.2611 0.02034,-2.5222 0.03051,-3.78331 -0.319289,0.14514 -0.599844,0.522 -0.938263,0.72149 -2.256758,1.51782 -4.942558,2.20787 -7.575944,2.73863 -5.485761,1.01779 -11.099097,1.20567 -16.665875,0.99322 -4.475868,-0.21739 -8.981462,-0.65782 -13.297436,-1.91304 -1.841734,-0.59078 -3.752211,-1.26997 -5.172367,-2.63561 z m 21.614329,-8.93835 c -2.474638,-0.003 -4.953379,0.0574 -7.40904,0.38847 -3.696796,0.46319 -7.432836,1.16013 -10.818667,2.77425 -1.234662,0.63981 -2.572174,1.3937 -3.201658,2.69683 -0.411811,0.83921 -0.02078,1.82525 0.638127,2.41367 1.383697,1.27058 3.225998,1.87168 4.988163,2.41175 4.404488,1.23267 8.991612,1.64107 13.546707,1.81804 3.693502,0.0407 7.397142,0.0599 11.073755,-0.34787 3.433437,-0.37949 6.914213,-0.90437 10.103121,-2.2937 1.135597,-0.53176 2.313338,-1.22765 2.933837,-2.35911 0.404583,-0.81198 0.113559,-1.78548 -0.49292,-2.41162 -1.410848,-1.56197 -3.447478,-2.34952 -5.39372,-3.01421 -3.937015,-1.26043 -8.068154,-1.81614 -12.185116,-2.03543 -1.260423,-0.0389 -2.521664,-0.0432 -3.782589,-0.0411 z"
             style="opacity:1;fill:#19aeff;fill-opacity:1;stroke:#000000;stroke-width:0.04772374;stroke-linecap:round;stroke-linejoin:round;stroke-miterlimit:4;stroke-dasharray:none;stroke-dashoffset:0;stroke-opacity:1;paint-order:stroke markers fill"
             id="path1112"
             transform="scale(0.26458333)" />
          <path
             d="m 15.786412,151.22049 -0.005,1.84323 c 9.22e-4,1.05604 -2.643642,1.90975 -5.9058783,1.90975 -3.2622361,0 -5.9067997,-0.85371 -5.9067947,-1.9068 m 0,0 v -1.85209 m 11.81359,0 c 5e-6,1.0531 -2.520104,1.69221 -5.78234,1.69221 -3.2622361,0 -6.031255,-0.63911 -6.03125,-1.69221 1.21e-5,-1.05309 2.6445707,-1.90679 5.9067947,-1.90679 3.2622243,0 5.9067833,0.8537 5.9067953,1.90679 z"
             style="fill:#19aeff;stroke:#000000;stroke-width:0.5;stroke-linecap:butt;stroke-linejoin:miter;stroke-miterlimit:4;stroke-dasharray:none;stroke-opacity:1"
             id="path1114" />
        </g>
      </g>
      <g
         transform="translate(104.82901,-49.602316)"
         style="fill:#ffc022"
         id="g1201">
        <path
           d="m 15.486881,573.8039 c 0.01419,1.72923 0.02107,3.4593 0.03983,5.188 0.540826,1.44121 1.939594,2.28457 3.237003,2.96176 3.297726,1.61814 6.957368,2.30172 10.570608,2.78889 2.840359,0.3472 5.704216,0.52897 8.56616,0.4478 2.215856,-0.005 4.431733,-0.0882 6.632833,-0.35559 3.686324,-0.41971 7.39395,-1.11373 10.807179,-2.61425 1.356445,-0.64795 2.811937,-1.41702 3.557299,-2.7874 0.389855,-0.51865 0.21529,-1.17194 0.259021,-1.77266 0.01017,-1.2611 0.02034,-2.5222 0.03051,-3.78331 -0.319289,0.14514 -0.599844,0.522 -0.938263,0.72149 -2.256758,1.51782 -4.942558,2.20787 -7.575944,2.73863 -5.485761,1.01779 -11.099097,1.20567 -16.665875,0.99322 -4.475868,-0.21739 -8.981462,-0.65782 -13.297436,-1.91304 -1.841734,-0.59078 -3.752211,-1.26997 -5.172367,-2.63561 z m 21.614329,-8.93835 c -2.474638,-0.003 -4.953379,0.0574 -7.40904,0.38847 -3.696796,0.46319 -7.432836,1.16013 -10.818667,2.77425 -1.234662,0.63981 -2.572174,1.3937 -3.201658,2.69683 -0.411811,0.83921 -0.02078,1.82525 0.638127,2.41367 1.383697,1.27058 3.225998,1.87168 4.988163,2.41175 4.404488,1.23267 8.991612,1.64107 13.546707,1.81804 3.693502,0.0407 7.397142,0.0599 11.073755,-0.34787 3.433437,-0.37949 6.914213,-0.90437 10.103121,-2.2937 1.135597,-0.53176 2.313338,-1.22765 2.933837,-2.35911 0.404583,-0.81198 0.113559,-1.78548 -0.49292,-2.41162 -1.410848,-1.56197 -3.447478,-2.34952 -5.39372,-3.01421 -3.937015,-1.26043 -8.068154,-1.81614 -12.185116,-2.03543 -1.260423,-0.0389 -2.521664,-0.0432 -3.782589,-0.0411 z"
           style="opacity:1;fill:#ffc022;fill-opacity:1;stroke:#000000;stroke-width:0.04772374;stroke-linecap:round;stroke-linejoin:round;stroke-miterlimit:4;stroke-dasharray:none;stroke-dashoffset:0;stroke-opacity:1;paint-order:stroke markers fill"
           id="path1197"
           transform="scale(0.26458333)" />
        <path
           d="m 15.786412,151.22049 -0.005,1.84323 c 9.22e-4,1.05604 -2.643642,1.90975 -5.9058783,1.90975 -3.2622361,0 -5.9067997,-0.85371 -5.9067947,-1.9068 m 0,0 v -1.85209 m 11.81359,0 c 5e-6,1.0531 -2.520104,1.69221 -5.78234,1.69221 -3.2622361,0 -6.031255,-0.63911 -6.03125,-1.69221 1.21e-5,-1.05309 2.6445707,-1.90679 5.9067947,-1.90679 3.2622243,0 5.9067833,0.8537 5.9067953,1.90679 z"
           style="fill:#ffc022;stroke:#000000;stroke-width:0.5;stroke-linecap:butt;stroke-linejoin:miter;stroke-miterlimit:4;stroke-dasharray:none;stroke-opacity:1"
           id="path1199" />
      </g>
      <path
         id="path1222"
         style="fill:none;stroke:#0e232e;stroke-width:0.44999999;stroke-linecap:round;stroke-linejoin:miter;stroke-miterlimit:4;stroke-dasharray:none;stroke-opacity:1"
         d="m 131.90179,132.33661 1e-4,-3.29432 H 114.44313 96.909384 v 8.05682 m 17.496196,-16.9299 v 16.81058" />
      <g
         style="fill:#ffc022"
         id="g1158"
         transform="translate(122.08543,-12.354885)">
        <path
           d="m 15.486881,573.8039 c 0.01419,1.72923 0.02107,3.4593 0.03983,5.188 0.540826,1.44121 1.939594,2.28457 3.237003,2.96176 3.297726,1.61814 6.957368,2.30172 10.570608,2.78889 2.840359,0.3472 5.704216,0.52897 8.56616,0.4478 2.215856,-0.005 4.431733,-0.0882 6.632833,-0.35559 3.686324,-0.41971 7.39395,-1.11373 10.807179,-2.61425 1.356445,-0.64795 2.811937,-1.41702 3.557299,-2.7874 0.389855,-0.51865 0.21529,-1.17194 0.259021,-1.77266 0.01017,-1.2611 0.02034,-2.5222 0.03051,-3.78331 -0.319289,0.14514 -0.599844,0.522 -0.938263,0.72149 -2.256758,1.51782 -4.942558,2.20787 -7.575944,2.73863 -5.485761,1.01779 -11.099097,1.20567 -16.665875,0.99322 -4.475868,-0.21739 -8.981462,-0.65782 -13.297436,-1.91304 -1.841734,-0.59078 -3.752211,-1.26997 -5.172367,-2.63561 z m 21.614329,-8.93835 c -2.474638,-0.003 -4.953379,0.0574 -7.40904,0.38847 -3.696796,0.46319 -7.432836,1.16013 -10.818667,2.77425 -1.234662,0.63981 -2.572174,1.3937 -3.201658,2.69683 -0.411811,0.83921 -0.02078,1.82525 0.638127,2.41367 1.383697,1.27058 3.225998,1.87168 4.988163,2.41175 4.404488,1.23267 8.991612,1.64107 13.546707,1.81804 3.693502,0.0407 7.397142,0.0599 11.073755,-0.34787 3.433437,-0.37949 6.914213,-0.90437 10.103121,-2.2937 1.135597,-0.53176 2.313338,-1.22765 2.933837,-2.35911 0.404583,-0.81198 0.113559,-1.78548 -0.49292,-2.41162 -1.410848,-1.56197 -3.447478,-2.34952 -5.39372,-3.01421 -3.937015,-1.26043 -8.068154,-1.81614 -12.185116,-2.03543 -1.260423,-0.0389 -2.521664,-0.0432 -3.782589,-0.0411 z"
           style="opacity:1;fill:#ffc022;fill-opacity:1;stroke:#000000;stroke-width:0.04772374;stroke-linecap:round;stroke-linejoin:round;stroke-miterlimit:4;stroke-dasharray:none;stroke-dashoffset:0;stroke-opacity:1;paint-order:stroke markers fill"
           id="path1154"
           transform="scale(0.26458333)" />
        <path
           d="m 15.786412,151.22049 -0.005,1.84323 c 9.22e-4,1.05604 -2.643642,1.90975 -5.9058783,1.90975 -3.2622361,0 -5.9067997,-0.85371 -5.9067947,-1.9068 m 0,0 v -1.85209 m 11.81359,0 c 5e-6,1.0531 -2.520104,1.69221 -5.78234,1.69221 -3.2622361,0 -6.031255,-0.63911 -6.03125,-1.69221 1.21e-5,-1.05309 2.6445707,-1.90679 5.9067947,-1.90679 3.2622243,0 5.9067833,0.8537 5.9067953,1.90679 z"
           style="fill:#ffc022;stroke:#000000;stroke-width:0.5;stroke-linecap:butt;stroke-linejoin:miter;stroke-miterlimit:4;stroke-dasharray:none;stroke-opacity:1"
           id="path1156" />
      </g>
      <g
         transform="translate(122.08543,-17.117389)"
         id="g1216"
         style="fill:#ffc022">
        <path
           transform="scale(0.26458333)"
           id="path1212"
           style="opacity:1;fill:#ffc022;fill-opacity:1;stroke:#000000;stroke-width:0.04772374;stroke-linecap:round;stroke-linejoin:round;stroke-miterlimit:4;stroke-dasharray:none;stroke-dashoffset:0;stroke-opacity:1;paint-order:stroke markers fill"
           d="m 15.486881,573.8039 c 0.01419,1.72923 0.02107,3.4593 0.03983,5.188 0.540826,1.44121 1.939594,2.28457 3.237003,2.96176 3.297726,1.61814 6.957368,2.30172 10.570608,2.78889 2.840359,0.3472 5.704216,0.52897 8.56616,0.4478 2.215856,-0.005 4.431733,-0.0882 6.632833,-0.35559 3.686324,-0.41971 7.39395,-1.11373 10.807179,-2.61425 1.356445,-0.64795 2.811937,-1.41702 3.557299,-2.7874 0.389855,-0.51865 0.21529,-1.17194 0.259021,-1.77266 0.01017,-1.2611 0.02034,-2.5222 0.03051,-3.78331 -0.319289,0.14514 -0.599844,0.522 -0.938263,0.72149 -2.256758,1.51782 -4.942558,2.20787 -7.575944,2.73863 -5.485761,1.01779 -11.099097,1.20567 -16.665875,0.99322 -4.475868,-0.21739 -8.981462,-0.65782 -13.297436,-1.91304 -1.841734,-0.59078 -3.752211,-1.26997 -5.172367,-2.63561 z m 21.614329,-8.93835 c -2.474638,-0.003 -4.953379,0.0574 -7.40904,0.38847 -3.696796,0.46319 -7.432836,1.16013 -10.818667,2.77425 -1.234662,0.63981 -2.572174,1.3937 -3.201658,2.69683 -0.411811,0.83921 -0.02078,1.82525 0.638127,2.41367 1.383697,1.27058 3.225998,1.87168 4.988163,2.41175 4.404488,1.23267 8.991612,1.64107 13.546707,1.81804 3.693502,0.0407 7.397142,0.0599 11.073755,-0.34787 3.433437,-0.37949 6.914213,-0.90437 10.103121,-2.2937 1.135597,-0.53176 2.313338,-1.22765 2.933837,-2.35911 0.404583,-0.81198 0.113559,-1.78548 -0.49292,-2.41162 -1.410848,-1.56197 -3.447478,-2.34952 -5.39372,-3.01421 -3.937015,-1.26043 -8.068154,-1.81614 -12.185116,-2.03543 -1.260423,-0.0389 -2.521664,-0.0432 -3.782589,-0.0411 z" />
        <path
           id="path1214"
           style="fill:#ffc022;stroke:#000000;stroke-width:0.5;stroke-linecap:butt;stroke-linejoin:miter;stroke-miterlimit:4;stroke-dasharray:none;stroke-opacity:1"
           d="m 15.786412,151.22049 -0.005,1.84323 c 9.22e-4,1.05604 -2.643642,1.90975 -5.9058783,1.90975 -3.2622361,0 -5.9067997,-0.85371 -5.9067947,-1.9068 m 0,0 v -1.85209 m 11.81359,0 c 5e-6,1.0531 -2.520104,1.69221 -5.78234,1.69221 -3.2622361,0 -6.031255,-0.63911 -6.03125,-1.69221 1.21e-5,-1.05309 2.6445707,-1.90679 5.9067947,-1.90679 3.2622243,0 5.9067833,0.8537 5.9067953,1.90679 z" />
      </g>
      <g
         style="fill:#19aeff"
         id="g1152"
         transform="translate(87.093022,-12.354885)">
        <g
           style="fill:#19aeff"
           id="g1150">
          <path
             transform="scale(0.26458333)"
             id="path1146"
             style="opacity:1;fill:#19aeff;fill-opacity:1;stroke:#000000;stroke-width:0.04772374;stroke-linecap:round;stroke-linejoin:round;stroke-miterlimit:4;stroke-dasharray:none;stroke-dashoffset:0;stroke-opacity:1;paint-order:stroke markers fill"
             d="m 15.486881,573.8039 c 0.01419,1.72923 0.02107,3.4593 0.03983,5.188 0.540826,1.44121 1.939594,2.28457 3.237003,2.96176 3.297726,1.61814 6.957368,2.30172 10.570608,2.78889 2.840359,0.3472 5.704216,0.52897 8.56616,0.4478 2.215856,-0.005 4.431733,-0.0882 6.632833,-0.35559 3.686324,-0.41971 7.39395,-1.11373 10.807179,-2.61425 1.356445,-0.64795 2.811937,-1.41702 3.557299,-2.7874 0.389855,-0.51865 0.21529,-1.17194 0.259021,-1.77266 0.01017,-1.2611 0.02034,-2.5222 0.03051,-3.78331 -0.319289,0.14514 -0.599844,0.522 -0.938263,0.72149 -2.256758,1.51782 -4.942558,2.20787 -7.575944,2.73863 -5.485761,1.01779 -11.099097,1.20567 -16.665875,0.99322 -4.475868,-0.21739 -8.981462,-0.65782 -13.297436,-1.91304 -1.841734,-0.59078 -3.752211,-1.26997 -5.172367,-2.63561 z m 21.614329,-8.93835 c -2.474638,-0.003 -4.953379,0.0574 -7.40904,0.38847 -3.696796,0.46319 -7.432836,1.16013 -10.818667,2.77425 -1.234662,0.63981 -2.572174,1.3937 -3.201658,2.69683 -0.411811,0.83921 -0.02078,1.82525 0.638127,2.41367 1.383697,1.27058 3.225998,1.87168 4.988163,2.41175 4.404488,1.23267 8.991612,1.64107 13.546707,1.81804 3.693502,0.0407 7.397142,0.0599 11.073755,-0.34787 3.433437,-0.37949 6.914213,-0.90437 10.103121,-2.2937 1.135597,-0.53176 2.313338,-1.22765 2.933837,-2.35911 0.404583,-0.81198 0.113559,-1.78548 -0.49292,-2.41162 -1.410848,-1.56197 -3.447478,-2.34952 -5.39372,-3.01421 -3.937015,-1.26043 -8.068154,-1.81614 -12.185116,-2.03543 -1.260423,-0.0389 -2.521664,-0.0432 -3.782589,-0.0411 z" />
          <path
             id="path1148"
             style="fill:#19aeff;stroke:#000000;stroke-width:0.5;stroke-linecap:butt;stroke-linejoin:miter;stroke-miterlimit:4;stroke-dasharray:none;stroke-opacity:1"
             d="m 15.786412,151.22049 -0.005,1.84323 c 9.22e-4,1.05604 -2.643642,1.90975 -5.9058783,1.90975 -3.2622361,0 -5.9067997,-0.85371 -5.9067947,-1.9068 m 0,0 v -1.85209 m 11.81359,0 c 5e-6,1.0531 -2.520104,1.69221 -5.78234,1.69221 -3.2622361,0 -6.031255,-0.63911 -6.03125,-1.69221 1.21e-5,-1.05309 2.6445707,-1.90679 5.9067947,-1.90679 3.2622243,0 5.9067833,0.8537 5.9067953,1.90679 z" />
        </g>
      </g>
      <g
         style="fill:#ff4141"
         transform="translate(104.58922,-12.354885)"
         id="g1144">
        <g
           style="fill:#ff4141"
           id="g1142">
          <path
             d="m 15.486881,573.8039 c 0.01419,1.72923 0.02107,3.4593 0.03983,5.188 0.540826,1.44121 1.939594,2.28457 3.237003,2.96176 3.297726,1.61814 6.957368,2.30172 10.570608,2.78889 2.840359,0.3472 5.704216,0.52897 8.56616,0.4478 2.215856,-0.005 4.431733,-0.0882 6.632833,-0.35559 3.686324,-0.41971 7.39395,-1.11373 10.807179,-2.61425 1.356445,-0.64795 2.811937,-1.41702 3.557299,-2.7874 0.389855,-0.51865 0.21529,-1.17194 0.259021,-1.77266 0.01017,-1.2611 0.02034,-2.5222 0.03051,-3.78331 -0.319289,0.14514 -0.599844,0.522 -0.938263,0.72149 -2.256758,1.51782 -4.942558,2.20787 -7.575944,2.73863 -5.485761,1.01779 -11.099097,1.20567 -16.665875,0.99322 -4.475868,-0.21739 -8.981462,-0.65782 -13.297436,-1.91304 -1.841734,-0.59078 -3.752211,-1.26997 -5.172367,-2.63561 z m 21.614329,-8.93835 c -2.474638,-0.003 -4.953379,0.0574 -7.40904,0.38847 -3.696796,0.46319 -7.432836,1.16013 -10.818667,2.77425 -1.234662,0.63981 -2.572174,1.3937 -3.201658,2.69683 -0.411811,0.83921 -0.02078,1.82525 0.638127,2.41367 1.383697,1.27058 3.225998,1.87168 4.988163,2.41175 4.404488,1.23267 8.991612,1.64107 13.546707,1.81804 3.693502,0.0407 7.397142,0.0599 11.073755,-0.34787 3.433437,-0.37949 6.914213,-0.90437 10.103121,-2.2937 1.135597,-0.53176 2.313338,-1.22765 2.933837,-2.35911 0.404583,-0.81198 0.113559,-1.78548 -0.49292,-2.41162 -1.410848,-1.56197 -3.447478,-2.34952 -5.39372,-3.01421 -3.937015,-1.26043 -8.068154,-1.81614 -12.185116,-2.03543 -1.260423,-0.0389 -2.521664,-0.0432 -3.782589,-0.0411 z"
             style="opacity:1;fill:#ff4141;fill-opacity:1;stroke:#000000;stroke-width:0.04772374;stroke-linecap:round;stroke-linejoin:round;stroke-miterlimit:4;stroke-dasharray:none;stroke-dashoffset:0;stroke-opacity:1;paint-order:stroke markers fill"
             id="path1138"
             transform="scale(0.26458333)" />
          <path
             d="m 15.786412,151.22049 -0.005,1.84323 c 9.22e-4,1.05604 -2.643642,1.90975 -5.9058783,1.90975 -3.2622361,0 -5.9067997,-0.85371 -5.9067947,-1.9068 m 0,0 v -1.85209 m 11.81359,0 c 5e-6,1.0531 -2.520104,1.69221 -5.78234,1.69221 -3.2622361,0 -6.031255,-0.63911 -6.03125,-1.69221 1.21e-5,-1.05309 2.6445707,-1.90679 5.9067947,-1.90679 3.2622243,0 5.9067833,0.8537 5.9067953,1.90679 z"
             style="fill:#ff4141;stroke:#000000;stroke-width:0.5;stroke-linecap:butt;stroke-linejoin:miter;stroke-miterlimit:4;stroke-dasharray:none;stroke-opacity:1"
             id="path1140" />
        </g>
      </g>
    </g>
  </g>
</svg>
