<?xml version="1.0" encoding="UTF-8" standalone="no"?>
<svg
   xmlns:dc="http://purl.org/dc/elements/1.1/"
   xmlns:cc="http://creativecommons.org/ns#"
   xmlns:rdf="http://www.w3.org/1999/02/22-rdf-syntax-ns#"
   xmlns:svg="http://www.w3.org/2000/svg"
   xmlns="http://www.w3.org/2000/svg"
   xmlns:xlink="http://www.w3.org/1999/xlink"
   id="svg1198"
   version="1.1"
   viewBox="0 0 100 100"
   height="100mm"
   width="100mm">
  <defs
     id="defs1192">
    <radialGradient
       r="12.384225"
       fy="125.5878"
       fx="38.381699"
       cy="125.5878"
       cx="38.381699"
       gradientUnits="userSpaceOnUse"
       id="radialGradient939"
       xlink:href="#linearGradient875" />
    <linearGradient
       id="linearGradient875">
      <stop
         id="stop871"
         offset="0"
         style="stop-color:#ffffff;stop-opacity:1" />
      <stop
         id="stop873"
         offset="1"
         style="stop-color:#bdcdd4;stop-opacity:1" />
    </linearGradient>
  </defs>
  <metadata
     id="metadata1195">
    <rdf:RDF>
      <cc:Work
         rdf:about="">
        <dc:format>image/svg+xml</dc:format>
        <dc:type
           rdf:resource="http://purl.org/dc/dcmitype/StillImage" />
        <dc:title></dc:title>
      </cc:Work>
    </rdf:RDF>
  </metadata>
  <g
     transform="translate(0,-197)"
     id="layer1">
    <g
       transform="translate(-8.5275581,1.3074706)"
       id="g2617">
      <path
         id="path913"
         style="opacity:1;fill:#19aeff;fill-opacity:1;stroke:#000000;stroke-width:0.02070407;stroke-linecap:round;stroke-linejoin:round;stroke-miterlimit:4;stroke-dasharray:none;stroke-dashoffset:0;stroke-opacity:1;paint-order:stroke markers fill"
         d="m 9.1467547,232.9119 c 0.00623,0.75019 0.00918,1.50075 0.017282,2.25071 0.2346281,0.62526 0.8414563,0.99112 1.4043143,1.28491 1.430656,0.702 3.018325,0.99855 4.585862,1.20991 1.232236,0.15068 2.474668,0.22949 3.716269,0.19427 0.961308,-0.002 1.922626,-0.0382 2.877532,-0.1543 1.599244,-0.18208 3.207728,-0.48318 4.688494,-1.13415 0.588469,-0.2811 1.219907,-0.61475 1.543268,-1.20926 0.169131,-0.225 0.0934,-0.50841 0.112367,-0.76902 0.0044,-0.54712 0.0089,-1.09423 0.01328,-1.64134 -0.13852,0.063 -0.26023,0.22647 -0.407046,0.31302 -0.979054,0.65847 -2.144238,0.95783 -3.286684,1.18809 -2.379896,0.44157 -4.815138,0.52306 -7.230182,0.43089 -1.94177,-0.0943 -3.896438,-0.28537 -5.768843,-0.82992 -0.799002,-0.2563 -1.6278273,-0.55097 -2.2439363,-1.14342 z m 9.3769753,-3.87774 c -1.073575,-0.001 -2.148933,0.0249 -3.214276,0.16853 -1.603785,0.20094 -3.224597,0.5033 -4.693476,1.20356 -0.535635,0.27756 -1.1158908,0.60463 -1.3889808,1.16997 -0.1786562,0.36408 -0.00902,0.79185 0.27684,1.04712 0.6002908,0.55122 1.3995388,0.812 2.1640218,1.04629 1.910805,0.53478 3.900843,0.71195 5.876988,0.78874 1.602357,0.0177 3.209112,0.0259 4.804142,-0.15085 1.489534,-0.16464 2.999604,-0.39236 4.383052,-0.99509 0.492658,-0.23069 1.0036,-0.53259 1.272791,-1.02346 0.175521,-0.35227 0.04927,-0.7746 -0.213844,-1.04623 -0.61207,-0.67764 -1.495624,-1.0193 -2.339966,-1.30766 -1.707999,-0.54681 -3.500219,-0.78789 -5.286286,-0.88304 -0.546811,-0.0169 -1.093977,-0.0187 -1.641006,-0.0179 z" />
      <path
         id="path1057"
         style="fill:none;stroke:#0e232e;stroke-width:0.92641819;stroke-linecap:butt;stroke-linejoin:miter;stroke-miterlimit:4;stroke-dasharray:none;stroke-opacity:1"
         d="m 18.626067,257.1116 79.802987,-23.70579 -39.90149,-22.15735 -39.901497,22.15735 79.802987,23.70579 v -23.70579 m -5e-6,23.70579 -39.901485,21.28966 -39.901497,-21.28966 v 0 -23.70579" />
      <g
         id="g937"
         transform="matrix(1.639678,0,0,1.639678,-4.4060665,39.335143)">
        <circle
           r="12.284225"
           cy="125.5878"
           cx="38.381699"
           id="path817"
           style="opacity:1;fill:url(#radialGradient939);fill-opacity:1;stroke:#000000;stroke-width:1.29999995;stroke-linecap:round;stroke-linejoin:round;stroke-miterlimit:4;stroke-dasharray:none;stroke-dashoffset:0;stroke-opacity:1;paint-order:stroke markers fill" />
        <g
           id="flowRoot857"
           style="font-style:normal;font-variant:normal;font-weight:normal;font-stretch:normal;font-size:18.66666603px;line-height:1.25;font-family:'Roboto Slab';-inkscape-font-specification:'Roboto Slab';text-align:center;letter-spacing:0px;word-spacing:0px;text-anchor:middle;fill:#000000;fill-opacity:1;stroke:none"
           transform="matrix(0.27254698,0,0,0.27254698,8.4539616,-7.9477146)"
           aria-label="0101001 10101100 0101001 ">
          <path
             id="path1059"
             d="m 86.542644,468.19759 q 0,2.54296 -1.130208,3.90104 -1.130209,1.34896 -3.089844,1.34896 -1.950521,0 -3.089844,-1.35808 -1.139322,-1.35807 -1.139322,-3.89192 v -3.14453 q 0,-2.53386 1.130208,-3.89193 1.130208,-1.36719 3.080729,-1.36719 1.959635,0 3.098958,1.36719 1.139323,1.35807 1.139323,3.89193 z m -1.795573,-3.52735 q 0,-1.72265 -0.628906,-2.58854 -0.619792,-0.875 -1.813802,-0.875 -1.175781,0 -1.795573,0.875 -0.619792,0.86589 -0.619792,2.58854 v 3.89193 q 0,1.72266 0.628907,2.60677 0.628906,0.875 1.804687,0.875 1.19401,0 1.804688,-0.875 0.619791,-0.875 0.619791,-2.60677 z" />
          <path
             id="path1061"
             d="m 88.739259,472.10774 2.050781,-0.25521 v -9.94401 l -2.08724,0.0365 v -1.12109 l 3.882813,-0.83854 v 11.86718 l 2.041666,0.25521 v 1.14844 h -5.88802 z" />
          <path
             id="path1063"
             d="m 104.88119,468.19759 q 0,2.54296 -1.13021,3.90104 -1.13021,1.34896 -3.08985,1.34896 -1.950518,0 -3.089841,-1.35808 -1.139322,-1.35807 -1.139322,-3.89192 v -3.14453 q 0,-2.53386 1.130208,-3.89193 1.130208,-1.36719 3.080725,-1.36719 1.95964,0 3.09896,1.36719 1.13933,1.35807 1.13933,3.89193 z m -1.79558,-3.52735 q 0,-1.72265 -0.6289,-2.58854 -0.6198,-0.875 -1.81381,-0.875 -1.175777,0 -1.795569,0.875 -0.619792,0.86589 -0.619792,2.58854 v 3.89193 q 0,1.72266 0.628907,2.60677 0.628906,0.875 1.804684,0.875 1.19401,0 1.80469,-0.875 0.61979,-0.875 0.61979,-2.60677 z" />
          <path
             id="path1065"
             d="m 107.0778,472.10774 2.05078,-0.25521 v -9.94401 l -2.08724,0.0365 v -1.12109 l 3.88281,-0.83854 v 11.86718 l 2.04167,0.25521 v 1.14844 h -5.88802 z" />
          <path
             id="path1067"
             d="m 123.21973,468.19759 q 0,2.54296 -1.13021,3.90104 -1.13021,1.34896 -3.08985,1.34896 -1.95052,0 -3.08984,-1.35808 -1.13932,-1.35807 -1.13932,-3.89192 v -3.14453 q 0,-2.53386 1.13021,-3.89193 1.1302,-1.36719 3.08072,-1.36719 1.95964,0 3.09896,1.36719 1.13933,1.35807 1.13933,3.89193 z m -1.79558,-3.52735 q 0,-1.72265 -0.6289,-2.58854 -0.61979,-0.875 -1.81381,-0.875 -1.17578,0 -1.79557,0.875 -0.61979,0.86589 -0.61979,2.58854 v 3.89193 q 0,1.72266 0.62891,2.60677 0.6289,0.875 1.80468,0.875 1.19401,0 1.80469,-0.875 0.61979,-0.875 0.61979,-2.60677 z" />
          <path
             id="path1069"
             d="m 133.86556,468.19759 q 0,2.54296 -1.13021,3.90104 -1.13021,1.34896 -3.08984,1.34896 -1.95052,0 -3.08985,-1.35808 -1.13932,-1.35807 -1.13932,-3.89192 v -3.14453 q 0,-2.53386 1.13021,-3.89193 1.13021,-1.36719 3.08073,-1.36719 1.95963,0 3.09896,1.36719 1.13932,1.35807 1.13932,3.89193 z m -1.79557,-3.52735 q 0,-1.72265 -0.62891,-2.58854 -0.61979,-0.875 -1.8138,-0.875 -1.17578,0 -1.79558,0.875 -0.61979,0.86589 -0.61979,2.58854 v 3.89193 q 0,1.72266 0.62891,2.60677 0.6289,0.875 1.80469,0.875 1.19401,0 1.80468,-0.875 0.6198,-0.875 0.6198,-2.60677 z" />
          <path
             id="path1071"
             d="m 136.06218,472.10774 2.05078,-0.25521 v -9.94401 l -2.08724,0.0365 v -1.12109 l 3.88281,-0.83854 v 11.86718 l 2.04167,0.25521 v 1.14844 h -5.88802 z" />
          <path
             id="path1073"
             d="m 74.247072,495.44109 2.050781,-0.25521 v -9.94401 l -2.08724,0.0365 v -1.1211 l 3.882813,-0.83854 v 11.86719 l 2.041666,0.25521 v 1.14843 h -5.88802 z" />
          <path
             id="path1075"
             d="m 90.388998,491.53093 q 0,2.54297 -1.130208,3.90104 -1.130209,1.34896 -3.089844,1.34896 -1.950521,0 -3.089844,-1.35807 -1.139322,-1.35808 -1.139322,-3.89193 v -3.14453 q 0,-2.53386 1.130208,-3.89193 1.130208,-1.36719 3.080729,-1.36719 1.959635,0 3.098958,1.36719 1.139323,1.35807 1.139323,3.89193 z m -1.795573,-3.52734 q 0,-1.72266 -0.628906,-2.58855 -0.619792,-0.875 -1.813802,-0.875 -1.175781,0 -1.795573,0.875 -0.619792,0.86589 -0.619792,2.58855 v 3.89192 q 0,1.72266 0.628907,2.60677 0.628906,0.875 1.804687,0.875 1.19401,0 1.804688,-0.875 0.619791,-0.875 0.619791,-2.60677 z" />
          <path
             id="path1077"
             d="m 92.585613,495.44109 2.050781,-0.25521 v -9.94401 l -2.08724,0.0365 v -1.1211 l 3.882813,-0.83854 v 11.86719 l 2.041666,0.25521 v 1.14843 h -5.88802 z" />
          <path
             id="path1079"
             d="m 108.72754,491.53093 q 0,2.54297 -1.13021,3.90104 -1.13021,1.34896 -3.08984,1.34896 -1.95052,0 -3.08985,-1.35807 -1.13932,-1.35808 -1.13932,-3.89193 v -3.14453 q 0,-2.53386 1.13021,-3.89193 1.13021,-1.36719 3.08073,-1.36719 1.95963,0 3.09896,1.36719 1.13932,1.35807 1.13932,3.89193 z m -1.79557,-3.52734 q 0,-1.72266 -0.62891,-2.58855 -0.61979,-0.875 -1.8138,-0.875 -1.17578,0 -1.79557,0.875 -0.6198,0.86589 -0.6198,2.58855 v 3.89192 q 0,1.72266 0.62891,2.60677 0.62891,0.875 1.80469,0.875 1.19401,0 1.80469,-0.875 0.61979,-0.875 0.61979,-2.60677 z" />
          <path
             id="path1081"
             d="m 110.92415,495.44109 2.05078,-0.25521 v -9.94401 l -2.08723,0.0365 v -1.1211 l 3.88281,-0.83854 v 11.86719 l 2.04166,0.25521 v 1.14843 h -5.88802 z" />
          <path
             id="path1083"
             d="m 118.61686,495.44109 2.05078,-0.25521 v -9.94401 l -2.08724,0.0365 v -1.1211 l 3.88281,-0.83854 v 11.86719 l 2.04167,0.25521 v 1.14843 h -5.88802 z" />
          <path
             id="path1085"
             d="m 134.75879,491.53093 q 0,2.54297 -1.13021,3.90104 -1.13021,1.34896 -3.08984,1.34896 -1.95052,0 -3.08985,-1.35807 -1.13932,-1.35808 -1.13932,-3.89193 v -3.14453 q 0,-2.53386 1.13021,-3.89193 1.13021,-1.36719 3.08073,-1.36719 1.95963,0 3.09896,1.36719 1.13932,1.35807 1.13932,3.89193 z m -1.79557,-3.52734 q 0,-1.72266 -0.62891,-2.58855 -0.61979,-0.875 -1.8138,-0.875 -1.17578,0 -1.79557,0.875 -0.6198,0.86589 -0.6198,2.58855 v 3.89192 q 0,1.72266 0.62891,2.60677 0.62891,0.875 1.80469,0.875 1.19401,0 1.80469,-0.875 0.61979,-0.875 0.61979,-2.60677 z" />
          <path
             id="path1087"
             d="m 145.40462,491.53093 q 0,2.54297 -1.13021,3.90104 -1.1302,1.34896 -3.08984,1.34896 -1.95052,0 -3.08984,-1.35807 -1.13933,-1.35808 -1.13933,-3.89193 v -3.14453 q 0,-2.53386 1.13021,-3.89193 1.13021,-1.36719 3.08073,-1.36719 1.95964,0 3.09896,1.36719 1.13932,1.35807 1.13932,3.89193 z m -1.79557,-3.52734 q 0,-1.72266 -0.62891,-2.58855 -0.61979,-0.875 -1.8138,-0.875 -1.17578,0 -1.79557,0.875 -0.61979,0.86589 -0.61979,2.58855 v 3.89192 q 0,1.72266 0.6289,2.60677 0.62891,0.875 1.80469,0.875 1.19401,0 1.80469,-0.875 0.61979,-0.875 0.61979,-2.60677 z" />
          <path
             id="path1089"
             d="m 86.542644,514.86427 q 0,2.54297 -1.130208,3.90104 -1.130209,1.34896 -3.089844,1.34896 -1.950521,0 -3.089844,-1.35807 -1.139322,-1.35807 -1.139322,-3.89193 v -3.14453 q 0,-2.53385 1.130208,-3.89192 1.130208,-1.36719 3.080729,-1.36719 1.959635,0 3.098958,1.36719 1.139323,1.35807 1.139323,3.89192 z m -1.795573,-3.52734 q 0,-1.72266 -0.628906,-2.58854 -0.619792,-0.875 -1.813802,-0.875 -1.175781,0 -1.795573,0.875 -0.619792,0.86588 -0.619792,2.58854 v 3.89193 q 0,1.72265 0.628907,2.60677 0.628906,0.875 1.804687,0.875 1.19401,0 1.804688,-0.875 0.619791,-0.875 0.619791,-2.60677 z" />
          <path
             id="path1091"
             d="m 88.739259,518.77443 2.050781,-0.25521 v -9.94401 l -2.08724,0.0365 v -1.12109 l 3.882813,-0.83855 v 11.86719 l 2.041666,0.25521 v 1.14844 h -5.88802 z" />
          <path
             id="path1093"
             d="m 104.88119,514.86427 q 0,2.54297 -1.13021,3.90104 -1.13021,1.34896 -3.08985,1.34896 -1.950518,0 -3.089841,-1.35807 -1.139322,-1.35807 -1.139322,-3.89193 v -3.14453 q 0,-2.53385 1.130208,-3.89192 1.130208,-1.36719 3.080725,-1.36719 1.95964,0 3.09896,1.36719 1.13933,1.35807 1.13933,3.89192 z m -1.79558,-3.52734 q 0,-1.72266 -0.6289,-2.58854 -0.6198,-0.875 -1.81381,-0.875 -1.175777,0 -1.795569,0.875 -0.619792,0.86588 -0.619792,2.58854 v 3.89193 q 0,1.72265 0.628907,2.60677 0.628906,0.875 1.804684,0.875 1.19401,0 1.80469,-0.875 0.61979,-0.875 0.61979,-2.60677 z" />
          <path
             id="path1095"
             d="m 107.0778,518.77443 2.05078,-0.25521 v -9.94401 l -2.08724,0.0365 v -1.12109 l 3.88281,-0.83855 v 11.86719 l 2.04167,0.25521 v 1.14844 h -5.88802 z" />
          <path
             id="path1097"
             d="m 123.21973,514.86427 q 0,2.54297 -1.13021,3.90104 -1.13021,1.34896 -3.08985,1.34896 -1.95052,0 -3.08984,-1.35807 -1.13932,-1.35807 -1.13932,-3.89193 v -3.14453 q 0,-2.53385 1.13021,-3.89192 1.1302,-1.36719 3.08072,-1.36719 1.95964,0 3.09896,1.36719 1.13933,1.35807 1.13933,3.89192 z m -1.79558,-3.52734 q 0,-1.72266 -0.6289,-2.58854 -0.61979,-0.875 -1.81381,-0.875 -1.17578,0 -1.79557,0.875 -0.61979,0.86588 -0.61979,2.58854 v 3.89193 q 0,1.72265 0.62891,2.60677 0.6289,0.875 1.80468,0.875 1.19401,0 1.80469,-0.875 0.61979,-0.875 0.61979,-2.60677 z" />
          <path
             id="path1099"
             d="m 133.86556,514.86427 q 0,2.54297 -1.13021,3.90104 -1.13021,1.34896 -3.08984,1.34896 -1.95052,0 -3.08985,-1.35807 -1.13932,-1.35807 -1.13932,-3.89193 v -3.14453 q 0,-2.53385 1.13021,-3.89192 1.13021,-1.36719 3.08073,-1.36719 1.95963,0 3.09896,1.36719 1.13932,1.35807 1.13932,3.89192 z m -1.79557,-3.52734 q 0,-1.72266 -0.62891,-2.58854 -0.61979,-0.875 -1.8138,-0.875 -1.17578,0 -1.79558,0.875 -0.61979,0.86588 -0.61979,2.58854 v 3.89193 q 0,1.72265 0.62891,2.60677 0.6289,0.875 1.80469,0.875 1.19401,0 1.80468,-0.875 0.6198,-0.875 0.6198,-2.60677 z" />
          <path
             id="path1101"
             d="m 136.06218,518.77443 2.05078,-0.25521 v -9.94401 l -2.08724,0.0365 v -1.12109 l 3.88281,-0.83855 v 11.86719 l 2.04167,0.25521 v 1.14844 h -5.88802 z" />
        </g>
      </g>
      <g
         transform="matrix(1.639678,0,0,1.639678,42.331518,-37.057981)"
         id="g911">
        <g
           style="fill:#9ade00"
           id="g909">
          <path
             d="m 15.486881,573.8039 c 0.01419,1.72923 0.02107,3.4593 0.03983,5.188 0.540826,1.44121 1.939594,2.28457 3.237003,2.96176 3.297726,1.61814 6.957368,2.30172 10.570608,2.78889 2.840359,0.3472 5.704216,0.52897 8.56616,0.4478 2.215856,-0.005 4.431733,-0.0882 6.632833,-0.35559 3.686324,-0.41971 7.39395,-1.11373 10.807179,-2.61425 1.356445,-0.64795 2.811937,-1.41702 3.557299,-2.7874 0.389855,-0.51865 0.21529,-1.17194 0.259021,-1.77266 0.01017,-1.2611 0.02034,-2.5222 0.03051,-3.78331 -0.319289,0.14514 -0.599844,0.522 -0.938263,0.72149 -2.256758,1.51782 -4.942558,2.20787 -7.575944,2.73863 -5.485761,1.01779 -11.099097,1.20567 -16.665875,0.99322 -4.475868,-0.21739 -8.981462,-0.65782 -13.297436,-1.91304 -1.841734,-0.59078 -3.752211,-1.26997 -5.172367,-2.63561 z m 21.614329,-8.93835 c -2.474638,-0.003 -4.953379,0.0574 -7.40904,0.38847 -3.696796,0.46319 -7.432836,1.16013 -10.818667,2.77425 -1.234662,0.63981 -2.572174,1.3937 -3.201658,2.69683 -0.411811,0.83921 -0.02078,1.82525 0.638127,2.41367 1.383697,1.27058 3.225998,1.87168 4.988163,2.41175 4.404488,1.23267 8.991612,1.64107 13.546707,1.81804 3.693502,0.0407 7.397142,0.0599 11.073755,-0.34787 3.433437,-0.37949 6.914213,-0.90437 10.103121,-2.2937 1.135597,-0.53176 2.313338,-1.22765 2.933837,-2.35911 0.404583,-0.81198 0.113559,-1.78548 -0.49292,-2.41162 -1.410848,-1.56197 -3.447478,-2.34952 -5.39372,-3.01421 -3.937015,-1.26043 -8.068154,-1.81614 -12.185116,-2.03543 -1.260423,-0.0389 -2.521664,-0.0432 -3.782589,-0.0411 z"
             style="opacity:1;fill:#9ade00;fill-opacity:1;stroke:#000000;stroke-width:0.04772374;stroke-linecap:round;stroke-linejoin:round;stroke-miterlimit:4;stroke-dasharray:none;stroke-dashoffset:0;stroke-opacity:1;paint-order:stroke markers fill"
             id="path905"
             transform="scale(0.26458333)" />
          <path
             d="m 15.786412,151.22049 -0.005,1.84323 c 9.22e-4,1.05604 -2.643642,1.90975 -5.9058783,1.90975 -3.2622361,0 -5.9067997,-0.85371 -5.9067947,-1.9068 m 0,0 v -1.85209 m 11.81359,0 c 5e-6,1.0531 -2.520104,1.69221 -5.78234,1.69221 -3.2622361,0 -6.031255,-0.63911 -6.03125,-1.69221 1.21e-5,-1.05309 2.6445707,-1.90679 5.9067947,-1.90679 3.2622243,0 5.9067833,0.8537 5.9067953,1.90679 z"
             style="fill:#9ade00;stroke:#000000;stroke-width:0.5;stroke-linecap:butt;stroke-linejoin:miter;stroke-miterlimit:4;stroke-dasharray:none;stroke-opacity:1"
             id="path907" />
        </g>
      </g>
      <g
         style="fill:#9ade00"
         transform="matrix(1.639678,0,0,1.639678,42.331518,29.519752)"
         id="g927">
        <g
           style="fill:#9ade00"
           id="g925">
          <path
             d="m 15.486881,573.8039 c 0.01419,1.72923 0.02107,3.4593 0.03983,5.188 0.540826,1.44121 1.939594,2.28457 3.237003,2.96176 3.297726,1.61814 6.957368,2.30172 10.570608,2.78889 2.840359,0.3472 5.704216,0.52897 8.56616,0.4478 2.215856,-0.005 4.431733,-0.0882 6.632833,-0.35559 3.686324,-0.41971 7.39395,-1.11373 10.807179,-2.61425 1.356445,-0.64795 2.811937,-1.41702 3.557299,-2.7874 0.389855,-0.51865 0.21529,-1.17194 0.259021,-1.77266 0.01017,-1.2611 0.02034,-2.5222 0.03051,-3.78331 -0.319289,0.14514 -0.599844,0.522 -0.938263,0.72149 -2.256758,1.51782 -4.942558,2.20787 -7.575944,2.73863 -5.485761,1.01779 -11.099097,1.20567 -16.665875,0.99322 -4.475868,-0.21739 -8.981462,-0.65782 -13.297436,-1.91304 -1.841734,-0.59078 -3.752211,-1.26997 -5.172367,-2.63561 z m 21.614329,-8.93835 c -2.474638,-0.003 -4.953379,0.0574 -7.40904,0.38847 -3.696796,0.46319 -7.432836,1.16013 -10.818667,2.77425 -1.234662,0.63981 -2.572174,1.3937 -3.201658,2.69683 -0.411811,0.83921 -0.02078,1.82525 0.638127,2.41367 1.383697,1.27058 3.225998,1.87168 4.988163,2.41175 4.404488,1.23267 8.991612,1.64107 13.546707,1.81804 3.693502,0.0407 7.397142,0.0599 11.073755,-0.34787 3.433437,-0.37949 6.914213,-0.90437 10.103121,-2.2937 1.135597,-0.53176 2.313338,-1.22765 2.933837,-2.35911 0.404583,-0.81198 0.113559,-1.78548 -0.49292,-2.41162 -1.410848,-1.56197 -3.447478,-2.34952 -5.39372,-3.01421 -3.937015,-1.26043 -8.068154,-1.81614 -12.185116,-2.03543 -1.260423,-0.0389 -2.521664,-0.0432 -3.782589,-0.0411 z"
             style="opacity:1;fill:#9ade00;fill-opacity:1;stroke:#000000;stroke-width:0.04772374;stroke-linecap:round;stroke-linejoin:round;stroke-miterlimit:4;stroke-dasharray:none;stroke-dashoffset:0;stroke-opacity:1;paint-order:stroke markers fill"
             id="path921"
             transform="scale(0.26458333)" />
          <path
             d="m 15.786412,151.22049 -0.005,1.84323 c 9.22e-4,1.05604 -2.643642,1.90975 -5.9058783,1.90975 -3.2622361,0 -5.9067997,-0.85371 -5.9067947,-1.9068 m 0,0 v -1.85209 m 11.81359,0 c 5e-6,1.0531 -2.520104,1.69221 -5.78234,1.69221 -3.2622361,0 -6.031255,-0.63911 -6.03125,-1.69221 1.21e-5,-1.05309 2.6445707,-1.90679 5.9067947,-1.90679 3.2622243,0 5.9067833,0.8537 5.9067953,1.90679 z"
             style="fill:#9ade00;stroke:#000000;stroke-width:0.5;stroke-linecap:butt;stroke-linejoin:miter;stroke-miterlimit:4;stroke-dasharray:none;stroke-opacity:1"
             id="path923" />
        </g>
      </g>
      <g
         id="g959"
         transform="matrix(1.639678,0,0,1.639678,-3.6612394,41.412681)">
        <g
           id="g895"
           transform="translate(52.384827,-20.611534)"
           style="fill:#ff4141">
          <g
             id="g893"
             style="fill:#ff4141">
            <path
               transform="scale(0.26458333)"
               id="path889"
               style="opacity:1;fill:#ff4141;fill-opacity:1;stroke:#000000;stroke-width:0.04772374;stroke-linecap:round;stroke-linejoin:round;stroke-miterlimit:4;stroke-dasharray:none;stroke-dashoffset:0;stroke-opacity:1;paint-order:stroke markers fill"
               d="m 15.486881,573.8039 c 0.01419,1.72923 0.02107,3.4593 0.03983,5.188 0.540826,1.44121 1.939594,2.28457 3.237003,2.96176 3.297726,1.61814 6.957368,2.30172 10.570608,2.78889 2.840359,0.3472 5.704216,0.52897 8.56616,0.4478 2.215856,-0.005 4.431733,-0.0882 6.632833,-0.35559 3.686324,-0.41971 7.39395,-1.11373 10.807179,-2.61425 1.356445,-0.64795 2.811937,-1.41702 3.557299,-2.7874 0.389855,-0.51865 0.21529,-1.17194 0.259021,-1.77266 0.01017,-1.2611 0.02034,-2.5222 0.03051,-3.78331 -0.319289,0.14514 -0.599844,0.522 -0.938263,0.72149 -2.256758,1.51782 -4.942558,2.20787 -7.575944,2.73863 -5.485761,1.01779 -11.099097,1.20567 -16.665875,0.99322 -4.475868,-0.21739 -8.981462,-0.65782 -13.297436,-1.91304 -1.841734,-0.59078 -3.752211,-1.26997 -5.172367,-2.63561 z m 21.614329,-8.93835 c -2.474638,-0.003 -4.953379,0.0574 -7.40904,0.38847 -3.696796,0.46319 -7.432836,1.16013 -10.818667,2.77425 -1.234662,0.63981 -2.572174,1.3937 -3.201658,2.69683 -0.411811,0.83921 -0.02078,1.82525 0.638127,2.41367 1.383697,1.27058 3.225998,1.87168 4.988163,2.41175 4.404488,1.23267 8.991612,1.64107 13.546707,1.81804 3.693502,0.0407 7.397142,0.0599 11.073755,-0.34787 3.433437,-0.37949 6.914213,-0.90437 10.103121,-2.2937 1.135597,-0.53176 2.313338,-1.22765 2.933837,-2.35911 0.404583,-0.81198 0.113559,-1.78548 -0.49292,-2.41162 -1.410848,-1.56197 -3.447478,-2.34952 -5.39372,-3.01421 -3.937015,-1.26043 -8.068154,-1.81614 -12.185116,-2.03543 -1.260423,-0.0389 -2.521664,-0.0432 -3.782589,-0.0411 z" />
            <path
               id="path891"
               style="fill:#ff4141;stroke:#000000;stroke-width:0.5;stroke-linecap:butt;stroke-linejoin:miter;stroke-miterlimit:4;stroke-dasharray:none;stroke-opacity:1"
               d="m 15.786412,151.22049 -0.005,1.84323 c 9.22e-4,1.05604 -2.643642,1.90975 -5.9058783,1.90975 -3.2622361,0 -5.9067997,-0.85371 -5.9067947,-1.9068 m 0,0 v -1.85209 m 11.81359,0 c 5e-6,1.0531 -2.520104,1.69221 -5.78234,1.69221 -3.2622361,0 -6.031255,-0.63911 -6.03125,-1.69221 1.21e-5,-1.05309 2.6445707,-1.90679 5.9067947,-1.90679 3.2622243,0 5.9067833,0.8537 5.9067953,1.90679 z" />
          </g>
        </g>
        <g
           transform="translate(52.384827,-35.028193)"
           id="g903"
           style="fill:#19aeff">
          <g
             id="g901"
             style="fill:#19aeff">
            <path
               d="m 15.486881,573.8039 c 0.01419,1.72923 0.02107,3.4593 0.03983,5.188 0.540826,1.44121 1.939594,2.28457 3.237003,2.96176 3.297726,1.61814 6.957368,2.30172 10.570608,2.78889 2.840359,0.3472 5.704216,0.52897 8.56616,0.4478 2.215856,-0.005 4.431733,-0.0882 6.632833,-0.35559 3.686324,-0.41971 7.39395,-1.11373 10.807179,-2.61425 1.356445,-0.64795 2.811937,-1.41702 3.557299,-2.7874 0.389855,-0.51865 0.21529,-1.17194 0.259021,-1.77266 0.01017,-1.2611 0.02034,-2.5222 0.03051,-3.78331 -0.319289,0.14514 -0.599844,0.522 -0.938263,0.72149 -2.256758,1.51782 -4.942558,2.20787 -7.575944,2.73863 -5.485761,1.01779 -11.099097,1.20567 -16.665875,0.99322 -4.475868,-0.21739 -8.981462,-0.65782 -13.297436,-1.91304 -1.841734,-0.59078 -3.752211,-1.26997 -5.172367,-2.63561 z m 21.614329,-8.93835 c -2.474638,-0.003 -4.953379,0.0574 -7.40904,0.38847 -3.696796,0.46319 -7.432836,1.16013 -10.818667,2.77425 -1.234662,0.63981 -2.572174,1.3937 -3.201658,2.69683 -0.411811,0.83921 -0.02078,1.82525 0.638127,2.41367 1.383697,1.27058 3.225998,1.87168 4.988163,2.41175 4.404488,1.23267 8.991612,1.64107 13.546707,1.81804 3.693502,0.0407 7.397142,0.0599 11.073755,-0.34787 3.433437,-0.37949 6.914213,-0.90437 10.103121,-2.2937 1.135597,-0.53176 2.313338,-1.22765 2.933837,-2.35911 0.404583,-0.81198 0.113559,-1.78548 -0.49292,-2.41162 -1.410848,-1.56197 -3.447478,-2.34952 -5.39372,-3.01421 -3.937015,-1.26043 -8.068154,-1.81614 -12.185116,-2.03543 -1.260423,-0.0389 -2.521664,-0.0432 -3.782589,-0.0411 z"
               style="opacity:1;fill:#19aeff;fill-opacity:1;stroke:#000000;stroke-width:0.04772374;stroke-linecap:round;stroke-linejoin:round;stroke-miterlimit:4;stroke-dasharray:none;stroke-dashoffset:0;stroke-opacity:1;paint-order:stroke markers fill"
               id="path897"
               transform="scale(0.26458333)" />
            <path
               d="m 15.786412,151.22049 -0.005,1.84323 c 9.22e-4,1.05604 -2.643642,1.90975 -5.9058783,1.90975 -3.2622361,0 -5.9067997,-0.85371 -5.9067947,-1.9068 m 0,0 v -1.85209 m 11.81359,0 c 5e-6,1.0531 -2.520104,1.69221 -5.78234,1.69221 -3.2622361,0 -6.031255,-0.63911 -6.03125,-1.69221 1.21e-5,-1.05309 2.6445707,-1.90679 5.9067947,-1.90679 3.2622243,0 5.9067833,0.8537 5.9067953,1.90679 z"
               style="fill:#19aeff;stroke:#000000;stroke-width:0.5;stroke-linecap:butt;stroke-linejoin:miter;stroke-miterlimit:4;stroke-dasharray:none;stroke-opacity:1"
               id="path899" />
          </g>
        </g>
      </g>
      <g
         id="g887"
         style="fill:#ff4141"
         transform="matrix(1.639678,0,0,1.639678,2.4300248,7.6163924)">
        <path
           d="m 15.486881,573.8039 c 0.01419,1.72923 0.02107,3.4593 0.03983,5.188 0.540826,1.44121 1.939594,2.28457 3.237003,2.96176 3.297726,1.61814 6.957368,2.30172 10.570608,2.78889 2.840359,0.3472 5.704216,0.52897 8.56616,0.4478 2.215856,-0.005 4.431733,-0.0882 6.632833,-0.35559 3.686324,-0.41971 7.39395,-1.11373 10.807179,-2.61425 1.356445,-0.64795 2.811937,-1.41702 3.557299,-2.7874 0.389855,-0.51865 0.21529,-1.17194 0.259021,-1.77266 0.01017,-1.2611 0.02034,-2.5222 0.03051,-3.78331 -0.319289,0.14514 -0.599844,0.522 -0.938263,0.72149 -2.256758,1.51782 -4.942558,2.20787 -7.575944,2.73863 -5.485761,1.01779 -11.099097,1.20567 -16.665875,0.99322 -4.475868,-0.21739 -8.981462,-0.65782 -13.297436,-1.91304 -1.841734,-0.59078 -3.752211,-1.26997 -5.172367,-2.63561 z m 21.614329,-8.93835 c -2.474638,-0.003 -4.953379,0.0574 -7.40904,0.38847 -3.696796,0.46319 -7.432836,1.16013 -10.818667,2.77425 -1.234662,0.63981 -2.572174,1.3937 -3.201658,2.69683 -0.411811,0.83921 -0.02078,1.82525 0.638127,2.41367 1.383697,1.27058 3.225998,1.87168 4.988163,2.41175 4.404488,1.23267 8.991612,1.64107 13.546707,1.81804 3.693502,0.0407 7.397142,0.0599 11.073755,-0.34787 3.433437,-0.37949 6.914213,-0.90437 10.103121,-2.2937 1.135597,-0.53176 2.313338,-1.22765 2.933837,-2.35911 0.404583,-0.81198 0.113559,-1.78548 -0.49292,-2.41162 -1.410848,-1.56197 -3.447478,-2.34952 -5.39372,-3.01421 -3.937015,-1.26043 -8.068154,-1.81614 -12.185116,-2.03543 -1.260423,-0.0389 -2.521664,-0.0432 -3.782589,-0.0411 z"
           style="opacity:1;fill:#ff4141;fill-opacity:1;stroke:#000000;stroke-width:0.04772374;stroke-linecap:round;stroke-linejoin:round;stroke-miterlimit:4;stroke-dasharray:none;stroke-dashoffset:0;stroke-opacity:1;paint-order:stroke markers fill"
           id="path854"
           transform="scale(0.26458333)" />
        <path
           d="m 15.786412,151.22049 -0.005,1.84323 c 9.22e-4,1.05604 -2.643642,1.90975 -5.9058783,1.90975 -3.2622361,0 -5.9067997,-0.85371 -5.9067947,-1.9068 m 0,0 v -1.85209 m 11.81359,0 c 5e-6,1.0531 -2.520104,1.69221 -5.78234,1.69221 -3.2622361,0 -6.031255,-0.63911 -6.03125,-1.69221 1.21e-5,-1.05309 2.6445707,-1.90679 5.9067947,-1.90679 3.2622243,0 5.9067833,0.8537 5.9067953,1.90679 z"
           style="fill:#ff4141;stroke:#000000;stroke-width:0.5;stroke-linecap:butt;stroke-linejoin:miter;stroke-miterlimit:4;stroke-dasharray:none;stroke-opacity:1"
           id="path835" />
      </g>
      <path
         id="path915"
         style="fill:#19aeff;stroke:#000000;stroke-width:0.819839;stroke-linecap:butt;stroke-linejoin:miter;stroke-miterlimit:4;stroke-dasharray:none;stroke-opacity:1"
         d="m 28.314657,231.93062 -0.0082,3.02231 c 0.0015,1.73156 -4.334722,3.13137 -9.683739,3.13137 -5.349016,0 -9.6852499,-1.39981 -9.6852417,-3.12654 m 0,0 v -3.03683 m 19.3704837,0 c 8e-6,1.72675 -4.132159,2.77468 -9.481175,2.77468 -5.349017,0 -9.8893169,-1.04793 -9.8893087,-2.77468 1.97e-5,-1.72673 4.3362447,-3.12652 9.6852417,-3.12652 5.348997,0 9.685222,1.39979 9.685242,3.12652 z" />
    </g>
  </g>
</svg>
