<?xml version="1.0" encoding="UTF-8" standalone="no"?>
<svg
   xmlns:dc="http://purl.org/dc/elements/1.1/"
   xmlns:cc="http://creativecommons.org/ns#"
   xmlns:rdf="http://www.w3.org/1999/02/22-rdf-syntax-ns#"
   xmlns:svg="http://www.w3.org/2000/svg"
   xmlns="http://www.w3.org/2000/svg"
   id="svg1198"
   version="1.1"
   viewBox="0 0 100 100"
   height="100mm"
   width="100mm">
  <defs
     id="defs1192" />
  <metadata
     id="metadata1195">
    <rdf:RDF>
      <cc:Work
         rdf:about="">
        <dc:format>image/svg+xml</dc:format>
        <dc:type
           rdf:resource="http://purl.org/dc/dcmitype/StillImage" />
        <dc:title></dc:title>
      </cc:Work>
    </rdf:RDF>
  </metadata>
  <g
     transform="translate(0,-197)"
     id="layer1">
    <g
       transform="matrix(1.3766865,0,0,1.3766865,-138.73937,202.80475)"
       id="g6161">
      <g
         id="g5874"
         transform="translate(-32.127976,-10.205357)">
        <g
           id="g1446"
           transform="translate(602.55534,141.4911)">
          <path
             id="path1440"
             d="m -433.50687,-71.072753 v -3.545437 h -6.13966 -6.13965 v 1.643006 1.643005 h -0.69179 -0.69179 v -1.643005 -1.643006 h -6.13434 -6.13433 l -0.0486,2.118617 -0.0486,2.11861 -0.64316,0.05334 -0.64315,0.05334 -0.0486,-2.128728 -0.0486,-2.128735 h -2.29171 -2.2917 l 1.4e-4,-0.73503 1.5e-4,-0.73503 h 15.99769 15.9977 v -0.719571 -0.719577 l -11.19839,0.11528 c -6.15911,0.06341 -13.4359,0.165984 -16.17064,0.227951 l -4.97226,0.112679 v -1.125299 -1.125305 l 1.68625,-0.111665 c 0.92743,-0.06144 4.76039,-0.112162 8.51769,-0.11277 3.75729,-6.54e-4 10.27527,-0.05262 14.4844,-0.115554 l 7.65295,-0.114444 v -2.133663 -2.133671 h -1.81595 -1.81596 v -0.69179 -0.691796 h 1.81596 1.81595 v -3.977801 -3.977808 h -2.6807 -2.68069 v -0.418226 c 0,-0.230023 -0.0473,-0.54133 -0.10498,-0.69179 -0.0931,-0.242489 0.21186,-0.27357 2.68389,-0.27357 h 2.78885 l -0.0464,-4.021041 -0.0464,-4.021043 h -1.77295 -1.77294 l 1.7e-4,-0.73503 1.8e-4,-0.73503 h 1.81595 1.81596 v -3.97781 -3.9778 h -2.6807 -2.6807 v -0.69179 -0.69179 h 2.6807 2.6807 v -6.91792 -6.91793 h 0.69179 0.69179 l 0.001,22.69944 10e-4,22.699429 0.84244,-1.297113 c 0.46334,-0.713407 1.30897,-2.036458 1.87918,-2.940113 2.60461,-4.127692 7.79514,-12.334013 8.64183,-13.662901 0.51516,-0.808532 1.99242,-3.143332 3.28281,-5.188442 3.38385,-5.363 4.78005,-7.56845 7.66419,-12.10636 0.92524,-1.45578 5.46524,-8.63455 6.26176,-9.90128 0.28412,-0.45183 0.55297,-0.8215 0.59746,-0.8215 0.14721,0 1.61069,0.89479 1.70011,1.03946 0.0987,0.15967 -0.37143,0.93796 -4.49094,7.43499 -1.59829,2.52072 -3.84026,6.06183 -4.98215,7.86914 -1.14189,1.8073 -2.52352,3.98645 -3.0703,4.84254 -0.54677,0.8561 -1.55692,2.45154 -2.24477,3.54544 -0.68784,1.09389 -1.69672,2.68934 -2.24193,3.545437 -2.48368,3.899832 -3.55373,5.588843 -5.53326,8.733878 -2.56123,4.069236 -3.46245,5.492343 -4.74068,7.485953 -0.53574,0.835589 -0.97407,1.558768 -0.97407,1.607067 0,0.0483 -0.0789,0.181822 -0.17539,0.29671 -0.19692,0.234534 -0.61864,0.879679 -1.68828,2.582684 -0.60752,0.967256 -0.73056,1.309513 -0.73056,2.032137 v 0.868978 h 15.39238 15.39238 v 0.740083 0.740076 l -1.21404,-0.06618 c -0.66771,-0.03641 -1.40707,-0.01771 -1.643,0.04151 -0.42658,0.107122 -0.42874,0.118143 -0.42874,2.179747 v 2.072082 h -0.6918 -0.69179 v -2.16185 -2.161849 h -6.13316 -6.13317 l -0.0497,1.599772 -0.0498,1.599766 -0.6349,0.05288 -0.63491,0.05288 -0.1157,-0.926023 c -0.0637,-0.509314 -0.0995,-1.03897 -0.0796,-1.177023 0.0198,-0.138053 0.0269,-0.46763 0.0156,-0.732395 l -0.0205,-0.48139 -6.09641,0.04903 -6.09642,0.04902 -0.0468,3.502197 -0.0468,3.502203 h -0.6882 -0.68822 z"
             style="fill:#bdcdd4;stroke-width:0.17294805" />
          <path
             id="path1442"
             d="m -469.64961,-99.183114 v -36.319096 h 36.31909 36.31909 v 36.319096 36.319093 h -36.31909 -36.31909 z m 71.47168,-0.04327 0.0424,-35.065226 h -35.15086 l -35.15085,1e-5 -0.0441,34.818184 c -0.0242,19.149994 -0.0189,34.948991 0.0119,35.10887 0.0523,0.271322 2.39445,0.287787 35.15259,0.247038 l 35.09659,-0.04366 z m -67.66682,21.017284 v -1.028315 l 10.40538,-0.114822 c 5.72296,-0.06314 12.63007,-0.115502 15.34914,-0.116332 2.71907,-6.54e-4 5.33289,-0.04863 5.8085,-0.106259 0.8287,-0.10039 0.88951,-0.145368 1.45927,-1.079419 0.327,-0.536068 0.99804,-1.597281 1.49123,-2.358255 0.81111,-1.251547 4.03471,-6.336272 9.59396,-15.132954 1.11212,-1.759743 3.77164,-5.962384 5.91006,-9.339194 6.73582,-10.63664 9.19923,-14.53032 11.02394,-17.42452 0.97453,-1.54572 1.83952,-2.81041 1.92221,-2.81041 0.0827,0 0.49201,0.21669 0.90962,0.48153 l 0.75928,0.48152 -2.07671,3.28009 c -1.14219,1.80406 -3.26023,5.14794 -4.70676,7.43086 -1.44652,2.28291 -3.86024,6.09642 -5.3638,8.47445 -1.50358,2.37804 -4.21188,6.65851 -6.01847,9.512147 -1.80659,2.853646 -4.29313,6.783893 -5.52564,8.733878 -1.23251,1.949991 -3.40724,5.384815 -4.83273,7.632941 l -2.59179,4.087505 -7.11649,0.105063 c -3.91408,0.05778 -11.45533,0.15316 -16.75835,0.211937 l -9.64186,0.106874 z"
             style="fill:#364e59;stroke-width:0.17294805" />
        </g>
      </g>
    </g>
  </g>
</svg>
