<?xml version="1.0" encoding="UTF-8" standalone="no"?>
<svg
   xmlns:dc="http://purl.org/dc/elements/1.1/"
   xmlns:cc="http://creativecommons.org/ns#"
   xmlns:rdf="http://www.w3.org/1999/02/22-rdf-syntax-ns#"
   xmlns:svg="http://www.w3.org/2000/svg"
   xmlns="http://www.w3.org/2000/svg"
   id="svg1198"
   version="1.1"
   viewBox="0 0 100 100"
   height="100mm"
   width="100mm">
  <defs
     id="defs1192" />
  <metadata
     id="metadata1195">
    <rdf:RDF>
      <cc:Work
         rdf:about="">
        <dc:format>image/svg+xml</dc:format>
        <dc:type
           rdf:resource="http://purl.org/dc/dcmitype/StillImage" />
        <dc:title></dc:title>
      </cc:Work>
    </rdf:RDF>
  </metadata>
  <g
     transform="translate(0,-197)"
     id="layer1">
    <g
       transform="matrix(1.3766865,0,0,1.3766865,-24.016696,201.71765)"
       id="g6155">
      <g
         id="g5869">
        <g
           transform="translate(487.0949,142.56018)"
           id="g5848">
          <path
             style="fill:#bdcdd4;stroke-width:0.17294805"
             d="m -433.41632,-83.293165 v -3.54546 h -6.13966 -6.13965 v 1.64302 1.64302 h -0.69179 -0.69179 v -1.64302 -1.64302 h -6.13434 -6.13433 l -0.0486,2.11863 -0.0486,2.118627 -0.64316,0.0533 -0.64315,0.0533 -0.0486,-2.128727 -0.0486,-2.12875 h -2.29171 -2.2917 l 1.4e-4,-0.73503 1.5e-4,-0.73504 h 15.99769 15.9977 v -0.71957 -0.71958 -2.24914 -2.13368 -2.13368 h -1.81595 -1.81596 v -0.69179 -0.69181 h 1.81596 1.81595 v -3.977815 -3.97783 h -2.6807 -2.68069 v -0.41823 c 0,-0.23002 -0.0473,-0.54133 -0.10498,-0.69179 -0.0931,-0.24249 0.21186,-0.27357 2.68389,-0.27357 h 2.78885 l -0.0464,-4.02107 -0.0464,-4.02105 h -1.77295 -1.77294 l 1.7e-4,-0.73503 1.8e-4,-0.73503 h 1.81595 1.81596 v -3.97781 -3.9778 h -2.6807 -2.6807 v -0.69179 -0.69179 h 2.6807 2.6807 v -6.91792 -6.91793 h 0.69179 0.69179 l 0.001,22.69944 10e-4,22.699525 -0.003,5.09776 v 0.86898 h 15.39238 15.39238 v 0.74009 0.74008 l -1.21404,-0.0662 c -0.66771,-0.0364 -1.40707,-0.0177 -1.643,0.0415 -0.42658,0.10712 -0.42874,0.11814 -0.42874,2.17976 v 2.072087 h -0.6918 -0.69179 v -2.161857 -2.16186 h -6.13316 -6.13317 l -0.0497,1.59978 -0.0498,1.59978 -0.6349,0.0529 -0.63491,0.0529 -0.1157,-0.92603 c -0.0637,-0.50932 -0.0995,-1.03898 -0.0796,-1.17703 0.0198,-0.13806 0.0269,-0.46763 0.0156,-0.7324 l -0.0205,-0.4814 -6.09641,0.049 -6.09642,0.049 -0.0468,3.50222 -0.0468,3.502199 h -0.6882 -0.68822 z"
             id="path5844" />
          <path
             style="fill:#364e59;stroke-width:0.17294805"
             d="M -469.64961,-109.66791 V -145.987 h 36.31909 36.31909 v 36.31909 36.319094 h -36.31909 -36.31909 z m 71.47168,-0.0433 0.0424,-35.06523 h -35.15086 l -35.15085,1e-5 -0.0441,34.81819 c -0.0242,19.149993 -0.0189,34.94899 0.0119,35.108869 0.0523,0.271322 2.39445,0.287787 35.15259,0.247038 l 35.09659,-0.04366 z"
             id="path5846" />
        </g>
        <path
           id="path5780"
           d="m 25.194496,53.94603 c 5.40636,-0.198258 11.037704,-0.06375 16.114165,-2.201718 5.622224,-2.383167 8.787203,-7.890399 11.664487,-12.964445 3.079115,-5.426463 5.685982,-11.300289 10.287104,-15.654919 4.24496,-3.986238 10.259421,-4.621266 15.798892,-4.878981 1.487728,-0.07954 2.977783,-0.09775 4.466788,-0.142375"
           style="fill:none;stroke:#364e59;stroke-width:2.06399989;stroke-miterlimit:4;stroke-dasharray:none" />
      </g>
    </g>
  </g>
</svg>
