<?xml version="1.0" encoding="UTF-8" standalone="no"?>
<!-- Created with Inkscape (http://www.inkscape.org/) -->

<svg
   version="1.1"
   width="899.63373"
   height="1200"
   id="svg2"
   xml:space="preserve"
   sodipodi:docname="chronic-text.svg"
   inkscape:version="1.2 (dc2aeda, 2022-05-15)"
   xmlns:inkscape="http://www.inkscape.org/namespaces/inkscape"
   xmlns:sodipodi="http://sodipodi.sourceforge.net/DTD/sodipodi-0.dtd"
   xmlns="http://www.w3.org/2000/svg"
   xmlns:svg="http://www.w3.org/2000/svg"
   xmlns:rdf="http://www.w3.org/1999/02/22-rdf-syntax-ns#"
   xmlns:cc="http://creativecommons.org/ns#"
   xmlns:dc="http://purl.org/dc/elements/1.1/"><sodipodi:namedview
     id="namedview555"
     pagecolor="#ffffff"
     bordercolor="#666666"
     borderopacity="1.0"
     inkscape:showpageshadow="2"
     inkscape:pageopacity="0.0"
     inkscape:pagecheckerboard="0"
     inkscape:deskcolor="#d1d1d1"
     showgrid="false"
     inkscape:zoom="0.26232423"
     inkscape:cx="238.25477"
     inkscape:cy="449.82501"
     inkscape:window-width="1680"
     inkscape:window-height="1022"
     inkscape:window-x="0"
     inkscape:window-y="28"
     inkscape:window-maximized="0"
     inkscape:current-layer="svg2" /><metadata
     id="metadata8"><rdf:RDF><cc:Work
         rdf:about=""><dc:format>image/svg+xml</dc:format><dc:type
           rdf:resource="http://purl.org/dc/dcmitype/StillImage" /></cc:Work></rdf:RDF></metadata><defs
     id="defs6" /><g
     transform="matrix(1.25,0,0,-1.25,0,899.655)"
     id="g10"><g
       transform="scale(0.1)"
       id="g12"><path
         d="M 6626.85,3598.68 C 6377.5,3349.3 3847.87,819.609 3598.49,570.23 3349.14,819.609 819.547,3349.31 570.191,3598.68 819.547,3848.03 3349.14,6377.66 3598.49,6627.03 3847.85,6377.66 6377.5,3848.03 6626.85,3598.68 Z M 0,3598.68 3598.49,0 7197.07,3598.68 3598.49,7197.24 0,3598.68"
         inkscape:connector-curvature="0"
         id="path14"
         style="fill:#ef2e32;fill-opacity:1;fill-rule:nonzero;stroke:none" /><path
         d="m 3225.95,3260.41 c -28.79,0 -52.15,-23.35 -52.15,-52.13 0,-28.81 23.36,-52.15 52.15,-52.15 28.81,0 52.15,23.34 52.15,52.15 0,28.78 -23.34,52.13 -52.15,52.13"
         inkscape:connector-curvature="0"
         id="path16"
         style="fill:#100f0d;fill-opacity:1;fill-rule:nonzero;stroke:none" /><path
         d="m 4016.11,2759.9 c 0,30.05 -24.36,54.43 -54.42,54.43 -30.05,0 -54.41,-24.38 -54.41,-54.43 0,-6.88 1.33,-13.43 3.65,-19.5 -19.72,-2.77 -34.96,-19.54 -34.96,-40.04 0,-5.73 1.23,-11.19 3.4,-16.15 5.68,-14.35 19.61,-24.54 35.98,-24.54 l 1.05,0.11 0.12,-0.02 c 22.5,0 40.68,18.19 40.68,40.6 0,1.84 -0.29,3.6 -0.54,5.38 1.66,-0.16 3.34,-0.26 5.03,-0.26 30.06,0 54.42,24.37 54.42,54.42"
         inkscape:connector-curvature="0"
         id="path18"
         style="fill:#100f0d;fill-opacity:1;fill-rule:nonzero;stroke:none" /><path
         d="m 3484.55,2694.89 c 0,-28.04 22.71,-50.78 50.76,-50.78 28.04,0 50.76,22.74 50.76,50.78 0,28.03 -22.72,50.77 -50.76,50.77 -28.05,0 -50.76,-22.74 -50.76,-50.77"
         inkscape:connector-curvature="0"
         id="path20"
         style="fill:#100f0d;fill-opacity:1;fill-rule:nonzero;stroke:none" /><path
         d="m 3321.34,2959.56 c 28.05,0 50.76,22.74 50.76,50.78 0,28.04 -22.71,50.77 -50.76,50.77 -14,0 -26.66,-5.69 -35.86,-14.84 -3.82,16.08 -18.2,28.06 -35.45,28.06 -20.19,0 -36.56,-16.36 -36.56,-36.55 0,-20.19 16.37,-36.56 36.56,-36.56 7.74,0 14.89,2.45 20.81,6.56 1.36,-26.83 23.34,-48.22 50.5,-48.22"
         inkscape:connector-curvature="0"
         id="path22"
         style="fill:#100f0d;fill-opacity:1;fill-rule:nonzero;stroke:none" /><path
         d="m 3880.6,3144.54 c -8.94,0 -17.34,-2.18 -24.8,-6.01 -5.02,16.84 -20.45,29.2 -38.93,29.2 -22.54,0 -40.82,-18.28 -40.82,-40.82 0,-22.55 18.28,-40.82 40.82,-40.82 3.26,0 6.41,0.48 9.43,1.21 1.49,-28.73 25.2,-51.6 54.3,-51.6 3.97,0 7.83,0.45 11.58,1.27 25.28,2.88 45,24.1 45,50.17 0,9.26 -2.65,17.81 -6.99,25.3 -8.52,18.9 -27.5,32.1 -49.59,32.1"
         inkscape:connector-curvature="0"
         id="path24"
         style="fill:#100f0d;fill-opacity:1;fill-rule:nonzero;stroke:none" /><path
         d="m 3684.82,3468.43 c 0,28.05 -22.74,50.77 -50.76,50.77 -28.05,0 -50.78,-22.72 -50.78,-50.77 0,-19.38 10.99,-36.02 26.97,-44.59 -15.24,-4.39 -26.47,-18.28 -26.47,-34.95 0,-20.19 16.37,-36.55 36.57,-36.55 20.17,0 36.54,16.36 36.54,36.55 0,12.19 -6.02,22.91 -15.2,29.55 24.38,3.71 43.13,24.57 43.13,49.99"
         inkscape:connector-curvature="0"
         id="path26"
         style="fill:#100f0d;fill-opacity:1;fill-rule:nonzero;stroke:none" /><path
         d="m 3239.06,2738.25 c -22.44,0 -40.63,-18.18 -40.63,-40.62 0,-22.42 18.19,-40.6 40.63,-40.6 22.42,0 40.6,18.18 40.6,40.6 0,22.44 -18.18,40.62 -40.6,40.62"
         inkscape:connector-curvature="0"
         id="path28"
         style="fill:#100f0d;fill-opacity:1;fill-rule:nonzero;stroke:none" /><path
         d="m 3526.19,3262.71 c 0,-20.17 16.36,-36.55 36.54,-36.55 20.19,0 36.56,16.38 36.56,36.55 0,20.19 -16.37,36.56 -36.56,36.56 -20.18,0 -36.54,-16.37 -36.54,-36.56"
         inkscape:connector-curvature="0"
         id="path30"
         style="fill:#100f0d;fill-opacity:1;fill-rule:nonzero;stroke:none" /><path
         d="m 3694.17,2277.98 c 0,22.86 -13.61,42.5 -33.16,51.37 3.36,5.9 5.43,12.64 5.43,19.9 0,22.45 -18.18,40.63 -40.61,40.63 -22.44,0 -40.62,-18.18 -40.62,-40.63 0,-12.11 5.41,-22.87 13.83,-30.31 -10.86,-10.27 -17.68,-24.8 -17.68,-40.96 0,-31.15 25.26,-56.38 56.41,-56.38 31.16,0 56.4,25.23 56.4,56.38"
         inkscape:connector-curvature="0"
         id="path32"
         style="fill:#100f0d;fill-opacity:1;fill-rule:nonzero;stroke:none" /><path
         d="m 3559.45,1851.88 c 13.49,10.3 22.26,26.51 22.26,44.82 0,19.11 -9.53,35.98 -24.08,46.18 8.19,9.78 13.11,22.37 13.11,36.12 0,31.15 -25.26,56.4 -56.41,56.4 -4.71,0 -9.24,-0.64 -13.59,-1.71 6.31,13.08 9.96,27.69 9.96,43.19 0,14.51 -3.19,28.25 -8.77,40.68 29.26,2.1 52.34,26.42 52.34,56.21 0,24.28 -15.37,44.91 -36.87,52.85 21.05,18.25 34.45,45.13 34.45,75.19 0,34.39 -17.46,64.71 -43.98,82.57 15.37,17.51 24.78,40.42 24.78,65.56 0,22.02 -7.24,42.28 -19.35,58.73 15.68,5.62 26.95,20.47 26.95,38.09 0,22.44 -18.17,40.62 -40.61,40.62 -13.71,0 -25.78,-6.84 -33.12,-17.25 -18.22,22.5 -46.02,36.9 -77.25,36.9 -14.59,0 -28.38,-3.23 -40.86,-8.87 -9.51,17.73 -28.2,29.81 -49.74,29.81 -31.15,0 -56.41,-25.26 -56.41,-56.42 0,-28.31 20.88,-51.67 48.07,-55.72 -0.18,-2.11 -0.39,-4.21 -0.43,-6.35 -17.23,14.27 -39.34,22.88 -63.46,22.88 -36.23,0 -67.83,-19.41 -85.23,-48.36 -14.75,16.23 -35.94,26.48 -59.59,26.48 -37.64,0 -69.14,-25.82 -78.03,-60.68 -12.93,8.85 -28.57,14.04 -45.43,14.04 -44.49,0 -80.59,-36.07 -80.59,-80.58 0,-6.23 0.78,-12.28 2.13,-18.11 -21.38,19.46 -49.7,31.42 -80.9,31.42 -49.64,0 -92.24,-30.05 -110.66,-72.95 -12.93,8.85 -28.57,14.04 -45.43,14.04 -44.49,0 -80.59,-36.06 -80.59,-80.58 0,-6.5 0.77,-12.81 2.23,-18.84 l 977.23,-992.79 c 12.75,5.38 21.7,18 21.7,32.73 0,13.93 -8.09,25.87 -19.77,31.7 13.83,4.84 23.79,17.89 23.79,33.39 0,14.63 -8.83,27.16 -21.47,32.61 12.49,8.27 20.73,22.4 20.73,38.51 0,21.95 -15.35,40.25 -35.88,44.94 40.92,28.22 67.79,75.38 67.79,128.88 0,33.01 -10.27,63.6 -27.73,88.83 28.16,17.59 46.93,48.74 46.93,84.38 0,40.23 -23.89,74.78 -58.22,90.46"
         inkscape:connector-curvature="0"
         id="path34"
         style="fill:#100f0d;fill-opacity:1;fill-rule:nonzero;stroke:none" /><path
         d="m 4656.89,2296.29 c -9.69,0 -18.79,-2.45 -26.76,-6.75 -9.76,33.52 -40.66,58.01 -77.32,58.01 -15.82,0 -30.51,-4.63 -42.95,-12.49 0.12,2.07 0.29,4.11 0.29,6.21 0,54.95 -44.53,99.49 -99.47,99.49 -12.87,0 -25.14,-2.53 -36.43,-6.99 -1.42,29.9 -26.03,53.69 -56.27,53.69 -31.15,0 -56.4,-25.24 -56.4,-56.41 0,-2.43 0.19,-4.83 0.5,-7.19 -14.17,23.09 -39.57,38.54 -68.65,38.54 -4.63,0 -9.12,-0.48 -13.53,-1.23 -0.63,54.43 -44.87,98.34 -99.44,98.34 -5.54,0 -10.95,-0.57 -16.27,-1.45 -2.69,28.65 -26.79,51.06 -56.13,51.06 -24.31,0 -44.96,-15.4 -52.91,-36.94 -2.5,0.16 -5,0.38 -7.56,0.38 -11.34,0 -22.28,-1.68 -32.69,-4.61 -9.67,25.56 -34.32,43.77 -63.26,43.77 -37.39,0 -67.7,-30.3 -67.7,-67.7 0,-11.51 2.91,-22.34 7.97,-31.84 -9.75,8.07 -22.23,12.95 -35.86,12.95 -31.15,0 -56.41,-25.25 -56.41,-56.42 0,-26.8 18.71,-49.18 43.77,-54.92 -7.34,-13.87 -11.54,-29.67 -11.54,-46.45 0,-32.29 15.43,-60.87 39.24,-79.05 -9.1,-16.94 -14.28,-36.3 -14.28,-56.89 0,-31.93 12.5,-60.86 32.79,-82.4 -6.64,-14.92 -10.41,-31.41 -10.41,-48.79 0,-6.74 0.71,-13.28 1.76,-19.71 -8.16,5.66 -17.81,9.32 -28.32,10.02 6.9,9.36 11.02,20.88 11.02,33.39 0,31.16 -25.26,56.42 -56.41,56.42 -31.15,0 -56.41,-25.26 -56.41,-56.42 0,-14.94 5.82,-28.52 15.32,-38.58 -23.62,-6.74 -40.92,-28.43 -40.92,-54.21 0,-31.16 25.25,-56.4 56.41,-56.4 1.79,0 3.49,0.29 5.23,0.45 -10.41,-17.79 -16.47,-38.45 -16.47,-60.56 0,-41.98 21.51,-78.87 54.07,-100.41 -43.06,-18.34 -73.26,-61.02 -73.26,-110.79 0,-36.09 15.93,-68.37 41.09,-90.43 -26.07,-17.93 -43.18,-47.93 -43.18,-81.97 0,-13.88 2.87,-27.09 7.98,-39.08 -7.24,-12.1 -11.48,-26.19 -11.48,-41.31 0,-17.48 5.62,-33.6 15.08,-46.8 -8.17,-6.5 -13.52,-16.42 -13.52,-27.69 0,-12.19 6.15,-22.91 15.49,-29.32 -9.71,-6.33 -16.15,-17.25 -16.15,-29.73 0,-2.25 0.27,-4.45 0.66,-6.6 -8.1,-6.5 -13.4,-16.38 -13.4,-27.62 0,-14.7 8.93,-27.33 21.68,-32.72 L 4710.07,2221 c 2.09,5.89 3.25,12.26 3.25,18.88 0,31.17 -25.28,56.41 -56.43,56.41"
         inkscape:connector-curvature="0"
         id="path36"
         style="fill:#100f0d;fill-opacity:1;fill-rule:nonzero;stroke:none" /><path
         d="m 4574.78,3386.96 0.04,-0.5 c -10.08,2.46 -20.53,3.92 -31.37,3.92 -72.54,0 -131.33,-58.78 -131.33,-131.33 0,-6.82 0.67,-13.45 1.68,-19.98 -7.75,3.38 -16.3,5.3 -25.29,5.3 -20.72,0 -39.04,-10.02 -50.55,-25.44 -11.87,3.93 -24.55,6.12 -37.73,6.12 -64.75,0 -117.4,-51.12 -120.12,-115.21 -4.12,0.85 -8.38,1.3 -12.75,1.3 -34.85,0 -63.09,-28.24 -63.09,-63.1 0,-10.57 2.64,-20.53 7.23,-29.29 -10.04,5.65 -21.58,8.9 -33.93,8.9 -38.34,0 -69.41,-31.07 -69.41,-69.39 0,-20.02 8.53,-37.99 22.09,-50.63 l 0.04,-0.72 c -16.13,-1.54 -29.44,-12.32 -34.57,-27.1 -2.03,-4.54 -3.21,-9.54 -3.21,-14.84 0,-12.84 6.66,-24.09 16.68,-30.62 6.92,-5.37 15.49,-8.7 24.93,-8.7 17.44,0 32.2,10.98 38.06,26.38 9.49,-5.12 20.3,-8.11 31.82,-8.11 5.19,0 10.23,0.64 15.1,1.76 -0.43,-4.18 -0.67,-8.4 -0.67,-12.68 0,-15.89 3.15,-31.03 8.75,-44.92 -22.42,-5.26 -39.16,-25.27 -39.16,-49.29 0,-7.41 1.66,-14.38 4.49,-20.72 7.23,-18.32 25,-31.34 45.9,-31.34 17.31,0 32.46,8.95 41.29,22.42 3.26,4.57 5.86,9.68 7.52,15.21 15.67,-7.45 33.09,-11.73 51.58,-11.73 5.71,0 11.29,0.53 16.8,1.29 -3.28,-8.76 -5.16,-18.2 -5.16,-28.11 0,-13.04 3.25,-25.27 8.75,-36.16 -2.57,0.52 -5.21,0.82 -7.94,0.82 -22.43,0 -40.63,-18.19 -40.63,-40.62 0,-22.43 18.2,-40.62 40.63,-40.62 20.25,0 36.89,14.87 39.96,34.24 10.95,-43.05 49.84,-74.92 96.3,-74.92 20.86,0 40.2,6.43 56.18,17.4 4.8,-39.94 38.73,-70.91 79.96,-70.91 20.99,0 40.06,8.1 54.39,21.25 -0.15,-2.41 -0.37,-4.83 -0.37,-7.29 0,-54.95 44.55,-99.48 99.49,-99.48 18.83,0 36.35,5.31 51.35,14.38 -7.52,-10.25 -12.01,-22.88 -12.01,-36.58 0,-34.26 27.79,-62.03 62.05,-62.03 20.72,0 39.02,10.19 50.29,25.78 l 0.04,-0.02 538.73,495.88 v 363.18 c 0,110.15 -118.59,247.79 -261.91,296.84 -32.13,11 -244.53,80.33 -244.53,80.33 -24.46,-1.89 -44.38,-19.96 -49.09,-43.51 -7.46,3.83 -15.89,6.03 -24.86,6.03 -30.04,0 -54.41,-24.38 -54.41,-54.43 0,-2.95 0.29,-5.84 0.76,-8.66 -16.58,12.34 -37.05,19.73 -59.3,19.73 -54.93,0 -99.49,-44.53 -99.49,-99.48"
         inkscape:connector-curvature="0"
         id="path38"
         style="fill:#100f0d;fill-opacity:1;fill-rule:nonzero;stroke:none" /><path
         d="m 3452.5,3472.14 -0.22,-2.15 -2.54,1.36 c 0.94,0.23 1.84,0.54 2.76,0.79 z m -605.28,1614.7 c 0,-296.95 111,-713.59 327.48,-969.02 l -26.4,-270.88 -580.67,-210.08 c 9.28,-45.34 49.4,-79.43 97.46,-79.43 8.48,0 16.66,1.17 24.51,3.17 11.1,-42.84 49.89,-74.5 96.2,-74.5 4.9,0 9.66,0.47 14.37,1.15 11.39,-42.4 49.98,-73.64 95.98,-73.64 13.53,0 26.42,2.72 38.2,7.61 3.15,-31.9 30.04,-56.81 62.77,-56.81 6.45,0 12.68,0.96 18.54,2.77 8.07,-46.83 48.79,-82.5 97.93,-82.5 38.24,0 71.39,21.61 88.05,53.24 16.7,-12.71 37.48,-20.33 60.07,-20.33 14.65,0 28.52,3.24 41.04,8.93 12.97,-27.47 37.01,-48.66 66.35,-57.82 -1.19,-3.63 -2.01,-7.43 -2.01,-11.48 0,-20.18 16.36,-36.54 36.56,-36.54 20.17,0 36.54,16.36 36.54,36.54 0,4.51 -0.92,8.78 -2.42,12.76 42.66,14.96 73.26,55.44 73.26,103.21 0,21.85 -6.43,42.15 -17.46,59.21 17.86,2.4 31.66,17.54 31.66,36.05 0,15.77 -10.04,29.09 -24.04,34.2 15.27,17.47 24.59,40.25 24.59,65.3 0,4.78 -0.45,9.45 -1.1,14.05 37.5,14.24 64.18,50.43 64.18,92.93 0,26.58 -10.56,50.56 -27.56,68.38 3.11,-0.85 6.31,-1.45 9.67,-1.45 20.18,0 36.54,16.37 36.54,36.56 0,20.19 -16.36,36.54 -36.54,36.54 -8.03,0 -15.37,-2.65 -21.4,-7.02 -7.33,13.53 -20.51,23.37 -36.22,25.97 12.33,20.12 19.56,43.69 19.56,69.03 0,16.39 -3.13,32.02 -8.56,46.52 37.68,14.15 64.51,50.41 64.51,93.04 0,24.82 -9.14,47.45 -24.16,64.89 27.64,9.14 47.58,35.14 47.58,65.84 0,25.21 -13.5,47.23 -33.59,59.37 9.39,11.84 15.04,26.78 15.04,43.07 0,4.16 -0.43,8.22 -1.14,12.19 14.4,0.66 27.7,5.56 38.52,13.69 -0.82,-4.25 -1.27,-8.64 -1.27,-13.11 0,-24.63 12.85,-46.19 32.17,-58.51 -3.83,-10.57 -6.02,-21.92 -6.02,-33.81 0,-40.5 24.24,-75.26 58.95,-90.79 -3.21,-11.37 -5.04,-23.31 -5.04,-35.69 0,-42.09 19.84,-79.46 50.62,-103.49 -26.95,-11.79 -45.82,-38.66 -45.82,-69.97 0,-31.25 18.79,-58.07 45.67,-69.88 -5.39,-9.3 -8.54,-20.09 -8.54,-31.62 0,-25.25 14.86,-46.97 36.29,-57.06 -6.17,-15.22 -9.65,-31.84 -9.65,-49.29 0,-21.02 5.06,-40.83 13.85,-58.44 -4.2,-4.75 -8.09,-9.77 -11.58,-15.08 -6.62,6.72 -15.82,10.88 -25.98,10.88 -20.19,0 -36.56,-16.35 -36.56,-36.56 0,-20.17 16.37,-36.54 36.56,-36.54 1.72,0 3.36,0.27 5.02,0.51 -0.25,-3.36 -0.51,-6.73 -0.51,-10.15 0,-25.34 7.29,-48.91 19.71,-68.96 -10.61,-20.2 -16.68,-43.15 -16.68,-67.55 0,-37.38 14.2,-71.35 37.34,-97.13 -6.44,-10.35 -10.21,-22.54 -10.21,-35.62 0,-37.39 30.31,-67.69 67.69,-67.69 33.29,0 60.88,24.04 66.57,55.67 18.3,1.96 35.54,7.37 51.17,15.47 8.05,-17.39 25.55,-29.53 45.97,-29.53 28.05,0 50.77,22.72 50.77,50.77 0,21.23 -13.07,39.37 -31.57,46.95 5.14,11.07 8.77,22.95 11.04,35.29 10.96,-2.95 22.42,-4.68 34.3,-4.68 1.5,0 2.96,0.19 4.47,0.23 8.94,-22.88 31.13,-39.1 57.21,-39.1 20.03,0 37.79,9.66 49,24.53 6.29,-23.1 27.36,-40.08 52.44,-40.08 19.01,0 35.72,9.75 45.45,24.51 10.55,-6.47 22.91,-10.27 36.21,-10.27 38.32,0 69.4,31.07 69.4,69.39 0,12.8 -3.54,24.76 -9.57,35.05 5.27,-1.71 10.89,-2.65 16.71,-2.65 30.06,0 54.44,24.36 54.44,54.42 0,2.56 -0.24,5.06 -0.59,7.52 11.54,-22.3 34.79,-37.55 61.62,-37.55 37.85,0 68.56,30.3 69.32,67.96 18.1,11.19 30.68,30.45 32.68,52.77 3.53,-1.13 7.2,-1.9 11.11,-1.9 20.19,0 36.57,16.37 36.57,36.56 0,4.2 -0.73,8.22 -2.04,11.98 l -55.51,17.9 -579.69,186.7 -2.34,247.57 c 88.07,94.76 156.72,217.01 206.47,349.54 94.25,251.25 145.07,516.76 145.07,655.82 0,360.19 -343.98,827.26 -768.3,827.26 -424.29,0 -768.28,-370.38 -768.28,-827.26"
         inkscape:connector-curvature="0"
         id="path40"
         style="fill:#100f0d;fill-opacity:1;fill-rule:nonzero;stroke:none" /><path
         d="m 2693.26,2463.65 c 0,3.94 -0.3,7.81 -0.73,11.62 14.77,-18.26 37.33,-29.95 62.64,-29.95 44.51,0 80.59,36.07 80.59,80.58 0,12.05 -2.72,23.43 -7.44,33.68 16.15,5.64 29.9,16.3 39.53,30.06 10.23,-10.44 24.47,-16.93 40.25,-16.93 31.15,0 56.41,25.26 56.41,56.4 0,16.22 -6.86,30.77 -17.82,41.06 20.63,10.06 36.31,28.62 42.49,51.14 12.98,-14.24 30.93,-23.83 51.15,-25.93 -8.15,-9.78 -13.07,-22.36 -13.07,-36.1 0,-31.15 25.26,-56.4 56.41,-56.4 31.15,0 56.4,25.25 56.4,56.4 0,25.52 -16.93,47.04 -40.17,54.01 17.93,14.79 29.37,37.18 29.37,62.23 0,7.38 -1.07,14.49 -2.93,21.28 2.43,-0.22 4.89,-0.38 7.39,-0.38 11.36,0 22.14,2.38 31.95,6.62 0.84,-21.68 18.57,-39.04 40.45,-39.04 22.44,0 40.62,18.18 40.62,40.61 0,21.91 -17.36,39.62 -39.06,40.45 4.24,9.8 6.62,20.6 6.62,31.96 0,6.92 -1.07,13.57 -2.71,19.97 h 0.02 c 20.19,0 36.56,16.37 36.56,36.56 0,20.19 -16.37,36.54 -36.56,36.54 -1.06,0 -2.05,-0.21 -3.09,-0.3 -2.09,30.42 -17.73,57.06 -41.07,73.85 0.15,2.33 0.35,4.65 0.35,7.04 0,54.96 -44.53,99.47 -99.47,99.47 -19.16,0 -36.98,-5.5 -52.15,-14.87 2.16,5.75 3.41,11.95 3.41,18.46 0,28.81 -23.33,52.15 -52.12,52.15 -5.14,0 -10.08,-0.77 -14.77,-2.15 0.68,4.67 1.13,9.42 1.13,14.27 0,54.96 -44.51,99.48 -99.47,99.48 -16.99,0 -32.99,-4.28 -46.99,-11.79 -12.6,20.47 -32.33,36.06 -55.82,43.16 3.01,6.59 4.72,13.89 4.72,21.59 0,28.8 -23.35,52.14 -52.14,52.14 -6.76,0 -13.21,-1.32 -19.14,-3.67 -0.38,54.65 -44.71,98.82 -99.44,98.82 -8.83,0 -17.32,-1.26 -25.47,-3.41 -7.95,18.64 -26.44,31.7 -47.99,31.7 -12.71,0 -24.37,-4.57 -33.41,-12.15 -3.48,25.43 -25.22,45.06 -51.6,45.06 -10.02,0 -19.34,-2.87 -27.27,-7.75 -137.97,-52.86 -252.52,-96.97 -296.23,-114.42 -97.36,-38.89 -169.82,-142.97 -169.82,-246.11 v -332.3 l 538.28,-546.45 c 5.48,-1.19 11.21,-1.8 17.05,-1.8 29.88,0 55.9,16.3 69.83,40.45 10.85,-4.06 22.57,-6.4 34.85,-6.4 54.95,0 99.48,44.54 99.48,99.49"
         inkscape:connector-curvature="0"
         id="path42"
         style="fill:#100f0d;fill-opacity:1;fill-rule:nonzero;stroke:none" /></g></g><g
     aria-label="CHRONIC
HAZARD"
     id="text2993"
     style="font-weight:bold;line-height:0%;font-family:'Linux Biolinum';-inkscape-font-specification:'Linux Biolinum Bold';text-align:center;letter-spacing:0px;word-spacing:0px;text-anchor:middle"><path
       d="m 267.85587,992.66443 q 0,-2.22656 1.64062,-3.98438 1.64063,-1.64062 3.98438,-1.64062 2.34375,0 3.98437,1.64062 1.64063,1.75782 1.64063,3.98438 0,6.44531 -2.46094,12.42187 -2.46094,5.918 -7.03125,10.4297 -4.51172,4.5703 -10.48828,7.0312 -5.91797,2.461 -12.36328,2.461 -6.44532,0 -12.36329,-2.461 -5.91796,-2.4609 -10.48828,-7.0312 -4.51172,-4.5117 -6.97265,-10.4297 -2.46094,-5.97656 -2.46094,-12.42187 v -27.65625 q 0,-6.44531 2.46094,-12.36328 2.46093,-5.97657 6.97265,-10.48828 4.57032,-4.57032 10.48828,-7.03125 5.91797,-2.46094 12.36329,-2.46094 6.44531,0 12.36328,2.46094 5.97656,2.46093 10.48828,7.03125 4.57031,4.51171 7.03125,10.48828 2.46094,5.91797 2.46094,12.36328 0,2.22656 -1.64063,3.98437 -1.64062,1.64063 -3.98437,1.64063 -2.34375,0 -3.98438,-1.64063 -1.64062,-1.75781 -1.64062,-3.98437 0,-8.67188 -6.15235,-14.94141 -6.26953,-6.15234 -14.9414,-6.15234 -8.61329,0 -14.88282,6.15234 -6.15234,6.26953 -6.15234,14.94141 v 27.65625 q 0,8.67187 6.15234,14.94137 6.26953,6.1524 14.88282,6.1524 8.67187,0 14.9414,-6.1524 6.15235,-6.2695 6.15235,-14.94137 z"
       style="font-size:120px;line-height:1.25;font-family:Pointilised;-inkscape-font-specification:'Pointilised Bold'"
       id="path1435" /><path
       d="m 341.68399,973.2113 v -34.92187 q 0,-2.34375 1.64063,-3.98438 1.64062,-1.64062 3.98437,-1.64062 2.34375,0 3.98438,1.64062 1.64062,1.64063 1.64062,3.98438 v 81.09377 q 0,2.3437 -1.64062,3.9844 -1.64063,1.6406 -3.98438,1.6406 -2.34375,0 -3.98437,-1.6406 -1.64063,-1.6407 -1.64063,-3.9844 v -34.9219 h -42.12891 v 34.9219 q 0,2.3437 -1.64062,3.9844 -1.64063,1.6406 -3.98438,1.6406 -2.34375,0 -3.98437,-1.6406 -1.64063,-1.6407 -1.64063,-3.9844 v -81.09377 q 0,-2.34375 1.64063,-3.98438 1.64062,-1.64062 3.98437,-1.64062 2.34375,0 3.98438,1.64062 1.64062,1.64063 1.64062,3.98438 v 34.92187 z"
       style="font-size:120px;line-height:1.25;font-family:Pointilised;-inkscape-font-specification:'Pointilised Bold'"
       id="path1437" /><path
       d="m 424.53555,1019.3832 q 0,2.3437 -1.64062,3.9844 -1.64063,1.6406 -3.98438,1.6406 -2.34375,0 -3.98437,-1.6406 -0.87891,-0.879 -1.34766,-2.168 l -12.59765,-36.79689 q -0.64454,0.0586 -1.9336,0.0586 h -25.66406 v 34.9219 q 0,2.3437 -1.64063,3.9844 -1.64062,1.6406 -3.98437,1.6406 -2.34375,0 -3.98438,-1.6406 -1.64062,-1.6407 -1.64062,-3.9844 v -86.71877 h 11.25 25.66406 q 11.42578,0 19.62891,7.55859 3.86719,3.63281 5.97656,8.4375 2.10938,4.7461 2.10938,9.90235 0,5.15625 -2.10938,9.96093 -2.10937,4.7461 -5.97656,8.37891 -2.98828,2.69531 -6.79688,4.62891 l 12.07032,35.27348 q 0.58593,1.1132 0.58593,2.5781 z m -25.48828,-75.46877 h -25.66406 v 29.29687 h 25.66406 q 6.85547,0 11.66016,-4.27734 4.80469,-4.33594 4.80469,-10.37109 0,-6.03516 -4.80469,-10.3711 -4.80469,-4.27734 -11.66016,-4.27734 z"
       style="font-size:120px;line-height:1.25;font-family:Pointilised;-inkscape-font-specification:'Pointilised Bold'"
       id="path1439" /><path
       d="m 496.60587,992.19568 q 1.99218,-6.44531 1.99218,-13.35938 0,-6.91406 -1.99218,-13.35937 -1.9336,-6.44531 -5.56641,-11.3086 -3.57422,-4.92187 -8.32031,-7.55859 -4.7461,-2.69531 -9.84375,-2.69531 -5.09766,0 -9.84375,2.69531 -4.7461,2.63672 -8.32032,7.55859 -3.57421,4.86329 -5.5664,11.3086 -1.9336,6.38672 -1.9336,13.35937 0,6.97266 1.9336,13.41797 1.99219,6.38672 5.5664,11.25003 3.57422,4.9218 8.32032,7.6172 4.74609,2.6367 9.84375,2.6367 5.09765,0 9.84375,-2.6367 4.74609,-2.6954 8.32031,-7.6172 3.63281,-4.86331 5.56641,-11.30862 z m 10.42968,-30.9961 q 2.8125,8.4961 2.8125,17.63672 0,9.14063 -2.8125,17.63672 -2.8125,8.49608 -8.02734,14.99998 -5.15625,6.5039 -12.01172,10.0196 -6.79687,3.5156 -14.12109,3.5156 -7.32422,0 -14.1211,-3.5156 -6.79687,-3.5157 -12.01172,-10.0196 -5.15625,-6.5039 -7.96875,-14.94138 -2.8125,-8.4961 -2.8125,-17.69532 0,-9.19922 2.8125,-17.63672 2.8125,-8.49609 7.96875,-15 5.21485,-6.5039 12.01172,-10.01953 6.79688,-3.51562 14.1211,-3.51562 7.32422,0 14.12109,3.51562 6.85547,3.51563 12.01172,10.01953 5.21484,6.50391 8.02734,15 z"
       style="font-size:120px;line-height:1.25;font-family:Pointilised;-inkscape-font-specification:'Pointilised Bold'"
       id="path1441" /><path
       d="m 572.42618,1004.9105 v -66.62107 q 0,-2.34375 1.64062,-3.98438 1.64063,-1.64062 3.98438,-1.64062 2.34375,0 3.98437,1.64062 1.64063,1.64063 1.64063,3.98438 v 86.71877 h -11.25 -1.64063 l -40.48828,-72.24612 v 66.62112 q 0,2.3437 -1.64062,3.9844 -1.64063,1.6406 -3.98438,1.6406 -2.34375,0 -3.98437,-1.6406 -1.64063,-1.6407 -1.64063,-3.9844 v -86.71877 h 11.25 1.64063 z"
       style="font-size:120px;line-height:1.25;font-family:Pointilised;-inkscape-font-specification:'Pointilised Bold'"
       id="path1443" /><path
       d="m 596.44962,1019.3832 v -81.09377 q 0,-2.34375 1.64062,-3.98438 1.75781,-1.64062 3.98438,-1.64062 2.34375,0 3.98437,1.64062 1.64063,1.64063 1.64063,3.98438 v 81.09377 q 0,2.3437 -1.64063,3.9844 -1.64062,1.6406 -3.98437,1.6406 -2.22657,0 -3.98438,-1.6406 -1.64062,-1.6407 -1.64062,-3.9844 z"
       style="font-size:120px;line-height:1.25;font-family:Pointilised;-inkscape-font-specification:'Pointilised Bold'"
       id="path1445" /><path
       d="m 673.91055,992.66443 q 0,-2.22656 1.64063,-3.98438 1.64062,-1.64062 3.98437,-1.64062 2.34375,0 3.98438,1.64062 1.64062,1.75782 1.64062,3.98438 0,6.44531 -2.46093,12.42187 -2.46094,5.918 -7.03125,10.4297 -4.51172,4.5703 -10.48829,7.0312 -5.91796,2.461 -12.36328,2.461 -6.44531,0 -12.36328,-2.461 -5.91797,-2.4609 -10.48828,-7.0312 -4.51172,-4.5117 -6.97266,-10.4297 -2.46093,-5.97656 -2.46093,-12.42187 v -27.65625 q 0,-6.44531 2.46093,-12.36328 2.46094,-5.97657 6.97266,-10.48828 4.57031,-4.57032 10.48828,-7.03125 5.91797,-2.46094 12.36328,-2.46094 6.44532,0 12.36328,2.46094 5.97657,2.46093 10.48829,7.03125 4.57031,4.51171 7.03125,10.48828 2.46093,5.91797 2.46093,12.36328 0,2.22656 -1.64062,3.98437 -1.64063,1.64063 -3.98438,1.64063 -2.34375,0 -3.98437,-1.64063 -1.64063,-1.75781 -1.64063,-3.98437 0,-8.67188 -6.15234,-14.94141 -6.26953,-6.15234 -14.94141,-6.15234 -8.61328,0 -14.88281,6.15234 -6.15234,6.26953 -6.15234,14.94141 v 27.65625 q 0,8.67187 6.15234,14.94137 6.26953,6.1524 14.88281,6.1524 8.67188,0 14.94141,-6.1524 6.15234,-6.2695 6.15234,-14.94137 z"
       style="font-size:120px;line-height:1.25;font-family:Pointilised;-inkscape-font-specification:'Pointilised Bold'"
       id="path1447" /><path
       d="m 286.3129,1123.2113 v -34.9219 q 0,-2.3437 1.64062,-3.9843 1.64063,-1.6407 3.98438,-1.6407 2.34375,0 3.98437,1.6407 1.64063,1.6406 1.64063,3.9843 v 81.0938 q 0,2.3437 -1.64063,3.9844 -1.64062,1.6406 -3.98437,1.6406 -2.34375,0 -3.98438,-1.6406 -1.64062,-1.6407 -1.64062,-3.9844 v -34.9219 h -42.12891 v 34.9219 q 0,2.3437 -1.64062,3.9844 -1.64063,1.6406 -3.98438,1.6406 -2.34375,0 -3.98437,-1.6406 -1.64063,-1.6407 -1.64063,-3.9844 v -81.0938 q 0,-2.3437 1.64063,-3.9843 1.64062,-1.6407 3.98437,-1.6407 2.34375,0 3.98438,1.6407 1.64062,1.6406 1.64062,3.9843 v 34.9219 z"
       style="font-size:120px;line-height:1.25;font-family:Pointilised;-inkscape-font-specification:'Pointilised Bold'"
       id="path1449" /><path
       d="m 369.57462,1169.3832 q 0,2.2851 -1.69922,3.9844 -1.64063,1.6406 -3.92578,1.6406 -2.34375,0 -3.98438,-1.6406 -1.05469,-1.0547 -1.40625,-2.461 h -0.0586 l -5.44922,-18.9844 h -27.94922 l -5.44922,18.9844 h -0.0586 q -0.35157,1.4063 -1.40625,2.461 -1.64063,1.6406 -3.98438,1.6406 -2.34375,0 -3.98437,-1.6406 -1.64063,-1.6407 -1.64063,-3.9844 0,-1.2305 0.41016,-2.1094 l 24.19922,-84.6094 h 11.71875 l 24.3164,84.8438 q 0.35157,0.8789 0.35157,1.875 z m -19.7461,-28.711 -10.78125,-37.5586 -10.72265,37.5586 z"
       style="font-size:120px;line-height:1.25;font-family:Pointilised;-inkscape-font-specification:'Pointilised Bold'"
       id="path1451" /><path
       d="m 443.57852,1165.3988 q 1.64063,1.6406 1.64063,3.9844 0,2.3437 -1.64063,3.9844 -1.64062,1.6406 -3.98437,1.6406 h -59.00391 v -11.25 l 50.74219,-69.8438 h -45.11719 q -2.34375,0 -3.98437,-1.6406 -1.64063,-1.6406 -1.64063,-3.9844 0,-2.3437 1.64063,-3.9843 1.64062,-1.6407 3.98437,-1.6407 h 59.00391 v 11.25 l -50.74219,69.8438 h 45.11719 q 2.34375,0 3.98437,1.6406 z"
       style="font-size:120px;line-height:1.25;font-family:Pointilised;-inkscape-font-specification:'Pointilised Bold'"
       id="path1453" /><path
       d="m 517.23087,1169.3832 q 0,2.2851 -1.69922,3.9844 -1.64063,1.6406 -3.92578,1.6406 -2.34375,0 -3.98438,-1.6406 -1.05469,-1.0547 -1.40625,-2.461 h -0.0586 l -5.44922,-18.9844 h -27.94922 l -5.44922,18.9844 h -0.0586 q -0.35157,1.4063 -1.40625,2.461 -1.64063,1.6406 -3.98438,1.6406 -2.34375,0 -3.98437,-1.6406 -1.64063,-1.6407 -1.64063,-3.9844 0,-1.2305 0.41016,-2.1094 l 24.19922,-84.6094 h 11.71875 l 24.3164,84.8438 q 0.35157,0.8789 0.35157,1.875 z m -19.7461,-28.711 -10.78125,-37.5586 -10.72265,37.5586 z"
       style="font-size:120px;line-height:1.25;font-family:Pointilised;-inkscape-font-specification:'Pointilised Bold'"
       id="path1455" /><path
       d="m 590.64883,1169.3832 q 0,2.3437 -1.64062,3.9844 -1.64063,1.6406 -3.98438,1.6406 -2.34375,0 -3.98437,-1.6406 -0.87891,-0.879 -1.34766,-2.168 l -12.59765,-36.7969 q -0.64453,0.059 -1.9336,0.059 h -25.66406 v 34.9219 q 0,2.3437 -1.64062,3.9844 -1.64063,1.6406 -3.98438,1.6406 -2.34375,0 -3.98437,-1.6406 -1.64063,-1.6407 -1.64063,-3.9844 v -86.7188 h 11.25 25.66406 q 11.42578,0 19.62891,7.5586 3.86719,3.6328 5.97656,8.4375 2.10938,4.7461 2.10938,9.9024 0,5.1562 -2.10938,9.9609 -2.10937,4.7461 -5.97656,8.3789 -2.98828,2.6953 -6.79688,4.6289 l 12.07032,35.2735 q 0.58593,1.1132 0.58593,2.5781 z m -25.48828,-75.4688 h -25.66406 v 29.2969 h 25.66406 q 6.85547,0 11.66016,-4.2773 4.80469,-4.336 4.80469,-10.3711 0,-6.0352 -4.80469,-10.3711 -4.80469,-4.2774 -11.66016,-4.2774 z"
       style="font-size:120px;line-height:1.25;font-family:Pointilised;-inkscape-font-specification:'Pointilised Bold'"
       id="path1457" /><path
       d="m 634.35977,1175.0082 h -21.03515 -11.25 v -92.3438 h 11.25 21.03515 q 6.5625,0 12.36328,2.461 6.09375,2.5195 10.48828,7.0312 4.51172,4.3945 7.03125,10.4883 2.46094,5.8008 2.46094,12.3633 v 27.6562 q 0,6.5625 -2.46094,12.3633 -2.51953,6.0938 -7.03125,10.4883 -4.39453,4.5117 -10.48828,7.0312 -5.80078,2.461 -12.36328,2.461 z m 0,-11.25 q 4.21875,0 8.08594,-1.5821 3.86719,-1.6992 6.85547,-4.5703 2.87109,-2.9882 4.57031,-6.8554 1.58203,-3.8672 1.58203,-8.086 v -27.6562 q 0,-4.2188 -1.58203,-8.086 -1.69922,-3.8671 -4.57031,-6.8554 -2.98828,-2.8711 -6.85547,-4.5703 -3.86719,-1.5821 -8.08594,-1.5821 h -21.03515 v 69.8438 z"
       style="font-size:120px;line-height:1.25;font-family:Pointilised;-inkscape-font-specification:'Pointilised Bold'"
       id="path1459" /></g></svg>
