<svg xmlns="http://www.w3.org/2000/svg" viewBox="0 0 160.03 119.05"><defs><style>.cls-1,.cls-5{fill:none;stroke-miterlimit:10;stroke-width:0.36px;}.cls-1{stroke:#b2a6aa;}.cls-2{fill:#bcbcbc;fill-opacity:0.1;}.cls-3{fill:#d10b48;opacity:0.66;}.cls-4{fill:#ea4b6a;opacity:0.69;}.cls-5{stroke:#ccbac3;}</style></defs><g id="Layer_2" data-name="Layer 2"><g id="iPS_culture" data-name="iPS culture"><g id="Culture_dish_1" data-name="Culture dish 1"><path id="Bottom" class="cls-1" d="M1.67,76.32c-3-24.73,19.39-53,76.22-55.66,41-1.94,82.25,20,81.1,54.47-.58,17.42-30.75,43.78-80.27,43.75C36.15,118.84,4.45,98.94,1.67,76.32Z"/><path id="Glas" class="cls-2" d="M76.67.31C20.68,3-2.68,30.38.32,54.74c.22,1.78,2,4.67,2.59,6.41C3.49,38.2,26.25,14,78.25,11.56c37.39-1.77,74.82,16.55,79.3,46.2.46-1.67,1,1.21,1.32-.49C167,18.45,117.07-1.61,76.67.31Z"/><g id="Media"><path class="cls-3" d="M77.93,21.39c38-1.81,76.12,17.19,79.65,47.65a17.72,17.72,0,0,0,.4-3.91c1.13-33.94-39.33-55.48-79.73-53.57C22.75,14.2.56,41.55,3.09,65.76,6.76,44.5,29.85,23.67,77.93,21.39Z"/><path class="cls-4" d="M2.83,76.22C-.16,51.86,21.94,24,77.93,21.39c40.4-1.92,81,19.71,79.9,53.66-.57,17.16-30.29,43.14-79.09,43.1C36.8,118.12,5.58,98.51,2.83,76.22Z"/><path class="cls-3" d="M79.07,108.33C37.13,108.3,5.9,88.68,3.16,66.4c0-.21,0-.43-.07-.64a36,36,0,0,0-.26,10.46c2.75,22.29,34,41.9,75.91,41.93,48.8,0,78.52-25.94,79.09-43.1a39.79,39.79,0,0,0-.25-6C153.22,86,124.37,108.36,79.07,108.33Z"/></g><g id="Rim"><path class="cls-5" d="M1.62,55.88C-1.37,31.51,20.73,3.7,76.72,1c40.4-1.92,85,17.82,81.78,51.63-2.69,27.78-44.62,47.62-85,46.27C41.14,97.87,4.37,78.16,1.62,55.88Z"/><path class="cls-5" d="M.45,56C-2.59,31.23,19.84,3,76.67.31c41-1.95,86.32,18.08,83,52.4-2.73,28.2-45.29,48.33-86.32,47C40.56,98.59,3.23,78.58.45,56Z"/></g></g></g></g></svg>