<svg xmlns="http://www.w3.org/2000/svg" xmlns:xlink="http://www.w3.org/1999/xlink" viewBox="0 0 109.56 42.61"><defs><style>.cls-1{stroke:#e04655;fill:url(#radial-gradient);}.cls-1,.cls-2{stroke-miterlimit:10;stroke-width:0.27px;}.cls-2{fill:#b2d9ee;stroke:#231f20;}</style><radialGradient id="radial-gradient" cx="66.63" cy="40.61" r="43.58" gradientTransform="translate(-4.39 -28.56) scale(0.89 1.32)" gradientUnits="userSpaceOnUse"><stop offset="0" stop-color="#f16f91" stop-opacity="0.1"/><stop offset="0.33" stop-color="#f05b79" stop-opacity="0.15"/><stop offset="0.91" stop-color="#ed253b" stop-opacity="0.28"/><stop offset="1" stop-color="#ed1b30" stop-opacity="0.3"/></radialGradient></defs><g id="Layer_2" data-name="Layer 2"><g id="Abbildung_2" data-name="Abbildung 2"><g id="EB_attach" data-name="EB attach"><path class="cls-1" d="M105.87,41H4C2.42,41,1.13,39,1.13,36.72V8.9a24,24,0,0,0,9,2L99.47,11c1.57,0,6.23-.28,9.26-2.11V36.72C108.73,39,107.44,41,105.87,41Z"/><path class="cls-2" d="M109.39,1.49c0,.22,0,.43,0,.62q0,6.27,0,12.53V34.73c0,4.26-2.35,7.74-5.23,7.74H5.44C2.56,42.47.21,39,.21,34.73V16.22c0-2.37,0-4.79,0-7.18V5.42A33.29,33.29,0,0,1,.18,2c.06-.55.36-2.32,1-1.69a2.93,2.93,0,0,1,.43,1.66c.06.75.07,1.5.06,2.25,0,2.72,0,5.43,0,8.15v22c0,3.36,1.86,6.1,4.13,6.1h98.22c2.26,0,4.12-2.74,4.12-6.1V2.82a4.54,4.54,0,0,1,.36-2.38.52.52,0,0,1,.3-.24c.18,0,.36.15.46.38A3.28,3.28,0,0,1,109.39,1.49Z"/></g></g></g></svg>