<?xml version="1.0" encoding="UTF-8" standalone="no"?>
<!-- Created with Inkscape (http://www.inkscape.org/) -->

<svg
   width="210mm"
   height="297mm"
   viewBox="0 0 210 297"
   version="1.1"
   id="svg1"
   inkscape:version="1.4 (86a8ad7, 2024-10-11)"
   sodipodi:docname="Structure of Plant Cell.svg"
   xmlns:inkscape="http://www.inkscape.org/namespaces/inkscape"
   xmlns:sodipodi="http://sodipodi.sourceforge.net/DTD/sodipodi-0.dtd"
   xmlns="http://www.w3.org/2000/svg"
   xmlns:svg="http://www.w3.org/2000/svg"
   xmlns:rdf="http://www.w3.org/1999/02/22-rdf-syntax-ns#"
   xmlns:cc="http://creativecommons.org/ns#"
   xmlns:dc="http://purl.org/dc/elements/1.1/">
  <title
     id="title1">Structure of Plant Cell</title>
  <sodipodi:namedview
     id="namedview1"
     pagecolor="#ffffff"
     bordercolor="#000000"
     borderopacity="0.25"
     inkscape:showpageshadow="2"
     inkscape:pageopacity="0.0"
     inkscape:pagecheckerboard="0"
     inkscape:deskcolor="#d1d1d1"
     inkscape:document-units="mm"
     showguides="false"
     inkscape:zoom="0.71446409"
     inkscape:cx="64.383922"
     inkscape:cy="531.16736"
     inkscape:window-width="1920"
     inkscape:window-height="991"
     inkscape:window-x="-9"
     inkscape:window-y="-9"
     inkscape:window-maximized="1"
     inkscape:current-layer="g113" />
  <defs
     id="defs1">
    <linearGradient
       x1="660"
       y1="124"
       x2="660"
       y2="688"
       gradientUnits="userSpaceOnUse"
       spreadMethod="reflect"
       id="fill0">
      <stop
         offset="0"
         stop-color="#B5D5A7"
         id="stop1" />
      <stop
         offset="0.5"
         stop-color="#AACE99"
         id="stop2" />
      <stop
         offset="1"
         stop-color="#9CCA86"
         id="stop3" />
    </linearGradient>
    <linearGradient
       x1="790.283"
       y1="369.095"
       x2="749.148"
       y2="449.934"
       gradientUnits="userSpaceOnUse"
       spreadMethod="reflect"
       id="fill1">
      <stop
         offset="0"
         stop-color="#FFDD9C"
         id="stop4" />
      <stop
         offset="0.5"
         stop-color="#FFD78E"
         id="stop5" />
      <stop
         offset="1"
         stop-color="#FFD479"
         id="stop6" />
    </linearGradient>
    <linearGradient
       x1="660"
       y1="124"
       x2="660"
       y2="688"
       gradientUnits="userSpaceOnUse"
       spreadMethod="reflect"
       id="fill0-5">
      <stop
         offset="0"
         stop-color="#B5D5A7"
         id="stop1-1" />
      <stop
         offset="0.5"
         stop-color="#AACE99"
         id="stop2-7" />
      <stop
         offset="1"
         stop-color="#9CCA86"
         id="stop3-1" />
    </linearGradient>
    <linearGradient
       x1="790.283"
       y1="369.095"
       x2="749.148"
       y2="449.934"
       gradientUnits="userSpaceOnUse"
       spreadMethod="reflect"
       id="fill1-1">
      <stop
         offset="0"
         stop-color="#FFDD9C"
         id="stop4-5" />
      <stop
         offset="0.5"
         stop-color="#FFD78E"
         id="stop5-2" />
      <stop
         offset="1"
         stop-color="#FFD479"
         id="stop6-7" />
    </linearGradient>
  </defs>
  <g
     inkscape:label="Layer 1"
     inkscape:groupmode="layer"
     id="layer1">
    <g
       transform="matrix(0.19405145,0,0,0.22248593,-5.0201055,54.322865)"
       id="g113">
      <path
         d="M 476,185.334 C 476,151.46 503.46,124 537.334,124 H 782.666 C 816.54,124 844,151.46 844,185.334 V 626.666 C 844,660.54 816.54,688 782.666,688 H 537.334 C 503.46,688 476,660.54 476,626.666 Z"
         stroke="#385723"
         stroke-width="17.6667"
         stroke-miterlimit="8"
         fill="url(#fill0)"
         fill-rule="evenodd"
         id="path6"
         style="fill:url(#fill0-5)" />
      <path
         d="m 506.5,223 c 0,-30.652 26.415,-55.5 59,-55.5 32.585,0 59,24.848 59,55.5 0,30.652 -26.415,55.5 -59,55.5 -32.585,0 -59,-24.848 -59,-55.5 z"
         stroke="#2f5597"
         stroke-width="0.666667"
         stroke-miterlimit="8"
         fill="#b4c7e7"
         fill-rule="evenodd"
         id="path7" />
      <path
         d="m 625.525,233.569 c -5.271,32.253 -36.859,54.119 -70.553,48.841 -33.695,-5.279 -56.736,-35.704 -51.465,-67.957 5.271,-32.252 36.859,-54.119 70.554,-48.84 24.815,3.887 44.806,21.775 50.563,45.242"
         stroke="#2f5597"
         stroke-width="6"
         stroke-linecap="round"
         stroke-miterlimit="8"
         stroke-dasharray="42, 24"
         fill="none"
         fill-rule="evenodd"
         id="path8" />
      <path
         d="m 780.444,595.958 c -2.063,5.993 -4.126,11.986 -10.961,19.217 -6.835,7.232 -19.022,18.307 -30.051,24.17 -11.029,5.863 -24.177,9.82 -36.123,11.009 -11.947,1.189 -25.27,-1.222 -35.555,-3.875 -10.285,-2.653 -17.799,-6.572 -26.158,-12.044 -8.359,-5.473 -14.428,-8.947 -23.997,-20.791 -9.57,-11.845 -27.153,-35.801 -33.419,-50.276 -6.265,-14.476 -6.948,-25.078 -4.173,-36.577 2.775,-11.5 12.217,-24.046 20.824,-32.419 8.606,-8.373 18.24,-12.783 30.813,-17.818 12.572,-5.036 25.538,-11.401 44.622,-12.395 19.084,-0.994 52.376,1.558 69.882,6.431 17.506,4.874 26.169,10.949 35.152,22.81 8.982,11.86 19.84,29.238 18.745,48.352 -1.095,19.114 -21.195,54.893 -25.315,66.331"
         stroke="#8faadc"
         stroke-width="4"
         stroke-miterlimit="8"
         fill="#deebf7"
         fill-rule="evenodd"
         id="path9" />
      <path
         d="m 0,0 c 15.3036,0 30.6071,7.76499 30.6071,15.5299 0,7.765 15.3036,15.5299 30.6072,15.5299"
         stroke="#4472c4"
         stroke-width="0.666667"
         stroke-miterlimit="8"
         fill="none"
         fill-rule="evenodd"
         transform="matrix(1,0,0,-1,755.5,640.56)"
         id="path10" />
      <path
         d="m 770.5,655.845 c 0,-12.836 12.179,-25.672 24.357,-25.672 12.179,0 24.357,-12.837 24.357,-25.673"
         stroke="#4472c4"
         stroke-width="0.666667"
         stroke-miterlimit="8"
         fill="none"
         fill-rule="evenodd"
         id="path11" />
      <path
         d="m 788.5,644.394 c 0,-18.718 9.072,-37.437 18.143,-37.437 9.071,0 18.143,-17.729 18.143,-35.457"
         stroke="#4472c4"
         stroke-width="0.666667"
         stroke-miterlimit="8"
         fill="none"
         fill-rule="evenodd"
         id="path12" />
      <path
         d="m 630.11,234.187 c -0.01,2.852 -0.293,6.313 -0.931,9.293 -0.639,2.98 -1.014,5.864 -2.901,8.587 -1.886,2.722 -5.885,5.457 -8.417,7.748 -2.533,2.291 -5.685,4.514 -6.779,5.997 -1.093,1.484 -0.082,2.201 0.216,2.906 0.298,0.706 0.898,1.166 1.573,1.326 0.676,0.161 0.834,0.635 2.48,-0.36 1.646,-0.996 5.015,-3.603 7.396,-5.613 2.382,-2.01 5.284,-5.283 6.893,-6.446 1.609,-1.163 2.302,-0.76 2.762,-0.532 0.459,0.228 0.55,1.122 -0.006,1.902 -0.557,0.779 -3.333,2.774 -3.333,2.774 l -11.011,8.558 c -2.324,1.785 -1.995,1.586 -2.936,2.155 -0.94,0.569 -1.766,0.373 -2.707,1.258 -0.942,0.886 -3.023,2.967 -2.942,4.057 0.081,1.09 2.132,2.57 3.428,2.482 1.295,-0.088 1.581,-1.21 4.346,-3.009 2.766,-1.799 8.737,-4.778 12.248,-7.787 3.512,-3.01 6.859,-7.565 8.82,-10.269 1.962,-2.705 2.064,-2.324 2.948,-5.959 0.885,-3.635 1.982,-12.016 2.361,-15.851 0.378,-3.835 0.2,-3.917 -0.09,-7.158 -0.29,-3.24 -0.191,-7.855 -1.65,-12.286 -1.46,-4.431 -5.35,-12.137 -7.108,-14.3 -1.758,-2.163 -3.118,0.367 -3.44,1.321 -0.322,0.954 0.574,2.437 1.507,4.403 0.932,1.966 2.935,3.791 4.088,7.396 1.152,3.605 2.827,14.232 2.827,14.232 0.414,2.597 -0.317,-0.947 -0.343,1.346 -0.026,2.293 0.831,10.189 0.186,12.414 -0.646,2.225 -3.554,1.77 -4.059,0.936 -0.504,-0.834 0.867,-3.877 1.033,-5.939 0.166,-2.061 0.305,-4.169 -0.035,-6.431 -0.341,-2.261 -1.193,-5.794 -2.005,-7.138 -0.813,-1.343 -1.987,-0.949 -2.87,-0.921 -0.882,0.028 -2.139,-0.351 -2.425,1.087 -0.287,1.439 0.885,4.969 0.876,7.821 z"
         stroke="#2f5597"
         stroke-width="3"
         stroke-miterlimit="8"
         stroke-dasharray="3, 3"
         fill="#8faadc"
         fill-rule="evenodd"
         id="path13" />
      <path
         d="m 59.1696,31.9363 c -2.1754,3.0712 -5.1566,6.6201 -8.2183,9.4183 -3.0617,2.7982 -5.7205,5.6646 -10.152,7.3708 -4.4314,1.7062 -11.5217,2.0475 -16.4365,2.8664 -4.9149,0.819 -10.5549,1.1602 -13.0526,2.0475 -2.49773,0.8872 -1.77257,2.3204 -1.93369,3.2759 -0.16111,0.9555 0.24173,1.8427 0.96689,2.4569 0.7251,0.6143 0.564,1.2285 3.3839,1.2285 2.82,0 9.024,-0.6142 13.536,-1.2285 4.512,-0.6142 10.6355,-2.2522 13.536,-2.4569 2.9006,-0.2048 3.4646,0.6825 3.8675,1.2285 0.4028,0.5459 -0.1612,1.5697 -1.4503,2.0474 -1.2892,0.4778 -6.2846,0.819 -6.2846,0.819 l -20.304,2.0475 c -4.2703,0.4095 -3.7063,0.4095 -5.3177,0.4095 -1.61145,0 -2.49773,-0.7508 -4.35085,-0.4095 -1.85311,0.3412 -6.042873,1.2284 -6.76799,2.4569 -0.725117,1.2285 0.725161,4.1632 2.41716,4.9139 1.692,0.7507 2.90056,-0.273 7.73488,-0.4095 4.8342,-0.1365 14.5834,0.546 21.2708,-0.4095 6.6874,-0.9555 14.3417,-3.6854 18.8537,-5.3234 4.512,-1.6379 4.3508,-1.1602 8.2183,-4.5044 3.8674,-3.3441 11.6023,-11.6705 14.9863,-15.5606 3.384,-3.8901 3.2228,-4.0949 5.3176,-7.7803 2.0949,-3.6854 5.7206,-8.5993 7.2515,-14.3322 1.5308,-5.7329 2.4977,-16.58437 1.9337,-20.06502 -0.564,-3.48065 -4.1897,-1.637929 -5.3177,-0.81896 -1.128,0.81896 -1.128,3.00294 -1.4503,5.73286 -0.3223,2.72992 0.8057,6.00582 -0.4834,10.64672 -1.2892,4.641 -7.2514,17.1986 -7.2514,17.1986 -1.4503,3.0712 0.3222,-1.2284 -1.4504,1.2285 -1.7725,2.4569 -6.6873,11.534 -9.1851,13.5132 -2.4977,1.9792 -5.8011,-0.4095 -5.8011,-1.638 0,-1.2285 4.0286,-3.6172 5.8011,-5.7329 1.7726,-2.1157 3.5452,-4.2996 4.8343,-6.9613 1.2891,-2.6617 2.9006,-7.0296 2.9006,-9.0088 0,-1.9792 -1.7726,-2.3204 -2.9006,-2.8664 -1.128,-0.546 -2.4172,-1.7745 -3.8674,-0.4095 -1.4503,1.365 -2.6589,5.9376 -4.8343,9.0088 z"
         stroke="#2f5597"
         stroke-width="1.33333"
         stroke-miterlimit="8"
         fill="#8faadc"
         fill-rule="evenodd"
         transform="matrix(-0.833772,0.552109,0.552109,0.833772,582.582,248.978)"
         id="path14" />
      <path
         d="m 67.9375,26.3031 c -2.4978,2.5295 -5.9207,5.4524 -9.4361,7.757 -3.5154,2.3047 -6.5682,4.6655 -11.6563,6.0707 -5.0881,1.4053 -13.2291,1.6864 -18.8722,2.3609 -5.6432,0.6745 -12.1189,0.9555 -14.9867,1.6863 -2.8679,0.7307 -2.0353,1.9111 -2.2203,2.6981 -0.1849,0.7869 0.2776,1.5176 1.1102,2.0235 0.8325,0.5059 0.6475,1.0118 3.8854,1.0118 3.2379,0 10.3612,-0.5059 15.5418,-1.0118 5.1806,-0.5059 12.2114,-1.8549 15.5418,-2.0235 3.3303,-0.1687 3.9779,0.5621 4.4405,1.0117 0.4625,0.4497 -0.185,1.2929 -1.6652,1.6864 -1.4802,0.3934 -7.2159,0.6745 -7.2159,0.6745 L 19.0919,51.935 c -4.9031,0.3373 -4.2555,0.3373 -6.1057,0.3373 -1.8503,0 -2.8679,-0.6183 -4.99559,-0.3373 -2.12772,0.281 -6.93833,1.0118 -7.770894,2.0236 -0.832566,1.0117 0.832614,3.4288 2.775344,4.0471 1.94272,0.6183 3.33036,-0.2248 8.88104,-0.3373 5.5506,-0.1124 16.7444,0.4497 24.4227,-0.3372 7.6784,-0.787 16.4669,-3.0354 21.6475,-4.3844 5.1806,-1.3491 4.9956,-0.9556 9.4361,-3.7099 4.4405,-2.7543 13.3216,-9.612 17.207,-12.8159 3.8855,-3.204 3.7004,-3.3726 6.1057,-6.408 2.4052,-3.0354 6.5683,-7.0825 8.3259,-11.8042 1.758,-4.7216 2.868,-13.65906 2.22,-16.52576 -0.647,-2.86671 -4.8103,-1.349023 -6.1054,-0.67451 -1.2952,0.67451 -1.2952,2.47326 -1.6652,4.72166 -0.37,2.24839 0.9251,4.94651 -0.5551,8.76881 -1.4802,3.8223 -8.3259,14.165 -8.3259,14.165 -1.6652,2.5294 0.37,-1.0118 -1.6652,1.0117 -2.0352,2.0236 -7.6784,9.4996 -10.5462,11.1297 -2.8678,1.63 -6.6608,-0.3373 -6.6608,-1.3491 0,-1.0118 4.6256,-2.9791 6.6608,-4.7217 2.0352,-1.7425 4.0705,-3.5412 5.5506,-5.7334 1.4802,-2.1922 3.3304,-5.7896 3.3304,-7.4197 0,-1.6301 -2.0352,-1.9112 -3.3304,-2.3608 -1.2951,-0.4497 -2.7753,-1.4615 -4.4405,-0.3373 -1.6652,1.1242 -3.0528,4.8903 -5.5506,7.4197 z"
         stroke="#2f5597"
         stroke-width="3"
         stroke-miterlimit="8"
         stroke-dasharray="3, 3"
         fill="#8faadc"
         fill-rule="evenodd"
         transform="matrix(-0.903365,0.428872,0.428872,0.903365,599.103,232.458)"
         id="path15" />
      <path
         d="m 644.465,254.119 c -0.551,4.163 -1.126,8.069 -2.688,10.78 -1.649,3.894 -2.05,5.793 -4.86,9.569 -2.326,3.077 -7.142,5.514 -11.143,7.523 -3.77,2.089 -7.341,4.215 -8.932,5.774 -1.703,1.579 -0.442,2.82 -0.25,3.468 0.222,0.723 1.019,1.658 1.603,1.865 0.703,0.335 0.8,1.053 2.952,0.05 2.197,-1.053 5.976,-3.225 9.585,-5.201 3.096,-2.053 6.453,-5.248 9.143,-6.28 2.245,-1.059 2.822,-0.387 3.309,-0.098 0.499,0.133 0.468,1.654 -0.335,2.241 -0.783,0.813 -4.361,2.633 -4.361,2.634 -3.477,3.1 -10.936,4.969 -14.305,7.98 -3.038,1.68 -2.684,1.568 -3.792,1.979 -1.249,0.474 -2.014,0.37 -3.372,0.965 -1.41,0.908 -4.066,3.204 -4.127,4.22 -0.141,1.527 2.392,3.615 3.565,3.583 1.752,0.097 2.102,-1.375 5.583,-2.715 4.207,-2.66 11.539,-3.859 15.613,-6.835 5.088,-3.06 8.386,-8.024 12.047,-10.419 2.771,-2.847 2.758,-2.212 4.463,-6.461 1.856,-3.9 4.789,-13.166 5.485,-18.239 1.09,-4.435 0.917,-4.569 1.13,-8.458 1.149,-3.129 2.567,-8.855 0.197,-14.805 -0.88,-5.432 -4.058,-14.64 -5.813,-18.225 -1.828,-2.66 -3.612,-0.341 -4.236,0.899 -0.579,1.208 0.318,3.078 0.996,5.48 0.971,2.604 2.614,4.971 3.486,9.505 0.721,4.472 0.838,17.325 0.838,17.325 -0.263,3.553 0.484,-1.496 -0.631,1.522 -0.465,2.467 -0.458,12.463 -1.925,14.673 -1.102,2.201 -4.389,1.423 -4.89,0.327 -0.28,-0.818 2.098,-4.227 2.228,-6.805 0.243,-2.327 1.007,-4.743 1.068,-7.591 0.373,-2.986 -0.176,-7.556 -1.104,-8.801 -0.771,-1.768 -2.148,-1.426 -3.185,-1.637 -1.13,-0.158 -2.189,-0.532 -3.013,0.818 -1.389,1.316 0.108,5.835 -0.329,9.39 z"
         fill="#8faadc"
         fill-rule="evenodd"
         id="path16" />
      <path
         d="m 644.465,254.119 c 0.113,2.83 -0.804,7.75 -2.688,10.78 -0.726,3.206 -1.691,6.536 -4.86,9.569 -2.021,3.537 -7.003,4.77 -11.143,7.523 -3.561,1.97 -7.304,4.128 -8.932,5.774 -1.458,1.411 -0.445,2.521 -0.25,3.468 0.386,0.748 0.889,1.643 1.603,1.865 0.847,0.354 0.841,0.908 2.952,0.05 2.057,-1.086 6.368,-3.22 9.585,-5.201 2.906,-1.317 7.097,-5.154 9.143,-6.28 2.138,-1.168 2.813,-0.625 3.309,-0.098 0.588,0.351 0.633,1.579 -0.335,2.241 -0.783,0.813 -4.361,2.633 -4.361,2.634 -3.489,3.532 -8.295,4.005 -14.305,7.98 -3.01,1.754 -2.527,1.393 -3.792,1.979 -1.442,0.443 -1.969,0.276 -3.372,0.965 -1.627,0.871 -4.256,2.811 -4.127,4.22 -0.027,1.287 2.43,3.431 3.565,3.583 1.667,0.364 2.025,-1.039 5.583,-2.715 3.751,-1.129 10.486,-4.464 15.613,-6.835 4.64,-2.532 9.53,-8.748 12.047,-10.419 2.717,-2.778 2.815,-2.337 4.463,-6.461 0.443,-4.329 4.492,-14.27 5.485,-18.239 1.118,-4.455 0.926,-4.644 1.13,-8.458 -0.395,-3.928 1.044,-9.473 0.197,-14.805 -1.21,-5.415 -3.639,-16.132 -5.813,-18.225 -1.646,-2.965 -3.849,10e-4 -4.236,0.899 -0.562,1.276 0.16,3.095 0.996,5.48 0.005,2.825 3.401,5.251 3.486,9.505 0.721,4.472 0.838,17.325 0.838,17.325 -0.3,2.998 -0.326,-1.098 -0.631,1.522 -0.322,2.745 -1.033,12.166 -1.925,14.673 -0.954,2.492 -4.504,1.404 -4.89,0.327 -0.829,-0.847 1.947,-4.044 2.228,-6.805 0.112,-1.949 0.482,-4.458 1.068,-7.591 -0.489,-2.713 10e-4,-7.357 -1.104,-8.801 -0.539,-1.961 -2.42,-1.651 -3.185,-1.637 -1.021,0.238 -2.4,-0.921 -3.013,0.818 -0.887,0.741 0.811,5.644 -0.329,9.39 z"
         stroke="#2f5597"
         stroke-width="1.33333"
         stroke-miterlimit="8"
         fill="none"
         fill-rule="evenodd"
         id="path17" />
      <path
         d="m 534.5,208 c 0,-10.217 8.059,-18.5 18,-18.5 9.941,0 18,8.283 18,18.5 0,10.217 -8.059,18.5 -18,18.5 -9.941,0 -18,-8.283 -18,-18.5 z"
         stroke="#172c51"
         stroke-width="1.33333"
         stroke-miterlimit="8"
         fill="#4472c4"
         fill-rule="evenodd"
         id="path18" />
      <path
         d="m 535.774,229.994 c -3.572,-9.782 -7.145,-19.565 -3.215,-26.086 3.93,-6.522 23.937,-14.311 26.795,-13.043 2.858,1.268 -14.827,20.108 -9.646,20.651 5.18,0.544 33.404,-19.745 40.728,-17.39 7.324,2.355 7.324,27.172 3.216,31.52 -4.109,4.348 -21.258,-9.601 -27.867,-5.434 -6.61,4.166 -13.04,26.448 -11.79,30.433 1.25,3.986 14.827,-5.434 19.292,-6.521 4.466,-1.087 2.859,2.355 7.503,0 4.645,-2.355 22.151,-11.413 20.364,-14.13 -1.786,-2.717 -21.436,-2.536 -31.082,-2.174 -9.646,0.362 -22.329,0.725 -26.795,4.348 -4.466,3.623 3.215,21.557 0,17.39 -3.216,-4.166 -21.794,-36.049 -19.293,-42.389 2.501,-6.341 30.368,1.268 34.298,4.347 3.93,3.08 -13.04,7.065 -10.718,14.13 2.322,7.065 16.434,24.275 24.652,28.26 8.217,3.985 20.364,3.442 24.651,-4.348 4.287,-7.789 6.074,-32.788 1.072,-42.389 -5.002,-9.602 -18.578,-11.232 -31.082,-15.217 -12.505,-3.986 -39.836,-7.79 -43.944,-8.696 -4.109,-0.905 18.042,-4.528 19.292,3.261 1.251,7.79 -16.256,31.521 -11.79,43.477 4.466,11.956 32.333,35.868 38.585,28.26 6.252,-7.609 -6.431,-61.592 -1.072,-73.911 5.36,-12.318 28.939,-2.355 33.226,0 4.288,2.355 -8.217,6.522 -7.502,14.13 0.714,7.609 12.504,23.912 11.79,31.521 -0.715,7.608 -11.969,17.391 -16.077,14.13 -4.109,-3.261 -11.79,-29.528 -8.575,-33.695 3.215,-4.166 28.939,-1.268 27.867,8.696 -1.072,9.963 -21.793,45.288 -34.298,51.085 -12.504,5.797 -32.511,-9.42 -40.728,-16.304 -8.217,-6.884 -11.076,-14.13 -8.575,-24.999 2.501,-10.869 16.435,-32.426 23.58,-40.216 7.145,-7.79 11.254,-7.427 19.292,-6.521 8.039,0.905 21.258,6.702 28.939,11.956 7.681,5.253 15.184,11.05 17.149,19.564 1.965,8.514 -2.501,23.369 -5.359,31.521 -2.858,8.152 -1.786,15.941 -11.79,17.39 -10.003,1.45 -37.334,-7.608 -48.231,-8.695 -10.897,-1.087 -16.077,10.144 -17.149,2.174 -1.072,-7.971 10.539,-38.586 10.718,-49.998 0.179,-11.413 -13.219,-13.949 -9.646,-18.478 3.573,-4.529 22.865,-13.586 31.082,-8.695 8.217,4.891 10.004,32.607 18.221,38.042 8.217,5.434 31.44,-11.232 31.082,-5.435 -0.357,5.797 -16.791,39.129 -33.226,40.216 -16.434,1.087 -60.2,-23.006 -65.38,-33.694 -5.18,-10.688 14.559,-20.561 34.298,-30.434"
         stroke="#4472c4"
         stroke-linejoin="round"
         stroke-miterlimit="10"
         stroke-dasharray="4, 3"
         fill="none"
         fill-rule="evenodd"
         id="path19" />
      <path
         d="m 703.5,176 c 0,-10.77 9.178,-19.5 20.5,-19.5 11.322,0 20.5,8.73 20.5,19.5 0,10.77 -9.178,19.5 -20.5,19.5 -11.322,0 -20.5,-8.73 -20.5,-19.5 z m 2.12,0 c 0,9.599 8.229,17.38 18.38,17.38 10.151,0 18.38,-7.781 18.38,-17.38 0,-9.599 -8.229,-17.38 -18.38,-17.38 -10.151,0 -18.38,7.781 -18.38,17.38 z"
         stroke="#7030a0"
         stroke-width="1.33333"
         stroke-miterlimit="8"
         fill="#7030a0"
         fill-rule="evenodd"
         id="path20" />
      <path
         d="m 706.5,175 c 0,-8.008 7.611,-14.5 17,-14.5 9.389,0 17,6.492 17,14.5 0,8.008 -7.611,14.5 -17,14.5 -9.389,0 -17,-6.492 -17,-14.5 z"
         stroke="#cc99ff"
         stroke-width="1.33333"
         stroke-miterlimit="8"
         fill="#cc99ff"
         fill-rule="evenodd"
         id="path21" />
      <path
         d="M 2.88713,4.05792 C 4.08876,2.714 6.09151,0.25024 7.21305,0.0262956 8.33459,-0.197649 8.9755,1.03423 9.61637,2.71407 10.2572,4.3939 11.6191,8.42558 11.0583,10.1054 10.4976,11.7853 7.69372,12.0093 6.25175,12.7932 4.80977,13.5771 3.4479,15.5929 2.40645,14.809 1.36501,14.0251 -0.0769182,9.88147 0.00317917,8.08961 0.0832766,6.29774 1.68549,5.40184 2.88713,4.05792 Z"
         stroke="#7030a0"
         stroke-width="1.33333"
         stroke-miterlimit="8"
         fill="#7030a0"
         fill-rule="evenodd"
         transform="matrix(-0.912829,0.408342,0.408342,0.912829,726.6,164.55)"
         id="path22" />
      <path
         d="m 534.5,578 c 0,-9.665 8.507,-17.5 19,-17.5 10.493,0 19,7.835 19,17.5 0,9.665 -8.507,17.5 -19,17.5 -10.493,0 -19,-7.835 -19,-17.5 z"
         stroke="#cc99ff"
         stroke-width="1.33333"
         stroke-miterlimit="8"
         fill="#cc99ff"
         fill-rule="evenodd"
         id="path23" />
      <path
         d="m 533.5,580.5 c 0,-10.493 8.507,-19 19,-19 10.493,0 19,8.507 19,19 0,10.493 -8.507,19 -19,19 -10.493,0 -19,-8.507 -19,-19 z m 2.114,0 c 0,9.326 7.56,16.886 16.886,16.886 9.326,0 16.886,-7.56 16.886,-16.886 0,-9.326 -7.56,-16.886 -16.886,-16.886 -9.326,0 -16.886,7.56 -16.886,16.886 z"
         stroke="#7030a0"
         stroke-width="1.33333"
         stroke-miterlimit="8"
         fill="#7030a0"
         fill-rule="evenodd"
         id="path24" />
      <path
         d="M 3.86988,4.60303 C 5.48054,3.07859 8.165,0.283856 9.66831,0.029828 11.1716,-0.2242 12.0307,1.17316 12.8897,3.07866 c 0.859,1.90549 2.6845,6.47876 1.9328,8.38424 -0.7516,1.9055 -4.5099,2.1596 -6.44271,3.0488 C 6.44698,15.401 4.62153,17.6876 3.22559,16.7983 1.82965,15.9091 -0.103101,11.2089 0.00426133,9.17631 0.111623,7.14374 2.25921,6.12748 3.86988,4.60303 Z"
         stroke="#7030a0"
         stroke-width="1.33333"
         stroke-miterlimit="8"
         fill="#7030a0"
         fill-rule="evenodd"
         transform="matrix(1,0,0,-1,544.5,588.5)"
         id="path25" />
      <path
         d="m 583.859,464.473 c -2.349,-1.162 -7.146,-5.261 -11.128,-7.527 -3.982,-2.266 -7.823,-4.58 -12.763,-6.07 -4.939,-1.489 -11.133,-2.403 -16.874,-2.869 -5.741,-0.465 -11.613,-0.735 -17.57,0.078 -5.956,0.813 -13.515,3.676 -18.168,4.8 -4.654,1.125 -8.276,2.804 -9.752,1.948 -1.476,-0.855 -1.216,-5.236 0.898,-7.082 2.113,-1.846 8.689,-3.095 11.783,-3.992 3.094,-0.898 4.802,-1.025 6.782,-1.394 1.98,-0.37 2.83,-0.507 5.098,-0.824 2.269,-0.316 6.089,-1.008 8.514,-1.077 2.425,-0.068 3.811,0.442 6.038,0.666 2.226,0.225 4.734,0.354 7.324,0.682 2.589,0.328 5.765,0.909 8.214,1.284 2.45,0.375 3.951,0.394 6.483,0.967 2.531,0.573 6.011,1.503 8.708,2.473 2.696,0.969 5.631,2.385 7.47,3.343 1.838,0.959 2.44,1.508 3.561,2.409 1.121,0.901 1.887,1.846 3.164,2.995 1.278,1.149 3.636,2.459 4.5,3.898 0.865,1.439 0.688,4.738 0.688,4.738 -0.388,0.734 -0.62,1.716 -2.97,0.554 z"
         stroke="#bf9000"
         stroke-width="1.33333"
         stroke-miterlimit="8"
         fill="#ffd966"
         fill-rule="evenodd"
         id="path26" />
      <path
         d="m 572.142,469.777 c -1.912,-0.813 -5.863,-3.877 -9.112,-5.496 -3.248,-1.619 -6.386,-3.285 -10.379,-4.219 -3.993,-0.934 -8.974,-1.33 -13.58,-1.386 -4.606,-0.055 -9.313,0.055 -14.056,1.051 -4.743,0.996 -10.712,3.748 -14.404,4.924 -3.692,1.177 -6.544,2.746 -7.748,2.133 -1.204,-0.613 -1.118,-4.191 0.522,-5.811 1.64,-1.62 6.867,-3.005 9.318,-3.909 2.45,-0.904 3.813,-1.102 5.387,-1.514 1.574,-0.412 2.25,-0.571 4.057,-0.957 1.806,-0.385 4.843,-1.162 6.782,-1.354 1.938,-0.192 3.061,0.145 4.849,0.203 1.788,0.057 3.797,0.022 5.879,0.143 2.081,0.121 4.637,0.415 6.607,0.582 1.971,0.168 3.172,0.099 5.214,0.423 2.041,0.324 4.851,0.884 7.036,1.521 2.184,0.637 4.571,1.623 6.069,2.3 1.497,0.676 1.994,1.089 2.916,1.759 0.921,0.669 1.561,1.395 2.614,2.258 1.054,0.862 2.977,1.795 3.708,2.917 0.732,1.122 0.682,3.815 0.682,3.815 -0.29,0.619 -0.449,1.431 -2.361,0.617 z"
         stroke="#bf9000"
         stroke-width="1.33333"
         stroke-miterlimit="8"
         fill="#ffd966"
         fill-rule="evenodd"
         id="path27" />
      <path
         d="m 2.28053,41.7573 c 2.67138,-0.3663 9.11957,0.3663 13.81757,0 4.698,-0.3663 9.3038,-0.6104 14.3703,-2.1976 5.0664,-1.5872 10.8698,-4.3953 16.0284,-7.3254 C 51.6553,29.3041 56.8139,26.1298 61.4197,21.9788 66.0256,17.8277 70.8157,10.9907 74.1319,7.3281 77.4481,3.66546 79.5668,0.124829 81.317,0.00275902 83.0672,-0.119311 85.3702,3.78753 84.6332,6.59555 83.8963,9.40356 79.0141,14.2872 76.8954,16.851 c -2.1187,2.5639 -3.5005,3.6627 -4.9743,5.1278 -1.4739,1.465 -2.1188,2.0755 -3.869,3.6627 -1.7502,1.5872 -4.6058,4.3952 -6.6324,5.8603 -2.0265,1.465 -3.5004,1.8314 -5.527,2.9301 -2.0266,1.0988 -4.2374,2.4418 -6.6324,3.6627 -2.3951,1.2209 -5.435,2.5639 -7.7379,3.6627 -2.3029,1.0988 -3.5925,1.9535 -6.0797,2.9302 -2.4872,0.9766 -5.9876,2.1975 -8.8432,2.93 -2.8557,0.7326 -6.1719,1.2209 -8.2906,1.4651 -2.1187,0.2442 -2.9478,0.1221 -4.4216,0 -1.4739,-0.122 -2.6714,-0.4883 -4.4216,-0.7325 -1.7502,-0.2442 -4.51374,0 -6.07974,-0.7326 C 1.81997,46.885 0.0697624,43.9549 0.0697624,43.9549 -0.0223402,43.1003 -0.390852,42.1236 2.28053,41.7573 Z"
         stroke="#bf9000"
         stroke-width="1.33333"
         stroke-miterlimit="8"
         fill="#ffd966"
         fill-rule="evenodd"
         transform="matrix(-0.901621,0.432527,0.432527,0.901621,573.376,383.345)"
         id="path28" />
      <path
         d="m 516.409,410.007 c 1.717,0.922 4.967,4.296 7.834,6.115 2.867,1.819 5.614,3.684 9.366,4.799 3.752,1.115 8.599,1.69 13.148,1.892 4.548,0.203 9.232,0.232 14.144,-0.677 4.912,-0.909 11.417,-3.644 15.327,-4.777 3.91,-1.133 7.074,-2.709 8.134,-2.021 1.06,0.688 0.2,4.481 -1.774,6.148 -1.974,1.668 -7.448,2.975 -10.07,3.858 -2.622,0.882 -4.015,1.051 -5.662,1.439 -1.648,0.388 -2.352,0.536 -4.224,0.889 -1.872,0.352 -5.047,1.082 -7.008,1.225 -1.961,0.144 -3,-0.248 -4.758,-0.365 -1.758,-0.117 -3.756,-0.142 -5.79,-0.335 -2.035,-0.193 -4.503,-0.585 -6.417,-0.824 -1.915,-0.238 -3.12,-0.202 -5.071,-0.61 -1.952,-0.407 -4.613,-1.089 -6.638,-1.833 -2.025,-0.743 -4.176,-1.864 -5.513,-2.628 -1.337,-0.765 -1.739,-1.218 -2.507,-1.957 -0.768,-0.739 -1.244,-1.529 -2.101,-2.477 -0.857,-0.948 -2.559,-1.998 -3.041,-3.211 -0.482,-1.213 0.149,-4.068 0.149,-4.068 0.422,-0.647 0.754,-1.504 2.472,-0.582 z"
         stroke="#bf9000"
         stroke-width="1.33333"
         stroke-miterlimit="8"
         fill="#ffd966"
         fill-rule="evenodd"
         id="path29" />
      <path
         d="m 565.101,478.048 c -1.4,-0.688 -4.249,-3.135 -6.621,-4.479 -2.372,-1.344 -4.659,-2.718 -7.61,-3.587 -2.951,-0.869 -6.658,-1.382 -10.095,-1.626 -3.438,-0.244 -6.956,-0.369 -10.531,0.16 -3.575,0.53 -8.124,2.309 -10.92,3.018 -2.796,0.71 -4.978,1.749 -5.857,1.241 -0.879,-0.508 -0.695,-3.158 0.583,-4.287 1.279,-1.13 5.228,-1.927 7.088,-2.489 1.86,-0.563 2.885,-0.65 4.074,-0.886 1.189,-0.237 1.699,-0.325 3.061,-0.531 1.362,-0.206 3.655,-0.649 5.109,-0.706 1.454,-0.057 2.281,0.242 3.615,0.364 1.333,0.121 2.835,0.184 4.385,0.365 1.55,0.181 3.449,0.512 4.915,0.723 1.466,0.211 2.365,0.213 3.879,0.543 1.514,0.331 3.593,0.87 5.203,1.439 1.61,0.569 3.36,1.406 4.456,1.973 1.096,0.568 1.453,0.896 2.119,1.433 0.666,0.538 1.119,1.104 1.877,1.791 0.758,0.686 2.163,1.463 2.672,2.327 0.509,0.865 0.382,2.859 0.382,2.859 -0.237,0.447 -0.383,1.042 -1.784,0.355 z"
         stroke="#bf9000"
         stroke-width="1.33333"
         stroke-miterlimit="8"
         fill="#ffd966"
         fill-rule="evenodd"
         id="path30" />
      <path
         d="m 1.17342,30.3686 c 1.37453,-0.2663 4.69237,0.2664 7.10966,0 2.41732,-0.2663 4.78722,-0.4439 7.39402,-1.5982 2.6069,-1.1543 5.593,-3.1965 8.2473,-5.3275 2.6542,-2.131 5.3085,-4.4396 7.6784,-7.4585 C 33.9727,12.9655 36.4373,7.99319 38.1437,5.32948 39.85,2.66577 40.9401,0.0907838 41.8407,0.00200654 42.7412,-0.0867708 43.9262,2.75454 43.547,4.79671 c -0.3792,2.04218 -2.8912,5.59389 -3.9814,7.45849 -1.0902,1.8646 -1.8011,2.6637 -2.5595,3.7292 -0.7584,1.0655 -1.0902,1.5095 -1.9907,2.6638 -0.9005,1.1543 -2.3699,3.1964 -3.4126,4.262 -1.0428,1.0654 -1.8011,1.3319 -2.8439,2.131 -1.0427,0.7991 -2.1803,1.7758 -3.4126,2.6637 -1.2324,0.8879 -2.7965,1.8646 -3.9814,2.6637 -1.185,0.7992 -1.8485,1.4207 -3.1283,2.131 -1.2797,0.7103 -3.0808,1.5982 -4.5502,2.131 -1.4693,0.5327 -3.1756,0.8879 -4.26577,1.0655 -1.09016,0.1776 -1.51675,0.0888 -2.2751,0 C 6.38718,35.6073 5.77101,35.3409 4.87046,35.1633 3.96991,34.9857 2.54797,35.1633 1.74221,34.6306 0.936441,34.0978 0.0358954,31.9669 0.0358954,31.9669 -0.0114949,31.3453 -0.201108,30.635 1.17342,30.3686 Z"
         stroke="#bf9000"
         stroke-width="1.33333"
         stroke-miterlimit="8"
         fill="#ffd966"
         fill-rule="evenodd"
         transform="matrix(-0.827254,0.561828,0.561828,0.827254,556.636,379.092)"
         id="path31" />
      <path
         d="m 774.614,196.546 c 1.533,-1.6 4.396,-3.19 6.742,-3.751 2.345,-0.561 4.986,-0.698 7.329,0.385 2.343,1.084 4.883,3.547 6.731,6.118 1.848,2.571 3.358,6.047 4.357,9.309 0.998,3.261 1.834,6.704 1.633,10.26 -0.202,3.555 -1.491,7.651 -2.842,11.073 -1.351,3.422 -3.304,6.741 -5.263,9.458 -1.959,2.718 -4.176,5.228 -6.492,6.848 -2.316,1.62 -4.821,2.663 -7.406,2.874 -2.586,0.211 -6.051,-0.048 -8.107,-1.609 -2.057,-1.562 -3.984,-4.765 -4.233,-7.761 -0.248,-2.997 0.964,-7.524 2.741,-10.218 1.777,-2.695 5.926,-3.346 7.923,-5.948 1.996,-2.603 3.774,-7.042 4.058,-9.665 0.284,-2.624 -1.196,-4.841 -2.357,-6.076 -1.16,-1.235 -3.393,-0.428 -4.605,-1.336 -1.212,-0.907 -2.648,-2.408 -2.665,-4.111 -0.017,-1.702 0.923,-4.249 2.456,-5.85 z"
         stroke="#c55a11"
         stroke-width="4"
         stroke-miterlimit="8"
         fill="#f4b183"
         fill-rule="evenodd"
         id="path32" />
      <path
         d="M 0,8.7494 C 0,3.91724 1.07449,0 2.39995,0 3.7254,0 4.79989,3.91724 4.79989,8.7494 c 0,4.8322 -1.07449,8.7494 -2.39994,8.7494 C 1.07449,17.4988 0,13.5816 0,8.7494 Z"
         stroke="#c55a11"
         stroke-width="1.33333"
         stroke-miterlimit="8"
         fill="#c55a11"
         fill-rule="evenodd"
         transform="matrix(-0.340848,0.940118,0.940118,0.340848,768.289,228.765)"
         id="path33" />
      <path
         d="m 793.548,225.042 c 4.023,1.225 6.943,3.338 6.522,4.72 -0.421,1.382 -4.023,1.51 -8.046,0.286 -4.022,-1.225 -6.943,-3.338 -6.522,-4.72 0.421,-1.382 4.023,-1.51 8.046,-0.286 z"
         stroke="#c55a11"
         stroke-width="1.33333"
         stroke-miterlimit="8"
         fill="#c55a11"
         fill-rule="evenodd"
         id="path34" />
      <path
         d="M 0,7.77669 C 0,3.48174 1.07449,0 2.39995,0 3.7254,0 4.79989,3.48174 4.79989,7.77669 4.79989,12.0716 3.7254,15.5534 2.39995,15.5534 1.07449,15.5534 0,12.0716 0,7.77669 Z"
         stroke="#c55a11"
         stroke-width="1.33333"
         stroke-miterlimit="8"
         fill="#c55a11"
         fill-rule="evenodd"
         transform="matrix(0.111044,-0.993815,-0.993815,-0.111044,794.177,214.601)"
         id="path35" />
      <path
         d="m 637.147,358.208 c 1.542,1.592 3.024,4.513 3.497,6.877 0.473,2.365 0.512,5.009 -0.658,7.31 -1.171,2.302 -3.726,4.747 -6.365,6.498 -2.638,1.751 -6.169,3.131 -9.465,4.007 -3.297,0.876 -6.768,1.583 -10.314,1.249 -3.545,-0.334 -7.59,-1.776 -10.959,-3.253 -3.369,-1.478 -6.613,-3.553 -9.255,-5.613 -2.643,-2.059 -5.069,-4.367 -6.601,-6.743 -1.533,-2.375 -2.481,-4.917 -2.596,-7.508 -0.114,-2.592 0.274,-6.045 1.911,-8.042 1.637,-1.996 4.91,-3.803 7.913,-3.939 3.004,-0.137 7.483,1.243 10.109,3.12 2.626,1.877 3.123,6.046 5.648,8.139 2.526,2.092 6.896,4.035 9.507,4.416 2.611,0.381 4.882,-1.015 6.16,-2.128 1.277,-1.114 0.554,-3.376 1.506,-4.553 0.953,-1.177 2.506,-2.556 4.208,-2.51 1.702,0.047 4.212,1.082 5.754,2.673 z"
         stroke="#c55a11"
         stroke-width="4"
         stroke-miterlimit="8"
         fill="#f4b183"
         fill-rule="evenodd"
         id="path36" />
      <path
         d="M 0,8.9801 C 0,4.02053 1.13677,0 2.53905,0 c 1.40229,0 2.53906,4.02053 2.53906,8.9801 0,4.9596 -1.13677,8.9801 -2.53906,8.9801 C 1.13677,17.9602 0,13.9397 0,8.9801 Z"
         stroke="#c55a11"
         stroke-width="1.33333"
         stroke-miterlimit="8"
         fill="#c55a11"
         fill-rule="evenodd"
         transform="matrix(-0.810254,-0.586078,-0.586078,0.810254,604.075,358.129)"
         id="path37" />
      <path
         d="M 0,6.57864 C 0,2.94536 1.07449,0 2.39995,0 3.7254,0 4.79989,2.94536 4.79989,6.57864 4.79989,10.2119 3.7254,13.1573 2.39995,13.1573 1.07449,13.1573 0,10.2119 0,6.57864 Z"
         stroke="#c55a11"
         stroke-width="1.33333"
         stroke-miterlimit="8"
         fill="#c55a11"
         fill-rule="evenodd"
         transform="matrix(0.882085,0.47109,0.47109,-0.882085,603.323,377.4)"
         id="path38" />
      <path
         d="M 0,8.36215 C 0,3.74386 1.07449,0 2.39995,0 3.7254,0 4.79989,3.74386 4.79989,8.36215 4.79989,12.9804 3.7254,16.7243 2.39995,16.7243 1.07449,16.7243 0,12.9804 0,8.36215 Z"
         stroke="#c55a11"
         stroke-width="1.33333"
         stroke-miterlimit="8"
         fill="#c55a11"
         fill-rule="evenodd"
         transform="matrix(-0.975415,-0.220374,-0.220374,0.975415,629.442,366.485)"
         id="path39" />
      <path
         d="m 689.321,301.889 c 10.255,-24.515 30.827,-39.261 45.948,-32.935 15.122,6.325 19.067,31.326 8.812,55.842 -10.255,24.515 -30.827,39.261 -45.948,32.935 -15.122,-6.325 -19.067,-31.327 -8.812,-55.842 z"
         stroke="#008000"
         stroke-width="4"
         stroke-miterlimit="8"
         fill="#70ad47"
         fill-rule="evenodd"
         id="path40" />
      <path
         d="M 0,0 22.3366,53.8463"
         stroke="#008000"
         stroke-width="4"
         stroke-linecap="round"
         stroke-miterlimit="8"
         fill="none"
         fill-rule="evenodd"
         transform="matrix(-1,0,0,1,725.337,288)"
         id="path41" />
      <path
         d="M 0,0 3.01732,6.82016"
         stroke="#008000"
         stroke-width="4"
         stroke-linecap="round"
         stroke-miterlimit="8"
         fill="none"
         fill-rule="evenodd"
         transform="matrix(-1,0,0,1,730.017,290)"
         id="path42" />
      <path
         d="M 0,0 3.01732,6.82016"
         stroke="#008000"
         stroke-width="4"
         stroke-linecap="round"
         stroke-miterlimit="8"
         fill="none"
         fill-rule="evenodd"
         transform="matrix(-1,0,0,1,721.017,287)"
         id="path43" />
      <path
         d="M 0,0 3.01732,6.82016"
         stroke="#008000"
         stroke-width="4"
         stroke-linecap="round"
         stroke-miterlimit="8"
         fill="none"
         fill-rule="evenodd"
         transform="matrix(-1,0,0,1,735.017,292)"
         id="path44" />
      <path
         d="M 0,0 3.01732,6.82016"
         stroke="#008000"
         stroke-width="4"
         stroke-linecap="round"
         stroke-miterlimit="8"
         fill="none"
         fill-rule="evenodd"
         transform="matrix(-1,0,0,1,716.017,284)"
         id="path45" />
      <path
         d="M 0,0 3.01732,6.82016"
         stroke="#008000"
         stroke-width="4"
         stroke-linecap="round"
         stroke-miterlimit="8"
         fill="none"
         fill-rule="evenodd"
         transform="matrix(-1,0,0,1,722.017,309)"
         id="path46" />
      <path
         d="M 0,0 3.01732,6.82016"
         stroke="#008000"
         stroke-width="4"
         stroke-linecap="round"
         stroke-miterlimit="8"
         fill="none"
         fill-rule="evenodd"
         transform="matrix(-1,0,0,1,726.017,311)"
         id="path47" />
      <path
         d="M 0,0 3.01732,6.82016"
         stroke="#008000"
         stroke-width="4"
         stroke-linecap="round"
         stroke-miterlimit="8"
         fill="none"
         fill-rule="evenodd"
         transform="matrix(-1,0,0,1,730.017,312)"
         id="path48" />
      <path
         d="M 0,0 3.01732,6.82016"
         stroke="#008000"
         stroke-width="4"
         stroke-linecap="round"
         stroke-miterlimit="8"
         fill="none"
         fill-rule="evenodd"
         transform="matrix(-1,0,0,1,735.017,314)"
         id="path49" />
      <path
         d="M 0,0 3.01732,6.82016"
         stroke="#008000"
         stroke-width="4"
         stroke-linecap="round"
         stroke-miterlimit="8"
         fill="none"
         fill-rule="evenodd"
         transform="matrix(-1,0,0,1,713.017,307)"
         id="path50" />
      <path
         d="M 0,0 3.01732,6.82016"
         stroke="#008000"
         stroke-width="4"
         stroke-linecap="round"
         stroke-miterlimit="8"
         fill="none"
         fill-rule="evenodd"
         transform="matrix(-1,0,0,1,709.017,304)"
         id="path51" />
      <path
         d="M 0,0 3.01732,6.82016"
         stroke="#008000"
         stroke-width="4"
         stroke-linecap="round"
         stroke-miterlimit="8"
         fill="none"
         fill-rule="evenodd"
         transform="matrix(-1,0,0,1,705.017,303)"
         id="path52" />
      <path
         d="M 0,0 3.01732,6.82016"
         stroke="#008000"
         stroke-width="4"
         stroke-linecap="round"
         stroke-miterlimit="8"
         fill="none"
         fill-rule="evenodd"
         transform="matrix(-1,0,0,1,701.017,301)"
         id="path53" />
      <path
         d="M 0,0 3.01732,6.82016"
         stroke="#008000"
         stroke-width="4"
         stroke-linecap="round"
         stroke-miterlimit="8"
         fill="none"
         fill-rule="evenodd"
         transform="matrix(-1,0,0,1,711.017,336)"
         id="path54" />
      <path
         d="M 0,0 3.01732,6.82016"
         stroke="#008000"
         stroke-width="4"
         stroke-linecap="round"
         stroke-miterlimit="8"
         fill="none"
         fill-rule="evenodd"
         transform="matrix(-1,0,0,1,716.017,337)"
         id="path55" />
      <path
         d="M 0,0 3.01732,6.82016"
         stroke="#008000"
         stroke-width="4"
         stroke-linecap="round"
         stroke-miterlimit="8"
         fill="none"
         fill-rule="evenodd"
         transform="matrix(-1,0,0,1,702.017,333)"
         id="path56" />
      <path
         d="M 0,0 3.01732,6.82016"
         stroke="#008000"
         stroke-width="4"
         stroke-linecap="round"
         stroke-miterlimit="8"
         fill="none"
         fill-rule="evenodd"
         transform="matrix(-1,0,0,1,698.017,330)"
         id="path57" />
      <path
         d="m 525.239,383.879 c -7.332,-5.155 -14.664,-10.309 -19.242,-14.543 -4.578,-4.233 -6.914,-7.87 -8.226,-10.858 -1.311,-2.988 -0.689,-4.823 0.358,-7.069 1.047,-2.245 3.447,-4.791 5.924,-6.405 2.478,-1.614 5.581,-3.285 8.941,-3.28 3.36,0.006 6.895,1.481 11.221,3.314 4.326,1.833 10.146,4.897 14.735,7.683 4.589,2.787 10.066,6.469 12.799,9.033 2.733,2.565 3.933,4.684 3.599,6.356 -0.333,1.672 -2.488,3.061 -5.6,3.678 -3.112,0.617 -9.407,0.195 -13.07,0.022 -3.663,-0.174 -5.456,0.205 -8.908,-1.062 -3.452,-1.268 -9.203,-4.456 -11.805,-6.544 -2.601,-2.088 -3.65,-4.123 -3.805,-5.985 -0.155,-1.863 1.586,-4.289 2.876,-5.189 1.29,-0.899 2.15,-0.665 4.865,-0.21 2.715,0.456 8.688,1.102 11.427,2.943 2.738,1.841 5.709,6.476 5.005,8.104 -0.705,1.628 -4.969,1.646 -9.233,1.664"
         stroke="#cc3300"
         stroke-width="6.33333"
         stroke-linecap="round"
         stroke-miterlimit="8"
         stroke-dasharray="0, 12.6667"
         fill="none"
         fill-rule="evenodd"
         id="path58" />
      <path
         d="m 787.135,414.85 c -0.445,3.309 -0.89,6.619 -2.624,8.827 -1.734,2.208 -4.952,3.69 -7.78,4.423 -2.829,0.733 -6.207,1.188 -9.191,-0.025 -2.984,-1.213 -7.184,-4.635 -8.713,-7.252 -1.53,-2.617 -1.434,-5.804 -0.465,-8.45 0.969,-2.646 3.67,-5.758 6.277,-7.425 2.606,-1.667 7.914,-2.14 9.361,-2.577"
         stroke="#ffc000"
         stroke-width="1.33333"
         stroke-miterlimit="8"
         fill="none"
         fill-rule="evenodd"
         id="path59" />
      <path
         d="m 755.609,370.504 c 5.397,-2.92 16.944,-7.675 24.387,-5.944 7.443,1.732 16.307,8.85 20.272,16.333 3.965,7.484 5.082,19.084 3.516,28.567 -1.566,9.483 -6.7,20.361 -12.912,28.332 -6.212,7.971 -15.012,19.942 -24.363,19.496 -9.351,-0.446 -26.257,-15.116 -31.744,-22.171 -5.486,-7.054 -3.035,-14.532 -1.176,-20.156 1.858,-5.623 9.991,-8.104 12.328,-13.584 2.337,-5.48 0.039,-14.071 1.695,-19.296 1.656,-5.225 2.599,-8.657 7.997,-11.577 z"
         stroke="#ffc000"
         stroke-width="3"
         stroke-miterlimit="8"
         fill="url(#fill1)"
         fill-rule="evenodd"
         id="path60"
         style="fill:url(#fill1-1)" />
      <path
         d="m 747.011,382.445 c 1.46,-2.647 2.919,-5.293 5.013,-6.625 2.093,-1.332 5.098,-1.605 7.547,-1.366 2.45,0.239 5.234,0.877 7.15,2.798 1.916,1.921 4.036,6.065 4.348,8.727 0.311,2.661 -0.836,5.31 -2.481,7.241 -1.644,1.931 -4.795,3.73 -7.385,4.344 -2.591,0.613 -6.884,-0.593 -8.158,-0.663"
         stroke="#ffc000"
         stroke-width="1.33333"
         stroke-miterlimit="8"
         fill="none"
         fill-rule="evenodd"
         id="path61" />
      <path
         d="m 744.213,415.471 c -1.061,-2.83 -2.122,-5.661 -1.773,-8.117 0.35,-2.456 2.097,-4.916 3.871,-6.622 1.774,-1.706 4.069,-3.405 6.774,-3.612 2.706,-0.207 7.233,0.878 9.457,2.372 2.225,1.494 3.491,4.089 3.889,6.593 0.397,2.505 -0.285,6.069 -1.504,8.436 -1.218,2.367 -4.927,4.844 -5.808,5.766"
         stroke="#ffc000"
         stroke-width="1.33333"
         stroke-miterlimit="8"
         fill="none"
         fill-rule="evenodd"
         id="path62" />
      <path
         d="m 732.477,422.438 c 1.834,-2.76 3.668,-5.519 6.191,-6.728 2.524,-1.209 6.074,-1.116 8.949,-0.525 2.874,0.59 6.125,1.67 8.298,4.066 2.173,2.396 4.489,7.299 4.74,10.309 0.251,3.01 -1.215,5.814 -3.236,7.75 -2.02,1.936 -5.809,3.527 -8.887,3.868 -3.078,0.342 -8.081,-1.571 -9.578,-1.818"
         stroke="#ffc000"
         stroke-width="1.33333"
         stroke-miterlimit="8"
         fill="none"
         fill-rule="evenodd"
         id="path63" />
      <path
         d="m 777.197,366.169 c 3.173,-0.461 6.346,-0.921 8.81,-0.015 2.464,0.907 4.613,3.25 5.974,5.453 1.361,2.204 2.597,4.941 2.193,7.767 -0.405,2.826 -2.562,7.238 -4.618,9.191 -2.055,1.953 -5.031,2.677 -7.716,2.527 -2.685,-0.149 -6.22,-1.644 -8.392,-3.424 -2.173,-1.779 -3.891,-6.142 -4.645,-7.254"
         stroke="#ffc000"
         stroke-width="1.33333"
         stroke-miterlimit="8"
         fill="none"
         fill-rule="evenodd"
         id="path64" />
      <path
         d="m 802.241,407.35 c -1,3.68 -2.001,7.36 -4.434,9.583 -2.435,2.222 -6.593,3.38 -10.17,3.753 -3.577,0.372 -7.791,0.341 -11.293,-1.518 -3.501,-1.859 -8.195,-6.419 -9.717,-9.634 -1.522,-3.215 -0.966,-6.813 0.587,-9.656 1.553,-2.843 5.3,-5.934 8.732,-7.401 3.432,-1.468 10.021,-1.143 11.859,-1.404"
         stroke="#ffc000"
         stroke-width="1.33333"
         stroke-miterlimit="8"
         fill="none"
         fill-rule="evenodd"
         id="path65" />
      <path
         d="m 781.917,449.841 c -4.162,0.576 -8.325,1.152 -11.505,0.1 -3.18,-1.051 -5.889,-3.811 -7.576,-6.411 -1.686,-2.6 -3.188,-5.835 -2.544,-9.191 0.644,-3.356 3.643,-8.609 6.407,-10.945 2.765,-2.336 6.68,-3.222 10.18,-3.07 3.499,0.152 8.053,1.891 10.817,3.982 2.764,2.09 4.828,7.248 5.766,8.56"
         stroke="#ffc000"
         stroke-width="1.33333"
         stroke-miterlimit="8"
         fill="none"
         fill-rule="evenodd"
         id="path66" />
      <path
         d="M 0.0221552,-1.49984 163.505,0.915094 163.461,3.91477 -0.0221552,1.49984 Z M 155.336,-4.2518 166.459,2.45889 155.142,8.83811 c -0.721,0.40681 -1.636,0.15156 -2.043,-0.5701 -0.407,-0.72167 -0.151,-1.63647 0.57,-2.04328 l 9.077,-5.1165 -0.038,2.59106 -8.922,-5.38236 c -0.709,-0.42794 -0.937,-1.34989 -0.509,-2.05922 0.427,-0.70934 1.349,-0.93745 2.059,-0.50951 z"
         transform="matrix(1,0,0,-1,744.5,317.959)"
         id="path67" />
      <path
         d="M 0.0124449,-1.49995 106.89,-0.6132 106.865,2.3867 -0.0124449,1.49995 Z M 98.6877,-5.72709 109.854,0.911449 98.5791,7.36379 C 97.8601,7.77526 96.9437,7.52595 96.5322,6.80693 96.1207,6.08791 96.37,5.17147 97.0891,4.76 l 9.0429,-5.175144 -0.021,2.591244 -8.9563,-5.32449 c -0.7121,-0.42334 -0.9462,-1.34379 -0.5228,-2.05588 0.4233,-0.71209 1.3438,-0.94617 2.0558,-0.52282 z"
         transform="matrix(1,0,0,-1,801.5,224.411)"
         id="path68" />
      <path
         d="M 1.06917e-6,-1.5 144.321,-1.4999 v 3 L -1.06917e-6,1.5 Z M 136.077,-6.54557 147.298,1.04513e-4 136.077,6.54576 c -0.715,0.41742 -1.634,0.17572 -2.051,-0.53986 -0.418,-0.71558 -0.176,-1.63405 0.54,-2.05147 l 9,-5.25 v 2.59134 l -9,-5.25001 c -0.716,-0.41742 -0.958,-1.33589 -0.54,-2.05147 0.417,-0.71558 1.336,-0.95728 2.051,-0.53986 z"
         transform="matrix(-1,0,0,1,536.792,580.5)"
         id="path69" />
      <path
         d="M 0.0213667,-1.49985 108.974,0.0522772 108.931,3.05197 -0.0213667,1.49985 Z M 100.802,-5.11031 111.929,1.59453 100.616,7.9797 C 99.8946,8.38688 98.9796,8.13212 98.5724,7.41067 98.1652,6.68922 98.42,5.77428 99.1415,5.36709 L 108.215,0.245827 108.178,2.8369 99.2541,-2.54077 c -0.7095,-0.42757 -0.9381,-1.34939 -0.5106,-2.05895 0.4276,-0.70956 1.3495,-0.93816 2.0585,-0.51059 z"
         transform="matrix(1,0,0,-1,802.5,418.094)"
         id="path70" />
      <path
         d="M 0.0217465,-1.49984 122.753,0.27966 122.709,3.27935 -0.0217465,1.49984 Z M 114.584,-4.88499 l 11.125,6.70766 -11.315,6.3823 c -0.722,0.407 -1.637,0.15201 -2.044,-0.56955 -0.407,-0.72155 -0.152,-1.63643 0.57,-2.04343 l 9.075,-5.118966 -0.038,2.591066 -8.923,-5.37993 c -0.709,-0.42775 -0.937,-1.34963 -0.51,-2.05908 0.428,-0.70946 1.35,-0.93782 2.06,-0.51007 z"
         transform="matrix(1,0,0,-1,793.5,543.323)"
         id="path71" />
      <path
         d="m 809.5,622 h 106.969 v 3 H 809.5 Z m 98.725,-5.046 11.221,6.546 -11.221,6.546 c -0.716,0.417 -1.634,0.176 -2.052,-0.54 -0.417,-0.716 -0.176,-1.634 0.54,-2.052 l 9,-5.25 v 2.592 l -9,-5.25 c -0.716,-0.418 -0.957,-1.336 -0.54,-2.052 0.418,-0.715 1.336,-0.957 2.052,-0.54 z"
         id="path72" />
      <path
         d="m 436.556,142.049 -57.113,-0.997 0.053,-3 57.112,0.997 z m -48.958,4.191 -11.105,-6.74 11.334,-6.349 c 0.723,-0.405 1.637,-0.147 2.042,0.576 0.404,0.723 0.147,1.637 -0.576,2.041 l -9.09,5.093 0.045,-2.591 8.907,5.406 c 0.708,0.43 0.934,1.352 0.504,2.061 -0.43,0.708 -1.353,0.933 -2.061,0.503 z"
         id="path73" />
      <path
         d="M 2.66109e-6,-1.5 56.2089,-1.4999 v 3 L -2.66109e-6,1.5 Z M 47.9647,-6.54558 59.1859,1.05059e-4 47.9647,6.54575 C 47.2491,6.96317 46.3306,6.72147 45.9132,6.00589 45.4958,5.29031 45.7375,4.37183 46.4531,3.95441 l 9,-5.24998 v 2.59134 l -9,-5.25002 c -0.7156,-0.41742 -0.9573,-1.3359 -0.5399,-2.05147 0.4175,-0.71558 1.3359,-0.95729 2.0515,-0.53986 z"
         transform="matrix(-1,0,0,1,444.679,189.5)"
         id="path74" />
      <path
         d="m 508.355,279.491 -124.005,-9.274 0.224,-2.991 124.004,9.273 z m -116.16,-3.627 -10.702,-7.364 11.678,-5.691 c 0.745,-0.363 1.643,-0.053 2.006,0.691 0.363,0.745 0.053,1.643 -0.692,2.006 l -9.366,4.564 0.193,-2.584 8.584,5.906 c 0.682,0.47 0.855,1.404 0.385,2.086 -0.47,0.683 -1.404,0.855 -2.086,0.386 z"
         id="path75" />
      <path
         d="M 0.00325184,-1.5 133.504,-1.21058 133.497,1.78941 -0.00325184,1.5 Z M 125.27,-6.27411 136.477,0.295867 125.242,6.81719 c -0.717,0.41587 -1.635,0.17218 -2.051,-0.5443 -0.415,-0.71648 -0.172,-1.63443 0.545,-2.0503 l 9.011,-5.23048 -0.005,2.59133 -8.989,-5.2695 c -0.715,-0.41897 -0.954,-1.33797 -0.535,-2.05264 0.418,-0.71467 1.337,-0.95438 2.052,-0.53541 z"
         transform="matrix(-1,0,0,1,525.97,311.5)"
         id="path76" />
      <path
         d="M 542.468,206.417 433.5,139.5"
         stroke="#000000"
         stroke-width="3"
         stroke-miterlimit="8"
         fill="none"
         fill-rule="evenodd"
         id="path77" />
      <path
         d="M 525.373,228.913 444.5,189.5"
         stroke="#000000"
         stroke-width="3"
         stroke-miterlimit="8"
         fill="none"
         fill-rule="evenodd"
         id="path78" />
      <path
         d="M 1.41288e-6,-1.5 108.49,-1.4999 v 3 L -1.41288e-6,1.5 Z M 100.246,-6.54557 111.468,1.05168e-4 100.246,6.54576 C 99.5308,6.96318 98.6123,6.72148 98.1949,6.0059 97.7775,5.29032 98.0192,4.37184 98.7348,3.95442 l 9.0002,-5.24999 v 2.59134 l -9.0002,-5.25001 c -0.7156,-0.41742 -0.9573,-1.3359 -0.5399,-2.05147 0.4174,-0.71558 1.3359,-0.95728 2.0511,-0.53986 z"
         transform="matrix(-1,0,0,1,496.961,359.5)"
         id="path79" />
      <path
         d="M 0.0266267,-1.49976 115.415,0.548831 115.362,3.54836 -0.0266267,1.49976 Z M 107.262,-4.64239 118.365,2.10144 107.029,8.44689 c -0.723,0.40465 -1.637,0.14668 -2.041,-0.5762 -0.405,-0.72287 -0.147,-1.63691 0.576,-2.04157 l 9.092,-5.089409 -0.046,2.590929 -8.906,-5.40893 c -0.708,-0.43006 -0.933,-1.35268 -0.503,-2.06074 0.43,-0.70805 1.352,-0.93342 2.061,-0.50336 z"
         transform="matrix(-1,0,0,1,503.858,424.5)"
         id="path80" />
      <text
         font-family="'Times New Roman', 'Times New Roman_MSFontService', sans-serif"
         font-weight="400"
         font-size="24px"
         transform="translate(920.162,229)"
         id="text80">Mitochondria</text>
      <text
         font-family="'Times New Roman', 'Times New Roman_MSFontService', sans-serif"
         font-weight="400"
         font-size="24px"
         transform="translate(923.757,323)"
         id="text81">Chloroplast</text>
      <text
         font-family="'Times New Roman', 'Times New Roman_MSFontService', sans-serif"
         font-weight="400"
         font-size="24px"
         transform="translate(927.528,426)"
         id="text82">Amyloplast</text>
      <text
         font-family="'Times New Roman', 'Times New Roman_MSFontService', sans-serif"
         font-weight="400"
         font-size="24px"
         transform="translate(935.743,550)"
         id="text83">Vacuole</text>
      <text
         font-family="'Times New Roman', 'Times New Roman_MSFontService', sans-serif"
         font-weight="400"
         font-size="24px"
         transform="translate(932,632)"
         id="text84">Cytoskeleton</text>
      <text
         font-family="'Times New Roman', 'Times New Roman_MSFontService', sans-serif"
         font-weight="400"
         font-size="24px"
         transform="translate(289.605,145)"
         id="text85">Nucleus</text>
      <text
         font-family="'Times New Roman', 'Times New Roman_MSFontService', sans-serif"
         font-weight="400"
         font-size="24px"
         transform="translate(274.196,197)"
         id="text86">Nucleolus</text>
      <text
         font-family="'Times New Roman', 'Times New Roman_MSFontService', sans-serif"
         font-weight="400"
         font-size="24px"
         transform="translate(78.3755,273)"
         id="text87">Rough Endoplasmic Reticulum</text>
      <text
         font-family="'Times New Roman', 'Times New Roman_MSFontService', sans-serif"
         font-weight="400"
         font-size="24px"
         transform="translate(65.3136,318)"
         id="text88">Smooth Endoplasmic Reticulum</text>
      <text
         font-family="'Times New Roman', 'Times New Roman_MSFontService', sans-serif"
         font-weight="400"
         font-size="24px"
         transform="translate(262.444,368)"
         id="text89">Ribosomes</text>
      <text
         font-family="'Times New Roman', 'Times New Roman_MSFontService', sans-serif"
         font-weight="400"
         font-size="24px"
         transform="translate(215.892,434)"
         id="text90">Golgi Apparatus</text>
      <text
         font-family="'Times New Roman', 'Times New Roman_MSFontService', sans-serif"
         font-weight="400"
         font-size="24px"
         transform="translate(257.927,588)"
         id="text91">Peroxisome</text>
      <path
         d="M 0.0119166,-1.49995 75.2872,-0.901919 75.2634,2.09799 -0.0119166,1.49995 Z M 67.0832,-6.01292 78.252,0.621683 66.9792,7.078 C 66.2603,7.48972 65.3438,7.24073 64.9321,6.52186 64.5204,5.80299 64.7693,4.88646 65.4882,4.47474 L 74.5296,-0.703599 74.5091,1.88766 65.551,-3.43368 c -0.7122,-0.42309 -0.9466,-1.34346 -0.5235,-2.0557 0.4231,-0.71224 1.3435,-0.94664 2.0557,-0.52354 z"
         transform="matrix(1,0,0,-1,827.5,161.122)"
         id="path91" />
      <text
         font-family="'Times New Roman', 'Times New Roman_MSFontService', sans-serif"
         font-weight="400"
         font-size="24px"
         transform="translate(915.298,166)"
         id="text92">Cell Wall</text>
      <path
         d="m 838.524,280 77.193,1.247 -0.049,3 L 838.476,283 Z m 69.031,-3.931 11.114,6.726 -11.325,6.364 c -0.722,0.406 -1.637,0.149 -2.043,-0.573 -0.405,-0.722 -0.149,-1.637 0.573,-2.042 l 9.084,-5.104 -0.042,2.591 -8.914,-5.395 c -0.709,-0.429 -0.936,-1.351 -0.507,-2.06 0.429,-0.709 1.352,-0.936 2.06,-0.507 z"
         id="path92" />
      <text
         font-family="'Times New Roman', 'Times New Roman_MSFontService', sans-serif"
         font-weight="400"
         font-size="24px"
         transform="translate(920.9,290)"
         id="text93">Cell Membrane</text>
      <text
         font-family="'Times New Roman', 'Times New Roman_MSFontService', sans-serif"
         font-weight="700"
         font-size="27px"
         transform="translate(58.9407,62)"
         id="text94">Structural Overview of a Plant Cell</text>
      <path
         d="m 671,395 c 26.51,0 48,13.208 48,29.5 0,16.292 -21.49,29.5 -48,29.5 -26.51,0 -48,-13.208 -48,-29.5 0,-16.292 21.49,-29.5 48,-29.5 z"
         stroke="#008000"
         stroke-width="4"
         stroke-miterlimit="8"
         fill="#70ad47"
         fill-rule="evenodd"
         id="path94" />
      <path
         d="M 0,0 22.3366,53.8463"
         stroke="#008000"
         stroke-width="4"
         stroke-linecap="round"
         stroke-miterlimit="8"
         fill="none"
         fill-rule="evenodd"
         transform="matrix(-0.367287,-0.930108,-0.930108,0.367287,697.715,423.406)"
         id="path95" />
      <path
         d="M 0,0 3.01732,6.82016"
         stroke="#008000"
         stroke-width="4"
         stroke-linecap="round"
         stroke-miterlimit="8"
         fill="none"
         fill-rule="evenodd"
         transform="matrix(-0.367287,-0.930108,-0.930108,0.367287,697.619,428.486)"
         id="path96" />
      <path
         d="M 0,0 3.01732,6.82016"
         stroke="#008000"
         stroke-width="4"
         stroke-linecap="round"
         stroke-miterlimit="8"
         fill="none"
         fill-rule="evenodd"
         transform="matrix(-0.367287,-0.930108,-0.930108,0.367287,697.289,418.366)"
         id="path97" />
      <path
         d="M 0,0 3.01732,6.82016"
         stroke="#008000"
         stroke-width="4"
         stroke-linecap="round"
         stroke-miterlimit="8"
         fill="none"
         fill-rule="evenodd"
         transform="matrix(-0.367287,-0.930108,-0.930108,0.367287,697.478,433.709)"
         id="path98" />
      <path
         d="M 0,0 3.01732,6.82016"
         stroke="#008000"
         stroke-width="4"
         stroke-linecap="round"
         stroke-miterlimit="8"
         fill="none"
         fill-rule="evenodd"
         transform="matrix(-0.367287,-0.930108,-0.930108,0.367287,697.689,413.667)"
         id="path99" />
      <path
         d="M 0,0 3.01732,6.82016"
         stroke="#008000"
         stroke-width="4"
         stroke-linecap="round"
         stroke-miterlimit="8"
         fill="none"
         fill-rule="evenodd"
         transform="matrix(-0.367287,-0.930108,-0.930108,0.367287,676.631,427.706)"
         id="path100" />
      <path
         d="M 0,0 3.01732,6.82016"
         stroke="#008000"
         stroke-width="4"
         stroke-linecap="round"
         stroke-miterlimit="8"
         fill="none"
         fill-rule="evenodd"
         transform="matrix(-0.367287,-0.930108,-0.930108,0.367287,676.663,432.571)"
         id="path101" />
      <path
         d="M 0,0 3.01732,6.82016"
         stroke="#008000"
         stroke-width="4"
         stroke-linecap="round"
         stroke-miterlimit="8"
         fill="none"
         fill-rule="evenodd"
         transform="matrix(-0.367287,-0.930108,-0.930108,0.367287,676.949,436.896)"
         id="path102" />
      <path
         d="M 0,0 3.01732,6.82016"
         stroke="#008000"
         stroke-width="4"
         stroke-linecap="round"
         stroke-miterlimit="8"
         fill="none"
         fill-rule="evenodd"
         transform="matrix(-0.367287,-0.930108,-0.930108,0.367287,676.636,441.457)"
         id="path103" />
      <path
         d="M 0,0 3.01732,6.82016"
         stroke="#008000"
         stroke-width="4"
         stroke-linecap="round"
         stroke-miterlimit="8"
         fill="none"
         fill-rule="evenodd"
         transform="matrix(-0.367287,-0.930108,-0.930108,0.367287,675.544,418.408)"
         id="path104" />
      <path
         d="M 0,0 3.01732,6.82016"
         stroke="#008000"
         stroke-width="4"
         stroke-linecap="round"
         stroke-miterlimit="8"
         fill="none"
         fill-rule="evenodd"
         transform="matrix(-0.367287,-0.930108,-0.930108,0.367287,676.503,413.934)"
         id="path105" />
      <path
         d="M 0,0 3.01732,6.82016"
         stroke="#008000"
         stroke-width="4"
         stroke-linecap="round"
         stroke-miterlimit="8"
         fill="none"
         fill-rule="evenodd"
         transform="matrix(-0.367287,-0.930108,-0.930108,0.367287,676.33,409.59)"
         id="path106" />
      <path
         d="M 0,0 3.01732,6.82016"
         stroke="#008000"
         stroke-width="4"
         stroke-linecap="round"
         stroke-miterlimit="8"
         fill="none"
         fill-rule="evenodd"
         transform="matrix(-0.367287,-0.930108,-0.930108,0.367287,676.648,405.016)"
         id="path107" />
      <path
         d="M 0,0 3.01732,6.82016"
         stroke="#008000"
         stroke-width="4"
         stroke-linecap="round"
         stroke-miterlimit="8"
         fill="none"
         fill-rule="evenodd"
         transform="matrix(-0.367287,-0.930108,-0.930108,0.367287,648.213,427.579)"
         id="path108" />
      <path
         d="M 0,0 3.01732,6.82016"
         stroke="#008000"
         stroke-width="4"
         stroke-linecap="round"
         stroke-miterlimit="8"
         fill="none"
         fill-rule="evenodd"
         transform="matrix(-0.367287,-0.930108,-0.930108,0.367287,648.256,432.295)"
         id="path109" />
      <path
         d="M 0,0 3.01732,6.82016"
         stroke="#008000"
         stroke-width="4"
         stroke-linecap="round"
         stroke-miterlimit="8"
         fill="none"
         fill-rule="evenodd"
         transform="matrix(-0.367287,-0.930108,-0.930108,0.367287,647.674,417.928)"
         id="path110" />
      <path
         d="M 0,0 3.01732,6.82016"
         stroke="#008000"
         stroke-width="4"
         stroke-linecap="round"
         stroke-miterlimit="8"
         fill="none"
         fill-rule="evenodd"
         transform="matrix(-0.367287,-0.930108,-0.930108,0.367287,648.392,413.292)"
         id="path111" />
      <path
         d="m 689.506,227.954 c 5.715,-2.878 11.431,-5.756 15.598,-7.264 4.166,-1.507 7.162,-1.855 9.401,-1.781 2.238,0.075 3.092,0.968 4.031,2.23 0.939,1.262 1.56,3.412 1.604,5.342 0.044,1.93 -0.106,4.247 -1.338,6.239 -1.233,1.992 -3.394,3.668 -6.055,5.71 -2.661,2.043 -6.593,4.621 -9.911,6.548 -3.319,1.927 -7.49,4.125 -9.999,5.014 -2.51,0.889 -4.196,0.996 -5.058,0.321 -0.863,-0.675 -0.893,-2.349 -0.118,-4.371 0.775,-2.022 3.326,-5.636 4.767,-7.759 1.442,-2.123 1.874,-3.295 3.883,-4.981 2.009,-1.686 5.989,-4.187 8.17,-5.134 2.18,-0.948 3.762,-0.989 4.915,-0.549 1.153,0.439 1.945,2.164 2.002,3.186 0.058,1.022 -0.394,1.465 -1.655,2.946 -1.261,1.48 -3.826,4.839 -5.911,5.938 -2.086,1.099 -5.9,1.538 -6.601,0.656 -0.701,-0.883 0.847,-3.417 2.396,-5.952"
         stroke="#cc3300"
         stroke-width="6.33333"
         stroke-linecap="round"
         stroke-miterlimit="8"
         stroke-dasharray="0, 12.6667"
         fill="none"
         fill-rule="evenodd"
         id="path112" />
      <path
         d="m 550.923,621.562 c 4.452,4.672 8.905,9.343 11.385,13.237 2.481,3.894 3.311,7.301 3.498,10.125 0.187,2.823 -0.861,4.613 -2.377,6.815 -1.515,2.202 -4.222,4.745 -6.717,6.395 -2.494,1.65 -5.515,3.38 -8.251,3.506 -2.736,0.127 -5.181,-1.154 -8.164,-2.748 -2.984,-1.594 -6.821,-4.314 -9.737,-6.815 -2.917,-2.5 -6.292,-5.828 -7.762,-8.189 -1.47,-2.36 -1.822,-4.351 -1.057,-5.973 0.765,-1.622 2.93,-3.044 5.647,-3.759 2.718,-0.715 7.722,-0.557 10.655,-0.534 2.933,0.024 4.505,-0.411 6.944,0.673 2.438,1.084 6.183,3.926 7.686,5.833 1.503,1.907 1.757,3.824 1.334,5.61 -0.423,1.785 -2.557,4.188 -3.874,5.104 -1.317,0.917 -1.948,0.725 -4.025,0.393 -2.078,-0.332 -6.753,-0.719 -8.441,-2.383 -1.688,-1.664 -2.741,-6.007 -1.686,-7.601 1.054,-1.594 4.533,-1.779 8.012,-1.963"
         stroke="#cc3300"
         stroke-width="6.33333"
         stroke-linecap="round"
         stroke-miterlimit="8"
         stroke-dasharray="0, 12.6667"
         fill="none"
         fill-rule="evenodd"
         id="path113" />
    </g>
  </g>
  <metadata
     id="metadata1">
    <rdf:RDF>
      <cc:Work
         rdf:about="">
        <dc:title>Structure of Plant Cell</dc:title>
      </cc:Work>
    </rdf:RDF>
  </metadata>
</svg>
