<svg xmlns="http://www.w3.org/2000/svg" version="1.0" viewBox="0 0 213.959 105.865"><defs><clipPath clipPathUnits="userSpaceOnUse" id="a"><path d="M3.518 2.798h213.71v105.936H3.518z"/></clipPath></defs><path clip-path="url(#a)" d="M5.357 49.37c-3.558 47.531 21.867 52.049 64.92 55.087 36.019 2.238 123.566 12.792 141.914-33.22 17.63-45.293-38.816-63.402-96.021-65.64C62.522 2.558 8.875 1.799 5.357 49.37z" fill="#c57c08" fill-rule="evenodd" fill-opacity="1" stroke="none"/><path clip-path="url(#a)" d="M115.41 10.194c48.011 2.238 81.23 13.552 91.824 31.66 4.917 8.276 4.917 17.35.68 27.904-15.51 39.176-91.784 33.18-128.522 30.901l-9.195-.76c-25.424-2.238-44.493-3.757-54.367-15.83-5.676-6.796-7.795-18.109-6.356-33.94C12.992 7.916 57.485 7.157 115.41 10.195z" fill="#ffad56" fill-rule="evenodd" fill-opacity="1" stroke="none"/><path d="M183.249 33.46c-2.119-1.52-2.119 1.519-2.119 3.038.68 11.273 2.799 18.069 1.4 23.346-.72 4.517-2.839 6.036-5.637 6.036-2.119 0-4.238-1.519-4.957-9.034-.72-6.796.72-10.554 0-19.629 0-11.273-9.195-12.792-11.313-13.551-15.55-4.518-9.874 8.275-9.874 10.553.68 7.556 1.399 11.313.68 21.107 0 6.037 0 12.833-4.238 12.833-3.518 0-3.518-5.277-3.518-12.073.72-3.758.72-7.555.72-11.313 0-3.758 0-23.386-12.033-24.865-11.993-.76-10.594 18.069-10.594 23.346-.68 13.592-.68 27.143-1.399 30.901 0 3.038-2.838 4.557-4.957 3.798-2.119 0-4.237-3.038-3.518-5.277.68-3.038.68-23.386.68-42.214 0-3.039.72-14.352-11.273-14.352H89.266c-13.392 0-11.993 12.832-11.993 12.832s2.838 18.11-4.237 18.11c-7.076 0-4.238-12.073-4.238-18.87 0-11.312-16.95-12.072-16.95 1.52 0 14.311-.719 31.66-.719 33.18 0 2.239-2.119 4.517-4.237 4.517-2.12 0-3.518-2.278-3.518-5.277 0 0 .68-20.347.68-36.178 0-1.519-.68-5.277-4.918-3.038C25.704 28.183 17.23 37.217 16.51 53.048c-.72 8.315.72 15.11 3.518 20.387 2.838 4.518 9.194 5.997 9.194-2.278V52.328c0-2.278 1.44-4.557 4.238-4.557 2.118 0 4.237 2.279 4.237 4.557 0 7.516.72 21.107.72 29.382 0 1.52 0 9.035 9.194 9.035 9.155 0 10.594-7.515 10.594-7.515 0-8.315 0-19.629-.72-28.663 0-2.998 1.4-6.036 4.238-6.036 2.118 0 2.838 3.038 3.517 6.036v32.42c0 8.275 8.515 6.796 8.515.76 0-5.277-.72-12.073-.72-12.073.72-2.998 0-8.275 5.637-8.275 6.356 0 2.839 11.313 2.839 18.829 0 3.757 2.118 6.796 4.237 7.555 3.518 0 3.518-3.798 3.518-6.036 0-13.592-2.119-34.7-1.4-42.974 0-7.556 2.839-10.554 4.958-10.554 2.798 0 5.636 1.52 6.356 9.794 1.399 6.796-.72 25.625-.72 39.217 0 2.238 0 12.032 14.112 12.032 14.87 0 15.55-11.273 15.55-14.311 0-12.073.72-27.144.72-33.18 0-2.239 2.119-4.517 4.237-4.517 2.12 0 4.238 2.278 4.238 4.517 0 6.796 0 21.867-.72 33.94 0 2.998-.68 12.832 10.594 12.832 12.032 0 10.593-11.313 11.313-13.592 0-5.277 0-11.313-.72-17.35 0-2.238 2.12-4.517 4.238-4.517 2.838 0 4.957 1.52 4.957 4.517v22.627c0 2.278.72 5.277 4.237 3.757 13.432-3.757 23.306-10.553 27.544-21.107 6.356-15.83-.68-27.103-15.511-35.418z" fill="#ff8e64" fill-rule="evenodd" fill-opacity="1" stroke="none"/><path d="M51.889 29.782c0 9.034 0 19.588-.72 26.384.72-.76.72-.76.72-1.52.72 3.039.72 5.278-.72 8.316 0 2.238-2.119 4.517-4.237 4.517-.68 0-1.4-.76-1.4-.76.72.76.72 1.52.72 1.52.68.76.68.76 1.4.76 0 0 .719-.76.719-1.52 7.075-3.038 7.755-16.59 7.755-23.386 0-4.517 0-8.275 1.44-12.032.679-2.28.679-5.277 2.797-6.796 1.44-.76 4.957-2.279 7.076-1.52-4.237-6.036-15.55-5.276-15.55 6.037zm-12.713-6.796C25.704 28.263 17.23 37.337 16.51 53.168c-.72 8.275.72 15.07 3.558 20.347 2.798 4.518 9.194 5.997 9.194-2.278V59.164c-.72-1.479-1.439-2.998-2.118-4.517-.72-1.48-2.12-3.758-2.12-5.277 0-1.479 1.4-3.758 2.12-5.277 2.118-2.998 6.356-6.756 9.874-6.756 1.439 0 3.557.76 4.277 2.239 1.4 2.279.68 3.758 1.4 6.036l1.398 8.275V26.024c0-1.519-.68-5.277-4.917-3.038z" fill="#ff6b49" fill-rule="evenodd" fill-opacity="1" stroke="none"/><path d="M49.09 76.434c.72-1.52.72-3.038.72-5.277 0-2.998 2.119-5.237 2.119-8.275h-.68c0 2.279-2.159 4.517-4.277 4.517-.72 0-.72-.76-1.44-.76.72 1.52 1.44 2.28 1.44 3.758 1.439 2.999 1.439 6.756 0 9.754 1.439-.72 1.439-2.238 2.118-3.717z" fill="#ff6b49" fill-rule="evenodd" fill-opacity="1" stroke="none"/><path d="M51.209 86.228c-1.44 0-2.838 0-4.957-.76-2.119 0-4.917-1.519-6.356-2.998-2.119-3.798-.68-8.275-1.4-12.073V81.71c0 1.48 0 8.995 9.155 8.995 5.677 0 8.475-2.239 9.195-5.237.68-2.278.68-4.517.68-6.796 0 3.038-3.519 6.796-6.317 7.556zM68.199 68.958c0-3.758 0-6.756-.72-10.513 0-3.039-.68-5.277-2.838-7.556v.76c0 .76.72 1.519.72 3.038v32.34c0 8.235 8.474 6.756 8.474.72V81.75c-4.917-1.519-5.636-8.275-5.636-12.792zM84.429 71.237c-.72-1.52-1.4-2.279-2.838-2.279 2.118 3.038 0 11.313 0 17.35 0 3.757 2.118 6.796 4.237 7.515 3.518 0 3.518-3.758 3.518-5.996v-3.798h-.68c-4.957-2.239-2.838-8.275-4.237-12.792zM73.795 50.89c-1.399-1.52-2.118-3.039-2.118-4.558-4.957-1.48-2.839-12.033-2.839-18.07 0-4.516-3.518-7.555-7.035-8.314-1.44 1.519-2.12 3.038-3.558 4.557-.72.72-.72 5.277-.72 6.756 2.838-5.277 4.278-4.517 5.677-2.239 2.118 2.24.72 6.037 1.399 9.035 0 2.279.72 6.036 1.439 8.275.68 2.279 1.4 3.038 2.798 4.557 1.44 1.48 2.119 3.758 3.558 5.277.68 1.48 2.119 1.48 3.518 2.998 2.119 2.998 1.4 5.277 0 8.275 2.838-2.239 3.518-8.275 1.4-12.033-.68-1.519-2.12-3.038-3.519-4.517zM108.334 33.46c.72 4.517 1.4 9.034 1.4 13.552 0 2.278.72 5.276 1.399 7.555v7.515c.72-2.238.72-3.757 1.439-5.996V30.462c0-3.039.68-14.352-11.313-14.352H89.266c-13.432 0-11.993 12.832-11.993 12.832s1.4 7.516 0 12.793l1.4 1.519c1.398-2.998 2.838-5.277 3.517-9.035 0-3.757.72-7.555 2.838-9.794 3.518-3.038 9.874-1.519 13.432-1.519 5.637.76 8.475 4.517 9.874 10.554zM112.612 95.262c3.558 0 6.396-.72 8.515-1.479.68-2.278 0-5.277 0-6.796.68-2.278.68-4.517-.72-6.036-.72-1.52-2.119-2.239-3.518-2.998h-.72v3.757c-.719 1.52-1.439 2.999-2.118 3.758-1.44 2.279-5.677 2.279-8.515.76-2.798-2.239-3.518-6.037-4.237-9.035-.68-6.036-1.4-12.832-1.4-18.868l-.72 1.519c0 7.555-.719 15.83-.719 23.386 0 2.238 0 12.032 14.152 12.032zM143.033 51.649c0-.76.72-1.52 1.4-3.038v-3.758c0-3.798 0-23.426-12.033-24.945-12.033-.76-10.594 18.149-10.594 23.426 0 2.998 0 5.277-.72 7.555l1.44 2.239c1.399-6.796.68-24.146 10.593-21.867 3.558.76 6.396 3.758 7.796 6.796 1.399 3.758 2.838 9.034 2.118 13.592z" fill="#ff6b49" fill-rule="evenodd" fill-opacity="1" stroke="none"/><path d="M126.124 32.78h2.838c2.079 0 2.079.76 3.518 2.239 2.078 3.757 1.399 5.277 0 8.994 2.078-1.479 2.798-2.998 3.478-5.996 0-2.998 2.118-4.477 4.917-2.239 1.399-3.757-6.317-7.515-9.115-7.515zM171.896 37.217c0-11.273-9.195-12.792-11.273-13.551-15.55-4.518-9.874 8.275-9.874 10.553.68 6.037 1.399 9.794 1.399 17.31l.72 5.996c0-2.998.679-5.996 1.399-8.994.68-3.798.68-7.556 2.118-10.554 1.4-3.758 4.238-2.998 6.316-.76 2.839 1.52 4.957 2.28 6.357 5.277 0 2.239.72 3.758 1.439 6.037 0 1.479-.72 4.517 0 5.996.68-.76.68-.76 1.399-1.48 0-4.516.68-9.034 0-15.83zM183.209 33.54c-2.119-1.52-2.119 1.519-2.119 2.998.72 11.313 2.839 18.069 1.4 23.346-.68 4.517-2.799 5.996-4.958 5.996v.76c1.44.76 4.957-.76 6.397-1.48 3.517-3.038 2.798-7.555 7.755-6.036 3.558.76 6.396 5.277 6.396 9.035-.72 1.479-1.44 2.998-2.159 4.517-.68 1.48-2.118 3.758-2.798 5.237 2.798-2.998 4.237-5.997 5.637-8.995 6.356-15.83-.68-27.103-15.551-35.378z" fill="#ff6b49" fill-rule="evenodd" fill-opacity="1" stroke="none"/><path d="M170.497 68.159c2.118 2.238 4.957 2.238 7.075 3.757 1.4 1.52 3.518 3.758 2.12 5.997 2.797-2.998 0-8.995-2.84-11.273v-.76c-2.118 0-4.237-2.239-4.956-9.034v-4.518c-2.798 6.037-6.356 12.073-1.4 15.83z" fill="#ff6b49" fill-rule="evenodd" fill-opacity="1" stroke="none"/><path d="M170.577 74.955c.72-1.52.72-3.758 2.118-4.518 1.44 0 2.159.76 2.879.76l-4.997-8.315c-1.44 0-2.879.76-3.598 2.279v21.107c0 2.238.72 5.237 4.317 3.757 1.4 0 3.558-.76 4.957-1.519-4.277-2.998-6.396-7.515-5.676-13.551zM151.508 79.512c0-2.239.68-3.758-.72-6.037-.719-1.479-1.439-2.998-2.838-4.517v-.76h-.72c-3.557 0-3.557-5.276-3.557-12.072 0-1.52.72-3.038.72-3.798-1.4 2.279-2.839 5.317-2.839 8.315-.72 3.038-.72 9.834 2.119 12.073 3.558 2.279 7.835 1.519 7.835 6.796z" fill="#ff6b49" fill-rule="evenodd" fill-opacity="1" stroke="none"/><path d="M147.19 94.463c8.476 0 10.594-5.997 10.594-9.754-2.118 2.998-4.917 4.517-8.474 4.517-4.238-.76-6.357-1.52-7.756-6.036a36.928 36.928 0 0 1-3.518-15.83c0-2.24-.72-5.997 0-9.035h-.72c0 6.796 0 15.83-.719 23.346 0 3.038-.72 12.792 10.594 12.792z" fill="#ff6b49" fill-rule="evenodd" fill-opacity="1" stroke="none"/><path clip-path="url(#a)" d="M5.397 49.41c-3.558 47.531 21.866 52.049 64.92 55.087 36.019 2.238 123.566 12.792 141.914-33.22 17.63-45.293-38.816-63.402-96.021-65.64C62.562 2.598 8.915 1.839 5.397 49.41" fill="none" stroke="#333" stroke-width="1.8388855px" stroke-linecap="round" stroke-linejoin="round" stroke-miterlimit="4" stroke-dasharray="none" stroke-opacity="1"/><path clip-path="url(#a)" d="M115.45 10.234c48.01 2.238 81.23 13.552 91.824 31.66 4.917 8.276 4.917 17.35.68 27.904-15.51 39.176-91.784 33.18-128.522 30.901l-9.195-.76c-25.424-2.238-44.493-3.757-54.367-15.83C10.194 77.313 8.075 66 9.514 50.169c0 0 0 0 0 0C13.032 7.956 57.525 7.197 115.45 10.235" fill="none" stroke="#fff" stroke-width="1.8388855px" stroke-linecap="round" stroke-linejoin="round" stroke-miterlimit="4" stroke-dasharray="none" stroke-opacity="1"/><path d="M115.45 77.953c5.717.76 6.396 4.517 6.396 8.235M145.752 67.48c5.756 3.037 6.476 7.515 6.476 11.272M175.494 65.88c5.716 4.557 6.396 6.076 4.997 11.353M44.213 65.88c4.957 5.317 2.838 9.075 2.838 12.073M70.277 44.853c2.839 6.036 7.796 9.074 8.515 14.351.68 3.758 0 6.796-3.558 9.794M90.745 34.3c3.598 0 5.757-1.52 5.757-5.358M130.321 44.053c3.518-.72 5.597-2.238 5.597-5.996" fill="none" stroke="#fff" stroke-width="1.0393701px" stroke-linecap="round" stroke-linejoin="round" stroke-miterlimit="4" stroke-dasharray="none" stroke-opacity="1"/><path d="M79.472 18.389c-4.238 4.517-3.558 10.553-3.558 11.313.72 2.998 1.44 12.073-1.4 15.07 0 0-.679.76-1.398.76-.72 0-1.4-.76-2.119-.76-1.4-2.278-1.4-7.555-.72-12.072v-4.517c0-6.796-4.917-9.794-9.874-9.794-2.838 0-4.957.76-7.035 2.238-2.12 2.28-2.839 5.277-2.839 9.075l-.72 33.18c0 1.479-1.398 2.998-2.797 2.998-.72 0-2.12 0-2.12-3.758 0 0 .68-20.347.68-36.218 0-2.238-1.399-3.757-2.118-4.517-1.4-.76-2.799-.76-4.917 0-14.831 6.036-22.587 16.59-23.306 31.66-.72 8.316.72 15.112 4.237 21.148 1.4 2.998 4.957 5.277 7.756 4.517 1.439-.76 3.557-2.278 3.557-7.555V52.328c0-1.519.68-3.038 2.799-3.038 1.399 0 2.838 1.52 2.838 3.038l.68 29.382c0 6.796 3.557 10.554 10.593 10.554 9.874 0 11.993-7.515 11.993-9.034l-.68-28.663c0-2.239 1.4-4.517 2.799-4.517.72 0 1.439 2.278 2.118 4.517v32.42c0 2.279.72 3.798 1.44 5.277 1.399 1.52 2.118 2.279 4.237 2.279 2.798 0 5.636-3.038 5.636-6.796l-.72-12.073v-.76c0-1.479 0-3.757 1.4-5.276.72 0 1.44-.72 2.838-.72 1.4 0 1.4.72 1.4.72 1.439 1.519 1.439 6.796.719 10.553l-.72 6.037c0 4.557 2.12 7.555 5.677 8.315 1.4.76 2.798 0 3.518-.76.72-.76 1.399-2.998 1.399-6.036 0-6.796-.68-15.071-.68-22.626-.72-8.275-1.439-15.83-.72-20.348 0-6.796 2.12-9.035 3.519-9.035 3.518 0 4.957 4.518 4.957 8.275.68 4.518 0 15.071 0 25.625L97.1 82.47c0 5.277 1.4 8.315 2.838 9.794 2.799 3.038 7.036 4.517 12.713 4.517 14.79 0 16.91-11.273 16.91-15.83l.719-33.18c0-1.48 1.4-2.998 2.838-2.998 1.4 0 2.799 1.519 2.799 2.998l-.68 33.94v.759c0 2.279 0 6.796 2.798 9.794 2.12 2.279 4.957 3.798 9.195 3.798 4.237 0 7.036-1.52 9.154-3.798 3.518-2.998 3.518-8.275 3.518-10.554l-.68-18.069c0-1.519 1.4-3.038 2.799-3.038 1.439 0 2.119 0 2.119.76.72.76 1.439 1.519 1.439 2.278v22.587c0 1.519 0 3.797 2.118 5.277.68 0 2.12.76 4.238 0 14.79-4.518 23.985-12.033 28.223-21.867 1.399-3.758 2.118-7.516 2.118-11.313 0-10.554-5.636-19.588-18.348-26.384-1.44-.76-2.12-.76-2.839 0-1.399.76-1.399 3.797-1.399 4.517l.68 12.073c.72 4.517 1.439 8.315.72 10.553-.72 5.277-2.12 5.277-4.238 5.277-.68 0-2.798 0-3.518-7.515-.72-3.798 0-6.037 0-9.795v-9.834c-.72-11.313-9.194-14.31-11.993-15.07h-.72c-4.916-1.52-8.474-1.52-10.593.76-2.798 2.997-1.4 7.555-1.4 10.553l.72.76.68 5.276c0 4.517.72 8.275 0 15.83v2.28c0 3.757 0 9.034-2.798 9.034h-.72c-1.399-1.52-1.399-6.037-1.399-10.554l.68-11.313c0-4.517 0-24.865-13.392-26.384-2.839 0-5.637.76-7.756 2.998-4.957 4.517-4.957 15.07-4.237 20.388v1.479c-.72 21.867-.72 28.662-1.44 30.941 0 .72-.679 1.48-1.398 2.239h-2.119c-.68 0-1.4-.76-1.4-.76-.719-.76-.719-2.239-.719-2.998.72-3.758.72-30.901.72-42.214 0-3.039 0-8.315-3.518-12.073-2.119-2.279-4.957-3.798-9.194-3.798H89.346c-4.238 0-7.755 1.52-9.874 3.798zm-2.119 27.903c3.518-4.517 2.119-15.83 1.4-17.35 0 0 0-5.276 2.838-8.315 1.399-2.238 4.237-2.998 7.755-2.998h11.993c3.517 0 5.636.76 7.755 2.998 2.119 2.28 2.119 7.556 2.119 9.075 0 24.105 0 39.936-.68 42.974 0 1.519 0 2.998.68 4.517 1.439 1.52 2.118 2.279 4.237 2.279 1.44.72 2.838 0 4.237-.76 1.4-.76 2.12-2.278 2.12-3.797.719-3.758.719-13.552 1.398-31.661v-1.48c-.68-4.557-.68-14.35 3.558-18.868 1.4-.76 2.798-1.519 5.637-1.519 10.593.76 10.593 19.628 10.593 23.386l-.72 10.553c0 6.037 0 10.554 2.12 12.833.72 1.479 2.118 1.479 2.838 1.479 4.917 0 5.636-6.756 5.636-12.033v-2.279c.72-7.555 0-12.072 0-16.59l-.72-4.517-.679-1.519c0-2.238-1.439-6.036 0-7.515 1.4-1.52 4.238-1.52 8.435 0h.72c2.838.72 9.874 2.998 9.874 12.032v9.834c0 2.999-.68 5.997 0 9.795 0 4.517 1.439 10.553 6.356 10.553 4.237 0 5.636-2.278 7.076-7.555v-3.758c0-2.279 0-4.517-.72-8.315l-.72-11.313v-2.239h.72c14.831 9.035 19.748 20.348 14.831 33.94-4.237 9.794-13.432 16.59-26.824 20.347-1.399.76-2.118.76-2.118 0-.72 0-.72-1.519-.72-2.278V63.64c0-2.278-.68-3.797-2.119-4.557-.68-.76-2.798-1.479-4.237-1.479-1.4 0-2.798.72-3.518 1.48-1.4 1.518-2.119 3.037-2.119 4.556l.72 18.07c0 2.278 0 6.036-2.838 9.074-1.4 1.48-3.518 2.239-7.036 2.239-3.558 0-5.677-.76-7.076-2.239-2.119-2.279-2.119-6.036-2.119-8.315v-.76l.72-33.939c0-2.998-2.838-5.996-5.637-5.996-3.558 0-5.676 2.998-5.676 5.996l-.68 33.18c0 4.557-2.119 12.832-14.111 12.832-4.957 0-8.475-1.519-10.594-3.758-1.439-1.519-2.119-3.797-2.119-6.795l.68-13.592c0-10.554.72-21.107 0-26.384-.68-9.035-4.917-10.554-7.755-10.554-2.119 0-6.356 1.52-6.356 12.073-.68 4.517 0 12.073.72 20.348 0 7.555.719 15.83.719 22.626 0 3.038-.72 3.758-.72 3.758l-.72.76c-2.118-.76-3.517-3-3.517-6.037l.72-6.037c.679-5.276 1.398-9.794-1.44-12.792-.68-.76-2.119-1.519-3.518-1.519-2.118 0-3.518.76-4.917 2.279-2.118 1.479-2.118 4.517-2.118 6.756v.76l.68 12.072c0 2.278-1.4 3.758-2.8 3.758-.719 0-1.438-.72-2.118-1.48-.72-.76-.72-1.519-.72-3.038v-32.42c-.719-2.239-.719-3.758-1.399-5.277-.72-1.519-2.118-2.239-4.237-2.239-2.838 0-4.957 4.518-4.957 7.516l.72 28.663s-1.44 6.036-9.195 6.036c-4.917 0-7.755-2.279-7.755-7.556l-.72-29.382c0-3.038-2.798-6.036-5.636-6.036-3.518 0-5.637 2.998-5.637 6.756v18.109c0 1.519 0 3.758-1.4 4.517-1.438 0-3.557-.76-4.956-2.998-2.838-5.277-4.238-11.313-3.518-19.628.68-13.552 7.036-22.586 21.147-28.623 1.44-.76 2.119-.76 2.839-.76 0 .76.72 1.52.72 2.24 0 15.87-.72 36.217-.72 36.217 0 3.758 2.118 6.796 4.957 6.796 3.517 0 5.636-3.038 5.636-6.036l.72-33.18c0-3.038.68-5.277 2.078-6.796 1.44-.76 2.839-1.519 4.957-1.519 3.518 0 7.076 2.279 7.076 6.796V32.7c-.72 5.277-.72 10.554 1.4 13.592 1.398 1.479 2.838 2.239 4.237 2.239s2.798-.76 4.237-2.24zM183.93 31.94z" fill="#ff9f61" fill-rule="evenodd" fill-opacity="1" stroke="none"/><path d="M79.512 18.429c-4.238 4.517-3.518 10.553-3.518 11.313.72 2.998 1.4 12.073-1.4 15.07 0 0-.719.76-1.438.76-.68 0-1.4-.76-2.12-.76-1.398-2.278-1.398-7.555-.679-12.072v-4.517c0-6.796-4.957-9.794-9.914-9.794-2.798 0-4.917.76-7.035 2.238-2.12 2.28-2.839 5.277-2.839 9.075l-.68 33.18c0 1.479-1.438 2.998-2.838 2.998-.72 0-2.118 0-2.118-3.758 0 0 .72-20.347.72-36.218 0-2.238-1.44-3.757-2.12-4.517-1.439-.76-2.838-.76-4.956 0-14.831 6.036-22.587 16.59-23.306 31.66-.72 8.316.72 15.112 4.237 21.148 1.4 2.998 4.957 5.277 7.755 4.517 1.44-.76 3.558-2.278 3.558-7.555V52.368c0-1.519.68-3.038 2.799-3.038 1.439 0 2.838 1.52 2.838 3.038l.72 29.382c0 6.796 3.517 10.554 10.593 10.554 9.874 0 11.993-7.515 11.993-9.034l-.72-28.663c0-2.239 1.4-4.517 2.838-4.517.68 0 1.4 2.278 2.12 4.517v32.42c0 2.279.679 3.798 1.398 5.277 1.4 1.52 2.12 2.279 4.238 2.279 2.838 0 5.636-3.038 5.636-6.796l-.68-12.073v-.76c0-1.479 0-3.757 1.4-5.276.72 0 1.4-.72 2.838-.72 1.4 0 1.4.72 1.4.72 1.399 1.519 1.399 6.796.719 10.553l-.72 6.037c0 4.557 2.12 7.555 5.637 8.315 1.44.76 2.838 0 3.558-.76.68-.76 1.399-2.998 1.399-6.036 0-6.796-.72-15.071-.72-22.626-.68-8.275-1.399-15.83-.68-20.348 0-6.796 2.12-9.035 3.519-9.035 3.518 0 4.957 4.518 4.957 8.275.68 4.518 0 15.071 0 25.625l-.72 12.832c0 5.277 1.4 8.315 2.838 9.794 2.799 3.038 7.036 4.517 12.673 4.517 14.83 0 16.95-11.273 16.95-15.83l.719-33.18c0-1.48 1.4-2.998 2.838-2.998 1.4 0 2.799 1.519 2.799 2.998l-.68 33.94v.759c0 2.279 0 6.796 2.798 9.794 2.119 2.279 4.957 3.798 9.195 3.798 4.237 0 7.035-1.52 9.154-3.798 3.558-2.998 3.558-8.275 3.558-10.554l-.72-18.069c0-1.519 1.4-3.038 2.839-3.038 1.399 0 2.118 0 2.118.76.68.76 1.4 1.519 1.4 2.278v22.587c0 1.519 0 3.797 2.118 5.277.72 0 2.119.76 4.238 0 14.83-4.518 24.025-12.033 28.223-21.867 1.439-3.758 2.118-7.516 2.118-11.313 0-10.554-5.636-19.589-18.349-26.384-1.399-.76-2.118-.76-2.798 0-1.439.76-1.439 3.797-1.439 4.517l.72 12.073c.72 4.517 1.399 8.315.72 10.553-.72 5.277-2.12 5.277-4.238 5.277-.72 0-2.839 0-3.558-7.515-.68-3.798 0-6.037 0-9.795v-9.834c-.68-11.313-9.155-14.31-11.993-15.07h-.72c-4.916-1.52-8.474-1.52-10.553.76-2.838 2.997-1.44 7.555-1.44 10.553l.72.76.72 5.276c0 4.517.68 8.275 0 15.83v2.28c0 3.757 0 9.034-2.838 9.034h-.72c-1.399-1.52-1.399-6.037-1.399-10.554l.72-11.313c0-4.517 0-24.865-13.432-26.384-2.839 0-5.637.76-7.756 2.998-4.957 4.517-4.957 15.07-4.237 20.388v1.479c-.72 21.867-.72 28.662-1.44 30.941 0 .72-.679 1.48-1.398 2.239h-2.119c-.72 0-1.4-.76-1.4-.76-.719-.76-.719-2.239-.719-2.998.72-3.758.72-30.901.72-42.214 0-3.039 0-8.315-3.558-12.073-2.119-2.279-4.917-3.798-9.154-3.798H89.426c-4.238 0-7.795 1.52-9.914 3.798" fill="none" stroke="#333" stroke-width="1.0393701px" stroke-linecap="round" stroke-linejoin="round" stroke-miterlimit="4" stroke-dasharray="none" stroke-opacity="1"/><path d="M183.289 33.5c-2.119-1.52-2.119 1.519-2.119 3.038.68 11.273 2.799 18.069 1.4 23.346-.72 4.517-2.839 6.036-5.637 6.036-2.119 0-4.238-1.519-4.957-9.034-.72-6.796.72-10.554 0-19.629 0-11.273-9.195-12.792-11.313-13.551-15.55-4.518-9.874 8.275-9.874 10.553.68 7.556 1.399 11.313.68 21.107 0 6.037 0 12.833-4.238 12.833-3.518 0-3.518-5.277-3.518-12.073.72-3.758.72-7.555.72-11.313 0-3.758 0-23.386-12.033-24.865-11.993-.76-10.594 18.069-10.594 23.346-.68 13.592-.68 27.143-1.399 30.901 0 3.038-2.838 4.557-4.957 3.798-2.119 0-4.237-3.038-3.518-5.277.68-3.038.68-23.386.68-42.214 0-3.039.72-14.352-11.273-14.352H89.306c-13.392 0-11.993 12.832-11.993 12.832s2.838 18.11-4.237 18.11c-7.076 0-4.238-12.073-4.238-18.87 0-11.312-16.95-12.072-16.95 1.52 0 14.311-.719 31.66-.719 33.18 0 2.239-2.119 4.517-4.237 4.517-2.12 0-3.518-2.278-3.518-5.277 0 0 .68-20.347.68-36.178 0-1.519-.68-5.277-4.918-3.038C25.744 28.223 17.27 37.257 16.55 53.088c-.72 8.315.72 15.11 3.518 20.387 2.838 4.518 9.194 5.997 9.194-2.278V52.368c0-2.278 1.44-4.557 4.238-4.557 2.118 0 4.237 2.279 4.237 4.557 0 7.516.72 21.107.72 29.382 0 1.52 0 9.035 9.194 9.035 9.155 0 10.594-7.515 10.594-7.515 0-8.315 0-19.629-.72-28.663 0-2.998 1.4-6.036 4.238-6.036 2.118 0 2.838 3.038 3.517 6.036v32.42c0 8.275 8.515 6.796 8.515.76 0-5.277-.72-12.073-.72-12.073.72-2.998 0-8.275 5.637-8.275 6.356 0 2.839 11.313 2.839 18.829 0 3.757 2.118 6.796 4.237 7.555 3.518 0 3.518-3.798 3.518-6.036 0-13.592-2.119-34.7-1.4-42.974 0-7.556 2.839-10.554 4.958-10.554 2.798 0 5.636 1.52 6.356 9.794 1.399 6.796-.72 25.625-.72 39.217 0 2.238 0 12.032 14.112 12.032 14.87 0 15.55-11.273 15.55-14.311 0-12.073.72-27.144.72-33.18 0-2.239 2.119-4.517 4.237-4.517 2.119 0 4.238 2.278 4.238 4.517 0 6.796 0 21.867-.72 33.94 0 2.998-.68 12.832 10.594 12.832 12.032 0 10.593-11.313 11.313-13.592 0-5.277 0-11.313-.72-17.35 0-2.238 2.12-4.517 4.238-4.517 2.838 0 4.957 1.52 4.957 4.517v22.627c0 2.278.72 5.277 4.237 3.757 13.432-3.757 23.306-10.553 27.544-21.107 6.356-15.83-.68-27.103-15.511-35.418" fill="none" stroke="#fff" stroke-width="1.0393701px" stroke-linecap="round" stroke-linejoin="round" stroke-miterlimit="4" stroke-dasharray="none" stroke-opacity="1"/></svg>