<svg xmlns="http://www.w3.org/2000/svg" version="1.0" viewBox="0 0 268.951 132.019"><defs><clipPath clipPathUnits="userSpaceOnUse" id="a"><path d="M6.556 14.871h268.637v132.08H6.556z"/></clipPath></defs><path clip-path="url(#a)" d="M133.12 18.629c-19.269-1.8-118.05-16.99-124.765 64.2-6.716 81.192 93.783 63.362 140.675 54.448 46.891-8.915 114.73 17.829 123.925-46.412 8.355-54.407-78.713-68.678-139.836-72.236z" fill="#6cac69" fill-rule="evenodd" fill-opacity="1" stroke="none"/><path clip-path="url(#a)" d="M25.065 123.845c-9.235-8.915-13.432-22.307-11.753-41.015 1.679-16.95 7.555-31.221 18.429-40.136 25.984-23.226 73.715-22.306 93.823-19.628l7.555.88c35.179 2.678 107.215 12.472 129.002 41.015 5.877 7.155 7.516 15.19 5.877 24.984-5.877 41.056-38.537 41.056-75.395 40.136-15.11-.88-31.02-.88-44.413 1.8-28.463 5.356-95.502 18.708-123.125-8.036z" fill="#c2ddb7" fill-rule="evenodd" fill-opacity="1" stroke="none"/><path d="M247.13 62.242c-1.679-1.759-6.716-1.759-5.876 2.679-.84 5.356 0 12.512.84 16.95.839 6.276 3.357 18.748-4.198 20.547-6.676 2.678-4.198-20.548-4.198-30.342 0-7.155-.84-14.271-3.318-19.628-.84-.92-5.037-3.598-5.876-4.477-6.716-2.678-12.592-4.477-16.75-5.357-4.197-.88-5.876 5.357-6.716 7.156-1.679 7.116-2.518 16.95-2.518 27.663 0 8.915-8.395 9.794-9.235.88 0-7.156 0-31.222-2.518-35.699v-.88c-6.676-5.356-26.784-7.155-25.944 1.76 0 15.19 2.478 39.296 1.639 49.09 0 8.914-3.318 11.593-5.837 12.512-2.518 0-5.876-1.799-7.555-11.593-.84-8.035.84-29.462 1.679-44.653 0-2.678 0-12.472-16.75-14.271-18.469-1.799-17.63 8.035-17.63 12.512-.839 13.392-.839 34.78-.839 41.935 0 2.678-2.479 5.357-4.997 5.357s-5.037-2.679-5.037-5.357c0-8.035 0-31.221.84-44.613 0-3.598 1.679-14.311-12.593-14.311-13.392 0-11.713 12.512-11.713 15.19-.84 6.237-.84 18.75 0 24.985 0 3.558-2.518 5.357-5.037 6.237-2.518 0-5.037-2.679-5.037-5.357-.84-7.995-1.679-19.628-1.679-28.543 0-.88-.84-10.713-8.355-8.914-2.518 1.759-5.876 2.678-9.234 4.437-.84.92-5.037 4.477-5.037 8.035-.84 3.598-.84 8.035-.84 14.311 0 10.674-.839 15.151-4.157 14.272-2.518 0-2.518-24.106-7.555-21.427-.84 0-.84.88-1.68.88-5.036 7.155-9.234 16.07-10.913 27.662-1.679 22.307 8.395 30.342 18.47 35.699 12.552 7.155 11.712-18.709 12.552-24.066 1.679-6.276 3.358-7.155 6.715-7.155 2.519 0 5.037 1.799 5.877 10.713.84 7.116-.84 12.473-.84 21.427.84 13.392 10.874 15.151 13.392 16.07 17.59 5.317 11.753-27.703 11.753-29.462-.84-8.914-1.679-13.392-1.679-24.985.84-6.276.84-14.31 4.997-14.31 5.037 0 4.198 6.275 4.198 14.31v12.473c0 4.477-.84 26.784 13.431 28.583 14.232.879 12.553-21.427 12.553-27.664 0-15.19 0-30.341.84-34.819.839-2.678 3.357-5.356 5.876-4.477 2.518.92 5.037 3.598 4.197 6.276-.84 3.558-.84 26.744-.84 49.05 0 2.679-.839 16.07 12.553 16.07h14.272c15.07 0 13.391-15.15 13.391-15.15s-2.518-20.547 5.037-20.547c7.516 0 5.037 13.391 5.037 21.427.84 8.035 1.64 9.834 8.355 11.593 2.519.919 5.877.919 10.914 0 .84 0 5.836-2.679 6.676-4.438 2.518-4.477 3.358-10.713 3.358-16.07 0-8.915-5.837-34.819.839-35.698 5.876-1.8 9.234 8.035 9.234 17.829 0 6.276 0 21.427 2.519 30.341.84 1.8 5.876 4.478 7.515 3.598 15.95-5.357 22.667-18.748 23.466-33.94 0-9.793-4.157-16.949-10.034-22.306z" fill="#fcbec5" fill-rule="evenodd" fill-opacity="1" stroke="none"/><path d="M247.81 60.403v.24h.24v-.24h-.24z" fill="#fb9081" fill-rule="evenodd" fill-opacity="1" stroke="none"/><path d="M33.42 111.333s.84.879.84 1.758c0-.879 0-1.758-.84-1.758zm36.897-68.679c0-.88-.84-10.713-8.395-8.914-2.518 1.798-5.876 2.678-9.234 4.477-.84.88-5.037 4.437-5.037 7.995-.84 3.598-.84 8.035-.84 14.271 0 2.679-.799 4.478-.799 6.237l.8-.88c1.679-6.236 6.716-14.271 14.271-13.352 5.037.88 7.555 6.236 8.395 10.674.84 0 1.639-.88 1.639-1.76 0-6.275-.8-13.391-.8-18.748zM35.1 53.368c-.84 0-.84.88-1.68.88-5.036 7.155-9.234 16.07-10.913 27.662v3.558c0 .88 0 1.8.84 2.679.84 3.557.84 8.914 1.679 13.351.84 1.8 1.679 3.598 2.518 4.478 1.68 1.799 5.037 3.558 5.877 5.357-2.519-9.835-4.198-24.985 4.197-30.342 1.68-.88 3.358-.88 4.198-2.678v-4.438c-1.68-3.558-2.519-23.186-6.716-20.507z" fill="#fa9baa" fill-rule="evenodd" fill-opacity="1" stroke="none"/><path d="M40.096 106.016c-5.037 4.477-14.272-3.558-14.272-8.875-.84 2.679-.84 4.437-.84 7.116 3.359 7.115 9.235 10.673 15.112 14.231 12.592 7.116 11.753-18.668 12.592-24.905.84-1.799.84-2.678 1.679-4.477-3.358.92-5.876 2.678-8.395 5.357-2.518 3.558-3.358 8.914-5.876 11.553zm50.33 8.914c-4.158 1.76-6.677 6.237-11.714 5.317-3.358 0-6.716-2.638-8.395-6.196-2.518-7.116 1.68-17.79-5.876-23.146 0 1.759.84 3.558.84 6.236.839 7.116-.84 12.433-.84 22.227.84 12.472 10.913 14.231 13.432 15.11 12.552 3.558 13.392-9.754 12.552-19.548zM93.743 30.102c-13.432 0-11.753 12.472-11.753 15.15-.84 3.558-.84 10.714-.84 16.03l1.68 7.117c.84-7.116-2.519-21.348 8.395-23.146 10.074-1.76 4.197 14.27 3.358 19.588 4.197-1.76 5.037-6.237 6.716-10.674 1.679-4.437 4.997-10.673 4.997-16.03-1.64-4.437-4.158-8.035-12.553-8.035zM108.814 102.418c0 6.236-3.358 5.357-6.716.88-2.518-4.438-2.518-10.674-4.197-16.03v5.356c0 1.759 0 6.236.84 11.593.839 2.678 1.678 6.236 2.518 8.035 2.518 4.437 9.234 10.674 13.431 5.357 6.716-7.156-2.518-16.07-6.715-21.427.84 1.799.84 3.558.84 6.236zm39.456-60.643c-1.679-3.598-5.876-6.277-14.271-7.156-18.469-1.799-17.63 8.035-17.63 12.512-.839 13.352-.839 34.78-.839 41.895 0 .92 0 1.799-.84 2.678 5.037-2.678 6.716-12.472 7.556-16.95 0-7.994-1.68-14.27.84-21.386 2.518-6.237 8.394-13.392 15.95-11.593 6.716 1.759 10.074 16.03 8.395 22.306 2.478-7.156 3.318-16.07.84-22.306zm-40.295 51.728v.88l.84-.88h-.84zm-.84.88s.84.92.84 1.799v-1.8h-.84zM186.727 42.694v-.88c-6.716-5.356-26.824-7.155-26.024 1.8 0 15.15 2.518 39.256 1.679 49.05 0 8.914-3.318 11.593-5.837 12.512-.84 0-1.679-.92-2.518-.92 5.037 3.599 13.392-5.316 14.231-9.793 1.679-8.915 0-16.95 0-25.865 0-6.276.84-18.748 10.074-19.628 6.716 0 9.234 11.593 10.873 16.95-.84-8.955-.84-20.547-2.478-23.226zm-35.219 61.563c-2.518-3.558-2.518-6.236-1.679-8.915-.84 0-.84-.88-.84-1.759v-6.276c-2.518 3.598-1.678 11.633-.839 15.19.84 4.438 3.358 14.272-2.518 15.152-3.358.92-8.395-1.76-11.753-5.357 0 2.678.84 6.276 3.358 9.834 3.358 1.759 8.395 1.759 14.271.88 5.877 0 10.034-1.76 7.556-9.795-1.68-4.477-5.877-6.276-7.556-8.954zM201.798 47.131c0 .88-.84 1.8-.84 2.679-1.679 7.115-2.518 16.95-2.518 27.663 0 6.236-3.318 7.995-5.837 6.236l-.84.88c-.839 5.356 0 9.834-1.678 15.15 1.679-1.758 2.518-4.437 4.197-6.236 1.68-1.759 4.158-1.759 5.837-3.558 4.197-3.557 5.037-9.794 5.037-16.07 0-4.437-.84-10.673 3.318-14.271 5.037-4.437 6.676.92 6.676 6.276 6.676 1.759 5.037-12.512 4.197-16.07 0-.88-.84-2.679-1.679-4.477-4.157-.88-7.515-1.76-10.034-2.679-1.679.92-4.157 2.679-5.836 4.477zM247.13 62.202c-1.679-1.799-6.676-1.799-5.836 2.679-.84 5.356 0 12.512.84 16.99.839 6.236 3.317 18.748-4.198 20.547-.84.88-1.68 0-2.519-.92 1.68 4.478 0 8.955-3.358 10.714 6.716-2.678 13.392-7.116 15.91-14.271.84-2.679-.839-6.237.84-9.834 2.519-5.357 3.358.919 6.716 0h.84c.8-.88.8-2.679.8-3.558 0-9.834-4.158-16.99-10.035-22.347zM198.48 116.77c-7.516 2.678-12.553-1.8-13.392-8.915h-.84v3.557c.84 8.036 1.68 9.835 8.395 11.593 2.479.88 5.837.88 10.034 0h1.64c2.518-.879 5.876-2.678 5.876-4.437 2.518-4.477 3.318-10.713 3.318-16.07 0-2.678-.8-8.035-1.64-14.271-.839-.92-1.678-2.679-2.518-3.598 3.358 9.834 0 29.462-10.873 32.14z" fill="#fa9baa" fill-rule="evenodd" fill-opacity="1" stroke="none"/><path d="M41.015 77.393c3.318-1.799 8.315.92 9.994 4.477 2.519 4.478 0 8.955-.84 13.392 4.158-10.713-9.154-16.95-17.509-17.869zM58.644 48.05c2.519 4.438 4.198 8.915 4.198 14.232 0 3.558-.84 7.156.8 11.593 2.518 6.236 8.354 8.915 9.993 16.91 3.318-7.995 0-12.472-1.639-19.588-1.679-4.437-2.518-7.995-2.518-12.473-.84-4.437-2.479-7.115-3.318-11.593z" fill="#fa9baa" fill-rule="evenodd" fill-opacity="1" stroke="none"/><path d="M190.884 83.59c2.479 6.355 0 11.752 0 15.35M233.738 99.74c3.278 7.155.8 11.593-1.679 12.472M214.39 66.8c3.358-1.8 5.837-1.8 5.837-7.196M71.916 72.956c5.837 6.276 3.358 10.753 3.358 14.311M106.296 92.624c3.398 7.156 10.113 10.753 10.113 16.11.84 5.357 0 8.955-4.197 12.513M150.749 100.619c3.358 7.156 9.194 10.714 9.994 16.95M42.654 74.795c4.158 2.678 12.473 2.678 10.834 18.628M93.743 65.92c3.358.88 5.037-1.799 5.837-4.477" fill="none" stroke="#fff" stroke-width=".79951543px" stroke-linecap="round" stroke-linejoin="round" stroke-miterlimit="4" stroke-dasharray="none" stroke-opacity="1"/><path clip-path="url(#a)" d="M133.16 18.669c-19.269-1.8-118.05-16.99-124.765 64.2-6.716 81.192 93.783 63.362 140.675 54.448 46.891-8.915 114.73 17.829 123.925-46.412 8.354-54.407-78.713-68.678-139.836-72.236" fill="none" stroke="#333" stroke-width="1.6789824px" stroke-linecap="round" stroke-linejoin="round" stroke-miterlimit="4" stroke-dasharray="none" stroke-opacity="1"/><path clip-path="url(#a)" d="M25.105 123.885c-9.235-8.915-13.432-22.307-11.753-41.015 1.679-16.95 7.555-31.221 18.429-40.136 25.984-23.226 73.715-22.306 93.823-19.628l7.555.88C168.338 26.663 240.374 36.457 262.161 65c5.877 7.155 7.516 15.19 5.877 24.984-5.877 41.056-38.537 41.056-75.395 40.136-15.11-.88-31.02-.88-44.413 1.799-28.463 5.357-95.502 18.709-123.125-8.035" fill="none" stroke="#fff" stroke-width="1.6789824px" stroke-linecap="round" stroke-linejoin="round" stroke-miterlimit="4" stroke-dasharray="none" stroke-opacity="1"/><path d="M83.71 31.86c-3.359 4.478-3.359 9.835-3.359 12.513v.88c-.84 6.236-.84 18.748 0 25.024 0 1.76-.84 2.679-.84 2.679-.839.88-1.678 1.759-2.518 1.759-.84 0-1.679-.88-2.518-.88-.84-.88-.84-1.799-.84-2.678l-.84-8.035c0-7.156-.839-14.312-.839-20.548 0 0 0-6.236-3.358-8.914-1.679-1.8-3.318-2.679-6.676-1.8-3.357 1.8-6.715 2.68-10.073 4.478-1.68.88-5.037 6.236-5.877 8.915-.84 3.557-.84 8.914-.84 15.19 0 7.156-.839 11.593-1.678 12.513-.84 0-1.64-4.478-1.64-7.156-1.678-8.035-2.518-12.512-5.036-14.311h-2.519l-.84.92h-.839c-6.716 8.034-10.074 17.868-11.753 29.461-1.679 23.226 8.395 31.261 19.309 37.538 3.318 1.759 5.836 1.759 7.515.88 5.877-3.559 6.716-13.393 6.716-21.428l.84-5.357c1.679-5.356 3.358-5.356 5.036-5.356.84 0 3.358 0 4.198 8.914v10.714l-.84 11.633c.84 13.392 10.874 16.07 14.232 16.95h.84c4.197.879 7.555.879 10.073-1.8 6.676-6.236 4.158-23.225 3.318-28.582v-1.76l-.84-5.356c-.839-5.357-.839-9.834-.839-18.789l.84-1.758c0-5.357 0-10.714 2.518-10.714h1.68c.839 1.759.839 7.116.839 12.472v12.513c0 4.477 0 28.583 15.11 30.381 3.318 0 6.676-.879 8.355-3.557 5.877-5.357 5.877-16.99 5.877-23.226v-2.679c0-24.145.84-32.18.84-34.859.839-1.798 2.518-2.678 4.197-2.678.84 0 1.679.88 1.679 1.799.84.88.84 1.799.84 2.678-.84 4.478-.84 32.14-.84 49.13 0 2.679 0 8.915 3.358 13.392 2.518 2.679 6.676 4.478 10.873 4.478h14.272c4.996 0 9.194-1.8 11.712-5.357 4.198-4.477 3.358-11.633 3.358-11.633-.84-4.477-.84-14.271 1.68-17.87 0 0 .839-.879 1.678-.879 1.68 0 1.68.88 2.519.88 1.679 2.678 1.679 8.954.84 13.392v5.357c.839 8.954 1.678 11.632 9.194 13.431 3.358.88 6.716.88 11.753 0 1.679 0 7.515-2.678 8.355-5.356 2.518-5.357 3.358-13.432 3.358-16.99l-.84-10.714c-.84-7.155-3.358-23.226 0-23.226.84-.879 2.519 0 3.358.88 2.518 1.799 4.197 8.035 4.197 15.19 0 7.156 0 21.428 2.519 31.262.84.92 1.679 1.799 3.358 2.678 1.679.92 5.037 2.679 6.676 1.8 15.11-5.358 23.506-17.87 24.305-35.74 0-8.914-3.318-16.949-10.873-24.105-.84-.88-4.198-1.799-5.877-.88-.84.88-2.518 1.76-2.518 5.358-.84 5.356 0 13.392.84 16.95 1.678 8.035 2.518 17.869-2.52 18.748-.839.92-.839.92-.839 0-3.318-1.759-2.518-17.87-1.679-24.985v-3.598c0-8.035-.84-15.19-4.157-20.547-.84-.88-5.037-4.438-6.716-4.438-6.716-3.597-12.592-5.356-15.91-6.276-2.519 0-6.716 0-9.235 8.955-1.679 7.116-2.518 17.869-2.518 27.663 0 3.598-.84 5.357-2.519 5.357-1.679 0-2.518-1.76-3.358-5.357V67.6c-.84-12.512-.84-23.226-2.518-25.904 0 0 0-.92-.84-.92-4.997-4.437-19.268-7.115-25.144-3.558-2.479 1.8-4.158 3.558-3.318 6.237 0 7.155 0 16.99.839 25.904.84 8.955 1.679 17.87.84 23.226 0 7.156-2.519 9.834-4.198 10.713-3.358 0-5.037-5.356-5.876-9.794-.84-5.356 0-17.869.84-29.502l.839-15.19c0-5.357-2.519-14.272-18.43-16.07-7.555-.88-12.592 0-15.95 3.597-3.358 2.678-3.358 7.116-3.358 9.794l-.799 42.894c0 1.799-1.679 3.558-3.358 3.558s-3.358-1.759-3.358-3.558l.84-44.653v-.92c0-2.678 0-8.034-3.358-11.592-2.519-2.679-5.877-3.598-10.914-3.598-4.157 0-7.515.92-10.034 3.598zm-6.717 46.453c1.68 0 3.358-.92 5.037-2.679.84-1.799 1.68-3.598 1.68-5.357-.84-6.276-.84-18.788 0-25.024v-.88c0-1.799 0-7.156 2.518-9.834 1.679-1.799 4.157-2.678 7.515-2.678 4.198 0 6.716.88 8.395 2.678 2.519 2.678 2.519 6.236 2.519 8.915v.92l-.84 44.652c0 3.558 3.358 7.156 6.716 7.156s6.676-3.598 6.676-7.156l.84-42.894c0-1.759 0-5.357 1.678-7.116 2.519-2.678 7.556-3.597 14.272-2.678 6.676.88 15.07 3.558 15.07 12.472l-.839 15.191c-.84 12.513-1.679 24.146-.84 29.502 1.68 10.714 5.877 13.392 9.235 13.392 2.519-.92 7.516-1.799 7.516-14.311.839-5.357 0-14.271-.84-23.226-.84-8.915-.84-18.749-.84-25.904 0-.88 0-1.76 1.68-2.679 4.197-2.678 15.95-1.759 21.826 2.679.8 2.678 1.64 16.11 1.64 24.145v10.714c.839 5.356 4.197 8.035 6.715 8.035 3.358 0 5.877-2.679 5.877-8.955 0-9.794.84-19.628 2.518-26.784.84-4.477 2.519-6.236 5.037-6.236 3.318.88 9.195 2.678 15.91 5.357.84.88 4.198 3.558 5.037 3.558 2.519 4.477 3.358 11.633 3.358 18.748v3.598c-.84 13.392-.84 24.985 2.479 28.583.84 0 2.518.88 4.197 0 8.395-2.679 5.877-16.07 5.037-23.226-.84-3.598-1.679-10.714-.84-16.07v-1.8h2.52c6.715 6.237 10.073 13.393 10.073 20.548v.88c-.84 16.07-8.395 27.703-21.787 32.18-1.679 0-5.037-1.799-5.876-2.678-2.519-8.955-2.519-23.226-2.519-29.502 0-6.236-1.679-14.272-5.876-18.749-1.679-.88-3.358-1.799-5.876-.88-4.997.88-4.997 11.594-2.519 27.664l.84 9.834c0 3.558-.84 10.713-2.479 16.07-.84.92-5.037 2.679-5.876 2.679-5.037.919-8.395.919-10.914 0-5.876-1.76-5.876-2.679-6.676-9.834v-5.357c.8-5.357.8-12.473-1.679-15.151-1.679-1.799-3.358-2.678-5.037-2.678-1.679 0-3.358.879-4.197 2.678-4.198 5.357-2.519 17.83-2.519 19.628 0 0 .84 6.276-2.518 9.834-1.679 2.678-5.037 3.558-9.194 3.558H146.55c-3.358 0-5.876-1.759-8.355-3.558-2.518-3.558-2.518-8.035-2.518-10.713 0-27.704 0-45.573.84-49.13 0-1.8 0-3.598-.84-5.357-1.68-.92-2.519-2.679-4.198-2.679-4.197-.92-7.555 1.76-8.395 6.236 0 3.598-.84 15.191-.84 34.86v2.678c0 5.356 0 16.07-4.197 20.547-1.679 1.76-4.157 2.679-6.675 2.679-11.753-1.8-11.753-22.347-11.753-26.824V80.07c0-7.115 0-12.472-1.68-15.15-1.678-.92-2.518-.92-4.197-.92-5.836 0-5.836 7.156-5.836 14.312l-.84 1.758c0 8.955 0 13.432.84 18.79l.84 6.235v.88c2.478 16.99 0 24.145-2.52 25.904-1.678 1.799-3.357 1.799-6.715.92h-.84c-3.358-.92-10.913-2.679-11.753-14.312l.84-10.713V96.182c-.84-4.478-1.64-11.633-7.516-11.633-4.197 0-6.715 2.678-8.394 8.035l-.84 5.357c0 6.276-.84 16.99-5.037 18.788-.84.88-2.518.88-4.157-.92-9.235-4.476-17.63-10.713-17.63-28.582V81.87c1.68-9.834 5.037-18.748 10.914-26.783h.84c.839.88 1.678 7.155 2.518 10.713.84 6.236 1.679 10.714 4.157 10.714l2.519-.88c2.518-1.799 3.358-6.276 3.358-15.19 0-6.277 0-10.714.84-14.312 0-1.759 3.357-5.357 4.197-6.236 2.518-1.8 5.876-2.679 9.234-4.477 1.679 0 2.518 0 3.358.919 2.478 1.759 2.478 6.236 2.478 6.236 0 6.236.84 13.392.84 20.548l.84 8.035c0 1.799.839 3.558 1.678 5.357 1.68.88 3.358 1.799 5.037 1.799z" fill="#fdcfc2" fill-rule="evenodd" fill-opacity="1" stroke="none"/><path d="M83.71 31.86c-3.359 4.478-3.359 9.835-3.359 12.513v.88c-.84 6.236-.84 18.748 0 25.024 0 1.76-.84 2.679-.84 2.679-.839.88-1.678 1.759-2.518 1.759-.84 0-1.679-.88-2.518-.88-.84-.88-.84-1.799-.84-2.678l-.84-8.035c0-7.156-.839-14.312-.839-20.548 0 0 0-6.236-3.358-8.914-1.679-1.8-3.318-2.679-6.676-1.8-3.357 1.8-6.715 2.68-10.073 4.478-1.68.88-5.037 6.236-5.877 8.915-.84 3.557-.84 8.914-.84 15.19 0 7.156-.839 11.593-1.678 12.513-.84 0-1.64-4.478-1.64-7.156-1.678-8.035-2.518-12.512-5.036-14.311h-2.519l-.84.92h-.839c-6.716 8.034-10.074 17.868-11.753 29.461-1.679 23.226 8.395 31.261 19.309 37.538 3.318 1.759 5.836 1.759 7.515.88 5.877-3.559 6.716-13.393 6.716-21.428l.84-5.357c1.679-5.356 3.358-5.356 5.036-5.356.84 0 3.358 0 4.198 8.914v10.714l-.84 11.633c.84 13.392 10.874 16.07 14.232 16.95h.84c4.197.879 7.555.879 10.073-1.8 6.676-6.236 4.158-23.225 3.318-28.582v-1.76l-.84-5.356c-.839-5.357-.839-9.834-.839-18.789l.84-1.758c0-5.357 0-10.714 2.518-10.714h1.68c.839 1.759.839 7.116.839 12.472v12.513c0 4.477 0 28.583 15.11 30.381 3.318 0 6.676-.879 8.355-3.557 5.877-5.357 5.877-16.99 5.877-23.226v-2.679c0-24.145.84-32.18.84-34.859.839-1.798 2.518-2.678 4.197-2.678.84 0 1.679.88 1.679 1.799.84.88.84 1.799.84 2.678-.84 4.478-.84 32.14-.84 49.13 0 2.679 0 8.915 3.358 13.392 2.518 2.679 6.676 4.478 10.873 4.478h14.272c4.996 0 9.194-1.8 11.712-5.357 4.198-4.477 3.358-11.633 3.358-11.633-.84-4.477-.84-14.271 1.68-17.87 0 0 .839-.879 1.678-.879 1.68 0 1.68.88 2.519.88 1.679 2.678 1.679 8.954.84 13.392v5.357c.839 8.954 1.678 11.632 9.194 13.431 3.358.88 6.716.88 11.753 0 1.679 0 7.515-2.678 8.355-5.356 2.518-5.357 3.358-13.432 3.358-16.99l-.84-10.714c-.84-7.155-3.358-23.226 0-23.226.84-.879 2.519 0 3.358.88 2.518 1.799 4.197 8.035 4.197 15.19 0 7.156 0 21.428 2.519 31.262.84.92 1.679 1.799 3.358 2.678 1.679.92 5.037 2.679 6.676 1.8 15.11-5.358 23.506-17.87 24.305-35.74 0 0 0 0 0 0 0-8.914-3.318-16.949-10.873-24.105-.84-.88-4.198-1.799-5.877-.88-.84.88-2.518 1.76-2.518 5.358-.84 5.356 0 13.392.84 16.95 1.678 8.035 2.518 17.869-2.52 18.748-.839.92-.839.92-.839 0-3.318-1.759-2.518-17.87-1.679-24.985v-3.598c0-8.035-.84-15.19-4.157-20.547-.84-.88-5.037-4.438-6.716-4.438-6.716-3.597-12.592-5.356-15.91-6.276-2.519 0-6.716 0-9.235 8.955-1.679 7.116-2.518 17.869-2.518 27.663 0 3.598-.84 5.357-2.519 5.357-1.679 0-2.518-1.76-3.358-5.357V67.6c-.84-12.512-.84-23.226-2.518-25.904 0 0 0-.92-.84-.92-4.997-4.437-19.268-7.115-25.144-3.558-2.479 1.8-4.158 3.558-3.318 6.237 0 7.155 0 16.99.839 25.904.84 8.955 1.679 17.87.84 23.226 0 7.156-2.519 9.834-4.198 10.713-3.358 0-5.037-5.356-5.876-9.794-.84-5.356 0-17.869.84-29.502l.839-15.19c0-5.357-2.519-14.272-18.43-16.07-7.555-.88-12.592 0-15.95 3.597-3.358 2.678-3.358 7.116-3.358 9.794l-.799 42.894c0 1.799-1.679 3.558-3.358 3.558s-3.358-1.759-3.358-3.558l.84-44.653v-.92c0-2.678 0-8.034-3.358-11.592-2.519-2.679-5.877-3.598-10.914-3.598-4.157 0-7.515.92-10.034 3.598" fill="none" stroke="#333" stroke-width=".79951543px" stroke-linecap="round" stroke-linejoin="round" stroke-miterlimit="4" stroke-dasharray="none" stroke-opacity="1"/><path d="M76.953 78.392c1.68 0 3.358-.919 5.037-2.678.84-1.799 1.68-3.598 1.68-5.357-.84-6.276-.84-18.748 0-25.024v-.88c0-1.799 0-7.156 2.518-9.834 1.679-1.759 4.157-2.678 7.515-2.678 4.198 0 6.716.92 8.395 2.678 2.519 2.678 2.519 6.276 2.519 8.955v.88l-.84 44.652c0 3.558 3.318 7.116 6.676 7.116s6.716-3.558 6.716-7.116l.84-42.854c0-1.799 0-5.357 1.678-7.156 2.519-2.678 7.516-3.558 14.232-2.678 6.676.88 15.07 3.558 15.07 12.512l-.839 15.151c-.84 12.513-1.679 24.106-.84 29.462 1.68 10.714 5.877 13.392 9.195 13.392 2.519-.88 7.556-1.759 7.556-14.271.84-5.357 0-14.272-.84-23.226-.84-8.915-.84-18.749-.84-25.864 0-.92 0-1.8 1.68-2.679 4.197-2.678 15.91-1.799 21.786 2.679.84 2.678 1.68 16.07 1.68 24.105v10.713c.839 5.357 4.157 8.036 6.675 8.036 3.358 0 5.877-2.679 5.877-8.955 0-9.794.84-19.628 2.518-26.784.84-4.437 2.519-6.236 4.997-6.236 3.358.88 9.235 2.678 15.91 5.357.84.88 4.198 3.558 5.037 3.558C231.06 57.845 231.9 65 231.9 72.116v3.598c-.839 13.392-.839 24.985 2.519 28.543.84 0 2.518.92 4.157 0 8.395-2.679 5.877-16.07 5.037-23.186-.84-3.598-1.679-10.714-.84-16.07v-1.8h2.52c6.715 6.237 10.033 13.393 10.033 20.548v.88c-.8 16.07-8.355 27.663-21.747 32.14-1.679 0-5.037-1.799-5.876-2.678-2.518-8.915-2.518-23.226-2.518-29.462 0-6.237-1.68-14.272-5.837-18.749-1.679-.88-3.358-1.799-5.876-.88-5.037.88-5.037 11.594-2.519 27.664l.84 9.834c0 3.558-.84 10.713-2.519 16.07-.84.88-4.997 2.679-5.836 2.679-5.037.879-8.395.879-10.914 0-5.836-1.8-5.836-2.679-6.676-9.835v-5.356c.84-5.357.84-12.513-1.679-15.191-1.679-1.759-3.358-2.678-5.037-2.678a4.63 4.63 0 0 0-4.197 2.678c-4.157 5.357-2.518 17.87-2.518 19.668 0 0 .839 6.236-2.479 9.794-1.679 2.678-5.037 3.598-9.234 3.598H146.47c-3.358 0-5.876-1.799-8.355-3.598-2.518-3.558-2.518-8.035-2.518-10.713 0-27.664 0-45.533.84-49.09 0-1.8 0-3.559-.84-5.357-1.68-.88-2.519-2.679-4.198-2.679-4.197-.88-7.555 1.8-8.395 6.236 0 3.598-.8 15.191-.8 34.82v2.678c0 5.356 0 16.07-4.197 20.547-1.678 1.8-4.197 2.679-6.715 2.679-11.713-1.8-11.713-22.307-11.713-26.784V80.15c0-7.115 0-12.472-1.68-15.15-1.678-.92-2.518-.92-4.197-.92-5.836 0-5.836 7.156-5.836 14.311l-.84 1.76c0 8.954 0 13.391.84 18.748l.84 6.276v.88c2.478 16.95 0 24.105-2.52 25.904-1.678 1.759-3.357 1.759-6.715.88h-.84c-3.358-.88-10.873-2.679-11.713-14.272l.84-10.713V96.222c-.84-4.438-1.679-11.593-7.555-11.593-4.158 0-6.676 2.678-8.355 8.035l-.84 5.357c0 6.236-.84 16.95-5.037 18.748-.84.88-2.518.88-4.197-.88-9.195-4.477-17.59-10.713-17.59-28.582V81.95c1.68-9.834 5.037-18.748 10.914-26.783h.84c.839.879 1.678 7.155 2.518 10.713.84 6.236 1.679 10.714 4.157 10.714l2.519-.88c2.518-1.799 3.358-6.276 3.358-15.19 0-6.237 0-10.714.84-14.272 0-1.799 3.357-5.357 4.197-6.276 2.518-1.76 5.836-2.679 9.194-4.438 1.679 0 2.518 0 3.358.88 2.518 1.799 2.518 6.236 2.518 6.236 0 6.276.84 13.392.84 20.548l.84 8.035c0 1.799.839 3.558 1.678 5.357 1.64.879 3.318 1.798 4.997 1.798" fill="none" stroke="#fff" stroke-width=".79951543px" stroke-linecap="round" stroke-linejoin="round" stroke-miterlimit="4" stroke-dasharray="none" stroke-opacity="1"/></svg>