<svg xmlns="http://www.w3.org/2000/svg" version="1.0" viewBox="0 0 300.888 320.617"><defs><clipPath clipPathUnits="userSpaceOnUse" id="a"><path d="M11.353 21.987h300.538v320.845H11.353z"/></clipPath></defs><path d="M248.81 88.666c-12.353-12.312-26.065-14.67-41.416-18.708-14.311-3.798-26.664-10.834-41.375-5.077-12.712 5.077-26.863 19.748-35.818 30.341-10.514 12.313-23.266 20.588-37.377 26.544-18.11 7.636-21.507 31.82-22.307 51.13-1 23.145 7.196 43.333 15.351 64.12 5.157 12.953 9.914 21.427 21.067 29.942 9.554 7.436 19.708 15.071 29.662 21.427 14.112 8.915 31.221 9.115 47.132 9.994 13.551.6 25.864-3.398 38.816-3.398 7.556 0 12.313 1.48 19.069-3.198 8.355-5.716 8.754-10.633 11.952-19.748 4.757-13.792 19.508-11.473 24.665-22.067 2.799-5.516 1.8-17.389 1.6-23.785-.2-6.996-1.4-13.592 0-20.388 1.598-8.475 6.156-15.91 7.355-24.385 2.398-15.07.6-30.981 2.199-46.052 1.199-11.273 2.958-20.827-8.155-26.984-6.756-3.797-14.752-4.437-21.308-8.674-4.357-2.759-8.155-9.155-12.712-10.194z" fill="#06381a" fill-rule="evenodd"/><path d="M248.81 88.666c-12.353-12.312-26.065-14.67-41.416-18.708-14.311-3.798-26.664-10.834-41.375-5.077-12.712 5.077-26.863 19.748-35.818 30.341-10.514 12.313-23.266 20.588-37.377 26.544-18.11 7.636-21.507 31.82-22.307 51.13-1 23.145 7.196 43.333 15.351 64.12 5.157 12.953 9.914 21.427 21.067 29.942 9.554 7.436 19.708 15.071 29.662 21.427 14.112 8.915 31.221 9.115 47.132 9.994 13.551.6 25.864-3.398 38.816-3.398 7.556 0 12.313 1.48 19.069-3.198 8.355-5.716 8.754-10.633 11.952-19.748 4.757-13.792 19.508-11.473 24.665-22.067 2.799-5.516 1.8-17.389 1.6-23.785-.2-6.996-1.4-13.592 0-20.388 1.598-8.475 6.156-15.91 7.355-24.385 2.398-15.07.6-30.981 2.199-46.052 1.199-11.273 2.958-20.827-8.155-26.984-6.756-3.797-14.752-4.437-21.308-8.674-4.357-2.759-8.155-9.155-12.712-10.194" fill="none" stroke="#333" stroke-width=".8" stroke-miterlimit="8"/><path d="M248.81 88.666c-12.353-12.312-26.065-14.67-41.416-18.708-14.311-3.798-26.664-10.834-41.375-5.077-12.712 5.077-26.863 19.748-35.818 30.341-10.514 12.313-23.266 20.588-37.377 26.544-18.11 7.636-21.507 31.82-22.307 51.13-1 23.145 7.196 43.333 15.351 64.12 5.157 12.953 9.914 21.427 21.067 29.942 9.554 7.436 19.708 15.071 29.662 21.427 14.112 8.915 31.221 9.115 47.132 9.994 13.551.6 25.864-3.398 38.816-3.398 7.556 0 12.313 1.48 19.069-3.198 8.355-5.716 8.754-10.633 11.952-19.748 4.757-13.792 19.508-11.473 24.665-22.067 2.799-5.516 1.8-17.389 1.6-23.785-.2-6.996-1.4-13.592 0-20.388 1.598-8.475 6.156-15.91 7.355-24.385 2.398-15.07.6-30.981 2.199-46.052 1.199-11.273 2.958-20.827-8.155-26.984-6.756-3.797-14.752-4.437-21.308-8.674-4.357-2.759-8.155-9.155-12.712-10.194" fill="none" stroke="#333" stroke-width=".8" stroke-miterlimit="8"/><path d="M199.04 106.296s9.913 1.279 11.912 8.075c1.999 6.796 3.998 74.235 3.998 74.235l24.225 24.625-16.67 10.593-91.904 7.196 2.798-34.779 27.464-64.88 38.176-25.065z" fill="#acd89a" fill-rule="evenodd"/><path d="M199.04 106.296s9.913 1.279 11.912 8.075c1.999 6.796 3.998 74.235 3.998 74.235l24.225 24.625-16.67 10.593-91.904 7.196 2.798-34.779 27.464-64.88 38.176-25.065z" fill="none" stroke="#333" stroke-width=".8" stroke-miterlimit="8"/><path clip-path="url(#a)" d="M89.266 95.102s-27.224 4.278-35.778 9.155c-8.555 4.837 2.198 13.751-24.066 22.026-26.264 8.475-25.664 64.242 27.064 81.391l33.38-25.624 12.912-47.292-13.512-39.656z" fill="#23966c" fill-rule="evenodd"/><path clip-path="url(#a)" d="M89.266 95.102s-27.224 4.278-35.778 9.155c-8.555 4.837 2.198 13.751-24.066 22.026-26.264 8.475-25.664 64.242 27.064 81.391l33.38-25.624 12.912-47.292-13.512-39.656z" fill="none" stroke="#333" stroke-width=".8" stroke-miterlimit="8"/><path d="M31.54 191.364s13.553 2.558 14.352-12.712c.76-15.271.76-16.95 5.557-33.06 4.757-16.11 19.468-24.385 10.114-43.894 11.353-3.837 29.222-6.596 29.222-6.596l13.512 39.656-12.912 47.292-33.38 25.624c-10.554-3.358-18.909-8.235-25.465-13.991z" fill="#146d4b" fill-rule="evenodd"/><path clip-path="url(#a)" d="M82.23 147.55s-23.266-12.912-9.114-43.013c14.111-30.342 43.333-18.23 56.246-48.131 12.752-29.702 54.327-53.248 97.66-8.075 43.334 45.172 5.557 34.979 5.557 34.979l-42.334 34.579L82.23 147.55z" fill="#1e844a" fill-rule="evenodd"/><path clip-path="url(#a)" d="M82.23 147.55s-23.266-12.912-9.114-43.013c14.111-30.342 43.333-18.23 56.246-48.131 12.752-29.702 54.327-53.248 97.66-8.075 43.334 45.172 5.557 34.979 5.557 34.979l-42.334 34.579L82.23 147.55z" fill="none" stroke="#333" stroke-width=".8" stroke-miterlimit="8"/><path d="M227.022 48.33c43.334 45.173 5.557 35.02 5.557 35.02l-42.334 34.539L82.23 147.55s-23.266-12.913-9.114-43.014c0 0 10.713 1.918 16.11.2 5.157-1.48 13.112-11.034 16.11-14.392 2.958-3.198 17.87-18.469 21.667-18.668 3.758-.44 15.51 1.918 16.31-1.72.6-3.597 6.756-20.347 11.513-22.026 4.997-1.48 17.31-1.28 19.908 0 2.758 1.28 21.067 14.391 23.666 13.152 2.758-1.08 4.157-17.63 8.754-17.19 4.358.44 19.868 4.438 19.868 4.438z" fill="#155b31" fill-rule="evenodd"/><path clip-path="url(#a)" d="M73.156 189.045s-29.862 10.834-21.108 35.859c8.955 24.825 19.509 18.668 10.554 28.422-8.755 9.755-9.554 27.344 24.065 39.656 33.62 12.273 28.063 4.877 37.578 22.267 9.554 17.15 78.592 56.166 110.213-14.871l2.958-10.154-80.551-16.99-53.088-22.866-30.621-61.323z" fill="#137758" fill-rule="evenodd"/><path clip-path="url(#a)" d="M73.156 189.045s-29.862 10.834-21.108 35.859c8.955 24.825 19.509 18.668 10.554 28.422-8.755 9.755-9.554 27.344 24.065 39.656 33.62 12.273 28.063 4.877 37.578 22.267 9.554 17.15 78.592 56.166 110.213-14.871l2.958-10.154-80.551-16.99-53.088-22.866-30.621-61.323z" fill="none" stroke="#333" stroke-width=".8" stroke-miterlimit="8"/><path d="M224.544 318.367c3.997-5.077 7.355-11.033 10.554-18.229l2.958-10.154-80.511-16.99-53.128-22.866-30.622-61.083s-9.354 3.398-16.11 10.634c0 0-3.198 38.976 10.354 44.093 13.512 5.077 11.113 24.585 27.023 30.502 15.91 5.956 34.22 35.618 49.33 38.177 15.111 2.518 42.175 10.993 49.33 9.314 7.156-1.679 30.822-3.398 30.822-3.398z" fill="#09563c" fill-rule="evenodd"/><path d="M198.16 297.9c.2-1.72.4-3.199.4-3.199l-19.708-18.908-63.202-35.259-15.35 6.156s9.953 17.43 29.661 30.182c16.31 10.594 25.625 31.421 46.532 33.74 4.757.44 14.911.84 19.068-2.559 4.997-3.797-.2-10.593 1.6-16.31.999-3.398 2.998-5.756 5.556-7.235z" fill="#3a7c1f" fill-rule="evenodd"/><path d="M198.16 297.9c.2-1.72.4-3.199.4-3.199l-19.708-18.908-63.202-35.259-15.35 6.156s9.953 17.43 29.661 30.182c16.31 10.594 25.625 31.421 46.532 33.74 4.757.44 14.911.84 19.068-2.559 4.997-3.797-.2-10.593 1.6-16.31.999-3.398 2.998-5.756 5.556-7.235" fill="none" stroke="#333" stroke-width=".8" stroke-miterlimit="8"/><path d="M198.16 297.9c.2-1.72.4-3.199.4-3.199l-19.708-18.908-63.202-35.259-15.35 6.156s9.953 17.43 29.661 30.182c16.31 10.594 25.625 31.421 46.532 33.74 4.757.44 14.911.84 19.068-2.559 4.997-3.797-.2-10.593 1.6-16.31.999-3.398 2.998-5.756 5.556-7.235" fill="none" stroke="#333" stroke-width=".8" stroke-miterlimit="8"/><path d="M277.712 215.55c-6.556-2.999-12.513 13.791-13.912 18.228-1.759 6.796-3.758 9.115-8.155 14.192-4.357 5.756-6.356 12.752-9.714 19.308-6.956 13.552-22.067 28.183-37.777 25.864-5.557-.84-9.354-4.237-13.512-7.835-6.156-5.077-12.313-8.915-19.468-12.073-9.155-3.637-17.51-7.235-26.064-12.312-5.157-3.398-10.314-6.596-16.11-8.915-7.156-2.758-14.912-4.677-21.068-9.754-3.558-2.958-9.154-5.077-8.355-11.033 3.198-.84 5.797.24 8.955 0 4.397-.2 8.355-2.319 12.712-2.519 7.156-.44 14.112.4 20.907 2.12 8.715 2.118 15.87-1.92 24.226-3.839 8.355-2.118 16.31-6.556 24.265-7.635 9.554-1.28 19.268-2.758 28.623-4.237 9.554-1.68 19.268-1.28 29.022-.84 4.557.2 8.355 1.919 12.712 2.559 3.398.84 8.555-.44 11.154-.44z" fill="#2d6d16" fill-rule="evenodd"/><path d="M277.712 215.55c-6.556-2.999-12.513 13.791-13.912 18.228-1.759 6.796-3.758 9.115-8.155 14.192-4.357 5.756-6.356 12.752-9.714 19.308-6.956 13.552-22.067 28.183-37.777 25.864-5.557-.84-9.354-4.237-13.512-7.835-6.156-5.077-12.313-8.915-19.468-12.073-9.155-3.637-17.51-7.235-26.064-12.312-5.157-3.398-10.314-6.596-16.11-8.915-7.156-2.758-14.912-4.677-21.068-9.754-3.558-2.958-9.154-5.077-8.355-11.033 3.198-.84 5.797.24 8.955 0 4.397-.2 8.355-2.319 12.712-2.519 7.156-.44 14.112.4 20.907 2.12 8.715 2.118 15.87-1.92 24.226-3.839 8.355-2.118 16.31-6.556 24.265-7.635 9.554-1.28 19.268-2.758 28.623-4.237 9.554-1.68 19.268-1.28 29.022-.84 4.557.2 8.355 1.919 12.712 2.559 3.398.84 8.555-.44 11.154-.44" fill="none" stroke="#333" stroke-width=".8" stroke-miterlimit="8"/><path d="M277.712 215.55c-6.556-2.999-12.513 13.791-13.912 18.228-1.759 6.796-3.758 9.115-8.155 14.192-4.357 5.756-6.356 12.752-9.714 19.308-6.956 13.552-22.067 28.183-37.777 25.864-5.557-.84-9.354-4.237-13.512-7.835-6.156-5.077-12.313-8.915-19.468-12.073-9.155-3.637-17.51-7.235-26.064-12.312-5.157-3.398-10.314-6.596-16.11-8.915-7.156-2.758-14.912-4.677-21.068-9.754-3.558-2.958-9.154-5.077-8.355-11.033 3.198-.84 5.797.24 8.955 0 4.397-.2 8.355-2.319 12.712-2.519 7.156-.44 14.112.4 20.907 2.12 8.715 2.118 15.87-1.92 24.226-3.839 8.355-2.118 16.31-6.556 24.265-7.635 9.554-1.28 19.268-2.758 28.623-4.237 9.554-1.68 19.268-1.28 29.022-.84 4.557.2 8.355 1.919 12.712 2.559 3.398.84 8.555-.44 11.154-.44" fill="none" stroke="#333" stroke-width=".8" stroke-miterlimit="8"/><path d="M208.993 57.725c-6.596-1.08 12.313-4.917 17.91-2.119 4.157 1.88 4.157 1.88 8.155.4 2.198-.64 4.357-2.319 6.556-.84 1.599 1.04 1.998 3.598 3.597 4.438 2.199 1.28 4.558-.2 7.156 1.919 1.4 1.279 1.999 2.758 2.598 4.677 1.6 4.477-.2 2.958-.6 7.235-.799 9.755 11.154.84 14.512 0 3.398-.879 7.156.2 9.754 2.759 1.999 2.318 1.6 5.277 5.197 5.716 3.158.44 6.156-2.318 9.954-1.479 2.558.44 4.557 1.48 5.756 4.038 2.2 4.237.4 8.914 1 13.152.6 2.758 3.158 4.677.8 7.635l-7.556 15.71-3.598 19.949-33.42-7.196-22.706-24.225s-3.198-48.371-25.065-51.769z" fill="#16703a" fill-rule="evenodd"/><path d="M208.993 57.725c-6.596-1.08 12.313-4.917 17.91-2.119 4.157 1.88 4.157 1.88 8.155.4 2.198-.64 4.357-2.319 6.556-.84 1.599 1.04 1.998 3.598 3.597 4.438 2.199 1.28 4.558-.2 7.156 1.919 1.4 1.279 1.999 2.758 2.598 4.677 1.6 4.477-.2 2.958-.6 7.235-.799 9.755 11.154.84 14.512 0 3.398-.879 7.156.2 9.754 2.759 1.999 2.318 1.6 5.277 5.197 5.716 3.158.44 6.156-2.318 9.954-1.479 2.558.44 4.557 1.48 5.756 4.038 2.2 4.237.4 8.914 1 13.152.6 2.758 3.158 4.677.8 7.635l-7.556 15.71-3.598 19.949-33.42-7.196-22.706-24.225s-3.198-48.371-25.065-51.769" fill="none" stroke="#333" stroke-width=".8" stroke-miterlimit="8"/><path d="m300.018 107.975-6.156 12.512-3.598 19.948-33.42-7.196-22.706-24.185s-1.599-25.265-10.953-40.576c0 0 14.351 5.117 16.75 9.555 2.358 4.477 4.157 2.998 6.356 7.675 2.198 4.637 10.154 2.519 11.952 6.156 2 3.358 7.956-2.358 10.554 2.319 2.359 4.677 10.354.64 12.113 4.677 1.599 4.038 11.353-.84 11.953 2.519.6 3.637 7.155 6.596 7.155 6.596z" fill="#0c4c26" fill-rule="evenodd"/><path d="M189.925 71.757c7.196 1.279 14.151 4.477 21.507 5.116 7.755.84 14.511-.44 21.467 4.238 6.556 4.237 12.512 10.633 19.068 15.27 9.355 6.597 13.752 12.753 20.508 21.228 4.757 6.156 8.155 5.756 8.954 14.431.4 4.677.76 18.909-3.997 20.388-7.156 2.318-23.066-22.906-27.224-27.384-8.554-9.554-20.707-15.27-29.262-24.625-5.756-6.156-8.915-9.314-15.87-13.352-4.597-2.558-11.953-7.435-15.151-11.913z" fill="#448e23" fill-rule="evenodd"/><path d="M189.925 71.757c7.196 1.279 14.151 4.477 21.507 5.116 7.755.84 14.511-.44 21.467 4.238 6.556 4.237 12.512 10.633 19.068 15.27 9.355 6.597 13.752 12.753 20.508 21.228 4.757 6.156 8.155 5.756 8.954 14.431.4 4.677.76 18.909-3.997 20.388-7.156 2.318-23.066-22.906-27.224-27.384-8.554-9.554-20.707-15.27-29.262-24.625-5.756-6.156-8.915-9.314-15.87-13.352-4.597-2.558-11.953-7.435-15.151-11.913" fill="none" stroke="#333" stroke-width=".8" stroke-miterlimit="8"/><path d="M189.925 71.757c7.196 1.279 14.151 4.477 21.507 5.116 7.755.84 14.511-.44 21.467 4.238 6.556 4.237 12.512 10.633 19.068 15.27 9.355 6.597 13.752 12.753 20.508 21.228 4.757 6.156 8.155 5.756 8.954 14.431.4 4.677.76 18.909-3.997 20.388-7.156 2.318-23.066-22.906-27.224-27.384-8.554-9.554-20.707-15.27-29.262-24.625-5.756-6.156-8.915-9.314-15.87-13.352-4.597-2.558-11.953-7.435-15.151-11.913" fill="none" stroke="#333" stroke-width=".8" stroke-miterlimit="8"/><path d="M211.352 111.612c-17.31-9.754-41.975-34.339-63.242-27.543-30.861 9.754 11.153 25.864 22.666 27.543 19.309 2.959 38.417 5.717 56.126 15.471 17.47 9.314 34.98 25.664 51.29 37.497-15.911-29.862-41.376-49.57-71.597-55.486z" fill="#0a4923" fill-rule="evenodd"/><path d="M211.352 111.612c-17.31-9.754-41.975-34.339-63.242-27.543-30.861 9.754 11.153 25.864 22.666 27.543 19.309 2.959 38.417 5.717 56.126 15.471 17.47 9.314 34.98 25.664 51.29 37.497-15.911-29.862-41.376-49.57-71.597-55.486" fill="none" stroke="#333" stroke-width=".8" stroke-miterlimit="8"/><path d="M211.352 111.612c-17.31-9.754-41.975-34.339-63.242-27.543-30.861 9.754 11.153 25.864 22.666 27.543 19.309 2.959 38.417 5.717 56.126 15.471 17.47 9.314 34.98 25.664 51.29 37.497-15.911-29.862-41.376-49.57-71.597-55.486" fill="none" stroke="#333" stroke-width=".8" stroke-miterlimit="8"/><path d="M177.612 107.175c21.267 9.954 50.09 21.627 62.443 32.02 21.466 18.23 43.533 53.208 44.333 27.784.76-25.465-29.622-47.292-59.844-71.477-30.222-24.185-57.685-39.896-68.798-33.94-11.154 5.957-7.556 36.898-7.556 36.898l.2 7.436 7.755.4 24.466-5.717z" fill="#2d6d16" fill-rule="evenodd"/><path d="M177.612 107.175c21.267 9.954 50.09 21.627 62.443 32.02 21.466 18.23 43.533 53.208 44.333 27.784.76-25.465-29.622-47.292-59.844-71.477-30.222-24.185-57.685-39.896-68.798-33.94-11.154 5.957-7.556 36.898-7.556 36.898l.2 7.436 7.755.4 24.466-5.717" fill="none" stroke="#333" stroke-width=".8" stroke-miterlimit="8"/><path d="M177.612 107.175c21.267 9.954 50.09 21.627 62.443 32.02 21.466 18.23 43.533 53.208 44.333 27.784.76-25.465-29.622-47.292-59.844-71.477-30.222-24.185-57.685-39.896-68.798-33.94-11.154 5.957-7.556 36.898-7.556 36.898l.2 7.436 7.755.4 24.466-5.717" fill="none" stroke="#333" stroke-width=".8" stroke-miterlimit="8"/><path d="M194.602 98.34s9.155 2.959 7.595 10.194c-1.599 7.196-9.954 11.473-17.909 22.067-7.995 10.633-30.261 43.294-33.86 59.004-3.557 15.71-12.312 39.896-22.266 37.377-9.954-2.558-15.55-16.15-11.553-29.302 3.998-13.152 25.065-90.425 34.22-94.223 9.154-3.837 42.614-5.556 43.773-5.117z" fill="#5eb76b" fill-rule="evenodd"/><path d="M194.602 98.34s9.155 2.959 7.595 10.194c-1.599 7.196-9.954 11.473-17.909 22.067-7.995 10.633-30.261 43.294-33.86 59.004-3.557 15.71-12.312 39.896-22.266 37.377-9.954-2.558-15.55-16.15-11.553-29.302 3.998-13.152 25.065-90.425 34.22-94.223 9.154-3.837 42.614-5.556 43.773-5.117" fill="none" stroke="#333" stroke-width=".8" stroke-miterlimit="8"/><path d="M122.886 224.704c-6.397-5.277-9.395-15.91-6.197-26.504 3.998-13.152 25.105-90.385 34.3-94.183 4.757-1.919 16.51-3.398 26.463-4.277 0 0-13.311 20.387-12.152 28.222 1.2 7.876-7.755 24.626-7.755 32.061 0 7.396-18.75 36.898-18.75 42.015 0 5.276-15.91 22.666-15.91 22.666z" fill="#4a9e54" fill-rule="evenodd"/><path d="M210.952 113.291s-13.512 11.034-13.512 23.746c0 12.752-14.71 42.894 19.509 68.359 34.179 25.464 36.937 10.633 36.937 10.633s40.136-18.269 24.665-47.131c-15.51-28.863-44.133-61.163-67.599-55.607z" fill="#5eb76b" fill-rule="evenodd"/><path d="M210.952 113.291s-13.512 11.034-13.512 23.746c0 12.752-14.71 42.894 19.509 68.359 34.179 25.464 36.937 10.633 36.937 10.633s40.136-18.269 24.665-47.131c-15.51-28.863-44.133-61.163-67.599-55.607" fill="none" stroke="#333" stroke-width=".8" stroke-miterlimit="8"/><path d="M101.578 109.893c-8.155 1.28-13.311.44-19.868 6.796-6.356 6.157-9.354 14.232-11.153 22.906-2.958 14.871-.4 31.621-2.358 46.692-5.397 38.577 16.87 65.76 45.332 85.468 11.913 8.275 25.025 19.948 37.937 25.225-6.956-5.477-8.115-13.552-11.113-21.387-3.598-9.794-10.354-14.032-18.11-19.748-14.91-10.833-19.467-22.906-25.224-40.935-5.956-18.669-6.156-44.333-4.197-64.041 1.199-13.392 7.355-26.744 7.955-39.257z" fill="#16703a" fill-rule="evenodd"/><path d="M101.578 109.893c-8.155 1.28-13.311.44-19.868 6.796-6.356 6.157-9.354 14.232-11.153 22.906-2.958 14.871-.4 31.621-2.358 46.692-5.397 38.577 16.87 65.76 45.332 85.468 11.913 8.275 25.025 19.948 37.937 25.225-6.956-5.477-8.115-13.552-11.113-21.387-3.598-9.794-10.354-14.032-18.11-19.748-14.91-10.833-19.467-22.906-25.224-40.935-5.956-18.669-6.156-44.333-4.197-64.041 1.199-13.392 7.355-26.744 7.955-39.257" fill="none" stroke="#333" stroke-width=".8" stroke-miterlimit="8"/><path d="M101.578 109.893c-8.155 1.28-13.311.44-19.868 6.796-6.356 6.157-9.354 14.232-11.153 22.906-2.958 14.871-.4 31.621-2.358 46.692-5.397 38.577 16.87 65.76 45.332 85.468 11.913 8.275 25.025 19.948 37.937 25.225-6.956-5.477-8.115-13.552-11.113-21.387-3.598-9.794-10.354-14.032-18.11-19.748-14.91-10.833-19.467-22.906-25.224-40.935-5.956-18.669-6.156-44.333-4.197-64.041 1.199-13.392 7.355-26.744 7.955-39.257" fill="none" stroke="#333" stroke-width=".8" stroke-miterlimit="8"/><path d="M100.38 111.093c-.6 12.552-6.557 25.904-7.916 39.256-1.999 19.748-1.799 45.412 4.157 64.041 5.757 18.269 10.314 30.342 25.225 40.975 7.915 5.717 14.471 10.154 18.07 19.708.999 2.319 1.598 4.438 2.358 6.556 0 0-8.715-7.395-13.472-13.551-4.797-6.357-17.31-13.992-19.668-15.471-2.399-1.52-14.112-5.956-14.112-5.956s2.999-11.034 3.958-11.474c1.2-.4-8.515-18.029-8.515-18.029s-7.155-8.035-7.955-16.11c-.6-8.275-8.355-22.906-5.557-29.462 2.799-6.796 5.557-22.906 6.956-30.981 1.4-8.075 3.358-18.03 6.956-22.467 3.358-4.477 9.514-7.035 9.514-7.035zm.719-1.679c-2.199.44-4.198.68-5.997.88z" fill="#136032" fill-rule="evenodd"/><path d="M100.42 213.87c-8.156.2-11.554-3.837-11.154-11.912.4-7.836-.8-13.352-3.198-20.548-2.798-9.114 1.599-12.952 3.598-21.427 1.599-6.796-1.2-13.991.8-20.787.999-3.398 3.397-6.157 4.357-9.315 1.199-4.037.799-8.075 2.398-11.873 1.6-4.237 4.397-8.275 6.796-12.312 2.359-3.838 3.558-8.475 6.756-11.673 3.198-3.398 7.156-4.677 10.953-6.996 1.4-1.04 2.399-3.198 4.198-3.797 1.199-.24 2.558.6 3.558.4 4.197-.84 5.196-4.678 9.554-3.399 8.195 2.12 8.794 14.871 10.753 21.228 0 0-6.356 25.864-12.312 43.693-5.997 17.79-15.95 61.483-25.905 67.839-9.954 6.356-11.153.88-11.153.88z" fill="#3a7c1f" fill-rule="evenodd"/><path d="M100.42 213.87c-8.156.2-11.554-3.837-11.154-11.912.4-7.836-.8-13.352-3.198-20.548-2.798-9.114 1.599-12.952 3.598-21.427 1.599-6.796-1.2-13.991.8-20.787.999-3.398 3.397-6.157 4.357-9.315 1.199-4.037.799-8.075 2.398-11.873 1.6-4.237 4.397-8.275 6.796-12.312 2.359-3.838 3.558-8.475 6.756-11.673 3.198-3.398 7.156-4.677 10.953-6.996 1.4-1.04 2.399-3.198 4.198-3.797 1.199-.24 2.558.6 3.558.4 4.197-.84 5.196-4.678 9.554-3.399 8.195 2.12 8.794 14.871 10.753 21.228 0 0-6.356 25.864-12.312 43.693-5.997 17.79-15.95 61.483-25.905 67.839-9.954 6.356-11.153.88-11.153.88" fill="none" stroke="#333" stroke-width=".8" stroke-miterlimit="8"/><path d="M101.498 219.347c2.799 5.117.8 13.232 5.597 16.63 5.757 4.477 13.712-1.28 19.868-2.119 8.955-1.08 16.31 8.515 25.065 7.676 4.197-.44 5.556-1.72 9.954-.44 4.357 1.28 6.756.64 10.154-2.958 5.157-5.997 5.356-12.393 13.711-14.951 6.556-1.92 14.312.64 21.068.88 3.398 0 6.955-.44 10.353-.88 4.358-.64 7.156-2.759 11.154-4.238 7.355-2.358 14.31 5.117 21.267 1.28 3.198-1.92 3.957-3.438 8.155-2.999 2.398.2 4.357 1.48 6.756 1.72 4.797.639 8.155-4.078 13.112-3.838-4.358-4.078-12.113-2.559-17.47-1.92-6.196 1.04-12.152.84-18.309.2-7.555-.839-15.11-1.718-22.666-.44-8.954 1.28-17.51 4.478-26.464 5.558-2.998.2-5.756-.2-8.755.44-1.998.4-3.957 1.918-6.156 2.558-5.956 1.479-12.152-.44-17.909-.88-7.955-.64-14.511 1.92-21.867 3.838-3.997 1.28-9.154 2.798-13.152 1.719-2.958-.64-3.757-2.998-5.956-4.677-2.399-1.92-3.958-1.52-6.756-1.72-4.357-.639-7.555-1.278-11.953-.439z" fill="#5eb76b" fill-rule="evenodd"/><path d="M101.498 219.347c2.799 5.117.8 13.232 5.597 16.63 5.757 4.477 13.712-1.28 19.868-2.119 8.955-1.08 16.31 8.515 25.065 7.676 4.197-.44 5.556-1.72 9.954-.44 4.357 1.28 6.756.64 10.154-2.958 5.157-5.997 5.356-12.393 13.711-14.951 6.556-1.92 14.312.64 21.068.88 3.398 0 6.955-.44 10.353-.88 4.358-.64 7.156-2.759 11.154-4.238 7.355-2.358 14.31 5.117 21.267 1.28 3.198-1.92 3.957-3.438 8.155-2.999 2.398.2 4.357 1.48 6.756 1.72 4.797.639 8.155-4.078 13.112-3.838-4.358-4.078-12.113-2.559-17.47-1.92-6.196 1.04-12.152.84-18.309.2-7.555-.839-15.11-1.718-22.666-.44-8.954 1.28-17.51 4.478-26.464 5.558-2.998.2-5.756-.2-8.755.44-1.998.4-3.957 1.918-6.156 2.558-5.956 1.479-12.152-.44-17.909-.88-7.955-.64-14.511 1.92-21.867 3.838-3.997 1.28-9.154 2.798-13.152 1.719-2.958-.64-3.757-2.998-5.956-4.677-2.399-1.92-3.958-1.52-6.756-1.72-4.357-.639-7.555-1.278-11.953-.439" fill="none" stroke="#333" stroke-width=".8" stroke-miterlimit="8"/><path d="M101.498 219.347c2.799 5.117.8 13.232 5.597 16.63 5.757 4.477 13.712-1.28 19.868-2.119 8.955-1.08 16.31 8.515 25.065 7.676 4.197-.44 5.556-1.72 9.954-.44 4.357 1.28 6.756.64 10.154-2.958 5.157-5.997 5.356-12.393 13.711-14.951 6.556-1.92 14.312.64 21.068.88 3.398 0 6.955-.44 10.353-.88 4.358-.64 7.156-2.759 11.154-4.238 7.355-2.358 14.31 5.117 21.267 1.28 3.198-1.92 3.957-3.438 8.155-2.999 2.398.2 4.357 1.48 6.756 1.72 4.797.639 8.155-4.078 13.112-3.838-4.358-4.078-12.113-2.559-17.47-1.92-6.196 1.04-12.152.84-18.309.2-7.555-.839-15.11-1.718-22.666-.44-8.954 1.28-17.51 4.478-26.464 5.558-2.998.2-5.756-.2-8.755.44-1.998.4-3.957 1.918-6.156 2.558-5.956 1.479-12.152-.44-17.909-.88-7.955-.64-14.511 1.92-21.867 3.838-3.997 1.28-9.154 2.798-13.152 1.719-2.958-.64-3.757-2.998-5.956-4.677-2.399-1.92-3.958-1.52-6.756-1.72-4.357-.639-7.555-1.278-11.953-.439" fill="none" stroke="#333" stroke-width=".8" stroke-miterlimit="8"/><path d="M207.194 282.789c5.997-1.52 13.112 0 17.71 2.758 4.757 2.958 8.714 6.996 11.912-.24 2.959-6.796-.4-14.83 1.4-21.827 1.759-6.796 5.156-10.194 11.513-11.673 6.156-1.279 15.67 4.238 21.067 1.28 4.557-2.559 2.758-9.155 2.358-13.592-.6-7.436-.6-15.071-.4-22.467.4-14.87 8.156-28.222 8.556-43.093.4-9.115-6.157-16.55-4.758-25.665 1.56-9.554 12.713-13.352 12.513-22.706-.2-4.877-3.198-8.035-2.399-13.352 1.8-12.073 7.156-3.398 13.712-7.196 2.399-1.279 2.798-5.756 4.957-5.956 2.199-.44 4.197 2.958 5.157 4.477 0 0-3.758 9.754-2.359 16.95 1.4 7.196.6 29.702-3.797 41.775-4.358 12.312-2.959 27.183-3.358 37.977-.4 10.633-2 18.269-8.555 25.464-6.756 7.236.8 22.507-15.87 30.142-16.71 7.635-8.555 25.664-18.67 33.3 0 0-16.909 15.67-27.223 9.754-10.354-5.957-23.466-16.11-23.466-16.11z" fill="#1e844a" fill-rule="evenodd"/><path clip-path="url(#a)" d="M207.194 282.789c5.997-1.52 13.112 0 17.71 2.758 4.757 2.958 8.714 6.996 11.912-.24 2.959-6.796-.4-14.83 1.4-21.827 1.759-6.796 5.156-10.194 11.513-11.673 6.156-1.279 15.67 4.238 21.067 1.28 4.557-2.559 2.758-9.155 2.358-13.592-.6-7.436-.6-15.071-.4-22.467.4-14.87 8.156-28.222 8.556-43.093.4-9.115-6.157-16.55-4.758-25.665 1.56-9.554 12.713-13.352 12.513-22.706-.2-4.877-3.198-8.035-2.399-13.352 1.8-12.073 7.156-3.398 13.712-7.196 2.399-1.279 2.798-5.756 4.957-5.956 2.199-.44 4.197 2.958 5.157 4.477 0 0-3.758 9.754-2.359 16.95 1.4 7.196.6 29.702-3.797 41.775-4.358 12.312-2.959 27.183-3.358 37.977-.4 10.633-2 18.269-8.555 25.464-6.756 7.236.8 22.507-15.87 30.142-16.71 7.635-8.555 25.664-18.67 33.3 0 0-16.909 15.67-27.223 9.754-10.354-5.957-23.466-16.11-23.466-16.11" fill="none" stroke="#333" stroke-width=".8" stroke-miterlimit="8"/><path d="M100.3 246.69s2.398-9.354 19.507-9.354c17.31 0 76.554 22.107 81.551 62.003 1.36 11.633-4.797 9.754-5.797 0-.959-9.794-13.311-9.155-22.066-7.676-8.555 1.52-25.864-12.272-31.621-26.104-5.756-13.792-5.157-12.712-13.312-15.91-8.155-2.959-28.263-2.959-28.263-2.959z" fill="#44aa50" fill-rule="evenodd"/><path d="M100.3 246.69s2.398-9.354 19.507-9.354c17.31 0 76.554 22.107 81.551 62.003 1.36 11.633-4.797 9.754-5.797 0-.959-9.794-13.311-9.155-22.066-7.676-8.555 1.52-25.864-12.272-31.621-26.104-5.756-13.792-5.157-12.712-13.312-15.91-8.155-2.959-28.263-2.959-28.263-2.959" fill="none" stroke="#333" stroke-width=".8" stroke-miterlimit="8"/><path d="M194.922 149.07c-1.6 2.158-2.159 7.875-2.359 10.873-.4 3.598 0 7.635.6 11.233.96 6.596 3.358 11.713 6.316 17.63 4.917 9.794 12.632 17.03 21.707 21.906-4.517 1.68-10.833-3.198-14.391-5.956-6.916-5.517-11.873-12.752-14.432-21.867-2.198-6.796-2.598-14.671-1.399-21.907.8-3.837 2.759-8.275 3.158-11.473zm7.635-28.943c-.96-.44-3.558-2.318-4.157-2.318-1.36-.24-2.759 1.679-3.758 2.958-2.399 2.958-5.157 4.837-7.356 7.595-5.556 6.756-11.273 13.552-16.07 21.347 4.997-1.879 9.355-10.353 12.713-14.59 2.398-2.96 4.357-6.317 7.355-8.636 3.358-2.558 8.515-2.558 11.273-5.716zm-65.08 103.218c2.798-1.68 6.156-9.315 7.355-12.513 1.76-4.237 3.558-8.275 4.917-12.952 2.799-10.154 5.557-19.268 11.873-27.783-3.758 7.875-6.316 16.55-7.715 25.265-.96 5.916-1.96 12.072-4.358 17.39-2.158 4.436-6.116 12.911-11.673 10.593z" fill="#83b269" fill-rule="evenodd"/><path d="M177.532 152.787c-8.155 8.235-13.511 23.066-16.31 34.74-1.399 6.316-1.999 16.51 4.597 20.107 3.159 1.879 7.316.4 10.914-.24 3.758-.6 6.556-1.479 7.955-5.476 2.758-7.436-1.999-16.31-1.599-24.146.2-5.317 1.2-11.033.8-16.31-.4-2.758-1.2-5.077-2.799-7.195-1.16-1.48-3.558-3.838-4.157-.64z" fill="#c4e8b3" fill-rule="evenodd"/><path d="M252.087 250.528c-3.158-1.28-8.754 1.72-11.313 3.838-3.998 3.798-4.597 9.954-4.597 15.47 0 2.359 0 4.478-.6 6.596-.8 2.559-2.198 3.598-3.757 5.517-.8.84-2.2 3.398-3.598 3.838-2 .4-4.358-2.119-6.356-2.998-3.798-1.24-7.156-2.959-11.154-1.68-4.157 1.28-8.355 1.08-12.152-1.718 2.598.24 6.396-3.158 8.754-4.238 2-1.04 3.798-2.118 5.997-2.758 2.198-.4 4.557-.4 6.756-1.04 4.957-1.918 7.555-8.714 9.754-13.391 2.958-5.957 6.156-10.394 11.153-14.871 3.558-3.198 7.955-6.157 10.913-10.194 1.8-2.319 2.599-5.317 4.797-7.436 1.4-1.479 8.355-6.596 10.354-5.516.16.2.36 0 .36-.2-.36 2.318-2.159 4.677-2.958 6.996-1 2.318-1.6 4.877-2.399 7.435-1 2.319-1.799 4.477-2.598 6.796-.8 2.119-2.159 4.477-3.558 5.956-1.4 1.48-3.398 2.759-4.397 4.238zm-80.191-11.193c3.398-3.838 5.397-8.715 9.394-12.113 1.4-1.239 3.798-2.518 5.797-2.958 1.998-.44 4.597.64 6.356-.2-5.157 1.68-10.954 2.119-14.751 6.996-2.599 3.398-3.998 8.075-7.796 9.954zm47.091-15.111c3.358-.2 6.756-3.638 10.114-4.037 3.558-.44 6.916.2 10.314 1.279 3.558.84 7.116 1.719 10.873.64 3.598-1.28 5.357-3.239 8.715-1.52-3.158.24-6.916 2.159-9.874 3.238-2.598.84-4.957 1.48-7.555 1.04-2.16-.4-4.158-.64-6.317-.64-3.997.24-7.755 1.28-11.513.88-2.158 0-3.957.2-6.156.2z" fill="#255412" fill-rule="evenodd"/><path d="M171.656 224.064c-7.595 0-15.35-.24-22.906.2-2.998.24-6.196 1.959-9.155 2.599-3.198.64-6.596.64-9.794.839 7.995 2.359 17.55-.4 25.505-1.28 5.796-.639 11.353-2.598 17.11-2.598zm31.581-6.156c4.957-.64 9.914-1.08 14.87-2.359 3.199-.68 8.356-2.838 11.314-1.319-4.757-.44-9.714 2.599-14.471 3.238-2.199.24-4.358.44-6.556.24-1.76 0-5.357 1.48-6.956.4z" fill="#a2d18f" fill-rule="evenodd"/><path d="M130.76 56.646s14.912-31.621 41.336-31.821c0 0-21.827-1.52-41.335 31.82z" fill="#fff" fill-rule="evenodd"/><path clip-path="url(#a)" d="M28.023 127.882s-.2.24-.4.44c-3.558 1.72-22.346 12.513-10.753 43.934 0 0-12.193-29.702 11.153-44.374z" fill="#fff" fill-rule="evenodd"/><path d="M53.448 206.395s-6.796 11.433 5.356 28.782c0 0-9.354-14.79-5.356-28.782zm5.836 58.125s-3.598 16.39 33.5 28.462c0 0-31.141-8.914-33.5-28.462z" fill="#fff" fill-rule="evenodd"/><path clip-path="url(#a)" d="M132.92 321.765s33.06 26.864 64.68 13.872c0 0-28.822 12.152-64.68-13.872z" fill="#fff" fill-rule="evenodd"/><path d="M242.693 256.245s2.199-2.719 6.996-3.358c1.998-.2 4.357-.2 7.355.64 9.754 2.718 17.95 2.918 17.75-6.517 0 0 2.758 9.834-9.555 8.595-8.395-.84-10.194-2.718-14.95-1.879-4.798.64-7.596 2.519-7.596 2.519zm37.857-114.691s-4.397 5.117-3.198 10.834c1.2 5.956 6.196 15.07 4.397 27.143 0 0 1.6-8.035-.6-16.75-2.198-8.674-5.596-12.512-.599-21.227zm12.073-34.339c-4.917 0-4.518 2.319-4.717 6.956-.2 3.158.6 7.195 2.358 10.114-1.559-3.558-2.358-6.956-1.959-10.954.2-2.758 1.56-6.556 4.677-5.916zm10.393-2.958c.2-1.52 1-3.278 2.199-3.958 1 .44 1.999.88 2.798 1.32-2.798-1.32-3.597.879-5.197 2.838zM129.801 248.57c3.798-1.08 8.155 4.037 9.555 6.995 1.199 2.998 2.398 5.957 3.797 8.955.96 1.679 1.76 3.398 2.958 4.877 1.4 2.118 3.798 3.598 4.957 5.916-6.356-5.517-6.955-14.431-11.313-21.027-1-1.48-2.198-2.758-3.757-3.598-1.4-.84-4.398-1.04-5.197-1.919z" fill="#fff" fill-rule="evenodd"/><path d="M123.245 278.351c5.997 4.478 12.193 9.315 18.55 13.112m-24.865-17.989c1.598 1.28 3.157 2.279 4.716 3.518m-9.194-6.476c.84.64 1.439 1.08 2.039 1.48.2 0 .4.199.6.199m-45.293-92.344c-.2 2.159-.4 4.477-.6 6.596-5.197 36.978 15.07 63.522 41.895 83.03M69.998 167.538c.16 3.438 0 6.836 0 9.994m0-16.47v3.518m21.986-53.168c-3.158.88-5.916 2.359-9.274 5.517-6.356 5.957-9.314 14.232-11.113 22.906-1.2 5.757-1.4 11.913-1.6 18.03" fill="none" stroke="#fff" stroke-width=".32" stroke-linecap="round" stroke-miterlimit="8"/><path d="M88.306 158.104c-6.715-.84-8.514-11.793-16.07-10.913-.2-.44-.4-.88-.4-1.32m12.313 33.101c-2.598-1.28-3.798-.2-6.196.879-2.199 1.04-4.797 1.04-6.436 1.679m16.15 18.709c-5.597 2.758-7.596 8.914-13.992 10.153m26.305 13.113c0 4.917-1 11.513-4.798 14.95-1.599 1.48-2.998 1.48-4.397 3.838-.8 1.28-1.4 2.958-1.999 4.238" fill="none" stroke="#fff" stroke-width=".16" stroke-linecap="round" stroke-miterlimit="8"/><path d="M81.27 153.387c-5.116-4.437-.359-14.191.6-19.308 1-4.038 1.2-6.996 1-10.834-.2-2.118-.4-4.637.96-6.156m-3.519 62.122c-6.876-3.158-3.917-11.553-8.475-16.63m10.474 41.975c-2.758 4.677-5.716 10.993-10.474 13.512m26.904 10.633c.36 4.038-2.398 6.596-5.556 8.315-.96.6-7.316 3.358-7.516 3.358m8.955-24.304c-.76 1.078-1.16 2.757-2.159 3.797-1.6 1.479-4.597 2.318-6.796 2.918-2.958.84-6.956.44-9.354 2.718m37.337 23.507c-.96 4.037-.56 7.435-3.158 10.833-1.759 2.118-2.958 4.237-3.558 6.995m21.707 16.31c.76-4.237 1.32-7.395.56-11.832-.56-3.198-.76-7.236-.76-9.994" fill="none" stroke="#fff" stroke-width=".16" stroke-linecap="round" stroke-miterlimit="8"/><path d="M112.892 252.047c.76 2.159.4 6.796-.6 8.915-1 2.119-2.798 2.998-2.598 5.716m-4.038-19.508c-2.798 3.198-6.996 5.557-9.035 9.355m31.741 6.955c.56 4.877-3.718 9.475-3.917 14.312m-4.358-22.467c1 4.717-.8 9.634-1 14.312m15.991 1.519c1.28 4.637 3.358 9.474 3.358 14.311m-52.128-95.782c-2 2.359-5.797 3.398-8.595 4.277-1.999.84-4.997.2-6.596 1.88m20.388 24.864c-2.16.24-5.757 2.119-7.716 3.198-1.799 1.04-4.797 2.319-5.796 3.758m88.467 80.351c2.997 7.436-1.2 13.392-3.399 19.988-.8 2.319-.6 8.715-1.999 9.754m18.149-26.304c1.24 7.676 7.076 11.713 9.115 18.509 1.2 3.398 1.599 6.596 1.2 10.194" fill="none" stroke="#fff" stroke-width=".16" stroke-linecap="round" stroke-miterlimit="8"/><path d="M167.219 312.33c.2 2.56 1.199 5.317 1.199 8.276 0 2.758-.4 5.716.2 8.475 1 3.837 3.798 7.235 2.798 11.233m8.514-25.504c2.96 4.037 1.4 11.232.6 15.91-.4 2.958.4 8.035.4 9.914m12.992-30.622c1.8 0 7.516 4.038 9.275 5.757 1.959 2.118 3.558 5.077 3.758 8.275.4 2.958.959 7.635-1.2 9.954m14.152-11.354c-1.56-2.118-.36-6.795-.56-9.314-.2-2.558-1-3.838-2.199-5.956-1.998-3.398-3.557-5.517-6.756-7.676-1.958-1.679-3.757-3.398-5.716-5.077-1.4-1.279-3.798-2.358-4.597-3.637m29.821 19.028c-1.398-2.758-.999-6.596-2.798-9.114-1.199-1.72-3.797-3.438-5.596-4.278-3.198-1.279-6.596-1.479-9.594-2.998m-54.288 9.514c-2.158 2.799-1.958 7.476-5.116 10.434-2.799 2.558-4.758 4.477-7.116 7.675-2.199 2.959-3.598 5.517-3.598 8.915m-14.311-10.714c.8-1.679.4-3.797.6-5.716.4-2.559 1.199-4.238 2.998-6.356 2.198-2.759 5.196-4.278 5.796-8.075.4-2.759.8-6.796 2.758-8.315m-21.347-14.791c-2.358 2.798-4.357 4.477-7.515 5.996-2.559 1.28-5.757 2.958-7.715 5.317-1.8 2.118-3.598 5.956-4.598 8.515" fill="none" stroke="#fff" stroke-width=".16" stroke-linecap="round" stroke-miterlimit="8"/><path d="M156.425 305.615c-.96 0-.96.88-1.759 1.519-1.599 1.719-2.598 2.558-4.557 3.398-3.558 1.519-6.956 3.238-10.314 5.157-2.198 1.079-4.157 2.118-5.356 4.277-.6 1.28-1 3.398-2 4.038m-16.149-45.653c-4.158 4.238-4.158 8.675-2.959 14.192.6 3.158 1.6 6.356-1 8.435m24.586-7.356c-1.759 5.717-3.958 6.996-9.074 9.314-2.599 1.04-5.757 2.959-6.756 5.877m47.171 14.631c0 2.998 0 6.436-1.04 9.434-.639 2.359-2.078 4.078-2.318 6.396m16.51-14.631c.36 6.117-5.796 10.114-5.197 16.63m10.514-14.951c-.2 2.559-.4 4.917-.6 7.476-.2 1.919-.2 5.117 0 6.356m11.073-28.383c5.837 3.838.64 17.23 3.838 23.186m3.838-15.511c3.038 1.72 6.236 3.438 7.835 6.876m-4.797-28.302c2.439 2.998 2.239 10.433 2.838 15.11.6 3.398 2 7.236 3.798 9.994m4.477-26.784c.64 2.12 2.039 4.877 2.639 7.436.6 3.158 1 5.676 3.198 7.995M101.818 263.32c-2.758 2.999-5.756 4.478-6.356 8.915-.2 1.919.4 3.798.4 5.717 0 1.719-.8 3.597-1.2 5.316-.599 2.959-.599 8.235-3.397 9.714" fill="none" stroke="#fff" stroke-width=".16" stroke-linecap="round" stroke-miterlimit="8"/><path d="M112.612 283.788c-.76 1.52-.56 3.838-1.36 5.557-.759 1.479-1.958 2.518-2.718 3.797-1.16 1.48-2.558 4.038-2.558 5.517m24.065-14.871c.4 3.878-2.198 5.157-4.437 7.276-2.599 2.358-4.837 8.155-4.397 11.752M98.78 265.32c-1.16 2.558-3.358 3.837-5.756 4.916-2.559 1.04-3.958 2.119-5.957 4.438-3.358 3.637-8.914 4.277-12.912 6.156m8.155-37.977c-2.358 4.677-3.558 8.275-8.515 10.633-3.997 1.88-7.955 4.877-10.154 8.875-1.599 2.758-4.997 11.673-1.599 14.631m-.08-34.619c-.839-3.638 6.836-7.275 8.635-9.874 1-1.479 1.8-3.838 2.199-5.157m-3.998-14.392c-1.359 0-3.158 1.52-4.957 1.72-2.198.2-4.597-.2-6.796-.88-2.198-.64-4.597-1.958-6.396-.2" fill="none" stroke="#fff" stroke-width=".16" stroke-linecap="round" stroke-miterlimit="8"/><path d="M70.797 231.18c-.76 1.959-1.759 2.159-3.358 2.798-1.359.64-2.958 1.959-4.557 2.159-1.959.44-3.958-.2-5.357 1.919m21.747 10.154c-4.357 8.794-15.11 4.957-21.107 11.992m18.788-25.344c-1.559 3.398-3.158 6.596-5.516 9.314-2.359 2.558-4.158 4.677-5.757 8.035m21.347-3.197c-.2 3.637.96 7.235 0 10.833-1 3.837-3.598 7.235-5.396 10.833-1.4 2.958-2.599 5.956-2.999 9.114M66.32 213.83c.16.24.16.44 0 .68-2.798 1.28-5.557 4.078-8.515 4.917-2.159.88-4.917.88-6.116 2.798M66.8 198.24c-2.599 2.758-4.198 3.798-7.796 4.877-2.198.84-3.997 2.718-4.997 4.397" fill="none" stroke="#fff" stroke-width=".16" stroke-linecap="round" stroke-miterlimit="8"/><path d="M67.839 167.219c-11.753-1.48-15.95-19.109-21.707-27.624-2.199-3.398-5.796-8.514-9.194-10.433-2-1.04-3.998-.64-5.797-1.92m36.139 51.65c-4.758-1.04-8.516-5.357-13.113-7.276-5.357-2.399-9.514-.88-14.67 1.48-4.398 2.158-7.956 3.677-12.953 4.077-2.159.24-5.757 1.519-7.556.44m50.29-36.698c-9.114-.2-9.114-12.753-11.673-18.909-1.4-3.638-6.156-8.755-9.754-6.396" fill="none" stroke="#fff" stroke-width=".32" stroke-linecap="round" stroke-miterlimit="8"/><path d="M49.69 148.91c-2.758-.84-5.957-2.319-8.955-2.319-3.558 0-6.756 1.919-10.114 1.48-3.597-.2-6.995-2.12-10.353-3.159-1-.44-2.199-.64-3.198-1.08-.6-.199-3.198-1.079-2.199-.439M60.243 132.6c0-2.759-.799-5.077-.6-7.636 0-3.398 1.16-6.995.6-10.393-.799-3.598-3.997-8.515-7.595-9.155m4.158 67.639c-7.316-5.916-11.673-14.591-20.188-19.468-4.757-2.758-8.915-3.358-12.912-6.996m17.589-24.705c6.196 2.798 8.555 6.436 12.952 11.353 2.958 3.598 5.757 4.877 8.715 6.157M67.04 100.3c0 3.837-1.92 10.433.799 13.591m-7.196 63.362c-9.354-2.999-11.153 7.395-17.31 12.472-2.997 2.518-7.395 3.598-9.793 4.837m8.954-22.466c-5.556 0-9.714-1.08-14.71-3.078-2.76-.88-9.355-1.32-10.954.44" fill="none" stroke="#fff" stroke-width=".16" stroke-linecap="round" stroke-miterlimit="8"/><path d="M39.536 156.945c-5.557.6-11.953-4.038-17.35-4.038-2.598 0-7.395 1.28-9.194 0m25.345-6.796c-3.158 1.44-8.915-4.437-11.313-6.755-2.359-2.519-4.558-5.477-8.355-4.838m21.986.08c-3.957-3.198-13.511-1.479-16.31-5.356m24.945.319c-3.558-1.239-8.954-.839-11.753-3.997m19.269-3.998c-2.959-2.318-8.116-.84-11.513-1.879-.2-.44-.8-1.079-.6-.839m14.431-6.396c-1.16-3.198 0-5.757-2.318-8.555m-6.316 75.794c0 7.236-1.56 17.59-6.317 22.866m-8.475-27.663c-2.158 4.677-7.515 7.875-11.673 9.354" fill="none" stroke="#fff" stroke-width=".16" stroke-linecap="round" stroke-miterlimit="8"/><path d="M65.68 166.739c-7.555-3.158-8.155-7.436-9.514-15.27-.8-4.878-2.598-9.795-5.597-13.393-2.198-2.558-5.157-4.437-7.155-7.235-1.4-2.119-3.398-7.436-5.397-7.196" fill="none" stroke="#fff" stroke-width=".16" stroke-linecap="round" stroke-miterlimit="8"/><path d="M173.935 290.704c-8.555 1.479-25.865-12.353-31.661-26.184" fill="none" stroke="#fff" stroke-width=".32" stroke-miterlimit="8"/><path d="M107.095 235.058c5.797 3.797 13.552-1.72 19.508-2.359 8.955-1.28 16.31 8.475 25.065 7.435 4.198-.44 5.797-1.479 10.154-.2 4.397 1.24 6.556.64 9.954-3.197 5.357-5.717 5.357-12.073 13.712-14.632 6.795-2.118 14.35.64 21.107.84 3.598 0 7.155-.4 10.553-.84 4.358-.64 6.956-2.958 11.114-4.237 7.195-2.359 14.151 5.077 21.107 1.04 3.198-1.68 3.997-3.159 8.155-2.759 2.598.24 4.397 1.28 6.756 1.719 2.598.2 4.597-.84 6.556-1.919" fill="none" stroke="#fff" stroke-width=".32" stroke-linecap="round" stroke-miterlimit="8"/><path d="M107.975 255.805c1.758 2.998 1.559 7.276 2.318 10.873" fill="none" stroke="#fff" stroke-width=".32" stroke-miterlimit="8"/><path d="M100.979 214.03c-8.155.2-11.353-3.797-11.153-11.873.4-7.635-.8-13.152-2.999-20.347-2.998-9.155 1.4-12.952 3.398-21.427 1.6-6.996-1.199-14.232.8-20.788 1-3.398 3.398-6.156 4.397-9.554 1.2-4.037.8-7.835 2.359-11.873 1.599-4.237 4.397-8.275 6.796-12.112 2.398-3.798 3.797-8.475 6.756-11.633 3.397-3.398 7.395-4.917 10.993-7.236 1.399-1.04 2.398-3.158 4.157-3.598 1.4-.44 2.599.64 3.598.44 4.198-1.08 5.397-4.917 9.554-3.638" fill="none" stroke="#fff" stroke-width=".32" stroke-linecap="round" stroke-miterlimit="8"/><path d="M194.402 103.377c-13.831-6.596-20.987 14.871-24.945 23.786-4.757 10.154-8.115 21.427-11.513 31.58 2.399-12.272 5.357-24.584 10.514-35.418 2.398-5.317 3.358-10.393 7.555-14.63 4.917-4.878 10.074-4.238 16.23-6.397zm-38.776 58.885c-6.157 10.833-9.355 23.545-15.311 33.9-5.757 9.753-13.752 17.389-14.351 29.661-.6-6.556-1.2-10.154 1.998-16.31 2.799-5.477 6.796-8.675 9.755-13.952 5.996-10.193 7.195-25.024 17.349-31.58z" fill="#3a7c1f" fill-rule="evenodd"/><path d="M199.28 103.257c-4.198 0-8.955.24-12.953 1.72-5.357 2.118-8.115 5.956-11.313 10.833-3.398 5.077-5.357 11.673-7.555 17.39a1735.99 1735.99 0 0 0-7.956 22.306c-1.199 3.837-1.998 7.635-3.398 11.233 5.397-8.475 7.756-20.148 10.754-29.902 2.598-7.875 6.356-14.87 10.753-21.667 3.358-5.117 6.157-7.235 11.713-9.354 3.598-1.48 7.756-1.919 11.713-1.919zm-45.333 65.641c-3.958 5.516-6.756 11.033-9.355 17.39-2.558 6.155-7.355 10.833-10.713 16.35-3.798 5.916-7.196 10.393-7.396 17.988-.2 2.759-.2 3.838 2.199 4.478 1.999.4 3.798 0 5.197-1.48 0-.24.6-.64.8-.839-1.6.6-4.398 1.48-5.797 0-1.799-1.919.4-5.757 1.2-7.875 2.398-5.517 5.956-10.994 9.353-15.67 1.8-2.32 3.199-4.478 4.798-6.997 1.359-2.758 1.958-5.716 3.158-8.714 1.199-3.158 3.597-10.994 6.356-12.713z" fill="#8de297" fill-rule="evenodd"/><path d="M148.91 77.273c0 2.958-.6 5.917-.6 8.875 0 2.119-.2 4.477.2 6.596.2 1.679.6 3.398 1.4 5.277.799 1.719.399 3.198.199 5.077.4-.6 1-.4 1.6-.4.998-.2 1.998-.64 2.997-.64 1.56-.2 3.158-.84 4.957-1.08 4.358-.2 8.715-1.039 13.312-1.678 2.559-.44 5.157-1.04 7.755-1.48 1.96-.2 5.957-.2 7.156-2.318 1.16-2.558-2.598-5.956-4.397-6.996-2.159-1.279-4.358-1.918-6.556-2.958-2.958-1.28-5.757-2.758-8.555-4.677-1.959-1.28-3.958-2.319-5.956-3.798a20.807 20.807 0 0 0-4.957-2.558c-1.6-.44-3.558-1.08-5.157-.64-1.8.64-3.398 2.559-3.798 4.438z" fill="#23540e" fill-rule="evenodd"/><path d="M260.082 145.272c2.199 5.956 4.997 12.512 8.955 17.39 3.398 4.037 7.196 7.435 8.195 13.191 1.759 11.234-5.597 20.148-12.153 27.584-8.355 9.754-12.552 5.756-23.705 4.037-11.353-1.919-30.662-10.593-22.067-26.104 3.758-7.236 11.113-9.354 14.311-17.43 2.799-6.795-.2-17.189 4.398-23.345 6.756-9.355 16.51-1.28 21.667 5.117z" fill="#4aa054" fill-rule="evenodd"/><path d="M199.28 115.85c1.198-2.119 3.197-3.398 4.197-5.717.4-1.479.2-2.958.2-4.437-.2-1.48-.4-3.398 1.399-3.398 2.958.24 6.756 2.558 8.754 4.877.6.44 1.76 1.879 1.56 2.958-.16.64-1.76 1.04-2.36 1.28-1.198.4-2.398.6-3.397 1.479-.8.4-1.4 1.239-2.199 1.878-1.159.84-2.158 1.48-2.958 2.759-1.2 1.239-2.598.64-3.798 0-.999-.44-1.799-.84-2.598-1.48zm81.39 55.526c-1.16-3.598-1.959-7.196-3.158-10.793-1-2.759-1.2-5.917-2.159-8.675-.8-1.919-2.199-3.838-3.598-5.317-1.599-1.479-3.358-2.758-4.957-4.677-1.799-1.679-3.358-3.798-5.157-5.717-2.958-3.158-6.955-5.516-10.313-8.474-1.96-1.88-4.558-5.517-6.956-6.157 1.2 1.52 1.999 3.198 3.198 4.677 1.959 2.759 4.357 5.517 6.756 7.836 3.758 4.037 8.315 6.796 11.273 11.673 4.397 6.995 8.555 14.39 12.512 21.627.8 1.479 1.6 2.518 2.2 3.797 0 0-.2 0-.2-.2z" fill="#23540e" fill-rule="evenodd"/><path d="M277.752 141.234c1.958-2.718 1.599-9.314 0-12.032-2.599-5.077-4.997-9.315-9.754-11.873-5.957-2.958-12.313-4.437-17.51-8.875-5.357-4.477-10.713-9.314-16.91-12.312 2.2 2.998 6.996 5.117 9.954 7.835 2.999 2.758 5.957 5.517 9.555 7.835 4.357 3.198 8.155 6.596 11.713 10.794 4.397 5.117 7.155 12.912 12.752 16.75.2.4-.2 0-.4 0z" fill="#5aad2d" fill-rule="evenodd"/><path d="M274.354 141.075c-11.313-15.031-30.622-29.463-49.89-44.733-30.222-24.146-57.685-39.856-68.838-33.9m121.926 14.032c.2.24.4.24.6.44 1.998 2.318 1.598 5.276 5.196 5.716 3.198.44 6.197-2.559 9.994-1.68 2.599.64 4.597 1.68 5.997 4.238 1.958 4.198.2 8.875.8 13.112.399 1.48 1.158 2.759 1.558 3.998m-28.303-28.143c1.16.4 2.319.8 3.278 1.6m-7.515-2c1.2-.16 2.199-.16 3.358 0m-63.961-16.83c3.797-1.279 14.151-2.758 17.909-.839 4.357 2.119 4.157 2.119 8.355.64 1.998-.84 4.157-2.319 6.356-.84 1.599.84 1.999 3.358 3.598 4.198 2.158 1.479 4.557 0 7.155 2.118 1.36 1.28 1.96 2.759 2.559 4.637 1.599 4.438-.2 2.959-.6 7.196-.8 8.435 8.555 2.559 13.112.64m-21.827 51.089c-11.153-9.355-22.906-14.671-33.66-12.113 0 0-13.551 11.033-13.551 23.786 0 11.873-12.752 38.616 12.752 62.802m-64.76-90.386c-2.16 1.24-7.356-3.158-9.315-4.237-3.798-2.079-5.596-6.116-8.555-9.274-1.599-1.68-3.398-3.598-4.997-5.037-.999-.88-2.198-1.28-2.798-2.359m19.668 44.094c-7.315-5.957-19.428.24-27.383.639-3.958.2-6.956-1.48-10.114-3.598-1.799-1.28-3.998-2.998-5.996-2.758m-5.677 27.903c1.599 4.077 3.198 8.954 6.196 12.153 3.358 3.597 11.113 8.474 16.11 7.635 3.558-.64 6.756-3.198 10.114-4.038 2-.64 3.598.44 5.557 0-.2-.44-.36 0-.56-.2m-38.696 22.307c1.599 3.398 4.597 5.717 8.155 6.156 5.756.6 9.354-2.558 13.911-5.716 2.799-1.92 4.598-1.92 7.556-2.319 1.799 0 2.598-.44 3.957-1.519" fill="none" stroke="#fff" stroke-width=".32" stroke-linecap="round" stroke-miterlimit="8"/><path d="M108.774 98.62c1 1.28 2.798 1.92 4.158 3.198 2.158 2.119 3.358 5.117 4.557 7.876 1.359 3.597 1.959 7.235 2.958 10.833 1.36 5.317 3.518 7.236 6.476 11.033m-29.982 35.179c2.799 4.637 10.554-2.559 12.952-4.437 3.198-2.559 6.556-5.317 10.554-6.157 2.998-.84 10.354-2.758 12.313.64" fill="none" stroke="#fff" stroke-width=".32" stroke-linecap="round" stroke-miterlimit="8"/><path d="M113.651 134.119c-3.957-.24-7.715 2.078-11.913 2.078-3.358 0-5.956.4-8.954-.839m26.464-18.109c-2.958-7.356-13.832-.6-17.43-6.516m12.632-18.589c2.799 2.758 5.357 4.038 4.998 9.075-.2 1.918-.8 2.958-1.2 4.677-.4.6-.6 1.679-.8 2.318-.2.84-.399 2.08 0 1.68m10.434-13.273c-2.998-2.118.4-9.794-3.997-10.233 0 0-.24-.64 0-.4m7.795-2.078c-.2.439 1.32 2.158 1.72 3.197.719 2.159.719 3.838.359 5.757-.56 2.558-1.679 6.196-.96 8.714m-42.494 43.654c1 1.32 3.598 1.08 5.157 2.798 1.6 2.359 1.4 5.117 1.4 7.876 0 2.998-.2 10.033 1.758 11.313m-7.835-26.744c1.799 2.518 5.796 4.597 7.955 1.879 1.8-1.88 2.599-4.198 4.358-5.917M98.78 116.77c7.196 1.918 2.998 11.632 7.196 14.79m-20.308 41.735c3.398-.24 5.996 1.04 8.355 3.398 2.998 3.398 2.598 7.875 3.598 11.913 1 3.837 6.756 7.635 10.513 7.435m19.109-40.735c-3.558-1.48-7.116 1.28-10.714-.2-3.557-1.48-4.557-3.638-6.556-6.836-3.158-4.717-6.516-5.357-11.513-5.357m-9.194 59.005c1.2 2.118 1 4.877 2.998 6.995 2.159 2.12 5.357 1.72 7.316-.4 2.798-2.758 1.399-7.435 4.557-9.793" fill="none" stroke="#fff" stroke-width=".16" stroke-linecap="round" stroke-miterlimit="8"/><path d="M88.786 164.9c2.199 1.919 4.198 2.758 5.197 6.556.8 2.119.4 4.637.8 6.956m-7.116 8.675c1.399 1.039 3.198 2.278 5.357 1.439 1.599-.84 2.198-2.519 3.757-3.158m37.817-33.26c-4.197-4.877-12.592-2.319-15.39-8.675-1-2.119-1.4-4.037-2.998-5.756-1-1.24-2.599-2.319-3.598-3.398m32.62-17.549c-2.359 0-5.317-.44-7.715 0-2.759.439-5.157 3.197-7.756 4.676-3.757 2.12-6.716 2.719-10.114-.24m.48 70.038c-5.996.24-6.996 9.314-7.595 13.752-.6 2.958-.8 6.556-3.438 8.235m31.501-104.377c-1.56-.2-3.358-.6-4.957-.4-1.6.4-3.198 1.88-4.797 1.88-2.199 0-6.396-3.359-7.995-5.278-3.598-3.997-2.999-10.353-7.196-14.39M166.579 132c2.638.2 4.837-1.08 7.236.64 1.998 1.439 2.598 3.997 3.797 6.276m1.12-27.743c7.195-.88 11.193 6.156 10.993 12.712m-27.303 23.185c1.998-1.238 3.997-4.876 6.556-5.276 2.198-.24 3.997 1.48 5.756 2.758m-24.625 30.502c-1.2 1.479.6 7.156 2.798 7.995m5.677-22.186c2.438-.44 2.878.6 4.877 2.038" fill="none" stroke="#fff" stroke-width=".16" stroke-linecap="round" stroke-miterlimit="8"/><path d="M183.249 112.612c2.199 5.756-2.199 12.952 0 17.829m5.477-24.865c.999-.64 6.116.24 7.875 2.359.8.84.8 2.118 1.2 3.158.399 1.279.759 2.318.399 2.118m-32.74 30.902c2.598.64 2.398 6.116 3.757 6.955m3.199-18.628c3.158-.88 6.316-.88 8.474 2.158m4.318-21.507c1.199 2.759 3.398 1.28 5.596 1.72 2 .4 2.999 1.239 4.398 2.918m-49.85 88.346c.76-5.956-5.157-7.675-9.554-7.236m4.797 18.189c-2.559-1.039-5.157 0-7.556-1.479-1.799-1.079-3.198-3.637-3.797-5.157" fill="none" stroke="#fff" stroke-width=".16" stroke-linecap="round" stroke-miterlimit="8"/><path d="M139.795 199.36c1.36 2.358.6 4.476 1.16 7.035.2 1.08 2.118 5.117 1.958 3.638m7.157-30.982c-.6 2.559-1.96 6.956.359 8.635m9.594-26.304c.6 2.159-.24 4.717 1.6 5.997m-.561-15.671c3.358 1.08 4.358 1.919 6.716 4.397m-1.998-18.708c2.238-.4 4.437-1.52 6.436-.4 1.998 1.08 3.198 4.517 5.396 5.597m4.958-16.87c-.76-2.319-3.558-1.88-5.317-2.958-2-1.28-3.198-4.238-3.798-5.517m21.747-10.474c-1.16 5.357-10.834 1.32-13.592 1.96M135.798 215.51c-2.439-.4-2-10.314-4.877-9.875m4.557 16.51c-2.199 1.04-9.035-.24-9.674-3.438m56.446-113.051c-10.314-10.234-25.225 10.634-35.979 10.234m-7.195 23.346c5.197 3.637 7.795 7.675 11.553 12.552 2.398 2.758 5.396 4.237 7.955 4.637m-28.303 12.633c4.158 2.358 3.758 7.915 5.916 11.712 1.56 2.999 6.477 5.757 7.036 6.596m-9.753 13.592c-5.597-2.558-8.995 2.719-14.392 2.119" fill="none" stroke="#fff" stroke-width=".16" stroke-linecap="round" stroke-miterlimit="8"/><path d="M133.48 174.414c1.598-.84 3.397 0 4.956-.4 2.399-.44 5.157-2.158 7.316-3.437 2.398-1.32 5.356-3.039 7.315-1.72m-12.472-27.303c1.799 4.717 6.196 8.755 8.954 12.792 2.399 3.598 4.398 6.796 7.156 9.755.2-.4-.16-.6-.36-1.04m-11.433-41.335c6.996 7.196 16.91-3.598 22.866 1.92m-12.872-10.555c3.158 1.04 6.516 0 9.874 1.04 1.999.84 4.158 2.079 6.116 3.118" fill="none" stroke="#fff" stroke-width=".16" stroke-linecap="round" stroke-miterlimit="8"/><path d="M149.07 124.764c2.438 3.838 7.235 6.596 10.034 10.394 1.199 1.68 3.597 5.077 4.997 5.277m-16.311-30.302c2.2 1.28 4.198-2.318 5.757-3.598 2.199-1.519 4.197-2.158 6.556-2.998 5.157-1.279 9.914-1.719 15.27-2.158 4.358-.4 8.516-.4 12.873-.64 4.597-.44 7.355-.2 10.314 2.798m-71.317 76.553c1.999 2.76 5.197 4.678 7.156 7.636 1.399 1.92 1.998 4.038 3.957 5.117 2.599 1.24 10.354-3.398 10.714 1.04m-27.584 9.634c.6-.64 4.198 2.558 4.997 4.437.96 2.119.96 4.237 1.76 6.356 1.998 4.437 6.555 5.077 10.513 5.917m-3.838-65.561c7.796-.24 12.952 2.319 15.75 9.754 1.4 3.398 2.6 6.796 6.557 6.596m22.386-46.731c-3.358 2.398-10.154 6.476-14.151 4.997-2.359-1.08-3.958-3.238-6.356-3.918-2.2-.64-4.798-.64-6.996-1.08m-32.461 79.073c.4 4.077.4 8.994 1 13.272.4 3.398 1.599 7.235 5.157 8.075" fill="none" stroke="#fff" stroke-width=".16" stroke-linecap="round" stroke-miterlimit="8"/><path d="M163.061 306.015c-.8-2.999-.4-6.636-1-9.635-.639-2.998-2.278-5.556-2.278-8.594m15.671 20.867c.2-7.396 9.114-10.554 10.473-17.35m-20.707-35.658c0 2.559.4 10.434-3.758 14.471-3.598 3.638-8.195 4.677-11.193 8.715m20.707 11.193c2.799-5.716.2-12.312-.999-18.029-1.24-4.677.6-10.194 0-13.632" fill="none" stroke="#fff" stroke-width=".32" stroke-linecap="round" stroke-miterlimit="8"/><path d="M177.452 304.176c1-6.516 12.913-5.277 16.47-9.515m-22.306 14.632c-1.999-2.719-1.4-6.556-2.598-9.715-1.2-3.837-3.798-5.076-3.198-9.554m3.078-23.825c5.396 8.115 19.388 14.071 20.147 25.104m-26.464-22.146c-3.997.88-2.198 11.513-2.198 15.35m-10.034-37.337c1.599 5.717-1.4 5.957-4.637 9.554-2.599 3.159-3.198 6.117-3.438 10.114m17.189-14.631c.8 5.517-3.997 9.115-5.996 13.592-1.799 3.798-1.4 8.675-5.197 11.193" fill="none" stroke="#fff" stroke-width=".16" stroke-linecap="round" stroke-miterlimit="8"/><path d="M149.23 251.647c-4.957 0-9.315 1.2-14.312 1m-5.676-13.952c-3.158 3.198-10.714 7.236-14.312 8.475m11.034 4.477c16.75 11.474 17.35 33.5 29.662 48.131m14.311 5.037c-1.999-6.756 3.998-8.435 4.797-14.151m-14.271 10.793c.76-6.955-7.396-12.672-10.554-17.55-3.198-4.636-5.596-10.353-6.996-15.87m15.031-11.353c-2.758 6.357-10.713 4.478-14.311 10.154" fill="none" stroke="#fff" stroke-width=".16" stroke-linecap="round" stroke-miterlimit="8"/><path d="M101.658 245.811c2.599-2.678 6.357-3.758 10.114-3.758 3.758 0 9.514.44 12.673 1.08m49.689 28.183c-.2 3.198 6.956 3.437 9.555 4.717 3.957 1.679 6.356 4.237 8.754 7.875 3.158 5.077 8.115 16.39 5.557 22.107m-9.914-7.995c-2.399 1.718-.6 8.114-3.198 11.273" fill="none" stroke="#fff" stroke-width=".16" stroke-linecap="round" stroke-miterlimit="8"/><path d="M229.46 219.347c-.199 7.436-2.438 13.392-1.398 21.027 1 6.996 3.797 13.352 4.797 20.108 1.2 7.875.6 20.148-4.198 26.504m-43.213-60.123c.999 2.118 4.197 4.877 5.796 7.195 2.399 3.598 4.198 8.275 5.597 12.513 2.198 6.116 2.998 12.272 5.197 18.189 2.598 6.795 6.995 11.872 10.353 16.71m-18.788-3.279c-2.959-8.914-12.873-22.546-21.427-26.184-6.516-2.998-14.072-2.558-17.27-10.673" fill="none" stroke="#fff" stroke-width=".32" stroke-linecap="round" stroke-miterlimit="8"/><path d="M259.723 218.867c-1.96 4.678-2.16 10.434-4.758 14.671-2.598 4.278-6.795 5.957-10.393 8.955-3.198 2.519-5.997 5.717-7.796 9.354-1.599 2.959-1.798 7.196-4.397 9.315m-24.385 14.151c-4.397-18.189 13.912-33.42 4.397-50.77" fill="none" stroke="#fff" stroke-width=".32" stroke-linecap="round" stroke-miterlimit="8"/><path d="M200.558 262.041c-2.158-3.158-3.557-6.756-6.915-8.874-2.999-2.12-6.756-2.359-9.754-4.238-4.358-2.558-9.155-10.194-8.755-14.87m35.099 17.588c-.4-8.274-13.992-20.427-10.394-28.302m19.628 59.803c-.2-2.718 1.2-5.276 1.4-8.235.199-3.198-.4-5.956-.8-9.154-1.2-6.996-1.6-13.352 0-20.348.8-3.598 1.998-8.275 1.199-12.312-.8-3.358-3.598-6.117-4.397-9.754m50.129-4.797c-.36.24-.56.44-.56 1.279-4.757 3.837-5.156 8.914-7.155 14.67-1.16 4.238-3.158 6.117-6.916 7.396-2.958.84-8.915.24-10.314 3.598" fill="none" stroke="#fff" stroke-width=".16" stroke-linecap="round" stroke-miterlimit="8"/><path d="M191.604 271.795c-5.477-7.395-.76-17.39-4.717-25.264-2.559-4.877-11.433-9.115-11.233-14.871m-19.069 13.352c-4.517-2.08-9.474-2.719-14.031-5.037-3.958-2.12-7.916-2.959-11.314-5.917" fill="none" stroke="#fff" stroke-width=".16" stroke-linecap="round" stroke-miterlimit="8"/><path d="M187.766 256.525c1.4 10.633 9.115 15.31 13.072 24.465 3.358 7.875 6.916 8.515 14.032 11.033m-58.285-70.517c-3.158 2.158-7.116 5.756-5.716 10.433.4 1.72 4.357 8.275 4.957 7.876m9.634 1.039c-6.596-2.119 0-18.069-7.036-19.348m-40.296 0c-.4.44-.6 1.08-.8 1.519-.799 1.479-1.798 2.758-2.997 4.037-1.4 1.28-2.799 2.759-2.998 4.678-.4 1.878.4 3.397.999 4.877l.4.4m7.795-2.159c.56-2.319.72-4.678.36-7.436-.2-1.28-.56-2.798-.76-4.077m22.786 0c-.959 2.998-2.318 5.556-2.318 8.754.2 2.12.8 4.038 1.359 5.957" fill="none" stroke="#fff" stroke-width=".16" stroke-linecap="round" stroke-miterlimit="8"/><path d="M152.907 224.544c-1.159 1.519-2.158 3.198-3.158 4.917-1 1.28-1.999 2.958-2.398 4.677-.4 1.48-.6 5.077.8 5.917m-15.991-13.272c-.2 0-.2-.24-.2-.24.6 1.519.8 3.438.6 4.957-.2.84-.6 1.479-.4 2.318m-21.867-13.591c-.76 1.718-1.559 2.318-2.918 3.597-1 .64-1.4 1.68-1.999 2.719a13.06 13.06 0 0 0-.6 3.997m69.318 3.838c-.36-1.44-.76-2.718-1.559-3.958-.8-1.479-2.158-2.318-2.958-3.757-.6-1.28-.6-2.959-1-4.438m-6.795 3.118c.44 3.598 4.637 5.717 7.036 8.036.4.44 2.398 3.797 1.998 3.797m26.944-19.108c.64.88 1.44 4.237.64 4.637m-14.751-3.198c-.44 1.08.2 2.958.6 3.998m-5.198-1.839c-.76 1.079-.959 2.798-.959 4.037 0 .64.2 1.919.2 2.119" fill="none" stroke="#fff" stroke-width=".16" stroke-linecap="round" stroke-miterlimit="8"/><path d="M183.449 220.067c-.24.44 2.079 2.558 2.478 2.958m24.465-7.835c0 2.118 1.36 4.037 1.96 5.916.2.64.2 1.04.36 1.679v.64m-14.312-4.877c.8 2.958 5.596 2.718 7.355 4.797v-.2m21.147-9.995c-.2-.2-.2-.439-.2-.2 1.32 1.72.96 3.679 1.68 5.398-.16.2-.16 0-.16 0m15.19-4.118c2 .24.6 5.397.4 6.476m-3.598-6.876c.6 1.08 1.2 2.359 1.2 3.678 0 .84-.6 1.919-.6 2.319m11.153-1.759c-.24-1.48 1.44-2.519 1.44-4.238m13.032 4.558c1.599-1.92.799-3.838-.4-5.357" fill="none" stroke="#fff" stroke-width=".16" stroke-linecap="round" stroke-miterlimit="8"/><path d="M273.674 198.4c.36-2.958-2.199-7.196-2.998-10.154-1.2-4.477-2.598-8.915-5.357-12.752-3.798-5.077-9.354-7.396-14.75-9.954-11.114-5.517-19.669-13.992-26.225-25.025-4.597-7.436-9.354-23.586-20.108-19.308m67.16 81.19c-2.16-.4-4.758-3.597-7.356-4.237-4.757-1.28-10.114-.64-15.11-.64-10.714 0-21.668-.84-30.422-8.075-4.358-3.598-7.156-4.677-12.513-4.477-1.999 0-5.796.44-6.796-1.919m78.992 3.838c-3.158-3.358-3.957-8.875-6.955-12.513-2.799-3.597-6.157-6.356-9.155-9.754-4.997-5.476-12.552-6.996-13.951-15.27-1.2-6.996.8-16.51-3.598-22.267" fill="none" stroke="#fff" stroke-width=".32" stroke-linecap="round" stroke-miterlimit="8"/><path d="M195.601 154.107c1 3.398 5.797 4.437 8.595 5.716 5.357 2.718 10.554 4.837 16.31 6.516 4.198 1.28 8.195 1.28 12.353 1.68 3.997.439 7.156 2.118 10.753 3.157 4.598 1.04 16.35-1.679 18.909 1.88m-4.957 24.424c-2.958.2-6.556-.4-9.514-1.679-8.395-4.037-12.952-12.312-20.708-16.95-7.555-4.477-16.91-4.037-23.865-9.114-3.198-2.358-5.197-6.796-8.595-8.515m43.334 36.138c-4.757 0-6.157 1.68-9.355 5.237-2.398 2.759-3.598 4.438-6.796 5.237m36.778-46.452c-5.117-6.556-.76-13.312-.76-20.947" fill="none" stroke="#fff" stroke-width=".32" stroke-linecap="round" stroke-miterlimit="8"/><path d="M228.901 147.55c-7.155-9.754 5.317-22.906-2.198-31.82-.4.24.2.24.2.44m7.955 38.057c-3.358.2-6.956-1.24-10.554-1.04-4.797.2-8.595 0-12.752-2.718-2.998-1.919-5.197-2.559-8.795-2.759-1.599 0-5.397.64-6.196-.64m22.306-16.15c-1.759-4.037-5.157-16.15-10.953-15.51m-8.874 13.992c1.399 8.115 10.593 1.279 14.55 2.998 4.398 1.719 5.997 6.836 10.154 8.515m-11.673 21.547c-6.076 1.239-9.034-13.073-16.15-11.793v.84" fill="none" stroke="#fff" stroke-width=".16" stroke-linecap="round" stroke-miterlimit="8"/><path d="M207.434 148.23c-4.597.84-7.595-7.195-10.234-9.954m74.635 51.889c0 .44.2.64 0 1.04-1.359-6.997-3.957-15.711-8.754-20.788-4.758-5.317-12.913-6.796-17.51-12.313-1.959-2.558-3.158-5.956-4.957-8.715-1.999-3.158-3.598-6.356-4.557-9.954-.8-2.998-1.799-5.556-3.798-7.675-1.399-1.479-3.198-2.518-4.197-4.037" fill="none" stroke="#fff" stroke-width=".16" stroke-linecap="round" stroke-miterlimit="8"/><path d="M250.368 154.906c-3.158-2.318-6.156-3.398-8.355-7.196-2.558-4.277-2.558-8.714-3.558-13.391-.999-5.557-4.996-10.874-5.596-16.19m43.653 66.279c-.76-3.598-1.359-6.556-.959-10.593.2-3.398 0-6.596-1.4-9.794-1.558-3.398-4.916-6.596-5.316-10.634m-.16 48.411c-4.757-1.48-6.756-1.72-10.354 1.679-2.798 2.998-6.396 4.877-10.393 5.516-5.557.84-9.754-1.479-14.951-2.318-1.8-.2-6.396-.84-7.795 0m-21.427-13.192c1.399.4 2.998 1.239 4.397 1.04 2.598-.2 1.399-1.28 2.398-2.96 1.4-2.118 3.998-2.997 6.157-2.997m-21.827-17.989c.8.88 2.199 2.158 3.398 2.158 1.399 0 1.599-1.279 2.998-.88 1.599.44 3.998 2.76 5.597 3.639 3.158 1.879 3.158 1.479 6.156.64 2.199-.64 4.397.2 6.556 0m-21.507-40.736c.8 1.519 5.197 7.036 6.396 3.838 2.998-1.04 4.757-.84 6.556-4.038 1.6-.44 5.996-.2 6.556 1.08m3.558-22.387c3.878 4.277 0 6.796 0 11.473 0 3.158.96 5.916-.6 8.035m-17.829-9.474c3.438 2.518 7.516-3.638 10.714-.64m-.56-10.034c1.799 2.12 3.198 5.317 1.2 7.196" fill="none" stroke="#fff" stroke-width=".16" stroke-linecap="round" stroke-miterlimit="8"/><path d="M236.377 119.568c0 1.519 1.04 1.918 1.439 3.198.4 1.479-.2 1.719-.2 3.198 0 2.118.6 3.797 0 5.916m-7.956-15.43c.24 1.958.24 3.677-.239 5.836m18.189 16.95c0-.84-.2-1.72 0-2.359.4-1.28 1-.84 1.36-1.48.799-1.278 1.558-1.958 1.398-3.677m-21.507 49.25c-4.157 0-8.115-.44-12.312 0-3.758.4-8.115.4-11.913.2-1.56 0-7.356-3.478-7.755-1.719" fill="none" stroke="#fff" stroke-width=".16" stroke-linecap="round" stroke-miterlimit="8"/><path d="M203.597 118.448c0-6.556 2.798-12.512 2.958-18.908 0-4.677-1.76-7.836-4.717-11.234-3.158-3.837-3.158-7.475-4.957-11.513-.4-.2-.6-.4-.8-.64M182.73 98.3c-2.76-4.237-6.517-7.435-9.115-11.673-2.559-4.477-3.158-9.794-5.757-14.031-1.399-2.359-7.755-8.955-6.156-11.313m-13.112 15.51c-.8 2.999 5.157 7.436 7.355 8.715 2.36 1.52 5.157 2.559 7.316 4.677 2.758 2.999 4.357 6.796 7.316 9.555m65.44 5.836c.36 4.118-5.397 6.036-6.596 9.674m26.144 19.668c2.399-1.239 6.756-3.318 6.956-6.476" fill="none" stroke="#fff" stroke-width=".32" stroke-linecap="round" stroke-miterlimit="8"/><path d="M175.773 90.145c-.6-3.797-1.998-5.276-.6-9.314 1-2.558 2-5.317 2.2-8.075.2-2.159.56-5.956-.8-7.476m27.503 48.131c1.4-4.197 2.799-6.316 6.157-8.834 2.158-1.68 3.358-2.519 3.557-5.277.2-2.519.4-3.598 1.4-5.677.6-1.279 1.359-2.558 1.199-4.037m-7.955-5.277c.6 2.958 1 4.197-.44 7.156-1.04 1.679-1.24 4.797-2.079 5.636m-21.747-27.663c2.199 3.838 5.757 7.875 4.198 12.552-.8 2.519-4.198 3.158-4.398 5.917-.2 3.398 4.398 7.435 5.797 10.393m-20.588-35.018c3.239 2.118-.44 6.915-.2 10.273.4 0 .2 0 .4.2M151.068 65.6c.6 5.957 2.2 11.273 7.756 13.832 2.398 1.04 3.398 1.28 4.997 3.598a303.599 303.599 0 0 0 3.558 3.837c1.998 1.92 3.398 3.158 5.756 4.038 1.2.2 4.957 1.04 4.198 1.879m-13.233-.56c-1.798-1.24-3.797-2.958-5.996-2.318-1.999.44-3.198 2.558-5.197 3.158-2.198.84-4.597 0-5.836-1.88m8.715-28.542c-1.2 1.28-.8 3.398-.4 5.077.8 2.518 1.2 2.119 3.398 2.518 1.399.44 2.398 1.08 3.797 1.28 1.6.4 2.799-.84 4.158.2m-11.673 5.716c-1.4-.8-2.199-1.4-3.798-1.839-1-.4-2.798.2-2.998-1.439m75.914 22.786c.6 1.92 1.56 4.877 1 6.996-.6 2.958-2 1.719-3.998 2.958-2.399 1.28-3.198 4.677-4.797 5.717m14.631.4c1 0 2.399-.8 3.598-.6 1.399 0 2.598 1 4.197 1 1.8-.2 2.399-1.2 3.398-2.799m7.915 7.116c-.8 2.118.4 4.877 0 6.596-.4 1.479-2.438 2.518-3.278 3.557m10.754 5.678c2.438-2.92-.44-6.717 1.439-9.675m11.353 13.512c1 4.517 1.959 10.713-3.957 10.953 0 .4-.2.4-.4.4m10.154 5.037c-1.8-.24-3.198.64-4.797.64" fill="none" stroke="#fff" stroke-width=".16" stroke-linecap="round" stroke-miterlimit="8"/><path d="M199.2 101.259c-.6-2.559 1.358-6.157.399-8.515-.4-1.28-2.399-2.119-3.198-2.998-1-.84-1.999-1.92-2.758-3.198-1.2-1.68-1-3.598-2.199-5.517-.8-1.28-2.199-2.359-3.198-3.438m14.631 3.198c1.2 2.119 0 2.558-.4 4.237-.4 1.52-.2 2.559-.2 4.238" fill="none" stroke="#fff" stroke-width=".16" stroke-linecap="round" stroke-miterlimit="8"/><path d="M247.89 93.903c-1.16 3.438-.36 7.755-1.52 11.153-.599 1.32-.999 1.52-.999 3.238 0 1.28.4 2.799-.2 3.838m13.832-9.194c0 1.519 1.24 2.558 2.239 3.837 1.599 2.359 2.798 4.677 3.997 7.436 1.4 2.998 1.999 6.396 2.199 9.794.2 2.758.8 3.798 1.599 6.156.6 1.04 1 3.838 0 4.437m-24.185-43.333c-.76 4.717-5.117 3.637-8.635 5.117-1.4.64-5.357 4.277-4.757 5.756m3.957-18.348c-1.159-.68-1.958-1.52-3.358-1.76-1.998-.44-3.997.68-5.796 1.08-2.599.88-4.957 1.519-7.556 1.319-2.998-.2-5.796-1.72-8.794-.64" fill="none" stroke="#fff" stroke-width=".32" stroke-linecap="round" stroke-miterlimit="8"/><path d="M241.014 95.182c-5.557.4-10.114-6.076-16.07-6.076-2.399 0-4.797 1.08-6.396 1.28m28.622 6.555c0 4.478 1.4 7.436 4.557 9.994 1.36.84 2.559 1.48 3.159 2.958.4 1.28 0 2.559.4 3.838.559 1.879 2.558 2.958 2.758 4.877.16 1.04-1 3.798-1.2 3.998m5.676-13.832c.6 2.159 2.4 4.038 3.599 5.757 1.599 2.318 2.958 4.877 4.757 7.195 1.599 2.559 3.957 4.877 5.556 7.436 2.2 3.797 2.599 7.835 2.959 12.072M230.86 82.31c-1.799.24-3.598 1.28-4.997 2.559-1.599 1.719-1.399 1.719-3.598 2.118-2.798.44-4.797 1.48-7.395.44m7.675-3.358c-2.758.4-6.756-2.359-9.354-3.638-2.199-1.08-4.557-.24-6.756-.88-1.4-.639-2.599-2.318-4.397-2.957-1.2-.64-3.798-.88-4.598-1.32m48.77 17.83c0 4.957-5.476 2.998-6.675 7.075-.84 1.92 1 5.797 1 8.115m13.191-9.674c0 3.838 1.4 6.396 3.398 9.155 1.8 2.518 1 5.077 2.399 7.635 1 2.319 2.998 3.798 3.797 6.116.56 2.12.56 4.038.56 6.356" fill="none" stroke="#fff" stroke-width=".16" stroke-linecap="round" stroke-miterlimit="8"/><path d="M270.516 122.286c1.679 2.558 2.479 5.077 2.279 8.035-.2 2.359-.8 5.717-.2 7.396m-32.061-50.65c-2.758 3.718-8.515-.44-11.513 3.518m46.132 30.821c0 1.08 1.6 2.759 1.8 4.238.199 1.519-.4 2.558-.4 4.237" fill="none" stroke="#fff" stroke-width=".16" stroke-linecap="round" stroke-miterlimit="8"/><path d="M298.5 214.07c-1.16-2.958-1.36-5.916-3.159-8.435-1.999-2.958-4.797-4.477-6.196-7.835-1.36-2.958-.96-5.716-3.358-7.835-1.4-1.28-5.197-1.72-6.396-1.08m22.626-21.347c-6.196-9.314-4.597-23.305-6.396-33.939-1-5.317-2.599-15.91-8.795-16.35m13.672 70.277c-4.757-4.437-5.157-12.872-11.313-15.63-5.197-2.359-4.398 2.119-7.796 3.358m-8.874 43.973c5.836 4.837 9.034-.64 14.471-1.719 2.998-.64 7.795 1.08 8.395 3.838m-54.367 35.498c4.757 6.237 5.956 8.795 13.712 7.076 3.957-.84 7.315 0 10.673 2.119m-27.983.479c1.4 2.759 2.599 5.117 4.797 7.236 2.559 2.758 4.358 4.677 4.557 8.915.2 4.877-1.798 9.354 1.76 13.352-.36-.2-.76-.6-.96-1.04m-27.663-11.193c2.598 1.52 4.597 3.878 6.196 6.876 1.2 2.358 1.2 5.157 3.798 5.996m76.913-149.43c-5.597-7.395-5.996-16.35-5.197-25.464.2-4.237.8-11.673-2.798-14.67" fill="none" stroke="#fff" stroke-width=".32" stroke-linecap="round" stroke-miterlimit="8"/><path d="M283.708 137.397c.8 3.837.2 8.275 1.2 12.312.999 4.478 4.397 7.636 6.595 11.473 1.6 3.158 1.2 5.917 1.6 9.515.2 2.358 1.199 4.677 1.399 6.995m-7.836-43.413c3.198 2.358 2.199 8.914 4.997 11.633 1.8 1.719 3.398 1.279 4.997 3.797m-8.515-40.815c0 .2-.6-.44-.2.44 2.999 1.479 6.756 1.04 8.755 4.877 1.2 2.118 1 5.077 1.2 7.435 0 2.319 0 4.438.999 6.556 1 1.92 2.598 2.998 2.958 4.877m2.958-33.179c0 2.158 2 3.198 1.4 5.756-.2 1.719-1.2 2.998-1.4 4.877-.4 2.998-2.798 5.557-2.798 8.075m-7.515-11.593c.4-.88 2.358 3.998 2.758 4.837 1 1.24 3.558 1.68 3.718 2.279m-12.473 79.951c-.56-2.078 0-6.116-1.559-7.795-1.759-2.119-5.916.44-6.916-2.758m-4.877 21.227c5.037 4.437 4.438-1.48 7.236-4.238 2.199-2.118 5.397 0 6.996-1.878m-12.713-2.599c.24 3.638 3.438.2 4.837-.44 2.239-1.079 3.838-.64 4.038-3.677.2-.24.6 0 .8 0m10.313 28.143c-1.559-5.557-8.315-11.353-13.911-8.555-2.559 1.279-2.359 4.077-5.757 2.798-1.799-.44-2.598-1.919-3.598-3.438m14.791 23.106c-1.998.2-4.397 1.04-6.396-.2-2.198-1.479-1.799-3.797-2.798-5.716-1.2-2.519-3.598-3.598-3.998-6.556m9.595 24.784c.4.44.76.44.959 1.04-1.36-3.558-3.758-5.477-6.956-6.556-2.398-.84-3.997-1.24-5.596-3.598m7.515 15.351c0-.84-1.56-2.998-2.558-3.638-1.4-.64-2.799.24-3.598-1.08m-13.672 6.557c2.598.84 4.357 2.958 5.357 5.477.6 1.479.2 3.557 2.158 3.957m-19.507-11.113c.599 1.28 1.998 1.919 2.598 3.198.4 1.08-.2 2.358.2 3.638.8 2.558 3.597 3.837 5.156 5.316.2 0-.36-.64-.36-.839m-16.869-3.478c1.2 4.677 6.956 5.717 9.914 8.475 2.958 2.758 2.558 4.677 1.959 8.035-.4 2.559-1.4 6.356.2 8.675 1.199 1.919 4.557 2.558 5.516 2.958" fill="none" stroke="#fff" stroke-width=".16" stroke-linecap="round" stroke-miterlimit="8"/><path d="M278.671 142.753c0-.4 0-.64.4-.64 1.599 4.438.6 9.955 3.997 13.113 1.76 1.919 7.356 2.758 7.916 4.637m-12.793-1.119c2.599 1.679 4.158 2.918 7.516 3.558 1.759.4 6.716 3.078 7.275 2.878m-11.992 12.872c3.158 4.677 9.274-1.959 13.991 1.28M279.71 165.38c4.598.24 4.598 3.198 8.156 6.156m7.115-37.257c-.56-1.88-.96-3.118-2.518-3.758-1.56-.64-3.278.64-4.278-.64m5.517-6.476c-2.598-.4-2.199-9.674-7.635-10.074 0 0-.2-.88 0-.44m14.751-1.479c.2-1.039 2.158-9.274 1.199-8.195m-50.29 156.945c-1.359.2-3.757-1.519-5.156-1.958-2-.84-2.999-.64-4.198-3.039m3.837 27.823c-1.198-1.479-3.197-3.198-4.996-2.958-1.2.2-1.6 2.759-2.998 1.04m-5.676 8.954c1.038 2.359 4.037 2.159 5.836 3.398 1.998 1.48 2.598 4.038 3.997 6.356m-17.989-10.553c1-.24 2.798 2.318 4.197 2.958 1.8 1.04 3.199 1.04 4.997 2.119 1.4 1.039 4.957 4.637 4.198 5.476m-26.184-16.47c2.998-1.279 4.197 5.277 5.996 6.716m32.46-19.988c-2.758-1.039-4.917 0-7.675-.2-2.358-.4-3.158-2.278-4.157-4.197m7.994 22.426c-1.998 0-8.794 1.24-8.594-1.719m44.094-51.888c-2.6.4-4.598-2.638-7.196-2.638m-1.12-24.146c1.8 1.08 3.598 1.959 5.397 1.28 1.4-.44 2.159-2.4 3.558-2.839 2.398-.44 5.397 3.958 6.156 5.237m11.673-30.942c-5.676-6.595-2.918-15.99-2.918-24.544m4.277-19.269c.4 3.838 1.4 7.636 1.76 11.433.399 2.359.799 5.717 2.718 7.196" fill="none" stroke="#fff" stroke-width=".16" stroke-linecap="round" stroke-miterlimit="8"/><path d="M270.996 114.93c-1-4.637-1.4-10.154-1.2-14.83.2-4.678 2.399-10.194.2-14.672-1.599-3.598-4.837-5.716-4.197-9.994m12.392 46.852c2.599-1.879 3.998-9.994 4.797-13.392 1-5.117 2.36-8.915 7.356-9.994 1.999-.44 4.357-.2 6.156-1.08 1.4-.399 2.199-1.478 3.358-1.918m-70.437-37.977c.8 6.396 3.998 10.234 9.394 12.792 3.998 1.919 6.197 2.119 7.796 6.356 1.399 2.998 3.557 7.036 3.757 10.434 0 2.119-.76 4.477-.76 6.796" fill="none" stroke="#fff" stroke-width=".32" stroke-linecap="round" stroke-miterlimit="8"/><path d="M269.796 102.738c-.64.2 0-1.08.2-1.92.6-1.718 1.6-2.997 2.799-4.277 2.598-2.118 6.596-2.958 8.994-5.316 2.199-2.119.6-6.197 2.399-8.115m-35.498-.96c.16-2.518-.8-6.996-1.6-9.354-1.199-3.398-3.957-3.598-6.156-5.957-2.798-2.758-3.198-9.354 1-11.073m-6.517 13.992c-2.558-3.558-9.514-.84-12.512-5.277-1.56-2.079-1.56-4.437-3.558-6.116-1.4-.84-3.198-.84-3.598-2.759m53.808 55.806c-.56-8.434-7.356-12.912-12.513-17.989-2.398-2.558-2.998-3.797-1.999-7.635.4-2.119.8-5.277 1.8-6.996" fill="none" stroke="#fff" stroke-width=".16" stroke-linecap="round" stroke-miterlimit="8"/><path d="M275.873 94.863c1.2.4 2.398-.24 3.598-.24 1.958-.2 3.917.24 5.716-.4 1.4-.44 1.959-1.48 2.958-2.359 1-.64 2.599-.4 3.158-1.039 1-.88 1.6-10.674 3.358-8.955m-5.836 17.39c1.44-1.04 2.838-1.04 4.038-2.719 1.399-2.118 1.199-4.437 1.998-6.755.4-1.44 2.799-5.477 3.798-4.598m-15.95 25.425c-.2-5.557 7.155-8.355 11.153-8.355 1.759-.24 5.956.64 7.116-.68m-29.582-10.313c-1.04-3.598 1.199-6.356 2.598-9.315 1-2.358 1-4.277 1-6.836m-5.158 22.626c.36-4.836-4.797-6.315-7.355-9.074-1.999-1.879-4.597-9.034-2.199-11.393m-12.112-1.119c-2.439-5.077 5.236-7.835 5.037-12.553m-4.477 29.183c1.958-5.517-10.394-15.111-14.352-17.47-1.999-1.279-2.998-.2-5.197-.44-1.799 0-2.798-1.039-3.997-2.558m54.206 46.772c-.4-2.519.6-6.996-1.598-9.954-1.56-1.919-3.558-2.758-3.558-5.517-.2-3.598 3.957-6.356 6.116-8.515" fill="none" stroke="#fff" stroke-width=".16" stroke-linecap="round" stroke-miterlimit="8"/><path d="M172.016 62.162c-6.396-7.195-.4-16.55 0-25.264 0-3.798.56-9.754-.8-12.953m-51.089 62.842c-1.399-.4-2.198-2.118-3.797-2.958-1.6-.88-3.598-.88-5.597-1.519-1.999-.64-3.198-1.28-4.437-3.198m-3.998 27.343c-3.158-.799-5.956-.2-9.314-.4-3.558 0-7.356-.2-10.914 0-2.598.2-6.756 0-8.954-1.438m128.522-30.462c4.157-10.234-2.599-19.388-.2-29.622.8-3.638 1.559-6.396 3.358-9.154.8-1.08 1.399-2.16 1.759-3.438" fill="none" stroke="#fff" stroke-width=".32" stroke-linecap="round" stroke-miterlimit="8"/><path d="M168.738 54.807c-1.96-2.759-2.719-6.356-2.918-9.754 0-2.799.959-7.036-1.2-9.155-1.559-1.519-2.558-1.519-3.158-4.277-.4-1.48-.4-2.758-.4-4.477M131.8 82.31c-.76-.84-1.559-1.879-2.159-2.958-1.798-2.958-2.598-3.598-5.196-5.077-2.599-1.28-3.198-3.398-3.998-5.956" fill="none" stroke="#fff" stroke-width=".32" stroke-linecap="round" stroke-miterlimit="8"/><path d="M133.799 48.65c1.599 3.798 6.356 5.717 8.515 9.075 1.599 2.319 1.199 5.517 2.198 8.035.96 2.758 2.359 5.677 3.918 7.995m20.987-23.985c-.2-2.918 1.8-6.076 3.998-7.995 2.758-2.519 8.115-2.519 10.314-5.877 1.998-3.358 1.199-8.235 3.158-11.393m13.671 5.117c1.6 4.477-.8 8.115-2.398 12.153-1.6 3.637-1 7.675-.2 11.513.6 4.037 4.397 6.196 4.597 9.994m-.479 11.193c1.599-3.358 3.957-7.596 4.717-11.633.6-4.437-1.56-9.554 0-13.792 1.399-3.158 4.917-3.797 6.276-6.356.8-1.28 1.599-3.158 1.959-4.037m4.877 3.997c-2 1.919-2.998 5.277-4.597 7.596-1 1.878-.2 3.597-1.24 5.036m7.995-.799c.6-1.679 3.998-5.637 3.798-6.716m-35.538-22.306c1.599 5.116-2.04 9.794-2.639 14.91-.6 2.519.2 3.598 1 5.917.84 2.998-.2 4.037-1.8 6.396-2.238 2.758-3.677 4.877-3.677 8.515 0 1.28.64 5.916.44 5.916" fill="none" stroke="#fff" stroke-width=".16" stroke-linecap="round" stroke-miterlimit="8"/><path d="M176.973 39.776c.96-3.998 1.12-6.316 0-10.314-.56-1.879-1.52-4.597-.92-6.316M148.15 33.46c-1.399 2.158 1.4 6.396 3.758 7.275 1.4.4 2.998 0 4.397.2 1.36.2 2.159.84 3.358 1.28 2.559 1.279 2.359 1.479 3.558 3.637.8 1.48 1.999 2.119 3.358 2.958m-26.384-8.235c-.2-.24-.2-.24-.4-.24.8 2.12 3.558 2.559 4.358 4.678.8 2.318.4 6.116.8 8.674.199 2.32 1.158 3.998.799 6.317-.4 1.918-.8 3.198-.8 5.276m-15.311-10.353c3.198 4.677 9.355-1.96 12.313 1.719m-17.11 8.554c-.2.2-.4-.24-.4.2 1.4 3.398 7.356 1.72 9.915 1.92 3.757.439 5.356.639 7.355 4.237 1.56 2.558 5.157 6.596 5.517 9.554m-18.309-2.159c-3.518-1.839-6.676-1.439-10.394-1.439-2.159-.2-3.957-1.04-4.557-3.358m1.119 9.595c-3.198-.8-3.598-4.598-4.637-7.116m-1.519 17.989c-4.357-2.12-10.354-1.04-15.15-2.359-2.999-.64-5.198-2.998-6.997-4.517m-9.114 8.874c7.955 0 15.27 5.717 21.587 10.314m-12.792-.04c-4.758-.44-10.914 7.875-15.511 3.838" fill="none" stroke="#fff" stroke-width=".16" stroke-linecap="round" stroke-miterlimit="8"/><path d="M108.294 94.623c-1.359-.6-3.118-1.24-4.117-2.519-1.76-1.919-1-2.958-1-4.877 0-1.719-1.958-6.596-3.357-6.356m-3.039 12.392c-1.599-1.439-2.598-2.078-3.398-3.957-.6-1.68-1.199-3.118-2.438-3.558m10.314 7.795c-2.16.84-3.958 2.519-6.117 3.318-2.958 1.04-5.157 0-7.915-1.239-1.799-1.04-6.156-.2-6.756-2.518m-.799 16.789c-1.8.64-2 3.398-2.799 5.117-.8 1.68-1.799 3.838-2.998 5.517-1.199 1.719-3.198 3.598-5.397 2.998m20.788-23.345c-2.798 1.239-5.197.839-8.195.399-1.4 0-3.798.24-4.597-.84" fill="none" stroke="#fff" stroke-width=".16" stroke-linecap="round" stroke-miterlimit="8"/><path d="M202.397 192.403c-8.115 1.08-12.512 7.876-19.668 10.634-6.956 2.518-13.512-.24-20.267 1.24-7.556 1.918-15.71 8.274-16.51 16.749m47.651-51.169c-1.16 1.28-8.115 2.758-10.114 3.398-3.398.6-6.156-.84-9.355-2.119-3.757-1.479-13.911-3.598-16.51 1.28m27.504-42.295c-.4 5.077 3.798 8.915 6.196 12.712 1 1.68 1.6 2.959 2.199 4.838.4 1.718 0 3.397 1.359 4.437" fill="none" stroke="#fff" stroke-width=".64" stroke-linecap="round" stroke-miterlimit="8"/><path d="M184.408 173.055c-5.157 7.276-14.271 6.196-21.427 8.755-3.158 1.08-13.512 6.596-12.712 10.433m45.652 2.319c-3.638 3.398-5.436 8.315-5.876 13.392-.4 4.038-.2 7.635-2.838 10.594m-10.314-14.472c-6.117-.84-8.075-5.676-13.432-8.634-4.557-2.559-8.515-2.559-13.672-2.559m42.614-47.011c-2.958-5.277-12.112-.6-15.51-3.558" fill="none" stroke="#fff" stroke-width=".32" stroke-linecap="round" stroke-miterlimit="8"/><path d="M194.882 119.887c.2 2.999.8 8.315 2.318 10.874m-3.597 33.739c-2.359.4-4.558 3.198-7.316 3.838-2.958.4-5.756-.24-8.515-1.08-4.757-1.279-7.755-5.756-12.312-6.835m40.295 37.377c-3.158-1.08-6.116 9.075-7.115 11.393-1.4 3.598-2.959 5.477-5.757 7.995" fill="none" stroke="#fff" stroke-width=".16" stroke-linecap="round" stroke-miterlimit="8"/></svg>