<svg xmlns="http://www.w3.org/2000/svg" version="1.0" viewBox="0 0 579.386 121.856"><defs><clipPath clipPathUnits="userSpaceOnUse" id="a"><path d="M2.958 7.356h581.008V130.56H2.958z"/></clipPath></defs><path d="M516.007 38.631c0-2.198-.76-7.995 1.28-9.674 1.559-1.359 3.397 1.12 4.917 2.239 3.877 2.758 7.515.52 9.074 6.076 1.799-1.399 1.799-6.916 2.838-9.114 1.28-2.759 4.158-8.315 7.516-7.756 5.956 1.12-.52 22.946 5.676 19.908-.24 2.759-1.799 5.237-3.078 7.156 1.52.28 2.838-.56 4.118-.84 2.078-.24 4.677-.799 6.716-.52 2.598.52 4.677 1.92 7.275 1.64 3.078 0 6.196-.28 9.035 0 1.04 0 5.197-.28 5.956.84 1.28 1.638-4.117 3.597-5.437 4.397-5.676 3.038-12.912 4.157-19.148 5.796 3.118.84 6.716.28 9.834.84 2.838.56 2.598 1.639 4.677 3.597 1.52 1.64 3.078 1.64 5.437 1.92 1.799.559 3.598 1.398 5.437 2.198-4.438 1.4-10.114 0-14.512-.24-4.157-.28-7.755.24-11.912.24 3.637 0 6.995 1.679 10.113 3.318 2.08 1.12 6.197 3.318 7.236 5.277-9.594.24-19.148-3.598-28.463-5.277-2.318-.28-3.637.28-5.676.84-3.918.839-6.476-2.48-4.158-6.637 1.28 2.24-6.196 14.072-8.554 15.191-3.079 1.92-4.398-.84-4.398-3.877-1.04.84-1.28 3.038-3.078 1.958-.28-1.679.24-3.877 0-5.796-.52-4.717-1.559-9.394-2.079-14.112-.8-6.875-.8-13.511-.8-20.427z" fill="#025910" fill-rule="evenodd"/><path clip-path="url(#a)" d="M519.645 46.732c0-2.199-.76-7.995 1.28-9.674 1.558-1.36 3.397 1.119 4.916 2.238 3.878 2.759 7.516.52 9.075 6.077 1.799-1.4 1.799-6.916 2.838-9.115 1.28-2.758 4.158-8.315 7.516-7.755 5.956 1.119-.52 22.946 5.676 19.908-.24 2.758-1.799 5.236-3.078 7.155 1.519.28 2.838-.56 4.117-.84 2.08-.239 4.678-.799 6.716-.519 2.599.52 4.678 1.919 7.276 1.64 3.078 0 6.196-.28 9.035 0 1.039 0 5.196-.28 5.956.839 1.28 1.639-4.118 3.597-5.437 4.397-5.676 3.038-12.912 4.157-19.148 5.796 3.118.84 6.716.28 9.834.84 2.838.56 2.598 1.639 4.677 3.598 1.52 1.639 3.078 1.639 5.437 1.919 1.799.56 3.598 1.399 5.436 2.198-4.437 1.4-10.113 0-14.51-.24-4.158-.28-7.756.24-11.914.24 3.638 0 6.996 1.68 10.114 3.318 2.079 1.12 6.197 3.318 7.236 5.277-9.594.24-19.148-3.598-28.463-5.277-2.318-.28-3.638.28-5.676.84-3.918.84-6.476-2.479-4.158-6.636 1.28 2.238-6.196 14.071-8.555 15.19-3.078 1.92-4.397-.839-4.397-3.877-1.04.84-1.28 3.038-3.078 1.959-.28-1.68.24-3.878 0-5.797-.52-4.717-1.56-9.394-2.079-14.111-.8-6.876-.8-13.512-.8-20.428" transform="translate(-3.638 -8.1)" fill="none" stroke="#025910" stroke-width=".48" stroke-miterlimit="8"/><path clip-path="url(#a)" d="M519.645 46.732c0-2.199-.76-7.995 1.28-9.674 1.558-1.36 3.397 1.119 4.916 2.238 3.878 2.759 7.516.52 9.075 6.077 1.799-1.4 1.799-6.916 2.838-9.115 1.28-2.758 4.158-8.315 7.516-7.755 5.956 1.119-.52 22.946 5.676 19.908-.24 2.758-1.799 5.236-3.078 7.155 1.519.28 2.838-.56 4.117-.84 2.08-.239 4.678-.799 6.716-.519 2.599.52 4.678 1.919 7.276 1.64 3.078 0 6.196-.28 9.035 0 1.039 0 5.196-.28 5.956.839 1.28 1.639-4.118 3.597-5.437 4.397-5.676 3.038-12.912 4.157-19.148 5.796 3.118.84 6.716.28 9.834.84 2.838.56 2.598 1.639 4.677 3.598 1.52 1.639 3.078 1.639 5.437 1.919 1.799.56 3.598 1.399 5.436 2.198-4.437 1.4-10.113 0-14.51-.24-4.158-.28-7.756.24-11.914.24 3.638 0 6.996 1.68 10.114 3.318 2.079 1.12 6.197 3.318 7.236 5.277-9.594.24-19.148-3.598-28.463-5.277-2.318-.28-3.638.28-5.676.84-3.918.84-6.476-2.479-4.158-6.636 1.28 2.238-6.196 14.071-8.555 15.19-3.078 1.92-4.397-.839-4.397-3.877-1.04.84-1.28 3.038-3.078 1.959-.28-1.68.24-3.878 0-5.797-.52-4.717-1.56-9.394-2.079-14.111-.8-6.876-.8-13.512-.8-20.428" transform="translate(-3.638 -8.1)" fill="none" stroke="#025910" stroke-width=".48" stroke-miterlimit="8"/><path clip-path="url(#a)" d="M4.118 60.803S12.432 37.577 32.06 33.14c19.668-4.397 36.258-16.55 43.493-13.272 7.236 3.318 16.55-4.397 25.865-3.278 9.314 1.08 32.1-4.437 45.532-1.12 13.472 3.319 62.122-4.437 80.751 1.12 18.629 5.517 75.514 3.278 96.222 4.397 20.707 1.12 40.375-7.715 55.886-4.397 15.55 3.278 34.18-9.954 44.493-7.755 10.354 2.198 52.288-4.717 78.672 17.669 5.157 4.437 14.471 9.954 15.51 15.47 1.04 5.557 8.276 23.226 2.08 37.618-6.197 14.351-4.118 29.822-20.708 34.259-16.55 4.397-45.532 19.868-57.925 14.351-12.432-5.516-49.69 3.318-93.143-5.516-43.494-8.835-110.773-11.074-128.363-17.67-17.589-6.636-31.02 1.08-45.532-6.636-14.471-7.755-26.904 0-50.69-12.152-13.711-6.916-103.497 3.278-111.772-5.557-8.314-8.835-8.314-19.868-8.314-19.868z" transform="translate(-3.638 -8.1)" fill="#f44508" fill-rule="evenodd"/><path clip-path="url(#a)" d="M4.118 60.403s0 11.074 8.314 19.908c8.275 8.875 98.061-1.359 111.773 5.557 23.785 12.153 36.218 4.397 50.729 12.153 14.471 7.755 27.943 0 45.532 6.636 17.59 6.636 84.869 8.834 128.323 17.709 43.493 8.834 80.75 0 93.183 5.517 12.393 5.516 41.375-9.954 57.965-14.392 16.55-4.397 14.471-19.908 20.667-34.259 0 0-51.728 32.06-73.475 16.59-21.747-15.51-92.104 15.47-115.93 5.517-23.785-9.954-119.008-9.954-132.48-21.028-13.431-11.033-104.536-1.079-120.047-8.834-15.55-7.756-62.122 2.198-74.554-11.074z" transform="translate(-3.638 -8.1)" fill="#ef3403" fill-rule="evenodd"/><path d="M10.793 53.702c7.796 3.878 18.15-9.394 25.905-11.033 5.956-1.4 9.834.28 15.79-1.12 3.358-.839 6.196-4.956 10.074-4.397 2.599.28 2.599 5.237 5.197 5.517 8.795 1.359 12.952-8.035 21.747-6.636 9.314 1.399 11.113 11.593 21.707 12.153 9.354.56 19.428-2.2 29.022-2.2 21.187 0 38.537 8.276 58.724 13.233 9.315 2.238 13.472-3.038 22.027-3.278 9.035-.28 17.83 3.038 27.663 2.478 10.634-.56 19.668 2.759 30.302 3.038 14.751.28 29.502-1.119 44.253-1.119 9.035 0 12.433-3.038 19.908-4.677 9.834-2.239 20.468 3.318 31.061 4.677 11.673 1.4 22.786 3.038 34.42 3.038 8.554 0 13.471-4.677 20.467-5.237 13.432-1.119 26.664 8.555 40.375 8.835 8.275 0 14.991-4.437 22.747-4.157-7.756 15.75-35.419 11.872-49.41 11.872-13.712 0-26.904 1.12-39.616 3.598-12.673 2.479-31.821 5.517-44.493 2.759-8.275-1.64-12.673-8.275-21.747-7.156-9.075.8-15.031 5.796-24.865 5.237-35.698-1.92-73.476-1.92-108.694-6.356-11.633-1.36-22.746-6.916-34.14-7.196-13.471-.28-26.424-3.038-39.336-6.076-10.114-2.479-17.629-2.479-27.983-2.479-5.676 0-16.27 1.12-17.829-6.356-6.236-1.639-11.153 2.758-17.35 3.318-5.716.56-10.353-2.758-16.55-2.478-12.712.56-25.624 6.356-38.336 5.516z" fill="#f2730a" fill-rule="evenodd"/><path d="M219.307 64.855c1.32.28 2.599-3.637 4.677-3.917 2.599-.32 4.398 1.959 6.996 2.238 2.079.28 4.157-1.119 6.236-.28 1.04.28 1.8 1.4 3.118 1.68 1 0 2.04-.84 3.078-1.12 3.918-1.119 9.075-1.399 12.953-.56 1.319.28 2.598.84 3.917 1.12h3.878c1.799.28 4.157.84 5.676 1.679-3.597-.28-7.995 1.12-11.632 1.959-5.197 1.12-10.114 1.679-15.311 1.399-2.079-.28-4.118-.84-6.196-1.12-2.359-.28-4.678.28-6.756-.28-2.839-.559-5.957-1.119-8.555-.559zm56.526 1.639c3.638 1.64 12.192.28 16.59 0 4.157 0 7.755-2.198 12.432-1.639 7.516.56 17.35 1.92 24.865.56 6.476-1.12 14.751-8.235 21.747-5.756 2.838 1.079 4.637 4.917 8.035 5.756 4.637 1.36 8.515 1.08 12.912 3.798-9.034 4.917-17.07-4.078-26.144-1.88-4.917 1.36-9.034 5.438-14.471 5.158-3.638-.24-6.236-1.88-10.394-2.159-7.995-.28-16.03.52-23.785.52-6.996 0-12.713-4.078-19.708-1.64zm106.096 2.119c7.795-.28 16.07 3.838 23.825 2.199 3.358-.84 6.196-2.759 9.314-3.318 2.08-.28 4.158.28 6.237 0 4.637-.8 8.794-4.398 13.192-4.957 4.117-.56 9.034 1.399 12.912 1.679-6.956 7.435-24.066 2.478-33.38 4.957-10.354 2.758-17.31 2.198-27.423.56zm-171.736-5.996c-2.839-.28-4.398 1.679-7.236 2.238-3.398.8-7.515.28-10.913.56-5.197.24-7.516-1.12-11.913-2.798-3.918-1.36-7.276-.84-11.433-1.12-8.555-.52-16.59-3.877-25.425-5.236-5.716-.84-11.913-1.96-17.909-1.96 8.835.28 17.91-1.119 26.744-.559 8.555.56 15.03 6.116 22.826 7.236 5.956.8 13.752 1.08 19.708.8 3.638 0 10.394 3.357 13.512.839zM104.577 49.944c-6.476 3.079-13.472-5.036-19.688-6.715-5.437-1.4-9.055 3.357-14.512 2.798-2.318-.28-4.917-2.798-7.255-2.798-3.358 0-3.878 1.958-6.736 3.078-4.398 1.958-10.614 1.119-15.29 1.399 4.676 1.679 12.971.56 18.408 0 2.838-.28 4.137-.56 6.736-.28 2.079 0 4.137 1.4 6.736.84 4.917-.84 8.814-2.799 14.511-2.24 5.437.56 9.334 4.198 14.511 5.038z" fill="#ef980c" fill-rule="evenodd"/><path d="M228.222 36.153c0 9.114-.24 18.229 0 27.303 0 8.275-1.56 19.588 1.039 27.544 0-6.596.76-12.953.52-19.269-.24-4.957-2.319-9.394-2.319-14.351-.28-4.118 1.28-16.23.24-18.189zm28.742 11.353c0 5.517.76 11.033.76 16.55 0 4.397-.76 10.434 1.04 14.551-1.28-9.074 1.238-18.988-.76-27.503zm-54.127-7.996c0 17.11.76 33.62 1.52 50.13 0-15.67-1.52-30.541-1.52-45.692zm-25.544 10.954c-.28 8.275 1.559 16.31 1.559 24.545-1.04-6.876-1.84-22.026-1.56-24.545zm55.366 1.04c.28.56.52 2.518.8 3.318.759 4.717 1.279 9.394 1.519 14.071.28 4.717.52 9.114 2.558 13.232-1.759-4.397-1.28-9.075-1.52-13.512-.239-3.278-1.278-6.596-2.038-9.634-.8-2.479-.8-4.437-.8-7.196zm9.594 2.798c0 5.277.24 10.553.24 15.83.2 3.598-.24 6.916-.24 10.234 0 .84-.24 1.679.24 2.479.2-7.196 0-14.392.2-21.587 0-1.4.44-4.438-.2-5.557zm6.677.839c0 4.438.239 9.155.239 13.552 0 4.158 0 8.875 1 13.272 0-1.919 0-3.558-.24-5.517-.48-4.157 0-8.275-.24-12.432-.24-3.038-1.52-6.076-1-9.155z" fill="#fff" fill-rule="evenodd"/><path clip-path="url(#a)" d="M4.157 60.843s8.315-23.226 27.944-27.663c19.668-4.397 36.258-16.55 43.493-13.272 7.236 3.318 16.55-4.397 25.865-3.278 9.314 1.08 32.1-4.437 45.532-1.12 13.472 3.319 62.122-4.437 80.751 1.12 18.629 5.517 75.514 3.278 96.222 4.397 20.707 1.12 40.375-7.715 55.886-4.397 15.55 3.278 34.18-9.954 44.493-7.755 10.354 2.198 52.288-4.718 78.672 17.669 5.157 4.437 14.471 9.954 15.51 15.47 1.04 5.557 8.276 23.226 2.08 37.618-6.197 14.351-4.118 29.822-20.708 34.259-16.55 4.397-45.532 19.868-57.925 14.351-12.432-5.516-49.69 3.318-93.143-5.516-43.494-8.835-110.773-11.074-128.363-17.67-17.589-6.636-31.02 1.08-45.532-6.636-14.471-7.755-26.904 0-50.69-12.152-13.711-6.916-103.497 3.278-111.772-5.557-8.315-8.835-8.315-19.868-8.315-19.868" transform="translate(-3.638 -8.1)" fill="none" stroke="#333" stroke-width="1.039" stroke-miterlimit="8"/><path d="M362.5 15.206c4.078 7.715 1.56 21.986 1.8 30.78-2.04-5.756-.76-12.352-1.28-18.108-.52-3.878-1.799-7.715-1.52-11.553zm18.35 4.797c4.756 8.315 1.598 24.625 1.598 33.979-.8-11.313.8-22.626-1.879-33.7zm19.228 2.877c2.078 15.192 5.396 30.342 5.396 45.733 3.558-13.472-1.559-31.38-3.598-44.613zm62.122-8.394c3.598 17.19 7.196 37.697 4.117 54.847 2.319-9.395 1.04-21.587.28-31.821-.28-6.116-1.04-14.99-3.078-20.508zm-11.953-.16c1.32 10.514 4.917 20.148 4.158 31.181-2.08-8.795-.24-22.866-4.678-30.341zm35.459 7.196c1.279 8.834 2.318 17.39 1.279 26.464 3.838-7.436 3.078-15.95 0-23.706zm-379.63-7.196c-1.02 6.656-.76 14.671 1.519 21.027-.26-5.796.5-16.03-2.279-21.027zM77.673 27.358c0 6.336 1.04 14.591 2.598 20.628-1.819-4.658-2.878-13.472-2.598-18.689zm-18.169 1.279c-.26 5.817.52 12.473 2.618 17.99-1.039-5.517-2.358-11.054-3.677-16.59zm-16.89 2.559c3.118 4.937.26 12.612 3.638 17.27.52-4.918-1.04-10.954-1.819-15.891zM136.377 56.3c.26 6.916.78 13.532 2.819 20.148-1.02-5.796-1.8-13.791-3.598-18.748zm-9.174.56c0 5.257.56 12.153 2.458 17.11.26-4.397.26-12.413-1.898-16.27zm-6.636 1.42c0 4.657.54 9.314.54 13.691.26-4.637-1.34-9.854-1.34-14.79zm256.005 16.73c2.838 7.755 2.318 17.709 3.837 25.984-1.519-6.596-1.279-15.471-3.837-22.667zm19.308 1.119c-.28 9.954 1.879 20.187 1.64 30.141-.28-8.834 0-19.628-2.48-28.183zM203.876 17.684c2.799 9.634 1.04 21.987 1.8 32.14 0-10.713-1.52-21.147-1.8-31.3zm25.904 35.498c-2.078-6.316-.519-14.87-.799-21.746-.24-5.517-1.279-11.034-.76-16.55 4.598 10.194.52 25.104 1.56 36.098zm30.222.64c-3.238-5.796-1.239-18.229-1.998-24.825-.48-4.717-1.24-9.674-1.52-14.671.28 7.755.28 15.75 1.04 23.226.48 4.957 2.239 10.474 1.759 15.19z" fill="#f2730a" fill-rule="evenodd"/><path d="M298.1 69.333c-.28 8.834 1.039 18.149 1.039 26.943 2.838-6.596-1.04-16.75-.52-24.185zm19.188-19.988c1.559 11.913.8 23.825 1.559 35.978 1.279-7.435 1.04-27.383-2.079-32.62zm24.345-2.719c.8 7.716 1.559 16.79 2.079 23.666.24-7.395-1.04-14.551-2.08-21.427zm27.863 9.834c1.32 6.956 2.598 13.592 3.118 20.508.52 4.997 2.838 13.032 1.04 17.15-1.8-6.636-1.04-14.671-2.32-21.867-1.318-5.237-2.597-10.234-3.397-15.79zM133.56 41.03c-.52 9.374.499 19.848 2.518 28.942-1.26-8.535-3.039-15.97-3.039-25.064zm-23.327 0c-1.819 5.277 0 17.73 1.54 23.266-3.099-5.537-2.58-14.951-2.58-21.047zM66.76 36.153c1.818 8.015 2.078 17.41 5.196 24.865-.78-6.336-4.417-16.01-3.637-20.988zm-12.413 1.039c-.26 6.356 1.3 12.413 1.04 18.469-1.3-5.237-1.58-10.733-1.58-16.25zm-6.696 1.679c-1.04 3.838 1.28 9.055 1.04 13.432V40.53zm-9.394 1.599c-.28 4.717.52 9.135 1.559 13.832-.52-4.138-1.839-7.456-1.56-11.613zM15.51 43.348c0 3.598.26 12.433 4.158 17.67-1.3-5.797-5.996-11.853-3.638-16.55zM5.677 61.577c.52 2.439 1.559 5.437 4.157 5.437-.26-2.438-1.559-4.897-3.638-5.996v2.738z" fill="#fff" fill-rule="evenodd"/><path d="M466.078 11.808c1.798.56 4.397.56 6.436 1.119 2.598.56 4.917 1.36 7.515 2.758 3.638 1.92 7.516 3.318 10.074 7.156 3.638 4.997 5.437 11.593 6.236 17.949.76 7.196 1.56 14.351 1.8 21.547.519 5.796 2.318 11.593 2.598 17.39.24 3.557-.28 6.875-1.32 10.193-.52 2.759-6.196 13.232 0 11.593 5.957-1.359 6.996-8.275 8.555-13.512 2.319-6.915 5.157-13.791 6.716-20.707 1.799-7.436.8-14.911-1.04-22.067-1.798-6.636-2.318-12.712-7.994-16.83-3.878-3.038-8.036-5.556-12.153-8.554-3.918-2.799-7.276-6.636-11.673-8.835-3.598-1.679-8.795-2.518-12.912-2.239-2.319.28-6.236 1.4-2.319 3.318zM7.695 68.113l.78.84c.78.84 1.559 1.4 2.598 1.979l4.677 1.679c2.859.84 6.217.56 9.595.84 3.637.559 7.275 1.398 10.893.839 1.819 0 3.638-.28 5.457 0 1.559.28 3.378.56 4.917.56-3.878-1.4-7.516-2.24-11.673-2.24-4.138 0-8.555 0-12.453-.559-2.838-.56-6.995-.84-9.594-2.259-1.04-.84-1.299-2.518-2.079-3.657.26 2.818-2.078 2.538-3.378 1.978zm131.701 14.891c1.838.84 3.917.28 5.716.28 1.839.28 3.638 1.12 5.717.84 2.078-.28 4.157-.28 6.476-.28 2.078.28 4.677.28 6.516.84a616.463 616.463 0 0 1 12.192 4.117c2.599 1.12 4.677 1.639 7.796 1.639 2.318 0 5.196-.24 7.755-1.08-2.039 0-3.878-.56-5.677-1.119-2.878-1.08-5.476-1.919-8.594-2.478-2.839-.8-6.716-1.64-9.315-3.278-1.319-1.12-2.878-2.519-4.677-1.68-1.04.56-1.32 1.68-2.359 1.68-.52 0-1.798-2.239-1.798.24-.8 0-1.32-.52-1.56-1.08-.28.28-.799.56-1.039 1.08-2.838-1.36-5.716.84-8.835 1.119-2.598.56-5.956 0-8.834-1.12zm123.164 19.668c1.32-.56 2.6 0 3.918 0 2.32-.28 4.398-.839 6.477-.839 3.597-.24 7.515 0 11.113.84 3.398.799 6.756.799 10.114.799 3.398 0 6.476 1.36 9.594 1.919 6.476.8 12.712 1.08 19.188 1.919 2.839.52 5.437 1.079 8.275 1.599 1.32.28 2.879.84 4.438 1.119 1.039.24 2.078-.28 3.078.24-.76 0-1-.8-1.8-1.08-1.558-1.359-2.837-2.158-4.916-2.718-1.8-.28-3.638-1.08-5.717-1.359-1.799-.56-3.877-.28-5.676-1.36-1.56-.799-2.599-2.997-3.918-1.918-1.559 1.36 0 2.199-2.319 1.36-2.318-.8-3.358-2.16-5.716-1.08-2.319 1.08-1.799 1.359-4.118 0-1.838-1.08-3.118-1.08-5.196-.8-2.599 0-4.398-.56-6.756-1.359-1.04-.28-2.319-.56-3.358-.28-1.04.28-2.08 1.36-3.358 1.64-2.079.28-4.398-1.64-6.476-1.92-4.398-.56-8.315 1.36-12.433 1.92-2.079.28-4.677.799-6.516 1.359z" fill="#d83307" fill-rule="evenodd"/><path clip-path="url(#a)" d="M519.605 46.732c0-2.199-.8-7.995 1.04-9.674 1.798-1.36 3.597 1.119 4.916 2.238 3.878 2.759 7.756.52 9.315 6.077 1.559-1.4 1.799-6.916 2.838-9.115 1.04-2.478 3.878-8.315 7.516-7.755 5.956 1.119-.52 22.946 5.436 20.148 0 2.518-1.559 4.996-2.838 7.195 1.28 0 2.838-.84 4.157-1.12 1.8-.239 4.638-.799 6.716-.239 2.599.24 4.398 1.639 7.236 1.36 3.118 0 5.956-.28 9.075 0 1.039 0 5.196-.28 5.716.839 1.52 1.918-4.157 3.597-5.197 4.397-5.956 3.038-12.952 4.157-19.148 5.796 2.838.84 6.476.28 9.834.84 2.838.56 2.598 1.639 4.397 3.598 1.56 1.639 3.358 1.639 5.437 2.198 2.079.28 3.878 1.4 5.716 2.2-4.677 1.118-10.113-.28-14.79-.52-3.878-.28-7.756.24-11.634.24 3.358 0 6.996 1.678 9.834 3.317 2.08 1.12 6.477 3.318 7.516 5.517-9.594 0-19.188-3.838-28.743-5.237-2.078-.56-3.358 0-5.716.56-3.878 1.12-6.196-2.479-3.878-6.356 1.28 2.198-6.476 13.791-8.795 15.19-3.118 1.64-4.157-1.119-4.157-4.157-1.28.84-1.28 3.038-3.118 1.959" transform="translate(-3.638 -8.1)" fill="none" stroke="#333" stroke-width=".8" stroke-miterlimit="8"/><path d="M518.086 36.673c-2.079 1.359 1.56 9.634 2.079 12.112.52 2.199 1.04 4.957 1.04 7.436 0 2.478.239 4.957-.28 7.435-.52 2.519-1.8 5.517-1.52 7.995 1.8-.24 2.319-2.998 2.559-4.677.8-2.199 2.358-7.995 4.397-9.074.8 1.079 1.04 3.837 2.598 3.837.52.28 1.56-.8 2.319-1.079 1.04-.28 1.839 0 2.838 0 2.359.28 4.158 0 6.476-.56 2.08-.28 4.158.56 6.197.56-.76-1.959-1-3.318-1-5.237 0-1.12-.28-2.478-.52-3.878-3.357 1.4-7.275.56-10.353-1.639-3.878-2.758-7.236-5.796-10.354-9.674-1.799-2.478-5.437-8.554-6.716-2.758z" fill="#024209" fill-rule="evenodd"/></svg>