<svg xmlns="http://www.w3.org/2000/svg" version="1.0" viewBox="0 0 165.052 146.948"><defs><clipPath clipPathUnits="userSpaceOnUse" id="a"><path d="M1.52.96h164.86v147.03H1.52z"/></clipPath></defs><path d="M130.041 63.122c5.357.72 10.674 9.234 9.994 14.231l-6.636 9.235 12.632 5.676 5.997 7.116-9.994 17.07-11.313 4.277-5.317-5.717-14.671 8.555-16.67 7.116-21.347-1.44-28.663 4.958-13.991-3.518-9.994-4.997s-.68-11.393-.68-12.073c.68-1.439 0-8.555 0-8.555l2.679-22.746 1.359-19.908 16.63-3.558s1.999-7.835 9.354-5.676c.64 0 14.671-17.79 14.671-17.79l21.307-1.399 1.32-16.39 13.351-3.558 4.678 15.671 4.637 27.024 20.667 6.396z" fill="#eceef0" fill-rule="evenodd"/><path d="M102.818 21.307c-8.675 1.4-12.033 10.594-10.674 21.947 1.32 10.633 5.317 21.946 13.352 19.828 7.995-2.119 10.634-7.076 10.634-13.432 0-6.396-2-5.677-2.639-13.472-.68-6.396-1.359-17.03-10.673-14.87z" fill="#f5f7f9" fill-rule="evenodd"/><path d="M124.085 44.653c-3.998 0-5.997.72-8.635 1.44.64 1.438.64 2.158.64 3.557 0 6.436-2.639 11.433-10.634 13.552-1.999.72-3.997 0-5.317-.68-1.359 5.677.64 12.113 4.638 15.67 4.677 3.558 17.309.72 22.666-9.274 5.956-9.274 5.317-22.106-3.358-24.265zm-70.597 6.436c-6.676 9.274 0 19.908 10.034 24.905 9.993 4.957 20.667 2.119 23.345-5.677 2.639-7.115-4.677-12.112-8.035-14.231-3.997-2.159-7.315-.72-11.313-4.277-3.358-4.278-12.033-4.997-14.031-.72zM14.111 91.545c8.675 5.636 12.673 1.399 17.35-4.278 4.677-5.676 5.357-7.076 9.354-9.234 4.677-2.119 5.997-14.152 0-19.149-5.996-5.676-16.67-.68-23.346 9.235-6.676 9.234-8.714 17.749-3.358 23.426zm30.142 32.86c-5.357 7.795-5.357 13.471-.68 18.428 5.357 4.957 10.035 4.957 16.03 1.44 6.037-3.558 6.037-5.677 12.034-7.116 6.676-1.4 8.674-2.838 10.034-9.914.64-7.835-2-13.512-10.714-13.512z" fill="#f5f7f9" fill-rule="evenodd"/><path d="M28.063 92.344c-.68 7.795 16.11 12.033 27.503 8.515C66.96 98.02 67.64 92.344 68.32 85.948c.64-5.677-8.076-7.076-16.11-5.677-7.356 2.159-10.714-2.838-14.752.72h-.68z" fill="#f5f7f9" fill-rule="evenodd"/><path d="M89.586 83.07c.64-5.677-2.679-9.954-3.358-10.674-2.679 3.558-7.316 5.717-12.673 5.717-4.677 7.115-8.035 12.792-5.996 20.627 1.32 7.795 5.317 14.192 11.993 12.073 6.676-2.119 8.675-4.957 8.035-13.512-1.36-8.515 1.32-7.835 1.999-14.231zm19.308-3.638c-1.999-.72-3.318-.72-3.998-1.44-1.998-1.398-3.358-3.517-3.997-6.395-.68 0-1.36 0-4.677 2.158-6.037 4.238-6.716 14.192-2.679 24.146 3.998 9.954 8.675 16.31 18.03 11.353 9.354-5.677 4.677-15.63 3.357-17.03-.68-2.159-6.676-9.234-6.036-12.792zM50.33 57.445s-1.96 0-7.956-8.475c-6.676-8.475-6.676-23.346 2-26.184 7.315-2.838 9.313 5.677 10.633 12.033.68 3.558 9.314 4.957 9.954 14.151z" fill="#f5f7f9" fill-rule="evenodd"/><path clip-path="url(#a)" d="M160.902 92.904c6.636 4.997 5.997 17.11-5.356 27.103-10.674 9.954-20.668 6.396-22.667 1.44-1.998-3.598-2.678-8.555 1.36-13.552 3.997-4.997 8.634-4.997 13.991-12.113 5.317-7.156 8.675-6.436 12.672-2.878z" fill="#f5f7f9" fill-rule="evenodd"/><path d="M150.749 81.63c2.638 6.437-3.998 17.91-15.351 18.63-11.313.679-21.987-5.757-21.307-12.913.68-7.156 6.676-7.875 11.313-7.156 9.994 2.16 19.348-8.594 25.345 1.44z" fill="#f5f7f9" fill-rule="evenodd"/><path clip-path="url(#a)" d="M98.22 21.387c3.998-1.44 14.712 1.4 16.03-9.234C115.57 2.199 100.9.76 92.185 2.918c-7.995 2.119-21.387 9.914-14.671 19.149 5.996 8.514 12.672 1.439 20.707-.68z" fill="#f5f7f9" fill-rule="evenodd"/><path d="M33.62 99.42c3.358 12.752-13.432 19.108-20.148 9.914-3.358-3.558-8.715-9.235-9.394-14.911-.68-4.238.68-12.033 7.395-13.472zm52.568-54.807c-9.275-.68-17.91-2.838-18.589 6.396v.72c3.998 3.557 7.316 2.118 11.273 4.277 2.679 1.4 7.316 4.237 8.635 9.194 9.914-4.957 7.955-19.148-1.32-20.587z" fill="#f5f7f9" fill-rule="evenodd"/><path d="M58.325 32.62c-1.36 7.076 7.995 12.033 19.948 10.634 11.353-.72 13.311-2.838 13.311-9.235 0-9.914-8.634-7.075-17.309-7.075-4.637.72-15.31-3.558-15.95 5.676zM14.231 72.396c-8.674-5.676-2.678-15.63 2-22.027 5.316-6.396 19.307-9.953 23.985-2.118 3.957 7.115.64 10.673.64 10.673zm89.986 38.457c-2.639 0-4.677-2.119-6.676-4.957h-.64s-1.999-2.878-4.037-2.159c-7.316 0-11.353 8.555-10.674 20.628.68 11.393 4.677 21.347 14.711 18.508 9.315-2.838 5.997-13.511 5.317-17.07-.64-4.277 1.999-7.834 2.678-14.23l-.68-.72zm20.547-9.195c8.635-.72 5.997 9.195 3.998 14.871-1.999 6.397 1.32 19.109-7.356 21.947-8.634 2.119-15.99-12.752-12.632-21.947 2.638-9.194 10.634-14.87 15.99-14.87z" fill="#f5f7f9" fill-rule="evenodd"/><path clip-path="url(#a)" d="M28.942 121.486c-3.358-1.439-7.395-6.436-10.073-7.835-6.037-2.878-14.072-1.439-16.07 7.835-2.04 8.515 8.034 17.07 18.748 18.51 10.074 1.398 20.787-5.717 18.109-12.833-1.32-4.277-6.036-3.558-10.714-5.677z" fill="#f5f7f9" fill-rule="evenodd"/><path d="M58.884 100.06c10.074-.72 14.072 9.274 12.073 14.27-3.358 7.116-10.034 9.995-16.75 7.836-6.036-2.119-5.357 1.44-13.392 2.878-7.395.68-13.432-7.875-8.714-16.43 2.678-4.277 8.035-7.116 8.035-7.116zM44.173 64.64c3.398-2.078 7.436-1.358 7.436-1.358z" fill="#f5f7f9" fill-rule="evenodd"/><path d="M54.967 63.042c-2-2.119-1.32-7.076 0-9.914 1.359-2.878 4.677-2.878 7.355-2.159 3.318 1.44 5.317 4.278 7.995 4.997 3.318 1.4 8.635 1.4 10.634 4.957-3.318-3.558-9.314-1.4-13.312-3.558-3.318-1.399-10.674-6.396-11.993 0zm5.197-29.822c.68-4.797 5.396-4.078 8.714-4.078 2.719.68 5.397.68 8.075.68 3.358 0 6.676-.68 9.355-.68-3.998.68-6.676 2.719-11.393 2.719-3.318 0-10.034-2.719-12.033 1.359zm19.468-12.593c-2.679-1.439-1.32-4.996 0-7.155 1.999-2.838 4.677-4.278 7.995-5.717 6.636-2.838 16.63-5.716 22.586 0-7.315-2.118-14.63.72-21.267 3.598-1.999 1.4-3.997 2.119-5.317 4.278-1.319 1.399-1.319 2.118-1.998 4.277v1.44zm23.905 3.558c-3.318 0-6.596 4.957-7.275 8.515-.68 2.798 0 4.917 0 7.755.68 4.238 1.998 7.076 3.318 10.594-2-7.036-.68-13.432 1.958-19.788.68-1.4 6.596-6.356 2.639-6.356zm-57.245 1.28c-3.278-.72-5.277 3.557-5.916 7.115-.68 5.677 1.958 10.634 4.597 15.59-1.96-4.237-4.597-21.986 2.638-22.705zM14.111 82.23c1.36-7.036 6.716-14.75 12.793-18.988 2.678-1.4 4.677-2.839 7.355-2.839 4.717 0 6.077 2.12 6.716 6.357-1.319-5.637-11.393-1.4-14.071 0-3.358 2.118-7.396 4.917-8.755 8.434zm-1.239-19.188c-.68-11.353 17.35-23.426 24.665-13.472-7.995-2.838-19.988 2.838-22.666 10.634zm33.94 20.708c4.037 0 8.035-.72 12.032-.72 3.998 0 5.317 1.399 4.678 5.596 0-4.197-12.033-3.478-14.672-4.197zm26.064.639c-1.28 3.558-2.559 6.436-2.559 10.673 0 2.879.64 9.275 4.478 10.674-.64-3.558-1.92-6.396-1.92-9.954-.639-2.838 0-6.396.64-9.234zM97.5 77.433c-9.353 3.558-.679 19.828 2.64 24.785-2.64-7.076-4.638-16.27-2.64-23.346zm19.909 7.835c2.678-4.357 5.357-2.918 9.394-2.918 5.357.72 9.354 1.48 14.032-2.199-2.679 2.919-4.678 5.117-8.675 5.117-4.677.72-7.356-2.198-12.073-.72zm37.337 7.676c-3.318 1.439-3.997 3.597-5.996 6.436-1.999 2.118-3.998 4.277-6.636 5.676-1.36 1.44-3.358 2.159-4.677 3.598-2.679 2.119-2 4.957-2 8.515.68-2.838 0-4.237 3.319-6.396 1.999-1.44 4.677-2.119 7.355-4.278 2.639-2.118 3.318-4.277 5.317-7.115 1.32-2.159 2.679-4.278 3.318-6.436zm-32.54 12.232c-3.998 1.44-7.396 4.278-9.394 8.515-1.36 3.518-2.04 11.313 1.359 14.112 0-4.917-.68-9.874 1.319-14.831 2.039-2.839 4.038-5.637 6.716-7.796zm-30.062 1.359c-3.238.72-5.197 4.957-5.876 7.796-1.32 5.636-.64 13.432 1.959 19.068 0-2.798-1.28-5.636-1.28-8.475 0-2.118.64-4.237 1.28-7.075.68-3.518 1.319-7.756 3.278-11.314zM34.22 118.488c-.68-2.838-1.36-4.237 0-7.076 1.358-3.517 5.436-5.676 8.114-5.676-4.037 2.838-10.154 9.914-5.396 14.87-.68 0-1.36-.679-1.36-1.398zm-27.984 2.958c-.68-4.957 6.716-7.795 10.034-5.676 4.717 2.119 7.396 8.515 12.712 8.515-6.676 3.518-15.39-11.353-21.387-3.558zm38.737 5.797c-.64 2.798-2.639 4.917-1.96 7.715.64 2.799 3.919 6.996 6.517 6.316-2.598-2.118-3.918-5.596-4.557-9.114 0-2.119.64-3.518.64-5.637zM8.075 86.548c-3.318 4.277-.64 12.072 3.318 14.87-1.32-3.517-4.637-9.913-3.318-14.15zM70.877 49.57c-1.36-6.196 13.272-2.758 15.91-1.36-3.318 0-6.636-.679-9.954-.679-3.318 0-3.957 1.36-6.636 2.719z" fill="#fff" fill-rule="evenodd"/><path d="M77.513 107.335c9.434-1.4 6.076-5.677 7.436-12.073.64-5.676 3.997-15.63 0-19.908-2.04 1.44-3.398 2.879-5.397 3.558 6.036 0 1.999 9.954 1.999 12.792 0 2.839.68 4.997.68 7.836-.68 2.838-2 5.676-4.718 7.115zm18.629 0c.68.72 1.359 2.119 2.718 2.838.68.72 2.039.72 3.398 2.119 1.32 2.119-1.36 5.637-2.039 7.755-.68 2.839-.68 6.356 0 8.475.68 4.957 1.36 7.755-2.039 11.273.68-2.798 1.36-5.636.68-8.435-1.36-2.118-2.718-3.557-2.039-6.356.68-4.957 3.398-10.593-.68-15.55zm4.677-31.981c.68 3.558 3.318 3.558 5.317 5.677 1.998 1.399 2.678 4.957 3.997 7.076 1.36 2.798 3.998 4.917 4.677 7.755 1.32 4.237-.68 7.755-3.997 9.874 3.997-5.637 0-10.594-3.998-14.112-1.319-1.399-1.999-2.118-2.678-4.237v-3.518c-.64-1.439-1.999-1.439-2.639-2.119-1.359-2.118-1.359-3.557-1.359-5.676zm22.067 19.029c1.998 1.399 5.316 2.119 7.955 2.798 3.318 0 5.276 0 8.594-.68 6.636-2.118 8.595-5.636 8.595-12.672-1.959 7.755-7.275 9.874-14.55 9.874-2.64 0-9.275 2.079-11.274 0z" fill="#eff3f5" fill-rule="evenodd"/><path clip-path="url(#a)" d="M135.558 119.967c5.317 4.957 11.953 2.119 17.27-2.118 4.637-3.558 13.91-13.552 7.955-20.668 0 6.436-2.639 12.113-7.276 15.67-3.318 2.839-11.953 7.836-16.59 6.397z" fill="#eff3f5" fill-rule="evenodd"/><path d="M127.603 105.736c3.957 2.159-2 12.073-2.679 14.91-.64 4.998.68 12.074-3.997 14.912 4.677-4.238 0-9.914.68-14.911.679-4.957 6.635-7.795 5.996-13.472zm-71.997 37.137c2.679.68 3.998-1.439 5.317-2.878 1.999-1.399 3.958-3.518 6.636-4.957 2.638-.72 5.956 0 7.955-2.119 2.639-2.158 3.278-7.115 1.959-9.994-1.32-4.237-3.958-4.956-6.596-7.115-1.36 2.878-3.998 7.115-7.316 7.115 2 0 4.638-2.118 7.316-1.399 3.278.72 3.278 4.957 1.959 7.116-1.959 3.558-5.957 3.558-8.595 4.957-2.638 2.159-4.637 5.717-7.276 7.835zm-12.712-21.467c3.358-2.118 6.036-3.517 10.034-2.118 3.358.72 6.676 1.439 9.354.72 3.358-.72 5.357-3.559 6.037-6.397.64-2.838-.68-9.234-4.038-8.515 1.36 2.839 2.678 4.278.68 7.796-2 2.158-3.318 3.557-5.997 3.557-3.358 0-6.036-.72-9.354 0-3.358 1.44-4.677 3.558-6.716 4.957zM37.617 83.03c-1.999 1.439-2.638 2.838-3.957 4.277-.68 1.4-2.679 2.119-3.318 3.518-1.36 2.838 1.319 4.957 3.318 5.677 7.915 4.237 17.869 4.917 25.144.68-3.957 2.837-15.87.719-20.507-2.12-3.318-1.399-2.679-8.474 0-11.313v-.72zM15.39 88.746c1.36 2.159 5.397 2.838 7.396 2.159 3.358-.72 5.357-4.317 7.396-7.156 1.998-2.878 3.997-5.716 7.355-7.155 2.039-1.44 5.357-3.558 4.038-7.156 0 4.317-1.999 4.317-5.357 5.716-2.678.72-4.717 2.16-7.395 4.318-4.038 4.277-4.678 8.555-10.714 9.274zM56.965 67.4c3.358 5.636 11.993 8.434 17.99 7.754 5.316 0 12.632-4.957 7.995-11.313 2.678 11.313-19.988 9.195-23.986 4.957zm18.629-13.513c2.679 1.44 4.637 1.44 7.276 2.839 1.319 1.399 2.638 2.838 3.957 4.237 4.638 4.237 6.596-6.356 5.277-9.914 0 8.515-9.874 2.838-14.511 3.558zm27.983 19.309c1.999 6.396 12.593 2.838 15.91.72 3.958-2.84 7.956-7.116 9.275-12.113.64-4.278.64-10.714-2.638-12.833-1.32-1.439-4.638-2.158-6.636-1.439-.68 0-.68 0-1.32.72-.68.72-.68 3.558-1.319 4.277 3.318-.72 4.637-3.558 7.955.72 2.639 3.558 1.32 7.115 0 10.673-1.359 3.558-9.274 14.272-20.547 9.994z" fill="#eff3f5" fill-rule="evenodd"/><path d="M102.898 69.638c-.68-2.838.68-2.838 2.638-3.558 3.998-1.4 7.316-2.838 10.594-5.677-.64 2.839-1.96 4.278-4.638 4.997-1.958 1.4-6.596 2.839-7.275 5.637z" fill="#fff" fill-rule="evenodd"/><path d="M110.133 28.982c0 7.156 2.639 12.153 3.998 18.55.64 5.716-4.677 14.23-11.353 12.112 6.676-1.44 10.673-7.835 7.995-14.951-1.999-4.997-2.639-9.994-.64-15.71zm-25.184-5.596c3.318 0 5.316-2.798 7.955-4.238 2.678-.68 5.316-.68 7.995-.68 5.277-.719 11.233-1.438 9.914-9.234-.64 7.076-6.636 5.677-10.594 6.397-2.638 0-4.637.68-6.636 2.118-1.999 1.4-3.318 2.839-5.316 3.518zm-16.79 16.31c4.037 2.878 10.713 2.159 15.39 1.44 2-.72 4.038-.72 5.357-2.88 1.32-2.158 1.32-5.756 0-7.195-.68 6.476-3.358 7.915-9.354 8.635-4.038.72-8.035 1.44-11.393 0zM52.248 33.38c-.68 6.436 9.435 7.835 10.074 14.271-6.036-2.159-11.433 1.4-11.433 8.515 0-2.119-1.359-4.957-.68-6.396.68-2.119 2.719-2.838 3.399-4.997.64-2.838-.68-3.558-1.36-6.396-.68-1.44-.68-3.558-.68-5.717zM16.75 68.958c3.358-6.436 10.753-12.152 17.43-12.872 1.998 0 5.356 1.44 6.036.72 1.319-2.16-1.36-7.916-2-8.635 0 2.158.64 4.317-1.358 5.037-2.679.72-4.678 0-6.676.72-3.358.719-5.357 2.878-7.396 4.996-2.678 2.159-3.358 5.757-5.357 7.915zm.8 41.135c4.077 1.44 9.434 1.44 12.152-2.838 1.999-2.159 1.36-4.317.68-7.156-.68-2.158-2.04-4.277-2.04-6.436-.679-.72-1.358-.72-1.358-.72-2 1.44-5.357 2.879-7.396 1.44 11.473 2.158 5.397 18.549-2.039 15.71zm-7.436 21.387c4.717 4.997 13.392 7.836 19.428 5.717 1.999-.72 5.357-2.159 6.676-4.318 2.039-2.838 1.36-6.436-1.999-7.155 4.677 5.037-6.676 8.595-8.674 8.595-3.358.72-6.716 1.439-10.074.72-1.32-.72-2.679-2.16-4.678-2.84z" fill="#eff3f5" fill-rule="evenodd"/><path d="M34.34 100.939v3.438c1.358-.68 3.357-2.039 5.356-2.719zM20.747 115.05c1.36.72 2.719 2.799 4.078 4.238-.68-3.518 3.398-1.44 4.757-.72.68 1.4 1.36 4.198 3.398 3.518-4.078-3.518-1.36-8.435-2.039-12.672-.68 2.118-3.398 4.237-5.436 4.237zm50.85-5.756v3.598c1.998-.72 5.356 1.479 6.676 2.198 2.678 1.44 2.678 2.879 3.997 5.037.68-3.598-.68-8.675 1.32-12.312-1.32 2.918-7.996 4.357-10.634 3.637zM61.523 99.38c1.999-.68 3.318-2.119 4.637-3.558-.68 1.44 0 4.277.64 6.396zM43.694 62.402c4.637-.72 3.318-4.997 1.319-7.835 4.637 1.44 5.956 4.277 6.596 8.515-1.96.72-6.596 0-7.236 2.118zm1.878 7.036c.68 4.277 2 5.716 5.997 6.436 2.678 0 5.356.72 8.035 0 0 0 0-1.44.68-1.44 1.319 0 4.677 2.16 5.356 2.16 2.639.68 4.677 1.399 7.316 2.838-1.32 1.399-2.639 3.558-3.998 4.957-1.319-1.4-1.999-3.558-4.677-4.238-1.999-.72-4.677 0-6.676 0-3.358 0-15.39.68-16.07-2.158zm43.254 5.916c.64-1.399 1.32-2.118 1.999-3.558 1.32-1.439 1.999-4.317 3.318-5.756 3.358-2.838 3.358 4.317 3.998 6.476 1.359-.72 1.359-1.44 1.998-2.159 0-1.439-.64-3.597-.64-5.037 0-.68.64-2.838.64-3.557-.64-1.44-1.998-1.44-2.638-2.16-1.36-1.438-1.999-3.597-3.358-5.036-.68 5.037-3.318 7.196-7.356 10.074 1.36 2.838.68 6.436 0 7.875zm4.118 27.704c-.64.72-.64.72-1.32.72-3.318-2.16-1.319-4.998.68-7.117-.68-2.158-1.32-4.277-1.999-7.115 0-1.44 0-3.558-.68-5.717-.639 3.558-3.317 7.835-2.638 11.393 0 3.558 1.32 7.116.68 9.954zm9.834 21.866c0-2.798 2.038-7.795 4.677-4.237-.64-4.238 4.677-7.795 4.037-12.073-1.998 1.44-4.037 2.159-6.036 2.838zm14.152-29.102c1.998 1.44.679 6.476 0 9.354 2.638-2.878 7.914-5.037 11.192-3.598-.64-.72-.64-1.439-.64-2.158-1.958.72-5.916-1.44-7.235-3.598zm-7.516-16.35c0 2.838 1.359 7.076 4.037 7.076.68-8.515 10.754-4.957 15.43-7.796-2.677 2.839-1.998-2.838-1.318-4.237 1.319-2.159 2.678-3.558 3.358-6.396.64-1.44.64-2.839.64-4.278-3.998 8.515-13.393 15.63-21.468 14.911zM88.147 26.224c.68 1.48 2.678 3.638 3.318 4.357 2.678-1.439 3.318-5.796 5.956-7.995z" fill="#e7eaeb" fill-rule="evenodd"/><path d="M44.973 73.755c0 2.159 1.319 4.278 2.638 5.717-1.32.68-4.637 0-6.636-.72zm31.98 37.817c-.64.72-1.319 2.08-1.319 3.438-.68-1.359-2.678-1.359-4.037-1.359 0-.68 0-1.36.68-2.079zM61.523 99.5c2.038.72 4.077 1.439 6.076 1.439-.64-2.159-1.32-4.318-1.32-7.196zm26.104-2.319c-1.32-3.518 2.598-4.917 4.517-3.518-.64-2.798-1.919-5.636-1.919-8.475-1.319 1.44-1.319 3.558-1.958 4.957zm28.503-18.389c-1.28 1.44-1.96 3.518-.64 4.917-1.959.72-1.959 2.839-1.959 4.917-1.959-2.798-3.917-5.596-4.597-9.114zm4.797 18.469c-1.32 1.4-1.32 3.518-1.32 5.637-.68 0-1.998 0-2.678.68.68-2.08.68-4.918 0-7.756zm-16.79 19.109c.68-2.08 3.358-4.198 5.357-2.799 1.319-1.399 2.638-3.518 2.638-4.957-1.32.72-5.996 2.838-7.316 2.119zm-75.954-3.438c-1.999.72-1.999 5.756-.64 7.195-2.678-.72-5.356-3.598-7.355-5.756zm19.388-57.566c1.36 4.318 0 7.876-3.398 9.275 2.039-1.4 4.757-1.4 6.796-1.4.64-2.158 0-3.557 0-5.716zM64.96 48.97c1.32-2.078 1.96-4.917 4.558-5.636-2.599-.68-5.197-1.4-7.196-2.119zm21.827-6.516c2.04-.68 4.038.72 5.357 1.4-.64-2.08-.64-4.198 0-5.597zm3.998 20.108c3.398-1.439 5.437-1.439 8.795 0-.64-.72-2.679-1.439-3.358-2.878-.68-1.48-.68-3.638-1.36-5.117zM67.56 77.433c0 2.119 0 3.558-2.04 4.238 1.36 0 2.719 2.118 3.398 3.517 2.039-2.078 3.398-4.917 5.397-7.035z" fill="#d7d8d9" fill-rule="evenodd"/><path d="M102.818 21.307c-8.675 1.4-12.033 10.594-10.674 21.947 1.32 10.633 5.317 21.946 13.352 19.828 7.995-2.119 10.634-7.076 10.634-13.432 0-6.396-2-5.677-2.639-13.472-.68-6.396-1.359-17.03-10.673-14.87" fill="none" stroke="#1a171b" stroke-width=".8" stroke-linecap="round" stroke-linejoin="round"/><path d="M124.085 44.653c-3.998 0-5.997.72-8.635 1.44.64 1.438.64 2.158.64 3.557 0 6.436-2.639 11.433-10.634 13.552-1.999.72-3.997 0-5.317-.68-1.359 5.677.64 12.113 4.638 15.67 4.677 3.558 17.309.72 22.666-9.274 5.956-9.274 5.317-22.106-3.358-24.265m-70.597 6.436c-6.676 9.274 0 19.908 10.034 24.905 9.993 4.957 20.667 2.119 23.345-5.677 2.639-7.115-4.677-12.112-8.035-14.231-3.997-2.159-7.315-.72-11.313-4.277-3.358-4.278-12.033-4.997-14.031-.72M14.111 91.545c8.675 5.636 12.673 1.399 17.35-4.278 4.677-5.676 5.357-7.076 9.354-9.234 4.677-2.119 5.997-14.152 0-19.149-5.996-5.676-16.67-.68-23.346 9.235-6.676 9.234-8.714 17.749-3.358 23.426" fill="none" stroke="#1a171b" stroke-width=".8" stroke-linecap="round" stroke-linejoin="round"/><path clip-path="url(#a)" d="M44.253 124.405c-5.357 7.795-5.357 13.471-.68 18.428 5.357 4.957 10.035 4.957 16.03 1.44 6.037-3.558 6.037-5.677 12.034-7.116 6.676-1.4 8.674-2.838 10.034-9.914.64-7.835-2-13.512-10.714-13.512" fill="none" stroke="#1a171b" stroke-width=".8" stroke-linecap="round" stroke-linejoin="round"/><path d="M28.063 92.344c-.68 7.795 16.11 12.033 27.503 8.515C66.96 98.02 67.64 92.344 68.32 85.948c.64-5.677-8.076-7.076-16.11-5.677-7.356 2.159-10.714-2.838-14.752.72h-.68" fill="none" stroke="#1a171b" stroke-width=".8" stroke-linecap="round" stroke-linejoin="round"/><path d="M89.586 83.07c.64-5.677-2.679-9.954-3.358-10.674-2.679 3.558-7.316 5.717-12.673 5.717-4.677 7.115-8.035 12.792-5.996 20.627 1.32 7.795 5.317 14.192 11.993 12.073 6.676-2.119 8.675-4.957 8.035-13.512-1.36-8.515 1.32-7.835 1.999-14.231m19.308-3.638s0 0 0 0c-1.999-.72-3.318-.72-3.998-1.44-1.998-1.398-3.358-3.517-3.997-6.395-.68 0-1.36 0-4.677 2.158-6.037 4.238-6.716 14.192-2.679 24.146 3.998 9.954 8.675 16.31 18.03 11.353 9.354-5.677 4.677-15.63 3.357-17.03-.68-2.159-6.676-9.234-6.036-12.792M50.33 57.445s-1.96 0-7.956-8.475c-6.676-8.475-6.676-23.346 2-26.184 7.315-2.838 9.313 5.677 10.633 12.033.68 3.558 9.314 4.957 9.954 14.151" fill="none" stroke="#1a171b" stroke-width=".8" stroke-linecap="round" stroke-linejoin="round"/><path clip-path="url(#a)" d="M160.902 92.904c6.636 4.997 5.997 17.11-5.356 27.103-10.674 9.954-20.668 6.396-22.667 1.44-1.998-3.598-2.678-8.555 1.36-13.552 3.997-4.997 8.634-4.997 13.991-12.113 5.317-7.156 8.675-6.436 12.672-2.878" fill="none" stroke="#1a171b" stroke-width=".8" stroke-linecap="round" stroke-linejoin="round"/><path d="M150.749 81.63c2.638 6.437-3.998 17.91-15.351 18.63-11.313.679-21.987-5.757-21.307-12.913.68-7.156 6.676-7.875 11.313-7.156 9.994 2.16 19.348-8.594 25.345 1.44" fill="none" stroke="#1a171b" stroke-width=".8" stroke-linecap="round" stroke-linejoin="round"/><path clip-path="url(#a)" d="M98.22 21.387c3.998-1.44 14.712 1.4 16.03-9.234C115.57 2.199 100.9.76 92.185 2.918c-7.995 2.119-21.387 9.914-14.671 19.149 5.996 8.514 12.672 1.439 20.707-.68" fill="none" stroke="#1a171b" stroke-width=".8" stroke-linecap="round" stroke-linejoin="round"/><path d="M33.62 99.42c3.358 12.752-13.432 19.108-20.148 9.914-3.358-3.558-8.715-9.235-9.394-14.911-.68-4.238.68-12.033 7.395-13.472m74.715-36.338c-9.275-.68-17.91-2.838-18.589 6.396v.72c3.998 3.557 7.316 2.118 11.273 4.277 2.679 1.4 7.316 4.237 8.635 9.194 9.914-4.957 7.955-19.148-1.32-20.587" fill="none" stroke="#1a171b" stroke-width=".8" stroke-linecap="round" stroke-linejoin="round"/><path d="M58.325 32.62c-1.36 7.076 7.995 12.033 19.948 10.634 11.353-.72 13.311-2.838 13.311-9.235 0-9.914-8.634-7.075-17.309-7.075-4.637.72-15.31-3.558-15.95 5.676M14.231 72.396c-8.674-5.676-2.678-15.63 2-22.027 5.316-6.396 19.307-9.953 23.985-2.118 3.957 7.115.64 10.673.64 10.673m63.361 51.929c-2.639 0-4.677-2.119-6.676-4.957h-.64s-1.999-2.878-4.037-2.159c-7.316 0-11.353 8.555-10.674 20.628.68 11.393 4.677 21.347 14.711 18.508 9.315-2.838 5.997-13.511 5.317-17.07-.64-4.277 1.999-7.834 2.678-14.23l-.68-.72zm20.547-9.195c8.635-.72 5.997 9.195 3.998 14.871-1.999 6.397 1.32 19.109-7.356 21.947-8.634 2.119-15.99-12.752-12.632-21.947 2.638-9.194 10.634-14.87 15.99-14.87" fill="none" stroke="#1a171b" stroke-width=".8" stroke-linecap="round" stroke-linejoin="round"/><path clip-path="url(#a)" d="M28.942 121.486c-3.358-1.439-7.395-6.436-10.073-7.835-6.037-2.878-14.072-1.439-16.07 7.835-2.04 8.515 8.034 17.07 18.748 18.51 10.074 1.398 20.787-5.717 18.109-12.833-1.32-4.277-6.036-3.558-10.714-5.677" fill="none" stroke="#1a171b" stroke-width=".8" stroke-linecap="round" stroke-linejoin="round"/><path d="M58.884 100.06c10.074-.72 14.072 9.274 12.073 14.27-3.358 7.116-10.034 9.995-16.75 7.836-6.036-2.119-5.357 1.44-13.392 2.878-7.395.68-13.432-7.875-8.714-16.43 2.678-4.277 8.035-7.116 8.035-7.116m90.065-38.456c5.317.72 10.634 9.354 9.994 14.391M44.173 64.64c3.398-2.078 7.436-1.358 7.436-1.358m50.609 63.841c2.678.68 5.357-2.758 5.357-2.758m21.347-5.037c.64 1.279 3.198 1.279 3.198 1.279m-89.786-66.04c.64-1.36 3.198-1.36 3.198-1.36" fill="none" stroke="#1a171b" stroke-width=".8" stroke-linecap="round" stroke-linejoin="round"/></svg>