<svg xmlns="http://www.w3.org/2000/svg" viewBox="0 0 602.286 342.859" width="602.286" height="342.859"><defs><style>@font-face{font-family:&quot;Virgil&quot;;src:url(https://excalidraw.com/Virgil.woff2)}@font-face{font-family:&quot;Cascadia&quot;;src:url(https://excalidraw.com/Cascadia.woff2)}</style></defs><g fill="none"><path d="M90.544 277.244c1.631-1.493 3.215-3.322 5.232-5.557m-5.272 6.262a56.811 56.811 0 0 0 4.864-6.316m-3.276 11.718c2.185-4.132 4.127-5.535 8.924-12.902m-10.096 12.39c3.037-3.031 5.455-5.941 10.989-12.139m-12.153 20.128c5.2-6.32 12.756-14.558 17.26-18.758m-16.45 17.61c5.19-7.656 12.575-13.155 15.812-17.505m-13.617 23.98c2.885-5.607 8.65-14.063 18.964-24.952m-20.461 23.981c3.44-4.904 9.507-11.04 20.088-24.935m-19.39 30.223c5.354-10.186 16.268-18.558 25.778-30.421m-27.044 31.286c7.687-6.774 13.28-14.91 26.859-30.316m-28.457 35.527c11.427-11.654 24.463-21.875 33.057-36.209m-32.689 37.814c9.824-9.364 16.172-19.085 33.914-36.991m-30.85 41.333c10.026-12.972 18.456-24.183 36.778-42.396m-37.362 42.256c8.844-11.587 18.99-22.38 36.328-41.495M97.33 312.965c7.992-12.953 19.62-21.95 33.453-40.887m-34.006 40.589c12.976-13.465 24.451-29.088 35.362-39.344m-30.073 38.543c8.353-10.864 17.323-20.246 28.81-31.91m-27.821 31.664c6.567-6.616 12.568-13.78 30.153-32.528m-25.097 32.164c4.568-6.349 14.641-16.959 24.388-27.286m-24.446 28.575c4.224-5.689 10.697-12.506 23.303-27.796m-18.335 26.024c7.015-7.828 15.376-15.502 17.042-20.363m-16.064 21.685c4.752-5.917 8.068-10.259 17.385-21.573m-12.04 22.092c5.07-4.786 5.884-8.514 12.812-17.074m-12.861 17.773c3.464-5.749 6.822-9.602 13.817-16.026m-9.153 15.034c2.863-1.985 3.94-5.037 8.974-9.399m-9.395 8.919c2.132-1.822 4.293-3.865 8.334-8.277m-2.445 8.9c.963-1.76 1.767-2.891 2.849-3.288m-3.235 3.193c.936-1.132 2.106-2.26 3.302-3.86m-36.096 2.721c-.353-.925-2.181-3.343-5.376-4.624m6.31 4.666c-2.139-1.562-3.887-2.613-6.386-5.237m11.005 5.508c-3.747-2.313-5.67-7.237-10.63-11.077m11.068 10.855c-3.06-2.658-4.622-4.272-11.5-11.47m18.687 9.602c-6.455-4.028-9.499-6.515-20.103-15.689m19.462 17.25c-2.959-3.643-7.726-5.815-17.485-15.875m25.618 16.238c-12.005-5.709-18.896-15.618-24.633-20.348m22.894 20.285c-10.205-8.494-19.077-17.086-25.068-21.295m32.299 21.518c-9.169-10.158-17.378-14.25-33.023-27.395m32.2 27.15c-11.95-8.239-22.17-19.148-30.643-25.654m35.713 24.315c-11.134-9.642-25.692-18.738-35.154-31.184m35.025 32.78c-11.196-9.091-21.473-19.583-36.813-32.948m42.416 31.02c-15.166-12.946-28.687-25.118-42.802-37.07m43.147 36.885c-11.302-8.472-20.836-17.513-42.413-35.33m43.059 28.59c-9.149-6.481-21-15.69-42.2-32.593m40.45 34.227c-10.84-9.26-24.445-19.97-40.08-35.294m41.521 31.025c-8.178-7.179-14.028-12.139-33.013-30.859m32.309 30.09c-8.98-7.055-17.69-15.445-34.23-30.055m35.434 25.771c-11.854-7.874-19.38-14.192-31.405-24.405m30.059 23.247c-8.747-7.592-18.8-17.34-27.12-24.42m28.112 20.094c-7.808-8.153-13.292-11.506-21.164-18.806m20.527 17.653c-8.26-6.524-17.727-14.252-22.974-17.381m23.298 14.205c-6.186-4.024-11.083-10.956-16.535-13.819m16.27 12.689c-5.472-4.36-11.876-10.525-15.817-14.28m15.58 9.731c-1.977-4.153-4.4-5.26-8.925-9.557m8.771 8.172c-2.587-1.987-4.784-4.55-9.089-8.521m9.07 3.245c-1.143-.61-2.093-1.29-2.916-2.75m2.622 2.596c-.664-.65-1.312-1.253-2.955-2.61" stroke="#228be6" stroke-width=".5"/><path d="M89.875 270.267c7.946 1.132 18.667 1.07 40.972 1.117m-39.717-.045c12.339-.328 24.686-.237 39.21.267m1.919-1.06c-.144 15.628-.998 29.528-2.073 38.975m.172-37.553c.011 13.019.933 28.468.212 38.415m.668-.966c-11.976 2.357-23.94 2.434-39.137-.152m38.637 1.247c-11.778 1.162-24.897 1.389-40.118.61m1.88-.414c-.18-11.454-2.996-25.065-3.46-39.619m1.11 40.018c.48-11.985.22-25.89.826-39.706" stroke="#000"/></g><g fill="none"><path d="M29.985 297.802c1.846-1.737 3.35-3.406 5.728-6.396m-5.023 6.546c1.238-1.598 2.442-3.929 4.97-6.461m-4.817 12.53c2.902-5.309 8.522-9.736 9.67-13.045m-10.182 12.51c3.675-4.347 7.473-7.097 10.433-12.066m-9.103 17.496c3.58-2.13 5.254-7.657 15.1-15.769m-16.249 15.915c4.773-5.009 11.717-12.12 16.354-17.933m-13.158 21.226c5.624-5.595 8.398-11.295 18.224-22.858m-19.195 22.84c6.127-5.218 11.019-13.272 18.242-21.085M36.614 311.84c3.646-2.47 9.067-8.094 18.793-21.22m-17.928 23.79c6.043-7.054 10.767-12.281 18.898-22.439m-14.442 20.42c8.011-5.93 17.484-15.748 19.798-22.245M43.54 313.983c6.13-8.604 11.818-14.119 19.015-22.975m-13.82 22.759c4.755-8.607 11.168-12.352 17.385-22.987m-17.525 22.09c5.527-6.415 11.779-13.197 18.285-21.684M54.49 312.262c4.625-5.585 13.19-16.108 16.825-18.425M54.19 313.194c6.586-7.505 11.035-12.839 18.37-20.824M58.77 312.81c2.043-3.077 5.451-8.74 15.173-16.222m-15.42 17.311c4.76-5.084 8.988-8.95 14.556-15.686m-9.037 13.676c3.79-1.618 5.27-5.072 7.568-8.142m-6.86 8.785c2.194-1.605 3.728-4.436 7.288-7.511m-35.058 7.072c-1.583-2.864-2.745-3.551-6.528-6.054m6.808 5.599c-2.278-1.687-3.796-2.82-6.109-5.74m11.665 6.62c-4.564-5.038-10.552-8.194-12.531-13.423m11.89 12.028c-3.985-2.965-8.268-7.275-11.035-10.09m17.641 11.209c-7.406-6.451-12.323-10.876-16.171-16.38m15.793 15.334c-5.63-4.516-11.255-9.715-18.462-16.472m24.975 16.22c-8.308-4.722-13.999-10.04-22.193-18.496m23.074 19.076c-5.896-4.084-12.166-11.166-25.33-21.168m30.263 22.488c-3.999-4.99-11.502-10.65-21.835-22.583m21.94 20.366c-5.63-4.912-10.251-9.015-23.366-20.189m30.697 19.445c-7.976-6.228-19.514-12.953-24.876-21.288m24.599 21.932c-10.334-7.122-19.088-15.259-25.367-20.556m27.28 18.276c-5.035-2.475-8.224-8.106-21.83-19.54m23.39 21.618c-7.88-7.49-14.174-12.784-22.015-18.916m22.477 12.266c-3.672-2.394-11.161-6.694-15.3-11.641m15.237 11.887c-4.02-2.84-8.356-6.65-16.248-13.632m16.314 9.492c-3.533-1.132-3.089-4.976-10.56-8.604m10.4 7.275c-1.862-1.813-5.384-3.274-9.428-7.64m9.306 3.446c-.646-1.424-1.236-1.686-3.533-3.384m3.932 3.152c-1.24-.958-2.78-2.565-3.974-3.06" stroke="#228be6" stroke-width=".5"/><path d="M29.667 289.434c12.071 1.888 22.973 2.168 41.116 2.013m-40.044.228c11.79-.24 23.663-.926 40.267-.048m-1.06 1.145c2.121 4.86 2.512 9.442-1.025 19.557m2.447-21.121c-1.15 5.73.142 9.577-1.585 20.197m-.966 1.077c-12.524.774-27.25.337-40.152-.892m41.247.651c-12.113-.403-25.223-.985-39.39-.952m-.414 1.318c.69-7.253-.764-11.843.381-20.883m.018 19.58c.949-6.633-.007-12.475.294-20.234" stroke="#000"/></g><g fill="none"><path d="M150.543 277.579c1.16-1.328 2.388-2.607 4.89-6.156m-4.74 6.33c1.792-2.27 2.854-4.085 4.824-5.91m-4.005 10.575c1.526-1.043 3.945-5.691 9.528-11.026M150.98 283.25c2.559-3.037 6.72-7.67 10.505-12.394M149.75 290.49c8.09-8.862 12.773-13.26 18.09-17.82m-17.944 16.306c7.095-5.174 12.088-11.755 15.925-17.74m-15.617 25.416c5.867-8.916 11.677-14.467 20.023-25.36m-20.04 24.088c6.638-6.857 10.458-12.879 21.795-24.824m-22.914 29.239c12.902-10.721 22.723-22.962 26.91-28.795m-24.34 30.974c4.245-6.497 10.32-12.923 25.69-29.75m-27.575 35.263c10.993-7.342 17.983-20.031 31.788-35.86m-30.197 36.67c10.934-14.612 24.791-28.415 31.058-37.017m-29.927 40.171c11.516-14.903 27.94-31.264 34.327-39.322m-35.225 39.557a2780.293 2780.293 0 0 0 35.63-39.316m-30.856 38.396c13.054-10.754 21.196-23.578 36.724-37.776m-35.792 40.588c8.935-12.575 19.972-23.007 34.324-41.322m-29.424 38.316c12.198-12.914 21.742-22.436 28.394-32.132m-27.305 33.865c7.98-9.388 17.246-18.563 28.93-33.18m-26.44 33.852c8.506-8.709 13.7-13.911 24.566-28.902m-23.395 29.023c10.283-11.298 18.39-21.506 25.71-28.793m-19.389 26.178c5.424-4.124 5.945-7.405 17.78-18.124m-17.015 19.24c2.013-2.98 6.266-8.446 17.893-20.746M180 312.958c1.38-4.474 8.358-13.143 11.763-16.412m-12.9 15.392c2.515-3.162 6.706-6.251 12.55-14.359m-6.313 14.808c1.43-3.466 4.265-5.368 5.679-8.822m-6.725 8.331c2.722-2.568 4.299-4.164 8.178-8.658m-3.019 8.803c.284-.57 1.15-.7 3.121-3.176m-3.382 3.55c.981-.905 1.814-2.084 3.098-3.67M157.536 311.73c-2.302-2.875-4.985-3.708-6.936-6.126m6.05 5.577c-1.512-.822-2.584-2.278-5.979-4.818m10.602 5.707c-1.35-4.422-3.23-5.626-12.31-10.137m12.825 8.822c-3.557-3.323-8.024-8.249-11.726-10.977m17.37 9.493c-5.412-4.67-13.882-11.957-18.628-13.143m20.706 14.345c-7.108-4.26-12.065-10.045-18.004-14.614m22.739 17.607c-7.711-10.483-17.02-18.003-22.113-24.679m22.359 22.542c-5.32-5.57-11.658-10.316-24.104-22.467m31.622 20.322c-8.815-4.384-21.498-15.137-30.304-25.539m28.26 28.44c-9.782-10.318-18.757-17.317-28.821-27.494m36.817 26.84c-10.651-6.053-16.814-15.94-37.395-30.764m36.47 31.607c-11.17-11.42-25.322-23.395-36.101-33.848M191.245 309c-14.575-12.992-32.266-27.965-41.475-36.396m41.401 37.662c-8.19-7.65-17.88-15.744-41.121-36.838m42.954 31.233c-11.177-8.821-19.123-14.798-41.085-34.663m40.794 35.559c-14.114-11.421-26.923-24.188-41.865-35.114m40.623 28.275c-8.985-7.339-17.888-17.188-34.208-29.359m34.097 30.057c-11.264-10.35-21.883-19.837-33.09-29.047m31.714 24.331c-5.58-4.329-13.018-10.711-25.318-25.708m27.937 25.683c-7.179-7.262-12.994-12.427-28.398-25.6m28.096 18.568c-5.386-3.148-12.906-10.199-20.515-15.972m20.65 17.43c-6.733-5.472-12.138-8.712-22.357-18.924m20.845 14.818c-5.636-7.38-9.265-8.6-14.358-16.597m15.524 15.994c-4.876-4.658-7.07-7.076-16.334-14.514m17.216 7.953c-2.09-.733-4.838-3.516-11.29-7.495m10.213 7.926c-2.88-3.215-5.495-5.668-9.756-8.788m9.494 3.466c-1.243-.915-1.775-2.117-3.14-2.75m3.26 2.517c-.656-.627-1.512-1.312-3.006-2.656" stroke="#228be6" stroke-width=".5"/><path d="M148.834 271.375c13.496.135 25.54.205 42.013-.234m-39.772.206c15.31.055 29.981.223 39.952-.24m1.145 1.558c-.532 12.444-1.664 20.963-.443 37.392m-1.121-39.228c.805 13.089-.155 23.149.197 41.122m1.076-.254c-12.114-.29-25.321-2.799-40.89.222m40.65-.183c-11.813-.068-23.77-.909-40.952-1.267m1.318.941c-3.186-13.68-3.338-24.771-.883-39.787m-.42 40.448c-.06-13.247.472-25.25-.234-40.122" stroke="#000"/></g><g fill="none"><path d="M210.32 257.765c1.742-1.917 3.529-4.19 5.13-5.93m-4.957 6.204c1.432-2.685 3.324-4.521 5.378-6.67m-5.961 11.757c5.861-4.757 8.117-9.343 11.547-11.904m-10.715 11.691c3.93-2.85 6.253-7.104 10.178-11.257m-9.596 19.69c1.678-5.588 7.831-9.507 16.037-18.556m-17.551 17.695c6.154-6.101 10.9-12.173 16.118-19.201m-13.69 23.74c5.846-9.276 15.07-20.248 19.785-24.904m-21.058 26.018c6.14-9.295 13.11-16.75 20.321-24.053m-22.565 30.911c10.677-11.245 19.809-24.038 27.636-33.394M210.9 281.64c7.63-8.692 15.315-18.1 26.681-30.379m-27.827 38.235c10.318-10.35 15.25-19.666 33.267-36.71m-32.458 34.603c6.177-6.393 13.164-15.038 32.111-35.485m-32.695 40.534c12.213-10.544 22.977-26.64 38.172-39.954m-37.937 41.567c10.37-11.371 20.802-24.468 38.177-42.44m-39.719 50.131c14.338-17.106 26.625-29.422 42.9-48.682m-40.088 46.233c9.727-11.51 21.604-24.628 39.353-45.113m-41.57 51.94c10.71-13.859 24.782-26.44 41.85-46.607M211 305.97c13.762-14.728 27.639-31.041 40.802-46.871m-40.096 53.314c10.725-14.778 24.81-31.668 39.042-45.444m-38.921 44.91c12.607-16.106 26.296-30.178 39.15-47.43m-36.384 48.91c10.167-14.515 21.024-24.866 37.78-43.514m-36.664 41.072c13.953-14.233 25.398-28.26 35.158-38.453m-28.516 37.039c11.403-9.908 18.619-21.92 28.303-32.657m-29.323 34.562c11.758-12.26 23.736-27.068 30.356-33.464m-24.373 34.478c5.546-7.388 13.72-19.283 24.665-29.124m-25.483 29.44c5.36-7.244 12.261-12.916 24.939-29.747m-20.768 27.806c8.117-7.668 17.985-15.674 20.76-21.323m-19.266 22.349c6.353-6.958 11.56-15.011 18.786-21.085m-14.817 21.773c6.866-5.032 13.485-10.962 14.174-15.142m-12.085 15.248c5.039-8.052 9.26-13.452 12.308-16.08m-6.756 15.604c.337-2.809 3.707-5.231 6.556-10.74m-7.38 9.465c3.565-2.955 6.142-6.574 8.519-9.069M215.994 311.304c-1.319-2.375-3.795-4.293-4.997-5.033m5.478 4.79c-1.332-1.06-3.3-2.487-5.585-4.647m13.969 6.225c-6.467-3.815-10.432-8.19-15.405-13.19m13.588 12.04c-3.857-3.51-7.067-6.48-13.524-11m17.394 12.526c-3.043-9.025-12.351-12.582-17.41-17.076m20.312 14.484c-8.42-5.007-13.425-10.538-19.366-15.67m24.847 15.227c-4.675-3.113-13.592-9.799-23.522-19.403m24.366 21.706c-6.003-6.334-12.443-9.839-26.608-21.73m30.684 21.255c-9.557-10.961-21.103-19.248-31.157-28.83m32.423 28.47c-12.114-11.684-24.81-22.185-31.599-27.582m37.38 26.022c-14.005-10.793-25.863-21.262-36.12-29.695m37.015 30.505c-9.21-7.635-19.995-16.052-36.57-31.026m38.753 30.086c-14.077-12.095-30.307-27.442-40.492-35.174m41.19 33.874c-15.89-12.687-30.727-25.037-40.18-35.053m40.811 29.638c-14.142-14.515-30.03-24.81-41.433-35.196m41.408 36.293c-14.1-9.931-26.21-21.57-41.325-34.747m38.886 30.814c-10.7-12.2-25.164-24.022-36.946-37.72m38.403 34.81c-12.982-10.82-24.11-21.066-39.898-33.563m41.796 28.253c-17.138-10.633-27.662-22.132-42.82-34.859m42.217 35.344c-16.263-10.966-29.947-24.327-40.736-34.46m38.457 31.48c-10.322-10.67-23.373-23.504-38.408-36.167m39.072 34.369c-11.64-8.98-22.32-19.833-40.398-34.178m41.866 27.996c-13.726-9.273-28.772-24.086-39.118-33.322m37.954 35.008c-10.139-9.545-20.723-18.48-38.65-34.924m40.416 27.057c-8.397-4.641-13.063-7.21-33.655-25.473m30.951 26.788c-11.491-8.951-22.82-20.018-30.715-26.72m33.127 20.111c-9.414-5.264-16.277-8.043-26.85-20.386m26.176 22.19c-9.804-7.717-19.18-16.218-27.099-23.555m25.305 17.057c-7.232-4.702-14.827-11.62-17.292-14.743m18.487 15.349c-5.292-4.73-10.593-9.212-20.214-16.667m20.152 13.53c-4.195-4.698-7.052-9.327-15.12-13.834m15.367 13.199c-4.715-4.055-7.276-7.301-15.187-13.284m15.003 6.513c-2.725-.969-5.25-3.759-7.859-6.996m7.887 7.064c-2.72-2.073-5.352-4.71-8.275-5.948" stroke="#228be6" stroke-width=".5"/><path d="M210.775 251.167c9.848.624 19.828.625 37.695 1.762m-37.723-1.302c13.292-.847 26.662-.16 37.69-.364m1.557.655c.18 21.695-3.355 46.063-2.607 59.23m.77-59.018c1.724 15.287-.014 31.768 1.123 59.313m-.254 1.695c-12.417-.203-27.42-1.314-37.708-2.2m37.747.865c-11.484-.206-24.036-.138-39.196-.497m.94-1.514c-1.29-23.706-.157-45.174.214-58.397m.448 59.65c-.87-14.472-.584-29.981-.122-58.876" stroke="#000"/></g><g fill="none"><path d="M330.506 257.614c1.32-1.392 2.286-3.162 5.356-5.774m-5.082 5.665c1.263-2.114 3.382-4.169 4.616-5.568m-4.777 12.339c3.033-5.362 6.246-8.086 10.668-12.786m-10.882 12.292c3.533-3.941 5.665-6.726 11.316-12.873m-9.543 17.242c4.783-4.497 11.226-10.362 15.303-16.486m-16.163 18.67c4.137-5.352 8.288-11.707 14.657-17.837m-15.367 21.866c7.373-7.39 13.037-15.539 20.241-22.488m-19.126 22.581c4.8-6.957 11.419-13.539 21.09-22.622m-20.892 28.86c6.04-7.36 10.498-13.57 23.037-29.071m-24.392 29.88c7.292-8.23 13.907-14.898 26.051-30.61m-24.855 39.057c5.47-10.702 11.96-17.587 32.418-40.659m-34.525 38.528c10.953-10.921 19.701-21.992 33.642-36.458m-33.842 42.05c14.486-14.073 23.43-25.216 39.05-42.213m-37.437 41.95c12.055-12.89 22.354-24.456 36.563-41.52m-35.53 48.406c9.16-13.477 23.106-25.97 34.848-42.751m-37.298 42.65c12.264-12.289 22.921-26.228 38.418-42.362m-36.84 46.536c8.79-8.22 18.851-21.653 36.17-39.91m-36.318 41.87c9.36-9.575 17.147-19.655 35.905-42.324m-34.711 45.726c8.378-8.47 14.63-18.054 36.677-38.852m-37.211 40.586c9.94-12.127 21.9-24.85 34.69-41.429m-28.582 40.373c4.02-7.013 12.203-13.36 27.975-33.282m-30.418 35.617c9.454-11.536 19.121-21.72 33.037-36.396M340.03 313.14c9.46-11.857 16.823-19.773 26.136-29.259m-24.231 27.54c10.47-10.331 18.395-21.11 25.33-29.461m-19.69 28.568c7.303-6.423 10.092-12.69 19.139-23.651m-18.823 24.226c4.059-4.246 9.687-10.572 18.516-21.82m-14.418 21.125c4.942-2.173 9.542-8.438 14.897-15.869m-13.872 16.679c3.553-4.89 6.013-8.122 15.137-16.367m-10.013 16.991c3.49-2.042 6.305-7.054 10.37-10.062m-10.29 10.252c1.95-4.786 5.89-8.667 9.667-12.187m-4.218 11.002c.84-.583 1.91-2.963 3.611-4.225m-4.355 4.906c1.568-1.696 2.745-2.888 4.586-5.615M336.804 311.097c-1.858-1.678-3.343-1.843-5.822-5.17m5.58 5.442c-1.305-1.742-2.91-2.92-5.437-5.022m13.151 5.287c-3.225-2.241-7.137-7.435-14.868-11.466m13.717 11.05c-3.743-2.702-7.142-6.845-12.677-10.215m20.242 11.985c-9.173-7.8-12.697-13.375-19.445-16.313m16.852 13.67c-4.749-3.278-10.355-9.371-18.037-15.295m23.73 18.223c-3.241-7.278-9.912-10.365-22.657-25.156m24.96 23.689c-9.438-7.705-16.19-14.813-24.985-21.728m30.549 20.77c-11.193-9.447-19.776-17.238-32.777-24.09m32.416 24.772c-9.462-7.778-17.913-15.791-31.527-26.124m36.104 24.75c-7.043-5.031-13.367-11.5-34.43-31.314m35.24 33.193c-9.95-9.715-20.088-16.736-35.761-31.573m36.789 25.714c-12.064-12.647-27.371-23.59-36.63-30.713m35.33 29.434c-11.773-10.366-23.27-19.568-36.508-30.008m36.44 27.472c-13.46-11.744-23.353-24.35-36.651-32.889m37.748 30.308c-9.743-8.123-20.622-17.377-36.202-30.235m37.517 27.032c-12.186-11.341-23.945-20.602-39.175-32.759m36.265 30.656c-8.491-5.826-16.214-13.988-35.017-30.532m35.055 24.596c-12.507-8.764-26.182-24.025-36.314-28.8m36.798 29.682c-11.94-10.443-26.048-21.91-35.915-30.892m38.94 27.626c-14.922-13.56-31.538-25.366-38.378-33.711m36.578 31.707c-8.561-7.903-19.258-16.39-36.387-30.686m34.799 26.969c-8.3-10.82-22.312-20.132-34.58-31.814m36.265 30.668c-9.874-8.361-19.074-16.665-36.181-31.065m34.317 26.166c-9.163-6.365-15.797-16.557-26.597-23.62m27.912 22.779c-6.402-6.422-14.81-12.109-27.845-24.527m25.83 18.363c-6.879-6.373-11.155-10.52-20.066-17.135m21.869 18.923c-7.885-7.25-16.751-15.395-23.234-19.221m22.739 13.37c-2.846-4.471-8.232-6.996-14.29-14.653m14.896 15.544c-6.772-5.613-13.153-11.849-16.213-14.735m17.297 8.786c-3.215-1.132-6.438-5.475-11.575-9.774m11.106 9.065c-3.059-1.236-5.522-4.316-11.169-8.62m10.746 4.138c-.594-1.152-2.253-1.903-4.79-3.557m4.831 3.873c-1.656-1.504-3.645-3.529-4.16-4.008" stroke="#228be6" stroke-width=".5"/><path d="M330.567 251.314c9.441.047 18.603-.196 38.286.897m-37.826-.773c10.596.132 22.564-.366 36.16.616m.656 1.002c-.676 12.352.867 28.775-.77 57.61m.981-58.545c-.984 20.57-.75 44.446-.687 59.423m1.696.23c-8.046-2.427-16.767.226-38.726-.349m37.39.538c-8.845-.663-17.04-1.317-37.02.213m-1.516-2.22c-.559-15.242 1.526-31.083 1.604-59.705m-.35 60.863c.498-16.853-.008-33.446 1.124-58.886" stroke="#000"/></g><g fill="none"><path d="M450.355 137.787c1.79-2.28 3.203-3.777 5.512-5.575m-5.622 5.167c2.124-2.173 4.31-4.565 5.719-5.754m-4.196 11.402c1.942-4.138 6.513-8.065 9.787-12.716m-10.281 13.609c2.405-4.293 5.967-7.975 9.7-12.249m-11.99 18.767c6.075-4.043 10.79-9.135 17.372-18.881m-15.188 18.242c3.819-4.981 6.617-9.125 16.022-17.811m-17.242 23.159c6.38-7.851 12.02-13.612 22.657-24.26m-22.563 23.887c4.697-5.023 9.77-9.673 22.522-24.222m-22.944 32.02c5.626-8.59 12.366-16.268 27.36-31.816m-26.55 31.631c10.08-12.226 21.736-24.958 25.82-31.636m-24.033 36.991c6.1-10.743 16.002-18.012 28.47-36.544m-30.601 37.769c12.957-15.348 25.774-29.06 32.67-37.704m-32.327 44.289c10.83-15.732 24.57-27.498 36.79-43.858m-37.053 42.823c9.315-11.636 19.923-21.677 37.483-42.838m-37.256 47.414c10.728-10.343 22.345-24.19 40.188-45.625m-40.289 46.98c13.485-15.127 25.415-29.023 40.578-47.252m-41.652 51.238c14.684-12.91 24.077-24.044 42.372-45.873m-40.412 48.205c14.703-17.37 28.908-34.294 39.96-47.657m-42.462 53.608c9.426-11.83 17.758-18.077 43.331-47.383m-41.598 46.24c9.108-9.251 17.674-21.234 40.756-46.866m-42.433 52.232c13.4-13.132 27.336-28.191 43.62-45.32m-41.285 46.641c13.949-16.225 29.16-32.871 40.505-46.415m-39.059 52.436c12.336-17.625 28.655-36.246 40.194-44.547m-41.913 45.502c14.932-17.877 29.29-33.614 39.992-46.888m-41.507 54.082c16.83-22.088 33.867-39.204 40.42-49.632m-39.845 47.863c14.29-14.326 26.384-30.342 42.253-46.914m-42.158 52.615c17.036-15.63 29.685-32.698 41.509-47.296m-40.7 47.566c11.012-14.686 23.552-26.71 41.011-46.619m-40.976 54.426c12.634-12.62 21.067-25.622 42.355-47.736m-42.102 44.987c10.588-13.433 22.605-26.446 39.521-45.948m-41.604 53.452c18.09-18.907 31.2-37.79 43.698-47.304m-41.751 47.115c9.535-11.5 20.367-23.456 39.726-46.346m-41.179 52.992c9.943-13.016 20.694-19.913 40.687-46.052m-38.886 45.51c7.3-10.627 15.612-19.012 39.82-47.301m-40.982 51.848c8.391-11.123 19.96-19.108 40.872-45.733m-40.191 47.71c14.434-16.443 29.815-33.049 41.242-47.35m-40.971 54.372c10.512-11.787 18.158-25.993 39.65-48.257m-40.14 46.083c9.384-9.77 16.98-19.703 41.123-45.524m-39.164 50.838c12.258-14.585 26.124-31.51 40.108-45.009m-42.75 46.566c9.33-8.951 16.492-19.421 41.126-47.674m-38.722 55.025c11.135-16.128 26.49-30.985 37.17-47.527m-38.637 45.74c9.508-11.73 20.278-24.091 40.598-46.154m-40.766 51.05c10.182-12.992 21.775-27.1 42.171-45.05m-41.49 45.784c9.86-12.588 19.961-25.21 40.138-46.354m-42.035 52.496c15.906-15.487 30.376-31.918 40.853-46.521m-38.974 46.89c13.726-18.34 30.894-35.587 40.594-45.718m-40.414 53.473c10.634-16.581 22.852-29.032 40.797-47.037m-42.077 45.115c11.306-12.856 24.11-27.045 41.502-45.186m-39.312 49.97c7.473-6.842 14.364-18.71 39.278-45.168m-41.859 48.108c15.687-18.508 30.785-36.364 41.931-47.516m-39.752 54.463a3685.278 3685.278 0 0 0 39.407-49.64m-41.51 47.194c14.777-14.179 27.272-29.06 41.634-44.962m-42.188 51.724c13.175-11.15 20.512-25.05 42.71-44.884m-41.83 45.338c13.588-15.769 26.972-31.398 40.62-45.827m-39.16 52.966c14.038-19.81 29.46-35.45 39.112-49.025m-41.116 48.536c11.298-13.54 21.826-24.972 42.137-47.459m-39.816 53.895c9.56-15.217 20.985-27.759 38.384-48.35m-39.53 46.687c12.357-14.33 24.548-29.657 39.133-45.702m-37.994 49.557c16.296-13.895 29.46-32.724 40.674-45.108m-41.515 46.801c13.208-15.329 26.545-29.027 39.766-45.711m-34.643 43.185c10.541-9.089 23.687-22.673 36.005-35.437m-34.218 37.338c8.495-10.085 16.435-20.958 33.92-38.877m-29.797 39.85c5.935-6.784 13.61-12.927 27.99-31.748m-27.098 29.986c9.467-10.9 18.485-21.417 27.908-32.2m-22.51 33.22c7.96-8.051 11.319-15.12 22.12-28.337m-23.132 27.687c8.184-8 13.813-16.13 23.768-26.911M473.052 313.8c5.296-8.367 12.07-16.327 18.978-19.693m-17.925 18.358c5.346-6.81 9.252-11.69 17.475-19.785m-12.408 17.598c3.83-2.076 7.85-5.774 11.63-13.776m-11.99 16.42c3.958-3.766 6.578-7.676 13.24-15.32m-7.459 13.859c.792-1.439 2.969-3.434 7.319-6.96m-7.942 8.551c1.946-2.555 2.631-3.984 6.945-8.688m-34.252 7.495c-1.319-2.05-3.947-3.846-5.252-6.327m5.217 5.618c-.773-1.02-2.647-1.882-5.9-5.016m10.368 5.682c-2.095-5.26-4.556-6.592-9.046-10.176m9.966 9.714c-1.701-2.665-5.198-5.386-11.295-10.526m19.603 10.897c-4.868-3.536-10.257-8.686-19.086-18.145m18.217 18.51c-6.001-5.116-10.081-9.486-17.917-15.592m21.952 14.205c-3.617-3.552-10.423-11.876-22.816-22.644m23.494 21.918c-4.182-2.194-8.422-7.124-23.197-20.079m32.025 22.801c-15.002-12.607-23.755-21.283-31.396-29.584m29.218 27.975c-7.921-7.238-16.579-15.152-30.718-27.016m37.482 27.547c-5.912-7.6-15.757-11.727-37.06-31.048m35.96 31.439c-10.384-10.496-20.062-19.357-36.73-31.861m41.137 27.44c-8.687-6.949-20.927-15.486-40.318-33.964m40.961 35.749c-15.032-12.727-29.716-26.441-40.917-34.261m38.304 29.83c-11.604-11.43-26.382-23.704-38.53-35.293m39.81 34.617c-15.443-14.17-30.005-26.138-39.969-36.236m41.768 30.883c-16.626-13.646-30.648-24.844-40.882-33.398m39.496 32.812c-14.952-12.898-29.237-25.584-39.552-34.556m39.324 28.084c-9.506-9.556-20.58-16.503-41.1-33.456m40.24 33.968c-10.79-9.4-21.112-19.36-40.041-35.147m40.788 31.96c-12.622-11.172-26.966-25.625-38.478-36.085m38.59 34.623c-6.7-6.607-15.076-13.318-40.522-34.718m38.818 31.166c-13.695-15.998-27.354-29.804-39.867-35.335m42.53 32.618c-15.409-10.57-27.66-22.933-41.804-33.758m40.9 27.585c-15.212-12.548-29.615-24.726-41.684-32.697m41.558 34.504c-9.407-7.765-20.142-16.901-39.411-35.536m40.179 29.418c-9.231-9.61-20.864-17.112-39.906-35.1m39.796 35.957c-17.067-13.82-31.54-27.176-40.591-35.107m39.442 30.28c-12.892-10.803-25.099-22.243-40.076-36.907m40.073 37.168c-13.958-12.833-28.792-27.81-39.306-36.3m37.945 28.292c-11.048-9.074-23.958-19.367-39.297-33.923m41.022 35.268c-12.252-9.96-23.052-19.884-39.24-34.733m41.398 31.176c-11.946-10.114-22.524-18.95-40.235-37.386m39.171 35.717c-14.133-12.207-29.96-24.513-40.793-34.799m38.793 31.35c-10.17-11.044-22.176-20.842-36.364-35.32m37.29 34.068c-12.201-10.077-22.709-21.104-39.332-34.02m39.634 30.36c-12.093-13.933-25.243-24.944-41.737-37.806m42.244 36.644c-16.161-13.606-30.716-27.242-39.957-35.321m39.295 27.917c-10.967-9.25-22.07-17.324-37.448-32.43m38.56 34.39c-13.754-10.783-25.206-22.073-40.965-35.475m40.924 28.492c-16.753-10.394-29.12-23.679-41.163-32.84m40.047 34.834c-15.859-14.933-31.409-28.51-40.385-34.656m41.9 29.464c-10.211-8.911-24.12-17.384-41.363-33.46m41.127 33.218c-12.702-10.497-24.539-22.943-41.213-34.167m40.416 29.877c-6.781-10.349-16.273-16.42-40.088-36.158m39.688 34.56c-13.494-11.901-28.522-25.179-39.162-34.092m40.46 28.533c-13.32-9.612-25.126-20.49-38.942-36.235m38.165 36.056c-7.74-6.68-16.19-14.475-39.666-34.294m39.653 28.084c-8.122-7.308-18.714-14.529-41.092-32.433m41.642 34.49c-14.832-12.719-29.73-24.61-40.875-35.42m42.218 31.125c-13.811-12.73-28.58-25.078-41.265-36.928m38.946 34.637c-8.405-7.305-17.94-14.976-38.66-33.894m38.822 28.291c-10.768-7.034-21.321-15.857-39.752-33.336m38.738 34.677c-11.486-12.447-24.234-22.596-39.61-34.927m39.552 28.348c-9.152-9.738-16.741-17.564-40.407-34.71m42.608 36.588c-16.86-15.667-31.892-27.912-40.031-35.505m39.747 28.286c-10.496-7.241-23.567-19.738-40.646-33.54m39.166 33.568c-9.954-8.643-21.815-19.439-38.95-33.402m38.981 29.418c-9.644-10.156-19.514-16.63-37.448-35.755m39.144 36.429c-15.55-13.705-30.115-25.757-41.115-36.168m40.895 29.466c-10.433-8.358-21.089-19.316-41.354-34.717m39.478 35.003c-13.19-12.277-28.395-25.38-39.986-34.136m40.17 28.663c-9.545-7.45-17.57-15.836-38.466-33.232m40.41 32.562c-17.72-12.893-33.165-26.176-40.747-33.42m40.372 29.838c-8.19-7.81-20.816-15.308-40.452-37.538m39.58 37.208c-13.646-12.499-27.08-24.949-39.3-34.917m38.92 28.52c-13.339-12.571-32.622-25.493-38.54-35.315m39.118 36.288c-9.505-8.799-18.176-16.335-39.263-35.302m36.925 29.019c-10.524-7.623-21.438-17.17-30.728-27.77m32.95 27.894c-9.773-7.217-18.815-15.305-34.186-28.129m35.378 22.628c-9.422-7.326-17.857-11.92-29.67-22.677m27.768 24.299c-3.986-5.562-10.448-11.486-26.426-25.854m26.867 18.735c-7.998-7.854-16.215-14.755-22.266-17.4m22.723 18.388c-8.137-6.589-13.633-12.987-21.74-17.873m20.14 11.956c-5.56-4.02-9.617-8.387-13.012-11.989m13.865 13.17c-3.834-5.02-9.34-9.354-15.644-14.614m15.541 8.898c-1.636-3.266-5.881-4.177-9.58-8.361m9.724 7.155c-2.239-1.227-5.787-4.569-8.622-6.769m9.53 2.728c-.703-.791-1.532-1.584-3.593-2.853m3.205 2.543c-.81-.832-1.741-1.658-3.016-2.592" stroke="#228be6" stroke-width=".5"/><path d="M450.714 131.447c8.004.016 15.695 1.498 38.826-.02m-38.702-.486c13.157.543 25.648.18 38.546-.043m1.001-.112c-2.261 69.243-1.725 135.762-2.39 181.9m1.455-181.516c-2.496 53.478-.929 106.758-.577 179.163m.23 2.368c-16.223-.753-27.284-1.406-38.278-2.926m38.467 1.446c-15.98.278-31.772.295-37.717-.242m-2.22-1.34c.99-64.13 1.524-130.675.296-178.676m.863 180.613c-1.19-55.484-.643-109.363 1.113-180.683" stroke="#000"/></g><g fill="none"><path d="M270.527 277.724c1.177-2.02 3.136-3.362 5.712-5.505m-6.12 5.451c1.802-1.739 3.393-3.614 5.533-5.878m-5.133 10.732c2.613-2.085 5.436-4.95 9.857-10.917m-8.964 11.168c2.727-3.468 6.058-6.975 10.324-11.868m-10.465 19.276c6.028-5.44 11.026-12.606 14.977-19.86m-15.616 19.965c2.902-5.185 6.66-8.069 16.047-19.069m-15.948 24.134c6.224-8.648 14.533-16.907 20.885-25.631M270.359 294.4c6.835-6.872 14.069-12.959 20.922-24.013m-19.783 29.852c3.38-5.052 7.697-10.566 24.614-26.733m-24.8 27.703c8.315-8.533 16.122-19.661 24.795-29.989m-26.099 36.1c7.748-8.916 19.004-21.163 32.583-34.274m-31.358 35.096c9.485-11.504 20.571-23.146 31.424-36.809m-28.12 38.766c6.785-8.29 17.514-19.603 33.178-39.64m-34.212 40.4c7.257-7.977 16.117-18.424 34.196-39.72m-30.375 39.429c8.013-5.95 12.464-13.824 30.033-32.273m-28.677 33.518c11.182-14.14 23.662-27.25 28.406-34.183m-25.077 35.533c4.932-7.377 11.623-12.971 24.438-28.534m-22.106 27.67c6.426-8.628 13.28-17.894 22.654-29.73m-17.458 27.816c3.598-6.466 12.685-11.96 17.778-22.01m-18.921 22.79c7.648-7.82 12.482-15.055 18.296-21.273m-14.34 20.895c3.803-1.336 5.487-4.76 15.249-13.883M293.67 310.9c3.987-3.576 7.773-6.688 14.155-14.484m-8.146 13.93c2.372-2.365 4.291-4.035 8.767-7.74m-8.194 8.788c.86-1.986 3.005-4.689 7.362-8.852m-2.611 8.802c.11-.733 1.197-2.152 2.056-2.916m-2.41 3.13c.764-.865 1.142-1.505 2.6-3.079M277.081 309.453c-1.347-2.201-2.89-2.263-6.415-5.87m5.316 4.968c-1.94-1.911-3.806-3.815-5.7-4.603m12.584 6.178c-4.803-5.736-9.731-7.114-12.486-12.362m12.334 11.22c-3.268-1.982-6.723-5.553-11.718-10.976m19.103 11.382c-9.732-4.353-13.342-12.927-18.882-18.207m18.34 17.44c-6.074-4.512-9.972-7.903-20.132-16.378m23.924 15.034c-5.418-1.942-7.706-7.093-23.092-18.075m25.068 19.45c-5.124-3.953-10.309-8.264-24.709-21.188m32.487 22.983c-12.682-12.963-27.867-22.911-33.163-29.722m30.989 28.712c-8.52-8.933-17.196-14.893-30.43-26.556m34.99 25.271c-5.4-6.614-13.225-10.588-34.444-32.752m36 34.248c-14.062-13.93-29.577-26.615-37.108-31.976m38.422 25.763c-11.732-7.341-22.127-20.02-36.961-31.677m35.173 31.51c-13.282-12.395-27.277-23.66-35.587-31.008m34.446 24.3c-8.778-7.884-18.713-12.194-32.975-28.472m33.709 30.029c-12.458-11.206-24.998-20.486-34.28-28.833m34.384 24.173c-7.223-7.552-15.277-15.896-27.653-22.745m28.023 21.679c-11.205-7.856-21.222-17.209-26.851-23.415m29.322 18.332c-9.083-5.397-14.123-8.902-23.641-18.907m21.72 18.942c-7.233-5.737-15.709-11.913-21.791-19.685m19.782 15.802c-2.472-6.073-9.851-9.591-14.225-13.032m17.164 11.86c-6.46-5.523-12.329-9.484-16.572-13.39m17.027 9.217c-2.529-1.365-6.73-4.424-12.56-9.3m10.848 9.49c-2.636-3.438-5.575-6.063-9.285-10.166m9.588 4.278c-1.299-2.02-3.242-2.656-3.485-3.56m3.599 3.162c-1.685-1.31-3.28-2.685-3.721-3.16" stroke="#228be6" stroke-width=".5"/><path d="M270.847 271.384c11.186-.254 23.852.816 36.505.715m-37.011-.493c11.997-.568 22.944.38 36.481.405m-.111-2.49c1.67 14.598.489 29.268 1.9 39.574m-1.516-38.712c.568 11.348.606 20.722-.837 39.412m2.368-2.6c-12.884 2.749-25.31 2.255-39.452 3.967m37.97-2.11c-12.663-.393-25.38 1.313-36.765.806m-1.34-.84c2.362-11.147 2.033-24.202 1.324-37.66m.613 37.972c-.428-13.944.67-28.156-.683-37.58" stroke="#000"/></g><g fill="none"><path d="M390.465 157.443c1.39-1.479 3.46-3.002 5.78-5.624m-5.834 5.71c2.32-2.488 4.502-4.635 5.408-6.137m-5.803 11.659c3.91-3.235 7.05-7.644 11.655-11.918m-11.403 12.362c2.735-2.898 5.441-5.935 10.703-11.958m-9.955 19.723c6.767-7.35 11.79-15.518 13.998-21.107m-13.893 19.09c4.922-6.74 12.162-12.913 14.79-17.007m-14.973 21.412c6.182-6.23 12.739-12.337 19.513-22.369m-20.466 24.124c8.51-8.244 17.78-18.97 21.131-25.189m-21.952 30.595c10.64-12.097 20.798-21.912 29.697-28.778m-28.726 30.128c8.911-9.67 15.218-18.967 26.441-30.938m-26.99 35.906c12.796-10.924 22.305-26.138 34.854-35.64m-34.032 36.502c7.504-7.739 14.856-16.744 32.319-37.247m-33.347 42.302c10.68-8.487 18.324-19.14 37.1-42.685m-36.339 43.09c13.826-13.714 25.135-27.509 37.018-42.87m-37.177 50.805c14.855-17.34 27.779-32.938 37.674-41.564m-36.428 40.096c6.84-8.029 14.68-17.993 35.764-42.838m-34.38 47.056c10.434-11.662 22.496-25.946 36.13-40.426m-36.994 42.052c11.537-14.33 22.483-27.678 34.935-42.017m-36.716 46.802c13.31-11.583 27.352-27.926 35.862-39.575m-35.082 41.89c12.247-15.861 25.018-30.08 36.598-43.769m-37.597 48.818c16.419-17.192 30.506-31.648 39.361-43.505m-39.249 44.384c7.91-8.45 16.479-18.116 38.76-42.996m-38.99 48.097c8.144-9.641 17.698-15.383 38.932-43.13m-37.185 42.779c11.272-12.55 21.35-24.779 37.08-41.36m-38.223 46.663c13.537-13.115 23.46-27.652 37.25-41.328m-36.18 43.75c14.286-18.214 29.5-34.189 36.438-43.833m-35.09 49.168c8.907-12.538 18.88-24.385 34.808-43.398m-37.476 42.261c13.647-13.341 27.1-28.598 37.373-42.15m-35.213 51.26c9.888-15.03 25.16-29.994 35.186-42.832m-37.442 40.74c14.03-15.148 28.297-32.31 38.355-41.582m-36.586 47.623c11.489-16.682 28.006-31.34 35.065-43.309m-36.491 43.486c8.803-9.842 15.915-18.085 36.795-41.934m-36.222 46.128c13.123-9.47 21.617-22.747 34.933-40.931m-35.701 42.307c11.794-12.753 24.988-28.355 36.764-42.776m-37.974 47.648c13.622-9.969 23.89-23.84 39.658-41.767m-38.283 44.469c9.694-10.367 19.191-21.833 36.545-41.985m-34.617 48.648c11.144-18.604 25.345-33.267 33.915-44.302M391.12 266.76c9.823-12.207 22.345-24.557 37.082-43.204m-38.234 50.56c13.58-16.793 30.526-33.569 35.478-41.212m-33.982 40.65c7.677-10.743 15.972-20.448 36.254-42.607m-37.741 48.822c10.056-9.437 15.516-19.707 37.21-41.367m-37.378 41.736c14.167-16.225 29.784-33.736 37.878-43.91m-38.547 48.028c12.583-14.95 28.679-27.944 37.79-40.057m-36.234 40.337c11.745-14.526 25.815-29.152 37.43-41.586m-37.364 48.738c8.618-9.259 16.053-20.085 38.269-40.536m-39.335 39.466c10.011-9.185 19.063-18.825 37.599-41.42m-37.3 47.08c12.63-13.346 27.33-27.713 37.514-40.478m-37.48 41.484c10.82-11.42 20.73-20.99 36.737-41.958m-35.238 49.11c7.44-12.556 17.936-22.433 37.484-41.746m-38.656 41.284c11.844-14.05 24.75-27.668 37.127-43.285m-36.362 50.866c15.444-19.87 28.927-37.245 37.231-44.398m-36.96 42.692c6.973-7.922 14.805-15.949 35.994-42.02m-32.85 46.242c5.486-11.466 16.094-18.131 33.653-38.647m-35.244 37.837c7.921-9.298 15.26-16.672 35.25-40.278m-29.652 39.068c11.722-11.799 21.91-26.128 28.021-32.67m-28.557 33.374c8.882-9.464 18.891-20 29.026-32.488m-23.8 32.012c6.177-6.88 11.229-13.273 24.636-27.366m-24.707 28.635c8.426-10.973 16.478-19.573 25.324-27.14m-17.695 28.584c2.15-6.065 7.494-11.856 17.022-24.767m-19.354 22.459c5.765-4.908 9.994-10.677 19.213-20.204m-15.103 22.527c5.133-4.143 8.282-6.299 14.385-16.385m-12.385 14.934c3.15-5.5 8.035-9.11 12.29-16.47m-7.428 16.341c3.113-1.989 3.775-3.934 8.624-9.098m-8.143 8.26c1.602-1.922 3.853-4.482 7.462-8.706m-2.317 9.434c.41-1.126 1.445-2.506 2.232-2.94m-2.513 2.98c.776-1.198 1.92-2.428 2.58-2.976m-29.946 1.07c-1.55-1.645-4.363-3.87-7.655-6.496m7.674 6.84c-2.678-2.326-5.018-4.65-7.569-6.127m12.881 4.383c-3.166-4.079-7.098-5.726-13.322-8.426m13.98 9.244c-4.561-2.036-7.355-4.945-13.055-10.823m16.963 11.384c-4.972-7.183-10.037-11.97-16.956-17.088m18.99 16.289c-8.08-4.996-13.703-11.419-18.214-14.787m24.287 15.1c-9.902-7.332-15.67-15.638-26.274-22.656m26.114 22.33c-9.207-6.428-17.105-14.102-24.56-20.63m30.594 19.653c-8.298-6.28-18.279-14.506-31.505-24.601m32.123 26.444c-9.23-7.685-17.722-14.885-31.115-26.455m38.316 27.963c-8.642-7.721-17.76-17.575-38.88-33.008m36.927 31.545c-12.356-11.157-25.63-21.843-37.128-32.72m38.15 28.594c-9.503-10.87-18.299-18.752-39.141-33.525m38.346 32.946c-13.407-13.378-28.169-26.14-35.514-32.79m34.371 25.953c-10.066-9.267-24.076-23.04-35.947-32.328m37.605 33.734c-7.59-7.09-16.47-14.784-38.26-32.902m39.38 25.801c-15.785-9.243-29.245-21.53-38.444-28.532m36.005 28.583c-10.764-9.869-23.65-18.703-35.999-31.579m38.649 28.095c-15.31-11.474-29.597-25.526-37.38-31.94m36.126 31.91c-9.208-8.652-18.917-15.282-37.12-32.37m36.627 27.579c-14.815-12.243-27.567-23.943-35.028-34.544m33.845 32.785c-11.98-9.49-24.697-22.03-34.694-30.36m35.652 25.374c-11.905-9.106-25.003-19.741-35.26-31.018m35.503 31.827c-6.583-6.09-14.57-13.317-37.545-31.661m37.846 23.585c-12.936-8.74-25.488-18.376-37.472-30.23m35.928 32.123c-8.062-8.398-17.89-16.584-35.182-31.922m36.028 28.882c-8.686-9.353-13.396-14.452-38.662-35.732m39.603 34.125c-11.245-9.351-23.427-19.49-36.87-31.817m35.624 25.097c-7.552-8.37-19.314-13.26-35.353-29.264m34.681 30.56c-8.12-8.771-17.978-15.878-34.552-31.556m35.563 24.822c-9.803-8.576-22.822-17.303-37.667-31.255m38.158 33.336c-12.695-10.997-24.419-23.006-37.93-32.375m38.193 23.995c-10.852-6.828-16.775-13.517-35.25-28.318m33.887 30.448c-9.275-8.568-20.432-18.195-35.388-31.048m36.183 27.502c-7.157-7.093-18.014-18.246-35.351-33.757m35.755 32.885c-13.268-13.605-28.145-25.576-37.064-33.375m36.428 27.767c-9.459-7.848-21.053-19.376-36.742-31.062m35.691 29.532c-12.26-11.346-23.907-21.852-35.777-30.69m36.956 26.346c-10.727-8.526-18.795-18.67-35.793-30.411m36.842 30.083c-12.596-9.536-22.86-19.112-38.105-31.355M427 231.878c-10.161-8.035-16.897-16.074-36.405-32.17m35.593 31.944c-11.587-11.847-24.79-21.633-35.305-31.268m37.091 24.882c-12.386-10.051-26.621-20.724-36.072-31.39m34.729 33.137c-7.214-6.947-14.565-13.815-36.39-33.355m36.58 25.953c-13.305-10.417-26.115-23.141-35.817-29.312m35.457 31.21c-6.854-7.135-16.134-15.083-35.057-32.075m34.937 27.751c-8.944-10.424-22.468-20.783-33.51-33.208m33.823 31.484c-8.81-7.53-17.97-14.103-36-30.258m37.694 25.739c-15.025-9.228-25.218-18.848-37.56-31.162m36.503 31.244c-7.933-8.774-17.702-14.127-37.619-32.895m38.982 25.7c-10.667-6.764-20.052-14.304-36.696-29.35m35.665 31.422c-8.303-7.46-14.275-12.599-36.782-31.413m35.877 25.77c-9.702-9.04-15.9-18.137-37.963-34.046m39.068 34.01c-10.13-9.52-19.985-17.899-37.833-32.678m38.857 26.589c-14.164-10.507-28.734-21.539-36.951-30.332m35.382 31.173c-10.118-7.2-18.022-15.313-35.815-32.707m37.94 28.617c-9.413-7.154-18.367-16.305-40.097-35.324m38.582 33.889c-13.863-11.851-27.254-24.373-37.773-32.897m36.333 28.384c-12.474-10.615-23.263-21.583-35.356-34.326m35.72 32.502c-8.462-6.457-16.592-13.048-36.435-31.175m36.353 25.082c-6-6.792-17.686-13.911-32.028-27.357m32.836 28.66c-6.566-4.35-13.65-11.277-35.02-29.531m36.058 26.194c-10.013-9.832-16.776-14.756-29.686-27.285m28.983 25.85c-11.368-10.658-22.161-18.932-29.178-25.143m28.173 18.707c-7.322-4.293-12.77-12.617-20.789-20.255m20.94 21.238c-7.873-5.858-15.242-13.235-22.607-19.81m23.534 14.646c-6.51-7.296-13.52-10.938-15.547-13.32m15.16 13.702c-4.733-4.064-9.168-6.685-16.906-14.584m16.18 9.551c-1.759-2.569-4.975-4.914-8.608-9.909m8.577 9.07c-3.932-3.34-7.623-6.768-10.475-8.74m11.164 3.688c-1.9-.747-2.27-2.384-4.028-3.18m3.668 2.904c-1.067-1.088-2.124-1.785-3.638-3.29" stroke="#228be6" stroke-width=".5"/><path d="M390.783 151.447c10.563 1.446 22.438-.055 37.24-.003m-37.017.183c11.836-.25 25.119-.616 36.93.33m-2.49.372c1.98 52.166 2.589 107.05 1.644 158.078m-.782-159.002c2.96 62.114 2.553 123.08 1.482 160.068m-2.6.117c-11.753-.388-26.651-1.55-32.557.632m34.414-.933c-13.63.007-24.9-.32-35.718.041m-.84.394c1.57-36.661.197-73.425.27-158.833m.042 158.179c.764-43.61 1.043-89.597.35-160.523" stroke="#000"/></g><path d="M11.822 51.136c-.017 46.815-.228 234.225-.145 280.89M10.405 50.152c-.184 46.487.048 233.221.29 280.279" stroke="#000" fill="none"/><path d="M11.397 332.217c96.815.083 484.224.546 580.889.642M10 331.137c96.735-.28 485.087-.028 581.867-.098" stroke="#000" fill="none"/><g fill="none"><path d="M510.614 277.878c2.017-1.478 3.248-3.173 4.736-6.806m-5.202 6.903c1.878-2.021 3.249-4.09 5.735-6.43m-5.093 12.02c1.753-2.939 5.22-7.13 11.472-11.092m-11.038 10.512c2.457-2.8 4.795-4.673 9.44-11.47m-8.928 18.263c3.737-7.31 7.445-10.345 15.824-17.98m-17.33 18.813c6.451-7.745 12.367-14.061 15.553-19.128m-15.927 24.544c7.29-9.438 14.004-13.637 20.305-25.961m-18.341 25.92c2.793-6.313 6.797-9.881 19.573-24.383m-22.677 30.209c7.21-4.854 14.402-13.803 27.732-28.956m-26.073 28.226c5.868-7.339 12.845-13.82 27.434-29.733m-25.776 34.924c6.943-5.925 15.578-18.902 29.892-33.447m-30.775 35.517c9.104-11.222 18.275-23.225 31.21-36.306m-29.283 39.917c7.494-10.21 14.294-17.96 33.206-38.954m-34.08 39.383c8.537-10.387 15.774-18.822 35.257-41.414M516.77 312c9.477-9.758 20.607-22.604 33.963-38.062m-32.843 38.351c11.744-14.345 23.725-28.443 32.46-39.601m-27.881 40.188c10.17-12.074 22.392-25.316 28.985-31.192m-29.398 30.74c10.821-13.838 22.479-24.8 27.893-32.396m-20.68 33.23c4.859-9.383 12.235-14.172 21.565-29.112m-24.084 28.27c7.372-8.187 14.519-15.748 23.752-27.833m-19.111 28.886c6.584-5.527 10.332-14.087 21.02-22.346m-18.4 21.568c3.704-4.653 8.237-11.454 17.923-20.86m-14.884 22.521c5.784-4.28 6.187-8.747 13.765-14.263m-12.722 12.438c4.954-4.345 9.474-10.058 12.125-13.467m-6.534 12.269c1.858-1.449 4.017-2.879 6.778-7.457m-6.947 8.78c3.087-3.383 5.344-6.935 7.423-8.777M517.454 312.076c-2.574-2.747-4.63-3.983-6.322-6.77m5.99 5.737c-1.65-.571-2.743-1.81-6.583-4.917m10.78 6.098c-3.484-6.01-8.227-10.248-10.076-11.891m10.604 10.271c-2.42-3.154-5.572-5.508-11.95-9.774m20.532 9.716c-5.91-5.688-12.764-8.04-18.716-14.309m18.014 15.242c-5.686-4.676-9.831-7.424-19.154-16.74m25.347 16.498c-6.155-3.11-12.578-10.022-25.04-20.394m25.396 21.445c-7.816-7.01-13.408-11.6-25.82-21.514m29.393 20.06c-10.33-10.976-21.165-18.905-29.837-26.566m31.06 27.55c-9.522-8.86-20.324-16.82-29.39-27.66m36.207 28.47c-10.083-11.982-18.291-19.968-39.115-33.056m37.93 31.431c-14.21-11.636-27.501-24.851-35.405-31.233m40.25 27.58c-11.594-8.37-21.28-15.67-40.017-34.435m39.993 36.396c-10.612-9.099-20.522-16.927-40.88-35.795m37.897 31.82c-6.81-10.173-13.494-15.932-35.657-36.777m36.546 35.424c-10.99-10.04-21.142-20.992-38.149-34.559m39.823 27.995c-11.167-6.07-18.806-17.733-31.336-28.37m30.814 29.99c-6.08-6.564-13.74-12.227-32.071-28.113m32.231 23.115c-6.454-7.407-12.885-13.941-28.32-25.008m27.142 24.433c-4.316-6.411-9.998-10.745-24.824-24.702m24.613 19.286c-6.1-4.874-11.43-12.099-20.793-16.105m22.34 16.177c-5.525-5.216-11.928-9.068-19.833-17.352m18.225 11.61c-5.202-3.844-8.623-10.399-14.363-14.53m15.548 14.648c-5.044-5.754-10.844-10.93-15.256-12.791m14.634 8.059c-1.742-3.17-4.602-7.22-8.185-7.18m8.67 6.514c-1.87-1.914-5.214-4.05-7.711-6.841" stroke="#228be6" stroke-width=".5"/><path d="M512.329 272.211c10.13-.091 21.779-.186 36.626-1.58m-38.292 1.423c12.363.011 26.15-.416 38.82-1.036m-1.005-.353c1.753 9.044-.526 19.43 1.842 40.426m-1.548-39.547c-1.048 8.855.092 17.717.069 40.432m-.574-.55c-8.778 1.933-13.944 1.057-36.19-.235m36.559.985c-11.223-.544-21.768-1.952-38.633-1.731m.792-.194c-.527-10.571 1.401-22.77-.416-38.349m1.19 40.326c-1.204-13.08-1.55-26.765-1.543-40.863" stroke="#000"/></g><text y="23" font-family="Virgil, Segoe UI Emoji" font-size="20" style="white-space:pre" transform="translate(10.65 10)">Stacked Column</text><g fill="none"><path d="M90.99 258.257c1.042-1.512 1.999-4.503 4.692-6.886m-5.279 6.46c1.685-2.431 4.03-4.62 5.042-6.28m-5.566 12.131c4.086-4.921 8.415-6.664 10.37-12.058m-9.01 11.358c2.476-2.068 4.217-5.51 10.239-11.138m-10.975 16.591c4.07-3.585 12.373-11.382 16.962-17.753m-16.531 18.65c4.491-4.763 7.536-9.52 15.344-18.598M92.59 271.608c6.323-3.682 10.291-13.1 17.457-20.284m-17.791 20.95c3.984-3.898 8.955-9.31 18.909-21.553m-14.079 24.671c6.681-8.125 10.935-12.606 18.77-22.991m-18.774 20.706c7.54-6.936 15.782-15.877 19.411-22.066m-12.927 23.892c6.274-10.292 11.485-14.229 19.004-24.064m-18.939 22.35c5.276-7.753 11.464-13.055 18.205-22.436m-13.147 21.563c4.859-5.611 11.063-11.926 17.545-21.48m-17.56 22.159c6.23-7.325 14.441-17.107 18.581-20.91m-13.019 21.274c7.497-8.575 10.754-12.753 19.025-21.271m-19.297 20.606c3.858-4.882 8.501-11.095 18.74-20.941m-14.786 22.657c5.445-5.465 9.85-8.536 15.989-16.278m-15.44 14.22c6.03-4.4 9.91-10.454 13.44-14.95m-7.178 14.669c2.498-.94 3.612-4.354 7.358-6.722m-7.703 7.556c1.909-1.728 3.828-4.806 7.428-8.464m-34.247 7.373c-2.828-1.897-4.1-2.632-6.18-6.23m5.626 6.188c-2.304-2.277-4.972-4.084-6.152-5.98m10.895 5.386c-3.912-2.283-8.387-7.348-9.995-9.683m10.754 9.89c-4.485-3.893-8.012-7.019-11.298-10.751m16.595 10.43c-5.45-3.976-10.829-9.271-18.81-17.2m19.758 17.096c-5.992-3.887-10.65-8.122-17.134-14.496m24.578 14.993c-5.643-3.175-12.189-12.126-26.51-21.341m25.55 22.253c-4.794-4.96-11.27-10.158-23.37-22.116m28.763 19.806c-5.858-5.181-9.543-8.557-23.337-20.04m24.106 20.345c-8.036-6.753-17.934-13.705-23.759-20.485m30.7 19.719c-11.042-5.935-19.083-13.978-26.583-20.12m24.79 21.182c-5.446-3.667-9.875-8.946-24.122-21.25m28.728 21.489c-8.42-8.624-13.728-12.882-22.146-18.807m22.505 17.07c-6.55-5.086-14.893-11.234-21.235-17.63m21.313 11.546c-4.005-2.081-8.562-6.126-15.893-12.83m16.453 14.986c-4.567-2.403-6.065-6.959-17.18-14.49m16.827 7.04c-1.347-1.64-6.034-2.515-9.047-6.751m8.327 8.228c-2.16-3.04-4.275-4.55-9.499-8.664m10.413 3.322c-1.06-.66-2.73-2.65-4.174-2.84m4.07 2.965c-.943-.588-1.722-1.593-3.978-3.37" stroke="#fd7e14" stroke-width=".5"/><path d="M90.828 252.1c11.798-.288 23.762-1.66 40.533-.095m-41.063.006c12.487-.749 24.11-1.315 39.488-.222m2.3-.623c-2.289 6.65.295 9.54-3.17 20.394m.817-19.694c1.179 7.73 1.217 14.913-.076 19.554m-.483 1.813c-10.889-.842-23.772-2.007-38.779-1.905m39.984.6c-8.525-1.037-18.127-1.113-39.81-.44m-.206-.13c1.914-6.893.001-12.203.588-20.468m-.658 20.86c-.53-8.478-.45-15.18-.171-20.704" stroke="#000"/></g><g fill="none"><path d="M30.997 277.857c1.88-2.517 2.281-4.167 4.4-5.78m-4.826 5.353c.986-.986 2.22-2.873 5.006-5.776m-4.403 11.554c1.986-2.504 7.153-8.144 10.515-12.712m-11.215 13.116c4.745-5.284 8.11-8.758 11.435-11.959m-12.64 16.613c8.517-3.816 12.825-10.445 16.105-17.368m-15.209 19.451c4.3-6.115 8.625-10.525 15.26-18.717m-14 21.534c7.696-7.224 9.665-12.744 20.628-23.233M32.09 292.101c8.711-7.975 15.927-16.747 19.359-21.19m-11.614 23.007c1.712-5.31 7.069-10.345 17.92-21.008m-20.205 20.198c6.321-4.571 10.62-11.84 18.846-21.326m-10.983 21.591c4.094-9.32 14.517-17.035 16.849-21.958M43.7 292.629c6.248-8.02 14.953-16.768 18.476-21.17m-14.723 20.787c8.279-7.75 15.849-15.434 19.432-19.011m-18.753 19.231c7.034-5.965 11.614-12.963 20.002-20.775m-13.6 23.223c2.957-8.183 10.302-12.102 16.82-23.022m-17.485 20.28c7.234-7.744 13.128-13.797 17.15-19.463m-10.807 20.81c2.955-3.898 8.309-7.089 11.938-13.53m-13.997 13.565c4.48-4.61 7.305-7.475 13.267-15.583m-7.51 15.557c4.029-3.972 5.587-6.735 8.797-9.258m-7.963 8.224c1.936-1.625 2.52-3.033 7.054-7.474m-34.43 5.921c-1.87-.678-2.47-1.428-7.02-4.057m6.977 4.624c-1.89-1.752-3.311-2.996-6.769-5.17m12.213 4.002c-1.845-3.307-6.641-3.845-11.261-9.433m11.468 9.367c-3.287-1.883-5.603-3.044-12.33-9.54m18.145 9.738c-3.687-3.726-8.607-9.385-19.567-14.913m19.464 15.024c-5.752-4.752-11.574-9.565-16.864-15.547m23.496 17.839c-7.395-8.299-20.16-18.459-24.497-23.933m25.41 23.09c-8.814-8.876-18.216-15.175-25.273-22.091m29 20.368c-5.977-2.767-9.804-8.714-23.099-18.187m23.404 19.739c-4.227-5.7-8.847-9.448-23.543-20.113m28.913 19.173C58.998 284.56 50.1 274.22 42.36 268.725m24.339 21.728c-8.509-7.483-18.513-16.141-24.408-19.693m30.487 17.469c-9.486-4.366-14.656-11.814-21.668-16.763m19.93 19.247c-7.67-8.505-16.073-15.523-20.49-20.54m19.754 14.256c-2.535-4.007-7.073-6.423-15-16.066m17.156 15.42c-4.888-2.6-11.701-8.386-16.66-14.082m14.458 10.689c-2.92-5.103-4.957-5.83-8.033-10.157m9.51 8.884c-2.947-1.499-4.43-4.26-9.946-8.079m9.951 3.529c-.665-1.374-2.719-2.995-3.333-4.132m3.459 3.588c-1.316-1.187-3.025-2.622-3.864-3.401" stroke="#fd7e14" stroke-width=".5"/><path d="M31.5 271.444c15.262.146 29.247.482 39.904-.48m-39.993.993c11.626.337 23.114-1.43 39.778-1.303m-.623-.247c1.785 8.483-.134 10.907.394 22.245m.306-21.179c.387 6.424.168 11.555-.446 20.111m1.813.638c-12.252.16-24.791-1.522-41.905-2.534m40.6 1.642c-13.633-.835-25.934-.269-40.441.107m-.128 1.454c-.42-8.057.643-13.63-.47-20.244m.862 17.9c-1.278-7.759-.582-15.5-.705-19.118" stroke="#000"/></g><g fill="none"><path d="M150.597 258.43c1.185-3.345 3.243-5.032 5.507-7.3m-5.934 6.477c2.466-2.354 4.032-4.653 5.511-5.995m-4.98 10.923c4.461-1.842 5.778-6.521 9.86-10.438m-9.457 11.857c1.743-3.484 5.303-6.315 10.614-12.253m-12.62 19.58c7.512-6.786 12.21-13.416 16.49-20.289m-14.406 18.542c4.957-6.987 11.629-14.841 15.141-18.489m-13.34 23.636c4.554-9.917 10.808-15.985 17.68-21.692M151.916 273.7c7.539-8.057 14.262-16.936 19.723-23.49m-13.278 23.039c4.932-5.35 10.127-12.462 19.904-22.27m-20.714 23.132c5.88-5.965 9.04-11.422 19.586-21.751m-13.284 19.196c2.984-1.562 7.573-8.056 18.954-18.896m-19.698 19.706c6.317-5.516 11.91-13.807 19.742-20.732m-15.498 22.319c5.298-5.197 10.664-13.561 21.901-22.24m-21.68 22.466c6.761-8.087 12.495-13.773 20.137-22.832m-11.652 19.9c2.37-3.203 9.007-9.75 15.069-17.02m-17.811 18.925c4.737-6.23 11.16-11.817 18.628-20.662m-12.654 21.188c4.808-3.5 10.31-10.53 14.685-16.763m-14.65 16.922c3.108-4.923 7.948-10.834 12.632-14.797m-6.621 14.391c1.572-3.88 4.351-5.234 6.261-9.833m-7.294 9.79c2.113-3.229 4.435-5.312 8.044-9.268m-35.884 7.302c-1.931-1.242-3.848-4.674-4.846-5.453m5.414 5.59c-2.13-1.276-3.734-3.555-5.96-5.488m10.83 6.499c-3.044-3.856-3.439-5.252-11.013-13.412m10.946 11.644c-4.325-3.773-7.953-7.773-11.119-10.574m17.453 11.946c-5.312-5.337-12.759-12.808-17.28-15.65m17.391 15.157c-6.108-5.584-12.358-11.54-17.915-15.392m26.343 17.015c-10.064-11.944-21.807-18.565-27.089-21.454m26.247 20.369c-6.539-5.078-10.57-10.091-25.248-22.397m29.562 19.729c-6.958-6.383-17.185-14.712-21.245-20.377m22.797 21.987c-7.423-4.917-12.734-11.5-23.171-19.572m28.368 20.414c-5.102-5.622-13.977-12.902-25.353-19.927m24.884 19.39c-6.933-7.797-15.44-14.9-22.85-20.725m26.467 17.919c-4.287-3.272-11.738-8.332-19.624-16.02m22.108 17.73c-9.256-7.066-17.047-14.385-23.4-20.225m22.463 14.479c-5.19-4.751-8.84-8.346-18.236-14.074m17.59 15.12c-4.353-6.92-11.823-11.146-16.252-15.099m18.107 7.586c-5.921-2.028-7.428-4.872-11.439-8.43m10.167 8.9c-1.965-1.402-5.32-3.972-9.362-7.798m10.158 3.714c-1.091-1.493-2.417-1.599-4.624-3.32m4.081 2.98c-1.195-1.37-2.638-2.407-3.895-3.604" stroke="#fd7e14" stroke-width=".5"/><path d="M150.843 252.005c14.105-1.543 28.363-.17 39.52-.728m-39.006.307c15.413-.87 28.864-.099 38.697-.385m-.247 1.81c2.727 3.497-.747 9.382 2.244 18.626m-1.178-19.44c-.145 6.369-1.399 12.401.111 18.899m.638 1.262c-11.897-.768-25.929-.631-42.534-.993m41.642-.842c-16.43.195-31.565 1.238-39.893.802m1.454-.484c-1.884-3.938-1.311-9.951-.244-17.751m-2.1 17.581c.15-7.26.246-15.533.882-19.33" stroke="#000"/></g><g fill="none"><path d="M211.171 217.361c.603-1.947 2.872-3.791 3.985-5.097m-4.809 5.63c1.542-2.243 3.142-3.841 5.292-6.215m-5.612 12.593c4.54-4.947 6.247-7.576 12.134-13.669m-10.715 12.073c3.43-3.54 7.506-7.61 10.32-11.425m-9.651 19.731c3.45-5.4 7.045-12.693 13.568-17.561m-15.316 15.784c5.5-5.79 10.122-11.924 15.37-17.282m-13.207 21.66c3.436-7.014 10.683-13.289 21.188-21.095m-22.169 22.327c4.959-5.752 9.055-11.004 19.392-23.593m-20.464 30.058c8.039-8.527 14.426-13.99 25.86-31.034m-24.998 32.395c5.02-7.904 10.513-13.932 26.378-32.027m-28.8 36.898c12.531-10.598 20.3-21.55 35.137-35.935m-34.327 36.37c11.508-11.92 20.273-22.43 33.302-36.954m-30.368 40.023c12.107-12.454 20.933-22.041 35.073-39.266m-34.847 40.444c10.064-12.805 22.447-25.276 34.482-40.998m-32.032 40.956c12.625-10.408 21.951-24.493 37.472-39.44m-35.568 39.057c8.885-9.087 18.355-20.911 33.83-38.068m-28.02 39.04c8.165-6.65 12.905-14.347 26.541-32.573m-26.382 31.066c6.677-6.985 12.177-14.509 28.507-31.124m-23.15 31.975c5.08-7.483 14.64-16.407 20.834-27.008m-20.91 26.676c3.817-5.514 9.712-10.762 21.86-25.697m-18.784 27.474c6.11-8.224 12.305-13.475 20.807-20.718m-19.972 20.24c6.175-7.654 11.348-13.328 17.989-20.29m-12.065 19.793c6.512-4.21 7.971-9.05 11.978-14.392m-11.651 13.794c4.318-4.068 6.522-8.056 11.895-14.46m-5.503 13.916c.736-.427 3.181-3.076 5.212-6.568m-6.428 7.044c2.23-1.59 4.382-4.333 7.164-7.892M217.563 251.658c-3.55-2.673-4.974-4.488-6.222-6.172m5.787 5.578c-2.004-.926-3.858-2.921-6.598-4.644m10.687 5.349c-2.16-4.076-6.035-5.702-12.107-12.016m13.395 10.669c-3.611-2.91-8.78-5.71-11.463-10.23m18.44 11.947c-5.928-7.928-13.873-13.55-17.046-16.145m16.509 15.005c-4.493-4.144-8.586-6.295-17.844-15.647m23.143 16.61c-5.019-7.387-11.563-11.996-21.9-20.517m23.61 20.094c-6.935-5.594-14.353-13.097-26.105-21.834m30.989 20.635c-8.806-6.357-16.804-16.105-29.829-24.034m30.875 25.704c-11.5-10.026-20.077-18.738-30.854-26.526m34.88 24.275c-9.733-6.759-21.187-19.156-36.829-31.247m37.552 33.771c-7.334-8.538-16.317-14.99-35.856-33.9m41.71 31.41c-15.762-12.77-26.127-24.253-40.16-34.927m38.797 34.04c-13.017-11.276-24.754-21.644-41.294-33.696m41.382 29.179c-12.865-10.374-23.649-21.083-41.17-33.224m39.597 31.62c-7.744-6.094-15.024-12.909-37.593-33.37m37.503 30.473c-8.889-10.483-18.46-15.22-31.523-28.375m33.089 27.117c-11.089-10.738-23.797-20.604-32.654-27.821m30.94 20.446c-8.473-7.785-16.357-13.056-26.98-19.997m27.436 22.315c-9.564-8.364-17.41-17.187-26.628-23.66m27.868 16.096c-4.409-3.794-11.45-9.509-20.327-15.203m20.85 17.71c-6.829-6.325-13.443-11.594-21.852-18.348m18.633 10.924c-3.288-.05-5.244-4.503-12.043-10.643m13.284 10.935c-4.833-3.214-10.21-9.49-14.382-11.188m14.461 6.251c-1.465-1.733-5.4-4.28-7.959-6.557m9.366 7.516c-3.373-3.095-7.223-5.716-8.686-7.647" stroke="#fd7e14" stroke-width=".5"/><path d="M211.404 211.626c10.344.299 23.433-.699 37.202 1.233m-37.622-.706c9.477-2.036 20.291-1.768 37.545-1.195m1.81 2.033c-1.936 11.398-1.467 29.405-1.374 38.847m.558-40.326c.028 7.079-.527 16.739-1.1 39.826m1.262 1.338c-9.745-1.497-18.189-2.804-38.922.425m37.087-2.498c-10.428.597-19.737.864-37.128.148m-.483.228c1.041-10.854.03-21.185 2.249-37.774m-2.42 37.421c.497-10.477.178-20.342.671-40.375" stroke="#000"/></g><g fill="none"><path d="M330.102 217.11c2.29-2.024 4.686-4.536 6.19-5.47m-5.657 5.942c1.408-2.075 3.458-4.1 5.07-6.198m-3.94 13.164c1.399-4.716 5.116-8.162 8.903-12.421m-10.5 11.464c3.508-2.915 6.492-6.214 11.148-12.383m-9.501 18.702c3.77-5.539 5.631-9.528 16.297-17.51m-18.074 17.196c4.537-5.513 8.745-9.99 16.577-18.168m-17.447 22.788c4.64-4.394 10.02-8.212 24.05-24.293m-22.819 25.83c4.637-6.343 9.744-12.18 21.552-24.965m-21.746 32.257c9.786-12.454 22.645-25.896 25.397-33.083m-24.036 31.575c5.813-8.576 13.488-15.344 24.404-29.97m-26.192 38.24c13.28-16.327 26.216-29.142 33.193-38.427m-32.757 37.638c9.87-12.825 21.13-23.759 32.173-37.778m-31.532 42.515c8.958-12.326 20.752-21.57 36.916-41.904m-35.738 39.872c9.496-9.858 19.276-21.35 35.184-40.17m-30.599 41.63c11.183-11.895 18.693-20.877 29.984-35.639m-30.367 34.388c10.211-9.66 17.68-18.414 31.356-34.634m-24.347 36.838c9.944-12.206 18.842-23.607 24.81-31.92m-26.316 30.264c5.632-7.005 10.726-11.197 26.258-28.974m-20.78 27.81c4.92-2.526 8.392-10.777 19.843-22.79m-20.175 23.227c6.5-6.338 13.275-13.646 21.154-21.905m-13.34 21.652c2.964-4.89 8.908-10.025 14.093-15.85m-14.57 16.558c4.047-6.412 10.072-13.267 14.52-15.858m-10.392 17.584c4.11-6.092 7.746-9.183 9.146-11.757m-9.586 11c3.919-5.434 7.899-9.144 9.096-11.56m-3.353 10.548c1.76-.904 2.507-2.815 4.068-3.835m-3.852 3.836c1.513-1.27 2.496-2.716 3.467-3.93M337.17 250.554c-2.75-.872-4.568-1.745-6.961-4.573m6.368 5.393c-1.804-2.11-4.623-4.309-5.433-5.35m12.175 4.806c-4.014-3.177-5.676-6.46-13.594-9.784m12.247 10.28c-2.225-3.443-4.182-4.437-11.809-10.502m19.663 11.158c-6.208-4.943-10.197-5.68-18.514-18.274m17.374 16.776c-4.581-3.815-7.498-6.076-18.015-15.216m25.114 17.225c-9.967-7.52-17.503-14.805-23.773-22.766m23.35 22.697c-5.828-5.264-13.102-12.028-25.09-22.76M360.2 250.51c-5.44-5.203-14.357-10.669-27.98-25.216m29.65 25.106c-11.684-7.824-22.592-17.291-30.472-25.35m34.357 26.668c-4.608-6.352-14.164-14.893-36.08-33.912m38.605 34.11c-13.4-11.366-24.685-21.69-38.734-32.514m38.212 25.004c-12.048-5.713-22.147-13.727-36.382-30.213m35.494 30.814c-11.096-8.714-21.514-18.21-35.15-30.998m36.637 25.385c-11.008-8.172-21.916-16.925-35.236-31.469m33.632 32.334c-12.044-10.794-24.806-21.675-35.382-30.7m37.077 24.42c-14.563-10.708-22.861-18.598-28.843-22.784m27.586 24.66c-9.353-8.658-17.917-15.46-28.29-25.43m26.917 18.946c-7.262-5.252-11.821-12.71-20.43-18.637m22.749 18.367c-5.394-2.973-11.089-8.268-24.095-19.526m21.123 16.804c-5.324-6.73-12.34-12.372-14.093-15.88m16.6 14.704c-5.432-4.273-10.05-9.965-17.238-15.858m16.025 8.718c-1.46-2.232-6.382-4.81-9.882-7.095m10.113 8.56c-1.786-2.439-5.82-5.738-10.312-9.408m10.115 4.08c-1.089-1.828-2.536-3.34-4.169-3.81m4.692 3.632c-1.786-1.749-3.35-2.97-4.763-4.271" stroke="#fd7e14" stroke-width=".5"/><path d="M331.025 210.632c12.845 1.235 24.355.507 37.758-.086m-37.23.472c11.97.65 25.975.06 35.33.95m2.032-.877c-3.642 12.3-.508 24.208-1.153 38.326m-.326-37.441c-1.165 13.907.162 28.044-.174 38.536m1.339.68c-16.26.338-32.145.373-36.1-.484m34.026-.263c-12.869.776-26.038.611-36.377.662m.229.795c.244-13.23 1.34-23.249 2.226-41.366m-2.579 40.829c.377-14.322 1.084-28.031-.375-40.482" stroke="#000"/></g><g fill="none"><path d="M449.85 97.693c1.952-1.528 3.421-3.31 5.817-5.718m-5.345 5.481c1.3-1.278 2.65-2.735 5.089-5.748m-3.37 10.552c2.303-3.313 5.87-6.766 10.15-11.662m-11.108 12.89c3.799-3.786 7.226-8.295 10.19-12.774m-10.53 20.173c2.344-6.123 6.257-7.745 16.348-20.024M450.429 109.7c5.043-6.51 11.118-12.85 15.69-18.854m-16.318 22.623c7.464-6.565 15.53-11.374 20.852-23.875m-19.315 24.993c3.233-4.327 6.992-8.925 20.18-22.424M451.97 120.69c8.087-7.328 15.183-19.789 23.348-29.79m-24.856 30.427c6.52-7.686 14.873-16.945 26.46-28.835m-24.85 35.666c8.507-11.385 20.49-22.946 30.702-36.637m-31.49 35.904c7.337-8.526 16.533-18.591 31.35-36.801m-29.04 40.344c6.346-6.646 15.79-18.018 34.278-40.197m-36.31 41.219c8.168-7.967 14.746-16.91 36.01-40.287m-29.924 42.322c12.78-17.584 28.393-33.051 33.194-41.196m-34.444 40.639c7.204-8.996 15.325-17.287 34.197-39.55M464.64 133.88c6.625-9.997 14.067-21.323 24.97-36.061m-26.626 34.061c7.774-10.038 18.398-19.78 27.915-32.891m-24.453 33.772c10.753-10.37 15.812-19.54 23.47-27.451m-23.032 26.951c5.342-4.658 9.775-10.5 24.354-26.186m-18.57 25.04c5.502-4.36 10.705-7.858 18.468-17.647m-17.76 18.142c5.673-6.176 10.844-11.677 18.46-19.28m-11.613 21.332c-.253-2.868 3.567-8.004 10.848-13.692m-11.877 12.44c2.227-3.989 6.799-9.648 11.117-14.096m-6.305 14.693c2.432-2.678 2.656-4.069 7.083-8.633m-7.079 8.258c1.566-2.005 2.743-3.695 6.87-8.833M456.068 130.731c-1.624-1.925-3.15-3.813-5.363-3.956m6.183 4.828c-2.266-2.366-4.547-3.622-6.14-5.714m11.632 4.793c-3.515-1.327-7.32-5.77-11.362-11.456m11.86 11.734c-5.566-3.226-8.683-8.11-12.081-11.219m18.873 9.955c-6.71-4.426-9.116-6.524-20.643-15.696m19.145 16.364c-3.935-2.047-6.302-5.686-17.584-14.286m25.729 14.732c-5.084-3.378-10.18-7.416-26.022-22.038m25.952 23.308c-10.16-9.75-21.52-17.999-26.015-23.062m30.14 22.445c-8.03-9.9-16.354-13.974-29.162-25.557m29.052 24.83c-5.273-5.347-11.66-9.485-29.297-26.874m36.751 29.073c-14.16-15.244-31.003-28.284-38.746-33.117m38.944 31.314c-11.488-8.483-22.424-19.812-37.348-32.24m38.86 28.893c-13.573-13.843-28.82-25.294-38.722-33.805m39.322 34.173c-10.638-9.323-21.775-16.84-39.506-34.246m38.486 29.22c-14.13-13.286-28.536-22.568-39.124-32.078m39.989 32.403c-10.834-10.318-22.23-20.896-38.355-32.694m38.078 25.904c-13.393-7.95-24.293-18.716-30.306-26.49m32.183 27.712c-10.651-7.884-19.202-14.88-32.952-27.823m31.06 20.837c-8.112-5.75-18.636-12.514-24.714-22.968m24.444 25.208c-7.34-8.244-17.202-15.37-25.603-22.59m28.883 16.54c-8.765-7.355-16.367-11.683-21.824-16.94m20.649 17.93c-4.87-3.442-10.827-8.197-21.802-17.795m18.882 13.659c-2.881-5.439-6.463-8.743-10.861-15.128m12.718 14.103c-5.153-6.257-11.57-9.837-13.792-12.996m14.77 7.36c-4.15-2.832-7.845-5.996-8.071-6.69M491 97.129c-2.84-1.639-4.57-3.797-8.916-7.45" stroke="#fd7e14" stroke-width=".5"/><path d="M450.032 91.961c13.118-1.068 24.136.827 37.843.811m-37.457-2.386c14.833-.075 28.305.23 38.88.822m-.878-1.691c.821 13.449.896 22.95-1.674 42.965m2.559-42.224c-.178 14.22-.505 26.866-1.464 41.983m.68-1.246c-13.086-1.037-26.275 2.377-38.413 1.612m37.666-1.437c-10.64.021-22.487-.665-37.267.134m.795.247c-.93-14.186 1.268-28.911-1.366-39.3m.829 38.471c-.086-8.482.207-18.85-.482-40.214" stroke="#000"/></g><g fill="none"><path d="M270.434 257.409c2.532-2.609 4.806-4.5 5.568-6.235m-5.805 6.414c1.72-1.68 3.264-3.656 5.538-5.999m-5.983 12.11c2.89-2.662 5.651-5.684 10.91-11.841m-9.681 12.061c4.351-4.805 7.968-9.92 9.798-13.273m-9.06 18.15c3.985-6.585 12.486-12.054 13.835-15.899m-15.022 15.95c4.614-4.829 9.386-9.6 15.005-17.222m-11.235 17.812c6.767-5.143 15.316-15.103 16.02-20.19m-14.903 19.587c6.29-7.157 12.322-13.16 17.473-17.408m-12.78 19.088c7.033-6.796 8.953-13.088 16.144-19.612m-15.508 18.252c6.28-5.324 10.914-12.791 17.099-17.443m-11.022 17.271c3.855-2.437 7.579-7.815 16.089-18.644m-16.823 18.558c4.722-3.515 7.932-8.137 15.925-18.323m-11.528 18.406c8.3-5.212 11.98-11.016 16.302-19.327m-15.28 20.576c6.431-7.541 11.9-14.197 16.212-17.764m-9.245 16.383c.518-.85 2.659-4.731 8.377-12.183m-8.795 11.932c2.632-2.972 5.914-6.9 9.612-10.632m-4.598 11.58c1.672-2.456 2.798-4.357 3.805-5.84m-4.605 5.548c1.908-1.47 3.986-3.899 5.073-5.5M276.042 269.085c-1.04-.75-1.746-2.348-4.947-5.23m5.144 5.013c-1.076-1.272-1.899-1.766-5.599-5.421m13.165 4.615c-3.143-2.306-8.195-4.797-11.53-9.05m10.476 9.467c-3.517-2.879-8.44-6.565-11.871-10.123m19.931 12.338c-8.443-9.448-14.57-14.428-19.468-19.54m18.788 18.463c-5.649-4.976-10.74-9.619-19.834-16.969m22.73 14.762c-5.862-4.059-12.005-12.276-21.375-19.455m23.999 22.055c-8.93-6.665-15.17-13.657-23.418-19.966m27.523 18.866c-8.915-6.143-17.604-15.356-19.41-18.318m21.59 18.455c-9.396-7.65-16.265-14.31-23.807-19.827m28.478 18.936c-3.427-5.208-10.571-7.14-23.84-17.512m24.188 17.373C301.22 263.905 293.18 257.7 283.41 249m22.378 14.022c-5.71-2.113-8.942-10.27-16.554-15.456m17.223 15.388a191.164 191.164 0 0 1-15.145-14.186m15.136 10.536c-1.624-1.853-3.644-5.557-10.838-8.795m11.727 8.402c-4.647-4.243-8.227-7.329-11.555-9.898m11.608 4.298c-2.013-1.09-2.327-2.19-4.322-4.5m4.104 4.648c-1.894-1.641-3.305-3.211-4.718-3.778" stroke="#fd7e14" stroke-width=".5"/><path d="M271.361 252.005c11.338-.615 25.568-1.347 37.336.66m-38.911-.876c12.445-.505 24.927.264 37.346-.96m-1.511.699c2.966 7.024 2.237 11.99 2.657 18.052m-1.993-18.177c1.236 6.778 1.015 13.328 1.778 18.212m-1.143-.357c-14.285.023-23.848-.631-34.913.081m35.087.077c-8.027-.458-17.007-.674-36.39.584m.216-1.143c1.007-3.04 1.507-10.338.628-18.867m-1.371 19.007c.745-4.075-.31-8.82-.193-18.04" stroke="#000"/></g><g fill="none"><path d="M390.15 98.115c1.185-1.411 3.082-3.296 5.05-6.587m-4.872 6.164c1.97-2.133 3.64-4.287 5.288-6.27m-4.424 11.15c4.17-4.189 7.994-8.558 10.73-10.031m-10.51 11.188c2.153-3.122 4.002-6.353 9.299-11.876m-11.083 17.158c6.032-4.177 13.181-13.34 17.96-17.744m-17.908 18.478c4.29-4.268 8.634-9.903 16.636-17.363m-15.257 21.702c6.262-2.383 7.66-10.412 18.917-21.636m-19.52 22.613c4.601-5.528 10.39-10.583 21.7-23.969m-20.642 32.006c5.665-10.905 11.929-18.63 24.743-30.188m-26.103 29.06c11.644-12.87 21.115-22.803 26.913-31.167m-26.951 37.592c10.137-9.8 17.512-19.814 31.616-38.581m-31.702 38.625c9.59-10.67 18.263-21.471 31.936-37.012m-31.819 44.071c9.268-11.296 18.14-22.325 35.526-42.417m-34.277 40.874c10.237-12.792 21.218-24.683 37.089-43.323m-38.462 48.807c12.152-11.881 20.346-23.454 35.589-41.226m-35.924 42.043c8.891-9.153 16.308-18.017 37.658-42.191m-36.527 49.47c10.316-15.399 22.299-31.513 37.233-43.028m-37.963 41.01c8.878-7.729 15.437-17.337 38.084-41.544m-35.555 46.768c6.948-11.07 17.384-22.25 33.073-39.25m-34.724 40.613c7.529-8.888 16.234-17.863 35.84-43.056m-30.143 42.355c12.618-11.713 22.934-24.349 31.536-37.73m-32.078 38.063c11.648-12.775 25.25-27.193 31.058-36.159m-26.659 37.595c8.279-10.788 16.765-17.72 27.394-30.543m-26.873 29.177c6.437-8.09 12.261-14.216 26.054-28.861m-18.932 29.293c1.763-4.25 8-10.542 17.199-24.441m-18.276 24.224c4.556-6.037 9.46-12.272 19.77-23.199m-15.94 22.569c6.845-3.133 9.67-10.314 15.316-16.598m-12.716 16.075c4.267-4.01 8.558-10.27 14.805-15.969m-11.075 15.628c4.72-3.693 6.854-5.103 10.865-9.113m-10.762 9.862c1.893-1.58 4.542-5.158 9.732-11.456m-4.149 11.984c1.309-2.608 3.754-4.69 5.352-5.739m-5.4 5.608c1.633-1.671 2.595-3.099 4.825-5.504M397.344 151.58c-1.776-1.384-4.552-4.154-5.814-5.036m5.59 4.52c-2.462-1.411-4.156-3.291-6.445-5.062m12.477 3.885c-3.106-.017-6.307-3.287-14.428-7.912m14.85 9.05c-5.13-3.369-10.221-9.124-12.383-11.254m18.394 10.862c-6.077-3.512-10.184-5.679-18.8-16.661m18.13 17.9c-6.906-7.786-14.246-13.475-17.287-15.597m24.727 13.575c-7.877-5.317-17.98-13.573-26.688-19.298m25.068 20.044c-7.54-4.73-14.125-12.356-23.802-20.404m28.574 19.245c-10.911-6.428-21.71-15.79-28.832-26.054m30.22 27.68c-7.089-6.905-14.997-11.975-29.324-26.87m33.702 28.196c-11.703-11.921-24.087-25.124-34.538-31.76m36.031 30.246c-11.4-9.429-23.21-20.492-35.333-31.546m35.492 26.746c-9.64-6.424-15.427-16.906-35.615-32.817m35.942 31.988c-14.723-11.465-28.235-22.99-35.967-30.891m36.585 24.936c-8.223-4.72-15.988-12.123-38.27-28.213m38.373 30.39c-15.236-12.484-29.126-24.308-36.916-33.3m35.372 27.16c-7.832-6.91-15.472-16.438-34.23-33.126m34.947 32.183c-9.253-5.595-16.093-13.018-35.55-31.699m35.26 27.847c-9.622-8.038-15.64-14.357-36.783-30.17m36.621 29.997c-12.423-11.778-25.993-23.154-35.957-31.795m36.255 25.216c-6.324-4.577-15.021-13.106-35.542-32.054m35.538 33.423c-13.265-11.792-26.117-22.747-36.702-31.737m37.177 25.09c-12.272-9.947-19.802-15.162-33.147-30.99m33.831 31.827c-11.056-8.056-22.081-17.562-36.534-30.51m35.271 25.886c-4.8-6.753-11.4-10.742-26.822-27.247m28.273 27.319c-7-5.796-13.136-12.595-28.947-25.516m28.126 19.222c-9.8-4.596-15.855-15.01-23.882-20.471m23.871 21.468c-6.15-6.592-12.194-11.314-22.677-20.862m21.404 14.654c-4.475-4.142-10.996-10.015-15.431-12.468m16.665 12.497c-5.17-4.187-10.946-8.351-16.405-13.166m16.264 6.984c-2.625-.97-5.48-2.524-10.264-8.687m9.884 9.728c-3.534-2.384-5.372-5.367-9.845-9.632m9.908 4.217c-.91-.733-2.748-2.825-4.436-3.705m4.843 4.303c-1.368-1.534-2.99-2.86-4.725-3.958" stroke="#fd7e14" stroke-width=".5"/><path d="M391.404 90.964c10.916 1.765 21.828 1.678 37.185.954m-37.4-1.264c13.665.62 28.69.87 35.564 1.476m.731.522c.028 22.409-2.19 46.276.137 60.486m-.276-61.554c.108 19.325-.473 39.8.316 60.219m-.408-2.115c-13.528 3.366-27.744 2.873-36.443.104m36.602 1.645c-8.759-.716-17.568-.162-35.941-.393m-1.181 1.603c2.002-16.629-.55-34.769-1.045-62.559m1.201 61.341c.224-15.436-.232-29.438-.122-60.19" stroke="#000"/></g><g fill="none"><path d="M510.856 257.167c1.405-.879 2.337-2.75 4.699-5.064m-5.122 5.546c1.541-1.931 3.058-3.438 5.015-5.794m-5.384 12.317c4.159-4.568 8.127-9.41 12.541-14.187m-11.384 13.792c3.11-4.651 6.116-9.288 10.696-12.044m-12.074 17.372c7.313-4.157 9.653-9.294 16.115-18.497m-15.38 18.55c4.867-4.75 8.368-9.821 16.496-18.457m-15.437 24.174c7.405-8.424 9.157-14.446 21.54-24.728m-20.563 21.951c6.985-6.824 14.435-13.675 19.207-21.142m-12.58 21.911c4.408-9.106 12.02-16.171 19.025-19.502m-20.154 20.882c4.262-6.843 11.48-12.843 18.047-23.013m-12.376 23.313c7.464-9.658 14.713-19.104 17.424-23.76m-17.38 22.735c7.09-8.841 14.122-18.024 18.994-22.998M530.23 273.6c5.785-8.002 11.934-18.402 18.871-22.227m-20.415 21.862c4.25-5.301 9.44-9.779 17.966-21.963m-13.237 23.334c5.524-8.362 11.236-16.093 18.096-22.933m-17.278 21.195c4.013-4.869 8.172-8.717 17.13-19.235m-10.68 18.512c3.361-5.35 5.917-9.173 11.121-14.157m-12.936 16.07c4.456-5.06 7.29-8.981 12.455-14.51m-6.905 12.45c1.731-1.57 3.399-3.5 7.69-7.414m-7.008 7.888c1.44-1.169 2.87-3.051 5.787-6.72M517.657 271.217c-3.16-1.813-4.806-3.861-6.481-5.535m5.935 5.638c-2.798-2.197-4.804-4.203-5.81-5.408m11.665 3.743c-2.648-1.88-6.974-6.4-12.912-9.897m12.738 10.967c-3.745-3.332-7.698-6.375-11.917-10.32m18.128 11.865c-4.265-6.863-12.583-13.08-17.353-16.589m16.83 16.354c-5.716-6.266-13.677-12.115-16.723-16.101m22.014 16.91c-4.595-5.847-6.208-8.8-21.208-23.719m22.206 21.691c-6.091-5.94-14.798-12.579-24.332-19.744m31.895 18.44c-8.975-3.645-16.465-8.925-24.698-20.026m24.324 22.44c-9.356-7.562-18.017-15.309-24.028-20.64m27.798 21.784c-5.78-10.621-15.94-17.902-22.365-23.078m24.4 21.743c-5.74-5.51-10.483-10.805-25.008-21.062m28.83 20.337c-6.504-8.34-16.586-12.692-20.602-20.2m19.31 17.705c-8.046-6.679-17.066-13.907-20.665-18.194m18.855 13.35c-.719-3.36-5.212-9.271-11.282-11.524m12.62 11.545c-2.208-3.031-7.323-5.274-15.212-14.187m15.868 8.159c-3.057-2.54-5.159-4.161-9.606-5.98m10.35 6.997c-4.147-2.927-7.074-5.302-8.968-7.878" stroke="#fd7e14" stroke-width=".5"/><path d="M510.364 251.277c12.101-.875 22.221 1.245 38.883 1.779m-39.193-1.857c10.803.564 21.553-.575 39.405.922m.522-.486c-.987 3.622-.344 11.743.486 20.139m-1.554-20.68c-.445 6.87.459 15.545.22 20.87m-2.116-.601c-7.854-.64-19.615.062-37.826-1.407m39.575 1.367c-9.01-.126-16.781.838-38.322-.209m1.603 1.974c.528-9.204-.426-16.547-2.559-23.085m1.341 21.336c-1.072-6.686-.816-12.875-.19-19.431" stroke="#000"/></g></svg>