<svg xmlns="http://www.w3.org/2000/svg" viewBox="0 0 601.467 342.555" width="601.467" height="342.555"><defs><style>@font-face{font-family:&quot;Virgil&quot;;src:url(https://excalidraw.com/Virgil.woff2)}@font-face{font-family:&quot;Cascadia&quot;;src:url(https://excalidraw.com/Cascadia.woff2)}</style></defs><g fill="none"><path d="M78.779 76.47c1.012-1.944 2.4-3.702 4.794-6.594m-5.296 6.398c1.616-.892 2.24-2.25 5.644-6.027M77.46 81.18c4.276-.678 6.904-3.667 13.323-11.137M78.985 82.828c4-6.155 8.659-9.218 10.149-13.581M77.952 87.153c4.237-3.098 9.49-6.947 17.434-16.023M79.03 88.294c5.066-4.583 8.99-11.312 15.193-17.668M77.421 93.788c10.986-9.224 19.194-17.72 21.02-23.083M79.487 93.846c4.44-4.647 9.31-10.577 20.765-23.732M77.932 99.38c8.427-7.12 15.417-15.724 28.05-27.937m-26.233 29.42c6.226-7.112 12.112-16.075 25.135-30.455M79.277 107.96c7.398-11.755 14.844-21.395 33-36.753m-34.162 36.305C89.57 94.382 98.97 82.66 111.643 69.894m-30.965 42.393c12.58-17.2 26.41-28.807 36.288-40.249m-37.691 41.199c14.974-17.133 27.332-32.97 35.77-43.703m-38.16 49.51c18.615-19.168 32.077-36.679 44.172-46.472m-42.245 45.485c11.482-12.269 22.794-27.748 41.186-47.683m-41.17 54.12c17.21-17.728 33.081-36.188 41.57-48.244m-41.13 49.063c9.06-10.623 16.82-21.464 40.41-47.459M78.43 131.461c11.088-9.926 19.53-21.7 41.148-46.515m-40.222 45.79c12.647-16.737 28.089-31.333 41.482-48.213m-43.57 54.45c11.774-12.127 23.152-23.22 43.538-48.513m-42.775 48.736c12.945-14.245 23.791-28.04 41.072-47.566m-40.443 51.844c12.011-12.554 26.109-30.268 39.94-47.028m-39.619 49.552c16.288-20.044 32.104-38.898 42.064-47.856m-43.283 51.879c16.993-15.829 32.697-35.682 42.111-46.415m-41.74 47.572c13.781-14.135 24.6-28.271 42.563-47.142m-40.47 53.902c12.9-16.296 29.69-32.399 40.376-48.588m-41.887 47.9c14.406-15.07 26.215-29.98 40.892-48.201m-42.599 52.744c17.674-14.58 33.316-31.763 41.62-47.027m-39.157 48.506c15.457-17.368 31.478-36.32 40.593-47.526m-41.033 53.309c15.306-14.507 26.815-32.893 39.286-44.773m-40.589 46.32c15.564-18.73 31.063-34.69 41.426-48.333m-39.884 53.018c11.373-9.998 20.184-23.323 39.388-48.429m-39.765 48.328c10.618-11.812 21.117-24.02 42.372-47.553m-44.412 53.725c19.642-16.592 33.112-37.013 42.497-46.16m-40.395 47.66c11.484-15.32 24.226-27.776 40.628-48.839m-41.869 55.072c13.626-13.705 24.882-27.778 41.748-49.698m-40.916 48.69c16.963-19.18 32.709-37.746 42.612-47.558m-41.75 53.715c9.654-10.714 19.37-22.928 40.837-48.331M78.16 191.033c9.404-8.684 17.498-18.083 42.96-45.8m-41.358 54.91c12.793-20.942 29.577-37.927 40.026-50.913m-41.572 49.102c13.204-14.413 25.359-29.448 41.525-47.377M80.973 202.93c11.608-15.127 27.925-31.835 38.135-47.86m-39.55 49.279c15.566-18.584 30.253-36.153 40.381-48.81m-40.235 55.174c9.533-11.462 18.63-23.608 38.55-49.152m-39.298 47.933c13.102-13.817 26.664-29.139 40.82-46.346M77.732 217.25c10.297-15.278 22.668-25.747 43.217-50.328m-40.786 49.049c8.03-10.927 16.792-20.16 40.352-46.95m-39.744 53.9c5.717-11.35 16.704-24.308 38.648-46.493m-41.274 45.415c13.18-13.455 24.689-27.465 41.708-47.302M77.12 228.374c15.403-16.083 29.67-32.593 41.914-46.31M78.132 228.78c12.245-12.248 22.706-24.24 41.835-46.805m-40.207 51.76c13.341-16.177 28.217-32.015 38.65-46.013m-39.29 46.634c13.268-15.88 27.444-31.729 40.901-46.58m-41.575 52.028c15.402-15.985 29.094-28.959 41.052-47.388M78.38 241.342c9.576-11.235 18.613-22.169 41.29-48.463m-39.303 54.833c14.452-19.33 33.664-37.813 41.881-47.79M79.51 246.46c12.216-13.6 23.933-27.579 40.609-48.015m-41.164 53.453c13.023-16.358 28.113-33.789 40.46-46.137m-39.757 47.681c13.777-16.677 26.62-32.625 40.68-47.51M78.543 259.76c7.85-11.526 16.454-20.15 40.671-48.905m-39.63 48.936c11.138-14.577 22.063-26.28 40.544-48.945m-41.67 54.011c10.323-11.816 25.056-25.418 40.964-48.136m-41.258 47.342c17.252-17.705 31.132-35.134 41.463-47.032m-40.514 53.083c10.307-11.334 21.061-24.645 40.35-47.434m-41.58 49.493c13.575-17.28 28.41-31.506 41.916-48.204m-39.13 53.503c8.5-11.219 17.886-22.347 40.396-47.964M79.9 277.139c12.16-15.837 24.877-29.397 40.602-47.613M77.84 282.868c13.332-13.444 23.79-25.029 43.242-46.456M78.27 283.15c15.56-17.092 30.144-34.984 41.437-48.13m-41.151 54.864c15.458-18.165 31.636-38.98 41.582-49.198m-41.136 48.63c14.279-18.015 30.905-35.077 40.557-47.342m-41.51 54.981c16.233-18.888 31.573-39.189 40.677-50.047M79.561 295.96c6.7-9.9 16.252-18.851 41.317-48.557m-41.924 55.16c11.008-12.475 22.402-24.322 40.35-48.417m-39.932 47.777c8.273-10.834 18.666-21.24 41.29-47.802m-40.696 54.78c11.498-18.184 26.148-33.51 40.985-47.287M79.874 307.3c13.199-15.714 27.49-30.55 41.268-46.822m-38.529 52.099c5.162-9.422 13.489-21.544 39.561-44.935m-40.46 44.609c6.565-8.877 14.197-20.035 38.292-45.817m-34.712 44.85c9.17-10.492 23.422-22.283 34.275-39.953m-33.388 41.436c13.065-15.586 24.91-29.337 33.282-39.46m-28.03 36.235c6.886-7.92 17.101-16.84 30.482-29.783m-30.143 32.738c7.78-10.37 13.962-18.73 27.965-34.425m-24.286 34.76c10.784-10.048 15.597-18.745 22.813-27.65M95.566 311.98c6.381-6.544 11.336-10.737 24.008-27.333m-17.44 28.384c6.387-8.645 12.979-16.362 16.467-24.348M103 312.174c3.745-5.515 7.346-8.462 17.297-21.522m-14.848 20.732c7.241-3.226 8.686-8.33 13.206-14.23m-10.558 15.367c2.379-4.192 5.2-7.4 12.937-16.052m-8.756 14.962c2.143-2.623 5.655-5.614 8.029-8.387M113 311.727c1.79-2.094 3.77-5.105 7.425-8.104M85.052 309.23c-1.328-.203-2.992-1.494-5.806-4.036m5.483 5.155c-1.006-1.457-2.12-3.113-5.673-5.27m11.352 4.214c-3.717-3.444-5.465-6.104-11.348-9.8m12.033 10.96c-4.89-4.334-9.243-8.2-13.152-11.09M95.504 309.6c-1.33-1.385-4.612-4.579-16.883-15.982m18.796 15.923c-7.608-4.257-13.227-10.558-18.626-15.955m23.149 14.79c-4.714-4.185-14.27-10.33-21.98-21.175m22.475 23.565c-7.497-8.492-14.486-14.73-22.228-22.266m27.514 22.079c-9.176-10.318-18.304-18.396-27.927-27.778m29.7 27.123c-7.28-6.157-16.356-13.788-31.622-26.445m36.468 26.32c-8.557-5.923-15.604-12.537-36.462-30.642m38.083 29.954c-7.8-6.912-16.708-13.166-35.956-31.3m41.883 31.327c-15.124-12.237-24.433-20.476-42.009-37.527m40.972 38.277c-16.553-15-29.893-26.854-41.399-37.7m39.926 31.922c-12.483-12.87-23.454-25.197-41.9-35.82m43.09 34.994c-13.319-10.704-25.916-21.213-42.379-36.297m43.936 32.431C105.2 287.903 91.846 275.64 78.39 261.795m42.295 36.87c-15.323-15.154-31.213-28.774-41.93-35.616m39.703 27.757c-10.898-9.12-21.444-17.618-39.985-33.415m41.588 35.29c-14.66-12.607-29.614-25.312-41.304-34.719m39.585 31.215c-11.982-10.305-22.405-21.379-38.597-36.485m40.13 34.782c-8.705-6.82-17.858-14.856-41.573-36.628m41.102 29.44c-11.712-10.588-25.934-21.251-40.917-34.438m40.567 35.617c-9.638-7.701-18.42-17.096-40.55-34.839m40.531 30.3c-13.985-15.242-30.637-26.502-39.767-37.692m41.513 38.403c-10.474-10.206-21.247-18.318-41.87-36.815m41.504 29.788c-15.175-10.59-28.554-23.721-41.37-34.971m40.882 36.673c-12.138-10.881-25.71-22.933-39.907-36.49m40.588 31.946c-15.536-14.265-33.336-31.313-43.418-37.819m42.366 35.487c-11.1-8.926-23.901-20.466-40.858-35.767m41.898 31.76c-13.337-9.414-20.904-21.903-41.012-36.09m40.772 36.016c-9.65-8.013-17.207-15.926-41.66-37.013m42.674 31.063c-14.307-10.252-24.319-22.598-44.722-34.447m42.502 34.144c-8.787-7.851-17.523-15.798-41.076-34.567m39.886 31.453c-11.34-11.728-20.077-21.961-38.518-35.872m40.876 33.06c-12.179-9.843-25.028-20.963-40.604-35.239m39.821 30.19c-9.945-5.865-17.909-14.21-41.849-34.153m42.625 35.848c-12.67-10.845-26.661-22.573-41.564-35.803m40.679 29.108c-12.558-10.091-25.42-21.146-39.56-33.398m39.216 34.086c-8.752-8.167-17.054-15.744-40.022-35.507m40.166 30.515c-14.54-13.146-26.957-25.851-39.972-36.517m41.331 36.43c-15.822-12.364-28.351-25.93-41.86-35.562m40.092 28.105c-14.722-10.356-30.88-23.822-40.807-32.743m42.207 35.224c-12.784-11.659-25.428-21.753-41.707-35.651m41.96 28.861c-16.138-10.948-29.896-21.669-43.262-34.115m42.105 35.078c-12.11-10.143-24.032-21.836-40.005-35.426m40.312 30.62c-14.034-10.472-25.133-21.853-42.687-35.644m44.41 36.129c-17.274-14.115-31.052-28.691-42.702-37.664m42.56 30.695c-14.884-9.06-23.718-19.445-42.137-35.87m41.57 36.688c-10.057-8.338-21.057-18.449-41.783-35.828m43.112 29.346c-10.993-6.434-16.775-13.379-42.365-34.864m40.513 36.34c-15.606-14.669-31.801-28.514-40.284-37.07m39.433 31.125c-12.143-9.468-25.541-21.816-40.28-33.671m41.5 33.477c-9.807-8.159-20.287-17.811-41.739-34.665m42.403 31.056c-16.526-12.518-30.178-25.076-42.264-38.141m40.856 36.23c-13.009-11.265-27.52-24.775-40.5-34.86m39.157 29.895c-13.017-14.172-29.574-27.268-38.104-34.441m39.299 34.061c-11.61-8.846-21.258-18.214-40.662-35.367m39.686 29.033c-6.922-7.072-17.896-16.467-39.058-33.55m41.419 35.369c-15.776-12.995-32.424-27.72-43.138-36.871m40.418 32.397c-8.935-8.507-14.524-15.724-39.784-34.759m42.015 33.068c-10.165-8.397-21.496-17.24-40.588-35.521m40.827 29.362c-11.453-7.612-22.835-17.369-40.418-34.17m39.57 36.19c-11.433-11.505-24.74-21.853-40.488-36.438m41.013 28.657c-15.44-9.825-30.1-23.065-40.492-32.201m40.586 33.482c-10.498-8.5-20.236-16.034-42.057-34.212m42.303 31.268c-8.945-9.679-16.853-15.854-41.016-38.08m41.066 36.987c-9.822-9.007-18.84-15.2-41.337-36.398m38.845 30.345c-15.564-12.594-30.956-26.91-38.398-37.348m40.842 37.651c-13.985-11.399-26.375-22.64-42.109-36.025m42.197 32.113c-13.16-9.39-23.506-21.267-42.523-36.358m41.06 34.91c-12.455-11.03-26.152-23.241-40.976-35.086m40.928 29.77c-12.71-11.674-26.55-23.947-38.675-33.776m38.503 34.283c-14.633-13.135-28.672-27.68-40.281-37.048m43.204 30.403c-13.55-12.256-25.747-19.794-41.613-37.08m39.088 38.968c-14.114-14.47-27.998-24.917-41.192-36.34m40.388 28.884c-11.38-11.107-21.804-19.19-41.495-34.063m42.18 35.44c-14.927-13.93-29.673-26.3-40.615-36.865m39.628 32.784c-13.81-13.832-29.226-29.142-37.955-37.327m40.084 35.032c-10.838-7.928-20.637-16.225-42.276-35.492m39.456 32.277c-7.288-7.628-14.834-15.764-38.03-35.788m40.374 33.545c-13.421-12.07-27.38-23.577-41.647-34.562m40.38 29.043c-7.162-5.552-16.824-14.345-42.224-35.175m43.37 36.831c-13.695-13.06-29.197-25.178-41.017-37.38m42.476 30.179c-16.693-14.312-34.81-27.36-42.45-33.529m40.476 34.388c-12.442-10.4-22.874-19.49-40.418-34.727m41.984 29.106c-13.253-9.714-27.216-22.431-44.09-33.703m43.655 34.954c-9.664-7.985-18.884-17.517-42.702-36.342m43.654 30.122C106.694 95.65 93.87 83.842 80.855 71.191m40.523 36.763c-17.507-14.142-32.096-26.515-43.22-36.1m43.57 32.042C107.882 90.454 98.39 81.412 79.766 68.875m39.782 33.88C106.14 89.296 91.044 77.238 80.69 68.513m38.779 29.337c-9.686-8.93-15.85-16.123-31.092-29.81m32.879 29.646c-10.719-8.813-19.26-16.698-34.284-29.738m31.58 23.839c-5.984-7.197-15.005-13.566-23.963-25.647m24.693 24.358c-8.484-6.092-16.23-14.136-26.227-21.86m27.727 17.072c-5.794-3.091-12.662-10.187-22.128-18.57M119.54 86.63c-4.31-4.775-9.944-9.804-19.429-19.321m19.89 12.786c-6.335-5.705-10.6-8.219-14.578-12.186m15.087 12.081c-3.16-2.857-7.386-4.099-15.409-12.556m16.337 8.497c-5.615-4.279-8.286-5.614-10.666-7.744m9.191 7.23c-1.632-1.727-4.6-3.658-9.304-7.178" stroke="#228be6" stroke-width=".5"/><path d="M80.52 68.3c8.111.494 20.95.951 38.76 1.862m-41.356-1.139c17.266.342 32.489 1.322 41.247 1.43m.944 1.164c-2.157 85.21-1.417 168.498-2.686 237.494m.78-238.333c.294 91.081 1.303 182.162 1.396 239.716m-.816-.685c-9.915.844-19.574-.345-38.772.492m38.824-.026c-12.572-1.206-27.745-1.044-38.987.288m.518.996c-.52-95.445-.342-188.932-1.666-240.098m-.356 238.451c2.603-50.807 1.623-103.14 1.084-239.732" stroke="#000"/></g><g fill="none"><path d="M318.7 157.185c1.006-1.553 2.204-2.944 4.692-6.503m-4.889 7.062c2.112-2.451 3.763-4.272 5.26-6.639m-5.602 12.585c5.093-3.192 7.868-6.64 11.435-11.387m-9.787 10.887c1.767-3.19 6.64-8.216 8.991-12.792m-11.325 19.118c4.869-2.767 8.998-8.41 17.835-17.9m-16.694 18.29c4.744-5.261 7.33-9.238 16.19-17.563m-15.944 24.051c7.808-8.549 16.342-20.205 22.061-26.873m-22.003 25.937c8.73-9.087 16.192-18.601 21.412-24.525m-22.538 30.66c10.531-10.765 19.603-19.62 28.494-31.188m-27.01 31.578c7.214-8.716 12.595-16.495 25.975-30.847m-25.538 36.4c10.588-15.469 23.248-26.205 32.374-36.087m-32.822 37.222c9.31-12.88 20.012-23.84 31.51-37.054m-31.984 42.654c6.154-9.094 17.937-18.462 38.755-41.237m-37.804 41.48c7.851-11.924 17.002-21.907 35.3-42.433m-36.153 49.705c14.095-19.458 29.853-36.33 42.406-49.51m-43.392 47.76c17.803-19.453 32.416-37.67 41.194-46.826m-40.005 53.587c9.427-10.248 18.063-22.717 40.634-50.427m-39.816 50.11c15.456-19.426 30.673-38.403 41.42-49.066M319.4 212.846c9.969-11.326 18.122-22.142 42.363-47.51m-43.089 45.977c13.755-15.237 29.62-31.648 40.666-47.329m-41.087 55.094c15.2-16.52 31.465-35.51 40.365-48.439m-40.143 48.776c15.4-19.226 31.285-38.574 41.313-48.294m-42.283 51.451c15.449-13.762 25.736-29.572 41.85-44.327m-39.326 46.562c13.42-17.596 28.09-35.112 41.022-47.42m-43.659 53.277c14.58-13.891 25.077-28.174 42.464-47.728m-41.306 48.45c13.2-16.304 26.34-30.101 41.736-47.941m-40.225 52.283c12.678-12.167 25.602-28.374 40.29-46.633m-40.978 48.02c16.415-19.87 32.974-38.569 40.677-47.884m-42.793 54.044c14.531-12.556 26.414-29.143 41.852-46.467m-40.373 45.713c14.29-15.367 26.952-30.42 41.352-47.046m-42.229 55.26c18.29-21.608 32.656-40.896 44.106-48.097m-42.558 46.25c13.061-15.817 28.858-33.856 40.545-48.012m-41.109 54.906c12.53-13.893 21.775-27.797 40.45-49.825m-40.55 49.031c12.896-14.613 25.423-29.478 41.325-47.146m-41.813 54.818c10.806-12.59 17.797-23.55 42.717-49.393m-41.218 47.544c12.703-15.604 28.206-32.885 40.04-47.594m-39.054 53.747c8.756-10.525 17.102-22.286 39.18-45.978m-40.189 45.77c13.014-15.721 26.616-29.997 41.321-48.283m-41.823 55.265c16.72-18.784 31.967-37.858 40.547-50.193m-41.753 49.584C330 260.479 341.26 248.907 361.1 226.21m-40.626 52.049c12.035-16.435 28.057-34.415 37.965-46.094m-39.777 47.175c13.99-16.197 27.406-31.057 41.502-46.993m-42.153 52.01c14.473-13.458 27.329-31.042 41.017-45.17m-39.599 46.44c14.813-18.766 30.59-36.004 40.069-48.774m-40.364 55.895c15.953-19.495 31.202-40.875 39.727-48.347m-40.946 47.392c17.792-18.55 34.086-38.03 42.533-48.316m-40.024 52.332c12.77-16.221 30.384-34.61 38.55-47.992m-39.83 49.572c11.995-15.177 25.687-30.16 41.93-48.45m-41.639 52.743c15.96-17.625 30.3-36.204 42.386-45.908m-43.464 48.452c15.477-17.605 30.427-35.631 41.577-47.792M318.23 309.05c9.55-10.262 18.672-20.763 42.568-47.335m-42.162 48.837c12.816-14.534 25.849-28.733 42.074-47.735m-40.4 50.384c13.294-14.546 26.926-32.013 40.899-44.686m-40.277 45.015c14.362-16.327 28.785-34.66 40.33-45.195m-35.637 46.284c12.947-15.094 28.916-32.433 33.618-41.812m-32.08 40.42c11.194-13.67 22.675-28.118 32.543-37.864m-26.828 36.702c5.52-4.18 11.827-10.933 28.622-32.304m-29.875 34.346c9.333-11.03 18.366-23.018 28.398-33.517m-23.714 30.73c7.71-7.83 14.32-15.823 24.372-24.133m-22.828 25.992c5.02-7.781 10.771-13.435 22.999-27.66m-18.092 26.783c3.605-5.82 9.943-11.539 16.355-19.991m-16.325 21.207c2.226-4.7 7.14-8.635 16.316-20.855m-11.246 18.515c5.879-1.989 10.001-9.1 11.905-11.157m-12.66 13.636c4.597-6.752 9.672-11.619 12.955-15.379m-7.816 14.272c2.839-2.45 4.56-3.787 7.278-7.272m-6.146 7.423c1.869-2.521 5.534-5.837 6.855-8.277m-35.141 7.031c-1.653-2.084-2.384-2.583-6.302-5.368m6.429 5.156c-1.67-1.958-3.788-3.461-7.055-5.355m12.895 4.548c-3.44-3.117-8.974-5.717-13.397-8.74m12.942 8.714c-4.27-2.481-7.62-6.59-11.912-9.199m20.218 8.931c-4.851-4.636-11.057-8.269-20.613-16.575m19.62 16.761c-6.847-4.254-12.515-9.53-19.124-15.235m24.972 16.66c-9.278-7.213-18.03-17.626-25.021-23.367m24.38 21.6c-5.326-3.334-10.217-7.518-24.406-19.883m32.14 19.946c-11.983-6.494-21.034-14.181-29.93-24.604m28.328 25.944c-8.78-6.592-16.678-14.495-29.465-27.37m37.005 25.652c-9.247-8.058-21.244-12.645-36.633-32.31m36.307 33.627c-13.355-12.148-28.954-23.494-37.515-31.682m40.322 28.381c-9.449-5.877-20.2-17.659-41.463-32.004m42.946 34.98c-16.253-13.957-30.671-27.898-40.969-36.657m38.498 29.624c-12.403-9.533-25.74-21-38.084-35.93m41.04 37.451c-11.61-9.46-21.182-17.81-42.727-36.186m42.307 31.871c-12.953-13.758-24.54-24.736-41.235-39.075m40.383 38.045c-16.2-13.631-30.09-28.328-40.918-35.262m42.724 28.72c-13.44-12.045-26.024-23.991-44.726-37.18m43.869 38.724c-12.011-9.323-21.558-19.632-41.9-36.965m40.354 32.397c-11.718-13.914-25.452-26.29-39.89-38.173m41.028 36.262c-10.08-8.473-19.07-15.458-41.712-34.91m41.347 28.354c-8.089-5.729-16.906-12.836-41.665-34.67m42.202 36.142c-10.049-9.4-21.98-17.655-41.149-36.745m38.296 32.864c-12.233-14.77-27.309-27.46-38.507-35.47m39.562 34.462c-14.927-13.638-30.34-27.118-40.688-36.642m40.147 31.61c-10.697-11.976-23.979-22.453-38.478-38.067m41.275 37.85c-11.017-8.556-22.5-18.093-41.56-36.812m39.106 29.285c-13.27-9.174-25.42-19.554-39.162-32.138m40.527 33.364c-8.459-6.617-16.227-14.825-40.68-35.995m40.542 32.182c-7.579-7.628-16.476-16.98-41.746-36.047m41.687 34.393c-15.177-13.087-32.019-26.776-41.72-34.96m39.9 31.787c-6.16-9.983-14.692-17.357-40.936-36.348m43.325 34.576c-17.606-13.288-32.926-27.318-42.027-35.007m42.594 29.373c-10.185-7.36-18.705-14.28-43.044-36.28m42.39 37.699c-9.779-10.37-21.252-19.533-41.712-37.473m40.93 29.6c-9.503-8.747-20.105-19.173-39.905-35.274m39.217 37.604c-8.963-8.146-16.913-15.136-40.563-36.22m42.001 29.097c-12.7-6.905-21.984-17.474-42.952-33.44m43.702 34.092c-16.41-11.252-30.344-24.712-43.125-35.143m42.596 30.067c-11.17-7.034-22.497-19.533-41.148-35.085M359.7 234.84c-9.052-7.249-17.242-15.22-41.624-34.67m43.106 28.874c-11.798-10.28-24.85-21-43.049-33.197m42.297 35.282c-12.321-9.57-23.327-20.134-41.044-37.258m39.186 30.297c-15.596-13.901-30.673-27.718-39.496-33.61m41.372 35.212c-11.464-10.624-23.48-22.193-40.8-36.554m41.888 28.839c-9.855-7.162-20.236-15.42-41.156-35.567m39.453 36.717c-8.46-8.913-18.534-17.049-41.299-34.952m40.115 30.883c-15.467-15.74-31.239-28.697-40.52-37.711m41.698 36.595c-10.826-9.239-23.14-20.263-40.92-34.6m40.973 30.73c-18.238-15.043-31.85-28.97-42.362-37.534m43.074 37.203c-17.223-13.46-31.622-27.03-41.487-35.827m40.463 29.464c-12.6-11.755-27.898-24.002-41.053-35.213m42.755 36.7c-13.975-12.696-28.678-23.883-42.573-35.998m42.622 30.898c-12.135-11.545-26.748-23.654-42.49-37.115m40.157 35.966c-11.488-12.292-25.515-22.923-40.438-36.013m42.434 29.163c-10.67-6.015-24.68-17.086-42.171-36.29m42.097 37.487c-13.49-10.369-27.338-23.08-43.094-35.793m41.737 29.303c-8.972-5.498-19.828-16.285-39.118-35.98m38.815 36.281c-12.781-11.71-26.156-22.777-39.238-34.8m42.127 28.87c-16.118-10.145-30.68-22.307-39.69-32.144m36.879 34.828c-11.025-10.092-22.736-19.753-39.057-35.553m38.6 28.546c-7.8-6.984-17.703-18.187-30.523-27.585m32.218 28.598c-12.696-12.084-25.861-21.87-32.173-28.762m31.48 22.367c-7.813-7.907-16.477-12.083-25.14-24.386m25.828 24.9c-10.65-8.095-20.256-16.435-27.249-22.758m26.85 16.245c-5.135-2.522-10.38-6.754-20.811-15.539m20.724 15.91c-6.654-3.886-14.417-10.345-19.855-16.124m18.401 11.698c-3.081-6.084-9.096-10.313-12.41-12.719m14.891 12.858c-4.245-3.06-6.875-5.773-15.318-12.474m13.525 6.314c-2.135-2.113-3.982-4.79-7.22-6.433m7.75 7.065c-1.968-1.821-4.838-3.862-7.941-7.073" stroke="#228be6" stroke-width=".5"/><path d="M317.188 150.261c14.752 1.921 29.524.915 41.863 2.526m-41.14-.727c8.776.257 18.286-.28 41.431-.379m1.487-.978c-1.498 44.16-4.374 85.198-3.007 162m2-162.495c-.832 52.143-.854 103.626-.34 160.263m-.784.064c-9.921-.24-21.52 1.684-39.508 1.314m39.974.117c-16.765-1.716-32.481.091-39.712.064m1.307-.677c-.219-41.697.472-84.286-.117-161.96m-1.858 162.416c.752-37.316-.382-72.326.32-160.278" stroke="#000"/></g><path d="M10.072 49.258c-.097 46.643.173 234.558.262 281.348m1.403-282.661c.304 46.225 1.269 233.73.91 280.979" stroke="#000" fill="none"/><path d="M10.119 330.274c96.643.09 484.557.132 581.348.274M12.052 332.49c96.473.341 482.546-.66 578.907-.658" stroke="#000" fill="none"/><text y="23" font-family="Virgil, Segoe UI Emoji" font-size="20" style="white-space:pre" transform="translate(10 10)">Waterfall</text><g fill="none"><path d="M138.391 76.095c1.126-2.028 3.307-2.167 4.785-5.983m-4.45 6.33c1.635-2.55 3.667-4.572 4.76-6.297m-4.017 13.161c3.063-4.132 6.854-7.83 9.976-11.767m-9.656 10.117c1.821-4.07 5.411-6.69 9.407-12.205m-10.797 19.867c5.9-6.248 8.516-12.89 16.646-19.28m-16.633 18.118c5.79-4.797 11.391-11.87 15.227-17.977m-13.65 22.195c7.512-8.637 15.904-14.801 20.823-22.914m-21.547 24.725c6.776-8.19 13.858-15.302 20.403-24.804M139.7 101.325c8.12-10.825 14.02-18.051 27.148-30.267m-28.431 29.17c9.215-10.18 18.792-21.02 27.042-29.396m-27.2 37.543c10.759-11.027 18.907-22.326 31.487-37.21m-31.603 36.576c12.576-13.784 23.63-27.332 33.463-37.961m-30.86 43.94c12.668-13.786 21.865-29.42 35.517-42.03m-37.074 40.11c13.464-14.663 29.227-31.704 35.638-41.48m-37.27 49.558c18.761-19.58 35.487-37.208 42.635-50.228m-42.363 49.169c12-13.197 24.692-29.209 42.103-47.48m-41.993 53.129c15.296-18.929 32.51-34.805 42.77-45.95m-42.222 45.229c17.214-17.915 31.3-34.798 41.772-46.481m-39.928 52.287c14.148-14.34 27.298-32 40.818-46.587m-40.968 47.847c8.066-11.892 18.868-21.407 39.366-47.592m-35.024 48.182c10.507-14.912 25.35-26.946 34.237-41.915M143.766 129.7c14.814-15.015 29.072-31.319 36.017-40.653m-30.974 39.36c6.905-4.2 16.03-11.732 31.456-30.957m-31.07 33.402c12.97-12.882 23.378-27.473 30.665-36.087m-25.773 35.537c8.428-8.631 16.672-19.33 24.744-28.89m-24.14 29.713c10.489-11.071 19.988-21.815 25.942-28.826m-17.846 27.943c3.199-6.122 10.591-13.455 16.813-22.33m-17.806 21.334c6.27-7.33 14.377-17.679 17.755-22.575m-12.982 22.218c2.904-2.27 9.201-11.105 14.806-15.33m-15.244 16.766c3.695-4.27 9.06-10.384 14.301-16.824m-9.602 15.524c5.187-1.895 7.89-7.271 7.96-7.74m-7.18 8.284c2.43-2.736 4.7-4.837 8.442-9.342m-3.526 9.721c.959-1.437 2.792-2.493 3.759-4.191m-4.087 4.973c1.495-1.598 2.701-3.306 3.884-4.875M144.978 129.608c-2.13-.483-3.62-3.259-6.502-4.384m6.618 5.062c-1.746-2.175-3.494-3.399-6.02-5.447m12.577 5.45c-5.002-5.357-9.488-7.508-14.342-12.661m14.386 13.404c-3.538-3.612-7.654-7.284-12.641-11.124m17.545 9.79c-5.367-3.309-7.666-5.835-18.52-15.521m19.747 15.475c-5.999-4.048-11.296-9.678-17.92-16.023m23.412 15.257c-7.804-2.635-11.725-11.63-23.738-19.607m24.218 20.438c-10.013-8.085-17.049-15.44-24.79-21.038m28.85 19.22c-10.981-7.102-18.876-16.947-28.6-26.112m30.682 27.633c-10.746-8.683-20.266-16.405-31.755-25.28m37.345 26.322c-9.82-9.497-16.6-15.014-34.285-31.993m34.307 31.56c-11.111-10.87-22.685-20.772-35.357-31.24m38.904 29.354c-5.872-7.03-14.785-13.448-41.762-36.368m42.849 36.801c-15.545-12.46-31.459-26.371-42.08-35.902m41.874 29.702c-9.66-8.999-21.006-18.67-41.788-34.51m42.752 35.442c-15.168-12.427-30.442-25.794-41.356-35.763m40.914 28.824c-11.523-8.087-23.115-17.659-41.517-34.28m40.846 35.892c-12.014-10.619-25.45-23.051-41.164-36.243m42.814 30.338c-17.914-14.328-31.65-25.505-43.093-33.797m41.04 33.97c-13.46-10.302-27.584-22.324-39.637-34.365m41.936 31.56c-10.61-10.363-21.063-20.765-42.264-37.86m40.022 35.731c-15.512-12.663-30.905-26.941-40.664-36.18m40.124 30.095c-7.288-6.25-17.545-14.657-36.794-32.15m37.77 33.072c-12.415-12.65-26.19-22.255-39.306-33.96m40.093 28.112c-9.63-7.245-19.122-12.315-31.782-27.062m31.96 27.976c-12.257-9.875-21.899-18.993-34.113-29.038m34.582 22.295c-8.119-2.282-12.172-10.687-30.415-24.369m28.824 24.573c-10.57-8.89-21.332-17.621-26.89-23.464M180.97 85.79c-7.016-3.275-9.577-10.062-23.673-15.996m23.934 16.332c-5.139-4.398-9.92-8.378-21.378-17.79m18.429 13.02c-3.55-4.837-6.921-8.5-12.098-13.31m14.07 12.745c-5.587-4.731-11.671-9.96-16.042-13.351m16.852 8.875c-3.251-2.171-6.619-4.533-10.697-8.617m9.814 7.791c-2.897-1.32-4.814-4.027-9.062-7.505" stroke="#fa5252" stroke-width=".5"/><path d="M138.082 70.391c11.268 1.006 19.672-1.162 38.877-2.345m-37.824 2.236c16.003-.04 31.049-1.192 40.49.688m-2.238-2.722c.847 20.12 2.28 34.292-.132 63.62m2.524-61.009c.25 11.08-.74 25.19-.94 59.045m-.841 1.224c-9.657-.55-18.868-2.877-39.205-.577m39.645.414c-14.407-.383-30.772-2.202-38.66-.03m.013-1.155c.787-20.224-2.448-37.3-2.196-59.99m.753 60.864c.401-22.42.691-44.467 1.025-61.528" stroke="#000"/></g><g fill="none"><path d="M258.324 117.025c1.019-.864 3.923-3.596 5.304-5.084m-4.956 5.455c1.51-2.039 3.545-4.641 4.989-5.79m-3.374 11.623c3.64-4.056 7.722-8.812 10.806-12.077m-12.456 11.281c1.802-2.247 5.067-4.783 10.368-11.37m-9.365 19.291c3.534-7.114 6.695-10.361 14.578-18.206m-15.74 17.702c7.254-6.483 12.22-14.824 15.881-17.812m-16.912 23.929c6.231-6.376 14.953-14.441 22.23-24.394m-20.419 23.803c7.308-8.567 15.706-18.23 20.341-24.333m-19.86 31.7c7.016-12.17 17.618-19.722 26.164-30.557m-27.262 29.522c10.394-11.073 20.117-23.418 27.036-30.532M260.13 149.3c7.566-10.247 14.818-21.36 31.918-36.927m-32.552 35.613c7.305-9.206 14.834-16.175 31.166-36.658m-29.123 42.577c7.432-11.6 13.041-18.183 35.66-40.772m-37.58 38.267c11.684-9.953 20.957-23.067 36.21-39.153m-29.543 41.436c6.936-8.384 15.824-19.478 32.09-41.187m-33.15 38.99c14.19-14.48 25.574-28.985 34.838-38.44m-29.188 38.278c6.21-6.695 15.413-17.572 31.12-31.583m-31.842 33.188c9.254-11.899 19.554-21.767 30.589-34.415m-25.439 35.468c10.804-11.43 18.301-22.12 24.48-30.97m-23.219 28.548c3.603-4.136 9.506-11.269 23.474-26.73m-17.602 25.874c3.622-2.54 9.991-11.21 17.21-17.887m-18.913 19.057c5.526-4.71 9.766-10.116 18.472-21.721m-14.383 21.254c8.405-3.159 13.525-10.29 17.537-13.45m-15.091 15.146c3.628-4.736 5.456-9.312 12.406-16.46m-7.582 15.23c2.711-2.598 4.181-6.54 7.746-7.857m-7.252 8.114c1.923-2.286 4.082-4.2 7.784-9.294m-3.128 9.508c1.291-.974 2.27-3.057 3.358-3.256m-3.607 3.18c1.538-1.26 2.329-2.768 3.297-3.571M264.442 152.01c-.907-2.227-3.956-5.191-4.763-6.092m5.097 5.287c-1.117-1.183-1.844-2.032-5.748-5.002m10.351 3.756c-4.237-2.994-7.458-7.603-11.177-9m13.263 9.62c-3.471-3.325-7.237-6.384-13.001-9.588m17.925 10.956c-5.754-5.703-13.933-11.714-15.397-16.966m15.63 15.788c-3.593-3.679-7.844-6.948-16.805-15.268m22.687 15.26c-5.526-6.303-16.765-15.373-22.742-20.822m24.438 21.954c-8.604-6.067-15-13.176-25.402-21.846m30.393 20.438c-12.794-9.541-21.702-19.73-31.963-25.581m32.837 26.904c-9.383-8.133-18.921-16.344-30.154-27.687m35.481 25.55c-8.445-5.734-16.055-14.858-36.757-30.784m36.71 32.508c-13.3-12.167-28.645-23.797-37.257-32.69m40.364 29.453c-9.706-8.152-25.388-19.224-38.712-32.97m39.543 33.44c-11.005-7.58-21.639-17.61-40.143-33.913m39.079 28.55c-9.46-7.297-21.423-18.931-39.869-32.872m41.39 34.46c-15.33-12.228-29.377-26.886-39.038-35.76m39.424 28.248c-9.496-4.549-14.846-9.056-33.709-26.778m33.275 28.878c-7.955-5.977-14.78-12.22-32.955-30.349m32.48 26.37c-8.195-8.176-15.996-18.784-28.208-24.417m28.643 22.53c-7.562-7.815-16.431-15.065-27.744-24.393m27.546 20.53c-6.167-6.569-13.289-13.261-20.969-18.548m21.901 18.46c-6.58-6.33-14.077-12.41-22.222-19.794m19.875 14.255c-1.958-3.132-5.262-8.327-14.046-14.119m15.658 14.174c-3.966-3.982-9.214-8.999-16.008-13.799m16.323 7.359c-2.99-.606-3.645-3.859-8.751-7.524m8.863 7.825c-1.987-2.899-5-4.406-9.12-8.647m9.363 3.469c-1.49-.998-2.9-1.897-3.374-2.48m2.948 2.184c-.605-.574-1.45-1.268-3.038-2.68" stroke="#fd7e14" stroke-width=".5"/><path d="M259.28 111.273c10.757-1.735 18.062-1.93 37.655 1.736m-37.764-1.445c9.356-.847 17.271.184 40.688-.657m-2.722-.863c3.44 16.18.834 28.925 3.62 39.26m-1.009-37.6c-1.376 14.658.153 30.655-.955 39.12m1.224.588c-12.986 1.46-27.908-.575-40.577 1.41m40.414-1.148c-9.594-1.124-20.961.147-40.03-.442m-1.155 1.632c-1.589-15.658.062-27.893.01-40.357m.864 38.82c-.043-14.082.096-28.476-1.528-39.804" stroke="#000"/></g><g fill="none"><path d="M198.143 115.608c2.156-.07 2.44-2.474 6.202-4.765m-5.83 5.189c1.45-1.375 2.336-2.88 5.495-5.442m-4.911 12.677c4.046-4.113 7.397-8.456 10.495-14.738m-11.29 12.834c4.398-3.634 8.525-9.271 11.201-11.562m-9.94 18.817c4.116-8.4 12.095-14.718 15.652-16.722m-16.156 17.449c4.185-5.326 6.502-9.759 16.046-19.07m-13.21 20.021c7.6-5.195 13.514-14.566 18.783-19.101m-19.373 20.514c6.734-6.761 12.375-15.489 18.843-21.437m-12.887 20.909c3.078-4.164 10.756-10.15 18.657-19.023m-19.692 19.753c5.944-6.491 10.637-11.025 18.682-22.04m-11.846 22.354c3.274-5.786 5.702-8.525 19.08-23.688m-20.394 23.855c4.518-6.069 11.323-12.838 19.349-23.46m-12.577 24.878c3.67-9.606 12.24-16.125 19.008-23.96m-21.513 23.006c5.568-5.216 7.953-9.951 20.627-23.277m-13.06 21.963c6.02-5.256 9.417-13.564 16.526-18.635m-18.724 19.569c4.612-6.48 9.334-10.304 19.273-21.347m-14.053 19.224c7.564-4.662 11.034-8.194 15.5-13.187m-13.895 14.231c2.116-2.89 6.36-7.365 12.668-13.549m-7.022 14.313c1.7-3.362 3.785-5.45 5.54-9.819m-6.872 9.076c3.474-2.5 5.268-5.844 7.873-8.178m-35.606 7.614c-.617-1.368-2.821-2.726-5.078-6.237m5.757 5.894c-2.443-2.573-4.82-4.383-6.282-5.46m11.454 4.715c-3.142-4.69-8.076-6.7-10.476-11.348m10.82 11.756c-2.925-2.096-5.353-4.893-12.394-10.277m18.499 10.642c-5.469-7.286-15.346-12.614-16.043-15.317m15.742 15.453c-4.12-5.25-9.201-9.038-17.305-16.019m23.022 17.46c-7.547-11.191-15.638-17.824-23.082-21.354m24.062 20.02c-5.902-7.227-13.546-12.916-23.111-21.002m30.892 21.373c-6.641-7.617-15.293-9.959-25.506-23.568m23.494 21.806c-8.567-6.068-16.212-13.93-22.78-18.882m28.123 18.58c-5.608-4.354-13.177-11.819-22.28-20.418m23.055 22.304c-9.316-8.21-18.583-16.563-23.015-21.27m28.315 18.59c-5.87-7.06-12.293-8.304-23.107-20.645m21.93 20.596c-8.27-7.265-15.945-12.521-21.41-18.407m21.5 15.546c-4.015-7.285-10.813-9.69-15.776-16.364m16.908 13.85c-3.901-2.516-8.764-6.448-16.8-13.25m15.553 6.96c-3.366-1.578-7.114-5.48-9.381-7.171m10.241 8.903c-2.879-2.463-5.714-4.564-10.75-9.39m10.166 4.001c-.645-.702-2.166-2.103-3.432-2.917m3.864 2.963c-.816-.952-1.4-1.619-3.91-3.386" stroke="#40c057" stroke-width=".5"/><path d="M199.05 111.676c12.899-2.246 27.498-3.708 41.737-3.142m-41.445 2.036c14.529-1.265 30.838.287 39.343.117m-.863.905c1.283 3.875-.717 13.238-.74 20.232m2.4-22.464c-.813 8.144-.465 13.776-.88 20.789m.588.589c-8.77-2.102-21.211.038-38.59-1.964m38.852 2.145c-9.574-1.433-16.934.402-40.442-.813m1.632-1.824c-3.326-4.806-3.138-11.405-.358-17.096m-1.18 19.234c.4-4.906.377-11.384.197-20.025" stroke="#000"/></g><path d="M118.986 71.006c3.24-.089 15.738-.938 18.862-1.3m-20.27.782c3.644.07 18.696.76 22.436.6M180.532 129.658c3.245-.21 15.729-.48 18.7-.117m-19.632 2.185c3.041-.115 15.023-.983 18.528-1.256M238.544 111.505c3.124-.363 16.186-.78 19.883-.878m-18.229-.323c3.467.261 16.94 1 20.333 1.245M299.702 151.47c2.97.363 15.887 1.94 19.123 2.296m-17.077-.29c3.232.148 15.873-.953 19.173-1.235" stroke="#000" fill="none"/><g fill="none"><path d="M427.712 99.201c2.477-2.884 3.986-4.462 5.272-7.24m-5.239 6.905c2.102-1.707 3.608-3.502 5.483-5.866m-3.299 11.45c.262-2.485 6.621-8.638 7.486-13.508m-9.574 13.419c3.013-2.342 5.752-5.85 11.333-11.99m-11.368 19.112c5.673-6.2 7.125-9.875 16.634-17.012m-16.493 16.902c5.81-6.414 11.975-14.427 16.28-19.475m-16.21 25.048c9.598-8.92 16.539-18.764 21.832-24.9m-21.91 24.37c7.89-8.433 15.11-15.949 22.12-24.65m-18.44 28.812c7.098-8.59 10.388-15.554 23.085-28.487m-23.311 27.477c8.23-11.05 17.422-19.71 23.732-26.723m-18.018 28.673c3.443-8.72 9.829-13.362 17.095-21.277m-18.48 20.233c3.076-4.547 8.968-9.231 19.377-20.618m-12.256 21.58c1.228-6.74 4.902-9.935 9.73-14.66m-11.032 13.818c3.994-6.195 8.772-11.095 12.976-15.272m-9.082 14.805c5.036-4.372 6.097-7.282 7.709-8.191m-6.695 8.521c1.75-1.9 3.314-4.46 7.663-9.92M434.013 116.87c-2.657-.692-3.463-2.503-6.57-5.075m6.672 5.802c-2.359-1.788-4.524-3.972-6.23-5.427m12.447 7.082c-5.421-5.71-10.444-11.143-12.105-11.693m11.753 9.562c-2.674-2.92-7.411-6.608-11.868-9.209m20.118 10.822c-9.626-5.937-17.506-11.665-18.733-15.49m16.047 14.176c-4.203-4.778-10.372-9.555-17.547-15.837m24.195 17.776c-8.093-9.847-15.603-14-23.342-21.784m24.229 19.816c-7.156-5.006-14.213-12.272-24.671-20.536m28.02 20.311c-9.98-12.495-19.485-22.155-28.479-24.29m27.238 22.727c-6.42-6.686-14.162-14.935-26.91-23.078m27.005 17.015c-4.531-5.7-11.76-11.36-20.337-16.712m20.28 17.664c-7.03-8.343-15.976-15.606-18.991-17.99m21.273 11.99c-8.763-3.672-11.582-10.893-16.667-14.051m15.039 14.766c-3.006-4.122-7.728-8.29-15.535-14.261m14.914 8.46c-2.611-1.91-5.815-4.022-8.309-6.777m8.489 6.798c-1.466-2.325-3.994-4.013-7.921-7.724" stroke="#228be6" stroke-width=".5"/><path d="M426.268 94.231c5.874-.015 13.218-1.09 28.113-.757m-25.189-1.345c6.546.259 11.938-.858 23.75 1m2.4-2.602c-.17 10.46-.215 19.602-.681 25.778m-1.282-24.26c.469 6.462-.125 13.996.246 25.91m.4 1.341c-11.8-3.407-21.5.209-24.677.128m25.062-1.717c-7.444.332-13.714-.006-25.311-.98m-1.087 2.254c1.405-8.054-.863-11.496.642-25.808m-1.305 24.825c1.127-10.016.502-17.864.56-26.095" stroke="#000"/></g><g fill="none"><path d="M428.43 137.092c1.18-2.561 3.66-5.278 4.047-6.446m-4.382 6.194c1.451-1.565 2.805-3.132 5.42-6.176m-5.084 10.153c5.585-1.93 7.501-9.7 9.065-11.293m-9.154 12.565c4.442-4.11 7.71-7.84 10.582-12.422m-10.12 20.554c1.961-6.718 6.453-9.895 16.847-18.446m-16.956 16.824c4.744-4.781 7.87-10.084 14.384-17.258m-14.06 24.217c7.615-9.46 14.314-17.779 20.245-24.594m-20.774 23.671c7.51-8.672 15.922-17.348 20.494-24.904m-17.349 29.808c6.485-12.2 14.626-20.297 22.301-27.45m-23.31 25.163c4.283-5.693 10.969-10.65 24.064-26.478m-17.487 25.9c3.166-5.447 10.398-10.181 18.224-21.344m-19.269 21.739c6.868-5.93 13.621-13.672 18.883-20.777m-11.884 20.96c.465-3.744 4.478-9.772 12.145-12.476m-12.986 12.219c3.077-4.354 7.432-7.624 11.532-12.795m-7.372 14.72c1.803-4.97 5.069-8.033 8.738-10.856m-8.408 9.79c1.737-2.04 2.814-3.722 7.008-8.394m-20.227 5.116c-.443-.048-1.953-2.573-5.864-3.84m6.591 4.492c-1.801-1.697-4.076-3.77-6.216-4.766m14.007 4.235c-5.807-4.096-11.473-6.897-13.271-9.428m11.14 10.797c-3.233-4.224-7.273-7.207-10.787-10.393m18.437 8.757c-7.252-7.223-14.313-10.077-17.857-15.066m16.543 16.15c-3.707-4.209-7.586-7.038-18.203-15.875m26.279 14.753c-7.871-4.229-10.337-7.204-24.94-19.87m22.972 21.718c-8.234-7.765-18.486-16.926-23.693-20.871m29.21 18.669c-10.533-5.364-18.46-14.672-27.842-24.815m26.28 24.25c-5.565-5.51-13.173-11.77-26.63-23.812m25.814 19.26c-4.962-4.859-9.665-9.839-19.375-17.298m20.327 16.317c-6.126-5.078-11.098-7.668-20.652-17.657m20 10.213c-2.452-.568-8.71-4.288-16.025-11.902m16.739 14.827c-6.285-5.624-12.583-11.147-16.234-13.894m15.681 7.038c-2.44-3.068-5.102-4.995-7.861-7.746m7.883 8.314c-3.227-3.003-5.965-4.735-8.81-7.276" stroke="#fa5252" stroke-width=".5"/><path d="M430.12 128.746c6.696 2.206 12.577 2.62 24.495.875m-26.597 1.278c6.55-1.683 11.54-1.465 26.253-.504m-2.603 1.642c2.216 6.25 3.32 11.952.526 22.632m.993-24.308c-.123 9.226.84 19.642.657 26.073m1.341-2.195c-8.964.393-10.917 2.421-25.124.465m23.535.866c-5.196.582-10.837 1.007-26.233-.847m2.255 1.928c-2.187-9.76.075-15.737-.556-25.427m-.428 24.636c-1.284-9.615-.279-18.686-.842-25.122" stroke="#000"/></g><g fill="none"><path d="M428.443 172.981c.85-.827 1.541-2.932 4.84-6.087m-5.093 6.728c.978-1.168 1.948-2.4 5.11-5.893m-6.38 12.776c5.952-5.826 6.08-9.98 11.278-12.8m-10.007 12.047c2.822-3.512 6.014-6.927 10.15-13.23m-8.677 17.727c2.907-5.374 9.352-8.919 15.412-17.121m-17.034 18.895c3.854-5.417 7.182-9.187 16.6-18.212m-14.89 24.117c6.008-8.761 13.147-17.231 20.55-23.689m-21.472 22.526c5.483-5.365 10.945-12.37 20.24-23.436m-16.352 26.54c6.18-10.501 16.476-21.005 23.337-28.33m-25.625 28.006c7.934-7.33 16.623-16.884 24.31-26.573m-20.26 27.288c4.805-3.103 10.34-8.86 18.157-19.234m-17.763 20.379c8.876-8.148 15.936-16 18.725-21.704m-12.504 19.102c4.639-4.533 7.006-6.466 14.329-12.587m-14.586 14.129c2.628-2.546 6.34-6.055 14.01-13.991m-7.458 13.627c.43-2.094 2.756-3.862 6.073-9.46m-7.14 10.723c2.013-3.117 4.382-6.182 8.536-9.743M433.414 192.608c-.798-1.86-4.098-4.594-4.63-5.38m5.282 5.257c-1.266-1.393-2.93-2.832-5.555-5.381m11.16 5.243c-3.198-3.747-5.136-4.558-11.006-10.489m12.375 10.259c-4.319-3.486-7.57-5.063-11.971-9.474m16.373 10.624c-6.692-4.433-8.678-8.797-17.433-18.897m18.518 17.646c-5.25-4.058-9.351-7.888-18.244-16.722m23.257 15.66c-5.535-2.265-9.915-7.455-23.027-17.98m24.876 20.262c-8.393-8.397-17.979-15.617-24.028-22.245m27.567 17.614c-5.942-6.26-15.723-9.256-28.367-23.835m27.802 25.807c-5.354-6.243-11.877-9.386-27.364-25.03m28.061 18.419c-8.034-6.39-16.253-11.428-19.962-18.851m18.98 18.602c-7.379-5.778-12.418-9.99-20.32-17.764m18.224 14.27c-.757-5.35-4.45-7.501-13.875-12.722m16.8 11.641c-5.47-4.74-10.866-8.518-15.867-12.595m14.259 7.886c-2.933-1.86-4.772-4.033-8.831-7.78m9.4 6.808c-2.324-1.457-3.417-2.769-8.362-7.606" stroke="#40c057" stroke-width=".5"/><path d="M426.756 168.619c7.098-1.314 12.65-.739 26.128-2.803m-23.975 1.404c7.996-1.065 17.648.607 24.749-.747m1.641 1.122c.192 6.616-.402 9.13-2.62 26.415m.945-27.428c-.619 8.412-.023 15.667.82 24.856m-2.195-.89c-7.131 3.831-12.557 3.739-24.788-.116m26.12 2.029c-9.478-.308-18.876-1.057-26.1-.262m1.927-.921c-2.241-3.68-.727-10.09-.174-23.179m-.616 23.384c-.405-7.794-.488-17.278.13-24.685" stroke="#000"/></g><text y="23" font-family="Virgil, Segoe UI Emoji" font-size="20" style="white-space:pre" transform="translate(462.889 88.556)">item 1</text><text y="23" font-family="Virgil, Segoe UI Emoji" font-size="20" style="white-space:pre" transform="translate(459.556 128.556)">item 2</text><text y="23" font-family="Virgil, Segoe UI Emoji" font-size="20" style="white-space:pre" transform="translate(459.556 164.111)">item 3</text><g fill="none"><path d="M430.013 212.544c1.6-1.231 2.06-2.728 5.743-4.846m-5.498 5.885c1.95-2.139 3.736-4.315 5.248-6.703m-6.31 10.683c4.79-2.575 8.92-9.107 11.907-11.047m-10.148 12.475c3.299-5.269 8.134-9.687 10.46-11.519m-10.443 19.657c4.503-6.32 5.335-10.811 16.347-20.027m-16.56 17.455c6.016-5.13 11.22-12.399 15.623-16.72m-15.25 22.905c7.636-6.766 13.061-17.486 20.63-23.25m-20.42 22.97c4.59-5.7 11.533-12.264 20.81-22.719m-18.788 26.063c7.89-8.512 13.36-13.073 22.932-27.478m-22.512 28.232c4.636-6.413 8.817-11.196 23.645-28.07m-19.319 29.428c3.553-5.788 11.79-13.147 19.015-24.279m-18.118 23.894c4.94-8.528 12.417-15.46 18.36-22.169m-14.982 22.296c5.516-4.207 4.94-7.33 15.508-16.981m-13.564 15.528c4.077-3.884 6.88-9.2 11.901-13.512m-8.681 14.843c2.25-4.178 4.777-5.154 9.745-10.22m-8.777 8.82c3.79-3.115 6.326-5.894 8.586-8.484M435.758 231.589c-.87-1.07-4.225-3.472-5.082-5.068m5.524 5.443c-1.733-1.739-4.692-4.086-5.389-5.421m11.769 6.058c-3.075-3.576-7.118-7.894-13.019-9.915m12.904 10.268c-2.192-2.821-6.006-5.58-11.116-11.485m18.54 12.066c-7.926-9.128-15.414-14.361-19.336-16.805m17.835 15.144c-5.113-5.723-11.395-9.76-17.113-16.277m24.003 17.518c-5.915-4.04-10.566-9.8-24.945-20.444m24.503 19.723c-8.88-8.864-19.834-16.758-23.115-20.78m25.675 19.425c-6.027-8.564-14.051-14.281-25.553-24.165m25.882 23.815c-9.393-10.558-19.008-18.716-26.636-23.798m26.511 18.196c-3.735-7.462-11.035-11.895-18.297-17.73m19.586 17.405c-5.431-5.746-11.904-8.783-21.432-19.33m20.755 12.675c-6.024-2.28-10.273-8.407-13.862-10.21m13.366 10.716c-3.68-2.96-8.335-7.45-14.16-12.834m13.973 8.612c-3.533-3.25-6.888-6.493-7.053-7.52m7.62 6.594c-2.222-2.49-4.61-3.373-8.637-7.662" stroke="#fd7e14" stroke-width=".5"/><path d="M431.407 208.02c8.147-2.377 19.855.728 23.938.232m-25.378-.577c8.9-1.082 16.082.359 24.882.116m2.09-2.193c-1.757 11.411-1.061 17.796-1.762 26.83m.726-25.18c.706 5.406-.311 13.046.705 24.27m.27 2.452c-7.335-3.395-10.243.276-26.136-1.627m25.887-1.07c-9.77.797-17.828.726-25.431 1.451m-.266.247c.717-6.09.673-15.327.392-25.302m-1.137 24.032c.897-5.434.88-10.234.928-24.237" stroke="#000"/></g><text y="23" font-family="Virgil, Segoe UI Emoji" font-size="20" style="white-space:pre" transform="translate(461.833 205.222)">item 4</text></svg>