<?xml version="1.0" encoding="UTF-8"?><svg id="Layer_2" xmlns="http://www.w3.org/2000/svg" viewBox="0 0 733.42 549.79"><defs><style>.cls-1{fill:#2d93d1;}.cls-2{fill:#d0d2d8;}.cls-3{stroke:#3093d1;}.cls-3,.cls-4,.cls-5,.cls-6,.cls-7,.cls-8,.cls-9,.cls-10,.cls-11{fill:none;}.cls-3,.cls-4,.cls-5,.cls-7,.cls-12,.cls-9,.cls-10{stroke-miterlimit:10;}.cls-4{stroke:#fff;}.cls-13{fill:#e6e7eb;}.cls-5,.cls-12{stroke:#323634;}.cls-6{stroke-width:.5px;}.cls-6,.cls-8,.cls-9{stroke:#1d1d1b;}.cls-6,.cls-8,.cls-11{stroke-linecap:round;stroke-linejoin:round;}.cls-7,.cls-11{stroke:#2d93d1;}.cls-14{fill:#fbfbfc;}.cls-15{fill:#fafafb;}.cls-12{fill:#c5c7ce;}.cls-16{fill:#fff;}.cls-17{fill:#74cbed;}.cls-18{opacity:.55;}.cls-10{stroke:#c4c6cd;}.cls-19{fill:#a3a7ae;}</style></defs><path class="cls-14" d="M119.33,333.18c6.78,0,23.83-2.29,35.43-5.18,20.37-5.07,31.18-7.88,39.33-10.31,8.55-2.55,10-3.92,48.83-19.02,32.08-12.47,25.59-10.76,31.21-12.76,10.79-3.84,34.64-13.19,50.96-17.96,17.22-5.03,30.9-9.63,41.87-12.15,22.05-5.06,20.88-5.05,36.48-8.22,18.34-3.72,22.64-4.1,33.52-4.83,12.88-.87,23.18-.39,31.1-.32l-1.64,162.41-.07.03.07-.03,9.07-3.97c.14-36.76.28-73.52.42-110.28.03-5.59.05-11.17.07-16.76v-.66c.04-11.61.09-23.23.13-34.85v-.46c.19-47.65.37-95.31.55-142.96,15.99-.25,31.98-.49,47.98-.73v-.34l-49.15-15.93-336.1,15.72c-1.47,0-2.84.07-4.11.19-.02.01-.04.01-.06.01-15.98,1.64-16.14,12.75-16.02,16.38v.15c.01.28.02.51.02.68,0,.02-.01.04-.02.06.04,73.07.08,146.15.12,219.22"/><path class="cls-2" d="M621.84,222.03v115.51l-11.67,10.46-.21.19-5.45,4.88h0s-.22.2-.22.2l-.23.21-36.42,32.64-16.68,14.94v-127.04h-3c-.06-10.82-.12-21.63-.18-32.45,72.81-19.11,74.06-19.54,74.06-19.54Z"/><path class="cls-15" d="M621.84,111.41v110.62s-1.25.43-74.06,19.54v-.37c-.27-49.06-.54-98.12-.82-147.18l74.88,17.39Z"/><path class="cls-15" d="M610.17,348v14.82c0,1.56-5.66,4.08-5.66,2.65v-12.39h0s5.45-4.89,5.45-4.89l.21-.19Z"/><path class="cls-15" d="M466.25,405.03l9.07-3.97,69.17,4s6.47,1.18,6.47-5.05v1.05l16.68-14.94.07.08.12,14.86-20.87,21.86-457.03-37.01v-14.61l29.25,3.46v-.15c.39,5.06.23,3.94.48,4.14h0s346.59,26.28,346.59,26.28Z"/><path class="cls-19" d="M487.39,348.41v45.35c-.05,1.55,5.31,1.78,5.31,1.78,2.1,0,4.33.06,6.34-.12.95-.08,3.63-.7,3.63-1.66v-45.26c-1.4-1.22-2.59-1.28-2.59-1.28-1.35-.1-1.65-.07-2.57-.13-.35-.03-1.19,0-2.28,0h-2.03c-1.22.01-1.69-.01-2.08,0-.81.02-2.89.46-3.65,1.43-.03-.04-.05-.07-.08-.11ZM550.96,289v111.01c0,6.23-6.47,5.05-6.47,5.05l-69.17-4c.14-36.76.28-73.52.42-110.28.03-5.59.05-11.17.07-16.76h1.05v14.48l74.1.5Z"/><path class="cls-19" d="M550.96,274.02v14.98l-74.1-.5v-14.48h74.1Z"/><path class="cls-2" d="M485.16,238.89c1.2.05,2.4.1,3.62.15l59,2.53c.06,10.82.12,21.63.18,32.45h-72.15v-.66c.04-11.61.09-23.23.13-34.85,0-.15.01-.31.01-.46l71.83,3.15v.37c-4.97-.22-9.94-.44-14.91-.67-6.33-.28-12.66-.56-18.99-.85-7.57-.34-16.56-.67-25.1-1.01l-3.62-.15Z"/><path class="cls-15" d="M546.96,94.02c.28,49.06.55,98.12.82,147.18l-71.83-3.15c.18-47.65.36-95.31.54-142.96,23.49-.36,46.98-.71,70.47-1.07Z"/><path class="cls-2" d="M547.78,241.57l-59-2.53c8.54.34,17.53.67,25.1,1.01,6.33.29,12.66.57,18.99.85,4.97.23,9.94.45,14.91.67Z"/><path class="cls-19" d="M493.8,349.94c.55,0,.76,0,1.43,0,1.09,0,1.93.03,2.28,0,.92-.06,1.22-.03,2.57-.12,0,0,1.19-.07,2.59-1.29v45.23c0,.96-2.68,1.58-3.63,1.66-2.01.18-4.24.12-6.34.12,0,0-5.36-.23-5.31-1.78v-45.14s.05-.07.08-.1c.78.96,2.84,1.41,3.65,1.42.39,0,.86-.01,2.08,0h.6Z"/><path class="cls-19" d="M502.67,348.5v.03c-1.4,1.22-2.59,1.29-2.59,1.29-1.35.09-1.65.06-2.57.12-.35.03-1.19,0-2.28,0-.67,0-.88,0-1.43,0l-.02-2.85h1.45c1.09,0,1.93-.03,2.28,0,.92.06,1.22.03,2.57.13,0,0,1.19.06,2.59,1.28Z"/><path class="cls-19" d="M493.78,347.09l.02,2.85h-.6c-1.22-.01-1.69,0-2.08,0-.81-.01-2.87-.46-3.65-1.42.76-.97,2.84-1.41,3.65-1.43.39-.01.86.01,2.08,0h.58Z"/><path class="cls-2" d="M485.16,238.89l3.62.15c-1.22-.05-2.42-.1-3.62-.15Z"/><path class="cls-1" d="M470.2,183.22v27.38H129.65v-25.46l340.55-1.92ZM443.59,197.05c0-4.31-3.36-7.8-7.5-7.8s-7.5,3.49-7.5,7.8,3.36,7.81,7.5,7.81,7.5-3.5,7.5-7.81Z"/><path class="cls-2" d="M467.89,242.62l-1.64,162.41-346.59-26.27h0c-.25-.21-.09.91-.48-4.15-.01-13.75-.02-27.49-.02-41.24,6.78,0,23.83-2.29,35.43-5.18,20.37-5.07,31.18-7.88,39.33-10.31,8.55-2.55,10-3.92,48.83-19.02,32.08-12.47,25.59-10.76,31.21-12.76,10.79-3.84,34.64-13.19,50.96-17.96,17.22-5.03,30.9-9.63,41.87-12.15,22.05-5.06,20.88-5.05,36.48-8.22,18.34-3.72,22.64-4.1,33.52-4.83,12.88-.87,23.18-.39,31.1-.32Z"/><path class="cls-13" d="M436.09,189.25c4.14,0,7.5,3.49,7.5,7.8s-3.36,7.81-7.5,7.81-7.5-3.5-7.5-7.81,3.36-7.8,7.5-7.8ZM441.46,197.05c0-2.97-2.4-5.38-5.37-5.38s-5.38,2.41-5.38,5.38,2.41,5.38,5.38,5.38,5.37-2.41,5.37-5.38Z"/><path class="cls-13" d="M436.09,191.67c2.97,0,5.37,2.41,5.37,5.38s-2.4,5.38-5.37,5.38-5.38-2.41-5.38-5.38,2.41-5.38,5.38-5.38Z"/><path class="cls-15" d="M119.18,374.61v.15l-29.25-3.46-12.98-1.54V118.2c0-2.28.02-3.21.67-4.55.52-1.05,2.19-1.91,2.19-1.91.85-.27,2.35-.32,3.01-.33h35.61c.16,0,.51-.02.6-.13.04,73.07.08,146.15.12,219.22v2.87c.01,13.75.02,27.49.03,41.24Z"/><path class="cls-16" d="M119.16,333.37c0,13.75.01,27.49.02,41.24-.01-13.75-.02-27.49-.03-41.24h.01Z"/><path class="cls-16" d="M119.15,330.5c.01.96.01,1.91.01,2.87h-.01v-2.87Z"/><line class="cls-4" x1="467.89" y1="242.62" x2="466.25" y2="405.03"/><path class="cls-7" d="M119.16,333.37c6.78,0,23.83-2.29,35.43-5.18,20.37-5.07,31.18-7.88,39.33-10.31,8.55-2.55,10-3.92,48.83-19.02,32.08-12.47,25.59-10.76,31.21-12.76,10.79-3.84,34.64-13.19,50.96-17.96,17.22-5.03,30.9-9.63,41.87-12.15,22.05-5.06,20.88-5.05,36.48-8.22,18.34-3.72,22.64-4.1,33.52-4.83,12.88-.87,23.18-.39,31.1-.32"/><line class="cls-9" x1="134.78" y1="94.02" x2="135.05" y2="94.01"/><line class="cls-9" x1="135.11" y1="94" x2="139.22" y2="93.81"/><line class="cls-9" x1="139.22" y1="93.81" x2="475.32" y2="78.09"/><line class="cls-9" x1="76.95" y1="369.76" x2="76.95" y2="118.2"/><path class="cls-9" d="M119.15,330.5c.01.96.01,1.91.01,2.87,0,13.75.01,27.49.02,41.24v.15"/><path class="cls-9" d="M119.03,110.54v.74"/><path class="cls-9" d="M119.03,111.28c.04,73.07.08,146.15.12,219.22"/><path class="cls-9" d="M119.18,374.61c-.01-13.75-.02-27.49-.03-41.24v-2.87"/><path class="cls-9" d="M83.11,111.41h35.32c.16,0,.51-.02.6-.13.01-.02.02-.04.02-.06,0-.17-.01-.4-.02-.68v-.15c-.12-3.63.04-14.74,16.02-16.38.02,0,.04,0,.06,0,1.27-.12,2.64-.19,4.11-.19"/><polyline class="cls-9" points="76.95 369.76 89.93 371.3 119.18 374.76"/><polyline class="cls-9" points="119.52 378.75 119.66 378.76 466.25 405.03 466.52 405.05"/><path class="cls-7" d="M547.78,241.57c72.81-19.11,74.06-19.54,74.06-19.54"/><line class="cls-9" x1="129.65" y1="210.6" x2="129.65" y2="185.14"/><line class="cls-9" x1="470.2" y1="210.6" x2="470.2" y2="183.22"/><line class="cls-9" x1="129.65" y1="210.6" x2="470.2" y2="210.6"/><line class="cls-9" x1="470.2" y1="183.22" x2="129.65" y2="185.14"/><line class="cls-5" x1="524.46" y1="94.02" x2="475.32" y2="78.09"/><path class="cls-8" d="M547.78,241.2v.37"/><path class="cls-11" d="M485.16,238.89c1.2.05,2.4.1,3.62.15,8.54.34,17.53.67,25.1,1.01,6.33.29,12.66.57,18.99.85,4.97.23,9.94.45,14.91.67"/><path class="cls-11" d="M482.23,238.77c.5.02,1.01.04,1.52.06"/><line class="cls-11" x1="482.23" y1="238.77" x2="476.39" y2="238.52"/><line class="cls-11" x1="485.16" y1="238.89" x2="483.75" y2="238.83"/><path class="cls-8" d="M475.95,238.05c.18-47.65.36-95.31.54-142.96,23.49-.36,46.98-.71,70.47-1.07.28,49.06.55,98.12.82,147.18"/><path class="cls-8" d="M475.94,238.51c0-.15.01-.31.01-.46"/><path class="cls-8" d="M475.81,273.36c.04-11.61.09-23.23.13-34.85"/><path class="cls-8" d="M475.74,290.78c.03-5.59.05-11.17.07-16.76v-.66"/><path class="cls-8" d="M475.32,401.06c.14-36.76.28-73.52.42-110.28"/><path class="cls-8" d="M550.96,401.06v-1.05c0,6.23-6.47,5.05-6.47,5.05l-69.17-4"/><line class="cls-8" x1="550.96" y1="289" x2="550.96" y2="400.01"/><line class="cls-8" x1="476.86" y1="288.5" x2="550.96" y2="289"/><line class="cls-8" x1="476.86" y1="274.02" x2="476.86" y2="288.5"/><polyline class="cls-8" points="475.81 274.02 476.86 274.02 545.69 274.02"/><line class="cls-8" x1="547.96" y1="274.02" x2="545.69" y2="274.02"/><line class="cls-8" x1="550.96" y1="274.02" x2="548.58" y2="274.02"/><path class="cls-8" d="M547.96,274.02h.62"/><line class="cls-8" x1="550.96" y1="274.02" x2="550.96" y2="289"/><line class="cls-9" x1="546.96" y1="422.92" x2="89.93" y2="385.91"/><line class="cls-9" x1="89.93" y1="371.3" x2="89.93" y2="385.91"/><polyline class="cls-9" points="475.32 401.06 466.25 405.03 466.18 405.06"/><line class="cls-9" x1="567.83" y1="401.06" x2="546.96" y2="422.92"/><line class="cls-9" x1="621.84" y1="111.41" x2="546.96" y2="94.02"/><polyline class="cls-9" points="604.06 353.48 567.64 386.12 550.96 401.06"/><polyline class="cls-9" points="609.96 348.19 604.51 353.07 604.51 353.08 604.29 353.27 604.06 353.48"/><polyline class="cls-9" points="621.84 337.54 610.17 348 609.96 348.19"/><polyline class="cls-9" points="621.84 111.41 621.84 222.03 621.84 337.54"/><path class="cls-9" d="M443.59,197.05c0,4.31-3.36,7.81-7.5,7.81s-7.5-3.5-7.5-7.81,3.36-7.8,7.5-7.8,7.5,3.49,7.5,7.8Z"/><line class="cls-10" x1="285.68" y1="390.83" x2="285.68" y2="348.53"/><line class="cls-10" x1="398.99" y1="399.45" x2="399.99" y2="350.97"/><path class="cls-8" d="M547.78,241.57c.06,10.82.12,21.63.18,32.45"/><line class="cls-10" x1="288.64" y1="345.06" x2="397.44" y2="348.53"/><path class="cls-9" d="M76.95,118.2c0-2.28.02-3.21.67-4.55.52-1.05,2.19-1.91,2.19-1.91.85-.27,2.35-.32,3.01-.33h.29"/><line class="cls-8" x1="549.24" y1="406.51" x2="546.96" y2="420.23"/><path class="cls-9" d="M119.66,378.75c-.25-.2-.09.92-.48-4.14"/><polyline class="cls-9" points="567.71 386.2 567.83 401.06 567.83 401.31"/><line class="cls-9" x1="604.51" y1="353.08" x2="604.51" y2="365.47"/><line class="cls-9" x1="610.17" y1="362.82" x2="610.17" y2="348"/><path class="cls-9" d="M604.51,365.47c0,1.43,5.66-1.09,5.66-2.65"/><polyline class="cls-9" points="493.84 359.1 493.8 349.94 493.78 347.09 493.5 289"/><line class="cls-9" x1="493.93" y1="377.44" x2="493.85" y2="360.1"/><polyline class="cls-9" points="487.39 393.76 487.39 348.62 487.39 348.41 487.39 348.18"/><path class="cls-9" d="M487.39,393.76c-.05,1.55,5.31,1.78,5.31,1.78,2.1,0,4.33.06,6.34-.12.95-.08,3.63-.7,3.63-1.66v-45.58"/><path class="cls-10" d="M285.68,348.53c0-3.52,1.34-3.53,2.5-3.48.16.01.31.01.46.01.1,0,.2,0,.29-.01"/><path class="cls-10" d="M397.18,348.55c3.61,0,2.65,2.44,2.73,3.75"/><path class="cls-4" d="M441.46,197.05c0,2.97-2.4,5.38-5.37,5.38s-5.38-2.41-5.38-5.38,2.41-5.38,5.38-5.38,5.37,2.41,5.37,5.38Z"/><path class="cls-9" d="M487.39,348.41s.05.07.08.11c.78.96,2.84,1.41,3.65,1.42.39,0,.86-.01,2.08,0h.6c.55,0,.76,0,1.43,0,1.09,0,1.93.03,2.28,0,.92-.06,1.22-.03,2.57-.12,0,0,1.19-.07,2.59-1.29"/><path class="cls-9" d="M487.39,348.62s.05-.07.08-.1c.76-.97,2.84-1.41,3.65-1.43.39-.01.86.01,2.08,0h2.03c1.09,0,1.93-.03,2.28,0,.92.06,1.22.03,2.57.13,0,0,1.19.06,2.59,1.28"/><path class="cls-12" d="M77.06,351.59v18.09l12.98,1.54,29.25,3.46v-.15c-.01-13.75-.02-27.49-.03-41.24v-2.87h-.29c-.72,0-2.18.71-3.26,1.01-2.15.59-3.55,1.14-6.38,1.68-5.82,1.09-5.9,1.53-8.29,2.25-2.38.73-4.93,1.34-7.63,2.63-2.92,1.39-4.1,2.54-6.39,4.1-2.09,1.41-5.04,3.77-7.95,7.54l-1.48,1.96"/><g class="cls-18"><path class="cls-17" d="M497.89,359.6v32.07c0,.34-1.31.73-1.76.74-.41.02-1.19,0-1.61,0s-.68.01-1.13.01h-2.45c-.09,0-1.15-.31-1.15-.54v-32.28h8.1Z"/><rect class="cls-16" x="489.79" y="335.73" width="8.1" height="23.87"/><polyline class="cls-9" points="489.79 391.88 489.79 359.6 489.79 335.73 497.89 335.73 497.89 359.6 497.89 391.67"/><line class="cls-9" x1="489.79" y1="359.6" x2="497.89" y2="359.6"/><path class="cls-9" d="M497.89,391.67c0,.34-1.31.73-1.76.74-.41.02-1.19,0-1.61,0s-.68.01-1.13.01h-2.45c-.09,0-1.15-.31-1.15-.54"/></g><path class="cls-6" d="M77.48,351.67l1.48-1.96c2.91-3.77,5.86-6.13,7.95-7.54,2.29-1.56,3.47-2.71,6.39-4.1,2.7-1.29,5.25-1.9,7.63-2.63,2.39-.72,2.47-1.16,8.29-2.25,2.83-.54,4.23-1.09,6.38-1.68,1.08-.3,2.54-1.01,3.26-1.01"/><path class="cls-3" d="M77.48,351.67l1.48-1.96c2.91-3.77,5.86-6.13,7.95-7.54,2.29-1.56,3.47-2.71,6.39-4.1,2.7-1.29,5.25-1.9,7.63-2.63,2.39-.72,2.47-1.16,8.29-2.25,2.83-.54,4.23-1.09,6.38-1.68,1.08-.3,2.54-1.01,3.26-1.01"/></svg>
