<?xml version="1.0" encoding="UTF-8"?><svg id="Layer_2" xmlns="http://www.w3.org/2000/svg" viewBox="0 0 35.13 180.94"><defs><style>.cls-1{fill:#4d4d4d;}.cls-1,.cls-2,.cls-3,.cls-4,.cls-5,.cls-6{stroke-width:0px;}.cls-2{fill:#ff7bac;}.cls-3{fill:#666;}.cls-4{fill:#0071bc;opacity:.75;}.cls-5{fill:#8c6239;}.cls-7{opacity:.8;}.cls-6{fill:#c1272d;}</style></defs><g id="Layer_1-2"><g class="cls-7"><path class="cls-2" d="M7.48,150.64s0-.04-.04-.08c-.68-8.68-1.09-17.33-1.17-26.01h.04c7.49-.12,14.99-.25,22.44-.37.81,7.37,1.09,14.73.89,21.98h-.4c-.32,3.17-.89,6.34-1.69,9.43l.85.25c-1.49,4.98-2.82,10-4.03,15.02l-.89-.21c-.48,2.1-1.21,4.16-2.14,6.13l-.36-.12c-.4,1.19-.97,2.3-1.61,3.33l-2.54.08c-.81-.66-1.49-1.69-1.97-2.59-3.34-6.75-5.64-14.08-6.69-21.57-.2-1.4-.36-2.8-.6-4.2-.08-.37-.08-.7-.08-1.07Z"/><path class="cls-2" d="M7.48,150.64c0,.37,0,.7.08,1.07-.24-1.03-.52-2.06-.93-3,.36.58.64,1.19.81,1.85.04.04.04.08.04.08Z"/></g><g class="cls-7"><path class="cls-6" d="M7.36,153.19c6.9-.1,13.79-.75,20.59-1.93.25,1.74-1.24,8.03-1.94,9.77-1.54,3.84-.73,2.92-1.85,6.94-.53,1.9-.96,3.72-1.54,5.6-.42,1.36-1.29,2.66-1.97,3.9s-2.34,2.11-3.47,1.28c-.47-.35-1.3-.65-1.55-1.18-3.24-6.98-5.88-14.48-7.27-21.98-.17-.93-.2-2.27.71-2.36"/></g><g class="cls-7"><path class="cls-5" d="M28.91,120.32c.04,1.12-.17,2.52-.21,3.48-7.42.17-14.79.28-22.16.45v-.06c.47-1.18-.13-2.24.3-3.42,6.82-.11,14.83-.28,21.65-.45h.43Z"/></g><path class="cls-4" d="M1.73,15.79h32.43c.49,0,.89-.4.89-.89V2.16c0-.23-.09-.46-.26-.63l-1.04-1.04c-.17-.17-.39-.26-.63-.26H2.77c-.23,0-.46.09-.63.26l-1.04,1.04c-.17.17-.26.39-.26.63v12.74c0,.49.4.89.89.89Z"/><path class="cls-1" d="M.71,1.95c-.22,2.81-.13,5.67-.13,8.49,0,1.39,0,2.79.04,4.18.01.53.09,1.3.75,1.36.04,0,.04-.06,0-.06-.77-.08-.69-1.15-.7-1.67-.01-.57-.02-1.15-.03-1.72-.02-1.19-.03-2.38-.02-3.57,0-2.34.16-4.68.14-7.01,0-.02-.03-.02-.03,0h0Z"/><path class="cls-1" d="M1.3,15.92c1.94.18,3.92.19,5.86.06.01,0,.01-.02,0-.02-1.96.07-3.9.05-5.86-.04,0,0,0,0,0,0h0Z"/><path class="cls-1" d="M34.84,14.3s0-.01,0-.01,0,.01,0,.01h0Z"/><path class="cls-1" d="M34.95,13.71c-.19.33-.19.66-.28,1.02-.16.61-.64.9-1.23,1-.89.16-1.85.02-2.74,0-2.1-.06-4.21-.08-6.31-.08-4.16.01-8.33.13-12.49.4-.03,0-.03.04,0,.04,4.49-.25,8.98-.4,13.48-.39,2.23,0,4.45.04,6.68.11.65.02,1.41.08,2.01-.24.75-.4.54-1.19.89-1.85,0,0,0-.02-.01,0h0Z"/><path class="cls-1" d="M34.91,13.92v-.06s-.01,0-.01,0v.06s.01,0,.01,0h0Z"/><path class="cls-1" d="M34.95,12.87c-.05-.16-.06-.34-.03-.5,0-.01-.02-.02-.02,0-.03.17-.02.35.04.51,0,0,0,0,0,0h0Z"/><path class="cls-1" d="M35.01,12.68c-.03-.68-.1-1.35-.15-2.03s-.09-1.35-.15-2.03c0-.02-.03-.02-.03,0,.04.68.1,1.35.15,2.03s.08,1.35.16,2.03c0,.01.02.01.02,0h0Z"/><path class="cls-1" d="M34.87,9.12c.24-1.73.23-3.5.08-5.24,0,0,0,0,0,0,.14,1.75.07,3.49-.09,5.24,0,0,0,0,0,0h0Z"/><path class="cls-1" d="M35.04,3.14c0-.21,0-.42,0-.62,0-.01-.02-.01-.02,0,0,.21,0,.42,0,.62,0,.02.03.02.03,0h0Z"/><path class="cls-1" d="M34.97,1.32c-.14-.06-.25-.17-.32-.3,0-.01-.02,0-.02,0,.07.14.19.25.33.31,0,0,.01-.01,0-.01h0Z"/><path class="cls-1" d="M34.94,3.25c.17-.63.04-1.31-.36-1.83-.37-.48-.95-.79-1.56-.83-.03,0-.03.05,0,.05.6.05,1.18.35,1.54.84s.49,1.16.34,1.76c0,.02.03.03.03,0h0Z"/><path class="cls-1" d="M2.79.15c1.21.01,2.41.01,3.62,0,.01,0,.01-.02,0-.02-1.21,0-2.41,0-3.62,0,0,0,0,.01,0,.01h0Z"/><path class="cls-1" d="M7.1.14c7,.02,14.01.03,21.01-.02.03,0,.03-.05,0-.05-7-.03-14.01.01-21.01.05,0,0,0,.01,0,.01h0Z"/><path class="cls-1" d="M29.04.15c1.08,0,2.16.06,3.24.15.02,0,.02-.02,0-.03-1.08-.11-2.16-.14-3.24-.13,0,0,0,.01,0,.01h0Z"/><path class="cls-1" d="M2.36.34C1.6.87.84,1.39.04,1.87c-.01,0,0,.03.01.02.8-.46,1.59-.97,2.32-1.55,0,0,0-.01,0-.01h0Z"/><path class="cls-1" d="M28.01,155.11c.85-3.1,1.45-6.25,1.74-9.45,0-.05-.07-.04-.07,0-.34,3.18-.89,6.34-1.7,9.44,0,.02.03.03.03,0h0Z"/><path class="cls-1" d="M6.96,146.77c-.35-17.04-.63-34.08-.82-51.12-.19-16.95-.3-33.9-.33-50.85-.02-9.56,0-19.12.03-28.69,0-.05-.07-.05-.07,0-.07,17.04-.07,34.08.02,51.11.09,16.95.25,33.9.5,50.85.14,9.56.31,19.13.5,28.69,0,.11.17.11.16,0h0Z"/><path class="cls-1" d="M29.06,16.53c.19,16.24.31,32.47.34,48.71s-.02,32.47-.15,48.7c-.07,9.16-.18,18.31-.3,27.47,0,.07.1.07.11,0,.24-16.23.4-32.47.47-48.7s.08-32.47,0-48.71c-.05-9.16-.12-18.32-.22-27.48,0-.16-.25-.16-.25,0h0Z"/><path class="cls-1" d="M6.35,147.79c.64.98,1.12,2.07,1.34,3.23,0,.03.05.02.05-.01-.2-1.17-.64-2.28-1.37-3.23,0,0-.02,0-.02,0h0Z"/><path class="cls-1" d="M6.42,147.8c1.04,2.36,1.34,4.89,1.69,7.42s.84,5,1.47,7.46c1.24,4.89,3.02,9.65,5.29,14.15.76,1.52,2.17,3.85,4.21,3.42.08-.02.06-.15-.02-.14-2.3.07-3.45-2.2-4.33-3.98-1.11-2.23-2.09-4.53-2.95-6.87-1.66-4.55-2.84-9.28-3.51-14.08-.35-2.51-.6-5.12-1.8-7.41-.01-.03-.05,0-.04.02h0Z"/><path class="cls-1" d="M19.65,179.53c.05-.06.11-.08.16-.13.06-.05.1-.12.14-.18.11-.15.21-.31.3-.47.19-.33.37-.67.54-1.01.32-.66.55-1.37.74-2.08.02-.07-.08-.1-.11-.03-.25.7-.56,1.38-.88,2.04-.16.32-.33.64-.51.95-.09.16-.18.32-.28.48-.04.07-.09.13-.11.21-.02.06-.02.12-.05.18-.01.03.02.06.05.04h0Z"/><path class="cls-1" d="M21.69,176.3c1.34-2.59,2.13-5.42,2.61-8.29,0-.01-.01-.02-.02,0-.51,2.87-1.47,5.61-2.63,8.27-.01.02.02.04.04.02h0Z"/><path class="cls-1" d="M24.93,165.17c.37-1.38.73-2.76,1.1-4.14,0-.02-.02-.03-.03,0-.36,1.38-.72,2.76-1.08,4.14,0,0,0,.01.01,0h0Z"/><path class="cls-1" d="M23.92,171.65c.92-3.38,1.69-6.79,2.6-10.17s1.86-6.75,2.88-10.09c0-.02-.03-.03-.03,0-1.04,3.34-2.04,6.7-2.95,10.07s-1.84,6.76-2.51,10.2c0,0,.01.01.02,0h0Z"/><path class="cls-1" d="M28.99,151.48c.22-.49.41-.99.6-1.49,0-.02-.02-.03-.03,0-.2.49-.42.99-.59,1.49,0,0,.01.02.02,0h0Z"/><path class="cls-1" d="M20.5,41.64c2.52-.38,5.06-.41,7.59-.23.06,0,.06-.09,0-.09-1.28-.16-2.59-.18-3.88-.13-.63.02-1.27.07-1.9.14s-1.21.18-1.82.3c-.01,0,0,.02,0,.02h0Z"/><path class="cls-1" d="M19.46,66.79c1.42-.29,2.84-.55,4.29-.63s2.89.02,4.32.23c.07,0,.1-.09.03-.1-2.81-.5-5.92-.44-8.65.47-.01,0,0,.02,0,.02h0Z"/><path class="cls-1" d="M21.52,90.63c2.53-.09,5.07-.2,7.59-.41.05,0,.05-.08,0-.08-2.54.09-5.07.27-7.59.47-.01,0-.01.02,0,.02h0Z"/><path class="cls-1" d="M24.28,45.67c.41.02.82.06,1.23.06h.62c.19,0,.39.01.58-.02.04,0,.04-.08,0-.08-.19-.03-.39-.02-.58-.02h-.62c-.41,0-.82.03-1.23.06,0,0,0,0,0,.01h0Z"/><path class="cls-1" d="M23.6,48.72c1.04.14,2.07.28,3.11.35.03,0,.03-.05,0-.05-1.04-.15-2.07-.24-3.12-.32-.01,0-.02.02,0,.02h0Z"/><path class="cls-1" d="M23.94,53.28c.5-.15,1.04-.22,1.56-.27s1.03-.04,1.54-.02c.07,0,.09-.12.02-.13-.53-.09-1.06-.07-1.59-.01-.25.03-.51.07-.75.15-.27.08-.52.18-.78.28,0,0,0,.02,0,.01h0Z"/><path class="cls-1" d="M24.63,57.43c.41.02.82.05,1.23.05.21,0,.41,0,.62,0s.39,0,.58-.03c.05,0,.05-.09,0-.1-.19-.03-.39-.03-.58-.03-.21,0-.41,0-.62,0-.41,0-.82.03-1.23.05-.03,0-.03.04,0,.04h0Z"/><path class="cls-1" d="M24.28,61.91c.41,0,.81.04,1.22.04s.81,0,1.22,0c.06,0,.06-.09,0-.09h-.72c-.05,0-.05.09,0,.09h.72c.06,0,.06-.09,0-.09-.41,0-.81-.01-1.22,0s-.81.04-1.22.04c-.02,0-.02.02,0,.03h0Z"/><path class="cls-1" d="M23.94,70.89c.69.02,1.38.03,2.07.03s1.38.02,2.07-.02c.03,0,.03-.04,0-.05-.69-.04-1.38-.02-2.07-.02s-1.38.01-2.07.03c-.02,0-.02.02,0,.03h0Z"/><path class="cls-1" d="M23.94,75.45c1.16-.07,2.31-.19,3.46-.31.03,0,.04-.06,0-.06-1.15.1-2.31.18-3.46.33-.02,0-.02.03,0,.03h0Z"/><path class="cls-1" d="M24.63,79.53c.12-.02.23,0,.35-.01.09,0,.18-.02.28-.03l.59-.09c.4-.06.8-.12,1.2-.21.05-.01.04-.09-.01-.09-.41.03-.82.11-1.22.17l-.61.1c-.1.02-.21.03-.3.06-.03,0-.04.01-.06.02-.07.03-.13.04-.21.06-.01,0,0,.02,0,.02h0Z"/><path class="cls-1" d="M24.63,83.34c.52.02,1.04.03,1.55.04s1.04.03,1.55-.03c.03,0,.03-.05,0-.05-.51-.06-1.04-.03-1.55-.03s-1.04.01-1.55.04c-.02,0-.02.04,0,.04h0Z"/><path class="cls-1" d="M25.66,95.02c.06.01.11.02.16.02h.18c.06,0,.12,0,.18,0s.12,0,.18-.01c.03,0,.03-.04,0-.04-.06,0-.12,0-.18-.01s-.12,0-.18,0h-.18c-.06,0-.11.01-.16.02,0,0,0,.01,0,.01h0Z"/><path class="cls-1" d="M26.36,79.57h.35s.06.01.09.01c.01,0,.03,0,.04,0,.02,0,.03.01.05.01.02,0,.05,0,.08,0h.09s.02-.04,0-.04h-.09s-.05-.02-.08-.01c-.01,0-.02.01-.03.01-.01,0-.03,0-.05,0h-.09c-.12,0-.23,0-.35,0,0,0,0,0,0,0h0Z"/><path class="cls-1" d="M25.66,105.76c.12,0,.23.02.35.01h.35c.05-.02.05-.1,0-.1h-.35c-.12-.02-.23,0-.35,0-.06,0-.06.08,0,.09h0Z"/><path class="cls-1" d="M24.29,102.02c.7-.11,1.41.02,2.05.31.04.02.07-.04.03-.06-.63-.38-1.39-.47-2.1-.31-.04,0-.02.06.02.06h0Z"/><path class="cls-1" d="M23.94,104.4h.69c.23,0,.46.02.69,0,.02,0,.02-.03,0-.03-.23-.03-.46,0-.69,0h-.69s-.02.04,0,.04h0Z"/><path class="cls-1" d="M24.99,106.09c.23.12.46.23.69.35.01,0,.02-.01.01-.02-.23-.12-.46-.24-.69-.35-.02,0-.03.02-.01.02h0Z"/><path class="cls-1" d="M25.66,113.36h1.04s.01-.02,0-.03h-1.04s-.02.03,0,.03h0Z"/><path class="cls-3" d="M6.97,124.38c3.6,0,7.21-.1,10.82-.15s7.21-.04,10.81-.18c.06,0,.04-.09,0-.09-3.6-.02-7.21.12-10.81.18s-7.21.09-10.81.21c-.02,0-.01.02,0,.02h0Z"/><path class="cls-3" d="M15.86,152.97c2.09-.29,4.18-.65,6.27-.98s4.19-.61,6.26-1c.04,0,.03-.07,0-.06-2.06.27-4.1.65-6.15.98s-4.26.65-6.38,1.04c-.01,0,0,.02,0,.02h0Z"/><path class="cls-3" d="M20.48,120.26c.53.07,1.09,0,1.62,0,.6,0,1.2,0,1.8.01,1.14.02,2.29.08,3.43.12.05,0,.07-.08.01-.09-1.16-.11-2.33-.15-3.49-.16-.54,0-1.09,0-1.63,0-.57,0-1.18-.03-1.74.08-.01,0-.02.03,0,.03h0Z"/><path class="cls-3" d="M12.51,13.49c.24-3.68.36-7.37.5-11.05,0-.05-.08-.05-.08,0-.18,3.68-.37,7.37-.44,11.05,0,.01.02.01.02,0h0Z"/><path class="cls-3" d="M1.63,14.66c-.22-3.93-.25-7.85-.17-11.78,0-.08-.11-.08-.12,0-.15,3.92-.04,7.87.27,11.78,0,0,.01,0,.01,0h0Z"/><path class="cls-3" d="M2.83,14.81c.26-3.34.31-6.71.4-10.06,0-.06-.1-.06-.1,0-.15,3.35-.34,6.71-.31,10.06,0,0,.01,0,.01,0h0Z"/><path class="cls-3" d="M4.92,13.03c-.28-3.83-.12-7.64.28-11.46,0-.04-.07-.05-.08-.01-.56,3.79-.57,7.66-.22,11.47,0,0,.01,0,.01,0h0Z"/><path class="cls-3" d="M6.99,12.66c.05-3.81-.2-7.63-.31-11.44,0-.06-.09-.06-.09,0,.1,3.8.07,7.64.34,11.44,0,.04.06.04.06,0h0Z"/><path class="cls-3" d="M8.85,13.74c-.08-3.63.2-7.22.6-10.83,0-.05-.07-.06-.08-.01-.58,3.57-.68,7.23-.53,10.84,0,0,.01,0,.01,0h0Z"/></g></svg>