<svg xmlns="http://www.w3.org/2000/svg" version="1.0" viewBox="0 0 104.731 106.054"><path d="M103.177.76c-16.99 0-33.78 5.316-48.69 13.991-11.793 6.716-21.507 15.91-29.342 25.984C12.313 56.645 3.678 76.234 1.319 97.741c-.28 2.238-.56 4.757-.56 6.956h102.418V.76z" fill="#fff5ad" fill-rule="evenodd" fill-opacity="1" stroke="none"/><path d="M103.177 5.717c-15.71 0-31.98 4.757-46.651 13.431-10.514 5.877-19.708 13.992-28.343 24.905C15.59 59.683 7.715 78.713 5.637 98.3c-.28 2.24-.56 4.198-.56 6.397h98.1V5.717z" fill="#80ccde" fill-rule="evenodd" fill-opacity="1" stroke="none"/><path d="M103.177.76c-16.99 0-33.78 5.316-48.69 13.991-11.793 6.716-21.507 15.91-29.342 25.984C12.313 56.645 3.678 76.234 1.319 97.741c-.28 2.238-.56 4.757-.56 6.956" fill="none" stroke="#58585a" stroke-width=".79951543px" stroke-linecap="round" stroke-linejoin="round" stroke-miterlimit="4" stroke-dasharray="none" stroke-opacity="1"/><path d="M103.177 5.717c-15.71 0-31.98 4.757-46.651 13.431 0 0 0 0 0 0-10.514 5.877-19.708 13.992-28.343 24.905C15.59 59.683 7.715 78.713 5.637 98.3c-.28 2.24-.56 4.198-.56 6.397" fill="none" stroke="#58585a" stroke-width=".47970927px" stroke-linecap="round" stroke-linejoin="round" stroke-miterlimit="4" stroke-dasharray="none" stroke-opacity="1"/></svg>