<svg xmlns="http://www.w3.org/2000/svg" version="1.0" viewBox="0 0 275.15 282.444"><defs><clipPath clipPathUnits="userSpaceOnUse" id="a"><path d="M7.675 2.878H282.47v282.629H7.675z"/></clipPath></defs><path clip-path="url(#a)" d="M235.457 246.51c-29.062 27.304-66.8 41.675-105.556 36.518C59.304 273.434 1.16 210.712 9.814 132.14c3.118-28.403 14.551-54.607 31.161-75.254C51.69 43.234 64.161 31.42 80.071 22.566 104.297 8.175 132.34 1.16 160.363 5.236c70.257 9.575 128.382 74.136 119.747 152.728-7.975 50.91-33.58 75.994-44.653 88.547z" fill="#fff5ad" fill-rule="evenodd" fill-opacity="1" stroke="none"/><path d="M130.66 276.692c-37.716-5.536-71.636-26.184-93.083-56.805-18.009-25.445-25.624-55.687-22.146-87.028 3.098-26.184 13.152-50.889 30.101-71.556 11.413-14.751 23.526-25.445 37.038-32.82h.34c23.885-14.372 51.209-20.288 76.833-16.95 37.018 5.157 70.597 25.804 92.384 56.786 15.231 22.126 23.186 47.57 23.186 74.135 0 4.777-.34 9.574-.68 14.75-7.275 46.093-29.422 69.698-41.534 82.61 0 0-1.38 1.46-1.72 1.84-28.382 26.923-65.06 39.815-100.718 35.038z" fill="#d7e8ce" fill-rule="evenodd" fill-opacity="1" stroke="none"/><path clip-path="url(#a)" d="M235.497 246.55c-29.062 27.304-66.8 41.675-105.556 36.518C59.344 273.474 1.2 210.752 9.854 132.18c3.118-28.403 14.551-54.607 31.161-75.255C51.73 43.275 64.201 31.462 80.111 22.606 104.337 8.215 132.38 1.2 160.403 5.276c70.257 9.575 128.382 74.136 119.747 152.728-7.975 50.91-33.58 75.994-44.653 88.547" fill="none" stroke="#58585a" stroke-width="1.1992731px" stroke-linecap="round" stroke-linejoin="round" stroke-miterlimit="4" stroke-dasharray="none" stroke-opacity="1"/><path d="M130.66 276.692c-37.716-5.536-71.636-26.184-93.083-56.805-18.009-25.445-25.624-55.687-22.146-87.028 3.098-26.184 13.152-50.889 30.101-71.556 11.413-14.751 23.526-25.445 37.038-32.82h.34c23.885-14.372 51.209-20.288 76.833-16.95 37.018 5.157 70.597 25.804 92.384 56.786 15.231 22.126 23.186 47.57 23.186 74.135 0 4.777-.34 9.574-.68 14.75-7.275 46.093-29.422 69.698-41.534 82.61 0 0-1.38 1.46-1.72 1.84-28.382 26.923-65.06 39.815-100.718 35.038" fill="none" stroke="#58585a" stroke-width=".63961238px" stroke-linecap="round" stroke-linejoin="round" stroke-miterlimit="4" stroke-dasharray="none" stroke-opacity="1"/></svg>