<svg xmlns="http://www.w3.org/2000/svg" version="1.0" viewBox="0 0 163.616 286.488"><defs><clipPath clipPathUnits="userSpaceOnUse" id="a"><path d="M5.597-.24h163.42v286.706H5.598z"/></clipPath></defs><path clip-path="url(#a)" d="M166.46 29.382c0 15.35 1.358 69.998 1.358 126.124 0 56.086 1.32 127.522-30.181 127.522-31.541 0-84.19 5.717-110.693-1.399C.76 274.474 7.475 106.535 7.475 51.89c.68-21.108-2.318-46.452 5.397-46.452 3.998 0 3.998 16.79 8.035 16.79 4.358 0 4.358-18.23 8.395-18.23 3.998 0 3.998 21.068 8.355 21.068 4.038 0 4.038-19.628 8.395-19.628 4.038 0 4.038 16.79 8.395 16.79 4.038 0 4.038-20.028 8.035-20.028 4.038 0 4.038 18.588 8.395 18.588 4.038 0 4.038-20.027 8.395-20.027 4.038 0 4.038 21.467 8.035 21.467 4.038 0 4.038-16.79 8.395-16.79 4.038 0 4.038 18.548 8.395 18.548 4.357 0 4.357-19.987 8.355-19.987 4.037 0 4.037 18.229 8.075 18.229 4.038 0 4.038-16.79 8.035-16.79 4.357 0 4.357 16.79 8.715 16.79 4.037 0 4.037-20.388 7.715-20.388 4.038 0 4.038 20.388 8.075 20.388 4.358 0 4.358-16.79 8.355-16.79 2.719 0 5.397 10.353 5.037 23.945z" fill="#e16663" fill-rule="evenodd" fill-opacity="1" stroke="none"/><path d="M77.713 11.473c.32-1.759 1-4.277 1.679-6.076.32 1.799 1 4.677 1.36 6.796 1.318 6.795 2.318 12.872 6.675 12.872 4.038 0 5.357-5.357 6.716-10.714.32-1.439 1-3.917 1.679-5.356.32 1.798 1 4.637 1.679 6.436 1.32 6.076 2.358 11.433 6.716 11.433 4.357 0 5.357-5.717 6.676-12.153.68-2.159 1.04-4.997 1.679-6.796.68 1.8 1 3.918 1.359 5.717 1.32 5.716 2.678 11.433 6.716 11.433 4.357 0 5.357-5.357 6.676-10.714.36-1.439 1.04-3.917 1.359-5.356.68 1.439 1.32 3.917 1.679 5.356 1.32 5.357 2.678 10.714 7.036 10.714 4.037 0 5.037-5.717 6.356-12.513.36-1.759 1-4.277 1.36-6.076.679 1.799.998 4.317 1.678 6.076 1 6.796 2.359 12.513 6.356 12.513 4.358 0 5.717-5.357 6.716-10.714.68-1.439 1-3.558 1.68-4.997.998 2.839 2.358 9.275 2.358 19.309v.68l.32 28.262c.68 24.305.999 61.083.999 97.9v6.437c0 42.894.32 96.142-15.75 112.931-3.359 3.558-7.036 5.357-11.753 5.357-9.355 0-20.108.36-31.821 1.08-27.863 1.079-59.684 2.478-78.153-2.519-4.677-1.08-13.072-12.512-16.75-73.236-1-22.186-1.359-46.451-1.359-69.717 0-19.628 0-38.217.36-54.287l.32-29.662V26.504c0-8.595.36-16.07 2.358-18.229.68 1.08 1.36 4.277 1.68 6.076 1.319 5.357 2.678 10.714 6.715 10.714 4.358 0 5.357-5.357 6.676-11.433.36-1.44 1.04-3.558 1.68-5.357.679 2.159.999 4.997 1.358 6.796 1.68 7.156 2.679 12.872 7.036 12.872 4.038 0 5.357-5.716 6.716-12.153.32-1.798 1-4.997 1.679-6.436.64 1.44 1 3.558 1.32 4.997 1.358 5.357 2.678 10.714 7.035 10.714 4.037 0 5.397-5.717 6.716-12.153.32-1.759 1-4.637 1.359-6.436.64 1.799 1.32 3.958 1.679 5.717 1.32 6.076 2.319 11.433 6.676 11.433 4.038 0 5.397-5.717 6.716-12.153z" fill="#fee0bb" fill-rule="evenodd" fill-opacity="1" stroke="none"/><path d="M161.502 209.033c-.36 13.592 1.32 72.197-32.26 68.999 8.395-.72 17.15-7.156 21.507-15.711 4.357-8.595 9.754-29.662 10.753-53.288z" fill="#fff" fill-rule="evenodd" fill-opacity="1" stroke="none"/><path d="M165.22 161.942v-6.436c0-36.818-.32-73.596-1-97.9l-.32-28.264v-.68c0-10.033-1.359-16.47-2.358-19.308-.68 1.44-1 3.558-1.679 4.997-1 5.357-2.358 10.714-6.716 10.714-3.997 0-5.357-5.717-6.356-12.513-.68-1.759-1-4.277-1.679-6.076-.36 1.799-1 4.317-1.36 6.076-1.318 6.796-2.318 12.513-6.355 12.513-4.358 0-5.717-5.357-7.036-10.714-.36-1.439-1-3.917-1.679-5.356-.32 1.439-1 3.917-1.36 5.356-1.318 5.357-2.318 10.714-6.675 10.714-4.038 0-5.397-5.717-6.716-11.433-.36-1.8-.68-3.918-1.36-5.717-.639 1.8-.999 4.637-1.678 6.796-1.32 6.436-2.319 12.153-6.676 12.153-4.358 0-5.397-5.357-6.716-11.433-.68-1.8-1.36-4.638-1.68-6.436-.679 1.439-1.358 3.917-1.678 5.356-1.36 5.357-2.678 10.714-6.716 10.714-4.357 0-5.357-6.077-6.676-12.872-.36-2.12-1.04-4.997-1.36-6.796-.679 1.799-1.358 4.317-1.678 6.076-1.32 6.436-2.678 12.153-6.716 12.153-4.357 0-5.357-5.357-6.676-11.433-.36-1.76-1.04-3.918-1.679-5.717-.36 1.799-1.04 4.677-1.36 6.436-1.318 6.436-2.678 12.153-6.715 12.153-4.357 0-5.677-5.357-7.036-10.714-.32-1.439-.68-3.558-1.319-4.997-.68 1.44-1.36 4.638-1.679 6.436-1.36 6.437-2.678 12.153-6.716 12.153-4.357 0-5.357-5.716-7.036-12.872-.36-1.799-.68-4.637-1.359-6.796-.64 1.799-1.319 3.918-1.679 5.357-1.319 6.076-2.318 11.433-6.676 11.433-4.037 0-5.396-5.357-6.716-10.714-.32-1.799-1-4.997-1.679-6.076-1.998 2.159-2.358 9.634-2.358 18.229V51.889l-.32 29.662c-.36 16.07-.36 34.659-.36 54.287 0 23.266.36 47.53 1.36 69.717 3.677 60.724 12.072 72.157 16.75 73.236 18.468 4.997 50.289 3.598 78.152 2.519 11.713-.72 22.466-1.08 31.82-1.08 4.718 0 8.395-1.799 11.753-5.357 16.07-16.79 15.75-70.037 15.75-112.931zm-17.43 110.773c-3.038 3.238-6.036 4.677-10.073 4.677-9.355 0-20.428.32-31.821 1.04-27.863 1.079-59.364 2.518-77.473-2.12-1.68-.719-11.074-6.436-14.751-71.116-1-18.949-1.32-41.815-1.32-69.358 0-19.628 0-38.937.32-54.287l.32-29.662V19.708c1.36 4.277 3.718 8.235 8.075 8.235 4.677 0 6.676-3.958 8.035-8.235 1.32 6.076 3.358 11.073 8.715 11.073 5.357 0 7.036-4.997 8.715-11.073 1.359 4.277 3.358 8.235 8.035 8.235 5.037 0 7.036-4.677 8.395-10.034 1.359 4.677 3.358 8.595 8.035 8.595 4.717 0 6.716-3.918 8.075-8.955 1.32 5.397 3.318 10.394 8.355 10.394 4.717 0 6.716-3.958 8.075-8.595 1.32 5.357 3.318 10.354 8.715 10.354 4.997 0 7.036-4.637 8.355-10.354 1.359 4.637 3.718 8.595 8.075 8.595 4.677 0 7.036-4.317 8.355-8.595 1.359 4.278 3.358 8.595 8.395 8.595 4.677 0 6.716-3.958 8.035-8.955 1 4.997 3.038 8.955 7.715 8.955 4.358 0 6.396-3.238 7.716-7.156.32 2.479.32 4.997.32 7.876v.68l.36 28.262c.679 24.305.998 61.083.998 97.9v12.873c0 41.095-.68 89.346-14.75 104.337z" fill="#fdc17d" fill-rule="evenodd" fill-opacity="1" stroke="none"/><path d="M51.849 36.738c-14.072.72-33.5-1.44-34.16 36.478-.68 37.897-2.698 121.566 2 154.446.679-23.586-.66-124.425 4.017-150.869 4.697-26.464 5.376-37.197 28.143-40.055z" fill="#fff" fill-rule="evenodd" fill-opacity="1" stroke="none"/><path clip-path="url(#a)" d="M166.46 29.382c0 15.35 1.358 69.998 1.358 126.124 0 56.086 1.32 127.522-30.181 127.522-31.541 0-84.19 5.717-110.693-1.399C.76 274.474 7.475 106.535 7.475 51.89c.68-21.108-2.318-46.452 5.397-46.452 3.998 0 3.998 16.79 8.035 16.79 4.358 0 4.358-18.23 8.395-18.23 3.998 0 3.998 21.068 8.355 21.068 4.038 0 4.038-19.628 8.395-19.628 4.038 0 4.038 16.79 8.395 16.79 4.038 0 4.038-20.028 8.035-20.028 4.038 0 4.038 18.588 8.395 18.588 4.038 0 4.038-20.027 8.395-20.027 4.038 0 4.038 21.467 8.035 21.467 4.038 0 4.038-16.79 8.395-16.79 4.038 0 4.038 18.548 8.395 18.548 4.357 0 4.357-19.987 8.355-19.987 4.037 0 4.037 18.229 8.075 18.229 4.038 0 4.038-16.79 8.035-16.79 4.357 0 4.357 16.79 8.715 16.79 4.037 0 4.037-20.388 7.715-20.388 4.038 0 4.038 20.388 8.075 20.388 4.358 0 4.358-16.79 8.355-16.79 2.719 0 5.397 10.353 5.037 23.945" fill="none" stroke="#333" stroke-width=".79951543px" stroke-linecap="round" stroke-linejoin="round" stroke-miterlimit="4" stroke-dasharray="none" stroke-opacity="1"/><path clip-path="url(#a)" d="M77.713 11.473c.32-1.759 1-4.277 1.679-6.076.32 1.799 1 4.677 1.36 6.796 1.318 6.795 2.318 12.872 6.675 12.872 4.038 0 5.357-5.357 6.716-10.714.32-1.439 1-3.917 1.679-5.356.32 1.798 1 4.637 1.679 6.436 1.32 6.076 2.358 11.433 6.716 11.433 4.357 0 5.357-5.717 6.676-12.153.68-2.159 1.04-4.997 1.679-6.796.68 1.8 1 3.918 1.359 5.717 1.32 5.716 2.678 11.433 6.716 11.433 4.357 0 5.357-5.357 6.676-10.714.36-1.439 1.04-3.917 1.359-5.356.68 1.439 1.32 3.917 1.679 5.356 1.32 5.357 2.678 10.714 7.036 10.714 4.037 0 5.037-5.717 6.356-12.513.36-1.759 1-4.277 1.36-6.076.679 1.799.998 4.317 1.678 6.076 1 6.796 2.359 12.513 6.356 12.513 4.358 0 5.717-5.357 6.716-10.714.68-1.439 1-3.558 1.68-4.997.998 2.839 2.358 9.275 2.358 19.309v.68l.32 28.262c.68 24.305.999 61.083.999 97.9v6.437c0 42.894.32 96.142-15.75 112.931-3.359 3.558-7.036 5.357-11.753 5.357-9.355 0-20.108.36-31.821 1.08-27.863 1.079-59.684 2.478-78.153-2.519-4.677-1.08-13.072-12.512-16.75-73.236-1-22.186-1.359-46.451-1.359-69.717 0-19.628 0-38.217.36-54.287l.32-29.662V26.504c0-8.595.36-16.07 2.358-18.229.68 1.08 1.36 4.277 1.68 6.076 1.319 5.357 2.678 10.714 6.715 10.714 4.358 0 5.357-5.357 6.676-11.433.36-1.44 1.04-3.558 1.68-5.357.679 2.159.999 4.997 1.358 6.796 1.68 7.156 2.679 12.872 7.036 12.872 4.038 0 5.357-5.716 6.716-12.153.32-1.798 1-4.997 1.679-6.436.64 1.44 1 3.558 1.32 4.997 1.358 5.357 2.678 10.714 7.035 10.714 4.037 0 5.397-5.717 6.716-12.153.32-1.759 1-4.637 1.359-6.436.64 1.799 1.32 3.958 1.679 5.717 1.32 6.076 2.319 11.433 6.676 11.433 4.038 0 5.397-5.717 6.716-12.153" fill="none" stroke="#333" stroke-width=".79951543px" stroke-linecap="butt" stroke-linejoin="miter" stroke-miterlimit="8" stroke-dasharray="none" stroke-opacity="1"/></svg>