<svg xmlns="http://www.w3.org/2000/svg" version="1.0" viewBox="0 0 237.506 222.047"><defs><clipPath clipPathUnits="userSpaceOnUse" id="a"><path d="M-.48 5.597h237.217v222.185H-.48z"/></clipPath></defs><path clip-path="url(#a)" d="M133.719 7.435C71.796.76 39.336 39.096 32.98 46.412 18.829 62.042 9.194 81.59 6.636 103.177c-3.158 25.145 3.918 48.251 17.79 66.84.679.96 1.358 1.919 2.158 2.878 2.838 3.118 6.116 1.6 7.595.8 1.76-.96 3.798-1.48 5.997-1.48 7.035 0 12.752 5.677 12.752 12.633 0 1.879-.4 3.518-1.08 5.157-2.038 4.597 0 6.116 1.48 7.195 1.479.96 2.838 1.76 4.357 2.559 14.911 8.994 32.02 14.831 50.09 17.15 32.86 4.037 64.76-6.796 89.066-27.584 9.234-8.714 32.06-26.224 37.897-66.72 7.315-59.203-41.815-107.854-101.019-115.17z" fill="#c7cde6" fill-rule="evenodd" fill-opacity="1" stroke="none"/><path d="M28.063 167.299c-11.553-15.79-17.55-33.7-17.55-52.609 0-3.677.16-7.315.68-10.993C13.672 83.87 22.346 65.081 36.458 49.49c0-.16.28-.44.28-.44 24.425-27.983 58.484-41.175 96.381-37.097 31.221 3.957 59.604 19.588 77.793 42.974 13.032 16.71 19.788 35.858 19.788 55.846 0 3.798-.24 7.475-.68 11.273-5.156 35.459-23.865 52.448-33.899 61.403 0 0-2.199 2.039-2.478 2.318-24.026 20.508-55.087 30.142-85.389 26.504-17.07-2.198-33.78-7.875-48.29-16.47-1.36-.8-4.518-2.838-2.999-6.796.4-1.359-4.477.44-4.357-1.079 1.24-12.352-7.595-17.11-16.15-15.35-1.64.28.28-4.878-1.36-4.358-1.478.56-4.357 2.039-7.035-.92z" fill="#8f98c7" fill-rule="evenodd" fill-opacity="1" stroke="none"/><path clip-path="url(#a)" d="M133.719 7.435C71.796.76 39.336 39.096 32.98 46.412 18.829 62.042 9.194 81.59 6.636 103.177c-3.158 25.145 3.918 48.251 17.79 66.84.679.96 1.358 1.919 2.158 2.878 2.838 3.118 6.116 1.6 7.595.8 1.76-.96 3.798-1.48 5.997-1.48 7.035 0 12.752 5.677 12.752 12.633 0 1.879-.4 3.518-1.08 5.157-2.038 4.597 0 6.116 1.48 7.195 1.479.96 2.838 1.76 4.357 2.559 14.911 8.994 32.02 14.831 50.09 17.15 32.86 4.037 64.76-6.796 89.066-27.584 9.234-8.714 32.06-26.224 37.897-66.72 7.315-59.203-41.815-107.854-101.019-115.17" fill="none" stroke="#433b41" stroke-width=".79951543px" stroke-linecap="round" stroke-linejoin="round" stroke-miterlimit="4" stroke-dasharray="none" stroke-opacity="1"/><path d="M35.099 168.218c-1.48.56-4.358 2.039-7.036-.92-11.553-15.79-17.55-33.699-17.55-52.608 0-3.677.16-7.315.68-10.993C13.672 83.87 22.346 65.081 36.458 49.49c0-.16.28-.44.28-.44 24.425-27.983 58.484-41.175 96.381-37.097 31.221 3.957 59.604 19.588 77.793 42.974 13.032 16.71 19.788 35.858 19.788 55.846 0 3.798-.24 7.475-.68 11.273-5.156 35.459-23.865 52.448-33.899 61.403 0 0-2.199 2.039-2.478 2.318-24.026 20.508-55.087 30.142-85.389 26.504-17.07-2.198-33.78-7.875-48.29-16.47-1.36-.8-4.518-2.838-2.999-6.796" fill="none" stroke="#433b41" stroke-width=".63961238px" stroke-linecap="round" stroke-linejoin="round" stroke-miterlimit="4" stroke-dasharray="none" stroke-opacity="1"/><path d="M51.809 190.005c-2.04 4.597 0 6.116 1.479 7.195 1.519.96 2.878 1.76 4.357 2.559l2.319-3.918c-.68-.4-1.76-1.079-2.599-2.318-2.718-4.877 2.878-4.078 2.878-4.078 13.592 0 24.706-11.153 24.706-24.745 0-13.712-11.114-24.745-24.706-24.745A24.687 24.687 0 0 0 35.498 164.7c.68 4.917-4.077 4.358-4.077 4.358-1.08-.12-2.319-.56-3.398-1.76l-3.678 2.719c.68.96 1.36 1.879 2.199 2.838 2.838 3.118 6.116 1.64 7.595.84 6.396-3.278 5.597-8.995 5.597-8.995 0-11.273 9.074-20.507 20.507-20.507 11.274 0 20.508 9.234 20.508 20.507 0 11.273-9.234 20.548-20.508 20.548 0 0-6.116-.28-8.434 4.757z" fill="#c7cde6" fill-rule="evenodd" fill-opacity="1" stroke="none"/><path d="M59.964 195.761c-.68-.4-1.76-1.079-2.559-2.278-2.718-4.917 2.838-4.078 2.838-4.078 13.592 0 24.706-11.153 24.706-24.705 0-13.712-11.114-24.745-24.706-24.745A24.687 24.687 0 0 0 35.498 164.7c.68 4.877-4.077 4.318-4.077 4.318-1.08-.12-2.279-.52-3.398-1.76" fill="none" stroke="#433b41" stroke-width=".63961238px" stroke-linecap="round" stroke-linejoin="round" stroke-miterlimit="4" stroke-dasharray="none" stroke-opacity="1"/><path d="M24.345 169.977c.68.96 1.36 1.919 2.199 2.878 2.838 3.118 6.076 1.6 7.595.8 6.356-3.278 5.557-8.995 5.557-8.995 0-11.273 9.074-20.547 20.468-20.547 11.273 0 20.467 9.274 20.467 20.547 0 11.313-9.194 20.548-20.467 20.548 0 0-6.117-.28-8.395 4.757-2.04 4.637 0 6.156 1.479 7.235 1.479.96 2.838 1.76 4.357 2.559" fill="none" stroke="#433b41" stroke-width=".79951543px" stroke-linecap="round" stroke-linejoin="round" stroke-miterlimit="4" stroke-dasharray="none" stroke-opacity="1"/><path d="M105.416 97.9c0-15.47 12.592-28.062 28.063-28.062 15.51 0 28.063 12.592 28.063 28.063 0 15.51-12.552 28.063-28.063 28.063-15.47 0-28.063-12.553-28.063-28.063z" fill="#c7cde6" fill-rule="evenodd" fill-opacity="1" stroke="none"/><path d="M109.094 97.82c0-13.391 10.953-24.305 24.425-24.305 13.512 0 24.425 10.914 24.425 24.306 0 13.432-10.913 24.305-24.425 24.305-13.472 0-24.425-10.873-24.425-24.305z" fill="#8f98c7" fill-rule="evenodd" fill-opacity="1" stroke="none"/><path d="M105.456 97.94c0-15.47 12.592-28.062 28.063-28.062 15.51 0 28.063 12.592 28.063 28.063 0 15.51-12.552 28.063-28.063 28.063-15.47 0-28.063-12.553-28.063-28.063" fill="none" stroke="#433b41" stroke-width="1.0393701px" stroke-linecap="round" stroke-linejoin="round" stroke-miterlimit="4" stroke-dasharray="none" stroke-opacity="1"/><path d="M109.094 97.82c0-13.391 10.953-24.305 24.425-24.305 13.512 0 24.425 10.914 24.425 24.306 0 13.432-10.913 24.305-24.425 24.305-13.472 0-24.425-10.873-24.425-24.305" fill="none" stroke="#433b41" stroke-width=".63961238px" stroke-linecap="round" stroke-linejoin="round" stroke-miterlimit="4" stroke-dasharray="none" stroke-opacity="1"/><path d="M134.279 82.83c0-2.639 2.198-4.837 4.837-4.837 2.678 0 4.837 2.198 4.837 4.837a4.828 4.828 0 0 1-4.837 4.837c-2.639 0-4.837-2.159-4.837-4.837z" fill="#ee7f1b" fill-rule="evenodd" fill-opacity="1" stroke="none"/><path d="M134.279 82.83c0-2.639 2.198-4.837 4.837-4.837 2.678 0 4.837 2.198 4.837 4.837a4.828 4.828 0 0 1-4.837 4.837c-2.639 0-4.837-2.159-4.837-4.837" fill="none" stroke="#433b41" stroke-width=".15990309px" stroke-linecap="round" stroke-linejoin="round" stroke-miterlimit="4" stroke-dasharray="none" stroke-opacity="1"/><path d="M104.297 125.644 85.748 146.23l-1.839-1.679 18.549-20.587 1.839 1.679z" fill="#e85a20" fill-rule="evenodd" fill-opacity="1" stroke="none"/><path d="m98.34 122.326 10.434-3.438-2.279 10.594-8.155-7.156z" fill="#e85a20" fill-rule="evenodd" fill-opacity="1" stroke="none"/><path d="M127.803 89.706c0-2.639 2.158-4.837 4.797-4.837 2.678 0 4.797 2.198 4.797 4.837 0 2.678-2.119 4.837-4.797 4.837-2.639 0-4.797-2.159-4.797-4.837z" fill="#ee7f1b" fill-rule="evenodd" fill-opacity="1" stroke="none"/><path d="M127.803 89.706c0-2.639 2.158-4.837 4.797-4.837 2.678 0 4.797 2.198 4.797 4.837 0 2.678-2.119 4.837-4.797 4.837-2.639 0-4.797-2.159-4.797-4.837" fill="none" stroke="#433b41" stroke-width=".15990309px" stroke-linecap="round" stroke-linejoin="round" stroke-miterlimit="4" stroke-dasharray="none" stroke-opacity="1"/><path d="M128.922 107.335c0-2.638 2.199-4.797 4.837-4.797 2.678 0 4.837 2.159 4.837 4.797 0 2.678-2.159 4.797-4.837 4.797-2.638 0-4.837-2.119-4.837-4.797z" fill="#ee7f1b" fill-rule="evenodd" fill-opacity="1" stroke="none"/><path d="M128.922 107.335c0-2.638 2.199-4.797 4.837-4.797 2.678 0 4.837 2.159 4.837 4.797 0 2.678-2.159 4.797-4.837 4.797-2.638 0-4.837-2.119-4.837-4.797" fill="none" stroke="#433b41" stroke-width=".15990309px" stroke-linecap="round" stroke-linejoin="round" stroke-miterlimit="4" stroke-dasharray="none" stroke-opacity="1"/><path d="M115.09 100.979c0-2.639 2.199-4.837 4.837-4.837 2.679 0 4.837 2.198 4.837 4.837a4.828 4.828 0 0 1-4.837 4.837c-2.638 0-4.837-2.159-4.837-4.837z" fill="#ee7f1b" fill-rule="evenodd" fill-opacity="1" stroke="none"/><path d="M115.09 100.979c0-2.639 2.199-4.837 4.837-4.837 2.679 0 4.837 2.198 4.837 4.837a4.828 4.828 0 0 1-4.837 4.837c-2.638 0-4.837-2.159-4.837-4.837" fill="none" stroke="#433b41" stroke-width=".15990309px" stroke-linecap="round" stroke-linejoin="round" stroke-miterlimit="4" stroke-dasharray="none" stroke-opacity="1"/><path d="M142.274 100.34c0-2.64 2.198-4.838 4.837-4.838 2.678 0 4.837 2.199 4.837 4.837a4.828 4.828 0 0 1-4.837 4.837c-2.639 0-4.837-2.158-4.837-4.837z" fill="#ee7f1b" fill-rule="evenodd" fill-opacity="1" stroke="none"/><path d="M142.274 100.34c0-2.64 2.198-4.838 4.837-4.838 2.678 0 4.837 2.199 4.837 4.837a4.828 4.828 0 0 1-4.837 4.837c-2.639 0-4.837-2.158-4.837-4.837" fill="none" stroke="#433b41" stroke-width=".15990309px" stroke-linecap="round" stroke-linejoin="round" stroke-miterlimit="4" stroke-dasharray="none" stroke-opacity="1"/><path d="M57.605 160.942c0-2.638 2.199-4.837 4.837-4.837 2.679 0 4.837 2.2 4.837 4.837a4.828 4.828 0 0 1-4.837 4.838c-2.638 0-4.837-2.16-4.837-4.838z" fill="#ee7f1b" fill-rule="evenodd" fill-opacity="1" stroke="none"/><path d="M57.605 160.942c0-2.638 2.199-4.837 4.837-4.837 2.679 0 4.837 2.2 4.837 4.837a4.828 4.828 0 0 1-4.837 4.838c-2.638 0-4.837-2.16-4.837-4.838" fill="none" stroke="#433b41" stroke-width=".15990309px" stroke-linecap="round" stroke-linejoin="round" stroke-miterlimit="4" stroke-dasharray="none" stroke-opacity="1"/><path d="M59.444 174.774c0-2.638 2.199-4.837 4.837-4.837 2.678 0 4.837 2.199 4.837 4.837a4.828 4.828 0 0 1-4.837 4.837c-2.638 0-4.837-2.159-4.837-4.837z" fill="#ee7f1b" fill-rule="evenodd" fill-opacity="1" stroke="none"/><path d="M59.444 174.774c0-2.638 2.199-4.837 4.837-4.837 2.678 0 4.837 2.199 4.837 4.837a4.828 4.828 0 0 1-4.837 4.837c-2.638 0-4.837-2.159-4.837-4.837" fill="none" stroke="#433b41" stroke-width=".15990309px" stroke-linecap="round" stroke-linejoin="round" stroke-miterlimit="4" stroke-dasharray="none" stroke-opacity="1"/><path d="M.2 191.124c0-2.638 2.199-4.797 4.837-4.797 2.678 0 4.837 2.159 4.837 4.797 0 2.679-2.159 4.797-4.837 4.797-2.638 0-4.837-2.118-4.837-4.797z" fill="#ee7f1b" fill-rule="evenodd" fill-opacity="1" stroke="none"/><path d="M.2 191.124c0-2.638 2.199-4.797 4.837-4.797 2.678 0 4.837 2.159 4.837 4.797 0 2.679-2.159 4.797-4.837 4.797-2.638 0-4.837-2.118-4.837-4.797" fill="none" stroke="#433b41" stroke-width=".15990309px" stroke-linecap="round" stroke-linejoin="round" stroke-miterlimit="4" stroke-dasharray="none" stroke-opacity="1"/><path d="M29.142 222.105c0-2.638 2.199-4.837 4.837-4.837 2.679 0 4.837 2.199 4.837 4.837a4.828 4.828 0 0 1-4.837 4.837c-2.638 0-4.837-2.158-4.837-4.837z" fill="#ee7f1b" fill-rule="evenodd" fill-opacity="1" stroke="none"/><path d="M29.142 222.105c0-2.638 2.199-4.837 4.837-4.837 2.679 0 4.837 2.199 4.837 4.837a4.828 4.828 0 0 1-4.837 4.837c-2.638 0-4.837-2.158-4.837-4.837" fill="none" stroke="#433b41" stroke-width=".15990309px" stroke-linecap="round" stroke-linejoin="round" stroke-miterlimit="4" stroke-dasharray="none" stroke-opacity="1"/><path d="M6.036 211.952c0-2.639 2.159-4.838 4.797-4.838 2.679 0 4.798 2.2 4.798 4.838 0 2.678-2.12 4.837-4.798 4.837-2.638 0-4.797-2.16-4.797-4.837z" fill="#ee7f1b" fill-rule="evenodd" fill-opacity="1" stroke="none"/><path d="M6.036 211.952c0-2.639 2.159-4.838 4.797-4.838 2.679 0 4.798 2.2 4.798 4.838 0 2.678-2.12 4.837-4.798 4.837-2.638 0-4.797-2.16-4.797-4.837" fill="none" stroke="#433b41" stroke-width=".15990309px" stroke-linecap="round" stroke-linejoin="round" stroke-miterlimit="4" stroke-dasharray="none" stroke-opacity="1"/><path d="M36.978 183.289c0-2.638 2.198-4.797 4.837-4.797 2.678 0 4.837 2.159 4.837 4.797 0 2.678-2.159 4.797-4.837 4.797-2.639 0-4.837-2.119-4.837-4.797z" fill="#ee7f1b" fill-rule="evenodd" fill-opacity="1" stroke="none"/><path d="M36.978 183.289c0-2.638 2.198-4.797 4.837-4.797 2.678 0 4.837 2.159 4.837 4.797 0 2.678-2.159 4.797-4.837 4.797-2.639 0-4.837-2.119-4.837-4.797" fill="none" stroke="#433b41" stroke-width=".15990309px" stroke-linecap="round" stroke-linejoin="round" stroke-miterlimit="4" stroke-dasharray="none" stroke-opacity="1"/><path d="M45.452 176.773c0-2.639 2.2-4.837 4.838-4.837 2.678 0 4.837 2.198 4.837 4.837a4.828 4.828 0 0 1-4.837 4.837c-2.639 0-4.838-2.159-4.838-4.837z" fill="#ee7f1b" fill-rule="evenodd" fill-opacity="1" stroke="none"/><path d="M45.452 176.773c0-2.639 2.2-4.837 4.838-4.837 2.678 0 4.837 2.198 4.837 4.837a4.828 4.828 0 0 1-4.837 4.837c-2.639 0-4.838-2.159-4.838-4.837" fill="none" stroke="#433b41" stroke-width=".15990309px" stroke-linecap="round" stroke-linejoin="round" stroke-miterlimit="4" stroke-dasharray="none" stroke-opacity="1"/><path d="M48.49 157.305c0-2.639 2.2-4.797 4.838-4.797 2.678 0 4.837 2.158 4.837 4.797 0 2.678-2.159 4.797-4.837 4.797-2.639 0-4.837-2.119-4.837-4.797z" fill="#ee7f1b" fill-rule="evenodd" fill-opacity="1" stroke="none"/><path d="M48.49 157.305c0-2.639 2.2-4.797 4.838-4.797 2.678 0 4.837 2.158 4.837 4.797 0 2.678-2.159 4.797-4.837 4.797-2.639 0-4.837-2.119-4.837-4.797" fill="none" stroke="#433b41" stroke-width=".15990309px" stroke-linecap="round" stroke-linejoin="round" stroke-miterlimit="4" stroke-dasharray="none" stroke-opacity="1"/><path d="M21.627 201.278c0-2.638 2.199-4.797 4.837-4.797 2.678 0 4.837 2.159 4.837 4.797 0 2.678-2.159 4.797-4.837 4.797-2.638 0-4.837-2.119-4.837-4.797z" fill="#ee7f1b" fill-rule="evenodd" fill-opacity="1" stroke="none"/><path d="M21.627 201.278c0-2.638 2.199-4.797 4.837-4.797 2.678 0 4.837 2.159 4.837 4.797 0 2.678-2.159 4.797-4.837 4.797-2.638 0-4.837-2.119-4.837-4.797" fill="none" stroke="#433b41" stroke-width=".15990309px" stroke-linecap="round" stroke-linejoin="round" stroke-miterlimit="4" stroke-dasharray="none" stroke-opacity="1"/><path d="M24.665 185.647c0-2.638 2.199-4.837 4.837-4.837 2.678 0 4.837 2.2 4.837 4.837a4.828 4.828 0 0 1-4.837 4.838c-2.638 0-4.837-2.16-4.837-4.838z" fill="#ee7f1b" fill-rule="evenodd" fill-opacity="1" stroke="none"/><path d="M24.665 185.647c0-2.638 2.199-4.837 4.837-4.837 2.678 0 4.837 2.2 4.837 4.837a4.828 4.828 0 0 1-4.837 4.838c-2.638 0-4.837-2.16-4.837-4.838" fill="none" stroke="#433b41" stroke-width=".15990309px" stroke-linecap="round" stroke-linejoin="round" stroke-miterlimit="4" stroke-dasharray="none" stroke-opacity="1"/><path d="M66.96 159.663c0-2.638 2.198-4.837 4.836-4.837 2.679 0 4.838 2.199 4.838 4.837a4.828 4.828 0 0 1-4.838 4.837c-2.638 0-4.837-2.158-4.837-4.837z" fill="#ee7f1b" fill-rule="evenodd" fill-opacity="1" stroke="none"/><path d="M66.96 159.663c0-2.638 2.198-4.837 4.836-4.837 2.679 0 4.838 2.199 4.838 4.837a4.828 4.828 0 0 1-4.838 4.837c-2.638 0-4.837-2.158-4.837-4.837" fill="none" stroke="#433b41" stroke-width=".15990309px" stroke-linecap="round" stroke-linejoin="round" stroke-miterlimit="4" stroke-dasharray="none" stroke-opacity="1"/><path d="M30.502 191.644c0-2.639 2.198-4.837 4.837-4.837 2.678 0 4.837 2.198 4.837 4.837a4.828 4.828 0 0 1-4.837 4.837c-2.639 0-4.837-2.159-4.837-4.837z" fill="#ee7f1b" fill-rule="evenodd" fill-opacity="1" stroke="none"/><path d="M30.502 191.644c0-2.639 2.198-4.837 4.837-4.837 2.678 0 4.837 2.198 4.837 4.837a4.828 4.828 0 0 1-4.837 4.837c-2.639 0-4.837-2.159-4.837-4.837" fill="none" stroke="#433b41" stroke-width=".15990309px" stroke-linecap="round" stroke-linejoin="round" stroke-miterlimit="4" stroke-dasharray="none" stroke-opacity="1"/></svg>