<svg xmlns="http://www.w3.org/2000/svg" version="1.0" viewBox="0 0 229.077 69.77"><defs><clipPath clipPathUnits="userSpaceOnUse" id="a"><path d="M2.239 2.159H231.06v69.797H2.239z"/></clipPath></defs><path d="M7.875 9.794v49.33h218.188V9.794H7.875z" fill="#cff" fill-rule="evenodd" fill-opacity="1" stroke="none"/><path d="M3.158 11.193c0-3.977 3.018-7.235 6.716-7.235 3.718 0 6.716 3.258 6.716 7.235 0 3.998-2.998 7.236-6.716 7.236-3.698 0-6.716-3.238-6.716-7.236z" fill="#8aabff" fill-rule="evenodd" fill-opacity="1" stroke="none"/><path clip-path="url(#a)" d="M3.158 11.193c0-3.977 3.018-7.235 6.716-7.235 3.718 0 6.716 3.258 6.716 7.235 0 3.998-2.998 7.236-6.716 7.236-3.698 0-6.716-3.238-6.716-7.236" fill="none" stroke="#333" stroke-width=".79951543px" stroke-linecap="butt" stroke-linejoin="miter" stroke-miterlimit="8" stroke-dasharray="none" stroke-opacity="1"/><path d="m12.592 23.446.18.2c0 .22 0 .22.2.42v.2c0 .22.18.22.18.22v9.713c0 .62-.38 1.02-.94 1.02-.56 0-.939-.4-.939-1.02v-9.094c0-.42-.58-1.24-1.339-1.24-.94 0-1.52.82-1.52 1.24v9.094c0 .62-.379 1.02-.939 1.02-.38 0-.959-.4-.959-1.02v-9.094c0-.22 0-.42.2-.62v-.22s0-.2.18-.2v-.2c.2-.22.2-.42.2-.42l.18-.22c0-.199.2-.399.38-.399 0-.22.2-.22.2-.42h.18c0-.2.199-.2.379-.2v-.22c.2 0 .38-.2.38-.2V18.27c0-.4.38-1.04.96-1.04.559 0 .939.64.939 1.04v3.518c.58.2 1.139.62 1.718 1.239v.2c.18 0 .18.22.18.22z" fill="#0031bc" fill-rule="evenodd" fill-opacity="1" stroke="none"/><path d="M6.836 33.76v-9.095s.2 3.098.4 4.757v5.557c-.2-.4-.4-.82-.4-1.22zM11.653 33.74c0 .42.2 1.039.38 1.239-.38-.4-.56-.82-.56-1.24v-8.694c0-.22-.38-1.26-.96-1.26 1.14 0 1.34 1.04 1.34 1.66l-.2 8.295zM5.317 9.274c0-1.299 1-2.358 2.198-2.358 1.22 0 2.2 1.06 2.2 2.358 0 1.32-.98 2.359-2.2 2.359-1.199 0-2.198-1.04-2.198-2.359z" fill="#fff" fill-rule="evenodd" fill-opacity="1" stroke="none"/><path d="M16.83 63.482c0 3.997-2.998 7.235-6.716 7.235-3.698 0-6.716-3.238-6.716-7.235 0-3.978 3.018-7.236 6.716-7.236 3.718 0 6.716 3.258 6.716 7.236z" fill="#8aabff" fill-rule="evenodd" fill-opacity="1" stroke="none"/><path clip-path="url(#a)" d="M16.83 63.482c0 3.997-2.998 7.235-6.716 7.235-3.698 0-6.716-3.238-6.716-7.235 0-3.978 3.018-7.236 6.716-7.236 3.718 0 6.716 3.258 6.716 7.236" fill="none" stroke="#333" stroke-width=".79951543px" stroke-linecap="butt" stroke-linejoin="miter" stroke-miterlimit="8" stroke-dasharray="none" stroke-opacity="1"/><path d="m7.416 51.329-.18-.2c0-.22 0-.22-.2-.42v-.2c0-.22-.2-.22-.2-.22V40.576c0-.62.4-1.039.96-1.039.579 0 .959.42.959 1.04v9.094c0 .42.58 1.24 1.359 1.24.96 0 1.519-.82 1.519-1.24v-9.095c0-.62.4-1.039.96-1.039.4 0 .959.42.959 1.04v9.094c0 .22 0 .42-.18.62v.22s0 .2-.2.2v.2c-.18.219-.18.419-.18.419l-.2.2c0 .22-.2.42-.38.42 0 .22-.2.22-.2.42h-.18c0 .2-.2.2-.4.2v.219c-.179 0-.379.2-.379.2v3.518c0 .4-.38 1.02-.96 1.02-.579 0-.959-.62-.959-1.02v-3.518c-.58-.2-1.139-.62-1.719-1.24v-.22c-.2 0-.2-.2-.2-.2z" fill="#0031bc" fill-rule="evenodd" fill-opacity="1" stroke="none"/><path d="M13.152 41.015v9.075s-.2-3.078-.4-4.737v-5.578c.2.42.4.84.4 1.24zM8.415 41.015c0-.4-.18-1.02-.38-1.24.38.42.58.84.58 1.24V49.67c0 .2.38 1.22.94 1.22-1.14 0-1.32-1.02-1.32-1.64l.18-8.235zM14.671 65.44c0 1.34-.98 2.399-2.199 2.399-1.199 0-2.198-1.06-2.198-2.399 0-1.319 1-2.398 2.198-2.398 1.22 0 2.2 1.08 2.2 2.398z" fill="#fff" fill-rule="evenodd" fill-opacity="1" stroke="none"/><path d="M17.47 11.193c0-3.977 3.018-7.235 6.715-7.235 3.718 0 6.716 3.258 6.716 7.235 0 3.998-2.998 7.236-6.716 7.236-3.697 0-6.716-3.238-6.716-7.236z" fill="#8aabff" fill-rule="evenodd" fill-opacity="1" stroke="none"/><path clip-path="url(#a)" d="M17.47 11.193c0-3.977 3.018-7.235 6.715-7.235 3.718 0 6.716 3.258 6.716 7.235 0 3.998-2.998 7.236-6.716 7.236-3.697 0-6.716-3.238-6.716-7.236" fill="none" stroke="#333" stroke-width=".79951543px" stroke-linecap="butt" stroke-linejoin="miter" stroke-miterlimit="8" stroke-dasharray="none" stroke-opacity="1"/><path d="m26.904 23.446.18.2c0 .22 0 .22.2.42v.2c0 .22.18.22.18.22v9.713c0 .62-.38 1.02-.96 1.02-.56 0-.96-.4-.96-1.02v-9.094c0-.42-.56-1.24-1.339-1.24-.96 0-1.539.82-1.539 1.24v9.094c0 .62-.38 1.02-.96 1.02-.379 0-.959-.4-.959-1.02v-9.094c0-.22 0-.42.2-.62v-.22s0-.2.2-.2v-.2c.18-.22.18-.42.18-.42l.2-.22c0-.199.18-.399.38-.399 0-.22.2-.22.2-.42h.18c0-.2.2-.2.38-.2v-.22c.2 0 .399-.2.399-.2V18.27c0-.4.38-1.04.96-1.04.56 0 .959.64.959 1.04v3.518c.56.2 1.14.62 1.719 1.239v.2c.2 0 .2.22.2.22z" fill="#0031bc" fill-rule="evenodd" fill-opacity="1" stroke="none"/><path d="M21.147 33.76v-9.095s.2 3.098.4 4.757v5.557c-.2-.4-.4-.82-.4-1.22zM25.884 33.74c0 .42.2 1.039.38 1.239-.38-.4-.56-.82-.56-1.24v-8.694c0-.22-.38-1.26-.959-1.26 1.14 0 1.34 1.04 1.34 1.66l-.2 8.295zM19.628 9.274c0-1.299 1-2.358 2.199-2.358 1.219 0 2.198 1.06 2.198 2.358 0 1.32-.979 2.359-2.198 2.359-1.2 0-2.199-1.04-2.199-2.359z" fill="#fff" fill-rule="evenodd" fill-opacity="1" stroke="none"/><path d="M31.141 63.482c0 3.997-2.998 7.235-6.716 7.235-3.698 0-6.716-3.238-6.716-7.235 0-3.978 3.018-7.236 6.716-7.236 3.718 0 6.716 3.258 6.716 7.236z" fill="#8aabff" fill-rule="evenodd" fill-opacity="1" stroke="none"/><path clip-path="url(#a)" d="M31.141 63.482c0 3.997-2.998 7.235-6.716 7.235-3.698 0-6.716-3.238-6.716-7.235 0-3.978 3.018-7.236 6.716-7.236 3.718 0 6.716 3.258 6.716 7.236" fill="none" stroke="#333" stroke-width=".79951543px" stroke-linecap="butt" stroke-linejoin="miter" stroke-miterlimit="8" stroke-dasharray="none" stroke-opacity="1"/><path d="m21.727 51.329-.18-.2c0-.22 0-.22-.2-.42v-.2c0-.22-.2-.22-.2-.22V40.576c0-.62.4-1.039.96-1.039.58 0 .959.42.959 1.04v9.094c0 .42.58 1.24 1.36 1.24.959 0 1.518-.82 1.518-1.24v-9.095c0-.62.4-1.039.96-1.039.4 0 .96.42.96 1.04v9.094c0 .22 0 .42-.18.62v.22s0 .2-.2.2v.2c-.18.219-.18.419-.18.419l-.2.2c0 .22-.2.42-.38.42 0 .22-.2.22-.2.42h-.18c0 .2-.2.2-.4.2v.219c-.18 0-.38.2-.38.2v3.518c0 .4-.38 1.02-.959 1.02-.58 0-.96-.62-.96-1.02v-3.518c-.579-.2-1.139-.62-1.718-1.24v-.22c-.2 0-.2-.2-.2-.2z" fill="#0031bc" fill-rule="evenodd" fill-opacity="1" stroke="none"/><path d="M27.463 41.015v9.075s-.2-3.078-.4-4.737v-5.578c.2.42.4.84.4 1.24zM22.666 41.015c0-.4-.2-1.02-.4-1.24.4.42.6.84.6 1.24V49.67c0 .2.4 1.22 1 1.22-1.2 0-1.4-1.02-1.4-1.64l.2-8.235zM28.982 65.44c0 1.34-.979 2.399-2.198 2.399-1.2 0-2.199-1.06-2.199-2.399 0-1.319 1-2.398 2.199-2.398 1.219 0 2.198 1.08 2.198 2.398z" fill="#fff" fill-rule="evenodd" fill-opacity="1" stroke="none"/><path d="M31.301 11.193c0-3.977 3.018-7.235 6.716-7.235 3.718 0 6.716 3.258 6.716 7.235 0 3.998-2.998 7.236-6.716 7.236-3.698 0-6.716-3.238-6.716-7.236z" fill="#8aabff" fill-rule="evenodd" fill-opacity="1" stroke="none"/><path clip-path="url(#a)" d="M31.301 11.193c0-3.977 3.018-7.235 6.716-7.235 3.718 0 6.716 3.258 6.716 7.235 0 3.998-2.998 7.236-6.716 7.236-3.698 0-6.716-3.238-6.716-7.236" fill="none" stroke="#333" stroke-width=".79951543px" stroke-linecap="butt" stroke-linejoin="miter" stroke-miterlimit="8" stroke-dasharray="none" stroke-opacity="1"/><path d="m40.735 23.446.18.2c0 .22 0 .22.2.42v.2c0 .22.18.22.18.22v9.713c0 .62-.38 1.02-.94 1.02-.56 0-.939-.4-.939-1.02v-9.094c0-.42-.58-1.24-1.34-1.24-.939 0-1.518.82-1.518 1.24v9.094c0 .62-.38 1.02-.94 1.02-.38 0-.959-.4-.959-1.02v-9.094c0-.22 0-.42.2-.62v-.22s0-.2.18-.2v-.2c.2-.22.2-.42.2-.42l.18-.22c0-.199.2-.399.38-.399 0-.22.2-.22.2-.42h.18c0-.2.199-.2.379-.2v-.22c.2 0 .38-.2.38-.2V18.27c0-.4.38-1.04.959-1.04.56 0 .94.64.94 1.04v3.518c.58.2 1.139.62 1.718 1.239v.2c.18 0 .18.22.18.22z" fill="#0031bc" fill-rule="evenodd" fill-opacity="1" stroke="none"/><path d="M35.059 33.76v-9.095s.16 3.098.32 4.757v5.557c-.16-.4-.32-.82-.32-1.22zM39.796 33.74c0 .42.2 1.039.38 1.239-.38-.4-.56-.82-.56-1.24v-8.694c0-.22-.38-1.26-.96-1.26 1.14 0 1.34 1.04 1.34 1.66l-.2 8.295zM33.46 9.274c0-1.299 1-2.358 2.198-2.358 1.22 0 2.2 1.06 2.2 2.358 0 1.32-.98 2.359-2.2 2.359-1.199 0-2.198-1.04-2.198-2.359z" fill="#fff" fill-rule="evenodd" fill-opacity="1" stroke="none"/><path d="M44.973 63.482c0 3.997-2.998 7.235-6.716 7.235-3.698 0-6.716-3.238-6.716-7.235 0-3.978 3.018-7.236 6.716-7.236 3.718 0 6.716 3.258 6.716 7.236z" fill="#8aabff" fill-rule="evenodd" fill-opacity="1" stroke="none"/><path clip-path="url(#a)" d="M44.973 63.482c0 3.997-2.998 7.235-6.716 7.235-3.698 0-6.716-3.238-6.716-7.235 0-3.978 3.018-7.236 6.716-7.236 3.718 0 6.716 3.258 6.716 7.236" fill="none" stroke="#333" stroke-width=".79951543px" stroke-linecap="butt" stroke-linejoin="miter" stroke-miterlimit="8" stroke-dasharray="none" stroke-opacity="1"/><path d="m35.558 51.329-.18-.2c0-.22 0-.22-.2-.42v-.2c0-.22-.2-.22-.2-.22V40.576c0-.62.4-1.039.96-1.039.58 0 .96.42.96 1.04v9.094c0 .42.58 1.24 1.359 1.24.96 0 1.519-.82 1.519-1.24v-9.095c0-.62.4-1.039.96-1.039.4 0 .959.42.959 1.04v9.094c0 .22 0 .42-.18.62v.22s0 .2-.2.2v.2c-.18.219-.18.419-.18.419l-.2.2c0 .22-.2.42-.38.42 0 .22-.2.22-.2.42h-.18c0 .2-.2.2-.4.2v.219c-.179 0-.379.2-.379.2v3.518c0 .4-.38 1.02-.96 1.02-.579 0-.959-.62-.959-1.02v-3.518c-.58-.2-1.139-.62-1.719-1.24v-.22c-.2 0-.2-.2-.2-.2z" fill="#0031bc" fill-rule="evenodd" fill-opacity="1" stroke="none"/><path d="M41.295 41.015v9.075s-.2-3.078-.4-4.737v-5.578c.2.42.4.84.4 1.24zM36.558 41.015c0-.4-.18-1.02-.38-1.24.38.42.58.84.58 1.24V49.67c0 .2.38 1.22.94 1.22-1.14 0-1.32-1.02-1.32-1.64l.18-8.235zM42.814 65.44c0 1.34-.96 2.399-2.159 2.399-1.179 0-2.158-1.06-2.158-2.399 0-1.319.98-2.398 2.158-2.398 1.2 0 2.16 1.08 2.16 2.398z" fill="#fff" fill-rule="evenodd" fill-opacity="1" stroke="none"/><path d="M45.452 11.193c0-3.977 2.999-7.235 6.676-7.235 3.698 0 6.676 3.258 6.676 7.235 0 3.998-2.978 7.236-6.676 7.236-3.677 0-6.676-3.238-6.676-7.236z" fill="#8aabff" fill-rule="evenodd" fill-opacity="1" stroke="none"/><path clip-path="url(#a)" d="M45.452 11.193c0-3.977 2.999-7.235 6.676-7.235 3.698 0 6.676 3.258 6.676 7.235 0 3.998-2.978 7.236-6.676 7.236-3.677 0-6.676-3.238-6.676-7.236" fill="none" stroke="#333" stroke-width=".79951543px" stroke-linecap="butt" stroke-linejoin="miter" stroke-miterlimit="8" stroke-dasharray="none" stroke-opacity="1"/><path d="m54.807 23.446.18.2c0 .22 0 .22.2.42v.2c0 .22.18.22.18.22v9.713c0 .62-.38 1.02-.94 1.02-.56 0-.94-.4-.94-1.02v-9.094c0-.42-.58-1.24-1.339-1.24-.939 0-1.519.82-1.519 1.24v9.094c0 .62-.38 1.02-.94 1.02-.379 0-.959-.4-.959-1.02v-9.094c0-.22 0-.42.2-.62v-.22s0-.2.18-.2v-.2c.2-.22.2-.42.2-.42l.18-.22c0-.199.2-.399.38-.399 0-.22.2-.22.2-.42h.18c0-.2.2-.2.38-.2v-.22c.2 0 .38-.2.38-.2V18.27c0-.4.379-1.04.959-1.04.56 0 .939.64.939 1.04v3.518c.58.2 1.14.62 1.719 1.239v.2c.18 0 .18.22.18.22z" fill="#0031bc" fill-rule="evenodd" fill-opacity="1" stroke="none"/><path d="M49.13 33.76v-9.095s.16 3.098.32 4.757v5.557c-.16-.4-.32-.82-.32-1.22zM53.867 33.74c0 .42.2 1.039.38 1.239-.38-.4-.56-.82-.56-1.24v-8.694c0-.22-.38-1.26-.959-1.26 1.14 0 1.34 1.04 1.34 1.66l-.2 8.295zM47.531 9.274c0-1.299 1-2.358 2.199-2.358 1.22 0 2.199 1.06 2.199 2.358 0 1.32-.98 2.359-2.2 2.359-1.198 0-2.198-1.04-2.198-2.359z" fill="#fff" fill-rule="evenodd" fill-opacity="1" stroke="none"/><path d="M59.044 63.482c0 3.997-2.998 7.235-6.716 7.235-3.697 0-6.716-3.238-6.716-7.235 0-3.978 3.019-7.236 6.716-7.236 3.718 0 6.716 3.258 6.716 7.236z" fill="#8aabff" fill-rule="evenodd" fill-opacity="1" stroke="none"/><path clip-path="url(#a)" d="M59.044 63.482c0 3.997-2.998 7.235-6.716 7.235-3.697 0-6.716-3.238-6.716-7.235 0-3.978 3.019-7.236 6.716-7.236 3.718 0 6.716 3.258 6.716 7.236" fill="none" stroke="#333" stroke-width=".79951543px" stroke-linecap="butt" stroke-linejoin="miter" stroke-miterlimit="8" stroke-dasharray="none" stroke-opacity="1"/><path d="m49.63 51.329-.18-.2c0-.22 0-.22-.2-.42v-.2c0-.22-.2-.22-.2-.22V40.576c0-.62.4-1.039.96-1.039.58 0 .96.42.96 1.04v9.094c0 .42.579 1.24 1.358 1.24.96 0 1.52-.82 1.52-1.24v-9.095c0-.62.4-1.039.959-1.039.4 0 .96.42.96 1.04v9.094c0 .22 0 .42-.18.62v.22s0 .2-.2.2v.2c-.18.219-.18.419-.18.419l-.2.2c0 .22-.2.42-.38.42 0 .22-.2.22-.2.42h-.18c0 .2-.2.2-.4.2v.219c-.18 0-.38.2-.38.2v3.518c0 .4-.38 1.02-.959 1.02-.58 0-.96-.62-.96-1.02v-3.518c-.579-.2-1.139-.62-1.718-1.24v-.22c-.2 0-.2-.2-.2-.2z" fill="#0031bc" fill-rule="evenodd" fill-opacity="1" stroke="none"/><path d="M55.366 41.015v9.075s-.2-3.078-.4-4.737v-5.578c.2.42.4.84.4 1.24zM50.63 41.015c0-.4-.18-1.02-.38-1.24.38.42.58.84.58 1.24V49.67c0 .2.379 1.22.939 1.22-1.14 0-1.32-1.02-1.32-1.64l.18-8.235zM56.886 65.44c0 1.34-.96 2.399-2.16 2.399-1.178 0-2.158-1.06-2.158-2.399 0-1.319.98-2.398 2.159-2.398 1.2 0 2.159 1.08 2.159 2.398z" fill="#fff" fill-rule="evenodd" fill-opacity="1" stroke="none"/><path d="M60.164 10.793c0-3.977 3.018-7.235 6.715-7.235 3.718 0 6.716 3.258 6.716 7.235 0 3.998-2.998 7.236-6.716 7.236-3.697 0-6.715-3.238-6.715-7.236z" fill="#8aabff" fill-rule="evenodd" fill-opacity="1" stroke="none"/><path clip-path="url(#a)" d="M60.164 10.793c0-3.977 3.018-7.235 6.715-7.235 3.718 0 6.716 3.258 6.716 7.235 0 3.998-2.998 7.236-6.716 7.236-3.697 0-6.715-3.238-6.715-7.236" fill="none" stroke="#333" stroke-width=".79951543px" stroke-linecap="butt" stroke-linejoin="miter" stroke-miterlimit="8" stroke-dasharray="none" stroke-opacity="1"/><path d="m69.518 23.006.18.22c0 .2 0 .2.2.4v.22c0 .2.18.2.18.2v9.674c0 .62-.38 1.019-.94 1.019-.56 0-.94-.4-.94-1.02v-9.054c0-.42-.579-1.24-1.339-1.24-.939 0-1.519.82-1.519 1.24v9.055c0 .62-.38 1.019-.939 1.019-.38 0-.96-.4-.96-1.02v-9.054c0-.2 0-.42.2-.62v-.2s0-.22.18-.22v-.2c.2-.2.2-.419.2-.419l.18-.2c0-.2.2-.4.38-.4 0-.22.2-.22.2-.42h.18c0-.2.2-.2.38-.2v-.22c.2 0 .38-.199.38-.199v-3.498c0-.42.379-1.04.959-1.04.56 0 .939.62.939 1.04v3.498c.58.2 1.14.62 1.719 1.24v.2c.18 0 .18.2.18.2z" fill="#0031bc" fill-rule="evenodd" fill-opacity="1" stroke="none"/><path d="M63.841 33.28v-9.015s.2 3.078.4 4.717V34.5c-.2-.4-.4-.8-.4-1.22zM68.578 33.28c0 .4.2 1.02.38 1.22-.38-.4-.56-.82-.56-1.22V24.625c0-.2-.38-1.24-.959-1.24 1.14 0 1.34 1.04 1.34 1.66l-.2 8.235zM62.322 8.875c0-1.3.98-2.359 2.159-2.359 1.2 0 2.159 1.06 2.159 2.359 0 1.319-.96 2.358-2.16 2.358-1.178 0-2.158-1.04-2.158-2.358z" fill="#fff" fill-rule="evenodd" fill-opacity="1" stroke="none"/><path d="M73.755 63.082c0 3.997-2.998 7.235-6.716 7.235-3.697 0-6.716-3.238-6.716-7.235 0-3.978 3.019-7.236 6.716-7.236 3.718 0 6.716 3.258 6.716 7.236z" fill="#8aabff" fill-rule="evenodd" fill-opacity="1" stroke="none"/><path clip-path="url(#a)" d="M73.755 63.082c0 3.997-2.998 7.235-6.716 7.235-3.697 0-6.716-3.238-6.716-7.235 0-3.978 3.019-7.236 6.716-7.236 3.718 0 6.716 3.258 6.716 7.236" fill="none" stroke="#333" stroke-width=".79951543px" stroke-linecap="butt" stroke-linejoin="miter" stroke-miterlimit="8" stroke-dasharray="none" stroke-opacity="1"/><path d="m64.421 50.89-.2-.22c0-.2 0-.2-.18-.4v-.22c0-.2-.2-.2-.2-.2v-9.674c0-.62.38-1.04.96-1.04.56 0 .94.42.94 1.04v9.054c0 .42.579 1.24 1.338 1.24.94 0 1.52-.82 1.52-1.24v-9.054c0-.62.38-1.04.939-1.04.38 0 .94.42.94 1.04v9.054c0 .2 0 .42-.18.62v.2s0 .22-.2.22v.2c-.18.2-.18.42-.18.42l-.18.199c0 .2-.2.4-.38.4 0 .22-.2.22-.2.42h-.18c0 .2-.2.2-.38.2v.22c-.2 0-.38.2-.38.2v3.497c0 .42-.38 1.02-.959 1.02-.56 0-.94-.6-.94-1.02v-3.498c-.579-.2-1.139-.62-1.718-1.24v-.199c-.18 0-.18-.2-.18-.2z" fill="#0031bc" fill-rule="evenodd" fill-opacity="1" stroke="none"/><path d="M70.078 40.535v9.075s-.2-3.078-.4-4.737v-5.577c.2.42.4.84.4 1.24zM65.34 40.555c0-.42-.18-1.039-.38-1.259.38.42.58.84.58 1.26v8.694c0 .22.38 1.24.94 1.24-1.14 0-1.32-1.02-1.32-1.64l.18-8.295zM71.597 65c0 1.32-.96 2.36-2.16 2.36-1.178 0-2.158-1.04-2.158-2.36 0-1.299.98-2.358 2.159-2.358 1.2 0 2.159 1.06 2.159 2.359z" fill="#fff" fill-rule="evenodd" fill-opacity="1" stroke="none"/><path d="M74.395 10.793c0-3.977 3.018-7.235 6.716-7.235 3.718 0 6.716 3.258 6.716 7.235 0 3.998-2.998 7.236-6.716 7.236-3.698 0-6.716-3.238-6.716-7.236z" fill="#8aabff" fill-rule="evenodd" fill-opacity="1" stroke="none"/><path clip-path="url(#a)" d="M74.395 10.793c0-3.977 3.018-7.235 6.716-7.235 3.718 0 6.716 3.258 6.716 7.235 0 3.998-2.998 7.236-6.716 7.236-3.698 0-6.716-3.238-6.716-7.236" fill="none" stroke="#333" stroke-width=".79951543px" stroke-linecap="butt" stroke-linejoin="miter" stroke-miterlimit="8" stroke-dasharray="none" stroke-opacity="1"/><path d="m83.83 23.006.18.22c0 .2 0 .2.199.4v.22c0 .2.18.2.18.2v9.674c0 .62-.38 1.019-.94 1.019-.56 0-.939-.4-.939-1.02v-9.054c0-.42-.58-1.24-1.34-1.24-.939 0-1.518.82-1.518 1.24v9.055c0 .62-.38 1.019-.94 1.019-.38 0-.96-.4-.96-1.02v-9.054c0-.2 0-.42.2-.62v-.2s0-.22.18-.22v-.2c.2-.2.2-.419.2-.419l.18-.2c0-.2.2-.4.38-.4 0-.22.2-.22.2-.42h.18c0-.2.2-.2.38-.2v-.22c.2 0 .38-.199.38-.199v-3.498c0-.42.38-1.04.959-1.04.56 0 .94.62.94 1.04v3.498c.579.2 1.139.62 1.718 1.24v.2c.18 0 .18.2.18.2z" fill="#0031bc" fill-rule="evenodd" fill-opacity="1" stroke="none"/><path d="M78.073 33.28v-9.015s.2 3.078.4 4.717V34.5c-.2-.4-.4-.8-.4-1.22zM82.89 33.28c0 .4.2 1.02.38 1.22-.38-.4-.56-.82-.56-1.22V24.625c0-.2-.38-1.24-.96-1.24 1.14 0 1.34 1.04 1.34 1.66l-.2 8.235zM76.554 8.875c0-1.3.999-2.359 2.198-2.359 1.22 0 2.199 1.06 2.199 2.359 0 1.319-.98 2.358-2.199 2.358-1.199 0-2.198-1.04-2.198-2.358z" fill="#fff" fill-rule="evenodd" fill-opacity="1" stroke="none"/><path d="M88.067 63.082c0 3.997-2.999 7.235-6.716 7.235-3.698 0-6.716-3.238-6.716-7.235 0-3.978 3.018-7.236 6.716-7.236 3.717 0 6.716 3.258 6.716 7.236z" fill="#8aabff" fill-rule="evenodd" fill-opacity="1" stroke="none"/><path clip-path="url(#a)" d="M88.067 63.082c0 3.997-2.999 7.235-6.716 7.235-3.698 0-6.716-3.238-6.716-7.235 0-3.978 3.018-7.236 6.716-7.236 3.717 0 6.716 3.258 6.716 7.236" fill="none" stroke="#333" stroke-width=".79951543px" stroke-linecap="butt" stroke-linejoin="miter" stroke-miterlimit="8" stroke-dasharray="none" stroke-opacity="1"/><path d="m78.652 50.89-.18-.22c0-.2 0-.2-.2-.4v-.22c0-.2-.2-.2-.2-.2v-9.674c0-.62.4-1.04.96-1.04.58 0 .96.42.96 1.04v9.054c0 .42.58 1.24 1.359 1.24.96 0 1.519-.82 1.519-1.24v-9.054c0-.62.4-1.04.96-1.04.399 0 .959.42.959 1.04v9.054c0 .2 0 .42-.18.62v.2s0 .22-.2.22v.2c-.18.2-.18.42-.18.42l-.2.199c0 .2-.2.4-.38.4 0 .22-.2.22-.2.42h-.18c0 .2-.2.2-.4.2v.22c-.18 0-.379.2-.379.2v3.497c0 .42-.38 1.02-.96 1.02s-.959-.6-.959-1.02v-3.498c-.58-.2-1.14-.62-1.719-1.24v-.199c-.2 0-.2-.2-.2-.2z" fill="#0031bc" fill-rule="evenodd" fill-opacity="1" stroke="none"/><path d="M84.389 40.535v9.075s-.2-3.078-.4-4.737v-5.577c.2.42.4.84.4 1.24zM79.652 40.555c0-.42-.18-1.039-.38-1.259.38.42.58.84.58 1.26v8.694c0 .22.38 1.24.939 1.24-1.14 0-1.32-1.02-1.32-1.64l.18-8.295zM85.908 65c0 1.32-.98 2.36-2.199 2.36-1.199 0-2.198-1.04-2.198-2.36 0-1.299.999-2.358 2.198-2.358 1.22 0 2.199 1.06 2.199 2.359z" fill="#fff" fill-rule="evenodd" fill-opacity="1" stroke="none"/><path d="M88.306 10.793c0-3.977 3.019-7.235 6.716-7.235 3.718 0 6.716 3.258 6.716 7.235 0 3.998-2.998 7.236-6.716 7.236-3.697 0-6.716-3.238-6.716-7.236z" fill="#8aabff" fill-rule="evenodd" fill-opacity="1" stroke="none"/><path clip-path="url(#a)" d="M88.306 10.793c0-3.977 3.019-7.235 6.716-7.235 3.718 0 6.716 3.258 6.716 7.235 0 3.998-2.998 7.236-6.716 7.236-3.697 0-6.716-3.238-6.716-7.236" fill="none" stroke="#333" stroke-width=".79951543px" stroke-linecap="butt" stroke-linejoin="miter" stroke-miterlimit="8" stroke-dasharray="none" stroke-opacity="1"/><path d="m97.66 23.006.18.22c0 .2 0 .2.2.4v.22c0 .2.18.2.18.2v9.674c0 .62-.38 1.019-.939 1.019-.56 0-.94-.4-.94-1.02v-9.054c0-.42-.579-1.24-1.339-1.24-.939 0-1.519.82-1.519 1.24v9.055c0 .62-.38 1.019-.94 1.019-.379 0-.959-.4-.959-1.02v-9.054c0-.2 0-.42.2-.62v-.2s0-.22.18-.22v-.2c.2-.2.2-.419.2-.419l.18-.2c0-.2.2-.4.38-.4 0-.22.2-.22.2-.42h.18c0-.2.2-.2.38-.2v-.22c.2 0 .38-.199.38-.199v-3.498c0-.42.379-1.04.959-1.04.56 0 .939.62.939 1.04v3.498c.58.2 1.14.62 1.719 1.24v.2c.18 0 .18.2.18.2z" fill="#0031bc" fill-rule="evenodd" fill-opacity="1" stroke="none"/><path d="M91.984 33.28v-9.015s.2 3.078.4 4.717V34.5c-.2-.4-.4-.8-.4-1.22zM96.721 33.28c0 .4.2 1.02.38 1.22-.38-.4-.56-.82-.56-1.22V24.625c0-.2-.38-1.24-.959-1.24 1.14 0 1.34 1.04 1.34 1.66l-.2 8.235zM90.465 8.875c0-1.3.98-2.359 2.159-2.359 1.2 0 2.159 1.06 2.159 2.359 0 1.319-.96 2.358-2.16 2.358-1.178 0-2.158-1.04-2.158-2.358z" fill="#fff" fill-rule="evenodd" fill-opacity="1" stroke="none"/><path d="M101.898 63.082c0 3.997-2.998 7.235-6.716 7.235-3.697 0-6.716-3.238-6.716-7.235 0-3.978 3.019-7.236 6.716-7.236 3.718 0 6.716 3.258 6.716 7.236z" fill="#8aabff" fill-rule="evenodd" fill-opacity="1" stroke="none"/><path clip-path="url(#a)" d="M101.898 63.082c0 3.997-2.998 7.235-6.716 7.235-3.697 0-6.716-3.238-6.716-7.235 0-3.978 3.019-7.236 6.716-7.236 3.718 0 6.716 3.258 6.716 7.236" fill="none" stroke="#333" stroke-width=".79951543px" stroke-linecap="butt" stroke-linejoin="miter" stroke-miterlimit="8" stroke-dasharray="none" stroke-opacity="1"/><path d="m92.564 50.89-.2-.22c0-.2 0-.2-.18-.4v-.22c0-.2-.2-.2-.2-.2v-9.674c0-.62.38-1.04.96-1.04.56 0 .94.42.94 1.04v9.054c0 .42.579 1.24 1.338 1.24.94 0 1.52-.82 1.52-1.24v-9.054c0-.62.38-1.04.939-1.04.38 0 .94.42.94 1.04v9.054c0 .2 0 .42-.18.62v.2s0 .22-.2.22v.2c-.18.2-.18.42-.18.42l-.18.199c0 .2-.2.4-.38.4 0 .22-.2.22-.2.42h-.18c0 .2-.2.2-.38.2v.22c-.2 0-.38.2-.38.2v3.497c0 .42-.38 1.02-.959 1.02-.56 0-.94-.6-.94-1.02v-3.498c-.579-.2-1.139-.62-1.718-1.24v-.199c-.18 0-.18-.2-.18-.2z" fill="#0031bc" fill-rule="evenodd" fill-opacity="1" stroke="none"/><path d="M98.22 40.535v9.075s-.2-3.078-.4-4.737v-5.577c.2.42.4.84.4 1.24zM93.483 40.555c0-.42-.18-1.039-.38-1.259.38.42.58.84.58 1.26v8.694c0 .22.38 1.24.94 1.24-1.14 0-1.32-1.02-1.32-1.64l.18-8.295zM99.74 65c0 1.32-.96 2.36-2.16 2.36-1.178 0-2.158-1.04-2.158-2.36 0-1.299.98-2.358 2.159-2.358 1.2 0 2.159 1.06 2.159 2.359z" fill="#fff" fill-rule="evenodd" fill-opacity="1" stroke="none"/><path d="M102.378 10.793c0-3.977 3.018-7.235 6.716-7.235 3.718 0 6.716 3.258 6.716 7.235 0 3.998-2.998 7.236-6.716 7.236-3.698 0-6.716-3.238-6.716-7.236z" fill="#8aabff" fill-rule="evenodd" fill-opacity="1" stroke="none"/><path clip-path="url(#a)" d="M102.378 10.793c0-3.977 3.018-7.235 6.716-7.235 3.718 0 6.716 3.258 6.716 7.235 0 3.998-2.998 7.236-6.716 7.236-3.698 0-6.716-3.238-6.716-7.236" fill="none" stroke="#333" stroke-width=".79951543px" stroke-linecap="butt" stroke-linejoin="miter" stroke-miterlimit="8" stroke-dasharray="none" stroke-opacity="1"/><path d="m111.732 23.006.18.22c0 .2 0 .2.2.4v.22c0 .2.18.2.18.2v9.674c0 .62-.38 1.019-.94 1.019-.56 0-.939-.4-.939-1.02v-9.054c0-.42-.58-1.24-1.34-1.24-.939 0-1.518.82-1.518 1.24v9.055c0 .62-.38 1.019-.94 1.019-.38 0-.959-.4-.959-1.02v-9.054c0-.2 0-.42.2-.62v-.2s0-.22.18-.22v-.2c.2-.2.2-.419.2-.419l.18-.2c0-.2.2-.4.38-.4 0-.22.2-.22.2-.42h.18c-.001-.2.199-.2.379-.2v-.22c.2 0 .38-.199.38-.199v-3.498c0-.42.38-1.04.959-1.04.56 0 .94.62.94 1.04v3.498c.58.2 1.139.62 1.718 1.24v.2c.18 0 .18.2.18.2z" fill="#0031bc" fill-rule="evenodd" fill-opacity="1" stroke="none"/><path d="M106.056 33.28v-9.015s.2 3.078.4 4.717V34.5c-.2-.4-.4-.8-.4-1.22zM110.793 33.28c0 .4.2 1.02.38 1.22-.38-.4-.56-.82-.56-1.22V24.625c0-.2-.38-1.24-.96-1.24 1.14 0 1.34 1.04 1.34 1.66l-.2 8.235zM104.537 8.875c0-1.3.98-2.359 2.158-2.359 1.2 0 2.159 1.06 2.159 2.359 0 1.319-.96 2.358-2.159 2.358-1.179 0-2.158-1.04-2.158-2.358z" fill="#fff" fill-rule="evenodd" fill-opacity="1" stroke="none"/><path d="M115.97 63.082c0 3.997-2.998 7.235-6.716 7.235-3.698 0-6.716-3.238-6.716-7.235 0-3.978 3.018-7.236 6.716-7.236 3.718 0 6.716 3.258 6.716 7.236z" fill="#8aabff" fill-rule="evenodd" fill-opacity="1" stroke="none"/><path clip-path="url(#a)" d="M115.97 63.082c0 3.997-2.998 7.235-6.716 7.235-3.698 0-6.716-3.238-6.716-7.235 0-3.978 3.018-7.236 6.716-7.236 3.718 0 6.716 3.258 6.716 7.236" fill="none" stroke="#333" stroke-width=".79951543px" stroke-linecap="butt" stroke-linejoin="miter" stroke-miterlimit="8" stroke-dasharray="none" stroke-opacity="1"/><path d="m106.635 50.89-.2-.22c0-.2 0-.2-.18-.4v-.22c0-.2-.2-.2-.2-.2v-9.674c0-.62.38-1.04.96-1.04.56 0 .94.42.94 1.04v9.054c0 .42.58 1.24 1.339 1.24.94 0 1.519-.82 1.519-1.24v-9.054c0-.62.38-1.04.94-1.04.379 0 .939.42.939 1.04v9.054c0 .2 0 .42-.18.62v.2s0 .22-.2.22v.2c-.18.2-.18.42-.18.42l-.18.199c0 .2-.2.4-.38.4 0 .22-.2.22-.2.42h-.18c0 .2-.2.2-.38.2v.22c-.199 0-.379.2-.379.2v3.497c0 .42-.38 1.02-.96 1.02-.559 0-.939-.6-.939-1.02v-3.498c-.58-.2-1.14-.62-1.719-1.24v-.199c-.18 0-.18-.2-.18-.2z" fill="#0031bc" fill-rule="evenodd" fill-opacity="1" stroke="none"/><path d="M112.292 40.535v9.075s-.16-3.078-.32-4.737v-5.577c.16.42.32.84.32 1.24zM107.555 40.555c0-.42-.18-1.039-.38-1.259.38.42.58.84.58 1.26v8.694c0 .22.38 1.24.94 1.24-1.14 0-1.32-1.02-1.32-1.64l.18-8.295zM113.811 65c0 1.32-.96 2.36-2.159 2.36-1.179 0-2.158-1.04-2.158-2.36 0-1.299.98-2.358 2.158-2.358 1.2 0 2.159 1.06 2.159 2.359z" fill="#fff" fill-rule="evenodd" fill-opacity="1" stroke="none"/><path d="M117.089 10.793c0-3.977 3.018-7.235 6.716-7.235 3.718 0 6.716 3.258 6.716 7.235 0 3.998-2.998 7.236-6.716 7.236-3.698 0-6.716-3.238-6.716-7.236z" fill="#8aabff" fill-rule="evenodd" fill-opacity="1" stroke="none"/><path clip-path="url(#a)" d="M117.089 10.793c0-3.977 3.018-7.235 6.716-7.235 3.718 0 6.716 3.258 6.716 7.235 0 3.998-2.998 7.236-6.716 7.236-3.698 0-6.716-3.238-6.716-7.236" fill="none" stroke="#333" stroke-width=".79951543px" stroke-linecap="butt" stroke-linejoin="miter" stroke-miterlimit="8" stroke-dasharray="none" stroke-opacity="1"/><path d="m126.523 23.006.18.22c0 .2 0 .2.2.4v.22c0 .2.18.2.18.2v9.674c0 .62-.38 1.019-.96 1.019-.56 0-.959-.4-.959-1.02v-9.054c0-.42-.56-1.24-1.34-1.24-.958 0-1.538.82-1.538 1.24v9.055c0 .62-.38 1.019-.96 1.019-.38 0-.959-.4-.959-1.02v-9.054c0-.2 0-.42.2-.62v-.2s0-.22.2-.22v-.2c.18-.2.18-.419.18-.419l.2-.2c0-.2.18-.4.38-.4 0-.22.2-.22.2-.42h.18c0-.2.199-.2.379-.2v-.22c.2 0 .4-.199.4-.199v-3.498c0-.42.38-1.04.96-1.04.559 0 .958.62.958 1.04v3.498c.56.2 1.14.62 1.72 1.24v.2c.2 0 .2.2.2.2z" fill="#0031bc" fill-rule="evenodd" fill-opacity="1" stroke="none"/><path d="M120.767 33.28v-9.015s.2 3.078.4 4.717V34.5c-.2-.4-.4-.8-.4-1.22zM125.504 33.28c0 .4.2 1.02.38 1.22-.38-.4-.56-.82-.56-1.22V24.625c0-.2-.38-1.24-.96-1.24 1.14 0 1.34 1.04 1.34 1.66l-.2 8.235zM119.248 8.875c0-1.3.98-2.359 2.158-2.359 1.2 0 2.16 1.06 2.16 2.359 0 1.319-.96 2.358-2.16 2.358-1.179 0-2.158-1.04-2.158-2.358z" fill="#fff" fill-rule="evenodd" fill-opacity="1" stroke="none"/><path d="M130.76 63.082c0 3.997-2.997 7.235-6.715 7.235-3.698 0-6.716-3.238-6.716-7.235 0-3.978 3.018-7.236 6.716-7.236 3.718 0 6.716 3.258 6.716 7.236z" fill="#8aabff" fill-rule="evenodd" fill-opacity="1" stroke="none"/><path clip-path="url(#a)" d="M130.76 63.082c0 3.997-2.997 7.235-6.715 7.235-3.698 0-6.716-3.238-6.716-7.235 0-3.978 3.018-7.236 6.716-7.236 3.718 0 6.716 3.258 6.716 7.236" fill="none" stroke="#333" stroke-width=".79951543px" stroke-linecap="butt" stroke-linejoin="miter" stroke-miterlimit="8" stroke-dasharray="none" stroke-opacity="1"/><path d="m121.346 50.89-.2-.22c0-.2 0-.2-.18-.4v-.22c0-.2-.2-.2-.2-.2v-9.674c0-.62.38-1.04.96-1.04.56 0 .94.42.94 1.04v9.054c0 .42.58 1.24 1.339 1.24.94 0 1.519-.82 1.519-1.24v-9.054c0-.62.38-1.04.94-1.04.38 0 .939.42.939 1.04v9.054c0 .2 0 .42-.18.62v.2s0 .22-.2.22v.2c-.18.2-.18.42-.18.42l-.18.199c0 .2-.2.4-.38.4 0 .22-.2.22-.2.42h-.18c0 .2-.2.2-.38.2v.22c-.199 0-.379.2-.379.2v3.497c0 .42-.38 1.02-.96 1.02-.559 0-.939-.6-.939-1.02v-3.498c-.58-.2-1.139-.62-1.719-1.24v-.199c-.18 0-.18-.2-.18-.2z" fill="#0031bc" fill-rule="evenodd" fill-opacity="1" stroke="none"/><path d="M127.003 40.535v9.075s-.16-3.078-.32-4.737v-5.577c.16.42.32.84.32 1.24zM122.266 40.555c0-.42-.18-1.039-.38-1.259.38.42.58.84.58 1.26v8.694c0 .22.38 1.24.94 1.24-1.14 0-1.32-1.02-1.32-1.64l.18-8.295zM128.602 65c0 1.32-.98 2.36-2.199 2.36-1.199 0-2.198-1.04-2.198-2.36 0-1.299 1-2.358 2.198-2.358 1.22 0 2.2 1.06 2.2 2.359z" fill="#fff" fill-rule="evenodd" fill-opacity="1" stroke="none"/><path d="M131.4 10.793c0-3.977 3.019-7.235 6.716-7.235 3.718 0 6.716 3.258 6.716 7.235 0 3.998-2.998 7.236-6.716 7.236-3.697 0-6.716-3.238-6.716-7.236z" fill="#8aabff" fill-rule="evenodd" fill-opacity="1" stroke="none"/><path clip-path="url(#a)" d="M131.4 10.793c0-3.977 3.019-7.235 6.716-7.235 3.718 0 6.716 3.258 6.716 7.235 0 3.998-2.998 7.236-6.716 7.236-3.697 0-6.716-3.238-6.716-7.236" fill="none" stroke="#333" stroke-width=".79951543px" stroke-linecap="butt" stroke-linejoin="miter" stroke-miterlimit="8" stroke-dasharray="none" stroke-opacity="1"/><path d="m140.755 23.006.18.22c0 .2 0 .2.2.4v.22c0 .2.18.2.18.2v9.674c0 .62-.38 1.019-.94 1.019-.56 0-.94-.4-.94-1.02v-9.054c0-.42-.58-1.24-1.339-1.24-.94 0-1.519.82-1.519 1.24v9.055c0 .62-.38 1.019-.94 1.019-.379 0-.959-.4-.959-1.02v-9.054c0-.2 0-.42.2-.62v-.2s0-.22.18-.22v-.2c.2-.2.2-.419.2-.419l.18-.2c0-.2.2-.4.38-.4 0-.22.2-.22.2-.42h.18c0-.2.2-.2.38-.2v-.22c.2 0 .379-.199.379-.199v-3.498c0-.42.38-1.04.96-1.04.56 0 .939.62.939 1.04v3.498c.58.2 1.14.62 1.719 1.24v.2c.18 0 .18.2.18.2z" fill="#0031bc" fill-rule="evenodd" fill-opacity="1" stroke="none"/><path d="M135.078 33.28v-9.015s.16 3.078.32 4.717V34.5c-.16-.4-.32-.8-.32-1.22zM139.815 33.28c0 .4.2 1.02.38 1.22-.38-.4-.56-.82-.56-1.22V24.625c0-.2-.38-1.24-.959-1.24 1.14 0 1.34 1.04 1.34 1.66l-.2 8.235zM133.48 8.875c0-1.3.999-2.359 2.198-2.359 1.219 0 2.198 1.06 2.198 2.359 0 1.319-.979 2.358-2.198 2.358-1.2 0-2.199-1.04-2.199-2.358z" fill="#fff" fill-rule="evenodd" fill-opacity="1" stroke="none"/><path d="M144.992 63.082c0 3.997-2.998 7.235-6.716 7.235-3.698 0-6.716-3.238-6.716-7.235 0-3.978 3.018-7.236 6.716-7.236 3.718 0 6.716 3.258 6.716 7.236z" fill="#8aabff" fill-rule="evenodd" fill-opacity="1" stroke="none"/><path clip-path="url(#a)" d="M144.992 63.082c0 3.997-2.998 7.235-6.716 7.235-3.698 0-6.716-3.238-6.716-7.235 0-3.978 3.018-7.236 6.716-7.236 3.718 0 6.716 3.258 6.716 7.236" fill="none" stroke="#333" stroke-width=".79951543px" stroke-linecap="butt" stroke-linejoin="miter" stroke-miterlimit="8" stroke-dasharray="none" stroke-opacity="1"/><path d="m135.658 50.89-.2-.22c0-.2 0-.2-.18-.4v-.22c0-.2-.2-.2-.2-.2v-9.674c0-.62.38-1.04.96-1.04.56 0 .939.42.939 1.04v9.054c0 .42.58 1.24 1.34 1.24.939 0 1.518-.82 1.518-1.24v-9.054c0-.62.38-1.04.94-1.04.38 0 .94.42.94 1.04v9.054c0 .2 0 .42-.18.62v.2s0 .22-.2.22v.2c-.18.2-.18.42-.18.42l-.18.199c0 .2-.2.4-.38.4 0 .22-.2.22-.2.42h-.18c0 .2-.2.2-.38.2v.22c-.2 0-.38.2-.38.2v3.497c0 .42-.38 1.02-.959 1.02-.56 0-.94-.6-.94-1.02v-3.498c-.579-.2-1.139-.62-1.718-1.24v-.199c-.18 0-.18-.2-.18-.2z" fill="#0031bc" fill-rule="evenodd" fill-opacity="1" stroke="none"/><path d="M141.314 40.535v9.075s-.2-3.078-.4-4.737v-5.577c.2.42.4.84.4 1.24zM136.577 40.555c0-.42-.18-1.039-.38-1.259.38.42.58.84.58 1.26v8.694c0 .22.38 1.24.94 1.24-1.14 0-1.32-1.02-1.32-1.64l.18-8.295zM142.833 65c0 1.32-.959 2.36-2.158 2.36-1.18 0-2.159-1.04-2.159-2.36 0-1.299.98-2.358 2.159-2.358 1.199 0 2.158 1.06 2.158 2.359z" fill="#fff" fill-rule="evenodd" fill-opacity="1" stroke="none"/><path d="M145.232 10.793c0-3.977 3.018-7.235 6.716-7.235 3.718 0 6.716 3.258 6.716 7.235 0 3.998-2.998 7.236-6.716 7.236-3.698 0-6.716-3.238-6.716-7.236z" fill="#8aabff" fill-rule="evenodd" fill-opacity="1" stroke="none"/><path clip-path="url(#a)" d="M145.232 10.793c0-3.977 3.018-7.235 6.716-7.235 3.718 0 6.716 3.258 6.716 7.235 0 3.998-2.998 7.236-6.716 7.236-3.698 0-6.716-3.238-6.716-7.236" fill="none" stroke="#333" stroke-width=".79951543px" stroke-linecap="butt" stroke-linejoin="miter" stroke-miterlimit="8" stroke-dasharray="none" stroke-opacity="1"/><path d="m154.666 23.006.18.22c0 .2 0 .2.2.4v.22c0 .2.18.2.18.2v9.674c0 .62-.38 1.019-.96 1.019-.56 0-.959-.4-.959-1.02v-9.054c0-.42-.56-1.24-1.34-1.24-.959 0-1.538.82-1.538 1.24v9.055c0 .62-.38 1.019-.96 1.019-.38 0-.959-.4-.959-1.02v-9.054c0-.2 0-.42.2-.62v-.2s0-.22.2-.22v-.2c.18-.2.18-.419.18-.419l.2-.2c0-.2.18-.4.38-.4 0-.22.2-.22.2-.42h.18c0-.2.199-.2.379-.2v-.22c.2 0 .4-.199.4-.199v-3.498c0-.42.38-1.04.959-1.04.56 0 .96.62.96 1.04v3.498c.56.2 1.139.62 1.718 1.24v.2c.2 0 .2.2.2.2z" fill="#0031bc" fill-rule="evenodd" fill-opacity="1" stroke="none"/><path d="M148.91 33.28v-9.015s.2 3.078.4 4.717V34.5c-.2-.4-.4-.8-.4-1.22zM153.647 33.28c0 .4.2 1.02.38 1.22-.38-.4-.56-.82-.56-1.22V24.625c0-.2-.38-1.24-.96-1.24 1.14 0 1.34 1.04 1.34 1.66l-.2 8.235zM147.39 8.875c0-1.3 1-2.359 2.2-2.359 1.219 0 2.198 1.06 2.198 2.359 0 1.319-.98 2.358-2.199 2.358-1.199 0-2.198-1.04-2.198-2.358z" fill="#fff" fill-rule="evenodd" fill-opacity="1" stroke="none"/><path d="M158.904 63.082c0 3.997-2.998 7.235-6.716 7.235-3.698 0-6.716-3.238-6.716-7.235 0-3.978 3.018-7.236 6.716-7.236 3.718 0 6.716 3.258 6.716 7.236z" fill="#8aabff" fill-rule="evenodd" fill-opacity="1" stroke="none"/><path clip-path="url(#a)" d="M158.904 63.082c0 3.997-2.998 7.235-6.716 7.235-3.698 0-6.716-3.238-6.716-7.235 0-3.978 3.018-7.236 6.716-7.236 3.718 0 6.716 3.258 6.716 7.236" fill="none" stroke="#333" stroke-width=".79951543px" stroke-linecap="butt" stroke-linejoin="miter" stroke-miterlimit="8" stroke-dasharray="none" stroke-opacity="1"/><path d="m149.49 50.89-.2-.22c0-.2 0-.2-.18-.4v-.22c0-.2-.2-.2-.2-.2v-9.674c0-.62.38-1.04.96-1.04.559 0 .939.42.939 1.04v9.054c0 .42.58 1.24 1.339 1.24.94 0 1.519-.82 1.519-1.24v-9.054c0-.62.38-1.04.94-1.04.38 0 .939.42.939 1.04v9.054c0 .2 0 .42-.18.62v.2s0 .22-.2.22v.2c-.18.2-.18.42-.18.42l-.18.199c0 .2-.2.4-.38.4 0 .22-.2.22-.2.42h-.18c0 .2-.2.2-.38.2v.22c-.199 0-.379.2-.379.2v3.497c0 .42-.38 1.02-.96 1.02-.559 0-.939-.6-.939-1.02v-3.498c-.58-.2-1.14-.62-1.719-1.24v-.199c-.18 0-.18-.2-.18-.2z" fill="#0031bc" fill-rule="evenodd" fill-opacity="1" stroke="none"/><path d="M155.226 40.535v9.075s-.2-3.078-.4-4.737v-5.577c.2.42.4.84.4 1.24zM150.409 40.555c0-.42-.18-1.039-.38-1.259.38.42.58.84.58 1.26v8.694c0 .22.38 1.24.94 1.24-1.14 0-1.32-1.02-1.32-1.64l.18-8.295zM156.745 65c0 1.32-.98 2.36-2.199 2.36-1.199 0-2.198-1.04-2.198-2.36 0-1.299 1-2.358 2.198-2.358 1.22 0 2.199 1.06 2.199 2.359z" fill="#fff" fill-rule="evenodd" fill-opacity="1" stroke="none"/><path d="M159.303 10.793c0-3.977 3.019-7.235 6.716-7.235 3.718 0 6.716 3.258 6.716 7.235 0 3.998-2.998 7.236-6.716 7.236-3.697 0-6.716-3.238-6.716-7.236z" fill="#8aabff" fill-rule="evenodd" fill-opacity="1" stroke="none"/><path clip-path="url(#a)" d="M159.303 10.793c0-3.977 3.019-7.235 6.716-7.235 3.718 0 6.716 3.258 6.716 7.235 0 3.998-2.998 7.236-6.716 7.236-3.697 0-6.716-3.238-6.716-7.236" fill="none" stroke="#333" stroke-width=".79951543px" stroke-linecap="butt" stroke-linejoin="miter" stroke-miterlimit="8" stroke-dasharray="none" stroke-opacity="1"/><path d="m168.738 23.006.18.22c0 .2 0 .2.2.4v.22c0 .2.18.2.18.2v9.674c0 .62-.38 1.019-.96 1.019-.56 0-.96-.4-.96-1.02v-9.054c0-.42-.56-1.24-1.339-1.24-.959 0-1.539.82-1.539 1.24v9.055c0 .62-.38 1.019-.96 1.019-.379 0-.959-.4-.959-1.02v-9.054c0-.2 0-.42.2-.62v-.2s0-.22.2-.22v-.2c.18-.2.18-.419.18-.419l.2-.2c0-.2.18-.4.38-.4 0-.22.2-.22.2-.42h.18c0-.2.2-.2.38-.2v-.22c.2 0 .4-.199.4-.199v-3.498c0-.42.379-1.04.958-1.04.56 0 .96.62.96 1.04v3.498c.56.2 1.14.62 1.719 1.24v.2c.2 0 .2.2.2.2z" fill="#0031bc" fill-rule="evenodd" fill-opacity="1" stroke="none"/><path d="M162.981 33.28v-9.015s.2 3.078.4 4.717V34.5c-.2-.4-.4-.8-.4-1.22zM167.718 33.28c0 .4.2 1.02.38 1.22-.38-.4-.56-.82-.56-1.22V24.625c0-.2-.38-1.24-.959-1.24 1.14 0 1.34 1.04 1.34 1.66l-.2 8.235zM161.462 8.875c0-1.3 1-2.359 2.199-2.359 1.22 0 2.198 1.06 2.198 2.359 0 1.319-.979 2.358-2.198 2.358-1.2 0-2.199-1.04-2.199-2.358z" fill="#fff" fill-rule="evenodd" fill-opacity="1" stroke="none"/><path d="M172.975 63.082c0 3.997-2.998 7.235-6.716 7.235-3.698 0-6.716-3.238-6.716-7.235 0-3.978 3.018-7.236 6.716-7.236 3.718 0 6.716 3.258 6.716 7.236z" fill="#8aabff" fill-rule="evenodd" fill-opacity="1" stroke="none"/><path clip-path="url(#a)" d="M172.975 63.082c0 3.997-2.998 7.235-6.716 7.235-3.698 0-6.716-3.238-6.716-7.235 0-3.978 3.018-7.236 6.716-7.236 3.718 0 6.716 3.258 6.716 7.236" fill="none" stroke="#333" stroke-width=".79951543px" stroke-linecap="butt" stroke-linejoin="miter" stroke-miterlimit="8" stroke-dasharray="none" stroke-opacity="1"/><path d="m163.56 50.89-.199-.22c0-.2 0-.2-.18-.4v-.22c0-.2-.2-.2-.2-.2v-9.674c0-.62.38-1.04.96-1.04.56 0 .94.42.94 1.04v9.054c0 .42.579 1.24 1.338 1.24.94 0 1.52-.82 1.52-1.24v-9.054c0-.62.38-1.04.939-1.04.38 0 .94.42.94 1.04v9.054c0 .2 0 .42-.18.62v.2s0 .22-.2.22v.2c-.18.2-.18.42-.18.42l-.18.199c0 .2-.2.4-.38.4 0 .22-.2.22-.2.42h-.18c0 .2-.2.2-.38.2v.22c-.2 0-.38.2-.38.2v3.497c0 .42-.38 1.02-.959 1.02-.56 0-.94-.6-.94-1.02v-3.498c-.579-.2-1.139-.62-1.718-1.24v-.199c-.18 0-.18-.2-.18-.2z" fill="#0031bc" fill-rule="evenodd" fill-opacity="1" stroke="none"/><path d="M169.297 40.535v9.075s-.2-3.078-.4-4.737v-5.577c.2.42.4.84.4 1.24zM164.48 40.555c0-.42-.18-1.039-.38-1.259.38.42.58.84.58 1.26v8.694c0 .22.38 1.24.94 1.24-1.14 0-1.32-1.02-1.32-1.64l.18-8.295zM170.816 65c0 1.32-.979 2.36-2.198 2.36-1.2 0-2.199-1.04-2.199-2.36 0-1.299 1-2.358 2.199-2.358 1.22 0 2.198 1.06 2.198 2.359z" fill="#fff" fill-rule="evenodd" fill-opacity="1" stroke="none"/><path d="M174.015 10.394c0-3.978 3.018-7.236 6.715-7.236 3.718 0 6.716 3.258 6.716 7.236 0 3.997-2.998 7.235-6.716 7.235-3.697 0-6.715-3.238-6.715-7.235z" fill="#8aabff" fill-rule="evenodd" fill-opacity="1" stroke="none"/><path clip-path="url(#a)" d="M174.015 10.394c0-3.978 3.018-7.236 6.715-7.236 3.718 0 6.716 3.258 6.716 7.236 0 3.997-2.998 7.235-6.716 7.235-3.697 0-6.715-3.238-6.715-7.235" fill="none" stroke="#333" stroke-width=".79951543px" stroke-linecap="butt" stroke-linejoin="miter" stroke-miterlimit="8" stroke-dasharray="none" stroke-opacity="1"/><path d="m183.449 22.566.18.2c0 .22 0 .22.2.42v.2c0 .22.18.22.18.22V33.32c0 .62-.38 1.02-.96 1.02-.56 0-.96-.4-.96-1.02v-9.095c0-.42-.559-1.239-1.339-1.239-.959 0-1.539.82-1.539 1.24v9.094c0 .62-.38 1.02-.959 1.02-.38 0-.96-.4-.96-1.02v-9.095c0-.22 0-.42.2-.62v-.22s0-.2.2-.2v-.199c.18-.22.18-.42.18-.42l.2-.22c0-.2.18-.4.38-.4 0-.22.2-.22.2-.419h.18c0-.2.2-.2.38-.2v-.22c.2 0 .4-.2.4-.2V17.39c0-.4.379-1.039.959-1.039.56 0 .959.64.959 1.04v3.517c.56.2 1.14.62 1.719 1.24v.2c.2 0 .2.22.2.22z" fill="#0031bc" fill-rule="evenodd" fill-opacity="1" stroke="none"/><path d="M177.692 32.88v-9.094s.2 3.098.4 4.757V34.1c-.2-.4-.4-.82-.4-1.22zM182.43 32.86c0 .42.2 1.04.38 1.24-.38-.4-.56-.82-.56-1.24v-8.695c0-.22-.38-1.259-.96-1.259 1.14 0 1.34 1.04 1.34 1.66l-.2 8.294zM176.173 8.395c0-1.3 1-2.359 2.199-2.359 1.22 0 2.199 1.06 2.199 2.359 0 1.32-.98 2.358-2.2 2.358-1.198 0-2.198-1.039-2.198-2.358z" fill="#fff" fill-rule="evenodd" fill-opacity="1" stroke="none"/><path d="M187.686 62.602c0 3.998-2.998 7.236-6.716 7.236-3.697 0-6.716-3.238-6.716-7.236 0-3.978 3.019-7.236 6.716-7.236 3.718 0 6.716 3.258 6.716 7.236z" fill="#8aabff" fill-rule="evenodd" fill-opacity="1" stroke="none"/><path clip-path="url(#a)" d="M187.686 62.602c0 3.998-2.998 7.236-6.716 7.236-3.697 0-6.716-3.238-6.716-7.236 0-3.978 3.019-7.236 6.716-7.236 3.718 0 6.716 3.258 6.716 7.236" fill="none" stroke="#333" stroke-width=".79951543px" stroke-linecap="butt" stroke-linejoin="miter" stroke-miterlimit="8" stroke-dasharray="none" stroke-opacity="1"/><path d="m178.272 50.45-.2-.2c0-.22 0-.22-.18-.42v-.2c0-.22-.2-.22-.2-.22V39.696c0-.62.38-1.04.96-1.04.56 0 .94.42.94 1.04v9.094c0 .42.579 1.24 1.338 1.24.94 0 1.52-.82 1.52-1.24v-9.094c0-.62.38-1.04.939-1.04.38 0 .94.42.94 1.04v9.094c0 .22 0 .42-.18.62v.22s0 .2-.2.2v.2c-.18.22-.18.42-.18.42l-.18.2c0 .22-.2.419-.38.419 0 .22-.2.22-.2.42h-.18c0 .2-.2.2-.38.2v.22c-.2 0-.38.2-.38.2v3.517c0 .4-.38 1.02-.959 1.02-.56 0-.94-.62-.94-1.02v-3.518c-.579-.2-1.138-.62-1.718-1.239v-.22c-.18 0-.18-.2-.18-.2z" fill="#0031bc" fill-rule="evenodd" fill-opacity="1" stroke="none"/><path d="M184.008 40.136v9.074s-.2-3.078-.4-4.737v-5.577c.2.42.4.84.4 1.24zM179.211 40.156c0-.42-.2-1.04-.4-1.26.4.42.6.84.6 1.26V48.85c0 .22.4 1.24 1 1.24-1.2 0-1.4-1.02-1.4-1.64l.2-8.294zM185.528 64.6c0 1.32-.98 2.36-2.2 2.36-1.198 0-2.198-1.04-2.198-2.36 0-1.298 1-2.358 2.199-2.358 1.22 0 2.199 1.06 2.199 2.359z" fill="#fff" fill-rule="evenodd" fill-opacity="1" stroke="none"/><path d="M188.326 10.394c0-3.978 3.018-7.236 6.716-7.236 3.718 0 6.716 3.258 6.716 7.236 0 3.997-2.998 7.235-6.716 7.235-3.698 0-6.716-3.238-6.716-7.235z" fill="#8aabff" fill-rule="evenodd" fill-opacity="1" stroke="none"/><path clip-path="url(#a)" d="M188.326 10.394c0-3.978 3.018-7.236 6.716-7.236 3.718 0 6.716 3.258 6.716 7.236 0 3.997-2.998 7.235-6.716 7.235-3.698 0-6.716-3.238-6.716-7.235" fill="none" stroke="#333" stroke-width=".79951543px" stroke-linecap="butt" stroke-linejoin="miter" stroke-miterlimit="8" stroke-dasharray="none" stroke-opacity="1"/><path d="m197.76 22.566.18.2c0 .22 0 .22.2.42v.2c0 .22.18.22.18.22V33.32c0 .62-.38 1.02-.96 1.02-.56 0-.959-.4-.959-1.02v-9.095c0-.42-.56-1.239-1.34-1.239-.959 0-1.538.82-1.538 1.24v9.094c0 .62-.38 1.02-.96 1.02-.38 0-.96-.4-.96-1.02v-9.095c0-.22 0-.42.2-.62v-.22s0-.2.2-.2v-.199c.18-.22.18-.42.18-.42l.2-.22c0-.2.18-.4.38-.4 0-.22.2-.22.2-.419h.18c0-.2.2-.2.38-.2v-.22c.2 0 .4-.2.4-.2V17.39c0-.4.38-1.039.959-1.039.56 0 .96.64.96 1.04v3.517c.559.2 1.139.62 1.718 1.24v.2c.2 0 .2.22.2.22z" fill="#0031bc" fill-rule="evenodd" fill-opacity="1" stroke="none"/><path d="M192.004 32.88v-9.094s.2 3.098.4 4.757V34.1c-.2-.4-.4-.82-.4-1.22zM196.74 32.86c0 .42.2 1.04.38 1.24-.38-.4-.56-.82-.56-1.24v-8.695c0-.22-.379-1.259-.959-1.259 1.14 0 1.34 1.04 1.34 1.66l-.2 8.294zM190.485 8.395c0-1.3.979-2.359 2.158-2.359 1.2 0 2.159 1.06 2.159 2.359 0 1.32-.96 2.358-2.159 2.358-1.179 0-2.158-1.039-2.158-2.358z" fill="#fff" fill-rule="evenodd" fill-opacity="1" stroke="none"/><path d="M201.918 62.602c0 3.998-2.979 7.236-6.676 7.236-3.678 0-6.676-3.238-6.676-7.236 0-3.978 2.998-7.236 6.676-7.236 3.697 0 6.676 3.258 6.676 7.236z" fill="#8aabff" fill-rule="evenodd" fill-opacity="1" stroke="none"/><path clip-path="url(#a)" d="M201.918 62.602c0 3.998-2.979 7.236-6.676 7.236-3.678 0-6.676-3.238-6.676-7.236 0-3.978 2.998-7.236 6.676-7.236 3.697 0 6.676 3.258 6.676 7.236" fill="none" stroke="#333" stroke-width=".79951543px" stroke-linecap="butt" stroke-linejoin="miter" stroke-miterlimit="8" stroke-dasharray="none" stroke-opacity="1"/><path d="m192.583 50.45-.2-.2c0-.22 0-.22-.18-.42v-.2c0-.22-.2-.22-.2-.22V39.696c0-.62.38-1.04.96-1.04.56 0 .94.42.94 1.04v9.094c0 .42.58 1.24 1.339 1.24.94 0 1.519-.82 1.519-1.24v-9.094c0-.62.38-1.04.94-1.04.379 0 .939.42.939 1.04v9.094c0 .22 0 .42-.18.62v.22s0 .2-.2.2v.2c-.18.22-.18.42-.18.42l-.18.2c0 .22-.2.419-.38.419 0 .22-.2.22-.2.42h-.18c0 .2-.2.2-.38.2v.22c-.2 0-.379.2-.379.2v3.517c0 .4-.38 1.02-.96 1.02-.56 0-.939-.62-.939-1.02v-3.518c-.58-.2-1.14-.62-1.719-1.239v-.22c-.18 0-.18-.2-.18-.2z" fill="#0031bc" fill-rule="evenodd" fill-opacity="1" stroke="none"/><path d="M198.24 40.136v9.074s-.16-3.078-.32-4.737v-5.577c.16.42.32.84.32 1.24zM193.503 40.156c0-.42-.18-1.04-.38-1.26.38.42.58.84.58 1.26V48.85c0 .22.38 1.24.939 1.24-1.14 0-1.32-1.02-1.32-1.64l.18-8.294zM199.839 64.6c0 1.32-.98 2.36-2.199 2.36-1.2 0-2.198-1.04-2.198-2.36 0-1.298.999-2.358 2.198-2.358 1.22 0 2.199 1.06 2.199 2.359z" fill="#fff" fill-rule="evenodd" fill-opacity="1" stroke="none"/><path d="M202.157 10.394c0-3.978 3.019-7.236 6.716-7.236 3.718 0 6.716 3.258 6.716 7.236 0 3.997-2.998 7.235-6.716 7.235-3.697 0-6.716-3.238-6.716-7.235z" fill="#8aabff" fill-rule="evenodd" fill-opacity="1" stroke="none"/><path clip-path="url(#a)" d="M202.157 10.394c0-3.978 3.019-7.236 6.716-7.236 3.718 0 6.716 3.258 6.716 7.236 0 3.997-2.998 7.235-6.716 7.235-3.697 0-6.716-3.238-6.716-7.235" fill="none" stroke="#333" stroke-width=".79951543px" stroke-linecap="butt" stroke-linejoin="miter" stroke-miterlimit="8" stroke-dasharray="none" stroke-opacity="1"/><path d="m211.592 22.566.18.2c0 .22 0 .22.2.42v.2c0 .22.18.22.18.22V33.32c0 .62-.38 1.02-.96 1.02-.56 0-.96-.4-.96-1.02v-9.095c0-.42-.56-1.239-1.339-1.239-.959 0-1.539.82-1.539 1.24v9.094c0 .62-.38 1.02-.96 1.02-.379 0-.959-.4-.959-1.02v-9.095c0-.22 0-.42.2-.62v-.22s0-.2.2-.2v-.199c.18-.22.18-.42.18-.42l.2-.22c0-.2.18-.4.38-.4 0-.22.2-.22.2-.419h.18c0-.2.2-.2.38-.2v-.22c.2 0 .4-.2.4-.2V17.39c0-.4.379-1.039.959-1.039.56 0 .959.64.959 1.04v3.517c.56.2 1.14.62 1.719 1.24v.2c.2 0 .2.22.2.22z" fill="#0031bc" fill-rule="evenodd" fill-opacity="1" stroke="none"/><path d="M205.835 32.88v-9.094s.2 3.098.4 4.757V34.1c-.2-.4-.4-.82-.4-1.22zM210.632 32.86c0 .42.2 1.04.4 1.24-.4-.4-.6-.82-.6-1.24v-8.695c0-.22-.4-1.259-.999-1.259 1.2 0 1.4 1.04 1.4 1.66l-.2 8.294zM204.316 8.395c0-1.3 1-2.359 2.199-2.359 1.22 0 2.199 1.06 2.199 2.359 0 1.32-.98 2.358-2.2 2.358-1.198 0-2.198-1.039-2.198-2.358z" fill="#fff" fill-rule="evenodd" fill-opacity="1" stroke="none"/><path d="M215.83 62.602c0 3.998-2.999 7.236-6.717 7.236-3.697 0-6.716-3.238-6.716-7.236 0-3.978 3.019-7.236 6.716-7.236 3.718 0 6.716 3.258 6.716 7.236z" fill="#8aabff" fill-rule="evenodd" fill-opacity="1" stroke="none"/><path clip-path="url(#a)" d="M215.83 62.602c0 3.998-2.999 7.236-6.717 7.236-3.697 0-6.716-3.238-6.716-7.236 0-3.978 3.019-7.236 6.716-7.236 3.718 0 6.716 3.258 6.716 7.236" fill="none" stroke="#333" stroke-width=".79951543px" stroke-linecap="butt" stroke-linejoin="miter" stroke-miterlimit="8" stroke-dasharray="none" stroke-opacity="1"/><path d="m206.415 50.45-.18-.2c0-.22 0-.22-.2-.42v-.2c0-.22-.2-.22-.2-.22V39.696c0-.62.4-1.04.96-1.04.58 0 .96.42.96 1.04v9.094c0 .42.579 1.24 1.358 1.24.96 0 1.52-.82 1.52-1.24v-9.094c0-.62.4-1.04.959-1.04.4 0 .96.42.96 1.04v9.094c0 .22 0 .42-.18.62v.22s0 .2-.2.2v.2c-.18.22-.18.42-.18.42l-.2.2c0 .22-.2.419-.38.419 0 .22-.2.22-.2.42h-.18c0 .2-.2.2-.4.2v.22c-.18 0-.38.2-.38.2v3.517c0 .4-.38 1.02-.959 1.02-.58 0-.96-.62-.96-1.02v-3.518c-.579-.2-1.139-.62-1.718-1.239v-.22c-.2 0-.2-.2-.2-.2z" fill="#0031bc" fill-rule="evenodd" fill-opacity="1" stroke="none"/><path d="M212.151 40.136v9.074s-.2-3.078-.4-4.737v-5.577c.2.42.4.84.4 1.24zM207.354 40.156c0-.42-.2-1.04-.4-1.26.4.42.6.84.6 1.26V48.85c0 .22.4 1.24 1 1.24-1.2 0-1.4-1.02-1.4-1.64l.2-8.294zM213.67 64.6c0 1.32-.979 2.36-2.198 2.36-1.2 0-2.199-1.04-2.199-2.36 0-1.298 1-2.358 2.199-2.358 1.22 0 2.198 1.06 2.198 2.359z" fill="#fff" fill-rule="evenodd" fill-opacity="1" stroke="none"/><path d="M216.229 10.394c0-3.978 3.018-7.236 6.716-7.236 3.718 0 6.716 3.258 6.716 7.236 0 3.997-2.998 7.235-6.716 7.235-3.698 0-6.716-3.238-6.716-7.235z" fill="#8aabff" fill-rule="evenodd" fill-opacity="1" stroke="none"/><path clip-path="url(#a)" d="M216.229 10.394c0-3.978 3.018-7.236 6.716-7.236 3.718 0 6.716 3.258 6.716 7.236 0 3.997-2.998 7.235-6.716 7.235-3.698 0-6.716-3.238-6.716-7.235" fill="none" stroke="#333" stroke-width=".79951543px" stroke-linecap="butt" stroke-linejoin="miter" stroke-miterlimit="8" stroke-dasharray="none" stroke-opacity="1"/><path d="m225.663 22.566.18.2c0 .22 0 .22.2.42v.2c0 .22.18.22.18.22V33.32c0 .62-.38 1.02-.96 1.02-.56 0-.959-.4-.959-1.02v-9.095c0-.42-.56-1.239-1.34-1.239-.959 0-1.538.82-1.538 1.24v9.094c0 .62-.38 1.02-.96 1.02-.38 0-.959-.4-.959-1.02v-9.095c0-.22 0-.42.2-.62v-.22s0-.2.2-.2v-.199c.18-.22.18-.42.18-.42l.2-.22c0-.2.18-.4.38-.4 0-.22.2-.22.2-.419h.179c0-.2.2-.2.38-.2v-.22c.2 0 .4-.2.4-.2V17.39c0-.4.38-1.039.959-1.039.56 0 .96.64.96 1.04v3.517c.56.2 1.139.62 1.718 1.24v.2c.2 0 .2.22.2.22z" fill="#0031bc" fill-rule="evenodd" fill-opacity="1" stroke="none"/><path d="M219.907 32.88v-9.094s.2 3.098.4 4.757V34.1c-.2-.4-.4-.82-.4-1.22zM224.704 32.86c0 .42.2 1.04.4 1.24-.4-.4-.6-.82-.6-1.24v-8.695c0-.22-.4-1.259-1-1.259 1.2 0 1.4 1.04 1.4 1.66l-.2 8.294zM218.388 8.395c0-1.3.999-2.359 2.198-2.359 1.22 0 2.199 1.06 2.199 2.359 0 1.32-.98 2.358-2.199 2.358-1.199 0-2.198-1.039-2.198-2.358z" fill="#fff" fill-rule="evenodd" fill-opacity="1" stroke="none"/><path d="M229.9 62.602c0 3.998-2.998 7.236-6.715 7.236-3.698 0-6.716-3.238-6.716-7.236 0-3.978 3.018-7.236 6.716-7.236 3.717 0 6.716 3.258 6.716 7.236z" fill="#8aabff" fill-rule="evenodd" fill-opacity="1" stroke="none"/><path clip-path="url(#a)" d="M229.9 62.602c0 3.998-2.998 7.236-6.715 7.236-3.698 0-6.716-3.238-6.716-7.236 0-3.978 3.018-7.236 6.716-7.236 3.717 0 6.716 3.258 6.716 7.236" fill="none" stroke="#333" stroke-width=".79951543px" stroke-linecap="butt" stroke-linejoin="miter" stroke-miterlimit="8" stroke-dasharray="none" stroke-opacity="1"/><path d="m220.486 50.45-.18-.2c0-.22 0-.22-.2-.42v-.2c0-.22-.2-.22-.2-.22V39.696c0-.62.4-1.04.96-1.04.58 0 .96.42.96 1.04v9.094c0 .42.58 1.24 1.359 1.24.96 0 1.519-.82 1.519-1.24v-9.094c0-.62.4-1.04.96-1.04.399 0 .959.42.959 1.04v9.094c0 .22 0 .42-.18.62v.22s0 .2-.2.2v.2c-.18.22-.18.42-.18.42l-.2.2c0 .22-.2.419-.38.419 0 .22-.2.22-.2.42h-.18c0 .2-.2.2-.4.2v.22c-.18 0-.379.2-.379.2v3.517c0 .4-.38 1.02-.96 1.02-.579 0-.959-.62-.959-1.02v-3.518c-.58-.2-1.14-.62-1.719-1.239v-.22c-.2 0-.2-.2-.2-.2z" fill="#0031bc" fill-rule="evenodd" fill-opacity="1" stroke="none"/><path d="M226.223 40.136v9.074s-.2-3.078-.4-4.737v-5.577c.2.42.4.84.4 1.24zM221.426 40.156c0-.42-.2-1.04-.4-1.26.4.42.6.84.6 1.26V48.85c0 .22.4 1.24 1 1.24-1.2 0-1.4-1.02-1.4-1.64l.2-8.294zM227.742 64.6c0 1.32-.98 2.36-2.199 2.36-1.199 0-2.198-1.04-2.198-2.36 0-1.298.999-2.358 2.198-2.358 1.22 0 2.199 1.06 2.199 2.359z" fill="#fff" fill-rule="evenodd" fill-opacity="1" stroke="none"/></svg>