<svg xmlns="http://www.w3.org/2000/svg" version="1.0" viewBox="0 0 229.077 70.98"><defs><clipPath clipPathUnits="userSpaceOnUse" id="a"><path d="M2.239 2.159H231.06v70.997H2.239z"/></clipPath></defs><path d="M7.835 10.714v.32h218.188v-.32H7.835z" fill="#3c3" fill-rule="evenodd" fill-opacity="1" stroke="none"/><path d="M7.835 11.033v.56h218.188v-.56H7.835z" fill="#35cc34" fill-rule="evenodd" fill-opacity="1" stroke="none"/><path d="M7.835 11.593v.4h218.188v-.4H7.835z" fill="#37cd36" fill-rule="evenodd" fill-opacity="1" stroke="none"/><path d="M7.835 11.993v.32h218.188v-.32H7.835z" fill="#39cd36" fill-rule="evenodd" fill-opacity="1" stroke="none"/><path d="M7.835 12.313v.24h218.188v-.24H7.835z" fill="#3bcd37" fill-rule="evenodd" fill-opacity="1" stroke="none"/><path d="M7.835 12.552v.4h218.188v-.4H7.835z" fill="#3dcd38" fill-rule="evenodd" fill-opacity="1" stroke="none"/><path d="M7.835 12.952v.24h218.188v-.24H7.835z" fill="#3fce3a" fill-rule="evenodd" fill-opacity="1" stroke="none"/><path d="M7.835 13.192v.32h218.188v-.32H7.835z" fill="#41ce3a" fill-rule="evenodd" fill-opacity="1" stroke="none"/><path d="M7.835 13.512v.24h218.188v-.24H7.835z" fill="#43ce3c" fill-rule="evenodd" fill-opacity="1" stroke="none"/><path d="M7.835 13.752v.4h218.188v-.4H7.835z" fill="#45cf3d" fill-rule="evenodd" fill-opacity="1" stroke="none"/><path d="M7.835 14.151v.24h218.188v-.24H7.835z" fill="#47cf3e" fill-rule="evenodd" fill-opacity="1" stroke="none"/><path d="M7.835 14.391v.24h218.188v-.24H7.835z" fill="#49cf3f" fill-rule="evenodd" fill-opacity="1" stroke="none"/><path d="M7.835 14.631v.24h218.188v-.24H7.835z" fill="#4bd040" fill-rule="evenodd" fill-opacity="1" stroke="none"/><path d="M7.835 14.871v.24h218.188v-.24H7.835z" fill="#4dd042" fill-rule="evenodd" fill-opacity="1" stroke="none"/><path d="M7.835 15.11v.24h218.188v-.24H7.835z" fill="#4fd143" fill-rule="evenodd" fill-opacity="1" stroke="none"/><path d="M7.835 15.35v.24h218.188v-.24H7.835z" fill="#51d144" fill-rule="evenodd" fill-opacity="1" stroke="none"/><path d="M7.835 15.59v.24h218.188v-.24H7.835z" fill="#53d145" fill-rule="evenodd" fill-opacity="1" stroke="none"/><path d="M7.835 15.83v.24h218.188v-.24H7.835z" fill="#55d247" fill-rule="evenodd" fill-opacity="1" stroke="none"/><path d="M7.835 16.07v.24h218.188v-.24H7.835z" fill="#57d348" fill-rule="evenodd" fill-opacity="1" stroke="none"/><path d="M7.835 16.31v.16h218.188v-.16H7.835z" fill="#59d349" fill-rule="evenodd" fill-opacity="1" stroke="none"/><path d="M7.835 16.47v.24h218.188v-.24H7.835z" fill="#5bd34a" fill-rule="evenodd" fill-opacity="1" stroke="none"/><path d="M7.835 16.71v.16h218.188v-.16H7.835z" fill="#5dd44b" fill-rule="evenodd" fill-opacity="1" stroke="none"/><path d="M7.835 16.87v.16h218.188v-.16H7.835z" fill="#5ed44d" fill-rule="evenodd" fill-opacity="1" stroke="none"/><path d="M7.835 17.03v.24h218.188v-.24H7.835z" fill="#60d54e" fill-rule="evenodd" fill-opacity="1" stroke="none"/><path d="M7.835 17.27v.24h218.188v-.24H7.835z" fill="#62d54f" fill-rule="evenodd" fill-opacity="1" stroke="none"/><path d="M7.835 17.51v.16h218.188v-.16H7.835z" fill="#64d650" fill-rule="evenodd" fill-opacity="1" stroke="none"/><path d="M7.835 17.67v.16h218.188v-.16H7.835z" fill="#66d651" fill-rule="evenodd" fill-opacity="1" stroke="none"/><path d="M7.835 17.83v.16h218.188v-.16H7.835z" fill="#67d753" fill-rule="evenodd" fill-opacity="1" stroke="none"/><path d="M7.835 17.99v.239h218.188v-.24H7.835z" fill="#69d754" fill-rule="evenodd" fill-opacity="1" stroke="none"/><path d="M7.835 18.229v.16h218.188v-.16H7.835z" fill="#6bd855" fill-rule="evenodd" fill-opacity="1" stroke="none"/><path d="M7.835 18.389v.24h218.188v-.24H7.835z" fill="#6dd856" fill-rule="evenodd" fill-opacity="1" stroke="none"/><path d="M7.835 18.629v.16h218.188v-.16H7.835z" fill="#6fd957" fill-rule="evenodd" fill-opacity="1" stroke="none"/><path d="M7.835 18.789v.24h218.188v-.24H7.835z" fill="#70d959" fill-rule="evenodd" fill-opacity="1" stroke="none"/><path d="M7.835 19.028v.16h218.188v-.16H7.835z" fill="#72da5a" fill-rule="evenodd" fill-opacity="1" stroke="none"/><path d="M7.835 19.188v.16h218.188v-.16H7.835z" fill="#74da5b" fill-rule="evenodd" fill-opacity="1" stroke="none"/><path d="M7.835 19.348v.24h218.188v-.24H7.835z" fill="#76db5d" fill-rule="evenodd" fill-opacity="1" stroke="none"/><path d="M7.835 19.588v.16h218.188v-.16H7.835z" fill="#78dc5e" fill-rule="evenodd" fill-opacity="1" stroke="none"/><path d="M7.835 19.748v.24h218.188v-.24H7.835z" fill="#7adc5f" fill-rule="evenodd" fill-opacity="1" stroke="none"/><path d="M7.835 19.988v.16h218.188v-.16H7.835z" fill="#7cdd60" fill-rule="evenodd" fill-opacity="1" stroke="none"/><path d="M7.835 20.148v.16h218.188v-.16H7.835z" fill="#7ddd62" fill-rule="evenodd" fill-opacity="1" stroke="none"/><path d="M7.835 20.308v.24h218.188v-.24H7.835z" fill="#7fde63" fill-rule="evenodd" fill-opacity="1" stroke="none"/><path d="M7.835 20.548v.16h218.188v-.16H7.835z" fill="#81df64" fill-rule="evenodd" fill-opacity="1" stroke="none"/><path d="M7.835 20.707v.24h218.188v-.24H7.835z" fill="#83df66" fill-rule="evenodd" fill-opacity="1" stroke="none"/><path d="M7.835 20.947v.16h218.188v-.16H7.835z" fill="#85e067" fill-rule="evenodd" fill-opacity="1" stroke="none"/><path d="M7.835 21.107v.16h218.188v-.16H7.835z" fill="#87e168" fill-rule="evenodd" fill-opacity="1" stroke="none"/><path d="M7.835 21.267v.24h218.188v-.24H7.835z" fill="#89e169" fill-rule="evenodd" fill-opacity="1" stroke="none"/><path d="M7.835 21.507v.16h218.188v-.16H7.835z" fill="#8ae26b" fill-rule="evenodd" fill-opacity="1" stroke="none"/><path d="M7.835 21.667v.24h218.188v-.24H7.835z" fill="#8ce36c" fill-rule="evenodd" fill-opacity="1" stroke="none"/><path d="M7.835 21.907v.16h218.188v-.16H7.835z" fill="#8ee36d" fill-rule="evenodd" fill-opacity="1" stroke="none"/><path d="M7.835 22.067v.32h218.188v-.32H7.835z" fill="#90e46e" fill-rule="evenodd" fill-opacity="1" stroke="none"/><path d="M7.835 22.386v.16h218.188v-.16H7.835z" fill="#92e570" fill-rule="evenodd" fill-opacity="1" stroke="none"/><path d="M7.835 22.546v.24h218.188v-.24H7.835z" fill="#94e571" fill-rule="evenodd" fill-opacity="1" stroke="none"/><path d="M7.835 22.786v.24h218.188v-.24H7.835z" fill="#96e673" fill-rule="evenodd" fill-opacity="1" stroke="none"/><path d="M7.835 23.026v.24h218.188v-.24H7.835z" fill="#98e774" fill-rule="evenodd" fill-opacity="1" stroke="none"/><path d="M7.835 23.266v.24h218.188v-.24H7.835z" fill="#9ae875" fill-rule="evenodd" fill-opacity="1" stroke="none"/><path d="M7.835 23.506v.24h218.188v-.24H7.835z" fill="#9ce976" fill-rule="evenodd" fill-opacity="1" stroke="none"/><path d="M7.835 23.746v.24h218.188v-.24H7.835z" fill="#9eea78" fill-rule="evenodd" fill-opacity="1" stroke="none"/><path d="M7.835 23.985v.32h218.188v-.32H7.835z" fill="#a0ea7a" fill-rule="evenodd" fill-opacity="1" stroke="none"/><path d="M7.835 24.305v.16h218.188v-.16H7.835z" fill="#a2ec7c" fill-rule="evenodd" fill-opacity="1" stroke="none"/><path d="M7.835 24.465v.24h218.188v-.24H7.835z" fill="#a4ec7c" fill-rule="evenodd" fill-opacity="1" stroke="none"/><path d="M7.835 24.705v.32h218.188v-.32H7.835z" fill="#a6ed7e" fill-rule="evenodd" fill-opacity="1" stroke="none"/><path d="M7.835 25.025v.24h218.188v-.24H7.835z" fill="#a8ee7f" fill-rule="evenodd" fill-opacity="1" stroke="none"/><path d="M7.835 25.265v.4h218.188v-.4H7.835z" fill="#aaef81" fill-rule="evenodd" fill-opacity="1" stroke="none"/><path d="M7.835 25.664v.24h218.188v-.24H7.835z" fill="#acf083" fill-rule="evenodd" fill-opacity="1" stroke="none"/><path d="M7.835 25.904v.4h218.188v-.4H7.835z" fill="#aef183" fill-rule="evenodd" fill-opacity="1" stroke="none"/><path d="M7.835 26.304v.32h218.188v-.32H7.835z" fill="#b0f285" fill-rule="evenodd" fill-opacity="1" stroke="none"/><path d="M7.835 26.624v.24h218.188v-.24H7.835z" fill="#b2f387" fill-rule="evenodd" fill-opacity="1" stroke="none"/><path d="M7.835 26.864v.4h218.188v-.4H7.835z" fill="#b4f388" fill-rule="evenodd" fill-opacity="1" stroke="none"/><path d="M7.835 27.263v.32h218.188v-.32H7.835z" fill="#b6f489" fill-rule="evenodd" fill-opacity="1" stroke="none"/><path d="M7.835 27.583v.4h218.188v-.4H7.835z" fill="#b8f58b" fill-rule="evenodd" fill-opacity="1" stroke="none"/><path d="M7.835 27.983v.4h218.188v-.4H7.835z" fill="#baf68c" fill-rule="evenodd" fill-opacity="1" stroke="none"/><path d="M7.835 28.383v.56h218.188v-.56H7.835z" fill="#bcf78d" fill-rule="evenodd" fill-opacity="1" stroke="none"/><path d="M7.835 28.942v.4h218.188v-.4H7.835z" fill="#bef88f" fill-rule="evenodd" fill-opacity="1" stroke="none"/><path d="M7.835 29.342v.56h218.188v-.56H7.835z" fill="#c0f990" fill-rule="evenodd" fill-opacity="1" stroke="none"/><path d="M7.835 29.902v.64h218.188v-.64H7.835z" fill="#c2fa92" fill-rule="evenodd" fill-opacity="1" stroke="none"/><path d="M7.835 30.541v.72h218.188v-.72H7.835z" fill="#c4fb93" fill-rule="evenodd" fill-opacity="1" stroke="none"/><path d="M7.835 31.261v.8h218.188v-.8H7.835z" fill="#c6fc94" fill-rule="evenodd" fill-opacity="1" stroke="none"/><path d="M7.835 32.06v.56h218.188v-.56H7.835z" fill="#c7fd96" fill-rule="evenodd" fill-opacity="1" stroke="none"/><path d="M7.835 32.62v1.36h218.188v-1.36H7.835z" fill="#c9fd97" fill-rule="evenodd" fill-opacity="1" stroke="none"/><path d="M7.835 33.98v3.677h218.188V33.98H7.835z" fill="#cbfe98" fill-rule="evenodd" fill-opacity="1" stroke="none"/><path d="M7.835 37.657v.96h218.188v-.96H7.835z" fill="#c9fe97" fill-rule="evenodd" fill-opacity="1" stroke="none"/><path d="M7.835 38.617v.72h218.188v-.72H7.835z" fill="#c7fd96" fill-rule="evenodd" fill-opacity="1" stroke="none"/><path d="M7.835 39.336v.64h218.188v-.64H7.835z" fill="#c6fc94" fill-rule="evenodd" fill-opacity="1" stroke="none"/><path d="M7.835 39.976v.56h218.188v-.56H7.835z" fill="#c4fb93" fill-rule="evenodd" fill-opacity="1" stroke="none"/><path d="M7.835 40.535v.56h218.188v-.56H7.835z" fill="#c2fa92" fill-rule="evenodd" fill-opacity="1" stroke="none"/><path d="M7.835 41.095v.56h218.188v-.56H7.835z" fill="#c0f991" fill-rule="evenodd" fill-opacity="1" stroke="none"/><path d="M7.835 41.655v.4h218.188v-.4H7.835z" fill="#bef88f" fill-rule="evenodd" fill-opacity="1" stroke="none"/><path d="M7.835 42.055v.56h218.188v-.56H7.835z" fill="#bcf78e" fill-rule="evenodd" fill-opacity="1" stroke="none"/><path d="M7.835 42.614v.4h218.188v-.4H7.835z" fill="#baf68c" fill-rule="evenodd" fill-opacity="1" stroke="none"/><path d="M7.835 43.014v.4h218.188v-.4H7.835z" fill="#b8f58b" fill-rule="evenodd" fill-opacity="1" stroke="none"/><path d="M7.835 43.414v.4h218.188v-.4H7.835z" fill="#b6f489" fill-rule="evenodd" fill-opacity="1" stroke="none"/><path d="M7.835 43.813v.32h218.188v-.32H7.835z" fill="#b4f388" fill-rule="evenodd" fill-opacity="1" stroke="none"/><path d="M7.835 44.133v.24h218.188v-.24H7.835z" fill="#b2f387" fill-rule="evenodd" fill-opacity="1" stroke="none"/><path d="M7.835 44.373v.4h218.188v-.4H7.835z" fill="#b0f285" fill-rule="evenodd" fill-opacity="1" stroke="none"/><path d="M7.835 44.773v.32h218.188v-.32H7.835z" fill="#aef183" fill-rule="evenodd" fill-opacity="1" stroke="none"/><path d="M7.835 45.093v.24h218.188v-.24H7.835z" fill="#acf083" fill-rule="evenodd" fill-opacity="1" stroke="none"/><path d="M7.835 45.333v.32h218.188v-.32H7.835z" fill="#aaef81" fill-rule="evenodd" fill-opacity="1" stroke="none"/><path d="M7.835 45.652v.24h218.188v-.24H7.835z" fill="#a8ee80" fill-rule="evenodd" fill-opacity="1" stroke="none"/><path d="M7.835 45.892v.4h218.188v-.4H7.835z" fill="#a6ed7e" fill-rule="evenodd" fill-opacity="1" stroke="none"/><path d="M7.835 46.292v.16h218.188v-.16H7.835z" fill="#a4ec7c" fill-rule="evenodd" fill-opacity="1" stroke="none"/><path d="M7.835 46.452v.24h218.188v-.24H7.835z" fill="#a2ec7c" fill-rule="evenodd" fill-opacity="1" stroke="none"/><path d="M7.835 46.692v.24h218.188v-.24H7.835z" fill="#a0ea7a" fill-rule="evenodd" fill-opacity="1" stroke="none"/><path d="M7.835 46.932v.16h218.188v-.16H7.835z" fill="#9eea79" fill-rule="evenodd" fill-opacity="1" stroke="none"/><path d="M7.835 47.091v.24h218.188v-.24H7.835z" fill="#9de977" fill-rule="evenodd" fill-opacity="1" stroke="none"/><path d="M7.835 47.331v.24h218.188v-.24H7.835z" fill="#9be976" fill-rule="evenodd" fill-opacity="1" stroke="none"/><path d="M7.835 47.571v.24h218.188v-.24H7.835z" fill="#99e875" fill-rule="evenodd" fill-opacity="1" stroke="none"/><path d="M7.835 47.811v.24h218.188v-.24H7.835z" fill="#97e673" fill-rule="evenodd" fill-opacity="1" stroke="none"/><path d="M7.835 48.05v.24h218.188v-.24H7.835z" fill="#95e672" fill-rule="evenodd" fill-opacity="1" stroke="none"/><path d="M7.835 48.29v.16h218.188v-.16H7.835z" fill="#93e570" fill-rule="evenodd" fill-opacity="1" stroke="none"/><path d="M7.835 48.45v.32h218.188v-.32H7.835z" fill="#91e56f" fill-rule="evenodd" fill-opacity="1" stroke="none"/><path d="M7.835 48.77v.16h218.188v-.16H7.835z" fill="#8fe46e" fill-rule="evenodd" fill-opacity="1" stroke="none"/><path d="M7.835 48.93v.24h218.188v-.24H7.835z" fill="#8de36d" fill-rule="evenodd" fill-opacity="1" stroke="none"/><path d="M7.835 49.17v.24h218.188v-.24H7.835z" fill="#8be26b" fill-rule="evenodd" fill-opacity="1" stroke="none"/><path d="M7.835 49.41v.24h218.188v-.24H7.835z" fill="#89e169" fill-rule="evenodd" fill-opacity="1" stroke="none"/><path d="M7.835 49.65v.16h218.188v-.16H7.835z" fill="#87e168" fill-rule="evenodd" fill-opacity="1" stroke="none"/><path d="M7.835 49.81v.24h218.188v-.24H7.835z" fill="#85e067" fill-rule="evenodd" fill-opacity="1" stroke="none"/><path d="M7.835 50.05v.16h218.188v-.16H7.835z" fill="#83df66" fill-rule="evenodd" fill-opacity="1" stroke="none"/><path d="M7.835 50.21v.16h218.188v-.16H7.835z" fill="#81df64" fill-rule="evenodd" fill-opacity="1" stroke="none"/><path d="M7.835 50.37v.24h218.188v-.24H7.835z" fill="#7fde63" fill-rule="evenodd" fill-opacity="1" stroke="none"/><path d="M7.835 50.61v.16h218.188v-.16H7.835z" fill="#7ddd62" fill-rule="evenodd" fill-opacity="1" stroke="none"/><path d="M7.835 50.77v.24h218.188v-.24H7.835z" fill="#7cdd60" fill-rule="evenodd" fill-opacity="1" stroke="none"/><path d="M7.835 51.01v.159h218.188v-.16H7.835z" fill="#7adc5f" fill-rule="evenodd" fill-opacity="1" stroke="none"/><path d="M7.835 51.169v.16h218.188v-.16H7.835z" fill="#78dc5e" fill-rule="evenodd" fill-opacity="1" stroke="none"/><path d="M7.835 51.329v.24h218.188v-.24H7.835z" fill="#76db5d" fill-rule="evenodd" fill-opacity="1" stroke="none"/><path d="M7.835 51.569v.16h218.188v-.16H7.835z" fill="#74da5b" fill-rule="evenodd" fill-opacity="1" stroke="none"/><path d="M7.835 51.729v.24h218.188v-.24H7.835z" fill="#72da5a" fill-rule="evenodd" fill-opacity="1" stroke="none"/><path d="M7.835 51.969v.16h218.188v-.16H7.835z" fill="#70d959" fill-rule="evenodd" fill-opacity="1" stroke="none"/><path d="M7.835 52.128v.16h218.188v-.16H7.835z" fill="#6fd957" fill-rule="evenodd" fill-opacity="1" stroke="none"/><path d="M7.835 52.288v.24h218.188v-.24H7.835z" fill="#6dd856" fill-rule="evenodd" fill-opacity="1" stroke="none"/><path d="M7.835 52.528v.16h218.188v-.16H7.835z" fill="#6bd855" fill-rule="evenodd" fill-opacity="1" stroke="none"/><path d="M7.835 52.688v.24h218.188v-.24H7.835z" fill="#69d754" fill-rule="evenodd" fill-opacity="1" stroke="none"/><path d="M7.835 52.928v.16h218.188v-.16H7.835z" fill="#67d753" fill-rule="evenodd" fill-opacity="1" stroke="none"/><path d="M7.835 53.088v.16h218.188v-.16H7.835z" fill="#66d651" fill-rule="evenodd" fill-opacity="1" stroke="none"/><path d="M7.835 53.248v.16h218.188v-.16H7.835z" fill="#64d650" fill-rule="evenodd" fill-opacity="1" stroke="none"/><path d="M7.835 53.408v.24h218.188v-.24H7.835z" fill="#62d54f" fill-rule="evenodd" fill-opacity="1" stroke="none"/><path d="M7.835 53.647v.24h218.188v-.24H7.835z" fill="#60d54e" fill-rule="evenodd" fill-opacity="1" stroke="none"/><path d="M7.835 53.887v.16h218.188v-.16H7.835z" fill="#5ed44d" fill-rule="evenodd" fill-opacity="1" stroke="none"/><path d="M7.835 54.047v.24h218.188v-.24H7.835z" fill="#5dd44b" fill-rule="evenodd" fill-opacity="1" stroke="none"/><path d="M7.835 54.287v.16h218.188v-.16H7.835z" fill="#5bd34a" fill-rule="evenodd" fill-opacity="1" stroke="none"/><path d="M7.835 54.447v.16h218.188v-.16H7.835z" fill="#59d349" fill-rule="evenodd" fill-opacity="1" stroke="none"/><path d="M7.835 54.607v.32h218.188v-.32H7.835z" fill="#57d348" fill-rule="evenodd" fill-opacity="1" stroke="none"/><path d="M7.835 54.927v.16h218.188v-.16H7.835z" fill="#55d247" fill-rule="evenodd" fill-opacity="1" stroke="none"/><path d="M7.835 55.087v.24h218.188v-.24H7.835z" fill="#53d246" fill-rule="evenodd" fill-opacity="1" stroke="none"/><path d="M7.835 55.326v.24h218.188v-.24H7.835z" fill="#51d144" fill-rule="evenodd" fill-opacity="1" stroke="none"/><path d="M7.835 55.566v.32h218.188v-.32H7.835z" fill="#4fd143" fill-rule="evenodd" fill-opacity="1" stroke="none"/><path d="M7.835 55.886v.16h218.188v-.16H7.835z" fill="#4dd042" fill-rule="evenodd" fill-opacity="1" stroke="none"/><path d="M7.835 56.046v.32h218.188v-.32H7.835z" fill="#4bd041" fill-rule="evenodd" fill-opacity="1" stroke="none"/><path d="M7.835 56.366v.24h218.188v-.24H7.835z" fill="#49cf3f" fill-rule="evenodd" fill-opacity="1" stroke="none"/><path d="M7.835 56.606v.32h218.188v-.32H7.835z" fill="#47cf3e" fill-rule="evenodd" fill-opacity="1" stroke="none"/><path d="M7.835 56.925v.32h218.188v-.32H7.835z" fill="#45cf3d" fill-rule="evenodd" fill-opacity="1" stroke="none"/><path d="M7.835 57.245v.24h218.188v-.24H7.835z" fill="#43ce3c" fill-rule="evenodd" fill-opacity="1" stroke="none"/><path d="M7.835 57.485v.24h218.188v-.24H7.835z" fill="#41ce3a" fill-rule="evenodd" fill-opacity="1" stroke="none"/><path d="M7.835 57.725v.32h218.188v-.32H7.835z" fill="#3fce3a" fill-rule="evenodd" fill-opacity="1" stroke="none"/><path d="M7.835 58.045v.32h218.188v-.32H7.835z" fill="#3dcd38" fill-rule="evenodd" fill-opacity="1" stroke="none"/><path d="M7.835 58.365v.24h218.188v-.24H7.835z" fill="#3bcd38" fill-rule="evenodd" fill-opacity="1" stroke="none"/><path d="M7.835 58.604v.24h218.188v-.24H7.835z" fill="#3acd36" fill-rule="evenodd" fill-opacity="1" stroke="none"/><path d="M7.835 58.844v.4h218.188v-.4H7.835z" fill="#38cd36" fill-rule="evenodd" fill-opacity="1" stroke="none"/><path d="M7.835 59.244v.56h218.188v-.56H7.835z" fill="#36cc35" fill-rule="evenodd" fill-opacity="1" stroke="none"/><path d="M7.835 59.804v.24h218.188v-.24H7.835z" fill="#3c3" fill-rule="evenodd" fill-opacity="1" stroke="none"/><path d="M3.158 11.193c0-3.977 3.018-7.235 6.716-7.235 3.718 0 6.716 3.258 6.716 7.235 0 3.998-2.998 7.236-6.716 7.236-3.698 0-6.716-3.238-6.716-7.236z" fill="#f09d00" fill-rule="evenodd" fill-opacity="1" stroke="none"/><path clip-path="url(#a)" d="M3.158 11.193c0-3.977 3.018-7.235 6.716-7.235 3.718 0 6.716 3.258 6.716 7.235 0 3.998-2.998 7.236-6.716 7.236-3.698 0-6.716-3.238-6.716-7.236" fill="none" stroke="#333" stroke-width=".79951543px" stroke-linecap="butt" stroke-linejoin="miter" stroke-miterlimit="8" stroke-dasharray="none" stroke-opacity="1"/><path d="m12.592 23.406.18.22c0 .2 0 .2.2.4v.22c0 .2.18.2.18.2v9.673c0 .62-.38 1.02-.94 1.02-.56 0-.939-.4-.939-1.02v-9.054c0-.42-.58-1.24-1.339-1.24-.94 0-1.52.82-1.52 1.24v9.054c0 .62-.379 1.02-.939 1.02-.38 0-.959-.4-.959-1.02v-9.054c0-.2 0-.42.2-.62v-.2s0-.22.18-.22v-.2c.2-.2.2-.42.2-.42l.18-.2c0-.199.2-.399.38-.399 0-.22.2-.22.2-.42h.18c0-.2.199-.2.379-.2v-.22c.2 0 .38-.2.38-.2V18.27c0-.42.38-1.04.96-1.04.559 0 .939.62.939 1.04v3.498c.58.2 1.139.62 1.718 1.24v.199c.18 0 .18.2.18.2z" fill="#7c7c7c" fill-rule="evenodd" fill-opacity="1" stroke="none"/><path d="M6.836 33.68v-9.015s.2 3.078.4 4.717V34.9c-.2-.4-.4-.8-.4-1.22zM11.653 33.68c0 .4.2 1.019.38 1.219-.38-.4-.56-.82-.56-1.22v-8.654c0-.2-.38-1.24-.96-1.24 1.14 0 1.34 1.04 1.34 1.66l-.2 8.235zM5.317 9.274c0-1.299 1-2.358 2.198-2.358 1.22 0 2.2 1.06 2.2 2.358 0 1.32-.98 2.359-2.2 2.359-1.199 0-2.198-1.04-2.198-2.359z" fill="#fff" fill-rule="evenodd" fill-opacity="1" stroke="none"/><path d="M16.83 64.68c0 3.998-2.998 7.236-6.716 7.236-3.698 0-6.716-3.238-6.716-7.235 0-3.978 3.018-7.236 6.716-7.236 3.718 0 6.716 3.258 6.716 7.236z" fill="#f09d00" fill-rule="evenodd" fill-opacity="1" stroke="none"/><path clip-path="url(#a)" d="M16.83 64.68c0 3.998-2.998 7.236-6.716 7.236-3.698 0-6.716-3.238-6.716-7.235 0-3.978 3.018-7.236 6.716-7.236 3.718 0 6.716 3.258 6.716 7.236" fill="none" stroke="#333" stroke-width=".79951543px" stroke-linecap="butt" stroke-linejoin="miter" stroke-miterlimit="8" stroke-dasharray="none" stroke-opacity="1"/><path d="m7.416 52.528-.18-.2c0-.22 0-.22-.2-.42v-.2c0-.22-.2-.22-.2-.22v-9.713c0-.62.4-1.04.96-1.04.579 0 .959.42.959 1.04v9.094c0 .42.58 1.24 1.359 1.24.96 0 1.519-.82 1.519-1.24v-9.094c0-.62.4-1.04.96-1.04.4 0 .959.42.959 1.04v9.094c0 .22 0 .42-.18.62v.22s0 .2-.2.2v.2c-.18.22-.18.42-.18.42l-.2.199c0 .22-.2.42-.38.42 0 .22-.2.22-.2.42h-.18c0 .2-.2.2-.4.2v.22c-.179 0-.379.2-.379.2v3.517c0 .4-.38 1.02-.96 1.02-.579 0-.959-.62-.959-1.02v-3.518c-.58-.2-1.139-.62-1.719-1.24v-.219c-.2 0-.2-.2-.2-.2z" fill="#7c7c7c" fill-rule="evenodd" fill-opacity="1" stroke="none"/><path d="M13.152 42.214v9.075s-.2-3.078-.4-4.737v-5.577c.2.42.4.84.4 1.24zM8.415 42.214c0-.4-.18-1.019-.38-1.239.38.42.58.84.58 1.24v8.654c0 .2.38 1.22.94 1.22-1.14 0-1.32-1.02-1.32-1.64l.18-8.235zM14.671 66.6c0 1.319-.98 2.358-2.199 2.358-1.199 0-2.198-1.04-2.198-2.358 0-1.3 1-2.359 2.198-2.359 1.22 0 2.2 1.06 2.2 2.359z" fill="#fff" fill-rule="evenodd" fill-opacity="1" stroke="none"/><path d="M17.47 11.193c0-3.977 3.018-7.235 6.715-7.235 3.718 0 6.716 3.258 6.716 7.235 0 3.998-2.998 7.236-6.716 7.236-3.697 0-6.716-3.238-6.716-7.236z" fill="#f09d00" fill-rule="evenodd" fill-opacity="1" stroke="none"/><path clip-path="url(#a)" d="M17.47 11.193c0-3.977 3.018-7.235 6.715-7.235 3.718 0 6.716 3.258 6.716 7.235 0 3.998-2.998 7.236-6.716 7.236-3.697 0-6.716-3.238-6.716-7.236" fill="none" stroke="#333" stroke-width=".79951543px" stroke-linecap="butt" stroke-linejoin="miter" stroke-miterlimit="8" stroke-dasharray="none" stroke-opacity="1"/><path d="m26.904 23.406.18.22c0 .2 0 .2.2.4v.22c0 .2.18.2.18.2v9.673c0 .62-.38 1.02-.96 1.02-.56 0-.96-.4-.96-1.02v-9.054c0-.42-.56-1.24-1.339-1.24-.96 0-1.539.82-1.539 1.24v9.054c0 .62-.38 1.02-.96 1.02-.379 0-.959-.4-.959-1.02v-9.054c0-.2 0-.42.2-.62v-.2s0-.22.2-.22v-.2c.18-.2.18-.42.18-.42l.2-.2c0-.199.18-.399.38-.399 0-.22.2-.22.2-.42h.18c0-.2.2-.2.38-.2v-.22c.2 0 .399-.2.399-.2V18.27c0-.42.38-1.04.96-1.04.56 0 .959.62.959 1.04v3.498c.56.2 1.14.62 1.719 1.24v.199c.2 0 .2.2.2.2z" fill="#7c7c7c" fill-rule="evenodd" fill-opacity="1" stroke="none"/><path d="M21.147 33.68v-9.015s.2 3.078.4 4.717V34.9c-.2-.4-.4-.8-.4-1.22zM25.884 33.68c0 .4.2 1.019.38 1.219-.38-.4-.56-.82-.56-1.22v-8.654c0-.2-.38-1.24-.959-1.24 1.14 0 1.34 1.04 1.34 1.66l-.2 8.235zM19.628 9.274c0-1.299 1-2.358 2.199-2.358 1.219 0 2.198 1.06 2.198 2.358 0 1.32-.979 2.359-2.198 2.359-1.2 0-2.199-1.04-2.199-2.359z" fill="#fff" fill-rule="evenodd" fill-opacity="1" stroke="none"/><path d="M31.141 64.68c0 3.998-2.998 7.236-6.716 7.236-3.698 0-6.716-3.238-6.716-7.235 0-3.978 3.018-7.236 6.716-7.236 3.718 0 6.716 3.258 6.716 7.236z" fill="#f09d00" fill-rule="evenodd" fill-opacity="1" stroke="none"/><path clip-path="url(#a)" d="M31.141 64.68c0 3.998-2.998 7.236-6.716 7.236-3.698 0-6.716-3.238-6.716-7.235 0-3.978 3.018-7.236 6.716-7.236 3.718 0 6.716 3.258 6.716 7.236" fill="none" stroke="#333" stroke-width=".79951543px" stroke-linecap="butt" stroke-linejoin="miter" stroke-miterlimit="8" stroke-dasharray="none" stroke-opacity="1"/><path d="m21.727 52.528-.18-.2c0-.22 0-.22-.2-.42v-.2c0-.22-.2-.22-.2-.22v-9.713c0-.62.4-1.04.96-1.04.58 0 .959.42.959 1.04v9.094c0 .42.58 1.24 1.36 1.24.959 0 1.518-.82 1.518-1.24v-9.094c0-.62.4-1.04.96-1.04.4 0 .96.42.96 1.04v9.094c0 .22 0 .42-.18.62v.22s0 .2-.2.2v.2c-.18.22-.18.42-.18.42l-.2.199c0 .22-.2.42-.38.42 0 .22-.2.22-.2.42h-.18c0 .2-.2.2-.4.2v.22c-.18 0-.38.2-.38.2v3.517c0 .4-.38 1.02-.959 1.02-.58 0-.96-.62-.96-1.02v-3.518c-.579-.2-1.139-.62-1.718-1.24v-.219c-.2 0-.2-.2-.2-.2z" fill="#7c7c7c" fill-rule="evenodd" fill-opacity="1" stroke="none"/><path d="M27.463 42.214v9.075s-.2-3.078-.4-4.737v-5.577c.2.42.4.84.4 1.24zM22.666 42.214c0-.4-.2-1.019-.4-1.239.4.42.6.84.6 1.24v8.654c0 .2.4 1.22 1 1.22-1.2 0-1.4-1.02-1.4-1.64l.2-8.235zM28.982 66.6c0 1.319-.979 2.358-2.198 2.358-1.2 0-2.199-1.04-2.199-2.358 0-1.3 1-2.359 2.199-2.359 1.219 0 2.198 1.06 2.198 2.359z" fill="#fff" fill-rule="evenodd" fill-opacity="1" stroke="none"/><path d="M31.301 11.193c0-3.977 3.018-7.235 6.716-7.235 3.718 0 6.716 3.258 6.716 7.235 0 3.998-2.998 7.236-6.716 7.236-3.698 0-6.716-3.238-6.716-7.236z" fill="#f09d00" fill-rule="evenodd" fill-opacity="1" stroke="none"/><path clip-path="url(#a)" d="M31.301 11.193c0-3.977 3.018-7.235 6.716-7.235 3.718 0 6.716 3.258 6.716 7.235 0 3.998-2.998 7.236-6.716 7.236-3.698 0-6.716-3.238-6.716-7.236" fill="none" stroke="#333" stroke-width=".79951543px" stroke-linecap="butt" stroke-linejoin="miter" stroke-miterlimit="8" stroke-dasharray="none" stroke-opacity="1"/><path d="m40.735 23.406.18.22c0 .2 0 .2.2.4v.22c0 .2.18.2.18.2v9.673c0 .62-.38 1.02-.94 1.02-.56 0-.939-.4-.939-1.02v-9.054c0-.42-.58-1.24-1.34-1.24-.939 0-1.518.82-1.518 1.24v9.054c0 .62-.38 1.02-.94 1.02-.38 0-.959-.4-.959-1.02v-9.054c0-.2 0-.42.2-.62v-.2s0-.22.18-.22v-.2c.2-.2.2-.42.2-.42l.18-.2c0-.199.2-.399.38-.399 0-.22.2-.22.2-.42h.18c0-.2.199-.2.379-.2v-.22c.2 0 .38-.2.38-.2V18.27c0-.42.38-1.04.959-1.04.56 0 .94.62.94 1.04v3.498c.58.2 1.139.62 1.718 1.24v.199c.18 0 .18.2.18.2z" fill="#7c7c7c" fill-rule="evenodd" fill-opacity="1" stroke="none"/><path d="M35.059 33.68v-9.015s.16 3.078.32 4.717V34.9c-.16-.4-.32-.8-.32-1.22zM39.796 33.68c0 .4.2 1.019.38 1.219-.38-.4-.56-.82-.56-1.22v-8.654c0-.2-.38-1.24-.96-1.24 1.14 0 1.34 1.04 1.34 1.66l-.2 8.235zM33.46 9.274c0-1.299 1-2.358 2.198-2.358 1.22 0 2.2 1.06 2.2 2.358 0 1.32-.98 2.359-2.2 2.359-1.199 0-2.198-1.04-2.198-2.359z" fill="#fff" fill-rule="evenodd" fill-opacity="1" stroke="none"/><path d="M44.973 64.68c0 3.998-2.998 7.236-6.716 7.236-3.698 0-6.716-3.238-6.716-7.235 0-3.978 3.018-7.236 6.716-7.236 3.718 0 6.716 3.258 6.716 7.236z" fill="#f09d00" fill-rule="evenodd" fill-opacity="1" stroke="none"/><path clip-path="url(#a)" d="M44.973 64.68c0 3.998-2.998 7.236-6.716 7.236-3.698 0-6.716-3.238-6.716-7.235 0-3.978 3.018-7.236 6.716-7.236 3.718 0 6.716 3.258 6.716 7.236" fill="none" stroke="#333" stroke-width=".79951543px" stroke-linecap="butt" stroke-linejoin="miter" stroke-miterlimit="8" stroke-dasharray="none" stroke-opacity="1"/><path d="m35.558 52.528-.18-.2c0-.22 0-.22-.2-.42v-.2c0-.22-.2-.22-.2-.22v-9.713c0-.62.4-1.04.96-1.04.58 0 .96.42.96 1.04v9.094c0 .42.58 1.24 1.359 1.24.96 0 1.519-.82 1.519-1.24v-9.094c0-.62.4-1.04.96-1.04.4 0 .959.42.959 1.04v9.094c0 .22 0 .42-.18.62v.22s0 .2-.2.2v.2c-.18.22-.18.42-.18.42l-.2.199c0 .22-.2.42-.38.42 0 .22-.2.22-.2.42h-.18c0 .2-.2.2-.4.2v.22c-.179 0-.379.2-.379.2v3.517c0 .4-.38 1.02-.96 1.02-.579 0-.959-.62-.959-1.02v-3.518c-.58-.2-1.139-.62-1.719-1.24v-.219c-.2 0-.2-.2-.2-.2z" fill="#7c7c7c" fill-rule="evenodd" fill-opacity="1" stroke="none"/><path d="M41.295 42.214v9.075s-.2-3.078-.4-4.737v-5.577c.2.42.4.84.4 1.24zM36.558 42.214c0-.4-.18-1.019-.38-1.239.38.42.58.84.58 1.24v8.654c0 .2.38 1.22.94 1.22-1.14 0-1.32-1.02-1.32-1.64l.18-8.235zM42.814 66.6c0 1.319-.96 2.358-2.159 2.358-1.179 0-2.158-1.04-2.158-2.358 0-1.3.98-2.359 2.158-2.359 1.2 0 2.16 1.06 2.16 2.359z" fill="#fff" fill-rule="evenodd" fill-opacity="1" stroke="none"/><path d="M45.452 11.193c0-3.977 2.999-7.235 6.676-7.235 3.698 0 6.676 3.258 6.676 7.235 0 3.998-2.978 7.236-6.676 7.236-3.677 0-6.676-3.238-6.676-7.236z" fill="#f09d00" fill-rule="evenodd" fill-opacity="1" stroke="none"/><path clip-path="url(#a)" d="M45.452 11.193c0-3.977 2.999-7.235 6.676-7.235 3.698 0 6.676 3.258 6.676 7.235 0 3.998-2.978 7.236-6.676 7.236-3.677 0-6.676-3.238-6.676-7.236" fill="none" stroke="#333" stroke-width=".79951543px" stroke-linecap="butt" stroke-linejoin="miter" stroke-miterlimit="8" stroke-dasharray="none" stroke-opacity="1"/><path d="m54.807 23.406.18.22c0 .2 0 .2.2.4v.22c0 .2.18.2.18.2v9.673c0 .62-.38 1.02-.94 1.02-.56 0-.94-.4-.94-1.02v-9.054c0-.42-.58-1.24-1.339-1.24-.939 0-1.519.82-1.519 1.24v9.054c0 .62-.38 1.02-.94 1.02-.379 0-.959-.4-.959-1.02v-9.054c0-.2 0-.42.2-.62v-.2s0-.22.18-.22v-.2c.2-.2.2-.42.2-.42l.18-.2c0-.199.2-.399.38-.399 0-.22.2-.22.2-.42h.18c0-.2.2-.2.38-.2v-.22c.2 0 .38-.2.38-.2V18.27c0-.42.379-1.04.959-1.04.56 0 .939.62.939 1.04v3.498c.58.2 1.14.62 1.719 1.24v.199c.18 0 .18.2.18.2z" fill="#7c7c7c" fill-rule="evenodd" fill-opacity="1" stroke="none"/><path d="M49.13 33.68v-9.015s.16 3.078.32 4.717V34.9c-.16-.4-.32-.8-.32-1.22zM53.867 33.68c0 .4.2 1.019.38 1.219-.38-.4-.56-.82-.56-1.22v-8.654c0-.2-.38-1.24-.959-1.24 1.14 0 1.34 1.04 1.34 1.66l-.2 8.235zM47.531 9.274c0-1.299 1-2.358 2.199-2.358 1.22 0 2.199 1.06 2.199 2.358 0 1.32-.98 2.359-2.2 2.359-1.198 0-2.198-1.04-2.198-2.359z" fill="#fff" fill-rule="evenodd" fill-opacity="1" stroke="none"/><path d="M59.044 64.68c0 3.998-2.998 7.236-6.716 7.236-3.697 0-6.716-3.238-6.716-7.235 0-3.978 3.019-7.236 6.716-7.236 3.718 0 6.716 3.258 6.716 7.236z" fill="#f09d00" fill-rule="evenodd" fill-opacity="1" stroke="none"/><path clip-path="url(#a)" d="M59.044 64.68c0 3.998-2.998 7.236-6.716 7.236-3.697 0-6.716-3.238-6.716-7.235 0-3.978 3.019-7.236 6.716-7.236 3.718 0 6.716 3.258 6.716 7.236" fill="none" stroke="#333" stroke-width=".79951543px" stroke-linecap="butt" stroke-linejoin="miter" stroke-miterlimit="8" stroke-dasharray="none" stroke-opacity="1"/><path d="m49.63 52.528-.18-.2c0-.22 0-.22-.2-.42v-.2c0-.22-.2-.22-.2-.22v-9.713c0-.62.4-1.04.96-1.04.58 0 .96.42.96 1.04v9.094c0 .42.579 1.24 1.358 1.24.96 0 1.52-.82 1.52-1.24v-9.094c0-.62.4-1.04.959-1.04.4 0 .96.42.96 1.04v9.094c0 .22 0 .42-.18.62v.22s0 .2-.2.2v.2c-.18.22-.18.42-.18.42l-.2.199c0 .22-.2.42-.38.42 0 .22-.2.22-.2.42h-.18c0 .2-.2.2-.4.2v.22c-.18 0-.38.2-.38.2v3.517c0 .4-.38 1.02-.959 1.02-.58 0-.96-.62-.96-1.02v-3.518c-.579-.2-1.139-.62-1.718-1.24v-.219c-.2 0-.2-.2-.2-.2z" fill="#7c7c7c" fill-rule="evenodd" fill-opacity="1" stroke="none"/><path d="M55.366 42.214v9.075s-.2-3.078-.4-4.737v-5.577c.2.42.4.84.4 1.24zM50.63 42.214c0-.4-.18-1.019-.38-1.239.38.42.58.84.58 1.24v8.654c0 .2.379 1.22.939 1.22-1.14 0-1.32-1.02-1.32-1.64l.18-8.235zM56.886 66.6c0 1.319-.96 2.358-2.16 2.358-1.178 0-2.158-1.04-2.158-2.358 0-1.3.98-2.359 2.159-2.359 1.2 0 2.159 1.06 2.159 2.359z" fill="#fff" fill-rule="evenodd" fill-opacity="1" stroke="none"/><path d="M60.164 10.793c0-3.977 3.018-7.235 6.715-7.235 3.718 0 6.716 3.258 6.716 7.235 0 3.998-2.998 7.236-6.716 7.236-3.697 0-6.715-3.238-6.715-7.236z" fill="#f09d00" fill-rule="evenodd" fill-opacity="1" stroke="none"/><path clip-path="url(#a)" d="M60.164 10.793c0-3.977 3.018-7.235 6.715-7.235 3.718 0 6.716 3.258 6.716 7.235 0 3.998-2.998 7.236-6.716 7.236-3.697 0-6.715-3.238-6.715-7.236" fill="none" stroke="#333" stroke-width=".79951543px" stroke-linecap="butt" stroke-linejoin="miter" stroke-miterlimit="8" stroke-dasharray="none" stroke-opacity="1"/><path d="m69.518 22.966.18.2c0 .22 0 .22.2.42v.2c0 .22.18.22.18.22V33.72c0 .62-.38 1.019-.94 1.019-.56 0-.94-.4-.94-1.02v-9.094c0-.42-.579-1.24-1.339-1.24-.939 0-1.519.82-1.519 1.24v9.095c0 .62-.38 1.019-.939 1.019-.38 0-.96-.4-.96-1.02v-9.094c0-.22 0-.42.2-.62v-.22s0-.2.18-.2v-.2c.2-.219.2-.419.2-.419l.18-.22c0-.2.2-.4.38-.4 0-.22.2-.22.2-.42h.18c0-.2.2-.2.38-.2v-.219c.2 0 .38-.2.38-.2V17.79c0-.4.379-1.04.959-1.04.56 0 .939.64.939 1.04v3.518c.58.2 1.14.62 1.719 1.24v.2c.18 0 .18.22.18.22z" fill="#7c7c7c" fill-rule="evenodd" fill-opacity="1" stroke="none"/><path d="M63.841 33.28v-9.095s.2 3.098.4 4.757V34.5c-.2-.4-.4-.82-.4-1.22zM68.578 33.26c0 .42.2 1.04.38 1.24-.38-.4-.56-.82-.56-1.24v-8.695c0-.22-.38-1.26-.959-1.26 1.14 0 1.34 1.04 1.34 1.66l-.2 8.295zM62.322 8.875c0-1.3.98-2.359 2.159-2.359 1.2 0 2.159 1.06 2.159 2.359 0 1.319-.96 2.358-2.16 2.358-1.178 0-2.158-1.04-2.158-2.358z" fill="#fff" fill-rule="evenodd" fill-opacity="1" stroke="none"/><path d="M73.755 64.281c0 3.998-2.998 7.236-6.716 7.236-3.697 0-6.716-3.238-6.716-7.236 0-3.978 3.019-7.236 6.716-7.236 3.718 0 6.716 3.258 6.716 7.236z" fill="#f09d00" fill-rule="evenodd" fill-opacity="1" stroke="none"/><path clip-path="url(#a)" d="M73.755 64.281c0 3.998-2.998 7.236-6.716 7.236-3.697 0-6.716-3.238-6.716-7.236 0-3.978 3.019-7.236 6.716-7.236 3.718 0 6.716 3.258 6.716 7.236" fill="none" stroke="#333" stroke-width=".79951543px" stroke-linecap="butt" stroke-linejoin="miter" stroke-miterlimit="8" stroke-dasharray="none" stroke-opacity="1"/><path d="m64.421 52.088-.2-.22c0-.2 0-.2-.18-.4v-.22c0-.199-.2-.199-.2-.199v-9.674c0-.62.38-1.04.96-1.04.56 0 .94.42.94 1.04v9.054c0 .42.579 1.24 1.338 1.24.94 0 1.52-.82 1.52-1.24v-9.054c0-.62.38-1.04.939-1.04.38 0 .94.42.94 1.04v9.054c0 .2 0 .42-.18.62v.2s0 .22-.2.22v.2c-.18.2-.18.42-.18.42l-.18.2c0 .2-.2.4-.38.4 0 .219-.2.219-.2.419h-.18c0 .2-.2.2-.38.2v.22c-.2 0-.38.2-.38.2v3.497c0 .42-.38 1.02-.959 1.02-.56 0-.94-.6-.94-1.02v-3.498c-.579-.2-1.139-.62-1.718-1.239v-.2c-.18 0-.18-.2-.18-.2z" fill="#7c7c7c" fill-rule="evenodd" fill-opacity="1" stroke="none"/><path d="M70.078 41.815v8.994s-.2-3.058-.4-4.697V40.575c.2.42.4.82.4 1.24zM65.34 41.815c0-.4-.18-1.02-.38-1.24.38.42.58.84.58 1.24v8.654c0 .2.38 1.22.94 1.22-1.14 0-1.32-1.02-1.32-1.64l.18-8.234zM71.597 66.2c0 1.32-.96 2.358-2.16 2.358-1.178 0-2.158-1.039-2.158-2.358 0-1.3.98-2.359 2.159-2.359 1.2 0 2.159 1.06 2.159 2.359z" fill="#fff" fill-rule="evenodd" fill-opacity="1" stroke="none"/><path d="M74.395 10.793c0-3.977 3.018-7.235 6.716-7.235 3.718 0 6.716 3.258 6.716 7.235 0 3.998-2.998 7.236-6.716 7.236-3.698 0-6.716-3.238-6.716-7.236z" fill="#f09d00" fill-rule="evenodd" fill-opacity="1" stroke="none"/><path clip-path="url(#a)" d="M74.395 10.793c0-3.977 3.018-7.235 6.716-7.235 3.718 0 6.716 3.258 6.716 7.235 0 3.998-2.998 7.236-6.716 7.236-3.698 0-6.716-3.238-6.716-7.236" fill="none" stroke="#333" stroke-width=".79951543px" stroke-linecap="butt" stroke-linejoin="miter" stroke-miterlimit="8" stroke-dasharray="none" stroke-opacity="1"/><path d="m83.83 22.966.18.2c0 .22 0 .22.199.42v.2c0 .22.18.22.18.22V33.72c0 .62-.38 1.019-.94 1.019-.56 0-.939-.4-.939-1.02v-9.094c0-.42-.58-1.24-1.34-1.24-.939 0-1.518.82-1.518 1.24v9.095c0 .62-.38 1.019-.94 1.019-.38 0-.96-.4-.96-1.02v-9.094c0-.22 0-.42.2-.62v-.22s0-.2.18-.2v-.2c.2-.219.2-.419.2-.419l.18-.22c0-.2.2-.4.38-.4 0-.22.2-.22.2-.42h.18c0-.2.2-.2.38-.2v-.219c.2 0 .38-.2.38-.2V17.79c0-.4.38-1.04.959-1.04.56 0 .94.64.94 1.04v3.518c.579.2 1.139.62 1.718 1.24v.2c.18 0 .18.22.18.22z" fill="#7c7c7c" fill-rule="evenodd" fill-opacity="1" stroke="none"/><path d="M78.073 33.28v-9.095s.2 3.098.4 4.757V34.5c-.2-.4-.4-.82-.4-1.22zM82.89 33.26c0 .42.2 1.04.38 1.24-.38-.4-.56-.82-.56-1.24v-8.695c0-.22-.38-1.26-.96-1.26 1.14 0 1.34 1.04 1.34 1.66l-.2 8.295zM76.554 8.875c0-1.3.999-2.359 2.198-2.359 1.22 0 2.199 1.06 2.199 2.359 0 1.319-.98 2.358-2.199 2.358-1.199 0-2.198-1.04-2.198-2.358z" fill="#fff" fill-rule="evenodd" fill-opacity="1" stroke="none"/><path d="M88.067 64.281c0 3.998-2.999 7.236-6.716 7.236-3.698 0-6.716-3.238-6.716-7.236 0-3.978 3.018-7.236 6.716-7.236 3.717 0 6.716 3.258 6.716 7.236z" fill="#f09d00" fill-rule="evenodd" fill-opacity="1" stroke="none"/><path clip-path="url(#a)" d="M88.067 64.281c0 3.998-2.999 7.236-6.716 7.236-3.698 0-6.716-3.238-6.716-7.236 0-3.978 3.018-7.236 6.716-7.236 3.717 0 6.716 3.258 6.716 7.236" fill="none" stroke="#333" stroke-width=".79951543px" stroke-linecap="butt" stroke-linejoin="miter" stroke-miterlimit="8" stroke-dasharray="none" stroke-opacity="1"/><path d="m78.652 52.088-.18-.22c0-.2 0-.2-.2-.4v-.22c0-.199-.2-.199-.2-.199v-9.674c0-.62.4-1.04.96-1.04.58 0 .96.42.96 1.04v9.054c0 .42.58 1.24 1.359 1.24.96 0 1.519-.82 1.519-1.24v-9.054c0-.62.4-1.04.96-1.04.399 0 .959.42.959 1.04v9.054c0 .2 0 .42-.18.62v.2s0 .22-.2.22v.2c-.18.2-.18.42-.18.42l-.2.2c0 .2-.2.4-.38.4 0 .219-.2.219-.2.419h-.18c0 .2-.2.2-.4.2v.22c-.18 0-.379.2-.379.2v3.497c0 .42-.38 1.02-.96 1.02s-.959-.6-.959-1.02v-3.498c-.58-.2-1.14-.62-1.719-1.239v-.2c-.2 0-.2-.2-.2-.2z" fill="#7c7c7c" fill-rule="evenodd" fill-opacity="1" stroke="none"/><path d="M84.389 41.815v8.994s-.2-3.058-.4-4.697V40.575c.2.42.4.82.4 1.24zM79.652 41.815c0-.4-.18-1.02-.38-1.24.38.42.58.84.58 1.24v8.654c0 .2.38 1.22.939 1.22-1.14 0-1.32-1.02-1.32-1.64l.18-8.234zM85.908 66.2c0 1.32-.98 2.358-2.199 2.358-1.199 0-2.198-1.039-2.198-2.358 0-1.3.999-2.359 2.198-2.359 1.22 0 2.199 1.06 2.199 2.359z" fill="#fff" fill-rule="evenodd" fill-opacity="1" stroke="none"/><path d="M88.306 10.793c0-3.977 3.019-7.235 6.716-7.235 3.718 0 6.716 3.258 6.716 7.235 0 3.998-2.998 7.236-6.716 7.236-3.697 0-6.716-3.238-6.716-7.236z" fill="#f09d00" fill-rule="evenodd" fill-opacity="1" stroke="none"/><path clip-path="url(#a)" d="M88.306 10.793c0-3.977 3.019-7.235 6.716-7.235 3.718 0 6.716 3.258 6.716 7.235 0 3.998-2.998 7.236-6.716 7.236-3.697 0-6.716-3.238-6.716-7.236" fill="none" stroke="#333" stroke-width=".79951543px" stroke-linecap="butt" stroke-linejoin="miter" stroke-miterlimit="8" stroke-dasharray="none" stroke-opacity="1"/><path d="m97.66 22.966.18.2c0 .22 0 .22.2.42v.2c0 .22.18.22.18.22V33.72c0 .62-.38 1.019-.939 1.019-.56 0-.94-.4-.94-1.02v-9.094c0-.42-.579-1.24-1.339-1.24-.939 0-1.519.82-1.519 1.24v9.095c0 .62-.38 1.019-.94 1.019-.379 0-.959-.4-.959-1.02v-9.094c0-.22 0-.42.2-.62v-.22s0-.2.18-.2v-.2c.2-.219.2-.419.2-.419l.18-.22c0-.2.2-.4.38-.4 0-.22.2-.22.2-.42h.18c0-.2.2-.2.38-.2v-.219c.2 0 .38-.2.38-.2V17.79c0-.4.379-1.04.959-1.04.56 0 .939.64.939 1.04v3.518c.58.2 1.14.62 1.719 1.24v.2c.18 0 .18.22.18.22z" fill="#7c7c7c" fill-rule="evenodd" fill-opacity="1" stroke="none"/><path d="M91.984 33.28v-9.095s.2 3.098.4 4.757V34.5c-.2-.4-.4-.82-.4-1.22zM96.721 33.26c0 .42.2 1.04.38 1.24-.38-.4-.56-.82-.56-1.24v-8.695c0-.22-.38-1.26-.959-1.26 1.14 0 1.34 1.04 1.34 1.66l-.2 8.295zM90.465 8.875c0-1.3.98-2.359 2.159-2.359 1.2 0 2.159 1.06 2.159 2.359 0 1.319-.96 2.358-2.16 2.358-1.178 0-2.158-1.04-2.158-2.358z" fill="#fff" fill-rule="evenodd" fill-opacity="1" stroke="none"/><path d="M101.898 64.281c0 3.998-2.998 7.236-6.716 7.236-3.697 0-6.716-3.238-6.716-7.236 0-3.978 3.019-7.236 6.716-7.236 3.718 0 6.716 3.258 6.716 7.236z" fill="#f09d00" fill-rule="evenodd" fill-opacity="1" stroke="none"/><path clip-path="url(#a)" d="M101.898 64.281c0 3.998-2.998 7.236-6.716 7.236-3.697 0-6.716-3.238-6.716-7.236 0-3.978 3.019-7.236 6.716-7.236 3.718 0 6.716 3.258 6.716 7.236" fill="none" stroke="#333" stroke-width=".79951543px" stroke-linecap="butt" stroke-linejoin="miter" stroke-miterlimit="8" stroke-dasharray="none" stroke-opacity="1"/><path d="m92.564 52.088-.2-.22c0-.2 0-.2-.18-.4v-.22c0-.199-.2-.199-.2-.199v-9.674c0-.62.38-1.04.96-1.04.56 0 .94.42.94 1.04v9.054c0 .42.579 1.24 1.338 1.24.94 0 1.52-.82 1.52-1.24v-9.054c0-.62.38-1.04.939-1.04.38 0 .94.42.94 1.04v9.054c0 .2 0 .42-.18.62v.2s0 .22-.2.22v.2c-.18.2-.18.42-.18.42l-.18.2c0 .2-.2.4-.38.4 0 .219-.2.219-.2.419h-.18c0 .2-.2.2-.38.2v.22c-.2 0-.38.2-.38.2v3.497c0 .42-.38 1.02-.959 1.02-.56 0-.94-.6-.94-1.02v-3.498c-.579-.2-1.139-.62-1.718-1.239v-.2c-.18 0-.18-.2-.18-.2z" fill="#7c7c7c" fill-rule="evenodd" fill-opacity="1" stroke="none"/><path d="M98.22 41.815v8.994s-.2-3.058-.4-4.697V40.575c.2.42.4.82.4 1.24zM93.483 41.815c0-.4-.18-1.02-.38-1.24.38.42.58.84.58 1.24v8.654c0 .2.38 1.22.94 1.22-1.14 0-1.32-1.02-1.32-1.64l.18-8.234zM99.74 66.2c0 1.32-.96 2.358-2.16 2.358-1.178 0-2.158-1.039-2.158-2.358 0-1.3.98-2.359 2.159-2.359 1.2 0 2.159 1.06 2.159 2.359z" fill="#fff" fill-rule="evenodd" fill-opacity="1" stroke="none"/><path d="M102.378 10.793c0-3.977 3.018-7.235 6.716-7.235 3.718 0 6.716 3.258 6.716 7.235 0 3.998-2.998 7.236-6.716 7.236-3.698 0-6.716-3.238-6.716-7.236z" fill="#f09d00" fill-rule="evenodd" fill-opacity="1" stroke="none"/><path clip-path="url(#a)" d="M102.378 10.793c0-3.977 3.018-7.235 6.716-7.235 3.718 0 6.716 3.258 6.716 7.235 0 3.998-2.998 7.236-6.716 7.236-3.698 0-6.716-3.238-6.716-7.236" fill="none" stroke="#333" stroke-width=".79951543px" stroke-linecap="butt" stroke-linejoin="miter" stroke-miterlimit="8" stroke-dasharray="none" stroke-opacity="1"/><path d="m111.732 22.966.18.2c0 .22 0 .22.2.42v.2c0 .22.18.22.18.22V33.72c0 .62-.38 1.019-.94 1.019-.56 0-.939-.4-.939-1.02v-9.094c0-.42-.58-1.24-1.34-1.24-.939 0-1.518.82-1.518 1.24v9.095c0 .62-.38 1.019-.94 1.019-.38 0-.959-.4-.959-1.02v-9.094c0-.22 0-.42.2-.62v-.22s0-.2.18-.2v-.2c.2-.219.2-.419.2-.419l.18-.22c0-.2.2-.4.38-.4 0-.22.2-.22.2-.42h.18c-.001-.2.199-.2.379-.2v-.219c.2 0 .38-.2.38-.2V17.79c0-.4.38-1.04.959-1.04.56 0 .94.64.94 1.04v3.518c.58.2 1.139.62 1.718 1.24v.2c.18 0 .18.22.18.22z" fill="#7c7c7c" fill-rule="evenodd" fill-opacity="1" stroke="none"/><path d="M106.056 33.28v-9.095s.2 3.098.4 4.757V34.5c-.2-.4-.4-.82-.4-1.22zM110.793 33.26c0 .42.2 1.04.38 1.24-.38-.4-.56-.82-.56-1.24v-8.695c0-.22-.38-1.26-.96-1.26 1.14 0 1.34 1.04 1.34 1.66l-.2 8.295zM104.537 8.875c0-1.3.98-2.359 2.158-2.359 1.2 0 2.159 1.06 2.159 2.359 0 1.319-.96 2.358-2.159 2.358-1.179 0-2.158-1.04-2.158-2.358z" fill="#fff" fill-rule="evenodd" fill-opacity="1" stroke="none"/><path d="M115.97 64.281c0 3.998-2.998 7.236-6.716 7.236-3.698 0-6.716-3.238-6.716-7.236 0-3.978 3.018-7.236 6.716-7.236 3.718 0 6.716 3.258 6.716 7.236z" fill="#f09d00" fill-rule="evenodd" fill-opacity="1" stroke="none"/><path clip-path="url(#a)" d="M115.97 64.281c0 3.998-2.998 7.236-6.716 7.236-3.698 0-6.716-3.238-6.716-7.236 0-3.978 3.018-7.236 6.716-7.236 3.718 0 6.716 3.258 6.716 7.236" fill="none" stroke="#333" stroke-width=".79951543px" stroke-linecap="butt" stroke-linejoin="miter" stroke-miterlimit="8" stroke-dasharray="none" stroke-opacity="1"/><path d="m106.635 52.088-.2-.22c0-.2 0-.2-.18-.4v-.22c0-.199-.2-.199-.2-.199v-9.674c0-.62.38-1.04.96-1.04.56 0 .94.42.94 1.04v9.054c0 .42.58 1.24 1.339 1.24.94 0 1.519-.82 1.519-1.24v-9.054c0-.62.38-1.04.94-1.04.379 0 .939.42.939 1.04v9.054c0 .2 0 .42-.18.62v.2s0 .22-.2.22v.2c-.18.2-.18.42-.18.42l-.18.2c0 .2-.2.4-.38.4 0 .219-.2.219-.2.419h-.18c0 .2-.2.2-.38.2v.22c-.199 0-.379.2-.379.2v3.497c0 .42-.38 1.02-.96 1.02-.559 0-.939-.6-.939-1.02v-3.498c-.58-.2-1.14-.62-1.719-1.239v-.2c-.18 0-.18-.2-.18-.2z" fill="#7c7c7c" fill-rule="evenodd" fill-opacity="1" stroke="none"/><path d="M112.292 41.815v8.994s-.16-3.058-.32-4.697V40.575c.16.42.32.82.32 1.24zM107.555 41.815c0-.4-.18-1.02-.38-1.24.38.42.58.84.58 1.24v8.654c0 .2.38 1.22.94 1.22-1.14 0-1.32-1.02-1.32-1.64l.18-8.234zM113.811 66.2c0 1.32-.96 2.358-2.159 2.358-1.179 0-2.158-1.039-2.158-2.358 0-1.3.98-2.359 2.158-2.359 1.2 0 2.159 1.06 2.159 2.359z" fill="#fff" fill-rule="evenodd" fill-opacity="1" stroke="none"/><path d="M117.089 10.793c0-3.977 3.018-7.235 6.716-7.235 3.718 0 6.716 3.258 6.716 7.235 0 3.998-2.998 7.236-6.716 7.236-3.698 0-6.716-3.238-6.716-7.236z" fill="#f09d00" fill-rule="evenodd" fill-opacity="1" stroke="none"/><path clip-path="url(#a)" d="M117.089 10.793c0-3.977 3.018-7.235 6.716-7.235 3.718 0 6.716 3.258 6.716 7.235 0 3.998-2.998 7.236-6.716 7.236-3.698 0-6.716-3.238-6.716-7.236" fill="none" stroke="#333" stroke-width=".79951543px" stroke-linecap="butt" stroke-linejoin="miter" stroke-miterlimit="8" stroke-dasharray="none" stroke-opacity="1"/><path d="m126.523 22.966.18.2c0 .22 0 .22.2.42v.2c0 .22.18.22.18.22V33.72c0 .62-.38 1.019-.96 1.019-.56 0-.959-.4-.959-1.02v-9.094c0-.42-.56-1.24-1.34-1.24-.958 0-1.538.82-1.538 1.24v9.095c0 .62-.38 1.019-.96 1.019-.38 0-.959-.4-.959-1.02v-9.094c0-.22 0-.42.2-.62v-.22s0-.2.2-.2v-.2c.18-.219.18-.419.18-.419l.2-.22c0-.2.18-.4.38-.4 0-.22.2-.22.2-.42h.18c0-.2.199-.2.379-.2v-.219c.2 0 .4-.2.4-.2V17.79c0-.4.38-1.04.96-1.04.559 0 .958.64.958 1.04v3.518c.56.2 1.14.62 1.72 1.24v.2c.2 0 .2.22.2.22z" fill="#7c7c7c" fill-rule="evenodd" fill-opacity="1" stroke="none"/><path d="M120.767 33.28v-9.095s.2 3.098.4 4.757V34.5c-.2-.4-.4-.82-.4-1.22zM125.504 33.26c0 .42.2 1.04.38 1.24-.38-.4-.56-.82-.56-1.24v-8.695c0-.22-.38-1.26-.96-1.26 1.14 0 1.34 1.04 1.34 1.66l-.2 8.295zM119.248 8.875c0-1.3.98-2.359 2.158-2.359 1.2 0 2.16 1.06 2.16 2.359 0 1.319-.96 2.358-2.16 2.358-1.179 0-2.158-1.04-2.158-2.358z" fill="#fff" fill-rule="evenodd" fill-opacity="1" stroke="none"/><path d="M130.76 64.281c0 3.998-2.997 7.236-6.715 7.236-3.698 0-6.716-3.238-6.716-7.236 0-3.978 3.018-7.236 6.716-7.236 3.718 0 6.716 3.258 6.716 7.236z" fill="#f09d00" fill-rule="evenodd" fill-opacity="1" stroke="none"/><path clip-path="url(#a)" d="M130.76 64.281c0 3.998-2.997 7.236-6.715 7.236-3.698 0-6.716-3.238-6.716-7.236 0-3.978 3.018-7.236 6.716-7.236 3.718 0 6.716 3.258 6.716 7.236" fill="none" stroke="#333" stroke-width=".79951543px" stroke-linecap="butt" stroke-linejoin="miter" stroke-miterlimit="8" stroke-dasharray="none" stroke-opacity="1"/><path d="m121.346 52.088-.2-.22c0-.2 0-.2-.18-.4v-.22c0-.199-.2-.199-.2-.199v-9.674c0-.62.38-1.04.96-1.04.56 0 .94.42.94 1.04v9.054c0 .42.58 1.24 1.339 1.24.94 0 1.519-.82 1.519-1.24v-9.054c0-.62.38-1.04.94-1.04.38 0 .939.42.939 1.04v9.054c0 .2 0 .42-.18.62v.2s0 .22-.2.22v.2c-.18.2-.18.42-.18.42l-.18.2c0 .2-.2.4-.38.4 0 .219-.2.219-.2.419h-.18c0 .2-.2.2-.38.2v.22c-.199 0-.379.2-.379.2v3.497c0 .42-.38 1.02-.96 1.02-.559 0-.939-.6-.939-1.02v-3.498c-.58-.2-1.139-.62-1.719-1.239v-.2c-.18 0-.18-.2-.18-.2z" fill="#7c7c7c" fill-rule="evenodd" fill-opacity="1" stroke="none"/><path d="M127.003 41.815v8.994s-.16-3.058-.32-4.697V40.575c.16.42.32.82.32 1.24zM122.266 41.815c0-.4-.18-1.02-.38-1.24.38.42.58.84.58 1.24v8.654c0 .2.38 1.22.94 1.22-1.14 0-1.32-1.02-1.32-1.64l.18-8.234zM128.602 66.2c0 1.32-.98 2.358-2.199 2.358-1.199 0-2.198-1.039-2.198-2.358 0-1.3 1-2.359 2.198-2.359 1.22 0 2.2 1.06 2.2 2.359z" fill="#fff" fill-rule="evenodd" fill-opacity="1" stroke="none"/><path d="M131.4 10.793c0-3.977 3.019-7.235 6.716-7.235 3.718 0 6.716 3.258 6.716 7.235 0 3.998-2.998 7.236-6.716 7.236-3.697 0-6.716-3.238-6.716-7.236z" fill="#f09d00" fill-rule="evenodd" fill-opacity="1" stroke="none"/><path clip-path="url(#a)" d="M131.4 10.793c0-3.977 3.019-7.235 6.716-7.235 3.718 0 6.716 3.258 6.716 7.235 0 3.998-2.998 7.236-6.716 7.236-3.697 0-6.716-3.238-6.716-7.236" fill="none" stroke="#333" stroke-width=".79951543px" stroke-linecap="butt" stroke-linejoin="miter" stroke-miterlimit="8" stroke-dasharray="none" stroke-opacity="1"/><path d="m140.755 22.966.18.2c0 .22 0 .22.2.42v.2c0 .22.18.22.18.22V33.72c0 .62-.38 1.019-.94 1.019-.56 0-.94-.4-.94-1.02v-9.094c0-.42-.58-1.24-1.339-1.24-.94 0-1.519.82-1.519 1.24v9.095c0 .62-.38 1.019-.94 1.019-.379 0-.959-.4-.959-1.02v-9.094c0-.22 0-.42.2-.62v-.22s0-.2.18-.2v-.2c.2-.219.2-.419.2-.419l.18-.22c0-.2.2-.4.38-.4 0-.22.2-.22.2-.42h.18c0-.2.2-.2.38-.2v-.219c.2 0 .379-.2.379-.2V17.79c0-.4.38-1.04.96-1.04.56 0 .939.64.939 1.04v3.518c.58.2 1.14.62 1.719 1.24v.2c.18 0 .18.22.18.22z" fill="#7c7c7c" fill-rule="evenodd" fill-opacity="1" stroke="none"/><path d="M135.078 33.28v-9.095s.16 3.098.32 4.757V34.5c-.16-.4-.32-.82-.32-1.22zM139.815 33.26c0 .42.2 1.04.38 1.24-.38-.4-.56-.82-.56-1.24v-8.695c0-.22-.38-1.26-.959-1.26 1.14 0 1.34 1.04 1.34 1.66l-.2 8.295zM133.48 8.875c0-1.3.999-2.359 2.198-2.359 1.219 0 2.198 1.06 2.198 2.359 0 1.319-.979 2.358-2.198 2.358-1.2 0-2.199-1.04-2.199-2.358z" fill="#fff" fill-rule="evenodd" fill-opacity="1" stroke="none"/><path d="M144.992 64.281c0 3.998-2.998 7.236-6.716 7.236-3.698 0-6.716-3.238-6.716-7.236 0-3.978 3.018-7.236 6.716-7.236 3.718 0 6.716 3.258 6.716 7.236z" fill="#f09d00" fill-rule="evenodd" fill-opacity="1" stroke="none"/><path clip-path="url(#a)" d="M144.992 64.281c0 3.998-2.998 7.236-6.716 7.236-3.698 0-6.716-3.238-6.716-7.236 0-3.978 3.018-7.236 6.716-7.236 3.718 0 6.716 3.258 6.716 7.236" fill="none" stroke="#333" stroke-width=".79951543px" stroke-linecap="butt" stroke-linejoin="miter" stroke-miterlimit="8" stroke-dasharray="none" stroke-opacity="1"/><path d="m135.658 52.088-.2-.22c0-.2 0-.2-.18-.4v-.22c0-.199-.2-.199-.2-.199v-9.674c0-.62.38-1.04.96-1.04.56 0 .939.42.939 1.04v9.054c0 .42.58 1.24 1.34 1.24.939 0 1.518-.82 1.518-1.24v-9.054c0-.62.38-1.04.94-1.04.38 0 .94.42.94 1.04v9.054c0 .2 0 .42-.18.62v.2s0 .22-.2.22v.2c-.18.2-.18.42-.18.42l-.18.2c0 .2-.2.4-.38.4 0 .219-.2.219-.2.419h-.18c0 .2-.2.2-.38.2v.22c-.2 0-.38.2-.38.2v3.497c0 .42-.38 1.02-.959 1.02-.56 0-.94-.6-.94-1.02v-3.498c-.579-.2-1.139-.62-1.718-1.239v-.2c-.18 0-.18-.2-.18-.2z" fill="#7c7c7c" fill-rule="evenodd" fill-opacity="1" stroke="none"/><path d="M141.314 41.815v8.994s-.2-3.058-.4-4.697V40.575c.2.42.4.82.4 1.24zM136.577 41.815c0-.4-.18-1.02-.38-1.24.38.42.58.84.58 1.24v8.654c0 .2.38 1.22.94 1.22-1.14 0-1.32-1.02-1.32-1.64l.18-8.234zM142.833 66.2c0 1.32-.959 2.358-2.158 2.358-1.18 0-2.159-1.039-2.159-2.358 0-1.3.98-2.359 2.159-2.359 1.199 0 2.158 1.06 2.158 2.359z" fill="#fff" fill-rule="evenodd" fill-opacity="1" stroke="none"/><path d="M145.232 10.793c0-3.977 3.018-7.235 6.716-7.235 3.718 0 6.716 3.258 6.716 7.235 0 3.998-2.998 7.236-6.716 7.236-3.698 0-6.716-3.238-6.716-7.236z" fill="#f09d00" fill-rule="evenodd" fill-opacity="1" stroke="none"/><path clip-path="url(#a)" d="M145.232 10.793c0-3.977 3.018-7.235 6.716-7.235 3.718 0 6.716 3.258 6.716 7.235 0 3.998-2.998 7.236-6.716 7.236-3.698 0-6.716-3.238-6.716-7.236" fill="none" stroke="#333" stroke-width=".79951543px" stroke-linecap="butt" stroke-linejoin="miter" stroke-miterlimit="8" stroke-dasharray="none" stroke-opacity="1"/><path d="m154.666 22.966.18.2c0 .22 0 .22.2.42v.2c0 .22.18.22.18.22V33.72c0 .62-.38 1.019-.96 1.019-.56 0-.959-.4-.959-1.02v-9.094c0-.42-.56-1.24-1.34-1.24-.959 0-1.538.82-1.538 1.24v9.095c0 .62-.38 1.019-.96 1.019-.38 0-.959-.4-.959-1.02v-9.094c0-.22 0-.42.2-.62v-.22s0-.2.2-.2v-.2c.18-.219.18-.419.18-.419l.2-.22c0-.2.18-.4.38-.4 0-.22.2-.22.2-.42h.18c0-.2.199-.2.379-.2v-.219c.2 0 .4-.2.4-.2V17.79c0-.4.38-1.04.959-1.04.56 0 .96.64.96 1.04v3.518c.56.2 1.139.62 1.718 1.24v.2c.2 0 .2.22.2.22z" fill="#7c7c7c" fill-rule="evenodd" fill-opacity="1" stroke="none"/><path d="M148.91 33.28v-9.095s.2 3.098.4 4.757V34.5c-.2-.4-.4-.82-.4-1.22zM153.647 33.26c0 .42.2 1.04.38 1.24-.38-.4-.56-.82-.56-1.24v-8.695c0-.22-.38-1.26-.96-1.26 1.14 0 1.34 1.04 1.34 1.66l-.2 8.295zM147.39 8.875c0-1.3 1-2.359 2.2-2.359 1.219 0 2.198 1.06 2.198 2.359 0 1.319-.98 2.358-2.199 2.358-1.199 0-2.198-1.04-2.198-2.358z" fill="#fff" fill-rule="evenodd" fill-opacity="1" stroke="none"/><path d="M158.904 64.281c0 3.998-2.998 7.236-6.716 7.236-3.698 0-6.716-3.238-6.716-7.236 0-3.978 3.018-7.236 6.716-7.236 3.718 0 6.716 3.258 6.716 7.236z" fill="#f09d00" fill-rule="evenodd" fill-opacity="1" stroke="none"/><path clip-path="url(#a)" d="M158.904 64.281c0 3.998-2.998 7.236-6.716 7.236-3.698 0-6.716-3.238-6.716-7.236 0-3.978 3.018-7.236 6.716-7.236 3.718 0 6.716 3.258 6.716 7.236" fill="none" stroke="#333" stroke-width=".79951543px" stroke-linecap="butt" stroke-linejoin="miter" stroke-miterlimit="8" stroke-dasharray="none" stroke-opacity="1"/><path d="m149.49 52.088-.2-.22c0-.2 0-.2-.18-.4v-.22c0-.199-.2-.199-.2-.199v-9.674c0-.62.38-1.04.96-1.04.559 0 .939.42.939 1.04v9.054c0 .42.58 1.24 1.339 1.24.94 0 1.519-.82 1.519-1.24v-9.054c0-.62.38-1.04.94-1.04.38 0 .939.42.939 1.04v9.054c0 .2 0 .42-.18.62v.2s0 .22-.2.22v.2c-.18.2-.18.42-.18.42l-.18.2c0 .2-.2.4-.38.4 0 .219-.2.219-.2.419h-.18c0 .2-.2.2-.38.2v.22c-.199 0-.379.2-.379.2v3.497c0 .42-.38 1.02-.96 1.02-.559 0-.939-.6-.939-1.02v-3.498c-.58-.2-1.14-.62-1.719-1.239v-.2c-.18 0-.18-.2-.18-.2z" fill="#7c7c7c" fill-rule="evenodd" fill-opacity="1" stroke="none"/><path d="M155.226 41.815v8.994s-.2-3.058-.4-4.697V40.575c.2.42.4.82.4 1.24zM150.409 41.815c0-.4-.18-1.02-.38-1.24.38.42.58.84.58 1.24v8.654c0 .2.38 1.22.94 1.22-1.14 0-1.32-1.02-1.32-1.64l.18-8.234zM156.745 66.2c0 1.32-.98 2.358-2.199 2.358-1.199 0-2.198-1.039-2.198-2.358 0-1.3 1-2.359 2.198-2.359 1.22 0 2.199 1.06 2.199 2.359z" fill="#fff" fill-rule="evenodd" fill-opacity="1" stroke="none"/><path d="M159.303 10.793c0-3.977 3.019-7.235 6.716-7.235 3.718 0 6.716 3.258 6.716 7.235 0 3.998-2.998 7.236-6.716 7.236-3.697 0-6.716-3.238-6.716-7.236z" fill="#f09d00" fill-rule="evenodd" fill-opacity="1" stroke="none"/><path clip-path="url(#a)" d="M159.303 10.793c0-3.977 3.019-7.235 6.716-7.235 3.718 0 6.716 3.258 6.716 7.235 0 3.998-2.998 7.236-6.716 7.236-3.697 0-6.716-3.238-6.716-7.236" fill="none" stroke="#333" stroke-width=".79951543px" stroke-linecap="butt" stroke-linejoin="miter" stroke-miterlimit="8" stroke-dasharray="none" stroke-opacity="1"/><path d="m168.738 22.966.18.2c0 .22 0 .22.2.42v.2c0 .22.18.22.18.22V33.72c0 .62-.38 1.019-.96 1.019-.56 0-.96-.4-.96-1.02v-9.094c0-.42-.56-1.24-1.339-1.24-.959 0-1.539.82-1.539 1.24v9.095c0 .62-.38 1.019-.96 1.019-.379 0-.959-.4-.959-1.02v-9.094c0-.22 0-.42.2-.62v-.22s0-.2.2-.2v-.2c.18-.219.18-.419.18-.419l.2-.22c0-.2.18-.4.38-.4 0-.22.2-.22.2-.42h.18c0-.2.2-.2.38-.2v-.219c.2 0 .4-.2.4-.2V17.79c0-.4.379-1.04.958-1.04.56 0 .96.64.96 1.04v3.518c.56.2 1.14.62 1.719 1.24v.2c.2 0 .2.22.2.22z" fill="#7c7c7c" fill-rule="evenodd" fill-opacity="1" stroke="none"/><path d="M162.981 33.28v-9.095s.2 3.098.4 4.757V34.5c-.2-.4-.4-.82-.4-1.22zM167.718 33.26c0 .42.2 1.04.38 1.24-.38-.4-.56-.82-.56-1.24v-8.695c0-.22-.38-1.26-.959-1.26 1.14 0 1.34 1.04 1.34 1.66l-.2 8.295zM161.462 8.875c0-1.3 1-2.359 2.199-2.359 1.22 0 2.198 1.06 2.198 2.359 0 1.319-.979 2.358-2.198 2.358-1.2 0-2.199-1.04-2.199-2.358z" fill="#fff" fill-rule="evenodd" fill-opacity="1" stroke="none"/><path d="M172.975 64.281c0 3.998-2.998 7.236-6.716 7.236-3.698 0-6.716-3.238-6.716-7.236 0-3.978 3.018-7.236 6.716-7.236 3.718 0 6.716 3.258 6.716 7.236z" fill="#f09d00" fill-rule="evenodd" fill-opacity="1" stroke="none"/><path clip-path="url(#a)" d="M172.975 64.281c0 3.998-2.998 7.236-6.716 7.236-3.698 0-6.716-3.238-6.716-7.236 0-3.978 3.018-7.236 6.716-7.236 3.718 0 6.716 3.258 6.716 7.236" fill="none" stroke="#333" stroke-width=".79951543px" stroke-linecap="butt" stroke-linejoin="miter" stroke-miterlimit="8" stroke-dasharray="none" stroke-opacity="1"/><path d="m163.56 52.088-.199-.22c0-.2 0-.2-.18-.4v-.22c0-.199-.2-.199-.2-.199v-9.674c0-.62.38-1.04.96-1.04.56 0 .94.42.94 1.04v9.054c0 .42.579 1.24 1.338 1.24.94 0 1.52-.82 1.52-1.24v-9.054c0-.62.38-1.04.939-1.04.38 0 .94.42.94 1.04v9.054c0 .2 0 .42-.18.62v.2s0 .22-.2.22v.2c-.18.2-.18.42-.18.42l-.18.2c0 .2-.2.4-.38.4 0 .219-.2.219-.2.419h-.18c0 .2-.2.2-.38.2v.22c-.2 0-.38.2-.38.2v3.497c0 .42-.38 1.02-.959 1.02-.56 0-.94-.6-.94-1.02v-3.498c-.579-.2-1.139-.62-1.718-1.239v-.2c-.18 0-.18-.2-.18-.2z" fill="#7c7c7c" fill-rule="evenodd" fill-opacity="1" stroke="none"/><path d="M169.297 41.815v8.994s-.2-3.058-.4-4.697V40.575c.2.42.4.82.4 1.24zM164.48 41.815c0-.4-.18-1.02-.38-1.24.38.42.58.84.58 1.24v8.654c0 .2.38 1.22.94 1.22-1.14 0-1.32-1.02-1.32-1.64l.18-8.234zM170.816 66.2c0 1.32-.979 2.358-2.198 2.358-1.2 0-2.199-1.039-2.199-2.358 0-1.3 1-2.359 2.199-2.359 1.22 0 2.198 1.06 2.198 2.359z" fill="#fff" fill-rule="evenodd" fill-opacity="1" stroke="none"/><path d="M174.015 10.354c0-3.958 3.018-7.196 6.715-7.196 3.718 0 6.716 3.238 6.716 7.196 0 3.977-2.998 7.195-6.716 7.195-3.697 0-6.715-3.218-6.715-7.195z" fill="#f09d00" fill-rule="evenodd" fill-opacity="1" stroke="none"/><path clip-path="url(#a)" d="M174.015 10.354c0-3.958 3.018-7.196 6.715-7.196 3.718 0 6.716 3.238 6.716 7.196 0 3.977-2.998 7.195-6.716 7.195-3.697 0-6.715-3.218-6.715-7.195" fill="none" stroke="#333" stroke-width=".79951543px" stroke-linecap="butt" stroke-linejoin="miter" stroke-miterlimit="8" stroke-dasharray="none" stroke-opacity="1"/><path d="m183.449 22.526.18.22c0 .2 0 .2.2.4v.22c0 .2.18.2.18.2v9.674c0 .62-.38 1.02-.96 1.02-.56 0-.96-.4-.96-1.02v-9.055c0-.42-.559-1.239-1.339-1.239-.959 0-1.539.82-1.539 1.24v9.054c0 .62-.38 1.02-.959 1.02-.38 0-.96-.4-.96-1.02v-9.055c0-.2 0-.42.2-.62v-.2s0-.219.2-.219v-.2c.18-.2.18-.42.18-.42l.2-.2c0-.2.18-.4.38-.4 0-.22.2-.22.2-.419h.18c0-.2.2-.2.38-.2v-.22c.2 0 .4-.2.4-.2V17.39c0-.42.379-1.039.959-1.039.56 0 .959.62.959 1.04v3.497c.56.2 1.14.62 1.719 1.24v.2c.2 0 .2.2.2.2z" fill="#7c7c7c" fill-rule="evenodd" fill-opacity="1" stroke="none"/><path d="M177.692 32.8v-9.014s.2 3.078.4 4.717v5.517c-.2-.4-.4-.8-.4-1.22zM182.43 32.8c0 .4.2 1.02.38 1.22-.38-.4-.56-.82-.56-1.22V24.145c0-.2-.38-1.239-.96-1.239 1.14 0 1.34 1.04 1.34 1.66l-.2 8.234zM176.173 8.395c0-1.3 1-2.359 2.199-2.359 1.22 0 2.199 1.06 2.199 2.359 0 1.32-.98 2.358-2.2 2.358-1.198 0-2.198-1.039-2.198-2.358z" fill="#fff" fill-rule="evenodd" fill-opacity="1" stroke="none"/><path d="M187.686 63.801c0 3.998-2.998 7.236-6.716 7.236-3.697 0-6.716-3.238-6.716-7.236 0-3.977 3.019-7.235 6.716-7.235 3.718 0 6.716 3.258 6.716 7.235z" fill="#f09d00" fill-rule="evenodd" fill-opacity="1" stroke="none"/><path clip-path="url(#a)" d="M187.686 63.801c0 3.998-2.998 7.236-6.716 7.236-3.697 0-6.716-3.238-6.716-7.236 0-3.977 3.019-7.235 6.716-7.235 3.718 0 6.716 3.258 6.716 7.235" fill="none" stroke="#333" stroke-width=".79951543px" stroke-linecap="butt" stroke-linejoin="miter" stroke-miterlimit="8" stroke-dasharray="none" stroke-opacity="1"/><path d="m178.272 51.689-.2-.22c0-.2 0-.2-.18-.4v-.22c0-.2-.2-.2-.2-.2v-9.674c0-.62.38-1.04.96-1.04.56 0 .94.42.94 1.04v9.055c0 .42.579 1.239 1.338 1.239.94 0 1.52-.82 1.52-1.24v-9.054c0-.62.38-1.04.939-1.04.38 0 .94.42.94 1.04v9.055c0 .2 0 .42-.18.62v.2s0 .219-.2.219v.2c-.18.2-.18.42-.18.42l-.18.2c0 .2-.2.4-.38.4 0 .22-.2.22-.2.42h-.18c0 .199-.2.199-.38.199v.22c-.2 0-.38.2-.38.2v3.498c0 .42-.38 1.019-.959 1.019-.56 0-.94-.6-.94-1.02v-3.497c-.579-.2-1.138-.62-1.718-1.24v-.2c-.18 0-.18-.2-.18-.2z" fill="#7c7c7c" fill-rule="evenodd" fill-opacity="1" stroke="none"/><path d="M184.008 41.335v9.074s-.2-3.078-.4-4.737v-5.577c.2.42.4.84.4 1.24zM179.211 41.355c0-.42-.2-1.04-.4-1.26.4.42.6.84.6 1.26v8.695c0 .22.4 1.239 1 1.239-1.2 0-1.4-1.02-1.4-1.64l.2-8.294zM185.528 65.72c0 1.32-.98 2.359-2.2 2.359-1.198 0-2.198-1.04-2.198-2.359 0-1.299 1-2.358 2.199-2.358 1.22 0 2.199 1.059 2.199 2.358z" fill="#fff" fill-rule="evenodd" fill-opacity="1" stroke="none"/><path d="M188.326 10.354c0-3.958 3.018-7.196 6.716-7.196 3.718 0 6.716 3.238 6.716 7.196 0 3.977-2.998 7.195-6.716 7.195-3.698 0-6.716-3.218-6.716-7.195z" fill="#f09d00" fill-rule="evenodd" fill-opacity="1" stroke="none"/><path clip-path="url(#a)" d="M188.326 10.354c0-3.958 3.018-7.196 6.716-7.196 3.718 0 6.716 3.238 6.716 7.196 0 3.977-2.998 7.195-6.716 7.195-3.698 0-6.716-3.218-6.716-7.195" fill="none" stroke="#333" stroke-width=".79951543px" stroke-linecap="butt" stroke-linejoin="miter" stroke-miterlimit="8" stroke-dasharray="none" stroke-opacity="1"/><path d="m197.76 22.526.18.22c0 .2 0 .2.2.4v.22c0 .2.18.2.18.2v9.674c0 .62-.38 1.02-.96 1.02-.56 0-.959-.4-.959-1.02v-9.055c0-.42-.56-1.239-1.34-1.239-.959 0-1.538.82-1.538 1.24v9.054c0 .62-.38 1.02-.96 1.02-.38 0-.96-.4-.96-1.02v-9.055c0-.2 0-.42.2-.62v-.2s0-.219.2-.219v-.2c.18-.2.18-.42.18-.42l.2-.2c0-.2.18-.4.38-.4 0-.22.2-.22.2-.419h.18c0-.2.2-.2.38-.2v-.22c.2 0 .4-.2.4-.2V17.39c0-.42.38-1.039.959-1.039.56 0 .96.62.96 1.04v3.497c.559.2 1.139.62 1.718 1.24v.2c.2 0 .2.2.2.2z" fill="#7c7c7c" fill-rule="evenodd" fill-opacity="1" stroke="none"/><path d="M192.004 32.8v-9.014s.2 3.078.4 4.717v5.517c-.2-.4-.4-.8-.4-1.22zM196.74 32.8c0 .4.2 1.02.38 1.22-.38-.4-.56-.82-.56-1.22V24.145c0-.2-.379-1.239-.959-1.239 1.14 0 1.34 1.04 1.34 1.66l-.2 8.234zM190.485 8.395c0-1.3.979-2.359 2.158-2.359 1.2 0 2.159 1.06 2.159 2.359 0 1.32-.96 2.358-2.159 2.358-1.179 0-2.158-1.039-2.158-2.358z" fill="#fff" fill-rule="evenodd" fill-opacity="1" stroke="none"/><path d="M201.918 63.801c0 3.998-2.979 7.236-6.676 7.236-3.678 0-6.676-3.238-6.676-7.236 0-3.977 2.998-7.235 6.676-7.235 3.697 0 6.676 3.258 6.676 7.235z" fill="#f09d00" fill-rule="evenodd" fill-opacity="1" stroke="none"/><path clip-path="url(#a)" d="M201.918 63.801c0 3.998-2.979 7.236-6.676 7.236-3.678 0-6.676-3.238-6.676-7.236 0-3.977 2.998-7.235 6.676-7.235 3.697 0 6.676 3.258 6.676 7.235" fill="none" stroke="#333" stroke-width=".79951543px" stroke-linecap="butt" stroke-linejoin="miter" stroke-miterlimit="8" stroke-dasharray="none" stroke-opacity="1"/><path d="m192.583 51.689-.2-.22c0-.2 0-.2-.18-.4v-.22c0-.2-.2-.2-.2-.2v-9.674c0-.62.38-1.04.96-1.04.56 0 .94.42.94 1.04v9.055c0 .42.58 1.239 1.339 1.239.94 0 1.519-.82 1.519-1.24v-9.054c0-.62.38-1.04.94-1.04.379 0 .939.42.939 1.04v9.055c0 .2 0 .42-.18.62v.2s0 .219-.2.219v.2c-.18.2-.18.42-.18.42l-.18.2c0 .2-.2.4-.38.4 0 .22-.2.22-.2.42h-.18c0 .199-.2.199-.38.199v.22c-.2 0-.379.2-.379.2v3.498c0 .42-.38 1.019-.96 1.019-.56 0-.939-.6-.939-1.02v-3.497c-.58-.2-1.14-.62-1.719-1.24v-.2c-.18 0-.18-.2-.18-.2z" fill="#7c7c7c" fill-rule="evenodd" fill-opacity="1" stroke="none"/><path d="M198.24 41.335v9.074s-.16-3.078-.32-4.737v-5.577c.16.42.32.84.32 1.24zM193.503 41.355c0-.42-.18-1.04-.38-1.26.38.42.58.84.58 1.26v8.695c0 .22.38 1.239.939 1.239-1.14 0-1.32-1.02-1.32-1.64l.18-8.294zM199.839 65.72c0 1.32-.98 2.359-2.199 2.359-1.2 0-2.198-1.04-2.198-2.359 0-1.299.999-2.358 2.198-2.358 1.22 0 2.199 1.059 2.199 2.358z" fill="#fff" fill-rule="evenodd" fill-opacity="1" stroke="none"/><path d="M202.157 10.354c0-3.958 3.019-7.196 6.716-7.196 3.718 0 6.716 3.238 6.716 7.196 0 3.977-2.998 7.195-6.716 7.195-3.697 0-6.716-3.218-6.716-7.195z" fill="#f09d00" fill-rule="evenodd" fill-opacity="1" stroke="none"/><path clip-path="url(#a)" d="M202.157 10.354c0-3.958 3.019-7.196 6.716-7.196 3.718 0 6.716 3.238 6.716 7.196 0 3.977-2.998 7.195-6.716 7.195-3.697 0-6.716-3.218-6.716-7.195" fill="none" stroke="#333" stroke-width=".79951543px" stroke-linecap="butt" stroke-linejoin="miter" stroke-miterlimit="8" stroke-dasharray="none" stroke-opacity="1"/><path d="m211.592 22.526.18.22c0 .2 0 .2.2.4v.22c0 .2.18.2.18.2v9.674c0 .62-.38 1.02-.96 1.02-.56 0-.96-.4-.96-1.02v-9.055c0-.42-.56-1.239-1.339-1.239-.959 0-1.539.82-1.539 1.24v9.054c0 .62-.38 1.02-.96 1.02-.379 0-.959-.4-.959-1.02v-9.055c0-.2 0-.42.2-.62v-.2s0-.219.2-.219v-.2c.18-.2.18-.42.18-.42l.2-.2c0-.2.18-.4.38-.4 0-.22.2-.22.2-.419h.18c0-.2.2-.2.38-.2v-.22c.2 0 .4-.2.4-.2V17.39c0-.42.379-1.039.959-1.039.56 0 .959.62.959 1.04v3.497c.56.2 1.14.62 1.719 1.24v.2c.2 0 .2.2.2.2z" fill="#7c7c7c" fill-rule="evenodd" fill-opacity="1" stroke="none"/><path d="M205.835 32.8v-9.014s.2 3.078.4 4.717v5.517c-.2-.4-.4-.8-.4-1.22zM210.632 32.8c0 .4.2 1.02.4 1.22-.4-.4-.6-.82-.6-1.22V24.145c0-.2-.4-1.239-.999-1.239 1.2 0 1.4 1.04 1.4 1.66l-.2 8.234zM204.316 8.395c0-1.3 1-2.359 2.199-2.359 1.22 0 2.199 1.06 2.199 2.359 0 1.32-.98 2.358-2.2 2.358-1.198 0-2.198-1.039-2.198-2.358z" fill="#fff" fill-rule="evenodd" fill-opacity="1" stroke="none"/><path d="M215.83 63.801c0 3.998-2.999 7.236-6.717 7.236-3.697 0-6.716-3.238-6.716-7.236 0-3.977 3.019-7.235 6.716-7.235 3.718 0 6.716 3.258 6.716 7.235z" fill="#f09d00" fill-rule="evenodd" fill-opacity="1" stroke="none"/><path clip-path="url(#a)" d="M215.83 63.801c0 3.998-2.999 7.236-6.717 7.236-3.697 0-6.716-3.238-6.716-7.236 0-3.977 3.019-7.235 6.716-7.235 3.718 0 6.716 3.258 6.716 7.235" fill="none" stroke="#333" stroke-width=".79951543px" stroke-linecap="butt" stroke-linejoin="miter" stroke-miterlimit="8" stroke-dasharray="none" stroke-opacity="1"/><path d="m206.415 51.689-.18-.22c0-.2 0-.2-.2-.4v-.22c0-.2-.2-.2-.2-.2v-9.674c0-.62.4-1.04.96-1.04.58 0 .96.42.96 1.04v9.055c0 .42.579 1.239 1.358 1.239.96 0 1.52-.82 1.52-1.24v-9.054c0-.62.4-1.04.959-1.04.4 0 .96.42.96 1.04v9.055c0 .2 0 .42-.18.62v.2s0 .219-.2.219v.2c-.18.2-.18.42-.18.42l-.2.2c0 .2-.2.4-.38.4 0 .22-.2.22-.2.42h-.18c0 .199-.2.199-.4.199v.22c-.18 0-.38.2-.38.2v3.498c0 .42-.38 1.019-.959 1.019-.58 0-.96-.6-.96-1.02v-3.497c-.579-.2-1.139-.62-1.718-1.24v-.2c-.2 0-.2-.2-.2-.2z" fill="#7c7c7c" fill-rule="evenodd" fill-opacity="1" stroke="none"/><path d="M212.151 41.335v9.074s-.2-3.078-.4-4.737v-5.577c.2.42.4.84.4 1.24zM207.354 41.355c0-.42-.2-1.04-.4-1.26.4.42.6.84.6 1.26v8.695c0 .22.4 1.239 1 1.239-1.2 0-1.4-1.02-1.4-1.64l.2-8.294zM213.67 65.72c0 1.32-.979 2.359-2.198 2.359-1.2 0-2.199-1.04-2.199-2.359 0-1.299 1-2.358 2.199-2.358 1.22 0 2.198 1.059 2.198 2.358z" fill="#fff" fill-rule="evenodd" fill-opacity="1" stroke="none"/><path d="M216.229 10.354c0-3.958 3.018-7.196 6.716-7.196 3.718 0 6.716 3.238 6.716 7.196 0 3.977-2.998 7.195-6.716 7.195-3.698 0-6.716-3.218-6.716-7.195z" fill="#f09d00" fill-rule="evenodd" fill-opacity="1" stroke="none"/><path clip-path="url(#a)" d="M216.229 10.354c0-3.958 3.018-7.196 6.716-7.196 3.718 0 6.716 3.238 6.716 7.196 0 3.977-2.998 7.195-6.716 7.195-3.698 0-6.716-3.218-6.716-7.195" fill="none" stroke="#333" stroke-width=".79951543px" stroke-linecap="butt" stroke-linejoin="miter" stroke-miterlimit="8" stroke-dasharray="none" stroke-opacity="1"/><path d="m225.663 22.526.18.22c0 .2 0 .2.2.4v.22c0 .2.18.2.18.2v9.674c0 .62-.38 1.02-.96 1.02-.56 0-.959-.4-.959-1.02v-9.055c0-.42-.56-1.239-1.34-1.239-.959 0-1.538.82-1.538 1.24v9.054c0 .62-.38 1.02-.96 1.02-.38 0-.959-.4-.959-1.02v-9.055c0-.2 0-.42.2-.62v-.2s0-.219.2-.219v-.2c.18-.2.18-.42.18-.42l.2-.2c0-.2.18-.4.38-.4 0-.22.2-.22.2-.419h.179c0-.2.2-.2.38-.2v-.22c.2 0 .4-.2.4-.2V17.39c0-.42.38-1.039.959-1.039.56 0 .96.62.96 1.04v3.497c.56.2 1.139.62 1.718 1.24v.2c.2 0 .2.2.2.2z" fill="#7c7c7c" fill-rule="evenodd" fill-opacity="1" stroke="none"/><path d="M219.907 32.8v-9.014s.2 3.078.4 4.717v5.517c-.2-.4-.4-.8-.4-1.22zM224.704 32.8c0 .4.2 1.02.4 1.22-.4-.4-.6-.82-.6-1.22V24.145c0-.2-.4-1.239-1-1.239 1.2 0 1.4 1.04 1.4 1.66l-.2 8.234zM218.388 8.395c0-1.3.999-2.359 2.198-2.359 1.22 0 2.199 1.06 2.199 2.359 0 1.32-.98 2.358-2.199 2.358-1.199 0-2.198-1.039-2.198-2.358z" fill="#fff" fill-rule="evenodd" fill-opacity="1" stroke="none"/><path d="M229.9 63.801c0 3.998-2.998 7.236-6.715 7.236-3.698 0-6.716-3.238-6.716-7.236 0-3.977 3.018-7.235 6.716-7.235 3.717 0 6.716 3.258 6.716 7.235z" fill="#f09d00" fill-rule="evenodd" fill-opacity="1" stroke="none"/><path clip-path="url(#a)" d="M229.9 63.801c0 3.998-2.998 7.236-6.715 7.236-3.698 0-6.716-3.238-6.716-7.236 0-3.977 3.018-7.235 6.716-7.235 3.717 0 6.716 3.258 6.716 7.235" fill="none" stroke="#333" stroke-width=".79951543px" stroke-linecap="butt" stroke-linejoin="miter" stroke-miterlimit="8" stroke-dasharray="none" stroke-opacity="1"/><path d="m220.486 51.689-.18-.22c0-.2 0-.2-.2-.4v-.22c0-.2-.2-.2-.2-.2v-9.674c0-.62.4-1.04.96-1.04.58 0 .96.42.96 1.04v9.055c0 .42.58 1.239 1.359 1.239.96 0 1.519-.82 1.519-1.24v-9.054c0-.62.4-1.04.96-1.04.399 0 .959.42.959 1.04v9.055c0 .2 0 .42-.18.62v.2s0 .219-.2.219v.2c-.18.2-.18.42-.18.42l-.2.2c0 .2-.2.4-.38.4 0 .22-.2.22-.2.42h-.18c0 .199-.2.199-.4.199v.22c-.18 0-.379.2-.379.2v3.498c0 .42-.38 1.019-.96 1.019-.579 0-.959-.6-.959-1.02v-3.497c-.58-.2-1.14-.62-1.719-1.24v-.2c-.2 0-.2-.2-.2-.2z" fill="#7c7c7c" fill-rule="evenodd" fill-opacity="1" stroke="none"/><path d="M226.223 41.335v9.074s-.2-3.078-.4-4.737v-5.577c.2.42.4.84.4 1.24zM221.426 41.355c0-.42-.2-1.04-.4-1.26.4.42.6.84.6 1.26v8.695c0 .22.4 1.239 1 1.239-1.2 0-1.4-1.02-1.4-1.64l.2-8.294zM227.742 65.72c0 1.32-.98 2.359-2.199 2.359-1.199 0-2.198-1.04-2.198-2.359 0-1.299.999-2.358 2.198-2.358 1.22 0 2.199 1.059 2.199 2.358z" fill="#fff" fill-rule="evenodd" fill-opacity="1" stroke="none"/></svg>