<svg xmlns="http://www.w3.org/2000/svg" version="1.0" viewBox="0 0 434.721 423.761"><defs><clipPath clipPathUnits="userSpaceOnUse" id="a"><path d="M.72 8.395h434.216v424.063H.72z"/></clipPath></defs><path d="M306.614 30.901s63.602 1.96 83.67 67.44c26.144 84.748-63.002 186.047-204.716 218.467-65.52 14.95-76.954 21.027-79.113 17.71 0 0 3.358-12.593-10.993-11.594 0 0-2.199-2.958 1.16-8.475 2.558-4.517 9.274-46.611 11.832-59.164 2.719-12.592 45.852-244.452 198.16-224.384z" fill="#f4e6eb" fill-rule="evenodd"/><path d="M304.575 35.978s61.203 1.959 80.672 65.28c25.184 81.791-60.804 179.532-197.6 210.793-63.402 14.551-74.396 20.428-76.554 17.31 0 0 3.118-12.193-10.634-11.234 0 0-1.999-2.918 1.16-8.235 2.358-4.317 8.874-45.053 11.432-57.245 2.559-11.993 44.294-235.977 191.524-216.669z" fill="#f1ccd7" fill-rule="evenodd"/><path d="M262.321 104.217s47.411 1.599 62.362 49.37c19.468 61.922-47.011 135.638-152.707 159.223-48.97 10.994-57.645 15.511-59.204 12.993 0 0 2.558-9.275-8.075-8.475 0 0-1.6-2.159.8-6.077 1.758-3.358 6.875-34.019 8.834-43.253 1.959-9.235 34.259-178.332 147.99-163.781z" fill="#e3b4c3" fill-rule="evenodd"/><path d="M244.692 125.484c2.158 9.434-8.435 19.868-23.546 23.426-15.11 3.518-29.062-1.4-31.221-10.634-2.159-9.434 8.275-19.868 23.386-23.426 15.11-3.358 29.222 1.4 31.38 10.634zm65.64 47.771c9.434 2.159 14.151 16.11 10.633 31.261-3.557 15.11-13.991 25.704-23.465 23.386-9.435-2.199-14.192-16.11-10.634-31.261 3.758-15.111 14.192-25.745 23.466-23.386z" fill="#cd92a6" fill-rule="evenodd"/><path clip-path="url(#a)" d="M124.125 208.833c1.959-.76 4.117-1.758 6.076-2.718 18.11-10.434 43.694-25.744 54.927-22.626 0 0-8.075 8.475-11.233 10.433-3.119 1.76-17.51 18.47-23.026 25.545-5.317 7.276-22.027 30.661-46.452 29.862-24.386-.96-30.102 1.399-36.578 13.392-6.316 12.152-7.076 24.945-18.509 27.503-11.233 2.758-22.426 4.517-26.584 14.951-3.917 10.394-3.518 16.67-10.793 18.869 0 0 10.234-.8 14.75-13.792 4.518-12.952 15.951-11.593 26.745-12.952 10.833-1.4 17.15-10.994 20.867-23.186 3.558-12.193 11.233-15.35 22.426-13.192 11.234 2.358 23.426 6.876 34.86-4.917 11.192-11.793 22.426-20.628 29.301-26.504 6.716-5.917 30.142-38.737 40.936-44.613 10.833-5.916 17.749-12.592 24.425-16.31 6.876-3.558 29.702-18.11 33.86-13.592 0 0-160.823 166.1-166.9 171.416-16.75 14.711-31.7 4.877-47.65 29.262-5.317 8.275-4.118 21.627-23.386 29.662-14.791 6.117-18.71 14.152-20.308 23.586 0 0 2.758-12.952 23.226-20.028 15.55-5.516 16.95-3.558 24.625-22.226 7.675-18.669 12.792-20.828 26.744-22.187 13.991-1.399 16.75-7.675 16.75-7.675s-2.759 20.627-19.669 31.46c-17.15 10.594-18.508 19.27-20.107 30.262-1.76 10.994-.36 22.987-20.868 30.862 0 0 25.225-3.758 26.184-23.186 1-19.269 6.117-21.627 11.433-24.385 5.317-2.559 27.544-20.828 29.303-34.78 3.558-25.544 146.43-157.824 170.057-183.968 0 0 3.757 7.276-10.434 21.427-13.952 13.952-33.66 30.062-37.377 41.255-3.558 11.393-7.676 21.227-13.992 30.262-6.276 9.074-39.336 46.212-42.894 72.556-1.4 10.394-4.917 16.67-17.11 22.986-12.232 6.276-15.55 15.31-16.15 29.262-1 17.91-17.51 23.986-23.625 26.144-11.993 4.318-16.51 13.192-15.75 22.986 0 0 3.357-15.51 17.149-19.228 7.075-1.799 23.985-5.517 27.943-20.468 4.117-14.71 4.517-26.903 18.109-34.179 13.552-7.275 23.985-12.592 23.026-28.303-.8-15.91 10.434-30.261 22.626-40.095 12.193-10.034 20.468-31.661 24.785-45.213 4.917-15.71 19.868-25.544 30.702-36.938 0 0-3.918 16.31-1.96 21.627 1.96 5.477-4.317 23.586-11.992 35.579-7.675 12.152-18.509 35.178-14.99 50.09 3.557 14.95-9.435 25.184-15.711 31.06-6.317 5.917-5.517 13.952-7.316 25.145-1.759 11.433-18.109 36.178-32.46 43.454 0 0 30.301-11.393 36.617-30.262 6.277-18.868 4.918-31.66 13.392-37.937 8.635-6.276 19.069-15.35 15.91-28.702-3.117-13.552 3.559-25.745 8.476-35.579 4.917-10.034 22.426-41.455 23.425-60.523 1.96-31.82 7.276-31.82 10.434-37.337 3.158-5.317 7.276-17.51 13.592-24.785 6.276-7.276 27.943-21.587 32.86-37.937 0 0 51.569-21.987 73.995 12.792 18.709 28.702-14.391 43.454-3.958 69.398 8.275 20.627 25.225 22.386 25.585 34.18.6 11.592-12.592 32.82-10.234 44.212 2.199 11.194 11.233 18.47 12.233 26.544.76 8.075-3.358 16.11-3.358 16.11s7.675-8.434 7.275-17.11c-.4-8.434-10.633-19.627-7.875-29.461 5.917-20.828 17.11-33.02 11.993-47.372-7.276-20.427-30.702-25.344-23.986-46.571 6.876-21.228 22.027-51.09-14.75-80.592-27.584-22.186-65.96-9.034-65.96-9.034s12.991-35.579-16.31-63.082C282.148 1.88 239.854 7.396 222.144 18.23c-17.549 10.793-48.25 19.228-65.76 8.835-25.384-14.552-50.17-14.751-64.16 5.476C78.272 52.808 76.473 67.72 46.771 64.6c0 0 27.143 5.677 51.568-21.826 24.386-27.303 36.418-7.475 57.086-.8 20.827 6.716 45.053 1.8 66.32-8.434 21.227-10.434 58.644-17.67 78.512 11.992 19.868 29.862 5.916 50.49 5.916 50.49s-14.191-.56-43.693 35.178c-11.033 12.993-24.026 15.75-30.302 18.11-6.316 2.158-33.86 10.193-45.092 18.468-11.393 8.075-27.544 4.518-42.095 12.952-14.391 8.675-17.15 14.552-38.177 15.75-21.267 1.36-32.5 2.36-36.618 13.153-4.157 10.833-6.316 18.869-18.109 20.627-11.633 2-20.267 10.034-24.425 19.069-3.917 8.875-8.435 17.909-21.027 21.627 0 0 10.234 3.558 25.185-16.71 14.95-20.228 18.868-11.793 29.702-19.468 10.833-7.636 8.275-19.229 20.867-23.386 10.034-3.318 23.226 1.999 37.377-1.36z" fill="#e2cbe1" fill-rule="evenodd"/><path d="M119.807 209.913c1.4-.2 2.959-.6 4.318-1.2z" fill="#e2cbe1" fill-rule="evenodd"/><path d="M290.664 34.819c3.558 2.758 6.716 6.316 9.634 10.633 19.868 29.902 5.916 50.53 5.916 50.53s-14.151-.56-43.653 35.218c-11.033 12.993-24.026 15.711-30.302 18.07-6.316 2.198-33.86 10.233-45.052 18.508-11.434 8.075-27.544 4.518-42.135 12.992-6.276 3.918-10.394 7.076-14.95 9.795" fill="none" stroke="#494e4e" stroke-width=".48" stroke-miterlimit="8"/><path clip-path="url(#a)" d="M313.85 31.7c-.76-.759-1.36-1.558-2.359-2.318C282.19 1.88 239.895 7.396 222.185 18.19c-17.549 10.793-48.25 19.228-65.76 8.835-25.384-14.512-50.17-14.711-64.12 5.476C78.312 52.728 76.553 67.64 46.811 64.48c0 0 27.183 5.677 51.568-21.786 24.426-27.263 36.418-7.435 57.086-.76 20.867 6.677 45.052 1.76 66.32-8.434 15.91-7.876 40.935-13.752 60.803-3.918" fill="none" stroke="#494e4e" stroke-width=".48" stroke-miterlimit="8"/><path d="M383.248 94.783c-25.905-12.393-55.327-2.359-55.327-2.359s10.394-28.343-8.075-53.927" fill="none" stroke="#494e4e" stroke-width=".48" stroke-miterlimit="8"/><path clip-path="url(#a)" d="M394.72 124.485c2.16 2.158 4.358 4.717 6.117 7.675 18.709 28.703-14.391 43.454-3.958 69.398 8.275 20.627 25.225 22.426 25.585 34.22.6 11.592-12.592 32.82-10.234 44.212 2.199 11.233 11.233 18.51 12.233 26.544.76 8.075-3.358 16.11-3.358 16.11s7.675-8.434 7.275-17.07c-.4-8.474-10.633-19.667-7.875-29.501 5.917-20.828 17.11-33.02 11.993-47.372-7.276-20.467-30.702-25.384-23.986-46.611 6.876-21.227 22.027-51.13-14.75-80.631-1-.76-2.2-1.56-3.159-2.36" fill="none" stroke="#494e4e" stroke-width=".48" stroke-miterlimit="8"/><path d="M239.175 296.34c1.999-5.876 4.957-11.393 7.316-16.31 4.917-9.994 22.426-41.455 23.425-60.523 1.96-31.86 7.276-31.86 10.434-37.377 3.158-5.277 7.276-17.47 13.592-24.745 6.316-7.276 27.983-21.627 32.9-37.937 0 0 37.417-15.95 62.402.76M226.823 304.975c0 2.758.2 5.477.799 7.835 3.518 14.951-9.474 25.145-15.75 31.062-6.317 5.876-5.517 13.951-7.276 25.144-1.799 11.393-18.109 36.178-32.5 43.414 0 0 30.341-11.393 36.618-30.262 6.316-18.828 4.917-31.62 13.391-37.897 8.675-6.316 19.069-15.35 15.95-28.702-1.199-5.117-.999-10.034 0-14.751M180.57 313.85c3.958-10.194 12.033-19.269 20.468-26.144 12.233-10.034 20.468-31.701 24.825-45.253 4.917-15.75 19.868-25.584 30.662-37.018 0 0-3.918 16.35-1.96 21.667 1.96 5.517-4.317 23.626-11.992 35.619-5.916 9.234-13.592 24.785-15.35 38.377m-60.604 20.227c-.8 2.559-1.4 4.917-1.799 7.276-1.36 10.394-4.917 16.71-17.11 22.986-12.192 6.276-15.55 15.31-16.15 29.262-.96 17.87-17.51 23.946-23.585 26.144-11.993 4.318-16.55 13.152-15.75 22.946 0 0 3.357-15.51 17.109-19.228 7.115-1.759 24.025-5.517 27.943-20.428 4.157-14.75 4.517-26.903 18.109-34.179 13.592-7.275 23.985-12.592 23.026-28.303-.2-3.318.2-6.476.96-9.634m-67.96 8.315c35.459-45.772 138.477-141.754 158.185-163.58 0 0 3.717 7.275-10.434 21.466-13.992 13.952-33.7 30.062-37.417 41.255-3.558 11.433-7.716 21.267-13.992 30.302-5.317 7.675-30.541 35.978-39.776 60.563" fill="none" stroke="#494e4e" stroke-width=".48" stroke-miterlimit="8"/><path clip-path="url(#a)" d="M97.181 322.644c-2.159 2-3.558 3.358-3.918 3.758-16.75 14.751-31.7 4.917-47.65 29.302-5.317 8.275-4.158 21.627-23.426 29.702-14.791 6.117-18.71 14.192-20.308 23.626 0 0 2.758-12.992 23.266-20.068 15.55-5.516 16.91-3.558 24.585-22.226 7.675-18.709 12.792-20.868 26.784-22.227 13.991-1.399 16.75-7.675 16.75-7.675s-2.759 20.627-19.709 31.46c-17.11 10.634-18.508 19.27-20.067 30.302-1.8 10.994-.4 23.026-20.868 30.862 0 0 25.185-3.718 26.184-23.186.96-19.269 6.077-21.627 11.393-24.385 5.317-2.559 27.584-20.868 29.343-34.82.6-3.157 2.958-7.875 7.075-13.791" fill="none" stroke="#494e4e" stroke-width=".48" stroke-miterlimit="8"/><path d="M110.933 263.68c6.876.6 13.991-.76 20.667-7.675 11.233-11.793 22.467-20.628 29.342-26.504 6.716-5.917 30.142-38.737 40.976-44.653 10.833-5.876 17.749-12.592 24.425-16.31 6.876-3.558 29.742-18.11 33.86-13.552 0 0-125.045 129.162-158.944 163.341m8.554-69.158c-1.758.2-3.517.2-5.316.2-24.426-1-30.142 1.359-36.658 13.352-6.276 12.192-7.076 24.945-18.509 27.503-11.233 2.758-22.466 4.517-26.584 14.951-3.957 10.394-3.558 16.67-10.873 18.829 0 0 10.274-.76 14.79-13.752 4.558-12.952 15.951-11.553 26.825-12.952 10.833-1.36 17.11-10.994 20.867-23.186 3.558-12.153 11.233-15.31 22.466-13.152 3.358.8 6.916 1.559 10.434 2.159m16.91-54.288c1.959-.8 4.117-1.798 6.076-2.758 18.11-10.434 43.614-25.824 54.807-22.666 0 0-8.035 8.475-11.193 10.434-3.118 1.798-17.47 18.508-22.986 25.624-4.518 6.276-17.67 24.585-36.738 28.902m10.953-55.486c-4.317 1.799-9.834 3.158-18.269 3.558-21.267 1.36-32.46 2.359-36.578 13.192-4.157 10.793-6.316 18.869-18.109 20.627-11.593 2-20.267 10.034-24.385 19.109-3.917 8.835-8.475 17.869-21.067 21.627 0 0 10.234 3.518 25.185-16.71 14.95-20.268 18.908-11.833 29.702-19.468 10.833-7.676 8.275-19.309 20.867-23.426 10.034-3.358 23.186 1.959 37.377-1.36" fill="none" stroke="#494e4e" stroke-width=".48" stroke-miterlimit="8"/><path d="M139.396 252.087s11.433-3.558 15.95 1.4c4.757 4.916 4.557 17.709 12.832 22.826 8.235 5.116 18.869 1.758 18.869 1.758s-13.952 7.476-21.827 5.317c-10.034-2.758-14.591-13.592-15.19-22.226-.56-8.675-10.634-9.075-10.634-9.075z" fill="#c58fa3" fill-rule="evenodd"/><path d="M140.915 251.967s10.034-2.958 14.59 2c4.318 4.916 4.718 17.708 12.393 22.785 7.636 5.117 17.47 1.8 17.47 1.8s-9.435 3.317-16.51.599c-8.075-2.958-12.193-11.034-12.793-19.908-.56-8.635-15.15-7.276-15.15-7.276z" fill="#b2748e" fill-rule="evenodd"/><path d="M117.969 272.075s11.433-3.558 15.95 1.36c4.717 4.956 4.317 17.709 12.592 23.025 8.275 5.117 18.869 1.76 18.869 1.76s-13.952 7.475-21.827 5.316c-10.034-2.758-14.551-13.752-14.95-22.426-.6-8.635-10.635-9.035-10.635-9.035z" fill="#c58fa3" fill-rule="evenodd"/><path d="M261.482 136.357c0-4.077 3.357-7.435 7.435-7.435 4.118 0 7.436 3.358 7.436 7.435a7.421 7.421 0 0 1-7.436 7.436c-4.078 0-7.435-3.318-7.435-7.436zm17.828 16.59c0-4.037 3.359-7.315 7.436-7.315 4.118 0 7.436 3.278 7.436 7.315 0 4.078-3.318 7.316-7.436 7.316-4.077 0-7.435-3.238-7.435-7.316z" fill="#d2afce" fill-rule="evenodd"/><path d="M261.482 136.357c0-4.077 3.357-7.435 7.435-7.435 4.118 0 7.436 3.358 7.436 7.435a7.421 7.421 0 0 1-7.436 7.436c-4.078 0-7.435-3.318-7.435-7.436m17.828 16.59c0-4.037 3.359-7.315 7.436-7.315 4.118 0 7.436 3.278 7.436 7.315 0 4.078-3.318 7.316-7.436 7.316-4.077 0-7.435-3.238-7.435-7.316m-.321-2.358c-.759 4.157-6.075 7.915-8.634 11.033" fill="none" stroke="#494e4e" stroke-width=".48" stroke-linecap="round" stroke-miterlimit="8"/><path d="M272.515 142.753c-2.319 2.559-5.077 4.318-7.596 6.477-1.599.959-2.958 3.318-3.757 3.677" fill="none" stroke="#494e4e" stroke-width=".48" stroke-linecap="round" stroke-miterlimit="8"/><path d="M241.414 119.328c4.317 8.674-3.718 21.267-17.67 27.943-13.951 6.676-28.702 5.317-33.02-3.358-4.157-8.635 3.918-21.227 17.87-27.903 13.951-6.916 28.702-5.317 32.82 3.318z" fill="#b173aa" fill-rule="evenodd"/><path d="M220.107 136.038c.76 3.757-3.318 7.675-9.395 9.074-5.876 1.16-11.353-.8-12.152-4.557-.8-3.758 3.318-7.676 9.394-9.075 5.876-1.199 11.353.8 12.153 4.558z" fill="#8b4e85" fill-rule="evenodd"/><path d="M241.414 119.328c4.317 8.674-3.718 21.267-17.67 27.943-13.951 6.676-28.702 5.317-33.02-3.358-4.157-8.635 3.918-21.227 17.87-27.903 13.951-6.916 28.702-5.317 32.82 3.318" fill="none" stroke="#494e4e" stroke-width=".48" stroke-miterlimit="8"/><path d="M236.697 115.61s-11.194-6.516-27.304 1.559c-15.95 8.075-21.867 18.709-16.75 27.743 0 0 2.958-29.102 44.054-29.302z" fill="#cc94bd" fill-rule="evenodd"/><path d="M228.222 114.09s-10.194-2.598-23.986 6.677c0 0 12.393-7.276 23.986-6.676zm1.478.68c0 .16-.2.16-.399.16-.2-.16-.44-.32-.2-.48 0-.16.2-.16.4-.16.2.16.4.32.2.48z" fill="#fff" fill-rule="evenodd"/><path d="M196.401 147.51s20.068 11.793 42.454-14.03c0 0-19.828 20.906-42.454 14.03z" fill="#a06b9b" fill-rule="evenodd"/><path d="M300.738 169.018c9.634-.6 18.269 11.633 19.268 27.143.96 15.55-5.916 28.543-15.55 29.142-9.635.76-18.27-11.433-19.269-26.943-1-15.55 6.116-28.543 15.55-29.342z" fill="#b173aa" fill-rule="evenodd"/><path d="M308.133 195.202c3.718.6 5.877 6.116 4.917 11.992-1.199 6.077-5.117 10.394-8.834 9.834-3.558-.799-5.717-6.116-4.718-12.192 1.16-6.076 4.918-10.434 8.635-9.634z" fill="#8b4e85" fill-rule="evenodd"/><path d="M300.738 169.018c9.634-.6 18.269 11.633 19.268 27.143.96 15.55-5.916 28.543-15.55 29.142-9.635.76-18.27-11.433-19.269-26.943-1-15.55 6.116-28.543 15.55-29.342" fill="none" stroke="#494e4e" stroke-width=".48" stroke-miterlimit="8"/><path d="M310.012 221.586s18.469-14.152 2.958-44.693c0 0 11.793 26.224-2.958 44.693z" fill="#a06b9b" fill-rule="evenodd"/><path d="M310.332 175.414s-5.317-8.435-13.792-4.118c-8.275 4.318-12.832 18.23-9.874 32.14 0 0 2.958-42.374 23.666-28.022z" fill="#cc94bd" fill-rule="evenodd"/><path d="M304.655 171.496s-11.673-4.917-16.63 13.552c0 0 4.158-15.91 16.63-13.552zm-17.189 15.071c0-.16.2-.32.44-.32.28 0 .44.16.44.32 0 .2-.16.32-.44.32-.24 0-.44-.12-.44-.32zm.24 1.279c0-.12.08-.24.16-.24.12 0 .16.12.16.24 0 .16-.04.24-.16.24-.08 0-.16-.08-.16-.24zm17.269-15.99c0-.28.24-.56.52-.56.32 0 .52.28.52.56 0 .32-.2.56-.52.56-.28 0-.52-.24-.52-.56zM148.11 250.368s8.715-1.759 12.073 11.553c3.158 13.352 11.033 15.51 16.55 16.27 0 0-12.433-1.958-14.391-12.352-2.16-10.354-8.475-18.429-14.232-15.47zm-15.35 21.387s3.358 2 5.756 10.034c2.359 7.875 4.917 15.151 13.592 16.71 0 0-8.275-2.518-11.233-11.793-2.759-9.234-5.917-15.15-8.115-14.95zm-13.192 1.28c-.6 0-1.8-.4-2.399-1 0-.8 1.799-1 2.399-1.2-.6 0-3.199 0-3.398.6-.6 1 1.998 1.6 2.598 1.8zm43.932 27.143c.96-.56 2.72-1.12 2.88-2.279-1.16 0-2.32.2-3.479.36.8-.16 3.878-1.919 4.278-.56.36 1.16-2.519 1.92-3.118 2.32zm21.628-20.788c.96-.599 2.119-.999 2.718-1.998-.96 0-2.119.8-3.118.6.6-.2 4.277-2.599 4.477-1.2.16 1.8-2.718 1.8-3.478 2.399zm-44.053-26.583c-.76 0-2.559 0-2.36-1.2.8-.2 1.6-.4 2.36-.4-.76-.599-3.358-.999-3.758.4-.4.6 0 1 .6 1.4.6 0 2.798.4 3.157.2z" fill="#fff" fill-rule="evenodd"/><path clip-path="url(#a)" d="M306.814 30.701s63.562 2.16 83.67 67.44c25.944 84.948-63.002 186.047-204.717 218.467-65.56 15.15-76.953 21.227-79.152 17.91 0 0 3.358-12.793-10.993-11.594 0 0-2.199-2.958.96-8.475 2.558-4.517 9.474-46.611 12.032-59.164 2.559-12.592 45.852-244.452 198.2-224.584" fill="none" stroke="#494e4e" stroke-width=".8" stroke-miterlimit="8"/><path d="M304.615 35.978s61.363 1.959 80.632 65.08c25.184 81.991-60.564 179.572-197.32 211.033-63.362 14.551-74.556 20.228-76.554 17.11 0 0 3.158-12.193-10.594-11.234 0 0-1.999-2.758.96-8.235 2.558-4.157 9.074-44.853 11.632-57.045 2.559-12.193 44.253-236.017 191.244-216.709" fill="none" stroke="#fff" stroke-width=".8" stroke-miterlimit="8"/><path d="M227.342 305.495c1.2.2 3.198-.56 4.398-.96 1.758-.6 3.358-1.399 4.957-2.198.16.8-.4 1.799-.6 2.758v2.399c0 .76.2 1.759.2 2.558.2.96.56 1.959.56 2.918-1.36-2.358-1.76-4.917-4.918-4.917-2.398 0-3.597 2.199-3.797 4.158-.4-1.959-.6-4.158-.6-6.316zM403.276 133.32c-1.2-2.16-3.358-4.518-4.917-6.677-.76-1-2.16-1.599-2.519-2.758-.6-1.2-.4-3.558-.6-4.917-.8-5.717-2.558-11.633-2.958-16.99 5.517 4.957 13.512 8.475 16.63 15.99-2.918-1.599-9.754-7.315-10.753 0-.36 2.559 1.199 5.317 2.158 7.476.4 1 .8 2.359 1.16 3.358.2.6 1.399 3.558 1.399 2.758zM272.195 24.985s8.275 1.759 10.234 3.478c0 0 22.986-.16 29.262 1.559 0 0-14.511-11.273-22.586-13.832 0 0 .8 9.554-16.91 8.795zm-148.23 169.097s-4.158 13.352-4.717 15.111c0 0-5.557 1.36-8.155.6 0 0 12.112-10.794 3.198-12.752 0 0 8.515-1.96 9.674-2.959zm-15.351 55.807-2.159 12.152-7.675-1.16s9.474-4.516 4.158-9.993l5.676-1zm-12.033 73.795s11.234 0 9.075 9.834c0 0-3.358 3.358-4.517 6.476 0 0 4.317-13.552-9.714-11.193l5.156-5.117zm70.238-1.679 12.073-3.198s-.96 4.957-.76 7.355c.2 2.559 0 7.716-.4 8.475 0 0-3.797-14.83-13.312-1.16 0 0 1.8-11.072 2.399-11.472z" fill="#d2afce" fill-rule="evenodd"/><path d="M91.824 337.515c.6-.6 1.16-2.198 1.96-1.798.559.2.359 1.998.199 2.598-.2-.8 1.12-3.198 0-3.598-1-.4-1.759 2.199-2.159 2.798zm-20.867.48s-13.552 2.179-21.827 14.152c0 0 8.275-10.014 21.827-14.152zm-30.941 33.34s-4.498 10.414-17.99 15.11c0 0 14.872-2.937 17.99-15.11z" fill="#fff" fill-rule="evenodd"/><path d="M262.68 133.679s2-4.038 5.757-3.838c3.918.2 6.117 2.119 6.876 4.598 0 0-5.517-7.116-12.632-.76zm17.99 16.67v-.2c.4-.8 2.159-3.878 5.477-3.878 3.877 0 5.836 1.92 6.995 4.638 0 0-6.396-7.596-12.472-.56z" fill="#e6cadc" fill-rule="evenodd"/><path d="M263.52 132.44s2.559-3.358 6.676-2.359c0 0-3.318-.8-6.876 2.359zm17.95 16.87s2.838-3.998 7.835-2c0 0-4.598-1.398-7.836 2zM104.617 316.488s22.626-23.226 25.184-25.984c0 0-14.95 18.109-25.184 25.984zm35.818-36.138 10.474-10.953s-6.916 10.793-10.474 10.953zm21.987-22.466s86.067-88.027 93.943-97.301c0 0-82.31 89.665-93.943 97.3zm81.07-55.806s-17.389 14.79-20.947 25.824c0 0 9.994-15.35 20.947-25.824zm-106.735-14.152s13.152-11.873 32.14-12.872c0 0-19.587 3.398-32.14 12.872zm37.497 7.835s-18.069 19.149-28.302 33.1c0 0 25.944-28.942 28.302-33.1zm9.275-14.871s5.876 1.4 1.759 5.357c0 0 6.236-4.757-1.76-5.357zM305.135 97.5s-14.551 3.759-35.818 27.264c0 0 23.825-23.305 35.818-27.263zm3.038-59.763s10.074-.2 14.791 8.915c0 0-5.516-8.115-14.79-8.915zm24.305 56.406s25.505-7.036 43.654 0c0 0-19.148-5.077-43.654 0zM93.823 32.98s14.991-24.305 49.41-10.154c0 0-29.502-10.793-49.41 10.154z" fill="#fff" fill-rule="evenodd"/><path clip-path="url(#a)" d="M222.705 19.708s30.142-16.71 63.801-3.718c0 0-26.743-10.433-63.801 3.718z" fill="#fff" fill-rule="evenodd"/><path d="M73.835 205.915s2.559-7.795 32.78-7.995c0 0-24.705.8-32.78 7.995zM50.33 231.42s-13.572 3.338-20.868 16.63c0 0 11.233-12.513 20.867-16.63zm43.093 19.908s-15.35-5.117-24.465 11.912c0 0 8.515-13.671 24.465-11.912zm-52.608 42.214s-14.59.6-19.348 17.67c0 0 5.137-14.332 19.348-17.67zm34.14 75.075s-19.669 8.255-20.468 31.02c0 0 1.38-20.007 20.468-31.02zm75.154-16.95s-.16 0-.36.2c-2.398.6-14.271 5.157-16.67 24.425 0 0 2.999-17.71 17.03-24.625zm-53.807 64.441s.6-4.278 16.47-10.154c0 0-13.672 6.276-16.47 10.154zm121.606-76.434s-10.354 5.717-11.353 22.626c0 0 1.999-14.35 11.353-22.626zm-17.829 44.613s-7.676 14.791-15.99 20.468c0 0 12.272-7.476 15.99-20.468zM404.915 165.3s-12.953 21.867-8.036 32.3c0 0-.76-19.268 8.036-32.3z" fill="#fff" fill-rule="evenodd"/><path clip-path="url(#a)" d="M420.425 212.871s14.631 14.231 11.513 24.705c0 0 1.2-11.033-11.513-24.705z" fill="#fff" fill-rule="evenodd"/><path d="M417.787 258.363s-9.195 19.868 0 31.022c0 0-6.836-10.394 0-31.022zM275.713 157.305c-2.159.6-4.917 4.517-4.917 6.875 0 1.96 0 3.718-.6 5.477-.4 1.16-1 2.119-1.399 3.318-.6 1.36-1.799 2.719-1.799 4.078 1.8-3.678 3.998-7.036 4.358-11.114.2-1.758.4-2.758 1.199-4.517.8-1.359 1.999-2.518 3.158-3.518zm-6.876-10.235c-1.16.6-2.159 1.8-3.158 2.56-1 1.199-2.199 2.158-3.158 3.357-.8.96-1.4 2.519-2.199 3.718-1 1.56-2.398 3.318-2.998 5.077 1.6-1.16 2.598-3.318 3.998-4.677.8-1.2 1.759-2.559 2.558-3.758 1.2-2.119 2.399-4.477 4.597-5.876zm-2.638-.959c-1.76 2.16-4.078 4.678-6.436 6.237-2.359 1.359-5.677 1.359-8.036 1.919 1-1.16 2.759-.96 4.118-1.36 1.559-.36 2.159-.56 3.318-1.719 1.959-2.158 4.717-3.118 7.036-4.677zm8.794 9.355c-1.359 1.399-2.918 2.758-4.517 4.357-1.559 1.36-4.317 3.718-5.317 5.477 1.4-2.159 3.558-4.318 5.317-6.276 1-1.16 2.758-2.759 4.357-3.358zm2.399-3.518c1.399-1.959 1.999-3.918 3.957-5.317 1.8-1.359 4.358-2.558 6.517-2.358-3.159-.2-4.718-.8-7.316 1.599-.96.76-1.56 1.559-2.159 2.758-.4.76-.6 2.159-1.399 2.958zm-6.076-6.876c3.198-3.918 7.355-5.876 6.196-11.433.4 2.598.8 4.957-1.4 6.916-1.398 1.399-3.997 2.358-4.597 4.517zm-6.636-15.71s4.397-3.079 9.514.76c0 0-4.358-4.798-9.514-.76zm28.302 17.948s3.358 3.159 1.6 7.436c0 0 2.718-3.877-1.6-7.435z" fill="#fff" fill-rule="evenodd"/><path d="M317.288 88.466c2.158 6.077 4.717 12.593 11.393 15.151 1.999.76 4.757 1.36 4.957 3.718.36 3.158-4.358 4.717-6.316 5.916-7.116 4.518-9.075 12.193-14.192 18.27-2.158 2.558-5.317 4.716-8.475 6.315-1.958.96-5.117 2.919-7.475 2.759-4.158-.2-4.557-5.517-7.675-7.676-2.2-1.399-4.158-.8-6.117-1.399-2.558-.76-3.358-3.318-3.757-5.676-.8-8.275 9.874-9.674 15.39-12.393 4.517-2.558 8.835-5.716 12.193-9.834 3.158-4.357 2.159-9.674 4.917-13.991 1.799-2.959 3.358-3.158 5.317-.6zM199.16 165.98c-2.4.999-4.558 2.558-6.917 3.557-2.758.96-5.916 1.16-8.274 2.918-2.759 1.8-1.56 3.558.799 5.157 1.56 1.16 3.358 1.96 4.517 3.518 1.2 1.4 1.2 3.358 2.199 4.557 1.759 2.719 4.917-1.798 6.476-2.958 3.918-2.958 8.075-5.516 11.993-8.475 3.158-2.158 6.316-4.557 9.874-6.316 3.118-1.559 6.476-3.358 9.634-5.117 2.558-1.559 4.917-3.358 7.475-4.717 2.359-1.399 4.718-2.558 7.276-3.758.8-.6 4.317-3.158 3.558-4.317-.8-1.599-6.916.2-7.875.4-11.234 2.159-22.067 6.276-32.5 10.833-1.76.76-3.519 1.36-5.317 2.359-1.36.6-2.559 1.559-3.718 2.358zm85.987-2.679c-.76-.56-1.359-.16-2.358-.36-.76-.2-1.16-.8-1.96-1.199-1.758-.8-2.358-1-3.557 0-3.558 2.758-4.317 9.634-6.316 13.392-2.159 4.117-3.918 8.435-7.476 11.393-3.358 2.958-6.716 5.517-10.034 8.675-1.399 1.359-8.115 9.034-1.799 7.075 2-.6 3.159-2.958 5.317-1.399 1.8 1.4 1.2 3.758 2 5.517.559 1.759 2.558 4.317 4.316 2.958 1.96-1.36 2.559-6.476 2.959-8.675.8-5.276 2.358-10.193 5.316-14.55 2.959-4.518 7.116-7.876 9.874-12.393 1.76-2.959 2.359-6.077 3.358-9.235z" fill="#ead4e1" fill-rule="evenodd"/><path d="M232.18 189.765s-35.26 3.158-52.569-16.51c-17.35-19.868-12.192-69.798 21.867-93.943 33.86-24.385 94.503-37.777 116.37-15.95 15.35 15.35 10.233 28.702 10.233 28.702s18.509-.76 32.1 11.393c19.07 17.31 13.952 76.674-9.074 107.335-23.026 30.662-67.719 58.765-101.778 30.102-26.224-22.426-17.15-51.129-17.15-51.129" fill="none" stroke="#494e4e" stroke-width=".8" stroke-miterlimit="8"/><path d="M239.855 182.89s-30.542 2.757-45.493-14.352c-14.99-17.31-10.633-60.324 18.909-81.35 29.342-21.068 81.91-32.86 100.819-13.992 13.392 13.392 8.834 24.984 8.834 24.984s16.15-.6 27.783 10.034c16.71 14.911 12.193 66.4-7.675 92.944-20.108 26.544-58.884 50.89-88.226 25.944-22.827-19.268-14.951-44.213-14.951-44.213" fill="none" stroke="#494e4e" stroke-width=".8" stroke-miterlimit="8"/><path d="M274.674 54.007s-60.204 7.476-82.83 38.177c-22.826 30.502-27.903 69.038-.96 87.907 0 0-29.342-23.986-6.876-70.397 22.427-46.212 90.666-55.687 90.666-55.687z" fill="#fff" fill-rule="evenodd"/><path d="M189.325 130.121s-12.592 54.127 51.05 51.21c0 0-55.767 2.917-51.05-51.21z" fill="#fff" fill-rule="evenodd"/><path d="M240.454 186.887s-2.398 55.046 54.527 46.412c0 0-46.851 9.394-54.527-46.412zm-43.734-78.433s13.393-28.223 62.643-39.416c49.21-11.193 56.486 9.634 56.486 9.634s-14.951-15.31-56.086-6.476c-41.175 8.995-63.042 36.258-63.042 36.258zm177.013 37.498s6.077 70.557-66.6 103.937c0 0 72.677-24.745 66.6-103.937zm-45.253-45.333s29.823-.8 30.782 35.978c0 0-2.118-32.42-30.781-35.978z" fill="#cd92a6" fill-rule="evenodd"/><path d="M292.343 239.015s63.841-11.793 69.957-88.106c0 0 3.518 75.914-69.957 88.106zm34.339-159.503s3.318 6.676-.2 14.151c0 0 4.877-2.358 18.949 2.319 0 0-14.432-4.118-19.748-.76 0 0 3.917-9.994.999-15.71zm-34.819-.16c7.715 1.799 14.391 2.159 19.708 8.075 4.917 5.277 4.717 12.952 11.033 16.31 6.916 3.718 11.633 2.519 17.35 9.394 4.517 5.317 5.876 10.234 5.517 17.47-1.6-3.718-3.758-11.953-8.075-15.67-5.517-4.918-11.234-4.718-17.15-7.476-11.433-5.117-4.717-19.828-27.783-27.703zm-67.159 94.463c6.316 2.758 13.432.56 17.55 7.075 3.557 5.317 1.598 14.552 8.274 16.71-6.276-3.718-2.958-13.352-7.076-18.868-5.116-7.116-11.433-3.558-18.748-4.158z" fill="#fff" fill-rule="evenodd"/><path d="M119.807 272.515s10.234-2.958 14.592 1.959c4.317 4.917 4.917 17.669 12.392 22.786 7.635 5.077 17.47 1.759 17.47 1.759s-9.435 3.318-16.51.6c-8.076-2.959-12.193-10.994-12.793-19.829-.4-8.634-15.15-7.275-15.15-7.275z" fill="#b2748e" fill-rule="evenodd"/><path d="M129.082 287.706s2.358 9.434 8.315 13.511c0 0-6.157-2.718-8.315-13.511zm20.868-21.667s2.558 10.034 7.435 13.352c0 0-6.436-3.318-7.436-13.352zm-31.342 40.935s12.992-116.89 63.322-184.528c0 0-38.137 52.888-63.322 184.528zm68.599-191.444c0-.68.68-1.24 1.439-1.24.8 0 1.439.56 1.439 1.24 0 .72-.64 1.24-1.44 1.24-.759 0-1.438-.52-1.438-1.24zm4.157-2.159c0-.68.64-1.239 1.36-1.239.759 0 1.358.56 1.358 1.24 0 .719-.6 1.239-1.359 1.239-.72 0-1.359-.52-1.359-1.24z" fill="#fff" fill-rule="evenodd"/><path d="M118.288 299.938c0-1.04.8-1.919 1.76-1.919.999 0 1.758.88 1.758 1.92 0 1.079-.76 1.918-1.759 1.918-.96 0-1.759-.84-1.759-1.919z" fill="#fff" fill-rule="evenodd"/></svg>