<svg xmlns="http://www.w3.org/2000/svg" version="1.0" viewBox="0 0 156.094 171.326"><defs><clipPath clipPathUnits="userSpaceOnUse" id="a"><path d="M9.035 1.04H164.94v171.415H9.035z"/></clipPath></defs><path d="M163.54 81.15c0 49.97-32.7 90.466-73.035 90.466-40.176 0-80.87-18.789-80.87-68.758 0-50.13 44.492-100.82 84.668-100.82 40.295 0 69.238 28.983 69.238 79.113z" fill="#d2de88" fill-rule="evenodd"/><path d="M156.025 81.51c0 45.253-29.462 81.871-65.96 81.871-36.418 0-73.075-16.99-73.075-62.082 0-45.293 40.055-91.265 76.593-91.265 36.378 0 62.442 26.344 62.442 71.477z" fill="#b1d07a" fill-rule="evenodd"/><path d="M148.59 90.945c0 38.457-25.065 69.638-56.126 69.638-30.981 0-62.202-14.472-62.202-52.928 0-38.457 34.099-77.473 65.2-77.473 30.941 0 53.128 22.306 53.128 60.763z" fill="#a7ca6f" fill-rule="evenodd"/><path d="M88.946 10.354s16.67-1.84 30.901 4.997c14.711 7.355 20.308 14.43 24.346 20.987 0 0-1.28 5.677-7.556 4.157-6.236-1.679-18.629-8.754-24.745-3.877l-2.079-.84s0-7.235-6.556-10.433c-6.356-3.318-14.47-6.796-14.31-14.991z" fill="#d2de88" fill-rule="evenodd"/><path d="M144.353 35.938s-1.4 6.077-7.676 4.557c-6.276-1.639-18.669-8.754-24.785-3.877l-2.079-.84s0-7.195-6.516-10.393c-6.396-3.358-14.51-6.836-14.35-15.031" fill="none" stroke="#343434" stroke-width=".48" stroke-miterlimit="8"/><path d="M109.094 26.064s5.996-3.238 9.994 3.758c0 0-9.754 11.033-8.315 22.946 0 0-7.675 1.08-10.154-5.317 0 0 9.514-9.674 8.475-21.387z" fill="#d2de88" fill-rule="evenodd"/><path d="M109.094 26.064s5.996-3.238 9.994 3.758c0 0-9.754 11.033-8.315 22.946 0 0-7.675 1.08-10.154-5.317 0 0 9.514-9.674 8.475-21.387" fill="none" stroke="#343434" stroke-width=".48" stroke-linecap="round" stroke-linejoin="round" stroke-miterlimit="10"/><path d="M65.72 37.737c.52 1.24-.88 3.038-3.118 4.118-2.359.96-4.557.96-5.077-.24-.56-1.24.88-3.038 3.238-4.118 2.239-1 4.437-1 4.957.24zM46.052 62.282c.36 1.24-.24 2.639-1.639 3.198-1.28.52-2.798 0-3.198-1.239-.4-1.24.24-2.638 1.639-3.198 1.28-.56 2.798 0 3.198 1.24zm9.314 77.713c-.919 1.24-3.158.84-4.757-.72-1.679-1.518-2.358-3.637-1.439-4.876 1.08-1.16 3.158-.72 4.717.839 1.72 1.52 2.359 3.638 1.48 4.757zm34.899-12.832c.52 1.519-1.04 3.478-3.358 4.317-2.358.8-4.717.28-5.236-1.399-.4-1.519 1.039-3.478 3.397-4.317 2.359-.84 4.678-.28 5.197 1.399zm48.971-11.553c-.64 1.4-2.759 1.639-4.598.68-1.679-.84-2.758-2.759-2.078-4.158.64-1.4 2.758-1.839 4.437-.84 1.839.96 2.878 2.919 2.239 4.318zm7.714-41.135c.76 2.558-.119 5.077-2.078 5.796-1.839.68-4.037-.72-4.837-3.118-.8-2.398.12-4.917 1.959-5.636 1.959-.72 4.157.56 4.957 2.958z" fill="#587c26" fill-rule="evenodd"/><path d="M51.449 84.749s-1.32.68-2.359 2.198c-1.159 1.56-3.797 7.955-.24 9.754 3.518 1.8 7.556 2.799 9.235.68 1.839-2.199 4.037-8.035 2.358-9.154 0 0 2.359-.72 3.278-2.359.76-1.679 4.438-8.515 2.839-10.154 0 0 1.319.12 3.917-3.198 2.479-3.358 4.038-5.437 3.678-6.676 0 0 3.638.12 5.876-1.959 2.2-2.238 3.758-4.437 3.758-4.437s2.479.96 5.357-.16c2.878-1.24 5.477-3.478 5.477-3.478s2.238.84 4.957 1.52c2.878.719 5.236.719 5.236.719s2.719 3.478 4.558 4.717c1.959 1.24 5.476 2.359 5.476 2.359s1.32 3.078 2.08 6.276c.639 3.198.519 6.956 2.877 7.515 0 0-.8 2.639-1.039 4.318-.12 1.639-.92 8.874.64 9.434 0 0-1.68 2.638-2.479 5.277-.76 2.518-.64 6.396 1.32 7.395 0 0-2.879-.44-4.558 1.919-1.719 2.518-4.317 10.873-2.358 12.392 1.958 1.4 7.955 3.598 10.313.56 2.319-3.198 4.158-10.434 2.998-11.393 0 0 1.56-1.679 2.319-3.358.8-1.679 3.558-8.635 1.839-9.594 0 0 6.116-13.072-.12-17.23 0 0 .52-3.917-.64-6.116-1.079-2.239-4.997-13.632-6.556-13.512 0 0-2.478-4.997-5.077-7.075-2.478-2.24-6.636-2.24-7.155-1.8 0 0-2.119-4.197-5.877-5.316-3.797-1.12-9.914.72-9.914 2.358 0 0-5.117-.8-7.595 0-2.598.84-4.797 3.358-4.557 4.598 0 0-2.719-2.919-8.715.56-5.876 3.637-3.678 6.555-3.678 6.555s-3.238.68-6.796 4.318c-3.518 3.717-3.877 6.796-2.318 8.594 0 0-4.198.56-6.276 3.758-2.08 3.198-3.798 7.236-2.08 9.195z" fill="#628f27" fill-rule="evenodd"/><path d="M49.73 83.19s-1.44.68-2.479 2.078c-1.039 1.52-3.797 8.075-.12 9.914 3.518 1.8 7.436 2.759 9.275.56 1.679-2.119 3.917-7.955 2.318-9.075 0 0 2.359-.839 3.158-2.518.92-1.52 4.558-8.355 2.999-10.194 0 0 1.279.28 3.797-3.038 2.479-3.358 4.038-5.597 3.638-6.836 0 0 3.798.12 5.997-1.959 2.238-2.078 3.677-4.477 3.677-4.477s2.479 1.12 5.317-.12c2.998-1.12 5.637-3.518 5.637-3.518s2.198 1 4.957 1.68c2.878.719 5.197.559 5.197.559s2.758 3.518 4.597 4.757c1.799 1.24 5.476 2.359 5.476 2.359s1.28 3.078 1.96 6.276c.759 3.358.519 7.115 2.877 7.675 0 0-.799 2.639-.919 4.318-.16 1.679-.92 8.794.52 9.474 0 0-1.56 2.678-2.359 5.197-.8 2.638-.8 6.556 1.32 7.515 0 0-2.999-.44-4.718 1.959-1.679 2.358-4.157 10.873-2.198 12.272 1.958 1.52 7.955 3.598 10.273.56 2.359-3.078 4.198-10.314 3.038-11.433 0 0 1.4-1.559 2.32-3.238.799-1.639 3.517-8.635 1.718-9.594 0 0 6.236-13.272 0-17.43 0 0 .4-3.797-.68-5.996-1.039-2.239-4.957-13.672-6.516-13.672 0 0-2.478-4.877-5.077-7.115-2.598-2.12-6.675-2.239-7.195-1.84 0 0-2.079-4.157-5.877-5.156-3.757-1.12-10.034.72-9.914 2.398 0 0-5.077-.999-7.675-.16-2.478.84-4.837 3.478-4.437 4.758 0 0-2.879-3.079-8.755.56-5.876 3.597-3.798 6.555-3.798 6.555s-3.238.68-6.756 4.318c-3.398 3.757-3.797 6.836-2.238 8.634 0 0-4.158.44-6.276 3.638-2.08 3.358-3.758 7.236-2.08 9.355z" fill="#d2de88" fill-rule="evenodd"/><path d="M49.73 83.19s-1.44.68-2.479 2.078c-1.039 1.52-3.797 8.075-.12 9.914 3.518 1.8 7.436 2.759 9.275.56 1.679-2.119 3.917-7.955 2.318-9.075 0 0 2.359-.839 3.158-2.518.92-1.52 4.558-8.355 2.999-10.194 0 0 1.279.28 3.797-3.038 2.479-3.358 4.038-5.597 3.638-6.836 0 0 3.798.12 5.997-1.959 2.238-2.078 3.677-4.477 3.677-4.477s2.479 1.12 5.317-.12c2.998-1.12 5.637-3.518 5.637-3.518s2.198 1 4.957 1.68c2.878.719 5.197.559 5.197.559s2.758 3.518 4.597 4.757c1.799 1.24 5.476 2.359 5.476 2.359s1.28 3.078 1.96 6.276c.759 3.358.519 7.115 2.877 7.675 0 0-.799 2.639-.919 4.318-.16 1.679-.92 8.794.52 9.474 0 0-1.56 2.678-2.359 5.197-.8 2.638-.8 6.556 1.32 7.515 0 0-2.999-.44-4.718 1.959-1.679 2.358-4.157 10.873-2.198 12.272 1.958 1.52 7.955 3.598 10.273.56 2.359-3.078 4.198-10.314 3.038-11.433 0 0 1.4-1.559 2.32-3.238.799-1.639 3.517-8.635 1.718-9.594 0 0 6.236-13.272 0-17.43 0 0 .4-3.797-.68-5.996-1.039-2.239-4.957-13.672-6.516-13.672 0 0-2.478-4.877-5.077-7.115-2.598-2.12-6.675-2.239-7.195-1.84 0 0-2.079-4.157-5.877-5.156-3.757-1.12-10.034.72-9.914 2.398 0 0-5.077-.999-7.675-.16-2.478.84-4.837 3.478-4.437 4.758 0 0-2.879-3.079-8.755.56-5.876 3.597-3.798 6.555-3.798 6.555s-3.238.68-6.756 4.318c-3.398 3.757-3.797 6.836-2.238 8.634 0 0-4.158.44-6.276 3.638-2.08 3.358-3.758 7.236-2.08 9.355" fill="none" stroke="#343434" stroke-width=".48" stroke-miterlimit="8"/><path d="M107.495 48.65c.24 2.799-3.998 4.997-4.557 7.356m10.153 7.436c.16-1.36 2.999-2.719 3.878-3.558.8-.8 1.959-1.64 2.439-2.759M91.944 45.293c-1 2.438 1.48 6.676 1.24 9.194M79.432 50.33c.76 2.478 2.039 5.076 2.638 7.115m-15.11-.16c1.319 2.399 3.677 5.037 5.116 6.556m-14.151 6.476c1.04.6 6.476 3.398 6.476 3.678M49.77 83.11c2.638 1.958 6.716 2.078 9.034 3.997m57.246 16.55c.68 1.56 5.117 2.519 6.556 3.758m-4.717-16.63c1.838 2.279 6.995 3.398 9.194 3.518m-.32-17.51c-1.559.16-3.118.88-4.797.76-1.04 0-3.518-.44-4.077-.6" fill="none" stroke="#343434" stroke-width=".48" stroke-miterlimit="8"/><path d="M50.81 86.787c-2.6 1.16-2.879 5.357.639 4.957 3.997-.44.64-3.957-1.04-4.637zm4.357-10.993c-.68 2.519 1.679 10.034 3.238 5.317.24-1-.4-3.478-1.04-4.318-.92-1.119-3.278-1.838-2.758 0zm8.275-14.151c-.12 1.079-1.2 2.478-.64 3.597.92 2.2 3.038 1.24 3.958-.72 1.319-2.478-1.6-5.556-2.639-2.638zm7.795-6.756c-.28 2.518 2.758 3.757 3.158.96.24-1.96-3.158-3.519-2.878-.84zm11.953-2.199c1.679 1.959 6.716 3.478 5.956-.84-1.16-.719-4.917-.16-6.356.4 0 .56.28.56.52 1zm15.43-6.836c1.68.16 7.116 1.8 5.317 4.717-1.16 1.92-6.516-2.358-4.957-4.557zm9.195 11.113c.52 2.799 4.797 5.197 4.557 1.4-.28-3.238-5.597-3.558-4.677-.84zm13.432 12.153c1.559 0 3.997 3.078 1.678 3.798-1.279.52-3.357-2.239-2.038-3.358zm1.439 12.672c-2.439.72-3.598 7.876-.36 7.316 2.438-.4 2.918-6.316 2.039-8.155-.52-.16-1.4-.16-1.8 0 .12.44-.12.44-.12.72zm-2.759 14.672c6.836.16.36 9.354-.68 1.399.4 0 .52-.4.68-.56zm-5.677 9.514c-1.958.4-4.996 4.597-1.958 5.317 1.559.52 3.558-3.079 3.918-4.198-.52-.84-1.16-1.28-1.68-1.28z" fill="#9cc563" fill-rule="evenodd"/><path d="M47.611 88.786c.28-1.08.28-1.919 1.16-2.598.999-.52 2.278-.68 3.158 0-.76-.52-1.52-2.199-2.639-1.48-1.16.4-1.399 2.16-1.679 3.279zm3.558-11.353c-.68.84-1.08 2.399-1.08 3.518 0 .84.16 1.24.8 1.799.8.4 1.6 0 2.239.68-1.32-.4-3.038-4.158-1.56-5.277zm8.155-12.953c-.68.56-1.24 1.96-1.24 2.96-.16.679 1.92 3.997 2.6 3.197.12-.16-1.08-2.238-1.24-2.678-.4-.96-1.24-2.918.16-3.478zm9.874-11.232c-.68-.44-1.599 1.519-1.599 2.078 0 1.12.68 2.639 1.6 3.318-.12-1.359-1.6-4.157.239-5.116zm13.792-5.797c-.8 0-2.239 1.44-2.519 2.159-.4 1.28.68 3.118 1.32 4.237-.12-.96-.36-2.118-.12-3.238.12-.88.4-2.838 1.439-2.998zm13.152-2.998c-.8-.28-2.679.16-3.238.84-.68.839 0 3.917.28 4.877.28-1.24.4-2.639.919-3.758.4-.84 1.759-2.239 2.678-1.52zm15.71 5.797c-1.16-.28-2.198-1.28-3.118-.56-.56.56-.92 1.399-1.479 1.959-.52.72-1.28 1.439-1.839 2.278.92.4 2.758-2.278 3.678-2.678.68-.28 2.918-.84 3.278-.56zm9.594 12.232c-.4-.56-.8-1.24-1.039-1.799-.52-.84-.4-1-1.32-.72-1.838.84-3.157 3.079-5.036 3.758 1.479.12 3.198-1.799 4.357-2.358 1.84-.68 2.239.56 3.158 1.679zm.28 16.43c.56.56 2.279.44 3.078.28.68-.12 1.72-.72 2.399-.4.8.4 1.479 2.079 1.599 2.958.12 1.8-.68 3.238-.92 5.037-.16-1.679 1.04-5.636-.799-6.596-.8-.44-1.6 0-2.558-.16-.8-.28-1.6-.839-2.399-.839zm.88 15.871c.16.879 2.718.44 3.238 1.159.76.84-1.04 4.797-1.56 5.477.68-2.679 1.16-4.638-1.279-6.037zm-4.398 12.872c.8.44 2.799.28 3.318 1.12.52.839-.52 4.197-1.199 4.876-.24-1.639.68-2.918-.24-4.437-.28-.84-.92-1.56-1.719-1.4-.16-.16 0-.16 0-.16z" fill="#fff" fill-rule="evenodd"/><path d="M67.599 91.864c0-10.433 8.355-18.908 18.589-18.908 10.274 0 18.588 8.475 18.588 18.908 0 10.474-8.314 18.909-18.588 18.909-10.234 0-18.589-8.435-18.589-18.909z" fill="#6da027" fill-rule="evenodd"/><path d="M69.438 91.465c0-10.474 8.355-18.989 18.589-18.989 10.273 0 18.588 8.515 18.588 18.989 0 10.513-8.315 18.988-18.588 18.988-10.234 0-18.59-8.475-18.59-18.988z" fill="#87bb42" fill-rule="evenodd"/><path d="M80.391 91.545c0-4.478 3.438-8.116 7.676-8.116 4.277 0 7.675 3.638 7.675 8.116 0 4.517-3.398 8.115-7.675 8.115-4.238 0-7.676-3.598-7.676-8.115z" fill="#6c992d" fill-rule="evenodd"/><path d="M69.438 91.465c0-10.474 8.355-18.989 18.589-18.989 10.273 0 18.588 8.515 18.588 18.989 0 10.513-8.315 18.988-18.588 18.988-10.234 0-18.59-8.475-18.59-18.988" fill="none" stroke="#343434" stroke-width=".16" stroke-miterlimit="8"/><path d="M80.391 91.545c0-4.478 3.438-8.116 7.676-8.116 4.277 0 7.675 3.638 7.675 8.116 0 4.517-3.398 8.115-7.675 8.115-4.238 0-7.676-3.598-7.676-8.115" fill="none" stroke="#343434" stroke-width=".48" stroke-miterlimit="8"/><path d="M89.386 84.709c-1.04 0-1.959-.56-2.998-.4-1.16.12-1.92.68-2.719 1.519-1.799 2.119-2.718 4.637-2.038 7.555.36 1.68 1.519 3.238 3.078 3.798 2.318.96 2.718-1.28 1.439-2.798-.64-.84-1.16-1.56-.8-2.679.4-.84 1.32-1.679 2.079-2.078 1.16-.56 2.958-1 2.958-2.679 0-.84-.48-1.679-1-2.078z" fill="#587c26" fill-rule="evenodd"/><path d="M93.583 84.469s7.756 8.235-1.839 15.19c0 0 11.034-5.276 1.84-15.19z" fill="#fff" fill-rule="evenodd"/><path d="M82.47 75.114c-7.835 3.798-13.192 14.232-7.835 22.467.92 1.24 4.837 6.236 6.556 4.717 1.439-1.24-2.359-4.997-3.158-6.116-4.558-6.836.8-11.154 5.356-15.47.92-.84 2.999-2.64 2.639-4.038-.4-1.28-2.359-1.56-3.278-1z" fill="#97c250" fill-rule="evenodd"/><path d="M92.944 85.268c.68-1.239 1.559-2.358 2.238-3.478.88-1.639 1.8-2.918 3.598-3.477m-3.358 10.313c.4-.32 1.04-.8 1.52-.8m-3.998 9.595c1.079.6 2.118.6 3.038 1.28 1.599.999 2.358 2.398 3.278 3.917m-8.875-3.198c.56.28 1.08.84 1.2 1.359m4.157-8.955c.64-.44 1.28-1.039 1.999-1.039M86.228 99.66c.56.84.44 1.799.12 2.598-.28 1.12-.28 2.638-.6 3.558m-3.358-8.555c-1.799.88-2.838 3.678-3.758 5.357m1.599-9.035c-.88-.16-1.799.6-2.478 1.04m2.318-3.998c-.919-.32-1.998-.08-2.958-.2m6.637-5.956c-1.96-.96-3.159-4.797-5.837-4.637m9.834 3.278c0-1.08-.24-2.16-.8-3.118m3.678 3.678c0-.68.4-1.4.64-2.12.28-1.279.28-3.877 1.519-4.597m1.839 9.834c.56-.44.92-1.039 1.439-1.519M84.949 83.67c-.24-.4-.36-.92-.72-1.36m-2.799 4.637c-.999-.88-3.038-1.279-4.317-1.119m3.997 9.594c-1.678.28-3.637 2.199-4.157 3.838m6.597-.64c.2.56 0 1.12-.12 1.56-.12.28-.48 1.638-.48 1.518m-.32 2.439c0 .44-.2 1-.4 1.519m6.876-5.836c.32.879.32 1.758.64 2.478m.559 2.798c-.08.44.08 1.8.08 2.319m4.877-12.153c.52-2.438 4.398-3.118 6.316-2.958m3.198.8c.64.16 1.48.76 1.6 1.519M86.388 72.796c-.6.72-.96 1.759-.96 2.878m.16 2.479c0 .12 0 .24.16.48M70.797 98.46c0-1.399.56-2.958 1.44-3.837m-2.639-4.638c.16-.68 1.319-1.079 1.839-1.519m1.519-.799c0-.24 0-.24.16-.24m32.94-.48c-.36-.12-.76-.36-1.16-.48-.64-.16-1.279.12-1.958.12m2.158-1.958c-.4 0-.8-.16-1.199.16m-.32-2.679c-.12-.28-1.279.6-1.679.84m-.799-4.957-.16.16m-6.316-3.998c-.24.28-.6.56-.88.8M72.236 81.67c.44-.24 1.12 0 1.68 0m4.317-6.236c0-.32 0 0 .16.12.36.44.6 1 .72 1.4m16.629 31.82c-.4-.4-.24-.96-.52-1.4-.16-.559-.72-.958-1-1.398m3.358 1.679c-.239-.4-.399-.92-.799-1.36m2.519.16c.12-.12-1.12-1.678-1.4-1.998m-5.676 5.516c-.36-.52-.36-1.159-.48-1.839m-13.352-.719c.68-.4 1.08-1.759 1.2-2.479m.799 3.838c.2-.24.4-.52.4-.96m-4.717-1.678c.32-.52.44-1.08.88-1.36m-4.718-3.118c.28-.52.96-.8 1.2-1.359m-3.838-6.636c.28-.28.68-.4 1.04-.72" fill="none" stroke="#343434" stroke-width=".32" stroke-linecap="round" stroke-miterlimit="8"/><path clip-path="url(#a)" d="M163.86 80.95c0 49.93-32.7 90.426-73.035 90.426-40.296 0-80.871-18.749-80.871-68.718 0-49.97 44.373-100.78 84.669-100.78 40.295 0 69.238 29.103 69.238 79.073" fill="none" stroke="#343434" stroke-width=".48" stroke-miterlimit="8"/><path d="M156.585 81.51c0 45.253-29.462 81.871-66 81.871-36.418 0-73.116-16.99-73.116-62.242 0-45.253 40.096-91.105 76.634-91.105 36.418 0 62.482 26.184 62.482 71.477" fill="none" stroke="#343434" stroke-width=".48" stroke-miterlimit="8"/><path d="M108.934 26.504c-.12-2.079-2.998-2.638-4.437-3.478-1.04-.72-2.639-1.4-3.398-2.518-.8-1-1.32-2.519-2-3.678m19.669 13.472c1.839-1.16 4.597-.28 6.716.12 2.079.32 4.717 1.279 6.396.16m-18.389-5.437c.24-1.24-1.16-2.319-1.679-3.158-.52-.96-1.599-3.438-.92-4.278m5.158 8.835c1.199.12 2.358-.88 3.278-1.56 1.439-.999 3.118-.999 4.397-2.318m-6.636 9.474c1.879-.44 2.399 1.2 3.838 1.72m-10.154-8.875c-.36-.4-.6-1.08-1-1.52-.36-.519-.879-.679-1.359-.959-.64-.56-1.519-1.799-1.799-2.638m8.315 5.836c1.08 0 .92-2.718 1.84-3.038m1.119 5.397c.28.12 1.719-.32 2.278-.32.92.16 1.84 0 2.599-.44m-4.558 3.518c.68.32 1.2.32 1.68.8.519.28 1.199 1.04 1.678.92m-12.472-4.678c-.24-1.679-2.758-1.519-3.038-2.398" fill="none" stroke="#343434" stroke-width=".32" stroke-linecap="round" stroke-miterlimit="8"/><path d="M102.418 11.673c-2.359 0-4.597-.12-6.956-.28-2.119-.12-5.397-1.679-4.717 2.079 1.04 5.157 7.076 8.195 11.153 9.834-1.199-2.359-6.436-4.677-6.316-7.755.12-1.8 1.839-2.2 3.158-2.639 1.04-.28 2.998-.96 4.038-.84zm22.546 23.706c2.359.84 5.117.999 7.236 2.238 2.079 1 4.837 2.079 7.196 1.56 2.238-.44 4.317-2.52 3.038-4.918-.8-1.359-2.239-2.079-3.278-3.478-1.08-1.239-2-2.518-3.278-3.597-2.12-1.96-4.598-3.518-6.317-5.477-.64 0-3.677.28-3.797 1.399-.12.84 2.358 2.958 2.878 3.358 1.44 1.519 7.076 3.478 5.797 6.556-1.6.68-3.438 0-4.997.16-.92.12-1.84.68-2.639.96-.92.28-1.959.28-2.758.839z" fill="#c0d366" fill-rule="evenodd"/><path d="M130.76 13.152s29.903 15.91 31.821 61.643c0 0-6.236-42.654-31.82-61.643z" fill="#c0d366" fill-rule="evenodd"/><path clip-path="url(#a)" d="M26.304 52.968S-.04 90.345 16.27 130.44c16.95 41.655 76.674 39.576 76.674 39.576s-52.009 0-73.916-40.535c-17.869-32.9 7.276-76.514 7.276-76.514z" fill="#c0d366" fill-rule="evenodd"/><path d="M107.895 4.797s28.223-.28 45.332 34.5c0 0-14.99-27.984-45.332-34.5zM96.941 168.898S36.258 157.225 52.728 67.279c0 0-15.79 79.352 44.213 101.619zM51.929 64.56c0-.679.52-1.278 1.159-1.278.64 0 1.16.6 1.16 1.279 0 .72-.52 1.28-1.16 1.28-.64 0-1.16-.56-1.16-1.28zm1.679-3.677c0-.28.28-.56.6-.56.359 0 .599.28.599.56 0 .32-.24.56-.6.56-.32 0-.6-.24-.6-.56z" fill="#fff" fill-rule="evenodd"/><path d="M81.91 163.341c0-1.32 1.04-2.439 2.239-2.439 1.24 0 2.239 1.12 2.239 2.439 0 1.36-1 2.439-2.239 2.439-1.2 0-2.239-1.08-2.239-2.439zm6.716 0c0-.56.4-1.08.88-1.08.52 0 .88.52.88 1.08 0 .6-.36 1.08-.88 1.08-.48 0-.88-.48-.88-1.08zm-11.033-.4c0-.52.44-1 .92-1 .52 0 .919.48.919 1 0 .56-.4 1-.92 1-.48 0-.919-.44-.919-1zM48.65 24.185s-22.346 22.067-22.986 67.08c0 0-5.396-39.296 22.987-67.08z" fill="#fff" fill-rule="evenodd"/><path d="M116.37 28.343c-2.04-1.4-3.998-1.68-6.197-1.52.24 5.837-1.199 10.394-3.797 15.671 2.878-1.919 4.037-7.195 4.837-10.553.76-2.879 2.438-3.718 4.637-4.438z" fill="#9fc449" fill-rule="evenodd"/><path d="M110.213 26.744s4.957-1.919 7.516 2.558c0 0-1.28-2.838-7.516-2.558zM91.744 11.833s30.662-4.358 49.81 22.186c0 0-16.27-23.465-49.81-22.186z" fill="#fff" fill-rule="evenodd"/></svg>