<svg xmlns="http://www.w3.org/2000/svg" version="1.0" viewBox="0 0 241.701 270.765"><defs><clipPath clipPathUnits="userSpaceOnUse" id="a"><path d="M3.038 2.239h241.374v270.955H3.038z"/></clipPath></defs><path d="M36.178 215.79c-4.357.12-7.675-3.079-11.513-4.198-4.837-1.36-7.196 1.12-9.794 4.317-1.48 1.999-3.198 2.838-3.958 5.437-.6 2.358-.6 4.957-.84 7.275-.519 4.957-2.957 9.155-3.957 13.832-.4 2.479 0 5.916.72 8.275.76 2.479 2.998 3.438 3.957 5.557 2 .24 4.957 1 6.836 1.719 3.198 1.239 3.318 4.317 5.917 6.436 4.837 3.917 11.033 3.198 16.23 1.839 5.557-1.48 11.993-1.84 17.19-3.718 3.437-1.2 6.556-2.079 8.914-5.277 3.798-5.317 3.078-9.994-1.4-14.471-3.557-3.558-3.197-5.397-2.957-10.474.24-5.317-1.72-8.035-5.917-10.873-5.716-4.038-9.274-5.277-16.23-5.277z" fill="#7c9726" fill-rule="evenodd"/><path clip-path="url(#a)" d="M234.658 8.795s-13.592-6.916-15.71-4.438c-2.12 2.479-4.558 7.156-12.753 9.155-8.155 1.959-28.663 10.713-36.218 18.748-7.675 7.916-12.752 5.677-21.787 8.156-8.994 2.478-125.764-.36-143.953 209.712-2.358 27.024 8.555 13.592 8.555 13.592s5.797-3.598 5.197-6.796c-.64-3.318 1.48-3.957 3.558-4.917 2.239-1 4.357-3.358 2.359-4.477-1.96-1.24-3.318-.48-4.318 1.48-1 1.998-3.078 4.197-4.717 1.998-1.719-2.359 3.118-7.396.64-8.395-2.479-1-6.077 5.197-7.556 3.078-1.479-2.079 3.238-6.276 3.718-8.994.48-2.839.72-3.358 2.718-2.719 1.96.72 1.72 7.875 4.717 5.917 2.959-1.96 5.677-2.479 1.72-5.197-3.958-2.839-8.915-10.594-5.677-13.712 3.318-3.078 5.157-4.917 5.676-.84.48 4.198 1 8.156 3.438 6.677 2.479-1.48-.24-10.274 3.118-9.395 3.318.72 4.797 2.719 3.438 7.036-1.359 4.317-5.037 4.797-5.796 6.436-.6 1.6-1.48 3.318.76 3.558 2.078.36 1.718-2.599 3.557-2.479 1.88.24 3.478 1.88.88 4.318-2.719 2.478-4.957 5.556-2.959 7.036 1.96 1.479 3.958-.12 4.438-2.959.48-2.718.24-5.916 2.718-6.036 2.479-.12 3.478 2.359 3.958-.36.52-2.598 2.358-3.478 0-5.676-2.239-2.359-2.079-6.197.88-5.797 2.957.36 2.837-.16 3.957 1.839 1.12 1.959 6.436-1.999 7.915-.88 1.48 1.12 4.437 2.599.36 4.838-4.198 2.078-7.795 2.438-8.915 5.037-1.24 2.598-4.317 4.957-1.479 5.316 2.718.24 5.197 1 3.238 2.719-1.999 1.839-3.957 1.959-6.436 2.358-2.478.36-4.077-1.599-3.598 1.96.48 3.597 0 5.076 2.958 3.077 2.999-1.959 3.358-2.079 5.077-3.957 1.88-1.72 2.479-3.198 5.437-2.959 2.998.4 7.316-2.438 7.675 2.959.24 5.436-7.795 6.915-5.796 9.634 1.959 2.598 2.958 5.077 5.317 2.238 2.198-2.718 2.958-5.916 5.077-4.197 2.078 1.599 2.078 6.036-1.88 7.156-3.957 1.239-6.555 3.837-9.993 1.479-3.478-2.239-1.999-4.917-2.998-6.916-.96-1.959-1.48-4.078-2.599-1.48-1.24 2.72-.72 6.157-2.718 4.798-1.959-1.32-2.199-5.797-3.438-4.557-1.12 1.119-2.479 3.478-.12 5.556 2.319 2.119 3.318 6.916 0 6.556-3.358-.24-6.436 2.199-6.556-1.239-.28-3.438-.28-5.197-1.36-4.797-1.119.36-2.997 6.396-3.477 2.558-.48-3.677-1-4.677 1.839-4.917 2.718-.12 5.436-.64 5.197-2.598-.12-1.959-1.12-2.478-3.718-2.359-2.718.28-3.798-.24-4.317 2.24-.48 2.478-1.6 5.076-3.598 4.916-1.96-.24-9.994 12.992-4.677 13.232 5.196.24 203.556-19.868 203.436-177.013-.12-26.184 12.233-26.304 14.831-43.094 2.599-16.91 2.119-18.628 5.197-23.305 3.118-4.718 5.437-5.437 3.358-9.874-2.119-4.358-7.795-10.034-7.795-10.034z" fill="#d2de88" fill-rule="evenodd"/><path d="M55.007 241.054c40.215-1.72 147.71-35.419 147.59-138.836 0-20.867 9.754-20.987 11.873-34.3 2.119-13.351 1.6-14.83 4.078-18.508 2.478-3.718 4.317-4.317 2.718-7.795-1.6-3.438-6.156-8.035-6.156-8.035s-10.914-5.557-12.633-3.558c-1.599 1.959-3.598 5.796-10.034 7.275-6.556 1.6-22.866 8.635-28.942 14.951-5.917 6.277-9.994 4.438-17.19 6.396-7.155 2-100.059-.24-114.53 166.86-.4 5.316.36 10.753.36 10.753.12-1.6.48-2.958 1.998-3.318 1.48-.4 3.198-2.958 2.719-4.957-.64-1.84.12-4.677.12-4.677.48-1.48 4.797-3.478 3.717-3.838-1.879-.72-4.837 4.197-5.956 2.478-1.24-1.718 2.598-4.957 2.958-7.155.4-2.239.52-2.599 2.119-2.119 1.599.52 1.479 6.316 3.838 4.717 2.358-1.639 4.437-1.999 1.239-4.197-3.118-2.239-7.076-8.395-4.477-10.874 2.718-2.478 4.077-3.957 4.477-.64.48 3.239.84 6.437 2.838 5.198 1.959-1.12-.12-8.036 2.479-7.396 2.598.6 3.837 2.199 2.718 5.557-1 3.438-4.078 3.837-4.597 5.197-.48 1.199-1.24 2.558.52 2.838 1.718.24 1.478-2.119 2.958-1.999 1.359.12 2.718 1.48.64 3.478-2.12 1.959-3.998 4.437-2.36 5.557 1.48 1.199 3.079-.16 3.439-2.359.52-2.239.28-4.677 2.238-4.837 1.999-.12 2.838 1.879 3.238-.24.36-2.079 1.84-2.718 0-4.557-1.879-1.839-1.759-4.797.6-4.557 2.358.24 2.239-.12 3.198 1.359.88 1.599 5.077-1.48 6.196-.64 1.24.88 3.598 2.119.36 3.838-3.318 1.719-6.156 1.959-7.156 4.077-.88 2.08-3.358 3.958-1.119 4.198 2.239.24 4.197.72 2.598 2.199-1.599 1.359-3.078 1.519-5.077 1.758-1.958.36-3.318-1.239-2.958 1.6.48 2.958 0 4.077 2.359 2.478 2.478-1.48 2.718-1.639 4.077-3.118 1.48-1.48 1.96-2.559 4.318-2.319 2.358.24 5.836-1.999 6.076 2.319.24 4.317-6.196 5.437-4.597 7.555 1.639 2.079 2.358 4.078 4.197 1.84 1.88-2.24 2.359-4.678 4.118-3.319 1.719 1.24 1.719 4.797-1.52 5.677-3.077.96-5.156 3.078-8.034 1.239-2.719-1.879-1.48-3.958-2.319-5.557-.76-1.479-1.12-3.238-2.119-1.119-.88 2.079-.48 4.797-2.118 3.838-1.48-1.12-1.72-4.717-2.719-3.718-.84.88-1.959 2.718-.12 4.437 1.88 1.72 2.599 5.437 0 5.197-2.598-.24-5.077 1.72-5.197-1-.12-2.718-.12-4.077-1.119-3.837-.84.28-2.318 5.077-2.718 2.119-.36-2.958-.72-3.838 1.479-3.958 2.239-.12 4.357-.48 4.117-2.079 0-.4 0-.76-.16-.999 0 0-1.718 1.719-3.198 1.959-1.479.4-5.556 1.999-4.957 3.957.52 1.96-.72 6.796 1.24 6.796 2.118 0 5.836.84 8.275.72z" fill="#c3d77b" fill-rule="evenodd"/><path d="M72.876 194.242c-2.199-1.839-7.636-9.834-11.193-6.636-2 1.72-.24 5.277 1.359 6.636 1.08.88 2.678 1.24 3.438 2.359.72 1.2.24 2.318.48 3.798 1.598 7.835 9.474 2.958 14.43 3.917 2.32.48 4.558 1.6 6.637-.36 2.438-2.198 1.119-4.437-1.12-5.916-4.197-3.038-10.353-.24-14.031-3.558z" fill="#8eaf39" fill-rule="evenodd"/><path d="M72.876 194.242c-2.199-1.839-7.636-9.834-11.193-6.636-2 1.72-.24 5.277 1.359 6.636 1.08.88 2.678 1.24 3.438 2.359.72 1.2.24 2.318.48 3.798 1.598 7.835 9.474 2.958 14.43 3.917 2.32.48 4.558 1.6 6.637-.36 2.438-2.198 1.119-4.437-1.12-5.916-4.197-3.038-10.353-.24-14.031-3.558" fill="none" stroke="#fcfcfc" stroke-width=".32" stroke-miterlimit="8"/><path d="M72.876 194.242c-2.199-1.839-7.636-9.834-11.193-6.636-2 1.72-.24 5.277 1.359 6.636 1.08.88 2.678 1.24 3.438 2.359.72 1.2.24 2.318.48 3.798 1.598 7.835 9.474 2.958 14.43 3.917 2.32.48 4.558 1.6 6.637-.36 2.438-2.198 1.119-4.437-1.12-5.916-4.197-3.038-10.353-.24-14.031-3.558" fill="none" stroke="#fcfcfc" stroke-width=".32" stroke-miterlimit="8"/><path d="M74.475 181.01c-2.199-4.797 1.839-11.673-2.718-15.63-2.959-2.479-3.798 0-2.959 2.838 1 2.838 3.238 5.277 2.719 8.635-.72 4.797-3.198.48-3.438-2.479-.24-2.198.24-7.755-2.479-8.515-3.957-1.199-3.957 4.558-2.718 6.676.64 1.12 5.796 5.797 2.478 6.397-2.238.48-5.196-9.235-7.395-4.078-2.119 4.677 4.557 6.556 6.036 9.514 1.6 3.078.88 7.236 5.917 7.116 4.557-.12 3.318-5.757 3.957-9.115z" fill="#819b2d" fill-rule="evenodd"/><path d="M74.475 181.01c-2.199-4.797 1.839-11.673-2.718-15.63-2.959-2.479-3.798 0-2.959 2.838 1 2.838 3.238 5.277 2.719 8.635-.72 4.797-3.198.48-3.438-2.479-.24-2.198.24-7.755-2.479-8.515-3.957-1.199-3.957 4.558-2.718 6.676.64 1.12 5.796 5.797 2.478 6.397-2.238.48-5.196-9.235-7.395-4.078-2.119 4.677 4.557 6.556 6.036 9.514 1.6 3.078.88 7.236 5.917 7.116 4.557-.12 3.318-5.757 3.957-9.115" fill="none" stroke="#fcfdfb" stroke-width=".32" stroke-miterlimit="8"/><path d="M74.475 181.01c-2.199-4.797 1.839-11.673-2.718-15.63-2.959-2.479-3.798 0-2.959 2.838 1 2.838 3.238 5.277 2.719 8.635-.72 4.797-3.198.48-3.438-2.479-.24-2.198.24-7.755-2.479-8.515-3.957-1.199-3.957 4.558-2.718 6.676.64 1.12 5.796 5.797 2.478 6.397-2.238.48-5.196-9.235-7.395-4.078-2.119 4.677 4.557 6.556 6.036 9.514 1.6 3.078.88 7.236 5.917 7.116 4.557-.12 3.318-5.757 3.957-9.115" fill="none" stroke="#fcfdfb" stroke-width=".32" stroke-miterlimit="8"/><path d="M191.604 61.563s-1.72-5.277-7.156-2.839c-5.317 2.359-3.598 10.274 0 14.711 3.718 4.318 5.917 11.953 2.199 12.953-3.678.96-8.755-8.915-8.995-14.192-.28-5.436-4.717-13.711-10.393-11.593-5.557 2.199-.52 8.395 1.958 11.833 2.479 3.318 2.999 5.797.76 6.796-2.239.96-11.993-15.43-17.95-7.795-5.796 7.515 1.76 13.192 9.915 16.19 8.035 2.958 22.506 21.707 11.993 27.383-10.514 5.677-15.231-14.191-15.95-19.148-.76-4.797-7.676-13.432-12.753-7.276-5.197 6.037 0 13.472 6.556 18.27 6.676 4.916 13.872 22.586 6.916 25.544-6.916 2.958-10.754-7.676-11.753-15.67-.96-8.156-12.233-32.82-21.867-21.828-9.514 11.074 1.24 14.911 6.196 18.35 4.798 3.477 7.756 6.196 5.797 7.435-1.999 1.2-9.035-4.717-10.754-7.675-1.758-2.959-13.751-12.953-21.147-3.438-7.315 9.634 2.199 19.108 9.634 22.306 7.316 3.238 27.943 8.035 28.183 13.952.28 5.916-5.436 13.951-15.19 2.718-9.755-11.353-18.43-24.545-25.225-14.431-6.916 9.994 3.598 14.91 11.233 20.467 7.555 5.677 12.752 15.67 4.957 18.629-7.915 2.958-16.71-15.91-18.909-21.707-2.238-5.916-11.992-13.072-17.429-6.396-5.477 6.636-1 11.713 4.197 15.91 5.077 4.198 18.55 22.307-2.478 20.588l1 4.317s11.752.48 12.232-7.995c.48-8.635-3.238-14.471-9.035-18.389-5.916-3.957-8.394-10.993-2.478-13.472 5.836-2.438 11.993 8.036 18.309 19.868 6.436 11.713 14.83 12.713 18.429 8.515 3.717-4.197 4.197-16.67-8.795-24.905-12.952-8.395-11.753-12.472-8.395-14.43 3.478-2 7.915-1.24 14.951 9.473 7.196 10.754 15.71 16.19 21.427 12.473 5.677-3.718 7.635-15.191-2.998-19.628-10.514-4.318-25.705-6.516-28.943-13.912-3.198-7.315-2.958-12.472 0-13.472 2.999-1 8.435-1.479 14.232 4.957 5.956 6.396 13.991 14.192 16.71 9.235 2.718-4.797.72-9.515-8.035-14.192-8.915-4.557-9.155-10.713-5.437-13.192 3.678-2.478 9.514.24 13.712 10.714 4.197 10.633 3.717 26.544 14.47 28.782 10.754 2.08 10.754-8.914 8.915-16.19-1.998-7.395-12.872-14.91-14.75-20.347-1.96-5.437-3.678-7.636-1.2-8.635 2.319-.88 5.317 1 6.036 6.676.76 5.676 3.958 16.87 12.513 20.347 8.635 3.438 16.43-3.717 12.592-14.95-3.957-11.314-13.951-16.87-20.148-19.829-6.196-2.958-7.675-9.034-4.197-9.994 3.438-.999 10.394 9.715 15.43 9.994 5.197.24 3.239-10.753.76-13.471-2.478-2.719-4.957-5.917-2.239-5.917 2.719 0 5.437 1.959 5.957 7.915.48 5.797 1.719 16.15 8.035 17.87 6.436 1.599 11.353-5.917 7.675-11.833-3.717-5.797-12.752-21.987.72-16.43z" fill="#94b23b" fill-rule="evenodd"/><path d="M192.643 60.044s-1.719-5.277-7.155-2.839c-5.317 2.359-3.718 10.274 0 14.711 3.717 4.318 5.916 11.953 2.198 12.953-3.678.959-8.754-8.915-8.994-14.192-.28-5.437-4.717-13.712-10.394-11.593-5.557 2.199-.52 8.395 1.959 11.833 2.478 3.318 2.998 5.797.76 6.796-2.24.96-11.993-15.43-17.95-7.795-5.796 7.515 1.76 13.192 9.914 16.19 8.035 2.958 22.507 21.707 11.993 27.383-10.514 5.677-15.23-14.191-15.95-19.148-.76-4.797-7.676-13.432-12.753-7.276-5.196 6.037 0 13.472 6.556 18.27 6.676 4.916 13.712 22.585 6.916 25.544-6.916 2.958-10.753-7.676-11.753-15.67-.96-8.156-12.352-32.82-21.866-21.828-9.515 11.074 1.239 14.911 6.196 18.35 4.797 3.477 7.755 6.196 5.796 7.435-1.999 1.199-9.034-4.717-10.753-7.676-1.76-2.958-13.752-12.952-21.147-3.437-7.316 9.634 2.198 19.108 9.634 22.306 7.315 3.238 27.943 8.035 28.183 13.952.28 5.916-5.437 13.951-15.191 2.718-9.754-11.353-18.429-24.545-25.225-14.431-6.916 9.994 3.598 14.91 11.233 20.467 7.556 5.677 12.753 15.67 4.957 18.629-7.915 2.958-16.71-15.91-18.908-21.707-2.239-5.916-11.993-13.072-17.43-6.396-5.476 6.636-.999 11.713 4.198 15.91 5.077 4.198 18.549 22.307-2.479 20.588l1 4.317s11.753.48 12.232-7.995c.48-8.635-3.238-14.471-9.154-18.389-5.797-3.957-8.275-10.993-2.359-13.472 5.837-2.438 11.993 8.036 18.31 19.868 6.435 11.713 14.71 12.713 18.428 8.515 3.718-4.197 4.198-16.67-8.795-24.905-12.952-8.395-11.752-12.472-8.395-14.431 3.478-1.999 7.916-1.24 14.951 9.474 7.196 10.754 15.71 16.19 21.427 12.473 5.677-3.718 7.636-15.191-2.998-19.628-10.513-4.318-25.704-6.516-28.942-13.912-3.198-7.316-2.958-12.472 0-13.472 2.998-1 8.435-1.479 14.231 4.957 5.957 6.396 13.992 14.192 16.71 9.235 2.718-4.797.72-9.515-8.035-14.192-8.915-4.557-9.155-10.713-5.437-13.192 3.678-2.478 9.514.24 13.712 10.714 4.197 10.633 3.718 26.544 14.471 28.782 10.754 2.079 10.754-8.914 8.915-16.19-2-7.395-12.872-14.91-14.751-20.348-1.96-5.436-3.678-7.635-1.2-8.634 2.319-.88 5.317 1 6.037 6.676.76 5.676 3.957 16.87 12.512 20.347 8.635 3.438 16.43-3.717 12.593-14.95-3.958-11.314-14.112-16.87-20.148-19.829-6.197-2.958-7.676-9.034-4.198-9.994 3.438-.999 10.234 9.715 15.43 9.994 5.198.24 3.239-10.753.76-13.471-2.478-2.719-4.957-5.917-2.238-5.917 2.718 0 5.437 1.959 5.956 7.915.48 5.797 1.72 16.15 8.035 17.87 6.436 1.599 11.353-5.917 7.676-11.833-3.718-5.797-12.753-21.987.72-16.43z" fill="#b1d07a" fill-rule="evenodd"/><path d="M192.643 60.044s-1.719-5.277-7.155-2.839c-5.317 2.359-3.718 10.274 0 14.711 3.717 4.318 5.916 11.953 2.198 12.953-3.678.959-8.754-8.915-8.994-14.192-.28-5.437-4.717-13.712-10.394-11.593-5.557 2.199-.52 8.395 1.959 11.833 2.478 3.318 2.998 5.797.76 6.796-2.24.96-11.993-15.43-17.95-7.795-5.796 7.515 1.76 13.192 9.914 16.19 8.035 2.958 22.507 21.707 11.993 27.383-10.514 5.677-15.23-14.191-15.95-19.148-.76-4.797-7.676-13.432-12.753-7.276-5.196 6.037 0 13.472 6.556 18.27 6.676 4.916 13.712 22.585 6.916 25.544-6.916 2.958-10.753-7.676-11.753-15.67-.96-8.156-12.352-32.82-21.866-21.828-9.515 11.074 1.239 14.911 6.196 18.35 4.797 3.477 7.755 6.196 5.796 7.435-1.999 1.199-9.034-4.717-10.753-7.676-1.76-2.958-13.752-12.952-21.147-3.437-7.316 9.634 2.198 19.108 9.634 22.306 7.315 3.238 27.943 8.035 28.183 13.952.28 5.916-5.437 13.951-15.191 2.718-9.754-11.353-18.429-24.545-25.225-14.431-6.916 9.994 3.598 14.91 11.233 20.467 7.556 5.677 12.753 15.67 4.957 18.629-7.915 2.958-16.71-15.91-18.908-21.707-2.239-5.916-11.993-13.072-17.43-6.396-5.476 6.636-.999 11.713 4.198 15.91 5.077 4.198 18.549 22.307-2.479 20.588l1 4.317s11.753.48 12.232-7.995c.48-8.635-3.238-14.471-9.154-18.389-5.797-3.957-8.275-10.993-2.359-13.472 5.837-2.438 11.993 8.036 18.31 19.868 6.435 11.713 14.71 12.713 18.428 8.515 3.718-4.197 4.198-16.67-8.795-24.905-12.952-8.395-11.752-12.472-8.395-14.431 3.478-1.999 7.916-1.24 14.951 9.474 7.196 10.754 15.71 16.19 21.427 12.473 5.677-3.718 7.636-15.191-2.998-19.628-10.513-4.318-25.704-6.516-28.942-13.912-3.198-7.316-2.958-12.472 0-13.472 2.998-1 8.435-1.479 14.231 4.957 5.957 6.396 13.992 14.192 16.71 9.235 2.718-4.797.72-9.515-8.035-14.192-8.915-4.557-9.155-10.713-5.437-13.192 3.678-2.478 9.514.24 13.712 10.714 4.197 10.633 3.718 26.544 14.471 28.782 10.754 2.079 10.754-8.914 8.915-16.19-2-7.395-12.872-14.91-14.751-20.348-1.96-5.436-3.678-7.635-1.2-8.634 2.319-.88 5.317 1 6.037 6.676.76 5.676 3.957 16.87 12.512 20.347 8.635 3.438 16.43-3.717 12.593-14.95-3.958-11.314-14.112-16.87-20.148-19.829-6.197-2.958-7.676-9.034-4.198-9.994 3.438-.999 10.234 9.715 15.43 9.994 5.198.24 3.239-10.753.76-13.471-2.478-2.719-4.957-5.917-2.238-5.917 2.718 0 5.437 1.959 5.956 7.915.48 5.797 1.72 16.15 8.035 17.87 6.436 1.599 11.353-5.917 7.676-11.833-3.718-5.797-12.753-21.987.72-16.43" fill="none" stroke="#343434" stroke-width=".32" stroke-miterlimit="8"/><path d="M198.92 22.346s-15.831 2.599-26.105 13.592c-10.274 10.994-29.422 13.232-42.294 18.789-12.832 5.437-79.112 29.502-83.95 94.463-2.238 29.742 13.593 46.052-.479 75.554 0 0 4.317-3.198 6.796.12 0 0 9.154-11.114 39.296-7.756 30.182 3.318 75.075-5.077 95.342-44.812 20.268-39.656 25.105-59.165 26.824-73.876 1.879-14.67 3.718-21.706 7.436-27.143 3.717-5.557 8.754-19.149 7.675-26.184 0 0-1.759 13.192-11.393 29.382-4.078 7.156-4.677 15.95-5.797 23.586-3.238 21.227-18.309 66.68-37.337 87.547-23.386 25.424-52.328 29.502-92.144 26.943-16.55-1-27.663 4.917-27.663 4.917s1.599-22.826-1.88-38.257c-3.957-17.31-8.514-50.29 18.55-82.15 25.704-30.381 55.286-38.776 65.8-42.334 28.782-9.874 34.099-13.952 37.817-18.789 3.717-4.797 18.069-13.192 23.505-13.592z" fill="#eeeeab" fill-rule="evenodd"/><path d="M198.92 22.346s-15.831 2.599-26.105 13.592c-10.274 10.994-29.422 13.232-42.294 18.789-12.832 5.437-79.112 29.502-83.95 94.463-2.238 29.742 13.593 46.052-.479 75.554 0 0 4.317-3.198 6.796.12 0 0 9.154-11.114 39.296-7.756 30.182 3.318 75.075-5.077 95.342-44.812 20.268-39.656 25.105-59.165 26.824-73.876 1.879-14.67 3.718-21.706 7.436-27.143 3.717-5.557 8.754-19.149 7.675-26.184 0 0-1.759 13.192-11.393 29.382-4.078 7.156-4.677 15.95-5.797 23.586-3.238 21.227-18.309 66.68-37.337 87.547-23.386 25.424-52.328 29.502-92.144 26.943-16.55-1-27.663 4.917-27.663 4.917s1.599-22.826-1.88-38.257c-3.957-17.31-8.514-50.29 18.55-82.15 25.704-30.381 55.286-38.776 65.8-42.334 28.782-9.874 34.099-13.952 37.817-18.789 3.717-4.797 18.069-13.192 23.505-13.592" fill="none" stroke="#343434" stroke-width=".32" stroke-miterlimit="8"/><path d="M68.958 186.767c0-5.037 4.278-9.155 9.514-9.155 5.277 0 9.515 4.118 9.515 9.155 0 5.077-4.238 9.154-9.515 9.154-5.236 0-9.514-4.077-9.514-9.154z" fill="#b1d07a" fill-rule="evenodd"/><path d="M68.958 186.767c0-5.037 4.278-9.155 9.514-9.155 5.277 0 9.515 4.118 9.515 9.155 0 5.077-4.238 9.154-9.515 9.154-5.236 0-9.514-4.077-9.514-9.154" fill="none" stroke="#343434" stroke-width=".32" stroke-miterlimit="8"/><path d="M74.635 186.647a3.924 3.924 0 0 1 3.917-3.918 3.899 3.899 0 0 1 3.918 3.918c0 2.199-1.719 3.918-3.918 3.918a3.899 3.899 0 0 1-3.917-3.918z" fill="#6c992d" fill-rule="evenodd"/><path d="M68.958 186.767c0-5.037 4.278-9.155 9.514-9.155 5.277 0 9.515 4.118 9.515 9.155 0 5.077-4.238 9.154-9.515 9.154-5.236 0-9.514-4.077-9.514-9.154" fill="none" stroke="#343434" stroke-width=".32" stroke-miterlimit="8"/><path d="M74.635 186.647a3.924 3.924 0 0 1 3.917-3.918 3.899 3.899 0 0 1 3.918 3.918c0 2.199-1.719 3.918-3.918 3.918a3.899 3.899 0 0 1-3.917-3.918" fill="none" stroke="#343434" stroke-width=".48" stroke-miterlimit="8"/><path d="M79.352 183.449c-.52 0-1-.4-1.64-.24-.479.12-.998.24-1.358.72-1 .999-1.4 2.278-1.12 3.637.24.88.88 1.64 1.76 1.88 1.119.479 1.359-.64.719-1.36-.36-.4-.6-.76-.48-1.28.24-.479.76-.879 1.12-.999.64-.36 1.479-.6 1.479-1.359 0-.4-.24-.76-.48-1z" fill="#587c26" fill-rule="evenodd"/><path d="M81.39 183.209s4.038 4.117-.919 7.356c0 0 5.677-2.479.92-7.356z" fill="#fff" fill-rule="evenodd"/><path d="M75.714 178.732c-3.997 1.879-6.756 6.915-3.997 10.753.4.64 2.518 3.078 3.397 2.359.72-.64-1.279-2.479-1.639-2.958-2.358-3.358.36-5.317 2.759-7.436.48-.36 1.599-1.36 1.359-1.959-.24-.6-1.24-.76-1.759-.48z" fill="#d2e09d" fill-rule="evenodd"/><path d="M80.95 183.769c.4-.6.92-1.12 1.28-1.76.52-.719 1.04-1.358 1.919-1.758m-1.839 5.197c.28-.16.56-.56.8-.56m-2 4.877c.52.16 1 .16 1.48.52.88.48 1.24 1.199 1.719 1.799m-4.477-1.519c.24.12.36.32.48.48m2.158-4.318c.4-.08.68-.32 1.2-.32m-5.917 4.158c.08.52.08.879 0 1.359-.12.48-.12 1.199-.24 1.679m-1.839-3.998c-1 .4-1.479 1.759-1.999 2.479m.96-4.318c-.36 0-.88.24-1.28.48m1.12-1.839c-.48-.32-1-.16-1.52-.32m3.359-2.638c-.96-.48-1.56-2.399-2.799-2.239m4.957 1.52c0-.64-.16-1.16-.48-1.68m1.84 1.84c0-.24.28-.6.28-.96.24-.64.24-1.88.839-2.159m1.039 4.637c.28-.2.56-.4.8-.64m-5.837-.878c-.24-.2-.24-.4-.48-.64m-1.359 2.318c-.48-.4-1.559-.64-2.318-.52m2.159 4.518c-.88.16-1.88 1.119-2.16 1.839m3.559-.16c.12.24 0 .48-.12.68 0 .12-.24.679-.24.599m-.32 1.199c0 .32 0 .6-.16.88m3.598-2.879c.12.4.12.8.24 1.2m.48 1.279c-.16.28 0 .96 0 1.2m2.478-5.837c.28-1.28 2.239-1.68 3.198-1.52m1.599.56c.4 0 .88.28.88.64m-10.154-10.474c-.4.36-.72.84-.72 1.28m.24 1.198c-.24.16 0 .16 0 .32m-7.555 9.515c-.12-.64.24-1.44.68-1.84m-1.36-2.318c0-.36.64-.48.88-.72m.639-.319s0-.16.16-.16m17.03-.16c-.12-.08-.36-.2-.64-.2-.24-.12-.64 0-1.04 0m1.2-.919c-.28 0-.4 0-.72.16m0-1.399c-.12-.12-.799.28-.959.36m-3.678-4.318c-.24.12-.36.24-.48.48m-11.033 3.198c.24 0 .44.16.64.16m2.398-3.039c0-.16.12 0 .12.12.12.12.24.36.36.6m8.475 15.111c-.2-.08-.08-.32-.2-.56-.12-.24-.32-.48-.44-.72m1.52.8c0-.16-.12-.36-.4-.48m1.359 0s-.52-.76-.64-1.039m-2.878 2.718c-.32-.24-.32-.6-.32-.879m-6.796-.32c.32-.12.48-.8.48-1.2m.48 1.68c0-.08.16-.2.16-.32m-2.319-.799c.12-.24.12-.48.32-.72m-2.319-1.439c.16-.24.4-.48.64-.72m-2.159-3.118c.32-.16.44-.16.72-.32" fill="none" stroke="#343434" stroke-width=".48" stroke-linecap="round" stroke-miterlimit="8"/><path d="M30.581 218.508c2.719-17.63 17.91-84.949 89.666-132.12 19.268-12.593 30.142-14.432 50.45-31.621 20.147-17.27 35.978-21.587 42.894-16.79 6.955 4.837-1.96 27.064-5.917 36.938-3.957 9.754-30.421 125.204-145.312 179.89l-.24.28s1.2 1.24.6 3.918l.36-.12c13.991-5.277 98.7-41.855 138.156-151.388 6.676-18.749 11.113-27.783 12.632-32.46 1.48-4.558 8.995-14.951 8.875-34.46 0-4.917 1.12-4.917 2.998-7.515 1.72-2.598 1.36-5.197 1.08-6.916-.24-1.719 6.436-7.915 8.035-8.635l-4.558-4.357s-4.557 8.555-6.436 10.634c0 0-4.077-.88-6.676 1.239-2.598 2.119-2.718 4.957-5.556 5.197-2.958.12-25.225 2.198-38.097 17.03-12.872 14.83-43.054 29.142-54.407 35.578-10.754 6.036-81.63 50.849-92.784 134.079z" fill="#bcce6f" fill-rule="evenodd"/><path d="M61.643 256.764c13.871-5.316 98.58-41.854 138.036-151.388 6.796-18.669 11.233-27.663 12.592-32.38 1.52-4.677 9.035-14.911 9.035-34.58 0-4.916 1.12-4.796 2.838-7.515 1.879-2.598 1.52-5.197 1.24-6.796-.24-1.719 6.316-8.035 8.035-8.754l-4.558-4.358s-4.557 8.555-6.436 10.634c0 0-4.077-.72-6.676 1.24-2.598 2.118-2.718 5.076-5.676 5.196-2.839.12-25.225 2.199-38.097 17.03-12.872 14.83-43.054 29.142-54.407 35.578-11.273 6.276-88.187 55.087-93.743 145.832 0 0-.28.52.24.28.6-.28 1.479-2.479 1.479-4.598 0-1.958-.24-4.197.76-4.677 1.078-.36 2.438.24 2.438.24l.12-.24c2.358-15.95 16.59-85.108 89.945-133.12 19.268-12.751 30.142-14.47 50.33-31.74 20.267-17.19 36.098-21.507 43.013-16.83 6.956 4.837-2.078 27.064-6.036 36.938-3.958 9.874-30.421 125.364-145.192 180.05l-.24.16s1.24 1.36.6 4.038l.36-.24z" fill="#a0c44a" fill-rule="evenodd"/><path d="M61.643 256.764c13.871-5.316 98.58-41.854 138.036-151.388 6.796-18.669 11.233-27.663 12.592-32.38 1.52-4.677 9.035-14.911 9.035-34.58 0-4.916 1.12-4.796 2.838-7.515 1.879-2.598 1.52-5.197 1.24-6.796-.24-1.719 6.316-8.035 8.035-8.754l-4.558-4.358s-4.557 8.555-6.436 10.634c0 0-4.077-.72-6.676 1.24-2.598 2.118-2.718 5.076-5.676 5.196-2.839.12-25.225 2.199-38.097 17.03-12.872 14.83-43.054 29.142-54.407 35.578-11.273 6.276-88.187 55.087-93.743 145.832 0 0-.28.52.24.28.6-.28 1.479-2.479 1.479-4.598 0-1.958-.24-4.197.76-4.677 1.078-.36 2.438.24 2.438.24l.12-.24c2.358-15.95 16.59-85.108 89.945-133.12 19.268-12.751 30.142-14.47 50.33-31.74 20.267-17.19 36.098-21.507 43.013-16.83 6.956 4.837-2.078 27.064-6.036 36.938-3.958 9.874-30.421 125.364-145.192 180.05l-.24.16s1.24 1.36.6 4.038l.36-.24z" fill="none" stroke="#343434" stroke-width=".48" stroke-miterlimit="8"/><path clip-path="url(#a)" d="M234.658 8.795s-13.592-6.916-15.71-4.438c-2.12 2.479-4.558 7.156-12.753 9.155-8.155 1.959-28.663 10.713-36.218 18.748-7.675 7.916-12.752 5.677-21.787 8.156-8.994 2.478-125.764-.36-143.953 209.712-2.358 27.024 8.555 13.592 8.555 13.592s5.797-3.598 5.197-6.796c-.64-3.318 1.48-3.957 3.558-4.917 2.239-1 4.357-3.358 2.359-4.477-1.96-1.24-3.318-.48-4.318 1.48-1 1.998-3.078 4.197-4.717 1.998-1.719-2.359 3.118-7.396.64-8.395-2.479-1-6.077 5.197-7.556 3.078-1.479-2.079 3.238-6.276 3.718-8.994.48-2.839.72-3.358 2.718-2.719 1.96.72 1.72 7.875 4.717 5.917 2.959-1.96 5.677-2.479 1.72-5.197-3.958-2.839-8.915-10.594-5.677-13.712 3.318-3.078 5.157-4.917 5.676-.84.48 4.198 1 8.156 3.438 6.677 2.479-1.48-.24-10.274 3.118-9.395 3.318.72 4.797 2.719 3.438 7.036-1.359 4.317-5.037 4.797-5.796 6.436-.6 1.6-1.48 3.318.76 3.558 2.078.36 1.718-2.599 3.557-2.479 1.88.24 3.478 1.88.88 4.318-2.719 2.478-4.957 5.556-2.959 7.036 1.96 1.479 3.958-.12 4.438-2.959.48-2.718.24-5.916 2.718-6.036 2.479-.12 3.478 2.359 3.958-.36.52-2.598 2.358-3.478 0-5.676-2.239-2.359-2.079-6.197.88-5.797 2.957.36 2.837-.16 3.957 1.839 1.12 1.959 6.436-1.999 7.915-.88 1.48 1.12 4.437 2.599.36 4.838-4.198 2.078-7.795 2.438-8.915 5.037-1.24 2.598-4.317 4.957-1.479 5.316 2.718.24 5.197 1 3.238 2.719-1.999 1.839-3.957 1.959-6.436 2.358-2.478.36-4.077-1.599-3.598 1.96.48 3.597 0 5.076 2.958 3.077 2.999-1.959 3.358-2.079 5.077-3.957 1.88-1.72 2.479-3.198 5.437-2.959 2.998.4 7.316-2.438 7.675 2.959.24 5.436-7.795 6.915-5.796 9.634 1.959 2.598 2.958 5.077 5.317 2.238 2.198-2.718 2.958-5.916 5.077-4.197 2.078 1.599 2.078 6.036-1.88 7.156-3.957 1.239-6.555 3.837-9.993 1.479-3.478-2.239-1.999-4.917-2.998-6.916-.96-1.959-1.48-4.078-2.599-1.48-1.24 2.72-.72 6.157-2.718 4.798-1.959-1.32-2.199-5.797-3.438-4.557-1.12 1.119-2.479 3.478-.12 5.556 2.319 2.119 3.318 6.916 0 6.556-3.358-.24-6.436 2.199-6.556-1.239-.28-3.438-.28-5.197-1.36-4.797-1.119.36-2.997 6.396-3.477 2.558-.48-3.677-1-4.677 1.839-4.917 2.718-.12 5.436-.64 5.197-2.598-.12-1.959-1.12-2.478-3.718-2.359-2.718.28-3.798-.24-4.317 2.24-.48 2.478-1.6 5.076-3.598 4.916-1.96-.24-9.994 12.992-4.677 13.232 5.196.24 203.556-19.868 203.436-177.013-.12-26.184 12.233-26.304 14.831-43.094 2.599-16.91 2.119-18.628 5.197-23.305 3.118-4.718 5.437-5.437 3.358-9.874-2.119-4.358-7.795-10.034-7.795-10.034" fill="none" stroke="#343434" stroke-width=".48" stroke-miterlimit="8"/><path clip-path="url(#a)" d="M242.893 18.988c-1.36 1.84-6.916 0-12.353-4.077-5.436-4.197-8.794-9.035-7.275-10.993 1.479-1.88 7.035 0 12.472 4.197 5.437 4.078 8.635 9.035 7.156 10.873z" fill="#d2de88" fill-rule="evenodd"/><path clip-path="url(#a)" d="M242.893 18.988c-1.36 1.84-6.916 0-12.353-4.077-5.436-4.197-8.794-9.035-7.275-10.993 1.479-1.88 7.035 0 12.472 4.197 5.437 4.078 8.635 9.035 7.156 10.873" fill="none" stroke="#343434" stroke-width=".48" stroke-miterlimit="8"/><path d="M242.173 14.871c-1.12 1.48-5.197.4-8.914-2.479-3.878-2.838-5.997-6.436-4.718-8.035 1.12-1.519 5.077-.4 8.915 2.479 3.878 2.958 5.956 6.556 4.717 8.035z" fill="#d2de88" fill-rule="evenodd"/><path clip-path="url(#a)" d="M242.173 14.871c-1.12 1.48-5.197.4-8.914-2.479-3.878-2.838-5.997-6.436-4.718-8.035 1.12-1.519 5.077-.4 8.915 2.479 3.878 2.958 5.956 6.556 4.717 8.035" fill="none" stroke="#343434" stroke-width=".48" stroke-miterlimit="8"/><path d="M48.33 199.879s4.958-15.43 14.752-21.987c9.874-6.676 10.154-7.155 16.43-8.874 6.436-1.72 13.991-2.839 17.23-7.036 3.197-4.198 4.916-3.958 5.916-2.958 1 .959-2.719 8.275-1.959 13.192.72 4.957 3.438 15.67-.52 23.066-3.957 7.315-11.992 18.788-11.992 18.788l2.118.96s9.874-11.234 12.593-19.229c2.598-8.155 1.519-17.43.999-21.866-.48-4.438-1.24-11.713 2.598-16.91 3.958-5.157 7.436-7.276 11.633-9.754 4.078-2.439 8.795-4.198 10.514-10.594 1.759-6.316 3.238-8.275 5.956-10.513 2.599-2.2 6.037-5.157 8.275-10.474 2.24-5.437 5.197-10.354 9.275-11.993 4.237-1.719 7.675-6.876 11.633-14.671 3.837-7.915 12.632-24.305 28.942-29.022 0 0-14.71 2.718-24.585 14.71-9.794 12.073-8.315 17.15-14.751 23.067-6.316 5.916-12.992 9.994-16.19 17.43-3.118 7.275-10.274 12.951-12.992 18.868-2.719 5.796-8.035 8.515-13.752 11.233-5.677 2.718-7.036 8.755-12.472 12.472-5.477 3.678-3.478 5.917-19.948 9.235-16.43 3.478-26.944 17.43-29.702 32.86z" fill="#749a30" fill-rule="evenodd"/><path d="M48.33 199.879s4.958-15.43 14.752-21.987c9.874-6.676 10.154-7.155 16.43-8.874 6.436-1.72 13.991-2.839 17.23-7.036 3.197-4.198 4.916-3.958 5.916-2.958 1 .959-2.719 8.275-1.959 13.192.72 4.957 3.438 15.67-.52 23.066-3.957 7.315-11.992 18.788-11.992 18.788l2.118.96s9.874-11.234 12.593-19.229c2.598-8.155 1.519-17.43.999-21.866-.48-4.438-1.24-11.713 2.598-16.91 3.958-5.157 7.436-7.276 11.633-9.754 4.078-2.439 8.795-4.198 10.514-10.594 1.759-6.316 3.238-8.275 5.956-10.513 2.599-2.2 6.037-5.157 8.275-10.474 2.24-5.437 5.197-10.354 9.275-11.993 4.237-1.719 7.675-6.876 11.633-14.671 3.837-7.915 12.632-24.305 28.942-29.022 0 0-14.71 2.718-24.585 14.71-9.794 12.073-8.315 17.15-14.751 23.067-6.316 5.916-12.992 9.994-16.19 17.43-3.118 7.275-10.274 12.951-12.992 18.868-2.719 5.796-8.035 8.515-13.752 11.233-5.677 2.718-7.036 8.755-12.472 12.472-5.477 3.678-3.478 5.917-19.948 9.235-16.43 3.478-26.944 17.43-29.702 32.86" fill="none" stroke="#343434" stroke-width=".48" stroke-miterlimit="8"/><path d="M50.05 190.604c1.879-2.838 2.598-9.274.52-11.992-1.88-2.359-7.556-1.12-6.437 3.198.24 1.12 2.599 2.119 2.479 2.998-.36 2.079-2.479-.28-2.839-.28-1.239-.36-1.998-1.719-2.358.28-.36 2.319 2.358 2.079 3.438 2.838 4.117 2.559-1.48 1.48-3.438 2.199-1.72.76-2.239 1.719-1.12 3.198 1.36 1.879 3.199.12 4.558 1 3.118 2.118.16 6.915-2.838 7.035-4.798.24-2.839-4.677-4.558-7.275-2.358-3.318-5.556.24-5.197 3.318.64 3.837 7.676 3.597 7.316 5.796-.28 1.24-9.554 4.957-2.998 6.196 2.478.48 6.076-5.197 7.555-3.717.88.999-1.479 3.198-.36 4.197 2.2 2.119 2.479-2.079 2.719-2.718.6-1 1.12-2.199 2.718-1.84 2.199.6.6 2.08 1.84 3.319 1.118 1 1.998-.36 2.957.24 1.88.999.52 1.359.24 3.477-.48 3.558 1.999 2.2 3.718 3.678.24.28.4 1.52.4 1.88 2.198 1.478 3.198-1.24 5.556-.76.36 1.599 2.319 4.437 4.318 4.317 1.239-.12 3.957-6.036 5.676-2.079 1.24 2.958-4.317 6.276-4.317 8.755 0 4.437 5.437 1.12 7.675 1.599-.28 3.078-3.957 3.838-5.317 6.036-1.359 2.479.36 5.677 3.438 5.077 4.478-.88.24-5.437 2.479-7.635 2.358-2.359 3.598 1.2 4.837 2.438 2.438 2.479 3.198 1.88 3.438-1.479.24-4.677-5.557-7.275-5.317-11.353.12-2.718 5.677-4.797 6.676-1.959.88 2.479-4.557 5.317-2.479 7.756 2.24 1.359 2.359-.96 3.838-.96 2.599 0 .64 2.599 1 3.918 1.359 4.477 8.754-1.84 3.837-5.277-1.239-.88-3.957-.88-3.718-2.718.12-1.88 3.478-1.72 3.958-3.598 1.12-3.798-5.437-8.275-8.635-7.276-3.118.88-2.878 4.677-4.837 6.796-3.837 4.198-2.718-2.478-3.837-4.197-2.24-3.198-5.437-.76-7.516 1.119-3.238 2.718-3.358 1.24-5.956-1.48-2.958-2.957-6.796.36-6.676-4.836 0-3.558 4.717-7.516-1.959-8.275-3.718-.36-6.076 2.478-6.316-2.958-.12-2.599.76-5.917 1.839-7.996z" fill="#91b538" fill-rule="evenodd"/><path d="M50.05 190.604c1.879-2.838 2.598-9.274.52-11.992-1.88-2.359-7.556-1.12-6.437 3.198.24 1.12 2.599 2.119 2.479 2.998-.36 2.079-2.479-.28-2.839-.28-1.239-.36-1.998-1.719-2.358.28-.36 2.319 2.358 2.079 3.438 2.838 4.117 2.559-1.48 1.48-3.438 2.199-1.72.76-2.239 1.719-1.12 3.198 1.36 1.879 3.199.12 4.558 1 3.118 2.118.16 6.915-2.838 7.035-4.798.24-2.839-4.677-4.558-7.275-2.358-3.318-5.556.24-5.197 3.318.64 3.837 7.676 3.597 7.316 5.796-.28 1.24-9.554 4.957-2.998 6.196 2.478.48 6.076-5.197 7.555-3.717.88.999-1.479 3.198-.36 4.197 2.2 2.119 2.479-2.079 2.719-2.718.6-1 1.12-2.199 2.718-1.84 2.199.6.6 2.08 1.84 3.319 1.118 1 1.998-.36 2.957.24 1.88.999.52 1.359.24 3.477-.48 3.558 1.999 2.2 3.718 3.678.24.28.4 1.52.4 1.88 2.198 1.478 3.198-1.24 5.556-.76.36 1.599 2.319 4.437 4.318 4.317 1.239-.12 3.957-6.036 5.676-2.079 1.24 2.958-4.317 6.276-4.317 8.755 0 4.437 5.437 1.12 7.675 1.599-.28 3.078-3.957 3.838-5.317 6.036-1.359 2.479.36 5.677 3.438 5.077 4.478-.88.24-5.437 2.479-7.635 2.358-2.359 3.598 1.2 4.837 2.438 2.438 2.479 3.198 1.88 3.438-1.479.24-4.677-5.557-7.275-5.317-11.353.12-2.718 5.677-4.797 6.676-1.959.88 2.479-4.557 5.317-2.479 7.756 2.24 1.359 2.359-.96 3.838-.96 2.599 0 .64 2.599 1 3.918 1.359 4.477 8.754-1.84 3.837-5.277-1.239-.88-3.957-.88-3.718-2.718.12-1.88 3.478-1.72 3.958-3.598 1.12-3.798-5.437-8.275-8.635-7.276-3.118.88-2.878 4.677-4.837 6.796-3.837 4.198-2.718-2.478-3.837-4.197-2.24-3.198-5.437-.76-7.516 1.119-3.238 2.718-3.358 1.24-5.956-1.48-2.958-2.957-6.796.36-6.676-4.836 0-3.558 4.717-7.516-1.959-8.275-3.718-.36-6.076 2.478-6.316-2.958-.12-2.599.76-5.917 1.839-7.996" fill="none" stroke="#fcfdfb" stroke-width=".48" stroke-miterlimit="8"/><path d="M50.05 190.604c1.879-2.838 2.598-9.274.52-11.992-1.88-2.359-7.556-1.12-6.437 3.198.24 1.12 2.599 2.119 2.479 2.998-.36 2.079-2.479-.28-2.839-.28-1.239-.36-1.998-1.719-2.358.28-.36 2.319 2.358 2.079 3.438 2.838 4.117 2.559-1.48 1.48-3.438 2.199-1.72.76-2.239 1.719-1.12 3.198 1.36 1.879 3.199.12 4.558 1 3.118 2.118.16 6.915-2.838 7.035-4.798.24-2.839-4.677-4.558-7.275-2.358-3.318-5.556.24-5.197 3.318.64 3.837 7.676 3.597 7.316 5.796-.28 1.24-9.554 4.957-2.998 6.196 2.478.48 6.076-5.197 7.555-3.717.88.999-1.479 3.198-.36 4.197 2.2 2.119 2.479-2.079 2.719-2.718.6-1 1.12-2.199 2.718-1.84 2.199.6.6 2.08 1.84 3.319 1.118 1 1.998-.36 2.957.24 1.88.999.52 1.359.24 3.477-.48 3.558 1.999 2.2 3.718 3.678.24.28.4 1.52.4 1.88 2.198 1.478 3.198-1.24 5.556-.76.36 1.599 2.319 4.437 4.318 4.317 1.239-.12 3.957-6.036 5.676-2.079 1.24 2.958-4.317 6.276-4.317 8.755 0 4.437 5.437 1.12 7.675 1.599-.28 3.078-3.957 3.838-5.317 6.036-1.359 2.479.36 5.677 3.438 5.077 4.478-.88.24-5.437 2.479-7.635 2.358-2.359 3.598 1.2 4.837 2.438 2.438 2.479 3.198 1.88 3.438-1.479.24-4.677-5.557-7.275-5.317-11.353.12-2.718 5.677-4.797 6.676-1.959.88 2.479-4.557 5.317-2.479 7.756 2.24 1.359 2.359-.96 3.838-.96 2.599 0 .64 2.599 1 3.918 1.359 4.477 8.754-1.84 3.837-5.277-1.239-.88-3.957-.88-3.718-2.718.12-1.88 3.478-1.72 3.958-3.598 1.12-3.798-5.437-8.275-8.635-7.276-3.118.88-2.878 4.677-4.837 6.796-3.837 4.198-2.718-2.478-3.837-4.197-2.24-3.198-5.437-.76-7.516 1.119-3.238 2.718-3.358 1.24-5.956-1.48-2.958-2.957-6.796.36-6.676-4.836 0-3.558 4.717-7.516-1.959-8.275-3.718-.36-6.076 2.478-6.316-2.958-.12-2.599.76-5.917 1.839-7.996" fill="none" stroke="#fcfdfb" stroke-width=".48" stroke-miterlimit="8"/><path d="M231.98 5.037c-.4 1.12.24 2.478.839 3.478.88 1.519 1.879 3.518 3.238 4.477-1.839-1.12-4.078-3.078-5.357-4.957-.72-1-1.999-3.518.4-3.238zm-6.437-.8s-1.879-.52-1.879 1c0 1.359 1.64 4.797 6.876 9.114 0 0-9.514-10.114-4.997-10.114zm-3.957 1.04s-1.48-.28-2.319.72c-.76.879-4.717 6.675-8.435 7.795-3.718 1.119-21.787 5.956-32.58 14.231 0 0 10.034-5.557 19.468-7.795 9.394-2.319 16.83-4.078 19.308-8.395 2.599-4.358 2.12-5.717 4.318-6.076zM5.876 258.843s1.52-79.272 33.66-136.877c0 0-24.345 51.649-33.66 136.877zM223.904 21.307c-.84 2.718-2.318 2.239-4.677 2.998-2.318.6-3.198 2.079-4.677 3.798-3.318 4.237-10.474 2.598-14.951 5.437 3.358-.84 6.796-1.72 10.394-1.72 2.718 0 3.438-.24 5.436-2.078 1.72-1.879 2.679-2.479 5.037-3.478 1.96-1 2.12-2.239 2.839-4.197zm-9.674 13.272c2.798 1.839 3.038 4.717 3.038 7.915.84-2.198 1.44-9.194-2.918-7.675-.28 0 .24-.12.24-.24z" fill="#d8e294" fill-rule="evenodd"/><path d="M231.1 5.157s-1.839.76 1.44 4.397c0 0-2.52-2.998-1.44-4.397zm-5.397-1.119s-4.277-1.04 1.32 6.636c0 0-4.118-7.276-1.32-6.636zm-52.088 56.565c-.12-.64-1.959-1.239-2.719-1.359-.879-.28-1.759 0-2.598.36-1.999 1.12-2.518 3.678-1.24 5.517-.16-1.84-.16-3.918 1.96-4.678.76-.24 1.758-.48 2.638-.48.72.12 1.24.24 1.959.64zm-19.348 8.555c1.798-1 4.957-1.16 5.836 1.16-1-.36-1.879-1.16-3.038-1.4-.76-.12-2.399-.12-2.798.24zm30.301-10.953c.76-.96 2.519-1.24 3.638-1.24 1.36 0 2.359.76 2.838 1.84-1.479-1.84-3.718-1.32-5.836-.96zm1.04 26.943c2.158 1 4.757 0 5.116-2.518 0 1.519-.24 2.638-1.838 3.038-1 .12-2.12.12-2.879-.4zm-14.712-6.756c1.36-.12 2.599-1.319 2.719-2.558 0 .76 0 1.839-.6 2.319-.36.48-1.599.96-2.119.6zm-25.824 11.753c.16-1.958 2.599-4.157 4.437-4.637 2.08-.4 4.038 1.6 5.237 3.078-1.959-1.239-3.398-2.598-5.756-2.238-2.079.24-3.038 1.839-3.758 3.677zm23.186 24.185s8.195 3.239 11.033-5.876c0 0-1.359 9.834-11.033 5.877zm-6.316 15.751s-5.997 5.517-9.994-1.479c0 0 3.158 8.315 9.994 1.48zm-34.459-37.217s3.358-4.238 9.434.96c0 0-5.677-3.799-9.434-.96zm-20.388 15.111s6.396-5.837 13.512-1.32c0 0-5.517-3.038-13.512 1.32zm25.185 42.894s6.476 6.596 11.673-2.12c0 0-4.318 10.315-11.673 2.12zm-27.983-18.589s3.758-5.837 10.314-.12c0 0-5.437-4.198-10.314.12zm-20.148 11.113s4.757-5.756 13.192 2.079c0 0-7.316-5.957-13.192-2.079zm28.783 27.184s6.516 5.556 10.873-1.52c0 0-4.237 8.555-10.873 1.52zm-26.305 9.953s6.716 1.36 9.195-2.118c0 0-3.318 5.197-9.195 2.119zm-14.95.52s5.236-5.436 12.312-1.319c0 0-5.956-2.518-12.312 1.32zM224.224 20.827l-1.839 1.76s-4.437-1.76-7.675 2.558c0 0 4.077-4.038 7.795-1.6l1.72-2.718zM198.4 31.301s-14.711 2.598-24.985 13.632c-10.274 11.113-26.704 21.986-33.3 24.585 0 0 12.512-5.677 21.067-12.593 8.395-6.915 19.788-21.906 37.218-25.624zm17.03 11.673s-.6 12.992-7.276 26.704c-3.558 7.315-10.834 36.738-18.23 49.57 0 0 7.796-16.19 12.953-30.622 5.037-14.59 14.391-36.737 12.552-45.652zm-148.07 82.51s-36.74 40.735-41.337 88.746c0 0 6.596-43.294 41.335-88.746zm10.273 119.807s44.533-21.107 81.99-73.195c0 0-29.422 49.77-82.51 73.315zm-29.942-98.54s1.759-29.222 22.307-51.649c0 0-16.23 16.75-22.307 51.65zm88.746 63.961s34.62-9.514 49.81-39.656c0 0-11.113 29.902-49.81 39.656zm-81.99 5.198s-.28 2.877.36 2.638c.64-.36 2.878-1.2 2.878-1.2s-4.157 3.358-4.157 1.2c.16-2.28.919-2.639.919-2.639zm3.238-35.34s3.598-7.395 18.469-12.632c0 0-12.912 4.717-18.469 12.633zm45.373 4.478s.48 8.315-7.236 18.709c0 0 8.315-8.036 7.236-18.71zm2.278-34.139s.16-.12.16-.24c.6-.84 3.158-4.318 7.476-5.437 4.797-1.24 11.313-7.555 12.512-12.153 0 0-.48 4.717-6.116 9.435-5.677 4.837-7.636 1.479-14.032 8.395zm66.76-79.232s-7.556 6.795-11.753 16.79c-4.358 9.873-9.434 12.072-11.433 13.671 0 0 6.476-2.199 11.073-11.193 4.437-8.995 6.196-12.592 12.113-19.268z" fill="#fff" fill-rule="evenodd"/><path d="M18.749 220.027c-3.198.12-2.799 5.556-1.72 7.515.6 1.12 1.48 1.839 2.08 2.958.48.72.48 2.679 1.958 2.319 1.44-.36.48-1.959.12-2.838-.6-1.72-1.24-3.318-1-5.157.16-1.48.16-2.079-.599-3.438-.24-.6-.96-2.359-1.719-1.24zm10.393-.76c-1.199 0-2.398-1.36-2.758.64-.24 1.599 0 3.717-.12 5.316 0 .48-.24 2.2.6 2.08.6 0 1.439-2.839 1.799-3.559.72-.999 1.199-1.479.84-2.838-.24-.64-.72-1.639-1.44-1.759zm-6.076 15.111c1.36 2.079 2.239 2.438 4.237 1.08.36-.36.84-1.24 1.48-.72 1.079 1.08-1.36 2.078-1.76 2.318-1.478 1-2.318 3.558-2.598 5.157-.12 1 .28 1.12-.72 1.48-.759.4-1.718-.36-2.598-.24-1.599.12-1.599 3.078-3.238 3.437-1.359.12-1.359-1.319-.96-2.198.48-1 1.84-1.84 2.839-2.599 2.079-1.719 4.677-3.198 3.718-6.116-.28-.52-.52-.76-.64-1.24h.36zm-8.675 1.999c-.72-2-1.599.12-1.719 1.12-.24.839-.36 1.598-.84 2.438-.519.88-.519.76-1.238 1.599-.48.52-2.24 3.318-.36 2.238.84-.52 1.08-1.719 1.839-2.358.72-.6 1.599-.6 2.438-.36 0-1.72-.36-3.198-.84-4.437zm7.356 16.31c-.64.84-1.76.84-2.399 1.599-.52.72-.52 2.598.64 2.958 1.399.48 1.399-1.599 1.759-2.478.4-.6 1.639-2.239-.12-1.84zm3.718-8.915c.879 1.96-3.119.6-1.72 2.599.36.6 1.48.88 1.72 1.599.36.76.24 1.479.24 2.118.759.36 1.119-.12 1.878-.12.76.12 1.48.48 2.239.72.48 0 1.12 0 1.599.28.64.24.88 1.24 1.519 1.479 1.959.72.36-2.718.12-3.478-.64-1.599-.52-3.598.12-5.197.6-1.879 1.24-2.118 3.078-2.238.88 0 4.717.6 4.357-1.24-.24-.76-2.838-.64-3.597-1.759-.88-1.119-1.72-3.358-3.119-1.479-.72 1-.72 2.839-1.239 3.958-.36 1.12-1 2.239-1.839 2.998-.76.6-1.998 1.48-2.998 1.48-1.24 0-1.12-1.12-1.999-1.36zm16.829-18.748c-.76-.72-2.518-1.72-3.518-1-1.639 1.24.64 3.118 1.24 4.358.64 1.359.4 2.118-.24 3.597-.12.52-.64 1.64-.36 2.239.72 1.36 1.12-1 1.48-1.719 1.238-2.758 2.997-4.117 5.876-4.997 1.119-.24 4.597-.72 4.477-2.478-.24-2-3.598.4-4.597.76-1.24.359-2.879.999-3.998 0-.24-.12-.36-.36-.52-.64zm-8.634 30.861c-.12 1.479.6 3.278 1.599 4.397.6.72 1.559 1.08 1.559 2.279-1.08.36-2.439.48-3.558.6-2.079 0-1.44-.72-1.68-2.399-.159-1.36-1.878-1.48-1.358-2.798.36-.84 2.318-1.68 3.198-2.08zm3.158-5.117c2.638-.48 4.517-2.319 5.996-4.197 1.24-1.6 1.879-2.839 3.838-3.079 1.999-.36 8.714-.64 5.996 3.438-1.36 2.12-4.237 2.599-5.357 5.077-.88 1.72-.24 3.078 1 4.597.36.48 1 1.2 1.479 1.6.28.24 1.399.48 1.519.839.24.88-.52 1.24-1.12 1.36-.999.12-1.878-.48-2.358-1.36-1-1.24-1.639-3.318-1.879-4.797-.24-1.24.48-3.358-.4-4.317-1.119-1.12-3.238-.12-4.197.72-1.28.998-.64 3.237-1.879 3.957-1.12-1-1.24-2.839-2.358-3.718zm22.866 3.798c-1.12-2.359-2.199.52-2.958 1.479-.36.64-3.598 2.638-3.079 3.478.24.36 4.798-1 5.437-1.36.96-.719 1.08-2.358.48-3.597zm-34.659-27.544c-.64.84-1.4 1.24-2.679 1.24-.16.84.24 1.599.24 2.438 1.04 0 1.28-1.08 1.92-1.719.399-.36 1.039-.6 1.518-1-.12-.359-.36-.719-.76-1.118z" fill="#728422" fill-rule="evenodd"/><path d="M38.697 236.137c-.12 0-.24-.4-.12.12-1.6.52-.84 1.24-.24 2.119.36-.6 1.199-1.76.36-2.24zm-23.866 2.039c.52.96.4 2.038.52 3.158 0 .24 0 .24.24.24.36.12.6.12.959.48.12.24.24.599.52.719.36.24.36 0 .6-.24.24-.36.479-.48.839-.72.12-.12.48-.24.48-.48-.36 0-.6.12-1.08.12-.48-.12-1-.36-1.359-.839-.6-.76-1.08-1.959-1.56-2.718z" fill="#728422" fill-rule="evenodd"/><path d="M75.674 220.227c.6 1.239-.88 2.998-1.599 3.837-.76.88-2.079 1.999-2.079 3.238-.16 2.079 2.199.6 3.318.36 1.48-.36 2.08.12 3.198 1 .48.36 1.08.48 1.6.839.719.64.959 1.759 1.598 2.478.48.76 2.919 3.198 2.439 1.12-.6-2.599-3.438-4.438-4.557-6.796-.48-.88-.72-1.839-.84-2.838-.12-.76.12-.64-.64-1.12-.36-.24-1.598-1.359-1.838-1.359zm.8 12.472c-.6 1.04-1.72 2.159-2.599 2.918-.48.4-.84.52-.96 1.04-.279.76.12 1.759.6 2.158.64.48 1.48.6 2 0 .599-.92-.12-1.399-.12-2.278.12-1.16 1.079-1.92 1.079-3.198zm4.636-12.912c2.999-.76 2.48-6.196 6.477-5.317 2.478.48 4.837 2.838 3.318 5.317-.36.84-1.24 1.239-1.72 2.079-.359.879-.599 1.838-.239 2.718.88 1.839 3.358 1.959 4.437 3.438 1.24 1.599-1.239 4.677-2.078 3.078-.64-.96.6-2.199.12-3.438-.36-.72-1.12-1.24-2-1.36-1.119-.239-1.358.36-2.238.76-1.479.6-.96-1.239-.48-1.998.88-1.48 2.719-3.438 1.88-5.277-1.4-3.358-5.238-.64-7.196.36zm-32.42-40.895c-.879 0-2.318-.16-3.078.48-.84.599-.6 1.838-.12 2.558.88 1.12 1.72 1.719 2.08 3.198.239.84-.24 1.799-1.2 1.679.36.76.84 1.239.84 2.198-.12 1.12-.96 1.96-2.2 2.12-.599 0-2.678-1-2.918.12-.4 1.798 3.039.839 3.758 1.078.4.12.76.6 1.24.36.24-.12.839-1.959 1.079-2.438.76-1.72 1.599-3.038 1.839-4.997.24-1.6.48-4.917-1.08-5.877h-.12zm-13.032 14.871c-1.559.16-2.278 1.958-1.918 3.437.24.84.72 1.48 1.439 1.84.48.24 1.799 1.199 2.278 1.199.12-1.44.24-6.317-1.919-6.476zm10.594 5.437c-.12 1.159-2.199 2.758-3.198 3.277-.84.6-1.72.6-2.559 1.24-1.119.999-4.157 2.238-4.157 4.117-.16.6.12.72.72.6.36-.12.6-.6.959-.72.28-.12.76-.28 1-.4 1.598-.72 2.558-2.238 4.157-2.998.76-.36 1.599-.84 1.839.16.28.48-.36 2.479 0 2.718.28 0 1.599-3.118 1.719-3.717.24-1.28-.12-2.399-.12-3.518zm2.238 3.837c1 .12 2.639.96 3.119 1.839.24.6-.12 2.079.24 2.558.52.48 1.519-.36 1.998-.36.88-.12 1.24.48 1.88-.36.359-.479 1.079-2.078.719-2.718-.24-.6-1.72-.6-2.359-.72-.88-.12-1.839-.24-2.718-.359-.64 0-1.6-.52-2.239-.24zm6.836 8.715c-.52.6-.52 2.278.68 2.398 1.52.08-.68-1.439-.52-2.278zm3.119 3.078c0-.12-.28-.12 0-.28.84.52.6 1.759 1.359 2.239.36.24 1.719-.36 1.959-.72.72-1.12-1.96-1.519-2.839-1.519zm7.875 3.638c1 1.599 1.879 1.359 3.078.24.76-.76 1.599-1.48 2.478-2.12.72-.399 1.36-.639 1.96 0 .759.76 1.358 2.36 1.598 3.359-.24-1.24.24-2.879-.6-3.878-.759-.88-2.358-.88-3.317-.36-1 .48-1.6 1.12-2.359 1.76-.84.879-1.08 1.119-2.558 1.119z" fill="#819b2d" fill-rule="evenodd"/><path d="M64.96 166.659c-.4-.4-1.239-.12-1.598.36-.4.52-.24 1.479-.24 2.118.12.36.36 2.839 1.08 2.959.119 0 1.118-.6 1.238-.72.48-.36.96-.88 1.08-1.479.12-.52-.24-1.4-.48-1.879-.24-.76-.6-1.12-1.36-1.359zm4.838-1.599c-1 .24-.36 1.839-.24 2.478.24 1 .36 1.36 1.319.88.72-.36.96-.88.48-1.64-.24-.599-1.2-1.878-1.8-1.878zm-10.794 9.034c-.84 0-1.319 3.119-.48 3.119.24 0 .84-.72.96-.84.36-.24.68-.84.6-1.32 0-.359-.6-.839-1.08-.839zm3.998 4.518c-.64.6-1.879 1.959-1.12 2.598.24.24.72.36 1.12.48.24.28.6.52.84.88.519.48.999 1.119 1.358 1.598.6 1 .76 2 1 3.118 0 .48.24 1 .24 1.36.24.6.6.84 1.12 1.239.239.24.839.84 1.198.48.52-.36 0-1.36-.12-1.72-.6-1.878-.48-3.237-.12-5.076.24-1.36 1.12-2.599 1.84-3.718.4-.64.879-.88 1.598-1.12 1-.479.88-1.239 1.12-2.238.24-.96.6-2.718-.36-3.598-.36.28-.12 1-.12 1.4.12.599 0 1.239-.12 1.838-.12.6-.24 1.36-.52 1.999-.24.36-1.719 1.839-2.318 1.839-.64-.12-1.24-1.48-1.48-1.999-.24-.48-.24-.84-.36-1.24-.119-.359-.239-.599-.639-.599-.84 0 0 1.6 0 2.119 0 .72-.48 1.36-1.199 1.48-1 .239-2.239-.12-2.718-1z" fill="#788928" fill-rule="evenodd"/><path d="M63.641 188.406c-1.958.6-1.679 2.398-.6 3.638.84.84 2.04 2.518 3.359 2.278.72 0 .72-.96.24-1.559-.48-.72-1.44-.72-1.92-1.719-.359-.72.12-2.638-1.318-2.798z" fill="#829b31" fill-rule="evenodd"/><path d="M66.64 191.604c0 .4.88 1 1.119 1.24.4.519.52 1.238.12 1.758-.24.48-.6.6-.84.96-.4.4-.12.52.24.879 1 1 .24 2.079.48 3.318 0 .76.4 1.879 1.12 2.359.759.6 1.478.36 1.838-.48.24-1.12-.72-2.239-.48-3.358.24-.72.6-.36 1.24-.72.6-.24.48-1.12.72-1.599.759-1.239 2.598.96 3.357 1.36.6.24 1.08.6 1.72.719.719.24 1.478.12 2.078.48.64.16 1.599 1.119 1.599 1.759-.12.6-.96.84-1.48.959-.839.12-1.958-.12-2.837-.24-.48-.12-1.08-.12-1.48 0-.48.24-.72.64-1.199.76-1.24.6-2.478-1.12-3.238-2-.6-.719.52-.958 1.12-1.358 1.598-1.08.48-2.199-.36-3.198-1-.88-.76-2.359-2.119-2.839-.72-.12-2.079-.6-2.718-.48z" fill="#829b31" fill-rule="evenodd"/><path d="M76.194 201.598c-1-.28-1.48.84-2.359 1.12-.36.12-.72 0-1.239-.12-.24 0-.72-.16-1.08.12-.4.359.12 1.118.6 1.238.88.36 1.6 0 2.479-.24 1.12-.52 2.318-.879 3.558-.879 1.119 0 2.118 0 3.198.24 1.119.24 2.238.88 3.358 1.24 1.079.239 2.558-.24 2.678-1.6.12-1.24-.48-2.878-1.2-3.758-1.119-1.479-3.117-1.479-4.716-1.599-.24 0-.84-.16-.96.12-.12.24.6.88.72 1 .76.84 1.239 2.118.24 2.998-.84.6-1.84.96-2.799.72-.76-.12-1.879-.24-2.478-.48z" fill="#829b31" fill-rule="evenodd"/><path d="M238.216 14.191s4.637 1.68 3.557-1.679c0 0 .48 2.479-3.557 1.68zm-.8 3.918s5.996 2.878 5.397-1.28c0 0 .36 3.039-5.397 1.28zm4.917 2.239s1.72 1.998-2.358 5.556c-4.078 3.598-3.958 5.077-5.437 18.27 0 0-.64-11.834 2.119-16.151 2.598-4.197 5.676-3.598 5.676-7.675z" fill="#8fb23f" fill-rule="evenodd"/><path d="M85.828 253.167s106.336-25.665 131.04-133.36c0 0-25.184 97.821-131.04 133.36z" fill="#bfd578" fill-rule="evenodd"/></svg>