<svg xmlns="http://www.w3.org/2000/svg" version="1.0" viewBox="0 0 229.002 422.778"><path d="M106.695 70.357s3.838-4.997 13.712.32c9.594 4.997 11.233 7.356 7.396 11.473-3.838 4.078-21.108-11.793-21.108-11.793z" fill="#7b5719" fill-rule="evenodd"/><path d="M106.376 70.357s3.877-4.997 13.791.32c9.634 4.997 10.994 7.356 7.436 11.473-3.878 4.078-21.227-11.793-21.227-11.793" fill="none" stroke="#343434" stroke-width=".8" stroke-linecap="round" stroke-linejoin="round"/><path d="M226.942.76S94.662 143.713.76 416.628l8.235 4.677S72.676 206.955 226.942.76z" fill="#7b5719" fill-rule="evenodd"/><path d="M9.274 421.704S72.996 207.314 227.262.76c0 0-132.32 143.273-226.502 416.267" fill="none" stroke="#343434" stroke-width=".8" stroke-linecap="round" stroke-linejoin="round"/><path d="M123.405 78.672s-7.675-1.759-10.154-5.556c-2.758-3.838-13.991-5.597-14.271-1.76-.28 4.078.28 4.678-3.558 6.997-3.877 2.078-21.427 9.674-42.574 56.805-21.147 47.132-8.235 91.625 2.478 98.1 10.714 6.437 21.667-2.078 12.913 16.07-8.795 18.15-29.383 60.924-31.581 73.796 0 0 4.957-2.039 7.155 4.078 0 0 87.827-171.257 91.665-180.331 1.36-3.518-1.36-4.078-1.36-4.078s-5.236 1.44-4.956-3.837c0 0-1.36-6.117-4.398-4.957-2.998 1.16 11.274-26.944 4.678-40.416-1.64-3.518-1.08-5.836 1.119-6.995 2.159-1.2 4.117-8.795-7.156-7.916z" fill="#c2b688" fill-rule="evenodd"/><path d="M123.445 78.712s-7.675-1.759-10.154-5.556c-2.758-3.838-13.991-5.597-14.271-1.76-.28 4.078.28 4.678-3.558 6.996-3.878 2.08-21.427 9.675-42.574 56.806s-8.235 91.625 2.478 98.1c10.714 6.437 21.667-2.078 12.913 16.07-8.795 18.15-29.383 60.924-31.581 73.796 0 0 4.957-2.039 7.155 4.078 0 0 87.827-171.257 91.665-180.331 1.359-3.518-1.36-4.078-1.36-4.078s-5.236 1.44-4.956-3.837c0 0-1.36-6.117-4.398-4.957-2.998 1.16 11.274-26.944 4.678-40.416-1.64-3.518-1.08-5.836 1.119-6.996 2.159-1.199 4.117-8.794-7.156-7.915" fill="none" stroke="#343434" stroke-width="1.199" stroke-miterlimit="8"/><path d="M106.136 84.629c-14.272-4.717-49.77 33.06-56.366 76.074-6.876 43.014 1.679 58.524 13.232 60.003 11.513 1.44 12.072-14.95 21.707-15.51 9.354-.6 17.03-10.834 20.067-28.103 2.759-17.27 30.222-83.11 1.36-92.464z" fill="#b2a883" fill-rule="evenodd"/><path d="M117.169 86.827c-11.833-6.756-43.454 11.993-56.646 50.09-13.192 37.777-15.15 62.402-4.957 65.92 10.474 3.478 15.95-5.876 24.745-4.717 8.795 1.2 15.95-8.475 21.467-23.706 5.517-15.23 40.416-73.515 15.391-87.587z" fill="#b29d76" fill-rule="evenodd"/><path d="M101.698 163.86c-5.476 15.231-12.632 24.906-21.427 23.706-8.754-1.159-14.271 8.195-24.705 4.677-3.558-1.159-5.476-4.957-6.316-10.793-.84 11.993 1.12 19.308 6.316 21.067 10.434 3.478 15.95-5.876 24.705-4.717 8.795 1.2 15.95-8.475 21.427-23.666 4.398-12.312 27.464-51.528 23.906-74.075-2.479 22.547-20.028 53.288-23.906 63.802z" fill="#a5926f" fill-rule="evenodd"/><path d="M117.169 86.667c-11.833-6.755-43.454 11.993-56.646 49.73-13.192 38.017-15.15 62.602-4.957 66.12 10.474 3.478 15.95-5.876 24.745-4.677 8.795 1.16 15.95-8.795 21.467-23.985 5.517-15.231 40.416-73.156 15.391-87.188" fill="none" stroke="#343434" stroke-width=".32" stroke-linecap="round" stroke-linejoin="round" stroke-miterlimit="10"/><path d="M101.978 117.01c1.36 2.637-1.359 7.355-6.276 10.313-4.917 2.918-10.114 3.198-11.473.56-1.679-2.919 1.36-7.636 6.276-10.594 4.917-2.918 9.834-3.238 11.473-.28z" fill="#9e8b67" fill-rule="evenodd"/><path d="M123.165 98.26s-2.718-19.068-22.226-8.794c-15.95 8.195-35.459 26.943-44.533 64.72 0 0 23.625-51.248 48.09-60.603 15.671-6.156 18.67 4.677 18.67 4.677z" fill="#bca884" fill-rule="evenodd"/><path d="M79.512 109.654s21.427-30.782 40.375-18.75c0 0-15.63-10.553-40.375 18.75z" fill="#fff" fill-rule="evenodd"/><path d="M116.53 77.993s-1.92-1.16-2.999 1.479c-.84 2.638-.84 5.876-3.837 7.036-2.999 1.159-53.728 46.012-47.412 131.32 0 0-11.553-72.676 42.215-128.402 1.919-2.039 3.558-2.918 4.917-3.518 1.359-.56 3.038-3.198 3.038-4.677.24-1.76 1.919-4.997 4.077-3.238zm-11.514-7.156c-2.438-.6-4.637 0-4.917 2.638-.56 2.599-.56 4.678-2.998 6.117-2.478 1.479-4.957 2.638-7.116 4.397a26.599 26.599 0 0 0-4.397 3.758c-.56.88-3.038 3.798-3.038 4.957a47.186 47.186 0 0 1 8.515-7.875c2.478-1.72 5.197-2.319 7.675-3.478 2.479-1.48 4.118-2.639 3.838-5.837-.28-1.759-.56-5.277 2.198-4.397z" fill="#fff" fill-rule="evenodd"/><path d="M116.37 77.553c-2.799-.56-3.638-4.717-6.716-5.317 1.399.32 2.238 2.079 2.798 3.558.84 1.48.28 2.678.56 4.118.839-1.16 1.678-3.238 3.357-1.76z" fill="#fff" fill-rule="evenodd"/><path d="M127.643 80.391c1.918.32 4.397 1.48 2.758 3.838-1.36 2.039-3.038 2.638-3.318 5.277 0 2.358 1.12 4.397 1.679 6.756.8 2.358.8 5.276.56 7.955-.28 2.039-.56 3.798-1.12 5.836.56-3.518 1.36-7.315.56-10.833-.56-3.238-2.758-4.997-3.878-7.955a7.475 7.475 0 0 1 0-3.518c0-.6.56-1.16.84-1.76.56-.279 1.08-.599 1.359-.879.84-1.479-3.038-4.397.28-4.717z" fill="#a39b7a" fill-rule="evenodd"/><path d="M112.972 78.073c.28 1.199-.28 2.358-1.12 3.238-1.08.88-1.919.6-3.038 0 1.4 1.759 1.679 4.117-.28 5.556 1.68-.56 2.759-1.759 3.598-3.198.28-.88.84-1.759.84-2.358.28-.88.52-2.039.28-2.919z" fill="#fff" fill-rule="evenodd"/><path d="M113.491 78.872c0 1.2-.84 2.079-.56 3.238.56 1.2 1.4 2.079 1.92 2.958-.24-.28-.52-.6-1.08-.6-.28 0-.84.32-1.12.6-.559.28-1.079.28-1.638.6-.56.28-1.12.28-1.68.56 1.68-1.16 1.96-2.319 2.52-4.118.519-.88 1.079-1.759 1.358-2.638z" fill="#fff" fill-rule="evenodd"/><path d="M123.525 135.478s-7.475 23.146-12.192 33.66c0 0 9.154-28.703 12.712-39.257 0 0-1.08 4.118-.52 5.597zm-62.642 98.74s10.714 6.716 33.5-33.74l-21.667 39.297s-.56-4.118-5.517-4.398c-6.036-.28-6.316-1.159-6.316-1.159z" fill="#a39b7a" fill-rule="evenodd"/><path d="M127.323 138.356v.32c0 .88.24 5.557 6.556 5.836 0 0-2.998-.28-4.357.6-1.12.88-73.636 148.83-85.149 175.774 0 0-1.639-1.44-3.318-1.16 0 0 85.149-174.014 85.428-176.653 0 0-.56-2.958.84-4.717z" fill="#dbd0a1" fill-rule="evenodd"/><path d="M65.68 235.058c1.959.32 3.878 0 5.517 1.199.56.28.56 1.16.84 1.479.839.56.839-.32 1.079-1.2 1.399-2.358 2.478-4.716 3.598-7.075 1.119-2.359 2.478-4.118 3.837-6.196-.8.32-1.639 1.799-2.478 2.358-.8 1.2-1.64 2.359-2.479 3.558-1.08 1.16-1.919 2.638-3.278 3.518-1.919 1.48-3.877 2.359-6.076 2.359zm56.926-101.738.24 2.078-10.154 30.781s10.154-29.902 9.914-32.54z" fill="#847e64" fill-rule="evenodd"/><path d="M122.846 138.996c.56-1.2.56-2.958 1.958-3.878 1.92-.6 2.199 1.48 2.479 2.998.28 3.238 2.199 5.917 5.237 6.516h1.119s.56-.32.84-.32c.52.32.52.92.28 1.52-.56 2.038-2.24-.32-3.039-.92-1.12-.6-2.238-.6-3.038-1.479-1.12-.88-1.679-2.079-1.959-3.278 0-.88-.28-2.039-1.359-1.759-.84.28-1.12.88-2.239.88l-.28-.28zM38.257 321.125c1.12-.56 2.798-.28 3.877.32.28.28.84.88 1.4 1.16.56.879.56 1.159 1.119 0 1.08-2.639 2.478-4.997 3.558-7.316 1.399-2.638 2.238-4.997 3.318-7.356-1.36 2.359-2.759 4.997-4.398 7.356-.84 1.16-1.399 2.638-2.478 3.798-1.4 1.479-4.437-.6-6.396 1.759zm37.657-95.542s-15.91 17.03-24.705.92c0 0 6.316 13.791 24.705-.92zm-12.872-22.626c0-.32.32-.64.68-.64.4 0 .679.32.679.64 0 .36-.28.64-.68.64-.36 0-.68-.28-.68-.64zm-4.637.28c0-.4.4-.76.84-.76.479 0 .839.36.839.76 0 .44-.36.76-.84.76-.44 0-.84-.32-.84-.76zm2.478.16c0-.48.32-.92.68-.92.4 0 .68.44.68.92 0 .52-.28.92-.68.92-.36 0-.68-.4-.68-.92z" fill="#fff" fill-rule="evenodd"/><path d="M35.938 327.522c.56-1.4.56-3.438 2.479-3.438 1.879 0 4.077 1.439 4.317 3.438a9.88 9.88 0 0 1-1.879-1.72c-.84-.28-1.359-.28-2.198-.56-.52 0-1.36.28-1.6.88-.56.28-.56.84-1.119 1.4z" fill="#523a14" fill-rule="evenodd"/><path d="M35.219 329.04s-29.063 70.918-32.94 86.988c0 0 32.42-82.27 32.94-86.987zm94.822-190.364s43.654-70.357 57.086-85.308c0 0-48.571 69.757-55.966 87.627 0 0-1.68-1.44-1.12-2.32z" fill="#c08c24" fill-rule="evenodd"/><path d="M57.525 297.38s66.96-131.72 72.996-142.554c0 0-64.481 117.689-72.996 142.554z" fill="#847e64" fill-rule="evenodd"/><path d="M123.165 153.627s-66.12 138.836-71.636 148.47c0 0 68.079-143.753 71.636-148.47z" fill="#fff" fill-rule="evenodd"/></svg>