<svg xmlns="http://www.w3.org/2000/svg" version="1.0" viewBox="0 0 139.616 145.436"><defs><clipPath clipPathUnits="userSpaceOnUse" id="a"><path d="M2.159 6.396h139.435v145.512H2.16z"/></clipPath></defs><path d="M3.158 79.032c0-39.596 30.741-71.716 68.638-71.716 37.918 0 68.639 32.12 68.639 71.716 0 39.616-30.721 71.717-68.639 71.717-37.897 0-68.638-32.1-68.638-71.717z" fill="#e5e3e5" fill-rule="evenodd"/><path d="M85.308 17.47c26.684 6.356 46.732 31.62 46.732 61.402 0 35.039-27.084 63.242-60.383 63.242-33.08 0-60.184-28.203-60.184-63.242 0-29.342 19.208-53.907 45.033-60.963 0 0 8.315-2.278 8.974 6.156.42 8.175 1.28 19.329-4.277 19.329-5.757.22-17.93-.22-17.93 9.334.22 9.554 15.152 4.317 17.51 10.454 2.339 5.916 3.198 17.969 10.654 17.53 7.695-.24 7.895-10.475 8.535-17.53.859-6.816 15.17-2.04 15.37-12.053.22-10.014-13.012-7.515-17.929-9.094-5.117-1.38-2.978-12.073-2.558-17.07.86-6.136 7.475-8.195 10.453-7.496z" fill="#c3d0c4" fill-rule="evenodd"/><path clip-path="url(#a)" d="M3.158 79.032c0-39.596 30.741-71.716 68.638-71.716 37.918 0 68.639 32.12 68.639 71.716 0 39.616-30.721 71.717-68.639 71.717-37.897 0-68.638-32.1-68.638-71.717" fill="none" stroke="#343434" stroke-width=".8" stroke-miterlimit="8"/><path d="M85.308 17.47c26.684 6.356 46.732 31.62 46.732 61.402 0 35.039-27.084 63.242-60.383 63.242-33.08 0-60.184-28.203-60.184-63.242 0-29.342 19.208-53.907 45.033-60.963 0 0 8.315-2.278 8.974 6.156.42 8.175 1.28 19.329-4.277 19.329-5.757.22-17.93-.22-17.93 9.334.22 9.554 15.152 4.317 17.51 10.454 2.339 5.916 3.198 17.969 10.654 17.53 7.695-.24 7.895-10.475 8.535-17.53.859-6.816 15.17-2.04 15.37-12.053.22-10.014-13.012-7.515-17.929-9.094-5.117-1.38-2.978-12.073-2.558-17.07.86-6.136 7.475-8.195 10.453-7.496" fill="none" stroke="#fff" stroke-width=".8" stroke-miterlimit="8"/><path d="M34.14 43.134c-5.317 2.278-6.597 12.292-4.898 17.53.86 2.738 2.759 4.556 3.398 7.515.64 3.198-.64 3.657-1.699 6.376-5.317 13.212 20.828 14.79 13.612 28.223-.42-5.917-.86-9.774-5.317-13.872-3.817-3.418-8.714-4.557-9.354-10.713-.2-3.178 1.499-4.538 1.919-7.276.42-2.498-.64-4.557-1.5-7.056-2.118-5.017-2.758-10.693-.42-15.93a17.49 17.49 0 0 1 2.12-2.958zm-13.872 32.78c2.138 5.017 2.358 9.114 1.919 14.571-.42 6.816 3.417 11.373 8.534 14.791 2.979 1.82 5.537 3.858 7.456 6.816 1.699 2.958 1.699 5.457 2.758 8.635 1.7 5.237 5.757 5.916 8.515 9.554-5.736-1.819-8.295-6.596-9.994-12.492-1.719-5.477-4.057-7.976-8.315-11.393-3.618-2.499-9.794-6.357-10.234-11.813-.64-5.457 1.92-10.234.22-15.71-.22-.9-.64-1.58-.86-2.26zm84.988-30.462c1.72 7.056 2.779 16.83-5.556 19.109-2.979.68-5.557.44-6.616 4.317-.86 3.178.42 7.036-.44 10.234-1.7 7.715-6.616 9.075-13.032 9.534-4.058 0-8.115 2.279-7.256 7.496-1.08-5.677 7.056-5.677 10.474-5.677 5.337 0 8.754-2.278 10.673-7.495 1.5-4.777-.64-14.551 4.278-17.05 1.499-.92 3.418-.22 4.917-1.14 1.919-.899 2.558-2.718 3.638-4.317 1.059-1.819 2.118-2.958 1.918-5.456-.44-2.719-2.778-4.777-2.358-7.956zM115.85 81.45c-5.757-2.498-6.396 11.334-6.396 14.292-.42 6.336-4.258 8.835-9.794 8.375-11.274-.9-5.737 17.45-16.39 16.55 5.756-.9 8.095-4.298 9.794-9.754 1.079-4.298 2.978-6.336 7.875-6.117 2.358 0 3.838 1.14 6.396-.44 2.119-1.358 3.398-4.317 4.038-7.035 1.059-5.896-2.559-11.793 4.677-14.271zm-1.34-37.996c0 2.718 1.7 5.676 1.7 8.614.2 3.398-.22 7.936-2.12 10.874-3.397 5.437-9.753 6.336-9.333 14.491-.86-6.116 9.953-10.194 11.453-15.85 1.479-5.437 1.679-12.233-.22-17.45z" fill="#98af99" fill-rule="evenodd"/><path d="M38.377 60.843c-4.278.68 2.138 11.413 3.857 13.012 3.418 2.739 9.395 3.198 11.733 7.076 1.72 3.178.86 7.755 2.139 11.393 1.08 3.198 3.218 4.577 5.337 6.616-6.836-5.457-.84-14.591-5.537-20.288-2.998-3.657-7.056-2.738-10.474-4.797-3.198-2.059-8.554-10.274-6.616-13.931zm8.435 48.551c2.138 5.017 5.316 7.975 10.633 9.794 2.978.92 5.957.92 8.075 3.638 2.779 3.877 2.779 9.574 7.436 11.613-6.796 0-5.297-10.694-9.774-13.652-4.877-3.198-15.291-3.418-15.73-11.853zm5.676-75.734c-3.598 0-5.936-.46-8.055 3.438-1.479 2.958-1.06 8.215-3.618 10.033 3.198-.899 2.978-5.476 4.038-7.995 1.06-2.498 5.097-7.995 7.635-5.017zm34.139 95.302c6.177 3.638 10.654-1.6 13.412-6.156 2.759-4.798 8.715-4.338 11.054-10.514-.42 7.775-6.157 5.477-9.555 9.814-1.718 1.839-1.499 5.257-4.057 6.396-1.919.92-8.075.46-9.574-.68zM83.27 24.505c-.64 7.516 5.736 8.895 10.213 12.073 2.759 1.819 6.576 5.237 4.678 8.874.2-10.013-14.672-9.094-13.392-20.707zm12.952 3.278c2.138 6.836 13.671 5.937 12.832 15.031.64-8.875-12.612-8.195-11.533-14.571zm-39.097-4.957c-4.437.46-11.653 3.158-14.63 6.956 2.758-1.779 9.973-6.716 13.151-6.496zm64.801 39.336c4.917 7.476 3.638 17.67-.42 25.145-2.778 4.977-5.776 12.453-3.418 18.11-1.279-2.48.64-9.275 1.5-11.994 1.059-3.857 2.778-6.116 4.917-9.294 4.897-6.776 2.778-14.711-1.94-20.368zm-98.5-12.392c.84 7.295-9.155 13.212-4.897 20.707-1.06-4.077.44-6.136 1.919-9.554 3.398-1.819 2.758-7.495 3.398-10.693zm33.38 53.807c2.358 6.396 11.093 9.355 17.07 7.776 2.758-.92 5.116-4.118 7.675-5.477 1.279-.92 2.978-1.14 4.037-2.059-2.558 1.14-4.477 3.658-6.816 5.237-2.558 1.599-5.756 2.518-8.734 2.738-6.616.46-8.955-3.877-13.232-8.215z" fill="#98af99" fill-rule="evenodd"/><path d="M61.643 45.093c-4.498 0-8.775-.92-12.833.9-3.418 1.358-4.717 4.536-3.418 7.934-.44-3.837 3.418-6.576 6.417-7.255 3.617-.68 7.255-.22 10.673-1.12zm14.271-.76c2.359 0 4.937 0 7.296.24 1.719.22 3.857 0 5.576.46 2.998.9 5.997 5.916 2.798 8.415 2.779-3.858-2.578-6.377-5.156-7.056-3.438-.92-6.856-.46-10.294-1.36z" fill="#f2edf2" fill-rule="evenodd"/><path d="M63.761 66.48c1.3 3.877 1.3 8.874 4.717 11.593 3.418 2.718 8.315-.9 8.315-4.997-3.617 6.816-13.032-1.14-12.592-6.596z" fill="#ccc9cb" fill-rule="evenodd"/><path d="M57.925 16.11c4.957 0 8.175 2.479 8.815 7.676 1.499-4.977-4.078-10.634-8.595-8.355z" fill="#f2edf2" fill-rule="evenodd"/><path clip-path="url(#a)" d="M80.471 10.434S35.678-.04 9.634 53.608c0 0 23.046-47.272 70.837-43.174z" fill="#fff" fill-rule="evenodd"/><path clip-path="url(#a)" d="M34.819 135.978s49.45 35.878 89.066-14.092c0 0-31.96 44.533-89.066 14.092z" fill="#b8b6b7" fill-rule="evenodd"/><path d="M46.252 49.89c0-.76.66-1.4 1.44-1.4.799 0 1.438.64 1.438 1.4 0 .78-.64 1.399-1.439 1.399-.78 0-1.439-.62-1.439-1.4zm2.398-1.92c0-.459.36-.839.8-.839.46 0 .8.38.8.84 0 .48-.34.84-.8.84-.44 0-.8-.36-.8-.84zm38.617-1.078c0-.7.52-1.28 1.16-1.28.659 0 1.159.58 1.159 1.28 0 .72-.5 1.279-1.16 1.279-.64 0-1.159-.56-1.159-1.28zm3.678 1.958c0-.5.34-.919.76-.919s.759.42.759.92c0 .52-.34.919-.76.919s-.76-.4-.76-.92zm-33.34-31.22c0-.92.72-1.68 1.6-1.68.899 0 1.598.76 1.598 1.68 0 .939-.7 1.678-1.599 1.678-.88 0-1.599-.74-1.599-1.679zm4.158.839c0-.54.46-1 .999-1 .56 0 1 .46 1 1 0 .56-.44 1-1 1-.54 0-1-.44-1-1z" fill="#fff" fill-rule="evenodd"/><path d="M70.078 26.344s-49.41 33.66-23.426 101.379c0 0-22.147-48.171 23.426-101.379zm4.397-3.758c0-.88.68-1.599 1.479-1.599.82 0 1.48.72 1.48 1.6 0 .899-.66 1.598-1.48 1.598-.8 0-1.48-.7-1.48-1.599zm5.437-3.757c0-.34.32-.64.68-.64.379 0 .679.3.679.64 0 .36-.3.64-.68.64-.36 0-.68-.28-.68-.64zM49.61 137.237c0-1 .8-1.84 1.759-1.84.98 0 1.759.84 1.759 1.84 0 1.02-.78 1.839-1.76 1.839-.959 0-1.758-.82-1.758-1.84z" fill="#fff" fill-rule="evenodd"/></svg>