<svg xmlns="http://www.w3.org/2000/svg" version="1.0" viewBox="0 0 161.31 461.216"><defs><clipPath clipPathUnits="userSpaceOnUse" id="a"><path d="M5.597 12.313h161.102v461.56H5.597z"/></clipPath></defs><path clip-path="url(#a)" d="M93.823 87.827s7.955 0 11.953-8.515c0 0 2.558.64 3.678 2.438 1.439 2.12 2.838 5.477 4.837 4.558 1.719-1.2 1.159-4.238.28-7.876-.84-3.637 1.159-10.033-3.398-13.351 0 0-5.117-50.97-49.49-51.57C17.31 12.593 4.757 74.156 7.036 90.226c2.278 16.11 17.35 63.402 58.884 88.267 41.255 24.545 85.948 64.6 66.32 134.039-11.673 41.854-46.372 43.973-37.857 150.428.28 4.837 2.278 9.675 5.996 9.395 3.678-.32.28-16.99 2.559-30.022 2.278-12.752 1.119-43.054 34.139-83.99 32.98-40.974 36.378-108.893 13.352-141.034-23.026-32.46-49.21-68.838-64.84-68.838-15.671 0-33.3-16.67-40.976-35.498-7.675-19.069-13.952-63.042 19.628-66.68 11.353-1.24 20.468 6.356 19.908 13.312-.84 6.676-1.719 12.432 1.12 12.432 0 0-.56 6.396 1.718 9.395 2.279 2.758-1.719 11.233 1.16 12.752 3.118 1.839 5.676-6.356 5.676-6.356z" fill="#f9d688" fill-rule="evenodd"/><path clip-path="url(#a)" d="M93.863 87.867s7.955 0 11.953-8.515c0 0 2.558.64 3.678 2.438 1.439 2.12 2.838 5.477 4.837 4.558 1.719-1.2 1.159-4.238.28-7.876-.84-3.637 1.159-10.033-3.398-13.351 0 0-5.117-50.97-49.49-51.57-44.374-.919-56.926 60.644-54.647 76.714 2.278 16.11 17.35 63.402 58.884 88.267 41.255 24.545 85.948 64.6 66.32 134.039-11.673 41.854-46.372 43.973-37.857 150.428.28 4.837 2.278 9.675 5.996 9.395 3.678-.32.28-16.99 2.559-30.022 2.278-12.752 1.119-43.054 34.139-83.99 32.98-40.974 36.378-108.893 13.352-141.034-23.026-32.46-49.21-68.838-64.84-68.838-15.671 0-33.3-16.67-40.976-35.498C36.978 93.943 30.7 49.97 64.28 46.332c11.353-1.24 20.468 6.356 19.908 13.312-.84 6.676-1.719 12.432 1.12 12.432 0 0-.56 6.396 1.718 9.395 2.279 2.758-1.719 11.233 1.16 12.752 3.118 1.839 5.676-6.356 5.676-6.356" fill="none" stroke="#343434" stroke-width="1.199" stroke-linecap="round" stroke-miterlimit="8"/><path d="M85.228 72.436c.6-.6.6-1.539 1.18-2.159.58-.919 1.159-1.539 2.018-2.158m5.437 19.988c.86-1.8 0-4.198.86-5.997.3-1.219.86-1.819 1.139-3.018 0-1.2-.28-2.398-.28-3.618m15.351-11.513c-.28 1.22.28 2.719 0 4.238-.28 1.799-.84 3.597-1.4 5.416-1.139 2.419-2.258 4.218-3.677 6.017" fill="none" stroke="#343434" stroke-width="1.199" stroke-linecap="round" stroke-miterlimit="8"/><path d="M101.818 75.035s-3.997-5.137-3.697-8.455c0-3.039 1.419-6.976 1.419-6.976s3.997 2.119 4.277 6.656c0 4.237-1.999 8.775-1.999 8.775z" fill="#ea9453" fill-rule="evenodd"/><path d="M101.858 75.075s-3.997-5.477-3.697-8.515c0-3.358 1.419-7.316 1.419-7.316s3.997 2.439 4.277 6.716c0 4.557-1.999 9.115-1.999 9.115m.02 0s.86 8.814-3.458 11.832" fill="none" stroke="#343434" stroke-width="1.199" stroke-linecap="round" stroke-miterlimit="8"/><path d="M99.78 58.764s3.397-11.832-8.255-17.29c0 0 0-9.713-6.556-14.25-6.537-4.558-16.21-9.115-31.861-6.077-15.65 3.038-43.554 29.442-32.74 37.318 4.277 3.038 6.556-1.82 6.556-1.82s3.138 4.558 6.256 5.158c3.138.6 10.813-31.541 39.276-22.447 2.838.9 7.396 8.495 15.071 5.457 0 0-3.118 8.795 12.253 13.951z" fill="#f6ac70" fill-rule="evenodd"/><path d="M19.868 55.366S12.752 83.27 17.909 99.94c4.837 14.871 12.792 45.173 50.93 69.438 38.136 24.266 41.534 40.616 51.768 35.179 10.234-5.477-12.233-44.293-29.023-47.93-3.957-.88-13.072-1.2-13.072-1.2s5.957 7.275 12.793 9.714c6.556 2.119 22.466 15.15 18.788 19.988-3.997 4.557-25.344-26.664-38.137-32.14-12.792-5.158-36.977-31.821-39.855-51.53-2.839-20.027-1.4-30.021 1.719-42.454 0 0-2.559-11.553-13.952-3.638z" fill="#ea9453" fill-rule="evenodd"/><path d="M33.14 61.843c3.118.6 10.813-31.541 39.316-22.447 2.838.9 7.416 8.495 15.09 5.457 0 0-3.117 8.794 12.254 13.951 0 0 3.417-11.832-8.255-17.29 0 0 0-9.713-6.557-14.25-6.556-4.558-16.23-9.115-31.9-6.077-14.831 2.738-41.335 27.304-33.92 36.098" fill="none" stroke="#343434" stroke-width="1.199" stroke-linecap="round" stroke-miterlimit="8"/><path d="M102.658 397.839c-2.559 1.799-3.678 5.157-3.958 8.195-.28 2.119-1.439 6.956.28 8.475-3.158 4.557-1.999 10.633-2.279 15.79-.28 6.077.56 12.153.56 18.19 1.16-2.999.84-6.957 1.44-10.315.559-3.318 1.398-6.955 2.278-10.313.56-3.038 4.237-10.314 1.679-13.032 2.558-2.719 5.397-11.234 3.718-14.871 3.118-.6 6.516-8.795 5.396-11.513 4.278-2.439 4.278-7.316 6.556-10.634 1.68-2.119 3.398-3.638 4.238-6.076.88-2.119.6-4.558.6-6.676 8.794.32 7.955-11.833 7.955-11.833 4.277.92 5.676-5.757 5.956-8.795 2.558 0 4.277-3.638 5.117-5.756.88-2.439.6-5.477 1.719-7.596 1.16-2.438 3.718-4.557 5.117-6.995 1.159-2.12.84-4.238 1.719-6.037.84-2.118 2.838-3.638 3.398-6.076.56-1.839-.28-4.238.28-6.076.879-2.12 3.157-3.638 3.717-6.077.28-1.799-.28-4.237-1.16-5.436 0 0 4.278-6.077 1.72-13.352-.56-2.159.56-2.439 1.16-4.558.279-1.838 0-3.957-.6-5.756-.28-1.839-2.28-4.557-2.28-5.477.28-.92 5.118-9.394-.559-16.07 2.279-1.52.28-7.595-.56-9.714-1.439-3.638-2.558-4.877-5.996-6.076 1.72-3.358-1.959-11.513-5.956-11.234 2.278-5.756-3.398-7.595-6.556-9.994 2.878-3.957-3.118-8.195-6.796-6.995 1.12-5.157-5.717-6.996-8.555-4.238l-2.558 2.119c-5.957 1.799-4.837 14.87 1.439 12.752-1.16 4.557 1.959 7.875 6.236 7.875-2.558 3.358.88 9.715 4.837 7.596 0 2.438-1.12 4.237-.28 6.676.84 2.119 2.559 3.638 4.837 3.638-1.12 3.637-.84 7.595 3.398 8.794-1.679 2.119-2.558 5.477-1.959 8.195.28 1.2.56 3.038 1.4 4.238 1.159 1.519 2.278 1.519 3.717 2.758-3.438 2.399-1.159 9.674 1.12 12.433-3.678 1.798-4.278 9.993-.84 11.832-1.719.28-2.558 4.238-2.558 5.757-.28 2.119.56 3.638 2.278 4.837-3.158.64-3.438 3.638-3.717 6.396-.56 3.318 0 4.837 1.719 6.956 0 0-5.997 2.758-4.558 11.553-3.997-.32-7.115 8.795-7.395 12.112 0 1.52.28 1.52-.28 2.759-.56.6-1.719 1.519-2.279 2.398-2.278 2.439-2.558 4.558-2.558 7.916-1.999 0-4.278 2.718-5.117 4.557-1.16 2.119-1.16 4.837-1.999 6.676-.56.6-1.719 1.519-2.278 2.398-.84 1.24-1.72 2.439-2.28 3.958-1.398 2.119-1.718 3.638-1.718 6.356-4.517 1.52-5.117 6.396-5.117 10.953 0 0-5.676 6.037-2.838 12.433z" fill="#eda85d" fill-rule="evenodd"/><path clip-path="url(#a)" d="M116.37 205.835c-2 4.238-.28 11.513 4.557 9.994-1.16 4.557 1.959 7.915 6.236 7.915-2.559 3.318.88 9.715 4.837 7.596 0 2.398-1.12 4.237-.28 6.636.84 2.158 2.559 3.678 4.837 3.678-1.12 3.637-.84 7.555 3.398 8.794-1.679 2.119-2.558 5.437-1.959 8.195.28 1.2.56 2.998 1.4 4.238 1.159 1.519 2.278 1.519 3.717 2.718-3.438 2.439-1.159 9.714 1.12 12.433-3.678 1.838-4.278 10.033-.84 11.832-1.719.32-2.558 4.278-2.558 5.757-.28 2.159.56 3.678 2.278 4.877-3.158.6-3.438 3.638-3.717 6.356-.56 3.358 0 4.877 1.718 6.996 0 0-5.996 2.718-4.557 11.513-3.997-.28-7.115 8.794-7.395 12.152 0 1.52.28 1.52-.28 2.719-.56.6-1.72 1.519-2.279 2.438-2.278 2.439-2.558 4.558-2.558 7.876-1.999 0-4.278 2.718-5.117 4.557-1.16 2.118-1.16 4.837-1.999 6.676-.56.6-1.719 1.519-2.278 2.438-.84 1.2-1.72 2.399-2.28 3.918-1.398 2.119-1.718 3.638-1.718 6.396-4.517 1.52-5.117 6.356-5.117 10.913 0 0-5.677 6.077-2.838 12.433-2.559 1.839-3.678 5.157-3.958 8.195-.28 2.119-1.439 6.996.28 8.475-3.158 4.557-1.999 10.633-2.279 15.79-.28 6.077.56 12.153.56 18.19 1.16-2.999.84-6.957 1.44-10.315.559-3.318 1.398-6.955 2.278-10.313.56-2.999 4.237-10.314 1.679-13.032 2.558-2.719 5.396-11.234 3.718-14.871 3.118-.6 6.516-8.795 5.396-11.513 4.278-2.439 4.278-7.276 6.556-10.634 1.68-2.119 3.398-3.638 4.238-6.076.88-2.119.6-4.518.6-6.676 8.794.32 7.955-11.833 7.955-11.833 4.277.92 5.676-5.757 5.956-8.795 2.558 0 4.277-3.638 5.117-5.756.88-2.439.6-5.437 1.719-7.596 1.16-2.398 3.718-4.517 5.117-6.955 1.159-2.12.84-4.238 1.719-6.077.84-2.118 2.838-3.638 3.398-6.076.56-1.799-.28-4.238.28-6.076.879-2.12 3.157-3.638 3.717-6.037.28-1.839-.28-4.277-1.16-5.476 0 0 4.278-6.077 1.72-13.352-.56-2.12.56-2.439 1.16-4.558.279-1.798 0-3.917-.6-5.756-.28-1.799-2.28-4.557-2.28-5.437.28-.92 5.118-9.434-.559-16.11 2.279-1.52.28-7.555-.56-9.714-1.439-3.638-2.558-4.837-5.996-6.036 1.72-3.358-1.959-11.553-5.956-11.234 2.278-5.756-3.398-7.595-6.556-10.034 2.878-3.917-3.118-8.195-6.796-6.955.84-4.558-3.998-6.397-7.116-4.877" fill="none" stroke="#343434" stroke-width="1.199" stroke-linecap="round" stroke-miterlimit="8"/><path d="M120.647 209.233c2.518.6 5.876-4.597 2.518-4.597-1.399 0-4.797 2.758-2.798 4.597zm8.835 6.277c.839-.88 6.156-5.397 3.637-6.597-2.238-1.239-4.757 2.999-4.197 5.117zm1.078 12.392c1.96.88 6.757-4.557 4.798-6.076-1.999-1.52-5.397 3.957-4.797 5.476zm9.315 5.596c1.72 0 7.756-3.957 4.318-4.877-2.599-.959-6.077 2.439-5.197 4.877zm2.639 11.114c1.439.6 6.316.88 6.316-1.8-.28-2.678-5.717-.279-6.316.92zm.639 16.15c1.72 1.2 10.154 1.2 9.315-2.479-.56-3.677-6.756-.6-7.876 1.24zm5.917 10.913c1.998.28 4.037 1.8 5.756.6 1.68-1.24 1.4-2.758 0-3.358-1.16-.64-7.195-.32-5.756 1.839zm-2.559 13.912c1.16.28 8.315 4.837 8.035.28-.28-2.399-7.435-4.557-8.035-1.8zm-.24 11.233c1.12 1.24 2.279 2.798 3.998 2.798 1.999 0 2.558-1.838 1.44-3.438-.88-1.239-5.757-3.437-5.438 0zm-2.958 11.233c1.48 1.52 2.918 2.998 5.197 2.998-1.12-1.199-2.878-3.597-4.877-3.278zm-3.358 12.673c-.32 1.559 2.798 3.997 4.198 3.398 1.958-1.24-2.799-5.877-3.918-2.759zm-5.437 13.671c1.4 2.639 5.597 2.08 2.799-.88-.84-1.158-3.358-2.078-3.358 0zm-4.317 11.193c1.16 0 2.319 1.24 2.039 2.519-1.16.28-2.918-1.28-2.599-2.838zm-6.556 10.314c.6 1.24 3.198 3.678 2.918.92 0-.92-2.598-3.078-2.918-1.2zm-6.795 10.634c.599.32 3.517 3.078 1.758 3.698-1.459.3-2.638-2.459-2.338-3.378zm-6.737 12.472c.84 0 3.378 1.54 1.98 2.459-1.14.9-1.98-.62-2.28-1.54zm-3.837 11.194s3.697 1.219 2.558 2.138c-.86.9-2.279-.92-2.858-1.519zm-5.257 15.83c.56 0 2.518.58 2.518 1.459.28.86-2.238.86-1.959-.58z" fill="#e07c18" fill-rule="evenodd"/><path d="M130.56 205.156c-2.238 1.559-5.636 4.917-7.355 7.675m3.678 10.714c1.759 0 3.158-3.358 4.317-4.598 1.44-1.519 2.599-3.358 3.998-4.597m-3.518 16.63c1.16-1.759 3.478-3.238 5.477-4.437 1.439-.88 4.597-1.48 5.716-2.998m-6.716 18.149c1.72-1.2 3.438-2.439 5.437-3.358 2.039-1.2 3.758-3.358 5.437-3.678m8.635 14.471c-2 .72-4.278.36-6.556.36-1.44 0-4.598-.36-5.757.68m0 15.191c2.039 1.438 8.035.879 10.314.599m4.877 13.271c-2.319.28-4.357-.919-6.716-1.238m-7.276-.32c1.16 0 2.599 0 3.438.32m-5.117 11.672c1.96-.32 4.198 1.12 6.157.84m7.995 3.958c-1.72-.92-2.838-2.479-4.877-2.799m-8.955 8.795c1.44.32 3.678 1.559 4.797 2.478m-6.796 10.874c2.519.96 5.877 2.798 7.836 3.997m-12.473 7.276c0 1.52 3.718 4.277 5.117 4.557m-5.117 14.791c0-2.438-4.317-2.118-5.197-3.997m0 13.192c-1.958-2.239-5.117-3.198-7.675-3.198m-.48 14.631c-1.119-1.16-3.358-2.359-4.797-2.958m-6.876 26.623c-.56-1.858-2.878-1.539-4.317-2.478m-1.679 13.192c-.6-.34-.9-.68-1.519-1.04m-1.599 16.151c-.56.16-1.42.16-1.999.16" fill="none" stroke="#343434" stroke-width="1.199" stroke-linecap="round" stroke-miterlimit="8"/><path d="M99.84 420.825c-1.16 1.2-1.46 4.797-.3 5.677.3-1.48 1.159-3.578.88-5.377h-.88z" fill="#e07c18" fill-rule="evenodd"/><path d="M120.367 204.316c-.56 1.22-1.719 1.84-2.279 3.038-.859 1.82-.859 3.938-.58 5.757-2.018-2.119-.859-6.356 2-7.576zm5.837 17.35c-3.638-1.84-.56-7.676 1.119-9.834-2.239.32-7.835 7.075-3.918 8.315zm2.878 7.435c-1.12-2.079.28-6.916 2.238-8.155-1.119 2.718-6.476 4.557-3.078 8.155zm4.877 9.195c-.56-1.2-1.44-4.917-1.12-6.437.56-1.519 3.718-2.758 5.117-3.397-2.838 1.878-5.436 6.476-3.997 9.834zm4.237 8.514c-2.878-2.718 4.837-7.275 6.796-8.195-1.399 3.358-7.076 3.958-7.076 8.475zm2.039 13.632c-3.718-9.674 9.994-9.994 15.39-8.155-1.398.28-3.397.6-5.396.6-1.999.32-4.277-.32-5.996 0-3.718.92-4.558 3.957-4.837 7.275zm3.438 13.032c-1.4-2.118-1.719-5.796.84-6.116 1.159-.28 2.558.64 3.677.64 1.16.28 2.279-.32 3.118.28-3.957-.28-9.354-1.84-7.635 4.597zm-1.159 11.153c-.88-7.155 11.153-3.877 13.991-1.798-3.398-1.48-14.271-4.758-13.991 2.078zm0 11.833c-2-1.199 1.439-3.917 2.878-4.197 2.279-.6 4.277.6 6.236 1.799-2.558-3.638-9.394-.92-9.954 2.998zm-2.039 10.034c-1.16-8.235 9.754.28 11.153 2.399-1.12-1.52-9.434-7.875-10.873-3.038zm-2.838 15.111c-.32-2.678 1.998-5.676 4.597-5.676 1.439 0 6.036 2.118 6.596 2.998-1.72-.28-5.157-2.679-7.196-2.079-1.439.28-3.158 2.998-4.317 4.197zm-4.797 9.435c1.159-3.998 5.996-.6 7.995 1.199-2.559 0-4.837-1.8-7.676-1.8zm-5.997 13.391c2.279-2.398 4.837-2.998 6.796.28-1.4-.56-4.237-2.079-5.637-.28zm-6.556 11.473c-.32-4.477 5.477-4.477 8.075-2.358-2.598-.32-6.356-.6-7.235 2.078zm-4.317 9.714c.3-3.398 3.997-2.158 3.997.6-.56-.92-1.998-2.458-3.418-1.519z" fill="#f8e0ca" fill-rule="evenodd"/><path d="M116.89 379.05c-.28-1.559-2.54-1.859-3.679-3.118" fill="none" stroke="#343434" stroke-width="1.199" stroke-linecap="round" stroke-miterlimit="8"/><path d="M112.692 377.731c.28.94 1.399 1.24 1.679 2.179.28.3 0 1.859 0 2.458 1.119-1.539.56-4.637-1.4-4.637zm-8.115 12.473c.28-1.76 2.918-1.76 3.797-.88-1.459-1.779-4.097-2.079-4.397.6zm-2.999 13.072c.28-2.979 3.638-2.379 3.638.28.28-4.158-4.197-4.158-3.917-.28zm-2.718 14.591c0-2.879 3.238-2.239 3.518.32 0-2.879-2.918-3.518-4.397-.96z" fill="#f8e0ca" fill-rule="evenodd"/><path d="m118.268 213.99-.3-.3c1.76 3.259 5.237-2.978 6.397-4.177-1.44 1.2-4.058 4.477-6.097 4.177zm9.774 6.756c.56-.28.84-1.2 1.4-2.119.839-1.239 1.958-1.838 3.078-2.758.84-.92 1.958-1.839 2.798-3.078-3.638.64-6.996 5.517-8.155 8.555zm6.796 18.069c.56 1.8 4.278-.92 5.117-1.199 1.12-.6 1.999-1.52 3.118-2.119.88-.6 2-1.199 2.559-1.839-3.958.32-7.396 3.638-11.114 5.157zm12.152 8.595c1.16.88 2.88 0 4.318 0 .56 0 1.12-.32 1.68-.32.599 0 1.159.6 1.438.32 2.559-.92-.84-6.676-1.439-7.595.6 1.839 1.44 4.877-.28 6.356-1.119.92-3.717.92-5.116 1.24zm-4.876 15.99c2.039 0 4.037 1.2 6.356 1.2 1.719 0 3.158-.28 4.877-.6 2.878-.28 4.277-4.197 3.998-7.236-2 3.039-3.998 5.157-7.476 5.757-1.399.28-2.838.28-3.997.6-.88.28-2.599.28-2.879 0zm2.878 12.433c2.039-.6 4.637.92 6.356 1.24 1.44 0 2.879 0 4.318.319 1.439.6 2.038 1.2 2.598-.64.28-1.239.56-3.078-.28-4.317 0 4.037-3.478 3.718-6.076 3.398-1.999 0-4.317 0-6.036-.6zm3.838 12.752c1.999 0 3.678 2.159 5.636 2.439 2.519.92 2.519-2.12 2.519-4.598 0 5.237-4.757 2.479-6.996 1.84zm-1.999 11.833c.88.88 4.237 4.477 5.916 4.197 1.68-.32 3.079-4.197 3.358-5.716-.84 1.2-2.518 4.517-4.197 3.917-1.679-.6-2.798-2.398-4.797-2.398zm-3.678 11.193c1.44.64 2.839 1.56 4.238 2.798.56.64 1.399 1.84 2.238 1.84 1.4 0 3.078-3.079 3.358-4.638-1.679 1.879-3.078 3.718-5.316 2.479-1.68-.92-2.799-2.159-4.518-2.479zm-4.317 13.992c1.439.6 2.878 2.958 4.557 2.398 1.16-.32 2.559-2.398 3.118-3.598-1.399 1.8-5.956 3.278-6.796 1.52zm-6.876 13.991c1.44.6 2.598 1.2 4.038 2.079.28.32 1.439 1.2 2.318 1.2 1.72-.6 2.559-4.798 2.838-6.317-.56 1.839-1.998 4.237-3.717 4.517-1.44.32-3.438-1.199-4.877-1.479zm-4.797 9.714c1.16.6 3.118 2.439 4.557 2.439 1.68-.28 1.68-3.078 2.798-4.318-1.399 3.119-3.957 4.038-6.476 2.16zm-7.196 11.473c1.72.32 3.158 3.278 5.157 2.399 1.44-.6 3.158-3.598 3.718-4.797-2.279 2.119-5.437 5.676-8.275 2.119zm-7.595 12.073c.58 1.22 3.398 3.358 4.817 3.058 1.699-.62 2.259-3.678 3.658-5.217-1.12.92-2.539 3.078-3.938 3.378-1.419.3-2.258-1.219-3.678-1.219zm-4.397 11.913c2.858.3 4.577 2.958 5.996-1.2v.3c-2.279.9-2.838 1.78-5.417.9zM103.497 396c1.14.58 1.98 1.779 2.839 2.359 1.399-.88 2.518-2.659 2.518-4.158-.28.9-1.4 2.678-2.239 2.978-.86 0-1.978-.9-2.818-1.179zM99.5 412.69c.3 0 1.998 1.18 2.858.3.86-.6.58-2.079 1.14-3.278-.56 1.199-1.42 2.078-2 2.678H99.5z" fill="#d3914f" fill-rule="evenodd"/><path d="M26.584 52.408s2.858.3 3.698 1.2c0 0 15.37-22.207 30.741-22.207 15.35 0 16.49 4.877 16.49 4.877s7.675 1.52 1.999-4.257c-5.697-5.797-18.489-8.235-33-.62C32 39.316 26.584 52.408 26.584 52.408z" fill="#cf8145" fill-rule="evenodd"/><path d="M33.7 40.256s11.712-15.551 33.66-14.632c0 0-19.39-5.196-33.66 14.632z" fill="#fff" fill-rule="evenodd"/><path d="M42.174 45.932S51.35 34.68 65.68 36.218c0 0-14.331-5.796-23.506 9.714z" fill="#e59a63" fill-rule="evenodd"/><path d="M19.908 55.406S12.792 83.31 17.949 99.98c4.837 14.871 12.792 45.173 50.93 69.438 38.136 24.266 41.534 40.616 51.768 35.179 10.234-5.477-12.233-44.293-29.023-47.93-3.957-.88-13.072-1.2-13.072-1.2s5.957 7.275 12.793 9.714c6.556 2.119 22.466 15.15 18.788 19.988-3.997 4.557-25.344-26.664-38.137-32.14-12.792-5.158-36.977-31.821-39.855-51.53-2.839-20.027-1.4-30.021 1.718-42.454 0 0-2.558-11.553-13.951-3.638" fill="none" stroke="#343434" stroke-width="1.199" stroke-linecap="round" stroke-miterlimit="8"/><path d="M22.426 60.643c0-1.219.9-2.238 2-2.238 1.119 0 1.998 1.019 1.998 2.238 0 1.24-.88 2.239-1.999 2.239-1.1 0-1.999-1-1.999-2.239zm1.599 18.389c0-1.18.9-2.159 2-2.159 1.119 0 1.998.98 1.998 2.16 0 1.198-.88 2.158-1.999 2.158-1.1 0-1.999-.96-1.999-2.159zm-4.797 14.271c0-1.159.9-2.118 2-2.118 1.118 0 1.998.96 1.998 2.118 0 1.18-.88 2.12-1.999 2.12-1.1 0-1.999-.94-1.999-2.12zm7.356 7.556c0-1.18.9-2.159 1.999-2.159 1.119 0 1.998.98 1.998 2.159 0 1.2-.879 2.159-1.998 2.159-1.1 0-2-.96-2-2.16zm-1.999 8.795c0-1.14.98-2.08 2.159-2.08 1.2 0 2.158.94 2.158 2.08 0 1.159-.959 2.078-2.158 2.078-1.18 0-2.159-.92-2.159-2.078zm7.115 10.313c0-1.139.98-2.078 2.16-2.078 1.199 0 2.158.939 2.158 2.078 0 1.16-.96 2.079-2.159 2.079-1.179 0-2.158-.92-2.158-2.079zm3.199 9.834c0-1.219.9-2.238 1.999-2.238 1.119 0 1.998 1.02 1.998 2.238 0 1.24-.879 2.239-1.998 2.239-1.1 0-2-1-2-2.239zm10.793 9.275c0-1.14.98-2.079 2.159-2.079 1.2 0 2.159.94 2.159 2.079 0 1.159-.96 2.078-2.159 2.078-1.18 0-2.159-.919-2.159-2.078zm5.677 11.673c0-1.22.9-2.239 1.999-2.239 1.119 0 1.998 1.02 1.998 2.239 0 1.239-.879 2.238-1.998 2.238-1.1 0-2-1-2-2.238zm12.472 4.717c0-1.14.9-2.079 2-2.079 1.118 0 1.998.94 1.998 2.079 0 1.16-.88 2.079-1.999 2.079-1.1 0-1.999-.92-1.999-2.08zm7.516 10.634c0-1.14.94-2.08 2.078-2.08 1.16 0 2.08.94 2.08 2.08 0 1.159-.92 2.078-2.08 2.078a2.077 2.077 0 0 1-2.078-2.079zm14.151 7.075c0-1.3.9-2.359 1.999-2.359 1.12 0 1.999 1.06 1.999 2.359 0 1.32-.88 2.359-1.999 2.359-1.1 0-1.999-1.04-1.999-2.359zm10.314 10.514c0-1.18.9-2.159 1.999-2.159 1.119 0 1.999.98 1.999 2.159 0 1.199-.88 2.158-2 2.158-1.099 0-1.998-.96-1.998-2.158zm7.995 9.994c0-1.18.94-2.16 2.079-2.16 1.16 0 2.079.98 2.079 2.16 0 1.199-.92 2.158-2.08 2.158-1.138 0-2.078-.96-2.078-2.158zm6.876-4.438c0-1.239.9-2.278 1.999-2.278 1.119 0 1.998 1.04 1.998 2.278 0 1.26-.879 2.279-1.998 2.279-1.1 0-2-1.02-2-2.279zm-22.866-28.822c0-1.22.98-2.239 2.158-2.239 1.2 0 2.16 1.02 2.16 2.239 0 1.239-.96 2.238-2.16 2.238-1.179 0-2.158-.999-2.158-2.238zm10.153 4.437c0-.64.54-1.16 1.2-1.16.68 0 1.2.52 1.2 1.16 0 .66-.52 1.16-1.2 1.16-.66 0-1.2-.5-1.2-1.16zm5.837 4.717c0-.58.5-1.08 1.08-1.08.6 0 1.079.5 1.079 1.08 0 .6-.48 1.08-1.08 1.08-.58 0-1.079-.48-1.079-1.08zm7.036 9.355c0-.58.52-1.08 1.16-1.08.659 0 1.158.5 1.158 1.08 0 .6-.5 1.079-1.159 1.079-.64 0-1.16-.48-1.16-1.08zm0 15.99c0-.68.52-1.24 1.16-1.24.659 0 1.158.56 1.158 1.24 0 .7-.5 1.24-1.159 1.24-.64 0-1.16-.54-1.16-1.24zm-20.708-15.191c0-.68.52-1.24 1.12-1.24.62 0 1.119.56 1.119 1.24 0 .7-.5 1.24-1.12 1.24-.599 0-1.119-.54-1.119-1.24zM79.832 163.74c0-.579.52-1.079 1.159-1.079.66 0 1.16.5 1.16 1.08 0 .6-.5 1.08-1.16 1.08-.64 0-1.16-.48-1.16-1.08zm-14.792-1.318c0-.7.52-1.28 1.16-1.28.66 0 1.16.58 1.16 1.28 0 .72-.5 1.279-1.16 1.279-.64 0-1.16-.56-1.16-1.28zm-7.675-13.992c0-.7.52-1.28 1.16-1.28.66 0 1.159.58 1.159 1.28 0 .72-.5 1.28-1.16 1.28-.64 0-1.159-.56-1.159-1.28zm-16.79-13.552c0-.64.52-1.159 1.16-1.159.66 0 1.159.52 1.159 1.16 0 .659-.5 1.159-1.16 1.159-.639 0-1.159-.5-1.159-1.16zm-13.192-17.509c0-.54.52-1 1.16-1 .66 0 1.159.46 1.159 1 0 .56-.5 1-1.16 1-.639 0-1.159-.44-1.159-1zm-4.957-16.47c0-.64.46-1.16 1-1.16.56 0 1 .52 1 1.16 0 .66-.44 1.16-1 1.16-.54 0-1-.5-1-1.16zm3.598-11.993c0-.54.46-1 1-1 .56 0 .999.46.999 1 0 .56-.44 1-1 1-.54 0-.999-.44-.999-1zm-5.117-17.189c0-.64.46-1.16 1-1.16.56 0 1 .52 1 1.16 0 .66-.44 1.159-1 1.159-.54 0-1-.5-1-1.16zm6.476-7.237c0-.699.52-1.278 1.16-1.278.66 0 1.159.58 1.159 1.279 0 .72-.5 1.28-1.16 1.28-.639 0-1.159-.56-1.159-1.28zm-8.954 19.07c0-.64.5-1.16 1.08-1.16.599 0 1.079.52 1.079 1.16 0 .659-.48 1.159-1.08 1.159-.58 0-1.08-.5-1.08-1.16zm96.741 114.69c0-1.14.9-2.079 1.999-2.079 1.12 0 1.999.94 1.999 2.079 0 1.16-.88 2.079-1.999 2.079-1.1 0-1.999-.92-1.999-2.08z" fill="#92562c" fill-rule="evenodd"/><path clip-path="url(#a)" d="M31.7 27.064s26.205-27.104 59.805-.3c0 0-27.904-22.587-59.804.3z" fill="#fff" fill-rule="evenodd"/><path d="M40.895 59.604s5.117-12.672 19.049-14.491c13.931-1.82 20.467 2.118 24.445 9.054 0 0-3.398-13.592-24.445-11.173-14.492 1.519-19.049 16.61-19.049 16.61zm67.219 19.168c2 .92 3.718 3.658 5.157 5.477 1.42.3-.3-5.777-.3-7.316-.28-2.118 0-6.995-1.139-8.534-.58 3.657-2.578 6.715-4.017 10.373zM88.946 83.89c0 2.398-1.439 5.416-.86 7.834.86 3.298 3.419-.919 3.998-2.418 1.14-2.119.86-4.517 1.14-6.936.58-2.698 2.278-4.517.28-6.936.3 2.419-1.14 3.618-1.7 5.737-.3 1.499 0 4.817-2.578 3.318zm6.236 1.798c3.478 1.18 5.197-5.397 4.917-8.095-1.439 1.2-1.439 2.998-3.458 3.298-.3 1.799-1.159 2.998-1.159 4.797zm6.796-3.618c1.18-1.499.88-3.018 1.46-4.517.579-1.52 1.458-2.119 2.318-3.638.88-1.2 1.739-2.718 2.618-4.217.58-1.22.28-3.018 1.16-3.938.28 3.338-.88 5.757-2.619 8.775-.86 2.418-2.019 5.137-4.057 6.636zm-43.094 89.466s9.395 6.676 17.07 11.553c7.675 4.837 34.659 20.628 53.687 56.406 0 0-9.354-32.14-51.688-56.726-6.556-3.917-19.069-11.233-19.069-11.233zm102.418 129.761s-6.236 33.46-22.466 51.969c0 0 13.672-20.028 22.466-51.969z" fill="#e1bc70" fill-rule="evenodd"/><path d="M89.826 68.399c-2 .32-2.859 3.038-3.139 4.877-.3 2.418.28 4.237 2.28 5.756-1.42-.9-2-4.237-1.42-5.756.28-1.84 1.999-2.739 1.999-4.558z" fill="#fff" fill-rule="evenodd"/><path clip-path="url(#a)" d="M35.099 44.413s-31.9 39.736-.84 81.91c31.061 41.855 97.181 64.881 108.574 114.611 0 0-1.679-33.02-53.287-67.919-51.569-34.579-87.507-67-54.447-128.602z" fill="#fff" fill-rule="evenodd"/></svg>