<svg xmlns="http://www.w3.org/2000/svg" version="1.0" viewBox="0 0 441.94 494.513"><defs><clipPath clipPathUnits="userSpaceOnUse" id="a"><path d="M.32 1.36h441.412v494.9H.32z"/></clipPath></defs><path d="M215.67 178.572s-59.005-31.181-110.074 14.83c-50.89 46.013-86.368 148.55-55.326 207.255 0 0 .3.92 1.379.6 0 0 2.298-1.38 4.117.16 1.84 1.679.92 4.577.92 4.577s-.3.46.92 1.22c1.218.779 94.322 20.327 170.296-88.187 58.684-83.75-2.599-133.26-2.599-133.26s-9.174.92-9.634-7.195z" fill="#f8e3ed" fill-rule="evenodd"/><path d="M50.87 400.797c-.16 0-.46-.16-.78-.16.32.16.46.16.78.16zm190.024-195.761c11.473 23.086 17.43 65.4-26.904 118.588-64.66 77.473-120.786 86.328-151.208 82.81-7.336-.76-6.716-.9-6.716-.9s-.16.44 1.06 1.06c1.239.76 94.182 20.467 170.316-88.167 36.838-52.568 26.304-91.525 13.452-113.391z" fill="#f6c7db" fill-rule="evenodd"/><path d="M215.45 181.21c-3.518 3.838-5.337 7.955-10.074 10.694-5.037 2.758-10.234 4.897-15.591 7.035-12.373 5.197-23.666 10.534-34.2 19.089-21.546 17.43-28.722 44.453-32.24 71.037-1.979 15.27-5.337 29.782-12.972 43.374-6.876 12.072-15.75 23.066-24.305 33.3 12.832-13.133 32.4-20.468 47.67-30.842 12.054-8.095 26.265-14.97 36.659-25.365 4.737-4.577 9.014-9.154 13.432-14.051 4.597-5.357 7.195-11.313 11.013-17.27 5.636-8.395 11.133-15.11 14.051-24.885 3.498-12.532 7.776-24.745 8.395-37.737.46-9.314 7.016-28.862-1.839-33.92z" fill="#f8cfe0" fill-rule="evenodd"/><path d="M205.675 175.714s-1.819.62-1.819.46c-11.932-5.198-53.207-15.751-92.783 9.174.76 1.839.6 3.977-.62 5.956-3.218 4.577-10.394 5.497-15.43 6.416-12.393 11.613-23.846 26.604-33.64 43.414 1.379.14 2.598.6 3.678 1.22 3.817 2.438 5.496 8.394 4.877 12.831-1.22 8.875-12.993 15.59-17.73 23.086-4.437 7.336-.92 12.992 4.737 18.49 6.437 6.255 3.838 9.773.62 16.969-3.218 7.475-3.518 16.65 5.957 18.329 7.495 1.379 25.224-6.416 28.742 2.898 0 0-9.634-156.485 113.411-159.243z" fill="#e9cad7" fill-rule="evenodd"/><path d="M224.624 185.647c5.656-17.429 22.007-35.938 42.474-32.26 25.365 4.737 4.138 42.035 1.999 57.785-1.54 10.394-5.197 24.605 4.117 31.48 9.015 6.577 19.848 4.138 13.592 18.97-5.496 12.532-19.248 20.787-25.964 32.24-8.855 14.83-13.752 37.917 2.898 48.45" fill="none" stroke="#ae065e" stroke-width="3.998" stroke-linecap="round" stroke-linejoin="round"/><path clip-path="url(#a)" d="M220.786 184.888c6.916-18.829 24.026-49.57 47.571-62.602 19.588-10.714 30.902-12.712 48.61 2.478 7.037 5.797 10.275 17.59 17.43 22.187 11.473 7.036 23.106-8.275 31.221-14.551 10.674-7.955 25.985-16.67 39.417-12.073 11.632 3.958 20.667 17.91 33.939 17.43" fill="none" stroke="#ae065e" stroke-width="3.998" stroke-linecap="round" stroke-linejoin="round"/><path clip-path="url(#a)" d="M216.629 182.57c5.057-7.476 5.816-13.133 7.815-19.249 3.818-11.613 8.555-23.226 13.612-34.38 5.496-11.752 17.749-45.671 34.879-45.831 5.196-.16 9.174 6.116 14.83 5.196 6.417-1.219 10.094-9.634 12.693-14.67 8.415-16.49 13.472-33.76 23.706-49.65 4.597-6.876 12.232-13.452 15.75-20.028" fill="none" stroke="#ae065e" stroke-width="3.998" stroke-linecap="round" stroke-linejoin="round"/><path d="M215.09 178.492c3.518-9.474 6.256-55.946-8.115-84.369-5.057-10.094-10.094-12.852-22.027-11.313-16.37 2.139-18.21 17.11-31.201 23.845-9.654 4.897-16.07-.92-24.645-5.196-12.233-6.117-26.924-4.278-37.018 6.276-12.852 13.452-13.312 33.78-23.546 48.45-7.035 9.934-27.083 27.504-39.636 27.504" fill="none" stroke="#ae065e" stroke-width="3.998" stroke-linecap="round" stroke-linejoin="round"/><path d="M215.35 181.85s-.44 12.852-35.02 28.123c-30.28 13.592-43.593 48.29-49.85 71.057-6.275 22.906-13.63 5.956-11.172-9.175 2.438-16.19 6.116-43.094 52.768-65.54 37.017-17.89 43.273-24.465 43.273-24.465z" fill="#e6a1c3" fill-rule="evenodd"/><path d="M210.692 184.908c-3.518 5.177-12.072 13.432-32.4 22.446-30.242 13.432-43.534 48.111-49.81 71.017-2.598 9.774-5.497 12.213-7.795 10.694 2.298 4.877 6.116 4.437 9.634-8.255 6.256-22.906 19.548-57.565 49.81-71.017 34.539-15.43 34.979-28.263 34.979-28.263s-1.06 1.08-4.418 3.378z" fill="#d788b4" fill-rule="evenodd"/><path d="M220.207 185.208s6.256 62.182-27.504 104.197c-28.123 34.978-77.013 53.767-103.457 79.871-24.305 23.846-44.473 48.43-56.686 74.095-12.232 25.665-16.21 40.776-28.442 49.33 0 0 12.392-13.431 22.626-46.431 7.955-25.965 29.502-53.468 47.83-71.337 18.33-17.87 34.68-31.761 59.145-45.972 24.445-14.352 58.225-40.336 69.678-72.097 11.313-31.78 16.81-71.656 16.81-71.656z" fill="#f0b6d1" fill-rule="evenodd"/><path d="M219.407 186.167s-.46 3.378-1.38 8.715c.16 19.568-2.598 62.202-27.982 93.683-28.123 35.159-77.033 53.808-103.477 79.952-24.765 24.445-44.493 48.75-56.726 74.115-6.256 13.292-10.394 23.685-14.671 31.94-6.576 13.452-11.933 19.249-11.933 19.249 12.233-8.555 16.21-23.686 28.443-49.35 12.232-25.685 32.4-50.13 56.705-74.135 26.464-26.125 75.375-44.773 103.498-79.932 33.78-42.015 27.523-104.237 27.523-104.237z" fill="#e297bd" fill-rule="evenodd"/><path d="M192.044 266.938c-7.476 23.686-23.946 39.556-36.918 35.439-12.812-3.978-17.09-26.584-9.614-50.25 7.475-23.685 23.965-39.576 36.778-35.598 12.812 4.137 17.23 26.584 9.754 50.41z" fill="#e5b5cf" fill-rule="evenodd"/><path d="M192.723 266.918c-13.012 21.087-32.92 32.54-44.553 25.525-11.493-7.036-10.254-29.942 2.759-51.19 13.012-21.066 32.92-32.54 44.393-25.504 11.633 7.036 10.413 29.942-2.599 51.17z" fill="#efb5d0" fill-rule="evenodd"/><path d="M202.217 225.823c1.22 9.634-.919 21.867-6.576 33.94-10.393 22.606-28.722 36.517-40.955 30.86-11.153-5.196-13.452-24.444-6.116-44.772-10.694 19.868-11.013 40.336-.3 46.912 11.613 7.175 31.481-4.278 44.473-25.525 9.175-15.13 12.373-30.861 9.474-41.415z" fill="#e3a4c6" fill-rule="evenodd"/><path d="M215.35 181.85s-.44 12.852-35.02 28.123c-30.28 13.592-43.593 48.29-49.85 71.057-6.275 22.906-13.63 5.956-11.172-9.175 2.438-16.19 6.116-43.094 52.768-65.54 37.017-17.89 43.273-24.465 43.273-24.465" fill="none" stroke="#343434" stroke-width=".48" stroke-linecap="round" stroke-miterlimit="8"/><path clip-path="url(#a)" d="M220.247 185.248s6.256 62.182-27.504 104.197c-28.123 34.978-77.013 53.767-103.457 79.871-24.305 23.846-44.473 48.43-56.686 74.095-12.232 25.665-16.21 40.776-28.443 49.33 0 0 12.393-13.431 22.627-46.431 7.955-25.965 29.502-53.468 47.83-71.337 18.33-17.87 34.68-31.761 59.145-45.972 24.445-14.352 58.225-40.336 69.678-72.097 11.313-31.78 16.81-71.656 16.81-71.656" fill="none" stroke="#343434" stroke-width="1.039" stroke-linecap="round" stroke-miterlimit="8"/><path d="M192.723 266.918c-13.012 21.087-32.92 32.54-44.553 25.525-11.493-7.036-10.254-29.942 2.759-51.19 13.012-21.066 32.92-32.54 44.393-25.504 11.633 7.036 10.413 29.942-2.599 51.17" fill="none" stroke="#343434" stroke-width=".64" stroke-linecap="round" stroke-miterlimit="8"/><path d="M191.124 247.05c1.52 3.838-1.839 9.055-7.635 11.513-5.817 2.439-11.933 1.22-13.612-2.778-1.539-3.838 1.839-9.055 7.635-11.513 5.817-2.459 11.933-1.22 13.612 2.778z" fill="#e8a3c5" fill-rule="evenodd"/><path d="M56.246 233.798c-.32 3.518 5.037 8.095 6.876 11.134 2.298 3.817 3.518 7.015 4.437 11.453.46 2.438.6 4.877.76 7.315.16 1.38-.46 7.316.6 8.075 1.698 1.22 7.355-4.877 8.414-6.236 2.758-3.518 3.818-7.335 3.978-11.593.6-8.855-.46-17.25-9.175-21.367-5.356-2.598-10.234.76-15.43 1.679z" fill="#d081b0" fill-rule="evenodd"/><path d="M56.246 233.798c-.32 3.518 5.037 8.095 6.876 11.134 2.298 3.817 3.518 7.015 4.437 11.453.46 2.438.6 4.877.76 7.315.16 1.38-.46 7.316.6 8.075 1.698 1.22 7.355-4.877 8.414-6.236 2.758-3.518 3.818-7.335 3.978-11.593.6-8.855-.46-17.25-9.175-21.367-5.356-2.598-10.234.76-15.43 1.679" fill="none" stroke="#343434" stroke-width=".64" stroke-miterlimit="8"/><path d="M56.246 233.798c-.32 3.518 5.037 8.095 6.876 11.134 2.298 3.817 3.518 7.015 4.437 11.453.46 2.438.6 4.877.76 7.315.16 1.38-.46 7.316.6 8.075 1.698 1.22 7.355-4.877 8.414-6.236 2.758-3.518 3.818-7.335 3.978-11.593.6-8.855-.46-17.25-9.175-21.367-5.356-2.598-10.234.76-15.43 1.679" fill="none" stroke="#343434" stroke-width=".64" stroke-miterlimit="8"/><path d="M105.176 171.216c.46 4.438 2.918 8.715 3.998 13.152.46 2.139.46 4.438.62 6.576 0 1.68-.92 4.737 0 5.957 1.059 1.679 6.436 1.978 8.274 1.379 4.758-1.38 5.517-8.575 5.677-12.692.14-7.956-3.998-11.933-11.053-13.452-1.98-.46-5.357-.16-7.056-1.24z" fill="#d081b0" fill-rule="evenodd"/><path d="M105.176 171.216c.46 4.438 2.918 8.715 3.998 13.152.46 2.139.46 4.438.62 6.576 0 1.68-.92 4.737 0 5.957 1.059 1.679 6.436 1.978 8.274 1.379 4.758-1.38 5.517-8.575 5.677-12.692.14-7.956-3.998-11.933-11.053-13.452-1.98-.46-5.357-.16-7.056-1.24" fill="none" stroke="#343434" stroke-width=".64" stroke-miterlimit="8"/><path d="M105.176 171.216c.46 4.438 2.918 8.715 3.998 13.152.46 2.139.46 4.438.62 6.576 0 1.68-.92 4.737 0 5.957 1.059 1.679 6.436 1.978 8.274 1.379 4.758-1.38 5.517-8.575 5.677-12.692.14-7.956-3.998-11.933-11.053-13.452-1.98-.46-5.357-.16-7.056-1.24" fill="none" stroke="#343434" stroke-width=".64" stroke-miterlimit="8"/><path d="M174.994 129.402c-4.897 6.276-3.518 18.049-11.153 21.886-2 1.06-4.458 1.82-2.919 4.278 2 3.518 9.954 3.657 13.312 2.438 5.357-1.839 6.436-5.656 6.436-10.853 0-3.978.14-8.715-1.379-12.393-.62-1.679-2.298-3.657-3.518-4.737z" fill="#d081b0" fill-rule="evenodd"/><path d="M174.994 129.402c-4.897 6.276-3.518 18.049-11.153 21.886-2 1.06-4.458 1.82-2.919 4.278 2 3.518 9.954 3.657 13.312 2.438 5.357-1.839 6.436-5.656 6.436-10.853 0-3.978.14-8.715-1.379-12.393-.62-1.679-2.298-3.657-3.518-4.737" fill="none" stroke="#343434" stroke-width=".64" stroke-miterlimit="8"/><path d="M174.994 129.402c-4.897 6.276-3.518 18.049-11.153 21.886-2 1.06-4.458 1.82-2.919 4.278 2 3.518 9.954 3.657 13.312 2.438 5.357-1.839 6.436-5.656 6.436-10.853 0-3.978.14-8.715-1.379-12.393-.62-1.679-2.298-3.657-3.518-4.737" fill="none" stroke="#343434" stroke-width=".64" stroke-miterlimit="8"/><path d="M60.224 286.986c-.46 4.277 3.957 8.395 5.036 12.353 1.06 3.358.76 7.795.3 11.133-.46 2.458-2.598 7.175.6 8.235 3.658 1.22 6.696-4.258 7.775-7.016 1.66-4.417 1.06-8.535-.62-12.952-1.978-4.737-5.636-9.454-10.493-11.293z" fill="#d081b0" fill-rule="evenodd"/><path d="M60.224 286.986c-.46 4.277 3.957 8.395 5.036 12.353 1.06 3.358.76 7.795.3 11.133-.46 2.458-2.598 7.175.6 8.235 3.658 1.22 6.696-4.258 7.775-7.016 1.66-4.417 1.06-8.535-.62-12.952-1.978-4.737-5.636-9.454-10.493-11.293" fill="none" stroke="#343434" stroke-width=".64" stroke-miterlimit="8"/><path d="M60.224 286.986c-.46 4.277 3.957 8.395 5.036 12.353 1.06 3.358.76 7.795.3 11.133-.46 2.458-2.598 7.175.6 8.235 3.658 1.22 6.696-4.258 7.775-7.016 1.66-4.417 1.06-8.535-.62-12.952-1.978-4.737-5.636-9.454-10.493-11.293" fill="none" stroke="#343434" stroke-width=".64" stroke-miterlimit="8"/><path d="M204.636 137.157c-7.955-3.818-13.292-10.554-23.086-10.234-14.231.3-2.598 17.11-8.735 23.546-8.255 2.278-14.53-1.7-22.946-2.459-11.473-1.219-24.625 1.08-33.96 7.955-4.117 3.059-9.174 6.257-10.393 11.773-1.539 7.336 3.518 6.117 8.255 8.395 4.437 2.299 7.955 7.656 4.897 12.093-3.058 4.577-10.394 5.497-15.45 6.556-11.634 2.139-23.406 8.415-32.58 16.05-4.438 3.678-19.749 21.107-12.853 25.685 4.137 2.918 11.013-.14 15.61 2.918 3.658 2.279 5.497 8.255 4.878 12.672-1.22 8.875-13.152 15.59-17.73 23.086-4.437 7.496-.92 12.992 4.737 18.509 6.417 6.256 3.678 9.774.62 17.11-3.218 7.495-3.538 16.51 5.956 18.189 7.496 1.379 16.83-3.358 20.348 5.956 0 0-3.678-155.306 119.468-158.044 0 0-2.739-23.086-2.739-27.364 0-4.277-4.297-12.392-4.297-12.392z" fill="#e0bcd7" fill-rule="evenodd"/><path d="M215.51 178.632v-.16c-11.913-5.037-52.569-19.408-92.145 5.516.76 1.98.62 3.958-.76 5.957-3.057 4.577-10.253 5.497-15.29 6.416-12.373 11.613-23.986 26.584-33.62 43.394 1.22.16 2.599.62 3.658 1.379 3.678 2.298 5.517 8.255 4.897 12.692-1.22 8.855-13.132 15.59-17.73 23.066-4.436 7.496-.919 12.992 4.738 18.489 6.416 6.276 3.678 9.934.62 17.13-3.218 7.475-4.138 10.993 5.336 12.672 7.496 1.38 13.612.46 17.13 9.774 0 0 .14-153.567 123.165-156.325z" fill="#ddc0cb" fill-rule="evenodd"/><path d="M211.672 176.633c-11.913-5.197-52.568-19.408-92.144 5.357.62 1.978.62 4.117-.76 5.956-3.058 4.737-10.254 5.497-15.29 6.576-12.533 11.613-23.986 26.584-33.62 43.394 1.219.16 2.598.46 3.657 1.22 3.678 2.458 5.517 8.414 4.897 12.831-1.219 8.875-13.132 15.45-17.729 23.086-4.437 7.336-.92 12.992 4.737 18.33 6.416 6.415 3.678 9.933.62 17.129-3.218 7.475-3.518 16.49 5.956 18.329 7.496 1.379 16.81-3.518 20.328 5.796 0 0-3.678-155.246 119.348-158.004z" fill="#d7a0c5" fill-rule="evenodd"/><path d="M204.636 137.177c-7.955-3.678-13.292-10.414-23.086-10.094-14.231.3-2.598 17.11-8.735 23.526-8.255 2.298-14.67-1.68-22.946-2.599-11.473-1.06-24.625 1.24-33.96 7.955-4.117 3.059-9.174 6.277-10.393 11.933-1.539 7.336 3.518 6.117 8.255 8.395 4.437 2.299 7.955 7.496 4.897 11.933-3.218 4.737-10.394 5.656-15.45 6.576-11.634 2.279-23.406 8.395-32.58 16.05-4.438 3.658-19.749 21.087-12.853 25.825 4.137 2.758 11.013-.16 15.61 2.758 3.658 2.438 5.497 8.395 4.878 12.832-1.22 8.875-13.152 15.45-17.73 23.086-4.597 7.336-.92 12.992 4.578 18.489 6.576 6.276 3.837 9.794.78 16.97-3.219 7.495-3.539 16.51 5.796 18.349 7.655 1.379 16.99-3.518 20.507 5.796 0 0-3.818-155.286 119.468-157.884 0 0-2.739-23.246-2.739-27.524 0-4.277-4.297-12.372-4.297-12.372" fill="none" stroke="#343434" stroke-width=".64" stroke-linecap="round" stroke-miterlimit="8"/><path d="M161.382 175.214c-.52 1.559-.88 2.938-.88 4.317m12.313-28.942c-2.418 4.137-4.697 9.334-6.516 13.292-1.22 2.598-2.878 5.656-3.957 8.854m-54.767 57.645c0 1.72-.16 3.418-.16 4.957m12.492-51.488c.14 7.355-3.498 13.491-6.076 20.067-2.738 7.356-4.857 15.471-5.936 23.426M83.03 294.981c.18.94.54 2.039.72 2.958m-1.52-6.955c.12.74.22 1.459.32 2.318m-4.158-45.972c.92 5.976-.48 12.712-.48 17.93 0 8.114 1.86 16.09 3.838 23.885m4.638 31.501c.96.32 2.078.64 3.198.96m-7.036-2.16c.52.16 1.02.32 1.519.48M68.558 298.1c1.08 1.079 1.7 9.673 4.478 14.27 1.999 3.219 4.617 5.058 7.675 6.437" fill="none" stroke="#343434" stroke-width=".64" stroke-linecap="round" stroke-miterlimit="8"/><path d="M103.177 194.882c-14.65 13.732-27.923 31.86-38.616 52.288" fill="none" stroke="#343434" stroke-width=".32" stroke-linecap="round" stroke-miterlimit="8"/><path d="M110.093 189.085c-1.719 1.24-3.438 2.779-4.997 4.158-.62.62-1.239 1.08-1.879 1.679" fill="none" stroke="#343434" stroke-width="1.359" stroke-linecap="round" stroke-miterlimit="8"/><path d="M152.028 169.537c-13.572 2.459-27.923 8.155-41.975 19.508m47.651-20.307c-1.379.12-2.758.36-4.317.48m7.436-.8c-.76.16-1.38.16-2 .16m52.689 8.155c-7.476-3.178-26.564-9.994-49.33-8.315" fill="none" stroke="#343434" stroke-width=".32" stroke-linecap="round" stroke-miterlimit="8"/><path d="M64.68 247.23C38.837 296.9 27.984 359.422 49.69 400.377c0 0 .46 1.06 1.539.6 0 0 2.299-1.36 4.117.16 1.68 1.679.92 4.737.92 4.737s-.3.3.92 1.08c1.219.759 94.162 20.307 170.276-88.187 58.685-83.75-2.758-133.12-2.758-133.12s-9.175.76-9.614-7.175c0 0-1.24-.78-3.518-1.7" fill="none" stroke="#343434" stroke-width="1.359" stroke-linecap="round" stroke-miterlimit="8"/><path d="M219.107 258.243c0-4.337 3.518-7.875 7.835-7.875 4.338 0 7.836 3.538 7.836 7.875 0 4.358-3.498 7.876-7.836 7.876-4.317 0-7.835-3.518-7.835-7.876z" fill="#9fd4ce" fill-rule="evenodd"/><path d="M228.322 263.54c-4.298 0-7.816-3.498-7.816-7.755 0-.76 0-1.52.3-2.139-1.08 1.22-1.699 2.899-1.699 4.717 0 4.258 3.538 7.756 7.995 7.756 3.538 0 6.596-2.279 7.516-5.617-1.38 1.819-3.678 3.038-6.296 3.038z" fill="#7abbb2" fill-rule="evenodd"/><path d="M218.947 258.243c0-4.337 3.558-7.875 7.916-7.875 4.377 0 7.915 3.538 7.915 7.875 0 4.358-3.538 7.876-7.915 7.876-4.358 0-7.916-3.518-7.916-7.876" fill="none" stroke="#343434" stroke-width=".64" stroke-linecap="round" stroke-miterlimit="8"/><path d="M232.759 257.684c-1.08 1.819-3.698 2.119-6.016.76-2.14-1.22-3.079-3.798-2.14-5.457 1.08-1.82 3.839-2.139 5.997-.76 2.299 1.36 3.218 3.798 2.159 5.457z" fill="#b9dfdb" fill-rule="evenodd"/><path d="M228.941 255.565c0-.78.62-1.439 1.36-1.439.759 0 1.359.66 1.359 1.44 0 .799-.6 1.438-1.36 1.438-.74 0-1.359-.64-1.359-1.439zm1.359 3.398c0-.46.34-.84.76-.84s.76.38.76.84c0 .48-.34.84-.76.84s-.76-.36-.76-.84z" fill="#fff" fill-rule="evenodd"/><path d="M116.85 372.574c0-4.777 3.937-8.675 8.754-8.675 4.837 0 8.755 3.898 8.755 8.675 0 4.797-3.918 8.675-8.755 8.675-4.817 0-8.755-3.878-8.755-8.675z" fill="#9fd4ce" fill-rule="evenodd"/><path d="M126.983 378.49c-4.757 0-8.735-3.997-8.735-8.754 0-.94.14-1.699.46-2.479-1.24 1.54-1.859 3.398-1.859 5.397 0 4.757 3.838 8.595 8.755 8.595 3.997 0 7.375-2.598 8.435-6.296-1.68 2.158-4.138 3.538-7.056 3.538z" fill="#7abbb2" fill-rule="evenodd"/><path d="M116.69 372.574c0-4.777 3.897-8.675 8.674-8.675 4.797 0 8.675 3.898 8.675 8.675a8.667 8.667 0 0 1-8.675 8.675c-4.777 0-8.675-3.878-8.675-8.675" fill="none" stroke="#343434" stroke-width=".64" stroke-linecap="round" stroke-miterlimit="8"/><path d="M131.8 372.035c-1.08 1.818-4.117 2.258-6.556.76-2.438-1.36-3.358-4.098-2.279-6.057 1.22-1.96 4.098-2.279 6.537-.76 2.438 1.36 3.497 4.098 2.298 6.057z" fill="#b9dfdb" fill-rule="evenodd"/><path d="M127.563 369.576c0-.84.7-1.52 1.559-1.52.88 0 1.559.68 1.559 1.52s-.68 1.52-1.56 1.52c-.859 0-1.558-.68-1.558-1.52zm1.439 3.798c0-.5.42-.92.92-.92.519 0 .919.42.919.92 0 .52-.4.92-.92.92-.5 0-.92-.4-.92-.92z" fill="#fff" fill-rule="evenodd"/><path d="M51.609 342.033c0-4.737 3.917-8.595 8.714-8.595 4.818 0 8.715 3.858 8.715 8.595 0 4.757-3.897 8.594-8.715 8.594-4.797 0-8.714-3.837-8.714-8.594z" fill="#9fd4ce" fill-rule="evenodd"/><path d="M61.863 347.91a8.688 8.688 0 0 1-8.715-8.676c0-.899.16-1.679.3-2.438-1.06 1.539-1.84 3.358-1.84 5.337 0 4.697 3.978 8.495 8.715 8.495 3.978 0 7.336-2.579 8.395-6.217-1.519 2.119-4.117 3.498-6.855 3.498z" fill="#7abbb2" fill-rule="evenodd"/><path d="M51.449 342.033c0-4.737 3.917-8.595 8.715-8.595 4.817 0 8.714 3.858 8.714 8.595 0 4.757-3.897 8.594-8.714 8.594-4.798 0-8.715-3.837-8.715-8.594" fill="none" stroke="#343434" stroke-width=".64" stroke-linecap="round" stroke-miterlimit="8"/><path d="M66.54 341.453c-1.08 1.839-3.978 2.299-6.436.78-2.459-1.4-3.538-4.158-2.459-6.157 1.24-1.998 4.138-2.318 6.596-.78 2.459 1.4 3.518 4.158 2.299 6.157z" fill="#b9dfdb" fill-rule="evenodd"/><path d="M62.242 339.035c0-.88.72-1.6 1.6-1.6.899 0 1.598.72 1.598 1.6 0 .899-.7 1.599-1.599 1.599-.88 0-1.599-.7-1.599-1.6zm1.679 3.797c0-.5.42-.92.92-.92.52 0 .92.42.92.92 0 .52-.4.92-.92.92-.5 0-.92-.4-.92-.92z" fill="#fff" fill-rule="evenodd"/><path d="M182.49 327.761c0-3.298 2.698-5.996 5.996-5.996a6.001 6.001 0 0 1 5.996 5.996 5.988 5.988 0 0 1-5.996 5.997 6.001 6.001 0 0 1-5.997-5.997z" fill="#9fd4ce" fill-rule="evenodd"/><path d="M189.465 331.819c-3.338 0-6.056-2.698-6.056-5.837 0-.6.16-1.199.3-1.659-.76.9-1.22 2.26-1.22 3.598 0 3.158 2.739 5.837 5.917 5.837 2.878 0 5.157-1.78 5.756-4.338-1.059 1.5-2.718 2.399-4.697 2.399z" fill="#7abbb2" fill-rule="evenodd"/><path d="M182.33 327.761c0-3.298 2.698-5.996 5.996-5.996a6.001 6.001 0 0 1 5.996 5.996 5.988 5.988 0 0 1-5.996 5.997 6.001 6.001 0 0 1-5.996-5.997" fill="none" stroke="#343434" stroke-width=".64" stroke-linecap="round" stroke-miterlimit="8"/><path d="M192.923 327.442c-.76 1.379-2.758 1.519-4.617.62-1.68-1.08-2.459-3.059-1.52-4.278.76-1.38 2.76-1.7 4.438-.62 1.859 1.06 2.459 2.898 1.7 4.278z" fill="#b9dfdb" fill-rule="evenodd"/><path d="M189.845 325.723c0-.58.5-1.08 1.08-1.08.599 0 1.079.5 1.079 1.08 0 .6-.48 1.079-1.08 1.079-.58 0-1.08-.48-1.08-1.08zm1.119 2.638c0-.32.28-.6.6-.6.34 0 .6.28.6.6 0 .34-.26.6-.6.6-.32 0-.6-.26-.6-.6z" fill="#fff" fill-rule="evenodd"/><path d="M158.664 360.861c0-3.338 2.738-6.076 6.076-6.076 3.358 0 6.076 2.738 6.076 6.076a6.074 6.074 0 0 1-6.076 6.077c-3.338 0-6.076-2.719-6.076-6.077z" fill="#9fd4ce" fill-rule="evenodd"/><path d="M165.74 364.959c-3.378 0-5.997-2.779-5.997-5.997 0-.62 0-1.219.16-1.699-.76.94-1.24 2.32-1.24 3.698 0 3.218 2.78 5.977 6.157 5.977 2.778 0 5.077-1.84 5.837-4.438-1.06 1.54-2.919 2.459-4.917 2.459z" fill="#7abbb2" fill-rule="evenodd"/><path d="M158.664 360.861c0-3.338 2.698-6.076 5.996-6.076 3.318 0 5.997 2.738 5.997 6.076 0 3.358-2.679 6.077-5.997 6.077-3.298 0-5.996-2.719-5.996-6.077" fill="none" stroke="#343434" stroke-width=".64" stroke-linecap="round" stroke-miterlimit="8"/><path d="M169.118 360.402c-.74 1.359-2.699 1.499-4.358.6-1.659-1.06-2.418-3.019-1.659-4.218.76-1.36 2.858-1.68 4.517-.62 1.66 1.06 2.399 2.878 1.5 4.238z" fill="#b9dfdb" fill-rule="evenodd"/><path d="M166.18 358.663a1.1 1.1 0 0 1 1.079-1.08c.6 0 1.079.5 1.079 1.08 0 .6-.48 1.079-1.08 1.079-.579 0-1.079-.48-1.079-1.08zm1.199 2.678c0-.3.26-.56.56-.56.319 0 .559.26.559.56 0 .32-.24.56-.56.56-.3 0-.56-.24-.56-.56z" fill="#fff" fill-rule="evenodd"/><path d="M159.144 333.118c0-2.638 2.178-4.797 4.837-4.797 2.678 0 4.837 2.159 4.837 4.797 0 2.659-2.159 4.797-4.837 4.797-2.659 0-4.837-2.139-4.837-4.797z" fill="#9fd4ce" fill-rule="evenodd"/><path d="M164.68 336.236c-2.618 0-4.757-2.158-4.757-4.757 0-.46 0-.92.16-1.399-.62.78-.94 1.859-.94 2.938 0 2.759 2.16 4.897 4.758 4.897a4.929 4.929 0 0 0 4.757-3.518c-.92 1.06-2.299 1.84-3.978 1.84z" fill="#7abbb2" fill-rule="evenodd"/><path d="M158.984 333.118c0-2.638 2.178-4.797 4.837-4.797 2.678 0 4.837 2.159 4.837 4.797 0 2.659-2.159 4.797-4.837 4.797-2.659 0-4.837-2.139-4.837-4.797" fill="none" stroke="#343434" stroke-width=".64" stroke-linecap="round" stroke-miterlimit="8"/><path d="M167.419 332.718c-.6 1.06-2.24 1.2-3.598.46-1.2-.76-1.8-2.279-1.2-3.338.6-1.04 2.26-1.36 3.598-.44 1.2.76 1.8 2.259 1.2 3.318z" fill="#b9dfdb" fill-rule="evenodd"/><path d="M164.98 331.48c0-.46.42-.84.92-.84.52 0 .919.38.919.84 0 .479-.4.839-.92.839-.5 0-.919-.36-.919-.84zm1.04 2.038c0-.22.22-.4.48-.4.279 0 .479.18.479.4 0 .24-.2.4-.48.4-.26 0-.48-.16-.48-.4z" fill="#fff" fill-rule="evenodd"/><path d="M92.384 375.333c0-2.599 2.179-4.718 4.837-4.718 2.678 0 4.837 2.12 4.837 4.718 0 2.618-2.159 4.717-4.837 4.717-2.658 0-4.837-2.1-4.837-4.717z" fill="#9fd4ce" fill-rule="evenodd"/><path d="M98.08 378.57c-2.778 0-4.916-2.238-4.916-4.757 0-.46.16-.899.3-1.359-.6.9-1.08 1.8-1.08 2.839 0 2.678 2.159 4.757 4.917 4.757 2.159 0 3.998-1.48 4.597-3.418-.92 1.199-2.298 1.939-3.817 1.939z" fill="#7abbb2" fill-rule="evenodd"/><path d="M92.224 375.333c0-2.599 2.179-4.718 4.837-4.718 2.679 0 4.837 2.12 4.837 4.718 0 2.618-2.158 4.717-4.837 4.717-2.658 0-4.837-2.1-4.837-4.717" fill="none" stroke="#343434" stroke-width=".64" stroke-linecap="round" stroke-miterlimit="8"/><path d="M100.819 374.913c-.76 1.08-2.279 1.379-3.658.46-1.36-.76-1.979-2.3-1.36-3.358.76-1.08 2.28-1.24 3.659-.46 1.359.76 1.959 2.298 1.359 3.358z" fill="#b9dfdb" fill-rule="evenodd"/><path d="M98.38 373.614c0-.46.38-.84.84-.84.48 0 .84.38.84.84 0 .48-.36.84-.84.84-.46 0-.84-.36-.84-.84zm.8 2.038c0-.22.24-.4.52-.4.3 0 .52.18.52.4 0 .24-.22.4-.52.4-.28 0-.52-.16-.52-.4z" fill="#fff" fill-rule="evenodd"/><path d="M52.248 368.896c0-2.658 2.179-4.837 4.837-4.837a4.841 4.841 0 0 1 4.837 4.837 4.828 4.828 0 0 1-4.837 4.837 4.841 4.841 0 0 1-4.837-4.837z" fill="#9fd4ce" fill-rule="evenodd"/><path d="M57.785 372.055c-2.618 0-4.757-2.16-4.757-4.758 0-.46 0-.92.16-1.399-.62.94-.94 1.86-.94 2.938 0 2.759 2.159 4.897 4.757 4.897 2.3 0 4.138-1.519 4.598-3.517-.76 1.059-2.139 1.839-3.818 1.839z" fill="#7abbb2" fill-rule="evenodd"/><path d="M52.088 368.896c0-2.658 2.18-4.837 4.837-4.837a4.841 4.841 0 0 1 4.838 4.837 4.828 4.828 0 0 1-4.837 4.837 4.841 4.841 0 0 1-4.838-4.837" fill="none" stroke="#343434" stroke-width=".64" stroke-linecap="round" stroke-miterlimit="8"/><path d="M60.443 368.537c-.62 1.059-2.318 1.199-3.697.46-1.38-.76-1.86-2.26-1.24-3.319.62-1.059 2.319-1.219 3.698-.46 1.24.76 1.839 2.26 1.24 3.319z" fill="#b9dfdb" fill-rule="evenodd"/><path d="M58.085 367.257c0-.44.38-.8.84-.8.479 0 .839.36.839.8 0 .46-.36.8-.84.8-.46 0-.84-.34-.84-.8zm.799 1.999c0-.26.24-.48.52-.48.3 0 .52.22.52.48 0 .28-.22.48-.52.48-.28 0-.52-.2-.52-.48z" fill="#fff" fill-rule="evenodd"/><path d="M187.846 320.286c0-4.298 3.518-7.795 7.835-7.795 4.338 0 7.836 3.497 7.836 7.795 0 4.317-3.498 7.795-7.836 7.795-4.317 0-7.835-3.478-7.835-7.795z" fill="#9fd4ce" fill-rule="evenodd"/><path d="M197.06 325.503c-4.437 0-7.975-3.498-7.975-7.915 0-.76.16-1.36.3-2.14-.92 1.38-1.539 3.059-1.539 4.738 0 4.397 3.538 7.895 7.835 7.895 3.698 0 6.756-2.418 7.676-5.776-1.38 1.978-3.678 3.198-6.296 3.198z" fill="#7abbb2" fill-rule="evenodd"/><path d="M187.686 320.286c0-4.298 3.518-7.795 7.835-7.795 4.338 0 7.836 3.497 7.836 7.795 0 4.317-3.498 7.795-7.835 7.795-4.318 0-7.836-3.478-7.836-7.795" fill="none" stroke="#343434" stroke-width=".64" stroke-linecap="round" stroke-miterlimit="8"/><path d="M201.418 319.806c-1.08 1.66-3.698 1.959-6.016.76-2.16-1.36-3.238-3.798-2.16-5.617 1.08-1.659 3.699-1.979 6.017-.76 2.159 1.36 3.218 3.798 2.159 5.617z" fill="#b9dfdb" fill-rule="evenodd"/><path d="M197.52 317.528c0-.78.6-1.44 1.32-1.44.739 0 1.319.66 1.319 1.44 0 .8-.58 1.439-1.32 1.439-.72 0-1.319-.64-1.319-1.44zm1.44 3.517c0-.38.34-.72.759-.72.42 0 .76.34.76.72 0 .4-.34.72-.76.72s-.76-.32-.76-.72zM68.558 215.19s19.469-17.09 35.399-18.769c13.172-1.22 14.231-6.416 14.231-6.416s1.22 6.116-18.229 8.395c-1.838.16-16.53 4.897-31.4 16.79zm8.175 43.813c-2.738 6.136-8.075 9.035-11.892 14.551-1.84 2.759-3.978 6.117-4.118 9.474-.32 3.518 3.038 5.977 5.797 7.956-5.657-3.818-3.658-13.612 0-17.75 2.138-2.278 4.717-3.517 6.716-5.796 2.138-2.459 2.578-5.057 3.797-7.975zm30.082-89.466s-1.08-7.175 12.972-14.351c14.052-7.036 23.526-7.036 30.862-5.817 7.475 1.22 15.27 4.278 19.688 3.358 0 0-2.139 2.299-9.774.16-7.636-1.978-15.73-5.816-27.783-1.219-11.913 4.577-24.446 7.935-25.965 17.87zm69.998-38.077s.94-7.575 16.87.74c0 0-11.793-7.396-16.87-.74z" fill="#fff" fill-rule="evenodd"/><path d="M111.772 174.294c-2.618-.78-5.077-1.539-4.457-4.897.32-2.438 3.078-5.496 4.917-7.175 2.299-2.139 4.617-3.498 7.535-4.717 2.759-1.24 5.837-1.54 8.435-2.919-6.756 2.459-17.19 12.073-14.59 20.148-.6 0-1.22-.3-1.84-.6zM180.79 130.5c-6.436 1.68-4.897 8.556-4.897 13.753 0 6.256-4.597 10.693-6.756 16.33 1.54-3.038 4.598-5.337 6.437-8.395 1.539-2.739 1.699-6.256 2.158-9.474.3-2.739.76-5.637 2.299-8.096 1.06-1.818 3.358-4.577 5.656-4.277-1.059-.3-4.437-.46-4.897.46zM63.202 220.706c-.46 1.24-1.84 2.139-2.759 3.218-.78.92-1.399 2.139-1.859 3.218-1.059 2.279-1.539 3.958-.759 6.416 2.299 2.899 6.456 2.439 9.974 3.039 4.157.62 8.915 1.998 10.593 6.416 0-7.176-5.056-9.315-10.273-8.555-8.615 1.38-8.615-3.958-7.836-7.016.46-1.839 3.998-4.897 3.059-6.736z" fill="#d8b2cd" fill-rule="evenodd"/><path d="M93.383 300.978c-1.838-5.797 1.68-12.993 3.358-18.49 2.14-7.035 3.198-14.07 5.337-20.947 1.52-5.656 3.338-11.612 3.038-17.429-.14-3.818-.14-7.635-.46-11.473-.3-3.818.32-8.095-1.219-11.773-.76 1.24-.46 3.378-.76 4.757-.459 2.599-1.059 5.037-1.678 7.636-.9 3.518-1.979 7.195-4.418 9.794-1.679 1.978-3.957 1.819-4.257 5.037-.46 3.518 1.52 7.035-.78 10.233-2.438 3.378-2.738 6.117-2.578 10.414 0 3.958-.46 8.095-.62 12.073-.14 2.738-.919 5.496-.76 8.415.3 2.138 1.22 3.358 2.3 5.197.899 1.818 1.818 3.957 2.878 5.796zm-14.371-15.511c1.4 6.296 1.859 13.992 5.217 19.828 3.238 5.217 7.515 7.975 6.456 15.03-5.677-2.438-12.133-5.216-11.193-12.272.6-3.697.6-6.616.3-10.453-.3-2.919 1.219-8.895 0-11.194zm12.293 46.452c-1.24-5.937-9.095-5.177-13.852-4.877-1.24.16-3.238.62-4.317-.46-1.7-1.979.32-2.898.92-4.257 1.398-2.759 0-4.278-.92-7.036 2.458 3.058 8.155 5.816 11.852 7.036 1.7.6 4.458.44 5.697 2.118 1.22 1.84.16 5.197.92 7.176zm15.23-81.551c.92-4.437 1.08-8.714 2.619-12.852 1.679-4.277.9-9.954 2.278-14.551.92-3.058 2.3-5.357 4.897-7.336 2.759-2.298 5.497-3.518 6.577-7.195 1.379-4.438 1.379-12.413 6.735-14.232 1.22-.46 2.439.14 3.658-.32 2.439-.919 3.518-3.058 4.278-5.196 2.298-5.517 4.137-9.035 9.794-11.333 3.657-1.54 5.816-3.818 8.854-5.977 1.08-.76 4.757-3.678 5.677-1.979.44.76-1.839 5.357-2.159 6.576-.3 2-.76 4.298-.76 6.576 0 2 .92 4.757-.3 6.436-.919 1.38-3.357 2.14-4.736 2.919-2.459 1.519-4.598 3.058-6.876 4.437-8.415 5.357-15.91 13.152-22.187 20.667-3.198 3.818-5.496 8.255-7.635 12.553-2.439 4.597-5.497 8.874-7.795 13.472-.92 2.298-1.84 4.737-2.599 7.035zm54.288-62.522c2.158-3.658 1.838-7.455 3.218-11.413.46-1.24 1.239-4.577 3.078-4.737 1.06-.16 3.657 1.979 4.897 2.279 2.758.46 5.496-.6 8.255-.9 3.977-.46 7.975-.62 11.953-.62 4.737.16 9.174 2.3 13.611 3.199-4.277 1.379-9.474.62-14.071 1.079-4.438.46-8.435 1.36-12.713 2.578-5.196 1.54-13.931 4.278-16.99 7.936z" fill="#c894bb" fill-rule="evenodd"/><path d="M151.148 192.164s-42.254 25.084-56.445 98.5c0 0 8.255-67.899 56.445-98.5z" fill="#fff" fill-rule="evenodd"/><path d="M66.62 240.015c.92 0 6.136 1.079 5.676 2.298-.46.92-2.898 1.06-3.518 1.06-1.239 0-2.458-.44-3.697-.44m45.492-52.329c.16-.899.16-2.438.16-3.357m4.017-4.158c-.18 1.36.7 3.138.86 4.477m-3.038-1.839c0 .78.32 1.56.48 2.319" fill="none" stroke="#d081b0" stroke-width="1.359" stroke-miterlimit="8"/><path d="M190.165 284.667s-24.306 27.664-48.61 41.096c0 0 28.142-12.373 48.61-41.096zM54.867 405.534s1.219-4.457-2.439-3.538c0 0-11.913 14.851-18.808 29.702 0 0 14.83-25.244 18.968-27.543 2.439-1.38 2.279 1.38 2.279 1.38z" fill="#fff" fill-rule="evenodd"/><path d="M50.41 398.718s8.654-1.679 7.895 6.996l4.097-3.798s-1.06-7.315-9.254-7.635l-2.739 4.437z" fill="#f8e3ed" fill-rule="evenodd"/><path d="M50.89 397.779s8.714-2.279 8.874 7.296c0 0 2.318-12.473-8.875-7.296z" fill="#fff" fill-rule="evenodd"/><path d="M214.73 179.211s-.3 6.996 9.414 6.996v3.358s-9.574 3.638-13.991-8.515l4.577-1.839z" fill="#f8e3ed" fill-rule="evenodd"/><path d="M156.345 236.697s18.03-23.826 32.54-21.368c13.113 2.28 12.813 15.411 12.813 15.411s-1.06-11.753-13.432-12.972c-12.513-1.22-31.92 18.929-31.92 18.929zm-5.996-16.311s-29.542 19.549-30.622 56.926c0 0 2.759-31.281 30.622-56.926zm63.801-39.496s-.16 5.237 9.195 6.317c0 0-9.674 1.519-9.195-6.317z" fill="#fff" fill-rule="evenodd"/><path d="M182.19 191.844s61.402 83.45-25.685 177.892c0 0 92.584-85.268 25.685-177.892zM49.05 295.46s-20.307 47.052-.6 97.462c0 0-15.39-46.132.6-97.461z" fill="#fff" fill-rule="evenodd"/></svg>