<svg xmlns="http://www.w3.org/2000/svg" version="1.0" viewBox="0 0 154.734 126.954"><path d="M.76 63.641c0 44.453 17.27 62.083 69.058 62.083 52.488 0 83.41-16.85 83.41-65.92S101.457.76 69.097.76C36.738.76.76 19.168.76 63.64z" fill="#ffe800" fill-rule="evenodd"/><path d="M15.27 32.26c-7.295 10.714-8.754 22.167-8.014 34.4 0 3.837 3.637 28.282 10.933 16.83 2.918-3.818-2.918-11.474-2.918-16.05 0-6.117 1.459-12.233 3.658-17.59 1.459-4.597 4.377-12.233 5.096-16.83 0-5.337-5.836-6.116-8.754-.76z" fill="#f08d00" fill-rule="evenodd"/><path d="M24.725 25.305C48.431 9.974 69.238 3.078 97.241 13.052c11.473 3.818 25.824 5.357 35.878 13.772 12.912 11.493 8.615 31.42 7.896 47.491 1.439-16.07-4.298-36.758-19.389-42.115-6.456-2.298-13.631 1.52-20.088 0-6.456-1.539-10.773-7.655-16.51-9.953-12.192-3.838-28.702-1.54-40.915-1.54-10.054 0-24.405 3.059-27.283 16.09z" fill="#fff9bd" fill-rule="evenodd"/><path d="M19.708 104.956c8.615 9.954 22.966 8.415 34.46 10.714 10.753 2.299 21.526.78 33 0 10.773-.76 21.526-2.299 31.58-6.896 13.632-6.116 15.79-13.012 18.649-27.583-2.859 10.733-12.912 20.687-23.666 22.226-5.756.76-12.213-.76-17.95.76-6.455 2.298-12.192 6.136-18.648 6.896-6.456 1.539-11.493-1.52-17.23-2.299-5.016-.76-10.053 1.54-15.07 2.299-9.335 1.539-15.79-3.818-25.125-4.598z" fill="#ffc400" fill-rule="evenodd"/><path d="M13.192 42.314c-3.618 8.415-4.357 18.39-2.179 26.804 1.46-3.058 0-9.954.74-13.792 1.439-4.597 1.439-8.414 3.618-11.493 1.439-1.519 4.337-3.817 4.337-6.116 0-3.078-4.337-5.377-5.057-.78z" fill="#f5ba59" fill-rule="evenodd"/><path d="M.76 63.641c0 44.453 17.27 62.083 69.058 62.083 52.488 0 83.41-16.85 83.41-65.92S101.457.76 69.097.76C36.738.76.76 19.168.76 63.64" fill="none" stroke="#333" stroke-width=".8" stroke-linecap="round" stroke-linejoin="round"/><path d="M18.829 29.462c0-3.178 2.458-5.756 5.476-5.756 3.038 0 5.477 2.578 5.477 5.756 0 3.198-2.439 5.757-5.477 5.757-3.018 0-5.476-2.559-5.476-5.757zm-5.677 7.795c0-1.419 1.16-2.598 2.558-2.598 1.42 0 2.559 1.18 2.559 2.598 0 1.44-1.14 2.599-2.559 2.599-1.399 0-2.558-1.16-2.558-2.599zm18.069-14.511c0-1.499 1.1-2.718 2.439-2.718 1.359 0 2.438 1.22 2.438 2.718 0 1.52-1.08 2.719-2.438 2.719-1.34 0-2.439-1.2-2.439-2.719z" fill="#fff" fill-rule="evenodd"/></svg>