<svg xmlns="http://www.w3.org/2000/svg" version="1.0" viewBox="0 0 357.241 315.742"><defs><clipPath clipPathUnits="userSpaceOnUse" id="a"><path d="M1.839 2.319h356.824v315.968H1.839z"/></clipPath></defs><path d="M3.158 167.978c8.355-12.033 29.542-34.699 35.778-41.375 20.828-21.307 26.664-20.427 33.3-25.744l.4-.48c-7.036 8.035-12.872 16.03-17.87 23.586-1.678 2.199-39.535 47.091-51.608 62.202z" fill="#c7e8f8" fill-rule="evenodd"/><path d="M3.158 167.858c8.355-11.952 29.582-34.619 35.818-41.295 20.828-21.307 26.664-20.427 33.34-25.744 5.797-7.556 12.912-15.071 20.388-22.626 0 0 .4-.44.4-.92-18.71 9.794-74.955 61.283-89.946 82.15z" fill="#e3eaef" fill-rule="evenodd"/><path d="M282.629 3.638c-131.2 0-197 74.635-230.3 123.925-1.28 2.198-40.816 46.172-49.17 58.604v131.44h353.145V12.553c-22.067-5.356-46.612-8.914-73.675-8.914z" fill="#e3eaef" fill-rule="evenodd"/><path d="M61.763 121.247c3.358 3.158 16.31 9.434 22.146 9.874 5.837.44 15.87-.44 17.95-.88 2.118-.44 6.275-7.196 10.433-5.397-3.318-3.118-7.915-.44-11.273 1.8-3.758 2.238-10.834 2.238-15.031 2.238-4.158 0-22.546-5.837-24.225-7.635z" fill="#c0d1dc" fill-rule="evenodd"/><path d="M282.629 47.611c-2.919 0-5.837.48-9.155.48h-1.279c-2.478 0-4.997.44-7.475.44h-.84c-19.988 1.759-38.297 5.756-54.967 11.513-47.051 16.43-79.551 47.49-99.54 78.552l-9.993 15.11s-1.24.88-2.918 2.2l259.842.44V60.043c-22.067-7.516-46.212-12.433-73.675-12.433z" fill="#b6b8da" fill-rule="evenodd"/><path clip-path="url(#a)" d="M190.964 75.114c-2.078 1.76 22.067-7.955 53.728-11.952 29.942-3.558 67-2.199 94.902 10.593 44.533 20.788-151.548 17.71-151.548 17.71l-10.833-5.757z" fill="#8f92bb" fill-rule="evenodd"/><path d="M244.652 74.715c45.852-3.558 71.237-.88 109.973 12.872-14.99-4.437-31.221 2.678-46.652 2.239-42.894-1.8-77.912 2.198-117.888 19.987-30.422 14.192-55.846 32.86-88.347 40.376l7.516-11.513c19.988-31.101 52.928-62.162 99.58-78.632 1.239-.44 2.478-.88 3.757-1.32.4 0 .4-.44.8-.44 15.43-4.876 31.7-7.994 49.61-9.753h1.239c1.679 0 2.918 0 4.157-.44h6.676c2.479 0 4.997-.48 7.516-.48 24.985 0 47.49 3.998 67.479 10.674-.44 0-.84-.44-1.68-.44-72.915-8.435-115.809-1.759-143.312 11.113-14.591 6.196-22.507 11.513-21.227 14.192.8 2.678 22.466-5.757 60.803-8.435z" fill="#8f92bb" fill-rule="evenodd"/><path d="M158.104 95.102c-1.24-1.319 3.358-9.314 11.273-15.99-26.264 16.87-46.252 38.177-60.003 59.484l-4.597 7.116c.44 1.319.44 2.638.839 3.518 4.197-1.32 7.915-2.2 11.673-3.958 12.512-7.555 31.261-20.428 31.261-20.428l39.536-33.3s-12.073.44-22.466 3.558c-1.24.44-6.277 1.32-7.516 0z" fill="#6d729d" fill-rule="evenodd"/><path d="M282.549 47.651c-88.267 0-144.073 45.692-173.255 90.905" fill="none" stroke="#000" stroke-width="1.359" stroke-linecap="round" stroke-linejoin="round"/><path d="M3.158 317.608h353.146v-90.146c-20.787 7.516-46.212 24.865-73.675 25.305h.4-.84.44c-69.158-.44-125.364-23.106-125.364-57.765 0-24.865 29.582-46.172 72.036-56.406l-1.24-2.239c-6.235 3.558-17.509 5.797-27.503 5.797-9.554 0-17.07 2.199-22.906 2.199-5.396 0-20.387 0-29.542.919-14.99 1.32-27.063 7.995-26.264 15.55 1.68 11.554 14.991 11.074 9.195 19.988-5.437 8.875-10.834-5.356-17.51 0-2.478 2.2-2.918 7.116-12.912 10.634-9.994 3.998-7.915-.88-12.912-2.638-4.997-1.36-2.918 4.877-7.476 11.113-4.157 6.636-7.915 1.759-22.506 6.636-12.912 4.437-17.47 4.917-26.224 13.352l-.84.88c-9.594 10.673-19.148 22.226-27.503 35.098v61.723z" fill="#c7e8f8" fill-rule="evenodd"/><path d="m64.001 196.281 4.997 2.678c.44-1.759.44-3.118-4.997-2.678zm286.906 31.54c1.68 0 3.758 0 5.397-.439v-99.9c-37.857-3.557-76.194-.879-114.09 1.8-33.7 1.759-67.04-8.915-99.1 2.638-1.64.44-4.558 7.116-5.837 7.555-29.982 11.993-45.772 35.499-67.84 59.924l-.439-.44c0 .88-36.658 15.111-35.378 16.43.84.88 39.136-11.553 40.375-11.553 11.233.88 56.646-2.198 68.279-.879 17.909 1.759 21.667 12.872 38.337 18.189 14.99 4.437 32.06.88 47.45.88 41.216.48 81.192 8.434 122.846 5.796z" fill="#d5ac9e" fill-rule="evenodd"/><path d="M142.234 154.506c-.84-9.754 18.309-22.626 20.787-8.435 4.597-3.078 17.07-13.311 16.67-19.548-.84-15.99-33.74-3.997-38.297 3.558l-7.515 16.43z" fill="#ca978d" fill-rule="evenodd"/><path d="M267.638 232.34c-41.655-3.998-87.907-26.665-124.964-29.783-29.143-2.238-51.61 1.32-57.046 1.32-4.997 0-9.154.48-11.673 0-2.478 0-8.715 0-16.23 2.678-12.912 4.437-17.47 4.877-26.224 13.352l-.84.88c-.84.879-1.679 1.758-2.078 2.638h-.4c.4-.44.4-.88.4-1.32-2.08 2.239-3.318 3.998-3.318 3.998-7.916 8.435-14.991 16.91-22.107 25.784v13.752c8.755-15.07 18.349-19.108 28.343-31.101 0 0 .4 3.997.4 3.558 2.918-4.877 4.157-4.877 7.915-8.875 5.437-5.317 7.915-5.796 16.67-8.875l4.997-1.798c4.997-1.32 17.909-2.2 22.066-4.438 17.51-2.238 78.713-.44 92.025 5.797 29.182 11.073 56.245 21.307 107.055 21.307 27.463 0 52.448-6.676 73.675-13.752v-9.354c-7.475 2.678-45.772 18.229-88.666 14.231z" fill="#91d4f2" fill-rule="evenodd"/><path d="M121.366 182.53c-.4 0-2.878-.44-5.396-1.32-1.64-.48-3.318-.48-4.558 0l-1.279 3.558s0 .44.44.44c3.758-.88 20.787-2.239 31.62-3.118 11.234-.88 17.03-1.36 17.03-1.36v-2.238s-10.393 2.238-13.311 2.238c-2.879 0-22.867 1.8-24.546 1.8zm38.417-15.431c-.84.44-10.034 4.397-16.31 6.196-4.597 1.32-8.795 2.199-12.113 2.199-1.279.44-2.118.88-2.118 1.319 0 .44.84.88 1.679.88 3.358-.88 10.034-2.64 12.112-3.079 2.959-1.319 15.47-3.997 15.47-3.997s2.08-4.438 1.28-3.518z" fill="#e8d1c8" fill-rule="evenodd"/><path clip-path="url(#a)" d="M213.35 123.485c28.783-24.425 112.892-37.737 134.56 2.679 25.823 48.33-114.132 30.581-134.56 14.63z" fill="#bb887e" fill-rule="evenodd"/><path d="M333.278 113.331c8.395 1.8 15.91 4.038 23.026 6.237v-2.639c-7.955-.92-15.47-3.158-20.068-5.836l-2.958 2.238z" fill="#c7e8f8" fill-rule="evenodd"/><path d="M356.304 105.776c-20.787-7.556-46.212-12.033-73.715-12.033-69.118 0-125.364 40.456-125.364 75.075 1.679-33.74 57.085-61.283 125.364-61.283h-.4.84-.44c27.503 0 52.928 4.437 73.715 11.993v-13.752z" fill="#ecd6d2" fill-rule="evenodd"/><path d="M183.889 126.683c-4.158 3.558-9.155 7.116-10.834 12.872 7.516-9.314 21.667-10.673 30.781-16.47zm94.142-31.101c6.676-.88 41.216 1.32 49.13 3.518 8.356 2.199 8.755 9.274 8.755 9.274l.4 3.518s-10.793-3.078-16.23-3.078c4.157-2.638-1.639-7.076-5.397-8.395-5.836-2.199-32.06-6.196-36.658-4.837z" fill="#e2c2bb" fill-rule="evenodd"/><path clip-path="url(#a)" d="M356.304 105.776c-20.787-7.556-46.212-12.033-73.715-12.033-69.118 0-125.364 40.456-125.364 75.075 1.679-33.74 57.085-61.283 125.364-61.283h-.4.84-.44c27.503 0 52.928 4.437 73.715 11.993" fill="none" stroke="#fff" stroke-width=".8" stroke-miterlimit="8"/><path d="M282.189 232.3h.84-.841zm.4 0c27.503 0 52.928-4.438 73.715-11.954V119.568c-20.787-7.516-46.212-11.993-73.715-11.993-69.118 0-125.364 27.983-125.364 62.602 0 34.18 56.246 62.122 125.364 62.122zm-.4-124.725h.84-.84z" fill="#eddad4" fill-rule="evenodd"/><path d="M282.988 207.514h-.4.4zm-.4-74.275h.4-.4zm.4 0c-43.733 0-78.752 16.47-78.752 36.938 0 20.467 35.019 36.898 78.752 37.337 33.34 0 62.083-10.194 73.316-23.985v-26.264c-11.233-14.232-39.976-24.026-73.316-24.026z" fill="#ebd9d1" fill-rule="evenodd"/><path d="M332.159 170.097c0 11.553-22.067 20.388-49.61 20.388h.44c-27.544 0-49.65-8.835-49.65-20.388 0-11.073 22.106-20.388 49.65-20.388h-.44c27.543 0 49.61 9.315 49.61 20.388z" fill="#ead4d0" fill-rule="evenodd"/><path d="M265.799 170.097c0 2.199 7.555 4.397 16.75 4.397 9.194 0 16.27-2.198 16.27-4.397 0-2.638-7.076-4.877-16.27-4.877-9.195 0-16.75 2.239-16.75 4.877" fill="none" stroke="#f7eeec" stroke-width=".8" stroke-miterlimit="8"/><path d="M216.709 170.097c0-15.99 29.622-28.863 65.88-28.863h-.44c36.258 0 65.84 12.873 65.84 28.863-.8-12.433-23.746-25.744-63.322-25.305-39.176.44-65.04 15.55-63.361 27.983 1.24 12.393 16.27 17.71 16.27 17.71-9.594-3.958-20.867-11.513-20.867-20.388z" fill="#f3dcd8" fill-rule="evenodd"/><path d="M232.659 170.097c0-10.674 22.466-19.588 49.93-19.588h-.44c27.903 0 50.33 8.914 50.33 19.588-.4-7.995-18.27-17.35-48.251-16.91-29.942 0-49.49 10.674-48.251 19.149.84 8.434 12.472 11.992 12.472 11.992-7.475-2.638-16.23-7.995-15.79-14.231z" fill="#f9edea" fill-rule="evenodd"/><path d="M247.17 169.697c0-6.276 15.87-11.193 35.419-11.193h-.4c19.988 0 35.818 4.917 35.818 11.193-.4-4.477-12.912-8.475-34.139-8.475-21.267 0-34.18 4.917-33.34 9.834.84 4.917 7.915 7.116 7.915 7.116-5.436-1.759-11.273-4.917-11.273-8.475z" fill="#f9edea" fill-rule="evenodd"/><path d="M355.505 155.506c0 .44.4.44.8.88-.4-.44-.8-.44-.8-.88zm-73.316-21.787h.84-.84zm-79.952 37.337c0 11.993 14.592 20.868 25.825 25.745 0 0-19.548-8.435-21.627-24.425-1.68-16.43 29.982-35.1 78.272-35.539 33.74-.44 58.725 7.555 70.798 18.669-12.913-12.872-40.816-21.787-72.876-21.787-44.573.48-80.392 16.91-80.392 37.337z" fill="#f3dcd8" fill-rule="evenodd"/><path d="M282.988 122.206h.84-.84zm.44 0c-53.367.48-96.701 21.787-96.701 48.41 0 15.511 17.51 27.064 31.26 33.7-1.238-.88-23.745-12.392-25.823-32.38-2.08-20.868 35.818-44.813 93.743-45.732 29.582 0 53.767 5.356 70.397 13.791v-.92c-17.91-10.193-43.733-16.39-72.876-16.87z" fill="#f6eae8" fill-rule="evenodd"/><path d="M279.27 115.57c-59.123 0-107.014 23.985-107.014 53.288 0 17.27 17.909 32.38 33.34 39.456 0 0-24.985-15.071-27.504-38.137-2.079-22.626 39.976-49.69 103.697-50.61 30.822 0 56.206 3.998 74.515 11.554v-1.32c-19.548-8.874-47.051-14.231-77.033-14.231zm-.399 0h.84-.84z" fill="#f6eae8" fill-rule="evenodd"/><path d="M347.03 169.657c0 15.99-29.143 28.823-65.8 28.823h.4c-36.219 0-65.8-12.833-65.8-28.823.839 12.433 24.185 25.745 63.32 25.305 39.577-.44 64.961-15.99 63.722-27.983-1.679-12.393-16.23-17.75-16.23-17.75 9.154 3.558 20.787 11.554 20.388 20.428z" fill="#e0bcb6" fill-rule="evenodd"/><path d="M331.599 169.297c0 11.114-22.466 19.509-50.37 19.509h.4c-27.463 0-49.97-8.395-49.97-19.509.44 8.435 17.91 17.75 48.331 17.31 29.982-.44 49.53-10.634 48.291-19.069-1.24-8.434-12.472-11.992-12.472-11.992 7.075 2.678 15.79 7.555 15.79 13.751z" fill="#e4c5c0" fill-rule="evenodd"/><path d="M317.128 169.697c0 6.196-15.79 11.513-35.779 11.513h.4c-19.548 0-35.378-5.317-35.378-11.513.44 4.877 12.912 8.875 34.139 8.875 21.227 0 33.74-5.317 33.3-10.194-.84-4.437-7.915-6.676-7.915-6.676 4.997 1.799 11.233 4.437 11.233 7.995z" fill="#e4c5c0" fill-rule="evenodd"/><path d="M279.67 202.597c-27.063.44-48.73-4.477-62.482-12.472v.44c14.592 9.354 37.937 15.11 64.561 15.11 33.74 0 62.482-9.754 74.555-23.106v-7.555c-6.636 13.792-35.818 27.583-76.633 27.583zm56.246-60.083s15.391 6.676 20.388 19.148v-5.796c-5.397-5.757-13.312-10.234-20.388-13.352z" fill="#e0bcb6" fill-rule="evenodd"/><path d="m212.99 202.118-.439.879c17.51 8.875 41.695 14.191 68.359 14.191 30.421 0 57.485-7.075 75.394-18.189v-6.196c-16.23 11.553-43.334 19.948-77.913 20.428-27.063.44-49.17-3.998-65.4-11.113zm133.32-66.56c.44.48 4.997 2.678 9.994 6.676v-.88c-3.318-2.238-7.076-3.997-9.994-5.796z" fill="#e6c9c5" fill-rule="evenodd"/><path d="M356.304 204.396c-18.309 8.835-43.733 15.51-74.115 15.51-42.095.44-74.595-7.555-91.664-20.867h-.44c18.748 15.55 54.167 25.265 94.582 25.265 27.504 0 52.489-5.317 71.637-13.712v-6.196z" fill="#f4dfdc" fill-rule="evenodd"/><path d="M283.028 232.3h-.839.84zm73.276-15.072c-20.787 7.116-48.29 11.553-73.715 11.553-67.44 0-122.006-26.184-122.006-58.604s54.567-59.044 122.006-59.044c25.424 0 52.928 5.356 73.715 12.432v-3.997c-20.787-7.516-46.212-11.993-73.715-11.993-69.118 0-125.364 27.983-125.364 62.602 0 34.18 56.246 62.122 125.364 62.122 27.503 0 52.928-4.437 73.715-11.953M282.19 107.575h.839-.84z" fill="#d6a49e" fill-rule="evenodd"/><path d="M275.033 98.22c-8.315 0-15.39.88-22.466 3.518-1.68.44-4.997 1.32-5.837 3.118-2.518 4.398 3.758 2.639 6.237 2.2 7.915-.88 14.59-1.76 21.667-1.76h20.387c2.918.44 17.47 1.32 10.394-3.558-5.797-3.518-22.466-3.997-29.142-3.518z" fill="#f3e5e1" fill-rule="evenodd"/><path d="M268.797 99.54c-2.079 0-9.634 0-9.634 3.518 0 2.198 7.116 1.319 8.395 1.319 2.478-.44 4.997-.44 7.076-.44 1.679 0 3.358 0 4.597-.44 1.679-.88 2.079-2.198.84-3.518-2.08-1.759-7.116-.88-9.195-.88z" fill="#f9f1ef" fill-rule="evenodd"/><path d="M264.68 101.778h6.676c2.078.44 2.478-.48 4.117-.92-2.039 0-4.117-.479-6.196 0zm12.072-.919s0 .44-.4.44c.8.44 1.2.44 2 .44v-.88zm-55.406 71.956c-1.68-12.432 20.827-28.942 63.321-28.023-10.833.88-54.566 4.438-63.321 28.023z" fill="#fff" fill-rule="evenodd"/><path d="M206.715 171.536c-1.68-15.59 24.585-35.658 78.272-35.179-13.711 1.32-71.596 3.558-78.272 35.179z" fill="#fff" fill-rule="evenodd"/><path d="M192.204 169.217c-2.12-19.068 30.381-43.973 96.62-43.053-17.468 1.319-88.306 4.437-96.62 43.053z" fill="#f0d5d2" fill-rule="evenodd"/><path d="M236.337 171.856c-.84-7.516 13.352-18.629 40.016-18.15-7.076.44-34.58 3.519-40.016 18.15zm14.151-.32c-.44-3.998 7.076-9.834 20.828-9.834-3.718.48-17.91 2.239-20.828 9.834zM197.6 135.078c-17.51 8.875-56.685 43.934 17.91 79.392-26.225-13.712-61.243-46.572-17.91-79.392z" fill="#fff" fill-rule="evenodd"/><path clip-path="url(#a)" d="M356.304 129.322c-19.548-8.875-45.772-14.232-74.115-14.232h.84c-61.203 0-110.773 24.425-110.773 55.087 0 30.182 49.57 54.607 110.772 54.607h-.839c28.343 0 54.127-5.317 73.715-13.752" fill="none" stroke="#fff" stroke-width=".8" stroke-miterlimit="8"/><path clip-path="url(#a)" d="M355.744 139.435c-17.469-10.233-44.093-16.91-73.635-16.91h.84c-52.848 0-95.742 20.908-95.742 47.572 0 26.264 42.894 47.571 95.742 47.571h-.84c29.542 0 56.166-6.636 73.635-17.31" fill="none" stroke="#fff" stroke-width=".8" stroke-miterlimit="8"/><path clip-path="url(#a)" d="M355.744 154.586c-12.472-12.432-40.775-21.347-73.675-21.347h.84c-44.973 0-81.231 16.47-81.231 36.898 0 20.028 36.258 36.898 81.23 36.898h-.839c32.9 0 61.203-9.315 73.675-21.747" fill="none" stroke="#fff" stroke-width=".8" stroke-miterlimit="8"/><path d="M216.709 170.097c0 15.55 29.622 28.383 65.88 28.383h-.44c36.258 0 65.84-12.833 65.84-28.383 0-15.99-29.582-28.863-65.84-28.863h.44c-36.258 0-65.88 12.873-65.88 28.863" fill="none" stroke="#fff" stroke-width=".8" stroke-miterlimit="8"/><path d="M231.66 170.097c0 10.713 22.906 19.588 50.809 19.588h-.4c28.303 0 51.209-8.875 51.209-19.588 0-11.113-22.906-19.588-51.209-19.588h.4c-27.903 0-50.81 8.475-50.81 19.588" fill="none" stroke="#fff" stroke-width=".8" stroke-miterlimit="8"/><path d="M246.69 170.137c0 5.796 16.27 11.073 35.819 11.073h-.4c19.988 0 36.218-5.277 36.218-11.073 0-6.196-16.23-11.073-36.218-11.073h.4c-19.548 0-35.819 4.877-35.819 11.073" fill="none" stroke="#fff" stroke-width=".8" stroke-miterlimit="8"/><path d="M207.194 143.473c0-2.399 1.88-4.397 4.158-4.397 2.319 0 4.157 1.999 4.157 4.397 0 2.439-1.838 4.397-4.157 4.397-2.279 0-4.158-1.958-4.158-4.397zm8.636-4.437c0-1.2.959-2.199 2.118-2.199 1.2 0 2.119 1 2.119 2.199 0 1.239-.92 2.198-2.12 2.198-1.158 0-2.118-.959-2.118-2.198zm-13.273 9.594c0-1.32 1.04-2.439 2.319-2.439 1.319 0 2.318 1.12 2.318 2.439 0 1.36-.999 2.438-2.318 2.438-1.28 0-2.319-1.079-2.319-2.438z" fill="#fff" fill-rule="evenodd"/><path clip-path="url(#a)" d="M282.229 232.34h.84-.841zm74.115-112.732c-20.787-7.516-46.212-11.993-73.715-11.993-69.118 0-125.364 27.983-125.364 62.602 0 34.18 56.246 62.122 125.364 62.122 27.503 0 52.928-4.437 73.715-11.953m-74.115-112.771h.84-.84z" fill="none" stroke="#fff" stroke-width="1.359" stroke-miterlimit="8"/><path d="M264.2 118.208c-55.367 3.998-97.86 26.224-95.382 53.768 2.078 27.063 35.818 34.619 35.818 34.619 7.076 1.319 3.758 2.198-1.639-1.32-18.349-10.673-59.604-59.523 61.203-87.067z" fill="#f3e5e2" fill-rule="evenodd"/><path d="M219.187 127.882c-25.824 7.116-49.97 24.905-48.29 44.454 1.239 16.43 14.59 23.505 14.59 23.505-12.512-9.314-27.942-42.614 33.7-67.959z" fill="#fff" fill-rule="evenodd"/><path d="M189.285 126.124c2.479-.88 4.558-3.079 8.315-4.438l.84-1.319c18.309-19.548 47.051-26.664 79.552-26.664h-.4.4c31.66 0 60.003 6.676 78.312 25.345V79.032c-18.709-7.555-43.733-12.472-71.237-12.472-79.951 0-134.958 34.699-161.182 54.247-8.355 6.236-9.594 12.912-12.952 17.789v2.678c.44 7.076 2.518 6.197 7.915 3.998 5.437-2.239 6.276-8.475 12.952-9.794 6.636-1.32 4.557 1.759 9.994.44 5.397-1.32 5.397-6.676 11.633-7.556 6.276-.88 9.194 4.877 14.591 3.118 4.997-1.799 6.236-5.356 11.273-7.115 5.397-1.76 5.397 3.118 9.994 1.759z" fill="#a9d0ca" fill-rule="evenodd"/><path d="M143.913 107.135C173.935 88.426 221.826 66.6 285.147 66.6c27.464 0 52.488 4.917 71.197 12.472" fill="none" stroke="#fff" stroke-width="1.359" stroke-linecap="round" stroke-linejoin="round" stroke-miterlimit="10"/><path d="M253.007 70.557c.8 3.158.8 5.357.8 8.475-.4 2.239-.4 5.797-2.08 7.156-2.078 2.198-3.757-.44-4.597-2.239-1.679-2.678-4.157-4.917-6.276-7.595 2.518.92 4.597 1.799 5.437-1.32 0-1.319-.4-2.238 1.279-2.678.84-.44 3.318.44 3.758-.88zm9.114-1.199c.84 2.638-1.28 13.192 3.718 11.873 1.679-.44 3.358-3.518 4.197-4.837.8-2.639.4-6.157 0-8.795-.44 1.32-.44 3.958-2.078 4.397-2.12.44-2.519-2.638-4.198-2.638z" fill="#7ebdb3" fill-rule="evenodd"/><path d="M178.412 33.38C146.79 46.252 113.89 67.56 84.309 93.743c10.434-13.751 43.334-45.292 89.106-65.24 29.582-13.352 66.2-21.347 101.578-19.548-16.63 2.678-54.926 7.115-96.581 24.425z" fill="#fff" fill-rule="evenodd"/><path d="M356.344 59.964c-22.067-7.476-46.252-12.313-73.795-12.313 0 0 0 0 0 0" fill="none" stroke="#000" stroke-width="1.359" stroke-linecap="round" stroke-linejoin="round" stroke-miterlimit="10"/><path d="M206.395 83.59c3.318.479 4.557 6.196 7.475 7.955 2.08 1.319 4.158-.88 6.197.44-3.278-3.958-9.515-7.036-13.672-8.396zm14.951-3.199c3.758.88 4.197 5.797 7.076 7.556 2.918 1.319 4.197-.44 7.075-.44-2.878-3.558-11.633-5.757-12.872-10.234zm87.427-6.156c-.84 5.317-5.837 6.636-7.955 11.033 3.797 2.639 6.276 0 5.876-4.397 2.519 0 3.318-1.759 2.519-4.397zm-6.596-5.357c-1.24 3.118-1.24 2.679-2.878 5.357-1.28 1.759-2.519 3.118-4.198 4.877-2.079 1.759-9.994.88-12.073-.44 2.08-2.678-.839-4.437 2.08-5.796 2.917-.88 7.515-.44 11.672 0zm-28.423 2.679c-.44 3.078.44 6.995 3.358 6.995.44-2.158.84-5.676 2.519-7.435zm60.843 4.357c-1.639 2.239-18.269 7.116-10.793 11.993 2.079-4.438 6.236-4.438 10.393-5.757 3.718-1.759 6.636-2.238 10.754-3.118zm21.707 11.993v4.077c-5.836.88-10.873 3.118-17.19 3.118l6.317-2.238c4.197 0 7.115-2.679 10.873-4.957z" fill="#7ebdb3" fill-rule="evenodd"/><path d="M328.001 78.552c-1.279 1.36-12.552 9.435-3.758 10.314 4.158 0 7.916-7.595 13.752-7.156-3.318.88-9.994 4.038-13.352 2.679zm-43.374-.319c3.358 2.198 12.513 6.636 11.274-2.24-1.68 3.559-10.434 1.36-12.113-3.117zm-14.99-.96c-2.879 4.837-5.357 5.277-7.436-.88zm-33.26 8.955c-2.519 2.638-6.756 3.038-8.875 0zm-23.826 5.277c2.958.44 4.597 3.038 7.516 1.319 0-2.639-2.08-3.958-3.758-3.518z" fill="#00a096" fill-rule="evenodd"/><path d="M313.81 72.876c-2.918 3.598-4.198 8.035-5.477 12.472 4.637.88 5.917-6.676 7.995-9.794zm42.494 13.352c-6.636 3.118-15.39 0-19.988 7.115 2.119.88 4.198.88 6.676-.44zM244.692 72.396c2.078 1.799 7.515 5.357 7.915 8.475.4 2.239-.4 6.236-3.758 3.598-1.24-1.36-.84-5.797-2.518-7.156-1.64-2.239-4.558-3.558-6.676-4.917z" fill="#54aea5" fill-rule="evenodd"/><path d="M250.048 77.753c1.68 1.32 4.957 7.515.44 7.515-1.679 0-3.718-6.636-4.997-7.995zm60.404-.48c.44 2.679-.84 5.837 0 8.475 2.079-1.32 3.758-3.558 4.997-5.317zm32.82 9.834c-1.639 4.038-6.156 3.118-8.635 6.676 1.68 0 3.718.44 5.357 0z" fill="#00887d" fill-rule="evenodd"/><path d="M217.508 79.912c2.519.919 1.68 2.718 3.358 4.037.84.88 2.958 1.36 3.798 1.799 1.24 1.32 4.597 3.998 6.676 3.558m22.946-16.03c2.079 6.676-1.24 19.987-7.915 9.794m39.536-12.833c-5.877 6.157-1.68 9.675 4.597 10.994 8.355 1.319 5.836-3.078 11.673-7.476m-31.661-2.638c-.4 3.997-.84 10.154-5.517 9.714" fill="none" stroke="#fff" stroke-width=".8" stroke-linecap="round" stroke-linejoin="round" stroke-miterlimit="10"/><path d="M91.784 219.027h-14.59c-37.058.44-62.043 34.14-58.685 29.263 22.066-29.263 39.136-35.899 74.515-37.258 4.997 0 17.509.48 21.227.48 16.23 0 25.424 1.319 33.3 5.756z" fill="#e4f4fc" fill-rule="evenodd"/><path d="M123.445 178.572c-1.24.88.4 1.759.4 3.997.44-2.238.84-3.557 1.28-3.997-.84-.44-1.68-.44-1.68 0zm7.076-5.757c-1.68 0-3.318-.48-3.318.44-.44 1.32 2.079 1.32 3.718 2.638-.4-.88-.8-2.198-.4-3.078zm-19.588 8.875c-1.64 2.638 0 5.317-.4 6.636.84-2.199.84-5.757 3.758-7.076-1.24-.44-2.918-.44-3.358.44zm-10.394 3.558c-2.079 1.319 0 3.518 0 5.756.4-2.238 1.68-3.558 3.318-4.437l.84.44c-1.24-1.32-2.479-2.679-4.158-1.76zm-15.83 3.078c-3.758 1.799-.4 5.796-1.24 8.874.4-4.877 3.318-7.955 5.837-8.434-1.68-.88-2.918-1.32-4.597-.44z" fill="#70082d" fill-rule="evenodd"/><path d="m121.406 160.343.4.92v.439c2.079 5.317 4.158 5.757 6.676 6.196l1.64.44c.839 0 1.278.44 1.278.44s0 .48-.44 1.359c-.4.44-.839.44-2.078.44-.84 0-3.318-.44-3.758 2.198 0 .48-.4.48-.4.92 0 1.759 2.08 2.638 3.318 3.078 1.28.92 1.68.92 1.68 1.359-.84 0-1.68-.44-2.08-.88-2.078-.919-4.157-2.238-5.836-.48-.84.92-.84 1.8-.84 2.24 0 1.319.44 2.198.44 2.678-.84-.48-1.679-.92-2.918-.92-3.358-1.758-7.076-3.517-9.154-.44-1.28 1.36-1.28 2.68-1.28 3.998 0 .88 0 1.8.44 2.239-.84 0-1.679-.44-2.078-1.36-1.68-1.318-3.758-3.517-6.676-1.758-2.919 1.319-2.08 4.437-1.64 5.756.4 1.36.4 1.8-.44 2.679-.399.44-2.917-1.76-4.157-2.679-2.478-2.198-5.836-4.877-9.554-3.078-4.197 2.199-3.358 5.757-2.918 7.995.4 1.76.8 2.639.4 3.078-.84.44-1.68.44-4.558.44-3.358 0-8.355 0-16.67 2.679-13.751 4.437-20.387 8.874-29.981 18.189-2.919 2.238-21.227 25.784-27.064 33.3 7.076-8.875 14.191-17.31 22.067-25.745 0 0 2.078-3.078 5.436-5.317 9.155-9.314 16.63-13.751 29.942-18.189 14.591-4.437 19.149-.92 22.067-3.997 2.918-2.679-2.479-7.995 2.079-10.234 4.997-2.639 10.433 8.435 14.151 5.317 3.758-3.078-.8-6.636 1.679-8.435 2.918-1.32 4.997 4.477 8.315 3.997 3.758-.44 0-4.437 2.079-7.515 2.078-3.118 11.273 4.437 12.512 1.759 1.64-2.679-1.24-3.558 0-4.877 1.24-1.8 7.076 4.877 8.315.44 1.24-3.998-4.997-3.998-4.597-5.757.44-1.36 3.358.44 5.437-1.799 1.639-2.199.84-4.437-2.08-5.317-2.917-.88-6.675 0-8.754-5.316z" fill="#dbafb4" fill-rule="evenodd"/><path d="M61.443 125.244c4.197 4.038 21.227 8.475 24.585 8.915 3.318.44 11.233-.44 13.312 0 2.079 0 1.679 1.759 1.679 3.118 0 1.759 1.239 2.638 1.239 2.638s1.639-.88 0 0c-1.679.44-3.318-.88-3.758-2.198-.4-1.36-7.475-.44-12.472-.88-4.997 0-19.988-6.676-24.585-11.593z" fill="#c0d1dc" fill-rule="evenodd"/><path d="M26.824 139.915c2.078-1.319 9.594-8.475 12.072-4.917 2.479 3.118-4.557 11.153-4.997 13.352 1.68-3.558 5.837-6.676 8.315-9.754 2.08-2.678 6.676-10.274 9.555-12.033-.4 0-3.318-1.359-3.718-1.359-1.68-1.759 0-4.877 0-6.676-4.597 4.477-14.152 14.711-18.709 18.709zm27.503-27.063c3.758 0 4.997 3.557 4.997 4.437 0 .44 9.154-13.392 9.154-13.392l-4.557 1.799z" fill="#1dbbe9" fill-rule="evenodd"/><path clip-path="url(#a)" d="M351.267 54.647c-125.724-43.094-214.43 37.777-232.34 63.082C139.756 83.069 233.46-.04 351.268 54.647z" fill="#c0d1dc" fill-rule="evenodd"/><path d="M75.914 126.243c9.594 3.079 18.749 3.958 24.185 1.32 5.397-2.679 8.755-6.636 13.312-3.118-4.997-4.877-9.994-.88-14.99 1.798-4.998 2.639-20.828.88-22.507 0zm-6.956 4.837c5.037 4.478 19.588 6.677 25.825 5.797-5.797 2.199-21.627 1.759-25.825-5.796zm-16.63 1.28c-7.475 8.035-46.691 56.446-46.691 56.446 14.59-7.556 42.974-50.65 46.691-56.446z" fill="#fff" fill-rule="evenodd"/><path d="M8.995 217.668c13.351-18.189 65.84-63.961 90.425-75.474l2.878-2.239-3.718-2.238s-53.727 31.1-89.585 79.951z" fill="#c0d1dc" fill-rule="evenodd"/><path d="M93.423 136.797c3.398.44 1.28 2.718 0 4.038.88 0 9.675-3.598 5.077-4.957z" fill="#c0d1dc" fill-rule="evenodd"/><path d="M247.93 83.15c-.44 2.638 1.679 3.078 3.358 1.759 1.679-.88 2.118-3.079 2.518-5.317-.84.92-1.24 3.118-2.518 3.558-.84.44-2.519-.44-3.798-.44zm74.595.44c-.84 1.319-2.519 2.638-.84 4.397 1.28.88 4.637-.44 5.437-1.32-.8 0-2.479 1.32-3.758.44-1.24-.88-.4-2.638-.84-3.997zm15.39 3.517c-2.478 1.32-4.157 3.958-2.478 6.156 2.078 2.639 5.356 0 7.835 0-4.957.88-6.996-3.078-4.517-7.035z" fill="#007655" fill-rule="evenodd"/><path d="M343.272 85.748c-4.997-1.36-9.994 3.998-8.715 7.995 1.24 3.998 9.954-.44 17.47 0 1.239 0 2.478 0 3.717.44m-27.383-18.589c-1.28 2.679-7.555 7.516-7.116 10.594.4 5.716 4.598 2.198 7.955.44 4.598-1.76 13.792-7.036 18.79-5.277" fill="none" stroke="#fff" stroke-width=".8" stroke-linecap="round" stroke-linejoin="round" stroke-miterlimit="10"/><path d="M219.667 81.35c1.679 2.64 3.758 3.079 6.236 4.438.84.88 1.64 1.759 2.878 2.199 1.68.88 3.758.44 4.558-.88-2.04.88-5.357-1.319-7.036-3.118-.8-1.32-.8-1.759-2.479-1.759-1.239-.44-2.878-.44-4.157-1.359z" fill="#00a096" fill-rule="evenodd"/><path d="M225.823 85.708c.88 1.36 4.238 3.558 5.917 3.118 2.958-.44.879-3.997-.84-4.917.84 2.239.84 4.477-2.119 3.598z" fill="#00887d" fill-rule="evenodd"/><path d="M229.181 80.871c1.72 1.799 2.998 3.118 3.438 5.357.4 1.359.4 3.997-1.719 3.118" fill="none" stroke="#fff" stroke-width=".8" stroke-linecap="round" stroke-linejoin="round" stroke-miterlimit="10"/><path d="M216.709 92.864c.84 0 2.118.88 2.958-.48.4-1.36-.44-1.36-.84-1.839.4 1.4-1.279 2.319-2.118 2.758zm73.795-12.912c2.079.44 3.718 1.319 5.756 0 1.24-.88 2.879-3.958 2.479-5.717-2.878 1.759-4.118 4.837-7.795 5.277z" fill="#00887d" fill-rule="evenodd"/><path d="M284.667 77.753c1.68 2.199 5.837.44 8.315 1.32 0 2.198-3.318 1.318-4.557.439z" fill="#00887d" fill-rule="evenodd"/><path d="M303.416 81.75c-1.639.88-2.918 3.518-.4 4.398 2.479.4 4.118-2.639 3.318-4.398-.44.88-3.318 4.798-3.318 1.76z" fill="#54aea5" fill-rule="evenodd"/><path d="M302.177 84.389c0 2.718 4.157 2.278 3.358 0-.44 1.359-1.28 1.839-2.519.92z" fill="#00887d" fill-rule="evenodd"/><path d="M160.942 115.49c3.358.44-.839 2.638 0 4.437.84 1.76 3.798 3.518 5.437 3.518 1.68.44 3.358.44 4.637-.88 1.24-1.758.4-2.638.8-4.876 1.28-3.078 6.276-4.877 5.876-7.956-2.918-.48-5.436 2.2-8.355 2.2zm21.628 0c2.078.44 4.157 2.239 4.996 3.998.84 1.359.84 4.037 2.08 4.037 2.877 1.32 2.478-3.558 2.877-4.917.44-2.239 2.919-3.558 3.318-5.796-2.478-.92-6.196.88-8.674 1.799zm-28.663-3.518c-2.519.88-8.395 3.518-9.674 6.156-.4 2.2-.84 1.32 1.279 2.639 1.24.88 5.037 1.759 6.716 1.319 3.757-.88 2.078-4.397 3.757-7.475 1.68-2.639 5.877-2.639 6.277-5.757z" fill="#7ebdb3" fill-rule="evenodd"/><path d="M162.262 115.97c1.679 2.198 0 3.997 1.239 5.756 1.24 1.8 4.957 3.118 6.196.48-4.517-4.477-.8-4.917-.4-9.834-2.078.48-3.717 1.799-5.796 1.799zm21.986-1.36c3.758.88 4.997 4.398 5.837 7.916 1.239-4.398-2.479-7.036 2.478-9.674-1.239 0-2.878.44-4.157 0zm-35.818.44c-1.639.48-4.557 2.239-3.718 4.478.84 1.319 5.797 0 7.436 1.319-2.039-3.998-2.039-4.877 1.239-8.475z" fill="#54aea5" fill-rule="evenodd"/><path d="M186.727 116.85c.44.479 2.558 7.515 3.798 5.756.839-1.32-2.08-3.078-.4-5.757zm-23.227.399c-.439 3.078 1.2 5.277 4.038 4.837-1.199-.88-2.438-1.759-2.838-3.518zm-14.27-1.679c-1.24.88-5.837 3.958-1.64 4.797 0-.4 0-1.28-.44-1.719z" fill="#00887d" fill-rule="evenodd"/><path d="M85.588 203.836c-4.997 0-9.154.48-11.633 0-2.518 0-8.755 0-16.23 2.679-12.912 4.437-17.51 4.877-26.264 13.312" fill="none" stroke="#fff" stroke-width=".8" stroke-linecap="round" stroke-linejoin="round" stroke-miterlimit="10"/><path d="M110.213 141.314c.84 2.199 3.318.44 4.557-.48-1.239 3.998 2.08 3.998 4.598 2.679-.84.88-1.24 3.958 0 4.877.84.44 3.757-2.239 4.157-3.118-.4.88-.4 1.759 0 2.638 0 .92.84 0 .84.92.4.88-1.24 3.957-1.24 4.837-.44 1.759-1.239 3.558-1.239 5.317-.44 1.319 0 2.638-.44 3.518h-3.318c-2.918 0-2.918-.88-4.157-3.518-1.28-1.76-2.918-2.639-3.758-4.438-1.279-2.638.4-6.156.4-8.834z" fill="#a42149" fill-rule="evenodd"/><path d="M142.993 155.985c-4.957-7.555-4.957-19.588 10.394-23.146-1.639 0-3.318 0-4.557.48-4.997.88-21.627 7.995-24.945 17.31-3.758 8.914-2.479 11.113-.4 12.912 2.079 1.759 7.036 2.638 7.036 2.638z" fill="#890938" fill-rule="evenodd"/><path d="M123.885 150.589c-3.758 8.914-2.479 11.153-.4 12.952 1.64 1.32 4.997 2.199 6.636 2.638h1.68l-.84-2.638s-3.318-1.36-4.158-5.357c-.84-3.558 2.519-12.912 7.476-16.95-4.558 1.8-8.715 4.917-10.394 9.355z" fill="#70082d" fill-rule="evenodd"/><path d="M97.58 218.548c17.51-1.76 56.687 3.557 69.998 9.314 29.583 11.553 56.686 27.943 105.856 27.943 49.13 0 65.4-16.39 82.87-27.463v-.92c-21.227 7.116-46.212 13.752-73.715 13.752-50.85 0-77.913-10.194-107.095-21.267-13.312-6.237-60.404-10.234-77.913-7.995z" fill="#e4f4fc" fill-rule="evenodd"/><path d="M184.728 223.505c21.267 14.23 75.394 39.496 144.073 14.23-27.064 4.438-91.185 11.954-144.073-14.23zm-12.153-5.037c3.798.48 7.156 1.838 8.795 4.517-3.318 4.517-4.997 2.718-7.955-1.32z" fill="#fff" fill-rule="evenodd"/><path d="M130.56 166.14c-2.917-.92-6.675 0-8.754-5.357-.4-1.76-.4-3.998 0-6.636-1.24-2.679-2.079-6.237-2.478-9.355l-.44.44c-5.397 2.239-7.476 3.118-7.915-3.998l-.4-3.997a420.859 420.859 0 0 0-32.46 21.347c-4.158 3.078-8.315 6.196-12.513 9.314-3.318 2.679-6.236 5.317-9.554 7.556-1.679 1.759-3.318 3.118-4.997 4.437-1.24 1.32-2.918 2.678-4.157 3.998h-.44c-2.878 2.678-5.797 5.316-9.155 7.995-1.239 1.319-2.478 2.638-4.157 3.997-1.64 1.76-2.918 3.118-4.557 4.877-2.919 2.679-5.837 5.757-8.755 8.435-.4.44-.4.44-.84.88-2.478 2.678-5.396 5.796-7.915 8.874-2.918 2.679-5.396 5.797-7.915 8.435v24.425c7.076-8.874 14.191-17.31 22.067-25.744 0 0 2.078-3.118 5.436-5.317 9.155-9.314 16.63-13.751 29.942-18.229 14.591-4.437 19.149-.88 22.067-3.997 2.918-2.639-2.479-7.995 2.079-10.194 4.997-2.679 10.433 8.435 14.151 5.317 3.758-3.118-.8-6.636 1.679-8.435 2.918-1.32 4.997 4.437 8.315 3.997 3.758-.44 0-4.437 2.079-7.555 2.078-3.078 11.273 4.437 12.512 1.799 1.64-2.679-1.24-3.558 0-4.877 1.24-1.8 7.076 4.877 8.315.44 1.24-3.998-4.997-3.998-4.597-5.797.44-1.32 3.358.44 5.437-1.759 1.639-2.239.84-4.437-2.08-5.317z" fill="#a42149" fill-rule="evenodd"/><path d="M277.592 85.748c-39.976 0-67.44 13.352-81.59 24.905l-7.116 15.55h.44c2.478-.879 4.556-3.078 8.314-4.437l.84-1.319c18.309-19.548 47.051-26.664 79.552-26.664h-.44.44c31.66 0 59.963 6.636 78.272 25.345v-11.593c-12.872-9.315-42.894-21.787-78.712-21.787z" fill="#54aea5" fill-rule="evenodd"/><path d="M193.043 104.337c.84 1.799 2.518 3.997 4.197 4.877 3.718 1.319 5.397-1.76 8.315-3.558 8.715-6.196 19.549-10.634 29.942-11.953-2.478-1.799-7.475 0-9.954.44-3.757.88-7.515 1.759-11.273 3.118-4.557 2.199-8.715 4.877-13.712 5.757-2.518.44-5.396 1.319-7.515 1.319z" fill="#54aea5" fill-rule="evenodd"/><path d="M224.704 95.982c7.115-1.32 11.273-8.435 19.188-7.955 6.636 0 12.073-.48 18.31-2.679 5.836-2.238 11.672-1.759 17.469-.88 5.436.88 10.833-.439 16.67 0 6.236 0 12.072 3.998 18.748 3.998 5.837 0 7.915.44 12.912 3.518 1.24.92 3.318 1.8 4.997 2.679 1.64 1.759 2.918 3.997 5.397 4.877 2.079.88 4.597.88 6.236 1.759 1.68.48 2.918 1.799 4.158 1.799l-3.318 2.638-25.825-11.513-34.979-4.437z" fill="#54aea5" fill-rule="evenodd"/><path d="M196.401 106.655c.84.88 1.679 1.32 2.518 2.679.4 0 2.479 3.997 2.479 3.997 2.079.88 3.758-2.238 4.997-3.558 7.076-6.276 20.388-10.273 29.102-13.871-3.318.48-9.954.48-12.872 1.799-3.758 1.359-7.076 1.799-10.394 4.037-2.518 1.76-4.597 3.118-7.475 3.998-2.519.44-4.597.44-6.676 1.36zm71.557-15.55c13.751-1.32 28.342-.44 42.094 3.118 5.437 1.32 11.273 2.199 16.71 4.397 4.997 1.8 11.233 2.239 15.39 5.757-4.996-3.518-10.833-10.594-16.67-11.513-4.557-.88-9.154-1.32-13.75-2.199-4.158-.44-8.756-3.558-12.913-3.078-1.68 0-2.918.88-4.597 1.32-2.08 0-4.158-.44-6.237-.88-3.358 0-7.515-.92-10.833-.44-5.836.44-12.113.44-17.55 2.199-2.918.88-5.836 3.078-8.754 3.557 4.597-2.238 10.034-.48 14.591-1.798z" fill="#00887d" fill-rule="evenodd"/><path d="M198.4 108.374c2.118.92 2.118 3.118 2.958 4.877 1.679-1.319 2.958-3.518 5.037-4.877-1.24.92-3.758 2.239-5.037.48z" fill="#007655" fill-rule="evenodd"/><path d="M157.225 105.776c5.037-5.397 12.552-9.874 19.188-11.233-1.639 3.158-5.836 4.517-8.315 6.756-2.518 2.238-4.997 4.917-8.355 4.477zm19.508-2.718c4.197 1.319 6.676 0 10.434-2.2 3.318-1.758 5.396-1.318 8.714-1.758 3.318-.44 4.997-2.638 7.476-4.877-2.479 3.118-8.715 1.799-12.033 2.678-4.997.44-9.154 1.76-12.512 6.157z" fill="#7ebdb3" fill-rule="evenodd"/><path d="M191.364 91.065c2.958-.44 13.392 6.676 15.07 2.678 1.64-3.558-5.036-4.877-6.275-6.236-.84-.88-1.24-1.759-1.68-2.239 0 1.8 2.919 3.118 2.52 4.917-.44 1.8-2.52 1.8-3.759.88z" fill="#7ebdb3" fill-rule="evenodd"/><path d="M180.09 103.137c2.92 3.079 8.716-3.997 11.594-4.917-4.118.48-7.036 3.558-11.153 3.998zm-21.666 2.199c4.197 1.76 7.915-2.678 9.994-6.236-1.64 1.36-3.318 3.118-4.997 3.558-1.24.92-2.479.92-4.158 1.359zm42.134-12.073c2.519 5.277 9.994-3.078 1.68-4.397 1.239 1.76 3.757 3.958.839 4.837z" fill="#00a096" fill-rule="evenodd"/><path d="M205.515 90.545c.84 2.718 4.158 7.675-1.679 4.997 1.28-.92 2.12-2.279 1.68-4.077zm-24.145 12.513c2.119 2.678 5.037-.88 5.837-2.679-.8 1.8-2.919 2.239-4.997 2.679zm-22.146 2.198c2.118 1.28 6.316-.88 6.316-3.038-1.68 1.759-3.358 2.598-5.437 2.159z" fill="#00887d" fill-rule="evenodd"/><path d="M215.15 86.548c1.639 1.798 4.917 2.718 4.917 5.836-.4 3.998-4.917.88-7.836 1.32m-11.673 1.318c2.12 1.32 6.277 3.518 6.716 0 .8-3.517-2.518-6.156-4.597-7.915m70.318-12.472c.44 1.759 1.279 5.277 2.918 5.277 2.918 0 3.718-7.916 3.718-9.675" fill="none" stroke="#fff" stroke-width=".8" stroke-linecap="round" stroke-linejoin="round" stroke-miterlimit="10"/><path d="M273.794 74.675c.44 1.359 1.28 2.678 1.719 3.558 2.119-.44 2.519-3.558 1.679-5.357.44 1.799-.4 2.678-2.119 2.238z" fill="#00a096" fill-rule="evenodd"/><path d="M274.674 77.713c.4.44.4.84.8.84 1.198-.4 1.998-1.68 1.598-2.959-.4.88-.8.44-1.599.88z" fill="#00887d" fill-rule="evenodd"/><path d="M140.595 162.222c5.436-2.679 20.427-11.154 22.946-12.033 2.878-1.36-4.198 3.998-4.198 3.998l-18.308 9.354z" fill="#e8d1c8" fill-rule="evenodd"/><path d="M161.822 188.326c.44 4.877-1.64 7.555-5.397 9.754-1.639 1.32-4.157.44-4.157 3.118 7.915.44 14.95 2.638 21.986 5.277-3.318-3.958-11.593-7.955-11.593-14.152z" fill="#ca978d" fill-rule="evenodd"/><path d="M218.068 104.856c-2.079 2.679-2.918 5.797-2.479 9.355-5.476 1.319-10.074 2.678-14.71 4.877 1.678-4.877 7.994-6.636 11.752-9.754zm117.329 7.036c5.396-.44 11.233 1.76 16.19 2.639-6.196-3.518-12.872-6.636-19.108-10.634z" fill="#e2c2bb" fill-rule="evenodd"/><path d="M122.286 155.546c2.918-13.752 24.585-22.627 36.658-23.506 10.833-.92 21.227-3.998 32.06-7.116 4.997-1.359 15.39-7.995 5.397-15.11-2.079-1.32-5.797-6.237-7.915-5.757-3.318.88-6.236 2.638-9.554 2.638-3.358 0-5.837-2.638-10.434-1.319-4.557 1.76-5.397 3.118-10.394 3.118-3.758-.44-5.836-2.238-9.594-2.238-3.758 0-7.915 2.238-9.994 4.877-1.639 1.799-9.994 4.437-12.912 7.995-1.64 1.799-7.076 8.914-8.315 10.673-2.918 3.558-5.837 6.237-8.355 10.234z" fill="#54aea5" fill-rule="evenodd"/><path d="M109.254 140.795c3.358-1.76 8.355-7.516 10.433-10.634 2.08-3.078 4.158-4.437 6.277-7.515 2.918-3.998 7.915-4.877 11.673-7.995 4.557-4.438 6.636-5.757 13.312-4.438 4.597.88 8.754 1.8 13.751.44 4.597-1.32 6.276-3.078 12.113-1.32 3.758 1.32 9.994-3.117 13.312-.879 3.757 3.118 8.754 7.076 5.436 9.754-4.996 3.998-19.588 6.197-25.024 7.516-7.076 1.359-13.752 3.118-20.828 4.877-7.515 1.799-14.191 4.437-20.427 9.314-3.318 2.679-7.916 11.553-7.916 15.95-2.518-3.517-4.997-9.714-7.515-13.271z" fill="#aad0cb" fill-rule="evenodd"/><path d="M121.406 155.066c-2.078-2.199-.4-5.756-1.639-8.435-1.679 1.799-2.518-1.759-2.518-3.078-2.519.88-3.798-1.799-3.358-3.998-1.679.88-2.958-.48-4.197 0-2.12 1.32-.84 1.32 0 2.639 1.239 1.799 2.918 3.118 4.197 5.357 1.679 2.638 2.079 5.316 5.037 7.075z" fill="#a42149" fill-rule="evenodd"/><path d="M133.879 117.249c6.676-2.638 7.915-6.596 11.233-7.476 3.358-.879 7.516 2.2 13.752 1.32 5.836-.88 9.154-2.639 13.312-2.639 3.717-.44 4.557 1.76 9.154.88 4.158-.88 7.875-1.76 7.875-1.76-6.236 3.079-8.714 4.398-12.032 3.958-3.358-.44-8.315-.44-14.152 1.76-6.236 2.198-9.994.44-13.312-.44-3.318-.88-12.912 2.638-15.83 4.397z" fill="#008b7e" fill-rule="evenodd"/><path clip-path="url(#a)" d="M357.463 120.407c-18.309-19.508-47.45-26.624-79.911-26.624h.4c-32.46 0-61.163 7.116-79.512 26.624" fill="none" stroke="#000" stroke-width="1.359" stroke-miterlimit="8"/><path d="M123.445 178.572c-1.24.88.4 1.759.4 3.997.44-2.238.84-3.557 1.28-3.997-.84-.44-1.68-.44-1.68 0zm7.076-5.757s0 0 0 0c-1.68 0-3.318-.48-3.318.44-.44 1.32 2.079 1.32 3.718 2.638-.4-.88-.8-2.198-.4-3.078zm-19.588 8.875c-1.64 2.638 0 5.317-.4 6.636 0 0 0 0 0 0 .84-2.199.84-5.757 3.758-7.076 0 0 0 0 0 0-1.24-.44-2.918-.44-3.358.44zm-10.394 3.558c-2.079 1.319 0 3.518 0 5.756.4-2.238 1.68-3.558 3.318-4.437l.84.44c-1.24-1.32-2.479-2.679-4.158-1.76zm-15.83 3.078c-3.758 1.799-.4 5.796-1.24 8.874 0 0 0 0 0 0 .4-4.877 3.318-7.955 5.837-8.434-1.68-.88-2.918-1.32-4.597-.44z" fill="none" stroke="#70082d" stroke-width=".8" stroke-linecap="round" stroke-linejoin="round" stroke-miterlimit="10"/><path clip-path="url(#a)" d="M3.158 227.502c2.519-2.638 4.997-5.756 7.915-8.435 2.519-3.118 5.437-6.196 7.915-8.874.44-.44.44-.44.84-.88 2.918-2.678 5.836-5.796 8.755-8.475a545.993 545.993 0 0 0 4.597-4.877c1.639-1.319 2.918-2.678 4.157-3.997 3.318-2.679 6.237-5.317 9.155-7.995h.4c1.279-1.36 2.918-2.679 4.197-3.998 1.639-1.36 3.318-2.678 4.997-4.437 3.318-2.239 6.236-4.917 9.554-7.556 4.158-3.118 8.355-6.236 12.513-9.354 10.393-7.556 21.227-14.671 32.46-20.907" fill="none" stroke="#000" stroke-width=".8" stroke-miterlimit="8"/><path d="M3.158 186.167c12.113-15.07 49.97-59.963 51.649-62.202 9.994-14.192 22.506-30.662 38.297-46.212" fill="none" stroke="#000" stroke-width=".8" stroke-linecap="round" stroke-linejoin="round" stroke-miterlimit="10"/><path d="M162.981 152.388c-.44-1.36 4.557-5.797 4.158-7.156-1.24 4.038-11.233 10.234-15.391 13.352-4.597 3.558-10.833 7.116-14.191 8.035.44 0 .84.44.84 1.32.439.439.439 1.318 0 1.318l.439.44s7.076-5.317 12.472-8.435c4.598-2.678 8.355-7.555 11.673-8.874zm-3.278 3.957c-.4.92-.84 2.239-2.079 3.558-3.318 2.678-6.675 4.917-9.993 7.995-2.519 2.679-10.834 8.875-15.391 10.674v.44c0 .879-.84 1.758-2.119 2.198 3.758 0 9.195-5.317 19.189-12.872 7.075-5.317 7.075-5.757 9.154-6.636-.44-.88 1.639-3.998 1.24-5.357zm11.673-14.191c.4-1.8 11.273-8.915 11.673-10.274-2.079 2.678-17.51 11.153-20.867 13.392-4.158 2.638-10.434 5.317-13.352 7.116-2.519 1.319-4.597 1.759-7.116 2.238 1.28.44 1.68 1.76 1.28 3.078 1.239-.88 3.317-2.198 4.597-2.638 2.078-.44 7.915-4.917 11.273-6.236 4.157-2.239 9.594-5.797 12.112-6.676h.4zm-11.273 40.896c0-.44 0-1.36-.44-1.36-.4 0-4.157.92-8.714 1.36-6.636 0-7.476.439-11.633 1.318-6.237.92-24.106 3.158-28.263 2.239-.4.92-.4 1.36-1.24 2.239-.4.44-1.239.44-1.679.44 4.598.879 11.633-1.32 20.788-3.119 7.915-1.319 18.269-3.558 29.102-1.799a22 22 0 0 1 2.878 1.36c-.4-.88-.799-1.8-.799-2.679z" fill="#fff" fill-rule="evenodd"/><path d="M109.014 140.035c2.478-3.997 5.397-6.676 8.315-10.234 1.24-1.759 6.676-8.874 8.315-10.633 2.918-3.558 11.273-6.196 12.912-7.995 2.079-2.639 6.276-4.877 9.994-4.877 3.758 0 5.836 1.759 9.594 2.238 4.997 0 5.837-1.359 10.394-3.118 4.597-1.32 7.116 1.32 10.434 1.32 3.318 0 6.236-1.76 9.554-2.64 2.118-.479 5.836 4.438 7.915 5.757 9.994 7.116-.4 13.752-5.397 15.071-10.833 3.118-21.227 6.237-32.06 7.116-12.073.88-33.74 9.754-36.658 23.506-.4 1.799-.4 5.356-.4 5.356 2.079 5.317 5.797 4.438 8.715 5.317 2.918.88 3.758 3.118 2.079 5.317-2.08 2.239-4.997.44-5.397 1.759-.4 1.799 5.836 1.799 4.597 5.796-1.28 4.438-7.076-2.238-8.355-.44-1.24 1.32 1.68 2.2 0 4.878-1.24 2.638-10.394-4.877-12.472-1.8-2.08 3.119 1.639 7.117-2.08 7.556-3.357.44-5.436-5.316-8.354-3.997-2.479 1.799 2.079 5.316-1.639 8.435-3.758 3.118-9.194-7.996-14.191-5.317-4.558 2.198.84 7.555-2.08 10.194-2.917 3.118-7.475-.44-22.066 3.997-13.312 4.438-20.827 8.875-29.982 18.19-3.318 2.238-5.396 5.356-5.396 5.356-7.916 8.395-14.991 16.83-22.107 25.704v-24.385c2.519-2.678 4.997-5.756 7.915-8.435 2.519-3.118 5.437-6.196 7.915-8.874.44-.44.84-.88.84-.88 2.918-2.678 5.836-5.796 8.755-8.435 0 0 0 0 0 0a545.993 545.993 0 0 1 4.597-4.877c1.639-1.359 2.878-2.678 4.157-3.997 3.318-2.679 6.237-5.317 9.155-7.995h.4c1.279-1.32 2.918-2.679 4.197-3.998 1.639-1.32 3.318-2.678 4.997-4.437 3.318-2.239 6.236-4.877 9.554-7.556 4.158-3.078 8.355-6.196 12.513-9.314 0 0 0 0 0 0 9.994-7.116 19.987-13.752 30.381-19.948" fill="none" stroke="#fff" stroke-width="1.359" stroke-linecap="round" stroke-linejoin="round" stroke-miterlimit="10"/><path d="M102.618 168.818c-.84.92-1.68 1.799-2.079 3.118 0 1.319.4 2.638 0 3.957-.44.88-1.28.44-2.119.88-1.239.44-2.078 2.199-2.518 3.078m14.231-10.154c3.278 0 1.24 3.158 2.079 5.357m.4-2.718c.44-1.28 1.239-1.72 2.478-2.16m5.037-2.638c2.119.88 2.958 3.518 2.119 6.157m.839-2.159c.44-.48 1.28-.48 1.68 0m-38.817 4.317c-.84 3.119.44 5.317 3.318 6.636" fill="none" stroke="#e5c6c7" stroke-width=".8" stroke-linecap="round" stroke-linejoin="round" stroke-miterlimit="10"/><path d="M89.786 180.81c-.84 1.32-.4 3.079.84 4.398m1.998-12.872c.8.48.8 1.838.8 2.718m-.001-1.839c.44-.44.84-1.36 1.68-1.36m10.473 3.199c1.2 1.759.8 3.958-.8 4.797" fill="none" stroke="#e5c6c7" stroke-width=".8" stroke-linecap="round" stroke-linejoin="round" stroke-miterlimit="10"/><path d="M105.896 178.492c.44.96.88 1.399.88 2.318m-31.182 2.719c-.8 1.319-.4 4.397 1.2 5.277" fill="none" stroke="#e5c6c7" stroke-width=".8" stroke-linecap="round" stroke-linejoin="round" stroke-miterlimit="10"/><path d="M75.594 187.526c-.8.44-1.24.44-2.039 1.28-.84.84-1.239 1.679-2.918 1.679m4.477-9.275c.44 1.8.88 3.158 2.16 3.598m31.18-43.574c-4.957 3.558-31.18 20.028-45.332 35.579m46.172-34.299c0 5.356-.84 16.91 4.997 21.347m-7.036-20.308c-2.918 3.118-35.019 27.104-36.298 34.619m33.34-30.302c-4.557 5.357-23.706 22.267-24.545 28.463m27.823-30.621c-1.64 3.598-11.953 18.269-12.792 21.826m12.472-18.708c-1.24 4.917-3.358 12.432-1.679 16.87m5.836-17.35c1.28 4.477 4.598 9.354 7.516 8.475" fill="none" stroke="#e5c6c7" stroke-width=".8" stroke-linecap="round" stroke-linejoin="round" stroke-miterlimit="10"/><path d="M64.72 176.813c-.439-.44-1.278-1.32-1.278-2.239.44-1.319 2.118 1.36 2.958 1.36 1.239-.44-.44-2.679-.44-3.598 0-.44.44-.88.84-1.32.839-.48 1.279.44 2.078.88 1.28 1.359 2.519 0 2.519-1.8 0-.879-1.24-1.798-.84-2.677 0-.92 1.68-.92 2.519-.44.44 0 .44.88.84 1.319.399.48 0 .48 0 0m-3.759 8.435c.44.88 1.68 1.759 2.12.88.399-.88-1.28-1.76-1.68-2.2.84-1.319 2.079.44 2.918 0 1.68-.439-1.239-2.638-.839-3.517.84-.88 2.918.88 4.197.44 1.24-.88-.44-2.2-.44-3.518 1.28 0 2.959.88 4.198 0 1.68-.88.4-3.078 0-4.398 1.68 3.078 5.837-2.638 4.597-4.877m-6.756 15.471c.44.44 2.519 1.32 3.358.88.8-.88-2.518-2.639-1.679-3.958.4-.92 2.479 1.759 3.758.88 1.24-.88-1.28-3.119-1.28-3.998.84.44 2.08 1.759 3.359.88.8-1.32-.84-3.079-1.28-3.998m8.715.4c.44.879 2.12 1.758 2.519.879.84-.88-.84-1.76-1.24-2.199.84.44 3.319.88 3.758-.44.4-.44-1.279-2.198-2.078-2.198 1.239.44 3.318 0 4.157-1.32.4-1.319-1.24-3.118-2.518-3.118m6.676 8.476c.839-.44 2.078-1.32 2.078-2.68-.8 0-2.078.92-2.878.92.4-.48 2.479-1.799 2.479-2.718-.4-.88-2.08-.44-2.479 0 .4-.44 2.479-1.759 2.479-2.678 0-1.8-2.919-.88-3.758-.44m10.873 5.756c.44-.44 1.28-2.198.44-3.078-.84-.44-2.558 1.32-2.998 1.76m7.155-5.318c0-.44.84-2.718 0-3.198-.879 0-1.758 2.319-2.198 3.198m-3.198-9.354c-.84.48-1.64.48-1.64 1.36-.439.879.8 1.318 1.64.879.4 0 1.199-.88 1.599 0 0 1.319-2.039 2.638-2.839 2.638m-3.877-5.357c-.4.92-.8 2.319-.8 3.198m-1.199.8c.44.48 1.28.48 1.679.48m-2.479-4.798c-.4.44-1.239 1.28-1.678 1.68m-1.28.959c-.4.44.4.88.8.88m-4.158 2.158c0 .44.4.88.8 1.28m6.636-10.154c.92-.4 1.359-.84 2.238-1.28m-3.358 2.159c0 .48.4.96.8.96m1.199-.001c0 .44.4.88.8.88m-.32-5.837c0 .44.44.88.88 1.28m1.119-.8c0 .44.48 1.76 0 2.159m-.72 1.839c2.399-1.36 1.2 3.997-.4 2.678m-5.036 21.787c-.4-.92-1.68-2.319-2.519-.92-.44.92 1.28 2.279 2.119 2.279m2.078 4.797c.4 0 1.6-.8 2-.8m4.636-6.715c-.4.84-.4 1.279-.799 1.679m.799 3.677c.84-.48 1.28-.48 1.68-.48m6.635-3.997c.44-.84.84-1.719 1.68-2.159m-.001 5.277c.44-.48 1.28-.48 1.68 0m-38.297 5.317c.4-.88 1.599-1.799 1.998-.88.8 1.32-.8 2.639-1.599 3.079m-8.714 5.356c0-.839.4-1.719 1.119-2.158m-6.636 5.237c0 1.399.44 2.758 1.719 2.318 1.24-.92.4-2.318 0-3.238m16.59-3.038c.44 0 .84-.48 1.679-.96m4.637-4.797c.44.44 2.559 1.76 2.559 0 0-.879-1.28-1.758-1.68-2.238m-2.558-5.277c.44.44.44 1.32.88 2.159m11.113 7.115c.84-.44.84-1.319 1.679-1.759m6.715-9.834c0 .88.4 1.76.8 2.639" fill="none" stroke="#a42149" stroke-width=".8" stroke-miterlimit="8"/><path d="M113.131 125.284c-2.518-1.32-5.436 0-7.915 2.678-.44.88-2.518 2.679-4.157 2.679-1.28 0-2.519.44-4.198.44-4.557.44-9.554.879-13.711 0-4.598-1.36-17.91-7.116-20.028-8.475-.8-.88-1.64-1.32-2.479-1.76-1.679-1.358-1.239-2.678-1.239-3.557 0-1.36-.44-2.678-1.28-3.118-1.638-.92-3.317-.92-4.996 0-2.918 1.759-5.837 6.236-5.397 8.874 0 1.36.4 2.24 1.68 2.679 1.638.88 4.157-.44 6.235-2.239.84-.44 2.079-1.759 3.758-.88.8.88 1.639 1.36 2.478 1.8 2.08 1.759 15.83 7.995 20.428 9.314 4.997.92 9.994.48 14.991 0 1.679 0 4.557-.44 4.158 2.239-.4 1.319-.4 3.118.839 3.997.84.44 2.079.88 4.157 0 3.318-1.759 8.315-7.116 8.315-11.113 0-1.799-.4-3.118-1.639-3.558z" fill="#eff4f6" fill-rule="evenodd"/><path d="M103.897 136.837c0-.88.44-2.638 1.679-4.837 1.639-2.638 3.718-4.437 5.357-4.437.4 0 .8 0 .8.48 0 1.319-1.2 2.198-2.44 3.957-1.238 1.759-2.478 4.837-4.157 5.277-.8.44-1.239 0-1.239-.44zM50.21 123.485s-.44 0-.44-.44c0-1.759 2.119-5.276 4.597-6.596.84-.44 1.679-.879 2.519-.44.4.44.4 1.32-.4 2.64-1.28 3.077-5.037 5.236-6.276 4.836z" fill="#1dbbe9" fill-rule="evenodd"/><path d="M92.744 78.233s.4-.44.4-.92c-18.71 9.794-74.955 61.403-89.946 82.27" fill="none" stroke="#000" stroke-width="1.359" stroke-linecap="round" stroke-linejoin="round" stroke-miterlimit="10"/><path d="M3.158 167.858c8.355-11.952 29.582-34.579 35.818-41.255 20.788-21.267 26.624-20.387 33.26-25.704 5.837-7.556 12.912-15.111 20.388-22.666" fill="none" stroke="#000" stroke-width=".8" stroke-linecap="round" stroke-linejoin="round" stroke-miterlimit="10"/><path d="M113.091 125.324c-2.478-1.32-5.396 0-7.915 2.678-.4.88-2.478 2.679-4.157 2.679-1.24 0-2.479.44-4.158.44-4.557.44-9.554.879-13.711 0-4.598-1.36-17.91-7.116-19.988-8.475-.84-.88-1.68-1.32-2.479-1.76-1.679-1.358-1.279-2.678-1.279-3.557 0-1.36-.4-2.678-1.24-3.118-1.678-.92-3.317-.92-4.996 0-2.918 1.759-5.837 6.236-5.397 8.874 0 1.36.4 2.24 1.679 2.679 1.639.88 4.158-.44 6.236-2.239.8-.44 2.079-1.759 3.718-.88.84.88 1.679 1.36 2.518 1.8 2.08 1.759 15.79 7.995 20.388 9.314 4.997.92 9.994.48 14.991 0 1.639 0 4.557-.44 4.158 2.239-.44 1.319-.44 3.118.839 3.997.8.44 2.079.88 4.157 0 1.24-.44 1.64-1.759 2.919-3.558 1.239-1.319 2.078-3.118 2.878-4.437.84-.88 2.079-2.678 2.079-3.998 0-1.359 0-2.238-1.24-2.678" fill="none" stroke="#84888b" stroke-width="1.359" stroke-miterlimit="8"/><path d="M93.144 77.793c39.176-38.137 98.7-74.115 189.525-74.115 27.063 0 51.608 3.558 73.675 8.914" fill="none" stroke="#000" stroke-width="1.359" stroke-linecap="round" stroke-linejoin="round" stroke-miterlimit="10"/><path d="M143.033 155.866c-4.157-6.636-7.955-18.19 10.034-22.627" fill="none" stroke="#fff" stroke-width=".8" stroke-linecap="round" stroke-linejoin="round" stroke-miterlimit="10"/><path d="M121.766 155.066c.4 4.038 3.318 6.236 7.076 4.477 3.358-1.799 10.434-8.475 14.191-4.477.84.92 1.24 4.038 1.24 5.357 0 2.198-2.919 2.678-4.158 3.558-1.24 1.319-1.24 2.638-1.679 4.437 0 2.678-.84 3.558-2.918 4.877-2.918 1.36-1.24 4.877-3.758 6.676-2.478 2.199-4.157-.88-6.236-1.799h-1.68c-2.518-.44-4.596-1.32-5.836-3.998-.839-1.758-.44-2.638 0-4.877 0-.44.4-.88.4-1.319-.4-2.238-2.518-3.558-.84-5.357z" fill="#a42149" fill-rule="evenodd"/><path d="M121.766 155.106c.44 4.038 3.358 6.236 7.116 4.477 3.358-1.799 10.434-8.475 14.191-4.477.84.92 1.24 4.038 1.24 5.357 0 2.198-2.919 2.678-4.158 3.558-1.24 1.319-1.24 2.638-1.679 4.437 0 2.678-.84 3.558-2.918 4.877-2.918 1.36-1.24 4.877-3.758 6.676-2.518 2.199-4.157-.88-6.276-1.799h-1.24" fill="none" stroke="#fff" stroke-width="1.359" stroke-linecap="round" stroke-linejoin="round" stroke-miterlimit="10"/><path d="M123.085 163.86c.44 2.24.44 3.119 2.519 4.478 1.28.88 2.518 1.759 2.518 3.518m1.599-5.237c1.28.44 2.559-.44 2.559-1.799" fill="none" stroke="#e5c6c7" stroke-width=".8" stroke-linecap="round" stroke-linejoin="round" stroke-miterlimit="10"/><path d="M131.4 166.5c.44.479.88 1.398.88 2.318m-7.995-1.759c0 .88-.44 1.759-.88 2.638" fill="none" stroke="#e5c6c7" stroke-width=".8" stroke-linecap="round" stroke-linejoin="round" stroke-miterlimit="10"/><path d="M121.846 164.42c.4 0 2.079-.88 2.519 0 .4 1.32-2.12 2.639-2.959 2.199m5.357 4.917c.84 0 2.479-1.36 1.68-2.279-1.28-1.399-2.92 1.36-3.359 1.84m5.037-5.397c.4.44.4 1.319.8 2.158m-.001-3.038c.84.48 1.68.92 2.48 1.36" fill="none" stroke="#a42149" stroke-width=".8" stroke-miterlimit="8"/><path d="M123.085 183.889c6.277 1.319 8.355-.88 14.192-2.2 5.397-1.318 19.148-4.396 20.387-4.396 1.24 0-.4-3.119-.4-3.119s-3.357 1.36-6.675 2.679c-2.918 1.319-14.152 3.957-15.39 4.397-1.28.44-10.834 1.76-11.674-.44z" fill="#fff" fill-rule="evenodd"/><path d="M246.77 117.329c-9.154-11.113-39.576-15.11-63.76-12.433-3.719.88-7.476 1.32-10.834 1.76-1.24.44-2.479.44-3.318.919 4.597-6.676 20.827-22.227 58.324-33.3l.84 3.958 13.751-11.513-16.67-.92 2.08 8.475s0 0 0 0l-1.24-4.477c-39.176 11.113-60.403 28.422-63.761 37.777-.84 2.198 1.679 5.317 3.358 6.636 0 .44.4.44.4.44 0 .44.4.44.839.44 0 0 0 0 0 0s0 0 0 0h.4s0 0 0 0h.44c3.757-.44 9.154-1.76 18.748-2.64 24.585-1.798 50.81-1.798 58.724 6.197.44.44.84 1.36 1.28 1.799 3.717 8.435-4.997 14.191-10.834 15.99-6.276 1.76-13.352 3.078-21.267 4.877-10.833 2.639-24.585 3.998-38.337 8.875-15.39 5.317-27.903 11.993-34.179 19.548.44 0 1.68 9.314 1.68 9.314l.839 2.2c2.078-5.757 14.59-17.31 34.579-24.386 13.352-4.917 25.824-8.475 37.097-10.674 18.309-4.437 29.982-7.115 32.5-17.31l.4-1.798h.44c.8-3.558 0-6.636-2.519-9.754" fill="none" stroke="#fff" stroke-width="5.037" stroke-linecap="round" stroke-linejoin="round" stroke-miterlimit="10"/><path d="M246.77 117.329c-9.154-11.113-39.576-15.11-63.76-12.433-3.719.88-7.476 1.32-10.834 1.76-1.24.44-2.479.44-3.318.919 4.597-6.676 20.827-22.227 58.324-33.3l.84 3.958 13.751-11.513-16.67-.92 2.08 8.475s0 0 0 0l-1.24-4.477c-39.176 11.113-60.403 28.422-63.761 37.777-.84 2.198 1.679 5.317 3.358 6.636 0 .44.4.44.4.44 0 .44.4.44.839.44 0 0 0 0 0 0s0 0 0 0h.4s0 0 0 0h.44c3.757-.44 9.154-1.76 18.748-2.64 24.585-1.798 50.81-1.798 58.724 6.197.44.44.84 1.36 1.28 1.799 3.717 8.435-4.997 14.191-10.834 15.99-6.276 1.76-13.352 3.078-21.267 4.877-10.833 2.639-24.585 3.998-38.337 8.875-15.39 5.317-27.903 11.993-34.179 19.548.44 0 1.68 9.314 1.68 9.314l.839 2.2c2.078-5.757 14.59-17.31 34.579-24.386 13.352-4.917 25.824-8.475 37.097-10.674 18.309-4.437 29.982-7.115 32.5-17.31l.4-1.798h.44c.8-3.558 0-6.636-2.519-9.754zm-78.752-3.558s0 0 0 0c.44 0 1.24 0 1.68-.44-.44.44-1.24.44-1.68.44zm6.236-1.32s0 0 0 0h.44-.44zm74.595 15.072s0 0 0 0 0 0 0 0 0 0 0 0 0 0 0 0z" fill="none" stroke="#000" stroke-width="1.679" stroke-linecap="round" stroke-linejoin="round" stroke-miterlimit="10"/><path d="M248.77 127.563v-.44c-2.48 10.673-15.391 12.872-33.74 16.87-11.234 2.678-23.746 6.236-37.058 11.113-19.988 6.636-32.5 18.189-34.579 23.945 0 0-1.24-9.314-1.679-9.314 6.276-7.555 18.749-14.191 34.18-19.508 13.751-4.877 27.503-6.236 38.336-8.875 7.875-1.799 14.991-3.118 21.227-4.917 6.237-2.198 15.391-8.435 10.394-16.87l1.679 1.36 1.679 3.997zm-81.951-12.433c-1.24 0-5.437-4.437-4.597-7.555 3.358-9.315 24.585-26.664 63.721-37.817l1.24 4.477c-42.055 11.993-58.685 29.342-60.804 34.699-1.24 2.638-.8 3.998-.4 4.437.4.44 1.24 2.199.84 1.76z" fill="#1dbbe9" fill-rule="evenodd"/><path d="M248.85 127.083c-2.48 10.674-15.391 12.872-33.74 16.87a330.457 330.457 0 0 0-37.098 11.113c-20.028 6.636-32.5 18.189-34.619 23.946l.84 2.198c2.078-5.756 14.59-17.27 34.619-24.385 13.312-4.877 25.824-8.435 37.097-10.634 18.349-4.437 29.982-7.115 32.5-17.31z" fill="#c7e8f8" fill-rule="evenodd"/><path d="M246.73 117.369c-9.154-11.113-39.536-15.15-63.68-12.473-4.998.88-9.995 1.8-14.592 2.679h-1.24c-.4.88-.839 1.319-.839 1.319-.84 1.799-.84 3.118-.84 3.998l.44.919c.4.44.84.44.4.44 3.758-.44 7.915-2.239 17.91-3.118 25.384-3.118 53.687-.88 61.602 6.676 2.918 3.118 3.358 7.995 2.918 9.754l.44-.44c.8-3.558 0-6.636-2.519-9.754z" fill="#1dbbe9" fill-rule="evenodd"/><path d="M172.216 110.613c-1.28-1.799-.84-2.718 0-4.078-1.28.48-2.519.48-3.758.92h-1.24c-.4.92-.839 1.359-.839 1.359-.84 1.799-.84 3.158-.84 4.078l.44.88c.4.439.84.439.4.439 2.079-.44 4.557-.88 7.875-1.8-.8-.439-1.639-1.358-2.038-1.798z" fill="#00a9e4" fill-rule="evenodd"/><path d="M166.42 115.05h1.278c3.718-.44 9.155-1.759 18.709-2.678 24.505-1.759 50.73-1.759 58.605 6.276 2.918 3.118 4.157 6.716 3.757 8.915.4-1.76 0-6.676-2.918-9.834-7.875-7.596-36.178-9.834-61.523-6.676-9.994.88-14.151 2.678-17.909 3.118z" fill="#c7e8f8" fill-rule="evenodd"/><path d="M228.382 74.235c-39.137 11.113-55.767 27.104-59.924 33.78-1.28 1.319-2.079 3.557-2.079 3.997-.44 1.32 0 2.199 1.64 1.76v.879l-.84.44s-.8 0-1.24-.44c-1.679-1.76-.84-3.079.44-5.757 2.079-5.317 18.709-22.666 60.763-34.659z" fill="#c7e8f8" fill-rule="evenodd"/><path d="m241.654 66.6-16.63-.84 2.998 12.473L241.654 66.6z" fill="#1dbbe9" fill-rule="evenodd"/></svg>