<svg xmlns="http://www.w3.org/2000/svg" version="1.0" viewBox="0 0 262.942 536.693"><path d="M118.528.96s-7.755 18.708-16.19 31.5c-8.635 12.753-13.712 56.486 11.513 76.234 11.873 9.354 8.115 11.513 8.835 24.305.88 12.753 6.835 63.322 16.19 87.587 2.518 6.476 1.799 20.508 2.518 27.144.88 6.836 8.115 24.305 2.679 35.818-5.557 11.513-19.588 40.456-9.874 77.873 2.678 10.234 10.593 88.466 6.836 104.657-3.798 16.19-10.434 28.782-3.079 35.618 7.396 6.836 18.03 6.116 29.183 7.555 11.353 1.64 26.264 5.197 29.702 5.197 3.598 0 19.628 4.318 24.665 2.878 5.037-1.439 5.756-2.878 9.874-1.239 3.997 1.6 6.516 1.8 9.194-.56 0 0 6.476 2.36 9.355-1.079 0 0 2.878.72 4.517-.88 1.439-1.598.88-2.678.88-2.678s2.158-.36 3.237-2.358c.92-2.159-.52-3.038-.52-3.038s3.039-2.359 3.039-5.757c-.16-3.598-2.878-4.317-2.878-4.317l-7.196-.72s-3.598-1.799-4.837-2.718c-1.28-.72-3.438-.88-5.237-1.8-1.6-.879-9.194-6.835-12.432-7.355-3.239-.72-16.35-6.116-22.307-12.232-5.956-6.117-20.148-7.036-22.147-37.977-1.798-30.742 12.073-70.677 11.713-113.651 0 0 1.44-16.71 5.197-24.465 3.598-7.716 7.036-11.314 7.756-18.35.56-7.195 1.798-9.154 3.238-13.111 1.439-4.158 2.158-9.914 1.798-15.67-.36-5.558-2.678-25.346.36-39.017 3.078-13.672 14.232-74.995 9.554-120.687-1.279-11.873-5.036-32.74-5.036-32.74S223.304 18.589 237.335.6L118.528.96z" fill="#fef3ed" fill-rule="evenodd"/><path d="M4.197 534.676c-1.079.36-2.358.92-4.157 1.44 1.44 0 2.918-.52 4.157-1.44zM118.488.919s-7.755 18.71-16.19 31.501c-8.635 12.793-13.672 56.486 11.513 76.274 11.873 9.354 8.115 11.513 8.835 24.305.88 12.753 6.836 63.322 16.19 87.587 2.518 6.476 1.799 20.508 2.518 27.184.88 6.836 8.075 24.265 2.679 35.778-5.557 11.513-19.588 40.496-9.874 77.913 2.678 10.234 10.593 88.506 6.836 104.696-3.798 16.19-10.434 28.783-3.079 35.619 7.396 6.836 18.03 6.116 29.183 7.555 11.313 1.6 26.264 5.197 29.702 5.197 3.598 0 19.588 4.318 24.625 2.878.92-.36 1.639-.52 2.158-.72-5.196-.879-10.433-2.158-12.392-2.158-3.438 0-18.349-3.598-29.702-5.197-11.153-1.439-29.862-1.279-37.257-8.115-7.396-6.636-1.28-31.66 2.518-47.65 3.758-16.191 4.477-81.871 1.799-92.105-9.714-37.417-3.598-67.48 1.799-78.992 5.596-11.513.16-24.825-.72-31.661-.92-6.836 6.117-23.746 3.598-30.222-9.354-24.265-21.227-74.475-22.146-87.227-.88-12.792-1.44-16.39-6.996-20.148-26.304-18.189-25.944-53.967-7.396-80.79C125.324 19.827 132.88.918 132.88.918M9.794 534.876c-2.159-.92-3.438-.92-5.037-.36.72.16 3.238.88 5.557.52-.16 0-.36-.16-.52-.16z" fill="#fce2d7" fill-rule="evenodd"/><path d="M118.528.96s-7.755 18.708-16.19 31.5c-8.635 12.753-13.712 56.486 11.513 76.234 11.873 9.354 8.115 11.513 8.835 24.305.88 12.753 6.835 63.322 16.19 87.587 2.518 6.476 1.799 20.508 2.518 27.144.88 6.836 8.115 24.305 2.679 35.818-5.557 11.513-19.588 40.456-9.874 77.873 2.678 10.234 10.593 88.466 6.836 104.657-3.798 16.19-10.434 28.782-3.079 35.618 7.396 6.836 18.03 6.116 29.183 7.555 11.353 1.64 26.264 5.197 29.702 5.197 3.598 0 19.628 4.318 24.665 2.878 5.037-1.439 5.756-2.878 9.874-1.239 3.997 1.6 6.516 1.8 9.194-.56 0 0 6.476 2.36 9.355-1.079 0 0 2.878.72 4.517-.88 1.439-1.598.88-2.678.88-2.678s2.158-.36 3.237-2.358c.92-2.159-.52-3.038-.52-3.038s3.039-2.359 3.039-5.757c-.16-3.598-2.878-4.317-2.878-4.317l-7.196-.72s-3.598-1.799-4.837-2.718c-1.28-.72-3.438-.88-5.237-1.8-1.6-.879-9.194-6.835-12.432-7.355-3.239-.72-16.35-6.116-22.307-12.232-5.956-6.117-20.148-7.036-22.147-37.977-1.798-30.742 12.073-70.677 11.713-113.651 0 0 1.44-16.71 5.197-24.465 3.598-7.716 7.036-11.314 7.756-18.35.56-7.195 1.798-9.154 3.238-13.111 1.439-4.158 2.158-9.914 1.798-15.67-.36-5.558-2.678-25.346.36-39.017 3.078-13.672 14.232-74.995 9.554-120.687-1.279-11.873-5.036-32.74-5.036-32.74S223.304 18.589 237.335.6" fill="none" stroke="#343434" stroke-width=".64" stroke-linecap="round" stroke-linejoin="round"/><path d="M219.107 56.246s-7.835-26.784-6.916-42.614m-19.788 212.511c-1.599 3.798-1.239 8.475-1.759 12.432-.56 4.837-.36 9.715-.36 14.552 0 5.756-.2 11.513.72 17.27.16 1.598.32 3.237.68 4.836.2 1.44.88 5.197.88 5.037" fill="none" stroke="#343434" stroke-width=".64" stroke-linecap="round" stroke-linejoin="round"/><path d="M209.433 220.147c-1.24 3.038-2.119 4.677-5.197 6.795-1.799 1.28-3.598 2.679-5.197 3.958-2.678 1.959-7.555 5.517-7.915 9.075m-31.221 4.797c-.92 9.354 1.64 18.548 2.718 27.703.52 5.237.36 10.274.16 15.47M148.59 451.047c.2-.16 0-.52 0-.72.56 2.878 1.999 5.397 2.518 8.275.36 2.359.92 4.677 1.44 7.036.72 3.957 1.439 9.714 4.677 12.392 1.639 1.08 5.037 1.96 7.035 1.6 1.08-.16 4.678-1.76 5.197-2.839m37.258 14.151c4.717 3.079 8.674 6.836 13.512 9.515m-4.477-6.477c3.077 1.84 6.835 3.678 9.354 5.677m-3.678-6.876c2.158.92 4.677 2.319 6.476 3.358m12.552 19.508c.88 0 1.6-2.158 1.44-3.038-.2-.92-1.64-1.639-2.36-2.158-1.079-.76-1.958-1.84-3.037-2.559-1.08-.72-2.519-1.24-3.798-1.599-1.24-.2-2.519-.56-3.758-.72-.72-.2-2.198-.2-2.558-1.119" fill="none" stroke="#343434" stroke-width=".64" stroke-linecap="round" stroke-linejoin="round"/><path d="M239.455 510.05c-1.24-.719-3.238 2.16-2.159 3.079.36.16 1.08.52 1.44.52.2-.16.559-.88.919-1.24.52-.56 1.08-.72 1.759-.72m8.275 3.399c0-.52.36-1.24 0-1.6-.16-.559-.88-.919-1.24-1.278-1.079-.72-1.998-1.24-2.718-2.319-.72-1.639-1.599-3.078-3.238-3.798-1.44-.52-2.878-1.08-4.317-1.959-.72-.56-1.24-1.119-1.96-1.119a16.39 16.39 0 0 1-3.277-.72m22.306 9.195c-.36-.88-.72-1.08-1.239-1.599-.52-.36-1.08-1.12-1.44-1.48-.519-.519-.879-1.078-1.238-1.798-.2-.72-.56-1.08-1.28-1.639-.72-.36-1.439-.72-2.158-1.28-.72-.36-1.6-.719-2.519-1.239-1.439-1.119-2.878-1.998-4.317-2.918-.72-.36-1.24-.72-1.799-.92m19.268 6.877c-.52-.16-1.079-1.04-1.599-1.4-.72-.36-1.279-.56-1.998-.919-1.24-.88-2.16-2.319-3.598-2.838-1.44-.56-2.879-.92-4.318-1.28-.72-.16-1.439-.32-2.158-.68-.52-.359-1.08-.918-1.8-1.278-.719-.36-1.598-.72-2.518-.72-.88 0-1.439 0-2.158-.72m13.591-.879c-.56.2-.56 1.44-.36 1.959 0 .52.16 1.04.72 1.2.68.359 1.759.359 2.479.359.52.16 1.239.16 1.759.16.2-1.04 1.239-2.599 2.118-2.798" fill="none" stroke="#343434" stroke-width=".64" stroke-linecap="round" stroke-linejoin="round"/><path d="M255.285 503.295c-.92-.2-.72 1.48-.56 2.039.36.52.88 1.08 1.44 1.439.16-.52.68-1.999 1.559-1.839m-5.157 3.438c-.92-.56-1.48.2-1.48 1.12.2.879.92 1.638 1.64 2.158-.16-.52 1.12-1.44 1.639-1.28m-7.516.48c-.72-.72-1.279.72-1.279 1.28 0 .72.56 1.439 1.28 1.799.36.16 1.239.52 1.598.36.2-.2.2-.56.36-.72.36-.2.72 0 1.08 0" fill="none" stroke="#343434" stroke-width=".64" stroke-linecap="round" stroke-linejoin="round"/><path d="M204.476 228.062c-7.915 4.317-13.312 10.753-13.512 19.908 0 11.153-.56 22.266 4.877 32.14-.72-3.558-1.639-7.515-1.639-11.113-.16-2.519.92-4.317 1.64-6.476.36-1.24 1.438-3.038 1.598-4.278 0-1.439-.72-3.238-.88-4.877-.359-8.954 3.599-19.028 9.355-25.864zM218.588 49.93s-7.636-24.066-5.077-36.298c0 0 1.279 21.747 7.435 23.905l-2.358 12.393z" fill="#fce2d7" fill-rule="evenodd"/><path d="M211.672 230.3c-1.6 4.678.56 11.354.72 16.19.16 4.678 0 9.195-1.8 13.313-3.717 8.994-2.318 19.987-9.434 27.703-.36.36-.56.88-.92 1.239 2.52-5.557 3.758-10.234 3.958-16.35 0-5.197 2.839-9.155 4.438-13.832 1.599-5.396.919-10.993 1.279-16.55 0-3.078 1.759-8.275 1.239-10.793zm-1.12-21.027c-1.599 5.197-2.318 11.313-6.396 15.23-3.238 3.239-7.515 5.398-10.553 8.596 1.799-1.76 3.238-4.478 4.997-6.596 1.958-2 4.277-3.598 5.876-5.757 2.678-3.398 4.637-7.315 6.236-11.113zM214.55 50.41s19.348 46.092 0 145.751c0 0 15.03-80.95 0-145.752zm-31.78 371.934s-.36 22.187 4.317 30.821c4.677 8.835 7.915 10.634 9.714 11.873 1.799 1.44 8.994 6.116 10.793 8.635 0 0-6.476-3.598-9.514-5.037-2.878-1.6-11.353-9.874-12.952-15.47-1.64-5.397-4.158-21.428-2.359-30.822z" fill="#fff" fill-rule="evenodd"/><path d="M146.031 444.33c0 6.317 2.2 11.514 3.838 17.43 1.24 4.877 1.999 9.914 3.598 14.551-2.878-2.118-2.518-6.995-4.517-10.034-2-3.078-3.798.52-5.997 1.96-.2-4.838 2.719-10.954 1.28-15.431z" fill="#fce2d7" fill-rule="evenodd"/><path d="M153.467 459.522c1.44 4.677.72 11.832 3.958 15.39 3.078 3.558 9.914 3.038 11.313-1.959-1.6 0-3.198 1.8-4.997 1.8-1.8 0-3.078-.92-4.158-2.36-2.878-3.397-3.598-8.554-5.916-11.952z" fill="#fff" fill-rule="evenodd"/><path d="M177.333 288.465c-4.118-2.358-6.277-6.316-7.356-8.994-.36-6.317-.92-12.233-1.44-18.35-1.078-17.109 10.594-56.845 17.43-72.515 31.301-70.158 22.307-124.845 22.307-124.845-3.598-18.908 0-36.178 0-36.178-3.758-1.799-5.557.56-5.557.56s-3.438 16.19-.2 34.739c-1.08 3.957-4.117 10.434-11.513 20.308-14.191 19.068-20.307 28.262-23.545 43.893-.2 1.08-.36 2.159-.72 3.238-1.08 2.159-3.238 5.956-6.316 8.995-4.478 4.517-9.714 10.633-11.153 17.989 1.439-7.356 7.035-10.794 11.712-15.271 1.6-1.799 2.879-3.438 3.958-4.677-5.397 18.149-14.231 39.736-10.993 54.687-3.598-17.63 10.993-42.455 14.95-62.083 1.24-5.756 2.879-10.593 5.197-15.27 0 3.597.2 10.953 2.16 16.71 2.718 7.915-1.24 19.268-1.24 19.268s5.557-13.672 2.878-21.587c-2.159-6.316-2.159-14.392-2.159-17.47 3.958-6.995 9.515-14.39 17.27-24.825 5.557-7.355 8.795-12.952 10.434-16.71 1.599 16.19 3.038 63.682-22.147 120.328-4.117 9.354-9.354 26.464-12.752 42.454-1.8 2.878-4.677 7.036-6.676 10.274-3.238 5.396-7.196 13.312-7.556 29.502-.36 16.35.2 19.948-2.518 26.784-2.718 6.835-4.317 19.268-2.159 25.024-2.158-5.756.72-16.19 3.438-23.026 2.679-6.676 4.118-8.994 4.478-25.184.56-16.39 2.878-22.507 6.316-27.904 1.079-1.798 1.959-3.038 2.678-4.317-1.08 6.836-1.599 12.792-1.24 17.47 1.08 16.91 3.239 32.54 0 53.247-3.237 1.08-11.352 5.917-12.592 23.186-2.358.72-7.955 3.438-7.955 11.353 0 7.716 5.237 10.954 7.756 12.233v1.24c-2.519.919-7.396 3.797-7.396 11.152 0 8.995 7.236 11.873 8.675 12.593 0 .36.16.72.16 1.08-2.319 1.078-7.396 4.317-6.676 11.872 1.08 8.835 8.315 11.153 10.114 11.713 0 .52.16 1.08.16 1.599-1.8 1.28-4.478 4.317-3.758 10.633.72 7.556 5.037 10.074 6.836 10.794 1.599 13.831 2.678 25.344 2.878 32.38.16 11.673.16 25.905 3.398 28.943-3.238-3.038-1.24-15.47-1.44-27.344-.36-11.673-2.318-35.258-6.835-62.602-4.477-27.343-3.238-47.491-3.398-57.925-.56-17.43 5.197-24.985 9.514-28.063-2.159 23.586 1.999 73.756 1.999 73.756s-1.44-57.565 1.799-78.433c1.599-10.074 1.959-18.868 1.799-27.503 1.08 1.439 2.518 2.678 4.117 3.598 7.036 3.957 13.672 8.634 11.873 28.063-1.959 19.428-16.35 86.147-5.037 134.918-8.635-51.289 5.957-118.009 7.915-137.437 1.8-19.428-4.837-24.105-11.872-28.063zm-24.825 69.958c-1.96-1.24-5.237-4.318-5.237-9.355-.16-5.196 3.438-7.355 5.237-8.075v3.598c.2 3.598 0 8.275 0 13.832zm-4.877 15.31c-.16-5.036 3.078-7.195 4.877-7.915.2 5.197.56 11.154 1.079 17.63-1.6-.92-5.956-4.158-5.956-9.715zm8.674 49.65c-.36-4.157.72-6.316 1.8-7.555.719 5.397 1.438 10.594 2.158 15.63-1.28-1.079-3.438-3.397-3.958-8.075zm-.36-20.867c.36 1.959.52 3.758.88 5.757-1.6-.72-6.276-3.438-6.996-9.195-.56-5.197 2.679-7.715 4.477-8.635.36 3.958.92 7.916 1.64 12.073z" fill="#71a9cf" fill-rule="evenodd"/><path d="M177.333 288.465c-4.118-2.358-6.277-6.316-7.356-8.994-.36-6.317-.92-12.233-1.44-18.35-1.078-17.109 10.594-56.845 17.43-72.515 31.301-70.158 22.307-124.845 22.307-124.845-3.598-18.908 0-36.178 0-36.178-3.758-1.799-5.557.56-5.557.56s-3.438 16.19-.2 34.739c-1.08 3.957-4.117 10.434-11.513 20.308-14.191 19.068-20.307 28.262-23.545 43.893-.2 1.08-.36 2.159-.72 3.238-1.08 2.159-3.238 5.956-6.316 8.995-4.478 4.517-9.714 10.633-11.153 17.989 1.439-7.356 7.035-10.794 11.712-15.271 1.6-1.799 2.879-3.438 3.958-4.677-5.397 18.149-14.231 39.736-10.993 54.687-3.598-17.63 10.993-42.455 14.95-62.083 1.24-5.756 2.879-10.593 5.197-15.27 0 3.597.2 10.953 2.16 16.71 2.718 7.915-1.24 19.268-1.24 19.268s5.557-13.672 2.878-21.587c-2.159-6.316-2.159-14.392-2.159-17.47 3.958-6.995 9.515-14.39 17.27-24.825 5.557-7.355 8.795-12.952 10.434-16.71 1.599 16.19 3.038 63.682-22.147 120.328-4.117 9.354-9.354 26.464-12.752 42.454-1.8 2.878-4.677 7.036-6.676 10.274-3.238 5.396-7.196 13.312-7.556 29.502-.36 16.35.2 19.948-2.518 26.784-2.718 6.835-4.317 19.268-2.159 25.024-2.158-5.756.72-16.19 3.438-23.026 2.679-6.676 4.118-8.994 4.478-25.184.56-16.39 2.878-22.507 6.316-27.904 1.079-1.798 1.959-3.038 2.678-4.317-1.08 6.836-1.599 12.792-1.24 17.47 1.08 16.91 3.239 32.54 0 53.247-3.237 1.08-11.352 5.917-12.592 23.186-2.358.72-7.955 3.438-7.955 11.353 0 7.716 5.237 10.954 7.756 12.233v1.24c-2.519.919-7.396 3.797-7.396 11.152 0 8.995 7.236 11.873 8.675 12.593 0 .36.16.72.16 1.08-2.319 1.078-7.396 4.317-6.676 11.872 1.08 8.835 8.315 11.153 10.114 11.713 0 .52.16 1.08.16 1.599-1.8 1.28-4.478 4.317-3.758 10.633.72 7.556 5.037 10.074 6.836 10.794 1.599 13.831 2.678 25.344 2.878 32.38.16 11.673.16 25.905 3.398 28.943-3.238-3.038-1.24-15.47-1.44-27.344-.36-11.673-2.318-35.258-6.835-62.602-4.477-27.343-3.238-47.491-3.398-57.925-.56-17.43 5.197-24.985 9.514-28.063-2.159 23.586 1.999 73.756 1.999 73.756s-1.44-57.565 1.799-78.433c1.599-10.074 1.959-18.868 1.799-27.503 1.08 1.439 2.518 2.678 4.117 3.598 7.036 3.957 13.672 8.634 11.873 28.063-1.959 19.428-16.35 86.147-5.037 134.918-8.635-51.289 5.957-118.009 7.915-137.437 1.8-19.428-4.837-24.105-11.872-28.063zm-24.825 69.958c-1.96-1.24-5.237-4.318-5.237-9.355-.16-5.196 3.438-7.355 5.237-8.075v3.598c.2 3.598 0 8.275 0 13.832zm-4.877 15.31c-.16-5.036 3.078-7.195 4.877-7.915.2 5.197.56 11.154 1.079 17.63-1.6-.92-5.956-4.158-5.956-9.715zm8.674 49.65c-.36-4.157.72-6.316 1.8-7.555.719 5.397 1.438 10.594 2.158 15.63-1.28-1.079-3.438-3.397-3.958-8.075zm-.36-20.867c.36 1.959.52 3.758.88 5.757-1.6-.72-6.276-3.438-6.996-9.195-.56-5.197 2.679-7.715 4.477-8.635.36 3.958.92 7.916 1.64 12.073z" fill="none" stroke="#343434" stroke-width=".32" stroke-linecap="round" stroke-linejoin="round"/></svg>