<svg xmlns="http://www.w3.org/2000/svg" version="1.0" viewBox="0 0 302.173 465.373"><defs><clipPath clipPathUnits="userSpaceOnUse" id="a"><path d="M-.56 0h301.817v465.718H-.56z"/></clipPath></defs><path d="M146.191 1.639s-.36 21.387 4.718 32.58c5.116 10.834 5.116 18.31 3.397 27.104-1.359 8.475-9.834 50.53-8.794 71.876.68 21.347.32 32.54-3.398 39.656-3.398 7.156-8.155 15.95-14.591 20.708-6.436 4.757-34.9 24.385-45.413 54.926-3.718 9.834-13.552 28.143-17.989 36.618-4.397 8.115-16.27 38.977-27.463 49.49-10.834 10.154-26.784 21.347-26.784 28.463s1.04 13.912 5.437 22.386c4.397 8.155 10.194 28.503 9.154 35.619-.68 3.718 4.398 8.115 6.796 10.833 2.359 3.038 9.155 6.796 12.552 7.116 3.718 0 7.436 2.718 10.474 3.078 3.398.64 9.834.32 13.912-1.36 3.717-1.718 4.757-3.077 8.834-2.038 3.718.68 8.115 1.36 10.834-1.719 2.358-2.718 4.757-11.513 0-11.873-4.398-.32-11.193 2.719-14.591-.32-3.718-2.718-7.796-6.436-7.796-17.309 0-10.474-3.038-33.22 5.437-51.169 8.795-18.309 19.988-36.618 38.297-59.004 17.989-22.706 53.248-64.081 58.644-70.198 5.117-6.436 8.475-9.834 12.233-10.833 3.358-1 4.397-1 8.475-6.436l3.358-174.934-16.95-33.26h-28.783z" fill="#fef3ed" fill-rule="evenodd"/><path d="M156.065 7.076h21.707l-2.678-5.437H146.23s-.32 21.387 4.757 32.58c5.077 10.834 5.077 18.31 3.398 27.104-1.359 8.475-9.834 50.53-8.834 71.876.68 21.387.36 32.58-3.358 39.696-3.398 7.116-8.155 15.91-14.591 20.668-6.436 4.757-34.94 24.425-45.453 54.926-3.718 9.834-13.552 28.143-17.989 36.618-4.397 8.155-16.27 38.977-27.463 49.17C25.864 344.791 9.914 355.984 9.914 363.1s1 13.872 5.437 22.386c4.397 8.115 10.154 28.463 9.154 35.579-.68 3.718 4.397 8.155 6.756 10.833 1.719 2.719 6.796 5.437 10.514 6.476-.32-.36 10.194 2.679 9.834 2.359-2.359-2.718-6.756-8.475-6.756-11.513 0-7.476-11.873-7.476-15.95-36.618-1.36-9.154-5.437-22.386-8.475-25.105-12.233-16.95 14.91-17.31 26.104-27.783 10.873-10.194 22.746-41.055 27.143-49.17 4.757-8.475 9.834-34.58 13.232-44.773 10.834-30.182 43.734-42.054 50.17-46.772 6.796-4.757 11.193-13.591 14.591-20.707 3.758-7.116 4.397-18.309 3.398-39.656-.68-21.347 7.475-63.402 8.835-72.236 1.679-8.475 1.679-15.91-3.398-26.784-5.077-11.153-4.438-32.54-4.438-32.54z" fill="#fce2d7" fill-rule="evenodd"/><path d="M146.231 1.679s-.36 21.387 4.718 32.58c5.116 10.834 5.116 18.31 3.397 27.104-1.359 8.475-9.834 50.53-8.794 71.876.68 21.347.32 32.54-3.398 39.656-3.398 7.156-8.155 15.95-14.591 20.708-6.436 4.757-34.9 24.385-45.413 54.926-3.718 9.834-13.552 28.143-17.989 36.618-4.397 8.115-16.27 38.977-27.463 49.49C25.864 344.791 9.914 355.984 9.914 363.1s1.04 13.912 5.437 22.386c4.397 8.155 10.194 28.503 9.154 35.619-.68 3.718 4.397 8.115 6.796 10.833 2.359 3.038 9.154 6.796 12.552 7.116 3.718 0 7.436 2.718 10.474 3.078 3.398.64 9.834.32 13.912-1.36 3.717-1.718 4.757-3.077 8.834-2.038 3.718.68 8.115 1.36 10.834-1.719 2.358-2.718 4.757-11.513 0-11.873-4.398-.32-11.193 2.719-14.591-.32-3.718-2.718-7.796-6.436-7.796-17.309 0-10.474-3.038-33.22 5.437-51.169 8.795-18.309 19.988-36.618 38.297-59.004 17.989-22.706 53.248-64.081 58.644-70.198 5.117-6.436 8.475-9.834 12.233-10.833 3.358-1 4.397-1 8.475-6.436l3.358-174.934" fill="none" stroke="#343434" stroke-width="1.359" stroke-linecap="round" stroke-linejoin="round"/><path d="M152.268 1.679s0 26.424 19.028 38.297c12.872 8.155 10.514 15.27 9.834 27.463-1.04 11.873-3.398 64.72 0 76.953 3.038 11.833 4.078 26.424 2.359 35.899-1.68 9.834 0 16.95.68 24.065 1.039 7.156 2.038 13.232-1.68 24.066-4.077 10.873-15.95 47.81-12.552 64.4 3.398 16.63 10.154 68.479 9.474 80.352-1 12.192-4.397 37.297-6.436 41.335-1.679 3.758-2.358 18.988 2.399 24.425 4.717 5.437 18.628 6.796 27.823 8.475 9.474 1.359 26.784 3.718 30.861 5.437 3.718 1.359 14.911 2.678 17.99.999 3.397-1.679 4.756-2.359 8.474-1.36 3.718 1.04 9.514 1.72 10.874-1.678 0 0 7.795 3.718 10.513 1.679 2.359-2.039 1.68-2.719 1.68-2.719s3.397 1.36 5.436.36c2.358-1.359 2.039-3.078 2.039-3.078s3.038 1.36 4.397-.64c1.719-2.398 1.36-4.437 1.36-4.437s2.717-2.039 3.037-5.077c0-3.038-1.319-4.397-1.319-4.397h-8.155s-4.757-1.04-6.116-2.039c-1.68-.68-4.757-1.36-6.796-2.039-1.68-.68-9.834-4.077-11.513-4.757-1.72-.68-11.553-5.077-14.272-7.115-2.718-2.04-8.115-4.038-12.192-5.757-4.437-1.679-11.553-7.435-14.591-10.833-2.719-3.718-9.155-11.873-8.155-23.386 1.039-11.513 6.796-50.85 8.834-59.644 2.04-8.835 10.514-42.734 9.155-51.889-1.36-9.154 0-13.192 1.359-15.91 1.36-2.718.32-5.077.68-8.835.32-3.717 1.359-6.756 3.038-12.872 1.719-6.116 7.115-18.988 6.796-26.104-.36-7.116.32-20.667 1.679-27.463 1.359-6.756 29.861-83.71 21.067-153.188-1.36-10.873 1-19.348 1-19.348l-118.09.36z" fill="#fef3ed" fill-rule="evenodd"/><path d="M152.348 1.639s0 26.464 19.028 38.337c12.872 8.115 10.514 15.23 9.834 27.423-1.04 11.873-3.398 64.76 0 76.954 3.038 11.872 4.038 26.463 2.359 35.938-1.68 9.834 0 16.95.68 24.065.999 7.116 2.038 13.232-1.68 24.066-4.077 10.873-15.95 47.81-12.552 64.4 3.358 16.63 10.154 68.479 9.474 80.352-1 12.192-4.397 37.297-6.436 41.335-1.679 3.758-2.358 18.988 2.359 24.425 4.757 5.437 18.668 6.796 27.823 8.475 9.514 1.359 26.784 3.718 30.861 5.437 3.758 1.359 14.951 2.678 17.99.999.319 0 .679-.32.999-.32-1.32-.36-2-.68-2.679-.68-4.077-1.718-21.387-4.077-30.901-5.436-9.154-1.68-23.066-3.038-27.783-8.475-4.757-5.437-8.475-20.667-6.476-24.425 2.038-3.718 2.718-30.502 3.398-42.335.68-11.872-8.115-64.08-11.513-80.71-3.398-16.59 13.232-54.887 21.706-63.042 8.116-7.796 6.117-17.95 5.437-25.065-.68-7.476-6.116-13.232-4.437-23.066 1.719-9.475.68-24.066-2.359-35.938-3.398-12.193-1.04-65.081 0-76.954.68-12.192 3.038-19.308-9.834-27.423-18.988-11.873-18.988-38.337-18.988-38.337M2.758 329.121c-1-.36-2.038-.68-2.718-.68 1.719.68 4.078 1.36 5.796 1.36-1.039-.36-2.038-.68-3.078-.68z" fill="#fce2d7" fill-rule="evenodd"/><path clip-path="url(#a)" d="M152.308 1.719s0 26.424 19.028 38.297c12.872 8.155 10.514 15.27 9.834 27.463-1.04 11.873-3.398 64.72 0 76.953 3.038 11.833 4.078 26.424 2.359 35.899-1.68 9.834 0 16.95.68 24.065 1.039 7.156 2.038 13.232-1.68 24.066-4.077 10.873-15.95 47.81-12.552 64.4 3.398 16.63 10.154 68.479 9.474 80.352-1 12.192-4.397 37.297-6.436 41.335-1.679 3.757-2.358 18.988 2.399 24.425 4.717 5.437 18.628 6.796 27.823 8.475 9.474 1.359 26.784 3.718 30.861 5.437 3.718 1.359 14.911 2.678 17.99.999 3.397-1.68 4.756-2.359 8.474-1.36 3.718 1.04 9.514 1.72 10.873-1.678 0 0 7.796 3.718 10.514 1.679 2.359-2.039 1.68-2.719 1.68-2.719s3.397 1.36 5.436.36c2.358-1.359 2.039-3.078 2.039-3.078s3.038 1.36 4.397-.64c1.719-2.398 1.36-4.437 1.36-4.437s2.717-2.039 3.037-5.077c0-3.038-1.319-4.397-1.319-4.397h-8.155s-4.757-1.04-6.116-2.039c-1.68-.68-4.757-1.36-6.796-2.039-1.68-.68-9.834-4.077-11.513-4.757-1.72-.68-11.553-5.077-14.272-7.115-2.718-2.04-8.115-4.038-12.192-5.757-4.437-1.679-11.553-7.435-14.591-10.833-2.719-3.718-9.155-11.873-8.155-23.386 1.039-11.513 6.795-50.85 8.834-59.644 2.039-8.835 10.514-42.734 9.155-51.889-1.36-9.154 0-13.192 1.359-15.91 1.36-2.718.32-5.077.68-8.835.32-3.717 1.359-6.756 3.038-12.872 1.719-6.116 7.115-18.988 6.796-26.104-.36-7.116.32-20.668 1.678-27.463 1.36-6.756 29.862-83.71 21.068-153.188-1.36-10.873 1-19.348 1-19.348" fill="none" stroke="#343434" stroke-width="1.359" stroke-linecap="round" stroke-linejoin="round"/><path d="M242.933 188.206c2.678 8.475-8.835 15.59-8.155 24.705m-43.774-.32c1.04.32 2.439.32 3.438.96m-46.132-30.462c.32 6.076-4.057 10.454-8.795 12.792m40.296 9.195c-1.679 1.719-2.319 4.117-3.358 6.156M58.385 355.305c1.978 4.737.66 12.152-2.659 15.51m-2.638 70.917c-3.078-2.378-5.457-6.456-6.836-10.194-1.719-4.077-.68-8.155-.68-12.592m37.618 6.796c-.36.34 1.019 2.039 1.719 2.379.68.34 1.359.34 2.398 0 .68 0 1.04 0 1.719-.34.68-.68.68-1.02.68-1.7m114.29-231.879c-.68 2.759.68 7.516 1 11.273 0 3.758-.32 8.196.64 11.593" fill="none" stroke="#343434" stroke-width="1.359" stroke-linecap="round" stroke-linejoin="round"/><path d="M193.443 228.142h9.474s-11.513 185.088-1.679 190.524c9.474 5.077 51.449 21.707 51.449 21.707l-1.32 2.678-53.847-21.347s-8.475-3.038-8.475-15.59c.36-12.553-4.077-148.47 4.398-177.972z" fill="#71a9cf" fill-rule="evenodd"/><path d="m251.448 443.091-53.888-21.347s-8.475-3.038-8.475-15.59c.36-12.553-4.077-148.47 4.398-177.972" fill="none" stroke="#343434" stroke-width="1.039" stroke-linecap="round" stroke-linejoin="round"/><path d="M202.877 228.182s-11.553 185.167-1.679 190.604c9.474 5.077 51.529 21.667 51.529 21.667" fill="none" stroke="#343434" stroke-width="1.039" stroke-linecap="round" stroke-linejoin="round"/><path d="M163.5 68.399s16.71-18.63 16.71-2c0 0 3.399-14.91-3.077-20.027-6.157-5.077-17.07-11.153-22.547-26.104l8.915 48.13z" fill="#fce2d7" fill-rule="evenodd"/><path d="M62.162 338.235c-2.738 5.097-5.137 9.514-5.476 15.29-.34 5.098 1.039 9.855-1.72 14.272-.679 1.7-3.757 5.777-4.437 2.039-.36-1.7 2.399-5.437 2.739-7.476 1.02-6.456.68-12.572 4.097-18.348 1.04-1.36 2.759-2.719 3.778-4.418zm6.636 84.509c.7 3.398 6.157 5.097 9.235 4.757 1.02-.34 3.757-1.02 4.437-.68.68.34.68 1.36 1.02 1.7.679.679 1.359 1.019 1.698 1.338-1.359 0-2.718-1.339-4.097-1.339-1.7-.34-3.398.34-5.457 0-3.078-.34-5.457-3.058-6.836-5.436zm199.16-393.282s5.756 63.402-20.068 137.917c0 0 20.068-69.119 20.068-137.917zm-31.261 180.291c.36.68.36-.68.36-1 .36-.999.679-2.038 1.359-3.038.72-1.359 1.399-2.718 2.398-4.037 1.4-2.039 3.118-4.398 3.438-6.796.68 1.36.68 4.757.68 6.796 0 1.999-.32 4.037-.68 6.076-1.36 6.076-4.437 12.153-5.477 18.549.36-6.076 2.759-12.153 3.438-17.87 0-1.039.32-3.397-1.399-3.077-1.36.36-3.078 4.757-3.398 5.756zm-19.948 150.868s-3.758 21.427-.68 27.544c3.398 6.116 7.476 15.63 19.348 22.746 0 0-17.669-6.796-21.387-22.067-4.117-15.31 2.719-28.223 2.719-28.223z" fill="#fff" fill-rule="evenodd"/><path clip-path="url(#a)" d="m218.428 436.216-16.63 27.503" fill="none" stroke="#ef852f" stroke-width="2.638" stroke-linecap="round" stroke-linejoin="round"/><path d="m207.954 438.254 10.873-2.678 2.799 10.873m4.317-24.385 17.35-27.423m-6.876 25.504-10.754 2.319-2.358-10.873" fill="none" stroke="#ef852f" stroke-width="2.638" stroke-linecap="round" stroke-linejoin="round"/><path d="M186.607 391.922c1.36 5.437 3.038 10.154 2.718 15.91-.32 3.039-.68 6.397-.68 9.435m3.319 4.158c2.078.36 3.797 2.718 5.876 3.038 1.72.32 3.438-1.36 5.157-1.36" fill="none" stroke="#343434" stroke-width="1.359" stroke-linecap="round" stroke-linejoin="round"/></svg>