<svg xmlns="http://www.w3.org/2000/svg" version="1.0" viewBox="0 0 394.998 264.907"><defs><clipPath clipPathUnits="userSpaceOnUse" id="a"><path d="M1.679 2.319h394.56v265.119H1.68z"/></clipPath></defs><path d="M4.637 4.477v.8h389.764v-.8H4.637z" fill="#c11915" fill-rule="evenodd"/><path d="M4.637 5.277v.96h389.764v-.96H4.637z" fill="#c11917" fill-rule="evenodd"/><path d="M4.637 6.236v2.559h389.764V6.236H4.637z" fill="#c11919" fill-rule="evenodd"/><path d="M4.637 8.795v1.039h389.764v-1.04H4.637z" fill="#c1191b" fill-rule="evenodd"/><path d="M4.637 9.834v1.28h389.764v-1.28H4.637z" fill="#c11a1d" fill-rule="evenodd"/><path d="M4.637 11.113v2.799h389.764v-2.799H4.637z" fill="#c01a1f" fill-rule="evenodd"/><path d="M4.637 13.912v1.279h389.764v-1.28H4.637z" fill="#c01a21" fill-rule="evenodd"/><path d="M4.637 15.19v2h389.764v-2H4.637z" fill="#c01a23" fill-rule="evenodd"/><path d="M4.637 17.19v1.279h389.764v-1.28H4.637z" fill="#c01a25" fill-rule="evenodd"/><path d="M4.637 18.469v1.04h389.764v-1.04H4.637z" fill="#c01a27" fill-rule="evenodd"/><path d="M4.637 19.508v1.76h389.764v-1.76H4.637z" fill="#c01a29" fill-rule="evenodd"/><path d="M4.637 21.267v1.28h389.764v-1.28H4.637z" fill="#bf1a2b" fill-rule="evenodd"/><path d="M4.637 22.546v2.559h389.764v-2.559H4.637z" fill="#bf1c2c" fill-rule="evenodd"/><path d="M4.637 25.105v1.279h389.764v-1.28H4.637z" fill="#bf1c2e" fill-rule="evenodd"/><path d="M4.637 26.384v1.999h389.764v-1.999H4.637z" fill="#bf1c30" fill-rule="evenodd"/><path d="M4.637 28.383v1.999h389.764v-2H4.637z" fill="#be1c32" fill-rule="evenodd"/><path d="M4.637 30.382v1.279h389.764v-1.28H4.637z" fill="#be1c34" fill-rule="evenodd"/><path d="M4.637 31.66v2.08h389.764v-2.08H4.637z" fill="#be1e36" fill-rule="evenodd"/><path d="M4.637 33.74v1.758h389.764V33.74H4.637z" fill="#bd1e38" fill-rule="evenodd"/><path d="M4.637 35.498v2.08h389.764v-2.08H4.637z" fill="#bd1e3a" fill-rule="evenodd"/><path d="M4.637 37.577v1.999h389.764v-1.999H4.637z" fill="#bd1e3c" fill-rule="evenodd"/><path d="M4.637 39.576v1.759h389.764v-1.759H4.637z" fill="#bc1f3e" fill-rule="evenodd"/><path d="M4.637 41.335v1.28h389.764v-1.28H4.637z" fill="#bc1f40" fill-rule="evenodd"/><path d="M4.637 42.614v2.079h389.764v-2.079H4.637z" fill="#bc1f42" fill-rule="evenodd"/><path d="M4.637 44.693v1.999h389.764v-2H4.637z" fill="#bb2044" fill-rule="evenodd"/><path d="M4.637 46.692v2.078h389.764v-2.078H4.637z" fill="#bb2046" fill-rule="evenodd"/><path d="M4.637 48.77v1.76h389.764v-1.76H4.637z" fill="#ba2048" fill-rule="evenodd"/><path d="M4.637 50.53v1.279h389.764v-1.28H4.637z" fill="#ba214a" fill-rule="evenodd"/><path d="M4.637 51.809v1.998h389.764V51.81H4.637z" fill="#ba224c" fill-rule="evenodd"/><path d="M4.637 53.807v1.76h389.764v-1.76H4.637z" fill="#b9224e" fill-rule="evenodd"/><path d="M4.637 55.566v2.08h389.764v-2.08H4.637z" fill="#b92250" fill-rule="evenodd"/><path d="M4.637 57.645v1.28h389.764v-1.28H4.637z" fill="#b82352" fill-rule="evenodd"/><path d="M4.637 58.924v2h389.764v-2H4.637z" fill="#b72354" fill-rule="evenodd"/><path d="M4.637 60.923v2.079h389.764v-2.079H4.637z" fill="#b72456" fill-rule="evenodd"/><path d="M4.637 63.002v1.759h389.764V63H4.637z" fill="#b62458" fill-rule="evenodd"/><path d="M4.637 64.76v1.28h389.764v-1.28H4.637z" fill="#b6245a" fill-rule="evenodd"/><path d="M4.637 66.04v1.999h389.764V66.04H4.637z" fill="#b5255c" fill-rule="evenodd"/><path d="M4.637 68.039v1.279h389.764v-1.28H4.637z" fill="#b4255e" fill-rule="evenodd"/><path d="M4.637 69.318v1.04h389.764v-1.04H4.637z" fill="#b4275f" fill-rule="evenodd"/><path d="M4.637 70.357v1.76h389.764v-1.76H4.637z" fill="#b42761" fill-rule="evenodd"/><path d="M4.637 72.116v2.079h389.764v-2.079H4.637z" fill="#b32863" fill-rule="evenodd"/><path d="M4.637 74.195v1.759h389.764v-1.759H4.637z" fill="#b22865" fill-rule="evenodd"/><path d="M4.637 75.954v1.28h389.764v-1.28H4.637z" fill="#b22867" fill-rule="evenodd"/><path d="M4.637 77.233v1.999h389.764v-1.999H4.637z" fill="#b12969" fill-rule="evenodd"/><path d="M4.637 79.232v2.079h389.764v-2.079H4.637z" fill="#b02a6b" fill-rule="evenodd"/><path d="M4.637 81.31v1.28h389.764v-1.28H4.637z" fill="#af2a6d" fill-rule="evenodd"/><path d="M4.637 82.59v1.759h389.764v-1.76H4.637z" fill="#af2b6f" fill-rule="evenodd"/><path d="M4.637 84.349v1.999h389.764v-2H4.637z" fill="#ae2b71" fill-rule="evenodd"/><path d="M4.637 86.348v2.078h389.764v-2.078H4.637z" fill="#ad2c73" fill-rule="evenodd"/><path d="M4.637 88.426v1.28h389.764v-1.28H4.637z" fill="#ac2d75" fill-rule="evenodd"/><path d="M4.637 89.706v1.759h389.764v-1.76H4.637z" fill="#ab2d77" fill-rule="evenodd"/><path d="M4.637 91.465v1.998h389.764v-1.998H4.637z" fill="#aa2d79" fill-rule="evenodd"/><path d="M4.637 93.463v1.04h389.764v-1.04H4.637z" fill="#aa2d7b" fill-rule="evenodd"/><path d="M4.637 94.503v1.279h389.764v-1.28H4.637z" fill="#a82e7c" fill-rule="evenodd"/><path d="M4.637 95.782v1.759h389.764v-1.76H4.637z" fill="#a82e7e" fill-rule="evenodd"/><path d="M4.637 97.54v2.08h389.764v-2.08H4.637z" fill="#a72f80" fill-rule="evenodd"/><path d="M4.637 99.62v1.998h389.764V99.62H4.637z" fill="#a63082" fill-rule="evenodd"/><path d="M4.637 101.618v1.28h389.764v-1.28H4.637z" fill="#a53084" fill-rule="evenodd"/><path d="M4.637 102.898v1.759h389.764v-1.76H4.637z" fill="#a43186" fill-rule="evenodd"/><path d="M4.637 104.657v2.078h389.764v-2.078H4.637z" fill="#a33188" fill-rule="evenodd"/><path d="M4.637 106.735v2h389.764v-2H4.637z" fill="#a1328a" fill-rule="evenodd"/><path d="M4.637 108.734v1.28h389.764v-1.28H4.637z" fill="#a0328c" fill-rule="evenodd"/><path d="M4.637 110.013v1.84h389.764v-1.84H4.637z" fill="#9f328e" fill-rule="evenodd"/><path d="M4.637 111.852v1.999h389.764v-1.999H4.637z" fill="#9e3390" fill-rule="evenodd"/><path d="M4.637 113.851v1.999h389.764v-1.999H4.637z" fill="#9d3492" fill-rule="evenodd"/><path d="M4.637 115.85v2.079h389.764v-2.08H4.637z" fill="#9b3594" fill-rule="evenodd"/><path d="M4.637 117.929v1.998h389.764v-1.998H4.637z" fill="#9a3696" fill-rule="evenodd"/><path d="M4.637 119.927v1.28h389.764v-1.28H4.637z" fill="#983698" fill-rule="evenodd"/><path d="M4.637 121.207v1.838h389.764v-1.838H4.637z" fill="#98369a" fill-rule="evenodd"/><path d="M4.637 123.045v2h389.764v-2H4.637z" fill="#96379c" fill-rule="evenodd"/><path d="M4.637 125.044v1.999h389.764v-1.999H4.637z" fill="#95389e" fill-rule="evenodd"/><path d="M4.637 127.043v2.079h389.764v-2.079H4.637z" fill="#9338a0" fill-rule="evenodd"/><path d="M4.637 129.122v1.999h389.764v-2H4.637z" fill="#9239a2" fill-rule="evenodd"/><path d="M4.637 131.12v2.08h389.764v-2.08H4.637z" fill="#9039a4" fill-rule="evenodd"/><path d="M4.637 133.2v1.998h389.764V133.2H4.637z" fill="#8e3aa6" fill-rule="evenodd"/><path d="M4.637 135.198v2.079h389.764v-2.079H4.637z" fill="#8d3aa8" fill-rule="evenodd"/><path d="M4.637 137.277v1.999h389.764v-2H4.637z" fill="#8b3baa" fill-rule="evenodd"/><path d="M4.637 139.276v3.038h389.764v-3.038H4.637z" fill="#893cac" fill-rule="evenodd"/><path d="M4.637 142.314v2.078h389.764v-2.078H4.637z" fill="#873cae" fill-rule="evenodd"/><path d="M4.637 144.392v2h389.764v-2H4.637z" fill="#853db0" fill-rule="evenodd"/><path d="M4.637 146.391v2.079h389.764v-2.079H4.637z" fill="#833eb2" fill-rule="evenodd"/><path d="M4.637 148.47v3.038h389.764v-3.038H4.637z" fill="#813eb4" fill-rule="evenodd"/><path d="M4.637 151.508v1.999h389.764v-1.999H4.637z" fill="#7f3fb6" fill-rule="evenodd"/><path d="M4.637 153.507v2.079h389.764v-2.079H4.637z" fill="#7d3fb8" fill-rule="evenodd"/><path d="M4.637 155.586v1.998h389.764v-1.998H4.637z" fill="#7b40ba" fill-rule="evenodd"/><path d="M4.637 157.584v2.08h389.764v-2.08H4.637z" fill="#7941bb" fill-rule="evenodd"/><path d="M4.637 159.663v1.999h389.764v-1.999H4.637z" fill="#7741bd" fill-rule="evenodd"/><path d="M4.637 161.662v2.079h389.764v-2.079H4.637z" fill="#7541be" fill-rule="evenodd"/><path d="M4.637 163.74v2h389.764v-2H4.637z" fill="#7442c0" fill-rule="evenodd"/><path d="M4.637 165.74v1.998h389.764v-1.998H4.637z" fill="#7242c1" fill-rule="evenodd"/><path d="M4.637 167.738v2.08h389.764v-2.08H4.637z" fill="#7043c3" fill-rule="evenodd"/><path d="M4.637 169.817v1.999h389.764v-1.999H4.637z" fill="#6e43c4" fill-rule="evenodd"/><path d="M4.637 171.816v2.079h389.764v-2.08H4.637z" fill="#6c44c6" fill-rule="evenodd"/><path d="M4.637 173.895v1.998h389.764v-1.998H4.637z" fill="#6a44c7" fill-rule="evenodd"/><path d="M4.637 175.893v2.08h389.764v-2.08H4.637z" fill="#6845c8" fill-rule="evenodd"/><path d="M4.637 177.972v1.999h389.764v-1.999H4.637z" fill="#6645ca" fill-rule="evenodd"/><path d="M4.637 179.97v2.08h389.764v-2.08H4.637z" fill="#6445cb" fill-rule="evenodd"/><path d="M4.637 182.05v1.998h389.764v-1.998H4.637z" fill="#6246cc" fill-rule="evenodd"/><path d="M4.637 184.048v2.08h389.764v-2.08H4.637z" fill="#6046cd" fill-rule="evenodd"/><path d="M4.637 186.127v2.798h389.764v-2.798H4.637z" fill="#5e46ce" fill-rule="evenodd"/><path d="M4.637 188.925v2h389.764v-2H4.637z" fill="#5c47cf" fill-rule="evenodd"/><path d="M4.637 190.924v2h389.764v-2H4.637z" fill="#5a47d0" fill-rule="evenodd"/><path d="M4.637 192.923v2.319h389.764v-2.319H4.637z" fill="#5847d1" fill-rule="evenodd"/><path d="M4.637 195.242v1.279h389.764v-1.28H4.637z" fill="#5648d3" fill-rule="evenodd"/><path d="M4.637 196.52v2.8h389.764v-2.8H4.637z" fill="#5448d3" fill-rule="evenodd"/><path d="M4.637 199.32v1.998h389.764v-1.999H4.637z" fill="#5248d5" fill-rule="evenodd"/><path d="M4.637 201.318v2.079h389.764v-2.079H4.637z" fill="#5048d6" fill-rule="evenodd"/><path d="M4.637 203.397v1.999h389.764v-2H4.637z" fill="#4e49d6" fill-rule="evenodd"/><path d="M4.637 205.396v2.078h389.764v-2.078H4.637z" fill="#4c49d7" fill-rule="evenodd"/><path d="M4.637 207.474v2h389.764v-2H4.637z" fill="#4a49d8" fill-rule="evenodd"/><path d="M4.637 209.473v2.079h389.764v-2.079H4.637z" fill="#4849d9" fill-rule="evenodd"/><path d="M4.637 211.552v3.038h389.764v-3.038H4.637z" fill="#464ada" fill-rule="evenodd"/><path d="M4.637 214.59v1.28h389.764v-1.28H4.637z" fill="#444ada" fill-rule="evenodd"/><path d="M4.637 215.87v2.797h389.764v-2.798H4.637z" fill="#424adb" fill-rule="evenodd"/><path d="M4.637 218.667v2h389.764v-2H4.637z" fill="#404adc" fill-rule="evenodd"/><path d="M4.637 220.666v2.079h389.764v-2.079H4.637z" fill="#3e4bdc" fill-rule="evenodd"/><path d="M4.637 222.745v1.999h389.764v-1.999H4.637z" fill="#3c4bdd" fill-rule="evenodd"/><path d="M4.637 224.744v2.079h389.764v-2.08H4.637z" fill="#3a4bdd" fill-rule="evenodd"/><path d="M4.637 226.823v3.038h389.764v-3.038H4.637z" fill="#384bde" fill-rule="evenodd"/><path d="M4.637 229.86v2h389.764v-2H4.637z" fill="#364bdf" fill-rule="evenodd"/><path d="M4.637 231.86v2.078h389.764v-2.079H4.637z" fill="#344bdf" fill-rule="evenodd"/><path d="M4.637 233.938v2.799h389.764v-2.799H4.637z" fill="#324ce0" fill-rule="evenodd"/><path d="M4.637 236.737v1.279h389.764v-1.28H4.637z" fill="#304ce0" fill-rule="evenodd"/><path d="M4.637 238.016v3.997h389.764v-3.997H4.637z" fill="#2e4ce0" fill-rule="evenodd"/><path d="M4.637 242.013v2.08h389.764v-2.08H4.637z" fill="#2c4ce1" fill-rule="evenodd"/><path d="M4.637 244.092v1.999h389.764v-1.999H4.637z" fill="#2a4ce2" fill-rule="evenodd"/><path d="M4.637 246.09v2.8h389.764v-2.8H4.637z" fill="#284ce2" fill-rule="evenodd"/><path d="M4.637 248.89v1.278h389.764v-1.279H4.637z" fill="#264ce2" fill-rule="evenodd"/><path d="M4.637 250.168v3.039h389.764v-3.039H4.637z" fill="#244ce2" fill-rule="evenodd"/><path d="M4.637 253.207v1.279h389.764v-1.28H4.637z" fill="#224de3" fill-rule="evenodd"/><path d="M4.637 254.486v2.798h389.764v-2.798H4.637z" fill="#204de3" fill-rule="evenodd"/><path d="M4.637 257.284v2.319h389.764v-2.319H4.637z" fill="#1e4de3" fill-rule="evenodd"/><path d="M4.637 259.603v1.998h389.764v-1.998H4.637z" fill="#1c4de4" fill-rule="evenodd"/><path d="M4.637 261.601v3.358h389.764v-3.358H4.637z" fill="#194de4" fill-rule="evenodd"/><path clip-path="url(#a)" d="M4.637 4.477h389.764V264.96H4.637z" fill="none" stroke="#7b879d" stroke-width="1.039" stroke-miterlimit="8"/><path d="m162.022 5.117 232.339-.36v39.976l-48.93 31.181L283.108 98.7l-37.297-6.156-18.309-12.632-17.989-26.344L187.207 33.1 162.022 5.117z" fill="#f3aac4" fill-rule="evenodd"/><path d="M383.528 33.38c-2.559 3.118-8.595 7.675-12.873 10.833-4.557 3.158-5.716 7.995-5.716 7.995-1.72-2.838-16.27 3.158-20.548 6.277-4.317 2.878-9.434 3.158-19.748 3.437-10.274.28-10.833 2.839-19.148 5.997-8.555 3.118-10.274 7.116-10.274 7.116.28-2.28-9.434-3.398-17.15-4.558-7.715-1.439-11.433-6.556-16.83-9.714-5.716-3.398-10.873-2.278-10.873-2.278 1.16-3.119-6.276-11.713-9.154-16.27-2.559-4.558-9.155-9.155-9.155-9.155s-2.558-6.556-6.556-13.992c-1.998-3.397-7.995-8.834-13.711-13.991h-43.454c.88 1.719 5.437 7.435 9.154 9.714 4.278 2.878 25.425 19.148 29.742 26.584 3.998 7.116 6.556 13.672 6.556 13.672s6.556 4.597 9.155 9.154c2.838 4.557 10.274 13.152 9.114 16.55 0 0 5.157-1.12 10.874 1.999 5.436 3.158 9.154 8.275 16.87 9.714 7.715 1.44 17.429 2.558 17.15 4.557 0 0 1.718-3.997 10.273-7.115 8.275-3.159 8.875-5.437 19.148-5.717 10.274-.56 15.431-.56 19.708-3.718 4.278-2.838 18.869-9.114 20.588-6.276 0 0 1.12-4.837 5.716-7.995 4.278-3.158 10.274-7.715 12.833-10.834 2.598-3.158 8.874-7.155 12.312-7.995 3.718-.88 15.71-6.316 16.83-6.876v-14.83c-3.678 1.399-8.555 4.837-10.833 7.715z" fill="#f1b9d0" fill-rule="evenodd"/><path d="M4.757 4.757h96.781l12.273 19.188s8.555 30.862 7.995 38.017c-.28 6.876-6.836 26.584-6.836 26.584l-38.536 24.905-30.262 18.869-41.415 3.398V4.758z" fill="#f3aac4" fill-rule="evenodd"/><path d="M117.849 67.44c-.84-5.717-3.718-18.27-3.159-23.427.32-5.157 1.16-6.276 0-10.593-1.119-4.278-2.838-8.555-1.678-9.395 0 0-2 0-2.879-1.998-1.12-2-5.117-6.317-7.435-8.875-.84-.84-1.999-1.999-3.118-2.878 0 .88 0 2.039-.28 3.158-.28 5.157 2.278 17.71 3.398 23.426.88 5.716-1.4 11.433-3.118 14.87-1.72 3.439-1.16 5.437-1.16 5.437-1.719-1.439-2.838 1.12-4.557 3.118-1.719 2-8.275 4.878-20.268 8.036-11.992 3.118-16.55 6.835-21.706 12.552-5.437 5.717-15.431 14.591-18.829 15.43-3.438.84-2.878 3.998-2.878 3.998-.84-1.999-18.829 1.44-24.825.88h-.6v34.539h.32v-2.559s9.674-2.278 15.39-1.719c5.997.6 23.986-2.558 25.145-.56 0 0-.88-3.437 2.559-3.997 3.438-.88 13.432-9.714 18.868-15.43 5.397-5.717 9.994-9.715 21.987-12.593 11.993-3.118 18.269-6.276 19.988-7.995 1.679-1.999 2.838-4.557 4.557-3.438 0 0-.56-1.679 1.12-5.117 1.718-3.438 3.997-9.154 3.158-14.87z" fill="#f1b9d0" fill-rule="evenodd"/><path d="M104.137 4.757h4.597s6.556 13.472 15.43 22.307c8.835 8.874 11.394 18.309 8.276 33.18-2.879 14.87-7.436 37.137-39.416 52.288-31.701 15.47-36.019 22.306-53.128 26.584-16.87 4.317-27.424 7.715-35.459 6.876v-6.277l41.735-8.594 37.138-22.587s23.145-7.435 31.14-20.267c7.716-12.593 11.114-51.49-.879-65.201-12.272-13.712-9.434-17.43-9.434-17.43zm52.208 0s10.034 17.75 18.589 24.026c8.875 5.996 23.146 17.989 29.702 25.704 6.276 7.435 17.71 31.42 29.142 37.417 11.433 5.717 28.583 15.431 54.008 11.433C312.93 99.06 330.36 84.79 341.193 82.19c10.874-2.558 28.863-12.832 35.739-19.108 6.556-6.037 17.11-10.594 17.11-10.594v-8.275s-11.394 3.118-18.83 10.274c-7.715 6.876-28.022 21.147-28.022 21.147l-38.857 14.272-31.98 8.874-36.298-10.274-8.275-5.996-21.148-28.583-25.424-24.865L165.22 9.075l-2.838-4.318h-6.037zM4.757 188.006v5.437l20.588-1.44 23.385 8.595 19.988 19.429 30.262 22.866 11.713 10.593 11.113 11.114h10.554s-62.482-56.886-88.746-74.595c-18.27-12.313-38.857-1.999-38.857-1.999zm185.887 75.954s-19.148-14.831-25.424-19.988c-6.596-5.117-27.424-28.822-33.7-32.82-6.316-4.038-31.46-17.15-26.024-44.013 5.437-27.144 25.425-34.86 38.857-39.696 13.431-4.557 43.133-12.593 53.407-1.16 9.994 11.434 17.15 30.582 25.425 58.845 8.595 28.023 20.587 67.439 35.418 78.832h-4.557s-19.988-30.262-24.545-40.256c-4.317-9.994-15.43-52.848-19.148-61.402-3.718-8.595-9.435-34.3-28.863-34.86-19.708-.879-45.133 8.835-53.128 16.27-7.995 7.716-19.148 26.865-10.873 41.416 8.595 14.87 18.309 25.704 24.865 31.14 6.556 5.158 33.7 29.703 37.697 32.861 3.997 3.438 18.309 14.831 18.309 14.831h-7.716zm127.123.32h-6.556s-15.99-21.707-19.428-27.703c-3.118-6.277-15.11-21.707-15.39-37.178-.6-15.11 2.558-42.854 23.385-54.847 20.868-12.032 45.693-18.868 52.848-23.146 7.116-4.317 36.258-15.75 41.095-21.187v5.717s-25.664 14.031-45.652 22.026c-19.988 7.716-49.69 25.425-55.127 33.74-5.716 7.995-13.991 41.415-5.996 55.446 8.275 13.992 30.821 47.132 30.821 47.132z" fill="#d96867" fill-rule="evenodd"/><path clip-path="url(#a)" d="M104.137 4.757h4.597s6.556 13.472 15.43 22.307c8.835 8.874 11.394 18.309 8.276 33.18-2.879 14.87-7.436 37.137-39.416 52.288-31.701 15.47-36.019 22.306-53.128 26.584-16.87 4.317-27.424 7.715-35.459 6.876v-6.277l41.735-8.594 37.138-22.587s23.145-7.435 31.14-20.267c7.716-12.593 11.114-51.49-.879-65.201-12.272-13.712-9.434-17.43-9.434-17.43m52.208-.879s10.034 17.75 18.589 24.026c8.875 5.996 23.146 17.989 29.702 25.704 6.276 7.435 17.71 31.42 29.142 37.417 11.433 5.717 28.583 15.431 54.008 11.433C312.93 99.06 330.36 84.79 341.193 82.19c10.874-2.558 28.863-12.832 35.739-19.108 6.556-6.037 17.11-10.594 17.11-10.594v-8.275s-11.394 3.118-18.83 10.274c-7.715 6.876-28.022 21.147-28.022 21.147l-38.857 14.272-31.98 8.874-36.298-10.274-8.275-5.996-21.148-28.583-25.424-24.865L165.22 9.075l-2.838-4.318h-6.037zM4.757 188.006v5.437l20.588-1.44 23.385 8.595 19.988 19.429 30.262 22.866 11.713 10.593 11.113 11.114h10.554s-62.482-56.886-88.746-74.595c-18.27-12.313-38.857-1.999-38.857-1.999" fill="none" stroke="#343434" stroke-width=".8" stroke-miterlimit="8"/><path d="M190.644 263.96s-19.148-14.831-25.424-19.988c-6.596-5.117-27.424-28.822-33.7-32.82-6.316-4.038-31.46-17.15-26.024-44.013 5.437-27.144 25.425-34.86 38.857-39.696 13.431-4.557 43.133-12.593 53.407-1.16 9.994 11.434 17.15 30.582 25.425 58.845 8.595 28.023 20.587 67.439 35.418 78.832h-4.557s-19.988-30.262-24.545-40.256c-4.317-9.994-15.43-52.848-19.148-61.402-3.718-8.595-9.435-34.3-28.863-34.86-19.708-.879-45.133 8.835-53.128 16.27-7.995 7.716-19.148 26.865-10.873 41.416 8.595 14.87 18.309 25.704 24.865 31.14 6.556 5.158 33.7 29.703 37.697 32.861 3.997 3.438 18.309 14.831 18.309 14.831h-7.716z" fill="none" stroke="#343434" stroke-width=".8" stroke-miterlimit="8"/><path clip-path="url(#a)" d="M317.807 263.96h-6.276s-16.27-21.427-19.428-27.703c-3.118-6.276-15.39-21.427-15.67-36.858-.32-15.43 2.558-42.894 23.385-54.887 21.147-12.312 45.972-19.148 53.128-23.425 7.116-4.318 36.258-15.75 41.095-21.188v6.037s-25.664 13.991-45.652 21.707c-19.988 7.995-49.69 25.424-55.407 33.74-5.436 8.274-13.991 41.414-5.716 55.725 7.995 13.992 30.541 46.852 30.541 46.852" fill="none" stroke="#343434" stroke-width=".8" stroke-miterlimit="8"/><path d="M4.437 194.362v69.918h114.251l-13.472-18.31-29.302-24.824-32.66-26.624-19.988-6.516-18.829 6.356zm190.245 69.598h57.605l-10.154-19.988-20.148-44.613-4.797-21.987-14.83-34.339-16.83-16.83-28.463 3.199-34.62 16.79-9.194 28.662 7.676 19.988 23.465 23.506 19.149 19.628 31.141 25.984zm121.566 0h78.113V105.016l-46.132 22.667-42.135 20.347-12.312 8.995-10.354 27.143-.84 24.346 9.675 20.627 23.985 34.819z" fill="#f3aac4" fill-rule="evenodd"/><path d="M95.222 4.757h9.155s4.557 12.313 10.274 17.47c5.996 5.116 13.711 16.87 13.431 31.14 0 14.312-3.997 27.464-11.992 36.618-8.275 9.115-31.141 21.148-41.135 27.704-9.994 6.276-27.144 18.868-70.038 25.144v-9.714s9.754-2.278 15.43-1.719c6.037.6 24.026-2.558 25.185-.56 0 0-.88-3.437 2.559-3.997 3.438-.84 13.432-9.714 18.868-15.43 5.397-5.717 9.994-9.715 21.987-12.593 11.993-3.118 18.309-6.276 19.988-7.995 1.719-1.999 2.878-4.557 4.597-3.438 0 0-.6-1.719 1.12-5.157 1.718-3.398 3.997-9.114 3.158-14.83-.84-5.717-3.718-18.31-3.158-23.467.32-5.157 1.159-6.276 0-10.553-1.12-4.318-2.839-8.595-1.72-9.435 0 0-1.998 0-2.838-1.998-1.159-2.04-5.157-6.316-7.435-8.875-2.279-2.279-5.717-4.877-7.436-8.315z" fill="#f4d2e0" fill-rule="evenodd"/><path d="M100.42 10.753c-.28-.28-.28-.6-.6-.879-.84-.56-1.68-1.4-2.559-2.279.88 1.16 1.999 2 3.158 3.158zm9.393 9.994s-.28 0-.56-.28c.28.28.28.56.28.56.28 0 .28-.28.28-.28zm2-1.719c.28.28.599.56.879.88-4.877-5.717-8.275-15.47-8.275-15.47h-1.72c1.72 4.037 4.838 11.153 9.115 14.59zm2.877 2.879c5.117 5.996 10.834 16.27 10.554 28.303-.28 14.27-3.997 27.143-11.713 36.298v.56c-.28 0-.28 0-.56-.28-7.995 9.154-31.1 21.426-40.815 27.743-5.716 3.398-13.432 9.114-26.863 14.27v1.72c-.28-.56-1.12-.56-2.559-.84-9.394 3.718-21.987 7.116-37.977 9.435v3.398c43.134-6.277 60.244-18.869 69.958-25.425 9.994-6.276 33.1-18.309 41.095-27.423 8.275-9.155 11.993-22.307 12.272-36.618.28-14.272-7.395-26.024-13.392-31.141z" fill="#f1dfe7" fill-rule="evenodd"/><path d="M87.867 102.778c.84 1.719-1.72 4.837-5.957 7.115-4.277 2.279-8.275 3.119-9.114 1.44-.88-1.44 1.719-4.558 5.956-7.116 4.278-2.279 8.275-2.878 9.115-1.44zm32.54-62.922c2.319-.32 4.317 4.877 4.877 11.473.28 6.596-1.12 12.033-3.438 12.033-2.278 0-4.597-5.157-4.877-11.473-.6-6.596 1.16-12.033 3.438-12.033zM4.757 136.157v5.157s12.313-.84 12.592-4.557c.28-3.758-12.592-.6-12.592-.6z" fill="#e07fa7" fill-rule="evenodd"/><path clip-path="url(#a)" d="M45.333 130.52c-2-3.997-1.72-5.116-.88-9.393.88-4.318.88-8.315.88-12.593-.28-8.555 3.397-18.269 0-26.264-2-5.157-2-10.553-4.318-15.71-2.278-5.157-4.557-10.554-7.715-15.151-2.279-3.118-5.117-5.717-7.396-8.835-1.719-1.999-3.438-5.157-6.036-6.596-2.279-1.399-5.996-2.278-8.555-2.838-2.278-.56-4.557-2.878-6.876-2.559" fill="none" stroke="#343434" stroke-width=".8" stroke-miterlimit="8"/><path clip-path="url(#a)" d="M45.053 81.03c.56 3.759-3.718 5.478-6.556 6.597-4.278 1.759-7.995 3.478-12.593 4.037-3.997.56-7.995 1.16-12.272 1.72-2.559.28-6.556-.28-8.875.839" fill="none" stroke="#343434" stroke-width=".8" stroke-miterlimit="8"/><path d="M113.291 23.666c-1.119-.6-3.438 1.719-4.557 2.278-1.999 1.16-4.317 1.72-6.316 2.559-5.996 2.878-11.433 7.995-17.43 11.713-3.997 2.598-8.314 4.277-12.592 5.996-4.597 2.319-6.316 8.595-2.878 12.313 4.037 4.277 13.472 2.558 18.629 3.118 5.996.6 9.434 6.276 12.552 10.593 2.598 2.838 5.157 5.397 7.755 8.275 1.4 1.72 4.278 4.557 5.117 6.836" fill="none" stroke="#343434" stroke-width=".8" stroke-miterlimit="8"/><path d="M71.597 60.283c-3.398-2.038-5.997 1.68-7.996 3.718-3.118 2.838-6.276 5.717-9.993 7.716-2.28 1.119-5.717 1.399-7.436 3.118-1.44 1.439-1.12 3.717-1.12 5.716" fill="none" stroke="#343434" stroke-width=".8" stroke-miterlimit="8"/><path clip-path="url(#a)" d="M68.718 49.53c-.28-2.558-2.838-2.838-4.877-3.398-3.158-.88-5.157-1.999-7.435-4.277-2.599-2.879-4.877-5.717-7.755-8.315-2-2-3.438-3.398-4.318-5.997-1.439-5.716-.28-8.555 3.158-13.112 2.039-2.278 6.916-6.876 4.318-10.313" fill="none" stroke="#343434" stroke-width=".8" stroke-miterlimit="8"/><path d="M43.773 23.146c-2.838-.88-3.677 1.719-5.676 3.118-2.559 2.319-3.678 3.438-4.837 6.876-.84 2.558-1.12 5.437-3.398 7.116-1.44.88-4.837 1.998-5.437-.28" fill="none" stroke="#343434" stroke-width=".8" stroke-miterlimit="8"/><path d="M161.062 4.757h7.156s5.157 7.156 9.434 10.034c4.278 2.838 25.425 19.148 29.702 26.584 3.998 7.156 6.556 13.712 6.556 13.712s6.556 4.597 9.155 9.154c2.838 4.557 10.274 13.152 9.114 16.59 0 0 5.157-1.16 10.874 1.999 5.396 3.158 9.114 8.275 16.83 9.714 7.715 1.439 17.429 2.558 17.15 4.597 0 0 1.678-4.037 10.273-7.156 8.275-3.158 8.835-5.436 19.108-5.716 10.314-.6 15.43-.6 19.708-3.718 4.278-2.878 18.869-9.154 20.588-6.316 0 0 1.12-4.837 5.676-7.995 4.318-3.158 10.314-7.715 12.873-10.874 2.558-3.118 8.834-7.115 12.272-7.995 3.718-.84 16.83-6.876 16.83-6.876v6.037s-3.398 1.719-5.677 3.997c-2.598 2.279-11.992 12.553-21.147 16.59-9.434 3.718-21.707 9.994-27.423 12.553-5.397 2.598-30.542 13.751-39.976 16.87-9.114 3.158-27.703 7.995-50.81-.56-23.145-8.875-30.26-29.462-35.138-35.459-4.837-5.716-23.426-24.865-32.82-31.14-9.434-6.317-19.708-22.587-20.308-24.306z" fill="#f4d2e0" fill-rule="evenodd"/><path d="M377.531 47.331c-3.438.88-9.714 4.877-12.272 7.995-2.559 3.159-8.555 7.716-12.873 10.874-2.838 1.999-4.277 4.557-5.116 6.276 1.718-.28 2.838-.28 3.118.6 0 0 1.439-4.877 5.716-8.035 4.597-3.119 10.274-7.676 13.152-10.834 2.559-3.158 8.555-7.156 12.273-7.995 2.558-.6 8.834-3.438 12.832-5.157v-.56s-13.112 5.997-16.83 6.836zm-54.247 34.58c2.559-.28 4.837-1.12 6.836-2.56 2.279-1.438 7.435-3.997 11.993-5.716-5.117 1.12-12.833 4.837-15.99 6.836-.84.6-1.72 1.16-2.839 1.44zm-43.973 12.592c1.119.56 1.719 1.119 1.719 1.719 0 0 1.679-4.318 9.994-7.436 4.557-1.719 6.835-3.158 9.394-3.997-4.837.84-6.836 2.838-13.112 5.117-3.998 1.439-6.596 3.158-7.995 4.597zm-25.985.28c-9.154-3.438-15.71-8.595-20.587-13.992h-.56v-.6c-7.435-8.275-11.113-17.15-13.991-20.827-.56-.88-1.72-1.999-2.839-3.158a8.118 8.118 0 0 1-1.439-1.16s0-.28-.28-.559c-7.715-8.275-20.867-21.427-28.262-26.264-8.595-5.717-17.99-19.748-19.988-23.466h-4.318v.32c.6 1.679 10.874 17.989 20.308 24.265 9.394 6.276 27.983 25.425 32.82 31.141 4.877 5.997 11.993 26.584 35.139 35.419 21.387 7.995 38.537 4.597 48.53 1.439-10.273 2.558-25.984 4.277-44.533-2.558z" fill="#f1dfe7" fill-rule="evenodd"/><path d="M188.925 27.423c4.238 3.438 7.076 6.836 6.237 7.716-.84 1.119-4.837-.88-9.115-3.998-3.957-3.438-6.836-6.876-6.236-7.715.84-1.16 4.837.84 9.114 3.997zm55.687 61.963c-.56.84-2.839.56-4.837-.88-2-1.399-3.158-3.438-2.279-4.277.56-.88 2.838-.56 4.837.84 1.999 1.439 2.838 3.437 2.279 4.317zm63.082-3.518c.56 1.44-3.998 4.317-9.954 6.636-5.997 2.279-11.394 2.838-11.673 1.719-.6-1.16 3.957-4.038 9.954-6.316 5.996-2.319 11.393-3.198 11.673-2.039zm74.714-34.299c.84 1.439-3.158 5.476-9.234 9.234-5.757 3.758-11.193 5.757-12.073 4.318-.88-1.12 3.158-5.477 9.195-9.195 5.756-3.478 11.233-5.517 12.112-4.357z" fill="#e07fa7" fill-rule="evenodd"/><path clip-path="url(#a)" d="M232.14 80.711c1.998-1.12 1.438-4.557 1.718-6.276 0-3.118.28-5.717 1.16-8.555 2.278-6.876 7.715-12.592 9.434-19.428 1.399-6.876 5.676-14.591 2.558-21.427-2.558-5.157-5.716-10.554-9.434-15.151-1.719-1.719-3.718-3.438-5.117-5.437" fill="none" stroke="#343434" stroke-width=".8" stroke-miterlimit="8"/><path clip-path="url(#a)" d="M309.293 4.757c-4.278 4.877-6.556 10.914-12.273 14.631-3.438 2.279-5.717 3.998-7.995 7.716-2.878 4.277-6.316 6.875-11.753 7.435-7.156.84-14.871.56-21.707 0-3.438 0-6.316-.56-7.755-3.998" fill="none" stroke="#343434" stroke-width=".8" stroke-miterlimit="8"/><path d="M276.912 96.222c.28-1.68-1.12-3.398-.84-5.437.28-1.999 1.4-4.557 1.68-6.556 1.399-6.316 1.119-13.152 0-19.188-1.4-7.156-.84-13.432 0-20.588.56-3.438.84-7.156-1.4-10.034" fill="none" stroke="#343434" stroke-width=".8" stroke-miterlimit="8"/><path d="M299.179 17.55c3.158-2.32 7.155 2.558 9.154 4.277 4.278 3.478 8.595 7.195 13.152 10.353 2.878 2.28 7.436 4.278 7.995 8.595.28 3.158-2.278 5.717-4.837 7.476-3.997 2.558-8.315 5.157-12.312 7.715-3.118 1.999-6.836 4.317-9.994 5.757-7.156 2.838-15.43.56-22.027-1.72-1.399-.599-2.558-.879-3.718-1.159" fill="none" stroke="#343434" stroke-width=".8" stroke-miterlimit="8"/><path d="M327.442 45.652c3.437-1.719 4.037 1.44 4.317 4.038.56 4.277 1.719 7.435 4.277 10.873 3.718 4.837 8.595 7.995 9.714 13.992" fill="none" stroke="#343434" stroke-width=".8" stroke-miterlimit="8"/><path clip-path="url(#a)" d="M329.28 39.936c2.599-3.398 9.155-2.279 13.152-3.118 9.115-2.279 16.55-7.116 23.946-13.112 5.716-4.558 11.153-8.555 17.71-11.433 2.837-1.4 7.115-3.998 9.953-1.4" fill="none" stroke="#343434" stroke-width=".8" stroke-miterlimit="8"/><path d="M4.917 192.563v4.558s3.718-2 7.156 1.159c3.438 3.398 8.594 6.276 13.711 5.716 4.877-.6 9.435-4.037 13.432-3.438 4.318.56 7.756 1.72 9.435 0 0 0 .32 3.718 2.878 5.717 2.558 1.999 7.435 8.275 9.154 12.872 1.999 4.837 8.275 19.149 20.268 21.987 11.753 2.598 18.589 5.437 19.748 6.316 1.12.84 2.558 3.718 4.557 2.838 0 0 .28 2 2.599 4.558 2.278 2.598 7.115 9.434 7.115 9.434h11.713s-19.708-17.43-19.988-17.43c-.28-.28-18.029-15.71-23.425-19.708-5.717-4.277-37.178-34.299-52.609-38.296-15.71-4.038-25.744 3.717-25.744 3.717z" fill="#f4d2e0" fill-rule="evenodd"/><path d="M27.783 192.243c4.597 1.16 10.874 4.598 17.19 9.155 1.679 0 2.838 0 3.678-.84 0 0 .32 3.718 2.878 5.717 12.872 9.994 25.424 21.707 28.862 23.985 5.437 4.318 23.146 19.748 23.426 19.748 0 0 .32.28.6.28.28.28.56.28.84 0 0 0 0 .56.599 1.44 3.118 2.838 9.994 8.874 14.271 12.552h6.556s-19.708-17.43-19.988-17.43c-.28-.28-18.029-15.71-23.425-19.708-5.717-4.277-37.178-34.299-52.609-38.296-15.71-4.038-25.744 3.717-25.744 3.717v1.68c4.038-2 12.033-4.838 22.866-2z" fill="#f1dfe7" fill-rule="evenodd"/><path d="M12.912 195.202c0-2.239 4.637-4.078 10.354-4.078 5.756 0 10.354 1.84 10.354 4.078 0 2.278-4.598 4.077-10.354 4.077-5.717 0-10.354-1.799-10.354-4.077zm73.316 43.413c-1.72 1.68-7.156-.6-12.313-5.436-5.157-4.877-8.315-10.034-6.596-11.713 1.72-2.039 7.156.56 12.313 5.397 5.157 4.877 8.275 10.033 6.596 11.752z" fill="#e07fa7" fill-rule="evenodd"/><path d="M195.561 264.6h11.993s-7.435-6.277-14.59-9.395c-6.837-2.878-13.153-6.876-16.87-13.432-3.718-6.596-9.715-11.433-15.431-13.711-5.437-2.319-7.996-8.595-11.154-6.596 0 0 .32-3.718-3.717-5.717-3.998-1.999-18.869-17.15-19.429-24.265-.84-6.876 2.599-14.871-1.719-23.146-4.557-8.315-.28-13.712 2-17.75 2.318-3.997 5.436-4.277 4.596-6.835 0 0 1.72 1.719 4.278 0 2.558-1.44 5.437-3.158 9.434-2.559 3.998.28 13.432-.32 16.59-4.317 2.838-3.998 7.436-4.557 6.276-6.556 0 0 5.157.84 8.595.84 3.118-.28 14.551-.84 17.43 6.316 2.838 6.836 2.838 15.99 8.275 21.147 5.716 5.117 9.434 11.433 10.873 15.99 1.12 4.278 1.719 12.553 3.997 11.993 0 0-1.439 7.156.28 11.153 1.72 3.998 2.879 9.994 2.559 13.712-.28 3.997 1.999 13.432 6.876 18.269 4.877 4.877 11.153 16.87 13.711 15.75 0 0 4.278 14.272 7.995 18.549h5.717s-14.831-26.584-17.99-33.7c-3.157-6.875-13.99-37.177-16.31-46.012-2.278-8.874-13.99-43.134-19.707-48.85-5.997-5.717-14.871-15.75-38.577-8.875-23.466 7.156-47.451 15.71-51.769 42.854-3.717 22.587 12.873 30.022 20.868 36.858 8.035 7.156 27.183 26.304 32.9 31.74 5.437 5.437 32.02 26.545 32.02 26.545z" fill="#f4d2e0" fill-rule="evenodd"/><path d="M135.798 143.633h-.28.28zm40.615-12.592c.28 0 .56-.28.84-.28-2.559 0-5.157-.56-5.157-.56.28.28.28.56.28.56 1.439.28 2.878.28 4.037.28zm77.433 132.999h-.84c-2.278-2.558-4.597-8.875-6.276-13.152-.879-1.719-2.038-3.718-2.878-5.437-3.158-1.719-8.555-11.433-12.872-15.71-4.837-4.877-6.836-14.312-6.556-18.31 0-3.717-1.16-9.753-2.598-13.75-1.12-2.56-.84-6.277-.56-8.835-.28-1.16-.84-2.04-.84-2.879-.88-1.159-1.439-3.717-1.998-6.276-.88-2.878-2-6.316-3.158-10.034-2-3.718-4.878-7.715-8.595-11.153-5.717-5.157-5.717-14.311-8.555-21.147-2.559-6.596-12.872-6.596-16.59-6.596 4.597.28 10.314 1.719 12.313 6.596 2.838 6.836 2.838 15.99 8.275 21.147 5.716 5.157 9.434 11.433 10.873 16.03 1.12 4.278 1.719 12.593 3.997 11.993 0 0-1.439 7.156.28 11.153 1.72 3.998 2.879 10.034 2.559 13.752-.28 3.997 1.999 13.432 6.876 18.309 4.877 4.837 11.153 16.87 13.711 15.71 0 0 4.278 14.312 7.995 18.589h5.717-.28zM150.39 220.866c-.28.28-.56.28-.88.56 0 0 0-.84-.28-1.72-2.278-2.278-4.837-4.556-7.155-6.835-.84-.88-1.68-1.719-2.838-2.598-1.44-1.44-2.879-2.839-3.998-3.998-7.995-6.876-24.865-14.311-21.147-36.898 4.557-27.183 28.583-35.738 52.008-42.894 4.558-1.439 8.875-1.998 12.593-2.278-4.877-.32-10.314.28-17.15 2.278-23.466 7.156-47.451 15.71-51.769 42.894-3.717 22.587 12.873 30.022 20.868 36.898 8.035 7.156 27.183 26.304 32.9 31.74 5.437 5.437 32.02 26.585 32.02 26.585h4.558s-26.584-21.148-32.3-26.584c-2.879-2.839-9.995-9.994-17.43-17.15zm-4.278-79.792h3.718-.6c-1.119-.28-1.998-.28-3.118 0z" fill="#f1dfe7" fill-rule="evenodd"/><path d="M156.665 133.599c.56 1.44-1.719 3.438-4.837 4.597-3.438 1.12-6.316.84-6.876-.28-.6-1.439 1.72-3.438 5.157-4.877 3.118-1.159 6.276-.84 6.556.56zm-33.62 42.374c.84 6.596-.6 12.313-3.158 12.593-2.878.56-5.756-4.597-6.636-11.473-.88-6.596.56-12.313 3.158-12.593 2.879-.32 5.757 4.877 6.636 11.473zm79.632-27.103c1.4 3.438 1.959 6.596 1.12 6.876-.84.28-2.559-2-4.278-5.437-1.4-3.718-1.999-6.596-1.12-7.156.84-.32 2.56 2.279 4.278 5.717zm26.224 67.439c1.4 4.557 1.12 8.835-.56 9.114-1.399.56-3.957-2.838-5.076-7.395-1.44-4.557-1.12-8.835.56-9.115 1.399-.6 3.957 2.839 5.076 7.396zm-57.885 24.265c-.84.84-3.398-.28-5.956-2.878-2.558-2.279-3.998-4.877-3.118-5.717.56-.88 3.398.56 5.956 2.879 2.559 2.278 3.958 4.837 3.118 5.716z" fill="#e07fa7" fill-rule="evenodd"/><path d="M394.361 111.013v-8.315s-25.145 16.03-44.853 22.906c-19.428 6.836-49.17 17.71-60.043 37.137-10.874 19.469-10.874 40.056-4.278 54.048 6.556 14.031 30.022 47.171 30.022 47.171h7.995s-3.438-2.838-5.157-4.557c-1.999-1.72-3.997-6.556-6.276-6.276 0 0 0-2-1.16-3.718-1.119-1.72-1.998-9.155-4.836-12.872-2.879-3.998-11.433-9.155-12.873-12.873-1.159-3.717-4.877-8.874-5.156-13.152-.56-4.277-.56-7.155-2.559-8.275 0 0 5.157-14.31 5.437-21.187 0-7.155-.6-13.711 2.558-16.59 3.158-2.838 10.594-7.435 9.155-9.714 0 0 5.716-.56 8.275-1.12 2.878-.599 12.872-1.718 16.59-5.716 3.997-4.037 9.714-8.874 13.432-10.873 3.717-1.719 11.992-4.317 10.873-7.156 0 0 26.584 1.72 42.854-18.868z" fill="#f4d2e0" fill-rule="evenodd"/><path d="M311.531 253.766s0-1.999-1.12-3.718c-1.158-1.719-1.998-9.154-4.876-12.872-2.838-3.997-11.433-9.154-12.832-12.872-1.16-3.718-4.877-8.875-5.157-13.152-.28-3.438-.56-5.996-1.44-7.435-.839 1.998-1.119 3.158-1.119 3.158 2 1.119 2 3.717 2.559 7.995.28 4.557 3.997 9.714 5.157 13.152 1.399 3.718 9.994 9.154 12.832 12.872 2.878 3.718 3.718 11.153 4.877 12.872 1.12 1.72 1.12 3.998 1.12 3.998 2.278-.56 4.277 4.557 6.275 6.276 0 0 .28.28.6.56h4.557s-3.438-2.839-5.157-4.558c-1.998-1.719-3.997-6.556-6.276-6.276zm37.697-127.523c-19.428 6.836-49.13 17.71-59.963 37.138-6.556 11.753-9.155 23.746-8.835 34.34.28-9.715 3.118-20.029 8.835-30.302 10.833-19.469 40.535-30.622 59.963-37.458 19.708-6.876 44.813-22.906 44.813-22.906v-3.718s-25.105 16.03-44.813 22.906z" fill="#f1dfe7" fill-rule="evenodd"/><path clip-path="url(#a)" d="M95.222 4.757h9.155s4.557 12.313 10.274 17.47c5.996 5.116 13.711 16.87 13.431 31.14 0 14.312-3.997 27.464-11.992 36.618-8.275 9.115-31.141 21.148-41.135 27.704-9.994 6.276-27.144 18.868-70.038 25.144v-9.714s9.754-2.278 15.43-1.719c6.037.6 24.026-2.558 25.185-.56 0 0-.88-3.437 2.559-3.997 3.438-.84 13.432-9.714 18.868-15.43 5.397-5.717 9.994-9.715 21.987-12.593 11.993-3.118 18.309-6.276 19.988-7.995 1.719-1.999 2.878-4.557 4.597-3.438 0 0-.6-1.719 1.12-5.157 1.718-3.398 3.997-9.114 3.158-14.83-.84-5.717-3.718-18.31-3.158-23.467.32-5.157 1.159-6.276 0-10.553-1.12-4.318-2.839-8.595-1.72-9.435 0 0-1.998 0-2.838-1.998-1.159-2.04-5.157-6.316-7.435-8.875-2.279-2.279-5.717-4.877-7.436-8.315m65.84 0h7.156s5.157 7.156 9.434 10.034c4.278 2.838 25.425 19.148 29.702 26.584 3.998 7.156 6.556 13.712 6.556 13.712s6.556 4.597 9.155 9.154c2.838 4.557 10.274 13.152 9.114 16.59 0 0 5.157-1.16 10.874 1.999 5.396 3.158 9.114 8.275 16.83 9.714 7.715 1.439 17.429 2.558 17.15 4.597 0 0 1.678-4.037 10.273-7.156 8.275-3.158 8.835-5.436 19.108-5.716 10.314-.6 15.43-.6 19.708-3.718 4.278-2.878 18.869-9.154 20.588-6.316 0 0 1.12-4.837 5.676-7.995 4.318-3.158 10.314-7.715 12.873-10.874 2.558-3.118 8.834-7.115 12.272-7.995 3.718-.84 16.83-6.876 16.83-6.876v6.037s-3.398 1.719-5.677 3.997c-2.598 2.279-11.992 12.553-21.147 16.59-9.434 3.718-21.707 9.994-27.423 12.553-5.397 2.598-30.542 13.751-39.976 16.87-9.114 3.158-27.703 7.995-50.81-.56-23.145-8.875-30.26-29.462-35.138-35.459-4.837-5.716-23.426-24.865-32.82-31.14-9.434-6.317-19.708-22.587-20.308-24.306" fill="none" stroke="#343434" stroke-width=".8" stroke-miterlimit="8"/><path d="M11.873 208.634c4.877-.6 9.434-3.718 13.711-3.159 3.998.56 7.436 1.44 9.155 0 0 0 .28 3.438 2.838 5.437 2.599 2.279 7.716 8.555 9.435 13.112 1.718 4.597 7.995 19.149 19.987 21.707 11.713 2.559 18.59 5.717 19.708 6.556 1.16.88 2.879 3.718 4.598 2.878 0 0 .28 2 2.558 4.558.84 1.159 2.279 2.878 3.718 4.557h17.11c-.56-.84-4.838-6.836-6.836-9.394-2.279-2.599-2.559-4.598-2.559-4.598-1.999.88-3.438-1.998-4.597-2.838-1.12-.84-7.995-3.718-19.708-6.276-11.993-2.878-18.269-17.15-20.268-21.987-1.719-4.557-6.556-10.873-9.154-12.872-2.559-1.999-2.839-5.677-2.839-5.677-1.718 1.68-5.156.56-9.434 0-3.997-.6-8.555 2.839-13.432 3.398-5.117.6-10.273-2.278-13.711-5.716-3.398-3.118-7.116-1.12-7.116-1.12v-2.878h-.6v13.152c2.319.84 4.877 1.44 7.436 1.16zm197.08 43.893c-3.717-6.556-9.994-11.393-15.43-13.712-5.717-2.558-8.275-8.834-11.154-6.836 0 0 .28-3.438-3.717-5.716-3.998-1.999-18.869-17.15-19.708-24.026-.6-7.155 2.838-14.87-1.44-23.425-4.557-8.275-.28-13.712 2-17.71 2.278-3.717 5.436-4.317 4.277-6.875 0 0 1.999 1.718 4.597.28 2.558-1.72 5.437-3.439 9.114-2.839 4.038.56 13.752-.28 16.59-4.317.56-.56 1.44-1.4 2-2-.56-2.837-1.44-5.396-2.28-7.994-2.878-7.156-14.27-6.556-17.429-6.276-3.438 0-8.595-.88-8.595-.88 1.16 2.039-3.398 2.599-6.276 6.596-3.158 3.998-12.552 4.557-16.59 4.278-3.997-.56-6.836 1.159-9.394 2.558-2.599 1.719-4.318 0-4.318 0 .88 2.598-2.278 2.878-4.557 6.876-2.278 3.997-6.596 9.434-1.999 17.71 4.278 8.314.84 16.31 1.72 23.145.56 7.156 15.43 22.306 19.428 24.305 3.997 2 3.717 5.717 3.717 5.717 3.119-1.999 5.717 4.277 11.154 6.596 5.716 2.278 11.713 7.116 15.43 13.712 3.718 6.556 9.994 10.553 16.87 13.431 5.717 2.559 11.433 7.156 13.712 8.835h14.83c-5.116-2.838-9.713-6.276-12.552-11.433z" fill="#f1b9d0" fill-rule="evenodd"/><path clip-path="url(#a)" d="M195.561 264.6h11.993s-7.435-6.277-14.59-9.395c-6.837-2.878-13.153-6.876-16.87-13.432-3.718-6.596-9.715-11.433-15.431-13.711-5.437-2.319-7.996-8.595-11.154-6.596 0 0 .32-3.718-3.717-5.717-3.998-1.999-18.869-17.15-19.429-24.265-.84-6.876 2.599-14.871-1.719-23.146-4.557-8.315-.28-13.712 2-17.75 2.318-3.997 5.436-4.277 4.596-6.835 0 0 1.72 1.719 4.278 0 2.558-1.44 5.437-3.158 9.434-2.559 3.998.28 13.432-.32 16.59-4.317 2.838-3.998 7.436-4.557 6.276-6.556 0 0 5.157.84 8.595.84 3.118-.28 14.551-.84 17.43 6.316 2.838 6.836 2.838 15.99 8.275 21.147 5.716 5.117 9.434 11.433 10.873 15.99 1.12 4.278 1.719 12.553 3.997 11.993 0 0-1.439 7.156.28 11.153 1.72 3.998 2.879 9.994 2.559 13.712-.28 3.997 1.999 13.432 6.876 18.269 4.877 4.877 11.153 16.87 13.711 15.75 0 0 4.278 14.272 7.995 18.549h5.717s-14.831-26.584-17.99-33.7c-3.157-6.875-13.99-37.177-16.31-46.012-2.278-8.874-13.99-43.134-19.707-48.85-5.997-5.717-14.871-15.75-38.577-8.875-23.466 7.156-47.451 15.71-51.769 42.854-3.717 22.587 12.873 30.022 20.868 36.858 8.035 7.156 27.183 26.304 32.9 31.74 5.437 5.437 32.02 26.545 32.02 26.545" fill="none" stroke="#343434" stroke-width=".8" stroke-miterlimit="8"/><path d="M330.4 254.246c-2.839-3.718-11.433-9.155-12.832-12.552-1.16-3.718-4.878-8.875-5.157-13.153-.56-4.597-.56-7.155-2.559-8.314 0 0 5.117-14.272 5.397-21.427 0-6.876-.56-13.712 2.598-16.59 3.118-2.839 10.554-7.436 9.115-9.715 0 0 5.716-.56 8.275-1.119 2.878-.6 12.872-1.439 16.59-5.437 3.997-3.997 9.674-8.874 13.392-10.873 3.717-1.999 11.992-4.277 10.873-7.156 0 0 7.995.56 17.95-2.558v-40.336 6.317c-16.27 20.587-42.815 18.868-42.815 18.868 1.16 2.838-7.116 5.117-10.833 7.156-3.438 1.999-9.435 6.836-13.152 10.833-3.998 3.998-13.992 4.877-16.55 5.437-2.839.56-8.555 1.16-8.555 1.16 1.719 2.278-5.996 6.835-9.155 9.713-2.838 2.839-2.278 9.714-2.558 16.59-.28 7.116-5.437 21.427-5.437 21.427 2.319 1.16 2.319 3.718 2.599 8.275.28 4.318 3.997 9.435 5.396 13.152 1.16 3.438 9.715 8.875 12.593 12.593 2.838 3.997 3.997 11.433 5.117 13.152 1.159 1.719 1.159 3.717 1.159 3.717 1.999-.28 3.998 4.558 5.996 6.277 2 1.719 5.117 4.277 5.117 4.277h11.154c-.56-2.838-1.72-7.116-3.718-9.714z" fill="#f1b9d0" fill-rule="evenodd"/><path clip-path="url(#a)" d="M394.361 111.013v-8.315s-25.145 16.03-44.853 22.906c-19.428 6.836-49.17 17.71-60.043 37.137-10.874 19.469-10.874 40.056-4.278 54.048 6.556 14.031 30.022 47.171 30.022 47.171h7.995s-3.438-2.838-5.157-4.557c-1.999-1.72-3.997-6.556-6.276-6.276 0 0 0-2-1.16-3.718-1.119-1.72-1.998-9.155-4.836-12.872-2.879-3.998-11.433-9.155-12.873-12.873-1.159-3.717-4.877-8.874-5.156-13.152-.56-4.277-.56-7.155-2.559-8.275 0 0 5.157-14.31 5.437-21.187 0-7.155-.6-13.711 2.558-16.59 3.158-2.838 10.594-7.435 9.155-9.714 0 0 5.716-.56 8.275-1.12 2.878-.599 12.872-1.718 16.59-5.716 3.997-4.037 9.714-8.874 13.432-10.873 3.717-1.719 11.992-4.317 10.873-7.156 0 0 26.584 1.72 42.854-18.868" fill="none" stroke="#343434" stroke-width=".8" stroke-miterlimit="8"/><path d="M385.167 116.49c.56 1.159-3.438 3.997-8.555 6.316-5.437 2.278-9.994 3.398-10.554 2.278-.32-1.16 3.398-3.997 8.555-6.316 5.437-2.279 9.994-3.438 10.554-2.279zm-51.489 20.267c.56 1.76-4.557 5.757-11.393 9.514-7.156 3.718-13.432 5.437-14.272 4.038-.88-1.759 4.278-5.757 11.393-9.514 7.156-3.718 13.432-5.477 14.272-4.038zm-30.182 101.259c1.719 2.878 2.279 5.476 1.44 6.036-.84.56-3.159-1.16-4.838-3.758-1.719-2.878-2.318-5.476-1.439-6.036.84-.6 3.118 1.16 4.837 3.758z" fill="#e07fa7" fill-rule="evenodd"/><path d="M47.491 201.118c.6 2.039-.28 5.157 0 7.476.6 2.278 1.44 4.557 1.999 7.115.28 2.879-.84 5.717-1.999 8.595-1.12 2.878-1.999 5.996-3.718 8.595-1.998 3.718-5.716 5.996-8.554 9.154-3.158 3.438-6.556 5.117-10.554 7.156-4.877 2.279-9.434 3.118-14.591 3.998-1.72.28-3.438.839-5.157 1.399m99.939-4.078c-1.119 2.878-5.396 5.437-8.275 6.596-4.837 2.279-10.273 1.999-15.67 1.72-5.996-.28-11.993-.56-17.71-.56-4.876 0-9.154.56-13.711.56-7.435 0-13.992-1.44-20.827-2.56-3.438-.32-8.875-2.878-4.877-6.315v-.32M131.56 144.193c2.599 1.719 2.599 5.156 3.158 8.035.56 3.678 3.118 6.556 5.997 8.834 3.398 2.879 6.276 5.997 8.555 9.994 2.558 4.278 3.397 9.435 5.396 14.312 2.279 5.676 8.555 13.991 7.716 20.267-.84 5.997-7.716 7.156-10.834 11.713-.56.84-1.16 2.279-1.719 3.118m18.509-89.626c7.995 3.998 11.433 13.153 12.872 21.388 1.12 6.276 3.718 10.553 6.836 15.71 2.279 3.398 3.438 7.955 5.717 11.113 3.437 3.958 7.995 4.278 12.552 5.397 3.158.56 6.596 2.838 9.714 2.279.28 0-.28-.28-.28-.28" fill="none" stroke="#343434" stroke-width=".8" stroke-miterlimit="8"/><path d="M200.039 182.81c.28 3.997-5.117 3.717-7.716 4.876a39.038 39.038 0 0 0-12.832 8.555c-2.838 3.158-4.837 5.717-9.154 7.156-2.839.84-5.117 1.399-7.995 1.399m46.372-19.668c1.119 1.999.56 3.718 0 5.996-1.44 4.318-2.879 8.315-4.038 12.593-2.279 8.554-7.156 15.39-11.753 23.106-2.838 4.597-6.316 9.154-8.595 14.27-1.159 2.6-2.558 4.318-4.317 5.997" fill="none" stroke="#343434" stroke-width=".8" stroke-miterlimit="8"/><path d="M240.294 245.731c-5.117 2.559-9.954 0-15.35-1.44-6.277-1.718-11.393-5.436-17.67-7.435-3.677-1.119-16.23-.839-16.23-7.435m159.903-99.54c2 3.438 3.158 6.037 3.438 10.034.56 5.717 1.16 10.314 3.158 15.47 1.4 3.998 3.398 7.716 5.717 11.434 1.399 2.279 3.678 5.157 3.398 7.995m-64.401-19.988c.6 1.44 4.597 1.999 6.036 3.158 1.999 1.4 3.718 3.398 4.837 5.677 2.878 5.157 6.876 7.715 11.753 10.833 3.998 2.839 6.556 7.116 10.554 9.954 2.598 1.999 5.157 3.438 7.995 4.837m-31.342 63.482c8.556-.28 17.99-.84 24.826-7.396 3.398-3.118 5.996-5.676 9.674-8.235 2.279-1.439 4.277-3.118 4.837-5.716m39.256 32.54c.56-8.835-4.037-18.829-8.635-25.984-2.598-3.998-7.475-10.274-11.513-12.313" fill="none" stroke="#343434" stroke-width=".8" stroke-miterlimit="8"/><path clip-path="url(#a)" d="M394.041 180.21c-2.838-.28-5.676.28-8.555-.28-2.838-.599-5.716-1.998-8.554-2.597-3.998-.56-8.835 1.439-10.554-3.159-.84 4.598-10.274 6.037-13.432 7.476-2.838 1.12-3.678 1.999-5.117 4.277-1.16 1.72-2.278 2.879-4.277 3.158 1.12 3.998 1.719 6.277.84 10.594-.84 3.718-1.44 7.715.28 11.713 1.718 3.718 3.717 7.156 4.876 10.873.84 3.158 1.4 6.876 2.279 9.714.84-3.398 7.715-4.277 10.833-4.837 4.557-.88 5.997.28 7.995-1.439 4.278-3.158 21.707-7.435 23.106-5.716" fill="none" stroke="#343434" stroke-width=".8" stroke-miterlimit="8"/><path d="M45.293 130.201c.28.6.839 1.72 1.119 1.999m67.479-44.453c.32.6 1.16 1.719 1.999 1.999m-3.198-66.2c.28-.52.56-.24 1.08-.24.279-.28.559-.56 1.078-.56m117.29 57.805c-.28 1.08-1.44 1.64-2.32 2.159m47.172 14.311c0 1.2 0 2.359.16 3.518m68.918-26.624c.32.6.92 1.16 1.2 1.999m3.997 53.967c-.88-1.359-2.119-2.478-3.038-4.157m-46.132 29.102a12.842 12.842 0 0 0-3.518-3.118m-13.432 50.609c-1.08 0-2.198.56-3.038.8m29.662 49.65c-.84.32-1.679 1.24-2.798 1.519m-68.679-9.195c.6-.56 1.76-.839 2.319-1.119m-25.585-57.485c.56-1.08 2.16-.8 2.959-1.36m-52.449-54.926c-1.639 0-2.478-3.078-1.918-4.477m-34.06 18.309c-.84-1.2-1.959-2.719-3.678-3.038m21.668 79.471c-.28.92-.6 1.24-1.2 1.84m-43.094 27.982c.88-.56 1.76-1.759 2.319-2.638M48.73 200.478c0-.52.28-1.079.56-1.359" fill="none" stroke="#343434" stroke-width=".8" stroke-miterlimit="8"/><path d="M111.852 31.421c1.44 7.955-1.16 15.35.84 23.626.88 3.717 2.038 6.835 2.318 10.513.56 5.157 0 7.716-2.318 11.953-.28-3.398 1.759-7.675 1.439-11.353-.56-3.998-1.999-8.555-2.878-12.273-.88-3.957-.88-7.675 0-11.633.879-4.277 3.198-7.715 1.439-11.992z" fill="#f2bbd1" fill-rule="evenodd"/><path d="M94.383 7.555c2.598 1.44 4.037 5.197 5.756 7.196 1.72 2.279 5.997 3.718 7.156 6.316 1.4 3.438-8.035 5.997-10.873 7.995 1.719-2.838 4.557-3.438 6.556-5.436 1.998-2 1.439-2.279.6-4.278-2.04-3.478-8.316-6.596-6.597-10.913zM13.312 129.322c2.598-1.68 7.715-.56 10.554-.84 3.677-.56 7.115-1.719 10.793-1.999 5.117-.28 7.116-.84 7.675-6.556.56-5.716-.28-11.153-.28-16.59-.28 4.318-2.558 9.155-3.118 13.432-.56 3.158 0 6.276-3.438 7.716-2.558.84-6.795.28-9.634.84-1.719.319-3.997 1.158-5.436 1.438-1.96 0-3.678-.84-5.117-.28zm40.575-10.754c6.277-1.999 11.154-9.754 16.55-13.512 5.157-3.438 9.714-6.596 15.151-8.874 3.718-1.72 7.715-2.879 11.393-4.318 4.597-1.439 5.437-3.757 8.275-6.915-.84-1.44-11.393 5.476-13.672 6.356-2.278.84-5.156.84-7.435 1.719-3.438.84-6.556 3.438-9.714 5.436-4.837 2.599-9.394 6.317-13.112 10.634-2.878 3.158-5.157 7.475-8.595 9.754zM197.52 26.384c4.038 4.597 8.875 8.035 12.593 13.752 2.318 3.997 3.997 9.154 7.755 12.312 3.118 3.158 5.117 5.437 7.435 9.474 1.68 3.438 3.119 7.156 5.717 9.994 1.719-.56 1.12-5.996 1.719-7.995 1.12-3.997 2.838-7.155 3.398-11.193-3.118 3.158-2.838 9.474-6.276 12.313-3.998-2.559-4.877-9.715-7.995-13.432-2.599-2.879-5.717-3.158-7.436-6.596-4.038-8.595-8.875-14.631-16.59-19.788zm39.416 50.969c6.836-1.999 11.393 5.996 16.55 8.595 3.118 1.719 6.556 2.558 9.994 3.158 3.118.56 7.995 0 9.115 3.118-1.4-4.277-7.676-5.117-11.393-5.716-4.598-.56-7.716-1.44-11.154-4.278-2.278-2.278-6.276-4.317-8.275-6.876-3.717-3.997-.28-13.472-.56-18.628.28 6.875-4.596 14.63-4.277 20.627z" fill="#f2c9d8" fill-rule="evenodd"/><path d="M249.01 43.574c2.278-5.717 3.437-6.037 9.393-4.877 3.678.879 7.676 1.159 11.354.28 5.116-.84 6.516.28 5.676 5.756-.28 3.438-.28 6.876-.28 10.314 0 3.118 1.12 9.434-.56 11.992-3.397-1.399-2.838-9.154-3.397-12.312-.6-3.998 0-9.434-3.998-11.433-5.397-2.878-12.472.84-17.31-1.72z" fill="#f2bbd1" fill-rule="evenodd"/><path d="M279.47 90.825c3.998-3.438 7.156-6.596 11.993-8.315 3.718-1.12 7.436-1.12 11.154-1.4 4.277-.319 8.554.28 12.832 0 3.997-.319 6.876-3.437 9.994-4.876-2.839 1.719-9.115 1.719-12.553 1.999-3.717.56-7.995.56-11.992.28-5.437-.28-15.151 1.998-17.99 7.155-2.598-3.438.56-9.994 0-14.311.56 3.718-1.718 8.315-2.318 12.032-.56 2.839-.84 5.437-1.999 8.275 0 .56.32-.28.32-.28z" fill="#f2c9d8" fill-rule="evenodd"/><path d="M312.09 58.764c1.72-1.119 3.719-1.399 5.438-1.998 1.719-.84 2.878-2 4.277-3.158 1.719-1.12 6.276-4.878 7.995-4.878 1.16 3.159.6 6.916 2.279 9.475 1.999 3.158 5.996 4.597 5.996 8.874-6.276.28-5.996-8.874-10.553-10.593-4.278-1.72-10.274 4.597-14.832 3.158zm29.663-.639c-3.958-2.279-3.398-8.315-4.517-11.713-1.16-3.438-7.156-6.316-.88-8.035 2.559-.56 5.117.32 7.675-.28 3.438-.56 6.557-2.838 9.395-4.277 3.438-1.72 6.276-3.438 9.394-5.437 2.599-1.44 5.996-5.157 9.115-4.557.28 3.997-7.956 7.715-10.794 9.434-4.277 2.838-9.394 6.276-14.511 7.715-4.277 1.4-5.157.56-5.996 5.437-.28 3.398-2.28 10.274 1.119 13.112z" fill="#f1b9d0" fill-rule="evenodd"/><path d="M354.425 61.123c3.118-1.719 5.117-4.877 7.396-7.436 2.238-2.598 5.676-4.597 8.515-6.316 3.677-2.278 12.512-4.557 14.19-8.315-3.677.6-7.954 2.319-11.632 3.438-3.718 1.16-7.116 2.879-9.954 5.437-4.557 4.317-7.116 10.314-11.673 14.311zM49.77 207.674c2.318 3.158 5.157 5.157 7.475 8.875 2.279 4.317 3.718 8.874 5.997 13.152 1.719 3.758 4.037 6.876 7.475 9.154 3.718 2.878 8.275 2.878 11.993 5.437-7.436-.28-19.188-2.838-21.747-10.554-1.44-4.037-1.44-8.874-2.878-12.592-.84-2.279-1.999-3.158-3.158-4.877-1.72-1.999-2.839-4.557-4.278-6.556z" fill="#f2c9d8" fill-rule="evenodd"/><path d="M44.093 236.776c-4.277 6.037-10.273 8.355-15.15 13.232-3.159 3.438.56 2.879 4.557 3.758 5.716.84 11.753.56 17.749.56 3.718 0 10.554 2.278 13.991 1.16 4.838-1.72-5.156-4.878-7.435-5.198-3.718-.56-12.552.32-15.15-2.558-2.56-3.158.599-6.916 1.998-9.514zm-36.578-3.637c-.879 3.158-2.598 16.87 1.72 17.709 2.278.56 6.835-2.558 8.874-3.438 3.118-1.12 6.276-2.558 9.115-3.998 3.437-1.998 6.316-4.557 8.874-7.675 2.599-3.158 6.316-5.996 7.436-9.994.28-1.439.56-9.714-1.44-9.994-1.399-.32-5.716 10.834-6.835 12.553-4.877 5.996-10.594 7.995-17.47 9.994-2.838.84-8.275 0-10.274-3.438zm-.279 28.662c-2.319-5.996 7.395-8.035 11.393-9.194 0 3.198 5.996 4.317 8.275 4.317-7.116 0-14.272-2.558-18.27 4.318z" fill="#f2bbd1" fill-rule="evenodd"/><path d="M126.084 159.064c-3.718 2.278 1.719 10.873 2.558 14.31.84 4.278-.28 8.276-.56 12.273-.88 8.315 6.516 16.31 12.753 21.148-3.958-4.278-8.795-10.274-9.635-15.99-.56-4.598 4.558-7.716 4.238-12.313 0-7.436-12.752-12.553-8.515-20.308zm12.272-13.672c3.758-.84 5.197-2.279 8.915-1.999 2.878.28 6.316.88 9.194 0 5.437-1.719 7.995-9.514 14.591-9.514-3.118.6-5.716 3.198-6.876 6.356-1.439 4.038 0 7.196-5.156 8.355-6.876 1.12-12.033-4.917-18.35-2.878zM112.412 34.739c-.84 2.878-.84 5.756-1.999 8.635-1.12 2.278-3.718 4.877-3.398 7.715.56 5.757 7.675 9.194 8.235 15.47-.28-3.997-2.558-7.435-3.118-11.432-.84-5.477 1.16-10.914.56-16.07zm-50.33 74.994c4.318-4.557 5.197-11.113 10.914-13.671 4.037-1.999 10.353-2.319 14.91-2.319-7.155 3.718-16.03 6.876-21.226 13.432zm94.583 112.732c4.877 3.478 10.594 5.477 14.591 9.474 2.878 3.159 5.437 6.317 8.275 9.475-1.12-2-2.278-3.998-3.118-5.997-.88-2.318-.88-5.756-2.878-7.755-3.718-4.038-10.274-.88-14.831-4.317z" fill="#f2c9d8" fill-rule="evenodd"/><path d="M244.292 261.801c-1.679-2.558-2.838-5.157-3.678-8.035-.6-2.318-.28-4.317-2.278-5.756-1.72-1.16-4.877-.6-7.156-.6-3.118-.28-7.116-.56-9.994-1.44 3.718 3.199 8.875 2.88 13.152 4.318 4.277 1.44 5.677 5.197 8.275 8.355zm-94.342-74.515c3.917 3.159 8.394 12.913 7.555 18.07-.28 2.878-5.317 8.315-8.435 8.315 1.998-2.839 5.916-6.596 6.476-10.034.28-2.559-1.4-4.877-2.239-7.436-.84-2.598-.84-6.036-1.679-8.315z" fill="#f2bbd1" fill-rule="evenodd"/><path d="M306.974 155.306c6.876-.88 14.591-1.44 20.867-5.157 3.398-1.719 6.276-5.437 8.835-8.275 3.118-3.438 6.836-5.437 11.393-6.876-3.398 3.718-9.114 4.318-11.113 9.434-1.44 3.998.56 6.556-4.837 8.555-3.718 1.44-8.275 1.16-12.273 1.72-3.158.28-7.715 2.278-10.274 1.718zm52.448-23.866c3.438 0 6.037-.56 9.474-1.159 3.718-.28 5.997 1.44 9.155 2.598 9.154 2.839 9.754-11.752 14.311-16.35-4.277 4.598-11.153 8.915-16.59 11.194-2.278.84-4.597 1.719-6.876 2.558-1.719.32-5.436.32-6.316.88zm-58.444 30.262c-1.12 2.039-3.159 2.598-4.278 4.317-1.719 1.72-2.318 4.558-2.318 6.836-.56 3.438 0 6.596-.56 10.034-1.16 3.718-2.039 7.436-1.719 11.113 1.999-5.716 5.716-13.112 5.716-19.428-.28-3.118-1.439-9.714 2.879-11.153z" fill="#f2c9d8" fill-rule="evenodd"/><path d="M179.851 199.639c.88-3.998 5.717-6.596 8.875-7.995 3.438-1.72 7.715-2.878 10.553-5.157 1.72-1.719 1.44-2.319 3.998-1.719 1.999.56 3.997 1.12 4.277 3.158.28 1.68-1.12 4.278-1.719 5.996-.84 2.28-1.12 4.558-1.999 6.876-1.119 3.438-4.277 13.992-8.834 12.873-3.158-.56-6.836-3.718-8.835-6.037-1.999-1.999-5.437-5.117-6.316-7.715zm-3.478-3.159c3.158-7.395 12.073-10.833 18.669-13.67-.28-1.44-1.999-2.28-2.838-3.119-1.76-1.719-2.32-3.438-3.478-5.437-1.72-3.717-3.438-7.435-8.036-4.837-4.877 2.559-9.194 7.956-9.754 13.672-.6 3.998-.28 10.833 3.998 12.832zm13.632-29.181c2.318 3.438 3.478 7.715 6.356 10.593 3.438 3.398 7.196 2.838 11.473 3.398-2.558-3.118-7.156-3.118-10.034-6.276-2.318-2.279-5.477-4.557-7.475-7.116zm19.788 25.504c0 5.437-2.838 10.874-4.517 16.03-1.44 4.598-3.398 8.595-5.677 12.593-.84 1.719-2.558 3.718-.84 4.877 2.559 1.679 5.957 0 7.636-1.72 3.958-4.876 4.797-14.59 4.797-20.906 0-3.438-1.679-7.436-1.4-10.874z" fill="#ec97b7" fill-rule="evenodd"/><path d="M182.45 195.282c-1.72 2.318-6.237 6.036-6.796 8.594-.6 4.598 6.236 8.915 9.074 11.194 2.519 1.998 6.236 7.715 9.634 5.157 2.838-2 4.797-11.194 5.077-14.312.56-4.037-3.118-6.316-4.797-9.474zM42.454 25.824c-1.999-2.598-6.556 7.156-7.155 8.875-1.4 3.478-3.678 4.877-6.556 6.916 1.159 2.278 3.437 3.158 4.877 5.436 1.679 2.28 3.118 4.878 4.557 7.156 2.558 4.038 5.397 8.035 6.556 12.632.56 2.879 2.279 5.717 4.237 1.72 2-3.718 2.279-8.036 3.998-11.753 1.16-2.319 2.838-4.318 3.997-6.596 1.12-3.438-.56-5.157-2.838-7.156-2.558-2.878-5.157-6.036-7.435-8.915-1.4-2.278-1.68-6.316-3.398-7.755zm17.67 16.91c2.278-6.276.6-13.991-1.68-19.988-1.159-2.878-2.278-5.436-3.717-8.275-.56-1.16-1.16-3.718-2.559-4.037-4.277 5.716-6.875 10.593-4.557 17.749 1.4 3.718 3.398 6.556 6.556 9.434 1.4 1.44 4.557 2.838 5.677 4.557zM49.89 5.557c1.399 2.838-2.559 5.996-3.998 7.995-1.439 2.039-2.878 3.758-3.718 6.036-.56 1.44-.28 1.72-1.719 2.559-1.998.879-3.717.879-5.116 2.598-2.879 2.279-3.998 4.877-5.157 8.315-.84 2.878-1.72 5.996-4.837 3.718-2.559-1.72-4.837-3.718-7.436-5.157-1.999-1.44-3.997-1.999-6.276-2.279-1.999-.28-3.678-.88-4.277-2.878-.56-2.279-.56-5.437-.84-7.755 0-2.279-.88-5.997 1.44-6.556 2.558-.6 3.117.56 5.116-1.72.56-1.159.84-2.318 1.719-3.157 1.719-1.44 4.277-1.44 6.276-1.44 5.717-.6 11.993 0 17.39.28 3.997 0 7.995-.56 11.433-.56zM7.036 33.3v-.88c3.717 2.04 8.275 2.879 11.713 5.477 3.717 2.558 7.435 6.276 9.714 10.034 4.277 5.996 8.275 13.752 10.274 20.907 1.679 5.717-4.598 4.597-8.595 4.597-5.117-.28-10.234-1.159-15.39-2.598-3.719-.84-7.117-1.999-8.276-5.996-.56-2.04 0-4.877-.28-7.196-.56-2.558-.88-5.157-.88-7.715 0-5.757.6-11.473.6-17.19zm365.858 146.311c-2.558.28-4.837-1.439-7.396-.56-1.998.56-4.877 2.28-6.835 3.159-2.879 1.119-4.318 1.998-6.596 3.717-1.4 1.12-4.278 3.398-5.117 5.117-.88 2.599 0 6.876 0 9.434-.28 2.879 0 6.037.28 8.875.56 5.717 3.997 11.433 5.436 16.87 3.398.56 4.558-1.44 7.396-2.279 2.558-.88 5.436-.28 7.715-1.159 3.118-1.4 5.717-3.718 9.115-5.117 2.278-.88 4.877-1.44 7.715-1.999 2.279-.6 5.157 0 5.996-2.038 1.44-2.839.28-8.275.28-11.434.28-3.997 2.838-15.71-.84-18.268-1.718-1.44-7.155-2.32-9.434-2.879-2.558-.56-5.396-.28-7.995-.84zm-29.622 7.196c-1.999-5.157 6.236-14.312 9.394-18.03 2.519-3.717 5.357-7.475 9.075-2.598 2.558 3.158 4.797 8.315-.56 10.034-5.117 1.72-9.394 4.038-13.632 7.476-.88.84-1.719 1.998-2.838 1.998zm20.788-24.305c.879 2.838 2.878 5.156 3.717 8.314.6 2.559 1.44 2.839 3.998 3.159 2.318.56 4.317.28 6.596.84 2.558.559 4.837 1.718 7.435 2.278 1.72.32 5.437 1.719 6.556.32.56-.88 0-2.599 0-3.438 0-2.599.56-4.598.28-7.196-.28-2.838-1.12-5.157-1.719-7.995-.28-1.16.32-2.319-.84-3.158-.839-.32-3.997 0-4.876 0-4.838-.32-9.395.56-13.712 2.278-2.279.88-5.117 1.16-6.276 3.438zm-22.267 28.622c1.999.88 0 11.713 0 13.992 0 2.878.88 4.877 1.719 7.435 1.16 2.838 1.719 6.276 2.878 9.155 1.999 5.996 2.559 9.994-2.319 14.271-3.997 3.678-4.277-1.44-4.877-4.877-.84-5.717-1.439-11.393-1.439-17.39 0-4.877 0-9.434 1.16-13.991.6-2.878 1.719-5.157 2.598-7.715zm3.157 50.53c2 1.719 2.6 4.597 4.278 6.276 2 2.318 5.157 3.717 7.995 4.877 4.278 1.719 9.994 2.838 14.552 2.558 2.838-.28 13.671-1.12 13.951-5.117 0-1.719-2.558-5.996-3.678-7.715-1.998-2.878-3.717-5.717-5.436-8.595-1.12-1.999-2.279-4.277-4.278-5.716-2.558-1.44-5.117 0-7.675.28-3.718.6-7.156.32-9.714 2.598-1.72 1.719-2.838 3.718-4.557 5.437-1.44 1.679-3.718 2.838-4.558 4.837zm44.214 5.156c6.236-.56 3.398-13.671 3.398-17.669 0-4.557.88-9.714-5.676-7.715-1.72.6-3.438 1.439-5.397 1.999-1.72.6-4.278.28-5.717 1.719-1.719 1.998 1.16 3.437 2.559 4.837 2.558 2.598 4.277 5.436 6.276 8.554.84 1.72 1.719 3.438 2.838 4.877.28.56.56 1.12 1.16 1.72.28.839.56 1.958.839 1.399zM238.136 6.196c.88 2.839 3.717 4.837 5.716 7.116 1.72 1.999 3.438 4.557 5.437 6.796 4.277 5.117 11.953 1.16 18.229.88 5.716-.28 13.152 2.838 18.549.839 4.877-1.999 8.275-6.836 11.992-10.514 1.72-1.719 3.718-3.398 5.397-5.117-4.837-1.439-11.953-.56-17.11-.28-5.956.28-11.672-.84-17.389-.84-5.397.28-11.113.56-16.55.84-2.279 0-4.557-.84-6.836-.84-2.278.28-3.997 1.4-5.996 0zm58.844 15.191c1.44-.84 3.118-3.118 4.837-2.798 1.68 0 1.959 1.959 3.638 3.358-2.519 0-5.077-1.96-7.036-.56zm13.632-14.951c-2.879 2.319-6.037 5.996-3.998 9.155 1.12 1.719 2.838 1.719 4.278 3.158 1.159.84 2.278 3.118 3.997 3.398 3.438.28 10.874-5.717 13.752-7.396 3.438-2.319 7.155-5.716 9.434-8.875-4.557.88-9.994.28-14.591.28-3.718 0-9.154-1.719-12.033-.56zm-80.832-.48c3.439 3.398 7.716 5.957 9.395 10.474-1.679-1.959-5.397-1.679-7.395-2.838-2.28-.84-4.558-1.68-6.876-2.559-3.118-1.399-7.396-3.118-10.274-5.077 2.598-2.878 11.993 0 15.43 0z" fill="#ec97b7" fill-rule="evenodd"/><path d="M247.81 22.426c.6 3.478 1.719 7.476 4.877 8.915 2.838 1.44 7.116 1.44 10.274 1.44 3.158.279 6.556.279 9.714-.28 3.118-.28 8.275-2.6 9.114-6.037-6.556 1.719-12.552 3.438-19.388 2.878-5.157-.56-8.875-5.476-13.432-5.476zm-7.196-2.878c7.995 8.635 3.998 19.228.32 28.383-.32-5.157 2.279-10.594 2.279-15.75 0-3.998-1.16-7.156-2.279-10.914zm74.555 11.673c3.118 1.44 13.392 7.755 9.994 12.592-1.719 2.319-7.156 4.598-9.714 6.596-2.878 2-7.156 5.997-10.874 4.598 0-2.319 3.998-4.318 5.717-5.757 2.878-1.999 5.157-4.277 7.156-7.116 1.119-1.718 2.838-3.757 2.278-5.756-.56-1.4-3.997-4.277-5.157-4.837zm5.077-6.116c2.039 1.999 4.597 2.558 6.596 4.277 1.719 1.16 2.558 2.878 4.557 3.758 3.718 1.12 10.034-1.44 13.432-3.158 4.038-1.999 8.595-4.597 12.592-6.596 2-1.16 3.718-2.039 5.437-3.158 1.719-.88 2.878-2.039 4.557-3.158-4.277-.32-8.275 3.438-12.272 4.597-5.157 1.719-9.714 3.997-15.151 4.877-5.717.84-12.872 2.558-18.03-.6zM361.46 132.28c-1.718-.84-4.596.28-5.156 2.278-.88 2.28.84 4.558 1.44 6.796.559 2.559.559 5.437 1.438 7.995.56 3.119 3.118 4.798 4.278 7.636-6.316-9.634-2.559-20.708 6.276-26.144h-8.555z" fill="#f2bbd1" fill-rule="evenodd"/><path d="M296.9 165.66c2.838-.84 3.718-2.879 5.437-5.437 1.439-2.039 2.278-1.72 3.997.28 2.319 2.598 3.478 6.316 6.037 9.194 2.318 2.319 7.755 4.877 8.594 8.315-1.998-1.719-4.277-2.558-6.276-4.277-2.318-2.04-4.597-4.038-7.195-6.356-2-1.72-3.438-2-5.437-.28-1.999 1.719-4.317 5.197-4.597 7.755-.56 0-.56-.28-.88-.56zm-.8 58.644c.88.88 1.44 2.279 2.28 3.438.879 1.4 2.278 2.279 3.437 3.398a499.95 499.95 0 0 0 4.517 4.557c3.998 3.718 4.558 7.955 6.237 13.072-1.12-2.238-.28-5.397-.84-7.955-.28-2.279-1.12-4.557-2.558-6.236-2.839-4.557-8.795-5.437-11.913-10.274zm53.648-88.067c2.279-2.038 1.999 3.998 1.999 4.877.28 2 .56 4.038.84 6.037.559 2.278 1.958 4.597 1.678 6.876-1.119-2-2.518-4.278-3.078-6.876-.56-1.999-.28-4.597-.84-6.596-.599-2.319-2.838-3.158-5.396-3.478.88-.84 1.999-1.44 3.118-1.44z" fill="#f2c9d8" fill-rule="evenodd"/><path clip-path="url(#a)" d="M4.917 192.563v4.558s3.718-2 7.156 1.159c3.438 3.398 8.594 6.276 13.711 5.716 4.877-.6 9.435-4.037 13.432-3.438 4.318.56 7.756 1.72 9.435 0 0 0 .32 3.718 2.878 5.717 2.558 1.999 7.435 8.275 9.154 12.872 1.999 4.837 8.275 19.149 20.268 21.987 11.753 2.598 18.589 5.437 19.748 6.316 1.12.84 2.558 3.718 4.557 2.838 0 0 .28 2 2.599 4.558 2.278 2.598 7.115 9.434 7.115 9.434h11.713s-19.708-17.43-19.988-17.43c-.28-.28-18.029-15.71-23.425-19.708-5.717-4.277-37.178-34.299-52.609-38.296-15.71-4.038-25.744 3.717-25.744 3.717" fill="none" stroke="#343434" stroke-width=".8" stroke-miterlimit="8"/><path d="M112.412 37.537c.28 4.877-1.16 9.195-.88 14.072.32 2.558 1.44 4.277 2.599 6.556.88 2.318.88 4.597 1.439 6.876-.84-2.279-1.12-4.558-2.279-6.556-1.159-2.319-2.318-4.318-2.598-6.596-.32-5.157 1.719-9.195 1.719-14.032zM64.72 110.213c3.439-3.118 6.597-6.276 10.874-8.555 3.438-2.278 8.835-6.556 13.112-6.835-2.558-.6-5.396 1.998-7.115 2.838-2.28.88-4.278 1.999-6.277 2.878-3.717 1.999-8.594 5.397-9.994 9.674zm32.86-99.14c1.16 3.758 4.558 5.477 7.077 7.196 3.398 2.279 2.558 4.277-1.12 5.996.84-1.119 2.559-2.558 2.279-3.997-3.398-1.44-7.076-4.318-7.356-8.035zM42.094 115.33c0 3.998-1.119 7.436-1.998 10.874-4.877-.28-10.314 0-15.191 1.119.88-1.68 5.157-1.4 7.196-1.4 1.719-.28 5.436 0 6.875-1.159.84-2.558 1.72-5.996 3.118-8.275zm-31.341 85.788c2.879 0 7.436 3.198 11.114 3.758 2.838.56 7.675.56 10.234-1.16-4.238 4.598-15.91 3.159-19.349-1.718zm51.969 27.184c2.598 2.878 3.718 6.596 6.876 8.874 2.878 2.319 6.876 2.599 9.994 4.597-8.835.84-11.993-5.716-15.99-11.433zm63.322-62.602c2.598 3.437 3.478 8.834 3.478 12.832 0 3.997-1.72 8.555.6 11.953-2.32-3.678.559-8.515.839-12.233.28-1.999 0-3.998-.84-5.996-.88-1.68-2.918-3.398-2.318-5.677zm22.306-21.987c3.478 1.959 10.074-1.68 13.512-3.678-2.279 3.398-9.195 6.476-13.192 3.958zm44.293-.72c3.158 3.198 2.599 8.075 4.278 12.113 1.719 3.438 4.557 6.316 7.395 8.595-8.515-3.998-8.515-12.073-11.073-19.548z" fill="#fff" fill-rule="evenodd"/><path d="M217.188 209.273c1.72 2.319.6 5.477.88 8.075.28 2.599 1.12 5.157 2.278 7.476 2.559 4.877 7.436 9.194 10.834 13.791-5.677-3.158-12.273-5.716-14.551-12.352-.84-2.878-1.44-5.757-1.12-8.635.28-2.598 1.4-4.877 1.12-7.475z" fill="#f1b9d0" fill-rule="evenodd"/><path d="M218.148 211.672c0 9.114 4.277 15.95 9.674 22.786-5.677-4.837-11.993-13.072-9.674-21.347zm-62.282 10.633c3.997 2.279 9.114 4.278 13.112 7.116 3.118 2.838 5.396 6.836 7.675 10.234-2.559-4.518-3.958-8.235-8.235-11.353-2.838-2-8.275-5.397-11.393-5.397zm35.978 29.982c6.316 2.599 10.353 6.596 15.19 10.314-3.717-4.837-7.435-9.434-14.031-10.314zm-63.482-101.219c.88-.879 1.999-1.719 2.559-2.878.88-1.399 1.998-1.999 1.998 0 0 .88-.28 1.72-.28 2.599 0 1.119.28 1.998.56 3.118.6 1.439 1.72 3.158 2.839 4.277-1.12-.28-2.839-2.558-3.398-3.678-.28-1.439-.56-2.878-.56-4.317 0-.84.56-3.398-.84-1.679-.879.84-1.439 1.999-2.558 2.558zm168.618 17.11c-2.918 2.599-2.319 7.476-2.319 11.233-.28 6.316-1.439 13.192-4.397 18.909 3.798-4.877 5.277-12.313 5.277-18.35.28-3.157-.88-8.314 1.16-11.192zm21.587-14.031c4.877.56 15.99-5.077 17.67-9.635-1.96 2.279-3.399 5.397-6.837 7.396-2.838 1.4-5.956 2.798-9.114 3.078zm54.367-25.425c2.319.28 5.996-2.239 8.315-3.638 1.679-.84 4.557-2.238 5.676-4.237-1.998 3.957-8.274 7.595-12.552 8.155zm-72.836 99.74c2.279 2.318 5.397 4.317 7.356 6.915 2.278 3.158 3.677 7.156 4.797 10.594-1.12-3.438-1.4-8.035-3.358-11.193-1.72-2.279-5.397-3.998-7.636-5.997zm48.851-3.998c-.28 2.319 1.119 5.197.56 7.515-.28 1.44-3.119 3.758-4.558 4.318.6-1.999 2.878-3.438 3.438-5.477.56-1.719.56-3.438.56-5.477zm15.591 4.117c1.158-.56 2.597-.28 3.757-.56 1.16-.279 1.719-.599 2.878-.279 2.598.56 3.758 3.398 4.877 5.357-1.12-1.4-2.878-3.678-4.597-4.518-1.72-.839-4.038-.28-5.757-.839zm-13.593-8.115c.6 1.48.88 2.639 1.16 4.078 0 .88 0 3.198.84 3.478.839.28 2.558-1.16 3.117-1.72 1.16-.599 2.838-1.478 3.678-2.318-2.239 0-4.517 3.478-6.236 3.158-1.4-.28-1.12-1.998-1.4-3.158 0-1.16 0-2.039-.56-3.198zm-1.479-35.338c.28 2.278-2.318 3.118-3.438 4.557-1.479 1.12-.32 5.916 0 7.595.28-1.399.28-2.518.28-3.637.28-.88 0-2 .28-2.559.28-.84 1.16-1.679 1.44-2.278.279-.84.599-1.68.879-2.519zm14.312-16.63c.839 1.439 1.958 4.837.839 6.556-.84 1.12-3.958 2.239-5.677 1.959 1.72-.84 4.558-1.12 5.397-3.118.84-1.68 0-3.398-.56-5.077zm3.477 1.679c1.12 1.439.56 4.317 1.68 5.197 1.119 1.119 4.197 0 5.276 0-1.08-.6-3.318.28-4.717-.6-1.12-.56-.84-2.838-1.4-4.277zm-66.12-7.675c1.44-.56 1.44-2.599 2.599-3.438 1.44-.88 2.878.28 3.758 1.439 2.598 2.278 4.597 5.157 6.596 7.995-2.879-1.12-4.598-4.557-6.876-6.556-.88-.88-1.76-2.319-3.198-1.72-.56 0-2.279 2-2.559 2.56zm-11.553 47.491c.28-2.279.28-3.718-.6-5.717.88-.6 3.119.84 4.238 1.16 1.44.28 3.958.56 5.357 1.399-2.518-.28-6.196-.28-8.435-1.72.28 1.16.84 3.159-.56 4.038zm68.959-77.953c-1.96-.32-3.398.28-5.117 0 0 1.4 1.16 2.798 1.439 4.517.28 1.96.28 3.958.56 5.637 1.719-.84-.84-7.356-.84-9.315 1.4 0 2.838-.839 3.958-.56zm20.387-88.986c-3.398-.32-7.995 2.558-10.833 4.597-1.44 1.12-3.158 2.559-4.597 3.998-1.12 1.439-2 3.478-3.438 4.597.32-2.279 3.158-4.877 4.597-6.596 1.12-1.16 2.838-2.279 4.557-3.158 2.878-1.999 5.997-3.158 9.714-3.158zM281.27 82.79c-.56 1.16-.56 2.838-.84 4.237 0 .88-.32 1.44 0 2.279 0 1.399.56.84 1.4 0 2.558-2.838 5.116-4.517 8.554-5.957 2.279-.839 4.557-1.678 6.836-1.958 1.12-.28 3.118-.28 4.237-.56-.56-.6-1.679-.28-2.558-.28-1.12.28-2.279.56-3.398.56-1.999.56-4.277 1.12-6.276 1.959-2 .88-3.678 1.159-5.117 2.558-.84.56-1.4 1.12-1.999 1.999-.56.56-.84 1.399-1.4 1.679-.279-1.12-.279-2.279 0-3.118.28-.56.84-1.959.56-2.559zm-42.854-10.554c-.6.88-.28 3.198-.28 4.318 0 1.159.28 1.159 1.119 1.159 1.44.28 2.838.88 3.998 1.439 2.558 1.16 4.837 3.158 6.835 4.877 1.12.88 2 1.719 3.119 2.319 1.119.56 2.278.84 3.397 1.399-2.278-.28-3.957-2.279-5.396-3.438-1.4-1.12-2.559-2.279-3.678-3.438-1.16-1.16-3.158-2.279-4.557-2.878-1.44-.56-2.879-.56-4.278-1.16-.88-.84 0-2.838 0-3.997zm-11.793-8.874c1.199 1.439 1.759 3.398 2.638 5.077.28.839.88 3.078 2.319 2.798 0-1.12-.28-2.239 0-3.358 0-1.12.28-2.239.56-3.358-.28 1.12-.84 1.959-1.16 3.078 0 .84 0 1.959-.28 2.798-1.16-.56-1.439-2.518-1.719-3.637-.6-1.12-1.479-1.96-2.039-3.079zM180.33 14.151c1.44.28 2.879 1.44 3.718 2.279 1.72 1.719 3.718 2.878 5.157 4.317 2.279 2 4.598 3.718 6.876 5.717 1.999 1.719 3.998 3.758 5.997 5.756 1.439 1.72 3.717 3.438 4.557 5.717-1.68-1.999-2.839-4.277-4.557-6.276-1.16-1.72-2.559-3.158-4.278-4.597-1.999-1.44-3.997-2.879-5.996-4.598-2.039-1.998-3.718-4.317-6.037-5.756-.84-.56-1.719-1.4-2.838-1.999-.56-.28-1.719-.56-1.999-1.16zm66.68 6.277c1.16 3.198 2 8.075 4.558 10.673 2.838 3.158 7.915 2.599 11.593 1.44-6.517 0-10.754.28-13.033-6.637-1.399-1.119-1.958-2.878-2.798-4.597zm-3.198 2.638c1.16 1.999 2.319 3.158 2.319 5.437 0 2.558-.56 5.996-1.16 8.555 0-4.838.6-8.835-1.479-12.833zm25.984 13.352c1.76.32 5.477 0 6.357 1.759.84 1.12-.28 5.756-.6 6.876-.56-2 .32-4.877-.56-6.596-.88-1.72-3.158-.88-4.317-1.44zm50.29-8.475c2.878 2.279 5.757 5.677 8.915 7.396 2.838 1.399 6.276-.56 8.275-2-1.12.28-3.438 1.44-4.837 1.44-1.72.28-2.599-.56-3.758-1.44-2.838-2.238-5.157-3.677-7.995-4.796zm2.798 8.475c2.839.88 5.677 4.357 3.678 7.515-1.12 2-4.277 2.319-5.996 3.438 1.999-.84 5.157-2.878 5.716-5.157.6-2.598-1.399-3.477-2.558-5.476zm14.392 3.518c-2.599 0-5.837.88-5.237 4.277 0 1.44 1.16 2.599 1.479 3.998.56 1.719.84 3.438 2.039 4.837-1.48-3.678-4.118-11.393.88-13.112zm-13.832 11.713c1.719.56 2.878-4.598 5.157-4.278 1.959.56.84 6.876 1.399 8.555-.84-2.558-1.12-4.557-1.12-6.836-2.278-.6-3.437 1.999-5.116 2.559zm17.509 11.393c1.44.88 2.599 2.039 3.438 3.478.88 1.159 1.16 3.198 2 4.037 1.718-2.598 1.998-5.476 4.556-7.835-2.558 1.2-2.838 3.798-4.277 5.517zM158.784 195.681c3.078 6.876 1.399 11.154-3.718 15.99 3.998-4.557 4.557-9.673 4.837-15.39zm36.258-7.475c1.439-.28 3.118-.56 4.277-1.16 1.12-.839 1.4-2.278 2.838-2.558 1.4-.32 6.477 1.72 5.637 3.438-.84-1.439-4.237-1.719-5.956-2.318-.28 2.878-4.518 2.318-5.917 1.758zm-.08-10.274c3.158 3.158 5.756 4.318 10.074 4.877-2-.56-4.877-1.719-6.916-2.878-1.999-1.16-3.158-3.158-4.917-4.637zm-4.517.24c1.399.88 5.876 5.437 5.037 6.556-.28.28-3.358 1.16-3.918 1.44-1.4.279-2.798 1.118-4.517.839 1.998-2 5.636-.84 7.035-3.398-1.399-1.44-2.238-3.158-3.078-5.117zM197 222.305c-1.119 2-3.957 4.837-3.637 7.076.56 2.838 5.317 3.398 7.835 3.398-1.679-1.68-4.757-1.4-5.876-3.678-1.12-1.959.56-4.237 1.399-5.916zm-35.778-28.622c.88 2.878 2.599 5.716 3.438 8.554 3.158.56 10.314-2.278 10.874-5.676-2.559-.6-5.117 4.277-7.996 3.957-1.998 0-1.719-.28-2.558-2.278-.88-1.68-2.319-3.118-3.438-4.238zm-65.96 53.207c3.118-.6 3.718 4.278 7.116 3.998-1.679 1.999-5.117 3.398-7.116 4.557-2.558 1.44-5.996 2.838-8.874 2.559 2.318-1.4 5.157-2.279 7.435-3.398 1.72-.88 5.437-2.319 5.997-3.718-1.12 0-1.12-.6-1.72-.88 0-.839-.28-1.718-1.119-2.278zm-65.68 1.72c-4.277 1.159-5.157 4.277-.84 5.996 4.558 1.399 9.435 1.679 13.992 1.679-2.838-1.96-7.715-2.239-11.153-2.839-.84 0-3.118 0-3.718-.56-1.399-.839-.84-2.278.6-2.838zm-19.948 6.515c2.878 0 7.156-3.158 9.434-1.998 1.44.56 2 2.838 2.839 3.717 1.159 1.12 3.438 2 4.837 3.118-1.68-.839-3.398-.839-5.117-1.679-1.72-.879-1.999-1.439-3.118-2.598-2.279-1.999-3.998 0-7.156 0zm33.26-52.048c3.158-.6 2.598 1.999 2.598 4.037.28 2.599 1.4 4.917 1.4 7.196-3.398-1.719-.56-8.914-3.398-10.953zM50.65 73.675c-8.236 5.997 1.119 14.032-2 22.067.88-3.998.88-8.315 0-12.033-.56-3.717-1.119-7.475 1.44-10.353zm-15.911-48.13c2.279-3.079 5.677-2.799 7.395-5.637.84-1.4 1.12-3.118 2.24-4.517 1.438-1.72 2.278-3.398 3.397-5.117-2.239 3.118-6.196 5.117-6.796 9.634-1.959 0-4.797 3.118-5.077 5.357zM49.57 16.27c-6.836 7.955-1.12 16.75 6.516 21.267C50.409 33.3 44.173 23.106 49.57 16.59zM36.898 32.38c.6-1.399 2.038-5.436 3.438-5.996 2.038-1.16 2.318 1.44 3.437 3.158 2.599 4.557 5.757 9.155 10.314 11.993-5.157-3.118-11.153-8.555-12.872-14.591-1.16 1.159-2.598 3.158-3.438 4.597zm36.697 14.991c-3.717 1.16-5.436 8.035-1.719 10.314 3.718 2.558 9.435.28 13.392 1.719-4.837-2.558-18.548-1.719-12.832-10.873zM62.722 66.24c3.158-1.12 4.877-4.318 8.315-3.998 2.878 0 8.035 1.44 10.873 2.559-2.838 1.159-5.996-.28-8.874-.84-3.118-.28-4.558.28-7.436 1.72zM34.739 91.145c1.719-1.12 3.718-1.4 5.437-2.559 1.439-.84 2.278-2.238 3.717-2.838 1.4 1.44.56 4.837.28 6.516-.56 2.838-.84 6.836-1.999 9.634-.28-4.517 1.72-9.034 1.44-13.871-1.72.28-5.157 1.998-6.556 2.838zm81.151-15.551c-.84 2.838-2.559 4.797-2.279 7.915-2.039-1.119-2.878-3.677-4.317-5.396-1.72-1.68-4.038-3.398-4.917-5.397 2.598 1.719 5.476 5.397 7.795 7.675.28-1.399.84-2.838 1.719-4.237zM11.633 34.739c4.277.88 8.555 2.598 11.393 5.716 3.678 4.278 7.396 8.875 9.075 14.272-4.518-2.559-5.957-9.394-9.355-13.392-1.16-1.44-2.838-1.999-4.557-2.878-1.44-.84-3.998-3.718-5.677-3.398zm330.44-2.319c2.558-3.118 9.114-3.398 12.792-5.117 4.557-1.958 10.514-5.676 13.352-10.233-4.797 1.998-8.515 5.716-13.072 7.995-3.678 1.959-7.356 3.678-11.074 5.397zm39.096 191.564c-2.598.88-6.956.6-4.317 4.597 1.998 3.119 5.796 5.677 8.075 8.515-2-2.558-3.758-5.117-5.757-7.675-1.759-2.279-1.759-3.718 1.16-5.117zm-263.6-183.568c1.12-1.96 2.798-2.519 4.477-.84-.56-.56-1.679-2.838-2.798-2.838-1.4 0-1.4 2.278-2 3.398zm-45.932 69.477c-1.44 2.04 1.399 4.638 3.078 4.638-1.68 2.318-6.796-2.319-3.958-3.159zM16.91 133.999c1.159.56 2.598 3.917.88 4.197.559-.56 1.998-1.12 1.998-2.518-.28-1.4-1.44-1.4-2.279-1.959zm127.443 1.719c-.6 1.399-.32 2.798.879 3.598-2.079-.24-2.399-1.64-1.48-3.039zm52.847 7.355c.32-1.959 2.28-1.399 3.119-.28-.56-.839-1.12-1.958-2.239-1.958-.56.84-.56 1.679-.88 2.478zm24.905 66.6c.56-1.4 2.519-2.798 3.878-1.12-1.639-2.558-4.157-1.958-3.878.84zm-51.768 32.3c1.519.6 2.118-1.998 1.239-2.878 1.2.88 1.48 4.877-.6 3.158zM66.16 223.425c-.88-1.96 1.719-3.678 3.438-3.398-2.279-1.72-3.998-.56-3.718 2.558zM33.3 198.32c1.16-1.72 2.278-3.158.6-5.197 2.518 2.039 1.958 3.478 0 5.197zm263.84 36.138c0-1.32 1.479-1.6 2.638-1.08-.28-.24-1.439-1.079-2.318-1.079v1.64zm34.939-99.46c2.878.88 2.318 2.918 1.159 5.197 1.999-1.999 2.838-4.597-.56-5.197zm33.659-13.352c-.84 1.12-1.639 4.278.8 4.278-3.278 1.399-2.998-2.879-1.08-4.598zm-79.352-29.902c-2.518.84-1.399 5.597 1.4 4.758-1.12.28-2.519 0-3.358-.56-1.44-1.959.56-2.798 1.119-3.918zM379.41 49.53c2.319 0 4.597 1.16 2.878 3.998 3.438-2.559.6-3.998-2.278-3.998zM236.337 85.348c-.28-1.159-.28-3.837 1.959-3.238-1.4.32-5.117.32-2.24 2.679zm-43.134-49.17c3.438.84 2.319-.28 2.598-3.438.28.6 1.4 2.279 1.4 3.438-.28 1.4-1.68 2.239-2.839.84z" fill="#fff" fill-rule="evenodd"/><path clip-path="url(#a)" d="M4.797 4.797h389.604V264.32H4.797z" fill="none" stroke="#343434" stroke-width="1.199" stroke-miterlimit="8"/><path d="m78.952 193.962-7.156 10.554-26.024-48.21 56.606-6.597-5.437 9.714s29.462 43.094 96.902 8.275c0 0-47.732 51.09-114.89 26.264z" fill="#a0d6f1" fill-rule="evenodd"/><path d="m78.952 193.962-7.156 10.554-26.024-48.21 56.606-6.597-5.437 9.714s29.462 43.094 96.902 8.275c0 0-47.732 51.09-114.89 26.264" fill="none" stroke="#1c83b2" stroke-width=".8" stroke-miterlimit="8"/><text xml:space="preserve" style="line-height:125%;text-align:start" transform="translate(64.787 184.062)" font-size="36" font-weight="400" font-stretch="Normal" letter-spacing="0" word-spacing="0" font-family="Arial"><tspan x="0" y="0"><tspan dx="0" dy="0" fill="#1c83b2">O</tspan></tspan></text><text xml:space="preserve" style="line-height:125%;text-align:start" transform="translate(90.272 185.827)" font-size="25.375" font-weight="400" font-stretch="Normal" letter-spacing="0" word-spacing="0" font-family="Arial"><tspan x="0" y="0"><tspan dx="0" dy="0" fill="#1c83b2">2</tspan></tspan></text><path d="m243.492 180.81-9.994 7.996-8.874-54.288 55.686 12.313-8.275 7.396s13.432 50.25 88.506 39.695c0 0-61.642 32.54-117.049-13.112z" fill="#a0d6f1" fill-rule="evenodd"/><path d="m243.492 180.81-9.994 7.996-8.874-54.288 55.686 12.313-8.275 7.396s13.432 50.25 88.506 39.695c0 0-61.642 32.54-117.049-13.112" fill="none" stroke="#1c83b2" stroke-width=".8" stroke-miterlimit="8"/><text xml:space="preserve" style="line-height:125%;text-align:start" transform="translate(236.017 172.515)" font-size="37.313" font-weight="400" font-stretch="Normal" letter-spacing="0" word-spacing="0" font-family="Arial"><tspan x="0" y="0"><tspan dx="0" dy="0" fill="#1c83b2">O</tspan></tspan></text><text xml:space="preserve" style="line-height:125%;text-align:start" transform="translate(261.502 173.168)" font-size="25.375" font-weight="400" font-stretch="Normal" letter-spacing="0" word-spacing="0" font-family="Arial"><tspan x="0" y="0"><tspan dx="0" dy="0" fill="#1c83b2">2</tspan></tspan></text><path d="m32.94 71.916-10.873 6.596-3.158-54.966 54.287 18.029-9.115 6.596s8.275 51.529 83.95 48.65c0 0-64.562 26.025-115.091-24.905z" fill="#a94992" fill-rule="evenodd"/><path d="m32.94 71.916-10.873 6.596-3.158-54.966 54.287 18.029-9.115 6.596s8.275 51.529 83.95 48.65c0 0-64.562 26.025-115.091-24.905" fill="none" stroke="#7e1b78" stroke-width=".8" stroke-miterlimit="8"/><text xml:space="preserve" style="line-height:125%;text-align:start" transform="translate(20.148 60.63)" font-size="28" font-weight="400" font-stretch="Normal" letter-spacing="0" word-spacing="0" font-family="Arial"><tspan x="0" y="0"><tspan dx="0" dy="0" fill="#7e1b78">C</tspan></tspan></text><text xml:space="preserve" style="line-height:125%;text-align:start" transform="translate(37.137 60.13)" font-size="28" font-weight="400" font-stretch="Normal" letter-spacing="0" word-spacing="0" font-family="Arial"><tspan x="0" y="0"><tspan dx="0" dy="0" fill="#7e1b78">O</tspan></tspan></text><text xml:space="preserve" style="line-height:125%;text-align:start" transform="translate(56.126 59.59)" font-size="18.625" font-weight="400" font-stretch="Normal" letter-spacing="0" word-spacing="0" font-family="Arial"><tspan x="0" y="0"><tspan dx="0" dy="0" fill="#7e1b78">2</tspan></tspan></text><path d="m272.435 26.864 2.558-12.593 42.295 35.419-50.01 27.103 1.44-11.113s-43.455-29.142-93.184 28.223c0 0 25.184-65.04 96.9-67.04z" fill="#a94992" fill-rule="evenodd"/><path d="m272.435 26.864 2.558-12.593 42.295 35.419-50.01 27.103 1.44-11.113s-43.455-29.142-93.184 28.223c0 0 25.184-65.04 96.9-67.04" fill="none" stroke="#7e1b78" stroke-width=".8" stroke-miterlimit="8"/><text xml:space="preserve" style="line-height:125%;text-align:start" transform="translate(254.506 54.634)" font-size="28" font-weight="400" font-stretch="Normal" letter-spacing="0" word-spacing="0" font-family="Arial"><tspan x="0" y="0"><tspan dx="0" dy="0" fill="#7e1b78">C</tspan></tspan></text><text xml:space="preserve" style="line-height:125%;text-align:start" transform="translate(271.496 54.134)" font-size="28" font-weight="400" font-stretch="Normal" letter-spacing="0" word-spacing="0" font-family="Arial"><tspan x="0" y="0"><tspan dx="0" dy="0" fill="#7e1b78">O</tspan></tspan></text><text xml:space="preserve" style="line-height:125%;text-align:start" transform="translate(290.484 53.594)" font-size="18.625" font-weight="400" font-stretch="Normal" letter-spacing="0" word-spacing="0" font-family="Arial"><tspan x="0" y="0"><tspan dx="0" dy="0" fill="#7e1b78">2</tspan></tspan></text></svg>