<svg xmlns="http://www.w3.org/2000/svg" version="1.0" viewBox="0 0 126.085 129.373"><defs><clipPath clipPathUnits="userSpaceOnUse" id="a"><path d="M2.718.32h125.924v129.44H2.718z"/></clipPath></defs><path d="M8.515 64.92c0-34.857 26.544-63.12 59.204-63.12 32.7 0 59.204 28.263 59.204 63.122 0 34.899-26.504 63.121-59.204 63.121-32.66 0-59.204-28.222-59.204-63.121z" fill="#ceaace" fill-rule="evenodd"/><path d="M19.988 71.677c0-32.9 25.065-59.644 55.926-59.644 2.878 0 4.797 0 7.675 1.04-4.797-2.08-10.593-3.119-15.39-3.119-28.943 0-52.089 24.705-52.089 55.566 0 12.313 3.878 24.665 10.634 33.9-3.878-8.195-6.756-18.509-6.756-27.743z" fill="#fff" fill-rule="evenodd"/><path d="M93.263 17.15c10.594 10.273 17.35 24.665 17.35 41.135 0 29.782-23.146 54.447-52.009 54.447-8.674 0-17.349-2.08-24.105-6.157 8.675 9.235 21.187 14.352 34.7 14.352 27.902 0 51.008-24.625 51.008-55.447 0-20.587-10.593-39.056-26.944-48.33z" fill="#b783b7" fill-rule="evenodd"/><path d="M36.498 66.48c0-19.788 14.91-35.899 33.22-35.899 18.349 0 33.22 16.11 33.22 35.899 0 19.828-14.871 35.898-33.22 35.898-18.31 0-33.22-16.07-33.22-35.898z" fill="#ff0" fill-rule="evenodd"/><path d="M43.174 67.48c0-17.47 16.43-30.822 31.86-30.822 1.92 0-.959 0 0 0-1.918 0-4.837-1.04-7.715-1.04-15.47 0-27.063 13.392-27.063 29.822 0 6.157 1.958 14.392 5.796 19.509-2.878-5.117-2.878-12.313-2.878-17.47z" fill="#fff" fill-rule="evenodd"/><path d="M82.71 41.775c5.756 5.157 8.635 12.352 8.635 21.587 0 15.43-11.513 28.782-26.904 28.782-4.797 0-9.594-1.04-13.472-3.078 4.837 4.078 11.553 7.156 18.269 7.156 15.39 0 27.863-13.352 27.863-28.743 0-11.313-5.756-21.587-14.391-25.704z" fill="#ffd100" fill-rule="evenodd"/><path d="M36.538 66.52c0-19.788 14.91-35.899 33.22-35.899 18.349 0 33.22 16.11 33.22 35.899 0 19.828-14.871 35.898-33.22 35.898-18.31 0-33.22-16.07-33.22-35.898" fill="none" stroke="#333" stroke-width="1.039" stroke-linecap="round" stroke-linejoin="round"/><path d="M30.661 52.608c0-3.678 2.799-6.676 6.237-6.676 3.478 0 6.236 2.998 6.236 6.676 0 3.718-2.758 6.676-6.236 6.676-3.438 0-6.237-2.958-6.237-6.676zM31.62 65c0-1.958 1.52-3.557 3.319-3.557 1.839 0 3.318 1.599 3.318 3.558 0 1.998-1.48 3.557-3.318 3.557-1.8 0-3.318-1.559-3.318-3.557zm13.513-14.99c0-1.12 1.079-2.079 2.398-2.079 1.36 0 2.399.96 2.399 2.079 0 1.159-1.04 2.078-2.399 2.078-1.319 0-2.398-.919-2.398-2.078z" fill="#fff" fill-rule="evenodd"/><path clip-path="url(#a)" d="M8.555 64.96c0-34.858 26.544-63.121 59.204-63.121 32.7 0 59.204 28.263 59.204 63.122 0 34.898-26.504 63.121-59.204 63.121-32.66 0-59.204-28.223-59.204-63.121" fill="none" stroke="#333" stroke-width="1.839" stroke-linecap="round" stroke-linejoin="round"/><path clip-path="url(#a)" d="M107.815 37.737c-13.512-13.392-24.106-10.314-33.74-7.235L68.28 31.54c-7.676 2.079-11.553 0-18.27-3.078l-12.552-4.118c-3.837-1.04-6.756 1.04-8.674 5.157-.96 4.118 1.918 9.235 5.796 10.274l10.594 3.078c6.756 3.078 14.47 6.156 26.024 4.118l5.756-2.04c9.635-2.078 13.512-3.117 20.228 4.078 2.918 3.118 4.837 9.275 4.837 17.51-.96 11.273-4.837 24.665-10.593 29.782-5.797 6.196-18.31 10.313-23.146 7.195-2.88-3.076-2.88-5.116-2.88-12.311 0-6.197 0-14.392-4.797-20.588-5.796-8.195-15.43-8.195-21.227-7.195-3.838 0-6.716 0-8.675-1-7.675-3.078-13.471-14.391-11.553-23.665.96-5.117-1.918-9.235-5.756-9.235-3.878-1.04-7.715 1-8.675 5.117-2.918 17.51 5.757 37.018 21.187 43.174 4.797 1.04 9.634 1.04 13.472 1.04 5.797 0 8.675 0 9.634 1.039 1.96 2.038 1.96 5.116 1.96 10.273-.96 8.235-.96 18.51 8.674 25.705 11.553 9.234 31.78 2.039 41.415-7.196 10.593-9.234 15.39-27.743 15.39-42.134 0-12.353-2.878-22.627-8.634-28.783z" fill="#fa5e56" fill-rule="evenodd"/><path d="M113.411 57.285c-.96-10.273-7.675-19.548-15.39-23.665-7.676-4.158-14.432-3.118-21.148-1.04-5.756 2.039-13.471 5.157-23.106 0 4.837 5.157 14.432 3.078 26.944 2.039 12.513-1 25.984 6.196 32.7 22.666zM35.459 66.48c10.633-1.04 17.389 0 24.145 6.156 5.756 6.156 0 20.508 3.838 28.703 3.877 8.195 10.633 6.156 17.349 4.077-7.715 4.118-17.35 5.117-20.228-4.077-1.919-8.195.96-22.547-5.796-28.703-6.756-6.156-18.31-6.156-19.308-6.156z" fill="#eaf1f7" fill-rule="evenodd"/><path d="M7.555 34.579c-.959 13.392 1.92 30.861 16.31 39.096 8.635 4.078 15.351 3.078 18.23 3.078-4.798-1.039-15.351-2.078-23.027-9.274-7.675-7.196-14.39-24.665-11.513-32.9zm26.025-5.117c-2.919 3.118-1.92 7.236 5.756 9.275 6.756 3.118 18.31 6.196 25.065 7.235 5.796 1 20.228-4.117 20.228-4.117-8.635.999-17.31 4.117-25.985.999-9.634-3.078-27.983-9.234-25.064-13.392zm71.196 68.758c-3.837 7.236-25.024 26.864-44.293 14.472 6.756 3.118 26.025 4.157 44.294-14.472z" fill="#e3001d" fill-rule="evenodd"/><path clip-path="url(#a)" d="M107.855 37.777c-13.512-13.392-24.106-10.314-33.74-7.236l-5.796 1.04c-7.676 2.079-11.553 0-18.27-3.078l-12.552-4.118c-3.837-1.04-6.756 1.04-8.674 5.157-.96 4.118 1.918 9.234 5.796 10.274l10.594 3.078c6.756 3.078 14.47 6.156 26.024 4.118l5.756-2.04c9.634-2.078 13.512-3.117 20.228 4.078 2.918 3.118 4.837 9.275 4.837 17.51-.96 11.273-4.837 24.665-10.593 29.782-5.797 6.196-18.31 10.313-23.146 7.195-2.879-3.078-2.879-5.117-2.879-12.312 0-6.197 0-14.392-4.797-20.588-5.796-8.195-15.43-8.195-21.227-7.195-3.838 0-6.716 0-8.675-1-7.675-3.078-13.471-14.391-11.553-23.666.96-5.116-1.918-9.234-5.756-9.234-3.878-1.04-7.715 1-8.675 5.117-2.918 17.51 5.757 37.018 21.187 43.174 4.797 1.04 9.634 1.04 13.472 1.04 5.797 0 8.675 0 9.634 1.039 1.96 2.038 1.96 5.116 1.96 10.273-.96 8.235-.96 18.51 8.674 25.705 11.553 9.234 31.78 2.039 41.415-7.196 10.593-9.234 15.39-27.743 15.39-42.134 0-12.353-2.878-22.627-8.634-28.783" fill="none" stroke="#333" stroke-width="1.839" stroke-linecap="round" stroke-linejoin="round"/></svg>