<svg xmlns="http://www.w3.org/2000/svg" version="1.0" viewBox="0 0 321.865 423.458"><defs><clipPath clipPathUnits="userSpaceOnUse" id="a"><path d="M2.159 1.2h321.485v423.742H2.159z"/></clipPath></defs><path d="M95.222 152.388c-2.838-1.32-2.418 3.957-1.199 5.276 2.019 2.2 4.437-.44 3.638-3.078z" fill="#82b3d5" fill-rule="evenodd"/><path d="M63.921 351.327h-.44c-9.274 2.698-17.289-6.736-23.625-22.446 1.699 9.434 2.958 19.308 2.958 26.923 0 27.824.42 39.037.84 56.546v.44c0 3.598 11.393 6.276 25.744 6.276 13.931 0 25.305-2.678 25.305-6.276v-38.577c-1.26-.46-2.939-1.359-4.638-2.258-8.434-4.038-17.709-10.754-26.144-20.628z" fill="#a5c7e0" fill-rule="evenodd"/><path d="M93.343 375.213c-.84 8.514 1.68 32.32-1.259 37.257-4.197 6.276-26.064 4.038-31.94 2.239 7.555 1.359 21.007-6.277 24.805-13.472 4.197-8.515-.42-17.05-5.897-23.786-8.815-10.773-33.62-27.843-36.158-44.013 5.057 7.635 21.867 19.768 28.603 26.044 5.456 5.397 13.452 16.61 21.846 15.73z" fill="#82b3d5" fill-rule="evenodd"/><path d="M286.366 155.026c-3.358-.44-5.876 0-14.29 3.578 2.098 3.578 3.777 7.595 4.616 12.073 2.939 10.713 2.099 13.411 5.057 21.886-2.118-9.374 4.198-19.208 8.835-22.346 5.037-3.118.84-14.751-4.218-15.191zm-7.155-21.467s-14.711.46-23.566 6.276c4.218 3.118 10.114 8.475 14.731 16.09 1.7-2.238 5.897-4.477 12.213-8.055 2.518-2.678 2.518-11.613-3.378-14.31z" fill="#f44d32" fill-rule="evenodd"/><path d="M185.368 178.452c1.259-8.555 4.197-15.29 6.716-23.366 16.39-53.468 51.668-37.297 73.515-38.637 5.457-1.359 6.296-15.73 1.679-17.07 0 0-4.617-.899-21.847-1.798 0 0 12.193-1.8 21.847-2.699 5.457-.899 5.876-17.07.42-18.868-20.588 0-52.089-2.259-73.935-.46-7.136.46-13.452.9-18.49.9-6.295-.44-10.913-.9-14.27-2.239l-.42-.46c-8.415 4.058-16.39 17.09-10.514 44.493l.84.44c2.098 1.36 3.358 4.038 1.679 10.334-.84 4.037-2.519 9.434-5.877 17.07-7.555 18.428-10.514 39.096-9.654 55.706 0 0 0 12.592-.86 17.07z" fill="#a5c7e0" fill-rule="evenodd"/><path d="M154.227 164.44c6.336-1.339 12.652-.9 18.548 1.8 2.958 1.338 5.077 2.678 7.176 4.916 1.679 1.78 3.378 5.377 5.057 2.679 1.26-1.34 1.699-7.156 2.119-9.395 1.259-3.577 2.938-6.716 4.217-10.293 2.519-6.716 7.156-13.412 8.415-20.588-7.575 9.414-9.274 20.148-22.766 22.386-10.114 1.78-21.067.44-29.502 7.156-4.638 4.018-7.176 11.193-8.435 17.89-.42 4.477 0 8.954-.42 13.87-.42 4.038-2.119 11.194 0 15.212 2.099-5.357 2.099-9.834 2.518-15.211.44-2.678 1.28-5.357 1.7-8.495.839-4.018 0-8.055.839-11.633z" fill="#82b3d5" fill-rule="evenodd"/><path d="M31.86 167.858c3.818-8.515 8.056-12.092 11.454-15.69 3.797-4.478 9.734-8.055 15.25-8.055 5.077-.46 12.693-1.8 16.51-.9 3.398.9 8.895 1.34 12.293 3.578.42.46 1.26.9 1.679 1.799.44 0 .44 0 .86.44.42.46.839.46 1.259.9 0 .459.44.459.44.899.42.46.839.899 1.259 1.339 0 0 .42 0 .42.46.44.44.859 1.339 1.698 1.798l.84-1.798c-2.539-7.176-3.798-56.486-4.218-86.088-.44-8.975-.44-10.754-.44-14.352-1.678 3.138-11.852 5.377-24.145 5.377-13.132 0-24.145-2.678-24.145-6.276 0 0 0 .9-.42 1.36-.42 4.476-.42 5.376-.84 12.551-.419 16.59 0 38.557.42 56.486.42 13.012-2.958 29.143-10.173 46.172z" fill="#a5c7e0" fill-rule="evenodd"/><path d="M201.698 407.513c-5.877-1.34-11.333-2.678-16.81-4.038v15.651c2.538 2.678 13.032 4.897 26.064 4.897 12.193 0 22.686-2.219 25.625-4.457.42-.44.84-1.34.84-1.34v-5.356c-10.075 0-21.848-1.8-35.72-5.357zM11.413 152.647c-4.217 2.28-4.657 15.97 1.28 17.35 3.377.9 11.412.9 18.168.9.42-.9.84-1.82 1.28-2.739 2.098-5.457 3.797-10.933 5.476-15.97-9.714 0-21.547 0-26.204.46z" fill="#f44d32" fill-rule="evenodd"/><path d="M61.523 55.526c2.098 0 10.873 0 12.952-.4z" fill="#eeb1d7" fill-rule="evenodd"/><path d="M176.433 209.653c.42 7.196-2.099 23.366.42 29.662 2.938 6.736 2.938 10.793 4.197 16.17 1.26 5.397 0 20.228 2.539 26.524 2.518 6.736 3.358 9.894 5.456 13.492 1.68 3.578 5.057 17.07 9.255 22.466 4.637 5.837 4.637 10.334 7.575 13.032 2.938 3.138 1.68 6.297 3.778 8.975 2.538 2.698 3.798 3.158 5.477 4.957 1.679 2.239 5.456 6.296 4.197 9.434-1.26 3.138 2.099 10.794 0 11.693-2.099.88-1.679-1.359-5.876-2.698-4.638-1.36-8.835-4.058-10.934-3.158-2.118.9-8.415-1.8-7.995-4.498.42-3.138-1.679-4.477-1.679-4.477s-3.798-2.698-5.477-2.698c-1.259 0-2.938-1.36-5.476-.46-2.519.9-4.198 4.038-5.877 3.598-1.259-.44-2.938-.9-4.217-2.698-1.26-1.8 0-3.598-2.938-5.397-3.358-2.239 0-5.837-5.037-4.937-4.637.9-4.218 4.037-7.995-.46-4.218-4.477-4.218-7.176-5.477-8.535-1.26-1.339 0-4.497-2.099-6.276-2.099-1.799-2.099-5.397-4.617-5.397-2.958 0-6.736-.46-6.736-.46s.42 0-3.798-1.339c-4.617-1.799-2.518 3.138-4.617-1.799-2.099-5.396-.84-10.333-4.197-10.333-3.378 0-6.736.44-6.736.44l-4.637-1.8s-.42-2.238-1.68-4.497c-1.259-2.238.42-3.138-1.678-6.736-2.519-3.138-2.519-4.497-5.477-6.736-2.938-2.258-2.519-5.396-3.778-6.735-1.259-1.36-.84-2.699-2.099-4.957-.839-1.34-5.896-5.377-7.155-8.535-.84-2.239 1.679-4.498 4.637-4.038 9.674.44 18.929 8.535 26.904 12.573 0 0-6.716-7.176-19.768-14.831-14.711-8.535-21.028 4.497-25.225 4.057-3.378.44-3.798-.46-6.316-.9-2.519-.46-2.519-3.597-4.617-4.497-2.12-.9-2.539-1.799-5.477-5.396-2.519-3.138-4.617-7.196-6.316-10.334-1.68-3.138-.42-2.239-1.26-4.937-.839-2.259-.42-2.259-2.518-4.957-1.679-2.698-2.518-2.698-2.518-6.276 0-3.598 1.259-2.699-.84-5.397-2.119-3.158-.84-4.957-.84-7.655 0-2.679-.839-4.038-.839-7.176 1.68-4.497 5.037-8.535 9.234-11.233 2.539-1.36 9.675-2.699 13.053-3.598 3.777-.9 6.296-2.698 10.513-2.698 2.099 0 3.778 1.339 6.736 1.798 3.358.44 7.136.44 8.815 1.34 8.415 3.158 9.254 14.39 14.73 20.227 1.26 1.8 2.94 2.239 4.198 4.498 1.28 1.799 1.28 4.037 2.959 5.836 2.098 2.698 10.093 2.698 9.254 7.196 1.26 4.937-2.119 11.673 1.26 21.127 3.357 9.874 9.254 13.472 9.254 13.472-3.378-11.233-9.255-17.07-4.638-24.265 5.057-6.736 3.378-5.837 5.057-9.894l-.42.899c0-1.34 0-4.477.84-5.837 1.26-1.798 3.778-1.339 4.617-3.138 2.119-3.597 0-6.756 3.378-9.894l-.42.46c5.037-2.698 13.033-10.793 13.033-15.29-3.358 6.735-7.996 7.195-10.094 4.936-1.26-.44.42-3.138.42-3.138-.84-1.339 1.259-2.698.839-3.598-.42-1.339-.42-3.138-.84-5.396.84-5.837 1.68-12.573 2.519-15.271 3.798-2.259 9.674-3.158 15.57-1.799 5.457.9 9.675 3.598 12.613 7.196-.42 2.698-.84 6.276-1.26 10.773-.839.9 1.26 3.598.42 5.397-1.259 2.259.42 2.259 0 6.296-.84 4.038.84 3.598-1.679 3.138-4.217 0-7.575-1.339-9.254-7.635-.42 6.296 2.938 11.233 9.674 13.032z" fill="#ab0034" fill-rule="evenodd"/><path d="M85.948 253.267c-6.756-3.139-8.855-14.352-11.393-20.648-1.68-5.816-4.637-11.213-1.68-17.05 4.638-7.615 21.088-9.414 26.565-2.678 1.679 2.239 2.098 5.377 3.777 7.176 2.12 2.238 5.917 3.138 8.435 5.376 4.218 3.598 7.176 8.975 8.855 14.372 2.958 8.974 6.316 16.15 13.912 21.087-3.378-7.176-2.1-21.087 3.377-26.484 6.736-6.736 13.053-14.811 15.591-24.685.42-3.578-.42-7.615 2.538-10.314 2.519-2.698 7.996-2.698 10.534 0 1.26 1.799.84 4.038 2.938 5.837 1.28.9 3.798 1.339 5.057 2.238 4.637 1.8 5.077 3.598 4.637 8.535-.839-5.836-3.358-5.836-6.735-8.974 2.098 6.735-2.1 13.451-2.959 20.187-.84 10.774 4.218 21.547 5.917 31.861 1.259 9.874-.86 18.849 1.259 28.263 2.958 10.773 7.156 22.446 13.072 31.86 2.519 4.038 5.896 8.076 8.415 12.573 2.119 3.578 5.057 7.176-.42 8.515-7.995 2.238-11.373-6.276-19.388-7.176-8.435-.9-16.85-4.037-21.067-12.113-2.539-4.937-3.798-8.974-8.435-11.672-4.218-2.24-8.855-2.24-11.373-5.837-.86-1.779-.86-3.578-2.539-5.377-2.098-1.799-4.217-2.238-6.736-3.598-2.118-1.339-4.637-2.678-7.175-4.037-2.099-.9-5.057-.9-7.156-2.678-1.699-1.8-4.217-8.076-2.538-10.774 1.699-2.239 6.316-1.799 8.434-4.497-8.854-6.716-15.17-17.05-27.823-15.25z" fill="#b91645" fill-rule="evenodd"/><path d="M193.023 152.308c2.938-.9 6.716-1.36 7.975-1.36 2.099 0 6.296-.899 8.395-1.339 2.519-.46 5.457.44 7.975.44 2.519 0 3.358 1.36 4.617 1.36 1.68 0 4.198 1.338 5.457 1.798 1.26 0 5.877 0 8.815.9 2.518.9 4.197 2.238 6.716 2.238 2.518 0 3.358 2.239 6.296 4.038 2.938 1.799 2.938 4.497 4.617 5.856 1.68.9 6.716 12.573 6.716 15.71 0 3.599 1.26 4.058.84 7.196-.42 3.138 0 9.874-10.074 17.97-10.074 7.635-6.716 26.503-1.68 35.038-6.296-16.63 1.68-26.064 2.939-26.504 1.26-.44 2.938-1.799 4.197-1.799 1.68 0 3.778 2.239 3.778 2.239s.84 3.598 1.679 5.856c.84 2.699-.42 13.472 0 16.17.42 2.699-1.26 5.837.84 8.536 2.098 2.238-.42 3.597.42 5.396.839 1.8.839 4.038.839 6.276 0 2.26-1.68 4.957 1.259 9.894 3.358 4.937-.42 4.038.42 7.636.84 3.138-1.26 3.598-1.26 3.598s-2.938 1.799-5.036-.9c-2.1-2.258-2.939 3.138-3.358 5.377-.42 2.259 1.679 2.259 5.876 6.296 4.197 3.598.84 1.799 2.519 6.296 1.678 4.498 1.678 4.038 2.098 7.636.42 4.037-.42 3.597-1.259 4.937-.84 1.359-1.26 1.799-2.938-.44-1.68-2.259-.42-4.497-2.938-7.196-2.939-3.138-1.68 1.8-3.358 4.498-1.26 3.138 1.679 5.836 3.358 11.673 1.679 5.396.42 5.396.84 9.894.419 4.037-1.26 5.376-2.52 8.534-1.678 3.138-3.357 4.038-7.135 4.937-4.198.44-10.913-1.799-12.173-5.836-1.259-4.038-1.259-.9-5.037-6.736-3.358-6.296-4.197-4.058-5.876-9.894-1.68-5.397-2.938-12.133-6.716-16.61-3.358-4.957-2.938-5.397-4.197-9.894-1.26-4.038-1.68-6.296-5.037-13.472-3.778-6.736-2.519-6.296-3.778-12.132-1.26-5.397-9.654-15.73-10.074-21.567-.42-6.297-2.938-4.038-4.617-12.133-1.68-8.535-10.074-13.472-9.235-23.366 5.877-2.239 9.235-6.736 9.235-14.371-.84 6.736-4.198 8.535-9.235 8.994v-.46c-.42-9.434.42-20.667 1.26-25.164 0-.9 0-1.779-.84-2.239z" fill="#ab0034" fill-rule="evenodd"/><path clip-path="url(#a)" d="M25.804 194.082c.86-8.494 2.12-14.77 3.818-19.688-8.075-.46-19.968 0-22.946.44-3.838.46-6.396 16.57 1.699 18.369 4.237.88 10.633.88 17.43.88z" fill="#f44d32" fill-rule="evenodd"/><path d="M33.38 87.107c-5.877 0-13.012 1.8-15.95 1.8-2.519.899-4.198 4.486-4.198 8.514zm8.395-14.441c-8.915-1.809-16.13-3.628-19.109-4.987-3.817.46-6.366 4.987-6.796 9.514z" fill="#eeb1d7" fill-rule="evenodd"/><path d="M41.775 71.077c-8.875-1.789-16.06-4.018-19.019-4.917-6.346.45-9.304 11.613-4.647 16.08 4.227 1.34 15.21 4.028 15.21 4.028-6.335 0-13.101.44-16.48.44-5.076 1.788-5.926 16.08 1.69 17.419 6.766.45 16.06.89 23.246.89v-33.94z" fill="#a5c7e0" fill-rule="evenodd"/><path clip-path="url(#a)" d="M199.56 31.78c-1.68-.899-7.157-4.956-7.576-6.295-.84-.9-1.26-3.598.84-9.455 2.098-7.195-9.275-14.391-13.912-6.736-1.26 2.239-2.1 3.598-5.477 8.095 0 0 .44-10.353-.84-11.692-3.777-5.417-11.373-4.058-13.891-.9-2.119 2.698-.42 16.63-10.954 17.53-5.476-.44-4.637-6.736-4.637-10.794.42-3.598-13.911-4.038-15.17 4.058-.42 4.937-.84 9.894-2.519 14.39-.42 1.34-2.119 4.058-2.538 4.498-28.223 23.846-30.742 40.036-30.742 67.48 0 11.252-1.28 34.198 3.778 54.886v.44c3.798 5.856 6.756 12.612 11.813 19.348 3.358 4.057 3.358 12.153 1.679 21.607-.42-.46-.84-.9-1.26-1.36 9.255 11.254 22.747 21.588 27.804 18.89.42 0 .42-.44.84-.44v-20.248c0-15.291 3.357-33.28 9.693-49.03 3.358-7.656 5.037-13.053 5.897-17.09 1.679-6.316.42-9.015-1.7-10.354l-.839-.46c-5.896-27.443 2.119-40.475 10.534-44.533l.42.46c3.377 1.34 8.015 1.799 14.33 2.239 5.058 0 11.374-.44 18.53-.9 10.533-.9 22.746-.9 34.958-.44-4.617-18.009-14.31-33.3-29.062-43.193z" fill="#f44d32" fill-rule="evenodd"/><path d="M210.173 125.804c6.716.46 13.871 1.379 21.427 3.198.42-4.577.84-9.155 1.259-13.752-8.815.46-17.23 3.218-24.385 10.554h1.699z" fill="#f44d32" fill-rule="evenodd"/><path d="M300.058 276.712c-7.175-21.107-12.232-37.717-18.129-50.749-4.637-9.874-9.274-20.208-8.854-22.446l.42-.9c5.056-26.943-4.218-46.252-27.804-57.485-16.87-7.635-33.72-8.535-46.372-7.176h-.42c0 .44 0 .9-.42.9-2.098 4.037-3.797 8.535-5.476 13.472 2.958-.9 6.736-1.36 8.015-1.36 2.099 0 6.316-.899 8.415-1.339 2.539-.44 5.477.44 8.015.44 2.519 0 3.378 1.36 4.637 1.36 1.68 0 4.218 1.338 5.477 1.798 1.26 0 5.897 0 8.855.9 2.518.899 4.217 2.238 6.736 2.238 2.538 0 3.378 2.239 6.316 4.038 2.958 1.799 2.958 4.497 4.637 5.836 1.699.9 6.756 12.573 6.756 15.73 0 3.579 1.26 4.038.84 7.176-.42 3.138 0 9.874-10.114 17.97-10.114 7.635-6.756 26.483-1.7 35.018-6.316-16.61 1.7-26.044 2.959-26.484 1.259-.46 2.958-1.799 4.217-1.799 1.68 0 3.798 2.239 3.798 2.239s.84 3.598 1.679 5.837c.84 2.698-.42 13.471 0 16.17.42 2.698-1.26 5.836.84 8.535 2.118 2.238-.42 3.597.42 5.376.859 1.8.859 4.058.859 6.296 0 2.24-1.7 4.937 1.259 9.874 3.358 4.937-.42 4.038.42 7.636.84 3.138-1.26 3.598-1.26 3.598s-2.958 1.799-5.057-.9c-2.118-2.238-2.958 3.138-3.378 5.397-.42 2.239 1.68 2.239 5.897 6.276 4.217 3.598.84 1.799 2.538 6.296 1.68 4.478 1.68 4.038 2.1 7.636.419 4.037-.42 3.578-1.26 4.937-.84 1.339-1.26 1.799-2.958-.46-1.68-2.239-.42-4.477-2.939-7.176-2.958-3.138-1.699 1.8-3.378 4.478-1.259 3.158 1.68 5.856 3.378 11.693 1.68 5.376.42 5.376.84 9.874.42 4.037-1.28 5.396-2.539 8.534-1.679 3.138-3.358 4.038-7.155 4.937-4.218.44-10.954-1.799-12.233-5.836-1.26-4.038-1.26-.9-5.057-6.736-3.358-6.296-4.217-4.038-5.896-9.874-1.68-5.397-2.958-12.133-6.736-16.63-3.378-4.937-2.958-5.377-4.218-9.874-1.259-4.038-1.698-6.296-5.056-13.472-3.798-6.736-2.539-6.296-3.798-12.132-1.26-5.377-9.694-15.71-10.114-21.547-.42-6.297-2.958-4.038-4.637-12.133-1.68-8.515-10.114-13.472-9.275-23.346 5.897-2.239 9.275-6.736 9.275-14.371-.84 6.736-4.218 8.535-9.275 8.994v-.46c-.42-9.434.42-20.647 1.26-25.144 0-.9 0-1.799-.84-2.239-3.378-5.396-9.694-9.434-17.27-10.793-8.015-1.8-16.03-.44-21.087 3.158-.42.44-.84.9-1.259 1.34-1.26 2.238-1.26 8.974-2.518 19.767-.86 8.515-.42 22.446-6.336 26.044-5.897 3.138-23.166-11.233-31.182-24.265l-.42-.44c-10.533-11.233-26.983-11.673-39.196-8.075-13.491 3.578-23.605 12.113-25.704 21.547v.44c-.86 17.969 12.632 58.844 28.223 69.158 13.911 8.994 14.751 10.793 21.087 23.366 7.576 16.15 43.414 64.66 104.937 80.83 61.962 16.151 73.755-2.698 84.288-8.534h.42v-.46c24.865-20.208 34.979-51.628 21.507-92.504zm-80.511 89.366c-2.099.9-1.679-1.339-5.896-2.698-4.638-1.34-8.855-4.038-10.954-3.138-2.119.9-8.435-1.8-8.015-4.498.42-3.138-1.679-4.477-1.679-4.477s-3.798-2.698-5.477-2.698c-1.259 0-2.958-1.36-5.476-.46-2.539.9-4.218 4.058-5.917 3.598-1.259-.44-2.938-.9-4.197-2.699-1.28-1.798 0-3.577-2.958-5.376-3.378-2.259 0-5.837-5.057-4.937-4.638.9-4.218 4.037-8.015-.46-4.218-4.497-4.218-7.176-5.477-8.535-1.26-1.339 0-4.477-2.099-6.276-2.119-1.799-2.119-5.397-4.637-5.397-2.958 0-6.756-.44-6.756-.44s.44 0-3.778-1.359c-4.637-1.799-2.538 3.138-4.637-1.799-2.119-5.376-.84-10.313-4.217-10.313-3.378 0-6.736.44-6.736.44l-4.637-1.8s-.44-2.238-1.7-4.477c-1.259-2.258.42-3.158-1.678-6.736-2.539-3.158-2.539-4.497-5.477-6.736-2.958-2.258-2.539-5.396-3.798-6.736-1.259-1.359-.84-2.698-2.099-4.957-.859-1.339-5.916-5.376-7.175-8.514-.84-2.259 1.679-4.498 4.637-4.058 9.694.46 18.969 8.535 26.984 12.572 0 0-6.756-7.175-19.808-14.81-14.751-8.535-21.088 4.497-25.305 4.037-3.358.46-3.778-.44-6.316-.9-2.519-.44-2.519-3.577-4.637-4.477-2.1-.9-2.519-1.799-5.477-5.396-2.518-3.139-4.637-7.176-6.316-10.334-1.7-3.138-.42-2.239-1.28-4.937-.839-2.239-.42-2.239-2.518-4.937-1.679-2.699-2.538-2.699-2.538-6.296 0-3.578 1.279-2.679-.84-5.377-2.099-3.138-.84-4.937-.84-7.636 0-2.698-.839-4.037-.839-7.195 1.68-4.477 5.057-8.515 9.275-11.213 2.518-1.36 9.694-2.699 13.052-3.598 3.797-.9 6.336-2.699 10.553-2.699 2.099 0 3.778 1.36 6.736 1.8 3.378.46 7.156.46 8.855 1.339 8.435 3.158 9.274 14.37 14.75 20.227 1.26 1.78 2.94 2.239 4.218 4.478 1.26 1.798 1.26 4.037 2.939 5.836 2.118 2.698 10.113 2.698 9.274 7.196 1.26 4.937-2.099 11.673 1.26 21.107 3.377 9.874 9.274 13.472 9.274 13.472-3.358-11.233-9.275-17.07-4.638-24.266 5.057-6.735 3.378-5.836 5.057-9.874l-.42.9c0-1.34 0-4.497.84-5.837 1.28-1.798 3.798-1.339 4.637-3.138 2.119-3.138.44-6.736 2.958-9.434 5.057-2.698 13.072-10.773 13.072-15.27-3.377 6.735-8.015 7.195-10.113 4.936-1.28-.44.42-3.138.42-3.138-.84-1.339 1.259-2.698.839-3.598-.42-1.339-.42-3.138-.84-5.376.84-5.837 1.68-12.573 2.519-15.271 3.798-2.259 9.694-3.158 15.59-1.799 5.497.9 9.695 3.598 12.653 7.176-.42 2.698-.84 6.296-1.26 10.793-.839.88 1.26 3.578.42 5.377-1.259 2.258.42 2.258 0 6.296-.84 4.038.84 3.578-1.699 3.138-4.197 0-7.575-1.34-9.254-7.635-.44 6.296 2.938 11.233 9.694 13.032.42 7.175-2.119 23.346.42 29.622 2.938 6.736 2.938 10.793 4.197 16.17 1.28 5.397 0 20.208 2.539 26.504 2.538 6.736 3.378 9.874 5.476 13.472 1.68 3.578 5.057 17.05 9.275 22.446 4.637 5.837 4.637 10.334 7.595 13.032 2.938 3.138 1.68 6.277 3.778 8.975 2.538 2.698 3.798 3.138 5.476 4.937 1.7 2.239 5.497 6.296 4.218 9.434-1.26 3.138 2.119 10.774 0 11.673z" fill="#f3b2bc" fill-rule="evenodd"/><path d="M40.715 203.996v.46c-.86 17.99 12.633 58.884 28.203 69.218 13.492 8.995 14.751 10.354 21.067 23.386 7.576 15.73 43.394 64.72 104.877 80.91 58.125 15.272 71.197-1.798 82.13-7.634" fill="none" stroke="#ec728c" stroke-width=".8" stroke-miterlimit="8"/><path d="M184.488 175.933c-3.358-5.396-10.114-7.635-17.69-9.434-7.594-1.36-15.61 0-21.086 3.598-.42 0-.84.44-.84.9-1.699 2.698-.42 8.994-1.699 19.328-.84 8.994.86 22.026-7.155 26.983-5.917 2.679-23.186-11.253-31.621-24.745l-.42-.44c-10.134-10.793-26.564-11.233-38.797-8.095-13.491 4.058-23.605 12.593-25.724 22.027" fill="none" stroke="#ec728c" stroke-width=".8" stroke-miterlimit="8"/><path d="M184.808 226.843c.84 1.798 1.679 4.037 2.099 6.735.84 4.478 2.098 6.277 2.938 7.616.84.9 1.679 1.799 1.679 4.497.44 3.578 2.958 8.515 5.896 12.992 1.68 3.158 3.778 6.736 4.218 8.975l.84 4.037c0 1.8.419 3.598 2.938 8.535 2.938 5.817 3.777 8.055 4.617 11.653l.42 1.34.42 2.238c.859 2.698 1.278 3.598 4.217 7.635 2.518 3.578 3.777 8.515 5.037 13.012l1.279 3.578c.84 3.138 1.679 4.038 2.938 5.377.84.9 1.679 1.799 3.358 4.497 1.679 3.138 2.958 4.038 3.378 4.478.42.46.84.899 1.26 2.238 1.678 4.937 13.451 6.276 17.229 5.837-4.617.44-14.292-3.578-15.131-6.736-.84-1.78-1.26-2.239-2.099-3.138-.42-.44-1.26-.88-2.958-4.038-1.679-2.678-2.518-3.578-3.358-4.477-1.26-1.34-1.679-1.8-2.518-4.477l-1.26-3.598c-1.259-4.937-2.538-9.854-5.476-13.892-2.939-3.598-2.939-4.497-3.778-6.736l-.42-2.238-.42-1.8c-1.279-3.137-1.699-5.836-5.057-12.112-2.098-4.477-2.518-5.816-2.518-7.615l-.84-4.038c-.42-2.698-2.538-6.276-4.637-9.874-2.518-4.477-5.037-8.515-5.456-11.653 0-3.598-.84-4.497-2.12-5.836-.839-1.34-1.678-2.699-2.518-6.716-.839-2.699-1.259-4.937-2.098-7.196-1.68-4.018-5.057-8.055-4.198-14.351-.86 6.736.84 10.773 2.099 15.25z" fill="#fff" fill-rule="evenodd"/><path d="M186.067 224.444c1.26 2.259 2.519 4.957 3.358 8.095.84 4.497 2.099 5.837 2.958 7.176 1.26 1.359 1.68 2.258 1.68 4.937.42 3.598 2.938 8.095 5.876 12.592 1.699 3.578 3.798 6.736 4.217 8.975l.84 4.037c.42 2.239.42 3.598 2.938 8.535 2.938 5.837 3.798 8.535 4.637 11.673l.42 1.799.84 2.239c.42 2.258.839 3.597 3.777 7.635 2.519 3.598 3.798 8.535 5.477 13.032l.84 3.598c.839 3.138 1.678 4.037 2.938 5.377.839.899 1.678 1.798 3.357 4.497 1.7 3.138 2.959 4.037 3.378 4.497.42.44.84.44 1.26 2.239 1.679 4.497 10.094 7.175 14.71 6.736-4.197.44-11.772-4.498-12.612-7.636-.84-1.799-1.259-2.698-2.098-3.138-.42-.46-1.26-.9-2.939-4.037-1.699-2.699-2.538-4.058-3.378-4.957-1.259-.9-1.678-1.34-2.518-4.478l-1.26-3.597c-1.258-4.498-2.518-9.435-5.476-13.472-2.938-3.598-2.938-4.498-3.778-7.196l-.42-2.239-.42-1.339c-1.258-3.598-1.678-5.836-5.056-12.132-2.099-4.498-2.519-5.837-2.519-8.076l-.839-4.057c-.42-2.678-2.518-5.837-4.617-9.414-2.539-4.498-5.057-8.995-5.477-12.133 0-3.138-.84-4.497-2.099-5.836-.84-.9-1.679-2.24-2.538-6.297-.84-3.577-2.099-6.276-3.358-8.514-2.099-4.058-5.876-7.636-5.457-13.492-.86 6.296 1.26 10.333 3.358 14.371z" fill="#ec728c" fill-rule="evenodd"/><path d="M216.07 139.256c8.434.9 16.43 4.497 24.424 8.075 23.166 10.793 32.44 30.121 26.964 56.166v.9c-.42 2.697 2.938 10.333 8.835 22.925 4.637 11.233 9.274 24.705 14.75 41.335l2.939 9.434c10.953 32.8 7.155 61.103-11.793 84.47l1.699 1.338c19.368-23.805 23.566-52.568 12.213-86.267l-2.959-9.435c-5.896-17.07-10.114-30.541-15.15-41.774-3.798-8.095-8.855-19.329-8.435-21.567v-.9c5.476-27.403-3.778-47.171-28.203-58.864-8.015-3.598-16.01-7.196-24.845-8.095l-.44 2.259z" fill="#fff" fill-rule="evenodd"/><path d="M198.16 136.837v2.239c15.63-1.34 30.841 1.359 44.353 7.635 23.246 10.794 32.54 29.662 27.463 56.166l-.42.88c-.42 2.698 2.959 10.333 8.875 22.926 5.057 11.213 9.275 24.245 14.771 41.315l3.378 9.434c10.994 33.7 5.917 62.882-15.21 86.248l1.279 1.339c21.966-23.806 27.443-53.448 15.63-88.487l-2.958-9.434c-5.497-16.61-10.134-30.102-15.21-41.315-3.798-8.095-8.875-19.768-8.456-21.567l.44-.9c5.057-27.403-4.237-47.17-28.723-58.844-13.951-6.296-29.162-8.994-45.212-7.635z" fill="#ec728c" fill-rule="evenodd"/><path d="M273.954 371.495c.42-.44 1.26-.9 1.679-.9l.42-.44h.42c2.098-1.798 3.777-3.597 5.876-5.856" fill="none" stroke="#ec728c" stroke-width=".8" stroke-miterlimit="8"/><path d="m135.598 213.91-1.72-24.325c.86-18.469 3.859-29.282 10.694-45.492 2.979-7.656 5.977-9.914 6.816-13.972m-3.518-13.351c-7.115-28.404.84-37.418 9.195-41.496" fill="none" stroke="#fff" stroke-width=".8" stroke-linecap="round" stroke-linejoin="round" stroke-miterlimit="10"/><path d="M149.03 117.969h-.84c-5.916-27.864.84-38.637 9.674-42.695M134.279 215.83c.42 0 .42-.44.84-.44v-20.228c0-15.75 3.357-33.28 9.633-49.47 3.338-7.636 5.017-13.032 5.837-17.09" fill="none" stroke="#f4130a" stroke-width=".8" stroke-miterlimit="8"/><path d="M160.902 73.755c-8.434 4.038-15.19 18.39-9.274 45.733" fill="none" stroke="#4793c3" stroke-width=".8" stroke-miterlimit="8"/><path d="M73.975 317.448c2.958 2.738 5.057 11.792 2.539 18.149-2.959 6.336-5.057 12.692-13.072 14.95" fill="none" stroke="#fff" stroke-width=".8" stroke-linecap="round" stroke-linejoin="round" stroke-miterlimit="10"/><path d="M75.434 318.967c2.559 2.718 5.117 9.474 2.559 15.79-2.998 6.316-6.416 13.552-14.551 15.79" fill="none" stroke="#f6a68c" stroke-width=".8" stroke-linecap="round" stroke-linejoin="round" stroke-miterlimit="10"/><path d="M94.703 374.933c-1.68-.88-4.618-.88-6.297-1.78-17.629-8.494-37.357-31.28-50.789-64.82" fill="none" stroke="#4793c3" stroke-width=".8" stroke-miterlimit="8"/><path d="M152.627 129.002c-16.43-54.947 15.171-61.723 21.068-54.507 1.679 1.359 1.679 1.799 1.679 1.799" fill="none" stroke="#333" stroke-width=".32" stroke-linecap="round" stroke-linejoin="round" stroke-miterlimit="10"/><path d="M42.894 51.329c0-3.378 10.833-6.116 24.185-6.116 13.372 0 24.186 2.738 24.186 6.116 0 3.378-10.814 6.116-24.186 6.116-13.352 0-24.185-2.738-24.185-6.116z" fill="#d6e5f0" fill-rule="evenodd"/><path d="M51.289 51.529c0-1.58 7.076-2.878 15.79-2.878 8.735 0 15.79 1.299 15.79 2.878 0 1.599-7.055 2.878-15.79 2.878-8.714 0-15.79-1.28-15.79-2.878z" fill="#4783aa" fill-rule="evenodd"/><path d="M53.827 52.808c2.519-.82 7.576-1.24 13.052-1.24 5.897 0 10.534.42 13.472 1.24 1.68-.4 2.519-1.24 2.519-1.659 0-1.24-7.156-2.498-15.99-2.498-8.415 0-15.591 1.259-15.591 2.498 0 .42.86 1.26 2.538 1.659z" fill="#6fa9cf" fill-rule="evenodd"/><path clip-path="url(#a)" d="M310.912 268.777c-13.073-42.214-28.263-72.296-28.263-72.296-.42-.9-.42-2.259-.84-3.598-2.938-8.535-2.099-11.233-5.057-22.007-.84-4.497-2.518-8.534-4.637-12.112-.84-1.36-1.26-2.259-1.679-2.699-4.637-7.635-10.534-13.032-14.751-16.17-13.492-10.773-31.62-13.032-45.532-13.931l-2.539.46c-2.938 3.137-5.896 6.735-8.415 11.672h.84c13.072-1.339 29.082-.44 45.512 7.196 23.626 11.213 32.9 30.521 27.823 57.465l-.42.9c-.42 2.238 4.218 12.572 8.855 22.446 5.917 13.032 10.974 29.642 18.13 50.75 13.491 40.874 3.377 72.295-21.488 92.503v.46h-.44c-10.533 5.836-22.326 24.685-84.308 8.535-61.543-16.17-97.361-64.681-104.957-80.831-.84-1.36-1.259-2.699-1.679-3.598.42 2.698.84 6.276.84 10.334v1.339c-.84 10.334-6.336 17.51-8.855 17.969h-.42c2.519 3.578 3.798 8.515.84 13.472l-1.26 2.238c-3.797 5.837-8.434 10.774-14.77 12.133 8.854 9.874 18.129 16.61 26.563 20.648 28.243 13.911 67.04 24.705 111.713 35.478 44.693 11.213 68.298 3.138 88.526-6.736 30.781-14.83 43.834-62.422 20.668-132.02z" fill="#fbe1e5" fill-rule="evenodd"/><path d="M281.83 192.743c-2.939-8.515-2.1-11.193-5.038-21.947-.84-4.497-2.538-8.514-4.637-12.112-.84-1.34-1.26-2.239-1.679-2.679-4.637-7.615-10.514-12.992-14.731-16.13-13.452-10.773-31.56-13.012-45.432-13.911l-2.539.46c-2.938 3.137-5.876 6.715-8.415 11.652h.86c13.032-1.339 29.022-.46 45.432 7.176 23.566 11.193 32.82 30.462 27.763 57.365l-.42.9c0 .44 0 1.779.42 3.118 5.057-1.78 9.255-8.955 8.415-13.892z" fill="#c39ab2" fill-rule="evenodd"/><path d="M281.83 192.743c-2.939-8.515-2.1-11.193-5.038-21.947-.84-4.497-2.538-8.514-4.637-12.112-.84-1.34-1.26-2.239-1.679-2.679-4.637-7.615-10.514-12.992-14.731-16.13-13.452-10.773-31.56-13.012-45.432-13.911l-2.539.46c-2.938 3.137-5.876 6.715-8.415 11.652h.86c13.032-1.339 29.022-.46 45.432 7.176 23.566 11.193 32.82 30.462 27.763 57.365l-.42.9c0 .44 0 1.779.42 3.118 5.057-1.78 9.255-8.955 8.415-13.892zM79.052 323.444c2.519-.46 7.995-7.635 8.835-17.97v-1.358c0-4.038-.42-7.636-.84-10.334-5.057-9.434-7.155-11.673-19.348-19.768-15.57-10.334-29.022-51.229-28.183-69.198v-.44c2.099-9.434 12.193-17.989 25.645-21.567 12.212-3.598 28.622-3.158 39.136 8.075l.42.46c1.259 2.239 2.938 4.497 4.617 6.736 1.679-9.434 1.679-17.53-1.68-21.567-8.414-11.233-10.933-22.466-20.607-29.662-3.378-2.239-8.834-2.698-12.192-3.598-3.798-.9-11.373.46-16.41.9-5.477 0-11.374 3.597-15.151 8.095-5.477 6.736-14.731 12.132-18.09 44.033-1.259 10.793-5.896 26.964-5.896 45.832 0 52.568 10.954 62.902 20.208 85.828 6.296 16.17 14.711 26.044 23.966 23.366 6.316-1.36 10.933-6.296 14.73-12.133l1.26-2.258c5.057-8.535-2.099-16.17-5.897-19.308z" fill="#c39ab2" fill-rule="evenodd"/><path d="M83.77 194.382c1.258-1.779 2.937-3.578 2.937-5.377h-1.259c-2.938-.44-4.617-1.798-6.716-1.798-4.217 0-6.736 1.798-10.513 2.698-3.378.46-10.094 2.239-13.032 3.598 0 .44-.42.44-.42.44l-.44 1.798c5.477 12.093 23.146 7.176 29.442-1.359zm93.423-15.51c.42 0 .42 0 .82-.44-2.48-3.098-7.077-5.757-12.054-6.636-5.416-.9-10.413-.44-14.171 1.32.84 3.097 9.574 5.756 12.073 6.655 4.177 1.32 9.574 1.759 13.332-.9zm60.863-19.449c-3.678-2.678-2.439 2.659-1.62 4.877.82 2.22 3.259 7.996 5.717 7.996 3.258.44 2.859-3.558 2.039-5.777-.82-3.098-2.858-5.776-6.136-6.656zm11.733 18.369c-7.096-2.738-1.66 9.534 2.518 10.434 2.918.9 3.738-1.819 3.338-4.537-.84-3.178-2.938-4.997-5.437-6.816z" fill="#8f002b" fill-rule="evenodd"/><path d="M194.242 172.795c1.26-12.612 10.954-10.353 19.808-11.253 4.637-.46 7.576-1.36 12.213 1.36 5.477 3.137 11.373 9.434 13.911 15.73 3.378 11.253 1.68 23.845 1.68 35.098 0 9.435 3.377 16.19 5.896 24.725.86-2.238.44-6.296 2.119-7.635.84-.46 2.938-.9 3.797 0 1.26.9.42 1.34.42 3.138.84 3.598 2.518 6.296 3.358 9.894.86 4.058.86 8.115 2.119 11.713.84 4.038 3.358 9.434.84 13.032-2.1 3.598-4.218-.44-6.737 2.259-2.118 2.238-.86 5.836-1.699 8.535-.42 2.698-1.679 4.957-.84 7.655.84 3.158 2.54 3.158.42 6.756-1.259 2.239-2.938 4.037-2.938 7.196.42 2.698 1.26 5.396 1.68 8.095 0 2.698-.84 5.836-1.68 8.534-.42 2.26-3.378 6.297-6.336 5.857-2.518-.46-4.217-10.794-5.477-13.492-3.797-7.196-8.854-13.052-11.792-20.687-2.12-4.957-1.26-9.914-2.12-14.851-1.258-5.397-4.636-9.894-6.735-14.851-2.958-6.297-3.798-13.032-7.156-18.889-2.118-3.158-4.637-5.397-5.916-8.994-.84-2.26-1.26-4.957-2.099-7.196-2.099-4.497-5.896-8.095-8.435-12.153-4.217-5.396-2.518-7.195-.42-12.592.84-1.36.42-4.497 2.539-4.957 2.099-.44 3.358 2.698 5.057 4.057 1.679.9 5.057 1.34 6.316-.899 1.26-2.259-.84-5.856-2.099-7.196-2.958-4.057-8.854-6.296-10.113-11.253-.86-2.238 0-5.836.42-8.095z" fill="#b91645" fill-rule="evenodd"/><path d="M221.826 219.167c-1.26-13.452-14.312-30.022-19.369-33.6-5.057-3.138-9.674-6.715-15.99-14.35-.42 1.358-.86 3.137-.86 4.936 5.057 6.276 21.068 14.791 18.949 18.37-2.518 4.476-7.575 2.697-9.254 0 3.358 5.816 4.217 6.275 11.373 7.614 7.155 1.34 12.212 12.093 13.891 19.269 1.68 5.816 3.778 17.929 3.778 17.929s.84 3.118.42-1.36c-.84-5.376-2.099-11.192-2.938-18.808z" fill="#f3b2bc" fill-rule="evenodd"/><path d="M155.945 111.093c2.999 7.175 0 16.15-4.677 28.702-4.277 10.754-8.954 24.206-9.394 29.582 4.277-15.69 12.373-28.243 14.511-36.757 2.119-8.955 3.398-16.13-.44-21.527z" fill="#fff" fill-rule="evenodd"/><path d="m148.75 117.169 1.839 12.233" fill="none" stroke="#f4130a" stroke-width=".8" stroke-miterlimit="8"/><path d="M160.902 73.735c5.117-1.739 10.234-2.618 14.072 2.159-4.257 1.3-9.374-.86-13.632-2.159zm-10.633 45.413c.44.44.44 1.759.44 2.638.44.44.44 1.34.88 1.78 0 1.318 0 2.638.879 3.517.44-.44.44-1.759.44-2.199v-2.658c-.44-1.759-1.32-2.638-2.64-3.538zm28.043 120.107c1.679 4.497 2.518 7.655 2.938 10.793l.84 5.397c.86 2.259.86 5.857.86 9.894 0 5.857.419 12.593 2.098 16.65l2.518 7.196 2.539 6.296 2.099 5.836c2.098 5.857 4.637 13.052 7.575 17.09 2.099 2.698 3.358 5.397 4.217 7.655.84 2.239 1.68 4.038 3.358 5.397 1.68 1.799 1.68 3.138 2.1 4.497.419 1.34.859 3.138 1.698 4.498l5.457 4.937.86.9c1.678 2.258 4.197 5.396 3.357 7.654-.84 1.34 0 4.938.42 7.636-.42-2.239.42-5.837.84-7.196 1.259-3.138-1.68-6.736-3.778-8.994l-.42-.9-2.539-2.698-2.938-2.699c-.84-.899-.84-2.238-1.259-3.138-.42-1.799-.84-3.597-2.538-5.396-1.68-1.36-2.1-3.158-2.939-5.397-1.259-2.259-2.098-4.957-4.637-7.655-2.938-4.038-5.477-11.234-7.156-16.63l-2.098-5.857-2.958-6.736-2.519-6.756c-1.26-3.597-1.679-10.333-1.679-16.19 0-4.497-.42-8.095-.84-10.334l-.839-4.957c-.86-3.597-1.28-6.735-2.958-11.233-2.519-6.296-2.519-21.607-2.099-26.104-.42 5.857-2.119 20.708.42 26.544zM166.659 79.112c-4.637-1.32 19.808 0 38.757-1.32 18.528-1.318 34.119 1.32 47.59 1.32-9.673 1.32-39.156.88-50.948 1.759-12.233.88-32.44-.88-35.399-1.759zM132.24 33.32c.84-4.497.42-3.598-.84.46-.84 2.238-2.118 4.477-4.237 6.276-5.077 5.856-32.14 19.328-30.442 73.675 0-6.276.42-13.911 1.7-19.748 2.538-15.73 8.034-28.303 14.37-35.958 8.456-10.334 13.952-13.912 16.49-18.409.84-1.36 2.54-4.038 2.959-6.296zM46.352 68.798c0 10.344-.43 34.62.44 48.55.44 13.483-1.31 23.377-3.498 28.763 3.058-6.735 5.676-18.428 5.676-30.561 0-11.683-2.618-46.752-2.618-46.752zm223.065 69.118c3.777-.86 7.135-1.279 7.975-1.719-2.099 0-13.432 1.72-16.39 3.838 1.699-.42 5.476-1.28 8.415-2.119zm6.776 21.547c2.098-1.299 8.794-3.038 10.473-2.158 2.079.86 2.079 2.158 2.079 2.158-1.24-1.299-2.918-1.719-5.017-1.299-2.498 0-7.535 1.3-7.535 1.3zm-263.481-2.638c1.7-1.38 17.33-1.839 20.268-2.319H13.992c-2.959 0-2.959 3.718-3.398 6.476.44-1.379 1.699-3.697 2.118-4.157zm9.594-86.338c1.71-1.399 7.686.47 10.674.94 0 0-5.547-2.339-8.965-2.809-3.417-.939-3.847 2.339-4.707 5.137.43-1.399 2.139-3.268 2.998-3.268zM17.62 90.225c1.718-1.389 12.032-1.389 15.04-1.849 0 0-10.314-.47-13.751 0-3.438 0-3.438 3.238-3.438 6.007.43-1.38 1.719-3.698 2.148-4.158zm-9.885 88.147c1.26-1.32 16.65-1.759 19.968-2.199H8.995c-3.338.44-3.338 3.518-3.758 6.156.42-1.319 1.679-3.517 2.498-3.957zm47.392-28.822c-2.519.46-7.156 5.416-9.255 7.675-2.518 1.799-4.617 4.497-6.316 6.296-2.099 1.799-4.617 6.316-5.037 8.555-.42 2.698-2.119 6.316-2.958 10.813-.84 4.957-2.099 11.253-2.519 15.77-.42 4.498-.84 9.015-2.538 14.852 2.958-7.196 4.217-15.311 5.057-19.808.42-4.957 2.099-9.015 2.958-14.412.84-5.416 3.778-10.813 5.877-13.511 1.698-2.699 2.958-4.957 6.316-7.656 3.378-2.258 5.896-7.655 8.415-8.575zm23.186 126.803c6.775 4.937 8.894 6.715 13.551 16.99 4.238 9.833 18.21 28.622 27.943 36.657-5.077-4.917-23.285-28.163-25.824-36.658-3.378-10.274-11.433-15.63-15.67-16.99z" fill="#fff" fill-rule="evenodd"/><path d="m47.191 147.79.42-.44-.42.44zm-.42 1.34.42-1.34c-.42.44-.86 1.34-.86 1.8 0-.46 0-.46.44-.46zm45.253-55.587v-.9c-1.699-6.275-2.538-12.092-2.958-18.368-.42-4.937-.84-11.213-2.119-15.71-1.699 2.698-1.259 7.635-1.259 10.313V84.13c0 12.552-1.699 24.205-6.356 35.858-2.119 4.937-4.218 9.874-8.455 13.012-2.958 1.8-6.356 2.679-9.314 4.478-4.218 2.238-10.154 5.376-13.952 9.874 1.26-.9 2.958-1.36 4.238-1.8 2.098-.899 4.217-1.338 6.755-1.338 5.077-.46 12.693-1.8 16.51-.9 3.378.9 8.875 1.34 12.253 3.578.42.46 1.28.9 1.699 1.799.42 0 .42 0 .84.44.42.46.859.46 1.279.9 0 .459.42.459.42.899.42.44.839.899 1.259 1.339 0 0 .42 0 .42.46.44.44.859 1.339 1.698 1.778l.84-1.779c-1.68-5.376-2.958-32.74-3.798-59.184zM36.638 71.117c1.669 5.806.42 15.17-2.509 20.527-3.358 6.247-11.313 7.586-16.34 10.704 4.607 1.34 22.197 4.907 23.876-.44.83-3.568 0-14.281-.42-18.299 0-2.668.42-9.364-1.26-11.153z" fill="#82b3d5" fill-rule="evenodd"/><path d="M93.883 183.629c1.68.9 5.457 2.238 6.296 3.578 1.26 1.339 3.378 1.798 4.637 3.138 1.26 1.799 2.519 3.577 3.778 5.376 1.68-.9 1.26-4.937 1.68-6.276 0-2.678.419-5.377-.42-8.055-.84-4.037-4.198-6.736-5.877-10.314-1.679-2.678-3.378-5.376-4.637-8.055-1.68-2.698-2.519-5.836-4.617-8.515-1.68-1.799-3.798-4.037-5.477-5.816-1.68-1.799-4.617-4.497-7.156-3.598 2.539 1.36 4.637 4.937 6.736 7.615 2.099 2.699 3.358 8.076 1.68 11.653-1.26 3.578-6.297 4.937-9.255 5.817-4.198 1.799-8.415 2.239-12.613 3.598-8.414 2.678-18.089 6.256-23.985 13.432-3.778 4.937-6.316 11.652-5.877 17.909 0-2.239 1.26-3.578 2.1-4.917 1.678-2.699 3.357-5.377 5.456-7.616 3.798-3.138 8.415-5.376 12.632-7.615 4.617-2.698 10.934-3.578 15.99-4.477h6.297c1.259 0 2.518.44 3.797.44 1.68 0 3.358.899 4.618.899z" fill="#ad7698" fill-rule="evenodd"/><path d="M88.227 305.635v-5.857c-.42-2.238-.42-4.037-1.26-6.296-2.958-6.276-5.077-9.434-10.154-13.032-1.699-1.34-3.817-2.239-5.516-3.138-2.539-1.799-6.776-3.158-8.475-5.857l.44-.899c-4.658-5.377-9.315-13.032-13.132-22.027 1.259 5.397 2.958 9.894 5.496 14.392 3.398 7.195 7.636 14.39 12.293 20.227 5.916 7.196 8.035 19.329 3.378 27.864-1.7 3.158-5.917 5.396-5.497 9.454.42 4.037 2.539 8.095 1.68 13.032-1.68 7.196-14.812 12.592-20.748 8.095 5.097 7.635 10.593 11.673 16.95 9.894 6.356-1.36 11.013-6.296 14.81-12.153l1.28-2.238c2.958-4.957 1.699-9.894-.86-13.492h.44c2.538-.44 8.035-7.635 8.875-17.97z" fill="#b785a3" fill-rule="evenodd"/><path d="M48.13 333.738c-2.118-3.158-2.538-7.216-4.217-11.273-1.699-3.598-3.817-6.297-5.916-9.455-3.818-5.416-7.615-11.273-10.154-17.13-1.26-2.238-2.958-5.396-4.217-8.554 4.217 17.13 10.553 26.584 16.05 40.555 3.378 7.656 6.776 13.972 10.574 18.47 4.217.439 8.454 0 10.553-3.159-5.916-.9-9.294-4.058-12.672-9.454zM22.347 280.57v-.46.46z" fill="#b785a3" fill-rule="evenodd"/><path d="M219.907 126.843c-3.338-.44-6.276-.88-9.634-.88l-2.519.44c-2.938 3.059-5.876 6.536-8.395 11.314h.84c.84-.42 1.679-.42 2.518-.42.84-1.32 1.26-3.058 2.099-3.918 2.938-3.917 7.555-5.656 12.172-6.536h2.919zm61.923 65.9c-2.959-8.515-2.12-11.213-5.078-21.966-.84-4.478-2.538-8.515-4.657-12.093-.84-1.36-1.28-2.259-1.699-2.699-4.657-7.615-10.573-13.012-14.81-16.15-2.96-2.238-6.777-4.477-10.175-6.276 2.119 2.259 4.238 4.497 6.356 6.736 2.539 3.578 5.077 8.515 6.776 13.452 13.972 11.653 19.049 27.783 14.811 48.87l-.42.88c0 .46 0 1.799.42 3.138 5.097-1.78 9.315-8.955 8.475-13.892z" fill="#ad7698" fill-rule="evenodd"/><path d="M13.152 169.217c2.938.44 5.856 0 8.775 0 2.498 0 5.436.88 7.515 0 3.758-.879 5.857-11.553 6.256-15.11-1.659.46-3.757 4.897-4.997 6.676-2.098 3.557-3.757 4.877-7.515 5.316-4.178.46-9.614 2.679-13.792 0zm-7.755 22.167c.42 1.799 6.296 1.799 8.415 2.259 2.518.44 5.876.44 8.415 0 3.357-.9 2.938-3.598 3.357-6.756.84-3.158 2.519-6.756 2.519-9.914-4.617 3.158-3.778 10.373-10.094 11.713-2.518.46-13.032 2.698-13.891-.9zm105.756-4.497c-.86 6.716 6.756 14.331 12.252 16.57 2.119 1.339 5.497 3.138 8.035 2.238 2.1-.46 2.519-2.698 3.798-4.477.84 1.779 1.679 11.633 0 12.972-.42.44-3.378.44-4.237.44-2.1 0-2.959-.88-4.638-1.779-6.336-4.038-12.252-8.955-16.07-15.21z" fill="#e82113" fill-rule="evenodd"/><path d="M94.303 135.478c0 6.296 3.398 11.693 5.517 17.09 2.118 4.477 3.397 8.974 6.775 12.572 4.258 4.937 7.636 10.334 8.915 17.07.84 4.037 1.26 12.572-.86 15.71-2.538-.88-2.958-1.34-3.797-4.477-.44-3.158 0-6.296 0-9.435-.44-4.497-1.7-6.735-4.677-9.894-2.539-3.577-4.238-7.175-6.776-11.233-.84-1.779-2.119-3.578-2.958-5.836-.86-4.038-.44-8.075-1.7-12.133zm122.506-10.314c2.558 0 7.675-3.538 11.093-4.417 2.978-.9 6.796-3.558 1.699-5.317-4.697-.9-17.05 3.978-19.608 8.415z" fill="#e82113" fill-rule="evenodd"/><path d="M223.165 121.007c-1.72 2.638 1.279 3.058 1.699 4.817-1.7.86-5.117-.88-7.276-.88zm37.037 23.306c2.559-.44 3.398 1.778 5.517 2.238 2.538 1.32 4.657.44 7.196 0 5.496-1.799 6.356-2.678 8.474-8.035 1.68 8.475-6.775 10.254-11.433 15.59-1.699-1.778-3.398-4.896-5.077-6.675zm17.39 23.965c.4 5.856 2.079 11.253 2.079 17.09 1.239-4.937 2.918-9.894 6.256-14.392 2.918-3.597 6.656-4.937 3.737-10.793 1.26 4.497-2.078 6.756-5.836 6.756-4.577.44-4.577-3.598-8.755-4.497zM165.98 70.437c4.637 0 5.056 1.36 9.274 3.618 3.358 1.799 7.575.9 11.793.9 7.995-.46 16.01-.46 24.005-.46h11.813c5.037-.44 4.197-3.138 2.518-7.656-2.518-6.755-7.155-17.11-12.632-21.626.42 7.215 10.114 14.87.84 20.727-6.736 4.058-15.591 1.36-22.747-.44-7.595-1.819-16.01-4.057-23.605-1.359-5.057 2.259-13.892 6.756-14.332 13.052zm21.566-62.022c3.818 2.718 2.979 8.615 1.7 12.692-1.7 3.158-1.28 2.259-4.678 1.36-2.558-.46-5.117 0-7.675-.46 4.697-3.178 11.933-6.336 8.954-14.052zM165.48 4.617c8.375-.9 7.555 14.571-.42 15.89 4.617-6.615 1.679-9.274.84-16.33zm-29.502 6.996c5.516-1.819 4.257 9.954 9.334 12.213-1.68.44-4.657-.46-6.776-.46-.42-5.877.42-8.135-4.257-12.213zm63.621 397.519c3.778.9 7.975 3.618 10.913 7.236.86 1.359 1.7 3.158 3.378 4.077 1.26.44 4.618 0 5.877 0 5.057 0 17.65 1.34 17.23-5.896-5.877-.44-11.754-1.34-17.65-2.259-7.136-1.36-15.55-4.977-22.706-4.517z" fill="#e82113" fill-rule="evenodd"/><path d="M280.23 202.038c-5.876 6.296-5.876 7.195-2.099 14.87 2.919 4.938 6.696 11.693 8.375 17.55.4-7.655-3.777-15.31-3.777-23.406.42-4.957 1.259-8.575-1.26-13.532zM88.866 303.716c.84 6.736-4.177 11.693-5.856 17.53-1.26 4.057 0 9.893-2.499 15.75-.84 3.138-2.518 6.296-4.617 8.994-2.498 2.699-6.696 2.699-6.276 6.296.42 6.297 14.65 12.593 18.828 13.932-9.614-9.894-7.095-16.63-1.239-27.423 1.24-2.699 2.918-10.794 5.437-12.153 2.918-1.799 10.873 2.259 14.211 2.698-.82-10.333-17.989-17.989-17.989-27.883z" fill="#f5bdc5" fill-rule="evenodd"/><path d="M270.956 406.893c9.694-4.037 18.948-7.175 26.963-14.81 7.576-7.196 13.912-17.97 17.27-27.844 6.316-19.308 6.736-49.39-2.099-72.296 2.519 10.334 3.798 32.78 2.938 43.114-1.259 14.371-5.896 21.107-11.373 34.12-6.736 15.27-19.788 26.943-34.958 33.679-8.855 3.578-13.492 4.477-22.347 4.477-3.778 0-11.373 2.698-16.01 2.698 8.015.9 25.284 2.24 32.02-2.238z" fill="#f6c7cd" fill-rule="evenodd"/><path d="M134.598 353.985c12.673 9.475 64.142 41.895 117.29 31.541-17.71 5.857-72.976 10.354-117.29-31.54z" fill="#fef8f8" fill-rule="evenodd"/><path d="M190.245 152.588c13.072-52.928 48.07-35.879 74.195-35.419" fill="none" stroke="#fff" stroke-width=".8" stroke-linecap="round" stroke-linejoin="round" stroke-miterlimit="10"/><path d="M185.288 175.054c1.279-8.515 2.958-15.23 5.476-23.306 16.81-52.488 52.948-34.1 74.795-35.438" fill="none" stroke="#4793c3" stroke-width=".8" stroke-miterlimit="8"/><path d="m39.856 203.597 6.076 2.318m52.528-12.232 3.038-5.277" fill="none" stroke="#333" stroke-width=".32" stroke-linecap="round" stroke-linejoin="round" stroke-miterlimit="10"/><path d="M221.826 219.167c-1.26-13.452-14.312-30.022-19.369-33.6-5.057-3.138-9.674-6.715-15.99-14.35-.42 1.358-.86 3.137-.86 4.936 5.057 6.276 21.068 14.791 18.949 18.37-2.518 4.476-7.575 2.697-9.254 0 3.358 5.816 4.217 6.275 11.373 7.614 7.155 1.34 12.212 12.093 13.891 19.269 1.68 5.816 3.778 17.929 3.778 17.929s.84 3.118.42-1.36c-.84-5.376-2.099-11.192-2.938-18.808" fill="none" stroke="#333" stroke-width=".16" stroke-linecap="round" stroke-linejoin="round" stroke-miterlimit="10"/><path clip-path="url(#a)" d="M25.804 194.082c.86-8.494 2.12-14.77 3.818-19.688-8.075-.46-19.968 0-22.946.44-3.838.46-6.396 16.57 1.699 18.369 4.237.88 10.633.88 17.43.88" fill="none" stroke="#333" stroke-width=".32" stroke-linecap="round" stroke-linejoin="round" stroke-miterlimit="10"/><path d="M41.775 71.077c-8.875-1.789-16.06-4.018-19.019-4.917-6.346.45-9.304 11.613-4.647 16.08 4.227 1.34 15.21 4.028 15.21 4.028-6.335 0-13.101.44-16.48.44-5.076 1.788-5.926 16.08 1.69 17.419 6.766.45 16.06.89 23.246.89v-33.94m1.119-19.748c0-3.378 10.833-6.116 24.185-6.116 13.372 0 24.186 2.738 24.186 6.116 0 3.378-10.814 6.116-24.186 6.116-13.352 0-24.185-2.738-24.185-6.116m126.723-31.221c.86 0 2.559-1.32 3.838-2.639m-36.398 184.209c-.86-16.59 2.099-37.238 9.654-55.647 3.358-7.635 5.037-13.012 5.877-17.05 0 0 0 0 0 0s0 0 0 0c1.679-6.295.42-8.994-1.68-10.333l-.839-.44c-5.876-27.383 2.099-40.395 10.514-44.453l.42.46c3.357 1.34 7.975 1.799 14.27 2.239 0 0 0 0 0 0 5.038 0 11.354-.44 18.49-.9 21.846-1.799 53.347.46 73.935.46 5.456 1.799 5.037 17.95-.42 18.849-9.654.899-21.847 2.698-21.847 2.698 17.23.9 21.847 1.779 21.847 1.779 4.617 1.359 3.778 15.71-1.679 17.07-21.847 1.339-57.125-14.812-73.515 38.596-2.519 8.075-5.457 14.811-6.716 23.346" fill="none" stroke="#333" stroke-width=".32" stroke-linecap="round" stroke-linejoin="round" stroke-miterlimit="10"/><path d="M160.942 74.255c3.398 1.34 8.076 1.779 14.432 2.219l-1.7-1.78c-2.118-2.678-7.635-3.577-13.171-.899l.44.46zm49.231 51.549c6.716.46 13.871 1.379 21.427 3.198.42-4.577.84-9.155 1.259-13.752-8.815.46-17.23 3.218-24.385 10.554h1.699zM79.052 323.444c2.519-.46 7.995-7.635 8.835-17.97v-1.358c0-4.038-.42-7.636-.84-10.334 0 0 0 0 0 0-5.057-9.434-7.155-11.673-19.348-19.768-15.57-10.334-29.022-51.229-28.183-69.198v-.44c2.099-9.434 12.193-17.989 25.645-21.567 12.212-3.598 28.622-3.158 39.136 8.075l.42.46c1.259 2.239 2.938 4.497 4.617 6.736 1.679-9.434 1.679-17.53-1.68-21.567-8.414-11.233-10.933-22.466-20.607-29.662-3.378-2.239-8.834-2.698-12.192-3.598-3.798-.9-11.373.46-16.41.9-5.477 0-11.374 3.597-15.151 8.095-5.477 6.736-14.731 12.132-18.09 44.033-1.259 10.793-5.896 26.964-5.896 45.832 0 52.568 10.954 62.902 20.208 85.828 6.296 16.17 14.711 26.044 23.966 23.366 6.316-1.36 10.933-6.296 14.73-12.133l1.26-2.258c5.057-8.535-2.099-16.17-5.897-19.308" fill="none" stroke="#333" stroke-width=".32" stroke-linecap="round" stroke-linejoin="round" stroke-miterlimit="10"/><path d="M63.921 351.327h-.44c-9.274 2.698-17.289-6.736-23.625-22.446 1.699 9.434 2.958 19.308 2.958 26.923 0 27.824.42 39.037.84 56.546 0 0 0 0 0 0v.44c0 3.598 11.393 6.276 25.744 6.276 13.931 0 25.305-2.678 25.305-6.276v-.44s0 0 0 0v-38.137c-1.26-.46-2.939-1.359-4.638-2.258-8.434-4.038-17.709-10.754-26.144-20.628" fill="none" stroke="#333" stroke-width=".32" stroke-linecap="round" stroke-linejoin="bevel" stroke-miterlimit="10"/><path clip-path="url(#a)" d="M199.56 31.78c-1.68-.899-7.157-4.956-7.576-6.295-.84-.9-1.26-3.598.84-9.455 2.098-7.195-9.275-14.391-13.912-6.736-1.26 2.239-2.1 3.598-5.477 8.095 0 0 .44-10.353-.84-11.692-3.777-5.417-11.373-4.058-13.891-.9-2.119 2.698-.42 16.63-10.954 17.53-5.476-.44-4.637-6.736-4.637-10.794.42-3.598-13.911-4.038-15.17 4.058-.42 4.937-.84 9.894-2.519 14.39-.42 1.34-2.119 4.058-2.538 4.498-28.223 23.846-30.742 40.036-30.742 67.48 0 11.252-1.28 34.198 3.778 54.886v.44c3.798 5.856 6.756 12.612 11.813 19.348 3.358 4.057 3.358 12.153 1.679 21.607-.42-.46-.84-.9-1.26-1.36 9.255 11.254 22.747 21.588 27.804 18.89.42 0 .42-.44.84-.44v-20.248c0-15.291 3.357-33.28 9.693-49.03 3.358-7.656 5.037-13.053 5.897-17.09 0 0 0 0 0 0s0 0 0 0c1.679-6.316.42-9.015-1.7-10.354l-.839-.46c-5.896-27.443 2.119-40.475 10.534-44.533l.42.46c3.377 1.34 8.015 1.799 14.33 2.239 0 0 0 0 0 0 5.058 0 11.374-.44 18.53-.9 10.533-.9 22.746-.9 34.958-.44-4.617-18.009-14.31-33.3-29.062-43.193" fill="none" stroke="#333" stroke-width=".32" stroke-linecap="round" stroke-linejoin="round" stroke-miterlimit="10"/><path d="M31.86 167.858c3.818-8.515 8.056-12.092 11.454-15.69 3.797-4.478 9.734-8.055 15.25-8.055 5.077-.46 12.693-1.8 16.51-.9 3.398.9 8.895 1.34 12.293 3.578.42.46 1.26.9 1.679 1.799.44 0 .44 0 .86.44.42.46.839.46 1.259.9 0 .459.44.459.44.899.42.46.839.899 1.259 1.339 0 0 .42 0 .42.46.44.44.859 1.339 1.698 1.798l.84-1.798c-2.539-7.176-3.798-56.486-4.218-86.088-.44-8.975-.44-10.754-.44-14.352-1.678 3.138-11.852 5.377-24.145 5.377-13.132 0-24.145-2.678-24.145-6.276 0 0 0 .9-.42 1.36-.42 4.476-.42 5.376-.84 12.551-.419 16.59 0 38.557.42 56.486.42 13.012-2.958 29.143-10.173 46.172m169.837 239.655c-5.877-1.34-11.333-2.678-16.81-4.038v15.651c2.538 2.678 13.032 4.897 26.064 4.897 12.193 0 22.686-2.219 25.625-4.457.42-.44.84-1.34.84-1.34v-5.356c-10.075 0-21.848-1.8-35.72-5.357m-49.309-278.511s0 0 0 0c1.639-6.276.4-8.955-1.66-10.294l-.839-.46c-.42-1.799.84 4.937 2.499 10.754" fill="none" stroke="#333" stroke-width=".32" stroke-linecap="round" stroke-linejoin="round" stroke-miterlimit="10"/><path d="M152.508 114.53c1.139 1.8 1.519 8.495.38 12.953" fill="none" stroke="#333" stroke-width=".32" stroke-linecap="round" stroke-linejoin="round" stroke-miterlimit="10"/><path d="M247.33 177.472c2.499-.899 5.837 2.22 7.496 6.636.42.9.42 2.22.42 3.099 0-1.32.4-2.2 0-4.418-1.68-4.877-4.998-6.216-7.916-5.317zm-9.914-18.009c1.28.46 2.539 1.82 3.798 3.158 2.119 2.26 3.378 4.518 3.798 6.756-.42-2.238-.84-5.396-2.939-7.655-1.279-1.34-2.958-1.799-4.657-2.259z" fill="#fff" fill-rule="evenodd"/><path d="M11.413 152.647c-4.217 2.28-4.657 15.97 1.28 17.35 3.377.9 11.412.9 18.168.9.42-.9.84-1.82 1.28-2.739 0 0 0 0 0 0 2.098-5.457 3.797-10.933 5.476-15.97-9.714 0-21.547 0-26.204.46m274.953 2.378c-3.358-.44-5.876 0-14.29 3.578 2.098 3.578 3.777 7.595 4.616 12.073 2.939 10.713 2.099 13.411 5.057 21.886 0 0 0 0 0 0-2.118-9.374 4.198-19.208 8.835-22.346 5.037-3.118.84-14.751-4.218-15.191zm-7.155-21.467s-14.711.46-23.566 6.276c4.218 3.118 10.114 8.475 14.731 16.09 1.7-2.238 5.897-4.477 12.213-8.055 2.518-2.678 2.518-11.613-3.378-14.31z" fill="none" stroke="#333" stroke-width=".32" stroke-linecap="round" stroke-linejoin="round" stroke-miterlimit="10"/><path clip-path="url(#a)" d="M310.912 268.777c-13.073-42.214-28.263-72.296-28.263-72.296-.42-.9-.42-2.259-.84-3.598 0 0 0 0 0 0-2.938-8.535-2.099-11.233-5.057-22.007-.84-4.497-2.518-8.534-4.637-12.112-.84-1.36-1.26-2.259-1.679-2.699-4.637-7.635-10.534-13.032-14.751-16.17-13.492-10.773-31.62-13.032-45.532-13.931l-2.539.46c-2.938 3.137-5.896 6.735-8.415 11.672h.84c13.072-1.339 29.082-.44 45.512 7.196 23.626 11.213 32.9 30.521 27.823 57.465l-.42.9c-.42 2.238 4.218 12.572 8.855 22.446 5.917 13.032 10.974 29.642 18.13 50.75 13.491 40.874 3.377 72.295-21.488 92.503v.46h-.44c-10.533 5.836-22.326 24.685-84.308 8.535-61.543-16.17-97.361-64.681-104.957-80.831-.84-1.36-1.259-2.699-1.679-3.598 0 0 0 0 0 0 .42 2.698.84 6.276.84 10.334v1.339c-.84 10.334-6.336 17.51-8.855 17.969h-.42c2.519 3.578 3.798 8.515.84 13.472l-1.26 2.238c-3.797 5.837-8.434 10.774-14.77 12.133 8.854 9.874 18.129 16.61 26.563 20.648 28.243 13.911 67.04 24.705 111.713 35.478 44.693 11.213 68.298 3.138 88.526-6.736 30.781-14.83 43.834-62.422 20.668-132.02" fill="none" stroke="#333" stroke-width=".32" stroke-linecap="round" stroke-linejoin="round" stroke-miterlimit="10"/><path d="M281.83 192.743s0 0 0 0c-2.939-8.515-2.1-11.193-5.038-21.947-.84-4.497-2.538-8.514-4.637-12.112-.84-1.34-1.26-2.239-1.679-2.679-4.637-7.615-10.514-12.992-14.731-16.13-13.452-10.773-31.56-13.012-45.432-13.911l-2.539.46c-2.938 3.137-5.876 6.715-8.415 11.652h.86c13.032-1.339 29.022-.46 45.432 7.176 23.566 11.193 32.82 30.462 27.763 57.365l-.42.9c0 .44 0 1.779.42 3.118 5.057-1.78 9.255-8.955 8.415-13.892" fill="none" stroke="#333" stroke-width=".32" stroke-linecap="round" stroke-linejoin="round" stroke-miterlimit="10"/><path d="M51.289 51.529c0-1.58 7.076-2.878 15.79-2.878 8.735 0 15.79 1.299 15.79 2.878 0 1.599-7.055 2.878-15.79 2.878-8.714 0-15.79-1.28-15.79-2.878" fill="none" stroke="#fff" stroke-width=".32" stroke-linecap="round" stroke-linejoin="round" stroke-miterlimit="10"/><path d="M58.884 201.218c3.838 3.178 17.87 3.178 25.505-6.336-2.539 4.077-14.012 14.471-25.505 6.336zm96.342-25.045c2.538 2.219 11.773 5.757 19.748 3.998-5.037 1.759-14.271 1.759-19.748-3.998z" fill="#fff" fill-rule="evenodd"/><path d="M176.433 209.653c.42 7.196-2.099 23.366.42 29.662 2.938 6.736 2.938 10.793 4.197 16.17 1.26 5.397 0 20.228 2.539 26.524 2.518 6.736 3.358 9.894 5.456 13.492 1.68 3.578 5.057 17.07 9.255 22.466 4.637 5.837 4.637 10.334 7.575 13.032 2.938 3.138 1.68 6.297 3.778 8.975 2.538 2.698 3.798 3.158 5.477 4.957 1.679 2.239 5.456 6.296 4.197 9.434-1.26 3.138 2.099 10.794 0 11.693-2.099.88-1.679-1.359-5.876-2.698-4.638-1.36-8.835-4.058-10.934-3.158-2.118.9-8.415-1.8-7.995-4.498.42-3.138-1.679-4.477-1.679-4.477s-3.798-2.698-5.477-2.698c-1.259 0-2.938-1.36-5.476-.46-2.519.9-4.198 4.038-5.877 3.598-1.259-.44-2.938-.9-4.217-2.698-1.26-1.8 0-3.598-2.938-5.397-3.358-2.239 0-5.837-5.037-4.937-4.637.9-4.218 4.037-7.995-.46-4.218-4.477-4.218-7.176-5.477-8.535-1.26-1.339 0-4.497-2.099-6.276-2.099-1.799-2.099-5.397-4.617-5.397-2.958 0-6.736-.46-6.736-.46s.42 0-3.798-1.339c-4.617-1.799-2.518 3.138-4.617-1.799-2.099-5.396-.84-10.333-4.197-10.333-3.378 0-6.736.44-6.736.44l-4.637-1.8s-.42-2.238-1.68-4.497c-1.259-2.238.42-3.138-1.678-6.736-2.519-3.138-2.519-4.497-5.477-6.736-2.938-2.258-2.519-5.396-3.778-6.735-1.259-1.36-.84-2.699-2.099-4.957-.839-1.34-5.896-5.377-7.155-8.535-.84-2.239 1.679-4.498 4.637-4.038 9.674.44 18.929 8.535 26.904 12.573 0 0-6.716-7.176-19.768-14.831-14.711-8.535-21.028 4.497-25.225 4.057-3.378.44-3.798-.46-6.316-.9-2.519-.46-2.519-3.597-4.617-4.497-2.12-.9-2.539-1.799-5.477-5.396-2.519-3.138-4.617-7.196-6.316-10.334-1.68-3.138-.42-2.239-1.26-4.937-.839-2.259-.42-2.259-2.518-4.957-1.679-2.698-2.518-2.698-2.518-6.276 0-3.598 1.259-2.699-.84-5.397-2.119-3.158-.84-4.957-.84-7.655 0-2.679-.839-4.038-.839-7.176 1.68-4.497 5.037-8.535 9.234-11.233 2.539-1.36 9.675-2.699 13.053-3.598 3.777-.9 6.296-2.698 10.513-2.698 2.099 0 3.778 1.339 6.736 1.798 3.358.44 7.136.44 8.815 1.34 8.415 3.158 9.254 14.39 14.73 20.227 1.26 1.8 2.94 2.239 4.198 4.498 1.28 1.799 1.28 4.037 2.959 5.836 2.098 2.698 10.093 2.698 9.254 7.196 1.26 4.937-2.119 11.673 1.26 21.127 3.357 9.874 9.254 13.472 9.254 13.472-3.378-11.233-9.255-17.07-4.638-24.265 5.057-6.736 3.378-5.837 5.057-9.894l-.42.899c0-1.34 0-4.477.84-5.837 1.26-1.798 3.778-1.339 4.617-3.138 2.119-3.597 0-6.756 3.378-9.894l-.42.46c5.037-2.698 13.033-10.793 13.033-15.29-3.358 6.735-7.996 7.195-10.094 4.936-1.26-.44.42-3.138.42-3.138-.84-1.339 1.259-2.698.839-3.598-.42-1.339-.42-3.138-.84-5.396.84-5.837 1.68-12.573 2.519-15.271 3.798-2.259 9.674-3.158 15.57-1.799 5.457.9 9.675 3.598 12.613 7.196-.42 2.698-.84 6.276-1.26 10.773-.839.9 1.26 3.598.42 5.397-1.259 2.259.42 2.259 0 6.296-.84 4.038.84 3.598-1.679 3.138-4.217 0-7.575-1.339-9.254-7.635-.42 6.296 2.938 11.233 9.674 13.032" fill="none" stroke="#333" stroke-width=".16" stroke-linecap="round" stroke-linejoin="round" stroke-miterlimit="10"/><path d="M300.058 276.712c-7.175-21.107-12.232-37.717-18.129-50.749-4.637-9.874-9.274-20.208-8.854-22.446l.42-.9c5.056-26.943-4.218-46.252-27.804-57.485-16.87-7.635-33.72-8.535-46.372-7.176h-.42a88.872 88.872 0 0 0-5.896 14.372c2.958-.9 6.736-1.36 8.015-1.36 2.099 0 6.316-.899 8.415-1.339 2.539-.44 5.477.44 8.015.44 2.519 0 3.378 1.36 4.637 1.36 1.68 0 4.218 1.338 5.477 1.798 1.26 0 5.897 0 8.855.9 2.518.899 4.217 2.238 6.736 2.238 2.538 0 3.378 2.239 6.316 4.038 2.958 1.799 2.958 4.497 4.637 5.836 1.699.9 6.756 12.573 6.756 15.73 0 3.579 1.26 4.038.84 7.176-.42 3.138 0 9.874-10.114 17.97-10.114 7.635-6.756 26.483-1.7 35.018-6.316-16.61 1.7-26.044 2.959-26.484 1.259-.46 2.958-1.799 4.217-1.799 1.68 0 3.798 2.239 3.798 2.239s.84 3.598 1.679 5.837c.84 2.698-.42 13.471 0 16.17.42 2.698-1.26 5.836.84 8.535 2.118 2.238-.42 3.597.42 5.376.859 1.8.859 4.058.859 6.296 0 2.24-1.7 4.937 1.259 9.874 3.358 4.937-.42 4.038.42 7.636.84 3.138-1.26 3.598-1.26 3.598s-2.958 1.799-5.057-.9c-2.118-2.238-2.958 3.138-3.378 5.397-.42 2.239 1.68 2.239 5.897 6.276 4.217 3.598.84 1.799 2.538 6.296 1.68 4.478 1.68 4.038 2.1 7.636.419 4.037-.42 3.578-1.26 4.937-.84 1.339-1.26 1.799-2.958-.46-1.68-2.239-.42-4.477-2.939-7.176-2.958-3.138-1.699 1.8-3.378 4.478-1.259 3.158 1.68 5.856 3.378 11.693 1.68 5.376.42 5.376.84 9.874.42 4.037-1.28 5.396-2.539 8.534-1.679 3.138-3.358 4.038-7.155 4.937-4.218.44-10.954-1.799-12.233-5.836-1.26-4.038-1.26-.9-5.057-6.736-3.358-6.296-4.217-4.038-5.896-9.874-1.68-5.397-2.958-12.133-6.736-16.63-3.378-4.937-2.958-5.377-4.218-9.874-1.259-4.038-1.698-6.296-5.056-13.472-3.798-6.736-2.539-6.296-3.798-12.132-1.26-5.377-9.694-15.71-10.114-21.547-.42-6.297-2.958-4.038-4.637-12.133-1.68-8.515-10.114-13.472-9.275-23.346 5.897-2.239 9.275-6.736 9.275-14.371-.84 6.736-4.218 8.535-9.275 8.994v-.46c-.42-9.434.42-20.647 1.26-25.144 0-.9 0-1.799-.84-2.239-3.378-5.396-9.694-9.434-17.27-10.793-8.015-1.8-16.03-.44-21.087 3.158-.42.44-.84.9-1.259 1.34-1.26 2.238-1.26 8.974-2.518 19.767-.86 8.515-.42 22.446-6.336 26.044-5.897 3.138-23.166-11.233-31.182-24.265l-.42-.44c-10.533-11.233-26.983-11.673-39.196-8.075-13.491 3.578-23.605 12.113-25.704 21.547v.44c-.86 17.969 12.632 58.844 28.223 69.158 13.911 8.994 14.751 10.793 21.087 23.366 7.576 16.15 43.414 64.66 104.937 80.83 61.962 16.151 73.755-2.698 84.288-8.534h.42v-.46c24.865-20.208 34.979-51.628 21.507-92.504" fill="none" stroke="#333" stroke-width=".16" stroke-linecap="round" stroke-linejoin="round" stroke-miterlimit="10"/><path d="M184.488 176.233c-3.358-5.397-9.654-9.454-17.21-10.793-7.975-1.82-15.95-.46-20.987 3.138-.42.46-.84.9-1.259 1.359-1.26 2.239-1.26 8.995-2.518 19.788-.84 8.555-.42 22.506-6.317 26.104" fill="none" stroke="#333" stroke-width=".32" stroke-linecap="round" stroke-linejoin="round" stroke-miterlimit="10"/></svg>