<svg xmlns="http://www.w3.org/2000/svg" version="1.0" viewBox="0 0 302.022 416.542"><defs><clipPath clipPathUnits="userSpaceOnUse" id="a"><path d="M1.999 1.679h301.657v416.867H1.999z"/></clipPath></defs><path d="M170.737 140.795c-5.397 1.319-11.234 3.997-15.391 7.955-4.158 3.558-8.315 10.234-9.994 15.55-2.519 7.116.84 16.43 1.24 23.986 1.238 13.752 6.235 25.265 16.669 33.7 6.676 4.877 16.23 6.675 23.746 8.434 3.318.88 5.396.44 8.315 1.32 4.597 1.798 9.594 2.678 13.312 4.917 2.078.879 3.358 3.078 4.997 3.957 1.679.92 2.918.92 4.597 1.36 2.918 1.319 4.597 3.557 7.915 4.437 9.994 3.078 7.475-16.87 10.833-22.627 3.318-5.796 9.155-10.233 10.834-17.31.4-1.798.8-6.235.4-7.994-.84-3.558-5.397-6.237-7.916-9.315-2.478-3.118-5.396-6.236-8.315-9.314-3.358-4.437-.44-2.678 2.919-4.917 5.836-3.518 4.997-18.629 2.918-24.385-3.758-8.435-11.673-10.674-19.588-7.995z" fill="#ab0034" fill-rule="evenodd"/><path d="M221.906 185.568c-8.795-2.679-7.956 12.872-3.358 19.108 5.436 7.515 12.992 11.953 18.428 2.199 1.64-3.998-7.955-19.069-15.07-21.307z" fill="#8f002b" fill-rule="evenodd"/><path d="M248.61 207.834c-3.319 2.239-6.237 4.917-9.155 7.995-2.079 2.679-4.158 5.357-4.997 8.915-.84 3.518-.4 7.515-1.24 11.513-1.239 3.997-3.357 10.234-7.075 9.794-2.079-.44-3.758-1.799-6.276-1.32-2.079 0-4.557.88-6.636.88-5.437-.44-9.195-3.997-14.991-3.558-2.119 0-4.198.44-6.276.44-2.479-.44-4.997-.44-7.476-.44-1.679 0-5.836-1.799-7.076-1.319-4.197 1.759-6.675 11.513-9.993 14.631-3.358 3.118-7.916 6.676-11.673 8.875-2.08 1.359-4.598 1.799-6.277 3.558 7.116 6.676 12.113 14.231 17.95 22.666 11.233 17.31 21.227 35.498 32.46 52.848 6.276 9.314 9.994 19.988 15.83 29.742 1.68 3.118 3.758 6.236 5.837 9.314 2.918 3.998 7.515 6.236 12.072 8.435 13.352 8.435 27.104 6.236 35.819-7.515 1.679-3.118 4.197-4.917 5.836-7.556 3.358-4.437 4.997-10.234 6.276-15.11 2.879-9.755 2.479-21.747 2.479-31.541 0-10.194-.84-19.988-2.079-30.182-.84-7.116-1.24-14.232-3.318-21.307-3.758-12.433-9.194-23.986-14.591-35.539-1.679-3.558-3.758-7.115-5.836-10.673-1.68-3.118-.84-4.438-1.24-7.556z" fill="#690a24" fill-rule="evenodd"/><path d="M237.736 271.755c1.679 1.76 3.318 2.199 4.157 4.877.84 1.76 1.68 4.438.84 6.237-.4 2.198-2.079 2.198-2.519 3.557-.4 1.76 2.12 2.639 3.358 3.518 2.919 2.239 6.277 3.558 10.034 4.917 1.64.88 7.916 3.078 9.155.44-1.24-1.36-4.557-4.877-4.557-6.676-.44-1.759 2.078-3.998 2.478-5.317 2.079-4.437.84-7.555.84-11.992.44-4.438-1.68-7.556-3.758-10.674-.84-1.32-2.079-3.118-2.918-4.437-.84-2.239.4-3.558 0-5.357-.84 1.799-2.08 3.558-2.519 5.796 0 2.679 1.68 5.317-1.24 6.676-2.518.88-5.836-.919-7.914-1.359-5.437 0-6.716 3.558-4.198 8.915zm-17.869 38.657c-2.918-3.118-2.479 4.037-1.24 5.357 1.68 1.799 4.997 3.997 4.558 6.236-2.879.44-.8 4.877-1.24 6.676-1.639-.88-2.478.88-2.478 2.238-.44 3.558 3.718 6.197 6.636 3.998 3.318-3.118 2.918-9.794 2.918-13.792 0-4.477-2.478-7.155-4.997-10.233z" fill="#ad3652" fill-rule="evenodd"/><path d="M237.776 333.478c-1.68 2.199-5.837 3.118-8.355 3.558-2.918.88-5.437.88-6.276 4.437-.84 3.118.44 6.236 2.518 8.875 2.079 2.238 3.758 5.796 6.276 7.115 1.24.88 3.758 1.32 5.397.88 1.68-.44 1.28-1.32 2.119-3.078.8-1.36 1.639-2.679 2.079-4.038.4-2.199-.44-3.078-.84-4.877-.44-1.759 0-3.558 1.24-5.317 2.078-3.118 4.597-4.877 4.996-8.914 0-3.518-.4-6.636-2.078-9.315-1.64-2.238-1.64-3.997-2.08-6.676-.399-3.997-2.518-8.434-5.836-10.673 2.08 4.917 4.158 11.113 4.598 16.47.4 2.638.4 6.676-2.08 7.995-2.118 1.759-2.518-.88-4.197-1.799z" fill="#ad3652" fill-rule="evenodd"/><path d="M196.48 300.258h.4c4.198 3.998 10.434 20.867 11.714 23.106 1.239 2.239 9.594 15.99 10.833 17.75 2.479 4.916 5.836 13.79 9.154 17.788 2.959 3.558 6.277 2.2 10.034 6.197 3.758 3.997 7.076 12.472 13.352 13.352 10.834 2.198 11.273 2.638 15.83-11.993.84-3.118 4.198-6.236 5.038-9.354.8-5.757-.84-12.433-.44-17.75-.84-1.319-1.24-2.678-2.079-3.558-2.079-3.997-4.157-7.555-6.676-10.673-3.318-4.437-7.915-7.076-11.273-11.073-2.918-3.118-4.997-7.556-7.515-11.114l-10.394.88c2.478.88 3.718 3.997 4.997 5.317 4.157 5.356 3.318 12.472 3.318 18.229 0 2.238.44 3.997.84 5.756 0 4.917-2.08 3.118-3.758 6.676-.84 2.678 1.279 7.555.44 10.234-1.68 5.756-7.116 7.555-11.714 2.199-.799-1.76-3.717-7.116-3.318-8.875 0-3.558 1.68-3.558 4.158-4.877 5.437-2.679 10.434-4.437 6.676-10.234-1.64-2.638-2.079-3.558-2.918-6.636-.84-3.118-2.479-4.917-2.919-7.555-.839-5.357 0-2.679-3.757-2.239-2.919 0-4.997-2.199-7.516-2.199 0 2.199 4.198 6.197 5.437 8.875 1.24 3.558 3.358 7.555 2.079 11.553-3.318 10.634-9.594-3.558-10.834-7.995-1.239-4.437-2.518-5.797-4.597-8.915-2.478-3.518-2.079-7.515-3.758-11.073-2.478-5.797-9.994-7.116-13.352-12.912-.839 3.118 1.28 6.676 2.519 9.794v1.319z" fill="#ce5d73" fill-rule="evenodd"/><path d="M106.535 202.437c-1.639-11.992-11.633-22.226-22.866-23.545-12.912-1.36-29.982-.88-42.494 3.997-37.057 15.55-29.942 77.313-17.07 107.535 4.997 10.234 10.834 21.787 19.988 28.423 10.434 7.995 22.507 13.791 32.9 21.787 17.91 13.791 35.379 24.904 55.807 34.219 24.145 11.113 48.29 21.787 74.914 24.425 9.594.92 21.227 4.437 29.982-.44 9.554-5.317 5.836-16.43.4-23.985-16.23-21.787-32.46-43.094-49.93-63.562-9.594-11.113-27.903-28.862-35.419-41.774-5.796-8.875-4.157-12.433-9.994-21.307-6.635-9.794-13.711-31.102-24.944-35.539z" fill="#690a24" fill-rule="evenodd"/><path d="M111.213 321.925c-.44 0-.84-.44-.84-.44-10.434-12.432-20.028-20.028-30.022-15.55-9.994 3.997-27.903 4.877-37.937.88.44.879 1.28 1.318 1.68 2.238l-.4.44.839-.44c9.154 14.231 17.91 4.437 26.664 12.432 4.997 5.357 8.315 3.118 13.312 8.435 6.676-7.555 16.27-7.555 23.346-3.998 4.997 2.24 4.197-1.758 3.358-3.997z" fill="#caebf3" fill-rule="evenodd"/><path d="M119.448 251.328s3.358 14.59-6.277 15.91h-1.679c7.116.88 14.632-1.759 13.392-23.905-.44 3.118-5.436 7.995-5.436 7.995zm12.112-1.32s-5.436-3.557-6.676-6.675c.84 8.434 2.919 24.345 16.27 22.586-9.993.44-9.594-15.91-9.594-15.91z" fill="#82b3d5" fill-rule="evenodd"/><path d="M97.86 253.087c6.677-7.076 9.195-18.19 10.035-27.983.8-9.315.8-15.551-1.28-22.227v-.44s0-.44-.4-.88c-.839-3.117-2.518-6.235-4.597-9.793-2.078-3.118-4.157-5.757-6.636-7.995-3.358-2.679-7.115-4.438-11.273-4.877-12.912-1.36-29.982-.88-42.494 3.997-37.097 15.55-29.982 77.313-17.07 107.535 1.24 2.678 2.479 5.357 4.158 7.995l.4-.88c10.433 8.875 35.418-4.876 43.333-12.432 5.837-5.796 9.595-14.231 14.192-20.907 3.318-4.877 7.475-7.116 11.633-11.113z" fill="#ab0034" fill-rule="evenodd"/><path d="M85.388 189.565c1.24-1.36 6.236-6.236 7.476-7.555-2.919-1.8-5.837-2.679-9.155-3.118-12.912-1.36-30.022-.88-42.534 3.997-2.478 1.32-4.997 2.679-7.515 4.437-.8 1.32-2.08 3.119-2.919 4.878 10.874 14.67 43.374 8.035 54.647-2.639z" fill="#8f002b" fill-rule="evenodd"/><path clip-path="url(#a)" d="M111.972 146.511c.4-.88.4-1.799.84-2.678 0-.44.4-.44.4-.88s.4-1.319.4-1.759c.439-.48.439-.919.439-1.359.4-.44.4-1.319.84-1.759 0-.44 0-.88.4-1.359 0-.44.439-1.32.439-1.759.4-.44.4-.88.8-1.319 0-.92.44-1.36.44-1.799.399-.88.399-1.32.839-1.759 0-.44.4-1.359.4-1.799.44-.44.44-.88.839-1.759.4-.44.4-1.359.84-1.799 0-.44.4-.88.839-1.759 0-.44.4-1.319.84-1.798 0-.44.4-.88.4-1.76.399-.44.839-1.319 1.238-1.798 0-.44.44-1.32.84-1.76 0-.439.44-1.318.84-1.758.4-.48.4-1.36.839-1.8.4-.439.84-1.318 1.239-1.758 0-.92.44-1.36.84-1.799.4-.44.839-1.32 1.239-1.759 0-.88.44-1.359.84-1.799.439-.44.839-1.319 1.239-1.759.44-.44.44-1.359.839-1.799.44-.44.84-1.319 1.28-1.759a37.4 37.4 0 0 1 1.238-1.319c.4-.92.84-1.359 1.24-1.799.44-.44.84-.88 1.239-1.759l.44-.44v-.919c0-.44 10.433-15.11 27.103-17.749h7.476c.44 0 .44 0 .84-.44h6.676c1.238-.44 2.518-.44 3.757-.44 1.24 0 2.518 0 3.758-.48h30.821c-4.997-17.748-14.151-32.86-29.182-42.174-1.64-1.359-7.076-5.356-7.476-6.236-.44-1.319-1.239-3.997 1.24-9.794 2.078-7.076-9.595-14.191-14.152-6.196-1.28 1.759-2.119 3.118-5.037 7.995 0 0 .44-10.234-1.24-11.993-3.757-5.356-11.232-3.558-13.351-.88-2.479 3.079-.8 16.43-11.233 17.31-4.997-.44-4.597-6.236-4.158-10.233.4-3.998-13.791-4.438-15.03 3.557-.4 4.917-1.24 9.794-2.48 14.671-.439.88-2.118 3.558-2.917 3.998C84.869 58.085 82.35 74.515 82.35 101.62c0 11.113-.84 33.34 4.198 54.207 1.239 7.115 7.475 24.465 14.151 39.536 2.918-19.549 7.915-37.738 11.273-48.85z" fill="#f44d32" fill-rule="evenodd"/><path d="M32.5 70.517c-8.315-1.799-15.79-3.558-18.708-4.917-5.837.92-8.755 11.553-4.598 15.99 4.158 1.36 14.991 4.438 14.991 4.438-5.836 0-12.912.44-15.79.44-5.437 1.799-6.276 15.55 1.24 16.87 7.075.44 15.79.879 23.265.879-.4-11.513-.4-23.066-.4-33.7z" fill="#a5c7e0" fill-rule="evenodd"/><path d="M33.78 51.289c0-3.278 10.713-5.996 23.865-5.996 13.192 0 23.866 2.718 23.866 5.996 0 3.318-10.674 5.996-23.866 5.996-13.152 0-23.865-2.678-23.865-5.996z" fill="#d6e5f0" fill-rule="evenodd"/><path d="M12.552 151.388c-4.157 2.679-4.597 16.07 1.64 17.39 2.918.44 1.279.44 7.915.44 0-.88.4-1.76.84-2.679v.48c2.078-5.357 4.157-10.714 5.796-16.11-9.954 0-11.633 0-16.19.48z" fill="#f44d32" fill-rule="evenodd"/><path d="M42.094 51.169c0-1.599 6.996-2.918 15.551-2.918 8.595 0 15.55 1.319 15.55 2.918 0 1.639-6.955 2.918-15.55 2.918-8.555 0-15.55-1.279-15.55-2.918z" fill="#6fa9cf" fill-rule="evenodd"/><path clip-path="url(#a)" d="M249.449 206.875c4.997 2.238 17.07 13.791 27.063 27.543 7.476 11.113 15.391 21.787 20.828 39.536 7.875 23.546 4.157 45.732 3.718 65.28-.4 36.858-1.64 56.406-14.991 68.839-13.312 12.432-41.615 9.354-64.921 7.555-15.83-1.32-104.936.88-166.58-67.959 0 0 3.359-1.319 6.677-6.196 4.157-8.875 2.518-11.553 2.518-11.553v-.44c1.64 1.76 4.558 3.118 5.397 5.317 11.233 22.227 59.124 55.966 92.864 64.84 60.763 15.991 109.893 8.875 121.126-2.638 6.676-6.676 5.437-32.42 6.277-60.403.4-20.907 4.997-43.094-.84-59.964-6.676-20.427-34.14-56.845-35.818-62.642z" fill="#f9d4d9" fill-rule="evenodd"/><path d="M85.348 375.213c-10.833-7.556-21.227-16.87-30.821-27.544-9.194 2.679-17.11-6.676-23.786-22.226 1.68 9.794 2.919 19.108 2.919 26.664 0 5.796.44 8.434.84 25.784v.44c0 3.558 11.272 6.196 25.424 6.196 14.191 0 25.424-2.638 25.424-6.196l-.4-.44h.4v-2.678zM222.745 75.434l-5.836-.88c-12.073 0-24.146-.479-33.74.44-5.397.44-9.994.88-13.712.88-1.279 0-2.118 0-2.918.44h-.84c-.839 0-1.239.44-2.078.44h-.84c-.84.44-1.239.44-2.078.879h-.44c-.8.44-1.64.44-2.479.92-.44 0-.84.44-.84.44-.839 0-1.238.439-1.678.439-.4.44-.8.44-1.24.88-.4 0-.839.44-1.239.44-.44.439-.84.439-.84.879-.399 0-.839.44-1.678.919-.4.44-1.24.88-1.64 1.32-.439 0-.839.439-.839.439-.44.44-1.239.88-1.679 1.32 0 0-.4 0-.4.439-.439.44-.839.92-1.678 1.359-1.68 1.759-3.318 3.078-4.997 4.877v.44c-14.591 15.99-22.906 40.415-27.064 53.727-5.437 18.19-15.43 55.966-13.312 85.708 1.64 25.745 4.997 35.939 14.551 35.059 9.595-1.32 6.237-15.99 6.237-15.99s4.997-4.877 5.436-7.995c1.24 3.118 6.676 6.676 6.676 6.676s-.44 16.43 9.554 15.99c9.994-.44 11.673-10.234 8.355-19.988-2.918-10.634-2.518-36.418.4-55.926 4.158-29.782 16.67-54.207 37.497-58.205 11.234-1.32 22.867-2.638 31.222-2.199 19.548.44 13.751-51.968 4.157-54.167z" fill="#a5c7e0" fill-rule="evenodd"/><path d="M127.043 110.613c0-.92.4-1.36.84-1.799.4-.44.839-1.32 1.239-1.759 0-.88.44-1.36.84-1.799 0-.44.399-.44.399-.88-2.478-2.198-5.836-3.997-9.594-4.876-8.315-2.239-17.51.44-23.746 6.196-10.433 9.794-14.63 27.104-12.112 43.094.44 2.198.839 4.437 1.679 7.076 1.239 7.115 7.515 24.425 14.19 39.496 2.92-19.509 7.916-37.698 11.234-48.81.44-.88.44-1.76.84-2.68 0-.439.44-.439.44-.879s.4-1.319.4-1.759c.439-.44.439-.88.439-1.359.4-.44.4-1.319.8-1.759 0-.44 0-.88.44-1.319 0-.44.399-1.36.399-1.799.44-.44.44-.88.84-1.319 0-.88.44-1.32.44-1.759.399-.92.399-1.36.799-1.799 0-.44.44-1.32.44-1.759.4-.44.4-.88.839-1.799.4-.44.4-1.319.84-1.759 0-.44.4-.88.799-1.759 0-.48.44-1.359.84-1.798 0-.44.439-.88.439-1.76.4-.44.84-1.359 1.24-1.798 0-.44.439-1.32.839-1.76 0-.439.4-1.318.84-1.798.399-.44.399-1.32.839-1.76.4-.439.84-1.318 1.239-1.758z" fill="#f8a88b" fill-rule="evenodd"/><path d="M112.052 146.471c2.918-9.754 8.315-25.304 16.63-39.096-2.478-2.678-5.796-4.437-8.715-4.877-7.075-1.799-14.99 0-19.988 4.877-12.072 11.113-15.43 37.337-7.915 54.207 2.479 7.555 5.837 18.229 9.554 28.423 2.919-17.31 7.516-33.3 10.434-43.534z" fill="#e82113" fill-rule="evenodd"/><path d="M17.07 190.485c9.594-13.752 23.346-17.75 40.815-19.549 24.585-2.638 34.18 4.478 34.979 4.917 0-.44-.4-.919-.4-1.798-.4 0-.4 0-.4-.44-.44-.44-.44-1.32-.84-2.199v-.48c-.839-1.759-1.239-3.078-1.678-4.877l-.4-.44c0-.44-.44-1.319-.44-1.758v-.48c-.4-.88-.4-1.32-.84-2.199 0-.44-.399-1.319-.399-1.799v-.44c-.4-.44-.4-.879-.4-1.319v-.44c-.44-.439-.44-.879-.44-1.318-.4-1.36-.839-2.679-.839-4.038 0-.44-.4-.88-.4-1.32 0-.879-.4-1.758-.4-2.198 0-.92 0-1.36-.44-1.799v-2.198c-.399-.48-.399-.92-.399-1.36 0-.88 0-1.759-.44-2.638v-1.36c0-.879 0-1.318-.4-2.198V133.2c0-.44-.44-1.359-.44-1.799v-7.117c-.399-.44-.399-1.319-.399-2.198v-17.789c-.4-13.312-.4-27.104-.84-38.217 0-8.875-.4-10.634-.4-13.752-1.678 2.679-11.672 4.877-23.345 4.877-13.312 0-24.145-2.678-24.145-6.236v1.799c-.4 3.998-.84 4.877-.84 11.993-.4 16.43-.4 38.217 0 55.966.44 12.912-2.918 28.902-9.994 46.212-1.24 3.558-4.557 11.993-5.836 23.546z" fill="#a5c7e0" fill-rule="evenodd"/><path d="M124.565 120.727c3.317-6.676 9.154-7.995 13.711-7.556 9.594 0 20.428 7.556 24.585 16.43 2.079 4.438 3.318 11.553-1.679 18.67l2.08 1.758c4.596-6.636 5.396-14.191 2.078-21.747-4.997-9.754-16.63-17.749-27.064-17.749-7.036-.48-12.872 3.078-16.23 9.314l2.519.88z" fill="#d6e5f0" fill-rule="evenodd"/><path d="m165.3 147.39-43.334-27.982c-4.557 10.233-7.915 19.988-9.994 27.103-5.397 18.19-15.43 55.926-13.312 85.668 1.64 25.745 4.997 35.939 14.551 35.059 9.595-1.32 6.277-15.99 6.277-15.99s4.997-4.877 5.396-7.955c1.28 3.078 6.676 6.636 6.676 6.636s-.4 16.43 9.594 15.99c9.994-.44 11.673-10.194 8.315-19.988-2.918-10.634-2.478-36.378.44-55.926 2.079-16.87 7.476-31.94 15.39-42.614z" fill="#e8f0f6" fill-rule="evenodd"/><path d="M147.43 190.005c2.52-17.35 7.076-31.541 14.192-41.775 4.557-7.555 3.318-14.191 1.24-18.629-4.158-8.914-15.032-16.43-24.626-16.43-4.557-.48-10.433.88-13.751 7.516-4.598 9.354-7.516 18.669-9.994 26.664-4.598 15.55-15.471 54.647-13.352 84.828.84 11.993 2.078 26.664 7.075 31.101 1.24.88 2.519 1.32 4.598 1.32 1.679-.44 2.478-.88 3.318-1.76 1.679-3.117 1.279-8.874.84-11.113-.4-.879 0-1.758.839-2.638 1.679-1.799 4.157-4.917 4.597-6.236 0-.88 1.24-1.76 2.079-2.239 1.239 0 2.078.92 2.518 1.8.8 1.318 3.318 3.997 5.836 5.316.84.44 1.24 1.359 1.24 2.239 0 2.638.4 9.314 2.918 11.992 1.24.88 2.079 1.32 3.758 1.32 2.918 0 4.997-1.32 6.236-3.119 1.679-2.638 1.679-7.555 0-13.751-3.318-11.553-2.079-38.657.44-56.406z" fill="#4783aa" fill-rule="evenodd"/><path d="m175.694 211.352-1.68-1.36c-11.632-10.633-19.108-20.867-19.947-39.096-.84 2.24-1.24 4.478-2.08 7.116 2.48 14.671 9.555 24.425 20.389 33.78l1.639 1.759c7.515 6.676 23.745 15.11 19.987 27.983-.84 3.118-2.078 4.877-4.157 5.316-2.519.48-4.158-2.638-5.837-5.316-.4-.44-.4-.44-.839-.44-.4-.44-.8 0-.8 0-1.679 1.32-6.276-.44-8.754-2.239h-1.68c0 .48-.399.92-.399 1.36.84 3.557-1.679 7.555-2.918 8.874-1.24 1.759-2.918 2.239-5.397 2.239-.84 0-1.24.44-1.24.88-1.278 2.638-2.917 6.635-5.436 7.115-1.24.44-4.557.44-6.236-.48-.4.92-.4 1.799-.84 2.678 2.12.88 6.277 1.32 7.916.44 5.396-1.759 5.396-5.317 6.236-7.995 3.358 0 5.437-1.32 7.076-3.118.839-1.32 3.757-4.877 3.757-7.515v-.92c2.479.92 5.837 2.239 8.315 1.36 2.479 3.077 4.158 6.196 7.476 5.756 2.918-.44 4.997-3.118 6.236-7.116 4.157-14.631-12.872-23.985-20.787-31.061z" fill="#f8a88b" fill-rule="evenodd"/><path d="m174.055 213.59-1.64-1.758c-10.873-9.355-17.949-19.149-20.467-33.82-.84 4.038-1.68 8.035-2.079 12.033-2.918 19.548-3.358 45.332-.4 56.006 1.24 4.437 1.64 9.314.8 12.872 1.679.88 5.437.88 6.276.44 2.918-.88 4.158-4.438 5.437-7.116 0-.44.4-.88 1.24-.88 2.518 0 4.157-.44 5.436-2.198 1.239-1.36 3.758-5.357 2.918-8.915 0-.44.4-.88.4-1.319h1.679c2.518 1.76 7.075 3.558 8.754 2.199 0 0 .44-.44.84 0 .44 0 .44 0 .84.48 1.678 2.638 3.317 5.756 5.836 5.316 2.079-.44 3.358-2.238 4.197-5.316 3.718-12.913-12.552-21.347-20.067-28.023z" fill="#f44d32" fill-rule="evenodd"/><path d="M174.454 242.853v.48c0 2.638-2.918 6.196-3.757 7.515-1.64 1.799-3.758 3.118-7.076 3.118-.84 2.678-.84 6.196-6.276 7.995-1.68.88-5.837.44-7.916-.44v-.879c-.44 1.32-1.279 2.199-2.118 3.078.84 4.437 16.31 9.754 25.065 1.8 6.276-5.358 8.754-14.232 2.078-22.667z" fill="#e82113" fill-rule="evenodd"/><path d="M122.046 332.638c-1.679 11.074 14.951 20.788 13.312 6.197-.44-4.398-1.679-9.275-6.236-10.594-2.519-.48-6.676.44-7.076 4.397z" fill="#f3b2bc" fill-rule="evenodd"/><path d="M246.93 174.094s-2.518-2.238-8.794-.44c-1.68 2.2-3.318 2.64-4.598 3.559l-2.478.88c-.84 0-3.798.879-3.798 1.758 0 0 .44.44 1.28 1.36l2.918 2.198c3.757 2.678 10.034 7.555 16.31 19.948 2.918-.88 9.154-3.518 9.154-7.955 0-5.317-4.557-19.549-9.994-21.308zm-71.197-37.377c-3.757 2.639-7.075 6.196-10.433 10.194.84-.88 1.279-1.32 1.679-2.199 14.151-4.437 43.653-2.678 51.169-2.238 1.639-1.76 4.957-3.118 8.315-2.199h.8c-9.955-3.558-38.657-7.595-51.53-3.558z" fill="#f44d32" fill-rule="evenodd"/><path clip-path="url(#a)" d="M40.376 182.85c13.351-7.117 42.534-8.436 54.167-3.079-.8-1.36-1.24-2.678-1.64-4.038-.839-.44-10.433-7.555-35.018-4.877-19.188 1.8-33.78 6.676-43.334 23.986-6.676 12.033-9.594 23.586-11.273 47.571-2.518 35.539 18.349 59.564 27.503 82.23v.88c6.676 15.55 14.592 24.865 23.786 22.226 0 0 3.318-1.359 6.636-6.236 4.197-8.875 2.518-11.553 2.518-11.553-22.506-13.792-47.93-51.089-50.01-83.99-.839-37.336 7.476-53.327 26.665-63.12z" fill="#c39ab2" fill-rule="evenodd"/><path clip-path="url(#a)" d="M9.154 191.284c3.718.88 1.24.88 6.636.88.4-.44.84-.88 1.24-1.32.84-7.555 2.078-13.312 3.717-18.189-8.275-.48-9.514 0-12.832.44-3.318.44-6.676 16.43 1.24 18.19z" fill="#f44d32" fill-rule="evenodd"/><path d="M112.052 319.726c-9.194-11.113-19.988-21.747-32.5-16.43-9.994 3.998-28.303 4.877-37.458.88-3.757-1.76-5.436-5.317-6.675-6.636-10.394-15.55-18.31-34.22-19.589-51.969-.8-39.096 9.195-51.968 25.425-60.403 12.073-5.757 44.973-7.556 54.127-1.76h.4c-.4-.919-.8-2.238-1.24-3.557-11.672-5.357-40.815-3.998-54.126 3.118-19.149 9.754-27.504 25.745-26.664 63.042 1.279 23.106 14.151 47.97 29.142 65.72.44 0 1.28-2.678 1.28-2.678-.44-.88-1.28-1.32-1.68-2.199 9.994 3.998 27.903 3.118 37.897-.88 9.994-4.477 19.588 3.079 29.982 15.511.4.44 1.24.44 1.68 0 .399-.44.799-1.319 0-1.759z" fill="#f3b2bc" fill-rule="evenodd"/><path d="M288.625 276.672c-6.676-20.028-32.9-55.566-35.818-62.682-3.358 9.355 0 19.109 1.639 28.463.44 5.317-.4 9.314 1.679 14.191 1.679 3.998 6.676 7.116 7.915 10.674 1.679 5.796 4.597 18.229 4.597 26.664.4 7.555-6.676-2.199-9.194 5.796-2.479 7.995 12.112 15.55 13.751 22.627.84 3.557-.4 11.553-.84 15.55-.799 6.236 1.28 12.912.44 19.109-.839 3.118-4.157 6.236-4.996 9.354-4.598 14.671-4.997 14.191-15.83 11.993-6.237-.88-9.595-9.355-13.313-13.352-3.757-3.998-7.115-2.639-9.994-6.196-3.358-3.998-6.676-12.913-9.194-17.79-1.24-1.759-9.554-15.55-10.793-17.749-1.28-2.239-7.516-19.108-11.673-23.106-2.919-2.678-14.152-11.553-15.83-13.352-2.919-2.199-9.155-4.877-12.913-7.995-5.397-3.998-15.83-9.754-20.388-13.312 1.64 3.118 7.476 8.875 9.155 12.872.84 2.239 4.557 4.877 5.836 7.556 1.24 3.558.8 7.115 2.919 11.113 2.078 4.437 8.714 7.555 11.233 11.993 3.757 7.555 2.918 14.67 4.997 21.307 1.639 5.796 9.994 11.113 11.673 14.231.8 1.799-.44 6.676 2.078 11.113 2.08 3.119 8.315 5.317 10.394 8.435 2.079 3.998.4 8.875 1.24 10.674 3.757 6.236-8.316 7.995-15.391 4.437-6.676-3.118-13.352-4.437-19.988-7.116-6.236-2.198-12.912-2.638-19.988-4.437-11.233-3.118-5.437-1.759-14.591-7.555-2.079-1.32-5.837-4.438-9.994-7.995-3.758-3.119-9.994-3.558-13.752-7.556-3.318-3.118-7.475-4.437-9.994-7.116-7.475-7.115-15.79-3.997-19.148-7.555-4.997-5.317-8.315-3.078-13.312-8.435-8.755-7.995-17.51 1.8-26.664-12.432l-.84.44c0 .879-.4 2.238-.839 2.238 6.676 7.555 13.752 13.752 20.827 18.189v-.44c1.68 1.8 4.598 3.118 5.437 5.357 11.233 22.187 59.124 55.966 92.864 64.84 60.803 15.991 109.933 8.915 121.166-2.638 6.676-6.676 5.437-31.54 6.237-59.564.44-20.867 4.997-43.533-.8-60.843z" fill="#f3b2bc" fill-rule="evenodd"/><path d="M153.987 292.183c-1.64 3.558-8.715 8.435-.8 11.073 4.158 1.8 10.394-3.997 11.633 0 .44 1.8-1.679 4.917-1.24 7.556.4 4.037 7.916 8.474 8.716 8.914 3.358 2.639 6.276 7.556 9.154 10.194-1.639-6.636-.8-13.312-4.557-20.867-2.479-4.438-9.155-7.556-11.233-11.993-2.08-3.998-1.68-7.555-2.919-11.113-1.239-2.679-4.997-5.317-5.836-7.556-.8-1.759-2.079-3.997-3.718-5.796-.44 4.917-8.355 5.357-5.437 10.673 2.08 4.438 9.994 1.36 6.237 8.915z" fill="#db8995" fill-rule="evenodd"/><path d="M147.87 283.268c-.84-1.359-.84-1.799-.44-2.678-2.478-.44-6.236.88-9.594 2.678-2.078.88-3.717 1.76-5.396 2.199-5.437 1.36-11.673.48-16.27-2.638-8.315-5.357-14.991-19.549-15.391-30.222-.44-2.678-.84-5.357-.84-8.475-.44.92-.84 1.799-.84 2.239-3.357 11.553 4.998 32.02 15.831 38.656 4.997 3.118 12.073 4.438 17.91 3.118 2.078-.44 3.757-1.319 5.836-2.198 3.358-1.8 7.915-4.038 9.194-2.239 0 .44.4.44.8.44-.4-.44-.8-.44-.8-.88z" fill="#f3b2bc" fill-rule="evenodd"/><path d="M168.578 317.927c.44 0 1.679-.44 2.079-.44-1.24-7.115-2.08-9.793-5.397-14.67-2.918-4.878-10.834-19.109-16.63-19.988l-1.28-.88c0 .44 0 .88.44 1.32 0 .44.4.44.84.879-.44 0-.84 0-.84-.44-1.239-1.759-5.836.44-9.154 2.239-2.079.88-3.758 1.759-5.836 2.198-5.837 1.36-12.913 0-17.91-3.118-10.393-6.196-18.309-24.865-16.23-36.897-1.639 1.359-7.875 1.799-12.472 4.037-6.236 2.639-11.633 7.556-14.152 9.315-2.478 1.319-32.46 36.457-39.136 32.02.84 1.32 1.679 2.639 2.519 3.998 1.239 1.319 2.918 4.877 6.675 6.676 9.155 3.997 27.464 3.078 37.418-.92 12.512-5.317 23.306 5.357 32.5 16.47.8.44.4 1.32 0 1.76l10.394 8.434 3.758-1.32-7.516-17.788c-9.154-12.433-16.63-15.111-26.624-21.787 14.551 5.796 13.312 3.558 29.143 6.676 13.711 2.678 37.457 10.673 47.41 22.226zm-34.1-23.545c4.997-.44 14.991-1.8 18.31-1.8-6.237 3.119-14.152 1.8-18.31 1.8zm16.63-9.355c-6.236 3.998-17.469 7.116-22.866 7.116 5.397-.88 15.391-6.196 22.866-7.116zm-42.854 19.588c-8.315-1.359-14.59-9.794-17.07-11.553 4.158.88 14.152 9.754 17.07 11.553zm-14.59-20.907c.439-.88 12.911 3.998 17.509 6.676-9.994.44-17.51-5.357-17.51-6.676zm2.518-7.555c.84-1.76 19.988 13.352 22.466 15.11-5.397-.879-23.706-13.351-22.466-15.11z" fill="#ebf8fb" fill-rule="evenodd"/><path d="M70.317 295.74c4.158 1.32 10.794-1.318 11.194.44 0 1.76-11.633 5.277-16.63 5.277 3.757-.88 11.673-3.518 5.436-5.716zm12.913-9.793c3.318 4.877-4.158 4.877-6.676 4.437 1.679-.44 6.276-1.759 6.676-4.437zm6.236-14.631c0-2.24 2.079-4.438 4.157-7.116 2.479-2.639 2.079-5.757 1.64-8.875 0 3.118 2.078 7.995 1.278 10.674-.839 3.078-3.357 2.638-4.597 4.877-1.639 3.078-2.478 9.714-7.075 7.515 1.679-.44 4.157-4.437 4.597-7.075z" fill="#caebf3" fill-rule="evenodd"/><path d="M250.288 214.39c-.4-.88-.8-1.759-.8-2.239-13.83 6.237-12.552 14.232-9.234 24.026 2.519 8.914.44 16.47.44 16.47 0 .88.4 1.759.84 1.759.84.44 1.679 0 1.679-.88 0-.44 2.478-8.435-.84-18.229-2.518-7.995-5.037-14.67 7.915-20.907zm-25.864 40.096c-4.997 0-23.746-7.596-27.503-16.99 0 1.36 0 2.718-.44 4.477 6.276 8.515 22.946 15.191 27.943 15.191.44 0 1.24-.44 1.24-1.32 0-.439-.8-1.358-1.24-1.358z" fill="#f3b2bc" fill-rule="evenodd"/><path d="M257.764 330c6.636 12.872 12.072 23.106 12.472 29.782l.4 1.32c.84-1.32 1.679-2.64 2.079-3.998.84-6.197-1.24-12.873-.4-19.109.4-3.997 1.639-11.993.84-15.55-1.68-7.116-16.23-14.672-13.712-22.707 2.079-7.115 7.875 0 9.114-3.997-11.633 0-21.587-3.118-30.341-10.674-4.558-3.118-6.237 1.8-3.318 6.236 2.918 4.877 16.23 25.785 22.866 38.697z" fill="#db8995" fill-rule="evenodd"/><path d="M243.612 239.375c0-.44-.4-.44-.4-.44 1.68 7.955 0 14.192 0 14.631 0 .88-.839 1.32-1.678.88-.4 0-.84-.88-.84-1.76 0 0 2.119-7.555-.4-16.43-3.358-9.753-4.597-17.748 9.195-23.945-1.28-2.678-2.519-5.316-3.758-7.115-1.28 2.238-5.037 6.236-10.034 9.794-1.679.88-4.597 1.759-6.236 2.638-2.119.88-2.958 2.239-5.037 3.558-2.079.88-4.997.44-7.076 1.32-2.518.879-9.194 2.678-10.433 3.117-1.68 0-4.158 1.32-5.837 1.32-2.518 0-5.437.44-7.955 0 2.518 3.557 4.197 7.115 3.758 11.113v-.48c3.757 9.314 22.546 16.87 27.543 16.87.44 0 1.28.88 1.28 1.319 0 .44-.44.44-.44.92 0 1.758 1.678 5.316 4.197 9.754 7.076 4.877 18.749 13.311 29.182 22.146l4.997-7.955s-16.67-26.184-20.028-41.255zm-35.858-9.314c-1.679 0-2.079-2.24-.84-2.679 1.68 0 2.52 3.118.84 2.679zm42.974 40.815c-4.597-3.558-21.707-22.187-18.349-24.425 4.158-1.76 10.434 16.43 18.349 24.425zm-19.188-51.01c2.078 0 .84 2.2-.44 1.76-1.24 0-.84-.44.44-1.76zm-11.713 5.318c-.4 1.319-3.318 1.758-3.318.879-.4-.88.4-1.32 1.679-1.759 1.239 0 2.478 0 1.639.88zm3.757 7.515c1.68-1.759 2.919 9.314 5.437 12.432-3.318-3.997-7.076-10.633-5.437-12.432zm.44 13.752c2.079-1.76 15.87 22.626 28.783 32.82-12.513-7.076-31.701-30.582-28.783-32.82zm22.107 8.435c1.24-.88 9.594 16.87 10.833 18.189-4.157-3.998-11.233-16.39-10.833-18.19z" fill="#caebf3" fill-rule="evenodd"/><path d="M225.224 256.644c0 .44-.44.44-.84.44-4.997 0-21.627-6.676-27.863-15.11-2.079 8.434-7.516 9.793-12.513 8.434 9.994 3.998 39.537 21.787 56.206 50.17l2.879-11.953c-4.158-6.236-18.31-27.103-17.87-31.98zm-12.913 0c2.08-.879 7.076 5.317 9.155 7.996-2.918-.88-11.633-7.996-9.155-7.996zm4.997 10.194c1.24-2.198 12.073 13.352 14.551 16.43-3.717-3.997-14.95-14.63-14.55-16.43zm4.598-7.515c1.239-.92 7.475 12.872 11.233 18.629-5.437-5.317-13.312-17.31-11.233-18.63z" fill="#ebf8fb" fill-rule="evenodd"/><path d="M42.094 51.169c0-1.599 6.996-2.918 15.551-2.918 8.595 0 15.55 1.319 15.55 2.918 0 1.639-6.955 2.918-15.55 2.918-8.555 0-15.55-1.279-15.55-2.918z" fill="#4783aa" fill-rule="evenodd"/><path d="M44.613 52.728c2.878-.88 7.435-1.32 13.272-1.32 5.397 0 10.354.44 12.832 1.32 1.68-.44 2.479-.88 2.479-1.759 0-1.36-7.036-2.718-15.311-2.718-8.715 0-15.79 1.359-15.79 2.718 0 .88.839 1.32 2.518 1.759z" fill="#6fa9cf" fill-rule="evenodd"/><path d="M122.046 33.22c.8-4.477.8-3.558-.84.44-.839 2.198-2.078 4.437-3.757 6.636-5.437 5.356-32.1 18.668-30.422 72.396.44-6.197.44-13.312 1.68-19.508 2.478-15.551 8.314-27.984 14.15-35.539 8.356-10.234 14.192-13.352 16.67-17.79.84-1.758 2.08-4.436 2.519-6.635zM37.058 68.718c0 10.234 0 33.82.44 47.611.399 13.352-1.24 23.146-2.919 28.903 2.479-6.636 5.357-18.669 5.357-30.222 0-11.593-2.878-46.292-2.878-46.292zm-23.666 1.439c1.639-.919 7.475.44 10.394.88 0 0-5.397-1.799-8.755-2.678-2.918-.92-3.758 2.678-4.597 4.917.84-1.32 2.518-2.679 2.958-3.119zM9.114 90.105c1.24-1.319 11.234-1.759 14.112-2.198H10.354c-3.318 0-3.318 3.518-3.758 6.156.44-1.759 1.679-3.518 2.518-3.958z" fill="#fff" fill-rule="evenodd"/><path d="M27.863 70.957c1.24 5.357.4 15.11-2.518 19.988-3.718 6.236-11.194 7.555-16.59 10.673 4.597 1.8 22.426 5.317 23.665-.44.8-3.557 0-14.23 0-17.749 0-3.118 0-9.354-1.239-11.113z" fill="#82b3d5" fill-rule="evenodd"/><path d="M156.105 71.077c4.598 0 4.158.88 8.355 2.678 3.318 2.199 7.876.88 11.633.88 7.915-.44 15.83-.44 23.746-.44 4.157 0 7.915.44 12.073 0 4.557-.44 3.757-3.118 2.078-7.555-2.518-6.237-7.075-16.87-12.472-21.347.8 7.115 10.394 14.67.8 20.467-6.637 4.437-15.391 1.32-22.467-.48-7.515-1.758-15.83-3.997-22.906-.879-4.997 1.799-14.152 6.236-14.591 12.872zm20.828-61.883c3.718 2.2 2.918 8.435 1.239 11.993-1.24 3.078-.8 2.199-4.117 1.76-2.879-.88-4.957-.44-7.876-.44 4.558-3.558 11.993-6.237 8.715-14.232zm-22.107-3.877c8.315-1.36 7.516 14.551 0 15.43 4.158-6.596 1.68-9.274.44-16.31zm-29.102 6.596c5.397-1.8 4.157 9.754 9.114 11.953-1.639.879-4.557-.44-6.636-.44-.4-5.757.44-7.955-4.157-11.513z" fill="#e82113" fill-rule="evenodd"/><path d="M76.234 206.835c-14.991 3.557-33.7-.44-39.536 17.35-2.918 8.874-6.276 20.906-1.68 29.781 6.677 11.993 14.592 3.118 19.989-4.437 4.997-7.116 10.393-12.912 18.309-14.671 7.915-2.239 11.672-4.438 13.751-13.352 1.24-5.757 3.318-17.35-10.833-14.671z" fill="#b91645" fill-rule="evenodd"/><path d="M252.767 213.59c-8.715-19.987-16.23-26.663-21.227-30.221l-2.919-2.199a83.525 83.525 0 0 1-1.239-1.319c0-.92 2.918-1.799 3.718-1.799l2.518-.88c2.919-1.798 8.315-3.117 7.076-18.668-1.24-14.631-11.233-17.75-14.151-18.189-3.358-.92-6.676.44-8.355 2.199-7.476-.44-37.058-2.199-51.25 2.238-1.238 1.32-2.078 2.639-2.917 4.438 10.433-5.797 44.613-4.438 55.006-3.998.44.44.84 0 1.28-.44.4-1.359 2.878-2.238 5.796-1.799 2.518.44 11.273 3.118 12.113 15.55 1.239 14.232-4.598 15.552-5.837 15.991l-1.679.88c-2.478.92-5.397 1.799-5.836 3.997 0 1.8 1.679 3.558 2.078 3.998l2.919 2.239c4.997 3.118 12.512 9.754 20.427 28.862.4.88 1.24.88 1.68.88.799-.44.799-1.32.799-1.76z" fill="#f8a88b" fill-rule="evenodd"/><path d="M197.28 238.455c-.4 1.36-.4 2.679-.8 3.998-1.238 3.998-3.317 6.676-6.235 7.116-3.318.44-4.957-2.679-7.436-5.757-2.478.88-5.796-.44-8.315-1.359 3.318 6.676 19.908 16.87 22.786-3.518v-.48z" fill="#e82113" fill-rule="evenodd"/><path d="M258.124 274.873c-1.24 3.998-2.08 5.317-1.68 9.355.44 4.437-.4 4.437 1.68 7.995.839 1.36 2.078 3.118 3.318 4.437 2.918-1.319 7.475 3.118 7.075-2.638 0-8.475-2.918-20.947-4.557-26.744-1.28-3.558-6.276-6.676-7.915-10.674-.44-1.359-.84-3.118-1.28-4.477.84 6.236 1.68 9.355 3.758 13.832 2.519 5.317.84 4.877-.4 8.914zm-136.118 57.725c.44-3.997 4.597-4.877 7.116-4.437 2.918.88 4.157 2.678 4.997 4.877h.4c-4.158-18.629-34.62-33.74-25.025-26.624 9.194 7.116 15.87 18.629 13.352 17.75-2.919-1.32-11.234-5.317-16.27-6.636-4.998-1.36-6.237 5.756-1.64 7.515 3.318 1.799 11.673 7.116 17.51 12.872-.44-1.759-.84-3.518-.44-5.317z" fill="#db8995" fill-rule="evenodd"/><path d="M217.748 151.868c-14.99 5.357-37.897 0-50.41 12.432-4.996 4.877-4.557 13.312-.799 19.069 4.158 6.196 11.233 14.631 16.63 19.068 4.597 3.558 13.352 10.634 19.148 11.074 11.673 0 4.598-17.27 4.997-24.386 1.28-10.193 9.155-9.314 14.592-15.95 4.557-5.756 4.557-18.189-3.318-20.827z" fill="#b91645" fill-rule="evenodd"/><path d="M255.725 285.067c.84 1.32 1.24 2.199 1.639 3.518.44-2.199-1.24-6.196 2.119-5.756-2.119-1.32-1.68-3.998.8-4.438-.8-1.319-1.24-2.678-.4-3.558-.84-2.238-2.08-1.759-3.318-.44-.84.88-2.12 3.998-1.68 3.998z" fill="#caebf3" fill-rule="evenodd"/><path d="M239.815 298.42c-.84-1.36-1.24-3.599-1.68-5.358 1.68 1.32 2.12-1.359 1.28-2.238 1.24.88 1.679-.92.4-1.8 1.279.44 1.679-.919 2.958 0 1.24.88 3.358 2.24 3.358 4.038.8 2.199-.84 6.237-2.119 8.036-.84.879-.84 1.319-2.079.879-.44 0-1.279 0-.84-.88zm-91.665-16.87c-.4.44-.4 1.319-.84 2.198 1.28.48 1.68 1.799 2.959 2.239 1.24.88 2.918.44 3.758 1.319 2.918 2.239-.84 6.676-1.68 8.435.4-.44.84-.44 1.68-.44.4 1.32-.44 2.239-1.28 3.118 1.28.44 2.519.44 2.08 2.199 2.118 0 3.757-.88 2.917 2.238 1.68-.44 4.198-1.319 5.877-.879 2.079.88 2.478 3.998 1.639 5.317 2.119 0 2.119 2.198 1.28 3.997 1.238.44 1.678 1.76.839 3.078 1.239.48 2.078 1.8 1.239 3.119.84.44 1.24 0 2.079.44 1.679.44 2.078.879 2.918 0 2.079-2.64 0-5.757-1.68-7.996-1.238-1.759-2.078-3.518-2.917-5.756-.8-1.76-2.479-3.118-3.758-4.438-1.64-1.759-2.479-3.997-3.758-6.636-.8-2.678-2.478-5.356-4.557-7.995-.84-1.799-2.918-4.877-4.597-5.796z" fill="#db8995" fill-rule="evenodd"/><path d="M101.618 323.204c.4.88 2.519.88 3.358.88-.44-.88-2.958-3.958 0-3.079-1.679-.879 0-2.638 1.24-2.638-1.24-3.078-5.037-4.437-7.996-3.078z" fill="#caebf3" fill-rule="evenodd"/><path d="M115.33 307.773c0 .44 0 1.32.4 1.76-.4 0-1.24 0-1.64-.44.4.44.4.88.4.88-2.518.439-4.996.439-6.675-1.76-.84-.88-1.28-1.759-.44-2.638.44-.44 1.679-1.8 2.119-1.8z" fill="#ebf8fb" fill-rule="evenodd"/><path d="M159.423 62.962c-16.23 3.118-28.302 20.467-27.503 39.576 0 .88-2.918 3.078-2.918 3.518.44 0 .44-.44.84-.88.439-.44.839-1.319 1.279-1.759.4-.44.4-1.359.799-1.799.44-.44.84-1.319 1.28-1.759.399-.44.799-.879 1.239-1.319.4-.92.839-1.359 1.239-1.799.44-.44.84-.88 1.239-1.759l.44-.44v-.919c0-.44 10.393-15.11 27.063-17.749h7.476c.44 0 .44 0 .84-.44h.4l-13.713-12.472z" fill="#e82113" fill-rule="evenodd"/><path d="M79.512 60.243c0 16.03.84 36.458.84 52.489 0 15.99.439 22.226 2.918 36.418 2.518 14.67 6.236 23.146 6.236 23.146-10.794-8.036-46.212-5.357-59.564 3.078 6.276-7.556 29.182-14.631 35.418-20.428 11.234-10.673 11.673-63.122 14.152-94.703zm75.794 52.449c7.116 4.437 17.11 16.03 14.591 25.344 7.076-9.314 22.506-10.673 44.173-11.113 7.915-.44 14.551-3.118 14.551-26.704-.8 9.794-20.827 17.39-29.542 18.27-23.346 3.997-33.74-6.677-43.773-5.797z" fill="#82b3d5" fill-rule="evenodd"/><path d="M197.28 77.273c-14.51 0-25.744.48-33.62 3.118-17.469 5.317-25.784 17.23-29.941 24.306 8.755-9.275 17.47-24.745 63.561-27.424z" fill="#fff" fill-rule="evenodd"/><path d="M27.943 313.93c4.597 6.676 5.397 13.791 9.554 20.467 1.68 3.118 5.837 7.995 8.715 10.234 3.318 2.639 7.475.44 10.394-2.678 1.639-2.239 4.117-5.797 4.117-8.915 0-3.997-3.718-4.437-5.796-6.196-7.476-6.236-15.351-12.912-20.748-21.387.44 4.917 6.237 11.593 8.715 15.59 2.079 3.119 5.796 7.116 5.397 11.553 0 1.8-1.24 4.478-3.318 3.558z" fill="#b785a3" fill-rule="evenodd"/><path d="M44.093 380.61c8.755 3.117 30.422 1.358 39.576-1.32 0-.88.4-3.118-.84-3.997-2.078-1.8-17.908-14.272-19.148-15.591-2.918-3.118-7.075-8.475-9.994-10.234-2.078-.92-2.918 1.76-4.597-.44 5.837 6.676 14.192 27.584-4.157 30.702z" fill="#82b3d5" fill-rule="evenodd"/><path d="M34.22 335.757c1.239 1.319 2.478 3.557 3.717 5.316 1.24 1.8 2.518 2.679 4.157 4.038 2.479 2.199 6.636 6.196 9.954 4.877 1.24 2.239 2.479 8.475 3.718 11.113-.8-3.997-8.275-7.995-11.193-9.794-4.957-3.558-7.475-10.673-10.793-16.03z" fill="#82b3d5" fill-rule="evenodd"/><path d="M64.96 336.076c-.4 4.478-4.557 9.794-6.236 11.593-1.679 1.8 21.228 22.707 35.339 30.702-4.557-2.639-26.184-23.146-28.263-28.903-2.079-5.357.4-10.713-.84-13.392z" fill="#f6c7cd" fill-rule="evenodd"/><path d="M286.426 328.56c-1.239 16.91-.4 27.584-1.239 39.137-1.639 22.666-1.639 29.342-29.142 35.099-20.388 4.437-54.127 3.118-101.219-10.194 30.422 4.877 71.237 11.993 97.061 6.196 26.224-6.196 27.903-10.233 29.982-26.664 2.479-16.87 2.918-40.455 4.557-43.573z" fill="#ec728c" fill-rule="evenodd"/><path d="M270.196 311.211c2.918 3.558 7.036 8.036 7.036 11.593-.4 3.998-.8 14.631-.8 23.546-.44 8.875.8 13.312-2.518 16.43-3.278 3.558-3.718 6.236-6.596 11.993 1.24-3.518 2.478-9.754 5.357-13.312 2.918-3.558 1.679-6.676 1.239-14.231-.4-7.556.84-14.232 1.28-18.67.399-4.876.399-7.994-5.398-14.67-6.236-6.676-10.393-10.674-8.714-13.792 0 3.558 4.557 6.676 9.114 11.113zM165.3 288.585c.84 5.357 0 8.475 5.876 11.993 5.397 3.558 8.755 6.676 9.594 13.791.8 7.116 1.64 13.312 3.318 16.87 2.08 3.118 9.195 8.875 10.834 12.872 2.119 3.558.84 6.237 2.119 9.315-.44-4.438.8-8.435 0-11.513-1.28-3.118-10.874-8.435-11.713-13.792-1.24-5.317-2.08-8.874-3.318-15.55-1.68-6.636-4.997-11.513-9.195-13.312-2.918-1.76-7.515-5.757-7.515-10.674zm-35.419 55.966c-6.156-3.957-7.835-13.232-4.517-14.151-1.24 2.238 1.24 11.953 4.517 14.151zm68.239-34.619c.84 3.558 10.034 20.468 12.113 24.465 1.679 3.998 4.997 4.877 12.072 16.87 0 0-3.318-7.076-8.315-14.631-5.436-7.555-10.433-17.79-13.352-24.905-3.318-7.116-4.157-9.794-9.194-12.912 3.358 2.239 5.037 8.035 6.676 11.113z" fill="#fff" fill-rule="evenodd"/><path d="M138.236 113.171c-4.557-.48-10.433.88-13.751 7.516-4.598 9.354-7.516 18.669-9.994 26.664-4.598 15.55-15.471 54.647-13.352 84.828.84 11.993 2.078 26.664 7.075 31.101 1.24.88 2.519 1.32 4.598 1.32 1.679-.44 2.478-.88 3.318-1.76 1.279-2.238 1.279-5.316 1.279-7.555-3.758 3.998-9.195-7.115-8.795-29.742.84-26.664 17.11-97.3 36.298-89.745 10.434 3.997 13.792 11.553 13.352 18.229.84-1.8 2.079-3.998 3.358-5.797 4.557-7.555 3.318-14.191 1.24-18.629-4.158-8.914-15.032-16.43-24.626-16.43zm10.034 139.516c-1.24 2.678-4.197 4.437-7.116 4.437-4.597.44-4.997-3.558-7.115-6.676 0 2.679.44 8.915 2.958 11.553 1.24.88 2.079 1.32 3.758 1.32 2.918 0 4.997-1.32 6.276-3.079 1.24-1.799 1.639-4.437 1.24-7.555z" fill="#377aa3" fill-rule="evenodd"/><path d="M152.348 161.222c-5.357 11.993-12.793 47.492-8.235 80.751-6.237-20.387-4.558-55.006 8.235-80.75z" fill="#82b3d5" fill-rule="evenodd"/><path d="M165.26 235.377c-4.557-.88-8.715 3.118-12.073-1.319-3.318-5.357.44-23.146 4.997-27.143l4.997-4.438c-5.836-6.676-9.554-14.67-11.233-24.465-.84 4.038-1.68 8.035-2.079 12.033-2.918 19.548-3.358 45.332-.44 56.006 1.28 4.437 1.68 9.314.84 12.872 1.679.88 5.437.88 6.276.44 2.878-.88 4.158-4.438 5.397-7.116 0-.44.4-.88 1.24-.88 2.518 0 4.157-.44 5.436-2.198 1.24-1.36 3.718-5.357 2.918-8.915 0 0 0-.44.4-.88-1.24-2.238-3.758-3.557-6.676-3.997z" fill="#e82113" fill-rule="evenodd"/><path d="M194.042 241.574c1.64-4.917 0-8.915-2.918-12.953.4 2.679 1.24 5.797-1.24 8.036-2.917 1.798-6.235-.44-8.754-2.24-5.397-2.677-14.111-2.677-16.63 4.038l7.916.44h2.079c.839.88 1.678 1.32 2.478 1.76 2.078.919 4.157 1.358 5.436.439 0 0 .4-.44.8 0 .44 0 .44 0 .84.48 1.678 2.638 3.317 5.756 5.836 5.316 2.079-.44 3.318-2.198 4.157-5.316z" fill="#e82113" fill-rule="evenodd"/><path d="M164.5 208.634c2.519 5.356 8.755 8.474 14.991 12.472 5.797 3.558 9.954 9.754 9.954 9.754-3.318-4.877-7.475-3.078-14.111-8.875-6.676-6.236-10.394-10.673-10.834-13.351z" fill="#f8a88b" fill-rule="evenodd"/><path d="M243.652 177.093c-4.597 0-9.154 1.759-11.673 2.638 4.997-1.759 12.073-8.355 18.31.44-1.24-.88-3.718-3.078-6.637-3.078zm-65.48-39.057c9.194-1.359 28.383-.44 34.619 1.36z" fill="#fff" fill-rule="evenodd"/><path d="M252.807 185.208c7.475 14.55-2.479 16.31-4.158 15.87-1.239-.44-1.679-5.277-6.676-11.873 3.758 4.398 10.434 4.398 10.834-3.997z" fill="#e82113" fill-rule="evenodd"/><path d="M123.165 117.609c-5.356-.92-6.196 7.075-10.353 14.63-4.558 7.996-11.633 15.112-9.954 23.547 1.239 5.356 2.078 9.354 3.318 12.872 2.078-8.875 4.157-16.43 5.796-22.187 2.079-7.555 5.837-18.229 11.193-28.862z" fill="#f44d32" fill-rule="evenodd"/><path d="M99.98 107.375c-7.876 7.555-12.073 21.787-11.634 35.538 2.479-13.312 5.397-20.427 15.79-30.181 10.435-9.794 18.75-7.116 23.307-3.118.44-.88.84-1.8 1.239-2.24-2.478-2.637-5.796-4.436-8.715-4.876-7.075-1.799-14.99 0-19.988 4.877zm48.69 94.623c1.679-3.998 4.557-5.317 7.835-6.197-2.039-4.477-3.678-10.233-4.117-15.15-1.24 4.917-2.04 9.354-2.04 14.23z" fill="#c30000" fill-rule="evenodd"/><path d="M162.821 129.601c-4.197-8.874-15.03-16.43-24.585-16.43-4.597-.48-10.433.88-13.751 7.556 0 0 0 .44-.44.44 9.594-6.676 15.43-3.998 23.346 0 7.915 3.557 14.99 13.351 16.23 22.226 2.079-5.317.84-10.234-.8-13.792zm-57.485 128.363c.84 2.638 3.358 3.558 5.877 3.558 2.918 0 4.597-2.24 5.876-4.918.8 6.237-2.958 8.875-7.555 7.556zm29.502.479c.84 3.518 4.597 6.157 8.755 4.398 4.597-2.199 4.597-6.596 4.597-6.596s.8-1.8 0 .44c-.84 2.198-7.515 8.794-13.352 1.758z" fill="#0d5e8f" fill-rule="evenodd"/><path d="m145.312 120.367-8.755-6.196s-2.078-.92-5.836.44c-2.079.879-4.597 3.078-6.236 6.196-4.598 9.314-7.516 18.628-10.034 26.624-1.68 4.437-3.318 11.553-5.437 19.948 7.515-25.705 19.228-54.128 36.298-47.012z" fill="#0d5e8f" fill-rule="evenodd"/><path d="m99.02 117.569-7.076 1.799c-4.157 10.233-4.957 23.545-2.478 34.659l2.918 9.314c2.479 7.555 5.836 17.35 9.154 26.664.4-2.639.84-5.317 1.64-7.556-6.237-21.746-18.31-41.734-4.158-64.88zm55.806 76.873c-2.878 3.998-4.117 9.794-4.517 14.671-.84 5.357-2.878 11.593-2.878 17.35 0-10.674-.44-22.667 3.717-32.94zm-5.276 51.049c1.678 3.118 3.317 9.355.839 12.473 3.318 2.638 5.796 2.198 7.875 0 1.68-2.239 2.918-6.237 4.997-7.116 2.519-.92 4.997 0 6.676-2.239.8-1.759 2.878-9.794.4-10.673 0 3.118-.4 5.357-2.918 7.555-2.479 1.8-4.558 0-7.076 1.36-2.878 1.319-4.557 3.078-7.036-.92-2.918-3.558-5.437-8.875-4.997-13.792zm35.298-3.518c2.079 3.078 4.197 6.157 7.116 2.639 2.078-1.76 3.318-7.915 1.679-10.154 0 7.515-4.198 7.515-8.795 4.437-.84-.44-2.079-1.319-2.918-1.319-1.24 0-1.68 1.32-2.918 1.32-1.28.439-4.598-.44-5.877-1.32 1.28 3.518 6.276 4.837 9.634 3.078z" fill="#c30000" fill-rule="evenodd"/><path d="M158.664 237.976c2.518 1.319 5.397.88 7.475 2.198 3.318 2.2 3.318 5.317 1.64 7.956 2.078-1.32 4.557-8.395 2.078-10.154-1.24-.44-2.478-.88-3.718-.88-1.639-.48-5.796-.48-7.035 1.32z" fill="#c30000" fill-rule="evenodd"/><path d="M38.257 198.08c11.713 5.796 30.022 5.796 44.613-6.716-4.997 5.357-22.906 17.83-44.613 6.716zm177.013-6.236c-.84 4.437 2.078 19.028 13.671 20.347-4.557.44-14.95-4.397-13.671-20.347z" fill="#fff" fill-rule="evenodd"/><path d="M145.752 353.906c-.8 3.557-4.558 5.756-8.315 6.196 9.154 5.796 3.318 4.437 14.59 7.555 7.077 1.8 13.713 2.239 19.949 4.477 6.676 2.639 13.352 3.998 19.988 7.076 7.075 3.558 19.148 1.8 15.43-4.437-.84-1.76.84-6.676-1.279-10.674-2.079-3.118-8.315-5.316-10.394-8.435-2.478-4.437-1.239-9.354-2.078-11.113-1.24-2.238-6.237-5.796-9.555-9.794-.84.92-1.279 2.239-1.279 4.917.44 4.877 4.597 8.435 4.158 13.752-.4 4.477-2.479 6.236-6.237 7.115-4.997 1.36-10.393-1.758-14.55-4.877-2.919-1.758-5.437-2.678-7.916-2.678-.84 0-2.518.92-2.518 1.36 0-6.237-3.318-12.473-7.916-16.031-2.078-1.759-12.072-10.234-13.711-8.435-1.28.88 2.478 4.437 5.396 8.435 2.519 3.118 4.158 7.116 4.598 7.995.84 2.239 2.078 5.357 1.639 7.596z" fill="#ce5d73" fill-rule="evenodd"/><path d="M136.197 303.296c2.519.92 7.076 8.875 8.755 11.553 2.079 3.998 3.318 8.435 5.397 12.433 4.997 10.193 11.233 14.191 20.787 18.149-.8 0-1.639-2.639-1.239-3.518 0-.44-1.639.44-2.079-1.8-.4-1.758 1.24-.879 1.24-1.758 0-2.678-1.24-5.317-.4-6.196 0 3.078-2.918 5.756-4.557 5.756-3.358 0-6.676-2.238-8.755-6.676-.84-1.759-2.079-7.955-3.758-11.953-1.24-2.238-2.478-3.557-3.318-4.437zm41.215 22.307c-2.038 4.837-5.396 7.075-4.117 12.832.4 2.638 2.079 4.877 2.878 7.076.84 2.638.44 5.316 1.24 8.395-.4-1.76 3.357-10.594 1.279-12.393-4.598-3.958-1.28-7.515 4.117-8.835-2.039-2.678-3.318-4.437-4.557-7.555zm-40.015-4.078c3.358 2.679 4.197.48 3.358-2.638-.44-2.239-3.358-5.317-4.637-7.116 3.357 3.118 8.394 7.555 7.555 13.312-.84 6.196-8.835 1.799-8.395-2.199zm107.814 33.34c-2.478-7.516-2.918-13.752 0-12.832 2.919.44 4.198 3.518 7.116 5.756 2.918 2.199 7.476 9.754 4.997 11.953.84-1.759-2.079-5.757-5.836-7.955-3.358-2.239-7.076-.44-6.277 3.078zm14.632 7.035c.839-1.319.4-3.077 0-4.836-.44-1.8.839-1.8 2.078-.44.8.88.8 2.638 2.039 3.518-1.639-1.76-2.039-1.76-2.478-.44z" fill="#ad3652" fill-rule="evenodd"/><path d="M137.357 321.965c-.4-.88-1.24-1.76-1.64-2.679 0 .48.4 1.36.4 2.24-.4 0-.839 0-.839-.44.44.879-.4 1.319-1.24 1.319.84.44.44.88.84 1.759.4.44.4.44.84.879 1.239.88 1.639.88 3.278.88zm10.833-6.716c-.8-.88-1.24-3.078-1.639-4.397-.84 2.638-.84-.44-1.639-1.32-.44-.44-.44 0-.84-.44-.839-.44-.44-.879-.839-1.758-.4-.44-.84-.44-1.639-.88-.44-.44-.84-.88-1.679-1.319-.84-.44-1.639-.44-2.918-1.36 0 .48 1.28 1.8 1.679 2.24l3.718 3.957c.84 1.32 1.679 2.199 2.918 3.078.84 1.76 1.639 3.078 2.878 4.398zm19.668 20.028c1.24-2.239.84-3.998.84-6.236v-6.237c0 2.239-.4 6.237 1.639 7.556-.8.44-.8 1.359-.4 2.238 0 .44.4.44.4.88s-.4.88-.4 1.32c-.4 1.358.4 1.358.4 2.238 0 .44-.4.88 0 1.759-.8-1.32-2.039-.88-2.479 0zm1.12 6.636h2.478c-.8.44-1.24 1.759 0 2.198 0 .44 0 .88-.8 1.32-.44 0-.839-1.32-1.678-.88zm9.674 0c.84.48 1.679.48 2.078.92-1.679.879-.4 3.077.4 3.997-2.478-.44-1.239 3.518-1.239 4.877-1.639-.88-2.479 1.759-2.918 3.078 0-.88.44-1.759.44-2.638v-4.877zm-4.677-10.633c.44-.88.84-.88.84-1.76.439-.88.439-2.198.439-3.518-.44-1.759-.84-3.517-1.68-4.877-.439.48.4.48.84.92.84.44 1.24 1.319 1.68 2.198.839.88 2.078 2.2 2.078 3.079z" fill="#ad3652" fill-rule="evenodd"/><path d="M215.23 307.813c-2.479 0-1.24 4.838-.84 6.197 0 .88.84 2.198.84 3.078.4 2.238.4 4.437-.4 6.196-2.079-5.317-6.636-10.154-8.275-15.95-.84-2.199-1.64-3.958-2.479-5.757-.84-1.319-2.078-2.638-1.639-4.437 2.479.48 5.757 1.36 7.836 3.558.4.44.4 1.319 1.239 1.759.84.48 2.079.48 2.878.92 1.64.439 2.878 3.077 2.479 4.876-.4 0-.84 0-1.24-.44zm-27.944-31.221c2.959 1.8 4.638 5.837 6.317 8.515 1.279 1.32 1.679 3.118 2.518 4.877.44.92 1.28 1.8 1.68 2.679.839.92 2.518 2.238 2.518 3.118-.84 0-1.24-.88-1.68-1.32-.839 0-1.239-.44-1.678-.879-.4 0-.84-.92-1.24-.92-.84-.44-.84 0-1.279.92-.84-.48-.4-2.239-.4-3.598-.44-1.759-.84-3.997-2.118-5.356-1.24-1.32-1.68-3.119-2.519-4.438-.4-.44-1.679-2.678-2.119-2.678z" fill="#ce5d73" fill-rule="evenodd"/><path d="M194.042 290.824c-.4.48-.84 1.799-1.239 2.238-.8.88-1.24.88-2.478 1.32.44.44 1.679.88 2.078 1.319.8.48 1.64 1.359 2.479 2.238.8.88 2.878 1.32 4.077 2.639z" fill="#ce5d73" fill-rule="evenodd"/><path d="M212.831 285.947c-.4.48.44 1.799.44 2.678.4.88.8 1.759 1.239 2.638.8 1.32 2.478 3.119 4.118 3.998.839.44 2.918 1.32 3.317 0 .44-.88 0-3.118-.839-4.437.84 3.118 4.557 5.756 4.157 9.274-.839 0-1.239-.44-1.639-.44-.839-.44-1.679 0-2.078 0-1.68 0-2.918-.44-4.158-1.319-1.639-.88-2.078-1.319-2.878-3.518-.84-2.678-2.518-4.437-2.079-7.515z" fill="#ad3652" fill-rule="evenodd"/><path d="M221.426 292.583c1.279.92 1.719 1.799 2.958 2.678 1.28 0 1.28.44 1.719 1.36.4.439 1.24 1.758 2.119 1.758 1.239-.44.84-2.199.4-3.118.44 1.799 1.678 2.678 1.279 4.038 0 1.319-.84 2.198-1.68 2.638-1.279 0-1.718-.44-2.558-1.32 0-.439-.4-.439-.84-.879-.439 0-.839-.44-1.278-.92z" fill="#ad3652" fill-rule="evenodd"/><path d="M235.657 304.216c-.44 0-.84-.88-1.28-.88-.799-.44-1.238 0-2.078.44.44-.88 1.68-.88 2.079-1.32 1.28-.439.84-1.358 1.28-2.678.399-.88.799-1.319.399-2.678-.4-.88-.4-1.759-.4-2.678 2.039 1.798 2.878 4.037 4.557 6.236 1.64 2.238 2.479 4.917 2.879 7.115zm-17.069 21.307c0-1.32.799-4.877 2.838-3.998-.8-.44-1.6-.44-2.039-.88-1.2-.919-1.599-1.359-2.039-2.238-.8-1.36-1.199-2.678-2.438-3.598-.4 1.36-1.24 1.8-1.24 3.598 0 2.239.44 4.877 1.64 6.676.44 1.36.839 1.799 1.639 2.678.4.88.4.88.839 1.8 0 .879 1.2 2.198 2.039 1.758 0-.44-.44-.44-.44-.88 0-.879-.4-1.798-.4-2.238 0-1.32-.4-1.759 0-3.118z" fill="#ce5d73" fill-rule="evenodd"/><path d="M164.82 359.702c-2.438-.44-5.756-1.799-7.395.92-1.24 1.359.44 3.158 1.639 3.597 1.679.88 3.318 0 4.957-.44-1.24 0-4.518 0-4.118-1.798 0-.92 2.479-.92 2.878-.92.84-.44.84-.88 1.64-1.359zm9.235 5.357c2.478.88 4.557 1.799 7.075 1.319 2.479 0 4.118-1.759 5.797-3.558 2.478-3.118 2.478-6.716 4.557-9.394-.4.48-.84 1.799-.84 3.158.44 1.759 1.24 1.759 2.08 3.118 1.238.88 4.556 4.477 2.518 5.357-1.28-.88-4.598-.88-5.837-.88-2.079 0-1.239 3.558-1.239 5.357 0 1.759-1.24 2.199-1.24 4.437-.439 2.679-.839 3.118-3.317 2.239-2.079-.88-4.158-.88-6.237-2.239-1.639-.88-4.157-1.759-6.236-2.678-.8 0-3.717 0-4.157-1.32 0-1.358 1.679-2.678 2.518-3.117.4-.48 1.64-.48 2.079-.92.4-.44.8-1.319 1.24-1.759 1.239-.48 1.239.88 2.478.44z" fill="#ad3652" fill-rule="evenodd"/><path d="M137.317 330.88c-1.64.44-2.878-3.558-3.318-4.478 0 .48 0 2.239-.84 2.239 0 .92.44 2.678.84 3.118z" fill="#ce5d73" fill-rule="evenodd"/><path d="M194.802 276.592c.44 3.118 1.679 5.797 3.798 8.435.84.88 1.679 1.32 2.918 2.239.84 1.32 1.24 1.759 2.518 2.199 1.24.44 2.08 1.759 2.919 2.238.84.88 2.078.88 3.358 1.32 1.239.879 1.679 2.198 2.518 2.638.84.44 2.079 0 3.318 0-1.24-3.958-3.758-6.196-3.758-10.194-.4 1.799.44 3.998-1.679 3.998-2.078.44-4.157-.44-5.436-1.32-1.68-1.799-4.158-2.238-5.437-4.437-.84-.88-1.24-2.239-1.68-3.118-.839-.44-2.917-1.759-2.078-2.638zm15.071-4.877c-.44 3.598 2.079 7.596 4.557 8.955 1.639.88 3.718.88 4.517 3.118.44.88.44 3.998-1.639 2.239 2.479.88 3.718.88 4.118-1.8 0-3.117-2.039-3.997-4.118-4.916-2.878-1.32-7.875-6.236-7.435-9.834zm28.263 47.971c-.4-.88-.8-2.638-2.04-3.118-1.198 0-1.638 1.36-1.638 2.679.44 3.118 3.678 4.477 4.477 7.555-.4-.88-1.2-2.199-1.599-3.078-.4-.92-1.24-1.8-1.24-2.679-.399-1.359.84-2.238 2.04-1.359v-.44z" fill="#ad3652" fill-rule="evenodd"/><path d="M240.614 329.04c-2.039.44-2.039 6.237-3.718 7.596-1.639 2.638-3.717-.48-5.796 1.32 2.918-.88 4.557-2.24 6.236-4.918.8-1.759.4-1.759.4-3.558-.4-1.359-1.24-2.238-.84-4.037zm.44-46.611c3.358-.88 2.918 1.759 4.197 3.518 1.68 2.638 2.08-.88 4.158-1.32-1.64-2.198-3.758 0-5.437-2.198-1.24-2.199-1.679-5.277-5.037-4.837zm11.233-30.302c.44 2.719 2.159 5.437 2.159 7.676-2.599 0-3.038-4.038-3.038-6.317zm-40.375 48.491c2.038 6.676-6.237-1.8-6.636 1.759 0 .92 2.478.92 2.878 2.238 0 2.239-2.079.88-2.878 2.239-1.28 2.199 0 3.078 2.038 2.638 2.919-.44 0-1.319 1.28-3.078.4-.92 3.318-.92 4.117-1.359 0-.44 0-.44.44-.88.4-.44.8 0 1.24 0 1.238-.44 2.078 0 2.877-1.319zm22.466-5.797c-1.679 2.679 4.157 6.676 4.557 8.875-1.24.88-3.318-.88-4.157-2.199-.8-2.238-.4-3.997-4.158-3.997zm-4.078 13.272c-1.239 1.36-3.358 1.8-3.757 4.038 0 1.319 2.078 2.678.4 3.558-2.919.88-3.359-7.596-6.317-7.596z" fill="#690a24" fill-rule="evenodd"/><path d="M235.657 336.156c.84 2.639-.4 2.199-1.639 3.078-1.24.88-2.918 2.2-.84 3.518 2.08 1.32 2.48-1.759 2.919-3.078.4-1.759 2.039-3.957 2.039-5.277zm8.715 5.757c-1.28 2.238.4 4.877 0 6.636-.44-3.078.4-5.717 3.758-3.518 0-1.32-1.68-2.199-2.08-3.118z" fill="#690a24" fill-rule="evenodd"/><path d="M108.214 320.086c5.837 0 12.073 4.517 14.152 6.316zm45.493-43.494c-1.28 1.36-6.396 3.598-4.677 6.237zm89.066 23.506c5.836 5.797 24.545 39.616 26.624 47.172zm16.67-14.631c-.84 3.158 1.639 8.515 2.838 9.834z" fill="#edc2c5" fill-rule="evenodd"/><path d="M262.361 312.21c1.679 2.68 4.957 3.559 7.036 5.797 1.639 2.199 2.878 4.877 2.878 7.995-.4 6.676-1.639 12.913-.8 19.109-2.478-6.196-2.478-12.872-2.918-19.548-.4-6.676-6.196-12.473-8.275-18.27zm2.919-38.696c.839 4.478 1.238 9.395 1.678 14.272.4 4.037 1.64 9.354-4.157 8.035 3.318-4.478 3.717-10.274 2.478-16.07-1.239-4.878-2.478-10.234-4.997-14.272z" fill="#d3677d" fill-rule="evenodd"/><path d="M28.743 182.89c-7.076 3.997-22.947 21.786-22.947 55.965.84-7.075 5.037-39.976 22.947-55.966zm-19.149-6.197c-1.679 1.36-2.958 4.037-3.798 5.796.44-3.118 1.28-7.995 4.198-7.995s8.755-.48 8.755-.48c-2.479 0-6.237.48-9.155 2.679zm4.957-22.267c-1.679 1.36-2.918 4.038-3.798 6.237 0-3.118 1.28-7.996 4.238-7.996 2.918 0 8.795-.48 8.795-.48-2.08 0-6.277 0-9.235 2.24z" fill="#fff" fill-rule="evenodd"/><path d="M161.462 264.6c2.519-1.76 2.958-4.837 3.358-7.476 1.68 1.32 5.437.44 7.116-.92 2.478-2.198 1.239-5.716 2.079-8.394 2.478 1.799 2.478 5.756 1.679 8.834-1.28 4.877-6.277 7.516-10.874 8.835z" fill="#c30000" fill-rule="evenodd"/><path d="M243.093 288.625c-4.158-6.236-18.31-27.103-17.87-31.98 0 .44-.44.44-.839.44-4.997 0-21.627-6.677-27.863-15.112-2.079 8.435-7.516 9.794-12.513 8.435 9.994 3.998 39.537 21.787 56.206 50.17" fill="none" stroke="#333" stroke-width=".8" stroke-linecap="round" stroke-linejoin="round"/><path clip-path="url(#a)" d="M32.5 70.517c-8.315-1.799-15.79-3.558-18.708-4.917-5.837.92-8.755 11.553-4.598 15.99 4.158 1.36 14.991 4.438 14.991 4.438-5.836 0-12.912.44-15.79.44-5.437 1.799-6.276 15.55 1.24 16.87 7.075.44 15.79.879 23.265.879-.4-11.513-.4-23.066-.4-33.7" fill="none" stroke="#333" stroke-width=".8" stroke-linecap="round" stroke-linejoin="round"/><path clip-path="url(#a)" d="M32.5 70.517c-8.315-1.799-15.79-3.558-18.708-4.917-5.837.92-8.755 11.553-4.598 15.99 4.158 1.36 14.991 4.438 14.991 4.438-5.836 0-12.912.44-15.79.44-5.437 1.799-6.276 15.55 1.24 16.87 7.075.44 15.79.879 23.265.879-.4-11.513-.4-23.066-.4-33.7" fill="none" stroke="#333" stroke-width=".8" stroke-linecap="round" stroke-linejoin="round"/><path d="M33.78 51.289c0-3.278 10.713-5.996 23.865-5.996 13.192 0 23.866 2.718 23.866 5.996 0 3.318-10.674 5.996-23.866 5.996-13.152 0-23.865-2.678-23.865-5.996m125.683-31.021c.84 0 2.08-1.32 3.678-2.639M12.552 151.388c-4.157 2.679-4.597 16.07 1.64 17.39 2.918.44 1.279.44 7.915.44 0-.88.4-1.76.84-2.679v.48c2.078-5.357 4.157-10.714 5.796-16.11-9.954 0-11.633 0-16.19.48" fill="none" stroke="#333" stroke-width=".8" stroke-linecap="round" stroke-linejoin="round"/><path d="M42.094 51.169c0-1.599 6.996-2.918 15.551-2.918 8.595 0 15.55 1.319 15.55 2.918 0 1.639-6.955 2.918-15.55 2.918-8.555 0-15.55-1.279-15.55-2.918" fill="none" stroke="#333" stroke-width=".8" stroke-linecap="round" stroke-linejoin="round"/><path clip-path="url(#a)" d="M249.849 207.354c5.436 3.118 17.07 14.232 26.663 27.104 7.476 11.113 15.391 21.747 20.828 39.536 7.875 23.506 4.157 45.732 3.718 65.28-.4 36.858-1.64 56.366-14.991 68.799-13.312 12.432-41.615 9.354-64.921 7.555-15.83-1.32-104.936.88-166.58-67.919 0 0 3.359-1.359 6.677-6.236 4.157-8.875 2.518-11.553 2.518-11.553v-.44c1.64 1.8 4.558 3.118 5.397 5.357 11.233 22.187 59.124 55.926 92.864 64.8 60.763 15.991 109.893 8.915 121.126-2.638 6.676-6.676 5.437-32.42 6.277-60.403.4-20.867 4.997-43.094-.84-59.964-6.676-20.427-34.14-56.805-35.818-62.602" fill="none" stroke="#333" stroke-width=".8" stroke-linecap="round" stroke-linejoin="round"/><path d="M85.348 375.213c-10.833-7.556-21.227-16.87-30.821-27.544-9.194 2.679-17.11-6.676-23.786-22.226 1.68 9.794 2.919 19.108 2.919 26.664 0 5.796.44 8.434.84 25.784 0 0 0 0 0 0v.44c0 3.558 11.272 6.196 25.424 6.196 14.191 0 25.424-2.638 25.424-6.196l-.4-.44h.4v-2.678z" fill="none" stroke="#333" stroke-width=".8" stroke-linecap="round" stroke-linejoin="bevel"/><path d="m222.745 75.434-5.836-.88c-12.073 0-24.146-.479-33.74.44-5.397.44-9.994.88-13.712.88 0 0 0 0 0 0-1.279 0-2.118 0-2.918.44h-.84c-.839 0-1.239.44-2.078.44h-.84c-.84.44-1.239.44-2.078.879h-.44c-.8.44-1.64.44-2.479.92-.44 0-.84.44-.84.44-.839 0-1.238.439-1.678.439-.4.44-.8.44-1.24.88-.4 0-.839.44-1.239.44-.44.439-.84.439-.84.879-.399 0-.839.44-1.678.919-.4.44-1.24.88-1.64 1.32-.439 0-.839.439-.839.439-.44.44-1.239.88-1.679 1.32 0 0-.4 0-.4.439-.439.44-.839.92-1.678 1.359 0 0 0 0 0 0-1.68 1.759-3.318 3.078-4.997 4.877v.44c-14.591 15.99-22.906 40.415-27.064 53.727-5.437 18.19-15.43 55.966-13.312 85.708 1.64 25.745 4.997 35.939 14.551 35.059 9.595-1.32 6.237-15.99 6.237-15.99s4.997-4.877 5.436-7.995c1.24 3.118 6.676 6.676 6.676 6.676s-.44 16.43 9.554 15.99c9.994-.44 11.673-10.234 8.355-19.988-2.918-10.634-2.518-36.418.4-55.926 4.158-29.782 16.67-54.207 37.497-58.205 11.234-1.32 22.867-2.638 31.222-2.199 19.548.44 13.751-51.968 4.157-54.167" fill="none" stroke="#333" stroke-width=".8" stroke-linecap="round" stroke-linejoin="round"/><path d="M127.043 110.613c0-.92.4-1.36.84-1.799.4-.44.839-1.32 1.239-1.759 0-.88.44-1.36.84-1.799 0-.44.399-.44.399-.88-2.478-2.198-5.836-3.997-9.594-4.876-8.315-2.239-17.51.44-23.746 6.196-10.433 9.794-14.63 27.104-12.112 43.094 0 0 0 0 0 0 .44 2.198.839 4.437 1.679 7.076 1.239 7.115 7.515 24.425 14.19 39.496 2.92-19.509 7.916-37.698 11.234-48.81.44-.88.44-1.76.84-2.68 0-.439.44-.439.44-.879s.4-1.319.4-1.759c.439-.44.439-.88.439-1.359.4-.44.4-1.319.8-1.759 0-.44 0-.88.44-1.319 0-.44.399-1.36.399-1.799.44-.44.44-.88.84-1.319 0-.88.44-1.32.44-1.759.399-.92.399-1.36.799-1.799 0-.44.44-1.32.44-1.759.4-.44.4-.88.839-1.799.4-.44.4-1.319.84-1.759 0-.44.4-.88.799-1.759 0-.48.44-1.359.84-1.798 0-.44.439-.88.439-1.76.4-.44.84-1.359 1.24-1.798 0-.44.439-1.32.839-1.76 0-.439.4-1.318.84-1.798.399-.44.399-1.32.839-1.76.4-.439.84-1.318 1.239-1.758" fill="none" stroke="#333" stroke-width=".8" stroke-linecap="round" stroke-linejoin="round"/><path d="M112.052 146.471c2.918-9.754 8.315-25.304 16.63-39.096-2.478-2.678-5.796-4.437-8.715-4.877-7.075-1.799-14.99 0-19.988 4.877-12.072 11.113-15.43 37.337-7.915 54.207 2.479 7.555 5.837 18.229 9.554 28.423 2.919-17.31 7.516-33.3 10.434-43.534" fill="none" stroke="#333" stroke-width=".8" stroke-linecap="round" stroke-linejoin="round"/><path d="M17.07 190.485c9.594-13.752 23.346-17.75 40.815-19.549 24.585-2.638 34.18 4.478 34.979 4.917 0-.44-.4-.919-.4-1.798-.4 0-.4 0-.4-.44-.44-.44-.44-1.32-.84-2.199v-.48c-.839-1.759-1.239-3.078-1.678-4.877l-.4-.44c0-.44-.44-1.319-.44-1.758v-.48c-.4-.88-.4-1.32-.84-2.199 0 0 0 0 0 0 0-.44-.399-1.319-.399-1.799v-.44c-.4-.44-.4-.879-.4-1.319v-.44c-.44-.439-.44-.879-.44-1.318-.4-1.36-.839-2.679-.839-4.038 0-.44-.4-.88-.4-1.32 0-.879-.4-1.758-.4-2.198 0-.92 0-1.36-.44-1.799v-2.198c-.399-.48-.399-.92-.399-1.36 0-.88 0-1.759-.44-2.638v-1.36c0-.879 0-1.318-.4-2.198V133.2c0-.44-.44-1.359-.44-1.799v-7.117c-.399-.44-.399-1.319-.399-2.198v-7.116s0 0 0 0v-10.673c-.4-13.312-.4-27.104-.84-38.217 0-8.875-.4-10.634-.4-13.752-1.678 2.679-11.672 4.877-23.345 4.877-13.312 0-24.145-2.678-24.145-6.236v1.799c-.4 3.998-.84 4.877-.84 11.993-.4 16.43-.4 38.217 0 55.966.44 12.912-2.918 28.902-9.994 46.212-1.24 3.558-4.557 11.993-5.836 23.546m102.378 60.843s3.358 14.59-6.277 15.91h-1.679s0 0 0 0c7.116.88 14.632-1.759 13.392-23.905-.44 3.118-5.436 7.995-5.436 7.995zm12.112-1.32s-5.436-3.557-6.676-6.675c.84 8.434 2.919 24.345 16.27 22.586-9.993.44-9.594-15.91-9.594-15.91zm-6.995-129.281c3.317-6.676 9.154-7.995 13.711-7.556 9.594 0 20.428 7.556 24.585 16.43 2.079 4.438 3.318 11.553-1.679 18.67l2.08 1.758c4.596-6.636 5.396-14.191 2.078-21.747-4.997-9.754-16.63-17.749-27.064-17.749-7.036-.48-12.872 3.078-16.23 9.314l2.519.88z" fill="none" stroke="#333" stroke-width=".8" stroke-linecap="round" stroke-linejoin="round"/><path d="M147.43 190.005c2.52-17.35 7.076-31.541 14.192-41.775 4.557-7.555 3.318-14.191 1.24-18.629-4.158-8.914-15.032-16.43-24.626-16.43-4.557-.48-10.433.88-13.751 7.516 0 0 0 0 0 0-4.598 9.354-7.516 18.669-9.994 26.664-4.598 15.55-15.471 54.647-13.352 84.828.84 11.993 2.078 26.664 7.075 31.101 1.24.88 2.519 1.32 4.598 1.32 1.679-.44 2.478-.88 3.318-1.76 1.679-3.117 1.279-8.874.84-11.113-.4-.879 0-1.758.839-2.638 1.679-1.799 4.157-4.917 4.597-6.236 0-.88 1.24-1.76 2.079-2.239 1.239 0 2.078.92 2.518 1.8.8 1.318 3.318 3.997 5.836 5.316.84.44 1.24 1.359 1.24 2.239 0 2.638.4 9.314 2.918 11.992 1.24.88 2.079 1.32 3.758 1.32 2.918 0 4.997-1.32 6.236-3.119 1.679-2.638 1.679-7.555 0-13.751-3.318-11.553-2.079-38.657.44-56.406" fill="none" stroke="#333" stroke-width=".8" stroke-linecap="round" stroke-linejoin="round"/><path clip-path="url(#a)" d="M111.972 146.511c.4-.88.4-1.799.84-2.678 0-.44.4-.44.4-.88s.4-1.319.4-1.759c.439-.48.439-.919.439-1.359.4-.44.4-1.319.84-1.759 0-.44 0-.88.4-1.359 0-.44.439-1.32.439-1.759.4-.44.4-.88.8-1.319 0-.92.44-1.36.44-1.799.399-.88.399-1.32.839-1.759 0-.44.4-1.359.4-1.799.44-.44.44-.88.839-1.759.4-.44.4-1.359.84-1.799 0-.44.4-.88.839-1.759 0-.44.4-1.319.84-1.798 0-.44.4-.88.4-1.76.399-.44.839-1.319 1.238-1.798 0-.44.44-1.32.84-1.76 0-.439.44-1.318.84-1.758.4-.48.4-1.36.839-1.8.4-.439.84-1.318 1.239-1.758 0-.92.44-1.36.84-1.799.4-.44.839-1.32 1.239-1.759 0-.88.44-1.359.84-1.799.439-.44.839-1.319 1.239-1.759.44-.44.44-1.359.839-1.799.44-.44.84-1.319 1.28-1.759a37.4 37.4 0 0 1 1.238-1.319c.4-.92.84-1.359 1.24-1.799.44-.44.84-.88 1.239-1.759l.44-.44v-.919c0-.44 10.433-15.11 27.103-17.749h4.997s0 0 0 0h2.479c.44 0 .44 0 .84-.44h6.676c1.238-.44 2.518-.44 3.757-.44 1.24 0 2.518 0 3.758-.48h30.821c-4.997-17.748-14.151-32.86-29.182-42.174-1.64-1.359-7.076-5.356-7.476-6.236-.44-1.319-1.239-3.997 1.24-9.794 2.078-7.076-9.595-14.191-14.152-6.196-1.28 1.759-2.119 3.118-5.037 7.995 0 0 .44-10.234-1.24-11.993-3.757-5.356-11.232-3.558-13.351-.88-2.479 3.079-.8 16.43-11.233 17.31-4.997-.44-4.597-6.236-4.158-10.233.4-3.998-13.791-4.438-15.03 3.557-.4 4.917-1.24 9.794-2.48 14.671-.439.88-2.118 3.558-2.917 3.998C84.869 58.085 82.35 74.515 82.35 101.62c0 11.113-.84 33.34 4.198 54.207 1.239 7.115 7.475 24.465 14.151 39.536 2.918-19.549 7.915-37.738 11.273-48.85" fill="none" stroke="#333" stroke-width=".8" stroke-linecap="round" stroke-linejoin="round"/><path d="M197.04 237.976c.4-11.993-14.19-20.428-21.267-26.624l-1.679-1.36c-11.672-10.633-19.188-20.867-20.027-39.096-.84 2.24-1.24 4.478-2.08 7.116 2.52 14.671 9.595 24.425 20.429 33.78l1.678 1.759c7.516 6.676 23.746 15.11 20.028 27.983-.84 3.118-2.118 4.877-4.197 5.316-2.479.48-4.158-2.638-5.837-5.316-.4-.44-.4-.44-.84-.44-.399-.44-.799 0-.799 0-1.679 1.32-6.276-.44-8.794-2.239h-1.64c0 .48-.439.92-.439 1.36.84 3.557-1.639 7.555-2.918 8.874-1.24 1.759-2.918 2.239-5.397 2.239-.84 0-1.28.44-1.28.88-1.238 2.638-2.917 6.635-5.396 7.115-1.24.44-4.597.44-6.276-.48-.4.92-.4 1.799-.84 2.678 2.12.88 6.277 1.32 7.956.44 5.396-1.759 5.396-5.317 6.236-7.995 3.358 0 5.437-1.32 7.076-3.118.839-1.32 3.757-4.877 3.757-7.515v-.92c2.519.92 5.837 2.239 8.355 1.36 2.519 3.077 4.158 6.196 7.516 5.756 2.918-.44 4.997-3.118 6.236-7.116" fill="none" stroke="#333" stroke-width=".8" stroke-linecap="round" stroke-linejoin="round"/><path d="M196.48 242.453s0 0 0 0c-1.238 3.998-3.317 6.636-6.195 7.076-3.318.44-4.997-2.639-7.476-5.757-2.478.88-5.796-.44-8.315-1.319 0 0 0 0 0 0 2.918 6.196 17.87 15.51 21.987-.48" fill="none" stroke="#333" stroke-width=".8" stroke-linecap="round" stroke-linejoin="round"/><path d="m174.055 213.59-1.64-1.758c-10.873-9.355-17.949-19.149-20.467-33.82 0 0 0 0 0 0-.84 4.038-1.68 8.035-2.079 12.033-2.918 19.548-3.358 45.332-.4 56.006 1.24 4.437 1.64 9.314.8 12.872 0 0 0 0 0 0 1.679.88 5.437.88 6.276.44 2.918-.88 4.158-4.438 5.437-7.116 0-.44.4-.88 1.24-.88 2.518 0 4.157-.44 5.436-2.198 1.239-1.36 3.758-5.357 2.918-8.915 0-.44.4-.88.4-1.319h1.679c2.518 1.76 7.075 3.558 8.754 2.199 0 0 .44-.44.84 0 .44 0 .44 0 .84.48 1.678 2.638 3.317 5.756 5.836 5.316 2.079-.44 3.358-2.238 4.197-5.316 3.718-12.913-12.552-21.347-20.067-28.023" fill="none" stroke="#333" stroke-width=".8" stroke-linecap="round" stroke-linejoin="round"/><path d="M159.463 236.697c5.837-2.719 12.073-.92 12.873 1.758m2.118 4.398s0 0 0 0v.48c0 2.638-2.918 6.196-3.757 7.515-1.64 1.799-3.758 3.118-7.076 3.118-.84 2.678-.84 6.196-6.276 7.995-1.68.88-5.837.44-7.916-.44v-.879c-.44 1.32-1.279 2.199-2.118 3.078.84 4.437 16.31 9.754 25.065 1.8 6.276-5.358 8.754-14.232 2.078-22.667m-52.408 89.785c-1.679 11.074 14.951 20.788 13.312 6.197-.44-4.398-1.679-9.275-6.236-10.594-2.519-.48-6.676.44-7.076 4.397M250.288 214.47c.4.88 1.24.88 1.68.88.799-.44.799-1.32.799-1.76-8.715-19.987-16.23-26.663-21.227-30.221l-2.919-2.199a83.525 83.525 0 0 1-1.239-1.319c0-.92 2.918-1.799 3.718-1.799l2.518-.88c2.919-1.798 8.315-3.117 7.076-18.668-1.24-14.631-11.233-17.75-14.151-18.189-3.358-.92-6.676.44-8.355 2.199-7.476-.44-37.058-2.199-51.25 2.238-1.238 1.32-2.078 2.639-2.917 4.438 0 0 0 0 0 0 10.433-5.797 44.613-4.438 55.006-3.998.44.44.84 0 1.28-.44.4-1.359 2.878-2.238 5.796-1.799 2.518.44 11.273 3.118 12.113 15.55 1.239 14.232-4.598 15.552-5.837 15.991l-1.679.88c-2.478.92-5.397 1.799-5.836 3.997 0 1.8 1.679 3.558 2.078 3.998l2.919 2.239c4.597 3.118 11.673 8.874 19.588 26.663" fill="none" stroke="#333" stroke-width=".8" stroke-linecap="round" stroke-linejoin="round"/><path d="M246.93 174.094s-2.518-2.238-8.794-.44c-1.68 2.2-3.318 2.64-4.598 3.559l-2.478.88c-.84 0-3.798.879-3.798 1.758 0 0 .44.44 1.28 1.36l2.918 2.198c3.757 2.678 10.034 7.555 16.31 19.948 2.918-.88 9.154-3.518 9.154-7.955 0-5.317-4.557-19.549-9.994-21.308m-71.197-37.377c-3.757 2.639-7.075 6.196-10.433 10.194.84-.88 1.279-1.32 1.679-2.199 14.151-4.437 43.653-2.678 51.169-2.238 1.639-1.76 4.957-3.118 8.315-2.199h.8s0 0 0 0c-9.955-3.558-38.657-7.595-51.53-3.558m-7.075 181.21c-9.954-11.513-33.7-19.468-47.451-22.106-15.79-3.118-14.552-.92-29.143-6.676 9.994 6.676 17.51 9.314 26.664 21.707m-15.551 13.352c.44.44 1.28.879 1.68.879 3.357 1.759 11.712 7.076 17.549 12.832-.4-1.759-.84-3.518-.4-5.317.4-3.957 4.597-4.837 7.116-4.397 2.918.88 4.157 2.638 4.997 4.877h.4c-2.08-8.435-9.195-15.99-15.87-21.307" fill="none" stroke="#333" stroke-width=".8" stroke-linecap="round" stroke-linejoin="round"/><path d="M114.97 311.291c6.197 6.716 9.874 13.832 7.836 12.952-2.08-.879-6.197-3.118-10.754-4.917m6.636-7.555-.48-.48" fill="none" stroke="#333" stroke-width=".8" stroke-linecap="round" stroke-linejoin="round"/><path clip-path="url(#a)" d="M40.376 182.85c13.351-7.117 42.534-8.436 54.167-3.079-.8-1.36-1.24-2.678-1.64-4.038-.839-.44-10.433-7.555-35.018-4.877-19.188 1.8-33.78 6.676-43.334 23.986-6.676 12.033-9.594 23.586-11.273 47.571-2.518 35.539 18.349 59.564 27.503 82.23v.88c6.676 15.55 14.592 24.865 23.786 22.226 0 0 3.318-1.359 6.636-6.236 4.197-8.875 2.518-11.553 2.518-11.553-22.506-13.792-47.93-51.089-50.01-83.99-.839-37.336 7.476-53.327 26.665-63.12" fill="none" stroke="#333" stroke-width=".8" stroke-linecap="round" stroke-linejoin="round"/><path clip-path="url(#a)" d="M9.154 191.284c3.718.88 1.24.88 6.636.88.4-.44.84-.88 1.24-1.32.84-7.555 2.078-13.312 3.717-18.189-8.275-.48-9.514 0-12.832.44-3.318.44-6.676 16.43 1.24 18.19" fill="none" stroke="#333" stroke-width=".8" stroke-linecap="round" stroke-linejoin="round"/><path d="M44.093 309.053c-.4-.88-1.239-1.32-1.679-2.239 10.034 3.998 27.943 3.118 37.937-.88 9.195-3.997 17.51 1.8 26.664 11.514" fill="none" stroke="#333" stroke-width=".8" stroke-linecap="round" stroke-linejoin="round"/><path d="M112.052 319.766c-9.154-11.073-19.988-21.747-32.46-16.43-9.994 3.998-28.343 4.917-37.498.92-3.757-1.8-5.436-5.357-6.675-6.676-10.394-15.55-18.31-34.22-19.589-51.969-.8-39.096 9.195-52.008 25.425-60.443 12.073-5.757 44.973-7.556 54.167-1.76h.4c-.4-.879-.84-2.238-1.24-3.557-11.672-5.357-40.815-3.998-54.166 3.118-19.149 9.754-27.504 25.745-26.664 63.082 1.279 23.106 14.191 47.97 29.182 65.72" fill="none" stroke="#333" stroke-width=".8" stroke-linecap="round" stroke-linejoin="round"/><path d="M44.573 309.133c9.194 14.191 17.91 4.437 26.664 12.392 4.997 5.317 8.315 3.118 13.312 8.395 5.836-6.596 14.151-7.515 20.787-4.837m1.679-7.635c-9.154-9.715-17.909-15.511-26.664-11.513-9.994 3.997-27.903 4.877-37.937.88.44.918 1.28 1.358 1.68 2.238m104.096-25.265c2.519 3.518 9.115 1.32 5.837 8.355-.44 1.32-1.68 2.638-2.519 3.958" fill="none" stroke="#333" stroke-width=".8" stroke-linecap="round" stroke-linejoin="round"/><path d="M166.899 316.168c2.478 1.76 4.997 3.118 5.397 3.558 3.358 2.639 6.276 7.556 9.154 10.194-1.639-6.636-.8-13.312-4.557-20.867-2.519-4.438-9.155-7.556-11.233-11.993-2.08-3.998-1.68-7.555-2.919-11.113-1.239-2.679-4.997-5.317-5.836-7.556-.84-1.759-2.079-3.997-3.758-5.796-.4 4.037-5.397 4.917-5.836 8.035" fill="none" stroke="#333" stroke-width=".8" stroke-linecap="round" stroke-linejoin="round"/><path d="M147.43 280.59c-2.478-.44-6.236.88-9.594 2.678-2.078.88-3.717 1.76-5.396 2.199-5.437 1.36-11.673.48-16.27-2.638-8.315-5.357-14.991-19.549-15.391-30.222-.44-2.678-.84-5.357-.84-8.475-.44.92-.84 1.799-.84 2.239-3.357 11.553 4.998 32.02 15.831 38.656 4.997 3.118 12.073 4.438 17.91 3.118 2.078-.44 3.757-1.319 5.836-2.198 3.358-1.8 7.915-4.038 9.194-2.239 0 .44.4.44.8.44" fill="none" stroke="#333" stroke-width=".8" stroke-linecap="round" stroke-linejoin="round"/><path d="M111.173 290.384c-9.954.44-17.43-5.317-17.43-6.636.44-.92 12.872 3.998 17.43 6.636m7.515.919c-5.397-.879-23.825-13.311-22.546-15.07.84-1.8 20.068 13.312 22.546 15.07m-27.503 1.839c4.157.88 14.151 9.674 17.03 11.433-8.276-1.319-14.512-9.674-17.03-11.433m37.017-1.039c5.437-.88 13.392-4.837 20.468-6.156-6.236 3.957-15.031 6.156-20.468 6.156m6.316 2.319c4.997-.44 14.991-1.84 18.31-1.84-6.237 3.199-14.112 1.84-18.31 1.84m-69.638 7.035c4.998 0 16.63-3.518 16.63-5.276-.4-1.76-7.035.879-11.193-.44m6.237-5.357c2.518.44 9.994.44 6.676-4.437m1.639-7.556c4.597 2.199 5.436-4.437 7.075-7.515 1.24-2.239 3.758-1.8 4.597-4.877.8-2.679-1.279-7.556-1.279-10.674" fill="none" stroke="#333" stroke-width=".32" stroke-linecap="round" stroke-linejoin="round"/><path d="M183.209 341.913c2.478 6.276 6.636 14.75-1.28 18.309-10.833 4.877-16.23-9.834-25.424-6.716" fill="none" stroke="#de929c" stroke-width=".8" stroke-linecap="round" stroke-linejoin="round"/><path d="M174.494 365.099c8.755 3.997 12.952-1.8 15.83-9.834m-56.605-54.128c6.676 6.676 11.673 12.873 14.99 22.147 3.719 10.634 11.234 19.948 22.427 22.147" fill="none" stroke="#de929c" stroke-width=".8" stroke-linecap="round" stroke-linejoin="round"/><path d="M148.19 314.41c5.437 4.916 5.037 14.23 9.195 19.588 2.478 2.678 6.676 5.756 9.594 2.678 2.878-3.118 0-11.113.8-15.15m6.675 8.394c-2.438 4.437-2.438 5.797-.8 10.234 2.44 5.756 3.639 7.515 3.239 13.272m1.719-11.513c-2.918-3.998-2.479-4.438-.4-7.596.4-.44 6.596-2.238 4.557-1.319m-47.451-4.917c5.437 5.357 16.63 12.513 19.548 19.628 3.318 9.834-4.157 14.272-11.233 17.39" fill="none" stroke="#de929c" stroke-width=".8" stroke-linecap="round" stroke-linejoin="round"/><path d="M141.594 341.113c5.357 9.714 6.596 14.551-2.918 18.949m-3.838-50.13c1.28 3.118 5.917 5.757 6.316 9.315 0 3.078-1.679 4.837-4.197 1.758m24.185 37.818c-6.316-.44-5.436 6.596 1.68 5.276" fill="none" stroke="#de929c" stroke-width=".8" stroke-linecap="round" stroke-linejoin="round"/><path d="M249.489 212.151c-13.832 6.237-12.553 14.232-9.235 24.026 2.519 8.914.44 16.47.44 16.47 0 .88.4 1.759.84 1.759.84.44 1.679 0 1.679-.88 0-.44 2.478-8.435-.84-18.229-2.518-7.995-5.037-14.67 7.915-20.907 0 0 0 0 0 0m-53.808 27.583c6.277 8.515 22.947 15.191 27.944 15.191.44 0 1.24-.44 1.24-1.32 0-.439-.8-1.358-1.24-1.358-4.997 0-23.746-7.596-27.503-16.99m63.361 57.805c-6.236-1.32-12.072-3.118-17.51-6.716m-4.636 8.035c4.997 8.435 14.191 23.106 19.588 33.34 6.676 12.912 12.072 23.146 12.512 29.822l.4 1.32c.84-1.32 1.679-2.64 2.079-3.998.84-6.237-1.24-12.873-.4-19.109.4-3.997 1.639-12.033.84-15.59-1.68-7.116-16.27-14.672-13.752-22.667 2.079-7.155 7.915 0 9.154-4.037" fill="none" stroke="#333" stroke-width=".8" stroke-linecap="round" stroke-linejoin="round"/><path d="M256.445 286.866c0 1.8 0 2.679 1.679 5.357.839 1.36 2.078 3.118 3.318 4.437 2.918-1.319 7.475 3.118 7.075-2.638 0-8.475-2.918-20.947-4.557-26.744-1.28-3.558-6.276-6.676-7.915-10.674-.44-1.359-.84-3.118-1.28-4.477.84 6.236 1.68 9.355 3.758 13.832 2.08 4.437 1.24 4.877 0 7.115" fill="none" stroke="#333" stroke-width=".8" stroke-linecap="round" stroke-linejoin="round"/><path d="M193.683 227.342c2.118 3.118 3.757 6.676 3.358 10.674v-.44c3.757 9.354 22.466 16.91 27.463 16.91.44 0 1.24.88 1.24 1.319 0 .44-.4.44-.4.88 0 1.798 1.678 5.356 4.157 9.793 6.676 4.878 17.91 12.873 28.303 21.308m1.999-13.352c-5.397-8.875-14.152-24.905-16.23-35.139 0-.44-.4-.44-.4-.44 1.679 7.995 0 14.232 0 14.671 0 .92-.84 1.36-1.68.92-.4 0-.839-.92-.839-1.8 0 0 2.119-7.555-.4-16.47-3.318-9.753-4.597-17.788 9.155-24.025" fill="none" stroke="#333" stroke-width=".8" stroke-linecap="round" stroke-linejoin="round"/><path d="M232.3 246.41c-3.359 2.24 13.75 20.908 18.308 24.426-7.915-7.995-14.151-26.224-18.309-24.425m20.468 32.899c-12.473-7.115-31.661-30.66-28.743-32.9 2.119-1.798 15.83 22.707 28.743 32.9m-6.677-24.424c1.24-.92 9.595 16.95 10.834 18.268-4.157-3.997-11.273-16.51-10.833-18.268m-24.185 4.477c1.239-.92 7.475 12.832 11.193 18.589-5.357-5.317-13.272-17.27-11.193-18.59m-4.518 7.476c1.24-2.238 12.113 13.352 14.591 16.47-3.757-3.997-15.03-14.67-14.59-16.47m11.552-21.667c-2.438-3.118-3.678-14.31-5.317-12.512-1.639 1.799 2.08 8.515 5.317 12.512m-7.515 19.429c-2.039-2.639-7.036-8.795-9.075-7.916-2.518 0 6.197 7.036 9.075 7.916" fill="none" stroke="#333" stroke-width=".32" stroke-linecap="round" stroke-linejoin="round"/><path d="M212.311 285.147c.84 3.558 3.798 7.556 6.316 9.754 4.158 3.518 4.158-1.319 1.68-4.437m-5.037 5.316c.44 1.76 3.357 3.519 4.997 3.958 1.678.84 3.757-.88 4.996.84m.4-5.277c.44.88.44 2.638 2.079 2.638 2.878 0 .84-2.638.4-3.997m4.957 11.593c0-.88 0-1.32.88-1.76 1.238-.479 1.678 1.32 2.518 1.76 1.239 2.198 2.918 3.997 4.597 6.196 5.037 6.636-.84 17.27 3.798 24.345m.839 19.708c-2.079-2.678-2.079-8.474-2.079-11.633.44-5.356 2.919-1.759 4.957.48 2.479 2.679 5.797 5.317 7.876 8.475 1.199 2.199 2.438 7.995-2.08 6.236m4.998 3.438c1.239-2.638.44-4.437 0-7.515 2.918-1.36 3.318 4.877 5.357 6.196m-49.45-46.172c-.84-.88-2.519-6.676-.84-7.556 2.079-.919 5.437 3.998 6.276 5.317 1.68 2.679 3.758 5.357 4.997 8.475.84 2.199 2.079 8.435 0 9.754" fill="none" stroke="#de929c" stroke-width=".8" stroke-linecap="round" stroke-linejoin="round"/><path d="M225.263 324.204c-1.239-.88-3.318-3.079-4.996-2.2-2.12.88-1.68 3.519-.84 5.278" fill="none" stroke="#de929c" stroke-width=".8" stroke-linecap="round" stroke-linejoin="round"/><path d="M222.785 328.56c-1.679-.879-1.24-4.396-.4-5.756m-35.418-46.691c.84 1.359 2.518 2.678 3.757 4.037 2.919 2.639 3.318 6.196 5.397 9.315 2.079 2.678 4.557 5.356 7.076 7.115 2.039 1.36 5.796 2.239 7.435 3.998m-15.35-19.988c1.679 2.239 3.358 5.357 5.436 8.035 1.28 1.36 2.919 1.799 4.598 2.678 2.518.88 4.197 2.679 6.676 3.998m-2.159-24.465c0 4.917 1.679 8.914 6.276 10.713 1.639.44 2.918.44 3.318 2.679.4 2.198-.4 3.078-2.079 2.198m19.508 42.134c-2.078-.879-2.478-4.436-3.318-6.635-1.239-2.678-3.278-5.797-3.278-8.875-.44-2.238.8-4.477 2.879-3.118 1.639 1.32 2.078 4.877 4.117 6.196" fill="none" stroke="#de929c" stroke-width=".8" stroke-linecap="round" stroke-linejoin="round"/><path d="M235.257 317.128c-2.478 0-.4 4.397.4 5.277m4.158 18.708c0 2.679.8 6.197 0 8.875-.84 3.957-3.358 3.957-6.716 4.397m-64.041-15.59c-2.08.48-1.24 3.118.8 3.118m21.266 22.267c-2.838-1.8-3.278 4.437-2.838 6.196" fill="none" stroke="#de929c" stroke-width=".8" stroke-linecap="round" stroke-linejoin="round"/><path d="M170.657 255.805c-2.04 1.32-5.757 1.32-6.596-1.36.44.48 1.239 3.559-1.24 7.996" fill="none" stroke="#333" stroke-width=".8" stroke-linecap="round" stroke-linejoin="round"/><path d="M42.894 311.771c6.676 7.555 13.752 13.752 20.827 18.189v-.44c1.68 1.8 4.598 3.118 5.437 5.357 11.233 22.187 59.124 55.966 92.864 64.84 60.803 15.991 109.933 8.915 121.166-2.638 6.676-6.676 5.437-31.54 6.237-59.564.44-20.867 4.997-43.533-.8-60.843-6.676-20.028-32.9-55.566-35.818-62.682-3.358 9.355 0 19.109 1.639 28.463.44 5.317-.4 9.314 1.679 14.191 1.679 3.998 6.676 7.116 7.915 10.674 1.679 5.796 4.597 18.229 4.597 26.664.4 7.555-6.676-2.199-9.194 5.796-2.479 7.995 12.112 15.55 13.751 22.627.84 3.557-.4 11.553-.84 15.55-.799 6.236 1.28 12.912.44 19.109-.839 3.118-4.157 6.236-4.996 9.354-4.598 14.671-4.997 14.191-15.83 11.993-6.237-.88-9.595-9.355-13.313-13.352-3.757-3.998-7.115-2.639-9.994-6.196-3.358-3.998-6.676-12.913-9.194-17.79-1.24-1.759-9.554-15.55-10.793-17.749-1.28-2.239-7.516-19.108-11.673-23.106-2.919-2.678-14.152-11.553-15.83-13.352-2.919-2.199-9.155-4.877-12.913-7.995-5.397-3.998-15.83-9.754-20.388-13.312 1.64 3.118 7.476 8.875 9.155 12.872.84 2.239 4.557 4.877 5.836 7.556 1.24 3.558.8 7.115 2.919 11.113 2.078 4.437 8.714 7.555 11.233 11.993 3.757 7.555 2.918 14.67 4.997 21.307 1.639 5.796 9.994 11.113 11.673 14.231.8 1.799-.44 6.676 2.078 11.113 2.08 3.119 8.315 5.317 10.394 8.435 2.079 3.998.4 8.875 1.24 10.674 3.757 6.236-8.316 7.995-15.391 4.437-6.676-3.118-13.352-4.437-19.988-7.116-6.236-2.198-12.912-2.638-19.988-4.437-11.233-3.118-5.437-1.759-14.591-7.555-2.079-1.32-5.837-4.438-9.994-7.995-3.758-3.119-9.994-3.558-13.752-7.556-3.318-3.118-7.475-4.437-9.994-7.116-7.475-7.115-15.79-3.997-19.148-7.555-4.997-5.317-8.315-3.078-13.312-8.435-8.755-7.995-17.51 1.8-26.664-12.432" fill="none" stroke="#333" stroke-width=".8" stroke-linecap="round" stroke-linejoin="round"/><path d="M96.142 255.805c-.8 0-1.6 0-2.399.44.8 1.319 1.6.44 2.798.44 0 1.319-1.199 1.758-2.398 1.758m-8.395 19.029c-.44.92-.44 2.238-.88 3.118m-7.835 8.915v2.278c1.68 0 1.28-2.278 1.68-3.198m-8.316 8.115c.4-.44.4-1.359.8-1.799.8-.48 1.2 1.8.8 2.239m-5.757 3.438c-.48.48-.48 1.399-.48 1.839" fill="none" stroke="#ebf8fb" stroke-width=".8" stroke-miterlimit="8"/><path d="M207.794 230.02c-1.679 0-2.119-2.198-.84-2.678 1.68 0 2.48 3.118.84 2.679m23.746-10.194c2.118 0 .84 2.158-.44 1.759-1.28 0-.84-.44.44-1.76m-11.713 5.238c-.4 1.359-3.238 1.799-3.238.919-.44-.92.4-1.36 1.599-1.839 1.239 0 2.438 0 1.639.92" fill="none" stroke="#333" stroke-width=".32" stroke-linecap="round" stroke-linejoin="round" stroke-miterlimit="10"/></svg>