<svg xmlns="http://www.w3.org/2000/svg" version="1.0" viewBox="0 0 24.529 551.962"><defs><clipPath clipPathUnits="userSpaceOnUse" id="a"><path d="M.32.32h24.465v552.385H.32z"/></clipPath></defs><path clip-path="url(#a)" d="M23.106 5.717s0 0 0 0c0-2.559-4.837-3.878-10.314-3.878-6.076 0-10.953 1.32-10.953 3.878h.64s0 0 0 0v540.792l-.64.68c0 1.918 4.877 3.837 10.953 3.837 5.477 0 10.314-1.919 10.314-3.838V5.717z" fill="none" stroke="#000" stroke-width="1.839" stroke-linecap="round" stroke-linejoin="round"/><path d="M1.799 5.397c0-1.96 4.797-3.598 10.633-3.598 5.877 0 10.634 1.639 10.634 3.598 0 1.999-4.757 3.598-10.634 3.598-5.836 0-10.633-1.6-10.633-3.598z" fill="#edf0f1" fill-rule="evenodd"/><path d="M23.066 546.469V5.796c-.6 1.96-5.437 3.239-10.314 3.239-5.476 0-9.714-1.28-10.313-3.239V546.47l-.64.68c0 1.918 4.877 3.837 10.953 3.837 5.477 0 10.314-1.919 10.314-3.838v-.68z" fill="#bac4c6" fill-rule="evenodd"/><path d="M13.992 534.316 15.79 266.44 12.792 26.344c0-8.395-4.237-6.436-4.237 0l-2.439 214.31v298.18c0 1.918 2.439 3.837 5.477 3.837 2.998 0 2.998-8.355 2.399-8.355z" fill="#dce2e3" fill-rule="evenodd"/><path d="M12.752 283.908 10.354 31.62 7.955 284.548s1.8 236.136 2.998 236.136c.6 0 1.8-236.776 1.8-236.776z" fill="#fff" fill-rule="evenodd"/><path d="M21.227 9.634V543.91c0 4.518-8.994 4.518-11.433 2.599 4.237 0 7.835-5.157 7.835-17.43L21.227 9.634z" fill="#849295" fill-rule="evenodd"/><path d="M21.227 545.79V11.512c0-4.517-6.676-.64-10.953-1.28 3.678.64 7.915.64 7.915 16.151l3.038 519.405z" fill="#849295" fill-rule="evenodd"/><path d="M23.106 5.717s0 0 0 0c0-2.559-4.837-3.878-10.314-3.878-6.076 0-10.953 1.32-10.953 3.878h.64s0 0 0 0v540.792l-.64.68c0 1.918 4.877 3.837 10.953 3.837 5.477 0 10.314-1.919 10.314-3.838V5.717z" fill="none" stroke="#000" stroke-width="1.199" stroke-linecap="round" stroke-linejoin="round"/></svg>