<svg xmlns="http://www.w3.org/2000/svg" version="1.0" viewBox="0 0 491.452 150.841"><defs><clipPath clipPathUnits="userSpaceOnUse" id="a"><path d="M0 .64h490.902v150.948H0z"/></clipPath></defs><path d="M402.316 90.065c-5.836 12.473-12.073 24.905-29.142 30.662-15.83 5.357-26.264-1.76-37.497-8.875-7.916-5.317-16.63-10.673-26.624-10.673-12.912.44-22.507 7.995-32.06 15.55-10.435 8.475-20.428 16.47-34.98 15.55-14.151-1.318-20.827-8.434-27.903-15.99-6.676-7.115-14.151-15.11-27.063-13.751-8.315.88-15.431 5.317-23.306 9.754-11.273 6.236-22.507 12.912-37.897 10.673-14.991-2.678-22.906-12.432-31.221-22.666-4.997-6.676-10.434-13.352-17.91-17.789-7.515-4.877-18.348-5.317-29.981-5.317-17.91-.44-29.982-1.359-31.661-10.234-.4-2.678-2.079-4.877-4.557-6.236l-9.195 17.35c7.915 15.99 29.183 16.43 44.973 16.91 8.755 0 18.349.44 22.067 2.638 4.997 3.118 8.754 8.435 13.751 14.231 8.755 11.113 19.988 24.905 41.215 28.463 20.828 3.518 35.819-5.357 48.291-12.472 6.676-3.558 12.113-7.116 17.51-7.556 4.157-.44 7.075 1.799 13.311 8.435 7.516 8.475 17.91 19.588 38.297 21.347 20.827 1.32 34.979-9.754 46.252-19.108 7.915-6.237 14.991-11.993 22.067-11.993 5.396 0 11.233 3.997 17.909 7.995 12.472 8.435 27.863 18.229 51.209 10.674 23.705-7.996 32.46-26.225 39.136-39.137 3.318-6.636 6.636-14.63 25.385-9.314 15.83 3.118 37.057 7.116 47.45-7.116l-5.796-18.668c-2.518.44-4.997 2.238-5.836 4.877-3.318 8.474-14.99 7.115-32.9 3.557-11.233-2.198-18.749-3.557-27.064-.44-7.515 2.68-9.594 7.116-16.23 18.67z" fill="#efd8dc" fill-rule="evenodd"/><path d="M427.301 32.9c7.116-13.352 16.27-29.342 36.658-31.58l5.397 16.909c-.8.44-1.64.88-2.479.88-12.512.879-17.91 8.914-25.385 22.666-4.197 7.995-8.754 16.47-15.83 21.786-5.437 5.317-11.673 7.116-18.349 7.996-7.076 1.319-15.39 0-20.387-2.679-8.755-4.437-17.07-8.435-31.661-2.198-12.073 4.877-15.391 10.673-18.709 16.43-5.836 9.354-11.233 16.47-29.582 17.35-17.47.439-27.903-8.436-37.457-16.91-8.355-7.116-14.591-12.433-25.425-11.554-11.233.88-17.07 7.556-23.706 14.671-7.075 7.556-14.99 16.43-28.742 14.672-12.073-1.32-18.749-8.875-25.385-15.99-7.075-7.556-14.59-15.551-31.26-19.549-14.552-3.558-22.467 2.199-30.382 8.435-7.476 5.757-17.91 13.752-31.221 4.437-9.595-7.115-13.312-18.668-17.07-29.782-4.997-15.55-8.755-24.425-20.428-27.983-1.239 0-2.078-.44-2.918-1.359l8.755-15.11c19.588 6.236 25.824 24.025 30.421 38.696C75.035 52.008 77.553 60.004 82.95 64c2.918 2.239 3.757 2.239 12.072-3.997 8.755-6.676 21.667-16.87 43.734-11.553 21.227 4.877 31.66 16.43 39.576 24.425 5.796 6.676 9.154 10.234 14.99 10.673 5.398.92 8.316-1.759 14.992-9.314 7.475-7.995 17.07-18.669 34.539-20.028 17.07-1.759 27.903 7.596 37.057 15.59 8.315 7.116 15.431 13.313 26.664 12.873 10.834-.44 12.073-3.118 15.83-8.875 4.158-7.115 9.555-16.47 27.064-24.025 21.227-8.875 34.54-1.76 44.533 3.118 10.434 3.558 21.227 3.558 33.3-19.988z" fill="#efd8dc" fill-rule="evenodd"/><path d="M274.114 68.399c-7.915-6.237-17.47-11.993-31.221-10.674-17.51 1.36-26.264 12.432-33.78 20.428-4.997 5.756-7.915 8.395-11.273 9.274 9.195-1.759 16.27-11.513 25.864-17.27 9.595-5.316 15.431-16.87 50.41-1.758z" fill="#fff" fill-rule="evenodd"/><path d="M483.987 63.482c-9.155 3.118-19.988-3.998-24.146-16.47-3.757-12.433.44-25.345 9.594-28.903l-.44.48h-.799c-.44.44-.84.44-1.279.44-12.472.879-17.91 8.874-25.385 22.666-4.157 7.995-8.754 16.43-15.83 21.787-2.079 2.198-4.597 3.997-7.076 4.877-.84.44-1.279.879-2.078 1.319h-.84c-.44.44-1.24.44-2.079.44 0 .48-.44.48-.44.48-.839 0-1.638.439-2.078.439h-.84c-.8.44-2.078.44-2.918.44-7.076 1.319-15.39 0-20.388-2.679-8.754-4.437-17.07-8.435-31.66-2.198-12.073 4.877-15.391 10.633-18.749 16.43-5.836 9.314-11.233 16.43-29.542 17.35-17.51.439-27.943-8.476-37.497-16.91-8.355-7.116-14.591-12.433-25.425-11.554-11.233.88-17.07 7.556-23.746 14.672-7.075 7.555-14.99 16.43-28.702 14.67-12.113-1.359-18.749-8.914-25.425-15.99-7.075-7.555-14.59-15.59-31.22-19.588-14.592-3.558-22.507 2.239-30.422 8.475-7.476 5.757-17.91 13.752-31.221 4.437-9.595-7.115-13.352-18.668-17.07-29.782-5.037-15.55-8.755-24.465-20.428-28.023-1.239 0-2.078-.44-2.518-.88 8.355 5.318 10.034 18.67 3.758 30.223-6.237 11.113-17.91 15.99-26.664 10.673 2.518 1.32 4.197 3.558 4.597 6.236 1.679 8.875 13.752 9.754 31.66 10.194 11.674 0 22.467.48 29.983 5.357 7.515 4.437 12.912 11.113 17.909 17.79 8.315 10.193 16.23 19.987 31.22 22.665 15.431 2.2 26.665-4.437 37.938-10.673 7.875-4.437 14.99-8.915 23.306-9.794 12.912-1.32 20.387 6.676 27.063 13.791 7.076 7.556 13.752 14.672 27.903 15.99 14.591.88 24.585-7.115 34.98-15.55 9.593-7.555 19.188-15.11 32.1-15.55 9.994 0 18.708 5.316 26.624 10.673 11.273 7.116 21.666 14.232 37.497 8.875 17.07-5.757 23.346-18.23 29.142-30.662 3.358-5.796 5.437-9.794 7.915-12.912 0 0 .44-.44.84-.88 0-.439.44-.439.84-.879.4-.44.4-.44.839-.88l.84-.919c.4 0 .839-.44 1.239-.44.4-.44.4-.44.84-.879h.399s.44 0 .84-.44h.4c.439-.44.839-.44 1.278-.44 8.315-3.117 15.83-1.798 27.064.44 17.909 3.558 29.582 4.877 32.9-3.557.4-.88.84-1.76 1.679-2.679l.4-.44c.44-.44.84-.44.84-.879.839-.44 1.678-.88 2.478-.88z" fill="#d794a2" fill-rule="evenodd"/><path d="M446.89 50.57c-1.64-3.998-4.158-9.315-4.158-11.114-.4.92-.84 1.36-1.24 2.239-4.157 7.995-8.754 16.43-15.83 21.787-2.079 2.198-4.557 3.997-7.076 4.877-.84.44-1.239.879-2.078 1.359h-.84c-.4.44-1.24.44-2.079.44 0 .44-.4.44-.4.44-.839 0-1.678.439-2.078.439h-.84c-.84.44-2.078.44-2.918.44-7.076 1.319-15.39 0-20.388-2.679-8.754-4.437-17.07-8.435-31.66-2.198-12.073 4.877-15.391 10.673-18.709 16.43-5.836 9.354-11.273 16.43-29.582 17.35-17.47.439-27.903-8.476-37.457-16.91-8.315-7.116-14.592-12.433-25.385-11.554-11.273.88-17.07 7.556-23.746 14.672-7.075 7.555-14.99 16.43-28.742 14.67-12.073-1.319-18.709-8.874-25.385-15.99-7.076-7.555-14.551-15.55-31.22-19.588-14.552-3.518-22.467 2.239-30.382 8.475-7.516 5.757-17.91 13.752-31.222 4.437-9.594-7.115-13.351-18.668-17.07-29.782-.839-3.557-2.078-6.236-2.917-8.874-3.318 15.55-19.988 33.3-22.507 36.418 4.597.44 9.594.92 15.83.92 11.674 0 22.507.439 29.982 5.316 7.516 4.437 12.913 11.113 17.91 17.79 8.315 10.193 16.23 19.987 31.22 22.665 15.391 2.2 26.625-4.437 37.898-10.673 7.915-4.437 14.99-8.875 23.306-9.794 12.912-1.32 20.387 6.676 27.063 13.791 7.076 7.556 13.712 14.672 27.903 15.99 14.551.88 24.545-7.115 34.94-15.55 9.593-7.555 19.147-15.11 32.06-15.55 9.994 0 18.748 5.316 26.664 10.673 11.233 7.116 21.626 14.232 37.457 8.875 17.07-5.757 23.306-18.23 29.142-30.662 3.318-5.796 5.397-9.794 7.915-12.872 0 0 .4-.48.84-.92 0-.439.4-.439.84-.879l.799-.88c.44-.439.44-.439.84-.879.44 0 .839-.48 1.239-.48.44-.44.44-.44.84-.879h.439s.4 0 .84-.44h.4c.399-.44.839-.44 1.238-.44 8.315-3.117 15.83-1.758 27.064.44 5.836 1.32 11.233 2.24 15.39 2.679-2.478-3.998-5.396-7.556-7.075-10.674-2.079-4.437-4.997-8.874-7.076-13.352z" fill="#c4e7f8" fill-rule="evenodd"/><path d="M102.918 75.434c-7.056 5.337-16.59 11.533-27.804 3.998.42.88.84 1.779 1.26 2.658 0 0 .4 0 .4.44 7.475 4.437 12.872 11.093 17.849 17.75 1.239 1.318 2.478 2.658 3.737 4.417 1.24-.88 2.06-2.2 2.899-5.317 2.478-7.096 2.478-15.95 1.659-23.946zm61.262 16.51c1.68.44 3.758.88 5.437.88 0-.44-.4-.44-.4-.88h-5.037zm105.417-8.395c-8.315-7.115-14.592-12.432-25.425-11.513-11.233.88-17.07 7.516-23.746 14.591-7.075 7.516-14.99 16.39-28.742 14.592-7.476-.88-12.912-3.958-17.47-7.956-1.679 0-2.918-.44-4.597-.44 2.079 4.878 2.079 9.755 2.918 14.592 4.598-2.199 9.595-4.397 14.592-4.837 7.075-.88 12.472 1.319 16.67 4.397 6.635-1.759 13.311-4.397 19.148-8.395 9.994-7.075 18.349-18.588 31.26-19.028 6.237 0 11.234 2.198 16.63 4.877-.399 0-.799-.44-1.238-.88zM437.695 48.73c-3.318 5.357-7.076 10.674-12.073 14.672-2.079 2.238-4.557 4.037-7.076 4.917-.8.44-1.239.88-2.078 1.319h-.8c-.44.44-1.28.44-2.119.44 0 .44-.4.44-.4.44-.839 0-1.678.439-2.078.439h-.84c-.84.48-2.078.48-2.918.48-7.076 1.319-15.39 0-20.387-2.679-7.076-3.558-13.752-7.115-24.146-4.877l-20.388 10.634c-2.518 2.678-4.157 5.796-5.836 8.475-5.836 9.314-11.233 16.43-29.582 17.31.44.479 1.28.479 2.119.919 8.315 0 15.79 3.997 22.466 7.995 12.912 2.198 27.903-.44 40.376-2.679 7.915-1.758 13.312-6.236 21.227-7.115 1.679 0 3.318-.44 4.997-.44 1.679-3.118 2.918-5.756 4.157-8.875 3.358-5.796 5.437-9.794 7.915-12.912 0 0 .44-.44.84-.88 0-.439.4-.439.84-.879l.839-.92.8-.879c.44 0 .839-.44 1.279-.44.4-.44.4-.44.84-.879h.399s.4 0 .84-.44h.4c.439-.44.839-.44 1.238-.44 1.28-.919 2.919-1.358 4.598-1.358.839-.88 2.078-1.76 3.318-2.639 6.675-4.037 9.154-11.113 11.233-18.709z" fill="#9fd9f3" fill-rule="evenodd"/><path d="M172.416 107.455c-2.899 1.34-5.817 3.118-8.735 4.897-11.233 6.236-22.467 12.892-37.857 10.673-14.971-2.658-22.447-12.012-30.782-22.226-2.498-6.676-.4-16.47 3.758-22.247 2.079-1.339 4.158-3.118 5.817-4.457 7.895-6.216 15.81-12.013 30.361-8.455 16.65 4.018 24.126 12.013 31.201 20.028 1.66 1.779 3.758 3.558 5.837 5.777 2.478 4.897 2.478 11.573.4 16.01zm231.619-19.988c-.4.88-.84 1.799-1.679 2.678-5.836 12.393-12.073 25.265-29.142 30.582-15.83 5.317-26.224-1.32-37.497-8.395-1.24-.92-2.08-1.799-3.318-2.239-5.437-4.437-5.437-14.63-.84-19.948 1.679-1.799 3.318-4.437 4.997-7.115 3.318-5.757 6.676-11.074 18.749-16.39 14.59-6.237 22.906-1.8 31.66 2.198 3.318 1.8 6.636 3.558 9.994 4.438 4.158.88 9.555 7.995 7.076 14.191z" fill="#b0783b" fill-rule="evenodd"/><path d="M332.758 104.377c-2.518-4.438.84-11.993 2.919-15.55 2.078-3.519 4.997-8.875 7.515-11.514 3.718-3.997 11.633-7.995 16.67-9.354 9.554-3.558 17.47-1.32 25.385 4.437-4.997-5.317-13.312-1.759-19.149.48-4.157 1.319-5.437 3.078-7.915 5.756-1.68 1.76-4.597 5.317-6.676 6.197-2.918 1.359-6.236-1.32-8.755 3.118-2.918 4.877 1.24 3.118 3.758 5.356 5.437 4.438-2.079 4.877-4.597 6.197-9.155 3.997 2.918 8.435 4.597 13.751-4.157-.88-12.512-3.078-13.752-7.955zM98.3 99.9c-3.757-6.197 1.26-15.051 5.017-19.489 5.837-7.075 13.752-10.174 22.107-11.513 7.915-1.779 15.43 1.78 21.687 6.656 3.338 3.098 20.427 14.172 16.69 18.15-6.256-3.539-9.594-8.855-17.11-10.634-8.335-2.219-6.676 2.218-6.256 8.874-7.096-.46-10.014-11.972-17.93-9.754-2.518.88-5.016 3.098-5.436 5.757-.4 1.779 2.099 4.437.42 6.196-2.499 2.658-5.417-1.759-6.676-2.658-2.918-2.2-1.66-2.659-5.417-1.32-2.498 1.32-6.676 2.659-6.676 5.317z" fill="#d0ab83" fill-rule="evenodd"/><path d="M334.118 98.14c-.84 2.639 0 6.636 1.279 9.275 0-2.199-.84-6.636.4-8.395 1.678-2.199 4.157-.88 6.236-2.678-1.24-1.32-2.919-1.76-4.558-1.32-.839-4.877 3.318-10.193 7.036-12.392 2.119-1.759 4.597-.88 6.276-1.759 2.879-1.799 2.08-5.317 4.957-6.636-4.157-.48-12.472 6.196-14.95 9.714zM104.217 85.308c2.498-1.799 4.157-.44 6.656-.9 2.918-.899.84 1.34 3.338-2.238 1.659-2.258 1.239-4.057 3.738-5.397 2.078-1.359 6.236-1.798 8.314-1.359 1.66 0 2.499 0 4.158 1.36 1.24.899.82 4.936 3.318 4.936 3.338-.44 1.26-5.396 5.816-3.138 0-3.158-7.895-5.396-10.393-5.396-6.636-.46-13.712.9-19.109 4.497z" fill="#e7d3bd" fill-rule="evenodd"/><path d="M110.053 77.273c-2.098 1.8-6.316 4.917-5.876 8.035.84.44 1.26 0 2.099 0z" fill="#e7d3bd" fill-rule="evenodd"/><path d="M350.787 116.37c3.358 3.517 15.83 2.638 19.988.879 6.276-1.799 12.513-5.797 17.11-10.674 4.997-5.796 22.866-31.14 4.157-29.782 1.64 2.2 4.158 5.757 3.318 8.875-1.239 3.998-4.157 2.678-7.075 3.998-7.916 3.118-2.08 8.475-6.676 13.791-1.64 2.239-4.997 2.679-6.636 4.877-2.079 2.679-1.28 3.558-4.997 5.357-2.918 1.32-5.837.88-9.195 1.759-3.318.44-4.997 3.118-8.315.92zm-244.891-7.576c10.813 5.297 19.548 13.252 32.02 9.274 8.735-2.638 29.942-6.616 32.42-17.689-2.478 2.659-9.973 6.636-13.71 7.536-2.5.44-4.998-1.34-7.476-.9-3.338.44-7.076 3.098-10.394 3.978-8.315 2.218-15.39-2.639-23.286-1.32-3.338.44-6.236.88-9.574-.879z" fill="#894e10" fill-rule="evenodd"/><path d="M319.926 93.743c7.915-2.638 10.434-8.874 17.07-18.629 7.075-10.233 25.424-21.347 45.372-11.992-13.711-9.355-36.618-9.355-46.172 6.636-5.836 10.673-10.433 21.347-16.27 23.985zM82.07 78.532c8.335 3.538 17.51-6.656 28.763-12.852 11.253-5.756 23.326-6.216 36.238.88-13.332-10.634-25.824-14.631-41.655-1.76-15.83 12.853-19.168 13.732-23.346 13.732zm291.983 45.833c12.952-3.079 23.346-13.752 28.343-27.544 4.997-13.751 11.673-21.746 19.149-23.545-6.237 3.997-8.715 6.676-15.83 25.784-7.077 19.108-31.662 25.305-31.662 25.305zm-253.686.839c13.332 3.558 21.247 2.239 37.477-5.796 16.25-8.016 24.585-14.711 32.48-13.812-9.574 2.239-19.987 9.814-32.48 17.39-12.492 7.575-27.883 8.894-37.477 2.218zm121.287 10.314c11.233.44 19.987-1.799 30.82-11.113 10.794-9.355 24.546-19.149 34.5-20.508-9.954 3.118-19.948 13.832-32.86 24.065-12.872 9.755-27.463 8.435-32.46 7.556z" fill="#fff" fill-rule="evenodd"/><path d="M24.265 90.185c12.493 3.558 37.458 0 45.773 5.317 8.734 5.337 22.886 32.36 42.014 39.896-16.63-9.734-26.624-32.8-37.017-41.215-10.814-8.435-40.776-1.779-50.77-3.998zm286.906 22.667c9.155-.48 25.825 20.427 44.573 24.865-11.233-.44-36.258-18.23-43.333-20.868-7.076-2.238-15.031 3.118-24.625 11.113 5.436-6.676 15.87-14.67 23.385-15.11z" fill="#e1afb9" fill-rule="evenodd"/><path d="M86.228 87.527c2.118 1.32 3.378 3.538 5.896 4.857 0-2.199 0-4.417.42-6.176-2.099-.46-3.778 0-5.457-.46zM175.813 99.1c-.44.86-.44 2.578-.44 3.438 1.28 0 2.959-.42 4.638-.86-.42-.42-.84-.42-1.26-.86zm144.993 1.719c1.679-.44 3.318-1.799 4.997-2.279.4 1.84.839 3.198 1.639 4.558-.8-.88-2.479-1.36-3.718-1.8zm81.95-25.345c.84 1.84 2.119 3.198 3.798 3.638.84-1.799 1.679-3.638 3.318-4.557z" fill="#c4e7f8" fill-rule="evenodd"/><path d="M457.683 50.09c-1.68 3.597 4.997 13.831 7.515 16.95 2.079 2.238 9.194 6.236 9.994 0-3.718 0-8.755-3.998-11.673-6.237-2.079-2.238-3.318-5.357-4.997-7.555z" fill="#e2b3bb" fill-rule="evenodd"/><path d="M463.52 62.562c.439 1.799 6.315 7.196 5.476 3.598 0-1.32-4.198-2.678-4.597-2.678zm6.755 4.558c-1.24 1.758.84 2.158 2.039.879 0-.88-.8-.88-2.039-.88zm-8.755-6.357c0 .44 0 .88.44 1.32 2.039 0 1.24-3.518-.44-2.2z" fill="#fff" fill-rule="evenodd"/><path d="M37.537 53.767c-.84 2.22-2.498 3.558-3.737 5.337-1.24 1.32-2.899 2.659-4.957 3.978-1.24.88-2.499 1.339-4.158 1.339-2.059 0-2.898 1.32-1.24 3.098 1.24 1.759 3.739.88 5.398 0 2.478-1.34 4.137-3.558 5.796-5.756 2.059-2.22 2.898-4.877 3.298-7.996z" fill="#e2b3bb" fill-rule="evenodd"/><path d="M30.122 63.022c-1.24.88-2.499 3.538 0 2.218 1.659-.899 1.259-1.339.84-2.678zm2.898-2.179c-.82.44-1.24.86-.82 1.72.82 0 2.06-1.28 1.24-2.16zm-7.056 4.877c-.82 2.199 2.459 0 1.24-.44z" fill="#fff" fill-rule="evenodd"/><path d="M36.258 20.747c5.856 5.357 10.034 10.694 11.293 19.169.84 6.676-.84 15.59-4.597 21.367 3.338-5.777 5.836-11.133 8.355-16.91.42-1.799 1.26-3.118 1.659-4.917 0-3.118-.82-4.437-2.918-6.676-2.08-2.678-5.437-8.015-8.775-8.914zm429.74-2.638c-1.24.92-3.318.92-4.957 1.36-2.519.879-4.598 2.198-6.237 3.557-4.557 3.558-7.475 8.435-9.994 13.312-.8 1.36-2.078 3.118-2.078 4.437.44.92 1.279 2.239 1.679 3.118.4 1.36.84 2.679 1.679 3.558.8 2.239 2.078 4.438 3.318 6.676 1.239 3.118 2.478 6.676 4.557 9.315a228.378 228.378 0 0 0-2.479-8.435c-.84-3.118-2.078-7.995-2.078-11.553.4-5.317 1.239-10.234 4.557-14.232 1.679-1.759 3.758-3.997 6.236-4.437l.4.44c.84-.44 1.28-1.32 1.679-1.76.84-1.318 2.079-2.238 2.918-3.557z" fill="#ce788b" fill-rule="evenodd"/><path d="M254.446 93.503c0-.88.58-1.599 1.279-1.599.72 0 1.28.72 1.28 1.6 0 .899-.56 1.598-1.28 1.598-.7 0-1.28-.7-1.28-1.599zm-11.993 11.993c0-.88.58-1.599 1.28-1.599.719 0 1.279.72 1.279 1.6 0 .899-.56 1.598-1.28 1.598-.7 0-1.279-.7-1.279-1.599zm-3.278-11.993c0-.88.56-1.599 1.24-1.599.699 0 1.239.72 1.239 1.6 0 .899-.54 1.598-1.24 1.598-.68 0-1.239-.7-1.239-1.599zm10.794 9.555c0-.72.56-1.32 1.239-1.32.7 0 1.239.6 1.239 1.32 0 .74-.54 1.319-1.24 1.319-.679 0-1.238-.58-1.238-1.32zm-22.947 18.988c0-.74.56-1.36 1.24-1.36.7 0 1.239.62 1.239 1.36 0 .76-.54 1.36-1.24 1.36-.679 0-1.239-.6-1.239-1.36zm11.274 4.517c0-.72.58-1.319 1.279-1.319.72 0 1.279.6 1.279 1.32 0 .739-.56 1.319-1.28 1.319-.699 0-1.278-.58-1.278-1.32zm-5.437-21.347c0-.72.56-1.319 1.24-1.319.699 0 1.238.6 1.238 1.32 0 .739-.54 1.318-1.239 1.318-.68 0-1.24-.58-1.24-1.319zm7.435 5.997c0-.8.58-1.48 1.28-1.48.72 0 1.279.68 1.279 1.48 0 .82-.56 1.479-1.28 1.479-.699 0-1.279-.66-1.279-1.48zm6.316-13.153c0-.739.58-1.359 1.28-1.359.72 0 1.279.62 1.279 1.36 0 .76-.56 1.359-1.28 1.359-.699 0-1.278-.6-1.278-1.36zm-.799-16.83c0-.719.64-1.318 1.4-1.318.779 0 1.398.6 1.398 1.319 0 .74-.62 1.319-1.399 1.319-.76 0-1.399-.58-1.399-1.32zm-13.351 1.84c0-.72.579-1.32 1.278-1.32.72 0 1.28.6 1.28 1.32 0 .74-.56 1.319-1.28 1.319-.7 0-1.279-.58-1.279-1.32zm9.513 4.837c0-.74.56-1.36 1.24-1.36.7 0 1.239.62 1.239 1.36 0 .76-.54 1.359-1.24 1.359-.679 0-1.239-.6-1.239-1.36zm16.31-2.679c0-.72.58-1.319 1.28-1.319.72 0 1.279.6 1.279 1.32 0 .739-.56 1.319-1.28 1.319-.699 0-1.279-.58-1.279-1.32zm10.314 22.147c0-.72.6-1.32 1.28-1.32.719 0 1.279.6 1.279 1.32 0 .76-.56 1.32-1.28 1.32-.68 0-1.279-.56-1.279-1.32zm-15.75 9.355c0-.72.56-1.32 1.239-1.32.7 0 1.24.6 1.24 1.32 0 .739-.54 1.318-1.24 1.318-.68 0-1.24-.58-1.24-1.319zm15.43-17.67c0-.72.6-1.32 1.28-1.32.72 0 1.279.6 1.279 1.32 0 .76-.56 1.32-1.28 1.32-.679 0-1.279-.56-1.279-1.32zm18.309 4.837c0-.72.6-1.36 1.28-1.36.72 0 1.279.64 1.279 1.36 0 .76-.56 1.36-1.28 1.36-.68 0-1.279-.6-1.279-1.36zm152.468-48.81c0-.72.56-1.32 1.24-1.32.719 0 1.238.6 1.238 1.32 0 .76-.52 1.319-1.239 1.319-.68 0-1.24-.56-1.24-1.32zm8.315 6.156c0-.72.56-1.32 1.24-1.32.719 0 1.238.6 1.238 1.32 0 .76-.52 1.32-1.239 1.32-.68 0-1.24-.56-1.24-1.32zm-12.473 2.159c0-.72.56-1.32 1.24-1.32.72 0 1.239.6 1.239 1.32 0 .76-.52 1.319-1.24 1.319-.679 0-1.239-.56-1.239-1.32zm8.635 2.678c0-.72.56-1.36 1.24-1.36.719 0 1.239.64 1.239 1.36 0 .76-.52 1.36-1.24 1.36-.68 0-1.239-.6-1.239-1.36zm-3.358-4.837c0-.72.6-1.32 1.28-1.32.719 0 1.279.6 1.279 1.32 0 .76-.56 1.32-1.28 1.32-.68 0-1.279-.56-1.279-1.32zm9.994 6.676c0-.72.6-1.36 1.28-1.36.719 0 1.279.64 1.279 1.36 0 .76-.56 1.359-1.28 1.359-.68 0-1.279-.6-1.279-1.36zm-45.252 7.995c0-.72.56-1.36 1.239-1.36.72 0 1.24.64 1.24 1.36 0 .76-.52 1.36-1.24 1.36-.68 0-1.24-.6-1.24-1.36zm-82.51 24.825c0-.72.6-1.32 1.279-1.32.72 0 1.279.6 1.279 1.32 0 .76-.56 1.32-1.28 1.32-.679 0-1.278-.56-1.278-1.32zM89.266 88.746c0-.72.56-1.319 1.24-1.319.699 0 1.238.6 1.238 1.32 0 .739-.54 1.318-1.239 1.318-.68 0-1.24-.58-1.24-1.319zm-36.298-32.3c0-.72.56-1.32 1.24-1.32.699 0 1.238.6 1.238 1.32 0 .74-.54 1.319-1.239 1.319-.68 0-1.24-.58-1.24-1.32zm-6.716 9.314c0-.74.56-1.359 1.24-1.359.699 0 1.238.62 1.238 1.36 0 .759-.54 1.358-1.239 1.358-.68 0-1.239-.6-1.239-1.359zm7.515.84c0-.72.56-1.32 1.24-1.32.7 0 1.239.6 1.239 1.32 0 .74-.54 1.319-1.24 1.319-.679 0-1.239-.58-1.239-1.32zm-11.193 4.797c0-.72.58-1.32 1.28-1.32.719 0 1.279.6 1.279 1.32 0 .74-.56 1.319-1.28 1.319-.7 0-1.279-.58-1.279-1.32zm6.716 1.039c0-.72.56-1.32 1.24-1.32.699 0 1.239.6 1.239 1.32 0 .74-.54 1.32-1.24 1.32-.68 0-1.239-.58-1.239-1.32zm11.673 1.639c0-.74.56-1.36 1.24-1.36.699 0 1.239.62 1.239 1.36 0 .76-.54 1.36-1.24 1.36-.68 0-1.239-.6-1.239-1.36zm114.89 27.144c0-.72.56-1.32 1.24-1.32.7 0 1.239.6 1.239 1.32 0 .74-.54 1.319-1.24 1.319-.679 0-1.239-.58-1.239-1.32zm45.333 15.99c0-.72.56-1.32 1.24-1.32.699 0 1.238.6 1.238 1.32 0 .74-.54 1.32-1.239 1.32-.68 0-1.24-.58-1.24-1.32z" fill="#00b2e7" fill-rule="evenodd"/><path d="M247.81 112.412c0-.72.56-1.32 1.24-1.32.699 0 1.238.6 1.238 1.32 0 .74-.54 1.32-1.239 1.32-.68 0-1.24-.58-1.24-1.32zm14.151 1.319c0-.74.56-1.36 1.24-1.36.7 0 1.239.62 1.239 1.36 0 .76-.54 1.36-1.24 1.36-.68 0-1.239-.6-1.239-1.36zm-.799-19.148c0-.72.56-1.32 1.239-1.32.7 0 1.24.6 1.24 1.32 0 .74-.54 1.319-1.24 1.319-.68 0-1.24-.58-1.24-1.32zm-28.303 3.477c0-.739.56-1.359 1.24-1.359.699 0 1.238.62 1.238 1.36 0 .76-.54 1.359-1.239 1.359-.68 0-1.24-.6-1.24-1.36zm4.957-14.99c0-.72.56-1.32 1.24-1.32.699 0 1.238.6 1.238 1.32 0 .74-.54 1.319-1.239 1.319-.68 0-1.24-.58-1.24-1.32zm-19.988 22.666c0-.74.56-1.36 1.24-1.36.699 0 1.238.62 1.238 1.36 0 .76-.54 1.36-1.239 1.36-.68 0-1.239-.6-1.239-1.36zm8.315 4.317c0-.74.56-1.359 1.24-1.359.699 0 1.238.62 1.238 1.36 0 .759-.54 1.358-1.239 1.358-.68 0-1.24-.6-1.24-1.359zm21.347 16.51c0-.72.56-1.319 1.24-1.319.699 0 1.239.6 1.239 1.32 0 .739-.54 1.319-1.24 1.319-.68 0-1.239-.58-1.239-1.32zm24.145-31.501c0-.72.56-1.319 1.24-1.319.72 0 1.239.6 1.239 1.32 0 .759-.52 1.319-1.24 1.319-.679 0-1.239-.56-1.239-1.32zM58.724 68.439c0-.72.58-1.32 1.28-1.32.72 0 1.279.6 1.279 1.32 0 .74-.56 1.319-1.28 1.319-.699 0-1.279-.58-1.279-1.32zm-11.113-9.035c0-.72.56-1.32 1.24-1.32.699 0 1.239.6 1.239 1.32 0 .74-.54 1.32-1.24 1.32-.68 0-1.239-.58-1.239-1.32zm-9.994 14.671c0-.74.56-1.36 1.24-1.36.699 0 1.239.62 1.239 1.36 0 .76-.54 1.36-1.24 1.36-.68 0-1.239-.6-1.239-1.36zm404.715-22.986c0-.72.6-1.32 1.28-1.32.719 0 1.278.6 1.278 1.32 0 .76-.56 1.32-1.279 1.32-.68 0-1.28-.56-1.28-1.32zM429.38 65.24c0-.72.56-1.319 1.239-1.319.72 0 1.24.6 1.24 1.32 0 .759-.52 1.319-1.24 1.319-.68 0-1.24-.56-1.24-1.32zm8.794 1.36c0-.72.6-1.32 1.28-1.32.72 0 1.279.6 1.279 1.32 0 .76-.56 1.319-1.28 1.319-.679 0-1.279-.56-1.279-1.32z" fill="#fff" fill-rule="evenodd"/><path d="M275.793 110.053c0-.72.64-1.359 1.399-1.359.8 0 1.4.64 1.4 1.36 0 .759-.6 1.358-1.4 1.358-.76 0-1.4-.6-1.4-1.359zm1.999-6.676c0-.72.68-1.319 1.519-1.319.84 0 1.519.6 1.519 1.32 0 .759-.68 1.319-1.52 1.319-.839 0-1.518-.56-1.518-1.32zm-16.95 3.678c0-.72.56-1.32 1.24-1.32.699 0 1.238.6 1.238 1.32 0 .74-.54 1.32-1.239 1.32-.68 0-1.24-.58-1.24-1.32zm1.598 12.832c0-.74.58-1.359 1.28-1.359.72 0 1.28.62 1.28 1.36 0 .759-.56 1.359-1.28 1.359-.7 0-1.28-.6-1.28-1.36zM217.028 99.38c0-.72.68-1.32 1.48-1.32.82 0 1.479.6 1.479 1.32 0 .74-.66 1.319-1.48 1.319-.799 0-1.479-.58-1.479-1.32zm-5.356 6.676c0-.74.56-1.36 1.239-1.36.7 0 1.24.62 1.24 1.36 0 .76-.54 1.359-1.24 1.359-.68 0-1.24-.6-1.24-1.36zm15.83-4.318c0-.74.56-1.359 1.24-1.359.699 0 1.239.62 1.239 1.36 0 .759-.54 1.359-1.24 1.359-.68 0-1.239-.6-1.239-1.36zm-6.316 8.315c0-.74.68-1.359 1.48-1.359.819 0 1.478.62 1.478 1.36 0 .759-.66 1.358-1.479 1.358-.8 0-1.48-.6-1.48-1.359zm11.274 3.678c0-.74.659-1.36 1.438-1.36.8 0 1.44.62 1.44 1.36 0 .76-.64 1.36-1.44 1.36-.78 0-1.439-.6-1.439-1.36zm-4.958-20.987c0-.72.56-1.32 1.24-1.32.699 0 1.239.6 1.239 1.32 0 .74-.54 1.319-1.24 1.319-.68 0-1.239-.58-1.239-1.32z" fill="#00b2e7" fill-rule="evenodd"/><path d="M53.767 41.295c-6.196 18.209-22.786 34.619-22.786 34.619m411.751-35.978c1.679 8.914 15.79 32.06 19.108 35.178" fill="none" stroke="#fff" stroke-width=".8" stroke-linecap="round" stroke-linejoin="round"/><path d="M172.416 107.455s0 0 0 0c-2.899 1.34-5.817 3.118-8.735 4.897-11.233 6.236-22.467 12.892-37.857 10.673-14.971-2.658-22.447-12.012-30.782-22.226-2.498-6.676-.4-16.47 3.758-22.247 2.079-1.339 4.158-3.118 5.817-4.457 7.895-6.216 15.81-12.013 30.361-8.455 16.65 4.018 24.126 12.013 31.201 20.028 1.66 1.779 3.758 3.558 5.837 5.777 2.478 4.897 2.478 11.573.4 16.01m231.619-19.988c-.4.88-.84 1.799-1.679 2.678-5.836 12.393-12.073 25.265-29.142 30.582-15.83 5.317-26.224-1.32-37.497-8.395-1.24-.92-2.08-1.799-3.318-2.239-5.437-4.437-5.437-14.63-.84-19.948 1.679-1.799 3.318-4.437 4.997-7.115 3.318-5.757 6.676-11.074 18.749-16.39 14.59-6.237 22.906-1.8 31.66 2.198 3.318 1.8 6.636 3.558 9.994 4.438 4.158.88 9.555 7.995 7.076 14.191" fill="none" stroke="#000" stroke-width=".8" stroke-linecap="round" stroke-linejoin="round"/><path clip-path="url(#a)" d="M402.356 90.105c-5.836 12.473-12.073 24.905-29.142 30.662-15.83 5.357-26.264-1.76-37.497-8.875-7.916-5.317-16.63-10.673-26.624-10.673-12.913.44-22.507 7.995-32.06 15.55-10.435 8.475-20.429 16.47-34.98 15.55-14.151-1.318-20.827-8.434-27.903-15.99-6.676-7.115-14.151-15.11-27.063-13.751-8.315.88-15.431 5.317-23.306 9.754-11.273 6.236-22.507 12.912-37.897 10.673-14.991-2.678-22.906-12.432-31.221-22.666-4.997-6.676-10.434-13.352-17.91-17.789-7.515-4.877-18.348-5.317-29.981-5.317C28.862 76.793 16.79 75.874 15.11 67c-.4-2.678-2.079-4.877-4.557-6.236l-9.195 17.35c7.915 15.99 29.182 16.43 44.973 16.91 8.755 0 18.349.44 22.067 2.638 4.997 3.118 8.754 8.435 13.751 14.231 8.755 11.113 19.988 24.905 41.215 28.463 20.828 3.518 35.819-5.357 48.291-12.472 6.676-3.558 12.113-7.116 17.51-7.556 4.157-.44 7.075 1.799 13.311 8.435 7.516 8.475 17.91 19.588 38.297 21.347 20.827 1.32 34.979-9.754 46.252-19.108 7.915-6.237 14.991-11.993 22.067-11.993 5.396 0 11.233 3.997 17.909 7.995 12.472 8.435 27.863 18.229 51.209 10.674 23.705-7.996 32.46-26.225 39.136-39.137 3.318-6.636 6.636-14.63 25.385-9.314 15.83 3.118 37.057 7.116 47.45-7.116l-5.796-18.668c-2.518.44-4.997 2.238-5.836 4.877-3.318 8.474-14.99 7.115-32.9 3.557-11.233-2.198-18.749-3.557-27.064-.44-7.515 2.68-9.594 7.116-16.23 18.67" fill="none" stroke="#000" stroke-width="1.359" stroke-linecap="round" stroke-linejoin="round"/><path clip-path="url(#a)" d="M427.341 32.94c7.116-13.352 16.27-29.342 36.658-31.58l5.397 16.909c-.8.44-1.64.88-2.479.88-12.512.879-17.91 8.914-25.385 22.666-4.197 7.995-8.754 16.47-15.83 21.786-5.437 5.317-11.673 7.116-18.349 7.996-7.076 1.319-15.39 0-20.388-2.679-8.754-4.437-17.07-8.435-31.66-2.198-12.073 4.877-15.391 10.673-18.709 16.43-5.836 9.354-11.233 16.47-29.582 17.35-17.47.439-27.903-8.436-37.457-16.91-8.355-7.116-14.592-12.433-25.425-11.554-11.233.88-17.07 7.556-23.706 14.671-7.075 7.556-14.99 16.43-28.742 14.672-12.073-1.32-18.749-8.875-25.385-15.99-7.076-7.556-14.59-15.551-31.26-19.549-14.552-3.558-22.467 2.199-30.382 8.435-7.476 5.756-17.91 13.752-31.222 4.437-9.594-7.115-13.311-18.668-17.07-29.782-4.996-15.55-8.754-24.425-20.427-27.983-1.239 0-2.079-.44-2.918-1.359l8.755-15.11c19.588 6.236 25.824 24.025 30.421 38.696 2.879 8.874 5.397 16.87 10.794 20.867 2.918 2.239 3.757 2.239 12.072-3.997 8.755-6.676 21.667-16.87 43.734-11.553 21.227 4.877 31.66 16.43 39.576 24.425 5.796 6.676 9.154 10.234 14.99 10.673 5.398.92 8.316-1.759 14.992-9.314 7.475-7.995 17.07-18.669 34.539-20.028 17.07-1.759 27.903 7.596 37.057 15.59 8.315 7.116 15.431 13.313 26.664 12.873 10.834-.44 12.073-3.118 15.83-8.875 4.158-7.115 9.555-16.47 27.064-24.025 21.227-8.875 34.54-1.76 44.533 3.118 10.434 3.558 21.227 3.558 33.3-19.988" fill="none" stroke="#000" stroke-width="1.359" stroke-linecap="round" stroke-linejoin="round"/><path d="M484.027 63.522c-9.155 3.118-19.988-3.998-24.146-16.47-3.757-12.433.44-25.345 9.594-28.903 0 0 0 0 0 0l-.44.48h-.799c-.44.44-.84.44-1.279.44-12.472.879-17.91 8.874-25.385 22.666-4.157 7.995-8.754 16.43-15.83 21.787-2.079 2.198-4.597 3.997-7.076 4.877-.84.44-1.279.879-2.078 1.319h-.84c-.44.44-1.24.44-2.079.44 0 .48-.44.48-.44.48-.839 0-1.638.439-2.078.439h-.84c-.8.44-2.078.44-2.918.44-7.076 1.319-15.39 0-20.388-2.679-8.754-4.437-17.07-8.435-31.66-2.198-12.073 4.877-15.391 10.633-18.749 16.43-5.836 9.314-11.233 16.43-29.542 17.35-17.51.439-27.943-8.476-37.497-16.91-8.355-7.116-14.592-12.433-25.425-11.554-11.233.88-17.07 7.556-23.746 14.671-7.075 7.556-14.99 16.43-28.702 14.672-12.113-1.36-18.749-8.915-25.425-15.99-7.075-7.556-14.59-15.591-31.22-19.589-14.592-3.558-22.507 2.239-30.422 8.475-7.476 5.757-17.91 13.752-31.221 4.437-9.595-7.115-13.352-18.668-17.07-29.782-5.037-15.55-8.755-24.465-20.428-28.023-1.239 0-2.078-.44-2.518-.88 0 0 0 0 0 0 8.355 5.318 10.034 18.67 3.757 30.223-6.236 11.113-17.909 15.99-26.663 10.673 0 0 0 0 0 0 2.518 1.32 4.197 3.558 4.597 6.236 1.679 8.875 13.752 9.754 31.66 10.194 11.674 0 22.467.48 29.983 5.357 7.515 4.437 12.912 11.113 17.909 17.79 8.315 10.193 16.23 19.987 31.22 22.665 15.431 2.2 26.665-4.437 37.938-10.673 7.875-4.437 14.99-8.915 23.306-9.794 12.912-1.32 20.387 6.676 27.063 13.791 7.076 7.556 13.752 14.672 27.903 15.99 14.591.88 24.585-7.115 34.98-15.55 9.593-7.555 19.187-15.11 32.1-15.55 9.994 0 18.708 5.316 26.624 10.673 11.273 7.116 21.666 14.232 37.497 8.875 17.07-5.757 23.346-18.23 29.142-30.662 3.358-5.796 5.437-9.794 7.915-12.912 0 0 0 0 0 0s.44-.44.84-.88c0 0 0 0 0 0 0-.439.44-.439.84-.879 0 0 0 0 0 0 .4-.44.4-.44.839-.88 0 0 0 0 0 0l.84-.919s0 0 0 0c.399 0 .839-.44 1.239-.44 0 0 0 0 0 0 .4-.44.4-.44.839-.879h.4s.44 0 .84-.44h.399c.44-.44.84-.44 1.28-.44 8.314-3.117 15.83-1.798 27.063.44 17.909 3.558 29.582 4.877 32.9-3.557.4-.88.84-1.76 1.679-2.679 0 0 0 0 0 0l.4-.44c.44-.44.84-.44.84-.879 0 0 0 0 0 0 .839-.44 1.678-.88 2.478-.88" fill="none" stroke="#000" stroke-width="1.359" stroke-linecap="round" stroke-linejoin="round"/></svg>