<svg xmlns="http://www.w3.org/2000/svg" version="1.0" viewBox="0 0 85.38 67.465"><defs><clipPath clipPathUnits="userSpaceOnUse" id="a"><path d="M.88.48h85.228v67.479H.879z"/></clipPath></defs><path clip-path="url(#a)" d="M2.239 16.79c-1.64 5.117 1.119 6.836 10.993 11.233 9.874 4.437 22.027 12.273 28.423 23.786 6.676 11.752 6.436 15.39 12.872 14.91 6.196-.48 13.072-3.677 16.27-12.952 3.198-9.074 9.155-15.67 13.072-20.827 3.878-5.397-2.079-20.827-9.634-26.464C66.68 1.12 53.128.6 46.492 2.558c-6.876 1.96-16.51 7.596-26.144 9.315-9.634 1.719-16.99.76-18.11 4.917z" fill="#faceb0" fill-rule="evenodd"/><path clip-path="url(#a)" d="M13.712 25.505c5.756 3.198 12.392 4.917 18.109 8.834 5.277 3.438 10.553 8.835 13.751 14.751 4.358 7.835 8.235 20.348 18.11 10.794 3.197-3.198 4.796-7.116 5.956-11.793 1.12-4.397 3.678-6.876 6.196-10.554 5.717-8.115 7.755-19.908-1.4-26.784 2.76 7.156 3.679 13.272-1.598 19.429-3.438 4.397-9.155.96-13.272-.52-.24 2.958.68 5.157-2.079 6.636-2.278 1.24-6.876.52-8.035-2.199.24 1.96 1.4 4.917-1.12 6.157-2.318.959-8.474-2.719-10.313-4.198-4.837-4.157-7.795-6.116-13.752-8.355-2.078-.96-9.394-.48-10.793-2.438z" fill="#f7bc94" fill-rule="evenodd"/><path d="M8.435 20.667c-2.319-4.677 7.995-6.156 10.274-6.396 4.837-.48 8.954-.24 13.511-2.198 5.277-2.199 10.554-5.677 16.27-6.396 5.477-.76 13.512-.76 18.07 2.958-5.477-3.198-11.873-.52-15.79 3.438-4.118 4.197-11.194 8.834-17.15 8.834-6.876-.24-13.752-3.917-20.628-4.637z" fill="#fce3d1" fill-rule="evenodd"/><path d="M31.061 14.231c2.998-1.719 5.997-2.198 8.715-3.957-1.12 1.519-2.039 3.957-3.638 4.717-2.318.96-4.837-1-7.156.24zm11.313-4.437c-.44.52-.68 1.28-.92 1.999.92 0 1.84-.48 2.48-1-.2-.24-.44-.72-.64-.999zm-13.831 4.158c-.68.28-1.16.8-1.4 1.838.92-.24 1.4-.76 1.84-1.559z" fill="#fff" fill-rule="evenodd"/><path d="M48.97 32.94c0-3.758 3.038-6.836 6.716-6.836 3.718 0 6.716 3.078 6.716 6.836 0 3.798-2.998 6.836-6.716 6.836-3.678 0-6.716-3.038-6.716-6.836z" fill="#eaaf88" fill-rule="evenodd"/><path d="M47.291 29.902c0-3.758 3.078-6.836 6.836-6.836a6.833 6.833 0 0 1 6.836 6.836 6.807 6.807 0 0 1-6.836 6.836 6.833 6.833 0 0 1-6.836-6.836z" fill="#fff" fill-rule="evenodd"/><path d="M48.25 31.66c0-3.797 3.039-6.915 6.757-6.915 3.757 0 6.756 3.118 6.756 6.916 0 3.837-2.999 6.916-6.756 6.916-3.718 0-6.756-3.079-6.756-6.916z" fill="#daafc3" fill-rule="evenodd"/><path d="M50.25 33.66v1.239c1.159 1.479 2.758 2.718 4.837 2.718 2.958 0 5.476-2.718 5.476-5.676 0-.52 0-1-.2-1.24-.919-1.759-2.758-2.758-4.597-2.758-2.958 0-5.516 2.758-5.516 5.717z" fill="#ce92ae" fill-rule="evenodd"/><path d="M50.57 29.422c0-.8.639-1.479 1.359-1.479.76 0 1.359.68 1.359 1.48 0 .839-.6 1.478-1.36 1.478-.719 0-1.359-.64-1.359-1.479zm3.197-.959c0-.52.48-1 1-1 .56 0 1 .48 1 1 0 .56-.44 1-1 1-.52 0-1-.44-1-1z" fill="#fff" fill-rule="evenodd"/><path d="M60.563 32.42c-1.319 5.197-4.957 6.157-7.435 4.438 1.839 0 5.437-.72 7.435-4.438z" fill="#ae507e" fill-rule="evenodd"/><path clip-path="url(#a)" d="M2.239 16.79c-1.64 5.117 1.119 6.836 10.993 11.233 9.874 4.437 22.027 12.273 28.423 23.786 6.676 11.752 6.436 15.39 12.872 14.91 6.196-.48 13.072-3.677 16.27-12.952 3.198-9.074 9.155-15.67 13.072-20.827 3.878-5.397-2.079-20.827-9.634-26.464C66.68 1.12 53.128.6 46.492 2.558c-6.876 1.96-16.51 7.596-26.144 9.315-9.634 1.719-16.99.76-18.11 4.917" fill="none" stroke="#fff" stroke-width=".64" stroke-linecap="round" stroke-linejoin="round"/></svg>