<svg xmlns="http://www.w3.org/2000/svg" version="1.0" viewBox="0 0 346.696 293.291"><defs><clipPath clipPathUnits="userSpaceOnUse" id="a"><path d="M-.32.32h346.27v293.502H-.32z"/></clipPath></defs><path d="M222.965 224.104c12.592-22.146 19.268-48.65 19.268-70.797 0-5.537 0-11.453-.74-17.39-.38-4.357 1.84-10.673 1.1-15.43-.74-5.137-4.437-8.695-5.916-13.832-1.48-7.115-3.698-13.851-6.676-20.167-16.67-36.378-51.11-64.861-84.809-64.861-26.684 0-60.383 13.452-79.272 35.598l-.38.4c-2.218 3.158-2.218 4.737-3.697 9.494-1.1 4.737 0 5.917-1.86 7.496-1.478 1.599-3.317.8-2.958 2.778.38 1.58 1.86.8.74 4.357-1.1 3.558-2.219 3.558-2.958 4.738-1.48 2.378 2.598 3.957 0 5.936-2.599 1.979-2.219-2.379-5.557-3.178-2.219-.38-4.077 3.958-4.437 9.094v10.694c0 1.979-.74 4.337-.74 7.895s-.74 7.516-1.499 9.494l.38.4c2.958-14.631 8.895-25.305 15.93-25.305 9.634 0 17.41 19.768 17.41 43.894v.38-.38c0 24.105-7.776 43.893-17.41 43.893-7.035 0-13.332-10.693-15.93-26.104l-.38 1.18c.76 1.978 1.5 5.936 1.5 9.494 0 3.557.739 5.936.739 8.315v10.273c.36 5.137 2.218 9.495 4.437 9.095 3.338-.8 3.698-6.336 6.296-4.358 2.219 1.98-.74 5.157.74 7.116.38 1.2 1.859.8 2.598 4.358 1.1 3.158 0 2.778-.74 4.357-.379 1.979.36 1.579 1.84 3.158 1.859 1.579.76 2.758 1.859 7.915 1.119 3.938 1.479 5.917 3.337 8.695 19.629 21.747 54.447 37.157 80.012 37.157 27.403 0 59.624-17.39 77.773-45.852z" fill="#f2c3a5" fill-rule="evenodd"/><path d="m43.614 205.056-1.12.4c2.219 4.357 4.458 8.694 6.676 12.652.36.4.36.8.74 1.2.74 1.578 1.859 3.157 2.958 4.736.38.8 1.12 1.58 1.499 2.379.36.4.74.78.74 1.18.74.799 1.479 1.978 1.838 2.777.38.4.74 1.18 1.48 1.58 0 .4.38.779.76 1.179 1.098 1.579 2.218 2.778 2.957 3.957.36.8 1.12 1.2 1.48 1.58.38.4.739 1.199 1.119 1.598 5.556 6.317 11.113 11.853 17.05 16.99.36 0 .36.4.739.4 1.48 1.2 2.598 1.979 4.078 3.178.36.38.74.38 1.099.78 3.718 2.778 8.155 5.536 12.232 7.915.76.4 1.5.8 2.24 1.179 1.098.4 2.218 1.2 3.337 1.599.74.38 1.839.78 2.578 1.18 1.12.779 1.86 1.179 2.979 1.578 1.099.4 2.598.8 3.697 1.18.74.4 1.48.8 2.22.8 1.858.799 3.717 1.178 5.936 1.978.739 0 1.479 0 1.858.4 1.48.4 2.959.78 4.438.78.76.399 1.499.399 2.238.399 1.48.4 2.959.4 4.438.8h1.859c2.218.38 4.077.38 6.296.38 2.598 0 4.817 0 7.415-.38 38.557-2.38 71.917-25.725 88.227-65.281 1.1-2.758 4.817-9.494 11.473-13.832-8.515-3.557-18.15 17.39-24.445 27.284-19.289 30.461-53.388 46.672-82.67 46.672-28.163 0-55.587-15.81-75.974-39.936l-1.5-1.979c-3.317-3.958-3.317-5.537-4.816-10.294-1.1-5.137 0-6.336-1.84-7.915-1.498-1.579-2.238-1.18-1.858-3.158.74-1.58 1.859-1.18.74-4.357-.74-3.558-2.22-3.159-2.6-4.338-1.478-1.979 1.48-5.157-.739-7.135-2.598-1.98-2.958 3.557-6.296 4.357-2.218.4-4.077-3.958-4.457-9.095V182.11c0-2.359-.74-4.738-.74-8.295 0-4.757-1.099-9.894-2.598-10.694-2.579-1.979-2.219 1.2-2.958 6.736-1.12 5.537.74 6.316 1.119 7.915.36 1.58-1.12 1.58-.38 3.558.38 1.979 1.48 1.979 1.86 3.958.359 1.979-1.12 1.579-.74 3.558 0 2.378 1.479 2.378 1.858 4.337.36 1.599-.38 2.378 0 4.757.36 2.379 2.22 2.758 2.579 4.357.74 1.98 1.12 2.759-1.1 2.759zm209.812-78.693c-.36-1.978-.74-3.557-1.099-5.536v-.78c-1.859-8.694-4.837-16.99-7.795-25.284 0-.4-.38-.8-.38-1.2-.36-1.179-1.1-2.358-1.48-3.538-.359-.4-.359-1.199-.739-1.579-.36-1.199-1.099-2.378-1.479-3.557-.38-.4-.38-.8-.74-1.58-.38-.799-1.119-1.978-1.478-3.178-.38-.38-.74-1.179-.74-1.579-.74-1.179-1.12-1.958-1.859-3.158-.38-.78-.74-1.179-.74-1.978-.739-.78-1.119-1.96-1.858-2.759-.36-.8-.74-1.18-1.12-1.979-.36-.78-1.099-1.579-1.479-2.758-.36-.4-.74-1.18-1.479-1.979-.36-.8-1.12-1.579-1.479-2.378-.38-.78-.74-1.18-1.479-1.96-.38-.799-1.12-1.598-1.48-2.378-.759-.8-1.118-1.179-1.498-1.978-.74-.78-1.1-1.58-1.84-2.36-.379-.799-1.118-1.198-1.498-1.978-.74-.8-1.1-1.579-1.839-1.979-.38-.8-1.12-1.579-1.5-1.978-.739-.8-1.478-1.58-1.838-1.98-.74-.779-1.12-1.578-1.859-1.978-.38-.78-1.12-1.18-1.859-1.959-.36-.8-1.1-1.2-1.839-1.599-.38-.78-1.119-1.579-1.859-1.959-.38-.8-1.119-1.199-1.858-1.579-.74-.8-1.12-1.199-1.86-1.979-.739-.4-1.478-1.199-1.838-1.579-.74-.4-1.5-1.199-2.239-1.579-.74-.4-1.1-1.199-1.839-1.579-.74-.4-1.499-.8-2.238-1.599-.74-.38-1.1-.78-1.84-1.179-.739-.78-1.498-1.18-2.238-1.579-.74-.4-1.479-.78-2.219-1.18l-2.218-1.199c-.74-.38-1.48-.78-2.239-1.179-.36-.4-1.1-.78-1.839-1.18-.74-.399-1.859-.799-2.598-1.178-.74-.4-1.12-.8-1.859-1.2-1.1-.38-1.859-.38-2.598-.78-.74-.399-1.48-.799-2.22-.799-.739-.4-1.478-.78-2.597-1.18-.36 0-1.1-.399-1.84-.399-1.119-.4-1.858-.78-2.598-.78-.74-.4-1.479-.4-2.238-.799-1.1 0-1.84-.4-2.959-.4-.74-.38-1.119-.38-1.859-.38-1.099-.4-2.218-.4-2.958-.799h-2.218c-1.12-.4-2.239-.4-3.338-.4-.38 0-1.12 0-1.48-.4h-5.196c-2.219 0-4.817 0-7.036.4-.76 0-1.5 0-2.239.4-1.479 0-2.958 0-4.437.4-1.12 0-1.859.4-2.978.4-.36.38-1.1.38-1.84.38-.759.4-1.498.4-2.238.799-1.1 0-1.839.4-2.958.78-.38 0-.74 0-1.12.4h-.739c-.74.399-1.1.399-1.859.799-1.099 0-1.839.38-2.958.78-.36.399-1.12.399-1.859.799-.36 0-.74.4-1.1.4-.379 0-.739.38-.739.38-1.119.399-2.238.799-2.978 1.199-.36 0-.36.38-.36.38-1.119.4-2.238.799-3.338 1.199-.74.78-1.858 1.179-2.978 1.579v.38c-.36 0-.74.4-1.1.4-.379.399-1.118.399-1.478.799-.38 0-.38.4-.76.4-1.1.779-1.839 1.179-2.958 1.958-.74.4-1.859 1.2-2.598 1.58-.36 0-.36.399-.74.399-.74.8-1.859 1.2-2.958 1.979 0 .4-.38.4-.74.8-.38 0-.38.38-.74.38-.379.399-.379.399-.739.399l-.76.8c-1.099.779-1.838 1.578-2.958 2.358-.74.4-1.479 1.2-2.598 1.979 0 .4-.36.4-.36.4-1.12.78-1.859 1.579-2.598 2.358-1.12.8-2.219 1.979-2.978 2.778-1.1.78-1.84 1.98-2.579 2.759-.38 0-.38 0-.38.4-.74.779-1.479 1.579-2.218 2.378h-.38c-.74.78-1.48 1.959-2.219 2.758-1.119.78-1.859 1.98-2.598 2.759 0 0 0 .4-.36.4-.74.799-1.499 1.978-2.239 2.758v.4c-.36.4-.74.8-1.479 1.579-.36.4-.74.8-1.099 1.199-.76 1.18-1.5 2.358-2.239 3.538-.36.4-.74.8-1.099 1.599a5.1 5.1 0 0 0-1.12 1.579c-.739 1.18-1.478 2.358-2.218 3.158-.74 1.579-1.479 3.158-2.598 4.337-1.86 3.958-4.078 7.516-5.937 11.453l1.12.4c2.218 0 1.838.8 1.099 2.778-.36 1.58-2.219 1.96-2.579 4.338-.38 2.378.36 1.579 0 3.558-.38 1.978-1.858 1.978-1.858 3.957-.38 2.359 1.099 3.158.74 5.117-.38 1.979-1.48 1.979-1.86 3.958-.74 1.979.74 1.979.38 3.558-.38 1.579-2.239 2.378-1.12 7.895.74 5.536.38 9.094 2.959 7.115 1.499-.78 2.598-6.316 2.598-11.053 0-3.558.74-5.936.74-7.915V98.32c.38-5.136 2.239-9.494 4.457-9.094 3.338.8 2.958 5.137 5.557 3.158 2.598-1.979-1.48-3.558 0-5.916.74-1.2 1.859-1.2 2.978-4.758 1.1-3.537-.38-2.758-.76-4.337-.36-1.979 1.5-1.18 2.979-2.758 1.859-1.58.74-2.779 1.859-7.516 1.479-4.737 1.479-6.716 4.077-9.874.74-.8 1.48-1.579 1.48-1.579 20.387-24.105 47.81-39.516 76.733-39.516 35.958 0 72.276 27.264 90.445 65.98 9.274 20.548 15.95 63.622 29.282 70.717-4.077-5.516-7.395-14.211-10.374-26.464z" fill="#a42149" fill-rule="evenodd"/><path d="M270.036 158.844c-2.218-1.58-4.437-3.558-6.296-5.917-13.332-7.115-20.008-50.21-29.262-70.777-18.17-38.756-54.467-66.04-90.425-66.04-28.903 0-56.306 15.43-76.694 39.556l-1.12 1.18.38-.4c19.269-21.747 52.249-34.8 78.553-34.8 33.72 0 68.179 28.484 84.849 64.862 2.958 6.316 5.196 13.032 6.676 20.147 1.479 5.157 4.437 24.925 4.817 29.263.74 5.936.74 11.872.74 17.41 0 22.126-6.677 48.63-19.27 70.756-18.148 28.483-50.389 45.872-77.812 45.872-24.445 0-57.805-14.231-77.433-34.799l-.38.4.74.8c20.387 24.105 47.81 39.916 75.954 39.916 29.282 0 63.361-16.21 82.63-46.652 6.676-9.874 16.31-32.02 25.204-26.884 2.959-1.979 6.297-3.558 9.994-3.558 10.374-.78 26.684 2.379 39.656 8.695 1.86 1.2 4.078 1.979 5.917 3.178v-38.756c-9.635-3.958-17.41-6.317-21.108-7.116-7.035-1.18-14.83-5.537-16.31-6.336z" fill="#ec795f" fill-rule="evenodd"/><path d="M238.935 164.66c-1.479 19.009-7.775 39.976-18.149 58.185-17.43 27.303-48.57 43.913-74.914 43.913 23.006-3.957 76.014-21.746 93.063-102.098z" fill="#eda981" fill-rule="evenodd"/><path d="M307.454 205.156c-16.31-9.115-35.619-15.471-52.688-7.936 9.294-1.978 24.125-3.957 52.688 10.294v-2.358z" fill="#db4939" fill-rule="evenodd"/><path d="M236.737 106.655c-1.48-7.115-3.718-13.851-6.676-20.167-16.67-36.378-51.13-64.861-84.849-64.861-26.684 0-60.403 13.452-79.292 35.598l-.38.4c-2.218 3.158-2.218 4.737-3.697 9.494-.74 2.359-.74 3.938-.74 5.137v.4c.38.78 0 2.359 0 3.938 0 6.336-.38 16.61 0 19.788 0 1.579.38 3.158.74 4.337.38.4.38.4.38.8.36.4.36 1.179.739 1.579 7.395 4.737 13.332 21.746 13.332 42.314v.38-.38c0 17.79-4.438 33.2-10.374 39.936-.38 1.179-.38 2.378-.74 3.558-.74 4.337-1.858 8.694-2.598 13.052-.36 1.179-.74 2.358-.74 3.957v.38c0 .8 0 1.579-.36 2.778v11.854c0 .799 0 1.978.36 3.177 1.12 3.938 1.48 5.917 3.338 8.695 19.629 21.747 54.467 37.157 80.032 37.157 27.423 0 59.664-17.39 77.813-45.852 12.592-22.146 19.268-48.65 19.268-70.797 0-2.758 1.839-5.537 1.839-8.295 0-3.158-2.219-5.936-2.578-9.094-.38-4.358-3.338-24.126-4.817-29.263zm1.479 29.662c0 2.759 2.218 5.137 2.218 7.896.38 2.778-1.859 6.336-1.859 9.094 0 22.546-7.035 47.851-18.508 68.419-16.69 26.104-47.432 44.293-74.855 44.293-25.205 0-59.284-16.21-77.433-36.378-1.12-1.6-1.12-2.379-1.859-5.157l-.38-1.979c-.74-1.579-.74-2.758-.74-3.558 0-1.579-.36-10.673.38-13.831 1.12-7.516 1.86-15.031 4.078-17.79 6.296-7.915 10.374-23.325 10.374-41.914 0-21.367-5.557-38.757-13.712-45.093-4.077-8.295-2.598-16.61-1.859-24.505.74-1.2.74-2.778.74-3.958 0-.8 0-1.978.74-3.557l.379-1.98c.74-3.157.74-3.957 2.219-5.936v.4c1.479-1.579 1.119-1.979 2.598-3.158v.4c17.79-18.989 47.791-32.04 74.475-32.04 31.121 0 64.84 25.704 81.51 62.481 2.599 5.937 4.818 12.253 6.677 19.369.74 2.778 4.077 12.272 4.817 27.283v1.2z" fill="#efb48f" fill-rule="evenodd"/><path d="M65.86 185.248c5.936-6.716 10.374-22.127 10.374-39.916 0-20.548-5.917-37.537-13.332-42.274-.36-.4-.36-1.18-.74-1.58 0-.4 0-.4-.38-.779-.36-1.2-.739-2.778-.739-4.357-.36-3.158 0-13.432 0-19.748 0-1.58.38-3.159 0-3.958v-.4c0 1.2 0 1.6-1.1 2.379-1.478 1.579-3.337.8-2.978 2.758.38 1.58 1.86.8.76 4.357-1.12 3.558-2.239 3.558-2.978 4.738-1.48 2.378 2.598 3.957 0 5.936-2.599 1.959-2.219-2.379-5.557-3.178-2.218-.38-4.077 3.958-4.437 9.094v10.674c0 1.979-.74 4.337-.74 7.895 0 4.737-1.119 10.274-2.598 11.053-.74.4-1.48.8-1.48.4C37.338 131.5 33.62 140.195 34 148.11c0 6.716 3.698 12.633 6.676 14.212h-.38c.38.4.74.4 1.12.8 1.479.779 2.598 5.916 2.598 10.653 0 3.558.74 5.936.74 8.295v10.273c.36 5.137 2.219 9.495 4.437 9.095 3.338-.8 3.718-6.316 6.296-4.337 2.239 1.958-.74 5.116.74 7.095.38 1.2 1.859.8 2.598 4.358 1.12 3.158 0 2.758-.74 4.337-.359 1.979.38 1.579 1.86 3.158 1.479 1.2 1.099 1.979 1.479 4.737v-11.853c.36-1.179.36-1.958.36-2.758v-.4c0-1.579.38-2.758.76-3.937.739-4.358 1.838-8.695 2.578-13.052.38-1.18.38-2.359.74-3.538zm10.374-39.916v.4-.4z" fill="#d5ac9e" fill-rule="evenodd"/><path d="M43.993 186.487c.74-5.157 3.358 0 5.217 1.579 2.599 2.778 4.837 5.157 8.555 5.557 4.477.38 8.935-3.578 9.674-8.315-1.859-.8-4.837 1.179-7.056 1.179-4.477-.8-7.835-3.558-10.433-7.136-1.86-2.758-2.978-5.137-4.098-7.915-.74-1.18-1.12-1.979-2.238-2.778zm-3.278-52.268c-4.097 2.378-3.737 5.157-5.596 9.494-1.5-1.979.38-7.116.74-8.695.379-1.599.759-3.578 1.878-4.757 1.12-1.2 3.358-1.579 3.718-3.578z" fill="#ce9e94" fill-rule="evenodd"/><path d="M78.872 145.632c0-24.505-8.535-44.293-19.308-44.293-10.394 0-19.308 19.788-19.308 44.293v-.4c0 24.125 8.914 43.893 19.308 43.893 10.773 0 19.308-19.768 19.308-43.893v.4z" fill="#5b749c" fill-rule="evenodd"/><path d="M78.872 145.712c0-24.465-8.535-43.814-19.308-43.814-10.394 0-19.308 19.349-19.308 43.814v-.38c0 24.065 8.914 43.793 19.308 43.793 10.773 0 19.308-19.728 19.308-43.793v.38z" fill="#e2c2bb" fill-rule="evenodd"/><path d="M59.604 117.169c7.016 0 12.153 12.712 12.153 28.183 0 15.49-5.137 28.183-12.153 28.183-6.616 0-12.153-12.692-12.153-28.183 0-15.47 5.537-28.183 12.153-28.183z" fill="#e7cdc6" fill-rule="evenodd"/><path d="M59.604 127.563c4.477 0 7.835 8.315 7.835 18.189v-.4c0 9.894-3.358 17.79-7.835 17.79-4.098 0-7.835-7.896-7.835-17.79v.4c0-9.874 3.737-18.19 7.835-18.19z" fill="#ead4d0" fill-rule="evenodd"/><path d="M59.664 122.846c-5.557 0-10.374 9.874-10.374 22.506 0 12.252 4.817 22.506 10.374 22.506-4.437-.38-9.255-8.275-9.255-21.707.38-13.431 5.937-22.506 10.374-21.726 4.437.4 6.656 5.536 6.656 5.536-1.479-3.158-4.437-7.115-7.775-7.115z" fill="#e3c5bf" fill-rule="evenodd"/><path d="M59.504 127.563c-4.078 0-7.416 7.915-7.416 17.809 0 9.874 3.338 18.169 7.416 18.169-3.338-.38-6.676-6.716-6.676-17.39.38-10.673 4.078-17.789 7.415-17.389 3.318.4 4.798 4.337 4.798 4.337-1.1-2.358-2.959-5.536-5.537-5.536z" fill="#e3c5bf" fill-rule="evenodd"/><path d="M59.584 133c-2.958 0-5.177 5.596-5.177 12.352 0 6.776 2.219 12.352 5.177 12.352-2.219-.38-4.058-4.777-4.058-11.952 0-7.556 2.579-11.953 4.438-11.553 2.218.4 3.318 2.798 3.318 2.798-.74-1.999-2.219-3.998-3.698-3.998z" fill="#e7cdc7" fill-rule="evenodd"/><path d="M47.771 145.752c0 11.513 2.978 21.427 6.676 25.784-3.338-3.958-5.916-13.092-5.557-24.985 0-17.47 5.917-28.582 11.114-27.783 4.797.4 7.755 7.535 7.755 7.535-1.839-3.957-4.437-9.134-8.135-9.134-6.656 0-11.853 12.712-11.853 28.583z" fill="#e3c5bf" fill-rule="evenodd"/><path d="M59.544 107.015c9.254 0 17.01 17.41 17.01 38.777v-.38c0 21.347-7.756 38.756-17.01 38.756-9.234 0-16.65-17.41-16.65-38.756v.38c0-21.367 7.416-38.777 16.65-38.777" fill="none" stroke="#f0dddb" stroke-width=".32" stroke-miterlimit="8"/><path d="M59.544 112.212c8.175 0 14.85 15.01 14.85 33.58v-.38c0 18.549-6.675 33.56-14.85 33.56s-14.491-15.011-14.491-33.56v.38c0-18.57 6.316-33.58 14.49-33.58" fill="none" stroke="#f0dddb" stroke-width=".32" stroke-miterlimit="8"/><path d="M59.604 122.366c5.557 0 9.994 10.314 9.994 22.986 0 12.692-4.437 22.986-9.994 22.986-5.537 0-9.994-10.294-9.994-22.986 0-12.672 4.457-22.986 9.994-22.986" fill="none" stroke="#f0dddb" stroke-width=".32" stroke-miterlimit="8"/><path d="M59.604 127.563c4.477 0 7.835 8.315 7.835 17.789 0 9.894-3.358 17.79-7.835 17.79-4.098 0-7.835-7.896-7.835-17.79 0-9.474 3.737-17.79 7.835-17.79" fill="none" stroke="#f0dddb" stroke-width=".32" stroke-miterlimit="8"/><path d="M59.564 133c2.938 0 5.477 5.576 5.477 12.332 0 7.136-2.539 12.692-5.477 12.692-2.918 0-5.477-5.556-5.477-12.692 0-6.756 2.559-12.333 5.477-12.333" fill="none" stroke="#f0dddb" stroke-width=".32" stroke-miterlimit="8"/><path d="M56.566 145.332c0-3.958 1.119-7.136 2.978-7.136 1.859 0 3.338 3.178 3.338 7.136 0 3.938-1.48 7.495-3.338 7.495-1.859 0-2.978-3.557-2.978-7.495" fill="none" stroke="#f0dddb" stroke-width=".32" stroke-miterlimit="8"/><path d="M78.872 145.632c0-24.505-8.535-44.293-19.308-44.293-10.394 0-19.308 19.788-19.308 44.293v-.4c0 24.125 8.914 43.893 19.308 43.893 10.773 0 19.308-19.768 19.308-43.893v.4z" fill="none" stroke="#fff" stroke-width=".64" stroke-linecap="round" stroke-linejoin="round" stroke-miterlimit="10"/><path d="M59.604 117.169c7.016 0 12.153 12.692 12.153 28.543v-.38c0 15.85-5.137 28.523-12.153 28.523-6.616 0-12.153-12.673-12.153-28.523v.38c0-15.85 5.537-28.543 12.153-28.543" fill="none" stroke="#f0dddb" stroke-width=".32" stroke-miterlimit="8"/><path d="M42.894 138.996c1.12-19.369 8.535-34.38 17.43-33.58 9.274.78 11.492 12.632 11.492 12.632.38 2.379.74 1.2-.36-.78-3.717-6.335-19.647-20.567-28.562 21.728z" fill="#f3e5e2" fill-rule="evenodd"/><path d="M45.932 123.165c2.579-9.114 8.115-17.849 14.751-17.05 5.137.4 7.716 5.158 7.716 5.158-3.298-4.378-13.992-9.934-22.467 11.892z" fill="#fff" fill-rule="evenodd"/><path d="M48.09 174.274c2.979 5.937 15.192 21.727 25.186-5.936-4.058 7.515-13.332 22.526-25.185 5.936z" fill="#f5e8e6" fill-rule="evenodd"/><path d="M61.083 182.09c0 .4 0 .8-.36 1.199 1.08 0 2.159 0 2.878-.4v-.8c-.36 0-.36-.799-.36-.799h-1.438zm3.677-1.92c-.759.38-1.159 1.14 0 1.52 0 0 .78 0 .78-.38.38-.38 0-.76 0-1.14zm-4.876 2c-.36 0-1.08 0-1.08.38-.72.38 0 .759.36.759 1.08.38 1.08-.38 1.08-1.14z" fill="#fff" fill-rule="evenodd"/><path d="M73.675 53.248c-8.155 7.495-10.014 16.21-10.393 28.862v4.737c0 9.095 1.119 11.473 5.196 17.01 6.317 7.895 10.014 24.125 10.014 41.515 0 16.61-3.338 32.82-8.894 41.115 5.936-8.695 11.113-23.326 11.113-40.715h.38v-.4c-.38-18.19-4.078-34.799-10.754-43.494-3.717-4.757-4.817-6.336-4.817-15.43V82.11c.36-13.851 2.958-20.567 9.634-26.903 5.937-5.537 37.098-29.263 71.197-29.263-34.859 0-66.74 21.367-72.676 27.304z" fill="#f9e0d0" fill-rule="evenodd"/><path d="M72.876 63.082c0-1.74 1.17-3.158 2.598-3.158 1.44 0 2.599 1.419 2.599 3.158 0 1.749-1.16 3.158-2.599 3.158-1.429 0-2.598-1.41-2.598-3.158zm6.396-3.758c0-.77.49-1.4 1.08-1.4.599 0 1.079.63 1.079 1.4 0 .78-.48 1.4-1.08 1.4-.59 0-1.079-.62-1.079-1.4zm-9.035 8.995c0-.88.69-1.6 1.52-1.6.839 0 1.519.72 1.519 1.6 0 .89-.68 1.599-1.52 1.599-.829 0-1.519-.71-1.519-1.6z" fill="#fff" fill-rule="evenodd"/><path d="M65.6 187.286c-1.499 3.159-4.877 18.15-4.497 29.183m-.86-26.784c0 3.158-1.359 18.149-1.359 18.149m-2.318-18.709-.64 8.395m-4.157-11.833c1.519 3.159 1.519 11.833 1.519 11.833M51.769 91.185c1.519 2.758 1.139 12.572 1.139 13.352m3.018-12.473.16 9.275m2.319-21.987c-.32 3.548 0 21.667 0 21.667m3.028-27.983c-.37 3.947-2.549 24.055 2.168 29.182" fill="none" stroke="#fff" stroke-width=".64" stroke-linecap="round" stroke-linejoin="round" stroke-miterlimit="10"/><path d="m43.614 205.056-1.12.4c2.219 4.357 4.458 8.694 6.676 12.652 0 0 0 0 0 0s0 0 0 0 0 0 0 0c0 .4.36.4.36.4 0 .4 0 .4.38.8.74 1.578 1.859 3.157 2.958 4.736.38.8 1.12 1.58 1.499 2.379.36.4.74.78.74 1.18.74.799 1.479 1.978 1.838 2.777.38.4.74 1.18 1.48 1.58 0 .4.38.779.76 1.179 1.098 1.579 2.218 2.778 2.957 3.957.36.8 1.12 1.2 1.48 1.58 0 0 0 0 0 0 .38.4.739 1.199 1.119 1.598 5.556 6.317 11.113 11.853 17.05 16.99.36 0 .36.4.739.4 1.48 1.2 2.598 1.979 4.078 3.178.36.38.74.38 1.099.78 3.718 2.778 8.155 5.536 12.232 7.915.76.4 1.5.8 2.24 1.179 1.098.4 2.218 1.2 3.337 1.599.74.38 1.839.78 2.578 1.18 1.12.779 1.86 1.179 2.979 1.578 1.099.4 2.598.8 3.697 1.18.74.4 1.48.8 2.22.8 1.858.799 3.717 1.178 5.936 1.978.739 0 1.479 0 1.858.4 1.48.4 2.959.78 4.438.78.76.399 1.499.399 2.238.399 1.48.4 2.959.4 4.438.8h1.859c2.218.38 4.077.38 6.296.38 2.598 0 4.817 0 7.415-.38 38.557-2.38 71.917-25.725 88.227-65.281 1.1-2.758 4.817-9.494 11.473-13.832-8.515-3.557-18.15 17.79-24.445 27.284-19.289 30.461-53.388 46.672-82.67 46.672-28.163 0-55.587-15.81-75.974-39.936 0 0 0 0 0 0l-1.5-1.979c-3.317-3.958-3.317-5.537-4.816-10.294-1.1-5.137 0-6.336-1.84-7.915-1.498-1.579-2.238-1.18-1.858-3.158.74-1.58 1.859-1.18.74-4.357-.74-3.558-2.22-3.159-2.6-4.338-1.478-1.979 1.48-5.157-.739-7.135-2.598-1.98-2.958 3.557-6.296 4.357-2.218.4-4.077-3.958-4.457-9.095V182.11c0-2.359-.74-4.738-.74-8.295 0-4.757-1.099-9.894-2.598-10.694-2.579-1.979-2.219 1.2-2.958 6.736-1.12 5.537.74 6.316 1.119 7.915.36 1.58-1.12 1.58-.38 3.558.38 1.979 1.48 1.979 1.86 3.958.359 1.979-1.12 1.579-.74 3.558 0 2.378 1.479 2.378 1.858 4.337.36 1.599-.38 2.378 0 4.757.36 2.379 2.22 2.758 2.579 4.357.74 1.98 1.12 2.759-1.1 2.759m209.813-78.693c-.36-1.978-.74-3.557-1.099-5.536v-.78c-1.859-8.694-4.837-16.99-7.795-25.284 0-.4-.38-.8-.38-1.2-.36-1.179-1.1-2.358-1.48-3.538-.359-.4-.359-1.199-.739-1.579-.36-1.199-1.099-2.378-1.479-3.557-.38-.4-.38-.8-.74-1.58-.38-.799-1.119-1.978-1.478-3.178-.38-.38-.74-1.179-.74-1.579-.74-1.179-1.12-1.958-1.859-3.158-.38-.78-.74-1.179-.74-1.978-.739-.78-1.119-1.96-1.858-2.759-.36-.8-.74-1.18-1.12-1.979-.36-.78-1.099-1.579-1.479-2.758-.36-.4-.74-1.18-1.479-1.979-.36-.8-1.12-1.579-1.479-2.378-.38-.78-.74-1.18-1.479-1.96-.38-.799-1.12-1.598-1.48-2.378-.759-.8-1.118-1.179-1.498-1.978-.74-.78-1.1-1.58-1.84-2.36-.379-.799-1.118-1.198-1.498-1.978-.74-.8-1.1-1.579-1.839-1.979-.38-.8-1.12-1.579-1.5-1.978-.739-.8-1.478-1.58-1.838-1.98-.74-.779-1.12-1.578-1.859-1.978-.38-.78-1.12-1.18-1.859-1.959-.36-.8-1.1-1.2-1.839-1.599-.38-.78-1.119-1.579-1.859-1.959-.38-.8-1.119-1.199-1.858-1.579-.74-.8-1.12-1.199-1.86-1.979-.739-.4-1.478-1.199-1.838-1.579-.74-.4-1.5-1.199-2.239-1.579-.74-.4-1.1-1.199-1.839-1.579-.74-.4-1.499-.8-2.238-1.599-.74-.38-1.1-.78-1.84-1.179-.739-.78-1.498-1.18-2.238-1.579-.74-.4-1.479-.78-2.219-1.18l-2.218-1.199c-.74-.38-1.48-.78-2.239-1.179-.36-.4-1.1-.78-1.839-1.18-.74-.399-1.859-.799-2.598-1.178-.74-.4-1.12-.8-1.859-1.2-1.1-.38-1.859-.38-2.598-.78-.74-.399-1.48-.799-2.22-.799-.739-.4-1.478-.78-2.597-1.18-.36 0-1.1-.399-1.84-.399-1.119-.4-1.858-.78-2.598-.78-.74-.4-1.479-.4-2.238-.799-1.1 0-1.84-.4-2.959-.4-.74-.38-1.119-.38-1.859-.38-1.099-.4-2.218-.4-2.958-.799h-2.218c-1.12-.4-2.239-.4-3.338-.4-.38 0-1.12 0-1.48-.4h-5.196c-2.219 0-4.817 0-7.036.4 0 0 0 0 0 0s0 0 0 0c-.76 0-1.5 0-2.239.4-1.479 0-2.958 0-4.437.4-1.12 0-1.859.4-2.978.4-.36.38-1.1.38-1.84.38-.759.4-1.498.4-2.238.799-1.1 0-1.839.4-2.958.78-.38 0-.74 0-1.12.4h-.739c-.74.399-1.1.399-1.859.799-1.099 0-1.839.38-2.958.78-.36.399-1.12.399-1.859.799-.36 0-.74.4-1.1.4-.379 0-.739.38-.739.38-1.119.399-2.238.799-2.978 1.199-.36 0-.36.38-.36.38-1.119.4-2.238.799-3.338 1.199-.74.78-1.858 1.179-2.978 1.579v.38c-.36 0-.74.4-1.1.4-.379.399-1.118.399-1.478.799-.38 0-.38.4-.76.4-1.1.779-1.839 1.179-2.958 1.958-.74.4-1.859 1.2-2.598 1.58-.36 0-.36.399-.74.399-.74.8-1.859 1.2-2.958 1.979 0 .4-.38.4-.74.8-.38 0-.38.38-.74.38-.379.399-.379.399-.739.399l-.76.8c-1.099.779-1.838 1.578-2.958 2.358-.74.4-1.479 1.2-2.598 1.979 0 0 0 0 0 0 0 .4-.36.4-.36.4-1.12.78-1.859 1.579-2.598 2.358-1.12.8-2.219 1.979-2.978 2.778-1.1.78-1.84 1.98-2.579 2.759-.38 0-.38 0-.38.4-.74.779-1.479 1.579-2.218 2.378h-.38c-.74.78-1.48 1.959-2.219 2.758-1.119.78-1.859 1.98-2.598 2.759 0 0 0 .4-.36.4-.74.799-1.499 1.978-2.239 2.758v.4c-.36.4-.74.8-1.479 1.579-.36.4-.74.8-1.099 1.199-.76 1.18-1.5 2.358-2.239 3.538 0 0 0 0 0 0-.36.4-.74.8-1.099 1.599a5.1 5.1 0 0 0-1.12 1.579c-.739 1.18-1.478 2.358-2.218 3.158-.74 1.579-1.479 3.158-2.598 4.337 0 0 0 0 0 0-1.86 3.958-4.078 7.516-5.937 11.453l1.12.4c2.218 0 1.838.8 1.099 2.778-.36 1.58-2.219 1.96-2.579 4.338-.38 2.378.36 1.579 0 3.558-.38 1.978-1.858 1.978-1.858 3.957-.38 2.359 1.099 3.158.74 5.117-.38 1.979-1.48 1.979-1.86 3.958-.74 1.979.74 1.979.38 3.558-.38 1.579-2.239 2.378-1.12 7.895.74 5.536.38 9.094 2.959 7.115 1.499-.78 2.598-6.316 2.598-11.053 0-3.558.74-5.936.74-7.915V98.32c.38-5.136 2.239-9.494 4.457-9.094 3.338.8 2.958 5.137 5.557 3.158 2.598-1.979-1.48-3.558 0-5.916.74-1.2 1.859-1.2 2.978-4.758 1.1-3.537-.38-2.758-.76-4.337-.36-1.979 1.5-1.18 2.979-2.758 1.859-1.58.74-2.779 1.859-7.516 1.479-4.737 1.479-6.716 4.077-9.874.74-.8 1.48-1.579 1.48-1.579 20.387-24.105 47.81-39.516 76.733-39.516 35.958 0 72.276 27.264 90.445 65.98 9.274 20.548 15.95 63.622 29.282 70.717-4.077-5.516-7.395-14.211-10.374-26.464" fill="none" stroke="#fff" stroke-width=".64" stroke-linecap="round" stroke-linejoin="round" stroke-miterlimit="10"/><path d="M270.076 158.884c-2.218-1.58-4.437-3.558-6.296-5.917-13.332-7.115-20.008-50.21-29.262-70.777-18.17-38.756-54.467-66.04-90.425-66.04-28.903 0-56.306 15.43-76.694 39.556l-1.12 1.18.38-.4c19.269-21.747 52.249-34.8 78.553-34.8 33.72 0 68.179 28.484 84.849 64.862 2.958 6.316 5.196 13.032 6.676 20.147 1.479 5.157 4.437 17.81 4.817 29.263.36 3.158 2.598 5.936 2.598 8.694 0 3.178-1.859 5.937-1.859 8.715 0 22.127-6.676 48.63-19.268 70.757-18.15 28.483-50.39 45.872-77.813 45.872-24.445 0-57.805-14.231-77.433-34.799l-.38.4.74.8s0 0 0 0c20.387 24.105 47.81 39.916 75.954 39.916 29.282 0 63.361-16.21 82.63-46.652 6.676-9.874 16.31-32.02 25.204-26.884 2.959-1.979 6.297-3.558 9.994-3.558 10.374-.78 26.684 2.379 39.656 8.695 1.86 1.2 4.078 1.979 5.917 3.178v-38.756c-9.635-3.958-17.41-6.317-21.108-7.116-7.035-1.18-14.83-5.537-16.31-6.336" fill="none" stroke="#fff" stroke-width="1.199" stroke-linecap="round" stroke-linejoin="round" stroke-miterlimit="10"/><path d="M270.776 144.912c2.978 4.338 7.415 7.895 13.352 9.474 5.177 1.2 11.473 3.179 23.326 7.516v10.274c-9.615-3.938-17.41-6.317-21.108-7.116-7.035-1.18-14.83-5.517-16.31-6.316-7.415-4.737-12.232-14.631-16.67-32.42-11.113-60.084-53.347-115.83-109.293-115.83-37.438 0-74.115 26.084-95.602 63.261.74-1.599-.38-3.957.38-7.515.739-3.958 3.697-4.358 4.057-7.116.76-3.558-.36-4.357-1.48-3.558 0 0 0 .4-.359.4C72.916 22.746 106.276.6 143.693 1.4c61.882 1.18 99.68 49.03 114.49 107.535 1.48 4.337 6.297 27.283 12.593 35.978z" fill="#eff6fc" fill-rule="evenodd"/><path clip-path="url(#a)" d="M307.454 172.176c-9.615-3.938-17.41-6.317-21.108-7.116-7.035-1.18-14.83-5.517-16.31-6.316-7.415-4.737-12.232-14.631-16.67-32.42-11.113-60.084-53.347-115.83-109.293-115.83-37.438 0-74.115 26.084-95.602 63.261 0 0 0 0 0 0 .74-1.599-.38-3.957.38-7.515.739-3.958 3.697-4.358 4.057-7.116.76-3.558-.36-4.357-1.48-3.558 0 0 0 .4-.359.4C72.916 22.746 106.276.6 143.693 1.4c61.882 1.18 100.04 49.41 114.87 107.935 1.1 4.337 5.917 26.883 12.213 35.578 2.978 4.338 7.415 7.895 13.352 9.474 5.177 1.2 11.473 3.179 23.326 7.516" fill="none" stroke="#000" stroke-width=".64" stroke-linecap="round" stroke-linejoin="round" stroke-miterlimit="10"/><path d="M307.454 210.173c-1.84-1.18-4.058-1.98-5.917-2.759-12.972-6.716-29.262-9.894-39.636-8.694-13.352 1.179-20.747 13.431-22.226 17.389-17.43 42.274-53.728 65.58-95.602 65.58-2.219 0-4.058 0-6.297-.4h-1.838c-1.48-.4-2.979-.4-4.458-.779-.74 0-1.479 0-2.218-.4-1.48 0-2.959-.4-4.438-.8-.38 0-1.119-.38-1.859-.38-2.218-.399-4.077-1.198-5.936-1.978-.74 0-1.479-.4-2.219-.8-1.099-.4-2.598-.779-3.697-1.179-1.12-.4-1.86-.8-2.959-1.179-.76-.4-1.858-1.2-2.598-1.579-1.12-.4-2.219-.8-3.338-1.599-.74-.38-1.48-.78-2.219-1.18-4.077-2.358-8.534-4.736-12.232-7.895-.36-.4-.74-.4-1.12-.799-1.479-.78-2.578-1.979-4.057-3.158-.38 0-.38-.4-.74-.4-5.936-5.137-11.493-10.653-17.05-16.99a5.1 5.1 0 0 1-1.119-1.579c-.36-.38-1.099-.78-1.479-1.179-.74-1.579-1.859-2.758-2.958-4.337-.38-.4-.74-.8-.74-1.2-.739-.4-1.119-1.179-1.479-1.579-.38-.78-1.119-1.579-1.858-2.758 0-.4-.38-.8-.74-1.18-.38-.799-1.12-1.598-1.48-2.378-1.118-1.579-2.218-3.158-2.977-4.737-.36-.4-.36-.8-.74-1.2v-.379l-.36.38c.36 2.378-4.457 0 1.1 10.274 1.499 3.158 0 7.515-1.84 4.757 21.488 35.938 56.307 59.644 95.583 59.644 46.312 0 85.208-22.907 104.097-69.139 4.077-11.453 12.232-15.41 22.966-14.23 8.155 1.198 25.564 5.936 36.678 11.872z" fill="#eff6fc" fill-rule="evenodd"/><path d="M307.454 210.173c-1.84-1.18-4.058-1.98-5.917-2.759-12.972-6.716-29.262-9.894-39.636-8.694-13.352 1.179-20.747 13.431-22.226 17.389-17.43 42.274-53.728 65.58-95.602 65.58-2.219 0-4.058 0-6.297-.4h-1.838c-1.48-.4-2.979-.4-4.458-.779-.74 0-1.479 0-2.218-.4-1.48 0-2.959-.4-4.438-.8-.38 0-1.119-.38-1.859-.38-2.218-.399-4.077-1.198-5.936-1.978-.74 0-1.479-.4-2.219-.8-1.099-.4-2.598-.779-3.697-1.179-1.12-.4-1.86-.8-2.959-1.179-.76-.4-1.858-1.2-2.598-1.579-1.12-.4-2.219-.8-3.338-1.599-.74-.38-1.48-.78-2.219-1.18-4.077-2.358-8.534-4.736-12.232-7.895-.36-.4-.74-.4-1.12-.799-1.479-.78-2.578-1.979-4.057-3.158-.38 0-.38-.4-.74-.4-5.936-5.137-11.493-10.653-17.05-16.99a5.1 5.1 0 0 1-1.119-1.579s0 0 0 0c-.36-.38-1.099-.78-1.479-1.179-.74-1.579-1.859-2.758-2.958-4.337-.38-.4-.74-.8-.74-1.2-.739-.4-1.119-1.179-1.479-1.579-.38-.78-1.119-1.579-1.858-2.758 0-.4-.38-.8-.74-1.18-.38-.799-1.12-1.598-1.48-2.378-1.118-1.579-2.218-3.158-2.977-4.737-.36-.4-.36-.8-.74-1.2 0 0 0 0 0 0v-.379l-.36.38c.36 2.378-4.457 0 1.1 10.274 1.499 3.158 0 7.515-1.84 4.757 0 0 0 0 0 0 21.488 35.938 56.307 59.644 95.583 59.644 46.312 0 85.208-22.907 104.097-69.139 4.077-11.453 12.232-15.41 22.966-14.23 8.155 1.198 25.564 5.936 36.678 11.872" fill="none" stroke="#000" stroke-width=".64" stroke-linecap="round" stroke-linejoin="round" stroke-miterlimit="10"/><path d="M47.771 215.77c-2.219-3.559-4.057-6.737-5.916-10.295l1.119-.4s-18.909-16.21-18.909-58.524c0-37.577 12.593-56.166 18.15-61.303l.759.4-1.12-.4c1.86-3.178 3.698-6.736 5.557-9.894v-.8c-14.451 14.652-32.98 35.999-32.98 70.798 0 34.819 18.529 56.166 33.34 70.797v-.38z" fill="#f2f1f8" fill-rule="evenodd"/><path d="M52.868 55.606h-.36c-.38-.4-.38-.4-.74 0-.38 0-.38.4-.38.4C45.094 61.942.6 81.71.6 145.352c0 64.84 45.232 84.988 47.091 87.767.36 0 .36.38.36.38v-.78c.38.4.74.78 1.12.78.359 0 .739-.38.739-.78.38-1.18.38-2.379 0-3.558-.38-.4-.74-1.979-1.48-2.778v-.78c-2.978-5.936-.739-5.536 0-6.716v-1.579c-.739-1.599-.739-1.199-.739-1.199-14.83-14.631-33.36-35.978-33.36-70.757 0-34.799 18.53-56.146 32.98-70.757v.78c.38-.4.74-.78 1.12-1.58.74-1.579-.74-3.957 0-7.515 1.099-3.558 4.077-3.958 4.817-6.716v-1.58s.36-1.178-.38-2.378z" fill="#f7fbfe" fill-rule="evenodd"/><path d="M52.868 55.606h-.36c-.38-.4-.38-.4-.74 0-.38 0-.38.4-.38.4s0 0 0 0C45.094 61.942.6 81.71.6 145.352c0 64.84 45.232 84.988 47.091 87.767.36 0 .36.38.36.38v-.78c.38.4.74.78 1.12.78.359 0 .739-.38.739-.78.38-1.18.38-2.379 0-3.558-.38-.4-.74-1.979-1.48-2.778v-.78c-2.978-5.936-.739-5.536 0-6.716v-1.579c-.739-1.599-.739-1.199-.739-1.199-14.83-14.631-33.36-35.978-33.36-70.757 0 0 0 0 0 0 0-34.799 18.53-56.146 32.98-70.757v.78c.38-.4.74-.78 1.12-1.58 0 0 0 0 0 0s0 0 0 0c.74-1.579-.74-3.957 0-7.515 1.099-3.558 4.077-3.958 4.817-6.716v-1.58s.36-1.178-.38-2.378" fill="none" stroke="#00535f" stroke-width=".64" stroke-linecap="round" stroke-linejoin="round" stroke-miterlimit="10"/><path d="M28.743 76.873c-6.996 5.937-27.264 35.22-26.145 66.84 1.46-10.274 7.356-42.714 26.145-66.84z" fill="#fff" fill-rule="evenodd"/><path d="M42.834 204.956c2.219 0 2.219-.78 1.48-2.759-.74-1.579-2.58-1.978-2.96-4.337-.359-2.378.38-3.178 0-4.757-.359-1.979-2.218-1.979-2.218-4.337-.36-1.98 1.48-1.58.74-3.558-.36-1.98-1.48-1.98-2.219-3.958-.38-1.979 1.12-1.979.74-3.558-.38-1.579-2.219-2.378-1.48-7.915.74-5.137.74-7.895 2.6-7.495-7.416-3.558-5.558-28.463-.74-34-1.12-.4-1.12-3.158-1.86-7.515-.739-5.537 1.1-6.316 1.48-7.895.38-1.58-1.12-1.58-.74-3.558.74-1.979 1.86-1.979 2.219-3.958.74-1.979-1.1-2.758-.74-5.137 0-1.979 1.86-1.979 2.219-3.957.38-1.98-.36-1.18 0-3.558.38-2.359 2.219-2.759 2.958-4.338.74-1.978.74-2.778-1.479-2.778l-.74-.4c-5.556 5.157-18.149 23.726-18.149 61.283 0 42.295 18.889 58.485 18.889 58.485z" fill="#81b6de" fill-rule="evenodd"/><path d="M31.381 139.076c-1.12 2.358-.74 9.074-.36 11.433.36 2.758 1.48 6.296 2.579 8.655.38 1.199 2.238 5.136 3.338 5.916.74.78 1.479-1.58 1.119-2.758 0-.78-1.12-1.18-1.48-1.58-.379-.779-1.118-1.958-1.478-3.138-.76-2.378-1.12-4.737-1.12-7.495-.38-1.959 0-4.337 0-6.696.36-1.18 0-2.758-.38-3.938-.739.78-1.099-.799-1.478 0z" fill="#008bca" fill-rule="evenodd"/><path d="M32.1 136.617c1.14-1.579.76-4.357 1.5-6.316.38-1.579.76-3.158 1.878-4.357 1.5-1.58 2.619 1.199 2.26 2.378 0 1.58-1.14 3.158-1.5 4.338-.76 1.179-1.14 2.758-1.14 3.957-.739 1.959-.36 4.737-1.498 6.696-.36-1.18 0-2.358-.36-3.538-.38-1.199-1.14-2.378-1.14-3.558z" fill="#008bca" fill-rule="evenodd"/><path d="M30.581 141.774c0-2.738 1.88-9.034 4.518-10.214.36 3.938-1.88 8.635-1.88 12.952z" fill="#008bca" fill-rule="evenodd"/><path d="M36.218 98.22c0 2.799.36 4.778-.36 7.156-.72 2.399 0 4.777-.72 7.156-.739 2.398-1.099 3.578-.739 6.376 0 2.378-.72 5.157-.36 7.136-1.079-1.58-1.459-4.758-1.459-7.136 0-1.999 1.1-3.578 1.1-5.577.36-2.778-.72-3.578 0-5.956.72-1.999 1.099-4.777 1.818-6.756zm-6.996 19.828c.38 2.799 1.88 4.378 2.619 6.357.74 1.998 0 3.577.38 5.156-1.88-2.778-3.358-7.535-4.118-11.113zm-1.919 9.515c.38 1.978 2.659 1.978 3.418 3.558.74 1.599 0 1.978 0 3.557-1.519-1.579-2.658-5.916-4.937-6.316zm-.719 6.716c.36 2.398 2.618 1.599 2.998 3.198.36 1.599-1.499 2.398-.38 4.397-1.119-1.599-.38-3.598-1.119-4.797-.76-1.2-3.018-1.6-2.259-3.198zm-.8 19.748c2.279-.4 2.639-2.399 4.158-3.198 1.12 1.599 0 2.798-1.52 2.398 0 1.2-.739 1.6-1.878 1.2zm-.719-2.319c1.14-.8.76-1.599 1.519-2.398.76-.8 1.519 0 2.279-.8.759-.8.38-3.998-.38-4.797-.76.8.38 1.999 0 3.198-.76 1.2-1.9.8-1.9 2.399zm.4-9.994c1.159-.4 2.318 0 2.318 1.2-.76 0-1.919.4-2.318.799zm.799 20.668c1.12-.8 2.958-8.355 4.797-5.177-1.459 1.199-1.839 3.198-2.198 5.177-.74 1.579-.74 2.778-1.12 4.757zm8.835 3.158c0 2.378-1.12 4.357-1.12 6.716 0 2.378.74 4.337.74 6.716-.38 2.758.74 3.158 1.499 5.916.36 1.579 0 3.958-.38 5.916-1.499-1.579-.74-3.937-1.499-5.916-1.12-1.979-2.238-3.158-2.238-5.517 0-1.979.38-3.558.38-5.936-.38-2.758 1.858-3.538 1.858-5.917zm-4.318 8.315c-1.479-4.737 5.477-10.654.36-13.832 0 .8 1.1 1.6 1.1 2.379 0 .8-1.1 1.179-1.1 1.978 0 1.98.36 2.759-.36 4.738z" fill="#b4d0ea" fill-rule="evenodd"/><path d="M27.303 159.263c.76-.4 3.738-5.556 4.118-1.579.36 1.98-2.998 3.578-2.618 6.337.38-1.58 1.499-4.758.74-5.937zm3.278 5.877c0-1.2 1.16-6.796 2.699-4.797 1.14 1.2-1.16 4.797-1.54 5.996.38-1.2.76-2.798 0-3.598zm-2.058-20.947c.72 1.579 2.538 5.117-.74 4.737 1.46-.8 1.1-2.359.74-3.538zm.28-2.879c1.459-1.139 1.459-3.038-.38-3.438zm1.459-6.316c.8-1.16 1.199-3.138 0-4.317zm1.139-10.154c.38 2.339 1.5 3.518.76 5.837-1.52 0-1.9-1.54-1.9-3.098zm.699-4.417c0 1.58.4 3.558 1.54 4.737 2.298-1.579 1.159-4.737 1.159-7.116 0 1.6-.38 3.179-1.16 4.358z" fill="#3e9ed3" fill-rule="evenodd"/><path d="M25.465 156.365c1.119-1.16 2.598-1.939 4.437-2.338.36 1.958-2.579 2.338-3.698 3.118zm6.635 15.491c1.14-2.359 0-5.917 2.28-7.516.359.8.359 1.6 0 2.379zm-6.316-38.336c.76.759 2.259 3.097 3.378 3.477 1.12 0 2.619-.38 1.5-1.54-.38-.399-2.24-.399-2.999-1.178-.74-.76-1.12-1.94-1.879-2.719zm5.996-17.79c-.359 1.579-.359 3.538 0 5.097.38 1.959 1.84 3.917 1.48 5.856-2.579 0-3.318-7.815-3.318-10.154z" fill="#008bca" fill-rule="evenodd"/><path d="M30.581 124.764c.4 1.2 1.56 2.799 2.719 2 0-1.2-.76-2-.76-3.199zm-2.418 11.094c.36.78 2.898 2.338 2.898.38 0-.78-2.538-1.56-3.278-2.36zm-1.259 19.028c1.139.38 2.278-.38 3.038 0-.38 1.14-1.14 1.52-1.899 2.259zm5.676 11.773c1.08-.78 1.08-1.939 2.159-3.118v1.959zm3.598-40.296c.72 1.98-.74 4.758-1.12 6.736-.739 2.359-1.478 5.137-1.838 7.896 0-2.359-1.12-14.232 2.958-14.632zM33.3 156.785c0 1.599.74 3.618 1.459 4.837 1.1 1.6 2.538 2.399 2.179 0 0-.82-2.18-3.238-2.539-4.437-.36-1.2-.72-2.419-.72-4.038z" fill="#0071b0" fill-rule="evenodd"/><path d="M31.82 108.534c1.44 2.779-.36 5.557-.36 8.315 0 2.379.72 5.537 2.16 7.516m-6.317 1.199c.38 1.2 1.12.8 1.88 1.599.36.78.36 1.579.739 1.959.38.8 1.859 2.378 1.499 3.558m-5.157 5.196c1.1-.38 7.675-.78 4.038-3.517m-4.837 10.213c2.658-2.378 3.417-.78 3.797 2 .36 3.157-.76 2.378-2.278 5.136m-.72 7.156c1.1-.8 2.559-3.158 3.658-2.759 2.179 0 1.459 2.359.72 3.918-.72 1.979-2.919 6.296-2.18 8.635m3.698-1.959c-.38-1.58.76-3.158 2.659-3.158 1.12 2.758 0 3.538 0 6.296 0 .78.38 1.959.38 3.138 0 1.58 0 2.359.38 4.318m-8.675-35.979c1.179 0 2.718 0 2.718-1.998m5.117-24.466c-.4 1.64-.8 3.258-.4 4.877" fill="none" stroke="#fff" stroke-width=".32" stroke-linecap="round" stroke-linejoin="round" stroke-miterlimit="10"/><path d="M47.631 88.366c0-.8-.36-1.199 0-1.978-1.1 1.179-2.558 1.579-2.918 0 0 .4-.38.78-.38 1.978-.72 1.58-2.558 1.98-2.938 4.338-.36 2.378.38 1.599 0 3.578-.36 1.958-2.199 1.958-2.199 3.937-.36 2.379 1.48 3.178.74 5.157-.36 1.979-1.46 1.979-2.199 3.958-.36 1.959 1.1 1.959.74 3.558-.38 1.579-2.219 2.358-1.48 7.895 1.1 5.536.38 9.094 3.299 7.135 1.838-.799 2.938-6.336 2.938-11.093 0-3.558.74-5.916.74-7.895 0-1.979 0-7.116.36-10.694.379-4.737 1.838-8.694 4.037-9.094 0-.38 0-.78.36-1.18-.36.4-.72 0-1.1.4zm-5.856-3.178h.36-.36zm-4.018 96.162c.74 1.979 1.859 1.979 2.219 3.958.74 1.978-1.1 1.599-.74 3.578 0 2.378 1.86 2.378 2.239 4.357.36 1.579-.38 2.378 0 4.737.36 2.379 2.219 2.778 2.958 4.357 0 .4 0 .8.38 1.2 0-.4.36-.8.74-1.2.38.8 1.119 1.2 1.478 1.98-.36-1.58.38-2.36.74-3.159-1.839-.8-2.958-4.357-3.338-8.715-.36-3.557-.36-8.714-.36-10.293 0-2.379-.74-4.758-.74-8.315 0-4.757-1.119-9.914-2.618-10.694-2.958-1.999-2.598 1.18-3.697 6.716-.76 5.557 1.099 6.336 1.479 7.935.38 1.58-1.12 1.58-.74 3.558z" fill="#008bca" fill-rule="evenodd"/><path d="M42.834 204.956c2.219 0 2.219-.78 1.48-2.759-.74-1.579-2.58-1.978-2.96-4.337-.359-2.378.38-3.178 0-4.757-.359-1.979-2.218-1.979-2.218-4.337-.36-1.98 1.48-1.58.74-3.558-.36-1.98-1.48-1.98-2.219-3.958-.36-1.979 1.12-1.979.74-3.558-.36-1.579-2.219-2.378-1.48-7.915.74-5.137.74-7.895 2.6-7.495-7.416-3.558-5.558-28.463-.74-34-1.12-.4-1.12-3.158-1.86-7.515-.739-5.537 1.12-6.316 1.48-7.895.38-1.58-1.1-1.58-.74-3.558.74-1.979 1.86-1.979 2.219-3.958.74-1.979-1.1-2.758-.74-5.137 0-1.979 1.86-1.979 2.219-3.957.38-1.98-.36-1.18 0-3.558.38-2.359 2.219-2.759 2.958-4.338.74-1.978.74-2.778-1.479-2.778l-.74-.4" fill="none" stroke="#fff" stroke-width=".64" stroke-linecap="round" stroke-linejoin="round" stroke-miterlimit="10"/><path d="M42.154 85.188c-5.576 5.157-18.209 23.726-18.209 61.283 0 42.295 18.949 58.485 18.949 58.485" fill="none" stroke="#000" stroke-width=".64" stroke-linecap="round" stroke-linejoin="round" stroke-miterlimit="10"/><path d="M264.44 144.952 66.88 105.016c7.055 6.736 11.872 22.147 11.872 40.336v.4-.4c0 17.01-4.457 31.64-10.373 39.136l196.06-39.536z" fill="#fdd990" fill-rule="evenodd"/><path d="M241.534 135.918c.38 3.158 2.638 5.896 2.638 8.634 0 3.158-1.879 5.897-1.879 8.635" fill="none" stroke="#fff" stroke-width="1.199" stroke-linecap="round" stroke-linejoin="round" stroke-miterlimit="10"/><path d="m68.419 184.528 196.06-39.476-197.56-39.996" fill="none" stroke="#000" stroke-width="1.199" stroke-linecap="round" stroke-linejoin="round" stroke-miterlimit="10"/><path d="M68.419 184.528c6.376-7.495 10.493-22.126 10.493-39.136v.4c0-18.19-4.857-34-11.993-40.736" fill="none" stroke="#000" stroke-width="1.199" stroke-linecap="round" stroke-linejoin="round" stroke-miterlimit="10"/><path d="m344.551 128.682-80.431 16.33 80.431 16.13v-32.46z" fill="#fdd990" fill-rule="evenodd"/><path d="m344.591 128.722-80.431 16.33 80.431 16.13" fill="none" stroke="#000" stroke-width="1.199" stroke-linecap="round" stroke-linejoin="round" stroke-miterlimit="10"/><path d="M247.81 144.952c0-9.594 7.375-17.39 16.47-17.39 9.114 0 16.47 7.796 16.47 17.39 0 9.614-7.356 17.39-16.47 17.39-9.095 0-16.47-7.776-16.47-17.39" fill="none" stroke="#fff" stroke-width="7.356" stroke-linecap="round" stroke-linejoin="round" stroke-miterlimit="10"/><path d="M247.81 144.952c0-9.594 7.375-17.39 16.47-17.39 9.114 0 16.47 7.796 16.47 17.39 0 9.614-7.356 17.39-16.47 17.39-9.095 0-16.47-7.776-16.47-17.39" fill="none" stroke="#000" stroke-width="3.038" stroke-linecap="round" stroke-linejoin="round" stroke-miterlimit="10"/></svg>