<svg xmlns="http://www.w3.org/2000/svg" version="1.0" viewBox="0 0 267.288 325.909"><defs><clipPath clipPathUnits="userSpaceOnUse" id="a"><path d="M-.16-.16h266.958v326.122H-.16z"/></clipPath></defs><path d="M.76 207.075h264.879v-1.68H.759v1.68zm0 3.357h264.879v-1.239H.759v1.24zm0 2.519h264.879v-.4H.759v.4zm0 3.358h264.879H.759zm238.855-89.586-26.864-7.555-16.19-2.958-14.192-1.28-13.431 4.638-16.95 6.316-9.874 7.995v1.679c1.559 2.518-1.2 7.156-3.158 8.834l-3.558-1.678c-.4.4-.4.839-.8.839l-3.957.44-.4-5.477-7.475.84-16.19.839-8.276-5.477-13.431-3.358-22.507-.84-36.698 1.24L.76 133.88v63.92h264.879v-60.563l-26.024-10.514zm-131.08 21.027c-2.36-.839-3.159-3.757-2.36-7.155l3.159 1.679-.8 5.476zM.76 200.758h264.879v-2.078H.759v2.078zm0 2.959h264.879v-1.28H.759v1.28z" fill="#f8d8cf" fill-rule="evenodd"/><path d="M132.6 186.127c.76-3.758.76-7.155.4-9.674-.4-1.679-.8-3.798-1.6-5.037-.4-1.28-1.559-2.119-2.358-3.398-.8-1.24-1.2-2.518-2.399-4.197-1.16-.84-2.758-1.68-3.518-2.519l-5.156-5.476c-1.96-2.12-3.558-5.077-5.117-8.036-.8-1.679-.8-3.358-1.6-5.037-.4-2.118-1.558-3.797-1.958-5.916-.8-1.679-.4-4.637-.8-6.316-.4-2.079-1.559-3.358-1.559-5.037-.8-4.637-1.599-9.274-1.599-13.912 0-.84-.4-6.756-.4-9.274-1.199-22.306-.4-80.031.4-101.538h16.59c-.8 16.03-.8 54.367 0 81.31 0 11.793 12.233 12.233 14.591 8.875 3.158-3.798 7.516-5.477 12.273-4.238 5.916 2.12 10.274 8.875 11.433 17.27 1.599 10.114-6.716 14.351-14.991 18.988-4.357 2.08-3.558 5.877-6.716 9.235-3.158 3.398 0 8.035 6.316 9.274 2.759.44 3.958-1.679 6.316-2.918 5.917-2.958 11.833-6.756 11.833-6.756 5.557-6.756 16.19-5.077 24.505-5.477 4.718-.44 11.074 2.959 17.75 7.996.8.84 1.599 2.118 2.398 2.958.8.84 2.359 1.279 3.558 2.518.76 1.28.76 2.958 1.959 4.238.8 1.239 2.358 1.679 3.158 3.358.8 1.239 1.2 3.358 1.959 5.037.8 1.279 1.599 1.679 2.398 3.398.8 2.078 1.16 5.037 1.96 7.555.799 1.679 1.598 2.958 1.998 5.077.76 1.679.76 3.358 1.16 5.037 0 1.28.799 2.518.799 3.798.4 1.679 0 4.197.4 5.916 0 1.24.799 2.079.799 3.358 0 1.679-.4 3.798-.4 5.876 0 1.28.76 2.12.76 3.798 0 4.237-.36 8.435-.36 12.632z" fill="#d794a2" fill-rule="evenodd"/><path d="M122.686 91.744c1.199 2.08 0 4.638.8 6.756.799 2.519 4.357 4.198 7.155 3.358 1.559 0 3.158-1.679 3.957-2.958 1.2-2.518 1.96-4.197 3.958-5.916 1.6-1.24 2.758-1.24 1.6-3.358-.4-.44-3.199-1.72-3.599-1.28-3.158 0-9.114 13.512-12.672 5.917zm45.092 51.849c-.4 1.679-.8 3.798-.8 4.637.4-1.679.8-2.958.8-4.637zm48.53 3.798c-.759-1.68-2.358-2.119-3.157-3.358-1.16-1.28-1.16-2.958-1.959-4.198-1.16-1.279-2.758-1.719-3.558-2.558-.76-.84-1.559-2.079-2.358-2.918-6.716-5.037-13.033-8.395-17.75-7.996-8.275.44-18.948-1.279-24.465 5.477 0 0-5.916 3.758-11.833 6.716-2.398 1.28-3.558 3.358-6.316 2.958-2.758-.44-5.157-2.118-6.316-3.398h-1.999c-.4 1.28.8 5.077 1.999 6.316 1.16 2.12 4.717 1.28 5.916 3.358 1.16 2.519-1.199 3.798-1.199 5.917-.4 2.079 1.2 3.358-.4 5.876 3.958 2.519 3.158-10.114 3.958-10.953 1.959-3.758 5.916-.84 7.116 2.119.76 1.279 1.559 3.358 1.559 4.637 0 1.679-1.56 2.518-1.96 4.197 0 1.24 0 4.597 1.96 4.198 1.199 0 1.599-6.316 1.599-7.556.76-2.958.4-5.476-.4-8.435-.4-1.239-1.2-3.358-.4-4.597 1.2-1.679 7.875-3.358 9.874-1.679.76.84 1.16 1.24 1.56 2.079.4-1.679 1.199-3.758 1.598-4.197 5.117-4.638 3.918 7.995 8.675 4.197 3.158-2.079-.4-6.316.8-8.835 1.159-2.078 5.117-4.597 7.475-3.757 4.357 1.239.8 10.073 4.757 9.234.4-2.518-1.599-5.037 1.56-7.156 1.598-1.239 3.957-.4 5.516.44 1.2.84 1.999 1.24 2.758 2.519.4 1.239-.76 2.958-.36 3.797.36 1.68 2.359 2.079 3.918 3.358.4.4 1.6 2.079 2.399 2.918.36 1.28 0 3.358 1.159 4.198 1.999 1.28 7.515-.84 8.275-2.519v-.4zm-48.93 5.476c1.6 1.24 6.317 5.437 5.917.4-2.758-.84-6.316 0-6.316-4.637v-.4c-.76 1.68-1.16 3.358.4 4.637z" fill="#c24f71" fill-rule="evenodd"/><path d="M172.096 219.387c19.348 5.477 40.255 3.798 50.13-3.398 3.157-2.518 5.156-5.477 5.556-8.435v-.44c.36-6.755.36-13.112 0-19.028l-94.783-11.433c.4 2.558.4 5.517-.4 9.314v.44c-1.598 11.833 16.59 27.064 39.497 32.98z" fill="#d794a2" fill-rule="evenodd"/><path d="M142.034 135.558c.8 1.28.4 2.958 0 4.637m-35.898.32c-.8 3.398 0 6.356 2.398 7.195" fill="none" stroke="#000" stroke-width=".8" stroke-linecap="round" stroke-linejoin="round"/><path d="M134.159 90.825c1.959-3.798 7.475-6.756 11.433-6.316 2.758.44 5.117 1.679 7.875 2.518 3.158 1.28 4.357 2.119 6.316 5.477 2.758 4.637 4.717 9.714 2.758 15.63-.799 2.919-3.557 8.395-6.675 7.996 1.159-1.68 2.358-5.077-.4-5.917-2.399-.84-3.558 1.28-5.517 1.28 1.56-7.156-4.757-5.077-8.675-6.317.36-3.398 5.917-.44 7.876-.84 3.917-.839 3.557-3.397 3.158-6.755-.4-1.68 0-5.077-2.759-4.637-3.158 0-.4 5.916-3.957 5.037 0-1.68 2.358-3.358 1.599-5.477-.8-1.679-3.158-1.24-4.358-.4-4.317 1.68-12.632 2.119-12.632 6.756 0 4.637 1.999-4.637 3.958-8.035z" fill="#c24f71" fill-rule="evenodd"/><path d="M124.285 97.261c-.4 4.957 6.796 1.24 8.794 1.24-.8-2.08-.8-3.319.8-5.397z" fill="#a42554" fill-rule="evenodd"/><path d="M129.921 98.46c-2.358-3.797 5.117-9.234 7.476-11.353 3.558-3.358 7.475-2.918 11.393-2.079 4.357 1.24 7.076 6.277 9.834 9.635 3.957 5.876 6.676 13.431-.76 18.029.36-2.479-1.599-4.158-3.558-4.997.4 0 1.2-.44 1.96-.84.4-1.679-.4-3.797 0-5.476.4-2.519.4-5.037-1.16-7.116-1.2-1.68-5.916-5.477-7.475-2.958-2.359-5.437-12.193-.84-13.352 2.958-.4 1.24-4.358 4.197-4.358 4.197z" fill="#a42554" fill-rule="evenodd"/><path d="m204.876 152.388-1.6.44c1.6.839 3.958.839 4.758-.84-1.2.4-2.359.4-3.158.4zm22.506 30.741c-.8-2.958-1.2-6.316-1.599-9.274-.8-5.877-2.758-11.753-5.117-17.23-.8-1.679-1.199-3.358-1.959-5.077-2.398-4.597-5.156-8.834-8.315-12.592-1.159-.84-1.958-1.28-3.158-1.72.4 3.399.8 5.917.4 8.875 0 .84-.4 1.24-.4 1.68 0 1.239 1.2 2.078 1.2 3.357-.4 0-.4.4-.4.84.8-.44 1.559-.84 1.959-1.28 2.758 1.28 3.158 2.12 3.158 5.078 0 1.679-.76.84-.4 2.518.4.84 1.2 1.679 1.6 2.519 1.558 2.958 1.198 5.036.399 8.434 0 .84-3.158 7.556-.4 7.556 2.359.44 2.359-7.995 2.359-9.674-.4-4.198 1.998-4.637 4.357-1.28 2.758 4.638 3.558 11.394 5.117 16.43 1.2 2.959 1.599 5.877 1.599 8.835 0 1.68-.4 3.798.36 5.037 0-4.597-.36-8.835-.76-13.032z" fill="#c24f71" fill-rule="evenodd"/><path d="M163.061 131.8s-1.599.84-4.357 2.519c-.4.44-.4.84-.76.84-2.398 2.118-5.916 3.797-9.074 5.036-1.2.84-2.359 1.679-3.958 1.28-.4 0-1.16.399-1.559.399l-5.157-.84c1.6 4.638 4.757 3.798 8.675 2.959 1.599-.44 2.399 0 3.958.4 2.358 1.279 1.599 1.678 1.958-.84.8-3.358 2.759-2.918 6.317-4.197 2.358-.4 6.316-4.198 7.875-.4 1.999-.84 1.2-5.037 4.757-5.877 3.918-1.279 1.959 5.437 4.717 3.758-.4-4.197.8-5.037 4.357-6.716 3.159-1.24 4.718-1.679 7.876 0 1.559.84 1.159.84 2.758.84 1.559.44 3.558.44 5.117.84 3.158 1.278 5.916 3.357 8.275 6.315.8 1.24 1.2 2.919 1.999 3.758 1.159 1.28 2.758.84 3.917 2.119 1.2 1.239.4 2.518 1.2 3.757.76 2.12 3.158 2.12 4.317 3.798.4 1.24 0 2.918.8 3.758.4 1.28 1.559 2.518 2.358 3.798 1.2 1.679 1.599 3.757 2.359 5.436.8.84 1.599 1.68 2.358 2.519-.36-1.24-.76-2.519-1.559-3.758-.8-2.518-1.2-5.477-1.959-7.555-.8-1.68-1.599-2.12-2.358-3.358-.8-1.68-1.2-3.798-2-5.037-.799-1.68-2.358-2.119-3.157-3.358-1.16-1.28-1.16-2.958-1.959-4.198-1.2-1.279-2.758-1.679-3.558-2.518-.76-.84-1.559-2.119-2.358-2.958-6.716-5.037-12.993-8.395-17.75-7.956-8.275.4-18.908-1.279-24.425 5.437z" fill="#a42554" fill-rule="evenodd"/><path d="M129.561 154.147c2.399 2.518 5.157 3.358 6.716 6.716-.4-1.28-.8-2.12-.8-3.358l-5.916-3.358zM227.781 197c-.399 2.958-1.598 5.476-2.757 7.995-.8 1.239-.8 2.518-1.2 3.757-.4-.839-.4-2.078-.4-2.918.4-2.118 4.358-8.834 0-10.074-1.159 0-1.958 2.519-3.557 1.68-1.56-.44-1.16-2.12-1.16-2.959-.4-2.958 0-6.316.4-8.835 0-1.678 1.56-2.518 1.56-3.757.399-2.119-1.96-2.958-3.559-1.68-1.159 1.24.8 5.437.8 7.116 0 2.519-.4 5.037 0 7.596 1.959 6.276 0 10.074-1.2 15.95 0 .44 0 .84-.36 1.28 0 0-.399-.44-.799-.44-3.557-.4-5.117 1.279-6.716 2.958 0-2.519-.4-5.037.4-7.595.8-2.919 1.959-5.037 2.359-7.556.4-2.918.8-5.876 0-8.835-.8-2.078-2.359-3.757-2.759-5.876 0-1.24.4-2.918.4-4.197 0-6.716-2.358-11.354-7.115-15.111-4.318-3.798-10.634-2.559-12.993-8.835-1.199-2.958-.4-4.197-3.557-5.477-1.96-1.279-5.117-2.118-7.076 0-1.6 2.519-.8 9.235 0 11.753 1.559 4.238 5.117 4.637 7.475 7.995l-5.117-7.155c-2.358-2.079.8-2.918-1.199-5.437-1.559-2.518.4-5.477 3.158-5.876 2.359-.84 2.759.4 3.158 2.918.4 2.958 1.96 2.119 3.158 5.037 1.2 2.958 5.117 2.958 7.476 4.637 2.758 2.119 4.357 2.518 7.515 3.798 1.56 1.239 1.16 2.518 1.56 4.197.4 2.918 2.358 5.037 2.358 7.556-.36 3.358-1.16 6.316-1.16 10.073 0 3.358-.4 6.756 0 10.114.4 4.598-.4 9.674-.4 14.711v.4c0 .44-.399.44-.399.44-1.959.84-3.558.84-5.117 1.24-1.2 0-2.358.839-3.158 1.278 0-2.518-.8-4.637 0-6.716.8-1.679 1.959-2.958 2.758-4.237.8-1.679.8-3.358.4-5.037 0-1.679-.8-3.758-.8-5.876 0-2.08 1.2-3.358 2.36-5.037 3.157-4.638 1.598-8.395-.4-13.032-.76-1.68-1.16-4.638-2.36-5.877-1.158-.84-3.557-1.679-4.316-.84 0 .4 0 .84.4.84 1.159-.44.36-.84 2.358 1.24 1.559 2.118 1.959 2.518 2.358 5.476 0 2.958.8 3.358 0 7.156-.8 3.358-1.199 4.597-2.358 6.716-.8 2.518-1.2 3.358-.4 6.716.8 2.958 1.959 4.197-1.2 7.555-2.757 3.398-2.358 4.237-4.317 7.595-2.358 2.919-3.158 4.198-7.875 3.758-4.757 0-1.999-2.918.76-4.597 2.358-1.68 3.558-3.798 5.157-5.037 1.159-1.28 1.559 0 1.958-4.637.8-4.198 1.56-6.716-.4-8.835-1.558-2.518-1.199-3.798-3.157-4.197l-2.359-.44c-1.959 1.28-4.357-5.037-6.716-1.24-1.959 2.52 1.6 2.08 2.758 1.68 2.759 0 4.758.4 6.716 2.518 2.359 2.119 2.759 9.235 1.56 12.593-.76 3.397-4.718 4.637-7.476 5.916-1.2.4-3.958 2.518-5.117 2.079-.8-.4-.4-1.68-.8-2.519 0-1.679.8-3.358.8-5.037 0-1.279-.8-2.118-.8-2.958-.4-1.24.4-2.079.4-2.918.4-.84.8-1.68 0-2.519-.8-1.279-2.358-.84-3.158.4 2.759 2.519 1.959 5.037 1.56 8.835-.36 3.358 1.199 5.876-3.519 6.316-1.599 0-3.158-.84-5.156-1.28-1.56-.4-3.518-.4-5.517-.839-1.56-.4-3.158-1.679-4.717-2.518.4-1.28.8-2.119 1.199-3.798.76-4.197.36-8.395-1.599-11.753-1.56-4.197-1.56-5.876-1.56-10.513-.399-3.758-1.598-7.556-1.598-11.753l-5.117-5.037c1.2 2.078 3.158 3.757 3.958 6.276 1.159 2.518 0 4.637-.4 7.595-.4 5.437 3.518 7.955 3.518 12.992 0 5.917-1.56 9.675-4.318 13.872v-.4c-.4-1.279-.4-2.118-.4-3.797.4-2.08 2.759-11.753-1.958-9.235 3.158 4.198 1.16 8.835-2.759 4.198-1.998-2.08-3.158-4.198-4.357-7.156 0-.4 0-1.24-.4-2.079v-.44c-.36-2.518-1.559-4.597-1.159-7.115 0-2.958 1.16-5.477.8-8.435-.8-3.758-2.799-7.116-4.358-10.514.8 2.958.8 6.316 1.2 9.275.759 5.436-1.2 10.513-.8 15.95-.8-2.519-.8-5.037-1.2-7.555-.4-5.477-1.159-8.395-5.116-12.193.4 1.28.4 2.119.8 3.358 1.958 3.798 2.358 7.995 1.159 14.311v.4c-.76 5.037 1.998 10.514 7.515 15.55.8 1.28 1.959 2.12 2.758 2.959h.4c.76.84 1.959 1.679 2.758 2.518 1.16.84 2.759 1.68 3.918 2.519.4.44.8.44 1.6.84.399.439.799.439 1.158.839h.4c.4.44 1.2.84 1.6.84.759.439 1.158.839 1.958 1.278 4.717 2.08 9.874 4.198 15.39 5.437 5.917 1.68 12.233 2.958 18.15 2.958 1.958.4 3.917.4 5.876.4h.4c2.398 0 4.757-.4 7.116-.4h.4c4.317-.84 8.274-1.679 11.832-2.958 2.359-.84 4.717-2.079 6.316-3.358 0 0 .36 0 .36-.4 2.758-2.118 4.757-5.037 5.157-7.995v-.44c0-3.357.36-6.276.36-9.634l-.36-.44zm-5.516 13.471c-1.199.84-3.158 1.24-3.558 1.68h-.8c.4-2.519 0-3.798 1.2-6.317 1.16-1.679 2.759-5.476 3.518-1.679.8 2.079 0 4.198-.36 6.316zm-85.988-49.61c0 .84.4 1.24.4 2.08 0-.84 0-1.24-.4-1.68v-.4z" fill="#c24f71" fill-rule="evenodd"/><path d="M213.59 217.308c-.799 0-1.998.4-2.358.4h-1.6s-.399-.84-.799-.84c-1.159 0-1.559 2.12-3.158 2.519h-3.158c-2.358 0-5.157 2.119-7.515.44-1.2-.84-1.2-1.68-.8-3.358.4-.44 2.799-2.958.8-2.958-1.2-.44-1.56 3.358-2.359 4.197-.8 1.679-1.599 2.559-3.158 3.398-2.798.84-8.315-1.28-10.673-2.958.76-1.28 1.159-2.119-.4-1.68-.8.4-.8 2.08-1.999 1.24-.8 0-.4-1.24 0-1.679-1.16-.84-1.959.44-3.158.44-1.2 0-2.359-.44-3.558-.44-2.758-.4-5.117-1.28-7.915-2.119-1.56-.4-3.558-1.239-5.117-2.518-.8-.4-1.999-1.24-1.999-2.519-.4-.84 1.2-1.679 0-2.958-1.559.44 0 2.958-1.559 3.358 0 0-3.158-.84-3.558-1.24-1.998-1.678.4-3.797-.4-5.076-1.998 3.398-5.556-1.24-7.115-2.918-1.2-1.28-2.758-2.958-3.158-5.077 0-2.119.76-3.358-.8-5.037 0 .84.8 4.197-.8 4.197-1.958 0-1.198-2.958-2.358-3.358-.4 0-.4.4-.8.84-.799-.44-1.199-1.28-1.598-2.559 1.199 11.394 18.189 24.865 39.536 30.342 19.388 5.477 40.335 3.798 50.21-3.358 1.598-1.28 2.798-2.518 3.557-3.798-3.917 1.68-7.475 5.077-12.232 5.077z" fill="#a42554" fill-rule="evenodd"/><path clip-path="url(#a)" d="M224.264 219.227c-10.673 7.995-32.38 9.674-53.328 4.198-20.147-5.477-40.255-18.909-42.254-33.26-1.959 12.632-6.316 27.383-9.074 37.897-3.958 14.75-11.074 29.062-26.864 29.062-12.233.4-11.034-4.197-18.949-5.916-7.875-2.079-9.074.84-13.831-.4-3.158-1.28-16.95-12.632-35.899-9.674h.36c-11.433.84-13.032 34.1 3.958 33.26l.4-.44c9.474-1.28 15.39 2.119 18.948 7.156 3.558 4.637 5.916 13.471 11.873 18.508 11.033 10.954 19.348 9.275 29.182 10.554 10.274.84 10.274 10.913 39.496 14.311 29.622 3.758 86.468-36.617 99.5-93.903 1.599-7.155 2.398-13.871 3.158-20.188-1.16 3.358-3.158 6.317-6.676 8.835z" fill="#e7c2c8" fill-rule="evenodd"/><path clip-path="url(#a)" d="M224.264 219.227c-10.673 7.995-32.38 9.674-53.328 4.198-20.147-5.477-40.255-18.909-42.254-33.26-1.959 12.632-6.316 27.383-9.074 37.897-3.958 14.75-11.074 29.062-26.864 29.062-12.233.4-11.034-4.197-18.949-5.916-7.875-2.079-9.074.84-13.831-.4-3.158-1.28-16.95-12.632-35.899-9.674h.36c-11.433.84-13.032 34.1 3.958 33.26l.4-.44c9.474-1.28 15.39 2.119 18.948 7.156 3.558 4.637 5.916 13.471 11.873 18.508 11.033 10.954 19.348 9.275 29.182 10.554 10.274.84 10.274 10.913 39.496 14.311 29.622 3.758 86.468-36.617 99.5-93.903 1.599-7.155 2.398-13.871 3.158-20.188-1.16 3.358-3.158 6.317-6.676 8.835" fill="none" stroke="#58585a" stroke-width=".8" stroke-linecap="round" stroke-linejoin="round"/><path d="M223.465 223.465c-3.958 8.434-10.634 22.746-14.592 29.502-31.98 52.688-73.835 54.367-87.267 46.771-13.432-7.155-19.348-11.793-30.022-11.793-10.273 0-29.622 2.519-35.938-8.434-6.676-11.793-16.55-15.591-27.623-10.114-1.559.44-2.359 1.279-3.558 1.679 1.6-.4 2.759-.84 4.358-1.24 9.474-1.279 17.349 3.798 20.907 8.435 3.158 5.037 5.556 13.072 11.073 18.11 11.433 10.953 18.549 9.274 28.823 10.553 9.874 1.24 10.673 10.114 37.097 13.912 29.222 4.597 85.708-38.377 98.34-95.702 0-.84.4-1.24.4-2.08.36-1.718-1.199-.839-1.998.4zm-199 47.61c-2.758.88-4.357 1.72 0 0z" fill="#e1b1b9" fill-rule="evenodd"/><path d="M89.586 306.934c9.874 1.24 10.673 10.114 37.097 13.912 29.223 4.597 85.668-38.337 98.26-95.662-5.916 15.59-34.299 88.066-96.66 90.185-13.832 0-28.024-10.114-38.697-8.435zm-31.981-14.831c2.399 5.916 11.113 14.311 24.145 13.912-3.957-.84-15.43-3.798-24.145-13.912z" fill="#d794a2" fill-rule="evenodd"/><path d="M24.425 241.174c-11.433.88-13.032 34.14 4.318 33.3" fill="none" stroke="#58585a" stroke-width=".8" stroke-linecap="round" stroke-linejoin="round"/><path d="M60.723 254.606c8.715-3.798 11.873 0 19.348 2.518 7.116 2.519 13.033 5.477 24.106 0 11.033-5.477 16.19-19.388 20.547-37.937 4.318-18.109 3.918-18.549 9.075-13.072 5.517 5.517 13.792 15.59 35.898 20.668-14.591-.84-32.34-10.954-36.698-2.519-4.357 8.835-4.357 35.818-28.822 40.456-24.106 4.597-25.265-5.077-31.581-5.477-5.916-.44-9.074-6.756-11.873-4.637z" fill="#f0d9dc" fill-rule="evenodd"/><path d="M105.736 256.844c7.915-4.637 11.833-11.793 15.39-21.906 3.159-10.554 5.877-22.787 5.877-22.787-1.16 19.429-4.717 40.056-21.267 44.693z" fill="#fff" fill-rule="evenodd"/><path d="M176.013 228.102c5.957 1.679 25.705 4.197 39.536-1.28 5.517-2.078 9.075-4.197 9.075-4.197l-2.758 7.156-8.675 14.67s5.516-10.073-4.358-11.312c-4.357-.84-30.421-1.68-32.82-5.037z" fill="#e1b1b9" fill-rule="evenodd"/><path d="M111.732 134.678c2 7.196 3.158 12.233 8.275 17.31 1.96 1.719 3.158 4.237 5.117 5.916 2.359 2.119 5.517 2.559 7.076 5.477-1.16-3.798-5.477-3.798-8.235-5.876-2.359-2.559-3.158-5.917-3.958-9.315-.76-3.358-1.159-6.316-3.158-8.874-1.559-2.08-4.717-2.959-4.717-5.917zm72.596 12.193c4.358-1.719 4.757 2.958 5.917 5.916.4.84.8.84 1.199 1.68.4.839 0 1.678.4 2.518.76 1.719 1.959 2.119 3.917 2.119 2.359 0 3.158 0 5.117 1.719 1.999 1.239 4.358 5.036 6.316 2.518 3.918-5.916-7.475-5.916-9.834-7.196-1.199-.4-2.758-.84-3.557-2.118-.8-1.24.8-5.477 1.958-6.317 1.6-.44 7.876 2.12 9.075.4 1.959-4.237-7.875-3.358-9.874-3.358-4.318 0-1.56 2.958-3.518 5.477-1.2-1.28-2.758-5.916-4.357-4.637zm.4 13.472c-2.359-1.28.8 5.477 1.2 6.316.799 2.558 3.557 8.435-.8 8.435-3.558 0-6.716-5.037-7.516-7.995-.8-1.68-1.199-4.238-2.758-5.077-1.2-.84-3.158-.84-3.558.44 1.16 1.679.8 2.958 1.56 4.637.799.84 1.598.84 2.398 1.679.76.84 1.559 1.679 1.959 2.518 1.199 1.28 2.758 2.958 2.758 5.077 0 2.119-1.56 2.958-2.758 4.238-3.158 2.958-4.758 5.876-5.117 10.513-.4 4.238-3.598 8.435-2.399 12.233 1.6-.4 1.6-2.079 1.6-3.358.399-2.519.799-4.198 1.158-6.316.8-2.959 1.2-5.477 3.558-8.036.8-.839 1.6-2.078 2.399-2.518.8-.44 1.559 0 2.358-.44 2.399-.84 3.558-3.358 3.159-5.476-.4-.84-1.56-1.68-1.56-2.519.4-.84 1.96-.44 2.359-.44 1.2.84.8 1.72 2.359 1.28.8 0 1.599-.84 2.398-1.28 1.16-2.078-.4-4.197-1.599-6.316-.8-1.279 0-2.518-.4-3.797-.76-2.519-2.758-3.358-4.717-4.198zm-15.071-1.279c-1.959-.88-4.277.84-5.437 2.518-1.199 2.079-1.199 3.358-.4 5.877.4 1.678 1.16 3.397.4 5.476-.799 1.28-2.358 2.119-3.118 3.798-.8 1.28 0 2.958-.4 4.237-.4 1.24-1.558 2.519-1.958 3.758-.4 2.958 4.277 12.632 5.077 7.156.76-3.758-3.918-6.316-2.719-10.514.76-2.958 4.678-3.798 6.237-6.756.76-2.518-1.2-5.037-1.56-7.155-1.199-3.798-.4-5.477 2.719-6.317.4-.84 2.318-2.078 1.559-2.078z" fill="#c24f71" fill-rule="evenodd"/><path d="M164.62 187.366c0 2.959 4.318 8.036-.4 10.154-1.199.4-2.758-.84-3.158.84-.4.84.4 1.679.8 2.518.8 1.28.8 2.119.4 3.798-.4.84-1.6 4.197.76 2.518 1.598-1.239-.36-4.637-.36-6.316.759-2.958 7.035-4.197 3.517-7.995zm22.906-4.237c-2.398 2.079-.8 3.798 1.16 4.637 2.398 1.24 3.957 2.079 4.757 4.597 0 .84-.4 1.28.4 2.12.799.399 1.958-.84 2.358-1.68 1.959-2.518-1.2-4.197-.8-6.756.4-2.078 2.759-6.276 0-7.555-2.758-1.28-1.159 3.798-1.159 4.637 0 1.679 0 3.798-1.199 4.197-1.2.44-2.758-2.118-3.958-.839zm-67.958-68.759c3.997 5.078-1.2 8.875-1.6 13.912-.4 2.958 0 5.077.8 8.035.4 1.68.8 7.556 3.598 7.156 3.198-.84-.4-4.237-1.2-5.477-1.199-2.118-1.598-5.476-.799-7.995.4-1.719 2.798-3.797 3.198-5.516 0-1.24-.4-.84-.8-1.68-.4-1.239-.4-2.518 0-3.797z" fill="#c24f71" fill-rule="evenodd"/><path d="M101.898.76c-1.199 24.025-1.999 91.824-.4 107.814.76 18.11 4.318 39.616 13.752 50.13l5.117 5.476c7.875 8.835 10.234 10.954 8.635 21.467-.4.84.4 2.12 1.599 2.12.76.399 1.959-.44 1.959-1.68.76-3.797.76-7.155.4-9.714-.4-1.679-.8-3.758-1.6-5.037-.4-1.28-1.559-2.119-2.358-3.358-.76-1.279-1.16-2.518-2.359-4.237-1.16-.84-2.758-1.68-3.518-2.519l-5.117-5.476c-1.958-2.08-3.557-5.037-5.116-7.996-.8-1.679-.8-3.358-1.56-5.036-.4-2.12-1.599-3.798-1.958-5.917-.8-1.679-.4-4.637-.8-6.316-.4-2.079-1.559-3.358-1.559-5.037-.8-4.637-1.599-9.274-1.599-13.912v-9.674c0-2.518-.8-4.637-.8-7.995 0-2.958.4-6.316.4-10.114-.4-2.958-.76-5.916-.76-8.834 0-26.145.76-58.965 1.16-74.155z" fill="#f0d9dc" fill-rule="evenodd"/><path d="M101.898.76c-1.199 24.025-1.999 91.824-.4 107.814 0 0 0 0 0 0 .76 18.11 4.318 39.616 13.752 50.13l5.117 5.476c7.875 8.835 10.234 10.954 8.635 21.467-.4.84.4 2.12 1.599 2.12.76.399 1.959-.44 1.959-1.68.76-3.797.76-7.155.4-9.714-.4-1.679-.8-3.758-1.6-5.037-.4-1.28-1.559-2.119-2.358-3.358-.76-1.279-1.16-2.518-2.359-4.237-1.16-.84-2.758-1.68-3.518-2.519l-5.117-5.476c-1.958-2.08-3.557-5.037-5.116-7.996-.8-1.679-.8-3.358-1.56-5.036-.4-2.12-1.599-3.798-1.958-5.917-.8-1.679-.4-4.637-.8-6.316-.4-2.079-1.559-3.358-1.559-5.037-.8-4.637-1.599-9.274-1.599-13.912v-9.674c0-2.518-.8-4.637-.8-7.995 0-2.958.4-6.316.4-10.114-.4-2.958-.76-5.916-.76-8.834 0-26.145.76-58.965 1.16-74.155" fill="none" stroke="#000" stroke-width=".8" stroke-linecap="round" stroke-linejoin="round"/><path d="M101.898.76c-1.199 24.025-1.999 91.824-.4 107.814 0 0 0 0 0 0 .76 18.11 4.318 39.616 13.752 50.13l5.117 5.476c7.875 8.835 10.234 10.954 8.635 21.467-.4.84.4 2.12 1.599 2.12.76.399 1.959-.44 1.959-1.68.76-3.797.76-7.155.4-9.714-.4-1.679-.8-3.758-1.6-5.037-.4-1.28-1.559-2.119-2.358-3.358-.76-1.279-1.16-2.518-2.359-4.237-1.16-.84-2.758-1.68-3.518-2.519l-5.117-5.476c-1.958-2.08-3.557-5.037-5.116-7.996-.8-1.679-.8-3.358-1.56-5.036-.4-2.12-1.599-3.798-1.958-5.917-.8-1.679-.4-4.637-.8-6.316-.4-2.079-1.559-3.358-1.559-5.037-.8-4.637-1.599-9.274-1.599-13.912v-9.674c0-2.518-.8-4.637-.8-7.995 0-2.958.4-6.316.4-10.114-.4-2.958-.76-5.916-.76-8.834 0-26.145.76-58.965 1.16-74.155" fill="none" stroke="#000" stroke-width=".8" stroke-linecap="round" stroke-linejoin="round"/><path d="M129.122 184.728c-3.558 16.03 18.948 32.5 41.814 38.817 20.908 5.476 42.615 3.797 53.248-4.198 4.318-2.958 6.716-7.196 7.076-11.433 0-1.24-3.518-1.679-3.518-.4-.4.84-1.2 2.119-1.6 2.958-.399.84-.399 2.12-1.158 2.959-.8.84-1.6 1.679-2.759 2.518-1.199.84-3.158 1.28-4.757 2.119-1.16.84-1.959 1.679-3.558 2.119-1.159.4-2.358 0-3.518.4-1.599.439-2.758.839-4.357 1.279-1.559.4-3.558 0-5.117 0-1.599.4-2.758.839-4.357.839-1.16 0-2.359-.84-3.558-.84-.76 0-1.959.84-3.118.4-1.2 0-1.999-.4-3.158-.4-1.2-.44-2.399 0-3.558 0-1.599-.44-2.758-.839-4.357-1.279-1.16 0-2.359 0-3.518-.4-1.2 0-1.999-.839-3.158-.839-.8-.44-2-.44-2.759-.44-1.199-.44-2.398-1.279-3.558-1.679-.799-.44-2.358-.44-3.158-.84-1.199-.439-1.958-1.718-3.158-2.118-.8-.44-1.958 0-2.758-.44-1.2-.4-1.959-1.679-2.758-2.118-1.2-.84-2.759-.84-3.958-1.68-.8-.4-1.559-1.678-2.358-2.118-.8-.4-1.6-.84-2.36-1.24-.799-.439-1.598-1.678-2.358-2.558-.8-.4-1.599-.84-2.398-1.679-.76-.4-1.56-1.679-1.959-2.518-.8-.44-1.56-1.28-1.959-1.68-.8-1.278-1.2-2.118-1.599-3.397-.4-.84-1.16-1.28-1.559-2.119-.4-1.24 0-2.119-.4-3.358 0-1.279-.4-2.558-.4-3.797.4-.84-3.557-1.72-3.557-.84z" fill="#f9eff0" fill-rule="evenodd"/><path d="M129.122 184.728c-3.558 16.03 18.948 32.5 41.814 38.817 20.908 5.476 42.615 3.797 53.248-4.198 4.318-2.958 6.716-7.196 7.076-11.433 0-1.24-3.518-1.679-3.518-.4-.4.84-1.2 2.119-1.6 2.958-.399.84-.399 2.12-1.158 2.959-.8.84-1.6 1.679-2.759 2.518-1.199.84-3.158 1.28-4.757 2.119-1.16.84-1.959 1.679-3.558 2.119-1.159.4-2.358 0-3.518.4-1.599.439-2.758.839-4.357 1.279-1.559.4-3.558 0-5.117 0-1.599.4-2.758.839-4.357.839-1.16 0-2.359-.84-3.558-.84-.76 0-1.959.84-3.118.4-1.2 0-1.999-.4-3.158-.4-1.2-.44-2.399 0-3.558 0-1.599-.44-2.758-.839-4.357-1.279-1.16 0-2.359 0-3.518-.4-1.2 0-1.999-.839-3.158-.839-.8-.44-2-.44-2.759-.44-1.199-.44-2.398-1.279-3.558-1.679-.799-.44-2.358-.44-3.158-.84-1.199-.439-1.958-1.718-3.158-2.118-.8-.44-1.958 0-2.758-.44-1.2-.4-1.959-1.679-2.758-2.118-1.2-.84-2.759-.84-3.958-1.68-.8-.4-1.559-1.678-2.358-2.118-.8-.4-1.6-.84-2.36-1.24-.799-.439-1.598-1.678-2.358-2.558-.8-.4-1.599-.84-2.398-1.679-.76-.4-1.56-1.679-1.959-2.518-.8-.44-1.56-1.28-1.959-1.68-.8-1.278-1.2-2.118-1.599-3.397-.4-.84-1.16-1.28-1.559-2.119-.4-1.24 0-2.119-.4-3.358 0-1.279-.4-2.558-.4-3.797.4-.84-3.557-1.72-3.557-.84" fill="none" stroke="#000" stroke-width=".8" stroke-linecap="round" stroke-linejoin="round"/><path d="M182.81 154.906c-2 1.28 0 2.998-.4 5.077-.4 2.119-1.6 2.998.4 5.077 0-1.24-1.2-6.316 1.198-6.756 1.56 0 1.56 3.798 3.518 3.398 0-.84-3.518-5.517-4.717-5.916zm22.466 32.78c.4 4.637-3.598 7.196-3.598 10.994 0 1.679 1.199 3.358 1.199 5.476 0 2.519-1.999 4.637-2.399 6.716 2-.84 3.199-3.758 3.199-5.876 0-1.68-1.2-2.958-1.2-4.238 0-2.078 1.2-5.476 2-7.155zm4.717-11.713c.4 3.758.4 6.277 1.559 9.235 1.2 2.078 2.358 4.197 2.358 6.716.4 2.078-.76 3.358-.76 5.436 4.678-.84 0-7.955 0-10.074-.399-3.357 2.32-5.436 3.519-7.555.4-1.24 0-2.518 1.159-3.358.8-.84 1.599.44 2.758-.84 1.56-1.678 0-6.316-2.358-5.876 0 2.958-.4 3.798-1.96 6.316-1.158 1.68-1.158 4.598-3.517 5.037-1.959-2.518-.8-7.155-3.958-8.395zM198.16 149.51c-3.198-.44-3.998 4.597-.4 5.036 1.2.4 1.959 0 3.158.4 1.6 0 3.198 1.24 4.358.44-1.56-1.28-7.916-.84-8.315-3.358-.4-2.958 4.357-.84 5.956-2.119-1.2-.84-3.198-.84-4.757-.4zm.32-14.032c-1.56-.84-3.558-1.28-5.117-.84.4 3.398 2.758 9.275-2.759 9.715-3.557.44-1.599-2.959-2.398-5.077-1.56-2.959-2.758 1.279-2.359 2.958-.4 0-.8.84-1.199.84 1.2.839 2.798.439 3.558 1.279 1.2.839 1.2 3.357 2.398 2.958 1.16 0 1.16-2.958 1.96-3.398 1.199-.84 2.758-.4 3.957-.84-.4-3.797-.8-5.476 1.2-7.595zm-29.502 29.462c-3.159-.44.4 9.314-1.2 11.833-.76 1.679-2.358 1.28-3.118 2.958-1.2 1.68-1.999 4.637.36 5.477 0-4.198 2.359-5.477 4.357-8.435 1.16-2.119.36-6.756 3.918-5.077.8.44 1.559 2.558 2.359 1.679 1.159-1.24-.8-2.519-1.56-2.958-1.199-.84-1.998-.84-2.758-1.68-1.2-1.278-.4-3.357-1.959-4.237zm7.035 23.226c-2.358 2.119-2.358 5.077-2.718 7.995-.4 2.119-.4 5.477-1.6 7.156-.799.84-1.958 1.679-2.757 1.279-1.96-1.28 0-6.756-3.518-4.197-3.158 2.078 2.758 7.555-2.359 8.794-.8 0-2.398-.4-1.2.84 1.2.84 2.36 0 3.159-.84 1.16-.4 1.16 0 1.559-1.239 0-1.28-.4-2.958-.8-3.798 1.6-.4 1.2 2.958 2.759 3.358 1.2 0 4.357-1.679 4.757-2.918.76-1.679.36-4.197.76-6.316 0-1.68-.4-3.798.4-5.037zm3.238 11.673c-2.758.44.8 5.996.8 7.675-.4.84-1.56 2.998-.8 3.838 1.2 1.679 3.558-1.28 4.358-1.72 1.159-.839 3.917-.839 3.158-2.558-1.6-2.518-3.558 2.999-5.117 2.16-.8-.44-.8-2.56-1.2-3.399-.4-1.279-1.558-2.558-1.558-3.837zm17.709-15.95c-2.318 2.118 2.32 5.516.4 7.635 1.16-2.119.4-3.798.4-5.916-.4-1.72.36-3.398-.8-5.117zm-8.314-18.829c.8 1.679.4 2.518 1.199 3.798 1.16 2.518 2.758 5.037.4 7.115-.8.84-2 1.28-2.759 1.68-.4 0-2.398-.84-2.398-.4-1.16.4 0 2.518.4 3.358-.76 1.679-1.56 1.679-3.159 2.918 2-.84 2.759-1.68 3.958-3.358.8-.84 0-.84 1.56-1.24 1.198 0 1.998.4 3.157-.44 1.6-.839 1.96-5.036 1.96-6.715-.36-2.079-2.72-2.519-3.12-5.037zm-37.977-6.396c-.76 1.719-2.759 2.119-3.518 3.798-.8 1.279-.8 3.358-2.399 3.797-1.559 0-2.358-.84-2.758-2.118-.36-.84-1.56-3.358-2.359-1.24-.8.84 1.2 2.079 1.6 2.519.759 1.239.759 2.078 1.159 3.797.4 1.68.8 2.08 1.599 3.358 1.159 2.08.4 3.758 0 5.437 1.559-.84 1.959-2.918 1.959-4.597 0-1.68-1.2-2.958-1.2-4.637 0-1.28.4-1.68 1.2-2.519.8-.44 1.599-.44 1.958-1.279.4-.84.4-1.679.8-2.518zm8.395 5.516c-3.198 2.12 1.599 6.277-.4 9.195 1.2-3.318.8-5.397 0-8.755zm-35.499-36.298c-.4 1.28-1.2 1.28-1.999 2.559-.4.84-.4 2.079 0 3.358 0 2.958.4 5.876 2.799 6.716-1.6 0-2.799-4.597-2.399-6.316.4-1.68 1.2-2.919 1.2-5.037z" fill="#e4b8c0" fill-rule="evenodd"/><path d="M168.938 166.18c-1.96 1.279-.76 4.277 0 5.516-.36-1.679 0-3.798 1.559-4.237 0-.4 0-.4-.36-.84zm22.506 7.994c-.8 2.599-1.2 3.039-3.598 3.918 1.999-.44 3.598.4 3.998-3.038zm19.668 6.316c.8.88 0 2.639 1.6 2.639 1.198 0 2.797-1.759 2.398-2.638-.8.44-2.799 3.038-3.198.88zm-44.133 21.108c-1.16-2.559-3.118 3.758-.36.84.76.4 1.16 4.597 2.718 3.357.36 0-1.958-3.358-1.958-4.197zm19.668-61.403c0 .84-.8 2.079 0 2.479.8-.4 1.2-2.04.4-2.479zm8.715-4.197c-2.08.84.4 3.398-.84 5.077.84-1.24.4-4.238 2.439-4.638-.4 0-.8-.44-1.2-.88zm-53.648 29.382c.4.88.8 1.279 1.2 2.558.36.84 0 1.68.759 2.079 1.16-.84-.4-2.079 1.16-2.519-.76 0-1.56 0-1.92-.4z" fill="#f6e9eb" fill-rule="evenodd"/><path d="M108.134 41.295c.76 3.398.4 7.595.76 10.953 0 3.798 0 7.995-.36 11.793-.4 5.877-2.798 13.032-.8 18.949.4 2.078 1.96 4.197 2.36 6.716 0 2.958-1.2 5.037-1.2 7.995 0 2.518 0 5.916.8 8.435.4 1.679 1.599 2.078 2.358 3.757-3.918-3.757-1.559-10.513-1.16-15.15.4-2.08-.399-4.198 0-6.277 0-2.958-1.598-9.714-1.198-12.232 1.199-5.477.4-4.637 0-10.074 0-1.72.4-3.798.4-5.477 0-2.518-1.2-5.077-.8-7.595zm5.037 27.303c1.2 6.716.8 12.993.8 19.708 0 2.519.8 5.877 1.999 7.556 1.199 1.679 3.598 2.518 3.598 4.197-2.399-2.918-3.199-8.395-3.998-12.152-.4-3.798.8-6.716.4-10.514 0-4.597-1.6-8.395-.8-12.992.4-4.637-1.999-8.395-1.999-12.632z" fill="#c24f71" fill-rule="evenodd"/><path d="M113.251 98.94c.8 3.358 2.399 10.514.4 13.832-.8 1.279-1.999 1.279-2.398 2.958-.4 2.079.8 4.597 2.398 5.836 1.6-1.239-.8-4.157-.4-6.276.4-1.24 1.6-2.079 2-2.918.799-2.918 0-5.877 0-8.795z" fill="#c24f71" fill-rule="evenodd"/><path d="M113.651 98.14c2.798 2.08 5.157 8.795 4.757 12.153 0 .84-2.358 11.753.8 7.556 1.199-1.68-.4-5.437 0-7.556.8-1.679 1.959-2.918 1.959-4.597-.36-2.519-3.159-3.798-4.318-5.037-1.599-2.119-1.599-4.237-3.997-5.077z" fill="#e4b8c0" fill-rule="evenodd"/><path d="M118.048 104.337c0 1.239.4 2.478.76 3.718 1.879-1.24.4-2.879-.76-4.158z" fill="#f6e9eb" fill-rule="evenodd"/><path d="M180.41 175.054c2.719 2.558-1.199 5.517-2.398 7.595.8-.4 3.958-2.078 4.357-2.918.76-1.719-.799-2.958-.799-4.677zm11.434 13.472c.8.44 1.559.84 2.318 1.239.76.84-.4 1.679.76 2.079.36-1.64 0-2.879-.4-4.158-.36.44-.76.84-1.879.84zm11.033-4.677c.8 2.158-.4 4.317-1.2 5.996 0 0 0-.4.4-.4zm5.916 6.396c0 2.078 1.2 3.797.8 5.916 0 1.68-1.2 3.358-1.2 5.037.4-1.24.8-3.798.8-5.037-.4-.88-.8-1.719-.8-1.719-.4-.84 0-2.958.4-5.077zm-88.426-68.679c.4 1.28 1.2 2.959 1.2 4.238-.4 1.239-2.4 1.679-2.4 3.757.4-.839 0-2.078.4-3.357.4-1.24 1.6-1.68 1.2-2.919zm97.541 33.34c.4 2.079-3.278 3.718-.84 5.757.4-1.64.84-3.278 2.839-1.64 0-.4 0-.4.4-.799zm2.718 44.214c3.598-1.28 3.998-1.28 2.799 2.878.4-1.24-.4-2.479-1.2-2.879z" fill="#a42554" fill-rule="evenodd"/><path d="M137.717 108.174c0 2.519.4 5.037.4 7.556 0 2.518-1.6 4.597-1.6 6.676 6.396.84 2.799-8.355 4.398-11.313 1.998-4.158 3.997-.84 6.795-2.08-1.599-3.357-9.594 1.24-9.194-4.197.4-1.239 1.2-1.679 1.6-3.357.399-1.68-.8-2.919.399-4.598-2.798-1.279-1.999 3.358-2.399 5.037 0 1.24-1.199 2.079-1.199 3.358-.4 1.68.8 2.918.8 4.997z" fill="#e4b8c0" fill-rule="evenodd"/><path d="M138.196 108.934c1.16.84 1.16 2.518 1.16 3.758 0-1.24-.36-3.758 1.159-3.758-.36-.44-2.319-.88-2.319-.88z" fill="#f6e9eb" fill-rule="evenodd"/><path d="M150.789 109.094c-1.16 1.28-1.56 2.518-3.158 2.958-1.16.4-2.719-.44-3.518 0-1.6.84-.8 1.68-.8 2.918.4 1.28 0 4.198.4 5.877 4.317.4 0-4.597 1.559-6.716.8-.84 2.359 0 3.558-.84 1.559-.84 1.959-2.518 3.518-3.358zM109.334 4.118c-1.999 6.755 0 13.951.76 20.267.399 3.798-1.96 13.512 1.199 16.03-1.2-6.715.76-13.911 0-20.667-.8-5.077-1.96-9.714-2.359-14.751z" fill="#c24f71" fill-rule="evenodd"/><path d="M113.611 18.988c-.4 5.437-.4 10.914-.4 16.83 0 3.758-2.358 8.835-.76 12.593 0-5.437 1.96-11.353 2.36-16.83.36-5.037-1.2-8.395-1.6-13.472zm8.355 127.403c-.8 7.236 6.316 5.517 10.234 7.636-.36-6.796-11.833-2.959-11.433-9.355z" fill="#e4b8c0" fill-rule="evenodd"/><path d="M123.565 149.83c1.16 2.558 3.478 3.397 4.637.839v.88c-1.519-.44-3.478-1.72-3.478-2.16z" fill="#f6e9eb" fill-rule="evenodd"/><path d="M121.966.76c-.8 16.87-.8 56.845 0 83.829 0 2.078.4 5.037.4 7.155 0 .84.4 2.919 1.599 4.598 1.16 1.279 2.758 2.118 3.558 1.719 2.358-.44 3.917-2.959 4.317-3.798.4-2.119 2.758-4.238 3.558-5.477 1.2-1.679 3.158-2.119 4.757-2.958 2.359-1.24 5.916-1.679 8.675-.84 1.2.44 1.999 1.68 3.158 2.519 1.2.84 3.957 2.119 5.157 3.398 1.16 1.679.76 4.197 1.959 6.316.8 2.079 1.199 4.198 1.199 6.716.4 1.679-.4 3.358-.8 5.037-.4 1.719-.8 3.798-1.958 5.477-1.2 1.279-3.558 2.118-5.557 3.398-1.959 1.239-4.717 3.358-6.716 5.037-2.359 1.279-5.517 2.958-6.316 4.637-1.2 2.118-1.959 3.358-2.359 5.476 0 .84-.4 3.358.4 5.037.4 1.28 1.559 1.68 1.959 2.519.4 2.119 3.558 2.119 5.157 2.119 1.159 0 3.558-.84 5.916-2.12 1.959-1.678 2.359-1.678 4.317-2.078 2-.44 3.558-2.119 5.957-3.798 2.758-1.279 2.358-.44 6.716-2.958 4.317-2.079 4.317-2.918 7.875-2.918 3.158-.44 3.558-1.28 7.116-1.28 3.158.4 6.316-.439 8.315.4 2.358.88 5.916 2.12 5.916 2.12.8.439 2.359.439 3.558.839.8.44 1.559 1.279 2.358 1.679.8.84 2.359.84 3.159 1.679.4.44 1.599 2.118 2.358 2.958.8.84 2.399 1.28 3.558 2.518.8 1.28.8 2.959 1.999 4.238.8 1.239 2.358 1.679 3.158 3.358.8 1.279 1.16 3.358 1.959 5.037.8 1.279 1.599 1.719 2.398 3.398.76 2.078 1.16 5.037 1.959 7.555.8 1.679 1.56 2.958 1.959 5.077.8 1.679.8 3.358 1.2 5.037 0 1.28.799 2.518.799 3.798.4 1.679 0 4.197.4 5.876 0 1.28.759 2.119.759 3.398 0 1.679-.4 3.758-.4 5.876 0 1.28.8 2.12.8 3.798 0 4.198-.4 8.395-.4 12.632-.4 1.24.4 2.08 1.599 2.08 1.2 0 1.959-.4 1.959-1.68 2.758-31.14-4.318-57.245-18.15-73.235-1.998-2.12-5.916-5.077-6.715-5.917-17.39-10.953-36.738-5.876-47.012.84-9.874 5.916-17.39 10.953-19.348 4.637-.8-2.958 2.359-6.716 6.716-9.275 9.074-4.637 19.348-10.073 17.39-23.145-1.6-9.675-2.4-18.11-13.073-21.907-5.916-2.079-13.431-3.358-19.348 4.637-2.758 3.798-5.916 10.953-5.916 2.119-.4-13.472-.8-30.742-.8-46.732 0-16.43.4-31.58.8-40.455z" fill="#f0d9dc" fill-rule="evenodd"/><path d="M121.966.76c-.8 16.87-.8 56.845 0 83.829 0 2.078.4 5.037.4 7.155 0 .84.4 2.919 1.599 4.598 1.16 1.279 2.758 2.118 3.558 1.719 2.358-.44 3.917-2.959 4.317-3.798.4-2.119 2.758-4.238 3.558-5.477 1.2-1.679 3.158-2.119 4.757-2.958 2.359-1.24 5.916-1.679 8.675-.84 1.2.44 1.999 1.68 3.158 2.519 1.2.84 3.957 2.119 5.157 3.398 1.16 1.679.76 4.197 1.959 6.316.8 2.079 1.199 4.198 1.199 6.716.4 1.679-.4 3.358-.8 5.037-.4 1.719-.8 3.798-1.958 5.477-1.2 1.279-3.558 2.118-5.557 3.398-1.959 1.239-4.717 3.358-6.716 5.037-2.359 1.279-5.517 2.958-6.316 4.637-1.2 2.118-1.959 3.358-2.359 5.476 0 .84-.4 3.358.4 5.037.4 1.28 1.559 1.68 1.959 2.519.4 2.119 3.558 2.119 5.157 2.119 1.159 0 3.558-.84 5.916-2.12 1.959-1.678 2.359-1.678 4.317-2.078 2-.44 3.558-2.119 5.957-3.798 2.758-1.279 2.358-.44 6.716-2.958 4.317-2.079 4.317-2.918 7.875-2.918 3.158-.44 3.558-1.28 7.116-1.28 3.158.4 6.316-.439 8.315.4 2.358.88 5.916 2.12 5.916 2.12.8.439 2.359.439 3.558.839.8.44 1.559 1.279 2.358 1.679.8.84 2.359.84 3.159 1.679.4.44 1.599 2.118 2.358 2.958.8.84 2.399 1.28 3.558 2.518.8 1.28.8 2.959 1.999 4.238.8 1.239 2.358 1.679 3.158 3.358.8 1.279 1.16 3.358 1.959 5.037.8 1.279 1.599 1.719 2.398 3.398.76 2.078 1.16 5.037 1.959 7.555.8 1.679 1.56 2.958 1.959 5.077.8 1.679.8 3.358 1.2 5.037 0 1.28.799 2.518.799 3.798.4 1.679 0 4.197.4 5.876 0 1.28.759 2.119.759 3.398 0 1.679-.4 3.758-.4 5.876 0 1.28.8 2.12.8 3.798 0 4.198-.4 8.395-.4 12.632-.4 1.24.4 2.08 1.599 2.08 1.2 0 1.959-.4 1.959-1.68 2.758-31.14-4.318-57.245-18.15-73.235-1.998-2.12-5.916-5.077-6.715-5.917-17.39-10.953-36.738-5.876-47.012.84-9.874 5.916-17.39 10.953-19.348 4.637-.8-2.958 2.359-6.716 6.716-9.275 9.074-4.637 19.348-10.073 17.39-23.145-1.6-9.675-2.4-18.11-13.073-21.907-5.916-2.079-13.431-3.358-19.348 4.637-2.758 3.798-5.916 10.953-5.916 2.119-.4-13.472-.8-30.742-.8-46.732 0-16.43.4-31.58.8-40.455 0 0 0 0 0 0" fill="none" stroke="#000" stroke-width=".8" stroke-linecap="round" stroke-linejoin="round"/><path d="M121.966.76c-.8 16.87-.8 56.845 0 83.829 0 2.078.4 5.037.4 7.155 0 .84.4 2.919 1.599 4.598 1.16 1.279 2.758 2.118 3.558 1.719 2.358-.44 3.917-2.959 4.317-3.798.4-2.119 2.758-4.238 3.558-5.477 1.2-1.679 3.158-2.119 4.757-2.958 2.359-1.24 5.916-1.679 8.675-.84 1.2.44 1.999 1.68 3.158 2.519 1.2.84 3.957 2.119 5.157 3.398 1.16 1.679.76 4.197 1.959 6.316.8 2.079 1.199 4.198 1.199 6.716.4 1.679-.4 3.358-.8 5.037-.4 1.719-.8 3.798-1.958 5.477-1.2 1.279-3.558 2.118-5.557 3.398-1.959 1.239-4.717 3.358-6.716 5.037-2.359 1.279-5.517 2.958-6.316 4.637-1.2 2.118-1.959 3.358-2.359 5.476 0 .84-.4 3.358.4 5.037.4 1.28 1.559 1.68 1.959 2.519.4 2.119 3.558 2.119 5.157 2.119 1.159 0 3.558-.84 5.916-2.12 1.959-1.678 2.359-1.678 4.317-2.078 2-.44 3.558-2.119 5.957-3.798 2.758-1.279 2.358-.44 6.716-2.958 4.317-2.079 4.317-2.918 7.875-2.918 3.158-.44 3.558-1.28 7.116-1.28 3.158.4 6.316-.439 8.315.4 2.358.88 5.916 2.12 5.916 2.12.8.439 2.359.439 3.558.839.8.44 1.559 1.279 2.358 1.679.8.84 2.359.84 3.159 1.679.4.44 1.599 2.118 2.358 2.958.8.84 2.399 1.28 3.558 2.518.8 1.28.8 2.959 1.999 4.238.8 1.239 2.358 1.679 3.158 3.358.8 1.279 1.16 3.358 1.959 5.037.8 1.279 1.599 1.719 2.398 3.398.76 2.078 1.16 5.037 1.959 7.555.8 1.679 1.56 2.958 1.959 5.077.8 1.679.8 3.358 1.2 5.037 0 1.28.799 2.518.799 3.798.4 1.679 0 4.197.4 5.876 0 1.28.759 2.119.759 3.398 0 1.679-.4 3.758-.4 5.876 0 1.28.8 2.12.8 3.798 0 4.198-.4 8.395-.4 12.632-.4 1.24.4 2.08 1.599 2.08 1.2 0 1.959-.4 1.959-1.68 2.758-31.14-4.318-57.245-18.15-73.235-1.998-2.12-5.916-5.077-6.715-5.917-17.39-10.953-36.738-5.876-47.012.84-9.874 5.916-17.39 10.953-19.348 4.637-.8-2.958 2.359-6.716 6.716-9.275 9.074-4.637 19.348-10.073 17.39-23.145-1.6-9.675-2.4-18.11-13.073-21.907-5.916-2.079-13.431-3.358-19.348 4.637-2.758 3.798-5.916 10.953-5.916 2.119-.4-13.472-.8-30.742-.8-46.732 0-16.43.4-31.58.8-40.455 0 0 0 0 0 0" fill="none" stroke="#000" stroke-width=".8" stroke-linecap="round" stroke-linejoin="round"/><path d="M132.24 108.055c-1.16 1.718-2.758 2.118-3.158 4.237-.4 2.518 1.199 5.477 1.599 7.995.4 3.798.76 10.514-4.358 6.716-.8-.4-5.156-6.316-3.557-2.079.8 2.919 5.156 1.68 6.716 5.037.4 1.24-.8 8.395 1.958 7.995 2.399 0 1.6-6.756 1.6-7.595 0-2.079.4-3.758.799-5.876 0-.4 1.16-2.959 1.16-3.358-.36-1.28-2.36-2.519-2.76-3.798-1.558-3.798 0-5.877-.399-9.274z" fill="#c24f71" fill-rule="evenodd"/><path d="M130.201 129.681c1.2 1.28 1.2 2.959.4 4.198 2.718-1.68.8-4.198.8-6.316 0-.84 1.159-2.08 1.558-3.358 0-.84-.4-2.079-.8-2.958 0 1.718 0 3.397-.759 5.076z" fill="#a42554" fill-rule="evenodd"/><path d="M129.921 106.855c-1.959.4-4.357 2.519-4.357 5.037 0 1.24 1.2 2.079 1.2 3.358.399 2.079 0 3.758.399 5.437 1.16-3.758-1.6-10.074 1.959-11.753 3.957-2.079 5.117.84 5.117 3.798 1.599-.44 1.958-4.198.8-5.477-1.2-1.679-3.559-.4-5.118-1.24z" fill="#e4b8c0" fill-rule="evenodd"/><path d="M131.84 106.376c-1.559 0-3.158.879-3.958 2.638 3.159-1.32 3.558-.88 6.317.4 0-1.28-.76-2.159-1.96-2.599z" fill="#f6e9eb" fill-rule="evenodd"/><path d="M105.776 138.876c-10.274-13.792-49.73-11.273-87.627-8.355l-17.39.84v4.157l17.79-1.24c35.098-2.518 74.994-4.996 84.069 7.116.76.8 1.959.8 2.758.4.8-.84 1.16-2.079.4-2.918zm159.863-2.958c-14.191-7.596-59.604-28.663-96.302-19.389-13.431 3.358-21.307 10.114-26.823 14.751-2.799 2.08-.8 5.877 2.358 2.919 5.517-4.598 12.633-10.914 25.265-13.872 36.698-9.274 83.67 13.872 95.502 20.188z" fill="#eda091" fill-rule="evenodd"/><path d="m.76 135.518 17.789-1.24c35.098-2.518 74.994-4.996 84.069 7.116.76.8 1.959.8 2.758.4.8-.84 1.16-2.079.4-2.918-10.274-13.792-49.73-11.273-87.627-8.355l-17.39.84m264.88 4.557c-14.191-7.596-59.604-28.663-96.302-19.389-13.431 3.358-21.307 10.114-26.823 14.751-2.799 2.08-.8 5.877 2.358 2.919 5.517-4.598 12.633-10.914 25.265-13.872 36.698-9.274 83.67 13.872 95.502 20.188" fill="none" stroke="#000" stroke-width=".8" stroke-linecap="round" stroke-linejoin="round"/></svg>