<svg xmlns="http://www.w3.org/2000/svg" version="1.0" viewBox="0 0 126.236 459.061"><defs><clipPath clipPathUnits="userSpaceOnUse" id="a"><path d="M38.537 0H164.62v459.402H38.537z"/></clipPath></defs><path clip-path="url(#a)" d="M99.36 455.764s-10.574-45.313-24.385-67.56c-73.976-120.125-9.755-261.18-.82-299.257C83.11 50.61 87.707 17.89 84.988 1.8h8.136s2.718 45.332 5.416 53.368c2.439 8.055 9.754 51.488 9.754 64.9 0 0 8.135-52.568 8.135-89.845 0 0 5.677-2.139 8.116 0 0 0-5.957 27.903 6.236 58.724 51.469 132.2 30.881 197.62 12.472 268.158-11.113 43.433-17.61 49.07-19.508 97.06 0 0-15.71 6.157-24.385 1.6z" fill="#ed9978" fill-rule="evenodd"/><path d="M118.028 237.336s-.819 82.31-7.095 171.017c0 0 21.507-101.04 7.095-171.017zm8.096-147.75s15.25 150.668 6.536 258.963c0 0 13.052-135.638-6.536-258.963z" fill="#dd7f5f" fill-rule="evenodd"/><path d="M120.747 87.427s-3.798 74.295 1.359 102.438c4.877 28.443 16.81 90.385-1.619 203.537 0 0 10.853-105.377.82-174.035-10.054-68.918-5.697-114.77-.56-131.94z" fill="#dd7f5f" fill-rule="evenodd"/><path clip-path="url(#a)" d="M83.39 73.755S35.298 281.03 92.623 423.383c0 0-41.835-115.01-9.235-349.628z" fill="#dd7f5f" fill-rule="evenodd"/><path d="M86.568 101.898s-11.134 123.605-7.056 155.506c6.516 48.51 11.933 136.457 20.068 160.303 0 0-12.193-133.5-14.092-158.424-2.178-26.824-1.1-128.422 1.08-157.385zm9.014-21.507s19.188 149.71 17.03 199.88c0 0 6.476-109.994-17.03-199.88z" fill="#dd7f5f" fill-rule="evenodd"/><path d="M106.116 423.224s8.654-210.253-13.812-295.821c0 0 18.15 199.279 13.812 295.82z" fill="#dd7f5f" fill-rule="evenodd"/><path d="M118.368 236.776s4.597 102.458-7.595 172.456c0 0 21.667-102.438 7.595-172.456z" fill="#ab4e36" fill-rule="evenodd"/><path clip-path="url(#a)" d="M83.39 72.556S35.298 280.97 92.623 423.383c0 0-47.271-112.112-9.235-350.827z" fill="#ab4e36" fill-rule="evenodd"/><path d="M86.328 101.019s-13.052 123.965-8.695 155.885c4.357 31.921 7.875 121.267 21.467 160.163 0 0-16.57-132.52-18.469-157.484-3.818-45.873 4.877-148.63 5.697-158.564zm8.455-21.427S114.77 230.1 112.612 280.27c0 0-.54-119.108-17.83-200.678zm10.833 344.271s.82-220.906-13.632-298.14c0 0 17.99 201.898 13.632 298.14zm20.827-335.636s24.146 154.526 5.717 262.88c0 0 13.552-139.475-5.717-262.88z" fill="#ab4e36" fill-rule="evenodd"/><path d="M120.747 86.867s-1.64 72.157 3.538 100.58c4.897 28.422 14.95 91.444-3.538 204.595 0 0 14.97-106.715 4.897-175.633-10.074-68.659-10.074-112.632-4.897-129.542z" fill="#ab4e36" fill-rule="evenodd"/><path d="M79.592 85.748s-28.743 102.718-8.395 264.16c0 0-26.064-131.4 8.395-264.16z" fill="#fff" fill-rule="evenodd"/><path d="M74.935 239.495s7.875 116.929 14.65 141.594c0 0-19.268-102.158-14.65-141.594zm19.528-71.157s12.952 167.578 10.254 188.206c0 0-12.413-174.254-10.254-188.206zm.799-71.637s15.77 87.148 16.31 188.206c0 0-4.617-119.287-16.31-188.206zm26.324 13.992s.26 62.802 3.758 79.432c3.758 16.65 5.637 41.874 5.896 52.328 0 0-1.878-40.236-4.297-56.346-2.678-15.83-6.176-72.456-5.357-75.414zm.6 157.425s.54 71.896-4.058 99.779c0 0 8.635-73.755 4.058-99.78zM128.602 98.7s15.95 118.249 11.093 175.894c0 0 6.736-80.692-11.093-175.894z" fill="#fff" fill-rule="evenodd"/><path d="M88.267 157.105c-2.439 12.332-.28 26.564-1.1 39.156-.54 10.194-1.899 20.388-1.08 30.582 2.18 24.405 3.519 48.27 7.596 72.416 1.88 10.993 2.419 22.786 2.699 34.059.28 4.297-2.439 29.222 4.597 25.485 5.956-3.219.82-22.007-.26-26.285-1.899-8.854-2.978-17.969-4.058-26.823-1.898-14.751 0-29.243-.56-43.994-1.079-20.107-.26-40.755-3.237-60.883-1.36-7.775-1.36-15.55-1.36-23.326 0-6.975 2.18-14.49.54-20.927-.8 0-.54-.26-1.08-.54zm25.524 128.742c-6.536 5.097-3.818 19.588-3.818 27.903.28 10.454 1.64 20.907 2.459 31.36 2.718-5.896.26-13.93.54-20.107.28-6.436-.28-13.132.28-19.568.539-4.837 4.876-16.37 1.079-20.128zM88.167 74.075c-3.538 9.914 2.158 24.125 2.158 34.58 0 4.017.28 8.034 0 11.792 0 4.018-2.158 9.634-1.08 13.112.82-1.859 0-8.295 1.36-9.914 1.899-2.139 4.337-1.599 4.597 1.62.54-16.351-3.518-33.76-7.575-49.031zm28.243 14.951c-2.679 5.357-2.42 11.513-2.959 17.67-1.06 8.314-2.678 15.27-2.138 23.825 2.678-5.077 1.619-13.372 2.418-19.528 1.06-6.956 3.998-14.991 3.198-21.967zm14.35 235.857c0 11.293-1.898 22.566-2.718 33.84 0 3.497-.28 6.995-.82 10.213-.279 2.679-1.098 5.637-.819 8.315 2.739-4.017 3.818-9.654 5.457-14.231 1.36-3.758 3.278-7.775 3.538-11.813-1.36 1.62-2.439 3.498-3.818 4.837-1.08-1.08-.26-3.498-.54-4.837 0-2.678-.28-5.097-.28-7.515-.26-4.837 0-9.395 0-14.232zm-11.192 43.334c-.26 4.557-2.419 9.114-2.679 13.931-.54 5.637-.82 11.513-1.619 17.15-.54 3.738-1.359 7.495-2.159 11.233-.28 2.159-.82 5.637-.28 7.496 2.699-4.278 3.239-10.434 3.778-15.53.54-4.538 1.9-8.836 2.439-13.653.52-5.616-.54-11.513.52-17.13zm3.677-260.482c1.88 5.916.54 13.951.82 20.387.26 6.177.52 12.613.8 18.769.26 5.896.26 11.813 1.059 17.71.8 5.096.8 12.332 3.218 16.61 3.458-4.818.26-16.071 0-21.988-.28-6.955-.28-13.931-1.08-20.907-1.599-10.194-1.059-20.387-3.198-30.301z" fill="#f1a690" fill-rule="evenodd"/><path clip-path="url(#a)" d="M85.228 2.119c0 4.557 1.08 8.834.82 13.392-.28 5.896-.54 11.772-1.08 17.669-.54 5.896-1.898 11.533-2.438 17.69-.54 5.356-1.899 10.973-1.619 16.33 2.438.539 2.438-2.939 4.317-3.199.54 1.6.54 8.555 2.699 7.756 1.619-.54 2.158-5.897 2.438-7.236.26-3.198.8-8.835 2.419-11.513 1.08 1.08.82 15.27 4.857 11.513 1.619-3.478.28-9.894-.26-13.652-1.08-6.156-1.36-12.332-2.159-18.748-.54-5.637-1.08-11.533-1.359-17.41 0-4.297.28-8.575-1.34-12.592-2.158-2.159-6.215-1.62-7.295 0z" fill="#f0e6e4" fill-rule="evenodd"/><path d="M116.41 30.362c-.28 6.696.26 13.391-.54 19.808-.28 2.938-.28 6.156-.28 9.094 0 2.678-.82 5.637-.54 8.315 2.978-1.34 1.9-9.114 3.518-11.513.8.8-.28 2.399 0 3.478 0 .54 0 3.478.26 3.738 1.899 1.339 1.899-6.157 1.899-7.216 1.08 1.34.82 4.018 1.08 5.617 0 2.398.279 4.557.539 6.696 0 1.599.82 8.015 2.698 8.015 1.08-2.139-.26-6.676-.54-9.095 0-2.398-1.079-6.156-1.339-12.572-.54-7.236.26-14.731.8-22.227v-2.678c-1.34-1.06-4.597-1.879-7.556.54z" fill="#f0e6e4" fill-rule="evenodd"/><path clip-path="url(#a)" d="M94.783 430.659c2.178 3.738 1.079 8.555 2.438 12.832.82 2.938.82 9.355 2.159 12.293 1.08 2.938 12.152 4.537 15.93-.8.54-2.138 0-4.817 0-7.215 0-2.679.8-4.817 1.08-7.476.54-4.557 1.339-10.174 1.079-14.71-3.778 3.737-4.857 10.952-5.677 15.77-.26 1.079-.54 6.955-2.418 5.076-.54-.54-.28-3.997-.28-4.817-.26-1.319 0-3.198-1.08-4.277-.54.82-.799 4.018-1.339 4.277-1.359.82-1.619-3.198-1.898-4.277-.54-2.399-1.08-4.797-1.88-6.936-.28-1.08-1.359-5.876-2.438-5.876-3.498-.82 2.159 20.567.28 22.446-1.62-1.599-2.439-4.537-3.238-6.956-.54-1.339-2.179-8.814-2.718-9.354z" fill="#f0e6e4" fill-rule="evenodd"/><path d="M87.667 9.894s.28-.28-.26-.28c.54 5.897 1.08 11.533.82 17.69-.28 4.557-1.64 8.854-2.18 13.411-.279 3.498-.819 6.436-1.358 9.654-.28 1.62-1.1 4.818.54 6.177 2.178 1.859 2.438-.82 2.998-2.699.54-2.398.54-3.478 2.158-4.817.28-.26 1.1 0 1.36-.54 1.359-1.079 1.099-4.017 1.099-5.636-1.1-6.416-1.9-13.132-1.36-19.568.26-3.478 1.08-7.775 0-11.253-.28-1.08-2.178-6.716-3.537-3.758zM120.167 33c-3.238-2.419-1.879 11.193-2.159 12.792 0 2.399-.54 5.337 0 7.736.54 3.198 1.62.8 2.439-1.32.54.52 1.08.8 1.34 1.6 1.358-4.278-.26-9.875.279-14.152 0-1.6 1.34-7.995-1.36-7.456z" fill="#f7f4f3" fill-rule="evenodd"/><path clip-path="url(#a)" d="M58.664 166.02s-20.907 60.862 9.495 198.36c0 0-35.02-103.458-9.495-198.36zm84.05-17.51s27.103 107.535-7.316 216.909c0 0 39.016-89.546 7.316-216.909z" fill="#ab4e36" fill-rule="evenodd"/><path clip-path="url(#a)" d="M51.669 187.207S39.716 262 59.284 341.593c0 0-23.666-86.568-7.615-154.386zm98.6-11.354s11.893 44.533 3.518 117.769c0 0 12.952-62.762-3.518-117.769z" fill="#fff" fill-rule="evenodd"/><path d="M124.225 431.439c-1.36 6.436-.54 13.411-.54 20.107 0 4.018-1.619 4.558-5.437 5.357-2.978.8-10.034 2.139-13.312 1.34.28-1.88 6.257-3.738 7.076-5.357 1.08-1.6 1.62-4.278 2.159-6.437.56-3.477 0-10.173 2.458-12.852 4.618 2.679-.54 11.793 2.719 14.471 2.438-1.619 1.899-10.193 2.158-13.132 0-1.878.28-8.574 2.719-9.394.54 1.879.54 4.297 0 5.897z" fill="#f0e6e4" fill-rule="evenodd"/><path clip-path="url(#a)" d="M124.624 30.302s-5.976 27.903 6.217 58.724c51.449 132.18 30.881 197.62 12.452 268.118-11.093 43.453-17.59 49.07-19.488 97.06" fill="none" stroke="#494e4e" stroke-width="1.039" stroke-linecap="round" stroke-linejoin="round"/><path d="M93.144 1.839s2.718 45.332 5.436 53.368c2.439 8.035 9.774 51.488 9.774 64.88 0 0 8.135-52.548 8.135-89.825" fill="none" stroke="#494e4e" stroke-width="1.039" stroke-linecap="round" stroke-linejoin="round"/><path clip-path="url(#a)" d="M99.3 455.884s-10.554-45.313-24.345-67.58c-73.916-120.146-9.755-261.22-.82-299.297C83.07 50.65 87.667 17.95 84.97 1.84" fill="none" stroke="#494e4e" stroke-width="1.039" stroke-linecap="round" stroke-linejoin="round"/><path d="M108.334 118.248c0 7.796 1.1 15.031 2.459 22.547 2.698 13.671 2.698 28.442 3.238 42.114.56 14.491.82 29.782 3.258 43.734a638.278 638.278 0 0 1 4.877 32.18v1.34" fill="none" stroke="#494e4e" stroke-width="1.039" stroke-linecap="round" stroke-linejoin="round"/></svg>