<svg xmlns="http://www.w3.org/2000/svg" version="1.0" viewBox="0 0 310.337 560.617"><defs><clipPath clipPathUnits="userSpaceOnUse" id="a"><path d="M1.2 0h309.97v561.02H1.2z"/></clipPath></defs><path clip-path="url(#a)" d="M156.385 7.475s24.026 3.039 25.625 32.42c0 0 .92-3.197 3.038-2.158 2.159 1.24 1.799 4.278.88 5.877-1.04 1.439-1.96 7.315-2.839 7.995 0 0 4.118 8.195 2.319 18.349 0 0 1.958-.36 2.838 2.478.92 2.878 7.116 6.956 11.593 8.195 4.437 1.24 57.325 4.637 68.159 35.059 2.878 7.835 4.997 10.514 9.114 14.95 4.078 4.438 9.954 19.23 12.273 42.535.88 8.715-.2 10.514 1.958 13.512 2.12 3.038 4.638 5.517 3.918 9.794-.72 4.277.72 6.756 2.119 9.634 1.439 2.838 7.115 15.63 6.436 22.227-.72 6.596 0 8.914 1.399 10.153 1.44 1.24 3.398 7.476 1.6 9.435-1.76 1.959-1.6 1.759-.88 3.717.72 1.96 1.079 2.519.88 4.638-.16 2.118-.36 3.917.559 7.635.88 3.758 4.237 14.271 1.759 19.588-2.479 5.357-3.198 7.116-4.078 9.634-.92 2.479-2.678 7.436-4.117 8.875-1.4 1.44-9.235 8.915-11.913 7.835-1.8-.52-1.44-3.398-1.44-3.398s-4.796-2.118-2.997-6.916c0 0-2.879 2.479-4.997.72-2.16-1.599-1.08-7.475-1.6-9.274-.36-1.96-.2-7.276-.879-10.674-.72-3.398-3.038-9.954-2.319-13.152.88-3.398 2.32-6.796.36-9.274-1.799-2.319-2.878-3.918-2.878-5.317 0-1.44-8.515-8.755-10.314-15.31 0 0 1.08 15.63.72 20.107-.56 4.437-.36 11.913 1.599 16.91 1.959 4.957 16.19 61.922-3.758 99.98-2.998 5.876-2.119 8.394-1.759 11.752.52 3.198 1.08 12.273-2.318 16.03-3.398 3.918-5.717 7.476-4.278 14.072 1.44 6.556 12.273 45.532 0 79.871-2.838 8.036.72 8.036-.88 11.394-1.598 3.397-1.598 3.557-1.239 4.477.36.88-.2 2.998-.72 3.917-.719.68-.199 1.6.88 2.639 1.24 1.08 4.997 5.197 6.037 7.315 1.079 2.319 6.596 6.237 8.195 7.476 1.439 1.439 2.518 2.119 3.757 3.038 1.4.68 4.997 1.4 6.037 1.759 1.24.52 2.678 1.08 3.398 2.478.52 1.28 1.08 1.44.88 3.238 0 0 2.478 1.4 1.958 3.718-.72 2.119-1.599 1.959-1.599 1.959s.52 3.198-1.24 4.078c-1.598 1.079-1.958.72-1.958.72s-.72 1.958-2.838 2.318c-2.159.36-3.039.2-3.039.2s-2.478 3.877-6.955 2.998c-4.278-1.04-5.877-3.358-6.756-4.637-.88-1.24-1.6-1.96-2.119-2.12-.36 0-2.518-.719-3.558-2.478-1.08-1.958-2.878-4.117-4.277-4.637-1.44-.52-7.476-2.678-12.992-3.038-5.357-.52-19.229-3.358-18.709-9.594.72-6.236 2.838-9.794.88-11.393-2.12-1.6-6.037-6.756-6.037-11.553.16-4.837 1.6-7.316-4.277-12.832-5.877-5.517-29.542-26.504-24.945-63.362 1.799-14.391.72-21.347 1.799-23.666 1.239-2.318-2.838-4.797-1.08-5.876 1.6-1.24 1.6-2.838-1.039-3.358-2.518-.56-7.315-5.157-9.274-12.113-1.8-6.956-10.154-33.46-10.874-38.456-.72-4.957-2.838-6.557-2.998-10.474-.36-3.758-.56-18.869-.56-18.869h.2s-.2 15.111-.36 18.869c-.36 3.918-2.518 5.517-3.198 10.474-.72 4.996-8.914 31.5-10.873 38.456-1.959 6.956-6.596 11.553-9.274 12.113-2.639.52-2.639 2.119-.88 3.358 1.6 1.08-2.478 3.558-1.239 5.876 1.24 2.319.16 9.275 1.959 23.666 4.437 36.858-19.229 57.845-25.105 63.362-5.677 5.516-4.437 7.995-4.277 12.832.2 4.797-3.718 9.954-5.877 11.553-2.119 1.599 0 5.157.72 11.393.52 6.236-13.352 9.074-18.709 9.594-5.517.36-11.553 2.519-12.992 3.038-1.4.52-3.198 2.679-4.277 4.637-1.04 1.76-2.999 2.479-3.558 2.479-.52.16-1.24.88-2.119 2.119-.72 1.279-2.319 3.597-6.756 4.637-4.477.88-6.956-2.998-6.956-2.998s-.88.16-3.038-.2c-2.119-.36-2.678-2.319-2.678-2.319s-.52.36-2.119-.72c-1.759-.879-1.24-4.077-1.24-4.077s-.879.16-1.438-1.959c-.72-2.318 1.799-3.718 1.799-3.718-.2-1.798.36-1.958.879-3.238.72-1.399 2.319-1.958 3.398-2.478 1.04-.36 4.797-1.08 6.036-1.759 1.24-.92 2.319-1.599 3.918-3.038 1.44-1.24 6.956-5.157 7.995-7.476 1.08-2.118 4.997-6.236 6.076-7.315 1.08-1.04 1.6-1.959 1.08-2.639-.56-.919-1.28-3.038-.92-3.917.36-.92.36-1.08-1.239-4.478-1.599-3.357 1.959-3.357-.88-11.393-12.272-34.339-1.439-73.315 0-79.871 1.44-6.596-.879-10.154-4.277-14.072-3.198-3.757-2.838-12.832-2.318-16.03.52-3.358 1.439-5.876-1.6-11.753-19.947-38.057-5.676-95.022-3.917-99.98 1.959-4.996 2.119-12.472 1.799-16.909-.56-4.477.68-20.108.68-20.108-1.96 6.556-10.474 13.872-10.474 15.31 0 1.4-.92 3-2.878 5.318-1.96 2.478-.52 5.876.36 9.274.719 3.198-1.6 9.754-2.32 13.152-.519 3.398-.519 8.715-.879 10.674-.36 1.799.56 7.675-1.599 9.274-2.119 1.759-4.997-.72-4.997-.72 1.8 4.798-2.838 6.916-2.838 6.916s.2 2.879-1.6 3.398c-2.677 1.08-10.513-6.396-11.912-7.835-1.439-1.44-3.198-6.396-4.117-8.875-.88-2.518-1.6-4.277-4.078-9.634-2.518-5.317.88-15.83 1.759-19.588.92-3.718.72-5.517.56-7.635-.2-2.119.16-2.679.88-4.638.719-1.958.879-1.758-.88-3.717-1.8-1.96.16-8.195 1.599-9.435 1.399-1.239 2.118-3.557 1.399-10.153-.68-6.596 4.997-19.389 6.436-22.227 1.4-2.878 2.838-5.357 2.119-9.634-.72-4.277 1.799-6.756 3.917-9.794 2.159-2.998 1.08-4.797 1.96-13.512 2.318-23.306 8.194-38.097 12.272-42.534 4.117-4.437 6.436-7.116 9.114-14.951 10.834-30.422 63.722-33.82 68.159-35.059 4.477-1.24 10.673-5.317 11.593-8.195.88-2.838 2.838-2.478 2.838-2.478-1.799-10.154 2.319-18.35 2.319-18.35-.88-.679-1.8-6.555-2.679-7.994-1.079-1.6-1.439-4.638.72-5.877 2.119-1.04 3.038 2.159 3.038 2.159 1.759-29.382 25.625-32.42 25.625-32.42h.52z" fill="#fef3ed" fill-rule="evenodd"/><path d="M148.81 30.921s-4.857-2.818-7.736.88c0 0 2.879 2.618 6.656.7 0 0 .54-.52 1.26-.52s.72-.36.36-.72zm14.97 0s4.958-2.818 7.596.88c0 0-2.818 2.618-6.536.7 0 0-.54-.52-1.06-.52-.719 0-.719-.36-.359-.72z" fill="#fff" fill-rule="evenodd"/><path d="M22.786 278.591c-.36.54-.92.9-1.1 1.62-.359.899 0 1.618-.179 2.498-.36 1.799-1.08 2.698-1.999 4.117-.92 1.44-.54 2.159-.36 3.758.18.72 0 1.439.18 2.159 0 .52.36.88.54 1.419.56 1.259.18 2.158 1.28 3.038.719.54 1.458 1.26 1.998 1.979.92 1.419 1.46 3.038 1.819 4.657.18 1.419-.18 2.678 0 4.097" fill="none" stroke="#343434" stroke-width=".64" stroke-linecap="round" stroke-linejoin="round"/><path d="M27.783 300.098c-.34-.7-1.579-1.599-2.298-2.139-.7-.36-1.58-.36-2.12-1.079-1.238-1.26-1.758-3.778-3.897-4.137m3.278-.48c-.86-1.4-1.879-2.259-3.438-2.798m3.298-11.034c1.06 2.699 0 5.737-.18 8.415 0 2.159 0 4.477.88 6.436.54 1.44 1.24 2.879 2.298 4.118.7.72 1.94 2.518 2.979 2.858" fill="none" stroke="#343434" stroke-width=".64" stroke-linecap="round" stroke-linejoin="round"/><path d="M19.948 277.672c2.279-.36 5.257 2.318 6.476 4.277m7.516 9.854c-1.2-.18-2.24 0-3.279.88-1.039.9-1.039 2.658-.86 4.057.86-1.22 3.279-1.399 4.298-.34M16.75 306.514c1.24-1.219 2.838-1.219 4.237-.52.54.18 1.6.7 1.76 1.22 0 .52-.88 1.559-1.04 2.079m31.741 68.278c2.138 5.477 9.274 7.955 10.153 14.311m10.474 6.477c5.517 3.158 9.774 5.796 16.53 6.156 6.216.16 12.792-1.42 18.649-3.158m12.632-2.279c2.319.18 5.357 1.4 6.956 2.958m-8.315 6.317c2.518.66 5.017.22 7.515.879m-35.818 88.746c2.099.92 4.377 1.82 6.636 1.999m-31.74 17.389c1.598-.36 3.377-1.079 5.156-.899 1.6.18 3.018 1.24 4.617 1.42 1.94.179 4.418-1.06 5.657.879m-39.696 38.376c-1.24-1.919-1.24-4.237-.52-6.396.88 0 1.76-.52 2.639-.88.56-.359 1.959-1.079 2.318-1.598.36-.36.16-.72.52-1.24.36-.36.72-.52.88-.879.72-.72 1.399-1.599 1.239-2.518" fill="none" stroke="#343434" stroke-width=".64" stroke-linecap="round" stroke-linejoin="round"/><path d="M48.09 547.148c-.639-.52-.199-1.799-.199-2.558m-4.277 5.996c1.079-.36 2.158.16 3.038.88.72.72.88 1.599 1.239 2.478.56-.88 1.959-1.399 2.319-2.318.52-1.24-1.24-1.76-2.12-2.319m-11.112 5.117c-.72-2.119.36-4.237 2.158-5.317 1.08-.52 1.8-.72 2.519-1.599.72-.72.72-1.599 1.08-2.518m-9.115 4.637c0-.88 1.079-1.6 1.639-2.319.36-.56.88-1.439 1.599-1.799.52-.56 1.439-.36 1.958-.72.92-.359 1.28-1.798 2.32-2.358m-7.516 1.159c.2.52 1.239-.36 1.599-.719.52-.36 1.239-.72 1.918-1.08m-3.997 3.559c.56.16.92.879 1.12 1.239.879-.72.519-2.159-.72-1.24m1.599 3.159c1.079.2 1.239 1.039 1.239 2.078.36-.68 1.4-1.559.88-2.238-.36-.72-1.76-.52-1.92.16" fill="none" stroke="#343434" stroke-width=".64" stroke-linecap="round" stroke-linejoin="round"/><path d="M38.457 551.546c1.04.36 1.759.36 2.278 1.599.36-.68 1.04-1.4.88-2.119-.16-.72-1.24-.92-1.76-.72-.879 0-1.039.36-1.598 1.08m11.673-313.09s0-25.265 3.757-34.34c3.558-9.254 13.172-19.588 12.293-22.786-1.08-3.218-3.738-5.516.72-15.13 4.437-9.615 6.576-9.435 4.977-12.813-1.6-3.398-5.157-15.31-.88-24.225" fill="none" stroke="#343434" stroke-width=".64" stroke-linecap="round" stroke-linejoin="round"/><path d="M69.598 145.852s-1.06.34-2.659-1.06c-1.419-1.239-8.494.34-13.651-3.558m18.149 10.954s1.559 3.178 3.278 7.195m.32 7.596s-4.638 10.893-.7 14.65c3.918 3.579 11.213 11.254 13.532 12.853 2.318 1.62 6.936 4.118 14.071 5.177 7.116 1.08 49.33 12.492 50.57-8.915" fill="none" stroke="#343434" stroke-width=".64" stroke-linecap="round" stroke-linejoin="round"/><path d="M106.416 188.006c.7 0 1.239 0 1.778.18 4.977.54 8.895 2.878 8.555 5.037-.36 2.159-4.637 3.418-9.634 2.698-4.977-.54-8.735-2.878-8.555-5.037.18-1.439 2.139-2.518 4.997-2.878z" fill="#fce2d7" fill-rule="evenodd"/><path d="M99.58 189.525c.2-.36.56-.54 1.119-.72m4.957-.799c.72 0 1.619 0 2.498.18 5.017.54 8.935 2.878 8.595 5.037-.36 2.159-4.657 3.418-9.654 2.698-4.117-.54-7.335-2.158-8.235-3.777m2.718-3.658h.2c.54-.24 1.08-.24 1.8-.48m-42.455-37.657c-3.398 1.06-6.796 3.158-10.554 3.838m6.556 42.154c-3.018 1.819-8.155.66-11.193-.18m-21.027-7.675c2.658.53 4.607 2.268 6.556 3.837m-9.994 9.994c1.08 6.337 8.095 3.818 11.673 6.876M8.915 250.608c4.277.72 7.115-.54 11.193-2.159m109.134-196.84s1.439-4.278 1.279-6.596c-.32-2.139-.32-5.717-.32-5.717" fill="none" stroke="#343434" stroke-width=".64" stroke-linecap="round" stroke-linejoin="round"/><path d="M130.201 42.414s-3.358-4.797-2.998-.34m2.998 2.019s-2.159 1.6-.36 3.358" fill="none" stroke="#343434" stroke-width=".32" stroke-linecap="round" stroke-linejoin="round"/><path d="M149.55 25.205c-.18-2.299-10.394-4.617-14.152 4.797 0 0 .18 1.06 1.619 0 1.44-1.24 5.896-4.617 9.114-4.078 3.238.54 3.578.54 3.418-.72z" fill="#792017" fill-rule="evenodd"/><path d="M141.234 31.62s-1.838 1.62-2.398 2.16" fill="none" stroke="#eaac9c" stroke-width=".32" stroke-miterlimit="8"/><path d="M143.713 31.54c0-.959.8-1.758 1.759-1.758.98 0 1.759.8 1.759 1.759 0 .98-.78 1.759-1.76 1.759-.959 0-1.758-.78-1.758-1.76z" fill="#792017" fill-rule="evenodd"/><path d="M144.832 31.5c0-.319.28-.599.6-.599.34 0 .6.28.6.6 0 .34-.26.6-.6.6-.32 0-.6-.26-.6-.6z" fill-rule="evenodd"/><path d="M151.068 26.584s1.42 6.096 0 9.834c0 0 2.479-5.177 0-9.834zm-.679 11.193s-2.199 2.379-1.28 3.638c.9 1.28 1.82 2.179 3.079 2.358 0 0-2.719-1.619-2.539-3.078 0-1.279 0-2.178.74-2.918z" fill="#eaac9c" fill-rule="evenodd"/><path d="M154.506 43.733s0-1.059-1.039-1.219c-1.04-.36-1.739-.18-1.919-1.06 0 0 0 1.06.7 1.22.52 0 .18 1.74 2.258 1.06z" fill="#bb7a6a" fill-rule="evenodd"/><path d="M151.548 41.595c-1.04-.9-.68-3.058-.34-4.138-.18.54-.34 1.26-.52 1.8-.18 1.079.34 1.978 1.02 2.678zm-2.038-2.699c-.56 1.08-1.5 2.16-2.24 3.398-.559 1.42-.759 3.218-.559 4.638.36 3.737 2.599 6.775 3.158 10.513-.36-2.139-1.12-4.277-1.859-6.236-.38-1.24-.74-2.499-.94-3.918 0-1.439.2-2.858.56-4.097.2-.54 1.32-2.679 1.88-1.62-.38-.519-.38-1.059-.38-1.598zm.639 19.029c.56 1.439.2 3.238-.36 4.657-.56 1.26-.92 2.519-1.12 3.938 0 1.259.38 2.338.56 3.398-.36-.88-.18-2.319 0-3.398 0-1.6.56-2.859 1.12-4.478.18-.7.54-1.419.54-2.138.18-.9-.36-1.44-.92-1.98z" fill="#eaac9c" fill-rule="evenodd"/><path d="M69.438 249.169c4.817 5.357 3.038 21.207 23.486 34.579 14.57 9.434 41.235 14.611 41.235 14.611s17.949 6.936 44.093 0c0 0 26.664-5.177 41.055-14.611 20.448-13.372 18.669-29.222 23.466-34.579" fill="none" stroke="#343434" stroke-width=".64" stroke-linecap="round" stroke-linejoin="round" stroke-miterlimit="10"/><path d="M127.723 297.04s-9.615-.7-13.532-1.04c-3.918-.54-15.51 0-19.968 5.937m35.978 43.173s9.934 5.677 11.353 8.156" fill="none" stroke="#343434" stroke-width=".64" stroke-linecap="round" stroke-linejoin="round" stroke-miterlimit="10"/><path clip-path="url(#a)" d="M156.385 7.475s24.026 3.039 25.625 32.42c0 0 .92-3.197 3.038-2.158 2.159 1.24 1.799 4.278.88 5.877-1.04 1.439-1.96 7.315-2.839 7.995 0 0 4.118 8.195 2.319 18.349 0 0 1.958-.36 2.838 2.478.92 2.878 7.116 6.956 11.593 8.195 4.437 1.24 57.325 4.637 68.159 35.059 2.878 7.835 4.997 10.514 9.114 14.95 4.078 4.438 9.954 19.23 12.273 42.535.88 8.715-.2 10.514 1.958 13.512 2.12 3.038 4.638 5.517 3.918 9.794-.72 4.277.72 6.756 2.119 9.634 1.439 2.838 7.115 15.63 6.436 22.227-.72 6.596 0 8.914 1.399 10.153 1.44 1.24 3.398 7.476 1.6 9.435-1.76 1.959-1.6 1.759-.88 3.717.72 1.96 1.079 2.519.88 4.638-.16 2.118-.36 3.917.559 7.635.88 3.758 4.237 14.271 1.759 19.588-2.479 5.357-3.198 7.116-4.078 9.634-.92 2.479-2.678 7.436-4.117 8.875-1.4 1.44-9.235 8.915-11.913 7.835-1.8-.52-1.44-3.398-1.44-3.398s-4.796-2.118-2.997-6.916c0 0-2.879 2.479-4.997.72-2.16-1.599-1.08-7.475-1.6-9.274-.36-1.96-.2-7.276-.879-10.674-.72-3.398-3.038-9.954-2.319-13.152.88-3.398 2.32-6.796.36-9.274-1.799-2.319-2.878-3.918-2.878-5.317 0-1.44-8.515-8.755-10.314-15.31 0 0 1.08 15.63.72 20.107-.56 4.437-.36 11.913 1.599 16.91 1.959 4.957 16.19 61.922-3.758 99.98-2.998 5.876-2.119 8.394-1.759 11.752.52 3.198 1.08 12.273-2.318 16.03-3.398 3.918-5.717 7.476-4.278 14.072 1.44 6.556 12.273 45.532 0 79.871-2.838 8.036.72 8.036-.88 11.394-1.598 3.397-1.598 3.557-1.239 4.477.36.88-.2 2.998-.72 3.917-.719.68-.199 1.6.88 2.639 1.24 1.08 4.997 5.197 6.037 7.315 1.079 2.319 6.596 6.237 8.195 7.476 1.439 1.439 2.518 2.119 3.757 3.038 1.4.68 4.997 1.4 6.037 1.759 1.24.52 2.678 1.08 3.398 2.478.52 1.28 1.08 1.44.88 3.238 0 0 2.478 1.4 1.958 3.718-.72 2.119-1.599 1.959-1.599 1.959s.52 3.198-1.24 4.078c-1.598 1.079-1.958.72-1.958.72s-.72 1.958-2.838 2.318c-2.159.36-3.039.2-3.039.2s-2.478 3.877-6.955 2.998c-4.278-1.04-5.877-3.358-6.756-4.637-.88-1.24-1.6-1.96-2.119-2.12-.36 0-2.518-.719-3.558-2.478-1.08-1.958-2.878-4.117-4.277-4.637-1.44-.52-7.476-2.678-12.992-3.038-5.357-.52-19.229-3.358-18.709-9.594.72-6.236 2.838-9.794.88-11.393-2.12-1.6-6.037-6.756-6.037-11.553.16-4.837 1.6-7.316-4.277-12.832-5.877-5.517-29.542-26.504-24.945-63.362 1.799-14.391.72-21.347 1.799-23.666 1.239-2.318-2.838-4.797-1.08-5.876 1.6-1.24 1.6-2.838-1.039-3.358-2.518-.56-7.315-5.157-9.274-12.113-1.8-6.956-10.154-33.46-10.874-38.456-.72-4.957-2.838-6.557-2.998-10.474-.36-3.758-.56-18.869-.56-18.869h.2s-.2 15.111-.36 18.869c-.36 3.918-2.518 5.517-3.198 10.474-.72 4.996-8.914 31.5-10.873 38.456-1.959 6.956-6.596 11.553-9.274 12.113-2.639.52-2.639 2.119-.88 3.358 1.6 1.08-2.478 3.558-1.239 5.876 1.24 2.319.16 9.275 1.959 23.666 4.437 36.858-19.229 57.845-25.105 63.362-5.677 5.516-4.437 7.995-4.277 12.832.2 4.797-3.718 9.954-5.877 11.553-2.119 1.599 0 5.157.72 11.393.52 6.236-13.352 9.074-18.709 9.594-5.517.36-11.553 2.519-12.992 3.038-1.4.52-3.198 2.679-4.277 4.637-1.04 1.76-2.999 2.479-3.558 2.479-.52.16-1.24.88-2.119 2.119-.72 1.279-2.319 3.597-6.756 4.637-4.477.88-6.956-2.998-6.956-2.998s-.88.16-3.038-.2c-2.119-.36-2.678-2.319-2.678-2.319s-.52.36-2.119-.72c-1.759-.879-1.24-4.077-1.24-4.077s-.879.16-1.438-1.959c-.72-2.318 1.799-3.718 1.799-3.718-.2-1.798.36-1.958.879-3.238.72-1.399 2.319-1.958 3.398-2.478 1.04-.36 4.797-1.08 6.036-1.759 1.24-.92 2.319-1.599 3.918-3.038 1.44-1.24 6.956-5.157 7.995-7.476 1.08-2.118 4.997-6.236 6.076-7.315 1.08-1.04 1.6-1.959 1.08-2.639-.56-.919-1.28-3.038-.92-3.917.36-.92.36-1.08-1.239-4.478-1.599-3.357 1.959-3.357-.88-11.393-12.272-34.339-1.439-73.315 0-79.871 1.44-6.596-.879-10.154-4.277-14.072-3.198-3.757-2.838-12.832-2.318-16.03.52-3.358 1.439-5.876-1.6-11.753-19.947-38.057-5.676-95.022-3.917-99.98 1.959-4.996 2.119-12.472 1.799-16.909-.56-4.477.68-20.108.68-20.108-1.96 6.556-10.474 13.872-10.474 15.31 0 1.4-.92 3-2.878 5.318-1.96 2.478-.52 5.876.36 9.274.719 3.198-1.6 9.754-2.32 13.152-.519 3.398-.519 8.715-.879 10.674-.36 1.799.56 7.675-1.599 9.274-2.119 1.759-4.997-.72-4.997-.72 1.8 4.798-2.838 6.916-2.838 6.916s.2 2.879-1.6 3.398c-2.677 1.08-10.513-6.396-11.912-7.835-1.439-1.44-3.198-6.396-4.117-8.875-.88-2.518-1.6-4.277-4.078-9.634-2.518-5.317.88-15.83 1.759-19.588.92-3.718.72-5.517.56-7.635-.2-2.119.16-2.679.88-4.638.719-1.958.879-1.758-.88-3.717-1.8-1.96.16-8.195 1.599-9.435 1.399-1.239 2.118-3.557 1.399-10.153-.68-6.596 4.997-19.389 6.436-22.227 1.4-2.878 2.838-5.357 2.119-9.634-.72-4.277 1.799-6.756 3.917-9.794 2.159-2.998 1.08-4.797 1.96-13.512 2.318-23.306 8.194-38.097 12.272-42.534 4.117-4.437 6.436-7.116 9.114-14.951 10.834-30.422 63.722-33.82 68.159-35.059 4.477-1.24 10.673-5.317 11.593-8.195.88-2.838 2.838-2.478 2.838-2.478-1.799-10.154 2.319-18.35 2.319-18.35-.88-.679-1.8-6.555-2.679-7.994-1.079-1.6-1.439-4.638.72-5.877 2.119-1.04 3.038 2.159 3.038 2.159 1.759-29.382 25.625-32.42 25.625-32.42h.52z" fill="none" stroke="#343434" stroke-width=".64" stroke-linecap="round" stroke-linejoin="round" stroke-miterlimit="10"/><path d="M289.485 278.591c.36.54.899.9 1.259 1.62.18.899-.18 1.618 0 2.498.36 1.799 1.08 2.698 1.979 4.117.899 1.44.54 2.159.36 3.758-.18.72 0 1.439 0 2.159-.18.52-.54.88-.72 1.419-.54 1.259-.18 2.158-1.26 3.038-.719.54-1.259 1.26-1.978 1.979-.9 1.419-1.44 3.038-1.8 4.657-.179 1.419.18 2.678 0 4.097" fill="none" stroke="#343434" stroke-width=".64" stroke-linecap="round" stroke-linejoin="round" stroke-miterlimit="10"/><path d="M284.428 300.098c.36-.7 1.599-1.599 2.318-2.139.88-.36 1.58-.36 2.299-1.079 1.06-1.26 1.579-3.778 3.698-4.137m-3.278-.48c.919-1.4 2.198-2.259 3.837-2.798m-3.678-11.034c-1.059 2.699 0 5.737.16 8.415 0 2.159 0 4.477-.88 6.436-.519 1.44-1.218 2.879-2.278 4.118-.7.72-1.939 2.518-2.998 2.858" fill="none" stroke="#343434" stroke-width=".64" stroke-linecap="round" stroke-linejoin="round" stroke-miterlimit="10"/><path d="M292.263 277.672c-2.279-.36-5.257 2.318-6.316 4.277m-7.656 9.854c1.26-.18 2.499 0 3.398.88 1.06.9 1.06 2.658.9 4.057-.72-1.22-3.398-1.399-4.478-.34m17.669 10.114c-1.438-1.219-2.878-1.219-4.497-.52-.36.18-1.639.7-1.639 1.22-.18.52.74 1.559 1.1 2.079m-31.741 68.278c-2.279 5.477-9.334 7.955-10.234 14.311m-10.314 6.477c-5.676 3.158-9.953 5.796-16.73 6.156-6.216.16-12.812-1.42-18.688-3.158m-12.712-2.279c-2.259.18-5.057 1.4-6.636 2.958m7.995 6.317c-2.499.66-5.017.22-7.356.879m35.819 88.746c-2.14.92-4.478 1.82-6.636 1.999m31.66 17.389c-1.599-.36-3.378-1.079-4.997-.899-1.778.18-3.018 1.24-4.817 1.42-1.779.179-4.457-1.06-5.536.879m39.576 38.376c1.199-1.919 1.199-4.237.52-6.396-.88 0-1.76-.52-2.48-.88-.719-.359-2.118-1.079-2.478-1.598-.36-.36-.16-.72-.52-1.24-.36-.36-.719-.52-.879-.879-.72-.72-1.439-1.599-1.08-2.518" fill="none" stroke="#343434" stroke-width=".64" stroke-linecap="round" stroke-linejoin="round" stroke-miterlimit="10"/><path d="M264.12 547.148c.64-.52.44-1.799.44-2.558m4.037 5.996c-1.04-.36-2.079.16-2.958.88-.68.72-.84 1.599-1.2 2.478-.519-.88-1.918-1.399-2.278-2.318-.36-1.24 1.4-1.76 2.079-2.319m11.033 5.117c.84-2.119-.36-4.237-2.119-5.317-.879-.52-1.758-.72-2.438-1.599-.72-.72-.72-1.599-1.08-2.518m8.955 4.637c0-.88-.88-1.6-1.399-2.319-.52-.56-1.08-1.439-1.759-1.799-.56-.56-1.24-.36-1.799-.72-1.04-.359-1.399-1.798-2.478-2.358m7.435 1.159c-.16.52-1.2-.36-1.519-.719-.52-.36-1.24-.72-1.759-1.08m3.837 3.559c-.519.16-.719.879-1.079 1.239-.919-.72-.36-2.159.72-1.24" fill="none" stroke="#343434" stroke-width=".64" stroke-linecap="round" stroke-linejoin="round" stroke-miterlimit="10"/><path d="M277.472 548.508c-1.32.2-1.52 1.039-1.52 2.078-.399-.68-1.358-1.559-.959-2.238.4-.72 1.92-.52 2.12.16m-3.319 3.038c-1.04.36-1.599.36-2.279 1.599-.36-.68-1.079-1.4-.879-2.119.16-.72 1.24-.92 1.759-.72.88 0 1.04.36 1.559 1.08m-11.673-313.09s0-25.265-3.538-34.34c-3.738-9.254-13.332-19.588-12.272-22.786.9-3.218 3.557-5.516-.88-15.13-4.457-9.615-6.416-9.435-4.977-12.813 1.6-3.398 5.317-15.31.88-24.225" fill="none" stroke="#343434" stroke-width=".64" stroke-linecap="round" stroke-linejoin="round" stroke-miterlimit="10"/><path d="M242.613 145.852s1.08.34 2.678-1.06c1.6-1.239 8.555.34 13.712-3.558m-17.989 10.954s-1.66 3.178-3.518 7.195m-.32 7.596s4.797 10.893.88 14.65c-3.918 3.579-11.213 11.254-13.712 12.853-2.299 1.62-6.936 4.118-14.051 5.177-6.956 1.08-49.33 12.492-50.59-8.915m91.465-40.395c3.438 1.06 6.856 3.158 10.633 3.838m-6.636 42.154c3.019 1.819 8.295.66 11.114-.18m21.027-7.675c-2.659.54-4.597 2.278-6.556 3.837m9.994 9.994c-1.06 6.337-8.015 3.818-11.593 6.876m24.465 41.415c-4.317.72-7.196-.54-11.353-2.159M183.05 51.609s-1.52-4.278-1.18-6.596c.18-2.139.18-5.717.18-5.717" fill="none" stroke="#343434" stroke-width=".64" stroke-linecap="round" stroke-linejoin="round" stroke-miterlimit="10"/><path d="M182.17 42.414s3.358-4.797 2.838-.34m-2.838 2.019s2.158 1.6.18 3.358" fill="none" stroke="#343434" stroke-width=".32" stroke-linecap="round" stroke-linejoin="round" stroke-miterlimit="10"/><path d="M162.841 25.205c.36-2.299 10.274-4.617 13.972 4.797 0 0 0 1.06-1.4 0-1.418-1.24-6.016-4.617-9.214-4.078-2.998.54-3.538.54-3.358-.72z" fill="#792017" fill-rule="evenodd"/><path d="M171.056 31.62s1.78 1.62 2.479 2.16" fill="none" stroke="#eaac9c" stroke-width=".32" stroke-miterlimit="8"/><path d="M165.06 31.54c0-.959.78-1.758 1.719-1.758.96 0 1.719.8 1.719 1.759 0 .98-.76 1.759-1.72 1.759-.939 0-1.718-.78-1.718-1.76z" fill="#792017" fill-rule="evenodd"/><path d="M166.18 31.5c0-.319.28-.599.599-.599.34 0 .6.28.6.6 0 .34-.26.6-.6.6-.32 0-.6-.26-.6-.6z" fill-rule="evenodd"/><path d="M161.222 26.584s-1.459 6.096 0 9.834c0 0-2.558-5.177 0-9.834zm.7 11.193s2.099 2.379 1.24 3.638c-.88 1.28-1.76 2.179-2.82 2.358 0 0 2.46-1.619 2.46-3.078-.18-1.279-.18-2.178-.88-2.918z" fill="#eaac9c" fill-rule="evenodd"/><path d="M157.704 43.733s0-1.059 1.04-1.219c1.22-.36 1.919-.18 2.079-1.06 0 0-.16 1.06-.68 1.22-.7 0-.18 1.74-2.439 1.06z" fill="#bb7a6a" fill-rule="evenodd"/><path d="M160.683 41.595c1.019-.9.86-3.058.34-4.138.18.54.52 1.26.52 1.8.159 1.079-.34 1.978-1.04 2.678zm2.038-2.699c.74 1.08 1.68 2.16 2.239 3.398.74 1.42.74 3.218.56 4.638-.38 3.737-2.619 6.775-3.178 10.513.56-2.139 1.119-4.277 1.878-6.236.36-1.24.92-2.499.92-3.918 0-1.439 0-2.858-.56-4.097-.18-.54-1.12-2.679-1.859-1.62.38-.519.38-1.059.38-1.598z" fill="#eaac9c" fill-rule="evenodd"/><path d="M156.025 61.603c3.758 0 5.357-3.798 5.357-3.798s-2.318-4.357-3.738-4.917l-1.439 1.28-.18-.18-1.439-1.1c-1.239.56-3.757 4.917-3.757 4.917s1.798 3.798 5.556 3.798z" fill="#fce2d7" fill-rule="evenodd"/><path d="M156.205 61.063c-3.038 0-4.837-2.379-5.376-3.298 0 0 1.619 3.838 5.376 3.838 3.758 0 5.177-3.838 5.177-3.838-.34.92-2.139 3.298-5.177 3.298zm-1.619-7.595 1.44 1.079 1.618-1.08c1.06.36 3.219 3.059 3.738 4.138 0 0-2.498-4.317-3.738-4.877l-1.619 1.28-1.439-1.28c-1.419.56-3.757 4.877-3.757 4.877.54-1.08 2.698-3.778 3.757-4.137zm7.716 4.457c-.72 1.439-.36 3.238.18 4.657.54 1.26 1.059 2.519 1.059 3.938 0 1.259-.34 2.338-.52 3.398.36-.88.18-2.319.18-3.398-.18-1.6-.54-2.859-1.08-4.478-.359-.7-.719-1.419-.719-2.138-.18-.9.36-1.44.9-1.98z" fill="#eaac9c" fill-rule="evenodd"/><path d="M184.488 297.04s9.634-.7 13.552-1.04c3.918-.54 15.51 0 19.948 5.937m-25.665-25.824s-14.23 2.478-20.467-6.376c-6.056-9.055-10.314-11.893-14.052-12.253h-3.398c-3.737.36-7.995 3.198-14.051 12.253-6.056 8.854-20.308 6.376-20.308 6.376m62.123 68.997s-9.934 5.677-11.354 8.156" fill="none" stroke="#343434" stroke-width=".64" stroke-linecap="round" stroke-linejoin="round" stroke-miterlimit="10"/><path d="M148.17 13.772c-.36 1.599-.36 2.678-1.599 3.917-.72.72-1.419 1.42-2.139 1.78 0-1.06.9-2.48.54-3.739-.72 1.6-1.779 3.378-3.558 4.098.54-.72 1.24-1.42 1.42-2.319-.88 1.08-1.78 2.319-2.659 3.198-1.08 1.08-2.139 1.78-3.198 2.679.18-.72.52-1.42.88-2.139-1.06.54-2.3 2.838-3.019 3.918-1.06 1.779-1.599 3.717-2.478 5.496.34-.7.7-2.118 1.419-2.658-1.08 3.918-4.277 8.175-3.738 12.253-.18-.88-.18-1.6-.54-2.479-.18-.88-.52-1.779-.7-2.658-.359-2.679-.359-5.337-.719-8.015-.36-2.479.54-5.137 1.6-7.456.719-1.419 1.778-2.838 2.498-4.277-.54.72-1.42 1.079-2.139 1.619.72-.72 1.24-2.139 1.6-3.038.899-1.78 1.598-3.378 2.838-4.977.899-1.06 2.138-2.12 3.557-2.659.36-.18 1.06-.72 1.6-.72-.7 0-1.42.18-1.96.18 1.96-1.419 5.157-2.478 7.656-2.478 2.299 0 3.898-.54 6.216-.9 0 0-.9-1.239-2.318-1.239 0 0 4.097-.72 6.396-.18.18 0-.18-.18 0-.18 1.079.54 2.138.72 3.198 1.08 1.419.34 2.858.88 4.277 1.419 3.198 1.24 6.396 1.599 9.235 3.198 4.077 2.479 6.935 5.857 8.534 10.314.7 2.119.88 4.257 1.42 6.396.36 2.119.36 3.898.52 6.036 0 2.139 0 4.278-.16 6.396l-1.08 3.738c0-1.06-.52-1.24-.7-1.959-.54-1.059-.18-2.478-.9-3.378 0 .18-.179.36-.359.36-.34-1.06 0-2.478-.34-3.558-.36.36-.72.9-1.079 1.42-.52-1.24.18-3.558 0-4.978-.18-.879-.7-2.478-1.599-3.018 0 .54.18.9.18 1.24-.7-.88-1.24-2.12-2.299-2.839-.9-.7-2.318-1.06-3.038-1.959 0 .54.36 1.08.36 1.6-1.42-1.06-2.299-1.96-3.898-2.479-1.259-.54-2.498-.9-3.558-1.42.36.52.54 1.06.88 1.42-1.24-.54-2.299-1.599-3.718-1.959-1.08-.36-2.139-.36-3.198-1.06-.54-.359-1.08-.719-1.44-1.079.18.54.9 1.08.9 1.42-1.419.18-2.658-.7-3.917-1.42.36.72.72 1.42 1.08 2.14-1.26-.36-2.32-1.06-3.379-1.78-.72-.54-1.419-1.239-2.139-1.599l-1.239-.72z" fill="#792017" fill-rule="evenodd"/><path d="M65.28 179.531c1.6 1.22 3.518 2.958 5.277.88m176.053-.72c-.36 1.24-3.098 2.638-3.837 1.6M101.259 214.79s16.37 9.654 29.002 8.215c12.453-1.42 17.79-1.959 25.625-2.499 7.835-.36 25.264 4.997 34.339 2.859 9.074-2.14 20.088-8.575 20.088-8.575m-63.243 46.692s-2.238 2.318-2.238 7.995m21.388-7.196s1.438 10.853.539 14.591c-.9 3.738.54 8.175 1.26 9.235m-13.733-28.623c-1.059.54-1.059 2.139-.52 3.198.52.88 1.2 1.759 2.26 1.42.52-.18 1.199-.54 1.199-1.06" fill="none" stroke="#343434" stroke-width=".64" stroke-linecap="round" stroke-linejoin="round" stroke-miterlimit="10"/><path d="M173.415 300.418s-3.538.54-2.838 9.814c.54 9.254 4.077 17.27-14.552 19.228-18.468 2.139-15.27-12.472-14.031-19.048 1.26-6.596-1.24-9.634-1.24-9.634s17.93 6.596 32.66-.36z" fill="#fef3ed" fill-rule="evenodd"/><path d="M140.595 300.938s2.498 3.218 1.259 9.814c-1.26 6.576-4.457 21.007 14.012 18.868 18.468-1.959 15.11-9.974 14.39-19.228-.699-9.095 2.84-9.814 2.84-9.814" fill="none" stroke="#343434" stroke-width=".64" stroke-linecap="round" stroke-linejoin="round" stroke-miterlimit="10"/><path d="M145.072 307.134s4.637 4.477 10.154 3.778" fill="none" stroke="#343434" stroke-width=".64" stroke-linecap="round" stroke-linejoin="round" stroke-miterlimit="10"/><path d="M162.941 309.133s4.438 20.967-6.216 22.386c-10.853 1.6-7.296-20.787-7.296-20.787s7.836 3.038 13.512-1.6z" fill="#fef3ed" fill-rule="evenodd"/><path d="M149.11 310.032s-3.558 23.086 7.295 21.487c10.654-1.42 6.216-22.386 6.216-22.386" fill="none" stroke="#343434" stroke-width=".64" stroke-linecap="round" stroke-linejoin="round" stroke-miterlimit="10"/><path d="M161.382 309.772s2.739-.66 3.998-1.839m6.636-7.035s-3.558 3.597-4.637 5.037M126.843 69.918s.9 12.652 15.19 15.67m43.335-15.67s-3.198 13.611-16.55 16.79m8.235-8.795c-1.78 0-4.278 1.799-5.517 2.678-1.979 1.26-3.398 3.218-5.177 4.657-3.218 2.499-6.256 2.659-10.014 2.659m-7.115.799c.899 1.84 3.417 1.12 5.216 1.12 1.96 0 3.938.54 5.897.36m-29.503-4.278c1.8 2.319 4.458 3.558 6.956 4.997 1.96 1.24 4.458 2.838 6.776 3.378 2.14.52 4.278.34 6.596.52 1.06.18 2.319.18 3.378.72.72.179 1.62.699 1.96.699" fill="none" stroke="#343434" stroke-width=".64" stroke-linecap="round" stroke-linejoin="round" stroke-miterlimit="10"/><path d="M180.85 78.872c-.2 1.979.72 3.758 1.8 5.357" fill="none" stroke="#343434" stroke-width=".64" stroke-linecap="round" stroke-linejoin="round" stroke-miterlimit="10"/><path d="M151.388 57.425s5.557-1.979 9.674.18c0 0-4.117-1.439-9.674-.18z" fill="#eaac9c" fill-rule="evenodd"/><path d="M104.996 190.964c-2.298 1.76 3.178 4.398 3.698 1.42" fill="none" stroke="#343434" stroke-width=".64" stroke-linecap="round" stroke-linejoin="round" stroke-miterlimit="10"/><path d="M148.69 30.921s-4.957-2.818-7.615.88c0 0 2.838 2.618 6.376.7 0 0 .72-.52 1.239-.52.7 0 .7-.36.36-.72m14.67-.34s4.818-2.818 7.656.88c0 0-3.018 2.618-6.576.7 0 0-.72-.52-1.26-.52-.719 0-.719-.36-.359-.72" fill="none" stroke="#eaac9c" stroke-width=".32" stroke-miterlimit="8"/><path d="M144.652 31.62c-.18-.759.94-.939 1.3-.759.2 0 .56.58.76.58.359 0 .179-.58 0-.76-.38-.38-1.32-.58-1.68-.58-.56 0-1.32 1.14-.56 1.34h.18zm21.428-.359c.18-.76 1.059-.56 1.398-.2.18.2.34.56.7.38.16-.18 0-.56-.18-.94-.34-.56-.86-.36-1.399-.18-.34 0-.68.18-.86.38-.18.18-.36.74 0 .56.18 0 .34-.2.34-.2z" fill="#49180f" fill-rule="evenodd"/><path d="M144.672 31.94c.34.76 1.18.2 1.68 0 .32.58-1.34 1.52-1.68.2zm21.188.04c.54.56 1.239.38 1.778-.2.7.76-1.599 1.52-1.599.2z" fill="#a75019" fill-rule="evenodd"/><path d="M145.552 31.7a.4.4 0 0 1 .4-.399c.24 0 .4.18.4.4 0 .24-.16.4-.4.4-.22 0-.4-.16-.4-.4zm21.267 0c0-.22.24-.399.52-.399.3 0 .52.18.52.4 0 .24-.22.4-.52.4-.28 0-.52-.16-.52-.4z" fill="#fff" fill-rule="evenodd"/><path d="M169.217 80.551c1.78-1.959 4.977-3.198 7.476-3.378 1.599-.18 2.299.18 3.558-1.06 1.06-.899 1.759-2.138 2.298-3.397 2.499-5.157 2.659-9.794 1.24-15.49-.18-.54-.34-1.08-.34-1.62 0 5.897.16 12.653-3.738 17.29-1.06 1.599-2.838 2.678-4.437 3.218-1.959.52-4.278 1.599-4.977 3.738zm-12.552 8.335c.36-.36 1.26-.36 1.799-.36.72 0 1.44-.18 2.139-.36l2.698-.54c1.779-.339 2.858-.879 3.918-2.138.9-.88 1.619-1.779 2.698-2.478 1.42-1.26 3.038-2.679 4.817-3.578.72-.36 1.62-.36 2.319-.72-1.78 1.08-3.218 2.319-4.817 3.578-1.26.88-2.14 2.319-3.218 3.198-.36.54-1.62 1.26-1.26 1.959.18.54 1.08.36 1.62.36h3.038c-1.08.72-3.039 1.259-4.298 1.259-.9 0-1.779-.36-2.678-.36-.72 0-1.62.18-2.499.54-.54.18-.9.18-1.259 0-.54-.18-.9-.36-1.44-.36-1.058 0-2.318.7-3.397.36zm-30.841-18.009c1.06 2.858 1.239 6.076 3.358 8.575 1.959 2.139 3.897 3.218 6.376 4.637 2.318 1.44 4.977 1.959 7.275 3.398 1.78 1.06 4.598 1.599 5.837 3.378-3.538-1.779-7.436-2.838-11.153-4.277-2.299-.88-4.258-2.32-6.376-3.558-1.08-.54-2.499-1.08-3.378-1.98-1.06-1.058-1.42-2.318-2.299-3.377-.72-1.08-1.24-1.08-2.479-.72-1.239.36-2.318.9-3.737 1.08 1.419-1.26 2.838-1.62 4.257-2.679 1.42-1.259 1.78-2.498 2.139-4.297zM166.5 26.264c-.34.18-1.06.18-1.4.18-.54.18-1.06.18-1.42.18-1.059 0-1.938.54-2.298 1.419-.54 1.06-.72 2.818-.54 4.058 0 1.239.18 2.658.72 3.717.7 1.24 1.58 2.659 2.479 3.718.7 1.06 1.579 2.299 1.759 3.518-.36-.88-.36-1.759-.7-2.638-.36-1.06-.9-1.94-1.42-2.839-1.059-1.399-1.778-4.597.88-4.057-1.599-.18-2.998-2.299-1.419-3.538.54-.52 2.139-.18 2.479-.88.18-.36-.18-.88-.18-1.239 0-.7.36-1.24.72-1.599zm-14.832 17.829c-.54-.18-1.26-.36-1.799-.9-.36-.359-.54-1.258-1.08-1.079-.719 1.98-1.079 4.118-.719 6.257.36 1.619.72 2.858 1.26 4.477.36 1.06 1.079 2.319 1.259 3.558.18-1.6.36-2.499 1.599-3.198-2.139-.36-3.218-3.398-3.398-5.377 0-1.06 0-2.139.72-3.038.719-.7 1.259-.16 1.798-.34zm3.038 7.935c-.2-1.239.38-2.838.18-4.257-.18-1.08-.18-1.959-.18-3.038.18 1.779.56 3.738.76 5.517.18 1.079.38 2.138.56 3.198-.38-.34-.76-.7-.94-1.06z" fill="#fce2d7" fill-rule="evenodd"/><path d="M156.405 53.048c1.62-.52 1.08-2.119.9-3.538a18.46 18.46 0 0 1 0-4.457c-1.44 2.318.36 5.696-.9 7.995z" fill="#fff" fill-rule="evenodd"/><path d="M70.317 132.84c-.72-.36-2.338-.9-2.518-1.98-.36-2.338 3.058-.36 4.117-.18m-17.589 9.355c0 .72-.88 3.038-.16 3.738 1.22 1.06 1.76-2.299 1.919-3.198m-5.196 12.252c.339.91 1.178 1.82 1.838 2.719m7.036-5.996c.6.699 1.18 1.938 1.359 2.798m-35.499 37.497c-.16-.7.48-2.109.8-2.638m20.308 10.573c0-.88.38-4.097 1.639-3.738 1.079.36.54 4.278.54 5.157m-26.165 2.958c-1.06.72-1.579 2.479-2.478 3.518m49.33-25.984c.48 1.28.8 2.898 1.279 4.158m2.059-25.865c-.54-.52 1.259-2.118 2.158-2.118.18 1.239-1.079 2.818-1.978 3.517m.379 7.436c.68 1.1 2.579 1.459 2.579 2.898-1.02.54-3.798-1.439-4.317-.18.879.9 2.258 1.08 2.938 2.159m80.551-74.995c.36-.16 1.419-2.258.54-2.618-.72-.18-1.26 2.099-1.44 2.458m-23.666-9.114c.4-.56 1-1.12 1.2-1.679" fill="none" stroke="#fef3ed" stroke-width=".64" stroke-miterlimit="8"/><path d="M129.082 85.428c1.599 2.659 4.077 4.078 6.716 5.297 2.138 1.24 4.257 2.658 6.376 3.718 2.458 1.06 4.757 1.239 7.415 1.579 3.178.18 4.957 1.06 7.236 2.998-1.22-.52-2.279-1.06-3.698-1.22-1.599-.36-3.178-.719-4.777-.899-3.538-.34-6.356 1.06-9.894-.52-2.818-1.059-4.957-3.537-6.896-5.656-1.239-1.22-2.118-2.818-2.118-4.577-.18 0-.18 0-.18-.18z" fill="#fce2d7" fill-rule="evenodd"/><path d="M9.874 251.927c0-.52-.72-2.578 0-3.098 1.24-.7 1.599 3.258 1.759 3.938m6.636-5.117c.4.94.78 2.039 1.36 2.958m.799 27.983c.2-.86.78-2.099 1.359-2.798m2.958 6.796c.18-1.2 1.26-2.739 2.159-3.438m41.974-28.223c.18-.36.9-1.779 1.42-1.959 1.059-.36 1.419.54 1.059 1.6-.18.719-1.94 1.438-1.24 2.678.36.879 2.12-.54 2.999-.36m21.107 47.191c.54.7 1.979 2.659 3.058 1.6 1.26-1.08-.9-3.219-1.979-3.579m7.476-83.789c-.34.54-.88 2.139-.18 2.479 1.06.88 1.939-1.58 2.099-2.299m5.196 3.338c.16 1.44-.52 3.238-1.039 4.477m99.46-8.475c.36.54 2.478 3.538.72 3.538-1.06.18-1.24-2.298-2.48-2.478-.719 1.419.18 3.018.7 4.057m-63.861 49.49c1.06-.48 1.919-.8 2.958-.8m-24.785 10.055c-.54-.72-.72-2.519.36-2.879 1.959-.54 1.779 3.778 2.119 4.658m66.28-4.877c.64 1.079.42 2.298 1.039 3.358m-23.706 1.698c-2.478-.18-4.437 3.019-1.239 3.019.7 0 1.939-1.6 2.299 0 .34 1.239-1.96 2.318-2.659 2.478m50.41 11.433c-.86 1.999-1.4 4.518-2.798 6.316m-66.601 2.879c-1.638.36-1.838 1.919-1.838 3.118m22.626-5.437c.16.72.48 1.62.96 2.159m-36.798 38.776c-2.618 1.28.54 4.717 1.22 1.1m46.431 2.259c-.72-.34-1.819-2.08-.9-2.959.9-.88 3.239 2.279 3.059 2.958m-105.276 50.05c-.9.36-1.44 1.439-1.26 2.498.18 2.499 1.08.54 1.8-.36 2.498-2.858 2.338 2.5 1.798 4.098m28.363-4.317c.56 1.599 1.12 3.038 1.12 4.797m14.151-4.158c.36-1.399 1.979-2.278 2.318-3.518m2.719 8.875c.32 1.819-.48 4.178-.32 6.156m-66.44-22.186c1.26.52 4.318-.52 3.958-2.119-.54-2.478-3.598-.18-4.677.18m143.273 15.031c.54-1.62 2.158-3.058 2.518-.54 0 .9-.54 1.8.54 1.8s1.26-1.98 1.419-2.52m-24.625-1.478c3.598 2.698 3.238 8.235 3.238 12.152m2.359-14.79c.36 1.278.7 2.737 1.199 3.997m58.145-12.533c-.18.54 1.779 1.82 2.498 1.46 2.119-.92-1.779-3.279-2.678-3.478m-33.5 109.134c1.52 1.998 3.038 3.977 3.038 6.316m-120.647-4.798c-.48 1.6-1.119 3.378-1.759 4.798m-26.703 12.812c.18 1.399.72 2.798 1.079 4.197 3.238.34 2.338-3.677 2.338-6.136m167.519.959c-.2 1.8-.56 5.957 1.959 6.676 2.998.68 1.759-4.677 1.759-6.676M46.732 545.95c.76-.16 1.319-1.12 2.238-1.12.36-.2 1.28-.4 1.44.2m-8.635-.04c.56.4 1.119.76 1.679 1.119m-3.238-1.839c-.36 0-1.08-1.08-.72-1.439.56-.4 1.64.72 1.959.72m220.027 1.119c1.439-.56 3.437.72 4.317 1.599m3.518-.639c.56 0 1.08-.32 1.439-.64m.56-1.6c.2 0 .72-1.598 1.639-.679.68.52-.36 1.919-.56 2.439m13.872-266.559c.18 1.3.72 2.399.879 3.678m3.838-6.636c.48 1.28.96 2.558 1.439 3.998m1.219-32.141c-.16.74-.5 2.738.5 2.918 1.159.36.84-1.999 1.319-2.718m-14.671-37.697c-1.64-2.499-1.64-5.517 1.439-2.679.72.9 1.26 2.839 2.518 1.6.72-.7 0-2.839-.54-3.538m-20.247-11.054c.2 1.64.8 3.078.8 4.877m18.288-6.876c-1.579 0-2.458-2.258-1.399-3.677 1.22.54 2.099 1.938 2.619 3.338m-32.141-40.156c0-.72.2-1.42.56-1.959 1.439.18.9 2.659.9 3.358m5.176-9.654c-1.22-.36-1.939-1.979-2.818-2.898-1.22.92.18 3.438 0 4.877-1.22-.54-2.279-2.519-3.178-3.778M241.174 131c.88-.32 1.759-.639 2.638-.639m-6.476 25.984c.88 1.08 1.76 2.339 2.798 3.038m-3.517 10.494c0-.18 0-.34.18-.52a6.912 6.912 0 0 1 2.638-.54c0 1.24-1.4 1.24-2.279 2.12.52 1.399 2.099.52 3.138.36m-81.051 21.166c.9-.72 2.699-1.978 2.519 0 0 1.78-2.698 2.299-2.519 4.438 1.98.54 3.059-2.319 4.498-1.78 1.799.54-.18 4.278-.36 5.517m-10.154-7.375c-.72-.7-1.639-1.4-2.738-1.58-1.1 2.1 1.659 2.44 2.738 2.959M181.21 84.229c-.16-.34 1.28-1.779 1.6-2.319m-31.742 6.476c0 .88 0 1.94.16 2.639m91.785 160.263c-.88-.88-1.58-2.119-2.799-1.4-.54 2.28 2.1 2.1 2.279 3.678.36 1.92-2.638 1.92-3.878 1.92m-2.318 5.836c1.08.5 2.318 1.179 3.198 1.998m-99.46 39.277c.54.54 1.62-.18 2.319-.18" fill="none" stroke="#fef3ed" stroke-width=".64" stroke-miterlimit="8"/><path d="M66.78 183.03c1.239 0 3.537.539 4.257-.54 1.42 0 2.838 2.338 3.738 3.397 1.599 1.96 3.378 3.398 5.157 4.997 3.737 3.218 7.295 4.817 11.553 6.956 4.437 2.159 8.354 3.398 13.331 3.938 2.32.36 4.977 1.08 7.296 1.599 2.319.54 5.337.18 7.456 1.259-2.479.88-8.355 0-11.553-.36-5.497-.54-11.374-1.599-16.71-3.038-6.037-1.42-12.093-3.918-16.35-8.395-1.42-1.24-3.198-4.997-5.517-4.817-1.6.18-4.437 3.398-5.877 4.297-1.778 1.24-3.377 2.679-5.156 4.098 2.138-2.139 3.378-4.997 5.156-7.495 1.08-1.78 3.039-3.398 3.918-5.177zm79.731 19.767c.36-.7 2.159-1.599 3.058-2.498 1.08-1.24 1.8-2.499 2.519-3.918.72-1.44 1.799-5.377 3.598-5.557 1.799-.18 3.777 4.298 4.677 5.557 1.26 1.779 3.058 4.637 5.017 5.717-1.78-.54-4.298-2.499-5.737-3.758-1.439-1.26-2.698-3.578-4.497-2.499-1.619.88-2.339 3.218-3.958 4.278-1.079.9-2.518 1.799-3.597 2.338zM99.58 216.629s16.03 8.974 24.765 8.435c8.914-.36 34.739-5.017 47.031-.9 12.113 3.958 23.326.72 30.622-3.038 0 0-15.85 10.214-27.244 7.176-11.393-3.238-32.78-2.339-41.135.36-8.195 2.498-19.608-2.34-34.04-12.033zm52.208 42.134c-3.238 1.08-4.497 4.278-5.217 7.296-.54 2.838-.18 5.496 0 8.335.18 2.658-.54 6.036.36 8.515 0-2.659.36-5.317.72-7.796.36-2.318.18-5.337 1.439-7.455.9-1.42 2.518-2.679 4.317-2.679 1.799 0 2.698.54 4.297-.88-3.398-.359-5.017-1.058-5.017-4.976zm16.57 20.967c.36-4.417.36-8.135-.18-12.572 1.26 1.24 2.139 3.378 3.218 4.797 1.24 1.58 2.838 2.639 4.617 3.358 4.098 1.76 8.355 1.58 12.793 1.58-2.839 1.778-8.175 1.598-11.374.719-2.138-.54-3.377-.88-5.336.52-1.42.899-3.558 2.658-3.198 4.777zm-25.345-10.973c-2.998 2.639-4.597 5.617-8.315 7.196-1.239.7-2.478.88-3.897 1.239-1.06.16-2.998.16-3.718.7 1.959.86 7.435.16 9.554-.36 2.659-.88 4.078-2.099 6.556 0 .52-2.459-.18-5.777-.18-8.415zM96.422 297.3c2.678-1.979 5.696-2.878 9.074-3.058 2.658-.18 6.216-.72 8.875.18-4.797-.9-9.415-2.879-14.032-4.318-5.516-1.799-10.493-4.497-14.591-8.635 2.319 1.44 4.098 3.598 6.056 5.397 1.42 1.08 3.198 1.979 4.078 3.598 1.439 1.799 1.599 3.778 1.599 6.116zm20.268 1.24c3.557-1.08 8.714.179 12.272.519 2.678.18 7.475.9 9.254 2.858 5.497 6.036-1.959 15.63 2.119 21.847-3.718-6.396 1.08-17.41-7.096-20.968-4.797-2.118-11.553-.36-15.83-3.377zm17.828 46.73c2.499 2.16 5.177 4.118 7.856 6.077 1.239.9 2.658 1.779 3.917 2.499 1.78 1.079 1.96 1.419 3.198-.18 2.14-2.679 3.039-7.316 3.918-10.534.9-3.018 2.139-7.316.18-9.994-1.06.72-1.6 0-2.479-.7-.54-.36-.36-.54-1.079-.899-.36-.18-1.24 0-1.779 0-2.678-.18-4.277-2.139-5.696-3.938 1.239 2.679 2.658 4.658 4.797 6.437 1.439 1.239 2.318 1.599 2.498 3.397.36 1.96-.7 3.738-.88 5.517-.719 3.038-.899 6.796-4.996 6.436-3.378-.36-5.877-3.038-8.735-3.937z" fill="#fce2d7" fill-rule="evenodd"/><path d="M142.514 350.807c.34 1.24 2.658 4.797-1.06 4.977-2.478.18-5.317-2.298-7.275-3.198 2.138 1.42 4.617 2.839 6.036 5.157 1.4 2.139 1.58 4.977 1.759 7.476.18 5.856-.36 11.373-1.939 16.89-1.06 4.437-1.779 10.853-5.497 14.05-1.778 1.24-3.537 1.24-5.496.7-2.479-.879-5.657-1.778-7.795-3.198 2.838 2.679 6.735 6.217 10.993 4.977 3.358-1.059 6.016-4.437 7.435-7.635 2.299-5.337 3.019-11.213 4.598-16.89l3.717-15.47c.72-2.14 1.6-4.098 2.139-6.237.7-2.138.7-5.336 1.58-7.295z" fill="#fce2d7" fill-rule="evenodd"/><path d="M141.354 379.45c-1.439 3.758-3.058 9.814-6.276 12.313-3.398 2.678-8.575.899-11.973-.54-4.477-1.779-8.774-2.139-12.892.72 3.418-.72 7.875 1.439 10.914 3.038 2.878 1.599 5.376 3.577 8.414 4.277 10.914 2.139 9.295-15.17 12.333-20.887zm-16.25 21.387c.88 1.24 7.096 4.058 4.437 6.156-1.239.88-4.797.54-6.216.36-1.239-.18-2.318-.36-3.558-.36-.72 0-1.958.54-2.678 0 1.26 0 2.499-.52 3.738-.7 1.259-.339 2.678-.18 4.097-.699 2.659-.88 1.6-2.818.18-4.397zm-24.245 10.833c1.26.34 3.038-.54 4.097-.72 1.42-.359 2.839-.719 4.258-.719 2.858-.36 5.876.36 8.535.54 3.557.54 8.355-.54 10.313 2.678 3.019 4.977 1.96 12.293 2.14 17.99.359 5.356.539 11.413-.72 16.57-1.06-2.839-.52-5.877-.88-8.895-.36-3.918-.9-8.195-1.06-12.313 0-2.138.16-4.797-.539-7.115-.54-1.96-1.779-2.319-3.558-3.039-3.738-1.419-8.355-2.138-12.272-2.658-1.96-.18-7.636.16-8.695-1.439z" fill="#fce2d7" fill-rule="evenodd"/><path d="M129.781 430.22c.18 4.636.9 9.454 1.26 14.09.52 5.697-1.44 12.273-3.218 17.63-.7 2.838-1.6 6.056-3.019 8.735-1.239 2.658-3.018 4.977-4.797 7.295-3.218 4.458-6.596 9.255-10.333 13.532-1.06 1.26-2.499 2.678-3.918 3.738-.88.9-2.139 2.139-3.018 2.678-2.139 1.42-5.177-.7-7.316-1.06 2.139-.179 4.817-.179 6.596-1.438 3.558-2.139 6.236-6.756 8.195-10.154 2.299-4.098 5.157-7.476 7.296-11.573 2.138-3.738 4.457-7.476 6.576-11.393 3.038-5.877 5.177-13.372 4.277-19.968-.36-3.558-.54-6.936-.36-10.494.18-1.779.18-3.398.18-5.177-.18-.88-.52-3.917 0-4.457v-.18c.54.9.54 3.218.72 3.218zm-58.344-30.982c2.318 1.24 5.157 1.959 7.635 3.178 2.299 1.42 5.137 1.779 7.795 2.659 5.317 1.419 9.575.52 14.711-.36-4.777 2.998-10.273 1.419-15.59 1.419-2.659 0-5.677.18-7.975-1.42-2.139-1.239-4.258-2.818-6.217-4.417zm-7.356 119.468c3.218 0 6.256-1.22 9.275-.7 1.259.36 2.498 1.04 3.937 1.22 2.139.16 3.018-.18 4.617 1.538-1.059-.5-2.658-1.199-3.917-1.199-1.6.18-2.679.7-4.278.52-1.419-.34-2.678-.7-4.097-.7-1.78.18-3.738 1.04-5.177-.68zm39.176-131.96c-5.696-.18-11.593-3.778-17.669-3.958-4.637 0-8.035 2.159-12.153 3.958 3.758-4.857 9.475-7.016 14.832-5.577 4.817 1.26 10.713 2.518 14.29 5.916zM72.616 157.545c1.1 2.318 1.46 5.336 1.1 7.995-.18 1.779-.72 6.576-1.82 7.995-.74-1.76.72-9.754-3.457-8.155-.2.16-.2.16 0 .16.36-2.119 2.358-6.217 4.177-7.636zm-19.488-14.712c2.658 1.8 5.656 2.319 8.655 2.499 1.059.18 3.178-.18 4.237 0 1.759.54 1.939 1.959 2.458 3.398.7 1.599 1.6 2.838 2.12 4.437.519 1.6-.18 3.218-1.06 4.817-1.58 3.198-3.358 6.756-5.297 9.794-.16.18-.34.54-.34.88.7-3.558 1.76-6.576 2.819-9.974.36-1.42 1.239-4.258.879-5.697-1.24-3.917-7.755-.18-9.694 1.26 1.4-1.08 6.696-3.039 4.937-5.357-.88-1.42-3.718-1.42-4.937-1.959-1.779-.7-2.818-2.139-4.238-3.378zm15.99-12.313c-.7 2.16-1.599 4.298-1.599 6.437-.18 2.139.9 4.637.36 6.596-1.979-.52-2.878-1.779-5.197-1.779-2.159.18-3.778.36-5.397-1.42 1.98.52 5.917.88 7.716-.539 1.799-1.599 2.158-6.076 3.418-8.215zm-26.544 65.96c2.319 2.14 10.354 2.5 13.192 1.08-2.838 2.479-4.617 5.677-4.977 9.395-.18 2.658-.18 5.156-.36 7.815-.18 3.198-.899 6.216-.899 9.214-1.24-6.196-.88-12.772-.36-19.148.18-1.6.18-3.018-1.06-4.258-.899-1.079-3.557-1.239-3.917-2.498z" fill="#fce2d7" fill-rule="evenodd"/><path d="M74.535 153.387c-.36 1.62 2.139 5.537 2.658 7.655.72 2.319.54 4.638 0 6.956-1.06 3.738-3.917 8.175-1.419 12.273 1.08 1.959 3.378 3.038 4.817 4.637 1.6 1.42 2.838 3.378 4.258 4.977 3.378 3.738 7.835 6.596 12.992 6.596.36 0 .9.16 1.419.16-2.299-1.42-4.977-1.939-7.296-3.558-2.118-1.42-3.897-3.378-5.516-5.337-1.24-1.599-2.299-3.198-3.558-4.797-1.24-1.26-3.018-2.318-3.738-3.918-1.959-4.637 1.44-9.254 1.08-13.711-.54-4.457-3.738-7.656-5.697-11.213zm-5.417-25.185c.36 0 1.56-2.838 2.599-1.079.52.9-.52 2.838-.52 3.718 1.04-.88 2.079-3.878 1.399-5.117-1.22-2.319-2.259.52-2.958 1.399zm-16.41 14.152c-.72-.7-2.319-2.299-1.43-3.358.54-.71 1.78-.53 2.49-.18-.53-.53-2.839-1.42-3.558-1.06-1.96 1.24 1.249 3.718 2.138 4.428zm-1.629 9.994c-.89.72-2.129.54-1.949 2.158 0 1.26 1.24 1.62 2.479 1.62-3.368 1.259-5.677-3.778-1.95-3.778z" fill="#fff" fill-rule="evenodd"/><path d="M111.572 82.39s-52.688 2.678-65.68 32.92c-3.738 8.715-5.157 11.913-8.015 14.931-2.838 3.218-11.573 14.411-14.251 49.45 0 0 3.398-31.3 13.192-45.712 9.954-14.411 8.894-13.872 10.673-17.61 1.959-3.737 11.753-27.923 64.081-33.979zM21.747 188.006c-2.659 2.499-5.157 6.436-2.319 9.634 1.6 1.8 2.499 3.218 3.738 4.997 1.599 2.319 4.597 1.8 7.256 1.979-1.58-.72-3.898-1.799-5.137-3.038-1.06-1.08-1.24-2.858-2.299-4.098-1.06-.9-2.299-1.439-2.658-2.858-.36-1.44.52-4.817 1.759-5.537zm-4.117 16.31s-8.915 16.37-8.036 22.407c.72 6.216.9 9.234-.88 11.553-1.798 2.318-5.556 10.133 1.06 10.493 1.44.16 3.758-.36 5.357-1.599 0 0-6.256 1.6-6.956-1.259-.9-2.838.88-6.756 4.277-5.497 0 0-2.138-1.079-1.419-3.737.54-2.659.54-8.895.18-10.674-.36-1.939-.72-7.455 6.416-21.687zm-7.096 48.311c-1.08 0-2.14-.18-3.198.36-.18 3.378-.72 7.295-1.08 10.853-.36 3.918-1.419 7.476-1.779 11.393-.36 4.258 0 7.476 1.78 11.213.899 1.94 2.138 3.718 2.678 5.857.52 1.599.52 3.378 1.239 4.997 1.24 2.838 4.797 5.496 7.455 7.275-.16-2.298-2.118-2.478-3.538-4.077-1.599-1.779-2.498-4.457-3.218-6.596-.52-2.479-.52-5.157-1.419-7.456-.88-2.138-2.118-3.917-2.838-6.056-2.139-6.056 1.06-9.794 1.599-15.47.36-3.219-.88-10.514 1.959-12.293zm13.991 29.163c-.72 3.197-1.619 7.794-.72 11.152.72 2.12 4.978 7.956 7.816 6.377-3.538-1.42-5.677-3.538-6.576-7.256-.52-2.838-1.6-6.016-.7-8.855zM131.62 38.737s-.36 3.737 0 6.596c.54 2.658-.54 4.617-1.619 7.275-1.239 2.678-9.474 23.826 11.073 31.461 0 0-16.97-8.695-11.433-25.225 2.339-6.756 3.578-10.493 3.039-13.172-.36-2.478-1.06-6.935-1.06-6.935zm20.368-11.434c.18 1.26.54 2.319.72 3.578v2.299c0 1.439-.36 2.678-.72 4.097-.18 1.24-.92 2.499-.18 3.738.72 1.24 2.339.36 3.058 1.24 0-.34.18-.7.36-1.06-1.08 0-2.339 0-2.698-1.42-.18-.719 0-1.778.54-2.318.359-.72.899-.88 1.618-1.239-1.619.18-1.439-3.558-1.259-4.457 0-.72 0-1.6-.36-2.319-.18-.52-.72-1.24-.9-1.779zm6.676 9.135c1.24-.18 3.358 2.079 1.959 3.118-.88.86-.72-.7-.72-1.38-.16-.879-.52-1.218-1.24-1.738zM147.55 51.929c.72 2.138 1.24 4.257 1.76 6.396.879 2.658-1.04 4.617-1.22 7.435-.54-2.298.88-5.137.52-7.615-.18-1.78-.88-3.538-.88-5.497z" fill="#fff" fill-rule="evenodd"/><path d="M149.39 32.6c-.16.18-.34.72-.52 1.08-.7.899-1.58 1.419-2.459 1.779-.7.36-1.579.54-2.458.899-.54.36-1.24 1.08-1.6 1.42.54-.52 1.6-.88 2.48-1.24.699-.18 1.578-.54 2.458-.9.88-.54 2.098-1.958 2.098-3.218zm13.671-.02c.18.38.72.76 1.06 1.12.36.38.899.56 1.239.939.36.56.88.94 1.599 1.12.34 0 .88.18 1.22.18-1.04-.56-1.94-.74-2.82-1.48-.699-.76-1.238-1.32-2.118-1.679z" fill="#eaac9c" fill-rule="evenodd"/><path d="M154.286 65.1c-2.338 0-4.317 3.219-3.058 5.177.9 1.42 2.879 1.96 4.318 2.14-2.339-.36-3.598.699-3.418 3.017 0 2.679-.36 4.997-2.159 7.116.9-2.479 2.878-5.517.72-8.015-.54-.7-1.08-1.24-1.62-1.959-.36-.88-.36-1.779-.719-2.478.18.52.54 1.419 1.26 1.059.36-.18.36-1.959.539-2.319.36-1.779 1.619-4.277 3.778-4.097zm3.578-.34c.7.34 1.4.34 1.92 1.04.879.7.879 1.4 1.059 2.439.859-.68.52-2.439-.36-2.959-.52-.18-1.74-.879-2.439-.52zm-2.478-10.093c-.7-.36-.88-.9-1.6-.18-.539.52-.899 1.42-1.438 1.759.54-.34 1.079-1.06 1.799-1.4.36-.359.72-.18 1.239-.18zm0 2.618c-.52 0-2.119 0-2.659.48-.54.48.18.32.72.16.34-.16.7-.32 1.06-.32.36-.16.719-.16.879-.16z" fill="#fff" fill-rule="evenodd"/><path d="M48.73 235.837c-.34 1.6-.34 3.198-1.059 4.597-.7 1.42-1.779 2.319-2.838 3.378-1.6 1.76-4.617 3.878-5.517 6.176-.88 1.96-.54 3.538-1.959 5.317-1.419 1.94-2.478 2.839-2.478 5.297-.54-4.937-5.877-5.836-9.255-8.655 2.679.7 9.075 5.297 11.553 1.58 1.08-1.58-.52-5.297-1.758-6.537-1.26-1.419-3.738-2.118-4.818-3.717 3.918 2.118 8.016 7.075 11.913 2.118 1.24-1.579 2.319-3.717 3.378-5.476.9-1.24 2.499-3.019 2.499-4.258z" fill="#fce2d7" fill-rule="evenodd"/><path d="M49.51 218.508c-.54 5.176-.18 9.994-.18 14.99-.18 1.78-.18 3.398-.9 4.997-.719 1.96-2.538 2.859-4.177 4.278 1.999-2.319 2.539-6.056 2.898-9.095.38-3.937.18-7.855.56-11.972.36-6.416.18-12.673 2.698-18.749zM35.199 264.12c3.538 2.678.72 9.234 0 12.612-.88 4.617-1.4 9.055-1.58 13.492-1.059-.54-2.118.36-3.197.52 1.419-1.06 2.138-4.957 2.318-6.736.52-2.479.34-5.137.88-7.635.34-2.3 1.239-4.618 1.759-6.916.36-1.6.18-3.558.18-5.337z" fill="#fce2d7" fill-rule="evenodd"/><path d="M18.109 276.692c.72-1.419 4.317-.18 5.577.18 2.158.7 2.878 2.119 3.777 3.878 0-2.459-1.259-4.238-3.418-5.117-.899-.36-1.798-.72-2.698-.54-1.08.36-1.799 1.06-2.698 1.24z" fill="#fff" fill-rule="evenodd"/><path d="M20.468 280.59c-.36 1.08-.18 2.319-.54 3.398-.36 1.08-.88 1.599-1.42 2.498-1.059 1.78-.359 3.218-.18 5.357.36 2.499.36 3.918 2.14 5.877 1.599 1.599 2.838 3.737 2.998 6.056-.52-.7-.7-1.959-1.4-2.838-.539-.9-1.778-1.8-2.678-2.319-2.818-2.139-2.818-4.117-2.998-7.675 0-1.24-.72-1.96-.9-3.218-.18-1.42-.18-.52.9-1.24 1.759-.9 2.998-3.577 3.718-5.536zm1.958-74.435c1.24.2 2.14 1.3 3.358 1.48 1.42.18 2.479.18 3.718.539 2.479.74 4.957 1.839 7.236 2.938-2.459.72-5.117-1.1-7.236-1.839-1.06-.54-2.119-.36-3.358-.54-1.579-.18-2.119-.919-3.358-1.659zm39.656 46.592c2.859-2.299 6.077-4.617 8.036.18 1.419 3.917 2.138 7.635 4.097 11.373 4.277 8.155 7.655 14.551 15.85 19.328-6.935-.52-14.79-12.772-18.169-17.909-2.318-3.378-1.958-6.216-3.038-9.594-1.06-3.018-2.498-2.299-5.336-2.119z" fill="#fce2d7" fill-rule="evenodd"/><path d="M74.575 268.377c-1.42-4.257-12.113-3.897-15.85-3.717 5.176 1.059 8.914 2.478 13.171 5.676 2.499 1.939 9.794 6.017 10.494 7.775z" fill="#fce2d7" fill-rule="evenodd"/><path d="M50.93 270.436s-9.795 30.821-7.296 65.56c2.498 34.92 11.932 41.335 15.65 46.852 0 0-11.913-19.588-12.272-47.731-.36-27.963 3.917-64.68 3.917-64.68zm1.598-4.956c-1.06-6.217 6.196-4.978 9.714-3.559-2.638-1.239-6.356-1.239-7.235-4.077-.7-2.319.54-5.517 3.178-5.517-6.536.72-4.577-11.213-4.418-15.65.18-4.278-.16-8.355 0-12.633.18-3.738 1.06-7.835.9-11.573-2.659 9.075-4.258 17.97-3.718 27.224.18 3.737.18 7.475.36 11.393 0 2.119.34 3.738.88 5.856.34 1.26 1.059 6.236.34 5.877zm7.596 122.745c-.88-1.78-2.14-3.898-3.898-4.977-5.337 6.916 1.42 18.628 6.016 23.585-2.998-3.178-7.435-15.77-2.658-18.968zm2.118 24.285c0 8.195-3.897 16.23-4.617 24.425-.72 10.334-.9 20.308-.9 30.642 0 12.112 6.757 23.325 5.517 35.458-.18 2.119.18 12.453 3.018 11.753-3.378-6.596 1.42-11.593 2.14-17.83-.72-.519-1.42-1.418-1.96-1.778 1.78 0 3.558 1.08 5.517 1.439 2.838.52 4.617-.72 7.276-.9-4.258 0-9.774-.36-12.613-3.377-4.077-4.458-3.558-13.732-3.558-19.429-.18-9.074-2.298-17.989-1.779-27.263.36-9.434-.34-19.768 1.96-28.863zm1.519 107.335c-2.838-1.08-4.997 4.277-6.236 5.916-1.759 2.679-4.637 4.638-6.956 6.756-2.118 1.96-3.917 3.598-6.436 4.837-2.478 1.44-5.876 1.08-8.035 3.198 2.519-.52 4.677-.52 6.796 1.24 0-1.4.36-1.4 1.44-2.12 1.598-.719 2.678-1.438 3.917-2.518 1.439-1.039 2.838-1.958 3.917-3.358.72-1.079 1.28-2.158 2.16-3.238.879-1.239 2.118-2.118 3.397-3.038 1.04-.88 1.759-1.759 2.479-3.038 1.079-1.599 1.958-3.558 3.557-4.997z" fill="#fff" fill-rule="evenodd"/><path d="M43.294 554.824c0 2.158 2.518 3.757 4.277 4.117 1.76.52 3.918-.36 5.317-1.599 1.08-1.08 1.959-2.518 2.838-3.598 1.08-1.239 1.959-1.599 3.198-2.318 1.24-.88 1.8-2.679 2.679-3.718.72-1.08 1.599-2.159 2.638-2.718-2.279.56-3.878 3.238-5.477 4.677-.72.88-1.799 1.24-2.678 1.759-.72.56-1.04 1.439-1.599 2.158-1.24 1.96-2.838 3.918-5.477 4.118-2.158.36-4.637-.56-5.516-2.518 0-.16-.2-.16-.2-.36z" fill="#fce2d7" fill-rule="evenodd"/><path d="M54.727 553.425c.76.52.56-3.718.4-4.278.52 1.28 2.358 2.319 3.597 1.44-.72.519-1.439 1.239-2.158 1.438zm-13.432.919c0 .56.32 1.24.16 1.759-.88 0-1.919-.16-2.599-.68-1.039-.52-1.399-1.599-1.399-2.838.36.72.88 1.24 1.4 1.759.879.56 1.559.36 2.438.36zm-5.037-2.798c-.32.36-.32 1.399-.32 1.919-.56-.16-1.279-.84-1.439-1.4-.2-.32-.56-.84-.56-1.199 0-.36.36-.72.36-1.08.36.2.36 1.08.56 1.44.36.32.72 1.04 1.24 1.04zm-2.958-2.958c-.68 0-.88-1.76-.88-2.32.36.56.52 1.44 1.04 1.8 0 .2 0 .36-.16.52zm8.954-4.318c0 .88-.88 1.919-1.199 2.479-.56.68-1.439 1.359-2.318 1.359.879 0 1.599-1.2 1.958-1.919.36-.32.52-.68.68-1.04.2-.32.56-.52.72-.879zm-1.998-2.119c-.36.88-1.44 1.4-2.16 1.96-.359.16-.719.519-1.238.719-.36 0-.72.32-.92.32 1.28-1.04 2.878-1.76 3.958-3.198zm7.035 4.478a3.472 3.472 0 0 1-3.198 2.118c.56-.16.92-.68 1.44-1.039.52-.52 1.239-.88 1.758-1.44z" fill="#fce2d7" fill-rule="evenodd"/><path d="M68.399 514.588c1.439.36 3.238-.52 4.837-.18 1.259.36 2.158 1.24 3.577 1.6 1.44.359 2.879-.52 4.478-.18 1.259.539 2.698 1.598 3.578 2.298-1.42-2.818-4.278-3.178-6.976-3.538-1.6-.18-3.038-.88-4.477-1.06-1.96-.359-3.039.72-4.478 1.78z" fill="#fff" fill-rule="evenodd"/><path d="M93.024 500.137c1.079.56 1.958 1.28 3.238 1.799 1.039.52 2.638.88 3.717 1.759 1.44 1.08 1.08 3.757 1.28 5.356.32 3.918-1.08 7.276-4.318 9.595-1.959 1.399-2.678 2.678-2.478 5.157.16 1.958 1.239 3.917 1.599 5.876.88 3.878-1.959 7.795-5.717 9.035-1.08.36-2.118.919-3.398 1.079-.52 0-1.239.16-1.759.16-.56-.16-.72-.52-1.279-.32 1.28-.2 3.038-.92 4.118-1.44 1.599-.719 2.678-1.598 3.557-2.837.72-1.24 1.64-2.679 1.8-4.078.2-1.799-.16-3.398-.36-5.157-.16-1.24-.16-2.159-.16-3.558.16-.56.52-1.799.16-2.318-.16-.36-.72-.36-1.08-.52-.68-.2-1.239-.56-1.759-1.08-1.439-.719-3.038-1.438-4.477-1.958 2.678-.16 4.637 1.759 6.956 2.478 1.24.56 1.599-.16 2.318-.88 1.08-1.238 2.519-2.118 3.238-3.557.68-1.24.88-2.478 1.24-3.918.36-1.399 1.439-2.998.52-4.437-.72-1.599-2.32-2.678-3.558-3.718-1.08-.92-2.16-1.439-3.558-1.799v-.16zm50.969-145.192c-.72 3.918-8.895-2.499-10.334-3.738-2.478-2.139-4.437-4.637-6.936-6.416-3.218-2.139-6.776-3.738-10.154-5.157-6.955-3.018-14.43-4.977-21.726-6.416-6.237-1.24-12.653-4.097-19.249-3.558 3.918 1.6 8.375 1.78 12.473 3.378 3.218 1.62 6.596 2.499 10.153 3.738 7.296 2.678 14.971 4.457 22.267 7.315 5.517 2.14 7.655 7.116 12.293 10.674 2.478 1.779 5.516 3.198 7.475 5.697 1.599 2.318 1.959 4.997 3.738 7.115 0-2.118 1.239-3.897 1.08-5.856zM67.46 160.902c-2.32 3.039-3.938 7.836-4.458 11.733-.18 1.78-.36 3.738-.36 5.517.18 1.6.7 2.838.88 4.257 0 2.659-3.019 7.276-4.638 9.415-1.239 1.419-2.318 2.658-4.457 2.658-2.678 0-5.177-1.759-7.695-1.599 1.619-.7 4.477-1.24 5.536-2.478 1.8-1.78 2.159-4.797 2.339-7.116 0-3.018.7-5.497 1.959-8.155 1.599-3.198 2.678-6.756 4.457-9.954 2.159-3.738 5.357-7.995 5.017-12.612-.18-1.78-.36-2.859 1.24-.9.899 1.08 1.438 3.198 1.598 4.617zm-18.57 51.729c-1.599 6.076-2.498 41.015-17.43 30.861 1.62 1.42 3.379 2.679 4.818 3.918.88.72 1.599 1.08 2.838.9 2.659-.54 4.797-4.098 6.396-6.077 2.14-3.018 2.659-5.157 2.839-8.735 0-3.377 1.419-7.475.18-10.693z" fill="#fce2d7" fill-rule="evenodd"/><path d="M93.463 299.459c-.54 1.439-.88 4.277 1.4 4.277-1.94.52-5.117-.9-2.819-3.018zm-13.991 26.963h-.72c1.08.9 2.859.9 4.278 1.26 1.958.699 3.737 1.598 5.876 1.958 3.198.54 6.236 1.42 9.434 2.139 4.638 1.06 8.895 2.319 13.172 4.437 6.936 3.398 16.03 3.398 21.887 8.015-2.119-1.779-3.738-3.557-6.216-4.797-2.858-1.259-5.517-2.138-8.555-2.858-5.157-1.06-9.954-3.198-14.95-4.977-4.458-1.599-8.895-2.498-13.533-3.558-2.138-.36-4.617-.36-6.756-.9-1.599-.36-3.377-.899-4.997-.899zm-7.556 67.739c1.08-3.158 1.6-4.577 4.458-6.876 1.239-1.04 3.018-2.278 4.617-2.818 1.42-.52 3.558-1.06 5.157-1.06 1.599.18 3.718 1.6 4.957 1.42-2.119.18-4.438-.52-6.736 0-1.6.36-3.198 1.06-4.617 1.939-2.499 1.239-4.458 3.178-3.198 6.176.52 1.579 3.717 4.937.88 5.097-1.6 0-4.438-2.279-5.518-3.518zm70.658-91.744c1.918 5.157.34 9.794-.18 14.77-.18 1.94-.36 4.958.7 6.737 1.219 1.959 3.677 2.138 5.416 3.198-2.099-1.24-3.838-2.659-4.717-5.137-.88-2.319 0-4.637.36-6.936.52-3.558 1.559-8.895-1.06-11.733zm7.755 9.993c1.08 3.578-1.1 21.987 7.375 16.45-3.597.36-3.957-3.937-4.677-6.435-1.08-3.218-2.158-6.437-1.979-9.834z" fill="#fff" fill-rule="evenodd"/><path d="M169.058 305.615c-.18 2.138-2.659 3.038-4.058 4.277-1.42 1.6-.54 2.858-.54 4.977.18 3.738-.34 7.835-1.239 11.213 2.479-2.118 2.119-7.295 2.479-10.133.18-1.78.18-3.019.879-4.638.7-1.779 1.939-3.018 2.638-4.617zm-25.185-4.358c.9 2.879 11.593 2.16 14.271 1.62 3.558-.54 7.116-1.44 10.674-1.98-2.479 1.08-4.618 2.699-7.296 3.598-2.498.9-5.177 1.6-7.835 1.44-3.218 0-7.316-1.08-9.095-4.138z" fill="#fce2d7" fill-rule="evenodd"/><path d="M66.4 246.33c1.08.54 2.678 0 4.097.54 1.24.52 2.499 1.78 3.198 2.659 2.139 2.678 2.499 6.416 3.019 9.614 1.599 8.175 6.416 13.872 12.452 19.028 11.373 9.794 25.065 13.532 39.116 17.09 2.479.52 5.337.52 7.276.52-9.235-2.839-18.31-5.497-27.184-9.774-4.097-1.96-7.655-4.977-11.573-7.116-4.257-2.499-7.455-4.797-10.653-8.535-4.797-5.696-7.835-13.352-10.134-20.108-.9-2.318-.54-4.817-3.018-6.056-1.44-.54-4.637-.54-6.057 0zm31.98-35.378s12.993 8.455 20.468 9.175c7.455.899 11.373 1.978 19.548.36 8.355-1.62 17.07-1.98 17.79-1.62.879.18-12.813 0-19.569 0-6.756 0-12.432 3.598-38.237-7.915z" fill="#fff" fill-rule="evenodd"/><path d="M130.201 201.078c4.297 2.119 10.194.18 14.311-1.959 2.319-1.239 4.817-3.178 6.077-5.836 1.599-2.838.54-6.576 1.439-9.594-2.698 4.977-3.058 11.013-8.415 14.191-3.398 2.139-8.935 2.139-12.692 3.198zM64.72 544.43c2.16.88 6.597-4.957 7.836-6.396 1.799-1.959 3.038-3.038 5.717-2.838 3.717.16 7.115 3.038 10.993 3.358-1.6.72-3.358 2.158-5.317 2.518-2.119.36-4.437.36-6.596.36-4.237 0-8.515 1.399-12.272 3.198zm22.707-27.343c1.26.36 2.139 1.079 3.738 1.079 1.579.16 2.998-.36 4.237-1.44 1.24-.699 2.319-2.138 3.198-3.377.7-1.08 1.06-2.319 1.6-3.218.34 3.218-2.66 6.596-4.958 8.735-.9.72-1.419 1.419-2.658.899-.9-.54-1.779-1.44-2.838-1.599zM245.93 183.529c-1.418 0-3.737.54-4.276-.72-1.6.18-2.859 2.499-3.918 3.578-1.6 1.959-3.218 3.218-5.177 4.817-3.738 3.198-7.116 4.997-11.573 7.136-4.457 2.138-8.395 3.378-13.372 3.917-2.318.18-4.997 1.08-7.315 1.42-2.319.54-5.357.36-7.496 1.259 2.679 1.06 8.575 0 11.773-.18 5.537-.54 11.233-1.779 16.75-3.038 5.896-1.42 11.953-4.098 16.41-8.375 1.24-1.42 3.198-5.177 5.517-4.817 1.439.18 4.457 3.218 5.896 4.277 1.779 1.26 3.198 2.679 4.977 3.918-2.139-2.139-3.378-4.977-4.977-7.476-1.26-1.799-3.038-3.218-3.918-4.997z" fill="#fce2d7" fill-rule="evenodd"/><path d="M160.663 259.323c3.378 1.08 4.617 4.097 5.137 7.295.7 2.659.36 5.497 0 8.355-.18 2.479.54 6.037-.36 8.335 0-2.478-.16-5.137-.7-7.635-.18-2.299 0-5.497-1.24-7.456-.879-1.599-2.478-2.658-4.237-2.658-1.958 0-2.838.52-4.437-.9 3.538-.36 4.957-1.059 4.957-4.976z" fill="#fff" fill-rule="evenodd"/><path d="M215.95 297.78c-2.48-1.96-5.677-2.839-8.895-3.019-2.839-.18-6.397-.9-8.895.18 4.637-1.08 9.254-2.858 13.891-4.277 5.517-1.78 10.494-4.637 14.572-8.555-2.299 1.44-3.898 3.578-6.037 5.177-1.419 1.24-3.018 2.139-4.097 3.558-1.24 1.959-1.42 3.917-1.42 6.056zm-20.269 1.239c-3.378-1.08-8.694 0-12.252.36-2.679.34-7.296.879-9.255 3.018-5.516 5.856 1.96 15.63-1.958 21.846 3.557-6.576-1.24-17.409 6.935-20.967 4.977-2.298 11.553-.52 16.01-3.378z" fill="#fce2d7" fill-rule="evenodd"/><path d="M178.012 345.75c-2.658 1.98-5.337 4.118-7.995 6.077-1.08.9-2.499 1.779-3.918 2.498-1.779.9-1.958 1.42-3.218-.36-2.138-2.678-2.838-7.135-3.917-10.533-.7-2.838-2.139-7.136-.18-9.814 1.259.54 1.619-.18 2.678-.7.54-.36.18-.72.9-.9.34-.18 1.419 0 1.779 0 2.658-.359 4.437-2.138 5.876-3.937-1.26 2.679-2.858 4.657-4.997 6.436-1.24 1.06-2.139 1.6-2.479 3.398-.18 1.78.7 3.558 1.06 5.337.54 3.218.88 6.976 4.797 6.436 3.398-.36 5.876-3.038 8.915-3.758z" fill="#fff" fill-rule="evenodd"/><path d="M169.937 351.287c-.36 1.26-2.678 4.637 1.26 4.977 2.318.18 5.176-2.299 7.315-3.378-2.319 1.44-4.817 3.038-6.256 5.157-1.42 2.319-1.6 4.997-1.6 7.655-.36 5.697.36 11.393 1.78 16.89 1.079 4.457 1.798 10.854 5.716 13.892 1.62 1.419 3.398 1.419 5.357.7 2.498-.7 5.716-1.78 7.855-3.199-2.678 2.659-6.776 6.216-11.073 4.977-3.378-1.06-6.057-4.257-7.496-7.635-2.138-5.337-3.038-11.213-4.457-16.73-1.44-5.157-2.499-10.494-3.938-15.47-.54-2.14-1.419-4.098-2.138-6.237-.54-2.298-.72-5.337-1.44-7.295z" fill="#fff" fill-rule="evenodd"/><path d="M171.356 379.75c1.42 3.758 2.858 9.834 6.236 12.512 3.198 2.499 8.555.72 11.753-.54 4.637-1.958 8.735-2.138 12.812.72-3.377-.72-7.835 1.42-10.673 3.038-2.858 1.42-5.337 3.558-8.555 4.098-10.673 2.139-9.254-15.011-12.113-20.728zm15.97 21.647c-.72 1.06-7.155 4.017-4.277 5.916 1.24 1.04 4.637.52 6.236.52 1.08-.16 2.339-.52 3.398-.34.9 0 2.159.34 2.679-.18-1.06 0-2.499-.52-3.738-.7-1.26-.16-2.679-.16-3.938-.52-2.858-.859-1.599-2.777-.36-4.516zm24.186 10.753c-1.06.34-2.838-.72-4.078-.9-1.419-.18-2.838-.539-4.257-.719-2.659-.18-5.677.36-8.515.72-3.538.36-8.335-.72-10.294 2.678-2.838 4.977-1.759 12.293-2.118 17.81-.18 5.356-.54 11.412.7 16.75 1.078-2.84.539-6.057.899-8.895.52-4.098.879-8.195 1.059-12.313.18-2.299-.18-4.977.54-7.116.7-1.958 1.938-2.318 3.717-3.038 3.738-1.419 8.335-2.318 12.253-2.658 1.759-.18 7.615.16 8.515-1.44z" fill="#fff" fill-rule="evenodd"/><path d="M182.83 430.719c-.18 4.637-.88 9.454-1.24 14.071-.54 5.717 1.599 12.113 3.198 17.65.88 2.838 1.759 6.056 2.998 8.714 1.24 2.499 3.198 4.997 4.797 7.316a230.441 230.441 0 0 0 10.274 13.352c1.24 1.44 2.658 2.858 3.898 3.918 1.06.72 2.118 2.138 3.178 2.678 2.118 1.24 5.137-.72 7.255-1.06-2.298-.36-4.777-.18-6.716-1.439-3.557-2.318-6.036-6.755-8.155-10.333-2.298-3.918-5.137-7.476-7.255-11.393-1.959-3.918-4.438-7.656-6.376-11.393-3.019-5.897-5.137-13.552-4.438-19.968.36-3.558.54-6.936.36-10.674a23.202 23.202 0 0 1 0-4.997c0-.88.52-3.918 0-4.457 0-.18-.18-.18-.18-.36-.36.9-.54 3.218-.72 3.398z" fill="#fff" fill-rule="evenodd"/><path d="M241.174 399.718c-2.319 1.08-4.997 1.959-7.496 3.198-2.498 1.24-5.356 1.759-8.035 2.478-5.197 1.58-9.654.7-14.85-.18 4.836 2.819 10.373 1.42 15.73 1.42 2.858 0 5.716 0 8.235-1.42 1.959-1.239 4.097-3.018 6.076-4.417zm7.116 119.507c-3.179 0-5.997-1.419-8.995-.7-1.42.16-2.658 1.04-4.078 1.22-2.118.18-2.818-.18-4.597 1.58 1.24-.52 2.659-1.22 4.078-1.22 1.419 0 2.478.7 4.237.34 1.42-.16 2.479-.7 4.058-.52 1.779.18 3.538.88 4.957-.7zm-39.097-132c5.717-.36 11.613-3.857 17.87-3.857 4.457 0 8.035 2.098 11.952 3.857-3.558-4.737-9.454-7.015-14.81-5.596-4.638 1.219-10.714 2.438-14.292 5.936zm30.862-229.361c-1.06 2.319-1.6 5.517-1.24 7.995.18 1.96.9 6.756 1.78 7.996.699-1.76-.54-9.595 3.537-7.996 0 .18 0 .18 0 0-.52-2.118-2.478-6.036-4.077-7.455zm19.428-14.471c-2.479 1.6-5.677 2.139-8.535 2.499-1.24.18-3.378-.36-4.258 0-1.958.36-1.958 1.958-2.678 3.378-.54 1.419-1.419 2.838-1.959 4.257-.72 1.779 0 3.198.9 4.797 1.779 3.198 3.378 6.756 5.337 9.954.18.18.34.54.52.7-.88-3.358-1.96-6.556-2.84-9.755-.539-1.439-1.418-4.457-.899-5.876 1.26-3.718 7.656 0 9.615 1.42-1.42-1.24-6.756-3.019-4.977-5.497 1.059-1.42 3.737-1.24 5.157-1.78 1.599-.719 2.838-2.138 4.097-3.377zm-16.15-12.553c.72 2.14 1.619 4.298 1.798 6.597 0 2.138-1.079 4.637-.54 6.596 1.98-.7 2.879-1.96 5.198-1.78 2.158 0 3.777.18 5.376-1.418-1.958.54-5.916.72-7.515-.54-1.979-1.6-2.159-6.056-3.418-8.375z" fill="#fce2d7" fill-rule="evenodd"/><path d="M269.956 196.8c-2.298 2.32-10.333 2.68-13.192 1.08 3.039 2.479 4.817 5.677 4.997 9.574.18 2.479.18 5.137.36 7.796.18 3.018 1.08 6.036.9 9.214 1.419-6.376.88-12.752.34-19.148-.16-1.6-.16-3.019 1.079-4.258 1.06-1.06 3.737-1.24 3.917-2.478zm-6.316 39.357c.36 1.619.36 3.218 1.26 4.817.52 1.26 1.598 2.159 2.658 3.218 1.779 1.799 4.617 4.118 5.696 6.256.7 2.139.52 3.738 1.78 5.537 1.418 1.779 2.478 2.838 2.478 5.337.54-5.157 6.036-6.057 9.234-8.735-2.478.72-9.054 5.357-11.553 1.599-1.06-1.779.72-5.357 1.959-6.776 1.26-1.26 3.558-2.139 4.617-3.578-3.718 1.979-7.995 7.156-11.893 1.979-1.259-1.619-2.318-3.578-3.378-5.357-.72-1.259-2.498-3.038-2.318-4.477z" fill="#fff" fill-rule="evenodd"/><path d="M263.02 219.067c.7 4.997.16 9.994.34 14.991 0 1.62.18 3.398.72 4.997.7 1.959 2.458 2.858 4.038 4.278-1.94-2.32-2.459-6.237-2.819-9.095-.34-3.918-.18-8.035-.34-11.953-.54-6.436-.36-12.852-2.838-18.928zm14.152 45.533c-3.538 2.678-.7 9.274 0 12.652.9 4.457 1.42 8.895 1.599 13.532 1.06-.54 2.119.36 3.178.52-1.22-1.24-1.939-4.978-2.298-6.936-.34-2.499-.34-4.977-.88-7.476-.36-2.498-1.24-4.637-1.599-6.936-.34-1.779-.16-3.557-.16-5.356zm14.831 16.55c.36 1.079.18 2.138.52 3.218.36 1.059.9 1.759 1.419 2.658 1.06 1.779.36 3.198.18 5.157-.18 2.658-.36 4.077-2.119 5.856-1.599 1.6-2.838 3.918-3.018 6.217.54-.7.9-2.12 1.419-2.839.72-.88 1.779-1.779 2.658-2.478 2.839-2.139 2.839-4.098 3.019-7.656.16-1.239.7-1.938.879-3.018.34-1.419.18-.7-.88-1.239-1.778-.9-3.018-3.738-3.717-5.697zm-2.059-74.355c-1.06 0-2.118 1.079-3.358 1.259-1.239.36-2.478.18-3.717.7-2.299.72-4.937 1.619-7.076 2.858 2.318.7 4.957-1.08 7.076-1.96 1.079-.359 2.318-.179 3.378-.359 1.758-.18 2.298-.88 3.357-1.779z" fill="#fff" fill-rule="evenodd"/><path d="M250.448 253.067c-2.998-2.299-6.196-4.458-8.135.36-1.419 3.757-2.139 7.495-4.077 11.412-4.258 8.216-7.636 14.632-15.61 19.429 6.735-.52 14.55-12.833 18.088-18.17 2.119-3.217 1.76-6.076 3.018-9.633.88-2.859 2.299-2.319 5.137-2.14z" fill="#fce2d7" fill-rule="evenodd"/><path d="M237.816 268.677c1.419-4.077 12.093-3.718 15.83-3.538-4.977.88-8.894 2.299-12.992 5.497-2.498 1.939-9.974 6.196-10.513 7.955z" fill="#fce2d7" fill-rule="evenodd"/><path d="M269.317 555.343c0 2.12-2.479 3.758-4.278 4.118-1.958.32-4.077-.36-5.316-1.799-1.08-1.08-2.16-2.319-3.039-3.598-1.079-1.24-1.958-1.399-3.198-2.318-1.239-.88-1.599-2.479-2.518-3.718-.68-.92-1.759-1.999-2.678-2.718 2.158.72 3.757 3.238 5.356 4.837.88.72 1.8 1.079 2.679 1.798.72.52 1.239 1.24 1.599 1.96 1.439 1.958 3.038 3.917 5.516 4.277 2.159.2 4.638-.52 5.557-2.679.16 0 .16-.16.16-.16z" fill="#fff" fill-rule="evenodd"/><path d="M257.644 553.744c-.72.52-.52-3.557-.16-4.277-.56 1.44-2.359 2.518-3.838 1.599.76.56 1.48 1.08 2.399 1.44zm13.752 1.04c0 .72-.4 1.239-.4 1.959.92 0 1.999-.36 2.918-.72.88-.72 1.24-1.599 1.24-2.878-.36.72-.72 1.279-1.44 1.639-.88.72-1.439.36-2.518.52zm4.717-2.679c.36.2.56 1.32.56 1.84.519-.16 1.079-.92 1.438-1.44.16-.2.32-.76.32-1.12 0-.359-.16-.719-.32-1.118-.2.2-.36 1.119-.56 1.479-.16.36-.719.919-1.079.919zm3.277-2.958c.72 0 .72-1.839.72-2.398-.36.56-.36 1.479-1.12 1.679 0 .36.2.56.2.56z" fill="#fff" fill-rule="evenodd"/><path d="M270.316 544.75c-.2.76.68 1.839 1.24 2.558.32.72 1.199 1.44 2.078 1.44-.88-.16-1.399-1.44-1.919-2.16a3.39 3.39 0 0 0-.72-1.079c-.16-.36-.519-.56-.679-.76zm1.959-2.319c.36 1.08 1.4 1.6 2.079 2.159.52.16.88.36 1.239.52.32.2.68.36 1 .52-1.36-1.24-2.919-1.76-3.958-3.199zm-6.915 4.518c.519 1.279 1.718 2.358 2.917 2.358-.52-.16-.84-.88-1.359-1.28-.52-.359-1.239-.719-1.759-1.278z" fill="#fce2d7" fill-rule="evenodd"/><path d="M219.387 500.457c-.92.72-1.959 1.279-3.038 1.799-1.24.52-2.678 1.079-3.758 1.759-1.439 1.079-1.24 3.917-1.439 5.516-.36 3.918 1.08 7.316 4.477 9.594 1.96 1.44 2.519 2.679 2.319 5.157-.16 1.96-1.08 3.918-1.6 5.717-.879 3.877 1.96 7.995 5.717 9.034 1.24.36 2.319 1.08 3.558 1.08.52 0 1.24.16 1.8.16.359 0 .719-.32 1.039-.32-1.24 0-2.839-.92-4.078-1.28-1.44-.68-2.518-1.599-3.398-2.998-.88-1.239-1.799-2.478-1.799-4.077-.16-1.6 0-3.398.2-4.997.16-1.24.36-2.319.16-3.558 0-.72-.36-1.759 0-2.319.2-.36.72-.36 1.08-.52.519-.36 1.079-.719 1.598-1.079 1.6-.88 3.038-1.599 4.638-2.118-2.679 0-4.638 1.958-7.116 2.678-1.08.36-1.6-.2-2.319-1.08-1.08-1.079-2.518-2.118-3.238-3.357-.72-1.28-.88-2.679-1.24-3.918-.359-1.439-1.238-3.038-.519-4.637.72-1.4 2.479-2.678 3.718-3.558 1.08-.88 2.159-1.599 3.398-1.759v-.36z" fill="#fff" fill-rule="evenodd"/><path d="M245.071 161.382c2.479 3.038 3.898 7.656 4.418 11.733.18 1.779.36 3.558.36 5.517 0 1.419-.7 2.658-.7 4.077-.18 2.839 2.998 7.296 4.417 9.415 1.24 1.599 2.499 2.838 4.438 2.838 2.658 0 5.316-1.939 7.795-1.76-1.58-.539-4.417-1.078-5.657-2.318-1.779-1.779-2.138-4.977-2.138-7.115-.18-3.019-.88-5.497-2.12-8.155-1.598-3.198-2.478-6.756-4.256-9.954-2.32-3.918-5.497-8.175-5.137-12.793.16-1.599.34-2.678-1.08-.9-1.06 1.26-1.599 3.199-1.599 4.798z" fill="#fce2d7" fill-rule="evenodd"/><path d="M263.66 212.95c1.44 6.077 2.319 41.176 17.33 31.022a441.934 441.934 0 0 1-4.817 3.738c-.9.72-1.42 1.26-2.679 1.08-2.678-.54-4.997-4.278-6.616-6.237-2.138-2.858-2.678-4.997-2.678-8.735-.18-3.218-1.44-7.495-.18-10.693zm-16.01 332c-2.119.68-6.356-5.157-7.595-6.396-1.8-1.96-3.199-3.238-5.877-3.039-3.718.36-6.916 3.199-10.833 3.358 1.439.92 3.398 2.16 5.157 2.519 2.118.52 4.437.52 6.556.52 4.277 0 8.714 1.439 12.432 3.198zm-22.307-27.564c-1.439.36-2.338 1.08-3.957 1.26-1.44 0-3.058-.54-4.318-1.42-1.079-.899-2.338-2.318-3.238-3.377-.72-1.08-.9-2.319-1.639-3.398-.36 3.398 2.719 6.596 5.057 8.714.9.9 1.62 1.6 2.699.9.9-.36 1.978-1.42 3.058-1.42z" fill="#fff" fill-rule="evenodd"/><path d="M237.956 154.027c.18 1.619-2.319 5.536-2.838 7.675-.72 2.139-.54 4.637 0 6.776 1.059 3.938 3.897 8.395 1.419 12.492-1.08 1.96-3.378 3.038-4.817 4.458-1.6 1.619-2.839 3.577-4.258 5.176-3.378 3.578-7.835 6.596-12.992 6.437-.36 0-.9.16-1.44.16 2.32-1.42 4.998-1.78 7.316-3.558 2.12-1.42 3.898-3.218 5.517-5.177 1.24-1.6 2.299-3.378 3.558-4.817 1.24-1.24 3.018-2.319 3.738-4.098 1.959-4.457-1.44-9.094-.9-13.731.36-4.478 3.558-7.496 5.697-11.074z" fill="#fce2d7" fill-rule="evenodd"/><path d="M243.173 129.062c-.34-.18-1.56-2.858-2.599-1.08-.52.9.52 2.679.7 3.738-1.22-.88-2.099-3.917-1.56-5.337 1.2-2.338 2.26.7 2.939 1.6zm16.35 13.771c.72-.7 2.318-2.118 1.419-3.358-.54-.7-1.78-.52-2.499-.18.54-.34 2.859-1.419 3.578-.879 1.939 1.06-1.259 3.718-2.139 4.417zm1.619 10.154c.88.56 2.138.56 1.959 2 0 1.438-1.24 1.798-2.499 1.618 3.558 1.26 5.677-3.618 1.959-3.618z" fill="#fff" fill-rule="evenodd"/><path d="M200.638 83.03s52.708 2.498 65.7 32.92c3.738 8.535 5.157 11.932 8.016 14.95 2.838 3.019 11.573 14.412 14.231 49.27 0 0-3.378-31.12-13.172-45.532-9.954-14.41-8.895-14.051-10.673-17.789-1.96-3.558-11.753-27.943-64.102-33.82zm89.946 105.776c2.698 2.498 5.197 6.416 2.338 9.614-1.619 1.599-2.518 3.018-3.777 4.977-1.6 2.118-4.657 1.779-7.356 1.779 1.62-.72 3.958-1.6 5.217-2.859 1.08-1.239 1.26-3.018 2.319-4.257 1.079-.9 2.338-1.24 2.698-2.658.54-1.62-.54-4.818-1.799-5.697zm3.997 16.15s8.995 16.21 8.096 22.446c-.72 6.057-.9 9.255.899 11.393 1.799 2.319 5.557 10.154-1.08 10.694-1.438.16-3.597-.54-5.396-1.8 0 0 6.296 1.62 7.196-1.238.72-2.839-1.08-6.756-4.498-5.517 0 0 2.159-1.06 1.44-3.738-.54-2.678-.54-8.734-.18-10.693.54-1.78.72-7.296-6.477-21.547zm7.116 48.37c1.08 0 2.139 0 3.198.54.18 3.378.72 7.296 1.08 10.854.36 3.737 1.419 7.475 1.778 11.393.34 4.097 0 7.475-1.778 11.213-.9 1.959-2.14 3.558-2.679 5.696-.52 1.6-.52 3.378-1.24 4.977-1.238 2.859-4.796 5.697-7.475 7.296.18-2.299 2.14-2.479 3.558-4.078 1.6-1.599 2.679-4.457 3.198-6.596.54-2.478.54-4.977 1.44-7.475.879-2.139 2.298-3.918 3.018-6.036 1.958-6.057-1.24-9.615-1.78-15.491-.18-3.198.88-10.494-1.958-12.293z" fill="#fce2d7" fill-rule="evenodd"/><path d="M287.706 282.269c.72 3.378 1.599 7.995.72 11.373-.72 2.139-4.978 7.815-7.836 6.216 3.558-1.419 5.696-3.358 6.596-7.275.7-2.839 1.599-6.037.7-8.875zm6.396-5.037c-.72-1.24-4.318 0-5.577.36-2.159.7-2.878 1.939-3.778 3.877 0-2.458 1.26-4.237 3.418-5.296.9-.36 1.8-.54 2.699-.36 1.08.18 1.799 1.06 2.698 1.06z" fill="#fff" fill-rule="evenodd"/><path d="M261.382 270.916s9.774 30.841 7.295 65.78c-2.498 34.759-11.933 41.355-15.67 46.872 0 0 12.112-19.768 12.292-47.752.36-28.162-3.917-64.9-3.917-64.9z" fill="#fce2d7" fill-rule="evenodd"/><path d="M259.823 266.279c1.079-6.416-6.257-5.157-9.854-3.738 2.698-1.24 6.456-1.06 7.355-4.098.7-2.318-.36-5.536-3.238-5.536 6.636.72 4.657-11.054 4.477-15.51-.18-4.278.18-8.556 0-12.853 0-3.738-1.06-7.835-.88-11.593 2.68 9.114 4.278 18.029 3.759 27.303-.18 3.918-.18 7.476-.36 11.413 0 2.14-.36 3.918-.9 5.877-.36 1.26-1.079 6.416-.36 5.896z" fill="#fff" fill-rule="evenodd"/><path d="M252.107 388.704c.88-1.599 2.119-3.917 3.898-4.817 5.317 6.776-1.42 18.689-6.036 23.666 3.018-3.198 7.455-16.01 2.678-19.028zm-2.119 24.366c0 8.195 3.898 16.21 4.618 24.565.72 10.154.88 20.307.88 30.441 0 12.293-6.737 23.326-5.498 35.599.18 1.959-.18 12.452-3.018 11.573 3.378-6.596-1.439-11.573-2.138-17.81.7-.52 1.419-1.239 1.958-1.778-1.778 0-3.557 1.259-5.516 1.619-2.839.52-4.617-.9-7.296-1.08 4.278.18 9.794-.36 12.633-3.378 4.077-4.457 3.557-13.711 3.737-19.408.16-9.074 2.119-17.969 1.78-27.044-.54-9.434.16-19.768-2.14-29.022zm-1.538 107.495c2.878-1.08 4.996 4.117 6.276 5.876 1.958 2.678 4.637 4.437 6.955 6.756 2.12 1.799 3.918 3.398 6.437 4.797 2.478 1.24 5.876.88 7.995 3.198-2.479-.68-4.638-.52-6.756 1.24 0-1.4-.36-1.6-1.44-2.12-1.598-.719-2.678-1.598-3.917-2.678-1.44-1.04-2.878-1.759-3.918-3.198-.72-1.04-1.279-2.319-2.158-3.358-.88-1.24-2.119-1.959-3.398-3.038-1.08-.72-1.76-1.759-2.479-2.838-1.08-1.8-1.959-3.758-3.598-4.997z" fill="#fce2d7" fill-rule="evenodd"/><path d="M243.812 515.048c-1.419.54-3.218-.34-4.817 0-1.26.18-2.159 1.24-3.418 1.599-1.599.36-3.038-.7-4.637-.18-1.26.36-2.518 1.42-3.598 2.299 1.44-2.819 4.298-3.358 6.996-3.718 1.599 0 3.038-.88 4.477-1.06 1.96-.18 3.038.72 4.478 1.78zm-24.885-214.95c.54 1.44.88 4.497-1.419 4.318 1.959.72 5.117-.72 2.838-2.879zm13.832 26.804c.18 0 .54 0 .72.18-1.08.72-2.859.72-4.098 1.259-2.139.7-3.918 1.599-6.056 1.959-3.198.34-6.237 1.419-9.435 2.119-4.637.899-8.894 2.318-13.172 4.277-6.935 3.558-16.03 3.558-21.906 8.175 2.138-1.939 3.737-3.558 6.236-4.797 2.858-1.42 5.696-2.139 8.735-2.838 4.977-1.26 9.774-3.378 14.77-5.157 4.438-1.44 8.895-2.499 13.532-3.398 2.299-.52 4.618-.52 6.756-.88 1.6-.36 3.378-.9 4.977-1.079zm7.535 67.858c-1.059-3.017-1.579-4.616-4.417-6.755-1.24-1.26-2.998-2.319-4.597-3.038-1.42-.54-3.538-1.08-5.137-.9-1.58.18-3.718 1.44-4.957 1.44 2.319 0 4.437-.72 6.736-.18 1.599.54 3.178 1.239 4.597 1.958 2.479 1.24 4.417 3.198 3.178 6.416-.52 1.42-3.718 4.977-.88 4.977 1.6 0 4.418-2.298 5.477-3.378zm-70.637-91.864c-1.919 5.157-.34 9.774.18 14.751.18 2.14.34 5.157-.7 6.756-1.219 1.94-3.677 2.299-5.436 3.358 2.119-1.419 3.857-2.658 4.737-5.137.88-2.318 0-4.617-.36-6.935-.52-3.718-1.559-8.875 1.06-11.713zm-7.675 10.394c-1.1 3.378 1.08 21.827-7.476 16.33 3.658.36 4.018-3.897 4.917-6.556.92-3.018 2.02-6.216 1.82-9.594z" fill="#fff" fill-rule="evenodd"/><path d="M245.811 246.99c-1.06.54-2.658-.18-4.078.54-1.239.34-2.318 1.599-3.198 2.658-2.138 2.659-2.318 6.217-3.018 9.595-1.599 8.015-6.416 13.711-12.452 18.868-11.193 9.774-25.065 13.692-39.116 17.07-2.479.54-5.337.54-7.296.7 9.434-2.839 18.509-5.497 27.203-9.775 4.098-1.959 7.656-4.977 11.553-7.295 4.278-2.299 7.476-4.618 10.674-8.535 4.797-5.697 7.835-13.152 10.134-20.088.9-2.139.54-4.817 3.018-5.876 1.44-.72 4.637-.54 6.056-.18z" fill="#fce2d7" fill-rule="evenodd"/><path d="M213.83 211.832s-12.952 8.115-20.407 9.014c-7.456.7-11.193 1.76-19.548.16-8.335-1.579-17.05-1.759-17.75-1.579-.9.36 12.793 0 19.529 0 6.755 0 12.432 3.518 38.176-7.595zm-31.66-10.094c-4.418 1.939-10.274.18-14.352-1.96-2.298-1.238-4.797-3.377-6.036-5.856-1.6-3.018-.52-6.576-1.42-9.594 2.66 4.797 3.019 11.014 8.336 14.212 3.378 1.958 8.874 1.958 12.592 3.198z" fill="#fff" fill-rule="evenodd"/><path d="M58.245 157.345c-3.198 1.419-6.596 4.977-10.514 3.737-3.758-1.239-3.758-8.894-7.136-8.714-1.978 0-7.155 5.876-8.035 7.655-1.799 3.018-3.578 8.515-3.937 11.893-.36 4.257.54 7.455 3.937 10.134 2.499 1.958 7.856 6.036 11.054 6.396 4.117.52 6.076-4.438 6.975-7.815.7-2.679 1.24-5.157 2.139-7.656.88-2.838 4.457-9.934 3.918-11.713z" fill="#faf4f2" fill-rule="evenodd"/><path d="M47.471 160.143c-3.558-7.136-1.959-9.994 4.458-13.912-1.6-2.318-4.628-5.176-6.596-7.495-2.669-2.858-3.918-2.319-6.237.71-5.706 7.675-7.135 16.95-7.315 26.573z" fill="#faf4f2" fill-rule="evenodd"/><path d="M45.392 139.555c.7-3.737 2.3-6.755 6.037-7.655 3.558-.88 6.396 2.319 8.894.36 2.659-2.139 4.078-8.895 6.217-11.753 3.378-4.797 10.473-10.134 12.792-15.65 1.939-4.638.52-9.275-4.977-8.735-6.396.9-11.553 6.236-15.81 10.693-4.278 4.258-7.816 8.355-9.775 13.872-2.138 5.357-2.838 12.472-5.876 17.09z" fill="#faf4f2" fill-rule="evenodd"/><path d="M64.301 123.405c1.759-.88 3.898-4.617 5.856-6.216 3.378-2.838 6.756-3.898 10.834-5.137 9.234-2.498 18.469-3.038 27.343-6.936 4.977-2.138 14.032-8.175 11.913-14.75-1.06-3.559-4.977-5.158-8.535-5.158-14.55-.18-28.582 4.797-40.675 11.733-5.857 3.378-8.875 8.875-12.792 14.392zm54.627-17.369c-3.558 2.498-7.116 5.157-10.853 7.655-4.098 2.479-8.915 3.558-12.833 6.216-4.817 3.198-11.573 9.794-14.251 15.131-3.398 7.296 2.139 14.591 3.738 21.527 1.419 6.396 1.779 12.453 2.138 18.849.54 6.776 2.499 10.154 9.435 10.333 4.997 0 9.814-2.138 14.61-.54 4.638 1.42 6.957 4.978 10.874 6.937 5.337 2.658 10.694.879 15.85-1.42 2.5-1.259 6.776-2.678 8.016-5.336 1.419-3.039.9-9.255.54-12.633-.9-10.853-2.32-21.527-3.558-32.2-1.08-9.794-2.499-20.288-7.316-29.183-3.198-5.876-9.794-9.794-16.75-5.696zM100.3 206.675c-.36-.16-.18-.52-.72-.7 1.958 3.018 9.974 5.697 13.352 6.936 4.437 1.599 8.874 2.858 13.491 3.218 3.738.34 8.355.34 11.913-.36 3.198-.72 8.175-4.277 7.835-8.195-.899-6.776-37.517 1.6-45.152-1.24z" fill="#faf4f2" fill-rule="evenodd"/><path d="M101.738 207.814c-5.516-4.277-15.65 1.779-10.134 8.355 7.116 8.195 16.73 11.753 26.864 15.15 10.694 3.379 21.887 12.093 20.468 24.566-1.24 11.393-14.771 14.231-24.206 14.231-5.876 0-12.812-1.779-18.508-3.198-5.337-1.419-7.656-4.797-10.134-9.614-3.558-6.576-7.656-16.21-15.31-18.509-3.02-1.08-9.255.36-11.214-1.439-2.499-2.478-2.678-11.913-2.678-15.31 0-9.615 2.138-20.288 9.254-27.244 1.959 1.26 5.357.72 7.835 1.44 4.457 1.238 8.735 3.737 12.812 5.876 2.319 1.059 4.997 2.478 7.476 3.198 1.779.36 4.457-.18 5.337 1.059z" fill="#faf4f2" fill-rule="evenodd"/><path d="M118.508 265.32c-4.097 1.238-7.655 4.097-7.295 8.554.16 5.537 6.935 6.956 7.635 11.593-3.378-.16-7.815-4.637-10.853-6.236-3.378-1.78-7.476-3.738-10.674-6.236-7.835-6.077-16.21-18.39-12.293-28.383zm-28.702 34.758c1.938-9.294-8.175-15.55-14.232-20.727-3.558-3.218-10.653-10.014-15.63-10.374-8.015-.54-4.797 14.291-4.797 18.949.34 11.433-.9 29.122 13.491 32.5 11.733 2.858 16.89-13.392 19.908-21.787z" fill="#faf4f2" fill-rule="evenodd"/><path d="M69.118 316.808c11.193 9.075 27.364 5.517 40.336 8.555 5.157 1.24 8.874 4.437 13.671 6.236 5.157 1.959 8.355 6.056 13.152 8.355 1.78.9 1.96 1.959 3.558.54 3.718-3.198-2.318-5.877-4.257-7.476-2.858-2.318 0-3.917-1.44-7.475-1.239-2.859-1.418-7.136-3.197-9.814-2.479-3.918-11.893-7.836-16.69-9.075-7.116-1.959-11.553 1.24-17.95 3.558-4.617 1.42-8.694.54-8.694-5.157 0-5.357 4.977-7.136 0-11.593zm16.95 18.809c-5.337-1.6-13.152-3.218-18.849-2.859-8.195.36-12.652 8.935-12.112 16.43.54 6.776 2.858 17.31 8.015 22.127 5.696 5.537 12.092 4.637 19.388 3.398 8.915-1.62 15.67 0 24.025 2.858 6.596 2.319 12.833 6.596 19.948 7.316 3.378.36 6.936.52 8.715-2.499 2.838-4.477 1.779-9.294-.72-13.572-4.077-7.135-9.774-13.032-17.07-16.95-6.775-3.937-13.171-8.574-20.467-11.252-3.737-1.24-7.295-2.859-10.873-4.278zm9.094 52.908c-3.558 1.419-8.894-2.32-12.272.36-4.817 3.897.7 8.154 4.257 9.753 3.918 1.6 12.992 3.718 16.37-.36 3.898-4.956-8.714-10.113-10.493-8.694zm22.607 30.341c-5.517-1.779-12.113-.7-17.81-1.24-5.336-.359-11.033-.899-16.19-2.498-3.378-1.059-7.115-2.318-9.614-4.797-2.299-2.138-3.558-5.336-6.216-6.776-3.038 4.997 1.779 13.352 1.419 19.229-.54 8.375-2.499 16.73-3.018 25.105-.54 9.594-3.218 26.683 5.696 33.46 5.517 4.257 13.332 5.676 20.108 5.516 9.954-.36 13.512-12.113 16.71-19.948 3.578-8.175 7.136-16.73 9.614-25.265.9-3.558 1.42-7.115 1.26-10.853-.36-3.918-1.96-7.476-2.32-11.213zm-36.819 83.17c-3.357-1.26-9.573-1.26-10.813 3.418-1.419 5.556 7.276 2.498 10.814 3.577 3.378.9 13.112 6.457 13.112-1.079 0-4.837-11.333-6.816-14.171-5.197zm5.518 22.326c1.599.68 1.599 3.918.36 5.317-1.76 1.959-4.078.72-6.197.36-5.357-.52-8.555-.36-12.632 3.238-4.278 3.718-10.674 13.871-16.39 7.995 1.799-2.838 3.917-4.637 6.236-7.116 2.678-3.038 4.277-7.115 7.316-9.994 2.478-2.478 2.838-2.118 6.556-1.759 4.277.36 10.153-1.639 14.071-.36zM34.16 179.531c0 3.038 2.678 5.877 2.838 9.454.18 3.199-1.42 5.157-2.659 7.996-3.018-.88-5.696-3.198-8.535-3.918-.9 4.098 11.733 17.09 16.35 14.97 1.78-.899 1.62-3.397.9-4.456-1.42-2.859-3.018-1.24-3.558-5.337-.54-4.817 1.42-9.095 3.018-13.712zm-13.552 28.943c2.138 3.038 6.616 5.716 10.373 6.256 2.679.36 7.136-1.6 9.634-.18 4.997 3.038.54 14.651-1.779 18.209-3.577 5.716-8.394 1.799-13.411 4.297-3.918 2.139-6.596 8.915-11.793 7.316.54-2.858 3.578-5.537 4.837-8.395 1.419-3.738.54-5.357-.36-8.755-1.44-5.696.36-11.773 1.779-17.13zm4.797 48.15c-2.319-.36-6.417-2.498-8.735-1.778-3.758 1.059-3.938 5.316-4.098 8.514-.36 5.157-4.297 13.852-.36 18.11 4.458-2.659 5.517-19.529 13.013-10.294 3.038 3.378 4.997 2.498 5.177-2.479.34-5.676-2.499-7.635-5.357-11.713zm227.202-99.279c3.198 1.419 6.576 4.977 10.474 3.737 3.737-1.239 3.737-8.894 6.935-8.714 2.12 0 7.096 5.876 8.155 7.655 1.78 3.018 3.558 8.515 3.738 11.893.52 4.257-.36 7.455-3.738 10.134-2.478 1.958-7.795 6.036-10.993 6.396-4.097.52-6.036-4.438-6.936-7.815-.7-2.679-1.419-5.157-2.118-7.656-.9-2.838-4.438-9.934-4.078-11.713z" fill="#faf4f2" fill-rule="evenodd"/><path d="M263.24 160.143c3.578-7.136 1.98-9.994-4.477-13.912 1.62-2.318 4.657-5.176 6.636-7.495 2.679-2.858 3.938-2.319 6.256.72 5.737 7.675 7.176 16.95 7.336 26.563z" fill="#faf4f2" fill-rule="evenodd"/><path d="M265.48 139.555c-.72-3.737-2.32-6.755-6.057-7.655-3.558-.88-6.416 2.319-8.895.36-2.678-2.139-4.097-8.895-6.236-11.753-3.558-4.797-10.514-10.134-12.832-15.65-1.96-4.638-.52-9.275 4.997-8.735 6.416.9 11.573 6.236 15.85 10.693 4.258 4.258 7.655 8.355 9.794 13.872 2.119 5.357 2.838 12.472 5.857 17.09z" fill="#faf4f2" fill-rule="evenodd"/><path d="M246.39 123.405c-1.618-.88-3.737-4.617-5.696-6.216-3.398-2.838-6.776-3.898-10.873-5.137-9.255-2.498-18.51-3.038-27.424-6.936-4.977-2.138-14.071-8.175-11.932-14.75.899-3.559 4.997-5.158 8.554-5.158 14.592-.18 28.663 4.797 40.776 11.733 5.876 3.378 8.894 8.875 12.812 14.392zm-54.366-17.369c3.557 2.498 7.115 5.157 10.853 7.655 3.918 2.479 8.735 3.558 12.832 6.216 4.817 3.198 11.573 9.794 14.072 15.131 3.558 7.296-1.96 14.591-3.558 21.527-1.42 6.396-1.779 12.453-2.139 18.849-.54 6.776-2.498 10.154-9.614 10.333-4.817 0-9.794-2.138-14.431-.54-4.637 1.42-6.956 4.978-11.054 6.937-5.156 2.658-10.693.879-15.67-1.42-2.499-1.259-6.776-2.678-8.015-5.336-1.44-3.039-.9-9.255-.54-12.633.9-10.853 2.319-21.527 3.558-32.2 1.08-9.794 2.498-20.288 7.316-29.183 3.198-5.876 9.794-9.794 16.75-5.696zm18.468 100.639c.36-.16.18-.52.7-.7-1.959 3.018-9.954 5.697-13.532 6.936-4.257 1.599-8.894 2.858-13.352 3.218-3.737.34-8.375.34-11.932-.36-3.199-.72-8.196-4.277-7.836-8.195.72-6.776 37.578 1.6 45.233-1.24z" fill="#faf4f2" fill-rule="evenodd"/><path d="M209.133 207.814c5.517-4.277 15.65 1.779 10.134 8.355-7.295 8.195-16.73 11.753-26.864 15.15-10.693 3.379-21.906 12.093-20.467 24.566 1.239 11.393 14.77 14.231 24.205 14.231 5.857 0 12.812-1.779 18.509-3.198 5.337-1.419 7.655-4.797 10.134-9.614 3.558-6.576 7.655-16.21 15.31-18.509 3.019-1.08 9.255.36 11.214-1.439 2.498-2.478 2.498-11.913 2.498-15.31.16-9.615-1.959-20.288-9.094-27.244-1.94 1.26-5.337.72-7.816 1.44-4.457 1.238-8.734 3.737-12.812 5.876-2.318 1.059-4.997 2.478-7.475 3.198-1.78.36-4.458-.18-5.357 1.059z" fill="#faf4f2" fill-rule="evenodd"/><path d="M192.363 265.32c4.098 1.238 7.456 4.097 7.296 8.554-.36 5.537-7.116 6.956-7.655 11.593 3.378-.16 7.815-4.637 10.853-6.236 3.358-1.78 7.456-3.738 10.474-6.236 7.995-6.077 16.33-18.39 12.432-28.383zm28.623 34.758c-1.959-9.294 8.155-15.55 14.191-20.727 3.558-3.218 10.654-10.014 15.611-10.374 7.975-.54 4.797 14.291 4.797 18.949-.36 11.433.7 29.122-13.492 32.5-11.713 2.858-17.03-13.392-20.048-21.787z" fill="#faf4f2" fill-rule="evenodd"/><path d="M241.813 316.808c-11.213 9.075-27.403 5.517-40.395 8.555-5.177 1.24-8.915 4.437-13.712 6.236-5.177 1.959-8.375 6.056-13.172 8.355-1.779.9-1.959 1.959-3.558.54-3.757-3.198 2.299-5.877 4.258-7.476 2.858-2.318 0-3.917 1.439-7.475 1.06-2.859 1.42-7.136 3.198-9.814 2.498-3.918 11.933-7.836 16.73-9.075 7.116-1.959 11.573 1.24 17.989 3.558 4.617 1.42 8.535.54 8.715-5.157 0-5.357-4.977-7.136 0-11.593zm-17.189 18.809c5.357-1.6 13.172-3.218 18.868-2.859 8.195.36 12.633 8.935 12.113 16.43-.54 6.776-2.858 17.31-8.015 22.127-5.697 5.537-12.093 4.637-19.388 3.398-9.095-1.62-15.67 0-24.046 2.858-6.576 2.319-12.992 6.596-19.928 7.316-3.378.36-6.935.52-8.714-2.499-2.859-4.477-1.78-9.294.72-13.572 4.077-7.135 9.773-13.032 16.889-16.95 6.956-3.937 13.352-8.574 20.647-11.252 3.738-1.24 7.296-2.859 10.854-4.278zm-9.014 52.908c3.537 1.419 8.854-2.32 12.232.36 4.777 3.897-.72 8.154-4.258 9.753-3.897 1.6-12.952 3.718-16.31-.36-3.917-4.956 8.675-10.113 10.454-8.694zm-22.667 30.341c5.357-1.779 12.133-.7 17.83-1.24 5.336-.359 11.053-.899 16.21-2.498 3.397-1.059 7.135-2.318 9.634-4.797 2.318-2.138 3.557-5.336 6.236-6.776 3.018 4.997-1.959 13.352-1.44 19.229.54 8.375 2.5 16.73 3.039 25.105.54 9.594 3.198 26.683-5.697 33.46-5.536 4.257-13.372 5.676-20.147 5.516-9.974-.36-13.532-12.113-16.93-19.948-3.378-8.175-6.936-16.73-9.435-25.265-.899-3.558-1.439-7.115-1.259-10.853.36-3.918 1.96-7.476 2.319-11.213zm36.717 83.17c3.559-1.26 9.815-1.26 11.054 3.418 1.42 5.556-7.495 2.498-11.053 3.577-3.218.9-13.032 6.457-13.032-1.079 0-4.837 11.433-6.816 14.271-5.197zm-5.236 22.326c-1.639.68-1.639 3.918-.36 5.317 1.76 1.959 3.918.72 6.236.36 5.317-.52 8.555-.36 12.633 3.238 4.277 3.718 10.713 13.871 16.39 7.995-1.76-2.838-3.918-4.637-6.236-7.116-2.839-3.038-4.278-7.115-7.276-9.994-2.518-2.478-2.878-2.118-6.596-1.759-4.277.36-10.154-1.639-14.111-.36zm52.208-344.831c0 3.038-2.698 5.877-2.878 9.454-.18 3.199 1.44 5.157 2.698 7.996 3.039-.88 5.737-3.198 8.615-3.918.88 4.098-11.853 17.09-16.51 14.97-1.799-.899-1.619-3.397-1.08-4.456 1.62-2.859 3.239-1.24 3.779-5.337.36-4.817-1.62-9.095-3.059-13.712zm13.592 28.943c-2.139 3.038-6.576 5.716-10.314 6.256-2.658.36-7.095-1.6-9.594-.18-5.157 3.038-.52 14.651 1.78 18.209 3.557 5.716 8.354 1.799 13.331 4.297 3.898 2.139 6.396 8.915 11.713 7.316-.52-2.858-3.538-5.537-4.797-8.395-1.6-3.738-.52-5.357.36-8.755 1.419-5.696-.36-11.773-1.78-17.13zm-4.797 48.15c2.299-.36 6.376-2.498 8.675-1.778 3.718 1.059 3.897 5.316 4.077 8.514.18 5.157 4.238 13.852.36 18.11-4.437-2.659-5.497-19.529-13.112-10.294-2.838 3.378-4.777 2.498-4.957-2.479-.36-5.676 2.479-7.635 5.317-11.713z" fill="#faf4f2" fill-rule="evenodd"/><path d="M213.83 189.525c-.34-.36-.68-.54-1.199-.72m-4.917-.799c-.88 0-1.779 0-2.658.18-4.997.54-8.735 2.878-8.555 5.037.36 2.159 4.637 3.418 9.614 2.698 4.098-.54 7.296-2.158 8.355-3.777m-2.798-3.658s0 0 0 0c-.66-.24-1.16-.24-1.84-.48" fill="none" stroke="#343434" stroke-width=".64" stroke-linecap="round" stroke-linejoin="round" stroke-miterlimit="10"/><path d="M207.094 191.204c3.538 2.579-4.617 3.598-3.018 1.2" fill="none" stroke="#343434" stroke-width=".64" stroke-linecap="round" stroke-linejoin="round" stroke-miterlimit="10"/><path d="M181.53 350.368c4.277-1.44 6.596-4.638 10.314-6.776 4.097-2.479 9.254-2.659 13.352-4.098 8.534-3.018 17.769-7.815 26.304-9.254-9.055 5.696-19.548 9.094-29.682 11.573-7.476 1.959-12.992 6.416-19.928 8.894z" fill="#fce2d7" fill-rule="evenodd"/><path d="M113.571 230.56c3.218-1.259 5.157.52 8.015 1.78 2.299.879 5.137 1.238 7.636 1.418 2.838.18 5.336-.72 7.995-.9 2.838-.359 5.856-.179 8.715-.879 4.797-.9 9.774-1.958 14.75-2.318 7.096-.72 13.852 2.139 20.788 3.198 2.479.36 6.936.72 8.695 2.318 3.198 2.839.18 4.458-1.42 7.116-2.118 3.198-3.197 8.355-3.018 12.093.18 3.917 4.438 14.051-3.378 12.812-5.496-.7-10.133-6.216-14.21-9.254-4.098-2.839-9.595-7.296-14.932-7.476-7.635-.16-11.553 8.555-17.41 11.933-2.678 1.779-7.115 4.437-10.313 3.018-4.617-1.959-6.576-9.954-8.875-13.692-1.079-1.958-2.318-3.557-3.038-5.696z" fill="#faf4f2" fill-rule="evenodd"/><path d="M279.79 189.365c1.26-.34 2.519-1.779 3.958-2.478 1.799-.72 3.058-1.78 3.218-4.098.18-2.838-.7-6.056-1.24-8.894-.539-2.679-1.079-5.517-1.618-8.195-.9 2.318.9 6.236 1.619 8.554.54 2.14.72 4.797.54 7.116-.18 1.42-.36 2.139-1.26 3.018-1.439 1.26-3.058 2.679-4.137 4.278z" fill="#fff" fill-rule="evenodd"/><path clip-path="url(#a)" d="M148.17 13.772c-.36 1.599-.36 2.678-1.599 3.917-.72.72-1.419 1.42-2.139 1.78 0-1.06.9-2.48.54-3.739-.72 1.6-1.779 3.378-3.558 4.098.54-.72 1.24-1.42 1.42-2.319-.88 1.08-1.78 2.319-2.659 3.198-1.08 1.08-2.139 1.78-3.198 2.679.18-.72.52-1.42.88-2.139-1.06.54-2.3 2.838-3.019 3.918-1.06 1.779-1.599 3.717-2.478 5.496.34-.7.7-2.118 1.419-2.658-1.08 3.918-4.277 8.175-3.738 12.253-.18-.88-.18-1.6-.54-2.479-.18-.88-.52-1.779-.7-2.658-.359-2.679-.359-5.337-.719-8.015-.36-2.479.54-5.137 1.6-7.456.719-1.419 1.778-2.838 2.498-4.277-.54.72-1.42 1.079-2.139 1.619.72-.72 1.24-2.139 1.6-3.038.899-1.78 1.598-3.378 2.838-4.977.899-1.06 2.138-2.12 3.557-2.659.36-.18 1.06-.72 1.6-.72-.7 0-1.42.18-1.96.18 1.96-1.419 5.157-2.478 7.656-2.478 2.299 0 3.898-.54 6.216-.9 0 0-.9-1.239-2.318-1.239 0 0 4.097-.72 6.396-.18.18 0-.18-.18 0-.18 1.079.54 2.138.72 3.198 1.08 1.419.34 2.858.88 4.277 1.419 3.198 1.24 6.396 1.599 9.235 3.198 4.077 2.479 6.935 5.857 8.534 10.314.7 2.119.88 4.257 1.42 6.396.36 2.119.36 3.898.52 6.036 0 2.139 0 4.278-.16 6.396l-1.08 3.738c0-1.06-.52-1.24-.7-1.959-.54-1.059-.18-2.478-.9-3.378 0 .18-.179.36-.359.36-.34-1.06 0-2.478-.34-3.558-.36.36-.72.9-1.079 1.42-.52-1.24.18-3.558 0-4.978-.18-.879-.7-2.478-1.599-3.018 0 .54.18.9.18 1.24-.7-.88-1.24-2.12-2.299-2.839-.9-.7-2.318-1.06-3.038-1.959 0 .54.36 1.08.36 1.6-1.42-1.06-2.299-1.96-3.898-2.479-1.259-.54-2.498-.9-3.558-1.42.36.52.54 1.06.88 1.42-1.24-.54-2.299-1.599-3.718-1.959-1.08-.36-2.139-.36-3.198-1.06-.54-.359-1.08-.719-1.44-1.079.18.54.9 1.08.9 1.42-1.419.18-2.658-.7-3.917-1.42.36.72.72 1.42 1.08 2.14-1.26-.36-2.32-1.06-3.379-1.78-.72-.54-1.419-1.239-2.139-1.599l-1.239-.72z" fill="none" stroke="#343434" stroke-width=".48" stroke-linecap="round" stroke-linejoin="round" stroke-miterlimit="10"/><path d="M149.87 8.115c.899 1.799 3.377 3.578 5.156 4.297-.72-.36-1.42-1.079-1.42-1.798.88.36 1.42 1.439 2.48 1.619-.18-.18-.36-.72-.54-1.08 1.239.9 2.498 1.96 4.077 2.319-.52-.72-1.06-1.42-1.239-2.319 1.599 1.96 4.977 3.038 7.276 4.278-1.06-1.06-1.24-2.499-2.479-3.558 1.779 1.419 3.718 2.678 5.497 3.738-.72-.54-1.24-1.24-1.24-1.96 1.24.54 2.479 1.78 3.538 2.68-.36-.36-.7-1.08-.88-1.62.88.72 1.78 1.799 2.66 2.678-.36-.52-.36-1.059-.54-1.599 2.498 1.42 4.977 5.177 5.316 7.836-.88-1.6-1.419-3.378-2.118-4.977-.54-1.44-1.78-3.398-1.78-4.817 1.6 1.779 3.199 3.737 3.898 6.056-2.478-5.337-4.597-10.873-10.093-13.912 1.599 1.26 3.018 3.039 3.717 4.997-.7-.72-1.419-1.419-2.298-1.599.18.18.34.88.52 1.06-.34-.52-.88-.88-1.42-1.06.18.36.18.88.54 1.24-1.42-.36-2.299-1.42-3.378-1.96 0 .9.36 1.78.72 2.5-.36-.36-.72-.54-.88-.9.16.18.7.9 1.06 1.439-3.199-1.6-5.497-3.578-8.156-5.897-.36 1.62 1.76 4.818 3.358 5.537-.88-.9-2.478-1.08-3.358-2.139.34.54.52 1.06.52 1.6-.7-.54-1.759-1.24-2.658-1.42 0 .18-.18.54-.18.72-1.06-1.08-5.317-1.44-5.497-2.319zm-3.998-.48c-1.22 1.8-2.819 3.398-3.358 5.717 0-.9.18-1.959.54-2.858-1.42 1.239-2.839 3.018-3.539 4.817 0-.72.36-1.44.52-2.139-1.06 1.06-1.579 2.658-2.119 4.098 0-.9.36-1.8.54-2.679-.72 2.679-3.898 5.877-5.137 8.715.54-1.24 1.06-2.838 1.06-4.078-.7 1.06-1.24 2.12-1.94 3.019v-.54c-.18.36-.539.72-.719 1.08.18-1.78 1.6-3.739 2.139-5.517-.54.7-.9 1.599-1.42 2.478.36-1.42 1.42-2.658 1.6-3.918-.36.36-.9.72-1.42 1.26 1.58-2.319 2.639-5.877 4.058-8.195-.18 2.138-.88 4.617-1.419 6.416.18-.72.72-1.44 1.08-1.96-.9 1.24-1.24 2.66-1.6 4.078.7-.52.88-1.419 1.42-2.118-.18.7-.18 1.239-.36 1.779 1.239-2.14 2.838-4.098 3.717-6.237 0 .7-.18 1.24-.54 1.78.54-1.24 1.24-2.679 2.14-3.738-.18.7 0 1.239 0 1.779.879-.36 1.219-1.78 2.118-2.14 0 .36.18.72.18.9.7-.36 1.759-1.259 2.459-1.799z" fill="#95281a" fill-rule="evenodd"/></svg>