<svg xmlns="http://www.w3.org/2000/svg" version="1.0" viewBox="0 0 217.474 527.622"><defs><clipPath clipPathUnits="userSpaceOnUse" id="a"><path d="M2.878.48h217.229v528H2.878z"/></clipPath></defs><path d="M183.509 265.959c-.42 0-.84.46-2.499 0 1.24 1.779 1.66 2.678 2.079 3.558 5.437 1.779 10.853 6.216 14.611 12.892l.42-.46c.84-.44 1.679-.88 2.918-.88-4.577-7.995-10.853-13.331-17.53-15.11zM164.72 280.19c-.84 0-2.079-.46-2.498-.46-.42-.44-.42-.44-.84-.44-1.679 6.657-.84 15.112 2.918 22.647.84-.44 1.68-1.32 2.519-1.759h.4c-3.338-7.116-3.758-14.231-2.499-19.988z" fill="#25000a" fill-rule="evenodd"/><path clip-path="url(#a)" d="M217.728 299.199c2.499 4.877.84 10.653-3.758 13.312L182.69 330.7c-4.578 2.658-10.414.899-12.913-3.978l-6.676-12.872c-2.518-4.877-.84-11.093 3.738-13.752l31.3-18.189c4.578-2.678 10.415-.9 12.913 3.978l6.676 13.312z" fill="#526195" fill-rule="evenodd"/><path d="m209.333 286.326-2.498-4.437c-2.499-1.319-5.817-1.779-8.735 0l-31.241 18.21c-2.898 1.758-4.577 4.876-4.997 7.974l2.498 4.438c2.499 4.877 7.916 7.095 12.093 4.437l29.562-16.85c4.577-2.678 5.817-8.875 3.318-13.772z" fill="#9091b7" fill-rule="evenodd"/><path d="M186.927 304.975c-.84-1.319-.42-3.078.82-3.957 1.218-.44 2.877 0 3.277 1.319.82 1.319.42 2.638-.82 3.518-1.239.88-2.878.44-3.277-.88z" fill="#f8b400" fill-rule="evenodd"/><path d="m43.214 352.546-.4.9c.4 4.877-10.833 17.749-18.349 41.295-7.495 23.526-11.653 71.037-16.67 87.906 1.26 0 2.919.44 4.597 1.32 2.919 2.218 8.335 2.658 12.493 0 4.177-2.219 4.577-8.435 5.417-8.435.42 0 .42.44.42.44-.84-3.099-1.26-7.536 0-11.973 1.259-5.777 14.17-42.175 18.328-55.067 4.178-12.872 13.332-28.403 17.51-32.4 4.157-3.998 6.236-11.093 6.236-15.99-12.912-2.659-24.165-6.217-29.582-7.996zM132.7 363.58c-8.735 2.678-21.627 2.678-34.92.9v.879c.84 4.457 3.319 12.452 2.919 16.45-.42 3.997-7.915 23.985-5.417 50.629 2.499 26.664 7.895 48.87 5.417 63.961v.9c2.898 4.877 15.37 5.316 19.948 3.098 4.557-1.78 7.895-4.438 6.636-7.995-2.079-2.22-2.079-3.538-.42-3.998-1.659-.88-2.898-5.317-2.898-9.314 0-8.895-1.66-41.315 1.24-56.866 2.498-15.11 6.235-35.099 7.894-41.755 1.66-6.656.84-11.113-.4-16.89zm22.846-330.9c.42 0 .42.46.84.46.839 5.756.419 11.093 0 12.432-.84 1.78-2.08 3.998-1.24 7.556 1.24 3.997 3.738 11.093 4.157 12.432.4 1.32 0 3.998-2.078 4.438-1.68.44-2.919 0-4.158 0-1.259 0-2.079 2.218-2.498 2.658 0 .9-.42 2.219-.42 2.678-.42.88-1.24 1.32-1.24 1.32s-1.258.46-1.678.46l.42.439c.839.44 1.259 2.658.839 3.098-.42.9-2.079 2.219-2.498 3.558 0 1.34.839 3.118-.84 4.897-1.24 1.32-4.557 2.658-6.236 1.32-1.24-.44-3.738 0-7.476-.88-2.918-.44-8.734 5.317-8.734 5.317-1.66-3.538-3.738-9.755-9.135-15.99-5.836-7.536-12.472-13.313-16.63-15.991 0 0 1.24-2.658.4-4.877-.4-2.219-2.079-3.998-2.079-3.998l7.915-20.427 38.237-18.669z" fill="#fcebe2" fill-rule="evenodd"/><path d="M163.86 26.504c-1.239-2.658-3.737-3.998-3.317-7.995l-1.24.9c.82-.44-.42-2.66-.42-3.559-1.678 2.219-3.337 0-4.996-.88-.84-.439-1.66-1.778-1.26-3.117-.819 2.678-6.236-3.538-7.895-4.437-2.918-1.76-5.816-2.659-8.734-3.978-2.499-.9-5.837-2.219-8.315-1.34-1.68.88-.84.44-2.499 0-4.997-1.338-10.813 0-16.65 1.34-3.738.88-7.895 4.437-10.813 7.535-3.738 3.558-7.915 9.754-9.155 15.53 0 1.34-.42 2.66-.84 3.999-.399-.44-1.238-.9-1.658-1.34-3.318-.88-6.656.44-8.735 2.659-3.738 4.437-5.417 10.214-4.157 15.99.84 5.317 3.318 11.533 8.315 13.312 4.577 1.759 11.233 0 15.39-2.678l.84-.88c.42.44 1.239 1.34 2.079 1.779-.42-.9-.42-2.219-.42-3.118 1.659 2.219 3.338 3.998 5.836 3.998-.84-.88-1.679-2.659-1.259-3.998 1.659 3.118 4.577 3.118 6.656 4.897v-1.34a6.189 6.189 0 0 0-1.24-1.778c-.839-2.219-2.918-4.877-2.078-7.096.42-.44 1.24-2.219 2.079-2.219.42-.44.42-.44.82-.879 0-.46.839-.9.839-.9.84 0 2.498-.44 3.338-.44.82.44 1.239 2.22 2.078 2.66 1.24.899 1.24 2.218 2.08 3.557.419 1.32 1.658 1.779 2.498 2.658.82 1.78 4.157-2.658 4.577-3.557.4-1.76 2.898-2.659 4.157-3.978 1.24-.9 2.899-1.779 3.738-3.118.84-1.32 0-3.098.84-4.877.4-.88.82-1.34 1.659-2.219 0-.44.84-1.779 1.239-2.218.84-.44 1.26 1.778 2.918 1.778 2.499.44 4.158-2.658 4.997-4.877.82.44 1.659 1.32 1.659 2.22 1.659-.46 1.659-3.119 2.918-4.438 1.66-.9 4.577.88 4.997 2.658.82-.44 5.397 2.659 4.977 4.877 2.079-1.779 3.758-2.218 3.338-5.317 0-2.218-2.498-3.997.82-5.776z" fill="#bd9897" fill-rule="evenodd"/><path d="M114.77 70.237c0-2.118.94-3.837 2.08-3.837 1.158 0 2.078 1.719 2.078 3.837 0 2.14-.92 3.838-2.079 3.838-1.14 0-2.079-1.699-2.079-3.838z" fill="#ffecb5" fill-rule="evenodd"/><path d="M117.709 67.36v2.638c0 1.319-.42 2.638-1.28 2.638h-.859c.44.44.86.88 1.28.88.859 0 1.278-1.32 1.278-3.079 0-.88 0-2.638-.42-3.078z" fill="#fcc843" fill-rule="evenodd"/><path d="M114.77 61.763c0-1.1.94-2 2.08-2 1.158 0 2.078.9 2.078 2 0 1.119-.92 1.998-2.079 1.998-1.14 0-2.079-.88-2.079-1.998z" fill="#ffecb5" fill-rule="evenodd"/><path d="M117.309 60.723c.44 0 .44.44.44.44 0 .88-.44 1.759-1.3 1.759h-.879c.44.44.88.44 1.32.44.859 0 1.718-.44 1.718-1.32 0-.88-.42-1.319-1.3-1.319z" fill="#fcc843" fill-rule="evenodd"/><path d="M127.283 91.345c-2.039 1.339-4.517 3.537-4.517 3.537 1.239 2.659 2.058 5.297 2.478 7.496.4 0 3.278 0 3.678-.88 0-4.397 0-6.616-1.64-10.153z" fill="#eca0b6" fill-rule="evenodd"/><path d="M148.11 258.363c.84 2.22 1.68 5.777 3.338 8.455 2.079 3.118 3.318 4.438 4.577 6.217 1.66 1.778 4.578 5.776 6.237 6.675 1.239.44 4.577.88 5.396.88 1.26 0 5.837-1.32 6.257-1.779v-.88c2.078 2.22 5.396.88 5.816.44.84 0 1.24-.88 3.318-2.658.42.44 1.26.44 2.079 0 .42-.44.84-.9 1.259-1.34.42-.439.82-1.338.82-1.778-.4-.88-2.08-2.219-2.899-2.659-2.078-.899-1.659-1.779-3.338-4.017 5.417.9 1.26-3.098-.4-5.337-1.678-2.219-2.498-4.437-4.577-6.216-2.078-1.78-4.577-5.337-6.236-6.216-1.679-.9-3.758-2.679-5.836-4.018z" fill="#fcebe2" fill-rule="evenodd"/><path d="M158.604 232.1c-.42-.46-2.499 0-2.918-.46-3.318-3.099-5.837-6.217-7.496-9.754-2.498-6.676-9.994-16.89-13.751-20.888-3.338-3.997-4.578-7.995-6.656-12.872-.42-.44-.42-1.34-.84-2.219 1.24-.9 4.577-9.334.42-23.086-1.68-6.216-3.338-13.332-6.676-21.766-.82-3.119-.42-7.996-.82-11.993v-1.34h-.42v-2.218c.82-12.433 7.496-14.211 6.237-17.75-2.499-4.457-7.076 2.22-6.656 6.657-.84-2.679 0-6.656-3.338-12.893-9.994-17.749-22.906-33.74-25.824-38.636-23.766 2.239-50.43 30.661-55.427 55.087-4.997 23.965-3.338 27.963-2.498 70.597 0 9.334-9.595 21.767-2.499 26.204l.84.9c.4-.46.4-.9.4-.9 7.915 6.216 37.916 19.548 76.673 3.558 0 0 0 .44.42.44 0 .44.42.899.84 1.339v.88c.419.439.419.899.819.899.42.44.42.879.84.879 0 .44.419.88.419 1.34.42 0 .84.439.84.879l.819.9c.42.439.84.879.84 1.318.42 0 .42.44.839.9.42.44.82.88 1.24 1.319l.419.46c.42.88 1.26 1.319 1.659 1.759v.46c.84.879 1.26 1.319 2.099 2.218 5.416 6.216 11.253 11.993 12.492 13.752.42.9.84 1.779 1.659 2.678.84.88.42 3.998 1.26 4.877 3.337 2.678 7.075 5.337 7.495 5.777.84.879-.42.44 6.256-4.877 6.656-5.777 17.09-12.433 17.49-16.43-2.5-2.679-4.998-5.337-7.496-7.996z" fill="#f2becd" fill-rule="evenodd"/><path d="M29.482 199.28c1.26-3.539 2.519-7.096 2.519-10.654-.84-42.674-2.519-46.672 2.518-70.657.42-2.22 1.24-4.458 1.66-6.237-4.178 8.015-8.796 21.787-11.734 26.664-3.778 6.236-8.814 10.234-7.975 17.79 1.679 21.766 11.333 33.32 13.012 43.093z" fill="#f2becd" fill-rule="evenodd"/><path d="M111.512 225.044c0-.44-.4-.88-.82-.88 0-.44-.419-.9-.419-1.339-.42 0-.42-.44-.84-.88-.42 0-.42-.44-.839-.899v-.88c-.4-.44-.82-.899-.82-1.339-.42 0-.42-.44-.42-.44-37.516 15.551-67.118 3.119-75.873-3.117l-1.26.46c-2.918 7.994-8.754 26.203-1.239 71.496 7.076 41.755 12.093 52.868 11.673 62.202-.84 3.538 1.24 3.098 2.08 3.098 14.17 4.438 66.279 18.649 90.045 11.114 1.659-.9 1.659-3.118 1.659-5.337-1.24-16.87-4.578-67.52-10.414-98.16-3.338-16.43-6.676-27.984-12.513-35.1z" fill="#c6c5df" fill-rule="evenodd"/><path d="M127.283 492.422c1.24 3.557-2.079 6.196-6.636 7.995-4.597 2.198-17.51 1.759-20.428-3.118-1.639 3.997-3.757 12.392-2.078 16.83 1.679 4.437 9.154 6.635 18.748 5.756 9.554-1.32 14.551-3.078 23.706-4.877 8.754-1.76 18.349-4.397 21.267-9.714 2.878-5.317-.44-9.315-2.918-10.634-2.919-1.359-10.434-.44-16.27-2.238-5.397-1.32-10.794-3.518-13.712-3.958-2.918-.48-4.997.44-1.68 3.958z" fill="#8186b1" fill-rule="evenodd"/><path d="M162.661 502.136c0 .92-.4 2.238-.84 3.118-2.917 5.357-12.472 8.035-21.226 9.794-9.155 1.799-14.152 3.598-23.706 4.917-9.154.88-16.67-.88-18.748-5.357l-.4.44c-1.28 4.037.4 6.236 2.918 8.914 2.878 2.679 10.793 3.998 14.151 2.679 3.318-1.76 3.718-2.679 5.397-3.558 4.158-1.32 9.554-2.678 15.39-3.998 8.316-1.359 21.228-4.037 24.586-8.914 2.878-4.917 2.478-8.035 2.478-8.035z" fill="#64627d" fill-rule="evenodd"/><path d="M5.677 483.987c-1.26 3.997-2.519 11.573-1.26 15.57 1.68 3.578 6.257 4.458 10.434 4.458 4.597.44 9.174-1.34 12.932-3.558 3.758-2.219 8.355-4.018 11.693-4.897 2.918-.44 7.915-3.118 10.414-6.676 2.918-4.018 1.259-11.573-4.158-12.033-5.017-.44-7.515.46-10.853.46-2.918.44-3.338-1.8-4.597-1.8-.82 0-1.24 6.237-5.417 8.476-4.178 2.658-9.594 2.218-12.512 0-2.919-1.78-6.257-2.239-6.676 0z" fill="#8186b1" fill-rule="evenodd"/><path d="M50.63 485.266c0 1.34 0 2.239-.84 3.578-2.499 3.578-7.496 6.256-10.414 6.696-3.338.9-7.915 2.678-11.673 4.917-3.738 2.218-8.315 4.017-12.912 3.558-4.157 0-8.735-.88-10.414-4.458-.42 3.118 0 4.917 1.68 6.696 1.239 2.219 5.416 3.558 11.652 2.679 5.837-.9 5.837-1.34 7.096-1.78 1.24-.899 1.24-3.137 2.898-4.017 1.68-.46 3.758-2.239 9.175-3.578 5.416-1.339 10.833-5.357 12.912-8.035 1.659-1.779 1.659-4.457.84-6.256z" fill="#64627d" fill-rule="evenodd"/><path d="M64.8 220.946c5.837-2.219 10.434-1.32 16.67-1.32 3.339-.439 12.093-.439 14.172-3.557 2.499-3.118-1.24-7.116-2.079-10.214-1.239-3.558-1.659-7.555-2.498-11.113-1.66-8.435-3.338-16.87-7.076-24.865-3.758-7.995-7.515-12.892-16.67-10.214 3.318.88 7.076 1.78 9.155 4.877 4.177 5.337 1.259 8.895-3.338 11.553 2.918.88 8.754 1.34 9.594 5.337.42 4.877-5.837 7.096-8.755 8.875 4.178.44 12.513 1.339 13.752 6.216 1.26 5.337-5.417 6.676-8.335 9.334 2.079 1.78 7.515 3.558 7.096 7.096-.84 3.998-7.916 5.776-10.834 6.236z" fill="#eeaabe" fill-rule="evenodd"/><path d="M85.588 219.767c5.017-.46 15.85 2.218 17.51-4.917-2.08-1.78-4.578-3.578-7.076-4.477-4.997-2.679-5.417-2.679-7.096-8.935z" fill="#eeaabe" fill-rule="evenodd"/><path d="M74.795 134.838c2.918 8.895 7.095 16.91 11.253 24.905 2.079 4.457 5.417 8.015 7.076 12.453 2.498 5.336 3.338 11.113 4.577 16.45 1.679-2.659 4.177-4.438 7.076-5.337-5.817.9-9.994-7.096-6.656-11.993-6.237-3.558-4.578-7.555-3.338-14.231-6.237 0-8.315-8.895-5.817-12.892-4.997-3.558-12.073 0-13.332-9.355zm33.819 79.152c1.66 1.78 2.499 3.998 3.738 5.757 2.079 2.658 4.557 5.317 6.636 7.975 4.557 5.317 9.954 8.855 14.091 15.05-2.478-3.537-4.957-6.635-7.035-10.173.42-.44.42-.88 1.239-1.34-1.24-.879-3.318-.879-4.138-2.198-1.659-1.339-1.259-3.997-2.498-5.317-1.66-2.218-4.138-1.779-5.797-4.437-1.659-2.658-2.918-4.857-6.236-5.317zM33.98 168.978c-2.52-46.992 9.194-70.957 19.628-80.272-3.758 6.656-20.468 31.94-19.629 80.272z" fill="#f6d2db" fill-rule="evenodd"/><path d="M129.002 43.773c2.079-3.098 4.577-10.613 9.154-11.513 2.499 0 2.079 1.78 4.997.44 1.66-.88 2.079-6.196 4.557-2.658-1.659-6.636-3.318-10.634-9.973-13.292 2.078 1.339 5.416 6.656 1.259 7.535-2.499.44-4.997-3.977-5.837-5.756 4.158 7.975-2.478 7.095-6.236 10.633-.4 0-.4 2.219-.82 3.098-1.259 1.78-2.498 2.659-4.157 3.998-2.498 2.219-5.816 2.658-7.495 5.757z" fill="#b08384" fill-rule="evenodd"/><path d="M124.884 38.037c-8.754.88-7.075 13.332 1.66 8.455 2.918-1.34 4.996-2.239 5.836-5.357.84-3.998-1.66-7.995 3.738-10.234zm25.665-11.973c3.777-.88 6.276 3.518 8.794 5.717-.42-2.639-.84-5.277 1.24-7.056-1.66-2.638-4.598-3.078-4.598-6.616 2.939 4.417-2.078 7.955-6.276 7.515z" fill="#b08384" fill-rule="evenodd"/><path d="M91.425 27.383c2.518-8.894 6.676-17.33 15.45-20.887 2.918-.9 6.676-2.678 10.014-3.118 3.758-.46 7.096 1.32 10.834 1.32-3.738-.44-10.414.459-7.916 6.235-.84-3.557-6.256-5.776-7.935-1.339-3.758-2.658-4.997 1.34-4.157 4.897-.84-1.339-2.099-2.658-3.338-2.658 0 1.319-1.26 1.779-.84 3.098-2.098-1.779-5.836-3.558-5.836.9z" fill="#d2bab9" fill-rule="evenodd"/><path d="M103.517 516.427c4.178 2.658 10.834 2.219 15.41 1.34 6.237-1.34 12.493-3.099 18.31-4.438 5.417-1.759 11.253-2.219 16.25-4.417 2.498-.46 4.577-2.659 6.236-4.438 1.66-2.658 1.66-6.656-2.498-6.656 2.498 8.875-20.388 9.315-24.565 10.634-7.496 1.779-10.814 6.216-18.31 7.096-1.658 0-9.573.879-11.252 0zm-95.722-16.51c9.155 4.857 18.729-3.078 27.044-5.297 4.157-1.319 7.495-1.319 10.394-3.977 3.338-3.098 3.737-6.197 2.078-10.174-.42 1.339 0 3.098-.42 4.437-.819 1.76-3.737 3.078-4.976 3.518-4.578 1.34-9.575.46-13.312 3.098-4.158 2.219-5.417 4.857-9.994 6.196-2.479.88-9.974 4.418-10.814.88z" fill="#5f689c" fill-rule="evenodd"/><path d="M7.316 487.984c-1.26 2.639-1.68 5.717-.84 8.795zm94.582 27.104c-4.637-1.76-2.098-9.714-1.259-13.272 0 2.658-.84 11.953 1.26 13.272zm29.182-24.945c2.499 2.239 5.417 3.118 8.316 3.118z" fill="#bdbed6" fill-rule="evenodd"/><path d="M157.704 271.196c2.499 1.779 4.158 6.256 7.056 7.595 2.079.44 4.997 0 6.656-.44 1.24-.46 1.66-.9 2.898-.9.84 0 2.899 0 2.899-1.778 0-.9-1.66-1.799-2.06-2.239-.839-1.339-1.258-2.678-2.917-3.578.42.9 1.259 2.24 1.259 3.119-1.26.46-2.079-.88-3.338-1.34-1.24-.44-2.479-.88-4.138-.88-3.318 0-5.396 1.78-8.315-1.358zm19.189-12.833c.42 3.079 1.659 4.837 4.137 7.036 1.22-3.078-3.298-6.156-4.137-8.795zm2.478 14.192c.84 1.339 5.457 4.037 6.296 1.339.42-1.34-2.938-4.497-4.197-3.598zM136.437 87.327c2.119 1.34 4.637 4.018 7.156 1.779 1.679-1.34 2.518-5.816 2.099-8.075-.84 0-1.68.46-2.519 0 1.26 1.36 1.26 3.158.42 4.497-1.26 1.8-2.938 1.34-4.617.9zm9.115-11.573c3.378 0 2.538-.44 3.797-3.078 1.26-1.779 2.519-2.658 4.198-3.538-1.679-1.779-4.617 2.199-6.296 0 .84 2.199.42 3.538-.84 5.297zm9.254-38.217c0 2.679.42 5.357 0 8.475-.42 2.219-1.26 4.437-1.26 6.676.84 4.897 4.158 9.334 4.158 14.671-.4-1.779-1.239-3.997-2.478-6.216-.84-1.34-1.26-2.678-2.079-3.558-.84-.9-2.079-1.799-2.498-2.678-1.26-2.679.42-3.998 1.659-5.337 1.659-3.118 1.239-6.676 2.078-10.234z" fill="#f9d3c1" fill-rule="evenodd"/><path d="M153.187 47.771c-1.679 1.34-3.758 1.779-5.836 2.678-.84.44-2.079.44-3.338 1.32-1.26.46-.84.46-.42 1.779.42 2.678 3.758 3.118 5.836 3.557.84 0 2.08.44 2.919.44.84.46 1.259 1.779 2.078 2.219zM113.95 50.41c0 .919-.419 1.818-.819 3.178 0 .899-.84 1.339-.42 2.258.42 1.8.82.9 1.66.9 1.239.44 1.639.9 2.878 1.339 0-1.34-2.878-1.8-1.24-4.497zm-1.178-.4c-2.979-2.239-3.838 4.937-1.7 6.716-.859-1.78 0-4.478 1.28-5.817z" fill="#f9d3c1" fill-rule="evenodd"/><path d="M147.23 52.248c-.399 0-.799 0-1.198.46-.4 0-1.2.44-1.6.44.8.44.8 1.339 1.2 1.339 0 .44.4.44.8.88 0-.88 0-2.659.799-3.119z" fill="#fff" fill-rule="evenodd"/><path d="M147.73 51.769c-.42.9-.859 1.339-.859 1.779-.44.899-.44 2.218 0 1.778.86 0 1.3-1.319 1.3-1.778.419-.44.419-1.32 0-1.78z" fill="#59b1df" fill-rule="evenodd"/><path d="M140.275 76.234c0 .44 2.079 2.178 3.758 3.498 1.659.88 3.318 1.299 3.737 1.299.82-.42.82-3.478.42-3.478-.84-.88-5.836-2.199-7.076-2.199z" fill="#f09caa" fill-rule="evenodd"/><path d="M93.903 48.69c3.838-4.437 2.139-10.633 3.418-15.95 0 5.757-.42 11.953 0 18.15zm8.395-2.278c1.639-3.998.82-8.895 0-13.352 1.639 3.118 2.459 8.475 3.278 12.472zm6.656-2.159c2.059-3.538 0-8.874-.82-12.872.82 3.558 2.06 6.676 3.278 10.214zm18.009-31.98c-3.338 4.437-5.836 9.314-6.676 15.51 2.499-5.317 3.758-12.852 9.994-15.05zm4.877 2.138c-2.498 1.8-3.758 4.478-4.597 7.136 3.778-2.658 4.597-7.575 9.194-8.475z" fill="#b08384" fill-rule="evenodd"/><path d="M130.6 11.793c3.779.9 5.038 0 7.976 3.138.84 1.34 2.499 2.239 2.499 4.018-1.66-2.679-6.277-2.679-7.536.44.42-.44 4.617-3.559 4.617-4.898-.42-2.238-2.938-.9-4.197-1.799zm15.811 2.638c2.899 1.78 2.899 4.897 2.479 7.995 1.659-2.218 2.498-3.997 4.977-4.877-2.479 0-2.479 1.78-4.557-.44-1.24-.899-1.24-1.778-2.899-2.678-.84 0-2.078.46-3.338 0zm-16.13 13.352c-3.778 1.34-9.654 3.118-11.353 7.116 2.538-2.659 7.575-5.777 10.933-3.098z" fill="#b08384" fill-rule="evenodd"/><path d="M125.564 32.7c-3.718 4.497-9.095 2.699-11.993-1.799 1.66 3.598 5.377 4.058 7.036 7.196zm-12.852 9.394c.42-2.698.42-5.416-.42-7.675 0 4.977 2.918 6.336 6.636 4.078z" fill="#b08384" fill-rule="evenodd"/><path d="M99.02 24.745c.4 5.297-2.079 11.033-.42 16.31zm5.417-2.638c-.86 4.457-.86 11.992 1.699 15.99zm2.818-1.04c0 3.598.84 7.616 2.478 11.193zm4.157-2.638c.44 4.477.88 8.934 3.039 12.952zM131.88 7.795c1.24-1.799 3.298-2.258 5.357-2.718zm2.559 2.319c1.659-2.259 4.957-2.718 7.435-1.799zm5.276.32c2.139 0 4.278 0 6.396.48zm-12.472 5.356c-2.479 2.659-3.318 5.757-4.158 9.275zm6.636.48c-2.419 0-4.457 4.437-5.277 6.636zM99.74 19.388c-1.22 2.199-2.459 3.958-3.278 7.036zm4.157-1.838c-2.399 3.137-3.198 5.816-3.598 9.833z" fill="#d2bab9" fill-rule="evenodd"/><path d="M143.073 76.234c.84.46 1.26 1.379 2.099 1.379.42.46 1.26.46 1.26-.46-.42-.46-1.68-.46-2.1-.46z" fill="#fff" fill-rule="evenodd"/><path d="M148.61 256.525c6.676-5.777 17.09-12.433 17.49-16.43l-7.496-7.976c-.42-.46-2.499 0-2.918-.46-8.735 4.898-17.49 13.333-21.247 22.207 0 .88 0 1.32.42 1.76 3.337 2.677 7.095 5.336 7.495 5.776.84.879-.4.44 6.256-4.877z" fill="#f2becd" fill-rule="evenodd"/><path d="M140.635 76.714c-.4-.46-.4-.92-1.24-1.38.84-.46 1.66 0 2.479 0z" fill="#f09caa" fill-rule="evenodd"/><path d="M48.61 396.04c-7.935 17.31-21.267 68.818-22.526 75.034-1.24 5.757-4.157 8.435-7.495 8.875-2.918.44-5.437 5.317.82 4.437 6.255-.879 9.174-6.656 9.593-9.314-1.659-7.555 0-9.334 2.499-19.988 2.918-10.653 10.853-30.182 15.03-45.292 4.158-15.091 10.414-23.966 16.67-31.521 6.257-7.995 7.916-14.651 7.916-15.97 0-1.78-2.499-1.78-5.417-2.24 2.499 7.116-10.414 17.77-17.09 35.979z" fill="#fad9c9" fill-rule="evenodd"/><path d="M49.77 361.381c.84.88 1.26 1.759 2.518 2.658 1.26 1.32 3.338 1.76 4.598 3.098 2.518 3.099.839 7.536 1.679 11.074 3.757-.88 9.194-11.074 7.955-15.071-.42-3.538-2.519-4.437-5.437-4.437z" fill="#fad9c9" fill-rule="evenodd"/><path d="M54.407 364.859c3.318 2.239.84 14.711-2.498 24.945-3.738 10.234 9.154-12.912 9.154-12.912l2.059-10.234z" fill="#fad9c9" fill-rule="evenodd"/><path d="M19.788 428.02c1.679-24.884 10.913-49.33 18.869-58.684-3.338 8.455-17.61 44.913-18.869 58.685z" fill="#fff" fill-rule="evenodd"/><path d="M131.06 364.859c2.1 4.017 2.5 8.455.42 17.35-2.078 9.334-9.154 34.678-9.994 57.345-.84 22.666.84 38.676 1.26 44.912.4 6.217 2.078 6.656 2.078 8.875 0 1.779-6.256 11.113-20.827 4.897-2.099-.88-1.26-2.219.42-4.437 2.078-2.679 2.898-9.335 3.737-5.337.42 3.998.42 9.334 4.578 8.435 4.597-.88 7.095-3.998 6.676-14.671-.84-10.214-5.417-65.78.84-83.13 6.235-17.33-2.1-14.671-5.418-18.669-3.338-3.997 7.916-10.673 7.916-10.673l.4-3.558z" fill="#fad9c9" fill-rule="evenodd"/><path d="M103.177 412.91c.4-6.676 0-13.332 0-17.79-.42-3.557-1.259-3.098-2.098-.44-2.519 10.674-4.617 32.461-1.68 48.451 0-3.098 2.939-16.89 3.778-30.221z" fill="#fff" fill-rule="evenodd"/><path d="M119.408 84.709c1.679 2.638 2.918 5.256 4.157 8.315.84-.42 1.26-1.3 2.079-2.18.42-.439 1.679-.879 2.079-1.758-1.24 0-2.08-1.3-2.479-1.739-2.079 2.618-3.758-1.32-5.417-1.759z" fill="#f9d3c1" fill-rule="evenodd"/><path d="M150.229 63.362c-1.64 2.238-.82 3.997 2.039 3.118-2.04.44-2.04-1.78-1.62-3.118z" fill="#fff" fill-rule="evenodd"/><path d="M171.036 316.088c-2.918-1.759-3.318-8.854-.42-11.972 3.339-3.098 21.228-15.53 27.464-19.528 0 0-18.309 10.213-25.784 14.65-7.496 4.438-8.755 6.657-7.496 9.755.42 2.658 2.918 6.656 6.236 7.095z" fill="#c2c2d8" fill-rule="evenodd"/><path d="M28.203 233.978c2.498 8.435-.42 19.528.84 28.403 1.239 10.654 2.918 20.847 4.996 31.061 1.66 9.315 2.499 19.069 4.997 28.403.82 4.437 2.08 8.875 3.318 13.312 1.68 7.975 2.1 11.073 9.575 10.194-4.578-3.098-14.152-15.97-5.817-22.187-2.498-2.658-4.997-5.317-5.836-9.754-.42-4.437 2.918-8.435 2.078-12.432-.4-2.22-3.318-4.438-4.157-7.096-.82-4.437.42-7.536 2.498-11.093-1.659-2.659-4.997-4.877-6.236-7.536-2.498-4.877-.84-6.216-1.26-11.093-.419-3.098-2.498-5.317-2.917-8.875-.4-3.558 1.259-7.095 0-10.653z" fill="#dad8ea" fill-rule="evenodd"/><path d="M111.133 230.3c7.915 5.337 10.833 30.682 11.653 40.016 1.259 15.55 2.918 31.121 3.757 46.672.42 6.676 1.24 13.332 1.66 20.008.419 4.877 2.078 15.99 0 20.447-3.339 7.096-29.583 5.777-35.42 2.219 10.015 0 34.6-7.116 23.766-22.666 4.578-3.998 7.916-16.45-.42-18.23 4.578-6.675 6.237-19.108-2.918-22.665 3.338-6.676 4.578-11.114 2.499-18.23-1.66-6.216-.84-9.334-.42-15.55.84-9.794-1.659-22.686-3.758-31.121z" fill="#b0b0d2" fill-rule="evenodd"/><path d="M190.245 324.563c4.997-2.658 21.607-12.452 24.085-14.231 2.499-1.799 3.738-6.236 2.499-8.915-.82-3.118-5.397-12.032-5.397-12.032s1.659 7.575-4.577 11.593c-6.636 3.997-20.768 12.012-20.768 12.012 6.236-3.558 12.473-3.997 14.132-.44 1.659 3.998-7.056 9.795-9.974 12.013z" fill="#264580" fill-rule="evenodd"/><path d="M194.722 304.895s10.074-5.736 12.592-7.955c2.919-3.098 1.26-8.835-.42-12.832 1.26 3.538 2.52 8.854-1.259 11.953-3.777 3.098-10.913 8.834-10.913 8.834z" fill="#7376a2" fill-rule="evenodd"/><path d="M164.42 299.219c-3.358-6.197-2.938-15.491-2.518-17.27 0 2.219 0 10.634 2.518 17.27zm22.787-28.943c2.118.46 5.896 3.138 9.674 8.955-1.26-1.34-6.297-7.596-9.674-8.955z" fill="#fff" fill-rule="evenodd"/><path d="M116.51 115.27c3.737 3.118 3.317-5.337 5.396-6.216 4.537-2.678.4 4.437-.42 5.776-3.318 5.337-3.737 11.573-3.737 17.79.42 7.555 0 16.01 1.259 23.565 1.639 9.355 3.718 19.129 5.377 28.463-.84-5.776-5.377-8.895-10.354-6.216 2.079-2.679 3.318-4.897 3.318-8.455 0-5.337-4.977-7.116-5.797-11.113-.42-2.219 1.64-3.998 1.64-6.237.42-3.557-2.899-6.216-2.899-9.334 0-3.118 2.079-6.216 2.499-9.334.82-3.118 0-5.777 1.239-8.455.82-2.219 2.079-3.998 2.478-6.216.42-2.239 0-2.239.42-4.018zm14.51 85.748c.42 1.78 2.1 2.219 3.359 3.558 2.098 1.779 2.938 3.118 4.617 5.777 2.518 3.997 4.197 8.894 7.115 12.432-2.918-1.759-4.597-4.877-7.115-6.656 2.518-4.437-2.519-7.116-5.877-6.656.84-4.018-.42-8.015-4.197-9.794z" fill="#eeaabe" fill-rule="evenodd"/><path d="M121.886 150.489c0 5.776 1.68 11.993 2.099 18.209.84 3.997 1.679 9.774 3.778 13.312 2.518-3.998.42-11.094-.42-15.53-1.26-6.217-3.358-11.114-5.037-16.45zM99.78 81.05c4.177 7.556 11.273 16.011 13.351 24.006 2.08 6.676 2.919 14.671 1.68 21.787 1.658-4.877 3.317-8.894 2.918-14.231-.42-4.877-2.1-9.774-4.178-13.772-1.679-3.558-5.017-6.676-7.096-10.234-1.239-2.218-2.498-4.457-3.757-6.236-1.24-1.779-2.918-3.558-3.758-5.337zm-70.758 54.668c-.42 4.897-3.338 9.334-5.426 13.781-2.509 4.887-2.929 6.227-1.67 12.443 2.09 8.445 3.758 18.669 7.516 26.224 2.499-6.666 0-18.219-.42-25.774-.42-6.227-1.669-16.89.84-22.667z" fill="#eeaabe" fill-rule="evenodd"/><path d="M133.959 38.896c-1.24 2.24-.82 8.475 2.478 8.036-.82 0-1.639.44-2.478.44-2.079-.88-1.24-2.66-2.079-4.458zm-3.359 7.516c-2.098.46-2.098 2.698-1.258 4.477-2.1 0-1.26-2.238-1.26-3.578zm-4.157 3.198c-2.458 1.32-1.219 3.958 0 5.277-1.219-.44-1.639-1.32-2.458-2.199-1.24.88-.84 2.638 0 3.518-1.24-.44-.84-1.759-2.059-.88-.42.44-.42 1.76-1.24 2.2-.419.439-.839.439-1.238.879.82-.88 1.639-2.639.82-3.958-.42.44-1.24 1.759-1.66.88 1.66-1.76 0-4.398 0-6.597zm-21.986 5.756c1.259 2.22 2.078 3.099 2.498 5.757.42 2.199.82 3.518 2.898 4.397-1.659-.44-1.659-3.078-2.078-4.397.42 0 .42.44.42.88.839-.88 1.658-.44 1.658.879 1.24-2.199-1.659-4.857-2.898-6.616z" fill="#bd9897" fill-rule="evenodd"/><path d="M105.736 56.646c-2.519.44-.42 4.437.4 5.756-2.08-.88-1.66-2.218-2.919-3.977-.4-.46-1.239-.46-1.659-1.34-1.259-.88-.839-2.218-.42-3.557z" fill="#bd9897" fill-rule="evenodd"/><path d="M102.298 57.185c-.8.9-1.22 2.659-.4 3.538-1.639-2.198-3.278-3.538-2.858-6.636z" fill="#bd9897" fill-rule="evenodd"/><path d="M116.93 67.36c-.86 0-2.16 2.678-.86 4.876-.42-.44-.42-3.977.86-4.877zm0-7.117c-.86 0-2.16 1.32-1.28 2.639 0-.88.42-2.639 1.28-2.639z" fill="#fff" fill-rule="evenodd"/><path d="m43.214 352.546-.4.9c.4 4.877-10.833 17.749-18.349 41.295-7.495 23.526-11.653 71.037-16.67 87.906 1.26 0 2.919.44 4.597 1.32 2.919 2.218 8.335 2.658 12.493 0 4.177-2.219 4.577-8.435 5.417-8.435.42 0 .42.44.42.44-.84-3.099-1.26-7.536 0-11.973 1.259-5.777 14.17-42.175 18.328-55.067 4.178-12.872 13.332-28.403 17.51-32.4 4.157-3.998 6.236-11.093 6.236-15.99 0 0 0 0 0 0-12.912-2.659-24.165-6.217-29.582-7.996" fill="none" stroke="#956152" stroke-width=".8" stroke-linecap="round" stroke-linejoin="round"/><path d="M30.661 214.79c7.916 6.216 37.897 19.508 76.594 3.558" fill="none" stroke="#955b77" stroke-width=".8" stroke-linecap="round" stroke-linejoin="round"/><path d="M132.7 363.58c-8.735 2.678-21.627 2.678-34.92.9v.879c.84 4.457 3.319 12.452 2.919 16.45-.42 3.997-7.915 23.985-5.417 50.629 2.499 26.664 7.895 48.87 5.417 63.961v.9c2.898 4.877 15.37 5.316 19.948 3.098 4.557-1.78 7.895-4.438 6.636-7.995-2.079-2.22-2.079-3.538-.42-3.998-1.659-.88-2.898-5.317-2.898-9.314 0-8.895-1.66-41.315 1.24-56.866 2.498-15.11 6.235-35.099 7.894-41.755 1.66-6.656.84-11.113-.4-16.89" fill="none" stroke="#956152" stroke-width=".8" stroke-linecap="round" stroke-linejoin="round"/><path d="M147.23 68.239c-1.638 1.339-3.717 3.977-4.956 4.877-1.24.88-4.138 1.759-4.557 4.397" fill="none" stroke="#c9a89c" stroke-width=".48" stroke-linecap="round" stroke-linejoin="round"/><path d="M146.911 81.07c-.84.44-2.538-.879-3.378-1.318-.84-.44-3.818-3.998-3.818-3.998m7.515 1.279c-.819 0-5.836-1.679-5.836-1.679m5.097 2.139c.42.9-.84.9-2.938-.46m6.716-25.704c-.4-.92-1.24 0-2.499.44-.82 0-3.338 1.359-3.338 1.359.84.9 2.1 3.598 4.178 2.258m1.979-5.876c-1.22-.46-4.917 1.36-6.157 2.259" fill="none" stroke="#956152" stroke-width=".48" stroke-linecap="round" stroke-linejoin="round"/><path d="M148.15 51.769c.44.9 0 3.158-.92 3.597m.48-3.597c-.42 0-.42.46-.42.9-.419.439-.859 1.778-.859 2.218" fill="none" stroke="#956152" stroke-width=".48" stroke-linecap="round" stroke-linejoin="round"/><path d="M131.08 89.506c-4.197-.88-4.617-3.098-6.316-3.998" fill="none" stroke="#956152" stroke-width=".8" stroke-linecap="round" stroke-linejoin="round"/><path d="M147.71 57.085c-1.239.44-4.157-3.557-4.157-3.557" fill="none" stroke="#c8a699" stroke-width=".48" stroke-linecap="round" stroke-linejoin="round"/><path d="M114.39 50.41c0 2.238-1.658 2.238-2.498 4.037 0 .9 0 1.799.84 2.239.42.9.84.44 1.659.44.84.46 3.737 2.238 2.918.46-.42-.9-1.66-1.34-1.66-2.24 0-.899.4-1.798.4-2.698" fill="none" stroke="#bd9688" stroke-width=".48" stroke-linecap="round" stroke-linejoin="round"/><path d="M119.887 61.543c.4 3.538-2.938 3.977-4.597 3.098-1.26-.88-2.099-2.659-2.938-3.538-.42-.46-1.24-.9-1.66-1.34-1.258-1.338-7.115-10.653.84-12.871m43.214 21.826c-1.22-1.779-3.298 0-4.517-.44-2.079 0-3.318-2.238-1.659-4.037" fill="none" stroke="#956152" stroke-width=".8" stroke-linecap="round" stroke-linejoin="round"/><path d="M150.589 50.09s-.44.8-.88.8m.001-1.36c0 .46-.4 1.36-.8 1.36m-.32-.48c0 .46-.44.919-.88 1.359" fill="none" stroke="#956152" stroke-width=".48" stroke-linecap="round" stroke-linejoin="round"/><path d="M111.013 57.045c-.82-.879-2.079-4.437-1.24-6.216.84-1.319 2.919-1.779 3.318-1.319" fill="none" stroke="#bd9688" stroke-width=".48" stroke-linecap="round" stroke-linejoin="round"/><path d="M155.546 48.73c.84 0 1.259-.48 1.679-.959m-1.999 2.319c.88 1.299.88 1.739.44 4.317" fill="none" stroke="#956152" stroke-width=".48" stroke-linecap="round" stroke-linejoin="round"/><path d="M96.941 62.922c4.158 2.658 10.814 8.435 16.63 15.97 5.417 6.216 7.496 12.433 9.155 15.97 0 0 5.816-5.756 8.714-5.316 3.758.88 6.237.44 7.496.88 1.659 1.338 4.977 0 6.236-1.32 1.659-1.779.82-3.558.82-4.877.42-1.34 2.078-2.678 2.498-3.558.42-.44 0-2.658-.84-3.098l-.4-.46c.4 0 1.66-.44 1.66-.44s.82-.44 1.239-1.319c0-.46.42-1.779.42-2.678.42-.44 1.239-2.658 2.498-2.658 1.24 0 2.499.44 4.158 0 2.078-.44 2.478-3.099 2.078-4.438-.42-1.319-2.918-8.435-4.157-12.412-.84-3.558.42-5.777 1.24-7.556.419-1.319.839-6.656 0-12.412-.42 0-.42-.46-.82-.46" fill="none" stroke="#956152" stroke-width=".8" stroke-linecap="round" stroke-linejoin="round"/><path d="m121.406 93.503 1.36 1.36c0-.44-.44-.9-.44-1.36h-.92m5.877-2.158s0 0 0 0c-2.039 1.339-4.517 3.537-4.517 3.537s0 0 0 0c1.239 2.659 2.058 5.297 2.478 7.496.4 0 3.278 0 3.678-.88 0-4.397 0-6.616-1.64-10.153m-46.971 65.64c-2.078-2.179-10.473-4.797-13.831-1.3" fill="none" stroke="#955b77" stroke-width=".8" stroke-linecap="round" stroke-linejoin="round"/><path d="M148.91 23.786c-1.64-.88-2.059-2.679-2.898-4.018-2.06-2.678-4.977-5.796-8.295-6.696" fill="none" stroke="#d2bab9" stroke-width=".48" stroke-linecap="round" stroke-linejoin="round"/><path d="M107.735 218.787c-3.318-7.975-9.994-11.093-10.414-13.751-.42-2.659-2.498-15.53-3.758-18.649-1.239-3.538-7.075-14.631-9.154-19.528-2.099-4.877-7.516-16.85-7.935-18.629 0-1.339-.82-4.437-5.837-11.553" fill="none" stroke="#955b77" stroke-width=".8" stroke-linecap="round" stroke-linejoin="round"/><path d="M173.855 277.952c-.82-.88-3.298-3.578-4.957-5.837m14.152 3.998s-1.62-.88-3.679-1.32c-.82-.44-2.038-1.778-3.278-2.678m-1.679-2.159c-.44-.44-.44-.9-.88-1.359" fill="none" stroke="#956152" stroke-width=".8" stroke-linecap="round" stroke-linejoin="round"/><path d="M178.572 276.113c0 .86 0 1.279-1.36 1.279" fill="none" stroke="#956152" stroke-width=".48" stroke-linecap="round" stroke-linejoin="round"/><path d="M181.37 266.758c-1.24-1.319-1.639-1.759-2.478-3.098-1.24-1.319-2.06-3.977-3.298-6.196-1.24-2.219-2.08-4.437-3.738-6.216m-3.718 28.422c-.82-1.339-3.318-4.497-5.397-5.396.84 1.799 1.66 2.698 3.318 3.598 1.26.899 2.08 2.238 3.318 2.238" fill="none" stroke="#956152" stroke-width=".8" stroke-linecap="round" stroke-linejoin="round"/><path d="M183.529 264.92c-2.099-1.26-2.958-2.519-2.099-2.959" fill="none" stroke="#956152" stroke-width=".48" stroke-linecap="round" stroke-linejoin="round"/><path d="M158.604 232.1c-.42-.46-2.499 0-2.918-.46-3.318-3.099-5.837-6.217-7.496-9.754-2.498-6.676-9.994-16.89-13.751-20.888-3.338-3.997-4.578-7.995-6.656-12.872-.42-.44-.42-1.34-.84-2.219 1.24-.9 4.577-9.334.42-23.086-1.68-6.216-3.338-13.332-6.676-21.766-.82-3.119-.42-7.996-.82-11.993v-1.34h-.42v-2.218c.82-12.433 7.496-14.211 6.237-17.75-2.499-4.457-7.076 2.22-6.656 6.657-.84-2.679 0-6.656-3.338-12.893-9.994-17.749-22.906-33.74-25.824-38.636 0 0 0 0 0 0-23.766 2.239-50.43 30.661-55.427 55.087-4.997 23.965-3.338 27.963-2.498 70.597 0 9.334-9.595 21.767-2.499 26.204l.84.9c.4-.46.4-.9.4-.9 7.915 6.216 37.916 19.548 76.673 3.558 0 0 0 .44.42.44 0 .44.42.899.84 1.339v.88c.419.439.419.899.819.899.42.44.42.879.84.879 0 .44.419.88.419 1.34.42 0 .84.439.84.879l.819.9c.42.439.84.879.84 1.318.42 0 .42.44.839.9.42.44.82.88 1.24 1.319l.419.46c.42.88 1.26 1.319 1.659 1.759v.46c.84.879 1.26 1.319 2.099 2.218 5.416 6.216 11.253 11.993 12.492 13.752.42.9.84 1.779 1.659 2.678.84.88.42 3.998 1.26 4.877 3.337 2.678 7.075 5.337 7.495 5.777.84.879-.42.44 6.256-4.877 6.656-5.777 17.09-12.433 17.49-16.43-2.5-2.679-4.998-5.337-7.496-7.996" fill="none" stroke="#955b77" stroke-width=".8" stroke-linecap="round" stroke-linejoin="round"/><path d="M29.482 199.28c1.26-3.539 2.519-7.096 2.519-10.654-.84-42.674-2.519-46.672 2.518-70.657.42-2.22 1.24-4.458 1.66-6.237-4.178 8.015-8.796 21.787-11.734 26.664-3.778 6.236-8.814 10.234-7.975 17.79 1.679 21.766 11.333 33.32 13.012 43.093m90.805-57.805c.82 6.236 2.878 28.903 6.956 45.333" fill="none" stroke="#955b77" stroke-width=".8" stroke-linecap="round" stroke-linejoin="round"/><path d="M148.11 258.363c.84 2.22 1.68 5.777 3.338 8.455 2.079 3.118 3.318 4.438 4.577 6.217 1.66 1.778 4.578 5.776 6.237 6.675 1.239.44 4.577.88 5.396.88 1.26 0 5.837-1.32 6.257-1.779v-.88c2.078 2.22 5.396.88 5.816.44.84 0 1.24-.88 3.318-2.658.42.44 1.26.44 2.079 0 .42-.44.84-.9 1.259-1.34.42-.439.82-1.338.82-1.778-.4-.88-2.08-2.219-2.899-2.659-2.078-.899-1.659-1.779-3.338-4.017 5.417.9 1.26-3.098-.4-5.337-1.678-2.219-2.498-4.437-4.577-6.216-2.078-1.78-4.577-5.337-6.236-6.216-1.679-.9-3.758-2.679-5.836-4.018M156.105 32.66c1.64.88 4.098 3.558 3.678 4.877 2.039-1.759 3.678-2.218 3.278-5.317 0-2.218-2.458-3.997.8-5.776-1.22-2.678-3.658-3.998-3.258-8.015" fill="none" stroke="#956152" stroke-width=".8" stroke-linecap="round" stroke-linejoin="round"/><path d="M138.916 90.385c-1.68-.88-4.617-3.538-5.037-3.997" fill="none" stroke="#956152" stroke-width=".48" stroke-linecap="round" stroke-linejoin="round"/><path d="M147.23 69.998c-.819-.44-1.658-2.639-2.897-1.76-1.26 1.32 1.239 3.079 1.659 3.519m3.398-7.037h-2.479m-37.178-7.994c.84-.44 1.26-.44 1.68-1.36m3.357-3.997h-1.199m33.659 5.357c0 .4-.319.4-.319.8m-21.667 28.862c.4-.42.8-1.26 1.2-1.68" fill="none" stroke="#fcebe2" stroke-width=".8" stroke-miterlimit="8"/><path d="M111.512 225.044s0 0 0 0c0-.44-.4-.88-.82-.88 0-.44-.419-.9-.419-1.339-.42 0-.42-.44-.84-.88-.42 0-.42-.44-.839-.899v-.88c-.4-.44-.82-.899-.82-1.339-.42 0-.42-.44-.42-.44-37.516 15.551-67.118 3.119-75.873-3.117l-1.26.46c-2.918 7.994-8.754 26.203-1.239 71.496 7.076 41.755 12.093 52.868 11.673 62.202-.84 3.538 1.24 3.098 2.08 3.098 14.17 4.438 66.279 18.649 90.045 11.114 1.659-.9 1.659-3.118 1.659-5.337-1.24-16.87-4.578-67.52-10.414-98.16-3.338-16.43-6.676-27.984-12.513-35.1" fill="none" stroke="#00609a" stroke-width=".8" stroke-linecap="round" stroke-linejoin="round" stroke-miterlimit="10"/><path d="M24.505 472.793c-2.119 4.058-2.958 5.837-5.517 5.397" fill="none" stroke="#cbaa9d" stroke-width=".8" stroke-linecap="round" stroke-linejoin="round" stroke-miterlimit="10"/><path d="M135.238 250.768c1.679-5.317 15.03-16.85 19.188-18.629" fill="none" stroke="#fff" stroke-width=".8" stroke-linecap="round" stroke-linejoin="round" stroke-miterlimit="10"/><path d="M143.073 49.53c2.958-4.357 6.736-4.797 7.995-4.797" fill="none" stroke="#cbaa9d" stroke-width=".48" stroke-linecap="round" stroke-linejoin="round" stroke-miterlimit="10"/><path d="M146.431 53.128c0-.22.18-.4.4-.4.24 0 .4.18.4.4 0 .24-.16.4-.4.4-.22 0-.4-.16-.4-.4z" fill="#fff" fill-rule="evenodd"/><path d="M147.23 53.967c0-.24.2-.44.44-.44.26 0 .44.2.44.44 0 .26-.18.44-.44.44-.24 0-.44-.18-.44-.44z" fill="#220504" fill-rule="evenodd"/><path d="M186.927 304.975c-.84-1.319-.42-3.078.82-3.957 1.218-.44 2.877 0 3.277 1.319.82 1.319.42 2.638-.82 3.518-1.239.88-2.878.44-3.277-.88" fill="none" stroke="#fff" stroke-width=".48" stroke-linecap="round" stroke-linejoin="round" stroke-miterlimit="10"/><path d="M109.833 487.505c-.42 3.577-.42 6.695 2.939 8.474" fill="none" stroke="#cbaa9d" stroke-width=".8" stroke-linecap="round" stroke-linejoin="round" stroke-miterlimit="10"/><path d="M127.283 492.422c1.24 3.557-2.079 6.196-6.636 7.995-4.597 2.198-17.51 1.759-20.428-3.118-1.639 3.997-3.757 12.392-2.078 16.83 1.679 4.437 9.154 6.635 18.748 5.756 9.554-1.32 14.551-3.078 23.706-4.877 8.754-1.76 18.349-4.397 21.267-9.714 2.878-5.317-.44-9.315-2.918-10.634-2.919-1.359-10.434-.44-16.27-2.238-5.397-1.32-10.794-3.518-13.712-3.958-2.918-.48-4.997.44-1.68 3.958" fill="none" stroke="#5d5a76" stroke-width=".8" stroke-miterlimit="8"/><path d="M127.723 493.261c3.338 3.198 12.932 4.557 15.43 3.198 2.079-.92.84-3.198.84-3.198" fill="none" stroke="#5d5a76" stroke-width=".8" stroke-miterlimit="8"/><path clip-path="url(#a)" d="M162.661 502.136c0 .92-.4 2.238-.84 3.118-2.917 5.357-12.472 8.035-21.226 9.794-9.155 1.799-14.152 3.598-23.706 4.917-9.154.88-16.67-.88-18.748-5.357l-.4.44c-1.28 4.037.4 6.236 2.918 8.914 2.878 2.679 10.793 3.998 14.151 2.679 3.318-1.76 3.718-2.679 5.397-3.558 4.158-1.32 9.554-2.678 15.39-3.998 8.316-1.359 21.228-4.037 24.586-8.914 2.878-4.917 2.478-8.035 2.478-8.035M5.677 483.987c-1.26 3.997-2.519 11.573-1.26 15.57 1.68 3.578 6.257 4.458 10.434 4.458 4.597.44 9.174-1.34 12.932-3.558 3.758-2.219 8.355-4.018 11.693-4.897 2.918-.44 7.915-3.118 10.414-6.676 2.918-4.018 1.259-11.573-4.158-12.033-5.017-.44-7.515.46-10.853.46-2.918.44-3.338-1.8-4.597-1.8-.82 0-1.24 6.237-5.417 8.476-4.178 2.658-9.594 2.218-12.512 0-2.919-1.78-6.257-2.239-6.676 0" fill="none" stroke="#5d5a76" stroke-width=".8" stroke-miterlimit="8"/><path d="M30.342 480.349c4.157.44 8.734 0 9.554-1.32 1.24-.879.42-1.758.42-1.758" fill="none" stroke="#5d5a76" stroke-width=".8" stroke-miterlimit="8"/><path clip-path="url(#a)" d="M50.63 485.266c0 1.34 0 2.239-.84 3.578-2.499 3.578-7.496 6.256-10.414 6.696-3.338.9-7.915 2.678-11.673 4.917-3.738 2.218-8.315 4.017-12.912 3.558-4.157 0-8.735-.88-10.414-4.458-.42 3.118 0 4.917 1.68 6.696 1.239 2.219 5.416 3.558 11.652 2.679 5.837-.9 5.837-1.34 7.096-1.78 1.24-.899 1.24-3.137 2.898-4.017 1.68-.46 3.758-2.239 9.175-3.578 5.416-1.339 10.833-5.357 12.912-8.035 1.659-1.779 1.659-4.457.84-6.256" fill="none" stroke="#5d5a76" stroke-width=".8" stroke-miterlimit="8"/><path d="M132.72 493.86c-1.24.88-3.758 4.838-.82 5.277 2.499 0 2.499-4.397 3.758-5.276.82 1.319.82 2.638.82 4.397M31.98 478.67c-1.279 4.437 2.56 4.877 2.14.9" fill="none" stroke="#8186b1" stroke-width="1.679" stroke-linecap="round" stroke-linejoin="round" stroke-miterlimit="10"/><path d="m209.333 286.326-2.498-4.437c-2.499-1.319-5.817-1.779-8.735 0l-31.241 18.21c-2.898 1.758-4.577 4.876-4.997 7.974l2.498 4.438c2.499 4.877 7.916 7.095 12.093 4.437l29.562-16.85c4.577-2.678 5.817-8.875 3.318-13.772" fill="none" stroke="#fff" stroke-width=".8" stroke-linecap="round" stroke-linejoin="round" stroke-miterlimit="10"/><path clip-path="url(#a)" d="M217.728 299.199c2.499 4.877.84 10.653-3.758 13.312L182.69 330.7c-4.578 2.658-10.414.899-12.913-3.978l-6.676-12.872c-2.518-4.877-.84-11.093 3.738-13.752l31.3-18.189c4.578-2.678 10.415-.9 12.913 3.978l6.676 13.312z" fill="none" stroke="#001b49" stroke-width=".8" stroke-linecap="round" stroke-linejoin="round" stroke-miterlimit="10"/><path d="M187.686 303.176c0-.24.2-.44.44-.44.26 0 .44.2.44.44 0 .26-.18.44-.44.44-.24 0-.44-.18-.44-.44z" fill="#fff" fill-rule="evenodd"/><path d="M187.686 303.176c0-.24.2-.44.44-.44.26 0 .44.2.44.44 0 .26-.18.44-.44.44-.24 0-.44-.18-.44-.44" fill="none" stroke="#fff" stroke-width=".8" stroke-linecap="round" stroke-linejoin="round" stroke-miterlimit="10"/><path d="M90.625 56.646c1.68-.88 2.519.44 3.778 1.759.42-2.2 3.358-3.079 5.017-2.2 0-.879-.4-1.758-.82-2.198-1.259-1.759-2.098-3.957-3.358-5.277-2.518-2.638-3.777.88-3.777 3.518z" fill="#bd9897" fill-rule="evenodd"/><path d="M75.594 39.776c1.68-3.078 1.26-6.156 4.597-8.355 3.338-1.32 6.676-.44 8.755 2.638-1.24.44-7.495-2.638-4.577 1.76-1.26-1.76-4.597-3.519-4.178 0-1.259-2.64-3.338.439-2.918 2.198z" fill="#d2bab9" fill-rule="evenodd"/><path d="M94.003 46.912c1.24.879 3.318 1.778 3.738 3.557.4 1.78 0 4.458-.84 5.357-1.659 3.118-6.236 4.457-9.134 4.897-2.499 0-5.817-1.319-7.895-2.658-2.499-1.34-3.318-3.138-3.318-5.817-.42-2.218-3.758-7.135-2.08-8.475 0 5.357 4.138 9.815 9.555 11.613 4.977 1.34 10.374-.46 10.374-6.256z" fill="#b08384" fill-rule="evenodd"/><path d="M96.941 62.882s1.2-2.599.4-4.797" fill="none" stroke="#956152" stroke-width=".8" stroke-linecap="round" stroke-linejoin="round" stroke-miterlimit="10"/><path d="M90.185 32.68c1.68 3.558 2.519 7.556 3.358 11.093.84 3.998-.42 7.996-.42 11.993.84-.44 2.1-1.319 2.519-2.218.84-.88 0-2.22 1.679-2.659-.42-2.218-1.26-3.118.42-5.337-2.099 0-2.099-1.319-2.519-3.098-.42-1.779-.42-2.218-1.259-3.997-.84-1.78-.84-2.219-2.099-3.558-.84-.88-1.679-1.78-2.118-3.118z" fill="#b08384" fill-rule="evenodd"/><path d="M92.344 37.537c0 2.219.84 8.875-3.398 7.096 4.657-1.32 4.238 4.437.86 6.656 1.259-1.32 2.538-.44 2.538.88 0 1.778-2.119 3.557-2.958 4.437 1.26.44 3.378 0 4.657-1.32 2.099-2.218 0-5.776.84-8.434z" fill="#b08384" fill-rule="evenodd"/><path d="M129.402 43.833c-.4 2.22-3.738 3.558-4.997 4.897-1.24 2.22-.82 3.998-2.899 5.337-2.498-.9-2.098-4.017-3.757-6.236-1.24-1.34-4.158-3.118-6.257-2.678-1.659 0-4.577 2.238-5.396 4.017-1.26 3.558.82 4.457 1.239 7.116-1.24-2.219-4.158-2.219-6.236-1.34-2.499 1.34-4.597 1.78-7.516.9.84-1.779 2.099-4.457 2.099-6.236.4-2.219 0-3.998 1.24-5.777 0 1.78 1.258 6.676 3.337 5.337 1.66-.44 3.738-4.897 4.577-6.676-.839 1.78 1.26 3.558 2.499 3.118 1.26-.46 2.918-4.017 2.918-5.356.42 2.678 3.738 1.799 4.997.9 1.66 1.338 5.837 1.338 7.496 0z" fill="#b08384" fill-rule="evenodd"/><path d="M98.62 54.407c0 1.34.84 2.678 2.099 3.118-.42-.88-.42-1.34 0-1.779.4.44.82 1.78 1.659 1.78-.84-4.438 5.417.879 6.236.879-1.24-2.659-3.318-4.877-3.318-7.996z" fill="#b08384" fill-rule="evenodd"/><path d="M114.77 70.237c0-2.118.94-3.837 2.08-3.837 1.158 0 2.078 1.719 2.078 3.837 0 2.14-.92 3.838-2.079 3.838-1.14 0-2.079-1.699-2.079-3.838m0-8.474c0-1.1.94-2 2.08-2 1.158 0 2.078.9 2.078 2 0 1.119-.92 1.998-2.079 1.998-1.14 0-2.079-.88-2.079-1.998m2.16 1.998.159 2.639" fill="none" stroke="#956152" stroke-width=".48" stroke-linecap="round" stroke-linejoin="round" stroke-miterlimit="10"/><path d="M88.946 31.78c1.7 2.66 3.818 5.757 7.196 5.318m-2.559-.04c0 2.258 1.24 5.856 2.879 7.195m-.78-.48c-.42 2.699.84 4.917 1.26 7.596" fill="none" stroke="#956152" stroke-width=".8" stroke-linecap="round" stroke-linejoin="round" stroke-miterlimit="10"/><path clip-path="url(#a)" d="M156.805 33.16c1.24 1.34 3.318 3.098 2.898 4.437 2.079-1.779 3.758-2.218 3.338-5.317 0-2.218-2.498-3.997.82-5.776-1.24-2.658-3.738-3.998-3.318-7.995l-1.24.9c.82-.44-.42-2.66-.42-3.559-1.678 2.219-3.337 0-4.996-.88-.84-.439-1.66-1.778-1.26-3.117-.819 2.678-6.236-3.538-7.895-4.437-2.918-1.76-5.816-2.659-8.734-3.978-2.499-.9-5.837-2.219-8.315-1.34-1.68.88-.84.44-2.499 0-4.997-1.338-10.813 0-16.65 1.34-3.738.88-7.895 4.437-10.813 7.535-3.738 3.558-7.915 9.754-9.155 15.53 0 1.34-.42 2.66-.84 3.999-.399-.44-1.238-.9-1.658-1.34-3.318-.88-6.656.44-8.735 2.659-3.738 4.437-5.417 10.214-4.157 15.99.84 5.317 3.318 11.533 8.315 13.312 4.577 1.759 11.233 0 15.39-2.678l.42-.44" fill="none" stroke="#956152" stroke-width=".8" stroke-linecap="round" stroke-linejoin="round" stroke-miterlimit="10"/><path d="M101.459 70.877c.819-.9 1.239-.9 1.639-1.779v-.9l-.4.44c-.42 0-.82-.88-1.24-1.319.82-.46 1.24-.46 1.64-.46-.4-.44-.4-.44-.4-.879-.82-.9-1.66-.46-2.059-.46-.84-.44-2.059-.88-2.478-1.779-.82-.88-1.66-1.339-2.06-1.339-.839.46-.419 1.8 0 2.679.82.899 1.64 1.339 1.24 2.238l-.84.88.42.44c0 .46.42.46.82 1.339.42.899.42 1.339 1.239 1.779 0 0 .42-.44 1.24 0 .419 0 .819 0 1.239-.88z" fill="#ffecc6" fill-rule="evenodd"/><path d="M102.718 68.718c.44 0 .86-.92.86-1.379-.42-.46-.86-.46-2.16 0 .44.46.88 1.38 1.3 1.38z" fill="#ffecc6" fill-rule="evenodd"/><path d="M46.492 220.946c.42 0 1.26-.32 1.679 0m54.607-152.228c-.42 0-1.26-1.339-1.26-1.799 0-.899-1.259 0-1.679 0-.839-.44-3.377-3.158-2.938-3.158m.36 2.319c.86 1.3 1.699 1.3 1.699 2.159.42 1.299 0 1.299.84 1.739.839.42 1.259 0 2.098 0" fill="none" stroke="#58585a" stroke-width=".48" stroke-linecap="round" stroke-linejoin="round" stroke-miterlimit="10"/><path d="M100.3 68.239c.799.86.399 1.279 0 1.279m-4.598.879c-.46 0-.92.46-.46.92.46.92.9 0 .9 0m6.576-2.599c.44 0 .86-.92.86-1.379-.42-.46-.86-.46-2.16 0 .44.46.88 1.38 1.3 1.38" fill="none" stroke="#58585a" stroke-width=".48" stroke-linecap="round" stroke-linejoin="round" stroke-miterlimit="10"/><path d="M101.459 70.877c.819-.9 1.239-.9 1.639-1.779v-.9l-.4.44c-.42 0-.82-.88-1.24-1.319.82-.46 1.24-.46 1.64-.46-.4-.44-.4-.44-.4-.879-.82-.9-1.66-.46-2.059-.46-.84-.44-2.059-.88-2.478-1.779-.82-.88-1.66-1.339-2.06-1.339-.839.46-.419 1.8 0 2.679.82.899 1.64 1.339 1.24 2.238l-.84.88.42.44c0 .46.42.46.82 1.339.42.899.42 1.339 1.239 1.779 0 0 .42-.44 1.24 0 .419 0 .819 0 1.239-.88" fill="none" stroke="#58585a" stroke-width=".48" stroke-linecap="round" stroke-linejoin="round" stroke-miterlimit="10"/><path d="M49.03 354.685c-1.739.9-1.739 4.038-.42 5.377 0-.88-.44-5.837 1.72-4.937z" fill="#fff" fill-rule="evenodd"/><path d="M96.941 62.922c-3.338-3.558-7.515-.88-7.515-.44 1.679 3.098 15.43 19.968 26.284 39.036 3.338 6.217 2.498 10.194 3.338 12.853-.42-4.418 4.157-11.533 7.076-6.197-.82-6.656-3.318-18.189-12.493-29.282-5.856-7.535-12.512-13.312-16.69-15.97z" fill="#eca0b6" fill-rule="evenodd"/><path d="M96.941 62.922c-3.338-3.558-7.515-.88-7.515-.44 1.679 3.098 15.43 19.968 26.284 39.036 3.338 6.217 2.498 10.194 3.338 12.853-.42-4.418 4.157-11.533 7.076-6.197-.82-6.656-3.318-18.189-12.493-29.282-5.856-7.535-12.512-13.312-16.69-15.97" fill="none" stroke="#955b77" stroke-width=".8" stroke-linecap="round" stroke-linejoin="round" stroke-miterlimit="10"/><path d="M30.701 213.47c6.676 5.337 29.582 15.99 59.964 8.895m55.486 34.279c.42-.44 1.24-.879 1.66-1.339 4.137-3.558 9.913-8.035 13.611-11.613" fill="none" stroke="#f2becd" stroke-width="1.679" stroke-miterlimit="8"/><path d="M143.973 259.743c.84.88-2.099 2.218 4.597-3.139 6.676-5.816 15.85-11.632 15.85-15.67" fill="none" stroke="#955b77" stroke-width=".8" stroke-linecap="round" stroke-linejoin="round" stroke-miterlimit="10"/><path d="M113.111 83.85c-5.396-7.996-12.452-15.092-15.37-17.77 4.997 2.678 15.37 8.895 24.085 29.322.82 2.219 1.24 4.437 2.059 6.656-3.718-4.877-4.557-9.314-10.774-18.209z" fill="#f6d2db" fill-rule="evenodd"/><path d="M42.814 352.546c14.171 4.438 66.22 18.63 89.946 11.094" fill="none" stroke="#00609a" stroke-width=".8" stroke-linecap="round" stroke-linejoin="round" stroke-miterlimit="10"/><path d="M42.854 351.227c14.171 4.457 66.22 18.709 89.946 11.153" fill="none" stroke="#c6c5df" stroke-width="1.679" stroke-miterlimit="8"/><path d="M30.661 214.79c7.916 6.216 37.897 19.508 76.594 3.558" fill="none" stroke="#955b77" stroke-width=".8" stroke-linecap="round" stroke-linejoin="round" stroke-miterlimit="10"/><path d="M122.346 97.121c.84 1.32 2.099 6.636 2.099 7.516-.84-.88-4.198.44-4.618 3.098-.42-2.659.84-4.418.84-6.197.42-1.319.42-4.877-2.938-10.193z" fill="#f6d2db" fill-rule="evenodd"/></svg>