<svg xmlns="http://www.w3.org/2000/svg" version="1.0" viewBox="0 0 194.759 498.822"><path d="M182.09 497.818c-7.956-22.626-21.227-37.897-39.297-43.533-30.261-9.075-43.573.56-54.167 8.475-3.717 2.838-7.435 5.636-11.713 7.355-3.717 1.68-9.034 2.279-12.752 0-11.673-7.915-21.787-23.186-21.787-54.887L41.854 396c0-8.515 2.12-21.507 4.798-35.099 2.638-12.992 5.836-27.143 5.836-40.735 0-11.313-2.678-20.348-5.836-30.542-4.278-14.151-11.154-29.422-6.916-48.65 1.599-6.236 6.356-16.43 7.435-30.022C51.97 154.946 51.41 48.011 51.41 21.987c0-.56-.52-1.12-.52-1.68 0-2.278-1.599-.599-2.638-1.718-2.159-1.68-1.08-2.239-2.679-2.839-1.599-.56-2.638 1.16-4.237 0-1.6-.56-.52-2.238-3.198-2.798-2.639-.6-2.639 1.68-4.797 1.68-2.639 0-2.639-1.68-5.277-1.12-2.159 0-1.599 1.679-3.718 2.238-2.158.6-2.678-.56-4.277 0-1.6.6-1.6 2.28-2.639 3.398-1.079.56-2.118.56-2.678 1.16-.52.56-.52 1.119-.52 1.679 0 26.024 0 131.84 4.238 188.405 1.08 13.592 5.876 24.346 6.916 30.582 4.237 19.228-2.639 34.5-6.357 48.65-3.198 10.194-5.876 19.229-5.876 30.542 0 13.592 3.198 27.743 5.876 40.735 2.639 13.592 3.718 28.863 3.718 34.54-.56 5.076-1.08 20.347-1.08 20.347 0 24.345 1.6 48.09 20.189 69.598 3.717 4.517 6.915 8.475 9.554 12.432z" fill="#d794a2" fill-rule="evenodd"/><path d="M43.054 291.224c1.04.56 2.638-2.24 2.638-5.077-2.118-6.796-4.237-13.592-5.836-20.948h-.56s-1.599 3.958-5.836 3.958c-4.797 0-4.797-.56-4.278-7.915 1.08-6.796.52-16.39-2.118-24.905-2.16-7.915-5.357-11.313-5.877-24.905-.52-9.594-4.277-56.566-5.876-87.707.56 31.141 1.599 63.402 3.198 86.588 1.08 13.591 5.876 24.345 6.956 30.581 4.237 18.07-1.6 32.22-5.877 45.812 10.114 1.72 22.906 3.958 23.466 4.517z" fill="#c75f7a" fill-rule="evenodd"/><path d="M45.692 286.267c-1.04-3.998-2.638-7.956-3.677-11.953-1.6-.56-4.278-1.12-4.798-1.12-2.638-.56-6.875 1.12-8.994.56-.56-.56-2.119-4.517-2.678-7.395-1.56 7.395-3.678 13.671-5.837 20.467 1.08 0 2.159 0 3.198.56 3.718-3.958 6.916-6.236 13.272-3.958 3.158 1.12 5.837 3.958 8.995 4.517 0-.56.52-1.119.52-1.678z" fill="#ab0a53" fill-rule="evenodd"/><path d="m23.866 393.122-5.837 22.746 6.916 6.236c.52-12.472 5.277-36.378 16.91-25.544v1.119c0-2.279-.52-5.117-.52-7.396-1.04-1.679-2.119-2.838-2.119-2.838l-11.633-.56-3.717 6.237z" fill="#c75f7a" fill-rule="evenodd"/><path d="M47.691 492.222c-5.796-10.714-15.35-25.985-18.549-39.017-4.237-18.069-5.276-37.297-1.599-45.812h-5.276c-.56 4.557-.56 8.515-.56 8.515 0 24.305 1.599 48.05 20.188 69.558 2.118 2.238 4.237 4.517 5.796 6.756z" fill="#c75f7a" fill-rule="evenodd"/><path d="M22.866 396.68c.52 2.838-1.599 14.151-1.599 22.066.52-1.679 2.639-11.873 2.639-14.151 1.079-3.398 2.678-15.83 8.514-16.39 5.317-1.16 7.956 1.12 9.555 2.238 1.079-2.838-.52-.56 0-3.398s1.079-5.077 1.599-7.915v-2.278c0-.56.52-1.68.52-2.799.519-1.719 1.079-3.398 1.079-5.117 0-.56 3.158-11.313 2.638-11.313-1.04-1.159-9.035 11.313-10.074 11.873-3.718 1.719-6.916 3.958-10.114 6.796-2.638 1.719-4.757-7.915-6.876-10.194l-.56 12.473c1.08 6.236 2.16 12.432 2.68 18.109z" fill="#ab0a53" fill-rule="evenodd"/><path d="M32.82 1C15.31 1 3.078 8.874 2.518 20.107h12.233c.56-.56 1.6-.56 2.678-1.12 1.04-1.119 1.04-2.798 2.639-3.357 1.599-.56 2.159.56 4.277 0 2.119-.56 1.6-2.24 3.718-2.24 2.638-.559 2.638 1.12 5.317 1.12 2.118 0 2.118-2.238 4.757-1.679 2.678.56 1.599 2.239 3.198 2.799 1.599 1.119 2.678-.56 4.277 0 1.6.56.52 1.119 2.639 2.798 1.08 1.12 2.678-.56 2.678 1.679h12.193C62.602 8.875 50.369.999 32.82.999z" fill="#f8edee" fill-rule="evenodd"/><path d="M45.612 286.267c-1.079-2.839-3.198-4.518-4.797-6.796-1.08-1.12-2.118-2.279-3.717-3.398-2.12-2.279-4.278-.56-6.397.56-2.638 1.159-4.237.559-6.915 3.397-4.758 5.077-5.317 10.194-6.876 17.55-1.08 5.077-1.08 8.475-1.6 11.313-.559 3.957-2.158 9.034-1.598 12.432 0 5.077 1.599 7.915 2.118 14.152.52 5.636.52 12.992 1.6 19.228 1.039 4.517 1.598 8.475 3.197 12.992 1.6 3.398 1.6 6.236 3.718 9.634 2.119 2.799 4.757.56 6.356 1.12 6.916.56 11.194-4.518 11.713-8.475 1.6-6.236 4.757-12.433 5.837-18.669 1.08-7.355.52-10.753 2.118-18.109 2.12-11.313 1.6-22.067-1.599-32.82-1.599-3.958-1.599-9.594-3.158-14.111z" fill="#f9c881" fill-rule="evenodd"/><path d="M64.161 313.93c0-10.154-8.954-50.37-9.474-56.606-1.08-16.43 3.678-31.7 4.757-46.452-1.08 14.751-6.356 26.624-7.396 32.86-3.717 15.87 2.639 28.863 6.317 41.895 2.638 9.074 5.276 18.149 5.796 28.303zM7.915 273.834c-2.119 10.754-4.797 23.786-5.876 32.82 1.599-7.355 3.198-14.151 5.357-20.947 3.717-12.992 10.073-26.024 6.356-41.895-1.6-6.796-5.837-18.668-7.436-33.98 1.08 16.43 7.436 34.54 1.6 64.002z" fill="#d794a2" fill-rule="evenodd"/><path d="M63.721 455.004c4.278 5.077 9.555 4.517 12.233 3.398 2.119-1.12 4.237-2.838 6.356-4.557 11.673-9.075 28.143-20.947 63.162-10.194 9.034 2.279 16.99 7.396 24.425 13.632v.56h.52c-39.776-34.62-73.756-23.266-90.226-10.794-12.752 9.075-21.227 1.719-26.024-15.31 1.6 11.352 5.317 17.589 9.554 23.265z" fill="#e7c2c8" fill-rule="evenodd"/><path d="M21.747 415.748c0-1.12.52-15.27 1.04-20.348 0-5.676-1.04-20.947-3.719-34.539-2.638-13.032-5.836-27.183-5.836-40.735 0-11.353 2.638-20.388 5.836-30.581 3.718-14.152 10.634-29.423 6.397-48.691-1.08-6.196-5.877-16.95-6.916-30.541C14.31 153.707 14.31 47.85 14.31 21.827c0-.56 0-1.12.52-1.72H2.598c-.52.6-.52 1.16-.52 1.72 0 26.584 0 130.16 4.238 187.926 1.6 15.27 5.837 27.143 7.436 33.94 3.717 15.87-2.639 28.862-6.356 41.894C4.197 296.34.999 307.094.999 320.126c0 15.27 3.198 29.422 6.397 43.574 1.039 6.236 3.717 15.83 4.237 27.143.52 5.117-.52 24.905-.52 24.905 0 26.064 2.119 53.208 22.826 77.553 1.6 1.16 2.679 2.838 4.238 4.517h13.272c-2.639-3.957-5.837-7.915-9.554-12.432-18.59-21.507-20.148-45.293-20.148-69.638z" fill="#efd8dc" fill-rule="evenodd"/><path d="M145.432 443.491c-35.059-10.753-51.529 1.16-63.202 10.194-2.119 1.719-4.277 3.398-6.396 4.517-2.638 1.16-7.955 1.72-12.193-3.398-5.876-7.915-10.633-16.95-10.633-39.056l-.52-19.228c0-7.356 3.158-19.828 5.837-32.82 3.158-14.152 5.836-28.303 5.836-43.574 0-13.032-2.678-23.786-5.836-34.54-3.718-13.031-10.114-26.023-6.396-41.894 1.079-6.236 6.396-18.109 7.435-32.82 4.797-57.725 3.718-162.461 3.718-189.045v-1.72H50.889c0 .6.52 1.16.52 1.72 0 26.024.52 133-4.238 189.045-1.079 13.592-5.836 23.786-7.435 29.982-4.277 19.268 2.638 34.54 6.876 48.69 3.198 10.194 5.876 19.229 5.876 30.582 0 13.552-3.198 27.703-5.876 40.735-2.639 13.592-4.757 26.624-4.757 35.099l.52 19.228c0 31.701 10.113 46.972 21.786 54.927 3.718 2.239 9.035 1.68 12.752 0 4.238-1.719 7.956-4.557 11.673-7.355 10.634-7.956 23.906-17.55 54.167-8.515 18.07 5.676 31.341 20.947 39.297 43.573h11.153c-8.475-27.703-24.945-47.53-47.771-54.327z" fill="#efd8dc" fill-rule="evenodd"/><path d="M142.873 454.285c-30.301-9.075-43.573.6-54.207 8.515-3.717 2.838-7.435 5.676-11.673 7.355-3.717 1.719-9.034 2.279-12.752 0-4.237-2.838-8.515-6.796-12.233-12.472v.6c9.595 17.549 20.188 23.785 36.139 16.989 7.435-3.398 18.588-11.913 35.058-13.592 19.668-2.278 39.297 4.517 52.568 21.507-7.955-14.71-19.108-24.905-32.9-28.902z" fill="#c75f7a" fill-rule="evenodd"/><path d="M44.573 101.099c-.56 36.258 0 70.237 1.599 82.11 2.638-23.786.52-130.241 2.638-150.07-2.638 10.195-3.717 40.776-4.237 67.96z" fill="#edd2d6" fill-rule="evenodd"/><path d="M45.053 99.9c.52 4.597-2.079 12.592.52 16.55 1.558-3.958 1.558-9.675.52-13.672zm.599-8.475c-.52 1.719-.52 3.997 0 5.676 1-2.238 1-4.517.52-4.517zm-.519 31.78c0 1.68.52 3.958.999 4.518 1-1.12 1-3.398.52-5.677-.52.6 0 .6-.52 1.16z" fill="#fff" fill-rule="evenodd"/><path d="M37.177 448.088c-5.316 5.117.52 18.11 3.159 23.186 2.678 6.796 6.356 10.194 11.672 14.152 9.515 7.915 23.306 9.594 34.94 2.838-3.159-1.719-7.396-.56-11.114-1.16-6.876-.559-13.232-5.076-18.549-9.593-7.915-6.796-17.47-18.11-19.588-28.823z" fill="#dea8b2" fill-rule="evenodd"/><path d="M41.295 467.876c4.797 6.796 13.872 23.786 23.985 22.107-5.836-1.719-21.826-16.43-22.906-23.266z" fill="#edd2d6" fill-rule="evenodd"/><path d="M48.73 474.712c-1.599 3.398.56 7.356 4.238 6.237-.52-1.68-2.119-3.398-3.678-3.398zm10.194 10.794c-.52 1.16-1.639 1.16-1.08 2.878h1.08c1.08-1.12 0-1.719 0-1.719zm-15.95-15.911c-1.12 0-1.679.56-1.679 1.12s.56 1.119 1.12 1.679c3.277-1.68.559-5.037-1.12-2.799zm78.592-24.905c-11.673-.6-20.667 4.518-33.42 14.712 6.397-5.677 18.03-12.473 35.02-11.314 14.83.56 34.458 6.796 48.21 24.306-4.757-14.152-29.142-27.144-49.81-27.704zM5.157 15.55C10.514 6.037 25.944 4.358 34.979 5.478c-7.436 0-23.426 4.477-24.465 10.633z" fill="#fff" fill-rule="evenodd"/><path d="M88.666 462.88c-2.678 2.278-5.836 3.997-8.515 5.676 7.436-1.12 13.792-8.515 21.228-11.353 6.875-2.878 32.34-9.714 53.527 2.838-3.678-2.838-7.915-4.557-12.192-5.716-30.222-9.115-43.454.6-54.048 8.554z" fill="#ab0a53" fill-rule="evenodd"/><path d="M64.161 450.967c1.08 3.997 4.837 6.236 9.075 5.676 3.757-.56 9.074-5.117 9.074-8.515-3.198-.6-10.114 7.396-18.149 2.839z" fill="#d794a2" fill-rule="evenodd"/><path d="M50.45 295.301c3.717 13.592 5.836 26.624 2.118 44.693-3.718 19.268-6.356 35.099-7.435 45.253 3.198-14.672 11.673-41.295 12.752-59.365 1.559-18.668-7.436-30.581-7.436-30.581zm-37.298-16.95c-5.237 10.754-8.955 29.942-8.955 35.579z" fill="#fff" fill-rule="evenodd"/><path d="M29.142 280.63c-5.276.56-7.915 6.756-8.994 11.273-.52 1.68-2.119 5.077-1.04 6.196.52.56 1.56 0 2.12 0 .519.56 1.039 2.239 1.039 3.358.52-2.798-2.12-8.435 2.118-8.435 3.678 0 4.757 5.077 5.797 7.316.52-1.12 1.04-2.239 2.118-2.798.52-.56 2.12-1.12 2.12-1.72 1.039-2.238-2.64-4.477-3.199-6.196-.52-2.238 1.08-5.636 2.119-6.755 2.119-2.799 3.718-1.12 5.796.56-1.04-3.958-4.717-3.359-7.915-3.359zm-7.915 27.143c-2.638 2.839-6.396 7.356-5.836 11.873 0 3.398 1.039 7.356 1.599 10.754.52 2.838 1.04 6.236 2.118 9.034 1.04-4.517-1.599-9.594.52-14.111 2.119-2.838 5.837-3.398 7.436 0 0-2.279-1.04-3.958-.52-5.677.52-2.238 2.119-2.798 3.718-4.517-2.12-1.679-.52-3.958 1.039-5.637h-2.119c-1.599.56-1.599 2.839-2.638 2.839-1.6.56-2.119-2.839-3.718-3.398zm13.712 22.587c-3.158-3.398-5.837 5.117-5.837 7.355.56 5.077-2.118 9.595 2.12 13.552-1.04-3.957-2.64-11.833 1.598-14.671 1.08-.56 2.119 0 2.119-1.719.52-1.12-1.04-1.679.52-2.798z" fill="#feeed0" fill-rule="evenodd"/><path d="M27.064 283.908c-1.6 1.12-4.238 3.998-3.678 6.276 1.04-1.12 2.598-3.438 3.678-1.719 0-2.838-.52-3.997 2.078-5.157zm-5.397 27.703c-5.317.6-4.757 6.276-4.238 9.674.52-1.679.52-5.676 2.12-6.236 1.598-.56 2.118.56 2.678 1.719 0-.6.52-1.719 1.599-2.279.52 0 3.158 2.839 3.158 0-1.56 1.12-3.718 0-3.718-2.278zM33.5 331.44c-2.199 0-3.318 3.997-3.318 5.676 1.679-1.68 2.198-2.239 3.837-3.958z" fill="#fff" fill-rule="evenodd"/><path d="M47.811 336.636c-1.08 3.958-1.08 7.356-1.599 11.313 0 3.398-.56 5.677-1.599 8.515-2.678 5.637-2.678 12.432-7.436 16.39-1.599 1.679-2.678 2.239-4.797 2.239-2.678-.56-4.277-1.12-4.797-4.518-1.08-3.398 1.08-1.119 2.679-2.238 3.158-2.279-1.6-6.796-1.08-9.634.52 0 1.6-.56 2.119-1.12-.52 2.839 1.08 11.313 4.797 9.594 3.198-1.119 1.6-2.238 1.08-3.957-.56-2.239 1.039-2.239 2.638-3.958 3.198-3.398 3.718-10.154 1.599-14.111 0-1.16-1.6-2.279-1.6-2.838-.519-1.72.52-2.839.52-3.958 2.679 3.958 5.317-4.517 5.877-6.796.52-4.517-1.08-12.432-6.916-11.313 0-2.838 1.6-1.68 3.198-2.279.52 2.279 5.317 3.958 5.837 1.16.52-1.72-2.119-3.958-2.119-6.237 0-2.238 2.119-3.957 1.599-6.236 0 1.16 1.04 3.998 1.6 5.677.519 2.278 1.038 4.517 1.038 7.355.52 5.077-1.599 10.754-2.118 15.83z" fill="#f4ab3c" fill-rule="evenodd"/><path d="M47.131 337.755c-.52 3.398-.52 6.197-1.039 9.594-.52 2.24 0 6.157-1.599 8.395 1.6-3.358 1.6-8.395-.52-11.233-1.039-1.12-2.118-1.679-.52-2.798h1.04c.56-.56 1.08-1.68 1.08-2.239zm-7.435 24.905c.56 2.279-.56 3.998-.56 6.276 2.799-2.278 2.239-6.875 3.358-10.313-.56.6-1.12 1.159-1.12 1.719z" fill="#cd9135" fill-rule="evenodd"/><path d="M27.543 218.308c0 3.957.52 7.915.52 11.912 2.638 6.756 5.317 14.152 4.757 24.306 1.6-11.873 3.198-20.348 5.837-26.024 1.599-2.28 3.198-6.796 4.237-10.194 0-1.68.56-3.958.56-5.677 1.039-10.154.52-2.798 1.559-17.55-1.56 7.396-3.158 11.914-4.238 15.871v-.56c0-1.119 1.6-10.753 1.6-20.947 1.079-39.056.519-44.173 1.598-73.595 1.04-36.258 1.6-87.747 2.12-93.424 1.038-5.077-2.64-7.355-3.199-3.957 0 3.398-1.04 22.066-2.119 48.69-1.04 26.025 0 121.167-3.158 132.48-3.198 10.753-.56-113.251 0-131.92 1.04-20.947 1.04-36.218 1.56-47.571.559-3.958 0-6.196-.52-7.356h-.52c-1.08 0-2.119 2.279-2.119 3.958-1.08 3.398-.52 42.494-1.08 60.603-.519 17.55-.519 104.737-1.558 117.17-.56 12.472-1.08-9.035-1.6-15.831-.519-6.796-2.118-151.189-1.598-158.544.52-7.915-1.6-7.915-2.639-2.239-.56 5.637-1.079 54.327-1.079 75.834 0 21.547 4.237 73.636 2.638 82.67-1.039 8.515-3.158-44.733-3.158-60.563 0-15.87-1.599-97.381-1.599-97.381l-1.04-2.279c-2.158 0-1.598-6.236-1.598 27.743 0 33.98 5.277 156.825 5.836 174.375z" fill="#c75f7a" fill-rule="evenodd"/><path d="M26.584 225.703c2.678 7.356 6.396 15.31 6.396 25.465.52-4.517 1.04-9.035 1.04-13.552 0-14.751-6.916-26.624-9.035-50.41-2.119-23.745-3.198-63.96-3.718-87.147 0-20.947-2.678-59.444-1.08-81.55-.519 1.719-.519 0-1.598 1.16-.52 1.118-.52-.56-1.04 1.118v2.839c-.56 59.444.52 131.88 6.916 189.085 0 4.517 1.6 9.035 2.119 12.992z" fill="#c75f7a" fill-rule="evenodd"/><path d="M31.86 73.435c1.64 9.635 2.16 43.494 0 56.446-.559-5.636-1.678-50.769 0-56.446z" fill="#edd2d6" fill-rule="evenodd"/><path d="M31.78 94.303c-.559 2.838-1.119 7.915 0 11.273 2.72-.56 1.08-7.316 1.08-9.554zm.08-7.356c0 1.12-.559 1.68 0 2.799 1.08 0 2.16-1.12 1.08-2.239zm-.04 21.507c-.519 1.16-.519 2.319 0 3.438.48-.56 1-1.719 1.48-2.278z" fill="#fff" fill-rule="evenodd"/><path d="M37.617 400.597c2.679 3.398 1.6 11.313 1.6 21.507 0 9.594 1.079 15.83 1.598 18.629-3.198-5.637-5.356-32.22-3.198-40.136z" fill="#edd2d6" fill-rule="evenodd"/><path d="M37.058 411.87c-.52 2.319-1.04 6.277.52 8.555 1.558-2.278 1.558-5.117 1.039-7.395zm.639-3.358v1.76c1.64-.56 2.159-1.76 1.08-2.919-.52-.6 0 .6-.52.6zm-.52 15.911c-.52 1.12-.52 2.758.48 3.837 1.48-1.079 1.48-2.158.52-3.278z" fill="#fff" fill-rule="evenodd"/><path d="M24.345 206.475c0 8.515.56 15.87 3.198 23.226 1.08 3.358 3.198 6.756 3.718 10.154 1.08 3.398.56 7.955 1.6 11.313 0-5.077 1.078-10.714 2.677-15.83 1.04-3.399 4.238-6.797 5.277-10.754-1.559 1.719-3.158 5.117-5.277 5.117-4.797 0-5.876-7.356-6.396-10.754-1.039-6.236-4.797-13.032-4.797-18.708z" fill="#ab0a53" fill-rule="evenodd"/><path d="M32.86 1.04c-17.51 0-29.742 7.875-30.302 19.108h12.233c.56-.56 1.6-.56 2.678-1.12 1.04-1.119 1.04-2.798 2.639-3.357 1.599-.56 2.159.56 4.277 0 2.119-.56 1.6-2.24 3.718-2.24 2.638-.559 2.638 1.12 5.317 1.12 2.118 0 2.118-2.238 4.757-1.679 2.678.56 1.599 2.239 3.198 2.799 1.599 1.119 2.678-.56 4.277 0 1.6.56.52 1.119 2.639 2.798 1.08 1.12 2.678-.56 2.678 1.679h12.193C62.642 8.915 50.409 1.039 32.86 1.039m12.792 285.267c-1.079-2.838-3.198-4.517-4.797-6.795-1.08-1.12-2.118-2.279-3.718-3.398-2.118-2.279-4.277-.56-6.396.56-2.638 1.159-4.237.559-6.915 3.397-4.758 5.077-5.317 10.194-6.876 17.55-1.08 5.077-1.08 8.474-1.6 11.313-.559 3.957-2.158 9.034-1.598 12.432 0 5.077 1.599 7.915 2.118 14.152.52 5.636.52 12.992 1.6 19.228 1.039 4.517 1.598 8.475 3.197 12.992 1.6 3.398 1.6 6.236 3.718 9.634 2.119 2.799 4.757.56 6.356 1.12 6.916.56 11.194-4.518 11.713-8.475 1.6-6.236 4.757-12.433 5.837-18.669 1.08-7.355.52-10.753 2.118-18.109 2.12-11.313 1.6-22.067-1.599-32.82-1.599-3.958-1.599-9.594-3.158-14.112m-21.746-78.752c0 27.783 11.113 24.385 8.474 57.805" fill="none" stroke="#000" stroke-width="1.039" stroke-linecap="round" stroke-linejoin="round"/><path d="M44.053 207.554c-1.04 23.266-11.193 18.15-11.193 57.805m31.341 48.611c0-10.154-8.954-50.37-9.474-56.606-1.08-16.43 3.678-31.7 4.757-46.452-1.08 14.751-6.356 26.624-7.396 32.86-3.717 15.87 2.639 28.863 6.317 41.895 2.638 9.074 5.276 18.149 5.796 28.303M7.955 273.874c-2.119 10.753-4.797 23.786-5.876 32.82 1.599-7.355 3.198-14.151 5.356-20.947 3.718-12.992 10.074-26.024 6.357-41.895-1.6-6.796-5.837-18.668-7.436-33.98 1.08 16.43 7.436 34.54 1.6 64.002m55.805 181.17c4.278 5.077 9.555 4.517 12.233 3.398 2.119-1.12 4.237-2.838 6.356-4.557 11.673-9.075 28.143-20.947 63.162-10.194 9.034 2.279 16.99 7.396 24.425 13.632v.56h.52c-39.776-34.62-73.756-23.266-90.226-10.794-12.752 9.075-21.227 1.719-26.024-15.31 1.6 11.352 5.317 17.589 9.554 23.265" fill="none" stroke="#000" stroke-width="1.039" stroke-linecap="round" stroke-linejoin="round"/><path d="M51.489 497.858c-2.639-3.957-5.837-7.915-9.554-12.432-18.59-21.507-20.148-45.293-20.148-69.638 0 0 0 0 0 0 0-1.12.52-15.27 1.04-20.348 0-5.676-1.04-20.947-3.719-34.539-2.638-13.032-5.836-27.183-5.836-40.735 0-11.353 2.638-20.388 5.836-30.582 3.718-14.15 10.634-29.422 6.397-48.69-1.08-6.196-5.877-16.95-6.916-30.541C14.35 153.747 14.35 47.89 14.35 21.867c0-.56 0-1.12.52-1.72H2.638c-.52.6-.52 1.16-.52 1.72 0 26.584 0 130.16 4.238 187.926 1.6 15.27 5.837 27.143 7.436 33.94 3.717 15.87-2.639 28.862-6.357 41.894-3.198 10.753-6.396 21.507-6.396 34.539 0 15.27 3.198 29.422 6.396 43.574 1.04 6.236 3.718 15.83 4.238 27.143.52 5.117-.52 24.905-.52 24.905s0 0 0 0 0 0 0 0c0 26.064 2.119 53.208 22.826 77.553 1.6 1.16 2.679 2.838 4.238 4.517" fill="none" stroke="#000" stroke-width="1.039" stroke-linecap="round" stroke-linejoin="round"/><path d="M193.243 497.858c-8.475-27.703-24.945-47.53-47.771-54.327-35.059-10.753-51.529 1.16-63.202 10.194-2.119 1.719-4.277 3.398-6.396 4.517-2.638 1.16-7.955 1.72-12.193-3.398-5.876-7.915-10.633-16.95-10.633-39.056 0 0 0 0 0 0l-.52-19.228c0-7.356 3.158-19.828 5.837-32.82 3.158-14.152 5.836-28.303 5.836-43.574 0-13.032-2.678-23.786-5.836-34.54-3.718-13.031-10.114-26.023-6.396-41.894 1.079-6.236 6.396-18.109 7.435-32.82 4.797-57.725 3.718-162.461 3.718-189.045v-1.72H50.929c0 .6.52 1.16.52 1.72 0 26.024.52 133-4.238 189.045-1.079 13.592-5.836 23.786-7.435 29.982-4.278 19.268 2.638 34.54 6.876 48.69 3.198 10.194 5.876 19.229 5.876 30.582 0 13.552-3.198 27.703-5.876 40.735-2.639 13.592-4.757 26.624-4.757 35.099l.52 19.228s0 0 0 0c0 31.701 10.113 46.972 21.786 54.927 3.718 2.239 9.035 1.679 12.752 0 4.238-1.719 7.956-4.557 11.673-7.355 10.634-7.956 23.906-17.55 54.167-8.515 18.07 5.676 31.341 20.947 39.297 43.573" fill="none" stroke="#000" stroke-width="1.039" stroke-linecap="round" stroke-linejoin="round"/><path d="M51.449 497.858c-2.639-3.957-5.837-7.915-9.554-12.432-18.59-21.507-20.188-45.253-20.188-69.598 0 0 0 0 0 0s.52-15.27 1.08-20.348c0-5.676-1.08-20.947-3.719-34.539-2.678-12.992-5.876-27.143-5.876-40.735 0-11.313 2.678-20.348 5.876-30.542 3.718-14.151 10.594-29.422 6.357-48.65-1.04-6.236-5.837-16.99-6.916-30.582C14.27 153.867 14.27 48.051 14.27 22.027c0-.56 0-1.12.52-1.68.56-.599 1.6-.599 2.678-1.159 1.04-1.119 1.04-2.798 2.639-3.398 1.599-.56 2.119.6 4.277 0 2.119-.56 1.56-2.238 3.718-2.238 2.638-.56 2.638 1.12 5.277 1.12 2.158 0 2.158-2.28 4.797-1.68 2.678.56 1.599 2.239 3.198 2.798 1.599 1.16 2.638-.56 4.237 0 1.6.6.52 1.16 2.679 2.839 1.04 1.119 2.638-.56 2.638 1.719 0 .56.52 1.119.52 1.679 0 26.024.56 132.96-4.238 188.965-1.079 13.592-5.836 23.786-7.435 30.022-4.238 19.228 2.638 34.499 6.916 48.65 3.158 10.194 5.836 19.229 5.836 30.542 0 13.592-3.198 27.743-5.836 40.735-2.679 13.592-4.797 26.584-4.797 35.099l.52 19.228s0 0 0 0c0 31.701 10.113 46.972 21.786 54.887 3.718 2.279 9.035 1.679 12.752 0 4.278-1.719 7.996-4.517 11.713-7.355 10.594-7.916 23.906-17.55 54.167-8.475 18.07 5.636 31.341 20.907 39.297 43.533" fill="none" stroke="#000" stroke-width="1.039" stroke-linecap="round" stroke-linejoin="round"/><path d="M19.028 302.217c-1.039 3.917-3.118 7.235-4.157 11.113m12.712 35.179c-.56 3.997 2.079 6.876 5.757 7.995m.64-3.998c0 4.518-2.08 9.595 2.078 12.953m1.119-23.106c3.638 2.278 4.158 9.034 2.599 12.952m-4.757-11.833c3.118-.56 3.638-6.236 4.157-9.115M37.177 331c1.08 1.678 2.639 4.437 4.718 4.956M23.906 363.78c.52 1.798 2.078 1.798 3.597 2.398m-1.998-.719v2.318m-2.159-39.097c2.638 1.16 3.158 3.998 3.678 6.797m-.48-2.799c.56-.56 1.639-1.119 2.159-1.679m.479-53.807c1.56-.48 3.118-.48 4.158 0m-9.434 18.149c4.237 1.719 5.276 5.677 4.757 10.154" fill="none" stroke="#000" stroke-width="1.039" stroke-linecap="round" stroke-linejoin="round"/><path d="M25.505 307.174c2.678-3.358 6.356-1.68 9.514-1.12m1.679-3.357c-1.56 2.238-2.639 6.715-2.079 8.954m-.079 9.195c2.158 0 4.836-2.879 5.356-5.197m-1.679-2.319c1.599 2.958 3.718 3.518 6.316 1.759" fill="none" stroke="#000" stroke-width="1.039" stroke-linecap="round" stroke-linejoin="round"/><path d="M43.494 312.37c0 2.24 1.079 5.038 3.198 5.597m-2.639-24.305c1.64.56 3.798 3.358 4.318 5.037m-11.673-13.032c0 1.759 1.599 4.077 3.198 5.197" fill="none" stroke="#000" stroke-width="1.039" stroke-linecap="round" stroke-linejoin="round"/><path d="M40.855 287.346c-1.08 2.278-2.158 5.117-.52 7.355m-13.311 80.911c1.639 2.879 2.718 2.319 4.317 2.879" fill="none" stroke="#000" stroke-width="1.039" stroke-linecap="round" stroke-linejoin="round"/><path d="M22.866 330.4c0-1.16 2.119-2.918 3.158-2.918.52 2.318-1.04 4.077-2.079 5.196m10.595-14.111c0 1.16 1.038 3.958 2.597 2.838.52-1.679-1.559-2.838-1.039-3.957.52-2.279 2.599 2.838 2.599 3.398m3.837-7.516c1.08 0 1.6 0 2.639-.48m-6.397-19.188c4.238 0 1.6-4.637-1.599-1.16m7.996-.679c-.56 1.8-.56 2.958-1.12 4.717m-8.555-8.555c1.08-.56 2.679-1.159 3.199-2.318m-13.192 8.555c-2.16 2.798 0 4.477 1.039 2.238m-1.679 9.035c1.08.6 1.639 1.759 2.159 2.878m7.995-5.197c.56 1.24 1.639 1.24 2.718 1.84m-4.877 6.635c1.08 0 2.678-.52 3.198-1.599-.52-.56-2.119-.56-3.198 0m3.838 23.106c.52-1.679 1.519-2.239 2.478-2.798m-4.157 11.273c0 1.719.52 2.878 1.04 3.998m-7.996 3.997c-1.04 0-2.119 0-2.119.6-1.08 1.679.52 1.12 1.6 1.12 3.157 0 1.039 2.837-1.08 3.957m5.436-2.239c1.56.56 2.6 0 3.598-.56m4.798 1.679c-.52 0-3.119-.56-2.08-1.719.52-1.159 2.08-.56 3.119-.56m-6.316 14.272c.52-.6 1.04-1.2 1.04-2.398m-12.153 1.679c.56-.52 1.079-1.6 1.599-2.16m-7.436-60.602c1.04 0 3.118 1.679 1.56 2.238-1.04.56-2.08-.56-2.6-.56" fill="none" stroke="#f9c881" stroke-width="1.039" stroke-miterlimit="8"/><path d="M44.533 209.233h-1.04m.56 4.477c-.52-.48-1.599-.48-2.158-.48" fill="none" stroke="#c75f7a" stroke-width="1.999" stroke-miterlimit="8"/><path d="M31.341 263.68c.52.56 3.118.56 3.118-.56 1.04-1.718-1.559-1.718-2.598-2.318-2.119 0-1.56-1.12 0-2.279 1.04-.56 2.598-.56 3.637-1.159" fill="none" stroke="#d794a2" stroke-width="1.999" stroke-miterlimit="8"/></svg>