<svg xmlns="http://www.w3.org/2000/svg" version="1.0" viewBox="0 0 342.917 531.817"><defs><clipPath clipPathUnits="userSpaceOnUse" id="a"><path d="M3.758 5.117H346.27v532.237H3.758z"/></clipPath><clipPath clipPathUnits="userSpaceOnUse" id="b"><path d="M-11.913 1.759h500.817v167.898H-11.913z"/></clipPath></defs><path clip-path="url(#a)" d="M10.833 156.025s-1.838-29.821-4.077-40.535c-2.638-10.753-2.638-37.777 4.077-53.288 6.716-15.51 7.116-29.822 27.624-42.974 20.507-12.712 38.376-3.957 38.376-3.957s10.074 0 14.552-2.799c4.117-2.358 13.072-8.354 21.627-5.156 8.195 3.198 13.072 9.954 13.072 9.954s10.793 0 21.626 3.557c10.794 3.598 26.065 13.512 26.065 13.512s3.757 1.999 7.475 0c3.718-1.559 46.972 0 52.568 20.308 5.237 20.667-40.655 84.269-40.655 84.269s-18.989 16.71-39.896 7.955c-20.867-9.114-35.778-25.425-35.778-25.425s-2.599 1.2-4.477 1.2c0 0 11.553 12.712 10.433 27.823-1.479 14.71-4.477 45.732-4.477 68.398 0 22.667 9.354 73.956 8.954 83.91-.36 9.913 8.955 32.98 20.908 24.625 11.553-8.355 30.941-32.98 63.002-5.557 12.312 10.354 19.388 27.823 33.54 26.264 14.55-1.599 28.342-17.51 37.297-31.021 8.594-13.912 24.625-40.176 33.58-40.576 0 0 24.944 5.557 23.465 29.423-1.479 23.865-18.269 27.823-18.269 27.823s-24.985 24.665-32.42 35.418c-7.476 10.314-25.385 33.78-48.49 29.023-23.107-4.757-32.061-13.112-45.133-25.065-12.673-11.513-36.898-13.512-42.854 3.198-5.957 17.11 2.958 36.178-10.834 48.89-14.151 12.753-14.151 12.353-18.629 17.51-4.117 4.757-32.06 40.935-79.032 0-6.716-5.957.36-42.535-4.477-56.486-4.877-13.912-16.07-19.468-14.551-46.492 1.479-27.064-2.998-35.019-6.716-45.732-3.718-10.754-1.879-33.02 0-40.576 1.879-7.955-1.12-14.71-4.118-27.023-2.598-12.353 0-33.02 2.639-40.176 2.598-7.156-5.997-30.222-5.997-30.222z" fill="#f1dbd1" fill-rule="evenodd"/><path clip-path="url(#a)" d="M344.591 304.256s4.437 19.108-23.865 49.73c-28.703 30.261-36.938 55.686-73.836 59.284-36.537 3.557-52.568-35.819-64.88-38.577-11.913-2.798-22.707 2.758-23.106 24.265l-.36 11.913-7.076-9.154s-2.638-17.47 1.12-25.425c4.077-7.595 14.15-11.553 14.15-11.553s8.956-3.998 19.39 2.798c10.833 6.356 25.344 21.467 34.298 26.224 8.955 4.797 26.464 7.156 39.137 0 12.672-7.155 21.986-13.511 28.343-23.865 6.715-9.914 12.312-16.31 17.15-21.067 4.836-4.758 13.031-13.912 19.028-16.71 5.956-2.799 9.674-3.958 12.672-9.954 2.598-5.957 7.835-17.91 7.835-17.91z" fill="#f1dbd1" fill-rule="evenodd"/><path clip-path="url(#a)" d="M344.591 304.256s-.76 1.998-1.879 4.797c-1.119 7.955-6.356 22.666-23.865 41.774-28.703 30.222-37.258 55.687-73.796 59.244-36.537 3.598-52.568-35.778-64.88-38.576-11.913-2.798-22.706 2.798-23.106 24.265l-.36 11.953-5.237-6.796v.8l7.116 9.154.36-11.913c.36-21.507 11.193-27.063 23.106-24.265 12.312 2.758 28.342 42.134 64.88 38.577 36.898-3.598 45.093-29.023 73.796-59.285 28.302-30.621 23.865-49.73 23.865-49.73z" fill="#dfb1a2" fill-rule="evenodd"/><path clip-path="url(#a)" d="M344.631 304.296s4.437 19.108-23.865 49.73c-28.703 30.261-36.938 55.686-73.836 59.284-36.538 3.557-52.568-35.819-64.88-38.577-11.913-2.798-22.707 2.758-23.106 24.265l-.36 11.913-7.076-9.154s-2.638-17.47 1.12-25.425c4.077-7.595 14.15-11.553 14.15-11.553s8.955-3.998 19.39 2.798c10.833 6.356 25.344 21.467 34.298 26.224 8.955 4.797 26.464 7.156 39.137 0 12.672-7.155 21.986-13.511 28.342-23.865 6.716-9.914 12.313-16.31 17.15-21.067 4.837-4.758 13.032-13.912 19.029-16.71 5.956-2.799 9.674-3.958 12.672-9.954 2.598-5.957 7.835-17.91 7.835-17.91" fill="none" stroke="#343434" stroke-width="1.359" stroke-linecap="round" stroke-miterlimit="8"/><path d="M155.226 384.207s1.12 12.752 5.597 18.709c4.837 5.596 25.344 36.618 3.717 61.682-10.074 11.553-16.39 4.798-23.505 13.552-7.076 9.155-23.506 31.021-49.97 25.465-26.104-5.157-47.012-40.176-51.13-59.684l4.118-1.2S66.08 463.04 82.87 464.24c17.15 1.159 35.778-12.353 44.373-23.906 8.954-11.153 13.792-13.512 17.15-17.11 2.998-3.957 11.952-29.462 10.833-39.016z" fill="#f1dbd1" fill-rule="evenodd"/><path d="M164.54 456.723c-10.074 11.513-16.39 4.358-23.505 13.512-7.076 9.114-23.506 31.021-49.97 25.425-23.146-4.758-42.175-32.18-48.89-52.089l-2.24.4c4.118 19.508 25.026 54.487 51.13 59.644 26.464 5.556 42.894-16.31 49.97-25.425 7.115-8.755 13.431-1.999 23.505-13.552 8.195-9.514 10.434-20.267 9.714-29.822-.76 7.196-3.757 14.712-9.714 21.907z" fill="#dfb1a2" fill-rule="evenodd"/><path d="M155.266 384.247s1.12 12.752 5.597 18.709c4.837 5.596 25.344 36.618 3.717 61.682-10.074 11.553-16.39 4.797-23.506 13.552-7.075 9.155-23.505 31.021-49.97 25.465-26.103-5.157-47.01-40.176-51.128-59.684l4.117-1.2S66.12 463.08 82.91 464.28c17.15 1.159 35.778-12.353 44.373-23.906 8.954-11.153 13.791-13.512 17.15-17.11 2.998-3.957 11.952-29.462 10.833-39.016" fill="none" stroke="#343434" stroke-width="1.359" stroke-linecap="round" stroke-miterlimit="8"/><path d="M316.248 276.472c-8.954.4-24.985 26.664-33.58 40.576-8.954 13.512-22.746 29.422-37.257 31.021-14.191 1.6-21.267-15.91-33.58-26.224-32.06-27.463-51.448-2.798-63.001 5.557-11.913 8.355-21.267-14.712-20.868-24.665.36-9.954-8.954-61.243-8.954-83.91 0-22.666 2.958-53.687 4.477-68.398l-8.195.4s0-8.755-7.835-12.753c-7.835-3.558-26.104 15.51-35.818 11.154-9.315-4.358-26.065-18.71-36.898-12.713-5.956 3.158-11.913 12.313-14.151 20.668l-9.355-.4c1.52 3.998 8.235 23.066 5.597 29.422-2.599 7.156-5.197 27.863-2.599 40.176 2.999 12.312 5.957 19.068 4.118 27.023-1.879 7.556-3.758 29.862 0 40.576 3.718 10.753 8.195 18.708 6.716 45.732-1.52 27.064 9.674 32.62 14.511 46.532 4.877 13.911-2.239 50.53 4.477 56.486 46.972 40.935 74.955 4.757 79.032 0 4.478-5.197 4.478-4.797 18.67-17.51 13.79-12.712 4.836-31.82 10.793-48.93 5.956-16.67 30.221-14.711 42.894-3.158 13.032 11.913 21.986 20.268 45.092 25.065 23.146 4.757 41.015-18.709 48.49-29.063 7.436-10.713 32.421-35.378 32.421-35.378s16.79-3.958 18.27-27.823c1.478-23.866-23.467-29.463-23.467-29.463z" fill="#e7a4a4" fill-rule="evenodd"/><path d="M319.366 317.448c-7.835 8.355-10.073 8.754-16.79 14.31-9.354 7.956-20.187 18.27-26.903 29.023-8.195 13.912-23.106 22.267-39.936 15.91-22.746-8.754-23.865-23.465-39.536-30.221-8.595-3.598-20.907 3.558-33.98 1.599-9.314-1.2-22.026 33.38-13.431 40.136 1.519-12.713 10.473-24.625 13.072-25.825 3.358-1.599 2.239-5.996 4.477-6.356 1.88-.4 4.118 4.358 7.076 4.757 3.358.4 9.714 1.2 9.714 1.2s3.358-2.399 5.237-1.2c2.238 1.2.72 3.958 3.358 6.356 2.598 2.799 14.551 10.754 17.55 14.712 3.357 3.957 5.596.8 7.834 2.398 2.24 1.56.72 5.157 3.718 6.356 2.998 1.2 15.31 9.914 39.176-.8 7.476-3.197 2.639-6.755 4.877-7.555 1.84-1.199 3.718 3.958 8.555-.8 4.877-4.756 18.31-20.267 20.548-25.064 2.598-4.357 0-5.956 2.998-8.715 2.958-2.798 3.718 3.558 6.316-.4 2.639-3.597 13.072-17.11 17.91-18.308v5.196l.4-.4s16.789-3.997 18.268-27.862c.36-2.759 0-5.557-.36-7.956-8.235 25.465-16.43 15.511-20.148 19.509z" fill="#d09190" fill-rule="evenodd"/><path clip-path="url(#a)" d="M10.873 156.065s-1.838-29.822-4.077-40.535c-2.639-10.754-2.639-37.777 4.077-53.288 6.716-15.51 7.116-29.822 27.624-42.974 20.507-12.712 38.376-3.957 38.376-3.957s10.074 0 14.552-2.799c4.117-2.358 13.072-8.355 21.626-5.156 8.196 3.198 13.073 9.954 13.073 9.954s10.793 0 21.626 3.557c10.794 3.598 26.065 13.512 26.065 13.512s3.757 1.999 7.475 0c3.718-1.559 46.972 0 52.568 20.308 5.237 20.667-40.655 84.269-40.655 84.269s-18.989 16.71-39.896 7.955c-20.867-9.115-35.778-25.425-35.778-25.425s-2.599 1.2-4.478 1.2c0 0 11.553 12.712 10.434 27.823-1.479 14.71-4.477 45.732-4.477 68.398 0 22.667 9.354 73.956 8.954 83.91-.36 9.913 8.955 32.98 20.908 24.625 11.553-8.355 30.941-32.98 63.002-5.557 12.312 10.354 19.388 27.823 33.54 26.264 14.55-1.599 28.342-17.51 37.297-31.021 8.594-13.912 24.625-40.176 33.58-40.576 0 0 24.944 5.557 23.465 29.423-1.479 23.865-18.269 27.823-18.269 27.823s-24.985 24.665-32.42 35.418c-7.476 10.314-25.385 33.78-48.49 29.023-23.107-4.757-32.061-13.112-45.133-25.065-12.673-11.513-36.898-13.512-42.854 3.198-5.957 17.11 2.958 36.178-10.834 48.89-14.151 12.753-14.151 12.353-18.629 17.51-4.117 4.757-32.06 40.935-79.032 0-6.716-5.957.36-42.535-4.477-56.486-4.877-13.912-16.07-19.468-14.551-46.492 1.479-27.064-2.998-35.019-6.716-45.732-3.718-10.754-1.879-33.02 0-40.576 1.879-7.955-1.12-14.71-4.118-27.023-2.598-12.353 0-33.02 2.639-40.176 2.598-7.156-5.997-30.222-5.997-30.222" fill="none" stroke="#343434" stroke-width="1.039" stroke-miterlimit="8"/><path d="M113.371 122.666s-15.65.38-45.072-45.753c-4.857-7.555-4.857-5.976-8.215-5.176-3.338.799-10.794 4.777-18.25-1.2-7.455-5.556-14.53-12.732-17.529-12.732" fill="none" stroke="#343434" stroke-width="1.359" stroke-linecap="round" stroke-miterlimit="8"/><path d="M76.074 14.431s24.265 8.715 28.383 20.268c.72 1.559-1.88 1.16-1.88 1.16s12.673 3.197 19.39 9.553c7.115 6.357 13.43 11.114 8.594 11.913 0 0 3.718-.4 12.312 2.799 8.955 3.158 46.652 10.713 47.372 16.27l6.716-4.358s-41.775-12.712-52.608-14.71c-4.478-.8-4.078-1.56-3.358-3.958 0 0-2.24 3.557-4.838-.4-2.598-4.357-19.788-15.11-26.104-17.87-2.238-.799-.4-3.597.36-4.397 0 0-2.998 2-4.477-.8-1.48-2.757-22.746-21.466-29.862-15.47z" fill="#f5f0f0" fill-rule="evenodd"/><path d="M76.074 14.431s24.265 8.715 28.383 20.268c.72 1.559-1.88 1.16-1.88 1.16s12.673 3.197 19.39 9.553c7.115 6.357 13.43 11.114 8.594 11.913 0 0 3.718-.4 12.312 2.799 8.955 3.158 46.652 10.713 47.372 16.27l6.716-4.358s-41.775-12.712-52.608-14.71c-4.478-.8-4.078-1.56-3.358-3.958 0 0-2.24 3.557-4.838-.4-2.598-4.357-19.788-15.11-26.104-17.87-2.238-.799-.4-3.597.36-4.397 0 0-2.998 2-4.477-.8-1.48-2.757-22.746-21.466-29.862-15.47" fill="none" stroke="#343434" stroke-width=".64" stroke-linecap="round" stroke-linejoin="round" stroke-miterlimit="10"/><path d="M108.214 31.101s.76-.4 2.24-2.778c1.478-2.359 7.794-7.895 10.393-8.695 0 0-6.676 4.757-8.155 8.315-1.5 3.158-1.86 3.158-3.358 5.117 0 0 .74-2.758-1.12-1.959zm-3.837 3.958S92.444 32.26 80.87 42.254c0 0 11.573-7.995 21.647-5.996l1.859-1.2zm68.278-1.199s-19.028-6.397-29.502 14.71c0 0 8.595-19.108 31.341-13.511l-1.839-1.2zM131 57.285l.76-.8s-19.088 1.6-20.587 23.586c0 0 3.757-23.985 23.186-21.986l-3.358-.8zM63.462 70.897s-4.138-13.932 2.618-18.329c0 0-7.515 2.399-4.118 18.709l1.5-.38z" fill="#343434" fill-rule="evenodd"/><path d="M60.423 71.597s3.378-1.2 4.118.4c1.12 1.998 3.358 5.176 3.358 5.176s-10.074 8.775-7.835 16.73c1.858 8.375 4.857 14.351 8.954 12.752 0 0-4.097 3.998.38 8.375 4.497 4.378 11.953 19.508 10.474 25.105l-11.214.38s2.619-14.331-6.356-23.506c-8.974-9.554-5.976-11.553-13.092-15.13 0 0 5.617 0 4.497-5.577-1.119-5.577-1.119-12.353 2.979-16.33 4.497-3.978 5.616-7.176 3.737-8.375z" fill="#f5f0f0" fill-rule="evenodd"/><path d="M60.463 71.637s3.378-1.2 4.118.4c1.12 1.998 3.358 5.176 3.358 5.176s-10.074 8.775-7.835 16.73c1.858 8.375 4.857 14.351 8.954 12.752 0 0-4.097 3.998.38 8.375 4.497 4.378 11.953 19.508 10.474 25.105l-11.214.38s2.619-14.332-6.356-23.506c-8.974-9.554-5.976-11.553-13.092-15.13 0 0 5.617 0 4.497-5.577-1.119-5.577-1.119-12.353 2.979-16.33 4.497-3.978 5.616-7.176 3.737-8.375" fill="none" stroke="#343434" stroke-width="1.359" stroke-linecap="round" stroke-linejoin="round" stroke-miterlimit="10"/><path d="M67.919 106.256s7.076-5.957 13.752-6.357c0 0-11.893 3.578-13.752 10.314v-3.957zm-17.609-3.998 1.499-1.579s-2.979.78-7.816-1.999c-4.477-2.378-15.65-3.578-25.724 5.177 0 0 12.672-9.154 23.486-4.377 11.173 4.757 12.652 7.535 12.652 7.535l-4.097-4.757z" fill="#343434" fill-rule="evenodd"/><path d="m115.21 150.749 8.955-.4s-2.239 31.46-2.239 45.372c0 13.912 5.197 20.708 3.358 31.022-1.879 10.353-3.358 15.55 0 25.864 3.358 10.753 7.076 17.51 5.956 28.263-1.119 10.353 0 39.776 11.194 41.774 10.833 2 18.668-17.909 43.293-16.31 24.626 1.6 36.978 23.066 44.054 30.222 6.716 7.196 16.43 13.952 31.74 1.6 15.671-12.313 31.701-59.285 55.207-65.241v7.955s-7.835 0-16.39 13.911c-8.595 14.352-13.432 19.908-13.072 23.906.36 3.957 0 6.356-4.118 6.356-3.717 0-12.672 14.311-18.269 17.51-5.236 2.758-1.878 8.354-5.236 9.154-3.358 1.16-3.718-3.998-6.716-2.798-2.599 1.199-8.955 2.798-14.951.4-6.316-2.799-8.195 3.557-10.074 2.398-2.239-1.2.4-6.396-1.839-9.155-2.638-3.198-11.593-13.951-15.71-17.509-3.718-3.598-7.436 1.599-9.675-.4-2.238-1.599 2.239-5.197-1.119-7.555-3.358-2.798-14.191-7.955-25.385-3.198-11.193 4.397-4.877 9.154-8.594 9.954-3.358.8-4.478-4.398-7.836-.4-3.358 4.357-17.909 21.467-30.621-5.956-2.958-6.796-8.955-1.6-11.193-8.355-1.84-6.396 6.356-2.799 6.356-12.353 0-9.954 3.718-26.264-4.477-35.418-8.595-8.755-10.074-7.156-10.074-13.112-.36-5.957 8.195-15.91 7.835-21.108-.76-5.157-6.356-29.022-5.956-34.219.72-5.557-6.756-9.114-5.997-12.712.76-3.598 9.355-5.157 9.714-11.553.36-5.957 2.239-17.51 2.239-17.51z" fill="#f6f3ed" fill-rule="evenodd"/><path d="M316.728 273.314v7.956s20.148 1.599 20.508 23.106c.72 21.067-16.03 24.665-16.03 24.665v8.714s23.825-.76 23.465-33.38c-.36-29.861-27.543-31.06-27.543-31.06z" fill="#f7f6ee" fill-rule="evenodd"/><path clip-path="url(#a)" d="M316.768 273.354v7.956s20.148 1.599 20.508 23.106c.72 21.067-16.03 24.665-16.03 24.665v8.714s23.825-.76 23.465-33.38c-.36-29.861-27.543-31.06-27.543-31.06" fill="none" stroke="#343434" stroke-width="1.359" stroke-linecap="round" stroke-miterlimit="8"/><path d="M139.995 431.738s-.4 7.156-9.354 9.555c0 0 14.191 24.225 7.475 40.535 0 0-2.998 4.357-4.477 5.956 0 0-5.237 15.111 5.956 22.267 11.553 7.116 17.91-.8 23.506 7.515 5.597 8.355.36 17.91 3.718 18.31 3.718.759 3.358-12.353.4-18.71-2.239-5.556-5.997-8.714-15.311-9.514-11.193-1.199-13.032-13.911-7.076-24.625 5.957-11.153 6.716-28.622-4.837-51.289z" fill="#f5f0f0" fill-rule="evenodd"/><path clip-path="url(#a)" d="M139.995 431.738s-.4 7.156-9.354 9.555c0 0 14.191 24.225 7.475 40.535 0 0-2.998 4.357-4.477 5.956 0 0-5.237 15.111 5.956 22.267 11.553 7.116 17.91-.8 23.506 7.515 5.597 8.355.36 17.91 3.718 18.31 3.718.759 3.358-12.353.4-18.71-2.239-5.556-5.997-8.714-15.311-9.514-11.193-1.199-13.032-13.911-7.076-24.625 5.957-11.153 6.716-28.622-4.837-51.289" fill="none" stroke="#f5f0f0" stroke-width="1.359" stroke-linejoin="round" stroke-miterlimit="10"/><path clip-path="url(#a)" d="M139.995 431.738s-.4 7.156-9.354 9.555c0 0 14.191 24.225 7.475 40.535 0 0-2.998 4.357-4.477 5.956 0 0-5.237 15.111 5.956 22.267 11.553 7.116 17.91-.8 23.506 7.515 5.597 8.355.36 17.91 3.718 18.31 3.718.759 3.358-12.353.4-18.71-2.239-5.556-5.997-8.714-15.311-9.514-11.193-1.199-13.032-13.911-7.076-24.625 5.957-11.153 6.716-28.622-4.837-51.289" fill="none" stroke="#343434" stroke-width="1.359" stroke-linecap="round" stroke-linejoin="round" stroke-miterlimit="10"/><path d="M28.743 243.812c3.737.8 5.976 2.799 8.215 5.997 3.378 3.577 5.976 7.555 10.093 10.753 6.716 5.177 14.931 8.375 23.506 8.375-7.835.38-18.289-1.599-24.625-7.575-2.998-2.399-5.976-5.177-8.215-7.976-.76-1.199-1.879-2.398-2.618-3.577-.74-.8-1.5-2.799-2.619-2.799-.74-.4-1.479.4-1.859.4.38-.8-.74-2.398-1.499-3.198zm79.471 1.359c-.74 1.6-1.119 2.379-1.479 4.378-.38 2.378-1.499 3.957-2.998 6.336-2.618 3.178-5.616 5.157-9.354 6.736 3.738 1.18 7.115-3.558 9.354-5.937 1.5-1.998 2.619-4.377 3.738-6.755 0 .4.38.4.38.4 0-1.58.36-3.159.36-4.758zM32.8 315.449c2.239 1.999 5.217 2.798 7.835 4.397 4.098 1.979 7.456 5.177 11.194 7.955 4.097 3.178 8.574 5.177 13.791 6.376 3.358.8 8.955 1.58 12.293.4-3.338 1.18-7.815.4-11.173 0-3.738-.8-7.096-.8-10.454-2.398-3.338-1.98-6.336-3.578-9.314-5.977-2.24-1.978-4.478-3.977-7.076-5.177-1.12-.4-1.879-.78-2.998-.78-.36.78-.36 2.38-.36 3.179-.38-1.2-.76-2.399-1.12-3.578-.759-1.2-2.238-2.398-2.998-3.598zm83.21-10.314c-1.5 1.2-2.619 2.798-3.358 4.777-1.12 3.178-2.239 5.957-4.478 9.135-3.358 4.377-9.714 10.733-15.31 11.133 7.095.38 12.692-6.356 16.79-11.533 1.499-1.58 2.238-3.978 3.358-5.957.38-.799 1.119-2.378 1.499-3.178.74-.8 1.858-.8 1.499.8v-4.777zm-67.92 77.953c2.999-.4 5.977 2.778 8.216 5.157 2.618 3.178 5.616 5.556 8.974 7.935 7.096 4.377 13.073 7.156 21.268 4.777-1.48 2.758-8.575 1.18-11.194.78-3.737-.78-6.336-1.18-9.334-3.958-2.618-1.999-5.976-3.978-8.595-5.956-.74-.8-6.716-7.536-6.716-3.578-.36-1.58-.74-3.558-1.859-4.757zm113.772-59.564c1.879 2.398 4.877 3.198 7.116 5.157 2.238 2.398 3.757 5.956 4.477 9.514.76 2.798 1.519 5.557.76 8.755-.36 1.959-1.48 3.558-1.88 5.117 4.478-.36 2.639-12.273 1.52-15.431-.76-1.999-1.52-5.157-2.999-7.156-1.519-1.599-4.477-3.158-4.477-5.556-1.519 0-3.358 0-4.117-.8zm37.658.24c-.4 2.798 1.878 3.997 3.397 5.996 1.879 3.198 3.358 6.796 3.758 10.354.76 5.996.36 13.991-5.637 16.75 1.879-1.56 3.758-1.56 5.237-3.958.4-1.599.76-3.598 1.16-5.197.36-3.198.719-6.796.36-9.554-1.12-5.996-5.638-9.594-8.276-13.991zm27.982 27.103c-.4 2.399 2.599 3.198 4.078 4.398 2.238 1.998 3.358 5.996 4.117 9.194 1.08 7.556-1.12 13.152-7.475 16.71 3.717.4 6.716-3.958 7.475-6.756 1.08-2.798 1.08-6.396.72-9.154 0-2.799-.72-6.396-2.599-8.395-1.119-1.6-4.077-2.799-4.477-4.797-.72 0-1.48-.4-1.839-.8zm-60.763 3.998s-.4 0-.4.4c1.48 0 5.917.8 6.636-1.2-.72 2.799-4.397 2.399-6.636 1.6zm22.067 5.197c2.238.8 3.717 1.199 6.316.4-1.84 1.199-3.318 1.599-5.557 1.199zm27.583 22.986c1.519-1.16 3.758 1.16 5.596 0-1.479 0-3.358-1.16-4.837-.76-1.519 0-2.638 1.16-4.517.4zm41.015-31.301c2.598 2.798 6.676 3.158 9.274 6.716 2.559 3.558 2.199 7.915 2.559 12.232 0-7.075-2.199-16.95-9.594-18.548zm27.503-27.064c.76 1.999 3.758-.76 4.877-.76 2.279-.799 4.877 0 6.756 1.16 2.639 1.599 3.758 2.758 4.118 5.916.4 2.759 0 5.517-.76 7.876 2.279-5.117 2.998-11.793-2.238-14.951-1.48-1.2-3.758-2-5.997-2-1.12.4-3.757 2.4-4.477.4 0 .8-.4 1.6-.76 2zm-158.064-5.317c3.378-.8 4.877 17.57 5.237 20.348.76 3.598.76 7.196 1.499 10.774.76 3.597 2.998 6.795 3.738 10.373-2.978-7.175-4.857-13.951-4.478-21.527.38-6.796 0-14.77-5.236-19.168zm18.609 13.272c-5.937 1.2-10.774 12.693-7.795 18.63 0-4.358.36-9.915 2.958-13.073 1.859-2.379 4.077-5.956 7.415-6.356-1.1-.4-1.479-.4-2.218 0z" fill="#343434" fill-rule="evenodd"/><path d="M11.233 156.845s11.193-32.32 27.963-30.721c16.77 1.978 26.464 13.551 30.922 11.553 4.477-1.58 4.857-3.978 8.574-1.18 4.098 3.178 3.738.4 7.076-.8 3.738-1.598 28.703-17.169 36.158 1.98 2.599 7.595 1.5 12.772 1.5 12.772l-8.216.4s0-8.775-7.815-12.773c-7.835-3.578-26.084 15.57-35.778 11.174-9.315-4.378-26.085-18.75-36.898-12.753-5.956 3.178-11.933 12.353-14.151 20.728l-9.335-.38zm196.881-33.08c-5.996 4.357-20.907 31.78-33.62 20.268-6.716-6.356-6.716-21.068-11.953-32.18-5.236-11.154 1.52-34.62 22.787-34.62 4.837 0 6.356-1.16 6.356-3.158.36-1.999 0-2.798 1.479-3.598 1.879-.4 2.598 2.799 4.837 0 1.879-2.358 22.426-29.422 32.5-22.266 10.074 6.796 14.911 48.93.36 62.042-10.833 9.514-13.792 6.356-22.746 13.512z" fill="#f2e8e1" fill-rule="evenodd"/><path d="M208.154 123.805c-5.997 4.357-20.907 31.78-33.62 20.268-6.716-6.356-6.716-21.068-11.953-32.18-5.236-11.154 1.52-34.62 22.787-34.62 4.837 0 6.356-1.16 6.356-3.158.36-1.999 0-2.798 1.479-3.598 1.879-.4 2.598 2.799 4.837 0 1.879-2.358 22.426-29.422 32.5-22.266 10.074 6.796 14.911 48.93.36 62.042-10.833 9.514-13.792 6.356-22.746 13.512" fill="none" stroke="#343434" stroke-width="1.359" stroke-linecap="round" stroke-miterlimit="8"/><path d="M205.156 121.007c-4.877 3.957-17.55 27.023-26.904 17.909-5.956-5.197-5.597-19.908-10.074-29.462-4.877-9.954 1.48-28.223 20.148-28.223 11.953 1.959 11.593-4.797 13.472-6.796 1.479-2.359 18.668-25.864 27.623-19.868 8.595 6.356 11.193 41.375-1.48 52.888-9.713 7.955-14.59 7.555-22.785 13.552z" fill="#e7a4a4" fill-rule="evenodd"/><path d="M180.13 120.567c-4.876-9.914 0-23.866 18.63-29.822 10.473-2.798 17.19-11.113 18.668-13.512 5.997-8.755 7.116-27.463 15.67-16.71-1.119-2.798-2.238-4.757-3.717-5.956-8.955-5.996-26.104 17.47-27.623 19.868-1.88 1.999-1.48 8.755-13.432 6.756-18.669 0-25.025 18.309-20.148 28.263 4.477 9.554 4.118 24.265 10.074 29.422 4.117 3.957 8.595 1.999 12.672-1.6-17.51 3.199-7.435-9.553-10.793-16.71z" fill="#d09190" fill-rule="evenodd"/><path d="M205.196 121.047c-4.877 3.957-17.55 27.023-26.904 17.909-5.956-5.197-5.597-19.908-10.074-29.462-4.877-9.954 1.48-28.223 20.148-28.223 11.953 1.959 11.593-4.797 13.472-6.796 1.479-2.359 18.668-25.864 27.623-19.868 8.595 6.356 11.193 41.375-1.48 52.888-9.713 7.955-14.59 7.555-22.785 13.552" fill="none" stroke="#343434" stroke-width="1.039" stroke-linecap="round" stroke-linejoin="round" stroke-miterlimit="10"/><path d="M100.699 34.739c1.12 0 1.839-.4 2.219-1.2 0-1.199-.38-1.998-.74-2.798.36.4.74 1.2 1.1 1.6 0 .4.38.4.38 1.199.359.4.719.8.719 1.599v.8h-1.1c-.36-.4-.74-.4-1.099-.4-.36 0-1.1-.4-1.1-.4zm4.477-5.996c.76.8 2.239 1.599 3.338 1.199.74-.4 1.12-.8 1.86-1.2.359-.799.739-1.598 1.838-1.998-1.48 1.599-2.219 3.997-4.058 4.797-1.119.4-2.598-1.2-2.598-2.399zm25.344 27.763h.74c0-.38.38-.38.38-.78v-.38c-.38-.38-.38-.78-.38-.78.38 0 .38.78.74.78 0 .38.36.78 0 .78 0 .76-.74.38-1.1.38z" fill="#343434" fill-rule="evenodd"/><path d="M103.337 31.061c.38.8.74 1.6.74 2.399 0 .8-.36 1.599-.74 1.999 0 0 .38 0 .74.4h.74c.36 0 .36.399.719.399.36-.4.36-1.599.36-1.999-.36-.8-.36-1.199-.72-1.999-.36-.4-.36-.4-.74-.8-.36 0-.719-.399-1.099-.399zm1.839-1.599c.38 0 .76.4 1.12.8.38.4.76.4 1.119.4.38.4.76.4 1.12.4.379.399.759.399 1.119.399-.74 0-1.12.4-1.86.8-.739 0-1.119 0-1.498-.8-.74-.4-1.12-.8-1.12-1.6z" fill="#f5f0f0" fill-rule="evenodd"/><path d="M182.81 72.076s9.993 4.318 3.717 4.318h3.718s-2.959-3.918-7.436-4.318zm1.838-3.997 8.235 2.798.72-1.2s-1.84.8-8.955-1.598zm-47.331-14.791s1.499 3.598 5.197-2.399c0 0-2.959 5.997 0 5.597 0 0-1.48-.4-1.48-.8s-.36-1.599-.36-1.599-1.119.8-1.498.8c-.36 0-1.86-1.6-1.86-1.6z" fill="#343434" fill-rule="evenodd"/><path d="M235.337 77.273s1.12 19.508-6.716 27.863c-12.672 12.753-23.106 9.155-31.34 24.266 0 0 .4-12.313 13.072-17.51 12.312-5.556 24.625-10.314 24.984-34.619z" fill="#edb6b7" fill-rule="evenodd"/><path d="M234.298 91.904s-.72 12.793-14.151 19.548c-13.033 6.796-14.552 7.596-20.148 13.952 0 0 4.477-8.355 14.95-12.752 17.51-6.756 19.349-20.748 19.349-20.748z" fill="#f3d9db" fill-rule="evenodd"/><path d="m39.936 443.97 8.595-2.398s19.388 19.509 41.055 17.51c21.627-2.359 30.581-14.312 30.581-21.867 0-7.595 5.197-8.795 11.913-9.954 6.716-1.2 18.309-18.749 16.79-39.016-1.84-20.308 10.074-24.306 13.072-25.905 3.358-1.599 2.238-5.956 4.477-6.356 1.879-.4 4.118 4.358 7.076 4.757 3.358.4 9.714 1.2 9.714 1.2s2.958-2.399 5.197-1.2c2.238 1.2.76 3.998 3.358 6.396 2.638 2.759 14.551 10.754 17.55 14.712 3.357 3.997 5.596.8 7.834 2.398 2.239 1.6.76 5.157 3.718 6.356 2.998 1.2 15.31 9.954 39.176-.8 7.476-3.157 2.599-6.755 4.837-7.555 1.88-1.199 3.758 3.998 8.595-.8 4.837-4.756 18.27-20.307 20.508-25.064 2.638-4.397 0-5.996 2.998-8.755 2.998-2.798 3.718 3.558 6.356-.4 2.599-3.597 13.032-17.149 17.87-18.348v8.794s-14.912 11.114-29.463 34.22c-14.551 23.106-49.21 40.215-73.475 25.104-15.67-9.954-28.343-27.503-43.654-30.261-15.67-2.799-22.386 12.712-19.388 32.62 2.239 15.95-10.434 28.303-13.072 29.462-2.599 1.2-1.839 4.797-5.197 8.795-3.358 4.357-5.597 0-7.475 5.956-1.88 5.557-20.148 25.065-42.894 23.906-22.747-1.2-41.056-16.75-46.652-23.506z" fill="#f9f6f3" fill-rule="evenodd"/><path d="M107.455 138.096c-7.855-3.578-26.144 15.51-35.838 11.134-9.335-4.378-26.145-18.71-36.958-12.733-5.976 3.178-11.953 12.333-14.191 20.708 0 0-5.237 16.31-.38 20.287 1.12.8 2.618 2 3.358 3.578 7.475 3.578 17.55 2 24.265-.4 5.597-1.579 11.213-4.377 17.55-3.977 5.236.4 9.714 2.398 14.93 3.977 10.074 2.799 23.526-1.179 32.48-8.754.38-.8.74-1.979.74-2.779.38-6.376 2.239-17.509 2.239-17.509l-.36-.8s0-8.754-7.835-12.732z" fill="#d09190" fill-rule="evenodd"/><path d="M11.273 156.885s11.193-32.32 27.963-30.721c16.77 1.978 26.464 13.551 30.921 11.553 4.478-1.58 4.858-3.978 8.575-1.18 4.098 3.178 3.738.4 7.076-.8 3.738-1.598 28.703-17.169 36.158 1.98 2.599 7.595 1.5 12.772 1.5 12.772l-8.216.4s0-8.775-7.815-12.773c-7.835-3.578-26.084 15.57-35.778 11.174-9.315-4.378-26.085-18.75-36.898-12.753-5.956 3.178-11.933 12.353-14.151 20.728l-9.335-.38z" fill="none" stroke="#343434" stroke-width="1.359" stroke-linecap="round" stroke-miterlimit="8"/><path d="M24.885 181.91c0 .4.76.8 1.12 1.199.759.78 1.119 1.58 1.878 2.379 1.12 1.579 1.859 2.758 2.599 4.357 1.119 1.979 1.878 3.958 2.998 5.936 1.119 1.98 2.978 2.759 4.477 3.958 1.859 1.579 3.358 2.379 4.857 3.958 1.5 1.978 2.978 3.158 4.857 4.757 1.48 1.179 3.738 2.358 5.597 3.158 1.499.4 2.978.8 4.097 1.179-2.238-.38-4.477-2.359-6.336-3.158-2.618-1.18-4.857-2.778-6.716-4.757-1.879-1.979-2.998-3.558-4.857-5.537-1.499-.8-2.618-1.579-3.738-2.778-1.119-1.18-1.499-2.758-2.238-3.958-1.12-1.979-1.88-3.558-2.619-5.536-.74-.8-1.859-2.379-2.618-3.178-1.859-1.58-3.358-2.359-4.857-4.358zm79.172-3.258c-1.859.8-3.338 4.797-4.457 6.396-2.239 4.377-5.597 7.975-8.935 11.153-1.879 1.999-2.618 3.598-4.477 5.197-1.5 1.579-3.358 2.778-4.837 4.377-2.619 2-4.837 2.799-7.836 3.998 4.098.38 8.195-2.798 11.174-5.597a96.555 96.555 0 0 0 9.314-8.774c2.618-2.779 4.477-5.577 6.336-8.775.38-.78 2.239-5.177 3.358-4.377 0-1.2.36-2 .36-3.199z" fill="#343434" fill-rule="evenodd"/><path d="m115.25 150.789 8.555-.4s-1.839 31.86-1.839 45.772c0 13.912 5.197 20.708 3.358 31.021-1.879 10.354-3.358 15.55 0 25.865 3.358 10.353 7.076 17.509 5.956 27.863-1.119 10.353 0 40.175 10.834 41.774 11.193 2 19.028-17.509 43.653-15.91 24.625 1.6 36.978 23.066 43.694 30.222 7.076 6.796 16.39 13.951 32.1 1.599 15.671-12.313 31.701-59.684 55.207-65.24v7.955s-8.195 0-16.39 13.911c-8.595 13.952-13.432 19.908-13.432 23.906.36 3.557 0 6.356-3.758 6.356-4.117 0-12.672 14.311-18.269 17.11-5.596 3.157-1.878 8.354-5.236 9.554-3.358.8-3.718-4.398-6.716-2.799-2.599 1.2-8.955 2.799-15.311 0-5.956-2.398-7.835 3.958-10.074 2.799-1.879-1.2.76-6.397-1.479-9.555-2.638-2.798-11.593-13.551-15.71-17.11-4.078-3.597-7.436 1.6-9.675-.399-2.238-1.999 2.239-5.197-1.119-7.555-3.358-2.799-14.191-7.956-25.385-3.598-11.193 4.797-4.877 9.154-8.594 10.353-3.718.8-4.478-4.797-7.836-.4-3.358 4.358-17.909 21.468-30.621-6.355-3.358-6.397-8.955-1.6-11.193-7.956-1.84-6.396 6.356-2.798 6.356-12.752 0-9.554 3.718-25.864-4.837-35.019-8.595-9.154-9.714-7.555-10.074-13.112 0-5.956 8.555-15.91 8.195-21.107-.76-5.157-6.716-29.022-5.956-34.619.72-5.557-6.756-9.114-5.997-12.312.36-3.598 9.355-5.557 9.714-11.553.36-6.357 2.239-17.51 2.239-17.51" fill="none" stroke="#343434" stroke-width="1.359" stroke-linecap="round" stroke-miterlimit="8"/><path d="M27.184 181.77c1.858 2.378 4.857 4.357 6.336 7.555 1.139 2.779 1.499 5.557 3.737 7.556 2.999 1.978 4.857 4.757 7.476 7.155 3.738 3.178 6.716 3.978 11.193 4.757-.74-.38-1.479 0-2.239-.38-1.119-.4-2.238-1.199-2.978-1.598-1.879-1.2-3.358-1.98-4.477-3.578-1.5-1.6-2.239-3.578-3.738-4.777-1.12-1.2-2.238-1.58-3.358-2.779-1.879-1.599-3.737-5.576-4.477-8.355-1.14-4.377 2.598-4.377 5.217-5.956-3.738-3.198-8.955-1.999-13.452-2.398zm63.141-1.52c1.12.38 2.219 0 3.338 1.18.76 1.2.76 2.798.76 3.998-.38 3.577-2.239 4.777-4.478 7.175-2.238 2-3.717 4.777-5.216 7.176-1.86 2.798-3.718 3.998-6.337 5.577 4.478-.38 7.456-5.577 10.074-8.755 2.219-2.399 4.837-4.397 7.436-6.796 2.239-2.778 2.978-5.976 4.477-8.775 1.12-1.979 2.599-3.178 3.718-4.377.74-.8 2.598-1.999.74-3.198-1.12-.8-5.957 1.999-7.436 2.398-1.12.4-3.358.8-4.098.8zm-71.736 36.139c0 6.776.76 15.53 4.117 21.487 1.48 3.178 4.837 3.977 7.835 5.576 2.979 1.58 6.337 3.978 8.196 6.756 2.618 3.178 4.477 6.357 7.835 8.755 3.738 2.778 7.835 5.157 12.312 5.157-2.238 0-5.596-2.778-7.455-4.357-2.239-1.6-4.098-3.198-6.336-5.177-2.999-2.779-5.237-5.977-7.476-9.555-2.238-3.577-5.217-4.777-8.954-6.356-2.979-.8-3.718-2.778-4.837-5.576-1.12-3.578-2.24-6.756-3.358-9.934-.76-1.999-1.88-4.777-1.88-7.176z" fill="#d09190" fill-rule="evenodd"/><path d="M27.243 185.847c-.38.8.36 2.399.36 3.578-.36 1.2-1.1 1.999-1.859 3.198-1.119 1.98-2.218 3.958-3.338 6.356-1.878 3.978-4.857 10.734-3.358 15.491 0-6.356 3.718-13.112 7.816-17.09 3.717-3.577 2.618-7.555.74-11.533zm75.335-1.199c.38 1.999 2.238 2.798 3.378 4.377 1.479 1.6 1.479 2.399 1.479 4.778-.36 3.977 0 7.955 1.12 11.932 1.119 5.577 2.618 10.754 3.737 16.33 1.12 3.978 2.239 6.756-.36 10.334-.76.8-1.499 1.999-1.879 2.778.38-2.378 1.88-4.757 2.239-7.155.38-2.779-.36-4.378-1.12-7.156-1.119-5.576-1.858-11.533-3.357-16.71-.74-1.999-1.5-3.178-1.86-5.177-.379-1.978-.379-3.977-.379-5.976-.38-1.18-1.5-3.578-2.239-3.978-1.499-.78-2.998 1.2-4.117 2.399-1.12.4-2.619 1.979-2.998 2.379 1.879-2.379 4.497-5.957 5.996-8.755z" fill="#ecb4b4" fill-rule="evenodd"/><path d="M27.903 186.967s-.38 0 0 0c1.859 1.599 2.239 4.797 3.358 7.175 1.12 2.399 2.998 4.777 5.237 6.376 1.499 1.6 3.738 2.799 5.596 4.778 1.5 1.599 2.999 3.597 4.478 5.176-4.478-2.378-8.215-5.576-11.953-9.154-2.239-2.778-5.976-6.776-9.714-3.578.76-.8 1.499-1.999 1.879-2.798.38-1.2.38-2.778 1.12-3.578zm73.575 0c-1.119 1.199-1.858 2.798-2.978 3.997-1.479 1.2-2.238 2-2.978 3.598-1.499 1.999-2.978 3.998-4.837 5.597-1.859 1.599-3.738 3.997-5.976 5.197 2.618-2.399 5.596-3.598 8.215-5.997 1.479-1.599 2.978-3.198 4.457-4.797.76-1.2 1.859-2.798 2.618-3.997.74-.4 1.12-1.2 1.48-1.6.759-.4 1.499-.4 1.858-.799-.36-.8-.74-1.6-1.099-1.999z" fill="#ecb4b4" fill-rule="evenodd"/><path d="M23.766 294.102c-.38 3.578 1.499 7.935 2.998 11.113 1.479 3.178 3.358 5.557 6.336 7.935 2.618 2.779 6.736 3.958 9.714 6.336 3.738 2 6.356 5.557 10.094 7.536 8.215 3.977 16.79 7.535 26.124 7.535-2.598 0-6.336-1.579-8.575-2.758-3.358-1.6-6.736-2.399-10.094-3.178-5.976-1.979-9.714-5.157-14.191-9.914-4.097-3.978-10.074-5.957-14.191-10.714-3.358-3.977-5.977-8.734-7.836-13.891-.38-.4-.38-.4-.38-.8zm97.361-4.557c-1.12 3.198-.74 6.376-1.48 9.154-.74 3.998-3.337 4.797-5.936 7.176-4.817 4.777-5.557 13.531-11.473 17.909-1.48 1.199-2.598 2.798-4.457 3.198-1.84.8-3.698 1.2-5.557 1.579 9.634-3.178 12.972-14.331 18.529-21.887 2.219-3.178 5.557-4.377 7.036-7.975.38-1.979.74-3.578 1.479-5.557.74-1.199 2.218-2.798 1.859-4.397zm-11.473-53.248c-1.1 3.578-3.338 6.776-4.098 10.354 0 1.579-.36 3.178-1.1 4.757-.759 1.599-1.878 2.778-2.997 3.977-4.458 6.356-12.293 7.156-19.369 9.155-1.859.38-3.717 0-5.217-.4-1.479-.4-2.598-.8-4.477-.8 2.998-2.378 6.336.4 9.314 0 3.358 0 5.977-3.178 9.315-4.377 1.499-.4 3.358 0 4.857-.4 1.859-.4 2.978-1.979 4.097-3.178 1.48-1.579 2.599-3.178 3.358-5.157.36-1.599.36-3.198.74-4.777 1.12-2.778 3.358-6.756 5.577-8.754z" fill="#d09190" fill-rule="evenodd"/><path d="M44.093 310.312c6.716 2.798 11.553 9.974 18.25 11.953 3.737 1.599 7.455 3.997 11.172 5.177-2.978-1.58-5.576-2.779-8.175-4.378-2.238-1.2-6.336-2.778-7.075-5.576-.38-3.178 3.717-7.176 5.956-8.775 2.978-2.778 5.956-4.377 9.294-6.376-2.978-.4-6.695 2.398-9.294 3.997-2.978 1.98-4.097 4.777-6.336 7.176-2.618 2.379-10.434-.4-13.032-3.198zm-5.996 58.385c1.12 3.977 3.738 8.354 7.455 10.353 1.86 1.2 4.098 1.98 5.597 3.178 2.239 1.2 2.978 2.779 4.837 4.378 6.716 5.956 16.39 12.732 25.325 13.531 5.217.38 9.694-1.998 14.53-3.597 4.098-1.18 6.717-3.578 10.055-5.557-1.1 1.58-4.837 1.979-6.696 2.778-2.978.8-5.597 2.399-8.935 2.779-4.857.4-9.314 1.998-14.53.8-4.838-1.58-9.695-5.957-13.793-8.756-2.238-1.579-3.717-2.378-5.576-4.357-1.859-1.599-2.978-4.377-4.857-5.976-2.599-1.6-5.577-.8-8.195-2.379-2.219-1.599-4.098-3.977-4.837-6.376zm87.647-50.13c0 .8 1.12 1.999 1.479 2.798.36 1.2.74 2.399 1.1 3.578.739 1.999.739 4.397 1.119 6.376.36 2.399.72 4.398.72 6.776.379 2.399 0 4.397.379 6.376.74 4.797 1.839 9.574 3.318 13.952 1.459 3.598 1.1 8.774-.74 11.953 0-2.379.74-4.778.74-6.756-.38-2.399-1.48-3.998-2.579-5.997-1.838-4.377-1.479-9.554-2.218-14.331-.36-3.998-1.1-7.975-1.1-12.353 0-1.998 0-3.597-.74-5.596-.739-2.379-2.218-4.378-2.218-6.776zm24.246 13.672c-.76 1.199-2.26 1.599-3.759 1.998-1.499.78-2.998 2.379-4.117 3.958-1.879 1.58-2.619 3.958-3.378 6.736-.38 2.778 0 4.757 1.12 7.136-1.5-3.558 0-9.914 2.638-12.293 1.499-1.18 3.358-1.979 4.857-3.158 1.139-1.2 2.258-2.379 2.998-3.978zm10.393-9.115c-.36 2.399 5.596 5.157 7.076 5.957 2.238 1.199 3.757 2.798 4.877 5.556 1.838 5.557 1.479 12.712-2.24 17.07-.759.8-1.118 1.2-2.238 1.559 6.316-4.357 5.597-16.23.72-20.987-1.12-1.2-2.239-2.399-3.718-2.799-1.479-.8-2.239-1.559-3.718-2.358-2.638-1.2-5.236 1.559-7.115 3.158 1.879-2.359 4.117-4.358 5.996-6.756zm31.98-7.675c1.92.8 5.277 1.599 6.437 2.798 1.119 1.999-.76 5.157 0 7.556.76 2.758 3.757 4.757 4.877 7.555 1.159 2.359 1.159 3.958 1.519 6.716.4 1.999 1.119 3.997.76 5.996 0 2.359-1.12 5.557-3.759 6.316 3.398-4.357 2.999-9.514 1.88-14.67-.4-3.199-1.88-7.156-4.158-9.155-1.12-.8-1.879-1.16-2.279-2.359-.72-1.199.4-2.798-.36-3.997-.36-1.56-2.638-2.359-3.757-3.558-.76-1.6-.76-2.399-1.92-3.198zm26.904 21.986c1.52 2.399 5.237 4.398 5.957 7.156.4 2.399-.72 5.157.759 7.556 1.12 1.599 2.239 1.599 3.358 2.398 1.48.8 1.839 1.56 2.598 3.158 1.84 3.598 3.318 7.556 2.599 11.513 0 1.999-1.12 3.198-1.48 5.157 0-2.758.36-5.157 0-7.915-.399-1.999-1.119-3.998-1.518-5.956-.36-1.2-.72-2.799-1.84-3.998-.759-1.16-1.878-1.56-2.957-2.359-1.88-1.599-1.88-3.597-2.24-5.956 0-1.6-.759-2.798-1.878-3.598-1.479-1.559-2.239-2.358-2.958-4.357 0-.4-.4-1.2-.4-1.6z" fill="#d09190" fill-rule="evenodd"/><path d="M206.315 376.372c2.598 1.599 3.718 4.757 6.716 5.157 2.598.36 5.157-.8 7.755 0-1.479-.4-2.598-1.2-4.077-1.2h-3.318c-2.599-.4-4.478-2.358-6.676-3.158z" fill="#c68687" fill-rule="evenodd"/><path d="M246.21 352.466c2.6 0 6.357-2.398 8.236-1.199 1.519.8 2.238 2.399 3.758 2.798 1.119.8 2.238.8 3.357 1.6 5.237 3.557 8.235 11.113 5.997 17.469-.36 1.2-1.12 1.999-1.48 2.758 0-3.957 1.48-7.515-.759-11.113-1.519-3.158-4.117-5.557-7.115-7.156-1.88-1.199-4.118-3.158-5.637-3.957-1.48 0-5.996-1.2-6.756-.8z" fill="#d09190" fill-rule="evenodd"/><path d="M264.08 381.529c1.879 0 4.517-5.557 4.157-7.156-.76 3.198-3.398 5.157-5.316 7.516z" fill="#c68687" fill-rule="evenodd"/><path d="M282.389 327.042c3.358.4 5.596-2.799 8.595-2.799 2.598 0 7.075 1.6 8.554 3.998 1.12 2.758.36 7.516.36 10.714-.36 3.158-2.238 6.356-4.477 8.315 2.239-5.157 5.956-17.43-1.08-20.228-2.998-1.2-7.075-.4-9.314 1.999-2.638 1.958-5.956 3.158-8.595 5.156 1.12-3.198 5.237-4.357 6.357-7.955z" fill="#d09190" fill-rule="evenodd"/><path d="M23.386 286.107c0-7.176 0-14.352.76-21.527.38-3.998 1.858-5.197 4.097-8.375 1.499-1.2 2.618-2.399 3.378-3.998.36-1.2.74-2.398 1.479-3.598 4.117 4.797 6.736 11.573 11.973 15.97 2.598 1.6 5.596 3.179 8.594 4.378 2.599 1.2 6.337 1.2 8.575 2.798-5.217.8-9.714-1.199-14.57-3.198-4.098-1.579-7.836-4.377-11.954-5.976-9.714-3.198-10.833 13.572-12.332 20.348zm56.905-18.729c2.619 1.599 6.716-1.2 9.315-1.999 2.618-.8 5.237-.8 7.835-1.599 4.857-1.579 6.716-5.576 9.694-9.174 5.217 3.198 9.334 6.396 12.313 12.372 2.598 5.577 1.119 13.152.74 19.129-.74-5.177 0-13.552-4.098-17.13-2.619-2.399-7.076-5.597-10.814-4.797-2.238.4-4.477 1.599-6.716 1.999-2.238.4-4.837.4-7.455.8-3.358.399-8.195.399-11.193 1.998zM32.88 348.509c1.12-4.358-1.499-9.914 0-13.872.74-2.778 3.358-3.977 4.477-6.356 1.12-1.979 1.12-3.958 1.12-6.356 2.618 0 5.596 4.777 8.195 6.356 3.358 1.58 6.716 2.778 10.074 4.357 3.358 1.2 7.095 2 10.433 2.779 4.478.8 8.595-.4 13.052 0-5.956 2.778-15.65 1.599-21.986.8-5.217-.8-10.454-3.179-15.67-3.958-5.218-.8-5.957 3.158-6.717 7.535-.74 4.757-2.238 8.315-2.598 13.472zm53.668-13.952c8.195-2.378 14.89-1.979 20.467-9.514 2.978-3.578 6.716-9.534 8.195-14.311 1.12 5.177 7.436 3.178 9.315 8.355 1.858 4.357 2.958 9.514 2.958 15.09-1.1-4.777-7.056-22.646-13.012-15.09-3.358 4.757-4.837 11.113-10.794 12.692-4.477.8-10.054 1.999-14.89 1.999zm46.292-5.677c2.238 2.4 4.077 4.398 7.035 4.798 0 .8-1.479 1.999-2.218 2.798-.74 1.6-1.48 2.798-1.84 4.397-.38 2-.38 3.998-.38 5.997 0 1.599.38 3.598 0 5.197-.739-2.799-.739-5.597-1.098-8.395-.38-2 0-4.398 0-6.396 0-1.6 0-3.198-.38-4.398 0-1.199-.36-3.598-1.12-3.997zm41.734 6.916c-.72-2.398-1.479-4.757-2.958-6.755-1.12-1.6-2.998-2.399-3.758-3.958 1.12-1.6.76-3.598 1.52-5.197 1.119-1.559 3.717-2.358 5.596-3.158 3.358-1.2 10.074-3.998 13.032-.8-1.839.4-4.077 0-5.956 0-2.239.4-3.718 1.2-5.597 2-2.239 1.199-4.837 3.157-5.597 5.556-.76 3.158 2.24 5.557 2.999 7.955.72 2.758.72 5.957 1.479 8.315zm33.62 13.992c0-5.197 1.479-9.594 0-14.351-1.12-3.598-2.998-5.997-5.237-8.795.76-.4 1.12.4 1.879.4.76 0 1.479-.4 2.238-.4 1.48-.4 1.48.4 2.959 1.6 2.598 2.398 5.197 5.196 7.795 7.594-1.839-.4-3.718-3.597-5.916-3.597-2.24 0-1.88 4.397-1.88 5.996 0 2.758.36 5.557-.36 7.955-.759 1.999-1.478 3.998-1.878 5.557zm29.022 23.746c-.36 0-.36.36-.36.36 1.84-2.759 1.48-8.715.72-11.913-.36-3.158-2.199-5.957-4.437-7.916-1.12-.8-1.88-.8-1.48-1.998 1.12-2 2.599-1.6 3.718-1.6 2.959.4 5.157 1.6 7.756 2.4.76 0 1.119 0 1.479.399-1.08.8-4.438-.4-5.557.8-1.12 1.598.4 6.356.4 7.915.36 4.797-1.12 7.955-2.998 11.912zm32.82-6.836c0-3.558 0-6.716-1.479-9.914-.72-1.16-1.839-2.359-2.598-3.158-1.12-1.2-2.599-1.2-2.958-2.759-.4-.8 0-3.997.36-4.397.759-1.16 2.238-1.559 2.958-2.359 2.998-2.398 5.196-5.156 7.795-7.555-1.08 2.798-2.599 5.557-4.437 7.955-1.84 2.759-2.599 4.358-1.48 7.516 1.48 4.397 2.24 8.355 2.24 13.112zm31.341-39.976c-3.358-4.757-7.115-7.955-12.352-4.357-.76-2.399.4-4.797 1.519-6.796 1.839-2.399 3.358-5.597 4.837-8.355 1.52-2.798 2.998-6.396 5.237-8.795a16.294 16.294 0 0 0 4.117-4.797c-.72 1.999-2.238 3.598-2.958 5.597-1.16 2.398-2.279 4.797-2.998 7.195-1.12 2.799-3.758 5.557-4.118 8.755 0 2.399 1.48 3.598 2.999 5.197 1.838 1.599 3.358 3.997 3.717 6.756zm15.271-43.414c2.239.8 4.837.8 7.076 2 2.238 1.198 4.077 3.197 5.956 5.156 3.718 4.757 5.197 10.314 4.837 16.27-.72-.76-.72-4.357-1.12-5.956-.359-1.56-1.478-3.158-2.238-4.757-1.479-2.359-3.358-4.758-5.596-6.756-2.959-2.759-5.557-4.358-9.315-5.557z" fill="#ecb4b4" fill-rule="evenodd"/><path d="M89.486 459.062c21.667-2.399 30.621-14.332 30.621-21.907 0-7.555 5.237-8.755 11.953-9.954 6.716-1.18 18.289-18.709 16.81-39.016-.38-1.18-.38-2.379-.38-3.578-8.955-21.907-3.358 36.638-58.245 42.194-23.525 2-43.693-25.064-45.192 10.754 0 1.599 0 3.198.38 4.777l2.998-.8s19.408 19.509 41.055 17.53z" fill="#d09190" fill-rule="evenodd"/><path d="m11.093 156.825 9.335.4s-5.237 16.31-.38 20.287c4.497 3.578 8.595 9.555 3.738 14.731-4.857 5.157-10.834 19.888-4.478 42.155 4.098 14.711 11.214 5.577 11.214 13.931 0 8.735-7.476 5.157-8.236 15.111-.36 9.535-4.097 27.444 4.118 45.333 2.978 6.776 9.714 9.954 10.094 14.73 0 4.378-7.116 8.736-6.736 14.312.38 5.977-.38 20.288 10.454 40.176 2.618 4.377 10.094 3.578 10.473 10.334.36 6.376-6.356 8.754-5.976 19.888.36 11.153-2.619 25.064 3.738 33.42l-8.595 2.378s-5.237-17.89-4.118-34.2c1.12-16.31-2.978-30.221-7.475-38.976-4.098-8.754-10.454-22.286-8.215-36.598 2.238-14.71-2.239-26.643-4.857-33.42-2.978-6.755-5.597-30.221-1.48-40.954 4.098-10.754 1.48-20.288-.38-26.664-2.238-6.356-5.616-23.866-2.238-33.8 3.738-9.954 2.239-14.73.36-19.888-1.479-4.777-2.598-16.71-.36-22.286z" fill="#f6f3ed" fill-rule="evenodd"/><path clip-path="url(#a)" d="m11.133 156.865 9.335.4s-5.237 16.31-.38 20.287c4.497 3.578 8.595 9.555 3.738 14.731-4.857 5.157-10.834 19.888-4.478 42.155 4.098 14.711 11.213 5.577 11.213 13.931 0 8.735-7.475 5.157-8.235 15.111-.36 9.535-4.097 27.444 4.118 45.333 2.978 6.776 9.714 9.954 10.094 14.73 0 4.378-7.116 8.736-6.736 14.312.38 5.977-.38 20.288 10.454 40.176 2.618 4.377 10.093 3.578 10.473 10.334.36 6.376-6.356 8.754-5.976 19.888.36 11.153-2.619 25.064 3.738 33.42l-8.595 2.378s-5.237-17.89-4.118-34.2c1.12-16.31-2.978-30.221-7.475-38.976-4.098-8.754-10.454-22.286-8.215-36.598 2.238-14.71-2.239-26.643-4.857-33.42-2.978-6.755-5.597-30.221-1.48-40.955 4.098-10.753 1.48-20.287-.38-26.663-2.238-6.357-5.616-23.866-2.238-33.8 3.738-9.954 2.239-14.73.36-19.888-1.48-4.777-2.598-16.71-.36-22.286" fill="none" stroke="#343434" stroke-width="1.359" stroke-linecap="round" stroke-miterlimit="8"/><path d="m39.976 444.01 8.595-2.398s19.388 19.509 41.055 17.51c21.627-2.359 30.581-14.312 30.581-21.867 0-7.595 5.197-8.795 11.913-9.954 6.716-1.2 18.309-18.749 16.79-39.016-1.84-20.308 10.074-24.306 13.072-25.905 3.358-1.599 2.238-5.956 4.477-6.356 1.879-.4 4.118 4.358 7.076 4.757 3.358.4 9.714 1.2 9.714 1.2s2.958-2.399 5.197-1.2c2.238 1.2.76 3.998 3.358 6.396 2.638 2.759 14.55 10.754 17.55 14.712 3.357 3.997 5.596.8 7.834 2.398 2.239 1.6.76 5.157 3.718 6.356 2.998 1.2 15.31 9.954 39.176-.8 7.476-3.157 2.599-6.755 4.837-7.555 1.88-1.199 3.758 3.998 8.595-.8 4.837-4.756 18.27-20.307 20.508-25.064 2.638-4.397 0-5.996 2.998-8.755 2.998-2.798 3.718 3.558 6.356-.4 2.599-3.597 13.032-17.15 17.87-18.348v8.794s-14.912 11.114-29.463 34.22c-14.551 23.106-49.21 40.215-73.475 25.104-15.67-9.954-28.343-27.503-43.654-30.261-15.67-2.799-22.386 12.712-19.388 32.62 2.239 15.95-10.434 28.303-13.072 29.462-2.599 1.2-1.84 4.797-5.197 8.795-3.358 4.357-5.597 0-7.476 5.956-1.878 5.557-20.147 25.065-42.894 23.906-22.746-1.2-41.055-16.75-46.651-23.506" fill="none" stroke="#343434" stroke-width="1.359" stroke-linecap="round" stroke-miterlimit="8"/><path d="M45.932 432.018c0-5.956.74-11.933.74-17.909 0-2.778-.36-5.557 0-8.355 0-2.778 1.479-7.555 3.697-9.154v-.4c-1.119 1.2-1.119 3.598-1.479 5.177-.36 1.599-.36 3.198-.74 4.777v7.955c0 5.976 7.736 3.998 11.054 6.376-1.839 0-6.636 0-7.735 1.2-2.219 2.378-2.938 5.576-4.058 8.354zm126.444-96.341c.76 1.599.76 3.597.76 5.596.359 1.999.719 3.998.359 5.597-.72 2.398-2.599 2.398-4.437 2.398-1.48 0-2.599-.4-4.078-.4-.76 0-1.879.4-2.638-.4 1.878 0 3.717-.799 5.236-1.598 2.2-1.2 2.959-3.198 3.318-5.597 0-1.999 0-3.598-.36-5.596-.36-2-1.119-3.199-1.878-4.798zm23.785 11.233c1.879 1.159 5.597 1.959 7.076-.8.36-1.559.72-3.558 1.12-5.117 0-1.159-.4-2.358 0-3.558.719 1.2.719 3.558.719 4.758.36 1.159 0 2.718 0 4.317-.36 1.56-.72 2.758-1.48 4.317-.719 1.2-.719 1.56-1.838 1.2-1.88-1.2-3.358-2.359-5.197-3.158zm38.457 20.987c0 3.198-1.12 5.197-2.239 7.995-1.479 0-2.598-1.2-3.718-1.599-1.878-1.2-3.358-1.999-5.236-3.598-1.12-.8-2.599-1.199-3.358-2.398-.36-.4-.72-1.2-1.12-1.6 1.52.8 3.358 2 4.877 3.199 1.12.8 2.959 2.398 4.837 2.398 1.48 0 2.999-1.199 3.358-2.798.76-1.2.76-2.398 1.12-3.198 0-1.2-.36-2.399 0-3.598.76 1.2.36 3.198 1.119 4.398zm26.464-8.635c3.398 2.799 3.757 7.995 1.519 11.953-.76 1.6-2.639 2.798-4.118 4.397-1.879 1.2-4.157 2-6.036 3.598 1.879 1.16 4.877-.8 6.396-1.2 1.52-.799 2.639-1.598 4.118-2.398 1.878-.8 2.638-1.599 3.398-3.597.72-2.399.72-4.758.36-7.156-.36-1.2-1.12-2.399-1.88-3.198-.36-.4-.76-.8-1.479-1.2-.76-.4-1.159-.4-2.278-.799zm31.701-33.02c1.878 1.2 2.638 2 3.397 4.398.72 2.398 0 3.597-1.119 5.996-1.16 1.559-2.278 2.758-2.998 4.357-1.52 2.399-3.758 4.797-4.517 7.556 1.879-1.16 2.998-3.558 4.517-5.157 1.12-1.2 2.598-2.399 4.118-3.598 1.479-1.2 3.357-2.798 3.717-5.157.36-1.999 0-4.397-1.479-6.396-1.12-1.599-3.758-2.798-5.636-2.398zM149.47 363.26c-1.46 1.999-1.84 5.976-2.579 7.955-.36 1.2-1.46 2.778-2.938 2.778-1.84.4-1.84-1.978-2.938-2.778 0 1.2.36 2.778.72 4.377.379 1.6.379 3.578 0 5.177 0 1.58-.36 2.779-.72 4.358-.38 1.599-1.86 4.777-1.48 6.755 1.84-3.178 5.157-5.156 6.636-8.334 1.84-3.578 2.579-7.156 2.2-10.734z" fill="#d09190" fill-rule="evenodd"/><path d="M50.71 395.38c2.238-1.199 1.858-5.176 2.238-7.175 1.859 2.398 3.738 5.576 6.336 7.175 1.5.8 3.358.8 4.857 1.98 1.12 1.198 1.859 1.998 2.978 3.197 4.098 2.379 8.575 4.777 13.052 5.177 1.86 0 3.358 0 5.217-.4 1.86-.4 4.098-1.998 5.957-1.599-2.599 0-4.837 2.779-7.456 2.779-2.238 0-4.457-1.18-6.696-1.18-4.857-.4-9.694-.4-14.551-2.798-1.859-.78-3.358-1.979-5.217-3.178-.74-.8-1.499-1.999-2.618-1.999-2.599.4-5.217 5.577-5.597 7.975 0-3.577 1.12-6.776 1.879-9.954zm-11.494-91.384c2.998 2.358 6.356 3.937 9.335 5.896 1.499.8 3.358 1.979 5.216 2.359 2.619 0 3.738-1.96 5.237-3.938 2.239-1.959 4.837-5.497 8.195-5.497-2.238-1.199-7.455 2.36-8.954 3.538-1.86 1.96-2.599 3.938-5.217 3.538-2.978 0-4.857-2.358-7.456-3.538-2.238-1.179-4.857-2.358-7.475-2.358zm21.587 9.934c-.74.4-1.12 1.999-1.12 2.798 0 1.58.38 1.979 1.88 2.778 2.598 1.2 5.217 1.98 7.455 3.978 2.619 1.579 4.857 3.978 7.835 4.377 2.24.38 3.738 0 5.597-.4 2.239-.799 4.857-.799 7.456-1.199-3.718.8-7.836 1.6-11.553.8-2.999-.4-4.478-1.6-6.357-3.978-2.238-1.999-4.097-2.778-6.716-3.578-2.238-.8-4.477-1.998-4.837-5.176zm9.754-52.528c2.619 1.199 6.716-.82 9.694-.42 3.738.42 5.217-2.019 8.935-2.419-2.598-1.639-5.956.8-8.935 1.2-1.119 0-2.598-.8-4.097-.4-1.48.4-2.978 1.619-4.837 1.619zm58.105 96.181c2.978 3.198 2.618 9.994 0 13.592-2.618 3.998-8.235 6.396-11.973 9.194 2.259-4.797 7.856-6.795 10.474-10.793 1.879-3.198 2.239-7.595 2.239-11.193z" fill="#ecb4b4" fill-rule="evenodd"/><path d="M27.583 186.647c-.38 1.999 0 3.578-.76 5.577-.739 1.579-1.858 3.158-2.997 4.357-2.619 3.578-5.237 8.335-4.857 13.092.759-5.157 2.998-10.714 6.735-13.892 1.12-1.179 2.24-2.378 2.619-3.957.74-2.379-.38-3.178-.74-5.177zm75.035-1.679c1.839 1.599 4.437 4.377 4.817 7.156 0 4.757-.38 8.315 1.1 12.672-1.1-2.379-1.84-4.757-2.22-7.516-.36-1.599 0-3.178-.739-4.777-.36-.78-1.12-2.758-1.859-3.558-1.1-.799-1.839.4-3.338 0 .38-.799 1.859-1.978 2.239-2.778zm-72.356 5.676c1.879 3.179 3.378 7.136 6.356 9.515 2.618 1.978 5.237 3.957 7.475 7.515-2.598-3.158-6.336-4.737-8.954-7.515-2.259-2.379-3.378-5.157-4.498-8.715zm68.598.32c-1.1 1.6-2.578 2.799-3.698 4.398-1.119 1.998-2.598 3.997-4.457 4.797 3.338-2 5.936-5.597 7.795-8.795zM32.42 248.21c0 3.198-1.099 5.196-3.318 7.195-1.479 1.58-3.338 2.779-4.437 5.177-.74 3.198-.74 6.776-1.12 9.574-.379 3.978-.379 7.576-1.119 11.154 2.24-4.378 2.599-9.954 3.338-15.151.38-3.178.74-5.577 2.959-7.975 1.479-1.2 4.817-2.379 5.916-4.378.74-1.999-.36-4.797-1.839-5.996zm74.215 6.076c1.5 3.997 6.396 5.976 9.015 8.775 3.378 3.178 4.877 7.955 4.517 12.732-1.14-3.578-1.499-5.957-3.378-8.755-1.879-2.778-3.018-4.777-5.277-6.376-1.119-.8-1.858-1.18-2.998-1.579-.74 0-1.879 0-2.618-.4-1.52-1.199-.76-3.198.36-3.997zM32.8 338.875c.38-1.98-.38-3.158.38-4.738.76-1.599 2.259-2.778 2.998-3.977 1.879-2.758 2.259-5.537 2.998-8.715.38 1.6 2.259 2.379 3.378 3.178 1.88.8 2.998 1.98 4.497 3.178-1.119-.8-2.618-1.998-4.117-2.378-2.259-.8-2.618 1.18-4.118 3.158-1.139 1.579-2.638 2.778-3.757 4.357-1.5 1.979-1.5 3.958-2.259 5.937zm75.095-13.752c1.878-2.399 3.737-5.217 5.216-8.435.74-1.599 1.86-3.218 1.86-5.237 1.858 2.819 3.717 2.419 5.956 3.218 2.218.42 3.338 2.819 4.077 4.837-.74-1.619-1.859-2.818-3.718-3.218-1.479-.8-2.598 0-4.457 0-.38-.4-1.479-.8-1.859-.8-.74.4-1.479 1.6-1.859 2.4-1.479 2.018-3.338 4.437-5.216 6.036zm26.364 5.757s-.38 0 0 0c1.519 1.219 3.018 3.218 4.897 2.418-1.5 1.22-2.259 2.818-2.999 4.437-.38 2 0 4.418-1.139 6.017-.38-4.418 1.14-8.035-.38-12.453zm40.315 4.117c-.36-2.399-1.479-5.197-2.958-6.796-1.12-1.599-3.758-2.398-3.358-4.357 0-2.399 1.839-4.797 3.718-5.997 1.839-.8 4.477-1.199 6.676-1.599-2.958.8-9.275 4.398-8.915 7.995.36 1.56 2.599 3.159 3.358 4.358 1.12 2.398 1.12 4.797 1.839 7.156zm33.9 5.876c0-4.357-1.84-10.713-5.197-13.511 1.519-.4 3.358-.8 5.197 0 1.479.8 4.077 2.398 4.797 3.997-2.199-1.2-4.797-1.999-6.996-2.798 0 1.599 1.48 3.598 1.839 5.157.36 2.398.72 4.397 1.12 6.796zm29.542 22.787c0-2.799-.4-5.997-2.279-7.996-1.12-.8-4.157-2.398-3.398-3.597 1.16-3.198 9.035 0 10.914.8-2.999.399-5.997.399-8.635-.8-.4 1.199 2.638 3.997 2.998 5.596.76 1.999 1.12 3.998 1.52 6.396zm31.661-3.718c0-1.959-1.48-5.117-2.559-6.716-1.12-1.6-2.558-1.6-2.918-3.558-.4-2.358 0-2.758 1.439-3.958 1.839-1.559 4.038-3.557 5.117-5.156-1.08 1.599-1.799 3.597-3.278 5.156-1.08 1.2-2.199 2-1.839 3.958 0 1.6 1.48 2.758 2.199 4.357.76 1.2 1.119 2.759 1.479 3.958.72 1.56.36 3.158 1.08 4.717zm28.703-37.377c-2.959-2.36-5.557-2.36-8.915-1.56-.4-2.398.36-4.757 1.479-6.715.76-1.2 1.479-2.399 2.238-3.598 1.12-1.16 1.48-2.759 2.239-3.958 0 2.399-1.52 4.757-2.598 6.756-.76 1.56-1.12 3.958-2.24 5.517.72 1.199 2.96.8 4.078.8 1.88.799 3.358 1.598 4.078 2.758zM49.21 403.396c0-2.399 1.5-5.197 2.639-7.596 1.119-1.999 1.499-3.997 1.119-6.396 1.12 1.2 1.879 2.399 2.998 3.198 1.12 1.2 2.618 1.6 4.118 2.399 1.878 1.199 5.256 3.597 5.996 5.996-1.859-.8-2.998-2.399-4.857-3.598-1.879-.8-3.758-.8-5.257-2.398-.38-.8-.74-2-1.499-1.6-.74 0-1.5 2-1.879 2.799-1.499 2.398-1.879 4.397-2.618 7.196z" fill="#f0cacb" fill-rule="evenodd"/><path d="M208.793 327.761c-.72-.8-2.198-.8-3.278-.8-1.119-.399-2.238-.399-1.479 1.2.72 1.2 1.84 1.999 2.559 3.598.76 1.999 1.479 3.998 1.839 5.996-.36-2.398-1.48-5.596-2.559-8.395-.36-.8-1.12-1.199 0-1.599.72-.4 1.84 0 2.559.4zm-37.217-9.514c-1.879 1.2-2.998 3.598-3.398 5.597 0 1.599 1.16 1.999 1.919 2.798 1.479 1.6 2.998 3.998 3.358 5.597 0-1.2-1.12-3.598-1.879-4.797-.36-.8-1.48-1.6-1.879-2.399-.76-1.599.4-4.797 1.12-6.396zm2.918 16.63v1.679c.8 0 .4-1.24 0-1.679zm.8 4.078c0 .8 0 1.199.8 1.599.399-.8 0-1.6-.8-2zm59.804 11.872c-1.12-.44-4.158.4-3.398 2 0 .799 1.519 1.198 1.878 1.638.76 1.2 1.52 2.798 2.24 3.598-.72-.8-1.48-2.798-2.24-4.038-.76-1.599-.76-2.398 1.12-3.198zm1.359 9.555c.4 1.639 0 4.477 1.119 5.676.72-1.599 0-3.638-.72-5.237zm29.942-15.511c-2.759.4-2.359 3.198-2.759 5.197 0 .4-.4 1.2-.4 1.599 0 .8 0 .4.4.8s1.2.4 1.56.799c.799.4 1.199 1.2 1.558 1.599-.36-1.2-1.159-1.6-1.919-2.399-.4-1.199-.4-1.199-.4-2.798 0-1.2-.399-3.998 1.56-4.397zm24.904-30.941c-.76 1.599-1.918 3.917-1.918 5.476.4 1.16.4 1.16 1.559 1.16.76 0 1.519-.36 2.278-.36.4 0 .76.36 1.52.36-.76 0-1.12-.36-1.88-.76-.4 0-1.559.4-1.918 0-1.16-.8 0-4.277.36-5.077zm-155.925 17.769s-.38-.82 0 0c.74.8 1.859 1.599 2.978 1.999-1.859 3.218-1.859 7.235-2.598 10.853.36-3.618.74-8.834 0-12.452zm-1.019 15.611a.76.76 0 1 1 1.518-.001.76.76 0 0 1-1.518 0zm.639 3.198a.76.76 0 1 1 1.519-.001.76.76 0 0 1-1.519 0zm100.819 27.183c0-.52.4-1 .88-1 .52 0 .879.48.879 1 0 .56-.36 1-.88 1-.48 0-.879-.44-.879-1zm-1.199 2.439c0-.28.16-.56.32-.56.2 0 .32.28.32.56 0 .32-.12.56-.32.56-.16 0-.32-.24-.32-.56zm-28.303-26.264c0-.52.44-1 .92-1 .52 0 .919.48.919 1 0 .56-.4.999-.92.999-.48 0-.919-.44-.919-1zm-1.839 2.198c0-.44.36-.8.76-.8.44 0 .76.36.76.8 0 .48-.32.8-.76.8-.4 0-.76-.32-.76-.8zm-28.463-8.754c0-.4.36-.76.72-.76.4 0 .72.36.72.76 0 .44-.32.76-.72.76-.36 0-.72-.32-.72-.76zm94.423 18.668c0-.36.44-.72.92-.72.52 0 .919.36.919.72 0 .4-.4.72-.92.72-.48 0-.919-.32-.919-.72zm1.119 3.598c0-.16.16-.32.36-.32.2 0 .36.16.36.32 0 .2-.16.32-.36.32-.2 0-.36-.12-.36-.32zm30.542-37.857c0-.64.6-1.16 1.32-1.16.759 0 1.318.52 1.318 1.16 0 .64-.56 1.16-1.319 1.16-.72 0-1.32-.52-1.32-1.16zm0 5.597c0-.24.28-.44.56-.44.32 0 .56.2.56.44 0 .28-.24.44-.56.44-.28 0-.56-.16-.56-.44z" fill="#f4edec" fill-rule="evenodd"/><path d="M73.036 468.276s33.58 11.573 57.465-21.947c0 0 5.597 7.996 6.336 18.75 0 0-2.978-16.351-9.314-8.376-6.356 7.975-26.504 24.325-54.487 11.573z" fill="#f3e8e3" fill-rule="evenodd"/><path d="M149.99 465.038s1.878-12.692-8.296-32.96c0 0-.38-1.979 1.52-1.979 1.878 0 8.654-8.355 11.292-14.71 0 0-2.998 8.754-7.535 15.11-4.897 5.956 6.796 17.07 3.018 34.54z" fill="#edcabc" fill-rule="evenodd"/><path d="M137.317 465.438c0-1.06.9-1.919 1.999-1.919 1.119 0 1.998.86 1.998 1.919 0 1.06-.88 1.919-1.998 1.919-1.1 0-2-.86-2-1.92zm-1.12-5.357c0-.78.56-1.439 1.24-1.439.7 0 1.239.66 1.239 1.44 0 .799-.54 1.438-1.24 1.438-.679 0-1.239-.64-1.239-1.439z" fill="#fff" fill-rule="evenodd"/><path d="M68.239 79.272s26.124 41.655 44.413 44.813c0 0 2.598 2.378 3.717 4.757 0 0-7.455-5.137-19.768 0 0 0-2.978-25.764-23.885-22.986 0 0 3.358-3.578 8.955-5.957 0 0-4.098 0-10.434 2.779 0 0 8.954-6.736-2.998-23.406z" fill="#dfb1a2" fill-rule="evenodd"/><path d="M64.241 69.278s4.477 3.598 7.116 8.355c2.238 4.797 33.54 51.369 46.612 42.214 0 0 32.06 36.178 58.524 27.424 0 0-7.795-3.158-9.314-16.31 0 0-22.747 4.797-33.94-8.355-11.553-13.512-19.748-15.111-21.627-28.663 0 0 4.118 18.309-10.433 5.197C86.627 85.988 71.357 67.28 64.24 69.278z" fill="#dfb1a2" fill-rule="evenodd"/><path d="M64.201 69.298s-5.157-12.353 4.038-17.53c0 0-10.314 11.554 1.839 19.109L64.2 69.298z" fill="#dfb1a2" fill-rule="evenodd"/><path d="M62.722 53.767s-3.718 6.776-1.48 16.35c0 0-12.671 5.957-19.767-1.199-6.716-7.175-15.29-13.152-17.53-12.752 0 0 8.595 0 16.79 5.177 8.195 5.576 14.911 8.375 21.987-7.576zM65.28 81.59s-6.336 6.756-3.358 13.912c2.979 7.156 4.098 11.513 7.436 9.135 0 0-1.1.8-2.598-1.98-1.86-3.177-8.195-10.733-1.48-21.066z" fill="#dfb1a2" fill-rule="evenodd"/><path d="M40.675 96.741s3.718.8 4.837 1.6c1.48 1.179 8.155 4.357 6.676-2.4-1.479-7.155 0-14.31 3.718-17.109 3.338-2.378 4.817-5.177 4.078-5.556-.74-.8-10.774 6.755-22.287-3.998 0 0 5.577 7.176 11.893 7.575 6.316.4-1.859 3.978-1.12 10.334.38 6.776 6.317 11.533-7.795 9.554zm2.539 4.278s8.575 3.198 10.453 7.175c1.86 3.978 11.553 12.333 13.033 19.908 1.499 7.556 2.978 9.934-1.48 7.156-4.477-2.778-16.41-8.755-19.768-9.554 0 0 19.389 8.355 17.89 3.977-1.1-4.777-7.076-12.332-9.315-15.91-1.859-3.198-.74-7.575-10.813-12.752zm27.643 5.676s-2.618 2.799-1.859 4.378c.36 1.998 12.273 14.71 13.012 25.444 0 0 3.358-3.178 6.696-3.957 0 0-5.576.78-7.055-4.378-1.86-4.777-13.412-15.91-10.794-21.487zm50.629-44.533s4.478-4.397 13.072-3.198c8.595 1.6 42.535 11.553 45.493 12.353 2.998 1.2 11.553 4.397 5.996 4.757 0 0 1.84-1.959-6.356-3.558-8.195-1.599-30.941-10.753-39.176-11.153-8.555-.8-11.913-3.598-19.029.8zm-33.06-23.565s8.575-4.018 16.41-1.2c7.836 2.399 11.933 3.618 17.91 10.034 5.976 6.017 11.932 8.815 4.477 10.014 0 0 5.217-1.599-.38-4.397-5.596-3.218-12.672-14.851-26.104-15.65-13.072-.8-12.313 1.199-12.313 1.199zm32.101 21.966s-12.013 5.997-10.514 26.704c0 0-5.636-20.308 10.514-26.704z" fill="#dfb1a2" fill-rule="evenodd"/><path d="M90.625 22.267s13.032 7.575 11.173 11.153c-1.859 3.198-7.815-2.779-24.605 10.353 0 0 7.456-8.354 16.03-9.953 8.575-1.58 5.977-5.177-2.598-11.553zm-2.958-7.516s14.151 8.375 17.51 12.752c2.977 4.757 4.457 0 7.075-1.599 2.239-1.599 7.076-7.555 12.273-8.355 0 0-4.078 0-11.154 5.577-6.716 5.557-4.837 4.377-11.173-.4-5.956-4.377-14.531-7.975-14.531-7.975zm35.818 27.104s10.814 6.396 12.692 9.594c1.86 3.198 4.098 3.997 5.577-.8 1.879-4.397 8.215-15.99 19.388-17.589 0 0-13.412.8-19.748 13.592-4.477 8.395-8.575-3.598-17.909-4.797z" fill="#dfb1a2" fill-rule="evenodd"/><path d="M145.072 47.771s-4.397 6.396-3.298 7.995c.74.8 5.137.8 7.695 1.999 0 0-6.596-1.599-6.596-3.198.38-1.2.38-3.998 2.2-6.796zm60.044 11.513s-5.197 6.396-6.676 9.194c-1.88 2.799-2.239 2-6.356.8-4.078-.8-37.258-10.394-37.258-10.394s32.78 7.196 35.419 7.995c2.598.8 4.837 2.799 7.795-1.199 2.998-3.997 7.076-6.396 7.076-6.396z" fill="#dfb1a2" fill-rule="evenodd"/><path d="M178.012 76.394s-11.993 3.598-16.47 15.95c-4.517 11.913-1.16 20.268.72 23.466 1.879 2.798 4.157 12.712 4.157 12.712s-1.879-7.955-6.756-13.911c-4.517-5.957-6.036-33.42 18.35-38.217zM119.328 64.56s-10.474 9.915-5.977 28.144c0 0-1.879-15.051 5.977-28.143zM97.021 38.976c-2.238 0-4.097-.4-6.336 0-2.259.4-3.738 1.2-5.617 2.399-4.097 2.398-8.594 4.377-11.952 7.575-6.356 5.957-11.593 14.332-2.998 20.308 5.236 3.578 11.213 6.376 14.59 12.333-1.139-2.379-1.878-3.978-3.737-5.957-1.5-1.599-3.378-2.798-5.237-4.397-2.998-2.778-5.237-7.156-3.738-11.933 1.12-4.777 4.857-8.375 8.215-11.953 3.358-3.578 7.096-6.776 11.593-7.575 1.86-.4 3.738-.8 5.217-.4z" fill="#f3e8e3" fill-rule="evenodd"/><path d="M155.866 66.08c2.598.8 4.477 2.398 7.075 3.198 2.998.8 5.957 1.2 8.955 1.999 2.958.8 5.956 1.599 8.555 2.398 1.519.4 3.717 1.2 4.837 2-4.078.399-7.076.799-10.794 2.757-4.477 2.399-11.193 4.398-13.432 9.954 1.12-3.158 2.999-5.956 2.999-9.154 0-2.359-.76-4.757-1.88-6.756-1.119-2.398-4.477-5.996-6.715-6.396zM75.035 16.79s-13.412-7.156-31.321 1.2c-17.89 8.354-23.486 19.487-27.604 34.578 0 0 10.454-25.045 27.983-30.601 17.53-5.557 19.768-5.557 30.942-5.177zm20.467-4.717s6.696-5.557 13.752-3.978c7.435 1.6 13.751 8.335 13.751 8.335s-14.49-11.113-27.503-4.357zm17.47 16.67s4.837-10.054 13.052-10.054c8.574 0 23.505 1.199 38.796 11.253 0 0-22.746-12.872-39.176-8.035-16.79 5.237-12.672 6.836-12.672 6.836zm34.338 16.709s6.757-13.192 23.906-10.393c7.476 1.199 8.595 1.999 11.593.8 2.998-1.6 26.904 1.199 33.98 4.397 0 0-25.025-3.598-32.86-1.6-7.836 2.4-16.79-5.196-25.025 0-8.195 5.597-11.593 6.796-11.593 6.796zM37.697 95.882s-16.77-3.178-27.583 12.332c0 0 4.117-16.31 27.583-12.332zm1.839 28.323s-19.408.4-26.144 23.026c0 0 1.499-24.226 26.144-23.026zM26.464 60.104c-.74-.78-6.356-1.98-3.738-4.358.76-.8 2.619-.4 3.738-.4 1.14.4 2.998.4 4.117.4-2.978-.8-13.471-5.177-14.59 1.18-.76 5.956 8.234 2.398 10.473 3.977z" fill="#f3e8e3" fill-rule="evenodd"/><path d="M25.704 59.764c-1.099-.4-3.697-1.6-3.697-3.198-.38-1.6 2.598-1.6 3.697-1.6-1.099.4-2.578-.4-4.077-.4-.74 0-2.958.4-3.318 1.6-.76 1.599 5.557 2.399 6.656 3.598zm36.938 14.311c.36 5.577-5.617 7.556-6.736 12.313-.74 1.998-.74 5.177-.74 7.555 0 1.979 1.12 3.578.74 5.956-.36 2.379-1.499 2.779-.36 5.557 1.12 1.979 2.979 3.978 4.857 5.557 3.358 3.178 5.977 6.756 7.836 11.133.76 1.979 1.499 4.357 2.238 6.356.38 1.979 0 4.357.76 6.336 1.479-1.579 1.479-5.157 1.12-7.135 0-3.178-1.5-5.957-2.62-8.735-1.498-2.399-2.618-5.177-4.856-7.156-1.88-1.579-4.478-3.178-6.356-5.556-2.24-3.178-.74-7.956-1.12-11.913-.38-2.778-.74-5.557 0-8.335.74-2.798 2.619-5.577 4.118-7.955.74-1.18 1.119-1.98.74-3.978zm17.589-59.324s8.955 3.998 13.432 6.776c4.857 2.798 10.834 9.974 12.313 12.352 1.499 2.799 6.716 3.998 8.215 4.798 1.859.78-5.597-1.6-6.716-5.197-1.12-3.978-17.53-17.93-27.244-18.729zm58.125 42.694s47.092 11.513 51.569 15.83l.72-1.958s-41.056-13.072-52.289-13.872zm-1.519 386.066s13.172 21.487 1.899 42.155c0 0 15.77-6.756 1.499-46.132 0 0 .74 4.377-3.398 3.977zm2.019 51.269c-2.599 9.594 8.195 11.993 14.131 14.391-7.795 2.799-17.11-5.596-14.87-13.991z" fill="#fff" fill-rule="evenodd"/><path d="M136.497 486.145c-3.018 2.379-2.638 6.736-2.638 10.294 0 4.357 2.258 9.115 5.656 11.873.74.8 1.88 1.2 2.999 1.979-.74-.38-1.88-1.58-2.619-1.98-.76-1.178-1.519-2.358-2.258-3.957-.76-1.978-1.9-4.337-2.26-6.716-.379-2.778-.379-5.156 0-7.915 0-.8.36-2.778 1.12-3.578z" fill="#e3c9ca" fill-rule="evenodd"/><path d="M14.591 155.166c.76-1.6 3.718.38 5.197 0-.36-3.578 2.598-7.136 4.457-9.914 1.84-2.778 3.698-7.535 6.656-9.534-1.839.4-4.077 2.778-5.177 4.377-1.858 2.379-3.717 4.757-5.936 6.736-1.859 1.979-4.437 5.157-4.817 7.935zm62.302-16.65c-1.858.8-4.097.8-5.216 3.198-1.12 2.399 1.119 4.797 2.978 5.597 1.499.4 5.217-2.399 5.217-3.998.36-1.599-2.979-3.598-3.718-4.797zm25.645-2.418c2.618 0 4.097-1.58 6.696 0 1.859.799 2.978 2.798 3.718 4.377l2.218 3.598c.38 1.179.38 3.178 1.12 3.977 1.119.78 4.837.4 5.196-1.199-.74-1.2-2.218-1.999-3.338-3.578-1.479-2.398-2.598-4.377-5.196-6.376-2.599-1.979-8.175-5.177-10.414-1.18z" fill="#f4f0eb" fill-rule="evenodd"/><path d="M312.371 374.833c0-.2.08-.36.16-.36.12 0 .16.16.16.36 0 .2-.04.36-.16.36-.08 0-.16-.16-.16-.36zm-3.198 3.478c0-.08.12-.16.2-.16.12 0 .2.08.2.16 0 .12-.08.16-.2.16-.08 0-.2-.04-.2-.16zm-5.997-.64c0-.08.16-.16.36-.16.2 0 .36.08.36.16 0 .12-.16.16-.36.16-.2 0-.36-.04-.36-.16zm8.555-1.758c0-.04.04-.08.08-.08.08 0 .08.04.08.08 0 .08 0 .08-.08.08-.04 0-.08 0-.08-.08zm1.12-2.32c0-.04.08-.08.16-.08.12 0 .16.04.16.08 0 .08-.04.08-.16.08-.08 0-.16 0-.16-.08zm-10.155 3.079c0-.08.08-.2.16-.2.12 0 .16.12.16.2 0 .12-.04.2-.16.2-.08 0-.16-.08-.16-.2zm8.635-3.638c0-.08.12-.16.2-.16.12 0 .2.08.2.16 0 .12-.08.16-.2.16-.08 0-.2-.04-.2-.16zm1.04-3.118c0-.04.08-.08.16-.08.12 0 .16.04.16.08 0 .08-.04.08-.16.08-.08 0-.16 0-.16-.08zm-1.359-1.999c0-.04.08-.08.16-.08.12 0 .16.04.16.08 0 .08-.04.08-.16.08-.08 0-.16 0-.16-.08zm1.679 4.757c0-.08.04-.2.08-.2.08 0 .08.12.08.2 0 .12 0 .2-.08.2-.04 0-.08-.08-.08-.2zm-3.518-6.996c0-.08.12-.16.2-.16.12 0 .2.08.2.16 0 .12-.08.16-.2.16-.08 0-.2-.04-.2-.16zm1.039 1.6c0-.04.04-.08.08-.08.08 0 .08.04.08.08 0 .08 0 .08-.08.08-.04 0-.08 0-.08-.08zm2.159 1.758c0-.08.04-.16.08-.16.08 0 .08.08.08.16 0 .12 0 .16-.08.16-.04 0-.08-.04-.08-.16zm.32 1.999c0-.08.04-.16.08-.16.08 0 .08.08.08.16 0 .12 0 .16-.08.16-.04 0-.08-.04-.08-.16zm-.64.88c0-.04.08-.08.16-.08.12 0 .16.04.16.08 0 .08-.04.08-.16.08-.08 0-.16 0-.16-.08zm-1.039-1.319c0-.04.04-.12.08-.12.08 0 .08.08.08.12 0 .08 0 .12-.08.12-.04 0-.08-.04-.08-.12zm-3.678-5.237c0-.08.08-.16.12-.16.08 0 .12.08.12.16 0 .12-.04.16-.12.16-.04 0-.12-.04-.12-.16zm1.199-.08c0-.04.04-.08.08-.08.08 0 .08.04.08.08 0 .08 0 .08-.08.08-.04 0-.08 0-.08-.08zm.64.959c0-.04.04-.08.08-.08.08 0 .08.04.08.08 0 .08 0 .08-.08.08-.04 0-.08 0-.08-.08zm-.96 12.353c0-.04.08-.12.16-.12.12 0 .16.08.16.12 0 .08-.04.12-.16.12-.08 0-.16-.04-.16-.12z" fill="#844e95" fill-rule="evenodd"/><path d="M47.092 351.107s.32-1.739-1-2.798c-.98-.7-4.597-6.656-2.618-11.193 1.979-4.218 5.916-3.158 6.896-5.257.66-1.759.979-3.158 4.917-3.498 3.937-.7 5.576 1.74 5.576 1.74s1-4.558 5.577-3.499c4.937.7 6.236 4.557 6.236 4.557s2.638-3.158 6.236.34c3.618 3.158 2.299 5.617 3.958 7.016 1.639 1.4 2.279 4.537 1.639 7.695-1 2.799-3.938 4.198-3.938 7.356.32 2.798-2.638 13.312-7.895 12.252 0 0-6.236 4.897-10.174 2.799-3.937-1.74-6.556-6.996-9.174-6.996-2.299 0-7.875-3.858-6.236-10.514z" fill="#e7a4a4" fill-rule="evenodd"/><path d="M47.132 351.147s.32-1.739-1-2.798c-.98-.7-4.597-6.656-2.618-11.193 1.979-4.218 5.916-3.158 6.896-5.257.66-1.759.979-3.158 4.917-3.498 3.937-.7 5.576 1.739 5.576 1.739s1-4.557 5.577-3.498c4.937.7 6.236 4.557 6.236 4.557s2.638-3.158 6.236.34c3.618 3.158 2.299 5.617 3.958 7.016 1.639 1.4 2.278 4.537 1.639 7.695-1 2.799-3.938 4.198-3.938 7.356.32 2.798-2.638 13.312-7.895 12.252 0 0-6.236 4.897-10.174 2.799-3.937-1.74-6.556-6.996-9.174-6.996-2.299 0-7.875-3.858-6.236-10.514" fill="none" stroke="#343434" stroke-width="1.359" stroke-linecap="round" stroke-miterlimit="8"/><path d="M74.915 365.079c-5.557 1.06-7.536-8.415-4.917-12.273-1.64 2.119-1.3 4.558-1.3 7.016-1.319-.7-1.978-1.739-3.617-2.099a27.251 27.251 0 0 1 4.277 4.558c.98 1.059 2.619 2.458 1.64 4.197.979 0 1.958-.7 2.937-.7zm-19.289-27.663c-.999 0-1.978 1.039-2.318 2.078-.66 1.4-.66 3.138-.32 4.877 0 1.4.66 3.138 1.979 3.818 1.319 1.06 2.638 1.06 4.277 1.4-.66 0-1.319.339-1.979.339-.979-.34-1.639-.34-2.298-1.04-1.66-1.039-2.639-2.438-2.978-4.177-.34-2.079 0-3.817.999-5.556.32-.7 1.639-2.1 2.299-1.4zm15.99-7.396c.64 1.06.64 2.459.32 3.498-.32.36-.32 1.4-.64 1.759h-1.318c-1.3 0-2.599.34-3.238 1.04-1.32 1.059-1.64 2.458-2.299 3.497 1.64-2.798 4.577-4.897 7.496-3.838 2.938 1.04 5.856 4.538 5.856 8.036 0-1.74-.64-3.838-1.3-5.237-.639-1.06-1.618-2.099-2.598-2.459-.98-.7-1.639-1.04-1.639-2.438 0-.7.66-2.799.34-3.158z" fill="#343434" fill-rule="evenodd"/><path d="M53.568 347.529c-1.3-1.419-2.919-.36-3.898.34-.66.72-1.3 1.42-1.959 2.119-.32.72-.32 1.779-.66 2.818-.32-1.399.66-2.818 0-3.877-.639-1.06-1.618-1.4-1.958-2.459.66.34.98 1.4 1.639 1.76.98.359 1.639-.36 2.598-1.06.66-.7 1.64-1.06 2.299-2.119.32-.7.32-1.42.64-2.479.34 1.78.34 3.179 1.299 4.598zm11.832 2.839c1.98.98 3.638.98 5.937.98 1.659 0 3.298-.98 4.937-1.66-1.3 1.999-3.938 2.319-6.256 2.319-1.64 0-2.959-.66-4.278-1.32zm-4.877-20.348c.32 1.42.96 2.459.64 3.878 0 .7 0 1.759-.32 2.098-.32.7-.96.36-1.599.7.64.36 1.28 0 1.92 0 .639.36 1.278 1.06 1.598 1.4-.96-1.4-.96-2.44-.96-4.198 0-1.42-.639-2.459-.639-3.878zm0 27.363c-1.299-.34-3.258.66-3.917 1.98.34-2.32 2.618-1.98 3.917-1.98z" fill="#343434" fill-rule="evenodd"/><path d="M61.183 337.376c-.66-.72-2.299-.36-2.958-.36-1 .36-1.979.72-2.639 1.779-1.319 1.759-2.658 4.937-.999 7.055.66 1.42 2.978 1.76 3.298 0 0-1.059-.32-1.758 0-2.478.34-1.06 1-1.4 1.32-1.759.999-.7 3.957-3.178 1.658-4.237zm15.731 5.297c-.32-1.06-1.3-2.46-1.96-3.498-.659-.36-1.319-.7-1.978-1.06-.32-.34-.98-1.06-1.959-1.06h-1.32c-.319 0-.659 0-1.298.36-.66 0-1.32.7-1.98 1.4-1.318 1.759-1.638 3.158-1.978 5.257 0 1.759.34 4.217 1.979 5.256 2.618 1.4 3.278-2.798 4.597-3.857 1.32-1.04 3.278-.7 4.597-1.4.32-.34.98-1.399.98-1.399zm-6.317-12.293c-.64-1.06-1.619-1.4-2.278-1.76-.98-.699-1.96-1.398-2.919-1.398-.979.36-1.958.7-2.618 1.759-.66.7-.32 2.098-.32 3.138 0 .7 0 3.158.64 3.498 1.32 1.04 1.639-2.439 1.959-3.138.34-1.4.98-2.1 2.278-2.1.98 0 1.96.34 2.939-.359zm-10.713 1.799c-.64-.34-.64-1.4-1.3-1.74-.999-.699-1.978-.699-3.297-.699-1.96-.36-2.619 1.04-3.278 2.779-.66 1.759-2.619 1.759-3.618 2.438-.98.36-1.64.7-2.299 1.759-.66 1.04-1.319 2.439-1.319 3.478 0 2.099.34 4.877 1.979 5.916 1.979 1.74 3.278-1.379 2.958-3.138-.32-2.078-1.32-4.177-.66-6.256.34-1.06.98-1.759 1.98-2.438.979-.36 1.298-.36 2.298-.36 1.639.36 1.959-1.04 2.958-1.74.98-.339 1.639 0 2.299 0 .32.34 1.299.7 1.299 0zm14.412 3.138c-1.94-.36-.64-4.258 1.298-3.898.98 0 2.579.72 3.238 1.42.32.699 1.6 2.478.96 3.177-.64-.7-2.259-2.478-3.558-1.758-.32 0-.96 1.758-1.6 1.059zm-17.69 15.371c-.64-.34-1.64-.7-2.619-1.04-.66-.7-1.319-1.399-1.978-1.04-1.32 0-2.639 1.38-3.298 2.42-.66 1.399-.66 3.477 0 4.876.34 1.38 1.319 3.458 2.978 3.119 2.298-1.04 0-3.478.64-4.858.999-1.738 4.277-.7 4.277-3.477zm3.598 14.351c-.66 0-1.98-1.4-2.299-2.099-.66-1.419 0-2.478.98-3.538 1.319-1.06 3.277-2.118 4.577-1.399 1.299.34 2.278 1.4 3.258 2.459.34.36 1.959 2.118.98 2.478-.64.34-2.28-1.779-3.259-1.779-1.3 0-1.639 1.06-2.279 2.119 0 .72-.34 1.42-.979 1.42-.34.339-.98.339-1.32 0zm18.388-11.173c-.999-2.1-4.637-1.4-6.296-.7-2.638 1.4-2.978 5.956-1.639 8.395.32 1.06 1.98 2.439 2.978 1.06.32-.36.32-1.4.32-1.76-.32-1.039-.32-2.098.34-2.798.66-1.399 1.66-1.739 2.978-2.099.98-.34 1.32-1.399 1.64-2.098z" fill="#ecb4b4" fill-rule="evenodd"/><path d="M63.142 338.815c1.3 2.099.32 3.138.32 5.217-.32 2.438.34 4.177 1.299 5.896-1.3-1.04-3.238-2.079-4.877-1.04.34-.679 1.319-.679 1.959-1.738.32-.68.32-1.72.66-2.419.32-2.079 1.618-3.817.32-5.556zm-5.237 11.913c2.598 1.399 0 5.576-.66 6.955.98-1.379 3.258-1.379 4.558-1.039-.96 0-1.94-1.38-2.279-2.439 0-1.379-.64-2.078-1.3-3.118zm11.173 2.718c-.98 1.06-.98 4.237-.66 5.277-.659-.7-.979-1.4-1.978-1.76-.66-.339-1.32 0-1.999 0 .68-.699 1.999-.339 2.658-1.039.66-.36 1-1.419 1.32-2.118zm11.433-3.858c-1.998-1.379-2.318-3.098-2.318-5.177-.34 1.74-.68 3.798-1.68 5.517 1 0 .34-1.719 2-1.02.999.34 1.339 1.02 2.318 1.02z" fill="#d09190" fill-rule="evenodd"/><path d="M62.122 336.376c1.32 1.4 2.939.7 3.918-.36-.98.36-.64 1.4-.98 2.439-.639 1.06-1.299 1.06-1.299 2.439-.32-.68-.32-1.74-.66-2.439 0-.68-.639-1.04-.639-2.079zm-9.434 2.439c.34-2.099 3.558-2.459 4.857-2.459.96 0 1.62 0 2.259-.34.96-.72.96-1.419.96-2.478-.64 2.119-2.58 2.119-4.518 2.478-1.28.34-3.218.7-3.218 2.799z" fill="#d09190" fill-rule="evenodd"/><path d="M70.597 337.416c-1.279-.36-2.258 0-3.238 1.059-.64.34-2.278 1.759-1.939 3.158 0 .7.64-.7.96-1.06 0-.699.34-1.398.98-1.758.979-.7 1.958-1.4 2.918-1.4zm-5.197-9.435c-1.299-.36-3.278 2.06-2.278 3.078.32-1.019.64-2.398 1.959-3.078zm-8.554 10.114c-.64.36-3.518 2.419-2.239 3.438.32-1.02.64-3.078 1.919-3.438zm-10.474-1.439c-.32.7-1.599 3.498-.32 3.838 0-1.38-.32-2.779.32-3.838zm6.556-4.557c.36-1.36.7-2.399 2.399-2.039-1.02.68-1.7.34-2.399 1.699zm-2.878 18.229c-1 0-1.999 2.079-1 3.118.68-1.04.34-2.419 1-3.118zm11.113-.98c-1.639-.7-2.319 3.118-.98 3.458 0-1.379-.659-2.078.66-3.458zm-1.919 10.015c-.34.719-1.759 2.858-.7 3.197.36-1.059-.34-1.759.36-2.838zm15.991-27.504c-.98 0-2.639 1.699-1.64 2.718.66-1.019.32-1.699 1.32-2.378zm-3.279 22.306c-1.279.36-1.599 2.499-1.279 3.918.96-.7.32-2.838 1.28-3.918z" fill="#f4edec" fill-rule="evenodd"/><path d="M68.679 336.976c-.98-.36-2.959 2.139-3.279 3.198-.979 2.139-.66 4.277-1.319 6.396-1.319-3.538 1-9.234 4.598-10.314zm-21.268-2.039c-.32.34-.979.7-1.319 1.04-.66.7-.66 1.399-1 2.078-.659 1.74-.659 3.478-.659 5.557-1.339-1.38-1-4.517-.34-6.236.68-1.06 1.66-2.439 2.999-2.799zm17.989-7.715c-2.278 0-3.577 2.818-3.577 5.277 0-.7-.34-1.4-.34-1.76 0-1.039.66-1.758.98-2.458.659-.7 1.638-1.06 2.298-1.06zm9.515 4.197c-1.32-.36-1.98 1.76-1.64 3.158-.679-1.759-.34-3.158 1.64-3.158zm7.915 8.415c-1.3-1.06-2.938 0-3.918 1.06.34-1.06.98-2.12 1.96-2.12.979-.359 1.638.36 1.958 1.06zm-22.067 8.815c-1.279.36-1.599 1.739-1.599 3.118-.96-1.38.32-2.419 1.28-3.118zm-5.837-9.434c-1.318 1.039-1.638 4.477-.979 5.836-.66-1.36-1.659-5.137.66-5.836zm-5.836 10.833c-1.339 1.739-1.339 3.478-.999 5.557-.34-2.08-.68-4.518 1.32-5.917zm11.433 7.955c-1.958-.72-2.938 3.178-2.938 4.238-.98-.34-.64-1.4-.32-2.12.66-1.059 1.64-1.059 1.96-2.118zm11.833-5.197c-1.339.36-3.038 2.799-2.698 3.838-.34-1.38 1.02-3.478 2.378-3.838z" fill="#ed8196" fill-rule="evenodd"/><path d="M72.916 269.097c2.658 1.2 6.836-.8 9.854-.4 3.798.4 5.317-1.999 9.094-2.398-2.638-1.6-6.056.8-9.094 1.199-1.12 0-2.638-.8-4.158-.4-1.898.4-3.038 1.6-4.937 1.6z" fill="#ebb3b3" fill-rule="evenodd"/><path clip-path="url(#b)" d="M268.677 12.492c-10.993-7.275-10.993 16.99-8.335 25.065 3.038 7.696-1.519 10.514-2.658 11.333-1.52.4-2.279 6.456-4.557 8.895-2.659 2.419-6.836 2.019-6.836 2.019-1.14 2.418-3.798 4.837-7.216 4.837-3.038 0-6.076-6.057-6.076-6.057s-3.798 0-6.836-5.256c-2.658-5.257.76-8.895.76-8.895-2.659-2.818-1.52-9.294.759-10.514 2.658-1.199 1.52-4.837 3.418-7.275 1.899-2.419 6.456-2.419 6.456-2.419s.76-4.037 4.177-4.857c3.798-.8 7.976-7.275 6.836-10.913-.76-3.638-4.937-2.019-4.937-2.019s6.456-6.076 15.57-3.238c8.716 2.838 9.475 9.294 9.475 9.294z" transform="translate(-158.184 209.733)" fill="#e6a3a3" fill-rule="evenodd"/><path clip-path="url(#b)" d="M243.672 6.416s4.178-1.619 4.937 2.039c1.14 3.638-3.038 10.114-6.836 10.913-3.417.82-4.177 4.857-4.177 4.857s-4.557 0-6.456 2.439c-1.899 2.418-.76 6.056-3.418 7.275-2.279 1.22-3.418 7.696-.76 10.514 0 0-3.417 3.638-.76 8.915 3.04 5.256 6.837 5.256 6.837 5.256s3.038 6.057 6.076 6.057c3.418 0 6.076-2.419 7.216-4.837 0 0 4.177.4 6.836-2.039 2.278-2.419 3.038-8.495 4.557-8.895 1.14-.82 5.696-3.637 2.658-11.333-2.658-8.095-2.658-32.36 8.335-25.085" transform="translate(-158.184 209.733)" fill="none" stroke="#343434" stroke-width="1.199" stroke-linecap="round" stroke-miterlimit="8"/><path d="M77.473 234.798c2.299-.8 3.818 1.999 4.957 3.997-1.519-1.599-2.278-4.397-2.658-6.396 0 .4-.38 1.2-.76 1.2-.38.4-.76.4-1.14.4zm9.474 35.498c.36-1.998.36-3.198-.76-4.797-.739-1.2-2.598-2.398-4.476-1.999 1.878-.8 3.737 0 4.857 1.6.38.799.74 1.598 1.119 2.398.38.8 1.12 1.2 1.859 1.599-.74 0-1.859 1.2-2.239 1.2zm-18.588-15.27c.38 0 1.139-.8 1.519-1.2.76 0 1.899 0 2.638.4 1.899 0 3.418 1.2 4.158 3.198-.36-1.2-.74-2.398-1.88-3.198-.759-.4-1.898-.8-2.638-.8-.76 0-1.519 0-2.278.4-.76 0-1.14 0-1.52-.8z" fill="#343434" fill-rule="evenodd"/><path d="M72.196 253.407c1.88.819 4.478-1.66 4.118-3.738 0 .84 0 1.659-.38 2.498-.74.82-1.499.82-1.499 2.059-.36 0-.74-.4-1.12-.4zm9.515-4.818c1.519-1.219 3.038-2.418 5.696-1.219 1.52 1.22 3.038 3.238 3.038 5.657 0-1.6.38-2.819-.38-4.038-.759-1.2-2.278-2.019-3.417-2.418-2.279-.82-3.418 0-4.558 2.018zm4.157 15.771c-1.12-3.258-.74-6.096 1.12-7.735-1.12 1.219-1.48 3.258-1.12 4.877.38 1.639 1.12 3.258 1.12 4.877z" fill="#343434" fill-rule="evenodd"/><path d="M87.307 246.91c1.54 1.64 5.357.82 6.876 0 1.16-.819 3.438-2.878 3.058-4.517 0 2.459-1.519 3.698-3.438 4.517-.38.4-1.139.82-1.899 1.22-.76.42-1.539 0-2.298.42v.799c-.38-.4-.38-.8-.76-1.22zm12.553 10.873c-.76 0-1.9.4-3.039.4-1.139.42-2.278-.4-3.437-1.239 1.159.84 1.918 1.66 3.058 2.479 1.519.4 2.278-.42 3.418-1.64zm-28.144-14.47c.4-.42.4-1.24.4-1.24 0 .42.78 1.24 1.56 1.64.799.42 1.179 1.239 1.958 2.038-1.559-.8-2.338-2.438-3.917-2.438zm1.2 23.785c3.398 1.2 3.778-2.798 5.277-4.797-.36 1.6-.74 2.798-1.5 3.998-1.139 1.199-1.139 2.398-.38 3.997-.759-.8-1.118-1.199-1.498-1.998z" fill="#343434" fill-rule="evenodd"/><path d="M78.972 236.017c-1.499-1.22-4.137.4-5.257 2.019-1.519 2.818 1.12 4.017 2.639 6.036.74 1.2 1.879 2.399 2.618.4.76-.8.38-1.22.76-2.019 0-.8.38-.8.76-1.599.739-1.619-.38-3.238-1.52-4.437zm7.995 12.892c-2.998-2.438-4.497 1.22-6.755 2.439-1.5.82-2.26 1.639-1.88 3.658 0 1.219.76 3.258 1.5 4.477 1.14 1.619 2.998 2.019 4.137 0 .74-2.039 1.12-3.258 2.619-4.877 1.499-.82 2.238-4.877 0-5.277zm-12.092 7.316c-1.54-.8-3.838-.8-5.377.4-1.54 1.599-.38 5.196 1.16 6.396 1.139 1.199 2.298 1.199 2.678-.4.38-1.6.78-1.6 1.539-2.399.76-1.199.76-2.398 0-3.597zm-1.139-10.574c-3.059-3.258-6.896 1.62-5.357 4.877.38 1.22 1.159 1.62 2.298 1.22 1.54 0 1.16-.82 1.54-2.04.38-1.618 1.898-2.018 1.898-3.657zm14.77-16.19c-1.119-.42-3.018.8-4.137 1.22-1.52.4-2.658 1.199-2.279 3.637.76 1.62 2.659 6.076 4.917 3.658 1.5-2.039 1.14-5.277 1.5-7.715zm5.597 29.542c-1.479-1.24-3.358-2.059-5.237-1.24-1.879 1.24-1.879 3.279-1.499 5.318 0 .82.76 2.458 1.12 3.278 1.499 1.219 1.878 0 1.878-1.22 0-2.058.38-2.878 1.88-4.097.379-.4 1.498-.82 1.498-1.64zm-8.675 8.915c-.76-4.078-7.135-4.897-7.895-.42-.38.82 0 2.459.76 2.858 1.499 1.62 1.879.4 2.618-.82 1.5-1.219 4.517 1.22 4.877-1.618zm12.113-21.767c-.38.4-1.14 1.2-1.899 1.599-.74.4-1.879.8-2.258 1.599-1.52 1.599-.38 3.998.38 5.197 1.498 1.599 4.537 2.398 4.157-.8-.38-1.599-1.52-2.398-.76-3.997.76-1.6 1.5-2.399 1.14-3.998zm-7.515-9.734c-1.12 2.019-3.758 2.418-3.758 4.837 0 3.218 2.998 5.217 5.616 4.017 1.12-.4 3.738-2.018 2.999-4.017-.74-.82-2.239-.42-2.999-1.22-1.119-1.199-.36-2.418-.74-3.617 0-.4-.759-.82-.759 0z" fill="#ebb3b3" fill-rule="evenodd"/><path d="M88.446 214.17c2.26.42 3.778 3.638 3.778 5.657.38 2.019-.38 4.437-1.899 6.036-.76 1.22-1.878 2.419-3.018 3.238-.76.8-1.899 1.2-3.038 2.019.76.4.76 1.999 1.52 1.999.379-.4 1.518-2.419 1.898-2.419 1.879-1.998 3.398-3.618 4.537-6.036 1.52-3.638 1.88-8.075-2.278-9.674-.38 0-.76-.4-1.12-.4z" fill="#ebb3b3" fill-rule="evenodd"/><path d="M109.694 223.485s-2.639-3.238-4.917-.4c-2.659 3.218-3.798 10.474-2.659 17.31 0 0-.76-14.092 3.798-16.91 3.038-1.62 3.778 0 3.778 0zm-23.906-6.097s2.279-1.219 3.418 1.22c1.14 2.438-1.14 6.895-4.937 8.914 0 0 4.557-4.857 3.418-8.095-.76-2.838-1.899-2.039-1.899-2.039zm-9.014 33.48c0 .82-.74 1.64-1.1 2.039-.76 1.24 0 .82.36 2.039 1.12 2.038 1.12 3.258 2.958 4.477-.74-1.22-1.839-2.439-2.218-4.477 0-.8-.36-2.439 0-3.258zm-.42-2.798c-.4-.82 0-1.64-.4-2.459.8.82 2.738.42 3.518-.82-.38 1.24-1.16 1.24-1.939 1.64-1.18.42-.78 1.239-1.18 2.039z" fill="#ce908f" fill-rule="evenodd"/><path d="M77.953 258.563c.76 0 .76 2.899.76 3.738 0 .82 0 2.059-.76 2.878 1.14-1.239 2.259-1.639 3.758-1.639-.74-.84-1.5-.84-2.239-2.498-.38-1.24-.38-2.059-1.52-2.898zm7.515-18.948c-2.278.82-1.519 5.297-.38 6.516-.759 0-1.139-.4-1.519 0-.76.4-1.139.82-1.539 1.619 0-.8.78-2.019 1.16-2.439.38-.82.38-1.619.38-2.438 0-1.22.38-2.858 1.519-3.678zm8.635-3.618c1.919.8 3.078 4.397 3.078 6.396 0-1.2 1.54-2.398 2.679-1.999-.38-.4-1.14 0-1.92-.4-.379-.4-.759-1.199-1.139-1.598-.38-.8-1.159-2-2.298-2.399zm-3.357 16.15c-.74 2 1.518 3.598 2.638 4.797-.74-.4-1.88-1.199-2.639-1.199-1.12-.4-1.879 0-2.638.4 1.139-.4 2.638-1.999 2.278-3.598z" fill="#ce908f" fill-rule="evenodd"/><path d="M74.435 237.276c0 .8-2.239 4.797 0 4.797 0-1.599-1.12-3.198 0-4.397zm9.514-5.756c-1.14 0-1.919 2.059-1.519 3.278h.38c.76-.82-.38-2.459.76-3.278zm-14.551 14.951c-.72.84-1.44 2.058-.72 2.878.36-.82 0-2.039.72-2.878zm.48 10.473c-1.2 0-1.2 2.06-.4 2.879.4-.82-.4-2.04 0-2.459zm9.834-4.397c-1.04 0-1.04 2.798-.34 3.198-.34-.8-.34-2.398.34-3.198zm8.394-13.352c-.759.42-1.518 3.278-.379 3.678 0-1.22 0-2.039.38-2.858zm5.997 10.154c-.74.82-2.239 3.278-.74 3.678 0-.8-.38-2.439.38-3.258zm-4.797 9.214c-1.54-.42-2.319 2.499-1.54 3.738.38-1.24 0-2.478.78-3.318zm-9.834 7.336c-1.14 0-1.52 3.198-.38 3.198 0-.8-.76-2.399 0-3.198z" fill="#f3ecea" fill-rule="evenodd"/><path d="M72.436 244.432c-1.08-.42-2.538 0-3.278.84.74-1.68 2.199-1.26 3.278-.84zm4.238-8.895c-1.92 0-3.838 2.839-4.238 4.458 0-2.439 1.94-4.877 4.238-4.877zm7.275-5.296c-1.899.42-2.658 2.918-2.278 4.557-.38-.82-.76-1.64-.38-2.479.38-.82 1.899-1.659 2.278-1.659zm2.319 8.954c-1.16 1.24-2.719 3.718-1.16 5.357 0-1.22-.38-4.118.78-4.937zm-6.076 11.673c-2.28 0-2.659 2.858-2.28 4.877-.379-1.22-.759-2.019-.379-3.238.76-1.22 1.14-1.22 2.279-1.639zm-9.994 4.557c-1.46-.4-1.46 3.198-1.82 4.398-.739-1.6.36-4.398 1.82-4.398zm8.474 9.275c-1.159.82-1.938 3.258-1.559 4.877-1.958-1.62.4-4.058 1.56-4.877zm9.774-7.676c-1.139-.8-1.898 3.198-1.898 3.998-.76-1.999.38-4.397 2.278-4.397zm4.618-8.554c-1.54.42-2.319 3.657-1.54 5.276-.779-1.199-1.179-4.857 1.16-4.857z" fill="#ec8196" fill-rule="evenodd"/><path d="M95.302 217.868c1.5 6.036-3.018 10.074-5.276 15.31.38-.799 1.139-1.598 1.898-1.598 1.88-.42 1.12.4 2.24 1.199.759.4 1.518.4 2.258 1.22.76.4 1.139 1.199 1.879 1.998-.74-3.218-1.5-6.836-.74-10.074.74-3.218 4.138-5.636 6.376-7.655-2.618.8-4.497 2.818-6.016 4.437.38-1.22.76-2.818.76-4.037-.38 0-.76.4-1.12 1.219-.38-1.22-1.52-2.818-2.638-3.238 0 .42 0 1.22.38 1.619z" fill="#ebb3b3" fill-rule="evenodd"/><path d="M96.522 219.047c-.38 2.02.38 3.638-.76 5.657-.76 2.019-1.14 3.638-1.899 5.257.38-1.62 1.9-3.238 2.659-4.438-.38 1.6-1.14 4.018-.38 5.637.76 2.019 1.899 3.238 2.638 4.837-.36-1.2 0-2.818-.36-4.437.36 1.219.36 2.438 1.12 3.238 0-2.818-.76-5.657 0-8.475.76-2.818 1.899-5.657 4.157-7.276-1.879 1.62-4.157 2.839-5.656 4.857.38-.82.74-1.219.74-2.018 0 .4-.74.8-1.12.8 0-1.2-.38-2.42-.76-3.639z" fill="#efc9ca" fill-rule="evenodd"/><text xml:space="preserve" style="line-height:125%;text-align:start" transform="translate(175.587 239.921)" font-weight="400" font-size="18.625" font-family="Arial" letter-spacing="0" word-spacing="0"><tspan x="0" y="0"><tspan dx="0" dy="0" fill="#0070c0">Peduncular polyp</tspan></tspan></text><path d="m171.656 232.839-67.28 3.638.08 1.959 67.32-3.638zm-66.12.56-7.795 4.397 8.235 3.598z" fill="#0070c0" stroke="#0070c0" stroke-width=".04" stroke-linejoin="round"/><text xml:space="preserve" style="line-height:125%;text-align:start" transform="translate(-158.21 357.85)" font-weight="400" font-size="18.625" font-family="Arial" letter-spacing="0" word-spacing="0"><tspan x="0" y="0"><tspan dx="0" dy="0" fill="#0070c0">Sessile polyp</tspan></tspan></text><path d="m-42.114 352.726 89.266-3.717-.08-2-89.286 3.739zm88.066-.66 7.816-4.337-8.156-3.657z" fill="#0070c0" stroke="#0070c0" stroke-width=".02" stroke-linejoin="round"/></svg>