<svg xmlns="http://www.w3.org/2000/svg" version="1.0" viewBox="0 0 215.66 212.561"><defs><clipPath clipPathUnits="userSpaceOnUse" id="a"><path d="M6.796 5.197h215.39v212.671H6.795z"/></clipPath></defs><path clip-path="url(#a)" d="M59.244 179.491c-.84 11.113 10.414 31.101 35.419 28.443 25.004-2.658 32.92-15.11 32.92-15.11 1.659 10.673 44.992 41.314 63.321 9.333 7.916.88 20.428-6.655 27.504-35.538 9.574-39.096-12.093-78.652-17.09-87.987 11.253-23.106 2.918-62.642-10.414-69.757-14.171-7.556-26.244 3.997-51.668 22.226-25.405 18.21-59.984 17.33-69.998 6.216-1.659-2.218-4.157-4.437-5.417-6.216-8.335-11.553-22.086-28.443-38.736-17.33C13.412 21.328 13.832 50.21 16.75 68.42c-15.43 14.21-7.915 68.878 5.836 91.084 8.335 13.332 18.749 25.325 36.658 19.988z" fill="#e6c1c7" fill-rule="evenodd"/><path clip-path="url(#a)" d="M59.284 179.531c-.84 11.113 10.414 31.101 35.419 28.443 25.004-2.658 32.92-15.11 32.92-15.11 1.659 10.673 44.992 41.314 63.321 9.333 7.915.88 20.428-6.656 27.504-35.538 9.574-39.096-12.093-78.652-17.09-87.987 0 0 0 0 0 0 11.253-23.106 2.918-62.642-10.414-69.757-14.171-7.556-26.244 3.997-51.668 22.226-25.405 18.21-59.984 17.33-69.998 6.216-1.659-2.218-4.157-4.437-5.417-6.216-8.335-11.553-22.086-28.443-38.736-17.33C13.452 21.368 13.872 50.25 16.79 68.46c-15.43 14.21-7.915 68.878 5.836 91.084 8.335 13.332 18.749 25.325 36.658 19.988" fill="none" stroke="#1a171b" stroke-width="1.359" stroke-linecap="round" stroke-linejoin="round"/><path d="M179.571 131.08c2.079-3.098 7.076-8.874 11.653-25.744 4.997-23.965 6.676-44.393-1.659-59.924-8.335-16.87-22.067-20.427-29.162-6.655 0-.44.42-.44.42-.9-1.66 2.239-6.237 2.239-12.493.9-5.417-.9-10.414-3.558-10.833-6.656-2.919 11.972-8.335 19.967-17.07 25.304-21.667 12.413-35.399 7.096-48.73-2.678-12.093-9.315-24.586-18.629-36.658-13.312-12.073 5.337-9.574 19.528-.84 31.52h.42c-1.24 0-2.918.44-4.157.88-12.093 5.337-11.673 15.99-7.916 26.644 3.738 11.093 3.738 16.41 0 26.184-4.597 11.533-2.498 25.305 16.65 22.187-2.498 3.558-10.833 13.771-13.731 15.99-2.919 1.779-6.676 6.656-6.257 11.093 0 0-.84 7.096 9.575 9.315 10.413 2.678 14.171-4.438 14.171-4.438 3.338-3.537 12.073-12.872 12.912-13.751 2.499 8.435 3.338 19.968 19.568 24.845 15.83 4.437 26.664 1.339 32.5-1.32 2.5-1.339 8.735-3.997 12.493-3.997 4.997-.44 8.735.88 13.752 2.658 8.315 2.659 14.57 1.34 24.145-6.216-1.24 3.998 2.079 14.651 12.073 19.988 12.912 6.196 25.424 0 30.421-11.993 2.499-5.776 3.738-12.432 4.578-18.209 1.239-12.412-3.758-45.272-25.825-41.714z" fill="#e6c1c7" fill-rule="evenodd"/><path d="M111.652 140.355s-3.338.88-9.994-2.678c-6.236-3.099-12.872-15.111-20.367-17.35h-.42c7.915-1.779 12.472-6.676 14.551-9.794.42 4.457 2.079 9.354 5.837 15.59 3.737 5.777 7.055 10.674 10.793 14.232h-.4zm-6.636 27.523c-14.99 1.78-19.988-4.437-23.745-12.012 2.098 8.015 2.098 15.57 8.335 16.47 5.836.879 10.833-1.78 15.81-4.458h-.4zm-59.564-65.66c0 3.558 1.26 7.096.42 10.634a66.044 66.044 0 0 1-2.099 7.515c3.358-2.199 7.536-3.538 12.553-3.098h.4c-2.499-1.32-4.578-2.638-5.417-4.417-1.26-2.22-3.338-6.636-5.437-10.634h-.42zm76.194-4.877c0-6.216 5.437-11.113 9.594-15.11-2.498 2.678-10.413 8.454-12.932 7.115h-.42c1.26 2.658 2.519 5.776 3.758 8.874v-.879zm-41.215-4.957c1.66-1.779 3.738-3.998 5.797-6.656-9.514-1.34-14.911-7.136-20.308-13.812 5.817 7.576 7.875 18.25 14.511 20.468z" fill="#bb5a74" fill-rule="evenodd"/><path d="M134.998 39.616c-9.554 3.558-15.81 14.671-18.309 19.988 1.26-.44 2.499-1.32 3.758-2.219 6.656-3.997 11.653-9.774 14.551-17.769z" fill="#dda6b0" fill-rule="evenodd"/><path d="M147.55 164.8c-3.337-.46-11.692.88-16.29 1.779l-.42-.46c3.359 1.34 6.697 2.219 12.133.46 1.24-.46 2.919-.9 4.578-1.779z" fill="#bb5a74" fill-rule="evenodd"/><path d="M131.24 116.85c3.758 10.633 35.359 16.39 39.097-35.9-1.24 11.974-16.63 52.29-39.097 35.9zm-73.635-2.24c4.178 5.317 28.703 6.637 35.359-3.997 0-5.757 1.259-13.292 3.737-15.51-5.816 5.776-2.898 6.655-9.554 13.311-6.656 6.636-21.627 10.174-29.542 6.197zm104.417 77.214c2.918 7.555 16.27 14.65 26.284 9.334 9.574-4.877 18.329-21.307 13.332-49.29.42 11.113.84 45.732-20.848 48.41-12.512.88-18.768-8.454-18.768-8.454zm-47.792-6.976c5.417-2.219 7.496-3.098 12.913-.44 5.397 2.679 13.312 4.897 18.729 3.118 5.416-1.779 14.151-10.673 18.308-13.352-5.816 1.34-14.15 9.355-19.967 10.234-5.837 1.34-14.991-4.437-19.988-3.997-4.578 0-2.499-1.78-15.41 4.437-12.493 5.796-31.222 5.337-37.058 2.239 6.256 3.098 18.748 8.435 42.474-2.239z" fill="#dda6b0" fill-rule="evenodd"/><path d="M107.015 130.6c3.758 7.536 21.667 21.748 45.413 15.092 24.165-6.656 34.159-27.544 37.897-49.31-3.738 14.231-13.732 40.875-39.976 47.091-26.244 6.656-43.334-12.872-43.334-12.872zm-79.072 15.132c4.178 1.779 7.516 3.098 12.932 0 5.417-3.538 11.253-11.074 21.667-9.295 10.414 2.219 15.43 8.855 17.51 14.611 2.078 6.217 9.594 13.732 18.328 14.172-7.075-3.978-11.253-7.516-19.168-22.586-8.335-15.071-24.585-12.413-30.841-7.096-6.656 5.317-11.253 13.292-20.428 10.194zm9.614-25.785c-4.937 6.636-4.937 11.074-8.255 15.93 3.318-.879 5.377-6.635 7.855-10.613 2.479-3.538 3.298-3.997 5.357-7.535 2.059-3.978 2.059-6.197 1.66-11.513-.42-4.877-2.06-7.076-4.958-10.634 2.059 5.317 5.357 15.51-1.659 24.365zm-1.299-48.83c7.515-1.34 14.611 1.759 19.208 5.317 3.358 2.198 5.437 5.756 7.516 9.294 1.679 3.098 2.099 7.975 5.856 9.294 2.499.88 9.614-.44 10.434-3.098-2.079-.88-3.338-1.779-4.577-3.098-2.099-2.658-2.099-5.756-3.758-8.415.4 3.098 1.24 5.317-2.099 3.098-3.338-1.759-5.017-5.756-7.515-8.415-6.276-7.075-18.789-7.975-26.744-4.417zm75.394 69.238h.4c-3.318-3.538-6.636-7.516-9.534-12.373-3.318 0-7.056 0-12.453-.899 4.158 3.998 7.896 8.855 11.633 10.614 6.636 3.537 9.954 2.658 9.954 2.658z" fill="#dda6b0" fill-rule="evenodd"/><path d="M172.495 32.98c-5.836.9-10.833 3.998-12.512 18.189-1.24 13.752 0 16.85-.82 25.724-.839 8.875-5.436 15.97-10.433 20.388-5.017 4.437-2.918 6.216-2.079 7.096 0-2.199 3.338-4.877 6.656-7.975 4.178-3.998 8.775-11.094 10.014-27.044.84-15.97-2.498-35.039 9.174-36.378zm2.459 52.768c0 11.573-5.837 34.679-19.568 40.016 7.915.44 22.466-14.232 19.568-40.016zM42.894 43.134c-7.016 0-16.95 4.877-11.973 17.27-.84-5.757 1.64-15.051 11.973-17.27zM25.964 97.78c-4.177-9.793-3.338-16.45 4.997-20.007 8.315-4.018 19.149-1.78 24.146 4.437 4.977 6.236 4.977 7.556 7.075 11.113 2.08 3.558 3.318 7.576 12.053 5.797-9.154 3.098-12.472 0-15.81-6.676-2.919-6.676-12.073-16.45-24.965-11.573-5.837 2.239-9.175 6.236-7.496 16.91zm62.422-10.673c4.578-6.196 13.312-8.874 22.867-2.218-4.158-1.76-14.132-4.438-22.867 2.218zm-47.491 38.597c5.837-5.257 10.814-6.136 14.971-5.697 4.577.44 8.315 3.078 18.29 3.078 9.973 0 9.973 1.3 12.871 4.797-2.058-2.178-2.058-3.497-11.213-3.058-9.134.88-17.45-1.739-20.787-2.618-3.318-.88-11.214 0-14.132 3.498zm21.687 16.97c7.496 1.319 14.171 8.394 17.49 18.548-2.08-10.593-5.817-17.23-14.152-20.767-8.335-3.538-17.93 2.219-25.025 10.174 5.437-3.538 11.673-8.835 21.687-7.955zm118.228 13.671c-8.335-3.997-25.024 8.435-28.782 8.875 8.355-4.437 20.867-16.87 28.782-9.314zm-80.75 17.35c4.597-1.32 11.672-8.795 18.348-8.795 6.656.44 10.834 3.958 14.991 4.397-5.417.44-10.833-1.759-14.99-2.198-4.178-.44-13.333 5.716-18.35 6.596zm83.309-21.347c4.937 3.997 7.395 12.432 5.756 20.427-.82 6.197-5.756 14.192-.82 15.071-1.638-1.759 2.46-8.415 2.86-15.07.419-6.217 1.638-14.212-7.796-20.428z" fill="#fcf8f8" fill-rule="evenodd"/><path d="M130.361 83.15c5.417-3.578 11.673-8.016 15.43-12.913 2.5-2.678 4.158-6.696 5.817-9.814 1.68-2.658 3.758-5.336 4.577-8.015-.82 4.917-.82 9.814-.4 15.151 0 5.337-.839 16.03-4.597 20.028 1.26-2.658 3.758-9.794-1.239-13.352s-10.414 3.558-14.99 4.897z" fill="#dda6b0" fill-rule="evenodd"/><path d="M123.725 149.71c14.99 7.195 32.06 6.755 46.612-7.196-2.898 2.258-17.47 13.951-46.612 7.195z" fill="#fcf8f8" fill-rule="evenodd"/><path d="M44.573 174.174c2.498-2.218 4.997-6.676 6.236-9.794 1.26-3.118-.4-7.135 2.499-7.575 3.737-.46 2.918 4.897 2.078 7.575-1.659 4.458-7.055 7.136-10.393 9.794z" fill="#dda6b0" fill-rule="evenodd"/><path d="M61.283 83.91c2.918 3.597 2.498 10.353 7.495 12.152 3.338.88 8.735.44 10.814-3.158-2.479-1.34-4.158-2.699-5.397-5.837 1.659 7.636-10.813 2.699-11.233-1.359zm19.588 32.9c3.338 0 7.935-2.64 10.434-4.858 2.518-2.658 2.518-6.636 2.918-9.734-.82 1.34-1.24 3.098-2.079 4.437-1.659 4.857-6.676 8.395-10.853 10.594zm18.389 18.268c4.557 4.038 9.094 5.837 10.733 4.937 2.06-.44-4.117-7.655-4.117-7.655.4 2.718-1.66 5.416-6.616 2.718zm-47.491 2.619c6.256-2.22 23.725 0 28.302 16.01-.819-7.116-5.396-17.35-14.151-18.669-8.315-1.799-9.554 0-14.151 2.659zm93.623-14.132c6.696-.44 18.389-5.337 22.146-24.465-2.498 7.575-7.095 19.128-22.146 24.465z" fill="#d18293" fill-rule="evenodd"/><path d="M146.671 67.48c5.037-5.318 8.795-3.998 10.054 1.318.82 5.757-.42-16.39-.42-16.39zM35.059 41.775c0-4.038 1.259-7.196 4.977-6.736 2.918 0 4.577 2.698 6.216 5.396-3.298-1.359-6.216.9-9.534.44zm137.436-11.114c8.335-7.515 14.152.44 14.152 9.275-2.479-3.958-7.076-7.056-10.394-9.275zm11.234 94.583c.42 1.799.82 4.058 1.639 5.837-1.64-1.34-3.698-1.34-5.357 0zm-34.179 63.582c1.658 3.977 9.554 8.854 13.271 8.854-2.478-2.198-6.636-10.194-5.376-14.63-1.26 1.338-2.919 2.677-4.578 3.557z" fill="#bb5a74" fill-rule="evenodd"/><path d="M200.858 81.27c5.017 7.556 18.809 41.336 17.15 71.557-.84 16.45-8.375 37.777-19.248 45.333 3.777-4.877 11.293-15.55 7.115-42.215 1.68 3.998 6.696-11.113 3.338-33.779-3.338-22.227-13.372-26.664-15.05-16.89-.84 3.558-1.68 3.118-1.68 3.118s2.519-13.332 2.939-16.89c.42-3.557 4.597-5.776 5.436-10.233z" fill="#dda6b0" fill-rule="evenodd"/><path d="M190.884 111.093c-1.279 3.538-2.118 7.075-3.817 10.174-.84 1.778-1.7 2.218-1.26 3.977 0 1.32 1.26 4.857 2.1 6.196 2.118-.9 5.936 1.76 7.195 3.078-2.119-1.758-4.657-6.176-5.077-9.274 0-3.098 2.538-7.515 5.496-4.417-.839-3.098-3.797-5.297-4.637-8.395zM45.053 179.012c4.177 1.319 9.194 1.319 13.352 0-2.08-2.639-2.499-8.375-2.499-11.474-2.498.9-4.577 3.978-6.676 5.297z" fill="#dda6b0" fill-rule="evenodd"/><path d="M46.732 176.453c2.498-2.718 5.816-7.675 8.714-8.595 1.24 3.178 1.66 6.336 2.479 9.035-1.64-2.259-4.138-6.316-7.036-3.158z" fill="#bb5a74" fill-rule="evenodd"/><path d="M70.877 189.265c1.679 2.219 5.837 2.219 8.355 2.659 3.318.9 7.076 1.339 10.833 1.339 4.997 0 9.994.44 15.011-1.34 6.656-2.218 17.51-8.874 24.166-3.977-1.24 1.32-2.08 3.098-3.318 4.437-2.1 2.659-4.598 4.877-7.096 6.197-4.177 2.678-12.093 6.216-16.67 7.095 2.079-1.319 5.837-4.417 5.417-6.196-.84-1.779-6.676-1.34-11.253-1.779-3.338-.44-21.687-3.558-25.445-7.096zm67.479 12.872c6.256 8.855 25.805 14.172 35.798 10.634 9.994-3.098 10.814-6.216 10.814-6.216-3.318.46-15.39 0-18.709-4.877 1.66 3.997-3.757 13.751-27.903.46zm-9.214-8.834c2.098-1.8 1.259-3.138 4.177-3.138 1.26 0 3.338.9 4.597.9 3.338.439 6.676.899 9.615-.44 0 .879.42 2.218.82 3.557-4.578-2.678-13.773-.44-12.114 6.696-1.659-.44-8.355-5.356-5.836-7.575zM15.95 74.235c.82 4.018 2.499 7.555 2.499 11.553 0 3.558 0 7.555 1.24 11.113 2.078 7.556 5.416 14.212 4.177 22.227-1.26 7.096-5.837 14.211-2.499 21.327 2.898 6.216 10.813 10.214 17.05 8.874-4.158 4.438-8.315 10.674-13.312 14.212 1.239-3.098-.84-4.437-2.079-6.656-2.079-2.658-3.758-5.337-4.997-8.895-3.338-9.314-2.079-15.99.42-24.865 2.498-9.334-.42-16.89-2.499-25.324-1.679-7.116 2.499-14.671.42-21.327z" fill="#dda6b0" fill-rule="evenodd"/><path d="M28.423 149.69c2.918 2.198 3.338 7.075 2.918 10.173.84-3.538 4.997-6.196 7.076-9.734-1.66-.9-4.578-.9-6.237-.44z" fill="#bb5a74" fill-rule="evenodd"/><path d="M25.904 55.946c.84 3.098.84 6.216 2.099 9.314 1.24 2.659 2.079 5.757 4.577 7.536-3.757.88-7.915 3.098-11.273 5.756 2.099-3.098 3.358-6.636 3.358-10.633-.42-4.877-2.938-14.631.82-18.629z" fill="#dda6b0" fill-rule="evenodd"/><path d="M25.125 54.567c-.84-3.998 1.659-7.995 4.157-10.214.82-1.32 2.898-1.779 3.738-3.098.84-1.34.84-3.558 1.24-5.337 4.576-9.334 12.891.44 16.63 4.897-2.48-3.997-3.319-8.455-7.476-11.113-4.158-3.118-8.735-2.658-12.473.44-8.315 7.555-9.154 29.762-4.577 32.42zm44.953-.88c7.095 6.217 27.063 16.87 45.812 5.337.84-1.339 5.816-10.673 8.315-12.452-7.476 4.457-7.476 8.894-16.65 11.553-20.388 5.337-26.644-.88-32.88-2.659zm133.738-14.551c1.26 11.114 2.499 30.222-7.555 43.974.42-2.659 2.938-18.21-2.099-29.742 2.519 6.656 5.457 7.995 7.136 5.756 1.679-2.658 3.778-14.211 2.518-19.988z" fill="#dda6b0" fill-rule="evenodd"/><path d="M122.046 53.767c3.358-6.176 7.116-9.694 9.194-10.153zm-36.618-6.176c11.273 1.78 27.544 1.78 37.977-5.337-4.997 2.239-30.881 7.996-37.977 5.337zM38.737 12.892c-8.315-.46-21.248.44-21.667 31.041 2.098-12.412 6.256-29.722 21.667-31.04zM13.472 131.08c-5.517-21.347-3.378-41.354-1.68-49.81-.859 6.677-.859 34.7 1.68 49.81zm114.47-18.708c-.42-2.658-3.318-7.975-3.737-13.292 0-4.857 1.259-9.294 6.636-12.852-2.479 3.118-4.977 8.435-4.977 13.312 0 4.857 1.259 10.174 2.078 12.832zm77.873 40.855c-1.259-6.176-4.177-14.151-9.174-19.028 4.177 1.339 9.994 9.294 9.174 19.028z" fill="#fcf8f8" fill-rule="evenodd"/><path d="M97.92 95.622c-3.757 8.435-5.016 16.87 3.319 30.641 8.754 14.192 16.25 21.747 35.418 23.526 18.749 1.32 31.261-6.656 42.914-18.648" fill="none" stroke="#1a171b" stroke-width="1.359" stroke-linecap="round" stroke-linejoin="round"/><path d="M38.776 149.25c7.516-8.895 15.431-14.692 25.425-12.013 23.746 6.236 13.332 33.4 25.405 35.179 12.072 1.778 20.407-11.134 29.982-9.355 10.013 1.34 12.912 6.676 23.325 3.558 10.414-2.678 24.166-19.148 35.419-15.13 11.233 4.456 9.574 18.248 7.076 26.703-2.499 8.455-2.08 12.013 1.659 11.573" fill="none" stroke="#1a171b" stroke-width="1.359" stroke-linecap="round" stroke-linejoin="round"/><path d="M167.978 168.938c6.236 3.537-6.676 9.294-9.594 14.151M52.128 155.566c6.317-1.34 3.798 6.656 3.798 11.533m39.536-56.446c-2.079 3.538-7.475 9.314-17.869 10.194-10.394.44-23.286-2.659-26.204-7.975-2.918-5.337-10.814-23.086-13.732-19.529" fill="none" stroke="#1a171b" stroke-width="1.359" stroke-linecap="round" stroke-linejoin="round"/><path d="M56.286 117.309c-12.493-.9-18.729 8.015-22.886 15.13-4.178 6.677-7.096 5.357-7.096 3.579m55.006-15.611c7.516 2.239 14.192 14.211 20.448 17.33 6.676 3.537 10.014 2.658 10.014 2.658m33.72-32.78c-6.216-4.877 0-10.214 3.718-15.111 7.015-10.654 7.855-16.87 7.015-25.325-.82-8.894 1.24-20.447 2.479-24.005M81.31 155.906c3.758 7.595 8.755 13.831 23.746 12.052" fill="none" stroke="#1a171b" stroke-width="1.359" stroke-linecap="round" stroke-linejoin="round"/><path d="M45.512 102.258c0 3.558 1.26 7.096.42 10.634a63.716 63.716 0 0 1-2.119 7.515m74.595-31.061c2.499 1.339 10.394-4.417 12.872-7.076-4.137 3.998-9.534 8.855-9.534 15.031m-10.054 43.094s-3.338.88-9.994-2.678c-6.236-3.099-12.872-15.111-20.367-17.35h-.42c7.915-1.779 12.472-6.676 14.551-9.794 0 0 0 0 0 0 .42 4.457 2.079 9.354 5.837 15.59 3.737 5.777 7.055 10.674 10.793 14.232h-.4zm-6.636 27.523c-14.99 1.78-19.988-4.437-23.745-12.012 0 0 0 0 0 0 2.098 8.015 2.098 15.57 8.335 16.47 5.836.879 10.833-1.78 15.81-4.458h-.4z" fill="none" stroke="#1a171b" stroke-width="1.359" stroke-linecap="round" stroke-linejoin="round"/><path d="M45.492 102.258c0 3.558 1.26 7.096.42 10.634-.84 3.977-2.099 7.515-2.099 7.515s0 0 0 0c3.358-2.199 7.536-3.538 12.553-3.098h.4c-2.499-1.32-4.578-2.638-5.417-4.417-1.26-2.22-3.338-6.636-5.437-10.634h-.42zM147.59 164.84c-3.337-.46-11.692.88-16.29 1.779l-.42-.46c3.359 1.34 6.697 2.219 12.133.46 1.24-.46 2.919-.9 4.578-1.779m-25.905-67.459c0-6.216 5.437-11.113 9.594-15.11-2.498 2.678-10.413 8.454-12.932 7.115h-.42c1.26 2.658 2.519 5.776 3.758 8.874v-.879z" fill="none" stroke="#1a171b" stroke-width="1.359" stroke-linecap="round" stroke-linejoin="round"/><path d="M176.213 69.898c-.82-.9-2.898-.9-4.157 4.417-.84 5.317 2.498 18.169-6.237 35.878-6.256 12.393-14.59 16.37-24.165 15.49-9.574-.879-15.41-6.195-17.49-17.269-2.078-10.633-6.655-25.244-16.25-28.782-18.728-7.076-23.305 13.292-31.64 15.05-8.335 2.22-9.574.9-14.571-9.294-4.578-9.294-17.49-13.731-27.084-12.392" fill="none" stroke="#1a171b" stroke-width="1.359" stroke-linecap="round" stroke-linejoin="round"/><path d="M160.383 38.617c-7.476 19.168-8.315 27.623-29.103 43.653M59.324 65c2.499 1.74 4.577 3.918 6.636 6.956m14.511 20.468c1.66-1.779 3.738-3.998 5.797-6.656-9.515-1.34-14.911-7.136-20.308-13.812 5.816 7.576 7.875 18.25 14.511 20.468m9.634 34.699c5.017 1.28 11.673.44 11.673.44m33.26-87.907c-9.554 3.558-15.81 14.671-18.309 19.988 1.26-.44 2.499-1.32 3.758-2.219 6.656-3.997 11.653-9.774 14.551-17.769" fill="none" stroke="#1a171b" stroke-width="1.359" stroke-linecap="round" stroke-linejoin="round"/><path d="M175.873 71.557c.82-1.78 0-4.857-1.659-5.757-2.478 1.779-1.639 9.275 1.66 10.154m10.813 111.133c-.8 1.759-.8 3.517-.8 5.276m-17.989-21.826c.84-.86 1.66-1.28 2.479-2.16M52.608 155.906c.44-.42.44-1.26.88-1.68m43.273-58.284c1.24 0 2.06.46 2.859 1.379-.8 1.839-2.859 2.299-3.678.92M58.764 66.2c.44-.9 1.7-1.779 2.539-2.239.42 1.78-.42 3.558-.84 4.897 1.26-.9 2.519-2.658 4.198-2.658.42 1.759-.84 3.997-1.26 5.756M38.776 93.783c0-1.319 0-2.638.88-3.518m-12.932 44.853c-2.099 5.837 4.617 3.598 2.099-1.36" fill="none" stroke="#e6c1c7" stroke-width="1.359" stroke-linecap="round" stroke-linejoin="round"/><path d="M127.603 192.923c1.998-3.198 2.798-5.037 2.798-5.037M69.318 37.337c7.076 11.613 7.495 10.714 14.151 13.832m118.249 26.624c-.84 1.779-1.68 3.118-2.539 4.437-1.679 2.219-2.958 4.437-4.657 6.196M20.947 83.15c-1.239-1.78-2.898-7.576-4.157-14.711m162.781-40.356c4.158-.9 9.115 8.935 7.476 12.932m3.797 66.6c2.539 7.955 7.196 11.933 8.035 17.21.84 5.296-2.538 5.736-2.538 5.736m-12.532-6.156c-.4 2.198 2.398 6.156 2.398 6.156m-36.617 58.684c0 4.038 9.174 8.515 14.15 8.955M35.139 41.335c-.84-6.196 6.256-8.875 10.833-1.759" fill="none" stroke="#1a171b" stroke-width="1.359" stroke-linecap="round" stroke-linejoin="round"/><path d="M82.17 53.008c.42-1.34.42-2.679 0-4.018-.84.44-2.099.9-2.938 1.34.84-4.038-.42-4.038-4.197-2.24 0-.439 0-.899-.42-1.338-.42 0-1.26.44-1.7.9m122.087 79.911c1.699.42 2.978 2.998 5.097 1.719 2.098-1.72-2.119-3.878-3.398-4.318" fill="none" stroke="#e6c1c7" stroke-width="1.359" stroke-linecap="round" stroke-linejoin="round"/><path d="M42.994 180.83c3.338-3.537 12.073-12.872 12.912-13.751 2.499 8.435 3.338 19.968 19.568 24.845 15.83 4.437 26.664 1.339 32.5-1.32 2.499-1.339 8.735-3.997 12.493-3.997 4.997-.44 8.735.88 13.752 2.658 8.315 2.659 14.57 1.34 24.145-6.216-1.24 3.998 2.079 14.651 12.073 19.988 12.912 6.196 25.424 0 30.421-11.993 2.499-5.776 3.738-12.432 4.577-18.209 1.24-12.412-3.757-45.272-25.824-41.714 2.079-3.099 7.076-8.875 11.653-25.745 4.997-23.965 6.676-44.393-1.659-59.924-8.335-16.87-22.067-20.427-29.162-6.656 0-.44.42-.44.42-.899-1.66 2.239-6.237 2.239-12.493.9-5.417-.9-10.414-3.558-10.833-6.656-2.919 11.972-8.335 19.967-17.07 25.304-21.667 12.413-35.399 7.096-48.73-2.678-12.093-9.315-24.586-18.629-36.658-13.312-12.073 5.337-9.574 19.528-.84 31.52h.42c-1.24 0-2.918.44-4.157.88-12.093 5.337-11.673 15.99-7.916 26.644 3.738 11.093 3.738 16.41 0 26.184-4.597 11.533-2.498 25.305 16.65 22.187-2.498 3.558-10.833 13.771-13.731 15.99-2.919 1.779-6.676 6.656-6.257 11.093" fill="none" stroke="#1a171b" stroke-width="1.359" stroke-linecap="round" stroke-linejoin="round"/><path d="M137.517 31.061c-.84 3.118 4.577 6.216 10.833 7.556 6.256 1.319 11.653 1.319 12.912-1.34 1.24-3.098-3.757-6.656-10.833-7.555-7.076-.88-12.073-1.779-12.912 1.34z" fill="#f7eced" fill-rule="evenodd"/><path d="M140.355 32.52c.42 1.78 2.518.44 3.778 1.78.84.459.84 1.338 2.518 1.338.42 0 .84-.44 1.26-.44.42.44.839.9 1.259.9 1.679.44 3.358.44 5.037.44.839.44 3.338.44 2.918-1.34-.4-2.238-2.499-.899-3.758-1.339-.42 0-1.26-.44-2.099-.44-.84-.459-1.259 0-2.518 0-.42-.459-.84-.899-1.68-1.338-.839-.46-1.258 0-2.098.44-.84 0-1.679-.44-2.518-.44-.84 0-1.26.44-1.68.44z" fill="#bb5a74" fill-rule="evenodd"/><path d="M137.557 31.101c-.84 3.118 4.577 6.216 10.833 7.556 6.256 1.319 11.653 1.319 12.912-1.34 1.24-3.098-3.757-6.656-10.833-7.555-7.076-.88-12.073-1.779-12.912 1.34" fill="none" stroke="#1a171b" stroke-width="1.359" stroke-linecap="round" stroke-linejoin="round"/><path d="M140.355 32.52c.42 1.78 2.518.44 3.778 1.78.84.459.84 1.338 2.518 1.338.42 0 .84-.44 1.26-.44.42.44.839.9 1.259.9 1.679.44 3.358.44 5.037.44.839.44 3.338.44 2.918-1.34-.4-2.238-2.499-.899-3.758-1.339-.42 0-1.26-.44-2.099-.44-.84-.459-1.259 0-2.518 0-.42-.459-.84-.899-1.68-1.338-.839-.46-1.258 0-2.098.44-.84 0-1.679-.44-2.518-.44-.84 0-1.26.44-1.68.44" fill="none" stroke="#1a171b" stroke-width=".8" stroke-linecap="round" stroke-linejoin="round"/></svg>