<svg xmlns="http://www.w3.org/2000/svg" version="1.0" viewBox="0 0 646.337 119.357"><defs><clipPath clipPathUnits="userSpaceOnUse" id="a"><path d="M17.75 15.03h645.608v119.448H17.749z"/></clipPath></defs><path d="M198.12 88.566c0-27.023 46.512-41.894 67.759-43.453 21.227-1.96 66.26-7.456 70.297 24.265 4.018 31.7-41.375 21.127-65.92 30.142-24.165 8.614-72.136 21.127-72.136-10.954" fill="none" stroke="#000" stroke-width="1.519" stroke-miterlimit="8"/><path d="M290.064 37.537c0-3.757 2.878-6.836 6.396-6.836 3.538 0 6.396 3.079 6.396 6.836 0 3.778-2.858 6.836-6.396 6.836-3.518 0-6.396-3.058-6.396-6.836" fill="none" stroke="#000" stroke-width="1.519" stroke-miterlimit="8"/><path clip-path="url(#a)" d="M22.546 102.538s86.468-23.426 130.441-46.892c43.974-23.426 137.797-49.61 202.278-32.42 64.52 17.19 229.06 11.753 296.1 41.815 16.11 7.035 13.192 10.153-6.236 10.553-19.428.4-82.43 0-118.368 21.867-80.951 48.81-206.675 23.066-256.125 28.143-126.443 12.872-170.777-4.717-193.483-8.235-22.746-3.878-71.117-8.595-54.607-14.831z" fill="#ee7f61" fill-rule="evenodd"/><path clip-path="url(#a)" d="M22.586 102.578s86.468-23.426 130.441-46.892c43.974-23.426 137.797-49.61 202.278-32.42 64.52 17.19 229.06 11.753 296.1 41.815 16.11 7.035 13.192 10.153-6.236 10.553-19.428.4-82.43 0-118.368 21.867-80.951 48.81-206.675 23.066-256.125 28.143-126.443 12.872-170.777-4.717-193.483-8.235-22.746-3.878-71.117-8.595-54.607-14.831" fill="none" stroke="#343434" stroke-width="1.519" stroke-miterlimit="8"/><path d="M189.205 88.526c0-27.023 46.592-41.894 67.86-43.453 21.286-1.96 66.399-7.456 70.437 24.265 4.017 31.7-41.455 21.127-66.02 30.142-24.226 8.614-72.277 21.127-72.277-10.954z" fill="#d75a3c" fill-rule="evenodd"/><path d="M263.24 32.58c-34.059 3.498-68.498 16.39-99.999 30.462-17.23 7.815-30.781 18.748-47.99 24.985-7.696 3.138-14.652 7.815-22.347 9.774-6.596 1.959-20.148-2.339-21.627 5.856 42.134 13.272 74.735-26.164 111.372-39.456 46.152-16.79 38.097-17.969 92.684-31.62 1.819-.4-8.795-.8-12.093 0zm390.244 36.698S592.32 46.652 551.985 47.451c-40.295.76-131.92-5.476-155.385-10.953 0 0 106.295 17.19 153.187 15.63 46.931-1.559 91.264 11.713 103.697 17.15zM289.365 31.52c-1.82 1.56-3.278 3.499-3.658 6.217 5.117 3.498 14.251 1.16 20.088 1.16 5.117 0 20.087 2.718 23.006-2.32-3.638-6.235-33.22-6.235-39.796-3.897z" fill="#f08d79" fill-rule="evenodd"/><path d="M132.76 118.208s56.445 10.554 97.86 6.277c41.415-3.918 83.55-6.676 113.971-3.918 30.781 2.718 121.287 6.636 175.134-26.264 0 0-57.525 23.506-109.534 19.988-51.688-3.518-93.463-7.836-123.125-2.759-29.702 4.718-70.757 0-94.543 5.517-24.185 5.477-49.49 4.277-59.763 1.16z" fill="#e56e52" fill-rule="evenodd"/><path d="M640.652 72.836c4.397 0 10.633.76 14.67-1.56 3.279-1.958 1.84-1.198-1.838-1.958-2.558-.8-5.117-1.959-7.316-2.758-4.757-1.56-9.514-1.56-14.67-2.319-4.398-.4-11.354.36-15.032-1.599 5.517 1.959 12.113.8 17.59 2.758 4.397 1.16 11.753 1.96 15.39 5.077-1.799 1.96-6.596.8-8.794 2.759z" fill="#fff" fill-rule="evenodd"/><path d="M197.38 76.793c-5.137 4.698-4.397 18.37 0 23.826 5.857 6.636 15.75 5.477 23.066 4.297 10.254-1.938 18.31-5.856 27.824-9.754 5.856-2.338 11.732-2.738 17.589-2.338 4.017 0 9.874 1.559 13.532-1.58-4.378-4.297-16.11-2.338-21.587-2.338-9.534 0-17.95 3.118-26.744 6.256-7.316 2.739-19.029 8.195-26.364 3.898-9.155-4.677-2.199-18.349-7.316-22.267z" fill="#c1472f" fill-rule="evenodd"/><path d="M242.793 75.954c6.956-5.457 20.507-3.898 28.543-3.498 8.434.38 15.39 3.118 23.425 5.457 8.795 2.718 26.724 2.718 27.084-11.313 0-10.914-15.73-16.37-23.406-18.31-4.777-1.179-9.894-1.558-15.01-1.558-5.857-.4-9.155 2.718-14.272 5.057-10.993 5.077-24.905 4.677-34.779 12.472-1.839 7.016 1.1 10.534 7.316 11.693z" fill="#e1644c" fill-rule="evenodd"/><path d="M274.214 48.65c-16.83 0-45.772 0-61.883 3.918-17.929 3.918-35.138 5.477-51.988 13.292-15.011 6.656-28.563 13.692-44.673 16.83-15.011 3.118-28.563 6.256-42.834 11.733-9.155 3.518-21.247 6.636-31.141 5.856 4.397 2.339 21.247-1.559 27.843-1.959 8.055-.38 15.73-1.559 23.426-3.897 15.75-5.097 31.86-9.395 47.97-14.092 29.303-7.815 54.568-19.948 83.85-25.025 12.812-1.958 41.015-3.917 53.088-4.297zm8.455 3.239c0-1.6 2.218-2.919 4.917-2.919 2.718 0 4.917 1.32 4.917 2.919 0 1.619-2.199 2.918-4.917 2.918-2.699 0-4.917-1.3-4.917-2.918zm15.351 2.598c0-1.28 1.239-2.319 2.758-2.319 1.539 0 2.758 1.04 2.758 2.319 0 1.3-1.22 2.319-2.758 2.319-1.52 0-2.759-1.02-2.759-2.319z" fill="#fff" fill-rule="evenodd"/><path d="M77.153 96.661c-3.278 6.257-5.117 13.292-6.956 20.308" fill="none" stroke="#541310" stroke-width="2.798" stroke-linecap="round" stroke-miterlimit="8"/><path clip-path="url(#a)" d="M79.312 93.623c8.475 2.759 16.19 9.015 23.546 13.712 8.075 5.477 15.07 11.753 23.146 16.83" fill="none" stroke="#541310" stroke-width="2.798" stroke-linecap="round" stroke-miterlimit="8"/><path d="M150.149 72.196c-1.46 3.138-4.777 6.256-6.616 9.375-2.938 4.697-5.876 9.374-8.435 14.45a242.762 242.762 0 0 0-6.256 14.452c-1.1 2.339-2.579 7.815-3.318 8.975M147.51 67.04c-3.277.759-9.853-4.998-13.511-3.459m18.628 3.099c3.298-6.257 7.696-12.513 11.354-17.99m47.251 3.518c-8.415-3.877-17.19-8.554-25.984-11.673m-31.421 32.301c10.234 8.235 23.026 12.152 33.26 19.188" fill="none" stroke="#541310" stroke-width="2.798" stroke-linecap="round" stroke-miterlimit="8"/><path clip-path="url(#a)" d="M189.605 96.342c-4.337 5.476-6.516 14.091-5.776 21.527.36 3.897 2.518 12.892 6.136 14.45m4.477-37.177c5.137 3.138 8.795 8.615 13.192 12.513 4.038 3.518 7.696 7.435 11.713 10.553 3.298 2.739 6.956 4.698 10.634 7.436 1.459 1.16 5.117 3.897 5.476 4.677" fill="none" stroke="#541310" stroke-width="2.798" stroke-linecap="round" stroke-miterlimit="8"/><path d="M212.751 57.645c-1.819.8-3.298 4.717-4.397 6.676-2.199 3.518-4.418 6.656-6.256 10.174-2.939 4.697-5.877 9.794-8.455 14.491" fill="none" stroke="#541310" stroke-width="2.798" stroke-linecap="round" stroke-miterlimit="8"/><path clip-path="url(#a)" d="M266.878 85.308c-3.618 9.015-6.156 17.23-5.776 27.024 0 5.077 1.799 10.953 5.057 14.471" fill="none" stroke="#541310" stroke-width="2.798" stroke-linecap="round" stroke-miterlimit="8"/><path d="M218.588 55.646c14.69 7.836 30.461 17.63 45.492 23.506" fill="none" stroke="#541310" stroke-width="2.798" stroke-linecap="round" stroke-miterlimit="8"/><path clip-path="url(#a)" d="M218.588 49.81c.38-.38 2.938-4.677 3.657-6.236 2.199-2.739 4.018-5.477 5.497-8.615 1.819-3.518 4.018-6.636 6.196-9.774m66.76 7.035c-3.278-2.318-8.055-2.698-11.333-4.257-2.939-1.559-5.877-2.339-8.795-3.878-2.938-1.159-7.336-3.098-9.534-5.057" fill="none" stroke="#541310" stroke-width="2.798" stroke-linecap="round" stroke-miterlimit="8"/><path d="M270.936 79.252c-.38.78-.38.78 0 0 .72-1.56 1.459-2.738 2.198-3.918 1.1-2.758 2.939-5.496 4.398-8.255 3.658-5.097 7.335-9.414 10.993-14.131 4.757-5.897 9.534-11.773 14.651-17.29" fill="none" stroke="#541310" stroke-width="2.798" stroke-linecap="round" stroke-miterlimit="8"/><path clip-path="url(#a)" d="M271.755 84.309c1.84-1.959 27.124 26.084 31.161 29.982 3.298 2.718 6.596 5.836 9.535 8.555 1.459 1.559 4.397 3.118 5.117 4.277m31.101-32.3c-.72 3.517-2.899 7.415-4.717 10.533-2.2 3.898-4.378 8.175-6.556 12.473-1.82 3.497-3.279 8.175-5.837 11.293m22.946-34.299c9.894 8.215 19.428 16.81 28.583 25.404 2.918 2.718 8.055 5.857 9.874 8.575" fill="none" stroke="#541310" stroke-width="2.798" stroke-linecap="round" stroke-miterlimit="8"/><path d="M305.895 35.019c2.558 7.036 9.134 14.431 13.531 20.287 3.998 5.857 9.495 11.314 14.232 16.39 3.658 3.498 7.315 7.016 10.234 10.914 1.079 1.18 5.096 6.636 5.096 7.016" fill="none" stroke="#541310" stroke-width="2.798" stroke-linecap="round" stroke-miterlimit="8"/><path clip-path="url(#a)" d="M305.415 30.701c2.598-4.677 6.656-11.313 11.433-13.671m77.592 27.283.36.38c-1.818-1.16-4.017-1.56-5.856-2.339-2.198-1.179-4.037-2.338-6.236-3.917-3.298-1.94-6.596-3.518-9.894-5.857-4.397-2.738-8.435-6.256-12.472-9.394" fill="none" stroke="#541310" stroke-width="2.798" stroke-linecap="round" stroke-miterlimit="8"/><path d="M400.317 43.134c1.84.36 6.956-5.397 8.795-7.316 2.199-1.559 5.837-5.037 8.395-5.436M394.48 49.01c0 1.58-6.215 6.656-7.674 8.235-5.117 5.877-10.614 11.353-16.09 16.83-3.299 3.918-6.217 7.835-9.875 11.353-1.479 1.56-3.657 3.138-5.137 5.077m43.414-40.295c1.839.4 3.318 3.917 4.437 5.876 2.559 4.317 5.877 8.235 8.435 12.512 4.438 6.676 7.716 14.072 11.793 21.148 3.278 5.077 5.517 10.913 6.956 17.19.76 1.958 4.038 10.953 3.318 11.712m32.86-53.968c-7.635 9.795-11.993 22.667-17.83 33.98a95.731 95.731 0 0 1-6.555 11.713c-1.48 2.359-2.918 6.236-4.398 7.795m29.343-60.123c-5.117-3.118-8.435-10.914-12.113-15.99-1.839-2.759-4.437-6.237-7.395-7.836m24.465 24.945c.76-1.919 6.276-3.878 8.115-5.437 2.958-2.318 6.236-5.037 9.194-7.795 2.958-2.318 5.877-6.196 9.554-7.395M470.595 65c4.797 18.03 10.673 36.419 23.506 49.33m32.619-42.134c-8.434 5.077-17.589 15.59-22.745 24.585-2.2 3.878-4.038 7.796-6.237 11.673-1.079 2.319-1.839 5.437-3.318 6.996m37.498-42.134c2.598 3.917 6.236 7.035 8.474 11.313 1.44 1.919 2.919 3.877 3.998 6.196M529.28 64.68c-.36-8.594-3.239-16.789-4.718-25.024m7.675 29.342c.76-1.559 4.038-1.959 5.517-3.118a123.005 123.005 0 0 1 10.634-5.117c5.117-1.959 10.233-4.317 14.99-7.076 3.678-1.958 7.316-4.317 9.875-7.875m20.467 15.351c-2.518-5.477-7.235-9.354-10.154-14.471m15.271 17.669c10.674-3.558 22.067-4.717 32.7-7.515M594.52 70.197c0-1.199 0 1.16.36 1.52 0 1.199.36 2.358.36 3.517v4.238m-4.398-10.474c-4.038 4.717-10.634 8.275-14.311 13.352" fill="none" stroke="#541310" stroke-width="2.798" stroke-linecap="round" stroke-miterlimit="8"/><path d="M262.201 81.31c0-3.757 2.878-6.835 6.396-6.835 3.538 0 6.396 3.078 6.396 6.836 0 3.777-2.858 6.836-6.396 6.836-3.518 0-6.396-3.059-6.396-6.836z" fill="#9b1e1b" fill-rule="evenodd"/><path d="M263.72 80.471c0-2.278 1.72-4.157 3.838-4.157 2.139 0 3.838 1.879 3.838 4.157 0 2.299-1.7 4.158-3.838 4.158-2.119 0-3.838-1.86-3.838-4.158z" fill="#bf3121" fill-rule="evenodd"/><path d="M263.72 78.712c0-1.06.84-1.919 1.84-1.919 1.018 0 1.838.86 1.838 1.92 0 1.059-.82 1.918-1.839 1.918-1 0-1.839-.86-1.839-1.919z" fill="#fff" fill-rule="evenodd"/><path d="M262.201 81.31c0-3.757 2.878-6.835 6.396-6.835 3.538 0 6.396 3.078 6.396 6.836 0 3.777-2.858 6.836-6.396 6.836-3.518 0-6.396-3.059-6.396-6.836" fill="none" stroke="#343434" stroke-width=".64" stroke-miterlimit="8"/><path d="M209.433 54.127c0-3.857 2.938-6.996 6.556-6.996 3.638 0 6.556 3.139 6.556 6.996 0 3.878-2.918 6.996-6.556 6.996-3.618 0-6.556-3.118-6.556-6.996z" fill="#9b1e1b" fill-rule="evenodd"/><path d="M210.872 53.288c0-2.379 1.8-4.318 3.998-4.318 2.218 0 3.997 1.94 3.997 4.318 0 2.398-1.779 4.317-3.997 4.317-2.199 0-3.998-1.919-3.998-4.317z" fill="#bf3121" fill-rule="evenodd"/><path d="M211.192 51.689c0-1.06.76-1.92 1.679-1.92.94 0 1.679.86 1.679 1.92 0 1.059-.74 1.919-1.679 1.919-.92 0-1.679-.86-1.679-1.92z" fill="#fff" fill-rule="evenodd"/><path d="M209.433 54.127c0-3.857 2.938-6.996 6.556-6.996 3.638 0 6.556 3.139 6.556 6.996 0 3.878-2.918 6.996-6.556 6.996-3.618 0-6.556-3.118-6.556-6.996" fill="none" stroke="#343434" stroke-width=".64" stroke-miterlimit="8"/><path d="M184.408 93.224c0-3.898 2.998-7.076 6.676-7.076 3.698 0 6.676 3.178 6.676 7.076 0 3.917-2.978 7.075-6.676 7.075-3.678 0-6.676-3.158-6.676-7.075z" fill="#9b1e1b" fill-rule="evenodd"/><path d="M185.927 92.384c0-2.339 1.84-4.237 4.078-4.237 2.258 0 4.077 1.898 4.077 4.237 0 2.359-1.819 4.237-4.077 4.237-2.239 0-4.078-1.878-4.078-4.237z" fill="#bf3121" fill-rule="evenodd"/><path d="M186.247 90.865c0-1.06.76-1.919 1.68-1.919.939 0 1.678.86 1.678 1.919 0 1.06-.74 1.919-1.679 1.919-.92 0-1.679-.86-1.679-1.92z" fill="#fff" fill-rule="evenodd"/><path d="M184.408 93.224c0-3.898 2.998-7.076 6.676-7.076 3.698 0 6.676 3.178 6.676 7.076 0 3.917-2.978 7.075-6.676 7.075-3.678 0-6.676-3.158-6.676-7.075" fill="none" stroke="#343434" stroke-width=".64" stroke-miterlimit="8"/><path d="M144.273 70.437c0-3.857 2.958-6.995 6.596-6.995 3.657 0 6.596 3.138 6.596 6.995 0 3.878-2.939 6.996-6.596 6.996-3.638 0-6.596-3.118-6.596-6.996z" fill="#9b1e1b" fill-rule="evenodd"/><path d="M145.632 69.718c0-2.359 1.839-4.278 4.077-4.278 2.259 0 4.078 1.92 4.078 4.278 0 2.378-1.82 4.277-4.078 4.277-2.238 0-4.077-1.899-4.077-4.277z" fill="#bf3121" fill-rule="evenodd"/><path d="M146.111 68.159c0-1.1.7-2 1.56-2 .879 0 1.559.9 1.559 2 0 1.119-.68 1.998-1.56 1.998-.859 0-1.559-.879-1.559-1.998z" fill="#fff" fill-rule="evenodd"/><path d="M144.273 70.437c0-3.857 2.958-6.995 6.596-6.995 3.657 0 6.596 3.138 6.596 6.995 0 3.878-2.939 6.996-6.596 6.996-3.638 0-6.596-3.118-6.596-6.996" fill="none" stroke="#343434" stroke-width=".64" stroke-miterlimit="8"/><path d="M117.809 122.846c0-3.918 2.938-7.116 6.556-7.116 3.637 0 6.556 3.198 6.556 7.116 0 3.937-2.919 7.115-6.556 7.115-3.618 0-6.556-3.178-6.556-7.115z" fill="#9b1e1b" fill-rule="evenodd"/><path d="M119.248 122.086c0-2.399 1.799-4.357 3.997-4.357 2.219 0 3.998 1.958 3.998 4.357 0 2.419-1.779 4.357-3.998 4.357-2.198 0-3.997-1.938-3.997-4.357z" fill="#bf3121" fill-rule="evenodd"/><path d="M119.647 120.527c0-1.06.74-1.919 1.64-1.919.919 0 1.638.86 1.638 1.919 0 1.06-.72 1.919-1.639 1.919-.899 0-1.639-.86-1.639-1.919z" fill="#fff" fill-rule="evenodd"/><path d="M117.809 122.846c0-3.918 2.938-7.116 6.556-7.116 3.637 0 6.556 3.198 6.556 7.116 0 3.937-2.919 7.115-6.556 7.115-3.618 0-6.556-3.178-6.556-7.115" fill="none" stroke="#343434" stroke-width=".64" stroke-miterlimit="8"/><path d="M70.957 91.624c0-3.857 2.958-6.995 6.596-6.995 3.658 0 6.596 3.138 6.596 6.995 0 3.878-2.938 6.996-6.596 6.996-3.638 0-6.596-3.118-6.596-6.996z" fill="#9b1e1b" fill-rule="evenodd"/><path d="M72.316 90.785c0-2.379 1.84-4.317 4.078-4.317 2.258 0 4.077 1.938 4.077 4.317 0 2.399-1.819 4.317-4.077 4.317-2.239 0-4.078-1.918-4.078-4.317z" fill="#bf3121" fill-rule="evenodd"/><path d="M72.796 89.266c0-1.1.72-1.999 1.599-1.999.9 0 1.599.9 1.599 1.999 0 1.12-.7 1.999-1.6 1.999-.879 0-1.598-.88-1.598-2z" fill="#fff" fill-rule="evenodd"/><path d="M70.957 91.624c0-3.857 2.958-6.995 6.596-6.995 3.658 0 6.596 3.138 6.596 6.995 0 3.878-2.938 6.996-6.596 6.996-3.638 0-6.596-3.118-6.596-6.996" fill="none" stroke="#343434" stroke-width=".64" stroke-miterlimit="8"/><path d="M296.66 33.82c0-3.858 2.958-6.996 6.596-6.996 3.658 0 6.596 3.138 6.596 6.996 0 3.877-2.938 6.995-6.596 6.995-3.638 0-6.596-3.118-6.596-6.995z" fill="#9b1e1b" fill-rule="evenodd"/><path d="M298.02 32.98c0-2.379 1.838-4.317 4.077-4.317 2.259 0 4.077 1.938 4.077 4.317 0 2.399-1.818 4.317-4.077 4.317-2.239 0-4.078-1.918-4.078-4.317z" fill="#bf3121" fill-rule="evenodd"/><path d="M298.02 31.381c0-1.06.839-1.919 1.838-1.919 1.02 0 1.84.86 1.84 1.919 0 1.06-.82 1.919-1.84 1.919-1 0-1.839-.86-1.839-1.919z" fill="#fff" fill-rule="evenodd"/><path d="M296.66 33.82c0-3.858 2.958-6.996 6.596-6.996 3.658 0 6.596 3.138 6.596 6.996 0 3.877-2.938 6.995-6.596 6.995-3.638 0-6.596-3.118-6.596-6.995" fill="none" stroke="#343434" stroke-width=".64" stroke-miterlimit="8"/><path d="M344.95 92.184c0-3.818 2.96-6.916 6.597-6.916 3.658 0 6.596 3.098 6.596 6.916 0 3.838-2.938 6.916-6.596 6.916-3.638 0-6.596-3.078-6.596-6.916z" fill="#9b1e1b" fill-rule="evenodd"/><path d="M346.47 91.345c0-2.239 1.799-4.078 3.998-4.078 2.218 0 3.997 1.839 3.997 4.078 0 2.258-1.779 4.077-3.997 4.077-2.2 0-3.998-1.819-3.998-4.077z" fill="#bf3121" fill-rule="evenodd"/><path d="M346.47 89.586c0-1.1.84-2 1.839-2 1.02 0 1.839.9 1.839 2 0 1.119-.82 1.998-1.84 1.998-.998 0-1.838-.879-1.838-1.998z" fill="#fff" fill-rule="evenodd"/><path d="M344.95 92.184c0-3.818 2.96-6.916 6.597-6.916 3.658 0 6.596 3.098 6.596 6.916 0 3.838-2.938 6.916-6.596 6.916-3.638 0-6.596-3.078-6.596-6.916" fill="none" stroke="#343434" stroke-width=".64" stroke-miterlimit="8"/><path d="M429.94 119.767c0-3.837 2.958-6.995 6.555-6.995 3.638 0 6.556 3.158 6.556 6.995 0 3.878-2.918 6.996-6.556 6.996-3.597 0-6.556-3.118-6.556-6.996z" fill="#9b1e1b" fill-rule="evenodd"/><path d="M431.459 118.928c0-2.359 1.798-4.317 3.997-4.317 2.239 0 3.998 1.958 3.998 4.317 0 2.398-1.76 4.317-3.998 4.317-2.199 0-3.997-1.919-3.997-4.317z" fill="#bf3121" fill-rule="evenodd"/><path d="M431.778 117.409c0-1.08.76-1.999 1.64-1.999.919 0 1.638.92 1.638 1.999 0 1.12-.72 1.999-1.639 1.999-.88 0-1.639-.88-1.639-2z" fill="#fff" fill-rule="evenodd"/><path d="M429.94 119.767c0-3.837 2.958-6.995 6.555-6.995 3.638 0 6.556 3.158 6.556 6.995 0 3.878-2.918 6.996-6.556 6.996-3.597 0-6.556-3.118-6.556-6.996" fill="none" stroke="#343434" stroke-width=".64" stroke-miterlimit="8"/><path d="M390.763 46.812c0-3.738 2.898-6.796 6.436-6.796 3.558 0 6.436 3.058 6.436 6.796 0 3.757-2.878 6.796-6.436 6.796-3.538 0-6.436-3.039-6.436-6.796z" fill="#9b1e1b" fill-rule="evenodd"/><path d="M392.282 46.092c0-2.239 1.72-4.077 3.838-4.077 2.139 0 3.838 1.838 3.838 4.077 0 2.259-1.7 4.078-3.838 4.078-2.119 0-3.838-1.82-3.838-4.078z" fill="#bf3121" fill-rule="evenodd"/><path d="M392.282 44.333c0-1.1.84-1.999 1.84-1.999 1.019 0 1.838.9 1.838 2 0 1.118-.82 1.998-1.839 1.998-1 0-1.839-.88-1.839-1.999z" fill="#fff" fill-rule="evenodd"/><path d="M390.763 46.812c0-3.738 2.898-6.796 6.436-6.796 3.558 0 6.436 3.058 6.436 6.796 0 3.757-2.878 6.796-6.436 6.796-3.538 0-6.436-3.039-6.436-6.796" fill="none" stroke="#343434" stroke-width=".64" stroke-miterlimit="8"/><path d="M462.24 61.163c0-3.838 2.958-6.996 6.596-6.996 3.678 0 6.596 3.158 6.596 6.996 0 3.878-2.918 6.996-6.596 6.996-3.638 0-6.596-3.118-6.596-6.996z" fill="#9b1e1b" fill-rule="evenodd"/><path d="M463.759 60.323c0-2.358 1.799-4.317 3.998-4.317 2.238 0 3.997 1.959 3.997 4.317 0 2.399-1.759 4.318-3.997 4.318-2.2 0-3.998-1.919-3.998-4.318z" fill="#bf3121" fill-rule="evenodd"/><path d="M464.079 58.804c0-1.079.76-1.998 1.679-1.998.96 0 1.679.919 1.679 1.998 0 1.12-.72 2-1.68 2-.919 0-1.678-.88-1.678-2z" fill="#fff" fill-rule="evenodd"/><path d="M462.24 61.163c0-3.838 2.958-6.996 6.596-6.996 3.678 0 6.596 3.158 6.596 6.996 0 3.878-2.918 6.996-6.596 6.996-3.638 0-6.596-3.118-6.596-6.996" fill="none" stroke="#343434" stroke-width=".64" stroke-miterlimit="8"/><path d="M523.403 70.277c0-3.757 2.878-6.835 6.396-6.835 3.558 0 6.396 3.078 6.396 6.835 0 3.798-2.838 6.836-6.396 6.836-3.518 0-6.396-3.038-6.396-6.836z" fill="#9b1e1b" fill-rule="evenodd"/><path d="M524.842 69.518c0-2.239 1.719-4.078 3.838-4.078 2.118 0 3.837 1.84 3.837 4.078 0 2.278-1.719 4.077-3.837 4.077-2.12 0-3.838-1.799-3.838-4.077z" fill="#bf3121" fill-rule="evenodd"/><path d="M524.842 67.759c0-1.08.84-1.999 1.839-1.999 1.04 0 1.839.92 1.839 1.999 0 1.12-.8 1.999-1.84 1.999-.999 0-1.838-.88-1.838-2z" fill="#fff" fill-rule="evenodd"/><path d="M523.403 70.277c0-3.757 2.878-6.835 6.396-6.835 3.558 0 6.396 3.078 6.396 6.835 0 3.798-2.838 6.836-6.396 6.836-3.518 0-6.396-3.038-6.396-6.836" fill="none" stroke="#343434" stroke-width=".64" stroke-miterlimit="8"/><path d="M588.643 65.64c0-3.758 2.918-6.836 6.436-6.836 3.558 0 6.436 3.078 6.436 6.836 0 3.798-2.878 6.836-6.436 6.836-3.518 0-6.436-3.038-6.436-6.836z" fill="#9b1e1b" fill-rule="evenodd"/><path d="M590.002 64.88c0-2.238 1.76-4.077 3.918-4.077 2.199 0 3.918 1.839 3.918 4.078 0 2.278-1.72 4.077-3.918 4.077-2.159 0-3.918-1.799-3.918-4.077z" fill="#bf3121" fill-rule="evenodd"/><path d="M590.002 63.042c0-1.04.84-1.919 1.84-1.919 1.039 0 1.838.88 1.838 1.919 0 1.08-.8 1.919-1.839 1.919-1 0-1.839-.84-1.839-1.92z" fill="#fff" fill-rule="evenodd"/><path d="M588.643 65.64c0-3.758 2.918-6.836 6.436-6.836 3.558 0 6.436 3.078 6.436 6.836 0 3.798-2.878 6.836-6.436 6.836-3.518 0-6.436-3.038-6.436-6.836" fill="none" stroke="#343434" stroke-width=".64" stroke-miterlimit="8"/></svg>