<svg xmlns="http://www.w3.org/2000/svg" version="1.0" viewBox="0 0 215.962 294.992"><defs><clipPath clipPathUnits="userSpaceOnUse" id="a"><path d="M4.637.48h215.71v295.18H4.636z"/></clipPath></defs><path clip-path="url(#a)" d="M25.345 10.554C37.417.76 57.405 1.239 71.597 1.679c54.966 2.199 103.697 39.096 130.76 89.306 22.906 42.614 19.189 101.698 6.676 147.03-9.594 35.979-38.736 56.407-74.155 56.407-12.912 0-59.124-8.435-52.048-62.163 5.836-48.89 2.918-79.112-38.337-119.527C30.781 99.42 15.351 83.869 8.275 63.402.76 41.215 10.793 19.868 25.345 10.554z" fill="#925577" fill-rule="evenodd"/><path d="M47.771 28.263c4.198 5.796 18.789 8.914 25.425 9.794 8.754 1.32 18.748-1.32 27.103 1.759 14.991 5.796 31.261 26.224 38.737 40.895 4.197 8.435 3.757 18.19 7.515 26.624 1.68 3.998 4.158 7.555 5.837 11.553 1.239 4.437.84 8.875 1.679 13.312 1.239 9.354 3.717 18.229 4.997 27.543.84 6.676 6.636 19.548 4.997 25.785-.84 3.557-5.837 6.636-7.516 9.754-2.079 3.557-2.079 7.115-2.918 11.113-1.68 7.995-3.758 16.43-6.236 23.985-2.08 6.676-4.997 14.671-11.673 16.87-3.318.88-7.516.44-11.273-.88-3.718-.879-8.315-5.756-12.073-3.997 7.515 3.118 18.749-3.997 21.667-11.113 4.597-10.634 2.079-23.986 5.436-35.099 1.64-5.756 4.158-10.194 3.758-15.99-.44-5.757-2.918-11.513-2.518-17.31.84-9.754 5.836-20.427.4-30.181-2.479-4.917-4.998-4.917-5.797-10.234-1.28-6.236-1.679-11.993-3.758-17.75-4.197-12.472-9.594-27.982-18.349-37.777-7.075-7.555-18.348-11.992-26.264-18.189-3.717-2.678-6.636-4.477-10.833-6.675-3.318-1.8-5.837-5.797-9.554-7.116z" fill="#834166" fill-rule="evenodd"/><path d="M77.313 82.43C65.2 99.74 90.225 116.21 98.141 127.763c5.396 7.115 8.314 13.751 9.594 22.666.8 4.437 0 20.427 2.918 24.865.4.88 1.639.44 2.079.44 1.639-1.76 4.157-1.76 5.396-3.998 6.237-14.671-.84-37.777-5.396-51.529-2.919-8.914-4.997-17.79-10.434-25.344-4.597-6.676-14.99-17.35-23.746-13.792z" fill="#8a4a6d" fill-rule="evenodd"/><path d="M161.102 45.213c18.35 19.548 51.29 61.762 53.768 107.934 2.079 46.652-4.997 128.402-71.717 135.918 15.031-6.196 52.129-37.737 57.965-88.387 6.276-50.17-6.236-121.246-40.016-155.465z" fill="#834166" fill-rule="evenodd"/><path d="M194.442 104.217c2.918 12.472 3.758 25.784 3.758 38.696 0 7.556-.44 14.632-1.28 21.747-.799 4.877-4.157 11.993-3.757 15.55.44 4.438 3.758 9.795 4.597 14.232.44 4.877.44 9.794-.4 14.232-1.679 11.113-7.115 23.106-15.87 29.302 4.597 11.553-3.318 26.224-10.034 35.099 23.386-1.76 31.341-47.532 33.82-65.76 1.679-11.114 4.197-22.667 5.037-33.74.8-12.033-2.519-24.026-2.12-35.579zM50.37 21.627c5.396 1.759 9.993 6.196 15.79 7.555 5.836 1.76 11.673.88 17.47 1.76 11.233 1.318 22.466 9.314 33.699 7.555-4.957 1.759-11.633-4.438-16.19-7.116-5.437-3.558-11.233-4.437-17.51-5.317-5.796-.88-10.793-.88-16.63-.88-5.836-.439-12.072-4.916-17.07-3.997zm-7.956 85.228c16.67 16.03 45.013 39.576 46.252 83.15.84 43.533-7.075 52.448-2.918 67.08 0-13.752 7.515-45.773 8.755-64.881 1.239-19.109-7.076-58.205-52.089-85.349z" fill="#834166" fill-rule="evenodd"/><path d="M164.86 154.107c-1.639 6.236 1.28 22.666 4.997 25.744-5.836-1.759-7.475-13.752-7.915-25.305-.4-11.553-1.24-16.87-3.758-22.666 3.358 3.558 6.676 3.558 6.676 22.227zm-6.676-33.9c-8.355-7.995-10.873-19.548-10.034-33.34 1.68 5.797 4.198 26.264 10.034 33.34zM120.687 49.53c5.836 2.239 20.867 21.787 21.667 27.983zM61.523 3.998c11.273.44 52.488-.92 95.782 37.217-6.636-3.518-42.894-29.262-95.782-37.217z" fill="#ba8fa6" fill-rule="evenodd"/><path clip-path="url(#a)" d="M24.105 85.508C2.44 63.402 8.275 35.938 14.111 27.943c-1.639 4.877-9.154 29.702 9.994 57.565z" fill="#ba8fa6" fill-rule="evenodd"/><path d="M121.486 172.655c12.553-42.214-11.273-72.875-17.989-81.79 2.958 7.116 23.466 41.375 17.99 81.79zm46.692 17.35c-7.076 3.558-8.755 8.435-12.512 29.302-4.158 20.867-8.755 30.182-18.35 32.82 6.277 0 14.632-3.957 19.629-20.387 4.997-15.99 5.836-40.376 11.233-41.735z" fill="#ba8fa6" fill-rule="evenodd"/><path clip-path="url(#a)" d="M25.345 10.554C37.417.76 57.405 1.239 71.597 1.679c54.966 2.199 103.697 39.096 130.76 89.306 22.906 42.614 19.189 101.698 6.676 147.03-9.594 35.979-38.736 56.407-74.155 56.407-12.912 0-59.124-8.435-52.048-62.163 5.836-48.89 2.918-79.112-38.337-119.527C30.781 99.42 15.351 83.869 8.275 63.402.76 41.215 10.793 19.868 25.345 10.554" fill="none" stroke="#333" stroke-width=".8" stroke-linecap="round" stroke-linejoin="round"/><path d="M102.418 241.933c12.912-13.791 22.906 15.511 38.337 1.76 13.711-12.433 8.315-60.844 29.942-60.844m-27.184-90.905c-7.475-18.668-19.508-33.78-35.339-46.691-10.393-8.475-31.58-6.676-43.653-10.674-5.397-1.799-21.627-5.796-22.067-11.153" fill="none" stroke="#fff" stroke-width="1.199" stroke-linecap="round" stroke-linejoin="round"/><path d="M166.859 182.85c-7.076-.44-8.315-35.46-10.394-41.656-2.119-6.676-.84-12.872-2.958-19.987m-50.29-78.593c8.315 3.478 13.312 4.318 18.71 3.478" fill="none" stroke="#fff" stroke-width="1.199" stroke-linecap="round" stroke-linejoin="round"/><path d="M144.033 83.95c-.84 15.07 4.157 37.177 16.19 41.574" fill="none" stroke="#fff" stroke-width="1.199" stroke-linecap="round" stroke-linejoin="round"/><path d="M79.472 81.11c7.475-2.238 14.111 4.878 18.309 10.674 15.39 19.509 26.624 63.482 19.948 78.593-.84 2.638-2.479 3.997-4.158 4.437-.4.44-2.918.44-3.318-1.799-.44-2.638-.44-7.076-.44-11.073 0-6.236-.4-13.352-1.639-18.23-2.518-8.874-8.315-14.63-13.751-20.427-4.557-4.437-14.152-14.63-17.07-21.307 2.918 7.116 11.273 17.75 15.83 22.666 5.397 5.757 10.834 11.074 13.312 19.948 1.24 4.478 1.68 11.114 1.68 17.35 0 5.317 0 8.874.839 11.513 0 1.359 1.24 3.997 4.997 3.118 2.079-.44 4.157-2.199 5.397-5.317 6.636-15.99-4.158-60.403-19.988-80.83-6.636-8.436-13.312-11.074-19.948-9.315z" fill="#af7d98" fill-rule="evenodd"/><path d="M44.893 23.426c-1.24 1.359-2.479 3.158-2.918 5.397 2.518.879 4.597-2.24 7.075-3.598 1.24 3.158 0 6.716-1.239 9.394m55.406 204.756c.44 1.32.84 2.638 1.28 3.518 0-1.76.4-3.518.84-4.837 1.238 1.319 2.078 3.078 2.478 5.237.44-2.599.44-5.237 1.679-7.436 1.679 2.199 2.118 4.837 2.918 7.436m58.604-63.402c-1.599 2.638-1.998 6.156-.8 8.795m-11.192-67.16c-.84 2.239-1.28 4.478-.84 6.716m-36.258-80.791c-1.639-9.874-8.715-2.238-2.878 1.32m23.346 36.777h2.478" fill="none" stroke="#925577" stroke-width="1.679" stroke-miterlimit="8"/></svg>