<svg xmlns="http://www.w3.org/2000/svg" version="1.0" viewBox="0 0 95.584 51.402"><defs><clipPath clipPathUnits="userSpaceOnUse" id="a"><path d="M.48.32h95.462v51.409H.48z"/></clipPath></defs><path d="M74.915 15.91c2.518 1.76 14.191 4.877 10.433 9.754-2.518 3.119-9.594-.879-13.352.48-9.994 4.877 10.434 7.556 13.352 7.995 2.919 0 10.394 0 9.155 4.877-.84 4.438-8.755 3.998-11.673 5.357-7.076 3.998-11.633 6.196-19.988 6.196-10.394 0-24.585-.44-33.3-6.196-6.276-3.997-10.434-11.113-16.27-15.59C8.275 24.785.76 19.468 1.599 11.433c.84-4.877 5.437-9.314 9.594-9.754 5.397-.92 13.752.88 18.749 2.638 7.076 2.679 11.673 3.558 19.148 4.038 7.516.44 18.749 3.078 25.825 7.555z" fill="#e498a3" fill-rule="evenodd"/><path d="M23.346 36.298c3.718 2.199 5.397 5.757 9.554 7.555 3.758 1.8 7.915 3.119 12.073 3.558 3.757.88 7.915.44 12.072.88 3.758.44 7.076.44 11.234-.44 4.997-.88 9.154-2.678 13.751-4.877 2.079-.92 12.033-3.118 9.554-6.236-5.396-1.36-11.233-.92-16.63-2.679 1.64.88 5.397 2.239 5.397 4.877 0 2.239-2.518 3.119-4.597 3.119 1.28 2.238-1.24 3.597-2.878 3.597-3.758.44-6.276-2.238-9.994-.48-3.758 1.36-4.997 2.679-7.915-.879-3.758-3.997-4.997-3.118-9.994-1.759-4.158.88-5.397 0-9.155-2.238-1.679-1.36-3.757-2.679-5.836-3.998-1.64-1.799-1.24-2.678-2.479-4.477-2.078-3.558-4.997-1.76-7.915-2.199-2.478-.92-4.157-2.678-6.676-3.598z" fill="#dd788a" fill-rule="evenodd"/><path d="M66.28 29.182c-.84-11.153 14.151-.44 17.47-6.676-1.24-.44-2.879-.44-4.558-.88-1.24-.479-3.758-3.597-4.597-3.597-.84 0-2.479 2.239-3.758 2.678-1.639.44-4.157.44-5.796 0-1.28 8.475-5.437 1.36-9.195 2.679-3.318 1.359-4.157 2.678-7.915 1.359-2.079-.92-3.718-1.36-4.997-3.118-.4 1.759-.4 3.118-.84 4.437 1.68 1.8 11.274 6.676 5.437 10.674 3.758 3.118 9.594-4.438 14.152-1.76 0 1.32-.4 2.68-.4 3.559 1.24.88 2.478-.44 3.758-1.32 2.078-1.798 2.478-2.678 5.396-2.678 2.919-.44 5.397.88 8.315 1.32-2.078-.88-3.318-2.24-5.396-3.119-1.68-.88-5.837-.88-5.837-3.558zM18.389 6.916c-.84 1.359-1.28 2.238-2.119 3.558 2.119-1.32 3.758-.44 5.837.44-.4-.88-.4-1.76-.8-2.2z" fill="#dd788a" fill-rule="evenodd"/><path d="M41.535 47.012c3.758.879 12.512 2.198 15.83 0-.8-.48-2.079 0-3.318 0-1.679-.48-2.478-1.36-3.757-1.8-2.919-1.359-4.558.44-7.476.88zm41.335-5.477c2.518-.4 6.676-1.72 8.315-4.358-1.64-.879-3.718-1.319-5.397-.879.44.44.84.44 1.24.88-.8 1.319-2.08 2.198-2.48 3.517zM69.558 23.826c-2.519.879-3.758 2.238-2.519 5.396.84 2.239 2.519 2.679 4.158 3.558-1.24-.44-2.878.44-4.158 0-1.239-.44-.8-.88-2.078-1.799-1.64-1.319-.4-1.319-2.479-1.759-1.24 0-4.157 2.239-4.597.44-.84-1.799 4.597-2.239 5.836-3.158 1.24-.88 2.08-2.678 3.318-3.118.84-.48 1.68 0 2.919-.48z" fill="#bd345f" fill-rule="evenodd"/><path d="M4.637 14.031C3.797 3.478 16.31 2.598 22.987 5.237c4.556 1.759 9.553 3.518 14.55 3.957 4.597.44 12.513 1.32 16.23 4.837-4.157-.879-4.557.44-6.636 3.518-1.679-1.759-4.157-1.759-5.836 0-4.158-2.638-4.158-6.596-9.994-7.035-2.079 0-1.679 0-3.318-.88-1.679-.44-2.918-1.319-4.197-2.199-2.08-1.319-4.997-2.638-7.476-2.198-1.24 0-3.758.88-4.597 1.759-.8 1.759.44 3.078.44 4.837-2.08 0-4.158-.44-4.997 2.198z" fill="#efc6cb" fill-rule="evenodd"/><path d="M32.9 9.234c4.198 1.8 12.952 0 15.031 5.357-1.64-1.319-5.837-2.678-6.676 0-.84-1.319-2.079-3.118-4.157-3.118z" fill="#faeced" fill-rule="evenodd"/><path clip-path="url(#a)" d="M74.915 15.91c2.518 1.76 14.191 4.877 10.433 9.754-2.518 3.119-9.594-.879-13.352.48-9.994 4.877 10.434 7.556 13.352 7.995 2.919 0 10.394 0 9.155 4.877-.84 4.438-8.755 3.998-11.673 5.357-7.076 3.998-11.633 6.196-19.988 6.196-10.394 0-24.585-.44-33.3-6.196-6.276-3.997-10.434-11.113-16.27-15.59C8.275 24.785.76 19.468 1.599 11.433c.84-4.877 5.437-9.314 9.594-9.754 5.397-.92 13.752.88 18.749 2.638 7.076 2.679 11.673 3.558 19.148 4.038 7.516.44 18.749 3.078 25.825 7.555" fill="none" stroke="#000" stroke-width=".8" stroke-linecap="round" stroke-linejoin="round"/><path d="M21.227 27.783c3.758-2.238 6.236 2.239 8.715 4.477m-1.999-2.718c0-1.32.8-3.078 1.999-3.997m13.831 14.711c2.919 0 6.277-1.36 9.195-.44 2.079.88 2.878 3.558 4.957 4.437" fill="none" stroke="#b4004d" stroke-width=".8" stroke-linecap="round" stroke-linejoin="round"/><path d="M52.408 39.856c1.68-.92 3.758-1.839 5.837-2.319m9.994 1.919c3.358 2.079 7.915.84 10.793-.88m-4.477 2.159c0 1.36.4 2.239.8 3.118M35.379 16.27c3.318 1.799 5.356 4.038 6.156 7.596m-.32-2.639c.84-.48 2.119-.96 3.358-.96m13.352-.879c2.878 1.36 5.756.92 8.635-.48" fill="none" stroke="#b4004d" stroke-width=".8" stroke-linecap="round" stroke-linejoin="round"/><path d="M62.882 20.268c0 .88 0 1.759-.48 2.638m-51.169-8.315c2.079-2.318 4.957-2.318 7.835-2.318m-4.557 0c-.4-1.28-.4-2.16.4-3.039" fill="none" stroke="#b4004d" stroke-width=".8" stroke-linecap="round" stroke-linejoin="round"/><path d="M36.298 18.949c.84-.84 1.679-1.28 2.478-2.16m19.988 4.478c.8-.92 1.6-2.279 2-3.678m7.994 23.986c1.68-1.28 1.68-3.478 2.479-4.797m-25.825 4.477v-3.998m12.553 2.159c-.84-1.32-1.24-2.199-1.68-3.518M27.983 25.265c.4 1.759 1.999 2.638 3.598 3.038m-9.115-.4c0-.88-.32-1.759-.32-2.638m-9.993-12.952c.44.879.84 1.758 1.679 2.638" fill="none" stroke="#e498a3" stroke-width="1.679" stroke-miterlimit="8"/></svg>