<svg xmlns="http://www.w3.org/2000/svg" version="1.0" viewBox="0 0 118.564 544.063"><defs><clipPath clipPathUnits="userSpaceOnUse" id="a"><path d="M-.16-.16h118.408v544.47H-.16z"/></clipPath></defs><path clip-path="url(#a)" d="M9.035.76S.76 50.97 13.432 72.036c1.16 1.92-.36 42.734 4.037 64.161 4.438 21.667 7.516 64.761 5.597 80.272-2.119 15.71-2.878 34.1 0 44.853 2.678 10.713 12.273 37.537 9.954 47.091-2.479 9.594-9.194 59.604-7.276 67.999 2.12 8.275 6.916 27.023 6.516 41.015-.36 13.992-.76 46.732-5.156 51.529-4.438 4.797-5.197 13.592-4.038 19.148 1.12 5.757 2.678 22.786 2.279 26.824-.36 4.037-4.038 28.143 15.75 28.143s18.629-20.268 23.226-27.583c4.797-7.276 7.875-16.47 5.197-20.308-2.479-3.638-1.919-5.157-2.119-6.316-.2-1.12 0-2.679-2.119-2.879-1.918 0-4.797-1.319-4.797-1.319s6.157-46.172 12.313-59.204c6.116-13.032 21.867-51.329 16.87-109.933-.96-10.754-2.679-32.98-1.52-41.015 1.16-8.036.4-31.022-.759-36.019-1.16-4.957-3.838-30.261 1.919-42.894 5.756-12.632 8.835-26.064 12.672-45.972 3.838-19.948 20.708-92.703 13.032-148.67L9.035.76z" fill="#fef3ed" fill-rule="evenodd"/><path clip-path="url(#a)" d="M29.942 526.401c.36-3.998 6.716-26.024 5.357-31.58-1.16-5.558-4.398-24.906 0-29.903 4.437-4.797 4.037-35.818 4.437-49.81.4-13.991 4.237-30.461 2.119-38.696-1.92-8.435 4.797-58.405 7.315-67.999 2.279-9.554-7.315-36.378-10.034-47.131-2.878-10.714-2.078-29.103 0-44.813 1.96-15.51-1.119-58.605-5.556-80.272-4.438-21.427-14.032-57.085-14.991-59.164C.279 27.023 24.905 1.56 25.105.96L8.955.76S.68 50.97 13.392 72.037c1.16 1.92-.4 42.734 4.037 64.161 4.398 21.667 7.476 64.761 5.557 80.272-2.119 15.71-2.878 34.1 0 44.813 2.718 10.753 12.313 37.577 10.034 47.131-2.518 9.594-9.234 59.564-7.316 67.999 2.12 8.235 6.916 27.023 6.516 41.015-.36 13.952-.76 46.732-5.196 51.529-4.398 4.757-5.197 13.592-4.038 19.148 1.16 5.757 2.718 22.786 2.319 26.824-.4 3.998-4.038 28.143 15.79 28.143 3.438 0 6.156-.56 8.435-1.52-17.51 3.039-19.988-11.712-19.588-15.15z" fill="#fce2d7" fill-rule="evenodd"/><path clip-path="url(#a)" d="M9.035.76S.76 50.97 13.432 72.036c1.16 1.92-.36 42.734 4.037 64.161 4.438 21.667 7.516 64.761 5.597 80.272-2.119 15.71-2.878 34.1 0 44.853 2.678 10.713 12.273 37.537 9.954 47.091-2.479 9.594-9.194 59.604-7.276 67.999 2.12 8.275 6.916 27.023 6.516 41.015-.36 13.992-.76 46.732-5.156 51.529-4.438 4.797-5.197 13.592-4.038 19.148 1.12 5.757 2.678 22.786 2.279 26.824-.36 4.037-4.038 28.143 15.75 28.143s18.629-20.268 23.226-27.583c4.797-7.276 7.875-16.47 5.197-20.308-2.479-3.638-1.919-5.157-2.119-6.316-.2-1.12 0-2.679-2.119-2.879-1.918 0-4.797-1.319-4.797-1.319s6.157-46.172 12.313-59.204c6.116-13.032 21.867-51.329 16.87-109.933-.96-10.754-2.679-32.98-1.52-41.015 1.16-8.036.4-31.022-.759-36.019-1.16-4.957-3.838-30.261 1.919-42.894 5.756-12.632 8.835-26.064 12.672-45.972 3.838-19.948 20.708-92.703 13.032-148.67" fill="none" stroke="#343434" stroke-width=".8" stroke-linecap="round" stroke-linejoin="round"/><path d="M13.792 72.556s2.518 4.477 7.515 5.996m9.434 1.559s28.463 6.117 47.651-10.753M51.089 242.453c-1.16 5.197-.76 10.594-.56 15.99.2 3.838-.4 10.554 1.72 13.992m25.304-41.815c.2 2.719-.6 5.597-.8 8.275-.2 3.638.2 7.276.8 10.754.76 4.997 1.56 9.994 2.518 14.95M60.523 484.466c.76 2.12.2 4.598 0 6.716 0 1.72.76 3.998.2 5.717-1.16 4.197-4.637 6.516-4.237 11.473-.4.56-.2-.2-.4-.36M34.38 468.636c.199 8.835 1.718 17.47 1.158 26.464-.2 3.438-.6 6.716-1.159 10.154-.4 2.518-.4 7.875-1.959 9.194" fill="none" stroke="#343434" stroke-width=".8" stroke-linecap="round" stroke-linejoin="round"/><path d="M17.43 77.193s8.075 6.716 36.337 4.238c0 0-31.14 3.637-25.344 31.9 0 0-12.153-30.94-10.994-36.138zm22.506 190.765c2.518.8 4.037 7.875 6.916 9.794 3.877 2.118 7.315-1.72 7.875-5.157-.76 8.235-1.32 16.67-2.679 24.905-.76 5.356-2.278 12.632-5.196 17.23-.36-6.677.6-14.752-2.08-21.068zm38.616 125.643s-10.593 6.357-15.83-2.918c0 0 3.478 15.031 15.83 2.918z" fill="#fce2d7" fill-rule="evenodd"/><path clip-path="url(#a)" d="M113.371 4.917s10.194 65-22.506 180.61c0 0 21.547-74.954 22.506-180.61z" fill="#fff" fill-rule="evenodd"/><path d="M27.463 77.753s30.182 8.635 51.09-10.554c0 0-16.11 14.591-51.09 10.554zm60.084 243.292s5.157 57.406-7.276 68.519c-12.592 11.273-16.83-6.316-16.83-6.316s8.635 16.27 15.511 2.118c6.876-14.151 10.314-49.17 8.595-64.32zM59.284 480.429c.96 2.678-.4 6.316-.2 9.194.2 2.079 1.32 4.398.36 6.316-1.719 3.438-6.716 8.995-3.998 13.552-1.759-1.719-1.759-5.716-1.159-8.035.76-2.478 2.479-4.197 3.638-6.316.96-2.479 0-4.557.2-7.076 0-2.678.96-5.357 1.319-8.235zm4.877 7.076c1.959.8 1.959 0 2.159 2.318 0 1.52-.2 2.479.56 3.838 1.559 2.478 2.718 3.638 2.358 6.716-.4 3.438-2.159 6.876-3.718 9.954-.96 1.919-2.158 3.637-3.118 5.556-.96 2.12-1.16 4.797-2.159 6.876.4-4.757 1.76-9.194 3.518-13.791 1.36-3.438 3.518-7.076 3.318-10.914 0-2.678-2.158-2.278-1.759-5.157.2-1.359 1.16-4.597-.4-5.197z" fill="#fff" fill-rule="evenodd"/><path d="M69.478 250.088s-1.12 7.436-6.476 16.83c-3.478 5.957-7.116 9.195-9.035 17.63-4.757-5.157-21.826-23.386-24.505-36.378 0 0-3.038-1.56-3.838 1.918 0 0 2.879 10.314 14.592 25.825.16 3.278.56 10.354 1.119 17.07.76 8.794.4 27.183-2.678 39.815-3.039 12.633-4.198 47.092 2.318 73.516 6.516 26.424-2.678 54.767-1.919 84.628-.76-29.861 11.473-58.204 4.957-84.628-1.519-6.516-2.678-13.592-3.438-20.668 1.52 2.879 4.038 6.316 6.516 8.595 4.997 4.437 8.235 7.276 10.354 11.113-.2 2.679-.4 5.357-.76 8.035-4.037 41.375-7.675 65.121-8.634 88.267.96-23.146 7.835-44.413 11.873-85.748 4.197-41.375-2.679-80.231-3.838-107.415-.96-27.383 5.197-29.102 10.554-38.697 4.757-8.235 7.075-15.11 7.435-16.47v-.36c-1.32-4.437-4.597-2.878-4.597-2.878zm-11.873 149.55c-2.079-3.478-5.517-5.557-10.314-9.794-3.637-3.238-6.116-8.435-7.475-12.433-1.36-18.588 0-36.378 1.919-44.613 3.078-12.632 3.438-31.02 2.678-39.816-.56-5.556-.56-9.954-.76-12.472 2.679 3.438 5.917 7.076 9.395 10.714-.4 4.037-.4 8.834-.2 14.75.96 24.346 6.516 57.446 4.757 93.664z" fill="#71a9cf" fill-rule="evenodd"/><path d="M69.478 250.048s-1.12 7.476-6.476 16.87c-3.478 5.917-7.116 9.195-9.035 17.63-4.757-5.197-21.826-23.386-24.505-36.418m-3.838 1.918s2.879 10.354 14.592 25.865c.16 3.238.56 10.354 1.119 17.03.76 8.834.4 27.223-2.678 39.855-3.039 12.633-4.198 47.092 2.318 73.516 6.516 26.424-2.678 54.767-1.919 84.628-.76-29.861 11.473-58.204 4.957-84.628-1.519-6.516-2.678-13.592-3.438-20.668 1.52 2.879 4.038 6.316 6.516 8.595 4.997 4.397 8.235 7.276 10.354 11.113-.2 2.679-.4 5.357-.76 8.035-4.037 41.375-7.675 65.121-8.634 88.267.96-23.146 7.835-44.413 11.873-85.748 4.197-41.375-2.679-80.231-3.838-107.455-.96-27.383 5.197-29.102 10.554-38.657 4.757-8.235 7.075-15.15 7.435-16.47v-.4m-16.47 146.672c-2.079-3.438-5.517-5.557-10.314-9.754-3.637-3.238-6.116-8.435-7.475-12.433-1.36-18.588 0-36.378 1.919-44.613 3.078-12.632 3.438-31.02 2.678-39.856-.56-5.556-.56-9.954-.76-12.432 2.679 3.438 5.917 7.076 9.395 10.714-.4 4.037-.4 8.834-.2 14.75.96 24.306 6.516 57.446 4.757 93.624z" fill="none" stroke="#343434" stroke-width=".48" stroke-linecap="round" stroke-linejoin="round"/></svg>