<svg xmlns="http://www.w3.org/2000/svg" version="1.0" viewBox="0 0 188.145 555.402"><defs><clipPath clipPathUnits="userSpaceOnUse" id="a"><path d="M-.32 0h187.886v555.823H-.32z"/></clipPath></defs><path d="M10.733 442.092c2.32-.72 6.257 3.518 8.895 9.135 2.639 5.616 2.958 10.893.66 11.593-1.98.7-5.917-3.518-8.555-9.135-2.639-5.976-2.978-10.893-1-11.593z" fill="#cde0f2" fill-rule="evenodd"/><path d="M12.093 445.41c1.339-.36 3.677 2.439 5.356 6.256 2 4.178 2.659 7.656 1.66 7.995-1 .34-3.339-2.438-5.357-6.596-2-3.837-2.679-7.315-1.66-7.655z" fill="#0082c8" fill-rule="evenodd"/><path d="M17.47 451.646c-1.32-2.798-2.659-4.897-3.998-5.956 0 1.419.68 4.217 1.999 7.016 1.339 2.798 2.998 4.897 4.317 5.936 0-1.4-.98-3.838-2.319-6.996z" fill="#006399" fill-rule="evenodd"/><path d="M151.028 451.606c-1.319-1.759 0-7.375 3.298-12.652 3.278-5.277 7.216-8.455 8.875-6.696 1.3 1.759 0 7.396-3.298 12.672-3.278 5.277-7.236 8.435-8.875 6.676z" fill="#cde0f2" fill-rule="evenodd"/><path d="M153.027 448.828c-1-.7.32-4.597 2.619-8.115 2.278-3.898 4.917-6.376 5.556-5.657.98.7-.32 4.598-2.618 8.115-2.279 3.898-4.917 6.357-5.557 5.657z" fill="#0082c8" fill-rule="evenodd"/><path d="M155.626 440.773c-1.64 2.438-2.619 5.217-2.959 6.596 1.32-.68 2.959-2.419 4.578-5.197 1.639-2.778 2.618-5.217 2.938-6.956-1.3.7-2.938 2.779-4.557 5.557z" fill="#006399" fill-rule="evenodd"/><path d="M150.389 543.95c-1-1.039-.32-4.917 1.959-8.794 2.318-3.558 5.236-5.677 6.236-4.598.96 1.04 0 5.277-2.279 8.795-1.999 3.878-4.917 5.637-5.916 4.597z" fill="#cde0f2" fill-rule="evenodd"/><path d="M151.668 542.111c-.68-.72 0-3.158 1.64-5.956 1.638-2.438 3.277-4.197 3.917-3.478.64.36-.32 2.798-1.64 5.597-1.638 2.438-3.597 4.157-3.917 3.837z" fill="#0082c8" fill-rule="evenodd"/><path d="M153.307 536.195c-.96 2.119-1.599 3.918-1.919 4.957.96-.32 1.92-1.759 3.198-3.918a24.983 24.983 0 0 0 1.92-4.637c-.96.36-1.92 1.8-3.199 3.598z" fill="#006399" fill-rule="evenodd"/><path d="M16.75 34.979c0-2.459 2.638-4.238 5.916-4.238 0 0 4.597.72 10.154.72 5.257 0 10.174-.72 10.174-.72 3.278 0 5.896 1.78 5.896 4.238 0 2.119-5.556 5.277-16.07 5.277-10.154 0-16.07-3.158-16.07-5.277z" fill="#f4f3f4" fill-rule="evenodd"/><path d="M52.648 95.062C46.732 61.023 49.03 57.525 49.03 35.42c-1 2.098-6.596 4.917-16.15 4.917-9.874 0-15.47-3.159-15.81-5.277 0 22.466 1.978 25.964-3.938 60.003C7.196 129.442.6 148.39.6 183.83c0 35.778 6.596 54.726 12.532 89.106 5.916 34.039 3.938 44.573 3.938 67.379 0 2.098 5.616 5.596 15.81 5.596 10.554 0 16.15-3.498 16.15-5.596 0-22.806-2.298-33.34 3.618-67.38 5.936-34.379 19.428-53.327 19.428-89.105 0-35.439-13.492-54.387-19.428-88.767z" fill="#eaaf92" fill-rule="evenodd"/><path d="M43.134 124.205c.32 8.075-2.359 64.88-5.377 103.457-2.698 38.916-1.02 59.244-1.02 59.244 1.36-13.672 5.377-94.663 5.717-113.591zm8.835 16.79c.66 15.81.34 49.89-1.62 74.834-1.639 24.945-4.257 55.487-4.257 55.487l8.155-75.874zm-28.343-40.296c-.98 7.016-9.834 72.616-1.96 162.062-.979-17.53 0-156.086 1.96-162.062z" fill="#dd9879" fill-rule="evenodd"/><path d="M18.629 94.703c-2.639 7.735-11.873 72.316-10.214 100.059 1.979 27.723 9.894 78.992 10.873 92.324.98 13.332-7.255-75.114-6.256-109.534z" fill="#dd9879" fill-rule="evenodd"/><path d="M54.247 104.217c-.32-2.818-.98-5.977-1.639-9.135-5.916-34.039-3.618-37.557-3.618-59.663-.98 2.098-6.576 4.917-16.13 4.917-9.874 0-15.47-3.159-15.81-5.277 0 22.466 1.978 25.984-3.938 60.023-.34 1.76-.66 3.858-1 5.617 2.32-4.557 2.979-9.474 5.937-13.332.66 1.4 1.32 3.158 1.979 4.917.32-1.4.66-2.818 1.639-3.858.66.7.98 2.1 1.32 3.158.319-.7.659-3.877 1.978-3.877 1.979 0 1.639 3.877 1.639 4.917.66-2.798 1.32-5.957 2.958-8.415 1 1.4.66 3.158 1.32 4.917.659-2.459 1.978-4.217 2.957-1.42 1.32 3.519 1 .72 3.638.36.64 1.4.98 3.518 1.96 4.918.339-1.76-.32-4.218.998-5.617 1.32 3.158 1.32 6.316 3.279 8.775.34-1.4.34-3.158 1.659-3.858 1.639 1.759.32 5.257 1.978 7.376 0-.72.66-2.459 1.96-2.12 1.978.36.999 6.317 2.638 7.376 1.319.34.999-.7 2.298-.7zM48.97 340.314c0-15.77-.98-29.442.32-43.814-.32.34-.64.7-.98 1.04-.32-.7-.659-1.04-.979-1.76-1.639 2.12-2.958 4.918-4.277 7.716 0-1.4-.98-2.438-.98-3.858-.34 2.819-.999 5.617-3.298 6.676-.32-.7-1.639-1.759-2.298-2.458-.66 4.197-4.937 4.557-5.257 0-.34 1.399-1.639 2.458-2.299 4.197-2.318-1.399-2.638-5.596-2.958-8.415-.34 1.76-1.319 3.858-2.958 4.558a41.564 41.564 0 0 1-2.638-5.597c-.32 2.099-.66 4.197-2.639 5.956 0-.7-.32-1.059-.66-1.399.66 10.154 0 23.826 0 37.158 0 2.098 5.597 5.596 15.791 5.596 10.514 0 16.11-3.498 16.11-5.596z" fill="#f1ecec" fill-rule="evenodd"/><path d="M10.554 206.295c-.34 25.944 8.914 75.394 9.234 86.607-1.32-11.572-6.936-31.9-10.893-74.694-3.978-42.415 3.637-101.339 8.255-117.829-1.64 12.293-6.936 72.596-6.596 105.916z" fill="#c68d72" fill-rule="evenodd"/><path d="M20.727 41.775c.94 11.253 1.54 30.901-.62 42.134zm.3 266.638c.6 9.135.3 23.146-.92 30.861z" fill="#c0b6ba" fill-rule="evenodd"/><path d="M22.906 96.062c-2.578 12.292-7.435 82.89-4.517 129.601zm5.996 201.878c-7.595-153.348-1.639-159.664-.66-183.89 0 9.495-2.638 150.57.66 183.89zm6.277-202.198c0 11.233 1.879 114.37-1.88 134.718zm6.596 18.628c3.677 25.285 1.679 133.08-5.357 182.93 1.34-15.79 8.715-150.609 5.357-182.93zm5.616-10.153c4.298 21.407 10.214 61.043 7.596 96.461-2.319 35.419-9.894 81.011-10.894 92.224 1.98-22.786 8.915-84.169 9.574-96.081.66-11.933-.999-66.64-6.276-92.604z" fill="#c68d72" fill-rule="evenodd"/><path d="M28.623 311.291c.999 6.996 0 27.584-.68 31.421zm7.115-1.039c-.68 7.356-.68 31.5-.68 31.5 1.68-9.793.34-29.042.68-31.5zm6.676-2.159c-.66 8.415-1.998 26.264-1 31.501zm-17.829.64c.32 7.375 0 15.45-.32 20.707zm7.675 3.197c.32 5.618 0 19.649-.32 23.507zM26.264 47.771c0 8.075-.66 25.964-1.679 33.66zm10.154-2.478c0 10.873 2.638 20.687 0 39.256zm4.637 14.95c1.999 8.815 1.999 21.867 1.999 27.504zm3.998-7.675c.96 10.214 1.279 28.143 3.518 41.495-1.92-6.676-2.879-21.087-3.518-29.182zM30.901 50.89c.34 9.793 1.36 20.287.34 29.022z" fill="#c0b6ba" fill-rule="evenodd"/><path d="M28.643 148.35c0 8.795.66 38.697-1.02 57.325zm8.135 10.474c1.639 9.854.66 37.997-.68 47.491zM16.75 145.232c-.98 8.075-4.637 34.02-2.319 46.292zm5.556 37.977c1.64 8.755 0 25.544-.999 29.742zM32.26 49.77c1.56 9.814 2.799 19.628 1.26 26.624zm-4.677 12.312c1 8.755.34 16.09-.68 20.628zm9.475 248.17c2.718 5.237 1.359 25.844 1.019 28.623zm8.394-.48c-.66 4.917-1.679 20.708-1.339 26.304z" fill="#fff" fill-rule="evenodd"/><path d="M52.648 95.062C46.732 61.023 49.03 57.525 49.03 35.42c-1 2.098-6.596 4.917-16.15 4.917-9.874 0-15.47-3.159-15.81-5.277 0 22.466 1.978 25.964-3.938 60.003C7.196 129.442.6 148.39.6 183.83c0 35.778 6.596 54.726 12.532 89.106 5.916 34.039 3.938 44.573 3.938 67.379 0 2.098 5.616 5.596 15.81 5.596 10.554 0 16.15-3.498 16.15-5.596 0-22.806-2.298-33.34 3.618-67.38 5.936-34.379 19.428-53.327 19.428-89.105 0-35.439-13.492-54.387-19.428-88.767" fill="none" stroke="#000" stroke-width=".64" stroke-linecap="round" stroke-linejoin="round"/><path d="M16.75 34.979c0-2.459 2.638-4.238 5.916-4.238 0 0 4.597.72 10.154.72 5.257 0 10.174-.72 10.174-.72 3.278 0 5.896 1.78 5.896 4.238 0 0 0 0 0 0 0 2.119-5.556 5.277-16.07 5.277-10.154 0-16.07-3.158-16.07-5.277" fill="none" stroke="#000" stroke-width=".64" stroke-linecap="round" stroke-linejoin="round"/><path d="M170.337 34.979c0-2.459-2.619-4.238-5.897-4.238 0 0-4.257.72-9.834.72-5.257 0-10.174-.72-10.174-.72-3.278 0-5.916 1.78-5.916 4.238 0 2.119 5.577 5.277 15.75 5.277 10.494 0 16.07-3.158 16.07-5.277z" fill="#f4f3f4" fill-rule="evenodd"/><path d="M134.459 95.062c5.916-34.039 3.937-37.537 3.937-59.643.66 2.098 6.276 4.917 15.83 4.917 10.194 0 15.81-3.159 16.13-5.277 0 22.466-1.978 25.964 3.958 60.003 5.917 34.38 12.173 53.328 12.173 88.767 0 35.778-6.256 54.726-12.173 89.106-5.936 34.039-3.957 44.573-3.957 67.379 0 2.098-5.597 5.596-16.13 5.596-10.214 0-15.83-3.498-15.83-5.596 0-22.806.999-29.482-4.938-63.862-5.916-34.039-18.449-56.845-18.449-92.623 0-35.439 13.512-54.387 19.449-88.767z" fill="#eaaf92" fill-rule="evenodd"/><path d="M167.059 123.245c.32 8.075-1.96 64.881-4.897 103.458-2.939 38.916-.98 59.244-.98 59.244 1.32-13.672 5.237-94.663 5.557-113.591zm7.975 18.149c.68 15.81.34 49.85-1.32 74.775a18696.693 18696.693 0 0 0-4.337 55.466l8.315-75.814zm-28.363-40.375c-.98 7.036-9.834 72.656-1.639 162.142-.98-17.89 0-156.166 1.64-162.142z" fill="#dd9879" fill-rule="evenodd"/><path d="M133.24 104.217c.339-2.818.999-5.977 1.318-9.135 5.937-34.039 3.958-37.557 3.958-59.663.66 2.098 6.256 4.917 15.79 4.917 10.214 0 15.81-3.159 16.13-5.277 0 22.466-1.958 25.984 3.958 60.023.34 1.76.66 3.858.98 5.617-2.299-4.557-2.958-9.474-5.917-13.332-.98 1.4-1.319 3.158-1.978 4.917-.32-1.4-.66-2.818-1.64-3.858-.66.7-.999 2.1-1.319 3.158-.32-.7-.66-3.877-1.979-3.877-1.978 0-1.639 3.877-1.639 4.917-.66-2.798-1.319-5.957-2.958-8.415-1 1.4-1 3.158-1.319 4.917-.66-2.459-1.979-4.217-3.298-1.42-1.32 3.519-.98.72-3.298.36-.98 1.4-.98 3.518-1.959 4.918-.34-1.76.32-4.218-1-5.617-1.318 3.158-1.318 6.316-3.297 8.775-.32-1.4-.32-3.158-1.959-3.858-1.32 1.759-.34 5.257-1.659 7.376 0-.72-.98-2.459-1.979-2.12-1.959.36-.98 6.317-2.618 7.376-1.32.34-1-.7-2.319-.7z" fill="#f1ecec" fill-rule="evenodd"/><path d="M136.857 97.58c.66 1.76-.34 3.519 0 5.278.32-.72.66-1.42 1.32-1.76.32.7 0 1.76.32 2.799.319-1.04 1.638-3.158 2.957-3.518 1.64-.34 1.64 1.76 1.96 2.818.339-2.098 1.638-4.577 2.957-6.336.32.72.32 1.42.66 2.119.66-1.4.98-3.158 1.959-4.217 1 1.059 1.639 2.458 1.639 3.517.34-1.059.66-4.217 2.638-4.577 1.959 0 2.619 4.917 2.958 5.977-.34-1.06.98-4.218 2.619-4.917 1.639-.36 1.639 1.759 1.959 3.158 0-2.819 3.617-7.736 3.617-2.819-1.319-4.557 4.278-.7 5.577 1.06-3.278-1.76.98-7.736.98-10.554-5.237 0-9.175-4.577-14.752-3.158-3.617 1.06-8.874 1.759-11.493 3.858-1.639 1.419-1.979 3.178-3.937 4.237z" fill="#f1ecec" fill-rule="evenodd"/><path d="M137.477 96.182c1.659 1.399 2.958-1.38 3.957-2.439-.66 4.198 2.299 3.498 3.298 0-.34 1.4-.34 4.877 1.98 4.537.319 1.04.319 2.1.659 3.139.32 1.399 1.299 2.778 1.299 4.177 0 2.439-2.299 1.739-4.597 1.739-2.319 0-4.618 1.04-6.916 1.04-2.319 0-2.978-1.74-4.957-2.779z" fill="#eaaf92" fill-rule="evenodd"/><path d="M137.117 122.046c-3.298 23.186-6.596 55.486-5.277 73.036 1.66 27.723 9.574 78.992 10.554 92.324 1.319 13.332-6.916-75.135-5.937-109.534z" fill="#dd9879" fill-rule="evenodd"/><path d="M138.556 340.314c0-15.77 0-28.743-1.32-43.114 0 .34 1.64 0 1.98.34 0-.7.66-1.04.979-1.76 1.639 2.12 2.958 4.918 4.257 7.716 0-1.4.66-2.438.98-3.858.34 2.819.66 5.617 3.278 6.676.34-.7 1.639-1.759 1.979-2.458.64 4.197 4.917 4.557 5.237 0 .66 1.399 1.958 2.458 2.298 4.197 2.299-1.399 2.938-5.596 3.278-8.415.32 1.76 1.3 3.858 2.938 4.558 1-1.74 1.64-3.858 2.299-5.597.34 2.099.98 4.197 2.618 5.956.34-.7.66-1.059.98-1.399-.64 10.154 0 23.826 0 37.158 0 2.098-5.557 5.596-16.05 5.596-10.154 0-15.731-3.498-15.731-5.596z" fill="#f1ecec" fill-rule="evenodd"/><path d="M135.798 126.983c-1.96 23.866-2.299 57.545-2.299 79.652-.32 25.964 8.855 75.454 9.494 86.667-1.619-11.573-6.875-31.92-10.793-74.734-2.639-29.483 0-67.02 3.598-92.644 1.639-11.234.98-11.234 0 1.059z" fill="#c68d72" fill-rule="evenodd"/><path d="M166.779 41.775c-1.24 11.253-1.56 30.901.6 42.134zm-.619 266.638c-.62 9.135-.3 23.146 1.219 30.861z" fill="#c0b6ba" fill-rule="evenodd"/><path d="M146.031 96.382c-2.278 12.292-7.195 82.89-4.577 129.601zm6.317 201.878c-7.676-153.348-2-159.664-.66-183.89 0 9.495-2.658 150.57.66 183.89zm5.836-202.198c0 11.233 2.319 114.37-1.679 134.718zm8.256 99.4c.979-34.42 0-66.72-1.32-80.772 1.639 12.653 4.257 43.554 3.618 79.352-1 36.518-5.577 78.313-8.875 103.578.66-8.775 4.937-57.226 6.576-102.158zm4.037-90.925c4.217 21.407 11.693 57.545 9.434 92.983-2.598 35.799-11.373 84.569-12.692 95.782 2.278-22.806 9.754-84.549 10.413-96.481.64-11.933-1.958-66.32-7.155-92.284z" fill="#c68d72" fill-rule="evenodd"/><path d="M157.185 310.892c-1 7.015 0 27.663 1 31.5zm-9.495 0c.66 7.355.66 31.5.66 31.5-1.679-10.133-.32-29.042-.66-31.5zm-4.297-2.799c.68 8.415 2.319 26.264 1 31.501zm19.488.64c-.7 7.375 0 15.45.34 20.707zm-9.254 3.517c-.24 5.637 0 19.329.24 23.187zm7.595-264.479c0 8.075.32 25.964 1.6 33.66zm-10.234-2.478c0 10.873-2.638 20.687 0 39.256zm-4.637 14.95c-1.998 8.815-1.998 21.867-1.998 27.504zm-3.997-7.675c-1.28 10.214-1.6 28.143-3.518 41.495 1.599-6.676 2.878-21.087 3.518-29.182zm14.151-1.678c-.32 9.793-1.28 20.287-.32 29.022z" fill="#c0b6ba" fill-rule="evenodd"/><path d="M155.226 49.77c-1.919 9.814-2.878 19.628-1.6 26.624zm4.617 12.312c-1.02 8.755-.34 16.09.66 20.628zm-9.494 248.17c-2.639 5.237-1.64 25.844-1.32 28.623zm-5.677-.8c.68 4.917 2 20.708 1.68 26.305z" fill="#fff" fill-rule="evenodd"/><path d="M134.459 95.062c5.916-34.039 3.937-37.537 3.937-59.643.66 2.098 6.276 4.917 15.83 4.917 10.194 0 15.81-3.159 16.13-5.277 0 22.466-1.978 25.964 3.958 60.003 5.917 34.38 12.173 53.328 12.173 88.767 0 35.778-6.256 54.726-12.173 89.106-5.936 34.039-3.957 44.573-3.957 67.379 0 2.098-5.597 5.596-16.13 5.596-10.214 0-15.83-3.498-15.83-5.596 0-22.806.999-29.482-4.938-63.862-5.916-34.039-18.449-56.845-18.449-92.623 0-35.439 13.512-54.387 19.449-88.767" fill="none" stroke="#000" stroke-width=".64" stroke-linecap="round" stroke-linejoin="round"/><path d="M170.337 34.979c0-2.459-2.619-4.238-5.897-4.238 0 0-4.257.72-9.834.72-5.257 0-10.174-.72-10.174-.72-3.278 0-5.916 1.78-5.916 4.238 0 0 0 0 0 0 0 2.119 5.577 5.277 15.75 5.277 10.494 0 16.07-3.158 16.07-5.277" fill="none" stroke="#000" stroke-width=".64" stroke-linecap="round" stroke-linejoin="round"/><path d="M139.555 296.1c1.98 3.159 2.619 7.376 3.938 10.534 0-1.06.64-2.119 1.639-1.759.98.34 1.3 2.459 1.62 3.158.659-3.158 3.277 1.04 3.937 1.74.32-1.04.64-3.838 1.958-4.198 1.3 0 2.28 2.099 3.259 2.798.979 1.06.66 1.06 1.639.7.979 0 1.299-1.04 2.618-1.04.98 0 1.639.7 2.618 1.04-.34-2.099.32-3.138 1.96-4.558.659-.34.979 0 1.638-.34.32-.699.32-2.098.32-3.157.66-1.4 2.279-3.159 0-3.858-2.299-.7-5.876.36-8.175.36-2.938.34-6.856.7-9.155-1.06z" fill="#eaaf92" fill-rule="evenodd"/><path d="M138.196 132.52c-1.999 7.375-3.678 30.201-1.659 48.45zm7.156 14.47c1.639 5.618.98 37.198-.68 43.495zm6.356-6.635c1.28 6.656.64 30.481 0 35.019zm8.515 16.87c1.639 7.015.32 35.398-.68 40.295z" fill="#fff" fill-rule="evenodd"/><path d="M136.197 107.015c-6.256 14.052-15.19 59.664-14.19 81.071.998 21.387 9.573 60.683 9.573 60.683-2.638-14.371-7.255-61.403-5.936-76.473 1.319-15.091 10.553-65.28 10.553-65.28z" fill="#dd9879" fill-rule="evenodd"/><path d="M128.842 132.2c-4.577 10.194-12.473 52.028-2.619 89.626-1.639-15.111-6.556-56.226 2.619-89.626z" fill="#c68d72" fill-rule="evenodd"/><path d="M127.243 157.545c-2.559 11.553-1.919 38.516-.64 47.25zm43.154 28.462c1.619 8.075-1.94 57.845-3.578 66.6z" fill="#fff" fill-rule="evenodd"/><path d="M58.225 136.517c4.937 23.146 11.533 41.035-1.34 103.777 0 0 9.255-71.856 1.34-103.777z" fill="#dd9879" fill-rule="evenodd"/><path d="M61.723 154.027c3.677 12.652 8.674 20.367-.68 59.324 2.339-7.716 6.696-38.257.68-59.324z" fill="#c68d72" fill-rule="evenodd"/><path d="M44.433 161.702c1.66 11.953.34 55.127-2.019 71.956zm12.812 20.788c1 8.774-1 29.821-2.678 39.975z" fill="#fff" fill-rule="evenodd"/><path d="M10.733 442.092c2.32-.72 6.257 3.518 8.895 9.135 2.639 5.616 2.958 10.893.66 11.593-1.98.7-5.917-3.518-8.555-9.135-2.639-5.976-2.978-10.893-1-11.593m140.295 9.514c-1.319-1.759 0-7.375 3.298-12.652 3.278-5.277 7.216-8.455 8.875-6.696 1.3 1.759 0 7.396-3.298 12.672-3.278 5.277-7.236 8.435-8.875 6.676m-.639 92.344c-1-1.039-.32-4.917 1.959-8.794 2.318-3.558 5.236-5.677 6.236-4.598.96 1.04 0 5.277-2.279 8.795-1.999 3.878-4.917 5.637-5.916 4.597" fill="none" stroke="#000" stroke-width=".64" stroke-linecap="round" stroke-linejoin="round"/><path d="M131.6 554.744a210.845 210.845 0 0 1-1.999-7.716c-1.319-5.956-2.638-11.553-2.958-16.47-.32-1.079.68-1.758 1.32-1.399 6.915 7.356 15.47 12.273 22.066 14.711-.68-1.399.32-5.236 2.279-8.754 1.998-2.799 3.957-4.558 5.276-4.917-.32 0-.64-.36-.64-.36-6.275-1.76-23.065-9.834-26.023-24.905-.64-1.4 0-3.878 1.319-5.597 7.555-11.593 4.597-23.505 1.959-34.739l-2.279-9.474c-1-4.237-1.999-10.194-2.638-17.909-.32-1.04 1.319-1.759 1.958-.72 5.277 4.598 11.194 9.155 18.79 14.072.319.32.639.68.958.68-1.279-2.12 0-7.356 3.318-12.273 2.639-4.557 5.917-7.356 7.876-7.036-.32 0-.32-.32-.64-.32-22.706-15.79-28.303-22.106-34.579-50.21-.32-1.039-.96-6.635-.96-8.754v-11.953c-2.318 4.917-16.47 10.914-32.62 10.914-16.11 0-30.621-5.637-32.9-10.554v11.233c0 2.799-2.318 10.514-2.958 12.273-8.235 22.107-27.663 45.972-46.092 57.565h-.36c2.319-.36 5.957 3.838 8.595 9.115 1.959 4.917 2.599 9.474 1.32 10.873.32 0 .639 0 .959-.36 11.873-6.996 23.705-18.229 33.9-31.22.679-1.04 2.318 0 1.998 1.758-.68 9.834-1.999 17.55-3.278 22.826l-1.999 9.474c-2.958 11.234-5.596 23.146 1.64 34.74.359 0 .359.32.359.32h.32v.359c6.556 10.194 7.235 25.984 1.959 47.011-.64 2.839-1.32 5.277-1.96 7.716z" fill="#9cc7e7" fill-rule="evenodd"/><path d="M131.6 554.744a210.845 210.845 0 0 1-1.999-7.716c-1.319-5.956-2.638-11.553-2.958-16.47-.32-1.079.68-1.758 1.32-1.399 6.915 7.356 15.47 12.273 22.066 14.711-.68-1.399.32-5.236 2.279-8.754 1.998-2.799 3.957-4.558 5.276-4.917-.32 0-.64-.36-.64-.36-6.275-1.76-23.065-9.834-26.023-24.905-.64-1.4 0-3.878 1.319-5.597 7.555-11.593 4.597-23.505 1.959-34.739l-2.279-9.474c-1-4.237-1.999-10.194-2.638-17.909-.32-1.04 1.319-1.759 1.958-.72 5.277 4.598 11.194 9.155 18.79 14.072.319.32.639.68.958.68-1.279-2.12 0-7.356 3.318-12.273 2.639-4.557 5.917-7.356 7.876-7.036-.32 0-.32-.32-.64-.32-22.706-15.79-28.303-22.106-34.579-50.21-.32-1.039-.96-6.635-.96-8.754v-11.953c-2.318 4.917-16.47 10.914-32.62 10.914-16.11 0-30.621-5.637-32.9-10.554v11.233c0 2.799-2.318 10.514-2.958 12.273-8.235 22.107-27.663 45.972-46.092 57.565h-.36c2.319-.36 5.957 3.838 8.595 9.115 1.959 4.917 2.599 9.474 1.32 10.873.32 0 .639 0 .959-.36 11.873-6.996 23.705-18.229 33.9-31.22.679-1.04 2.318 0 1.998 1.758-.68 9.834-1.999 17.55-3.278 22.826l-1.999 9.474c-2.958 11.234-5.596 23.146 1.64 34.74.359 0 .359.32.359.32h.32v.359c6.556 10.194 7.235 25.984 1.959 47.011-.64 2.839-1.32 5.277-1.96 7.716z" fill="#b0d0eb" fill-rule="evenodd"/><path d="M124.005 368.697c.64 10.913 9.194 55.846 16.47 67.798 2.278 3.878 7.875 10.554 7.875 10.554s-16.43-14.391-19.428-14.391c-2.958 0-3.918 1.719-2.279 9.114 1.96 7.716 7.236 32.3 7.556 40.376.32 8.075-3.278 12.992-4.598 18.269-1.319 5.277.32 12.312 4.278 16.51 3.957 4.237-11.193 2.838-9.874 10.194 1.32 7.395 3.957 23.865 3.957 23.865-1.679-9.474-11.193-28.423-19.788-31.94-8.235-3.159-28.302-3.518-34.259-14.752 7.915 4.917 21.107 8.795 32.3 2.799 10.874-6.317 14.472-26.704 14.472-46.012 0-19.309-4.597-26.344-16.47-29.503-11.833-3.158-23.026 0-25.345-10.873 4.278 7.036 16.47 6.676 27.983 1.4 11.193-4.918 20.108-37.218 17.15-53.408z" fill="#6eb2dd" fill-rule="evenodd"/><path d="M126.044 360.701h-5.277c-3.958 2.819-14.172 6.676-27.703 7.016-13.852-.34-24.066-4.197-27.704-7.016 0 .36 0 0 0 0h-4.957c2.319 5.277 16.51 10.874 33 10.874 16.15 0 30.342-5.957 32.64-10.874z" fill="#d9e7f5" fill-rule="evenodd"/><path d="m129.262 271.256-1.98-10.194v.36c-3.617-13.332-12.492-47.032-12.831-78.613-.32-31.92 7.575-61.762 9.554-70.177-3.958 1.399-7.576-.7-10.214-3.858-7.236-7.715.34-29.482 6.596-40.715 1.639-3.158 5.257-.7 3.618 2.118-6.256 11.234-11.853 28.423-7.236 34.04 3.618 3.858 7.556 3.858 11.173-.36 6.576-9.474 3.958-19.288 1.32-30.521l-1.98-9.834-1.318-6.656c-1.96-10.534-3.278-17.55-3.278-35.1l-2.639-6.315-9.534-6.317-37.177-.36-9.555 12.993c0 17.55-1.319 24.565-3.298 35.099l-1.299 6.656-1.979 9.834c-2.638 11.233-5.276 21.047 1.32 30.521 3.617 4.218 7.555 4.218 11.173.36 4.617-5.617-.98-22.806-7.236-34.04-1.639-2.818 1.979-5.276 3.618-2.118 6.596 11.233 13.832 33 6.596 40.715-2.638 3.158-6.256 5.257-10.214 3.858 2.299 8.774 10.534 42.114 9.874 75.794-.66 30.182-9.874 60.703-13.152 72.996v-.36l-1.979 10.194c-2.638 11.213-5.276 21.047 1.32 30.521l.32.34c3.957 4.217 7.575 4.217 11.193.36 4.937-5.257 10.193-3.158 2.958 4.557-2.639 3.158-5.917 5.277-10.194 4.217 3.618 10.874 3.278 46.672 2.958 48.431-.34.34-.34 1.04 0 1.4 3.618 2.797 13.812 6.315 27.304 6.655 13.491-.34 23.705-4.197 27.643-7.016-.66-2.098-.66-38.596 2.958-49.47-4.277 1.06-7.555-1.059-10.194-4.217-7.235-7.715-1.639-9.814 2.958-4.557 3.618 3.857 7.236 3.857 11.194-.36l.32-.34c6.575-9.474 4.277-19.308 1.319-30.521z" fill="#008dcd" fill-rule="evenodd"/><path d="M117.389 230.52s10.493 37.597 8.535 30.922c-1.96-6.317-10.814-31.981-17.39-38.657l2.639-2.479z" fill="#006aa4" fill-rule="evenodd"/><path d="M74.235 227.742c1-4.917 2.319-13.712 6.276-7.735 3.618 4.917 8.575 8.075 14.511 7.035 5.277-.72 7.256-7.395 13.512-4.217 6.596 3.498 11.533 14.411 13.512 21.787-2.958-6.316-2.958-14.771-3.938-21.447-1.319-11.613-4.297-22.507-6.276-33.76-.66-1.759-.98-7.735-2.958-8.095-1.32 0-5.617 5.277-6.596 5.976-2.978 2.12-6.596 3.878-10.234 2.819-6.916-2.099-6.256-10.554-11.213-14.072-1.32-1.059-3.958-.7-4.277-.7zM63.761 73.276c2 3.178 2.319 9.154 2.979 12.672.66 4.577 3.298 11.633-1.32 14.431 13.852-4.217 2.979-15.47.34-24.985zm56.386 25.984c-3.618-.34-1.979-9.115-1.319-11.213 1-4.917 3.618-9.135 4.937-14.032.66-2.818 1.639-4.577-1.32-4.577-3.277 0-4.596 1.42-6.255 4.217-2.299 3.858-3.278 8.415-3.938 12.633-.34 2.098-1 4.557-.34 6.676z" fill="#006aa4" fill-rule="evenodd"/><path d="M95.702 287.786h-.66c-6.915 0-13.511 3.158-19.128 7.015.34 5.277-.32 9.834-2.958 12.273-2.639 3.158-5.937 5.277-10.234 4.217 3.298 9.475 3.298 39.976 2.978 46.992l-.66 2.458h.32s0 .34 0 0c3.638 2.799 14.192 6.656 28.043 6.996 10.874-.34 19.449-2.798 24.406-5.257-.66-4.197-9.235-5.257-15.171-7.015-9.574-2.439-19.129 1.059-22.107-5.597-1.319-2.459-1.979-5.617-1.979-9.474.66-11.573 8.255-17.19 19.469-20.328 11.213-3.158 22.406 2.099 23.405 9.454-.34-7.015.66-12.972 2.299-18.229-4.277 1.06-7.575-1.059-10.214-4.217-2.958-2.798-3.298-8.055-2.638-13.672-4.278-3.158-9.554-5.616-15.171-5.616z" fill="#0082c8" fill-rule="evenodd"/><path d="M65 359.262c5.617-8.754 3.638-27.703 5.957-35.438 2.299-7.356 16.15-3.858 24.405-4.897 8.895-1.42 16.49-3.158 23.746-6.316 7.575-3.518-12.213-12.993-12.213-12.993l-11.213-20.707-10.873 4.917-10.554 16.85-13.212 7.355 2.638 16.51z" fill="#006aa4" fill-rule="evenodd"/><path d="M87.487 360.741c-5.936-.7-10.554.7-12.532.34-6.277-.34-6.596-8.415-6.277-13.332l-2.638 7.376c0 1.399-.34 2.458-.34 3.158l-.66 2.458h.34s0 .34 0 0c3.638 2.799 14.192 6.656 28.043 6.996 6.257-.34 11.873-1.04 16.15-2.438-4.617-1.42-14.17-3.858-22.086-4.558z" fill="#006aa4" fill-rule="evenodd"/><path d="M94.063 288.045v-8.055c0-.36-.32-.36-.32-.36v8.415c0 21.727-17.43 25.225-26.304 24.186 3.298 3.158 34.52 7.695 50.93.34l-.32-.34c-9.195.34-23.986-4.218-23.986-24.186z" fill="#008dcd" fill-rule="evenodd"/><path d="M109.574 311.311c-7.916-2.458-15.171-8.794-15.491-22.526l-.34-.36c0 15.85-9.894 21.827-18.469 23.586 6.596 1.759 11.214-3.858 17.15-4.917 3.298-.36 5.617 1.06 8.575 2.458 2.638 1.06 5.616 1.42 8.575 1.76z" fill="#006aa4" fill-rule="evenodd"/><path d="M67.44 312.25c3.297 3.159 34.518 7.676 50.928.36l-.32-.36" fill="none" stroke="#000" stroke-width=".64" stroke-linecap="round" stroke-linejoin="round"/><path d="M67.719 129.042c-.32-2.799-1.959-4.917-3.938-6.676 1.32 15.11 9.535 40.735 8.875 67.419-.66 29.482-10.194 59.684-13.492 71.617v-.36l-1.959 10.194c-2.638 11.233-5.276 21.067 1.32 30.541l.32.36c.979 1.04 1.978 1.739 2.958 2.438 1.978-1.039 3.298-1.739 3.298-1.739l1.958-3.877c-3.937 0-9.854 1.06-8.215-16.49 1.64-17.91 19.069-38.277 19.069-89.886 0-45.632-9.854-56.525-10.194-63.541zm27.943-75.434c1.639 2.118 18.07 9.454 25.305 11.213 7.555 1.739-10.514.7-10.514.7l-14.151-4.898-4.258-4.897-7.895 7.336-20.068 1.759s15.47-3.858 23.026-8.755zM53.288 93.963c0 6.316 5.277 15.77 11.853 14.032 3.617-.7 6.256-3.159 6.915-7.016.98-3.858.98-11.233-.98-14.751-.339 4.577.66 10.893-3.957 12.992-5.256 2.458-11.193-1.06-13.492-6.316zm79.952 0c.32 6.316-4.918 15.77-11.794 14.032-3.278-.7-5.896-3.159-6.875-7.016-1-3.858-1-11.233 1.299-14.751.34 4.577-.98 10.893 3.937 12.992 5.237 2.458 11.134-1.06 13.432-6.316z" fill="#006aa4" fill-rule="evenodd"/><path d="M62.042 69.438c-.32-1.4.66-2.798 1.66-2.798 8.894-.72 27.363-.72 28.682-12.673h-.98s-.999-.36-1.319.7c-2.978 7.735-16.17 9.494-24.405 9.854-3.638.36-4.957 2.458-3.638 4.917z" fill="#e8f0f9" fill-rule="evenodd"/><path d="M66.04 67.999c6.576 11.253 13.832 33.06 6.576 40.795-2.638 3.178-6.256 5.277-10.214 3.878 3.958 2.818 30.622 3.857 30.622-22.866 0-27.084-.64-35.879-.64-35.879C91.064 65.9 72.956 65.9 64.061 66.6c.66 0 1.32.36 1.979 1.399z" fill="#61aedc" fill-rule="evenodd"/><path d="M124.405 69.438c.34-1.4-.66-2.798-1.64-2.798-8.914-.72-28.402-.72-30.061-12.673h1s1.318-.36 1.658 1.06c3.298 7.375 17.17 9.134 25.425 9.494 3.618.36 4.937 2.458 3.618 4.917z" fill="#e8f0f9" fill-rule="evenodd"/><path d="M120.427 67.999c-6.276 11.253-13.852 33.06-6.596 40.795 2.638 3.178 6.256 5.277 10.214 3.878-3.958 2.818-30.682 3.857-30.682-22.866 0-27.084-.66-35.879-.66-35.879C94.364 65.9 113.492 65.9 122.407 66.6c-.66 0-1.32.36-1.979 1.399z" fill="#61aedc" fill-rule="evenodd"/><path d="M93.723 3.798h-.98c-19.387 0-34.178 7.775-34.178 17.989 0-1.76 5.256-1.76 5.256 0 0-5.997 11.833-12.333 28.923-12.333h.98c17.089 0 28.902 6.336 28.902 12.333 0-1.76 5.256-1.76 5.256 0 0-10.214-14.77-17.99-34.159-17.99z" fill="#76b3de" fill-rule="evenodd"/><path d="M64.081 13.632C67.72 8.735 85.888 3.478 99.74 5.597c-5.277-.7-28.063 1.399-35.659 8.035z" fill="#0082c8" fill-rule="evenodd"/><path d="M55.286 63.042c-.66 5.277-7.675 26.724-3.657 36.218-1-3.158-.34-12.992.66-18.27 1.338-5.636 2.338-15.83 2.997-17.948zm0 198.44c-.66 4.917-7.675 26.344-3.657 35.818-1-2.798-.34-12.633.66-18.25 1.338-5.276 2.338-15.81 2.997-17.568zm65.761-238.416c-1.36 4.937.34 12.672.68 15.83-2.72-3.857-2.04-10.553-.68-15.83z" fill="#fff" fill-rule="evenodd"/><path d="M113.111 72.256c-1.319 3.498-4.597 20.348-3.617 25.964-.66-10.513 4.617-22.106 5.916-25.264 1.32-2.819 2.958-5.277 1.979-5.277-2.299.36-9.874-.7-13.492-1.759 2.638 1.06 11.513 1.759 9.214 6.336z" fill="#bbd7ee" fill-rule="evenodd"/><path d="M92.064 61.043c.32 10.554.64 25.664.32 30.941-.66 5.617-3.938 19.329-19.988 21.427 7.536-2.098 17.69-9.134 18.689-24.245.98-15.11.98-28.123.98-28.123z" fill="#3ea3d7" fill-rule="evenodd"/><path d="M84.869 63.761c-2.959 2.12-11.873 3.878-12.853 5.997-1.319 2.118 1.64 12.312 2.299 15.83-1.32-4.557-5.277-15.47-7.915-18.649 2.318.36 10.553 0 18.469-3.178z" fill="#0091cf" fill-rule="evenodd"/><path d="M112.532 67.44c3.258 0 5.836.719 5.836.719s-3.877 7.375-4.537 9.114c1.619-4.197 2.918-6.316 2.279-7.715-.66-1.4-3.578-2.119-3.578-2.119z" fill="#fff" fill-rule="evenodd"/><path d="M92.064 258.603c.32 10.534.64 25.625.32 31.241-.66 5.257-3.938 19.309-19.988 21.048 7.536-1.74 17.69-8.755 18.689-23.846.98-15.45.98-28.443.98-28.443z" fill="#3ea3d7" fill-rule="evenodd"/><path d="M120.367 107.615c1.979 1.739 11.213 1.04 12.872-14.352.32 5.957-3.298 19.589-12.872 14.352zm0 198.04c1.979 1.759 11.213 1.06 12.872-14.751.32 5.976-3.298 19.668-12.872 14.75z" fill="#fff" fill-rule="evenodd"/><path d="M75.314 189.805c-.66 30.182-18.049 81.41-18.049 81.41-3.298 9.835-5.257 21.068 1.3 30.542l.34.34c3.937 4.217 7.555 4.217 11.153.36 4.937-5.257 10.173-3.158 2.958 4.557-2.619 3.158-5.917 5.277-10.174 4.217 3.618 10.874 3.278 47.372 2.618 49.47h-4.917c0-2.798.66-44.912-5.916-55.086v-.36h-.32c0-.34 0-.34-.34-.7-7.555-11.573-4.597-25.604-1.959-34.739 0 0 18.05-51.228 18.39-81.07.32-32.62-11.494-66.32-14.452-77.553-.66-2.1-1.639-4.198-1.979-4.558-7.555-11.233-4.597-23.166-1.959-34.739l2.3-9.474.978-6.676c1.98-10.513 3.279-16.83 3.279-34.04 0-1.758 5.256-1.758 5.256 0 0 17.55-1.319 24.566-3.278 35.1l-1.319 6.676-1.959 9.814c-2.638 11.233-5.257 21.067 1.3 30.541 3.617 4.198 7.555 4.198 11.173.34 4.597-5.617-.98-22.806-7.236-34.04-1.639-2.798 1.979-5.256 3.618-2.098 6.576 11.233 13.792 32.98 6.576 40.695-2.638 3.158-6.236 5.277-10.194 3.878 2.299 8.754 13.472 43.513 12.812 77.193zm35.199-1.059c-.66-33.32 11.213-67.38 13.532-76.134-3.958 1.399-7.596-.72-10.234-3.878-7.256-7.715.34-29.462 6.596-40.695 1.659-3.158 5.277-.7 3.638 2.098-6.276 11.234-11.873 28.423-7.256 34.04 3.618 3.858 7.576 3.858 11.213-.34 6.596-9.474 3.958-19.308 1.32-30.541l-1.98-9.814-1.318-6.676c-1.98-10.534-3.298-17.55-3.298-35.1 0-1.758 5.276-1.758 5.276 0 0 17.21 1.32 23.527 3.298 34.04l.98 6.676 2.318 9.474c2.639 10.874 5.277 22.467-.999 33.34-1.32 2.099-4.937 13.332-5.936 17.55-4.618 15.43-12.193 40.695-11.873 65.62.66 30.182 18.808 81.41 18.808 81.41 3.298 10.174 5.597 23.166-1.978 34.74 0 .36-.34.36-.34.699h-.32v.36c-6.596 10.174-5.936 51.928-5.936 55.086h-5.277c-.66-2.098-.66-38.596 2.958-49.47-4.277 1.06-7.575-1.059-10.214-4.217-7.275-7.715-1.659-9.814 2.958-4.557 3.638 3.857 7.256 3.857 11.214-.36l.34-.34c6.595-9.474 4.617-20.707 1.319-30.541 0 0-18.15-52.289-18.809-82.47z" fill="#b0d0eb" fill-rule="evenodd"/><path d="M90.065 9.474c-15.77.72-26.304 6.676-26.304 12.273 0 17.53-1.319 24.545-3.278 35.059l-1.319 6.656-1.979 9.814c-2.618 10.853-4.937 20.327.66 29.422l7.236-2.439c-6.237-.36-8.555-8.075-6.576-20.687 1.978-12.613 7.235-40.296 7.895-50.81.98-10.513 9.214-17.169 20.387-18.568 1.64 0 2.639-.36 3.278-.72z" fill="#006aa4" fill-rule="evenodd"/><path d="M52.868 279.33c3.318-11.252 9.594-34.099 10.574-42.553-5.277 17.23-10.574 32.36-12.553 43.253-2.318 11.253 2.978 24.266 6.936 27.424-3.618-5.617-7.256-16.17-4.957-28.123zm.06-197.62c3.358-11.553 6.356-36.078 6.036-43.453-1.339 19.288-6.036 35.039-8.375 46.252-2.018 11.213 3.338 22.086 7.356 25.224-3.678-5.956-7.356-16.45-5.017-28.023zm19.388 19.329c.66-1.76.34-5.977-.98-11.253-1.298-5.997-4.257-13.033-5.896-16.91 0 0 4.258 6.336 7.536 17.949 2.938 11.633-.66 14.431-3.918 16.19.98-1.04 3.258-4.557 3.258-5.976zm50.05 10.533c-3.258 0-9.794-2.818-10.134-9.854-.66-7.055.98-14.091 2.938-18.688-1.619 5.996-2.938 19.388-.32 22.906 2.939 3.877 7.516 5.636 7.516 5.636z" fill="#fff" fill-rule="evenodd"/><path d="M66.12 369.576c6.556 7.036 28.303 8.435 42.094 4.237-13.791 7.716-24.345 4.917-30.9 26.664-6.597 21.747.639 28.063 13.79 32.26-11.832 2.12-23.025 4.918-25.664 30.182-2.638 25.265.68 35.779 7.236 44.214 6.596 8.395 28.982 14.71 28.982 14.71s-13.192 0-23.066 6.317c-10.193 6.676-16.75 19.308-18.428 25.944 3.318-8.395 7.915-21.027 6.596-32.26-1.32-11.233-6.596-20.348-10.514-32.26-3.958-11.953.64-19.669 4.597-37.178 3.958-17.55 3.598-25.625 0-32.98-5.277-9.834-20.427 2.798-20.427 2.798s23.066-24.545 25.704-52.648z" fill="#c9def1" fill-rule="evenodd"/><path d="M135.238 424.823c0-6.996 3.598-7.356 2.958-9.095-1.319-2.798-6.576-5.617-10.513-23.486-3.958-17.869-1.32 16.47-1.32 16.47z" fill="#6eb2dd" fill-rule="evenodd"/><path d="M146.351 423.224c1.98.36 3.298 2.798 4.957 3.857 1.32.7 4.278 2.079 4.937 3.478.98 2.099-.32 1.759-1.978 3.158-1.98 1.38-3.298 4.178-3.958 6.616 0-4.177.34-10.813-1.979-14.651zm-1.998 103.057c1.678.36 7.035 2.119 8.354 3.878 1 1.079.68.36 0 1.759-.64.72-1.998 1.759-2.638 2.478-1.04 1.4-2.039 2.798-2.359 4.198 1.68-3.838-1.319-7.356-1.998-11.234zM14.751 441.712c1.66 1.76 3.298 2.459 4.297 4.198 1.32 1.759 1.64 3.498 2.959 4.897-2.299-5.597-2.299-8.035 1.319-12.593 1.659-2.098 4.277-4.197 4.937-6.995z" fill="#c9def1" fill-rule="evenodd"/><path d="M23.266 458.642c3.958-2.099 15.19-11.233 20.467-16.49 5.297-5.277 10.574-14.391 13.872-13.692-4.277-2.118-7.915 3.518-12.213 8.075-4.297 4.558-21.467 17.21-22.806 15.79 1 1.42.68 6.317.68 6.317z" fill="#6eb2dd" fill-rule="evenodd"/><path d="M104.217 429.88c6.256 1.059 13.152 2.458 18.748-1.74 2.639-2.118 4.937-5.276 5.917-8.434 1-4.218 1.639-12.313-.66-15.83-1.299 4.576-1.299 9.154-3.278 13.71-1.979 3.859-5.916 10.195-11.173 9.835zm-3.837 84.548c9.853.34 16.749-1.06 23.005-9.854 6.556-9.154 10.494-22.506 6.236-33.78 0 8.456-1.319 15.831-4.937 23.586-2.938 6.676-14.77 19.349-22.986 19.349z" fill="#35a1d6" fill-rule="evenodd"/><path d="M105.896 514.428c6.256-.7 10.214 5.297 14.151 9.534-1.299-3.178-3.618-4.937-3.278-8.814 0-2.479.32-4.597 1.64-6.376zm7.675-83.809c3.278 1.06 7.516 3.178 9.474 6.336 1.98 2.459 2.299 5.957 3.938 8.415-2.938-4.917-1.32-18.609 5.537-11.233-1.3-2.798-5.217-2.099-5.877-5.976-.32-3.498 2.619-8.076 2.619-12.293z" fill="#35a1d6" fill-rule="evenodd"/><path d="M83.91 26.724c.639 1.399.959 3.877 1.598 4.577 1.919-1.4 1.919-5.297 1.919-7.415 0-3.518-.96-4.937-2.239-7.776zm18.328 2.718c0 1.04-.34 2.439.34 3.138 3.638-1.399 5.956-9.794 3.638-12.952zM81.23 34.739c2.999-1.4-1.338-8.155-2.678-5.657zm15.451 3.518c1.32 1.759 3.638 2.818 5.617 3.857 1.979 1.06 4.617 1.4 4.957 4.198.32 2.458-.66 4.897 0 6.996.32 2.798 1.979 5.596 2.958 8.055-1.639 1.04-4.277 1.04-5.936.34-3.298-1.4-4.298-5.597-5.277-9.095-.66-2.438-1.32-6.636-3.978-7.695z" fill="#006aa4" fill-rule="evenodd"/><path d="M93.723 3.798h-.98c-19.387 0-34.178 7.775-34.178 17.989 0-1.76 5.256-1.76 5.256 0 0-5.997 11.833-12.333 28.923-12.333h.98c17.089 0 28.902 6.336 28.902 12.333 0-1.76 5.256-1.76 5.256 0 0-10.214-14.77-17.99-34.159-17.99M62.042 69.438s0 0 0 0c-.32-1.4.66-2.798 1.66-2.798 0 0 0 0 0 0 8.894-.72 27.363-.72 28.682-12.673h-.98s-.999-.36-1.319.7c-2.978 7.735-16.17 9.494-24.405 9.854-3.638.36-4.957 2.458-3.638 4.917" fill="none" stroke="#000" stroke-width=".64" stroke-linecap="round" stroke-linejoin="round"/><path d="M66.04 67.999c6.576 11.253 13.832 33.06 6.576 40.795-2.638 3.178-6.256 5.277-10.214 3.878 3.958 2.818 30.622 3.857 30.622-22.866 0-27.084-.64-35.879-.64-35.879C91.064 65.9 72.956 65.9 64.061 66.6c.66 0 1.32.36 1.979 1.399" fill="none" stroke="#000" stroke-width=".64" stroke-linecap="round" stroke-linejoin="round"/><path d="M75.314 189.805c-.66 30.182-18.049 81.41-18.049 81.41-3.298 9.835-5.257 21.068 1.3 30.542l.34.34c3.937 4.217 7.555 4.217 11.153.36 4.937-5.257 10.173-3.158 2.958 4.557-2.619 3.158-5.917 5.277-10.174 4.217 3.618 10.874 3.278 47.372 2.618 49.47h-4.917c0-2.798.66-44.912-5.916-55.086v-.36h-.32c0-.34 0-.34-.34-.7-7.555-11.573-4.597-25.604-1.959-34.739 0 0 18.05-51.228 18.39-81.07.32-32.62-11.494-66.32-14.452-77.553-.66-2.1-1.639-4.198-1.979-4.558-7.555-11.233-4.597-23.166-1.959-34.739l2.3-9.474.978-6.676c1.98-10.513 3.279-16.83 3.279-34.04 0-1.758 5.256-1.758 5.256 0 0 17.55-1.319 24.566-3.278 35.1l-1.319 6.676-1.959 9.814c-2.638 11.233-5.257 21.067 1.3 30.541 3.617 4.198 7.555 4.198 11.173.34 4.597-5.617-.98-22.806-7.236-34.04-1.639-2.798 1.979-5.256 3.618-2.098 6.576 11.233 13.792 32.98 6.576 40.695-2.638 3.158-6.236 5.277-10.194 3.878 2.299 8.754 13.472 43.513 12.812 77.193m49.091-120.367s0 0 0 0c.34-1.4-.66-2.798-1.64-2.798 0 0 0 0 0 0-8.914-.72-28.402-.72-30.061-12.673h1s1.318-.36 1.658 1.06c3.298 7.375 17.17 9.134 25.425 9.494 3.618.36 4.937 2.458 3.618 4.917" fill="none" stroke="#000" stroke-width=".64" stroke-linecap="round" stroke-linejoin="round"/><path d="M110.513 188.746c-.66-33.32 11.213-67.38 13.532-76.134-3.958 1.399-7.596-.72-10.234-3.878-7.256-7.715.34-29.462 6.596-40.695 1.659-3.158 5.277-.7 3.638 2.098-6.276 11.234-11.873 28.423-7.256 34.04 3.618 3.858 7.576 3.858 11.213-.34 6.596-9.474 3.958-19.308 1.32-30.541l-1.98-9.814-1.318-6.676c-1.98-10.534-3.298-17.55-3.298-35.1 0-1.758 5.276-1.758 5.276 0 0 17.21 1.32 23.527 3.298 34.04l.98 6.676 2.318 9.474c2.639 10.874 5.277 22.467-.999 33.34-1.32 2.099-4.937 13.332-5.936 17.55-4.618 15.43-12.193 40.695-11.873 65.62.66 30.182 18.808 81.41 18.808 81.41 3.298 10.174 5.597 23.166-1.978 34.74 0 .36-.34.36-.34.699h-.32v.36c-6.596 10.174-5.936 51.928-5.936 55.086h-5.277c-.66-2.098-.66-38.596 2.958-49.47-4.277 1.06-7.575-1.059-10.214-4.217-7.275-7.715-1.659-9.814 2.958-4.557 3.638 3.857 7.256 3.857 11.214-.36l.34-.34c6.595-9.474 4.617-20.707 1.319-30.541 0 0-18.15-52.289-18.809-82.47" fill="none" stroke="#000" stroke-width=".64" stroke-linecap="round" stroke-linejoin="round"/><path d="M126.044 360.701h-5.277s0 0 0 0c-3.958 2.819-14.172 6.676-27.703 7.016-13.852-.34-24.066-4.197-27.704-7.016 0 .36 0 0 0 0h-4.957s0 0 0 0c2.319 5.277 16.51 10.874 33 10.874 16.15 0 30.342-5.957 32.64-10.874m-5.616-292.702c-6.276 11.253-13.852 33.06-6.596 40.795 2.638 3.178 6.256 5.277 10.214 3.878-3.958 2.818-30.682 3.857-30.682-22.866 0-27.084-.66-35.879-.66-35.879C94.364 65.9 113.492 65.9 122.407 66.6c-.66 0-1.32.36-1.979 1.399" fill="none" stroke="#000" stroke-width=".64" stroke-linecap="round" stroke-linejoin="round"/><path d="M131.6 554.744a210.845 210.845 0 0 1-1.999-7.716s0 0 0 0c-1.319-5.956-2.638-11.553-2.958-16.47-.32-1.079.68-1.758 1.32-1.399 6.915 7.356 15.47 12.273 22.066 14.711-.68-1.399.32-5.236 2.279-8.754 1.998-2.799 3.957-4.558 5.276-4.917-.32 0-.64-.36-.64-.36-6.275-1.76-23.065-9.834-26.023-24.905-.64-1.4 0-3.878 1.319-5.597 7.555-11.593 4.597-23.505 1.959-34.739l-2.279-9.474c-1-4.237-1.999-10.194-2.638-17.909-.32-1.04 1.319-1.759 1.958-.72 5.277 4.598 11.194 9.155 18.79 14.072.319.32.639.68.958.68-1.279-2.12 0-7.356 3.318-12.273 2.639-4.557 5.917-7.356 7.876-7.036-.32 0-.32-.32-.64-.32-22.706-15.79-28.303-22.106-34.579-50.21-.32-1.039-.96-6.635-.96-8.754v-11.953c-2.318 4.917-16.47 10.914-32.62 10.914-16.11 0-30.621-5.637-32.9-10.554v11.233c0 2.799-2.318 10.514-2.958 12.273-8.235 22.107-27.663 45.972-46.092 57.565h-.36c2.319-.36 5.957 3.838 8.595 9.115 1.959 4.917 2.599 9.474 1.32 10.873.32 0 .639 0 .959-.36 11.873-6.996 23.705-18.229 33.9-31.22.679-1.04 2.318 0 1.998 1.758-.68 9.834-1.999 17.55-3.278 22.826l-1.999 9.474c-2.958 11.234-5.596 23.146 1.64 34.74.359 0 .359.32.359.32h.32v.359c6.556 10.194 7.235 25.984 1.959 47.011 0 0 0 0 0 0-.64 2.839-1.32 5.277-1.96 7.716" fill="none" stroke="#000" stroke-width=".64" stroke-linecap="round" stroke-linejoin="round"/><path d="M110.533 188.746c-.66-33.32 11.213-66.64 13.512-75.754-4.278.7-7.576-1.04-10.214-4.198-1.979-2.119-3.298-7.375-4.277-13.332-.66-6.316 3.298-15.09 2.958-21.387-.32-7.715-5.277-12.992-6.596-14.731-3.298-3.858 1-9.474-.32-14.391-1-2.099-6.916-.7-8.575-6.656-1.639-6.676-11.873-3.158-10.553 3.857-2.639 2.1-4.618-6.316-9.874 0-5.277 6.317.66 11.573 2.958 16.13 4.937 10.874 0 12.273-3.618 19.989-.66 1.758-1 5.616-1.659 10.533 1.979 8.055 2.319 16.13-1.639 19.988-2.638 3.158-6.276 5.257-10.234 3.858 1.66 7.015 9.235 30.501 11.873 56.466 1.32 7.355 2.638 14.37 4.297 21.387 2.639 10.873 3.618 29.462 16.15 29.462 11.853.34 15.811-27.704 15.811-31.221z" fill="#d54730" fill-rule="evenodd"/><path d="M82.91 47.391c-2.639 2.459 1.959 6.316 3.598 11.573 1.639 5.257 1.978 12.972-2.619 19.289-4.597 6.316-1.979 12.272-1.319 20.327.66 7.716-3.278 14.731-6.556 20.008-3.298 5.257 0 13.312 3.278 30.861 3.278 17.17 5.257 58.205 12.153 61.723 4.917 3.138 5.576-1.759 7.875-10.873 2.298-9.135 4.597-31.921 5.576-48.75.98-17.19 1.96-18.59-.979-29.823-2.958-11.213-6.576-18.229-4.937-31.56 1.639-13.672 4.597-15.431 1.639-23.147-2.938-7.715-3.278-12.272-6.236-17.529-3.278-4.917-4.597-1.4-6.556-1.759-1.979-.34-4.278-1.4-4.917-.34z" fill="#e66a4a" fill-rule="evenodd"/><path d="M84.149 48.13c-2.978 2.8-.34 4.198 1.979 8.756 2.318 4.557 4.957 11.912.66 17.529-4.298 5.597-6.277 10.853-4.618 16.81 1.64 5.956 1.64 15.07-1.999 20.687-3.617 5.597-5.616 12.253-4.617 17.87 1 6.296 4.957 25.584 5.957 33.979.979 8.774.979 11.213.32-.34-.66-11.213-3.958-30.841-3.638-36.798.34-5.956 4.637-10.154 6.616-17.869 1.978-7.715 0-11.573-.66-17.87-.66-5.955 7.256-13.311 7.595-19.627.32-6.296-2.638-12.972-4.617-16.11-1.999-3.159-3.638-6.317-2.658-7.376z" fill="#f2ae92" fill-rule="evenodd"/><path d="M102.678 31.62c-1.3-6.375-3.258-13.111 1.319-13.471 4.217-.36 2.598 5.317-1.32 13.472zm-17.909-2.558c-3.258-6.276-7.496-8.015-2.619-12.552 4.877-4.557 3.258 6.616 2.619 12.552zm-7.496.72c-1.999 2.478 1.979 3.538 3.638 4.597 1.639 1.4-1-7.795-3.638-4.597zM99.66.96c6.236.719-.64 11.313-.64 11.313S93.423.6 99.66.959z" fill="#d54730" fill-rule="evenodd"/><path d="M87.107 75.454c-2.918 1.38-4.557 7.656-4.217 10.774 1.299-2.779 1.939-5.917 3.877-8.335.98-1.06.98-2.099 1.62-3.498zm1.959-4.177c-.68.68-.68 1.339-.34 1.999.68-.32 1.34-.66 1.34-1.32zM78.612 116.05c-2.998 5.656-3.338 11.673-1.659 17.669-.34-3.878-.34-7.056.66-10.953.34-1.4.34-5.637 1.659-6.716zm3.958-28.303c-.34.68 0 1.359.34 1.679.68 0 1-.66.68-1.34v-.34z" fill="#fff" fill-rule="evenodd"/><path d="M83.57 16.75c-3.339 2.139-2 3.897-.66 6.716.32-2.119-.68-4.577 1.319-6.356zm20.967 3.278c-2.959-1.76-2.959 3.178-1.96 5.277 0-2.459.32-3.518 1.96-5.277zM99.9 1.979c-2.879-1.06-1.6 3.897-.96 4.937 0-1.4 0-3.878 1.919-4.218zM78.273 30.422c-.34.38-.34.74-.68 1.119.68.36 1.34.36 1.999.72z" fill="#f2ae92" fill-rule="evenodd"/><path d="M82.25 18.589c-.34.68-.34 1.339 0 1.999.68 0 1.02-.66 1.02-1.32zm19.648 2.318c0 1.14.68 1.52 1.68.76zM99.08 3.478c-.68.32-1.02.32-.68.64.68.32 1.02 0 .68-.64-.34 0-.34.32-.34.32z" fill="#fff" fill-rule="evenodd"/><path d="M110.533 188.746c-.66-33.32 11.213-66.64 13.512-75.754 0 0 0 0 0 0-4.278.7-7.576-1.04-10.214-4.198-1.979-2.119-3.298-7.375-4.277-13.332-.66-6.316 3.298-15.09 2.958-21.387-.32-7.715-5.277-12.992-6.596-14.731-3.298-3.858 1-9.474-.32-14.391-1-2.099-6.916-.7-8.575-6.656-1.639-6.676-11.873-3.158-10.553 3.857-2.639 2.1-4.618-6.316-9.874 0-5.277 6.317.66 11.573 2.958 16.13 4.937 10.874 0 12.273-3.618 19.989-.66 1.758-1 5.616-1.659 10.533 1.979 8.055 2.319 16.13-1.639 19.988-2.638 3.158-6.276 5.257-10.234 3.858 1.66 7.015 9.235 30.501 11.873 56.466 1.32 7.355 2.638 14.37 4.297 21.387 2.639 10.873 3.618 29.462 16.15 29.462 11.853.34 15.811-27.704 15.811-31.221M102.678 31.62c-1.3-6.375-3.258-13.111 1.319-13.471 4.217-.36 2.598 5.317-1.32 13.472m-17.908-2.559c-3.258-6.276-7.496-8.015-2.619-12.552 4.877-4.557 3.258 6.616 2.619 12.552m-7.496.72c-1.999 2.478 1.979 3.538 3.638 4.597 1.639 1.4-1-7.795-3.638-4.597" fill="none" stroke="#000" stroke-width=".64" stroke-linecap="round" stroke-linejoin="round"/><path clip-path="url(#a)" d="M99.66.96c6.236.719-.64 11.313-.64 11.313S93.423.6 99.66.959" fill="none" stroke="#000" stroke-width=".64" stroke-linecap="round" stroke-linejoin="round"/><path d="M74.015 150.209c-1-7.036-6.296-25.644-4.317-30.901 1.999-5.277 6.636-3.518 7.635-15.81.66-11.234-2.998-15.451-2.338-17.91-.66 1.76.34 4.218 0 5.977 1.339 7.015.999 13.691-2.319 17.21-2.638 3.157-6.296 5.256-10.274 3.857 1.66 6.676 8.295 27.383 11.273 51.608 2 5.617 3.978 12.293 5.297 17.57 2.659 11.573 4.318 21.067 5.317 25.624.98 4.558-9.294-50.21-10.274-57.225zm50.03-37.257h-3.298c-1.32.34-2.639.7-3.618 0-3.298-1.76-6.936-3.858-8.575-13.692-1.659-9.834 1.979-16.15 2.639-24.565.66-8.435-6.596-11.933-7.916-16.51-1.319-4.558.98-7.716.98-11.233 0-3.498-4.278-1.74-6.596-3.858-2.299-2.099-2.639-6.676-4.957-5.957 1.999-.36 1 4.558 3.638 7.356 2.638 2.818 3.957 2.459 3.637 8.775-.34 6.336 3.618 9.134 6.596 16.85 2.959 7.735-5.276 9.834-3.298 29.502 1.98 19.648 9.894 23.166 7.916 33.34-1.98 10.173-3.638 41.774-4.957 54.047-1.32 12.292-5.597 27.043-10.874 30.541 5.597 1.4 11.533-13.332 14.172-21.047.66-3.878.999-6.676.999-7.735-.66-33.34 11.213-66.7 13.512-75.814z" fill="#b40e1c" fill-rule="evenodd"/><path d="M90.125 255.805c-.979 0-1.978 1.06-1.978 2.119l.34 6.296c.659 10.513 1.299 24.885-2.32 33.66-1.958 4.557-5.576 8.055-10.513 9.454-5.277 1.759-11.193 0-15.47-3.138-.66-.72-1.98 0-2.639 1.039-.66 1.06-.32 2.099.66 2.798 4.937 3.858 12.172 5.257 18.429 3.158a21.724 21.724 0 0 0 13.491-11.553c3.938-9.814 2.959-24.905 2.299-35.758l-.32-5.956c0-1.06-1-2.119-1.979-2.119z" fill="#b0d0eb" fill-rule="evenodd"/><path d="M62.062 310.452c4.618 2.099 9.575 2.438 14.512.7 5.956-1.76 10.893-5.957 13.531-11.554 3.958-9.814 2.979-24.865 2.319-35.738l-.34-5.936c0-1.06-.98-2.119-1.979-2.119-.979 0-1.978 1.06-1.978 2.119l.34 6.296c.659 10.513 1.319 24.865-2.32 33.62-1.978 4.557-5.596 8.055-10.553 9.454-5.277 1.759-11.213-.34-15.19-3.498" fill="none" stroke="#000" stroke-width=".64" stroke-linecap="round" stroke-linejoin="round"/><path d="M60.503 303.876c3.958 3.158 9.854 5.257 15.131 3.518 4.917-1.4 8.535-4.917 10.514-9.475 3.598-8.754 2.958-23.126 2.298-33.64l-.34-6.315c-1.638 4.917-2.298 18.229-8.534 28.742-5.917 10.514-17.09 14.372-23.006 1.4-.66-1.74-1.64-3.139-2.299-4.558-.34 6.316.32 12.632 4.278 18.23l.32.359c.34.7.979 1.04 1.319 1.399z" fill="#008dcd" fill-rule="evenodd"/><path d="M60.184 304.236c.66.7 1.639 1.059 2.298 1.399 1.32.72 3.618 1.419 5.577 2.118 2.638.34 4.937.34 7.575-.36 4.917-1.398 8.535-4.916 10.514-9.474 3.598-8.794 2.958-22.846 2.298-33.02l-.34-1.419c.34 4.578 1 19.329-2.958 29.862-2.618 6.676-8.215 11.593-13.471 11.593-2.619 0-5.917 0-9.195-2.798-5.596-4.917-2.298 2.099-2.298 2.099z" fill="#006aa4" fill-rule="evenodd"/><path d="M58.525 288.025c0 3.498 1.978 16.83 9.554 18.23-5.257-1.04-16.15-5.257-13.172-23.506z" fill="#006aa4" fill-rule="evenodd"/><path d="M54.267 283.468s0 0 0 0c-.34 6.316.32 12.633 4.198 18.25l.32.339c.659.7.979 1.06 1.618 1.4m0 .419c3.958 3.158 9.894 5.257 15.171 3.518 4.957-1.4 8.575-4.917 10.554-9.475 3.618-8.754 2.958-23.126 2.298-33.64l-.32-6.315c-1.638 4.917-2.298 18.229-8.574 28.742-3.958 5.617-8.895 6.316-9.894 3.158" fill="none" stroke="#000" stroke-width=".64" stroke-linecap="round" stroke-linejoin="round"/><path d="M69.758 292.323c.64-1.06.96-2.099 1.599-2.798.32 1.059 0 5.216 1.599 3.477.96-.68.96-3.817 1.279-5.216" fill="none" stroke="#008dcd" stroke-width=".64" stroke-linecap="round" stroke-linejoin="round"/><path d="M96.342 255.805c.979 0 1.978 1.06 1.978 2.119l-.34 6.296c-.659 10.513-1.299 24.885 2.32 33.66 1.958 4.557 5.596 8.055 10.513 9.454 5.277 1.759 11.193 0 15.15-3.138.98-.72 2.3 0 2.959 1.039.32 1.06.32 2.099-.66 2.798-4.937 3.858-12.172 5.257-18.429 3.158-5.916-1.739-11.193-5.256-13.491-11.213-3.958-9.814-2.959-25.245-2.299-36.098l.32-5.956c0-1.06 1-2.119 1.979-2.119z" fill="#b0d0eb" fill-rule="evenodd"/><path d="M124.405 310.452c-4.618 2.099-9.894 2.438-14.532.7-5.936-1.76-11.213-5.257-13.511-11.214-3.978-9.794-2.979-25.205-2.319-36.078l.34-5.936c0-1.06.98-2.119 1.979-2.119.979 0 1.978 1.06 1.978 2.119L98 264.22c-.659 10.513-1.319 24.865 2.32 33.62 1.978 4.557 5.596 8.055 10.553 9.454 5.277 1.759 10.893-.34 15.17-3.498" fill="none" stroke="#000" stroke-width=".64" stroke-linecap="round" stroke-linejoin="round"/><path d="M125.964 303.876c-4.278 3.158-9.874 5.257-15.131 3.518-4.917-1.4-8.535-4.917-10.514-9.475-3.618-8.754-2.958-23.126-2.298-33.64l.34-6.315c1.299 4.917 2.298 18.229 8.534 28.742 5.917 10.514 16.77 14.372 22.686 1.4.98-1.74 1.64-3.139 2.619-4.558h-.32c.64 6.316-.34 12.632-3.958 18.23l-.32.359c-.659.7-.979 1.04-1.638 1.399z" fill="#008dcd" fill-rule="evenodd"/><path d="M125.964 304.236c-.66.7-1.32 1.059-1.98 1.399-1.638.72-3.617 1.419-5.576 2.118-2.638.34-5.277.34-7.575-.36-4.917-1.398-8.535-4.916-10.514-9.474-3.618-8.794-2.958-22.846-2.618-33.02l.66-1.419c-.34 4.578-1 19.329 2.958 29.862 2.618 6.676 8.215 11.593 13.471 11.593 2.619 0 5.917 0 9.195-2.798 5.576-4.917 2.298 2.099 1.979 2.099z" fill="#006aa4" fill-rule="evenodd"/><path d="M131.9 283.468c0 1.74-1 7.716-3.298 12.613-2.638 5.276-6.596 9.474-10.234 10.173 5.277-1.039 16.15-5.256 13.192-23.505z" fill="#006aa4" fill-rule="evenodd"/><path d="M132.2 283.468h-.32c.64 6.316-.32 12.633-4.217 18.25l-.32.339c-.32.7-.96 1.06-1.3 1.4m.001.419c-4.278 3.158-9.874 5.257-15.151 3.518-4.957-1.4-8.575-4.917-10.554-9.475-3.638-8.754-2.978-23.126-2.318-33.64l.34-6.315c1.319 4.917 1.978 14.031 8.234 24.885 3.638 5.616 9.575 2.818 10.554 0" fill="none" stroke="#000" stroke-width=".64" stroke-linecap="round" stroke-linejoin="round"/><path d="M116.37 286.346c-.32-1.059-.64-2.098-1.28-2.798-.64 1.04 0 4.877-1.919 3.498-.64-1.06-.64-4.197-.959-5.257" fill="none" stroke="#008dcd" stroke-width=".64" stroke-linecap="round" stroke-linejoin="round"/><path d="M89.426 259.643c1 3.877 1.999 24.245.68 29.502zm43.494 23.825c.979 4.218.32 18.969-8.236 22.467 4.937-1.04 11.833-10.174 8.235-22.467z" fill="#fff" fill-rule="evenodd"/><path d="m89.746 15.51-2.839 5.177h4.178v8.815h3.338v-8.815h4.317l-2.998-5.176-2.998-5.677-2.998 5.677z" fill="#005b8e" fill-rule="evenodd"/><path d="m89.746 15.51-2.839 5.177h4.178v8.815h3.338v-8.815h4.317l-2.998-5.176-2.998-5.677-2.998 5.677z" fill="none" stroke="#fff" stroke-width="1.039" stroke-miterlimit="8"/><path d="m89.746 124.944-2.839 5.317h4.178v8.615h3.338v-8.615h4.317l-2.998-5.317-2.998-5.656-2.998 5.656z" fill="#005b8e" fill-rule="evenodd"/><path d="m89.746 124.944-2.839 5.317h4.178v8.615h3.338v-8.615h4.317l-2.998-5.317-2.998-5.656-2.998 5.656z" fill="none" stroke="#fff" stroke-width="1.039" stroke-miterlimit="8"/><path d="m133.24 428.06 2.658 5.657 2.658-3.838 6.816 4.498 1.659-2.819-6.816-4.497 2.159-3.837-5.817-.34-5.996-.34 2.678 5.517z" fill="#005b8e" fill-rule="evenodd"/><path d="m133.24 428.06 2.658 5.657 2.658-3.838 6.816 4.498 1.659-2.819-6.816-4.497 2.159-3.837-5.817-.34-5.996-.34 2.678 5.517z" fill="none" stroke="#fff" stroke-width="1.039" stroke-miterlimit="8"/><path d="m35.139 432.758-5.477.66 2.658 3.517-6.656 5.657 2 2.498 6.136-5.337 2.998 3.518 1.978-5.676 2.32-6.017-5.957 1.18z" fill="#005b8e" fill-rule="evenodd"/><path d="m35.139 432.758-5.477.66 2.658 3.517-6.656 5.657 2 2.498 6.136-5.337 2.998 3.518 1.978-5.676 2.32-6.017-5.957 1.18z" fill="none" stroke="#fff" stroke-width="1.039" stroke-miterlimit="8"/><path d="m129.561 525.362 3.019 5.656 2.338-3.837 6.856 4.497 1.66-2.819-6.857-4.497 2.359-3.837-6.037-.5-5.856-.34 2.518 5.677z" fill="#005b8e" fill-rule="evenodd"/><path d="m129.561 525.362 3.039 5.676 2.318-3.838 6.876 4.478 1.64-2.799-6.837-4.517 2.359-3.837-6.037-.48-5.876-.36 2.518 5.677z" fill="none" stroke="#fff" stroke-width="1.039" stroke-miterlimit="8"/></svg>