<svg xmlns="http://www.w3.org/2000/svg" version="1.0" viewBox="0 0 139.805 146.457"><defs><clipPath clipPathUnits="userSpaceOnUse" id="a"><path d="M10.793.96H150.39v146.55H10.793z"/></clipPath></defs><path d="M13.392 74.075C13.392 34.22 43.793 1.88 81.27 1.88c37.497 0 67.879 32.34 67.879 72.196 0 39.876-30.382 72.196-67.88 72.196-37.477 0-67.878-32.32-67.878-72.196z" fill="#9dc3d9" fill-rule="evenodd"/><path d="M13.392 74.075C13.392 34.22 43.793 1.88 81.27 1.88c37.497 0 67.879 32.34 67.879 72.196 0 39.876-30.382 72.196-67.88 72.196-37.477 0-67.878-32.32-67.878-72.196" fill="none" stroke="#333" stroke-width=".8" stroke-linecap="round" stroke-linejoin="round"/><path d="M41.135 76.913c0-25.004 19.328-45.292 43.134-45.292 23.825 0 43.134 20.288 43.134 45.292 0 25.025-19.309 45.293-43.134 45.293-23.806 0-43.134-20.268-43.134-45.293z" fill="#ff0" fill-rule="evenodd"/><path d="M22.346 80.931c0-39.036 30.682-71.737 67.3-71.737 2.958 0 5.936 1.06 8.894 1.06-4.937-2.119-11.873-3.178-17.809-3.178-34.639 0-63.342 30.601-63.342 67.539 0 14.77 4.957 28.483 12.873 40.075-4.937-10.533-7.916-21.087-7.916-33.759z" fill="#fff" fill-rule="evenodd"/><path d="M111.652 15.79c11.933 12.653 19.868 29.503 19.868 49.53 0 36.858-27.803 66.36-62.582 66.36-9.934 0-20.847-3.158-29.802-8.435 11.933 11.593 25.845 17.91 42.714 17.91 33.78 0 62.582-29.483 62.582-66.36 0-25.285-13.891-47.412-32.78-59.005z" fill="#4e99be" fill-rule="evenodd"/><path d="M52.028 77.953c0-22.107 19.868-37.897 39.736-37.897h1c-3.978-1.06-6.956-2.119-10.934-2.119-18.868 0-34.779 16.85-34.779 36.858 0 8.435 2.999 18.948 7.956 25.264-2.979-6.316-2.979-15.79-2.979-22.106z" fill="#fff" fill-rule="evenodd"/><path d="M101.678 45.053c6.936 6.336 10.894 16.89 10.894 27.443 0 20.048-14.851 36.938-34.64 36.938-5.936 0-10.893-2.119-15.85-4.238 5.957 5.277 13.872 9.494 22.767 9.494 18.808 0 34.639-16.87 34.639-36.917 0-14.771-6.916-26.384-17.81-32.72z" fill="#ffd100" fill-rule="evenodd"/><path d="M108.454 36.678c7.955-6.316 26.844 23.166 29.822 30.521 4.957-15.79-16.91-62.122-31.82-35.798z" fill="#4e99be" fill-rule="evenodd"/><path d="M41.135 76.913c0-25.004 19.328-45.292 43.134-45.292 23.825 0 43.134 20.288 43.134 45.292 0 25.025-19.309 45.293-43.134 45.293-23.806 0-43.134-20.268-43.134-45.293" fill="none" stroke="#333" stroke-width=".48" stroke-linecap="round" stroke-linejoin="round"/><path d="M35.219 66.8c0-3.708 3.098-6.716 6.915-6.716 3.828 0 6.916 3.008 6.916 6.716 0 3.717-3.088 6.715-6.916 6.715-3.817 0-6.915-2.998-6.915-6.715zM67.04 33.73c.959-2.11 1.918-2.11 3.837-2.11.96 1.06 1.919 3.159.96 4.218 0 2.099-1.92 2.099-3.838 2.099-.96-1.05-1.919-3.158-.96-4.207zM37.227 81.05c1.01-3.217 4.018-3.217 6.017-2.138 2.009 1.07 3.008 4.278 2.009 6.426-1 2.139-4.008 3.208-6.017 2.139-3.008-1.07-4.017-4.287-2.009-6.426z" fill="#fff" fill-rule="evenodd"/><path d="M44.293 55.626c-25.724 7.376 3.958 66.42 1.979 84.33-10.873-14.752-15.83-34.78-21.767-50.59-6.916-18.969-7.915-23.186 9.894-34.8z" fill="#4e99be" fill-rule="evenodd"/><path clip-path="url(#a)" d="M72.096 13.452c-3.957 5.277-4.957 11.613-5.956 16.91-.98 7.395-1.979 10.553-6.916 12.672-3.977 1.06-6.936 1.06-10.913 0-5.937 0-11.873-1.06-18.809 2.119-28.742 14.79-15.85 44.373-6.936 63.401 4.957 9.514 8.915 20.068 8.915 26.404 0 4.238 2.978 7.396 6.936 7.396 3.957 0 6.936-3.158 6.936-7.396 0-9.494-4.957-21.127-9.914-32.74-10.894-24.305-14.851-35.938 0-43.334 2.978-2.118 5.936-1.059 10.893-1.059 4.957 1.06 10.893 2.119 17.83-1.06 11.892-5.276 13.87-15.85 15.85-23.245.999-4.218 1.978-8.455 3.977-11.613 3.958-5.297 5.936-5.297 6.916-4.238 6.936 2.119 15.85 20.088 16.85 30.642 1 23.246 3.957 48.61 20.807 62.342 2.958 3.178 6.936 2.119 9.894-1.04 1.979-3.178 1.979-7.395-.98-10.573-12.872-10.574-14.87-31.7-15.85-50.73-1-14.79-11.893-40.135-26.744-45.432C89.925 1.818 81.011.76 72.096 13.452z" fill="#f5bcc5" fill-rule="evenodd"/><path clip-path="url(#a)" d="M24.385 107.575c-5.956-14.771-14.91-36.938-6.956-49.59 6.956-10.554 15.91-13.732 28.823-12.672-4.957 1.059-22.846 4.217-27.823 20.047-4.977 14.791 5.956 41.175 5.956 42.215z" fill="#eaf1f7" fill-rule="evenodd"/><path d="M81.89 10.474C75.974 14.71 71.037 30.56 66.08 37.937c3.958-7.376 5.936-34.859 27.663-33.8 0 0-6.916 3.179-11.853 6.337zm24.565 24.265c3.998 11.613 2.999 22.167 3.998 32.72 1 11.593 6.996 33.74 20.947 43.234-3.977-5.257-15.95-22.147-17.949-40.076-1.999-17.929-5.996-32.7-6.996-35.878z" fill="#eaf1f7" fill-rule="evenodd"/><path d="M66.87 50.31c7.915-6.317 10.883-23.186 13.841-27.404-3.948 5.277-2.958 20.028-9.884 26.354-7.915 7.376-17.8 8.425-27.693 6.326 5.936-1.059 14.84-1.059 23.735-5.276zm-26.654 79.212c1.958 6.356-.98 8.474-3.918 10.593 3.918 1.04 6.836-1.06 6.836-9.534-.96-8.455-9.774-27.503-12.712-34.919.979 4.237 8.814 26.464 9.794 33.86zM106.455 15.79c4.997 7.376 10.974 16.85 11.973 35.799 1 17.909 1 27.383 8.975 38.956-5.977-8.415-8.975-19.988-11.953-38.956-2.998-17.89 1-23.146-8.995-35.799z" fill="#ec6d88" fill-rule="evenodd"/><path clip-path="url(#a)" d="M72.096 13.452c-3.957 5.277-4.957 11.613-5.956 16.91-.98 7.395-1.979 10.553-6.916 12.672-3.977 1.06-6.936 1.06-10.913 0-5.937 0-11.873-1.06-18.809 2.119-28.742 14.79-15.85 44.373-6.936 63.401 4.957 9.514 8.915 20.068 8.915 26.404 0 4.238 2.978 7.396 6.936 7.396 3.957 0 6.936-3.158 6.936-7.396 0-9.494-4.957-21.127-9.914-32.74-10.894-24.305-14.851-35.938 0-43.334 2.978-2.118 5.936-1.059 10.893-1.059 4.957 1.06 10.893 2.119 17.83-1.06 11.892-5.276 13.87-15.85 15.85-23.245.999-4.218 1.978-8.455 3.977-11.613 3.958-5.297 5.936-5.297 6.916-4.238 6.936 2.119 15.85 20.088 16.85 30.642 1 23.246 3.957 48.61 20.807 62.342 2.958 3.178 6.936 2.119 9.894-1.04 1.979-3.178 1.979-7.395-.98-10.573-12.872-10.574-14.87-31.7-15.85-50.73-1-14.79-11.893-40.135-26.744-45.432C89.925 1.818 81.011.76 72.096 13.452" fill="none" stroke="#333" stroke-width=".8" stroke-linecap="round" stroke-linejoin="round"/></svg>