<svg xmlns="http://www.w3.org/2000/svg" version="1.0" viewBox="0 0 336.718 334.413"><defs><clipPath clipPathUnits="userSpaceOnUse" id="a"><path d="M2.159 1.52h336.356v334.676H2.159z"/></clipPath></defs><path d="M3.158 3.158v331.799h334.118V3.158H3.158z" fill="#f2a3b7" fill-rule="evenodd"/><path clip-path="url(#a)" d="M3.158 3.158h334.118v331.799H3.158z" fill="none" stroke="#343434" stroke-width=".8" stroke-linecap="round" stroke-miterlimit="8"/><path d="M34.819 258.403s36.778 61.923 134.239 61.923c97.48 0 134.238-62.842 134.238-62.842" fill="none" stroke="#343434" stroke-width=".8" stroke-linecap="round" stroke-miterlimit="8"/><path clip-path="url(#a)" d="M303.296 256.525s-36.758 62.941-134.238 62.941c-97.461 0-134.24-62.022-134.24-62.022s118.43 125.164 268.478-.92z" fill="#ed95ad" fill-rule="evenodd"/><path d="M9.314 146.111c51.749 0 69.078-113.45 159.943-113.45 90.865 0 96.202 113.45 160.343 113.45 0 0-26.724 7.276-63.501-29.622-36.978-36.677-50.45-54.207-96.842-54.207-46.391 0-103.917 60.364-103.917 60.364S41.615 146.11 9.314 146.11z" fill="#ed95ad" fill-rule="evenodd"/><path d="M161.322 3.478h16.23s-2.558 24.605 13.652 43.494H147.87s15.371-15.011 13.452-43.494z" fill="#f4b2c7" fill-rule="evenodd"/><path clip-path="url(#a)" d="M152.747 40.336c4.298-6.816 9.635-19.329 8.575-36.858h16.27s-2.138 19.348 8.975 36.858" fill="none" stroke="#343434" stroke-width=".8" stroke-linecap="round" stroke-miterlimit="8"/><path d="M155.066 38.497s10.094-20.288 7.316-33.98c0 0 8.994 15.75-7.316 33.98z" fill="#ed87ab" fill-rule="evenodd"/><path d="M176.573 4.517s-1.5 19.229 8.315 34.78c0 0-14.311-10.974-8.315-34.78z" fill="#f2a6bf" fill-rule="evenodd"/><path d="m166.3 3.798 6.195.24s-5.136 18.268 3.199 34.938c0 0-8.116-.22-10.474 0 0 0 6.636-16.21 1.08-35.178z" fill="#f6c4d5" fill-rule="evenodd"/><path d="M164.1 4.357c1.5 6.636 1.92 13.032.44 19.648-1.499 5.257-2.778 10.274-4.277 15.291m6.836-34.299c-.22.46.4 2.978.4 3.898.2 1.838 0 3.657 0 5.496-.2 3.438-.4 7.096-.62 10.754-.2 4.117-.62 8.694-.62 13.032m4.038-32.7c-.44 2.058 0 4.577.22 6.636.22 2.738 0 5.236 0 7.755l.66 10.254c.22 2.518.22 6.396 1.079 8.215m1.079-33.02c-1.08 2.518 0 8.435.42 11.393.22 4.097.86 8.195 1.499 12.073.64 3.417 1.279 6.596 2.119 9.554m-1.62-33.5c-.859 3.198 0 7.296.42 10.474.42 3.638.62 7.735 1.68 11.373 1.059 3.857 2.118 8.175 3.997 11.813" fill="none" stroke="#fff" stroke-width=".32" stroke-linecap="round" stroke-miterlimit="8"/><path d="M162.841 4.817c-.2-.46 0 .92.22 1.14 0 1.159.22 2.058.44 3.197.2 1.6.2 3.199.2 4.798-.2 4.117-1.06 8.235-2.139 12.332-.88 2.738-1.739 5.717-2.818 8.235-.64 1.36-1.5 4.098-2.159 4.777" fill="none" stroke="#fff" stroke-width=".32" stroke-linecap="round" stroke-miterlimit="8"/><path d="M168.778 4.997c-.2 4.137.6 8.015.4 11.913-.2 3.438-.2 6.636-.4 9.834-.2 3.658-.2 7.775.2 11.433m2.558-32.86c.64 1.379.22 3.198.44 4.577 0 1.599.2 3.198.2 4.797.22 3.418.64 6.616.86 10.034.219 3.198.419 6.156 1.058 9.354.22 1.14.64 3.418 1.28 4.098m-9.794-33.18c.2 3.438 1.479 6.636 1.479 10.054 0 3.198-.64 6.396-1.06 9.374-.42 4.557-2.138 9.135-2.778 13.692v-.22" fill="none" stroke="#fff" stroke-width=".16" stroke-linecap="round" stroke-miterlimit="8"/><path d="M9.314 146.911s23.326-.46 38.717-14.591c0 0 2.998 40.355 6.616 48.79 3.438 8.655 10.693 37.617 22.466 42.175 11.973 4.797 19.668 15.27 19.668 25.764 0 10.714 5.337 24.385 19.029 24.385s19.028 5.257 24.385 17.79c5.337 12.532 9.194 10.953 12.193 10.953 3.198 0 14.53-.46 18.588.44 3.858.919 14.112-2.739 16.69-5.457 2.779-2.978 12.613-21.447 29.283-17.57 16.69 3.658 20.107-4.557 21.826-12.752 1.48-8.435 5.557-18.009 17.53-24.625 11.753-6.616 19.668-32.6 24.585-48.11 4.697-15.511 12.832-50.83 8.555-62.703 0 0 15.83 14.831 37.197 15.73 0 0-26.504 12.094-43.614 62.023-6.416 19.369-8.115 26.664-8.115 34.88 0 8.214 3.418 34.418-22.666 36.697-23.965 2.278-21.827 13.232-21.827 13.232s-6.616 18.928-34.839 18.229c-11.133-.44-18.608-3.878-28.442-1.36-10.054 2.5-21.827 4.778-26.084 3.419-4.278-1.14-10.494-2.06-15.611-3.199-5.137-.899-17.97-2.038-20.747-18.468-2.999-16.63-7.496-18.23-17.75-22.327-10.273-4.117-23.945-7.535-23.745-32.6.44-24.865-31.002-82.53-53.888-90.745z" fill="#dd839f" fill-rule="evenodd"/><path d="M170.137 77.273s-32.94 31.021-42.794 78.013c-9.614 46.752-13.052 103.997-3.418 125.204 9.634 20.967 23.746 19.608 36.578 20.068 12.632.46 40.015-1.82 48.79-7.995 8.755-5.917 14.531-20.968 14.112-37.398-.42-16.41-1.72-75.034-5.777-89.166-3.858-14.131-29.522-80.73-47.491-88.726z" fill="#de5388" fill-rule="evenodd"/><path d="M190.185 126.563c-8.755-6.396-17.73-5.017-26.484.9-14.531 10.034-20.308 27.603-23.946 44.493-4.277 19.388-5.976 41.055-6.836 60.903-.42 9.354-1.499 19.848-.859 29.182 0 0-18.169-111.992 36.978-175.414 0 0 19.228 20.088 25.844 44.034l-4.697-4.098z" fill="#d3447f" fill-rule="evenodd"/><path d="M164.26 74.475s-34.199 52.708-39.755 90.565c-5.557 38.097-3.858 102.198-3.858 102.198l-11.753 5.916-22.007-19.828s-39.756-76.653-42.954-91.484c-2.998-14.831-3.438-23.946-3.438-23.946s76.734-81.89 103.038-85.088c26.484-3.198 24.365 6.616 20.727 21.667z" fill="#ed84a6" fill-rule="evenodd"/><path d="M163.061 75.055c-4.277.46-8.115 2.738-12.612 2.978-4.058.22-7.915-1.38-11.553-.92-5.137.46-9.414 6.157-13.472 9.355-5.137 4.317-10.054 8.195-14.771 12.992-10.254 10.034-19.029 21.427-29.302 31.68-3.838 3.878-7.916 6.397-12.613 9.135-7.055 3.858-4.497 7.296-3.218 15.03 1.28 8.676 1.94 18.71 5.777 26.465 3.638 7.975 9.414 10.473 15.83 15.03 8.775 6.617 11.553 13.013 13.692 23.946 1.719 9.115 4.277 20.748 2.778 30.102-.42 3.638-2.358 10.474-6.196 10.254-2.578 0-9.194-8.215-11.133-10.254-3.838-4.118-7.476-8.895-11.114-13.452-10.913-13.232-18.608-29.422-25.024-45.612-5.137-13.212-14.991-32.6-11.134-47.411 2.999-10.714 11.973-23.266 19.469-31.242 8.994-9.574 21.187-16.63 31.66-23.705 10.054-6.836 19.469-14.132 29.942-20.288 7.496-4.337 16.27-8.895 25.025-9.134 4.297 0 8.775.46 12.213 3.198 1.918 1.819 3.617 5.936 4.697 7.075z" fill="#e578a2" fill-rule="evenodd"/><path d="M131.56 69.998s-2.558 9.814-7.475 13.931c-4.697 3.878-38.917 25.545-51.11 38.317-12.192 12.532-20.107 15.27-20.107 15.27s4.057 18.25 4.497 28.064c.42 10.034 7.895 39.676 17.11 46.292 9.194 6.835 28.862 11.413 22.226 44.013 0 0-14.111-19.368-19.668-25.305-5.556-5.936-34.439-53.367-35.298-69.578-.64-16.41-4.278-23.705 6.856-31.7 11.113-7.976 82.97-59.304 82.97-59.304z" fill="#d26692" fill-rule="evenodd"/><path d="m180.39 62.282-2.138 22.587s32.5 41.954 39.536 88.246c6.856 46.052 1.3 90.985 1.3 90.985s19.427 22.566 35.458.92c16.03-21.667 28.003-69.778 32.92-77.993 4.697-8.435 16.87-43.554 16.87-43.554s-50.63-41.515-57.266-54.047c-6.416-12.313-56.625-32.62-66.68-27.144z" fill="#ed84a6" fill-rule="evenodd"/><path d="M231.64 96.422c-5.997-2.739-12.433-5.237-18.43-8.215-4.716-2.28-15.21-6.616-9.414 3.198 5.557 9.134 12.633 15.51 16.91 25.784 5.777 14.591 8.355 30.561 13.712 45.372 6.856 20.308 7.715 38.557 5.137 59.544-.64 7.056.86 15.95 7.915 7.756 6.436-7.296 10.714-20.308 15.65-29.203 13.053-23.026 18.83-51.548 1.7-74.135-5.357-7.055-12.413-13.212-18.41-19.368-4.277-4.577-9.853-10.494-15.21-11.633z" fill="#ee8cb1" fill-rule="evenodd"/><path d="M234.278 126.383c5.117 11.394 10.873 21.208 13.652 33.98 1.279 5.017 2.978 10.254 3.618 15.51.64 4.778-1.28 11.174 1.699 15.511 6.196 9.334 11.513-6.856 13.651-12.313 3.618-9.134 4.258-19.168 1.7-28.522-3.399-13.672-12.153-27.124-24.726-31.461-5.337-1.84-17.49-.68-10.453 7.755z" fill="#ee93b8" fill-rule="evenodd"/><path d="M177.213 72.316s32.92 43.794 42.314 91.904c9.394 47.891 7.695 93.044 7.695 93.044s3.838 18.929 12.813 14.152c0 0 6.616-21.208 12.812-22.587 0 0-19.428 11.413-17.73-1.599 1.5-13.212 5.557-135.917-57.904-174.914z" fill="#e578a2" fill-rule="evenodd"/><path d="M119.528 248.85c0 15.95 2.138 38.296 17.749 46.051 8.755 4.338 18.169 5.917 27.563 4.558 10.054-1.36 22.446.46 32.28-2.499 12.813-4.117 20.308-17.33 21.587-31.48 1.5-16.87 4.478-43.535-4.057-59.045-9.195-16.63-27.144-22.347-44.473-22.107-14.731 0-37.397 5.237-44.233 20.508-4.278 9.134-5.357 18.928-6.416 29.182-.42 3.878-1.08 12.772 1.059 16.19z" fill="#d03977" fill-rule="evenodd"/><path d="M180.99 75.274s55.147 55.387 48.73 170.257c-1.079 15.27 2.14 19.368 13.453 22.547 0 0-13.252 11.393-22.647 9.354-9.614-2.059-12.392-10.934-12.392-10.934S229.92 156.185 169.857 82.81l11.133-7.536zm-22.506 0s-55.327 55.387-48.71 170.257c.859 15.27-2.14 19.368-13.472 22.547 0 0 13.252 11.393 22.666 9.354 9.614-2.059 12.392-10.934 12.392-10.934S109.554 156.185 169.377 82.81l-10.893-7.536z" fill="#fad8d2" fill-rule="evenodd"/><path d="M231.5 260.842c-4.498-6.616-5.997-13.912-5.997-22.147m-117.448 21.987c5.416-5.477 7.795-14.851 7.995-22.626" fill="none" stroke="#343434" stroke-width=".8" stroke-linecap="round" stroke-miterlimit="8"/><path d="M145.552 65.88s5.357 16.91 24.385 16.91c19.228 0 25.425-17.83 25.425-17.83l-49.81.92z" fill="#f5bacf" fill-rule="evenodd"/><path d="M48.33 135.718c.86 9.814 3.419 36.698 6.417 43.533 3.418 8.195 10.693 35.999 22.426 40.336 11.973 4.557 19.668 14.571 19.668 24.825 0 10.034 5.337 23.246 19.009 23.246s19.008 5.237 24.365 17.09c5.337 12.072 9.174 10.493 12.173 10.493 3.198 0 14.53-.46 18.588.44 3.838.92 14.092-2.499 16.67-5.237 2.779-2.958 12.593-20.508 29.263-16.85 16.67 3.638 20.087-4.337 21.786-12.312 1.5-7.976 5.557-17.09 17.53-23.466 11.753-6.376 19.648-31.441 24.565-46.252 4.057-12.992 10.673-40.336 9.614-54.927" fill="none" stroke="#343434" stroke-width=".8" stroke-linecap="round" stroke-miterlimit="8"/><path d="M212.451 273.154c-3.218-2.958-4.277-6.596-4.277-6.596S229.98 156.205 169.857 82.79" fill="none" stroke="#343434" stroke-width=".8" stroke-linecap="round" stroke-miterlimit="8"/><path d="M184.008 78.632c11.533 13.692 51.25 68.459 45.713 167.04-.86 12.092 1.06 17.349 7.455 20.527m-107.934 4.477c1.479-2.279 2.118-4.098 2.118-4.098S109.574 156.225 169.377 82.79" fill="none" stroke="#343434" stroke-width=".8" stroke-linecap="round" stroke-miterlimit="8"/><path d="M155.546 78.632c-11.313 13.472-51.25 68.239-45.693 167.02.64 10.053-.42 15.29-4.697 18.708" fill="none" stroke="#343434" stroke-width=".8" stroke-linecap="round" stroke-miterlimit="8"/><path d="M147.71 70.437c2.999 4.797 9.615 12.353 22.227 12.353 13.032 0 20.068-8.235 23.266-13.512" fill="none" stroke="#343434" stroke-width=".8" stroke-linecap="round" stroke-miterlimit="8"/><path d="M142.034 171.236s31.5-15.27 59.324 3.178c0 0-29.322-30.301-59.324-3.178zm6.876-22.106s25.005-12.573 45.092 1.139c0 0-23.066-21.507-45.092-1.14zm3.837-19.169s13.272-14.131 36.778-.68c0 0-18.169-20.987-36.778.68z" fill="#d3447f" fill-rule="evenodd"/><path d="M142.913 206.515s24.366-22.986 56.606.68c0 0-33.1-14.552-56.606 0zm.64 31.361s29.702-21.647 55.966 2.498c0 0-28.822-18.448-55.966-2.498z" fill="#c6236d" fill-rule="evenodd"/><path d="M144.752 85.748c-5.137 1.14-12.192 17.11-15.19 22.346-5.357 8.655-9.215 17.77-12.653 27.584-5.776 15.73-9.634 32.6-11.133 49.23-.22 2.738.42 11.633-1.72 13.212-3.417 2.279-9.633-7.975-11.992-10.014-11.133-10.274-21.427-28.503-10.913-42.854 5.556-7.755 13.692-13.452 19.908-20.288 6.436-7.075 13.711-13.671 19.068-21.667 4.278-5.916 14.352-23.705 23.126-21.407.22.22.66.68.86.9 0 .92.22 2.059 0 2.958z" fill="#ee8cb1" fill-rule="evenodd"/><path d="M96.721 137.057c-3.857 7.515-10.473 12.772-10.913 22.127-.22 5.916 11.993 29.861 15.63 18.228 1.92-5.916.64-13.451 2.34-19.828 1.498-4.797 4.277-11.413 3.857-16.65-.22-4.797-8.775-12.332-10.914-4.797z" fill="#ee93b8" fill-rule="evenodd"/><path d="M193.203 89.106s43.653 51.988 38.097 152.068c0 0 15.39-83.43-38.097-152.068z" fill="#d26692" fill-rule="evenodd"/><path d="M169.937 68.379c-.84-.94-3.838-.24-4.897-.24-1.919.24-3.618.7-5.537 1.159-1.919.22-3.637.46-5.556.92-.64 0-2.978-.24-2.978.919-.22 2.298 8.954 13.332 24.085 9.434 3.198-.92-3.618-4.377-4.258-5.297-2.138-2.078-1.499-4.597-1.059-6.895z" fill="#f7cdde" fill-rule="evenodd"/><path d="M181.49 78.313c1.5-.68 3.418-2.32 4.917-3.478 1.06-.7 3.838-2.779 3.838-4.178 0-1.619-8.115-1.859-9.834-1.619.44 1.62 2.798 2.319 2.998 4.417.22 1.86-.86 3.698-1.919 4.858z" fill="#f1a4c1" fill-rule="evenodd"/><path d="M151.868 72.156s5.357 10.154 21.827 8.355c0 0-13.892 1.36-21.827-8.355z" fill="#fff" fill-rule="evenodd"/><path d="M151.228 72.356a.76.76 0 1 1 1.519 0 .76.76 0 0 1-1.519 0z" fill="#fff" fill-rule="evenodd"/><path d="M9.314 146.231s23.326-.46 38.717-13.911c0 0 2.998 38.536 6.616 46.971 3.438 8.215 10.693 36.019 22.466 40.356 11.973 4.557 19.668 14.591 19.668 24.845 0 10.034 5.337 23.266 19.029 23.266s19.028 5.237 24.385 17.11c5.337 12.072 9.194 10.473 12.193 10.473 3.198 0 14.53-.46 18.588.46 3.858.92 14.112-2.499 16.69-5.237 2.779-2.978 12.613-20.528 29.283-16.87 16.69 3.638 20.107-4.337 21.826-12.312 1.48-7.996 5.557-17.11 17.53-23.486 11.753-6.396 19.668-31.481 24.585-46.292 4.697-15.051 12.832-48.79 8.555-60.204 0 0 15.83 14.372 37.197 15.051 0 0-26.504 11.633-43.614 59.744-6.416 18.469-8.115 25.545-8.115 33.28 0 7.995 3.418 33.08-22.666 35.358-23.965 2.04-21.827 12.753-21.827 12.753s-6.616 18.029-34.839 17.33c-11.133-.22-18.608-3.639-28.442-1.14-10.054 2.279-21.827 4.557-26.084 3.198-4.278-1.14-10.494-2.059-15.611-2.958-5.137-.92-17.97-2.059-20.747-18.01-2.999-15.75-7.496-17.329-17.75-21.206-10.273-3.878-23.945-7.296-23.745-31.242.44-24.165-31.002-79.351-53.888-87.327z" fill="#f5bccc" fill-rule="evenodd"/><path d="M9.314 146.171c51.749 0 69.078-107.195 159.943-107.195 90.865 0 96.202 107.195 160.343 107.195 0 0-26.724 7.056-63.501-27.823-36.978-34.899-50.45-51.309-96.842-51.309-46.391 0-103.917 57.006-103.917 57.006S41.615 146.17 9.314 146.17z" fill="#f7c9d9" fill-rule="evenodd"/><path d="M326.642 146.511s-26.504 11.613-43.614 59.724c-6.416 18.449-8.115 25.525-8.115 33.28 0 7.975 3.418 33.04-22.666 35.318-23.965 2.06-21.827 12.773-21.827 12.773s-6.616 18.009-34.839 17.31c-11.133-.22-18.608-3.639-28.442-1.14-10.054 2.279-21.827 4.557-26.084 3.198-4.278-1.14-10.494-2.059-15.611-2.958-5.137-.92-17.97-2.059-20.747-18.01-2.999-15.73-7.496-17.329-17.75-21.206-10.273-3.858-23.945-7.296-23.745-31.222.44-24.165-31.002-79.311-53.888-87.307" fill="none" stroke="#343434" stroke-width=".8" stroke-linecap="round" stroke-miterlimit="8"/><path d="M9.314 146.171c51.749 0 69.078-107.195 159.943-107.195 90.865 0 96.202 107.195 160.343 107.195 0 0-26.724 7.056-63.501-27.823-36.978-34.899-50.45-51.309-96.842-51.309-46.391 0-103.917 57.006-103.917 57.006S41.615 146.17 9.314 146.17" fill="none" stroke="#343434" stroke-width=".8" stroke-linecap="round" stroke-miterlimit="8"/><path d="M163.221 87.107s-52.768 59.044-36.318 167.099c0 0-14.311-97.56 36.318-167.099z" fill="#fff" fill-rule="evenodd"/><path d="M160.583 84.149s-43.074 44.473-40.936 152.548c0 0-10.073-93.244 40.936-152.548z" fill="#fff" fill-rule="evenodd"/><path d="M156.265 84.149s-45.772 57.925-43.633 155.746c0 0-9.854-82.77 43.633-155.746zm20.948 2.958s52.768 59.044 36.318 167.099c0 0 14.111-97.56-36.318-167.099z" fill="#fff" fill-rule="evenodd"/><path d="M179.691 84.149s43.254 44.473 40.895 152.548c0 0 10.274-93.244-40.895-152.548z" fill="#fff" fill-rule="evenodd"/><path d="M184.248 84.149s45.773 57.925 43.414 155.746c0 0 9.834-82.77-43.414-155.746z" fill="#fff" fill-rule="evenodd"/><path d="M209.633 266.339c.86 1.359 1.719 3.637 2.998 4.777 1.72 1.139 4.717.92 6.656 1.139 1.28 0 2.359.68 3.638.68 1.28.22 2.798.22 4.077 0 2.359-.46 5.137-2.04 7.076-3.878 2.778-2.499-1.28-5.237-2.778-7.516-.66-1.139-1.52-2.038-2.159-2.958-.64-1.139-1.06-2.718-1.919-3.418-1.08 2.519-.86 5.477-3.657 6.616-1.28.46-1.28-.24-2.36-.46-1.498-.46-.859 1.14-1.918 1.82-.86.68-.86-.46-1.719-.68-.64-.22-.64 0-1.28.46-1.298.68-2.378 0-3.877.22-1.279.46-3.218 2.058-2.558 3.637zm18.869-13.492c-.22-2.039-1.08-4.078-1.3-6.117 0-1.139-.66-4.777.22-5.236.2.46.42.7.86.92 0 .219.22 0 .22.219.2.24.2.92 0 1.14 0 1.139-.22 2.278-.22 3.397 0 2.059 0 3.878.42 5.677zm-117.829-11.853c.66 1.619.44 3.898.44 5.497 0 1.159-.22 2.298-.22 3.438 0 1.159.22 2.298 0 3.437 0 .92-.22 1.84-.44 2.519a35.7 35.7 0 0 0 1.739-4.337c.64-1.38.86-2.759 1.3-3.898.419-1.16.639-2.299.859-3.438 0-.92.42-2.758 0-3.678-.66.92-.66 2.978-2.159 2.079-.44-.46-.66-1.16-1.3-1.16zm-4.058 23.286c1.08-.7 1.52-1.6 2.379-2.739.64-.68 1.06-.68 1.719-1.119 1.06-.24 1.699-1.14 2.558-2.039.86-1.139 1.08-.24 1.08.68.44 1.36 1.079 1.36 1.939.68 1.059-.68 1.718-1.82 2.778-1.6 1.3 0 2.358 1.14 3.218 1.82 0-1.14.44-1.82 1.3-1.82.859.24 1.918 1.36 2.777.46.66-.68.44-.9 1.3-1.139.22-.22.86-.46 1.079-.46.64.46.64 2.739.86 3.418 0 1.12 0 2.039.2 2.938.22 2.04.639 4.078-1.06 5.677-.66.44-1.3 0-1.939-.46-1.08-.68-2.358-1.14-3.438-1.359-1.08 0-2.138 0-3.218-.22-.86-.24-1.719-.46-2.578-.68-1.5 0-2.998 0-4.717-.24-.64 0-1.3 0-2.14-.22-.659 0-1.078-.679-1.718-.899-.66-.46-1.719-.24-2.159-.68z" fill="#f7c4bf" fill-rule="evenodd"/><path d="M288.865 138.376s-.64 44.533-24.905 89.526c0 0 28.543-67.819 15.25-97.301 0 0 9.215 5.257 9.655 7.775zM185.048 78.972s5.976-4.117 8.755-9.374c0 0 1.918.46 3.397 1.16 0 0-10.653 3.637-9.374 11.392 0 0-2.778-2.738-2.778-3.178z" fill="#d26692" fill-rule="evenodd"/><path d="M146.751 121.247s15.43-31.861 22.926-37.098c0 0 14.351 15.71 21.847 35.738 0 0-15.85-29.802-21.627-30.041-5.776-.46-23.146 31.4-23.146 31.4z" fill="#c62f74" fill-rule="evenodd"/><path d="M131.54 249.489c-.42 6.836 3.858 13.212.86 19.808 5.357 3.198 7.935 8.655 10.274 14.351 3.218 7.516 10.273 9.794 17.989 10.474 3.637.22 7.055-1.14 10.493-1.36 4.058-.24 6.636.46 10.054-1.818 7.496-4.797 9.854-13.212 17.99-16.41 2.558-1.14 5.776-1.36 8.134-2.719-1.499-4.557-1.079-8.215-.44-12.992.44-3.418 1.5-8.415-2.778-6.376-3.638 1.599-7.495 7.296-10.913 9.574-6.216 4.318-13.052 7.955-20.987 7.516-13.472-1.14-19.908-9.115-28.683-17.99-2.778-2.738-13.492-11.173-12.412-1.379z" fill="#c6236d" fill-rule="evenodd"/><path d="M149.39 164.68s19.927-15.49 45.812 3.418c0 0-18.609-25.984-45.813-3.418zm3.198-20.228s21.786-12.632 36.937 1.82c0 0-13.452-19.509-36.937-1.82zm3.997-19.907s14.351-13.932 30.622 1.579c0 0-12.833-20.548-30.622-1.58zm-9.994 78.212s21.167-16.03 48.29.44c0 0-23.705-20.148-48.29-.44zm2.319 30.841s23.565-14.47 46.452 2.299c0 0-21.387-20.228-46.452-2.299z" fill="#e8669a" fill-rule="evenodd"/><path d="M68.898 228.941c2.339-7.755 13.052-4.557 17.97-1.14 3.637 2.74 9.194 17.57 2.358 20.069-3.218 1.14-5.137-2.958-7.056-4.557-2.798-2.499-6.216-2.04-9.214-3.878-2.779-2.039-5.357-7.056-4.058-10.714zm42.295 53.648c-1.5-1.82-1.94-6.157-.44-8.195 1.499-2.06 5.557-2.519 7.915-2.519 2.978.24 6.396.92 9.175 2.059 3.857 1.599 4.917 4.997 6.416 8.655.86 2.278 3.617 8.415.42 10.234-2.34 1.359-6.397-3.638-8.975-4.318-4.697-1.14-11.953 2.499-14.092-4.337zm80.231 10.933c.22-7.795 8.795-13.532 14.791-16.07 3.658-1.38 8.155-2.299 12.013-1.38 2.778.7 7.275 4.378 5.996 8.036-1.499 4.377-8.795 2.758-11.993 4.597-1.938 1.38-3.018 3.438-4.717 4.817-1.939 1.38-3.857 1.839-6.016 2.079-3.418.46-7.496.9-10.294-1.38zm53.907-27.483c-2.798-.46-2.578-6.596-2.138-8.655.84-4.317 3.198-9.314 6.196-12.273 3.638-3.397 15.39-9.774 18.389-1.818 1.06 3.198-.42 5.456-2.998 7.055-3.418 2.499-6.417 4.098-8.335 8.415-.86 2.499-1.5 6.136-4.058 7.496-1.08.68-5.577.9-6.416 0z" fill="#f7cbda" fill-rule="evenodd"/><path d="M84.629 93.263s31.44-44.892 81.05-44.892 79.333 36.917 79.333 36.917-76.554-65.66-160.383 7.975z" fill="#f7d5e2" fill-rule="evenodd"/><path d="M112.052 70.477S169.837 32.18 218.388 67.3c0 0-39.996-29.862-106.336 3.178zM74.635 228.422c0-1.7 1.219-3.079 2.718-3.079 1.52 0 2.718 1.38 2.718 3.079 0 1.719-1.199 3.078-2.718 3.078-1.499 0-2.718-1.36-2.718-3.078zm7.675 5.196c0-.76.6-1.399 1.32-1.399.739 0 1.319.64 1.319 1.4 0 .779-.58 1.399-1.32 1.399-.72 0-1.319-.62-1.319-1.4zm32.3 42.295c0-1.6 1.28-2.918 2.839-2.918 1.579 0 2.838 1.319 2.838 2.918 0 1.619-1.26 2.918-2.838 2.918-1.56 0-2.838-1.3-2.838-2.918zm9.994 5.917c0-.98.74-1.8 1.64-1.8.919 0 1.638.82 1.638 1.8 0 .999-.72 1.798-1.639 1.798-.899 0-1.639-.8-1.639-1.799zm88.746-3.559c0-1.319 1.02-2.398 2.24-2.398 1.239 0 2.238 1.08 2.238 2.398 0 1.34-1 2.399-2.239 2.399-1.219 0-2.238-1.06-2.238-2.399zm-5.676 3.799c0-.76.62-1.4 1.36-1.4.759 0 1.358.64 1.358 1.399 0 .78-.6 1.4-1.359 1.4-.74 0-1.359-.62-1.359-1.4zm51.009-40.456c0-1.34 1.02-2.439 2.239-2.439 1.24 0 2.239 1.1 2.239 2.439 0 1.359-1 2.438-2.24 2.438-1.218 0-2.238-1.08-2.238-2.438zm-5.676 6.076c0-.98.8-1.799 1.759-1.799.979 0 1.759.82 1.759 1.799 0 1-.78 1.799-1.76 1.799-.959 0-1.758-.8-1.758-1.8z" fill="#fff" fill-rule="evenodd"/><path d="M149.23 69.798c0-.64.42-1.16.919-1.16.52 0 .92.52.92 1.16 0 .66-.4 1.159-.92 1.159-.5 0-.92-.5-.92-1.16z" fill="#fff" fill-rule="evenodd"/><path clip-path="url(#a)" d="M192.164 11.273c-2.799 16.65 22.006 25.545 32.7 31.021 13.671 7.296 24.585 15.95 34.839 28.263 14.97 17.57 29.722 40.816 48.53 53.828C337.096 144.432 332.4 97.02 332.4 77.853c0-18.929 6.396-61.563-14.752-67.26-24.385-6.396-50.889 3.419-75.254 3.419-11.333 0-20.947-1.36-31.42-3.658-5.358-1.14-18.81-5.917-18.81 2.738z" fill="#f3adc3" fill-rule="evenodd"/><path d="M147.71 9.434c-2.138 15.051-9.614 18.01-22.226 22.786-14.131 5.477-25.245 11.414-36.578 21.887-19.028 17.79-34.859 38.297-50.69 59.264-3.217 4.098-12.612 18.909-18.828 17.33-7.915-2.059-3.837-33.74-3.418-41.255.64-15.73.22-31.461.86-47.192.42-9.794 1.06-24.165 11.753-27.343 10.693-3.418 27.603 1.36 39.576.9 10.473-.46 20.967-1.14 31.44-1.82 9.415-.68 40.416-11.632 47.272-3.637zM10.014 225.663c-4.058 2.739 16.67 32.62 19.868 37.178 7.475 10.953 16.87 21.447 26.484 30.121 7.915 7.056 15.59 12.533 24.565 17.79 3.198 1.819 16.01 5.696 16.23 10.253.42 8.435-70.057 3.199-77.313 2.979-4.277-.24-6.416-.92-7.475-5.017-1.28-5.017-.64-11.413-.42-16.43.42-11.853 1.06-24.186 0-36.039-.86-8.674-2.779-17.329-2.779-26.224 0-4.337 2.14-11.173.42-14.61z" fill="#f3adc3" fill-rule="evenodd"/><path clip-path="url(#a)" d="M222.285 319.946c2.139.22 7.056-1.38 9.854-2.279 4.697-1.838 10.034-2.738 14.531-4.797 7.056-3.198 14.752-6.156 21.388-10.493 13.471-8.435 25.884-18.49 35.278-31.94 7.496-11.194 14.551-25.326 18.829-38.338 1.06-3.198 2.558-11.872 7.055-10.493 4.698 1.359 2.359 13.452 1.92 17.35-2.14 17.109-3.199 34.678-3.199 52.008 0 9.594 2.998 23.965-1.499 32.64-7.275 13.672-33.36 5.477-44.273 5.017-17.53-.92-35.498.22-53.248.46-4.057 0-10.054 0-12.832-3.438-3.858-4.098 0-4.098 3.638-5.017z" fill="#f3adc3" fill-rule="evenodd"/><path clip-path="url(#a)" d="M59.764 282.509s86.188 77.953 207.874 7.755c0 0-101.799 65.42-207.874-7.755z" fill="#dd839f" fill-rule="evenodd"/><path d="M18.509 234.378s23.106 76.114 132.56 87.967c0 0-97.481 4.777-132.56-87.967zm174.054 86.607s84.07-2.498 119.768-76.773c0 0-27.584 78.592-119.768 76.773z" fill="#fff" fill-rule="evenodd"/><path d="M13.312 147.09s21.047-1.618 34.979-10.333c0 0 1.299 15.59 2.358 25.445 0 0-13.731-7.776-16.29 3.897 0 0-12.892-15.35-21.047-19.008zm275.513 12.473s2.778-16.83 1.939-21.607c0 0 15.99 9.115 32.2 9.335 0 0-9.374 6.136-19.408 18.409 0 0-3.418-10.214-14.731-6.137z" fill="#eea5c0" fill-rule="evenodd"/><path d="M290.884 137.956s17.57 9.635 32.56 9.415c0 0-1.919 1.139-3.838 2.738 0 0-24.645-9.854-28.942-3.898 0 0 .86-7.095.22-8.255zM13.312 147.03s24.425-2.737 34.919-10.273c0 0 0 2.978.42 5.477 0 0-25.905 2.738-27.624 10.034 0 0-6.216-5.237-7.715-5.237z" fill="#d889a9" fill-rule="evenodd"/><path d="M47.451 139.076s2.779 48.39 21.347 73.955c0 0-20.048-21.447-21.347-73.955zm244.332 0s-4.697 59.783-28.463 93.303c0 0 24.825-29.642 28.463-93.303zM53.608 131.4s8.994-6.616 26.084-21.447c17.09-14.85 45.092-34.938 65.38-39.276 0 0-11.953-.92-52.768 27.404-10.054 7.075-38.696 33.32-38.696 33.32zm246.57 8.875s-24.805-13.212-33.58-23.266c-8.774-10.034-37.217-36.498-54.766-43.574 0 0 20.967 6.397 41.295 28.983 20.327 22.586 47.051 37.857 47.051 37.857zm-148.95-99.54c0-1.059.84-1.919 1.84-1.919 1.019 0 1.838.86 1.838 1.92 0 1.059-.82 1.918-1.839 1.918-1 0-1.839-.86-1.839-1.919zm5.357-.679c0-.68.6-1.24 1.32-1.24.739 0 1.319.56 1.319 1.24 0 .7-.58 1.239-1.32 1.239-.72 0-1.319-.54-1.319-1.24zm-9.994 1.279c0-.72.6-1.32 1.32-1.32.739 0 1.319.6 1.319 1.32 0 .74-.58 1.32-1.32 1.32-.72 0-1.319-.58-1.319-1.32zm17.989 46.052c0-.76.52-1.4 1.16-1.4.66 0 1.159.64 1.159 1.4 0 .78-.5 1.4-1.16 1.4-.64 0-1.159-.62-1.159-1.4zm-1.679 3.398c0-.34.34-.64.76-.64s.76.3.76.64c0 .36-.34.64-.76.64s-.76-.28-.76-.64zm147.911 54.807c0-.9.7-1.64 1.559-1.64.88 0 1.559.74 1.559 1.64 0 .92-.68 1.639-1.56 1.639-.859 0-1.558-.72-1.558-1.64zm5.356 1.239c0-.6.5-1.12 1.08-1.12.6 0 1.08.52 1.08 1.12 0 .62-.48 1.12-1.08 1.12-.58 0-1.08-.5-1.08-1.12zm-288.865-2.918c0-.72.52-1.32 1.16-1.32.66 0 1.159.6 1.159 1.32 0 .74-.5 1.319-1.16 1.319-.639 0-1.159-.58-1.159-1.32zm4.797-.84c0-1.179.9-2.158 2-2.158 1.119 0 1.998.979 1.998 2.158 0 1.2-.88 2.159-1.999 2.159-1.099 0-1.998-.96-1.998-2.159z" fill="#fff" fill-rule="evenodd"/><path d="M134.279 103.577s-29.642 49.23-27.504 124.645c0 0-6.876-74.055 27.504-124.645zm74.115-3.597s35.318 54.706 28.482 125.363c0 0 11.973-63.82-28.482-125.364zm39.976 6.156s53.087 33.96 17.549 101.378c0 0 39.376-60.143-17.55-101.378z" fill="#f2acc9" fill-rule="evenodd"/><path d="M124.924 121.087s-12.732 33.74-17.829 74.994c0 0 8.495-61.303 17.83-74.994zm98.261 7.355s12.352 31.421 13.192 50.77c0 0-.42-24.346-13.192-50.77zm-3.678-5.437c0-.38.38-.72.84-.72.48 0 .839.34.839.72 0 .4-.36.72-.84.72-.46 0-.839-.32-.839-.72zm-2.638-4.677c0-.76.6-1.399 1.319-1.399.74 0 1.319.64 1.319 1.4 0 .779-.58 1.398-1.32 1.398-.719 0-1.318-.62-1.318-1.399zM106.615 199c0-.58.46-1.08 1-1.08.56 0 1 .5 1 1.08 0 .599-.44 1.079-1 1.079-.54 0-1-.48-1-1.08zm.48 4.397c0-.36.28-.68.6-.68.34 0 .6.32.6.68 0 .38-.26.68-.6.68-.32 0-.6-.3-.6-.68z" fill="#fff" fill-rule="evenodd"/><path d="M163.221 98.46s-44.773 53.828-30.062 161.902c0 0-8.095-98.96 30.062-161.902z" fill="#de5388" fill-rule="evenodd"/><path d="M154.746 112.292s-28.862 48.77-23.086 127.603c0 0-4.277-68.12 23.086-127.603z" fill="#e8669a" fill-rule="evenodd"/><path d="M144.033 137.237s-14.791 43.813-12.852 85.308c0 0-1.5-33.98 12.852-85.308zm15.031 3.458s16.45-6.157 25.184 1.579c0 0-7.675-8.875-25.184-1.58zm2.478 18.009s16.89-4.497 26.704 4.037c0 0-8.535-9.674-26.704-4.037zm-2.478 38.096s15.37-4.317 25.184 1.12c0 0-11.093-7.036-25.184-1.12z" fill="#ee8cb5" fill-rule="evenodd"/></svg>