<svg xmlns="http://www.w3.org/2000/svg" version="1.0" viewBox="0 0 98.419 95.395"><defs><clipPath clipPathUnits="userSpaceOnUse" id="a"><path d="M1.04 3.278H99.3V98.74H1.04z"/></clipPath></defs><path clip-path="url(#a)" d="M28.023 18.789C16.19 26.544 6.236 33.459 3.558 47.33c-1.919 11.393-1.52 24.026 5.756 34.22 16.03 22.826 54.287 20.387 75.674-5.677C106.376 49.77 97.981 17.15 79.632 8.195c-17.95-6.556-27.144-3.278-51.609 10.594z" fill="#f5765d" fill-rule="evenodd"/><path clip-path="url(#a)" d="M79.272 10.194c-6.516-2.039-11.473-3.278-16.83-2.838 4.198 0 8.035 1.199 13.032 2.838 17.59 8.555 25.265 39.936 4.957 64.4-10.353 13.033-25.264 19.949-39.456 20.348 14.951.4 31.78-6.116 43.294-20.347 20.268-24.465 12.233-55.846-4.997-64.401z" fill="#f44d32" fill-rule="evenodd"/><path d="M14.271 79.952c-6.875-10.194-7.275-22.027-5.356-32.62 2.678-12.633 11.872-19.549 23.345-26.465C45.652 12.712 54.447 8.635 62.482 7.396c-9.554 0-18.349 4.517-34.06 13.471C17.35 27.783 7.756 34.7 5.478 47.331c-2.319 11.034-1.52 22.826 5.356 32.62 7.636 10.994 20.668 15.87 34.46 14.672-12.273 0-23.746-4.877-31.022-14.671z" fill="#f9bba6" fill-rule="evenodd"/><path d="M58.604 25.305c23.706.84 22.947 30.621-2.278 43.653-25.225 13.032-35.579-4.077-34.78-14.67.76-13.872 22.947-28.544 37.058-28.983z" fill="#f44d32" fill-rule="evenodd"/><path d="M70.118 29.302c6.516 9.794 1.159 26.944-16.87 36.338-13.392 6.916-22.547 5.277-27.943.8 4.997 6.916 14.95 10.993 31.02 2.438 20.309-10.194 24.866-30.981 13.793-39.576zM49.85 26.504c-9.954 2.039-22.587 12.272-25.665 19.988 4.997-5.277 16.11-15.87 25.665-19.988z" fill="#e12a19" fill-rule="evenodd"/><path d="M40.256 74.635c7.675.8 35.938-9.794 36.338-33.1 1.878 9.834-9.555 33.9-36.338 33.1z" fill="#fefefe" fill-rule="evenodd"/><path clip-path="url(#a)" d="M28.063 18.829C16.23 26.584 6.276 33.499 3.598 47.37c-1.919 11.393-1.52 24.026 5.756 34.22 16.03 22.826 54.287 20.387 75.674-5.677C106.416 49.81 98.021 17.19 79.672 8.235c-17.95-6.556-27.144-3.278-51.609 10.594" fill="none" stroke="#333" stroke-width="1.679" stroke-linecap="round" stroke-linejoin="round"/><path d="M58.644 25.305c9.195.44 14.911 5.316 16.43 13.072 1.92 8.954-3.038 21.986-18.708 30.141-14.152 7.316-22.586 4.878-27.184 1.6-5.356-4.038-8.035-10.994-7.635-15.87-.4 5.276 1.519 12.232 7.276 16.31 4.957 3.637 13.391 6.076 27.903-1.24 15.71-8.155 21.027-21.987 19.148-31.381-1.559-7.715-8.035-12.193-17.23-12.632z" fill="#333" fill-rule="evenodd"/></svg>