<svg xmlns="http://www.w3.org/2000/svg" version="1.0" viewBox="0 0 352.932 42.293"><defs><clipPath clipPathUnits="userSpaceOnUse" id="a"><path d="M-.16-.16h352.506v42.294H-.16z"/></clipPath></defs><path clip-path="url(#a)" d="M1.04 1.04c33.34 20.307 72.435 14.07 108.254 10.153 19.148-2.318 38.736-4.677 57.885-3.118 30.381 1.56 60.763 9.354 89.905 16.39 30.382 7.795 60.364 17.91 94.063 16.35-32.02-1.559-63.241-10.913-94.063-17.909-29.142-7.795-59.124-15.59-89.506-17.15-19.548-1.559-39.136.76-58.284 3.119-35.819 4.677-73.276 9.354-108.255-7.836z" fill="silver" fill-rule="evenodd"/><path clip-path="url(#a)" d="M1.04 1.04c33.34 20.307 72.435 14.07 108.254 10.153 19.148-2.318 38.736-4.677 57.885-3.118 30.381 1.56 60.763 9.354 89.905 16.39 30.382 7.795 60.364 17.91 94.063 16.35-32.02-1.559-63.241-10.913-94.063-17.909-29.142-7.795-59.124-15.59-89.506-17.15-19.548-1.559-39.136.76-58.284 3.119-35.819 4.677-73.276 9.354-108.255-7.836" fill="none" stroke="silver" stroke-width="1.039" stroke-linejoin="round"/></svg>