<svg xmlns="http://www.w3.org/2000/svg" version="1.0" viewBox="0 0 295.861 31.37"><defs><clipPath clipPathUnits="userSpaceOnUse" id="a"><path d="M-.16 2.319h295.501v31.34H-.159z"/></clipPath></defs><path clip-path="url(#a)" d="M1.04 8.075c32.94-4.677 78.392-3.878 127.522 7.795C181.33 28.343 230.98 30.701 283.228 33.02h11.473l-11.473-1.56c-52.248-3.117-101.378-5.436-154.666-17.908C79.432 1.839 36.578 1.039 1.04 8.075z" fill="silver" fill-rule="evenodd"/><path clip-path="url(#a)" d="M1.04 8.075c32.94-4.677 78.392-3.878 127.522 7.795C181.33 28.343 230.98 30.701 283.228 33.02h11.473l-11.473-1.56c-52.248-3.117-101.378-5.436-154.666-17.908C79.432 1.839 36.578 1.039 1.04 8.075" fill="none" stroke="silver" stroke-width="1.039" stroke-linejoin="round"/></svg>