<svg xmlns="http://www.w3.org/2000/svg" version="1.0" viewBox="0 0 167.055 173.783"><defs><clipPath clipPathUnits="userSpaceOnUse" id="a"><path d="M2.798 1.28h166.86v173.894H2.797z"/></clipPath></defs><path clip-path="url(#a)" d="M83.71 2.558C59.963.76 41.214 17.67 25.783 34.54 7.875 54.527.76 89.626 4.957 117.61c3.318 23.106 27.503 37.777 45.412 47.53 23.746 12.873 50.41 11.114 73.756-.439 38.736-19.108 57.485-76.833 33.74-118.168C144.552 23.427 110.373 1.68 83.709 2.559z" fill="#abd4eb" fill-rule="evenodd"/><path d="M45.532 33.18C26.784 49.65 15.95 85.188 20.548 108.334c3.318 15.111 14.55 15.111 23.745 24.905 10.794 11.553 21.227 17.75 36.618 14.192 11.633-2.639 22.067-7.556 34.14-7.996 12.472 0 23.305-3.557 29.541-15.55 12.913-24.465 18.709-58.245-3.757-77.353-6.237-5.357-10.394-11.553-17.91-15.99-9.554-6.237-19.947-7.596-30.78-8.915-14.552-2.239-35.82 1.32-46.613 11.553z" fill="#cca6bd" fill-rule="evenodd"/><path d="M57.485 162.941c-16.63-9.314-39.536-23.106-42.454-44.853-3.758-26.184 2.478-59.044 19.588-77.712 14.151-15.99 31.62-31.981 54.127-30.182 6.636 0 14.152 1.319 21.627 3.518-9.554-3.998-19.548-6.197-28.303-6.197-22.466-1.798-39.976 14.192-54.127 30.182C10.873 56.366 4.597 89.666 8.355 115.41c2.918 21.787 25.824 35.539 42.494 44.853 3.758 2.239 7.476 3.558 11.233 4.877-1.239-.88-2.918-1.32-4.597-2.199z" fill="#eaf1f9" fill-rule="evenodd"/><path clip-path="url(#a)" d="M154.626 49.21c-4.157-7.076-10.393-13.751-17.51-19.988 4.598 4.478 8.756 9.794 11.674 14.671 22.506 39.097 5.037 93.704-32.06 111.933-22.107 10.673-47.532 12.872-69.639.44-7.915-3.998-16.67-9.315-24.185-15.551 8.755 8.874 20.028 15.55 29.622 20.867 22.507 12.433 47.931 10.234 70.038-.44 36.657-18.189 54.567-72.836 32.06-111.932z" fill="#8abde2" fill-rule="evenodd"/><path d="M30.901 118.448c19.588.48 27.064 24.865 47.891 23.546 9.554-.44 18.31-6.196 27.863-7.116 7.076-.88 13.312 0 19.988-3.518 13.752-7.995 18.31-23.545 21.627-39.536 1.28-7.555 2.079-15.99 0-23.106-2.478-9.754-8.315-12.872-13.712-19.988 8.315 10.234 9.155 27.984 6.636 39.976-4.157 19.109-18.308 20.428-34.539 25.745-7.075 2.678-12.872 7.115-19.548 10.233-9.154 3.998-11.673 1.76-19.988-.879-10.793-3.558-28.702-3.998-36.218-5.357z" fill="#ba94aa" fill-rule="evenodd"/><path d="M96.701 27.543c-17.07 0-38.736-.48-52.088 12.873-10.833 10.673-20.028 35.978-16.27 51.968 2.518-17.75 12.952-42.654 27.543-52.848 5.837-3.998 16.67-5.357 23.346-7.116 5.796-1.799 11.633-2.678 17.47-3.997z" fill="#e3d5de" fill-rule="evenodd"/><path d="M66.72 139.396c12.512 5.756 12.912 3.118 25.424-.88 12.473-3.998 26.224-1.799 37.857-7.555 11.273-5.797 16.67-24.426 19.149-45.773-1.64 12.913-9.155 35.1-19.948 39.976-10.834 5.357-29.143.92-37.897 7.556-8.315 6.676-16.23 12.432-24.585 6.676z" fill="#ac7d98" fill-rule="evenodd"/><path d="M82.87 169.137c16.31 0 74.714-4.437 81.79-79.951-2.079 11.993-18.349 75.514-81.79 79.951z" fill="#65addb" fill-rule="evenodd"/><path clip-path="url(#a)" d="M83.27 2.558C59.524.76 40.775 17.67 25.784 34.54 7.875 54.527.76 89.626 4.957 117.61c3.318 23.106 27.503 37.777 45.412 47.53 23.746 12.873 50.41 10.674 73.756-.879 38.736-18.668 57.485-76.873 33.74-117.728C144.551 22.986 110.372 1.679 83.27 2.558" fill="none" stroke="#585759" stroke-width=".8" stroke-linecap="round" stroke-linejoin="round"/><path d="M45.532 33.18C26.784 49.65 15.95 85.188 20.548 108.334c3.318 15.111 14.55 15.111 23.745 24.905 10.794 11.553 21.227 17.75 36.618 14.192 11.633-2.639 22.067-7.556 34.14-7.996 12.472 0 23.305-3.557 29.541-15.55 12.913-24.465 18.709-58.245-3.757-77.353-6.237-5.357-10.394-11.553-17.91-15.99-9.554-6.237-19.947-7.596-30.78-8.915-14.552-2.239-35.82 1.32-46.613 11.553" fill="none" stroke="#585759" stroke-width=".8" stroke-linecap="round" stroke-linejoin="round"/><path d="M46.252 28.063c0-4.038 3.198-7.316 7.076-7.316 3.917 0 7.075 3.278 7.075 7.316 0 4.078-3.158 7.316-7.075 7.316-3.878 0-7.076-3.238-7.076-7.316zm13.832-5.517c0-1.479 1.199-2.678 2.638-2.678 1.48 0 2.638 1.2 2.638 2.678 0 1.48-1.159 2.679-2.638 2.679-1.44 0-2.638-1.2-2.638-2.679zM42.094 33.74c0-1.48 1.12-2.679 2.479-2.679 1.4 0 2.478 1.2 2.478 2.679 0 1.479-1.079 2.678-2.478 2.678-1.36 0-2.479-1.2-2.479-2.678z" fill="#fff" fill-rule="evenodd"/></svg>