<svg xmlns="http://www.w3.org/2000/svg" version="1.0" viewBox="0 0 178.28 183.118"><defs><clipPath clipPathUnits="userSpaceOnUse" id="a"><path d="M4.477 3.118H182.53v183.25H4.477z"/></clipPath></defs><path clip-path="url(#a)" d="M47.771 15.43C24.025 30.103 20.707 41.656 10.714 66.52c-8.755 22.666-5.837 51.528 4.996 72.876C36.098 180.25 96.462 198 133.96 175.374c44.533-26.664 67-100.42 24.985-142.594-14.591-14.671-32.9-21.787-51.649-25.784C78.153.76 64.441 6.116 47.771 15.43z" fill="#abd4eb" fill-rule="evenodd"/><path d="M56.925 29.302c-20.827 11.553-26.264 34.66-29.182 51.09-4.997 30.181-.8 58.164 26.264 74.594 13.712 7.995 42.455 15.99 58.285 11.553 19.988-5.756 31.221-22.186 42.054-38.177 12.073-17.789 16.63-35.099 9.555-59.963-5.397-18.67-17.47-36.418-34.98-42.655-30.38-10.673-46.61-9.314-71.995 3.558z" fill="#cca6bd" fill-rule="evenodd"/><path d="M34.899 123.405c4.197 24.865 26.664 31.101 44.573 36.858 19.548 5.756 37.017 3.997 52.848-10.194 25.384-23.985 43.693-77.713 13.312-103.497 2.918 14.67 8.754 31.1 2.518 45.772-2.918 6.636-8.754 12.872-13.751 18.189-5.837 6.236-8.755 12.872-13.712 19.108-7.915 10.634-25.824 15.511-38.737 14.632-11.633-.44-18.708-5.317-27.463-10.634-4.997-3.558-13.752-1.799-16.23-8.435z" fill="#ba94aa" fill-rule="evenodd"/><path d="M78.552 26.204C66.88 31.981 57.725 35.08 48.97 45.293c-10.813 12.872-17.909 32.38-15.81 50.13 3.318-17.75 9.154-38.158 23.726-48.352 3.338-2.218 7.915-3.118 10.833-5.336 3.338-3.098 3.338-6.217 6.676-8.875 4.997-4.877 22.486-4.437 28.303-6.656-3.738-1.779-20.408-.88-24.146.9z" fill="#e3d5de" fill-rule="evenodd"/><path clip-path="url(#a)" d="M58.565 174.494c.44 0 .839.44 1.678.44 17.47 7.995 55.367 16.43 85.309-11.553 31.22-28.863 42.454-83.95 24.985-107.935 7.915 23.106 7.915 78.193-35.779 107.935-18.309 8.915-34.978 22.666-76.193 11.113z" fill="#8abde2" fill-rule="evenodd"/><path clip-path="url(#a)" d="M34.899 27.943C22.846 38.617 18.689 54.167 14.95 64.821 7.875 82.61-.04 123.485 32.42 156.345c-7.916-9.314-24.546-48.41-15.811-76.853 9.154-28.443 7.076-39.996 18.289-51.549z" fill="#eaf1f9" fill-rule="evenodd"/><path d="M173.855 115.01c-3.318 11.553-19.948 62.163-69.478 67.48 11.233-1.76 52.848-19.949 69.478-67.48z" fill="#65addb" fill-rule="evenodd"/><path d="M76.554 158.144c17.509 6.196 32.06 6.196 47.45-2.678 14.992-9.355 23.307-21.787 29.543-34.7 5.836-12.871 10.793-27.982 8.315-39.575 0 7.115-11.633 39.136-20.388 50.69-8.754 11.592-31.22 26.263-39.096 27.143-7.515.44-21.627 1.319-25.824-.88z" fill="#ac7d98" fill-rule="evenodd"/><path d="M56.925 29.302c-20.827 11.553-26.264 34.66-29.182 51.09-4.997 30.181-.8 58.164 26.264 74.594 13.712 7.995 42.455 15.99 58.285 11.553 19.988-5.756 31.221-22.186 42.054-38.177 12.073-17.789 16.63-35.099 9.555-59.963-5.397-18.67-17.47-36.418-34.98-42.655-30.38-10.673-46.61-9.314-71.995 3.558" fill="none" stroke="#585759" stroke-width=".8" stroke-linecap="round" stroke-linejoin="round"/><path clip-path="url(#a)" d="M47.851 15.43C24.145 29.663 20.787 41.656 10.793 66.12c-9.154 22.666-5.796 52.008 4.997 73.355C36.178 179.931 96.541 197.68 134 175.454c44.493-26.664 66.96-100.46 24.945-143.114-14.552-14.67-32.86-21.347-51.609-25.344C78.233.76 64.081 5.676 47.851 15.43" fill="none" stroke="#585759" stroke-width=".8" stroke-linecap="round" stroke-linejoin="round"/><path d="M49.05 31.261c0-4.037 3.178-7.316 7.076-7.316 3.918 0 7.076 3.279 7.076 7.316 0 4.058-3.158 7.316-7.076 7.316-3.898 0-7.076-3.258-7.076-7.316zm13.672-5.517c0-1.479 1.24-2.678 2.758-2.678 1.54 0 2.759 1.2 2.759 2.678 0 1.48-1.22 2.679-2.759 2.679-1.519 0-2.758-1.2-2.758-2.679zM44.893 36.778c0-1.48 1.14-2.679 2.518-2.679 1.4 0 2.519 1.2 2.519 2.679 0 1.479-1.12 2.678-2.519 2.678-1.379 0-2.518-1.2-2.518-2.678z" fill="#fff" fill-rule="evenodd"/></svg>