<svg xmlns="http://www.w3.org/2000/svg" version="1.0" viewBox="0 0 116.409 130.507"><defs><clipPath clipPathUnits="userSpaceOnUse" id="a"><path d="M-.16.16h116.25v130.56H-.16z"/></clipPath></defs><path clip-path="url(#a)" d="M20.428 10.114c-1.8 1.28-2.12 5.157-1.52 9.354.32 4.158 2.719 10.954.92 14.471-1.52 3.238-6.636 5.797-10.873 8.395-4.558 2.559-5.157 16.39-5.157 21.547 0 4.837-.6 7.076 4.237 14.192 1.52 1.919 2.718 4.477.92 5.796-2.719 2.239-3.958 4.477-5.757 6.756C1.08 93.184.76 94.783 1.4 97.061c.6 2.239.6-.32 2.998-2.918 2.439-2.559 3.318-3.838 6.676-5.157 3.598-1.28 3.318-2.239 5.117 1 2.119 3.198 3.038 5.476 4.837 7.715 1.84 2.558 2.119 3.198 0 3.877-2.118.64-3.917-.68-4.517 1.92-.92 2.558 1.2 2.238-3.318 3.877-4.557 1.599-6.956 3.198-6.676 4.797.32 1.959 3.638-.96 6.956-1.599 3.318-.96 7.275-.64 8.475-3.558 1.199-2.558 3.038-4.477 5.756-.96 2.719 3.239 6.956 16.111 13.912 15.471 2.718.32 3.917 1.92 6.956 4.518 2.998 2.238 6.915 4.477 12.072 3.517 5.157-.959 8.475-1.918 11.793-3.837 3.638-1.959 5.757-1 11.793-1.959 5.756-.64 7.276-.64 8.755-3.518 1.519-2.918 3.038.64 4.557 3.518 1.2 3.238 2.119 5.157 3.318 3.558.92-1.6-2.119-5.157-2.119-7.396 0-2.278-1.2-5.157 0-6.436 1.52-1 2.119-2.278 3.638-4.837 1.2-2.598 2.998-3.238 2.998-.96 0 2.56-.28 8.356 1.52 7.076 2.118-1.279 1.518-3.557.599-6.116-.88-2.918-2.399-3.877-1.8-6.436.6-2.918 3.919-9.034 6.637-20.308 2.758-10.953 4.837-18.349.32-32.5-4.238-14.191-13.912-26.744-18.15-29.622-3.917-2.918-1.199-4.197 1.2-5.157 2.119-.96 2.439-4.197 1.52-4.517-1.2-.32-1.2 1.28-2.72 1.919-1.518.68-4.237 4.517-6.955 4.517s-5.437-1.28-8.155-2.878c-2.718-1.64-.6-3.558.32-4.837 1.199-1.6 0-3.238-.92-2.919-1.199 0-2.118 3.558-3.638 4.198-1.519.96-.919 1.599-4.517.64-3.638-.96-9.994-3.199-16.35-1.6-6.356 1.6-9.074 5.157-10.274 3.199-1.199-1.92-2.718-11.913-5.157-10.914-2.078.64.92 3.198 1.52 6.116.32 2.879 1.838 4.798-2.719 6.756-4.517 2.239-11.193 4.518-12.672 6.117-1.839 1.599-4.238-3.238-3.638-6.117.6-3.238 0-4.517-.92-4.197z" fill="#cce1c3" fill-rule="evenodd"/><path d="M49.77 29.142c-1.52 5.477-.88 18.03 8.475 20.588 9.074 2.598 11.193-1.6 14.51-1.28 3.319.32 7.237 5.158 1.8 7.076-5.757 1.96-12.393 9.035-7.835 22.866 4.837 13.832 18.109 17.67 25.064 15.431 7.236-2.558 15.391-16.39 14.512-25.424-.6-8.675.6-11.593-3.318-19.948-3.958-8.355-5.757-11.913-11.194-17.67-5.157-5.796-6.356-8.714-12.712-10.953-6.036-1.919-25.065-2.598-29.302 9.314z" fill="#e0d0d9" fill-rule="evenodd"/><path d="M108.654 49.73c2.758 6.756 4.837 12.232 3.638 19.668-.88 6.756-2.718 13.192-4.837 19.628-3.318 9.354-6.636 19.628-13.912 26.384-3.917 3.878-9.634 4.517-14.79 5.477-6.037 1.319-11.194 2.918-17.23 4.837-4.837 1.919-7.876-.96-12.393-3.518-4.237-2.279-8.754-4.198-12.712-6.476 3.638 3.238 9.394-.64 13.911 0 4.838 1 8.475 2.598 13.912 1.639 6.036-.96 12.073-1.959 16.91-6.436 1.839-1.64 2.438-3.558 3.638-5.157 1.838-1.959 4.237-2.599 6.036-3.878 9.394-6.436 15.43-17.07 16.63-28.662.32-5.157 2.119-10.594 1.519-15.75-.32-4.518-2.718-8.396-2.718-12.913z" fill="#b0d4ad" fill-rule="evenodd"/><path d="M37.078 21.087c-6.656.64-9.075 5.777-10.894 11.893-2.119 7.076-3.937 8.375-9.974 11.593-3.038 1.599-3.338.64-4.857 3.858-1.2 1.938-1.799 6.756-1.799 9.014-.32 4.497.9 13.192 5.437 15.111-3.018-4.497-3.638-14.791-.6-19.628 3.018-5.137 9.075-2.239 12.713-6.436 3.018-3.538 3.018-10.294 3.937-14.152.3-1.918.6-5.136 1.5-6.756 1.219-2.258 3.937-2.898 4.836-5.156z" fill="#fff" fill-rule="evenodd"/><path d="M49.77 29.462c-1.52 5.477-.88 17.71 8.475 20.268 9.074 2.918 11.193-1.6 14.51-.96 3.319.32 7.237 4.838 1.8 7.076-5.757 1.959-12.393 8.715-7.835 22.866 4.837 13.832 18.109 17.67 25.064 15.111 7.236-2.239 15.391-16.39 14.512-25.105-.6-8.994.6-11.912-3.318-19.948-3.958-8.354-5.757-11.912-11.194-17.669-5.157-5.796-6.356-9.034-12.712-10.953-6.036-1.919-25.065-2.918-29.302 9.314" fill="none" stroke="#58585a" stroke-width=".16" stroke-linecap="round" stroke-linejoin="round"/><path d="M98.78 46.172c6.396 8.355 7.276 26.024 2.439 35.379-2.439 4.477-6.716 8.994-11.553 10.273-5.477 1.28-13.712-1.279-16.15-6.436C81.15 95.022 98.46 83.47 99.7 73.475c.919-5.436 1.199-13.152 0-18.308-.92-4.518-1.84-13.192-5.477-16.43z" fill="#d2afc3" fill-rule="evenodd"/><path d="M80.071 58.045c-3.957-.36-7.355 1.599-9.474 5.477-3.398 6.476-.32 9.394 1.84 15.19-3.079-9.034-.92-14.55 5.796-20.028zM46.732 27.663c0-3.638 2.758-6.596 6.156-6.596 3.418 0 6.156 2.958 6.156 6.596 0 3.658-2.738 6.596-6.156 6.596-3.398 0-6.156-2.938-6.156-6.596zm1.518 9.794a2.26 2.26 0 0 1 2.24-2.238 2.247 2.247 0 0 1 2.238 2.238c0 1.24-1 2.239-2.239 2.239-1.219 0-2.238-1-2.238-2.239zm9.675-16.63c0-1.319 1.02-2.398 2.239-2.398 1.239 0 2.238 1.08 2.238 2.398 0 1.34-1 2.399-2.238 2.399-1.22 0-2.24-1.06-2.24-2.399z" fill="#fff" fill-rule="evenodd"/><path clip-path="url(#a)" d="M20.108 9.794c-1.8 1.6-2.119 5.477-1.52 9.354.6 4.158 2.72 10.914.92 14.472-1.519 3.557-6.636 6.116-10.873 8.355-4.238 2.598-4.837 16.43-4.837 21.586 0 5.157-.92 7.396 3.917 14.512 1.52 1.599 2.719 4.157.92 5.476-2.719 2.239-3.958 4.797-5.757 7.076C.76 92.864.44 94.463 1.08 96.741c.6 2.239.6-.32 2.999-2.918 2.438-2.558 3.318-3.838 6.675-5.157 3.598-1.279 3.318-1.919 5.117 1.32 2.12 3.198 3.039 5.116 4.837 7.715 1.84 2.238 2.12 2.878 0 3.558-2.118.64-3.637-.36-4.517 1.918-.92 2.559 1.2 2.559-3.318 4.198-4.237 1.599-6.956 3.198-6.676 4.797.32 1.639 3.638-.96 6.956-1.919 3.638-.64 7.276-.64 8.475-3.238 1.2-2.878 3.038-4.477 5.756-1.28 2.719 3.559 6.956 16.111 13.912 15.791 2.998.32 3.918 1.92 6.956 4.198 2.998 2.558 6.916 4.797 12.072 3.518 5.157-.96 8.475-1.92 12.113-3.518 3.598-1.959 5.717-1.32 11.473-1.959 6.036-.96 7.556-.96 9.075-3.518 1.519-2.918 3.038.32 4.237 3.518 1.2 2.918 2.399 5.157 3.318 3.558.92-1.6-2.119-5.477-2.119-7.715 0-2.28-1.199-5.157 0-6.117 1.52-1 2.12-2.278 3.638-4.837 1.2-2.598 2.998-3.558 2.998-.96 0 2.24-.28 8.036 1.84 7.076 1.798-1.279 1.518-3.877.279-6.436-.88-2.598-2.398-3.877-1.799-6.436.6-2.598 3.918-9.034 6.636-19.988 2.758-11.273 4.837-18.668.32-32.82-4.238-14.191-13.912-26.744-17.83-29.302-4.237-2.918-1.518-4.517.88-5.477 2.119-.96 2.439-3.877 1.52-4.517-.88-.32-1.2 1.28-2.72 1.919-1.518.64-4.237 4.517-6.955 4.517-2.398 0-5.437-1.28-8.155-2.878-2.398-1.64-.6-3.558.6-4.837.92-1.28-.28-2.918-1.2-2.918-.919.32-2.118 3.557-3.637 4.197-1.52.96-.92 1.6-4.518.64-3.637-.96-9.994-3.198-16.35-1.6-6.036 1.6-9.074 5.158-10.273 3.199-.92-1.6-2.719-11.593-5.157-10.914-2.08.96.92 3.198 1.519 6.117.6 2.878 1.839 4.797-2.719 7.075-4.517 1.92-11.193 4.198-12.672 6.117-1.839 1.599-4.237-3.558-3.638-6.436.6-2.919.28-4.518-.92-4.198" fill="none" stroke="#58585a" stroke-width=".48" stroke-linecap="round" stroke-linejoin="round"/></svg>