<svg xmlns="http://www.w3.org/2000/svg" version="1.0" viewBox="0 0 155.074 217.096"><defs><clipPath clipPathUnits="userSpaceOnUse" id="a"><path d="M-.16 1.44h154.866v217.227H-.16z"/></clipPath></defs><path clip-path="url(#a)" d="M64.001 217.508c5.717-.96 5.717-29.222 7.236-45.932 1.519-16.39 2.119-25.385 9.034-28.942 6.956-3.838 12.073-2.559 21.427-6.397 9.075-4.197 5.157-19.308 10.274-28.622 4.837-9.315 7.556-5.757 11.153-4.158 3.958 1.6 3.318 14.112 5.757 11.233 2.718-2.878 2.998-13.831 11.153-18.628 7.835-4.837 6.356-10.274 9.354-17.99 3.039-7.395 5.117-27.663 3.638-35.018-1.519-7.396-8.475-18.669-19.628-28.943-10.873-9.954-15.07-9.314-26.544-10.273C95.382 2.558 89.945.6 76.953 6.716 64.001 12.512 48.89 14.75 38.057 26.344 27.463 38.217 19.628 37.257 12.392 52.688 5.157 68.078.6 69.718.92 82.55c.32 13.192 3.318 17.99 6.956 19.628 3.318 1.6 2.998 13.152 6.037 12.512 2.998-.959-.92-10.273 4.197-12.192 4.837-1.959 13.592-4.837 14.791 2.878.92 7.715-5.716 23.786.92 32.78 6.915 8.995 21.107 11.233 22.026 25.705 1.2 14.79-4.517 55.246 8.155 53.647z" fill="#bbe0e3" fill-rule="evenodd"/><path d="M53.448 48.01c.6 5.478 6.356 16.391 15.99 14.152 9.394-2.238 9.394-6.756 12.392-8.035 3.039-1.279 8.755.96 4.518 5.477-3.918 4.477-7.236 13.831 3.038 24.105 9.954 9.954 23.226 7.076 28.662 1.6 5.437-5.797 6.636-21.867 2.439-29.583-4.557-7.395-4.557-10.633-11.793-16.07-6.916-5.477-9.954-7.715-17.19-10.634-7.235-2.558-9.354-4.837-15.99-3.517-6.356 1.279-23.585 9.634-22.066 22.506z" fill="#c3b1fd" fill-rule="evenodd"/><path d="M53.767 48.05c.6 5.797 6.317 16.39 15.71 14.472 9.635-2.239 9.635-7.076 12.673-8.355 2.998-.96 8.435 1.28 4.517 5.477-4.237 4.477-7.235 14.111 2.719 24.065 10.274 10.274 23.546 7.396 28.982 1.6 5.437-5.437 6.636-21.827 2.119-29.223-4.237-7.715-4.237-10.913-11.473-16.39-6.956-5.437-9.954-7.715-17.19-10.274-7.275-2.558-9.674-4.837-16.03-3.518-6.316.96-23.865 9.315-22.027 22.147" fill="none" stroke="#58585a" stroke-width=".32" stroke-linecap="round" stroke-linejoin="round"/><path d="M88.506 62.202c-11.792 9.954 7.836 26.344 17.51 26.025 12.952-.32 20.188-21.188 11.473-31.182 3.318 10.634.28 23.466-11.193 26.065-5.717 1.279-9.035-2.279-12.953-6.436-4.557-5.157-6.356-6.437-5.436-13.832z" fill="#ad94fc" fill-rule="evenodd"/><path d="M84.229 28.823c-7.835-.96-15.39.32-21.707 5.756-4.837 3.838-10.593 11.193-5.157 17.27-2.398-6.397 4.238-12.793 8.755-16.31 2.119-1.6 4.837-4.158 7.276-5.117 2.398-.96 5.716-.32 8.434-1.6z" fill="#fff" fill-rule="evenodd"/><path d="M73.356 26.824c0-3.518 2.718-6.396 5.996-6.396 3.318 0 5.996 2.878 5.996 6.396 0 3.558-2.678 6.396-5.996 6.396-3.278 0-5.996-2.838-5.996-6.396zm14.231 1.159c0-1.32 1.04-2.438 2.239-2.438 1.239 0 2.238 1.119 2.238 2.438 0 1.36-1 2.439-2.238 2.439-1.2 0-2.24-1.08-2.24-2.439zM65.76 29.142c0-1.199 1.04-2.238 2.319-2.238 1.319 0 2.318 1.04 2.318 2.238 0 1.24-1 2.239-2.318 2.239-1.28 0-2.319-1-2.319-2.239z" fill="#fff" fill-rule="evenodd"/><path d="M53.767 148.07c7.556 7.396 3.958 22.786 3.638 32.14-.28 8.036-3.318 26.984 4.517 32.101 7.236-4.157 5.757-30.181 6.357-37.897.28-11.273-1.52-25.384 8.435-32.46 9.354-6.436 19.907-3.238 25.664-14.791 5.117-10.913 3.638-26.024 17.19-30.542 4.517 1.96 5.436 6.117 8.474 9.315 2.08-1.6 2.999-3.838 4.518-5.757 1.799-2.238 3.318-3.558 5.117-5.476 4.237-4.478 6.636-9.315 8.474-15.111 2.719-9.315 5.397-21.507 3.598-31.181-4.237 11.593-10.274 34.739-21.107 41.495-4.837 2.878-11.193.32-16.63 1.918-6.316 1.6-9.954 3.838-12.672 9.954-3.598 8.995-11.753 24.106-21.707 27.943-2.439 1.32-4.837-.64-7.236 1.64-2.118 1.279-2.718 4.796-3.637 7.035-2.399 7.076-4.238 9.674-11.753 8.715z" fill="#96d0d4" fill-rule="evenodd"/><path d="M60.084 18.189c-8.435 5.477-15.391 8.075-20.228 12.233-6.036 5.156-12.672 9.994-17.51 16.43-5.436 7.715-9.074 14.47-12.392 22.826-4.557 11.913-3.918 15.47 2.718 26.704-2.718-10.274-2.118-13.512 1.2-23.466 1.199-3.878 2.118-8.355 3.917-12.233 2.719-5.157 18.429-22.866 24.785-27.663 4.837-4.197 12.712-8.715 15.71-13.512z" fill="#fff" fill-rule="evenodd"/><path d="M37.777 120.087c.32 8.035.64 16.39 6.956 21.827 2.998 2.239 7.196 3.198 9.914 5.477 2.998 2.878 4.197 5.117 5.397 9.594-.28-4.797 3.318-8.315 5.716-11.873-6.916-4.477-13.831-5.756-18.629-13.792-1.798-2.878-2.398-6.755-3.917-9.314-2.119-3.198-5.437-3.838-5.437-8.355zM108.055 9.914c12.992 0 25.344 8.315 32.86 19.868 3.318 5.157 5.436 13.192 7.235 19.268 2.998 9.634-2.119 17.99-6.636 26.624 3.918-15.07-1.479-34.34-8.435-47.81-2.998-5.438-12.952-18.95-18.668-16.99z" fill="#96d0d4" fill-rule="evenodd"/><path clip-path="url(#a)" d="M64.001 217.508c5.717-.96 5.717-29.222 7.236-45.932 1.519-16.39 2.398-25.385 9.354-28.942 6.636-3.838 12.073-2.559 21.107-6.397 9.075-4.197 5.437-19.308 10.274-28.622 4.837-9.315 7.556-6.117 11.473-4.158 3.638 1.6 2.998 14.112 5.717 11.233 2.718-2.878 3.038-13.831 10.873-18.628 8.155-4.837 6.636-10.274 9.674-17.99 2.998-7.715 4.797-27.663 3.318-35.018-1.519-7.396-8.475-18.669-19.308-28.943-11.193-9.954-15.39-9.314-26.584-10.273C95.662 2.558 89.945.6 76.953 6.396c-12.952 6.116-28.063 8.355-38.616 19.948-10.874 11.873-18.709 10.913-25.945 26.344C5.157 68.078.6 69.718.92 82.55c.6 13.192 3.638 17.99 6.956 19.628 3.318 1.6 2.998 13.152 6.037 12.512 2.998-.959-.6-10.273 4.197-12.192 4.837-1.959 13.592-4.837 14.791 2.878 1.2 7.715-5.716 23.786 1.2 32.78 6.955 8.995 20.827 11.233 22.026 25.705 1.24 14.79-4.517 55.246 7.875 53.647" fill="none" stroke="#58585a" stroke-width=".64" stroke-linecap="round" stroke-linejoin="round"/></svg>