<svg xmlns="http://www.w3.org/2000/svg" version="1.0" viewBox="0 0 116.712 187.616"><defs><clipPath clipPathUnits="userSpaceOnUse" id="a"><path d="M-.16-.24h116.57v187.726H-.16z"/></clipPath></defs><path clip-path="url(#a)" d="M88.107 123.125c-1.5 6.117-1.2 17.99 1.219 20.248 2.698 2.239 4.817 3.198 4.517-4.177-.62-7.396-1.519-18.63 3.298-23.766 4.837-5.137 4.837-16.07 6.936-19.588 2.119-3.538 5.417-10.614 8.135-21.847 1.5-11.233 6.316-24.085-.3-37.897-6.036-9.634-9.934-16.05-22.586-21.847-12.972-6.096-28.023-6.416-32.54-5.137-4.817 1.3-3.918-1.918-3.318-4.497.899-2.238-1.2-4.497-2.1-3.837-.919.32.3 1.599-.319 3.198-.6 1.619.32 6.116-1.499 8.355-1.799 2.258-4.517 3.537-7.236 4.497-2.998 1.279-2.998-1.6-3.298-3.538-.3-1.6-2.118-1.6-2.718-.96-.6.96.9 4.178.6 5.777-.3 1.939.6 1.939-2.719 4.177-2.998 2.26-8.734 5.457-11.733 11.573-3.018 6.097-2.418 10.594-4.517 10.274-1.819 0-9.954-5.456-10.853-2.898-1.2 2.259 2.718 1.28 5.117 2.898 2.118 1.28 4.517 1.6 3.018 6.736-1.8 4.817-4.218 11.573-4.218 14.132 0 2.258-5.117.959-6.935-1.28-1.5-2.578-2.699-3.218-3.298-2.258-.32 2.578 2.398 5.476 5.416 7.715 3.318 2.259 9.634 4.817 10.834 8.355 1.219 3.858 0 9.314-1.2 14.451-1.199 6.736 1.82 11.233 5.117 24.405 3.618 13.172 8.135 12.213 10.554 24.725 2.099 12.213 2.698 15.411 4.217 23.126 1.2 7.716-4.817 10.914-4.817 18.31 0 7.055 3.918 1.598 5.717-.96 1.499-2.898 8.735-10.933 7.535-20.568-1.199-9.634.6-21.507 3.918-24.085 3.318-2.878 12.053-1.28 12.352 3.538.3 5.137 0 21.527 2.999 20.547 3.018-.959 5.136-13.791 3.318-20.547-1.5-6.736-3.318-7.376-3.618-14.451 0-7.056 9.354-14.132 15.67-12.853 6.336 1.3 11.153 3.218 9.335 9.954z" fill="#cce1c3" fill-rule="evenodd"/><path d="M33.68 59.604c2.718 5.157 11.752 12.872 19.888 7.076 7.835-5.477 6.316-9.974 8.734-12.553 2.399-2.258 8.435-2.258 6.017 3.538-2.1 5.797-1.8 15.79 11.153 21.267 12.952 5.457 24.405-2.578 27.423-9.994 2.998-7.395-1.519-22.866-8.135-28.343-6.936-5.136-8.135-8.035-16.57-10.293-8.435-2.579-11.753-3.218-19.588-2.899-7.535.32-10.554-.979-15.97 2.899-5.717 3.537-18.689 18.029-12.952 29.302z" fill="#e0d0d9" fill-rule="evenodd"/><path d="M58.345 129.981c-2.12-19.608 31.6-28.283 32.2-6.416 2.399-1.3 1.799-4.517 2.399-7.076.9-2.258 2.118-3.857 3.318-6.116 2.098-4.817 2.098-10.274 4.217-15.09 2.399-5.477 4.797-9.335 5.717-15.751.6-3.858 4.497-15.75 2.098-18.33-1.799 6.437-3.617 12.873-6.616 19.29-3.617 6.755-8.135 19.927-16.25 22.166-2.418.66-5.117 0-7.535 0-3.598.34-7.516 1.299-10.834 2.898-3.897 1.939-9.314 5.797-11.433 9.974-1.799 3.198-1.799 7.376-4.197 10.274-2.419 3.538-6.017 3.538-9.035 6.116-8.135 6.416-3.318 19.908-2.398 28.583.6-8.675-.62-27.943 12.632-27.624 3.298 0 6.616 5.457 8.715 2.24 2.119-2.56-.6-3.199-.9-4.818-.9-2.558-1.199-3.218-.3-6.736z" fill="#b0d4ad" fill-rule="evenodd"/><path d="M52.568 16.59c-6.316 2.259-14.451 8.355-19.268 12.852-6.336 5.457-9.335 10.594-12.653 18.29-2.418 5.456-5.736 10.912-4.517 17.009 1.5 7.715 6.916 9.954 5.117 18.289 6.316-2.879 2.419-11.234.9-16.03-2.1-7.396.6-12.853 3.318-19.589 2.418-6.736 4.517-9.954 9.034-15.09 2.419-2.24 4.817-4.498 6.936-6.737 2.099-2.238 3.618-6.096 6.316-7.055z" fill="#fff" fill-rule="evenodd"/><path d="M33.58 59.924c2.718 4.837 11.753 12.552 19.588 7.075 8.135-5.796 6.616-10.293 9.034-12.552 2.419-2.259 8.135-2.578 6.017 3.218-2.399 5.797-2.1 15.79 10.853 21.267 12.952 5.457 24.405-2.258 27.423-9.674 2.999-7.395-1.519-23.186-8.135-28.343-6.636-5.476-7.835-8.375-16.27-10.613-8.435-2.259-12.052-3.218-19.588-2.899-7.835.32-10.553-.66-16.27 2.899-5.417 3.537-18.689 18.349-12.652 29.622" fill="none" stroke="#58585a" stroke-width=".32" stroke-linecap="round" stroke-linejoin="round"/><path d="M70.617 58.924c-7.255 14.112 16.61 21.467 25.365 17.63 12.073-5.457 11.473-27.564 0-33.34 6.956 8.335 8.455 21.487-1.5 28.543-4.836 3.517-9.374 1.279-14.19-1.3-6.057-2.558-8.156-3.198-9.975-10.253z" fill="#d2afc3" fill-rule="evenodd"/><path d="M55.207 29.702c-7.496 2.578-14.092 6.456-18.29 13.872-2.998 5.476-5.696 14.81 1.5 18.348-4.498-5.136-.6-13.851 2.398-18.668 1.2-2.259 2.998-5.817 4.797-7.736 2.1-1.938 5.097-2.578 7.196-4.517zm2.558-1.959c0-3.598 2.758-6.516 6.156-6.516 3.418 0 6.157 2.918 6.157 6.516 0 3.618-2.739 6.516-6.157 6.516-3.398 0-6.156-2.898-6.156-6.516z" fill="#fff" fill-rule="evenodd"/><path d="M52.248 28.143c0-1.34 1.02-2.439 2.239-2.439 1.24 0 2.239 1.1 2.239 2.439 0 1.36-1 2.438-2.239 2.438-1.22 0-2.239-1.079-2.239-2.438zm19.988.68c0-1.32.94-2.399 2.079-2.399 1.16 0 2.079 1.08 2.079 2.399 0 1.339-.92 2.398-2.079 2.398-1.14 0-2.079-1.06-2.079-2.398z" fill="#fff" fill-rule="evenodd"/><path clip-path="url(#a)" d="M88.107 123.505c-1.8 6.096-1.2 17.67 1.219 20.248 2.698 2.239 4.817 2.878 4.217-4.178-.32-7.395-1.219-18.648 3.598-23.785 4.517-5.137 4.517-16.05 6.636-19.588 2.099-3.538 5.717-10.614 8.135-21.847 1.8-11.573 6.616-24.105 0-37.917-6.336-9.634-9.934-16.07-22.586-21.847-12.972-6.116-28.023-6.756-32.84-5.137-4.517 1.28-3.918-1.939-3.018-4.497.899-2.259-1.2-4.517-2.1-4.177-.919.64 0 1.918-.619 3.517-.3 1.62.62 6.117-1.199 8.355-1.799 1.94-4.517 3.538-7.535 4.498-2.699 1.299-2.699-1.6-2.999-3.518-.3-1.62-2.418-1.62-2.718-.98-.6.98.9 4.178.6 5.797-.6 1.599.3 1.919-2.719 4.177-2.998 1.92-8.734 5.457-11.733 11.553-3.018 6.117-2.418 10.614-4.517 10.294-2.119-.32-10.254-5.477-11.153-2.898-.9 2.258 2.718 1.279 5.117 2.898 2.418 1.28 4.817 1.6 3.018 6.736-1.5 4.817-3.918 11.573-3.918 14.151 0 2.239-5.117.96-6.935-1.299-1.8-2.558-2.999-3.218-3.298-2.238-.32 2.558 2.098 5.456 5.416 7.715 3.318 1.919 9.634 4.817 10.834 8.335 1.219 3.857-.3 9.334-1.5 14.471-.899 6.416 2.12 11.233 5.417 24.405 3.618 13.192 8.135 12.213 10.254 24.425 2.099 12.533 2.998 15.75 4.218 23.466 1.499 7.696-4.518 10.914-4.518 18.31 0 7.055 3.918 1.598 5.417-.96 1.799-2.899 9.035-10.934 7.835-20.568-1.199-9.634.3-21.527 3.918-24.105 3.318-2.878 11.753-1.6 12.352 3.538.3 5.137 0 21.527 2.999 20.567 3.018-.96 5.136-13.811 3.318-20.567-1.8-6.756-3.318-7.396-3.918-14.452 0-7.075 9.334-14.151 15.97-12.852 6.336 1.28 11.153 3.198 9.335 9.954" fill="none" stroke="#58585a" stroke-width=".48" stroke-linecap="round" stroke-linejoin="round"/></svg>