<svg xmlns="http://www.w3.org/2000/svg" version="1.0" viewBox="0 0 135.95 146.872"><defs><clipPath clipPathUnits="userSpaceOnUse" id="a"><path d="M.16.48h135.758v146.95H.16z"/></clipPath></defs><path d="M132.64 100.42c-2.12-2.6-3.638-5.158-6.636-7.716-1.8-1.32-.6-4.198 1.199-6.116 5.117-7.756.28-15.151.28-20.948 0-3.518-4.797-12.872-8.715-19.948-.92-1.919 0-2.598.6-2.918 1.199-.64 2.118-1.28 2.398-2.239 2.119-4.197-2.398-4.197-5.397-3.557-.64 0-2.718.32-3.038-1.28-.6-4.157 1.2-10.273 1.8-14.151.599-4.517.319-8.715-1.8-10.314-1.199-.64-1.519.96-.92 4.517.64 3.199-2.078 8.675-3.917 6.756-.6-.32-1.199-.96-2.078-1.279-.32-.64-.32-.96 0-1.599.28-2.598 3.317-4.517 3.597-7.116.92-4.477-1.799-3.517-3.318-.959-1.479 2.598-1.479 6.436-4.517 7.755-2.998 1.28-5.437-2.278-7.835-3.558-5.117-2.238-3.598-4.517-2.998-7.395.88-3.238 4.197-6.116 1.479-6.756-2.399-1-4.198 8.035-5.397 9.954-1.2 1.959-4.517.32-11.473-1.599-6.916-1.6-13.872.64-17.79 1.919-4.197.96-3.597 0-5.116-.64-1.8-.96-2.998-4.517-3.918-4.837-1.199-.32-2.398 1.64-1.479 3.238 1.2 1.6 3.598 3.558.6 5.157-3.038 1.919-6.037 3.198-9.075 3.198-2.998 0-5.996-4.157-7.515-4.797-1.8-.68-2.119-2.598-2.998-1.959-1.24.32-.92 3.558 1.479 4.837 2.718.96 6.036 2.239 2.438 7.076-1.239 1.599-3.038 6.436-8.435 6.756-5.436.32-15.07-8.355-11.792.32.919 2.598 4.837 2.598 3.318 6.436-1.2 2.918-4.518 2.278-6.596 1.639-.64 3.837 4.197 2.878 2.078 6.756-2.078 3.518-8.714-.96-9.634 3.518-.92 3.557 3.918 1.639 5.717 3.238 2.118 1.599 4.237 3.198 3.038 6.756-3.318 13.192-1.2 20.907 1.479 32.18 3.038 12.552 6.636 19.308 7.235 22.227.92 2.878-.879 4.517-1.798 7.395-1.2 2.918-1.52 5.477.6 6.756 2.118 1.28 1.518-5.157 1.518-7.715 0-2.919 2.119-1.92 3.598.96 1.52 2.917 2.439 4.516 3.918 5.476 1.239.96 0 4.517 0 7.075 0 2.24-3.318 6.437-2.079 8.036.88 1.958 2.079-.32 3.318-3.518 1.48-3.558 3.278-7.396 5.117-4.198 1.479 3.238 3.318 3.238 9.634 4.198 6.636.64 8.755 5.796 12.672 7.715 3.918 2.239 9.635.64 15.071-1.919 9.035-4.837 25.305-30.901 28.623-23.506 1.479 2.559 4.797 11.593 6.916 12.233 7.555 2.558.6-8.675-1.8-12.552-2.398-3.878-2.718-4.837-1.518-6.436 3.038-3.878 7.835 2.878 9.034 5.796 1.52 2.878 5.437 2.878 9.075 3.838 3.917.68 7.515 3.877 7.835 1.959.28-1.96-2.439-3.878-7.555-5.477-4.798-1.919-2.399-1.6-3.318-4.517-.88-2.879-2.719-1.6-5.117-2.24-2.399-.639-7.836-6.435-5.717-9.034.6-.64 3.598-.64 7.236 3.238 2.718 1.92 4.517 6.117 8.435 4.838.6-3.239-9.355-10.314-6.636-13.552 2.998-3.198 3.917-.64 7.835.64 3.598 1.319 4.517 2.918 7.236 5.796 2.398 2.918 2.718 5.476 3.318 3.238.879-2.559.28-4.517-1.8-7.076z" fill="#cce1c3" fill-rule="evenodd"/><path d="M40.056 41.775c-15.95 2.278-20.508 20.307-18.669 35.098.88 7.116 2.718 15.471 6.036 21.907 3.598 6.756 10.554 9.994 16.59 13.832 7.516 5.476 15.071 11.593 24.426 6.476 10.233-5.477 13.871-18.709 19.588-28.023 3.637-5.797 9.634-10.634 3.318-16.75-4.518-4.517-13.552-2.918-19.309-5.157-2.718-.96-6.915-1.919-8.155-5.477-2.398-5.156.64-6.436-4.797-11.273-5.437-5.476-11.473-9.634-19.028-10.633z" fill="#e0d0d9" fill-rule="evenodd"/><path d="M44.253 23.786c-17.15 6.116-38.536 32.46-27.983 69.078-2.398-8.675-1.799-48.81 27.983-69.078z" fill="#fff" fill-rule="evenodd"/><path d="M35.219 130.68c5.436 3.878 12.672 5.797 18.389 9.355 6.036 3.518 10.233.64 15.67-3.238 5.437-3.878 9.954-8.675 15.07-12.552 4.798-3.558 7.236-8.395 11.434-11.913 1.2-1 3.918-1.32 5.117-2.279 1.519-1.919.6-4.517 2.438-6.436 3.598-4.197 7.516.64 10.514-4.837 1.52-2.558.92-3.558 3.038-5.796 1.8-1.6 4.198-2.559 5.717-5.157 3.598-5.477 2.398-15.151 1.519-21.587-.92-7.076-3.638-15.151-9.634-19.348 4.797 11.952 9.314 27.423-.92 38.376-4.237 4.478-11.153 6.436-15.67 10.634-5.117 4.477-8.755 10.314-12.353 16.11-3.598 6.116-7.835 9.634-13.552 13.512-3.318 2.598-7.235 7.395-10.833 9.034-3.918 1.6-9.354-.64-12.952-1.279-3.918-.68-9.355-1.319-12.353-3.877z" fill="#b0d4ad" fill-rule="evenodd"/><path d="M25.065 79.752c2.718 12.912 2.119 15.83 9.354 22.586 7.196 6.436 15.63 10.634 21.947 14.191 6.316 3.518 12.912-.64 17.15-6.116 4.197-5.517 7.515-15.51 13.191-21.947-4.797 5.157-11.712 19.029-21.626 21.947-10.234 3.198-13.552-1-20.748-5.836-9.634-6.756-16.55-12.873-19.268-24.825z" fill="#c69ab2" fill-rule="evenodd"/><path d="M56.726 54.087c1.239 1.959 2.438 4.517 3.038 6.436 1.479 4.478 2.118 8.675 8.714 10.914 8.435 2.878 16.55 2.558 16.55 2.558-7.195.96-15.95 1.6-20.747-1.28-4.517-3.197-6.636-14.43-7.555-18.628z" fill="#fff" fill-rule="evenodd"/><path clip-path="url(#a)" d="M132.6 100.42c-2.12-2.6-3.598-5.158-6.636-7.396-2.08-1.64-.6-4.518 1.199-6.436 5.157-7.756.32-15.151.32-20.948 0-3.518-4.837-12.872-9.035-19.948-.6-1.919.28-2.598.88-2.918.92-.64 1.839-1.28 2.438-2.239 2.119-4.197-2.438-4.197-5.437-3.557-.6 0-2.718.32-2.998-1.28-.6-4.157 1.2-10.273 1.8-14.151.599-4.517.279-8.715-1.8-10.314-1.199-.64-1.519.96-.92 4.517.6 3.199-2.118 8.675-3.917 6.756-.6-.32-1.199-.96-2.398-1.279v-1.599c.6-2.598 3.318-4.517 3.917-7.116.6-4.157-1.799-3.517-3.637-.64-1.48 2.28-1.2 6.117-4.198 7.436-3.038 1.28-5.437-2.278-7.835-3.558-5.117-2.238-3.638-4.517-3.038-7.395.64-3.238 3.917-5.797 1.519-6.756-2.399-1-4.198 8.035-5.437 9.954-1.48 1.959-4.517.32-11.433-1.599-6.916-1.6-13.872.64-18.07 1.919-3.917.96-3.317.32-4.836-.64-1.8-.96-2.998-4.517-4.198-4.837-.919-.32-2.118 1.64-1.239 3.238 1.24 1.6 3.318 3.558.6 5.477-2.998 1.599-6.316 2.878-9.035 2.878-2.998 0-5.996-4.157-7.835-4.797-1.48-.68-1.799-2.598-2.678-1.959-1.24.32-.92 3.878 1.479 4.837 2.718 1.28 6.036 2.239 2.438 7.076-1.239 1.599-3.318 6.436-8.754 6.756-5.117.32-14.751-8.035-11.473.32.919 2.598 4.837 2.598 3.318 6.436-1.2 2.918-4.518 2.278-6.916 1.639-.32 3.837 4.517 2.878 2.398 6.756-2.078 3.518-8.714-.96-9.914 3.518-.64 3.557 3.918 1.639 5.997 3.238 1.839 1.599 4.237 3.198 3.038 6.756-3.318 13.192-1.2 20.907 1.479 32.18 3.038 12.552 6.636 19.308 7.235 22.227.6 2.878-.879 4.517-2.078 7.395-.92 2.918-1.52 5.477.6 6.756 2.078 1.28 1.798-5.157 1.798-7.715 0-2.599 2.119-1.92 3.598.96 1.52 2.917 2.439 4.516 3.638 5.476 1.479 1.279 0 4.517 0 7.075 0 2.24-3.038 6.437-2.119 8.355 1.2 1.64 2.119-.64 3.598-3.837 1.52-3.558 3.318-7.396 4.837-4.198 1.799 3.238 3.318 3.238 9.954 4.198 6.636.64 8.435 5.796 12.632 8.035 3.918 1.919 9.675.32 14.791-2.239 9.315-4.837 25.625-30.901 28.903-23.506 1.519 2.559 4.837 11.593 6.956 12.233 7.515 2.558.6-8.355-2.119-12.552-2.399-3.878-2.399-4.837-1.2-6.436 2.999-3.558 7.516 2.878 9.035 5.796 1.2 2.878 5.437 2.878 9.035 3.838 3.917.68 7.555 3.877 7.835 1.959.32-1.96-2.399-3.878-7.515-5.477-4.838-1.919-2.439-1.6-3.318-4.517-.92-2.559-2.719-1.6-5.117-2.24-2.439-.639-7.836-6.435-5.757-9.034.64-.64 3.318-.64 6.956 3.238 2.998 1.92 4.797 6.117 8.435 4.838.88-3.239-9.035-10.314-6.316-13.552 2.678-3.198 3.917-.64 7.515.64 3.918 1.319 4.837 2.918 7.516 5.796 2.438 2.918 2.718 5.476 3.318 3.238.6-2.559.32-4.517-1.8-7.076" fill="none" stroke="#58585a" stroke-width=".64" stroke-linecap="round" stroke-linejoin="round"/><path d="M40.056 41.455c-15.95 1.959-20.508 20.308-18.669 35.099.88 7.115 2.718 15.47 6.036 21.587 3.318 7.075 10.234 10.313 16.27 14.19 7.836 5.118 15.071 11.234 24.706 6.437 9.954-5.477 13.871-18.709 19.628-28.023 3.318-5.796 9.314-10.634 2.998-16.75-4.517-4.517-13.272-3.238-19.308-5.157-2.719-.96-6.636-2.238-8.116-5.476-2.118-5.157.6-6.437-4.517-11.274-5.756-5.476-11.473-9.634-19.028-10.633" fill="none" stroke="#58585a" stroke-width=".32" stroke-linecap="round" stroke-linejoin="round"/><path d="M27.463 52.488c-2.398-2.238-2.718-6.436-.6-9.314 2.4-2.559 6.317-2.918 8.715-.64 2.399 2.559 2.679 6.756.6 9.315-2.398 2.878-6.316 2.878-8.715.64zm12.633-7.675c-1.52-1.32-1.52-3.598-.28-4.917 1.2-1.64 3.278-1.64 4.477-.32 1.52 1.32 1.8 3.598.32 4.917-1.2 1.6-3.318 1.6-4.517.32zM21.787 58.325c-1.2-.96-1.2-2.599-.28-3.878.88-.96 2.678-1.32 3.598-.32 1.16 1.28 1.16 2.918.28 3.878-.88 1.28-2.679 1.28-3.598.32z" fill="#fff" fill-rule="evenodd"/></svg>