<svg xmlns="http://www.w3.org/2000/svg" version="1.0" viewBox="0 0 113.764 115.88"><defs><clipPath clipPathUnits="userSpaceOnUse" id="a"><path d="M6.796-.24h113.611v115.93H6.796z"/></clipPath></defs><path clip-path="url(#a)" d="M61.423.76C30.002.76 5.876 25.704 8.075 58.425c2.199 32.74 17.91 56.106 51.529 56.106 33.62 0 60.283-10.894 59.564-52.988C118.428 19.468 92.864.76 61.423.76z" fill="#f8e1e2" fill-rule="evenodd"/><path d="M88.446 8.515c12.793 9.374 21.567 25.344 21.927 48.73.74 40.556-24.845 51.07-57.005 51.07-8.775 0-16.09-1.56-22.307-4.678 7.676 5.457 17.19 8.575 28.883 8.575 32.52 0 58.104-10.514 57.385-50.67-.74-27.683-12.073-44.832-28.883-53.027z" fill="#eba8ac" fill-rule="evenodd"/><path d="M70.157 11.573c-16.47-2.738-35.118 7.795-44.273 19.088-8.055 10.134-10.253 24.945-2.558 41.695 11.333 24.945 43.174 35.459 65.12 22.227 9.874-5.857 21.208-18.33 17.19-32.36-1.1-5.058-3.658-7.396-5.856-11.674-2.2-5.077-1.1-10.913-2.2-16.37-1.818-7.795-13.89-19.488-27.423-22.606z" fill="#d38ca3" fill-rule="evenodd"/><path d="M104.257 62.222c-1.48-4.677-4.038-7.015-5.857-11.693-2.198-4.677-.74-10.133-1.839-15.21-1.459-5.457-8.394-13.252-17.19-17.93 5.138 4.298 8.796 9.355 9.875 13.252 1.1 5.077 0 8.575 1.1 13.652 1.478 6.616-5.118 11.293-4.018 15.97 3.657 13.252 3.657 22.227-5.857 27.684-12.792 7.795-28.882 7.015-42.054 0 14.271 10.913 34.02 13.631 49.37 4.677 9.514-5.457 20.108-17.55 16.47-30.402z" fill="#c46284" fill-rule="evenodd"/><path d="M32.58 75.094c-6.936-15.59 2.559-30.381 10.214-39.735 8.035-10.134 14.971-21.048 29.922-18.31 3.278.78 1.459-.4-4.018-1.558-15.31-2.739-32.1 7.015-40.135 17.13-7.656 9.354-9.495 22.606-2.559 38.176 4.018 8.575 7.676 13.652 15.69 18.309-5.096-4.277-6.555-7.775-9.114-14.012z" fill="#e6c2cd" fill-rule="evenodd"/><path d="M45.193 66.02c-2.899.66-4.138 5.816-.42 4.857 3.718-1.3 2.898-6.476.42-4.857z" fill="#007ead" fill-rule="evenodd"/><path d="M45.193 66.02c-2.899.66-4.138 5.816-.42 4.857 3.718-1.3 2.898-6.476.42-4.857" fill="none" stroke="#d3e1ed" stroke-width=".48" stroke-linecap="round" stroke-linejoin="round"/><path d="M102.938 42.814c-2.16 1.58 1.439 5.117 2.518 2.359 1.08-2.359-1.08-3.158-2.518-2.359z" fill="#007ead" fill-rule="evenodd"/><path d="M102.938 42.814c-2.16 1.58 1.439 5.117 2.518 2.359 1.08-2.359-1.08-3.158-2.518-2.359" fill="none" stroke="#d3e1ed" stroke-width=".48" stroke-linecap="round" stroke-linejoin="round"/><path d="M112.192 76.694c-2.538 1.179 1.1 4.657 2.538 1.938 1.08-2.318-1.439-2.718-2.538-1.938z" fill="#007ead" fill-rule="evenodd"/><path d="M112.192 76.694c-2.538 1.179 1.1 4.657 2.538 1.938 1.08-2.318-1.439-2.718-2.538-1.938" fill="none" stroke="#d3e1ed" stroke-width=".48" stroke-linecap="round" stroke-linejoin="round"/><path d="M112.192 76.694c-2.538 1.179 1.1 4.657 2.538 1.938 1.08-2.318-1.439-2.718-2.538-1.938" fill="none" stroke="#d3e1ed" stroke-width=".48" stroke-linecap="round" stroke-linejoin="round"/><path d="M82.77 32.06c-2.918.76-4.378-4.996-.74-4.597 3.278 0 3.638 4.218.74 4.598z" fill="#007ead" fill-rule="evenodd"/><path d="M82.77 32.06c-2.918.76-4.378-4.996-.74-4.597 3.278 0 3.638 4.218.74 4.598" fill="none" stroke="#d3e1ed" stroke-width=".48" stroke-linecap="round" stroke-linejoin="round"/><path d="M16.07 29.462c-1.1-.4-2.598 2.339-1.1 2.339 1.48.38 2.58-1.56 1.1-2.339z" fill="#007ead" fill-rule="evenodd"/><path d="M16.07 29.462c-1.1-.4-2.598 2.339-1.1 2.339 1.48.38 2.58-1.56 1.1-2.339" fill="none" stroke="#d3e1ed" stroke-width=".48" stroke-linecap="round" stroke-linejoin="round"/><path d="M16.07 29.462c-1.1-.4-2.598 2.339-1.1 2.339 1.48.38 2.58-1.56 1.1-2.339" fill="none" stroke="#d3e1ed" stroke-width=".48" stroke-linecap="round" stroke-linejoin="round"/><path d="M31.181 14.351c-1.1-.4-2.598 2.339-1.1 2.339 1.48.38 2.58-1.56 1.1-2.339z" fill="#007ead" fill-rule="evenodd"/><path d="M31.181 14.351c-1.1-.4-2.598 2.339-1.1 2.339 1.48.38 2.58-1.56 1.1-2.339" fill="none" stroke="#d3e1ed" stroke-width=".48" stroke-linecap="round" stroke-linejoin="round"/><path d="M31.181 14.351c-1.1-.4-2.598 2.339-1.1 2.339 1.48.38 2.58-1.56 1.1-2.339" fill="none" stroke="#d3e1ed" stroke-width=".48" stroke-linecap="round" stroke-linejoin="round"/><path d="M14.331 35.758c-2.218 1.54 1.48 4.977 2.599 2.299 1.1-2.299-1.12-3.078-2.599-2.299z" fill="#007ead" fill-rule="evenodd"/><path d="M14.331 35.758c-2.218 1.54 1.48 4.977 2.599 2.299 1.1-2.299-1.12-3.078-2.599-2.299" fill="none" stroke="#d3e1ed" stroke-width=".48" stroke-linecap="round" stroke-linejoin="round"/><path d="M14.331 35.758c-2.218 1.54 1.48 4.977 2.599 2.299 1.1-2.299-1.12-3.078-2.599-2.299" fill="none" stroke="#d3e1ed" stroke-width=".48" stroke-linecap="round" stroke-linejoin="round"/><path d="M103.337 93.483c-2.558-1.978 1.08-6.696 2.899-3.538 1.819 2.739-.72 5.877-2.899 3.538z" fill="#007ead" fill-rule="evenodd"/><path d="M103.337 93.483c-2.558-1.978 1.08-6.696 2.899-3.538 1.819 2.739-.72 5.877-2.899 3.538" fill="none" stroke="#d3e1ed" stroke-width=".48" stroke-linecap="round" stroke-linejoin="round"/><path d="M71.657 73.915c-.36.8-1.1 2.799.36 2.799 1.818-.8.739-4.398-.36-2.799z" fill="#007ead" fill-rule="evenodd"/><path d="M71.657 73.915c-.36.8-1.1 2.799.36 2.799 1.818-.8.739-4.398-.36-2.799" fill="none" stroke="#d3e1ed" stroke-width=".48" stroke-linecap="round" stroke-linejoin="round"/><path d="M71.657 73.915c-.36.8-1.1 2.799.36 2.799 1.818-.8.739-4.398-.36-2.799" fill="none" stroke="#d3e1ed" stroke-width=".48" stroke-linecap="round" stroke-linejoin="round"/><path d="M95.902 76.594c-2.639-3.598.76-12.193 2.998-6.457 1.879 5.017-1.12 10.734-2.998 6.457z" fill="#007ead" fill-rule="evenodd"/><path d="M95.902 76.594c-2.639-3.598.76-12.193 2.998-6.457 1.879 5.017-1.12 10.734-2.998 6.457" fill="none" stroke="#d3e1ed" stroke-width=".48" stroke-linecap="round" stroke-linejoin="round"/><path d="M110.033 51.809c-1.819 1.978 0 6.676 1.82 2.758 1.798-3.538-.72-5.117-1.82-2.758z" fill="#007ead" fill-rule="evenodd"/><path d="M110.033 51.809c-1.819 1.978 0 6.676 1.82 2.758 1.798-3.538-.72-5.117-1.82-2.758" fill="none" stroke="#d3e1ed" stroke-width=".48" stroke-linecap="round" stroke-linejoin="round"/><path d="M80.851 72.736c-2.219 1.559-.38 6.616 1.839 2.338 1.459-3.517-.74-5.076-1.839-2.338z" fill="#007ead" fill-rule="evenodd"/><path d="M80.851 72.736c-2.219 1.559-.38 6.616 1.839 2.338 1.459-3.517-.74-5.076-1.839-2.338" fill="none" stroke="#d3e1ed" stroke-width=".48" stroke-linecap="round" stroke-linejoin="round"/><path d="M80.851 72.736c-2.219 1.559-.38 6.616 1.839 2.338 1.459-3.517-.74-5.076-1.839-2.338" fill="none" stroke="#d3e1ed" stroke-width=".48" stroke-linecap="round" stroke-linejoin="round"/><path d="M77.173 89.426c-1.859-2.639-6.296 1.04-2.218 3.158 3.318 1.559 4.797-2.119 2.218-3.158z" fill="#007ead" fill-rule="evenodd"/><path d="M77.173 89.426c-1.859-2.639-6.296 1.04-2.218 3.158 3.318 1.559 4.797-2.119 2.218-3.158" fill="none" stroke="#d3e1ed" stroke-width=".48" stroke-linecap="round" stroke-linejoin="round"/><path d="M26.104 81.33c0 1.18 2.479 2.34 2.479.78 0-1.579-1.76-2.758-2.479-.78z" fill="#007ead" fill-rule="evenodd"/><path d="M26.104 81.33c0 1.18 2.479 2.34 2.479.78 0-1.579-1.76-2.758-2.479-.78" fill="none" stroke="#d3e1ed" stroke-width=".48" stroke-linecap="round" stroke-linejoin="round"/><path d="M44.613 107.435c.72 2.338 5.397 3.498 4.677 0-.36-2.738-5.756-2.339-4.677 0z" fill="#007ead" fill-rule="evenodd"/><path d="M44.613 107.435c.72 2.338 5.397 3.498 4.677 0-.36-2.738-5.756-2.339-4.677 0" fill="none" stroke="#d3e1ed" stroke-width=".48" stroke-linecap="round" stroke-linejoin="round"/><path d="M44.613 107.435c.72 2.338 5.397 3.498 4.677 0-.36-2.738-5.756-2.339-4.677 0" fill="none" stroke="#d3e1ed" stroke-width=".48" stroke-linecap="round" stroke-linejoin="round"/><path d="M52.668 105.896c1.799 2.398 4.697-1.999 1.799-3.198-2.159-.8-2.538 1.599-1.799 3.198z" fill="#007ead" fill-rule="evenodd"/><path d="M52.668 105.896c1.799 2.398 4.697-1.999 1.799-3.198-2.159-.8-2.538 1.599-1.799 3.198" fill="none" stroke="#d3e1ed" stroke-width=".48" stroke-linecap="round" stroke-linejoin="round"/><path d="M52.668 105.896c1.799 2.398 4.697-1.999 1.799-3.198-2.159-.8-2.538 1.599-1.799 3.198" fill="none" stroke="#d3e1ed" stroke-width=".48" stroke-linecap="round" stroke-linejoin="round"/><path d="M18.709 31.061c.36-.78 0-3.118-1.12-1.939-1.479 1.54.74 3.858 1.12 1.94z" fill="#007ead" fill-rule="evenodd"/><path d="M18.709 31.061c.36-.78 0-3.118-1.12-1.939-1.479 1.54.74 3.858 1.12 1.94" fill="none" stroke="#d3e1ed" stroke-width=".48" stroke-linecap="round" stroke-linejoin="round"/><path d="M18.709 31.061c.36-.78 0-3.118-1.12-1.939-1.479 1.54.74 3.858 1.12 1.94" fill="none" stroke="#d3e1ed" stroke-width=".48" stroke-linecap="round" stroke-linejoin="round"/><path d="M23.446 25.265c2.238-.78 2.978-5.877-.38-5.077-2.239.78-2.239 6.236.38 5.077z" fill="#007ead" fill-rule="evenodd"/><path d="M23.446 25.265c2.238-.78 2.978-5.877-.38-5.077-2.239.78-2.239 6.236.38 5.077" fill="none" stroke="#d3e1ed" stroke-width=".48" stroke-linecap="round" stroke-linejoin="round"/><path d="M23.446 25.265c2.238-.78 2.978-5.877-.38-5.077-2.239.78-2.239 6.236.38 5.077" fill="none" stroke="#d3e1ed" stroke-width=".48" stroke-linecap="round" stroke-linejoin="round"/><path d="M104.956 29.102c1.46 2.759 4.378-1.579 1.82-2.758-2.18-1.2-2.56 1.58-1.82 2.758z" fill="#007ead" fill-rule="evenodd"/><path d="M104.956 29.102c1.46 2.759 4.378-1.579 1.82-2.758-2.18-1.2-2.56 1.58-1.82 2.758" fill="none" stroke="#d3e1ed" stroke-width=".48" stroke-linecap="round" stroke-linejoin="round"/><path d="M104.956 29.102c1.46 2.759 4.378-1.579 1.82-2.758-2.18-1.2-2.56 1.58-1.82 2.758" fill="none" stroke="#d3e1ed" stroke-width=".48" stroke-linecap="round" stroke-linejoin="round"/><path d="M61.403 70.197c0-2.698-5.477-5.796-5.097-1.918 0 3.458 6.176 4.997 5.097 1.918z" fill="#007ead" fill-rule="evenodd"/><path d="M61.403 70.197c0-2.698-5.477-5.796-5.097-1.918 0 3.458 6.176 4.997 5.097 1.918" fill="none" stroke="#d3e1ed" stroke-width=".48" stroke-linecap="round" stroke-linejoin="round"/><path d="M55.167 75.874c-.74-.78-2.2-1.959-2.2-.78 0 2.34 3.279 2.34 2.2.78z" fill="#007ead" fill-rule="evenodd"/><path d="M55.167 75.874c-.74-.78-2.2-1.959-2.2-.78 0 2.34 3.279 2.34 2.2.78" fill="none" stroke="#d3e1ed" stroke-width=".48" stroke-linecap="round" stroke-linejoin="round"/><path d="M77.873 58.405c-.74-.76-2.199-1.92-2.199-.76 0 2.279 3.278 2.279 2.199.76z" fill="#007ead" fill-rule="evenodd"/><path d="M77.873 58.405c-.74-.76-2.199-1.92-2.199-.76 0 2.279 3.278 2.279 2.199.76" fill="none" stroke="#d3e1ed" stroke-width=".48" stroke-linecap="round" stroke-linejoin="round"/><path d="M77.873 58.405c-.74-.76-2.199-1.92-2.199-.76 0 2.279 3.278 2.279 2.199.76" fill="none" stroke="#d3e1ed" stroke-width=".48" stroke-linecap="round" stroke-linejoin="round"/><path d="M42.374 78.632c-.36-2.718-4.757-.4-2.558 1.92 1.459 1.918 2.918-.38 2.558-1.92z" fill="#007ead" fill-rule="evenodd"/><path d="M42.374 78.632c-.36-2.718-4.757-.4-2.558 1.92 1.459 1.918 2.918-.38 2.558-1.92" fill="none" stroke="#d3e1ed" stroke-width=".48" stroke-linecap="round" stroke-linejoin="round"/><path d="M42.374 78.632c-.36-2.718-4.757-.4-2.558 1.92 1.459 1.918 2.918-.38 2.558-1.92" fill="none" stroke="#d3e1ed" stroke-width=".48" stroke-linecap="round" stroke-linejoin="round"/><path d="M27.843 69.698c0-3.138 5.857-2.739 4.757.78-1.1 3.117-5.137 2.338-4.757-.78z" fill="#007ead" fill-rule="evenodd"/><path d="M27.843 69.698c0-3.138 5.857-2.739 4.757.78-1.1 3.117-5.137 2.338-4.757-.78" fill="none" stroke="#d3e1ed" stroke-width=".48" stroke-linecap="round" stroke-linejoin="round"/><path d="M27.843 69.698c0-3.138 5.857-2.739 4.757.78-1.1 3.117-5.137 2.338-4.757-.78" fill="none" stroke="#d3e1ed" stroke-width=".48" stroke-linecap="round" stroke-linejoin="round"/><path d="M34.38 56.106c-.72-2.738-5.797-2.339-2.54 1.16 2.54 2.338 4.338.779 2.54-1.16z" fill="#007ead" fill-rule="evenodd"/><path d="M34.38 56.106c-.72-2.738-5.797-2.339-2.54 1.16 2.54 2.338 4.338.779 2.54-1.16" fill="none" stroke="#d3e1ed" stroke-width=".48" stroke-linecap="round" stroke-linejoin="round"/><path d="M34.38 56.106c-.72-2.738-5.797-2.339-2.54 1.16 2.54 2.338 4.338.779 2.54-1.16" fill="none" stroke="#d3e1ed" stroke-width=".48" stroke-linecap="round" stroke-linejoin="round"/><path d="M69.898 55.286c-2.219 0-4.458 4.658-1.48 4.658 2.959.38 4.058-5.057 1.48-4.658z" fill="#007ead" fill-rule="evenodd"/><path d="M69.898 55.286c-2.219 0-4.458 4.658-1.48 4.658 2.959.38 4.058-5.057 1.48-4.658" fill="none" stroke="#d3e1ed" stroke-width=".48" stroke-linecap="round" stroke-linejoin="round"/><path d="M69.898 55.286c-2.219 0-4.458 4.658-1.48 4.658 2.959.38 4.058-5.057 1.48-4.658" fill="none" stroke="#d3e1ed" stroke-width=".48" stroke-linecap="round" stroke-linejoin="round"/><path d="M70.497 61.843c-2.578.779.36 5.036 2.199 2.718 1.46-1.939-.74-3.118-2.199-2.718z" fill="#007ead" fill-rule="evenodd"/><path d="M70.497 61.843c-2.578.779.36 5.036 2.199 2.718 1.46-1.939-.74-3.118-2.199-2.718" fill="none" stroke="#d3e1ed" stroke-width=".48" stroke-linecap="round" stroke-linejoin="round"/><path d="M70.497 61.843c-2.578.779.36 5.036 2.199 2.718 1.46-1.939-.74-3.118-2.199-2.718" fill="none" stroke="#d3e1ed" stroke-width=".48" stroke-linecap="round" stroke-linejoin="round"/><path d="M41.795 98.22c1.799 2.719 4.697-1.559 1.799-2.738-2.16-1.18-2.539 1.56-1.8 2.738z" fill="#007ead" fill-rule="evenodd"/><path d="M41.795 98.22c1.799 2.719 4.697-1.559 1.799-2.738-2.16-1.18-2.539 1.56-1.8 2.738" fill="none" stroke="#d3e1ed" stroke-width=".48" stroke-linecap="round" stroke-linejoin="round"/><path d="M96.502 95.302c1.479 3.138-4.058 5.477-4.438 1.56 0-3.519 4.078-4.318 4.438-1.56z" fill="#007ead" fill-rule="evenodd"/><path d="M96.502 95.302c1.479 3.138-4.058 5.477-4.438 1.56 0-3.519 4.078-4.318 4.438-1.56" fill="none" stroke="#d3e1ed" stroke-width=".48" stroke-linecap="round" stroke-linejoin="round"/><path d="M96.502 95.302c1.479 3.138-4.058 5.477-4.438 1.56 0-3.519 4.078-4.318 4.438-1.56" fill="none" stroke="#d3e1ed" stroke-width=".48" stroke-linecap="round" stroke-linejoin="round"/><path d="M60.403 25.285c1.76 2.798-6.516 4.897-7.115 1.399 0-3.138 6.516-3.858 7.115-1.4z" fill="#007ead" fill-rule="evenodd"/><path d="M60.403 25.285c1.76 2.798-6.516 4.897-7.115 1.399 0-3.138 6.516-3.858 7.115-1.4" fill="none" stroke="#d3e1ed" stroke-width=".48" stroke-linecap="round" stroke-linejoin="round"/><path d="M65.64 105.696c1.82 1.959 6.196-.8 2.199-2.379-3.298-1.579-4.397 1.2-2.199 2.379z" fill="#007ead" fill-rule="evenodd"/><path d="M65.64 105.696c1.82 1.959 6.196-.8 2.199-2.379-3.298-1.579-4.397 1.2-2.199 2.379" fill="none" stroke="#d3e1ed" stroke-width=".48" stroke-linecap="round" stroke-linejoin="round"/><path d="M27.563 96.222c-1.459 1.139 1.1 3.038 1.82 2.278.719-1.139-.36-4.197-1.82-2.278z" fill="#007ead" fill-rule="evenodd"/><path d="M27.563 96.222c-1.459 1.139 1.1 3.038 1.82 2.278.719-1.139-.36-4.197-1.82-2.278" fill="none" stroke="#d3e1ed" stroke-width=".48" stroke-linecap="round" stroke-linejoin="round"/><path d="M69.058 36.858c-2.938.76-4.417-4.997-.74-4.997 2.959.4 3.678 4.617.74 4.997z" fill="#007ead" fill-rule="evenodd"/><path d="M69.058 36.858c-2.938.76-4.417-4.997-.74-4.997 2.959.4 3.678 4.617.74 4.997" fill="none" stroke="#d3e1ed" stroke-width=".48" stroke-linecap="round" stroke-linejoin="round"/><path d="M69.058 36.858c-2.938.76-4.417-4.997-.74-4.997 2.959.4 3.678 4.617.74 4.997" fill="none" stroke="#d3e1ed" stroke-width=".48" stroke-linecap="round" stroke-linejoin="round"/><path d="M50.29 42.814c.879 4.977 5.636 6.636 4.457-.84-1.48-7.475-6.256-4.137-4.457.84z" fill="#007ead" fill-rule="evenodd"/><path d="M50.29 42.814c.879 4.977 5.636 6.636 4.457-.84-1.48-7.475-6.256-4.137-4.457.84" fill="none" stroke="#d3e1ed" stroke-width=".48" stroke-linecap="round" stroke-linejoin="round"/><path d="M72.376 22.227c.74.38 2.579.76 2.219-.38-1.12-2.299-3.718-.76-2.219.38z" fill="#007ead" fill-rule="evenodd"/><path d="M72.376 22.227c.74.38 2.579.76 2.219-.38-1.12-2.299-3.718-.76-2.219.38" fill="none" stroke="#d3e1ed" stroke-width=".48" stroke-linecap="round" stroke-linejoin="round"/><path d="M73.096 45.892c1.099 2.319 6.975 3.078 5.137-.4-1.46-3.477-7.356-1.918-5.137.4z" fill="#007ead" fill-rule="evenodd"/><path d="M73.096 45.892c1.099 2.319 6.975 3.078 5.137-.4-1.46-3.477-7.356-1.918-5.137.4" fill="none" stroke="#d3e1ed" stroke-width=".48" stroke-linecap="round" stroke-linejoin="round"/><path d="M73.096 45.892c1.099 2.319 6.975 3.078 5.137-.4-1.46-3.477-7.356-1.918-5.137.4" fill="none" stroke="#d3e1ed" stroke-width=".48" stroke-linecap="round" stroke-linejoin="round"/><path d="M84.449 43.873c-1.1 1.16 1.459 3.099 2.178 1.94.72-.78-.36-4.278-2.178-1.94z" fill="#007ead" fill-rule="evenodd"/><path d="M84.449 43.873c-1.1 1.16 1.459 3.099 2.178 1.94.72-.78-.36-4.278-2.178-1.94" fill="none" stroke="#d3e1ed" stroke-width=".48" stroke-linecap="round" stroke-linejoin="round"/><path d="M13.552 65.32c-1.76.76-1.76-2.318-.36-3.098 1.4-.78 2.439 1.54.36 3.098z" fill="#007ead" fill-rule="evenodd"/><path d="M13.552 65.32c-1.76.76-1.76-2.318-.36-3.098 1.4-.78 2.439 1.54.36 3.098" fill="none" stroke="#d3e1ed" stroke-width=".48" stroke-linecap="round" stroke-linejoin="round"/><path d="M89.166 9.294c-2.539 1.54 1.1 4.977 2.538 2.299 1.08-2.299-1.439-3.078-2.538-2.299z" fill="#007ead" fill-rule="evenodd"/><path d="M89.166 9.294c-2.539 1.54 1.1 4.977 2.538 2.299 1.08-2.299-1.439-3.078-2.538-2.299" fill="none" stroke="#d3e1ed" stroke-width=".48" stroke-linecap="round" stroke-linejoin="round"/><path d="M89.166 9.294c-2.539 1.54 1.1 4.977 2.538 2.299 1.08-2.299-1.439-3.078-2.538-2.299" fill="none" stroke="#d3e1ed" stroke-width=".48" stroke-linecap="round" stroke-linejoin="round"/><path d="M75.294 9.734c-2.938.78-4.417-5.137-.74-4.737 2.959 0 3.679 4.337.74 4.737z" fill="#007ead" fill-rule="evenodd"/><path d="M75.294 9.734c-2.938.78-4.417-5.137-.74-4.737 2.959 0 3.679 4.337.74 4.737" fill="none" stroke="#d3e1ed" stroke-width=".48" stroke-linecap="round" stroke-linejoin="round"/><path d="M82.93 11.633c.74.4 2.578.8 2.218-.4-.74-2.398-3.717-.8-2.218.4z" fill="#007ead" fill-rule="evenodd"/><path d="M82.93 11.633c.74.4 2.578.8 2.218-.4-.74-2.398-3.717-.8-2.218.4" fill="none" stroke="#d3e1ed" stroke-width=".48" stroke-linecap="round" stroke-linejoin="round"/><path d="M82.93 11.633c.74.4 2.578.8 2.218-.4-.74-2.398-3.717-.8-2.218.4" fill="none" stroke="#d3e1ed" stroke-width=".48" stroke-linecap="round" stroke-linejoin="round"/><path d="M71.297 4.177c.74.38 2.538.74 2.178-.38-.72-2.238-3.637-.739-2.178.38z" fill="#007ead" fill-rule="evenodd"/><path d="M71.297 4.177c.74.38 2.538.74 2.178-.38-.72-2.238-3.637-.739-2.178.38" fill="none" stroke="#d3e1ed" stroke-width=".48" stroke-linecap="round" stroke-linejoin="round"/><path d="M71.297 4.177c.74.38 2.538.74 2.178-.38-.72-2.238-3.637-.739-2.178.38" fill="none" stroke="#d3e1ed" stroke-width=".48" stroke-linecap="round" stroke-linejoin="round"/><path d="M47.131 6.936c1.08.38 2.879.38 2.519-.78-1.08-1.959-3.958-.4-2.519.78z" fill="#007ead" fill-rule="evenodd"/><path d="M47.131 6.936c1.08.38 2.879.38 2.519-.78-1.08-1.959-3.958-.4-2.519.78" fill="none" stroke="#d3e1ed" stroke-width=".48" stroke-linecap="round" stroke-linejoin="round"/><path d="M47.131 6.936c1.08.38 2.879.38 2.519-.78-1.08-1.959-3.958-.4-2.519.78" fill="none" stroke="#d3e1ed" stroke-width=".48" stroke-linecap="round" stroke-linejoin="round"/><path d="M80.211 108.474c-1.819.78-1.819-2.358-.36-3.138 1.46-.8 2.54 1.56.36 3.138z" fill="#007ead" fill-rule="evenodd"/><path d="M80.211 108.474c-1.819.78-1.819-2.358-.36-3.138 1.46-.8 2.54 1.56.36 3.138" fill="none" stroke="#d3e1ed" stroke-width=".48" stroke-linecap="round" stroke-linejoin="round"/><path d="M35.139 29.542c-7.316 3.898-15.75 18.289-9.515 35.019-.36-12.832.74-23.726 9.515-35.019z" fill="#ebe4ee" fill-rule="evenodd"/><path d="M14.551 61.083C12.373 29.503 35.42 5.717 65.761 5.717c10.972 0 20.866 2.358 29.261 7.035C85.888 5.717 73.815 2.598 61.023 2.598c-30.362 0-53.787 23.786-51.589 55.367 1.46 22.226 9.515 39.756 25.245 48.33-12.432-9.354-19.028-25.324-20.128-45.212z" fill="#f3c9cb" fill-rule="evenodd"/><path clip-path="url(#a)" d="M14.99 82.95c-2.937-7.016-4.756-15.59-5.496-24.945C7.296 26.404 30.741 2.598 61.123 2.598 42.454 6.116-.04 19.388 14.991 82.95z" fill="#fff" fill-rule="evenodd"/><path clip-path="url(#a)" d="M61.423.76C30.002.76 5.876 25.704 8.075 58.425c2.199 32.74 17.91 56.106 51.529 56.106 33.62 0 60.283-10.894 59.564-52.988C118.428 19.468 92.864.76 61.423.76" fill="none" stroke="#58585a" stroke-width=".8" stroke-linecap="round" stroke-linejoin="round"/><path d="M70.157 11.573c-16.47-2.738-35.118 7.795-44.273 19.088-8.055 10.134-10.253 24.945-2.558 41.695 11.333 24.945 43.174 35.459 65.12 22.227 9.874-5.857 21.208-18.33 17.19-32.36-1.1-5.058-3.658-7.396-5.856-11.674-2.2-5.077-1.1-10.913-2.2-16.37-1.818-7.795-13.89-19.488-27.423-22.606" fill="none" stroke="#fff" stroke-width=".8" stroke-linecap="round" stroke-linejoin="round"/><path d="M32.56 21.687c-.38-3.098 1.46-5.837 4.358-6.216 2.558-.4 5.097 1.938 5.456 4.677.36 3.098-1.459 5.836-4.357 6.216-2.558.38-5.097-1.939-5.457-4.677zm10.554-5.817c-.38-1.199.38-1.998 1.479-1.998 1.12-.4 1.859.4 2.219 1.599 0 1.199-.74 1.998-1.84 1.998-.739.4-1.858-.4-1.858-1.599zM28.583 27.543c0-1.199.72-1.998 1.439-2.398 1.08 0 2.158.8 2.158 1.999 0 .8-.72 1.998-1.439 1.998-1.079.4-2.158-.4-2.158-1.599z" fill="#fff" fill-rule="evenodd"/><path d="M40.535 39.996c.52-2.359-5.376-5.497-6.456-1.96-.54 2.74 6.456 4.698 6.456 1.96z" fill="#007ead" fill-rule="evenodd"/><path d="M40.535 39.996c.52-2.359-5.376-5.497-6.456-1.96-.54 2.74 6.456 4.698 6.456 1.96" fill="none" stroke="#d3e1ed" stroke-width=".48" stroke-linecap="round" stroke-linejoin="round"/><path d="M52.848 7.376c1.08 3.178-4.357 5.536-4.357 1.579 0-3.558 3.637-4.358 4.357-1.58z" fill="#007ead" fill-rule="evenodd"/><path d="M52.848 7.376c1.08 3.178-4.357 5.536-4.357 1.579 0-3.558 3.637-4.358 4.357-1.58" fill="none" stroke="#d3e1ed" stroke-width=".48" stroke-linecap="round" stroke-linejoin="round"/><path d="M80.231 12.273c-5.596 1.199-5.596-3.638-1.858-4.857 3.737-1.22 7.455 2.418 1.858 4.857z" fill="#007ead" fill-rule="evenodd"/><path d="M80.231 12.273c-5.596 1.199-5.596-3.638-1.858-4.857 3.737-1.22 7.455 2.418 1.858 4.857" fill="none" stroke="#d3e1ed" stroke-width=".48" stroke-linecap="round" stroke-linejoin="round"/></svg>