<svg xmlns="http://www.w3.org/2000/svg" version="1.0" viewBox="0 0 176.769 134.627"><defs><clipPath clipPathUnits="userSpaceOnUse" id="a"><path d="M4.477 1.679H181.01v134.718H4.477z"/></clipPath></defs><path clip-path="url(#a)" d="M130.101 17.01c13.132-3.238 36.378 22.746 42.434 32.5 3.039 4.337 8.076 11.913 7.076 15.17 0 4.318-5.057 1.08-6.076 5.398-4.038 15.17 11.113 32.5-16.15 34.659-9.095 1.099-17.19-2.16-23.246 3.258-7.076 6.496 0 15.17-3.038 21.666-4.038 9.735-13.132 4.338-24.246 1.08-15.15-5.417-13.132-4.338-25.264-1.08-11.114 4.338-36.358 9.735-49.49-3.258-9.095-7.575-8.096-16.25-8.096-23.825 1.02-10.834 2.02-11.913-6.056-22.746C5.816 61.422.76 40.835 10.873 26.764 19.968 14.85 41.175.76 61.383 2.938c17.19 1.08 51.529 17.33 68.718 14.072z" fill="#d1eef5" fill-rule="evenodd"/><path d="M29.922 98.06c0 9.795-4.058 15.231 3.038 23.926 4.058 4.357 9.114 8.695 15.19 9.794 12.133 4.338 28.344-1.1 40.476-5.437-5.057-1.099-10.114-3.258-15.17-4.357-6.077-2.179-9.115-4.337-15.191-7.615-7.076-3.258-11.134 0-17.21 0-8.095-1.08-9.114-8.695-11.133-15.211zm66.859 25.025c6.077 0 24.286 11.833 29.363 7.536 3.018-3.218-1.02-11.833-2.04-15.051-.999-6.456 2.04-11.853 2.04-18.309-2.04 6.456-3.039 12.912-5.077 19.368-3.019 6.456-10.114 5.397-16.19 5.397zm44.513-34.719c-3.018 4.338-8.055 7.596-6.036 14.092 6.036-6.496 19.128 0 26.184-2.159 9.055-2.158 9.055-16.27 5.037-24.945 0 7.596-1 15.191-9.054 15.191-5.037 1.08-11.094-7.595-16.13-2.179z" fill="#aadce8" fill-rule="evenodd"/><path d="M153.407 34.28c5.037 6.515 16.07 15.19 19.088 22.765 2 7.596-4.017 5.417-6.016 11.933-2.019 5.417 5.017 13.012 1 17.33-4.018-10.834 0-22.747-3.019-32.5-3.018-7.596-11.053-18.43-15.07-23.866zM59.484 20.348c9.134 6.456 13.172 17.23 23.306 21.527 10.154 4.297 21.287 1.079 31.42 0-13.171 2.158-19.248-4.298-30.4-11.833-5.058-4.318-11.154-7.536-17.23-8.615-5.057-2.159-10.134-1.08-15.211-3.238z" fill="#aadce8" fill-rule="evenodd"/><path d="M40.016 126.243c4.077 1.07 6.116 4.278 10.184 5.347 4.067 2.129 8.145 0 12.212 0 7.126-1.07 13.232-2.138 19.338-5.347-3.048-4.277-10.173-4.277-15.26-3.208-7.126 3.208-18.33 7.486-26.474 1.07zm102.258-36.737c-3.998 3.278-9.035 7.675-7.016 14.231 7.016-9.854 17.07-2.179 25.085-8.755-5.017 2.2-9.035 2.2-13.032-1.099-2.02-2.179-5.037-12.053-8.035-4.377z" fill="#84c3d2" fill-rule="evenodd"/><path d="M31.94 16.99c-9.034 7.595-17.069 13.022-20.087 26.044-3.018 11.933 8.035 22.786 11.053 34.719-5.027-15.19-9.044-23.866-3.018-39.056 3.018-7.596 5.027-13.023 10.044-18.45zm26.305 12.152c5.077 6.496 11.153 14.052 19.248 18.37 12.153 6.495 21.267 4.337 35.439 4.337-12.153 2.158-23.286 12.952-34.42 3.238-7.095-6.476-14.191-16.21-20.267-23.766z" fill="#f7fcfd" fill-rule="evenodd"/><path clip-path="url(#a)" d="M130.101 17.01c13.132-3.238 36.378 22.746 42.434 32.5 3.039 4.337 8.076 11.913 7.076 15.17 0 4.318-5.057 1.08-6.076 5.398-4.038 15.17 11.113 32.5-16.15 34.659-9.095 1.099-17.19-2.16-23.246 3.258-7.076 6.496 0 15.17-3.038 21.666-4.038 9.735-13.132 4.338-24.246 1.08-15.15-5.417-13.132-4.338-25.264-1.08-11.114 4.338-36.358 9.735-49.49-3.258-9.095-7.575-8.096-16.25-8.096-23.825 1.02-10.834 2.02-11.913-6.056-22.746C5.816 61.422.76 40.835 10.873 26.764 19.968 14.85 41.175.76 61.383 2.938c17.19 1.08 51.529 17.33 68.718 14.072" fill="none" stroke="#333" stroke-width=".8" stroke-linecap="round" stroke-linejoin="round"/><path d="M143.313 83.03c-13.352 7.535-12.312 20.447-12.312 31.18m-9.914-71.036c-14.132 1.08-24.226 5.397-41.395-2.179C68.578 34.5 58.485 14.991 47.372 18.25m45.332 108.113c-6.017-2.238-19.069-5.596-23.106-4.477" fill="none" stroke="#333" stroke-width=".8" stroke-linecap="round" stroke-linejoin="round"/><path d="M48.17 23.736c1.01-3.308 3.029-9.944 6.047-8.835 4.028 1.11-2.009 11.043-2.009 11.043m67.999 19.249c0-2.2-1-5.477-1.999-8.775-8.075 1.1-2.018 10.953 0 14.231m23.106 35.659c-1.079-1.12-2.178-3.358-3.278-4.478" fill="none" stroke="#d1eef5" stroke-width=".8" stroke-miterlimit="8"/></svg>