<svg xmlns="http://www.w3.org/2000/svg" version="1.0" viewBox="0 0 91.918 94.375"><defs><clipPath clipPathUnits="userSpaceOnUse" id="a"><path d="M.32.64h91.784v94.422H.32z"/></clipPath></defs><path d="M5.956 47.331c0-25.005 19.009-45.292 42.455-45.292 23.465 0 42.454 20.287 42.454 45.292 0 25.025-18.989 45.293-42.454 45.293-23.446 0-42.455-20.268-42.455-45.293z" fill="#9dc3d9" fill-rule="evenodd"/><path d="M5.956 47.331c0-25.005 19.009-45.292 42.455-45.292 23.465 0 42.454 20.287 42.454 45.292 0 25.025-18.989 45.293-42.454 45.293-23.446 0-42.455-20.268-42.455-45.293" fill="none" stroke="#333" stroke-width=".8" stroke-linecap="round" stroke-linejoin="round"/><path d="M24.825 47.731c0-14.051 10.753-25.464 23.985-25.464 13.252 0 23.986 11.413 23.986 25.464 0 14.072-10.734 25.465-23.986 25.465-13.232 0-23.985-11.393-23.985-25.465z" fill="#ff0" fill-rule="evenodd"/><path d="M13.112 51.209c0-23.486 18.13-43.514 40.116-43.514 1.939 0 3.877.7 5.816.7-3.218-1.4-7.115-1.4-10.993-1.4-21.347 0-38.177 17.97-38.177 40.076 0 9.655 3.238 17.95 7.775 24.845-3.238-6.216-4.537-13.112-4.537-20.707z" fill="#fff" fill-rule="evenodd"/><path d="M66.18 11.873c7.755 7.595 12.932 17.929 12.932 29.642 0 22.046-16.81 40.655-38.157 40.655-6.476 0-12.292-2.079-18.129-4.837 7.136 6.216 15.53 10.334 25.884 10.334 20.708 0 37.518-17.91 37.518-40.636 0-15.17-7.756-28.262-20.048-35.158z" fill="#4e99be" fill-rule="evenodd"/><path d="M30.062 48.41c0-12.412 11.653-22.086 23.306-22.086h.64c-1.94-.7-3.878-.7-6.477-.7-10.993 0-20.068 9.675-20.068 21.407 0 4.838 1.96 10.354 4.538 14.492-1.94-3.438-1.94-8.975-1.94-13.112z" fill="#fff" fill-rule="evenodd"/><path d="M59.064 29.782c3.898 3.458 6.496 8.994 6.496 15.89 0 11.753-9.094 21.407-20.128 21.407-3.238 0-6.476-1.379-9.734-2.758 3.898 3.458 8.435 5.517 13.632 5.517 11.033 0 20.108-9.654 20.108-21.407 0-8.275-4.537-15.191-10.374-18.65z" fill="#ffd100" fill-rule="evenodd"/><path d="M24.825 47.731c0-14.051 10.753-25.464 23.985-25.464 13.252 0 23.986 11.413 23.986 25.464 0 14.072-10.734 25.465-23.986 25.465-13.232 0-23.985-11.393-23.985-25.465" fill="none" stroke="#333" stroke-width=".32" stroke-linecap="round" stroke-linejoin="round"/><path d="M20.987 34.659c0-3.438 2.619-6.236 5.837-6.236 3.238 0 5.836 2.798 5.836 6.236 0 3.458-2.598 6.236-5.836 6.236-3.218 0-5.837-2.778-5.837-6.236zm1.28 10.993c0-1.919 1.459-3.478 3.238-3.478 1.798 0 3.238 1.56 3.238 3.478 0 1.94-1.44 3.478-3.238 3.478-1.78 0-3.238-1.539-3.238-3.478zm9.034-17.189c0-1.12.88-2.039 1.959-2.039 1.1 0 1.959.92 1.959 2.039 0 1.14-.86 2.039-1.96 2.039-1.079 0-1.958-.9-1.958-2.04z" fill="#fff" fill-rule="evenodd"/><path d="M53.847 21.487c4.578 2.059 5.217-1.38 7.836-2.059 3.258-.7 6.516-1.379 9.754-2.079-2.599-3.437-4.558-6.196-8.455-8.274zm23.346 49.63c-1.279 7.595-7.056 15.17-14.79 16.55 0-4.138 2.578-7.576 3.877-11.033z" fill="#4e99be" fill-rule="evenodd"/><path d="M68.099 5.597c1.279 2.758 0 6.895-3.238 8.275-5.177 2.078-6.476 4.837-8.415 6.915-3.238 6.197-7.775 8.955-20.068 8.275-8.415 0-18.13 0-22.007 3.438-.66.7-1.299 2.079-1.299 5.517 0 6.916 2.579 8.975 7.755 12.432l5.837 4.818c2.578 2.078 3.877 2.778 5.816 4.157 5.177 2.059 8.415 4.817 14.891 16.55 1.3 1.38 3.898 5.517 6.476 5.517 2.599-.68 6.476-5.517 8.415-13.112.66-3.438 3.878-5.517 7.116-4.138 3.238.7 5.177 4.138 4.537 7.595-3.238 12.413-10.354 20.688-18.768 22.067-3.878 0-11.014-.68-17.49-11.713-5.177-8.974-7.755-10.354-10.354-11.733-1.938-1.379-4.517-2.758-7.755-5.516l-5.177-4.138C7.895 56.646.76 51.83 1.42 38.017c0-6.196 1.939-11.033 5.177-14.471 5.816-6.217 16.83-7.596 30.422-6.916 7.775 0 8.414-.68 9.714-2.758 1.939-2.759 5.177-7.576 13.591-11.713 3.238-1.4 6.477 0 7.776 3.438z" fill="#f5bcc5" fill-rule="evenodd"/><path d="M31.92 64.301c-3.217-2.059-16.77-11.753-20.647-15.91-3.238-4.158-1.939-9.694.64-15.251 0 0-1.939 8.315.66 13.172 3.217 4.837 14.19 12.452 20.007 15.23 5.797 3.459 7.096 6.237 10.954 12.453-2.579-2.758-6.436-6.216-11.613-9.694zm31.042-53.148c-5.777 3.438-6.436 6.176-10.294 10.274-3.218 4.118-8.375 5.477-13.532 5.477 4.518-1.36 10.954-4.098 13.532-8.215 2.579-4.098 10.294-7.536 10.294-7.536zm5.117 68.978C63.56 87.647 56.446 93.104 48.05 90.385c-7.755-2.738-9.714-10.953-9.714-10.953 2.598 3.418 7.115 8.894 14.231 8.894s12.293-4.777 15.51-8.195z" fill="#ec6d88" fill-rule="evenodd"/><path d="M5.477 28.982C8.055 21.507 17.709 18.11 35.698 18.11c-7.055 1.36-23.146 1.36-30.221 10.873z" fill="#eaf1f7" fill-rule="evenodd"/><path clip-path="url(#a)" d="M68.099 5.597c1.279 2.758 0 6.895-3.238 8.275-5.177 2.078-6.476 4.837-8.415 6.915-3.238 6.197-7.775 8.955-20.068 8.275-8.415 0-18.13 0-22.007 3.438-.66.7-1.299 2.079-1.299 5.517 0 6.916 2.579 8.975 7.755 12.432l5.837 4.818c2.578 2.078 3.877 2.778 5.816 4.157 5.177 2.059 8.415 4.817 14.891 16.55 1.3 1.38 3.898 5.517 6.476 5.517 2.599-.68 6.476-5.517 8.415-13.112.66-3.438 3.878-5.517 7.116-4.138 3.238.7 5.177 4.138 4.537 7.595-3.238 12.413-10.354 20.688-18.768 22.067-3.878 0-11.014-.68-17.49-11.713-5.177-8.974-7.755-10.354-10.354-11.733-1.938-1.379-4.517-2.758-7.755-5.516l-5.177-4.138C7.895 56.646.76 51.83 1.42 38.017c0-6.196 1.939-11.033 5.177-14.471 5.816-6.217 16.83-7.596 30.422-6.916 7.775 0 8.414-.68 9.714-2.758 1.939-2.759 5.177-7.576 13.591-11.713 3.238-1.4 6.477 0 7.776 3.438" fill="none" stroke="#333" stroke-width=".8" stroke-linecap="round" stroke-linejoin="round"/></svg>