<svg xmlns="http://www.w3.org/2000/svg" version="1.0" viewBox="0 0 107.036 109.569"><defs><clipPath clipPathUnits="userSpaceOnUse" id="a"><path d="M-.16-.16h106.895v109.614H-.16z"/></clipPath></defs><path d="M.76 54.487C.76 24.825 23.386.76 51.249.76c27.903 0 50.49 24.065 50.49 53.727 0 29.702-22.587 53.727-50.49 53.727-27.863 0-50.49-24.025-50.49-53.727z" fill="#9dc3d9" fill-rule="evenodd"/><path d="M45.692 24.865c12.193-7.795 26.784-4.317 38.137 2.598-5.676-5.196-11.353-9.514-18.629-9.514-3.278 0-8.115-.88-11.393.88-3.238.84-4.037 4.317-8.115 4.317z" fill="#4e99be" fill-rule="evenodd"/><path d="M10.594 59.644c0-27.663 21.187-50.17 47.211-50.17 2.478 0 4.917.88 6.516.88-4.038-1.76-8.115-1.76-12.992-1.76-24.465 0-44.013 20.788-44.013 46.732 0 10.354 3.278 20.748 8.994 28.503-3.278-6.916-5.716-15.55-5.716-24.185z" fill="#fff" fill-rule="evenodd"/><path d="M73.435 13.472c8.955 8.715 14.672 20.867 14.672 34.739 0 26.064-20.388 47.77-44.813 47.77-7.316 0-14.671-2.598-20.388-6.075 7.356 7.835 17.95 12.152 29.342 12.152 24.426 0 43.974-20.827 43.974-46.891 0-18.23-8.955-33.86-22.787-41.695z" fill="#4e99be" fill-rule="evenodd"/><path d="M24.585 56.126c0-16.71 12.792-30.262 28.503-30.262 15.75 0 28.503 13.552 28.503 30.262 0 16.75-12.753 30.262-28.503 30.262-15.71 0-28.503-13.512-28.503-30.262z" fill="#ff0" fill-rule="evenodd"/><path d="M30.102 57.005c0-14.79 13.911-26.104 27.823-26.104.8 0-1.64 0 0 0-2.439-.88-4.917-1.759-7.356-1.759-13.112 0-23.745 11.313-23.745 25.225 0 6.116 2.478 13.072 5.756 17.39-2.478-4.318-2.478-10.434-2.478-14.752z" fill="#fff" fill-rule="evenodd"/><path d="M63.482 34.34c4.877 4.357 8.155 11.312 8.155 18.228 0 13.912-10.594 25.185-23.626 25.185-4.078 0-8.155-.88-11.433-2.599 4.917 3.438 9.794 6.037 16.31 6.037 12.233 0 22.786-11.273 22.786-25.145 0-9.554-4.877-17.35-12.192-21.707z" fill="#ffd100" fill-rule="evenodd"/><path d="M24.585 56.126c0-16.71 12.792-30.262 28.503-30.262 15.75 0 28.503 13.552 28.503 30.262 0 16.75-12.753 30.262-28.503 30.262-15.71 0-28.503-13.512-28.503-30.262" fill="none" stroke="#333" stroke-width=".48" stroke-linecap="round" stroke-linejoin="round"/><path d="M18.669 44.413c0-3.038 2.558-5.517 5.716-5.517 3.158 0 5.717 2.479 5.717 5.517 0 3.078-2.559 5.517-5.717 5.517-3.158 0-5.716-2.439-5.716-5.517zm1.679 9.914c0-1.879 1.319-3.438 2.918-3.438 1.639 0 2.918 1.56 2.918 3.438 0 1.919-1.28 3.438-2.918 3.438-1.6 0-2.918-1.52-2.918-3.438zM31.7 41.815c0-1.24.96-2.279 2.12-2.279 1.199 0 2.118 1.04 2.118 2.279 0 1.279-.92 2.278-2.118 2.278-1.16 0-2.12-1-2.12-2.278z" fill="#fff" fill-rule="evenodd"/><path d="M.76 54.487C.76 24.825 23.386.76 51.249.76c27.903 0 50.49 24.065 50.49 53.727 0 29.702-22.587 53.727-50.49 53.727-27.863 0-50.49-24.025-50.49-53.727" fill="none" stroke="#333" stroke-width=".8" stroke-linecap="round" stroke-linejoin="round"/><path d="M45.692 24.825c.84-12.233 17.87-8.715 24.386-5.237 7.315 2.639 12.192 9.594 17.869 15.71C96.86 16.95 69.278 12.593 59.524 10.834z" fill="#4e99be" fill-rule="evenodd"/><path clip-path="url(#a)" d="M43.174 8.355C30.9 18.829 32.54 28.383 33.34 37.937l.84 6.076c0 6.117-1.64 10.434-4.918 15.67l-4.877 11.314c-.84 2.598 0 6.076 3.278 7.795 3.238 1.76 7.316 0 8.955-3.478l4.077-9.554c3.278-6.076 6.556-12.152 5.717-23.466l-.8-5.236c-.84-9.555-.84-13.033 5.717-18.23C53.767 16.19 59.484 16.19 66 17.07c8.995 1.759 19.588 6.955 22.866 12.192 4.078 6.956 5.717 18.23 2.439 22.587-1.64 2.598-4.078 1.759-9.794.879-4.877-.88-11.433-1.759-17.15 1.719-7.316 5.237-8.155 13.072-8.155 19.148-.8 3.478-.8 6.077-1.64 7.836-3.237 6.955-13.031 10.433-20.387 7.795-4.077-1.719-7.355.88-8.155 4.357-1.639 3.478 0 6.956 3.238 8.715 13.912 4.317 30.222-1.759 36.738-14.791 1.639-4.357 2.478-8.715 2.478-13.032.8-4.357.8-6.956 2.439-7.835 1.639-1.76 4.078-.88 8.155-.88 6.516 1.76 14.711 3.478 21.227-4.357 8.955-10.434 4.877-29.542-.84-39.097-6.515-10.473-20.387-16.55-31.82-19.148-9.794-1.759-18.789 0-24.465 5.197z" fill="#f5bcc5" fill-rule="evenodd"/><path d="M59.444 4.997c-8.115 0-16.27 5.237-20.348 12.193-4.077 6.076-4.077 12.152-3.238 18.229.8 6.076 2.439 13.911-2.478 21.706 4.917-4.317 4.077-13.032 4.077-25.184.84-11.274 8.155-22.587 21.987-26.944zm-1.679 71.956c.84-9.514 2.478-15.59 8.155-20.827 5.717-4.317 16.31 1.759 23.626-.84 6.516-2.638 6.516-8.714 4.877-14.79 2.438 6.955 2.438 16.51-4.877 17.389-7.316.84-17.91-2.599-23.626 2.598-5.677 6.077-7.316 15.63-8.155 16.47z" fill="#eaf1f7" fill-rule="evenodd"/><path d="M30.102 98.62c9.794 3.438 24.425 1.72 32.54-10.393 4.078-6.916 4.877-12.993 4.877-16.47-1.599 4.357-3.238 14.75-10.554 20.787-6.516 6.076-21.147 9.514-26.863 6.076zm-1.599-24.185c1.639 3.478 4.917 2.638 8.155-3.438 2.438-6.116 7.315-16.55 8.155-21.747 1.599-6.076-.84-19.148-.84-19.148 0 6.956 1.64 15.67-2.438 23.506-3.238 8.674-10.554 24.305-13.032 20.827z" fill="#ec6d88" fill-rule="evenodd"/><path clip-path="url(#a)" d="M91.345 17.07c5.716 5.236 19.508 26.104 6.516 42.614 4.077-5.197 6.516-23.466-6.516-42.614z" fill="#ec6d88" fill-rule="evenodd"/><path clip-path="url(#a)" d="M43.174 8.355C30.9 18.829 32.54 28.383 33.34 37.937l.84 6.076c0 6.117-1.64 10.434-4.918 15.67l-4.877 11.314c-.84 2.598 0 6.076 3.278 7.795 3.238 1.76 7.316 0 8.955-3.478l4.077-9.554c3.278-6.076 6.556-12.152 5.717-23.466l-.8-5.236c-.84-9.555-.84-13.033 5.717-18.23C53.767 16.19 59.484 16.19 66 17.07c8.995 1.759 19.588 6.955 22.866 12.192 4.078 6.956 5.717 18.23 2.439 22.587-1.64 2.598-4.078 1.759-9.794.879-4.877-.88-11.433-1.759-17.15 1.719-7.316 5.237-8.155 13.072-8.155 19.148-.8 3.478-.8 6.077-1.64 7.836-3.237 6.955-13.031 10.433-20.387 7.795-4.077-1.719-7.355.88-8.155 4.357-1.639 3.478 0 6.956 3.238 8.715 13.912 4.317 30.222-1.759 36.738-14.791 1.639-4.357 2.478-8.715 2.478-13.032.8-4.357.8-6.956 2.439-7.835 1.639-1.76 4.078-.88 8.155-.88 6.516 1.76 14.711 3.478 21.227-4.357 8.955-10.434 4.877-29.542-.84-39.097-6.515-10.473-20.387-16.55-31.82-19.148-9.794-1.759-18.789 0-24.465 5.197" fill="none" stroke="#333" stroke-width=".8" stroke-linecap="round" stroke-linejoin="round"/></svg>