<svg xmlns="http://www.w3.org/2000/svg" version="1.0" viewBox="0 0 155.414 120.529"><path d="M.76 63.402c0 29.822 18.628 55.766 77.273 55.766 57.965 0 75.834-23.666 75.834-59.564 0-36.658-49.33-58.844-82.27-58.844C39.417.76.76 22.187.76 63.402z" fill="#ffe800" fill-rule="evenodd"/><path d="M68.758 113.012c9.275 3.038 27.104.76 36.378-.8 4.278-.76 12.833-2.279 16.43-6.116 5.677-6.157 1.4-9.235-4.997-8.435-5.716 0-12.152 3.038-17.869 3.837-9.994 1.52-19.268 0-28.543-1.559-20.707-2.278-14.99 10.754-1.399 13.073z" fill="#f08d00" fill-rule="evenodd"/><path d="M75.754 6.116C55.007 7.636 30.661 13.712 17.79 32.78 1.32 57.205 4.917 90.745 30.661 101.42c-16.43-3.039-14.31-32.021-12.152-43.454 2.878-17.55 10.034-17.55 22.186-26.704 12.153-8.395 18.59-11.433 34.34-13.712 12.872-1.519 38.616-1.519 49.37 6.836 1.399 0 .72 1.56.72.8-6.437-8.395-35.78-19.868-45.813-19.868z" fill="#fff9bd" fill-rule="evenodd"/><path d="M139.555 39.136c9.315 12.952 9.994 26.704 4.997 41.975-3.557 10.673-17.869 23.626-29.302 24.385 16.47-5.317 17.15-18.309 22.866-32.02 2.879-6.117 2.879-12.993 2.879-19.868-.72-8.395.72-10.674-2.879-16.79z" fill="#ffc400" fill-rule="evenodd"/><path d="M60.004 104.617c2.878-4.558 10.074-.76 14.39-.76 5.757 1.52 11.514 1.52 16.55.76-5.036 1.519-10.073 2.278-15.11 2.278-2.878 0-12.952-2.278-11.513 2.279-1.44-.76-2.878-1.52-3.598-3.038z" fill="#f5ba59" fill-rule="evenodd"/><path d="M.76 63.402c0 29.822 18.628 55.766 77.273 55.766 57.965 0 75.834-23.666 75.834-59.564 0-36.658-49.33-58.844-82.27-58.844C39.417.76.76 22.187.76 63.402" fill="none" stroke="#333" stroke-width=".8" stroke-linecap="round" stroke-linejoin="round"/><path d="M24.265 24.225c0-3.138 2.579-5.716 5.717-5.716 3.158 0 5.716 2.578 5.716 5.716a5.715 5.715 0 0 1-5.716 5.717c-3.138 0-5.717-2.559-5.717-5.717zm-4.877 7.555c0-1.498.98-2.718 2.159-2.718 1.2 0 2.159 1.22 2.159 2.719 0 1.519-.96 2.718-2.16 2.718-1.178 0-2.158-1.2-2.158-2.718zm17.19-14.55c0-1.5 1.08-2.719 2.398-2.719 1.34 0 2.399 1.22 2.399 2.719 0 1.519-1.06 2.718-2.399 2.718-1.319 0-2.398-1.2-2.398-2.718z" fill="#fff" fill-rule="evenodd"/></svg>