<svg xmlns="http://www.w3.org/2000/svg" version="1.0" viewBox="0 0 354.86 105.713"><defs><clipPath clipPathUnits="userSpaceOnUse" id="a"><path d="M1.999.64h354.425v105.776H1.999z"/></clipPath></defs><path clip-path="url(#a)" d="M215.57 3.838c-7.216 1.539-14.412 5.376-20.888 6.136-7.935 1.539-44.693-5.377-51.889 0-2.158 1.539-1.439 5.377-1.439 9.994-9.374-2.319-19.448.76-30.261 0-4.318 0-48.271-2.319-55.487 1.519-10.094 5.377-5.756 21.507-5.756 30.721-12.972.76-29.542-1.539-36.038-.78-7.196.78-7.196 5.378-7.196 6.137 0 3.858-2.878 5.377-3.598 10.754 0 3.078.72 10.753.72 14.59 0 7.676-1.46 10.754 5.037 13.812C13.092 99.8 32.56 99.8 37.597 101.34c36.738 9.194 74.935-.78 111.673-3.079 9.374-.76 42.514-.76 51.888-.76 14.411-.779 29.542.76 43.953-1.538 5.037-.78 18.73-1.54 17.29-10.754 0-7.675-5.037-16.11 2.878-17.649 7.935-2.299 66.3 3.058 69.178-3.078 2.879-6.136-2.878-13.052 4.318-13.812 7.215-.78 15.85 1.54 15.85-2.298 0-4.618 1.44-21.507-2.159-23.046-5.756-2.299-15.85 0-19.448-2.299-5.037-2.299.72-9.974-3.598-15.35-5.057-5.377-33.88-4.598-41.794-5.377-13.692-.76-58.365-1.54-72.057 1.539z" fill="#f9d8db" fill-rule="evenodd"/><path d="M12.353 92.124c19.468 3.838 38.196 9.215 58.384 9.215 22.327 0 44.673-7.676 67-8.435 7.215 0 14.41-1.54 21.626-2.319 5.757 0 10.814.78 17.29.78h30.262c10.813 0 20.907.76 31.72 0 4.318 0 10.074 0 13.692-2.319 3.598-3.078 2.878-6.916 2.159-12.293 0-13.072 10.074-13.072 19.448-13.831 13.692-1.54 29.542-1.54 43.234-.78 4.317 0 8.655 1.54 10.094-4.597.72-3.078-1.44-4.617 0-6.916 1.439-2.318 5.037-2.318 7.195-2.318 4.338 0 10.814 1.539 13.692-3.058 2.159-3.858.72-11.533-1.44-15.391-1.438 5.397 0 9.994-5.756 11.533-5.776 1.539-18.748-4.597-23.066 0-3.597 3.078 0 11.533-2.878 15.37-3.598 3.858-12.972-1.538-17.29-1.538-7.215.78-18.748 1.539-25.944 1.539-7.215.78-18.009 1.539-24.505 5.376-4.317 2.319-3.598 6.157-4.317 10.774-.72 3.078 0 3.837-1.44 5.377-2.158 1.539-7.935 2.298-10.093 3.078-14.412 3.837-30.262 5.376-45.393 6.136-18.009 1.539-35.318-1.54-53.327.78-18.73 2.298-37.478 6.915-56.206 6.136-9.375 0-18.729-2.299-28.103-2.299-5.037 0-10.094.78-15.131.78-4.318-.78-15.85-1.54-19.448-.78z" fill="#f6bac5" fill-rule="evenodd"/><path d="M141.394 19.108c12.253 1.58 60.484-3.957 82.79-3.158 22.327.78 85.668 4.737 106.536 5.517M201.038 8.395c13.692-1.56 105.916 3.098 129.682 6.196M52.088 27.543c15.85.78 57.645 0 107.335-1.539 49.71-.78 164.24 0 195.202 3.858" fill="none" stroke="#7d7d7d" stroke-width=".32" stroke-miterlimit="8"/><path clip-path="url(#a)" d="M49.85 35.958c15.13.78 59.064-.78 106.595-.78 35.998-.779 87.847.78 123.126 0 30.261-1.558 64.1.78 75.614 1.56M49.85 43.773h104.436c42.475 0 93.604.8 118.808-.799 30.962-1.6 71.297.8 82.09.8" fill="none" stroke="#7d7d7d" stroke-width=".32" stroke-miterlimit="8"/><path d="M49.85 51.329c28.103 0 185.807 2.998 217.508 0 30.961-2.998 59.764-.74 69.118-.74M6.036 59.804c11.533.8 47.532.8 79.912 0 32.4-1.58 87.127 2.358 120.947 1.579 34.559-1.58 121.666-4.737 128.142-2.359" fill="none" stroke="#7d7d7d" stroke-width=".32" stroke-miterlimit="8"/><path clip-path="url(#a)" d="M3.158 71.437c8.655.8 90.705-5.597 115.17-5.597 25.205 0 105.097 2.399 146.112 0" fill="none" stroke="#7d7d7d" stroke-width=".32" stroke-miterlimit="8"/><path d="M3.718 80.651c10.094 3.098 63.421-6.196 100.899-6.196 37.477-.78 132.62 2.338 156.385.78M3.718 87.427c8.655 2.319 66.28-3.098 92.204-3.878 25.924-1.559 151.248 1.56 165.64 2.319M34.819 99.72c12.972.74 96.521-6.776 172.855-3.758" fill="none" stroke="#7d7d7d" stroke-width=".32" stroke-miterlimit="8"/><path d="M141.394 19.108c12.253 1.58 60.484-3.957 82.79-3.158 22.327.78 85.668 4.737 106.536 5.517M201.038 8.395c13.692-1.56 105.916 3.098 129.682 6.196" fill="none" stroke="#f6bac5" stroke-width=".8" stroke-linecap="round" stroke-miterlimit="8"/><path clip-path="url(#a)" d="M52.088 27.543c15.85.78 57.645 0 107.335-1.539 49.71-.78 164.24 0 195.202 3.858M49.85 35.958c15.13.78 59.064-.78 106.595-.78 35.998-.779 87.847.78 123.126 0 30.261-1.558 64.1.78 75.614 1.56M49.85 43.773h104.436c42.475 0 93.604.8 118.808-.799 30.962-1.6 71.297.8 82.09.8" fill="none" stroke="#f6bac5" stroke-width=".8" stroke-linecap="round" stroke-miterlimit="8"/><path d="M49.85 51.329c28.103 0 185.807 2.998 217.508 0 30.961-2.998 59.764-.74 69.118-.74M6.036 59.804c11.533.8 47.532.8 79.912 0 32.4-1.58 87.127 2.358 120.947 1.579 34.559-1.58 121.666-4.737 128.142-2.359" fill="none" stroke="#f6bac5" stroke-width=".8" stroke-linecap="round" stroke-miterlimit="8"/><path clip-path="url(#a)" d="M3.158 71.437c8.655.8 90.705-5.597 115.17-5.597 25.205 0 105.097 2.399 146.112 0M3.718 80.651c10.094 3.098 63.421-6.196 100.899-6.196 37.477-.78 132.62 2.338 156.385.78M3.718 87.427c8.655 2.319 66.28-3.098 92.204-3.878 25.924-1.559 151.248 1.56 165.64 2.319" fill="none" stroke="#f6bac5" stroke-width=".8" stroke-linecap="round" stroke-miterlimit="8"/><path d="M34.819 99.72c12.972.74 96.521-6.776 172.855-3.758" fill="none" stroke="#f6bac5" stroke-width=".8" stroke-linecap="round" stroke-miterlimit="8"/><path d="M139.156 19.768c12.992 4.577 62.722-2.299 85.048-.76 22.347.76 87.947 3.818 108.834 5.337M196.72 11.493c13.692-2.339 110.234 2.319 134 5.417" fill="none" stroke="#fceef0" stroke-width=".8" stroke-miterlimit="8"/><path clip-path="url(#a)" d="M49.85 30.741c16.59.78 59.804-.76 109.533-1.539 49.71-.78 164.26 0 195.242 3.858M49.85 38.337c15.13.8 59.064 0 106.595-.8 35.998 0 87.847 1.6 123.126 0 30.261-.8 64.1 1.6 75.614 2.399M49.85 46.132c14.411.76 57.625.76 104.436.76 42.475 0 93.604 0 118.808-.76 30.962-1.559 71.297.76 82.09.76" fill="none" stroke="#fceef0" stroke-width=".8" stroke-miterlimit="8"/><path d="M49.85 53.667c28.103.78 185.807 3.858 217.508 0 30.961-3.098 56.885 0 66.24-.78M6.036 62.182c11.533 1.56 47.532 1.56 79.912 0 32.4-.78 87.127 3.098 120.947 1.56 34.559-.78 121.666-3.898 128.142-1.56" fill="none" stroke="#fceef0" stroke-width=".8" stroke-miterlimit="8"/><path clip-path="url(#a)" d="M3.158 74.355c8.655.76 90.705-6.196 115.17-6.196 25.205 0 102.218 3.098 143.233.78M3.718 82.99c10.094 3.078 63.421-5.417 100.899-6.197 37.477 0 132.62 2.32 156.385.78M3.718 90.625c8.655 2.319 66.28-3.098 92.204-4.657 25.924-.78 151.248 1.559 165.64 2.338" fill="none" stroke="#fceef0" stroke-width=".8" stroke-miterlimit="8"/><path d="M43.454 102.138c8.654 0 42.494-2.398 86.427-3.997" fill="none" stroke="#fceef0" stroke-width=".8" stroke-miterlimit="8"/><path d="M141.394 19.868c12.253 1.519 60.524-3.838 82.87-3.058 22.327 1.519 87.887 4.577 108.774 6.096M196.72 9.894c13.692-2.259 110.234 2.259 134 5.257M49.85 28.303c16.59 1.639 59.804 0 109.533-.82 49.71-.82 164.26 0 195.242 3.258" fill="none" stroke="#7d7d7d" stroke-width=".32" stroke-miterlimit="8"/><path clip-path="url(#a)" d="M49.85 36.858c15.13.76 59.064 0 106.595-.78 35.998 0 87.847.78 123.126 0 30.261-.78 64.1.78 75.614 1.54M49.85 44.373c14.411.76 57.625.76 104.436 0 42.475.76 93.604.76 118.808 0 30.962-1.559 71.297.76 82.09.76" fill="none" stroke="#7d7d7d" stroke-width=".32" stroke-miterlimit="8"/><path d="M49.85 52.168c28.103.76 185.807 3.039 217.508 0 30.961-3.038 59.764 0 69.118-.76M6.036 60.643c11.533.74 47.532 1.48 79.912 0 32.4-1.479 87.127 2.958 120.947 1.48 34.559-1.48 121.666-3.718 128.142-1.48" fill="none" stroke="#7d7d7d" stroke-width=".32" stroke-miterlimit="8"/><path clip-path="url(#a)" d="M3.158 72.916c8.655.76 90.705-6.196 115.17-6.196 25.205 0 105.097 2.318 146.112.78" fill="none" stroke="#7d7d7d" stroke-width=".32" stroke-miterlimit="8"/><path d="M3.718 81.29c10.094 3.019 63.421-6.056 100.899-6.056 37.477-.76 132.62 2.279 156.385.76M3.718 89.086c8.655 1.54 66.28-3.098 92.204-4.657 25.924-1.56 151.248 1.559 165.64 2.318M34.819 100.56c12.972.779 96.521-7.057 172.855-3.919" fill="none" stroke="#7d7d7d" stroke-width=".32" stroke-miterlimit="8"/><path d="M8.775 80.551c0-3.058-2.179-5.357-1.44-9.194.72-3.078 2.16-7.676 3.598-10.734 3.598-6.916 15.131-6.156 21.627-6.156 6.476 0 23.066 3.838 23.786-3.818 1.439-8.455-2.878-18.429 5.756-22.266 10.094-4.597 20.188-2.299 30.282-1.52 10.813.76 21.627.76 32.44.76h13.692c6.496-.76 5.757-3.837 6.496-8.435 1.44-6.136 5.037-5.376 9.354-6.136 7.216 0 13.712-.78 20.188 0 5.777 0 10.814.76 15.85 1.54-5.036.759-10.073.759-15.85 1.518-5.756 0-12.972 0-18.009 4.617-5.776 6.137-5.057 13.812-14.431 14.572-12.253.76-25.944 1.539-38.197 1.539H82.29c-3.598 0-11.533-1.54-14.411 1.519C63.54 42.194 65 49.87 62.822 54.467c-2.878 7.675-10.094 6.156-16.57 6.916-8.655 0-18.03.76-25.944 3.058-7.216 3.078-7.935 6.156-10.094 13.812zM215.51 9.174c5.056-.78 9.394-3.098 14.43-3.877 5.777-.78 10.814 0 16.59 0 10.094.78 20.908 1.559 31.721 1.559 7.216.76 15.151 0 22.367 0 7.935.76 22.346-2.339 20.907 10.054-3.598-6.956-18.748-3.858-24.505-3.858-6.496-.78-13.712 0-20.208 0-6.476 0-12.972-1.559-19.468-1.559z" fill="#fceef0" fill-rule="evenodd"/><path d="M59.284 31.421c0-3.418 2.728-6.196 6.076-6.196 3.358 0 6.077 2.778 6.077 6.196 0 3.428-2.719 6.196-6.077 6.196-3.348 0-6.076-2.768-6.076-6.196zm13.032-4.757c0-1.28 1.1-2.319 2.439-2.319 1.349 0 2.438 1.04 2.438 2.319 0 1.29-1.09 2.318-2.438 2.318-1.34 0-2.439-1.029-2.439-2.318zM57.845 46.412c0-2.289 1.759-4.158 3.918-4.158 2.168 0 3.917 1.87 3.917 4.158 0 2.298-1.749 4.157-3.917 4.157-2.16 0-3.918-1.859-3.918-4.157z" fill="#fff" fill-rule="evenodd"/><path clip-path="url(#a)" d="M215.57 3.838c-7.216 1.539-14.412 5.376-20.888 6.136-7.935 1.539-44.693-5.377-51.889 0-2.158 1.539-1.439 5.377-1.439 9.994-9.374-2.319-19.448.76-30.261 0-4.318 0-48.271-2.319-55.487 1.519-10.094 5.377-5.756 21.507-5.756 30.721-12.972.76-29.542-1.539-36.038-.78-7.196.78-7.196 5.378-7.196 6.137 0 3.858-2.878 5.377-3.598 10.754 0 3.078.72 10.753.72 14.59 0 7.676-1.46 10.754 5.037 13.812C13.092 99.8 32.56 99.8 37.597 101.34c36.738 9.194 74.935-.78 111.673-3.079 9.374-.76 42.514-.76 51.888-.76 14.411-.779 29.542.76 43.953-1.538 5.037-.78 18.73-1.54 17.29-10.754 0-7.675-5.037-16.11 2.878-17.649 7.935-2.299 66.3 3.058 69.178-3.078 2.879-6.136-2.878-13.052 4.318-13.812 7.215-.78 15.85 1.54 15.85-2.298 0-4.618 1.44-21.507-2.159-23.046-5.756-2.299-15.85 0-19.448-2.299-5.037-2.299.72-9.974-3.598-15.35-5.057-5.377-33.88-4.598-41.794-5.377-13.692-.76-58.365-1.54-72.057 1.539" fill="none" stroke="#333" stroke-width=".8" stroke-linecap="round" stroke-linejoin="round" stroke-miterlimit="10"/></svg>