<svg xmlns="http://www.w3.org/2000/svg" version="1.0" viewBox="0 0 215.811 210.935"><defs><clipPath clipPathUnits="userSpaceOnUse" id="a"><path d="M3.198 1.2h215.55v211.07H3.197z"/></clipPath></defs><path clip-path="url(#a)" d="M163.54 84.709c2.56 4.117-16.11 4.797-12.232 10.633 4.198 5.477 8.035-.72 9.954 4.118 2.279 5.117-11.873 5.117-8.355 12.672 3.238 7.875 9.035-4.117 14.472 1.04 5.156 4.797-11.873 4.117-8.675 9.594 3.238 5.836 9.994-4.118 13.192.68 3.558 5.156-8.355 8.594-7.076 12.352 1.28 3.438 8.675-5.157 13.192 0 4.517 4.797-7.395 5.476-6.756 10.313.64 5.117 8.675-6.196 9.994 1.68 1.28 7.555-11.913 4.837-11.913 9.953 0 4.797 11.913-3.757 11.913 4.118 0 7.915-9.994 2.079-11.913 7.196-1.958 4.837 14.152 8.954 11.234 14.75-2.559 5.517-9.954-7.195-11.873-5.116-1.96 2.398 6.116 11.992.64 13.711-5.157 1.36-5.157-11.992-8.715-9.954-3.198 2.08-10.594 5.477-12.553 1.36-1.919-4.438 9.994-.68 9.994-5.797 0-4.837-12.552-2.079-12.552-6.196 0-4.437 17.39 3.438 18.029-3.758.64-6.876-14.152-2.079-13.512-6.876.64-5.157 9.314.68 9.314-5.836 0-6.156-13.831-1.36-13.192-5.477.64-4.477 9.355 1.36 9.355-6.516 0-7.555-14.831 0-13.232-6.196 1.319-6.516 7.755 2.079 8.395-5.117.64-6.876-12.553-2.079-13.192-7.555-.64-5.837 8.674-1.72 9.314-9.275.64-7.875-15.75 6.196-17.39.68-1.279-5.797 18.03-9.914 14.832-16.43-3.558-6.197-9.994 10.633-14.152 4.437-3.877-6.516 9.954-13.712 5.437-16.47-4.477-2.718-6.756 8.595-10.594 5.157-3.877-3.758 2.559-11.313-.64-14.391-3.237-2.759-.639 9.234-7.435 6.516-6.436-2.759 3.238-13.392-3.198-15.471-6.756-2.399-2.558 12.712-9.314 11.353-6.796-1.719 0-17.15-7.436-15.79-7.075 1.359.64 7.195-3.837 14.071-4.837 7.196-6.117-6.196-10.634-.68-4.837 5.797 8.035 10.634 3.238 15.071-4.517 4.118-8.715-4.437-11.913 0-3.238 4.118 11.273 6.876 8.035 14.072-3.198 7.196-10.633-5.477-13.192 1.36-2.878 7.195 11.913 7.195 9.994 12.711-2.278 5.837-7.435-2.078-9.354 3.758-2.239 5.477 8.355 5.477 6.436 13.392-1.919 7.555-10.633-4.477-12.552 2.718-1.92 7.236 14.471 6.516 13.831 12.713-.64 6.516-18.349-6.197-17.669 1.359.64 7.915 13.192 1.399 12.512 10.633-.64 9.275-9.314 0-11.233 3.798-1.959 3.398 6.436 11.313 1.28 13.352-5.477 2.079-5.477-14.071-9.355-13.352-3.837.68.68 13.352-4.477 11.993-5.477-1.36.64-17.83-4.198-18.509-4.517-.72-5.156 11.313-10.633 9.234-5.117-2.038 11.913-15.75 8.075-18.508-3.878-2.759-9.354 6.516-11.913 1.359-2.598-4.797 19.948-8.235 18.669-14.072-1.64-5.476-9.994 2.08-9.994-4.797 0-7.195 16.43-2.398 16.43-5.836 0-3.398-10.634-2.719-9.994-7.875.64-4.797 18.669 3.078 19.948-3.438 1.32-6.157-15.75-2.719-15.11-9.235.639-6.196 11.272 3.758 11.912-3.438.64-7.195-15.47 0-16.11-6.516-.64-6.196 15.47.68 16.11-4.797.64-5.836-10.634-.72-9.994-7.235.64-6.157 16.43 3.118 17.39-2.719.639-5.516-12.233-2.078-11.594-7.915.96-5.477 18.03 7.236 19.309-1.36 1.279-8.554-11.273-2.757-10.594-6.875.64-4.437 12.872 1.4 11.873-4.437-.64-5.477-13.832 0-12.552-5.477 1.319-5.836 10.633.68 11.912-4.477 1.64-4.797-9.314-2.039-8.355-6.157.64-4.477 12.553 1.36 12.553-2.758 0-4.477-8.035-3.758-6.756-7.875 1.28-4.477 9.954 2.718 10.633-2.758.64-5.837-11.273-3.079-11.273-6.516 0-3.438 9.954 0 9.954-4.118 0-4.477-9.314-3.758-8.674-6.516.64-2.758 12.552 2.039 14.15-1.36 1.28-3.437-9.953-3.437-10.593-5.836-.999-2.078 9.635-.68 8.995-2.758-.64-2.039-.64-4.797-8.995-5.477-10.953-.68-21.587 6.836-28.023 18.869-6.756 9.234-49.25 98.42-45.692 144.073 1.919 22.986 15.75 37.377 37.018 39.775 20.907 2.759 42.134 3.079 63.081 3.079 18.35 0 36.019 3.078 54.367 2.078 20.268-.68 39.896-6.196 49.25-27.463 6.437-15.07 10.594-34.3 7.716-51.089-1.919-12.353-31.86-66.56-39.576-81.99-4.837-9.595-29.302-48.73-54.407-46.652-11.913.68-12.872 4.797-12.872 8.235 0 3.758 10.633-.68 11.593 3.078.64 3.438-5.477.68-5.477 4.797 0 4.477 16.75-4.117 16.75.68 0 5.157-9.994 2.079-9.355 6.516.68 4.117 15.79-2.039 16.43 2.758.64 4.797-7.715 0-7.075 5.837.64 5.476 11.913-1.04 13.192 4.117 1.279 4.797-7.396 1.36-6.756 5.477.64 4.477 12.552-2.719 13.512 3.078.64 5.517-10.634 2.758-8.675 6.876 1.919 4.477 9.314.68 10.594 6.516 1.319 5.476-13.512 2.758-13.512 7.195 0 4.118 9.994 1.4 11.593 4.118 1.279 2.758-9.315.68-8.035 5.517 1.279 5.117 16.39 2.398 19.308 6.516z" fill="#b6abbe" fill-rule="evenodd"/><path clip-path="url(#a)" d="M208.594 183.129c6.436-15.07 10.593-34.3 7.715-51.089-1.919-12.353-31.86-66.56-39.576-81.99-4.837-9.595-29.302-48.73-54.407-46.652-11.913.68-12.872 4.797-12.872 8.235 0 3.758 10.633-.68 11.593 3.078.64 3.438-5.477.68-5.477 4.797 0 4.477 16.75-4.117 16.75.68 0 5.157-9.994 2.079-9.355 6.516.68 4.117 15.79-2.039 16.43 2.758.64 4.797-7.715 0-7.075 5.837.64 5.476 11.913-1.04 13.192 4.117 1.279 4.797-7.396 1.36-6.756 5.477.64 4.477 12.552-2.719 13.512 3.078.64 5.517-10.634 2.758-8.675 6.876 1.919 4.477 9.314.68 10.594 6.516 1.319 5.476-13.512 2.758-13.512 7.195 0 4.118 9.994 1.4 11.593 4.118 1.279 2.758-9.315.68-8.035 5.517 1.279 5.117 16.39 2.398 19.308 6.516 2.558 4.117-16.11 4.797-12.233 10.633 4.198 5.477 8.035-.72 9.954 4.118 2.279 5.117-11.873 5.117-8.355 12.672 3.238 7.875 9.035-4.117 14.472 1.04 5.156 4.797-11.873 4.117-8.675 9.594 3.238 5.836 9.994-4.118 13.192.68 3.558 5.156-8.355 8.594-7.076 12.352 1.28 3.438 8.675-5.157 13.192 0 4.517 4.797-7.395 5.476-6.756 10.313.64 5.117 8.675-6.196 9.994 1.68 1.28 7.555-11.913 4.837-11.913 9.953 0 4.797 11.913-3.757 11.913 4.118 0 7.915-9.994 2.079-11.913 7.196-1.958 4.837 14.152 8.954 11.234 14.75-2.559 5.517-9.954-7.195-11.873-5.116-1.96 2.398 6.116 11.992.64 13.711-5.157 1.36-5.157-11.992-8.715-9.954-3.198 2.08-10.594 5.477-12.553 1.36-1.919-4.438 9.994-.68 9.994-5.797 0-4.837-12.552-2.079-12.552-6.196 0-4.437 17.39 3.438 18.029-3.758.64-6.876-14.152-2.079-13.512-6.876.64-5.157 9.314.68 9.314-5.836 0-6.156-13.831-1.36-13.192-5.477.64-4.477 9.355 1.36 9.355-6.516 0-7.555-14.831 0-13.232-6.196 1.319-6.516 7.755 2.079 8.395-5.117.64-6.876-12.553-2.079-13.192-7.555-.64-5.837 8.674-1.72 9.314-9.275.64-7.875-15.75 6.196-17.39.68-1.279-5.797 18.03-9.914 14.832-16.43-3.558-6.197-9.994 10.633-14.152 4.437-3.877-6.516 9.954-13.712 5.437-16.47-4.477-2.718-6.756 8.595-10.594 5.157-3.877-3.758 2.559-11.313-.64-14.391-3.237-2.759-.639 9.234-7.435 6.516-6.436-2.759 3.238-13.392-3.198-15.471-6.756-2.399-2.558 12.712-9.314 11.353-6.796-1.719 0-17.15-7.436-15.79-7.075 1.359.64 7.195-3.837 14.071-4.837 7.196-6.117-6.196-10.634-.68-4.837 5.797 8.035 10.634 3.238 15.071-4.517 4.118-8.715-4.437-11.913 0-3.238 4.118 11.273 6.876 8.035 14.072-3.198 7.196-10.633-5.477-13.192 1.36-2.878 7.195 11.913 7.195 9.994 12.711-2.278 5.837-7.435-2.078-9.354 3.758-2.239 5.477 8.355 5.477 6.436 13.392-1.919 7.555-10.633-4.477-12.552 2.718-1.92 7.236 14.471 6.516 13.831 12.713-.64 6.516-18.349-6.197-17.669 1.359.64 7.915 13.192 1.399 12.512 10.633-.64 9.275-9.314 0-11.233 3.798-1.959 3.398 6.436 11.313 1.28 13.352-5.477 2.079-5.477-14.071-9.355-13.352-3.837.68.68 13.352-4.477 11.993-5.477-1.36.64-17.83-4.198-18.509-4.517-.72-5.156 11.313-10.633 9.234-5.117-2.038 11.913-15.75 8.075-18.508-3.878-2.759-9.354 6.516-11.913 1.359-2.598-4.797 19.948-8.235 18.669-14.072-1.64-5.476-9.994 2.08-9.994-4.797 0-7.195 16.43-2.398 16.43-5.836 0-3.398-10.634-2.719-9.994-7.875.64-4.797 18.669 3.078 19.948-3.438 1.32-6.157-15.75-2.719-15.11-9.235.639-6.196 11.272 3.758 11.912-3.438.64-7.195-15.47 0-16.11-6.516-.64-6.196 15.47.68 16.11-4.797.64-5.836-10.634-.72-9.994-7.235.64-6.157 16.43 3.118 17.39-2.719.639-5.516-12.233-2.078-11.594-7.915.96-5.477 18.03 7.236 19.309-1.36 1.279-8.554-11.273-2.757-10.594-6.875.64-4.437 12.872 1.4 11.873-4.437-.64-5.477-13.832 0-12.552-5.477 1.319-5.836 10.633.68 11.912-4.477 1.64-4.797-9.314-2.039-8.355-6.157.64-4.477 12.553 1.36 12.553-2.758 0-4.477-8.035-3.758-6.756-7.875 1.28-4.477 9.954 2.718 10.633-2.758.64-5.837-11.273-3.079-11.273-6.516 0-3.438 9.954 0 9.954-4.118 0-4.477-9.314-3.758-8.674-6.516.64-2.758 12.552 2.039 14.15-1.36 1.28-3.437-9.953-3.437-10.593-5.836-.999-2.078 9.635-.68 8.995-2.758-.64-2.039-.64-4.797-8.995-5.477-10.953-.68-21.587 6.836-28.023 18.869-6.756 9.234-49.25 98.42-45.692 144.073 1.919 22.986 15.75 37.377 37.018 39.775 20.907 2.759 42.134 3.079 63.081 3.079 18.35 0 36.019 3.078 54.367 2.078 20.268-.68 39.896-6.196 49.25-27.463zm-49.25 25.385c-10.274.68-20.588-.32-30.582-1.04-7.715-.32-15.75-1-23.786-1-20.307 0-41.854-.679-62.762-3.077-20.587-2.439-33.46-16.15-35.418-38.097C3.278 120.727 45.412 32.54 52.168 22.946v-.36c6.436-11.633 16.43-18.508 26.065-17.829 5.156.36 6.436 1.4 7.115 2.758H83.07c-3.198.36-5.157.36-6.117 2.04-.32.359-.64.719-.64 1.398 0 .32 0 .68.32.68.64 2.039 2.919 2.758 6.117 3.438.64.32 1.919.68 2.918 1-1.32 0-2.918-.32-4.197-.68-3.878-.32-7.396-1-8.355 2.398-.64 3.118 2.558 4.118 4.797 4.797 1.319.36 3.877 1.4 3.877 2.08h-3.557c-2.559.359-6.437.359-6.437 4.117 0 3.437 3.558 3.757 6.437 4.437 3.238.36 4.837.72 4.837 1.719v.36c-.32.36-2.239 0-3.198-.36-2.279-.68-6.117-1.36-7.396 2.398 0 .72-.32 1.04-.32 1.72 0 2.758 2.879 4.117 4.478 4.796.959.72 1.599 1.04 2.278 1.4h-3.558c-3.558-.68-8.355-1.04-8.994 3.078-.32 4.117 3.837 4.797 6.116 5.157.96.32 2.559.68 2.878.999-.32.36-1.599.36-3.877.36-2.559-.36-7.076-.68-8.355 3.757-.32 1.72.32 3.119.64 3.798 1.279 1.72 4.197 1.72 7.075 1.72 1.64 0 4.837 0 4.837.999v.36h-3.878c-3.198-.36-7.395-.68-8.035 3.437l.64 2.759c1.32 1.359 3.238 1.359 5.477 1.359 1.599 0 3.877.32 4.517 1.04.32.319.32.999 0 1.678 0 .72-.32 1.04-.32 1.04-1.28 1.039-5.477-.32-8.355-1.36-3.877-1.04-7.116-2.078-9.034-.68-.64.32-1.28 1-1.6 2.719-.32 4.837 4.518 5.517 7.396 6.196 2.559.32 4.198.68 3.878 1.36-.64.68-3.878 0-5.797-.32-3.877-1.04-7.395-1.72-9.674.32-.96.68-1.599 1.718-1.599 3.078v.72c0 .999.32 2.038.96 3.077 1.279 1.72 3.877 2.04 6.116 2.399.64 0 2.558 0 2.918.32v.36c-.68.679-4.517.679-6.116.36-3.558 0-7.116-.36-9.035 1.678-.32.72-.96 1.72-.96 3.438.64 5.157 6.117 4.797 10.315 4.797 1.918 0 5.116 0 5.796.72v.32c0 .68-.36.68-.36.68-.32.359-2.558 0-3.518-.32-2.238-.68-4.517-1.4-6.436 0-.64.32-1.599 1.359-1.599 3.437-.64 5.117 5.117 6.157 9.315 6.836 1.918.36 5.476.68 5.796 1.72v.359c-.32 1.36-5.796.68-8.994.32-5.157-.32-10.314-1-10.954 3.438v.68c0 3.797 4.198 5.156 6.756 6.195.64 0 .96.32 1.28.32h-2.24c-4.836 0-12.232 0-12.232 6.516 0 1.72.32 3.118 1.28 4.118 1.598 1.399 3.877 1.04 5.476.68 2.878-.32 2.878 0 3.198.719-.32 1-6.116 3.398-8.675 4.797-5.796 2.399-9.314 4.118-9.954 6.516-.36 1-.36 2.399 0 3.078.96 1.36 1.6 2.039 2.879 2.399 1.918.68 3.877-.36 5.796-1.72 1.6-1.039 2.878-1.718 3.518-1.358-.32 1.359-2.558 4.117-4.157 6.156-3.239 4.117-5.157 6.876-5.157 9.274v.68c.32 1.359 1.279 2.079 2.238 2.758 4.518 1.72 6.756-2.758 8.395-5.516.64-1.68 1.919-3.758 2.559-3.758.64.68.32 4.117.32 6.196-.32 5.117-.64 10.953 3.557 12.313 1.6.36 2.879-.32 3.518-.68 1.6-1.36 1.6-4.117 1.6-6.836v-1.04c0-1.039.359-2.398.359-3.077.64 1 1.28 3.078 1.599 4.437 1.28 3.438 2.239 7.196 4.837 8.235.96.68 1.919.68 3.198.36 1.6-.68 2.559-2.079 2.878-2.759 0-.68.36-1.359.36-1.719 0-2.038-1-4.117-1.959-5.836-.64-1-1.599-3.078-1.599-4.118.64 0 1.6.36 2.239.72 2.279.68 4.837 1.679 7.076 0 1.319-1.04 1.958-2.758 2.278-5.157v-1.04c0-5.836-4.837-6.875-8.035-7.195-3.558-.68-4.517-1.04-4.517-2.758v-.32c.96-.36 4.517.68 6.436 1.36 3.838 1.358 7.396 2.398 9.634.679.64-.32 1.64-1.04 1.64-2.759.639-4.797-4.198-6.516-8.076-8.195-4.477-1.719-6.116-2.758-5.796-4.117 0-.72.32-.72.32-1.04.679 0 2.278.68 3.237 1.04 1.92 1 4.518 2.039 6.437 1 1.279-.68 2.238-2.04 2.558-4.118 1.639-5.477-1.919-8.235-4.477-9.914-2.279-1.72-2.599-2.439-2.279-3.118.32-1 .32-1 2.279-.68 1.919.68 5.476 1.72 7.075-3.078 1.6-4.477-2.598-6.516-5.476-7.875-4.198-2.439-5.157-3.118-4.518-4.837.32-.32.64-.68.64-.68.32-.32 1.959.68 2.918 1.04 2.239 1.359 4.478 2.398 6.756 1.718 1.28-.36 2.239-1.719 2.878-3.078.64-1.039.96-2.078.96-3.118 0-3.758-3.518-6.516-6.116-8.235-.96-.68-2.559-2.039-2.879-2.398.32-.68.64-.68 2.879.36 2.278 1.039 5.476 2.758 8.714-.36.96-.68 1.6-2.04 1.92-3.078 0-2.399-1.6-4.438-3.199-6.517-2.598-3.078-2.918-4.117-1.639-5.476.32-.36.64-.68.64-.68.36.32 1 1 1.319 1.72 1.28.999 2.558 2.718 4.477 2.718 1.64-.32 2.918-1 4.198-3.079 2.558-4.117 1.918-7.875 1.279-10.273 0-1.04-.32-2.08-.32-2.399 0 0 .32-.36 1.6-.72h.998c.64.72.64 3.438.64 5.157.32 4.118.32 9.595 5.117 10.634 5.157 1.04 6.116-4.437 6.796-7.555.32-1.36.96-3.758 1.28-4.118h.959c.959.36 1.279.72.32 5.157-.64 3.078-2.24 8.595 2.878 10.633 1.639.68 3.238.68 4.517 0 .64-.36.96-.68 1.28-1.039 0 1.04-.32 2.399-.32 3.438 0 1.719.32 3.438 1.958 4.797.96 1.04 1.919 1.4 3.198 1.4 1.919-.36 3.238-2.08 4.517-3.798 1.92-2.04 2.239-2.399 2.879-2.399-.32 1.04-1.28 2.079-2.239 3.078-1.919 2.399-4.517 5.837-4.517 9.274 0 1.04.32 2.399.96 3.438 1.318 1.72 2.598 2.399 3.557 2.399 2.558.36 4.837-2.079 7.076-4.118.96-1.039 2.558-2.758 3.198-3.078v.32c.36.36.36.36.36.68 0 1.399-3.878 3.797-6.796 5.516-4.158 2.399-8.355 5.117-8.355 8.555v1.04c.32 1.359.96 2.078 1.919 2.758 2.278 1 5.796-.36 9.674-2.079 1.919-.68 4.517-2.039 5.796-2.039-.32 2.719-1.599 3.079-4.197 3.758-1.92.36-5.157 1.36-5.157 5.157v.68c.68 4.477 5.157 4.797 8.395 5.156 1.599.32 4.157.68 4.797 1.36v1.039c0 .68-.32 1-.32 1s-.96-.32-1.28-.32c-1.918-.36-5.796-1.36-6.755 3.757-.64 2.079 0 3.118.64 3.798 1.279 1.719 4.197 1.719 6.755 1.719 1.96-.36 4.518-.36 5.477.32 0 0 .32.36.32 1.04 0 2.398-.64 2.398-3.518 2.398-1.959 0-5.157 0-5.796 3.757l.64 2.759c1.278 1.719 3.837 1.719 6.755 1.719 3.198 0 5.797 0 5.797 1.359v1.04c-.32.359-1.92.359-2.919.359-1.918 0-5.796 0-6.436 4.118 0 1.359.32 2.398.64 2.718 1.639 2.079 4.197 2.079 7.116 2.398 1.918 0 4.797.36 5.436 1.04 0 .36.32.36 0 1.04v.679c-1.279 1.04-5.756.32-8.674 0-3.878-.36-6.437-1.04-8.036.68l-.959 2.398c0 3.758 4.157 4.477 7.715 4.797 1.28.36 4.518.68 4.837 1.4-.32.679-2.918.999-4.197.999-2.559.36-4.837.68-5.797 2.398-.32.72-.64 1.719.32 3.438.64 1.36 1.6 2.399 3.238 2.758 3.838 1.04 9.315-1.719 11.553-3.078.32.68.68 1.68 1 2.399.96 3.398 2.878 8.555 7.715 7.515 1.599-.68 2.239-1.679 2.878-2.398.32-.68.32-1.36.32-2.399 0-2.039-.96-4.117-1.599-6.156-.32-.36-.32-.68-.64-1.36.32.32.64.68.96 1 2.558 2.079 4.837 4.797 7.715 4.118.64 0 1.959-.68 2.918-2.399 1.92-4.797-2.598-8.235-6.436-10.953-1.279-.72-5.157-3.438-4.837-4.118.32-1.04 1.919-1.04 3.878-1.04 3.198-.359 8.035-.679 8.035-6.875 0-2.039-.32-3.438-1.599-4.437-1.959-1.72-4.837-1.04-7.436-.68-.64 0-1.279.32-1.918.32.64-.32 1.918-.68 2.918-1.04 3.198-.68 8.355-2.038 8.355-7.195 0-.32 0-1.04-.32-1.36-.32-2.398-.96-3.797-2.279-4.477-2.238-1-4.157.36-6.076 1.4.64-.36 1.28-1.04 1.6-1.04 2.238-1.36 4.157-2.758 4.476-5.157v-.32c0-1.399-.32-2.398-1.599-3.797-3.518-3.758-8.035-1.72-10.913-.32h-.36c.36-.36 1-.72 1.32-1.04 2.238-1.718 5.116-4.117 5.116-7.195 0-1.04 0-2.079-.96-3.118-2.238-3.758-6.115-2.039-8.674-1-3.238 1.72-3.878 1.36-4.517.32v-.32c.32-.36 2.918-1.399 4.197-1.719 2.879-1.039 5.477-2.078 5.797-4.477.32-1.359-.32-2.398-1.6-3.758-3.557-3.437-7.435-1.359-9.993.32-.96.36-2.559 1.4-3.198 1.04-.36 0-.68-.68-1-1.36-.96-2.078 0-3.078 3.878-5.156 2.558-1.36 6.436-3.438 4.837-7.556-1.639-3.758-4.517-3.398-6.116-3.078-1.6 0-2.599.36-4.198-1.719v-.32c.32-.68 3.878-1.719 5.477-2.398 3.558-1.4 6.436-2.399 7.076-4.837 0-.32.32-.68.32-1 0-.68-.32-1.399-.64-1.719-1.919-3.078-6.436-3.438-10.953-3.797-2.559-.32-7.716-1-8.036-2.04.32-.679 2.24-1.039 3.238-1.358 1.92-.36 3.838-.72 4.478-2.08.32-.319.32-.679.32-1.358 0-.36 0-.68-.32-1.36-.96-2.438-4.158-2.438-7.076-2.758-.96 0-2.878 0-3.518-.36.96-.32 2.878-.68 4.158-.999 3.557-.36 6.756-1.04 8.075-3.118.32-.68.64-1.36.64-2.399v-1.359c-1.32-4.477-4.838-4.797-7.436-5.157-1.6-.32-2.239-.68-2.878-1.039.32-.32.959-.32 1.599-.32 2.278-.68 6.756-1.359 6.756-5.836v-.68c-.32-1.36-.96-2.398-1.6-3.078-1.918-1.4-4.517-1.04-7.395-.72.64-.32 1.28-.68 1.919-1.359.32-.68.32-1.359.32-2.039v-1.718c-1.28-4.118-5.477-3.438-8.675-3.438-2.918.36-4.517.36-4.517-.36v-.68h1.958c1.6-.32 3.518-.32 4.478-1.719.64-1 .96-2.038.64-3.398-.64-4.477-6.117-3.797-10.914-3.438-1 .32-2.918.32-4.197.32.32 0 .959 0 1.279-.32 2.598-.36 6.756-1.039 6.756-5.516 0-1-.64-2.039-1.28-2.719-1.918-1.719-5.796-.68-9.994.32-.64 0-1.279.36-1.918.36.64-.36.96-.68 1.279-1.04.32-.679.64-1.359.64-2.038v-.68c-.96-3.797-4.798-3.438-8.036-3.438-.96.32-2.558.32-3.198 0 0-2.078.96-4.797 10.594-5.516 23.506-2.04 47.651 35.338 52.488 45.652l7.715 14.751c11.593 21.267 30.222 57.285 31.861 66.52 2.559 14.75-.32 32.94-7.715 49.77-7.116 16.79-22.227 25.344-47.332 26.384z" fill="#827492" fill-rule="evenodd"/><path d="M7.515 166.02C4.277 121.086 46.052 32.94 52.808 23.665v-.32c5.796-10.634 16.07-17.87 22.466-17.87-8.315 2.08-22.146 16.47-35.338 49.41C26.784 87.468 7.196 132.08 7.516 166.02zm155.626-68.919c1.6 3.438 2.559 6.516-6.156 10.234 7.116-1 10.953-5.437 6.156-10.234zm10.634 24.625c1.919 2.399 1.599 6.516-2.879 9.594 5.757-2.398 6.077-6.156 2.879-9.594zm9.035 22.946c1.918 2.439 1.278 9.315-5.198 11.034 5.517-.68 9.674-6.516 5.197-11.034zm-4.158 23.666c3.837-.32 5.436-3.718 4.477-8.475 1.919 3.758 1.599 8.475-4.477 8.475zM83.75 101.419c2.238 2.438.959 11.752-6.157 10.353 5.477 2.759 11.593-4.117 6.156-10.353zm-5.118 33.739c.32 3.438-1.639 9.594-5.836 8.555-2.279-.32-5.197-1.36-5.197-1.36 3.598 2.4 5.197 4.078 8.755 2.72 2.278-1 3.877-6.477 2.278-9.915zm96.422 50.689c2.918 2.359 6.476 1.68 7.755-1.719.96-3.757-.96-5.476-2.558-6.516 3.837 1.72 4.797 5.477 2.878 8.235-1.599 3.039-5.477 2.719-8.075 0zm22.226-45.332c-4.837 5.556-7.715 12.792-6.116 18.309-1.959-3.078-1.959-13.472 6.116-18.31zm-15.43-22.866c-5.757-6.157-4.797-15.47-2.559-19.269-2.878 3.798-5.756 12.393 2.559 19.269zm-19.668-64.601c-2.559 2.758-4.797 10.354-2.239 16.87-2.239-4.118-3.838-11.673 2.239-16.87z" fill="#e2dde4" fill-rule="evenodd"/><path d="M51.849 64.84c-3.198-3.797-8.995-3.797-12.553 1 1.959-4.117 8.395-8.235 12.553-1zm32.86 118.649c-4.478-1.72-8.995-.36-13.512 4.437 1.959-4.797 7.755-8.235 13.512-4.437zm45.252 10.593c1.959-4.757 9.395-6.436 15.191-4.077-4.837-2.039-12.592-3.758-15.19 4.077zm21.267 5.118c-.64 4.517-7.075 6.915-11.593 5.876 5.157 1.719 11.274-.32 11.593-5.877zm-65-5.357c-3.838 7.515-10.914 8.514-14.152 6.835 2.919 2.359 12.553 1.68 14.152-6.835zm-58.525-20.628c2.918 6.516 3.918 15.11 0 15.43 4.877-.679 6.156-7.195 0-15.43zm7.756-57.405c0 7.955-6.437 15.51-9.675 13.791 5.157 1.4 10.634-3.437 9.675-13.791zm70.117-8.475c4.237 3.758 12.632 5.836 15.19-1.04-.959 6.197-9.993 8.555-15.19 1.04z" fill="#e2dde4" fill-rule="evenodd"/><path d="M84.429 129.961c2.238 8.555 20.827-3.797 17.63-11.353-3.199-7.915-19.27.36-17.63 11.353zm-57.685 58.685c8.635-.68.32-22.627-7.036-20.548-7.675 2.039-2.878 20.228 7.036 20.548zM166.699 75.474c7.715 4.118 10.913-19.628 3.238-21.667-7.396-2.438-11.913 16.15-3.238 21.667zM65.08 29.862c6.117 5.157-1.279 27.103-10.913 19.908-6.796-6.516 3.518-25.745 10.914-19.908zm-31.54 78.832c5.756 4.797-1.6 26.704-10.914 19.188-6.756-6.156 3.518-25.024 10.914-19.188zm53.327 80.631c1.92 6.836-13.751 18.509-16.95 8.235-1.918-8.595 14.392-16.51 16.95-8.235zm63.802 11.034c-2.279 6.835-21.347 6.516-18.43-3.798 2.92-7.915 20.668-4.477 18.43 3.798zM186.047 97.7c-10.593 4.478-1.919 28.424 8.035 25.026 9.914-3.758 1.6-29.143-8.035-25.025zm21.227 44.974c-10.273-4.798-20.227 18.508-10.913 23.665 9.314 5.117 20.508-19.188 10.913-23.665zm-86.587-37.018c2.239-11.313-15.71-18.869-18.27-8.555-2.917 10.634 15.711 19.508 18.27 8.555zM49.29 65.52c-7.395-3.438-14.79 9.594-8.035 12.992 6.756 3.079 14.751-9.914 8.035-12.992zm65.64 68.958zm19.588 30.182c-.959 7.556-2.918 12.713-6.436 15.79-2.238 1.72 0 7.196 2.559 5.477 5.157-4.437 8.355-11.313 9.314-20.587.32-5.477-5.437-5.477-5.437-.68zm-24.425-24.345h4.518c6.396.36 11.553 2.758 15.07 6.876 2.279 3.758 2.919 4.797 3.558 7.875.64 4.477 6.396 3.078 5.437-1.36-.96-3.797-2.878-7.914-4.797-10.313-4.517-5.477-11.273-8.555-18.949-8.915-1.958-.36-3.558-.36-5.476 0-3.518.36-2.559 6.517.64 5.837zm-14.111 0c-.68.68-1.32 1.04-1.64 1.36-5.116 5.156-7.715 11.312-7.715 18.188 0 7.196 1.64 14.751 6.117 20.588h.32c2.238 2.758 6.436-.68 4.197-3.438-4.517-5.837-5.157-13.032-5.157-17.15 0-5.157 2.239-9.954 6.116-13.712.32-.36.96-1.039 1.6-1.359 2.558-2.078.32-8.235-3.838-4.477zm27.623 43.214c-2.918 1.04-6.436 1.399-10.633 1.04-3.518-.36-6.397-1.04-8.995-2.4-3.198-1.359-5.117 3.439-3.198 5.157 3.518 1.72 7.395 2.719 11.873 3.079 4.837.32 8.994 0 12.552-1.36 2.559-1.039 0-6.516-1.599-5.516z" fill="#746687" fill-rule="evenodd"/><path d="M128.162 180.41c3.518-3.117 5.477-8.234 6.436-15.79 0-2.398 1.6-3.757 2.879-3.438-.96-.68-1.28-2.398-.32-3.757-1.6.68-3.518 0-3.838-2.399-.64-3.078-1.279-4.117-3.558-7.875-3.557-4.118-8.674-6.516-15.15-6.876h-4.478c-1.639.36-2.598-1-2.918-2.399-.64 2.399-4.837 4.478-6.756 2.759.64 1.359.64 3.078-.64 4.117-.64.36-1.279 1.04-1.599 1.36-3.877 3.797-6.156 8.594-6.156 13.711 0 4.118.68 11.313 5.157 17.15 1.32 1.719.32 3.438-.96 4.117 1.96-.36 4.198.68 3.878 3.398.32-1.679 1.92-3.078 3.878-2.398 2.558 1.399 5.477 2.078 8.995 2.398 4.197.36 7.755 0 10.633-1 .96-.679 2.559 1.72 2.559 3.399h.36c-.36-1.36.639-1.68 2.238-1.36-1.6-1.039-2.239-3.757-.64-5.116z" fill="#746687" fill-rule="evenodd"/><path clip-path="url(#a)" d="M163.58 84.749c2.56 4.117-16.11 4.797-12.232 10.633 4.198 5.477 8.035-.72 9.954 4.118 2.279 5.117-11.873 5.117-8.355 12.672 3.238 7.875 9.035-4.117 14.472 1.04 5.156 4.796-11.873 4.117-8.675 9.594 3.238 5.836 9.994-4.118 13.192.68 3.558 5.156-8.355 8.594-7.076 12.352 1.28 3.438 8.675-5.157 13.192 0 4.517 4.797-7.395 5.476-6.756 10.313.64 5.117 8.675-6.196 9.994 1.68 1.28 7.555-11.913 4.836-11.913 9.953 0 4.797 11.913-3.757 11.913 4.118 0 7.915-9.994 2.079-11.913 7.196-1.958 4.837 14.152 8.954 11.234 14.75-2.559 5.517-9.954-7.195-11.873-5.116-1.96 2.398 6.116 11.992.64 13.711-5.158 1.36-5.158-11.992-8.715-9.954-3.198 2.08-10.594 5.477-12.553 1.36-1.919-4.438 9.994-.68 9.994-5.797 0-4.837-12.552-2.079-12.552-6.196 0-4.437 17.39 3.438 18.029-3.758.64-6.876-14.152-2.079-13.512-6.876.64-5.157 9.314.68 9.314-5.836 0-6.156-13.831-1.36-13.192-5.477.64-4.477 9.355 1.36 9.355-6.516 0-7.555-14.831 0-13.232-6.196 1.319-6.516 7.755 2.079 8.395-5.117.64-6.876-12.553-2.079-13.192-7.555-.64-5.837 8.674-1.72 9.314-9.275.64-7.875-15.75 6.196-17.39.68-1.279-5.797 18.03-9.914 14.832-16.43-3.558-6.197-9.994 10.633-14.152 4.437-3.878-6.516 9.954-13.712 5.437-16.47-4.477-2.718-6.756 8.595-10.594 5.157-3.877-3.758 2.559-11.313-.64-14.391-3.237-2.759-.639 9.234-7.435 6.516-6.436-2.759 3.238-13.392-3.198-15.471-6.756-2.399-2.558 12.712-9.314 11.353-6.796-1.719 0-17.15-7.436-15.79-7.075 1.359.64 7.195-3.837 14.071-4.837 7.196-6.117-6.196-10.634-.68-4.837 5.797 8.035 10.634 3.238 15.071-4.517 4.118-8.715-4.437-11.913 0-3.238 4.118 11.273 6.876 8.035 14.072-3.198 7.196-10.633-5.477-13.192 1.36-2.878 7.195 11.913 7.195 9.994 12.711-2.278 5.837-7.435-2.078-9.354 3.758-2.239 5.477 8.355 5.477 6.436 13.392-1.919 7.555-10.633-4.477-12.552 2.718-1.92 7.236 14.47 6.516 13.831 12.713-.64 6.516-18.349-6.197-17.669 1.359.64 7.915 13.192 1.399 12.512 10.633-.64 9.275-9.314 0-11.233 3.798-1.959 3.398 6.436 11.313 1.28 13.352-5.477 2.079-5.477-14.071-9.355-13.352-3.838.68.68 13.352-4.477 11.993-5.477-1.36.64-17.83-4.198-18.509-4.517-.72-5.156 11.313-10.633 9.234-5.117-2.038 11.913-15.75 8.075-18.508-3.878-2.759-9.354 6.516-11.913 1.359-2.598-4.797 19.948-8.235 18.669-14.072-1.64-5.476-9.994 2.08-9.994-4.797 0-7.195 16.43-2.398 16.43-5.836 0-3.398-10.634-2.719-9.994-7.875.64-4.798 18.669 3.078 19.948-3.438 1.32-6.157-15.75-2.719-15.11-9.235.639-6.196 11.272 3.758 11.912-3.438.64-7.195-15.47 0-16.11-6.516-.64-6.196 15.47.68 16.11-4.797.64-5.836-10.634-.72-9.994-7.235.64-6.157 16.43 3.118 17.39-2.719.639-5.516-12.233-2.079-11.594-7.915.96-5.477 18.03 7.236 19.309-1.36 1.279-8.554-11.273-2.757-10.594-6.875.64-4.437 12.872 1.4 11.873-4.437-.64-5.477-13.832 0-12.552-5.477 1.319-5.836 10.633.68 11.912-4.477 1.64-4.797-9.314-2.039-8.355-6.157.64-4.477 12.553 1.36 12.553-2.758 0-4.477-8.035-3.758-6.756-7.875 1.28-4.477 9.954 2.718 10.633-2.758.64-5.837-11.273-3.079-11.273-6.516 0-3.438 9.954 0 9.954-4.118 0-4.477-9.314-3.758-8.674-6.516.64-2.758 12.552 2.039 14.15-1.36 1.28-3.437-9.953-3.437-10.593-5.836-1-2.078 9.635-.68 8.995-2.758-.64-2.039-.64-4.797-8.995-5.477-10.953-.68-21.587 6.836-28.023 18.869C43.853 30.86 1.36 120.047 4.917 165.7c1.919 22.986 15.75 37.377 37.018 39.775 20.907 2.759 42.134 3.079 63.081 3.079 18.35 0 36.019 3.078 54.367 2.078 20.268-.68 39.896-6.196 49.25-27.463 6.437-15.07 10.594-34.3 7.716-51.09-1.919-12.352-31.86-66.559-39.576-81.99-4.837-9.594-29.302-48.73-54.407-46.651-11.913.68-12.872 4.797-12.872 8.235 0 3.758 10.633-.68 11.593 3.078.64 3.438-5.477.68-5.477 4.797 0 4.477 16.75-4.117 16.75.68 0 5.157-9.994 2.078-9.355 6.516.68 4.117 15.79-2.039 16.43 2.758.64 4.797-7.715 0-7.075 5.837.64 5.476 11.913-1.04 13.192 4.117 1.279 4.797-7.396 1.36-6.756 5.477.64 4.477 12.552-2.719 13.512 3.078.64 5.517-10.634 2.758-8.675 6.876 1.919 4.477 9.314.68 10.594 6.516 1.319 5.476-13.512 2.758-13.512 7.195 0 4.118 9.994 1.4 11.593 4.118 1.279 2.758-9.315.68-8.035 5.517 1.279 5.116 16.39 2.398 19.308 6.516" fill="none" stroke="#1a171b" stroke-width="1.359" stroke-linecap="round" stroke-linejoin="round"/><path d="M111.692 132.28zm19.309 30.222c-.68 7.515-2.919 12.672-6.436 16.11-1.96 1.719.32 6.876 2.878 5.157 5.157-4.118 8.355-10.994 9.314-20.588.32-5.157-5.437-5.477-5.756-.68zm-24.146-24.026c1.28-.36 2.878-.36 4.198-.36h.32c6.116.36 11.233 2.759 14.79 7.236 2.559 3.398 2.879 4.797 3.838 7.515.68 4.478 6.117 3.118 5.157-.999-.64-4.118-2.558-7.915-4.837-10.634-4.477-5.516-10.913-8.594-18.629-8.954h-5.476c-3.558.36-2.559 6.556.64 6.196zm-14.151 0c-.64.36-1.28.68-1.6 1.36-5.156 4.796-8.074 11.312-8.074 17.868 0 7.196 1.958 14.751 6.436 20.548v.36c2.598 2.398 6.756-.68 4.517-3.758-4.517-5.517-5.157-13.032-5.157-17.15 0-4.837 1.959-9.634 5.797-13.391.64-.68 1.279-1.04 1.918-1.72 2.599-2.078 0-7.875-3.837-4.117zm27.343 42.894c-2.878 1-6.116 1.36-10.314 1.36-3.517-.36-6.436-1.36-8.994-2.4-3.198-1.358-5.157 3.079-3.198 4.798 3.198 2.079 7.076 3.078 11.873 3.438 4.837.32 8.714-.36 12.232-1.72 2.919-1.039.32-6.156-1.599-5.476z" fill="#8ba91b" fill-rule="evenodd"/><path d="M124.604 178.692c3.558-3.398 5.837-8.555 6.477-16.11.32-2.4 1.918-3.438 3.198-3.438-1.28-.68-1.6-2.399-.32-3.438h-.32c-1.28.36-3.198 0-3.518-2.719-1-2.758-1.32-4.117-3.878-7.555-3.557-4.477-8.714-6.876-14.87-7.196h-.32c-1.28 0-2.879 0-4.198.32-1.599 0-2.558-1.04-2.878-2.758-.64 2.758-4.837 4.837-6.796 2.758.64 1.36.32 3.438-.64 4.118-.64.68-1.279 1.039-1.918 1.718-3.878 3.758-5.837 8.595-5.837 13.392 0 4.118.68 11.673 5.197 17.15 1.28 1.719.32 3.438-1 4.477 1.96-.72 3.878.68 3.878 3.078.32-1.399 1.96-3.078 3.878-2.078 2.598 1.039 5.477 2.078 9.034 2.398 4.198 0 7.436-.32 10.314-1.359 1.32-.68 2.918 1.719 2.918 3.758 0-1.36.96-2.039 2.24-1.36-1.28-1.039-1.92-4.117-.64-5.156z" fill="#eeebc7" fill-rule="evenodd"/><path d="M111.053 138.196c-1.28 0-2.879 0-4.198.36-1.599 0-2.558-1.04-2.878-2.758-.64 2.758-4.837 4.797-6.796 2.758.64 1.36.32 3.438-.64 4.118-.64.68-1.279 1.039-1.918 1.718-3.878 3.758-5.837 8.555-5.837 13.352 0 4.118.68 11.633 5.197 17.11 1.28 1.719.32 3.438-1 4.477 1.96-.68 3.878.68 3.878 3.078.32-1.359 1.96-3.078 3.878-2.078 2.239 1.04 5.477 2.078 9.034 2.398-.959-.68-1.958-1-2.918-.68-3.198-4.796-8.714-3.757-8.714-20.187 0-16.79 14.51-22.267 19.348-22.267-1.919-.68-3.838-1.039-6.117-1.399h-.32z" fill="#e0db95" fill-rule="evenodd"/><path d="M63.801 28.423c6.117 5.157-1.279 27.103-10.913 19.588-6.796-6.196 3.518-25.425 10.913-19.588z" fill="#fdf5f5" fill-rule="evenodd"/><path d="M62.762 30.502c4.837 3.757-1.28 21.506-8.675 15.71-5.836-5.117 2.559-20.508 8.675-15.71z" fill="#eb9bab" fill-rule="evenodd"/><path d="M64.081 32.94c0-1.04-.64-2.079-1.28-2.399-6.115-4.837-14.55 10.634-8.714 15.79 0 0 .32 0 .32.32-1.599-6.156 4.837-16.11 9.674-13.711z" fill="#dd7a93" fill-rule="evenodd"/><path d="M57.685 35.299c-.32.68-.96 1.359-.96 2.038.32.68.64 1 .96 1.32-.32 0-.64 0-.96-.32-.959 0-1.279-.32-1.598-1.36zm5.117-2.799c.64.36.96 1.4.64 2.079-.32 1.04-.96 1.04-1.92 1.04.32 0 .96.36 1.28.679.32 0 .96.68 1.28.36.319 0 .319-1.4.319-1.72 0-.679-.32-1.039-.32-1.718 0-.36 0-.72-.32-.72zm-5.117 11.993c.32.36.32.72 0 1.04 0 .36-.96.36-1.28.36-.959-.36-1.598-.68-1.918-1.4-.32 0-.32-.36-.32-.72-.32.72-.32 1.76.32 2.479.32.36 1.28.72 1.919.72 1.279.32 3.198 0 3.837-1.76-.32.32-.64 0-.959 0z" fill="#dd7a93" fill-rule="evenodd"/><path d="M32.26 107.015c5.757 5.157-1.599 26.704-10.913 19.548-6.756-6.196 3.518-25.384 10.913-19.548z" fill="#fdf5f5" fill-rule="evenodd"/><path d="M30.941 109.094c4.837 4.117-.96 21.187-8.674 15.39-5.517-4.797 2.878-20.187 8.674-15.39z" fill="#eb9bab" fill-rule="evenodd"/><path d="M32.58 111.812c-.32-1.359-.64-2.039-1.599-2.718-5.796-4.797-14.231 10.553-8.714 15.31.32.36.64.36.64.68-1.6-6.116 4.516-15.99 9.673-13.272z" fill="#dd7a93" fill-rule="evenodd"/><path d="M25.864 114.21c-.32.36-.64 1.04-.64 1.72 0 .68.32 1 .96 1.319-.32 0-.64 0-.96-.32-.999 0-1.318-.32-1.678-1zm5.357-3.117c.64.36.64 1.399.32 2.078-.32 1.04-.96 1.04-1.919 1.04.64.36.96.36 1.28.68.32.36.959.679 1.278.679.64-.32.32-1.719.32-2.039 0-.68 0-1.04-.32-1.719 0-.36.32-.36 0-.72zm-5.037 12.072c.32.32.32.68 0 1-.32.36-1 .36-1.639.36-.64-.36-1.28-.68-1.599-1.36-.32 0-.32-.36-.32-.72-.36.72-.36 1.72.32 2.08.32.68 1.28 1.039 1.6 1.039 1.638.32 3.237 0 4.197-1.72-.32.32-.64 0-.96 0z" fill="#dd7a93" fill-rule="evenodd"/><path d="M86.627 187.646c1.92 6.836-13.871 18.51-17.07 7.876-1.958-8.236 14.512-16.15 17.07-7.876z" fill="#fdf5f5" fill-rule="evenodd"/><path d="M84.949 188.246c1.279 5.517-10.874 14.79-13.752 6.556-1.28-6.556 11.513-13.112 13.752-6.556z" fill="#eb9bab" fill-rule="evenodd"/><path d="M84.709 191.004c.32-1.04.64-1.719.32-2.758-2.24-6.556-15.111 0-13.792 6.516.32.36.32.36.32.68 1.599-5.157 10.913-8.915 13.152-4.438z" fill="#dd7a93" fill-rule="evenodd"/><path d="M78.872 189.285c-.64 0-.96.36-1.279.72-.32.72-.32 1.439-.32 1.759-.32-.32-.32-.68-.64-1.04s-.32-.72-.32-1.439zm5.197.64c.32.72 0 1.439-.64 1.799-.64.36-1.279.36-1.918-.36.32.36.64.72.64 1.44.319 0 .319.719.639 1.039.64 0 .96-1.04 1.279-1.4.32-.36.32-1.079.64-1.439v-.72zm-9.434 5.876c0 .36-.32.68-.32.68-.64.36-.96-.32-1.28-.68-.639-.32-.959-1-.959-1.679 0-.32.32-.32.32-.68-.64.36-.96 1.04-.96 1.72 0 .64.64 1 .96 1.679.96.68 2.559 1.319 3.518 1-.32 0-.32-.32-.64-.68z" fill="#dd7a93" fill-rule="evenodd"/><path d="M149.63 198.92c-2.24 6.835-21.188 6.835-18.27-3.798 2.879-7.915 20.508-4.478 18.27 3.797z" fill="#fdf5f5" fill-rule="evenodd"/><path d="M147.79 198.56c-1.599 5.516-16.79 5.197-14.51-3.078 2.238-6.596 16.43-3.478 14.51 3.078z" fill="#eb9bab" fill-rule="evenodd"/><path d="M146.191 200.638c.96-.68 1.6-1.359 1.6-2.038 1.918-6.596-12.193-9.714-14.432-3.118 0 .32 0 .32-.36.68 4.198-3.119 13.832-.68 13.192 4.476z" fill="#dd7a93" fill-rule="evenodd"/><path d="M142.594 195.482c-.64 0-1.28-.36-1.96 0-.319 0-.639.68-.639.999-.36-.32 0-.68 0-1-.36-.68 0-1.039.32-1.399zm3.597 3.838c0 .679-.68 1.039-1.319 1.039-1 0-1.359-.68-1.359-1.4 0 .36 0 1.04-.32 1.4 0 .36-.36 1.039 0 1.399.32.32 1.32-.36 1.68-.36.639-.36.999-.68 1.318-.68 0-.36.32-.36.32-.36zm-10.633-1.08c-.32.36-.64.36-.64.36-.64 0-.64-.68-.64-1.04-.32-.68-.32-1.719.32-2.038 0-.36.32-.36.32-.36-.64-.36-1.279 0-1.599.68a2.369 2.369 0 0 0 0 2.078c0 1.04.96 2.718 2.239 2.718-.32 0 0-.32 0-.68z" fill="#dd7a93" fill-rule="evenodd"/><path d="M184.088 96.661c-10.313 4.478-1.918 28.423 8.036 25.025 9.954-3.757 1.599-29.142-8.036-25.025z" fill="#fdf5f5" fill-rule="evenodd"/><path d="M184.448 99.1c-7.076 2.758-.64 23.346 7.076 20.627 7.995-3.118.64-24.065-7.076-20.627z" fill="#eb9bab" fill-rule="evenodd"/><path d="M188.326 100.14c.32 0 .64-.36.96-.36-1.6-1-3.199-1.72-4.798-.68-7.115 2.758-1.319 21.907 6.396 20.547-5.117-4.117-8.035-17.11-2.558-19.508z" fill="#dd7a93" fill-rule="evenodd"/><path d="M188.606 99.42c1 .72 1.959 1.399 2.598 2.438 1.6 2.079-.64 2.079-2.279 3.078 1.64-.999 1.64-2.398.36-3.438-1.639-1.359-2.278-.68-3.917-.32zm-3.878 6.156c0 3.478 2.558 3.478 5.117 3.478-.96.32-1.919 1.04-2.878 1.36-.96.359-1.6.359-2.239.359-.96.32-1.599-.36-2.239 0zm.999 6.156c.64 4.198 5.797 2.119 8.036 1.76-.64.679-2.24.679-2.879 1.718-.32.36-.32 1.4 0 1.76.96 1.038 2.239 0 3.198-.36-.32 1.398-1.279 1.758-2.238 2.438-.64.68-1.6.68-2.599.36-.96-.36-1.599-1.4-2.238-2.08-.64-1.398-.96-3.837-2.279-4.197z" fill="#dd7a93" fill-rule="evenodd"/><path d="M206.595 140.635c-10.274-4.837-20.268 18.549-10.914 23.705 9.315 4.797 20.548-19.228 10.914-23.705z" fill="#fdf5f5" fill-rule="evenodd"/><path d="M205.316 142.314c-7.076-3.078-16.11 16.11-8.675 19.868 7.715 4.077 16.39-16.43 8.675-19.868z" fill="#eb9bab" fill-rule="evenodd"/><path d="M207.274 146.111c.32.36.64.36.96.68-.32-2.039-1.28-3.758-2.878-4.437-6.796-3.118-15.511 14.71-9.355 19.508-.96-6.836 5.797-18.15 11.273-15.75z" fill="#dd7a93" fill-rule="evenodd"/><path d="M207.914 145.712c.32 1.399.32 2.758.32 3.797-.32 2.759-1.959 1.04-3.598.36 1.639.68 2.638-.36 2.319-2.079 0-2.078-1.32-2.078-2.319-3.118zm-6.716 1.758c-2.319 2.44-.36 4.158 1.28 5.837-.96-.32-1.96-.68-2.919-1-.68-.36-1.32-.679-1.999-1.398-.64-.32-.96-1.36-1.319-1.72zm-3.238 5.197c-2.558 3.438 2.598 5.477 4.517 7.196-.96 0-2.238-1.36-3.198-1.36-.68.32-1 1-1 1.36-.319 1.36 1.32 1.68 2.28 2.039-1.28 1-1.96.68-3.239.32-.959-.32-1.599-.68-1.918-2.04-.68-.679-.32-2.038-.32-3.077.32-1 1.919-3.038 1.279-4.438z" fill="#dd7a93" fill-rule="evenodd"/><path d="M119.727 103.897c2.559-11.273-15.39-19.188-18.268-8.555-2.599 10.634 16.03 19.508 18.268 8.555z" fill="#fdf5f5" fill-rule="evenodd"/><path d="M118.528 102.938c1.6-7.876-13.232-15.111-15.47-6.516-2.28 8.235 13.551 15.07 15.47 6.516z" fill="#eb9bab" fill-rule="evenodd"/><path d="M115.93 105.616c0 .32-.32.68-.32 1 1.32-.68 2.598-1.68 2.918-3.758 1.6-7.556-12.592-14.791-15.19-7.196 4.876-2.079 13.91 3.758 12.592 9.954z" fill="#dd7a93" fill-rule="evenodd"/><path d="M116.21 105.936c-.96.32-1.92.68-2.919 1-1.958 0-.64-2.04-.64-3.759-.32 1.72.64 2.399 1.96 2.04 1.599-.32 1.599-1.36 2.238-2.76zm-1.92-6.796c-1.918-2.039-3.237.36-4.237 2.039 0-1 .36-2.04.68-3.078 0-1 .32-1.72.64-2.399.32-.68.999-1 1.319-1.719zm-3.837-3.078c-2.918-1.72-4.237 3.398-5.197 5.756 0-1 .96-2.358.64-3.398 0-.32-.64-.999-.96-.999-.999 0-1.319 1.679-1.319 2.718-.68-1.04-.68-2.038-.68-3.398.36-1.039.68-1.719 1.32-2.398.68-.36 1.639-.36 2.278-.36 1 .36 2.639 1.4 3.598.72z" fill="#dd7a93" fill-rule="evenodd"/><path d="M48.69 64.121c-7.395-3.478-14.83 9.634-8.035 13.072 6.756 3.438 15.111-9.994 8.035-13.072z" fill="#fdf5f5" fill-rule="evenodd"/><path d="M47.691 65.12c-5.157-2.398-11.593 8.236-6.116 10.954 5.157 2.718 11.873-8.555 6.116-10.953z" fill="#eb9bab" fill-rule="evenodd"/><path d="M49.29 67.56c.32 0 .32 0 .64.319-.32-1.36-.96-2.359-2.239-2.718-4.837-2.04-11.273 7.475-6.756 10.513-.64-3.718 4.198-10.154 8.355-8.115z" fill="#dd7a93" fill-rule="evenodd"/><path d="M49.61 67.2c.32.679.32 1.358.32 2.078-.32 1.679-1.6.68-2.559.32 1.28.36 1.6-.32 1.6-1.36 0-1.039-.96-1.359-1.6-2.078zm-4.877.639c-1.6 1.08-.32 2.478.96 3.518-.96-.32-1.6-.68-2.24-.68-.639-.36-.959-.72-1.279-1.08-.64-.319-.64-.679-.959-1.039zm-2.519 2.718c-1.599 1.76 1.96 3.518 3.238 4.557-.64-.36-1.599-1.039-2.238-1.039-.32 0-.68.32-.68.68 0 .68 1 1.04 1.64 1.399-.96.32-1.64.32-2.28 0-.639-.36-1.279-.72-1.598-1.4-.36-.36 0-1.039 0-1.758.32-.68 1.279-1.72.959-2.439z" fill="#dd7a93" fill-rule="evenodd"/><path d="M83.15 128.602c2.238 8.875 20.827-3.758 17.629-11.313-3.198-7.875-19.268.68-17.63 11.313z" fill="#fdf5f5" fill-rule="evenodd"/><path d="M84.429 127.922c1.919 7.236 17.63-3.757 15.07-9.953-2.558-6.237-16.07 1.359-15.07 9.953z" fill="#eb9bab" fill-rule="evenodd"/><path d="M87.627 129.961c-.64-6.516 7.076-12.312 11.873-12.312-2.879-5.517-16.07 1.679-15.071 10.273.32 1.68 1.919 2.359 3.518 2.359 0-.32-.32-.32-.32-.32z" fill="#dd7a93" fill-rule="evenodd"/><path d="M91.744 120.767c.32.68.64 1 .96 1.999-.64-1-1.28-1.32-1.959-.64-.32 0-.64.32-.64.96 0-.96-.68-1.32-.68-2.32zm3.918-2.439c.64-.32 2.239-.32 2.878 1.04.32 1 .32 2.718-.32 3.717.96-.68 1.6-2.358 1.6-3.717.32-.68 0-1.04-.32-1.72-.64-1.039-1.28-1.039-2.239-1.039zm-7.715 8.155c-.32 1.4.32 2.799 1.599 2.439.68-.32 1.639-1.04 1.639-1.72.32-.719 0-1.398 0-2.118.32.72.32 1.08.64 1.4 0 .719.639.719.639 1.398 0 0 .64 0 .32.36s-.64.68-.96.68c-.64.36-1.279.36-1.918.72-.68.32-1.64.32-1.96.32-.959 0-1.279-.32-1.958-1.04z" fill="#dd7a93" fill-rule="evenodd"/><path d="M25.145 188.246c8.315-1 .32-22.626-7.396-20.548-7.715 2.04-2.878 20.228 7.396 20.548z" fill="#fdf5f5" fill-rule="evenodd"/><path d="M24.505 186.567c7.036-.68-.32-19.268-6.396-17.51-6.076 1.72-1.599 17.51 6.396 17.51z" fill="#eb9bab" fill-rule="evenodd"/><path d="M27.144 183.529c-6.117 0-10.314-9.235-9.355-14.392-5.516 2.08-.96 17.43 6.796 17.43 1.919 0 2.559-1.36 2.878-3.038h-.32z" fill="#dd7a93" fill-rule="evenodd"/><path d="M19.388 177.732c.64 0 1.24-.36 1.84-.36-.92.36-1.2 1-.92 1.68 0 .32.32.64.64.64-.64 0-1.24.319-1.88.319zm-1.598-4.277c-.32-1 0-2.679 1.278-2.998 1.24-.36 2.519.32 3.438 1-.28-1.36-1.879-2.04-2.838-2.36-.6-.36-1.24-.36-1.879 0-.96.32-.96 1.36-1.279 2zm6.116 9.355c1.599.679 2.598 0 2.598-1.4 0-.68-.64-1.719-1.32-2.039-.639 0-1.278-.36-1.638-.36.36 0 .68 0 1.319-.36.32 0 .64-.32 1-.32.32 0 .639-.719.639-.359.32.36.32.68.64 1.04 0 1.039 0 1.718.32 2.398 0 .72-.32 1.4-.32 2.079 0 .72-.64 1.04-1.28 1.719z" fill="#dd7a93" fill-rule="evenodd"/><path d="M164.78 74.395c8.075 3.758 11.313-19.588 3.558-21.987-7.755-2.079-11.993 16.15-3.558 21.987z" fill="#fdf5f5" fill-rule="evenodd"/><path d="M165.46 72.996c6.156 3.078 8.714-17.15 2.598-18.869-6.156-1.719-9.714 14.072-2.598 18.869z" fill="#eb9bab" fill-rule="evenodd"/><path d="M168.898 71.317c-5.117-3.438-4.478-13.352-1.28-17.11-5.756-1.399-8.954 14.032-2.238 18.789 1.599.68 2.878 0 3.837-1.36-.32 0-.32 0-.32-.32z" fill="#dd7a93" fill-rule="evenodd"/><path d="M164.74 62.082c.64.36 1.28.36 1.919.72-.64 0-1.28.32-1.599 1.04 0 .32 0 1.039.32 1.358-.32-.68-1.28-.68-1.92-1.039zm1-4.517c0-1 1.279-1.999 2.598-1.679.96.32 1.919 1.68 2.558 2.679 0-1.32-.64-2.679-1.599-3.678a1.78 1.78 0 0 0-1.639-1.04c-.959 0-1.599.68-2.278 1.36zm.919 11.713c.68 1.04 2.279 1.4 2.638 0 .32-.68.32-1.719 0-2.439-.36-.32-.999-1.039-1.639-1.399.64.36.96.72 1.64.72h1.279c0 .36.32 0 .32.36.32.32 0 .68 0 1.04-.32.679-.64 1.358-.96 2.438 0 .32-.64 1.039-1 1.359-.32.72-.959.72-1.918 1.04z" fill="#dd7a93" fill-rule="evenodd"/><path d="M99.74 153.267c3.238-11.313 23.505-11.673 30.221.68-2.238-5.837-.96-10.954-15.43-14.751-14.112-3.798-11.234 3.078-11.234 3.078z" fill="#e0db95" fill-rule="evenodd"/><path d="M134.518 161.502c-1.279-.36-1.279.68-2.238 5.157-.96 4.437-4.158 10.953-5.757 12.313 3.518-2.04 5.117-6.477 6.396-10.594 1.28-4.118.64-6.516 1.6-6.876zm-26.384-27.423c4.558-.36 20.028.36 24.865 15.07-1.918-3.397-7.075-12.312-24.865-15.07zM84.988 165.22c-2.598-11.953 1.92-20.468 8.355-24.945-2.238 2.399-9.314 9.234-8.355 24.945z" fill="#f7f0f0" fill-rule="evenodd"/><path d="M111.692 132.28s0 0 0 0 0 0 0 0 0 0 0 0zm19.309 30.222c-.68 7.515-2.919 12.672-6.436 16.11-1.96 1.719.32 6.876 2.878 5.157 5.157-4.118 8.355-10.994 9.314-20.588.32-5.157-5.437-5.477-5.756-.68zm-24.146-24.026s0 0 0 0c1.28-.36 2.878-.36 4.198-.36h.32c6.116.36 11.233 2.759 14.79 7.236 2.559 3.398 2.879 4.797 3.838 7.515.68 4.478 6.117 3.118 5.157-.999-.64-4.118-2.558-7.915-4.837-10.634-4.477-5.516-10.913-8.594-18.629-8.954h-5.476c-3.558.36-2.559 6.556.64 6.196zm-14.151 0s0 0 0 0c-.64.36-1.28.68-1.6 1.36-5.156 4.796-8.074 11.312-8.074 17.868 0 7.196 1.958 14.751 6.436 20.548v.36c2.598 2.398 6.756-.68 4.517-3.758-4.517-5.517-5.157-13.032-5.157-17.15 0-4.837 1.959-9.634 5.797-13.391.64-.68 1.279-1.04 1.918-1.72 2.599-2.078 0-7.875-3.837-4.117zm27.343 42.894c-2.878 1-6.116 1.36-10.314 1.36-3.517-.36-6.436-1.36-8.994-2.4-3.198-1.358-5.157 3.079-3.198 4.798 0 0 0 0 0 0 3.198 2.079 7.076 3.078 11.873 3.438 4.837.32 8.714-.36 12.232-1.72 2.919-1.039.32-6.156-1.599-5.476z" fill="none" stroke="#1a171b" stroke-width=".8" stroke-linecap="round" stroke-linejoin="round"/><path d="M124.604 178.692c3.558-3.398 5.837-8.555 6.477-16.11.32-2.4 1.918-3.438 3.198-3.438-1.28-.68-1.6-2.399-.32-3.438h-.32c-1.28.36-3.198 0-3.518-2.719-1-2.758-1.32-4.117-3.878-7.555-3.557-4.477-8.714-6.876-14.87-7.196h-.32c-1.28 0-2.879 0-4.198.32 0 0 0 0 0 0-1.599 0-2.558-1.04-2.878-2.758-.64 2.758-4.837 4.837-6.796 2.758.64 1.36.32 3.438-.64 4.118-.64.68-1.279 1.039-1.918 1.718-3.878 3.758-5.837 8.595-5.837 13.392 0 4.118.68 11.673 5.197 17.15 1.28 1.719.32 3.438-1 4.477 1.96-.72 3.878.68 3.878 3.078.32-1.399 1.96-3.078 3.878-2.078 2.598 1.039 5.477 2.078 9.034 2.398 4.198 0 7.436-.32 10.314-1.359 1.32-.68 2.918 1.719 2.918 3.758 0 0 0 0 0 0 0-1.36.96-2.039 2.24-1.36-1.28-1.039-1.92-4.117-.64-5.156m-41.455-50.09c2.238 8.875 20.827-3.758 17.629-11.313-3.198-7.875-19.268.68-17.63 11.313" fill="none" stroke="#1a171b" stroke-width=".8" stroke-linecap="round" stroke-linejoin="round"/><path d="M84.429 127.922c1.919 7.236 17.63-3.757 15.07-9.953-2.558-6.237-16.07 1.359-15.07 9.953" fill="none" stroke="#1a171b" stroke-width=".48" stroke-linecap="round" stroke-linejoin="round"/><path d="M25.145 188.246c8.315-1 .32-22.626-7.396-20.548-7.715 2.04-2.878 20.228 7.396 20.548" fill="none" stroke="#1a171b" stroke-width=".8" stroke-linecap="round" stroke-linejoin="round"/><path d="M19.708 184.168c.64-1.319 3.198-1.319 4.477-1.679m-2.958-5.516c-1.559.36-3.438 1.04-4.717 1.359m3.438 1.678c1.999-.639 4.597-.998 6.236-1.998m-7.116-5.197c1.28-.32 3.199-1 3.838-1.359" fill="none" stroke="#1a171b" stroke-width=".48" stroke-linecap="round" stroke-linejoin="round"/><path d="M24.505 186.567c7.036-.68-.32-19.268-6.396-17.51-6.076 1.72-1.599 17.51 6.396 17.51" fill="none" stroke="#1a171b" stroke-width=".48" stroke-linecap="round" stroke-linejoin="round"/><path d="M164.78 74.395c8.075 3.758 11.313-19.588 3.558-21.987-7.755-2.079-11.993 16.15-3.558 21.987" fill="none" stroke="#1a171b" stroke-width=".8" stroke-linecap="round" stroke-linejoin="round"/><path d="M162.182 67.879c1.279-.68 3.198.68 4.477 1m.4-6.157c-1.6-.64-3.558-1-4.877-1.679m2.318 3.358c1.92.72 4.478 1.759 6.396 1.759m-3.597-8.235c.999.36 2.958 1.04 3.597 1.04" fill="none" stroke="#1a171b" stroke-width=".48" stroke-linecap="round" stroke-linejoin="round"/><path d="M165.46 72.996c6.156 3.078 8.714-17.15 2.598-18.869-6.156-1.719-9.714 14.072-2.598 18.869" fill="none" stroke="#1a171b" stroke-width=".48" stroke-linecap="round" stroke-linejoin="round"/><path d="M63.801 28.423c6.117 5.157-1.279 27.103-10.913 19.588-6.796-6.196 3.518-25.425 10.913-19.588" fill="none" stroke="#1a171b" stroke-width=".8" stroke-linecap="round" stroke-linejoin="round"/><path d="M57.285 30.422c.96 1.079 1.92 2.118 3.198 2.798m-7.035 3.118c1.319 1.36 4.237 2.718 6.156 3.358m-1.039-5.117c1.639.36 3.917 1.719 5.516 2.399m-9.354 6.156c1.599 1.08 3.838 2.478 5.756 2.478" fill="none" stroke="#1a171b" stroke-width=".48" stroke-linecap="round" stroke-linejoin="round"/><path d="M62.762 30.502c4.837 3.757-1.28 21.506-8.675 15.71-5.836-5.117 2.559-20.508 8.675-15.71" fill="none" stroke="#1a171b" stroke-width=".48" stroke-linecap="round" stroke-linejoin="round"/><path d="M32.26 107.015c5.757 5.157-1.599 26.704-10.913 19.548-6.756-6.196 3.518-25.384 10.913-19.548" fill="none" stroke="#1a171b" stroke-width=".8" stroke-linecap="round" stroke-linejoin="round"/><path d="M25.784 109.414c.96.68 1.92 1.679 3.198 2.318m-7.115 3.118c1.319 1.72 4.277 2.759 6.236 3.438" fill="none" stroke="#1a171b" stroke-width=".48" stroke-linecap="round" stroke-linejoin="round"/><path d="M30.941 109.094c4.837 4.117-.96 21.187-8.674 15.39-5.517-4.797 2.878-20.187 8.674-15.39" fill="none" stroke="#1a171b" stroke-width=".48" stroke-linecap="round" stroke-linejoin="round"/><path d="M86.627 187.646c1.92 6.836-13.871 18.51-17.07 7.876-1.958-8.236 14.512-16.15 17.07-7.876" fill="none" stroke="#1a171b" stroke-width=".8" stroke-linecap="round" stroke-linejoin="round"/><path d="M81.11 185.608c0 1.359.36 2.678 1.04 3.677m-2.318-.399c1.319 1.439 1.998 3.557 2.958 4.957m-9.434-.8c.68 1.759 1.679 3.838 2.958 4.877" fill="none" stroke="#1a171b" stroke-width=".48" stroke-linecap="round" stroke-linejoin="round"/><path d="M84.949 188.246c1.279 5.517-10.874 14.79-13.752 6.556-1.28-6.556 11.513-13.112 13.752-6.556" fill="none" stroke="#1a171b" stroke-width=".48" stroke-linecap="round" stroke-linejoin="round"/><path d="M149.63 198.92c-2.24 6.835-21.188 6.835-18.27-3.798 2.879-7.915 20.508-4.478 18.27 3.797" fill="none" stroke="#1a171b" stroke-width=".8" stroke-linecap="round" stroke-linejoin="round"/><path d="M146.111 194.082c-.32 1.04-.959 2.08-.959 3.438m-4.477-5.516c-1.04 1.759-1.04 4.517-1.04 6.556m3.598-2.399c.24 1.76 0 3.798 0 5.517m-7.435-6.556c-.32 2.118-.64 4.197-.32 5.916" fill="none" stroke="#1a171b" stroke-width=".48" stroke-linecap="round" stroke-linejoin="round"/><path d="M147.79 198.56c-1.599 5.516-16.79 5.197-14.51-3.078 2.238-6.596 16.43-3.478 14.51 3.078" fill="none" stroke="#1a171b" stroke-width=".48" stroke-linecap="round" stroke-linejoin="round"/><path d="M184.088 96.661c-10.313 4.478-1.918 28.423 8.036 25.025 9.954-3.757 1.599-29.142-8.036-25.025" fill="none" stroke="#1a171b" stroke-width=".8" stroke-linecap="round" stroke-linejoin="round"/><path d="M182.49 111.412c2.878.32 5.436-2.038 7.995-2.398m-8.635-4.078c.96 0 2.558-.32 3.518-1.039m.639 1.719c1.6.68 4.478-.68 5.757-1.719m-3.838 12.313c2.239-.64 4.158-2 6.396-3.039" fill="none" stroke="#1a171b" stroke-width=".48" stroke-linecap="round" stroke-linejoin="round"/><path d="M184.448 99.1c-7.076 2.758-.64 23.346 7.076 20.627 7.995-3.118.64-24.065-7.076-20.627" fill="none" stroke="#1a171b" stroke-width=".48" stroke-linecap="round" stroke-linejoin="round"/><path d="M206.595 140.635c-10.274-4.837-20.268 18.549-10.914 23.705 9.315 4.797 20.548-19.228 10.914-23.705" fill="none" stroke="#1a171b" stroke-width=".8" stroke-linecap="round" stroke-linejoin="round"/><path d="M195.601 149.79c2 2.118 5.237 2.838 7.516 4.556m-3.597-9.674c.958.72 2.238 1.76 3.197 1.76m-.879 1.678c.96 1.76 3.797 3.198 5.356 3.518m-10.953 5.357c2.319 1.399 4.597 2.079 6.876 3.118" fill="none" stroke="#1a171b" stroke-width=".48" stroke-linecap="round" stroke-linejoin="round"/><path d="M205.316 142.314c-7.076-3.078-16.11 16.11-8.675 19.868 7.715 4.077 16.39-16.43 8.675-19.868" fill="none" stroke="#1a171b" stroke-width=".48" stroke-linecap="round" stroke-linejoin="round"/><path d="M119.727 103.897c2.559-11.273-15.39-19.188-18.268-8.555-2.599 10.634 16.03 19.508 18.268 8.555" fill="none" stroke="#1a171b" stroke-width=".8" stroke-linecap="round" stroke-linejoin="round"/><path d="M118.528 102.938c1.6-7.876-13.232-15.111-15.47-6.516-2.28 8.235 13.551 15.07 15.47 6.516" fill="none" stroke="#1a171b" stroke-width=".48" stroke-linecap="round" stroke-linejoin="round"/><path d="M48.69 64.121c-7.395-3.478-14.83 9.634-8.035 13.072 6.756 3.438 15.111-9.994 8.035-13.072" fill="none" stroke="#1a171b" stroke-width=".8" stroke-linecap="round" stroke-linejoin="round"/><path d="M40.575 68.878c1.64 1.36 3.918 1.72 5.517 2.719m-2.558-5.437c.64.36 1.559 1.04 2.158 1.04m-4.477 5.836c1.639 1 3.278 1.359 4.877 1.999" fill="none" stroke="#1a171b" stroke-width=".48" stroke-linecap="round" stroke-linejoin="round"/><path d="M47.691 65.12c-5.157-2.398-11.593 8.236-6.116 10.954 5.157 2.718 11.873-8.555 6.116-10.953m11.913-27.504c1.599.72 2.878 1.04 3.838 2.079" fill="none" stroke="#1a171b" stroke-width=".48" stroke-linecap="round" stroke-linejoin="round"/><path d="M43.773 68.478c1.32.72 2.599 1.44 4.238 2.16.32 0 1.28.719 1.28.719M25.545 114.53c1.599.68 3.198 1.68 4.797 2.36.64 0 1.599.679 1.599.999m-6.796 2.878c.96 1.319 2.878 2.638 4.477 2.318m-9.034-3.118c.999 1.4 2.318 3.438 4.237 3.118m65.64-5.436c1.32 1.359 2.319 3.398 3.278 5.117 0 .32 0 0 0 0m1.279-6.956c.32 1.08.92 2.478 1.52 3.518m-1.52 1.039c.64 1.4 1.6 3.478 1.92 4.477m-6.477-1.039c.64 1.04.96 2.399 1.6 3.398 0 .36.319.68.319 1m-6.396-6.477c.32 1.76 1.24 3.118 2.159 4.158m24.225-32.301c-1.32 2.039-1.64 4.438-2.319 6.796m2.959 1.439c-.32 1.72-.68 3.438-1.04 4.797m2.958-3.358c1.6-.999 1.92-4.117 2.239-5.516m-11.593 3.678c.96-3.039.96-6.477 3.198-8.875m-.24 6.556c-.96 1.759-1.279 3.838-1.919 5.197m-2.318-7.196c-.68 1-1 2.319-1.36 3.278m65.401-39.096c.96 0 2.558.8 2.878.8m19.908 49.649c.96-.32 2.878-1.279 3.198-1.279m7.116 45.892c1 .68 2.638 1.04 3.598 1.68m-67.319 39.495c-.32 1.04-.32 2.439-.64 3.478 0 .36.32.68 0 .68m-62.042-13.752c.64.68 2.558 3.758 2.238 4.078m-.959 2.078c0 1.04.96 2.04 1.279 3.039M15.47 174.894c.96 0 1.92-.32 2.56-.64" fill="none" stroke="#1a171b" stroke-width=".48" stroke-linecap="round" stroke-linejoin="round"/></svg>