<svg xmlns="http://www.w3.org/2000/svg" version="1.0" viewBox="0 0 544.743 445.38"><defs><clipPath clipPathUnits="userSpaceOnUse" id="a"><path d="M-11.913 1.36h544.15v445.729h-544.15z"/></clipPath></defs><path d="M395.02 228.541c.42 3.119 1.26 6.676.84 9.795-.42 5.316-1.679 4.437-5.896 3.557 4.217-.9 4.217-4.017 4.637-8.454z" fill="#f7c2b0" fill-rule="evenodd"/><path clip-path="url(#a)" d="M396.74 245.471c2.078-3.997 1.239-19.108-2.919-23.106 2.08-2.658.4-18.209-5.416-19.988 1.659-1.339 2.498-13.771-2.919-17.769 1.24-5.317-1.259-20.867-4.997-21.307 3.318-3.558 0-18.669-2.098-23.546 1.679-1.339 2.498-15.11-.4-16.43 2.498-3.997-.84-13.771-2.099-16.45 2.499-3.098 1.68-11.093 0-17.31 2.499 0 4.997-14.67 1.26-19.108 3.737-3.098 2.918-19.548-1.68-20.427 2.919-3.998 3.338-16.89-.4-20.888 2.08-5.756-7.095-22.206-12.512-25.304-5.416-2.679-9.574-.44-11.653-.44-4.597-.9-8.335-1.779-15.43 2.219-11.653 5.776-13.332 16.87-12.073 20.867-2.498 0-9.174 9.334-5.836 13.332-4.158 0-9.155 7.096-8.755 13.312-4.158 1.779-8.735 7.115-7.915 11.993-4.997-1.32-12.913 5.336-15.83 8.454-5.837-4.457-19.17-.46-21.248 2.659-4.157-3.558-19.168-.44-19.988 2.658-5.836-3.997-14.171-3.538-20.427-.44-1.24-3.997-14.572-6.656-17.91-3.098-4.177-6.236-13.331-11.553-17.509-9.774-.4-3.558-8.315-10.673-13.332-11.113-3.738-4.877-10.414-11.993-16.25-11.093-7.495-9.335-19.988-5.777-21.647-4.897-1.26 1.339-3.758 3.997-6.256 4.897-5.417 1.759-11.253 6.216-13.752 14.211-2.498 7.536-5.416 18.21 0 27.523-3.338 5.777-2.918 25.765 2.079 29.762-4.577 5.777-1.659 17.33.42 23.546-4.997 4.437-4.997 22.207-2.499 25.764-5.836 3.998-5.416 17.33-2.498 24.426-5.837 5.776-5.417 18.668-1.26 24.425-4.577 6.236-5.416 23.106 1.68 27.983-1.68 11.993 5.416 26.664 11.652 31.101-1.239 8.875 7.516 25.764 18.35 25.764 2.078 8.435 19.148 22.207 30.4 15.551 8.756-5.776 7.916-9.334 11.254-14.671 1.26-1.779 2.918-3.538 4.577-5.317h-.82c-1.258.44-2.498-.46-2.498-1.779-.42-1.339 0-2.678 1.24-2.678 1.679-.88 3.338-.44 4.997.46 1.679-3.119 3.757-6.676 4.597-11.993 1.659-11.993-16.25-30.202-25.005-31.98-3.758-5.338-8.335-14.672-12.912-18.67 4.577-8.434.82-19.987.82-19.987.839-8.435 1.258-13.772-1.66-21.307 3.758-6.217 3.338-16.89 0-21.767 3.338-4.897 4.997-16.89 3.338-22.667 1.24-5.756 1.66-10.653-.42-17.309 4.158-4.897 0-15.55-1.659-19.548 2.899 4.437 8.315 14.211 19.988 14.651 9.994 8.895 12.913 6.676 21.247 7.555 2.499 5.777 18.75 6.217 22.927 2.659 2.498 3.997 16.25 7.555 20.407 1.339 2.079 1.34 14.591 4.897 18.749-.88 3.338 1.32 15.41 2.22 19.168-4.897 4.158 1.34 14.571 0 19.588-4.877 2.499 3.099 16.65-7.555 16.65-12.432 2.099 3.538 11.673-9.774 13.332-15.55 0 0-2.918 12.432 0 13.771-2.079 1.32-1.24 17.77 2.918 19.988-2.918 3.098-.42 19.088 3.338 20.428-2.498 3.098-2.918 19.987 2.499 24.864-2.499 6.676-1.66 17.33 1.659 19.109-1.66 3.098-.82 17.33 4.597 17.33-3.758 2.218 0 15.99 4.158 15.09 0 0-1.66 2.659-1.24 5.777.42 3.558 2.08 7.555 4.578 9.334-2.08.88-2.919 11.093.42 12.872-2.5-.44-5.417 10.214-4.998 13.772-2.098 1.34-4.177 5.776-2.498 11.113-5.017-.46-11.253 9.315-10.014 14.651h-.42c-3.318-.44-11.653 3.998-14.99 7.096-7.916-5.317-10.414-2.219-24.586-6.216-14.151-3.998-26.244-23.986-54.167-2.659-23.746 17.77-17.07 43.094-12.492 53.308-2.08 3.098-5.417 13.312-5.417 28.863 0 13.332 12.492 30.201 17.09 36.877 5.416 7.096 8.754 11.533 8.754 16.87 0 4.437 8.735 4.877 8.735 0 0-6.216 1.679-8.875 8.335-19.108 7.076-10.214 12.912-25.305 12.492-40.856 0-8.435-4.997-10.213-2.498-16.87 3.757-9.334 1.259-12.892-.4-18.668 4.157-1.32 19.988 10.673 29.982 13.772 10.414 2.658 26.664 3.557 30.421-2.22 3.338 1.34 24.166-14.21 22.087-22.645 6.656 2.218 19.988-11.553 16.25-21.767 6.236.88 16.25-17.77 15.41-27.983 2.92.44 6.657-17.33 3.759-22.207z" fill="#faded4" fill-rule="evenodd"/><path d="M121.806 235.677c2.918 3.098 4.577 9.315 6.656 13.292 2.499 4.437 3.738 8.875 2.079 13.752 4.157 0 10.793 12.412 13.712 15.95-.84-3.977.82-8.855-.42-12.852-1.66-4.437-5.817-9.314-8.315-13.292-2.079-3.558-4.557-7.535-6.216-11.533-1.68-5.317 0-11.533-1.68-15.97z" fill="#f7c2b0" fill-rule="evenodd"/><path d="M125.924 163.72c4.577 3.998 0 9.775-.84 14.212-1.26 7.116-.84 7.116-7.515 9.335 5.436 1.778 6.256 4.877 6.256 11.093 0 4.457-.82 11.553-5.837 12.892 8.335-3.998 2.919 8.455 2.919 10.673-.42 6.217 4.177 8.435-1.24 15.091 3.338-1.319 5.837-.88 9.175-.88-2.519-7.994-4.178-15.55-3.338-23.985 1.24-8.454 8.755-43.553 9.574-52.448z" fill="#f7c2b0" fill-rule="evenodd"/><path d="M119.248 75.274c1.259 4.897 4.617 4.458 7.535 6.676 2.099 1.32 4.617 4.438 6.276 6.197 5.857 6.216 5.857 15.99 5.037 24.425-1.259 9.754-2.938 18.189-2.518 27.963.42 9.774-.42 19.088-3.758 28.842-.42-4.877-8.375-6.196-12.153-6.196 5.877-2.219 7.536-1.779 9.215-7.116.84-3.098.84-14.65.42-17.749-.84-3.997-2.1-3.118-5.857-1.779 9.614-4.437 8.375-29.742-2.518-21.747 2.938-4.437 9.214-4.877 11.293-10.213.84-1.78.84-6.217 0-7.996-1.66-3.098-2.918-1.758-5.857-2.218 4.618-6.216-4.597-7.975-3.757-14.192z" fill="#f7c2b0" fill-rule="evenodd"/><path d="M150.589 107.215c-7.116-1.779-7.536 12.892-7.536 17.77.42 3.997.84 6.675-.42 10.673-1.259 3.558-2.518 6.676-3.777 10.214-2.099-9.774-1.68-19.988-1.26-29.762.42-4.897 1.68-9.335 2.1-13.792.42-3.098-1.26-6.216 0-8.895zm199.879 194.542c-4.178 1.34-8.335 2.659-12.513 4.437-4.577 2.22-8.755 1.78-13.751 2.659-3.758.44-7.496.44-11.254.44-3.757 0-4.997-1.76-7.095-4.877 2.918 3.557 14.191 1.339 17.11-2.22 3.737 6.657 14.99.9 17.489-3.997 4.177 2.679 5.436-2.658 8.355-4.437 2.498-1.779 8.754-3.538 7.495-7.535 6.256 1.778 9.175-9.335 6.256-13.772 6.676-3.538 7.915-8.875 7.076-16.85 4.177-1.779 5.836-14.211 2.099-16.87 2.918-4.437 0-10.214.4-15.09l4.597-.46 1.239 33.74-6.656 19.088-4.997 10.653z" fill="#f7c2b0" fill-rule="evenodd"/><path d="M333.838 91.704c3.338-2.218 11.213-8.894 15.37-3.997 3.338 3.538 2.499 12.872-1.659 15.09 4.158 1.78 4.158 7.116 4.578 11.114.42 3.998 1.659 8.435-1.66 11.113 2.899-.46 4.558 18.21 2.08 20.868 3.317-.88 4.137 9.334 4.137 11.992 0 3.998-.4 7.995-2.079 11.553 4.997 1.78 4.577 15.99 2.499 19.548 1.239-3.557 4.977 5.777 5.396 7.116.84 3.098 1.66 7.536-.42 10.654 4.578-1.78 9.155 11.553 6.657 15.11 5.396 4.438 7.055 10.654 5.396 17.31 6.636-2.658 2.499-13.312 2.079-19.088-.42-9.335-3.738-19.109-6.236-27.983-5.817-21.767-9.135-43.534-10.794-66.2-.84-9.774-2.078-20.888-.42-30.662.42-4.877.42-9.314 1.26-14.211.82-4.437 2.898-8.435 3.318-12.872.42-5.337.42-11.553-.42-16.45-.42-2.659-1.24-9.315-4.157-9.774 2.918 8.454-3.738 14.67-6.636 20.887-2.499 4.897-5.397 17.33-11.633 17.77 0 1.778-1.66 4.436-2.499 6.215z" fill="#f7c2b0" fill-rule="evenodd"/><path d="M188.886 288.965c-1.26 0-1.68 1.32-1.26 2.638 0 1.32 1.26 2.199 2.519 1.76.82 0 1.659.439 3.338 2.218 2.918 2.199 6.656 5.716 12.512 3.518 4.997-1.76 8.335-3.078 10.014-4.398 0 0 2.918-1.779 3.338-2.658.4-1.32.4-2.638-.84-3.078-1.678-.88-2.918 0-4.597.88-1.659 1.319-4.577 3.077-9.174 4.856-3.758.88-5.837-.9-8.335-3.098-2.099-1.759-4.597-3.977-7.515-2.638z" fill="#faded4" fill-rule="evenodd"/><path d="M190.165 293.342c-1.26.46-2.519-.44-2.519-1.779-.4-1.319 0-2.658 1.26-2.658 0 0-7.096 2.219-13.352 0-6.257-2.219-19.189-13.772-22.107-16.87-2.918-3.118-8.335-13.332-11.673-15.09-3.758-1.34-9.174-15.551-8.355-19.549.42-3.558-.82-11.993-2.498-14.651-1.24-3.098-2.08-13.772-.42-15.99 1.679-2.659 1.679-8.875 1.26-11.094 0-2.658 1.658-11.553 2.498-13.332.84-1.758 2.078-2.658 2.078-5.756 0-3.558-.82-12.432 2.519-15.99 2.918-3.998 1.24-6.656.82-10.214-.82-3.558 0-7.116 1.678-12.433 1.66-4.897-2.498-10.653-.84-16.43 1.26-6.216 1.26-13.771.84-18.648-.42-3.118-.84-8.435-1.259-11.553-2.498-.44-4.997-1.78-7.495-3.558l2.498 6.216c.84 4.457.84 10.214.84 15.55 0 3.558-1.26 7.556-1.26 10.214-.42 3.558 0 7.556 0 11.553-.42 3.099-.42 5.757-.42 7.096 0 1.34-1.259 6.216-1.658 11.093-.42 6.676.4 13.772-.42 16.89-.42 1.78-2.918 6.656-3.338 11.093-.84 3.558.42 7.096-.42 10.654-.42 3.998-1.26 7.555-1.26 9.774-.419 2.658-1.238 8.435-1.658 13.772-.42 5.756-2.099 10.653-1.68 13.312.42 1.779 2.1 4.437 2.1 6.216.82 5.337 1.659 11.113 4.157 15.55 3.338 5.757 5.017 11.973 7.935 14.212 1.66.88 3.338 6.656 6.676 11.533 2.079 2.658 4.578 3.558 6.676 6.656 2.079 2.678 4.158 4.897 5.837 6.676 7.515 7.535 23.366 11.973 29.202 10.214 3.338-.46 4.158-1.78 4.158-2.679h-.4zm64.521-11.952c10.413-2.22 19.168 1.778 25.824 6.216 6.676 4.877 11.673 7.995 17.91 9.774 6.255 2.218 7.095 7.535 14.59 9.314 25.805 2.678 32.9-5.776 37.478-10.653 4.997-4.438 8.734-3.558 12.492-8.875 3.338-5.337 4.157-9.334 7.076-14.211 2.918-5.337 3.338-15.111 4.997-21.327 1.679-6.217-.42-15.97-.82-21.308-.42-5.776-1.259-13.332-2.498-18.648-1.68-5.337-4.598-10.214-6.257-15.99-1.659-5.777-3.337-14.212-4.996-19.549-1.26-5.317.42-14.65-.42-19.968-.84-5.336-2.918-15.99-2.918-21.766 0-5.777-2.919-15.551-2.499-19.549.42-3.997-.82-11.972 0-17.749.42-5.776 2.079-10.673 2.499-13.772 0-3.118 1.259-14.21 1.679-18.208.4-4.438 2.498-16.87.819-21.767v-2.659c2.918-1.779 2.499-12.872 1.679-15.09.82-.46-.84.879 0 0 0 0 2.498 9.314 2.498 11.992-.42 2.219.4 11.093.4 15.091-.4 3.558.42 11.553-.4 13.772-.839 2.218-.42 10.214-.839 12.872-.42 3.118-.84 4.877-.84 5.776 0 .88.84 4.877 0 8.875-.42 3.998-2.918 9.334-2.918 11.553 0 2.219 1.26 6.656 1.26 8.875 0 2.218 1.659 6.216 1.659 8.435 0 2.218 1.259 7.995 1.259 11.113 0 3.997.42 8.874.42 12.872 0 3.558 1.239 8.435 1.659 11.993.42 3.558 1.259 7.555 1.658 10.653.42 2.659 0 4.897.84 9.774.84 4.438 2.079 7.096 2.498 8.875.42 2.219 2.499 3.118 3.758 7.555.82 4.877-.42 6.217.4 8.875.84 2.678 2.498 5.777 3.338 9.334.84 3.558 2.498 14.212 2.498 17.31.42 3.118 1.66 7.995 1.26 11.553 0 3.997-.42 11.993-1.68 17.77-1.239 5.776-4.996 11.532-6.655 15.09-1.66 3.558-4.578 12.432-8.335 15.55-3.738 2.659-9.994 4.438-12.493 8.435-4.997 6.217-12.912 6.217-17.49 8.875-4.157 2.219-10.833 2.219-18.328 2.219-7.495 0-11.233.44-14.571-4.877-3.338-4.897-7.915-1.34-11.673-5.777-3.738-4.437-8.735-5.776-14.571-11.093-5.837-4.897-15.83-7.556-21.247-7.556zM348.389 8.635c-.42 4.437-6.236 9.754-6.236 15.09-.42 5.337-1.66 7.996-3.338 11.554-1.24 3.997-.82 7.975-2.919 13.312-1.659 4.877-2.078 9.774-4.997 12.432-3.318 2.658-4.577 5.337-6.656 8.435-1.659 3.558-3.337 11.113-5.416 14.211-2.499 2.659-4.577 5.777-4.577 5.777-7.496.44-13.312 7.095-15.411 10.214-3.738-.9-12.073 2.658-14.991 6.656-3.738-1.78-14.571-1.78-19.148 2.218-3.318-2.218-13.312-.88-18.73.88-2.498-.88-12.492-3.098-18.748-1.76-3.737-1.778-15.39-1.338-17.07-2.218-1.658-.9-5.816-4.457-9.574-5.337-4.157-.88-8.734-1.779-11.653-5.336-3.337-3.998-12.072-17.75-17.909-18.65-2.078-3.097-6.656-6.655-13.731-9.753-2.08-3.118-9.994-10.674-15.411-12.892-1.659-2.659-5.417-6.656-12.073-7.536l-1.679-1.779c.84 0 1.68-.44 2.499-.9 1.679-.879 3.758-2.218 4.997-3.537 4.177 1.779 14.171 9.754 15.83 10.653 2.079.88 7.076 4.878 8.335 6.217 1.24 1.779 6.236 3.997 8.735 5.316 2.498 1.34 5.836 5.337 7.076 6.676.84 1.32 7.915 12.433 10.413 13.752 2.918 1.34 7.076 5.337 8.755 7.116 1.659 1.319 9.154 1.319 12.892 2.658 3.338 1.34 8.335 7.116 12.493 7.116 4.177 0 7.495 0 11.673-.46 4.157 0 9.973 3.558 13.311 2.679 2.919-.46 3.338-.9 8.335-2.22 4.578-1.338 9.155-.459 15.81-1.338 6.257-.9 10.834-.44 14.992-2.659 4.577-2.218 10.833-.46 13.332-3.558 2.498-3.118 8.734-7.555 13.731-10.653.84-3.118 6.676-9.334 7.076-9.774 4.597-4.437 4.597-7.096 6.676-10.214 2.079-3.558 5.417-10.654 7.076-15.99 2.078-5.317 2.078-15.53 4.997-19.089 2.078-2.658 3.737-6.216 4.157-10.653 2.079-2.659 2.918-2.659 4.158-6.656 1.679-4.438 4.597-6.676 4.997-4.438-.82.44-2.08 3.099-2.08 4.438z" fill="#fdefe9" fill-rule="evenodd"/><path d="M246.37 93.903c4.178-.44 8.336-3.098 12.493-3.978 3.738-.46 7.076 0 10.814-.899 3.737-.88 6.656-3.098 10.813-3.098 3.338-.44 6.656.44 9.574-1.34 2.918-1.778 5.817-3.537 8.735-5.316 3.318-1.779 4.157-3.118 7.895-3.118 3.758-.44 7.076-3.098 9.155-6.216 1.259-2.219 4.157-8.435 3.757-10.654-1.679.46-2.078 2.219-3.757 3.118-1.66.88-2.499.88-3.738 2.219-2.499 1.779-1.66 5.317-3.318 7.995-1.68 2.658-4.997 2.219-7.496 2.219-3.737 0-7.075 1.759-9.574 4.437-2.918 2.658-5.397 3.998-9.574 3.998-4.157 0-7.895-1.78-11.633 1.319-.84.9-1.679 2.658-2.498 3.118-1.26.88-3.758.44-5.417.44-5.397 0-9.974 1.319-14.551 4.437z" fill="#fdf8f5" fill-rule="evenodd"/><path d="M317.168 65.92c4.977-7.975 9.974-15.97 12.872-24.845 2.079-5.776 2.498-11.993 5.397-17.33 1.239-3.098 2.498-5.776 3.737-8.874.42-1.779 4.977-6.656 3.738-8.435-2.898-3.118-15.37 6.216-14.95 9.774 2.078.44 4.576-2.218 5.816 1.76.84 1.778 0 4.896-.82 6.675-.42 3.098-2.079 3.998-4.157 5.317-3.738 2.218-2.499 2.218-.84 5.776 1.26 1.78 1.66 3.558.42 5.777-1.659 2.658-3.318 1.319-5.397 3.538-1.659 1.779-.42 3.558-.84 6.216-.399 4.897-4.556 8.895-5.816 14.211zm-80.471 13.772c-2.479-.9-5.397-.44-7.876.44-2.498.899-7.075 7.115-3.737 9.774 2.078-1.32 2.478-4.878 4.557-6.656 1.659-1.78 4.577-3.558 6.656-3.558zm21.347-2.199c-6.656-2.698-14.152 5.357-8.315 11.613-1.66-4.457 3.338-11.613 7.915-11.613zm18.309-4.058c-2.499.46-8.735.46-9.575 4.038-.42 1.779.84 4.018 1.26 5.797 0 1.798-.42 3.577 0 5.356 1.239-.44 3.737-3.118 5.416-4.017-5.836 0-3.338-11.174.82-10.274zm-74.995 7.995c2.099-5.716 9.994-6.156 14.151-3.957-4.977-1.32-8.315.88-12.472 3.078zM181.37 70.437c3.738-.9 6.236-3.158 10.394-2.258 2.898.46 5.397 1.799 6.636 4.937-4.977-2.679-9.534-3.138-15.35-3.138zm1.68 42.974c.419-4.417 3.737-9.734 8.314-10.613 3.318-.9 7.875 2.218 11.193 3.977 0 .88-.82 0-.82.88-2.498-.88-4.157-1.76-7.055-1.76-2.498-.439-6.636 1.32-8.295 3.099zm21.666 6.716c-1.68-3.977 0-11.053 4.157-11.933 2.899-.46 11.214.44 12.873 3.538-3.738.44-6.636-1.339-10.394-.44-2.079.44-6.236 2.2-6.636 4.858zm22.446 3.598c0-4.897-1.659-9.814 3.318-12.033 2.919-1.799 10.374-1.799 12.853.88-4.957.9-15.331 0-14.911 8.934zm22.527-.48c0-3.558-.84-8.455 1.679-10.673 2.918-2.679 8.335-1.34 10.833.44-2.498.46-13.352-2.22-12.512 8.454zm19.128-3.997c-3.338-9.275 5.837-14.152 12.892-9.275-3.737.44-14.97.44-12.892 7.076zM162.581 99.26c.42-4.417 3.338-13.732 7.076-15.95 6.236-3.558 11.633 8.414 13.712 12.412-2.898-2.658-7.895-9.314-12.053-8.415-2.498.44-4.977 3.098-6.236 5.757zm-17.409-11.993c-.42-6.216 5.397-14.671 11.193-16.45 3.318-.9 6.636 1.779 8.695 6.676-6.216-6.676-15.73-.9-18.649 4.897zM130.6 75.274c.84-12.412 7.057-18.169 13.293-16.41 6.636 1.78 8.695 6.656 8.695 6.656-3.718-2.218-14.512-8.874-21.987 9.754zm-12.472-13.831c.84-4.418 2.899-9.295 6.217-11.953 4.537-3.558 7.435-1.34 10.733 1.779-4.957-1.779-9.094.88-13.212 4.417zm135.758 223.544c-9.994 4.458-33.34 24.425-19.988 55.487-2.498-12.413.42-40.836 19.988-55.487zm-20.947 64.281c-3.758 10.674-3.758 23.566 0 33.34 3.758 9.774 20.447 25.325 21.267 39.976-.82-16.87-11.673-30.642-17.09-41.315-5.416-10.654-5.836-23.106-4.177-32zm114.491-70.597c-4.458 1.799-5.277 4.917-5.277 8.475zm-8.615-148.29c1.639-3.518 4.537-4.837 7.015-5.297-5.776.46-9.514 0-9.514 5.297s0 9.254 2.079 11.013c-.42-1.759-.82-7.475.42-11.013zm-2.999-19.988c1.68-3.518 4.618-4.837 7.136-5.297-5.876.46-9.674 0-9.674 5.297s0 9.254 2.119 11.013c-.42-1.759-.84-7.475.42-11.013zm5.897 42.674c1.679-3.538 4.577-4.857 7.076-5.297-5.817.44-8.735-1.339-9.575 5.297-.42 5.297 0 9.275 2.08 11.034-.4-1.76-.82-7.496.419-11.034zm3.297 23.946c1.26-3.538 4.618-4.857 7.137-5.317-5.877.46-9.675 0-9.675 5.317 0 5.316 0 9.314 2.12 11.073-.84-1.759-.84-7.515.419-11.073zm5.777 15.071c-1.219 0-4.937 0-6.176.899-1.659 2.239 1.66 8.915 2.479 10.694-.42-1.78-1.24-4.458-1.24-6.676.42-2.679 2.06-3.119 4.118-4.018zm10.474 16.47c-3.758.9-5.836 0-9.614.9-5.017.879-1.24 7.115-.4 10.213-2.938-6.216 1.66-8.875 6.676-9.774zm1.279 15.53c-1.679 0-6.696-.9-8.355.44-2.518 1.759 0 7.935 2.08 8.815-1.24-1.32-1.66-4.837-.42-6.616 1.259-1.32 5.436-2.639 7.095-2.639zm4.877 16.89c-2.898.44-5.816-.9-8.714-1.34-2.08-.459-2.08-.459-2.919 1.78-.42 1.779-.84 5.796.42 7.115 0-2.218 0-5.336 1.66-6.676 2.078-.879 7.894 0 9.553 0zm-.799 16.47c-1.66-.44-3.738-.88-5.397-1.779-1.26-.44-2.918-1.759-4.157-2.199-3.338-.46-4.598 8.415-4.178 11.054.84-2.199.84-6.197 2.918-7.955 2.08-.9 5.837 0 7.496.44zm26.304-11.154c-2.499-.459-5.857-2.238-7.955.44-2.519 3.558-.84 8.435-1.68 12.433.42-6.216 2.939-13.772 9.635-12.872zm-2.159-22.166c-2.059.44-4.957-.46-6.616 1.32-2.498 3.117-.42 7.995.42 11.093-.42-2.219-.84-7.096.4-9.315 1.239-1.779 3.737-2.218 5.796-3.098zm-10.413-8.054c.42-3.1-2.939-7.117-1.26-10.235 2.099-3.118 8.375-1.779 10.874-.88-2.08.88-4.598 0-7.096.88-2.938.9-2.099 2.679-2.519 5.357zm-4.138-18.71c-.42-1.759-.42-3.098-1.26-4.877-.419-.88-1.698-2.658-1.698-3.558.86-2.658 7.195-3.557 8.874-2.658-1.679.44-3.797 0-5.057 1.779-.859 1.32-1.699 4.877-1.279 6.216zm-6.656-19.987c.42-2.639-1.26-5.757 0-7.956 1.24-2.658 4.977-3.558 7.056-3.098-3.738.88-7.056 4.418-7.056 8.855zm4.577-34.62c-3.737 1.34-8.315 0-8.315 5.357 0 4.458 2.919 8.015 2.499 12.473-.42-1.78 0-3.558 0-5.777.42-1.799 0-3.138-.42-4.917-.4-3.558 1.679-5.796 4.577-6.676zm-3.678-18.568c-2.478 0-4.137-.46-4.976 1.759-1.66 3.538.839 7.075.839 10.174 0-2.639-.42-4.418.82-7.516 1.259-2.658 1.259-3.098 3.317-4.417zm-.799-16.99c-1.679 0-3.378-1.779-5.477-.88-3.398 1.78-1.699 8.435-.44 11.094-.839-5.757.44-9.754 5.917-10.214zm-5.136-19.828c2.498 3.518-.42 8.815-1.26 11.893 1.679-2.199 3.338-4.397 3.758-7.496 0-2.198-.84-4.397 2.078-4.397-.82-.9-2.498-.9-3.737-.9zm7.934-16.93c-2.458 0-4.517-1.799-6.176.88-1.659 2.678.42 6.676-1.24 9.794 1.24-2.659 1.66-4.437 2.48-7.116.819-3.118 2.058-2.678 4.537-3.118zm.48-18.668c-1.659 0-3.738 0-4.997 1.759-.84 1.758 0 5.716.42 7.915 0-2.639.84-8.355 4.177-8.795zm-230.34 109.693c4.197 1.76 10.493-.88 13.831 4.397-2.918-2.198-7.535-2.638-10.893-2.638zm11.353 23.166c-4.178-1.32-10.054-2.219-14.252-.44-4.197 1.76-4.617 9.295-1.679 12.373-1.259-7.955 2.1-11.933 10.074-11.933zm-3.358 20.308c-5.397 0-10.794-2.219-15.79 2.218-4.998 4.897 1.239 13.312 3.317 18.19-4.157-10.194-2.898-18.63 8.315-20.408zm.32 23.186c-5.397-.46-14.152 4.417-13.312 10.613.42 3.538 2.918 8.855 4.997 11.513 2.078 2.659 4.577 3.538 4.997 7.076-.84-6.196-5.837-10.614-6.237-16.81-.84-5.756 3.738-8.854 8.315-11.513zm8.315 34.558c1.259-5.736 7.535-12.811 12.952-13.69 5.436-.46 15.47 7.075 16.71 12.372-2.919-3.538-8.355-7.076-12.933-8.835-4.177-2.219-5.436.88-9.194 2.199zm-6.157-121.186c-2.918-.44-6.276-.9-8.375 2.199-2.098 2.658-1.259 7.096.84 10.174-1.26-5.297 0-5.297 2.518-8.835 2.099-3.098 1.26-3.098 5.017-3.977zm2.479-17.729c-2.918.44-5.417-1.32-7.915 0-3.358 1.759-2.939 7.016-1.68 9.634 1.26-5.257 2.499-6.996 7.096-9.194zm-29.103-9.874c-2.898 1.799-5.816 1.34-7.055 5.357-1.26 4.477-.42 9.834 1.239 13.831 1.26-3.118-.42-8.015.42-11.593 1.239-3.577 2.498-4.917 5.396-7.135zm1.679 22.706c-3.757 1.8-6.676 2.239-8.774 6.236-1.26 3.119-3.778 13.372-1.26 15.591.42-6.676 2.519-19.148 9.635-20.927zm-.879 30.162c-2.479-.9-8.295-.9-10.774 1.779-2.498 2.658-2.498 12.452-.42 15.55.42-4.877-.819-8.874 2.08-12.892 1.239-2.218 4.137-4.437 7.055-3.997zm-4.158 24.865c-3.318-.9-5.796-.9-8.295 2.239-2.498 3.138-2.498 8.954-.42 12.532-.819-5.817 1.26-13.872 7.056-14.771zm-2.478 22.206c-3.358.46-5.457 0-7.136 3.558-2.099 4.458-2.538 10.234-.42 14.671.84-2.658 0-6.216.84-9.334 1.26-4.437 2.518-7.555 5.876-7.555zm2.538 24.865c-10.054 4.458-4.197 17.77.82 23.986-2.079-4.438-7.516-20.428-.82-23.526zm9.915 26.625c-4.938 5.336-4.938 15.55 1.219 19.987-3.278-3.538-3.678-12.432-1.64-16.87zm36.717-208.195c2.499-.9 7.056-1.359 9.115 1.36zm183.169-20.527c-2.079-1.32-6.236-1.78-8.335-.88-1.24.88-2.498 2.219-2.918 3.538-.42 1.34-.42 4.877 0 6.196 1.26-1.758 1.26-4.417 2.099-5.756 1.659-2.219 4.157-3.538 6.236-3.538zm1.199-15.511c-2.058-1.779-5.376-1.319-7.015 0-2.499 2.199-1.66 5.737-2.499 8.375 1.66-3.957 4.977-9.254 9.514-8.815zm-10.313 32.061c-2.08-2.659-4.997-2.659-6.237.44-.84 1.319-.84 3.078-1.259 4.417-.82 1.319-1.659 2.199-2.498 3.518 1.259 0 2.498.88 3.338 1.759-1.66-3.518 1.659-9.694 4.157-11.453zm-11.693 14.571c-1.66-1.799-3.738.9-4.558 1.779-2.078 2.239-2.078 4.917-2.498 7.595-.42 2.239-.82 4.018-2.079 5.817-.82 1.339-2.898 2.218-3.318 3.558 1.66-.44 2.918-2.22 4.977-2.679 1.66-.44 1.66.9 3.318 1.34-3.318-4.018-2.478-13.832 3.738-12.493-.82-1.34 0-4.018 1.24-4.917zM303.856 99.26c.84-.44.84-1.32 1.26-2.219 1.238-1.779 3.317-2.678 4.976-3.118 2.079-.9 7.895-3.138 8.715.44-3.738-1.34-8.295.44-10.794 3.578z" fill="#fdf8f5" fill-rule="evenodd"/><path d="M277.532 332.099c2.498 4.457 1.259 7.555 0 12.892-1.24 5.776-2.079 6.656-.4 11.093.4 1.78 2.079 4.897 2.079 10.214.42 7.555-1.68 19.108-6.256 27.983-8.335 15.55-13.332 18.669-14.592 27.983 1.26-9.314 1.26-14.651 5.017-22.646 3.738-7.556 13.332-21.327 9.994-37.318-3.757-17.749.42-20.867-1.259-23.985-1.24-2.658 5.017-7.995 5.417-6.216zm-5.337-3.678c8.335-5.317 8.755-3.538 16.65.46 7.495 3.997 15.83 11.093 28.723 12.432 12.912 1.32 18.328.88 19.568-3.118 1.659-3.558 0-7.096 0-7.096 0 3.538-2.499 7.995-12.493 7.096-9.974-.88-16.23-3.098-26.624-8.875-10.833-6.216-18.329-10.673-25.824-.899zm69.058.939c.42 3.099-1.26 8.395 2.918 6.197 2.499-.9 5.817-3.998 7.916-6.197 4.577-4.877 7.895-9.294 4.997-16.39-.42 4.438-.84 7.536-4.178 10.634-3.318 3.538-6.656 3.098-10.813 5.317zm19.209-19.588c1.259 2.219 1.259 4.877 4.177 4.438 2.498 0 4.157-2.659 5.816-4.438 1.66-2.658 8.315-11.073 3.738-13.751 1.68 5.776-4.977 12.872-10.393 12.872zm14.99-20.367c4.158 6.216 8.295-.9 10.374-4.458 2.479-4.437 2.898-8.894 4.138-13.791-2.479 4.457-8.295 20.467-15.351 18.249zm19.928-36.398c.42 3.577-1.679 17.35-7.975 12.472 3.778-.9 4.617-3.118 6.296-6.236zm-4.137-42.295c.42 1.8 1.679 5.797.84 7.576-1.26 1.779-3.359 1.779-5.477 1.779 2.958-.88 3.797-4.438 3.797-7.116zm-9.235-40.855c1.24 2.678 1.24 6.236 1.24 8.915 0 4.437-.4 3.118-4.158 3.997 3.758-1.339 2.499-5.776 3.758-8.894zm4.278 20.548c.42 2.198 1.679 5.276.84 7.475-1.28 1.32-2.54.88-4.678 1.32 2.978-1.32 3.838-3.958 3.838-7.036zm-8.356-43.654c.4 3.578 4.518 17.35-3.317 15.13 3.318-2.218 2.079-7.115 2.898-10.673zm-.039-19.028c.4 3.557 0 12.392-5.437 11.952 3.758-1.759 4.597-7.075 5.017-10.613zm-2.439-15.991c.42 1.8 2.519 9.355-.839 8.915 1.26-2.678.84-6.236.84-8.915zm-1.639-78.592c2.799 5.297 1.2 10.154 0 12.792zm-.08 59.964c1.68 6.236.84 8.914-1.279 9.354zm-68.758 12.352c1.26 3.558.42 7.116 1.68 10.674 5.396-1.78 10.793-7.996 9.973-14.232-.42 2.679-3.738 11.133-7.076 8.455zm18.309-10.653v6.616c3.758-.44 7.516-8.815 7.116-12.793-.84 2.659-2.099 7.516-5.437 5.297zm-35.678 18.288c.42 3.119.42 5.797-1.26 8.475 2.519.88 9.175-1.339 11.673-2.678 4.158-2.678 2.919-5.357 2.499-10.274.42 4.018-2.079 9.374-6.256 9.834zm-18.769 8.375c0 6.217 2.099 6.656 7.496 4.438 4.177-1.76 6.655-5.757 5.836-10.654.82 5.337-2.918 7.995-7.495 7.556zm-18.369 2.719c-.42 5.816.84 6.256 6.636 5.376 5.817-1.359 5.817-4.037 5.817-10.313.4 5.836-2.08 9.854-7.476 8.075zm-22.406 2.638c.42 4.457 8.335 4.897 11.253 3.578 4.577-2.239 4.177-7.156 3.758-12.512-.84 5.356-2.499 9.834-8.335 9.834zm-21.347-.839c8.335 1.799 18.309 4.457 14.57-9.375.84 8.495-6.235 6.696-11.232 9.834zm-21.187-7.656c3.318 1.78 5.396 5.797 9.534 5.357 4.137-.44 4.137-5.796 4.137-10.274-2.478 8.495-4.957 7.596-10.753 5.817zm-20.468-14.131c2.518 2.658 5.836 9.774 9.594 10.653 5.417.88 2.079-8.874 7.915-11.113-2.918.9-4.997 4.457-7.495 5.337-4.178 1.34-5.837-3.558-10.014-3.998zm-18.629-11.533c1.68 2.678 5.857 9.794 10.014 7.575 3.338-1.779.42-9.354 3.338-12.492-2.918 2.678-3.338 4.917-4.577 8.475-2.499 0-5.017-.44-7.096-1.78zM132.28 83.33c2.079 2.658 4.557 3.977 7.455 4.417 0-3.978-.42-7.076 2.06-10.634-2.88 2.219-4.538 9.315-9.095 5.317z" fill="#f7c2b0" fill-rule="evenodd"/><path d="M140.535 92.644c1.24 5.317 2.498 10.194 6.256 14.191 2.079 2.659 9.154 8.435 4.577 11.973 2.918-1.759 6.676-.44 10.014.44.4-3.978-1.679-9.315-1.679-13.292-6.676 3.977-21.267-7.096-17.51-14.212zm19.648 32.44c1.26 2.679 2.079 7.995.42 10.654-2.08 3.977-5.837.88-10.014 0 5.436 1.779 8.355-3.098 9.174-7.975zm1.259 19.029c0 2.678 0 11.992-2.518 13.771-2.519 2.219-8.395-1.779-12.173-.88 3.358-1.778 7.555-.899 10.494-2.218 3.358-1.779 3.358-6.676 5.017-9.774zm-2.179 25.264c.4 3.578 1.64 10.254-2.498 11.593-3.298.88-7.855-3.118-12.013-1.779 5.397-3.577 14.511.88 14.511-8.914zm-.379 19.668c.42 2.24 2.898 12.033 0 13.352-.42 0-4.578-2.218-5.417-2.218-1.659-.44-4.557-.44-6.236-.44 2.079 0 6.236-.44 8.315-1.34 2.918-1.778 2.078-4.457 3.338-7.555zm.779 20.308c0 4.038 1.24 12.093-2.878 13.432-1.24.46-4.977 0-6.616.46-2.079.44-4.138.9-6.216 1.779 3.318-1.34 7.455-4.018 10.353-5.357 3.718-2.239 4.118-4.937 5.357-9.854zm2.499 22.247c.84 3.118 7.055 8.035 7.055 11.153-.4 3.578-8.295 7.595-10.793 10.254 3.338-2.659 4.997-7.576 4.997-11.593 0-4.018-2.918-7.136-2.499-10.714zm5.376 47.65c3.758 7.096 13.372 7.096 19.629 6.657 4.597-.44 7.935-2.219 8.355-7.995.4-3.558-1.26-9.315-3.758-11.553 1.239 4.457 2.918 11.553-1.26 14.231-5.416 3.538-12.512 4.877-22.546-.9zm-18.308 22.127c4.177 5.777 12.952 10.234 19.628 9.794 5.017-.44 14.191-7.135 13.372-12.932-5.017 4.018-15.031-1.779-19.629-4.457 2.499 2.239 5.837 5.796 2.499 8.915-2.079 2.238-7.935 1.798-10.014-.44zm-1.64-21.307c-3.757 2.679-5.436 7.995-5.836 12.433-1.679-4.877-.42-7.536 0-12.433.4-3.977-2.518-7.975-2.099-12.432 2.499 4.457 6.676 9.774 11.254 11.993z" fill="#f7c2b0" fill-rule="evenodd"/><path d="M140.915 158.764c7.095-.9 15.03.9 19.188 5.337m-20.867 16.909c5.456-.44 16.37.88 20.547 4.358m-22.546 16.989c7.915-1.319 17.909-.44 24.145 4.358m-.48 20.068c-6.236-1.32-15.83-1.76-21.666 3.038m34.139 15.51c-8.295 2.679-17.01 13.832-17.43 17.83" fill="none" stroke="#1a171b" stroke-width=".8" stroke-linecap="round" stroke-linejoin="round"/><path d="M188.925 289.005c-1.259 0-1.678 1.32-1.259 2.638 0 1.32 1.26 2.199 2.519 1.76.82 0 1.659.439 3.338 2.218 2.918 2.199 6.656 5.716 12.512 3.518 4.997-1.76 8.335-3.078 10.014-4.398 0 0 2.918-1.779 3.338-2.658.4-1.32.4-2.638-.84-3.078-1.678-.88-2.918 0-4.597.88-1.659 1.319-4.577 3.077-9.174 4.856-3.758.88-5.837-.9-8.335-3.098-2.099-1.759-4.597-3.977-7.516-2.638" fill="none" stroke="#1a171b" stroke-width="1.199" stroke-linecap="round" stroke-linejoin="round"/><path d="M133.08 261.002c-3.319 3.098-6.217 5.756-6.637 11.033m19.988 12.473c-2.478 3.138-2.478 11.173-1.639 13.831m-30.022-57.325c1.68-3.558 8.335-4.897 9.994-5.357m-11.673-22.627c4.158-3.677 11.194-2.298 11.194-2.298m-9.995-22.146c3.778-1.38 10.474.46 10.474.46m-7.515-24.906c4.157-.919 12.432 0 13.672.92m-11.673-26.624c3.777-2.738 10.873-3.198 10.873-3.198m19.109 3.638c6.715-.44 13.831 2.198 13.831 2.198m-13.831-19.668c3.338 0 11.273 0 13.351 2.319m-43.653-8.955c4.137-3.517 9.494-3.078 10.314-3.078" fill="none" stroke="#1a171b" stroke-width=".8" stroke-linecap="round" stroke-linejoin="round"/><path d="M118.968 70.517c2.498 8.415 4.997 12.393 9.974 11.074.42 5.736 9.974 10.173 14.131 10.173 0 7.076 7.496 13.692 17.87 12.813" fill="none" stroke="#1a171b" stroke-width="1.199" stroke-linecap="round" stroke-linejoin="round"/><path d="M154.267 67.759c-6.636 5.776-12.873 14.231-11.194 23.985m27.504-12.952c-5.397 3.558-14.152 19.568-9.555 25.345m30.742-5.677c-5.777 5.317-11.993 5.317-10.734 20.308m23.686-11.513c-2.479 4.917-4.158 10.714-2.898 19.188m-62.023-70.677c-8.814 3.098-13.032 14.172-11.333 25.665m22.127-35.499c3.318-2.638 7.835-2.638 7.835-2.638m7.996 13.831c4.936-3.997 8.634-2.658 8.634-2.658m6.316 13.292c3.338-3.118 5.837-2.219 5.837-2.219m17.829 9.255c-3.678.46-4.917 3.098-6.157 6.636m24.146-3.998c-2.099 4.038-2.958 11.193-2.958 11.193m23.266-10.154c1.299 3.079 2.158 10.954 2.158 10.954m.439 22.706c.84 6.256 2.12 9.394-.439 18.309m-19.108-19.668c-1.68 4.917-1.68 15.19-1.26 18.309m38.757-52.928c1.999 4.417 2.798 9.274 2.798 9.274m-1.598 25.825c.859 7.095 1.279 15.51-.88 18.149m19.988-56.286c2.118 2.678 2.538 6.676 2.958 7.995m-2.958 30.621c2.158 7.116 1.739 8.435-.88 12.872m19.189-22.706c.84 4.897 1.679 14.232.42 18.23m-2.419-55.488c3.318 2.68 6.636 11.114 6.636 11.114m12.972 16.39c2.059 4.917.42 11.153-.42 15.59" fill="none" stroke="#1a171b" stroke-width=".8" stroke-linecap="round" stroke-linejoin="round"/><path d="M332.998 91.784c2.499-2.218 7.496-7.555 7.076-11.992 5.816.88 11.633-13.792 11.633-18.689 5.816-3.998 8.735-16.01 7.895-20.468 2.898-1.779 2.499-12.892 1.66-15.13" fill="none" stroke="#1a171b" stroke-width="1.199" stroke-linecap="round" stroke-linejoin="round"/><path d="M350.468 17.95c6.636.459 9.954 4.516 11.193 8.554m-17.03 6.636c5.437.9 12.952 2.658 15.031 7.515m-21.347 7.116c7.515.9 12.952 7.995 13.352 12.872m-17.829 5.277c3.298 3.138 6.156 7.595 6.156 14.711m-.32 2.159c4.977-.88 10.754-.44 11.993 0m-18.709 22.626c4.178-2.159 19.169-1.719 19.988-1.719m-17.509 21.387c3.338-1.359 17.05-.9 18.708-.9m-14.471 21.808c2.898.44 13.652 0 16.95-.92m3.838-40.935c3.737 0 12.872.88 15.35 2.638M362.14 84.149c4.978 0 12.433 2.638 13.672 5.277M366.618 66.8c4.197.46 10.473 3.677 10.473 3.677M366.298 50.49c4.157-1.84 9.114-.46 9.114-.46m-8.314-20.888c2.898-.96 7.835 0 7.835 0m3.357 110.573s-8.254 3.038-11.992 2.179m.32-19.568c4.217-.92 11.353.92 11.353.92m-36.298 47.111c3.758.86 12.512 0 15.43-1.3m11.673-3.677c4.598-.44 10.014-1.32 11.673-2.639m-37.177 27.124c4.197.86 14.691-1.3 17.19-2.179m13.351-2.318c4.558-.84 8.695-1.68 11.593-.84m-37.416 22.706c2.917.84 14.13-.42 14.95-.84m14.471-3.677c2.539-.42 9.255-2.159 11.353-.42m-36.617 19.968c2.918 0 13.332.44 15.83-.44m15.271.56c4.657 0 9.714-.56 10.553 0m-38.376 14.951c4.577 1.36 13.292 2.719 17.03 2.279m12.951 3.078c4.158 1.759 11.194 2.638 11.194 2.638m-41.175 5.037c3.338 2.199 11.233 5.677 14.55 5.257m12.153 8.415c4.158 1.819 8.315 4.957 10.794 3.618m-42.135-3.618c2.1 4.477 7.096 6.716 9.994 7.595m-4.957 35.499c2.1 3.997 4.618 6.656 5.437 10.633m9.514-28.462c3.318 2.258 6.636 6.316 6.636 6.316m-39.096 32.859c1.679 3.559 1.679 9.755.84 11.514" fill="none" stroke="#1a171b" stroke-width=".8" stroke-linecap="round" stroke-linejoin="round"/><path d="M269.757 334.677c3.337-3.957 4.597-5.716 9.993-6.156" fill="none" stroke="#1a171b" stroke-width="1.199" stroke-linecap="round" stroke-linejoin="round"/><path d="M115.97 84.149c2.518 5.776 7.115 7.555 11.273 7.995" fill="none" stroke="#1a171b" stroke-width=".8" stroke-linecap="round" stroke-linejoin="round"/><path d="M190.165 293.342c-1.26.46-2.519-.44-2.519-1.779-.4-1.319 0-2.658 1.26-2.658 0 0-7.096 2.219-13.352 0-6.257-2.219-19.189-13.772-22.107-16.87-2.918-3.118-8.335-13.332-11.673-15.09-3.758-1.34-9.174-15.551-8.355-19.549.42-3.558-.82-11.993-2.498-14.651-1.24-3.098-2.08-13.772-.42-15.99 1.679-2.659 1.679-8.875 1.26-11.094 0-2.658 1.658-11.553 2.498-13.332.84-1.758 2.078-2.658 2.078-5.756 0-3.558-.82-12.432 2.519-15.99 2.918-3.998 1.24-6.656.82-10.214-.82-3.558 0-7.116 1.678-12.433 1.66-4.897-2.498-10.653-.84-16.43 1.26-6.216 1.26-13.771.84-18.648-.42-3.118-.84-8.435-1.259-11.553-2.498-.44-4.997-1.78-7.495-3.558l2.498 6.216c.84 4.457.84 10.214.84 15.55 0 3.558-1.26 7.556-1.26 10.214-.42 3.558 0 7.556 0 11.553-.42 3.099-.42 5.757-.42 7.096 0 1.34-1.259 6.216-1.658 11.093-.42 6.676.4 13.772-.42 16.89-.42 1.78-2.918 6.656-3.338 11.093-.84 3.558.42 7.096-.42 10.654-.42 3.998-1.26 7.555-1.26 9.774-.419 2.658-1.238 8.435-1.658 13.772-.42 5.756-2.099 10.653-1.68 13.312.42 1.779 2.1 4.437 2.1 6.216.82 5.337 1.659 11.113 4.157 15.55 3.338 5.757 5.017 11.973 7.935 14.212 1.66.88 3.338 6.656 6.676 11.533 2.079 2.658 4.578 3.558 6.676 6.656 2.079 2.678 4.158 4.897 5.837 6.676 7.515 7.535 23.366 11.973 29.202 10.214 3.338-.46 4.158-1.78 4.158-2.679h-.4" fill="none" stroke="#1a171b" stroke-width=".32" stroke-linecap="round" stroke-linejoin="round"/><path d="M323.284 296.5c-2.798 2.699 0 9.834 0 9.834" fill="none" stroke="#1a171b" stroke-width=".8" stroke-linecap="round" stroke-linejoin="round"/><path d="M231.78 341.313c2.098 5.437 5.436 9.035 5.436 9.035" fill="none" stroke="#1a171b" stroke-width="1.199" stroke-linecap="round" stroke-linejoin="round"/><path d="M348.309 275.153c.86 2.659 2.119 5.317 4.637 6.636" fill="none" stroke="#1a171b" stroke-width=".8" stroke-linecap="round" stroke-linejoin="round"/><path d="M254.686 281.39c10.413-2.22 19.168 1.778 25.824 6.216 6.676 4.877 11.673 7.995 17.91 9.774 6.255 2.218 7.095 7.535 14.59 9.314 25.805 2.678 32.9-5.776 37.478-10.653 4.997-4.438 8.734-3.558 12.492-8.875 3.338-5.337 4.157-9.334 7.076-14.211 2.918-5.337 3.338-15.111 4.997-21.327 1.679-6.217-.42-15.97-.82-21.308-.42-5.776-1.259-13.332-2.498-18.648-1.68-5.337-4.598-10.214-6.257-15.99-1.659-5.777-3.337-14.212-4.996-19.549-1.26-5.317.42-14.65-.42-19.968-.84-5.336-2.918-15.99-2.918-21.766 0-5.777-2.919-15.551-2.499-19.549.42-3.997-.82-11.972 0-17.749.42-5.776 2.079-10.673 2.499-13.772 0-3.118 1.259-14.21 1.679-18.208.4-4.438 2.498-16.87.819-21.767 0 0 0 0 0 0v-2.659c2.918-1.779 2.499-12.872 1.679-15.09.82-.46-.84.879 0 0 0 0 0 0 0 0s2.498 9.314 2.498 11.992c-.42 2.219.4 11.093.4 15.091-.4 3.558.42 11.553-.4 13.772-.839 2.218-.42 10.214-.839 12.872-.42 3.118-.84 4.877-.84 5.776 0 .88.84 4.877 0 8.875-.42 3.998-2.918 9.334-2.918 11.553 0 2.219 1.26 6.656 1.26 8.875 0 2.218 1.659 6.216 1.659 8.435 0 2.218 1.259 7.995 1.259 11.113 0 3.997.42 8.874.42 12.872 0 3.558 1.239 8.435 1.659 11.993.42 3.558 1.259 7.555 1.658 10.653.42 2.659 0 4.897.84 9.774.84 4.438 2.079 7.096 2.498 8.875.42 2.219 2.499 3.118 3.758 7.555.82 4.877-.42 6.217.4 8.875.84 2.678 2.498 5.777 3.338 9.334.84 3.558 2.498 14.212 2.498 17.31.42 3.118 1.66 7.995 1.26 11.553 0 3.997-.42 11.993-1.68 17.77-1.239 5.776-4.996 11.532-6.655 15.09-1.66 3.558-4.578 12.432-8.335 15.55-3.738 2.659-9.994 4.438-12.493 8.435-4.997 6.217-12.912 6.217-17.49 8.875-4.157 2.219-10.833 2.219-18.328 2.219-7.495 0-11.233.44-14.571-4.877-3.338-4.897-7.915-1.34-11.673-5.777-3.738-4.437-8.735-5.776-14.571-11.093-5.837-4.897-15.83-7.556-21.247-7.556" fill="none" stroke="#1a171b" stroke-width=".32" stroke-linecap="round" stroke-linejoin="round"/><path d="M338.315 290.344c0 2.638 2.119 3.938 2.958 5.677m-32.46-242.913c4.597-.46 8.755 1.339 9.994 2.658m-1.359-16.47c6.696-2.159 10.873-.42 10.873-.42m4.637-14.211s-3.318-.88-9.994 1.28m28.703 37.816c1.699-.48 2.958-.48 2.958-.48M331.28 85.108c1.278 1.32 2.558 5.277 1.278 7.036" fill="none" stroke="#1a171b" stroke-width=".8" stroke-linecap="round" stroke-linejoin="round"/><path clip-path="url(#a)" d="M396.78 245.511c2.078-3.997 1.239-19.108-2.919-23.106 2.079-2.658.4-18.209-5.416-19.988 1.659-1.339 2.498-13.771-2.919-17.769 1.24-5.317-1.259-20.867-4.997-21.307 3.318-3.558 0-18.669-2.098-23.546 1.679-1.339 2.498-15.11-.4-16.43 2.498-3.997-.84-13.771-2.099-16.45 2.499-3.098 1.68-11.093 0-17.31 2.499 0 4.997-14.67 1.26-19.108 3.737-3.098 2.918-19.548-1.68-20.427 2.919-3.998 3.338-16.89-.4-20.888 2.08-5.756-7.095-22.206-12.512-25.304-5.416-2.679-9.574-.44-11.653-.44-4.597-.9-8.335-1.779-15.43 2.219-11.653 5.776-13.332 16.87-12.073 20.867-2.499 0-9.174 9.334-5.836 13.332-4.158 0-9.155 7.096-8.755 13.312-4.158 1.779-8.735 7.115-7.915 11.993-4.997-1.32-12.913 5.336-15.83 8.454-5.837-4.457-19.17-.46-21.248 2.659-4.157-3.558-19.168-.44-19.988 2.658-5.836-3.997-14.171-3.538-20.427-.44-1.24-3.997-14.572-6.656-17.91-3.098-4.177-6.236-13.331-11.553-17.509-9.774-.4-3.558-8.315-10.673-13.332-11.113-3.738-4.877-10.414-11.993-16.25-11.093-7.495-9.335-19.988-5.777-21.647-4.897-1.26 1.339-3.758 3.997-6.256 4.897-5.417 1.759-11.253 6.216-13.752 14.211-2.498 7.536-5.416 18.209 0 27.523-3.338 5.777-2.918 25.765 2.079 29.762-4.577 5.777-1.659 17.33.42 23.546-4.997 4.437-4.997 22.207-2.499 25.764-5.836 3.998-5.416 17.33-2.498 24.426-5.837 5.776-5.417 18.668-1.26 24.425-4.577 6.236-5.416 23.106 1.68 27.983-1.68 11.993 5.416 26.664 11.652 31.101-1.239 8.875 7.516 25.764 18.35 25.764 2.078 8.435 19.148 22.207 30.4 15.551 8.756-5.776 7.916-9.334 11.254-14.671 1.26-1.779 2.918-3.538 4.577-5.317h-.82c-1.258.44-2.498-.46-2.498-1.779-.42-1.339 0-2.678 1.24-2.678 1.679-.88 3.338-.44 4.997.46 1.678-3.119 3.757-6.676 4.597-11.993 1.659-11.993-16.25-30.202-25.005-31.98-3.758-5.338-8.335-14.672-12.912-18.67 4.577-8.434.82-19.987.82-19.987.839-8.435 1.258-13.772-1.66-21.307 3.758-6.217 3.338-16.89 0-21.767 3.338-4.897 4.997-16.89 3.338-22.667 1.24-5.756 1.66-10.653-.42-17.309 4.158-4.897 0-15.55-1.659-19.548 2.899 4.437 8.315 14.211 19.988 14.65 9.994 8.896 12.913 6.677 21.247 7.556 2.499 5.777 18.75 6.217 22.927 2.659 2.498 3.997 16.25 7.555 20.407 1.339 2.079 1.34 14.591 4.897 18.749-.88 3.338 1.32 15.41 2.22 19.168-4.897 4.158 1.34 14.571 0 19.588-4.877 2.499 3.099 16.65-7.555 16.65-12.432 2.099 3.538 11.673-9.774 13.332-15.55 0 0-2.918 12.432 0 13.771-2.079 1.32-1.24 17.77 2.918 19.988-2.918 3.098-.42 19.088 3.338 20.428-2.498 3.098-2.918 19.987 2.499 24.864-2.499 6.676-1.66 17.33 1.659 19.109-1.66 3.098-.82 17.33 4.597 17.33-3.758 2.218 0 15.99 4.158 15.09 0 0-1.66 2.659-1.24 5.777.42 3.558 2.079 7.555 4.578 9.334-2.08.88-2.919 11.093.42 12.872-2.5-.44-5.417 10.214-4.998 13.772-2.098 1.34-4.177 5.776-2.498 11.113-5.017-.46-11.253 9.315-10.014 14.651h-.42c-3.318-.44-11.653 3.998-14.99 7.096-7.916-5.317-10.414-2.219-24.586-6.216-14.151-3.998-26.244-23.986-54.167-2.659-23.746 17.77-17.07 43.094-12.492 53.308-2.08 3.098-5.417 13.312-5.417 28.863 0 13.331 12.492 30.201 17.09 36.877 5.416 7.096 8.754 11.533 8.754 16.87 0 4.437 8.735 4.877 8.735 0 0-6.216 1.679-8.875 8.335-19.108 7.076-10.214 12.912-25.305 12.492-40.856 0-8.435-4.997-10.213-2.498-16.87 3.757-9.334 1.259-12.892-.4-18.668 4.157-1.32 19.988 10.673 29.982 13.772 10.414 2.658 26.664 3.557 30.421-2.22 3.338 1.34 24.166-14.21 22.087-22.645 6.656 2.218 19.988-11.553 16.25-21.767 6.236.88 16.25-17.77 15.41-27.983 2.919.44 6.657-17.33 3.759-22.207" fill="none" stroke="#1a171b" stroke-width="1.199" stroke-linecap="round" stroke-linejoin="round"/><path d="M348.389 8.635c-.42 4.437-6.236 9.754-6.236 15.09-.42 5.337-1.66 7.996-3.338 11.554-1.24 3.997-.82 7.975-2.919 13.312-1.659 4.877-2.078 9.774-4.997 12.432-3.318 2.658-4.577 5.337-6.656 8.435-1.659 3.558-3.337 11.113-5.416 14.211-2.499 2.659-4.577 5.777-4.577 5.777-7.496.44-13.312 7.095-15.411 10.214-3.738-.9-12.073 2.658-14.991 6.656-3.738-1.78-14.571-1.78-19.148 2.218-3.318-2.218-13.312-.88-18.73.88-2.498-.88-12.492-3.098-18.748-1.76-3.737-1.778-15.39-1.338-17.07-2.218-1.658-.9-5.816-4.457-9.574-5.337-4.157-.88-8.734-1.779-11.653-5.336-3.337-3.998-12.072-17.75-17.909-18.65-2.078-3.097-6.656-6.655-13.731-9.753-2.08-3.118-9.994-10.674-15.411-12.892-1.659-2.659-5.417-6.656-12.073-7.536l-1.679-1.779c.84 0 1.68-.44 2.499-.9 1.679-.879 3.758-2.218 4.997-3.537 4.177 1.779 14.171 9.754 15.83 10.653 2.079.88 7.076 4.878 8.335 6.217 1.24 1.779 6.236 3.997 8.735 5.316 2.498 1.34 5.836 5.337 7.076 6.676.84 1.32 7.915 12.433 10.413 13.752 2.918 1.34 7.076 5.337 8.755 7.116 1.659 1.319 9.154 1.319 12.892 2.658 3.338 1.34 8.335 7.116 12.493 7.116 4.177 0 7.495 0 11.673-.46 4.157 0 9.973 3.558 13.311 2.679 2.919-.46 3.338-.9 8.335-2.22 4.578-1.338 9.155-.459 15.81-1.338 6.257-.9 10.834-.44 14.992-2.659 4.577-2.218 10.833-.46 13.332-3.558 2.498-3.118 8.734-7.555 13.731-10.653.84-3.118 6.676-9.334 7.076-9.774 4.597-4.437 4.597-7.096 6.676-10.214 2.079-3.558 5.417-10.654 7.076-15.99 2.078-5.317 2.078-15.53 4.997-19.089 2.078-2.658 3.737-6.216 4.157-10.653 2.079-2.659 2.918-2.659 4.158-6.656 1.679-4.438 4.597-6.676 4.997-4.438-.82.44-2.08 3.099-2.08 4.438" fill="none" stroke="#1a171b" stroke-width=".32" stroke-linecap="round" stroke-linejoin="round"/><path d="M361.72 26.544c1.26-4.038.42-11.233-.419-13.032m1.199 7.675c1.7-2.678 4.637-4.477 4.637-4.477" fill="none" stroke="#1a171b" stroke-width="1.199" stroke-linecap="round" stroke-linejoin="round"/><path d="M285.587 80.231c1.659.44 4.157-1.319 3.758-3.557-1.68 0-3.758 1.339-5.437 1.778m21.627-3.937c1.659-1.34 3.318-2.679 2.918-4.937-1.679-.9-3.758.46-5.437 1.359m14.212-12.972c.84-2.219 2.098-3.998 2.498-6.216-2.079-1.78-4.997 2.678-5.836 3.997m13.592-18.249c-.74.48-1.12 1.4-1.12 2.319m13.352 9.754c1.22-5.757 5.277-3.098 3.658 1.759m3.778-19.509c-.84.46-1.26 1.82-1.68 2.72m7.516-18.27c-2.478 4.817 2.059 5.237 2.878-.44m7.436-.48c-1.2 0-2.399 0-3.598.88m8.595 15.57c-.84-1.738-.84-4.816 1.259-5.256 1.26 2.199.84 4.817.84 7.435m-2.939 14.231c.56 1.82 0 3.619 0 4.958m.88 12.312c-.44.92-.88 2.299-.44 3.198m-6.157 34.699c-.819.86-1.238 2.159-.819 3.438 2.039-.42 2.039-3.018 3.258-4.317m-14.151 19.988c0 2.198-.32 3.937-.32 5.676m2.479 15.591c0 1.36 1.679 5.836-.44 6.276-2.119.44-3.398-4.477-2.958-5.816m19.548-20.928c0-1.319 0-2.218.48-3.118m1.698 46.612c-.82-1.28-.4-3.018.42-4.317.8 1.299 2.019 3.038 3.238 3.897m-11.993 41.755c-.839-4.877-5.036-3.098-2.518 0m6.216 12.472c-.42 1.8 0 3.598 1.26 4.478m4.117 12.312c0 1.799-.44 3.578.44 5.357m14.151 1.839c.8-.46 1.2-1.38 1.6-1.84m-2-19.028c.4-1.319.4-2.218.4-3.118m-7.096-19.128c-.42.9-.42 1.799 0 2.698 2.939.44 2.939-3.138 2.519-5.396m-6.296-14.632v2.639m-7.056 69.798c.82-1.32 1.22-2.659.42-3.998-1.64.46-2.459 2.239-2.878 3.998m16.23 9.294c.84-.9 2.518-4.018 4.197-3.118 1.24.9-.42 4.457-.84 5.337m-14.551 23.525c2.08-5.776 6.636 0 1.66 3.098m-13.392-22.146c3.737-4.477-2.899-5.837-4.578-1.78m-3.677 11.934c.42-2.199 2.498-2.639 4.157-3.518m-14.951 16.869c.8-1.319 1.999-3.098 3.598-3.997m12.552 16.95c1.28-.92 2.119-2.299 2.959-3.678m-20.788 25.825c.84 0 1.66-.4 2.479-.8m-68.359 3.997c-2.079-.44-2.079-2.658-1.659-3.997 1.26 0 2.918 0 3.738 1.339m-39.176 18.089c1.719-.86 2.558-3.038 3.837-4.797m-98.64-114.571c0-1.779-.42-4.037.42-5.836 1.239 1.36 2.498 3.158 3.318 4.957m-5.837-26.724c.42-1.34.82-3.138 2.059-4.057.82 1.359 1.619 3.158 1.619 4.957m-1.679-20.468c.44-1.779.44-3.578 2.139-4.477.86.9 1.279 1.799 1.699 3.597m-.92-24.425c-.44 1.3-.44 2.619.84 3.478 1.719-.86 2.558-3.478 1.719-5.676m6.196-17.83c-.4.46-.4.92-.4 1.84m0-19.989c0 1.32 0 2.18.4 3.039m-21.667 143.113c-1.639-6.716-7.036 3.118-.4 2.678m17.489 16.87c-2.038-3.078-3.257-.44-1.618 1.759.8 1.32 3.638.88 2.019 3.078-.4.88-3.239.44-3.658 0m61.083-181.17c-.8 0-1.6 0-2-.96m21.668 4.478c1.259 0 2.099 0 3.358-.48m19.148.959c-2.139 0-2.998 2.16-2.139 3.898.86.42 2.14 0 2.979-.86m17.889-4.397c-.42 1.34-2.059 1.34-1.64 3.118.82.44 1.64.88 2.86 0m15.829-.96c1.24 0 2.08-.419 2.479-1.278m19.148-9.355c-5.476.46-3.358 4.877.84 1.78m15.351-11.614c0 .52-.4 1.04-.8 1.04m12.472-9.035c-.4.94-.799 1.86-1.199 2.319m4.557-21.827c-.839.46-1.259 1.36-1.679 2.718M267.198 83.79h-2.478m-17.91 4.816c-1.239.44-3.717.86-4.557-.88.84-1.738 4.957-1.298 4.138-3.937m-24.585 3.998c-1.64 0-3.278-.44-3.698-2.199 1.24-1.34 3.278-.44 4.517-1.34 2.439-2.198-1.639-2.637-3.698-3.097m-18.329-.001c-1.239 0-2.058-.459-2.478-1.838M182.61 65.48c0 1.36.839 2.279 2.478 2.719M170.137 81.11c-2.459-3.957-5.357 2.2-.82 1.76m22.487 17.33c-1.24-1.38-2.898-1.38-4.557-.92.42 1.379 1.659 2.758 3.318 3.218m-52.089-45.353c-2.478-5.336-6.636 1.78-1.24 2.659m-16.269 10.713c-1.2.44-2.399 1.7-2.799 2.958m7.476 17.41c-.42 1.34.84 4.417-1.7 4.417-2.977-.44-2.538-5.736-1.278-7.515m27.483-43.974c.84 2.18 3.718 1.32 4.957 3.039m12.472 7.995c1.26.88 2.1 1.759 3.358 2.638m-12.812 204.916c-5.816-1.34-.84-7.675.82-3.158m-39.217-23.146c.42.9 1.24 2.678.42 3.558-2.079 3.558-2.918-2.219-3.338-3.558m3.838-23.506v-3.997" fill="none" stroke="#faded4" stroke-width="1.679" stroke-miterlimit="8"/><path d="M350.108 84.669c-.4-1.36-.4-2.279.4-3.198m1.199 23.985c-.4-.88-.4-1.759 0-2.638m7.995 85.808c0 .46-.44.46-.9.46 0-.46-.46-1.38-.46-1.84m-228.501-50.609c-.44-.9-.88-1.799-.88-2.718m-.479-23.106c-.44.46-.88 1.379-.44 1.839m-4.917 77.793c.44-1.38.44-2.759.88-3.678m5.277-20.867c.42-1.34.84-3.119 1.679-4.478" fill="none" stroke="#f7c2b0" stroke-width="1.679" stroke-miterlimit="8"/><path d="M154.786 69.138c-2.898-1.34-4.557 0-1.659 2.239-1.659 1.779-3.318.44-4.977-.44" fill="none" stroke="#faded4" stroke-width="1.679" stroke-miterlimit="8"/><path d="M259.523 384.967H411.43" fill="none" stroke="#b2b2b2" stroke-width="1.999" stroke-linejoin="round" stroke-miterlimit="10"/><text xml:space="preserve" style="line-height:125%;text-align:start" transform="translate(414.396 390.09)" font-size="18.625" font-weight="400" font-stretch="Normal" letter-spacing="0" word-spacing="0" font-family="Arial"><tspan x="0" y="0"><tspan dx="0" dy="0" fill="#0070c0">Rectum</tspan></tspan></text><path d="M331.48 329h79.95" fill="none" stroke="#b2b2b2" stroke-width="1.999" stroke-linejoin="round"/><text xml:space="preserve" style="line-height:125%;text-align:start" transform="translate(414.062 335.956)" font-size="18.625" font-weight="400" font-stretch="Normal" letter-spacing="0" word-spacing="0" font-family="Arial"><tspan x="0" y="0"><tspan dx="0" dy="0" fill="#0070c0">Sigmoid</tspan></tspan></text><path d="M371.455 153.107h47.97" fill="none" stroke="#b2b2b2" stroke-width="1.999" stroke-linejoin="round"/><text xml:space="preserve" style="line-height:125%;text-align:start" transform="translate(421.058 149.07)" font-size="18.625" font-weight="400" font-stretch="Normal" letter-spacing="0" word-spacing="0" font-family="Arial"><tspan x="0" y="0"><tspan dx="0" dy="0" fill="#0070c0">Descendant</tspan></tspan></text><text xml:space="preserve" style="line-height:125%;text-align:start" transform="translate(421.058 171.456)" font-size="18.625" font-weight="400" font-stretch="Normal" letter-spacing="0" word-spacing="0" font-family="Arial"><tspan x="0" y="0"><tspan dx="0" dy="0" fill="#0070c0">colon</tspan></tspan></text><path d="M259.523 89.146h159.903" fill="none" stroke="#b2b2b2" stroke-width="1.999" stroke-linejoin="round"/><text xml:space="preserve" style="line-height:125%;text-align:start" transform="translate(423.057 86.108)" font-size="18.625" font-weight="400" font-stretch="Normal" letter-spacing="0" word-spacing="0" font-family="Arial"><tspan x="0" y="0"><tspan dx="0" dy="0" fill="#0070c0">Transverse</tspan></tspan></text><text xml:space="preserve" style="line-height:125%;text-align:start" transform="translate(423.057 108.494)" font-size="18.625" font-weight="400" font-stretch="Normal" letter-spacing="0" word-spacing="0" font-family="Arial"><tspan x="0" y="0"><tspan dx="0" dy="0" fill="#0070c0">colon</tspan></tspan></text><path d="M91.624 153.107H131.6" fill="none" stroke="#b2b2b2" stroke-width="1.999" stroke-linejoin="round"/><text xml:space="preserve" style="line-height:125%;text-align:start" transform="translate(-.02 149.07)" font-size="18.625" font-weight="400" font-stretch="Normal" letter-spacing="0" word-spacing="0" font-family="Arial"><tspan x="0" y="0"><tspan dx="0" dy="0" fill="#0070c0">Ascending</tspan></tspan></text><text xml:space="preserve" style="line-height:125%;text-align:start" transform="translate(-.02 171.456)" font-size="18.625" font-weight="400" font-stretch="Normal" letter-spacing="0" word-spacing="0" font-family="Arial"><tspan x="0" y="0"><tspan dx="0" dy="0" fill="#0070c0">colon</tspan></tspan></text><path d="M91.624 265.04h79.952" fill="none" stroke="#b2b2b2" stroke-width="1.999" stroke-linejoin="round"/><text xml:space="preserve" style="line-height:125%;text-align:start" transform="translate(17.803 269.996)" font-size="18.625" font-weight="400" font-stretch="Normal" letter-spacing="0" word-spacing="0" font-family="Arial"><tspan x="0" y="0"><tspan dx="0" dy="0" fill="#0070c0">Caecum</tspan></tspan></text><path d="M91.624 297.02h111.933" fill="none" stroke="#b2b2b2" stroke-width="1.999" stroke-linejoin="round"/><text xml:space="preserve" style="line-height:125%;text-align:start" transform="translate(10.307 301.977)" font-size="18.625" font-weight="400" font-stretch="Normal" letter-spacing="0" word-spacing="0" font-family="Arial"><tspan x="0" y="0"><tspan dx="0" dy="0" fill="#0070c0">Appendix</tspan></tspan></text><path d="M187.966 424.942h68.918" fill="none" stroke="#b2b2b2" stroke-width="1.999" stroke-linejoin="round"/><text xml:space="preserve" style="line-height:125%;text-align:start" transform="translate(140.562 430.899)" font-size="18.625" font-weight="400" font-stretch="Normal" letter-spacing="0" word-spacing="0" font-family="Arial"><tspan x="0" y="0"><tspan dx="0" dy="0" fill="#0070c0">Anus</tspan></tspan></text></svg>