<svg xmlns="http://www.w3.org/2000/svg" version="1.0" viewBox="0 0 158.513 487.975"><defs><clipPath clipPathUnits="userSpaceOnUse" id="a"><path d="M1.679 4.557h158.304v488.344H1.679z"/></clipPath></defs><path d="M113.111 21.887s3.778 4.557 4.038 10.753c.26 6.176 0 9.674-1.08 11.553-1.079 1.88-2.958 3.498-2.958 4.837 0 1.36.54 5.377-.26 8.335-1.079 2.699-3.237 4.837-4.037 5.917-.82 1.079-1.619 2.158-1.899 2.958-.52.54-2.139 4.037-2.958 4.837-.8.82-1.599 2.698-1.879 4.297 0 1.36-2.698 5.657-10.753 5.117 0 0-3.238 5.377-2.439 5.917.54.26 2.978 2.418 2.978 3.498-.28 1.339-14.271 4.557-20.467-1.34-6.456-5.916-15.071-15.61-13.712-18.568 0 0 12.912-8.335 10.494-19.888 0 0-5.657-8.055-1.62-13.172 1.62-2.419 5.118.54 6.197 1.878 1.34 1.08 5.377-12.092 5.377-12.092S96.96 15.15 102.358 15.43c5.637.26 10.753 6.456 10.753 6.456z" fill="#f8f3ed" fill-rule="evenodd"/><path d="M101.938 43.294c.52-.26-.28-2.339-2.418-3.118-2.139-1.04-5.377-.26-5.377-.26s1.08 2.079 4.037 2.338c2.679.52 2.679.26 2.939.52.28.26.54.52.82.52zm8.195.999s3.338-.28 4.158 2.659l-.82 1.059s-1.12-.52-1.939-.8c-.84-.52-1.399-1.059-1.399-1.059v-1.859z" fill="#fff" fill-rule="evenodd"/><path d="M113.111 21.887s3.778 4.557 4.038 10.753c.26 6.176 0 9.674-1.08 11.553-1.079 1.88-2.958 3.498-2.958 4.837 0 1.36.54 5.377-.26 8.335-1.079 2.699-3.237 4.837-4.037 5.917-.82 1.079-1.619 2.158-1.899 2.958-.52.54-2.139 4.037-2.958 4.837-.8.82-1.599 2.698-1.879 4.297 0 1.36-2.698 5.657-10.753 5.117 0 0-3.238 5.377-2.439 5.917.54.26 2.978 2.418 2.978 3.498-.28 1.339-14.271 4.557-20.467-1.34-6.456-5.916-15.071-15.61-13.712-18.568 0 0 12.912-8.335 10.494-19.888 0 0-5.657-8.055-1.62-13.172 1.62-2.419 5.118.54 6.197 1.878 1.34 1.08 5.377-12.092 5.377-12.092S96.96 15.15 102.358 15.43c5.637.26 10.753 6.456 10.753 6.456" fill="none" stroke="#343434" stroke-width=".8" stroke-linecap="round" stroke-miterlimit="8"/><path d="M68.159 49.69c.28.26.56 1.04 1.099 1.559.26.52.8.78 1.34 1.04.539.519 2.698 1.039 2.977 0 .26.519-.54 1.039-1.079 1.299-.54.26-1.36 0-1.899-.26-.8-.52-2.438-1.82-2.438-2.859zm-1.079-6.056c-.28-1.62-.28-4.038 1.359-4.598 1.639-.54 2.178 2.179 2.438 3.258.28.54.28.8.28 1.34-.28.28-.54.54-.28.82.56.799 1.64 1.078 1.919 1.618.8 1.879-1.919 1.879-2.998 1.62-.28 0-.28-.28-.54-.28.82.539 1.899 1.079 2.718.819.54 0 .82-.54 1.08-1.08.28-1.359-.82-1.619-1.36-2.698-.54-.28-.54-.82-.54-1.619 0-.82 0-1.36-.279-2.159-.54-.82-1.36-2.178-2.438-2.178-1.08 0-1.64 1.359-1.64 2.178zm24.504 36.637s-7.555-1.079-12.952-8.594c0 0 3.778 7.775 12.952 9.114v-.52zM72.776 54.487s-2.718 6.936 3.538 15.19c0 0-7.356-8.254-3.538-15.19zm-.3 12.793c-.26.28-.26 1.099-.52 1.358-.28.54-.54 1.08-.8 1.36-.539.8-.819 1.619-1.078 2.418-.54 1.36-.8 2.439-1.88 3.238-.26.28-1.059.54-1.339.82-.54.8.28.8.8.54.82-.54 1.619-1.62 2.159-2.44.52-1.338.8-2.418 1.339-3.777.26-.54.8-1.08 1.06-1.619 0-.54 0-1.08.26-1.619zm8.954 9.154c-.799-.28-2.418.54-2.958.82-.8.279-1.619.819-2.418 1.099-1.62.54-2.698 1.079-4.058 2.438 1.62-1.36 3.518-1.899 5.397-2.438.54-.28.82-.82 1.36-.82.799-.28 1.338-.56 2.138-.82z" fill="#343434" fill-rule="evenodd"/><path d="M89.826 80.271c-.84.52-1.12 1.58-1.7 2.359-.28.8-.28 1.859-.56 2.638-.299-.78.28-1.839.56-2.358 0-.54.28-1.06.58-1.6.28-.519.28-1.039.84-1.318zm-3.358-1.419c-1.6.54-2.12 2.159-2.659 3.498-.26.54-.54 1.34-.8 2.139-.26.28-.539 1.08-.539 1.339v-1.599c.28-.54.28-1.08.54-1.62.26-.799.8-1.338 1.059-1.878.28-.8.8-1.879 1.6-2.418zm2.218 6.816c-.54.8-.54 1.6-.54 2.638 0-.779.54-1.579.8-2.358zm4.318-50.789c-.54 0 3.757-.26 6.955.54 2.959.819 4.558 2.438 5.097 2.438.52-.26.52-.54.52-.54 0-.26-.52.28-1.32-.54-.539-.799-6.695-3.797-11.252-1.898zm19.088 4.817c-.28.54 1.62.26 2.698 1.34 1.08.819 2.14 1.618 2.14 1.618v-.8s-1.06-1.359-1.88-1.618c-1.08-.54-2.698-1.1-2.958-.54z" fill="#343434" fill-rule="evenodd"/><path d="M99.98 40.495c0 1.06-.8 1.84-1.62 1.84-1.079 0-1.898-.78-1.898-1.84v-.8c.819 0 2.438 0 3.517.8zm13.591 5.397v.26c-.5 1.12-1.519 1.38-2.019 1.12-.52-.56-.78-1.66-.26-2.5l.26-.279c.76 0 1.78.84 2.02 1.4z" fill="#464593" fill-rule="evenodd"/><path d="M99.98 40.495c0 1.06-.8 1.84-1.62 1.84-1.079 0-1.898-.78-1.898-1.84v-.8c.819 0 2.438 0 3.517.8m13.592 5.397v.26c-.5 1.12-1.519 1.38-2.019 1.12-.52-.56-.78-1.66-.26-2.5l.26-.279c.76 0 1.78.84 2.02 1.4" fill="none" stroke="#343434" stroke-width=".32" stroke-linecap="round" stroke-miterlimit="8"/><path d="M98.08 39.696c-.26.26-.26.26-.26.52 0 .52.26.76.52.76.52 0 .76-.24.76-.76v-.26c-.24 0-1.02-.26-1.02-.26zm14.772 6.136c-.26.26-.52.5-.78.26-.26 0-.26-.52 0-.76.26-.26.52-.52.78-.26.24 0 .24.5 0 .76z" fill-rule="evenodd"/><path d="M102.458 40.495s-2.738-4.097-9.035-1.639c0 0 5.477-3.557 9.035 1.64zm7.735.48s-.26 7.256 1.32 11.013c1.578 3.758-3.159 4.818-3.419 4.818-.28 0 2.899-.8 3.159-2.679.52-1.599 0-1.599-.26-2.678-.26-1.08-1.58-6.716-.8-10.474zm-2.778 16.71c-.76.54-1.02 1.899-1.02 2.698.26.82.78 1.62 1.02 2.419-.24-.26-.5-.52-.5-.52-.26-.82-.78-1.619-.78-2.438 0-.8.52-1.88 1.04-2.159zm-.42-2.159c.26-.26 0-.8-.26-1.079-.26-.28-.8-.28-1.059-.28-.26 0-.52.28-1.06.28-.26.28-.799.28-.52.82 0 .26.52.26.78.26.28 0 .54-.26.8-.54.54-.82 1.06-.26 1.32.54zm-2.219-3.557c-.799-.28-1.858.28-2.398 1.099-.52.54-.26 1.639 0 2.458-.8-.54-.8-2.178-.26-2.738.54-.82 1.859-1.1 2.659-.82zm-3.677.319c-.26 1.88-1.34 3.478-2.699 4.837-.26.52-.8 1.06-1.339 1.34-.28.54-1.08.8-1.639 1.059 1.1-.8 1.64-1.6 2.439-2.399.54-.54 1.359-1.079 1.619-1.878.54-.54.82-1.36 1.08-1.88 0-.28.279-1.079.539-1.359zm-3.818 17.989c-.26 0-.82.28 0 .28h1.38c.819.28 1.358 1.12 2.178 1.12.26-.56-1.1-1.12-1.36-1.12-.559-.56-1.378-.28-2.198-.28zm1.659-6.696h1.62c.539-.28 1.078-.54 1.338-.819.54 0 .8-.28 1.08 0 .54.28.8.54 1.079.82.52.54 1.06.54 1.599 1.079.28.26.28.54.54.8 0 .28.26.539.26.819 0 .26-.26.8-.26 1.08-.26.259-.26.539-.54.799-.26-.26-.54-.54-1.08-.8-.26-.28-.52-.28-.799-.54-.54-.54-.8-1.359-1.599-1.898-.54-.26-1.08-.8-1.619-1.08H98.94z" fill="#343434" fill-rule="evenodd"/><path d="M99.16 63.522c.28.54.82.54 1.08 1.079.539.54.819 1.08 1.079 1.339.28.54 1.079.54 1.359.54.54.28 1.08 0 1.619.28.26 0 .8.26.8.52-.54 0-1.08 0-1.62-.26-.54 0-1.339 0-1.879-.54-.82-.26-.82-1.08-1.359-1.88-.54-.259-1.08-.799-1.619-1.078z" fill="#343434" fill-rule="evenodd"/><path d="M101.938 43.294c.52-.26-.28-2.339-2.418-3.118-2.139-1.04-5.377-.26-5.377-.26s1.08 2.079 4.037 2.338c2.679.52 2.679.26 2.939.52.28.26.54.52.82.52m8.194.999s3.338-.28 4.158 2.659l-.82 1.059s-1.12-.52-1.939-.8c-.84-.52-1.399-1.059-1.399-1.059v-1.859z" fill="none" stroke="#343434" stroke-width=".64" stroke-linecap="round" stroke-miterlimit="8"/><path d="M111.253 42.354s3.997-1.059 3.737 3.178c0 0 0-3.178-3.737-3.178z" fill="#343434" fill-rule="evenodd"/><path clip-path="url(#a)" d="M117.169 40.735s5.916-8.075 4.038-13.711c-1.88-5.657-3.758-5.397-3.758-5.397s-1.08-3.498-3.238-4.837c-2.159-1.62-4.837-2.419-4.837-2.419s-4.038-2.958-5.937-4.317c-1.879-1.34-8.335-4.038-11.573-3.218 0 0-15.33-4.318-21.267 3.218-5.916 7.815-8.615 6.196-11.033 15.61-2.419 9.415-3.498 4.038-3.778 9.695 0 5.656-.8 5.656-.52 8.614.26 2.679.52 3.218-.819 5.377-1.08 2.159-3.218 2.159-3.758 4.837-.54 2.958.26 5.117-1.359 6.736-1.879 1.62-2.958 1.62-2.958 3.238 0 1.6-3.238 5.097-2.958 7.516l14.271-1.88s11.833-6.455 10.754-18.828c0 0-6.716-9.414-1.6-14.271 2.679-2.679 5.117 3.498 8.335 2.698 3.238-.54 4.038-2.418 4.578-4.577.28-2.159.28-2.419 1.339-2.958 1.08-.54 2.438-.8 2.438-2.699 0-1.879.26-2.138.8-2.958.8-.8 1.34-1.619 1.34-1.619s1.618.54 3.497-1.34c1.899-1.618 4.317-3.217 4.317-3.217s1.88-.82 3.238-1.36c1.06-.539 2.14-.799 2.14-.799s2.957 1.34 4.037 1.08c1.079 0 1.619-.28 1.619-.28s-3.218 3.238-5.117 6.196c-1.88 2.958-4.038 5.916-7.796 8.075 0 0 5.377-1.879 8.335-5.657 1.36-1.878 3.778-3.218 5.657-4.837 1.08-1.079 3.778-3.777 4.837-2.958 2.978 2.139 7.815 6.456 6.736 21.247z" fill="#4a1816" fill-rule="evenodd"/><path clip-path="url(#a)" d="M117.169 40.735s5.916-8.075 4.038-13.711c-1.88-5.657-3.758-5.397-3.758-5.397s-1.08-3.498-3.238-4.837c-2.159-1.62-4.837-2.419-4.837-2.419s-4.038-2.958-5.937-4.317c-1.879-1.34-8.335-4.038-11.573-3.218 0 0-15.33-4.318-21.267 3.218-5.916 7.815-8.615 6.196-11.033 15.61-2.419 9.415-3.498 4.038-3.778 9.695 0 5.656-.8 5.656-.52 8.614.26 2.679.52 3.218-.819 5.377-1.08 2.159-3.218 2.159-3.758 4.837-.54 2.958.26 5.117-1.359 6.736-1.879 1.62-2.958 1.62-2.958 3.238 0 1.6-3.238 5.097-2.958 7.516l14.271-1.88s11.833-6.455 10.754-18.828c0 0-6.716-9.414-1.6-14.271 2.679-2.679 5.117 3.498 8.335 2.698 3.238-.54 4.038-2.418 4.578-4.577.28-2.159.28-2.419 1.339-2.958 1.08-.54 2.438-.8 2.438-2.699 0-1.879.26-2.138.8-2.958.8-.8 1.34-1.619 1.34-1.619s1.618.54 3.497-1.34c1.899-1.618 4.317-3.217 4.317-3.217s1.88-.82 3.238-1.36c1.06-.539 2.14-.799 2.14-.799s2.957 1.34 4.037 1.08c1.079 0 1.619-.28 1.619-.28s-3.218 3.238-5.117 6.196c-1.88 2.958-4.038 5.916-7.796 8.075 0 0 5.377-1.879 8.335-5.657 1.36-1.878 3.778-3.218 5.657-4.837 1.08-1.079 3.778-3.777 4.837-2.958 2.978 2.139 7.815 6.456 6.736 21.247" fill="none" stroke="#343434" stroke-width=".64" stroke-linecap="round" stroke-miterlimit="8"/><path d="M105.096 11.113s-1.059-.8-1.339-.8c-1.08-.28-2.159 0-3.238-.28-2.139-.799-4.297-1.358-6.716-1.358-1.359 0-2.978.28-4.317.56-1.88.26-3.498 1.079-5.117 1.878-1.08.56-2.159.56-3.238 1.1-2.159.8-4.038 1.898-6.196 2.438-2.419.8-4.578 1.899-6.996 2.978-2.699 1.08-4.857 2.699-5.937 5.677m29.982-16.15c1.06 0 1.86.82 2.639 1.359m15.35 10.673c.8-.56 2.899-.84 3.698 0 .78.82.52 3.019.52 4.118m.259-1.119c.54-.78 2.16-1.04 2.959-.52m3.518 4.357c-.26-1.1-1.84-2.198-2.919-2.198-.779-.28-2.118 1.099-2.918.56" fill="none" stroke="#343434" stroke-width=".64" stroke-linecap="round" stroke-miterlimit="8"/><path d="M117.089 23.866c1.679.819 1.679 3.777 1.4 5.376 0 1.88-1.12 3.218-1.4 5.097m-3.119-14.791c-.259-1.619-2.937-3.238-4.296-3.238-1.88-.28-4.558 1.08-5.377 2.698" fill="none" stroke="#343434" stroke-width=".64" stroke-linecap="round" stroke-miterlimit="8"/><path d="M105.096 17.87c-.26-1.08-2.698-1.36-3.498-1.08-.82.28-2.158.54-2.978 1.08m-4.797 1.958c-.8 0-1.879-.28-2.958.26-1.1.26-2.179 1.339-3.518 1.599-1.639.54-2.978.26-4.597.54-1.899 0-3.798 1.059-5.157 2.118m7.995.32c-1.599.28-3.738 0-5.596 0-3.478 0-5.877 1.36-8.555 3.518m12.712-1.679c-.54.54-1.34.54-1.879.82-.56.52-1.1 1.319-1.639 1.858-1.08 1.34-1.899 1.88-3.518 2.419-3.797.52-7.855.8-10.313 4.257m4.317 219.147c.24-.24.24-.72.48-.959" fill="none" stroke="#343434" stroke-width=".64" stroke-linecap="round" stroke-miterlimit="8"/><path d="M89.945 82.93s-.819 2.138-1.079 3.218c0 0 3.218 2.418 2.958 3.758 0 0-2.418.28-4.837-1.34-2.698-1.339-10.493-3.218-14.251-5.376-3.758-2.14-11.553-9.115-12.892-10.734-1.08-1.879-2.159-2.678-2.159-2.678s-3.498-.54-5.916-.54c-2.419-.28-10.214 1.62-13.432 4.018-3.218 2.698-3.498 1.619-4.038 3.757-.54 2.419-1.08 4.298-3.758 7.796-2.958 3.218-5.116 7.515-5.376 14.231-.26 6.716.54 8.595-1.08 16.65-1.339 7.775-1.339 8.855-2.418 12.352-1.08 3.478-1.08 1.88-.8 6.976 0 4.837.26 11.273.8 16.37.54 5.117.28 11.014.82 15.311.799 4.038.799 5.916 1.878 7.515 1.06 1.34 1.88 3.758 1.06 6.996-.52 2.938 0 2.399-1.34 5.357-1.339 2.698-1.878 2.159-1.878 4.577-.26 2.679.54 4.298-.54 5.897-1.34 1.339-3.498 4.297-3.758 5.916-.28 1.879.8 4.557.8 4.557s0 2.419 7.535 5.917c7.516 3.757 31.181 4.297 37.098 4.817 5.896.54 16.11.82 19.888 1.08 3.757.279 14.77 1.618 15.59 1.338.8-.26 3.758 17.45 3.758 17.45l4.557 6.995 2.159 2.939s2.418-1.88 5.636-1.88c2.959 0 5.917.54 7.276-.799 1.06-1.08 2.139-.8 2.938-1.08.82-.519 2.419.54.54-2.937-1.6-3.498-2.958-5.637-4.557-11.014-1.88-5.097-.54-5.636-3.498-10.213-3.218-4.558-5.637-15.291-7.536-19.329-1.599-4.017-3.757-11.533-5.376-15.83a220.754 220.754 0 0 0-3.758-8.595s-1.08-2.418.54-6.176c1.619-3.758 2.698-4.298 5.116-9.674 2.14-5.097 5.097-8.855 3.758-16.65-1.34-8.055-4.037-10.474-4.037-10.474s2.958-3.218 5.656-5.896c2.938-2.679 10.734-7.796 11.273-8.855.54-1.08-3.218-17.989-8.594-24.985-5.117-6.976-14.792-8.055-14.792-8.055l-2.418 3.758s-1.06-.8-2.419-1.34c-1.339-.539-2.138.28-2.678-1.079-.54-1.599-2.419-4.017-2.419-4.017z" fill="#a7d2a9" fill-rule="evenodd"/><path d="M89.945 82.93s-.819 2.138-1.079 3.218c0 0 3.218 2.418 2.958 3.758 0 0-2.418.28-4.837-1.34-2.698-1.339-10.493-3.218-14.251-5.376-3.758-2.14-11.553-9.115-12.892-10.734-1.08-1.879-2.159-2.678-2.159-2.678s-3.498-.54-5.916-.54c-2.419-.28-10.214 1.62-13.432 4.018-3.218 2.698-3.498 1.619-4.038 3.757-.54 2.419-1.08 4.298-3.758 7.796-2.958 3.218-5.116 7.515-5.376 14.231-.26 6.716.54 8.595-1.08 16.65-1.339 7.775-1.339 8.855-2.418 12.352-1.08 3.478-1.08 1.88-.8 6.976 0 4.837.26 11.273.8 16.37.54 5.117.28 11.014.82 15.311.799 4.038.799 5.916 1.878 7.515 1.06 1.34 1.88 3.758 1.06 6.996-.52 2.938 0 2.399-1.34 5.357-1.339 2.698-1.878 2.159-1.878 4.577-.26 2.679.54 4.298-.54 5.897-1.34 1.339-3.498 4.297-3.758 5.916-.28 1.879.8 4.557.8 4.557s0 2.419 7.535 5.917c7.516 3.757 31.181 4.297 37.098 4.817 5.896.54 16.11.82 19.888 1.08 3.757.279 14.77 1.618 15.59 1.338.8-.26 3.758 17.45 3.758 17.45l4.557 6.995 2.159 2.939s2.418-1.88 5.636-1.88c2.959 0 5.917.54 7.276-.799 1.06-1.08 2.139-.8 2.938-1.08.82-.519 2.419.54.54-2.937-1.6-3.498-2.958-5.637-4.557-11.014-1.88-5.097-.54-5.636-3.498-10.213-3.218-4.558-5.637-15.291-7.536-19.329-1.599-4.017-3.757-11.533-5.376-15.83a220.754 220.754 0 0 0-3.758-8.595s-1.08-2.418.54-6.176c1.619-3.758 2.698-4.298 5.116-9.674 2.14-5.097 5.097-8.855 3.758-16.65-1.34-8.055-4.037-10.474-4.037-10.474s2.958-3.218 5.656-5.896c2.938-2.679 10.734-7.796 11.273-8.855.54-1.08-3.218-17.989-8.594-24.985-5.117-6.976-14.792-8.055-14.792-8.055l-2.418 3.758s-1.06-.8-2.419-1.34c-1.339-.539-2.138.28-2.678-1.079-.54-1.599-2.419-4.017-2.419-4.017" fill="none" stroke="#343434" stroke-width=".64" stroke-linecap="round" stroke-miterlimit="8"/><path d="M97.58 89.266c-.519.82-1.338 1.36-1.878 1.899-.54.8-.26 1.339-.8 2.138-.28.82-.54.54-1.079 1.08-.8.82-.54 1.08-1.08 2.158-.539 1.62-1.878 1.62-2.418 2.959-.82 1.079-1.08 2.698-1.879 4.037-1.619 3.218-4.857 6.177-7.275 8.615-.8.8-2.159 1.06-2.699 1.6-1.079 1.358.28 4.037-1.878 4.576-.8.28-1.08-.54-1.62 0-.54.28-.799 1.34-1.079 1.88-.26.539-.54 1.358-1.06 1.618-.279.54-.819.28-1.358.8-.8.82-.8 2.158-1.88 3.238-.799.54-1.338.26-2.158.8-1.08.539-1.34 1.618-2.159 2.418" fill="none" stroke="#343434" stroke-width=".64" stroke-linecap="round" stroke-miterlimit="8"/><path d="M68.219 126.124c0-2.14.26-4.818 0-6.696 0-1.62-1.36-2.419-1.62-4.038 0-1.34.26-2.418 0-3.758-.28-1.339-1.079-2.678-1.079-4.017.26-1.62.54-2.419-.28-3.758-.8-1.34-1.878-2.418-2.438-4.037m-.16-20.708c0 5.117 4.557 9.954 6.976 14.251 2.398 4.018 3.198 8.315 4.537 12.613m-1.039-10.154c.26 0 1.759 6.756 1.998 7.835" fill="none" stroke="#343434" stroke-width=".64" stroke-linecap="round" stroke-miterlimit="8"/><path d="M106.455 133.36s-15.33 11.292-20.987 17.209c-5.916 5.636-8.874 10.473-13.452 11.293-4.577 1.08-8.075 1.599-14.251-6.736-6.456-8.335-8.615-10.474-10.494-15.59-2.158-4.838-2.158-4.838-4.577-9.955-2.698-4.837-4.037-11.553-4.317-13.971-.26-2.439-4.038-8.355-4.038-8.355m66.5 67.799s.54 8.075-1.08 12.093c-1.359 4.297-2.178 6.716-2.178 6.716s1.899 2.958 1.899 7.515c.28 4.577 0 4.577 1.099 8.595.8 4.037 1.879 6.176 1.62 8.595 0 0 0 1.619-3.259 2.138m-1.36-26.943s-3.817 6.256-4.636 10.313" fill="none" stroke="#343434" stroke-width=".64" stroke-linecap="round" stroke-miterlimit="8"/><path d="M111.812 34.819c-.28.28-.28.54-.28.8v.52c-.28.539-.28.799-.56 1.058 0 .52-.28.8-.559 1.06-.28.26-.28.78-.28 1.04 0-.26.56-1.04.56-1.3.28-.54.56-.8.84-1.06 0-.52 0-.799.28-1.059v-1.06zm-3.198-1.279c0 .28.24.82.24 1.079v1.08c0-.54.24-.8.24-1.08 0-.54-.24-.8-.48-1.08z" fill="#343434" fill-rule="evenodd"/><path d="M98.3 41.015c0-.28.26-.52.56-.52.32 0 .56.24.56.52 0 .3-.24.52-.56.52-.3 0-.56-.22-.56-.52zm13.992 5.237c0-.22.18-.4.4-.4.24 0 .4.18.4.4 0 .24-.16.4-.4.4-.22 0-.4-.16-.4-.4z" fill="#fff" fill-rule="evenodd"/><path d="M98.58 63.242c.28-.26.54-.26.82-.54.54-.26.82-.54 1.359-.54.82-.26 1.36-.8 2.179-.8.54 0 1.079-.279 1.619-.279.54-.28.54 0 1.099.54 0 0 .26.28.54.28 0 .26.26.26.54.26.28.28.539.819.819 1.079 0 .54.26 1.079.26 1.359-.26.54-.54.8-.8 1.339-.28.28-.28.54-.56.54-.26-.8-.799-1.62-1.359-2.159-.26-.26-.8-.54-1.079-.8l-.82-.819c-.82-.26-1.619.28-2.438.82-.82.26-1.899-.28-2.459-.28zm-.48.28c.8.28 1.6.819 2.14 1.619.799.799 1.059 1.339 2.138 1.599.8.26 2.139-.26 2.938.26.26.54.26.54-.26 1.079-.28.26-.28.54-.54 1.08 0 .259 0 .519-.26.799-.279.26-.819.26-1.079.26-.8 0-2.138.26-2.678-.26-.26-.28-.26-1.34-.52-1.62-.28-.52-.54-1.059-.82-1.598-.259-.54-.519-1.06-.799-1.34 0-.26-.26-.54-.26-.8-.28-.259-.28-.799-.28-1.078z" fill="#f7bfa9" fill-rule="evenodd"/><path d="M99.58 66.22c.88.82.58 1.899 1.159 2.978.86.8 1.44 0 1.44-.82.279-.799-.28-1.079-.86-1.618-.3-.26-1.44-1.08-1.74-.54zm3.837-4.098c.86.28.86.56 1.44 1.12.28.28.839.28 1.119-.28 0-.28-.28-.84-.56-1.12-.28-.28-1.419-.56-1.419 0z" fill="#fad1c3" fill-rule="evenodd"/><path d="M101.538 68.319c-.28.56 0 1.679.82 1.119.26-.56 0-1.12-.54-1.12z" fill="#f9e9e4" fill-rule="evenodd"/><path d="M8.675 473.213s0 4.018-.28 5.617c-.54 1.879-1.08 10.453 9.454 12.332 6.196 1.06 12.673.54 13.752.26 1.08-.26 4.577-2.398 5.656-4.017.82-1.6 1.88-3.478 1.08-4.817-.8-1.6-.8-8.575-.8-8.575s-11.613-8.575-28.862-.8z" fill="#608f60" fill-rule="evenodd"/><path clip-path="url(#a)" d="M35.299 488.964s-.52-1.94-3.198-1.94c-2.679.28-13.352 4.398-17.11 3.039" fill="none" stroke="#343434" stroke-width=".64" stroke-linecap="round" stroke-miterlimit="8"/><path d="M18.988 481.268s1.9-1.359 4.878-1.899c1.359-.26 3.238.28 4.597.28 1.08-.28 2.438-1.099 3.518-1.099 1.619 0 2.958 1.1 4.037 1.919m-13.991-9.754 1.839 8.714m7.754-.719-3.277-7.675" fill="none" stroke="#343434" stroke-width=".64" stroke-linecap="round" stroke-miterlimit="8"/><path d="M32.22 477.69s-5.896-2.938-9.674 1.06m8.795-3.638s-6.076-1.32-9.274 1.32m7.995-4.018s-5.977-1.34-8.715 1.06" fill="none" stroke="#343434" stroke-width="1.199" stroke-linecap="round" stroke-miterlimit="8"/><path d="M145.652 464.558s7.555 7.536 9.974 9.695c2.158 2.138 3.757 5.636 2.958 7.775-1.08 2.418-4.577 3.238-9.414 3.778-5.117.26-10.234 1.059-13.212-.54-2.959-1.879-11.034-8.875-15.351-9.674 0 0 21.007-11.034 25.045-11.034z" fill="#608f60" fill-rule="evenodd"/><path clip-path="url(#a)" d="M8.675 473.213s0 4.018-.28 5.617c-.54 1.879-1.08 10.453 9.454 12.332 6.196 1.06 12.673.54 13.752.26 1.08-.26 4.577-2.398 5.656-4.017.82-1.6 1.88-3.478 1.08-4.817-.8-1.6-.8-8.575-.8-8.575s-11.613-8.575-28.862-.8m136.977-8.655s7.555 7.536 9.974 9.695c2.158 2.138 3.757 5.636 2.958 7.775-1.08 2.418-4.577 3.238-9.414 3.778-5.117.26-10.234 1.059-13.212-.54-2.959-1.879-11.034-8.875-15.351-9.674 0 0 21.007-11.034 25.045-11.034" fill="none" stroke="#343434" stroke-width=".64" stroke-linecap="round" stroke-miterlimit="8"/><path d="M148.47 469.715s-3.778-1.119-5.677 2.239m3.998-4.118s-4.038-.52-6.476 2.599" fill="none" stroke="#343434" stroke-width="1.199" stroke-linecap="round" stroke-miterlimit="8"/><path clip-path="url(#a)" d="M158.584 482.108s-1.34.78-2.419.26-2.978-.78-4.597.78c-1.359 1.558-3.778 2.338-4.337 2.598" fill="none" stroke="#343434" stroke-width=".64" stroke-linecap="round" stroke-miterlimit="8"/><path d="M18.949 207.035s-3.498 4.037-3.498 7.535c0 3.478.54 7.515-1.08 15.83-1.879 8.335-.82 8.075-2.958 12.893-2.159 4.837-2.698 6.176-1.619 10.213 1.08 4.038 1.879 6.976 1.879 6.976s-1.879 5.657-.54 9.674c1.36 4.038 2.419 4.837 2.699 8.335 0 3.218 0 22.287-.28 30.062-.26 7.535-1.06 18.01-.52 22.566.26 4.298-.54 5.377-1.36 11.014-.799 5.916-1.338 3.757-1.338 8.854-.28 5.377 0 11.293 0 15.311-.28 3.758-.8 7.256-2.958 15.05-2.16 7.776-4.038 19.07-4.578 22.287-.28 3.218 2.159 4.038 2.419 9.675.54 5.896 3.498 24.705 2.698 32.22-.82 7.515-.28 8.055-.82 12.632-.539 4.298-.539 5.097-1.338 5.637-.54.8-.8 2.139 0 3.218.799 1.34 1.878 6.176 1.878 6.176s1.9 1.62 5.657 0c3.498-1.339 10.773-4.297 19.368-.54 8.615 4.038 7.536 3.758 8.615 2.42 1.08-1.08 2.698-1.62 2.419-4.298-.54-2.959-.8-8.595.54-13.432 1.358-5.097 2.957-8.315 1.898-9.654-1.36-1.36-2.698-16.39-1.08-24.725 1.6-8.055 5.377-30.062 5.377-35.439 0-5.636-1.339-33.3.26-38.936 1.9-5.657 7.816-28.203 8.615-36.258 1.08-8.335 4.577-30.622 4.577-30.622s3.498 12.892 5.917 20.948c2.698 8.055 8.075 23.086 8.075 30.081.28 6.716 7.815 32.5 9.154 38.937 1.08 6.456 2.159 7.795 3.218 11.273.82 3.498 3.778 20.148 3.778 27.123 0 6.996 1.08 18.27 2.419 23.646 1.619 5.377 2.698 13.972 5.376 19.328 2.699 5.377 5.397 5.637 4.318 9.135-1.08 3.498-1.08 8.335-1.08 8.335s5.117 5.896 9.155 5.896c3.758-.26 8.335 1.34 13.452-1.599 5.117-3.238 6.456-1.879 8.874-4.297 2.419-2.159 6.996-4.298 8.875-4.298 2.159-.28 3.498-.54 3.498-.54s-1.06-3.757-4.557-7.795c-3.778-4.017-4.038-6.176-5.937-11.812-1.879-5.637-5.916-19.329-7.535-25.525-1.6-6.436-2.959-14.77-3.218-17.989-.28-2.958-.82-15.03 0-21.207.8-5.917.54-13.972-1.62-17.99-2.158-4.297-4.836-11.292-5.916-13.71-1.339-2.42-1.879-2.68-1.879-6.177 0-3.478.54-5.897-.82-8.855-1.079-2.958-.259-3.218-.259-5.377 0-1.878-.54-1.339-1.08-5.376-.28-4.298-.799-24.965-1.339-30.602-.54-5.916-3.497-27.943-4.857-33.84-1.079-6.175-1.878-20.427-3.757-23.105-1.88-2.679-4.038-17.99-4.038-17.99s-4.037 1.88-6.996-1.079c-3.238-2.678-5.656-2.418-10.773-2.138-5.377.26-12.912-2.959-18.569-1.88-5.636.8-18.828-.819-22.326-.28-3.498.54-11.034-.539-13.732-1.618-2.678-.8-9.954-1.06-10.753-4.297z" fill="#6f6ead" fill-rule="evenodd"/><path clip-path="url(#a)" d="M18.949 207.035s-3.498 4.037-3.498 7.535c0 3.478.54 7.515-1.08 15.83-1.879 8.335-.82 8.075-2.958 12.893-2.159 4.837-2.698 6.176-1.619 10.213 1.08 4.038 1.879 6.976 1.879 6.976s-1.879 5.657-.54 9.674c1.36 4.038 2.419 4.837 2.699 8.335 0 3.218 0 22.287-.28 30.062-.26 7.535-1.06 18.01-.52 22.566.26 4.298-.54 5.377-1.36 11.014-.799 5.916-1.338 3.757-1.338 8.854-.28 5.377 0 11.293 0 15.311-.28 3.758-.8 7.256-2.958 15.05-2.16 7.776-4.038 19.07-4.578 22.287-.28 3.218 2.159 4.038 2.419 9.675.54 5.896 3.498 24.705 2.698 32.22-.82 7.515-.28 8.055-.82 12.632-.539 4.298-.539 5.097-1.338 5.637-.54.8-.8 2.139 0 3.218.799 1.34 1.878 6.176 1.878 6.176s1.9 1.62 5.657 0c3.498-1.339 10.773-4.297 19.368-.54 8.615 4.038 7.536 3.758 8.615 2.42 1.08-1.08 2.698-1.62 2.419-4.298-.54-2.959-.8-8.595.54-13.432 1.358-5.097 2.957-8.315 1.898-9.654-1.36-1.36-2.698-16.39-1.08-24.725 1.6-8.055 5.377-30.062 5.377-35.439 0-5.636-1.339-33.3.26-38.936 1.9-5.657 7.816-28.203 8.615-36.258 1.08-8.335 4.577-30.622 4.577-30.622s3.498 12.892 5.917 20.948c2.698 8.055 8.075 23.086 8.075 30.081.28 6.716 7.815 32.5 9.154 38.937 1.08 6.456 2.159 7.795 3.218 11.273.82 3.498 3.778 20.148 3.778 27.123 0 6.996 1.08 18.27 2.419 23.646 1.619 5.377 2.698 13.972 5.376 19.328 2.699 5.377 5.397 5.637 4.318 9.135-1.08 3.498-1.08 8.335-1.08 8.335s5.117 5.896 9.155 5.896c3.758-.26 8.335 1.34 13.452-1.599 5.117-3.238 6.456-1.879 8.874-4.297 2.419-2.159 6.996-4.298 8.875-4.298 2.159-.28 3.498-.54 3.498-.54s-1.06-3.757-4.557-7.795c-3.778-4.017-4.038-6.176-5.937-11.812-1.879-5.637-5.916-19.329-7.535-25.525-1.6-6.436-2.959-14.77-3.218-17.989-.28-2.958-.82-15.03 0-21.207.8-5.917.54-13.972-1.62-17.99-2.158-4.297-4.836-11.292-5.916-13.71-1.339-2.42-1.879-2.68-1.879-6.177 0-3.478.54-5.897-.82-8.855-1.079-2.958-.259-3.218-.259-5.377 0-1.878-.54-1.339-1.08-5.376-.28-4.298-.799-24.965-1.339-30.602-.54-5.916-3.497-27.943-4.857-33.84-1.079-6.175-1.878-20.427-3.757-23.105 0 0 0 0 0 0-1.88-2.679-4.038-17.99-4.038-17.99s-4.037 1.88-6.996-1.079c-3.238-2.678-5.656-2.418-10.773-2.138-5.377.26-12.912-2.959-18.569-1.88-5.636.8-18.828-.819-22.326-.28-3.498.54-11.034-.539-13.732-1.618-2.678-.8-9.954-1.06-10.753-4.297" fill="none" stroke="#343434" stroke-width=".64" stroke-linecap="round" stroke-miterlimit="8"/><path d="M13.872 278.191c0-6.176.28-12.352.28-18.249 0-2.698.54-5.116.54-7.795.259-2.678-.28-5.377.259-8.055.8-5.916 4.557-11.013 5.377-16.93.52-2.678.8-5.636.8-8.594.259-2.419.259-6.177 1.059-8.335m13.192 14.151H32.14s-.28 11.593-1.9 17.25c-1.898 5.376-4.856 15.61-5.416 21.527l3.518-.26s-.26-3.238 2.718-9.435c3.238-6.176 5.117-23.425 4.318-29.082m28.503 58.285c-.28-5.057 1.06-9.874 2.399-14.412.54-1.878.54-3.997 1.08-5.876.259-.8.259-1.879.539-2.399.26-1.079.8-1.599 1.06-2.418m7.355-12.153c.28-1.06 1.06-2.138 1.599-3.498 1.299-2.958 1.839-5.916 2.878-8.894m17.349 115.29c.28 1.34 1.62 2.139 2.699 2.938 3.198 2.678 6.156 5.357 9.634 7.755 5.896 3.998 10.454 9.874 16.61 13.612m-116.889-4.797c.28.8.8-1.599 1.339-2.139 1.06-2.678 2.399-5.097 3.458-7.515 3.198-6.436 6.936-11.793 7.995-19.049m73.476 84.829c.28 2.439 2.178 5.117 3.258 7.536 1.619 3.218 2.418 6.715 3.497 10.213 1.36 4.038 2.439 8.075 3.778 11.833 2.439 6.176 3.778 12.912 3.778 19.348" fill="none" stroke="#343434" stroke-width=".64" stroke-linecap="round" stroke-miterlimit="8"/><path d="M124.445 244.372c1.099 2.418 3.258 6.696 4.337 8.575 1.34 2.938.8 3.757.26 6.156-.26 2.418-.8 5.896-1.34 7.755-.28 2.159-2.438 3.218-3.517 4.837-1.36 1.6-1.9 1.06-4.338 1.86-2.158.799-2.698 0-2.698 0s-1.34.799-2.698.799c-1.36 0 0-3.198 0-3.198s-2.979 1.599-3.778-.28c-.54-1.859 2.418-2.679 3.498-2.938l.28-1.08s-4.058.28-4.318-1.06c-.56-1.338 1.62-1.078 2.419-1.338.28-.54 1.359-1.08 1.899-1.6 0-.539 0-1.339.26-1.878.56-1.62.28-1.879.28-3.758 0-1.599 0-2.678-1.08-4.537-1.08-1.34-1.62-4.557-1.62-5.897 0 0 1.34-.54 2.42-.54 1.359 0 6.236.54 7.315-.539 1.34-1.06 2.419-1.34 2.419-1.34z" fill="#f8f3ed" fill-rule="evenodd"/><path d="M124.445 244.372c1.099 2.418 3.258 6.696 4.337 8.575 1.34 2.938.8 3.757.26 6.156-.26 2.418-.8 5.896-1.34 7.755-.28 2.159-2.438 3.218-3.517 4.837-1.36 1.6-1.9 1.06-4.338 1.86-2.158.799-2.698 0-2.698 0s-1.34.799-2.698.799c-1.36 0 0-3.198 0-3.198s-2.979 1.599-3.778-.28c-.54-1.859 2.418-2.679 3.498-2.938l.28-1.08s-4.058.28-4.318-1.06c-.56-1.338 1.62-1.078 2.419-1.338.28-.54 1.359-1.08 1.899-1.6 0-.539 0-1.339.26-1.878.56-1.62.28-1.879.28-3.758 0-1.599 0-2.678-1.08-4.537-1.08-1.34-1.62-4.557-1.62-5.897 0 0 1.34-.54 2.42-.54 1.359 0 6.236.54 7.315-.539 1.34-1.06 2.419-1.34 2.419-1.34" fill="none" stroke="#343434" stroke-width=".64" stroke-linecap="round" stroke-miterlimit="8"/><path d="M114.45 266.838s1.12-1.879 2.48-2.158m-2.48 6.476s1.4-1.06 2.5-1.06c1.118-.28 1.658-1.899 1.658-1.899m-1.399 5.357s-.28-2.358 3.238-3.678m.8-.879s1.059-1.6 1.838-2.119c.78-.54.52-2.398 1.04-3.478m-1.04-1.119s1.32.56 1.84-.56" fill="none" stroke="#343434" stroke-width=".64" stroke-linecap="round" stroke-miterlimit="8"/><path d="M113.97 246.53s.54 5.637 2.94 8.036c0 0 .259.8.259 2.398-.26 1.62 0 2.139-.26 3.478-.26 1.08-.8 7.755 2.659 7.755 3.737 0 2.138-5.876 2.138-5.876s0-4.537.26-5.617c.28-1.339 1.08-2.398 1.08-3.218 0-.52.52-1.858.52-1.858" fill="none" stroke="#343434" stroke-width=".64" stroke-linecap="round" stroke-miterlimit="8"/><path d="M122.766 254.526s.6 1.399 1.199 1.679m-5.477 11.513s-1.399-4.018 1.1-4.278c2.218-.28 1.679 4.278 1.679 4.278" fill="none" stroke="#343434" stroke-width=".64" stroke-linecap="round" stroke-miterlimit="8"/><path d="M69.298 52.808c.8.54 1.879 1.08 2.958 1.08-1.08 2.938-1.08 5.616-.26 8.574.26 1.06.8 2.399.54 3.738-.28 1.08-1.08 3.758-2.159 4.277.26-1.859 1.34-4.817.26-6.416-.8-1.339-2.159-1.339-3.238-.8-1.08.8-1.619 2.14-2.698 2.939-.8.8-1.88 1.08-2.699 1.879 1.36-1.34 2.439-3.478 3.778-5.097.54-1.06 1.36-1.859 1.899-2.938 1.08-2.399.8-5.357 1.619-7.236zm2.299 18.249c1.359-1.1 1.639-2.718 1.898-4.098.82.56.82 1.92 1.36 2.739.54.82 1.339 1.359 2.158 1.899 1.36 1.359 2.699 2.718 3.778 4.077-2.958-.54-6.476-2.179-8.095-4.617zm39.156-23.926c0 2.419 1.859 5.117.8 7.256-.8 2.139-4.278 2.678-4.818 4.837-.28 1.34.8 2.938 1.34 3.738 0-.8 0-1.859.26-2.679.539-.8 1.079-1.059 1.598-1.339 1.34-.8 1.88-2.418 2.419-3.757 1.06-2.939-.8-5.097-1.08-8.056zm2.119-6.735c0-.54-1.64-.54-1.92-.26-.539.54-.26 1.619-.26 2.158 0 .26-.559 1.08 0 1.34.26.28 1.08 0 1.64.54 0-.54-.28-1.34.54-1.34-.54 0-2.18 0-1.92-.82.56-.799 1.92-.54 2.46-.26-.26-.28-1.08-1.079-.26-1.618zm-2.939-20.688c-1.339-.56-2.958 2.159-3.757 2.978-.54.54-1.34 1.08-1.88 1.64-.799.26-1.338.539-1.878 1.079-1.08 1.079-1.62 2.438-2.958 3.517-.8.28-1.6.82-2.139 1.36-1.08.56-1.879 1.099-2.698 1.639.82.26 1.619-.54 2.158-.82 1.62-.54 2.959-1.359 4.298-2.179 2.138-1.079 4.017-2.158 5.636-3.797 1.62-1.36 3.758-3.518 5.897-3.258-.8-.8-1.34-1.62-2.139-2.159zm-6.995-.22c-1.6.26-2.939-.54-4.298-.82-.8 0-1.599.54-2.418.82-.52.26-1.34.26-2.139.54-.8.52-1.08 1.06-1.879 1.599-.82.54-1.34 1.08-2.159 1.619-.8.8-2.138 1.879-3.218 2.139-.54 0-.8-.26-1.339.28-.54.26-.82 1.059-1.08 1.598-.539 1.08 0 2.16-.259 3.239-.28.52-.54.799-.82 1.059-.799.54-1.339.28-1.878.54-1.08.8-1.62 3.218-1.62 4.557.28-1.06 1.62-1.88 2.42-2.399 1.358-.82 2.158-1.879 2.698-3.498 1.339-2.418 3.218-4.557 5.376-5.916 2.679-1.6 5.097-3.218 7.796-4.018.799-.28 1.599-.54 2.398-.8.54 0 1.08-.539 1.899-.539zM70.317 42.134c0-.819-1.079-2.438-1.878-2.158-1.64 0-1.08 2.958-.54 4.037 0-1.339.8-4.317 2.418-2.418zm1.679 3.378c-.52 0-.8-.54-1.319-.54-.28.28-1.08 1.36-1.08 1.62 0 .54 1.08.54 1.6.54.54 0 1.599-.8 1.08-1.08zm29.043 6.976c0 1.62-.8 3.238-1.88 4.298-1.078 1.339-2.438 2.958-4.057 4.017 1.08 0 2.699-1.859 3.238-2.678.82-.54 1.36-1.34 1.9-2.139.26-.54 1.079-1.08 1.338-1.619v-1.599h-.26zm4.937 8.635c-.6-1.06-.3-1.879 0-2.958-.3.54-1.2 2.158-.3 2.438zm-10.394 9.414c.54-.52 1.34-1.04 2.139-1.04.54-.259 1.339.26 1.859.52-.26-.26-1.06-2.078-1.32-2.338-.28 0-2.398 2.858-2.398 3.118z" fill="#f5e2d8" fill-rule="evenodd"/><path d="M97.58 63.042h.82c.54 0 .82-.28 1.08-.56.54 0 .82-.28 1.359-.56.82-.56 1.899-.839 2.698-.839.54 0 1.36-.28 1.9 0 .279.28.279.84.819 1.12.26.28.8-.28 1.079 0 .26.28.54.839.54 1.099 0 .56.26.84 0 1.399 0 .28-.28.56-.54.82.26-.54.26-1.1.26-1.94 0-.28-.26-1.099-.8-1.099-.28 0-.54.28-.82 0-.26 0-.539-.56-.799-.56-.56-.56-1.1-.56-1.639-.28-1.08.28-2.158.56-2.978 1.12-.8.28-2.418 1.1-2.978.28z" fill="#343434" fill-rule="evenodd"/><path d="M101.099 63.262c-.54.3-1.34.3-1.88.3-.539 0-1.078-.3-1.638-.6.56.6 1.1.6 1.639.6.54 0 1.08.28 1.619.28v-.28zM98.14 64.6c.82.82 1.08 1.9 1.62 3.259 0 .54.54 1.639 1.079 2.179.54.28 1.36.28 2.159.28.28 0 .54-.28.82-.28.259 0 .539.28.799.28-.26.26-.26.54-.54.799-.26 0-.8-.26-1.08-.26-.799 0-1.339 0-2.158-.28-.54-.54-1.08-1.08-1.34-1.619-.539-.82-.539-1.639-.819-2.178-.26-.54-.26-.82-.54-1.36v-1.099z" fill="#343434" fill-rule="evenodd"/><path d="M115.31 94.223c1.34 1.599 3.498-4.577 4.038-5.637 1.079-1.359 1.619-2.418 1.619-2.418 2.418.26 2.678-.82 2.958-1.62.52-.799 1.34-1.338 2.139-2.678.54-1.619-.8-2.958-.8-2.958 2.139-2.159.54-4.037.54-4.037.26-1.88-1.36-2.14-1.36-2.14s-.52-1.358-.799-2.158c-.54-.8-4.037-1.879-4.037-1.879.28-1.878-.8-2.418-1.88-2.698-1.079 0-6.455 0-9.414.28-3.218 0-3.757 2.958-3.757 4.837 0 1.619-.28 4.017-1.08 6.436-.54 1.899-2.158 6.456-2.698 8.075 0 0 8.355 1.06 14.531 8.595z" fill="#f8f3ed" fill-rule="evenodd"/><path d="M115.31 94.223c1.34 1.599 3.498-4.577 4.038-5.637 1.079-1.359 1.619-2.418 1.619-2.418 2.418.26 2.678-.82 2.958-1.62.52-.799 1.34-1.338 2.139-2.678.54-1.619-.8-2.958-.8-2.958 2.139-2.159.54-4.037.54-4.037.26-1.88-1.36-2.14-1.36-2.14s-.52-1.358-.799-2.158c-.54-.8-4.037-1.879-4.037-1.879.28-1.878-.8-2.418-1.88-2.698-1.079 0-6.455 0-9.414.28-3.218 0-3.757 2.958-3.757 4.837 0 1.619-.28 4.017-1.08 6.436-.54 1.899-2.158 6.456-2.698 8.075 0 0 8.355 1.06 14.531 8.595" fill="none" stroke="#343434" stroke-width=".64" stroke-linecap="round" stroke-miterlimit="8"/><path d="M119.568 68.638s-3.758-.76-4.298-1.019c-.82-.26-4.057-1.3-5.137 0m14.312 5.017s0 1.16-.32 1.999" fill="none" stroke="#343434" stroke-width=".64" stroke-linecap="round" stroke-miterlimit="8"/><path d="M125.804 75.114s-3.478-1.878-4.278-2.138c-.8-.28-1.339-.54-1.879-.54-.799-.28-2.398-2.438-4.557-1.08m10.154 7.436s-1.32-1.299-2.119-1.819c-.52-.52-2.378-3.138-4.517-2.598m1.999 11.933c.32-.54.64-.8.64-1.36m1.279-4.157c.24.56.24 1.1 0 1.639-.24.54-.24 1.34-.72 1.879" fill="none" stroke="#343434" stroke-width=".64" stroke-linecap="round" stroke-miterlimit="8"/><path d="M122.286 83.11c.28 0 .56-.16.84-.16h.839" fill="none" stroke="#343434" stroke-width=".64" stroke-linecap="round" stroke-miterlimit="8"/><path d="M77.853 246.21c-1.34 4.578-4.318 8.336-6.196 12.633-1.36 3.218-1.9 6.716-2.979 10.214-1.079 3.478-3.238 6.976-2.958 10.733 0 4.038 2.699 7.256 4.038 11.014 7.555 22.286 9.714 46.472 17.809 68.758 1.08 2.419 1.619 5.377 2.418 7.775-1.878-7.775-3.757-15.29-4.037-23.365-.26-6.696.82-13.152.28-19.868-.54-11.813-7.556-22.027-5.677-34.1.54-4.297.28-4.837-2.159-8.055-1.339-1.879-1.619-1.08-2.158-3.778-.26-2.678.82-4.817 1.08-7.235 1.078-6.716-2.42-14.511-.26-20.948zm20.287 97.782c4.558 4.837 8.855 9.374 13.672 13.931 3.738 3.478 8.035 8.295 12.593 10.694.52-2.399-.28-6.417-2.16-8.016-4.536 2.939-17.668-12.052-22.226-14.45zM11.433 361.66c1.62-5.896 4.837-10.473 7.536-15.83 3.218-6.176 3.757-12.352 4.017-19.348-1.879 7.256-4.017 13.712-8.855 18.529-2.958 2.958-3.777 10.753-3.238 15.05zm-5.137 47.032c4.857-1.06 9.694-5.616 13.732-8.575-2.139 5.377-5.377 9.914-6.996 15.81-1.619 6.177-1.619 12.074-1.879 18.49-1.08-4.538-2.158-9.095-2.698-13.652-.28-4.018-2.978-9.114-2.439-13.132z" fill="#5f60a4" fill-rule="evenodd"/><path d="M67.999 265c-1.36.819 3.478 17.749 4.817 20.427 2.678 5.916 5.097 12.093 6.716 18.549 1.879 6.716 3.478 13.691 5.357 20.407.8 1.88 1.619 4.038 2.158 5.917 1.06 2.678 1.06 5.097 1.06 8.055.54 11.553 2.678 23.646 5.097 34.939.799 5.097 1.619 9.654 2.158 14.77.26 2.68 0 5.637.26 8.336.54 2.138 1.34 6.176 3.478 7.235" fill="none" stroke="#343434" stroke-width=".64" stroke-linecap="round" stroke-miterlimit="8"/><path d="M36.498 238.435s0-.54-.26-.26c-.54 4.538-1.879 9.355-3.218 13.632-1.08 4.278-4.038 8.815-3.758 13.352.54-4.537 3.478-9.074 4.298-13.352.8-4.017 1.059-8.814 2.938-12.292zm-13.472 98.201c3.498.54-4.038 15.37-3.758 17.51 2.159-4.298 8.595-12.373 5.377-17.51zm78.792 16.45c-2.138-.54-5.916-4.837-4.017-6.976-4.857-.28.8 6.436 1.879 7.236zm-3.198 46.232c0 .54 3.518 8.795 0 6.936 1.64 1.06 2.439 0 2.719-1.6.54-2.398-1.62-3.197-2.439-5.056z" fill="#8281b8" fill-rule="evenodd"/><path d="M122.026 80.431c.26.8.26 1.62-.26 2.419-.28.54-.82 1.339-1.08 2.158-.259.54-.539 1.34-.799 2.14-.54.539-1.339 1.079-1.619 1.898-.8 1.08-1.059 2.419-1.599 3.498 0 .26-.28 1.34-.82 1.34-.799.259-1.598-1.08-1.878-1.62 1.36.54 1.619-1.34 1.879-1.879.54-1.619 1.359-2.958 2.158-4.297 1.06-1.08 1.88-2.439 2.679-3.778.26-.8.8-1.34 1.339-2.159zm-1.099-6.156c.82-.28 1.879 1.32 2.418 1.859.54.54 1.08 1.339 1.6 1.859 1.338-1.32-2.4-3.198-3.479-3.718zm-2.639-2.878c.54-.28 2.119.52 2.639.78.8.26 1.859.26 2.638.779-1.32-1.04-2.638-1.84-4.477-1.56zm4.797 9.873c0 .54 0 .82-.26 1.08.26.28.8 0 1.06 0 .26.28.26.8 0 .8-.26.28-.8 0-1.06.54-.26 0-.26.28-.26.539-.26.26-.519.54-.519.8-.52.28-.8.799.26.54.52-.26.78-.8 1.32-1.34.519-.8 1.298-1.6.519-2.678-.26 0-.26-.28-.52-.28zm-10.473 165.78v.54c0 .54.28.82.28 1.1 0 .539.28 1.099.28 1.358.799 0 .54-.82.54-1.359v-1.379c0-.54 0-1.1-.54-.54zm1.838-.54c0 .82 0 2.46.56 2.999.54.54 1.08 0 1.62-.28 1.898-.82 4.057-.82 6.495-.82.56 0 1.1 0 1.9-.26.539-.28.539-.28.28-.819 0-.56-.28-1.1-.54-1.639-.28-.56-.28-.84-1.08-.56-.82.56-1.36 1.1-2.458 1.38-.8.26-1.62 0-2.439 0-.8 0-1.619 0-2.439-.28-.54 0-1.339 0-1.619.28zm1.12 8.016c.26.28.52.28 1.04.28 0 1.099-.26 2.478-.26 3.557 0-.54-.26-1.639-.78-.54 0-.539.26-2.738 0-3.017zm.88 5.337c-.8 0-.8.58-1.36 1.139 0-.56.28-1.42.56-1.999.26.3.26.86.8.58zm6.396-4.018c-.28-.28.28.54.28.54.28.26.539.26.819.26 0 .54 0 1.079.28 1.618 0 .28.28.82.54 1.36 0 .54 0 1.339-.54 1.619-.28 0-.82.54-1.1.54-.84.26-.84-.28-.84-1.08v-2.439c0-.54.28-1.619.56-2.158zm-.3 7.875c.26 0 .78 0 .78.26.24 0 .24.78 0 1.04 0 .779-.52 1.299-1.04 1.818.26-.52.26-1.04.52-1.559v-1.299c0-.26 0-.26-.26-.26zm-6.196 1.84c0 .539.54 1.338.819 1.858.54.54.8.54 0 1.06-.56.26-.82.519-1.36 0-.559-.8 0-1.58.26-2.64zm.1-3.519c-.28.78-.28 1.82 0 2.339-.56 0-1.4.52-1.68.78 0-.26 0-1.04.28-1.3.56-.52 1.4-.78 1.12-1.3z" fill="#f5e2d8" fill-rule="evenodd"/><path d="M106.455 68.359c.54-1.08 2.439-.26 3.239.28 1.079.26 2.958 0 3.497.54 1.08 1.078 0 2.158 1.62 2.697 1.339.54 2.138-.28 2.958.8.26.54 0 1.08.26 1.34.26.819.54.539 1.079 1.078.8.54 2.139 1.9 1.339 2.699-1.08 1.879-2.678-.8-3.218-1.34-1.08-1.359-1.899-1.079-2.958-1.898-1.36-.8-2.419-1.879-3.778-2.679-1.879-.82-2.678-.82-3.758-2.698zm6.477-45.853s5.356 6.436 3.757 18.47c0 0 1.08-10.435-3.757-18.47zm-2.719 26.264c-.28 1.34.82 2.419 1.1 4.018.26 1.619-.84 2.698-2.22 3.218.84-.8 1.66-1.599 1.66-3.218 0-.54-.28-1.06-.28-1.879-.26-.8-.26-1.599-.26-2.418zm-6.496 3.558c-.52.26-.78.52-1.04 1.02-.26.52-.539 1.779.26 1.779-.26-.76 0-2.02 1.04-2.539zm2.139 1.559c.84-.26 1.12.74 1.399 1.24 0-.74-.56-2-1.679-1.24z" fill="#fff" fill-rule="evenodd"/><path d="M106.935 67.839c-.26.28-.52 0-.8.28-.26.26-.519 1.08-.519 1.619-.54 1.359-.54 2.698-.8 4.057-.28 1.62-.799 2.958-1.079 4.318-.26 1.339-.52 2.698-.8 4.037 0-.54.28-1.08.54-1.619.26-.8.26-1.879.8-2.698.26-1.34.8-2.699 1.06-4.038 0-1.08.279-1.899.539-2.978 0-.8.26-1.619 1.06-1.879zM98.3 71.397c.84-.28 1.96.78 2.24 1.559.559 1.06.279 2.378-.56 2.898-1.4.78-1.12-.52-.84-1.32.28-.779.28-1.838-.56-2.618zm1.36-21.547c.8.82.26 2.958-.28 3.777-.54 1.34-1.62 2.419-2.699 3.758l-1.619 1.62c-.54.26-1.639.519-1.359-.54.28-.82 1.62-1.62 2.439-2.419 1.08-1.36 2.438-3.238 3.238-5.117zm-29.822.48c.54.839 1.339 1.678 2.398 1.678.54 0 2.399 0 2.139-1.119-.26-.56-.8-.28-1.34-.28-.799.28-1.598.28-2.118-.28zm3.558 4.797c-1.08 1.359-.54 4.617-.28 6.236.54 1.899 1.599 4.337 2.678 5.976a37.73 37.73 0 0 0 4.257 5.137c1.34 1.36 2.659 2.718 4.258 3.518-.26-.26-.26-.26-.26-.54-.8-.8-1.34-1.339-1.859-2.158-1.599-1.9-2.938-4.058-4.537-5.957-1.06-1.639-2.139-3.538-2.658-5.437-.8-1.619-1.6-4.057-1.34-5.956zm42.734 195.841c-.56 1.08 1.079 2.438 1.359 3.518.26 1.1 0 2.178 0 3.538.26 2.718-.56 5.156.26 7.855-.26-.8-.26-1.34 0-2.159 0-.54.28-.82.54-1.08v-1.099c-.26-.799-.26-1.619-.26-2.438 0-1.36.26-2.718.26-4.058 0-.82-.26-1.359-.54-2.178-.54-.82-1.36-1.36-1.36-2.179zm10.153-1.259c.54 1.619 1.9 2.958 1.9 4.577.26 2.159 0 4.037-.54 5.916 0-1.599.54-3.757 0-5.376 0-.8-.54-1.34-.82-2.16-.26-1.058-.26-2.418-.26-3.497z" fill="#fff" fill-rule="evenodd"/><path d="M36.498 482.568c-1.6-3.858-10.194-2.739-13.152-1.38-1.08.28-3.238 1.1-4.038 1.94-2.158 2.458 1.88 1.918 3.218 1.358 2.699-1.099 5.377-1.639 8.335-1.639 1.34.28 4.578 1.92 5.377.54zm119.128-6.756c-1.34-1.62-4.578-1.9-6.456-1.08-1.08.54-1.9 1.08-2.699 1.88-1.339 1.078-2.698 1.338-3.777 2.138-.54.54-1.62 1.619-1.34 2.698.8 2.139 4.318 0 5.377-.8 1.62-.819 3.238-2.158 5.117-2.698 1.619-.54 2.978.54 4.577 0z" fill="#6b9b6b" fill-rule="evenodd"/><path d="M126.124 476.411c.82-1.319 3.777-2.118 5.376-2.658.54 2.658-1.599 2.918.54 5.317 1.34 1.319 2.958 3.438 4.557 3.957-2.138-.26-3.218-1.319-4.817-2.378-1.619-1.06-3.758-2.119-4.837-3.438zm-116.59-1.839c.82-.82 3.238 0 4.597-.82 0 2.68-1.898 4.558-1.619 7.216.26 2.939 1.88 4.538 2.959 6.936-1.34-.52-2.959-1.319-4.038-2.398-2.438-2.399-2.159-5.877-2.159-9.335z" fill="#4f7a4f" fill-rule="evenodd"/><path d="M33.84 111.432c2.958.28 2.158 6.177 2.418 8.595.54 2.419 1.34 5.377 2.678 7.796 3.218 5.356 6.437 10.453 9.395 16.09 2.158 4.297 5.636 8.055 8.315 11.813 2.158 3.238 4.577 6.716 8.315 8.055-8.855-2.399-15.83-9.654-20.108-17.45-1.879-3.478-3.498-6.436-5.097-9.934-1.08-2.418-2.419-5.636-4.837-6.975-10.474-6.716-11.273 26.583-9.654 31.96-2.699-9.934-3.238-23.366-1.08-33.3 1.08-4.837 1.34-9.934 3.218-14.49.54-1.62 2.419-11.294 5.097-6.997zm39.715-19.927c-.28 3.218 1.9 7.495 2.16 10.973.539 3.458.819 6.936 1.618 10.134-.54-7.476 1.62-13.892-3.238-20.568zM61.123 82.09c.28 4.298 4.897 7.776 6.516 11.273 1.899 3.758 3.538 8.335 3.798 12.613-.54-3.218-3.518-6.976-5.417-9.654-3.538-4.837-1.899-9.675-3.798-15.051zm36.178 113.112c-.26 2.398-2.379 5.596-3.178 7.735-.8 2.139-2.139 5.337-2.139 7.455 1.6-2.118 2.938-9.314 6.636-6.396-.78-2.398-.78-5.057-.78-7.715zm4.297-16.95c0 4.837-1.878 9.154-3.238 14.251-.54 2.139 1.36 4.298 1.62 6.716.819 4.038.54 7.796 1.618 11.813-.26-4.017-.26-8.315.82-12.352.54-2.959 2.418-5.097 2.678-8.056 0-3.497-2.138-6.456-2.418-9.674-.26 0-.26-.28-.54-.28zm.16-15.83c-1.059 3.737-10.193-.28-12.072-1.08-2.959-1.08-4.837-.8-7.796.54-2.158 1.34-6.716 4.277-9.414 2.938 4.297 1.6 8.615-1.599 12.912-2.139 3.218-.26 6.177 1.88 9.395 2.679 1.619.26 7.795 1.06 8.315-1.34z" fill="#93c295" fill-rule="evenodd"/><path d="M113.411 93.643c-1.06-4.037-9.694-7.535-13.192-7.815-.54 2.439-2.958 3.778-3.777 5.677-.8 1.079-.8 1.878-1.62 2.678-.799 1.08-1.079 1.36-1.618 2.698-.54 1.08-1.34 1.08-2.14 2.159-.819.82-.539 2.419-1.079 3.498-1.359 2.978-3.517 4.857-5.676 7.275 3.518-2.678 5.936-5.656 8.355-9.154.82-1.08 1.359-2.419 2.159-3.498 1.359-1.08 2.698-1.899 3.517-3.238 1.88-2.418 2.679-3.778 5.657-4.317 1.619-.26 1.619-.54 2.958.28 1.879.799 4.577 1.878 5.937 2.958zm-44.373 33.34c-2.398 0-2.119 1.62-3.458 2.958-1.06 1.06-2.938 1.86-3.737 2.659 1.878-1.32 4.537-1.6 6.136-3.198.8-.8 2.938-2.679 3.458-3.758zm-5.756-24.205c1.399 1.339 1.679 2.678 1.679 4.557-.28 1.599 0 2.398.28 3.738.28 1.339 0 2.678.28 4.017 0 1.34 1.119 2.679.839 3.998-.84-2.399-1.959-4.537-1.959-7.216-.28-1.859 1.4-7.215-.84-8.015zm-5.837-32.181s-7.275-1.08-14.271 1.88c-7.016 3.217-7.556 5.356-9.175 8.594-1.599 3.218-5.916 6.956-6.995 10.174-.82 3.218 6.196-5.897 8.614-9.375 2.699-3.218 2.979-6.176 8.355-8.315 5.137-1.878 13.472-2.958 13.472-2.958zM28.942 208.114c3.238 2.119 6.197 2.398 9.974 2.398 2.419 0 4.837.52 6.996.26 2.159 0 4.318-.8 6.736-.8 4.058-.26 7.815-.26 11.873.26 2.418.28 5.377.8 7.795.54-6.736-4.537-16.43-1.599-23.965-2.138-3.518-.26-7.016-.8-10.514-.8-2.958 0-6.196 0-9.174-.8zm78.093-71.517c.26 1.9 1.6 4.038 1.879 6.196.54 1.62.54 3.498.54 5.377-.54 3.498-2.419 9.155-5.637 11.293 2.419-5.916 6.956-15.33 2.678-21.507zm3.418 69.318c2.419 3.778 2.419 8.895 4.557 12.673 1.08 2.158 2.959 3.757 3.498 6.196 1.06 2.958 1.34 6.196 2.679 9.154 1.059 2.679 2.938 5.117 3.737 7.795-.8-.52-2.398-1.878-3.198-2.958-.82-.8-.54-2.418-2.418-2.158-.8-3.758-1.08-7.796-2.419-11.294-1.879-4.857-4.557-8.894-4.277-14.011z" fill="#bcdbb9" fill-rule="evenodd"/><path d="M96.781 40.416c.54-.56.54.28 1.06.56 0 .259.78.539.52.819 0 .54-.78.28-1.04 0s-.54-.82-.54-1.1zm15.051 4.837c-.3.26-.3.54 0 1.079 0 0 .3.26 0 .54-.6.26-.9-1.9 0-1.9z" fill="#5f5fa3" fill-rule="evenodd"/><path d="M97.58 37.137c.54.56 1.34.28 2.14.56.52.28 1.059.82 1.858 1.1 1.32 1.079 1.06 2.178 1.58 3.537.26-1.639.26-2.718-1.06-3.817-1.06-.82-2.658-1.38-3.977-1.38zm5.358 6.876c-.54.8-1.1.8-1.92.28-.559 1.04 1.66 1.56 1.92 0z" fill="#f5e2d8" fill-rule="evenodd"/><path d="M98.14 15.51c-.799 2.14-5.376 2.4-7.255 2.939-1.62.52-2.958.8-4.317 1.859-1.08.54-1.88.82-2.959.82-3.498 0-5.916 1.318-8.894 3.197-1.34.8-2.958 1.6-4.038 2.679C69.597 28.063 68 29.942 68 31.54c-.28-2.399 1.599-4.537 3.498-6.136-1.62 1.339-3.238 2.658-4.578 3.997.54-1.339 1.34-2.938 2.679-4.277 1.08-1.06 2.698-1.86 3.518-2.938-.28 0-.54.26-1.08.8-1.079.799-2.438 1.618-3.498 2.418-1.619 1.059-2.978 2.138-4.057 3.737 0-.8.54-2.138 1.08-2.938.539-1.34 1.898-2.139 2.158-3.478-1.34 0-2.159 1.34-3.238 2.139.82-1.6 2.698-2.419 2.698-4.277-1.08.26-2.158 1.599-2.698 2.398.28-.26 0-.8.28-1.34 1.08-1.598 2.958-3.197 4.577-3.997 2.698-1.339 6.196-1.879 9.414-2.958 2.699-.8 4.857-2.938 7.556-3.738 1.619-.54 2.958-1.079 4.577-1.079.8 0 1.619.28 2.418.54-1.079 0-2.158.28-2.958.8-1.08.539-1.899 1.338-2.958 1.618 1.34-.28 2.678-.54 4.038-.54-1.62 1.06-3.498 1.34-5.117 2.4-1.08.539-2.439 1.878-3.778 1.878 1.619.26 2.958-.8 4.317-1.06 1.88-.28 3.758-.819 5.657-1.618-.82.54-1.62 1.079-2.439 1.339-1.619.8-3.497 1.599-5.116 2.138 1.898-.54 4.037-.799 6.196-1.339-.54.8-2.159.8-2.958 1.34 1.079 0 2.158-.8 3.238-1.06.8-.28 1.878-.54 2.678-.8-.26.26-.8.52-1.06.8 1.34 0 2.679-1.08 4.038-.8 0 0-.28 0-.28.26.54 0 1.08-.54 1.34-.8zM87.827 8.275c-1.6 1.08-3.758.8-5.377 1.599-1.879 1.08-3.478 2.678-5.377 3.198-3.757 1.34-7.515 2.399-10.753 4.797 1.359-1.06 2.438-2.658 4.317-3.198-.82-.26-1.879.28-2.698.8 1.339-.8 2.698-1.86 4.037-2.919-.28 0-.8.26-1.079.52.28-1.859 2.698-3.997 4.297-4.797 1.08-.26 1.88-.8 2.959-.8 1.079-.26 2.698-.52 3.777-.799-1.899.8-3.498 1.34-5.117 2.399.54-.26 1.08-.52 1.88-.52-.8.26-1.62.8-1.88 1.319.8 0 1.34-.8 2.419-.52-.54.52-1.619 1.06-1.879 1.86 2.159-1.06 4.577-2.14 6.996-2.66-.54.26-1.36.52-1.62 1.06 1.08-.8 2.68-1.339 4.038-1.339z" fill="#571e1d" fill-rule="evenodd"/><path d="M90.785 20.827c-.26 0-1.32.84-1.6 1.12-1.058.54-1.598.54-2.657.54-1.34 0-3.199.28-4.538.839.8-.28 1.88-.56 2.679-.56-.28.56-1.08.56-1.34.84.8.26 1.6 0 2.659-.28-.26 0-.52.28-.52.54 1.6 0 3.718-1.1 4.517-2.759zm-10.993 5.037c-1.9-.56-3.778 0-5.397 1.08-.8.54-1.62 1.619-2.419 2.158-.8.82-1.878 1.1-2.698 1.9 1.08-.26 2.159-1.08 2.978-1.62-.54.28-.82.82-1.359 1.36.82-.28 1.36-.82 2.159-1.08-.54.8-1.62 1.619-2.419 1.879.8 0 1.62-.26 2.139-.54 1.36-.26 2.438-.26 3.518-.8 1.339-.539 3.218-1.898 4.017-2.997-1.599.819-3.218 1.898-5.097 2.178.54-.28 1.08-.82 1.34-1.08-.26 0-.8 0-1.08.26.54-.26 1.34-.799 1.62-1.079l-.28-.28c.819 0 2.158-.54 2.698-1.079zm-.36 5.117c-.52.28-1.06.82-1.32 1.1-1.059.26-2.118.54-3.177.8-1.58.279-3.438.819-4.778 1.618 1.06 0 1.86-.8 3.199-.26-.8 0-1.86.26-2.14.82h1.6c-.26.26-.52.54-.8.54.28.26 1.06 0 1.34.26-1.6.28 1.319 1.618 1.838 1.898 1.86.26 2.659-1.619 3.179-2.978-.78.54-1.84 1.36-2.639 1.36.26-.28.52-.82 1.06-1.08-.8 0-1.32.26-1.86.26.54-.26 1.32-.54 1.86-1.08h-.8c1.32 0 2.918-1.899 3.438-2.978zm-22.546 5.957c-.8 1.079-.8 3.497-.8 5.117 0 .799-.26 1.599-.26 2.678 0 1.08.26 2.139 0 3.218-.26 1.08-.8 1.879-1.599 2.958-.8 1.08-1.32 2.419-1.859 3.498-.52 1.6-.26 2.958-.52 4.557 0 1.62-.799 1.88-1.858 2.958-.54.26-1.06.8-1.34 1.34-.52.82-.52 1.879-.799 2.698 0-.82.28-1.36 1.08-1.619-.28.8-.54 1.619-.28 2.139.28-.52.28-1.34.799-1.88 0 .28 0 .82-.26 1.08.8-.26 1.32-1.879 2.119-2.678.8-.82 1.859-1.08 2.119-2.699 0-.8-.52-1.878-.52-2.938 0-1.359 1.06-2.418 1.579-3.498-.26 1.34-.26 2.419-.26 3.758 0-.8 0-1.879.54-2.418.26 1.878 0 3.218 1.319 4.837-1.06-2.419-.52-5.637 1.06-7.516 1.598-1.879 3.717-4.577 3.977-7.255 0 1.079-1.32 2.678-1.839 3.497-.8 1.06-1.599 1.6-2.139 2.939.28-.8.28-1.34.54-1.88-.54.54-1.06 1.08-1.34 1.62.28-.54.54-1.08.8-1.62 0 0-.26.28-.52.54 0-1.079 1.06-2.138 1.32-3.218 0-1.079-.26-1.878-.26-2.678-.54-1.36-.54-2.159-.54-3.498 0-1.879.28-3.218.54-5.117z" fill="#571e1d" fill-rule="evenodd"/><path d="M82.67 13.012c-.8 1.899-3.758 2.179-5.357 2.439-2.418.54-4.297 1.359-6.456 2.718 1.34-.54 3.498-1.36 5.097-1.08-1.06.54-2.399.54-3.218 1.08.82.26 1.879-.54 2.698-.82v.28c.52.26 1.6-.28 2.399-.28-2.679.82-5.637 1.36-7.516 3.538 2.16-.82 4.038-1.899 6.456-1.899-.819.8-4.577 1.08-4.297 2.439 1.6-.28 2.958-1.36 4.557-1.639-.54 1.1-2.138 1.1-2.678 2.179.54.26 1.08-.28 1.599-.54-.8 1.36-2.399 1.899-3.218 3.238 2.159-1.34 4.297-2.698 6.716-3.778 2.139-.82 4.557-1.359 6.716-1.899 1.06-.28 2.138-.56 2.938-.819-3.758.82-8.575.82-12.073 2.718.8-.56 2.159-.82 2.679-1.639-.8 0-1.88.54-2.939.54.54-.54 1.34-.8 1.88-1.36-.54 0-1.34.28-1.88.28.8-.539 1.88-1.079 2.939-1.618-.8-.28-1.6 0-2.399-.28.52-.26.8-.54 1.06-.82-.54-.54-1.34-.26-2.14 0 2.68 0 4.558-2.438 6.177-3.797zm-5.877-4.497c-1.319.54-2.378.82-3.178 1.899.54-.28 1.34-.54 2.12-.82-.78.82-2.38.82-2.92 1.899.54 0 1.06-.28 1.6-.28-.54.54-1.859 1.08-2.119 2.159h.26c-.52.54-1.06 1.08-1.599 1.619.8 0 1.34-.8 2.139-1.08 1.06-.54 2.118-.799 3.178-1.339-1.06 0-1.86.8-2.918.8.52-.54 1.319-.8 1.858-1.34-.8 0-1.599.26-2.118.8.78-.8 1.319-1.339 2.118-1.879-.54 0-.8 0-1.059.26.52-.8 1.32-2.158 1.859-2.418zm.32 17.669c-.26 0-1.06.28-1.319.54-1.08.54-1.879 1.359-2.678 2.438.8-.82 1.599-1.359 2.398-1.359-.52.54-1.319 1.08-2.118 1.62.52 0 .799-.26 1.319-.26-.26.26-.8.799-.8 1.339.54-.54 2.139-1.08 2.399-1.88-.8 0-1.32.54-2.119.54.8-.54 1.859-1.079 2.119-1.899h-.52l.26-.26zm-.479 6.796c-.26.54-1.1.28-1.38.54-1.099 0-1.938.54-2.778 1.059.84 0 1.4-.26 2.219-.26-.54.26-1.38.54-1.66 1.06h1.4c-.28.28-.56.54-.56.8.28.279.56 0 1.1 0-.28.279-.54.539-.54.799.54 0 1.1-.26 1.939-.26-.84 0-1.94 0-2.499-.26 0-.28.56-.54.82-.8h-.82c.56-.54 1.38-.8 1.38-1.339v-.26c0-.28.839-.8 1.379-1.079zm-20.248 9.674c0 2.439.26 4.577-1.34 6.456-.799 1.36-3.197 3.498-2.658 5.377.26-1.6 1.6-3.218 2.659-4.837-.52.82-1.06 1.619-1.06 2.698 1.06-1.339 1.34-3.238 2.139-4.297.26.26 0 .8 0 1.06 0-.8.26-1.6.52-2.68 0-1.078 0-2.418-.26-3.497z" fill="#672727" fill-rule="evenodd"/><path d="M65.52 47.531c-.26 1.08.8 1.88 1.08 2.679.52 1.579.26 3.457-.28 5.037-.52 1.599-1.6 2.398-2.399 3.737-.52.8-1.599 2.399-1.599 3.178.8-2.118 1.08-4.237 2.399-6.116-.52.54-.8 1.08-1.06 1.6.54-2.12 2.939-3.719 1.6-6.117-.26 1.06.26 1.859.26 2.938 0-1.879-.8-3.738-.8-5.337.28.54.54 1.34 1.339 1.34.26-.8-.54-1.6-.54-2.4zm-3.677-26.384c-.56 1.36-1.12 2.699-1.12 4.038-.28 1.339 0 2.418-.56 3.498-.58.8-1.139 1.339-1.698 2.138-.86 1.36-.86 2.959-.86 4.298.3-1.06.58-1.88 1.14-2.939 0 .54-.28 1.34 0 1.88.28-1.88.839-2.959 2.258-4.838-1.42 2.419-1.42 5.897 0 8.315-.84-2.138-.84-6.436.84-8.055-.28.82-.56 1.62-.56 2.419 0-1.6.56-2.959.56-4.558-.28.54-1.12 1.34-1.12 1.88.56-2.7.56-5.118.84-7.796zm46.771-4.317c-1.06 0-2.398.82-3.198 1.899-1.08 1.079-2.418 2.418-2.958 3.777.28-.54.82-1.359 1.619-1.619-.54.54-1.08.8-1.34 1.34.54-.26.8-.54 1.06-.8-.26.8-1.06 1.08-1.06 1.879.26-.54 1.06-1.08 1.6-1.34-.26.26-.54.8-.8 1.08.26-.54 1.08-.82 1.34-1.08.799-.819 1.339-1.618 2.138-2.158.8-.82 1.6-1.08 2.399-1.619-1.86 0-3.198 1.879-4.538 2.698.8-.82 1.6-1.619 2.399-2.158-.52 0-1.34.54-1.6 1.079.54-.54 1.34-1.36 1.88-1.899-.28 0-.54.28-.54.28.26-.28.8-1.36 1.34-1.08z" fill="#571e1d" fill-rule="evenodd"/><path d="M106.096 18.189c-.8.54-1.58 1.32-1.84 2.119.26-.28.52-.8 1.04-1.06-.26.52-.78.78-.78 1.32 0-.26.26-.54.52-.54-.26.54-.78 1.06-1.059 1.839 1.06-.78 1.859-1.84 2.638-2.619-.52.26-.78.78-1.319 1.06.28-.28.54-.54.54-.8-.26 0-.26.26-.54.52.28-.52.54-.78.8-1.3-.26 0-.26 0-.52.26 0-.26.26-.26.26-.52z" fill="#672727" fill-rule="evenodd"/><path d="M119.108 24.665c-.28.54.26 1.34.54 1.879v2.958c-.28 1.6-.82 3.198-1.36 4.817.28-.54.54-1.619 1.08-2.139 0 .8-.26 1.6-.54 2.399h.28c0 .54-.28 1.08-.28 1.6.28-1.06 1.08-1.86 1.36-2.94.259-1.059.259-2.398.259-3.477 0-.8 0-1.34-.26-2.139-.28-.8-.54-1.879-1.08-2.418z" fill="#371110" fill-rule="evenodd"/></svg>