<svg xmlns="http://www.w3.org/2000/svg" version="1.0" viewBox="0 0 177.638 466.431"><path d="M69.958 33.86c0 .48 0 .68-.24 1.159-2.039 7.195 1.159 19.108 4.077 25.384 2.719 6.077 10.154 8.315 14.671 8.315 4.518 0 11.753-2.918 14.711-8.994 2.24-4.717 4.718-12.593 4.718-19.308z" fill="#fef2ed" fill-rule="evenodd"/><path d="M107.895 40.416c-.44-1.32-.44-3.358-.64-4.918-.48-2.238-.92-4.237-1.16-6.715 0-2.919-.879-5.597-1.998-7.836-.68-1.119-.48-1.998-1.799-1.799-1.599.24-2.478 2.04-4.078 0-.44.24-1.119.68-1.559.68-.24 0-.24-.88-.68-.88-.679.2-1.118.88-1.798 1.12-.68-.92-.44-3.838-1.56-4.038-1.358-.48-2.957 2.679-3.637 3.558-.64-.64-.64-3.118-1.799-3.118-1.12-.44-2.238 1.799-3.358 2.239-1.799-2.919-2.718-1.12-4.277 1.359-.68-.48-.92-2.039-2.039-1.8-1.32.2-1.559 2.44-1.999 3.359-.48-.68-.48-1.56-.92-2.239-2.038.68-3.157 4.478-3.597 6.276-.24 1.12.24 2.24 0 3.358 0 .88-.24 1.8-.44 2.679 0 .44-.24.88-.48 1.559v.68zm-3.119 15.51c0 8.075 3.159 13.032 8.795 15.71 9.714 4.718 24.186 0 33.66 16.19 9.474 16.151 7.235 25.585 11.753 48.052 3.158 15.51 6.316 28.742 7.675 34.139 2.478 10.314 1.999 15.03 3.598 30.541.68 6.517.68 11.673.92 16.39 0 2.919.879 6.277.879 8.755.24 2.039-.2 3.358 0 5.157.44 2.918.92 5.197 1.359 6.316 1.36 4.038 1.799 10.314 2.279 11.193.64.92.44 3.598 0 4.718-.48 1.159-.92 2.478-1.6 4.077-.44 1.12-1.798 3.558-2.478 4.917-.68 1.56-3.838 3.358-6.316 4.278-1.8.879-5.437 2.478-5.877 1.798-.92-1.559.2-2.918 1.56-3.597.679-.68-1.56 1.119-2-.44-.24-.48-.24-.68 0-1.6-.48-.879-.24-.879.44-1.998-1.359-.24-1.119-5.157-.92-7.635-.199-2.039-.879-8.315.24-12.593.68-2.678 1.36-4.717 1.12-6.276 0-.24 0-.44-.24-.68-.64-.879-2.478-6.955-2.918-9.873-.68-2.679-2.239-8.995-4.517-15.271-4.957-15.27-8.115-27.384-8.595-32.78-.44-5.397-6.996-17.99-8.355-20.668-.2 3.798-.64 7.636-.64 10.794 0 6.276 3.598 12.552 7.676 26.464 4.037 13.951 4.717 34.139 3.358 55.726-1.36 21.547-9.235 60.603-14.671 72.316-5.397 11.673-5.877 18.829-6.317 31.86-.44 13.033 1.6 28.064-3.397 46.932-4.957 18.869-6.557 22.027-7.436 30.542 0 3.158.44 4.517 0 7.435-.92 4.478-.92 3.798 1.36 8.075 2.038 2.919 2.917 10.114 4.037 11.473 1.16 1.32.48 2.679 0 3.558.92 2.039-1.56 3.158-2.239 3.158.24 2.479-4.277 2.239-5.437 1.12-1.319 1.359-4.717 1.359-6.076-.2-2.039 1.759-5.876 1.759-8.355-.68-2.478-2.278-2.718-4.717-2.478-7.195.44-2.479-.24-3.159-.68-6.077-.68-3.118-.44-6.036.2-7.635.92-1.999 1.16-2.918 1.16-5.157 0-2.039-.92-5.397.439-8.075 1.799-10.354-4.757-29.222-5.637-54.127 0-2.919-2.718-32.78-2.958-35.499 0 2.719-.68 32.58-.88 35.499-1.598 29.622-6.995 44.253-5.196 54.127 1.359 2.678.44 6.036.44 8.075 0 2.239.44 3.158 1.359 5.157.44 1.599.68 4.517 0 7.635-.44 2.918-.92 3.598-.68 6.077.24 2.478 0 4.917-2.478 7.195-2.479 2.439-6.077 2.439-8.355.68-1.36 1.559-4.757 1.559-6.077.2-.919 1.119-5.436 1.359-5.196-1.12-.92 0-3.159-1.119-2.519-3.158-.44-.88-1.12-2.238 0-3.558 1.16-1.359 2.279-8.554 4.317-11.473 2.24-4.277 2.04-3.597 1.36-8.075-.68-2.918 0-4.277-.24-7.435-.92-8.515-2.239-9.874-7.236-28.743-4.957-18.868-2.918-35.698-3.358-48.73-.48-13.032-.92-20.188-6.356-31.861-5.397-11.713-14.671-50.77-16.03-72.316-1.32-21.587.68-41.775 4.757-55.726 4.077-13.912 7.675-20.188 7.675-26.464 0-3.158-.68-6.996-.92-10.794-1.318 2.679-7.675 15.271-8.114 20.668-.44 5.396-3.598 17.51-8.595 32.78-2.239 6.276-4.038 12.592-4.477 15.27-.68 2.919-2.519 8.995-3.198 9.875-.2.24-.2.44-.2.68-.24 1.558.44 3.597 1.119 6.275 1.12 4.278.68 10.554.24 12.593.44 2.478.44 7.395-.92 7.635.68 1.12.92 1.12.44 1.999.48.92.48 1.12.24 1.599-.68 1.559-2.918-.24-2.039.44 1.12.68 2.279 2.038 1.36 3.597-.24.68-4.078-.919-5.637-1.798-2.479-.92-5.637-2.719-6.316-4.278-.92-1.359-2.279-3.798-2.719-4.917-.44-1.599-1.119-2.918-1.599-4.077-.44-1.12-.68-3.798 0-4.718.48-.879 1.16-7.155 2.519-11.193.2-1.12.64-3.398 1.319-6.316.24-1.799-.44-3.118-.2-5.157.2-2.478.88-5.836.88-8.754.24-4.718.48-9.875 1.159-16.39 1.559-15.511 1.12-20.228 3.598-30.542 1.119-5.397 4.517-18.629 7.675-34.14 4.517-22.466 2.279-31.9 11.753-48.05 9.474-16.19 23.706-11.473 33.42-16.19 5.636-2.679 8.794-7.836 8.794-15.95zm5.677-13.871c.88-1.6-.24-1.6-.68-2.999-.919.24-1.359.92-1.599 1.84-.2-.2-.2-.2-.2-.44 0 1.599-.24 3.198-.48 5.036h.24c2.04.92 2.28-1.838 2.959-3.437h-.24z" fill="#fef2ed" fill-rule="evenodd"/><path d="M69.878 35.059c.2-.68.2-1.36.2-1.84-.2 1.16-.68 2.08-1.12 3.439-.24 1.12-.48 2.958-2.558 2.478-.48.68-.24 1.84-.48 2.759v-.24.44c1.16 1.399 1.16 4.317 3.718 3.437-.48-3.877-.48-7.515.24-10.473z" fill="#fef2ed" fill-rule="evenodd"/><path d="M64.68 17.35c-.24 2.678-2.278 5.596-1.358 8.075.68 1.359 1.359 1.599 1.359 3.158-.24.44-.44 1.359-.44 1.799.2.68.64.88.88 1.359.24 1.319-.88 1.799-.88 2.918 0 .24.44.68.44 1.12 0 .439-.44 1.358-.44 1.558.2.92.88 1.36 1.32 2.04.24.919.24 1.798.479 2.478.2-.92 0-2.04.44-2.719 2.038.48 2.238-1.319 2.478-2.438.44-1.8 1.36-3.158 1.56-4.957.24-.92.479-1.8.479-2.719.2-1.119-.24-2.238 0-3.358.44-1.798 1.559-5.636 3.598-6.316.44.68.44 1.6.88 2.239.479-.88.679-3.118 2.038-3.358 1.12-.24 1.36 1.36 2.039 1.799 1.559-2.479 2.478-4.278 4.277-1.36 1.12-.439 2.239-2.678 3.358-2.238 1.12 0 1.12 2.479 1.8 3.158.679-.92 2.278-4.037 3.597-3.598 1.16.2.92 3.158 1.599 4.038.68-.24 1.12-.88 1.799-1.12.44 0 .44.88.68.88.44 0 1.119-.44 1.558-.64 1.6 2 2.479.2 4.078 0 1.32-.24 1.12.64 1.799 1.8 1.12 2.238 1.999 4.916 1.999 7.875.24 2.438.68 4.477 1.159 6.715.2 1.8.2 3.838.88 5.397.24-.88.679-1.559 1.598-1.799.44 1.36 1.56 1.36.64 2.958 1.36.64 0-8.115 2.279-8.554-1.12-.92.2-3.398 0-4.717 0-1.8-.68-2.28-.44-3.598 0-.48.64-1.36.64-2.479 0-1.359-.88-3.158-.88-4.517 0-.68-.24-5.837-.44-6.516-.48-.68-2.958-3.158-3.837-3.838-2.039-1.559-1.8-3.158-4.078-4.277-1.12 1.599-2.918-.44-3.797-1.12-.92 1.6-2.719-.68-3.598-1.119-.68 2.239-4.078-.92-5.437-.92-1.12 0-.88.48-1.799.68-.88.24-1.999.24-2.918 0-1.12 0-1.36 0-2.239.24 0 0-.48.68-.68.68-.44.2-.919-.24-1.359 0-.919.44-4.517 0-5.196.88-.44.679-1.56.919-2 1.798-.679.68-.24 1.16-.919 1.6-.68.439-1.559.2-2.238.679-.68.68-.24 1.319-1.12 1.799-1.599.44-1.799-.48-2.718.68-.24.439-.44 4.716-1.559 5.396-.48.2-1.16 1.12-1.16 1.999l-.2.48z" fill="#e7c779" fill-rule="evenodd"/><path d="M51.289 137.037c-.24-3.158 2.478-5.876 6.076-6.116 3.598-.24 6.756 2.278 6.996 5.436.2 2.959-2.479 5.637-6.076 6.117-3.598.2-6.756-2.279-6.996-5.437z" fill="#fee2d7" fill-rule="evenodd"/><path d="M56.326 136.797c-.24-.92.44-1.639 1.479-1.639.88 0 1.519.48 1.719 1.44 0 .919-.64 1.598-1.48 1.598-.879 0-1.718-.44-1.718-1.399z" fill="#fee6cf" fill-rule="evenodd"/><path d="M125.604 137.037c.44-3.158-2.479-5.876-6.116-6.116-3.638-.24-6.796 2.278-7.036 5.436-.24 2.959 2.518 5.637 6.116 6.117 3.638.2 6.796-2.279 7.036-5.437z" fill="#fee2d7" fill-rule="evenodd"/><path d="M120.807 136.597c.2.88-.68 1.56-1.6 1.76-1.119 0-2.038-.64-2.038-1.56 0-.88.68-1.559 1.839-1.799.88 0 1.799.68 1.799 1.6z" fill="#fee6cf" fill-rule="evenodd"/><path d="M107.495 153.187c4.077 1.56 10.154 1.36 14.431.44 1.999-.24 4.038-.88 6.076-1.56 1.56-.479 4.478-2.278 5.837-2.038.44 4.038-1.56 9.434-1.56 13.712-.239 5.197 1.56 9.674 3.119 14.63a71.15 71.15 0 0 1 4.077 19.35c.2 2.478 2 6.755-.44 8.554-1.598 1.32-7.235 1.12-9.234 1.12.88-1.8 6.516-6.757 3.798-8.556-1.559-1.119-4.917 1.56-6.276 2.479-.24-2.479 1.799-4.957 1.999-7.436.48-2.478-1.12-4.037-2-6.276-1.798-4.277-4.277-9.234-5.636-13.751-1.12-4.718 3.598-8.995 1.36-13.472-.92-2.239-3.159-2.239-5.637-2.719-1.36 0-2.679.24-4.038-.2-2.238-.679-3.158-2.918-5.396-4.077zm33.1-38.617c-4.278 3.359-4.757 5.397-4.757 10.794-.2 5.197 1.159 11.233-1.36 15.99-1.998 4.038-5.156 6.516-9.913 8.075-5.397 1.56-11.953.44-17.39-.24 3.158-.639 6.356-.2 9.714-1.558 3.838-1.36 7.676-3.838 10.394-6.756 2.478-2.679 4.277-5.397 3.598-9.195-.44-4.517-3.158-4.277-6.077-6.756-1.359-1.359-2.958-4.717-1.119-6.756 1.32-1.119 4.477-.44 6.076-1.119 1.8-.92 2.719-2.918 4.718-3.598 2.278-.92 4.757-.24 6.995.44zm-93.623 32.38c3.597 3.839 12.392 4.038 17.15 3.399 5.636-.68 14.43-3.638 16.43-9.714-2 .68-4.038 2.478-6.077 3.598-2.918 1.599-4.957 1.798-8.115 1.798-4.517 0-8.795.92-12.832-.68-7.236-2.238-10.154-7.674-13.992-13.55-.48 4.756 3.598 14.47 8.315 16.27zm5.396 9.875c-.88 2.718 1.56 6.516 2.039 9.234.64 3.798.2 7.196-.92 10.794-1.998 7.195-5.396 13.951-3.357 21.787-2.479-4.478-3.398-9.195-2.719-14.152.48-4.037 3.598-5.836 4.078-9.874.64-4.077-.92-8.115-.48-11.953.24-3.597 1.799-6.276-.44-9.674z" fill="#fee2d7" fill-rule="evenodd"/><path d="M42.214 146.671c4.078 4.038 9.715 6.276 15.591 6.956 4.957.24 13.792-.68 17.39-4.238-8.555 4.478-18.99 6.037-23.027 15.431-.24-4.237-.92-6.916-4.077-9.634-1.8-1.56-7.036-4.477-6.116-7.595zm35.259 78.393c3.158 0 6.556-2.239 10.154-2.04 3.358.24 6.516 1.84 9.674 2.52 7.436 1.358 16.23-3.399 21.867-7.956-1.8 3.198-6.756 6.596-9.914 8.395-3.838 2.039-8.315 1.12-12.393 1.6-11.033.879-21.866-2.28-32.94-2.28zm60.483-35.139c-.2 2.279 2.279 6.556 2.959 8.795 1.359 4.037 2.478 7.675 3.158 11.952.68 3.798 1.359 7.636 2.038 11.473.44 2.679.44 6.077.44 8.995-.2 2.918-2.918 7.435-1.799 10.114 0-1.999-1.12-4.038-1.599-5.837-.88-3.158-.88-5.636-4.037-7.435-4.318-2.239-8.155 2.718-12.912.92 0-6.077 11.313-8.116 14.47-11.474 6.317-6.996-2.478-7.435-7.675-7.235 0-2.479 2.959-3.158 4.078-4.957zm-63.841 51.089c2.918 4.957 9.954 8.075 15.83 8.075 6.996-.2 13.592-6.756 16.27-12.592-6.555 3.398-9.474 8.554-17.869 6.316-7.435-2.279-14.67-5.637-21.946-7.236zM36.858 122.486c-.92 7.395-.92 12.792 1.559 19.708 2.478 6.956 1.159 12.792-2.479 19.068-.88 1.8-1.559 3.558-2.478 5.357-1.36 2.479-1.12 2.678-3.158.92-.68-.48-4.078-4.038-4.278-4.718-.48-2.238 2.719-4.717 3.598-6.276 1.36-2.678 1.799-6.036 1.12-8.715-.68-2.918-3.159-5.836-1.8-8.994.92-1.999 2.719-2.239 3.398-4.477.68-2.24.24-4.678.88-6.716.68-2 1.839-3.798 2.039-5.837zm-8.435 47.731c1.799 3.598 3.118 5.596 2.478 9.874-.68 3.838-1.799 8.115-2.918 11.953-1.799 6.076-4.277 12.152-5.597 18.428-1.359 5.637-3.158 11.034-5.156 16.23-.88 2.24-2.479 5.157-2.679 7.396 0 2.718 1.32 5.877 1.12 8.995-.92-2-2.919-3.598-4.038-5.397-1.36-2.239-.24-6.716.88-9.194 2.238-5.877 5.396-8.355 4.477-15.111-.64-3.598-1.12-6.956 0-10.314 1.119-4.078 3.358-7.436 4.037-11.513.68-4.238 0-8.515.24-12.792 0-3.158-.92-7.876.2-10.834 2.239.24 5.397.24 7.196 2.279zm-16.59 79.312c-5.877 3.398.24 17.55 5.397 15.07-1.32-2.438-3.798-4.277-4.278-7.395-.2-2.718 1.6-5.876.68-8.595z" fill="#fee2d7" fill-rule="evenodd"/><path d="M14.111 235.018c1.8 5.636 5.597 11.033 1.32 17.11-1.8-5.597 2.278-13.033-3.158-17.35zm139.236-68.998c3.158-1.12 5.837-4.718 9.194-1.56 3.159 2.919 2.919 8.755 3.358 12.593.92 7.835.92 15.71 1.12 23.545.48 8.076 2.039 16.19 2.718 24.266.44 7.155 3.558 15.71 1.32 22.866-.44-5.157 1.359-13.232-3.119-17.51-.68-.64-1.599 0-2.238-.64-1.12-1.118-.92-2.717-.92-4.037-.44-3.837-.88-7.435-.68-11.233.24-7.435.68-49.61-12.792-45.572zm11.553 83.069c0 2.718-.48 6.276-.92 8.755-.679 2.478-4.996 3.797-4.996 5.157.48 3.118 6.596-1.8 7.475-2.919 2.039-2.478 1.839-6.276.48-8.954zM143.353 93.903c3.838 6.996 9.035 33.06 10.634 42.055 1.319 8.994 5.396 16.43 7.635 22.706 0 0-1.999-8.315-3.598-15.51-1.359-7.196-2.718-17.51-4.037-25.185-1.6-7.876.88-9.675-6.117-23.826-6.995-13.952-12.632-16.19-19.188-17.11 2.958 1.36 11.313 9.914 14.671 16.87zm-2.718 26.304c-4.078 0-1.8 17.27-3.158 21.107-1.16 3.558-1.84 7.156-1.84 10.954 0 4.517 1.6 5.836 3.878 9.194-.24-3.798-1.599-7.156-.48-10.953.48-1.8 1.84-3.398 2.28-4.957.24-2.239-.92-4.238-1.12-6.276-.24-4.038 1.12-8.076.68-12.113 0-1.799-.68-3.118-.24-4.917.24-1.12 1.359-2.039 1.559-3.398zm-50.25-35.059c2.958-1.559 5.877-.24 9.035 0 2.958.2 5.436 0 8.155-.24 6.076-.2 13.072-.879 18.469-3.997-6.317-.68-12.153 1.999-18.709 1.12-2.958-.44-14.431-3.599-10.594-8.516z" fill="#fee2d7" fill-rule="evenodd"/><path d="M61.483 83.87c3.598 2.478 9.234 0 13.512.679 1.838.2 4.077.68 5.636 1.559 1.839 1.16 6.316 4.757 8.115 6.116 1.16-.88 5.637-4.957 4.318-6.316-.92-.92-6.796 0-7.676-.48-1.12-.68-4.077-.88-5.197-1.559-6.076-3.877-13.312 2.719-19.628 0zm28.223-35.1c1.599-.24 2.038-2.918 4.317-2.238 1.799.68 2.678 3.558 2.479 5.117-.68-2.879-2.959-3.558-5.197-2.439-2.04.88-2.279 2.639-4.518 2.439.88-2 .44-2-1.359-2.439-1.599-.44-2.518-1.359-3.198-2.878 1.839.44 3.198 1.08 4.557 2.199zm8.474-17.549c-2.438-.48-4.717-.24-6.036 1.999-.68 1.599-1.599 3.638-1.599 5.197 0 2.478 1.36 3.158 2.718 4.717 1.36 1.599 1.12 3.398 3.119 4.717-1.12-1.56-.64-3.598-1.32-5.157-.24-.68-1.359-2.039-1.359-2.718 0-1.32.68-1.12 1.8-.88 2.038.2 3.157.2 4.716-1.359-2.238.44-4.277 1.12-6.276-.24-1.799-1.319-.48-3.358 1.32-4.037 1.119-.24 2.038-.24 3.157-.24 1.12 0 2.479.92 3.358.92.68 0 1.56 0 1.12-1.12-.2-.92-4.238-1.36-5.157-1.599zm-22.506.519c-.92-.2-2.718 1.12-2.958 2.2 1.36.679 3.398-.64 4.717-.64 1.36 0 2.479.44 3.598 1.12.92.439 2.279.879 2.039 2.198 0 .68-.44.88-.44 1.319-.24.68-.24.88 0 1.759 1.559-.2 1.12-1.52 1.799-2.638.68-.88 2.238-.68 2.238-2 .2-1.758-1.119-1.558-2.038-1.998-1.32-.64-2-1.999-3.798-1.759z" fill="#fee2d7" fill-rule="evenodd"/><path d="M88.706 47.371c.72-2.198 6.157-.88 2.519-3.997 2.078 1.559-.92 1.799-1.8 2.478zm-3.318 16.63c.88.24 1.56.68 2.479.88.68 0 1.999-.44 2.918-.64 2.039-.92 3.398-2.279 3.598-4.557-1.12 2.278-3.358 3.398-5.837 2.718-2.278-.44-5.197-.44-7.035-1.559z" fill="#fee2d7" fill-rule="evenodd"/><path d="M91.185 66.76c5.916.44 9.514-4.718 11.793-8.955 2.238-4.038 2.918-8.075 2.718-12.592-1.16 2.278-1.6 4.717-3.638 6.756-.68.68-1.559 1.798-2.478 1.998-.44.24-1.8-.2-2.04 0-.919.48 0 3.838-.239 4.717-.2 2.479-2.239 4.957-4.077 6.277z" fill="#fee2d7" fill-rule="evenodd"/><path d="M105.416 33.02c.92 2.478 1.12 5.876 1.12 8.595 0 1.559-.2 3.358-.44 4.957-.2 1.799-1.56 3.158-2.04 4.957.68-3.358.92-7.196 1.16-10.834 0-2.038-1.16-7.235.44-8.834z" fill="#fee2d7" fill-rule="evenodd"/><path d="M100.859 33.94c1.16 1.119 2.079 1.558 2.998 3.118.24.64.68 2.638 1.6 2.638.919-2.199.479-5.317.479-7.516-1.16 1.32-2.759.64-4.158-.48z" fill="#fee2d7" fill-rule="evenodd"/><path d="M92.104 19.068c-.68 2.28 2.958 3.199 4.318 2.08 1.599.879 2.038.879 3.877.679 1.6-.24 2.479-.24 3.158 1.559 1.36 2.718 2.04 6.596 2.04 9.514-1.12-2.039-2.04-7.475-5.198-7.915-.68-.24-1.359.24-2.039.24-1.159 0-2.278-.48-3.198-.92-1.359-.44-1.799-.92-2.478-2.038-.48-.68-1.4-2.04-1.4-2.719zM66.88 41.575c.24 1.559.68 2.878 1.758 3.957 1.04-1.519-.44-3.717.2-5.516zm41.574.44c-.24.919-.24 1.838-.24 2.718.92 0 1.84-.68 1.84-1.36zM82.27 46.012c-2.239 0-4.757 3.438-4.517 5.677 1.799-2.04 3.158-4.757 6.316-3.838zm2.479 159.943c-.24.68-1.12.88-1.8 1.12-.879.64-1.798.879-2.718 1.319.24 1.319 2.04.44 2.719.2 1.359-.44 2.918-.44 4.277-.44 1.12-.2 2.239-.2 3.598 0 1.12.44 2.718 1.759 4.038.88-.44-.64-1.12-.88-1.8-1.32-.44-.44-.879-1.08-1.558-1.519-1.56-1.32-3.598-1.559-5.397-.88zm-16.51 31.621c5.876 7.436 17.549 10.793 19.348 13.712 1.759 3.158 1.32 18.868 1.32 27.423 0 8.315-.68 45.373-1.32 52.568-.48 7.196-2.479 19.988-2.279 28.063.24 8.075-.64 10.794-1.559 19.309-.88 8.794-6.516 19.548-4.717 40.655-1.799-6.716 2.239-24.705 3.158-37.937.88-13.272 1.32-25.824-1.359-31.461-2.678-5.597-7.196-6.956-5.397-9.874 1.8-2.918 6.276-2.479 5.837-14.391-.2-11.913 5.836-31.421-13.032-88.067zm73.115-22.146c2.479 14.83 3.798 52.328-6.076 83.789-9.914 31.46-11.713 25.824-11.913 41.774-.48 15.95 1.32 42.894-3.837 59.964-4.957 17.07-6.516 22.906-6.996 27.383.24-6.716 2.478-22.226 4.757-32.78 1.999-10.313 1.799-41.974.68-47.371-1.36-5.397-5.437-6.316-3.159-8.075 2.479-1.799 7.636-7.196 8.076-12.592.68-5.397 8.554-42.215 12.592-58.605 4.277-16.63 5.437-39.536 2.478-42.254z" fill="#fee2d7" fill-rule="evenodd"/><path d="M55.526 337.515c2.959 3.638 6.356 3.638 10.634 4.078 2.039 0 4.077.48 5.876-.2 2.479-.68 4.038-3.398 6.756-3.638.92 1.36 1.12 5.877 0 7.236-1.559 2.039-4.957.92-7.435 1.16-2.479 0-5.197.679-7.676-.68-2.958-1.84-4.077-7.276-7.915-7.476zm57.805 86.988c-.44 4.717-3.398 8.954-2.238 14.111.64 2.918 4.237 8.275 2.678 11.153.24-3.797-3.838-2.198-6.076-1.079-.44-1.799 2.038-1.799 2.718-3.598.68-2.478-1.36-2.918-2.279-4.677-2.478-5.397 4.278-7.835 4.518-12.552z" fill="#fee2d7" fill-rule="evenodd"/><path d="M113.331 423.623c0 6.037.88 14.991-3.997 19.668zm-34.339-2.478c1.6 6.516.92 11.913.24 17.949-.24 2.918 1.799 4.037 2.239 6.756.2 2.478-.44 6.956-1.8 8.954.68-1.559 1.36-4.717.68-6.276-.68-1.799-1.559-.88-2.438-1.799-2.719-2.678-1.12-3.797-.24-7.195 2.438-7.636-.44-16.83 0-24.705zM42.094 218.627c4.078.92 7.476 1.6 10.154 5.197 3.158 4.038 5.877 8.275 9.035 12.313 7.675 8.994 13.951 18.429 14.431 30.302 5.157-4.678-2.039-17.27-4.517-21.747-2.039-3.598-3.398-7.196-5.637-10.554-4.717-6.276-10.593-10.314-16.91-15.03z" fill="#fee2d7" fill-rule="evenodd"/><path d="M70.677 37.537c0 3.158-.44 5.837 0 8.995.24 1.559.68 3.158 1.12 4.957.2 1.319.879 2.238 1.079 3.558-.88-3.358-.64-6.476-.88-9.874-.2-1.8-1.319-6.037-.44-7.636zm15.431 1.359c-.72 1.6-1.64 3.398-2.119 5.197-.48 1.6.96 2.279 2.559 2.479-.92-.64-1.6-1.56-1.16-2.479 0-.68.72-.88.96-1.359.2-.88-.24-1.799.2-2.918zM83.51 58.684c2.518-.24 6.116-.68 8.154.84z" fill="#fff" fill-rule="evenodd"/><path d="M76.314 4.397c-.68.44-.68 1.32-1.12 2-.68.879-1.359 1.358-2.038 1.798-.68.68-1.12 1.56-1.8 1.999-1.119.48-1.318 0-1.998.92-.68.679-.68 1.558-.92 2.238-.44 1.12-.64 1.559-1.559 2.678-1.119 1.12-1.119 1.56-1.319 3.158 0 .88-1.159 2-.68 3.118 2.44-1.119.88 4.038 1.32 4.918.92-1.32.92-2.879 1.799-3.998-.88-1.16-1.8-6.516.68-5.397-.24-1.559 1.359-6.276 3.357-4.477-1.119-1.56.92-3.598 2.719-3.158 0-.88.44-4.677 2.238-3.118.2-1.56 1.56-3.838 3.558-2.479-1.12-1.359-2.438.24-3.798-.2z" fill="#f9f0d9" fill-rule="evenodd"/><path d="M58.884 85.828c4.558 1.12 6.556 1.799 10.394 1.36 3.878-.44 7.915-1.36 10.394.439-2.239-.68-7.876 0-10.594.92-2.718.639-8.835-1.6-10.194-2.719zm44.773 1.159c4.957.6 9.914 1 13.512-.6zm-56.286-9.714c-5.157-.24-12.152 5.157-16.19 12.153-4.077 7.155-6.556 16.15-7.475 23.106 1.159-4.917 7.235-20.668 9.474-23.786 2.279-3.158 8.115-11.233 14.191-11.473zm-35.658 93.224c-1.54 4.937-3.518 25.364-3.758 39.256zm-6.316 64.441c-1.54 2.958-2.639 8.155-2.639 13.352zm52.368-72.037c.24 4.717.88 8.755-.2 13.432-.88 4.278-4.197 7.636-3.957 12.313.879-2.879 1.519-5.357 3.278-7.836 1.559-1.759 2.198-4.237 2.438-6.716.2-1.798.2-4.037-.24-6.036-.2-1.799-1.08-3.358-1.08-5.397zm-20.947-52.208c1.839 2.478 2.718 4.957 2.958 8.115 0 3.158-1.799 7.435-.68 10.354.24-2 .44-3.798.68-5.837.44-1.799 1.12-3.598.92-5.636 0-1.36-.24-2.919-1.16-4.038-.88-1.12-2.039-1.799-2.958-2.958zm109.413 67.959c-.92 6.516 7.276 27.823 10.434 36.777zm14.751 59.644c-1.838 3.637-2.318 5.676-2.078 9.274zM99.18 231.7c8.355.44 13.512-1.8 23.825-11.553-2.238 1.599-15.03 11.553-23.825 11.553zm9.194 12.752c-3.597 1.599-16.07 5.197-17.19 15.27-.919 10.354.2 40.216-.679 57.965-.68 17.71 0 31.182.2 34.54-.2-6.277-.2-30.982 2.279-39.257 2.478-8.554-3.638-56.166 15.39-68.518zM31.82 224.944c2.999-10.794 1.16 43.253 8.436 64.76-.44-3.118-10.714-45.252-8.435-64.76zm22.427 135.597c0 8.555-3.358 32.34 5.117 52.289-1.759-5.357-5.317-44.653-5.117-52.289zm37.977 22.627c2.239 6.316 7.995 27.183 5.557 42.454 1.559-5.157-.44-24.705-5.557-42.454zm-27.664 48.61c-1.798 2.279.92 6.117.24 8.835-.919 2.958-2.957 5.437-3.437 8.835.72-2.04 1.839-4.278 3.198-6.117 1.16-1.359 2.518-1.559 4.317-2.038-2.478-1.8-4.997-5.637-3.837-9.035zm31.222 1.839c-.92 2.719 1.16 5.917 1.36 8.595 0 1.36-.68 1.599-1.36 2.718-.68 1.6-.68 4.078-.2 5.877.2-1.32.2-3.598 1.12-4.957.679-1.12 2.038-1.12 2.718-2.279 1.12-1.359 0-.88-.92-1.799-.88-1.12-.68-3.398-1.359-4.957z" fill="#fff" fill-rule="evenodd"/><path d="M91.025 89.346c1.359-1.32 2.718-2.639 4.757-3.558 1.559-.64 4.077-.44 5.397-1.32-1.8-1.358-10.354-4.476-11.513-1.119z" fill="#fee2d7" fill-rule="evenodd"/><path d="M98.18 80.751c-1.798-2.918.92-6.556 1.8-9.234 1.359-3.398 2.718-6.756 3.357-10.154-2.238 4.077-5.157 7.435-10.074 7.915 2.24 2.239 2.24 4.477.88 7.635-.88 1.8-1.999 3.598-3.158 5.397-.88 1.6-1.12 2.918-1.8 4.717z" fill="#fee2d7" fill-rule="evenodd"/><path d="M98.86 71.037c0 2.239-.24 4.277.68 6.516.44 1.12.92 2.678 1.799 3.558.68.92 1.838 1.12 2.718 1.799-3.398-.88-7.476-.68-10.873.44z" fill="#fee2d7" fill-rule="evenodd"/><path d="M80.551 83.87c2.958 1.558 4.278.679 7.236-.44 4.277-1.8 7.435-2.919 9.874-7.196-1.12 2.478-1.8 5.157-2.918 7.635-2 3.798-4.957 3.358-8.755 3.798z" fill="#fee2d7" fill-rule="evenodd"/><path d="M74.395 64.241c.44 4.078.88 7.875 2.638 11.713 1.12 2.239 3.518 4.957 3.518 7.395z" fill="#fff" fill-rule="evenodd"/><path d="M78.233 65.44c.919 1.12 3.837 2.04 5.436 2.719 1.8.88 4.038.88 6.077 1.319 4.717.48 9.034-2.239 12.152-5.637-1.999 1.84-1.319 3.838-3.358 5.637-1.359 1.599-3.158 6.076-3.158 7.875-.24-1.799-1.12-5.836-3.158-6.076-1.559 0-2.718.24-4.277-.2-2.479-.48-4.278-1.6-6.316-2.918-.68-.48-1.12-.48-1.8-.92-.44-.68-.24-1.12-.919-1.559z" fill="#fee2d7" fill-rule="evenodd"/><path d="M104.776 19.428c0 1.999 1.36 4.238 1.8 6.037.44 1.798.679 2.918.679 4.717 0 3.158 1.36 6.076 1.12 9.194.679-.64.679-1.559 1.798-1.559 0-1.559 1.12-2.918 1.32-4.277 0-1.56-1.32-2.439-1.32-4.038.2-2.438 1.32-5.157 1.32-7.635 0-1.32-.64-2.439-.88-3.598-.24-1.56 0-3.118-.24-4.677-.2-3.598-2.918-3.838-5.157-5.877 1.8 1.6 3.398 4.078 4.038 6.316.48 1.12 1.599 5.597-.88 4.718.44 1.319 1.36 4.717-.24 5.596-.44-.68-.879-1.12-1.319-1.559.2.44.2.68.2 1.12-1.12-1.12-1.999-2.719-2.478-4.278z" fill="#ddb24a" fill-rule="evenodd"/><path d="M88.786 15.59c-.24.44-.24.88 0 1.12 1.12-.68 2.039-2.039 3.838-1.799 1.559.44 2.478 1.799 2.239 3.358.919-1.12 2.718-1.12 2.958.44.44-.2 1.119-.68 1.799-.44.44 0 .88.44 1.119.44.44.24.68-.2 1.12-.2 1.798-.24 3.157-.48 3.397 1.759.64-2 0-3.118-1.839-3.118-2.478-.24-3.797-.44-3.358-3.358-1.599 1.359-3.597 2.678-4.277-.24-.92 0-1.799.68-2.918.68-1.16.24-2.279 0-3.398-.44zM84.988 2.958c1.08 0 3.079-.44 3.518.44-1.319 0-2.438 1.32-1.119 1.999-2.638.24 1.32 2.678-1.08 3.118 0 .68.88.92.88 1.359.44.88 0 .44-.24 1.12 0 .44-.44.44-.2 1.319 0 .68.64 1.119.88 1.559-2.878-1.56-1.32-3.758-1.999-5.997-.2-.68-.88-1.359-.88-2.039 0-.44.44-.879.68-1.559 0-1.119-.24-1.759-1.359-2.238z" fill="#ddb24a" fill-rule="evenodd"/><path d="M95.062 263.08c.48 1.8-.24 3.598 0 5.637.68 2.918 2.519 4.717 5.477 5.397-3.638.64-5.237 5.357-2.279 8.075-3.877.2-3.198 5.597-3.198 8.075 0 2.678-.44 6.276-1.159 8.955z" fill="#fff" fill-rule="evenodd"/><path d="M69.678 247.09c2.079 3.598 4.357 12.353.24 15.271 4.557-2.678 5.236 6.756 1.359 7.635 6.156-4.237 5.037 3.398 5.237 6.516 1.839.44 3.198 0 4.797 1.6 1.839 1.798 1.359 4.477 2.038 6.476z" fill="#fee2d7" fill-rule="evenodd"/><path d="M85.188 140.835c-1.319.92-6.076 12.312-25.544 11.673-18.549-.48-21.747-12.553-21.947-22.627-.24-5.157 1.56-10.553-.48-13.032" fill="none" stroke="#333" stroke-width=".48" stroke-linecap="round" stroke-linejoin="round"/><path d="M56.326 136.797c-.24-.92.44-1.639 1.479-1.639.88 0 1.519.48 1.719 1.44 0 .919-.64 1.598-1.48 1.598-.879 0-1.718-.44-1.718-1.399m64.481-.2c.2.88-.68 1.56-1.6 1.76-1.119 0-2.038-.64-2.038-1.56 0-.88.68-1.559 1.839-1.799.88 0 1.799.68 1.799 1.6" fill="none" stroke="#ae7a67" stroke-width=".48" stroke-linecap="round" stroke-linejoin="round"/><path d="M41.695 144.672c-.64 3.398-.4 6.796-.2 10.154m47.051 95.063c-10.154-1.76-16.71-7.796-22.146-15.191-6.756-8.915-16.95-17.43-23.506-16.75m44.293 122.606c.48-9.874 0-.64.48-14.592.24-5.396 1.359-30.381 1.16-40.015 0-9.914-.48-24.066-.48-35.339m4.197-206.595c.2.48.64 1.12.44 1.56 0 .919-.68.679-1.36.679-.64.44-1.119.88-1.758 1.32-.92.439-2.24.439-2.919 0-.68-.44-1.119-.88-1.998-1.32-.68 0-1.12.24-1.36-.68-.24-.44.24-1.079.68-1.559" fill="none" stroke="#333" stroke-width=".48" stroke-linecap="round" stroke-linejoin="round"/><path d="M69.358 42.694c.48 6.316 2.478 13.472 4.517 17.75 2.719 6.036 10.154 8.274 14.671 8.274 4.478 0 11.713-2.878 14.631-8.954 2.04-4.478 4.518-12.113 4.718-18.869" fill="none" stroke="#333" stroke-width=".48" stroke-linecap="round" stroke-linejoin="round"/><path d="M81.03 62.002c1.84 2.959 4.318 3.838 7.077 3.838 2.718 0 7.035-2.918 7.235-3.598" fill="none" stroke="#333" stroke-width=".48" stroke-linecap="round" stroke-linejoin="round"/><path d="M54.727 160.663c.92 5.396 2.478 8.554 1.359 13.911-1.559 7.636-7.675 15.031-5.397 22.866" fill="none" stroke="#d8bbad" stroke-width=".48" stroke-linecap="round" stroke-linejoin="round"/><path d="M91.904 140.835c1.36.92 6.117 12.312 25.265 11.673 26.144-.92 20.987-19.948 20.987-28.903 0-4.917 2.918-6.276 2.918-6.276" fill="none" stroke="#333" stroke-width=".48" stroke-linecap="round" stroke-linejoin="round"/><path d="M136.197 144.193c-.24 4.077-.76 7.275-1.039 10.633" fill="none" stroke="#333" stroke-width=".48" stroke-linecap="round" stroke-linejoin="round"/><path d="M132.36 208.634c-8.555 6.995-16.71 17.389-27.544 20.107-6.556 1.36-10.153 1.56-20.787 1.56-4.277-.2-7.675-.64-11.953-1.56-10.833-2.718-18.988-13.112-27.343-20.107" fill="none" stroke="#ae7a67" stroke-width=".48" stroke-linecap="round" stroke-linejoin="round"/><path d="M110.693 234.778c-5.637 7.355-12.193 13.352-22.147 15.11" fill="none" stroke="#333" stroke-width=".48" stroke-linecap="round" stroke-linejoin="round"/><path d="M104.776 55.926c0 8.075 3.159 13.032 8.795 15.71 9.714 4.718 24.186 0 33.66 16.19 9.474 16.151 7.235 25.585 11.753 48.052 3.158 15.51 6.316 28.742 7.675 34.139 2.478 10.314 1.999 15.03 3.598 30.541.68 6.517.68 11.673.92 16.39 0 2.919.879 6.277.879 8.755.24 2.039-.2 3.358 0 5.157 0 0 0 0 0 0 .44 2.918.92 5.197 1.359 6.316 1.36 4.038 1.799 10.314 2.279 11.193.64.92.44 3.598 0 4.718-.48 1.159-.92 2.478-1.6 4.077-.44 1.12-1.798 3.558-2.478 4.917-.68 1.56-3.838 3.358-6.316 4.278-1.8.879-5.437 2.478-5.877 1.798-.92-1.559.2-2.918 1.56-3.597.679-.68-1.56 1.119-2-.44-.24-.48-.24-.68 0-1.6-.48-.879-.24-.879.44-1.998-1.359-.24-1.119-5.157-.92-7.635-.199-2.039-.879-8.315.24-12.593.68-2.678 1.36-4.717 1.12-6.276 0-.24 0-.44-.24-.68-.64-.879-2.478-6.955-2.918-9.873-.68-2.679-2.239-8.995-4.517-15.271-4.957-15.27-8.115-27.384-8.595-32.78-.44-5.397-6.996-17.99-8.355-20.668 0 0 0 0 0 0-.2 3.798-.64 7.636-.64 10.794 0 6.276 3.598 12.552 7.676 26.464 4.037 13.951 4.717 34.139 3.358 55.726-1.36 21.547-9.235 60.603-14.671 72.316-5.397 11.673-5.877 18.829-6.317 31.86-.44 13.033 1.6 28.064-3.397 46.932-4.957 18.869-6.557 22.027-7.436 30.542 0 3.158.44 4.517 0 7.435-.92 4.478-.92 3.798 1.36 8.075 2.038 2.919 2.917 10.114 4.037 11.473 1.16 1.32.48 2.679 0 3.558.92 2.039-1.56 3.158-2.239 3.158.24 2.479-4.277 2.239-5.437 1.12-1.319 1.359-4.717 1.359-6.076-.2-2.039 1.759-5.876 1.759-8.355-.68-2.478-2.278-2.718-4.717-2.478-7.195.44-2.479-.24-3.159-.68-6.077-.68-3.118-.44-6.036.2-7.635.92-1.999 1.16-2.918 1.16-5.157 0-2.039-.92-5.397.439-8.075 1.799-10.354-4.757-29.222-5.637-54.127 0-2.919-2.718-32.78-2.958-35.499 0 0 0 0 0 0 0 2.719-.68 32.58-.88 35.499-1.598 29.622-6.995 44.253-5.196 54.127 1.359 2.678.44 6.036.44 8.075 0 2.239.44 3.158 1.359 5.157.44 1.599.68 4.517 0 7.635-.44 2.918-.92 3.598-.68 6.077.24 2.478 0 4.917-2.478 7.195-2.479 2.439-6.077 2.439-8.355.68-1.36 1.559-4.757 1.559-6.077.2-.919 1.119-5.436 1.359-5.196-1.12-.92 0-3.159-1.119-2.519-3.158-.44-.88-1.12-2.238 0-3.558 1.16-1.359 2.279-8.554 4.317-11.473 2.24-4.277 2.04-3.597 1.36-8.075-.68-2.918 0-4.277-.24-7.435-.92-8.515-2.239-9.874-7.236-28.743-4.957-18.868-2.918-35.698-3.358-48.73-.48-13.032-.92-20.188-6.356-31.861-5.397-11.713-14.671-50.77-16.03-72.316-1.32-21.587.68-41.775 4.757-55.726 4.077-13.912 7.675-20.188 7.675-26.464 0-3.158-.68-6.996-.92-10.794 0 0 0 0 0 0-1.318 2.679-7.675 15.271-8.114 20.668-.44 5.396-3.598 17.51-8.595 32.78-2.239 6.276-4.038 12.592-4.477 15.27-.68 2.919-2.519 8.995-3.198 9.875-.2.24-.2.44-.2.68-.24 1.558.44 3.597 1.119 6.275 1.12 4.278.68 10.554.24 12.593.44 2.478.44 7.395-.92 7.635.68 1.12.92 1.12.44 1.999.48.92.48 1.12.24 1.599-.68 1.559-2.918-.24-2.039.44 1.12.68 2.279 2.038 1.36 3.597-.24.68-4.078-.919-5.637-1.798-2.479-.92-5.637-2.719-6.316-4.278-.92-1.359-2.279-3.798-2.719-4.917-.44-1.599-1.119-2.918-1.599-4.077-.44-1.12-.68-3.798 0-4.718.48-.879 1.16-7.155 2.519-11.193.2-1.12.64-3.398 1.319-6.316 0 0 0 0 0 0 .24-1.799-.44-3.118-.2-5.157.2-2.478.88-5.836.88-8.754.24-4.718.48-9.875 1.159-16.39 1.559-15.511 1.12-20.228 3.598-30.542 1.119-5.397 4.517-18.629 7.675-34.14 4.517-22.466 2.279-31.9 11.753-48.05 9.474-16.19 23.706-11.473 33.42-16.19 5.636-2.679 8.794-7.836 8.794-15.95" fill="none" stroke="#333" stroke-width=".48" stroke-linecap="round" stroke-linejoin="round"/><path d="M122.406 160.663c-1.16 5.396-2.759 8.554-1.36 13.911 1.56 7.636 7.476 15.031 5.437 22.866" fill="none" stroke="#d8bbad" stroke-width=".48" stroke-linecap="round" stroke-linejoin="round"/><path d="M107.655 45.492c2.118.92 2.358-1.838 3.038-3.477m-44.773 0c1.16 1.639 1.16 4.397 3.598 3.477m-3.598-3.717v-.24.48s0 0 0 0" fill="none" stroke="#333" stroke-width=".48" stroke-linecap="round" stroke-linejoin="round"/><path d="M21.707 162.821c3.877 2.279 9.074 3.838 10.394 8.315m113.051-.639c2.958-2.919 5.437-6.956 9.674-8.315m-30.142 61.722c5.477-7.155 15.191-10.313 15.191-10.313m-67.959 9.714c6.556 3.637 10.154-2.519 18.03-1.12 7.635 1.12 13.711 2.279 20.907-.68M53.687 334.717c4.118 6.476 9.155 7.116 16.87 6.036m34.14-1.359c6.795 1.32 13.351-2.198 16.95-4.677" fill="none" stroke="#ae7a67" stroke-width=".48" stroke-linecap="round" stroke-linejoin="round"/><path d="M84.069 207.114c1.839-1.758 2.519-2.638 4.317-2.638 2 0 2.479.44 4.478 2.439" fill="none" stroke="#333" stroke-width=".48" stroke-linecap="round" stroke-linejoin="round"/><path d="M85.908 205.755c.68 1.84 4.397 1.84 5.277 0" fill="none" stroke="#333" stroke-width=".48" stroke-linecap="round" stroke-linejoin="round"/><path d="M58.085 84.549c1.16 0 4.997.68 6.116 1.16 1.36.439 4.038.199 6.996 0 3.838-.24 7.875-.68 9.234.679.24 0 .44.44.44.64 0-.44 0-.88-.2-1.12-1.36-1.36-5.437-.88-9.474-.68-2.958.24-5.637.48-6.796 0-1.12-.44-4.957-.68-6.316-.68z" fill="#ae7a67" fill-rule="evenodd"/><path d="M86.867 89.666c.72 1.639 1.16 2.358 1.84 2.558.679 0 1.598-.92 2.478-2.318" fill="none" stroke="#ae7a67" stroke-width=".48" stroke-linecap="round" stroke-linejoin="round"/><path d="M73.875 454.964c.2.92-.24 2.039-.92 2.958-.879.92-2.718 4.278-1.358 6.077m-1.919-8.555c-.64 1.599-2.399 2.758-3.078 3.198-1.52 1.839-2.199 3.878-1.32 5.677m.4-9.355c-1.08 1.16-2.198 2.519-3.318 3.638-1.08 1.16-2.438 2.958-2.198 4.997m1.519-9.594c-.44.88-1.6 1.759-2.519 2.438-.68.88-1.639 2.399-1.639 3.718" fill="none" stroke="#333" stroke-width=".48" stroke-linecap="round" stroke-linejoin="round"/><path d="M72.716 461.76c1.799-.44 4.077-.2 4.517 0 1.32-2.039-.24-2.958-1.359-2.958-2.478 0-3.158 2.279-3.158 2.958m-6.156 1.52c.48 0 2.518-.44 2.958 0-.2-2-2.958-2.48-2.958 0m-5.197.08c.48.239 1.879.239 2.318-.24-.2-1.68-2.318-.96-2.318.24m-3.278-2.76c.24.48 1.12.68 1.799.48.2-1.638-1.32-1.399-1.8-.48" fill="none" stroke="#333" stroke-width=".32" stroke-linecap="round" stroke-linejoin="round"/><path d="M9.075 255.725c.919.48 2.078 2.958 3.198 3.638 1.159 1.16 2.718 1.599 3.877 2.278.68.44 1.36.68 1.8 1.12m-1.84 1.679c-2.039-2.039-3.198-2.239-4.557-2.918 0-.48-1.4-2.959-2.319-4.118" fill="none" stroke="#333" stroke-width=".48" stroke-linecap="round" stroke-linejoin="round"/><path d="M17.95 260.762c-2.48 0-3.879-2.239-3.879-3.558-.44-1.36-.44-5.157-.44-6.036 0-1.12-.24-2.479-1.598-2.719-1.6 1.12-3.438 3.159-3.438 4.718 0 1.559.92 2.918.72 4.477" fill="none" stroke="#333" stroke-width=".48" stroke-linecap="round" stroke-linejoin="round"/><path d="M17.55 267.878c-1.08-.84-2.639-1.28-3.119-.64m-2.718-5.796c-.4-.52-.6.5-1.44.999m-1.039-5.037c-.66-.64-.88-.42-1.119-.2" fill="none" stroke="#333" stroke-width=".32" stroke-linecap="round" stroke-linejoin="round"/><path d="M13.392 249.569c0-.92-.42-1.62-.64-2.319" fill="none" stroke="#333" stroke-width=".48" stroke-linecap="round" stroke-linejoin="round"/><path d="M12.113 248.45c-.72-.56-1.2-.28-1.68 0m7.836 4.637c-.2-.16-.64-.32-.88-.32" fill="none" stroke="#333" stroke-width=".32" stroke-linecap="round" stroke-linejoin="round"/><path d="M14.271 257.884c-.66-.68-2.238-.22-2.918-1.82-.44-1.378-1.559-2.518-1.799-4.816m3.998 4.477c0-.88-.44-.44-1.12-.88-.7-.44-1.599-3.777-1.838-5.116" fill="none" stroke="#333" stroke-width=".48" stroke-linecap="round" stroke-linejoin="round"/><path d="M17.23 257.244c-.64.24-.4 1.719-.4 2.319" fill="none" stroke="#333" stroke-width=".32" stroke-linecap="round" stroke-linejoin="round"/><path d="M82.07 54.607s.44.44 1.56.64c1.358.24 3.837.44 4.956.44.88 0 2.919-.2 4.038-.44 1.359-.2 1.799-.64 1.799-.64l1.799-1.56c-1.56.2-4.717-.479-5.597-.479h-4.757c-1.12 0-4.277.68-5.637.48z" fill="#fddedc" fill-rule="evenodd"/><path d="M86.947 52.568h-1.119l-1.999.24c-1.12.2-2.678.4-3.598.2.92.2 2.479.2 3.838 0l1.759-.2h2.239v-.24h-1.12z" fill="#333" fill-rule="evenodd"/><path d="M88.067 52.808h2.518l1.799.2c1.36.2 2.718.2 3.838 0-.88.2-2.479 0-3.838-.2l-1.799-.24h-2.518v.24zm4.357.879h-2.479c-.68 0-1.359.28-1.838 0-.44.28-1.12 0-1.8 0H84.07c-1.36.28-2.039.28-2.718 0 .68.28 1.359.28 2.718 0 .68 0 1.6.28 2.239.28.68 0 1.359.28 1.799 0 .48.28 1.159 0 2.038 0 .68 0 1.6-.28 2.279 0 1.32 0 1.799 0 2.439-.28-.44.28-1.32.28-2.439 0zm.2 1.36c-1.12.2-3.158.44-4.038.44-1.119 0-3.598-.24-4.717-.44-1.12-.24-1.799-.48-1.799-.48s.24.24 1.6.48c1.119.44 3.797.64 4.916.64.88 0 2.919-.2 4.238-.64 1.12-.24 1.559-.48 1.559-.48s-.64.24-1.76.48z" fill="#333" fill-rule="evenodd"/><path d="M81.67 436.815c0 1.8-.799 4.637-.799 4.637" fill="none" stroke="#333" stroke-width=".48" stroke-linecap="round" stroke-linejoin="round"/><path d="M83.03 36.418c0 .44-.44.2-.88.44-.44 0-1.799.68-3.837.68-2 0-3.358-1.6-3.598-1.6.48-.68 1.599-2.079 4.077-2.079 1.999 0 2.918 1.16 3.598 1.84.44.24.64.48.64.719zm10.633 0c0 .44.48.2.92.44.48 0 2.038.68 3.877.68 2.04 0 3.398-1.6 3.598-1.6-.2-.68-1.559-2.079-4.077-2.079-2.04 0-2.719 1.16-3.638 1.84-.2.24-.68.48-.68.719z" fill="#fff" fill-rule="evenodd"/><path d="M77.033 35.698c0-.999.8-1.839 1.76-1.839.999 0 1.758.84 1.758 1.84 0 1.039-.76 1.838-1.759 1.838-.96 0-1.759-.8-1.759-1.839zm19.189 0c0-.999.84-1.839 1.839-1.839 1.039 0 1.838.84 1.838 1.84 0 1.039-.8 1.838-1.838 1.838-1 0-1.84-.8-1.84-1.839z" fill="#9ec6b2" fill-rule="evenodd"/><path d="M77.033 35.698c0-.999.8-1.839 1.76-1.839.999 0 1.758.84 1.758 1.84 0 1.039-.76 1.838-1.759 1.838-.96 0-1.759-.8-1.759-1.839" fill="none" stroke="#333" stroke-width=".32" stroke-linecap="round" stroke-linejoin="round"/><path d="M78.392 35.738c0-.28.28-.52.56-.52.32 0 .56.24.56.52 0 .32-.24.52-.56.52-.28 0-.56-.2-.56-.52z" fill="#333" fill-rule="evenodd"/><path d="M83.03 36.418c0 .44-.44.2-.88.44-.44 0-1.799.68-3.837.68-2 0-3.358-1.6-3.598-1.6.48-.68 1.599-2.079 4.077-2.079 1.999 0 2.918 1.16 3.598 1.84.44.24.64.48.64.719" fill="none" stroke="#333" stroke-width=".48" stroke-linecap="round" stroke-linejoin="round"/><path d="M82.87 34.899c-1.999-1.999-5.837-2.479-8.315-.2" fill="none" stroke="#333" stroke-width=".32" stroke-linecap="round" stroke-linejoin="round"/><path d="M82.87 31.021c-1.999-.92-7.676-2.278-10.634 1.56" fill="none" stroke="#333" stroke-width=".48" stroke-linecap="round" stroke-linejoin="round"/><path d="M96.222 35.698c0-.999.84-1.839 1.839-1.839 1.039 0 1.838.84 1.838 1.84 0 1.039-.8 1.838-1.838 1.838-1 0-1.84-.8-1.84-1.839" fill="none" stroke="#333" stroke-width=".32" stroke-linecap="round" stroke-linejoin="round"/><path d="M97.5 35.738c0-.28.28-.52.6-.52.36 0 .6.24.6.52 0 .32-.24.52-.6.52-.32 0-.6-.2-.6-.52z" fill="#333" fill-rule="evenodd"/><path d="M93.663 36.418c0 .44.48.2.92.44.48 0 2.038.68 3.877.68 2.04 0 3.398-1.6 3.598-1.6-.2-.68-1.559-2.079-4.077-2.079-2.04 0-2.719 1.16-3.638 1.84-.2.24-.68.48-.68.719" fill="none" stroke="#333" stroke-width=".48" stroke-linecap="round" stroke-linejoin="round"/><path d="M93.903 34.899c2.079-1.999 5.956-2.479 8.475-.2" fill="none" stroke="#333" stroke-width=".32" stroke-linecap="round" stroke-linejoin="round"/><path d="M93.903 31.061c2.039-.88 7.276-1.999 10.634 1.52" fill="none" stroke="#333" stroke-width=".48" stroke-linecap="round" stroke-linejoin="round"/><path d="M91.984 35.299c-.72.88-1.199 1.799-.48 4.077-.959-2.478-.719-3.198.24-4.557 0-.24.48.24.24.48z" fill="#333" fill-rule="evenodd"/><path d="M77.913 35.299c0-.2.24-.4.48-.4.28 0 .48.2.48.4 0 .24-.2.4-.48.4-.24 0-.48-.16-.48-.4zm19.108 0c0-.2.24-.4.52-.4.32 0 .52.2.52.4 0 .24-.2.4-.52.4-.28 0-.52-.16-.52-.4zM84.869 204.636c2.518-2.039 7.675-.92 9.034 1.999 2.479-2.239-6.996-6.316-9.034-2.239z" fill="#fff" fill-rule="evenodd"/><path d="M73.036 455.524c.44.2 1.519-.24 1.759.44.4 1.279-1.56.4-1.76.2-.439 0-1.119 0-1.119.64.24.639 2 .439 2.439.639m-4.118-.84c-.2-.68-1.119-1.159-1.838-.92 0 .68.72 1.4 1.399 1.6m-3.558-1.319c-.2-.24-1.6-1.32-2.039-.88-1.16.88 1.36 1.72 1.839 1.72m-4.118-1.84c-.24-.56-.72-.76-1.199-.96" fill="none" stroke="#fef2ed" stroke-width=".8" stroke-miterlimit="8"/><path d="M119.008 84.549c-1.32 0-5.157.68-6.276 1.16-1.12.439-4.038.199-6.996 0-3.598-.24-7.875-.68-8.995.679-.2 0-.68.44-.68.64 0-.44 0-.88.24-1.12 1.36-1.36 5.397-.88 9.435-.68 2.958.24 5.636.48 6.756 0 1.359-.44 4.957-.68 6.516-.68z" fill="#ae7a67" fill-rule="evenodd"/><path d="M103.177 454.964c-.48.92 0 2.039.68 2.958 1.16.92 2.998 4.278 1.4 6.077m1.758-8.555c.92 1.599 2.758 2.758 3.238 3.198 1.84 1.839 2.279 3.878 1.36 5.677m-.6-9.355c1.159 1.16 2.318 2.519 3.438 3.638 1.159 1.16 2.718 2.958 2.518 4.997m-1.799-9.594c.68.88 1.56 1.759 2.479 2.438.64.88 1.519 2.399 1.519 3.718" fill="none" stroke="#333" stroke-width=".48" stroke-linecap="round" stroke-linejoin="round" stroke-miterlimit="10"/><path d="M104.057 461.76c-1.759-.44-3.798-.2-4.237 0-1.6-2.039 0-2.958 1.119-2.958 2.678 0 3.118 2.279 3.118 2.958m6.156 1.52c-.44 0-2.238-.44-2.718 0 .24-2 2.718-2.48 2.718 0m5.437.08c-.64.239-1.799.239-2.479-.24.24-1.68 2.479-.96 2.479.24m3.038-2.76c-.2.48-1.08.68-1.759.48-.24-1.638 1.56-1.399 1.76-.48" fill="none" stroke="#333" stroke-width=".32" stroke-linecap="round" stroke-linejoin="round" stroke-miterlimit="10"/><path d="M158.984 262.76c.48-.439 1.159-.679 1.839-1.119 1.119-.68 2.718-1.119 3.877-2.278 1.12-.68 2.479-3.158 3.158-3.638m0 1.679c-1.12 1.16-2.478 3.638-2.478 4.118-1.36.68-2.479.879-4.557 2.918" fill="none" stroke="#333" stroke-width=".48" stroke-linecap="round" stroke-linejoin="round" stroke-miterlimit="10"/><path d="M167.618 257.644c-.24-1.56.88-2.918.68-4.477 0-1.56-1.599-3.598-3.438-4.718-1.36.24-1.36 1.6-1.36 2.719 0 .88-.239 4.677-.679 6.036 0 1.32-1.359 3.558-3.677 3.558" fill="none" stroke="#333" stroke-width=".48" stroke-linecap="round" stroke-linejoin="round" stroke-miterlimit="10"/><path d="M162.342 267.238c-.44-.64-2.08-.2-3.039.64m7.356-5.438c-.72-.479-.96-1.518-1.679-.998m3.838-4.238c-.36-.2-.56-.44-.96.2" fill="none" stroke="#333" stroke-width=".32" stroke-linecap="round" stroke-linejoin="round" stroke-miterlimit="10"/><path d="M164.18 247.25c-.24.72-.72 1.4-.48 2.319" fill="none" stroke="#333" stroke-width=".48" stroke-linecap="round" stroke-linejoin="round" stroke-miterlimit="10"/><path d="M166.34 248.45c-.4-.28-.84-.56-1.52 0m-5.197 4.317c-.44 0-.64.16-1.12.32" fill="none" stroke="#333" stroke-width=".32" stroke-linecap="round" stroke-linejoin="round" stroke-miterlimit="10"/><path d="M167.299 251.248c0 2.318-1.32 3.438-1.76 4.837-.479 1.599-2.038 1.12-2.718 1.799m3.359-8.155c-.2 1.359-.92 4.677-1.6 5.117-.72.44-1.199 0-1.439.879" fill="none" stroke="#333" stroke-width=".48" stroke-linecap="round" stroke-linejoin="round" stroke-miterlimit="10"/><path d="M159.863 257.244c.48.24.24 1.719.24 2.319" fill="none" stroke="#333" stroke-width=".32" stroke-linecap="round" stroke-linejoin="round" stroke-miterlimit="10"/><path d="M95.342 436.815c0 1.8.88 4.637.88 4.637" fill="none" stroke="#333" stroke-width=".48" stroke-linecap="round" stroke-linejoin="round" stroke-miterlimit="10"/><path d="M103.897 455.524c-.44.2-1.32-.24-1.559.44-.44 1.279 1.32.4 1.759.2.24 0 1.08 0 .88.64-.2.639-1.76.439-2.4.639m3.958-.84c.24-.68 1.2-1.159 2.16-.92-.24.68-.72 1.4-1.44 1.6m3.438-1.319c.48-.24 1.599-1.32 2.319-.88.879.88-1.4 1.72-1.84 1.72m3.678-1.84c.24-.56.72-.76 1.2-.96" fill="none" stroke="#fef2ed" stroke-width=".8" stroke-miterlimit="8"/><path d="M110.613 42.015c1.12-.44 0-8.076 2.039-8.515-1.12-.92.2-3.358 0-4.717 0-1.8-.68-2.24-.44-3.598 0-.44.64-1.36.64-2.479 0-1.359-.88-3.158-.88-4.477 0-.68-.24-5.876-.44-6.516-.48-.68-2.958-3.158-3.837-3.838-2.039-1.559-1.8-3.158-4.078-4.277-1.12 1.599-2.918-.44-3.797-1.12-.92 1.56-2.719-.68-3.598-1.119-.68 2.239-4.078-.92-5.437-.92-1.12 0-.88.48-1.799.68-.88.24-1.999.24-2.918 0-1.12 0-1.36 0-2.239.24 0 0-.48.68-.68.68-.44.2-.919-.24-1.359 0-.919.44-4.517 0-5.196.88-.44.679-1.56.919-2 1.798-.679.68-.24 1.12-.919 1.6-.68.439-1.559.2-2.238.639-.68.68-.24 1.359-1.12 1.799-1.599.48-1.799-.44-2.718.68-.24.479-.44 4.716-1.559 5.396-.48.24-1.16 1.12-1.16 2.039l-.2.44c-.24 2.718-2.278 5.636-1.358 8.075.68 1.359 1.359 1.599 1.359 3.158-.24.44-.44 1.359-.44 1.799.2.68.64.92.88 1.359.24 1.359-.88 1.799-.88 2.918 0 .24.44.68.44 1.12 0 .44-.44 1.359-.44 1.558.2.92.88 1.36 1.32 2.04.24.879.24 1.558.479 2.238" fill="none" stroke="#333" stroke-width=".48" stroke-linecap="round" stroke-linejoin="round" stroke-miterlimit="10"/><path d="M81.79 62.042c-.68.24-1.119.48-1.359 1.12.68.68 1.36 0 2.039-.44 1.36.88-.2 1.32-.2 1.999.2 1.319 1.36.44 1.999-.2m10.314-2.639c.48 0 1.119.68.68 1.12-.68.44-1.12-.44-1.56-.64-.48.64-.48 1.08 0 1.52m-1.359-.001c1.36 1.64-1.12 2.559-1.599.96m-4.477-6.556c0-1.36 1.359-1.36 1.559-.2.48-.24.48-.68.68-1.16.679 0 .879.68.879 1.36M78.872 50.61c-.92-.64-1.639-2.16.2-1.48m18.109 2.119c1.32 0 1.72-2.119-.4-1.04.2-.44.64-1.079.84-1.519-.44-.24-1.08-.24-1.52.2M81.79 31.101c1.12-.2-.24-2.318-1.399-.68.24-.48.24-.919-.44-1.159-.48.48-.719.92-.719 1.64m15.75.838c-.24-.639-.72-1.318-.72-1.998 1.16-.48 1.16.88 1.84 1.12m7.835 1.758c0-.2 0-.64.16-.88m-30.142.56c-.68-.24-1.12-.72-1.359-1.199m-35.698 86.947c1.119-.44 2.678-1.798 2.678.24 0 1.8-2.239 2-3.598 2.439M21.987 163.78c.24-.879.48-2.038 1.599-2.278.88.92 0 3.198-.24 4.317.92-.44 1.799-1.559 2.238-2.718m6.716 6.836c-.44.44-1.519 1.08-1.958.64-.92-.88 1.319-1.96 1.759-2.199m22.186-6.356c.48-.2 1.799-.68 2.239-.2.88.88-1.12 1.759-1.76 2.398m-5.116 32.82c.68.44 1.599-.2 2.079-.879-.24-.68-1.16-.68-1.4-1.36-.68-1.118-.2-.439.24-1.358.92-1.56 1.16-1.8-1.159-2.479 3.198.24 2.079-1.799 1.4-3.158m72.235-26.024c-.2-.68-2.198-.92-2.438-.24-.64 1.36 1.559 1.36 2.239 2.039-.68 1.359-2.439 1.359-3.798 1.799 1.12.48 1.999 1.16 2.918 1.839-.68.2-.92.68-1.12 1.319m5.238 28.102c2.638.68 2.638-1.118.2-1.798 3.078-.44.44-3.198-1.56-3.198m29.822-27.824c0-1.119-1.159-2.478-2.318-1.798 0 1.12 1.639 2.039.96 3.158-2.12.64-2.32-1.6-3.519-2.918m-3.318 8.754c-.68-.88-1.159-2.038-.44-3.198.88.72 1.6 1.6 2.48 2.319m-57.646-27.943c.72-.68 1.639-1.16 2.558-1.16 0 .68-1.159 2.28-.72 2.719.48.88 2.56-.44 3-.68-.24 1.12-1.16 2.04-1.36 3.358 1.36 1.56 5.277-1.12 5.716-2.918m-15.15-3.118c1.799 1.16.24 3.038-1.56 1.16 0 .919 1.12 1.398 1.36 2.558-.92.44-2.279.24-3.198 0m59.484-25.625c-.2-.92-.64-1.599-1.56-1.359-.2 1.12.92 1.799 1.36 2.678-1.12.44-2.239-.2-3.158-.88m-93.584 91.426-.68.68c.24-.68 1.56-2.04 2.24-2.04-.2 1.12-.88 2.239-.44 3.158 1.119 0 1.799-.68 2.918-.68.44 1.12-.92 1.76-.68 2.88 1.32.239 2.239-.88 3.318-.88.24.68 0 1.559-.2 2.438 1.12.24 1.76-.64 2.679-.88.64 1.32-.24 2.879-.24 4.438m80.032-9.354c-1.12-1.12-2.919-2.959-2.24 0 .2.68 2.04 2.478.44 2.718-1.119.2-2.718-2.039-3.637-2.718-.2 1.359.92 2.478 1.16 3.837-.92-.44-1.6-1.359-2.52-2.038.48 1.359 1.36 2.718 1.84 4.277m-2.759 7.276c-.92-.44-.92-1.52-.24-2.2.68.44 1.12 1.56 2.039 1.76.2-1.08-.24-2.399 0-3.718 1.32.44 2.239 2.638 3.798 1.08 1.319-1.08.44-4.398.44-6.197m8.195 1.52c.48-.68.68-2.04-.24-2.48-2.12-.719-1.4 2.919-.92 3.599m-27.983 5.396c0-1.119-1.999-1.559-1.559.2 0-.64-.24-.88-.68-1.08-.679.44-1.119 1.08-1.359 1.96 0-.64-.24-1.08-.68-1.32-.24.24-.679.68-.919 1.12m-33.499 1.199c.72-.44.92-1.12 1.839-1.12.72 1.56.24 3.798 2.318 1.56 2.079-2.239 1.839-1.999 3.198.48m30.302 9.754c3.358.919.68 5.156-1.36 2.038.44.88 1.12 2 1.12 2.879-1.12.44-2.479-.2-2.718-1.32m-63.322-19.908c0-.68 1.16-1.838 1.839-1.599.68.44.2 1.6.44 2.04.68 0 1.359-.68 2.238-1.12.24.68.24 1.32.24 1.999.88-.44 1.799-1.56 2.918-.88.92.44 1.12 2.039.48 2.679m33.82-14.791c-.2-.24-.64-.76-.64-1.04m7.995.72c.2-.16.4-.16.8-.16M53.568 336.236a2.54 2.54 0 0 1 1.838-1.799c1.16 1.12-.44 3.598-.68 4.917 1.36.2 2.28-2.238 3.878-2.678-.2.88-.44 1.559-.44 2.438m11.714 2.319c.88-3.558-3.598-2.438-1.8.44m37.218.24c.24-.88-.24-3.558 1.12-3.798 1.559-.44 1.559 2.918 2.198 3.798 2.439-.88 1.56-4.917 2.439-6.716m9.514.719c-.44-.92-1.08-1.839-1.959-1.839-.68.68-.24 1.84 0 2.479" fill="none" stroke="#fef2ed" stroke-width="1.039" stroke-miterlimit="8"/><path d="M57.485 136.437c-.24-.88-.24-2.038.88-2.038.48.919 0 1.599 0 2.478.92-.2 1.599-.88 2.238-1.32m-3.438 1.08c-.48-.24-1.359 0-1.599.44-.48.64.44 1.08 1.12.88.48-.24.48-1.12 1.159-.44.44.44 0 1.079.24 1.519m60.283-3.118c0-.44-.44-1.12 0-1.56.68-.679.88.68.88 1.12 0 .68 0 1.559.68.92.639-.48.44-1.36 1.279-1.6m-3.119 2.119c-.64-.68-2.158 0-1.479 1.08.4.879 1.72 0 2.119-.64m.959.16c.48.44.72 1.119.72 1.519" fill="none" stroke="#fee2d7" stroke-width="1.039" stroke-miterlimit="8"/><path d="M63.681 133.879v-.24h-.44c0 .24.2.44.2.68.24-.24.24-.44.24-.44zm-1.799-1.6h-.24s0 .24.24.24v-.24zm-.919-.439.24-.24c-.24-.24-.68-.24-.92-.44v.44c.24.24.48.24.68.24zm3.158 4.757h.44v-.24c0-.44 0-.68-.2-.92h-.44c.2.24.2.48.2.92v.24zm-7.875-5.676c-.24 0-.44 0-.44.24-.24 0-.24.2-.24.44.24-.24.68-.24.92-.24 0-.2 0-.2-.24-.44zm6.316 1.599v.44c.2 0 .2 0 .44-.24-.24 0-.24 0-.44-.2zm.68 6.995h.44c.24-.2.44-.44.44-.879 0 0 0-.24-.2-.48-.24.48-.48.92-.68 1.36zm-11.713-2.478v-.92c0-.2-.24-.2-.48-.2v1.56c.24 0 .48.24.68.24 0-.24-.2-.44-.2-.68zm6.756-5.876c.2 0 .2-.24.44-.48h-1.36v.48h.92zm6.276 6.556v-.24h-.2s.2 0 .2.24zm-11.473 3.158c.44.48 1.12.68 1.599 1.119 0-.2.2-.44.2-.44-.44-.2-1.12-.68-1.56-1.12 0 .24-.24.24-.24.44zm9.474-.44c-1.12.92-2.718 1.559-4.277 1.799-.92 0-1.6-.24-2.479-.44l-.24.44c.92.24 1.8.44 2.719.44 1.799-.2 3.597-.88 4.717-2.24h-.44zm-11.033-1.6c.2.48.68.92.88 1.36.24 0 .24-.2.479-.2-.24-.24-.48-.68-.68-.92-.24 0-.48-.24-.68-.24zm1.359-6.115-.48.48c0 .2.24.2.24.439 0 0 0-.24.24-.24 0-.2.2-.2.2-.44l-.2-.24zm-.68 1.599h-.24c0-.24 0-.24-.24-.24 0 .24-.2.48-.2.92 0 0 .2 0 .2.239.24-.24.24-.48.48-.92zm2.239-2.279.24-.68c-.48.24-.68.48-1.16.68l.48.48c.2-.24.2-.48.44-.48zm58.245 5.037-.24.24v.2c0 .24.24.24.44.24-.2-.24-.2-.44-.2-.68zm9.274-5.397c.24 0 .24-.2.24-.2-.24 0-.44-.24-.68-.24v.44c.24 0 .24.24.44.24v-.24zm.68.68c.48 0 .68.24.92.44 0 0 .239-.2.239-.44-.24 0-.48-.2-.68-.44-.24.24-.24.24-.48.44zm1.839.92v-.24.24s0 .2-.24.2h.44c0-.2 0-.2-.2-.2zm-2.519 8.274c0 .24 0 .24.24.48.44-.24.92-.48 1.36-.92v-.44c-.44.44-1.12.68-1.6.88zm2.279-1.799c.24.24.24.48.24.68.44-.68.879-1.32 1.119-2.239 0 0-.24 0-.24-.2-.2.64-.68 1.32-1.12 1.76zm-10.194.92c.92.88 2.039 1.559 3.398 1.799l.44-.44c-1.36-.24-2.719-.92-3.598-1.6l-.24.24zm-1.36-2.039c0 .48.44.92.68 1.36.24 0 .24-.24.44-.44-.2-.24-.44-.44-.68-.92h-.44zm12.473-4.477s-.24 0-.48.24c.68.68.92 1.798.68 2.678l.24.24h.24v-.24c.2-.88 0-1.999-.68-2.918zm-6.116 8.075c-.24 0-.24.24-.48.44.92 0 1.839-.2 2.718-.44-.2 0-.2-.2-.2-.44-.679.24-1.359.44-2.038.44zm-5.237-8.755h.24-.24zm6.796-2.478s-.2 0-.2.24v.24h.2V131zm-7.915 4.957c0-.24-.24-.24-.24-.44-.24.2-.24.44-.24.88.24-.2.24-.2.48-.2v-.24zm.44-1.12s0-.24.24-.44h-.24c0-.24-.24-.24-.24-.24 0 .24-.2.24-.2.44 0 0 0 .24.2.24h.24z" fill="#caa797" fill-rule="evenodd"/><path d="M107.215 41.255c.48-.24 1.2-.48 1.679-.24m-1.679 1.279h1.52m-39.817 1.12c.48 0 .96 0 1.2-.16" fill="none" stroke="#fef2ed" stroke-width="1.039" stroke-miterlimit="8"/><path d="M88.546 252.927c0-.92.48-2.079 1.12-3.038-.88.48-.64.48-1.12.959.48.48 0-.24.48-.24" fill="none" stroke="#333" stroke-width=".48" stroke-linecap="round" stroke-linejoin="round" stroke-miterlimit="10"/><path d="M85.908 249.809c.92 0 2.239 1.998 2.438 2.878 0 .88 1.32-2.639 1.76-2.878.44-.24-1.76.44-3.079 0z" fill="#333" fill-rule="evenodd"/></svg>