<svg xmlns="http://www.w3.org/2000/svg" version="1.0" viewBox="0 0 338.192 438.539"><defs><clipPath clipPathUnits="userSpaceOnUse" id="a"><path d="M-.16-.16h337.795v438.854H-.16z"/></clipPath></defs><path d="M3.318 151.828c4.597 1.759 5.437 5.317 7.915 9.314 2.079 3.998 4.198 8.435 9.195 10.234 4.157 1.76 7.915 1.32 11.233.88 4.157 0 8.755-.44 14.99 2.638 5.397 2.678 8.316 6.676 12.073 11.113 3.758 5.797 7.916 11.114 15.83 13.752 6.637 1.799 10.834 1.36 14.992.48 4.157-.48 7.475-1.36 13.312 1.759 5.836 2.678 8.355 7.115 11.233 11.553 2.918 3.997 5.437 7.995 10.434 10.193 6.675 3.119 12.472 2.679 17.909 2.239 6.636-.44 13.751-.88 24.545 5.757l1.279.879 9.554-5.317c5.437-3.118 6.676-3.997 16.27-6.196 5.797-1.36 10.394-.44 15.391.44s9.994 2.198 16.67 0c6.236-2.239 9.994-6.676 13.712-10.674 3.358-3.558 6.276-7.115 11.673-8.874 4.597-1.76 7.915-1.32 12.072-.44 4.997.44 10.434 1.759 18.749-2.239 4.997-2.198 7.915-4.877 10.833-7.995 4.997-5.756 10.394-12.872 39.536-20.867v-6.197c-30.781 8.435-38.296 16.43-44.133 22.627-2.478 2.678-4.557 4.917-8.755 6.676-6.636 3.118-10.793 2.238-15.39 1.319-4.158-.44-8.755-1.32-14.991.92-6.676 2.638-10.394 7.075-14.152 10.633-2.918 3.558-6.236 7.116-11.233 8.875-4.997 1.798-8.754.879-13.751 0-4.598-.88-10.434-2.2-17.51-.44-10.394 2.238-12.073 3.558-17.909 6.676 0 0-4.557 2.638-6.636 3.558-11.673-6.237-19.188-5.797-26.264-5.357-4.997.44-9.554.44-15.39-1.76-2.919-1.798-4.998-4.436-7.516-8.434-2.878-4.437-6.636-9.794-13.712-13.312-7.515-3.998-12.073-3.118-16.67-2.239-3.757.44-7.075 1.32-12.512-.44-5.797-1.758-9.155-6.236-12.872-11.552-3.358-4.438-7.516-9.754-14.192-12.873-7.915-3.997-13.312-3.557-17.909-3.118-3.318 0-5.796.44-8.715-.88-2.918-.879-4.197-3.557-6.276-7.115-2.079-4.437-5.796-10.194-12.912-11.993v5.797z" fill="#f9c6b2" fill-rule="evenodd"/><path d="m168.178 232.619-1.24-.9c-10.833-6.655-17.908-6.216-24.564-5.776-5.417.44-11.233.9-17.91-2.219-4.976-2.218-7.475-6.216-10.393-10.213-2.918-4.438-5.417-8.895-11.253-11.553-5.817-3.119-9.155-2.22-13.312-1.78-4.158.88-8.335 1.34-14.991-.44-7.915-2.677-12.073-7.994-15.81-13.77-3.758-4.458-6.677-8.456-12.073-11.114-6.256-3.118-10.834-2.658-14.991-2.658-3.338.44-7.076.88-11.253-.9-4.997-1.779-7.076-6.216-9.155-10.214-1.659-3.118-2.918-5.776-4.997-7.555l-2.918-1.34v188.387l164.86 97.28V232.62z" fill="#ffdb43" fill-rule="evenodd"/><path d="m168.178 232.619-1.24-.9c-10.833-6.655-17.908-6.216-24.564-5.776-5.417.44-11.233.9-17.91-2.219-4.976-2.218-7.475-6.216-10.393-10.213-2.918-4.438-5.417-8.895-11.253-11.553-5.817-3.119-9.155-2.22-13.312-1.78-4.158.88-8.335 1.34-14.991-.44-7.915-2.677-12.073-7.994-15.81-13.77-3.758-4.458-6.677-8.456-12.073-11.114-6.256-3.118-10.834-2.658-14.991-2.658-3.338.44-7.076.88-11.253-.9-4.997-1.779-7.076-6.216-9.155-10.214-1.659-3.118-2.918-5.776-4.997-7.555l-2.918-1.34v188.387l164.86 97.28V232.62z" fill="#fff0b1" fill-rule="evenodd"/><path d="M293.182 191.244c-2.918 3.118-5.836 5.757-10.833 7.995-8.355 3.998-13.752 2.679-18.749 2.239-4.157-.92-7.515-1.36-12.072.44-5.437 1.759-8.355 5.316-11.673 8.874-3.758 3.998-7.516 8.435-13.752 10.674-6.676 2.198-11.673.88-16.67 0-4.997-.88-9.594-1.8-15.39-.44-9.595 2.199-10.834 3.118-16.27 6.196l-9.595 5.357v205.276l164.54-79.952V170.337h-.4c-28.742 8.035-34.139 15.11-39.136 20.907z" fill="#fee46e" fill-rule="evenodd"/><path d="M16.23 157.904c2.079 3.558 3.358 6.237 6.276 7.116 2.919 1.32 5.397.88 8.715.88 4.597-.44 9.994-.88 17.91 3.118 6.675 3.118 10.833 8.434 14.19 12.872 3.718 5.317 7.076 9.794 12.873 11.553 5.437 1.759 8.755.88 12.512.44 4.597-.88 9.155-1.76 16.67 2.238 7.076 3.518 10.834 8.875 13.712 13.312 2.518 3.998 4.597 6.636 7.515 8.435 5.837 2.199 10.394 2.199 15.39 1.759 7.077-.44 14.592-.88 26.265 5.317 2.079-.88 6.636-3.518 6.636-3.518 5.836-3.118 7.515-4.438 17.91-6.676 7.075-1.76 12.911-.44 17.509.44 4.997.88 8.754 1.798 13.751 0 4.997-1.76 8.315-5.317 11.233-8.875 3.758-3.558 7.476-7.995 14.152-10.674 6.236-2.198 10.833-1.319 14.99-.879 4.598.88 8.755 1.799 15.391-1.32 4.198-1.758 6.277-3.997 8.755-6.675 5.837-6.196 13.352-14.192 44.133-22.626-2.878-3.558-22.866-12.873-27.863-9.315-7.515-9.314-48.33-21.307-57.485-16.43-12.073-11.553-44.973-19.108-57.045-14.231-2.519-3.518-18.35-9.315-27.064-10.634-10.434-1.799-30.821 3.998-39.576 9.754-9.994-.44-35.379 3.118-45.812 10.234-32.46-4.437-62.882 7.995-74.555 12.433 7.116 1.758 10.833 7.515 12.912 11.952z" fill="#fbddcf" fill-rule="evenodd"/><path d="m167.858 232.18.44.439 9.554-5.317c5.437-3.118 6.676-3.997 16.27-6.236 5.797-1.32 10.394-.44 15.391.48 4.997.88 9.994 2.198 16.63 0 6.276-2.239 9.994-6.676 13.752-10.674 3.318-3.558 6.236-7.115 11.673-8.914 4.557-1.76 7.915-1.32 12.072-.44 4.997.44 10.394 1.799 18.709-2.199 4.997-2.238 7.915-4.917 10.833-7.995 4.997-5.796 10.394-12.912 39.536-20.907v-6.237c-30.781 8.475-38.296 16.47-44.093 22.667-2.518 2.678-4.597 4.917-8.755 6.676-6.676 3.118-10.833 2.238-15.39 1.359-4.198-.48-8.755-1.36-14.991.88-6.676 2.638-10.434 7.115-14.152 10.673-2.918 3.558-6.276 7.076-11.273 8.875-4.997 1.758-8.715.879-13.711 0-4.598-.88-10.434-2.24-17.51-.44-10.394 2.198-12.073 3.558-17.869 6.676 0 0-4.597 2.638-6.676 3.518h-.44v7.115z" fill="#f8b8a0" fill-rule="evenodd"/><path d="M52.008 139.256c-14.19 1.779-31.32 5.336-33.42 7.095 10.035-4.877 38.857-11.992 57.646-9.754-1.66.44-11.693.88-24.226 2.659zM88.706 133c9.994-3.538 24.146-6.637 30.382-6.177z" fill="#fff" fill-rule="evenodd"/><path d="M149.03 135.798c0-4.458 6.676-15.61 10.833-16.95-3.738 3.138-4.157 8.035-4.997 12.492-.42 3.119-2.079 6.696-1.24 8.915-2.098.9-3.757 0-5.436 1.779zm27.963 43.973c0 2.638 0 21.187-7.935 13.692 1.679-3.538 4.177-7.076 5.856-10.614 1.24-3.518.42-7.056 3.738-8.834zm91.564-29.781c-.84 2.677-2.118 7.115-1.679 9.753 2.519.44 5.877 3.078 7.556.44-4.598-1.32-2.919-11.513-4.198-15.51zM53.608 168.598c3.777 4.437 8.374 7.555 12.152 12.432 3.358 4.438 6.276 9.335 12.133 10.654-10.874-9.315 7.535-21.747 6.296-31.98-3.358 3.117-3.358 9.334-7.955 11.112-4.198 1.78-12.573-.44-17.59-.44zm60.922 31.101c7.916 8.895 10.834 20.448 25.385 17.35-7.495.44-2.498-10.234-.42-12.453 3.318-4.018 9.575-4.897 12.053-8.915-5.816.46-10.813 4.018-16.21 2.679-7.895-2.679-12.073-.9-19.968 1.779zm-27.982-52.888c.859 2.259 2.118 4.517 1.699 7.216 2.938-.9 6.296-1.34 9.654-.9-3.358-2.258-6.716-5.856-10.914-6.776zm52.528-13.271c1.679 0 3.777-1.36 5.037-1.82 0 1.82 0 4.078.4 6.316zM13.632 149.93c4.997 8.894 9.574 17.768 21.227 13.331-3.738 0-6.236-2.658-5.837-6.216 1.26-6.236 10.834-12.912 15.391-14.691-9.554.46-21.207 4.017-30.362 7.115zm179.171 62.181c6.676-2.198 12.473-.879 19.149 0 5.796.44 12.872 1.32 16.19-4.877-7.875-.88-19.508-7.555-24.945-13.791 2.518 2.238 8.315 7.115 6.676 11.113-1.68 3.998-8.315 2.678-11.633 4.437zm60.004-40.815c7.475 5.357 17.47 7.995 25.784 11.113 7.036 2.639 6.236 5.757-.44 8.435-9.554 3.958-20.387-3.558-29.542 1.32 3.358-4.438 14.991-1.32 16.67-5.757 2.079-5.317-7.915-9.754-9.594-12.872zm-52.169-27.943c5.037.44 8.355 4.397 12.513 5.277 4.997.84 9.994-4.837 14.99-4.837-4.157-.88-7.475 2.199-11.632 1.32-2.119 0-4.198-2.2-7.116-2.64-2.079-.44-4.557 0-7.076 0zm-44.133 48.371c2.918.44 6.676-2.659 9.175-3.558.42 1.779.82 3.998.82 5.756-1.66.88-3.739.44-5.398-.879zm56.685-13.712c2.12.88 4.238.44 6.317 0 0 0 1.679 1.32 1.679 1.76-.84.879-1.679 2.198-2.918 3.037z" fill="#facdb9" fill-rule="evenodd"/><path d="M143.233 148.67c2.499-4.477 10.414-5.837 14.152-4.038zm71.237 4.797c4.197-3.078 9.594-3.998 14.151-2.638zm51.169 11.993c2.558-2.159 5.077-2.159 7.995-1.28zm-48.291 21.347c1.68-3.518 5.477-3.518 8.795-3.078zm-58.284 9.334c5.836 3.138 12.492.9 18.309-.46-1.66.9-3.318 2.239-5.397 3.138-3.758 1.34-6.656-.44-10.814 0zM88.227 165.46c3.357-4.458 1.679-8.475 9.194-7.576-4.178.44-7.935 3.578-9.194 7.576z" fill="#fff" fill-rule="evenodd"/><path d="M82.85 238.775c2.518 1.36 7.535 1.8 10.473 1.8 4.178-.44 5.437 0 6.257 5.396-2.919-3.598-5.857-1.34-9.615-1.799-3.338-.9-5.016-3.598-8.374-4.497zm-5.737-10.633c2.079 4.457 5.417 6.676 9.994 7.115 2.079.44 6.236.88 6.636-2.218-3.318 1.339-7.056.44-10.394-1.34zM48.71 209.993c4.578 3.977 2.919 13.671-2.938 15.43 3.758-3.078 5.437-10.573 2.938-14.97zM9.474 198.8c.42 3.158 2.918 6.755 6.256 7.195 2.499 0 3.338-.9 3.738-3.138-3.318.44-7.495-1.36-9.154-4.057zm9.994-23.506c2.918.46 4.597 0 6.676 2.218 1.24 1.34 2.918 4.897 3.318 6.656-1.24-.44-2.898-.88-4.577 0 3.338-2.218-1.24-7.095-3.738-7.975zm7.516 73.636c2.478 4.916-.42 17.409-5.837 19.188 1.26-1.78 2.499-3.119 2.918-5.337 1.24-4.018 0-8.495.42-12.513zm4.197 6.315c-.84 3.558-1.659 7.556-2.918 11.114 3.338 2.218 2.498 6.656 3.758 9.754-.42-1.76-.42-8.435 1.659-9.754 2.078-1.78 4.577.44 7.055-2.22-2.898-1.338-5.816-1.338-7.055-4.896zm29.542-5.276c.42 3.977 2.918 7.515 2.519 11.952 1.239-.46 2.498-1.339 3.737-1.779 1.68-.44 3.758.44 5.417.88 2.499.44 4.178 1.339 6.256 2.658 2.499 2.219 7.496 5.737 7.076 9.714 2.099-1.319 6.256-2.638 8.335-1.759-6.656-1.319-8.735-9.274-14.151-12.372-6.676-3.538-12.513-2.219-17.93-8.835zm63.422 27.043c2.098 6.256-5.017 11.613-9.614 12.932 5.436-2.658 9.194 0 12.132-6.676 1.24-2.678 2.499-5.356 4.577-7.155-1.239 0-3.757 0-4.997.9zm9.894-28.382c2.098-.44 3.777 1.339 5.856 1.339 2.099-5.817 7.935-7.156 12.952-5.357.84-1.8.84-4.038 1.66-5.837-3.758 4.038-7.516 1.36-11.694 4.038-1.659 1.339-5.836 5.816-8.354 4.917zm-47.791-44.074c2.918 3.538 7.895 3.538 11.233 5.757 2.898 1.778 4.557 4.897 4.977 8.454 4.577-1.339 12.053 0 14.95 3.538-1.658-2.658-4.556-3.997-7.055-5.317-3.318-1.778-4.157-3.557-6.656-6.216-3.318-3.118-7.056-3.558-11.213-5.337-2.898-1.339-4.977-3.118-8.735-2.658zm-57.665 97.281c.44 1.32 1.699 1.759 2.538 3.078.42 1.34.42 2.659 1.26 3.978 0-3.078 3.357-4.418 5.876-4.857-3.358-1.32-7.136.44-9.674-2.659zm34.699 16.03c1.679 2.199 1.259 4.857 1.259 7.496 3.758-2.199 7.515-1.76 11.693-1.32-.82 0-1.24-.44-2.079-.879-1.679-1.32-3.758-.88-5.437-1.759-1.659-.9-2.918-4.857-4.177-5.317zm-37.957 19.069c4.997 2.218 9.974.88 14.97 1.759 2.5.46 5.397 3.997 7.476 6.656-8.315-5.757-18.709-.88-27.024-7.536-2.898-1.779-5.816-4.437-8.315-7.095-1.659-1.78-2.898-4.438-4.157-7.116 2.498 1.779 8.735 8.435 11.653 6.676 1.24 3.538 2.898 6.196 6.236 7.975zm47.071 41.254c4.178 1.34 9.175-.439 12.932-1.338 3.738 7.595 6.656 12.952 15.41 13.391.42 2.679 1.66 7.136 3.319 8.915-2.079-2.219-4.577-3.997-7.076-5.796-2.079-1.34-5.416-2.22-7.075-4.018-2.499-2.219-2.919-5.337-5.837-7.136-2.498-1.339-5.417-1.779-7.915-2.218zm57.126 2.34c.42 5.336 7.075 10.213 11.672 10.213.42 4.438.82 9.315 3.318 13.292-3.318-3.538-5.816-3.977-7.075-8.855-1.24-4.877-8.335-8.434-8.755-14.19zm29.901-33.34c-1.659 1.339-1.239 5.316-1.659 7.095-1.259 3.538-1.259 3.098.42 5.317 3.318 5.297 4.557 10.614 4.557 17.25 2.08-4.418 1.26-10.174.42-14.592-1.24-4.877-1.659-10.193-2.898-15.07zm-47.371 17.669c1.66 3.118 3.318 5.796 4.138 9.354.82 2.219.82 3.998 3.697 3.558-.82-1.779-1.219-3.558-1.639-5.337-1.239-2.218-4.117-3.118-4.957-5.776zm-2.518-37.278c2.098.44 3.777.44 5.876 1.3-.42-1.74-.84-3.038-1.26-4.797-.839 3.497-2.937 2.618-5.456 3.497zm34.918-8.854c1.68-.88 3.778-3.118 5.017-4.018 1.68-.46 1.68-.46 3.358 0 2.499.44 5.017 0 7.516-.46-2.079 1.8-4.178 2.699-6.676 3.139-2.099.46-8.375 0-9.634 1.339zM5.796 263.24c0 3.578 3.318 5.797 4.957 8.475-1.639 2.679-.819 7.116-.4 10.234.4-3.118-2.078-4.897-2.478-7.555-.84-3.578-.84-6.237-2.079-9.814z" fill="#fee46e" fill-rule="evenodd"/><path d="M89.106 379.57c1.26 2.698 4.597 7.595 7.935 7.156 2.938-.44 2.938-4.018 3.338-6.696-.82 5.356-7.096 2.678-9.174-.46zm-20.388-5.697c2.08.44 3.338 1.78 5.397 2.22 1.66.439 4.977-.44 6.636-.88 3.318-1.34 3.318-3.139 2.918-7.156-1.259 5.357-5.816 5.357-10.793 5.816zm62.522 4.018c.84 5.756 8.735 13.272 10.794 4.437-1.66 3.098-6.216 0-7.456-1.779zm-14.67-100.039c1.658.44 3.337 1.779 4.996 2.218-2.498 2.219-4.157 3.998-7.515 5.317 2.099-1.32 5.017-5.756 2.518-7.995z" fill="#fee46e" fill-rule="evenodd"/><path d="M84.069 213.99c2.539-3.677 6.736-2.758 9.674-.92zm15.511 10.154c2.918-2.738 7.475-3.198 10.793-1.359zm25.824 29.822c3.738-2.259 7.076-2.718 10.793-.9zm-70.997-4.557c4.777 1.799 4.337 6.676 5.197 10.234zm14.311 14.711c3.338-1.36 8.755 1.34 9.994 4.477zm19.509 12.792c2.118-2.638 5.916-2.638 8.874-2.638zM7.376 246.77c-2.06 5.377-.42 10.294 1.219 15.191zm7.055 22.147c-1.259 3.118-1.679 6.696 0 9.354zm15.031-78.512c4.158-2.239 9.574-1.78 12.473 2.238zm40.935 14.591c3.758 0 8.755-2.679 11.673.44zM50.73 288.585c0-4.017 3.697-4.477 6.156-4.477zm15.83 39.975c2.518-1.838 5.017-1.378 7.515-.919zm50.45-7.195c-1.28 4.917 1.678 9.834 3.357 13.832zm-6.637 45.333c3.678 4.897 3.678 10.673 2.059 16.87zm34.559 23.985c0 4.458-.42 10.694 3.738 13.352z" fill="#fff" fill-rule="evenodd"/><path d="M176.613 282.749c3.358-1.76 7.915-1.32 11.273 0 1.64-3.118 3.718-6.676 5.797-9.355-2.879 1.36-5.397 4.917-8.715 6.237-3.358 1.359-9.594-1.32-11.273 3.997zm57.845-27.983c.84-2.2 1.28-4.398 1.28-6.636 7.914.88 16.63-.88 19.148-10.194 5.836 3.558 12.472 1.319 17.07-2.679.839 1.8 1.238 3.998 2.478 5.797-3.718-1.799-4.997 1.32-7.876 2.199-2.918 1.319-6.276.879-8.754 1.319-3.758 1.359-6.676 3.997-9.994 5.796-4.158 1.76-9.155.88-12.912 3.518zm69.518-24.466c-1.24 4.917 1.239 9.355 2.438 13.792-2.878 0-6.955.48-8.634 3.558 1.239-1.759 3.717-4.877 4.117-7.556.84-2.638-1.24-5.316.44-7.995zm26.184 31.661c-1.24 3.558-4.597 4.917-6.236 7.995-.84 2.239-.84 5.797-1.28 8.475-.8 3.998-2.878 11.993-7.915 12.872.44 1.76.44 4.438.44 6.636 1.679-2.198 2.478-4.437 4.157-6.196 3.318-3.997 4.598-7.555 5.837-12.432 1.24-5.797 4.157-10.674 5.397-16.43zm.08-55.966c-1.24 3.118-4.557 6.676-5.397 10.194-.44.92 0 3.118 0 4.437-.44 2.679-1.679 4.438-2.119 6.636 5.437-5.317 3.358-13.711 7.516-19.028zm-42.135-6.236c2.12-.44 3.758 0 5.437.88 2.918-4.438 6.276-7.996 9.594-12.473-4.557 3.118-7.915 9.354-13.352 10.713zm-56.925 22.226c4.157-3.118 9.154-3.997 13.712-3.118 1.239-4.477 4.157-12.112 8.275-13.911-4.118 1.359-5.357 5.836-8.675 8.075-2.079 1.799-5.837 2.718-8.315 4.477zm-49.17 4.398c2.118.88 4.197.44 5.836 1.759.84-2.639 3.358-4.398 5.837-4.877zm55.006 82.63c5.837 1.319 10.394.88 15.79.44 1.24 3.078 4.558 4.837 6.197 7.435-5.796-4.357-13.672-3.478-19.068-8.315zm87.387 34.179c-2.038 3.998-5.796 7.995-10.353 9.754-.44 5.357-2.519 9.754-4.598 14.631 3.758-3.518 4.997-6.636 7.076-11.073 2.079-4.437 5.397-7.076 7.076-11.953zM297.3 322.684c-.4 2.24 0 4.438-.4 6.676-4.157 2.239-6.276 7.556-7.076 12.473-.84 5.317-2.518 8.435-5.876 12.872 0-2.638 1.679-4.877 2.119-7.555.84-3.118 0-6.237.84-9.355 1.238-6.676 8.314-11.113 9.154-16.91zm-55.327 35.219c3.358 2.239 8.315 3.118 9.994 7.995.4-4.437 3.718-7.555 7.036-9.354-3.318 1.36-8.275 3.598-11.193.92zm-32.14 58.924c5.037-4.837 6.676-9.714 9.594-15.47 7.515 1.799 20.468-5.757 23.386-12.832 2.079 2.678 5.836 3.997 9.154 4.437-4.157-.44-7.475 1.319-10.833 3.558-3.318 2.198-7.076 3.518-11.273 5.276-3.758 1.36-6.237 2.679-9.155 5.757-3.358 3.118-6.276 4.877-10.034 7.515zm-7.076-90.025c-1.24 3.558-2.079 6.636-4.557 9.754 4.117 4.437 1.24 16.83-2.519 21.267 4.158 3.118 6.636 15.99 3.758 20.388 2.479-8.395 1.64-17.27 3.318-25.265 1.24-6.196 1.64-10.633 1.24-16.39-.44-3.998.799-8.875-.44-11.993zm-32.88 27.443c0 2.219 1.28 3.998 2.119 6.237-3.818 3.118-1.7 12.912-.42 17.789.84 2.238 2.958 5.356 3.378 8.015.42 2.678-.42 7.575-.42 10.234-.42-2.219-2.538-3.098-3.797-4.877-1.28-3.118-1.28-9.794-1.7-13.372-.42-7.995 1.26-16.91.42-24.925zm10.493-42.594c4.998-.88 7.036-6.676 8.715-10.274 3.718 1.36 10.754-1.319 13.232-4.477-2.878 4.038-5.356 4.038-9.114 6.716-1.64.88-1.64 2.239-2.878 3.118-3.318 3.158-6.636 3.598-10.794 5.357zm4.118-56.885c4.597-1.32 13.272-4.398 13.272-10.154 2.079 2.238 4.557 2.238 7.036 3.558-3.718 0-4.557 2.198-6.596 3.517-2.918 1.76-7.476 2.2-11.193 3.079z" fill="#ffd100" fill-rule="evenodd"/><path d="M262.281 253.406c0 7.596 6.716 12.033 10.873 17.35zm46.772-27.103c-5.117 2.718-1.72 15.67.4 19.668zm-120.407 9.834c1.279-6.676 4.997-8.035 9.994-10.714zm60.843-15.511c2.079-5.356 2.079-8.954 7.835-11.193zm58.604-31.98c-4.957 2.678-8.275 7.515-9.114 13.671zm-115.29 95.462c0-6.236 7.076-9.394 11.193-11.193zm56.686 1.839c3.358 1.759 5.436 4.397 5.836 8.794zm55.806 28.783c-3.838 4.477-3.398 11.592-1.679 17.349zm-10.554 35.178c-4.117 2.199-5.756 6.596-7.435 10.953zm-56.605 11.513c4.997-1.36 10.833 2.638 12.472 7.915zm-25.825 15.91c-5.316-.48-7.395 8.435-8.634 12.873zm-39.036-42.134c-3.418 4.457-1.28 11.113.42 15.99zm4.098 25.344c-2.519 4.438-3.358 9.735-1.68 15.031zm-5.357-65.8c1.279-4.877 7.515-7.995 11.673-7.075z" fill="#fff" fill-rule="evenodd"/><path d="m168.178 225.423.16 6.716M3.318 151.828c4.597 1.759 5.437 5.317 7.915 9.314 2.079 3.998 4.198 8.435 9.195 10.234 4.157 1.76 7.915 1.32 11.233.88 4.157 0 8.755-.44 14.99 2.638 5.397 2.678 8.316 6.676 12.073 11.113 3.758 5.797 7.916 11.114 15.83 13.752 6.637 1.799 10.834 1.36 14.992.48 4.157-.48 7.475-1.36 13.312 1.759 5.836 2.678 8.355 7.115 11.233 11.553 2.918 3.997 5.437 7.995 10.434 10.193 6.675 3.119 12.472 2.679 17.909 2.239 6.636-.44 13.751-.88 24.545 5.757l1.279.879 9.554-5.317c5.437-3.118 6.676-3.997 16.27-6.196 5.797-1.36 10.394-.44 15.391.44s9.994 2.198 16.67 0c6.236-2.239 9.994-6.676 13.712-10.674 3.358-3.558 6.276-7.115 11.673-8.874 4.597-1.76 7.915-1.32 12.072-.44 4.997.44 10.434 1.759 18.749-2.239 4.997-2.198 7.915-4.877 10.833-7.995 4.997-5.756 10.394-12.872 39.536-20.867v-6.197c-30.781 8.435-38.296 16.43-44.133 22.627-2.478 2.678-4.557 4.917-8.755 6.676-6.636 3.118-10.793 2.238-15.39 1.319-4.158-.44-8.755-1.32-14.991.92-6.676 2.638-10.394 7.075-14.152 10.633-2.918 3.558-6.236 7.116-11.233 8.875-4.997 1.798-8.754.879-13.751 0-4.598-.88-10.434-2.2-17.51-.44-10.394 2.238-12.073 3.558-17.909 6.676 0 0-4.557 2.638-6.636 3.558-11.673-6.237-19.188-5.797-26.264-5.357-4.997.44-9.554.44-15.39-1.76-2.919-1.798-4.998-4.436-7.516-8.434-2.878-4.437-6.636-9.794-13.712-13.312-7.515-3.998-12.073-3.118-16.67-2.239-3.757.44-7.075 1.32-12.512-.44-5.797-1.758-9.155-6.236-12.872-11.552-3.358-4.438-7.516-9.754-14.192-12.873-7.915-3.997-13.312-3.557-17.909-3.118-3.318 0-5.796.44-8.715-.88-2.918-.879-4.197-3.557-6.276-7.115-2.079-4.437-5.796-10.194-12.912-11.993v5.797z" fill="none" stroke="#333" stroke-width=".8" stroke-linecap="round" stroke-linejoin="round"/><path clip-path="url(#a)" d="m168.178 232.619-1.24-.9c-10.833-6.655-17.908-6.216-24.564-5.776-5.417.44-11.233.9-17.91-2.219-4.976-2.218-7.475-6.216-10.393-10.213-2.918-4.438-5.417-8.895-11.253-11.553-5.817-3.119-9.155-2.22-13.312-1.78-4.158.88-8.335 1.34-14.991-.44-7.915-2.677-12.073-7.994-15.81-13.77-3.758-4.458-6.677-8.456-12.073-11.114-6.256-3.118-10.834-2.658-14.991-2.658-3.338.44-7.076.88-11.253-.9-4.997-1.779-7.076-6.216-9.155-10.214-1.659-3.118-2.918-5.776-4.997-7.555l-2.918-1.34v188.387l164.86 97.28V232.62" fill="none" stroke="#333" stroke-width=".8" stroke-linecap="round" stroke-linejoin="round"/><path d="M137.876 131.72c2.899 4.477 6.217 5.797 7.456 11.593 2.898-1.779 6.616-3.558 9.494-1.779m44.694 3.458c2.917.48 6.675.92 9.154 2.718 1.239.88 3.318 2.24 4.557 2.679 2.079.44 5.397-1.8 8.275-1.8m-69.478 43.994c6.236-2.258 10.793 3.138 16.19 3.138 2.479.44 5.377-2.238 8.275-1.799M84.069 148.67c2.499 4.457 4.158 8.475 2.079 13.352m1.279-5.357c3.738-.46 7.076-1.839 10.793-.46m164.94 2.139c1.6 2.279 1.6 4.997.8 7.675m.8-3.198c2.558-1.839 5.116-1.359 7.195-.44m-60.443 15.071c2.518 1.8 5.037 3.598 5.876 6.716 1.28-2.678 3.798-3.118 6.276-2.678" fill="none" stroke="#333" stroke-width=".8" stroke-linecap="round" stroke-linejoin="round"/><path d="M10.813 237.976c-9.174 6.216-7.915 27.023.82 32.78" fill="none" stroke="#7a4402" stroke-width=".8" stroke-linecap="round" stroke-linejoin="round"/><path d="M15.67 263.24c-6.216 6.217-7.875 19.489 1.24 23.027m-5.757-110.094c5.417-10.713 21.207.46 23.266 8.475m-9.114 3.058c7.915-5.376 18.728-.9 22.466 7.576m-42.434-3.998c-.42 11.093 6.696 16.85 16.29 19.508" fill="none" stroke="#7a4402" stroke-width=".8" stroke-linecap="round" stroke-linejoin="round"/><path d="M21.967 203.277c-2.499 11.133 2.098 19.148 11.653 22.706m19.108-15.191c2.519 3.578 3.358 9.834 1.26 13.832" fill="none" stroke="#7a4402" stroke-width=".8" stroke-linecap="round" stroke-linejoin="round"/><path d="M54.887 220.147c2.518-1.36 5.017-1.36 7.515-.9m3.358-15.111c5.857-4.457 19.608-3.997 22.946 3.538" fill="none" stroke="#7a4402" stroke-width=".8" stroke-linecap="round" stroke-linejoin="round"/><path d="M81.59 212.091c5.437-9.774 20.028-2.658 21.268 6.217m-79.232 24.945c12.952 1.339 5.856 21.766.42 27.983m4.237-5.277c6.616 6.656 3.718 19.928-2.499 25.664" fill="none" stroke="#7a4402" stroke-width=".8" stroke-linecap="round" stroke-linejoin="round"/><path d="M31.141 252.127c1.26 8.875 10.434 10.194 17.11 11.513m1.199-19.988c12.133 1.34 16.31 14.731 12.133 26.304m2.178-8.135c8.755-4.897 19.189 2.679 23.346 11.573m-81.37 31.501C.76 315.59 9.055 326.702 18.589 329.36m.839-10.633c-.42 4.457-.84 9.794 1.26 13.791 3.757 7.556 15.05 7.116 21.726 5.777m-22.946-39.096c12.093-.46 12.513 8.854 15.83 19.048" fill="none" stroke="#7a4402" stroke-width=".8" stroke-linecap="round" stroke-linejoin="round"/><path d="M32.42 307.214c3.318-4.477 9.535-3.578 13.672-2.679m-1.679-27.943c3.778 1.78 5.037 7.996 3.358 11.993" fill="none" stroke="#7a4402" stroke-width=".8" stroke-linecap="round" stroke-linejoin="round"/><path d="M48.25 283.228c2.08-1.279 4.158-1.279 6.637-1.279m-42.035-63.162c-.42 3.558 2.099 7.116 4.617 8.875" fill="none" stroke="#7a4402" stroke-width=".8" stroke-linecap="round" stroke-linejoin="round"/><path d="M14.911 224.624c-2.499.44-5.437 2.199-5.017 4.797m87.207-7.096c8.315-9.374 24.106-.88 27.424 9.814m-50.77-3.518c1.68 8.435 17.45 14.632 23.666 9.315" fill="none" stroke="#7a4402" stroke-width=".8" stroke-linecap="round" stroke-linejoin="round"/><path d="M97.82 232.14c-3.757 5.796 3.758 12.452 7.916 15.11M81.59 278.751c5.837-7.096 12.473-7.995 20.788-6.216m-4.478 15.57c1.68 3.998 9.995 2.219 12.913 1.78 5.816-.9 13.712-4.898 13.712-12.493m-5.837-2.199c1.26 2.199 5.837 1.76 7.915 1.32 5.417-.44 8.755-3.079 12.073-7.916m-15.83-14.671c1.259-5.816 9.574-6.276 14.151-4.917 4.157 1.34 6.236 4.018 8.715 7.595" fill="none" stroke="#7a4402" stroke-width=".8" stroke-linecap="round" stroke-linejoin="round"/><path d="M139.875 250.768c1.26-1.759 1.68-4.417 3.358-5.297 2.938-2.218 7.556-.88 10.474 0" fill="none" stroke="#7a4402" stroke-width=".8" stroke-linecap="round" stroke-linejoin="round"/><path d="M154.466 250.768c-2.118-6.656-2.118-11.993 5.077-15.11m9.515 76.872c6.236 2.2 18.308-2.678 19.108-10.273" fill="none" stroke="#7a4402" stroke-width=".8" stroke-linecap="round" stroke-linejoin="round"/><path d="M184.008 298.819c3.758 8.395 24.626-1.32 24.226-8.875m-40.376 1.679c2.918-6.636 14.192-11.992 19.988-8.435m0 3.558c.44-9.314 7.476-16.87 16.15-17.35m-36.617-27.423c2.518-5.356 3.757-10.713 9.194-13.432 2.918-1.319 7.915-2.238 10.793 0" fill="none" stroke="#7a4402" stroke-width=".8" stroke-linecap="round" stroke-linejoin="round"/><path d="M201.998 221.506c-8.315-2.239-19.988 9.314-16.23 18.628m-9.275 10.194c5.037 8.915 18.829 1.8 22.147-4.917" fill="none" stroke="#7a4402" stroke-width=".8" stroke-linecap="round" stroke-linejoin="round"/><path d="M196.52 238.775c-2.518 7.556 11.714 10.634 16.271 9.315m-32.94 15.55c3.758.92 7.515 5.757 5.037 9.275" fill="none" stroke="#7a4402" stroke-width=".8" stroke-linecap="round" stroke-linejoin="round"/><path d="M185.368 267.638c.44-3.518 3.717-3.998 6.156-3.518m33.819-36.458c1.28-7.515 15.391-12.392 20.788-8.395" fill="none" stroke="#7a4402" stroke-width=".8" stroke-linecap="round" stroke-linejoin="round"/><path d="M262.281 204.596c-4.157-1.799-7.475-.44-10.394 2.678-5.436 6.197-7.115 13.312-4.197 20.868" fill="none" stroke="#7a4402" stroke-width=".8" stroke-linecap="round" stroke-linejoin="round"/><path d="M274.753 208.154c2.959-8.915 12.153-9.834 19.669-7.116" fill="none" stroke="#333" stroke-width=".8" stroke-linecap="round" stroke-linejoin="round"/><path d="M312.25 184.128c-4.556-2.678-9.553 3.119-12.032 6.676-5.437 6.676-6.276 11.993-4.597 19.988" fill="none" stroke="#333" stroke-width=".8" stroke-linecap="round" stroke-linejoin="round"/><path d="M329.36 186.327c7.036 6.236.84 22.746-3.757 28.943m-3.678-7.116c1.679 4.917 4.157 6.236 2.918 12.033-.84 5.316-4.157 12.432-8.755 15.07m-5.356-14.311c-11.273 5.357-6.676 22.706.4 29.822m-5.837-7.515c-6.236-.48-9.554 8.035-9.994 13.351m34.539-11.193c5.757 8.475 1.24 19.548-6.236 24.865" fill="none" stroke="#7a4402" stroke-width=".8" stroke-linecap="round" stroke-linejoin="round"/><path d="M320.286 261.961c5.796 8.435 4.157 24.385-4.997 29.262" fill="none" stroke="#7a4402" stroke-width=".8" stroke-linecap="round" stroke-linejoin="round"/><path d="M312.25 286.267c4.718 5.356 4.718 15.11 0 19.987m-86.107-10.634c1.28 12.473 18.709 16.47 27.823 12.913" fill="none" stroke="#7a4402" stroke-width=".8" stroke-linecap="round" stroke-linejoin="round"/><path d="M253.127 300.098c-2.519 8.915 6.716 18.669 14.67 19.109m-16.309-37.257c7.075 3.557 10.793 4.436 9.994 13.67" fill="none" stroke="#7a4402" stroke-width=".8" stroke-linecap="round" stroke-linejoin="round"/><path d="M260.602 288.105c1.28-2.158 3.838-1.719 6.396-1.719m36.938-11.633c0 4.078-2.878 7.196-6.636 6.756" fill="none" stroke="#7a4402" stroke-width=".8" stroke-linecap="round" stroke-linejoin="round"/><path d="M302.737 279.63c0 2.719 1.199 6.716-.8 8.955m-64.921-41.815c7.516 4.877 16.67-1.798 18.31-9.834" fill="none" stroke="#7a4402" stroke-width=".8" stroke-linecap="round" stroke-linejoin="round"/><path d="M253.606 230.78c-.84 9.754 14.951 11.513 18.669 3.998m-12.033 19.188c-.44 5.717 2.958 9.234 7.556 12.313" fill="none" stroke="#7a4402" stroke-width=".8" stroke-linecap="round" stroke-linejoin="round"/><path d="M262.76 261.881c-1.638-.48-2.877.44-4.157 2.239m15.391-38.697c-4.198 7.596 1.679 17.43 9.154 19.189m-47.891-3.678c1.2 8.475-1.239 16.51-8.235 21.827M42.414 324.883c-4.157 12.033 3.298 21.827 14.472 22.706m-.32-37.657c7.995 1.78 9.674 15.95 5.476 22.147" fill="none" stroke="#7a4402" stroke-width=".8" stroke-linecap="round" stroke-linejoin="round"/><path d="M64.56 324.983c6.677-2.259 12.094-1.799 15.831 4.937" fill="none" stroke="#7a4402" stroke-width=".8" stroke-linecap="round" stroke-linejoin="round"/><path clip-path="url(#a)" d="M293.182 191.244c-2.918 3.118-5.836 5.757-10.833 7.995-8.355 3.998-13.752 2.679-18.749 2.239-4.157-.92-7.515-1.36-12.072.44-5.437 1.759-8.355 5.316-11.673 8.874-3.758 3.998-7.516 8.435-13.752 10.674-6.676 2.198-11.673.88-16.67 0-4.997-.88-9.594-1.8-15.39-.44-9.595 2.199-10.834 3.118-16.27 6.196l-9.595 5.357v205.276l164.54-79.952V170.337h-.4c-28.742 8.035-34.139 15.11-39.136 20.907" fill="none" stroke="#333" stroke-width=".8" stroke-linecap="round" stroke-linejoin="round"/><path d="M174.015 330.24c-10.314 6.256-4.538 21.407-2.06 30.301" fill="none" stroke="#7a4402" stroke-width=".8" stroke-linecap="round" stroke-linejoin="round"/><path d="M176.493 354.225c-7.435 4.458-7.435 23.566-1.24 29.343m10.434 35.138c13.752 8.435 28.783-2.678 33.34-17.39" fill="none" stroke="#7a4402" stroke-width=".8" stroke-linecap="round" stroke-linejoin="round"/><path d="M214.47 396.04c5.437 13.272 23.746-1.32 28.703-7.995m-3.358-5.837c4.197 8.475 9.594 11.993 19.188 8.475m-31.181-28.423c8.315-10.673 24.945-3.118 27.823 8.435" fill="none" stroke="#7a4402" stroke-width=".8" stroke-linecap="round" stroke-linejoin="round"/><path d="M253.167 364.54c1.679-6.197 9.154-9.715 14.95-10.634m19.988 20.747c10.034 6.196 26.304-9.754 26.304-20.428m-7.115.96c11.273-3.078 21.667-11.553 21.667-25.825m-28.303-13.272c-6.236 6.676-3.318 17.75 2.478 23.506" fill="none" stroke="#7a4402" stroke-width=".8" stroke-linecap="round" stroke-linejoin="round"/><path d="M296.98 329.36c-6.236 4.038-7.515 12.033-7.076 18.709" fill="none" stroke="#7a4402" stroke-width=".8" stroke-linecap="round" stroke-linejoin="round"/><path d="M295.301 344.871c-7.076 1.36-10.833 8.075-11.673 15.67m-44.533-36.457c-2.079 6.676 3.318 11.553 8.235 14.63" fill="none" stroke="#7a4402" stroke-width=".8" stroke-linecap="round" stroke-linejoin="round"/><path d="M240.614 332.558c-3.318 1.36-4.557 4.438-5.836 7.516m-34.1-24.465c6.676 8.035.4 20.068-5.876 26.304" fill="none" stroke="#7a4402" stroke-width=".8" stroke-linecap="round" stroke-linejoin="round"/><path d="M199.48 336.076c3.317 8.875.439 18.629-6.677 25.265m4.197-3.998c6.677 8.875 3.359 19.549-2.518 27.504m19.188-11.993c-8.794 0-15.51 16.11-13.831 23.666" fill="none" stroke="#7a4402" stroke-width=".8" stroke-linecap="round" stroke-linejoin="round"/><path d="M207.434 368.537c.4 2.198 0 4.397-.4 7.035m-26.384 2.638c-8.634 4.918-7.795 19.15-2.458 25.825M58.724 364.06c2.519 15.59 15.011 16.47 27.504 12.032" fill="none" stroke="#7a4402" stroke-width=".8" stroke-linecap="round" stroke-linejoin="round"/><path d="M87.007 367.177c-2.938 11.993 3.758 20.848 15.051 23.506" fill="none" stroke="#7a4402" stroke-width=".8" stroke-linecap="round" stroke-linejoin="round"/><path d="M102.038 380.85c-3.338 13.81 7.516 26.703 20.008 22.705m-16.63-43.014c10.374 3.558 13.272 18.19 8.715 27.504" fill="none" stroke="#7a4402" stroke-width=".8" stroke-linecap="round" stroke-linejoin="round"/><path d="M116.53 377.311c3.377-.46 6.735 1.78 7.995 4.897m39.535-120.806c8.755 4.897 2.08 22.666-2.518 27.983" fill="none" stroke="#7a4402" stroke-width=".8" stroke-linecap="round" stroke-linejoin="round"/><path d="M157.485 281.95c5.736 3.977 3.278 12.372-.42 16.789" fill="none" stroke="#7a4402" stroke-width=".8" stroke-linecap="round" stroke-linejoin="round"/><path d="M150.669 313.45c3.338 3.118 13.771 1.779 17.51-1.36" fill="none" stroke="#333" stroke-width=".8" stroke-linecap="round" stroke-linejoin="round"/><path d="M153.167 303.616c1.66 10.214-7.895 16.43-16.65 17.75m-8.635 47.97c0 9.814 2.479 19.608 12.793 21.827m2.938-7.995c-3.738 9.794-2.898 21.827 7.056 26.704m6.696-50.69c5.916 7.536 8.015 24.386-.86 30.142" fill="none" stroke="#7a4402" stroke-width=".8" stroke-linecap="round" stroke-linejoin="round"/><path d="M159.543 336.556c1.68 11.533-2.518 30.162-14.71 35.019m-29.923-53.328c-1.659 6.256 1.24 16.05 5.777 20.947" fill="none" stroke="#7a4402" stroke-width=".8" stroke-linecap="round" stroke-linejoin="round"/><path d="M115.73 330.24c-2.918-1.72-6.256-2.159-9.195-1.28" fill="none" stroke="#7a4402" stroke-width=".8" stroke-linecap="round" stroke-linejoin="round"/><path d="M16.23 157.904c2.079 3.558 3.358 6.237 6.276 7.116 2.919 1.32 5.397.88 8.715.88 4.597-.44 9.994-.88 17.91 3.118 6.675 3.118 10.833 8.434 14.19 12.872 3.718 5.317 7.076 9.794 12.873 11.553 5.437 1.759 8.755.88 12.512.44 4.597-.88 9.155-1.76 16.67 2.238 7.076 3.518 10.834 8.875 13.712 13.312 2.518 3.998 4.597 6.636 7.515 8.435 5.837 2.199 10.394 2.199 15.39 1.759 7.077-.44 14.592-.88 26.265 5.317 2.079-.88 6.636-3.518 6.636-3.518 5.836-3.118 7.515-4.438 17.91-6.676 7.075-1.76 12.911-.44 17.509.44 4.997.88 8.754 1.798 13.751 0 4.997-1.76 8.315-5.317 11.233-8.875 3.758-3.558 7.476-7.995 14.152-10.674 6.236-2.198 10.833-1.319 14.99-.879 4.598.88 8.755 1.799 15.391-1.32 4.198-1.758 6.277-3.997 8.755-6.675 5.837-6.196 13.352-14.192 44.133-22.626-2.878-3.558-22.866-12.873-27.863-9.315-7.515-9.314-48.33-21.307-57.485-16.43-12.073-11.553-44.973-19.108-57.045-14.231-2.519-3.518-18.35-9.315-27.064-10.634-10.434-1.799-30.821 3.998-39.576 9.754-9.994-.44-35.379 3.118-45.812 10.234-32.46-4.437-62.882 7.995-74.555 12.433 7.116 1.758 10.833 7.515 12.912 11.952" fill="none" stroke="#333" stroke-width=".8" stroke-linecap="round" stroke-linejoin="round"/><path d="M146.191 142.394c-.4.44-.4 0-.84-.44 0 0-.839-.88-.839-1.759 0-46.212 52.409-126.563 61.963-135.918-9.554 9.355-57.365 89.706-57.365 135.918 0 1.32-2.08 1.759-2.919 2.199zm22.107 53.287c-1.28 0-2.119 0-2.119-1.759 0-46.172 65.44-165.66 74.995-175.013-9.554 9.354-70.797 128.841-70.797 175.013 0 1.76-1.28 1.76-2.079 1.76zm98.18-33.739c-.4 0-1.239.88-1.678.44-.4 0-.84-1.76-.84-2.639 0-46.612 59.604-150.069 69.158-158.983-9.554 8.914-64.56 112.371-64.56 158.983 0 1.32-.84 1.76-2.08 2.199z" fill="#6c4933" fill-rule="evenodd"/><path d="M146.191 142.394c-.4.44-.4 0-.84-.44 0 0-.839-.88-.839-1.759 0-46.212 52.409-126.563 61.963-135.918-9.554 9.355-57.365 89.706-57.365 135.918 0 1.32-2.08 1.759-2.919 2.199m22.107 53.287c-1.28 0-2.119 0-2.119-1.759 0-46.172 65.44-165.66 74.995-175.013-9.554 9.354-70.797 128.841-70.797 175.013 0 1.76-1.28 1.76-2.079 1.76m98.18-33.74c-.4 0-1.239.88-1.678.44-.4 0-.84-1.76-.84-2.639 0-46.612 59.604-150.069 69.158-158.983-9.554 8.914-64.56 112.371-64.56 158.983 0 1.32-.84 1.76-2.08 2.199" fill="none" stroke="#333" stroke-width=".8" stroke-linecap="round" stroke-linejoin="round"/><path d="M199.959 143.753c-1.28 3.558 3.278 3.997 2.878 1.36m17.11 3.517c0-.44.4-.44.4-.88v1.76c-1.24.879-2.479.44-2.04-1.32m-4.597 28.823c-.799.96-1.639 1.399-2.478 2.318m11.593.879c-.8.48-.8.92-.8 1.84m40.296-17.83c1.28.4 2.918.8 4.157.8m-126.883-33.66c-.86.88-1.279 2.18-2.158 3.039m16.31 5.836c-.44.46-.88.92-.88 1.839m-67.019 7.436c-3.418 1.778-1.699 3.997.42 2.238m9.994 2.638c-.48.88-.48 1.76-.48 2.639m-10.314 3.198c1.2 0 1.999.48 2.799.48m64.64 33.219c-.84-1.758.42-3.537 1.66-4.437.42 1.34.839 3.558 1.658 4.877" fill="none" stroke="#fbddcf" stroke-width="1.679" stroke-miterlimit="8"/><path d="M5.796 192.663c.82-.46 2.08-.46 2.899 0-.82 1.78-2.479 2.679-3.738 4.458 1.26-.44 2.498-.9 4.157-1.34.4 1.78-1.239 3.578-2.498 4.897m25.404 27.504c.4-.88 1.64-3.118 1.24-4.018-1.24-1.779-4.138 1.34-4.977 2.239.84-1.34 2.079-4.018 1.26-5.797-1.66-3.138-4.138.88-5.398 3.118m-4.157-19.528c0 2.159 3.258 1.3 4.477.88m.88-19.568c.44 4.857 6.316 3.098 2.958-1.78m17.509 12.473c.84-.9 4.158-3.598 3.338-4.937-.84-2.259-4.597.9-5.017 1.799m22.147 9.374c1.26 4.398 5.836 0 2.918-1.759m-16.75 12.792c.82-1.718 2.059-2.158 3.678-2.158m4.317 10.174c.88-1.32.88-4.378-.88-4.817-1.758.88-1.758 3.937-.879 5.676m13.752 9.315c0-.9 2.539-2.679 3.378-1.78 1.679.88-1.679 4.878-2.099 6.217 2.1.88 5.457-1.779 6.716-3.558M49.97 246.01c0-1.318.84-3.997 2.478-3.537 1.66.88-1.239 6.216-.4 7.535 2.459-.44 4.538-3.997 5.757-5.756m-33.24.799-.42.46c0-1.819 1.24-3.178 2.459-3.178 1.22 1.819-.82 5.877-1.64 7.675m-9.614-22.306c.44-1.32 1.3-2.638 2.16-3.518m-5.837-3.198c1.24 0 2.458-.42 3.678-1.28m-4.558-46.591c.42 5.737 7.036 1.759 2.499-.9m0 114.151c0 .42 0 .42.42.42 1.259-1.299 2.918-2.598 2.918-4.797-2.079 0-3.758 1.759-5.437 3.058m14.152 4.458c.84 1.339 2.918 3.118 4.157 1.778 1.66-1.339-1.659-2.678-2.079-3.577-2.078-4.038 3.318 0 4.558.44m14.951-1.36h3.837m-6.316-7.116c.42-.879 2.099-3.997 3.338-3.098 2.499 1.32-1.659 3.978-2.498 4.857m1.359-15.989c1.239-1.32 1.639-3.539.82-5.318-2.48-4.437-3.719 3.558-4.138 5.317m17.429 1.399c.44 1.3 3.838 2.599 4.697.86 1.7-2.179-2.978-3.058-4.697-3.058m20.867 11.992c.42 1.32 2.479 3.518 3.718 2.199 1.24-1.32-.4-4.397-1.639-4.837m17.05 1.279c1.26-1.319 1.659-3.997 0-5.337-2.499-1.779-2.499 3.558-1.66 5.337m5.098-27.583c2.059-.44 2.059-3.098.82-3.998-1.64.46-2.879 2.239-3.718 3.998m-4.718-13.672c1.28 0 2.559 0 3.838-.56m25.025-3.918c-1.26 0-2.099 1.76-3.358 1.76-2.958-.88.42-3.958 1.679-4.837 0-.44-.42-.44-.42-.44m1.2 27.543c-.82-1.359-1.66-2.258-1.66-4.057 3.319-.92 1.66 2.258 4.158 3.158 2.878 1.34 2.059-4.977 1.639-6.336m14.651 10.633c1.68 0 3.778-1.759 2.938-3.538-.84-3.098-4.197 0-5.876 1.34m11.193-4.758c1.68 0 2.918-1.379 4.158-2.318m2.938-8.395c.42-1.36-.42-4.957-2.099-4.957-2.518 0 1.68 4.957 2.099 5.836m-19.568 31.102c-.84-3.998-5.037-3.998-3.358.44.42 1.319 2.098 2.638 0 2.638-1.68.44-2.939-1.32-3.358-2.639m-13.272 5.717c.44-.88 1.299-1.76 2.158-2.639m-20.926 13.772c-.84.44-2.1 1.779-1.68 3.138 2.938.44 4.198-6.276 6.276-2.698.42 1.339-.84 4.477.84 5.377 2.938.88 3.338-4.478 3.338-6.257M97.88 219.307c-.42 1.34 0 3.118 1.26 3.998m-17.51-14.212c2.12 6.217 6.317-1.319 2.959-1.779M8.275 236.657c.42 1.319 2.518 3.957 1.679 4.837-1.26 1.319-2.938-.88-3.798-1.76m7.196 23.546c1.24 0 2.878 1.32 3.278 3.039m4.977 32.001c-1.26 1.338-2.099 3.097-1.26 5.336 2.919 0 1.66-5.337 4.158-4.897v-.44c4.997-.9.42 5.337-.4 7.096m20.788 1.359c.84-1.32 1.239-4.877-.4-5.776-2.079-1.34-3.318 3.557-2.898 5.336m-8.815 10.594c2.099-.44 4.617-1.759 6.716-2.638m16.63-1.36c1.679-.44 1.679-2.218 2.518-3.098 1.68-.9 2.1 0 1.26 2.219-.42 1.34-2.939 3.118-.42 3.997 1.679.88 4.197-1.778 5.437-2.658m12.992 18.249c1.679-.44 4.197-2.658 3.777-4.877-1.259-3.998-5.456 2.658-5.896 4.437m-15.351-1.319c.84.88 4.198.88 5.037 0-.84-1.779-2.518-2.658-4.197-3.118m-16.35.42c-1.66-2.259-8.315-.44-4.557 1.819.819.9 3.737 0 2.478 2.258-.82 1.34-4.157.9-4.977 0M17.81 320.126h-.86c1.719.46 3.877 0 4.717 1.799-1.28 1.32-3.418 1.32-4.717.88m37.117 26.144c.84-.44 2.059-2.639 1.24-3.958-1.64-1.759-4.118 3.078-4.538 4.397m61.263-30.141c1.66.46 4.138 0 4.537 1.778-1.239 1.34-3.717.9-4.957 2.22m6.756 15.03c1.68-.44 2.918-2.678 1.68-4.018-1.26-1.339-3.758 1.34-4.598 2.679m-9.194 28.043c0-1.78 2.098-7.596 4.177-4.917 1.66 1.799-3.338 6.256-2.079 8.035m16.53 3.598c.44 0 5.097-1.76 5.937 0 1.259 2.198-3.818 3.518-5.077 3.518m-3.658 7.995c1.26-1.34 3.358-3.578 2.518-5.817-.839-3.138-3.777 2.239-4.197 3.138m22.506 4.038c-.42 0-.84 0-.84.4.84.4 2.1.4 3.359.4m.839-19.009c-.84 1.779 0 6.216 2.459 5.776 2.858-.44 1.22-6.656-.42-7.555m13.312-25.744c-.84-.88-2.938-.88-3.778 0-2.098 2.578 3.358 3.018 5.017 3.438m-6.316 43.993c0 1.779 2.938 3.977 4.617 2.658 2.1-1.759-.84-5.736-2.518-6.196m-10.774 27.983c1.24-.88 3.718-3.997 2.479-5.337-1.66-1.779-6.216.9-7.476 1.78m-22.146-2.579c0-1.8-.4-3.598-1.6-4.497-.799 1.359-1.198 4.497-.399 5.836m-5.836-19.988c1.239.86 2.458 1.28 3.677 1.28m-32.36-19.129c1.679-.46 4.177-.46 5.417.88-1.24 1.778-4.158 1.778-5.837 1.778m-26.304-5.316c.86 0 3.378-1.32 3.798-.44.84 1.759-2.519 3.518-3.798 4.397m80.331-50.589c-1.259 1.759-.42 6.616 2.08 5.297 2.498-1.32 0-6.177-.42-7.956m15.53-10.213c-1.26-1.32-4.617-1.78-4.617.88 0 3.977 5.037 2.657 6.716 1.778m3.278-27.623c-.84 1.339-1.68 2.678-2.958 3.997m-.88 9.395c.42 1.759 3.778 3.078 5.037 1.319-.42-1.76-2.099-3.518-3.778-4.398" fill="none" stroke="#feec9c" stroke-width="1.679" stroke-linecap="round" stroke-linejoin="round" stroke-miterlimit="10"/><path d="M227.062 257.924c.44 1.759 3.718 6.236 6.197 3.558 2.438-2.679-2.879-7.156-4.518-8.515m-17.589-1.679c0-1.76 1.679-4.478.44-6.276-2.519-4.038-5.077 4.517-5.077 6.276m17.989-26.304c1.679.96 3.358 2.318 5.037 1.879m15.79.439c1.68-.44 4.198-2.198 4.997-3.957-2.078-1.32-5.396-.44-7.515.44m27.463 3.117c2.119-.879 5.917-.44 6.756 2.16-2.079 1.278-4.637 0-7.196 0m9.634 17.268c1.64-1.758 2.839-4.397 2.44-7.035-2.44-.48-4.038 2.638-4.878 4.837m15.751 8.435c.839 2.239 4.997 2.239 6.236 1.36-.4-2.24-2.878-2.68-4.557-3.599m15.83-25.304c-.4-2.199-2.079-5.717-4.557-5.277-1.28 2.638 1.639 5.716 3.757 6.596m7.076 3.597c-.44 2.24 2.479 6.237 4.557 4.478 2.04-1.799-2.478-6.716-4.157-6.716m-9.954 22.306c2.438 0 4.077-1.359 5.277-3.198m-19.069-37.337c.84.88 4.158.88 4.957-.88 1.64-3.597-4.957-2.238-6.196-1.359m17.429-24.384c.4 1.798.4 3.117 0 4.876-1.679 0-3.757-1.759-3.318-3.957m-31.62 21.706c.44.92 1.719 1.84 2.558 2.719m46.532 1.279c-1.64.44-3.278 1.32-2.838 3.518 1.199 0 2.838-.44 3.238-1.759m-71.957 22.786c1.68-.92 3.358-1.359 5.037-1.839m2.878-28.862c0 1.319.4 3.078-.4 4.397-1.678-.44-2.918-2.638-3.357-3.957m-72.916 35.098c1.679.44 3.398-.88 4.637-2.198-.84-2.2-3.798-2.639-5.517-1.32m-7.515 17.71c1.32-1.8 2.598-3.598 4.317-4.078.4 1.799-.44 4.957-.44 7.196m1.639 11.113c1.24-1.32 2.08-3.118 2.879-4.477m-.399 8.874c1.718 0 2.997-.84 4.237-1.679m14.071 3.079c2.079-2.24.84-4.878-1.679-5.797-3.758 2.678 2.119 6.236.84 8.915-1.24 3.078-5.437-3.558-6.277-3.998m11.314 17.23c1.239.919 4.997 4.957 3.358 6.755-1.68 1.8-5.037-1.798-5.877-3.118m21.667 6.636c.84-1.799 4.597-4.037 5.876-2.238 1.64 2.238-3.757 5.836-5.037 7.155m25.865-17.389c.44-2.199 2.039-4.437 4.077-5.797 1.2 1.8-.4 5.357-1.639 6.237m5.437 6.716c1.24.4 5.397.4 4.997-1.76-.4-2.638-4.158-1.758-5.437-.44m-7.995 11.474c1.68-.44 2.918-.88 4.158-1.36m9.634 19.989c.84-2.199 2.038-6.676 1.239-9.355-2.479 1.36-5.357 5.357-5.357 8.475m37.498-4.797c1.199 1.76 3.278 1.32 4.477 3.478-1.64.84-4.078 0-6.156-.44m15.829-17.709c1.24 1.799 4.158 2.678 5.398 1.36 2.438-3.159-2.919-4.518-4.957-4.038m-12.913-12.953c2.08 0 4.518-.4 6.157-1.279 0-3.038-4.478-3.038-6.157-1.719m24.146-20.508c-.84.88-2.079 1.76-3.358 2.64m10.314 67.118c-.8-1.319-3.678-1.798-4.478 0-.84 2.24 4.078 4.478 4.078 7.156-1.64.88-4.078.44-5.757-.44m-15.031 14.552c-.839 1.798-1.279 3.597 0 4.917 1.68-1.32 3.758-7.116 3.358-9.834m-30.78 8.115c1.678 1.239 4.197.4 5.836-.44m-22.147.4c0-1.36-.4-5.797-2.079-6.237-2.958-.48-1.679 7.556-.84 8.875m-33.26 2.638c.4-1.758-.439-3.957 0-5.716 1.24.88 3.359 5.277 5.438 4.837 2.918-.88 1.279-7.475.44-9.274m9.114-13.352c1.679-.88 2.478-2.679 2.878-4.478m-10.873-7.515c1.719-.92 3.438-1.36 4.717-1.839m-41.694-6.596c1.278-.88 5.036-3.078 6.315-.88 1.24 3.079-5.476 3.478-7.155 3.478m-14.951-18.149c1.199-1.319 1.998-2.198 2.798-3.517m-14.471 29.661c.4 2.26.8 4.058 1.999 5.837m-.32 18.149c.4 2.239 1.998 4.038 1.599 6.716m4.197 22.227c.84-1.8.44-4.038-1.24-4.957-2.558 1.359-1.278 5.396.4 7.195m-4.157 20.028c1.64.44 4.557-3.158 4.158-4.517-.84-2.719-4.598.48-5.437 1.799m12.472 22.186c.44-2.198 1.72-4.437 3.398-5.356 1.24 1.359.84 4.037-.44 5.356m9.235-29.302c1.64 1.32 4.517 0 5.317-1.799-.8-2.199-4.477-2.199-6.156-3.118m-.041-5.756c-.839-.88-2.998-2.2-2.558-3.998 1.72 0 3.838 1.36 5.077 1.36m-5.836-23.027c.44 1.28 1.239 2.119 2.478 2.958m9.994 9.834c1.28-.4 2.519-.4 3.358-.8m3.677 29.663c1.68-1.32 2.919-3.078 4.158-4.398m25.425-13.831c-2.079 1.359-4.198 3.598-4.637 6.236 3.398 0 4.637-2.638 6.316-4.877m13.352 10.154c2.478-3.878-4.637-6.956-4.637 0m35.418-16.79c.44-1.36 1.28-2.279 1.68-3.198m2.478-30.621c-.4 2.678-1.6 5.796 0 7.995m7.555-10.154c1.24-.44 4.117-2.639 3.718-4.437-.84-3.558-4.957 0-6.236 1.798" fill="none" stroke="#fee46e" stroke-width="1.679" stroke-miterlimit="8"/></svg>