<svg xmlns="http://www.w3.org/2000/svg" version="1.0" viewBox="0 0 260.145 479.357"><defs><clipPath clipPathUnits="userSpaceOnUse" id="a"><path d="M.16 2.399h259.842v479.709H.16z"/></clipPath></defs><path d="M62.502 386.666c3.998 5.876 14.491 18.668 23.006 42.154 4.497 15.47 6.496 33.06 7.496 51.729H213.03c0-7.456-.5-14.931-.5-21.867-.5-8.535 1-16.53 1-25.065s-1.5-17.61-1-25.085c1-18.668 2.998-34.139 6.996-44.273 4.997-13.871 10.993-32 15.01-46.931 3.998-14.951 9.995-39.476 10.494-54.947.5-16.01 1-30.941 2-40.555.999-9.055 0-22.927 2.498-30.942 1.999-7.995 4.997-25.604 5.496-34.139 1-8.535 1.5-15.99 2.499-24.005 1-7.456 1-14.931 1-20.808-.5-5.856-2.5-17.07-8.995-18.129-5.997-.54-13.992 3.738-16.51 18.13-2.499 14.41-3.998 27.203-5.997 36.817-1.998 10.134-5.496 25.065-7.495 32-1.999 6.936-8.995 36.278-9.494 40.556-3.518-7.476-7.016-21.887-5.017-34.68 2.498-12.272 5.017-26.683 6.016-33.619 1-6.936 2.499-13.871 1.999-19.728-.5-6.396 1-18.149 1.499-31.48 1-12.793 2.498-13.333 3.498-25.605.5-12.792 1-18.669.5-26.144-1-7.995-5.997-13.332-12.513-13.332-6.996 0-14.491 4.797-15.99 19.208-1.5 13.872-3.498 28.803-5.997 36.278-2.018 7.456-2.018 17.07-4.517 28.263-2.498 11.213-4.997 18.669-5.996 25.085-1 6.396-3.998 39.996-5.997 44.813-2.998-11.214-6.496-46.952-5.996-59.224.5-12.273 0-19.729-1.999-32.001-1.998-12.273-2.498-30.402-4.017-38.417-1.5-7.455-1.999-14.93-1.999-25.604-.5-10.134-2.998-29.862-15.49-30.402-12.013-1.08-18.51 11.733-18.01 33.08 0 20.787-1 40.536 0 51.729 1 10.673 1 28.822 1.5 38.416.5 10.134-.5 51.75-1 53.888-2.499-10.674-5.996-43.214-7.995-54.427-1.999-11.733-4.497-29.342-8.015-44.273-3.498-14.931-2.999-26.664-4.498-37.877C98.5 34.059 92.504 16.45 80.511 17.509c-12.013 1.6-16.01 21.347-13.012 45.893 2.998 24.525 1.999 50.13 4.997 66.14 2.998 16.01 1 52.807 0 69.877-1.499 14.951-8.495 42.155-11.493 45.892-3.498-13.871-8.015-30.421-9.514-39.476-1.999-9.614-6.496-39.476-24.505-50.15-14.492-8.534-22.487-3.197-24.486-.539-1.019.54-1.019 1.599-1.019 2.678 1.02 4.797 7.516 26.664 8.015 28.803 1.5 4.797 1.5 13.332 2.998 19.728 1.5 8.535 3.998 18.149 6.496 26.684 1 4.257 3.498 28.263 4.498 39.476 1 11.733 2.998 26.664 8.515 34.679 5.496 8.535 11.493 36.258 16.99 51.209 5.016 15.47 9.514 23.466 13.511 28.263z" fill="#fde9e0" fill-rule="evenodd"/><path d="M148.49 22.346c5.537 5.877 3.518 17.07 3.518 24.526 0 8.015 1.519 17.07 2.538 24.525 1.5 9.074 1.5 17.61 2.519 26.124 2.019 10.673 3.518 20.268 2.019 30.921-.5-9.594-2.519-21.847-12.113-23.985 3.538-9.055 4.537-21.327 2.019-29.862-1.52-6.396 1-10.654-9.594-10.654 3.038-1.06 7.575-1.599 8.594-4.797.5-1.599 0-3.738-1.02-4.797-.499-1.06-3.017-.54-3.537-1.06-1.499-2.138 3.538-12.272 4.038-14.93 1.019-2.139 2.518-13.332 1.019-16.01z" fill="#f9cebc" fill-rule="evenodd"/><path d="M159.044 125.264c.999 8.535 0 17.61 0 26.684.5 5.876 1.998 11.213 2.498 17.09 0 6.396.5 14.95 2.479 20.807-4.977-5.857-6.476-15.47-8.455-22.946-1.5-4.797-1.5-10.134-3.498-14.411-1.999-4.798-2.998-7.476-2.998-12.273.5-4.817 1.998-8.555 2.998-13.352.5-3.198.5-6.936.5-10.673.5-3.738 0-9.615-.5-12.293l4.477 1.08zm56.966-71.976c1.978 6.416.998 14.95 0 21.347-1 7.475-2.5 14.411-3 21.867-.499 8.015-1.998 16.01-2.498 23.485-.5 7.456 1.5 15.99-.5 22.926-3.997-3.198-7.495-8.534-12.492-9.054 8.995-.54 6.996-10.134 7.995-17.07.5-4.817 5.497-21.887-2.498-24.545 1.999 0 5.996-1.08 6.996-3.738 1-2.138-1-4.257-2.998-4.797 0-2.678 2.998-9.074 3.497-12.272.5-3.738 1-4.278 2.499-7.476 1-2.118 3.997-7.995 3.498-10.673z" fill="#f9cebc" fill-rule="evenodd"/><path d="M208.534 136.437c2.498 2.679 1.499 10.694.999 13.912l-2.998 17.63c-1.999 10.673-3.998 21.906-3.998 32.58-3.498-10.134-2.498-19.769-.5-30.442.5-5.357 1-11.233.5-17.11-.5-3.198-1.999-6.416-2.498-9.614 1.999-1.06 5.496.54 6.996-.54 1.998-1.599.5-3.737.999-5.876zm47.491-23.985c2.498 5.896-.5 16.61-1.5 22.486-.999 7.496-6.995 2.679-11.512-.52 1.519.52 6.016 1.6 8.015 0 2.498-1.618 1-4.817 1-7.495 0-1.08.499-5.896 0-6.976-1-1.599-3.998 0-5.497-1.599 3.997 0 7.995-1.06 8.494-5.356z" fill="#f9cebc" fill-rule="evenodd"/><path d="M247.03 142.893c4.498 2.14 4.498-1.599 4.997-4.797 1-2.658 2.978-5.856 2.479-8.535 0 8.535-1.98 17.07-1.98 25.605 0 10.134-.998 13.872-3.497 23.466-1.499-1.06-2.998 1.06-4.497.54-1.5-.54-4.497-.54-5.997-1.6 10.494-1.079 9.495-9.614 9.495-19.208-.5-3.738 2.498-7.455.5-11.193-1-2.139-3.499-2.659-2-5.337zM87.427 48.49c5.517-2.138 7.016-6.416 7.515-12.312 2.499 2.678 2 11.233 2 14.971 0 6.416 2.498 21.927 3.997 27.803-1.5-5.876-4.497-8.555-12.493-5.337 3.998-3.218 0-20.847 0-24.065zM20.488 155.126c10.493 3.738 14.99 13.352 16.99 16.55 1.998 3.198 3.497 6.396 4.996 10.134 2.998 7.475 3.998 15.47 5.997 23.486 1.998 9.054 2.998 18.668 5.996 27.203 1.5 3.198 4.497 9.075 4.497 12.812 0 3.738-3.498 4.797-3.498 9.055-1.499-9.594-4.497-19.209-9.494-27.743-3.498-6.936-4.997-16.01-9.494-22.407-1.999-2.138-4.497-6.396-7.496-4.257 10.994-12.273 1.5-37.358-9.994-44.833 1-.54.5 0 2 0z" fill="#f9cebc" fill-rule="evenodd"/><path d="M91.924 78.852c2 1.08 7.496 0 6.996-3.738 3.498 3.738 3.998 13.352 5.497 18.67 1.999 8.534 5.476 18.148 4.977 26.663-1.98-1.06-2.479-3.718-4.478-4.797-1.998-1.6-4.497-1.6-6.995-1.6 2.998-3.197 4.497-5.336 4.497-10.133-.5-4.797-1.999-9.594-3.998-13.852-.999-2.138-1.499-4.817-2.998-6.416-1-1.599-2.998-2.658-3.997-3.717z" fill="#f9cebc" fill-rule="evenodd"/><path d="M100.939 122.086c1 1.599 3.997 1.599 5.496 0 1.5-1.599 2-4.797 1.5-7.475 1.998 7.475 3.997 24.005 4.497 32.54 1.499 15.45 2.498 26.124 4.977 41.575-1.979-4.797-3.978-10.654-4.977-15.451-1-2.678-1-5.337-1.5-7.995-.499-3.738-2.498-5.877-4.996-8.535-2.499-3.738-3.498-7.475-5.997-11.193-1.998-4.278-4.997-4.797-8.994-4.797 4.997-5.877 18.988-7.476 10.993-17.07z" fill="#f9cebc" fill-rule="evenodd"/><path d="M103.417 123.665c-3.997-3.178-13.991-4.257-15.99 1.6 5.996-.54 13.492-3.199 17.99 3.177zm50.17-14.411c-2.039 7.975-10.634.54-14.191 4.797 4.557 1.06 12.152-1.06 15.19 4.237zm52.968 34.719c-5.497-2.139-8.995-5.857-15.51-4.258 5.016-.52 9.513 2.119 13.011 5.837zm33.46 43.194c4.497 1.599 5.476-.54 4.997 4.797l-1.5 12.812c-.5 11.733-.999 22.406-2.498 33.6 2.998-8.535-3.498-21.328-2.998-30.402 0-4.277 2.498-9.075 1.999-13.872 0-2.678-2-5.336-2.999-8.015z" fill="#f9cebc" fill-rule="evenodd"/><path d="M241.474 250.688c.5 16.01-.98 33.6-8.975 60.264-8.495 27.203-18.968 54.387-20.967 66.12-1.999 11.213-2.998 25.604-2.499 34.139.5 8.535 1 17.59.5 29.322-1 11.733 0 35.738.5 37.857-2.998-11.713-7.995-30.921-11.493-41.055-2.999-9.594-11.493-14.391-11.493-49.05.5-34.14 54.427-92.784 54.427-137.597z" fill="#fbdacc" fill-rule="evenodd"/><path d="M188.566 251.168c-1.5 19.168-9.495 36.198-13.992 54.287zm-34.539-15.511c0 22.966-1 45.932-5.997 68.359zm-45.573-14.951c3.498 21.367 5.997 42.714 5.497 64.601zm118.568 40.616c-3.497 17.05-11.013 34.099-19.028 49.01zM93.903 360.941c4.018 4.278 6.516 12.832 8.515 18.17 3.998 9.593 7.995 20.807 8.994 31.48z" fill="#f9cebc" fill-rule="evenodd"/><path d="M42.954 327.462c1.5 8.514 4.997 18.648 6.996 27.183 1.999 6.936 7.995 22.387 12.492 27.723 4.018 5.337 7.016 10.134 11.013 15.45 6.497 8.016 10.994 21.868 15.491 30.922-3.997-12.252-5.497-31.98-12.492-42.634-2.499-4.277-4.997-8.535-6.996-13.332-3.518-6.396-4.018-13.332-7.016-19.728-3.997-9.074-10.493-15.99-15.49-24.525-2-2.658-2.999-6.936-5.017-9.075z" fill="#fbdacc" fill-rule="evenodd"/><path d="M48.45 230.38c1.5 6.416 1 13.892-.5 20.828-.998 4.257-.998 8.535-.998 12.792 0 4.817-1.02 11.213.5 15.47 1.998-6.935 1.998-14.39 5.016-21.326 2.499-4.818 3.498-7.476 4.497-12.273zm151.609-41.175c0 4.298.5 7.496-.5 11.773-.52 3.218-3.518 6.416-4.037 9.634 0 2.679 2.018 5.357 2.518 8.035 1 4.278 1.52 9.615-.5 13.892.5-2.658 3.518-4.277 4.018-6.936 1-3.757-1.5-5.896-1.999-9.094-.52-3.218.5-4.298 1.5-7.496.999-4.817.999-9.634 1.498-14.45zm21.986 150.429c-3.497 16.55-10.993 30.422-11.493 47.491-.999 19.209-.999 38.937-3.497 57.605 0-11.732 0-25.064-4.997-35.738-5.497-12.792-3.498-23.466 0-36.818 2.998-9.594 10.493-15.47 14.99-24.525 2.999-5.876 5.497-11.753 7.496-18.688z" fill="#f9cebc" fill-rule="evenodd"/><path d="M78.432 155.686c-2.978 13.332-.999 25.584-.999 38.896 0 14.931-5.956 29.842-8.955 44.753 9.954-16.51 13.432-34.62 12.453-53.807-.5-9.595.98-22.907-2.499-31.981zm1.999-75.714c-8.515-.54-6.996 5.876-6.996 13.351 0 8.535-1.519 18.15 2.999 25.605-2-9.594-2.499-33.62 6.995-39.496zm52.009-16.031c-13.032-1.619-9.015 32.06-5.497 38.997 1.999-11.753-2.518-35.259 3.998-38.477zm-9.015-39.436c.5 8.475 7.995 14.831 15.49 12.193-4.996 2.638-7.495 4.757-12.492 1.06-3.498-2.66-3.498-5.837-2.498-10.075zm-53.507 16.47c1.019 5.877 4.517 8.555 9.514 9.614-6.996 5.337-9.514-1.059-9.514-7.475zm123.145 13.832c1.999 5.876 3.978 7.475 8.935 10.154-5.957 4.797-9.435-4.278-8.935-8.016zm-1.999 36.937c-5.996-1.599-5.496 12.793-5.996 16.53-1 8.535-3.498 15.451-6.017 23.446 4.018-7.455 7.516-13.851 9.015-21.847.5-5.856.5-13.851 4.497-17.589zm-6.516 54.827c-9.494-5.337-10.493 30.941-11.013 36.798 3.518-13.332 4.017-24.525 11.513-35.718zm52.928-38.996c-3.498 8.075-3.498 17.749-3.498 26.864 0-8.595 3.998-15.571 3.498-23.626zm.56 33.739c-5.497-3.198-5.497 4.797-6.496 8.535-1.5 6.396-4.997 13.852-4.997 20.248 3.997-5.857 6.496-25.585 11.992-27.703zM231.5 181.31c-4.997-3.218-7.496 1.6-8.995 5.857-1.999 6.396-6.516 18.668-5.497 25.064.5-4.797 8.995-30.401 14.492-29.862zm-104.577-51.189c-1.999 10.674-5.037 33.62-1 42.135zM23.506 217.028c-8.035 2.14-.5 19.189 0 26.125 1.499 10.133.5 23.985 4.997 33.04-2-11.713 0-23.986-1.5-36.238-.5-5.857-5.516-16.53-3.497-21.847zm-7.056-30.461c3.998-6.906 5.996-15.42 4.497-22.866 2 7.985 2.998 18.619-4.997 22.866zm96.002 49.65c2.478 12.792 1.999 23.985 2.478 36.778zm43.094 27.103c0 12.293-1.48 24.566-4.957 36.298zm33.479-3.118c.98 10.154-3.997 21.347-7.495 30.942zm36.478 16.47c-2.498 7.536-3.997 15.61-9.514 21.507zM50.49 349.328c2.998 7.975 4.497 16.51 7.495 25.025 1.999 5.857 5.996 9.574 8.495 14.891-2.499-6.376-3.998-12.772-6.496-19.688-2.499-7.995-7.496-15.97-9.495-23.965z" fill="#fff" fill-rule="evenodd"/><path d="M53.008 273.035c1.999-9.595 4.497-20.808 8.475-28.303" fill="none" stroke="#000" stroke-width="1.519" stroke-linecap="round" stroke-linejoin="round"/><path d="M27.024 206.915c-2.999 5.916-8.495 8.075-11.513 9.674M246.01 182.93c-5.975-1.06-10.972-2.12-12.472-5.837" fill="none" stroke="#000" stroke-width="1.039" stroke-linecap="round" stroke-linejoin="round"/><path d="M222.585 233.059c-6.516-2.119-10.514-7.456-13.032-12.792m-33.979-8.555c-5.477-5.317-6.476-14.372-8.475-23.426m-45.653 7.995c0-6.416-.959-15.51-.959-15.51" fill="none" stroke="#000" stroke-width="1.519" stroke-linecap="round" stroke-linejoin="round"/><path d="M150.07 110.333c-3.519-2.159-13.053-2.718-17.59-2.718m-29.502 22.546c-6.496 2.159-13.512 3.778-17.03 4.317m17.509-15.55c-6.476-4.277-16.47-.54-20.467.52m11.992-44.853c-4.997-1.6-11.493.52-13.991 1.04m65.64-16.471c-7.555-1.619-13.112-2.159-16.15 0m77.073 28.303c-4.477-1.12-9.974-1.679-12.472-1.679m10.953 55.007c-5.477-1.62-12.972-7.036-18.469-5.937m63.482 5.937c-5.997 0-7.496-4.318-11.513-2.699" fill="none" stroke="#000" stroke-width="1.039" stroke-linecap="round" stroke-linejoin="round"/><path clip-path="url(#a)" d="M125.504 13.312c0 3.198 1.499 14.95 6.016 18.149 5.037 3.718 11.074 2.119 14.072-1.6 3.518-5.336 3.018-16.01 1.02-19.747-2.02-9.075-22.127-8.535-21.108 3.198z" fill="#fef6f2" fill-rule="evenodd"/><path clip-path="url(#a)" d="M125.504 13.312c0 3.198 1.499 14.95 6.016 18.149 5.037 3.718 11.074 2.119 14.072-1.6 3.518-5.336 3.018-16.01 1.02-19.747-2.02-9.075-22.127-8.535-21.108 3.198" fill="none" stroke="#000" stroke-width="1.039" stroke-linecap="round" stroke-linejoin="round"/><path d="M131.88 28.203c3.558-3.698 8.135-3.158 12.193-.52 1 5.777-11.673 4.737-11.673 2.099z" fill="#fad5d4" fill-rule="evenodd"/><path d="M69.978 29.302c.999 5.337 2.998 12.273 5.996 14.951 2.998 2.119 9.014 3.718 13.512.52 4.997-3.718 5.496-12.792 2.498-21.867-4.497-10.673-24.025-5.856-22.006 6.396z" fill="#fef6f2" fill-rule="evenodd"/><path d="M69.978 29.302c.999 5.337 2.998 12.273 5.996 14.951 2.998 2.119 9.014 3.718 13.512.52 4.997-3.718 5.496-12.792 2.498-21.867-4.497-10.673-24.025-5.856-22.006 6.396" fill="none" stroke="#000" stroke-width="1.039" stroke-linecap="round" stroke-linejoin="round"/><path d="M197.04 40.515s-2.998 9.055.5 15.99c2 5.338 7.995 7.456 11.493 5.338 3.998-2.14 5.997-5.877 7.496-14.931 1.499-12.793-16.99-14.931-19.488-6.397z" fill="#fef6f2" fill-rule="evenodd"/><path d="M197.04 40.515s-2.998 9.055.5 15.99c2 5.338 7.995 7.456 11.493 5.338 3.998-2.14 5.997-5.877 7.496-14.931 1.499-12.793-16.99-14.931-19.488-6.397" fill="none" stroke="#000" stroke-width="1.039" stroke-linecap="round" stroke-linejoin="round"/><path d="M255.505 98.58c2.499 8.555-1.499 18.709-8.495 17.11-6.995-1.06-6.995-11.233-4.997-18.17 1-4.816 10.494-5.896 13.492 1.06z" fill="#fef6f2" fill-rule="evenodd"/><path d="M255.505 98.58c2.499 8.555-1.499 18.709-8.495 17.11-6.995-1.06-6.995-11.233-4.997-18.17 1-4.816 10.494-5.896 13.492 1.06" fill="none" stroke="#000" stroke-width="1.039" stroke-linecap="round" stroke-linejoin="round"/><path clip-path="url(#a)" d="M213.07 480.589c0-7.456-.499-14.931-.499-21.867-.5-8.535 1-16.53 1-25.065s-1.5-17.61-1-25.085c1-18.668 2.998-34.139 6.996-44.273 4.997-13.871 10.993-32 15.01-46.951 3.998-14.931 9.995-39.476 10.494-54.947.5-16.01 1-30.941 2-40.535.999-9.075 0-22.947 2.498-30.942 1.999-8.015 4.997-25.624 5.496-34.159 1-8.535 1.5-15.99 2.499-24.005 1-7.456 1-14.931 1-20.808-.5-3.198-1-7.455-2.5-11.733 0-.52-.499-1.06-.499-1.599-1.999-5.337-7.495-5.856-10.993-4.257-4.997 1.599-9.994 6.936-11.513 17.59-2.499 14.41-3.998 27.223-5.997 36.817-1.998 10.134-5.496 25.065-7.495 32-1.999 6.936-8.995 36.278-9.494 40.556-3.518-7.476-7.016-21.867-5.017-34.68 2.498-12.272 5.017-26.663 6.016-33.599 1-6.936 2.499-13.871 1.999-19.748-.5-6.396 1-18.129 1.499-31.48 1-12.793 2.498-13.333 3.498-25.605.5-12.792 1-18.669.5-26.144-.5-2.659-1.5-4.797-2.499-6.936-1.499-9.055-15.51-10.134-18.509-3.738-3.997 3.218-6.496 8.015-7.495 16.55-1.5 13.872-3.498 28.803-5.997 36.278-2.018 7.476-2.018 17.07-4.517 28.263-2.498 11.213-4.997 18.689-5.996 25.085-1 6.396-3.998 40.016-5.997 44.813-2.998-11.214-6.496-46.952-5.996-59.224.5-12.273 0-19.729-1.999-32.001-1.998-12.273-2.498-30.422-4.017-38.417-1.5-7.475-2-14.93-2-25.604-.499-6.936-1.998-19.748-6.995-26.144-3.498-7.476-19.008-6.936-21.007 2.138-3.998 5.857-5.497 14.931-5.497 26.664 0 20.807-1 40.556 0 51.749 1 10.673 1 28.822 1.5 38.416.499 10.134-.5 51.75-1 53.888-2.499-10.674-5.996-43.214-7.995-54.427-1.999-11.733-4.497-29.342-8.015-44.273-3.498-14.931-2.999-26.664-4.498-37.877-.999-6.936-3.498-16.01-7.995-21.867v-.54c-4.497-10.134-22.006-6.396-22.006 4.797-3.498 8.015-3.998 20.808-2.499 35.759 2.998 24.525 1.999 50.13 4.997 66.14 2.998 16.01 1 52.827 0 69.897-1.5 14.931-8.495 42.135-11.493 45.872-3.498-13.871-8.015-30.401-9.514-39.476-1.999-9.614-6.496-39.476-24.505-50.15-14.492-8.534-22.487-3.197-24.486-.539-1.019.54-1.019 1.599-1.019 2.678 1.02 4.797 7.516 26.664 8.015 28.803 1.5 4.797 1.5 13.332 2.998 19.748 1.5 8.535 3.998 18.129 6.496 26.664 1 4.277 3.498 28.283 4.498 39.476 1 11.733 2.998 26.684 8.515 34.679 5.496 8.535 11.493 36.278 16.99 51.209 5.016 15.47 9.514 23.486 13.511 28.283 3.998 5.876 14.491 18.668 23.006 42.134 4.497 15.49 6.496 33.08 7.496 51.749" fill="none" stroke="#000" stroke-width="1.519" stroke-linecap="round" stroke-linejoin="round"/><path d="M14.511 156.225c-2.998-3.757-8.495-3.218-10.493-2.678-.5.54-1.5 1.08-1.5 1.599-.999.54-.999 1.619-.999 2.678 1 4.817 7.496 26.764 7.995 28.903v.52c4.997-1.6 8.495-5.877 8.995-11.753 1-6.956-.5-15.53-3.998-19.269z" fill="#fef6f2" fill-rule="evenodd"/><path d="M14.511 156.225c-2.998-3.757-8.495-3.218-10.493-2.678 0 0 0 0 0 0-.5.54-1.5 1.08-1.5 1.599-.999.54-.999 1.619-.999 2.678 1 4.817 7.496 26.764 7.995 28.903v.52s0 0 0 0c4.997-1.6 8.495-5.877 8.995-11.753 1-6.956-.5-15.53-3.998-19.269" fill="none" stroke="#000" stroke-width="1.039" stroke-linecap="round" stroke-linejoin="round"/><path d="M219.547 235.217c3.998-3.198 1-9.114-1.999-1.599m15.031-53.807c.5-.52 1.999-3.198 2.998-2.658 1 .54 0 3.198 0 4.257.5 2.678 0 3.198 2.978 1.6 1.5-.52 2.979-2.66 2.499-4.258m.48-42.275c-3.998 6.956 4.477 6.956 4.477 0m-57.405-.459c.5-1.08 1.499-2.679 2.498-2.14 1.999.54 0 3.199.5 4.278 2.498 4.797 6.496-2.678 6.996-5.356m-1.52-48.091c-1.998 6.436 4.958 4.837 2.979-1.08m-65.081 21.927c-.52.54-1.539 3.758-1.02 4.297 1.52 1.08 2.54-1.599 3.059-2.138 4.577-3.778 4.577 1.599 4.077 5.896m-9.654-57.645c-1.998 5.837 5.997 5.837 3.498-1.599M81.95 72.476c.5 1.6.5 3.218 1.5 4.277 1.998-1.059.999-4.817 2.498-5.336 2.998-1.62 3.498 5.336 3.997 6.936m-4.976 42.214c-.5-1.62-1.02-3.758-1.02-5.377 4.517-1.08 3.018 4.298 5.517 5.377 3.997 1.599 1.999-5.916 1.999-8.075m-3.518 19.788c.52 8.035 6.556 3.758 4.557-2.679m31.481 65.101c-1.5.52-7.016 1.579-7.016-1.06 0-3.197 6.016-2.118 7.516-2.118m51.588 17.569c-1.999 1.06-5.996 5.817-5.996 1.06.5-4.777 6.496-2.659 7.495-5.837-2.498-3.718-8.994 0-11.513 1.6m-139.035 4.736c-.5-1.599-2.519-3.737-3.518-2.138-1.52 1.599 2.518 4.797 3.018 6.396m29.002 57.125c-1.998-.54-3.498.52-4.517-1.599 1.52-1.08 11.513-1.08 3.518-4.277-1.5-1.08-2.998-1.6-1-4.278 1.5-2.678 4.498-.54 6.497-.54" fill="none" stroke="#fde9e0" stroke-width="1.999" stroke-miterlimit="8"/><path d="M131.44 116.33c5.057 3.118 11.633 3.118 17.19.52m36.938 24.424c3.997 2.16 7.995 1.62 11.992 1.62" fill="none" stroke="#000" stroke-width="1.039" stroke-linecap="round" stroke-linejoin="round" stroke-miterlimit="10"/><path d="M187.107 140.195c-.5 2.159-.5 3.778 0 5.397 3.497 0 2.998-3.778 2.498-6.476M132.94 115.13c-3.498 3.278 2.498 5.997 4.497 0m11.193-6.316c-.56.54-.56 1.62 0 2.159" fill="none" stroke="#fde9e0" stroke-width="1.999" stroke-miterlimit="8"/><path d="M127.922 8.495c-.999 1.06-2.518 3.718-.999 5.297 1-.52 1-2.12 2.019-2.639 1.499-1.06 4.017-1.599 5.536-2.118 4.018-.54 7.536 0 11.553 1.579-1.499-3.698-5.016-5.297-8.534-5.297-2.02 0-4.538 0-6.037.54-1.02.52-3.038 1.578-3.538 2.638zM71.437 26.184c.5-3.198 3.498-5.856 6.496-6.916 1.999-.54 4.497-1.079 6.996-.54 1.499.54 3.997 1.6 4.497 3.738-1.999-2.138-7.995-1.079-9.994-.54-2.998.54-5.997 2.14-7.496 4.258z" fill="#fff" fill-rule="evenodd"/><path d="M76.953 42.634c1.5 1.06 2.499 1.6 3.998 2.139 1.499.52 2.998.52 4.497.52 2.998-1.06 4.997-3.738 5.977-6.956-.48 1.08-1.48.54-2.479.54-1.999.54-3.498.54-5.497 1.079-1.998.54-4.997 1.06-6.496 2.678zM198.56 55.886c2.498 4.837 9.974 8.595 12.952 2.159-3.478-1.62-6.476-3.238-10.454-2.159zm44.453 54.507c1.499 4.297 7.995 5.897 9.994 1.08-.5.54-4.997-2.699-8.495-1.08z" fill="#fad5d4" fill-rule="evenodd"/><path d="M198 42.075c4.517-7.896 17.51-5.257 17.01 4.737 0-6.317-12.493-7.356-16.51-5.257zm45.492 55.505c.52-2.098 5.517-2.638 7.516-2.098 2.498 1.04 3.498 3.678 3.997 5.777-1.998-3.678-6.496-3.678-9.993-3.678z" fill="#fff" fill-rule="evenodd"/><path d="M8.995 180.77c.999 2.14 0 4.278 2.498 3.748 1.49-.54 3.978-2.149 3.978-3.748-1.99-1.079-4.977.53-5.977.53z" fill="#fad5d4" fill-rule="evenodd"/><path d="M1.959 156.745c2.508-3.678 8.535-2.618 11.033.53-3.008-1.05-8.015-.53-8.525 3.148-1-1.05-1.499-2.099-1.499-3.678z" fill="#fff" fill-rule="evenodd"/></svg>