<svg xmlns="http://www.w3.org/2000/svg" version="1.0" viewBox="0 0 145.134 165.014"><defs><clipPath clipPathUnits="userSpaceOnUse" id="a"><path d="M3.998 1.839H148.95v165.1H3.998z"/></clipPath></defs><path d="M21.147 78.832c0-37.377 28.243-67.679 63.042-67.679 34.819 0 63.042 30.302 63.042 67.68 0 37.397-28.223 67.678-63.042 67.678-34.799 0-63.042-30.281-63.042-67.679z" fill="#ceaace" fill-rule="evenodd"/><path clip-path="url(#a)" d="M21.187 78.872c0-37.377 28.243-67.679 63.042-67.679 34.819 0 63.042 30.302 63.042 67.68 0 37.397-28.223 67.678-63.042 67.678-34.799 0-63.042-30.281-63.042-67.679" fill="none" stroke="#333" stroke-width="1.839" stroke-linecap="round" stroke-linejoin="round"/><path d="M49.13 78.792c0-20.967 15.93-37.977 35.539-37.977 19.628 0 35.538 17.01 35.538 37.977 0 20.988-15.91 37.977-35.538 37.977-19.608 0-35.539-16.99-35.539-37.977z" fill="#ff0" fill-rule="evenodd"/><path d="M31.8 83.99c0-34.92 26.924-63.662 59.625-63.662h8.634c-4.797-1.02-10.573-2.06-16.33-2.06-31.74 0-56.745 26.705-56.745 60.584 0 13.352 4.817 25.665 11.553 35.918-4.817-9.234-6.736-19.488-6.736-30.78z" fill="#fff" fill-rule="evenodd"/><path d="M110.713 25.465C122.286 36.758 130 52.148 130 70.637c0 32.84-25.085 59.524-56.905 59.524-9.634 0-18.31-3.078-27.004-7.196 10.614 9.235 23.146 15.391 38.577 15.391 30.861 0 55.926-26.684 55.926-59.524 0-23.605-11.553-43.094-29.882-53.367z" fill="#b783b7" fill-rule="evenodd"/><path d="M56.806 79.892c0-18.53 17.27-32.92 34.539-32.92h.96c-2.88-1.04-5.757-1.04-9.595-1.04-16.31 0-29.742 14.411-29.742 31.9 0 7.196 2.878 16.45 6.716 21.588-2.878-5.137-2.878-13.372-2.878-19.528z" fill="#fff" fill-rule="evenodd"/><path d="M100.04 52.088c5.776 6.177 9.614 14.412 9.614 23.666 0 17.47-13.452 31.88-29.782 31.88-4.817 0-9.615-1.039-14.432-4.117 5.777 5.137 12.493 8.215 20.188 8.215 16.33 0 29.782-14.391 29.782-31.86 0-12.353-6.716-22.627-15.37-27.784z" fill="#ffd100" fill-rule="evenodd"/><path d="M49.13 78.792c0-20.967 15.93-37.977 35.539-37.977 19.628 0 35.538 17.01 35.538 37.977 0 20.988-15.91 37.977-35.538 37.977-19.608 0-35.539-16.99-35.539-37.977" fill="none" stroke="#333" stroke-width=".8" stroke-linecap="round" stroke-linejoin="round"/><path d="M43.294 60.363c0-5.096 3.897-9.234 8.675-9.234 4.797 0 8.674 4.138 8.674 9.234 0 5.117-3.877 9.235-8.674 9.235-4.778 0-8.675-4.118-8.675-9.235zm1.839 15.391c0-2.858 2.178-5.197 4.837-5.197 2.678 0 4.837 2.339 4.837 5.197 0 2.878-2.159 5.197-4.837 5.197-2.659 0-4.837-2.319-4.837-5.197zM58.644 50.05c0-1.7 1.3-3.078 2.879-3.078 1.599 0 2.878 1.379 2.878 3.078 0 1.719-1.28 3.078-2.878 3.078-1.58 0-2.879-1.36-2.879-3.078z" fill="#fff" fill-rule="evenodd"/><path clip-path="url(#a)" d="m101.918 44.913-3.857-1.02c-16.35-3.078-18.29-4.117-25.985-19.508C66.3 10.014 56.666 4.897 48.97 3.858 38.377 1.798 26.844 5.916 17.21 16.17c-15.411 15.41-6.736 28.743.959 41.055l4.817 7.196c9.634 15.39 8.655 16.41-1.919 26.684-7.715 9.234-16.37 18.469-15.41 30.781.959 8.215 6.735 16.43 17.33 23.606 18.288 12.332 32.72 5.137 44.272-1.02l12.513-5.136c8.674-3.079 12.512 2.058 23.106 16.43l3.857 6.156c3.838 4.097 8.655 4.097 12.513 1.02 3.837-3.079 4.797-9.235 1.919-13.333l-3.858-5.137c-10.574-14.37-22.127-29.762-42.354-23.605l-15.391 7.195c-10.594 5.117-16.37 8.195-26.944 1.02-8.675-5.137-8.675-8.215-9.634-9.235 0-4.117 7.695-12.312 10.594-15.41 16.35-17.43 17.33-27.704 4.797-49.25l-5.757-9.235c-7.715-12.332-7.715-12.332-2.898-16.43 4.817-5.137 11.553-8.215 16.37-7.196 4.817 1.04 7.695 4.118 10.574 10.274 10.593 22.587 19.268 25.665 37.557 29.762l3.838 1.02c4.817 1.039 9.634-2.04 10.593-7.176.96-5.137-1.919-10.254-6.736-11.293z" fill="#fa5e56" fill-rule="evenodd"/><path clip-path="url(#a)" d="M82.79 43.933c-6.736-4.097-11.553-12.312-13.492-19.488C66.42 18.29 55.806.84 28.823 11.113c12.532-1.04 23.146-2.058 29.881 5.117 7.716 8.215 17.35 26.684 24.086 27.703z" fill="#eaf1f7" fill-rule="evenodd"/><path d="M35.618 56.246c7.736 12.312 13.512 24.625 0 41.015 2.899-7.176 9.655-22.546 0-41.015zm72.117 79.951c-6.716-8.155-18.27-16.31-30.782-12.232-11.533 4.077-25.984 11.213-25.984 11.213 10.594-3.058 24.066-9.174 33.68-9.174 8.654 0 15.39 4.077 23.086 10.193z" fill="#eaf1f7" fill-rule="evenodd"/><path d="M15.41 104.377c-7.675 10.294-10.573 24.665 7.696 36.997 18.249 12.333 31.7 6.177 35.538 4.118-6.715 1.04-22.086 3.078-36.497-10.274-15.371-12.332-9.615-21.587-6.736-30.841zm46.992-67.559c7.735 12.272 9.654 15.33 20.268 18.389 10.613 4.077 18.329 4.077 20.248 4.077 2.898 0 3.857-5.097 1.938-8.155.96 3.058.96 7.136-8.674 5.097-9.654-3.058-18.33-4.078-23.166-8.175-4.817-4.078-10.614-11.233-10.614-11.233z" fill="#e3001d" fill-rule="evenodd"/><path clip-path="url(#a)" d="m101.958 44.953-3.857-1.02c-16.35-3.078-18.29-4.117-25.985-19.508C66.34 10.054 56.706 4.937 49.01 3.898 38.417 1.838 26.884 5.956 17.25 16.21c-15.411 15.41-6.736 28.743.959 41.055l4.817 7.196c9.634 15.39 8.655 16.41-1.919 26.684-7.715 9.234-16.37 18.469-15.41 30.781.959 8.215 6.735 16.43 17.329 23.606 18.289 12.332 32.72 5.137 44.273-1.02l12.513-5.136c8.674-3.079 12.512 2.058 23.106 16.43l3.857 6.156c3.838 4.097 8.655 4.097 12.513 1.02 3.837-3.079 4.797-9.235 1.919-13.333l-3.858-5.137c-10.574-14.37-22.127-29.762-42.354-23.605l-15.391 7.195c-10.594 5.117-16.37 8.195-26.944 1.02-8.675-5.137-8.675-8.215-9.634-9.235 0-4.117 7.695-12.312 10.594-15.41 16.35-17.43 17.33-27.704 4.797-49.25l-5.757-9.235c-7.715-12.332-7.715-12.332-2.898-16.43 4.817-5.137 11.553-8.215 16.37-7.196 4.817 1.04 7.695 4.118 10.574 10.274 10.593 22.587 19.268 25.665 37.557 29.762l3.838 1.02c4.817 1.039 9.634-2.04 10.593-7.176.96-5.137-1.919-10.254-6.736-11.293" fill="none" stroke="#333" stroke-width="1.839" stroke-linecap="round" stroke-linejoin="round"/></svg>