<svg xmlns="http://www.w3.org/2000/svg" version="1.0" viewBox="0 0 314.343 400.365"><defs><clipPath clipPathUnits="userSpaceOnUse" id="a"><path d="M.4 1.999h313.97v400.637H.4z"/></clipPath></defs><path d="M75.154 42.314c-1.679-6.216 13.292-24.005 27.864-27.563 14.55-3.558 33.26 1.779 34.918 8.015 0 0 0 0 0 0 1.66 6.216-1.659 12.453-7.475 14.212L88.446 49.89c-5.816 1.759-11.633-1.78-13.292-7.576" fill="none" stroke="#000" stroke-width="1.359" stroke-linecap="round" stroke-linejoin="round"/><path clip-path="url(#a)" d="M312.83 279.89c-4.997-12.892-18.748-49.75-22.066-54.647-5.417-8.434-16.25-30.64-19.988-40.415-3.758-9.334-14.172-44.873-24.565-66.64-10.414-22.206-20.408-51.069-31.661-74.175-4.577-9.334-4.577-23.545-4.158-29.322 0-5.776-4.577-7.555-12.492-8.875-14.151-2.678-27.483-3.118-40.395-1.339-11.234 1.78-32.88-3.118-54.947 1.78-22.487 4.876-24.565 11.112-47.471 22.206C31.76 39.576 2.199 42.674 1.779 50.669c-.42 8.455.42 31.101 12.492 41.755 11.673 11.113 12.493 27.543 19.988 53.747 7.915 26.664 15.83 33.76 23.746 53.748 7.895 20.008 8.315 30.661 10.394 48.87 1.679 15.55 27.903 66.64 37.057 87.947 1.26 3.558 7.096 4.897 9.175 3.558 9.574-5.337 22.906-8.875 37.057-11.094l2.918 7.996v-.46c-1.259 2.219-2.098 4.457-1.259 7.116l4.997 14.211c.84 3.118 3.338 5.337 6.656 6.216l.42.9c.84 3.098 4.177 4.877 7.915 3.997 4.157-.9 6.656-4.457 5.836-7.555l-.84-2.219c1.66-2.218 2.08-4.437 1.66-7.116-.4-1.319-.82-2.218-1.66-3.098.42.44.84.88.84 1.32l-4.177-12.433c-.82-3.118-3.318-5.337-6.236-6.216h.42l-5.837-15.55 2.498 6.216c.42.899.84 1.339.84 2.218l.82 1.78c.839 0 1.259-.44 1.678-.44 13.312-1.34 17.49-5.777 34.14-5.777l-4.158-10.654 11.653 31.541c-2.498 3.998-3.338 7.995-2.498 12.433l9.574 26.204c1.659 5.776 6.256 10.214 12.492 11.553l.42 1.779c1.66 6.216 8.335 9.314 15.41 7.555 7.076-1.779 11.654-7.995 10.394-14.231l-5.396-14.212 3.737 10.674c2.919-3.998 4.158-8.895 3.338-13.772-.42-.46-.42-.9-.42-1.779h-.419c0-.44-.42-.9-.42-1.339 0 0 0 0 0 0s0 0 0 0l-8.315-23.106c-1.259-5.317-5.416-9.314-10.833-11.093 0 0 0 0 0 0l-8.735-23.986c.82.88 1.24 1.78 1.24 2.659l.839 1.339c25.804-8.895 29.982-9.334 42.874-17.77 11.253-7.555 17.909-7.555 32.9-8.894 2.498-.44 6.656-2.658 5.836-5.317" fill="none" stroke="#000" stroke-width="1.359" stroke-linecap="round" stroke-linejoin="round"/><path clip-path="url(#a)" d="M312.79 279.85c-4.997-12.872-18.748-49.75-22.066-54.627-5.417-8.454-16.25-30.66-19.988-40.435-3.758-9.334-14.171-44.853-24.565-66.62-10.414-22.226-20.408-51.089-31.661-74.195-4.577-9.334-4.577-23.545-4.157-29.322 0-5.776-4.578-7.555-12.493-8.875-14.151-2.678-27.483-3.118-40.395-1.339-11.234 1.78-32.88-3.118-54.947 1.78-22.487 4.876-24.565 11.112-47.471 22.206C31.72 39.536 2.159 42.634 1.739 50.629c-.42 8.455.42 31.101 12.492 41.755 11.673 11.113 12.493 27.543 19.988 53.767 7.915 26.644 15.83 33.76 23.746 53.748 7.895 19.988 8.315 30.641 10.394 48.87 1.679 15.53 27.903 66.62 37.057 87.947 1.26 3.558 7.096 4.877 9.175 3.558 9.574-5.337 22.906-8.895 37.057-11.113l-3.338-8.875c-.82-3.558 1.66-7.556 5.837-8.455 4.157-1.32 8.315.9 9.154 4.457l2.499 6.217c.42.879.839 1.319.839 2.218l.82 1.78c.839 0 1.259-.44 1.678-.44 13.312-1.34 17.49-5.777 34.14-5.777l-4.158-10.674c-1.259-6.656 3.738-13.312 11.234-15.55 7.915-2.219 15.41 1.779 17.07 7.995l1.678 5.776c.82.9 1.24 1.78 1.24 2.679l.839 1.319c25.804-8.875 29.982-9.314 42.874-17.77 11.253-7.535 17.91-7.535 32.9-8.874 2.498-.44 6.656-2.658 5.836-5.337zM130.401 36.858 88.346 49.75c-5.816 1.779-11.652-1.78-13.311-7.556-1.68-6.216 13.311-23.985 27.883-27.543 14.59-3.558 33.32 1.779 34.978 7.995 1.68 6.217-1.659 12.453-7.495 14.212z" fill="#e8f2f7" fill-rule="evenodd"/><path d="M22.926 82.77c-.42-8.455 20.408-11.113 27.503-12.892 11.653-3.558 21.647-8.435 28.723-10.214 14.99-3.558 22.486-7.096 37.497-11.093 16.65-4.458 40.816-9.335 60.803-7.556 12.493 0 27.904-6.676 28.323-3.558.4 2.659 2.899 7.116 3.738 7.556 2.918 10.214 4.577 13.312 14.171 27.983 9.994 14.211.82 26.204 15.81 47.071 15.412 21.327 19.989 43.974 23.327 60.424 3.757 15.99 11.673 28.422 18.329 38.636 6.656 9.774 18.329 46.632 21.247 54.627 2.898 7.995-12.493-3.997-30.002 5.337-17.07 8.874-19.148 9.334-29.142 15.09-10.414 5.777-9.575 5.337-17.07 8.456-7.915 2.658-17.09 4.437-25.005 7.095-7.915 2.679-9.994 0-18.729 2.679-10.833 1.759-19.168 3.997-19.168 3.997l-2.498 2.219-12.493 2.219c-17.49 4.437-34.14 9.314-37.897 6.656-2.918-2.22-9.154-22.647-13.332-30.642-4.157-8.435-11.233-23.546-17.07-38.197-5.416-14.67-2.498-3.997-7.075-28.443-4.178-23.985-4.997-31.08-12.093-43.073-7.076-12.433-10.813-27.104-17.49-43.094-7.075-15.99-4.576-25.765-14.15-47.072-4.578-6.216-6.677-8.894-6.257-14.211z" fill="#d3e6f0" fill-rule="evenodd"/><path d="M167.598 313.65c-1.259-5.737-7.935-8.835-14.61-7.056-7.096 1.76-11.274 7.935-10.015 13.652l2.08.88 23.365-7.036zm64.382-15.55c-2.06-9.375-12.453-14.312-23.247-11.614-10.773 2.679-17.849 12.513-15.77 21.907l.42 1.34s6.636.439 7.895 0c1.24 0 30.701-10.734 30.701-10.734zM98.34 164.38c5.017-11.992 12.953-38.676 1.26-50.23-9.175-8.894-27.564 3.119-39.676 1.78 22.986 2.218 30.081 1.779 28.402 20.887-1.259 19.568-7.515 36.018-7.515 43.574 0 7.555-.84 11.992 4.177 24.005 5.017 11.993 4.178 12.453 3.338 27.563-.42 14.672 7.096 19.549 7.936 32.88-.84-21.766 0-15.99 0-31.56 0-15.551 5.436-15.551.84-25.325-5.018-9.774 6.675-9.774 19.627-21.787 12.513-11.993 9.594-22.226 9.594-22.226s-3.338 10.233-15.87 12.892c-12.932 2.218-15.45-6.216-12.113-12.453zm125.005 81.231c1.659-7.116-6.257-13.791-12.913-12.452-9.594 1.779-14.17 20.447-13.751 29.782 1.239 8.435-7.935 18.209-12.093 18.209-4.177 0 12.493-2.219 18.749-8.435 6.256-5.777.84-29.782 9.174-23.106 8.335 6.656 11.253 19.548 16.67 20.887 5.837 1.779 4.158 9.774 21.247 4.437 16.67-4.877 22.087-8.874 32.08-8.874-21.666-5.797-25.404-2.239-36.657-3.118-10.833-.44-16.67 5.776-22.506-17.33zm9.594-115.011c-4.158-2.658-4.158-10.213-6.256-14.65-3.318-5.757-7.916-10.634-10.814-16.85-2.099-4.897-4.597-10.654-4.597-16.43-.42-5.317 2.498-11.093.42-15.53-4.158-10.654-6.237-22.647-9.575-22.647-3.757 0-16.25 5.337-24.585 1.779 5.017 7.995 10.414 2.219 13.332 20.867 2.499 18.649 3.338 13.752 13.332 37.278 9.574 23.086 9.574 7.995 17.49 23.086 7.495 14.65 11.673 21.307 15.41 29.722-2.918-15.071 2.079-19.069-4.157-26.624z" fill="#bcdae9" fill-rule="evenodd"/><path d="M256.565 386.466c-1.66-5.777-8.315-8.895-15.391-7.116-7.076 1.779-11.673 7.995-10.414 13.772 1.66 6.216 8.315 9.314 15.39 7.555 7.077-1.779 11.654-7.995 10.415-14.211z" fill="#afd3e4" fill-rule="evenodd"/><path d="M253.286 387.365c-.839-4.417-6.256-7.075-11.672-5.736-4.997 1.759-8.755 6.176-7.496 11.033.84 4.417 6.256 7.056 11.673 5.297 4.997-1.32 8.735-6.176 7.495-10.594z" fill="#7ca0b0" fill-rule="evenodd"/><path d="M241.694 381.549c-3.738 1.339-7.056 4.457-7.476 7.595 2.079 1.34 4.977 1.78 7.875 1.34 4.158-1.34 7.056-4.478 7.876-7.596-2.06-1.34-4.957-1.799-8.275-1.34z" fill="#427a90" fill-rule="evenodd"/><path d="M248.79 342.952c-2.1-9.294-12.933-14.631-24.206-11.513-11.253 2.659-18.349 12.852-16.25 22.147l9.594 26.144c-2.099-9.295 5.417-19.049 16.25-22.147 11.273-2.658 22.107 2.219 24.185 11.513l-9.574-26.144z" fill="#c1c9ce" fill-rule="evenodd"/><path d="M219.987 343.892c3.318-4.438 8.714-7.536 14.51-8.875 1.26-.44 2.08-.44 3.319-.88-3.718-.879-7.875-1.339-12.013 0-9.954 2.659-16.61 11.534-14.95 19.968l5.396 14.192c-.82-3.978-2.898-17.29 3.738-24.405z" fill="#e6eaec" fill-rule="evenodd"/><path d="M251.268 372.254c-1.26-6.196-8.355-9.314-15.031-7.535-7.096 1.779-11.693 7.975-10.434 14.191l5.017 14.172c-1.26-5.757 3.338-11.953 10.434-13.732 7.095-1.779 13.771 1.34 15.43 7.096l-5.416-14.192z" fill="#e2eff5" fill-rule="evenodd"/><path d="M258.343 369.176c-2.078-9.334-12.912-14.231-24.165-11.553-10.833 3.118-18.349 12.892-16.25 22.227 1.659 5.776 6.236 10.234 12.492 11.553l-4.577-12.433c-1.26-6.236 3.338-12.452 10.414-14.231 6.656-1.779 13.751 1.34 14.99 7.555l3.758 10.674c2.919-3.998 4.158-8.895 3.338-13.792z" fill="#657279" fill-rule="evenodd"/><path d="M179.191 361.68c-.84-3.097-4.597-4.896-8.355-3.997-3.737.9-6.256 4.458-5.416 7.576.84 3.098 4.177 4.877 7.935 3.997 4.157-.9 6.656-4.457 5.836-7.575z" fill="#afd3e4" fill-rule="evenodd"/><path d="M177.452 362.14c-.42-2.658-3.318-3.997-6.216-3.098-2.898.88-4.977 3.538-4.137 5.757.42 2.658 3.318 3.978 6.216 3.098 2.898-.88 4.537-3.538 4.137-5.756z" fill="#7ca0b0" fill-rule="evenodd"/><path d="M174.574 358.902c-1.22 0-2.059-.44-3.298 0-2.458.88-4.117 2.639-4.537 4.838h3.318c2.458-.88 4.117-2.639 4.517-4.838z" fill="#427a90" fill-rule="evenodd"/><path d="M175.014 338.155c-1.26-4.877-7.116-7.995-12.952-6.216-6.256 1.339-10.034 7.116-8.775 11.993l5.017 14.21c-1.26-5.316 2.918-10.653 8.775-11.992 5.836-1.759 11.693 1.34 12.932 6.236l-4.997-14.23z" fill="#c1c9ce" fill-rule="evenodd"/><path d="M159.603 338.115c1.68-1.779 4.198-3.538 7.136-3.978.42-.44 1.26-.44 1.679-.44-1.68-.439-3.778-.899-6.296 0-5.037.88-8.415 5.737-7.136 9.715l2.519 7.056c-.42-1.76-1.68-8.835 2.098-12.353z" fill="#e6eaec" fill-rule="evenodd"/><path d="M163.381 345.11c2.079-1.758 8.315-3.077 12.472 0l-3.318-8.794c0 1.76-1.239 3.518-3.318 4.398-2.918 1.319-5.836 4.397-5.836 4.397z" fill="#8a969c" fill-rule="evenodd"/><path d="M176.293 353.646c-.82-3.078-4.577-4.857-8.335-3.518-3.738.88-6.256 3.957-5.417 7.495l2.919 7.476c-.84-3.078 1.679-6.596 5.416-7.476 3.758-.9 7.516.88 8.335 3.958l-2.918-7.935z" fill="#e2eff5" fill-rule="evenodd"/><path d="M180.01 352.306c-1.258-4.877-7.095-7.995-12.931-6.216-5.837 1.34-10.014 6.676-8.755 11.993.84 3.118 3.338 5.337 6.676 6.216l-2.498-6.656c-.84-3.558 1.659-6.656 5.416-7.555 3.738-1.32 7.496.46 8.335 3.558l2.079 5.776c1.679-2.218 2.079-4.437 1.679-7.116z" fill="#657279" fill-rule="evenodd"/><path d="M113.731 179.051c2.099-3.118 7.096-10.213 9.175-13.331 3.757-5.777 2.918-10.654 2.918-17.33 0-6.656-2.079-16.87-.42-23.546 2.099-5.776 4.597-5.776 10.853-7.115 0 14.67-9.594 51.109 10.414 56.885 4.997 1.32 10.014-2.238 14.591 1.76.42.899 2.079 4.896 2.918 5.776 2.499 5.336 5.417 9.334 8.755 14.231 7.076 10.214 12.912 26.204 6.676 38.637-.42-10.214 1.24-15.99-5.017-23.086-3.738-3.998-10.833-12.893-16.67-9.775-8.335-21.766-21.667-13.771-40.015-15.11zm37.977-88.426c10.014 8.015 11.673 17.35 11.253 30.242-.4 8.455-3.738 20.008 3.338 26.244 8.755 8.435 25.005-.44 36.258-.44-12.072 3.098-26.664-12.013-29.162-20.907-1.68-5.337 4.157-12.453 1.24-17.79-3.319-6.675-8.336-8.894-12.493-14.23zm-21.727 134.718c0 7.536-.42 10.194-3.757 15.511-3.758 5.337-4.178 5.777-4.178 13.312 0 13.752 3.338 24.825 20.448 23.945 1.679-13.311-12.513-21.287-2.08-33.7 4.998-5.776 10.854-9.313 18.35-9.313 4.597-.44 8.774 2.218 12.932 1.319 0-10.634-21.687-14.192-30.022-13.292z" fill="#bcdae9" fill-rule="evenodd"/><path d="M82.07 112.852c5.037 1.779 9.634 4.897 10.894 9.794.84 3.558 0 8.435 0 12.452 0 5.337 0 11.113-.42 16.91-.42 5.776-3.778 9.774-5.857 15.13-2.098 4.878-1.259 9.775-1.259 15.112.84-3.998 2.938-7.556 4.178-11.114.84-3.118.42-6.676 1.259-9.794.84-3.118 2.518-3.558 4.597-5.776 1.68-2.219 1.68-4.018 2.519-7.116 1.679-5.796 2.938-11.133 3.358-17.81.4-3.997.4-6.675 0-10.673-.84-7.115-5.457-7.555-12.153-9.354zm15.031 68.838c6.676 3.558 15.83.44 22.067-2.219.84-4.457 3.338-4.457 4.997-7.575 1.659-2.659.42-5.317 1.239-8.435.84-4.457 3.338-6.676 3.758-11.553.42-8.015-.84-16.01.42-24.025 0 6.236-3.339 39.576 5.396 40.015 2.918 5.777 8.755 7.116 14.152 8.015 1.259 2.219 2.918 2.659 4.577 4.438 4.157 4.437 2.918 11.553 2.918 17.33.84-9.775-4.577-16.43-13.312-16.89-5.417 0-17.07 2.678-25.384 2.678-8.755 0-16.23 6.216-20.828-1.78zm68.739-75.954c0 8.015-.42 16.03-.84 24.045 0 3.118-.42 7.116 0 10.234 1.26 6.236 6.256 6.236 11.253 8.895 0-2.659-2.918-5.337-3.738-8.455-.42-3.118-.42-5.337-1.259-7.995-2.079-5.797-4.997-12.473-5.836-18.25zm25.844-51.909c2.918-1.339 7.076-.44 9.994 1.34.42 5.776-.42 11.553 0 17.31.42 4.896 3.338 7.554 3.757 12.452.4 3.537 0 7.535 0 11.533 0-4.438-2.918-7.996-4.177-11.533-1.24-3.558-2.079-7.116-2.898-10.674-1.26-3.538 0-7.535-.84-11.533-.84-3.118-3.338-4.457-4.157-7.555zm6.196 208.374c.84-6.696-.84-16.97 3.338-22.326 1.26-1.8 3.758-4.478 5.437-5.817 4.177-2.238 12.952 2.679 17.13 3.578 1.239 6.696-.84 10.733 1.239 16.97-2.499-5.797-7.096-18.749-14.192-12.952-3.757 3.138-7.515 8.055-7.935 13.411zm-68.219 5.597c.42-6.177-4.577-14.591-1.659-20.788 2.08-4.417 4.997-4.857 6.237-9.294.42-2.199 2.078-5.757 2.078-8.395 3.318 0 7.056-.46 9.974-.46 5.817.46 11.214 2.659 16.61 3.098-5.816 0-11.213 0-17.03 1.78-4.976 3.097-4.976 8.854-9.554 12.392-5.396 3.977-5.816 8.395-5.816 15.49 0-.46-.42-.46-.42-.899z" fill="#9cc9de" fill-rule="evenodd"/><path d="M88.786 111.572c2.938.9 7.116 1.34 8.355 4.458.84 1.759.84 5.316 1.68 7.095.419 1.78 1.238 3.558.839 5.337-.42 3.538-1.68 1.32-3.758 3.978-.42-3.098 0-6.216-.42-9.315 0-4.437-2.938-5.336-5.856-8.435zm34.939 65.641c1.28-.44 2.119-.88 3.378-1.32-.42-2.218 0-4.417 1.26-5.316 1.258 1.339 2.098 1.779 3.357 2.658 1.26.9 2.519-.88 3.358 1.34-2.938-.44-4.617 2.198-7.555 1.758zm43.813-47.492c0 3.558.42 7.536.42 11.513h3.738c-1.66-1.319-3.318-3.537-3.738-5.756zm-27.503 104.897c-.84 3.518-3.778 5.696-4.637 9.194 2.538-1.739 2.538-3.937 4.217-6.116 1.68-2.199 5.037-3.518 7.136-4.837h-8.395zm67.499 3.458c-2.059 1.799-4.557 6.256-4.977 8.934 1.66-.44 3.738-1.339 4.977-2.678.84-.88 1.66-3.578 1.66-3.578 1.658-1.34 4.976-.44 7.035-.88-.4-1.798-2.059-2.698-3.718-2.698z" fill="#3aa0c3" fill-rule="evenodd"/><path d="M65.44 99.5c18.749 0 32.48-7.136 41.215 13.352 4.158 9.354 3.338 21.826 3.758 32.06 7.476-18.249.4-32.5-.42-51.209-6.656-.44-7.915-1.339-13.731-3.558-4.598-2.238-16.25 4.897-20.828 7.116zm104.977-2.239c5.456 3.138 8.814 7.575 8.814 14.711 0 1.78-.84 3.578-.84 5.357-.419 3.997 2.1 4.457 4.178 7.116 0-2.659-.82-4.897-.82-7.576v-10.234c0-1.799.42-4.457-.839-6.236-1.259-1.799-7.555-2.238-9.654-3.138zm-32.081 49.33c0 4.457-1.26 10.254 0 14.252.84 3.577 4.597 11.573 8.355 11.573 2.918 0 5.417-2.659 8.755-2.659 2.099-.44 5.856.44 6.256-2.239-3.338-.44-6.676-.44-10.014-.44-3.758-.439-4.997-.439-6.256-4.457-1.26-3.118-.84-4.437-2.499-6.676-1.679-2.658-3.338-3.997-3.757-7.115zm1.699 107.055c.84-3.098.42-5.776 2.519-8.874 2.078-2.679 5.836-4.897 9.174-5.337 4.597-.9 10.434-.44 15.01 0-.399.44-3.337 3.558-4.157 3.558-1.259 0-2.518-2.219-4.597-2.679-2.498-.44-1.659 0-3.757 1.34-.84.44-1.24 1.339-2.499 2.218-1.26.46-2.498.46-3.758.9-1.659.88-4.597 2.658-5.416 3.997zm-38.776-25.264c0-3.099-.42-7.096.42-10.214.839-4.438 1.658-4.438 0-8.455-2.1-3.998-.42-3.098 2.078-6.216.42-.44 0-1.78.84-2.659 1.259-1.339 3.757-.9 5.436-1.779 2.079-1.339 3.758-4.457 6.676-5.336 4.577-2.679 10.434 0 15.43 0 3.359 0 9.615-.44 11.694 1.339 2.918 1.779 2.099 7.995 2.099 11.113-2.519-3.558-2.519-7.555-7.096-8.455-4.597-.88-10.034-.44-14.192 0h-5.436c-3.758.44-2.499.9-4.178 3.558-1.659 3.118-4.597 6.676-7.515 7.555zm109.613.779c8.335 2.678 15.011 0 15.41 7.116.84 7.115 2.1 17.33 4.998 20.447 2.918 3.119 12.492 3.998 20.407 3.558 7.916-.44 11.673.88 14.991.88-9.574-3.098-13.312-.88-19.148-3.098-5.836-1.78-13.332-2.22-13.332-6.676 0-4.438-2.498-13.772-3.738-17.33-1.679-3.997-7.075-6.236-7.075-6.236l-12.513 1.34z" fill="#fff" fill-rule="evenodd"/><path d="M286.227 266.978c-2.919-1.339-3.338-3.118-4.578-5.796-2.518-3.998-5.017-5.337-8.754-7.556-6.676-3.997-15.431-2.658-20.848-8.894-3.338-3.558-7.515-9.774-3.338-14.671 3.758-3.998 11.253 0 16.25-.44 5.837.44 9.595-5.797 9.595-5.797 0 5.797-6.257 8.015-8.755 11.134-2.499 3.098-3.338 3.098.84 6.216 4.157 3.118-.42-.44 7.495 3.558 7.915 3.997 2.918 3.118 8.335 12.012 5.417 8.895 14.171 16.89 16.67 16.89z" fill="#bcdae9" fill-rule="evenodd"/><path d="M260.722 231.04c-2.479-.44-8.315-2.658-9.974.44-1.26 2.218-.84 7.075.42 9.294.82 1.779 2.079 2.219 3.738 3.098 1.259.88 2.078 2.219 3.337 2.659 1.66.88 3.738 0 5.397.44 2.918.44 5.417 1.758 8.315 2.198-4.157-1.32-14.551-3.078-12.892-9.714.42-1.78 1.26-2.219 1.659-3.978v-4.437z" fill="#9cc9de" fill-rule="evenodd"/><path d="M254.906 232.28c-2.939-.46-2.1 3.137-2.1 4.916.84 4.038 1.68 5.377 5.877 5.817-1.259-1.34-3.777-3.578-3.777-5.357 1.259-.46 2.098-.9 2.938-1.36 0-1.338-.42-2.678-1.68-3.117z" fill="#3aa0c3" fill-rule="evenodd"/><path d="M227.022 358.143c4.198-3.558 16.73-5.777 25.505 0l-7.096-17.83c0 3.579-2.098 7.596-6.696 9.375-6.276 2.219-11.713 8.455-11.713 8.455z" fill="#8a969c" fill-rule="evenodd"/><path d="M220.386 336.316c-5.396 2.679-9.994 9.774-9.994 14.651 0 1.34 2.499 7.975 2.499 7.975-1.659-7.535.42-15.51 7.495-22.626zm-59.963-2.159c-2.858 1.34-6.156 4.858-5.317 8.395 0 .44 1.22 4.398 1.22 4.398-.82-4.398.419-8.815 4.097-12.793zM44.093 35.618c-12.472 4.458-27.043 9.774-30.781 9.774-3.738 0-9.155 3.558-8.315 10.674.82 7.096-1.679 16.43 7.076 28.403-3.758-9.754-3.758-28.403 1.239-31.521 4.997-3.118 28.303-14.651 30.781-17.33z" fill="#fff" fill-rule="evenodd"/><path d="M163.321 38.257c7.935.44 8.755.88 15.85.44 7.096 0 16.27-2.659 20.848-3.558 4.177-1.34 7.095-2.659 7.095-2.659s.84-10.253.84-13.352c0-3.118 1.24-8.914-10.014-11.133-11.253-1.779-25.864-2.678-35.039-1.779 15.031.9 32.54 3.998 35.459 8.895 1.659 3.118 2.918 7.116-.84 12.912-3.757 5.777-12.092 8.455-18.768 8.455-6.257 0-15.431 1.779-15.431 1.779zM95.422 13.312C82.93 22.227 72.096 32 72.516 41.355c0 9.774 7.915 9.774 7.915 9.774-12.092-2.658-11.673-3.998-12.092-10.674-.42-6.216 12.092-22.246 27.083-27.143z" fill="#d3e6f0" fill-rule="evenodd"/><path d="M108.454 47.131c5.837-2.658 16.23-3.977 23.306-7.095 3.318-1.76 6.236-4.438 7.056-5.757 2.918-3.098 4.177-10.653.42-14.65 8.315 8.434 5.836 16.43.84 19.088-5.418 2.658-29.943 7.975-31.622 8.414z" fill="#fff" fill-rule="evenodd"/><path d="M149.55 51.129c-32.481 3.998-47.472 11.993-62.463 15.99-14.99 3.998-58.744 11.553-52.068 20.868 6.236 8.894 9.154 25.764 13.751 44.413 4.578 19.088 9.575 35.078 13.312 38.177-3.737-27.084.84-49.73-1.239-64.821-1.659-15.09 14.991-27.084 37.477-33.74 22.507-7.115 51.23-20.887 51.23-20.887z" fill="#eaf3f8" fill-rule="evenodd"/><path d="M75.114 42.274c-1.679-6.216 13.292-24.005 27.864-27.563 14.55-3.558 33.26 1.779 34.918 8.015 0 0 0 0 0 0 1.66 6.216-1.659 12.453-7.475 14.212L88.406 49.85c-5.816 1.759-11.633-1.78-13.292-7.576" fill="none" stroke="#000" stroke-width=".8" stroke-linecap="round" stroke-linejoin="round"/><path d="M59.924 115.95c12.112 1.319 30.481-10.694 39.656-1.78 11.673 11.554 3.757 38.258-1.26 50.25m125.045 81.211c1.659-7.116-6.257-13.811-12.933-12.472-9.594 1.779-14.19 20.487-13.771 29.842M211.712 67.12c2.078 4.457-.84 10.213-.42 15.55 0 5.776 2.498 11.533 4.577 16.43 2.898 6.216 7.456 11.093 10.774 16.87 2.078 4.437 2.078 11.972 6.216 14.63" fill="none" stroke="#e6f1f6" stroke-width=".8" stroke-linecap="round" stroke-linejoin="round"/><path d="M111.672 327.761c-.42 0-.84-.44-1.259-.44-2.918-2.218-9.154-22.626-13.332-30.62-4.157-8.436-11.233-23.527-17.07-38.178-5.416-14.65-2.498-3.997-7.095-28.402-4.158-23.986-4.997-31.082-12.073-43.074-7.076-12.433-10.833-27.064-17.49-43.054-7.095-15.97-4.596-25.745-14.17-47.052-4.578-6.216-6.677-8.874-6.257-14.211-.42-8.435 20.428-11.093 27.503-12.872 11.673-3.538 21.667-8.435 28.743-10.214 14.99-3.538 22.506-7.096 37.497-11.093 16.67-4.438 40.836-9.315 60.823-7.536 12.493 0 27.904-6.676 28.323-3.558.42 2.659 2.918 7.096 3.758 7.536 2.918 10.214 4.577 13.332 14.171 27.983 9.994 14.191.82 26.184 15.83 47.051 15.411 21.307 19.989 43.934 23.327 60.364 3.737 15.99 11.653 28.422 18.329 38.616 6.656 9.774 18.328 46.612 21.247 54.607.82 1.78.42 2.659-.84 2.659m-164.08 47.171c-11.653 3.058-21.647 5.677-25.825 4.377" fill="none" stroke="#fff" stroke-width=".8" stroke-linecap="round" stroke-linejoin="round"/><path d="M301.617 276.273c-4.157.879-15.79-4.478-29.102 2.678-13.732 7.136-17.49 8.475-24.146 12.033" fill="none" stroke="#fff" stroke-width=".8" stroke-linecap="round" stroke-linejoin="round"/><path clip-path="url(#a)" d="M312.79 279.85c-4.997-12.872-18.748-49.75-22.066-54.627-5.417-8.454-16.25-30.66-19.988-40.435-3.758-9.334-14.171-44.853-24.565-66.62-10.414-22.226-20.408-51.089-31.661-74.195-4.577-9.334-4.577-23.545-4.157-29.322 0-5.776-4.578-7.555-12.493-8.875-14.151-2.678-27.483-3.118-40.395-1.339-11.234 1.78-32.88-3.118-54.947 1.78-22.487 4.876-24.565 11.112-47.471 22.206C31.72 39.536 2.159 42.634 1.739 50.629c-.42 8.455.42 31.101 12.492 41.755 11.673 11.113 12.493 27.543 19.988 53.767 7.915 26.644 15.83 33.76 23.746 53.748 7.895 19.988 8.315 30.641 10.394 48.87 1.679 15.53 27.903 66.62 37.057 87.947 1.26 3.558 7.096 4.877 9.175 3.558 9.574-5.337 22.906-8.895 37.057-11.113l-3.338-8.875c-.82-3.558 1.66-7.556 5.837-8.455 4.157-1.32 8.315.9 9.154 4.457l2.499 6.217c.42.879.839 1.319.839 2.218l.82 1.78c.839 0 1.259-.44 1.678-.44 13.312-1.34 17.49-5.777 34.14-5.777l-4.158-10.674c-1.259-6.656 3.738-13.312 11.234-15.55 7.915-2.219 15.41 1.779 17.07 7.995l1.678 5.776c.82.9 1.24 1.78 1.24 2.679l.839 1.319c25.804-8.875 29.982-9.314 42.874-17.77 11.253-7.535 17.91-7.535 32.9-8.874 2.498-.44 6.656-2.658 5.836-5.337" fill="none" stroke="#000" stroke-width=".8" stroke-linecap="round" stroke-linejoin="round"/><path d="M224.504 331.34c4.997-1.32 9.574-.88 13.312.459l-10.394-29.782c-1.679-6.216-9.174-10.234-17.09-7.995-7.495 2.218-12.492 8.874-11.233 15.55l11.653 31.541c2.918-4.437 7.915-7.995 13.752-9.774z" fill="#e8f2f7" fill-rule="evenodd"/><path d="M226.283 328.361c2.938-.88 7.935.44 7.935.44l-9.194-26.624c.42 9.334 7.955 22.646 1.259 26.184z" fill="#d3e6f0" fill-rule="evenodd"/><path d="M162.142 331.799c2.498-.88 4.997-.44 7.075 0l-5.816-15.53c-.84-3.559-5.017-5.777-9.174-4.438-4.158.88-6.676 4.877-5.837 8.435l6.256 16.85c1.24-2.659 4.158-4.438 7.496-5.317z" fill="#e8f2f7" fill-rule="evenodd"/><path d="M161.742 329.6c2.039-.44 5.317 0 5.317 0l-6.157-14.63c.42 5.336 4.937 12.432.84 14.63z" fill="#d3e6f0" fill-rule="evenodd"/><path d="M153.347 314.51c-3.318.899-3.318 3.118-2.059 6.236 1.24 3.557 2.479 11.573 4.538 11.573 1.659 0 6.196-.88 6.196-2.659s-3.298-8.475-3.718-10.254c-.4-1.779-2.478-5.796-4.957-4.897z" fill="#f1f7fa" fill-rule="evenodd"/><path d="M224.504 331.34c4.997-1.32 9.574-.88 13.312.459l-10.394-29.782c-1.679-6.216-9.174-10.234-17.09-7.995-7.495 2.218-12.492 8.874-11.233 15.55l11.653 31.541c2.918-4.437 7.915-7.995 13.752-9.774m-62.362.46c2.498-.88 4.997-.44 7.075 0l-5.816-15.53c-.84-3.559-5.017-5.777-9.174-4.438-4.158.88-6.676 4.877-5.837 8.435l6.256 16.85c1.24-2.659 4.158-4.438 7.496-5.317" fill="none" stroke="#000" stroke-width=".8" stroke-linecap="round" stroke-linejoin="round"/><path d="M145.392 87.107c7.915 11.113 14.171 6.676 15.85 17.33 1.66 10.653-.42 23.525 0 30.181.4 6.656 2.499 15.99 12.493 17.33 9.994 1.32 22.086-3.558 27.483-3.998 5.017-.46 13.332 5.757 13.332 5.757M102.058 197.74c6.256-5.337 12.513-10.673 17.11-11.113 4.997-.46 17.09-3.578 29.602 1.32 3.758 1.338 8.355 12.472 8.355 12.472 7.915.879 20.847 11.553 21.267 17.349.82 6.216.82 16.45.82 16.45m85.748-4.438c-4.998.44-12.513-3.557-16.25.44-4.178 4.878 0 11.074 3.337 14.632 5.417 6.196 14.152 4.877 20.828 8.854 3.737 2.219 6.236 3.558 8.734 7.536 1.26 2.658 1.68 4.437 4.578 5.756" fill="none" stroke="#e6f1f6" stroke-width=".8" stroke-linecap="round" stroke-linejoin="round"/><path d="M152.588 317.128c-1.68 0 0 4.017.839 6.696.84 2.678 2.918 7.135 3.758 5.816 1.239-1.799 0-3.578-.84-6.256-1.259-3.118-2.918-6.256-3.757-6.256z" fill="#fff" fill-rule="evenodd"/><path d="M210.812 299.498c-5.836.88-6.256 4.898-3.738 10.674 2.499 5.777 4.158 19.988 7.916 19.988 3.338 0 10.833-1.32 10.833-4.437 0-3.119-5.417-15.111-6.236-18.23-.84-3.097-4.597-10.673-8.775-7.995z" fill="#f1f7fa" fill-rule="evenodd"/><path d="M208.793 303.436c-2.078.44 0 7.076 1.64 11.493 1.658 4.877 5.376 12.832 7.015 10.194 2.059-2.658 0-5.757-1.639-10.634-2.079-4.857-5.377-11.513-7.016-11.053z" fill="#fff" fill-rule="evenodd"/><path d="M232.979 369.116c-4.178 2.219-4.597 3.998-3.758 6.217.84 2.238 2.499 7.115 3.758 6.236.82-.9 6.236-4.458 9.154-4.458 2.079-.879-.82-12.012-9.154-7.995z" fill="#f1f7fa" fill-rule="evenodd"/><path d="M231.18 372.734c.44 1.34 2.558 6.676 4.657 4.897 2.539-2.219-2.538-5.357-3.378-6.696z" fill="#fff" fill-rule="evenodd"/><path d="M166.659 352.267c-1.659 1.339-2.079 2.218-1.659 3.118.42.9 1.24 3.557 1.659 3.118.4-.44 2.878-2.219 4.118-2.219 1.239-.46-.4-5.816-4.118-4.017z" fill="#f1f7fa" fill-rule="evenodd"/><path d="M165.86 354.005c.42.88 1.259 3.099 2.518 2.22.84-.88-1.679-2.66-1.679-3.119z" fill="#fff" fill-rule="evenodd"/><path d="M248.79 342.952c-2.1-9.294-12.933-14.631-24.206-11.513-11.253 2.659-18.349 12.852-16.25 22.147l9.594 26.144c-2.099-9.295 5.417-19.049 16.25-22.147 11.273-2.658 22.107 2.219 24.185 11.513l-9.574-26.144zm-73.776-4.797c-1.26-4.877-7.116-7.995-12.952-6.216-6.256 1.339-10.034 7.116-8.775 11.993l5.017 14.21c-1.26-5.316 2.918-10.653 8.775-11.992 5.836-1.759 11.693 1.34 12.932 6.236l-4.997-14.23z" fill="none" stroke="#000" stroke-width=".8" stroke-linecap="round" stroke-linejoin="round"/></svg>