<svg xmlns="http://www.w3.org/2000/svg" version="1.0" viewBox="0 0 465.6 440.844"><defs><clipPath clipPathUnits="userSpaceOnUse" id="a"><path d="M5.437-.56h465.078v441.173H5.437z"/></clipPath></defs><path clip-path="url(#a)" d="M173.775 25.185c25.484 4.417 49.77 38.536 34.958 108.034 10.674 28.443 20.148 70.777 18.969 102.998-.6 14.531-1.18 20.847-1.18 20.847 2.36 18.33 3.539 56.866-7.115 75.175-10.074 18.968-40.296 65.08-112.572 69.518-5.936 0-10.673.62-16.01 1.259-1.18 0-2.359-.64-3.558-.64-1.18 0-1.779 1.26-2.958 1.26-53.907 8.854-66.36 32.22-71.097 9.494C7.875 387.845.76 281.07 14.392 250.108c1.199-2.518 2.378-5.676 2.378-5.676.58-9.474 4.137-42.334 10.074-46.752.58-8.215 4.137-22.126 14.211-42.334 10.674-20.848 34.38-59.404 62.222-87.187 27.844-28.443 45.613-46.772 70.498-42.974z" fill="#e1c0ca" fill-rule="evenodd"/><path d="M295.141 27.863c-14.83 8.835-29.622 23.986-22.506 97.261-4.757 5.677-21.947 42.295-14.831 85.868 6.516 44.213 19.548 51.809 19.548 51.809 14.83 15.75 40.895 33.46 42.054 59.963 1.8 27.184-13.032 43.574-.56 59.364 12.433 15.79 26.625 12.633 33.14 11.993 2.999 5.077 3.559 3.798 30.822 13.912 27.823 10.114 69.918 29.022 76.993 23.985 7.116-5.037 9.475-99.78 9.475-125.044 0-25.265-2.359-41.015-4.718-41.015 0-1.28.6-4.438.6-6.316 0-25.905-2.958-70.757-30.821-119.368C405.314 88.506 344.31 1.959 295.14 27.863z" fill="#e1c0ca" fill-rule="evenodd"/><path d="M237.736 113.731c7.675 0 12.992-.6 15.95-3.158 2.359-3.158 2.918-8.235 0-10.114-2.358-1.919-2.958.64-15.95.64-12.992 0-13.592-2.559-15.95-.64-3.558 1.879-2.359 6.956 0 10.114 2.958 2.558 8.275 3.158 15.95 3.158zm0-17.03c7.675 0 12.992-.6 15.95-3.158 2.359-3.158 2.918-10.753 0-12.672-2.358-1.919-2.958.64-15.95.64-12.992 0-13.592-2.559-15.95-.64-3.558 1.919-2.359 9.514 0 12.672 2.958 2.559 8.275 3.158 15.95 3.158zm0-19.668c7.675 0 12.992-.6 15.95-3.158 2.359-3.198 2.918-8.914 0-10.833-2.358-1.919-2.958.64-15.95.64-12.992 0-13.592-2.559-15.95-.64-3.558 1.919-2.359 7.635 0 10.833 2.958 2.559 8.275 3.158 15.95 3.158zm0-18.229c7.675 0 12.992-.6 15.95-3.158 2.359-3.158 2.918-10.753 0-12.672-2.358-1.919-2.958.64-15.95.64-12.992 0-13.592-2.559-15.95-.64-3.558 1.919-2.359 9.514 0 12.672 2.958 2.559 8.275 3.158 15.95 3.158zm0-19.668c7.675 0 12.992-.6 15.95-3.158 2.359-3.198 2.918-8.914 0-10.833-2.358-1.92-2.958.64-15.95.64-12.992 0-13.592-2.56-15.95-.64-3.558 1.919-2.359 7.635 0 10.833 2.958 2.559 8.275 3.158 15.95 3.158zm0-18.229c7.675 0 12.992-.6 15.95-3.158 2.359-3.198 2.918-8.914 0-10.833-2.358-1.919-2.958.64-15.95.64-12.992 0-13.592-2.559-15.95-.64-3.558 1.919-2.359 7.635 0 10.833 2.958 2.559 8.275 3.158 15.95 3.158zm0 95.863c12.992 0 13.592-2.56 15.95-.64 2.918 1.918 2.359 6.995 0 10.193-2.958 2.559-8.275 4.438-15.95 4.438-7.675 0-12.992-1.88-15.95-4.438-2.359-3.198-3.558-8.275 0-10.193 2.358-1.92 2.958.64 15.95.64z" fill="#b6cfe4" fill-rule="evenodd"/><path d="M237.736 146.431c7.675 0 12.992-1.879 15.95-4.997 2.359-2.518 2.918-7.515 0-10.034-2.358-1.279-2.958 3.118-15.95 3.118-12.992 0-13.592-4.397-15.95-3.118-3.558 2.519-2.359 7.516 0 10.034 2.958 3.118 8.275 4.997 15.95 4.997zm0 18.949c7.675 0 12.992-4.997 15.95-7.516 2.359-3.118 2.918-8.115 0-9.994-2.358-1.918-2.958 2.479-15.95 2.479-12.992 0-13.592-4.397-15.95-2.479-3.558 1.88-2.359 6.876 0 9.994 2.958 2.519 8.275 7.516 15.95 7.516z" fill="#b6cfe4" fill-rule="evenodd"/><path d="M237.736 146.471c-7.675 0-12.992-1.879-15.99-4.997 1.199 1.88 1.199 4.358.6 5.637 1.798-.64 3.557 3.078 15.39 3.078 11.873 0 13.032-3.718 15.43-3.078-1.199-1.879-1.199-3.118.56-5.637-2.958 3.118-8.275 4.997-15.99 4.997zm-.04-15.711c-7.715 0-12.472-1.318-15.47-4.517 0 .64 1.199 2.559 0 5.157 2.398-.64 4.197 3.198 15.47 3.198 13.072 0 13.672-4.517 16.03-3.198-1.759-1.958-1.759-3.238 0-5.836v.68c-2.958 2.558-8.315 4.517-16.03 4.517zm15.95-20.147c-2.958 2.518-8.275 3.118-15.95 3.118-7.675 0-12.992-.6-15.95-3.118 1.199 1.879 1.199 3.758 0 5.637 2.398-1.88 2.958.6 15.95.6 12.992 0 13.592-2.48 15.95-.6l.56.6c-1.16-1.84-1.16-4.998-.56-6.877v.64z" fill="#fbddcf" fill-rule="evenodd"/><path d="M237.736 146.471s0 0 0 0c-7.675 0-12.992-1.879-15.99-4.997 1.199 1.88 1.199 4.358.6 5.637 1.798-.64 3.557 3.078 15.39 3.078 0 0 0 0 0 0 11.873 0 13.032-3.718 15.43-3.078-1.199-1.879-1.199-3.118.56-5.637-2.958 3.118-8.275 4.997-15.99 4.997m-.04-15.711s0 0 0 0c-7.715 0-12.472-1.318-15.47-4.517 0 .64 1.199 2.559 0 5.157 2.398-.64 4.197 3.198 15.47 3.198 0 0 0 0 0 0 13.072 0 13.672-4.517 16.03-3.198-1.759-1.958-1.759-3.238 0-5.836 0 0 0 0 0 0v.68c-2.958 2.558-8.315 4.517-16.03 4.517m15.95-20.148c-2.958 2.518-8.275 3.118-15.95 3.118 0 0 0 0 0 0-7.675 0-12.992-.6-15.95-3.118 1.199 1.879 1.199 3.758 0 5.637 2.398-1.88 2.958.6 15.95.6 0 0 0 0 0 0 12.992 0 13.592-2.48 15.95-.6l.56.6s0 0 0 0c-1.16-1.84-1.16-4.998-.56-6.877v.64" fill="none" stroke="#333" stroke-width=".8" stroke-linecap="round" stroke-linejoin="round"/><path d="M215.11 164.1c-2.399 7.036 3.557 8.316 7.735 9.595 4.757 1.279 14.271 6.396 14.87.64.58-6.397-2.977-4.478-10.113-6.397-6.556-1.919-7.735-4.477-11.313-3.837h-1.18zm-1.72 13.432c-1.798 5.677 4.738 6.297 8.895 7.556 4.158 1.26 12.453 7.555 14.232.64 1.779-5.677-2.959-5.677-10.074-7.556-7.136-1.899-11.273-5.677-13.052-.64zm-2.898 11.354c-1.778 5.676 4.158 6.296 8.895 7.555 4.158 1.26 12.452 7.555 14.831 1.26 1.759-6.297-3.558-6.297-10.673-8.176-7.116-1.899-11.274-5.676-13.053-.64zm-3.038 12.592c-1.779 5.077 4.737 5.716 8.875 6.996 4.137 1.259 12.412 7.595 14.77 1.259 1.76-6.336-3.557-5.717-10.633-7.615-7.095-1.9-11.233-5.717-13.012-.64zm-3.578 12.672c-1.798 5.037 4.158 5.657 8.335 6.916 4.158 1.26 13.092 7.555 14.871 1.26 1.78-6.297-3.577-7.556-10.713-9.435-7.136-1.899-10.714-4.417-12.493 1.26zm62.802-37.297c1.76 5.077-4.157 5.716-8.275 6.996-4.757 1.279-13.032 7.595-14.83.64-1.2-5.717 2.958-5.078 10.073-6.997 7.116-1.878 11.273-5.716 13.032-.64zm-5.196-12.073c1.758 5.037-2.399 6.316-6.557 7.556-4.797 1.279-13.152 6.316-13.751 1.279-1.2-6.316 2.398-5.677 8.954-7.596 5.357-1.878 9.555-6.316 11.354-1.239zm-10.794 42.295c-2.398-4.997 4.158-5.637 8.315-6.876 4.197-1.28 13.112-7.556 14.311-.64 1.76 5.637-2.998 5.637-10.114 7.516-6.556 1.878-10.713 5.636-12.512 0zm5.317 12.072c-1.8-5.037 2.398-6.316 6.556-7.555 4.157-1.24 12.472-5.677 13.672-.64 1.159 5.677-2.399 5.037-9.515 7.556-4.757 1.239-8.914 5.636-10.713.64zm3.518 12.033c-1.8-5.677 2.398-6.956 7.155-8.195 4.198-1.28 12.553-5.717 13.152-.64 1.16 5.677-1.798 5.677-8.954 7.556-5.397 1.918-9.554 6.316-11.353 1.279zm10.673-42.974c1.76 5.077-4.757 5.716-8.874 6.996-4.158 1.279-13.072 7.595-14.831 1.279-1.8-6.356 3.557-5.717 10.673-7.635 7.116-1.88 11.273-5.717 13.032-.64z" fill="#b6cfe4" fill-rule="evenodd"/><path d="M253.047 36.018c-2.959 2.559-7.716 3.198-15.391 3.198-7.116 0-11.873-.64-14.831-2.558.6 1.919.6 4.437-.6 5.716 1.8-.64 3.558 1.24 15.431 1.24 13.032 0 13.592-2.519 15.99-.6 0 0 .56 0 .56.6v-.6c-1.759-1.28-2.359-4.437-1.16-6.996zm0-18.468c-2.359 2.558-7.676 3.197-15.351 3.197-7.076 0-11.793-.64-14.751-2.558 1.2 2.558 0 5.756-1.2 7.036 2.4-1.92 2.959.64 15.95.64 12.993 0 13.593-2.56 15.951-.64h.56c-1.759-1.28-2.359-5.117-1.16-7.676zm-15.351 83.389c12.472 0 13.672-2.519 16.03-.6-1.16-1.919-1.759-5.077-.56-6.996-2.398 2.559-7.755 3.198-15.47 3.198-7.116 0-11.873-.64-14.871-2.558.6 1.919.6 4.437-.6 5.717 2.399-.64 4.198 1.239 15.47 1.239zm0-23.906c-7.076 0-11.793-.64-14.751-2.558.6 1.919.6 4.477 0 5.756 1.799-.64 3.558 1.28 14.75 1.28 12.393 0 13.593-2.559 15.352-1.28-1.2-1.918-1.2-5.117 1.159-7.675-.56.64-.56.64-.56 1.28-2.958 2.558-8.275 3.197-15.95 3.197zm16.51-22.786c-.56.64-.56.64-.56 1.28-2.958 2.558-8.315 3.197-15.99 3.197-7.116 0-11.873-.64-14.831-2.558 1.2 1.919.6 5.077-.6 6.356 1.8-.64 3.558 1.24 15.431 1.24 13.032 0 13.592-2.52 15.99-.6h.56c-1.759-1.28-2.958-5.717 0-8.275v-.64z" fill="#fbddcf" fill-rule="evenodd"/><path d="M253.047 36.018c-2.959 2.559-7.716 3.198-15.391 3.198 0 0 0 0 0 0-7.116 0-11.873-.64-14.831-2.558.6 1.919.6 4.437-.6 5.716 1.8-.64 3.558 1.24 15.431 1.24 0 0 0 0 0 0 13.032 0 13.592-2.519 15.99-.6 0 0 .56 0 .56.6v-.6c-1.759-1.28-2.359-4.437-1.16-6.996m.001-18.468c-2.359 2.558-7.676 3.197-15.351 3.197 0 0 0 0 0 0-7.076 0-11.793-.64-14.751-2.558 1.2 2.558 0 5.756-1.2 7.036 2.4-1.92 2.959.64 15.95.64 0 0 0 0 0 0 12.993 0 13.593-2.56 15.951-.64h.56s0 0 0 0c-1.759-1.28-2.359-5.117-1.16-7.676m-15.35 83.39s0 0 0 0c12.472 0 13.672-2.519 16.03-.6-1.16-1.919-1.759-5.077-.56-6.996-2.398 2.559-7.755 3.198-15.47 3.198 0 0 0 0 0 0-7.116 0-11.873-.64-14.871-2.558.6 1.919.6 4.437-.6 5.717 2.399-.64 4.198 1.239 15.47 1.239m.001-23.906s0 0 0 0c-7.076 0-11.793-.64-14.751-2.558.6 1.919.6 4.477 0 5.756 1.799-.64 3.558 1.28 14.75 1.28 0 0 0 0 0 0 12.393 0 13.593-2.559 15.352-1.28-1.2-1.918-1.2-5.117 1.159-7.675 0 0 0 0 0 0-.56.64-.56.64-.56 1.28-2.958 2.558-8.275 3.197-15.95 3.197m16.51-22.786c-.56.64-.56.64-.56 1.28-2.958 2.558-8.315 3.197-15.99 3.197 0 0 0 0 0 0-7.116 0-11.873-.64-14.831-2.558 1.2 1.919.6 5.077-.6 6.356 1.8-.64 3.558 1.24 15.431 1.24 0 0 0 0 0 0 13.032 0 13.592-2.52 15.99-.6h.56s0 0 0 0c-1.759-1.28-2.958-5.717 0-8.275v-.64z" fill="none" stroke="#333" stroke-width=".8" stroke-linecap="round" stroke-linejoin="round"/><path d="M263.64 174.334c-1.759-2.518-2.358-5.676-2.358-5.676-1.16 2.518-3.518 3.158-6.476 3.797-3.558 1.24-9.475 4.358-12.433 3.119 1.2 1.878 1.799 4.397 1.799 4.997 1.16-1.88 4.717-1.88 9.434-3.119 4.158-1.239 7.676-3.118 10.034-3.118zm-52.048 12.593c2.378-1.9 6.516 1.279 11.833 2.558 4.137 1.26 7.695 1.899 9.454 3.158-.58-2.538 1.18-3.797 1.18-3.797v-.64c-2.94 1.28-8.855-2.539-11.814-3.178-3.558-1.28-8.275-1.899-8.874-4.457 0 3.178 0 5.096-1.78 6.356zm11.313-13.332c-1.759-.62-4.717-1.26-6.476-2.539.58 1.92.58 3.178-.6 3.818 2.359-.64 5.897 1.899 10.614 3.178 4.717 1.26 8.255 1.899 9.434 3.158 0-2.538.58-3.798.58-3.798v-.64c-2.939 1.28-10.014-2.538-13.552-3.177zm34.339 15.211c4.757-1.92 8.355-3.798 10.714-3.159l-1.76-4.437c-1.798 1.28-5.396 1.919-7.755 2.559-4.197 1.239-11.353 6.276-13.751 2.518v.6c1.799 1.919 1.799 3.797 2.398 5.037 1.2-1.88 5.357-1.88 10.154-3.118zm-7.196-22.706c3.558-1.28 6.517-3.758 8.875-3.758-1.759-1.24-3.518-4.358-4.117-6.876 0 .64-.6 1.879-1.2 2.518-2.958 2.479-8.275 7.476-15.99 7.476-7.675 0-12.992-4.997-15.95-7.476-.6-.64-1.2-1.879-1.8-2.518-.599 6.236-3.557 8.754-3.557 8.754 3.558-.64 4.757 1.88 11.273 3.718 5.916 1.28 8.875.64 10.034 3.118.6-3.118 2.399-2.478 3.558-1.839 1.2-1.878 4.157-1.878 8.874-3.118z" fill="#b6cfe4" fill-rule="evenodd"/><path d="M263.64 174.334c-1.759-2.518-2.358-5.676-2.358-5.676-1.16 2.518-3.518 3.158-6.476 3.797-3.558 1.24-9.475 4.358-12.433 3.119 1.2 1.878 1.799 4.397 1.799 4.997 1.16-1.88 4.717-1.88 9.434-3.119 4.158-1.239 7.676-3.118 10.034-3.118zm-52.048 12.593c2.378-1.9 6.516 1.279 11.833 2.558 4.137 1.26 7.695 1.899 9.454 3.158-.58-2.538 1.18-3.797 1.18-3.797v-.64c-2.94 1.28-8.855-2.539-11.814-3.178-3.558-1.28-8.275-1.899-8.874-4.457 0 3.178 0 5.096-1.78 6.356zm11.313-13.332c-1.759-.62-4.717-1.26-6.476-2.539.58 1.92.58 3.178-.6 3.818 2.359-.64 5.897 1.899 10.614 3.178 4.717 1.26 8.255 1.899 9.434 3.158 0-2.538.58-3.798.58-3.798v-.64c-2.939 1.28-10.014-2.538-13.552-3.177zm34.339 15.211c4.757-1.92 8.355-3.798 10.714-3.159l-1.76-4.437c-1.798 1.28-5.396 1.919-7.755 2.559-4.197 1.239-11.353 6.276-13.751 2.518v.6c1.799 1.919 1.799 3.797 2.398 5.037 1.2-1.88 5.357-1.88 10.154-3.118zm-7.196-22.706c3.558-1.28 6.517-3.758 8.875-3.758-1.759-1.24-3.518-4.358-4.117-6.876 0 .64-.6 1.879-1.2 2.518-2.958 2.479-8.275 7.476-15.99 7.476-7.675 0-12.992-4.997-15.95-7.476-.6-.64-1.2-1.879-1.8-2.518-.599 6.236-3.557 8.754-3.557 8.754 3.558-.64 4.757 1.88 11.273 3.718 5.916 1.28 8.875.64 10.034 3.118.6-3.118 2.399-2.478 3.558-1.839 1.2-1.878 4.157-1.878 8.874-3.118zm9.475 61.322c.6-2.558 3.558-3.198 7.115-4.477 2.959-.64 8.275-3.198 11.234-2.559-.56-1.279-1.76-3.837-2.359-5.756-1.16 1.919-4.117 1.919-8.875 3.838-2.958.64-5.316 2.558-7.715 3.198.6.64 1.2 3.198.6 5.756zm-3.438-12.792c1.2-1.879 4.157-2.519 6.516-3.118 2.918-.64 8.834-3.798 11.753-3.158-.56-.64-1.76-3.158-1.16-5.077-1.759 1.919-5.316 2.558-10.033 3.798-4.118 1.279-7.076 2.518-9.435 3.158 0 0 2.359 1.878 2.359 4.397zm-5.277-10.634c1.16-2.518 5.317-3.158 8.275-3.797 2.958-.64 8.275-4.438 11.193-3.798 0-.64-1.16-3.198-.56-4.477-1.798 1.919-5.316 2.558-8.274 3.198-2.959 1.279-8.875 5.077-12.433 3.797 2.399 2.559 2.399 3.198 1.799 5.077z" fill="#fbddcf" fill-rule="evenodd"/><path d="M259.523 227.422c.6-2.558 3.558-3.198 7.115-4.477 2.959-.64 8.275-3.198 11.234-2.559-.56-1.279-1.76-3.837-2.359-5.756-1.16 1.919-4.117 1.919-8.875 3.838-2.958.64-5.316 2.558-7.715 3.198.6.64 1.2 3.198.6 5.756 0 0 0 0 0 0m-3.438-12.792c1.2-1.879 4.157-2.519 6.516-3.118 2.918-.64 8.834-3.798 11.753-3.158-.56-.64-1.76-3.158-1.16-5.077-1.759 1.919-5.316 2.558-10.033 3.798-4.118 1.279-7.076 2.518-9.435 3.158 0 0 0 0 0 0s2.359 1.878 2.359 4.397m-5.277-10.634s0 0 0 0c1.16-2.518 5.317-3.158 8.275-3.797 2.958-.64 8.275-4.438 11.193-3.798 0-.64-1.16-3.198-.56-4.477-1.798 1.919-5.316 2.558-8.274 3.198-2.959 1.279-8.875 5.077-12.433 3.797 2.399 2.559 2.399 3.198 1.799 5.077" fill="none" stroke="#333" stroke-width=".8" stroke-linecap="round" stroke-linejoin="round"/><path d="M219.327 196.5c-2.938-1.238-6.476-1.878-8.235-3.137.6 1.899-.58 4.397-1.18 5.656 1.78-.62 5.298 1.26 10.594 3.138 5.277 1.26 9.395 1.26 10.574 3.758-1.18-2.498-1.18-4.377.58-6.276-2.939 1.899-9.395-2.498-12.333-3.138zm10.014 15.651c-2.938 1.9-9.414-2.498-12.952-3.757-3.538-.62-8.235-1.26-8.835-4.398 0 .64.6 4.398-1.759 6.916l-.6.62c2.36-1.88 5.897 0 11.194 1.259 5.896 1.879 11.193 3.138 11.193 7.515-.58-3.757.6-6.895 1.759-8.155z" fill="#fbddcf" fill-rule="evenodd"/><path d="M219.327 196.5c-2.938-1.238-6.476-1.878-8.235-3.137.6 1.899-.58 4.397-1.18 5.656 1.78-.62 5.298 1.26 10.594 3.138 5.277 1.26 9.395 1.26 10.574 3.758 0 0 0 0 0 0-1.18-2.498-1.18-4.377.58-6.276-2.939 1.899-9.395-2.498-12.333-3.138m10.014 15.65c-2.938 1.9-9.414-2.498-12.952-3.757-3.538-.62-8.235-1.26-8.835-4.398 0 .64.6 4.398-1.759 6.916l-.6.62c2.36-1.88 5.897 0 11.194 1.259 5.896 1.879 11.193 3.138 11.193 7.515 0 0 0 0 0 0-.58-3.757.6-6.895 1.759-8.155" fill="none" stroke="#333" stroke-width=".8" stroke-linecap="round" stroke-linejoin="round"/><path d="M222.945 6.396c1.799 0 4.157 1.24 14.75 1.24 11.194 0 12.953-1.88 15.312-1.24-1.76-1.28-1.76-6.356-1.76-6.356h-27.702c1.199 1.919.6 4.437-.6 5.717v.64z" fill="#fbddcf" fill-rule="evenodd"/><path d="M243.712 9.394c-4.757 1.26-10.094 0-15.43-.64-1.8 0-3.578-.639-5.357.64-2.379 1.26 0 6.336 2.378 6.956-.6-1.899-2.378-3.798-.6-5.057 1.78-1.26 5.937-1.26 8.316-1.26 3.558.62 7.715 1.26 11.273 0zm-.14 18.469c-5.336 1.26-10.673-.64-15.43-.64-1.78-.64-3.558-.64-5.337 0-2.978 1.26-.6 6.337 1.779 6.956-.6-1.259-1.779-3.797 0-5.057 1.779-1.259 5.936-.64 7.715-.64 3.558 0 7.716 1.28 11.273-.619zm-.479 17.51c-4.737 1.259-10.674-.64-15.431-.64-1.779 0-3.558-.64-5.337 0-2.978 1.899-.6 8.255 1.78 8.875-.6-1.9-1.78-5.697 0-6.976 1.778-1.26 5.936-.62 7.715-.62 4.157 0 8.314 1.26 11.273-.64zm0 20.387c-5.337 1.26-10.674-.64-15.431-.64-1.779-.64-3.558-.64-5.337 0-2.978 1.26-.6 6.337 1.78 6.956-.6-1.259-1.78-3.797 0-5.057 1.778-1.259 5.936-.64 7.715-.64 3.557 0 7.715 1.28 11.273-.619zm0 37.178c-5.337 1.259-10.674-.64-16.01-.64-1.8-.64-3.578-.64-4.758 0-2.978 1.26-.6 6.336 1.78 6.956-.6-1.26-1.78-3.798 0-5.057 1.778-1.26 5.936-.64 7.715-.64 3.557 0 7.715 1.28 11.273-.62zm0 15.81c-5.337 1.24-10.674-.62-16.01-.62-1.8 0-3.578-.64-4.758 0-2.978 1.86-.6 6.816 1.78 7.436-.6-1.859-1.78-4.337 0-5.577 1.778-1.239 5.936-.62 7.715-.62 3.557 0 7.715 1.24 11.273-.619zm0 16.95c-4.737 1.259-10.674 0-16.01-1.26-1.8-.64-2.979-1.279-4.758-.64-2.978 1.26-.6 6.337 1.78 6.957-.6-1.9-1.78-3.158 0-4.418 1.778-1.279 6.535 0 8.314 0 3.558.62 7.715 1.26 10.674-.64zm0-52.428c-5.337 1.259-10.674-.64-15.431-.64-1.779-.64-3.558-.64-5.337 0-2.978 1.28-1.179 8.255 1.78 8.875-1.18-1.26-1.78-5.697 0-6.976 1.778-1.26 5.936-.62 7.715-.62 3.557 0 7.715 1.26 11.273-.64zm-1.2 68.978c-8.894 3.178-15.41 0-17.19 1.279-1.178.64 1.78 5.077 4.158 7.615 0 0-.6-.62-4.157-3.797-4.158-3.178-4.158-5.717-2.379-7.636 1.78-.64 2.379 1.28 7.116 1.28 4.157.64 9.494 1.898 12.452 1.259zm10.634 13.852c-1.759 1.279-4.118 1.918-6.476 2.558-1.2.64-5.357 3.797-1.799 5.037 0-2.519 3.558-5.677 5.916-5.677zm.48 12.552c-1.72.64-4.638.64-6.396 1.919-1.2 1.279-1.2 3.837.56 4.477-1.76-3.198 4.117-5.117 5.836-6.396zm.719 12.792c-2.958.64-7.115 2.478-2.958 6.156-2.359-3.678 1.799-4.277 2.958-6.156zm1.679 11.353c-2.878 0-5.197 3.118-2.278 4.957-.6-1.839.56-3.078 1.719-4.317zm-30.142-34.139c1.8 1.239 5.357 1.859 7.156 1.859 2.978.62 3.558 1.219 2.379 4.297 0-1.839-.6-2.458-1.78-3.078-1.198-.6-3.577-1.22-4.776-1.22zm1.2 10.713c2.358 1.28 5.277 1.28 7.035 2.539 1.76 1.259 1.18 4.437 0 5.057 0-1.9.6-3.158-.58-4.418-1.178-1.279-4.097-2.538-5.856-2.538zm1.199 12.553c1.16.64 3.478.64 4.058 1.919 1.139 1.279 0 3.198-.58 4.477.58-2.559-.58-3.838-2.319-5.117z" fill="#ebf1f7" fill-rule="evenodd"/><path d="M235.977 18.269c5.956-1.24 20.148 3.118 17.19-9.434-.56 3.797-4.118 6.276-7.676 6.915-2.958 1.28-6.516 2.519-9.514 2.519zm.6 17.749c5.356-.64 19.548 3.118 16.59-9.434-.56 4.397-4.118 6.276-7.676 7.555-2.958.64-5.956 1.88-9.514 1.88zm0 37.897c5.356-.64 19.548 3.118 16.59-9.434-.56 4.397-4.118 6.276-7.676 7.555-2.958.64-5.956 1.88-9.514 1.88zm-.12 19.588c5.956-.64 20.147 3.198 17.19-9.594-.56 4.477-4.118 6.396-7.676 7.675-2.958.64-6.516 1.92-9.514 1.92zm0 18.229c5.396-1.239 19.668 2.479 16.71-9.354 0 3.758-4.158 5.637-7.756 6.876-2.958 1.239-5.956 1.879-8.954 2.478zm0 17.79c5.356-1.28 20.147.6 17.19-12.033-.56 3.797-2.959 6.316-6.517 8.235-2.958 1.879-7.675 3.158-10.673 3.797zm0 15.11c5.356-1.279 20.147.6 17.19-11.952-.56 4.397-2.959 6.276-6.517 8.794-2.958 1.28-7.675 3.158-10.673 3.158zm0-87.786c5.396-.64 19.668 1.239 16.71-12.033-.6 4.437-4.158 7.595-7.756 8.874-2.958.64-5.956 3.159-8.954 3.159zm4.237 106.614c9.514-3.117 14.232-9.993 13.072-11.872-.6-2.518-3.558-1.24-4.157-.64-.6 0 3.558 5.037-8.915 12.513z" fill="#7aa9cf" fill-rule="evenodd"/><path d="M237.736 113.731c7.675 0 12.992-.6 15.95-3.158 2.359-3.158 2.918-8.235 0-10.114-2.358-1.919-2.958.64-15.95.64 0 0 0 0 0 0-12.992 0-13.592-2.559-15.95-.64-3.558 1.879-2.359 6.956 0 10.114 2.958 2.558 8.275 3.158 15.95 3.158m0-17.03c7.675 0 12.992-.6 15.95-3.158 2.359-3.158 2.918-10.753 0-12.672-2.358-1.919-2.958.64-15.95.64 0 0 0 0 0 0-12.992 0-13.592-2.559-15.95-.64-3.558 1.919-2.359 9.514 0 12.672 2.958 2.559 8.275 3.158 15.95 3.158m0-19.668c7.675 0 12.992-.6 15.95-3.158 2.359-3.198 2.918-8.914 0-10.833-2.358-1.919-2.958.64-15.95.64 0 0 0 0 0 0-12.992 0-13.592-2.559-15.95-.64-3.558 1.919-2.359 7.635 0 10.833 2.958 2.559 8.275 3.158 15.95 3.158m0-18.229c7.675 0 12.992-.6 15.95-3.158 2.359-3.158 2.918-10.753 0-12.672-2.358-1.919-2.958.64-15.95.64 0 0 0 0 0 0-12.992 0-13.592-2.559-15.95-.64-3.558 1.919-2.359 9.514 0 12.672 2.958 2.559 8.275 3.158 15.95 3.158m0-19.668c7.675 0 12.992-.6 15.95-3.158 2.359-3.198 2.918-8.914 0-10.833-2.358-1.92-2.958.64-15.95.64 0 0 0 0 0 0-12.992 0-13.592-2.56-15.95-.64-3.558 1.919-2.359 7.635 0 10.833 2.958 2.559 8.275 3.158 15.95 3.158m0-18.229c7.675 0 12.992-.6 15.95-3.158 2.359-3.198 2.918-8.914 0-10.833-2.358-1.919-2.958.64-15.95.64 0 0 0 0 0 0-12.992 0-13.592-2.559-15.95-.64-3.558 1.919-2.359 7.635 0 10.833 2.958 2.559 8.275 3.158 15.95 3.158m0 95.863c12.992 0 13.592-2.56 15.95-.64 2.918 1.918 2.359 6.995 0 10.193-2.958 2.559-8.275 4.438-15.95 4.438 0 0 0 0 0 0-7.675 0-12.992-1.88-15.95-4.438-2.359-3.198-3.558-8.275 0-10.193 2.358-1.92 2.958.64 15.95.64" fill="none" stroke="#333" stroke-width=".8" stroke-linecap="round" stroke-linejoin="round"/><path d="M237.736 146.431c7.675 0 12.992-1.879 15.95-4.997 2.359-2.518 2.918-7.515 0-10.034-2.358-1.279-2.958 3.118-15.95 3.118 0 0 0 0 0 0-12.992 0-13.592-4.397-15.95-3.118-3.558 2.519-2.359 7.516 0 10.034 2.958 3.118 8.275 4.997 15.95 4.997m0 18.949c7.675 0 12.992-4.997 15.95-7.516 2.359-3.118 2.918-8.115 0-9.994-2.358-1.918-2.958 2.479-15.95 2.479 0 0 0 0 0 0-12.992 0-13.592-4.397-15.95-2.479-3.558 1.88-2.359 6.876 0 9.994 2.958 2.519 8.275 7.516 15.95 7.516" fill="none" stroke="#333" stroke-width=".8" stroke-linecap="round" stroke-linejoin="round"/><path d="M237.736 146.471s0 0 0 0c-7.675 0-12.992-1.879-15.99-4.997 1.199 1.88 1.199 4.358.6 5.637 1.798-.64 3.557 3.078 15.39 3.078 0 0 0 0 0 0 11.873 0 13.032-3.718 15.43-3.078-1.199-1.879-1.199-3.118.56-5.637-2.958 3.118-8.275 4.997-15.99 4.997m-.04-15.711s0 0 0 0c-7.715 0-12.472-1.318-15.47-4.517 0 .64 1.199 2.559 0 5.157 2.398-.64 4.197 3.198 15.47 3.198 0 0 0 0 0 0 13.072 0 13.672-4.517 16.03-3.198-1.759-1.958-1.759-3.238 0-5.836 0 0 0 0 0 0v.68c-2.958 2.558-8.315 4.517-16.03 4.517m15.95-20.148c-2.958 2.518-8.275 3.118-15.95 3.118 0 0 0 0 0 0-7.675 0-12.992-.6-15.95-3.118 1.199 1.879 1.199 3.758 0 5.637 2.398-1.88 2.958.6 15.95.6 0 0 0 0 0 0 12.992 0 13.592-2.48 15.95-.6l.56.6s0 0 0 0c-1.16-1.84-1.16-4.998-.56-6.877v.64M215.11 164.1c-2.399 7.036 3.557 8.316 7.735 9.595 4.757 1.279 14.271 6.396 14.87.64.58-6.397-2.977-4.478-10.113-6.397-6.556-1.919-7.735-4.477-11.313-3.837h-1.18zm-1.72 13.432c-1.798 5.677 4.738 6.297 8.895 7.556 4.158 1.26 12.453 7.555 14.232.64 1.779-5.677-2.959-5.677-10.074-7.556-7.136-1.899-11.273-5.677-13.052-.64m-2.899 11.354c-1.778 5.676 4.158 6.296 8.895 7.555 4.158 1.26 12.452 7.555 14.831 1.26 1.759-6.297-3.558-6.297-10.673-8.176-7.116-1.899-11.274-5.676-13.053-.64m-3.038 12.593c-1.779 5.077 4.737 5.716 8.875 6.996 4.137 1.259 12.412 7.595 14.77 1.259 1.76-6.336-3.557-5.717-10.633-7.615-7.095-1.9-11.233-5.717-13.012-.64m-3.578 12.672c-1.798 5.037 4.158 5.657 8.335 6.916 4.158 1.26 13.092 7.555 14.871 1.26 1.78-6.297-3.577-7.556-10.713-9.435-7.136-1.899-10.714-4.417-12.493 1.26m62.802-37.298c1.76 5.077-4.157 5.716-8.275 6.996-4.757 1.279-13.032 7.595-14.83.64-1.2-5.717 2.958-5.078 10.073-6.997 7.116-1.878 11.273-5.716 13.032-.64m-5.196-12.072c1.758 5.037-2.399 6.316-6.557 7.556-4.797 1.279-13.152 6.316-13.751 1.279-1.2-6.316 2.398-5.677 8.954-7.596 5.357-1.878 9.555-6.316 11.354-1.239m-10.794 42.295c-2.398-4.997 4.158-5.637 8.315-6.876 4.197-1.28 13.112-7.556 14.311-.64 1.76 5.637-2.998 5.637-10.114 7.516-6.556 1.878-10.713 5.636-12.512 0m5.317 12.072c-1.8-5.037 2.398-6.316 6.556-7.555 4.157-1.24 12.472-5.677 13.672-.64 1.159 5.677-2.399 5.037-9.515 7.556-4.757 1.239-8.914 5.636-10.713.64m3.518 12.032c-1.8-5.677 2.398-6.956 7.155-8.195 4.198-1.28 12.553-5.717 13.152-.64 1.16 5.677-1.798 5.677-8.954 7.556-5.397 1.918-9.554 6.316-11.353 1.279m10.673-42.974c1.76 5.077-4.757 5.716-8.874 6.996-4.158 1.279-13.072 7.595-14.831 1.279-1.8-6.356 3.557-5.717 10.673-7.635 7.116-1.88 11.273-5.717 13.032-.64M253.047 36.018c-2.959 2.559-7.716 3.198-15.391 3.198 0 0 0 0 0 0-7.116 0-11.873-.64-14.831-2.558.6 1.919.6 4.437-.6 5.716 1.8-.64 3.558 1.24 15.431 1.24 0 0 0 0 0 0 13.032 0 13.592-2.519 15.99-.6 0 0 .56 0 .56.6v-.6c-1.759-1.28-2.359-4.437-1.16-6.996m.001-18.468c-2.359 2.558-7.676 3.197-15.351 3.197 0 0 0 0 0 0-7.076 0-11.793-.64-14.751-2.558 1.2 2.558 0 5.756-1.2 7.036 2.4-1.92 2.959.64 15.95.64 0 0 0 0 0 0 12.993 0 13.593-2.56 15.951-.64h.56s0 0 0 0c-1.759-1.28-2.359-5.117-1.16-7.676m-15.35 83.39s0 0 0 0c12.472 0 13.672-2.519 16.03-.6-1.16-1.919-1.759-5.077-.56-6.996-2.398 2.559-7.755 3.198-15.47 3.198 0 0 0 0 0 0-7.116 0-11.873-.64-14.871-2.558.6 1.919.6 4.437-.6 5.717 2.399-.64 4.198 1.239 15.47 1.239m.001-23.906s0 0 0 0c-7.076 0-11.793-.64-14.751-2.558.6 1.919.6 4.477 0 5.756 1.799-.64 3.558 1.28 14.75 1.28 0 0 0 0 0 0 12.393 0 13.593-2.559 15.352-1.28-1.2-1.918-1.2-5.117 1.159-7.675 0 0 0 0 0 0-.56.64-.56.64-.56 1.28-2.958 2.558-8.275 3.197-15.95 3.197m16.51-22.786c-.56.64-.56.64-.56 1.28-2.958 2.558-8.315 3.197-15.99 3.197 0 0 0 0 0 0-7.116 0-11.873-.64-14.831-2.558 1.2 1.919.6 5.077-.6 6.356 1.8-.64 3.558 1.24 15.431 1.24 0 0 0 0 0 0 13.032 0 13.592-2.52 15.99-.6h.56s0 0 0 0c-1.759-1.28-2.958-5.717 0-8.275v-.64z" fill="none" stroke="#333" stroke-width=".8" stroke-linecap="round" stroke-linejoin="round"/><path d="M263.64 174.334c-1.759-2.518-2.358-5.676-2.358-5.676s0 0 0 0c-1.16 2.518-3.518 3.158-6.476 3.797-3.558 1.24-9.475 4.358-12.433 3.119 1.2 1.878 1.799 4.397 1.799 4.997 1.16-1.88 4.717-1.88 9.434-3.119 4.158-1.239 7.676-3.118 10.034-3.118m-52.048 12.593c2.378-1.9 6.516 1.279 11.833 2.558 4.137 1.26 7.695 1.899 9.454 3.158-.58-2.538 1.18-3.797 1.18-3.797v-.64c-2.94 1.28-8.855-2.539-11.814-3.178-3.558-1.28-8.275-1.899-8.874-4.457 0 0 0 0 0 0 0 3.178 0 5.096-1.78 6.356m11.314-13.332c-1.759-.62-4.717-1.26-6.476-2.539.58 1.92.58 3.178-.6 3.818 2.359-.64 5.897 1.899 10.614 3.178 4.717 1.26 8.255 1.899 9.434 3.158 0-2.538.58-3.798.58-3.798v-.64c-2.939 1.28-10.014-2.538-13.552-3.177m34.339 15.211c4.757-1.92 8.355-3.798 10.714-3.159l-1.76-4.437c-1.798 1.28-5.396 1.919-7.755 2.559-4.197 1.239-11.353 6.276-13.751 2.518v.6c1.799 1.919 1.799 3.797 2.398 5.037 1.2-1.88 5.357-1.88 10.154-3.118m-7.196-22.706c3.558-1.28 6.517-3.758 8.875-3.758-1.759-1.24-3.518-4.358-4.117-6.876 0 .64-.6 1.879-1.2 2.518-2.958 2.479-8.275 7.476-15.99 7.476 0 0 0 0 0 0-7.675 0-12.992-4.997-15.95-7.476-.6-.64-1.2-1.879-1.8-2.518-.599 6.236-3.557 8.754-3.557 8.754 3.558-.64 4.757 1.88 11.273 3.718 5.916 1.28 8.875.64 10.034 3.118.6-3.118 2.399-2.478 3.558-1.839 1.2-1.878 4.157-1.878 8.874-3.118m9.475 61.323c.6-2.558 3.558-3.198 7.115-4.477 2.959-.64 8.275-3.198 11.234-2.559-.56-1.279-1.76-3.837-2.359-5.756-1.16 1.919-4.117 1.919-8.875 3.838-2.958.64-5.316 2.558-7.715 3.198.6.64 1.2 3.198.6 5.756 0 0 0 0 0 0m-3.438-12.792c1.2-1.879 4.157-2.519 6.516-3.118 2.918-.64 8.834-3.798 11.753-3.158-.56-.64-1.76-3.158-1.16-5.077-1.759 1.919-5.316 2.558-10.033 3.798-4.118 1.279-7.076 2.518-9.435 3.158 0 0 0 0 0 0s2.359 1.878 2.359 4.397m-5.277-10.634s0 0 0 0c1.16-2.518 5.317-3.158 8.275-3.797 2.958-.64 8.275-4.438 11.193-3.798 0-.64-1.16-3.198-.56-4.477-1.798 1.919-5.316 2.558-8.274 3.198-2.959 1.279-8.875 5.077-12.433 3.797 2.399 2.559 2.399 3.198 1.799 5.077m-31.481-7.496c-2.938-1.238-6.476-1.878-8.235-3.137.6 1.899-.58 4.397-1.18 5.656 1.78-.62 5.298 1.26 10.594 3.138 5.277 1.26 9.395 1.26 10.574 3.758 0 0 0 0 0 0-1.18-2.498-1.18-4.377.58-6.276-2.939 1.899-9.395-2.498-12.333-3.138m10.014 15.65c-2.938 1.9-9.414-2.498-12.952-3.757-3.538-.62-8.235-1.26-8.835-4.398 0 .64.6 4.398-1.759 6.916l-.6.62c2.36-1.88 5.897 0 11.194 1.259 5.896 1.879 11.193 3.138 11.193 7.515 0 0 0 0 0 0-2.358-10.653-1.18-5.636 1.759-8.155M222.945 5.717v.64c1.799 0 4.157 1.278 14.75 1.278 0 0 0 0 0 0 11.194 0 12.953-1.918 15.312-1.279 0 0 0 0 0 0" fill="none" stroke="#333" stroke-width=".8" stroke-linecap="round" stroke-linejoin="round"/><path d="m252.527 6.916 1.2-1.24c-1.8-1.239-2.4-4.357-2.4-5.636 0 .64-.639 5.037 1.2 6.876zM223.425.04c1.199 1.859 0 3.698-1.2 5.557l1.2.6c1.199-1.84 1.199-4.298 0-6.157z" fill="#333" fill-rule="evenodd"/><path clip-path="url(#a)" d="M173.775 25.185c25.484 4.417 49.77 38.536 34.958 108.034 10.674 28.443 20.148 70.777 18.969 102.998-.6 14.531-1.18 20.847-1.18 20.847 2.36 18.33 3.539 56.866-7.115 75.175-10.074 18.968-40.296 65.08-112.572 69.518-5.936 0-10.673.62-16.01 1.259-1.18 0-2.359-.64-3.558-.64-1.18 0-1.779 1.26-2.958 1.26-53.907 8.854-66.36 32.22-71.097 9.494C7.875 387.845.76 281.07 14.392 250.108c1.199-2.518 2.378-5.676 2.378-5.676.58-9.474 4.137-42.334 10.074-46.752.58-8.215 4.137-22.126 14.211-42.334 10.674-20.848 34.38-59.404 62.222-87.187 27.844-28.443 45.613-46.772 70.498-42.974z" fill="#e1c0ca" fill-rule="evenodd"/><path d="M207.554 132c11.213 29.042 20.628 80.791 18.869 112.972" fill="none" stroke="#fff" stroke-width="1.679" stroke-miterlimit="8"/><path d="M295.141 27.863c-14.83 8.835-29.622 23.986-22.506 97.261-4.757 5.677-21.947 42.295-14.831 85.868 6.516 44.213 19.548 51.809 19.548 51.809 14.83 15.75 40.895 33.46 42.054 59.963 1.8 27.184-13.032 43.574-.56 59.364 12.433 15.79 26.625 12.633 33.14 11.993 2.999 5.077 3.559 3.798 30.822 13.912 27.823 10.114 69.918 29.022 76.993 23.985 7.116-5.037 9.475-99.78 9.475-125.044 0-25.265-2.359-41.015-4.718-41.015 0-1.28.6-4.438.6-6.316 0-25.905-2.958-70.757-30.821-119.368C405.314 88.506 344.31 1.959 295.14 27.863z" fill="#e1c0ca" fill-rule="evenodd"/><path d="M106.815 401.776c-5.916 0-10.653.62-15.99 1.26-1.2 0-2.379-.64-3.558-.64-1.18 0-1.779 1.28-2.958 1.28-36.738 6.316-54.507 18.988-63.402 18.988 16.01 5.676 81.77-.64 133.3-6.976 53.307-6.316 48.57-47.451 50.949-62.022-16.59 20.267-46.792 44.932-98.34 48.11z" fill="#d7aab8" fill-rule="evenodd"/><path clip-path="url(#a)" d="M382.808 407.993c-27.263-10.114-27.823-8.835-30.821-13.872-6.516.6-20.708 3.758-33.18-12.033-12.433-15.79 2.398-32.18.6-59.364-1.2-25.904-25.465-42.934-40.896-58.124-4.157 25.904 3.558 49.29 4.757 70.757 1.76 24.025-1.799 41.055 0 60.003 1.76 19.589 30.822 27.784 65.76 32.22 34.98 4.438 89.506 20.828 110.254 5.038 0-.6 0-.6.56-.6-7.676 5.037-49.17-13.911-77.034-24.025z" fill="#d7aab8" fill-rule="evenodd"/><path d="M46.252 155.866C58.125 128.122 116.849 45.512 156.585 32.26 144.732 41.735 82.45 93.443 46.252 155.866zM303.936 29.622c-14.152 3.798-33.66 16.43-28.903 80.831 1.16-13.232 3.518-69.438 28.903-80.831zm-32.501 219.867c-5.356-8.195-8.874-20.188-11.832-47.971-2.999-27.783 5.316-57.485 11.832-68.239 6.517-10.713 15.95-23.985 15.95-34.739-.559 15.79-10.633 31.581-15.95 46.772-5.356 15.15-13.032 61.882 0 104.177zM49.29 223.664c11.853 5.677 44.413 16.37 63.961 20.148 19.549 3.758 54.487 5.017 67.5 5.657 13.032.62 28.422 5.656 33.16 7.535-9.475-1.879-30.182-4.397-39.077-5.017-8.875-.64-53.887-1.259-70.457-6.916-16.59-5.676-43.834-13.212-55.087-21.407zm29.582 176.214c-33.72-12.633-57.985-82.15-59.764-99.22-.6 15.81 18.35 87.847 59.764 99.22zm248.29-13.272c-11.913-9.475-12.513-13.872-5.957-46.092s-10.713-50.53-18.468-56.246c13.112 11.393 27.983 19.588 22.626 56.246-3.558 23.985-10.714 31.58 1.799 46.092zm60.883 1.919c56.366-25.265 70.557-85.988 74.115-99.3-5.317 25.944-21.307 86.028-74.115 99.3z" fill="#fff" fill-rule="evenodd"/><path d="M197.48 78.313c8.235 12.612 3.538 29.622 8.835 43.493 5.277-11.333 4.117-28.363 1.759-40.975-1.18-10.713-3.538-23.965-11.193-31.54 1.779 8.214 11.773 22.086 1.779 29.022zM90.305 401.796C33.94 380.95 17.31 286.826 17.31 259.643c3.577 27.183 27.903 122.585 72.995 142.153zm31.981-6.396c19.548-2.518 46.172-9.474 74.575-37.937 28.402-28.462 26.644-51.229 27.823-74.634-.6 11.393-4.737 43.014-30.782 69.577-26.044 26.564-62.142 42.994-71.616 42.994zm-83.15-182.689c10.094 6.996 25.505 11.433 40.935 17.15 15.411 5.057 33.8 11.413 52.189 13.951 18.389 1.9 53.368 0 80.051 8.235-13.631-5.696-30.821-11.413-62.862-13.312-5.336-.64-16.01-1.279-26.683-3.178-17.79-3.178-37.358-8.235-45.673-10.773-13.032-3.818-33.8-9.534-37.957-12.073zm184.269 25.345c.58-31.581-6.496-63.182-13.552-89.106-5.297-18.949-11.793-34.12-12.972-49.93 0 20.228 5.316 42.994 10.014 60.683 4.137 17.07 18.848 65.08 16.51 78.353z" fill="#d7aab8" fill-rule="evenodd"/><path d="M183.829 243.093c19.508 6.915 38.416-17.65 37.817-37.178-.58 10.094 6.496 39.057-3.538 44.093-4.737 2.519-9.454-.62-13.592-1.878-9.454-1.9-18.329 0-27.783-.64zM16.71 402.396c-.6 16.43 7.116 16.43 19.548 11.373 11.253-4.417 26.064-12.012 37.897-11.373-5.317-3.798-10.054 0-15.99.64-7.696.62-10.054-5.077-15.99 0-4.138 3.158-4.738 6.956-10.654 7.575-7.116 1.26-8.895-4.417-13.632-7.575zM353.786 44.813c18.948 16.43 69.877 68.238 92.384 133.319 21.906 65.04 15.43 111.812-13.033 157.265-28.422 45.492-66.879 54.327-85.867 52.448 18.388-5.677 75.834-25.904 89.425-116.25 13.032-90.305-42.014-191.404-82.91-226.782z" fill="#d7aab8" fill-rule="evenodd"/><path d="M465.758 294.981c0 29.063-2.958 123.725-11.833 130.001-8.915 5.677-59.924-16.39-74.195-22.706 21.987 5.037 56.965 11.353 67.639-5.037 11.273-17.03 18.389-90.265 18.389-102.258zm-329.96-58.844c16.61 2.538 47.43 3.158 64.02-18.269 16.61-22.047 10.075-47.271 8.296-56.726l8.315 19.548 5.317 40.336-5.317 20.787-23.126 5.037z" fill="#d7aab8" fill-rule="evenodd"/><path d="M282.07 272.195c14.27 8.835 28.502 27.184 27.902 46.772 0 18.309-8.315 39.776 3.598 55.566-5.357-8.835-.6-23.346 1.759-33.46 1.799-8.874 2.358-20.227 0-29.062-4.158-17.71-21.387-32.22-33.86-41.735zm112.61 143.993c10.075 2.558 20.109 7.635 30.702 11.433 5.917 1.919 18.31 1.919 23.026 6.356-7.075 3.798-15.91 3.198-23.026 3.198-8.834-.64-18.868-.64-27.143-3.838 4.117 0 12.392 1.92 14.75-2.518 2.36-5.717-4.716-8.275-8.234-10.154zm-361.46 5.716c5.956-.64 14.89-6.336 21.447-8.255 5.956-1.899 18.449-7.615 23.805-5.696-3.557 1.899-19.048 6.976-8.335 11.413-2.978 3.818-31.54 6.336-33.34 2.538zm152.308-46.092c5.956-5.057 11.333-11.393 16.69-16.47.58 5.717 0 10.774-1.8 16.47-2.378 6.976-6.536 19.009-11.912 24.066 2.398-6.317 5.376-13.292 5.956-20.268.6-4.417-3.558-11.393-7.735-3.158z" fill="#c6869e" fill-rule="evenodd"/><path clip-path="url(#a)" d="M173.775 25.185c25.484 4.417 49.77 38.536 34.958 108.034 10.674 28.443 20.148 70.777 18.969 102.998-.6 14.531-1.18 20.847-1.18 20.847 2.36 18.33 3.539 56.866-7.115 75.175-10.074 18.968-40.296 65.08-112.572 69.518-5.936 0-10.673.62-16.01 1.259-1.18 0-2.359-.64-3.558-.64-1.18 0-1.779 1.26-2.958 1.26-53.907 8.854-66.36 32.22-71.097 9.494C7.875 387.845.76 281.07 14.392 250.108c1.199-2.518 2.378-5.676 2.378-5.676.58-9.474 4.137-42.334 10.074-46.752.58-8.215 4.137-22.126 14.211-42.334 10.674-20.848 34.38-59.404 62.222-87.187 27.844-28.443 45.613-46.772 70.498-42.974" fill="none" stroke="#333" stroke-width=".8" stroke-linecap="round" stroke-linejoin="round" stroke-miterlimit="10"/><path d="M199.26 88.386c-2.38 9.495 4.736 30.342 9.454 45.493M26.684 197.6c-1.78 5.697 8.894 15.81 25.504 22.127 16.01 6.956 28.443 10.753 45.653 16.43 29.622 9.474 62.242 8.215 93.063 11.373 12.453 1.26 32.02 9.474 35.559 8.855M16.77 244.452c-1.78 17.69 2.378 61.243 20.168 99.76 17.789 37.876 42.094 56.185 50.969 58.064M295.141 27.863c-14.83 8.835-29.622 23.986-22.506 97.261-4.757 5.677-21.947 42.295-14.831 85.868 6.516 44.213 19.548 51.809 19.548 51.809 14.83 15.75 40.895 33.46 42.054 59.963 1.8 27.184-13.032 43.574-.56 59.364 12.433 15.79 26.625 12.633 33.14 11.993 2.999 5.077 3.559 3.798 30.822 13.912 27.823 10.114 69.918 29.022 76.993 23.985 7.116-5.037 9.475-99.78 9.475-125.044 0-25.265-2.359-41.015-4.718-41.015 0-1.28.6-4.438.6-6.316 0-25.905-2.958-70.757-30.821-119.368C405.314 88.506 344.31 1.959 295.14 27.863" fill="none" stroke="#333" stroke-width=".8" stroke-linecap="round" stroke-linejoin="round" stroke-miterlimit="10"/><path d="M287.386 90.305c-4.118 13.312-9.994 27.224-14.711 34.78m79.392 269.076c23.705 1.24 95.342-18.988 112.491-128.362M106.815 401.776c-5.916 0-10.653.62-15.99 1.26-1.2 0-2.379-.64-3.558-.64-1.18 0-1.779 1.28-2.958 1.28-36.738 6.316-54.507 18.988-63.402 18.988 16.01 5.676 81.77-.64 133.3-6.976 53.307-6.316 48.57-47.451 50.949-62.022-16.59 20.267-46.792 44.932-98.34 48.11" fill="none" stroke="#333" stroke-width=".8" stroke-linecap="round" stroke-linejoin="round" stroke-miterlimit="10"/><path clip-path="url(#a)" d="M382.808 407.993c-27.263-10.114-27.823-8.835-30.821-13.872-6.516.6-20.708 3.758-33.18-12.033-12.433-15.79 2.398-32.18.6-59.364-1.2-25.904-25.465-42.934-40.896-58.124-4.157 25.904 3.558 49.29 4.757 70.757 1.76 24.025-1.799 41.055 0 60.003 1.76 19.589 30.822 27.784 65.76 32.22 34.98 4.438 89.506 20.828 110.254 5.038 0-.6 0-.6.56-.6-7.676 5.037-49.17-13.911-77.034-24.025" fill="none" stroke="#333" stroke-width=".8" stroke-linecap="round" stroke-linejoin="round" stroke-miterlimit="10"/><path d="M70.637 154.746c0 6.916 1.78 15.69 8.235 20.068m-5.916-6.156c-2.379 0-5.357.6-7.756 1.2m27.924-61.803c-1.22 6.975 3.617 11.393 7.815 15.19" fill="none" stroke="#8b576c" stroke-width=".8" stroke-linecap="round" stroke-linejoin="round" stroke-miterlimit="10"/><path d="M90.785 122.526c1.22-1.94 3.038-3.238 5.437-4.557m53.728-45.893c2.398 5.637.599 11.273 0 17.51" fill="none" stroke="#8b576c" stroke-width=".8" stroke-linecap="round" stroke-linejoin="round" stroke-miterlimit="10"/><path d="M151.148 81.99c2.979-.6 5.357-1.199 8.315-1.199m33.9-23.905c0 5.036-1.24 10.073-3.118 14.47" fill="none" stroke="#8b576c" stroke-width=".8" stroke-linecap="round" stroke-linejoin="round" stroke-miterlimit="10"/><path d="M192.643 64.48c2.399.62 5.377 1.84 7.756 3.04m-38.417-30.303c-.6 5.697-.6 11.394 2.918 15.191" fill="none" stroke="#8b576c" stroke-width=".8" stroke-linecap="round" stroke-linejoin="round" stroke-miterlimit="10"/><path d="M161.782 46.132c-2.359-.6-4.138 0-5.916.6m-27.184 70.757c4.237 4.437 3.038 12.632 2.439 18.309m1.079-8.315h6.636m30.661-25.105c-.6 6.876 2.379 12.472 7.716 15.59m-5.197-3.038c-1.76 1.28-3.538 2.559-4.717 4.478M42.075 187.606c-.62 4.458 1.798 8.895 6.016 11.433" fill="none" stroke="#8b576c" stroke-width=".8" stroke-linecap="round" stroke-linejoin="round" stroke-miterlimit="10"/><path d="M40.975 197.6c1.18-1.799 2.339-2.398 4.078-1.799m61.802-42.974c2.878 3.818 2.319 11.413 1.16 15.83m1.239-5.676c1.759-.72 4.077-.72 6.396 0m1.839 44.233c4.117 1.26 9.394-1.878 12.312-4.417m-4.717 3.758c.6 1.899 1.2 3.778 1.2 5.037M92.624 197.6c-1.12 3.818-1.12 8.275 0 12.073m-.72-3.118h-3.997m56.126-50.689c2.398 4.477 2.398 10.233 0 14.71m2.398-5.676c1.78-.72 3.558-1.44 5.917-.72m20.147-15.75c3.538.64 7.656-.64 8.235-5.117" fill="none" stroke="#8b576c" stroke-width=".8" stroke-linecap="round" stroke-linejoin="round" stroke-miterlimit="10"/><path d="M177.932 147.87c.56 1.9 1.12 3.798 1.68 5.677m-11.834 39.716c2.959 2.418 8.295.6 11.833-.62m-5.916 1.839v5.677m21.347-38.537c.64 3.798-.64 7.575-1.28 11.353m1.2-3.838h4.797m2.938 55.007c.58 3.178-1.18 8.255-4.137 10.154m3.518-2.638c1.199.66 2.398 1.978 3.597 2.638m-50.289-4.458c2.378 1.82 6.556 0 9.514-1.219m-4.237 2.639v4.237M50.49 240.694c3.557-3.278 8.894-3.278 13.032-2.618" fill="none" stroke="#8b576c" stroke-width=".8" stroke-linecap="round" stroke-linejoin="round" stroke-miterlimit="10"/><path d="M55.686 234.298c.6 1.26 1.2 2.518 1.2 3.758m51.648 10.234c1.92 1.878 1.92 6.236 0 8.714" fill="none" stroke="#8b576c" stroke-width=".8" stroke-linecap="round" stroke-linejoin="round" stroke-miterlimit="10"/><path d="M109.733 253.966c1.82 0 4.238-.72 6.636-.72m33.101.72c4.177 0 8.934 1.899 11.912 5.677m-3.118-3.278c.62-1.92 2.439-2.559 4.238-3.838m27.263 15.191c1.2 2.558 2.399 5.117 1.799 8.315m.6-2.639c1.179-1.919 2.958-1.919 4.717-1.919m20.147 20.868c1.2 4.477.6 8.954-2.398 12.792m2.878-3.918c1.22-.56 3.038 0 4.238.56m-85.309-26.944c1.18 3.179 1.76 6.337 4.078 7.596m-2.399-1.439c-1.759 0-2.918.64-3.518 2.558m48.052 8.315c.599 4.437 3.517 6.976 7.595 7.596" fill="none" stroke="#8b576c" stroke-width=".8" stroke-linecap="round" stroke-linejoin="round" stroke-miterlimit="10"/><path d="M185.528 297.54c-1.14 1.219-2.299 2.438-2.879 4.237M26.824 258.204c0 4.457 1.779 8.894 4.717 11.433m-2.399-2.399c-1.199.6-2.418 1.2-3.038 2.399m34.299-3.658c3.019 1.259 7.236-1.88 9.035-4.418m-4.718 4.957c1.12 1.86 1.68 3.099 2.8 4.957m35.817 1.919c0 4.518-2.998 7.116-6.636 9.035m3.519-1.439c1.258 1.259 1.878 2.518 3.117 3.757M76.554 298.02c0 2.598-.56 5.836-2.879 7.115m2.399-1.439c2.318 0 4.057.66 5.197 2.638m55.766 4.478c-.6 4.417 1.16 8.834 4.677 11.353m-3.598-3.278c-1.159.72-2.338.72-3.518 1.439m22.467-21.587c1.2 1.859 1.2 3.098 1.2 4.957" fill="none" stroke="#8b576c" stroke-width=".8" stroke-linecap="round" stroke-linejoin="round" stroke-miterlimit="10"/><path d="M158.264 301.377c.64-1.279 1.879-1.918 3.118-1.918m17.749 32.22c0 3.758-.64 7.515-1.918 10.634m1.199-3.039c1.779-1.918 4.157-1.918 7.116-1.918M37.457 301.777c.6 3.898 3.498 5.837 6.396 7.116m-3.997-1.839c-1.2 1.22-1.8 2.438-2.399 4.237m19.429 25.345c3.597-.62 9.574-2.499 10.153-6.876m-4.237 5.677c.6 1.279 1.799 2.558 2.398 3.837m39.257-22.306c1.199 3.178-1.82 6.996-4.238 9.514m3.598-3.838c.6 1.36 2.359 2.699 4.717 3.358m-23.665 34.06c4.797 0 9.574-3.158 11.353-8.235m-4.318 7.515c.6.64 1.2 2.559 1.2 3.838m35.578-15.19c.6 3.157 4.157 5.676 7.116 5.056m-4.078-.1c-.64 1.28-1.919 2.559-1.919 3.838m-20.547 31.021c3.518-.62 7.016-3.138 9.914-5.677m-3.518 4.478c0 1.859.6 3.098 1.2 4.957m49.729-31.501c-.56 3.757-1.14 6.876-2.878 9.994m1.679-4.318h5.436M59.884 363.18c-.6 2.558 1.159 4.477 2.918 6.396" fill="none" stroke="#8b576c" stroke-width=".8" stroke-linecap="round" stroke-linejoin="round" stroke-miterlimit="10"/><path d="M61.123 366.938c-1.16.66-1.739 1.319-2.319 2.638m143.274-47.411c0 2.518.6 5.017 2.398 6.876m-1.679-1.919c-1.28 0-1.919 1.319-1.919 2.638m-187.086-3.278c.6 4.417 2.378 6.936 5.916 9.434m-4.318-1.918c-.559 1.279-.559 2.558-1.119 3.837m12.553 26.545c2.358-1.86 4.717-4.358 4.717-6.877m-1.919 4.477c.6 1.26 1.2 2.52 2.399 3.758M18.509 379.49c0 3.238 1.16 5.836 3.997 7.116" fill="none" stroke="#8b576c" stroke-width=".8" stroke-linecap="round" stroke-linejoin="round" stroke-miterlimit="10"/><path d="M19.708 383.967c-1.2 1.32-1.799 3.258-2.398 4.558m28.462-9.035c0 4.457 0 8.915-2.398 12.073" fill="none" stroke="#8b576c" stroke-width=".8" stroke-linecap="round" stroke-linejoin="round" stroke-miterlimit="10"/><path d="M45.053 387.085c1.819 0 3.038.64 4.237 1.92m-22.466 18.288c2.958 2.499 8.854-1.879 9.434-5.017m-3.038 5.197c1.16 0 1.739 1.24 2.318 1.839M32.14 226.703c-.6 3.198.58 6.396 2.919 8.315m-1.839-1.919c-1.2 0-1.799.6-2.399 1.199M50.97 279.79c1.158 2.519 1.738 4.378 2.318 6.876m-.4-2.398c.58-1.22 1.16-1.84 2.319-1.84m61.643 13.192c1.218 2.5 3.037 4.978 3.037 8.076m.48-3.038c.62-2.479 1.819-3.118 4.237-2.479M119.168 66.8c0 5.116 1.819 9.594 6.636 12.152" fill="none" stroke="#8b576c" stroke-width=".8" stroke-linecap="round" stroke-linejoin="round" stroke-miterlimit="10"/><path d="M121.566 74.395c-2.318 0-3.478.68-4.077 3.358m290.704 80.751c0 7.555-1.76 16.39-8.315 20.148m5.916-5.677c2.439 0 5.437 0 7.835.72m-9.594-56.845c.56 6.315-3.558 10.713-7.675 15.11m10.154-1.2c-1.2-1.878-3.598-3.117-5.437-3.757M364.38 63.761c-2.4 5.677-.6 11.353 0 17.03" fill="none" stroke="#8b576c" stroke-width=".8" stroke-linecap="round" stroke-linejoin="round" stroke-miterlimit="10"/><path d="M363.18 73.915c-2.958-.68-5.317-1.359-8.315-1.359m-60.363-20.148c0 5.037.64 10.034 3.038 14.392" fill="none" stroke="#8b576c" stroke-width=".8" stroke-linecap="round" stroke-linejoin="round" stroke-miterlimit="10"/><path d="M295.221 60.004c-2.998.64-5.397 1.878-7.835 3.757m36.818 11.353c.6 5.717.6 11.394-2.999 15.191" fill="none" stroke="#8b576c" stroke-width=".8" stroke-linecap="round" stroke-linejoin="round" stroke-miterlimit="10"/><path d="M324.084 84.03c2.398-.6 4.157 0 5.916.599m16.55 32.86c-4.717 4.437-3.518 12.632-2.359 18.309m-1.639-8.315h-6.636m-30.741-25.105c1.16 6.876-2.359 12.472-7.635 15.59m5.197-3.038c1.798 1.28 3.597 2.559 4.797 4.478m119.047 76.273c.56 5.077-2.318 8.835-5.836 11.354" fill="none" stroke="#8b576c" stroke-width=".8" stroke-linecap="round" stroke-linejoin="round" stroke-miterlimit="10"/><path d="M427.141 205.915c-.6-1.919-2.398-1.919-3.598-1.919m-55.646-51.169c-2.399 3.838-2.399 11.433-1.2 15.83m-1.199-5.676c-1.758-.72-4.117-.72-5.916 0m-2.319 44.253c-4.077 1.24-8.794-1.878-12.312-4.437m4.717 3.758c0 1.919-.6 3.798-1.2 5.037m33.66-13.992c1.2 3.838 1.2 8.275 0 12.073m1.2-3.118h3.518m-56.206-50.689c-2.319 4.477-2.319 10.233.56 14.71" fill="none" stroke="#8b576c" stroke-width=".8" stroke-linecap="round" stroke-linejoin="round" stroke-miterlimit="10"/><path d="M328.8 164.9c-2.358-.72-4.117-1.44-5.916-.72m1.32-126.243c-2.519 4.437-2.519 10.714.6 14.471" fill="none" stroke="#8b576c" stroke-width=".8" stroke-linecap="round" stroke-linejoin="round" stroke-miterlimit="10"/><path d="M322.405 46.732c-1.76-.72-4.118-.72-5.917-.72M302.737 148.43c-3.478.64-7.516-.64-8.715-5.117" fill="none" stroke="#8b576c" stroke-width=".8" stroke-linecap="round" stroke-linejoin="round" stroke-miterlimit="10"/><path d="M296.82 147.87c0 1.92-1.04 3.798-1.599 5.677m12.313 39.736c-3.558 2.398-8.315.6-11.913-.64" fill="none" stroke="#8b576c" stroke-width=".8" stroke-linecap="round" stroke-linejoin="round" stroke-miterlimit="10"/><path d="M301.617 194.482c-.48 1.919-.48 3.798-.48 5.677m-20.747-38.537c-.6 3.798 0 7.595.6 11.353m-1.2-3.838h-4.717m8.835 37.418c-.6 3.158 1.2 8.155 4.197 9.994m-3.118-2.399c-1.159.6-2.318 1.8-3.518 2.399m45.013 2.678c-2.358 1.799-6.516-.6-9.514-1.24m4.237 2.319v3.838m103.058 16.55c-3.558-3.278-8.355-3.278-12.553-2.598" fill="none" stroke="#8b576c" stroke-width=".8" stroke-linecap="round" stroke-linejoin="round" stroke-miterlimit="10"/><path d="M418.826 234.298c-.6 1.28-1.2 2.518-1.2 3.758m13.033-85.948c-3.518-3.038-8.875-3.038-13.032-2.399" fill="none" stroke="#8b576c" stroke-width=".8" stroke-linecap="round" stroke-linejoin="round" stroke-miterlimit="10"/><path d="M425.462 145.952c-.6 1.279-1.2 2.518-1.2 3.757m-71.076 87.227c-1.839 2.519-1.839 6.956 0 9.435" fill="none" stroke="#8b576c" stroke-width=".8" stroke-linecap="round" stroke-linejoin="round" stroke-miterlimit="10"/><path d="M352.067 243.093c-2.399-.48-4.797-.48-6.636-.48m-20.148 11.353c-4.118 0-8.875 1.919-11.833 5.677m3.038-3.278c-.6-1.92-2.398-2.559-4.237-3.838m-22.547-10.634c-1.039 2.559-1.599 5.117-1.039 8.315m-1.279-3.358c-1.2-1.279-2.998-1.918-4.797-1.279m55.726 29.262c-.56 3.198-1.16 6.357-4.078 7.596m2.399-1.439c1.719 0 2.878.64 3.998 2.558m50.929-49.97c-.56 4.438-3.558 6.996-7.116 7.596" fill="none" stroke="#8b576c" stroke-width=".8" stroke-linecap="round" stroke-linejoin="round" stroke-miterlimit="10"/><path d="M388.764 239.255c1.12 1.32 2.239 2.638 2.799 4.557m56.286 14.392c.56 4.477-1.8 8.914-4.158 11.433m2.399-2.399c.6.6 1.759 1.2 2.318 2.399m-34.299-3.638c-2.958 1.239-7.116-1.88-8.315-4.438m4.237 4.957c-1.199 1.88-1.798 3.119-3.038 4.957m-39.096-9.434c0 4.438 2.958 6.356 5.916 8.235m-3.517-1.119c-.6 1.28-1.8 2.518-2.399 3.758m30.901 25.105c-.6 2.598.56 5.836 2.279 7.115m-2.399-1.439c-1.759 0-3.517.68-4.717 2.638m-56.206 4.478c.56 4.437-1.159 8.834-4.637 11.353m3.518-3.278c1.2.72 2.359.72 3.518 1.439m-18.949-27.983c-1.119 1.319-1.119 3.278-1.119 5.197m-.72-2.559c-.6-1.319-1.199-1.959-2.398-2.638m120.807 9.434c-1.16 3.918-4.118 5.837-7.116 7.116m4.317-1.839c1.12 1.24 2.239 2.438 2.799 4.237m-20.148 25.345c-3.478-.6-9.314-2.479-9.914-6.876m3.997 5.677c-.56 1.279-1.718 2.558-2.318 3.837m-38.976-22.306c-.6 3.198 1.758 6.996 4.117 9.514" fill="none" stroke="#8b576c" stroke-width=".8" stroke-linecap="round" stroke-linejoin="round" stroke-miterlimit="10"/><path d="M371.495 322.644c-1.2 1.36-2.998 2.719-4.797 3.358m23.745 34.06c-5.356 0-10.113-3.158-11.912-8.235m4.797 7.515c-1.12.64-1.68 2.559-1.12 3.838m-35.658-15.19c-1.12 3.157-4.597 5.676-7.515 5.076m3.997-.12c1.2 1.28 1.799 2.559 2.399 3.838m13.032 23.426c-3.558-.6-7.116-3.119-9.514-5.677m3.597 4.477c-.6 1.88-1.199 3.118-1.199 4.957m55.766 8.315c.6 2.479-1.199 4.957-2.998 6.157" fill="none" stroke="#8b576c" stroke-width=".8" stroke-linecap="round" stroke-linejoin="round" stroke-miterlimit="10"/><path d="M405.794 396.6c1.2 0 1.799 1.239 2.399 1.839m47.331-66.76c-.56 4.437-2.359 6.956-5.916 9.434m4.317-1.839c.56 1.28.56 2.519 1.12 3.758m-7.037 21.348c-2.398-1.84-4.197-4.358-4.797-6.877m1.679 4.477c-.6 1.28-1.199 2.52-2.398 3.758m13.751 13.752c0 3.238-.6 5.836-4.237 7.116" fill="none" stroke="#8b576c" stroke-width=".8" stroke-linecap="round" stroke-linejoin="round" stroke-miterlimit="10"/><path d="M455.524 383.967c.6 1.32 1.799 3.278 2.398 4.558m-28.942-9.035c0 4.477.6 8.915 2.878 12.073m-2.398-4.478c-1.16 0-2.319.64-3.518 1.92m22.066 18.308c-2.958 2.479-8.914-1.879-9.514-5.037m2.879 5.197c-.6 0-1.8 1.24-2.399 1.839m11.833-190.205c0 3.198-.56 6.396-3.518 8.315m2.319-1.919c.6 0 1.798.6 2.398 1.2m-28.463 53.087c-1.159 2.519-1.719 4.398-2.318 6.876" fill="none" stroke="#8b576c" stroke-width=".8" stroke-linecap="round" stroke-linejoin="round" stroke-miterlimit="10"/><path d="M421.944 284.268c-.6-1.2-1.199-1.84-2.398-1.84m-56.366 10.634c-1.799 2.559-3.598 5.117-2.998 8.315m-.6-3.357c-.56-2.4-2.279-3.039-3.998-2.4m15.431-188.285c-.6 5.117-1.799 9.554-6.636 12.073" fill="none" stroke="#8b576c" stroke-width=".8" stroke-linecap="round" stroke-linejoin="round" stroke-miterlimit="10"/><path d="M368.617 114.93c2.318 0 3.438.64 3.997 3.038M298.02 317.687c.639 5.077 4.237 8.275 9.034 10.154" fill="none" stroke="#8b576c" stroke-width=".8" stroke-linecap="round" stroke-linejoin="round" stroke-miterlimit="10"/><path d="M301.137 324.084c-2.398 2.518-3.597 5.676-3.597 8.794m-1.72 29.102c-.599 6.277 1.72 13.153 6.917 17.51m-5.917-6.156c-2.358 1.879-5.317 3.757-5.916 6.876m13.032 25.944c3.598 4.357 14.311-.6 17.27-4.358m-7.036 5.677c1.759 1.879 4.077 3.758 5.196 6.876m39.097-6.876c.6 4.997 2.958 8.115 7.035 11.833" fill="none" stroke="#8b576c" stroke-width=".8" stroke-linecap="round" stroke-linejoin="round" stroke-miterlimit="10"/><path d="M360.302 413.03c-2.359-.6-4.118 0-5.917.6m-224.983-5.038c5.276 3.838 9.954-1.918 14.63-4.477m-5.196 4.557c1.16.62 2.298 1.84 3.997 3.038m31.981-15.59c4.817-3.178 9.035-8.255 10.234-13.992m-2.398 7.596c1.179 1.259 2.338 2.518 4.077 3.758m-99.54 21.586c4.757-2.678 9.494-3.358 14.232-2.678m-8.315-4.437v5.197" fill="none" stroke="#8b576c" stroke-width=".8" stroke-linecap="round" stroke-linejoin="round" stroke-miterlimit="10"/><path d="M89.146 110.473c2.339-.62 5.277-1.899 7.595-1.26-.58 3.159-4.657 4.418-7.595 5.038m36.578 7.635c2.378-1.959 6.536-1.959 8.914-1.3-1.779 3.879-6.536 4.518-9.514 6.457m39.096-22.706c2.419 1.239 7.836 0 9.035 3.078-2.399 1.859-5.417 2.478-8.415 3.078m10.014 10.154c0-2.559 1.799-5.117 3.598-6.396m-11.833-.001c1.2 3.179 4.157 5.078 5.916 7.596m5.917 22.706c1.779.64 3.538.64 4.717 1.92m-41.415 14.67c1.799-1.239 5.397-5.636 7.775-4.377 4.777 1.879-2.378 5.637-4.177 6.256m-41.495-5.676c1.779-.64 5.317-4.478 7.096-2.559 3.538 3.198-4.717 6.396-6.496 6.396m-36.098-3.917c1.798 0 7.775-3.198 8.374.64.58 3.197-8.974 4.477-10.773 5.116m8.235 11.833c1.18-1.24 2.958-3.098 4.717-4.957M67.56 166.14c.719 2.538 0 5.076.719 7.595m-29.582 17.109c2.958.64 6.496-2.558 9.434-3.198m-3.518 11.434c1.16-1.32 2.858-3.299 3.998-5.277m40.535 6.396c2.978.6 5.357.6 8.315 1.199m21.827 1.439c-.56 3.158.56 5.657 1.119 8.795m7.116-10.234c.58 1.919 1.739 4.477 2.318 6.396m-7.035 3.118c1.818-.64 3.637-1.28 5.436-1.919m43.094-16.31c-1.2 1.9-1.799 3.798-2.398 5.677m8.415-8.315c-.58 3.178 0 5.696 2.298 7.595m13.032-31.5c1.18-.6 2.958-.6 4.717-1.2m.72 1.2c-1.2 2.538-1.2 5.076-1.2 7.595m-49.73-97.941c1.76-1.919 4.078-3.198 6.397-1.28-1.16 2.56-4.058 3.839-6.396 4.478m8.715-.719c-.48 2.598-.48 5.176-.48 7.115m-7.756 1.12c1.78.72 3.558.72 5.917 0m36.698-26.464c1.819-.72 3.038-.72 4.237 0m-5.437 8.235c1.2.6 2.399 1.199 3.598 1.199m5.917-5.677c-1.12 1.92-1.12 3.838-1.68 6.396m-38.616-29.762c2.379-.62 6.536-1.259 8.315.62-2.359 1.879-5.936 1.879-8.315 1.879m3.518 8.315c2.978 0 4.757-1.979 7.116-2.638m-46.132 32.22c1.219-1.919 1.838-3.198 3.038-4.477m-7.836-4.957c1.8-.64 2.999-1.28 4.798-1.92m-26.065 53.808c.6-1.919 1.76-3.198 3.518-3.837M128.722 132c1.819.64 3.038 1.28 4.237 1.919m2.319-3.119c-1.12-2.558 0-4.477.56-6.395m-29.662 41.735c1.779.719 4.157.719 5.916.719m45.732 64.841c-1.199-1.24-1.199-2.499 0-3.758m-5.436 24.625c-.48 1.899-.48 3.798-.48 5.676m27.743 37.897c2.419 0 4.837-1.159 6.636-2.318m-51.649-14.712c1.18-.639 2.959-.639 4.718-1.918m-40.296-2.319c1.2 2.519 3.558 3.758 5.916 3.758M64.76 260.882c.58 2.478 1.72 4.337 3.998 4.957m-44.293-3.718c1.18-1.24 5.277-4.357 6.436-1.24 1.16 2.48-5.257 4.958-6.436 4.958m27.264-27.743c2.358 0 2.358 1.919 3.518 3.837m4.637-7.595c0 1.899-.56 3.798.56 5.677m-2.319 91.704c.72 2.498.72 5.617.72 8.715m5.915-11.354c1.74 1.9 2.899 4.418 5.198 5.677m16.07 20.867c.6 3.159 1.799 6.297 2.398 9.435m3.518-13.192c0 2.558 1.8 5.756 4.797 6.396m27.184-5.277c2.378-.6 4.757-2.418 7.116-3.038m.719-35.978c2.339 0 4.657-1.2 6.396-1.2m-.479 10.634c1.798 0 3.597-1.2 4.797-3.038m33.1 14.991c1.779.6 4.157 0 5.916-.6M164.22 361.9c1.78.6 3.558 0 5.917-.599m-56.127 28.463c1.78-.66 2.96-1.979 4.718-2.639m-8.955-4.237c1.74 1.879 2.32 4.377 2.32 6.876m-75.315-83.39c.64-1.279 1.879-3.198 3.118-3.837M12.632 330.28c2.379-.6 4.158-1.8 5.917-2.399m-1.199 55.487c.6-1.28 2.398-1.92 3.597-1.92m8.235-24.624c1.78 1.959 2.959 4.557 5.917 5.197m6.396 20.867c1.819.48 4.237.48 6.636.48m140.954-112.332c1.2 0 2.999-.6 3.598-1.84m26.704 26.464c-2.359 0-4.137.64-5.916 1.92m-100.659-46.212c-1.2 1.918-1.2 4.477-.6 6.396m-11.952 62.442c2.378 1.28 5.336.64 7.115-1.28m7.835-17.109c1.72-1.879 2.858-3.778 3.998-5.676m-41.415 5.276c-2.359 0-4.717 0-5.917-.72m70.598-133.358c2.338 0 4.077 1.279 6.396 2.558m128.562-4.957c1.759 1.2 2.918 1.2 5.197 1.2m43.413-6.397c2.959-1.919 5.317-.64 8.235-.64m6.397-24.465c2.398 0 4.157-.64 5.916-1.918m1.2-12.073c-1.16-.6-5.797-3.758-7.556-1.879-2.359 2.518 2.918 5.637 4.677 5.637m21.827-15.111c3.038.64 6.036 1.279 9.034 2.558m20.628 15.191c.6 2.558 2.958 3.798 4.717 5.677m4.237-10.874c-1.199-1.839-2.398-3.078-4.237-4.317m3.598 44.133c8.235 1.28 6.476 6.396-1.2 4.477m-2.398 8.715c0 1.959.6 3.918 2.398 4.557m7.755-8.794c-.599 1.878-1.838 4.397-1.199 6.875m-46.131-10.153h3.517m2.399-9.994c-2.359-1.24-4.717-2.479-7.116-3.758m-35.099 17.03c1.2-.64 2.399-1.92 3.598-2.559m-39.096-20.148c.6-1.319 1.759-2.678 3.518-3.358m-.001 52.608c1.28-2.558 1.88-4.517 3.119-7.115m-18.469 20.268c2.439.6 4.837-.6 6.636-1.8m-3.118 40.297c.6-1.24.6-1.84 1.2-3.119m36.697 5.677c0 3.198-.48 7.035 0 10.233m43.414 4.957c1.799-1.239 4.157-2.478 5.916-3.757m43.094-27.743c-1.2 1.878-1.2 4.397-1.2 6.875m11.834-6.396c-2.879.64-4.598 3.198-5.197 6.396m-16.071 26.544c1.8-2.518 2.959-5.676 4.718-7.595m-2.399 8.315c2.439 0 4.237 1.879 5.437 3.758m-17.27 28.462c1.84 1.88 3.038 5.637 4.238 7.516m7.595 26.544c1.799-.6 2.998-2.479 3.598-3.758m-34.379 26.544c2.998-.64 4.757-3.278 7.115-5.277m3.638 10.234c-.6-3.118 1.16-4.997 3.478-6.876M347.31 380.25c2.358-2.519 3.517-5.677 5.276-7.596m-9.514-23.905c1.24 2.558 3.038 4.437 5.437 5.676m18.229-34.059c1.199 2.318 4.157.6 5.916 0m-37.897-7.116c2.399 0 4.757 1.28 7.116 2.559m18.469-22.707c.6 1.92 1.199 3.798 2.398 5.677m-27.983-20.148c1.839 0 3.638-.72 5.437-.72m7.596-37.177c-.48 1.879-.48 3.718-.48 6.156m5.916-36.458c.6-2.558 1.799-4.517 2.398-7.115m-11.832 4.477c2.398-1.839 4.757-4.997 7.115-6.876m28.383 1.919c2.359-.64 4.078-2.638 6.396-2.638m36.298-1.119c1.76.559 4.078 1.119 6.396 1.119m-122.485-8.715c0 1.879 0 4.317 1.199 6.156m-20.867 46.212c2.398.56 4.157 1.12 5.916 1.12m16.55-138.157c-1.719-1.839-7.516-2.478-6.916 1.24.56 1.239 5.797 2.438 6.916 4.277m-4.717 5.676c.6-1.199 1.799-2.398 3.598-3.038m18.948-37.177c-2.358.64-4.717.64-7.116 1.839m1.2 6.156c0 3.278 3.558 3.918 5.916 4.557m30.781-20.867c.6 2.518 1.2 4.397 1.2 6.876m3.517 2.638c1.8.64 3.558 0 4.718 0M365.538 67c-5.876-4.398-9.434 3.157-.56 4.397m-43.733-20.148c1.2-1.919 3.558-1.919 5.917-1.919m-1.799-8.235c-1.16 0-3.518-1.919-4.717-1.28-4.118 2.52 4.717 5.038 5.876 5.038m-33.18 20.867c2.439 0 4.238-1.839 6.636-3.118m-9.034-5.197c2.438-.6 4.837-1.2 6.636-2.398m-7.836 5.037c.6 2.478 1.2 4.357 1.2 6.795m135.038 316.049c1.839 1.12 4.237.56 6.636 0m8.794-20.868c2.439-.639 4.238-1.998 6.636-3.357m5.197-23.186c1.2 1.279 2.959 2.558 4.717 3.837" fill="none" stroke="#e1c0ca" stroke-width="1.679" stroke-miterlimit="8"/><path d="M445.65 262.081c1.759.72 3.478.72 5.197.72m-15.431 40.455c.64 1.28 1.879 2.559 3.118 3.838m5.197 102.738c1.879-1.24 1.879-3.079 3.118-4.957m8.835-15.831c-.6-1.839.56-3.078 2.278-4.317M199.799 226.743c2.358-.6 4.697-1.2 7.036-1.2m-3.998 8.795c.6-1.2 1.2-2.419 2.399-3.038M181.97 384.007c.6 2.499 2.998 2.499 4.797 3.118m-9.994 4.478c.6 1.279 1.799 2.558 2.398 3.837m-39.815 9.435c1.179 1.319 2.958 1.978 4.717 2.638m-13.033 0c.72 1.22.72 3.038.72 4.237m-33.18-1.199c.48 1.26.48 2.499 0 3.118m219.667-12.552c6.596 8.235-3.638 8.235-2.998 1.919m-8.835 1.839c-.56 1.918-1.719 4.477 0 6.396 1.72 0 2.279-2.559 2.279-5.117m-15.351-40.296c2.439-1.279 4.837-1.919 6.636.64-1.2 2.518-4.197 1.879-6.636 3.118m10.634-45.013c-.48 1.32-.48 3.278 0 5.197m-7.116-7.595c1.24-.72 3.118-.72 4.317-.72m55.647 89.066c.56-.72 1.679-.72 2.798-.72m3.598 4.558c-1.12 1.28-2.279 2.558-2.878 4.477" fill="none" stroke="#d7aab8" stroke-width="1.679" stroke-miterlimit="8"/><path d="M200.918 91.545c-6.476-3.838-9.434 4.477-.58 3.837m87.807-1.239c-5.956-6.916-12.552 5.637-.56 4.397" fill="none" stroke="#e1c0ca" stroke-width="1.679" stroke-miterlimit="8"/></svg>