<svg xmlns="http://www.w3.org/2000/svg" version="1.0" viewBox="0 0 411.591 460.006"><defs><clipPath clipPathUnits="userSpaceOnUse" id="a"><path d="M11.833 4.717h411.11v460.361H11.834z"/></clipPath></defs><path clip-path="url(#a)" d="M199.44 13.792s-2.6 97.42 22.985 100.179c9.674 1.2 29.342-53.847 80.192-53.847 50.489 0 145.471 57.405 106.895 214.19-38.617 156.785-191.524 251.407-287.266 108.494-8.195-11.873-13.392-21.387-21.547-23.346-7.795-2.398-49.73-11.873-47.491 94.223 0 0-18.949 22.187-39.736 0 0 0-7.436-124.325 66.8-138.596 26.743-5.517 33.42 6.756 48.65-2.758 15.19-9.515 24.865-17.43 41.934-16.63 17.43.4 41.935-6.716 38.217-54.247-4.077-47.492-1.119-58.565-15.95-73.636-14.831-15.43-41.215-60.563-36.378-152.427l42.694-1.6z" fill="#f7cbb2" fill-rule="evenodd"/><path clip-path="url(#a)" d="M242.773 229.181c.72-31.66-24.505-51.049-39.696-72.796-15.23-22.586-22.626-43.933-26.704-71.636-3.718-24.545.72-46.692 3.318-70.078l-22.986.8c-4.837 91.824 21.507 136.957 36.338 152.387 14.831 15.031 11.873 26.104 15.95 73.596 3.718 47.49-20.747 54.607-38.216 54.207-17.07-.8-26.704 7.115-41.895 16.63-15.23 9.514-21.907-2.759-48.61 2.758-74.236 14.271-66.8 138.516-66.8 138.516 8.155 8.715 15.95 10.674 22.626 9.514 1.879-12.672 1.879-26.544 2.239-34.419 1.479-31.66 5.197-71.237 32.66-89.865 24.465-16.23 50.09-9.075 77.153-6.716 25.625 2.358 55.287 12.272 75.714-8.715 12.233-12.672 11.114-27.703 11.873-45.492.72-16.23 6.676-32.86 7.036-48.69z" fill="#f7dbce" fill-rule="evenodd"/><path clip-path="url(#a)" d="M327.522 64.161c44.932 24.945 94.702 93.423 66.839 207.394-28.942 117.53-129.202 193.123-214.27 166.98 90.265 49.849 197.92-36.419 229.5-164.221 32.661-133.36-30.82-194.682-82.07-210.153z" fill="#eab096" fill-rule="evenodd"/><path d="M248.85 116.73c-4.478 1.558-8.556.399-9.675-2.36-1.12-3.157 1.879-7.075 6.316-8.634 4.118-1.6 8.555-.4 9.674 2.758.72 3.118-1.879 6.676-6.316 8.235zm-14.192 6.036c-2.559 4.357-6.236 6.316-8.835 4.757-2.958-1.6-2.958-6.356-.72-10.714 2.559-4.357 6.237-6.356 8.835-4.757 2.559 1.6 2.918 6.356.72 10.714zm-8.495 34.838c-2.618 3.958-6.336 6.337-8.935 4.758-2.618-1.58-2.998-6.736-.76-10.694 2.62-4.377 6.337-6.756 8.935-4.757 2.619 1.579 2.979 6.336.76 10.693z" fill="#eab096" fill-rule="evenodd"/><path d="M411.35 169.737c2.999 3.598 3.718 8.315 1.48 10.714-2.239 1.958-6.716.8-9.674-2.759-2.999-3.997-3.758-8.754-1.52-10.713 2.24-2.399 6.717-.8 9.715 2.758zm-10.073-22.107c1.879-4.397 5.596-7.195 8.595-5.996 2.638 1.6 3.358 6.396 1.519 10.754-1.88 4.397-5.637 7.155-8.595 5.996-2.639-1.2-3.398-5.996-1.52-10.753zm17.909 63.362c.36 4.757-1.48 9.115-4.477 9.514-2.999.36-5.997-3.198-6.756-7.955-.4-5.157 1.479-9.514 4.477-9.914 2.998-.4 5.996 3.198 6.756 8.355z" fill="#d19076" fill-rule="evenodd"/><path d="M216.529 266.059c-1.88 4.337-5.617 7.095-8.235 5.916-2.978-1.18-3.738-5.916-1.86-10.254 1.86-4.737 5.238-7.515 8.216-6.316 2.998 1.18 3.738 5.917 1.879 10.654zm-.02-47.611c.36 5.156-1.86 9.554-4.837 9.554-2.958.38-5.557-3.598-5.937-8.375-.38-5.177 1.86-9.554 4.837-9.554 2.959-.4 5.557 3.597 5.937 8.375zm-2.959-47.851c1.48 4.357.74 9.114-2.218 10.313-2.599 1.18-6.316-1.579-8.155-6.336-1.5-4.757-.74-9.134 2.219-10.314 2.598-1.199 6.296 1.58 8.155 6.337zm-19.308-20.148c1.84 4.757.74 9.514-1.839 10.713-2.958.78-6.656-1.978-8.135-6.356-1.859-4.757-.74-9.514 1.84-10.693 2.957-1.2 6.655 1.579 8.134 6.336z" fill="#eab096" fill-rule="evenodd"/><path d="M309.253 429.14c-3.678 2.798-8.076 2.798-9.914 0-1.48-2.798.36-7.196 4.437-9.994 3.638-2.399 8.075-2.399 9.914.4 1.439 2.798-.36 7.195-4.437 9.594zm-41.815 20.507c-4.477 1.56-8.915 0-9.674-3.198-.76-3.158 2.238-6.755 6.676-7.955 4.477-1.599 8.555 0 9.674 3.198.72 2.759-2.239 6.756-6.676 7.955zm-39.096 5.197c-4.837.36-8.555-1.599-8.915-4.797-.4-3.558 3.358-6.356 7.795-6.756 4.877-.4 8.595 2 8.955 5.197.36 3.158-3.358 5.957-7.835 6.356z" fill="#d19076" fill-rule="evenodd"/><path d="M181.69 440.913c-4.457-1.58-7.436-5.137-6.676-8.295.74-2.759 5.197-4.358 9.654-3.158 4.457 1.579 7.416 5.137 6.676 7.895-.74 3.158-5.197 4.737-9.654 3.558zm-47.172-41.495c-4.457-1.18-7.435-4.737-6.675-7.895.74-3.158 5.196-4.757 9.654-3.158 4.457 1.179 7.415 4.737 6.676 7.895-1.1 3.158-5.197 4.337-9.655 3.158zm-17.808-21.787c-3.339-3.578-4.098-8.335-2.24-10.693 2.24-2 6.697-1.2 10.055 2.358 3.338 3.578 4.077 8.335 1.858 10.314-1.858 2.358-6.316 1.579-9.674-1.979zm-51.65-1.559c-2.238 4.337-5.956 6.696-8.574 5.117-2.978-1.58-3.358-6.316-1.12-10.654 2.24-4.337 6.337-6.716 8.935-5.136 2.618 1.579 2.978 6.316.76 10.673zm-6.296 19.668c.36 4.757-1.479 8.715-4.057 9.115-2.579.38-4.777-3.178-5.517-7.936-.38-4.757 1.48-8.714 4.058-9.114 2.578-.4 5.157 3.178 5.516 7.935zm44.553-82.69c4.458.8 7.776 3.198 7.776 5.997-.36 2.798-4.078 4.797-8.515 4.397-4.457-.4-7.795-3.198-7.795-5.996.38-2.799 4.077-4.797 8.534-4.398zm21.547-1.599c4.438-.8 8.115 1.2 8.495 3.978.36 2.778-2.958 5.556-7.395 5.956-4.438.78-8.135-1.199-8.495-3.977-.38-2.779 2.958-5.557 7.395-5.957z" fill="#eab096" fill-rule="evenodd"/><path clip-path="url(#a)" d="M199.48 13.832s-2.6 97.42 22.985 100.179c9.674 1.2 29.342-53.847 80.192-53.847 50.489 0 145.471 57.405 106.895 214.19-38.617 156.785-191.524 251.407-287.266 108.494-8.195-11.873-13.392-21.387-21.547-23.346-7.795-2.398-49.73-11.873-47.491 94.223 0 0-18.949 22.187-39.736 0 0 0-7.436-124.325 66.8-138.596 26.743-5.517 33.42 6.756 48.65-2.758 15.19-9.515 24.865-17.43 41.934-16.63 17.43.4 41.935-6.716 38.217-54.247-4.077-47.492-1.12-58.565-15.95-73.636-14.831-15.43-41.215-60.563-36.378-152.427l42.694-1.6z" fill="none" stroke="#343434" stroke-width="1.519" stroke-miterlimit="8"/><path d="M156.425 14.511c0-4.677 9.694-8.475 21.627-8.475 11.953 0 21.627 3.798 21.627 8.475 0 4.697-9.674 8.475-21.627 8.475-11.933 0-21.627-3.778-21.627-8.475z" fill="#f9e0d4" fill-rule="evenodd"/><path d="M158.664 14.331c0-4.337 8.894-7.895 20.387-8.295h-.74c-11.852 0-21.886 3.958-21.886 8.295 0 4.717 10.034 8.655 21.887 8.655h.74c-11.494-.38-20.388-3.938-20.388-8.655z" fill="#f9ede8" fill-rule="evenodd"/><path clip-path="url(#a)" d="M156.465 14.551c0-4.677 9.694-8.475 21.627-8.475 11.953 0 21.627 3.798 21.627 8.475 0 4.697-9.674 8.475-21.627 8.475-11.933 0-21.627-3.778-21.627-8.475" fill="none" stroke="#343434" stroke-width="1.519" stroke-miterlimit="8"/><path d="M162.741 14.431c0-3.338 6.896-6.076 15.391-6.076 8.515 0 15.39 2.738 15.39 6.076 0 3.358-6.875 6.077-15.39 6.077-8.495 0-15.39-2.719-15.39-6.077z" fill="#af7a62" fill-rule="evenodd"/><path d="M167.099 14.631c0-3.138 5.936-5.477 12.992-5.876-.74-.4-1.48-.4-2.219-.4-8.535 0-15.61 2.758-15.61 6.276 0 3.138 7.075 5.877 15.61 5.877h2.219c-7.056-.38-12.992-3.119-12.992-5.877z" fill="#8e513a" fill-rule="evenodd"/><path d="M162.741 14.431c0-3.338 6.896-6.076 15.391-6.076 8.515 0 15.39 2.738 15.39 6.076 0 3.358-6.875 6.077-15.39 6.077-8.495 0-15.39-2.719-15.39-6.077" fill="none" stroke="#343434" stroke-width=".32" stroke-miterlimit="8"/><path d="M251.368 107.295c11.912-3.158 22.666-7.515 34.179-.8 6.316 3.958 10.793 6.317 18.229 6.317 7.395 0 11.113 5.516 16.31 9.874 5.237 4.317 9.674 5.117 15.23 7.075" fill="none" stroke="#3ea52b" stroke-width="1.519" stroke-linecap="round" stroke-miterlimit="8"/><path d="M283.348 105.296c5.917 1.999 8.875 9.514 9.235 15.43.4 3.559 1.119 7.516 3.358 9.915 2.198 2.358 5.516 2.358 7.715 5.117M264.4 104.177c5.956-1.16 16.71-29.023 28.622-26.624 6.676 1.2 10.034 7.955 15.591 11.553 3.318 2.359 6.676 1.16 10.394 1.56 2.238.399 7.035 4.396 7.035 4.396" fill="none" stroke="#3ea52b" stroke-width="1.519" stroke-linecap="round" stroke-miterlimit="8"/><path d="M291.503 77.233c6.356.4 11.553-7.195 17.87-8.794 8.914-1.6 15.99 4.397 24.505 3.997" fill="none" stroke="#3ea52b" stroke-width="1.519" stroke-linecap="round" stroke-miterlimit="8"/><path d="M405.434 148.15c-4.437-10.673-3.677-28.143-15.15-34.459-5.957-3.198-11.873-.4-17.79-1.999-7.795-1.959-10.753-12.272-16.67-16.63-1.839-1.199-6.676-2.398-7.795-3.597" fill="none" stroke="#eab096" stroke-width="1.519" stroke-miterlimit="8"/><path d="M372.814 112.132c-1.839.8-4.077-.4-6.316.4-2.599.4-4.078 1.959-6.676 1.599-5.597-.8-9.674-4.358-13.792-7.955" fill="none" stroke="#eab096" stroke-width="1.519" stroke-miterlimit="8"/><path d="M406.634 146.95c-4.798-10.673-3.718-28.102-15.591-34.418-5.597-2.759-11.913 0-17.87-1.6-7.794-1.958-10.393-12.632-16.709-16.989-1.879-1.2-6.716-1.999-7.476-3.598" fill="none" stroke="#3ea52b" stroke-width="1.519" stroke-linecap="round" stroke-miterlimit="8"/><path d="M373.454 110.933c-1.84.8-4.038 0-5.917.4-2.598.4-4.077 1.958-7.035 1.599-5.197-.8-9.635-4.358-13.352-7.956m56.845 63.642c-1.08-.76-2.199-3.518-3.318-4.717-1.479-1.6-3.358-2.759-4.837-3.558-4.077-2.759-8.914-3.158-13.352-5.517-5.556-2.758-9.274-8.675-12.992-13.032-3.718-4.357-8.155-7.116-12.992-9.074-1.839-.8-5.197-1.2-6.316-2.399m31.101 24.145c-2.958-1.199-5.517-1.199-8.475 0-3.718 1.96-7.036 2.759-11.113 3.558-5.557 1.56-11.074-1.199-17.03-.4" fill="none" stroke="#3ea52b" stroke-width="1.519" stroke-linecap="round" stroke-miterlimit="8"/><path d="M406.154 209.353c-1.48 0-2.559.36-3.318 0-3.718 0-6.276-.8-9.275-3.158-4.077-3.558-4.797-7.915-6.276-13.072-.76-3.518-3.717-9.075-7.435-9.874" fill="none" stroke="#eab096" stroke-width="1.519" stroke-miterlimit="8"/><path d="M399.118 209.433c-2.558-.4-5.157.8-8.155 1.16-5.157 0-9.994-2.759-14.431-5.917-5.197-3.958-8.555-10.274-14.471-13.472-4.798-2.758-11.473-3.957-17.07-4.757" fill="none" stroke="#eab096" stroke-width="1.519" stroke-miterlimit="8"/><path d="M379.13 206.195c-4.037-1.599-9.634.8-13.312 2.399-3.717 1.199-7.435 3.198-11.113 3.597-3.718.4-6.676-1.599-10.034-1.998" fill="none" stroke="#eab096" stroke-width="1.519" stroke-miterlimit="8"/><path d="M412.47 209.713c-.72-1.959-7.396-1.16-9.274-1.16-3.718-.4-6.317-.799-9.275-3.557-4.077-3.558-4.837-7.875-6.316-12.992-.72-3.558-3.718-9.075-7.435-9.874" fill="none" stroke="#3ea52b" stroke-width="1.519" stroke-linecap="round" stroke-miterlimit="8"/><path d="M399.438 208.234c-2.559-.4-5.157.8-8.115 1.16-5.197 0-10.034-2.76-14.471-5.917-5.157-3.958-8.875-10.274-14.432-13.472-5.197-2.758-11.473-3.558-17.43-4.757" fill="none" stroke="#3ea52b" stroke-width="1.519" stroke-linecap="round" stroke-miterlimit="8"/><path d="M379.45 204.996c-4.038-1.6-9.634 1.199-13.312 2.398-3.718 1.2-7.435 3.198-11.113 3.598-3.718.4-6.676-1.599-10.034-1.999m70.837 5.597c-.72 1.999-1.839 4.357-2.598 6.356-1.08 4.357-1.48 8.315-2.599 12.672-2.958 9.874-8.874 18.19-10.394 28.463-1.838 11.073-4.437 20.588-11.113 29.662-3.358 5.157-4.837 9.514-7.076 15.43-1.119 2.8-2.198 5.557-3.717 8.316-1.48 2.398-3.678 4.357-5.197 6.716" fill="none" stroke="#3ea52b" stroke-width="1.519" stroke-linecap="round" stroke-miterlimit="8"/><path d="M402.916 251.687c-1.12 5.957-2.239 9.515-.76 15.87 1.12 5.158 1.12 11.114 1.12 16.63 0 3.599-.72 7.156-1.48 10.714-.36 3.958-1.119 9.115-2.998 12.273m11.194-72.756c-1.08 3.158-3.318 4.757-5.917 6.716-2.998 2.398-5.197 5.517-7.435 8.675-2.599 3.957-7.076 6.716-11.913 7.515-2.599.4-5.197 0-7.436 1.2-3.318 1.558-5.556 3.917-7.435 6.675" fill="none" stroke="#3ea52b" stroke-width="1.519" stroke-linecap="round" stroke-miterlimit="8"/><path d="M398.798 246.69c-1.839 3.558-7.075 2.399-9.674.8-2.638-1.56-4.877-3.558-7.475-4.357-2.599-1.2-3.718 0-6.356.4" fill="none" stroke="#3ea52b" stroke-width="1.519" stroke-linecap="round" stroke-miterlimit="8"/><path d="M346.07 275.913c0 7.155 2.599 12.312 4.837 18.628 2.959 7.116 2.599 16.23 1.12 23.346-1.12 7.916-3.718 14.671-4.078 22.187-.4 7.116-.76 13.072-2.998 20.188-4.797 14.67-18.549 23.745-25.625 36.817-2.958 5.557-4.077 11.513-5.956 17.43-.72 3.158-1.839 9.114-3.718 11.073" fill="none" stroke="#eab096" stroke-width="1.519" stroke-miterlimit="8"/><path d="M333.478 378.49c1.839-5.916.76-10.673-2.199-15.83-4.437-6.756-5.916-16.27-4.437-24.185 1.12-4.757 2.598-8.715 2.239-13.472 0-4.357-2.959-7.915-4.078-11.873-2.958-8.355-.36-20.228 3.318-27.783" fill="none" stroke="#eab096" stroke-width="1.519" stroke-miterlimit="8"/><path d="M324.204 310.692c-.36 0-1.48-2.359-2.599-3.158-1.479-1.56-3.358-1.96-5.197-2.759-6.716-2.358-12.312-7.915-14.191-15.43" fill="none" stroke="#eab096" stroke-width="1.519" stroke-miterlimit="8"/><path d="M344.591 275.513c0 7.156 2.599 12.273 5.197 18.629 2.558 7.115 2.199 16.23.72 23.346-1.12 7.515-3.718 14.63-4.078 22.146-.36 7.116-.76 13.072-2.958 19.788-4.837 15.031-18.549 23.746-25.585 37.218-2.998 5.516-4.077 11.473-5.956 17.39-.72 3.157-1.839 9.114-3.718 11.072" fill="none" stroke="#3ea52b" stroke-width="1.519" stroke-linecap="round" stroke-miterlimit="8"/><path d="M332.039 378.01c1.839-6.315 1.12-10.673-2.239-15.79-4.437-6.755-5.916-16.23-4.437-24.145 1.12-4.757 2.598-8.715 2.238-13.472 0-4.357-2.598-7.915-4.077-11.873-2.998-8.674-.4-20.147 3.318-27.703" fill="none" stroke="#3ea52b" stroke-width="1.519" stroke-linecap="round" stroke-miterlimit="8"/><path d="M322.684 310.372c-.36 0-1.479-2.359-2.558-3.158-1.48-1.56-3.358-1.959-5.197-2.759-6.636-2.358-12.192-7.915-14.071-15.43m5.516 137.756c-7.795 0-12.232 4.358-18.948 8.315-2.599 1.56-5.557 1.56-8.155 3.518-2.599 1.999-4.078 3.958-6.716 5.517m-10.634 1.679c-3.358 3.478-10.074.8-14.191 1.559-4.837 1.16-9.314 5.397-14.192 2.718m-11.433.84c-2.578-1.58-5.556-2.779-8.534-3.558-2.959-.8-5.557-.4-8.535-1.2-2.958-1.179-5.177-3.177-8.535-3.957-2.958-.8-5.557-1.599-8.535-2.798m79.392 2.718c2.598-1.16 4.117-9.074 5.197-11.873 1.879-5.516 5.556-9.474 8.914-13.831 4.078-4.358 8.155-9.115 10.394-15.031 2.199-5.157 4.078-10.314 6.676-15.071 2.598-4.318 5.916-7.915 8.875-11.873 2.598-4.317 4.837-9.474 6.676-14.231 2.998-7.916 5.556-16.63 4.837-24.945 0-1.56 0-4.358-1.48-4.757" fill="none" stroke="#3ea52b" stroke-width="1.519" stroke-linecap="round" stroke-miterlimit="8"/><path d="M306.774 374.493c2.239-3.558 0-9.874-1.839-13.032-2.998-4.717-4.877-8.675-4.877-14.631m-13.352 63.321c2.199-4.357 2.958-10.273 3.318-15.03.36-5.957-1.839-11.513-1.839-17.47-.36-5.157.72-9.514-.76-14.271-1.079-3.158-4.077-5.917-3.677-9.514" fill="none" stroke="#3ea52b" stroke-width="1.519" stroke-linecap="round" stroke-miterlimit="8"/><path d="M233.219 443.251c.76-1.159 1.879-2.358 2.598-3.957 2.998-5.917 2.638-13.032 4.837-19.388 5.197-15.031 21.907-20.948 30.462-33.22 3.358-4.358 5.556-10.314 5.956-16.23.36-4.758 2.199-8.715 2.199-13.472.4-4.717-1.12-9.075 0-13.432.4-1.999 4.077-10.314 3.358-10.714" fill="none" stroke="#eab096" stroke-width="1.519" stroke-miterlimit="8"/><path d="M251.488 404.155c3.358-1.16 4.077-9.474 4.077-12.233.36-7.915-4.437-14.63-6.636-21.746-2.998-9.115.72-17.03 1.48-26.105.359-4.357-.4-9.914-.4-13.871" fill="none" stroke="#eab096" stroke-width="1.519" stroke-miterlimit="8"/><path d="M250.728 374.493c-2.958-4.717-6.676-5.916-10.793-9.074-6.317-5.157-6.716-15.031-6.716-22.587" fill="none" stroke="#eab096" stroke-width="1.519" stroke-miterlimit="8"/><path d="M228.102 448.128c.76-3.158 4.837-6.316 6.316-9.474 3.358-6.356 2.598-13.072 4.837-19.828 5.197-14.67 21.907-20.587 30.422-32.9 3.358-4.757 5.556-10.673 5.956-16.23.36-4.757 2.199-8.715 2.199-13.472.4-4.757-.72-9.114 0-13.472.4-1.999 4.077-10.313 3.717-11.113" fill="none" stroke="#3ea52b" stroke-width="1.519" stroke-linecap="round" stroke-miterlimit="8"/><path d="M250.368 402.956c2.958-1.16 3.678-9.075 4.038-12.273 0-7.915-4.438-14.63-6.996-21.747-2.998-9.114 1.08-16.63 1.48-25.744.359-4.357 0-10.274 0-13.872" fill="none" stroke="#3ea52b" stroke-width="1.519" stroke-linecap="round" stroke-miterlimit="8"/><path d="M249.209 373.614c-2.598-4.718-6.676-5.917-10.793-9.075-6.317-5.117-6.716-14.99-6.716-22.506m-49.25 90.685c6.675.38 13.731-7.536 17.429-12.673 2.958-3.557 3.338-7.115 4.817-11.872 1.859-5.537 5.197-9.894 7.795-14.651 1.84-3.558 2.958-8.315 2.579-12.653-.36-5.556-4.078-10.693-2.959-16.63 1.12-5.536 4.458-9.894 6.676-15.03 1.12-3.578 2.959-8.715 4.438-11.893m-10.834 24.544c.36-5.156-3.658-6.755-5.117-10.713-2.198-5.177 0-11.933 2.559-16.31" fill="none" stroke="#3ea52b" stroke-width="1.519" stroke-linecap="round" stroke-miterlimit="8"/><path d="M204.276 410.95c3.358-8.314 12.633-7.515 18.949-11.512 4.477-2.758 6.716-7.516 7.835-12.672.72-3.598.72-8.355 3.678-10.754m-41.215 51.409c.74-3.158 2.598-6.716 1.119-10.274-1.48-3.957-5.956-6.736-8.175-10.294-3.358-5.936-1.5-13.851-2.598-20.187-.76-5.137-2.619-8.695-1.86-13.852m-51.928 22.626c-1.12 2.779 1.859 9.894 2.978 12.273 1.86 3.558 4.078 5.936 7.416 7.915 5.197 2.379 10.394 2.379 15.97 3.178 4.457.38 8.535 2.759 11.873 6.316 1.5 1.6 2.978 3.558 4.837 5.157 1.12 1.18 4.457 3.958 4.817 4.338m-46.532-46.292c-1.839-1.58-3.697-2.759-5.916-4.757-1.839-1.98-4.797-3.159-5.916-5.557" fill="none" stroke="#3ea52b" stroke-width="1.519" stroke-linecap="round" stroke-miterlimit="8"/><path d="M120.807 370.495c0-.38 1.12-5.916.76-7.515 0-2.758-.76-5.537-.76-8.295 0-2.778.76-5.936 1.499-8.715 1.479-3.158 3.338-4.737 5.197-7.115 4.457-5.937 3.717-15.031 9.674-19.788 5.197-4.738 17.849-3.158 20.807-9.894" fill="none" stroke="#eab096" stroke-width="1.519" stroke-miterlimit="8"/><path d="M122.586 345.47c0-1.958.7-3.937.36-5.896 0-2.378-1.06-3.937-1.42-6.316-.72-2.758-.72-5.916-.36-8.675 0-2.358 1.42-5.117 1.06-7.095m-.66 41.494c-.76-3.138 2.959-7.455 5.177-9.434 3.718-3.538 8.535-3.538 13.352-4.717 2.958-.4 5.557-1.18 8.155-2.758 2.219-1.58 3.718-3.938 5.937-5.497 4.817-2.379 7.775 1.56 12.592 1.18" fill="none" stroke="#eab096" stroke-width="1.519" stroke-miterlimit="8"/><path d="M119.608 370.495c0-.38.76-5.916.76-7.515 0-2.758-.76-5.537-.76-8.295 0-2.778.76-5.936 1.499-8.715 1.119-3.158 3.338-4.737 5.196-7.115 4.458-5.937 3.718-15.031 9.295-19.788 5.576-4.738 18.229-3.158 21.187-9.894" fill="none" stroke="#3ea52b" stroke-width="1.519" stroke-linecap="round" stroke-miterlimit="8"/><path d="M121.566 345.47c0-1.958.76-3.937.38-5.896 0-2.378-1.16-4.337-1.559-6.316-.78-2.758-.78-5.916-.38-8.675 0-2.358 1.56-5.117 1.16-7.095m-.8 41.494c-.76-3.138 2.958-7.455 4.817-9.434 4.078-3.538 8.895-3.538 13.712-4.717 2.958-.4 5.556-1.18 8.155-2.758 2.219-1.58 3.718-3.938 5.936-5.497 4.817-2.379 7.776 1.56 12.593 1.18m43.813-73.356c0 3.178-.74 6.756-.74 10.314-.36 3.178.38 6.755 0 9.933-.36 2.759-2.218 5.157-2.958 7.536-1.119 2.778-1.119 5.936-2.238 8.715-2.219 5.956-10.014 6.756-14.092 10.713-2.218 2.379-2.598 6.356-4.817 9.115-1.499 1.599-7.056 5.156-9.294 3.977" fill="none" stroke="#3ea52b" stroke-width="1.519" stroke-linecap="round" stroke-miterlimit="8"/><path d="M206.915 289.025c-1.46 1.999 0 6.356 1.479 8.735 1.839 3.178 2.938 5.936 1.839 9.914-1.48 3.557-4.418 5.936-4.778 9.914-.38 3.957 3.298 9.514 6.976 10.293" fill="none" stroke="#3ea52b" stroke-width="1.519" stroke-linecap="round" stroke-miterlimit="8"/><path d="M205.715 315.889c-.74 3.178-2.578 6.336-3.697 9.494-1.12 5.137-1.12 9.494-.38 14.231.76 4.358-1.84 7.516-2.958 11.073-.74 2.759-1.12 4.738-.36 7.116.74 2.758 2.958 5.537 2.958 7.496" fill="none" stroke="#3ea52b" stroke-width="1.519" stroke-linecap="round" stroke-miterlimit="8"/><path d="M101.778 316.688s-2.958 7.935-4.437 9.514c-2.239 2.779-4.098 4.358-7.435 5.937-2.22.8-5.197 1.978-6.676 3.578-2.24 1.978-2.599 4.757-4.458 6.735-3.717 3.558-9.654 1.58-11.153 7.916-1.1 3.178-1.1 6.736-1.839 9.894-.76 3.178-1.859 5.956-2.618 8.714" fill="none" stroke="#eab096" stroke-width="1.519" stroke-miterlimit="8"/><path d="M83.31 335.237c-1.84-.4-5.197 2.778-7.416 2.778-2.978 0-4.817-2.378-7.435-3.578-4.078-1.599-7.796 1.2-10.014 4.777-2.22 3.178-2.979 3.178-6.317 4.358-2.218.4-4.817 1.999-6.316 3.578" fill="none" stroke="#eab096" stroke-width="1.519" stroke-miterlimit="8"/><path d="M101.139 315.889s-2.959 7.935-4.438 9.514c-2.238 2.778-4.457 4.357-7.435 5.556-2.219 1.18-5.197 1.98-7.056 3.958-1.859 1.58-2.218 4.757-4.077 6.736-3.718 3.558-9.655 1.18-11.513 7.515-.74 3.578-.74 6.736-1.48 10.294-.759 2.778-1.858 5.557-2.618 8.715" fill="none" stroke="#3ea52b" stroke-width="1.519" stroke-linecap="round" stroke-miterlimit="8"/><path d="M82.51 334.557c-1.839-.38-5.197 2.759-7.416 2.759-2.978-.4-4.817-2.759-7.435-3.538-4.078-1.58-7.795 1.179-10.014 4.717-2.219 3.138-2.978 3.138-6.316 3.937-2.219.78-4.817 2.359-6.316 3.918m61.003-27.983c.38 3.958 3.278 7.116 3.638 11.453.36 3.938-1.82 7.096-2.539 10.654-1.1 7.095 1.819 13.412.36 20.507-.36 0-.36-.38-.36-.78" fill="none" stroke="#3ea52b" stroke-width="1.519" stroke-linecap="round" stroke-miterlimit="8"/><path d="M109.614 330.2c-.74 3.158-3.718 5.137-5.957 7.116-1.499 1.579-2.998 3.537-4.117 5.516-.74 1.979-1.12 4.338-2.239 5.517m-39.256 24.945c-3.298 3.578-5.517 5.556-3.298 10.713.74 1.98.74 1.58.74 3.958-.38 1.599-1.12 2.778.36 4.357" fill="none" stroke="#3ea52b" stroke-width="1.519" stroke-linecap="round" stroke-miterlimit="8"/><path d="M54.047 396.96c0 9.913-10.034 15.45-13.012 23.765-1.859 5.137-.74 9.894-.36 15.03.36 5.937-.38 12.273 1.12 17.81" fill="none" stroke="#eab096" stroke-width="1.519" stroke-miterlimit="8"/><path d="M41.015 421.584c-2.598 5.937-6.696 9.894-10.414 15.431-3.737 5.517-2.618 12.632-3.737 18.949" fill="none" stroke="#eab096" stroke-width="1.519" stroke-miterlimit="8"/><path d="M55.007 398.319c0 9.474-9.974 15.41-12.932 23.685-1.86 5.137-.38 9.874-.38 15.011.38 5.917-.36 12.233 1.479 17.75" fill="none" stroke="#3ea52b" stroke-width="1.519" stroke-linecap="round" stroke-miterlimit="8"/><path d="M42.055 422.784c-2.559 5.936-6.616 9.894-10.294 15.03-3.698 5.517-2.219 13.033-3.698 18.95" fill="none" stroke="#3ea52b" stroke-width="1.519" stroke-linecap="round" stroke-miterlimit="8"/><path d="M224.744 116.83c-8.515-.4-17.05 1.178-24.485-4.358-5.937-4.358-6.297-13.872-7.416-20.608-.36-3.957-2.219-7.935-3.698-11.493-1.859-5.956-1.119-11.493-.76-17.05.76-5.536 0-11.093-2.578-15.85-2.238-4.757-3.358-7.135-3.358-12.292" fill="none" stroke="#eab096" stroke-width="1.519" stroke-miterlimit="8"/><path d="M200.598 112.012c-6.316-5.916-.74-12.632-1.099-19.748 0-3.958-1.499-5.936-2.598-9.494-1.12-4.737 0-9.095 1.479-13.452m-9.295 9.514c-2.598-2.778-6.296-4.357-8.155-7.935-3.358-5.956.36-12.712 0-19.088" fill="none" stroke="#eab096" stroke-width="1.519" stroke-miterlimit="8"/><path d="M225.383 115.55c-8.534 0-16.71 1.579-24.125-3.958-5.956-4.737-6.316-13.831-7.435-20.947-.74-3.958-2.599-7.915-3.718-11.473-2.239-5.537-1.48-11.093-.74-17.01.74-5.157-.38-10.693-2.598-15.43-2.599-4.757-3.358-7.116-3.358-12.673" fill="none" stroke="#3ea52b" stroke-width="1.519" stroke-linecap="round" stroke-miterlimit="8"/><path d="M201.238 110.813c-5.836-5.917-.72-12.633-.72-19.748-.36-3.558-1.818-5.937-2.918-9.494-1.1-4.338.36-8.695 1.46-13.053m-9.335 9.115c-2.578-2.778-5.896-4.357-7.735-7.535-3.698-5.957.36-12.713 0-19.089" fill="none" stroke="#3ea52b" stroke-width="1.519" stroke-linecap="round" stroke-miterlimit="8"/><path d="M185.727 147.27c-5.536-3.157-9.234-10.673-8.874-17.409.38-4.757 1.479-8.714 1.12-13.472 0-4.737-1.86-9.894-3.719-14.25-2.218-6.337-4.057-10.295-2.958-17.01.74-5.937 1.86-11.094.74-17.03-1.48-6.736-4.438-12.673-6.656-19.009-2.599-6.736-2.599-10.294-1.48-17.03" fill="none" stroke="#eab096" stroke-width="1.519" stroke-miterlimit="8"/><path d="M178.012 113.291c-1.879-4.757 1.879-8.734 3.378-12.712.74-2.778.38-6.356 0-9.154-.38-2.379-1.879-5.157-.76-7.956m-4.177 48.851c-1.1-4.757-2.219-7.935-5.197-11.913-2.238-3.558-2.598-7.935-4.477-11.913" fill="none" stroke="#eab096" stroke-width="1.519" stroke-miterlimit="8"/><path d="M187.247 148.15c-5.917-3.158-9.615-11.073-8.875-17.809.38-4.357 1.12-8.715 1.12-13.072 0-5.137-1.86-10.294-3.719-14.631-2.578-6.336-4.057-10.294-3.318-17.03 1.1-5.936 2.22-10.693.74-16.63-1.12-6.736-4.077-13.072-6.656-19.408-2.239-6.336-2.239-10.294-1.479-17.03" fill="none" stroke="#3ea52b" stroke-width="1.519" stroke-linecap="round" stroke-miterlimit="8"/><path d="M179.051 114.01c-1.479-5.116 2.2-8.674 3.318-13.011.72-2.359.72-5.917.36-8.675-.36-2.758-2.198-5.517-.74-8.295m-4.417 48.931c-.72-4.718-2.198-7.876-4.797-11.833-2.578-3.538-2.938-8.275-4.797-11.833m60.124 14.151c-1.84 5.597-8.155 5.997-10.754 10.354-2.598 4.757.76 12.712 1.88 17.47" fill="none" stroke="#3ea52b" stroke-width="1.519" stroke-linecap="round" stroke-miterlimit="8"/><path d="M224.744 120.007c-1.88 3.158-6.017 5.537-7.136 9.075-.76 2.378-1.899 6.316-1.14 8.675m-23.385 19.028c3.018 3.958 4.877 5.137 9.374 6.716 2.998 1.18 6.756 2.378 7.496 5.916m5.437-12.312c-3.279 1.979-2.899 7.095-2.899 10.633" fill="none" stroke="#3ea52b" stroke-width="1.519" stroke-linecap="round" stroke-miterlimit="8"/><path d="M211.772 178.132c2.198 5.157 4.777 12.293 5.137 18.249.74 5.137.38 10.294 1.119 15.05.36 3.179.72 5.957-.74 9.115-1.479 3.578-2.578 4.358-5.896 3.178" fill="none" stroke="#eab096" stroke-width="1.519" stroke-miterlimit="8"/><path d="M216.909 197.96c2.638 4.357 4.837 7.156 8.954 9.914 3.718 1.959 6.676 3.158 8.915 7.116 5.596 8.315 9.674 16.59 10.433 26.903.36 4.718-1.479 8.675-1.878 13.032-.36 4.358-.36 8.315.76 12.673 1.478 5.117 1.838 9.074.759 14.63-1.52 6.717-.76 13.433.36 20.149" fill="none" stroke="#eab096" stroke-width="1.519" stroke-miterlimit="8"/><path d="M240.254 224.904c2.599 1.998 4.118 5.157 6.716 7.515 2.559 2.798 6.277 4.757 8.515 7.915 5.917 7.916 6.316 19.389 7.436 28.463 1.079 9.514 8.155 14.631 11.872 22.546 2.959 6.317 4.438 13.033 7.756 19.349" fill="none" stroke="#eab096" stroke-width="1.519" stroke-miterlimit="8"/><path d="M261.042 252.247c2.998 4.757 8.155 9.914 14.111 9.514 8.875-.4 12.233 5.117 18.509 10.634" fill="none" stroke="#eab096" stroke-width="1.519" stroke-miterlimit="8"/><path d="M210.652 178.612c2.179 5.536 4.717 12.252 5.457 18.569.36 4.737 0 9.874.72 14.63.36 3.538.72 5.917-.72 9.075-1.46 3.958-2.558 4.338-5.836 3.158" fill="none" stroke="#3ea52b" stroke-width="1.519" stroke-linecap="round" stroke-miterlimit="8"/><path d="M215.71 198.76c2.638 3.957 5.236 7.155 9.314 9.514 3.358 2.358 6.316 3.558 8.554 7.115 5.597 8.715 9.675 16.63 10.434 26.904.36 4.757-1.12 8.675-1.879 13.432-.36 4.357-.36 7.915.76 12.273 1.479 5.516 1.839 9.074.76 14.63-1.52 7.116-.76 13.433.36 20.548" fill="none" stroke="#3ea52b" stroke-width="1.519" stroke-linecap="round" stroke-miterlimit="8"/><path d="M239.215 225.224c2.598 2.398 4.118 5.156 6.716 7.555 2.558 2.758 6.276 4.757 8.875 7.915 5.956 7.915 5.956 19.388 7.075 28.903 1.08 9.114 8.155 14.67 11.873 22.586 2.958 5.956 4.437 13.072 7.755 18.988" fill="none" stroke="#3ea52b" stroke-width="1.519" stroke-linecap="round" stroke-miterlimit="8"/><path d="M259.922 252.567c2.999 4.757 8.195 9.914 14.192 9.514 9.314-.4 12.272 5.117 18.589 10.634m-71.717-115.93-.4.4c3.718 2.798 6.716 2.798 8.915 7.915 2.598 6.756 5.237 12.672 10.434 17.83 4.077 4.317 9.274 9.873 11.113 15.79 1.879 5.956 0 12.672 2.238 18.628 2.599 6.716 6.676 9.475 12.633 13.432 6.316 3.558 10.753 7.915 16.35 13.072 3.718 3.958 7.795 8.275 11.873 12.233 4.077 3.158 6.316 6.356 9.274 10.713 1.12 1.56 2.599 3.158 4.078 3.918" fill="none" stroke="#3ea52b" stroke-width="1.519" stroke-linecap="round" stroke-miterlimit="8"/><path d="M246.57 189.565c2.999 2.399 5.957 3.198 9.315 4.757 4.077 1.999 7.435 4.757 10.034 8.315 4.077 6.356 8.155 12.673 15.23 14.272 4.078 1.159 7.796 1.958 11.154 4.317 4.077 2.398 7.435 6.756 11.513 9.114 4.477 3.158 9.274 6.357 13.392 9.515 5.197 4.357 9.274 9.474 14.83 13.032" fill="none" stroke="#3ea52b" stroke-width="1.519" stroke-linecap="round" stroke-miterlimit="8"/><path d="M287.346 218.508c3.758-1.2 7.835 0 11.193-1.2 4.837-1.599 9.274-2.398 14.112-1.199 5.196 1.6 9.674 4.757 14.51 6.356 5.957 2.399 11.913 3.958 17.83 3.958 0-.36-.36-.36-.36-.76M231.06 167.938c1.879 2.319 2.998 3.838 5.956 4.238 3.318.4 6.636.76 9.994-.4 2.959-.76 5.557-3.838 8.875-4.637 3.718-1.16 7.795 2.318 11.473 3.877" fill="none" stroke="#3ea52b" stroke-width="1.519" stroke-linecap="round" stroke-miterlimit="8"/><path d="M230.58 120.007c1.12 4.358 2.239 8.715 5.597 11.913 2.598 2.758 6.676 3.958 10.034 4.757 8.914 2.359 13.032 7.915 17.11 16.23 1.479 3.158 4.077 7.116 7.075 9.115 4.078 2.358 8.555 2.358 12.273 5.117 4.477 3.598 6.676 8.714 8.914 13.871 1.12 3.158 2.599 6.356 4.478 8.715 2.238 3.158 5.556 4.357 8.155 6.716" fill="none" stroke="#eab096" stroke-width="1.519" stroke-miterlimit="8"/><path d="M249.209 137.037c5.956-.4 9.674 1.2 15.23 5.157 6.317 4.357 10.035 9.874 17.83 10.274 8.515.4 13.352 4.717 20.028 9.474 4.077 3.158 8.515 5.157 13.711 6.316 3.718 1.2 8.196.8 11.873 2.359 0-.36-.36-.36-.36-.76" fill="none" stroke="#eab096" stroke-width="1.519" stroke-miterlimit="8"/><path d="M294.062 156.465c1.12-.4 2.598 0 3.718 0 3.357 0 5.956-.8 8.914-2.798 3.718-2.838 7.795-8.075 12.952-7.636" fill="none" stroke="#eab096" stroke-width="1.519" stroke-miterlimit="8"/><path d="M231.38 118.808c1.519 4.357 2.598 8.715 5.596 11.873 2.959 2.758 6.676 3.957 9.994 4.757 8.915 2.358 12.992 7.875 17.07 16.19 1.879 3.158 4.077 7.116 7.076 9.075 4.077 2.398 8.515 2.398 12.232 5.156 4.438 3.558 6.676 8.675 8.915 14.232 1.479 2.758 2.598 5.916 4.437 8.275 2.239 3.158 5.557 4.357 8.155 6.716" fill="none" stroke="#3ea52b" stroke-width="1.519" stroke-linecap="round" stroke-miterlimit="8"/><path d="M249.929 135.758c6.316 0 10.033 1.199 15.23 5.157 6.316 4.357 10.034 9.914 17.83 10.313 8.554.4 13.351 4.757 20.027 9.515 4.478 3.158 8.555 5.116 13.752 6.316 4.078 1.199 8.155.8 12.233 2.358-.36-.36-.72-.36-.72-.76" fill="none" stroke="#3ea52b" stroke-width="1.519" stroke-linecap="round" stroke-miterlimit="8"/><path d="M294.861 155.106c1.12-.36 2.639 0 3.758 0 3.318 0 5.916-.76 8.915-2.718 4.077-2.759 7.795-7.916 12.992-7.516" fill="none" stroke="#3ea52b" stroke-width="1.519" stroke-linecap="round" stroke-miterlimit="8"/><path d="M233.658 117.929c-.76 4.797-3.757 8.354-6.716 7.995-2.998-.4-4.877-4.797-4.117-9.555.36-5.196 3.358-8.794 6.356-8.394 2.958.4 5.197 4.797 4.477 9.954z" fill="#3ea52b" fill-rule="evenodd"/><path d="M233.658 117.929c-.76 4.797-3.757 8.354-6.716 7.995-2.998-.4-4.877-4.797-4.117-9.555.36-5.196 3.358-8.794 6.356-8.394 2.958.4 5.197 4.797 4.477 9.954" fill="none" stroke="#343434" stroke-width=".64" stroke-miterlimit="8"/><path d="M225.024 124.245s2.238 1.998 4.477.4c2.199-1.96 3.318-5.917 3.678-9.075 0 0-1.48 11.033-8.155 8.675z" fill="#179a2e" fill-rule="evenodd"/><path d="M229.44 114.35c-1.098 1.96-3.317 2.739-4.416 1.96-1.12-.78-1.12-3.139 0-5.097 1.099-1.96 2.938-2.759 4.417-1.96 1.1 1.18 1.1 3.139 0 5.098z" fill="#58ab2c" fill-rule="evenodd"/><path d="M231.02 111.253c0 1.199-1.12 1.998-1.859 1.599-.74 0-1.499-.8-1.499-2 .38-.799 1.12-1.598 1.879-1.598 1.12.4 1.479 1.2 1.479 1.999zm-4.197 1.159c0 .84-.36.84-.74.84-.36 0-.74-.42-.74-.84 0-.84.38-.84 1.12-.84.36 0 .72.42.36.84z" fill="#8cbf61" fill-rule="evenodd"/><path d="M226.863 111.612c0 .36-.32.36-.32.36-.32 0-.32-.36-.32-.36 0-.36 0-.36.32-.36s.32.36.32.36z" fill="#fff" fill-rule="evenodd"/><path d="M224.284 156.405c-2.598 4.358-6.696 6.336-9.294 4.358-2.599-1.58-2.599-6.337 0-10.694 2.598-3.958 6.696-5.956 9.294-4.357 2.579 1.978 2.579 6.736 0 10.693z" fill="#3ea52b" fill-rule="evenodd"/><path d="M224.284 156.405c-2.598 4.358-6.696 6.336-9.294 4.358-2.599-1.58-2.599-6.337 0-10.694 2.598-3.958 6.696-5.956 9.294-4.357 2.579 1.978 2.579 6.736 0 10.693" fill="none" stroke="#343434" stroke-width=".64" stroke-miterlimit="8"/><path d="M214.23 158.324s.76 3.118 3.758 2.339c2.978-.38 5.596-3.498 6.716-6.237 0 0-5.597 8.955-10.474 3.898z" fill="#179a2e" fill-rule="evenodd"/><path d="M222.125 151.548c-1.858 1.2-4.077 1.2-4.817-.4-.76-1.199 0-3.198 1.84-4.397 1.858-1.2 4.077-1.2 4.816 0 .74 1.6 0 3.598-1.839 4.797z" fill="#58ab2c" fill-rule="evenodd"/><path d="M224.664 149.63c-.74.799-1.48.799-2.199.4-.74-.4-1.12-1.6-.74-2.4.74-.799 1.46-1.199 2.2-.4 1.099.4 1.099 1.6.739 2.4zm-4.018-.8c-.38.4-.78.4-1.159 0-.38 0-.78-.8-.38-1.2.38-.4.76-.4 1.16 0 .38 0 .759.8.38 1.2z" fill="#8cbf61" fill-rule="evenodd"/><path d="M220.666 148.11h-.38c-.38 0-.38-.44-.38-.88h.76c.36 0 .36.44 0 .88z" fill="#fff" fill-rule="evenodd"/><path d="M215.45 169.837c1.099 4.737-.38 9.474-3.359 10.274-2.978.78-6.336-2.758-7.455-7.496-1.12-4.737.38-9.094 3.358-9.874 2.978-.8 6.336 2.359 7.455 7.096z" fill="#3ea52b" fill-rule="evenodd"/><path d="M215.45 169.837c1.099 4.737-.38 9.474-3.359 10.274-2.978.78-6.336-2.758-7.455-7.496-1.12-4.737.38-9.094 3.358-9.874 2.978-.8 6.336 2.359 7.455 7.096" fill="none" stroke="#343434" stroke-width=".64" stroke-miterlimit="8"/><path d="M209.913 179.391s2.578 1.18 4.037-1.599c1.46-2.778 1.1-6.736.36-9.534 0 0 2.559 10.734-4.397 11.133z" fill="#179a2e" fill-rule="evenodd"/><path d="M210.133 168.238c-.36 2.419-1.86 4.018-3.338 3.618-1.48-.4-2.239-2.419-1.86-4.837.74-2.019 2.24-3.638 3.719-3.638 1.119.42 2.218 2.838 1.479 4.857z" fill="#58ab2c" fill-rule="evenodd"/><path d="M210.512 164.98c.36.8 0 1.599-1.099 1.999-.74.4-1.839-.4-1.839-1.2-.38-1.199.36-1.998 1.1-2.398.74 0 1.838.4 1.838 1.599zm-2.998 2.399c0 .4-.36 1.199-.72 1.199-.38 0-1.119-.4-1.119-.8s.38-.8.74-1.199c.38 0 .74.4 1.1.8z" fill="#8cbf61" fill-rule="evenodd"/><path d="M206.875 166.639c0 .38 0 .74-.4.74l-.4-.36c0-.38 0-.38.4-.76l.4.38z" fill="#fff" fill-rule="evenodd"/><path d="M195.342 148.83c1.858 4.337 1.499 9.074-1.12 10.653-2.618 1.58-6.736-.78-8.974-5.516-1.88-4.338-1.5-9.075 1.12-10.274 2.617-1.58 6.735.8 8.974 5.137z" fill="#3ea52b" fill-rule="evenodd"/><path d="M195.342 148.83c1.858 4.337 1.499 9.074-1.12 10.653-2.618 1.58-6.736-.78-8.974-5.516-1.88-4.338-1.5-9.075 1.12-10.274 2.617-1.58 6.735.8 8.974 5.137" fill="none" stroke="#343434" stroke-width=".64" stroke-miterlimit="8"/><path d="M191.524 159.164s3.038.38 4.177-2.399c.76-2.778-.38-6.736-1.898-9.534 0 0 4.917 9.934-2.28 11.933z" fill="#179a2e" fill-rule="evenodd"/><path d="M190.245 148.41c0 2.359-1.12 4.337-2.639 4.337-1.519 0-2.658-1.978-3.038-3.957 0-2.359 1.14-4.358 2.659-4.358s3.018 1.6 3.018 3.978z" fill="#58ab2c" fill-rule="evenodd"/><path d="M189.865 145.312c.38.8 0 1.599-.76 2.398-.78.4-1.918 0-2.298-.799-.4-1.2-.4-1.999.76-2.399.759-.8 1.918-.4 2.298.8zm-2.658 3.098c0 .42 0 .86-.36 1.28-.36.419-1.1 0-1.1-.42-.38-.44-.38-.86.36-1.28.38-.44.74 0 1.1.42z" fill="#8cbf61" fill-rule="evenodd"/><path d="M186.407 147.99s0 .44-.36.44h-.36v-.88c.36 0 .72 0 .72.44z" fill="#fff" fill-rule="evenodd"/><path d="M213.87 218.048c.36 5.177-1.479 9.554-4.437 9.954-2.958.38-5.916-3.198-6.656-7.975-.38-5.177 1.48-9.555 4.437-9.954 2.959-.4 5.917 3.198 6.656 7.975z" fill="#3ea52b" fill-rule="evenodd"/><path d="M213.87 218.048c.36 5.177-1.479 9.554-4.437 9.954-2.958.38-5.916-3.198-6.656-7.975-.38-5.177 1.48-9.555 4.437-9.954 2.959-.4 5.917 3.198 6.656 7.975" fill="none" stroke="#343434" stroke-width=".64" stroke-miterlimit="8"/><path d="M207.194 226.823s2.599 1.559 4.458-.8c1.839-2.359 1.839-6.696 1.1-9.474 0 0 1.478 10.653-5.558 10.274z" fill="#179a2e" fill-rule="evenodd"/><path d="M208.993 216.07c-.72 2.398-2.518 3.597-3.617 3.197-1.44-.4-2.18-2.798-1.44-4.797.72-2.399 2.16-3.598 3.618-3.198 1.44.4 1.8 2.798 1.44 4.797z" fill="#58ab2c" fill-rule="evenodd"/><path d="M209.913 212.871c0 .8-.76 1.599-1.52 1.999-1.159 0-1.918-.8-1.918-1.6-.4-1.199.38-1.998 1.519-1.998.78-.4 1.539.4 1.919 1.599zm-3.838 2.099c0 .38 0 1.1-.76 1.1-.38 0-.759-.36-.759-.72 0-.38 0-.74.76-1.12.38 0 .76.38.76.74z" fill="#8cbf61" fill-rule="evenodd"/><path d="M205.675 214.07c0 .4 0 .8-.32.8s-.32-.4-.32-.4c0-.4 0-.8.32-.8l.32.4z" fill="#fff" fill-rule="evenodd"/><path d="M421.744 209.393c.36 5.157-1.479 9.514-4.437 9.914-2.958.36-5.916-3.198-6.276-8.355-.76-4.757 1.12-9.114 4.077-9.514 2.959-.4 5.917 3.198 6.636 7.955z" fill="#3ea52b" fill-rule="evenodd"/><path clip-path="url(#a)" d="M421.744 209.393c.36 5.157-1.479 9.514-4.437 9.914-2.958.36-5.916-3.198-6.276-8.355-.76-4.757 1.12-9.114 4.077-9.514 2.959-.4 5.917 3.198 6.636 7.955" fill="none" stroke="#343434" stroke-width=".64" stroke-miterlimit="8"/><path d="M415.388 218.068s2.239 1.599 4.118-.8c1.879-2.798 1.879-6.796 1.12-9.594 0 0 1.478 10.794-5.238 10.394z" fill="#179a2e" fill-rule="evenodd"/><path d="M416.827 207.354c-.72 2.359-2.198 3.518-3.677 3.158-1.48-.4-2.239-2.758-1.48-4.717.72-2.358 2.2-3.558 3.678-3.158 1.48.4 2.199 2.759 1.48 4.717z" fill="#58ab2c" fill-rule="evenodd"/><path d="M417.547 204.236c0 .8-.72 1.6-1.44 1.999-.719 0-1.838-.8-1.838-1.599 0-1.2.4-1.999 1.479-1.999.72-.4 1.44.4 1.799 1.6zm-3.597 1.919c0 .4 0 1.2-.76 1.2-.36 0-.76-.4-.76-.8s.4-1.2.76-1.2c.4 0 .76.4.76.8z" fill="#8cbf61" fill-rule="evenodd"/><path d="M413.55 205.435c0 .4 0 .4-.32.8l-.32-.4c0-.4 0-.8.32-.8s.32.4.32.4z" fill="#fff" fill-rule="evenodd"/><path d="M412.87 167.778c2.198 3.958 2.198 8.755-.4 10.754-2.598 1.559-6.676-.4-8.915-4.797-2.638-3.958-2.638-8.755 0-10.754 2.599-1.599 6.676.4 9.315 4.797z" fill="#3ea52b" fill-rule="evenodd"/><path d="M412.87 167.778c2.198 3.958 2.198 8.755-.4 10.754-2.598 1.559-6.676-.4-8.915-4.797-2.638-3.958-2.638-8.755 0-10.754 2.599-1.599 6.676.4 9.315 4.797" fill="none" stroke="#343434" stroke-width=".64" stroke-miterlimit="8"/><path d="M410.271 178.572s2.639 0 3.358-2.759c.76-3.198-.72-7.155-2.598-9.554 0 0 5.557 9.554-.76 12.313z" fill="#179a2e" fill-rule="evenodd"/><path d="M407.553 167.898c0 2.359-.72 4.318-2.159 4.318-1.439.36-2.878-1.6-3.278-3.558 0-2.359.76-4.318 2.199-4.717 1.44 0 2.878 1.599 3.238 3.957z" fill="#58ab2c" fill-rule="evenodd"/><path d="M406.873 164.18c.36 1.2.36 2-.36 2.799-1.119.4-1.838 0-2.558-.8-.4-.8 0-1.999.72-2.398.72-.4 1.839-.4 2.198.4zm-2.278 3.598c0 .8 0 1.2-.36 1.6-.36 0-1.08 0-1.08-.4-.4-.4-.4-1.2.36-1.2.36-.4.72-.4 1.08 0z" fill="#8cbf61" fill-rule="evenodd"/><path d="M403.955 167.459c0 .4 0 .4-.36.799 0 0-.36 0-.36-.4v-.4c.36-.4.36 0 .72 0z" fill="#fff" fill-rule="evenodd"/><path d="M412.91 149.99c-2.998 3.997-7.116 5.556-9.355 3.597-2.638-1.999-2.238-7.196.76-10.754 2.998-3.997 7.116-5.596 9.714-3.597 2.239 1.998 1.879 6.796-1.12 10.753z" fill="#3ea52b" fill-rule="evenodd"/><path d="M412.91 149.99c-2.998 3.997-7.116 5.556-9.355 3.597-2.638-1.999-2.238-7.196.76-10.754 2.998-3.997 7.116-5.596 9.714-3.597 2.239 1.998 1.879 6.796-1.12 10.753" fill="none" stroke="#343434" stroke-width=".64" stroke-miterlimit="8"/><path d="M402.756 150.869s.76 3.158 3.358 2.758c2.998-.4 5.956-3.158 7.435-5.517 0 0-6.316 8.635-10.793 2.759z" fill="#179a2e" fill-rule="evenodd"/><path d="M410.99 144.792c-1.838.76-4.077.76-4.796-.76-.4-1.159.36-3.117 2.598-4.277 1.84-1.159 4.078-.76 4.438.8.72 1.16-.36 3.078-2.24 4.237z" fill="#58ab2c" fill-rule="evenodd"/><path d="M413.91 142.913c-.72.8-1.84 1.2-2.56.4-.759-.4-.759-1.599 0-2.398.36-.8 1.48-.8 2.2-.4.719.8.719 1.599.36 2.398zm-3.998-1.239c-.36.4-.72.76-1.08.4-.4-.4-.4-.8-.4-1.16.4-.4 1.12-.799 1.48-.4 0 .4.36.76 0 1.16z" fill="#8cbf61" fill-rule="evenodd"/><path d="M409.872 140.875c0 .36-.4.36-.4 0-.4 0-.4-.36 0-.36 0-.4.4-.4.4 0 .4 0 .4.36 0 .36z" fill="#fff" fill-rule="evenodd"/><path d="M213.61 263.26c-1.119 4.738-4.457 7.896-7.435 7.116-2.598-.8-4.097-5.137-2.978-9.874 1.12-4.737 4.457-8.295 7.435-7.495 2.599.78 4.078 5.516 2.979 10.253z" fill="#3ea52b" fill-rule="evenodd"/><path d="M213.61 263.26c-1.119 4.738-4.457 7.896-7.435 7.116-2.598-.8-4.097-5.137-2.978-9.874 1.12-4.737 4.457-8.295 7.435-7.495 2.599.78 4.078 5.516 2.979 10.253" fill="none" stroke="#343434" stroke-width=".64" stroke-miterlimit="8"/><path d="M204.556 268.717s1.879 2.379 4.477.78c2.619-1.58 4.118-5.557 4.478-8.335 0 0-2.599 10.713-8.955 7.555z" fill="#179a2e" fill-rule="evenodd"/><path d="M209.813 259.283c-1.1 1.979-3.338 2.358-4.457 1.579-1.12-1.2-.74-3.178.38-5.157 1.478-1.579 3.717-2.379 4.836-1.18 1.1.8.74 3.159-.76 4.758z" fill="#58ab2c" fill-rule="evenodd"/><path d="M211.712 256.525c0 .76-1.1 1.519-1.84 1.139-.739 0-1.478-1.14-1.099-1.919 0-1.14 1.1-1.54 1.84-1.14 1.099 0 1.458 1.14 1.099 1.92zm-4.038.719c0 .4-.4.8-.8.4-.4 0-.799-.4-.799-.8 0-.8.8-.8 1.2-.8.4 0 .799.8.4 1.2z" fill="#8cbf61" fill-rule="evenodd"/><path d="M207.514 256.525h-.32c-.32 0-.32 0-.32-.44s.32-.44.32-.44c.32 0 .32.44.32.88z" fill="#fff" fill-rule="evenodd"/><path d="M66.16 374.513c-2.579 3.958-7.016 5.936-9.234 3.958-2.599-1.98-2.22-6.736.36-10.694 2.957-3.957 7.035-5.956 9.254-3.957 2.578 1.978 2.218 6.735-.38 10.693z" fill="#3ea52b" fill-rule="evenodd"/><path d="M66.16 374.513c-2.579 3.958-7.016 5.936-9.234 3.958-2.599-1.98-2.22-6.736.36-10.694 2.957-3.957 7.035-5.956 9.254-3.957 2.578 1.978 2.218 6.735-.38 10.693" fill="none" stroke="#343434" stroke-width=".64" stroke-miterlimit="8"/><path d="M55.766 375.992s1.14 2.758 3.758 2.359c2.998-.4 5.996-3.538 7.116-5.897 0 0-5.997 8.635-10.874 3.538z" fill="#179a2e" fill-rule="evenodd"/><path d="M64.001 369.256c-1.859 1.2-4.077 1.2-4.437-.4-.76-1.199 0-3.597 2.219-4.397 1.858-1.2 3.697-.8 4.437.4.74 1.599 0 3.598-2.219 4.397z" fill="#58ab2c" fill-rule="evenodd"/><path d="M66.92 367.697c-.74.76-1.84.76-2.579.38a1.894 1.894 0 0 1 0-2.678c.38-.78 1.48-.78 2.219-.38.72.76.72 1.919.36 2.678zm-4.158-1.159c-.36.4-.74.4-1.1.4-.38-.4-.38-1.2-.38-1.6.38-.4.74-.4 1.48 0 .36.4.36.8 0 1.2z" fill="#8cbf61" fill-rule="evenodd"/><path d="M63.122 365.818h-.64c-.32 0-.32-.44 0-.88h.32c.32.44.32.44.32.88z" fill="#fff" fill-rule="evenodd"/><path d="M63.162 395.02c1.479 4.758 0 9.515-2.958 10.314-2.599.78-6.317-1.978-7.416-6.736-1.5-4.757 0-9.514 2.958-10.313 2.599-1.2 6.316 1.978 7.416 6.736z" fill="#3ea52b" fill-rule="evenodd"/><path d="M63.162 395.02c1.479 4.758 0 9.515-2.958 10.314-2.599.78-6.317-1.978-7.416-6.736-1.5-4.757 0-9.514 2.958-10.313 2.599-1.2 6.316 1.978 7.416 6.736" fill="none" stroke="#343434" stroke-width=".64" stroke-miterlimit="8"/><path d="M58.005 404.595s2.998 1.2 4.137-1.6c1.5-2.798 1.12-6.795 0-9.593 0 0 2.979 10.393-4.137 11.193z" fill="#179a2e" fill-rule="evenodd"/><path d="M58.445 393.841c-.38 2.379-1.88 3.958-3.378 3.578-1.5 0-2.259-2.378-2.259-4.357.38-2.379 1.879-3.978 3.378-3.978 1.499.4 2.618 2.379 2.259 4.757z" fill="#58ab2c" fill-rule="evenodd"/><path d="M58.425 390.303c.38 1.16 0 1.92-1.14 2.3-.78 0-1.919-.38-1.919-1.14-.4-1.16 0-1.92 1.14-2.299.78-.4 1.919.38 1.919 1.14zm-2.979 2.779c0 .4-.36 1.199-.72 1.199-.379 0-.739 0-1.118-.8 0-.4.38-.799.74-.799.379-.4.739 0 1.098.4z" fill="#8cbf61" fill-rule="evenodd"/><path d="M54.647 392.342v.74c-.32 0-.64 0-.64-.36 0-.38 0-.38.32-.38.32-.38.32 0 .32 0z" fill="#fff" fill-rule="evenodd"/><path d="M125.164 318.247c-4.477 1.2-8.954-.8-9.694-3.997-.38-3.199 2.618-6.397 7.076-7.596 4.857-1.2 8.954.8 9.694 3.998.36 2.798-2.619 6.396-7.076 7.595z" fill="#3ea52b" fill-rule="evenodd"/><path d="M125.164 318.247c-4.477 1.2-8.954-.8-9.694-3.997-.38-3.199 2.618-6.397 7.076-7.596 4.857-1.2 8.954.8 9.694 3.998.36 2.798-2.619 6.396-7.076 7.595" fill="none" stroke="#343434" stroke-width=".64" stroke-miterlimit="8"/><path d="M116.69 311.851s-1.12 3.198 1.119 4.797c2.618 1.6 6.356 1.2 8.954.4 0 0-10.074 2.398-10.074-5.197z" fill="#179a2e" fill-rule="evenodd"/><path d="M126.623 313.07c-2.218-.78-3.698-2.338-3.318-3.897.36-1.56 2.579-2.359 4.418-1.56 2.218.38 3.677 1.94 3.318 3.498-.36 1.56-2.22 2.339-4.418 1.96z" fill="#58ab2c" fill-rule="evenodd"/><path d="M129.941 313.45c-1.1 0-1.839-.38-2.218-1.519 0-.76.38-1.52 1.479-1.919.74 0 1.839.4 1.839 1.16.36 1.139-.36 1.898-1.1 2.278zm-2.538-3.438c-.38 0-.74-.4-.74-.8-.38-.4 0-.799.36-1.199.38 0 1.1.4 1.1.8s-.36 1.2-.72 1.2z" fill="#8cbf61" fill-rule="evenodd"/><path d="M128.162 309.452c-.44 0-.44-.36-.44-.36 0-.38 0-.759.44-.759l.44.38c0 .38 0 .38-.44.74z" fill="#fff" fill-rule="evenodd"/><path d="M103.317 320.266c4.458.38 8.555-1.58 8.935-4.737.36-3.158-2.978-6.316-7.835-6.716-4.458-.8-8.555 1.579-8.935 4.737-.38 3.158 2.978 6.316 7.835 6.716z" fill="#3ea52b" fill-rule="evenodd"/><path d="M103.317 320.266c4.458.38 8.555-1.58 8.935-4.737.36-3.158-2.978-6.316-7.835-6.716-4.458-.8-8.555 1.579-8.935 4.737-.38 3.158 2.978 6.316 7.835 6.716" fill="none" stroke="#343434" stroke-width=".64" stroke-miterlimit="8"/><path d="M111.133 313.13s1.479 2.779-.76 4.757c-2.239 1.98-6.336 1.98-8.954 1.58 0 0 10.453 1.179 9.714-6.337z" fill="#179a2e" fill-rule="evenodd"/><path d="M101.139 315.07c2.218-.8 3.318-2.38 2.958-3.959-.38-1.579-2.599-1.978-4.817-1.179-1.859.8-2.978 2.379-2.599 3.958.38 1.579 2.599 1.959 4.458 1.18z" fill="#58ab2c" fill-rule="evenodd"/><path d="M98.14 316.328c.74 0 1.48-.8 1.84-1.599 0-1.199-.72-1.999-1.46-1.999-1.099-.4-1.839.4-1.839 1.6-.38.799.36 1.599 1.46 1.998zm1.86-3.998c.38 0 .739-.399 1.099-.799 0-.4-.36-.8-.72-1.2-.74 0-1.12.4-1.12.8 0 .8.38 1.2.74 1.2z" fill="#8cbf61" fill-rule="evenodd"/><path d="M99.18 311.851c.4 0 .4-.4.4-.4 0-.4 0-.4-.4-.4 0-.4-.4 0-.4.4l.4.4z" fill="#fff" fill-rule="evenodd"/><path d="M102.178 367.297c4.457 1.96 8.915.78 10.014-2.378.74-3.158-1.859-6.716-6.316-8.315-4.078-1.979-8.535-.78-9.654 2.378-1.12 3.159 1.859 6.716 5.956 8.315z" fill="#3ea52b" fill-rule="evenodd"/><path d="M102.178 367.297c4.457 1.96 8.915.78 10.014-2.378.74-3.158-1.859-6.716-6.316-8.315-4.078-1.979-8.535-.78-9.654 2.378-1.12 3.159 1.859 6.716 5.956 8.315" fill="none" stroke="#343434" stroke-width=".64" stroke-miterlimit="8"/><path d="M111.552 362.62s.74 2.719-1.858 4.258c-2.599 1.159-6.297.38-8.915-.78 0 0 9.674 3.478 10.773-3.478z" fill="#179a2e" fill-rule="evenodd"/><path d="M101.399 362.14c2.218-.38 3.697-1.938 3.697-3.497-.36-1.56-2.218-2.339-4.437-2.339-1.859.4-3.718 1.959-3.338 3.518 0 1.559 1.859 2.319 4.078 2.319z" fill="#58ab2c" fill-rule="evenodd"/><path d="M98.1 362.22c.76.4 1.92-.4 2.3-1.199.379-.8-.38-1.999-1.14-2.398-.78 0-1.919.4-2.319 1.199 0 .8.4 1.999 1.16 2.398zm2.939-3.278c.38 0 .74-.4.74-.8.36-.399 0-.799-.36-1.198-.38 0-.74.4-1.12.8 0 .399 0 .799.74 1.198z" fill="#8cbf61" fill-rule="evenodd"/><path d="M100.36 358.303s.379 0 .379-.44c.36 0 0-.44 0-.44-.38 0-.76 0-.76.44 0 0 0 .44.38.44z" fill="#fff" fill-rule="evenodd"/><path d="M112.952 377.631c3.338 3.958 7.395 5.137 9.614 2.778 2.198-1.998 1.839-6.735-1.48-10.313-2.958-3.958-7.015-5.157-9.614-3.158-2.218 2.378-1.479 7.115 1.48 10.693z" fill="#3ea52b" fill-rule="evenodd"/><path d="M112.952 377.631c3.338 3.958 7.395 5.137 9.614 2.778 2.198-1.998 1.839-6.735-1.48-10.313-2.958-3.958-7.015-5.157-9.614-3.158-2.218 2.378-1.479 7.115 1.48 10.693" fill="none" stroke="#343434" stroke-width=".64" stroke-miterlimit="8"/><path d="M123.245 377.97s-.72 3.199-3.278 3.199c-2.918-.4-5.836-3.198-7.675-5.597 0 0 6.576 8.395 10.953 2.399z" fill="#179a2e" fill-rule="evenodd"/><path d="M114.77 372.474c1.86.78 4.098.4 4.458-1.179.74-1.2-.36-3.178-2.599-3.958-1.859-1.199-4.097-.4-4.457.78-.76 1.579.36 3.558 2.598 4.357z" fill="#58ab2c" fill-rule="evenodd"/><path d="M111.832 370.835c.74.74 1.48.74 2.219 0 .72-.38.72-1.499.36-2.258-.74-.76-1.84-.76-2.579 0-.36.38-.74 1.499 0 2.258zm3.738-1.599c.38.34 1.12.34 1.48.34.359-.34.359-1.04 0-1.4-.36-.359-.74-.359-1.1 0-.38.36-.38.7-.38 1.06z" fill="#8cbf61" fill-rule="evenodd"/><path d="M115.49 368.577c0 .36.4.36.4 0 .4 0 .4-.38 0-.38 0-.38-.4-.38-.4 0-.4 0-.4.38 0 .38z" fill="#fff" fill-rule="evenodd"/><path d="M131.48 398.139c4.797.78 8.875-1.18 9.235-4.318.36-3.138-2.958-6.276-7.756-7.055-4.417-.8-8.494 1.179-8.854 4.317-.38 3.138 2.958 6.276 7.375 7.056z" fill="#3ea52b" fill-rule="evenodd"/><path d="M131.48 398.139c4.797.78 8.875-1.18 9.235-4.318.36-3.138-2.958-6.276-7.756-7.055-4.417-.8-8.494 1.179-8.854 4.317-.38 3.138 2.958 6.276 7.375 7.056" fill="none" stroke="#343434" stroke-width=".64" stroke-miterlimit="8"/><path d="M139.595 391.403s1.48 2.778-.74 4.757c-2.598 1.579-6.315 1.579-9.294.8 0 0 10.414 1.958 10.034-5.557z" fill="#179a2e" fill-rule="evenodd"/><path d="M129.601 393.022c2.22-.8 3.318-2.379 2.959-3.958-.38-1.579-2.599-1.979-4.458-1.579-2.218.8-3.338 2.778-2.958 3.958.38 1.579 2.219 2.358 4.457 1.579z" fill="#58ab2c" fill-rule="evenodd"/><path d="M126.303 393.801c1.16 0 1.92-.38 2.3-1.559 0-.78-.76-1.559-1.52-1.959-1.16 0-1.919.8-1.919 1.58-.4.779.38 1.938 1.14 1.938zm2.159-3.518c.38 0 1.1-.4 1.1-.8 0-.799-.36-1.198-.72-1.198-.38 0-1.12.4-1.12.8 0 .399.38.799.74 1.198z" fill="#8cbf61" fill-rule="evenodd"/><path d="M127.803 389.564c.4.4.4 0 .8-.4l-.4-.4c-.4 0-.8.4-.8.4 0 .4.4.4.4.4z" fill="#fff" fill-rule="evenodd"/><path d="M179.351 442.172c4.098 2.399 8.555 2.399 10.054-.4 1.48-2.798-.38-7.195-4.477-9.594-4.098-2.798-8.555-2.398-10.054.4-1.5 2.798.38 7.195 4.477 9.594z" fill="#3ea52b" fill-rule="evenodd"/><path d="M179.351 442.172c4.098 2.399 8.555 2.399 10.054-.4 1.48-2.798-.38-7.195-4.477-9.594-4.098-2.798-8.555-2.398-10.054.4-1.5 2.798.38 7.195 4.477 9.594" fill="none" stroke="#343434" stroke-width=".64" stroke-miterlimit="8"/><path d="M189.325 438.894s.36 3.198-2.578 3.998c-2.559.8-6.236-.4-8.815-2.399 0 0 9.195 5.597 11.393-1.599z" fill="#179a2e" fill-rule="evenodd"/><path d="M179.351 436.515c2.199.38 4.018-.78 4.018-2.338 0-1.56-1.46-3.118-3.638-3.118-2.199 0-4.037.78-4.037 2.338 0 1.56 1.479 3.118 3.657 3.118z" fill="#58ab2c" fill-rule="evenodd"/><path d="M176.033 436.176c.76.4 1.9 0 2.279-.8.74-.8.38-1.999-.38-2.398-.76-.4-1.899 0-2.278.8-.76.799-.38 1.998.38 2.398zm3.398-2.759c.36.36 1.1 0 1.1-.36.36-.38 0-.739-.36-1.119-.38 0-.74 0-1.12.38 0 .36 0 1.1.38 1.1z" fill="#8cbf61" fill-rule="evenodd"/><path d="M178.952 432.698c0 .36.38.36.38 0 .36-.38 0-.38 0-.76-.38 0-.38 0-.76.38 0 0 0 .38.38.38z" fill="#fff" fill-rule="evenodd"/><path d="M228.022 457.203c4.837-.4 8.515-3.198 8.155-6.396 0-3.198-3.678-5.597-8.515-5.597-4.437.4-8.155 2.798-8.155 6.396 0 3.198 4.077 5.597 8.515 5.597z" fill="#3ea52b" fill-rule="evenodd"/><path d="M228.022 457.203c4.837-.4 8.515-3.198 8.155-6.396 0-3.198-3.678-5.597-8.515-5.597-4.437.4-8.155 2.798-8.155 6.396 0 3.198 4.077 5.597 8.515 5.597" fill="none" stroke="#343434" stroke-width=".64" stroke-miterlimit="8"/><path d="M235.058 448.888s1.798 2.359-.4 4.717c-1.8 2.359-5.477 3.118-8.435 2.758 0 0 10.274-.4 8.835-7.475z" fill="#179a2e" fill-rule="evenodd"/><path d="M225.443 452.426c1.84-1.18 2.939-3.158 2.219-4.358-.74-1.579-2.578-1.978-4.797-.78-1.839 1.18-2.958 3.159-2.219 4.338.74 1.58 2.958 1.58 4.797.8z" fill="#58ab2c" fill-rule="evenodd"/><path d="M222.425 453.525c.74 0 1.48-.76 1.48-1.519 0-1.14-.74-1.919-1.86-1.919-.74 0-1.499.78-1.499 1.92 0 .759.76 1.518 1.88 1.518zm1.559-3.997c.36 0 .72-.34.72-.7 0-.7-.36-1.06-.72-1.06-.74 0-1.12.36-1.12 1.06 0 .36.74.7 1.12.7z" fill="#8cbf61" fill-rule="evenodd"/><path d="m223.145 449.208.36-.4c0-.4-.36-.4-.36-.4-.38 0-.76 0-.76.4.38.4.38.4.76.4z" fill="#fff" fill-rule="evenodd"/><path d="M268.877 451.566c4.477-.8 7.795-3.917 7.076-7.075-.36-3.118-4.837-5.117-9.275-4.318-4.477 1.2-7.835 4.318-7.075 7.476.36 3.118 4.477 5.077 9.274 3.917z" fill="#3ea52b" fill-rule="evenodd"/><path d="M268.877 451.566c4.477-.8 7.795-3.917 7.076-7.075-.36-3.118-4.837-5.117-9.275-4.318-4.477 1.2-7.835 4.318-7.075 7.476.36 3.118 4.477 5.077 9.274 3.917" fill="none" stroke="#343434" stroke-width=".64" stroke-miterlimit="8"/><path d="M274.474 442.572s1.839 2.358.36 4.677c-1.48 2.359-5.157 3.918-8.156 4.277 0 0 9.994-1.918 7.796-8.954z" fill="#179a2e" fill-rule="evenodd"/><path d="M265.08 447.649c1.838-1.56 2.558-3.518 1.838-4.677-1.12-1.2-2.958-1.2-4.837 0-1.839 1.559-2.598 3.517-1.479 4.677.76 1.559 2.958 1.199 4.477 0z" fill="#58ab2c" fill-rule="evenodd"/><path d="M262.6 449.168c.72 0 1.44-.76 1.08-1.88 0-.759-.72-1.518-1.839-1.118-.72 0-1.479.76-1.079 1.878 0 .76.72 1.48 1.839 1.12zm.72-3.958c.36-.4.72-.8.72-1.2 0-.399-.36-.799-1.08-.799-.36 0-.759.8-.36 1.2 0 .4.36.8.72.8z" fill="#8cbf61" fill-rule="evenodd"/><path d="M262.52 444.89c.32 0 .32-.4.32-.4 0-.4-.32-.4-.32-.4-.319 0-.319.4-.319.4 0 .4 0 .4.32.4z" fill="#fff" fill-rule="evenodd"/><path d="M312.29 431.019c4.078-1.999 6.677-5.917 5.597-9.115-1.119-2.758-5.596-3.957-10.034-1.959-4.077 1.96-6.716 5.917-5.596 9.075 1.12 2.798 5.596 3.558 10.034 1.999z" fill="#3ea52b" fill-rule="evenodd"/><path d="M312.29 431.019c4.078-1.999 6.677-5.917 5.597-9.115-1.119-2.758-5.596-3.957-10.034-1.959-4.077 1.96-6.716 5.917-5.596 9.075 1.12 2.798 5.596 3.558 10.034 1.999" fill="none" stroke="#343434" stroke-width=".64" stroke-miterlimit="8"/><path d="M315.569 420.745s2.598 1.599 1.479 4.397c-1.12 2.759-4.437 5.157-7.036 5.917 0 0 9.594-4.358 5.557-10.314z" fill="#179a2e" fill-rule="evenodd"/><path d="M307.773 427.54c1.48-1.598 1.84-3.997.76-5.196-1.12-.8-2.998-.4-4.477 1.6-1.48 1.598-1.88 3.997-.76 4.796 1.12 1.2 2.998.4 4.477-1.2z" fill="#58ab2c" fill-rule="evenodd"/><path d="M305.575 429.86c.72-.4 1.08-1.2.72-2.4-.36-.799-1.08-1.198-1.84-.799-1.079.4-1.479 1.2-1.079 2.399.36.8 1.44 1.2 2.199.8zm.04-4.318c.36 0 .72-.8.36-1.2 0-.399-.72-.799-1.08-.399-.4 0-.4.8-.4 1.2.4.4.76.799 1.12.4z" fill="#8cbf61" fill-rule="evenodd"/><path d="M304.815 425.542s.32-.4 0-.4c0-.4-.32-.4-.32-.4-.32 0-.32.4-.32.4.32.4.32.4.64.4z" fill="#fff" fill-rule="evenodd"/><path d="M186.107 10.354s6.256 1.179 6.616 3.937c0 3.138-7.355 4.697-7.355 4.697s5.896-1.559 5.896-4.317c0-3.138-5.157-4.317-5.157-4.317z" fill="#e0aa94" fill-rule="evenodd"/><path d="M247.65 114.41c-4.477 1.56-8.915.4-10.034-2.358-.76-3.198 1.879-7.116 6.316-8.715 4.477-1.599 8.915-.4 9.674 2.759 1.08 3.158-1.879 6.716-5.956 8.315z" fill="#3ea52b" fill-rule="evenodd"/><path d="M247.65 114.41c-4.477 1.56-8.915.4-10.034-2.358-.76-3.198 1.879-7.116 6.316-8.715 4.477-1.599 8.915-.4 9.674 2.759 1.08 3.158-1.879 6.716-5.956 8.315" fill="none" stroke="#343434" stroke-width=".64" stroke-miterlimit="8"/><path d="M238.416 109.574s-.76 2.798 1.878 3.997c2.599 1.6 6.277.8 8.875-.4 0 0-9.634 3.598-10.753-3.597z" fill="#179a2e" fill-rule="evenodd"/><path d="M248.41 109.254c-1.84-.4-3.718-1.999-3.319-3.598 0-1.6 1.84-2.399 4.078-2.399 2.199.4 3.678 2 3.678 3.598-.36 1.6-2.199 2.399-4.438 2.399z" fill="#58ab2c" fill-rule="evenodd"/><path d="M251.727 109.174c-.76.4-1.838-.4-2.238-1.2 0-.799.4-1.998 1.12-2.398 1.118 0 1.838.4 2.198 1.2.36 1.199-.36 1.998-1.08 2.398zm-2.558-3.038c-.4 0-1.12-.4-1.12-.8-.4-.4 0-.8.36-1.2.36 0 1.12.4 1.12.8.36.4 0 .8-.36 1.2z" fill="#8cbf61" fill-rule="evenodd"/><path d="M249.529 105.256s-.36 0-.36-.4c0 0 0-.4.36-.4 0 0 .36 0 .36.4 0 0 0 .4-.36.4z" fill="#fff" fill-rule="evenodd"/></svg>