<svg xmlns="http://www.w3.org/2000/svg" version="1.0" viewBox="0 0 108.246 418.091"><defs><clipPath clipPathUnits="userSpaceOnUse" id="a"><path d="M35.179.24h108.094v418.386H35.18z"/></clipPath></defs><path clip-path="url(#a)" d="M78.892 3.438S77.672 30.9 65.86 57.965C49.99 94.703 3.158 229.18 75.214 345.49c18.33 29.682 14.672 70.257 14.672 70.257s7.315 4.837 14.65-.6c0 0-4.077-45.032 7.316-66.04 16.49-30.081 59.844-154.666-2.438-290.743C98.42 34.539 97.62 12.932 95.982 2.838c0 0-6.716-2.638-17.09.6z" fill="#ed9978" fill-rule="evenodd"/><path clip-path="url(#a)" d="M69.858 65.68s-58.385 163.561 15.25 286.307c0 0-59.583-128.403-15.25-286.307z" fill="#dd7f5f" fill-rule="evenodd"/><path d="M93.963 359.982s21.927-184.908-3.658-299.179c0 0 9.954 14.751 3.658 299.179z" fill="#dd7f5f" fill-rule="evenodd"/><path clip-path="url(#a)" d="M106.775 68.478s73.476 130.421 2.659 279.191c0 0 58.604-116.27-2.659-279.19z" fill="#dd7f5f" fill-rule="evenodd"/><path clip-path="url(#a)" d="M108.294 98.62s35.819 73.716 0 225.544c0 0 22.607-158.504 0-225.544z" fill="#dd7f5f" fill-rule="evenodd"/><path d="M76.034 85.988S57.225 180.71 83.589 328.32c0 0-35.978-137.117-7.555-242.333z" fill="#dd7f5f" fill-rule="evenodd"/><path d="M82.99 110.933s-10.194 51.688 2.438 179.251c0 0-.4-130.4-2.438-179.251z" fill="#dd7f5f" fill-rule="evenodd"/><path clip-path="url(#a)" d="M79.092 3.278c0 5.057-1.23 9.704-1.839 14.751-.41 4.847-1.03 9.504-2.049 14.151-.41 2.02-2.248 14.951-.2 15.151 1.63.2 4.698-9.494 5.307-10.913 1.23-3.228 2.249-7.675 4.498-10.504 1.429.81 1.219 21.217 4.897 18.39 1.429-1.21 1.229-6.267 1.429-7.886.21-3.228 0-6.666 0-10.104 0-3.228-.81-9.094 1.03-11.923 2.038 3.838-.21 12.533 4.486 14.961 2.449-1.619.82-7.685.41-10.114-.41-2.418-.2-5.246-.41-7.875-.2-1.819-.41-4.247-.61-5.866-.21-1.41.2-1.41-.21-2.619-1.018-2.838-15.11-2.428-16.739.2zm10.774 412.77c.8-5.657.2-12.333.2-16.77 0-5.657-1.44-11.113-1.22-16.77 2.838.2 2.838 10.694 3.258 12.932.4 3.418-.22 12.933 3.238 14.751 1.24-2.438-.2-6.875-.4-9.714-.4-4.837-.819-9.694-1.219-14.75-.4-6.257 0-12.513.2-18.79 2.239 3.239 2.239 10.114 2.658 14.152.6 5.257 1 10.514 2.02 15.55.819-2.418 0-10.693 2.038-11.512.2 2.638 0 15.15 2.858 16.17.4 4.837.8 9.894.8 14.551-2.439 1.4-8.535 3.618-14.431 0z" fill="#f0e6e4" fill-rule="evenodd"/><path clip-path="url(#a)" d="M69.738 63.681S9.794 225.403 83.589 348.15c0 0-69.498-112.652-13.851-284.468z" fill="#ab4e36" fill-rule="evenodd"/><path d="M92.324 356.144s11.093-205.096-3.858-299.179c0 0 9.914 14.752 3.858 299.18z" fill="#ab4e36" fill-rule="evenodd"/><path clip-path="url(#a)" d="M105.096 64.64s67.64 128.403 2.459 279.192c0 0 58.864-116.27-2.459-279.191z" fill="#ab4e36" fill-rule="evenodd"/><path d="M106.455 94.783s27.664 68.258 0 225.543c0 0 22.787-158.504 0-225.543zm-30.401-8.775s-32.76 86.427 5.696 238.475c0 0-33.36-134.478-5.076-239.694z" fill="#ab4e36" fill-rule="evenodd"/><path d="M82.37 109.094s-11.413 49.47 1.22 177.252c0 0-8.136-142.113-1.22-177.252z" fill="#ab4e36" fill-rule="evenodd"/><path clip-path="url(#a)" d="M58.505 98.94S26.544 207.794 66.64 316.008c0 0-41.335-76.933-8.135-217.068z" fill="#fff" fill-rule="evenodd"/><path d="M70.537 100.14s-20.148 69.517 1.62 185.887c0 0-25.026-80.412-1.62-185.888zm12.413-9.195s-11.953 95.262-4.258 145.911c0 0-9.734-94.242 4.258-145.911zm9.194 24.865s2.159 119.467-.4 215.31c0 0 0-204.597.4-215.31zm9.275-33.34s22.866 65.62 12.472 155.426c0 0 4.277-101.719-12.472-155.426zm29.801 102.098s9.375 89.486-25.484 158.944c0 0 29.362-54.327 25.484-158.944z" fill="#fff" fill-rule="evenodd"/><path d="M71.906 50.09c.2 5.047-4.077 8.475-1.019 13.731 2.439 4.238 1.829 6.456.81 11.503-2.649 10.294-7.536 21.797-7.126 32.49 2.648-1.608 3.468-7.665 4.687-10.493 1.22-3.628 2.039-7.266 3.458-10.893.82-1.62 4.077-12.313 6.926-9.285 1.219 1.21.2 7.666 0 9.285-.41 3.228-2.239 7.055-1.63 10.293 2.24-2.428 2.849-9.494 5.697-10.903 3.058-1.41 2.039 3.228 2.039 5.447 0 1.619 0 11.103 3.058 9.084 3.658-2.418.2-17.76-.21-21.397-.81-9.284-2.438-18.369-2.848-27.653-.2-4.238-.41-9.284-2.039-13.122-1.829.41-3.258 7.475-4.477 9.494-1.629 2.818-4.277 4.637-7.326 3.228zM97.62 32.98c-1.218 2.029-3.067.61-4.696.41-.41 8.884-.62 19.188 1.429 27.883.82 3.628 1.639 7.265 2.248 11.103.41 3.848-.2 9.295 2.459 12.333 1.22-2.829-1.639-9.505 1.02-11.313 3.477 2.418 2.658 11.712 7.155 12.112 1.22-8.685-11.453-21.007-6.336-29.692 1.839 1.01 3.058 3.028 4.907 3.838-1.64-5.457-4.497-10.504-5.727-16.16-.82-3.039-1.019-6.466-2.658-9.095zm3.799 79.472c5.556 27.283 2.478 55.346 3.697 83.03.62 12.112 1.24 24.425 1.24 36.957 0 13.932-2.459 27.663-1.64 41.595 5.937-2.419 3.698-19.788 4.298-25.245.82-7.475 1.24-14.93 2.259-22.206 1.858-15.97 2.458-31.921 1.039-47.871-1.04-12.932-2.059-25.865-3.298-38.777-.6-5.656-.82-22.026-5.936-24.845zm1.738 183.568c-4.057 4.858-3.657 20.828-4.457 27.484-.82 6.876-.42 14.151-.42 21.207 0 7.276-3.657 25.065 2.04 29.902 1.418-4.637.819-10.294 2.238-15.15 1.22-4.238 4.877-7.276 5.277-11.714-1.42.4-3.258.6-4.678 1.42-6.695-8.695 11.773-28.683 10.774-39.597-3.058 2.02-2.239 6.057-3.458 9.095-1.22 3.218-3.658 6.856-5.277 9.694h-1.419c-.62-9.694.2-19.208-1.22-28.483zm-21.867-1.059c6.097-8.295 6.497 11.513 6.917 14.751 1.219 8.895 2.218 17.79 1.818 26.884-.6 11.313.6 23.026-.2 34.34-4.876-4.038-3.457-16.151-3.657-22.027-.4-8.076-7.716-14.752-7.516-23.026.82 1.818 2.239 3.238 4.278 3.437 1.819-10.513-5.497-23.445-1.64-33.76zm4.298-143.733c3.838 12.133 2.219 27.903 2.818 40.436.42 5.656.42 11.513.42 17.17 0 5.256-1.619 13.751 0 18.188 2.599-16.77 1-34.958 1.2-52.128 0-6.676 0-18.409-3.818-23.666zm-27.723 3.978v-1.42c.62 13.712-2.039 27.624-1.62 41.736.2 5.036-1.438 21.766 2.64 25.184.4-7.455-1.42-14.71-.62-21.966.82-7.056 2.038-14.112 2.438-21.168.22-6.636 1.22-17.13-1.22-22.966z" fill="#f1a690" fill-rule="evenodd"/><path clip-path="url(#a)" d="M48.15 123.085s-23.325 89.506 4.498 164.46c0 0-15.95-128.901-4.497-164.46z" fill="#f1a690" fill-rule="evenodd"/><path clip-path="url(#a)" d="M104.297 415.468s-3.858-44.833 7.535-66.04c16.49-30.102 59.864-154.746-2.438-290.903C98.4 34.679 97.58 13.272 95.742 3.158m-16.81.56S77.513 31.18 65.9 58.225C50.01 94.982 3.158 229.42 75.254 345.71c18.33 29.663 14.671 70.238 14.671 70.238" fill="none" stroke="#494e4e" stroke-width=".8" stroke-linecap="round" stroke-miterlimit="8"/><path d="M102.298 403.016c-2.219 1.02-3.218-4.258-5.257-4.038-1.619 0 .22 7.296.22 8.915 0 2.019-.82 4.457-.42 6.276.42 2.419 2.239 1.02 3.438-.4 2.019-2.838 1.62-8.115.62-10.953zM93.084 3.938c-1.84-1.42-5.107-.61-7.156-.41-2.858.21-3.678.21-4.497 3.028-1.02 3.838-1.43 7.875-2.239 11.513-.82 3.028-1.23 6.056-1.639 9.085 0 1.209-1.639 7.665.61 5.246 1.839-1.819 2.048-6.056 3.068-8.474.41-.81 2.039-4.648 3.478-4.448.81.2 1.219 7.676 2.648 3.438.82-2.828-1.22-10.304 2.868-11.713 1.63-.4 2.449 1.82 3.468-.2.61-1.419-.2-5.456-.82-6.666z" fill="#f7f4f3" fill-rule="evenodd"/></svg>