<svg xmlns="http://www.w3.org/2000/svg" version="1.0" viewBox="0 0 115.427 78.879"><defs><clipPath clipPathUnits="userSpaceOnUse" id="a"><path d="M1.44 1.839h115.29V80.75H1.44z"/></clipPath></defs><path clip-path="url(#a)" d="M115.49 47.012c-.4 3.118-4.597 2.238-24.625 6.236-20.428 3.997-68.798 26.664-71.317 26.224-2.518-.44-8.755-60.004-16.27-74.235C.76.76 4.957 2.998 15.391 7.435c10.433 4.478 37.537 5.357 55.486 9.355 18.349 3.997 45.013 27.583 44.613 30.222z" fill="#f9d8db" fill-rule="evenodd"/><path d="M43.254 43.853c-2.519-4.877-.84-11.153 3.318-13.791 4.597-3.158 10.433-1.36 12.952 3.558 2.878 4.877 1.24 11.153-3.358 13.831-4.597 2.639-9.994.88-12.912-3.598z" fill="#f5bcc5" fill-rule="evenodd"/><path d="M41.975 42.974c-2.919-4.877-1.24-10.634 3.358-13.712 4.557-2.678 10.393-.88 12.912 3.558 2.478 4.837.84 11.033-3.318 13.712-4.598 3.078-10.434 1.319-12.952-3.558z" fill="#fff" fill-rule="evenodd"/><path d="M12.472 28.783c1.68 5.316 1.68 11.073 2.919 16.43.44 4.437 1.279 8.395 2.118 12.832.8 4.437-.44 18.189 6.636 17.31 3.758-.44 9.994-4.878 13.752-6.197 5.836-2.239 9.194-3.997 14.591-6.196 5.837-2.239 11.673-4.917 17.11-7.556 5.397-2.238 11.233-1.319 16.63-3.118-2.879 0-6.236.44-9.155.44-5.836-.44-12.072-.88-17.909.44-7.515 1.359-14.591 4.877-22.106 5.357-7.916.44-9.555-2.679-12.913-9.315-4.557-10.673-9.154-22.186-14.59-31.98z" fill="#f5bcc5" fill-rule="evenodd"/><path d="M26.584 12.752c5.836 1.8 24.585 3.598 32.9 4.478 8.755.879 24.985 5.756 37.857 15.99-3.318-2.639-25.784-12.433-36.178-13.312-9.994-.48-28.743-4.038-34.58-7.156z" fill="#fff" fill-rule="evenodd"/><path d="M19.068 70.937c1.26 3.098 2.1 5.297 5.857 4.417 3.758-1.319 7.096-3.977 10.853-5.756-2.918 1.779-6.256 2.218-9.174 3.558-1.68.44-3.358 1.319-5.017.88-1.26-.44-1.26-1.78-2.099-2.66z" fill="#f198a8" fill-rule="evenodd"/><path clip-path="url(#a)" d="M115.49 47.012c-.4 3.118-4.597 2.238-24.625 6.236-20.428 3.997-68.798 26.664-71.317 26.224-2.518-.44-8.755-60.004-16.27-74.235C.76.76 4.957 2.998 15.391 7.435c10.433 4.478 37.537 5.357 55.486 9.355 18.349 3.997 45.013 27.583 44.613 30.222" fill="none" stroke="#333" stroke-width=".8" stroke-linecap="round" stroke-linejoin="round"/><path d="M40.775 42.094c-2.518-4.917-1.239-10.673 3.358-13.791 4.557-2.679 10.394-.88 12.912 3.558 2.479 4.877 1.24 11.113-3.358 13.791-4.557 3.078-10.393 1.32-12.912-3.558" fill="none" stroke="#333" stroke-width=".32" stroke-linecap="round" stroke-linejoin="round"/><path d="M40.416 28.982c0-2.058 1.559-3.757 3.477-3.757 1.94 0 3.478 1.699 3.478 3.757 0 2.08-1.539 3.758-3.478 3.758-1.918 0-3.477-1.679-3.477-3.758zm8.314-1.319c0-.86.64-1.559 1.4-1.559.78 0 1.399.7 1.399 1.56 0 .879-.62 1.558-1.4 1.558-.759 0-1.399-.68-1.399-1.559zM36.578 34.34c0-1.32 1.04-2.4 2.318-2.4 1.3 0 2.319 1.08 2.319 2.4 0 1.338-1.02 2.398-2.319 2.398-1.279 0-2.318-1.06-2.318-2.399z" fill="#fff" fill-rule="evenodd"/></svg>