<svg xmlns="http://www.w3.org/2000/svg" version="1.0" viewBox="0 0 428.409 456.831"><defs><clipPath clipPathUnits="userSpaceOnUse" id="a"><path d="M-.24.64h427.9v457.163H-.24z"/></clipPath></defs><path d="M32.34 1.56S3.398 3.237.92 26.423c0 0 48.77 62.922 56.205 75.354 7.436 12.433 24.785 33.94 48.73 51.33 23.986 17.389 61.963 43.893 28.104 71.236v112.612l32.22 67.879 86.748-6.596 69.398-82.83-37.977-64.561-52.049-49.69-23.146-40.575s-23.945 18.189-42.134-1.68c-18.19-19.867-56.206-34.778-55.367-46.371.84-11.593 20.668-.8 46.252-5.797 25.625-4.957 28.943 4.158 30.582 14.072l14.87-42.215-25.584-9.954s2.479 9.115-7.475 12.433c-9.914 3.318-66.92 19.068-88.387-15.75C60.443 30.54 37.297 7.355 32.34 1.558z" fill="#f2d1c2" fill-rule="evenodd"/><path d="M.76 26.424s48.77 62.922 56.205 75.354c7.436 12.433 24.785 33.94 48.73 51.33 23.986 17.389 61.963 43.893 28.104 71.236v112.612l32.22 67.879 86.748-6.596 69.398-82.83-37.977-64.561-52.049-49.69-22.946-40.375s-24.145 17.989-42.334-1.88c-18.19-19.867-56.206-34.778-55.367-46.371.84-11.593 20.668-.8 46.252-5.797 25.625-4.957 28.943 4.158 30.582 14.072l14.87-42.215-25.584-9.954s2.479 9.115-7.475 12.433c-9.914 3.318-66.92 19.068-88.387-15.75C60.283 30.54 37.137 7.355 32.18 1.558" fill="none" stroke="#343434" stroke-width=".8" stroke-linecap="round" stroke-linejoin="round"/><path d="M185.488 186.007c4.757-15.75 19.428-27.343 36.577-27.343 21.308 0 38.257 17.19 38.257 38.297 0 6.196-1.239 11.992-3.957 17.19 8.474-8.476 20.067-13.673 32.9-13.673 25.624 0 46.492 20.908 46.492 46.572 0 18.629-10.954 34.74-27.064 42.215 1.839-.2 3.718-.44 5.557-.44 26.863 0 48.77 21.947 48.77 49.05 0 26.904-21.907 48.85-48.77 48.85-2.08 0-3.918-.2-5.997-.44 1.68 4.798 2.479 9.755 2.479 14.912 0 26.704-21.467 48.01-47.931 48.01-20.468 0-37.857-12.632-44.653-30.82-4.757 21.946-24.186 38.256-47.332 38.256-26.663 0-48.17-21.507-48.17-48.21 0-11.993 4.357-22.747 11.353-31.222-2.878.6-5.997 1.04-9.275 1.04-24.185 0-43.853-19.668-43.853-44.094 0-19.228 12.233-35.378 29.382-41.374-12.432-6.836-20.907-20.068-20.907-35.18 0-21.946 17.989-39.935 39.896-39.935 11.793 0 22.546 5.157 29.782 13.432l.4-.4c-4.958-8.075-10.114-13.032-6.397-19.028 3.718-5.997 5.157-18.23 1.44-26.104-3.718-7.636-3.718-15.071 3.317-18.19 0 0 3.918-3.517 14.472 8.076 6.396 7.235 12.392 1.439 13.232 6.836.2 1.439 0 2.678 0 3.917v-.2z" fill="#f4dfd7" fill-rule="evenodd"/><path d="M191.604 212.671c-2.479-4.757-3.918-10.314-3.918-16.11 0-19.069 15.271-34.38 34.3-34.38 19.028 0 34.539 15.311 34.539 34.38 0 11.793-5.997 22.146-14.871 28.343 0 0-2.08 1.439-1.24 3.318 1 1.839 2.879.6 2.879.6 1.838-1.04 3.517-2.48 4.957-3.918-3.518 6.596-5.597 14.071-5.597 22.146 0 3.718.44 7.236 1.479 10.754 0 0 .6 3.917 3.278 3.518 2.718-.64 1.879-3.718 1.879-3.718-.84-3.518-1.44-7.036-1.44-10.794 0-22.746 18.59-41.375 41.336-41.375s41.135 18.63 41.135 41.375c0 18.23-11.993 33.74-28.303 39.137 0 0-6.436 1.639-5.597 5.996.64 4.118 7.636 2.678 7.636 2.678 2.918-.6 5.996-1.039 9.314-1.039 24.185 0 43.814 19.668 43.814 44.093 0 24.186-19.629 43.854-43.814 43.854-3.518 0-6.836-.4-10.114-1.24 0 0-3.518-2.278-4.157-1.439-.8 1.04 1.879 4.758 1.879 4.758 2.478 5.596 3.917 11.592 3.917 17.989 0 23.585-19.028 42.614-42.574 42.614-23.586 0-42.614-19.029-42.614-42.614 0-11.993 4.957-22.747 13.032-30.622 0 0 5.796-5.996 3.918-7.635-1.84-1.88-4.318.8-4.318.8-8.275 6.835-14.071 16.15-16.55 27.103-3.078-8.275-8.475-15.51-15.31-20.907 0 0-3.279-3.718-4.958-1.24-1.439 2.719 2.28 4.757 2.28 4.757 10.153 7.876 16.55 20.308 16.55 34.18 0 23.985-19.43 43.413-43.415 43.413-24.185 0-43.613-19.428-43.613-43.413 0-13.072 5.756-24.625 14.67-32.7 6.197-7.676-3.117-4.997-3.117-4.997-4.318 1.679-9.075 2.718-14.032 2.718-21.307 0-38.696-17.39-38.696-38.697 0-21.307 17.39-38.696 38.696-38.696 10.954 0 21.068 4.757 28.103 12.192 0 0 1.44 1.24 2.479 2.08 1.04.839 6.836 2.678 5.157-1.24-4.318-5.996-9.914-10.754-16.51-14.072 5.356-2.278 10.513-5.356 14.231-9.914 5.797-6.835 4.357-13.671 4.357-13.671-5.356 13.032-18.388 22.346-33.3 22.346-20.227 0-36.377-16.35-36.377-36.418 0-20.068 16.15-36.418 36.378-36.418 19.028 0 34.739 14.911 36.178 33.74 0 0 4.757-9.714-1.84-22.147-4.357-8.075-11.792-14.071-8.474-20.068 3.318-5.796 5.996-17.389 2.878-24.824-3.318-7.476-4.957-14.911 1.24-18.03 0 0 2.278-2.878 11.592 8.515 5.557 6.796 11.993.8 12.593 5.997.64 5.157-1.24 10.114 1.239 15.91 0 0 4.957 11.393 6.836 13.032z" fill="#f2aa97" fill-rule="evenodd"/><path d="M172.356 289.305c-3.938-1.04-3.298 5.796-2.06 7.855 2.28 3.518 5.997 5.597 8.276 9.094 3.718 5.997 2.278 13.252 1.04 19.868-1.26 6.197-1.66 12.393.819 18.19 1.659 4.137 7.655 15.91 13.871 13.651 3.518-1.24 2.259-7.236 1.44-9.934-1.44-5.377-2.06-10.334-1.04-15.91 1.04-4.757 3.318-9.115 4.357-13.652 1.02-3.938 0-8.895-1.459-12.412-2.278-5.577-7.235-9.715-12.412-12.193-2.059-1.04-4.557-1.66-6.616-2.479-1.24-.62-2.699-1.459-4.138-1.858z" fill="#e28e7d" fill-rule="evenodd"/><path d="m223.025 404.595-3.118.2s4.557 33.06 30.821 38.057c31.261 5.956 55.846-13.472 54.007-45.693l-2.478-.64-79.232 8.076z" fill="#7a2d2a" fill-rule="evenodd"/><path clip-path="url(#a)" d="M130.56 397.639h-2.258s-8.495 37.717 27.903 51.609c36.598 13.871 63.062-24.865 57.286-49.73l-1.86-1.879h-81.07z" fill="#7a2d2a" fill-rule="evenodd"/><path d="M159.583 197.44s1.44 2.499 1.04 6.836c-.22 4.557-3.498 11.813-.42 16.77 3.298 4.977 11.733 18.429 6.996 28.363 0 0 1.659-12.413-6.177-21.307-8.035-8.915-6.376-13.052-6.376-13.052l4.937-17.61zm191.884 153.907 2.039 4.357s-29.982 53.928-63.482 4.758l61.443-9.115zm-25.265-91.225s2.679.64-2.678 9.954c-5.357 9.315-22.307 15.51-25.425 17.99-3.078 2.518-4.957 5.796-4.117 9.314 0 0-6.436-9.714 1.24-14.871 7.435-5.197 30.98-22.387 30.98-22.387z" fill="#7a2d2a" fill-rule="evenodd"/><path d="M185.488 186.007c4.757-15.75 19.428-27.343 36.577-27.343 21.308 0 38.257 17.19 38.257 38.297 0 6.196-1.239 11.992-3.957 17.19 8.474-8.476 20.067-13.673 32.9-13.673 25.624 0 46.492 20.908 46.492 46.572 0 18.629-10.954 34.74-27.064 42.215 1.839-.2 3.718-.44 5.557-.44 26.863 0 48.77 21.947 48.77 49.05 0 26.904-21.907 48.85-48.77 48.85-2.08 0-3.918-.2-5.997-.44 1.68 4.798 2.479 9.755 2.479 14.912 0 26.704-21.467 48.01-47.931 48.01-20.468 0-37.857-12.632-44.653-30.82-4.757 21.946-24.186 38.256-47.332 38.256-26.663 0-48.17-21.507-48.17-48.21 0-11.993 4.357-22.747 11.353-31.222-2.878.6-5.997 1.04-9.275 1.04-24.185 0-43.853-19.668-43.853-44.094 0-19.228 12.233-35.378 29.382-41.374-12.432-6.836-20.907-20.068-20.907-35.18 0-21.946 17.989-39.935 39.896-39.935 11.793 0 22.546 5.157 29.782 13.432l.4-.4c-4.958-8.075-10.114-13.032-6.397-19.028 3.718-5.997 5.157-18.23 1.44-26.104-3.718-7.636-3.718-15.071 3.317-18.19 0 0 3.918-3.517 14.472 8.076 6.396 7.235 12.392 1.439 13.232 6.836.2 1.439 0 2.678 0 3.917v-.2z" fill="none" stroke="#343434" stroke-width=".8" stroke-linecap="round" stroke-linejoin="round"/><path d="M191.644 212.711c-2.479-4.757-3.918-10.314-3.918-16.11 0-19.069 15.271-34.38 34.3-34.38 19.028 0 34.539 15.311 34.539 34.38 0 11.793-5.997 22.146-14.871 28.343 0 0-2.08 1.439-1.24 3.318 1 1.839 2.879.6 2.879.6 1.838-1.04 3.517-2.48 4.957-3.918-3.518 6.596-5.597 14.071-5.597 22.146 0 3.718.44 7.236 1.479 10.754 0 0 .6 3.917 3.278 3.518 2.718-.64 1.879-3.718 1.879-3.718-.84-3.518-1.44-7.036-1.44-10.794 0-22.746 18.59-41.375 41.336-41.375s41.135 18.63 41.135 41.375c0 18.23-11.993 33.74-28.303 39.137 0 0-6.436 1.639-5.597 5.996.64 4.118 7.636 2.678 7.636 2.678 2.918-.6 5.996-1.039 9.314-1.039 24.185 0 43.813 19.668 43.813 44.093 0 24.186-19.628 43.854-43.813 43.854-3.518 0-6.836-.4-10.114-1.24 0 0-3.518-2.278-4.157-1.439-.8 1.04 1.879 4.757 1.879 4.757 2.478 5.597 3.917 11.593 3.917 17.99 0 23.585-19.028 42.614-42.574 42.614-23.586 0-42.614-19.029-42.614-42.614 0-11.993 4.957-22.747 13.032-30.622 0 0 5.796-5.996 3.918-7.635-1.84-1.88-4.318.8-4.318.8-8.275 6.835-14.071 16.15-16.55 27.103-3.078-8.275-8.475-15.51-15.31-20.907 0 0-3.279-3.718-4.958-1.24-1.439 2.719 2.28 4.757 2.28 4.757 10.153 7.876 16.55 20.308 16.55 34.18 0 23.985-19.43 43.413-43.415 43.413-24.185 0-43.613-19.428-43.613-43.413 0-13.072 5.756-24.625 14.67-32.7 6.197-7.676-3.117-4.997-3.117-4.997-4.318 1.679-9.075 2.718-14.032 2.718-21.307 0-38.696-17.39-38.696-38.697 0-21.307 17.39-38.696 38.696-38.696 10.954 0 21.068 4.757 28.103 12.192 0 0 1.44 1.24 2.479 2.08 1.04.839 6.836 2.678 5.157-1.24-4.318-5.996-9.914-10.754-16.51-14.072 5.356-2.278 10.513-5.356 14.231-9.914 5.797-6.835 4.357-13.671 4.357-13.671-5.356 13.032-18.388 22.346-33.3 22.346-20.227 0-36.377-16.35-36.377-36.418 0-20.068 16.15-36.418 36.378-36.418 19.028 0 34.739 14.911 36.178 33.74 0 0 4.757-9.714-1.84-22.147-4.357-8.075-11.792-14.071-8.474-20.068 3.318-5.796 5.996-17.389 2.878-24.825-3.318-7.475-4.957-14.91 1.24-18.029 0 0 2.278-2.878 11.592 8.515 5.557 6.796 11.993.8 12.593 5.997.64 5.156-1.24 10.113 1.239 15.91 0 0 4.957 11.393 6.836 13.032" fill="none" stroke="#fff" stroke-width="1.359" stroke-linecap="round" stroke-linejoin="round"/><path d="M143.633 364.2s-2.259 7.095-14.891 7.715c-12.412.62-20.068-.62-31.241-11.054l46.132 3.338zM98.88 270.756l-2.898.42s6.196 18.528 26.004 21.607c19.808 3.078 38.996-8.235 38.377-24.506l-61.483 2.479z" fill="#7a2d2a" fill-rule="evenodd"/><path d="M426.462 67.24c.2 19.467-15.511 35.418-34.98 35.618a35.54 35.54 0 0 1-35.658-35.179c0-19.468 15.75-35.419 35.219-35.419 19.468-.24 35.419 15.511 35.419 34.98z" fill="#f2d1c2" fill-rule="evenodd"/><path clip-path="url(#a)" d="M426.462 67.24c.2 19.467-15.511 35.418-34.98 35.418-19.467.2-35.418-15.51-35.658-34.979 0-19.468 15.75-35.419 35.219-35.658 19.468 0 35.419 15.75 35.419 35.218" fill="none" stroke="#343434" stroke-width=".8" stroke-miterlimit="8"/><path d="M391.723 35.019c-2.679-.44-6.397.4-8.875 1.239-3.958 1.04-8.075 3.318-11.193 5.557-7.236 5.396-11.993 15.75-11.993 24.625 0 5.356.64 10.553 4.757 14.271 3.518 3.318 10.754 4.317 11.993-1.439.64-2.918 1.24-5.197 2.478-7.875 1.88-3.318 3.958-5.997 6.836-8.275 4.118-3.078 8.875-5.357 11.793-9.714 2.039-3.079 3.478-6.596 2.678-10.314-.44-1.68-1.239-2.918-1.878-4.357-.8-1.44-1.44-2.28-2.879-2.879-1.239-.64-2.678-.44-3.917-.84z" fill="#f4dfd7" fill-rule="evenodd"/><path d="M404.275 38.697s-17.79-8.275-33.3 4.757c-15.51 12.992-10.354 34.699-4.117 41.894 0 0-11.833-27.023 5.756-40.655 16.59-12.592 31.661-5.996 31.661-5.996z" fill="#fff" fill-rule="evenodd"/><path d="M372.854 91.265c2.079 1.239 3.518 3.717 5.797 4.757 2.518 1 5.596 1.439 8.075 1.839 3.957.64 8.315 1.639 12.232.64 9.315-2.28 16.35-10.354 18.869-19.229 1-3.318.4-9.754-4.797-7.036-1.44.8-2.479 2.878-3.718 3.918-1.24 1.24-2.678 2.278-3.918 3.318-5.197 3.917-10.154-.64-16.59-1.24-3.717-.2-7.875 5.157-11.393 6.197-2.878.84-5.596 3.917-3.917 7.036z" fill="#eab7a4" fill-rule="evenodd"/><path d="M395 36.578c0-1 .84-1.84 1.84-1.84 1.039 0 1.838.84 1.838 1.84 0 1.04-.8 1.839-1.839 1.839-.999 0-1.838-.8-1.838-1.84zm7.996 1.239c0 .64-.6 1.24-1.24 1.24-.839 0-1.479-.6-1.479-1.24 0-.8.64-1.24 1.28-1.24.84 0 1.439.44 1.439 1.24z" fill="#fff" fill-rule="evenodd"/><path d="M250.568 67.879c.2 20.947-16.75 38.137-37.657 38.337-21.107 0-38.257-16.99-38.257-37.937-.24-21.148 16.75-38.337 37.857-38.337 20.908-.24 38.057 16.79 38.057 37.937z" fill="#f2d1c2" fill-rule="evenodd"/><path d="M250.768 67.679c0 21.147-16.95 38.337-37.857 38.337-21.107.2-38.257-16.79-38.257-37.937-.24-20.948 16.75-38.137 37.857-38.137 20.908-.24 38.057 16.79 38.257 37.737" fill="none" stroke="#343434" stroke-width=".8" stroke-miterlimit="8"/><path d="M213.15 33.06c-2.897-.64-6.815.4-9.713 1.24-3.918 1.019-8.455 3.517-11.773 5.996-7.835 5.796-13.012 16.97-13.012 26.504 0 5.796.62 11.373 5.177 15.53 3.717 3.518 11.353 4.537 12.792-1.659.84-3.118 1.459-5.597 2.898-8.495 1.66-3.518 4.138-6.616 7.236-8.894 4.337-3.518 9.494-5.797 12.592-10.574 2.279-3.098 3.918-7.036 2.898-10.953-.42-1.88-1.239-3.318-2.078-4.777-.62-1.66-1.44-2.479-2.879-3.298-1.459-.62-2.898-.22-4.337-.84z" fill="#f4dfd7" fill-rule="evenodd"/><path d="M226.783 36.778s-19.229-8.915-35.979 5.197c-16.55 14.091-10.973 37.497-4.557 45.372 0 0-12.632-29.222 6.416-43.933 17.79-13.672 34.12-6.636 34.12-6.636z" fill="#fff" fill-rule="evenodd"/><path d="M192.643 93.743c2.479 1.24 3.918 3.918 6.396 4.957 2.719 1.24 5.997 1.64 8.715 2.039 4.317.64 8.875 1.639 13.192.64 9.914-2.28 17.55-11.154 20.268-20.628 1-3.478.4-10.514-5.197-7.395-1.44.8-2.678 2.878-3.918 4.117-1.439 1.44-13.432-2.878-22.106 1.64-3.478 1.838-8.435 6.195-12.393 7.195-2.878.84-5.996 4.157-4.117 7.635z" fill="#eab7a4" fill-rule="evenodd"/><path d="M216.629 34.819c0-1.06.9-1.919 1.999-1.919 1.119 0 1.998.86 1.998 1.919 0 1.06-.88 1.919-1.999 1.919-1.099 0-1.998-.86-1.998-1.92zm5.996 1.239c0-.72.6-1.32 1.32-1.32.739 0 1.318.6 1.318 1.32 0 .74-.58 1.32-1.319 1.32-.72 0-1.319-.58-1.319-1.32z" fill="#fff" fill-rule="evenodd"/><path d="M302.377 41.375c.2 20.907-16.75 38.097-37.857 38.297-20.908 0-38.057-16.95-38.297-37.897 0-21.108 16.99-38.297 37.897-38.297 21.107-.24 38.257 16.75 38.257 37.897z" fill="#f2d1c2" fill-rule="evenodd"/><path clip-path="url(#a)" d="M302.377 41.175c.2 21.107-16.75 38.297-37.857 38.297-20.908.2-38.057-16.75-38.057-37.897-.24-20.908 16.75-38.097 37.657-38.097 21.107-.24 38.257 16.75 38.257 37.697" fill="none" stroke="#343434" stroke-width=".8" stroke-miterlimit="8"/><path d="M265 6.516c-3.119-.64-6.836.4-9.715 1.24-4.157 1.039-8.475 3.517-11.992 6.036-7.676 5.796-13.073 16.99-13.073 26.504 0 5.836.84 11.433 5.397 15.55 3.718 3.558 11.393 4.557 12.832-1.639.6-3.118 1.44-5.596 2.679-8.515 1.879-3.518 4.157-6.636 7.475-8.914 4.318-3.518 9.514-5.797 12.593-10.554 2.078-3.118 3.717-7.076 2.918-10.993-.44-1.88-1.24-3.318-2.079-4.757-.84-1.68-1.639-2.519-3.118-3.318-1.24-.64-2.678-.24-4.117-.84z" fill="#f4dfd7" fill-rule="evenodd"/><path d="M278.351 10.314s-18.988-8.915-35.738 5.197c-16.75 14.111-11.193 37.497-4.557 45.372 0 0-12.633-29.222 6.396-43.933 17.79-13.672 33.9-6.636 33.9-6.636z" fill="#fff" fill-rule="evenodd"/><path d="M244.452 67.2c2.278 1.239 3.917 3.917 6.396 4.956 2.518 1.2 5.796 1.64 8.715 2.039 4.317.64 8.874 1.639 13.192.64 9.714-2.279 17.55-11.154 20.267-20.668 1-3.518.4-10.513-5.196-7.435-1.44.84-14.032-5.997-26.624 3.318-3.318 2.278-7.836 8.674-11.793 9.714-3.078.8-5.997 4.117-4.118 7.635z" fill="#eab7a4" fill-rule="evenodd"/><path d="M268.597 8.355c0-1.04.88-1.919 1.88-1.919 1.038 0 1.878.88 1.878 1.919 0 1.08-.84 1.919-1.879 1.919-1 0-1.879-.84-1.879-1.92zm5.597 1.239c0-.72.68-1.319 1.519-1.319.84 0 1.519.6 1.519 1.32 0 .759-.68 1.318-1.52 1.318-.839 0-1.518-.56-1.518-1.319z" fill="#fff" fill-rule="evenodd"/><path d="M322.125 145.032c.2 21.107-16.71 38.057-37.737 38.257-20.828 0-37.937-16.75-38.177-37.817 0-20.907 16.95-38.057 37.777-38.297 21.027 0 38.137 16.99 38.137 37.857z" fill="#f2d1c2" fill-rule="evenodd"/><path d="M322.125 145.072c.2 20.867-16.71 38.017-37.737 38.217-20.828 0-37.937-16.95-37.937-37.817-.24-21.067 16.71-38.217 37.537-38.217 21.027-.24 38.137 16.71 38.137 37.817" fill="none" stroke="#343434" stroke-width=".8" stroke-miterlimit="8"/><path d="M284.827 110.253c-3.118-.44-6.835.4-9.714 1.24-4.157 1.239-8.475 3.517-11.992 6.036-7.676 5.996-13.073 16.99-13.073 26.744 0 5.796.84 11.433 5.397 15.35 3.718 3.558 11.393 4.558 12.832-1.639.6-2.918 1.44-5.596 2.679-8.315 1.879-3.717 4.157-6.636 7.475-9.114 4.318-3.318 9.514-5.837 12.593-10.394 2.078-3.318 3.717-7.275 2.918-11.193-.44-1.68-1.24-3.318-2.079-4.797-.84-1.44-1.639-2.479-3.118-3.078-1.24-.64-2.678-.44-4.118-1.04z" fill="#f4dfd7" fill-rule="evenodd"/><path d="M298.18 114.25s-18.95-8.914-35.66 5.158c-16.669 13.871-11.112 37.457-4.516 45.092 0 0-12.593-29.142 6.396-43.853 17.709-13.632 33.78-6.396 33.78-6.396z" fill="#fff" fill-rule="evenodd"/><path d="M264.44 170.896c2.278 1.44 3.917 3.918 6.396 5.157 2.518 1.04 5.796 1.68 8.715 1.88 4.317.599 8.874 1.838 13.192.839 9.714-2.519 17.549-11.194 20.267-20.948 1-3.518.4-10.353-5.197-7.435-1.439.84-2.678 3.118-3.917 4.157-1.44 1.44-2.878 2.479-4.517 3.718-5.397 4.118-10.154 6.396-16.95 5.797-4.118-.2-9.075-1.68-13.032-.44-3.078.84-5.997 4.157-4.118 7.475z" fill="#eab7a4" fill-rule="evenodd"/><path d="M288.345 111.972c0-1.08.88-1.999 1.92-1.999 1.078 0 1.918.92 1.918 2 0 1.118-.84 1.998-1.919 1.998-1.04 0-1.919-.88-1.919-1.999zm8.715 1.279c0 .84-.64 1.44-1.52 1.44-.839 0-1.518-.6-1.518-1.24 0-.84.68-1.479 1.519-1.479.88 0 1.519.64 1.519 1.28z" fill="#fff" fill-rule="evenodd"/><path d="M382.808 155.026c.2 21.107-16.75 38.057-37.617 38.257-21.067 0-38.217-16.75-38.217-37.817-.24-20.908 16.71-38.057 37.817-38.297 20.867 0 38.017 16.99 38.017 37.857z" fill="#f2d1c2" fill-rule="evenodd"/><path d="M383.008 154.986c0 20.907-16.95 38.097-37.817 38.297-21.067 0-38.217-16.95-38.217-37.897-.24-21.107 16.71-38.297 37.817-38.297 20.867-.24 38.017 16.75 38.217 37.897" fill="none" stroke="#343434" stroke-width=".8" stroke-miterlimit="8"/><path d="M345.39 120.247c-2.878-.44-6.795.4-9.713 1.24-3.918 1.239-8.435 3.517-11.753 5.996-7.836 5.996-13.032 16.91-13.032 26.624 0 5.796.64 11.393 5.196 15.31 3.718 3.518 11.354 4.518 12.793-1.679.84-2.878 1.439-5.556 2.878-8.235 1.679-3.717 4.157-6.636 7.236-9.114 4.357-3.278 9.514-5.757 12.592-10.314 2.279-3.318 3.918-7.236 2.918-11.153-.44-1.64-1.24-3.318-2.079-4.757-.64-1.44-1.439-2.479-2.878-3.118-1.479-.6-2.918-.4-4.357-1z" fill="#f4dfd7" fill-rule="evenodd"/><path d="M359.022 124.125s-19.228-8.955-35.978 5.157c-16.55 13.911-10.953 37.537-4.557 45.212 0 0-12.632-29.222 6.436-43.973 17.79-13.672 34.1-6.396 34.1-6.396z" fill="#fff" fill-rule="evenodd"/><path d="M324.883 180.89c2.479 1.44 3.958 3.918 6.436 5.157 2.679 1.04 5.997 1.68 8.675 1.88 4.357.599 8.915 1.838 13.232.839 9.954-2.519 17.59-11.194 20.308-20.948.999-3.518.4-10.353-5.197-7.435-1.44.84-2.679 3.118-3.918 4.157-1.439 1.44-2.918 2.479-4.357 3.718-5.357 4.118-10.354 6.396-17.15 5.797-4.157-.2-9.114-1.68-13.032-.44-2.918.84-6.036 4.157-4.157 7.475z" fill="#eab7a4" fill-rule="evenodd"/><path d="M348.869 121.966c0-1.08.919-1.999 1.998-1.999 1.12 0 2 .92 2 2a1.98 1.98 0 0 1-2 1.998 2.005 2.005 0 0 1-1.998-1.999zm8.634 1.119c0 .84-.6 1.44-1.399 1.44-.6 0-1.24-.6-1.24-1.24 0-.84.64-1.479 1.24-1.479.8 0 1.4.64 1.4 1.28z" fill="#fff" fill-rule="evenodd"/><path d="M424.783 122.566c.2 19.468-15.471 35.418-34.9 35.418-19.627.2-35.338-15.51-35.578-34.979 0-19.708 15.71-35.418 35.139-35.658 19.428 0 35.339 15.75 35.339 35.219z" fill="#f2d1c2" fill-rule="evenodd"/><path clip-path="url(#a)" d="M424.783 122.526c.2 19.508-15.471 35.458-34.9 35.458-19.428.2-35.338-15.55-35.578-35.258 0-19.509 15.71-35.459 35.139-35.459 19.428-.24 35.339 15.55 35.339 35.259" fill="none" stroke="#343434" stroke-width=".8" stroke-miterlimit="8"/><path d="M390.044 90.265c-2.679-.44-6.397.4-8.875 1.04-3.958 1.239-8.075 3.278-11.193 5.756-7.236 5.357-11.993 15.67-11.993 24.545 0 5.357.64 10.514 4.757 14.232 3.518 3.118 10.754 4.117 11.993-1.64.64-2.678 1.24-5.156 2.478-7.635 1.88-3.518 3.958-6.196 6.836-8.475 4.118-3.078 8.875-5.156 11.793-9.474 2.039-3.078 3.478-6.596 2.678-10.314-.44-1.639-1.239-3.078-1.878-4.517-.8-1.24-1.44-2.278-2.879-2.918-1.239-.6-2.678-.2-3.917-.8z" fill="#f4dfd7" fill-rule="evenodd"/><path d="M402.676 93.663s-17.75-8.315-33.26 4.757c-15.47 13.072-10.314 34.86-4.117 42.095 0 0-11.793-27.144 5.796-40.616 16.51-12.872 31.58-6.236 31.58-6.236z" fill="#fff" fill-rule="evenodd"/><path d="M371.175 146.471c2.079 1.24 3.518 3.518 5.797 4.557 2.518 1.24 5.596 1.64 8.075 2.04 3.957.439 8.315 1.438 12.232.639 9.315-2.279 16.35-10.354 18.869-19.228 1-3.318.4-9.954-4.797-7.036-1.44.84-2.479 2.678-3.718 3.917-1.24 1.24-2.678 2.279-3.918 3.318-5.197 3.718-9.554 5.997-15.95 5.357-3.718-.2-8.515-1.439-12.033-.4-2.878.84-5.596 3.718-3.917 7.036z" fill="#eab7a4" fill-rule="evenodd"/><path d="M393.322 91.824c0-.999.84-1.839 1.839-1.839 1.039 0 1.838.84 1.838 1.84 0 1.039-.8 1.838-1.838 1.838-1 0-1.84-.8-1.84-1.839zm7.995 1.12c0 .88-.6 1.279-1.2 1.279-.799 0-1.439-.4-1.439-1.28 0-.639.64-1.279 1.24-1.279.8 0 1.399.64 1.399 1.28z" fill="#fff" fill-rule="evenodd"/><path d="M373.454 43.853c.2 21.947-17.55 39.936-39.616 40.136-22.107 0-40.056-17.79-40.056-39.736-.24-22.146 17.55-40.135 39.616-40.375 22.107 0 39.856 17.829 40.056 39.975z" fill="#f2d1c2" fill-rule="evenodd"/><path d="M373.454 43.654c.2 22.146-17.55 40.135-39.616 40.135-22.107.2-39.856-17.59-40.056-39.736-.24-21.946 17.55-39.935 39.616-40.175 22.107 0 40.056 17.829 40.056 39.776" fill="none" stroke="#343434" stroke-width=".8" stroke-miterlimit="8"/><path d="M334.038 7.196c-2.879-.44-7.036.4-10.114 1.239-4.158 1.24-8.915 3.718-12.393 6.396-8.275 6.236-13.672 17.83-13.672 27.943 0 6.036.64 12.033 5.397 16.15 4.118 3.758 12.193 4.757 13.632-1.639.6-3.118 1.44-5.996 2.878-8.914 1.88-3.718 4.358-6.836 7.676-9.515 4.517-3.517 9.914-5.996 13.192-10.753 2.278-3.518 3.917-7.675 3.118-11.793-.44-1.879-1.44-3.318-2.279-4.997-.64-1.639-1.639-2.678-3.118-3.278-1.44-.64-2.878-.44-4.317-.84z" fill="#f4dfd7" fill-rule="evenodd"/><path d="M348.309 11.393S328.28 2.04 310.732 16.75c-17.55 14.71-11.553 39.376-4.757 47.651 0 0-13.232-30.861 6.835-46.172 18.59-14.311 35.499-6.836 35.499-6.836z" fill="#fff" fill-rule="evenodd"/><path d="M312.77 70.917c2.519 1.48 3.958 4.157 6.636 5.397 2.679 1.04 6.197 1.639 9.075 2.078 4.557.6 9.314 1.84 14.071.6 10.354-2.478 18.39-11.593 21.307-21.707 1-3.757.4-10.993-5.596-7.875-1.44.8-5.597-4.997-12.393-3.118-6.835 1.679-10.353 4.357-17.589 3.718-4.117-.4-6.196 12.032-10.314 13.272-3.318.8-6.436 4.357-4.357 7.875z" fill="#eab7a4" fill-rule="evenodd"/><path d="M341.993 9.075c0 .999-1 1.998-2.039 1.998-1.24 0-2.279-.8-2.279-1.998 0-1 1.04-2 2.08-2 1.238 0 2.238 1 2.238 2zm5.037 1.239c0 .8-.84 1.399-1.68 1.399-.639 0-1.518-.6-1.518-1.4 0-.599.64-1.199 1.519-1.199.84-.2 1.679.4 1.679 1.2z" fill="#fff" fill-rule="evenodd"/><path d="M377.331 98.1c0 23.226-18.548 42.055-41.654 42.255-23.146 0-41.895-18.629-41.895-41.815-.24-23.226 18.349-42.054 41.455-42.054 23.146-.24 41.894 18.429 42.094 41.615z" fill="#f2d1c2" fill-rule="evenodd"/><path d="M377.451 98.1c.2 23.226-18.588 42.055-41.535 42.055-23.146.2-41.934-18.429-42.134-41.615-.24-23.226 18.589-42.054 41.535-42.294 23.146 0 41.934 18.669 42.134 41.855" fill="none" stroke="#343434" stroke-width=".8" stroke-miterlimit="8"/><path d="M336.116 59.844c-3.318-.64-7.435.4-10.553 1.439-4.558 1.24-9.515 3.718-13.232 6.636-8.475 6.396-14.472 18.629-14.232 29.182 0 6.396.6 12.632 5.757 17.15 4.157 3.757 12.632 4.757 14.071-2.039.8-3.118 1.64-5.996 3.078-9.114 2.08-4.158 4.558-7.236 8.076-9.954 4.757-3.718 10.313-6.397 13.831-11.553 2.479-3.518 4.118-7.876 3.318-12.233-.44-1.839-1.439-3.518-2.278-5.157-.84-1.679-1.88-2.718-3.318-3.518-1.64-.64-3.278-.44-4.758-1.04z" fill="#f4dfd7" fill-rule="evenodd"/><path d="M351.027 64.161s-20.867-9.914-39.456 5.597c-18.389 15.47-12.192 41.095-4.957 49.73 0 0-13.871-32.18 7.036-48.291 19.628-14.871 37.377-7.036 37.377-7.036z" fill="#fff" fill-rule="evenodd"/><path d="M313.61 126.643c2.678 1.44 4.357 4.358 7.236 5.597 2.678 1.24 6.396 1.839 9.314 2.278 4.957.6 9.914 1.84 14.671.6 10.714-2.678 19.388-12.232 22.306-22.786 1-3.958.4-11.633-5.596-8.315-1.839.84-3.078 3.318-4.557 4.597-1.44 1.44-3.078 2.679-4.717 3.918-5.997 4.557-11.394 7.275-18.83 6.636-4.516-.4-9.913-1.88-14.23-.64-3.518.84-6.636 4.597-4.758 8.315z" fill="#eab7a4" fill-rule="evenodd"/><path d="M344.311 61.603c0 1.239-1 2.238-2.238 2.238-1.2 0-2-1-2-2.238-.239-1.04.8-2.08 2-2.08 1.239 0 2.238 1.04 2.238 2.08zm1.999 1.519c0-.76.72-1.44 1.6-1.44.919 0 1.598.68 1.598 1.44 0 .8-.68 1.439-1.599 1.439-.88 0-1.599-.64-1.599-1.44z" fill="#fff" fill-rule="evenodd"/><path d="M252.167 118.208c.2 19.668-15.71 35.779-35.538 35.979-19.868 0-35.978-15.91-35.978-35.779-.24-19.668 15.91-35.778 35.538-36.018 19.868 0 35.978 15.95 35.978 35.818z" fill="#f2d1c2" fill-rule="evenodd"/><path d="M252.367 118.008c0 19.868-15.91 35.979-35.738 35.979-19.628.2-35.739-15.71-35.978-35.539 0-19.868 15.95-35.978 35.578-35.978 19.828-.24 35.938 15.91 36.138 35.538" fill="none" stroke="#343434" stroke-width=".8" stroke-miterlimit="8"/><path d="M216.749 85.288c-2.679-.42-6.376.42-8.855 1.24-3.918 1.039-8.035 3.318-11.333 5.796-7.196 5.377-12.153 15.71-12.153 24.825 0 5.577.62 10.753 4.957 14.691 3.498 3.098 10.714 4.118 12.153-1.659.62-2.898 1.24-5.177 2.458-7.875 1.66-3.498 3.918-6.196 6.816-8.475 4.118-3.298 9.055-5.377 11.933-9.914 2.059-2.898 3.498-6.636 2.678-10.354-.4-1.659-1.239-3.098-1.858-4.557-.82-1.44-1.44-2.259-2.879-2.878-1.239-.62-2.678-.42-3.917-.84z" fill="#f4dfd7" fill-rule="evenodd"/><path d="M229.58 89.026s-17.948-8.475-33.659 4.757c-15.71 13.232-10.553 35.379-4.357 42.574 0 0-11.793-27.463 6.196-41.095 16.75-12.832 31.82-6.236 31.82-6.236z" fill="#fff" fill-rule="evenodd"/><path d="M197.84 142.394c2.079 1.439 3.518 3.717 5.996 4.757 2.28 1.04 5.557 1.679 8.036 2.079 4.117.64 8.434 1.439 12.352.64 9.274-2.28 16.71-10.594 19.188-19.709.8-3.318.4-9.954-4.957-7.036-1.439.84-2.478 2.919-3.717 3.958-1.24 1.24-2.679 2.279-4.118 3.518-4.957 3.718-9.674 5.996-16.07 5.357-3.718-.2-8.435-1.44-12.153-.4-2.878.84-5.596 3.957-3.917 7.036z" fill="#eab7a4" fill-rule="evenodd"/><path d="M224.064 86.867c0 1.04-.84 1.84-1.879 1.84-1.059 0-2.118-.8-2.118-1.84 0-1.019.86-1.839 2.118-1.839 1.04 0 1.88.82 1.88 1.84zm4.318 1.24c0 .62-.6 1.239-1.2 1.239-.82 0-1.439-.62-1.439-1.24 0-.619.62-1.239 1.44-1.239.599 0 1.199.42 1.199 1.24z" fill="#fff" fill-rule="evenodd"/><path d="M317.328 91.385c.2 22.386-17.75 40.375-39.856 40.575-22.307 0-40.256-17.79-40.456-40.136-.24-22.186 17.75-40.375 39.856-40.375 22.307-.24 40.256 17.789 40.456 39.936z" fill="#f2d1c2" fill-rule="evenodd"/><path d="M317.328 91.385c.2 22.146-17.75 40.375-39.856 40.575-22.347 0-40.296-17.79-40.536-40.136 0-22.186 17.79-40.375 40.096-40.375 22.107-.24 40.296 17.789 40.296 39.936" fill="none" stroke="#343434" stroke-width=".8" stroke-miterlimit="8"/><path d="M277.552 54.887c-3.078-.64-7.196.4-10.074 1.239-4.357 1.24-9.075 3.718-12.592 6.396-8.235 6.196-13.792 17.75-13.792 28.103 0 5.956.84 11.953 5.557 16.31 3.917 3.478 12.152 4.717 13.591-1.879.64-3.078 1.44-5.996 2.879-8.874 1.878-3.918 4.357-7.036 7.635-9.515 4.717-3.477 10.074-5.956 13.392-10.913 2.238-3.518 3.877-7.635 3.078-11.793-.4-1.839-1.44-3.518-2.279-5.157-.6-1.439-1.639-2.478-3.078-3.318-1.439-.6-3.078-.2-4.517-.8z" fill="#f4dfd7" fill-rule="evenodd"/><path d="M291.863 58.724s-20.028-9.354-37.777 5.597c-17.55 14.711-11.753 39.616-4.757 47.891 0 0-13.432-30.901 6.836-46.452 18.788-14.511 35.698-7.036 35.698-7.036z" fill="#fff" fill-rule="evenodd"/><path d="M256.165 118.808c2.478 1.679 3.917 4.357 6.836 5.397 2.678 1.279 6.156 1.879 9.074 2.318 4.517.6 9.274 1.84 13.792.6 10.513-2.479 18.788-11.833 21.467-22.027 1-3.757.4-11.273-5.357-7.915-1.679.84-2.918 3.118-4.157 4.357-1.64 1.44-3.079 2.719-4.718 3.958-5.796 4.357-10.953 6.876-18.149 6.236-4.117-.4-9.474-1.879-13.631-.64-3.278.84-6.397 4.398-4.518 8.116z" fill="#eab7a4" fill-rule="evenodd"/><path d="M285.707 56.646c0 1.039-1 2.078-2.239 2.078-1.04 0-2.079-1.039-2.079-2.078 0-1.24.84-2.08 2.08-2.08 1.238 0 2.238.84 2.238 2.08zm1.839 1.319c0-.76.68-1.4 1.519-1.4.84 0 1.519.64 1.519 1.4 0 .8-.68 1.399-1.52 1.399-.839 0-1.518-.6-1.518-1.4z" fill="#fff" fill-rule="evenodd"/><path d="M262.76 286.506c6.197 4.318 11.993 8.035 12.593 16.11.64 6.836.2 13.872-.6 20.268 2.24-5.996 4.318-11.793 7.636-17.15 2.238-3.517 6.356-6.635 3.078-10.553-2.878-2.878-7.835-3.918-11.753-5.157-3.318-1.04-7.435-3.757-10.713-3.318 0 .6.4 0 .6.2zm-86.027 51.729c-2.878 7.615.42 15.83-7.436 20.548 7.436-1.24 12.613-1.44 19.828.4-7.215-2.04-12.792-10.874-12.392-18.47zm85.468 14.791c3.158 1.879 6.916-7.675 6.916-10.793 0 3.757 1.04 6.436 2.518 9.754 2.08 3.957 4.358 4.797 7.276 7.675-5.637-1.24-9.994-6.196-16.27-5.796z" fill="#f4dfd7" fill-rule="evenodd"/><path d="M262.76 286.506c6.197 4.318 11.993 8.035 12.593 16.11.64 6.836.2 13.872-.6 20.268 2.24-5.996 4.318-11.793 7.636-17.15 2.238-3.517 6.356-6.635 3.078-10.553-2.878-2.878-7.835-3.918-11.753-5.157-3.318-1.04-7.435-3.757-10.713-3.318 0 .6.4 0 .6.2m-86.868 51.329c-2.878 7.615.42 15.83-7.436 20.548 7.436-1.24 12.613-1.44 19.828.4-7.215-2.04-12.792-10.874-12.392-18.47m85.468 12.313c3.158 1.879 6.916-7.675 6.916-10.793 0 3.757 1.04 6.436 2.518 9.754 2.08 3.957 4.358 4.797 7.276 7.675-5.637-1.24-9.994-6.196-16.27-5.796" fill="none" stroke="#fff" stroke-width=".64" stroke-linecap="round" stroke-linejoin="round" stroke-miterlimit="10"/><path d="M150.889 176.493c-1.44-7.435 2.898-8.275 7.215-11.793-.82-4.137-9.694-6.616-13.192-8.894a283.077 283.077 0 0 0-17.33-10.354c-6.196-3.118-13.211-6.216-18.368-10.774-3.698-3.517-9.275-12.412-14.032-13.671.84 5.796 7.636 11.193 11.553 15.13 5.377 5.177 10.934 10.754 16.11 16.35 4.318 4.558 9.275 8.276 14.232 12.013 2.259 1.66 5.157 2.899 6.796 5.177 1.459 1.859 5.157 5.997 6.616 6.816zm21.906-90.505c2.259 4.817 5.577 8.355 8.655 12.332-9.494-1.459-19.188 2.499-29.702 2.699-11.353 0-23.326-2.699-34.899-.62 5.577-1.04 10.734-2.498 16.31-2.918 4.957-.22 9.495.62 14.252-.22 8.654-1.04 18.149-3.958 25.384-8.135z" fill="#f4dfd7" fill-rule="evenodd"/><path d="M122.306 99.88c-6.176-.62-18.949 3.317-22.247 8.894-3.917 5.996-.62 14.471 3.298 19.648-2.678 4.737-11.133-7.875-12.572-10.354-4.737-7.635-4.957-13.851 3.298-17.769 10.913-5.596 24.725-.84 36.038-1.859z" fill="#f4dfd7" fill-rule="evenodd"/><path d="M94.083 121.486c-8.295-5.176-11.393-15.33-15.73-23.625-6.417-12.633-15.531-23.826-22.987-35.859 10.154 9.954 17.81 20.528 30.422 27.584 6.416 3.518 16.35 8.075 23.386 8.894-3.718 2.499-12.193 3.318-14.072 7.256z" fill="#f4dfd7" fill-rule="evenodd"/><path d="M16.77 14.751c7.235 5.377 13.212 15.09 17.969 22.726 4.137 6.816 9.294 12.793 14.251 18.789 3.298 4.117 7.016 7.435 10.954 11.153 5.157 4.957 8.874 10.534 13.412 16.09-3.918-2.058-8.255-9.074-11.154-12.992-3.298-4.137-5.976-8.674-8.674-13.212-4.118-7.035-8.875-13.432-14.032-19.628-4.137-4.957-7.855-9.914-12.812-13.831-3.918-3.099-7.016-5.157-10.334-9.095z" fill="#f4dfd7" fill-rule="evenodd"/><path d="M152.528 170.337c-.2-1.86 1.858-2.479 3.098-2.898-5.577-.82-11.154-5.377-15.49-8.915-3.1-2.479-6.617-4.757-10.115-6.836-2.898-2.079-5.377-5.397-8.695-6.856 3.738 2.699 6.836 6.017 10.554 8.935 2.678 2.059 5.577 4.557 8.475 6.636 3.918 2.898 8.455 5.596 11.553 9.114zm23.186-78.513c.42 2.279 2.478 3.498 3.098 5.357-1.02-.82-1.64-1.639-3.298-1.639-2.279-.22-4.977.82-7.456 1.22-2.498.619-5.197.619-7.875 1.039-2.698.4-6.216.2-8.715 1.219 1.88-1.44 5.817-1.639 8.095-2.459 2.479-.62 4.957-.819 7.456-1.019 1.659-.22 8.695-.42 8.495-2.678zm-96.202-1.219c2.918 5.157 6.236 10.114 9.154 15.27 3.118 5.158 5.197 11.554 8.715 16.091-2.279-4.117-3.518-8.655-2.079-13.412.84-2.478 5.397-6.816 1.88-8.255-1.88-.62-3.739-.2-5.617-1.239-1.86-.82-3.738-2.259-5.397-3.498-2.279-1.659-4.777-3.318-6.656-5.177z" fill="#fff" fill-rule="evenodd"/><path d="M76.474 90.585c0-1.599 1.539-2.918 3.438-2.918 1.898 0 3.437 1.32 3.437 2.918 0 1.62-1.539 2.918-3.437 2.918-1.9 0-3.438-1.299-3.438-2.918zm-4.797-5.796c0-.78.859-1.44 1.918-1.44 1.06 0 1.92.66 1.92 1.44 0 .8-.86 1.439-1.92 1.439-1.059 0-1.918-.64-1.918-1.44zm23.665 36.378c0-.92.86-1.68 1.92-1.68 1.058 0 1.918.76 1.918 1.68 0 .939-.86 1.679-1.919 1.679-1.06 0-1.919-.74-1.919-1.68zm58.285 48.41c0-.5.46-.92 1-.92.559 0 .999.42.999.92 0 .52-.44.92-1 .92-.54 0-1-.4-1-.92zm1.839 2.239c0-.72.6-1.32 1.319-1.32.74 0 1.32.6 1.32 1.32 0 .74-.58 1.32-1.32 1.32-.72 0-1.32-.58-1.32-1.32zM99.18 101.099c0-.7.74-1.28 1.639-1.28.92 0 1.639.58 1.639 1.28 0 .72-.72 1.279-1.64 1.279-.899 0-1.638-.56-1.638-1.28z" fill="#fff" fill-rule="evenodd"/><path d="M115.71 105.176c-7.036-.22-8.075 9.714-5.377 14.272 1.66 2.898 4.757 3.917 7.436 5.576 2.278 1.24 5.996 4.358 7.235 6.616-1.859-1.239-4.117-1.639-5.996-2.878-2.259-1.26-4.757-2.898-7.016-4.138-3.518-1.878-7.655-3.318-9.114-7.455-2.899-7.655 4.977-12.632 11.373-11.993zm78.692 63.182a18.238 18.238 0 0 0-5.536 5.657c-1.02 1.459-2.459 3.777-2.459 5.436-.42-1.459-2.678-1.659-3.918-1.879-2.458-.2-4.517-.2-6.556-1.878-1.439-1.26-2.478-2.719-3.697-4.178-.62-.42-1.24-1.06-1.66-1.48-.4-.419-.819-1.038-1.439-1.038.84.62 2.06 1.039 2.879 1.679 1.04.62 2.258 1.239 3.298 1.659 1.219.64 2.458 1.479 3.897 1.679 1.44.22 3.079-.42 4.518-1.04 2.058-1.06 3.897-2.518 5.956-3.778 1.44-.62 3.078-.62 4.317-1.259zm-51.968 49.71c1.239.2 2.698.82 4.137 1.24 1.04.199 2.059.819 3.098 1.438.82.62 1.66 1.44 2.479 2.059.82 1.04 2.278 1.859 2.678 3.098-2.059-2.478-4.117-5.157-4.537-8.675-.2-3.098 1.24-6.196 2.059-9.074.62-2.479.84-4.338-.4-6.616-.62-.82-1.04-1.66-1.66-2.679-.419-.839-1.038-2.078-1.858-2.698 0 .84.62 2.479.62 3.518 0 1.24 0 2.478-.2 3.518-.42 2.059-1.04 4.117-1.46 6.196-.619 1.859-1.638 3.718-2.678 5.577-.62 1.02-1.659 2.058-2.058 3.098zm38.816-112.312c-1.639-.84-4.117-1.48-5.776-1.68-2.479-.419-4.957-.839-7.636-.639-3.098.22-6.196 1.68-9.294 2.099-3.098.42-6.616.22-9.714.84 1.459-.84 3.318-1.04 4.957-1.46 2.079-.64 3.718-1.479 5.796-2.098 3.498-.64 6.796-1.26 10.514-1.48 4.557-.42 9.294-1.678 13.832-1.459-.82 1.68-2.06 4.198-2.26 5.657z" fill="#eab7a4" fill-rule="evenodd"/><path d="M123.005 105.096c1.46 1.5 5.977 1.28 8.036 1.5 2.878.22 5.556.42 8.454.42 2.679 0 5.557-.42 8.235-.64 1.84 0 3.498 0 5.137-.42 1.66-.42 4.338-.64 5.557-1.7-2.459-.439-5.137.84-7.615.84-3.698.22-7.616-.2-11.314 0a68.08 68.08 0 0 1-9.474 0c-1.859 0-3.917.64-5.776.64zm51.929-25.424c.82 3.098 2.898 7.415 5.157 9.674-1.64-.82-2.679-2.878-4.118-4.098-1.239-.84-3.318-1.459-4.357-2.678.84-.84 2.498-.84 3.118-2.059zM66.16 111.492c8.895 8.895 16.35 18.63 25.444 27.504 9.315 8.894 21.707 17.789 33.08 23.985-11.992-9.094-22.526-19.008-34.739-27.703-4.957-3.518-9.714-7.236-13.651-11.373-3.298-3.298-7.855-7.855-10.134-11.573z" fill="#eab7a4" fill-rule="evenodd"/><path d="M119.008 160.023c9.334 3.938 15.97 13.452 22.186 20.687 5.797 7.016 10.754 17.37 9.315 26.245 0-12.613-3.738-22.527-12.433-31.621-6.216-6.416-15.33-16.13-23.625-18.829z" fill="#eab7a4" fill-rule="evenodd"/><path d="M140.855 179.811c3.518 4.357 5.976 9.334 7.215 14.711.42 2.079.82 4.357.82 6.436 0 1.44-.2 2.898-.2 4.138 0 1.659-.82 3.937-.2 5.376 5.137-6.616 2.678-14.71 0-21.746-1.04-2.699-2.678-4.977-4.737-7.036-1.46-1.66-3.718-3.538-4.757-5.197z" fill="#eab7a4" fill-rule="evenodd"/><path d="M146.271 185.128c2.939 3.538 4.198 8.115 5.457 12.492.84 2.279 2.938 9.574-.2 11.014-1.899-3.738-.64-9.135-2.099-12.893zM3.718 26.944c5.996 6.196 11.173 13.232 16.33 20.068 5.177 6.835 10.753 13.251 15.93 20.067 4.537 6.017 9.714 11.593 13.832 18.01 3.318 5.176 7.235 12.412 12.192 15.93-7.215-17.79-18.588-34.14-30.78-48.83-4.958-6.217-9.935-12.213-15.292-17.81-2.078-2.059-3.737-4.137-5.796-5.996-1.24-1.04-3.518-2.059-4.138-3.318z" fill="#eab7a4" fill-rule="evenodd"/><path d="M161.502 171.536c-2.658.2-3.898 4.757-3.478 6.836.82 4.337 2.858 8.475 3.258 13.032.22 4.137.22 8.275-.82 12.213-1.019 4.557-3.477 8.075-2.438 12.832.6 2.698 1.62 4.977 3.258 7.036 1.64 1.878 3.478 5.176 5.737 6.416-.82-1.44-1.02-3.098-1.44-4.757-.4-2.06-1.019-4.558-.819-6.616.42-4.977 1.02-9.735 2.459-14.492 1.019-3.318 2.238-7.255 2.038-10.773-.2-3.298-1.019-5.996-2.238-8.895-.62-1.239-3.278-14.91-6.137-12.632z" fill="#db8a7a" fill-rule="evenodd"/><path d="M168.218 194.962c1.64-3.098-1.859-7.855.62-10.534 1.839-2.079 4.737-.62 6.776-1.459-2.04.22-4.098-2.059-5.537-3.298-1.44-1.24-2.678-2.898-3.918-4.337-.82-1.04-2.678-3.518-4.317-3.718-4.537-.64-1.64 7.016-1.859 8.875z" fill="#db8a7a" fill-rule="evenodd"/><path d="M161.422 172.096c-1.459-.64-2.738 2.278-2.938 3.518-.22 1.858.42 3.937 1.06 5.796.839 2.279 1.678 4.357 2.298 6.636.42 2.499.22 5.817 1.479 7.875 1.26-.62 1.04-3.098 1.04-4.137 0-1.86-1.04-3.518-1.04-5.177-.22-1.46-.22-2.918.42-4.158.42-1.239 1.04-2.478 1.259-3.937.62-3.098-.42-5.597-3.578-6.416z" fill="#c27064" fill-rule="evenodd"/><path d="M160.823 199.919s-2.06 8.715-3.498 12.652c-1.64 3.718-1.86 4.757 3.498 12.832 5.356 8.076 8.235 11.793 7.615 21.527 0 0 .62-7.235 3.898-11.793 3.497-4.557 5.756-7.655 1.239-11.193-4.517-3.298-12.752-2.278-12.752-24.025z" fill="#d0ebf7" fill-rule="evenodd"/><path d="M160.823 199.919s-2.06 8.715-3.498 12.652c-1.64 3.718-1.86 4.757 3.498 12.832 5.356 8.076 8.235 11.793 7.615 21.527 0 0 .62-7.235 3.898-11.793 3.497-4.557 5.756-7.655 1.239-11.193-4.517-3.298-12.752-2.278-12.752-24.025" fill="none" stroke="#fff" stroke-width=".48" stroke-linecap="round" stroke-linejoin="round" stroke-miterlimit="10"/><path d="M326.242 260.162s-3.518 18.789-25.864 24.785c-22.147 5.957-34.34 2.879-45.492-8.275 0 0-3.958-6.396 7.835-10.313 11.593-3.718 64.32-11.593 63.521-6.397z" fill="#d0ebf7" fill-rule="evenodd"/><path d="M323.684 260.122s-5.157 1.48-7.436 4.558c-2.478 3.278-34.699 12.552-44.213 9.674-9.514-2.879-15.11-.6-14.671-2.479" fill="none" stroke="#fff" stroke-width=".48" stroke-linecap="round" stroke-linejoin="round" stroke-miterlimit="10"/><path d="M279.23 287.266s7.037 3.078 9.515 9.914c2.478 6.636 5.157 10.593-1.04 21.547-6.196 10.993-14.47 28.782 2.28 47.011 16.949 18.03 43.573 21.108 62.561-10.753 0 0 2.479-6.036-5.956-8.715-8.475-2.678-29.342-1.839-36.978-.2-7.875 1.64-17.789 7.436-20.667 4.757-2.878-2.878-6.796-12.232 2.079-29.382 6.596-12.872 7.835-14.91 4.957-20.947-2.679-5.996-3.318-11.153 2.038-14.671 5.397-3.558-18.788 1.439-18.788 1.439z" fill="#d0ebf7" fill-rule="evenodd"/><path d="M346.59 346.27c-8.475-2.678-29.342-1.839-36.978-.2-7.875 1.68-17.789 7.476-20.667 4.757-2.878-2.878-6.796-12.192 2.079-29.382 6.596-12.832 7.835-14.91 4.957-20.907-2.679-5.997-3.318-11.193 2.038-14.711.24-.2.24-.2.44-.4.6 0 1.24-.2 1.839-.4 22.306-6.036 25.824-24.865 25.824-24.865v-.2c.84-5.196-51.848 2.679-63.401 6.397-11.793 3.957-7.835 10.353-7.835 10.353 7.195 7.476 15.07 11.194 25.784 11.393 2.279 1.24 6.436 4.158 8.075 9.115 2.478 6.636 5.157 10.553-1.04 21.547-6.196 10.953-14.47 28.782 2.28 46.971 16.949 18.03 43.573 21.108 62.561-10.753 0 0 2.479-5.997-5.956-8.715" fill="none" stroke="#fff" stroke-width=".48" stroke-miterlimit="8"/><path d="M288.345 360.541c0 .4 1.88 4.478 9.514 3.678 7.876-.84 22.507-5.117 28.103-5.756 5.797-.6 23.946-.4 25.385-5.757" fill="none" stroke="#fff" stroke-width=".48" stroke-linecap="round" stroke-linejoin="round" stroke-miterlimit="10"/><path d="M221.106 403.955s6.236 41.335 45.093 37.857c39.656-3.757 35.938-45.332 35.938-45.332s-6.396-4.118-8.475-4.757c-1.839-.8-13.832-9.515-33.26-7.236-19.228 2.478-29.982 11.193-29.982 11.193s-7.635 8.275-9.314 8.275z" fill="#d0ebf7" fill-rule="evenodd"/><path d="M221.106 403.955s6.236 41.335 45.093 37.857c39.656-3.757 35.938-45.332 35.938-45.332s-6.396-4.118-8.475-4.757c-1.839-.8-13.832-9.515-33.26-7.236-19.228 2.478-29.982 11.193-29.982 11.193s-7.635 8.275-9.314 8.275" fill="none" stroke="#fff" stroke-width=".48" stroke-linecap="round" stroke-linejoin="round" stroke-miterlimit="10"/><path d="M300.018 397.48s-57.885 2.278-75.234 7.834" fill="none" stroke="#fff" stroke-width=".48" stroke-linecap="round" stroke-linejoin="round" stroke-miterlimit="10"/><path d="M130.56 397.959s-4.756 16.55 4.958 31.64c9.714 15.091 24.385 19.849 35.738 19.849 11.373 0 33.28-6.397 40.496-33.5 2.478-9.095-.2-16.95-.2-16.95s-7.016-10.354-25.625-15.11c-18.788-4.558-51.229-3.099-55.366 14.07z" fill="#d0ebf7" fill-rule="evenodd"/><path d="M130.56 397.959s-4.756 16.55 4.958 31.64c9.714 15.091 24.385 19.849 35.738 19.849 11.373 0 33.28-6.397 40.496-33.5 2.478-9.095-.2-16.95-.2-16.95s-7.016-10.354-25.625-15.11c-18.788-4.558-51.229-3.099-55.366 14.07" fill="none" stroke="#fff" stroke-width=".48" stroke-linecap="round" stroke-linejoin="round" stroke-miterlimit="10"/><path d="M132.68 397.719s66.1-1.679 77.233 2.079" fill="none" stroke="#fff" stroke-width=".48" stroke-linecap="round" stroke-linejoin="round" stroke-miterlimit="10"/><path d="M98.86 360.342s16.53 17.709 40.695 8.235c5.157-2.06 12.173-6.596 14.232-8.655 0 0-6.176-3.078-9.494-3.498-3.099-.62-9.695-3.718-15.89 0-6.197 3.718-26.845 6.176-29.543 3.918z" fill="#d0ebf7" fill-rule="evenodd"/><path d="M98.86 360.342s16.53 17.709 40.695 8.235c5.157-2.06 12.173-6.596 14.232-8.655 0 0-6.176-3.078-9.494-3.498-3.099-.62-9.695-3.718-15.89 0-6.197 3.718-26.845 6.176-29.543 3.918" fill="none" stroke="#fff" stroke-width=".48" stroke-linecap="round" stroke-linejoin="round" stroke-miterlimit="10"/><path d="M152.108 359.502s-13.832 2.039-18.17 2.838c-4.137 1.02-23.745 2.839-28.922.82" fill="none" stroke="#fff" stroke-width=".48" stroke-linecap="round" stroke-linejoin="round" stroke-miterlimit="10"/><path d="M168.738 282.369c-3.118 5.397-1.86 10.154 3.717 12.852 7.436 3.298 14.672 5.577 13.632 14.911-1.04 8.695-5.157 16.77-5.157 25.465 0 3.318.62 6.636 2.06 9.534 1.238 2.478 2.897 3.318 4.756 5.177 3.098 3.518 7.636 10.553 12.593 5.596 3.737-3.937 1.039-7.055-.62-11.193-1.859-4.557 0-9.114 2.279-13.252 3.937-7.255 9.914-12.013 9.514-20.707-.22-5.177-1.86-10.974-5.997-14.292-3.517-2.898-8.055-4.357-12.392-5.177-1.859-.42-3.738-.42-5.377-1.039-1.859-.62-3.098-1.459-4.757-2.698-3.918-2.479-9.514-10.154-14.051-4.957z" fill="#d0ebf7" fill-rule="evenodd"/><path d="M168.738 282.369c-3.118 5.397-1.86 10.154 3.717 12.852 7.436 3.298 14.672 5.577 13.632 14.911-1.04 8.695-5.157 16.77-5.157 25.465 0 3.318.62 6.636 2.06 9.534 1.238 2.478 2.897 3.318 4.756 5.177 3.098 3.518 7.636 10.553 12.593 5.596 3.737-3.937 1.039-7.055-.62-11.193-1.859-4.557 0-9.114 2.279-13.252 3.937-7.255 9.914-12.013 9.514-20.707-.22-5.177-1.86-10.974-5.997-14.292-3.517-2.898-8.055-4.357-12.392-5.177-1.859-.42-3.738-.42-5.377-1.039-1.859-.62-3.098-1.459-4.757-2.698-3.918-2.479-9.514-10.154-14.051-4.957" fill="none" stroke="#fff" stroke-width=".48" stroke-linecap="round" stroke-linejoin="round" stroke-miterlimit="10"/><path d="M168.738 282.369c-3.118 5.397-1.86 10.154 3.717 12.852 7.436 3.298 14.672 5.577 13.632 14.911-1.04 8.695-5.157 16.77-5.157 25.465 0 3.318.62 6.636 2.06 9.534 1.238 2.478 2.897 3.318 4.756 5.177 3.098 3.518 7.636 10.553 12.593 5.596 3.737-3.937 1.039-7.055-.62-11.193-1.859-4.557 0-9.114 2.279-13.252 3.937-7.255 9.914-12.013 9.514-20.707-.22-5.177-1.86-10.974-5.997-14.292-3.517-2.898-8.055-4.357-12.392-5.177-1.859-.42-3.738-.42-5.377-1.039-1.859-.62-3.098-1.459-4.757-2.698-3.918-2.479-9.514-10.154-14.051-4.957" fill="none" stroke="#fff" stroke-width=".48" stroke-linecap="round" stroke-linejoin="round" stroke-miterlimit="10"/><path d="M100.699 267.938c.84-.22 2.079 0 2.898 0 1.02 0 2.059.2 3.098.2 1.24.2 2.259.4 3.498.4.42.22.82.22 1.44.419.22 0 .619.2.819.2 0 .2-.4.2-.6.2h-2.079a7.97 7.97 0 0 1-3.078 0c-.42 0-1.039.2-1.459 0z" fill="#d2cccb" fill-rule="evenodd"/><path d="M96.681 269.796s8.076 22.067 32.061 21.667c24.205-.2 32.68-17.33 33.92-27.023 0 0-1.44-5.997-13.852-2.479-12.413 3.498-26.484 6.816-32.88 6.196-6.416-.62-21.947-4.557-19.249 1.64z" fill="#d0ebf7" fill-rule="evenodd"/><path d="M96.681 269.796s8.076 22.067 32.061 21.667c24.205-.2 32.68-17.33 33.92-27.023 0 0-1.44-5.997-13.852-2.479-12.413 3.498-26.484 6.816-32.88 6.196-6.416-.62-21.947-4.557-19.249 1.64" fill="none" stroke="#fff" stroke-width=".48" stroke-linecap="round" stroke-linejoin="round" stroke-miterlimit="10"/><path d="M99.18 271.955s6.216 8.315 24.625 6.656c18.609-1.659 27.923-18.728 35.978-15.59" fill="none" stroke="#fff" stroke-width=".48" stroke-linecap="round" stroke-linejoin="round" stroke-miterlimit="10"/><path d="M100.919 275.313c3.078 5.957 9.254 11.513 15.85 13.572 1.44.62 9.674 2.658 8.855-.62-.2-1.04-1.24-1.639-1.839-2.058-1.04-1.02-1.859-1.64-3.098-2.26-2.479-1.238-4.937-2.058-7.616-2.677-3.298-1.02-5.776-2.26-8.454-4.518-1.02-.62-2.459-2.478-3.918-2.258 0 .2 0 .62.22.62zm52.908-10.073c1.439-1.04 4.337-1.68 5.996-1.26 2.279.22 1.46 3.118.84 4.777-.84 2.499-2.499 4.997-4.138 7.076-1.459 2.478-3.318 4.777-5.596 6.436-1.46 1.04-3.119 2.079-4.558 3.118-1.259 1.04-2.918 2.279-4.577 2.479.22-1.86 2.299-3.318 3.538-4.778 1.859-2.478 4.137-4.777 5.796-7.675 1.24-2.279.82-4.157 1.24-6.656.22-1.24.42-2.898 1.459-3.518zm-51.849 7.515c-1.459-.2-2.898-1.64-3.318-3.078-.2-.42-.84-1.44-.2-1.86.4-.42 2.06-.2 2.479-.2 2.079 0 3.937 0 6.016.4 1.04.22 2.079.42 3.318.42.84.2 2.079-.2 2.898.2-2.898 1.44-6.636.84-9.734.84-1.04 0-3.318-.62-3.538.6-.2 1.039 1.26 1.858 2.08 2.478z" fill="#d2cccb" fill-rule="evenodd"/><path d="M98.7 272.115c.82 1.24 2.679 1.66 3.698 2.698.4.4.82.82 1.02 1.24 0 .2.4.82.2.82-.2.2-.82-.42-.82-.62-.6-.42-1.02-1.04-1.64-1.66-.4-.4-.819-.619-1.219-1.019-.42-.42-.82-.62-1.019-1.04z" fill="#d2cccb" fill-rule="evenodd"/><path d="M98.7 272.115c.22.64.62 1.04.84 1.68.4.399.6 1.018 1.02 1.438.619 1.04 1.218 2.079 2.038 3.118 1.04 1.66 2.059 3.318 4.117 3.938.2 0 1.02.62 1.22.42.2-.42-.4-1.24-.4-1.24-1.04-1.259-1.859-2.498-2.878-3.537-.62-.82-1.44-1.24-2.06-2.08-.2-.2-.599-.619-.819-1.039-.4-.4-1.02-.82-1.639-1.019z" fill="#d2cccb" fill-rule="evenodd"/><path d="M103.497 279.61c.84 1.04 1.68 2.06 2.719 3.099.82.62 1.659 1.239 2.478 1.659.64.4 1.46 1.019 2.299 1.019.82-.2-.42-1.24-.84-1.44-1.459-1.658-3.318-3.097-4.977-4.556zm-2.798-7.335c-.4-.62-1.22-.82-1.619-1.24-.62-.419-1.24-.839-1.64-1.239-.199-.42-.419-1.259-.199-1.878.2-.42 1.02-.62 1.42-.62.419-.22 1.238 0 1.438.2.4.42-.42.84-.62 1.04-.399.419-.2.839-.2 1.258 0 .2.4.82.4 1.04z" fill="#d2cccb" fill-rule="evenodd"/><path d="M97.5 267.758c.64-.42 1.26-.62 1.88-.62.82-.22 1.859 0 2.698 0 1.24 0 2.479.2 3.938.42.4.2 1.239.2 1.439.62.2.22.2.22 0 .22-.42.2-1.24 0-1.44 0-2.078-.42-3.937 0-5.816 0zm1.78 3.198c1.459.82 2.918 2.278 4.357 3.318 1.04.62 2.079 1.239 3.118 1.659 1.24.42 2.919.82 3.938.62 0-.42-1.66-.62-2.059-.82-.84-.22-1.459-.64-2.298-.84-1.24-.62-2.479-1.239-3.738-1.858-.82-.42-1.44-1.04-2.059-1.88-.42-.42-.84-2.078-1.679-1.658z" fill="#d2cccb" fill-rule="evenodd"/><path d="M100.699 273.834c0-.5.4-.92.88-.92.5 0 .879.42.879.92 0 .52-.38.92-.88.92-.48 0-.879-.4-.879-.92zm-2.559-1.919c0-.36.34-.68.76-.68s.76.32.76.68c0 .38-.34.68-.76.68s-.76-.3-.76-.68zm-1.998-1.519c0-.46.38-.84.84-.84.479 0 .839.38.839.84 0 .48-.36.84-.84.84-.46 0-.84-.36-.84-.84z" fill="#fff" fill-rule="evenodd"/><path d="M96.182 265.26c-.84-1.66-.62-4.358-.42-5.997.22-2.479.62-5.177 1.04-7.456 1.039-4.137 3.097-11.373 5.796-14.47 7.435-8.696 18.389-17.59 32.86-13.653 3.118.82 7.875 3.099 9.934 5.797 1.439 2.059.62 3.098-1.44 3.298-5.176.42-10.133 2.279-15.31 3.518-5.377 1.04-10.554 2.079-14.471 6.216-2.699 2.878-4.557 6.616-4.957 10.534-.42 3.098.4 6.835-1.46 9.734-1.438 2.058-2.898 1.639-4.956 2.258-1.66.22-3.098 1.04-4.757 1.24z" fill="#db8a7a" fill-rule="evenodd"/><path d="M95.882 263.64c-.22.42.2 2.079.62 2.499.819.62 2.278.42 3.118.42 2.058-.2 4.137-.62 6.416-.62 4.777 0 9.554.62 14.53.62 2.28 0 4.138 0 6.217-.84 2.079-.62 4.358-1.04 6.216-2.079-2.898.84-6.216 0-9.114 0-3.318 0-6.636.42-9.954-.2-4.158-.62-3.318-3.957-4.158-7.275-.42-2.079-.819-3.958-2.478-5.617-1.26-1.04-3.538-1.459-4.977-.62-.22 0-.42.42-.64.42z" fill="#db8a7a" fill-rule="evenodd"/><path d="M97.221 264.88c-.62.62-1.02-3.738-1.02-4.358-.22-2.279-.22-4.777.4-7.056 1.24-4.977 2.679-11.193 6.796-14.53.2 1.258-.62 2.298-1.02 3.337-.619 1.44-1.438 2.898-1.858 4.358-1.24 3.318-1.859 6.835-2.059 10.153-.2 1.66-.82 5.617.82 6.856 1.439 1.04 4.737.2 6.376.42-2.059 2.059-5.956 1.24-8.635 1.24z" fill="#c27064" fill-rule="evenodd"/><path d="M100.44 265.06c1.038-.22 2.278.2 3.317.2 1.66 0 3.098-.2 4.757-.2 3.098-.22 5.997.819 9.295.619-.82-.42-2.06-.2-2.879-.42-1.039-.2-2.278-.62-3.318-.82-1.439-.22-2.898-.639-4.337-.839-1.46-.22-2.898 0-4.557-.22-2.279 0-3.518-.4-4.338-2.498-.2-.4-.42-1.04-.62-1.44 0-.419 0-1.059-.2-1.678-.839-1.88-1.258 1.259-1.038 1.879 0 1.459 0 3.338.819 4.377.62.62 1.859.82 2.479.82z" fill="#c27064" fill-rule="evenodd"/><path d="M123.265 268.857c-3.498.82-7.015 1.02-10.533 1.839-1.86.42-3.718 0-5.577-.2-.82 0-4.137 0-3.518 1.64.42 1.018 2.699 1.018 3.738 1.238 1.859.2 3.098.4 4.737 1.64 2.479 2.038 5.797 2.858 8.895 2.038 2.058-.4 4.337-.82 6.396-1.42 1.859-.419 3.718-1.238 5.776-1.858 2.699-.82 5.377-2.259 7.656-3.898 1.639-1.019 3.498-1.838 5.157-2.878.62-.4 2.678-1.439 2.478-2.458-1.44-.42-2.898.2-4.137.42-2.26.4-4.338 1.219-6.397 1.638-2.278.6-4.757 1.02-7.015 1.44-1.46.2-3.098.4-4.558.6-1.019.22-2.258 0-3.298.419z" fill="#e3f1f7" fill-rule="evenodd"/><path d="M151.308 263.08c-.62.42-1.859.62-2.678 1.04-1.44.82-3.098 2.059-4.557 3.078-3.518 2.259-7.236 3.898-10.954 5.737-4.557 2.258-10.134 4.517-15.31 3.497 2.278 1.84 7.035.42 9.734.2 3.518-.62 6.616-2.258 9.514-4.097 2.678-1.64 5.377-3.078 7.855-4.517 1.859-1.24 2.898-3.079 4.757-4.098.2-.22 1.02-.42 1.24-.42z" fill="#fff" fill-rule="evenodd"/><path d="M117.809 276.992c0-.38.42-.72.919-.72.52 0 .92.34.92.72 0 .4-.4.72-.92.72-.5 0-.92-.32-.92-.72zm1.679 1.639c0-.42.38-.76.84-.76.479 0 .839.34.839.76s-.36.76-.84.76c-.46 0-.84-.34-.84-.76z" fill="#fff" fill-rule="evenodd"/><path d="M144.313 271.715c1.019-1.039 2.678-2.078 3.717-3.098.82-.62 1.66-1.24 2.679-1.859.84-.42 1.239-.64 1.239.62 0 1.02-.4 2.059-.4 3.098-.42 2.479-.42 4.537-2.278 6.616-1.44 1.66-3.318 2.898-4.558 4.957-.4.82-.82 1.44-1.639 2.059-.64-.82.4-3.298.4-4.338.22-1.239.22-2.898.22-4.137-.22-.82-.42-1.859-.42-2.678.2-.62.62-1.04 1.04-1.46z" fill="#cadde2" fill-rule="evenodd"/><path d="M103.757 363.34c0 .64 1.04.84 1.66 1.259a4.18 4.18 0 0 0 1.638 1.04c1.24 1.039 2.678 1.678 4.118 2.298 1.659.82 3.098 1.24 4.957 1.659 1.019.22 1.858.62 2.678.62 1.639 0 1.24-.62.42-1.66-2.479-2.698-6.396-2.698-9.694-3.337-1.24-.42-2.679-.42-3.718-.82-.82-.22-1.64-1.06-2.479-1.06l.22.22zm48.471-3.198c-.82.4-1.42 1.02-2.039 1.439-1.02.62-2.059 1.24-2.878 1.859-1.64 1.04-3.278 2.278-5.117 3.318-1.42.62-3.058 1.439-4.497 1.859-1.24.4-2.06 0-1.02-1.24.6-.62 1.64-.84 2.459-1.239 1.02-.42 1.839-1.04 2.858-1.459 2.259-1.04 4.497-2.479 6.756-3.718 1.02-.62 2.258-1.459 3.478-1.04.2 0 0 0 0 .22zm-51.309 1.338c3.098 0 5.776 0 8.655-.219 1.659 0 3.298.22 4.737-.2.42-.2 1.659-.84 2.278-.62 1.02.42-.22 1.04-.82 1.04-1.039.42-3.097.2-3.917 1.04.6.619 3.298.2 4.318.2 1.239.219 3.098.219 4.117.619-.82 1.04-3.078.22-4.317.22-1.86 0-3.518.2-5.157 0-1.859 0-3.298-.42-4.957-.84-1.44-.2-2.878 0-4.118-.42-.42-.2-1.039-.4-.62-.62z" fill="#d2cccb" fill-rule="evenodd"/><path d="M148.37 358.882c-1.44-.4-4.117.62-5.577 1.02-2.258.2-4.337.82-6.596 1.02-1.659.2-3.318.2-5.176.399-1.24.22-2.679.62-4.138.62-3.918.4-7.635.4-11.573.4-.2 0-.4.2-.62 0 .42-.8 2.08-.8 2.899-1.02 1.239-.4 2.698-.8 4.137-1.02 2.479-.4 5.157-.799 7.855-.999 2.679 0 5.377-.42 8.255-.62 2.699-.2 5.377-.2 8.056-.2 1.039 0 2.478-.419 2.898.4.2 0 0 0 0-.2z" fill="#e3f1f7" fill-rule="evenodd"/><path d="M113.531 365.419c2.059 0 4.118 1.259 5.557 2.698.84.62 1.24 1.659 1.859 2.279.82.42 2.678.62 3.498.22 0-.62-.4-1.26-.6-1.88-.42-.819-.62-1.658-1.04-2.478-.62-1.04-1.439-1.46-2.678-1.659-1.239-.22-2.478 0-3.718 0-1.239.2-2.478.2-3.717.42.22.2.22.4.42.62z" fill="#cadde2" fill-rule="evenodd"/><path d="M150.269 358.882c-3.298.42-6.616.82-9.914 1.02-1.04.2-2.059.62-3.318.62-1.44.2-3.098.2-4.737.4-2.699.399-5.597 1.219-8.495 1.618 2.279-.6 4.137-1.219 6.416-1.619 1.24-.4 2.279-.82 3.518-1.219 1.659-.4 3.298-.82 4.957-.82 2.478-.4 4.757-.6 7.236-.6 1.459-.219 2.698.4 4.137.4zm-31.981 5.138a.7.7 0 0 1 .68-.68c.38 0 .68.32.68.68 0 .38-.3.679-.68.679-.36 0-.68-.3-.68-.68zm2.159.08c0-.32.24-.6.52-.6.3 0 .52.28.52.6 0 .34-.22.599-.52.599-.28 0-.52-.26-.52-.6zm-3.757 0c0-.32.22-.6.479-.6.28 0 .48.28.48.6 0 .34-.2.599-.48.599-.26 0-.48-.26-.48-.6zm-13.513-1.16c0-.3.26-.56.56-.56.32 0 .56.26.56.56 0 .32-.24.56-.56.56-.3 0-.56-.24-.56-.56zm-1.679-.68c0-.24.22-.44.48-.44.28 0 .48.2.48.44 0 .26-.2.44-.48.44-.26 0-.48-.18-.48-.44zm34.46-7.595c0-.46.32-.84.68-.84.379 0 .679.38.679.84 0 .48-.3.84-.68.84-.36 0-.68-.36-.68-.84zm1.838-.28c0-.16.16-.32.32-.32.18 0 .32.16.32.32 0 .18-.14.32-.32.32-.16 0-.32-.14-.32-.32z" fill="#fff" fill-rule="evenodd"/><path d="M139.555 399.678c-2.478 0-4.977-.84-7.455-.62-1.26 2.259-.84 5.777-.84 8.235 0 4.118.62 8.035 1.88 11.953 1.239 4.337 2.898 8.455 5.376 12.372 3.118 5.157 7.875 8.255 13.472 10.314 1.879.62 5.397.62 6.836 1.839-9.115-4.517-15.75-13.592-19.269-23.066-1.659-4.337-3.318-9.294-3.118-13.612 0-2.258.84-6.596 2.919-7.415z" fill="#d2cccb" fill-rule="evenodd"/><path d="M156.425 444.93s24.445 10.354 42.854-8.894c18.629-19.049 11.593-34.6 11.593-34.6s-7.455-2.278-9.514-1.858c-1.859.62 4.337 7.455 4.957 10.973.84 3.738-2.059 18.03-12.213 25.265-9.934 7.455-20.687 13.052-37.677 9.114zm-22.846-49.23c2.898-3.118 5.377-5.836 9.115-8.135 2.678-1.659 6.416-3.758 9.714-3.758.62 0 3.318 0 3.518.84.22 1.04-1.44 1.459-2.06 2.099-.619.62-1.658 1.878-1.658 2.698 0 1.679 1.659 1.46 2.898 1.879 1.659.64 6.196 1.879 3.318 3.758-2.079 1.259-5.597.42-7.875.839-4.138.42-8.475.42-12.413.62-1.659.22-3.518.62-4.757 0-.22-.42 0-.42.2-.62z" fill="#d2cccb" fill-rule="evenodd"/><path d="M140.315 399.678c-2.898 2.278-3.318 6.396-3.098 9.914 0 2.478.62 4.757 1.659 7.016.82 2.478 1.639 5.996 3.498 8.055.22-2.679-.62-5.577-.82-8.255-.2-2.899-.2-5.157.82-7.856.84-2.058 1.879-3.917 3.318-5.576.82-1.02 3.298-2.059 3.298-3.298-2.259-.84-5.777 0-8.255 0zm12.852 35.738c4.757 9.075 19.448 8.875 27.504 6.196 3.317-1.039 12.612-5.976 10.973-10.933-1.46-4.337-7.236-2.259-10.134-1.639-3.518.82-7.236 1.44-10.753 1.639-3.518 0-6.836-1.24-10.134-1.24-3.318-.2-10.354 1.66-7.036 5.577zm47.791-38.516c2.878 1.019 6.136.62 8.795 1.618-.4-1.199-3.458-2.618-4.497-3.437-1.42-.8-2.659-2.619-4.298-3.039.22 1.22 2.059 2.04 2.059 3.039-.2.62-1.639 1.419-2.059 1.818z" fill="#cadde2" fill-rule="evenodd"/><path d="M159.803 385.346c-.84-.2-2.698 1.04-3.318 1.44-1.659 1.019-1.24 2.258.42 3.078.82.4 1.659.6 2.279 1.02.819.399 1.439 1.018 2.058 1.418 2.479 1.44 6.416 1.24 9.115 1.24 3.298.2 6.396.819 9.514 1.219 2.678.2 5.577-.2 8.275-.2 2.478.2 4.957.6 7.635.6 1.26 0 4.138-.4 2.499-2.439-1.04-1.24-4.358-1.839-5.797-2.459-2.478-1.019-4.957-1.838-7.455-2.858-3.718-1.439-7.855-2.258-11.573-2.658-3.718-.42-10.973-2.059-14.072.4z" fill="#e3f1f7" fill-rule="evenodd"/><path d="M148.05 395.04c-.2 0-.42 0-.42.2 1.66.6 4.138.4 5.997.4 3.318-.2 6.616-.2 9.914-.4 4.557-.2 9.294-.2 13.851-.4 6.816-.2 14.032.2 20.848.6-1.859.6-4.957-.6-7.016-.8-3.298-.2-6.616-.799-9.914-.799-4.957 0-9.914-1-14.87-.8-3.519.2-7.017.6-10.534.6-2.479 0-4.957.4-7.236 1-.42 0-.62 0-1.04.2zm34.76-9.714c1.658 1.46 5.136 1.86 7.195 2.479 2.458.82 4.717 1.859 7.175 2.678a42.188 42.188 0 0 1 9.215 5.557c-2.858-3.078-7.176-5.557-11.073-7.416-1.84-1.019-4.298-1.639-6.357-2.058-1.019-.2-2.258-.2-3.278-.4-.62-.22-2.258-.42-1.838-.62zm26.943 12.993c0-.54.6-1 1.32-1 .739 0 1.318.46 1.318 1 0 .56-.58.999-1.319.999-.72 0-1.32-.44-1.32-1z" fill="#fff" fill-rule="evenodd"/><path d="M149.31 397c0-.74.6-1.36 1.319-1.36.74 0 1.319.62 1.319 1.36 0 .759-.58 1.359-1.32 1.359-.719 0-1.318-.6-1.318-1.36zm-3.518.44c0-.5.46-.92.999-.92.56 0 1 .42 1 .92 0 .519-.44.919-1 .919-.54 0-1-.4-1-.92zm7.515.399c0-.36.34-.68.76-.68s.76.32.76.68c0 .38-.34.68-.76.68s-.76-.3-.76-.68zm-23.825-.08c0-.68.6-1.24 1.319-1.24.74 0 1.319.56 1.319 1.24 0 .7-.58 1.24-1.32 1.24-.719 0-1.318-.54-1.318-1.24z" fill="#fff" fill-rule="evenodd"/><path d="M224.144 403.715c5.157-1.879 7.436-8.674 12.593-9.914 0 1.68-2.479 3.118-2.479 4.757 0 2.08 3.318 1.44 4.957 1.24 1.839-.2 5.557-1.84 7.436-1.04 2.438 1.24-.84 1.64-2.08 1.88-3.517.399-7.235.799-10.913 1.198-3.118.44-6.196 2.08-9.314 2.28-.2 0-.8.399-1.24.399.44-.6 1.04-1 1.04-1zm-1.039 4.398s5.157 22.106 26.304 30.541c0 0-17.67-12.152-18.07-21.667-.399-9.474-.799-11.353-8.234-8.874zm30.621 31.94s23.866 4.118 36.538-10.353c12.632-14.512 10.594-30.702 10.594-30.702l-17.43 1.68s1.44 4.956 7.436 4.556c6.036-.4 6.236 3.119 5.396 5.997-.8 2.918-8.914 28.183-42.534 28.822z" fill="#d2cccb" fill-rule="evenodd"/><path d="M241.694 392.162c-2.479 1-7.476 6.996-1.68 6.796 1.88 0 3.718-1.239 5.797-1.239 2.079 0 3.718 1.24 5.797 1.24 4.117.2 8.474-.8 12.392-1.44 4.957-.6 10.114-1.04 15.11-1.639 3.719-.64 6.797-.84 10.514-.44 3.518.44 3.918-1.439.84-3.078-9.514-5.197-21.507-4.957-32.06-4.557-3.478.2-6.796.64-10.314 1.04-2.279.4-4.158 1.438-6.197 2.278 0 .4-.2.4-.44.6z" fill="#e3f1f7" fill-rule="evenodd"/><path d="M234.338 405.154c-2.079.44-2.918.64-2.678 3.119.2 1.679.6 3.118.6 4.997-.2 3.717.2 6.636 2.718 9.514 1.039 1.04 3.917 3.718 4.757 1.879.2-.64-.64-2.919-.84-3.758-.2-1.839-.4-3.718-.2-5.557.64-3.757 3.918-10.194-2.078-10.194-.84 0-1.64 0-2.479.24zm49.49-2.238c1.24 5.836 5.756 2.079 9.474 3.758 4.717 1.838 1.04 8.474-1.439 10.993-4.957 5.157-7.036-3.118-8.875-6.436-1.039-1.88-2.078-3.958-2.078-6.037 0-1.239.64-4.357 2.078-2.278.2.24.4.44.4.64zm-38.497 27.504c1.64 3.717 9.714 5.356 13.232 5.356 6.436 0 11.793-1.64 17.19-5.157 2.678-1.839 6.596-5.157 2.478-8.035-2.678-2.079-6.636.2-9.514.4-6.436.84-13.472-2.239-19.468.84-3.518 1.638-3.918 3.077-4.158 6.595z" fill="#cadde2" fill-rule="evenodd"/><path d="M248.01 403.316c-1.88-.24-4.957.6-5.997 2.478-1 1.68-1.239 7.476.24 8.715 2.439-1.24 3.278-4.757 5.757-6.436 1.04-.6 6.396-2.479 6.796-3.518.6-2.519-6.996-.44-8.036 0zm-86.728-3.998c-3.298 0-7.215.22-10.314 1.46-2.458.839-5.976 5.636-5.756 8.334 2.459.2 4.937-3.118 6.996-4.157 3.098-1.46 6.396-1.68 9.694-2.299 1.24-.2 4.517-.62 3.498-2.279-.42-.64-3.298-.64-4.118-.64z" fill="#e3f1f7" fill-rule="evenodd"/><path d="M245.171 399.678c3.079.84 6.397-1.04 9.475-1.48 5.356-.839 10.953-1.039 16.51-1.678 5.157-.64 10.553-1.28 15.71-1.28 2.279 0 4.757 0 6.996-.24-1-.639-2.678-.4-3.918-.4-3.478-.239-7.195-.239-10.913.4-5.397.64-10.953 1.08-16.31 1.28-2.079.24-3.958.88-5.997 1.08-2.078.2-4.117.839-5.996 1.478-1.839.84-3.918.64-5.796 1.28zm-4.797-7.316c.24-.8 2.519-2.079 3.318-2.478 2.479-1.48 5.197-2.319 8.075-3.158 3.758-1.04 7.876-1.88 11.793-1.64-7.635 2.28-16.35 2.48-23.186 7.076zm-20.467 11.953c0-.54.52-1 1.159-1 .66 0 1.16.46 1.16 1 0 .56-.5 1-1.16 1-.64 0-1.16-.44-1.16-1zm3.997 1.279c0-.32.34-.6.76-.6s.76.28.76.6c0 .34-.34.6-.76.6s-.76-.26-.76-.6zm2.879-.759c0-.26.22-.48.48-.48.28 0 .479.22.479.48 0 .28-.2.48-.48.48-.26 0-.48-.2-.48-.48zm72.436-7.315c0-.44.32-.84.68-.84.399 0 .679.4.679.84 0 .479-.28.839-.68.839-.36 0-.68-.36-.68-.84zm-2.159.079c0-.24.32-.44.64-.44.36 0 .64.2.64.44 0 .28-.28.44-.64.44-.32 0-.64-.16-.64-.44z" fill="#fff" fill-rule="evenodd"/><path d="M250.768 386.246c0-.56.6-1.08 1.32-1.08.759 0 1.318.52 1.318 1.08 0 .6-.56 1.08-1.319 1.08-.72 0-1.319-.48-1.319-1.08zm3.598-.48c0-.32.24-.6.52-.6.32 0 .52.28.52.6 0 .36-.2.6-.52.6-.28 0-.52-.24-.52-.6z" fill="#fff" fill-rule="evenodd"/><path d="M281.31 341.673c-.24 3.318.999 7.036 2.038 9.914 1.04 2.918 2.919 4.757 4.558 7.036.839 1.039 1.678 2.678 2.918 3.278 1.439.84 3.717 1.239 5.356 1.239 1.44.2 4.758.2 4.957-1.64.4-2.278-3.517-1.438-4.557-1.638-5.756-.2-10.313-3.318-11.992-8.675-1-3.118-1-6.796-3.079-9.074zm13.072 23.586h-2.519c0 1.479 2.079 2.278 2.918 2.918 1.44 1.04 2.479 2.278 3.918 3.318 2.678 2.278 5.996 4.157 9.314 5.397 1.84.64 3.918 1.639 5.997 1.639 1.04 0 1.839 0 1.639-1.24-.2-1.039-2.279-1.639-3.078-2.078-5.197-2.04-9.954-4.558-14.072-8.076-.84-.6-3.718-2.918-4.357-1.878zm51.808-18.229c2.079.24 4.997 2.318 4.597 5.037-.4 1.479-4.997 4.157-6.476 3.358 1.28-1.68 4.797-1.48 4.398-4.398 0-1.04-.64-1.679-1.24-2.318-.44-.4-1.279-.6-1.039-1.44zm-90.745-73.676c-1.879 2.04 4.118 6.596 5.597 7.436 2.878 2.039 6.396 3.478 9.914 4.117 4.957.84 9.914 1.04 13.632 4.318-2.24-2.239-4.118-4.118-7.236-5.357-2.039-.84-4.517-1.639-6.396-3.078-1.64-1.04-2.279-2.479-3.318-4.158-1.64-2.278-3.918-2.038-6.396-2.678-1.04-.4-2.08-.6-3.118-1.04-.8-.4-2.04-1.039-2.879-1.039 0 .24-.2.64 0 1.04z" fill="#d2cccb" fill-rule="evenodd"/><path d="M283.388 282.509c.84.44 1.68 1.279 2.918 1.479 1.84.6 3.318.4 5.157.2 1.64-.4 2.879-.84 4.558-1.68 1.439-.599 3.078-.799 4.757-1.039 3.078-.2 7.435-1.239 9.914-3.318.4-.4 2.038-2.278 1.839-3.118-.4-1.479-2.479-.2-3.278 0-2.719 1.24-5.597 2.719-8.475 3.518-3.118.84-6.197 1.04-9.515 1.28-1.639.2-7.875-.24-7.635 2.678v.24z" fill="#cadde2" fill-rule="evenodd"/><path d="M312.49 260.122c2.08-.6 4.358-1.039 6.437-.8 3.078 0 1.04.8-.44 1.84-2.239 1.479-3.718 3.957-6.196 5.197-2.079.84-4.358 1.439-6.596 2.078-1.48.4-3.318.8-4.797.2 2.078-2.079 6.036-2.678 8.514-4.357 1.04-.4 2.28-1.04 2.479-2.079.4-.6-.44-1.439.6-1.639z" fill="#d2cccb" fill-rule="evenodd"/><path d="M311.251 372.654c1.04.6 1.88 1.24 3.118 1.64 1.44.599 3.079.799 4.718.799 3.717.4 7.435-.4 10.953-1.2 3.278-.84 6.156-2.678 8.435-5.316.64-.6 1.839-2.239 1.04-3.238-.64-.64-2.48-.4-3.319-.4-2.238.2-4.317 1.599-6.396 2.438-2.678 1-5.557 1.84-8.435 2.239-1.839.2-11.353-.84-10.713 2.638 0 .2.2.6.4.8zm24.625-27.144c2.08 0 11.953 1.28 11.154 4.878-.4 1.439-2.679.2-3.718-.24-2.079-.84-3.918-1.24-6.196-1.48-.8-.2-3.718-.2-4.318-1.239-.64-.839.84-1.479 1.44-1.679.4 0 .639.2.839.2zm-44.213-43.933c1.64 1.2 1.24 6.996 1.04 8.835-.2 2.039-1.24 4.117-2.279 5.756-1.04 1.88-2.718 4.318-3.358 6.397 1.48.799 4.797-5.557 5.437-6.596 1.239-2.28 1.839-4.518 1.839-7.196 0-1.44-.6-8.435-2.479-8.675v1.04zm21.267-27.943c0 .6.4 1.44.2 2.279-.2 1.04-1.279 1.639-1.04 2.678 1.64-.2 2.92-2.678 4.158-3.917 1.44-1.68 3.118-3.558 4.358-5.197 1.04-1.44 3.957-6.037 3.158-7.916-1.04.24-1.88 2.719-2.319 3.558-1.24 1.88-2.678 3.318-4.157 4.957-1.24 1.48-2.719 2.919-4.358 3.358zm-52.048-5.596c-1.44.839-3.318 3.517-.4 3.318 2.878-.4 5.517 0 8.195 1.039 1.68.6 3.718 2.039 5.557 2.039.64 0 1.639-.2 1.639-1-.2-.84-1.64-1.04-2.239-1.04a10.296 10.296 0 0 1-3.278-1.878c-1.04-.6-1.24-.84-.84-1.839.4-1.24 2.679-3.518.4-3.518-1.439-.24-3.677 1.04-4.917 1.44-1.439.6-2.678 1.239-3.917 1.638zm36.178 97.221c1.44.64 2.478 1.479 3.518 2.278.6.64 1.839 2.279 2.878 1.68.6-.2.8-1.44 1.2-1.88.639-.84 1.438-1.039 2.278-1.439 1.24-.4 3.878-1.239 4.277-2.278-2.438-.44-5.316.84-7.995.84-1.199.199-2.238.399-3.478.399-1 0-1.839-.2-2.678.2z" fill="#cadde2" fill-rule="evenodd"/><path d="M345.23 352.426c-.399-2.478-9.314-2.078-11.392-3.118-2.879-1.639-3.518-2.918-7.236-1.879-4.557 1.48-9.314 2.919-13.632 4.997-1.479.8-7.275 3.918-6.636 6.197 1.04 3.917 13.032-2.08 15.111-2.679 4.757-1.239 9.914 0 14.471-1.239 2.08-.64 4.358-1.679 6.397-1.879 1.279 0 2.278.4 3.517.4 0-.6-.2-.8-.6-1.04zm-9.673 7.436c1.439 1.479 6.396-.44 8.075-1.08 3.078-1.039 4.917-1.279 2.878 2.559-.44.84-1.44 2.958-2.478 3.158-1.24.2-1.88-1.28-2.879-1.679-2.278-1.08-4.757.2-6.436-1.919zm-60.644-94.063c-1.199.24-2.878 1.879-1.839 3.118.4.64 1.84.44 2.679.84 1.04.64 1.439 1.878 2.678 2.278 2.479 1.04 5.757-.6 8.195-1.439 1.68-.64 3.518-1.04 5.157-1.679 1.04-.4 4.318-1.639 4.917-2.478 1.64-2.719-3.278-1.68-4.517-1.68-2.239.24-4.717.44-7.196.44-3.478 0-6.556 0-9.834.2zm9.275 13.032c-2.079 0-1.84 3.478-1.84 4.877-1.078-.6-2.518-1.2-2.717-2.438-.24-1.44 1.439-2.679 3.118-2.439zm5.037 44.053c-.84 2.079-2.319 3.958-3.158 6.436-.64 2.08-.64 4.558-.84 6.836-.24 3.718-.24 8.675.84 12.393-2.359-2.479-2.12-8.035-2.12-11.153 0-4.558 1.28-8.915 3.799-12.433z" fill="#e3f1f7" fill-rule="evenodd"/><path d="M306.894 361.141c1.879-.2 3.758-1.439 5.597-1.839 2.078-.44 3.917-.64 5.996-1.04 3.318-.639 6.836-1.478 10.114-1.678 3.318-.2 6.636.2 9.754-.6 1.839-.64 5.357-1.679 5.956-3.757-2.878 1.279-4.957 2.718-8.035 3.118-3.118.44-6.196-.2-9.314 0-6.836.44-14.272 1.878-20.068 5.996zm-12.792-58.245c2.079 3.358-1.44 11.034-3.318 13.952-1.24 2.279-2.479 4.557-3.518 6.836-1.04 2.718-3.318 5.836-3.558 8.715 2.519-5.397 5.637-9.755 7.915-14.752 1.04-2.278 1.88-4.557 2.479-7.035.44-1.68 1.279-5.397.24-6.876zm-14.392-30.901c6.836-.2 12.833-1.879 19.429-3.318 2.478-.44 4.757-.64 7.035-1.679 1.64-.6 3.079-1.439 4.718-2.079-1.44 2.319-6.157 3.318-8.435 3.958-3.118 1.04-6.197 1.679-9.115 2.279-2.238.44-4.717 1.039-6.996 1.239-2.078.2-4.157-.4-6.196-.4zm-21.307-1.879c0 .24-.64.64-.84.84-.639.4-1.038.6-.839 1.439.2 1.439 1.24 2.638 2.679 2.838-1.44 0-2.878-.6-3.278-2.238-.24-1.64.8-2.879 2.478-2.879z" fill="#fff" fill-rule="evenodd"/><path d="M257.404 272.555c0-.64.44-1.16.92-1.16.52 0 .919.52.919 1.16 0 .64-.4 1.16-.92 1.16-.48 0-.919-.52-.919-1.16zm2.958.36c0-.44.4-.8.84-.8.48 0 .84.36.84.8 0 .48-.36.8-.84.8-.44 0-.84-.32-.84-.8zm53.648-6.836c0-.52.36-1 .76-1 .439 0 .759.48.759 1 0 .56-.32 1-.76 1-.4 0-.76-.44-.76-1zm1.998-1.559c0-.2.2-.4.44-.4.28 0 .44.2.44.4 0 .24-.16.4-.44.4-.24 0-.44-.16-.44-.4zm-26.304 86.787c0-.48.52-.92 1.08-.92.6 0 1.08.44 1.08.92 0 .52-.48.92-1.08.92-.56 0-1.08-.4-1.08-.92zm-2.638 9.514c0-.52.56-1 1.24-1 .719 0 1.239.48 1.239 1 0 .56-.52 1-1.24 1-.68 0-1.239-.44-1.239-1zm1.279-2.398c0-.32.32-.6.68-.6.4 0 .68.28.68.6 0 .36-.28.6-.68.6-.36 0-.68-.24-.68-.6zm31.021.44c0-.92.52-1.68 1.08-1.68.6 0 1.08.76 1.08 1.68 0 .959-.48 1.678-1.08 1.678-.56 0-1.08-.72-1.08-1.678zm4.318.279c0-.48.52-.92 1.16-.92.639 0 1.158.44 1.158.92 0 .52-.52.92-1.159.92-.64 0-1.16-.4-1.16-.92zm21.826-13.192c0-.68.56-1.239 1.24-1.239.72 0 1.24.56 1.24 1.24 0 .719-.52 1.239-1.24 1.239-.68 0-1.24-.52-1.24-1.24z" fill="#fff" fill-rule="evenodd"/><path d="M175.354 294.482c7.395 3.298 13.971 10.353 11.913 19.048-1.22 4.557-3.498 8.495-4.318 13.252-.2 2.478-2.059 11.593 1.859 12.412 1.24-2.258.4-5.796.82-8.275.42-3.318 1.439-6.616 2.258-9.734 1.24-5.596 3.078-8.894 1.24-14.291-1.44-4.957-7.816-13.452-13.572-13.672-.42.64-.2 1.26 0 1.88zm12.732 53.607c2.279 1.24 3.098 4.737 5.577 5.956 1.639.82 5.137.42 4.737-2.058-.42-2.659-3.718-.4-5.357-1.44-1.859-1.219-2.059-4.317-4.957-3.697v1.439z" fill="#d2cccb" fill-rule="evenodd"/><path d="M169.137 288.945c.22 3.918 3.898 7.635 6.137 3.098 3.078-.62 3.678 2.898 6.336 2.678-.6-2.478-3.258-3.917-5.517-4.337-1.639-.2-2.658 0-3.877-.62-1.02-.4-1.64-1.439-2.659-1.659-.2.42 0 .62-.2.84zm20.008 30.901c-2.498 3.538-1.859 8.095-2.698 12.253-.84 4.777-.62 6.856 2.279 10.993.64 1.04 2.918 4.977 4.157 3.118 1.04-1.24-2.279-4.777-2.698-6.016-.82-1.66-.82-3.118-1.04-4.977-.2-5.197 2.08-9.554 1.26-14.731-.64 0-.84 0-1.26.2z" fill="#cadde2" fill-rule="evenodd"/><path d="M190.105 293.682c7.715 2.059 15.83 4.137 17.71 13.232.819 4.137.819 8.075-1.26 12.013-1.66 3.318-3.958 4.757-6.456 7.455-1.24 1.44-3.938 8.075-5.617 8.695-5.197 1.639.84-12.213 1.68-13.672 2.498-4.757 7.075-11.793 2.498-16.15-2.499-2.678-6.456-3.718-8.955-6.196-1.679-2.079-2.099-6.636 2.079-5.377zm-20.987-7.675c-1.66-6.137 10.493-3.378 9.674 2.098-1.84-.2-3.498-2.098-5.137-2.518-2.279-.42-2.679.84-4.537 1.679 0-.62-.2-.84-.2-1.26z" fill="#e3f1f7" fill-rule="evenodd"/><path d="M169.457 285.187c1.9-2.918 5.677-2.918 7.356.2-1.68-1.04-5.657-2.698-6.936-.4zm17.35 6.996c.62-.22 3.318 2.059 4.137 2.478 1.24.82 2.879 1.66 4.318 2.279 2.898.82 5.376 1.859 7.435 3.918 2.059 2.078 3.098 4.977 3.498 7.675.2 1.639 0 3.298-.2 4.757-.2 1.04-.62 3.098-1.439 3.918.82-1.64.62-4.338.62-5.997.2-1.439 0-3.098-.42-4.337-.82-2.498-3.098-4.557-4.957-6.016-2.259-1.86-5.157-2.06-7.615-3.718-2.06-1.24-4.538-3.318-5.157-5.597zm-6.717 50.17c0-.72.84-1.32 1.84-1.32 1.02 0 1.839.6 1.839 1.32 0 .74-.82 1.319-1.84 1.319-.999 0-1.838-.58-1.838-1.32zm2.88 3.437c0-.32.519-.6 1.158-.6.66 0 1.16.28 1.16.6 0 .34-.5.6-1.16.6-.64 0-1.159-.26-1.159-.6z" fill="#fff" fill-rule="evenodd"/><path d="M183.929 291.583c0-.8.839-1.479 1.838-1.479 1.02 0 1.84.68 1.84 1.48 0 .819-.82 1.478-1.84 1.478-.999 0-1.838-.66-1.838-1.479zm-2.479-2.958c0-.58.56-1.08 1.24-1.08.699 0 1.239.5 1.239 1.08 0 .6-.54 1.08-1.24 1.08-.68 0-1.239-.48-1.239-1.08z" fill="#fff" fill-rule="evenodd"/><path d="M159.783 220.546c.84 3.338 4.138 6.037 5.797 8.955.84 1.26 1.659 2.498 2.078 3.758.62 1.878.2 3.537.62 5.196 1.02-1.858.2-5.416-.22-7.495-.62-2.079-1.639-3.758-3.098-5.417-1.04-1.259-2.279-2.498-3.298-3.757-.42-.62-1.04-1.88-1.879-1.66v.2z" fill="#d2cccb" fill-rule="evenodd"/><path d="M167.818 228.022c1.26 1.04 1.46 4.137 1.68 5.796.2 1.44-.42 3.098 0 4.318.619-.62.399-1.84.619-2.679.42-.82 1.04-1.439 1.459-2.058.62-1.24 1.24-2.679.42-3.718-.42-.62-.84-.62-1.26-.82-.42-.22-.839-.62-1.239-1.04-.42-.199-2.518-1.038-1.879.2z" fill="#cadde2" fill-rule="evenodd"/><path d="M157.924 213.25c-.62 1.46-.62 3.539.84 4.778.62.22 1.439.42 1.839.62.84.42 1.459 1.039 2.078 1.658 1.44 1.46 3.298 2.3 5.137 3.318.84.64 4.138 3.318 4.957 2.499 1.64-1.659-3.498-3.318-4.117-3.738-2.059-1.239-4.338-2.478-5.777-4.357-.62-.82-1.04-1.66-1.239-2.479-.42-.84-.2-1.659-.62-2.498-.82-1.46-1.239-.62-2.478-.42z" fill="#e3f1f7" fill-rule="evenodd"/><path d="M159.843 209.113c-.6 1.06-.6 3.338-.8 4.577-.22 2.1 0 4.178.8 6.037.62 1.459 1.839 2.718 2.858 3.758 1.02 1.039 2.639 2.498 3.238 3.937-1.419-1.24-2.438-3.738-3.657-5.397-1-1.459-1.82-2.918-2.239-4.797-.4-1.659-.4-3.318-.2-4.977.2-1.039.42-2.298-.2-2.918z" fill="#fff" fill-rule="evenodd"/><path d="M158.984 209.393c0-.5.42-.92.92-.92.519 0 .919.42.919.92 0 .52-.4.92-.92.92-.5 0-.92-.4-.92-.92zm0-2.438c0-.34.26-.64.56-.64.32 0 .559.3.559.64 0 .36-.24.64-.56.64-.3 0-.56-.28-.56-.64zm13.112 21.826c0-.34.32-.64.68-.64.38 0 .679.3.679.64 0 .36-.3.64-.68.64-.36 0-.68-.28-.68-.64zm-6.796 7.076c0-.5.5-.92 1.08-.92.599 0 1.079.42 1.079.92 0 .52-.48.92-1.08.92-.58 0-1.08-.4-1.08-.92z" fill="#fff" fill-rule="evenodd"/><path d="M142.674 303.256s-18.43-12.832-38.277 1.44c-20.088 14.25-19.249 38.436-10.974 48.99 4.757 5.976 1.86 5.976 12.613 5.776 10.553-.2 12.832.2 18.848-3.917 6.197-4.138 12.613-4.558 14.472-3.099 0 0-8.695-3.118-15.111-.22-6.396 2.699-17.79.62-21.507-3.517-3.518-3.918-14.491-19.009-1.24-33.48 13.232-14.471 55.647 2.478 41.176-11.973z" fill="#db8a7a" fill-rule="evenodd"/><path d="M92.304 348.709c1.679 2.078 3.338 4.157 4.797 6.236 1.66 2.079 2.279 2.298 4.777 2.498 4.577.62 10.614-.82 14.971.62-2.698-.4-5.397-1.24-8.095-1.659-2.299-.42-4.997-.2-7.495-.82-3.738-.839-6.237-4.377-8.735-6.655z" fill="#c27064" fill-rule="evenodd"/><path d="M89.906 332.399c-1.04 2.898-.42 8.275.22 11.173.619 3.298 1.638 6.396 3.497 9.294 2.079 3.318 3.718 4.957 7.855 4.757 1.04-.2 4.338 0 2.699-1.439-.84-.62-3.318-.62-4.557-1.04-4.138-1.858-6.396-7.235-7.636-11.572-.62-2.279-.84-4.338-1.04-6.616-.199-1.44-.199-3.718-1.238-4.557z" fill="#c27064" fill-rule="evenodd"/><path d="M182.35 362.32c-5.377-2.498-15.091-.82-20.468 1.04-5.777 2.079-9.714 4.157-14.052 8.315-2.878 2.698-5.576 6.016-8.055 9.134-2.258 2.918-5.157 6.037-6.616 9.554 7.036-3.937 11.993-11.213 19.848-14.53 9.495-4.158 19.209-1.46 29.123-1.26 2.478 0 6.616.84 8.055-1.859.62-1.459-.2-4.157-1.02-5.197-1.459-2.698-4.137-4.357-6.816-4.977zm95.242 1.5c-6.396-2.28-12.992-3.758-19.828-3.758-7.436.24-13.632 3.757-18.989 8.515-4.757 4.357-9.074 9.554-12.392 14.91-1 1.88-7.436 14.712-3.718 14.712 1.48 0 5.197-6.197 5.996-7.436 3.119-4.157 6.397-8.715 10.314-12.232 4.757-3.958 9.315-7.036 15.51-7.876 4.958-.4 8.236 1.44 12.793 2.879 3.078 1.279 13.192 3.957 15.47 0 1.84-2.879-1.438-7.236-3.717-8.875zm11.073-60.604c3.918 5.197-3.118 13.432-5.836 17.59-3.518 5.556-5.597 11.353-5.997 17.749-1.279-6.796-.24-14.431 2.079-20.868 1.04-3.078 2.279-5.996 4.117-8.674 1.28-1.84 2.519-4.757 4.598-5.357zm10.154-4.517c-.64-.24.2.8.4 1.44.44.599.64 1.438.84 2.078.199 1.24 0 3.478.839 4.517 1.439 1.44 3.518 0 4.957-.6 2.878-1.039 5.996-1.239 9.314-1.239 6.596 0 13.032 2.279 18.789 5.557 4.557 2.918 7.035 9.314 12.832 10.114.4-3.478-2.079-6.996-4.358-9.674-2.478-2.919-4.517-5.997-7.835-8.275-5.157-3.318-11.793-5.997-17.789-7.036-6.196-.84-11.793 2.079-17.79 2.478zm-8.675 31.861c-2.278 2.678-2.039 10.273-.6 13.392 2.479 5.716 7.876 2.638 12.633 1.639 4.117-1.04 8.275-1.44 12.392-2.28 2.08-.399 4.158-1.238 6.197-1.638 2.278-.4 4.557.2 6.835-.2 1.88 0 3.918-.4 1.68-2.279-2.08-1.439-7.876-.8-10.354-.6-5.797 0-11.593 1.24-17.39 1.84-5.796.4-10.553-4.118-11.992-9.235zm-.28-121.647c-1.839.2-3.717-.44-5.796-.44-2.679.24-5.757 1.48-8.235 2.28-4.557 1.878-7.875 5.356-11.393 8.874-6.197 6.196-11.154 13.432-11.993 22.506-.4 5.757-1.04 12.153 1.04 17.55.639 2.038 1.878 4.917 4.157 4.917 1.24 0 3.078-1 3.718-1.84.999-1.238.6-1.039 0-2.678-1.48-4.117-2.08-7.035-.44-11.553 2.478-6.796 6.836-12.992 12.832-16.91 5.357-3.717 10.754-3.717 16.95-4.956 3.518-.64 8.035-.84 10.314-3.718 2.678-3.318 1.039-7.635-1.84-10.514-2.278-2.078-6.196-2.718-8.914-3.318z" fill="#db8a7a" fill-rule="evenodd"/><path d="M255.765 263.88c3.518.4 7.236-2.039 10.753-2.678 4.118-.84 8.235-1.64 12.353-2.279 8.475-1.24 16.11-2.478 24.345-4.317-4.717-6.596-23.106-3.118-30.301-2.679-4.158.2-6.636 1.24-9.715-1.879-2.278-2.038-2.078-5.556-4.557-7.435-2.678 2.279-2.878 5.996-3.717 9.314zm-24.105-96.861c-4.118.64-8.475-1.24-12.593-1-5.556.2-11.353 2.239-15.91 5.357-10.314 7.036-12.193 20.428-10.714 31.78.4 3.719 2.679 12.593 7.836 12.393 5.796-.2.84-15.87 1.039-19.188 1.04-8.675 10.114-18.589 19.188-18.589 3.918 0 12.593 2.079 14.472-3.717.6-2.479-2.279-4.758-3.318-6.197zm-63.082 89.825c-.4-10.593 13.672-21.786 22.146-25.744 9.115-4.557 21.947-6.636 31.901-3.518 9.314 2.918 17.59 12.433 17.59 22.626 0 9.954-5.357 2.879-9.715 0-7.435-4.557-17.19-5.196-25.065-1.039-9.314 4.757-18.828 31.9-31.26 25.265-4.558-2.279-9.755-12.433-5.597-16.35z" fill="#db8a7a" fill-rule="evenodd"/><path d="M170.037 248.55c-3.938 14.07-2.479 32.68 15.53 35.558 3.299-4.118.2-12.193 3.099-17.15 1.859-3.518 11.573-22.346.62-21.507zm31.001 116.709c-.4-.64-.8-1.08-.8-1.88 2.48 2.919 5.997 4.558 8.915 7.276 2.079 1.88 3.118 6.037 5.637 4.997 2.678-1.039 6.236-9.594 8.515-11.872 2.078-2.08 4.997-3.318 5.796-6.277-5.596 2.959-10.593 6.277-17.43 5.637-2.918-.2-11.872-3.318-13.75-.2.239.44.439.44.839.64zm-48.91-54.367c3.278 5.176 5.736 10.133 6.756 16.35.42 2.258 1.219 18.588-3.058 16.53-3.278-1.66 0-16.53-.42-19.848-.2-4.138-1.02-9.295-4.098-12.413zm9.514-25.345c-2.039.84-3.278 3.538-4.917 4.977-1.02.84-5.117 2.498-5.317 3.738-.42 2.278 4.917 4.757 6.356 6.216 2.459 2.079 4.498 6.416 7.976 6.416.2-5.996-6.756-13.672-3.278-19.468zm40.995-57.505c-8.475 1.239-14.051-10.134-17.15-15.73 1.86 5.796 3.099 11.173 1.86 17.189-.42 2.059-2.699 5.996-1.86 8.055 1.86 5.377 8.056-3.098 11.793-3.098zm19.628-8.095c1.44-.6 4.957.44 6.996 0 3.278-.6 6.996-2.239 9.274-4.957 4.718-5.357 5.117-12.793 6.556-19.189 1.04-4.517 2.879-8.674 6.197-2.478 2.438 4.557.6 9.714-.84 14.271-1.839 6.596-5.756 13.192-12.352 15.67-3.878 1.64-13.552 1.84-16.67-1.438z" fill="#db8a7a" fill-rule="evenodd"/><path d="M201.518 174.974c-7.056 5.397-11.433 23.246-6.016 30.921 1.858 2.898 2.698 2.079 2.898-1.459 0-4.557-1.46-8.915-1.24-13.692.2-3.318.2-7.055 2.28-9.954 1.038-1.858 3.517-2.478 3.117-4.977h-1.459zm55.606 87.307c-5.157-2.279-5.397-13.432-4.557-18.189 1.04-5.397 5.796-21.947 13.632-20.907.4 2.478-2.479 5.396-3.518 7.675-1.44 2.878-2.679 6.196-3.318 9.274-.6 3.318-1.64 8.076-1 11.394 1.84 8.275 14.232 2.078 19.988 4.757-1 2.278-8.634 3.118-11.313 3.717-2.718.84-8.275 4.118-10.354 2.279zm30.222 39.416c1.839 3.318 2.039 4.358 0 7.875-2.479 4.118-4.118 9.515-6.996 12.993-.64-6.197 3.078-14.032 6.596-18.79zm12.192-2.878c6.836-1.64 22.347-6.076 26.464 2.518-2.238-2.518-11.353-1.878-14.87-1.679-2.48 0-11.594 3.558-11.594 0zm-10.153 35.578c-.64.84.6 9.155 2.478 10.394 2.079 1.44 9.115-1.639 11.353-2.918-4.717-2.878-12.192 2.079-14.031-5.997zM203.757 229.86c-4.518-.619-11.534 3.319-15.031 6.017-4.538 3.318-9.695 8.075-12.173 12.852-5.357 9.734-5.577 21.747-.2 30.022-2.898-10.354-1.659-20.288 3.918-29.622 2.458-4.137 15.87-21.547 21.027-18.429zm-27.504 136.378c-2.878-3.538-17.07 2.079-20.767 3.958-5.337 2.698-12.133 6.016-14.811 11.613 4.337-5.177 12.972-9.335 19.748-12.033 5.137-1.879 11.313-1.879 15.83-3.958zm93.703-1.339c-1.839-1.879-9.914-1.04-12.592-1.04-4.957 0-8.875 1.24-13.032 3.318-7.236 3.718-12.992 9.075-16.75 16.31 6.436-6.795 14.072-13.431 22.746-16.31 4.358-1.439 16.75-3.717 20.028-1.439z" fill="#c27064" fill-rule="evenodd"/><path d="M221.426 164.3s29.142-1.479 33.66 31.461c0 0-8.435-27.103-33.66-31.46zm76.434 44.334s35.178 7.675 29.182 47.81c0 0 1.679-34.139-29.183-47.81zm-89.226 21.506s47.091 6.836 31.62 52.928c0 0 12.193-41.934-31.62-52.927zm66.119 136.398s21.827 2.678 27.584 25.105c0 0-7.196-18.51-27.584-25.105zm-94.503-.88s20.508 7.836 26.705 21.827c0 0-15.93-18.529-26.704-21.827z" fill="#f4baae" fill-rule="evenodd"/><path d="M175.454 337.356c-1.02 4.537-1.02 9.274-2.06 13.811-.419 1.859-1.458 4.118-3.117 5.557-1.86 1.24-3.518 1.659-4.977 3.498 1.04-4.118 5.596-6.376 6.216-11.114.64-3.497 1.04-8.854 3.938-11.133zm94.502 5.756c0 1.28.8.84 1.24 1.679.4.84.84 1.879 1.439 2.918 1.679 3.078 3.957 5.997 6.436 8.675-1.24-.8-2.679-1-3.718-1.839-1.24-1.04-2.279-2.478-2.918-3.758-1.68-2.678-1.68-5.796-2.718-8.714zm-2.718-2.718c0 4.357-3.278 9.314-7.036 11.992 1.48-1.239 2.079-2.878 2.919-4.517 1.239-2.278 2.678-4.157 3.517-6.436zm-7.995-53.528c4.557-.44 9.514 5.157 11.553 8.435 1.639 2.718 1.879 5.797 2.478 8.675.2 1.439.6 3.118.6 4.757 0 1.439-.4 2.878-.4 4.317-1.439-6.156-1.439-12.152-5.556-17.51-1.44-1.878-2.879-3.717-4.757-5.396-1-1-3.079-1.839-3.918-2.878z" fill="#db8a7a" fill-rule="evenodd"/><path d="M211.592 294.901s6.636-8.275 13.871-10.313c7.036-2.28 35.179-11.194 45.733 17.549 10.513 28.742-8.275 48.57-28.143 46.931 0 0 28.742-8.874 22.146-34.299-6.636-25.224-23.785-37.417-53.607-19.868z" fill="#db8a7a" fill-rule="evenodd"/><path d="M228.781 286.546c2.519-7.475 23.226-2.478 28.183.64 7.236 4.557 14.272 15.95 13.272 25.065.4-7.875-9.354-18.23-15.55-22.387-7.036-4.757-15.75-5.396-24.226-5.396z" fill="#c27064" fill-rule="evenodd"/></svg>