<svg xmlns="http://www.w3.org/2000/svg" version="1.0" viewBox="0 0 44.75 45.43"><defs><clipPath clipPathUnits="userSpaceOnUse" id="a"><path d="M5.437 4.957H50.13v45.412H5.437z"/></clipPath></defs><path clip-path="url(#a)" d="M10.993 30.981s.32-1.759-1-2.798c-.958-.72-4.596-6.676-2.597-11.193 1.958-4.238 5.916-3.158 6.875-5.277.68-1.759 1-3.158 4.917-3.478 3.958-.72 5.597 1.719 5.597 1.719s1-4.557 5.557-3.478c4.957.68 6.236 4.557 6.236 4.557s2.638-3.158 6.236.32c3.638 3.158 2.319 5.637 3.958 7.036 1.639 1.399 2.278 4.517 1.639 7.675-1 2.799-3.918 4.198-3.918 7.356.32 2.798-2.638 13.312-7.915 12.272 0 0-6.236 4.877-10.154 2.799-3.958-1.76-6.556-6.996-9.194-6.996-2.28 0-7.876-3.878-6.237-10.514z" fill="#e7a4a4" fill-rule="evenodd"/><path clip-path="url(#a)" d="M11.033 31.021s.32-1.759-1-2.798c-.958-.72-4.596-6.676-2.598-11.193 1.96-4.238 5.917-3.158 6.876-5.277.68-1.76 1-3.158 4.917-3.478 3.958-.72 5.597 1.719 5.597 1.719s1-4.557 5.557-3.478c4.957.68 6.236 4.557 6.236 4.557s2.638-3.158 6.236.32c3.638 3.158 2.319 5.637 3.958 7.036 1.639 1.399 2.278 4.517 1.639 7.675-1 2.798-3.918 4.198-3.918 7.356.32 2.798-2.638 13.312-7.915 12.272 0 0-6.236 4.877-10.154 2.799-3.958-1.76-6.556-6.996-9.194-6.996-2.28 0-7.876-3.878-6.237-10.514" fill="none" stroke="#343434" stroke-width="1.359" stroke-linecap="round" stroke-miterlimit="8"/><path d="M38.816 44.933c-5.556 1.08-7.515-8.395-4.917-12.273-1.639 2.119-1.279 4.557-1.279 7.036-1.319-.72-1.999-1.759-3.638-2.119a27.251 27.251 0 0 1 4.278 4.557c1 1.08 2.638 2.479 1.639 4.198 1 0 1.959-.68 2.958-.68zM19.548 17.27c-1 0-1.999 1.039-2.318 2.078-.68 1.4-.68 3.158-.32 4.877 0 1.4.64 3.158 1.959 3.838 1.319 1.04 2.638 1.04 4.277 1.4-.64 0-1.32.319-1.959.319-1-.32-1.639-.32-2.318-1.04-1.64-1.039-2.639-2.438-2.959-4.157-.36-2.079 0-3.838 1-5.557.32-.72 1.639-2.118 2.278-1.399zm15.99-7.396c.64 1.08.64 2.479.32 3.518-.32.36-.32 1.399-.64 1.759H33.9c-1.319 0-2.598.32-3.278 1.04-1.279 1.039-1.599 2.438-2.278 3.477 1.639-2.798 4.597-4.877 7.515-3.838 2.918 1.04 5.837 4.558 5.837 8.036 0-1.72-.64-3.838-1.28-5.237-.64-1.04-1.639-2.079-2.598-2.439-1-.72-1.639-1.04-1.639-2.438 0-.72.64-2.799.32-3.158z" fill="#343434" fill-rule="evenodd"/><path d="M17.47 27.383c-1.28-1.399-2.919-.36-3.878.36-.68.72-1.32 1.4-1.96 2.119-.319.72-.319 1.759-.679 2.798-.32-1.399.68-2.798 0-3.877-.64-1.04-1.599-1.4-1.958-2.439.68.32.999 1.4 1.639 1.759.999.36 1.639-.36 2.598-1.08.68-.679 1.639-1.039 2.319-2.118.32-.68.32-1.4.64-2.479.319 1.8.319 3.198 1.278 4.598zm11.832 2.839c1.999 1 3.638 1 5.957 1 1.639 0 3.278-1 4.917-1.68-1.32 1.999-3.918 2.319-6.237 2.319-1.639 0-2.958-.64-4.277-1.32zM24.425 9.874c.32 1.44.96 2.479.64 3.878 0 .72 0 1.759-.32 2.118-.32.68-.96.36-1.599.68.64.36 1.28 0 1.919 0 .64.36 1.279 1.08 1.599 1.4-.96-1.4-.96-2.44-.96-4.198 0-1.4-.64-2.439-.64-3.878zm0 27.383c-1.279-.36-3.238.64-3.917 1.96.36-2.32 2.638-1.96 3.917-1.96z" fill="#343434" fill-rule="evenodd"/><path d="M25.105 17.23c-.68-.72-2.319-.36-2.958-.36-1 .36-2 .72-2.639 1.799-1.319 1.759-2.678 4.917-1 7.035.64 1.44 2.959 1.76 3.279 0 0-1.039-.32-1.759 0-2.478.36-1.04 1-1.4 1.319-1.759 1-.68 3.958-3.158 1.679-4.237zm15.71 5.316c-.32-1.079-1.279-2.478-1.959-3.518-.64-.36-1.319-.68-1.958-1.039-.32-.36-1-1.08-1.96-1.08H33.62c-.32 0-.68 0-1.32.36-.64 0-1.319.72-1.958 1.4-1.32 1.759-1.64 3.158-2 5.276 0 1.76.36 4.198 2 5.237 2.598 1.4 3.278-2.798 4.597-3.837 1.319-1.04 3.278-.72 4.597-1.4.32-.36.96-1.399.96-1.399zM34.5 10.234c-.64-1.04-1.6-1.4-2.28-1.76-.959-.679-1.958-1.398-2.918-1.398-.96.36-1.959.72-2.598 1.759-.68.72-.32 2.118-.32 3.158 0 .68 0 3.158.64 3.478 1.319 1.039 1.639-2.439 1.958-3.118.32-1.4.96-2.12 2.28-2.12.958 0 1.958.36 2.917-.359zm-10.714 1.799c-.64-.36-.64-1.4-1.28-1.72-.999-.719-1.998-.719-3.318-.719-1.958-.36-2.598 1.04-3.278 2.798-.64 1.76-2.598 1.76-3.597 2.439-1 .36-1.64.68-2.32 1.759-.639 1.04-1.318 2.438-1.318 3.478 0 2.079.36 4.877 1.999 5.916 1.958 1.72 3.278-1.399 2.958-3.158-.32-2.079-1.32-4.157-.68-6.236.36-1.08 1-1.759 1.999-2.439.96-.36 1.28-.36 2.279-.36 1.639.36 1.958-1.039 2.958-1.758 1-.36 1.639 0 2.318 0 .32.36 1.28.72 1.28 0zm14.431 3.157c-1.959-.359-.64-4.277 1.28-3.917.998 0 2.597.72 3.237 1.44.32.679 1.6 2.478.96 3.157-.64-.68-2.24-2.478-3.558-1.759-.32 0-.96 1.76-1.6 1.08zM20.508 30.541c-.64-.32-1.64-.68-2.599-1.039-.68-.68-1.32-1.399-1.999-1.04-1.319 0-2.638 1.4-3.278 2.44-.68 1.398-.68 3.477 0 4.876.32 1.36 1.32 3.438 2.959 3.118 2.318-1.039 0-3.477.64-4.877.999-1.719 4.277-.68 4.277-3.478zm3.597 14.352c-.64 0-1.958-1.4-2.278-2.079-.68-1.44 0-2.478.96-3.558 1.318-1.04 3.277-2.119 4.596-1.399 1.28.36 2.279 1.4 3.238 2.479.36.36 1.96 2.118 1 2.478-.64.32-2.279-1.799-3.278-1.799-1.28 0-1.64 1.08-2.279 2.119 0 .72-.32 1.439-.96 1.439-.359.32-.999.32-1.318 0zM42.494 33.74c-1-2.12-4.637-1.4-6.276-.72-2.638 1.4-2.998 5.956-1.639 8.395.32 1.04 1.959 2.438 2.958 1.04.32-.32.32-1.36.32-1.72-.32-1.04-.32-2.118.36-2.798.64-1.4 1.639-1.759 2.958-2.119 1-.32 1.32-1.399 1.64-2.078z" fill="#ecb4b4" fill-rule="evenodd"/><path d="M27.064 18.669c1.279 2.118.32 3.158.32 5.237-.32 2.438.32 4.157 1.279 5.876-1.28-1.04-3.238-2.079-4.877-1.04.36-.679 1.319-.679 1.958-1.718.32-.68.32-1.72.68-2.439.32-2.079 1.599-3.798.32-5.557zm-5.237 11.912c2.598 1.4 0 5.597-.68 6.956 1-1.359 3.278-1.359 4.557-1.04-.959 0-1.918-1.358-2.278-2.438 0-1.359-.64-2.078-1.28-3.118zM32.98 33.3c-.96 1.08-.96 4.237-.64 5.277-.68-.68-.999-1.4-1.998-1.76-.64-.32-1.32 0-2 0 .68-.679 2-.32 2.68-1.039.639-.36.999-1.399 1.318-2.118zm11.433-3.838c-1.999-1.399-2.319-3.118-2.319-5.197-.32 1.76-.68 3.798-1.678 5.517.999 0 .36-1.719 1.998-1 1 .32 1.36 1 2.319 1z" fill="#d09190" fill-rule="evenodd"/><path d="M26.024 16.23c1.32 1.4 2.958.72 3.918-.36-.96.36-.64 1.4-.96 2.439-.64 1.08-1.319 1.08-1.319 2.438-.32-.68-.32-1.719-.64-2.438 0-.68-.639-1.04-.639-2.079zm-9.434 2.439c.36-2.08 3.558-2.439 4.877-2.439.96 0 1.599 0 2.239-.36.96-.72.96-1.399.96-2.478-.64 2.119-2.56 2.119-4.518 2.478-1.28.36-3.198.72-3.198 2.799z" fill="#d09190" fill-rule="evenodd"/><path d="M34.5 17.27c-1.28-.36-2.24 0-3.239 1.079-.64.32-2.279 1.759-1.919 3.158 0 .68.64-.72.96-1.08 0-.679.32-1.399.96-1.758.998-.68 1.958-1.4 2.917-1.4zm-5.198-9.435c-1.279-.36-3.278 2.079-2.278 3.078.32-.999.64-2.398 1.958-3.078zM20.747 17.95c-.64.359-3.517 2.438-2.238 3.437.32-1 .64-3.078 1.919-3.438zm-10.473-1.44c-.32.72-1.6 3.518-.32 3.838 0-1.36-.32-2.759.32-3.838zm6.556-4.557c.36-1.36.72-2.399 2.398-2.039-.999.68-1.679.36-2.398 1.719zm-2.878 18.229c-1 0-2 2.078-1 3.118.68-1.04.36-2.399 1-3.118zm11.113-.96c-1.64-.72-2.319 3.118-.96 3.438 0-1.359-.68-2.079.64-3.438zm-1.919 9.994c-.32.72-1.759 2.878-.68 3.198.36-1.04-.36-1.759.36-2.838zm15.99-27.503c-.96 0-2.638 1.719-1.639 2.718.68-1 .32-1.679 1.32-2.358zM35.858 34.02c-1.279.36-1.599 2.518-1.279 3.917.96-.68.32-2.838 1.28-3.918z" fill="#f4edec" fill-rule="evenodd"/><path d="M32.58 16.83c-.96-.36-2.958 2.158-3.278 3.198-.96 2.159-.64 4.277-1.319 6.396-1.32-3.518 1-9.234 4.597-10.314zm-21.267-2.039c-.32.36-.96.72-1.32 1.04-.639.719-.639 1.399-.998 2.078-.64 1.76-.64 3.478-.64 5.557-1.36-1.36-1-4.517-.36-6.236.68-1.04 1.68-2.439 2.998-2.799zm17.989-7.715c-2.278 0-3.558 2.838-3.558 5.277 0-.68-.36-1.4-.36-1.76 0-1.039.68-1.758 1-2.438.64-.72 1.639-1.08 2.279-1.08zm9.514 4.197c-1.319-.36-1.958 1.76-1.639 3.158-.68-1.759-.32-3.158 1.64-3.158zm7.916 8.435c-1.28-1.08-2.919 0-3.918 1.04.36-1.04 1-2.12 1.959-2.12 1-.36 1.639.36 1.959 1.08zm-22.067 8.795c-1.28.36-1.599 1.759-1.599 3.118-.96-1.36.32-2.399 1.28-3.118zm-5.836-9.435c-1.32 1.04-1.64 4.478-.96 5.837-.68-1.36-1.679-5.117.64-5.837zm-5.837 10.834c-1.32 1.759-1.32 3.478-1 5.557-.32-2.08-.679-4.518 1.32-5.917zm11.433 7.955c-1.959-.72-2.918 3.198-2.918 4.237-1-.32-.64-1.399-.32-2.118.64-1.04 1.64-1.04 1.959-2.119zm11.833-5.197c-1.32.36-3.038 2.799-2.678 3.838-.36-1.36.999-3.478 2.358-3.838z" fill="#ed8196" fill-rule="evenodd"/></svg>