<svg xmlns="http://www.w3.org/2000/svg" version="1.0" viewBox="0 0 438.879 329.424"><defs><clipPath clipPathUnits="userSpaceOnUse" id="a"><path d="M-.16.16h438.374V329.8H-.16z"/></clipPath></defs><path d="M299.419 251.687c18.348-24.864 27.503-55.086 27.503-79.951 0-6.236 0-12.872-.84-19.108-.4-5.317 2.479-12.433 1.68-17.31-1.28-6.236-6.677-10.234-8.356-15.99-2.478-7.995-5.836-15.55-9.554-22.667-23.745-40.855-72.476-72.396-119.967-72.396-37.897 0-85.388 14.671-112.452 39.976h-.4c-3.358 3.558-3.358 5.357-4.997 10.674-2.118 5.316 0 7.115-2.518 8.874-2.519 1.8-4.997.44-4.597 2.679.84 1.759 2.518 1.319 1.279 4.877-1.68 3.997-3.358 4.437-4.597 5.316-2.08 2.679 3.757 4.478 0 6.676-3.318 2.239-2.919-2.678-7.916-3.557-2.918-.44-5.396 4.437-5.836 10.673-.4 3.558-.4 9.314-.4 11.553 0 2.199-.84 5.317-.84 8.875 0 3.997-.839 8.435-2.518 10.673l1.28.44c3.717-16.43 12.072-27.983 22.066-27.983 13.312 0 24.585 21.747 24.585 48.85v.44-.44c0 27.544-11.273 49.29-24.585 49.29-9.994 0-18.749-11.992-22.506-28.862l-.84.88c1.68 2.238 2.519 6.675 2.519 11.113 0 3.557.84 6.196.84 8.874 0 1.76 0 7.995.399 11.553.44 5.757 2.918 10.674 5.836 10.194 4.997-.44 5.437-7.076 9.155-4.877 3.358 2.239-1.24 5.797.84 8.435.839.92 2.518.44 4.157 4.437 1.28 3.998-.4 3.118-1.24 4.917-.4 2.199.4 1.76 2.919 3.558 2.518 1.759.4 3.078 2.518 8.875 1.64 4.877 1.64 6.636 4.558 9.754 27.503 24.425 77.073 41.735 113.29 41.735 38.737 0 84.15-19.509 109.535-51.05z" fill="#f2c3a5" fill-rule="evenodd"/><path d="M46.132 230.42h-1.639c2.918 4.877 6.236 9.754 9.554 14.192 0 .44.44.88.84 1.319 1.239 1.799 2.918 3.558 4.157 5.357.84.88 1.24 1.759 2.079 2.638.44.44.84.92 1.28 1.36.799 1.318 1.638 2.198 2.478 3.077.84.48 1.239 1.36 1.679 1.8.4.44.84.879 1.239 1.319a545.993 545.993 0 0 0 4.597 4.877c.4.44 1.24.919 1.64 1.359.839.88 1.278 1.319 2.078 1.759 7.515 7.115 15.43 13.312 23.745 19.108.44 0 .84.44 1.28.44 1.639 1.319 3.717 2.678 5.796 3.558.44.44.84.44 1.28.88 5.836 3.117 11.632 6.195 17.469 8.874 1.24.44 2.079.88 2.918 1.319 1.679.92 3.358 1.36 4.597 1.799 1.24.44 2.918.88 4.158 1.759 1.239.44 2.478.92 4.157 1.359 1.68.44 3.358.88 4.997 1.32 1.24.439 2.079.879 3.358.879 2.479.88 5.397 1.799 8.315 2.238.84 0 1.68.44 2.918.44 2.08.44 3.758.88 5.837.88 1.24.44 2.079.44 3.318.44 2.079.439 4.157.439 5.836.879h2.919c2.918.44 6.236.44 9.154.44 3.318 0 6.676 0 10.434-.44 54.527-2.639 101.618-28.863 124.524-73.236 1.64-3.118 7.076-10.673 16.63-15.55-12.073-3.998-25.784 19.987-34.539 30.62-27.503 34.22-75.794 52.41-117.049 52.41-39.976 0-78.313-17.75-107.455-44.854l-2.478-2.238c-4.598-4.438-4.598-6.197-6.277-11.513-2.078-5.797 0-7.116-2.478-8.875-2.519-1.799-3.358-1.36-2.918-3.558.84-1.799 2.478-.92 1.239-4.917-1.68-3.997-3.318-3.518-4.158-4.437-2.078-2.638 2.479-6.196-.84-8.435-3.757-2.199-4.157 4.437-9.154 4.917-2.918.44-5.436-4.477-5.836-10.234-.4-3.558-.4-9.754-.4-11.553 0-2.638-.84-5.317-.84-8.874 0-5.757-1.678-11.553-3.757-12.433-3.758-2.238-3.318 1.32-4.157 7.556-1.28 6.196.84 7.115 1.639 8.874.44 1.76-1.64 1.76-.8 3.998.8 2.238 2.079 2.678 2.878 4.437.44 2.239-1.639 1.799-1.239 4.437.44 2.239 2.519 2.239 2.918 4.438.44 2.238-.84 2.678-.4 5.356.84 2.639 3.319 3.079 4.158 5.317.84 1.76 1.24 2.639-1.679 3.118zm296.62-88.866c-.4-2.238-.84-3.997-1.239-6.236-.4 0-.4-.44-.4-.44-2.918-9.754-6.276-19.548-10.833-28.862-.44-.44-.44-.88-.44-.88-.84-1.799-1.639-3.118-2.478-4.437 0-.44-.44-.88-.84-1.799-.44-1.32-1.24-2.199-2.079-3.558-.44-.88-.84-1.319-.84-1.759-.839-1.319-1.678-2.678-2.518-3.997-.4-.44-.8-1.32-1.239-1.76-.4-1.358-1.24-2.238-2.079-3.557-.4-.44-.84-1.36-1.239-2.239-.84-.88-1.679-1.759-2.518-3.118-.4-.44-.84-1.319-1.64-2.198-.44-.88-1.279-1.8-2.118-3.119-.8-.44-1.24-1.319-1.639-1.759-.84-1.359-1.679-2.238-2.519-3.118-.839-.88-1.239-1.359-2.078-2.238-.84-.88-1.68-1.76-2.479-2.639-.44-.92-1.279-1.359-1.679-2.238-.84-.88-1.679-1.76-2.518-2.679-.8-.88-1.64-1.319-2.079-2.198-.84-.88-2.079-1.36-2.918-2.239-.4-.88-1.24-1.32-2.079-2.199-.84-.92-1.639-1.799-2.478-2.238-.84-.88-1.68-1.32-2.519-2.199-.84-.92-1.679-1.36-2.478-2.239-.84-.44-1.68-1.319-2.519-1.759-1.24-.919-2.079-1.798-2.918-2.238-.84-.88-1.68-1.32-2.479-1.76-1.279-.919-2.078-1.358-2.918-2.238-.84-.44-1.679-.88-2.918-1.759-.84-.48-1.679-1.359-2.519-1.799-1.239-.44-2.078-1.319-2.918-1.759-1.239-.44-2.079-.919-2.918-1.798-1.24-.44-2.079-.88-2.918-1.32-1.24-.44-2.079-1.319-2.918-1.799-1.24-.44-2.08-.88-3.318-1.319-.84-.44-1.68-.88-2.919-1.319-.84-.44-2.078-.88-2.918-1.36-1.24-.439-2.079-.879-3.318-1.318-.84-.44-2.079-.88-3.358-1.32-.8-.44-2.079-.879-2.918-1.359-1.24 0-2.079-.44-3.318-.88-1.24-.439-2.079-.879-3.318-.879-.84-.44-2.079-.88-3.358-.88-.84-.439-2.079-.879-2.918-.879-1.24-.48-2.479-.92-3.718-.92-1.28-.439-2.119-.439-3.358-.879-1.24 0-2.478-.44-3.758-.44-.8-.439-2.078-.439-2.918-.439-1.24-.44-2.878-.44-4.157-.44-.84-.44-2.08-.44-2.919-.44-1.639-.44-2.918-.44-4.557-.44h-2.518c-2.479-.479-4.558-.479-7.076-.479-3.318 0-6.676 0-9.994.48-1.24 0-2.079 0-3.318.44-2.119 0-4.197 0-6.276.44-1.24.439-2.479.439-3.758.879-1.24 0-2.079 0-2.918.44-1.24 0-2.079 0-3.318.44-1.24 0-2.479.439-4.158.879-.44 0-.84 0-1.239.48h-1.28c-.839.44-1.638.44-2.917.879-1.24.44-2.479.44-3.718.88-.84.439-1.68.439-2.519.879-.839.44-1.239.44-2.078.44-.4.44-.4.44-.84.44-1.679.479-2.918.919-4.157 1.358-.44.44-.44.44-.84.44-1.239.44-2.918.88-4.157 1.76-1.68.439-2.918.919-4.597 1.798-.4 0-.84.44-1.64.44-.44.44-1.279.44-1.678.88-.44.439-.84.439-1.24.439-1.279.88-2.918 1.36-4.197 2.239-1.24.44-2.479 1.319-3.718 1.759-.44.44-.84.44-.84.44-1.678.919-2.918 1.798-4.157 2.238-.44.44-.84.44-1.28.88-.399 0-.839.44-1.238.44-.4.439-.4.439-.84.439-.4.44-.84.92-1.24.92-1.238.879-2.518 1.758-3.757 2.638-1.239.88-2.478 1.359-3.758 2.238h-.4c0 .44 0 .44-.439.44-1.24.88-2.478 1.759-3.718 2.678-1.279 1.32-2.918 2.2-4.197 3.079-1.24.919-2.479 2.238-3.718 3.118 0 0-.44 0-.44.44-1.239.879-2.078 1.798-3.318 2.678-1.239.88-2.518 2.198-3.757 3.118-.84 1.32-2.08 2.199-3.318 3.078 0 .48 0 .48-.44.48-.84.88-2.079 2.198-3.318 3.518-.44.48-1.24.919-1.68 1.799-.399.44-1.238.879-1.638 1.758-1.28.92-2.119 2.24-3.358 3.558-.4.44-.84.88-1.24 1.8-.839.439-1.239 1.318-1.678 1.758-1.24 1.32-2.079 2.679-3.318 3.998-1.24 1.319-2.519 3.118-3.758 4.437-2.918 4.437-5.397 8.875-8.315 12.872l1.639.48c2.918 0 2.519.88 1.679 3.078-.84 1.799-3.318 2.239-4.157 4.917-.44 2.638.839 1.759.4 3.998-.4 2.198-2.48 2.198-2.919 4.437-.4 2.638 1.68 3.558 1.28 5.756-.84 2.24-2.12 2.679-2.919 4.438-.84 2.238 1.24 2.238.8 3.997-.8 1.8-2.919 2.679-1.64 8.875.84 6.676.4 10.234 4.158 7.995 2.079-.88 3.758-7.076 3.758-12.432 0-3.558.84-6.636.84-8.875 0-2.199 0-7.995.399-11.553.4-6.196 2.918-11.113 5.836-10.633 4.997.879 4.598 5.756 7.916 3.517 3.757-2.198-2.08-3.997 0-6.636 1.239-.88 2.918-1.359 4.597-5.356 1.24-3.518-.44-3.078-1.28-4.877-.4-2.2 2.08-.88 4.598-2.639 2.478-1.799.4-3.558 2.478-8.914 1.68-5.317 1.68-7.076 5.437-11.074.84-.92 2.079-1.799 2.079-1.799C108.214 34.94 147.39 17.63 188.206 17.63c50.81 0 102.498 30.662 127.483 74.195 13.312 23.066 22.906 71.477 42.054 79.472-5.796-6.196-10.793-15.51-14.99-29.742z" fill="#a42149" fill-rule="evenodd"/><path d="M366.018 177.972c-2.918-1.759-5.836-3.997-8.315-6.676-19.188-7.995-28.742-56.406-42.094-79.512-24.985-43.573-76.594-74.235-127.403-74.235-40.815 0-79.952 17.35-108.694 44.453 0 0-.44.44-1.28 1.32h.44c27.064-24.865 73.716-39.097 111.173-39.097 47.491 0 96.222 31.541 119.967 72.436 3.718 7.116 7.076 14.672 9.554 22.667 1.68 5.756 6.277 27.983 6.676 33.34.84 6.196.84 12.872.84 19.108 0 24.865-9.155 55.087-27.503 79.951-25.385 31.581-70.798 51.13-109.534 51.13-34.979 0-82.03-16.03-109.933-39.137v.48l.84.88c29.141 27.103 67.478 44.852 107.454 44.852 41.215 0 89.506-18.189 117.009-52.408 9.154-11.113 22.906-36.018 35.419-30.222 4.157-2.238 8.714-3.997 14.151-3.997 14.551-.88 37.897 2.678 55.806 10.233 2.918.88 5.837 1.76 8.715 3.079v-43.534c-13.712-3.998-24.985-6.676-29.982-7.555-9.554-1.76-21.227-6.676-23.306-7.556z" fill="#ec795f" fill-rule="evenodd"/><path d="M322.245 184.648c-2.479 21.347-11.233 44.853-25.785 65.28-24.585 30.662-68.318 49.29-105.816 49.29 32.5-3.997 107.455-23.945 131.6-114.57z" fill="#eda981" fill-rule="evenodd"/><path d="M419.306 229.98c-23.306-10.233-49.93-17.349-74.115-8.874 12.512-2.239 33.74-4.477 74.115 11.513v-2.638z" fill="#db4939" fill-rule="evenodd"/><path d="M319.366 119.328c-2.478-7.995-5.836-15.55-9.594-22.667-23.705-40.855-72.436-72.396-119.927-72.396-37.857 0-85.348 14.671-112.412 39.976h-.4c-3.358 3.558-3.358 5.357-4.997 10.674-1.279 2.678-1.279 4.437-1.279 5.756v4.917c0 7.076-.84 18.629-.4 22.187.4 2.238.84 3.558 1.68 4.877 0 .44 0 .44.4.92 0 .439.399 1.318.839 1.758 10.833 5.317 18.748 24.425 18.748 47.531v.44-.44c0 19.988-5.836 37.298-14.59 44.853-.4 1.32-.4 2.678-.84 3.998-1.24 4.877-2.919 9.754-4.158 14.67-.4 1.32-.4 2.64-.84 4.438v4.438c-.4.879-.4 1.758-.4 3.118v9.754c0 .88.4 1.759.84 3.118 1.64 4.877 1.64 6.636 4.558 9.754 27.503 24.425 77.033 41.735 113.25 41.735 38.737 0 84.15-19.509 109.535-51.05 18.308-24.864 27.503-55.086 27.503-79.951 0-3.118 2.878-6.236 2.878-9.314-.4-3.558-3.318-6.676-3.718-9.794-.44-5.317-4.997-27.544-6.676-33.3zm1.68 33.74c.4 3.117 3.317 5.356 3.317 8.434.4 3.558-2.478 7.116-2.478 10.234 0 25.305-9.994 53.727-26.664 76.833-23.306 29.303-66.64 49.73-105.376 49.73-35.778 0-83.67-17.749-109.494-40.855-1.679-1.32-2.078-2.638-2.918-5.757l-.84-1.798c-.4-2.2-.4-3.558-.839-4.438 0-1.759 0-11.992.44-15.55 2.079-8.435 2.918-16.87 6.236-19.988 8.755-8.875 14.591-26.184 14.591-47.052 0-23.985-7.915-43.533-19.588-50.649-5.836-9.314-3.758-18.629-2.518-27.543.84-1.32.84-3.078.84-3.998.439-1.32.439-2.638.839-4.437l.84-1.76c1.238-3.997 1.238-4.876 3.317-6.675h-.4C82.43 66.04 82.43 65.6 84.51 64.68c24.985-21.307 67.479-35.938 105.336-35.938 44.173 0 91.624 28.862 115.37 70.157 3.758 6.676 6.676 13.752 9.154 21.747 1.24 3.118 5.837 13.792 6.676 30.661v1.76z" fill="#efb48f" fill-rule="evenodd"/><path d="M77.353 207.734c8.735-7.555 14.551-24.885 14.551-44.853 0-23.106-7.895-42.194-18.708-47.53-.42-.44-.84-1.32-.84-1.76-.4-.46-.4-.46-.4-.9-.84-1.338-1.259-2.658-1.679-4.876-.42-3.558.42-15.111.42-22.207v-4.897c0 1.34 0 2.239-1.24 3.118-2.498 1.78-4.996.44-4.576 2.659.82 1.779 2.498 1.339 1.239 4.897-1.66 3.997-3.318 4.437-4.577 5.316-2.079 2.679 3.757 4.438 0 6.676-3.318 2.219-2.899-2.678-7.896-3.557-2.918-.44-5.416 4.437-5.836 10.653-.4 3.558-.4 9.334-.4 11.553 0 2.219-.84 5.317-.84 8.875 0 5.336-1.658 11.553-3.737 12.432-1.26.9-1.659.9-2.079.44-6.236 6.216-8.335 34.2.82 38.636.42 0 .84 0 1.259.44 2.079.9 3.738 6.676 3.738 12.453 0 3.537.84 6.216.84 8.874 0 1.78 0 7.995.399 11.553.42 5.757 2.918 10.654 5.836 10.214 4.997-.46 5.397-7.116 9.155-4.897 3.318 2.219-1.26 5.777.82 8.435.839.9 2.498.46 4.157 4.457 1.26 3.978-.4 3.098-1.24 4.877-.42 2.219.42 1.78 2.919 3.558 1.659 1.32 1.24 2.219 1.659 5.757v-9.754c0-1.34 0-2.22.42-3.119v-4.437c.42-1.779.42-3.118.82-4.437 1.258-4.897 2.917-9.774 4.157-14.651.42-1.34.42-2.679.84-3.998zm14.551-44.853v.44-.44z" fill="#d5ac9e" fill-rule="evenodd"/><path d="M48.99 208.993c.84-5.776 3.758 0 5.837 2.219 2.898 2.678 5.397 5.337 9.554 5.776 4.997.44 9.994-3.997 10.813-9.314-2.078-.9-5.396 1.32-7.895 1.32-4.997-.44-8.734-3.998-11.653-7.996-2.078-2.658-3.318-5.776-4.577-8.874-.82-1.34-1.24-2.22-2.498-2.679zm-3.717-58.644c-4.558 2.658-4.158 5.756-6.217 10.633-1.679-1.758.4-7.975.82-9.754.42-1.759.84-3.977 2.079-5.316 1.239-1.34 3.737-1.78 4.137-3.558z" fill="#ce9e94" fill-rule="evenodd"/><path d="M88.227 163.341c0-27.523-9.575-49.29-21.667-49.29-11.653 0-21.667 21.767-21.667 49.29v-.46c0 27.084 10.014 49.27 21.667 49.27 12.092 0 21.667-22.186 21.667-49.27v.46z" fill="#5b749c" fill-rule="evenodd"/><path d="M88.227 163.341c0-27.084-9.575-49.29-21.667-49.29-11.653 0-21.667 22.206-21.667 49.29v-.46c0 27.524 10.014 49.27 21.667 49.27 12.092 0 21.667-21.746 21.667-49.27v.46z" fill="#e2c2bb" fill-rule="evenodd"/><path d="M66.48 131.32c7.935 0 13.751 14.212 13.751 31.981v-.46c0 17.77-5.816 31.96-13.751 31.96-7.496 0-13.752-14.19-13.752-31.96v.46c0-17.77 6.256-31.98 13.752-31.98z" fill="#e7cdc6" fill-rule="evenodd"/><path d="M66.48 143.313c4.997 0 8.714 8.895 8.714 19.988v-.46c0 11.094-3.717 19.968-8.714 19.968-4.558 0-8.715-8.874-8.715-19.968v.46c0-11.093 4.157-19.988 8.715-19.988z" fill="#ead4d0" fill-rule="evenodd"/><path d="M66.5 137.477c-6.217 0-11.613 11.573-11.613 25.344 0 13.792 5.396 25.345 11.613 25.345-4.977-.44-10.354-9.334-10.354-24.445.4-15.111 6.616-24.905 11.593-24.465 4.977.46 7.455 6.236 7.455 6.236-1.639-3.558-4.957-8.015-8.694-8.015z" fill="#e3c5bf" fill-rule="evenodd"/><path d="M66.52 142.833c-4.538 0-8.275 8.895-8.275 20.468v-.46c0 11.114 3.737 20.448 8.275 20.448-3.298-.44-7.436-7.556-7.436-19.548.42-12.013 4.537-20.008 8.275-19.568 3.718.44 5.357 4.897 5.357 4.897-1.24-2.679-3.298-6.237-6.196-6.237z" fill="#e3c5bf" fill-rule="evenodd"/><path d="M66.56 148.99c-3.338 0-5.837 6.256-5.837 13.831 0 7.596 2.499 13.832 5.837 13.832-2.499-.44-4.578-4.897-4.578-13.372 0-8.035 2.919-12.952 4.997-12.952 2.499.46 3.738 3.138 3.738 3.138-.82-1.799-2.498-4.477-4.157-4.477z" fill="#e7cdc7" fill-rule="evenodd"/><path d="M53.208 163.321c0 12.892 3.358 24.005 7.515 29.322-3.758-4.877-6.676-15.09-6.256-28.423 0-19.108 6.676-32 12.532-31.12 5.417.46 8.755 8.454 8.755 8.454-2.079-4.457-4.997-10.234-9.174-10.234-7.516 0-13.372 14.232-13.372 32.001z" fill="#e3c5bf" fill-rule="evenodd"/><path d="M66.56 119.727c10.433 0 19.188 19.549 19.188 43.534v-.46c0 23.986-8.755 43.514-19.188 43.514-10.434 0-18.789-19.528-18.789-43.514v.46c0-23.985 8.355-43.534 18.789-43.534" fill="none" stroke="#f0dddb" stroke-width=".48" stroke-miterlimit="8"/><path d="M66.52 125.484c9.174 0 16.67 16.91 16.67 37.817v-.46c0 20.908-7.496 37.797-16.67 37.797-9.175 0-16.27-16.89-16.27-37.797v.46c0-20.907 7.095-37.817 16.27-37.817" fill="none" stroke="#f0dddb" stroke-width=".48" stroke-miterlimit="8"/><path d="M66.48 136.997c6.276 0 11.273 11.593 11.273 26.284v-.46c0 14.252-4.997 25.825-11.273 25.825-6.256 0-11.273-11.573-11.273-25.825v.46c0-14.691 5.017-26.284 11.273-26.284" fill="none" stroke="#f0dddb" stroke-width=".48" stroke-miterlimit="8"/><path d="M66.48 143.313c4.997 0 8.714 8.895 8.714 19.988v-.46c0 11.094-3.717 19.968-8.714 19.968-4.558 0-8.715-8.874-8.715-19.968v.46c0-11.093 4.157-19.988 8.715-19.988" fill="none" stroke="#f0dddb" stroke-width=".48" stroke-miterlimit="8"/><path d="M66.48 148.99c3.338 0 6.236 6.236 6.236 14.231v-.46c0 7.996-2.898 14.212-6.236 14.212-3.318 0-6.237-6.216-6.237-14.212v.46c0-7.995 2.919-14.231 6.237-14.231" fill="none" stroke="#f0dddb" stroke-width=".48" stroke-miterlimit="8"/><path d="M63.202 163.301c0-4.897 1.259-8.475 3.318-8.475 2.078 0 3.717 3.578 3.717 8.475v-.46c0 4.897-1.639 8.455-3.717 8.455-2.06 0-3.318-3.558-3.318-8.455v.46z" fill="none" stroke="#f0dddb" stroke-width=".48" stroke-miterlimit="8"/><path d="M88.227 163.341c0-27.523-9.575-49.29-21.667-49.29-11.653 0-21.667 21.767-21.667 49.29v-.46c0 27.084 10.014 49.27 21.667 49.27 12.092 0 21.667-22.186 21.667-49.27v.46z" fill="none" stroke="#fff" stroke-width=".8" stroke-linecap="round" stroke-linejoin="round" stroke-miterlimit="10"/><path d="M66.48 131.32c7.935 0 13.751 14.212 13.751 31.981v-.46c0 17.77-5.816 31.96-13.751 31.96-7.496 0-13.752-14.19-13.752-31.96v.46c0-17.77 6.256-31.98 13.752-31.98" fill="none" stroke="#f0dddb" stroke-width=".48" stroke-miterlimit="8"/><path d="M47.771 155.706c1.26-21.747 9.574-38.597 19.548-37.718 10.394.88 12.892 14.212 12.892 14.212.42 2.658.82 1.32-.42-.9-4.157-7.095-22.026-23.086-32.02 24.406z" fill="#f3e5e2" fill-rule="evenodd"/><path d="M51.05 138.036c2.937-10.253 9.213-20.067 16.729-19.188 5.856.46 8.775 5.816 8.775 5.816-3.758-4.917-15.87-11.173-25.505 13.372z" fill="#fff" fill-rule="evenodd"/><path d="M53.528 195.202c3.358 7.115 17.13 24.465 28.382-6.237-4.577 8.455-15.01 25.365-28.382 6.237z" fill="#f5e8e6" fill-rule="evenodd"/><path d="M68.179 204.576s0 .44-.42.86c1.24 0 2.458 0 3.278-.42v-.86c-.4 0-.4-.88-.4-.88-.42 0-1.24 0-1.639.44zm4.097-2.139c-.82 0-1.24.86 0 1.3 0 .42.84 0 .84-.44.4-.42 0-.86 0-1.3zm-5.316 1.719c-.42 0-1.24 0-1.24.46-.84.46 0 .92.4.92 1.24.46 1.24 0 1.24-.92z" fill="#fff" fill-rule="evenodd"/><path d="M88.107 59.384c-11.673 8.435-14.172 18.209-14.592 32.4v5.337c0 10.214 1.68 12.872 7.936 19.089 8.335 8.874 13.751 27.083 13.751 46.611 0 18.649-5.017 36.858-12.932 46.612 8.755-10.194 16.25-26.624 16.25-46.172v-.44c0-20.407-5.836-39.056-14.57-48.83-5.418-5.317-7.097-7.096-7.097-16.87 0-1.779 0-3.558.42-5.337.42-15.53 3.758-23.086 12.912-30.181 8.755-6.217 52.928-32.86 101.259-32.86-49.17 0-94.583 23.985-103.337 30.641z" fill="#f9e0d0" fill-rule="evenodd"/><path d="M87.347 70.637c0-2.059 1.699-3.758 3.758-3.758a3.766 3.766 0 0 1 3.758 3.758 3.753 3.753 0 0 1-3.758 3.758 3.766 3.766 0 0 1-3.758-3.758zm8.715-4.397c0-.84.74-1.52 1.639-1.52.92 0 1.639.68 1.639 1.52s-.72 1.519-1.64 1.519c-.899 0-1.638-.68-1.638-1.52zM83.51 76.234c0-1 .959-1.84 2.118-1.84 1.18 0 2.119.84 2.119 1.84 0 1.02-.94 1.839-2.119 1.839-1.16 0-2.119-.82-2.119-1.84z" fill="#fff" fill-rule="evenodd"/><path d="M78.233 207.274c-2.1 3.558-7.996 23.086-7.556 35.499m-.759-31.101c0 3.997-2.16 21.267-2.16 21.267m-3.357-20.308-1.2 8.795m-5.436-13.272c2.159 3.558 1.739 13.272 1.739 13.272m-2.139-119.368c1.999 3.078 1.6 14.072 1.6 14.951m4.237-14.151.16 11.193m3.518-25.345c-.32 3.978 0 24.306 0 24.306m4.197-31.502c-.4 4.458-3.318 28.923 3.318 34.7" fill="none" stroke="#fff" stroke-width=".8" stroke-linecap="round" stroke-linejoin="round" stroke-miterlimit="10"/><path d="M46.132 230.42h-1.639c2.918 4.877 6.236 9.754 9.554 14.192 0 0 0 0 0 0s0 0 0 0 0 0 0 0c0 .44 0 .44.44.44 0 .44 0 .44.4.879 1.239 1.799 2.918 3.558 4.157 5.357.84.88 1.24 1.759 2.079 2.638.44.44.84.92 1.28 1.36.799 1.318 1.638 2.198 2.478 3.077.84.48 1.239 1.36 1.679 1.8.4.44.84.879 1.239 1.319a545.993 545.993 0 0 0 4.597 4.877c.4.44 1.24.919 1.64 1.359 0 0 0 0 0 0 .839.88 1.278 1.319 2.078 1.759 7.515 7.115 15.43 13.312 23.745 19.108.44 0 .84.44 1.28.44 1.639 1.319 3.717 2.678 5.796 3.558.44.44.84.44 1.28.88 5.836 3.117 11.632 6.195 17.469 8.874 1.24.44 2.079.88 2.918 1.319 1.679.92 3.358 1.36 4.597 1.799 1.24.44 2.918.88 4.158 1.759 1.239.44 2.478.92 4.157 1.359 1.68.44 3.358.88 4.997 1.32 1.24.439 2.079.879 3.358.879 2.479.88 5.397 1.799 8.315 2.238.84 0 1.68.44 2.918.44 2.08.44 3.758.88 5.837.88 1.24.44 2.079.44 3.318.44 2.079.439 4.157.439 5.836.879h2.919c2.918.44 6.236.44 9.154.44 3.318 0 6.676 0 10.434-.44 54.527-2.639 101.618-28.863 124.524-73.236 1.64-3.118 7.076-10.673 16.63-15.55-12.472-3.558-25.784 19.987-34.539 30.62-27.503 34.22-75.794 52.41-117.049 52.41-39.976 0-78.313-17.75-107.455-44.854 0 0 0 0 0 0l-2.478-2.238c-4.598-4.438-4.598-6.197-6.277-11.513-2.078-5.797 0-7.116-2.478-8.875-2.519-1.799-3.358-1.36-2.918-3.558.84-1.799 2.478-.92 1.239-4.917-1.68-3.997-3.318-3.518-4.158-4.437-2.078-2.638 2.479-6.196-.84-8.435-3.757-2.199-4.157 4.437-9.154 4.917-2.918.44-5.436-4.477-5.836-10.234-.4-3.558-.4-9.754-.4-11.553 0-2.638-.84-5.317-.84-8.874 0-5.757-1.678-11.553-3.757-12.433-3.758-2.238-3.318 1.32-4.157 7.556-1.28 6.196.84 7.115 1.639 8.874.44 1.76-1.64 1.76-.8 3.998.8 2.238 2.079 2.678 2.878 4.437.44 2.239-1.639 1.799-1.239 4.437.44 2.239 2.519 2.239 2.918 4.438.44 2.238-.84 2.678-.4 5.356.84 2.639 3.319 3.079 4.158 5.317.84 1.76 1.24 2.639-1.679 3.118m296.62-88.866c-.4-2.238-.84-3.997-1.239-6.236-.4 0-.4-.44-.4-.44-2.918-9.754-6.276-19.548-10.833-28.862-.44-.44-.44-.88-.44-.88-.84-1.799-1.639-3.118-2.478-4.437 0-.44-.44-.88-.84-1.799-.44-1.32-1.24-2.199-2.079-3.558-.44-.88-.84-1.319-.84-1.759-.839-1.319-1.678-2.678-2.518-3.997-.4-.44-.8-1.32-1.239-1.76-.4-1.358-1.24-2.238-2.079-3.557-.4-.44-.84-1.36-1.239-2.239-.84-.88-1.679-1.759-2.518-3.118-.4-.44-.84-1.319-1.64-2.198-.44-.88-1.279-1.8-2.118-3.119-.8-.44-1.24-1.319-1.639-1.759-.84-1.359-1.679-2.238-2.519-3.118-.839-.88-1.239-1.359-2.078-2.238-.84-.88-1.68-1.76-2.479-2.639-.44-.92-1.279-1.359-1.679-2.238-.84-.88-1.679-1.76-2.518-2.679-.8-.88-1.64-1.319-2.079-2.198-.84-.88-2.079-1.36-2.918-2.239-.4-.88-1.24-1.32-2.079-2.199-.84-.92-1.639-1.799-2.478-2.238-.84-.88-1.68-1.32-2.519-2.199-.84-.92-1.679-1.36-2.478-2.239-.84-.44-1.68-1.319-2.519-1.759-1.24-.919-2.079-1.798-2.918-2.238-.84-.88-1.68-1.32-2.479-1.76-1.279-.919-2.078-1.358-2.918-2.238-.84-.44-1.679-.88-2.918-1.759-.84-.48-1.679-1.359-2.519-1.799-1.239-.44-2.078-1.319-2.918-1.759-1.239-.44-2.079-.919-2.918-1.798-1.24-.44-2.079-.88-2.918-1.32-1.24-.44-2.079-1.319-2.918-1.799-1.24-.44-2.08-.88-3.318-1.319-.84-.44-1.68-.88-2.919-1.319-.84-.44-2.078-.88-2.918-1.36-1.24-.439-2.079-.879-3.318-1.318-.84-.44-2.079-.88-3.358-1.32-.8-.44-2.079-.879-2.918-1.359-1.24 0-2.079-.44-3.318-.88-1.24-.439-2.079-.879-3.318-.879-.84-.44-2.079-.88-3.358-.88-.84-.439-2.079-.879-2.918-.879-1.24-.48-2.479-.92-3.718-.92-1.28-.439-2.119-.439-3.358-.879-1.24 0-2.478-.44-3.758-.44-.8-.439-2.078-.439-2.918-.439-1.24-.44-2.878-.44-4.157-.44-.84-.44-2.08-.44-2.919-.44-1.639-.44-2.918-.44-4.557-.44h-2.518c-2.479-.479-4.558-.479-7.076-.479-3.318 0-6.676 0-9.994.48 0 0 0 0 0 0s0 0 0 0c-1.24 0-2.079 0-3.318.44-2.119 0-4.197 0-6.276.44-1.24.439-2.479.439-3.758.879-1.24 0-2.079 0-2.918.44-1.24 0-2.079 0-3.318.44-1.24 0-2.479.439-4.158.879-.44 0-.84 0-1.239.48h-1.28c-.839.44-1.638.44-2.917.879-1.24.44-2.479.44-3.718.88-.84.439-1.68.439-2.519.879-.839.44-1.239.44-2.078.44-.4.44-.4.44-.84.44-1.679.479-2.918.919-4.157 1.358-.44.44-.44.44-.84.44-1.239.44-2.918.88-4.157 1.76-1.68.439-2.918.919-4.597 1.798 0 0 0 0 0 0-.4 0-.84.44-1.64.44-.44.44-1.279.44-1.678.88-.44.439-.84.439-1.24.439-1.279.88-2.918 1.36-4.197 2.239-1.24.44-2.479 1.319-3.718 1.759-.44.44-.84.44-.84.44-1.678.919-2.918 1.798-4.157 2.238-.44.44-.84.44-1.28.88-.399 0-.839.44-1.238.44-.4.439-.4.439-.84.439-.4.44-.84.92-1.24.92-1.238.879-2.518 1.758-3.757 2.638-1.239.88-2.478 1.359-3.758 2.238h-.4c0 .44 0 .44-.439.44-1.24.88-2.478 1.759-3.718 2.678-1.279 1.32-2.918 2.2-4.197 3.079-1.24.919-2.479 2.238-3.718 3.118 0 0-.44 0-.44.44-1.239.879-2.078 1.798-3.318 2.678 0 0 0 0 0 0-1.239.88-2.518 2.198-3.757 3.118-.84 1.32-2.08 2.199-3.318 3.078 0 .48 0 .48-.44.48-.84.88-2.079 2.198-3.318 3.518 0 0 0 0 0 0-.44.48-1.24.919-1.68 1.799-.399.44-1.238.879-1.638 1.758-1.28.92-2.119 2.24-3.358 3.558 0 0 0 0 0 0-.4.44-.84.88-1.24 1.8-.839.439-1.239 1.318-1.678 1.758-1.24 1.32-2.079 2.679-3.318 3.998-1.24 1.319-2.519 3.118-3.758 4.437 0 0 0 0 0 0-2.918 4.437-5.397 8.875-8.315 12.872l1.639.48c2.918 0 2.519.88 1.679 3.078-.84 1.799-3.318 2.239-4.157 4.917-.44 2.638.839 1.759.4 3.998-.4 2.198-2.48 2.198-2.919 4.437-.4 2.638 1.68 3.558 1.28 5.756-.84 2.24-2.12 2.679-2.919 4.438-.84 2.238 1.24 2.238.8 3.997-.8 1.8-2.919 2.679-1.64 8.875.84 6.676.4 10.234 4.158 7.995 2.079-.88 3.758-7.076 3.758-12.432 0-3.558.84-6.636.84-8.875 0-2.199 0-7.995.399-11.553.4-6.196 2.918-11.113 5.836-10.633 4.997.879 4.598 5.756 7.916 3.517 3.757-2.198-2.08-3.997 0-6.636 1.239-.88 2.918-1.359 4.597-5.356 1.24-3.518-.44-3.078-1.28-4.877-.4-2.2 2.08-.88 4.598-2.639 2.478-1.799.4-3.558 2.478-8.914 1.68-5.317 1.68-7.076 5.437-11.074.84-.92 2.079-1.799 2.079-1.799C108.214 34.94 147.39 17.63 188.206 17.63c50.81 0 102.498 30.662 127.483 74.195 13.312 23.066 22.906 71.477 42.054 79.472-5.796-6.196-10.793-15.51-14.99-29.742" fill="none" stroke="#fff" stroke-width=".8" stroke-linecap="round" stroke-linejoin="round" stroke-miterlimit="10"/><path d="M366.058 178.012c-2.918-1.759-5.836-3.997-8.315-6.676-19.188-7.995-28.742-56.406-42.094-79.512-24.985-43.573-76.594-74.235-127.403-74.235-40.815 0-79.952 17.35-108.694 44.453 0 0-.44.44-1.28 1.32h.44c27.064-24.865 73.716-39.097 111.173-39.097 47.491 0 96.222 31.541 119.967 72.436 3.718 7.116 7.076 14.672 9.554 22.667 1.68 5.756 5.837 19.988 6.676 33.34.4 3.078 3.318 6.196 3.758 9.314 0 3.558-2.918 6.676-2.918 9.794 0 24.865-9.155 55.086-27.503 79.951-25.385 31.581-70.798 51.13-109.534 51.13-34.979 0-82.03-16.03-109.933-39.137v.48l.839.88s0 0 0 0c29.142 27.103 67.48 44.852 107.455 44.852 41.215 0 89.506-18.189 117.009-52.408 9.154-11.113 22.906-36.018 35.419-30.222 4.157-2.238 8.714-3.997 14.151-3.997 14.551-.88 37.897 2.678 55.806 10.233 2.918.88 5.837 1.76 8.715 3.079v-43.534c-13.712-3.998-24.985-6.676-29.982-7.555-9.554-1.76-21.227-6.676-23.306-7.556" fill="none" stroke="#fff" stroke-width="1.359" stroke-linecap="round" stroke-linejoin="round" stroke-miterlimit="10"/><path d="M367.257 162.781c4.158 4.438 10.834 8.435 19.149 10.234 7.115 1.32 16.27 3.998 32.9 8.435v11.513c-13.712-3.958-24.985-6.636-29.982-7.515-9.554-1.8-21.227-6.676-23.306-7.556-9.994-5.317-17.07-15.99-23.306-36.418-15.83-67.439-75.794-130.04-154.506-130.04-52.888 0-104.976 29.301-135.358 71.036 1.24-1.799-.44-3.998.4-7.995 1.279-4.877 5.436-4.877 6.276-8.435.4-3.558-.44-4.437-1.68-3.558 0 .44-.439.44-.439.44C87.827 25.624 134.478.76 187.366 1.239c87.467 1.32 141.155 55.007 162.422 120.727 1.639 5.317 8.715 30.622 17.47 40.815z" fill="#eff6fc" fill-rule="evenodd"/><path clip-path="url(#a)" d="M419.306 192.963c-13.712-3.958-24.985-6.636-29.982-7.515-9.554-1.8-21.227-6.676-23.306-7.556-9.994-5.317-17.07-15.99-23.306-36.418-15.83-67.439-75.794-130.04-154.506-130.04-52.888 0-104.976 29.301-135.358 71.036 0 0 0 0 0 0 1.24-1.799-.44-3.998.4-7.995 1.279-4.877 5.436-4.877 6.276-8.435.4-3.558-.44-4.437-1.68-3.558 0 .44-.439.44-.439.44C87.827 25.624 134.478.76 187.366 1.239c87.867 1.32 141.595 55.487 162.422 121.167 1.639 4.877 8.715 30.182 17.47 40.375 4.157 4.438 10.833 8.435 19.148 10.234 7.115 1.32 16.27 3.998 32.9 8.435" fill="none" stroke="#000" stroke-width=".8" stroke-linecap="round" stroke-linejoin="round" stroke-miterlimit="10"/><path d="M419.306 235.657c-2.878-.88-5.797-2.198-8.715-3.118-17.909-7.076-41.255-11.113-55.806-9.754-18.749 1.32-29.582 15.11-31.66 19.548-24.186 47.571-76.235 73.795-134.959 73.795-2.918 0-6.236 0-9.154-.44h-2.919c-1.679 0-3.757-.44-5.836-.879h-3.318c-2.079-.44-3.758-.92-5.837-1.359-1.239 0-2.078-.44-2.918-.44-2.918-.44-5.836-1.319-8.355-1.759-1.24-.44-2.079-.88-3.318-1.359-1.679-.44-3.318-.88-4.997-1.319-1.679-.44-2.918-.88-4.157-1.32-1.24-.439-2.918-.919-4.158-1.798-1.279-.44-2.918-.88-4.597-1.76-.84-.439-1.679-.918-2.918-1.358-5.837-2.639-11.673-5.317-17.47-8.875-.44 0-.84-.44-1.279-.88-2.079-.919-4.157-2.238-5.836-3.557-.4 0-.8-.44-1.24-.44a263.732 263.732 0 0 1-23.745-18.669c-.8-.919-1.24-1.359-2.079-2.238-.4-.44-1.24-.88-1.639-1.32-1.679-1.798-2.918-3.118-4.597-4.916-.4-.44-.84-.88-1.24-1.32-.44-.44-.839-.88-1.678-1.799-.84-.879-1.68-1.758-2.479-2.638-.44-.92-.84-1.36-1.279-1.799-.84-.88-1.24-1.759-2.079-2.638-1.239-1.8-2.918-3.558-4.157-5.357-.4-.44-.84-.88-.84-1.32 0 0-.4 0-.4-.439v.44c.4 2.638-6.276 0 1.24 11.553 2.518 3.558.84 7.995-2.079 4.877 30.382 40.455 79.112 67.559 134.518 67.559 65.8 0 120.807-25.784 147.87-77.793 5.837-12.872 16.67-17.31 32.061-15.99 11.673 1.319 36.258 6.676 52.049 13.352z" fill="#eff6fc" fill-rule="evenodd"/><path d="M419.306 235.657c-2.878-.88-5.797-2.198-8.715-3.118-17.909-7.076-41.255-11.113-55.806-9.754-18.749 1.32-29.582 15.11-31.66 19.548-24.186 47.571-76.235 73.795-134.959 73.795-2.918 0-6.236 0-9.154-.44h-2.919c-1.679 0-3.757-.44-5.836-.879h-3.318c-2.079-.44-3.758-.92-5.837-1.359-1.239 0-2.078-.44-2.918-.44-2.918-.44-5.836-1.319-8.355-1.759-1.24-.44-2.079-.88-3.318-1.359-1.679-.44-3.318-.88-4.997-1.319-1.679-.44-2.918-.88-4.157-1.32-1.24-.439-2.918-.919-4.158-1.798-1.279-.44-2.918-.88-4.597-1.76-.84-.439-1.679-.918-2.918-1.358-5.837-2.639-11.673-5.317-17.47-8.875-.44 0-.84-.44-1.279-.88-2.079-.919-4.157-2.238-5.836-3.557-.4 0-.8-.44-1.24-.44a263.732 263.732 0 0 1-23.745-18.669c-.8-.919-1.24-1.359-2.079-2.238 0 0 0 0 0 0-.4-.44-1.24-.88-1.639-1.32-1.679-1.798-2.918-3.118-4.597-4.916-.4-.44-.84-.88-1.24-1.32-.44-.44-.839-.88-1.678-1.799-.84-.879-1.68-1.758-2.479-2.638-.44-.92-.84-1.36-1.279-1.799-.84-.88-1.24-1.759-2.079-2.638-1.239-1.8-2.918-3.558-4.157-5.357-.4-.44-.84-.88-.84-1.32 0 0 0 0 0 0s-.4 0-.4-.439v.44c.4 2.638-6.276 0 1.24 11.553 2.518 3.558.84 7.995-2.079 4.877 0 0 0 0 0 0 30.382 40.455 79.112 67.559 134.518 67.559 65.8 0 120.807-25.784 147.87-77.793 5.837-12.872 16.67-17.31 32.061-15.99 11.673 1.319 36.258 6.676 52.049 13.352" fill="none" stroke="#000" stroke-width=".8" stroke-linecap="round" stroke-linejoin="round" stroke-miterlimit="10"/><path d="M53.208 241.853c-2.079-3.537-4.557-7.535-6.636-11.533h1.239s-21.207-18.648-21.207-66.16c0-42.174 14.131-63.041 20.368-68.378h.839l-1.24-.44c2.08-3.538 4.158-7.535 6.637-11.093v-.9c-16.63 16.43-37.418 40.856-37.418 79.472 0 39.077 20.788 63.062 37.418 79.472v-.44z" fill="#f2f1f8" fill-rule="evenodd"/><path d="M59.104 61.982h-.42c-.42-.46-.42 0-.84 0 0 .44-.419.44-.419.44C50.35 69.078.76 91.305.76 162.862c0 72.895 50.429 95.561 52.927 98.66 0 0 0 .44.42.44v-.88c0 .44.4.88.82.88.42 0 .84-.44.84-.88.419-1.34.419-2.659 0-3.558-.42-.88-.84-2.658-1.66-3.558v-.88c-2.918-6.236-.42-6.236 0-7.555l.4-1.779c-1.24-1.779-1.24-1.339-1.24-1.339-16.67-16.45-37.497-40.435-37.497-79.552 0-38.656 20.828-63.101 37.498-79.551v.879c0-.44.42-.88.84-1.759.819-1.779-.42-4.018.399-8.015.84-4.437 4.177-4.877 5.017-7.556v-2.218s.4-1.34-.42-2.659z" fill="#f7fbfe" fill-rule="evenodd"/><path d="M59.104 61.982h-.42c-.42-.46-.42 0-.84 0 0 .44-.419.44-.419.44s0 0 0 0C50.35 69.078.76 91.305.76 162.862c0 72.895 50.429 95.561 52.927 98.66 0 0 0 .44.42.44v-.88c0 .44.4.88.82.88.42 0 .84-.44.84-.88.419-1.34.419-2.659 0-3.558-.42-.88-.84-2.658-1.66-3.558v-.88c-2.918-6.236-.42-6.236 0-7.555l.4-1.779c-1.24-1.779-1.24-1.339-1.24-1.339-16.67-16.45-37.497-40.435-37.497-79.552 0 0 0 0 0 0 0-38.656 20.828-63.101 37.498-79.551v.879c0-.44.42-.88.84-1.759 0 0 0 0 0 0s0 0 0 0c.819-1.779-.42-4.018.399-8.015.84-4.437 4.177-4.877 5.017-7.556v-2.218s.4-1.34-.42-2.659" fill="none" stroke="#00535f" stroke-width=".8" stroke-linecap="round" stroke-linejoin="round" stroke-miterlimit="10"/><path d="M31.94 86.068c-7.915 6.656-30.86 39.456-29.182 74.914 1.26-11.513 7.916-47.87 29.183-74.914z" fill="#fff" fill-rule="evenodd"/><path d="M47.771 230.3c2.479-.44 2.479-1.319 1.659-3.098-.84-2.218-2.898-2.658-3.318-5.336-.42-2.659.42-3.099 0-5.317-.42-2.219-2.079-2.219-2.498-4.438-.42-2.678 1.659-2.238.84-4.457-.42-1.779-1.66-2.219-2.08-4.437-.84-2.219.82-2.219.42-3.998-.42-1.779-2.498-2.658-1.679-8.874 1.26-5.337.84-8.875 2.918-7.996-7.895-4.437-6.236-32.42-.84-38.636-1.238-.44-1.238-3.558-2.078-8.435-.82-6.216 1.26-7.116 1.68-8.895.399-1.759-1.26-1.759-.42-3.977.42-1.78 1.658-2.239 2.078-4.457.82-2.22-1.26-3.099-.84-5.757.42-2.239 2.08-2.239 2.5-4.457.419-2.219-.42-1.32 0-3.998.419-2.658 2.478-3.098 3.317-4.877.82-2.219.82-3.118-1.659-3.118h-.84c-6.216 5.337-20.347 26.204-20.347 68.399 0 47.51 21.187 66.16 21.187 66.16z" fill="#81b6de" fill-rule="evenodd"/><path d="M34.799 155.766c-1.26 2.658-.42 10.233-.42 12.892.42 3.118 1.68 7.115 2.938 9.794.42 1.339 2.499 5.776 3.758 6.676.84.88 1.66-1.78 1.66-3.118-.4-.88-1.66-1.34-2.08-1.78-.42-.879-1.259-2.218-1.679-3.557a26.58 26.58 0 0 1-1.239-8.015c-.42-2.659 0-5.337.4-7.995 0-1.34-.4-3.118-.82-4.458-.84.9-1.259-.9-1.679 0z" fill="#008bca" fill-rule="evenodd"/><path d="M35.778 153.107c1.26-1.779 1.26-4.897 1.66-7.115.42-1.34.839-3.558 2.078-4.898 1.659-1.778 2.898 1.34 2.499 3.119 0 1.339-1.26 3.118-1.66 4.457-.42 1.779-1.259 3.098-1.259 4.437-.4 2.219-.4 5.777-1.659 7.556 0-1.32 0-2.659-.4-3.998-.42-1.34-1.259-2.658-1.259-3.998z" fill="#008bca" fill-rule="evenodd"/><path d="M34.1 158.904c0-3.118 2.038-10.254 4.876-11.593.4 4.457-1.619 10.254-2.018 14.71z" fill="#008bca" fill-rule="evenodd"/><path d="M40.316 110.053c0 3.098.42 5.317-.42 8.415-.84 2.639 0 4.857-.84 7.516-.84 2.638-1.259 4.417-.84 7.055 0 2.659-.839 5.757-.419 7.956-1.26-1.76-1.699-5.297-1.699-7.956 0-2.198 1.28-3.977 1.7-6.176 0-2.658-1.26-3.977-.42-6.636.839-2.199 1.259-5.297 2.098-7.515zM32.32 132.68c.42 2.638 2.1 4.397 2.939 7.035.84 1.76 0 3.518.42 5.277-2.1-3.078-3.778-8.355-4.618-12.312zm-1.998 10.153c.84 2.24 2.918 2.24 3.757 3.998.82 1.779 0 2.678 0 3.998-1.679-1.32-2.918-6.656-5.017-7.096zm-.88 7.636c.4 2.638 2.878 1.759 3.278 3.518.82 1.759-1.639 2.638-.4 4.837-1.239-1.76-.42-3.958-1.239-5.277-.82-1.32-3.298-1.32-2.059-3.518zm-.859 22.106c2.518 0 2.918-2.698 4.597-3.597 1.24 1.798 0 3.138-1.68 2.698 0 1.34-.819 1.779-2.078 1.34zm-.8-2.558c1.24-.9.84-1.799 1.66-2.698.819-.46 1.658 0 2.478-.9.82-.92.42-4.517 0-5.437-1.24.92 0 2.26-.42 3.618-.4 1.36-2.059.9-2.059 2.719zm.48-11.193c1.24 0 2.478 0 2.478 1.299-.82 0-2.058.44-2.478.86zm.799 23.126c1.24-.44 3.298-9.295 5.357-5.297-1.639.88-1.639 3.078-2.458 5.297-.42 1.759-.82 3.538-1.24 5.736zm10.034 3.498c0 2.678-1.239 4.917-1.239 7.595s1.24 4.897.82 7.575c0 3.119.82 3.578 1.659 6.696.4 2.219 0 4.458 0 6.676-1.66-1.779-1.24-4.457-2.08-6.676-1.238-2.238-2.478-3.577-2.478-6.256.42-2.219.42-3.997.42-6.236 0-3.118 2.059-4.457 2.059-7.136zm-5.016 9.354c-1.66-5.317 6.176-11.953.42-15.51.399.899 1.238 1.778 1.238 2.658 0 .9-1.239 1.779-1.239 2.218 0 2.219.4 3.118-.42 5.777z" fill="#b4d0ea" fill-rule="evenodd"/><path d="M30.262 178.392c.84-.46 4.137-6.216 4.557-1.779.4 2.219-3.318 3.978-2.898 7.076.42-1.76 1.659-4.857.82-6.636zm3.838 6.636c0-1.32 1.259-7.016 2.918-5.257 1.239 1.32-.84 5.257-1.66 6.556.82-.86.82-2.618 0-3.938zm-2.54-23.566c.82 1.8 2.86 6.236-.819 5.357 1.64-.9 1.24-2.239.82-4.018zm.38-3.118c1.6-1.32 1.6-3.538-.4-3.998zm1.6-6.636c1.359-1.779 1.359-4.018 0-5.357zm1.319-11.993c.42 2.659 1.719 3.998.86 6.636-1.3 0-2.18-1.759-2.18-3.078zm.919-4.837c0 1.78.42 3.998 1.68 5.317 2.478-1.759 1.239-5.317 1.239-7.995 0 1.779-.42 3.558-1.24 4.897z" fill="#3e9ed3" fill-rule="evenodd"/><path d="M28.263 175.294c1.22-1.32 3.258-2.199 4.877-2.639.4 2.199-2.439 2.639-4.058 3.518zm7.515 17.349c1.2-2.658 0-6.676 2.799-8.475 0 .9 0 1.8-.4 2.679zm-6.716-43.133c.42.879 2.06 3.517 3.298 3.957 1.22 0 2.859 0 1.64-1.759-.42-.44-2.46-.44-3.279-1.32-.82-.879-1.239-2.198-1.659-3.077zm6.656-20.028c-.42 1.778-.82 3.997-.42 6.216.42 1.779 2.08 3.997 1.68 6.216-2.919.44-3.758-8.875-3.758-11.533z" fill="#008bca" fill-rule="evenodd"/><path d="M34.1 139.715c.799 1.34 1.598 3.118 2.798 2.239 0-1.36-.8-2.239-.8-3.598zm-3.039 12.513c.84.86 3.358 2.598 3.358.42 0-.86-2.938-1.74-3.358-2.619zm-1.119 21.227c1.2.46 2.398 0 3.598 0-.8 1.359-1.6 1.819-2.399 2.718zm6.156 13.352c1.66-.44 1.24-2.219 2.479-3.118v1.799zm4.158-45.333c.8 2.699-.82 5.377-1.22 7.616-.82 2.678-1.619 5.816-2.038 8.934 0-2.678-1.22-16.09 3.258-16.55zm-3.358 34.22c0 1.778.86 3.997 2.118 5.336.84 1.78 2.519 2.659 2.1 0 0-.44-2.52-3.558-2.94-4.877-.419-1.339-.839-2.678-.839-4.457z" fill="#0071b0" fill-rule="evenodd"/><path d="M35.738 121.486c1.24 3.138-.42 6.257-.84 9.375 0 2.678.84 6.236 2.48 8.455m-7.116 1.359c.42 1.339 1.239.9 2.078 1.779.4.9.4 1.779.82 2.218.42.9 2.059 2.679 1.659 3.998m-5.757 5.676c1.26-.44 8.715-.879 4.578-3.997m-5.377 12.093c2.898-3.139 3.718-1.34 4.137 1.778.82 3.578-.82 3.119-2.478 5.797m-.86 7.875c1.26-.44 2.939-3.558 4.198-3.098 2.518 0 1.679 2.658.84 4.417-.84 2.219-3.359 7.096-2.52 9.754m4.078-2.118c-.44-1.78.86-3.558 2.999-3.098 1.279 2.658 0 3.537 0 6.636 0 .9.44 2.218.44 3.557 0 1.76 0 3.099.42 4.858m-9.575-39.976c1.2-.42 2.798-.42 2.798-2.159m5.837-27.983c-.32 1.799-.32 3.578-.32 5.357" fill="none" stroke="#fff" stroke-width=".48" stroke-linecap="round" stroke-linejoin="round" stroke-miterlimit="10"/><path d="M53.168 98.9c0-.88-.42-1.34 0-2.219-1.24 1.78-2.918 1.78-3.338 0 0 .44 0 1.34-.4 2.22-.84 1.778-2.918 2.218-3.338 4.876-.42 2.658.42 1.779 0 3.998-.42 2.218-2.079 2.218-2.498 4.437-.42 2.658 1.659 3.538.84 5.757-.42 2.218-1.68 2.678-2.08 4.437-.84 2.218.82 2.218.4 3.997-.4 1.78-2.498 2.659-1.659 8.875 1.26 6.656.42 10.194 3.758 7.975 2.079-.88 3.318-7.096 3.318-12.412 0-3.558.84-6.656.84-8.875 0-2.219 0-7.975.419-11.533.4-5.756 2.079-10.194 4.577-10.653 0-.44 0-.44.4-.88h-1.24zm-6.656-3.558.42.46-.42-.46zm-4.158 107.915c.42 2.218 1.68 2.658 2.1 4.437.819 2.199-1.26 1.76-.84 4.417.42 2.22 2.078 2.22 2.498 4.438.42 2.218-.42 2.658 0 5.317.42 2.658 2.519 3.098 3.338 5.316 0 .44 0 .44.42.88 0-.44.42-.88.84-.88.419.44 1.259.88 1.678 1.76-.42-1.76.42-2.2.82-3.539-2.079-.88-3.338-4.877-3.758-9.734-.42-3.558-.42-9.754-.42-11.533 0-2.658-.82-5.316-.82-8.854 0-5.757-1.258-11.513-2.937-12.413-3.338-2.218-2.919 1.34-4.178 7.536-.84 6.196 1.26 7.095 1.68 8.854.419 1.78-1.26 1.78-.42 3.998z" fill="#008bca" fill-rule="evenodd"/><path d="M47.771 230.3c2.479-.44 2.479-1.319 1.659-3.098-.84-2.218-2.918-2.658-3.338-5.336-.42-2.659.42-3.099 0-5.317-.42-2.219-2.079-2.219-2.498-4.438-.42-2.678 1.679-2.238.84-4.457-.42-1.779-1.66-2.219-2.08-4.437-.84-2.219.82-2.219.42-3.998-.42-1.779-2.498-2.658-1.679-8.874 1.26-5.337.84-8.875 2.918-7.996-7.915-4.437-6.236-32.42-.84-38.636-1.238-.44-1.238-3.558-2.078-8.435-.82-6.216 1.26-7.116 1.68-8.895.399-1.759-1.26-1.759-.42-3.977.42-1.78 1.658-2.239 2.078-4.457.84-2.22-1.26-3.099-.84-5.757.42-2.239 2.08-2.239 2.5-4.457.419-2.219-.42-1.32 0-3.998.419-2.658 2.498-3.098 3.337-4.877.82-2.219.82-3.118-1.659-3.118h-.84" fill="none" stroke="#fff" stroke-width=".8" stroke-linecap="round" stroke-linejoin="round" stroke-miterlimit="10"/><path d="M46.952 95.742c-6.237 5.337-20.368 26.204-20.368 68.399 0 47.51 21.187 66.16 21.187 66.16" fill="none" stroke="#000" stroke-width=".8" stroke-linecap="round" stroke-linejoin="round" stroke-miterlimit="10"/><path d="M296.9 162.382 74.875 117.489c7.915 7.555 13.352 24.905 13.352 45.332v.44-.44c0 19.109-4.598 35.979-11.673 43.974L296.9 162.382z" fill="#fdd990" fill-rule="evenodd"/><path d="m76.594 206.835 220.346-44.453-222.025-44.853" fill="none" stroke="#000" stroke-width="1.359" stroke-linecap="round" stroke-linejoin="round" stroke-miterlimit="10"/><path d="M436.815 134.039 296.42 162.342l140.395 28.462V134.04z" fill="#fdd990" fill-rule="evenodd"/><path d="M326.122 152.707c.44 3.119 3.278 6.197 3.678 9.315 0 3.518-2.838 6.636-2.838 9.714" fill="none" stroke="#fff" stroke-width="1.359" stroke-linecap="round" stroke-linejoin="round" stroke-miterlimit="10"/><path clip-path="url(#a)" d="M436.855 134.079 296.46 162.382l140.395 28.462" fill="none" stroke="#000" stroke-width="1.359" stroke-linecap="round" stroke-linejoin="round" stroke-miterlimit="10"/><path d="M76.594 206.835c7.095-8.435 11.673-24.865 11.673-43.974v.44c0-20.428-5.417-38.217-13.352-45.772" fill="none" stroke="#000" stroke-width="1.359" stroke-linecap="round" stroke-linejoin="round" stroke-miterlimit="10"/><path d="M278.111 162.422c0-10.794 8.315-19.589 18.55-19.589 10.273 0 18.548 8.795 18.548 19.589 0 10.833-8.275 19.588-18.549 19.588-10.234 0-18.549-8.755-18.549-19.588" fill="none" stroke="#fff" stroke-width="8.315" stroke-linecap="round" stroke-linejoin="round" stroke-miterlimit="10"/><path d="M278.111 162.422c0-10.794 8.315-19.589 18.55-19.589 10.273 0 18.548 8.795 18.548 19.589 0 10.833-8.275 19.588-18.549 19.588-10.234 0-18.549-8.755-18.549-19.588" fill="none" stroke="#000" stroke-width="3.358" stroke-linecap="round" stroke-linejoin="round" stroke-miterlimit="10"/></svg>