<svg xmlns="http://www.w3.org/2000/svg" version="1.0" viewBox="0 0 237.128 240.151"><defs><clipPath clipPathUnits="userSpaceOnUse" id="a"><path d="M3.518.08h236.816v240.334H3.518z"/></clipPath></defs><path d="M4.917 103.417v134.959h234.418V103.417H4.917z" fill="#f9d4e3" fill-rule="evenodd"/><path d="M4.797 104.017h234.178v135.038H4.797z" fill="none" stroke="#343434" stroke-width="1.199" stroke-linecap="round" stroke-linejoin="round"/><path d="M79.712 1.16h83.949l75.274 102.817H4.757L79.712 1.159z" fill="#f9d5cb" fill-rule="evenodd"/><path clip-path="url(#a)" d="M79.752 1.2H163.7l75.274 102.817H4.797L79.752 1.199z" fill="none" stroke="#343434" stroke-width="1.199" stroke-linecap="round" stroke-linejoin="round"/><path d="M4.757 160.083v-56.106h234.178v38.077s-8.175 17.45-17.71 17.45c-9.533 0-19.347-21.508-34.618-21.508-15.55 0-16.91 25.865-35.718 25.865-18.81 0-14.452-27.604-30.262-27.604-15.53 0-4.637 30.522-29.722 30.522-25.345 0-21.807-18.329-37.337-17.45-11.454.58-9.275 18.03-31.082 19.189-14.45.86-17.729-8.435-17.729-8.435z" fill="#f6b7a9" fill-rule="evenodd"/><path d="M221.226 151.608c-9.534 0-17.99-22.706-34.62-21.847-19.367 1.18-16.909 25.945-35.717 25.945-18.81 0-11.454-27.983-30.262-27.684-19.628.3-4.637 30.582-29.722 30.582-25.345 0-21.807-17.77-37.337-17.47-15.551.58-9.275 18.05-31.082 19.509-14.45.88-17.729-8.735-17.729-8.735v8.155s3.278 9.314 17.73 8.455c21.806-1.18 19.627-18.649 31.08-19.228 15.531-.88 11.993 17.469 37.338 17.469 25.085 0 14.191-30.582 29.722-30.582 15.81 0 11.453 27.684 30.262 27.684 18.808 0 20.167-25.925 35.718-25.925 15.27 0 25.085 21.547 34.619 21.547 9.534 0 17.71-17.47 17.71-17.47v-8.154s-8.176 17.75-17.71 17.75z" fill="#f29f9b" fill-rule="evenodd"/><path d="M221.226 151.708c-9.534 0-17.99-22.406-34.62-21.547-19.367 1.18-16.909 25.924-35.717 25.924-18.81 0-11.454-27.963-30.262-27.663-19.628.3-4.637 30.582-29.722 30.582-25.345 0-21.807-17.77-37.337-17.47-15.551.58-9.275 18.05-31.082 19.209-14.45.88-17.729-8.435-17.729-8.435v1.439s3.278 9.314 17.73 8.455c21.806-1.46 15.53-18.929 31.08-19.229 15.531-.58 11.993 17.47 37.338 17.47 25.085 0 10.094-30.282 29.722-30.562 18.808-.3 11.453 27.664 30.262 27.664 18.808 0 16.35-25.045 35.718-25.925 16.63-.86 25.085 21.547 34.619 21.547 9.534 0 17.71-17.47 17.71-17.47v-1.458s-8.176 17.47-17.71 17.47z" fill="#f6bebe" fill-rule="evenodd"/><path d="M238.975 133.899s-8.175 17.79-17.71 17.79c-9.533 0-17.988-22.747-34.618-21.868-19.368 1.16-16.91 25.945-35.718 25.945-18.81 0-11.454-28.003-30.262-27.704-19.628.3-4.637 30.622-29.722 30.622-25.345 0-21.807-17.79-37.337-17.51-15.551.6-9.275 18.09-31.082 19.549-14.45.86-17.729-8.755-17.729-8.755m0-29.962 234.018.16" fill="none" stroke="#343434" stroke-width="1.199" stroke-linecap="round" stroke-linejoin="round"/><path d="M4.437 116.47c27.024 0 54.028 1.219 81.031 1.518 9.814 0 19.648-1.219 29.183-.6 9.274.3 18.288.9 27.563.6 19.908-.899 39.836-.899 59.744-3.038 11.992-1.219 25.364-.9 36.817-.9m0-6.295c-2.438.84-5.996.28-8.455 0-4.897-.56-9.534 0-14.45 0-8.176 0-16.65-1.14-24.826-.56-18.549.84-37.097 3.098-55.646 3.378-34.38.84-68.199-3.378-102.578-.56-5.996.56-12.013.84-18.289.56-2.998 0-7.355-.56-10.094.28" fill="none" stroke="#fff" stroke-width=".8" stroke-linecap="round" stroke-linejoin="round"/><path d="M14.751 116.45s25.105-2.599 41.735-2.599c16.65 0 49.65 1.739 67.919 0 18.009-1.759 80.75-2.039 100.379-6.116" fill="none" stroke="#fff" stroke-width=".8" stroke-linecap="round" stroke-linejoin="round"/><path d="M4.757 216.289v22.726h234.178v-29.722s-2.438-.6-3.538 2.039c0 0 .28-4.377-6.276-4.377-6.536 0-10.354 5.536-10.354 5.536s-2.458-3.797-8.994-3.498c-6.816.3-8.455 4.957-8.455 4.957s.28-5.836-7.895-4.957c-8.175 1.16-5.737 5.257-5.737 5.257s-1.639-7.595-7.355-6.716c-5.457.58-7.356 6.117-7.356 6.117s-1.359-6.117-9.814-6.397c-8.175 0-9.814 4.358-9.814 4.358s-3.558-11.373-17.73-.58c0 0-2.178-4.957-8.714-4.377-6.816.88-8.994 3.498-8.994 3.498s-7.376-7.576-14.192-2.619c-6.816 4.957-3.258 8.455-3.258 8.455s-4.917-6.116-11.453-4.957c-6.536 1.18-11.733 6.996-11.733 6.996s1.1-9.334-6.536-10.194c-7.355-.88-5.996 4.078-5.996 4.078s-2.179-4.658-5.717-2.919c-3.558 1.46-5.996 7.876-9.814 2.619-3.818-5.537-9.814-4.657-13.632.6 0 0-5.176-8.176-14.99 0 0 0-9.275-7.016-12.553 3.197 0 0-2.718-2.338-3.278.88z" fill="#fcd96e" fill-rule="evenodd"/><path d="M6.156 225.643c1.38-.58 2.459 1.74 2.739 3.198-.28-3.478 5.436-3.198 7.075-2.038 2.439 1.738 2.979 6.656 0 8.095m19.628-22.946c-.26.3.28 1.439.28 2.018.26 1.44 0 2.859-.54 4.018-1.638 2.578-3.817 3.158-6.555 3.718m1.559 14.911c-2.2.28-1.38-4.658-.28-5.817 1.639-1.16 4.097 0 5.456.86-1.079-2.02 3.558-4.937 5.197-5.237 2.459 0 6.017.6 7.096 3.218m18.529.299c-3.578-4.936 7.415-11.352 9.614-6.975" fill="none" stroke="#eb694c" stroke-width="1.199" stroke-linecap="round" stroke-linejoin="round"/><path d="M44.573 226.743c-2.758 0-.84-10.474 4.917-7.856m19.988 4.018c-.54-2.818-5.757-4.797-8.235-3.938m-1.639 19.508c1.1.58 2.199-2.358 1.939-3.537-.28-1.46-1.38-2.639-2.779-3.238m-39.256-15.99c0 2.618 1.62 4.936 4.318 5.516m56.525 17.509c-1.919-2.618-1.079-7.295 1.38-9.034 3.297-2.639 6.036.58 8.214 2.618m11.274-15.41c2.198 3.517 7.955 2.638 11.513 2.638m23.026-6.956c0 3.738-1.9 6.896-5.737 7.755-2.738.28-6.016.56-7.935-2.018" fill="none" stroke="#eb694c" stroke-width="1.199" stroke-linecap="round" stroke-linejoin="round"/><path d="M105.776 219.807c-1.36-.58-4.098.3-5.477 1.16-1.639 1.458-2.198 3.757-2.198 5.776m55.286-13.033c-.84 1.76 1.639 5.837 3.018 6.996 2.759 2.039 5.237.6 7.975 0m-31.66-1.479c4.097 0 7.355 2.059 7.095 7.036m8.095 7.116c0-3.758 1.64-6.656 5.177-7.236 2.998-.6 5.717 1.44 7.616 3.758" fill="none" stroke="#eb694c" stroke-width="1.199" stroke-linecap="round" stroke-linejoin="round"/><path d="M133.599 228.242c1.899-1.2 3.798-2.699 6.236-2.1 1.9.3 4.338 3.879 4.877 5.957m28.263-15.99c-.28 2.558 3.018 4.817 4.937 5.677 2.998 1.119 4.637.56 7.096-1.14m7.495 11.933c-1.099-3.198 3.258-6.416 5.437-7.296 2.718-1.179 4.897 0 7.056 1.76m30.541-15.091c-.54 2.638-1.339 4.957-3.518 6.116-2.178.88-5.976 2.039-8.155 1.18m-27.663 6.695c-2.179-1.2-5.197-4.237-7.675-1.799m36.298.06c2.498-1.459 7.195.86 8.015 3.758.84 2.318-.82 4.337-2.758 4.917 3.038-.28 3.877 1.739 4.417 4.337m-27.104.88c.28-2.919 2.998-5.537 5.717-5.837 1.639 0 2.998.6 4.357 1.18.82.58 1.919 1.459 2.719 1.738M99.94 229.96c1.379 2.939 8.194 2.36 10.393 1.18 1.64-.88 2.718-2.638 2.459-4.717M108.414 232c1.9 0 3.798-.3 5.417 1.159.8.58 2.419 2.878 2.159 3.737m103.177-24.625c-.54.58-.82 1.72-.82 2.579.28 1.439.56 2.019 1.36 2.858m-1.299-1.599c.26.88-.56 2.019-1.12 2.598-.82 1.16-2.758 1.72-4.137 1.44" fill="none" stroke="#eb694c" stroke-width="1.199" stroke-linecap="round" stroke-linejoin="round"/><path d="M4.797 216.329v22.726h234.178v-29.722s-2.438-.6-3.538 2.039c0 0 .28-4.377-6.276-4.377-6.536 0-10.354 5.536-10.354 5.536s-2.458-3.798-8.994-3.498c-6.816.3-8.455 4.957-8.455 4.957s.28-5.836-7.895-4.957c-8.175 1.16-5.737 5.257-5.737 5.257s-1.639-7.595-7.355-6.716c-5.457.58-7.356 6.116-7.356 6.116s-1.359-6.116-9.814-6.396c-8.175 0-9.814 4.358-9.814 4.358s-3.558-11.373-17.73-.58c0 0-2.178-4.957-8.714-4.377-6.816.88-8.994 3.498-8.994 3.498s-7.376-7.576-14.192-2.619c-6.816 4.957-3.258 8.455-3.258 8.455s-4.917-6.116-11.453-4.957c-6.536 1.18-11.733 6.996-11.733 6.996s1.1-9.335-6.536-10.194c-7.355-.88-5.996 4.078-5.996 4.078s-2.179-4.658-5.717-2.919c-3.558 1.46-5.996 7.876-9.814 2.619-3.818-5.537-9.814-4.657-13.632.6 0 0-5.176-8.176-14.99 0 0 0-9.275-7.016-12.553 3.197 0 0-2.718-2.338-3.278.88" fill="none" stroke="#eb694c" stroke-width="1.199" stroke-linecap="round" stroke-linejoin="round"/><path d="M183.169 229.44c-2.159-1.178-5.677.88-7.316 2.34-2.158 2.038-2.438 4.377-2.438 7.275m1.759-6.955c-1.6-3.239-4.278-3.239-6.956-3.838M64.76 211.392c.56 2.318 1.68 6.336-1.119 7.196m137.757-5.198c0 .9 0 1.78-.24 2.66-.52.879-1.02 1.178-1.28 2.058m-12.312-3.838c.54.3.8 1.18 1.06 1.76.54.299 1.059.879 1.579.879" fill="none" stroke="#eb694c" stroke-width="1.199" stroke-linecap="round" stroke-linejoin="round"/><path d="M4.797 160.123v-56.106h234.178v38.077s-8.175 17.45-17.71 17.45c-9.533 0-19.347-21.508-34.618-21.508-15.55 0-16.91 25.865-35.718 25.865-18.81 0-14.452-27.604-30.262-27.604-15.53 0-4.637 30.522-29.722 30.522-25.345 0-21.807-18.329-37.337-17.45-11.454.58-9.275 18.03-31.082 19.189-14.45.86-17.729-8.435-17.729-8.435m69.798-97.181c1.919.28 4.357.56 5.436 2.538 1.08-2.538 4.078-2.258 4.878-3.677m3.517-50.83c2.22.56 3.598.56 5.257 2.539 1.12-1.979 2.219-2.539 4.418-3.118m36.457 21.086c.56.88 3.578 2.06 4.937 3.219.54-2.039 2.459-2.918 4.098-3.518M123.045 82.39c.84-.6 3.598 2.059 4.698 3.238.56-2.059 2.218-3.238 3.857-3.838m42.774-20.327c1.1-.3 4.398 1.459 5.237 2.898.54-1.739 2.199-2.319 3.558-2.598m9.514 27.663c1.94-.3 3.038 1.18 4.418 2.358.82-1.479 3.837-2.958 4.937-2.958" fill="none" stroke="#343434" stroke-width="1.199" stroke-linecap="round" stroke-linejoin="round"/><path clip-path="url(#a)" d="M4.957 176.513c8.475 3.178 17.75 1.16 26.464.58 12.832-1.16 25.644-4.638 38.457-2.02 30.561 5.478 61.662 11.534 92.484 5.757 20.727-3.737 40.635-4.317 60.823 2.319 3.538 1.16 12.812 3.458 14.99.58" fill="none" stroke="#f9edf2" stroke-width="1.199" stroke-linecap="round" stroke-miterlimit="8"/><path clip-path="url(#a)" d="M93.064 179.251c4.377-.58 9.274-4.357 12.012-6.676 4.917-4.657 6.277-11.912 9.814-17.449 8.195-13.372 17.73 4.957 24.286 11.353 5.177 5.217 13.092 6.976 19.908 4.937 7.635-2.618 12.812-11.913 21.007-11.633 8.175.3 16.37 5.517 24.265 7.276 5.457.86 11.193 1.439 16.65 1.16 5.717-.58 16.91-4.658 17.17-11.634" fill="none" stroke="#f9edf2" stroke-width="1.199" stroke-linecap="round" stroke-miterlimit="8"/><path d="M233.379 163.98c-1.64 1.74-4.078 2.619-5.997 3.778-3.278 2.319-6.836 3.758-10.653 4.618-8.735 2.038-18.57 2.318-27.584 2.038-9.554 0-19.388 2.02-26.763 6.356" fill="none" stroke="#f9edf2" stroke-width="1.199" stroke-linecap="round" stroke-miterlimit="8"/><path clip-path="url(#a)" d="M4.797 202.277c3.278-.58 7.635-5.516 11.193-6.975 8.995-4.638 19.349-4.937 29.163-4.058 11.173.86 21.527 4.058 32.7 5.237 10.374 1.16 21.267 2.019 31.9 1.44 9.815-.58 17.99-4.638 26.724-9.015 3.538-1.74 7.636-4.938 11.433-5.817" fill="none" stroke="#f9edf2" stroke-width="1.199" stroke-linecap="round" stroke-miterlimit="8"/><path clip-path="url(#a)" d="M117.929 196.88c8.734-2.598 18.828-1.718 28.102-1.718 7.076 0 13.892.58 20.988.86 7.915.299 15.81-.28 23.985-.28 11.733 0 23.726.859 34.92 3.457 4.636 1.16 7.894 1.72 12.252 1.16" fill="none" stroke="#f9edf2" stroke-width="1.199" stroke-linecap="round" stroke-miterlimit="8"/><path d="M79.792 176.453c-12.013-1.739-26.224-23.666-37.977-10.214" fill="none" stroke="#f9edf2" stroke-width="1.199" stroke-linecap="round" stroke-miterlimit="8"/><path d="M238.455 129.242c-6.795 5.836-14.43 13.991-23.945 11.952-5.457-.859-9.254-6.396-14.99-7.275m-67.96-.679c6.276 6.735 13.912 18.148 23.726 15.81 7.076-1.76 12.532-8.775 18.249-12.573m-64.121.6c-1.36.6-2.719 4.957-3.538 6.696-2.179 3.198-4.378 5.816-7.636 7.575-4.097 2.019-8.474 2.599-12.832 2.019-8.195-1.44-16.65-5.816-23.486-9.874" fill="none" stroke="#343434" stroke-width=".64" stroke-linecap="round" stroke-linejoin="round" stroke-miterlimit="10"/><path d="M141.874 144.353c6.556 4.077 14.191-3.778 19.668-6.976 5.457-2.918 10.354-5.257 16.63-5.257m28.143 4.737c2.998.86 6.816-1.18 9.554-2.059 3.258-.88 5.997-2.038 9.255-2.618 1.639-.58 12.272-1.46 12.532-2.059" fill="none" stroke="#343434" stroke-width=".64" stroke-linecap="round" stroke-linejoin="round" stroke-miterlimit="10"/><path d="M165.7 135.418c-6.836 3.178-15.591 1.16-21.048-1.16-3.558-1.738-10.413-3.497-13.971-2.318m-21.507 5.137c-2.439 2.358-7.076 2.638-9.794 4.397-3.278 1.46-6.276 4.098-9.554 5.557-5.437 2.918-10.894 2.918-16.63 2.338m-29.742-3.417c-2.999 0-5.457 3.457-8.175 5.176-3.558 1.74-7.376 2.879-11.194 3.458-5.196.58-12.832 2-17.489-.3" fill="none" stroke="#343434" stroke-width=".64" stroke-linecap="round" stroke-linejoin="round" stroke-miterlimit="10"/><path d="M35.219 150.789c-2.719.58-5.437 1.159-8.155.88-3.538 0-6.796-1.76-10.054-2.64-2.998-.859-5.997-2.038-8.975-2.318-.82-.3-2.718-.3-3.278-.6m96.422-5.436c-.54-.6-1.08-.3-1.62-.3-1.638-.3-2.738-.58-4.377-.58-2.998 0-5.996.58-8.994 1.18-6.556.879-13.092 1.459-19.648.58-4.358-.3-9.555-2.959-13.652 0" fill="none" stroke="#343434" stroke-width=".64" stroke-linecap="round" stroke-linejoin="round" stroke-miterlimit="10"/><path d="M50.25 141.694c-1.64-.3-2.999 0-4.098-.3-2.718 0-5.457 0-8.195.3-2.179.6-4.637 1.5-6.836 2.099-2.718 1.2-5.736 1.799-8.735 2.398-4.657.88-9.294.6-13.951.6m174.934-16.69c1.659-.86 3.018-2.318 4.937-2.918 2.718-1.46 5.736-1.46 8.735-1.46 6.016 0 12.852 1.46 18.608 3.219 4.098.88 8.195 1.759 12.013 2.618m-113.771-1.839c-.82.3-1.639 1.2-2.459 1.48-2.458.899-4.917.6-7.375.3-6.296-.58-12.313-.88-18.329 1.478-3.838 1.48-7.395 3.838-10.953 6.496-1.08.88-2.999 2.359-4.378 2.639m-28.782-.72c-1.08-.58-2.998-.28-4.358-.58-2.198-.28-4.937-1.159-7.115-1.738a85.489 85.489 0 0 0-12.573-2.639c-3.018-.58-6.016-.28-9.294-.58-1.1 0-2.459-.3-3.838-.3" fill="none" stroke="#343434" stroke-width=".64" stroke-linecap="round" stroke-linejoin="round" stroke-miterlimit="10"/><path d="M85.188 133.12c-.54 0-1.079.28-1.898.559-1.36.3-2.719.3-3.818.3-4.098-.3-8.455-.3-12.553-.86-3.817-.86-7.895-.86-11.712-.86-3.538-.299-7.636 0-11.174.86-6.016 1.42-11.733 3.998-17.729 3.998-1.36.28-2.179.28-3.558.28m168.618-11.293c-4.357 0-8.735-.86-13.372-.56-5.457.28-10.374 2.279-15.55 3.438-6.556 1.419-12.833 1.999-19.109 2.578-1.379.28-3.278.28-4.657.56m65.16-5.737c3.818.86 8.455-.58 12.013-1.459 4.617-.88 9.255-2.038 13.892-2.338 1.919-.3 3.538 0 5.456.3 1.08 0 2.459 0 3.258.28m-66.279 2.898c-1.36-.28-3.798 0-5.177 0-3.258.3-6.256-.58-9.255-.58-4.077 0-8.175.3-12.252 0-4.358 0-8.715.3-12.812-.28-6.257-.6-12.533-.6-17.71 4.078l-.28.28m-63.241 2.398c-1.62-1.18-4.897 0-7.096 0-2.179 0-4.637-.28-6.816-.58-4.097-.6-7.655-2.058-11.753-2.958-3.537-.88-7.095-2.358-10.913-2.938-1.639-.6-3.278-1.18-4.917-1.48-1.639-.299-3.558.3-4.917-.299-.28 0-.28-.3-.28-.3" fill="none" stroke="#343434" stroke-width=".64" stroke-linecap="round" stroke-linejoin="round" stroke-miterlimit="10"/><path d="M123.725 124.904c-6.276 1.74-13.092-.86-19.368-1.719-6.017-1.159-12.293-1.459-18.03-.58-6.276 1.16-12.012 3.459-17.749 6.057-2.718 1.16-4.917 2.898-7.375 3.458m-44.453-6.376c3.558.28 7.355-.58 10.913-.88 3.538-.28 7.336-.58 11.153 0 7.636.88 14.452 1.74 22.067.58 4.357-.58 8.715-1.739 13.072-1.739 1.64 0 5.457-.3 7.076 0" fill="none" stroke="#343434" stroke-width=".64" stroke-linecap="round" stroke-linejoin="round" stroke-miterlimit="10"/><path d="M73.216 62.342c1.918 0 3.817-.3 5.456.56 1.1.58 1.36.86 2.179.3.56-.58 2.179-1.72 2.179-2.299-.8-.28-1.62 0-2.439.28-1.1 0-1.919-.28-2.998-.56-1.38-.3-4.917 0-5.197 1.42zm59.104-31.96c2.478-2.359 4.677 2.638 6.616 2.918.26-1.16 1.359-2.039 2.458-2.639-2.198.6-3.018-.28-4.677-1.459-1.639-1.179-3.558-.88-4.677.88zM121.726 81.57c1.62-2.298 4.597.28 5.677 1.7 0-.28 1.339-1.7 1.339-2 .26-.839-1.08-.839-1.879-.839-2.159-.58-3.518-.86-4.857 1.14zM87.027 10.274c1.64-1.78 5.437.88 6.536 1.759.54-.28 1.62-1.76 1.62-2.659 0-1.479-1.36-.3-2.16-.3-2.178 0-3.537-2.078-5.176.6zm85.468 50.049c1.36-.879 2.979-.879 4.598 0 1.619.58 2.698 2.319 4.037-.3-3.498-.3-5.936-3.217-8.635 0zm18.469 28.543c1.1-1.719 3.278-.56 4.358 0 2.178 1.44 1.639 0 3.797-1.14-1.359-.299-2.978-.299-4.337-.579-1.36-.28-2.718-1.16-3.538.86z" fill="#f6b7a9" fill-rule="evenodd"/><path d="M91.185 13.132c1.1.58 1.639 1.44 2.978 1.14.82 0 1.619-.56 1.619-1.44 1.08 2.878-4.317 4.318-4.317.88zm45.972 21.248c.58.279 1.14 1.738 2.578 1.438.84-.28 1.7-1.159 1.98-2.038 0 1.459-.28 2.918-2.28 3.198-1.139 0-1.978-.86-2.278-2.02zm-11.273 50.089c1.079 1.779 3.777 2.378 4.317 0 .8 2.378-3.238 3.837-4.317 1.479zM78.313 64.96c-.56.58 2.978 2.6 3.797 0 1.08 2.02-4.077 4.318-4.077.58zm99.06-1.518c.839 2.598 3.877 2.878 4.157 0 2.478 4.037-3.318 4.317-3.038 1.439zm17.509 27.983c1.08 2.318 3.258 2.898 4.357.3 1.08 4.896-4.917 2.598-3.817.859z" fill="#f9e5e1" fill-rule="evenodd"/><path d="M11.273 158.944c-.5 2.358-.76 5.017-1.28 7.355m8.156-5.357c0 2.379-.88 5.317-.28 7.676m6.276-7.835c.28.879.28 2.038.56 2.898.28 1.16.56 2.019.56 2.898.28.58.28 1.44.56 1.719m5.276-9.354c1.12 1.739 2.239 4.617 3.358 6.636m2.159-10.154c1.359 1.479 2.178 3.538 3.518 4.717m.639-10.153c1.6 1.438 2.939 3.697 3.998 5.116m.879-10.953c2.219.6 2.499 5.276 4.158 6.156m3.837-8.875c.48 1.78.48 3.558.72 5.337 0 .9 0 2.079.24 2.658m5.477-6.795c.52.899-.52 3.258-.78 4.437-.26.9-.26 1.779-.54 2.358m5.517 3.998c1.36-.56 2.718-2.838 3.518-3.998m5.676 4.877c-.799 1.76-2.158 3.518-2.718 5.277m6.876 4.877c.28-2.298.8-5.177 1.599-7.195m6.876 1.359c1.519 1.779.26 5.636 1.02 7.995m7.615-8.155c.84.88.84 3.798.84 4.957.279 1.16.559 2.339.839 3.198m6.476-11.993c1.099 1.44 2.438 2.579 3.518 3.998m3.677-9.034c-.84-.76-2.538-.76-3.677-1.28m6.795-8.155c-1.339-.3-2.398-1.839-3.757-2.159m9.274-1.679c-1.28-1.459-1.28-5.576-1.28-7.355m8.716.32c.56 1.459-.58 4.077-.86 5.516 0 .88-.28 1.74-.58 2.319m5.836 4.637c1.6-.56 2.68-2.239 3.998-2.798m3.039 7.036c-1.34.56-2.16 1.938-3.518 2.478m7.355 3.278c-1.08 1.759-2.158 3.778-2.718 5.517m9.194-1.519v1.159c-.28 1.16-.28 2.319-.58 3.478 0 .86-.3 2.019-.3 2.878m10.554-.799c-1.419-1.76-1.139-4.977-1.998-7.036m6.796-3.998c1.099 1.78 2.438 3.258 3.517 4.717m6.796-8.555c-1.079-1.139-3.498-2.558-4.317-3.997m6.796-8.795c.82 1.48 1.899 2.639 2.718 4.118.26.88.54 1.459.8 2.039 0 0 0 0 0 0m7.675-2.959c-.48-1.739 0-3.757 0-5.496v-2.339M197 132.48c0 1.459-1.319 3.797-1.838 5.257-.26.58-.8 1.439-.8 2.018m8.155 5.517c1.08-1.739 2.399-3.778 3.998-4.957m5.996 6.795c-.26 1.18-1.319 2.62-1.839 4.078-.26.58-.52 1.16-.8 1.44m9.015-1.2c.5.88-.26 3.758-.5 4.917 0 .88-.26 1.74-.519 2.599m11.672-3.198c-.559-1.42-1.398-2.559-2.238-3.718 0-.28-.28-.86-.28-1.14-.28-.28-.84-.58-.28-.58m6.637-6.715c.54 1.18 2.638 2.059 2.638 3.518" fill="none" stroke="#343434" stroke-width="1.199" stroke-linecap="round" stroke-linejoin="round" stroke-miterlimit="10"/><path d="M7.655 159.563c.78.58.78 1.42.52 1.7-.52.28-1.06 0-1.579-.56-.52-.86-.8-1.7-.52-1.98.52-.299 1.04 0 1.58.84zm20.748 3.798c.8-.3 1.599 0 1.599.58.26.28-.26.86-1.34 1.159-.799.28-1.598 0-1.598-.58 0-.3.54-.88 1.339-1.159zm7.975-4.457c.84.3 1.4.88 1.12 1.459 0 .58-.84.86-1.68.58-.84-.3-1.399-.88-1.399-1.46.28-.58 1.12-.58 1.959-.58zm4.377-4.657c.8.28 1.34 1.139 1.08 1.998-.28.58-1.08 1.14-1.9.86-.799-.28-1.358-1.14-1.079-1.999.28-.58 1.08-1.16 1.9-.86zm11.134-10.234c.8.3 1.319 1.179 1.059 2.058-.26.58-1.06 1.16-1.839.88-.8-.3-1.34-1.18-1.06-2.059.26-.88 1.06-1.18 1.84-.88zm17.169 9.374c.54 0 1.08.3 1.34 1.18 0 .859 0 1.438-.54 1.738-.54.28-1.08-.3-1.34-1.159-.28-.88 0-1.46.54-1.759zm4.657 5.317c.26-.3.8-.6 1.62 0 .799.28 1.059.88.799 1.459 0 .3-.8.58-1.62.3-.539-.6-1.079-1.18-.799-1.76zm45.733-26.884c.28-.58 1.119-.58 1.659-.28.84.28 1.099 1.16 1.099 1.44-.26.58-1.1.58-1.919.3-.56-.3-1.12-.88-.84-1.46zm70.237 2.998c0-.56.54-.86 1.32-.86.799.3 1.318.58 1.318 1.16 0 .56-.78.84-1.319.84-.78-.28-1.319-.56-1.319-1.14zM80.711 162.082c0-.88 1.1-1.18 1.919-1.18 1.1.3 1.919.88 1.919 1.48-.26.88-1.08 1.159-2.179 1.159-.82-.28-1.659-.88-1.659-1.46zm69.319-1.999c0-.88 1.098-1.18 1.918-1.18 1.1 0 1.919.88 1.919 1.48-.26.58-1.08 1.16-2.179 1.16-.82-.28-1.659-.88-1.659-1.46zm-8.036-3.118c.28-.56 1.38-.86 2.199-.28.82.56 1.359 1.42 1.099 1.979-.28.56-1.38.56-2.199.28-.82-.56-1.379-1.42-1.1-1.98zm56.446-18.649c.28-.6 1.379-.6 2.198 0 .82.28 1.36 1.44 1.1 2.019-.28.58-1.38.58-2.199 0-1.1-.58-1.38-1.44-1.1-2.019zm23.505 17.13c-.28-.88.52-1.76 1.6-1.76.799-.299 1.858.3 1.858 1.18.26.88-.54 1.76-1.339 2.039-1.06 0-1.859-.58-2.119-1.46zm-62.282 2.398c-.28-.58 0-1.459.78-2.058.8-.58 1.859-.88 2.118-.28.26.58 0 1.459-.78 2.338-.799.58-1.598.58-2.118 0zm-31.561-24.304c.54-.3 1.6.299 2.399 1.478.8 1.2 1.06 2.379.8 2.978-.54.28-1.6-.3-2.4-1.479-1.058-1.199-1.338-2.678-.799-2.978zm52.348-.18c.54-.6 1.34-.3 2.16.599.519.88.519 1.759 0 2.358-.54.28-1.36 0-1.9-.9-.54-.879-.54-1.758-.26-2.058zm-81.59 27.882c0-.58.54-1.459 1.32-1.739 1.059-.6 1.838-.3 2.098.28.26.58-.26 1.46-1.3 1.74-.799.579-1.838.299-2.118-.28zm13.632-26.244c-.28-.56 0-1.419 1.1-1.979.819-.58 1.918-.28 2.198.28.26.56-.28 1.42-1.1 1.979-1.099.28-1.918.28-2.198-.28zM15.07 162.721c.84 0 1.68.9 1.4 1.48 0 .899-.84 1.179-1.699 1.179-.84-.28-1.699-.88-1.4-1.76 0-.599.84-1.198 1.7-.899z" fill="#e28481" fill-rule="evenodd"/><path d="M27.343 210.213c-1.938 0-4.717 1.759-5.276 3.797-.84 2.04 1.659 6.696 3.877 4.657.28 0 .28-1.159.56-1.459.56-.58 1.12-.28 1.38-.86.839-.599 1.678-1.458 1.958-2.638.26-1.459 0-3.797-1.68-3.797zm-16.39 18.608c-.26-2.918 7.956-.28 4.398 2.919-1.92 1.439-6.596-.88-4.398-2.919zm33.9-17.429c-6.057-6.996-9.075 6.996-5.217 6.996 1.1 0 1.36-1.44 2.199-2.04.54-.579 1.359-.579 1.918-.859 1.1-.88 2.18-3.218 1.1-4.097zm17.629-.02c-1.639-1.46-3.558-1.46-5.197 0-.82.86-4.397 2.898-2.738 4.337 1.1 1.16 1.919 0 2.738-.58 1.36-.859 1.36-.859 2.739-.579 1.918.3 4.377 0 3.298-2.898zm11.213-.64c-.8-1.179-4.317-2.658-5.676-1.179-.54.58-.82 5.297-.26 6.176 1.08 1.46 4.317.58 5.137-.58.8-.899.54-3.237 1.339-3.837zM45.532 229.58c-2.178-.899-3.817-2.078-5.996-.899-1.899 1.18-2.718 3.258-2.718 5.317-1.36 0-2.998-1.779-4.358-1.479-1.379.3-2.198 2.359-1.639 3.538 1.36-2.059 5.717 2.638 6.257-1.18 1.099 0 1.639.58 2.738-.3.82-.879.54-2.058 1.639-2.638 1.08-.899 5.437.28 4.357-2.358zm29.223-5.216c-.56-1.18-2.998-.88-4.098-.58-2.718.88-4.097 4.078-2.998 6.716 2.718 6.996 10.893-2.638 7.096-6.136zm6.955-1.659c-.819-.88-1.639-1.759-1.359-3.238.54-2.359 3.798-4.417 5.437-4.997 1.899-.88 10.594-2.958 10.054 1.759 0 1.48-1.899.88-3.258.88-1.899-.28-3.258-.28-5.157.899-1.919 1.18-3.818 2.938-5.717 4.117zm5.317 9.595c-.8-.88-2.438-1.76-3.797-1.46-1.36.3-2.999 3.218-1.64 4.697 1.1 1.16 1.36-.88 2.719-1.179.82-.3 2.718.58 2.458-1.759zm-35.118-11.354c-1.66-.28-3.298-1.439-4.957-.86-1.38.58-2.22 2.859-.84 4.278 1.38 1.14 1.12 0 1.939-.56.82-.58.82-.3 1.659-.3 1.659-.28 3.018-.28 2.199-2.278zm-36.319-9.674c-1.638-.58-3.537-.88-4.637.86-.82.879-2.198 3.477-.82 4.357.82.86 1.36 0 1.64-.58.82-1.16 1.1-1.16 2.179-1.459.819-.28 3.278-1.44 1.639-2.598zm10.974 12.312c-.26-.879-2.459-.58-3.258-.3-1.919.3-3.018 1.74-3.278 3.459-.28 1.159-.56 5.476 1.359 5.196.54-.28 1.1-1.739 1.36-2.298.559-1.16 1.358-1.44 2.458-2.019 1.359-.58 3.538-2.319 1.919-3.758zm26.984 1.999c.28-3.198 5.436-2.598 7.075-.86.54.86 1.62 5.497-.54 4.918-.819-.28-1.099-1.44-1.638-1.74-.54-.579-1.08-.279-1.64-.279-.799-.3-4.077-1.16-2.978-2.039zm58.084-17.109c-1.099-1.76-4.957-1.46-6.596-.3-1.918 1.459-3.857 4.357-1.379 6.956.82 1.159 2.479 1.739 3.018.3.56-1.46-.54-2.619 1.1-3.478 1.379-.3 2.198 0 3.298-1.46.56-.58.82-1.439.56-2.318zm11.953 8.395c-2.179-1.74-2.738-4.957-.54-6.716 2.18-1.76 7.896-2.639 9.794 0 1.36 1.759 0 3.218-1.898 2.638-1.36-.6-2.999-1.759-4.098-.3-.82.88 0 2.339-.54 3.518-.54.58-1.639.58-2.458.58zm-14.411 5.796c-1.899-1.48-5.457-.88-7.356.86-1.919 1.758-1.359 7.015 1.64 5.856 1.079-.3 1.898-1.18 2.997-1.46 1.08-.579 1.64-.579 2.459-1.758.54-.88 1.619-2.638.82-3.498zm28.702 2.099c0-2.599-3.857-4.058-5.796-3.478-1.1.3-2.199.88-3.598.88-.82 0-2.478-1.16-2.758-.3-.56.879.56 2.598 1.1 2.898 1.118.86 3.057.28 4.436 0 1.66 0 2.479 0 4.138.58 1.1.56 1.38 0 2.478-.58zm4.058 5.176c-1.919-1.159-4.098-2.038-6.556-1.738-.54.3-1.1.3-1.639.88-1.1.579-2.738 3.197-2.738 4.656.28 1.16 1.639 2.319 2.738 2.04 1.1-.3 1.639-1.76 2.738-2.34.82-.859 1.9-1.159 2.998-.859 1.1.28 1.1.58 2.18-.3.539-.58.539-.88.539-1.739zm-2.978-13.071c-2.759-2.599.54-6.956 2.738-8.395 1.38-.88 3.038-1.76 4.677-1.18 1.38.6 3.018 1.46 2.759 3.198-2.199.58-6.057-.859-7.156 2.04-.82 2.318 0 4.057-2.738 4.057zm18.988 1.479c-2.998-.86-3.278-5.217-1.639-7.236 1.64-2.039 5.997-3.198 7.915-1.16 2.439 2.6-2.998 2.32-3.817 3.758-.28.88 0 5.797-2.459 4.358zm18.309-1.28c-1.12.28-1.12-2.018-.84-2.878.28-1.439 1.66-3.158 3.059-4.037 2.198-1.44 5.237-.86 6.356 1.739.28.86.54 2.298-.28 2.878-.56.58-1.939 0-2.498.58-1.1.56-1.38 1.439-2.479 1.718-.84.28-1.939.28-2.778 0zm14.471-2.198c-.56 0-1.099-.88-1.359-1.48-.56-1.798 1.08-2.398 2.439-2.698 1.899-.3 5.976-1.499 7.055.6 1.62 3.298-2.718 1.799-3.537 1.799-1.08-.3-1.9 0-2.699.6-.82.3-1.359.899-2.178.899zm-16.07 22.046c.28-1.739 2.998-4.057 4.358-4.917 1.619-.88 4.877-1.459 6.236.28 1.879 2.898-2.459 2.898-3.798 3.478-1.1.3-1.899 1.16-2.998 1.46-1.08.28-1.899-.3-2.978-.3zm28.943-8.954c-1.9-1.74-4.358-1.74-6.257-.3-1.918 1.16-4.377 4.018-1.639 6.016 1.08.86 2.459.58 3.258-.56.82-1.438 1.1-1.438 2.459-1.718 1.919-.3 3.538-1.72 1.919-3.438zm27.543-19.288c-2.459-1.16-5.757-.28-7.935 1.159-1.92.88-5.217 4.057-2.459 6.376 1.36 1.14 2.739.28 3.818-.58 1.38-.88 3.018-1.459 4.397-2.618.82-.58 3.818-2.599 2.739-4.038zm-17.73 2.678c-1.379-1.44-5.496-.56-7.155.3-1.1.28-2.199.86-2.738 2.019-.56 1.439 0 1.998 1.379 1.998 1.359-.28 2.458-.56 3.837-.56 1.1 0 1.92 0 3.019-.579.82-.58 1.918-1.739 1.379-2.598zm2.899 22.906c-1.34 0-2.419-.92-3.778-.6-1.339 0-4.057 1.2-3.238 3.338.54.9.82.3 1.62 0 .819-.3 1.358-.3 2.158-.62 1.359 0 1.899-.599 2.159-2.118zm-5.597-5.137c-1.359 0-.54-2.918 0-3.498.82-1.759 2.179-3.797 4.078-4.677 1.899-.88 7.036-.88 5.157 2.918-.56 1.18-1.36 1.18-2.459 1.76-1.339.28-1.619 1.159-2.438 2.338-.54.86-3.518 2.898-4.338 1.439zm11.893 2.919c-1.659-.9-.28-5.018.82-6.197 1.659-1.18 4.677-1.779 6.056 0 2.179 2.938-1.66 2.359-3.038 3.538-.54.58-2.739 4.997-3.838 2.658zm-101.398-5.217c-1.92-.6-4.378-.6-5.477 1.738a4.415 4.415 0 0 0 0 3.758c.54 1.16 1.639 1.74 2.458.58.82-.58 1.1-1.74 1.92-2.319.819-.28 1.378-.28 1.918-1.159.82-.86.56-2.019-.54-2.598zm-7.316 8.994c-.54-1.799-2.738-3.298-4.657-3.298-2.199 0-4.937-.3-6.856.3-1.1.3-2.479 2.099-1.38 2.998.56.6 1.1 0 1.66 0 1.1-.3 2.198-.3 3.278-.3 1.659-.3 3.298-.3 4.677.3.82.3 1.639.88 2.458.88.56 0 .56 0 .82-.28zm-18.369-11.453c-1.919-1.5-4.377-1.2-6.036.88-.82.879-1.1 2.078-.82 3.258 0 .6.28 1.479.82 1.778.56.58.56.3.82 0 .28-.6 0-1.179.559-1.479.28-.3.82-.6 1.1-.9.819-.279 1.918 0 2.738-.579 1.099-.6 1.359-2.079 1.099-2.958z" fill="#f9e09a" fill-rule="evenodd"/></svg>