<svg xmlns="http://www.w3.org/2000/svg" version="1.0" viewBox="0 0 119.849 81.6"><defs><clipPath clipPathUnits="userSpaceOnUse" id="a"><path d="M2.159 1.679h119.687v81.63H2.16z"/></clipPath></defs><path d="M30.881 3.078c-1.979-1.2-3.957 0-6.216 2.679-2.259 2.398-6.796 7.755-5.936 10.733.84 3.278.28 5.677 2.258 7.755 1.98 1.8 4.518 6.257 6.776 4.777 2.259-1.499 4.537-2.098 5.657-5.376.84-2.979.56-5.057 0-7.736-.84-2.398-1.42-5.976-.84-7.455.56-1.2.84-4.178-1.699-5.377z" fill="#f7f7d8" fill-rule="evenodd"/><path clip-path="url(#a)" d="M30.881 3.078c-1.979-1.2-3.957 0-6.216 2.679-2.259 2.398-6.796 7.755-5.936 10.733.84 3.278.28 5.677 2.258 7.755 1.98 1.8 4.518 6.257 6.776 4.777 2.259-1.499 4.537-2.098 5.657-5.376.84-2.979.56-5.057 0-7.736-.84-2.398-1.42-5.976-.84-7.455.56-1.2.84-4.178-1.699-5.377" fill="none" stroke="#343434" stroke-width=".48" stroke-miterlimit="8"/><path d="M26.584 25.425c-1.68.3-5.577 1.499-7.516 5.376-1.679 3.858-2.798 6.836-1.119 8.935 1.68 1.779 4.178 3.558 6.136 1.479 1.94-2.079 3.898-3.578 6.117-5.357 2.238-1.499 3.338-.6 3.338-4.177 0-3.578-.82-6.856-6.956-6.256z" fill="#f7f7d8" fill-rule="evenodd"/><path d="M26.584 25.425c-1.68.3-5.577 1.499-7.516 5.376-1.679 3.858-2.798 6.836-1.119 8.935 1.68 1.779 4.178 3.558 6.136 1.479 1.94-2.079 3.898-3.578 6.117-5.357 2.238-1.499 3.338-.6 3.338-4.177 0-3.578-.82-6.856-6.956-6.256" fill="none" stroke="#343434" stroke-width=".48" stroke-miterlimit="8"/><path d="M21.287 38.816c-2.219 0-3.898 0-6.116 1.5-2.239 1.199-6.416 0-5.577 5.676.84 5.677 1.68 9.854 5.297 7.176 3.338-2.699 4.737-1.8 8.075-3.278 3.338-1.2 7.775-10.474-1.679-11.074z" fill="#f7f7d8" fill-rule="evenodd"/><path d="M21.287 38.816c-2.219 0-3.898 0-6.116 1.5-2.239 1.199-6.416 0-5.577 5.676.84 5.677 1.68 9.854 5.297 7.176 3.338-2.699 4.737-1.8 8.075-3.278 3.338-1.2 7.775-10.474-1.679-11.074" fill="none" stroke="#343434" stroke-width=".48" stroke-miterlimit="8"/><path d="M38.417 38.517c-3.078 0-5.297-.9-7.256 3.298-1.939 4.177-4.737 11.633-3.058 14.011 1.679 2.399 1.959 4.178 6.696 1.2 4.997-2.979 6.956-3.878 7.795-7.756 1.1-3.878 1.1-7.176 0-9.254-1.12-1.8-1.959-1.5-4.177-1.5z" fill="#f7f7d8" fill-rule="evenodd"/><path d="M38.417 38.517c-3.078 0-5.297-.9-7.256 3.298-1.939 4.177-4.737 11.633-3.058 14.011 1.679 2.399 1.959 4.178 6.696 1.2 4.997-2.979 6.956-3.878 7.795-7.756 1.1-3.878 1.1-7.176 0-9.254-1.12-1.8-1.959-1.5-4.177-1.5" fill="none" stroke="#343434" stroke-width=".48" stroke-miterlimit="8"/><path d="M36.458 34.46c-1.959.579-3.358 1.458-3.078 3.517.56 2.059-1.12 6.756 1.679 6.176 2.798-.88 3.638 1.46 4.477-1.759.56-3.238.28-8.535-3.078-7.935z" fill="#f7f7d8" fill-rule="evenodd"/><path d="M36.458 34.46c-1.959.579-3.358 1.458-3.078 3.517.56 2.059-1.12 6.756 1.679 6.176 2.798-.88 3.638 1.46 4.477-1.759.56-3.238.28-8.535-3.078-7.935" fill="none" stroke="#343434" stroke-width=".48" stroke-miterlimit="8"/><path d="M15.71 58.165c-3.637.92-6.436-1.2-7.555 3.318-1.12 4.197-2.279 12.272.56 12.552 3.078.32 6.156.6 8.115-3.558 1.959-3.917 3.917-4.797 3.638-8.115-.28-3.278-.28-5.397-4.758-4.197z" fill="#f7f7d8" fill-rule="evenodd"/><path d="M15.71 58.165c-3.637.92-6.436-1.2-7.555 3.318-1.12 4.197-2.279 12.272.56 12.552 3.078.32 6.156.6 8.115-3.558 1.959-3.917 3.917-4.797 3.638-8.115-.28-3.278-.28-5.397-4.758-4.197" fill="none" stroke="#343434" stroke-width=".48" stroke-miterlimit="8"/><path d="M25.864 62.182c-2.258-.6-8.475-.9-7.615 2.06.56 2.937.84 7.355 3.658 6.175 2.818-1.459 4.237-1.159 5.077-2.638.84-1.779 1.119-4.717-1.12-5.597z" fill="#f7f7d8" fill-rule="evenodd"/><path d="M25.864 62.182c-2.258-.6-8.475-.9-7.615 2.06.56 2.937.84 7.355 3.658 6.175 2.818-1.459 4.237-1.159 5.077-2.638.84-1.779 1.119-4.717-1.12-5.597" fill="none" stroke="#343434" stroke-width=".48" stroke-miterlimit="8"/><path clip-path="url(#a)" d="M10.354 70.277c-1.96-1.479-4.518-1.799-5.917 2.359-1.119 4.157-2.558 6.796-.28 7.395 2.24.6 5.637 3.239 7.036-.879 1.4-4.157.84-7.395-.84-8.875z" fill="#f7f7d8" fill-rule="evenodd"/><path clip-path="url(#a)" d="M10.354 70.277c-1.96-1.479-4.518-1.799-5.917 2.359-1.119 4.157-2.558 6.796-.28 7.395 2.24.6 5.637 3.239 7.036-.879 1.4-4.157.84-7.395-.84-8.875" fill="none" stroke="#343434" stroke-width=".48" stroke-miterlimit="8"/><path d="M19.068 17.89c2.26 2.398 3.938 4.496 6.736 5.396.86.3 1.7.9 2.259.3.84-.6 1.4-2.399 1.959-3.298C31.7 16.99 31.98 12.772 32.26 9.154M19.008 31.401c.28.58-.58 2.638-.58 3.818.86.3 1.7 1.179 2.54 1.479.839.28 1.698 0 2.818-.3.56 0 1.399.3 2.258 0 .56-.3 1.12-.88 1.68-1.46 1.398-1.178 3.657-2.058 4.496-3.837.84-.88.84-2.059.84-3.238m-6.156 8.315c.56.54 1.399.28 1.679.8m1.119 9.014c.56 1.779-1.12 3.558 1.12 4.737 1.119.6 2.798.88 3.917.88 1.1 0 1.659-.28 2.778-.28 1.96 0 2.799-.3 3.918-2.079.56-.9 1.939-3.858 1.939-4.757" fill="none" stroke="#343434" stroke-width=".48" stroke-linecap="round" stroke-linejoin="round" stroke-miterlimit="10"/><path d="M29.982 49.85c0 1.799-.28 3.598.28 5.377.56 1.499 1.379 1.798 2.478 2.378M18.269 68.099c-1.68.6-1.959 2.698-3.918 1.799-1.139-.3-2.538-1.5-3.657-2.1-1.4-.899-1.12-2.398-1.4-3.897-.28-1.199-.86-2.398-.56-3.897" fill="none" stroke="#343434" stroke-width=".48" stroke-linecap="round" stroke-linejoin="round" stroke-miterlimit="10"/><path d="M30.262 4.157c-1.1-1.798-3.898.6-4.737 1.5-.84.879-1.1 1.778-1.94 2.678-.559.6-1.119 1.499-1.678 2.079-1.4 1.799-2.519 3.298-2.519 5.376.28 2.1 1.96 2.979 3.358 4.178.84.9 2.499 2.378 3.618 2.099 1.959-.3-.28-4.178-.56-5.377-.28-3.278 1.12-5.976 2.799-8.655.84-1.2 1.119-2.378 1.659-3.578zm1.718 23.666c-1.119-.58-1.399-1.18-2.818-1.479-1.139 0-2.538 0-3.677.3-1.98.3-4.238 1.759-5.357 3.538-.58.88-.58 2.338-.58 3.238 0 1.459.3 1.459 1.7 1.759 1.698.28 2.258-1.48 3.117-2.939 1.12-1.778 2.539-1.479 4.238-2.358 1.119-.3 2.258-1.18 3.657-1.759zm6.477 8.655c-.84-1.5-1.96-1.5-3.358-.6-.84.9-.84 2.399-.84 3.898 0 .3 0 1.499.28 1.799.56.6 1.679-.6 1.959-1.2.56-.899.56-1.499 1.12-2.398l1.119-1.2zM10.853 49.01c-.84-1.199-1.139-4.797-.28-5.996 1.12-1.2 3.379-1.2 4.778-1.5 1.119-.299 2.538-1.198 3.657-1.498.84 0 4.218.6 4.218 1.499-3.078.6-7.316 1.799-8.715 5.397-.56 1.199-1.419 3.897-3.378 3.298zm21.567-8.355c-1.699 2.1-2.558 4.198-2.258 6.896 0 2.399 1.139 2.998 3.118 3.278.86 0 1.699.3 2.558 0 1.14 0 2-.58 3.138-.88.56-.3.56 0 .84-.599.28-.6-.56-1.799-.56-2.698-.28-1.2-.58-1.2-1.719-1.5-.84 0-1.699-.3-2.558-.599h-1.7c-1.138-.6-.859-2.099-.859-3.298zM11.473 59.204c-.56.3-1.679.3-1.959.9-.28.899 0 1.798.28 2.698.28.9.56 2.698.84 3.598.56 1.199 1.679 1.199 2.798 1.499 1.1.28 1.939.58 1.939-1.2.28-1.199 0-2.398.28-3.597.28-.9.839-1.5 1.399-2.399 1.379-2.698-2.239-1.2-3.358-1.2-.54 0-1.38 0-1.94.3zm13.432 3.558c-1.4-.6-3.358-.3-5.057-.3-1.979.6-1.12 2.379-.56 3.858.28.9.28 1.799.84 2.678 1.12 1.48 1.419.3 1.419-.88.28-2.378 2.518-2.678 3.358-4.756zM4.757 74.395c0-2.718 2.519-5.757 5.037-3.638 1.12 1.24 2.479 4.837.84 6.036-.84-.6-1.12-2.398-2.519-2.398-1.12 0-1.959 1.2-3.078.32z" fill="#fff" fill-rule="evenodd"/><path d="M31.62 25.624c-.559-.28-.819-.58-1.378-.58-.54-.299-1.1-.299-1.38-.899-.28-.58 1.1-2.658 1.38-3.258.56-1.179 1.099-2.078 1.379-3.258.28-.9.82-2.378.82-3.278 0 3.858 1.099 7.436-.54 10.994zm-2.698 10.554c-.26 0-.54 0-.819-.3 1.1-.6 1.919-1.219 2.718-2.138.56-.92 1.36-2.14 2.179-2.759.54 2.159-2.718 4.597-4.078 5.197zm5.817 7.116c.56 0 1.4-.28 1.959 0h1.679c.56-1.18.84-2.659.56-4.158-.84.6-.84 2.079-1.68 2.679-.56.9-1.679 1.199-2.518 1.479zm-5.577 10.473c-2.258.9-.28 3.658 1.14 4.258 1.399.3.84-.92.28-1.52-.84-.919-.84-1.838-1.12-3.057zm-17.149-1.519c-.3 0 .28.6.56.6.28.28.839.28 1.139 0 .84-.6 1.399-1.48 2.258-2.079 1.12-.88 2.819-1.479 4.238-1.759 1.419-.3 3.118-.6 4.237-1.779.86-.88 1.979-3.258 1.42-4.737-.56.6-.56 1.48-1.12 1.78-.86.879-1.699 1.478-2.838 2.078-.84.28-1.7.58-2.539.88-.86.579-1.419 1.179-2.278 1.778-1.4 1.18-3.678 1.76-5.077 2.939zm-1.419 17.35c1.119.3 1.399 3.518 2.238 3.518.28 0 1.38-.58 1.66-.88.559-.58 1.119-.88 1.378-1.459-1.099.58-1.659-.3-2.758-.58-.56-.3-1.4-.3-2.239-.6zm10.633 0c.86-.28 1.14-1.48 2.259-1.78.58 0 1.419 0 1.979-.299.28-.3.56-.9 1.119-1.2-.84 2.4-3.658 1.8-5.357 3.279zM3.878 76.793c-.32.6-.32 2.08.28 2.679.839.6 2.278.6 2.838.92.88.28 1.439.559 2.318.28.84-.6 1.12-1.48 1.12-2.36-1.12.28-2 1.76-3.718.88-.28-.32-.56-.88-1.12-1.2-.32-.28-.879-.599-1.159-.879z" fill="#e3e5be" fill-rule="evenodd"/><path d="M32.78 51.169c0 .32-.16.92-.16 1.52m2.159-1.2v-.32c0 .62.32.92.32 1.52m-22.786 15.19c-.28 0-.88.84-.88 1.12m1.999-.321c-.24.36-.24 1.04-.48 1.36m14.471-47.332c.36.62.72 1.24.72 1.84m-3.678 10.633v2.158m1.999-2.158c.16.32 0 1.239 0 1.839" fill="none" stroke="#f7f7d8" stroke-width="1.039" stroke-miterlimit="8"/><path clip-path="url(#a)" d="M115.79 40.435c-1.939-3.837-2.479-8.574-9.394-5.916-6.616 2.958-20.168 7.096-20.168 12.113 0 4.717 0 12.392 1.939 16.23 1.659 3.838 4.697 9.134 12.992 7.375 8.555-1.479 9.114-3.837 13.811-7.375 4.677-3.538 7.716-13.572 4.418-17.13-3.039-3.538-3.598-5.297-3.598-5.297z" fill="#f7f7d8" fill-rule="evenodd"/><path clip-path="url(#a)" d="M115.79 40.435c-1.939-3.837-2.479-8.574-9.394-5.916-6.616 2.958-20.168 7.096-20.168 12.113 0 4.717 0 12.392 1.939 16.23 1.659 3.838 4.697 9.134 12.992 7.375 8.555-1.479 9.114-3.837 13.811-7.375 4.677-3.538 7.716-13.572 4.418-17.13-3.039-3.538-3.598-5.297-3.598-5.297" fill="none" stroke="#343434" stroke-width=".48" stroke-miterlimit="8"/><path d="M86.228 49.03c0 2.059 1.679 4.398 2.498 5.857a22.362 22.362 0 0 0 3.598 3.797c1.1.88 1.939 2.06 3.038 2.939 1.38.86 3.318.58 4.977.58 3.598 0 6.376-1.46 9.135-3.219a17.243 17.243 0 0 0 6.636-6.156c.84-1.16 1.659-2.339 2.498-3.218.54-.58 1.1-1.46 1.66-1.46v-.299h.259" fill="none" stroke="#343434" stroke-width=".48" stroke-linecap="round" stroke-linejoin="round" stroke-miterlimit="10"/><path d="M95.582 61.603c.8.88.28 3.817-.26 4.697-.8.88-2.138 2.059-2.938 2.338" fill="none" stroke="#343434" stroke-width=".48" stroke-linecap="round" stroke-linejoin="round" stroke-miterlimit="10"/><path d="M104.417 37.137c-3.598.3-8.015 2.679-11.054 4.158-3.058 1.48-5.536 2.359-6.096 6.216-.56 3.858 3.598 7.396 6.096 9.774.82.88 2.2 2.079 3.318 2.659 2.2 1.179 5.517-.3 7.736-1.18.84-.6 2.758-1.179 2.758-2.378 0-.58-1.38-1.76-1.659-2.359-.82-1.179-.82-2.658-.82-4.137-.56-4.158-.28-8.295-.28-12.453zm-16.79 17.19c-.28 2.059 2.199 13.112 4.957 11.953.54-.28 1.639-2.319 1.639-2.918 0-.58-1.64-2.319-1.919-2.619-1.38-1.739-3.018-3.198-4.397-4.957z" fill="#fff" fill-rule="evenodd"/><path d="M96.621 63.781c1.1 1.78-1.399 4.458-2.798 5.337 2.519.88 5.577.3 7.795-.88 2.499-1.199 4.718-1.498 7.236-2.378 2.499-1.18 4.997-2.958 6.676-5.037 1.38-1.779 3.058-5.936 3.318-8.015-2.499 4.457-7.495 8.595-11.953 11.273-1.939 1.18-3.877.3-6.116.88-1.1.3-2.499.9-3.058-.58z" fill="#e3e5be" fill-rule="evenodd"/><path d="M105.056 59.644c0 .88.48 2.019.48 2.878m-3.438-1.199v2.318m-1.998-2.318c0 .94-.4 1.559-.4 2.159" fill="none" stroke="#f7f7d8" stroke-width="1.199" stroke-miterlimit="8"/><path d="M65.62 18.529s-1.12-.9-2.498 1.479c-1.38 2.358-3.578 5.297-4.418 6.176 0 0-1.659 7.675-.54 14.751.82 7.076 3.858 5.017 6.617 5.317 2.478.3 5.796-.88 6.076-5.896.28-5.017.82-15.93-.56-17.99-1.099-2.078-4.677-3.837-4.677-3.837z" fill="#f7f7d8" fill-rule="evenodd"/><path d="M65.62 18.529s-1.12-.9-2.498 1.479c-1.38 2.358-3.578 5.297-4.418 6.176 0 0-1.659 7.675-.54 14.751.82 7.076 3.858 5.017 6.617 5.317 2.478.3 5.796-.88 6.076-5.896.28-5.017.82-15.93-.56-17.99-1.099-2.078-4.677-3.837-4.677-3.837" fill="none" stroke="#343434" stroke-width=".48" stroke-miterlimit="8"/><path d="M58.884 26.644c1.12 1.479 6.396 3.538 8.075 2.059.82-.88 1.38-2.359 1.94-3.258.839-1.18 1.398-2.06 1.658-3.258" fill="none" stroke="#343434" stroke-width=".48" stroke-miterlimit="8"/><path d="M66.4 28.663c0 .9-.56 1.779-.56 2.358-.56 1.48-.86 3.238-1.14 4.717-.279 1.48-.559 3.538-.559 5.297 0 1.18.84 4.138-.3 5.297" fill="none" stroke="#343434" stroke-width=".48" stroke-miterlimit="8"/><path d="M65.08 28.383s-.48 1.439-.48 1.999m-1.518-2.319c0 .3-.48.88-.48 1.44m3.818-1.84h-.3c.3.62 1.16 1.54 1.44 1.84m-3.839 14.151c.54.56 1.06.56 1.84.28" fill="none" stroke="#f7f7d8" stroke-width="1.199" stroke-miterlimit="8"/><path d="M66.62 20.028c-.56-.28-1.4-.88-1.94-.58-.839.3-1.658 1.76-2.218 2.639-.56.88-1.379 1.459-1.939 2.338 0 .28-.28.58-.56.88-.28.86-.28.28.28.86.56.879 1.66 1.178 2.499 1.178 1.38.28 1.659.28 1.659-1.179.28-1.16.28-2.338.82-3.198.839-.88 1.399-1.759 1.658-2.938zm-3.758 9.194c-1.12.3-2.219-.58-3.338-.88-.56.88-.56 2.64-.84 3.819-.28 1.758-.28 3.218 0 4.677 0 2.338.28 4.977 1.12 7.035.56.88 1.12 1.74 1.939 1.46 1.938-.3 0-3.818-.28-4.977-.28-2.639 0-5.277.56-7.916.28-.86.56-1.739.839-2.918z" fill="#fff" fill-rule="evenodd"/><path d="M70.018 24.185c0 2.06-1.66 3.538-2.479 5.297-1.38 2.059-1.38 4.397-1.659 6.756 0 2.039 0 4.098-.28 5.856 0 .6-.56 2.639-.28 2.939.56.58 2.479-.3 2.759-.58 1.379-.88 1.379-2.938 1.659-4.417.28-2.039.28-3.798.56-5.857.26-3.238 0-6.456 0-9.694z" fill="#e3e5be" fill-rule="evenodd"/><path clip-path="url(#a)" d="M51.089 73.475s-.84-3.278-.84-4.757c0-1.199 1.12-1.799 2.759-2.078 1.959-.32 7.156 1.479 8.275 2.078.84.6 3.558 1.76 4.117 2.679.28 1.159 1.64 3.837 0 7.115-1.359 2.959-5.236 4.158-7.995 3.558-2.718-.6-3.278 1.76-6.316-8.595z" fill="#f7f7d8" fill-rule="evenodd"/><path clip-path="url(#a)" d="M51.089 73.475s-.84-3.278-.84-4.757c0-1.199 1.12-1.799 2.759-2.078 1.959-.32 7.156 1.479 8.275 2.078.84.6 3.558 1.76 4.117 2.679.28 1.159 1.64 3.837 0 7.115-1.359 2.959-5.236 4.158-7.995 3.558-2.718-.6-3.278 1.76-6.316-8.595" fill="none" stroke="#343434" stroke-width=".48" stroke-miterlimit="8"/><path d="M65.2 71.117c-.24.32-.24.88-.24 1.16-.28.319-.28.319-.839.599-.84.88-1.679 1.439-2.518 2.318-1.12 1.44-2.759 2.04-3.878 3.478-.56.88-.84 1.76-1.679 2.04-.56.559-1.4.279-1.959.279" fill="none" stroke="#343434" stroke-width=".48" stroke-miterlimit="8"/><path d="M62.762 72.516c.56.32 1.599 1.24 1.839 1.52m-2.719-.401c0 .64 1.12 1.24 1.36 1.52m-2.159-.48c.28.64.84 1.239 1.36 1.519" fill="none" stroke="#f7f7d8" stroke-width="1.199" stroke-miterlimit="8"/><path d="M52.208 67.44c-.84.319-.84.599-.84 1.518 0 1.16.28 2.639.56 3.558.28 2.359 1.12 4.158 1.96 6.236.28.28.559 1.16 1.119 1.48.8.559 1.359-1.2 1.639-1.8.28-.28.56-.879.84-1.199.559-.28 1.118-.56 1.398-.88 1.36-1.199-.56-1.758-1.119-2.358-1.679-1.2-3.318-2.678-4.157-4.477-.28-1.16-.56-1.76-1.68-2.079zm4.997 13.67c.84 0 1.36-1.838 1.92-2.438.519-.32 1.598-1.239 2.158-1.239 0 .32.28.92.52 1.24.28.28.839.28 1.079.919 0 .6-1.08 1.799-1.6 1.799-1.078.32-2.957.6-4.077 0z" fill="#fff" fill-rule="evenodd"/><path d="M65.16 72.476c-.28.92-.839 1.52-1.359 2.079-.28.6-1.399.92-1.119 1.479 0 .6.56 1.519.84 2.079.28.32.28.92.28 1.479.519-.28.799-1.16 1.079-1.76.28-.599.28-1.198.56-2.078 0-.88.24-2.358-.28-3.278zm-2.758.32c.28 0 1.4-1.18 1.4-1.48.28-.599-.28-.879-.84-.879-.56-.3-.84-.6-1.42-.6-.559-.3-1.119-.899-1.698-1.199 1.139 1.2 2.838 2.379 2.278 4.158z" fill="#e3e5be" fill-rule="evenodd"/></svg>