<svg xmlns="http://www.w3.org/2000/svg" version="1.0" viewBox="0 0 155.225 540.813"><defs><clipPath clipPathUnits="userSpaceOnUse" id="a"><path d="M-.16.32h155.026v541.192H-.16z"/></clipPath></defs><path d="M153.707 397.48c-1.919.279-4.997.559-7.755 1.638-1.68-2.478-6.956-3.318-12.193-1.08 0-.839-7.516-5.556-9.754-4.996-.24-3.598-1.64-9.395-5.237-11.034 3.038-1.918 3.598-14.91 1.08-18.508 1.958-2.759 2.238-12.992.839-17.67 2.518-3.597.56-14.67.56-14.67l-.84-7.156c1.4-2.519 4.717-14.911 1.959-21.267 3.038-1.96 5.836-13.552 4.157-19.069 2.759-3.318 6.956-12.153 5.277-16.59 3.038-1.639 6.676-12.152 5.837-17.11 3.038-2.238 6.076-15.19 4.997-18.788 2.198-1.68 5.836-9.954 5.276-14.112 1.08 0 3.598-2.198 5.797-4.957V31.141c-2.758 1.4-9.155 4.997-14.431 9.674-25.225 22.387-23.026 145.032-36.618 193.683-10.834 39.216-26.384 91.424-28.023 114.89-1.959 32.06-6.676 95.342-5.277 116.61 1.639 21.267-.56 55.806-17.23 57.165-11.952.84-26.384-13.512-28.582-44.733-1.96-30.941 3.038-129.561 5.277-146.151 1.918-16.59 2.478-42.535 4.717-58.565.56-7.196 1.919-24.305 1.919-40.056 0-7.755-2.479-21.267-5.237-35.898-3.078-14.391-6.396-29.862-8.075-40.895-3.878-22.387-9.155-40.895-4.438-72.956 4.438-32.02-5.556-37.817-13.871-37.817H.76v494.74h152.947V397.48zm-33.3 94.182c-2.199 1.12-8.315 3.598-8.875 4.997.28-2.478-1.958-10.793-3.877-11.873.28-2.758-1.12-15.47-3.358-17.71 1.12-2.198.56-12.152-1.08-14.63 1.64-1.64 3.878-7.716 3.878-9.954.56 3.877 4.717 7.195 7.755 8.035-.56 2.758.84 9.914 3.358 12.153-1.119 1.918.84 14.63 2.479 16.03-.84 2.199-1.4 11.593-.28 12.952z" fill="#f8ede1" fill-rule="evenodd"/><path d="M94.203 431.099c-7.216 8.555-7.496 27.343-5.817 40.875 4.158 30.122 14.432 44.473 31.082 42.274 3.877-.28 7.215-2.218 9.714-5.796 4.157-5.817 5.816-14.931 5.816-24.325 0-6.357-.82-13.252-2.218-18.789-6.377-26.504-15.81-38.677-29.403-38.677-3.617 0-6.676 1.66-9.174 4.438zm-2.499 40.595c-1.659-14.091-.82-31.201 4.997-38.397 1.96-2.198 4.178-3.318 6.676-3.318 11.933 0 20.248 11.334 26.085 35.919 3.318 13.272 3.318 31.78-3.059 40.615-1.938 2.758-4.437 4.138-7.215 4.417-14.431 1.94-23.586-11.333-27.484-39.236zm27.764 42.554zm26.444-115.09c-1.68-2.498-6.936-3.318-12.213-1.12 0-.819-7.495-5.516-9.714-4.976-.28-3.578-1.66-9.395-5.277-11.054 3.058-1.918 3.618-14.91 1.12-18.508 1.938-2.759 2.218-12.992.839-17.69 2.498-3.577.54-14.63.54-14.63l-.82-7.196c1.38-2.479 4.717-14.911 1.939-21.267 3.058-1.94 5.816-13.552 4.157-19.069 2.779-3.318 6.936-12.173 5.277-16.59 3.058-1.659 6.656-12.152 5.817-17.13 3.058-2.198 6.116-15.19 4.997-18.788 2.218-1.66 5.836-9.954 5.276-14.092.84 0 3.059-1.659 4.997-3.877l.54-33.16-.54.56c-1.938 1.099-3.617 2.498-5.276 3.877-12.213 8.275-20.808 25.964-30.242 61.063l-3.598 11.333c-3.898 11.873-8.615 26.524-9.714 42.834v1.92c-1.659 22.665-3.618 53.607-5.557 72.135-.56 3.318-.56 6.077-.56 8.835 0 13.532 3.898 23.206 13.612 29.282 17.19 11.054 36.898 8.575 41.875 7.756l-.54-21.847c-1.938 0-4.437.28-6.935 1.4zm-31.901 9.394c-8.895-5.536-12.772-13.551-12.772-25.704 0-2.758 0-5.537.56-8.575 2.218-18.788 4.157-49.73 5.536-72.396v-1.939c1.12-16.01 5.836-30.381 9.714-41.994l3.618-11.613c9.154-34.54 17.47-51.669 29.122-59.124 0-.28 0-.28.28-.28.56-.56 1.1-1.1 1.939-1.66v26.245c-1.939 2.218-3.878 3.877-4.437 3.877h.28c-.56 0-.84.28-1.12.84-.28.26-.54.82-.54 1.1.54 3.597-3.058 11.332-4.437 12.432-.56.56-.84 1.1-.84 1.939 1.1 3.318-2.218 15.19-4.437 16.85-.56.28-.84.819-.56 1.658.84 4.698-2.778 14.092-4.996 15.191-.82.28-1.1 1.38-.82 1.939 1.38 3.878-2.498 12.153-4.997 15.19-.28.28-.28.84-.28 1.4 1.66 5.517-1.119 16.01-3.338 17.41-.82.539-1.099 1.379-.82 1.918 2.5 5.817-.559 17.41-1.958 19.908 0 .28-.26.54 0 1.1l.84 7.175c.839 4.158 1.119 11.053-.28 13.272-.56.56-.56 1.1-.28 1.66 1.399 4.416.84 14.09-.54 16.03-.56.539-.56 1.379 0 1.938 1.38 1.919 1.66 7.736.82 12.433-.56 2.478-1.1 3.577-1.38 3.857-.56.28-.839 1.12-.839 1.66 0 .559.56 1.119 1.12 1.378 1.379.56 3.317 2.779 4.157 9.675.28.56.56.84.84 1.119.539.26 1.099.26 1.379.26 1.379 0 6.935 3.038 7.775 4.157l-.28-.84c.28.56.54 1.12 1.1 1.38.28.28.839.56 1.398.28 4.438-2.199 8.875-1.38 9.695.28.56.82 1.399 1.099 2.218.82 1.96-.82 3.898-1.1 5.557-1.38v16.87c-5.277.82-22.187 2.758-37.997-7.736z" fill="#f1ddca" fill-rule="evenodd"/><path d="M152.827 31.141c-2.758 1.4-9.134 4.977-14.41 9.674-25.226 22.367-23.007 145.012-36.599 193.623-10.813 39.216-26.344 91.425-28.003 114.91-1.939 32.04-6.656 95.283-5.277 116.55 1.66 21.267.28 55.526-16.07 56.905-11.933 1.1-26.903-13.252-28.842-44.473-2.219-30.941 3.318-129.541 5.536-146.111 1.94-16.57 2.499-42.535 4.717-58.825.56-7.195 2.22-24.585 2.22-40.055 0-8.016-2.78-21.547-5.817-36.178-2.779-14.652-5.817-30.122-7.776-41.435-3.597-22.107-9.134-39.776-4.437-72.097 4.717-32.04-5.816-37.557-14.131-37.557H.6v1.38c.28.28 0 .28.28.28h3.058c3.597 0 6.376 1.378 8.594 3.577 4.718 5.537 5.817 16.31 3.598 32.32-4.157 27.064-.82 44.194 2.499 62.422l1.659 11.054c1.399 8.015 3.618 17.67 5.556 28.163l2.779 12.712c2.478 13.252 5.256 27.903 5.256 35.638 0 12.973-1.099 27.344-1.659 35.619l-.28 4.417c-1.099 8.015-1.658 18.789-2.498 29.282-.56 10.214-1.1 20.988-2.218 29.003-1.94 15.75-7.476 114.63-5.257 146.67 1.659 24.866 10.813 36.179 16.07 40.876 4.437 3.878 9.434 5.517 14.431 5.257 22.167-1.939 19.948-53.588 19.408-59.384-1.399-18.509 2.22-67.959 4.438-101.379l.82-14.35c1.398-20.169 12.212-61.604 22.466-98.061l4.717-16.85c5.257-18.509 8.035-47.511 11.093-78.173 4.437-47.231 9.694-101.079 24.945-114.35 4.157-3.858 9.434-6.896 12.472-8.835v-2.22z" fill="#f1ddca" fill-rule="evenodd"/><path d="M135.578 121.127c-3.598 2.218-6.116 7.195-8.055 16.07-.28 1.399-.84 4.157-.84 7.495 0 3.878.84 8.315 3.898 10.534 1.12.82 3.618 2.478 7.495.54 7.236-3.318 8.895-11.913 9.734-20.788.54-8.874-.56-12.472-5.276-14.411-2.499-.84-4.738-.56-6.956.56zm-2.778 31.6c-3.059-2.218-3.059-9.154-1.94-14.69 1.66-7.776 3.618-12.473 6.397-13.872 1.379-.82 2.778-.82 4.157-.28 1.94.84 3.618 1.4 2.779 10.813-.56 7.776-1.94 15.53-7.496 18.03-1.959.819-3.338.56-3.897 0zm2.778-31.6zM86.747 389.084c-3.318.28-6.096 2.499-7.755 6.077-1.959 4.417-1.679 11.333 1.939 16.03 2.778 3.298 6.376 4.677 9.974 3.857 3.898-1.099 7.216-4.697 8.335-9.114.82-4.138-.56-9.115-3.338-12.432-2.219-2.759-5.257-4.418-8.875-4.418h-.28zm.28 3.318c2.499 0 4.717 1.1 6.376 3.038 1.68 2.219 2.499 4.977 2.499 7.736v2.218c-.82 3.018-3.038 5.517-5.817 6.336-2.498.56-4.717-.28-6.376-2.478-1.679-2.219-2.498-4.977-2.498-7.735 0-1.94.28-3.578.82-4.977 1.119-2.479 3.057-3.858 4.996-4.138zM81.91 512.65l-.28.28c-3.597 1.398-5.556 4.436-5.276 7.994.28 4.158 3.598 9.115 10.234 11.074l2.798.56c6.076 1.918 12.152 3.557 16.31 1.079 1.919-1.08 3.318-2.759 3.878-4.957.8-3.598 0-7.196-2.239-10.234-2.758-3.598-7.436-5.797-11.873-5.797l-5.277-.28c-3.038-.28-5.516-.56-8.275.28zm7.996 3.037 5.556.28c3.318 0 6.916 1.68 9.115 4.438 1.679 2.198 2.238 4.957 1.679 7.435-.28 1.4-1.12 2.199-2.239 3.038-3.038 1.68-8.275 0-13.552-1.359l-2.758-.84c-5.237-1.399-7.755-4.956-8.035-7.755v-.24c0-2.238 1.119-3.877 3.318-4.717 1.959-.56 4.157-.56 6.916-.28zM8.635 217.288c-2.759 2.759-2.199 6.896-1.94 11.034.28 2.498.56 5.256.28 7.175-1.099 5.257-2.218 21.827 3.878 27.064 1.94 1.659 4.718 2.199 7.476 1.1 9.134-3.579 7.755-13.792 6.656-22.627l-.84-5.257-.28-6.616c-.26-6.356-.26-14.371-9.694-14.371-2.198 0-4.417.84-5.536 2.498zm5.536 1.1c5.557 0 6.097 3.038 6.377 11.053l.28 6.616.839 5.517c1.1 9.674 1.659 16.29-4.717 18.768-1.1.56-2.499.84-3.878-.26-2.758-2.498-3.598-8.834-3.598-14.63 0-3.599.28-7.176.84-9.115.26-1.1.26-2.219.26-3.318 0-1.66-.26-3.318-.26-5.237-.28-1.38-.28-2.758-.28-4.158 0-1.639.28-3.298 1.1-4.137.559-.82 1.658-1.1 3.037-1.1z" fill="#f1ddca" fill-rule="evenodd"/><path d="M131.28 465.638c-5.556-22.926-13.891-37.298-27.763-37.298-14.73.56-15.29 27.624-13.332 43.634 1.94 13.272 6.936 43.354 29.163 40.595 14.71-1.379 16.37-28.722 11.932-46.931zm-10.833 25.944c-2.219 1.12-8.335 3.598-8.875 4.977.28-2.478-1.958-10.773-3.897-11.873.28-2.758-1.1-15.47-3.338-17.669 1.12-2.219.56-12.153-1.1-14.651 1.66-1.64 3.878-7.715 3.878-9.934.56 3.878 4.737 7.176 7.775 8.015-.54 2.758.84 9.934 3.338 12.153-1.099 1.918.84 14.63 2.499 16.01-.84 2.199-1.38 11.593-.28 12.972z" fill="#f5e7e9" fill-rule="evenodd"/><path d="M131.28 465.638c-5.556-22.926-13.891-37.298-27.763-37.298-14.73.56-15.29 27.624-13.332 43.634 1.94 13.272 6.936 43.354 29.163 40.595 14.71-1.379 16.37-28.722 11.932-46.931zm-11.932 45.272c-14.452 1.94-23.606-11.313-27.504-39.196-1.659-14.091-.84-31.221 4.997-38.397 1.94-2.198 4.178-3.318 6.676-3.318 11.933 0 20.268 11.334 26.104 35.899 3.338 13.272 3.338 31.76-3.058 40.595-1.939 2.778-4.437 4.158-7.215 4.417z" fill="#e6c1c7" fill-rule="evenodd"/><path d="M153.707 397.44c-1.939.279-4.977.559-7.755 1.658-1.66-2.478-6.936-3.318-12.213-1.1 0-.839-7.496-5.536-9.714-4.976-.28-3.598-1.66-9.394-5.257-11.053 3.038-1.92 3.598-14.911 1.1-18.51 1.938-2.758 2.218-12.971.839-17.669 2.498-3.577.56-14.63.56-14.63l-.84-7.176c1.38-2.499 4.717-14.931 1.939-21.267 3.058-1.94 5.836-13.532 4.157-19.069 2.779-3.318 6.936-12.153 5.277-16.57 3.058-1.659 6.656-12.152 5.817-17.11 3.058-2.218 6.116-15.19 4.997-18.788 2.218-1.66 5.836-9.934 5.276-14.092 1.12 0 3.598-2.198 5.817-4.957V182.01c-1.66.84-3.318 2.218-4.977 3.877-13.052 8.555-21.647 29.283-29.702 59.924-3.598 12.992-11.913 31.76-13.312 53.867-1.38 22.087-3.318 54.947-5.537 74.295-1.959 16.83 1.1 28.443 12.753 36.178 16.93 10.754 34.958 8.835 40.775 7.456v-20.168z" fill="#f5e7e9" fill-rule="evenodd"/><path d="M133.739 397.999c0-.84-7.496-5.537-9.714-4.977-.28-3.598-1.66-9.394-5.257-11.053 3.038-1.92 3.598-14.911 1.1-18.51 1.938-2.758 2.218-12.971.839-17.669 2.498-3.577.56-14.63.56-14.63l-.84-7.176c1.38-2.499 4.717-14.931 1.939-21.267 3.058-1.94 5.836-13.532 4.157-19.069 2.779-3.318 6.936-12.153 5.277-16.57 3.058-1.659 6.656-12.152 5.817-17.11 3.058-2.218 6.116-15.19 4.997-18.788 2.218-1.66 5.836-9.934 5.276-14.092 1.12 0 3.598-2.198 5.817-4.957V182.01c-1.66.84-3.318 2.218-4.977 3.877-13.052 8.555-21.647 29.283-29.702 59.924-3.598 12.992-11.913 31.76-13.312 53.867-1.38 22.087-3.318 54.947-5.537 74.295-1.959 16.83 1.1 28.443 12.753 36.178 16.93 10.754 34.958 8.835 40.775 7.456v-20.168c-1.939.28-4.977.56-7.755 1.66-1.66-2.48-6.936-3.319-12.213-1.1zm12.772 2.758c1.939-.84 5.537-1.1 7.196-1.38v16.291c-5.257.82-23.846 3.318-39.656-7.176-8.895-5.536-12.772-13.531-12.772-25.684 0-2.758 0-5.537.56-8.575 2.218-18.768 4.157-49.71 5.556-72.356v-1.939c1.1-16.01 5.816-30.361 9.694-41.974l3.618-11.593c9.154-34.52 17.47-51.649 29.122-59.104 0-.28 0-.28.28-.28.56-.54 2.778-2.479 3.598-3.038v25.684c-1.939 2.219-5.537 5.796-6.096 5.796h.28c-.56 0-.84.28-1.12.84-.26.28-.54.82-.54 1.1.54 3.597-3.058 11.332-4.437 12.432-.56.56-.84 1.1-.84 1.939 1.12 3.298-2.218 15.19-4.437 16.83-.56.28-.84.839-.56 1.658.84 4.697-2.778 14.092-4.996 15.191-.82.28-1.1 1.38-.82 1.939 1.38 3.858-2.498 12.153-4.997 15.19-.28.28-.28.82-.28 1.38 1.66 5.517-1.119 16.01-3.338 17.41-.82.539-1.099 1.379-.82 1.918 2.5 5.797-.559 17.41-1.938 19.888 0 .28-.28.56 0 1.1l.82 7.195c.839 4.138 1.119 11.033-.28 13.252-.54.56-.54 1.1-.28 1.66 1.399 4.416.84 14.07-.54 16.01-.56.56-.56 1.379 0 1.938 1.38 1.939 1.66 7.736.82 12.433-.54 2.478-1.1 3.578-1.38 3.857-.56.28-.839 1.1-.839 1.66 0 .559.56 1.099 1.12 1.378 1.379.56 3.317 2.759 4.157 9.675.28.54.56.82.84 1.099.539.28 1.099.28 1.378.28 1.38 0 6.936 3.038 7.776 4.137l-.28-.82c.28.54.56 1.1 1.1 1.38.28.28.839.54 1.398.28 4.438-2.219 8.875-1.4 9.715.26.54.84 1.379 1.119 2.218.84zm-25.045 77.033c-1.399-1.099-3.338-13.252-2.498-14.91.28-.28 0-.84-.28-1.38-1.939-1.659-3.318-8.575-2.778-10.773 0-.56-.26-1.1-.82-1.38-2.498-.559-6.376-3.597-6.936-7.175-.26-.56-.819-1.12-1.379-.84-.56 0-.84.56-.84 1.12 0 1.919-2.198 7.715-3.597 9.374-.28.28-.28.84 0 1.38 1.4 1.938 1.939 11.332 1.12 13.251-.28.56-.28.84 0 1.12 1.658 1.918 3.597 14.071 3.037 16.83 0 .56 0 .839.56 1.119 1.1.82 3.598 8.275 3.318 11.033 0 .56.28.84.84 1.1.56 0 1.099 0 1.379-.54 0-.56 1.379-1.66 8.035-4.418v-.28c.28 0 .56-.28.56-.56.28-.259 0-.539 0-.819-.56-1.379-.28-9.934.54-11.872 0-.56 0-.84-.26-1.38zm-13.312-35.338v-.28.28zm4.438 54.387v-.28.28zm7.755-5.237c-2.219 1.1-8.315 3.578-8.855 4.957.28-2.478-1.938-10.773-3.877-11.873.28-2.758-1.12-15.45-3.338-17.669 1.12-2.199.56-12.153-1.1-14.631 1.66-1.66 3.878-7.735 3.878-9.934.56 3.858 4.717 7.175 7.755 7.995-.56 2.758.84 9.934 3.318 12.153-1.099 1.938.84 14.63 2.499 16.01-.84 2.219-1.38 11.593-.28 12.992z" fill="#e6c1c7" fill-rule="evenodd"/><path d="M52.648 183.419c2.219-4.148-.56-8.845-3.058-9.674 2.219-1.11 1.11-6.356-1.11-9.954 2.22-2.489 0-8.015-1.938-9.674 1.939-1.94.55-6.367-2.219-9.405 2.768-3.867.83-11.063-1.949-12.442 2.499-3.318.56-8.845-1.659-11.063 2.219-3.039 1.66-7.736-.56-9.675 1.67-2.768 1.67-6.915.56-9.404 2.499-2.209 1.94-7.465-.28-11.053 2.499-1.66 3.059-7.746.83-9.684 2.498-1.38 4.717-9.395 1.11-10.784 2.778 0 4.996-10.783 1.948-11.883 3.048-1.109 1.66-7.745-.56-9.404 2.499-2.488.28-10.234-3.048-10.504 2.499-2.768-1.939-9.684-6.386-7.745.56-4.427-4.157-8.575-7.765-6.086.83-2.489-4.717-6.636-6.656-3.868-.56-3.048-9.155-5.806-10.824-1.659-.55-1.389-5.546-4.707-8.324-.56v10.234h.28c2.218 4.148 4.996 3.318 7.775 1.38.55 3.327 4.157 5.256 7.485 3.877-.28 1.66 3.888 2.209 5.827 1.38-.83 2.218 4.437 5.536 5.826 5.256-.56 1.38.83 4.427 2.778 5.807-1.109 1.379-1.948 6.086 0 7.185-1.669.56-2.498 6.366.27 7.746-3.328 1.109-2.218 8.015-.55 10.233-3.327 1.66-1.668 6.906-.56 8.016-2.498 3.317-2.767 8.574 0 9.953-4.157 4.698-3.047 7.746-1.938 12.443-3.328 5.527-.28 9.954-.28 9.954-2.768 4.697-.55 9.124 1.39 9.674-3.329 5.537-1.39 9.125 1.389 11.063-1.39 4.428-.83 10.504 2.768 11.893-1.38 4.697-1.38 10.224 2.219 11.053-1.38 6.087 0 9.685 2.778 10.234-2.219 4.148-1.39 9.125 1.939 9.674-1.94 3.598-1.38 8.025 2.778 10.234-2.219 4.148-.56 7.745 3.048 9.125 3.058 2.208 6.666-.83 8.885-2.489 1.379-4.147 0-5.527-2.219-9.404z" fill="#d8edf9" fill-rule="evenodd"/><path d="M16.75 34.14c-.28 1.658 5.546 2.218 7.755 1.388-1.1 2.489 4.437 5.527 5.827 5.247-.56 1.38.55 4.418 2.768 5.807-1.11 1.379-2.219 6.076 0 7.185-1.66.55-2.499 6.357.28 8.006-3.608.83-2.499 7.745-.84 9.954-3.318 1.928-1.379 7.185-.55 8.015-2.218 3.318-2.768 8.564 0 9.944-4.157 4.977-2.768 7.735-1.658 12.432-3.328 5.527-.28 9.954-.28 9.954-2.769 4.697-.83 9.115 1.389 9.944-3.608 5.527-1.39 8.845 1.38 11.053-1.38 4.428-.83 10.224 2.767 11.613-1.379 4.697-1.379 10.494 1.95 11.054-1.39 6.346 0 9.664 2.768 10.493-1.94 4.148-1.39 8.845 2.218 9.674-2.218 3.318-1.669 7.736 2.489 9.944-1.94 4.148-.28 7.746 3.328 9.125l.27.27" fill="none" stroke="#eef7fc" stroke-width="2.319" stroke-linecap="round" stroke-linejoin="round"/><path d="M153.707 2.419c-3.038-1.1-11.353-1.66-13.012 5.536-4.438-2.758-9.974 1.1-9.714 4.697-6.636-1.379-10.514 2.759-9.974 8.015-4.158-1.938-8.855 5.797-7.756 10.494-4.157 0-8.315 6.636-6.656 9.674-3.877 1.1-8.035 7.736-5.256 11.873-3.598 3.318-4.158 8.015-2.22 11.593-4.996.56-4.716 8.855-3.597 11.333-5.277.56-4.157 9.954-1.939 11.333-5.277 2.759-4.157 8.835-1.679 11.593-4.157 3.038-3.038 9.115-1.099 12.433-2.499 4.977-3.598 9.674-.84 12.992-3.318 1.379-4.157 10.214-1.099 12.712-3.058 3.298-3.598 8.835-1.12 12.153-1.378 2.198-2.478 6.616-1.099 9.654-1.938 2.778-1.659 8.015-.56 9.394-2.498 2.219-3.037 8.855-.819 11.893-3.877 1.659-5.836 12.692 4.158 14.091 9.694 1.64 9.414-7.475 8.575-11.612 3.058-3.318 3.897-10.214 1.679-13.252 1.659-1.12 3.597-6.357.54-9.395 2.498-1.659 1.938-8.854.559-9.954 1.939-2.478 4.157-8.295 1.659-11.873 2.498-2.498 2.498-8.294 0-12.432 3.058-2.498 4.157-8.295.84-13.532 3.317-2.498 3.597-8.854 1.658-11.893 2.499-.54 4.158-8.834 1.66-11.872 1.938-1.66 4.157-6.077 2.498-10.214 2.498-.56 5.277-9.954 2.498-12.173 2.219-1.379 4.158-4.677 2.779-10.773 1.939-1.64 4.977-6.336 4.157-9.934 3.038-1.38 6.096-4.977 4.158-9.674 4.137-.56 6.636-3.318 6.096-6.896 2.758 1.659 6.356-1.4 7.475-5.257 1.38 2.219 8.595-3.038 8.595-6.076 3.038 1.659 6.376 1.938 8.855 1.099V2.419z" fill="#d8edf9" fill-rule="evenodd"/><path d="M153.707 18.269c-2.499.82-5.817.54-8.875-1.12 0 .84-.56 1.94-1.379 3.039-.56.56-1.12 1.12-1.959 1.659-.82.56-1.379 1.12-2.218 1.379-.28.28-.54.28-.82.28l-.28.28h-1.679c0-.28-.26-.28-.26-.56-1.119 3.878-4.737 6.916-7.495 5.257.54 3.598-1.959 6.356-6.116 6.896 1.939 4.697-1.1 8.295-4.158 9.674.82 3.598-2.218 8.295-4.177 9.954 1.399 6.076-.54 9.374-2.759 10.753 2.759 2.219 0 11.613-2.498 12.153 1.659 4.157-.56 8.575-2.499 10.234 2.499 3.038.82 11.313-1.679 11.872 1.94 3.039 1.68 9.395-1.659 11.873 3.338 5.257 2.22 11.053-.839 13.532 2.498 4.137 2.498 9.954 0 12.432 2.498 3.598.28 9.395-1.659 11.873 1.38 1.1 1.939 8.295-.56 9.954 3.058 3.038 1.12 8.275-.56 9.375 2.24 3.038 1.4 9.954-1.658 13.272.84 4.137 1.119 13.251-8.595 11.592-.84 0-1.4 0-1.959-.28l-.28-.28c-.26 0-.82-.259-1.1-.259l-.279-.28c-.28-.28-.56-.28-1.12-.56-.26-.56-.539-.819-.819-1.099v.28c-.84 2.758.28 7.455 2.219 11.313-2.219 1.66-6.376 12.712-2.778 16.57-2.779 1.38-4.158 11.613-3.338 15.75-1.94 1.1-4.997 6.896-5.257 14.352-2.499 5.257-4.737 16.31-3.898 18.229-2.219 2.498-4.997 10.773-3.338 14.93-2.758 1.64-3.877 12.693-2.758 17.67-3.618 2.199-4.457 11.593-3.618 17.39-3.338 3.877-1.939 16.03-1.38 21.267-1.958 1.938-6.115 11.333-4.716 16.85-1.96 3.038-2.239 12.152-.84 16.03-1.399 2.478-2.498 14.63-1.12 16.85-2.498 3.297 2.22 13.811 3.339 17.669-2.219 1.939-8.615 15.75-6.376 19.048-.84 3.598-3.058 17.13-.28 18.509-1.4 2.758-1.12 16.03.28 18.789-1.4 1.938 2.218 19.048 5.536 20.427-4.157 3.038-5.536 11.054-5.536 15.191-.56-2.758-4.737-6.896-7.496-7.735 1.94-4.677.26-15.73.26-15.73.56-2.76 3.338-10.215 1.4-14.372 1.378-2.758.559-12.692-.84-17.67 2.218-3.317 1.939-12.712-.28-17.409 2.219-2.198 3.058-13.532 1.12-16.29 1.938-3.578 1.658-16.01-1.12-20.168 2.219-1.379 7.216-19.048 3.898-21.806 1.938-2.759 3.877-11.613.82-17.13 3.337-1.38 3.057-11.053 1.678-16.01 3.318-1.94 3.878-16.85 1.66-18.23 1.398-2.758 4.157-9.394 1.398-16.31 2.759-1.918 3.878-16.29 2.499-19.608 1.939-2.758 4.157-10.773 1.939-15.45 2.218-2.779 3.318-11.893 1.099-16.85 3.058-5.816 1.12-14.371.28-17.97 1.399-1.918.84-14.07-1.94-18.768 1.38-2.758 1.38-11.873-1.378-17.949-2.239 1.66-5.837 4.697-8.895 2.479-3.598-1.38-5.277-4.977-3.058-9.115-4.158-2.199-4.717-6.636-2.778-10.214-3.318-.56-4.158-5.536-1.94-9.674-2.777-.54-4.157-4.137-2.777-10.214-3.598-.84-3.598-6.356-2.22-11.053-3.597-1.38-4.157-7.455-2.777-11.873-2.759-1.939-4.718-5.516-1.38-11.053-1.938-.54-4.157-4.957-1.379-9.654 0 0-3.058-4.417.26-9.954-1.1-4.697-2.219-7.735 1.959-12.433-2.778-1.379-2.499-6.616 0-9.934-1.12-1.099-2.778-6.356.54-8.015-1.66-2.198-2.759-9.114.56-10.214-2.78-1.379-1.94-7.175-.28-7.735-1.94-1.1-1.1-5.796 0-7.175-1.94-1.38-3.319-4.418-2.779-5.797-1.38.26-6.656-3.038-5.816-5.257-1.94.84-6.117.28-5.837-1.379-3.318 1.38-6.936-.56-7.495-3.858-2.779 1.92-5.557 2.759-7.776-1.399l-.28-1.1v17.95h3.059c8.335 0 18.329 5.817 13.891 37.837-4.717 32.04.54 50.55 4.438 72.916 1.659 11.053 4.997 26.524 8.055 40.875 2.758 14.651 5.257 28.183 5.257 35.918 0 15.73-1.38 32.86-1.94 40.036-2.218 16.03-2.778 41.995-4.716 58.565-2.22 16.57-7.216 115.17-5.277 146.111 2.218 31.201 16.65 45.552 28.602 44.733 16.65-1.38 18.869-35.898 17.21-57.165-1.4-21.268 3.318-84.53 5.277-116.55 1.659-23.486 17.21-75.694 28.023-114.91 13.612-48.61 11.393-171.236 36.638-193.603 5.276-4.697 11.673-8.295 14.43-9.674V18.27z" fill="#f5e7e9" fill-rule="evenodd"/><path d="M139.276 40.915c5.276-4.697 11.673-8.295 14.43-9.674V18.27c-2.498.82-5.816.54-8.874-1.12 0 .84-.56 1.94-1.379 3.039-.56.56-1.12 1.12-1.959 1.659-.82.56-1.379 1.12-2.218 1.379-.28.28-.54.28-.82.28l-.28.28h-1.679c0-.28-.26-.28-.26-.56-1.119 3.878-4.737 6.916-7.495 5.257.26.56 0 1.1 0 1.659-.28 2.758-2.778 4.697-6.116 5.237 1.939 4.697-1.1 8.295-4.158 9.674.82 3.598-2.218 8.295-4.177 9.954 1.399 6.076-.54 9.374-2.759 10.753 2.759 2.219 0 11.613-2.498 12.153 1.659 4.157-.56 8.575-2.499 10.234 2.499 3.038.82 11.313-1.679 11.872.28.54.56 1.1.56 1.66.28-.28.56-.28.56-.56 0 .28-.28.28-.28.56 1.1 3.317.28 7.995-2.499 10.213 3.338 5.257 2.22 11.053-.839 13.532 2.498 4.137 2.498 9.954 0 12.432 2.498 3.598.28 9.395-1.659 11.873 1.38 1.1 1.939 8.295-.56 9.954 3.058 3.038 1.12 8.275-.56 9.375 2.24 3.038 1.4 9.954-1.658 13.272.84 4.137 1.119 13.251-8.595 11.592-.84 0-1.4 0-1.959-.28l-.28-.28c-.26 0-.82-.259-1.1-.259l-.279-.28c-.28-.28-.56-.28-1.12-.56-.26-.56-.539-.819-.819-1.099v.28c-.84 2.758.28 7.455 2.219 11.313-2.219 1.66-6.376 12.712-2.778 16.57-2.779 1.38-4.158 11.613-3.338 15.75-1.94 1.1-4.997 6.896-5.257 14.352-2.499 5.257-4.737 16.31-3.898 18.229-2.219 2.498-4.997 10.773-3.338 14.93-2.758 1.64-3.877 12.693-2.758 17.67-3.618 2.199-4.457 11.593-3.618 17.39-3.338 3.877-1.939 16.03-1.38 21.267-1.958 1.938-6.115 11.333-4.716 16.85-1.96 3.038-2.239 12.152-.84 16.03-1.399 2.478-2.498 14.63-1.12 16.85-2.498 3.297 2.22 13.811 3.339 17.669-2.219 1.939-8.615 15.75-6.376 19.048-.84 3.598-3.058 17.13-.28 18.509-1.4 2.758-1.12 16.03.28 18.789-1.4 1.938 2.218 19.048 5.536 20.427-4.157 3.038-5.536 11.054-5.536 15.191-.56-2.758-4.737-6.896-7.496-7.735 1.94-4.677.26-15.73.26-15.73.56-2.76 3.338-10.215 1.4-14.372 1.378-2.758.559-12.692-.84-17.67 2.218-3.317 1.939-12.712-.28-17.409 2.219-2.198 3.058-13.532 1.12-16.29 1.938-3.578 1.658-16.01-1.12-20.168 2.219-1.379 7.216-19.048 3.898-21.806 1.938-2.759 3.877-11.613.82-17.13 3.337-1.38 3.057-11.053 1.678-16.01 3.318-1.94 3.878-16.85 1.66-18.23 1.398-2.758 4.157-9.394 1.398-16.31 2.759-1.918 3.878-16.29 2.499-19.608 1.939-2.758 4.157-10.773 1.939-15.45 2.218-2.779 3.318-11.893 1.099-16.85 3.058-5.816 1.12-14.371.28-17.97 1.399-1.918.84-14.07-1.94-18.768 1.38-2.758 1.38-11.873-1.378-17.949-2.239 1.66-5.837 4.697-8.895 2.479-3.598-1.38-5.277-4.977-3.058-9.115-4.158-2.199-4.717-6.636-2.778-10.214-3.318-.56-4.158-5.536-1.94-9.674-2.777-.54-4.157-4.137-2.777-10.214-3.598-.84-3.598-6.356-2.22-11.053-3.597-1.38-4.157-7.455-2.777-11.873-2.759-1.939-4.718-5.516-1.38-11.053-1.938-.54-4.157-4.957-1.379-9.654 0 0-3.058-4.417.26-9.954-1.1-4.697-2.219-7.735 1.959-12.433-2.778-1.379-2.499-6.616 0-9.934-1.12-1.099-2.778-6.356.54-8.015-1.66-2.198-2.759-9.114.56-10.214-2.78-1.379-1.94-7.175-.28-7.735-1.94-1.1-1.1-5.796 0-7.175-1.94-1.38-3.319-4.418-2.779-5.797-1.38.26-6.656-3.038-5.816-5.257-1.94.84-6.117.28-5.837-1.379-3.318 1.38-6.936-.56-7.495-3.858-2.779 1.92-5.557 2.759-7.776-1.399l-.28-1.1v17.95h3.059c8.335 0 18.329 5.817 13.891 37.837-4.717 32.04.54 50.55 4.438 72.916 1.659 11.053 4.997 26.524 8.055 40.875 2.758 14.651 5.257 28.183 5.257 35.918 0 15.73-1.38 32.86-1.94 40.036-2.218 16.03-2.778 41.995-4.716 58.565-2.22 16.57-7.216 115.17-5.277 146.111 2.218 31.201 16.65 45.552 28.602 44.733 16.65-1.38 18.869-35.898 17.21-57.165-1.4-21.268 3.318-84.53 5.277-116.55 1.659-23.486 17.21-75.694 28.023-114.91 13.612-48.61 11.393-171.236 36.638-193.603zm-19.149 4.138v-.28.28zm-9.434 32.86v-.26.26zM26.304 40.915v.28-.28zm69.958 209.633c-10.274 36.718-21.927 78.153-23.326 98.88l-.82 14.072c-1.959 28.183-4.737 68.498-4.737 91.424 0 4.418 0 8.295.28 11.333.28 3.298.56 6.896.56 11.034 0 18.788-3.338 43.094-16.09 44.193-3.898.28-8.056-1.38-11.953-4.697-8.315-6.896-13.872-20.987-14.971-38.377-1.96-31.78 3.318-130.38 5.257-145.832 1.119-8.295 1.679-19.068 2.238-29.282.82-10.493 1.38-21.267 2.499-29.282 0-.28.26-4.417.26-4.417.56-8.555 1.678-22.647 1.678-35.899 0-8.015-2.498-22.926-5.276-36.178l-2.779-12.712c-1.938-10.494-4.157-20.448-5.276-28.163l-1.94-11.053c-3.337-17.95-6.375-34.8-2.498-61.323 2.499-17.11 1.1-29.002-4.437-35.079-2.778-3.038-6.396-4.697-11.113-4.697H.76V31.521c0 .82 2.498 2.219 3.058 2.219 1.119.54 2.778 0 4.177-.56a5.276 5.276 0 0 0 2.499 2.478c1.659.84 3.318 1.12 4.997.84 0 0 0 .28.26.28 1.119 1.099 3.058 1.379 4.996 1.099.28.54.56 1.1.84 1.659 1.12 1.1 3.058 2.479 4.717 3.038.28 1.66 1.12 3.318 2.499 4.697-.56 1.1-.84 2.759-.84 4.138v1.659c.28.54.28.54.56 1.1-.56.839-.82 2.218-1.1 3.317v.56c0 1.639.54 2.758 1.1 3.857-.56.28-.82 1.1-1.1 1.94-.28.539-.28 1.658-.28 2.478 0 1.939.28 3.877 1.1 5.516-.82.56-1.38 1.66-1.38 2.779v1.1c0 1.658.28 3.317 1.1 4.416-1.1 1.94-1.659 3.858-1.659 5.797v2.219c.28.82.84 1.659 1.12 2.198-1.68 2.219-2.22 4.158-2.22 6.077 0 1.938.54 3.318.82 5.256 0 0 .28.28.28.54-1.1 2.219-1.659 4.158-1.659 5.537 0 2.198.82 3.857 1.1 4.957-.54 1.399-1.1 2.778-1.1 4.437 0 1.1.28 1.919.56 3.038.26 1.1 1.1 1.919 1.939 2.479-1.12 1.938-1.68 3.597-1.68 4.977 0 2.758 1.68 4.957 3.059 6.336-.28 1.12-.56 2.498-.56 3.877 0 3.318 1.12 6.077 3.338 7.736-.28 1.379-.56 3.038-.56 4.977 0 1.639.28 3.298 1.12 4.957.28.56 1.099 1.12 1.659 1.659-.28 1.1-.28 2.218-.28 3.318 0 3.857 1.399 5.796 2.778 6.896-.56 1.119-.82 2.498-.82 3.597 0 1.38.26 2.759.82 3.878.56.82 1.12 1.38 1.939 1.919-.26 1.12-.54 2.219-.54 3.318 0 .84 0 1.659.28 2.478.54 1.66 1.66 3.038 3.038 4.158-.28.82-.56 1.919-.56 2.758 0 1.1.28 1.939.56 2.758.84 1.94 2.219 3.318 4.178 4.418h.54-.28c3.338 2.218 6.676.56 8.894-1.1.84 3.039 1.38 6.357 1.38 9.115 0 2.478-.28 4.417-.82 5.237v1.659c1.939 3.038 2.778 9.394 2.778 13.532 0 1.659-.28 3.038-.56 3.597 0 .28-.28.56-.28 1.1v.28l.28.56c.28 2.198 1.1 5.516 1.1 9.114 0 2.478-.28 4.957-1.38 7.175-.28.28-.28.28-.28.56v.82c.84 1.658 1.12 3.877 1.12 6.076 0 3.598-.84 7.455-1.959 8.834 0 .28-.28.56-.28 1.12 0 0 0 .26.28.54.56 1.099.56 2.758.56 4.137 0 3.878-1.38 8.015-2.498 9.674-.28.28-.28.84-.28 1.1v.56c.28.819.56 2.478.56 4.416 0 5.257-1.12 12.433-2.5 13.252-.279.28-.559.84-.559 1.38v.56c.84 1.938 1.12 3.877 1.12 5.796 0 3.598-1.12 6.636-2.22 9.114-.279.28-.279.56-.279.56 0 .82.28 1.379.82 1.659h-.26c.54.82 1.1 6.896 0 11.593-.56 3.318-1.4 3.877-1.4 3.877-.839.26-1.099 1.1-.839 1.92 1.4 5.256 1.12 12.991-.54 13.81-.56.28-.84.56-1.119 1.12-.28.26 0 .82 0 1.38 3.058 4.956 1.12 13.251-.56 15.45-.54.56-.54 1.659.28 2.219 0 0 .28.28.56 1.939.28 5.796-3.058 16.01-4.158 17.11-.839.559-1.119 1.658-.56 2.498 2.5 3.577 2.78 15.19 1.1 18.229-.54.54-.26 1.379 0 1.918 1.68 1.94.56 12.433-.82 13.812-.559.56-.559 1.38-.28 1.939 1.94 4.417 1.94 13.252.28 16.03-.28.54-.28.82 0 1.38 1.38 4.956 1.66 14.35.56 16.29v1.658c1.66 2.759 0 8.275-.84 11.314l-.559 1.659v.56c.56 3.037 1.4 11.592-.28 15.19-.28.28-.28.82 0 1.38.28.279.56.819 1.12.819 2.218.56 5.816 4.157 6.376 6.356.28.84 1.12 1.379 1.939 1.379.84-.28 1.399-.82 1.399-1.659 0-4.137 1.379-11.313 4.997-14.071.56-.28.56-.84.56-1.38 0-.56-.56-1.119-.84-1.379-2.219-1.12-5.837-15.75-4.997-17.969.28-.54.28-1.1 0-1.659-1.12-2.478-1.38-14.91-.28-17.11.28-.839 0-1.659-.84-2.218h.28c-.28-.28-.54-1.66-.54-3.318 0-3.298.54-8.275 1.66-13.532v-.28c0-.26 0-.54-.28-.82-.28-.28-.28-.559-.28-1.099 0-3.877 4.437-14.091 6.396-16.03.26-.28.54-.82.54-1.1v-.559l-1.38-3.578c-.839-2.758-2.778-7.735-2.778-10.773 0-.84.28-1.38.56-1.66 0-.279.28-.839.28-1.099 0-.28-.28-.56-.28-.839-.28-.54-.28-1.659-.28-3.038 0-4.138.56-10.494 1.66-12.153v-1.379c-.56-1.38-.82-3.858-.82-6.356 0-3.318.54-6.616 1.659-7.995 0-.28.28-.84.28-1.12 0 0 0-.28-.28-.28v-2.198c0-4.977 2.778-11.593 4.437-13.252.28-.28.28-.84.28-1.12v-.26c-.56-4.157-.84-7.735-.84-10.773 0-4.417.56-7.735 1.68-9.114.26-.28.539-.56.539-1.12-.28-1.099-.28-2.478-.28-3.857 0-5.257 1.12-10.774 3.058-12.153.56-.28.84-.82.84-1.379v-.56c-.28-1.099-.56-2.478-.56-4.137 0-4.977 1.4-10.774 2.499-11.593.56-.28.84-.84.84-1.38 0-.28 0-.559-.28-.839-.28-.56-.28-1.379-.28-2.478 0-3.598 1.938-8.835 3.617-10.494.26-.28.26-.56.26-1.12v-1.658c0-3.037 1.68-11.312 3.898-16.01v-.56c.28-7.175 3.598-12.152 4.437-12.691.56-.28.84-.84.84-1.66v-.28c-.28-.559-.28-1.378-.28-2.218 0-4.677 1.659-11.033 2.778-11.873.54-.26.82-.54.82-1.1v-.279c0-.54 0-.82-.28-1.1-.82-.819-1.1-1.938-1.1-3.597v-1.1c.28-4.137 2.499-8.834 3.598-9.394.56-.28.84-.82.84-1.379 0-.28-.28-.54-.28-.82-1.38-2.218-2.219-4.976-2.499-7.455.28.26 1.4.54 1.4.54l.28.28 2.218.28c3.878.56 6.656 0 8.595-2.22 1.939-1.918 2.218-4.696 2.218-7.175 0-1.379 0-2.758-.28-3.598 1.96-2.198 3.059-5.516 3.059-8.834 0-1.66-.56-3.038-1.1-4.418 1.1-.82 1.66-2.478 1.94-4.137v-1.38c0-1.378-.56-2.758-1.12-3.877.56-1.1 1.12-2.478 1.12-4.137 0-.28.28-.82.28-1.1 0-1.379-.28-3.318-1.12-4.977 1.399-1.939 2.498-4.697 2.498-7.735 0-1.38-.28-2.479-.84-3.858 1.12-1.659 1.68-3.598 1.68-5.796 0-2.219-.84-4.438-1.68-6.636 1.4-1.66 2.5-4.138 2.5-7.176 0-1.939-.54-4.157-1.66-6.076 1.66-2.219 2.779-4.977 2.779-7.456 0-1.659-.56-3.038-1.12-4.437.84-.54 1.4-1.38 1.96-2.758.279-1.38.819-3.038.819-4.957 0-1.38-.54-3.038-1.1-4.418 1.38-1.659 2.779-4.437 2.779-7.475 0-.82-.28-1.64-.28-2.479 1.659-1.379 2.778-4.417 3.058-5.796 0-.84.26-2.219.26-3.598 0-1.1 0-1.919-.54-3.038 1.38-1.38 2.778-3.578 2.778-6.896 0-1.1-.28-2.218-.56-3.598 1.94-1.938 4.438-5.236 4.438-8.834 0-.28-.28-.56-.28-.82 2.779-1.659 4.717-4.437 4.717-7.735v-1.66c1.66-.559 3.338-1.378 4.438-2.757.56-.84.84-1.94 1.119-3.039.56 0 1.38-.28 1.939-.56 1.939-.559 3.618-2.478 4.717-4.696h.56l1.119-.28h.26l.84-.28c.28 0 .28-.26.28-.26l2.218-1.4c.28 0 2.218-1.918 2.218-1.918.84-.56 1.12-1.38 1.4-1.939 1.938.82 5.536 1.1 7.755.56v9.374c-3.038 1.66-10.814 6.077-15.53 10.514-16.111 14.071-21.388 66.28-26.385 116.55-2.758 30.38-5.816 59.383-10.813 77.612l-4.717 16.57z" fill="#e6c1c7" fill-rule="evenodd"/><path d="M136.477 122.566c-3.038 1.939-5.516 6.636-7.155 14.91-1.12 6.077-1.12 13.552 2.478 16.31.82.82 2.758 1.92 5.517.54 6.336-3.038 7.995-11.313 8.535-19.608.82-8.834-.54-11.053-3.858-12.432-1.939-.56-3.858-.56-5.517.28zm-49.65 268.117c-2.498.28-4.997 2.239-6.116 5.297-1.679 3.878-1.679 9.994 1.66 14.171 2.238 2.779 5.016 3.878 8.074 3.338 3.618-.84 6.396-3.897 7.236-7.795.54-3.878-.56-8.335-3.058-11.393-1.96-2.219-4.458-3.618-7.516-3.618h-.28zM82.47 514.328h-.28c-2.758 1.12-4.437 3.598-4.157 6.636.28 3.278 3.038 7.716 9.114 9.355l2.798.84c5.517 1.358 11.314 3.277 14.911 1.078 1.64-.8 2.479-2.198 3.039-4.117.8-3.038 0-6.076-1.96-8.835-2.478-3.038-6.595-4.957-10.473-4.957l-5.277-.28c-3.038-.28-5.516-.56-7.715.28zM9.674 218.408c-1.959 2.218-1.679 5.816-1.12 9.694.28 2.778.56 5.556 0 7.755-1.119 5.557-1.958 21.067 3.359 25.485 1.679 1.399 3.638 1.659 5.876.84 7.835-3.059 6.716-12.194 5.597-20.768l-.84-5.277-.28-6.636c-.28-6.656-.28-13.032-8.115-13.032-1.958 0-3.358.84-4.477 1.939z" fill="#f5c2ab" fill-rule="evenodd"/><path d="M132.88 147.11c-.28-1.938-.84-5.236 0-9.094 1.638-8.794 4.637-11.812 6.016-12.652.54-.28 1.1-.28 1.639 0 1.1.56 2.458.84 1.919 7.975-.28 1.66-1.64 3.038-2.199 5.777-.54 3.038-.26 5.237-1.08 7.155-.559 1.1-1.099 2.199-1.918 2.759-1.64 1.639-4.118 0-4.378-1.92z" fill="#e56949" fill-rule="evenodd"/><path d="M135.918 140.295c1.639-8.575 4.957-14.371 6.596-11.893-.26-2.478-1.1-2.758-1.92-3.038-.559-.28-1.099-.28-1.658 0-1.38.84-4.398 3.878-6.057 12.712-.839 3.878-.28 7.196 0 9.135.28 1.659 2.2 3.298 3.858 2.478-.28-2.218-2.199-1.659-.82-9.394z" fill="#cc141c" fill-rule="evenodd"/><path d="M84.949 407.873c-1.4-1.64-.56-4.138-.56-6.057 0-1.659-1.12-3.038-.56-4.137.56-1.1 1.38-2.758 3.318-3.038 1.66-.28 3.598.28 4.717 1.659 1.38 1.659 2.199 4.957 2.199 7.175v1.64c-.54 1.938-2.479 4.417-4.138 4.976-1.379.26-3.877-.839-4.976-2.218z" fill="#e56949" fill-rule="evenodd"/><path d="M89.066 408.153c-1.38-1.66-.28-4.138-.28-6.337 0-1.379-1.1-3.318-.54-4.417.28-.82.54-2.199 2.2-2.199-1.1-.56-2.2-.839-3.299-.56-1.939.28-2.758 1.94-3.318 3.039-.56 1.1.56 2.478.56 4.137 0 1.92-.84 4.418.54 6.057 1.099 1.379 3.597 2.478 4.977 2.218.26-.28.819-.28 1.359-.839-.82-.26-1.64-.54-2.199-1.1z" fill="#cc141c" fill-rule="evenodd"/><path d="m89.586 517.127 5.836.28c2.758 0 4.677 2.758 6.356 4.956.84 1.12 2.759 2.479 1.96 4.957 0 .84-.56 1.12-.84 1.4-2.239 1.079-5.277-.84-8.035-1.64-2.799-.839-4.718 1.08-8.355-.56-3.878-1.398-4.438-3.877-4.438-5.796 0-1.119.84-2.478 1.96-3.038 1.398-.56 3.037-.84 5.556-.56z" fill="#e56949" fill-rule="evenodd"/><path d="M101.738 522.283c-1.639-2.158-3.597-4.877-6.316-4.877l-5.796-.28c-2.479-.28-4.118 0-5.477.56-1.12.28-1.679 1.64-1.959 2.439-.28 1.639 1.4 2.438 3.038 2.998 3.558 1.599 5.797-.84 8.515 0 2.759.8 5.797 2.678 7.995 1.36.28 0 .8-.28.8-1.12-.24-.52-.52-.8-.8-1.08z" fill="#cc141c" fill-rule="evenodd"/><path d="M12.432 254.026c-1.399-4.977-1.679-13.232-.56-17.93.56-2.757 1.12-5.516.84-8.534-.28-1.12-.28-2.498-.56-3.598 0-1.379-.559-4.137 2.24-4.137 2.498 0 4.177 1.12 4.457 7.995l-.56 8.835.84 5.236c.819 6.616.819 9.635-.84 12.393-1.4 1.939-5.017 2.478-5.857-.26z" fill="#e56949" fill-rule="evenodd"/><path d="M16.07 254.906c-2.798-1.1-2.798-13.252-1.679-17.95.56-2.758 2.239-5.516 1.68-8.554 0-1.1-.28-2.499-.28-3.598 0-1.1-.28-3.318 1.119-3.858-.56-.84-1.4-1.12-2.519-1.12-2.798 0-2.238 2.78-2.238 4.158.28 1.1.28 2.479.56 3.578.28 3.038-.28 5.817-.84 8.575-1.12 4.697-.84 12.972.56 17.949.56 1.939 2.518 2.199 3.917 1.659 0-.28-.28-.56-.28-.84z" fill="#cc141c" fill-rule="evenodd"/><path d="M150.549 3.518c-3.318 0-7.176 1.399-8.295 6.096-4.418-2.498-9.954 1.1-9.395 4.697-6.915-1.399-10.793 2.759-10.233 7.995-4.138-1.918-8.855 5.817-7.736 10.514-4.157 0-8.295 6.636-6.636 9.674-3.597 1.1-7.755 7.995-5.256 12.153-3.598 3.038-4.158 7.735-2.22 11.333-4.976.54-4.416 8.835-3.597 11.313-4.977.56-4.137 9.954-1.919 11.333-5.257 2.759-4.157 8.835-1.659 11.613-4.157 3.038-3.058 9.395-1.12 12.433-2.478 5.237-3.597 9.674-.819 12.992-3.318 1.379-4.157 10.214-1.119 12.972-3.038 3.038-3.598 8.855-1.1 11.893-1.378 2.198-2.498 6.616-1.099 9.654-1.938 2.778-1.399 8.015-.28 9.394-2.778 2.219-3.317 8.855-1.119 11.893-1.919.82-3.318 3.858-3.038 6.896" fill="none" stroke="#eef7fc" stroke-width="2.319" stroke-linecap="round" stroke-linejoin="round"/><path d="M106.535 408.672c3.618 5.297 21.607 14.771 44.294 11.993-11.613 4.717-38.757-.84-44.294-11.993zm-21.666 6.456c3.877 2.759 14.63-.28 14.89-10.213 1.1 6.356-4.677 15.99-14.89 10.213zm47.991 44.713c3.038 8.575 9.694 52.548-12.493 56.126 12.492-.26 25.505-16.03 12.492-56.126zm-41.276 74.395c9.635 2.479 17.07 1.64 18.75-6.916.519 6.916-3.879 13.512-18.75 6.916zm-38.856-9.114c16.43 0 21.987-24.625 20.867-42.055-1.399-19.348-.28-43.973 0-60.883 1.68 15.23 1.12 40.695 2.799 61.443 1.359 20.747-8.355 43.693-23.666 41.495zM25.285 283.628c-1.96 8.575 1.699 13.832 3.098 16.05 1.399 2.219-2.519 35.12-3.378 51.43-1.12-8.556 1.979-45.613 1.419-48.951-.56-3.318-5.357-11.053-1.14-18.529zM148.67 137.237c-.54 9.094-5.777 23.426-17.11 19.848 6.636 3.038 17.11 1.379 17.11-19.848zM24.645 233.019c.26 6.396 6.096 27.743-5.577 30.781 10.014-2.758 10.014-11.633 9.175-16.91-.82-5.536-3.598-11.653-3.598-13.871zM146.191 38.896c-4.997 3.318-18.868 16.03-25.824 77.633 3.898-16.57 12.792-65.2 25.824-77.633z" fill="#fff" fill-rule="evenodd"/><path d="M103.977 341.913c0-1.64 2.239-1.92 3.358-2.199 1.959-.28 3.918-.28 5.856-.56 1.68-.54 3.638-2.198 5.597-1.918 1.4.54 1.959 2.478 2.239 3.857.26-2.758-.28-6.076-.28-8.834-.28-2.219-.84-4.698-.84-6.896 0-2.219 1.12-3.878 1.38-5.817.28-1.918.28-3.577.28-5.516-.82 1.379-.82 3.598-2.779 3.877-1.959.26-3.078-.56-4.757-1.379-1.68-.84-4.178-1.12-5.577-1.939-1.119-.56-1.959-1.659-2.798-2.498-.28.56-.28 1.399-.28 1.939-.28 1.099-.56 2.498-.56 3.877-.28 1.92 0 3.858.28 5.797.28 4.137-.56 8.555-1.679 12.412zM131.8 211.512c-2.778 4.697 2.778 4.977 5.557 6.356 1.659 1.12 3.318 2.498 4.437 3.878.84 1.379 1.939 2.758 2.499 3.877 1.099 2.479-1.38 4.697-1.66 7.176-.28 3.878-2.218 6.916-3.337 10.214.56-2.479 0-2.479-1.94-2.199-2.218.56-4.716 1.1-6.935 1.1-2.219-.28-3.058 0-4.717-1.1-1.959-1.38-3.058-1.659-4.457.28.839-4.417.56-9.135 2.498-13.272 1.679-3.318 3.618-6.636 4.997-9.954zm-53.547 27.983c-.56 2.219 0 2.219 2.498 1.939 2.758-.28 4.417-.56 7.196-.56 1.939 0 5.536.56 7.195 1.38.84.559 2.219 2.478 3.058 1.378.82 3.578-1.379 8.255-2.498 11.553-.82 2.759-1.659 5.217-2.498 7.976-.82 3.018-1.94 5.776-3.039 8.794.82-2.738-1.938-3.558-3.877-4.397-2.499-1.38-5.817-2.738-7.756-4.937-2.778-3.038-7.495-7.995-3.597-12.393zm-18.249 85.888c.56 1.939 3.318 0 4.157-.28 1.939-.82 4.158-1.38 6.356-1.38 1.66 0 6.097-.279 6.656 1.94.26.56-.28 1.659-.28 2.198-.56 1.66-.56 3.318-.84 4.977-.279 2.199-.819 4.418-1.378 6.616-.56 3.038-.28 6.896-1.38 9.654 0-1.639-2.778-.54-3.877-.82-2.778-.559-9.414-3.857-9.694-6.335-.28-.56-.28-1.12-.28-1.94.28-2.757 0-5.236 0-8.014 0-1.38 0-3.578.28-4.957zm-32.481 50.509c0 2.219 3.058 2.219 6.097 3.318 3.058.84 9.134 4.697 9.974 6.636.82 1.66-.84 1.939-.84 1.939l.56 4.977.84 4.417s-11.634 10.214-18.57 5.517l-.28-17.13zm-2.778 90.985c0 1.939 2.479.56 7.156.56 4.677-.28 9.634 2.758 10.453 3.857.54 1.1-.82 3.298-.82 3.578 0 .54.82 9.355.82 9.355l-.56 1.918s-9.893 11.833-14.57 6.616c-4.957-5.236-3.299-11.293-3.299-11.293l.28-12.112zm27.983-52.008c2.239 5.736 12.233 11.473 16.11 6.835 3.878-4.657 0-6.016 0-6.016l-10.833-6.296zm2.718-13.552c4.158-5.237 13.312-6.077 14.971-.28 1.66 5.796-2.498 5.796-2.498 5.796l-8.315 1.36zM31.94 299.838c5.257.26 17.13-3.598 18.51-11.333 1.638-7.735-9.935-15.75-16.01-14.631z" fill="#e6c1c7" fill-rule="evenodd"/><path d="M143.413 130.52c.28 2.22-.26 4.998-1.1 6.937-.819 1.659-.819 4.417-1.378 7.195-.82 3.038-2.759 7.756-6.896 5.817 1.12 2.198 3.598 1.939 5.796-.56 1.94-2.778 2.199-4.697 2.759-8.035.56-3.318 1.099-3.878 1.659-6.356.26-2.778-.56-4.158-.84-4.997zM14.751 257.304c2.758.28 6.056-2.478 6.056-6.336 0-4.138-.54-8.815-1.099-12.413-.28-3.577-.54-6.616.28-9.374-.28 1.66-.82 4.697.56 11.033 1.359 6.337 3.557 17.91-5.797 17.09zm79.532 142.574c1.399 3.318.84 9.914-5.577 11.013 2.519.82 9.195-2.758 5.577-11.013zM87.907 528.36c1.959.56 4.197-1.08 6.396-.28 2.518.56 7.755 3.838 9.714.84 1.959-3.039 0-4.958 0-4.958 2.199 1.92 2.199 4.118 0 6.317-1.959 2.158-6.956.28-8.315-.56-2.798-1.36-6.116 0-7.795-1.36z" fill="#fff6ed" fill-rule="evenodd"/><path d="M32.18 269.477c-1.099 5.536-4.677 6.915-5.776 11.053-1.38 3.858-1.659 6.616-.82 10.773.28 2.479 1.1 3.858 2.2 6.057.819 1.659 2.757 4.417 3.577 1.659.54-2.759-.82-4.677 0-7.716.54-3.597 1.639-7.455 1.919-11.053 0-1.659.28-3.318.56-4.957 0-1.399.26-2.778.26-4.157zm69.658-25.985c-.56 5.837.54 11.094-1.119 16.65-1.659 4.977-3.878 10.254-8.335 13.012.28-.54.28-.82.28-1.379.84-3.318.84-6.936 2.218-9.974 1.96-4.997 2.779-9.974 4.458-14.69zm25.805-29.182c-.56 1.4-2.799 2.778-3.638 4.158-1.68 2.198-2.798 4.137-3.638 6.616-1.679 4.697-1.679 8.834-1.4 13.511.28.28.56.84.56 1.38 1.96-3.858 2.519-8.555 3.918-12.693.84-2.478 2.239-4.417 3.078-6.896.56-1.379.84-3.038 1.68-4.417zm-23.886 97.461c-.56 3.058-4.157 5.817-5.537 8.595-1.119 2.778-1.679 6.376-1.399 9.414 0 3.318 1.12 5.257 2.219 8.315.56 1.1 1.4 3.878 2.778 4.138 0-4.698.84-9.675 1.66-14.392.28-2.218.839-4.437 1.398-6.636.54-2.778-.28-5.816.54-8.315zm-22.946 14.951c.84 8.255 1.1 15.67-5.277 21.987-.84-1.92-2.498-3.838-3.338-5.757-.84-1.939-1.679-3.578-1.959-5.497 0-1.659.56-3.298.56-4.957zm-7.535 77.313c1.119 2.778.84 6.376.56 9.135-.28 1.659-1.42 7.175-3.119 7.175zm-50.81 67.159c-1.679 3.578-2.518 5.237-2.238 9.355.28 3.298 1.12 9.354 4.197 11.273-.28-3.018-.56-5.757-1.399-8.795-.28-1.919-.84-3.578-.56-5.776.28-1.38.56-2.739.84-4.118zm1.919-93.463c-.28 2.239-2.758 4.457-3.857 6.676-1.1 2.499-1.94 5.277-1.66 8.055 0 4.437 1.66 8.335 4.978 11.093-.28-.82 0-.82 0-1.659.26-2.778 0-5.836 0-8.874-.28-2.239 0-4.737.82-6.956.819-1.659 1.658-2.778 1.918-4.437z" fill="#f1ddca" fill-rule="evenodd"/><path d="M102.358 252.447c0 7.735-3.878 14.371-6.916 19.348-3.038 4.697-3.877 10.494-7.755 24.026a766.507 766.507 0 0 0-6.096 24.585c2.778-7.736 10.813-32.32 12.192-38.937 1.38-6.915 9.954-19.068 8.575-29.022z" fill="#fff" fill-rule="evenodd"/><path d="M119.348 512.57c-22.227 2.758-27.224-27.324-29.163-40.596-1.958-16.01-1.399-43.074 13.332-43.634 13.872 0 22.207 14.372 27.763 37.298 4.438 18.209 2.779 45.552-11.932 46.931" fill="none" stroke="#1a171b" stroke-width=".64" stroke-linecap="round" stroke-linejoin="round"/><path d="M153.707 397.44c-1.939.259-4.997.539-7.775 1.638-1.66-2.478-6.936-3.298-12.233-1.1 0-.819-7.495-5.516-9.714-4.976-.28-3.578-1.68-9.394-5.297-11.053 3.058-1.94 3.618-14.911 1.12-18.51 1.938-2.758 2.218-12.991.839-17.689 2.498-3.597.56-14.65.56-14.65l-.84-7.176c1.38-2.499 4.717-14.931 1.939-21.287 3.058-1.92 5.836-13.532 4.177-19.069 2.779-3.318 6.936-12.152 5.277-16.57 3.058-1.659 6.676-12.172 5.837-17.13 3.058-2.218 6.116-15.21 4.997-18.808 2.238-1.659 5.836-9.934 5.276-14.091 1.12 0 3.618-2.2 5.837-4.977" fill="none" stroke="#1a171b" stroke-width=".8" stroke-linecap="round" stroke-linejoin="round"/><path d="M153.707 182.01c-1.66.84-3.318 2.218-4.977 3.877-13.052 8.555-21.647 29.283-29.702 59.924-3.598 12.992-11.913 31.76-13.312 53.867-1.38 22.087-3.318 54.947-5.537 74.295-1.959 16.83 1.1 28.443 12.753 36.178 16.93 10.754 34.958 8.835 40.775 7.456" fill="none" stroke="#1a171b" stroke-width=".8" stroke-linecap="round" stroke-linejoin="round"/><path d="M9.194 19.468c.28 3.058-.28 11.113-.28 11.113m10.874-9.993c0 4.137-2.608 11.583-3.198 13.511m5.677 1.679c1.678-3.857 3.917-9.924 5.036-11.033m.48 15.83c1.939-1.379 6.636-9.434 6.636-9.434m-3.678 15.751c3.059-1.38 9.994-7.756 9.994-7.756m-9.994 14.951c1.67-.27 12.203-3.817 13.032-4.637M30.422 61.553c3.358.53 13.991-2.429 13.991-2.429M30.422 72.076c.84 0 12.872-1.199 12.872-1.199m-13.352 9.194c3.328 1.84 11.093 1.32 12.472 1.06m-12.472 8.775c2.488 1.998 10.474 1.149 10.474 1.149m-12.313 11.303c2.748.9 12.632-.3 12.632-.3m-12.952 10.354c4.158.84 10.534-.56 12.473-.84m-11.194 10.484c2.229 1.35 10.284-.27 11.673-.81M30.422 133.04c1.958.839 9.484-.28 11.992-.84M33.3 144.902c1.659.81 10.174-.54 11.273-1.349m-9.114 12.462c3.337 1.69 9.724-.29 11.113-1.988m-8.315 12.103c2.788.529 8.365 0 10.314-2.43m-8.315 12.203c3.028.27 7.155-.28 9.354-2.208m-6.716 12.412c3.378.54 8.435-1.639 9.834-2.738m40.695-96.422c3.079 1.12 9.774-.56 13.112 1.12M95.422 75.654c6.396-.54 11.933 1.06 13.592 2.099M99.02 64.321c5.876-1.04 10.054-.52 12.552 1.28m-10.313-12.853c5.236-.82 9.654.54 12.952 2.139m-8.315-14.152c4.157 0 8.874 2.219 12.472 4.158m12.472-32.301c3.399 3.338 3.678 6.956 5.357 10.554m-15.35-2.558c4.757 2.518 5.876 4.757 7.835 7.835m-15.431 2.718c4.098 0 6.556 1.4 9.275 4.158M91.744 98.46c5.877-.56 9.495 1.92 13.112 1.38m-14.151 11.013c7.815.92 9.494 1.519 12.552.92m-13.351 12.112c4.157 1.999 9.154 1.999 12.472 1.439m-13.672 11.353c5.317 2.179 9.494 2.719 13.672 1.1M87.907 148.51c3.338 3.038 10.813.84 12.472.56m-14.471 18.788c5.876 4.158 8.375 2.219 13.672 1.12m-14.552 10.713c5.597 3.358 8.955 3.358 12.873 2.519m-11.353-23.706c4.697 3.358 9.394 3.358 13.511 1.12M33.3 212.031c5.536 1.96 18.808-1.399 22.946-1.399M36.898 230.52c5.536 0 17.709.26 21.027-1.339m-21.827 16.63c3.618 2.119 14.971 2.638 21.347 1.32m-22.866 15.15c4.197 2.878 18.969 2.878 22.307 2.319m-22.307 11.033c3.618 1.939 16.71 5.517 20.308 4.137M33.3 297.78c5.556 3.198 14.97 2.398 19.108 1.599M30.422 314.25c5.576 2.878 15.61 2.878 20.627 1.439m-22.147 16.55c6.676 1.379 16.39 2.478 20.548 1.659m-21.347 16.01c6.336 1.999 17.09.86 19.828.3m-20.628 16.01c5.217 1.36 15.091 1.1 19.748.56m-22.626 39.416c6.097 3.358 19.668 2.798 19.668 2.798m-19.188 15.671c2.778.86 15.23 1.998 17.989.58m-19.268 17.529c4.157 2.758 17.39 1.119 20.147-.28M24.425 460.62c4.158 2.9 16.91.58 19.668-.299m-1.679 30.142c-2.218.84-13.352 9.954-13.352 12.712m26.384-20.148c3.918 0 13.152 3.038 13.992 4.957M49.93 462.68c4.437-.84 18.788.84 18.788.84M49.61 443.911c4.997-.54 19.428 1.3 19.428 1.3M49.93 425.342c2.238-.28 18.049 2.199 19.988 3.558m-15.351-72.996c4.197 1.52 18.169 1.52 19.828 1.52m-20.308 14.311c3.898 1.719 17.81 1.998 19.189 1.719m-20.388 15.071c3.078 1.679 17.91 1.679 19.028 1.399m-10.313-72.636c3.318.28 15.47 4.357 17.11 5.436M64.56 300.098c5.318 0 18.71 6.156 18.71 6.156m-15.83-23.825c3.857.3 19.267 7.036 19.267 7.036m-15.99-21.827c5.017.28 20.548 6.796 20.548 6.796m-4.717-71.397c4.697.28 19.608 2.698 20.147 3.758M82.87 219.347c3.618.56 22.146 5.996 22.146 5.996m-24.785 10.474c3.878.56 18.849 5.717 19.668 6.796M39.056 517.646c2.519-1.1 10.274-17.13 10.834-19.348 1.12 4.717 10.833 11.893 14.99 11.613m67.48-303.116c1.939 4.157 11.373 10.233 15.51 10.233m-27.503 25.425c4.178 1.679 14.731 7.196 17.51 6.656m-23.027 12.213c3.618 1.898 15.291 5.117 17.51 5.117m-23.346 11.033c3.338 2.818 15.57 6.476 17.51 6.196m-20.788 14.592c3.618 2.158 16.63 4.317 16.63 4.317m-19.508 42.373c3.078 2 15.61.86 17.829.86m-19.109 15.451c4.458 1.959 16.37 2.798 18.31 2.239M99.58 383.827c4.437.54 16.91-1.099 19.108-1.938m-14.311 85.188c1.1-2.199.56-12.153-1.12-14.631 1.68-1.66 3.878-7.736 3.878-9.954.56 3.877 4.717 7.195 7.755 8.015-.56 2.758.82 9.954 3.318 12.153-1.099 1.938.82 14.63 2.479 16.01-.82 2.219-1.38 11.613-.26 12.992-2.219 1.1-8.315 3.578-8.855 4.957.28-2.478-1.938-10.753-3.877-11.873.28-2.758-1.1-15.45-3.318-17.67m-14.312.76c3.618-1.359 12.493-1.079 14.152-.8m-14.311-17.668c1.399 0 12.252 1.619 13.351 2.958m3.758-9.834c-.84-3.878-1.999-14.152-1.999-14.152" fill="none" stroke="#1a171b" stroke-width=".64" stroke-linecap="round" stroke-linejoin="round"/><path d="M114.85 450.507c2.779.86 9.994-4.018 9.994-4.018m-6.636 16.151c2.239-.26 10.854-1.64 11.673-2.479m-9.194 18.469c1.959-1.6 12.552-1.32 12.552-1.32m-12.872 14.592c1.959-.56 10.873 7.275 10.873 7.275m-19.508-3.197c-1.359 2.798-5.197 12.292-5.197 13.671m1.04-24.945c-3.018-.56-13.512 3.278-13.512 3.278M140.035 7.316c1.939 1.978 4.957 8.434 4.957 9.834" fill="none" stroke="#1a171b" stroke-width=".64" stroke-linecap="round" stroke-linejoin="round"/><path d="M.76 29.142h.28c2.218 4.138 4.996 3.318 7.775 1.38.56 3.317 4.157 5.256 7.495 3.877-.28 1.66 3.878 2.199 5.817 1.38-.82 2.198 4.437 5.516 5.836 5.256-.56 1.38.82 4.417 2.778 5.797-1.119 1.379-1.958 6.096 0 7.195-1.679.56-2.498 6.356.26 7.736-3.318 1.119-2.218 8.015-.54 10.233-3.337 1.66-1.678 6.916-.56 8.016-2.498 3.317-2.777 8.574 0 9.953-4.157 4.698-3.057 7.756-1.938 12.453-3.338 5.517-.28 9.954-.28 9.954-2.778 4.697-.56 9.114 1.38 9.674-3.319 5.537-1.38 9.115 1.399 11.053-1.4 4.438-.84 10.514 2.758 11.893-1.38 4.697-1.38 10.234 2.219 11.053-1.38 6.097 0 9.695 2.778 10.234-2.219 4.158-1.38 9.135 1.939 9.674-1.94 3.598-1.38 8.035 2.778 10.234-2.219 4.158-.56 7.755 3.058 9.135 3.058 2.198 6.656-.84 8.875-2.499 1.379-4.137 0-5.517-2.219-9.394 2.219-4.158-.56-8.855-3.058-9.674 2.219-1.12 1.12-6.356-1.1-9.954 2.22-2.499 0-8.015-1.938-9.674 1.939-1.94.54-6.377-2.219-9.415 2.758-3.857.82-11.053-1.959-12.432 2.499-3.318.56-8.855-1.659-11.073 2.219-3.039 1.66-7.736-.56-9.675 1.68-2.758 1.68-6.915.56-9.394 2.499-2.219 1.94-7.475-.28-11.053 2.499-1.66 3.059-7.756.84-9.694 2.498-1.38 4.717-9.395 1.1-10.774 2.778 0 4.996-10.793 1.958-11.893 3.038-1.099 1.66-7.735-.56-9.394 2.499-2.498.28-10.234-3.058-10.514 2.499-2.758-1.939-9.674-6.376-7.735.56-4.437-4.157-8.575-7.775-6.096.84-2.479-4.717-6.636-6.656-3.858-.56-3.058-9.155-5.816-10.814-1.659-.56-1.399-5.556-4.717-8.334-.56 0 0 0 0 0 0" fill="none" stroke="#1a171b" stroke-width=".8" stroke-linecap="round" stroke-linejoin="round"/><path clip-path="url(#a)" d="M153.707 2.419c-3.038-1.1-11.353-1.66-13.012 5.536-4.438-2.758-9.974 1.1-9.714 4.697-6.636-1.379-10.514 2.759-9.974 8.015-4.158-1.938-8.855 5.797-7.756 10.494-4.157 0-8.315 6.636-6.656 9.674-3.877 1.1-8.035 7.736-5.256 11.873-3.598 3.318-4.158 8.015-2.22 11.593-4.996.56-4.716 8.855-3.597 11.333-5.277.56-4.157 9.954-1.939 11.333-5.277 2.759-4.157 8.835-1.679 11.593-4.157 3.038-3.038 9.115-1.099 12.433-2.499 4.977-3.598 9.674-.84 12.992-3.318 1.379-4.157 10.214-1.099 12.712-3.058 3.298-3.598 8.835-1.12 12.153-1.378 2.198-2.478 6.616-1.099 9.654-1.938 2.778-1.659 8.015-.56 9.394-2.498 2.219-3.037 8.855-.819 11.893-3.877 1.659-5.836 12.692 4.158 14.091 9.694 1.64 9.414-7.475 8.575-11.612 3.058-3.318 3.897-10.214 1.679-13.252 1.659-1.12 3.597-6.357.54-9.395 2.498-1.659 1.938-8.854.559-9.954 1.939-2.478 4.157-8.295 1.659-11.873 2.498-2.498 2.498-8.294 0-12.432 3.058-2.498 4.157-8.295.84-13.532 3.317-2.498 3.597-8.854 1.658-11.893 2.499-.54 4.158-8.834 1.66-11.872 1.938-1.66 4.157-6.077 2.498-10.214 2.498-.56 5.277-9.954 2.498-12.173 2.219-1.379 4.158-4.677 2.779-10.773 1.939-1.64 4.977-6.336 4.157-9.934 3.038-1.38 6.096-4.977 4.158-9.674 4.137-.56 6.636-3.318 6.096-6.896 2.758 1.659 6.356-1.4 7.475-5.257 1.38 2.219 8.595-3.038 8.595-6.076 3.038 1.659 6.376 1.938 8.855 1.099" fill="none" stroke="#1a171b" stroke-width=".8" stroke-linecap="round" stroke-linejoin="round"/><path d="M153.707 18.269c-2.499.82-5.817.54-8.875-1.12 0 .84-.56 1.94-1.379 3.039-.56.56-1.12 1.12-1.959 1.659 0 0 0 0 0 0-.82.56-1.379 1.12-2.218 1.379 0 0 0 0 0 0-.28.28-.54.28-.82.28l-.28.28h-.84s0 0 0 0h-.838c0-.28-.26-.28-.26-.56-1.119 3.878-4.737 6.916-7.495 5.257.54 3.598-1.959 6.356-6.116 6.896 1.939 4.697-1.1 8.295-4.158 9.674.82 3.598-2.218 8.295-4.177 9.954 1.399 6.076-.54 9.374-2.759 10.773 2.759 2.199 0 11.593-2.498 12.153 1.659 4.137-.56 8.555-2.499 10.214 2.499 3.038.82 11.313-1.679 11.872 1.94 3.039 1.68 9.395-1.659 11.873 3.338 5.257 2.22 11.053-.839 13.532 2.498 4.157 2.498 9.954 0 12.432 2.498 3.598.28 9.395-1.659 11.873 1.38 1.12 1.939 8.295-.56 9.954 3.058 3.038 1.12 8.275-.56 9.395 2.24 3.038 1.4 9.934-1.658 13.251.84 4.138 1.119 13.252-8.595 11.593-.84 0-1.4 0-1.959-.26l-.28-.28c-.26 0-.82-.279-1.1-.279l-.279-.28c-.28-.28-.56-.28-1.12-.56 0 0 0 0 0 0-.26-.54-.539-.819-.819-1.099v.28c-.84 2.758.28 7.455 2.219 11.333-2.219 1.64-6.376 12.692-2.778 16.57-2.779 1.38-4.158 11.593-3.338 15.73-1.94 1.12-4.997 6.916-5.257 14.372-2.499 5.237-4.737 16.29-3.898 18.229-2.219 2.478-4.997 10.773-3.338 14.91-2.758 1.66-3.877 12.713-2.758 17.69-3.618 2.199-4.457 11.593-3.618 17.39-3.338 3.877-1.939 16.03-1.38 21.267-1.958 1.938-6.115 11.333-4.716 16.85-1.96 3.038-2.239 12.152-.84 16.03-1.399 2.478-2.498 14.63-1.12 16.83-2.498 3.317 2.22 13.811 3.339 17.689-2.219 1.939-8.615 15.75-6.376 19.048-.84 3.598-3.058 17.13-.28 18.509-1.4 2.758-1.12 16.03.28 18.789-1.4 1.938 2.218 19.048 5.536 20.427-4.157 3.038-5.536 11.054-5.536 15.191-.56-2.758-4.737-6.896-7.496-7.715 1.94-4.697.26-15.75.26-15.75.56-2.76 3.338-10.215 1.4-14.372 1.378-2.758.559-12.692-.84-17.67 2.218-3.317 1.939-12.712-.28-17.409 2.219-2.198 3.058-13.532 1.12-16.29 1.938-3.598 1.658-16.01-1.12-20.168 2.219-1.379 7.216-19.048 3.898-21.806 1.938-2.779 3.877-11.613.82-17.13 3.337-1.38 3.057-11.053 1.678-16.03 3.318-1.92 3.878-16.85 1.66-18.23 1.398-2.758 4.157-9.374 1.398-16.29 2.759-1.938 3.878-16.29 2.499-19.608 1.939-2.758 4.157-10.773 1.939-15.47 2.218-2.759 3.318-11.873 1.099-16.85 3.058-5.796 1.12-14.351.28-17.95 1.399-1.938.84-14.09-1.94-18.788 1.38-2.758 1.38-11.873-1.378-17.949-2.239 1.66-5.837 4.697-8.895 2.479-3.598-1.38-5.277-4.957-3.058-9.115-4.158-2.199-4.717-6.616-2.778-10.214-3.318-.54-4.158-5.516-1.94-9.654-2.777-.56-4.157-4.157-2.777-10.234-3.598-.82-3.598-6.356-2.22-11.053-3.597-1.38-4.157-7.455-2.777-11.873-2.759-1.919-4.718-5.516-1.38-11.033-1.938-.56-4.157-4.977-1.379-9.674 0 0-3.058-4.417.26-9.954-1.1-4.697-2.219-7.735 1.959-12.413-2.778-1.399-2.499-6.636 0-9.954-1.12-1.099-2.778-6.356.54-8.015-1.66-2.198-2.759-9.114.56-10.214-2.78-1.379-1.94-7.175-.28-7.735-1.94-1.1-1.1-5.796 0-7.175-1.94-1.38-3.319-4.418-2.779-5.797-1.38.28-6.656-3.038-5.816-5.257-1.94.84-6.117.28-5.837-1.379-3.318 1.38-6.936-.56-7.495-3.858-2.779 1.92-5.557 2.759-7.776-1.399l-.28-1.1" fill="none" stroke="#1a171b" stroke-width=".8" stroke-linecap="round" stroke-linejoin="round"/><path d="M.76 46.072h3.058c8.335 0 18.329 5.797 13.891 37.837-4.717 32.04.54 50.55 4.438 72.936 1.659 11.053 4.997 26.524 8.055 40.875 2.758 14.651 5.257 28.183 5.257 35.918 0 15.75-1.38 32.88-1.94 40.056-2.218 16.03-2.778 41.995-4.716 58.565-2.22 16.57-7.216 115.19-5.277 146.131 2.218 31.221 16.65 45.572 28.602 44.753 16.65-1.38 18.869-35.918 17.21-57.185-1.4-21.268 3.318-84.53 5.277-116.57 1.659-23.486 17.21-75.694 28.023-114.93 13.612-48.61 11.393-171.256 36.638-193.643 5.276-4.697 11.673-8.275 14.43-9.674" fill="none" stroke="#1a171b" stroke-width=".8" stroke-linecap="round" stroke-linejoin="round"/><path d="M153.707 211.832v.28c-2.219 2.758-4.717 4.976-5.837 4.976.56 4.138-3.038 12.433-5.276 14.092 1.119 3.578-1.94 16.57-4.997 18.769.84 4.976-2.779 15.47-5.837 17.13 1.66 4.416-2.498 13.251-5.277 16.57 1.66 5.516-1.119 17.129-4.177 19.048 2.778 6.356-.56 18.788-1.939 21.267l.84 7.175s1.938 11.054-.56 14.651c1.379 4.698 1.1 14.911-.84 17.67 2.499 3.598 1.94 16.57-1.119 18.509 3.618 1.659 5.017 7.455 5.297 11.033 2.219-.54 9.714 4.157 9.714 4.977 5.297-2.199 10.574-1.38 12.233 1.1 2.778-1.1 5.836-1.38 7.775-1.64 0 0 0 0 0 0m-17.23-274.873c-3.038 1.939-5.516 6.636-7.155 14.91-1.12 6.077-1.12 13.552 2.478 16.31.82.82 2.758 1.92 5.517.54 6.336-3.038 7.995-11.313 8.535-19.608.82-8.834-.54-11.053-3.858-12.432 0 0 0 0 0 0-1.939-.56-3.858-.56-5.517.28zM132.9 147.15c-.28-1.939-.82-5.257 0-9.115 1.66-8.834 4.678-11.872 6.057-12.712.56-.28 1.1-.28 1.659 0 1.1.56 2.478.84 1.939 8.015-.28 1.66-1.66 3.038-2.22 5.797-.539 3.038-.279 5.256-1.098 7.195-.54 1.1-1.1 2.199-1.92 2.759-1.658 1.659-4.137 0-4.417-1.94zM86.827 390.683c-2.498.28-4.997 2.239-6.116 5.297-1.679 3.878-1.679 9.994 1.66 14.171 2.238 2.779 5.016 3.878 8.074 3.338 3.618-.84 6.396-3.897 7.236-7.795.54-3.878-.56-8.335-3.058-11.393-1.96-2.219-4.458-3.618-7.516-3.618h-.28zm-1.938 17.25c-1.4-1.68-.56-4.178-.56-6.117 0-1.679-1.12-3.058-.56-4.177.56-1.12 1.4-2.778 3.338-3.058 1.66-.28 3.618.28 4.717 1.679 1.4 1.659 2.239 4.997 2.239 7.215v1.68c-.56 1.938-2.498 4.437-4.177 4.996-1.38.28-3.898-.84-4.997-2.218zM82.47 514.328h-.28c-2.758 1.12-4.437 3.598-4.157 6.636.28 3.278 3.038 7.716 9.114 9.355l2.798.84c5.517 1.358 11.314 3.277 14.911 1.078 1.64-.8 2.479-2.198 3.039-4.117.8-3.038 0-6.076-1.96-8.835-2.478-3.038-6.595-4.957-10.473-4.957l-5.277-.28c-3.038-.28-5.516-.56-7.715.28zm7.196 2.759 5.796.28c2.758 0 4.677 2.758 6.356 4.956.8 1.12 2.759 2.479 1.92 4.957 0 .84-.56 1.12-.84 1.4-2.199 1.079-5.237-.84-7.996-1.68-2.758-.799-4.717 1.12-8.275-.52-3.877-1.398-4.437-3.877-4.437-5.796 0 0 0 0 0 0 0-1.119.84-2.478 1.919-3.038 1.4-.56 3.038-.84 5.557-.56zM9.674 218.408c-1.959 2.218-1.679 5.816-1.12 9.694.28 2.778.56 5.556 0 7.755-1.119 5.557-1.958 21.067 3.359 25.485 1.679 1.399 3.638 1.659 5.876.84 7.835-3.059 6.716-12.194 5.597-20.768l-.84-5.277-.28-6.636c-.28-6.656-.28-13.032-8.115-13.032-1.958 0-3.358.84-4.477 1.939zm2.798 35.738c-1.399-4.977-1.679-13.292-.56-18.01.56-2.757 1.12-5.536.84-8.574-.28-1.12-.28-2.498-.56-3.598 0-1.399-.56-4.157 2.24-4.157 2.518 0 4.197 1.1 4.477 8.035l-.56 8.855.84 5.256c.839 6.656.839 9.694-.84 12.473-1.4 1.939-5.037 2.498-5.877-.28zm127.083-230.68c.28 1.939 4.897 12.372 5.437 12.632m1.359-17.989c1.44 1.939 2.879 15.51 2.879 15.51m-16.39-5.516c.839 2.219 7.835 11.093 8.394 11.353m-15.35-5.356c.84 1.958 9.514 8.934 10.633 9.194m-14.471-1.2c1.679 1.98 10.354 6.477 11.193 6.477m-15.031 1.039c.84 1.4 11.373 4.477 12.473 4.477m-15.671 3.518c1.4 1.12 11.973 2.798 13.352 2.519m-15.51 4.996c.84 1.12 11.373 2.479 13.032 1.94m-13.352 5.176c2.518 1.12 10.613 1.68 11.993 1.4m-14.632 6.116c2.519 1.159 11.973 1.998 13.352 1.159m-15.67 5.956c1.959.84 12.492 1.68 14.151 1.4m-13.512 6.436c3.318.52 11.334 1.039 12.153 1.039m-14.471 5.836c3.618.84 11.693 1.68 13.352 1.4m-13.512 5.396c2.219 1.68 10.534 1.4 12.472 1.12m-13.192 6.396c4.198 1.519 10.894 1.519 12.553 1.219m-13.032 5.976c2.218.8 9.954 1.6 12.152.8m-12.152 6.476c3.338 0 10.573 1.28 11.673 1.52m-12.953 5.915c3.558-1.439 11.753 1.44 11.753 1.44m-11.273 4.797c3.318 1.519 9.654 1.219 10.474.92m-12.473 6.595c4.198 0 9.774.56 11.993 1.12m-12.153 5.836c2.519.56 11.134.56 11.673.56m-11.673 6.316c3.598.8 9.695.8 10.794.8m-11.113 7.035c1.958 0 8.614.52 9.994 1.28M99.9 179.531c2.498 1.68 10.253 1.68 10.793 1.4m-12.313 5.876c3.338 1.12 10.574 1.679 11.673 1.679m-16.31 5.836c3.618 2.039 13.612 2.319 15.27 2.039M30.262 198.5c3.877.54 15.17-2.419 15.99-2.978m-17.35-4.158c1.94-1.42 11.613-2.558 12.713-2.558m-13.832-4.318c2.758-1.449 10.454-2.318 11.273-2.318m-12.632-4.318c1.939-1.1 9.974-2.478 11.353-2.478m-13.352-5.037c1.929-.54 11.813-2.159 12.633-2.159m-13.752-5.517c2.498-.8 10.793-1.599 10.793-1.599m-11.832-5.037c1.938-.84 11.033-1.679 11.033-1.679m-12.553-5.516c2.509-1.33 10.564-1.6 11.673-1.6m-12.632-5.356c1.659-.84 9.654-1.679 10.474-1.679m-11.353-4.957c2.218-.84 9.694-1.679 11.353-1.679m-12.472-5.197c3.037-1.12 8.564-1.12 9.114-1.12m-10.474-6.395c2.748-.84 9.065-1.12 10.154-1.12m-10.474-6.596c1.94-.6 9.924.3 10.474.6m-10.794-6.876c2.519-.64 10.634 0 10.634 0M16.59 99.38c2.828-.28 10.713.84 10.713.84M16.91 92.174c2.228-.27 9.724 1.62 10.553 1.889m-9.673-8.845c3.057-.83 9.443 1.38 9.993 1.65m-8.874-8.825c3.028-.29 9.064 1.449 10.153 2.028m-9.594-8.644c3.058-.55 9.165.81 9.994.81m-9.994-7.117c2.489-.4 8.845-.4 9.115 0m-10.314-5.996c3.078-1.21 9.794-1.519 10.633-1.21M16.91 54.247c4.467-2.698 11.443-4.317 12.552-4.047M15.31 51.609c2.5-3.058 9.135-9.754 10.794-10.314m-7.036-5.197c-1.928 1.39-6.356 11.053-6.636 12.153M10.753 34.1c-1.369 3.597-3.837 10.773-3.837 12.152" fill="none" stroke="#1a171b" stroke-width=".64" stroke-linecap="round" stroke-linejoin="round"/><path d="M124.525 392.362c-1.1 4.158-17.99 12.153-17.99 12.153m27.184-6.476c-1.38 6.316-4.717 18.628-4.717 18.628m16.87-17.589c1.958 5.237 2.798 18.469 2.798 18.469" fill="none" stroke="#1a171b" stroke-width=".64" stroke-linecap="round" stroke-linejoin="round"/><path d="M27.144 285.827c-2.24 20.108 20.007 9.634 21.407 2.198 1.379-7.715-19.469-22.066-21.407-2.198zM71.537 410.95c.54-20.267-18.57-9.713-19.409-1.938-.84 7.775 18.849 22.207 19.409 1.939zm-49.85-20.946c-2.219 20.187 21.327 10.513 22.706 2.758 1.38-7.476-20.767-22.706-22.706-2.758zm77.333-62.403c0-20.147 22.406-8.275 22.966-.54.54 7.716-22.966 20.688-22.966.54zM22.486 482.747c3.878 19.868 23.286 0 21.627-6.895-1.379-6.896-25.524-12.973-21.627 6.895zm34.959-148.05c-.56 7.476 17.47 19.368 21.067 2.778 3.878-16.35-17.19-14.95-21.067-2.778zm16.07-87.227c-2.798 6.076 17.77 30.641 25.005 11.053 7.216-19.348-22.226-17.13-25.005-11.053zm70.078-13.352c2.758-6.076-13.872-27.643-21.087-8.295-7.496 19.348 18.309 14.391 21.087 8.295z" fill="#a296ad" fill-rule="evenodd"/><path d="M31.94 287.226c0-2.239 1.88-4.078 4.158-4.078 2.299 0 4.158 1.84 4.158 4.078 0 2.259-1.86 4.077-4.158 4.077-2.278 0-4.157-1.818-4.157-4.077zm52.289-34.019c0-2.439 2.059-4.438 4.597-4.438 2.539 0 4.597 1.999 4.597 4.438 0 2.458-2.058 4.437-4.597 4.437-2.538 0-4.597-1.979-4.597-4.437zM66.62 409.872c.26 2.178-1.4 4.377-3.918 4.377-2.219.26-4.177-1.38-4.457-3.838 0-2.178 1.679-4.097 3.917-4.377 2.219 0 4.178 1.659 4.458 3.838zm7.495-74.895c.28 2.478-1.679 4.397-4.197 4.677-2.519.26-4.757-1.659-5.037-4.137 0-2.479 1.679-4.678 4.197-4.678 2.519-.28 4.757 1.66 5.037 4.138zm-47.691 56.426c0-2.279 1.839-4.158 4.078-4.158 2.258 0 4.077 1.88 4.077 4.158 0 2.298-1.819 4.157-4.077 4.157-2.24 0-4.078-1.859-4.078-4.157zm80.071-64.141c-.28 2.198 1.38 4.117 3.578 4.397 2.479.26 4.398-1.38 4.677-3.578.26-2.478-1.379-4.397-3.857-4.677-2.199-.28-4.118 1.38-4.398 3.858zM26.424 480.589c0-2.619 2.099-4.757 4.677-4.757 2.599 0 4.677 2.138 4.677 4.757 0 2.638-2.078 4.757-4.677 4.757-2.578 0-4.677-2.119-4.677-4.757z" fill="#e0db95" fill-rule="evenodd"/><path d="M3.958 39.336c0-1.959.86-3.558 1.918-3.558 1.07 0 1.92 1.6 1.92 3.558 0 1.969-.85 3.558-1.92 3.558-1.059 0-1.918-1.589-1.918-3.558zm9.934 2.279c-.55 1.619-1.64 2.958-2.729 2.698-1.09-.27-1.369-1.889-.82-3.778.27-1.888 1.64-3.238 2.73-2.968.819.27 1.358 2.159.819 4.048zm6.096 3.668c-1.09 1.659-2.718 2.488-3.538 1.938-.82-.55-.82-2.488.27-4.147 1.09-1.66 2.718-2.499 3.538-1.939.81.55.81 2.489-.27 4.148zm3.358 5.187c-1.67.819-3.598.819-3.878 0-.56-1.09.55-2.46 2.209-3.279 1.669-1.099 3.328-.82 3.878 0 .55 1.09-.55 2.459-2.21 3.278zm-.04 6.865c-1.919.27-3.558-.27-3.838-1.349 0-1.08 1.37-2.159 3.288-2.428 1.919-.27 3.558.54 3.558 1.619.27 1.079-1.09 1.888-3.008 2.158zm.61 6.316c-1.98.27-3.678-.54-3.678-1.619-.29-.81 1.409-1.888 3.108-2.158 1.979-.27 3.678.27 3.957 1.349 0 1.08-1.409 2.159-3.387 2.428zm.019 6.427c-1.978 0-3.667-.82-3.667-1.92 0-1.089 1.409-1.918 3.378-1.918 1.978 0 3.657.83 3.657 1.919 0 1.099-1.399 1.919-3.368 1.919zm-.859 6.526c-1.919-.27-3.288-1.35-3.288-2.429.28-.81 1.919-1.619 3.838-1.35 1.919.27 3.278 1.35 3.008 2.43 0 1.079-1.64 1.618-3.558 1.349zm-.32 7.515c-1.919-.27-3.288-1.35-3.288-2.429.28-1.079 1.919-1.619 3.838-1.349s3.278 1.35 3.008 2.159c0 1.08-1.639 1.889-3.558 1.619zm-.839 7.196c-1.94-.27-3.328-1.35-3.328-2.429.28-1.08 1.939-1.619 3.877-1.35 1.94.27 3.318 1.35 3.318 2.43-.27 1.079-1.928 1.618-3.867 1.349zm-1.09 6.945c-1.958-.28-3.358-1.399-3.078-2.518 0-.84 1.68-1.679 3.638-1.4 1.959.28 3.358 1.12 3.358 2.24-.28 1.119-1.959 1.958-3.918 1.678zm.28 6.996c-1.959 0-3.638-1.14-3.638-1.999 0-1.139 1.68-1.998 3.638-1.998 1.959 0 3.638.86 3.638 1.998 0 1.15-1.679 2-3.638 2zm0 6.476c-1.959 0-3.358-.82-3.638-1.919 0-1.089 1.68-1.918 3.638-1.918 1.959 0 3.638.83 3.638 1.918 0 1.1-1.679 1.92-3.638 1.92zm94.283-25.124c-1.939-.28-3.338-1.36-3.338-2.439.28-1.08 1.939-1.619 3.878-1.34 1.939.54 3.318 1.62 3.058 2.42 0 1.079-1.939 1.618-3.598 1.359zm-1.14 7.195c-1.978-.54-3.397-1.619-3.097-2.698.28-.82 1.978-1.36 3.957-1.08 1.7.26 3.098 1.34 3.098 2.419-.28 1.08-1.978 1.619-3.957 1.36zm4.118-21.827c-1.959-.28-3.358-1.359-3.078-2.438.28-1.08 1.959-1.62 3.898-1.34 1.959.26 3.338 1.34 3.078 2.42-.28 1.079-1.959 1.618-3.898 1.358zm1.679-7.116c-1.959-.559-3.358-1.678-3.078-2.778.28-1.119 1.959-1.679 3.898-1.119 1.959.28 3.338 1.4 3.078 2.499-.28 1.119-1.959 1.659-3.898 1.399zm2.239-6.995c-1.66-.82-3.038-2.199-2.479-3.038.28-1.1 1.92-1.38 3.858-.82 1.919.82 3.018 1.92 2.758 3.038-.56 1.1-2.218 1.36-4.137.82zm2.858-6.776c-1.939-.84-2.778-2.259-2.498-3.378.56-.84 2.498-1.14 4.157-.28 1.66.84 2.758 2.539 2.219 3.378-.56 1.12-2.219 1.12-3.878.28zm3.058-6.696c-1.639-1.12-2.478-2.778-1.639-3.618.54-.84 2.179-.84 3.818.28 1.639 1.12 2.458 2.778 1.639 3.618-.54 1.1-2.179.84-3.818-.28zm3.758-6.616c-1.12-1.639-1.12-3.278-.28-4.077.84-.56 2.499.26 3.618 1.898 1.12 1.36 1.38 3.258.56 3.798-1.12.54-2.779-.26-3.898-1.619zm5.117-6.057c-.56-1.938-.28-3.577.54-3.857 1.079-.56 2.438.56 2.978 2.479.8 1.918.54 3.577-.54 3.857-.82.54-2.179-.56-2.978-2.478zm5.696-3.917c-.58-1.939 0-3.618 1.12-3.897.86-.28 2.258 1.119 2.538 3.078.56 1.659 0 3.617-.84 3.897-1.139.26-2.538-1.119-2.818-3.078zm6.457-3.618c0-1.918.82-3.597 1.878-3.597.82 0 1.88 1.679 1.88 3.597 0 1.94-.8 3.338-1.88 3.598-1.059 0-1.878-1.659-1.878-3.598zm-32.2 54.827c-1.92 0-3.299-1.12-3.299-2.219.28-1.119 1.919-1.679 3.838-1.679 1.919.28 3.278 1.4 3.018 2.499 0 1.12-1.64 1.659-3.558 1.4zm-3.779 21.987c-1.958-.28-3.358-1.66-3.078-2.479.28-1.099 1.959-1.659 3.898-1.379 1.959.28 3.338 1.38 3.078 2.479-.28 1.099-1.959 1.639-3.898 1.379zm-.399 6.936c-1.94-.28-3.598-1.4-3.318-2.519.28-.84 1.938-1.679 3.857-1.399 1.66.28 3.298 1.4 3.038 2.518 0 1.12-1.938 1.68-3.577 1.4zm-1.04 7.475c-1.919-.26-3.598-1.1-3.598-2.199.28-1.119 1.68-1.958 3.598-1.679 1.94 0 3.598.84 3.598 1.94-.26 1.119-1.659 1.938-3.598 1.938zm-1.099 7.176c-1.919 0-3.298-1.12-3.298-2.219 0-1.12 1.659-1.679 3.558-1.679 1.919.28 3.558 1.12 3.298 2.219 0 1.119-1.64 1.939-3.558 1.679zm-.84 6.876c-1.938 0-3.338-1.12-3.338-2.22.28-1.118 1.94-1.678 3.598-1.678 1.94.28 3.598 1.4 3.338 2.498 0 .84-1.659 1.66-3.598 1.4zm-.839 6.895c-1.919-.26-3.298-1.099-3.298-2.198.28-1.12 1.919-1.96 3.838-1.68 1.918 0 3.278 1.12 3.278 2.22-.26 1.119-1.9 1.658-3.818 1.658zm-.34 6.936c-1.979 0-3.678-1.12-3.378-2.219 0-1.119 1.7-1.678 3.678-1.678 1.979.28 3.378 1.119 3.378 2.218-.28 1.12-1.68 1.939-3.678 1.68zm-.799 7.216c-1.98-.26-3.678-1.38-3.378-2.479 0-.84 1.699-1.679 3.677-1.399 1.98 0 3.378 1.12 3.378 2.219 0 1.12-1.679 1.659-3.677 1.659zm-.56 6.916c-1.919-.28-3.278-1.12-3.278-2.24 0-1.118 1.639-1.958 3.538-1.678 1.899 0 3.258 1.12 3.258 2.239 0 1.119-1.62 1.958-3.518 1.679zm-.56 7.135c-1.959 0-3.358-1.12-3.358-2.218 0-.84 1.68-1.68 3.618-1.68 1.959.28 3.338 1.12 3.338 2.22 0 1.119-1.659 1.938-3.598 1.678zm-1.059 7.196c-1.939 0-3.338-.84-3.338-1.939 0-1.12 1.679-1.959 3.598-1.959 1.939.28 3.598 1.12 3.338 2.219 0 1.12-1.66 1.939-3.598 1.679zm-.06 7.515c-1.919 0-3.598-1.119-3.598-1.938.28-1.12 1.939-1.96 3.878-1.96 1.939.28 3.318 1.12 3.318 2.22 0 1.119-1.66 1.938-3.598 1.678zm-1.359 7.276c-1.919 0-3.598-1.06-3.318-2.139 0-.8 1.659-1.599 3.598-1.599 1.938.28 3.318 1.08 3.318 2.139 0 1.06-1.66 1.859-3.598 1.599zm-1.1 8.215c-1.918-.28-3.298-1.42-3.298-2.558.28-1.14 1.92-1.72 3.838-1.42 1.919.28 3.278 1.42 3.018 2.559 0 1.14-1.639 1.699-3.558 1.419zm-81.81-75.674c-1.959 0-3.638-.56-3.918-1.69 0-1.128 1.68-2.258 3.358-2.258 1.96-.29 3.638.56 3.918 1.69 0 .849-1.4 1.978-3.358 2.258zm.85 7.116c-1.98 0-3.678-.55-3.678-1.66-.29-1.109 1.409-2.218 3.388-2.218 1.988-.28 3.677.56 3.677 1.669 0 1.11-1.409 1.939-3.387 2.209zm.569 6.916c-1.949.28-3.618-.57-3.618-1.43-.28-1.14 1.4-2.278 3.348-2.558 1.67-.29 3.618.28 3.618 1.419.27 1.14-1.399 2.279-3.348 2.568zm1.939 6.535c-1.939.54-3.598 0-3.878-1.089-.28-1.09 1.11-2.189 3.049-2.728 1.659-.28 3.597 0 3.597 1.089.27 1.09-1.109 2.179-2.768 2.728zm1.399 6.586c-1.659.27-3.598 0-3.877-1.089 0-1.09 1.109-2.179 3.048-2.728 1.938-.55 3.597 0 3.877 1.089.27 1.09-1.109 2.189-3.048 2.728zm1 6.926c-1.64.54-3.558 0-3.558-1.09-.28-1.089 1.089-2.188 3.008-2.458 1.639-.55 3.558 0 3.558 1.09.27 1.089-1.09 2.188-3.008 2.458zm1.689 7.216c-1.9.28-3.538-.28-3.808-1.4-.28-1.119 1.09-2.238 2.998-2.518 1.899-.28 3.538.28 3.808 1.4.27.839-1.09 2.238-2.998 2.518zm1.129 7.685c-1.949.27-3.618-.27-3.898-1.349-.28-.81 1.12-1.889 3.068-2.429 1.95-.27 3.618.27 3.898 1.35.27 1.079-1.12 2.158-3.068 2.428zm1.449 7.036c-1.909.27-3.558 0-3.828-1.11-.28-1.109 1.09-2.218 3.008-2.778 1.64-.56 3.558 0 3.828 1.11 0 1.109-1.09 2.218-3.008 2.778zm1.859 6.526c-1.909.54-3.548.27-4.088-.82-.28-1.089 1.09-2.178 2.998-2.728 1.63-.55 3.538-.27 3.808.82.27 1.089-1.09 2.178-2.718 2.728zm1.929 6.626c-1.95.55-3.618 0-4.178-.82-.28-1.109 1.12-2.478 3.068-3.028 1.67-.56 3.618 0 3.898.82.27 1.1-1.12 2.478-2.788 3.028zm1.699 7.026c-1.94.56-3.598.28-3.878-.85-.28-.84.83-2.258 2.768-2.818 1.94-.57 3.598-.28 3.878.85.27 1.129-.83 2.258-2.768 2.818z" fill="#85aaca" fill-rule="evenodd"/><path d="M127.003 228.382c0-2.419 1.999-4.398 4.437-4.398 2.459 0 4.438 1.98 4.438 4.398 0 2.438-1.98 4.397-4.438 4.397-2.438 0-4.437-1.959-4.437-4.397z" fill="#e0db95" fill-rule="evenodd"/><path d="M39.056 203.916c0-1.898 1.58-3.438 3.518-3.438 1.959 0 3.518 1.54 3.518 3.438 0 1.9-1.559 3.438-3.518 3.438-1.939 0-3.518-1.539-3.518-3.438zm3.678 17.39c0-1.919 1.54-3.478 3.438-3.478 1.899 0 3.438 1.559 3.438 3.478 0 1.939-1.54 3.478-3.438 3.478-1.899 0-3.438-1.54-3.438-3.478zm50.13-7.996c0-1.918 1.579-3.477 3.518-3.477 1.958 0 3.517 1.559 3.517 3.478 0 1.939-1.559 3.478-3.517 3.478-1.94 0-3.518-1.54-3.518-3.478z" fill="#85aaca" fill-rule="evenodd"/><path d="M94.223 212.431c0-.68.64-1.239 1.399-1.239.78 0 1.4.56 1.4 1.24 0 .699-.62 1.239-1.4 1.239-.76 0-1.4-.54-1.4-1.24z" fill="#fff" fill-rule="evenodd"/><path d="M140.355 203.077c0-1.859 1.539-3.398 3.438-3.398 1.899 0 3.438 1.54 3.438 3.398 0 1.879-1.54 3.398-3.438 3.398-1.899 0-3.438-1.52-3.438-3.398zm-17.989 51.649c0-1.86 1.539-3.398 3.438-3.398 1.899 0 3.438 1.539 3.438 3.398 0 1.878-1.54 3.398-3.438 3.398-1.9 0-3.438-1.52-3.438-3.398zm-5.676 18.828c0-1.899 1.578-3.438 3.517-3.438 1.959 0 3.518 1.54 3.518 3.438 0 1.9-1.559 3.438-3.518 3.438-1.939 0-3.518-1.539-3.518-3.438zm-4.158 19.069c0-1.92 1.579-3.478 3.518-3.478 1.958 0 3.518 1.559 3.518 3.478 0 1.938-1.56 3.478-3.518 3.478-1.94 0-3.518-1.54-3.518-3.478zm-2.479 18.229c0-1.86 1.56-3.398 3.478-3.398 1.939 0 3.478 1.539 3.478 3.398 0 1.878-1.539 3.398-3.478 3.398-1.919 0-3.478-1.52-3.478-3.398zm-1.839 43.054c0-1.94 1.54-3.518 3.398-3.518 1.88 0 3.398 1.579 3.398 3.518 0 1.958-1.519 3.517-3.398 3.517-1.859 0-3.398-1.559-3.398-3.517zm-2.478 19.907c0-1.898 1.539-3.437 3.398-3.437 1.879 0 3.398 1.539 3.398 3.437 0 1.9-1.52 3.438-3.398 3.438-1.859 0-3.398-1.539-3.398-3.438zm2.958 17.39c0-1.919 1.58-3.478 3.518-3.478 1.959 0 3.518 1.56 3.518 3.478 0 1.939-1.56 3.478-3.518 3.478-1.939 0-3.518-1.54-3.518-3.478zm11.193 13.272c0-1.859 1.54-3.398 3.398-3.398a3.408 3.408 0 0 1 3.398 3.398 3.395 3.395 0 0 1-3.398 3.398 3.408 3.408 0 0 1-3.398-3.398zm16.31 4.637c0-1.859 1.54-3.398 3.398-3.398a3.408 3.408 0 0 1 3.398 3.398 3.395 3.395 0 0 1-3.398 3.398 3.408 3.408 0 0 1-3.398-3.398zM88.706 229.58c0-1.898 1.58-3.437 3.518-3.437 1.959 0 3.518 1.539 3.518 3.438 0 1.899-1.56 3.438-3.518 3.438-1.939 0-3.518-1.54-3.518-3.438zm-44.933 9.995c0-1.899 1.56-3.438 3.478-3.438 1.94 0 3.478 1.539 3.478 3.438 0 1.899-1.539 3.438-3.478 3.438-1.918 0-3.478-1.54-3.478-3.438zm-1.359 17.149c0-1.858 1.58-3.398 3.518-3.398 1.959 0 3.518 1.54 3.518 3.398 0 1.88-1.559 3.398-3.518 3.398-1.939 0-3.518-1.519-3.518-3.398zm-.799 14.552a3.48 3.48 0 0 1 3.478-3.478 3.468 3.468 0 0 1 3.478 3.478 3.455 3.455 0 0 1-3.478 3.477 3.468 3.468 0 0 1-3.478-3.477zm-4.557 37.097c0-1.859 1.579-3.398 3.517-3.398 1.96 0 3.518 1.54 3.518 3.398 0 1.879-1.559 3.398-3.518 3.398-1.938 0-3.517-1.519-3.517-3.398zm-.8 17.39a3.523 3.523 0 0 1 3.518-3.518 3.51 3.51 0 0 1 3.518 3.518 3.498 3.498 0 0 1-3.518 3.517 3.51 3.51 0 0 1-3.518-3.517zm-1.838 17.069c0-1.859 1.538-3.398 3.437-3.398 1.899 0 3.438 1.54 3.438 3.398 0 1.88-1.54 3.398-3.438 3.398-1.899 0-3.438-1.519-3.438-3.398zm-1.12 17.15c0-1.899 1.559-3.438 3.478-3.438 1.939 0 3.478 1.539 3.478 3.438 0 1.899-1.54 3.438-3.478 3.438-1.92 0-3.478-1.54-3.478-3.438zm0 14.351c0-1.859 1.559-3.398 3.478-3.398 1.939 0 3.478 1.54 3.478 3.398 0 1.879-1.54 3.398-3.478 3.398-1.92 0-3.478-1.519-3.478-3.398zm-2.878 43.694a3.523 3.523 0 0 1 3.517-3.518 3.51 3.51 0 0 1 3.518 3.518 3.498 3.498 0 0 1-3.518 3.518 3.51 3.51 0 0 1-3.517-3.518zm-.48 16.27c0-1.86 1.559-3.398 3.478-3.398 1.939 0 3.478 1.539 3.478 3.398 0 1.879-1.54 3.398-3.478 3.398-1.92 0-3.478-1.52-3.478-3.398zm.32 18.469c0-1.86 1.539-3.398 3.398-3.398a3.408 3.408 0 0 1 3.398 3.398 3.395 3.395 0 0 1-3.398 3.398 3.408 3.408 0 0 1-3.398-3.398zm27.183.839c0-1.899 1.56-3.438 3.478-3.438 1.939 0 3.478 1.54 3.478 3.438 0 1.899-1.54 3.438-3.478 3.438-1.919 0-3.478-1.54-3.478-3.438zm39.096-12.312c0-1.98 1.54-3.598 3.438-3.598 1.9 0 3.438 1.619 3.438 3.598 0 1.998-1.539 3.597-3.438 3.597-1.898 0-3.438-1.599-3.438-3.597zm14.712-.12a3.48 3.48 0 0 1 3.477-3.478 3.468 3.468 0 0 1 3.478 3.478 3.455 3.455 0 0 1-3.478 3.478 3.468 3.468 0 0 1-3.477-3.478zm-17.83 17.429c0-1.859 1.56-3.398 3.478-3.398 1.94 0 3.478 1.54 3.478 3.398 0 1.879-1.539 3.398-3.478 3.398-1.919 0-3.478-1.52-3.478-3.398zm1.12 18.229c0-1.919 1.579-3.478 3.518-3.478 1.958 0 3.517 1.56 3.517 3.478 0 1.939-1.559 3.478-3.517 3.478-1.94 0-3.518-1.54-3.518-3.478zM99.9 494.26c0-1.858 1.598-3.397 3.557-3.397 1.98 0 3.558 1.539 3.558 3.397 0 1.88-1.579 3.398-3.558 3.398-1.959 0-3.558-1.519-3.558-3.398zm15.83 8.156c0-1.96 1.539-3.558 3.398-3.558 1.879 0 3.398 1.599 3.398 3.558 0 1.978-1.52 3.557-3.398 3.557-1.86 0-3.398-1.579-3.398-3.557zm8.315-16.99c0-1.899 1.539-3.438 3.398-3.438 1.879 0 3.398 1.539 3.398 3.438 0 1.899-1.52 3.438-3.398 3.438-1.86 0-3.398-1.54-3.398-3.438zm-1.519-15.751a3.523 3.523 0 0 1 3.518-3.518 3.51 3.51 0 0 1 3.517 3.518 3.498 3.498 0 0 1-3.517 3.518 3.51 3.51 0 0 1-3.518-3.518zm-3.518-14.431c0-1.859 1.539-3.398 3.438-3.398 1.899 0 3.438 1.54 3.438 3.398 0 1.879-1.54 3.398-3.438 3.398-1.9 0-3.438-1.519-3.438-3.398zm-83.23 47.571a3.48 3.48 0 0 1 3.478-3.478 3.468 3.468 0 0 1 3.478 3.478 3.455 3.455 0 0 1-3.478 3.478 3.468 3.468 0 0 1-3.478-3.478zm21.667-66.519c0-1.86 1.56-3.398 3.478-3.398 1.939 0 3.478 1.539 3.478 3.398 0 1.878-1.54 3.398-3.478 3.398-1.919 0-3.478-1.52-3.478-3.398zm3.278-54.727a3.523 3.523 0 0 1 3.518-3.518 3.51 3.51 0 0 1 3.518 3.518 3.498 3.498 0 0 1-3.518 3.518 3.51 3.51 0 0 1-3.518-3.518zm.32-15.231c0-1.859 1.54-3.398 3.438-3.398 1.899 0 3.438 1.54 3.438 3.398 0 1.879-1.54 3.398-3.438 3.398-1.899 0-3.438-1.52-3.438-3.398zm7.675-54.168c0-1.898 1.58-3.437 3.518-3.437 1.959 0 3.518 1.539 3.518 3.438 0 1.899-1.559 3.438-3.518 3.438-1.939 0-3.518-1.54-3.518-3.438zm3.998-17.629c0-1.858 1.539-3.397 3.438-3.397 1.899 0 3.438 1.539 3.438 3.397 0 1.88-1.54 3.398-3.438 3.398-1.899 0-3.438-1.519-3.438-3.398zm2.718-15.75a3.48 3.48 0 0 1 3.478-3.478 3.468 3.468 0 0 1 3.478 3.478 3.455 3.455 0 0 1-3.478 3.478 3.468 3.468 0 0 1-3.478-3.478zM57.445 473.513c0-1.939 1.56-3.518 3.478-3.518 1.939 0 3.478 1.58 3.478 3.518 0 1.959-1.54 3.518-3.478 3.518-1.919 0-3.478-1.56-3.478-3.518zm0 23.466a3.48 3.48 0 0 1 3.478-3.478 3.468 3.468 0 0 1 3.478 3.478 3.455 3.455 0 0 1-3.478 3.478 3.468 3.468 0 0 1-3.478-3.478zm-8.875 17.989c0-1.919 1.54-3.478 3.438-3.478 1.9 0 3.438 1.56 3.438 3.478 0 1.939-1.539 3.478-3.438 3.478-1.898 0-3.437-1.54-3.437-3.478z" fill="#85aaca" fill-rule="evenodd"/><path d="M90.385 228.741c0-.68.56-1.239 1.24-1.239.699 0 1.239.56 1.239 1.24a1.22 1.22 0 0 1-1.24 1.239c-.68 0-1.239-.54-1.239-1.24zm-13.352 49.131c0-.7.58-1.28 1.28-1.28.72 0 1.279.58 1.279 1.28 0 .72-.56 1.279-1.28 1.279-.699 0-1.279-.56-1.279-1.28zm-33.739-7.236c0-.72.64-1.32 1.399-1.32.78 0 1.4.6 1.4 1.32 0 .74-.62 1.32-1.4 1.32-.76 0-1.4-.58-1.4-1.32zm.479-14.231c0-.68.56-1.24 1.24-1.24.7 0 1.239.56 1.239 1.24 0 .7-.54 1.239-1.24 1.239-.679 0-1.239-.54-1.239-1.24zm1.52-17.27c0-.72.56-1.32 1.239-1.32.7 0 1.239.6 1.239 1.32 0 .74-.54 1.32-1.24 1.32-.679 0-1.238-.58-1.238-1.32zm-1.2-18.229c0-.76.64-1.399 1.4-1.399.779 0 1.399.64 1.399 1.4a1.39 1.39 0 0 1-1.4 1.398c-.76 0-1.399-.62-1.399-1.399zm-3.358-17.509c0-.68.58-1.24 1.28-1.24.72 0 1.279.56 1.279 1.24 0 .7-.56 1.239-1.28 1.239-.699 0-1.279-.54-1.279-1.24zm-2.158 104.297c0-.78.62-1.44 1.359-1.44.76 0 1.359.66 1.359 1.44 0 .799-.6 1.439-1.36 1.439-.739 0-1.358-.64-1.358-1.44zm35.498-13.672c0-.7.64-1.28 1.4-1.28.779 0 1.398.58 1.398 1.28 0 .72-.62 1.279-1.399 1.279-.76 0-1.399-.56-1.399-1.28zm-3.838 17.509c0-.78.56-1.439 1.24-1.439.7 0 1.239.66 1.239 1.44 0 .799-.54 1.438-1.24 1.438-.679 0-1.239-.64-1.239-1.439zm41.335-1.519c0-.7.6-1.28 1.32-1.28.74 0 1.319.58 1.319 1.28 0 .72-.58 1.28-1.32 1.28-.719 0-1.319-.56-1.319-1.28zm2.478-17.989c0-.7.6-1.28 1.32-1.28.74 0 1.32.58 1.32 1.28 0 .72-.58 1.28-1.32 1.28-.72 0-1.32-.56-1.32-1.28zm-76.273 33.14c0-.68.6-1.24 1.32-1.24.739 0 1.319.56 1.319 1.24 0 .7-.58 1.24-1.32 1.24-.72 0-1.319-.54-1.319-1.24zm-1.679 17.19c0-.68.56-1.24 1.24-1.24.699 0 1.239.56 1.239 1.24 0 .7-.54 1.239-1.24 1.239-.68 0-1.239-.54-1.239-1.24zm-1.199 17.109c0-.68.58-1.24 1.28-1.24.719 0 1.278.56 1.278 1.24 0 .7-.56 1.24-1.279 1.24-.7 0-1.28-.54-1.28-1.24zm.4 14.192c0-.78.56-1.44 1.239-1.44.7 0 1.24.66 1.24 1.44 0 .8-.54 1.439-1.24 1.439-.68 0-1.24-.64-1.24-1.44zm27.103-7.836c0-.7.66-1.279 1.44-1.279.799 0 1.438.58 1.438 1.28 0 .719-.64 1.279-1.439 1.279-.78 0-1.439-.56-1.439-1.28zm0 15.152c0-.68.56-1.24 1.24-1.24.699 0 1.239.56 1.239 1.24a1.22 1.22 0 0 1-1.24 1.238c-.68 0-1.239-.54-1.239-1.239zm47.491-27.824c0-.68.56-1.24 1.24-1.24.7 0 1.239.56 1.239 1.24 0 .7-.54 1.24-1.24 1.24-.679 0-1.239-.54-1.239-1.24zm-2.478 19.508c0-.68.6-1.24 1.32-1.24.739 0 1.318.56 1.318 1.24 0 .7-.58 1.24-1.319 1.24-.72 0-1.32-.54-1.32-1.24zm3.278 17.989c0-.68.58-1.239 1.28-1.239.719 0 1.278.56 1.278 1.24 0 .699-.56 1.238-1.279 1.238-.7 0-1.28-.54-1.28-1.239zm11.033 12.992c0-.7.64-1.279 1.4-1.279.779 0 1.399.58 1.399 1.28 0 .719-.62 1.279-1.4 1.279-.76 0-1.399-.56-1.399-1.28zm15.831 4.997c0-.68.64-1.239 1.399-1.239.78 0 1.399.56 1.399 1.24 0 .699-.62 1.239-1.4 1.239-.759 0-1.398-.54-1.398-1.24zM97.9 440.933c0-.68.64-1.24 1.4-1.24.78 0 1.399.56 1.399 1.24 0 .7-.62 1.239-1.4 1.239-.759 0-1.398-.54-1.398-1.24zm-39.176-5.317c0-.7.58-1.28 1.28-1.28.72 0 1.279.58 1.279 1.28 0 .72-.56 1.28-1.28 1.28-.699 0-1.279-.56-1.279-1.28zm0 17.469c0-.68.58-1.239 1.28-1.239.72 0 1.279.56 1.279 1.24 0 .699-.56 1.239-1.28 1.239-.699 0-1.279-.54-1.279-1.24zm36.139 4.837c0-.78.58-1.439 1.279-1.439.72 0 1.279.66 1.279 1.44 0 .799-.56 1.439-1.28 1.439-.699 0-1.278-.64-1.278-1.44zm17.669-16.989c0-.68.66-1.24 1.439-1.24.8 0 1.439.56 1.439 1.24 0 .7-.64 1.239-1.44 1.239-.779 0-1.438-.54-1.438-1.24zm8.155 13.352c0-.68.58-1.24 1.28-1.24.719 0 1.278.56 1.278 1.24 0 .7-.56 1.239-1.279 1.239-.7 0-1.28-.54-1.28-1.24zm3.358 14.471c0-.68.6-1.24 1.319-1.24.74 0 1.32.56 1.32 1.24 0 .7-.58 1.24-1.32 1.24-.72 0-1.32-.54-1.32-1.24zm-28.143 7.156c0-.78.56-1.44 1.24-1.44.699 0 1.238.66 1.238 1.44 0 .8-.54 1.439-1.239 1.439-.68 0-1.24-.64-1.24-1.44zm5.357 17.469c0-.68.64-1.24 1.399-1.24.78 0 1.399.56 1.399 1.24 0 .7-.62 1.24-1.4 1.24-.759 0-1.398-.54-1.398-1.24zm15.431 8.515c0-.7.659-1.28 1.438-1.28.8 0 1.44.58 1.44 1.28 0 .72-.64 1.279-1.44 1.279-.78 0-1.439-.56-1.439-1.28zm8.714-16.83c0-.68.64-1.24 1.4-1.24.779 0 1.398.56 1.398 1.24 0 .7-.62 1.24-1.399 1.24-.76 0-1.399-.54-1.399-1.24zm-66.839-12.153c0-.68.56-1.239 1.239-1.239.7 0 1.239.56 1.239 1.24a1.22 1.22 0 0 1-1.24 1.239c-.679 0-1.238-.54-1.238-1.24zm.479 23.427c0-.72.58-1.32 1.28-1.32.719 0 1.279.6 1.279 1.32 0 .739-.56 1.318-1.28 1.318-.7 0-1.279-.58-1.279-1.319zm-21.986 5.556c0-.7.58-1.28 1.279-1.28.72 0 1.279.58 1.279 1.28 0 .72-.56 1.279-1.28 1.279-.699 0-1.278-.56-1.278-1.28zm12.872 12.192c0-.68.64-1.239 1.399-1.239.78 0 1.399.56 1.399 1.24 0 .699-.62 1.239-1.4 1.239-.759 0-1.398-.54-1.398-1.24zm-18.31-62.162c0-.7.64-1.28 1.4-1.28.78 0 1.4.58 1.4 1.28 0 .72-.62 1.28-1.4 1.28-.76 0-1.4-.56-1.4-1.28zm0-18.589c0-.72.56-1.319 1.24-1.319.7 0 1.24.6 1.24 1.32 0 .739-.54 1.319-1.24 1.319-.68 0-1.24-.58-1.24-1.32zm.8-16.31c0-.72.56-1.319 1.24-1.319.7 0 1.239.6 1.239 1.32 0 .739-.54 1.318-1.24 1.318-.679 0-1.239-.58-1.239-1.319zm109.294-214.75c0-.68.56-1.239 1.24-1.239.699 0 1.239.56 1.239 1.24a1.22 1.22 0 0 1-1.24 1.239c-.68 0-1.239-.54-1.239-1.24zm-17.669 51.969c0-.68.56-1.24 1.24-1.24.699 0 1.238.56 1.238 1.24 0 .7-.54 1.24-1.239 1.24-.68 0-1.24-.54-1.24-1.24zm-5.357 18.469c0-.68.58-1.24 1.28-1.24.719 0 1.279.56 1.279 1.24 0 .7-.56 1.239-1.28 1.239-.7 0-1.279-.54-1.279-1.24z" fill="#fff" fill-rule="evenodd"/><path d="M27.144 285.827c-2.24 20.108 20.007 9.634 21.407 2.198 1.379-7.715-19.469-22.066-21.407-2.198" fill="none" stroke="#1a171b" stroke-width=".64" stroke-linecap="round" stroke-linejoin="round"/><path d="M31.94 287.226c0-2.239 1.88-4.078 4.158-4.078 2.299 0 4.158 1.84 4.158 4.078 0 2.259-1.86 4.077-4.158 4.077-2.278 0-4.157-1.818-4.157-4.077m52.288-34.019c0-2.439 2.059-4.438 4.597-4.438 2.539 0 4.597 1.999 4.597 4.438 0 2.458-2.058 4.437-4.597 4.437-2.538 0-4.597-1.979-4.597-4.437M71.537 410.95c.54-20.267-18.57-9.713-19.409-1.938-.84 7.775 18.849 22.207 19.409 1.939" fill="none" stroke="#1a171b" stroke-width=".64" stroke-linecap="round" stroke-linejoin="round"/><path d="M66.62 409.872c.26 2.178-1.4 4.377-3.918 4.377-2.219.26-4.177-1.38-4.457-3.838 0-2.178 1.679-4.097 3.917-4.377 2.219 0 4.178 1.659 4.458 3.838m7.495-74.895c.28 2.478-1.679 4.397-4.197 4.677-2.519.26-4.757-1.659-5.037-4.137 0-2.479 1.679-4.678 4.197-4.678 2.519-.28 4.757 1.66 5.037 4.138m-52.428 55.027c-2.219 20.187 21.327 10.513 22.706 2.758 1.38-7.476-20.767-22.706-22.706-2.758" fill="none" stroke="#1a171b" stroke-width=".64" stroke-linecap="round" stroke-linejoin="round"/><path d="M26.424 391.403c0-2.279 1.839-4.158 4.078-4.158 2.258 0 4.077 1.88 4.077 4.158 0 2.298-1.819 4.157-4.077 4.157-2.24 0-4.078-1.859-4.078-4.157m72.596-63.802c0-20.147 22.406-8.275 22.966-.54.54 7.716-22.966 20.688-22.966.54" fill="none" stroke="#1a171b" stroke-width=".64" stroke-linecap="round" stroke-linejoin="round"/><path d="M106.495 327.262c-.28 2.198 1.38 4.117 3.578 4.397 2.479.26 4.398-1.38 4.677-3.578.26-2.478-1.379-4.397-3.857-4.677-2.199-.28-4.118 1.38-4.398 3.858M26.424 480.589c0-2.619 2.099-4.757 4.677-4.757 2.599 0 4.677 2.138 4.677 4.757 0 2.638-2.078 4.757-4.677 4.757-2.578 0-4.677-2.119-4.677-4.757" fill="none" stroke="#1a171b" stroke-width=".64" stroke-linecap="round" stroke-linejoin="round"/><path d="M22.486 482.747c3.878 19.868 23.286 0 21.627-6.895-1.379-6.896-25.524-12.973-21.627 6.895m34.959-148.05c-.56 7.476 17.47 19.368 21.067 2.778 3.878-16.35-17.19-14.95-21.067-2.778M3.958 39.336c0-1.959.86-3.558 1.918-3.558 1.07 0 1.92 1.6 1.92 3.558 0 1.969-.85 3.558-1.92 3.558-1.059 0-1.918-1.589-1.918-3.558m9.934 2.279c-.55 1.619-1.64 2.958-2.729 2.698-1.09-.27-1.369-1.889-.82-3.778.27-1.888 1.64-3.238 2.73-2.968.819.27 1.358 2.159.819 4.048m6.096 3.668c-1.09 1.659-2.718 2.488-3.538 1.938-.82-.55-.82-2.488.27-4.147 1.09-1.66 2.718-2.499 3.538-1.939.81.55.81 2.489-.27 4.148m3.358 5.187c-1.67.819-3.598.819-3.878 0-.56-1.09.55-2.46 2.209-3.279 1.669-1.099 3.328-.82 3.878 0 .55 1.09-.55 2.459-2.21 3.278m-.039 6.866c-1.919.27-3.558-.27-3.838-1.349 0-1.08 1.37-2.159 3.288-2.428 1.919-.27 3.558.54 3.558 1.619.27 1.079-1.09 1.888-3.008 2.158m.61 6.316c-1.98.27-3.678-.54-3.678-1.619-.29-.81 1.409-1.888 3.108-2.158 1.979-.27 3.678.27 3.957 1.349 0 1.08-1.409 2.159-3.387 2.428m.019 6.427c-1.978 0-3.667-.82-3.667-1.92 0-1.089 1.409-1.918 3.378-1.918 1.978 0 3.657.83 3.657 1.919 0 1.099-1.399 1.919-3.368 1.919m-.859 6.526c-1.919-.27-3.288-1.35-3.288-2.429.28-.81 1.919-1.619 3.838-1.35 1.919.27 3.278 1.35 3.008 2.43 0 1.079-1.64 1.618-3.558 1.349m-.32 7.515c-1.919-.27-3.288-1.35-3.288-2.429.28-1.079 1.919-1.619 3.838-1.349s3.278 1.35 3.008 2.159c0 1.08-1.639 1.889-3.558 1.619m-.839 7.196c-1.94-.27-3.328-1.35-3.328-2.429.28-1.08 1.939-1.619 3.877-1.35 1.94.27 3.318 1.35 3.318 2.43-.27 1.079-1.928 1.618-3.867 1.349m-1.09 6.945c-1.958-.28-3.358-1.399-3.078-2.518 0-.84 1.68-1.679 3.638-1.4 1.959.28 3.358 1.12 3.358 2.24-.28 1.119-1.959 1.958-3.918 1.678m.28 6.996c-1.959 0-3.638-1.14-3.638-1.999 0-1.139 1.68-1.998 3.638-1.998 1.959 0 3.638.86 3.638 1.998 0 1.15-1.679 2-3.638 2m0 6.475c-1.959 0-3.358-.82-3.638-1.919 0-1.089 1.68-1.918 3.638-1.918 1.959 0 3.638.83 3.638 1.918 0 1.1-1.679 1.92-3.638 1.92m94.283-25.125c-1.939-.28-3.338-1.36-3.338-2.439.28-1.08 1.939-1.619 3.878-1.34 1.939.54 3.318 1.62 3.058 2.42 0 1.079-1.939 1.618-3.598 1.359m-1.14 7.195c-1.978-.54-3.397-1.619-3.097-2.698.28-.82 1.978-1.36 3.957-1.08 1.7.26 3.098 1.34 3.098 2.419-.28 1.08-1.978 1.619-3.957 1.36m4.117-21.828c-1.959-.28-3.358-1.359-3.078-2.438.28-1.08 1.959-1.62 3.898-1.34 1.959.26 3.338 1.34 3.078 2.42-.28 1.079-1.959 1.618-3.898 1.358m1.679-7.116c-1.959-.559-3.358-1.678-3.078-2.778.28-1.119 1.959-1.679 3.898-1.119 1.959.28 3.338 1.4 3.078 2.499-.28 1.119-1.959 1.659-3.898 1.399m2.239-6.996c-1.66-.82-3.038-2.199-2.479-3.038.28-1.1 1.92-1.38 3.858-.82 1.919.82 3.018 1.92 2.758 3.038-.56 1.1-2.218 1.36-4.137.82m2.858-6.776c-1.939-.84-2.778-2.259-2.498-3.378.56-.84 2.498-1.14 4.157-.28 1.66.84 2.758 2.539 2.219 3.378-.56 1.12-2.219 1.12-3.878.28m3.058-6.696c-1.639-1.12-2.478-2.778-1.639-3.618.54-.84 2.179-.84 3.818.28 1.639 1.12 2.458 2.778 1.639 3.618-.54 1.1-2.179.84-3.818-.28m3.758-6.616c-1.12-1.639-1.12-3.278-.28-4.077.84-.56 2.499.26 3.618 1.898 1.12 1.36 1.38 3.258.56 3.798-1.12.54-2.779-.26-3.898-1.619m5.117-6.057c-.56-1.938-.28-3.577.54-3.857 1.079-.56 2.438.56 2.978 2.479.8 1.918.54 3.577-.54 3.857-.82.54-2.179-.56-2.978-2.478m5.696-3.918c-.58-1.939 0-3.618 1.12-3.897.86-.28 2.258 1.119 2.538 3.078.56 1.659 0 3.617-.84 3.897-1.139.26-2.538-1.119-2.818-3.078m6.457-3.618c0-1.918.82-3.597 1.878-3.597.82 0 1.88 1.679 1.88 3.597 0 1.94-.8 3.338-1.88 3.598-1.059 0-1.878-1.659-1.878-3.598m-32.2 54.827c-1.92 0-3.299-1.12-3.299-2.219.28-1.119 1.919-1.679 3.838-1.679 1.919.28 3.278 1.4 3.018 2.499 0 1.12-1.64 1.659-3.558 1.4m-3.778 21.986c-1.958-.28-3.358-1.66-3.078-2.479.28-1.099 1.959-1.659 3.898-1.379 1.959.28 3.338 1.38 3.078 2.479-.28 1.099-1.959 1.639-3.898 1.379m-.399 6.936c-1.94-.28-3.598-1.4-3.318-2.519.28-.84 1.938-1.679 3.857-1.399 1.66.28 3.298 1.4 3.038 2.518 0 1.12-1.938 1.68-3.577 1.4m-1.04 7.475c-1.919-.26-3.598-1.1-3.598-2.199.28-1.119 1.68-1.958 3.598-1.679 1.94 0 3.598.84 3.598 1.94-.26 1.119-1.659 1.938-3.598 1.938m-1.099 7.176c-1.919 0-3.298-1.12-3.298-2.219 0-1.12 1.659-1.679 3.558-1.679 1.919.28 3.558 1.12 3.298 2.219 0 1.119-1.64 1.939-3.558 1.679m-.84 6.876c-1.938 0-3.338-1.12-3.338-2.22.28-1.118 1.94-1.678 3.598-1.678 1.94.28 3.598 1.4 3.338 2.498 0 .84-1.659 1.66-3.598 1.4m-.839 6.895c-1.919-.26-3.298-1.099-3.298-2.198.28-1.12 1.919-1.96 3.838-1.68 1.918 0 3.278 1.12 3.278 2.22-.26 1.119-1.9 1.658-3.818 1.658m-.34 6.936c-1.979 0-3.678-1.12-3.378-2.219 0-1.119 1.7-1.678 3.678-1.678 1.979.28 3.378 1.119 3.378 2.218-.28 1.12-1.68 1.939-3.678 1.68m-.799 7.215c-1.98-.26-3.678-1.38-3.378-2.479 0-.84 1.699-1.679 3.677-1.399 1.98 0 3.378 1.12 3.378 2.219 0 1.12-1.679 1.659-3.677 1.659m-.56 6.916c-1.919-.28-3.278-1.12-3.278-2.24 0-1.118 1.639-1.958 3.538-1.678 1.899 0 3.258 1.12 3.258 2.239 0 1.119-1.62 1.958-3.518 1.679m-.56 7.135c-1.959 0-3.358-1.12-3.358-2.218 0-.84 1.68-1.68 3.618-1.68 1.959.28 3.338 1.12 3.338 2.22 0 1.119-1.659 1.938-3.598 1.678m-1.059 7.196c-1.939 0-3.338-.84-3.338-1.939 0-1.12 1.679-1.959 3.598-1.959 1.939.28 3.598 1.12 3.338 2.219 0 1.12-1.66 1.939-3.598 1.679m-.06 7.515c-1.919 0-3.598-1.119-3.598-1.938.28-1.12 1.939-1.96 3.878-1.96 1.939.28 3.318 1.12 3.318 2.22 0 1.119-1.66 1.938-3.598 1.678m-1.359 7.276c-1.919 0-3.598-1.06-3.318-2.139 0-.8 1.659-1.599 3.598-1.599 1.938.28 3.318 1.08 3.318 2.139 0 1.06-1.66 1.859-3.598 1.599m-1.1 8.215c-1.918-.28-3.298-1.42-3.298-2.558.28-1.14 1.92-1.72 3.838-1.42 1.919.28 3.278 1.42 3.018 2.559 0 1.14-1.639 1.699-3.558 1.419m-81.81-75.674c-1.959 0-3.638-.56-3.918-1.69 0-1.128 1.68-2.258 3.358-2.258 1.96-.29 3.638.56 3.918 1.69 0 .849-1.4 1.978-3.358 2.258m.85 7.116c-1.98 0-3.678-.55-3.678-1.66-.29-1.109 1.409-2.218 3.388-2.218 1.988-.28 3.677.56 3.677 1.669 0 1.11-1.409 1.939-3.387 2.209m.569 6.916c-1.949.28-3.618-.57-3.618-1.43-.28-1.14 1.4-2.278 3.348-2.558 1.67-.29 3.618.28 3.618 1.419.27 1.14-1.399 2.279-3.348 2.568m1.939 6.536c-1.939.54-3.598 0-3.878-1.089-.28-1.09 1.11-2.189 3.049-2.728 1.659-.28 3.597 0 3.597 1.089.27 1.09-1.109 2.179-2.768 2.728m1.399 6.586c-1.659.27-3.598 0-3.877-1.089 0-1.09 1.109-2.179 3.048-2.728 1.938-.55 3.597 0 3.877 1.089.27 1.09-1.109 2.189-3.048 2.728m1 6.926c-1.64.54-3.558 0-3.558-1.09-.28-1.089 1.089-2.188 3.008-2.458 1.639-.55 3.558 0 3.558 1.09.27 1.089-1.09 2.188-3.008 2.458m1.689 7.216c-1.9.28-3.538-.28-3.808-1.4-.28-1.119 1.09-2.238 2.998-2.518 1.899-.28 3.538.28 3.808 1.4.27.839-1.09 2.238-2.998 2.518m1.129 7.685c-1.949.27-3.618-.27-3.898-1.349-.28-.81 1.12-1.889 3.068-2.429 1.95-.27 3.618.27 3.898 1.35.27 1.079-1.12 2.158-3.068 2.428m1.449 7.036c-1.909.27-3.558 0-3.828-1.11-.28-1.109 1.09-2.218 3.008-2.778 1.64-.56 3.558 0 3.828 1.11 0 1.109-1.09 2.218-3.008 2.778m1.859 6.526c-1.909.54-3.548.27-4.088-.82-.28-1.089 1.09-2.178 2.998-2.728 1.63-.55 3.538-.27 3.808.82.27 1.089-1.09 2.178-2.718 2.728m1.929 6.626c-1.95.55-3.618 0-4.178-.82-.28-1.109 1.12-2.478 3.068-3.028 1.67-.56 3.618 0 3.898.82.27 1.1-1.12 2.478-2.788 3.028m1.699 7.026c-1.94.56-3.598.28-3.878-.85-.28-.84.83-2.258 2.768-2.818 1.94-.57 3.598-.28 3.878.85.27 1.129-.83 2.258-2.768 2.818m36.617 52.188c-2.798 6.076 17.77 30.641 25.005 11.053 7.216-19.348-22.226-17.13-25.005-11.053m53.488-19.088c0-2.419 1.999-4.398 4.437-4.398 2.459 0 4.438 1.98 4.438 4.398 0 2.438-1.98 4.397-4.438 4.397-2.438 0-4.437-1.959-4.437-4.397" fill="none" stroke="#1a171b" stroke-width=".64" stroke-linecap="round" stroke-linejoin="round"/><path d="M143.593 234.118c2.758-6.076-13.872-27.643-21.087-8.295-7.496 19.348 18.309 14.391 21.087 8.295M39.056 203.916c0-1.898 1.58-3.438 3.518-3.438 1.959 0 3.518 1.54 3.518 3.438 0 1.9-1.559 3.438-3.518 3.438-1.939 0-3.518-1.539-3.518-3.438m3.678 17.39c0-1.919 1.54-3.478 3.438-3.478 1.899 0 3.438 1.559 3.438 3.478 0 1.939-1.54 3.478-3.438 3.478-1.899 0-3.438-1.54-3.438-3.478m50.13-7.996c0-1.918 1.579-3.477 3.518-3.477 1.958 0 3.517 1.559 3.517 3.478 0 1.939-1.559 3.478-3.517 3.478-1.94 0-3.518-1.54-3.518-3.478m47.491-10.234c0-1.859 1.539-3.398 3.438-3.398 1.899 0 3.438 1.54 3.438 3.398 0 1.879-1.54 3.398-3.438 3.398-1.899 0-3.438-1.52-3.438-3.398m-17.989 51.649c0-1.86 1.539-3.398 3.438-3.398 1.899 0 3.438 1.539 3.438 3.398 0 1.878-1.54 3.398-3.438 3.398-1.9 0-3.438-1.52-3.438-3.398m-5.676 18.828c0-1.899 1.578-3.438 3.517-3.438 1.959 0 3.518 1.54 3.518 3.438 0 1.9-1.559 3.438-3.518 3.438-1.939 0-3.518-1.539-3.518-3.438m-4.157 19.069c0-1.92 1.579-3.478 3.518-3.478 1.958 0 3.518 1.559 3.518 3.478 0 1.938-1.56 3.478-3.518 3.478-1.94 0-3.518-1.54-3.518-3.478m-2.479 18.229c0-1.86 1.56-3.398 3.478-3.398 1.939 0 3.478 1.539 3.478 3.398 0 1.878-1.539 3.398-3.478 3.398-1.919 0-3.478-1.52-3.478-3.398m-1.839 43.054c0-1.94 1.54-3.518 3.398-3.518 1.88 0 3.398 1.579 3.398 3.518 0 1.958-1.519 3.517-3.398 3.517-1.859 0-3.398-1.559-3.398-3.517m-2.478 19.907c0-1.898 1.539-3.437 3.398-3.437 1.879 0 3.398 1.539 3.398 3.437 0 1.9-1.52 3.438-3.398 3.438-1.859 0-3.398-1.539-3.398-3.438m2.958 17.39c0-1.919 1.58-3.478 3.518-3.478 1.959 0 3.518 1.56 3.518 3.478 0 1.939-1.56 3.478-3.518 3.478-1.939 0-3.518-1.54-3.518-3.478m11.193 13.272c0-1.859 1.54-3.398 3.398-3.398a3.408 3.408 0 0 1 3.398 3.398 3.395 3.395 0 0 1-3.398 3.398 3.408 3.408 0 0 1-3.398-3.398m16.31 4.637c0-1.859 1.54-3.398 3.398-3.398a3.408 3.408 0 0 1 3.398 3.398 3.395 3.395 0 0 1-3.398 3.398 3.408 3.408 0 0 1-3.398-3.398M88.706 229.58c0-1.898 1.58-3.437 3.518-3.437 1.959 0 3.518 1.539 3.518 3.438 0 1.899-1.56 3.438-3.518 3.438-1.939 0-3.518-1.54-3.518-3.438m-44.933 9.994c0-1.899 1.56-3.438 3.478-3.438 1.94 0 3.478 1.539 3.478 3.438 0 1.899-1.539 3.438-3.478 3.438-1.918 0-3.478-1.54-3.478-3.438m-1.359 17.149c0-1.858 1.58-3.398 3.518-3.398 1.959 0 3.518 1.54 3.518 3.398 0 1.88-1.559 3.398-3.518 3.398-1.939 0-3.518-1.519-3.518-3.398m-.799 14.552a3.48 3.48 0 0 1 3.478-3.478 3.468 3.468 0 0 1 3.478 3.478 3.455 3.455 0 0 1-3.478 3.477 3.468 3.468 0 0 1-3.478-3.477m-4.557 37.097c0-1.859 1.579-3.398 3.517-3.398 1.96 0 3.518 1.54 3.518 3.398 0 1.879-1.559 3.398-3.518 3.398-1.938 0-3.517-1.519-3.517-3.398m-.8 17.39a3.523 3.523 0 0 1 3.518-3.518 3.51 3.51 0 0 1 3.518 3.518 3.498 3.498 0 0 1-3.518 3.517 3.51 3.51 0 0 1-3.518-3.517m-1.838 17.069c0-1.859 1.538-3.398 3.437-3.398 1.899 0 3.438 1.54 3.438 3.398 0 1.88-1.54 3.398-3.438 3.398-1.899 0-3.438-1.519-3.438-3.398m-1.119 17.15c0-1.899 1.559-3.438 3.478-3.438 1.939 0 3.478 1.539 3.478 3.438 0 1.899-1.54 3.438-3.478 3.438-1.92 0-3.478-1.54-3.478-3.438m0 14.351c0-1.859 1.559-3.398 3.478-3.398 1.939 0 3.478 1.54 3.478 3.398 0 1.879-1.54 3.398-3.478 3.398-1.92 0-3.478-1.519-3.478-3.398m-2.878 43.694a3.523 3.523 0 0 1 3.517-3.518 3.51 3.51 0 0 1 3.518 3.518 3.498 3.498 0 0 1-3.518 3.518 3.51 3.51 0 0 1-3.517-3.518m-.48 16.27c0-1.86 1.559-3.398 3.478-3.398 1.939 0 3.478 1.539 3.478 3.398 0 1.879-1.54 3.398-3.478 3.398-1.92 0-3.478-1.52-3.478-3.398m.32 18.469c0-1.86 1.539-3.398 3.398-3.398a3.408 3.408 0 0 1 3.398 3.398 3.395 3.395 0 0 1-3.398 3.398 3.408 3.408 0 0 1-3.398-3.398m27.183.839c0-1.899 1.56-3.438 3.478-3.438 1.939 0 3.478 1.54 3.478 3.438 0 1.899-1.54 3.438-3.478 3.438-1.919 0-3.478-1.54-3.478-3.438m39.096-12.312c0-1.98 1.54-3.598 3.438-3.598 1.9 0 3.438 1.619 3.438 3.598 0 1.998-1.539 3.597-3.438 3.597-1.898 0-3.438-1.599-3.438-3.597m14.712-.12a3.48 3.48 0 0 1 3.477-3.478 3.468 3.468 0 0 1 3.478 3.478 3.455 3.455 0 0 1-3.478 3.478 3.468 3.468 0 0 1-3.477-3.478m-17.83 17.429c0-1.859 1.56-3.398 3.478-3.398 1.94 0 3.478 1.54 3.478 3.398 0 1.879-1.539 3.398-3.478 3.398-1.919 0-3.478-1.52-3.478-3.398m1.12 18.229c0-1.919 1.579-3.478 3.518-3.478 1.958 0 3.517 1.56 3.517 3.478 0 1.939-1.559 3.478-3.517 3.478-1.94 0-3.518-1.54-3.518-3.478M99.9 494.26c0-1.858 1.598-3.397 3.557-3.397 1.98 0 3.558 1.539 3.558 3.397 0 1.88-1.579 3.398-3.558 3.398-1.959 0-3.558-1.519-3.558-3.398m15.831 8.156c0-1.96 1.539-3.558 3.398-3.558 1.879 0 3.398 1.599 3.398 3.558 0 1.978-1.52 3.557-3.398 3.557-1.86 0-3.398-1.579-3.398-3.557m8.315-16.99c0-1.899 1.539-3.438 3.398-3.438 1.879 0 3.398 1.539 3.398 3.438 0 1.899-1.52 3.438-3.398 3.438-1.86 0-3.398-1.54-3.398-3.438m-1.519-15.751a3.523 3.523 0 0 1 3.518-3.518 3.51 3.51 0 0 1 3.517 3.518 3.498 3.498 0 0 1-3.517 3.518 3.51 3.51 0 0 1-3.518-3.518m-3.518-14.431c0-1.859 1.539-3.398 3.438-3.398 1.899 0 3.438 1.54 3.438 3.398 0 1.879-1.54 3.398-3.438 3.398-1.9 0-3.438-1.519-3.438-3.398m-83.23 47.571a3.48 3.48 0 0 1 3.478-3.478 3.468 3.468 0 0 1 3.478 3.478 3.455 3.455 0 0 1-3.478 3.478 3.468 3.468 0 0 1-3.478-3.478m21.667-66.519c0-1.86 1.56-3.398 3.478-3.398 1.939 0 3.478 1.539 3.478 3.398 0 1.878-1.54 3.398-3.478 3.398-1.919 0-3.478-1.52-3.478-3.398m3.278-54.727a3.523 3.523 0 0 1 3.518-3.518 3.51 3.51 0 0 1 3.518 3.518 3.498 3.498 0 0 1-3.518 3.518 3.51 3.51 0 0 1-3.518-3.518m.32-15.231c0-1.859 1.54-3.398 3.438-3.398 1.899 0 3.438 1.54 3.438 3.398 0 1.879-1.54 3.398-3.438 3.398-1.899 0-3.438-1.52-3.438-3.398m7.675-54.168c0-1.898 1.58-3.437 3.518-3.437 1.959 0 3.518 1.539 3.518 3.438 0 1.899-1.559 3.438-3.518 3.438-1.939 0-3.518-1.54-3.518-3.438m3.998-17.63c0-1.858 1.539-3.397 3.438-3.397 1.899 0 3.438 1.539 3.438 3.397 0 1.88-1.54 3.398-3.438 3.398-1.899 0-3.438-1.519-3.438-3.398m2.718-15.75a3.48 3.48 0 0 1 3.478-3.478 3.468 3.468 0 0 1 3.478 3.478 3.455 3.455 0 0 1-3.478 3.478 3.468 3.468 0 0 1-3.478-3.478M57.445 473.513c0-1.939 1.56-3.518 3.478-3.518 1.939 0 3.478 1.58 3.478 3.518 0 1.959-1.54 3.518-3.478 3.518-1.919 0-3.478-1.56-3.478-3.518m0 23.466a3.48 3.48 0 0 1 3.478-3.478 3.468 3.468 0 0 1 3.478 3.478 3.455 3.455 0 0 1-3.478 3.478 3.468 3.468 0 0 1-3.478-3.478m-8.875 17.989c0-1.919 1.54-3.478 3.438-3.478 1.9 0 3.438 1.56 3.438 3.478 0 1.939-1.539 3.478-3.438 3.478-1.898 0-3.437-1.54-3.437-3.478" fill="none" stroke="#1a171b" stroke-width=".64" stroke-linecap="round" stroke-linejoin="round"/><path d="M126.683 225.903c0-1.499 1.2-2.718 2.679-2.718 1.479 0 2.678 1.219 2.678 2.718 0 1.52-1.2 2.718-2.678 2.718-1.48 0-2.679-1.199-2.679-2.718zM83.59 250.048a2.576 2.576 0 0 1 2.558-2.558 2.563 2.563 0 0 1 2.558 2.558 2.55 2.55 0 0 1-2.558 2.559c-1.4 0-2.559-1.14-2.559-2.559zm-51.65 34.18c0-1.52 1.16-2.759 2.56-2.759 1.418 0 2.558 1.24 2.558 2.759 0 1.539-1.14 2.758-2.559 2.758-1.4 0-2.558-1.22-2.558-2.758zm-6.635 104.736c0-1.419 1.159-2.598 2.558-2.598 1.42 0 2.559 1.18 2.559 2.598 0 1.44-1.14 2.599-2.559 2.599-1.399 0-2.558-1.16-2.558-2.599zm32.46 18.589c0-1.44 1.16-2.638 2.558-2.638 1.42 0 2.559 1.199 2.559 2.638 0 1.46-1.14 2.638-2.559 2.638-1.399 0-2.558-1.179-2.558-2.638zm-31.981 69.358c0-1.52 1.2-2.758 2.639-2.758 1.459 0 2.638 1.239 2.638 2.758 0 1.539-1.18 2.758-2.638 2.758-1.44 0-2.639-1.219-2.639-2.758zm37.098-143.393c0-1.4 1.2-2.559 2.678-2.559 1.48 0 2.679 1.16 2.679 2.559 0 1.419-1.2 2.558-2.679 2.558-1.479 0-2.678-1.139-2.678-2.558zm41.974-8.115c0-1.48 1.24-2.679 2.759-2.679 1.539 0 2.758 1.2 2.758 2.679 0 1.479-1.22 2.678-2.758 2.678-1.52 0-2.759-1.2-2.759-2.678z" fill="#fff" fill-rule="evenodd"/></svg>