<svg xmlns="http://www.w3.org/2000/svg" version="1.0" viewBox="0 0 178.62 552.605"><path d="M6.036 439.054c2.319-.72 6.237 3.478 8.875 9.074 2.638 5.597 2.958 10.834.68 11.513-2 .68-5.917-3.477-8.555-9.074-2.639-5.916-2.998-10.834-1-11.513z" fill="#cde0f2" fill-rule="evenodd"/><path d="M7.356 442.212c1.319-.36 3.597 2.439 5.196 6.276 1.96 4.158 2.599 7.636 1.64 7.995-.96.32-3.239-2.438-5.197-6.596-1.96-3.837-2.639-7.315-1.64-7.675z" fill="#0082c8" fill-rule="evenodd"/><path d="M12.512 448.448c-1.319-2.798-2.638-4.877-3.997-5.956 0 1.399.68 4.237 1.999 7.036 1.359 2.798 2.998 4.877 4.317 5.916 0-1.4-.96-3.838-2.319-6.996z" fill="#006399" fill-rule="evenodd"/><path d="M146.111 448.408c-1.359-1.759 0-7.355 3.278-12.632 3.318-5.277 7.276-8.475 8.915-6.716 1.32 1.759 0 7.395-3.278 12.672-3.318 5.277-7.276 8.435-8.915 6.676z" fill="#cde0f2" fill-rule="evenodd"/><path d="M148.07 445.65c-1-.72.32-4.597 2.639-8.115 2.278-3.918 4.917-6.396 5.556-5.677.96.72-.32 4.597-2.638 8.115-2.279 3.918-4.917 6.356-5.557 5.677z" fill="#0082c8" fill-rule="evenodd"/><path d="M150.789 437.575c-1.64 2.438-2.639 5.237-2.999 6.596 1.36-.68 2.999-2.399 4.638-5.197 1.639-2.758 2.638-5.197 2.958-6.956-1.32.72-2.958 2.798-4.597 5.557z" fill="#006399" fill-rule="evenodd"/><path d="M145.432 540.752c-1-1.04-.32-4.917 1.999-8.794 2.358-3.558 5.356-5.677 6.356-4.598.96 1.04 0 5.277-2.359 8.795-1.999 3.878-4.997 5.637-5.996 4.597z" fill="#cde0f2" fill-rule="evenodd"/><path d="M146.791 538.913c-.68-.72 0-3.158 1.639-5.956 1.679-2.439 3.318-4.197 3.998-3.478.64.36-.32 2.798-1.68 5.597-1.638 2.438-3.637 4.157-3.957 3.837z" fill="#0082c8" fill-rule="evenodd"/><path d="M148.47 532.997a51.354 51.354 0 0 0-2.039 4.957c1.04-.32 2.039-1.759 3.358-3.918 1-1.759 1.68-3.557 1.999-4.637-1 .36-1.999 1.8-3.318 3.598z" fill="#006399" fill-rule="evenodd"/><path d="M11.873 13.952c0-2.439 2.638-4.558 5.956-4.558 0 0 4.597.36 10.194.36 5.277 0 10.234-.36 10.234-.36 3.318 0 5.916 2.119 5.916 4.558 0 2.118-5.596 5.596-16.15 5.596-10.194 0-16.15-3.478-16.15-5.596z" fill="#f4f3f4" fill-rule="evenodd"/><path d="M47.811 80.99c-5.956-37.896-3.638-42.094-3.638-66.679-1 2.479-6.596 5.277-16.15 5.277-9.874 0-15.47-3.158-15.79-5.636 0 24.944 1.958 29.142-3.958 67.039C2.359 119.248.68 140.675.68 180.33c0 39.616 1.679 61.043 7.595 99.3 5.916 38.256 3.958 49.81 3.958 75.434 0 2.478 5.596 5.956 15.79 5.956 10.554 0 16.15-3.478 16.15-5.956 0-25.625-2.318-37.178 3.638-75.434 5.916-38.257 8.195-59.684 8.195-99.3 0-39.656-2.279-61.083-8.195-99.34z" fill="#eaaf92" fill-rule="evenodd"/><path d="M38.177 113.651c.32 9.155-2.279 72.276-5.197 115.45-2.638 43.494-1 66.28-1 66.28 1.32-15.43 5.237-105.936 5.557-126.963zm8.835 19.029c.68 17.549.36 55.446-1.6 83.15-1.639 28.062-4.277 61.722-4.277 61.722l8.155-84.509zM18.829 87.347c-1 7.755-9.994 81.11-2 180.77-.999-19.628 0-174.094 2-180.77z" fill="#dd9879" fill-rule="evenodd"/><path d="M13.832 80.711c-2.599 8.435-11.793 80.391-10.154 111.612 1.999 31.261 9.834 88.107 10.833 103.218.96 14.711-7.195-83.91-6.236-122.486z" fill="#dd9879" fill-rule="evenodd"/><path d="M49.29 91.145c-.32-3.158-.96-6.636-1.639-10.154-5.916-37.897-3.598-42.095-3.598-66.68-1 2.479-6.596 5.277-16.15 5.277-9.874 0-15.47-3.158-15.79-5.636 0 24.944 1.958 29.142-3.958 67.039-.32 2.079-.64 4.197-1 5.956 2.32-4.557 2.999-10.154 5.957-14.75.64 1.758 1.32 3.877 1.959 5.636.32-1.4.68-3.158 1.639-4.557.68 1.039 1 2.438 1.32 3.837.319-1.04.679-4.197 1.998-4.557 1.959 0 1.639 4.557 1.639 5.956.64-3.158 1.32-6.995 2.958-9.474 1 1.44.64 3.518 1.32 5.277.639-2.798 1.958-4.917 2.957-1.4 1.32 3.878 1 .72 3.638 0 .64 2.12.96 3.878 1.96 5.597.319-1.719-.32-4.557.998-6.316 1.32 3.518 1.32 7.036 3.278 10.194.32-1.759.32-3.518 1.64-4.557 1.639 2.119.32 5.956 1.998 8.395 0-1.04.64-3.158 1.96-2.799 1.638.72.999 7.396 2.638 8.435 1.319.68.999-.72 2.278-.72zm-5.117 263.92c0-17.91-1-32.98.32-49.13-.32.36-.64.72-.96 1.039-.36-.32-.679-1.04-.999-1.759-1.639 2.479-2.958 5.637-4.277 8.435 0-1.4-1-2.798-1-4.198-.32 2.799-.999 5.957-3.278 7.356-.36-.68-1.679-1.759-2.318-2.798-.68 4.917-4.957 5.276-5.277 0-.32 1.759-1.639 3.158-2.319 4.557-2.278-1.04-2.638-6.316-2.958-9.115-.32 2.12-1.319 4.198-2.958 5.277-1-2.118-1.999-4.237-2.638-6.356-.32 2.119-.68 4.917-2.639 6.356 0-.36-.32-1.08-.68-1.439.68 11.233 0 26.704 0 41.775 0 2.478 5.637 5.956 15.831 5.956 10.554 0 16.15-3.478 16.15-5.956z" fill="#f1ecec" fill-rule="evenodd"/><path d="M5.637 205.316c-.32 29.102 8.874 84.189 9.194 96.78-1.28-12.951-6.876-35.777-10.833-83.469-3.958-47.69 3.637-113.29 8.235-131.92-1.64 14.032-6.916 81.071-6.596 118.609z" fill="#c68d72" fill-rule="evenodd"/><path d="M15.83 21.387c1 12.632 1.64 34.739-.68 47.012zm.36 297.82c.64 10.233.32 25.744-1.04 34.539z" fill="#c0b6ba" fill-rule="evenodd"/><path d="M18.189 82.07c-2.638 13.712-7.675 92.624-4.637 144.872zm5.836 225.703c-7.515-171.296-1.599-178.331-.64-205.715 0 10.554-2.598 168.178.64 205.715zM30.342 81.67c0 12.673 1.998 127.843-2 150.63zm6.596 20.708c3.557 28.463 1.639 148.55-5.237 204.356 1.319-17.55 8.475-168.178 5.237-204.356zm5.516-11.193c4.278 23.865 10.194 68.118 7.596 107.774-2.319 39.656-9.914 90.506-10.914 103.138 2-25.585 8.915-94.023 9.594-107.375.64-13.312-.999-74.395-6.276-103.537z" fill="#c68d72" fill-rule="evenodd"/><path d="M23.666 322.405c1 8.075 0 30.9-.68 35.098zm7.355-1.04c-.68 8.115-.68 35.179-.68 35.179 1.68-10.873.36-32.34.68-35.179zm6.436-2.478c-.64 9.514-1.998 29.222-1 35.178zm-17.629.639c.36 8.515 0 17.35-.36 23.346zm7.515 3.678c.36 6.316 0 21.747-.36 26.304zM21.307 28.103c0 9.114-.56 29.062-1.439 37.417zM31.7 25.545c0 11.952 2.48 23.185 0 43.493zm4.478 16.869c1.999 9.834 1.999 23.866 1.999 30.142zm3.998-8.874c1.039 11.593 1.359 31.26 3.677 45.972-1.998-7.356-2.998-23.146-3.677-32.26zm-14.152-1.6c.32 10.914 1.28 22.867.32 31.981z" fill="#c0b6ba" fill-rule="evenodd"/><path d="M23.706 140.675c0 9.834.64 42.774-1.04 63.801zm8.354 11.992c1.64 10.554 1 46.652-.36 57.166zm8.435 24.146c2.639 15.11-2.998 87.427-3.997 95.462zm-28.622-39.656c-1 9.154-4.717 45.332-2.359 59.004zm5.637 42.134c1.638 9.834 0 28.783-1 33.34zm9.793-148.869c1.72 11.273 3.039 22.146 1.36 29.502zm-4.597 13.831c1 9.834.36 17.91-.68 22.786zm9.634 277.112c2.479 5.997 1.24 28.823.96 31.98zm8.155-.32c-.64 5.277-1.679 22.867-1.319 29.183z" fill="#fff" fill-rule="evenodd"/><path d="M47.811 80.99c-5.956-37.896-3.638-42.094-3.638-66.679-1 2.479-6.596 5.277-16.15 5.277-9.874 0-15.47-3.158-15.79-5.636 0 24.944 1.958 29.142-3.958 67.039C2.359 119.248.68 140.675.68 180.33c0 39.616 1.679 61.043 7.595 99.3 5.916 38.256 3.958 49.81 3.958 75.434 0 2.478 5.596 5.956 15.79 5.956 10.554 0 16.15-3.478 16.15-5.956 0-25.625-2.318-37.178 3.638-75.434 5.916-38.257 8.195-59.684 8.195-99.3 0-39.656-2.279-61.083-8.195-99.34" fill="none" stroke="#000" stroke-width=".64" stroke-linecap="round" stroke-linejoin="round"/><path d="M11.873 13.952c0-2.439 2.638-4.558 5.956-4.558 0 0 4.597.36 10.194.36 5.277 0 10.234-.36 10.234-.36 3.318 0 5.916 2.119 5.916 4.558 0 0 0 0 0 0 0 2.118-5.596 5.596-16.15 5.596-10.194 0-16.15-3.478-16.15-5.596" fill="none" stroke="#000" stroke-width=".64" stroke-linecap="round" stroke-linejoin="round"/><path d="M165.62 13.952c0-2.439-2.639-4.558-5.917-4.558 0 0-4.277.36-9.874.36-5.277 0-10.234-.36-10.234-.36-3.318 0-5.956 2.119-5.956 4.558 0 2.118 5.637 5.596 15.83 5.596 10.554 0 16.15-3.478 16.15-5.596z" fill="#f4f3f4" fill-rule="evenodd"/><path d="M129.641 80.99c5.957-37.896 3.958-42.094 3.958-66.679.68 2.479 6.276 5.277 15.83 5.277 10.194 0 15.79-3.158 16.11-5.636 0 24.944-1.958 29.142 3.958 67.039 5.917 38.257 7.556 59.684 7.556 99.34 0 39.616-1.64 61.043-7.556 99.3-5.916 38.256-3.957 49.81-3.957 75.434 0 2.478-5.597 5.956-16.11 5.956-10.234 0-15.831-3.478-15.831-5.956 0-25.625 2.319-37.178-3.958-75.434-5.916-38.257-8.235-59.684-8.235-99.3 0-39.656 2.319-61.083 8.235-99.34z" fill="#eaaf92" fill-rule="evenodd"/><path d="M161.302 114.05c.32 9.155-1.959 72.277-4.917 115.45-2.998 43.495-1 66.28-1 66.28 1.32-15.43 5.278-105.935 5.597-126.962zm8.835 18.95c.68 17.549.32 55.486-1.28 83.189a95031.318 95031.318 0 0 0-4.277 61.763l8.155-84.55zm-28.183-45.333c-1 7.755-9.994 81.11-1.639 180.77-1-19.628 0-174.094 1.639-180.77z" fill="#dd9879" fill-rule="evenodd"/><path d="M128.442 91.145c.36-3.158 1-6.636 1.32-10.154 5.916-37.897 3.957-42.095 3.957-66.68.64 2.479 6.236 5.277 15.71 5.277 10.194 0 15.75-3.158 16.07-5.636 0 24.944-1.958 29.142 3.958 67.039.32 2.079.64 4.197.96 5.956-2.279-4.557-2.919-10.154-5.877-14.75-1 1.758-1.319 3.877-1.959 5.636-.36-1.4-.68-3.158-1.639-4.557-.68 1.039-.999 2.438-1.319 3.837-.32-1.04-.68-4.197-1.959-4.557-1.998 0-1.639 4.557-1.639 5.956-.68-3.158-1.319-6.995-2.958-9.474-1 1.44-1 3.518-1.319 5.277-.68-2.798-1.959-4.917-3.278-1.4-1.32 3.878-1 .72-3.278 0-1 2.12-1 3.878-1.959 5.597-.36-1.719.32-4.557-1-6.316-1.318 3.518-1.318 7.036-3.277 10.194-.32-1.759-.32-3.518-1.959-4.557-1.32 2.119-.32 5.956-1.639 8.395 0-1.04-1-3.158-1.959-2.799-1.999.72-1 7.396-2.638 8.435-1.32.68-1-.72-2.319-.72z" fill="#f1ecec" fill-rule="evenodd"/><path d="M132 83.83c.64 1.758-.36 3.877 0 5.636.32-.68.64-1.4 1.32-1.76.319 1.08 0 2.12.319 3.159.32-1.04 1.639-3.518 2.958-3.838 1.64-.36 1.64 1.76 1.999 3.158.32-2.478 1.639-4.917 2.958-7.035.32.68.32 1.399.64 2.118.68-1.439 1-3.518 1.999-4.597.999 1.08 1.639 2.479 1.639 3.878.32-1.4.68-4.917 2.638-4.917 1.999-.36 2.638 5.277 2.958 6.676-.32-1.4 1-4.917 2.639-5.637 1.679-.72 1.679 1.759 1.998 3.518 0-3.158 3.638-8.795 3.638-3.158-1.319-5.277 4.278-.72 5.597 1.04-3.318-1.76.96-8.436.96-11.594-5.238 0-9.195-4.957-14.832-3.518-3.598 1.04-8.874 1.76-11.513 4.198-1.679 1.439-1.999 3.878-3.957 4.597z" fill="#f1ecec" fill-rule="evenodd"/><path d="M132.68 81.99c1.639 1.76 2.918-1.759 3.917-2.478-.64 4.597 2.279 3.877 3.278 0-.32 1.439-.32 5.317 1.959 4.957.32 1.04.32 2.438.68 3.518.32 1.399 1.279 3.158 1.279 4.557 0 3.198-2.279 2.478-4.557 2.119-2.319 0-4.598 1.399-6.916 1.079-2.279 0-2.918-2.119-4.917-2.838z" fill="#eaaf92" fill-rule="evenodd"/><path d="M132.36 111.173c-3.278 25.984-6.556 61.802-5.237 81.47 1.639 31.221 9.514 88.107 10.514 103.218 1.279 14.71-6.916-83.91-5.917-122.526z" fill="#dd9879" fill-rule="evenodd"/><path d="M133.599 355.065c0-17.91 1-32.98-.36-49.13.36.36.68.72 1 1.039 0-.32.68-1.04.999-1.759 1.639 2.479 2.958 5.637 4.317 8.435 0-1.4.64-2.798.96-4.198.36 2.799.68 5.957 3.318 7.356.32-.68 1.639-1.759 1.999-2.798.64 4.917 4.957 5.276 5.276 0 .64 1.759 1.96 3.158 2.319 4.557 2.319-1.04 2.958-6.316 3.278-9.115.36 2.12 1.32 4.198 2.998 5.277.96-2.118 1.64-4.237 2.319-6.356.32 2.119.96 4.917 2.638 6.356.32-.36.64-1.08.96-1.439-.64 11.233 0 26.704 0 41.775 0 2.478-5.597 5.956-16.19 5.956-10.234 0-15.831-3.478-15.831-5.956z" fill="#f1ecec" fill-rule="evenodd"/><path d="M131.04 116.77c-1.958 26.663-2.318 63.88-2.318 88.785-.32 29.143 8.915 84.23 9.554 96.862-1.639-12.952-6.916-35.779-10.873-83.51-2.639-33.02 0-75.114 3.638-103.537 1.639-12.672.999-12.312 0 1.4z" fill="#c68d72" fill-rule="evenodd"/><path d="M161.942 21.387c-1.32 12.632-1.68 34.739.64 47.012zm-.68 297.82c-.68 10.233-.32 25.744 1.32 34.539z" fill="#c0b6ba" fill-rule="evenodd"/><path d="M141.234 82.39c-2.278 13.712-7.275 92.624-4.597 144.872zm6.156 225.703c-7.435-171.296-1.918-178.332-.639-205.715 0 10.913-2.558 168.178.64 205.715zm6.077-226.023c0 12.633 2.319 127.763-1.679 150.549zm6.876 20.628c3.598 28.463 1.319 148.55-5.277 204.356 1.32-17.55 8.555-167.818 5.277-204.356zm5.237-11.193c4.277 23.865 10.513 68.118 7.915 107.774-2.639 39.656-9.914 90.505-11.233 103.138 2.318-25.585 8.914-94.023 9.914-107.375.64-13.312-1.32-74.395-6.596-103.537z" fill="#c68d72" fill-rule="evenodd"/><path d="M152.388 322.085c-1 7.755 0 30.901.999 35.099zm-9.555-.32c.56 8.435.56 35.419.56 35.419-1.439-11.194-.28-32.58-.56-35.419zm-4.237-2.878c.68 9.514 2.319 29.222 1 35.178zm19.348.639c-.72 8.515 0 17.35.32 23.346zm-9.194 3.998c-.32 6.356 0 21.787.32 25.984zm7.515-295.421c0 9.114.36 29.062 1.68 37.417zm-10.154-2.558c0 11.952-2.718 23.185 0 43.493zm-4.477 16.869c-1.999 9.834-1.999 23.866-1.999 30.142zm-3.997-8.874c-1.32 11.593-1.64 31.26-3.678 45.972 1.679-7.356 3.038-23.146 3.678-32.26zm14.151-1.6c-.32 10.914-1.36 22.867-.32 31.981z" fill="#c0b6ba" fill-rule="evenodd"/><path d="M150.429 30.422c-1.999 11.273-3.038 22.146-1.68 29.502zm4.717 13.831c-1.04 9.834-.36 17.91.64 22.786zm-9.754 277.112c-2.639 5.997-1.64 28.823-1.32 31.98zm-5.437-.959c.68 5.636 1.999 23.186 1.68 29.502z" fill="#fff" fill-rule="evenodd"/><path d="M129.641 80.99c5.957-37.896 3.958-42.094 3.958-66.679.68 2.479 6.276 5.277 15.83 5.277 10.194 0 15.79-3.158 16.11-5.636 0 24.944-1.958 29.142 3.958 67.039 5.917 38.257 7.556 59.684 7.556 99.34 0 39.616-1.64 61.043-7.556 99.3-5.916 38.256-3.957 49.81-3.957 75.434 0 2.478-5.597 5.956-16.11 5.956-10.234 0-15.831-3.478-15.831-5.956 0-25.625 2.319-37.178-3.958-75.434-5.916-38.257-8.235-59.684-8.235-99.3 0-39.656 2.319-61.083 8.235-99.34" fill="none" stroke="#000" stroke-width=".64" stroke-linecap="round" stroke-linejoin="round"/><path d="M165.62 13.952c0-2.439-2.639-4.558-5.917-4.558 0 0-4.277.36-9.874.36-5.277 0-10.234-.36-10.234-.36-3.318 0-5.956 2.119-5.956 4.558 0 0 0 0 0 0 0 2.118 5.637 5.596 15.83 5.596 10.554 0 16.15-3.478 16.15-5.596" fill="none" stroke="#000" stroke-width=".64" stroke-linecap="round" stroke-linejoin="round"/><path d="M134.598 305.535c2 3.198 2.639 8.115 3.958 11.633 0-1.04.68-2.079 1.679-1.76.96.36 1.32 2.84 1.639 3.559.64-3.878 3.278 1.04 3.958 2.078.32-1.399.64-4.557 1.958-4.917 1.32 0 2.319 2.479 3.318 3.158.96 1.44.64 1.08 1.64.72.999 0 1.319-1.4 2.638-1.04 1 0 1.639.68 2.638 1.04-.32-2.478.32-3.518 1.959-4.917.68-.72 1 0 1.679-.72.32-.72.32-2.478.32-3.158.64-1.799 2.278-3.877 0-4.597-2.319-.72-5.957.36-8.235.72-2.998 0-6.916.32-9.235-1.44z" fill="#eaaf92" fill-rule="evenodd"/><path d="M133.24 123.165c-1.96 8.075-3.599 33.7-1.6 53.648zm7.395 16.151c1.639 5.956 1 41.295-.68 48.29zm6.116-7.836c1.36 7.756.68 34.42 0 39.336zm8.635 18.709c1.519 8.075 1.24 18.549.32 24.465z" fill="#fff" fill-rule="evenodd"/><path d="M6.036 439.054c2.319-.72 6.237 3.478 8.875 9.074 2.638 5.597 2.958 10.834.68 11.513-2 .68-5.917-3.477-8.555-9.074-2.639-5.916-2.998-10.834-1-11.513m140.075 9.354c-1.359-1.759 0-7.355 3.278-12.632 3.318-5.277 7.276-8.475 8.915-6.716 1.32 1.759 0 7.395-3.278 12.672-3.318 5.277-7.276 8.435-8.915 6.676m-.679 92.344c-1-1.04-.32-4.917 1.999-8.794 2.358-3.558 5.356-5.677 6.356-4.598.96 1.04 0 5.277-2.359 8.795-1.999 3.878-4.997 5.637-5.996 4.597" fill="none" stroke="#000" stroke-width=".64" stroke-linecap="round" stroke-linejoin="round"/><path d="M126.683 551.626a210.845 210.845 0 0 1-1.999-7.716c-1.279-5.956-2.598-11.553-2.958-16.47-.32-1.079.68-1.759 1.32-1.439 6.915 7.396 15.47 12.313 22.026 14.751-.64-1.399.32-5.237 2.319-8.754 1.958-2.839 3.917-4.558 5.237-4.917-.32 0-.64-.36-.64-.36-6.236-1.76-23.026-9.834-25.984-24.905-.64-1.44 0-3.878 1.319-5.637 7.555-11.593 4.597-23.505 1.999-34.739l-2.319-9.474c-1-4.237-1.959-10.194-2.638-17.91-.32-1.078 1.319-1.758 1.998-.719 5.237 4.558 11.154 9.155 18.71 14.032.319.36.679.72.998.72-1.319-2.12 0-7.356 3.278-12.273 2.639-4.557 5.917-7.396 7.876-7.036-.32 0-.32-.36-.64-.36-22.666-15.79-28.263-22.106-34.499-50.17-.36-1.079-1-6.675-1-8.794v-11.953c-2.318 4.917-16.43 10.914-32.54 10.914s-30.581-5.637-32.86-10.554v11.233c0 2.799-2.318 10.554-2.958 12.313-8.235 22.106-27.623 45.972-46.012 57.565h-.36c2.319-.36 5.917 3.838 8.555 9.114 1.999 4.917 2.638 9.475 1.32 10.874.319 0 .679 0 .999-.36 11.832-6.996 23.665-18.229 33.859-31.221.64-1.04 2.279 0 1.959 1.759-.64 9.834-1.959 17.55-3.278 22.826l-1.999 9.474c-2.958 11.234-5.557 23.146 1.679 34.74.32 0 .32.36.32.36h.32v.359c6.556 10.154 7.235 25.944 1.958 47.011-.64 2.839-1.319 5.277-1.958 7.716z" fill="#9cc7e7" fill-rule="evenodd"/><path d="M126.683 551.626a210.845 210.845 0 0 1-1.999-7.716c-1.279-5.956-2.598-11.553-2.958-16.47-.32-1.079.68-1.759 1.32-1.439 6.915 7.396 15.47 12.313 22.026 14.751-.64-1.399.32-5.237 2.319-8.754 1.958-2.839 3.917-4.558 5.237-4.917-.32 0-.64-.36-.64-.36-6.236-1.76-23.026-9.834-25.984-24.905-.64-1.44 0-3.878 1.319-5.637 7.555-11.593 4.597-23.505 1.999-34.739l-2.319-9.474c-1-4.237-1.959-10.194-2.638-17.91-.32-1.078 1.319-1.758 1.998-.719 5.237 4.558 11.154 9.155 18.71 14.032.319.36.679.72.998.72-1.319-2.12 0-7.356 3.278-12.273 2.639-4.557 5.917-7.396 7.876-7.036-.32 0-.32-.36-.64-.36-22.666-15.79-28.263-22.106-34.499-50.17-.36-1.079-1-6.675-1-8.794v-11.953c-2.318 4.917-16.43 10.914-32.54 10.914s-30.581-5.637-32.86-10.554v11.233c0 2.799-2.318 10.554-2.958 12.313-8.235 22.106-27.623 45.972-46.012 57.565h-.36c2.319-.36 5.917 3.838 8.555 9.114 1.999 4.917 2.638 9.475 1.32 10.874.319 0 .679 0 .999-.36 11.832-6.996 23.665-18.229 33.859-31.221.64-1.04 2.279 0 1.959 1.759-.64 9.834-1.959 17.55-3.278 22.826l-1.999 9.474c-2.958 11.234-5.557 23.146 1.679 34.74.32 0 .32.36.32.36h.32v.359c6.556 10.154 7.235 25.944 1.958 47.011-.64 2.839-1.319 5.277-1.958 7.716z" fill="#b0d0eb" fill-rule="evenodd"/><path d="M119.088 365.498c.68 10.914 9.194 55.847 16.43 67.8 2.318 3.877 7.875 10.553 7.875 10.553s-16.43-14.391-19.388-14.391c-2.958 0-3.918 1.719-2.279 9.114 1.959 7.716 7.236 32.3 7.556 40.376.32 8.075-3.278 12.992-4.598 18.269-1.319 5.276.32 12.312 4.278 16.51 3.917 4.237-11.193 2.838-9.874 10.193 1.319 7.396 3.957 23.866 3.957 23.866-1.639-9.474-11.193-28.423-19.748-31.94-8.195-3.159-28.262-3.518-34.179-14.752 7.915 4.917 21.067 8.795 32.22 2.799 10.834-6.317 14.472-26.704 14.472-46.012 0-19.309-4.597-26.345-16.43-29.503-11.833-3.158-23.026 0-25.305-10.873 4.278 7.036 16.43 6.676 27.943 1.4 11.153-4.918 20.028-37.218 17.07-53.409z" fill="#6eb2dd" fill-rule="evenodd"/><path d="M121.087 357.503h-5.237c-3.958 2.839-14.152 6.676-27.623 7.036-13.792-.36-23.986-4.197-27.584-7.036 0 .36 0 0 0 0h-4.957c2.319 5.277 16.47 10.874 32.9 10.874 16.07 0 30.222-5.957 32.5-10.874z" fill="#d9e7f5" fill-rule="evenodd"/><path d="m124.405 268.038-1.96-10.154v.36c-6.915-26.664-7.595-132.32-3.317-148.79-3.918 1.399-7.556-.72-10.194-3.878-7.196-7.715-1.639-10.154 2.958-4.557 3.638 3.877 7.596 3.877 11.193-.36 6.556-9.474 3.958-19.268 1.32-30.502l-1.96-9.834-1.318-6.676c-2-10.513-3.318-17.549-3.318-35.098l-2.599-6.316-9.554-6.317-37.138-.36-9.514 12.993c0 17.55-1.319 24.585-3.318 35.098l-1.319 6.676-1.959 9.834c-2.638 11.234-5.277 21.028 1.32 30.502 3.597 4.237 7.555 4.237 11.193.36 4.597-5.597 10.153-3.158 2.958 4.557-2.639 3.158-6.276 5.277-10.194 3.878 4.277 16.47 3.598 122.805-3.318 148.79v-.36l-1.959 10.154c-2.638 11.233-5.277 21.067 1.32 30.541l.32.36c3.957 4.197 7.555 4.197 11.192.36 4.917-5.277-.68-22.467-7.235-34.06-1.64-2.798 1.959-5.237 3.598-2.078 6.596 11.193 13.831 32.98 6.596 40.695-2.639 3.158-5.917 5.277-10.194 4.197 3.598 10.874 3.278 46.692 2.958 48.45-.32.32-.32 1.04 0 1.4 3.598 2.798 13.792 6.316 27.264 6.636 13.511-.32 23.665-4.197 27.623-6.996-.64-2.118-.64-38.616 2.958-49.49-4.277 1.08-7.555-1.04-10.194-4.197-7.235-7.715 0-29.502 6.596-40.695 1.64-3.159 5.237-.72 3.598 2.078-6.556 11.593-11.833 28.783-7.236 34.06 3.638 3.837 7.236 3.837 11.194-.36l.32-.36c6.555-9.474 4.277-19.308 1.319-30.541z" fill="#008dcd" fill-rule="evenodd"/><path d="M90.865 284.588h-1c-6.875 0-13.431 3.158-18.708 7.035.32 5.237-.32 9.834-2.958 12.273-2.639 3.158-5.917 5.277-10.194 4.197 2.958 9.475 3.318 39.976 2.958 47.012l-.64 2.438h.32s0 .36 0 0c3.638 2.799 13.792 6.676 27.584 6.996 11.193-.32 19.708-2.798 24.665-5.237-.68-4.197-9.195-5.277-15.111-7.035-9.554-2.439-19.069 1.079-22.347-5.597-1-2.439-1.639-5.597-1.639-9.474.64-11.553 8.195-17.19 19.389-20.348 11.153-3.118 22.306 2.119 23.305 9.474-.32-6.996.64-12.952 2.279-18.229-4.237 1.08-7.555-1.04-10.154-4.197-2.958-2.798-3.638-8.075-2.958-13.672-4.277-3.158-9.194-5.636-14.791-5.636z" fill="#0082c8" fill-rule="evenodd"/><path d="M62.802 125.844c-.32-2.799-1.959-4.917-3.918-6.676 2.639 31.62 1.32 116.21-4.557 139.036v-.36l-1.959 10.194c-2.598 11.233-5.237 21.067 1.32 30.541l.32.36c.959 1.04 1.958 1.759 2.917 2.438a337.716 337.716 0 0 1 3.279-1.719l1.958-3.877c-3.917 0-9.794 1.04-8.155-16.51 1.64-17.91 8.155-34.74 8.475-86.708.32-51.608.64-59.684.32-66.72z" fill="#006aa4" fill-rule="evenodd"/><path d="M90.905 248.77c1.639 2.118 18.109 9.513 25.345 11.272 7.555 1.76-10.514.72-10.514.72l-14.191-4.917-4.278-4.957-7.875 7.395-20.108 1.76s15.47-3.878 23.066-8.795zm-33.26-103.618c5.597-9.114 3.958-14.711 5.916-22.067 2.32-7.715 15.151-9.114 22.067-13.312 7.236-4.197 21.707 4.198 28.943 1.04 7.555-3.158-12.153-11.553-12.153-11.553L91.545 78.552 80.35 83.11 69.838 99.94l-13.192 7.715v18.948z" fill="#006aa4" fill-rule="evenodd"/><path d="M122.446 257.844v.36c-6.916-26.704-7.596-132.32-3.318-148.83-3.918 1.399-7.556-.68-10.194-3.838l-.32-.36c-3.598-1.399-7.235-2.798-8.195-2.798-1.32 0-4.637-20.028-4.637-20.028l-4.237-19.308-2.639 17.909-8.235-9.474-2.638 28.063-9.195 4.917-.96 1.079c-2.638 3.158-6.275 5.237-10.193 3.838 4.277 16.51 3.598 122.845-3.318 148.83v-.36l-1.959 10.154c-2.638 11.233-5.277 21.067 1.32 30.541l.32.36c1.638 2.119 11.832 10.154 18.748 5.596 8.555-5.596 14.471-23.865 14.471-23.865l6.556 10.194 2.958 10.873 12.153 3.878h1.32c-.64-.36 8.554-2.479 12.512-6.676l.32-.36c6.555-9.474 4.277-19.308 1.319-30.541l-1.96-10.154z" fill="#d54730" fill-rule="evenodd"/><path d="M50.33 276.113c-1 7.035 3.957 21.107 14.83 23.226 10.554 2.478 17.15-5.997 17.15-5.997l-6.236 10.914s-12.233 2.798-12.872 2.478c-.32-.36-7.916-5.636-7.916-5.636L50.01 295.1l-1.68-7.355zm58.604-170.497-.36-.32c-3.598-1.439-7.195-2.838-8.195-2.838-1.319 0-4.597-19.988-4.597-19.988l-1.64-7.356-3.957-4.237-1.958 7.036-7.876-.72-2.318 22.467-9.195 4.917c-.32.36-.64.72-1 1.039-2.598 3.158-6.235 5.277-10.153 3.878 3.918 15.07 3.598 104.896-1.679 140.315l1.32-5.957c4.277-19.628 6.915-87.347 7.555-103.497.68-15.79 8.874-22.426 27.943-23.146 12.472 0 21.667 1.759 24.625 5.597v.36c.68-6.317 1-10.874 1.639-13.672-3.918 1.399-7.556-.72-10.154-3.878z" fill="#b40e1c" fill-rule="evenodd"/><path d="M93.823 292.982s8.555 3.518 15.47 1.76c7.236-1.76 13.153-8.755 12.833-15.791-.64-13.672-7.236-45.612-9.874-69.838-2.638-23.865-.32-71.237-2.638-81.07-.96-5.597-6.556-5.957-15.111-5.957-8.235 0-14.472-3.878-19.748 6.316-5.917 11.233-6.277 58.605-7.916 90.545-1.639 31.94-10.193 51.929-11.832 61.083-.68 4.877.32 10.874 6.596 14.032 5.596 2.798 16.11 3.478 20.068-.72z" fill="#e66a4a" fill-rule="evenodd"/><path d="M60.603 356.224c5.917-8.755 3.958-27.743 6.236-35.458 2-7.356 16.11-3.878 23.986-4.917 9.194-1.4 16.43-3.159 23.985-6.317 4.598-2.118-3.597-2.118-10.153-3.877-3.958-1.04-7.236-4.557-7.236-4.557l-5.277-13.352-.64-11.953-6.595 15.11-8.875 14.752-19.388-.68 2.958 16.51z" fill="#006aa4" fill-rule="evenodd"/><path d="M88.906.6h-1C68.519.6 53.688 8.395 53.688 18.589c0-1.76 5.277-1.76 5.277 0 0-5.997 11.833-12.313 28.943-12.313h1c17.109 0 28.942 6.316 28.942 12.313 0-1.76 5.236-1.76 5.236 0 0-10.194-14.79-17.99-34.179-17.99z" fill="#76b3de" fill-rule="evenodd"/><path d="M59.284 10.434C62.922 5.557 80.991.28 94.783 2.399c-5.237-.68-27.904 1.399-35.499 8.035z" fill="#0082c8" fill-rule="evenodd"/><path d="M50.33 59.924c-.64 5.276-7.516 26.664-3.558 36.138-1-3.158-.36-12.952.64-18.23 1.318-5.596 2.278-15.79 2.917-17.908zm0 198.359c-.64 4.917-7.516 26.344-3.558 35.819-1-2.799-.36-12.633.64-18.23 1.318-5.276 2.278-15.83 2.917-17.589zm65.84-238.335c-1.24 4.917.32 12.632.6 15.75-2.48-3.837-1.84-10.473-.6-15.75z" fill="#fff" fill-rule="evenodd"/><path d="M87.347 57.925c.32 10.553.64 25.624.32 30.901-.64 5.597-3.958 19.308-20.228 21.387 7.636-2.079 17.91-9.114 18.909-24.185 1-15.111 1-28.103 1-28.103zm0 197.48c.32 10.554.64 25.665.32 31.301-.64 5.277-3.958 19.349-20.228 21.067 7.636-1.718 17.91-8.754 18.909-23.865 1-15.47 1-28.503 1-28.503z" fill="#3ea3d7" fill-rule="evenodd"/><path d="M115.41 104.657c2.039 1.759 11.353 1.039 13.032-14.432.32 5.997-3.318 19.668-13.032 14.432z" fill="#fff" fill-rule="evenodd"/><path d="M54.287 258.204v-.36l-1.959 10.194c-2.638 11.233-5.277 21.067 1.28 30.541l.36.32c3.917 4.237 8.194 10.194 3.917 9.154 3.638 10.874 3.278 47.372 2.638 49.45h-4.917c0-2.438.64-44.892-5.916-55.086v-.36h-.32c0-.32 0-.32-.36-.68-7.555-11.593-4.597-23.505-1.959-34.739l2.32-9.834c7.554-27.383 7.195-127.402 1.638-148.79-.68-2.118-1.639-4.197-1.999-4.557-7.555-11.233-4.597-23.186-1.959-34.739l2.32-9.474.958-6.676c2-10.513 3.279-16.83 3.279-34.06 0-1.758 5.276-1.758 5.276 0 0 17.55-1.319 24.586-3.278 35.1l-1.319 6.675-1.959 9.835c-2.638 11.233-5.277 21.067 1.28 30.541 3.637 4.197 7.555 4.197 11.193.32 4.597-5.597 10.154-3.158 2.958 4.557-2.638 3.158-6.236 5.277-10.194 3.878 4.278 16.51 3.598 122.845-3.278 148.79zm64.921-148.79c-3.918 1.399-7.556-.72-10.154-3.878-7.236-7.715-1.64-10.154 2.958-4.557 3.598 3.877 7.516 3.877 11.113-.32 6.556-9.474 3.958-19.308 1.32-30.541l-1.96-9.835-1.318-6.675c-1.96-10.514-3.278-17.55-3.278-35.1 0-1.758 5.236-1.758 5.236 0 0 17.23 1.32 23.547 3.278 34.06l1 6.676 2.278 9.474c2.639 10.874 5.237 22.467-.959 33.34-1.32 2.079-2.319 3.478-3.278 7.356-5.277 22.826-4.597 122.845 1.959 147.39l2.278 9.834c2.639 11.234 5.557 23.146-1.958 34.74 0 .36-.32.36-.32.679h-.32v.36c-6.556 10.194-5.916 52.288-5.916 55.086h-5.237c-.64-2.078-.64-38.576 2.958-49.45-4.277 1.04 0-4.917 3.918-9.154l.32-.32c6.555-9.474 4.277-19.308 1.319-30.541l-1.96-10.194v.36c-6.875-26.664-7.555-132.28-3.277-148.79z" fill="#b0d0eb" fill-rule="evenodd"/><path d="M85.268 6.276c-15.75.72-26.304 6.676-26.304 12.273 0 17.55-1.319 24.545-3.278 35.059l-1.319 6.675-1.959 9.795c-2.638 10.873-4.957 20.347.64 29.422l7.235-2.439c-6.236-.36-8.554-8.075-6.556-20.667 1.96-12.633 7.236-40.296 7.876-50.81 1-10.513 9.234-17.19 20.387-18.588 1.64 0 2.639-.36 3.278-.72z" fill="#006aa4" fill-rule="evenodd"/><path d="M48.13 276.193c3.279-11.234 6.197-36.178 5.877-43.574-1.279 19.348-5.876 35.499-8.155 46.372-1.999 11.233 3.238 22.107 7.196 25.265-3.598-5.597-7.196-16.15-4.917-28.063zm0-197.561c3.279-11.593 6.197-36.178 5.877-43.573-1.279 19.348-5.876 35.138-8.155 46.372-1.999 11.233 3.238 22.106 7.196 25.264-3.598-5.956-7.196-16.47-4.917-28.063z" fill="#fff" fill-rule="evenodd"/><path d="M126.843 279.55c-.36 3.878-1.679 13.392-8.914 18.99-7.276 5.276-18.51 1.758-20.508-1.4 0 2.119 2.678 3.158 3.638 4.597 1.999 2.439 8.275 3.478 13.552 2.079 3.318-.68 6.596-3.158 8.275-4.917l.32-.36c4.277-5.956 4.597-12.272 3.637-18.988zm-21.187-162.061c13.112 5.596 9.194 20.307 10.514 31.18 0-4.197.64-26.623 1.958-32.62z" fill="#b40e1c" fill-rule="evenodd"/><path d="M85.668 122.446c-7.955-1.44-12.592 2.079-14.91 23.146-2 21.067-4.638 93.343-7.316 103.497 6.636-15.79 10.953-80.671 12.632-94.023 1.32-14.031-.68-32.98 9.594-32.62z" fill="#f2ae92" fill-rule="evenodd"/><path d="M76.953 130.201c-4.517 7.036-6.476 28.423-5.796 42.454zm.36-2.438c-.36 1.039.64 2.758 1.64 1.399 0-.36-.32-2.079-.32-2.799-.32 0-.68.36-1 .36zm-6.516 46.891c-.96.72-.96 3.518.64 2.479z" fill="#fff" fill-rule="evenodd"/><path d="M120.807 273.554c1.959 8.155-1 19.149-6.556 19.508-2.319 1.04-3.318 0-3.318 0 3.318-1.439 7.595-6.036 9.874-19.508zm-64.801 5.037c-1.999 6.676 1.28 17.83 9.115 15.071-3.918-.36-10.114-9.474-9.115-15.07z" fill="#f2ae92" fill-rule="evenodd"/><path d="M56.686 287.386c-1.72 2.478.64 4.557 2.998 3.877 0-1.399-.64-2.438-1.32-3.517zm60.443 1.039c-.36.72-.36 1.44-.36 2.159 1.36-.36 1.999-1.799 1.36-3.238-.68-.76-.36 0-.68 0zm2.319-4.637c-.32.36-.68 1.08-.32 1.759 1-.32 1-.32 1.639-1.4 0-1.079-.32 0-.64-.359z" fill="#fff" fill-rule="evenodd"/><path d="M61.163 366.378c6.556 7.036 28.303 8.435 42.094 4.237-13.791 7.716-24.345 4.917-30.9 26.664-6.597 21.747.639 28.063 13.79 32.26-11.832 2.12-23.025 4.918-25.664 30.182-2.638 25.265.68 35.779 7.236 44.214 6.596 8.395 28.982 14.71 28.982 14.71s-13.192 0-23.066 6.317c-10.193 6.676-16.75 19.308-18.428 25.944 3.318-8.395 7.915-21.027 6.596-32.26-1.32-11.234-6.596-20.348-10.514-32.26-3.958-11.954.64-19.669 4.597-37.178 3.958-17.55 3.598-25.625 0-32.98-5.277-9.834-20.427 2.798-20.427 2.798s23.066-24.545 25.704-52.648z" fill="#c9def1" fill-rule="evenodd"/><path d="M130.361 421.864c0-7.035 3.598-7.355 2.958-9.114-1.319-2.838-6.596-5.637-10.553-23.586-3.998-17.989-1.32 16.51-1.32 16.51z" fill="#6eb2dd" fill-rule="evenodd"/><path d="M141.634 420.025c1.999.36 3.278 2.799 4.917 3.878 1.32.68 4.278 2.079 4.917 3.478.96 2.079-.32 1.759-1.959 3.158-1.958 1.36-3.278 4.158-3.917 6.596 0-4.157.32-10.793-1.96-14.631zm-1.999 103.058c1.64.36 6.836 2.119 8.155 3.878.96 1.079.64.36 0 1.759-.64.72-1.958 1.759-2.598 2.478-1 1.4-1.959 2.798-2.279 4.198 1.64-3.838-1.319-7.356-1.958-11.234zM9.874 438.574c1.639 1.76 3.278 2.479 4.277 4.198 1.32 1.759 1.64 3.518 2.959 4.917-2.319-5.597-2.319-8.075 1.319-12.633 1.639-2.118 4.237-4.197 4.877-7.035z" fill="#c9def1" fill-rule="evenodd"/><path d="M18.549 455.444c3.917-2.079 15.07-11.233 20.347-16.47 5.237-5.277 10.474-14.391 13.752-13.712-4.237-2.118-7.875 3.518-12.113 8.075-4.277 4.558-21.347 17.23-22.666 15.79 1 1.44.68 6.317.68 6.317z" fill="#6eb2dd" fill-rule="evenodd"/><path d="M99.42 426.701c6.276 1.04 13.192 2.439 18.828-1.759 2.639-2.118 4.917-5.276 5.917-8.434 1-4.198 1.639-12.313-.64-15.83-1.32 4.596-1.32 9.154-3.318 13.71-1.959 3.879-5.916 10.195-11.193 9.835zm-3.998 84.629c9.874.32 16.75-1.08 23.026-9.834 6.556-9.114 10.474-22.426 6.236-33.66 0 8.435-1.319 15.79-4.957 23.506-2.958 6.676-14.75 19.269-22.986 19.269z" fill="#35a1d6" fill-rule="evenodd"/><path d="M101.099 511.29c6.276-.68 10.234 5.277 14.151 9.474-1.28-3.158-3.598-4.917-3.278-8.754 0-2.479.32-4.598 1.64-6.356zm7.515-83.869c3.318 1.08 7.636 3.198 9.594 6.356 2 2.439 2.319 5.956 3.998 8.395-2.998-4.917-1.32-18.589 5.597-11.233-1.32-2.798-5.277-2.079-5.917-5.957-.36-3.517 2.639-8.075 2.639-12.312z" fill="#35a1d6" fill-rule="evenodd"/><path d="M82.67 357.543c-5.917-.68-10.514.72-12.473.36-6.556-.36-6.556-4.917-6.556-9.834l-2.638 3.878v3.158l-.68 2.438h.36s0 .36 0 0c3.598 2.799 13.752 6.676 27.544 6.996 6.556-.32 11.832-1.04 16.39-2.438-4.558-1.4-14.432-3.838-21.947-4.558z" fill="#006aa4" fill-rule="evenodd"/><path d="M93.423 256.125c0 10.194 3.638 39.616 13.512 38.896 9.514-.32.32 4.198.32 4.198l-10.873-2.799-3.278-5.596-2-23.106zm-9.713-1.359c.679 8.075 1.958 29.822-5.917 38.576-1.32 1.76-3.318 3.158-5.957 3.158-13.511 0 2 1.04 2 1.04l8.554-3.838 2.958-10.154V263.92z" fill="#d54730" fill-rule="evenodd"/><path d="M88.906.6h-1C68.519.6 53.688 8.395 53.688 18.589c0-1.76 5.277-1.76 5.277 0 0-5.997 11.833-12.313 28.943-12.313h1c17.109 0 28.942 6.316 28.942 12.313 0-1.76 5.236-1.76 5.236 0 0-10.194-14.79-17.99-34.179-17.99" fill="none" stroke="#000" stroke-width=".64" stroke-linecap="round" stroke-linejoin="round"/><path d="M54.287 258.204v-.36l-1.959 10.194c-2.638 11.233-5.277 21.067 1.28 30.541l.36.32c3.917 4.237 8.194 10.194 3.917 9.154 3.638 10.874 3.278 47.372 2.638 49.45h-4.917c0-2.798.64-44.892-5.916-55.086v-.36h-.32c0-.32 0-.32-.36-.68-7.555-11.593-4.597-23.505-1.959-34.739l2.32-9.834c7.554-27.383 7.195-127.402 1.638-148.79-.68-2.118-1.639-4.197-1.999-4.557-7.555-11.233-4.597-23.186-1.959-34.739l2.32-9.474.958-6.676c2-10.513 3.279-16.83 3.279-34.06 0-1.758 5.276-1.758 5.276 0 0 17.55-1.319 24.586-3.278 35.1l-1.319 6.675-1.959 9.835c-2.638 11.233-5.277 21.067 1.28 30.541 3.637 4.197 7.555 4.197 11.193.32 4.597-5.597 10.154-3.158 2.958 4.557-2.638 3.158-6.236 5.277-10.194 3.878 4.278 16.51 3.598 122.845-3.278 148.79m64.921-148.79c-3.918 1.399-7.556-.72-10.154-3.878-7.236-7.715-1.64-10.154 2.958-4.557 3.598 3.877 7.516 3.877 11.113-.32 6.556-9.474 3.958-19.308 1.32-30.541l-1.96-9.835-1.318-6.675c-1.96-10.514-3.278-17.55-3.278-35.1 0-1.758 5.236-1.758 5.236 0 0 17.23 1.32 23.547 3.278 34.06l1 6.676 2.278 9.474c2.639 10.874 5.237 22.467-.959 33.34-1.32 2.079-2.319 3.478-3.278 7.356-5.277 22.826-4.597 122.845 1.959 147.39l2.278 9.834c2.639 11.234 5.557 23.146-1.958 34.74 0 .36-.32.36-.32.679h-.32v.36c-6.556 10.194-5.916 51.928-5.916 55.086h-5.237c-.64-2.078-.64-38.576 2.958-49.45-4.277 1.04 0-4.917 3.918-9.154l.32-.32c6.555-9.474 4.277-19.308 1.319-30.541l-1.96-10.194v.36c-6.875-26.664-7.555-132.28-3.277-148.79m1.879 248.089h-5.237s0 0 0 0c-3.958 2.839-14.152 6.676-27.623 7.036-13.792-.36-23.986-4.197-27.584-7.036 0 .36 0 0 0 0h-4.957s0 0 0 0c2.319 5.277 16.47 10.874 32.9 10.874 16.07 0 30.222-5.957 32.5-10.874" fill="none" stroke="#000" stroke-width=".64" stroke-linecap="round" stroke-linejoin="round"/><path d="M126.683 551.626a210.845 210.845 0 0 1-1.999-7.716s0 0 0 0c-1.279-5.956-2.598-11.553-2.958-16.47-.32-1.079.68-1.759 1.32-1.439 6.915 7.396 15.47 12.313 22.026 14.751-.64-1.399.32-5.237 2.319-8.754 1.958-2.839 3.917-4.558 5.237-4.917-.32 0-.64-.36-.64-.36-6.236-1.76-23.026-9.834-25.984-24.905-.64-1.44 0-3.878 1.319-5.637 7.555-11.593 4.597-23.505 1.999-34.739l-2.319-9.474c-1-4.237-1.959-10.194-2.638-17.91-.32-1.078 1.319-1.758 1.998-.719 5.237 4.558 11.154 9.155 18.71 14.032.319.36.679.72.998.72-1.319-2.12 0-7.356 3.278-12.273 2.639-4.557 5.917-7.396 7.876-7.036-.32 0-.32-.36-.64-.36-22.666-15.79-28.263-22.106-34.499-50.17-.36-1.079-1-6.675-1-8.794v-11.953c-2.318 4.917-16.43 10.914-32.54 10.914s-30.581-5.637-32.86-10.554v11.233c0 2.799-2.318 10.554-2.958 12.313-8.235 22.106-27.623 45.972-46.012 57.565h-.36c2.319-.36 5.917 3.838 8.555 9.114 1.999 4.917 2.638 9.475 1.32 10.874.319 0 .679 0 .999-.36 11.832-6.996 23.665-18.229 33.859-31.221.64-1.04 2.279 0 1.959 1.759-.64 9.834-1.959 17.55-3.278 22.826l-1.999 9.474c-2.958 11.234-5.557 23.146 1.679 34.74.32 0 .32.36.32.36h.32v.359c6.556 10.154 7.235 25.944 1.958 47.011 0 0 0 0 0 0-.64 2.839-1.319 5.277-1.958 7.716" fill="none" stroke="#000" stroke-width=".64" stroke-linecap="round" stroke-linejoin="round"/><path d="M88.546 284.907v-8.115c0-.36-.32-.36-.32-.36v8.475c0 21.787-17.469 25.305-26.383 24.266 3.318 3.158 34.619 7.715 51.089.36l-.32-.36c-9.235.36-24.066-4.238-24.066-24.266z" fill="#008dcd" fill-rule="evenodd"/><path d="M103.657 308.133c-7.515-2.478-14.75-8.794-15.07-22.546 0 0-.36 0-.36-.36 0 15.87-9.835 21.827-18.39 23.586 6.277 1.759 11.194-3.838 16.75-4.917 3.638-.36 5.917 1.08 8.875 2.478 2.639 1.04 5.597 1.4 8.195 1.76z" fill="#006aa4" fill-rule="evenodd"/><path d="M61.843 309.053c3.318 3.238 34.619 7.835 51.089.36" fill="none" stroke="#000" stroke-width=".64" stroke-linecap="round" stroke-linejoin="round"/><path d="M85.188 55.047c-.999 0-1.958.72-1.639 2.118l.32 5.957c.32 10.513 1.32 24.905-2.638 33.66-1.64 4.916-5.557 8.074-10.154 9.474-5.597 1.759-11.193.36-15.43-2.799-.68-.68-2 0-2.64.72-.679 1.04-.319 2.438.64 3.158 4.957 3.838 11.833 4.877 18.39 3.158 5.916-1.759 10.833-5.996 13.151-11.953 3.918-9.794 2.959-24.545 2.279-35.418l-.32-5.957c0-1.399-.96-2.118-1.959-2.118z" fill="#b0d0eb" fill-rule="evenodd"/><path d="M57.645 109.813c4.277 1.76 9.514 2.08 14.431.68 5.917-1.759 10.834-5.956 13.112-11.913 3.918-9.834 2.959-24.585 2.279-35.458l-.32-5.957c0-1.399-.96-2.118-1.959-2.118-.999 0-1.958.72-1.639 2.118l.32 5.957c.32 10.553 1.32 24.945-2.598 33.7-1.64 4.916-5.597 8.074-10.154 9.474-5.597 1.759-11.153-.36-15.11-3.518" fill="none" stroke="#000" stroke-width=".64" stroke-linecap="round" stroke-linejoin="round"/><path d="M55.926 102.818c3.958 3.158 9.554 5.237 15.15 3.518 4.638-1.4 8.596-4.558 10.235-9.475 3.957-8.794 2.998-23.146 2.638-33.66l-.32-5.996c-1.639 4.598-2.638 17.91-8.914 28.783-5.597 10.154-16.83 14.031-22.746 1.399-.68-1.759-1.68-3.518-2.32-4.917-.359 6.316.32 12.632 4.278 18.589l.32.36c.36.36 1 1.039 1.32 1.399z" fill="#008dcd" fill-rule="evenodd"/><path d="M55.646 103.497c.64.36 1.64.68 2.319 1.4 1.32.36 3.598 1.039 5.596 1.758 2.28.68 4.917.68 7.556-.36 4.637-1.399 8.595-4.557 10.234-9.474 3.598-8.794 2.958-22.506 2.638-33.02l-.68-1.079c.32 4.237 1.32 18.988-2.958 29.542-2.318 6.996-8.235 11.593-13.512 11.593-2.638.32-5.596.32-9.234-2.838-5.277-4.917-1.959 2.118-1.959 2.478z" fill="#006aa4" fill-rule="evenodd"/><path d="M53.008 86.268c0 3.518 2.958 17.51 10.434 19.228-5.197-1.04-15.99-5.237-13.033-23.426z" fill="#006aa4" fill-rule="evenodd"/><path d="M49.65 82.39s0 0 0 0c-.36 6.316.32 12.632 4.357 18.589l.32.32c.68.36 1.04 1.079 1.68 1.399m-.001.12c3.958 3.158 9.554 5.237 15.15 3.518 4.598-1.4 8.556-4.558 10.195-9.475 3.917-8.794 2.958-23.146 2.638-33.66l-.36-5.996c-1.639 4.598-2.598 17.91-8.874 28.783-3.598 5.596-8.555 5.956-9.515 3.158" fill="none" stroke="#000" stroke-width=".64" stroke-linecap="round" stroke-linejoin="round"/><path d="M65.12 91.265c.68-.72 1.04-1.76 1.72-2.439.32 1.04-.36 4.837 1.678 3.118 1-.68.68-3.837 1.32-5.237" fill="none" stroke="#008dcd" stroke-width=".64" stroke-linecap="round" stroke-linejoin="round"/><path d="M91.624 55.047c1.32 0 1.96.72 1.96 2.118l-.32 5.957c-.64 10.513-1.32 24.905 2.318 33.66 1.959 4.916 5.557 8.074 10.474 9.474 5.277 1.759 11.193.36 15.11-2.799 1-.68 2 0 2.639.72.64 1.04.32 2.438-.32 3.158-4.917 3.838-12.152 4.877-18.389 3.158-5.916-1.759-10.833-5.637-13.472-11.233-3.957-10.194-2.638-25.265-2.278-36.138l.32-5.957c0-1.399.96-2.118 1.958-2.118z" fill="#b0d0eb" fill-rule="evenodd"/><path d="M119.128 109.813c-4.238 1.76-9.474 2.08-14.072.68-5.916-1.759-10.833-5.597-13.432-11.233-3.957-10.154-2.638-25.265-2.318-36.138l.36-5.957c0-1.399.96-2.118 1.958-2.118 1.32 0 1.96.72 1.96 2.118l-.32 5.957c-.68 10.553-1.32 24.945 2.278 33.7 1.959 4.916 5.597 8.074 10.474 9.474 5.277 1.759 10.833-.36 15.07-3.518" fill="none" stroke="#000" stroke-width=".64" stroke-linecap="round" stroke-linejoin="round"/><path d="M121.207 102.818c-4.278 3.158-9.874 5.237-15.151 3.518-4.957-1.4-8.595-4.558-10.594-9.475-3.638-8.794-2.958-23.146-2.318-33.66l.36-5.996c1.638 4.598 2.318 17.91 8.554 28.783 5.957 10.154 16.87 14.031 22.786 1.399 1-1.759 1.64-3.518 2.319-4.917.64 6.316-.32 12.632-3.958 18.589l-.32.36c-.68.36-.999 1.039-1.678 1.399z" fill="#008dcd" fill-rule="evenodd"/><path d="M121.167 103.497c-.68.36-1.32.68-2 1.4-1.638.36-3.597 1.039-5.596 1.758-2.638.68-5.277.68-7.555-.36-4.957-1.399-8.555-4.557-10.554-9.474-3.638-8.794-2.958-22.506-2.318-33.02l.36-1.079c-.36 4.237-1 18.988 2.958 29.542 2.638 6.996 8.235 11.593 13.511 11.593 2.639.32 5.597.32 9.195-2.838 5.596-4.917 2.318 2.118 1.999 2.478z" fill="#006aa4" fill-rule="evenodd"/><path d="M127.003 82.43c0 2.119-1 7.715-3.598 12.952-2.278 4.877-6.156 9.434-9.754 10.114 5.197-1.04 15.59-5.237 12.672-23.426z" fill="#006aa4" fill-rule="evenodd"/><path d="M127.163 82.39s0 0 0 0c.64 6.316-.36 12.632-4.397 18.589l-.32.32c-.32.36-1 1.079-1.36 1.399m.001.12c-4.238 3.158-9.834 5.237-15.111 3.518-4.917-1.4-8.555-4.558-10.514-9.475-3.638-8.794-2.958-23.146-2.318-33.66l.36-5.996c1.638 4.598 1.958 14.032 8.194 24.905 3.638 5.637 9.555 2.799 10.514 0" fill="none" stroke="#000" stroke-width=".64" stroke-linecap="round" stroke-linejoin="round"/><path d="M111.652 85.268c-.32-.72-.64-2.118-1.319-2.798-.68 1.4 0 5.197-2.039 3.478-.68-.68-.68-3.838-1.039-5.237" fill="none" stroke="#008dcd" stroke-width=".64" stroke-linecap="round" stroke-linejoin="round"/><path d="M84.949 58.565c.68 3.877 1.998 24.225.36 29.821zm43.013 23.825c1 4.557 0 18.949-8.554 22.786 5.276-1.04 11.832-10.513 8.554-22.786z" fill="#fff" fill-rule="evenodd"/><path d="M85.188 252.607c-.999 0-1.958 1.08-1.639 2.119l.32 6.316c.32 10.553 1.32 24.985-2.638 33.78-1.64 4.557-5.557 8.074-10.154 9.474-5.597 1.759-11.513 0-15.43-3.159-1-.72-2 0-2.64 1.04-.679 1.08-.679 2.119.32 2.838 4.918 3.838 12.153 5.237 18.71 3.158 5.916-1.759 10.833-5.996 13.151-11.593 3.918-9.874 2.959-24.985 2.279-35.858l-.32-5.996c0-1.04-.96-2.12-1.959-2.12z" fill="#b0d0eb" fill-rule="evenodd"/><path d="M57.685 307.334c4.237 2.118 9.474 2.438 14.391.72 5.917-1.76 10.834-5.997 13.112-11.594 3.918-9.834 2.959-24.905 2.279-35.778l-.32-5.956c0-1.04-.96-2.12-1.959-2.12-.959 0-1.958 1.08-1.639 2.12l.32 6.316c.36 10.513 1.32 24.905-2.598 33.66-1.64 4.557-5.597 8.075-10.154 9.474-5.597 1.759-11.153-.36-15.43-3.518" fill="none" stroke="#000" stroke-width=".64" stroke-linecap="round" stroke-linejoin="round"/><path d="M91.624 252.607c1.32 0 1.96 1.08 1.96 2.119l-.32 6.316c-.64 10.553-1.32 24.985 2.318 33.78 1.959 4.557 5.557 8.074 10.474 9.474 5.277 1.759 11.193 0 15.43-3.159.68-.72 2 0 2.639 1.04.64 1.08.32 2.119-.32 2.838-5.277 3.838-12.153 5.237-18.709 3.158-5.916-1.759-10.833-5.277-13.152-11.273-4.277-9.834-2.958-25.305-2.598-36.178l.32-5.996c.32-1.04.96-2.12 1.958-2.12z" fill="#b0d0eb" fill-rule="evenodd"/><path d="M119.448 307.334c-4.238 2.118-9.475 2.438-14.392.72-5.916-1.76-10.833-5.277-13.112-11.234-4.277-9.834-2.958-25.265-2.638-36.138l.36-5.956c.32-1.04.96-2.12 1.958-2.12 1.32 0 1.96 1.08 1.96 2.12l-.32 6.316c-.68 10.513-1.32 24.905 2.278 33.66 1.959 4.557 5.597 8.075 10.474 9.474 5.277 1.759 11.153-.36 15.07-3.518" fill="none" stroke="#000" stroke-width=".64" stroke-linecap="round" stroke-linejoin="round"/><path d="M84.949 256.445c.68 3.877 1.998 24.265.36 29.502zm43.413 23.985c1 4.197 0 18.829-8.555 22.307 5.277-1.04 11.833-10.074 8.555-22.307z" fill="#fff" fill-rule="evenodd"/><path d="m91.505 153.067 2.998-5.357h-4.318v-8.834h-2.838v8.834H82.67l3.038 5.357 2.798 5.477 2.999-5.477z" fill="#005b8e" fill-rule="evenodd"/><path d="m91.505 153.067 2.998-5.357h-4.318v-8.834h-2.838v8.834H82.67l3.038 5.357 2.798 5.477 2.999-5.477z" fill="none" stroke="#fff" stroke-width="1.039" stroke-miterlimit="8"/><path d="m128.522 425.022 2.479 5.517 2.678-3.838 6.996 4.478 1.639-2.639-6.956-4.677 2.319-3.838-5.997-.32-5.836-.36 2.678 5.677z" fill="#005b8e" fill-rule="evenodd"/><path d="m128.522 425.022 2.479 5.517 2.678-3.838 6.996 4.478 1.639-2.639-6.956-4.677 2.319-3.838-5.997-.32-5.836-.36 2.678 5.677z" fill="none" stroke="#fff" stroke-width="1.039" stroke-miterlimit="8"/><path d="m30.382 429.58-5.637.64 2.638 3.517-6.676 5.677 2.04 2.478 6.315-5.317 2.999 3.518 1.998-5.676 2.16-5.877-5.837 1.04z" fill="#005b8e" fill-rule="evenodd"/><path d="m30.382 429.58-5.637.64 2.638 3.517-6.676 5.677 2.04 2.478 6.315-5.317 2.999 3.518 1.998-5.676 2.16-5.877-5.837 1.04z" fill="none" stroke="#fff" stroke-width="1.039" stroke-miterlimit="8"/><path d="m124.844 522.164 2.999 5.676 2.158-3.838 6.996 4.478 1.639-2.799-6.956-4.517 2.319-3.838-5.837-.32-5.996-.519 2.678 5.677z" fill="#005b8e" fill-rule="evenodd"/><path d="m124.844 522.164 2.999 5.676 2.158-3.838 6.996 4.478 1.639-2.799-6.956-4.517 2.319-3.838-5.837-.32-5.996-.519 2.678 5.677z" fill="none" stroke="#fff" stroke-width="1.039" stroke-miterlimit="8"/></svg>