<?xml version="1.0" encoding="UTF-8" standalone="no"?>
<svg
   xmlns:dc="http://purl.org/dc/elements/1.1/"
   xmlns:cc="http://creativecommons.org/ns#"
   xmlns:rdf="http://www.w3.org/1999/02/22-rdf-syntax-ns#"
   xmlns:svg="http://www.w3.org/2000/svg"
   xmlns="http://www.w3.org/2000/svg"
   xmlns:sodipodi="http://sodipodi.sourceforge.net/DTD/sodipodi-0.dtd"
   xmlns:inkscape="http://www.inkscape.org/namespaces/inkscape"
   version="1.0"
   viewBox="0 0 264.78341 149.50806"
   id="svg33"
   sodipodi:docname="mitochondrium-3.svg"
   width="264.78342"
   height="149.50806"
   inkscape:version="1.0.1 (3bc2e813f5, 2020-09-07)">
  <metadata
     id="metadata37">
    <rdf:RDF>
      <cc:Work
         rdf:about="">
        <dc:format>image/svg+xml</dc:format>
        <dc:type
           rdf:resource="http://purl.org/dc/dcmitype/StillImage" />
      </cc:Work>
    </rdf:RDF>
  </metadata>
  <sodipodi:namedview
     pagecolor="#ffffff"
     bordercolor="#666666"
     borderopacity="1"
     objecttolerance="10"
     gridtolerance="10"
     guidetolerance="10"
     inkscape:pageopacity="0"
     inkscape:pageshadow="2"
     inkscape:window-width="820"
     inkscape:window-height="480"
     id="namedview35"
     showgrid="false"
     inkscape:zoom="4.1565066"
     inkscape:cx="118.26279"
     inkscape:cy="64.833067"
     inkscape:window-x="0"
     inkscape:window-y="0"
     inkscape:window-maximized="0"
     inkscape:current-layer="svg33" />
  <defs
     id="defs5">
    <clipPath
       clipPathUnits="userSpaceOnUse"
       id="a">
      <path
         d="M 14.311,9.834 H 280.55 V 160.783 H 14.311 Z"
         id="path2" />
    </clipPath>
  </defs>
  <path
     clip-path="url(#a)"
     d="m 278.831,75.794 c -3.358,-32.14 -24.305,-48.25 -58.644,-41.095 -34.3,7.156 -57.765,13.392 -88.747,7.156 C 101.3,35.618 70.317,1.639 42.694,14.15 15.071,26.663 1.639,79.35 37.657,109.732 c 36.018,30.382 85.428,52.689 149.07,49.13 48.53,-3.557 94.583,-25.024 92.104,-83.069 z"
     fill="#6cac69"
     fill-rule="evenodd"
     fill-opacity="1"
     stroke="none"
     id="path7"
     transform="translate(-15.022218,-10.606432)" />
  <path
     d="m 26.072782,94.649568 c -15.07,-12.472 -21.7869996,-30.341 -20.1079996,-49.13 2.519,-16.95 11.7529996,-31.261 23.4659996,-37.4969999 15.07,-6.276 31.82,2.6779999 50.21,12.5119999 11.753,6.236 24.304998,13.392 36.017998,16.07 28.463,5.357 51.089,0.88 81.23,-5.356 l 9.195,-1.8 c 16.75,-3.557 29.302,-1.798 38.497,5.357 8.395,6.277 13.432,16.99 14.271,31.262 0,0.919 0.8,1.798 0.8,3.597 0,58.045002 -55.247,70.558002 -88.747,73.236002 -54.407,3.558 -102.976998,-12.512 -144.831998,-48.250002 z"
     fill="#c2ddb7"
     fill-rule="evenodd"
     fill-opacity="1"
     stroke="none"
     id="path9" />
  <path
     d="m 249.65778,67.026568 c -1.64,-12.512 -5.837,-21.467 -12.553,-27.703 -1.679,-0.92 -2.518,-0.92 -4.197,-1.8 -7.516,-2.678 -7.516,8.036 -5.837,16.99 1.68,8.915 5.837,34.82 -2.518,36.618 -8.395,2.679 -7.556,-41.095 -10.074,-48.25 -2.519,-4.478 -3.358,-6.237 -7.516,-5.357 h -4.197 l -9.234,1.799 c -2.519,0.88 -5.837,1.759 -9.195,2.678 -6.716,0.88 -7.555,3.558 -8.395,6.236 -2.518,8.035 -0.84,20.548 0,32.18 0.84,16.95 0.84,31.262002 -4.197,32.141002 -4.997,0.92 -5.837,-8.914 -5.837,-25.904002 -0.84,-16.95 2.519,-41.975 -5.037,-41.095 -5.876,0.88 -11.713,0.88 -17.589,1.799 h -4.197 c -9.195,1.799 -5.877,45.572 -14.232,43.773 -7.555,-0.88 -1.679,-26.823 -2.518,-39.296 -0.84,-1.799 -1.68,-5.397 -5.877,-4.477 -4.997,1.799 -6.676,8.035 -8.355,16.07 -2.518,8.955 -5.876,26.824 -9.233998,34.859 -3.358,7.156002 -10.034,9.834002 -13.392,3.558002 -4.197,-5.357002 3.358,-25.904002 6.716,-35.738002 2.479,-7.156 5.836,-17.87 5.836,-24.106 0,-2.678 -3.357,-5.357 -4.197,-6.276 -0.84,0 -2.478,-0.88 -3.318,-0.88 -0.84,-0.879 -1.679,-0.879 -1.679,-0.879 -1.679,-0.92 -3.358,-0.92 -5.037,0 -3.358,0.88 -5.037,5.357 -7.555,8.915 -4.997,8.035 -12.553,5.356 -11.713,-1.8 0,-4.437 2.518,-9.793 3.358,-14.27 0.84,-1.8 -0.84,-5.357 -5.037,-7.156 -9.235,-5.357 -18.429,-8.955 -26.824,-4.478 -10.034,4.478 -19.268,16.99 -20.947,31.261 v 3.598 c 0,0.88 0,4.478 3.358,3.558 5.037,-1.759 13.432,-11.593 15.91,-16.95 2.519,-6.276 5.877,-11.633 11.753,-8.954 6.716,4.477 -9.234,19.668 -14.231,28.582 -4.198,6.277 -5.877,15.191 -5.877,21.467 0,5.357 5.877,7.156 7.556,4.438 4.157,-5.357 6.676,-14.272 9.194,-20.548 4.197,-8.035 4.197,-13.392 9.234,-11.593 4.997,2.679 -5.876,18.749 -7.555,30.382 -0.84,5.357 -0.84,9.834 -0.84,12.512 -0.839,3.558 2.519,8.915002 10.874,5.357 7.555,-5.357 20.108,-55.406 31.021,-50.05 5.037,2.679 3.358,9.834 0,17.87 -3.358,8.035 -9.234,29.502 -10.074,37.537002 -0.84,8.035 -1.679,9.834 2.519,13.392 9.234,4.477 19.268,7.155 28.501998,9.834 2.519,0.88 9.195,1.799 11.713,1.799 5.877,0 13.432,-0.92 15.91,-4.478 5.038,-5.356 5.877,-31.260002 6.717,-42.014002 0,-11.593 2.518,-16.07 7.555,-15.151 10.034,2.678 5.836,19.628 5.836,31.261 -0.839,8.035002 -2.518,24.105002 0.84,31.261002 0.84,1.799 6.716,3.558 8.395,3.558 h 5.876 c 2.479,0 4.997,0 8.355,-0.88 1.68,0 6.716,-1.798 7.556,-2.678 4.197,-4.477 7.515,-9.834 6.676,-16.99 -0.84,-14.271002 -1.64,-24.105002 -3.318,-34.819002 -1.68,-8.954 -1.68,-11.632 3.318,-14.31 3.358,-0.88 8.395,2.678 10.074,8.954 2.518,9.794 3.357,24.985 5.036,30.381002 1.68,7.116 4.997,15.191 10.034,16.95 3.358,0.92 5.877,0 6.716,-0.88 15.071,-8.954 25.945,-24.145002 25.945,-49.130002 z"
     fill="#fcbec5"
     fill-rule="evenodd"
     fill-opacity="1"
     stroke="none"
     id="path11" />
  <path
     d="m 62.890782,19.655568 c -9.235,-5.357 -18.469,-8.955 -26.824,-4.478 -10.074,4.478 -19.308,16.99 -20.987,31.261 v 3.558 c 0,0.92 0,4.478 3.358,3.598 4.197,-1.799 10.074,-8.035 13.432,-13.392 l -1.68,1.76 c -3.357,1.798 -3.357,-5.358 -3.357,-7.117 0.84,-2.678 2.518,-6.276 4.197,-8.954 3.358,-4.437 8.395,-5.357 14.231,-5.357 6.716,0.92 13.432,4.477 12.593,12.513 -1.68,6.236 1.679,13.391 1.679,20.547 -0.84,5.357 0,9.794 -3.358,15.15 -2.519,-0.879 -3.358,-4.436 -3.358,-7.115 -2.519,2.679 -2.519,3.558 -2.519,7.116 0,1.799 0,7.156 2.519,8.035 3.358,1.799 5.876,-5.357 6.716,-7.116 1.679,-4.477 4.197,-7.155 5.876,-11.633 0.84,-3.557 0.84,-7.115 1.68,-10.713 -1.68,-0.88 -3.359,-2.678 -2.52,-6.236 0,-4.478 2.52,-9.834 3.319,-14.272 0.84,-1.799 -0.8,-5.356 -4.997,-7.155 z m -31.021,36.617 c -4.198,6.237 -5.877,15.151 -5.877,21.427 0,5.357 5.877,7.116 7.556,4.438 1.679,-1.76 2.518,-4.438 4.197,-7.116 -0.84,-1.799 0,-4.477 -0.84,-6.276 0,-3.558 -1.678,-14.271 3.358,-16.07 0.8,0.92 1.64,2.678 1.64,4.477 1.678,-3.558 3.357,-8.915 3.357,-12.512 0.84,-2.679 0.84,-6.237 0.84,-8.915 -3.358,7.156 -11.713,15.19 -14.231,20.547 z"
     fill="#fa9baa"
     fill-rule="evenodd"
     fill-opacity="1"
     stroke="none"
     id="path13" />
  <path
     d="m 56.214782,88.453568 c -3.358,2.678 -7.556,-0.88 -8.395,-4.477 -1.68,-4.478 0.84,-7.156 0.84,-11.633 l -3.359,4.477 c 0,1.799 -0.84,2.678 -0.84,3.598 -0.839,5.357 -0.839,9.834 -0.839,12.512 -0.879,3.558 2.519,8.915002 10.914,5.357 0.84,-0.88 1.679,-1.799 2.518,-3.558 0,-2.718 0,-4.477 -0.84,-6.276 z m 28.463,-46.492 c 5.876,1.8 5.037,5.397 3.358,10.754 0.839,2.678 0,7.155 -1.68,11.633 l 2.519,5.396 c 0,1.76 0.84,2.679 0.84,4.438 l 2.518,-8.036 c 2.518,-7.155 5.836,-17.909 5.836,-24.185 0,-2.678 -3.318,-5.357 -4.157,-6.236 -0.84,0 -2.518,-0.92 -3.358,-0.92 -0.84,-0.879 -1.679,-0.879 -1.679,-0.879 -1.679,-0.92 -3.358,-0.92 -5.037,0 -3.358,0.88 -5.037,5.357 -7.555,8.955 -0.84,1.798 -2.519,3.557 -3.358,4.477 l -0.84,2.678 c 4.198,-3.598 6.716,-9.834 12.593,-8.075 z m 5.876,77.713002 c 1.679,-3.598 0,-6.276 -1.679,-9.874 -0.84,-0.92 -2.518,-4.477 -3.358,-7.196 v -0.88 c -0.84,0 -0.84,0 -0.84,-0.919 -2.518,1.8 -3.357,4.518 -5.036,7.196 -1.68,3.598 -3.358,3.598 -5.077,3.598 0,1.799 0.88,3.558 3.398,5.357 4.197,1.799 8.395,3.598 11.753,4.477 0.839,0 0.839,-0.88 0.839,-1.759 z M 121.53478,74.981568 c 0,-8.035 0.84,-16.99 0.84,-23.226 -0.84,-1.799 -1.68,-5.397 -5.877,-4.477 -5.037,1.799 -6.716,8.035 -8.395,16.07 -2.518,8.955 -5.037,25.944 -8.394998,33.98 l -0.839,2.678002 c 7.554998,-6.236002 6.715998,-16.950002 11.752998,-25.025002 4.197,-6.236 8.395,-4.477 10.913,0 z m 39.296,-29.502 c -5.836,0.92 -11.712,0.92 -17.549,1.799 h -4.157 c -9.195,1.799 -5.877,45.532 -14.232,43.733 h -0.84 v 0.92 c -1.678,2.678 -1.678,9.794002 -1.678,13.352002 3.358,-5.357002 7.555,-9.794002 10.873,-15.151002 4.198,-7.156 1.68,-18.749 6.676,-24.985 3.358,-5.357 18.389,-6.276 11.713,2.678 4.197,-0.919 5.836,-1.798 6.676,-5.356 0.84,-4.478 5.037,-7.156 6.676,-10.714 -0.8,-4.477 -1.64,-6.276 -4.158,-6.276 z m 54.367,17.869 c 0,-0.92 0.8,-1.799 0.8,-2.678 0,-8.035 -0.8,-15.191 -1.639,-17.87 -2.518,-4.477 -3.358,-6.276 -7.515,-5.356 h -4.198 l -9.194,1.759 c -2.479,0.92 -5.837,1.799 -9.195,2.718 -6.676,0.88 -7.515,3.558 -8.355,6.236 -2.478,8.036 -0.8,20.548 0,32.14 0.84,16.99 0.84,31.262002 -4.157,32.181002 -0.84,0 -1.68,0 -2.519,-0.919 v 1.799 c -0.84,3.558 0,8.035 -1.679,11.593 1.68,-3.558 3.358,-5.357 5.877,-8.035 3.318,-2.679 4.997,-6.237 6.676,-10.714 4.997,-11.593002 1.679,-23.226002 1.679,-35.698002 0,-11.633 7.515,-20.548 18.349,-22.347 9.194,-0.88 12.552,7.156 15.07,15.191 z m 21.787,-24.025 c -1.639,-0.88 -2.478,-0.88 -4.157,-1.76 -7.476,-2.718 -7.476,8.036 -5.837,16.95 1.68,8.955 5.837,34.86 -2.478,36.658 -1.68,0.88 -2.519,0 -3.358,-1.799 v 2.679 c 0.84,4.477 -0.84,9.834002 -0.84,14.271002 1.68,-2.678 1.68,-5.357 4.198,-8.035002 3.318,-3.558 7.475,-4.437 9.154,-8.915 3.318,-5.356 4.158,-11.633 3.318,-16.99 -0.8,-5.356 0,-16.949 8.355,-14.27 0.84,0 2.479,0.879 2.479,1.758 -1.64,-8.914 -4.997,-16.07 -10.834,-20.547 z m -193.402998,-18.789 c 5.877,2.679 4.198,10.714 2.519,15.19 -1.679,5.358 -3.358,14.272 -2.519,19.589 1.68,-0.88 4.198,-6.236 5.037,-8.915 2.519,-3.557 0.84,-7.995 3.358,-12.472 0.84,-1.799 2.519,-2.678 4.198,-3.558 1.679,0 2.518,1.76 3.358,0 3.358,-2.678 -5.877,-9.834 -8.395,-9.834 z"
     fill="#fa9baa"
     fill-rule="evenodd"
     fill-opacity="1"
     stroke="none"
     id="path15" />
  <path
     d="m 187.69478,49.996568 c 8.355,0 11.673,7.196 8.355,14.352 4.158,0 5.797,0 7.476,-4.478 1.679,-6.276 2.478,-17.989 -5.837,-16.19 z"
     fill="#fa9baa"
     fill-rule="evenodd"
     fill-opacity="1"
     stroke="none"
     id="path17" />
  <path
     d="m 203.48578,57.152568 c 2.478,-2.678 3.318,-8.075 7.475,-3.558 -0.8,-1.799 -0.8,-4.517 -2.478,-6.316 -1.68,-1.799 -6.676,-0.88 -9.195,-0.88 z m 3.318,37.497 c -1.68,4.477 4.197,11.633002 7.555,14.312002 5.876,3.557 15.11,4.437 20.108,0 -1.64,4.437 -10.034,9.794 -14.232,10.713 -5.037,1.759 -6.716,-3.598 -9.234,-7.156 -0.84,-2.678 -4.197,-6.236 -3.358,-8.914 z m -51.889,7.196002 c 0,8.035 0.84,16.95 5.037,23.146 4.157,5.357 9.194,5.357 15.03,7.155 -3.317,2.639 -12.512,1.76 -15.87,0.88 -7.555,-2.678 -7.555,-14.231 -5.876,-21.387 z"
     fill="#fa9baa"
     fill-rule="evenodd"
     fill-opacity="1"
     stroke="none"
     id="path19" />
  <path
     d="m 220.31478,89.293568 c 2.479,7.115 0,12.472002 0,15.990002 m -51.968,3.678 c 2.478,7.115 0,12.472 0,15.99 m -46.772,-36.618002 c 3.278,6.356 0,11.753002 0,15.350002 M 88.874782,53.474568 c -1.839,5.397 0,14.391 0.88,18.869 m -4.397,29.502002 c 1.718,8.035 11.032,10.713 4.277,19.588 m -41.855,-90.265002 c 0,7.195 -6.716,25.984 -3.358,25.984 m 8.355,-3.598 c -1.68,8.955 -4.198,23.266 0,24.145 4.197,0 8.395,-10.713 11.753,-17.869 2.518,-6.276 1.679,-9.874 0.84,-14.351 m 131.439998,18.789 c 3.358,0 6.716,0.88 6.716,-5.437 m -55.327,8.075 c 5.077,1.759 10.154,0 10.154,-4.397"
     fill="none"
     stroke="#ffffff"
     stroke-width="0.799515px"
     stroke-linecap="round"
     stroke-linejoin="round"
     stroke-miterlimit="4"
     stroke-dasharray="none"
     stroke-opacity="1"
     id="path21" />
  <path
     clip-path="url(#a)"
     d="m 278.871,75.834 c -3.358,-32.14 -24.305,-48.25 -58.644,-41.095 -34.3,7.156 -57.765,13.392 -88.747,7.156 C 101.34,35.658 70.357,1.679 42.734,14.19 15.111,26.703 1.679,79.39 37.697,109.772 c 36.018,30.382 85.428,52.689 149.07,49.13 48.53,-3.557 94.582,-25.024 92.104,-83.069"
     fill="none"
     stroke="#333333"
     stroke-width="1.67898px"
     stroke-linecap="round"
     stroke-linejoin="round"
     stroke-miterlimit="4"
     stroke-dasharray="none"
     stroke-opacity="1"
     id="path23"
     transform="translate(-15.022218,-10.606432)" />
  <path
     d="m 26.112782,94.689568 c -15.07,-12.472 -21.7869996,-30.341 -20.1079996,-49.13 2.519,-16.95 11.7529996,-31.261 23.4659996,-37.4969999 15.07,-6.277 31.82,2.6779999 50.21,12.5119999 11.752,6.236 24.304998,13.392 36.017998,16.07 28.463,5.357 51.089,0.88 81.23,-5.356 l 9.195,-1.8 c 16.75,-3.557 29.302,-1.798 38.497,5.357 8.395,6.277 13.432,16.99 14.271,31.262 0,0.919 0.8,1.798 0.8,3.597 0,58.045002 -55.247,70.558002 -88.747,73.236002 -54.407,3.558 -102.976998,-12.512 -144.831998,-48.250002"
     fill="none"
     stroke="#ffffff"
     stroke-width="1.67898px"
     stroke-linecap="round"
     stroke-linejoin="round"
     stroke-miterlimit="4"
     stroke-dasharray="none"
     stroke-opacity="1"
     id="path25" />
  <path
     d="m 36.027782,13.338568 c -11.714,5.357 -20.948,18.75 -22.627,33.06 v 3.558 c 0,0 0,2.679 1.679,4.478 0.84,0 1.679,0.879 4.197,0.879 5.877,-2.678 14.232,-12.512 16.75,-17.87 3.358,-8.034 5.877,-9.793 9.234,-8.034 0,0 0.84,0 0.84,0.92 0,3.557 -5.876,10.713 -10.074,16.07 l -5.876,8.035 c -3.318,6.236 -5.837,16.07 -5.837,22.306 v 0.92 c 0,4.437 2.519,6.236 5.037,7.115 2.479,0.92 4.997,0 5.837,-1.759 2.518,-3.598 5.037,-8.954 6.715,-14.311 l 2.519,-6.236 2.478,-6.237 c 1.68,-5.396 2.519,-5.396 4.198,-4.477 1.679,0.88 -0.84,7.156 -3.358,12.513 -1.639,5.356 -4.158,10.713 -4.997,16.07 l -0.84,12.472 c -0.839,2.679 0.84,5.397 2.519,7.156 2.478,0.920002 4.997,1.799002 10.034,-0.88 4.197,-1.798 8.395,-11.632 12.552,-22.346 5.037,-10.713 10.914,-24.985 15.91,-26.784 0,-0.88 0.84,-0.88 1.68,0 3.358,1.8 3.358,6.276 -0.84,15.191 -3.318,8.915 -8.355,30.342 -10.034,38.417002 v 0.88 c -0.84,7.155 -1.679,9.833 3.358,13.391 9.195,4.477 19.269,8.035 29.301998,10.714 1.68,0.88 9.195,1.799 12.553,1.799 8.395,0 14.231,-1.8 16.75,-4.478 4.197,-5.356 5.037,-24.105 5.876,-42.854002 l 0.84,-0.92 c 0,-7.115 0.84,-11.592 2.518,-12.472 0.84,-0.92 1.679,-0.92 3.358,-0.92 5.836,1.8 5.836,10.714 4.158,22.347 v 7.156 l -0.84,4.437002 c -0.84,9.834 -0.84,20.548 1.679,27.704 1.679,2.678 8.395,4.437 10.074,4.437 h 5.836 l 8.395,-0.88 c 1.68,0 7.516,-1.798 9.195,-3.557 2.518,-2.679 7.555,-9.834 6.716,-17.87 -0.84,-14.270002 -1.68,-24.105002 -3.358,-35.738002 -1.68,-8.035 -0.84,-9.794 2.518,-11.593 0.84,0 2.519,0 2.519,0.88 2.518,0.919 4.197,3.597 4.997,6.276 1.679,6.236 2.518,13.392 3.358,19.628 l 1.679,11.633002 c 2.518,9.794 5.876,16.07 10.913,17.829 4.157,1.799 6.676,0 8.355,-0.88 17.59,-11.592 26.784,-28.582002 26.784,-50.889002 v -2.678 c -1.64,-13.432 -5.837,-23.226 -13.392,-28.583 l -4.158,-2.678 c -3.358,-0.92 -5.037,0 -6.716,0.88 -2.518,2.678 -3.358,8.035 -1.679,17.869 5.877,30.341 0,34.818 -1.679,34.818 -3.358,-2.678 -5.037,-18.748 -5.876,-29.462 -0.84,-8.954 -0.84,-15.19 -1.64,-16.99 -2.518,-5.356 -4.197,-8.034 -9.233,-7.115 h -5.037 l -17.59,4.437 c -7.515,0.92 -9.194,4.478 -10.034,7.156 -2.518,7.156 -1.679,16.07 -0.84,25.904 l 0.84,7.156 c 1.68,24.985002 -0.84,30.341002 -2.518,30.341002 -0.84,0 -0.84,0 -0.84,-0.879 -2.518,-1.799 -3.358,-12.512002 -3.358,-23.226002 v -13.391 c 0,-15.19 0,-25.025 -3.318,-28.582 -0.84,-0.88 -2.518,-0.88 -4.197,-0.88 -5.877,0.88 -11.713,0.88 -16.75,1.759 h -5.037 c -5.037,0.92 -6.676,11.633 -8.355,24.145 -0.84,8.036 -2.518,20.508 -5.037,19.628 -2.518,0 -1.679,-12.512 -1.679,-20.547 0.84,-6.236 0.84,-12.473 0.84,-17.87 -0.84,0 -0.84,-3.557 -3.358,-4.437 -0.84,-0.919 -2.519,-1.798 -5.037,-0.919 -4.997,2.678 -6.676,8.955 -9.195,16.11 v 0.88 l -1.679,9.834 c -2.518,8.035 -5.036998,19.628 -6.714998,24.985 -1.64,3.597002 -4.158,6.276002 -6.676,6.276002 -2.519,0 -3.358,-0.92 -5.037,-2.679 -2.519,-4.477002 2.518,-19.668002 5.876,-29.502002 l 1.679,-4.437 0.84,-0.92 c 1.678,-8.035 4.996,-17.869 4.996,-24.984 -0.839,-2.679 -4.157,-6.276 -4.996,-6.276 l -3.358,-1.76 -2.519,-0.919 c -1.679,-0.88 -3.358,-0.88 -5.876,0 -2.479,0.92 -4.158,4.477 -5.837,7.156 l -1.679,2.678 c -2.518,4.477 -5.876,4.477 -7.555,4.477 -1.68,-0.919 -2.519,-2.678 -1.68,-4.477 0,-2.678 0.84,-5.357 1.68,-8.914 l 1.679,-6.277 c 0.84,-1.759 -0.84,-6.236 -5.837,-8.914 -8.395,-4.478 -19.268,-8.9549999 -27.663,-4.478 z m -19.27,38.417 v -5.357 c 1.68,-13.391 10.075,-25.024 20.109,-30.381 8.394,-3.558 17.589,0.92 25.984,4.477 3.318,1.8 4.157,4.477 3.318,6.236 l -1.68,5.357 c -0.799,2.679 -1.638,6.276 -1.638,8.955 -0.84,4.437 0.84,7.115 4.157,8.035 3.358,1.759 7.556,0 10.914,-4.477 l 1.679,-3.558 c 1.639,-2.679 3.318,-5.357 4.997,-6.276 h 3.358 c 0,0.919 1.679,0.919 1.679,0.919 l 3.358,1.759 c 0.839,0.92 3.358,2.678 3.358,4.477 0,6.236 -2.519,15.191 -5.037,22.347 l -0.84,0.88 -1.679,5.356 c -5.037,14.271 -8.355,26.784 -5.037,33.060002 1.68,2.678 4.198,3.558 7.556,3.558 3.358,0 7.515,-3.558 9.193998,-8.035002 2.518,-6.277 5.037,-16.99 7.555,-26.784 l 1.68,-8.955 v -0.88 c 1.678,-6.236 3.357,-11.632 6.675,-13.391 h 2.519 c 0.84,0.88 1.679,1.759 1.679,2.678 0,4.477 0,10.714 -0.84,16.95 -0.84,12.512 -1.679,23.226 4.198,24.105 6.716,0.92 8.355,-9.794 9.194,-23.186 1.68,-8.035 2.519,-19.668 5.877,-20.547 h 4.197 c 5.037,-0.92 10.873,-0.92 17.59,-1.8 h 0.839 c 2.518,2.68 2.518,15.192 2.518,25.905 v 13.392 c 0,14.311002 0.84,23.226002 4.158,26.784002 0.84,0.92 2.518,0.92 3.358,0.92 6.716,-0.92 7.555,-13.393 5.876,-33.940002 l -0.84,-7.156 c -0.839,-8.914 -1.678,-18.748 0.84,-24.105 0.84,-2.679 0.84,-4.477 7.516,-5.357 0,-0.92 17.59,-4.477 17.59,-4.477 l 4.197,-0.88 c 2.518,0 3.357,0.88 5.876,5.357 0.84,1.759 1.679,8.915 1.679,16.07 1.679,16.95 2.478,29.462 6.676,32.14 0.84,0.88 2.518,1.8 3.358,0.88 7.555,-1.759 8.395,-14.271 4.197,-39.296 -0.84,-7.116 -0.84,-12.472 0.84,-14.271 0,0 0.84,-0.88 3.358,0 l 3.318,1.799 c 5.876,5.356 10.074,14.271 11.753,25.904 v 2.678 c 0,21.427 -8.395,37.498002 -25.145,47.332002 -1.68,0.88 -3.358,1.759 -5.877,0.88 -3.318,-0.88 -5.836,-6.237 -8.355,-15.192 l -1.678,-10.713002 c -0.84,-6.236 -2.519,-14.271 -3.358,-20.548 -1.68,-3.558 -3.358,-7.115 -6.676,-8.914 -1.68,-0.88 -3.358,-0.88 -5.037,-0.88 -6.716,2.679 -6.716,8.035 -5.037,16.07 1.679,11.593 2.518,21.428 3.358,34.820002 0.84,7.155 -3.358,12.512 -5.877,15.19 -0.84,0.88 -5.836,2.679 -6.676,2.679 l -8.395,0.879 h -5.836 c -1.68,0 -6.716,-1.799 -6.716,-2.678 -2.519,-5.357 -1.679,-16.95 -1.679,-24.985 l 0.84,-5.357002 v -7.156 c 1.678,-9.834 2.518,-23.226 -7.516,-25.904 -1.679,0 -4.197,0 -5.037,1.799 -2.518,1.759 -4.197,6.236 -4.197,14.271 l -0.84,1.8 c 0,9.793 -1.679,35.698002 -5.037,40.175002 -2.478,1.799 -7.515,3.558 -15.07,3.558 -2.52,0 -9.195,-0.88 -10.874,-1.76 -10.033998,-1.798 -19.267998,-5.356 -28.462998,-9.833 -2.518,-1.8 -2.518,-2.679 -1.679,-9.834 v -0.88 c 0.84,-8.035002 6.676,-29.462002 10.034,-37.497002 3.358,-7.156 5.877,-16.11 -0.84,-20.548 -1.678,-0.919 -3.357,-0.919 -5.036,0 -5.837,1.76 -11.713,16.07 -17.55,29.463 -3.358,8.914 -7.555,18.748 -10.913,20.547 -2.519,1.799 -5.037,1.799 -5.877,0.88 -1.639,-0.88 -1.639,-3.558 -1.639,-4.478 l 0.84,-12.472 c 0.8,-4.477 3.318,-9.834 4.997,-15.19 3.358,-7.157 5.876,-14.312 1.679,-16.99 -5.877,-1.76 -7.516,2.678 -9.195,7.155 l -2.518,5.357 -2.518,7.155 c -1.68,4.478 -3.358,9.835 -5.877,13.392 h -2.518 c 0,0 -2.479,-0.88 -2.479,-3.557 0,-6.277 1.68,-15.191 4.997,-20.548 l 5.877,-8.035 c 5.876,-7.156 10.873,-14.311 10.873,-19.668 0,-0.88 -0.84,-2.679 -2.519,-3.558 -8.354,-3.558 -12.552,6.236 -14.23,9.834 -1.68,5.357 -10.035,14.271 -14.232,16.07 z"
     fill="#fdcfc2"
     fill-rule="evenodd"
     fill-opacity="1"
     stroke="none"
     id="path27" />
  <path
     d="m 36.027782,13.338568 c -11.714,5.357 -20.948,18.75 -22.627,33.06 v 3.558 c 0,0 0,2.679 1.679,4.478 0.84,0 1.679,0.879 4.197,0.879 5.877,-2.678 14.232,-12.512 16.75,-17.87 3.358,-8.034 5.877,-9.793 9.234,-8.034 0,0 0.84,0 0.84,0.92 0,0 0,0 0,0 0,3.557 -5.876,10.713 -10.074,16.07 l -5.876,8.035 c -3.318,6.236 -5.837,16.07 -5.837,22.306 v 0.92 c 0,4.437 2.519,6.236 5.037,7.115 2.479,0.92 4.997,0 5.837,-1.759 2.518,-3.598 5.037,-8.954 6.715,-14.311 l 2.519,-6.236 2.478,-6.237 c 1.68,-5.396 2.519,-5.396 4.198,-4.477 1.679,0.88 -0.84,7.156 -3.358,12.513 -1.639,5.356 -4.158,10.713 -4.997,16.07 l -0.84,12.472 c -0.839,2.679 0.84,5.397 2.519,7.156 2.478,0.920002 4.997,1.799002 10.034,-0.88 4.197,-1.798 8.395,-11.632 12.552,-22.346 5.037,-10.713 10.914,-24.985 15.91,-26.784 0,-0.88 0.84,-0.88 1.68,0 3.358,1.8 3.358,6.276 -0.84,15.191 -3.318,8.915 -8.355,30.342 -10.034,38.417002 v 0.88 c -0.84,7.155 -1.679,9.833 3.358,13.391 9.195,4.477 19.269,8.035 29.301998,10.714 1.68,0.88 9.195,1.799 12.553,1.799 8.395,0 14.231,-1.8 16.75,-4.478 4.197,-5.356 5.037,-24.105 5.876,-42.854002 l 0.84,-0.92 c 0,-7.115 0.84,-11.592 2.518,-12.472 0.84,-0.92 1.679,-0.92 3.358,-0.92 5.836,1.8 5.836,10.714 4.158,22.347 v 7.156 l -0.84,4.437002 c -0.84,9.834 -0.84,20.548 1.679,27.704 1.679,2.678 8.395,4.437 10.074,4.437 h 5.836 l 8.395,-0.88 c 1.68,0 7.516,-1.798 9.195,-3.557 2.518,-2.679 7.555,-9.834 6.716,-17.87 -0.84,-14.270002 -1.68,-24.105002 -3.358,-35.738002 -1.68,-8.035 -0.84,-9.794 2.518,-11.593 0.84,0 2.519,0 2.519,0.88 2.518,0.919 4.197,3.597 4.997,6.276 1.679,6.236 2.518,13.392 3.358,19.628 l 1.679,11.633002 c 2.518,9.794 5.876,16.07 10.913,17.829 4.157,1.799 6.676,0 8.355,-0.88 17.59,-11.592 26.784,-28.582002 26.784,-50.889002 v -2.678 c 0,0 0,0 0,0 -1.64,-13.432 -5.837,-23.226 -13.392,-28.583 l -4.158,-2.678 c -3.358,-0.92 -5.037,0 -6.716,0.88 -2.518,2.678 -3.358,8.035 -1.679,17.869 5.877,30.341 0,34.818 -1.679,34.818 0,0 0,0 0,0 -3.358,-2.678 -5.037,-18.748 -5.876,-29.462 -0.84,-8.954 -0.84,-15.19 -1.64,-16.99 -2.518,-5.356 -4.197,-8.034 -9.233,-7.115 h -5.037 l -17.59,4.437 c -7.515,0.92 -9.194,4.478 -10.034,7.156 -2.518,7.156 -1.679,16.07 -0.84,25.904 l 0.84,7.156 c 1.68,24.985002 -0.84,30.341002 -2.518,30.341002 -0.84,0 -0.84,0 -0.84,-0.879 -2.518,-1.799 -3.358,-12.512002 -3.358,-23.226002 v -13.391 c 0,-15.19 0,-25.025 -3.318,-28.582 -0.84,-0.88 -2.518,-0.88 -4.197,-0.88 -5.877,0.88 -11.713,0.88 -16.75,1.759 h -5.037 c -5.037,0.92 -6.676,11.633 -8.355,24.145 -0.84,8.036 -2.518,20.508 -5.037,19.628 -2.518,0 -1.679,-12.512 -1.679,-20.547 0.84,-6.236 0.84,-12.473 0.84,-17.87 -0.84,0 -0.84,-3.557 -3.358,-4.437 -0.84,-0.919 -2.519,-1.798 -5.037,-0.919 -4.997,2.678 -6.676,8.955 -9.195,16.11 v 0.88 l -1.679,9.834 c -2.518,8.035 -5.036998,19.628 -6.714998,24.985 -1.64,3.597002 -4.158,6.276002 -6.676,6.276002 -2.519,0 -3.358,-0.92 -5.037,-2.679 -2.519,-4.477002 2.518,-19.668002 5.876,-29.502002 l 1.679,-4.437 0.84,-0.92 c 1.678,-8.035 4.996,-17.869 4.996,-24.984 -0.839,-2.679 -4.157,-6.276 -4.996,-6.276 l -3.358,-1.76 -2.519,-0.919 c -1.679,-0.88 -3.358,-0.88 -5.876,0 -2.479,0.92 -4.158,4.477 -5.837,7.156 l -1.679,2.678 c -2.518,4.477 -5.876,4.477 -7.555,4.477 -1.68,-0.919 -2.519,-2.678 -1.68,-4.477 0,-2.678 0.84,-5.357 1.68,-8.914 l 1.679,-6.277 c 0.84,-1.759 -0.84,-6.236 -5.837,-8.914 -8.395,-4.478 -19.268,-8.9549999 -27.663,-4.478"
     fill="none"
     stroke="#333333"
     stroke-width="0.799515px"
     stroke-linecap="round"
     stroke-linejoin="round"
     stroke-miterlimit="4"
     stroke-dasharray="none"
     stroke-opacity="1"
     id="path29" />
  <path
     d="m 16.757782,51.715568 v -5.357 c 1.68,-13.391 10.075,-25.024 20.109,-30.381 8.354,-3.598 17.589,0.88 25.944,4.477 3.358,1.76 4.197,4.477 3.358,6.236 l -1.68,5.357 c -0.839,2.679 -1.678,6.276 -1.678,8.955 -0.84,4.477 0.84,7.155 4.197,8.035 3.358,1.799 7.516,0 10.874,-4.477 l 1.679,-3.558 c 1.679,-2.679 3.358,-5.357 5.037,-6.276 h 3.358 c 0,0.919 1.639,0.919 1.639,0.919 l 3.358,1.799 c 0.84,0.88 3.358,2.678 3.358,4.437 0,6.276 -2.519,15.231 -5.037,22.347 l -0.84,0.92 -1.679,5.356 c -4.997,14.311 -8.355,26.824 -4.997,33.060002 1.68,2.678 4.198,3.598 7.516,3.598 3.358,0 7.555,-3.598 9.233998,-8.075002 2.478,-6.237 4.997,-16.95 7.515,-26.784 l 1.68,-8.955 v -0.88 c 1.678,-6.275 3.357,-11.632 6.715,-13.431 h 2.479 c 0.84,0.92 1.679,1.799 1.679,2.678 0,4.478 0,10.754 -0.84,16.99 -0.84,12.512 -1.679,23.266 4.198,24.145 6.716,0.88 8.355,-9.834 9.194,-23.226 1.68,-8.075 2.519,-19.668 5.877,-20.587 h 4.197 c 4.997,-0.88 10.874,-0.88 17.55,-1.76 h 0.839 c 2.518,2.68 2.518,15.192 2.518,25.905 v 13.392 c 0,14.311002 0.84,23.266002 4.198,26.824002 0.84,0.92 2.518,0.92 3.358,0.92 6.676,-0.92 7.515,-13.433 5.836,-33.980002 l -0.84,-7.156 c -0.839,-8.954 -1.638,-18.788 0.84,-24.145 0.84,-2.679 0.84,-4.477 7.556,-5.357 0,-0.88 17.59,-4.477 17.59,-4.477 l 4.157,-0.88 c 2.518,0 3.358,0.88 5.876,5.357 0.84,1.799 1.679,8.955 1.679,16.11 1.679,16.95 2.518,29.502 6.676,32.18 0.84,0.88 2.518,1.76 3.358,0.88 7.555,-1.799 8.395,-14.311 4.197,-39.336 -0.84,-7.156 -0.84,-12.512 0.84,-14.311 0,0 0.84,-0.88 3.358,0 l 3.318,1.799 c 5.876,5.356 10.074,14.311 11.713,25.904 v 2.718 c 0,21.427 -8.355,37.538002 -25.105,47.372002 -1.68,0.88 -3.358,1.759 -5.837,0.88 -3.358,-0.88 -5.876,-6.237 -8.394,-15.192 l -1.68,-10.713002 c -0.839,-6.276 -2.518,-14.311 -3.317,-20.588 -1.68,-3.558 -3.358,-7.155 -6.716,-8.914 -1.68,-0.92 -3.358,-0.92 -5.037,-0.92 -6.676,2.679 -6.676,8.075 -4.997,16.11 1.679,11.633 2.518,21.428 3.318,34.860002 0.84,7.155 -3.318,12.512 -5.837,15.19 -0.84,0.88 -5.876,2.679 -6.716,2.679 l -8.355,0.879 h -5.876 c -1.679,0 -6.676,-1.759 -6.676,-2.678 -2.518,-5.357 -1.679,-16.95 -1.679,-25.025 l 0.84,-5.357002 v -7.156 c 1.678,-9.834 2.518,-23.226 -7.556,-25.904 -1.679,0 -4.157,0 -4.997,1.759 -2.518,1.799 -4.197,6.276 -4.197,14.311 l -0.84,1.8 c 0,9.833 -1.679,35.738002 -5.037,40.215002 -2.478,1.799 -7.515,3.598 -15.07,3.598 -2.48,0 -9.195,-0.92 -10.874,-1.8 -10.033998,-1.798 -19.227998,-5.356 -28.462998,-9.833 -2.518,-1.8 -2.518,-2.679 -1.679,-9.834 v -0.88 c 0.84,-8.075002 6.716,-29.502002 10.074,-37.577002 3.318,-7.116 5.837,-16.07 -0.84,-20.548 -1.678,-0.879 -3.357,-0.879 -5.036,0 -5.877,1.8 -11.713,16.11 -17.59,29.503 -3.358,8.954 -7.515,18.788 -10.873,20.547 -2.519,1.799 -5.037,1.799 -5.877,0.92 -1.679,-0.92 -1.679,-3.598 -1.679,-4.478 l 0.84,-12.512 c 0.84,-4.477 3.358,-9.834 5.037,-15.19 3.358,-7.157 5.876,-14.312 1.679,-16.99 -5.877,-1.8 -7.556,2.678 -9.195,7.155 l -2.518,5.357 -2.518,7.155 c -1.68,4.478 -3.358,9.835 -5.877,13.392 h -2.478 c 0,0 -2.519,-0.88 -2.519,-3.557 0,-6.277 1.68,-15.191 4.997,-20.548 l 5.877,-8.075 c 5.876,-7.156 10.873,-14.311 10.873,-19.668 0,-0.88 -0.84,-2.679 -2.519,-3.558 0,0 0,0 0,0 -8.354,-3.598 -12.552,6.236 -14.23,9.834 -1.68,5.357 -10.035,14.311 -14.232,16.07 h -1.68"
     fill="none"
     stroke="#ffffff"
     stroke-width="0.799515px"
     stroke-linecap="round"
     stroke-linejoin="round"
     stroke-miterlimit="4"
     stroke-dasharray="none"
     stroke-opacity="1"
     id="path31" />
</svg>
