<svg xmlns="http://www.w3.org/2000/svg" version="1.0" viewBox="0 0 176.617 412.384"><defs><clipPath clipPathUnits="userSpaceOnUse" id="a"><path d="M8.955-.16h176.373v412.71H8.955z"/></clipPath></defs><path clip-path="url(#a)" d="M73.276 405.954c-49.95-11.993-68.679-56.406-55.767-132.36 7.076-43.513 15.81-108.374 7.076-170.556-4.577-32.86.42-60.844 14.571-78.613C49.97 11.553 64.961 4.437 82.85 4.437c17.49 0 40.375 3.558 59.524 30.662 21.227 29.302 34.119 82.17 38.277 157.224v8.435c0 93.264-19.129 163.002-52.429 191.864-15.81 13.772-34.139 18.209-54.946 13.332z" fill="#7fb679" fill-rule="evenodd" fill-opacity="1" stroke="none"/><path clip-path="url(#a)" d="M36.598 22.087c-14.591 18.668-20.408 47.53-15.41 81.31 8.734 61.743 0 126.164-7.097 169.697C.76 350.827 20.348 396.58 72.416 409.032c22.067 5.317 41.235.88 57.905-13.772 35.399-30.661 54.967-104.836 53.727-203.476-4.157-75.514-17.07-129.262-39.156-159.024C124.485 4.317 99.9.76 82.83.76 63.66.76 47.83 8.315 36.598 22.087zm36.658 383.827c-49.99-11.993-68.739-56.406-55.827-132.38 7.076-43.533 15.83-108.394 7.076-170.596-4.577-32.86.42-60.864 14.591-78.633C49.93 11.433 64.921 4.317 82.83 4.317c17.49 0 40.395 3.558 59.564 30.662 21.247 29.322 34.159 82.19 38.316 157.264v8.435c0 93.284-19.148 163.042-52.488 191.904-15.81 13.772-34.139 18.229-54.966 13.332z" fill="#d2e6c8" fill-rule="evenodd" fill-opacity="1" stroke="none"/><path d="M49.91 22.646c-10.414 7.995-22.906 23.546-21.667 53.728 0 1.779.84 3.118 2.079 4.437 5.416 4.437 20.407 3.558 47.071-3.098l18.329-4.897c11.233-3.098 29.982-7.975 32.06-5.757-2.078 3.098-23.325 7.996-34.558 10.654-6.676 1.32-12.493 3.098-17.07 4.437-4.597.88-10.414 2.219-16.67 3.558-16.25 3.538-25.824 5.757-28.323 9.754-.84 1.78-.84 3.558-.84 5.337 0 2.658.42 5.337.84 9.314.84 4.897 1.66 11.553 2.079 20.428l.84 11.553c0 11.533.42 14.651 4.577 16.87 2.078 1.339 10.413 0 32.08-3.558 14.571-2.219 35.399-5.317 41.635-4.877-6.236 3.558-33.32 7.995-46.632 10.214l-15.41 2.218-6.676 1.34c-7.496 1.319-8.335 1.758-9.575 11.093l-.42 3.558c-1.239 7.975-1.658 12.872-1.658 16.87 0 2.218 0 3.997.42 6.216 0 1.778.4 5.756 3.317 7.995 5.837 3.098 20.008 3.977 34.16 4.877 9.994.44 23.745 1.339 26.663 3.098-4.177 2.678-32.92.9-45.412 0l-12.912-.88h-.4c-2.518-.44-5.417-.44-7.915 4.877-3.338 9.335-6.676 30.202-7.096 41.295-1.24 7.116 2.499 9.335 3.758 9.774 15.41 7.556 61.643 15.091 95.382 20.868 2.898.44 3.738 1.339 3.738 2.219 0 .44-1.66 1.778-4.997 1.339-4.577-.46-27.064-4.438-48.73-8.435-17.49-3.118-35.4-6.216-43.734-7.556-7.076-1.339-8.315 3.099-8.735 5.337v.44c-4.597 15.53-3.758 67.479 13.732 87.907 19.168 22.206 44.573 31.96 69.558 26.204 19.168-3.998 29.982-15.55 31.24-24.425v-1.78c0-2.658-1.258-4.876-3.337-6.216-4.997-2.658-16.23-7.555-28.743-12.872-13.312-6.216-28.722-12.872-36.638-16.87-5.836-2.678-7.915-4.897-8.754-5.776 1.259 0 3.757 0 8.754 2.219l12.493 5.776c29.562 14.211 59.144 27.084 66.64 21.307 9.993-7.995 24.565-56.386 28.322-93.243v-2.219c0-4.877-1.679-7.995-4.997-8.435-15.41-3.098-57.905-9.314-82.89-12.872l-19.148-3.118c-4.177-.44-5.836-1.32-6.256-2.219.42 0 2.498-.88 5.836-.44l23.326 3.119c26.224 3.537 66.22 9.314 78.713 10.193h.42c1.239.46 2.918.46 4.577-.88 1.239-.879 2.078-3.097 2.498-6.215.42-6.217.84-15.99.84-25.745 0-7.115 0-14.211-.42-19.548 0-5.776-3.758-7.096-5.837-7.535a76.97 76.97 0 0 0-11.653-.9c-7.095-.44-22.906-1.779-23.745-4.437 2.079-1.34 11.253-.44 17.909 0 7.076.88 14.571 1.34 18.749.44 3.737-.44 5.396-3.998 5.396-8.875-.4-15.53-4.577-53.288-9.994-70.157-.4-1.32-1.239-5.317-6.656-5.317-4.577 0-13.332 1.779-22.066 3.098-10.834 1.779-33.32 5.337-35.819 2.658 2.08-2.218 17.07-4.437 27.064-5.756 12.073-2.219 24.985-3.998 29.982-6.676 2.079-1.32 2.918-3.098 2.918-5.317 0-1.779-.84-3.558-1.24-4.437-1.678-6.217-18.748-59.504-48.73-71.937-16.25-7.095-42.494-7.555-61.642 6.656z" fill="#fa8fa1" fill-rule="evenodd" fill-opacity="1" stroke="none"/><path d="M31.54 72.796c0-20.867 7.077-36.858 20.409-47.072 18.348-13.771 42.933-12.872 58.784-6.656 28.323 11.993 45.013 63.942 46.672 69.718.84 3.098.84 5.317 0 5.777-4.997 2.658-17.09 4.437-29.183 6.216-19.168 2.658-27.923 4.437-30.002 7.535-.42.9-.42 1.78-.42 2.219 1.26 5.777 13.752 4.457 40.016.46 8.755-1.78 17.51-3.118 22.087-3.118 2.499 0 2.918 1.339 3.338 2.658v.46c4.997 15.97 9.175 54.167 9.574 68.818 0 3.098-.82 5.337-2.498 5.337-4.158.88-11.253.44-18.33-.46-11.252-.88-17.928-1.32-20.427.9-.42.879-.84 1.778-.84 2.658.42 5.776 10.854 6.656 26.685 7.995 4.577 0 8.754.44 11.673.88 2.078.46 2.918 1.778 2.918 4.457.42 11.973.82 33.74-.42 44.393-.42 3.118-1.26 3.998-1.26 3.998-.399.44-1.238.44-2.078 0h-.84c-12.492-.88-52.088-6.217-78.352-10.214l-23.326-3.098c-5.836-.46-9.594.879-10.014 3.537-.42 3.119 3.338 5.337 9.175 6.217l19.588 3.118c25.005 3.558 67.519 9.314 82.53 12.872 2.918.44 2.918 4.437 2.498 6.656-3.757 38.197-18.768 84.369-26.684 90.585-7.075 5.337-45.432-12.872-63.76-21.747L66.54 332.12c-2.919-.88-12.073-4.438-13.752-.44-1.24 3.098 2.498 6.656 10.833 10.654 8.335 4.437 23.766 11.093 37.098 16.87 12.093 5.336 23.766 10.213 28.343 12.872 1.659.899 2.079 2.678 1.659 4.457-.82 5.756-9.155 17.31-28.743 21.307-23.765 5.317-47.93-3.998-66.28-25.305-16.67-19.108-17.509-69.278-13.332-84.369l.42-.46c.42-2.218.84-3.537 4.997-2.658 8.335 1.34 26.264 4.438 43.754 7.556 22.506 3.997 44.193 7.995 48.77 8.435 5.837.44 8.755-2.22 8.755-4.897 0-2.659-2.079-4.878-6.676-5.757-33.34-5.337-79.592-13.332-94.183-20.428h-.42c-.84-.44-2.079-1.339-2.079-4.437 0-.46 0-1.34.42-2.219.42-10.213 3.738-31.1 7.076-39.975 1.26-3.098 2.498-3.098 4.177-2.659h.82l12.512.88c34.6 2.218 49.17 2.678 50.01-3.098l-.84-2.22c-2.498-3.117-12.492-3.997-30.001-4.896-12.913-.88-27.504-1.779-32.5-4.437-1.26-1.34-1.68-3.998-1.68-4.877-.42-2.22-.42-3.998-.42-6.217 0-3.997.42-8.435 1.68-16.43l.42-3.558c.42-3.557.819-5.776 1.658-6.656.42-.899 2.08-.899 4.997-1.339l6.676-1.319 15.41-2.678c39.597-6.217 50.43-9.315 50.43-13.752l-.82-1.779c-2.917-2.678-16.669-.9-45.432 3.998-12.512 1.759-27.923 3.997-30.001 3.538-2.499-1.32-2.919-2.659-3.338-13.752l-.42-11.553c-.42-9.314-1.26-16.43-2.079-21.307-.84-6.216-1.679-9.774-.42-11.993 1.66-3.118 15.83-5.776 26.244-7.995 6.257-1.34 12.093-2.658 16.69-3.998 4.158-1.339 10.414-2.658 17.07-3.997 20.428-4.877 34.18-8.435 36.678-12.433.42-1.339.42-2.218.42-2.658-1.66-5.777-13.332-2.678-36.259 3.558l-18.328 4.877C45.712 81.67 35.279 80.35 32.36 78.133c-.4-.9-.82-1.34-.82-2.219v-3.118z" fill="#fddbdf" fill-rule="evenodd" fill-opacity="1" stroke="none"/><path d="M27.803 270.036h.42c6.656 3.098 19.168 6.656 34.18 9.754-7.516-3.977-14.592-11.972-15.012-19.088-.84-8.415 2.079-15.09 8.755-20.847.42-1.34 1.24-2.219 2.498-2.679h.42c8.335-6.656 20.848-11.533 27.084-13.751l-1.24-.44c-7.915 0-19.168-.44-34.179-1.34l-12.512-.879h-.84c-1.659-.46-2.918-.46-4.157 2.659-3.338 8.874-6.676 29.742-7.096 39.955-.42.88-.42 1.78-.42 2.219 0 3.098 1.26 3.998 2.1 4.437zM37.477 175.773l-.42 3.558c-1.259 7.995-1.678 12.433-1.678 16.41 0 2.219 0 3.998.42 6.217 0 .9.419 3.557 1.678 4.877 4.997 2.678 19.568 3.557 32.48 4.437-8.734-3.098-22.486-2.658-22.486-15.07 0-12.433 15.41-17.77 37.078-23.527 21.647-6.216 42.894-10.213 49.97-11.992-7.896 0-15.411-5.317-17.91-10.654 0 4.437-10.833 7.555-50.39 13.772l-15.41 2.658-6.676 1.34c-2.918.439-4.577.439-4.997 1.319-.84.899-1.239 3.118-1.659 6.655zM103.237 222.985c7.496-2.219 22.467-14.631 29.123-17.31-16.63 0-25.785 8.875-31.621 12.873-.82 2.658-4.158 3.997-11.233 4.437 4.577.88 10.413 1.32 13.731 0zM171.996 201.618c0-2.659-.84-3.998-2.918-4.438a80.344 80.344 0 0 0-11.673-.879c-1.68-.46-3.338-.46-5.017-.46 3.757 1.34 12.932 6.217 12.512 14.212-.42 9.774.84 25.304-13.752 30.201-11.673 3.538-34.599 1.76-52.128 1.32 25.445 3.118 57.545 7.555 68.379 8.434h.839c.84.44 1.659.44 2.079 0 0 0 .84-.879 1.259-3.997 1.24-10.654.84-32.4.42-44.393zM129.402 345.91c-24.566 1.34-54.128-15.99-67.88-15.11 2.1.44 3.758.899 4.998 1.339l12.492 5.776c18.329 8.895 56.646 27.104 63.721 21.787 2.08-1.779 4.997-7.116 8.335-14.671l7.496-21.787c.82-3.098 2.079-6.656 2.898-10.673-5.816 14.23-15.39 32.9-32.06 33.34zM129.002 296.2s5.017 2.22 16.69-9.334c8.335-8.894 18.349-7.995 22.526-7.116.42-3.098.84-6.216 1.24-9.334-18.35-5.337-32.521 15.57-40.456 25.784z" fill="#fcc3c9" fill-rule="evenodd" fill-opacity="1" stroke="none"/><path d="M32.38 306.015c5.837-9.755 20.028-7.096 17.51 7.995-1.24 9.774.84 16.43 2.938 18.648v-.9c.4-.879-.84.9.4.44 1.259-7.535 7.935-12.412 22.106-19.068 14.192-7.115 15.85-12.432 12.933-17.31l-4.578-.899c-3.757-.44-7.935-1.319-12.092-2.218-17.53-3.099-35.459-6.217-43.814-7.536-4.157-.9-4.577.44-4.997 2.659l-.42.44c-4.177 15.09-3.338 65.24 13.352 84.328 3.758 4.877 8.335 8.875 12.513 12.413-20.028-25.285-21.267-71.437-15.85-78.992zM129.082 372.174c-4.577-2.678-16.27-7.555-28.363-12.872-4.997-2.218-10.014-4.437-14.591-6.656h-.42c.84.44 1.679 1.32 2.499 1.78 4.177 3.097 7.935 6.195 11.273 9.753 3.338 3.998 6.656 8.435 7.915 13.752 1.26 3.998-.42 6.216-2.918 9.774-4.997 6.636-12.932 8.855-20.428 8.855-5.017.46-10.434 0-15.03-.88-1.24 0-2.08-.44-3.339-.88 11.693 4.878 24.206 6.197 36.298 3.099 19.608-3.998 27.943-15.53 28.783-21.287.4-1.78 0-3.558-1.68-4.438zm-43.374-19.528c-1.26-.44-2.498-.9-3.758-.9l3.758.9zM34.16 97.221c-1.26 2.219-.42 5.777.419 11.993.82 4.897 1.659 12.013 2.079 21.347l.42 11.573c.4 11.113.819 12.432 3.318 13.772 1.239.44 7.075-.44 14.15-1.34-5.836-.88-9.993-10.653-9.154-22.226.82-11.993-4.577-28.903 20.368-35.119 24.545-6.236 50.33-16.91 60.723-16.45 9.994.44 17.47-.46 21.627-.46-5.816-.44-12.892-3.098-17.05-14.231 0 .46 0 1.34-.4 2.678-2.498 3.998-16.23 7.556-36.617 12.453-6.656 1.339-12.892 2.658-17.05 3.997-4.577 1.34-10.393 2.679-16.63 3.998-10.393 2.239-24.545 4.897-26.204 8.015z" fill="#fcc3c9" fill-rule="evenodd" fill-opacity="1" stroke="none"/><path d="M97.78 110.533c2.919 6.216 7.076 22.187-12.112 26.624 5.437-3.538 13.772-8.415 12.113-26.624zM159.923 107.895c-4.597 0-13.352 1.339-22.107 3.118-8.754 1.339-15.83 2.218-21.267 3.118h-.42c7.516.88 28.783-.46 38.797 2.658 7.496 2.219 12.912 23.086 15.41 35.079-1.658-15.09-4.157-31.52-7.075-40.855v-.44c-.42-1.34-.84-2.678-3.338-2.678zM31.54 75.874c0 .88.42 1.34.84 2.219 2.499 1.779 9.175 3.098 27.524-.44-9.594-1.34-17.51-6.656-15.85-20.428 2.918-19.988 26.263-39.516 43.773-42.634-12.073 0-25.005 2.679-35.839 11.113C38.637 35.918 31.541 51.89 31.541 72.756v3.118zM84.489 249.569 64.9 246.45c-5.417-.9-9.155-2.679-9.155-5.797-.84-.44-1.259-1.32-.84-2.658-6.235-4.018-15.83 7.555-18.328 12.452l12.912 20.468c-7.895-24.905 47.911-15.57 58.305-14.671 19.588 1.779 38.736 5.336 58.304 5.776-15.81-3.118-57.045-8.894-81.61-12.452z" fill="#fcc3c9" fill-rule="evenodd" fill-opacity="1" stroke="none"/><path d="M132 294.881c-.84.9-2.079 1.8-2.918 2.239-.84 2.219-3.338 4.457-8.755 4.017-3.318 0-16.25-2.678-32.5-5.356l3.338 5.356c20.008-.46 43.333 12.473 49.99-16.07-3.738.46-6.237 7.596-9.155 9.814z" fill="#fa9eac" fill-rule="evenodd" fill-opacity="1" stroke="none"/><path d="M132.4 183.849c-.42-3.978-3.758-9.295-11.713-9.735 6.276-1.778 12.952 1.78 11.713 9.735zM102.758 119.008c1.659 4.877-.42 14.171-8.775 18.149 7.515-2.199 13.352-7.076 8.775-18.15zM101.179 213.99c7.875-7.995 19.068-11.093 26.943-10.214-7.875-1.778-17.41-1.778-26.943 10.214zM129.801 289.944c5.857-12.872 20.908-23.965 29.662-23.525-8.355-1.34-23.805 4.877-29.662 23.525zM58.165 327.202c4.597-5.757 14.171-10.614 20.427-13.712 6.237-3.118 9.575-5.776 11.234-8.435-2.499 5.317-9.994 10.194-14.572 12.852-4.577 2.659-14.57 6.197-17.09 9.295zM66.56 234.938c5.416-4.438 9.994-7.536 16.63-7.996z" fill="#fff" fill-rule="evenodd" fill-opacity="1" stroke="none"/><path clip-path="url(#a)" d="M36.598 22.087c-14.591 18.668-20.408 47.53-15.41 81.31 8.734 61.743 0 126.164-7.097 169.697C.76 350.827 20.348 396.58 72.416 409.032c22.067 5.317 41.235.88 57.905-13.772 35.399-30.661 54.967-104.836 53.727-203.476 0 0 0 0 0 0-4.157-75.514-17.07-129.262-39.156-159.024C124.485 4.317 99.9.76 82.83.76 63.66.76 47.83 8.315 36.598 22.087" fill="none" stroke="#333" stroke-width=".79951543px" stroke-linecap="round" stroke-linejoin="round" stroke-miterlimit="4" stroke-dasharray="none" stroke-opacity="1"/><path d="M49.91 22.646c-10.414 7.995-22.906 23.546-21.667 53.728 0 0 0 0 0 0 0 1.779.84 3.118 2.079 4.437 5.416 4.437 20.407 3.558 47.071-3.098l18.329-4.897c11.233-3.098 29.982-7.975 32.06-5.757-2.078 3.098-23.325 7.996-34.558 10.654-6.676 1.32-12.493 3.098-17.07 4.437-4.597.88-10.414 2.219-16.67 3.558-16.25 3.538-25.824 5.757-28.323 9.754-.84 1.78-.84 3.558-.84 5.337 0 2.658.42 5.337.84 9.314.84 4.897 1.66 11.553 2.079 20.428l.84 11.553c0 11.533.42 14.651 4.577 16.87 2.078 1.339 10.413 0 32.08-3.558 14.571-2.219 35.399-5.317 41.635-4.877-6.236 3.558-33.32 7.995-46.632 10.214l-15.41 2.218-6.676 1.34c-7.496 1.319-8.335 1.758-9.575 11.093l-.42 3.558c-1.239 7.975-1.658 12.872-1.658 16.87 0 2.218 0 3.997.42 6.216 0 1.778.4 5.756 3.317 7.995 0 0 0 0 0 0 5.837 3.098 20.008 3.977 34.16 4.877 9.994.44 23.745 1.339 26.663 3.098-4.177 2.678-32.92.9-45.412 0l-12.912-.88h-.4c-2.518-.44-5.417-.44-7.915 4.877-3.338 9.335-6.676 30.202-7.096 41.295-1.24 7.116 2.499 9.335 3.758 9.774 0 0 0 0 0 0 15.41 7.556 61.643 15.091 95.382 20.868 2.898.44 3.738 1.339 3.738 2.219 0 .44-1.66 1.778-4.997 1.339-4.577-.46-27.064-4.438-48.73-8.435-17.49-3.118-35.4-6.216-43.734-7.556-7.076-1.339-8.315 3.099-8.735 5.337v.44c-4.597 15.53-3.758 67.479 13.732 87.907 19.168 22.206 44.573 31.96 69.558 26.204 19.168-3.998 29.982-15.55 31.24-24.425v-1.78c0-2.658-1.258-4.876-3.337-6.216-4.997-2.658-16.23-7.555-28.743-12.872-13.312-6.216-28.722-12.872-36.638-16.87-5.836-2.678-7.915-4.897-8.754-5.776 1.259 0 3.757 0 8.754 2.219l12.493 5.776c29.562 14.211 59.144 27.084 66.64 21.307 9.993-7.995 24.565-56.386 28.322-93.243v-2.219c0-4.877-1.679-7.995-4.997-8.435-15.41-3.098-57.905-9.314-82.89-12.872l-19.148-3.118c-4.177-.44-5.836-1.32-6.256-2.219.42 0 2.498-.88 5.836-.44l23.326 3.119c26.224 3.537 66.22 9.314 78.713 10.193h.42c1.239.46 2.918.46 4.577-.88 1.239-.879 2.078-3.097 2.498-6.215.42-6.217.84-15.99.84-25.745 0-7.115 0-14.211-.42-19.548 0-5.776-3.758-7.096-5.837-7.535a76.97 76.97 0 0 0-11.653-.9c-7.095-.44-22.906-1.779-23.745-4.437 2.079-1.34 11.253-.44 17.909 0 7.076.88 14.571 1.34 18.749.44 3.737-.44 5.396-3.998 5.396-8.875-.4-15.53-4.577-53.288-9.994-70.157 0 0 0 0 0 0-.4-1.32-1.239-5.317-6.656-5.317-4.577 0-13.332 1.779-22.066 3.098-10.834 1.779-33.32 5.337-35.819 2.658 2.08-2.218 17.07-4.437 27.064-5.756 12.073-2.219 24.985-3.998 29.982-6.676 2.079-1.32 2.918-3.098 2.918-5.317 0-1.779-.84-3.558-1.24-4.437-1.678-6.217-18.748-59.504-48.73-71.937-16.25-7.095-42.494-7.555-61.642 6.656" fill="none" stroke="#333" stroke-width=".79951543px" stroke-linecap="round" stroke-linejoin="round" stroke-miterlimit="4" stroke-dasharray="none" stroke-opacity="1"/><path d="M99.02 220.626c6.696-5.716 11.293-14.071 35.498-14.95M55.686 239.255c7.496-6.216 21.247-14.211 29.982-15.99M129.002 297.06c5.856-9.734 20.447-31.421 40.455-27.863M131.16 66.08c3.319 12.093 11.593 14.311 18.63 14.311M97.8 110.533c4.578 11.593 3.758 23.186-11.652 27.184M119.008 176.793c7.096-.46 11.273 4.437 11.673 11.533M116.13 149.15c2.498 4.457 9.154 13.352 20.387 11.133M52.888 331.759c5.417-11.533 18.289-16.87 27.863-21.747 14.112-7.555 7.895-12.452 7.476-14.231" fill="none" stroke="#333" stroke-width=".79951543px" stroke-linecap="round" stroke-linejoin="round" stroke-miterlimit="4" stroke-dasharray="none" stroke-opacity="1"/><path clip-path="url(#a)" d="M73.276 405.954c-49.95-11.993-68.679-56.406-55.767-132.36 7.076-43.513 15.81-108.374 7.076-170.556-4.577-32.86.42-60.844 14.571-78.613C49.97 11.553 64.961 4.437 82.85 4.437c17.49 0 40.375 3.558 59.524 30.662 21.227 29.302 34.119 82.17 38.277 157.224v8.435c0 93.264-19.129 163.002-52.429 191.864-15.81 13.772-34.139 18.209-54.946 13.332" fill="none" stroke="#333" stroke-width=".79951543px" stroke-linecap="round" stroke-linejoin="round" stroke-miterlimit="4" stroke-dasharray="none" stroke-opacity="1"/><path d="M31.54 72.796c0-20.867 7.077-36.858 20.409-47.072 18.348-13.771 42.933-12.872 58.784-6.656 28.323 11.993 45.013 63.942 46.672 69.718.84 3.098.84 5.317 0 5.777-4.997 2.658-17.09 4.437-29.183 6.216-19.168 2.658-27.923 4.437-30.002 7.535-.42.9-.42 1.78-.42 2.219 1.26 5.777 13.752 4.457 40.016.46 8.755-1.78 17.51-3.118 22.087-3.118 2.499 0 2.918 1.339 3.338 2.658v.46c4.997 15.97 9.175 54.167 9.574 68.818 0 3.098-.82 5.337-2.498 5.337-4.158.88-11.253.44-18.33-.46-11.252-.88-17.928-1.32-20.427.9-.42.879-.84 1.778-.84 2.658.42 5.776 10.854 6.656 26.685 7.995 4.577 0 8.754.44 11.673.88 2.078.46 2.918 1.778 2.918 4.457.42 11.973.82 33.74-.42 44.393-.42 3.118-1.26 3.998-1.26 3.998-.399.44-1.238.44-2.078 0h-.84c-12.492-.88-52.088-6.217-78.352-10.214l-23.326-3.098c-5.836-.46-9.594.879-10.014 3.537-.42 3.119 3.338 5.337 9.175 6.217l19.588 3.118c25.005 3.558 67.519 9.314 82.53 12.872 2.918.44 2.918 4.437 2.498 6.656-3.757 38.197-18.768 84.369-26.684 90.585-7.075 5.337-45.432-12.872-63.76-21.747L66.54 332.12c-2.919-.88-12.073-4.438-13.752-.44-1.24 3.098 2.498 6.656 10.833 10.654 8.335 4.437 23.766 11.093 37.098 16.87 12.093 5.336 23.766 10.213 28.343 12.872 1.659.899 2.079 2.678 1.659 4.457-.82 5.756-9.155 17.31-28.743 21.307-23.765 5.317-47.93-3.998-66.28-25.305-16.67-19.108-17.509-69.278-13.332-84.369l.42-.46c.42-2.218.84-3.537 4.997-2.658 8.335 1.34 26.264 4.438 43.754 7.556 22.506 3.997 44.193 7.995 48.77 8.435 5.837.44 8.755-2.22 8.755-4.897 0 0 0 0 0 0 0-2.659-2.079-4.878-6.676-5.757-33.34-5.337-79.592-13.332-94.183-20.428h-.42c-.84-.44-2.079-1.339-2.079-4.437 0-.46 0-1.34.42-2.219.42-10.213 3.738-31.1 7.076-39.975 1.26-3.098 2.498-3.098 4.177-2.659h.82l12.512.88c34.6 2.218 49.17 2.678 50.01-3.098l-.84-2.22c-2.498-3.117-12.492-3.997-30.001-4.896-12.913-.88-27.504-1.779-32.5-4.437-1.26-1.34-1.68-3.998-1.68-4.877-.42-2.22-.42-3.998-.42-6.217 0-3.997.42-8.435 1.68-16.43l.42-3.558c.42-3.557.819-5.776 1.658-6.656.42-.899 2.08-.899 4.997-1.339l6.676-1.319 15.41-2.678c39.597-6.217 50.43-9.315 50.43-13.752 0 0 0 0 0 0l-.82-1.779c-2.917-2.678-16.669-.9-45.432 3.998-12.512 1.759-27.923 3.997-30.001 3.538-2.499-1.32-2.919-2.659-3.338-13.752l-.42-11.553c-.42-9.314-1.26-16.43-2.079-21.307-.84-6.216-1.679-9.774-.42-11.993 1.66-3.118 15.83-5.776 26.244-7.995 6.257-1.34 12.093-2.658 16.69-3.998 4.158-1.339 10.414-2.658 17.07-3.997 20.428-4.877 34.18-8.435 36.678-12.433.42-1.339.42-2.218.42-2.658-1.66-5.777-13.332-2.678-36.259 3.558l-18.328 4.877C45.712 81.67 35.279 80.35 32.36 78.133c-.4-.9-.82-1.34-.82-2.219v-3.118" fill="none" stroke="#333" stroke-width=".79951543px" stroke-linecap="round" stroke-linejoin="round" stroke-miterlimit="4" stroke-dasharray="none" stroke-opacity="1"/><path d="M86.148 136.317c0 .44.84 3.558 2.059 2.219.819-.88-.82-3.118-1.22-4.018M119.528 175.414c-.84.44 0 2.598.82 2.598.819-.42.819-2.159.419-3.038M136.098 159.843c0-.44-.42-.44-.42-.44 0 .44.84 3.099-.44 3.099s-.84-3.538-.84-3.998M133.56 207.394c.399-.88.399-3.098-.84-3.558-1.24 0-.82 3.119-.82 3.998M148.97 81.29c.82-1.378.42-2.758-.42-3.217-1.24.46-.82 2.298-1.24 3.677" fill="none" stroke="#fddbdf" stroke-width=".79951543px" stroke-linecap="butt" stroke-linejoin="miter" stroke-miterlimit="8" stroke-dasharray="none" stroke-opacity="1"/></svg>