<svg xmlns="http://www.w3.org/2000/svg" version="1.0" viewBox="0 0 123.024 130.809"><defs><clipPath clipPathUnits="userSpaceOnUse" id="a"><path d="M4.078 4.157h122.885v130.881H4.078z"/></clipPath></defs><path d="M5.437 5.437v128.242h120.247V5.437H5.437z" fill="#f4cac1" fill-rule="evenodd" fill-opacity="1" stroke="none"/><path clip-path="url(#a)" d="M5.437 5.437h120.247v128.242H5.437z" fill="none" stroke="#343434" stroke-width="1.3591763px" stroke-linecap="butt" stroke-linejoin="miter" stroke-miterlimit="8" stroke-dasharray="none" stroke-opacity="1"/><path d="M50.09 61.403c-3.958-1.24-7.916-7.955-9.315-1.999-1.159 5.996-1.639 12.952-.48 14.671 1.4 1.52 6.077 2.998 4.918 5.717-1.2 2.998-4.438 8.714-2.12 10.713 2.56 1.959 5.837-2.518 7.716-.28 1.6 2.239-3.997 4.997-5.836 6.716-1.88 1.999-2.359 2.998-3.038 6.476-.72 3.238-3.518 6.197 2.078 10.674 5.397 4.237 4.438 5.716 10.034 4.757 5.597-1 6.077-2.239 8.635-6.476 2.558-3.998 1.639-6.716 4.917-9.195 2.998-2.758 3.958-10.193 5.117-11.433 1.16-1.239.92-1.998 4.437.48 3.238 2.239 4.398 6.236 8.395 5.956 3.718-.24 5.117-6.436 6.036-9.913 1.16-3.758 0-8.955-.919-9.954-.92-1-4.917-3.478-4.437-6.477.48-2.718-1.16-4.477 2.318-1.479 3.278 3.238 7.476.24 11.673 0 3.958-.24 4.917-2.718 6.516-3.717 1.64-1 4.198-2.759 5.357-6.476 1.2-3.478 1.4-6.716.96-8.435-.48-1.76-4.198-10.194-5.597-12.193-1.4-1.999-7.236-3.718-11.433-6.476-4.438-2.998-5.357-8.715-8.875-5.956-3.718 2.958-4.197 2.958-7.435 4.957-3.278 1.998-2.799-.48-6.996 1.998-3.958 2.719-7.236 6.716-5.357 9.714 1.84 3.199 4.198 3.478 3.718 5.197-.48 1.76 2.079 2 .68 2-1.4 0-3.718-1-4.398-3.479-.96-2.238-1.399-4.717-3.038-5.476-1.639-1-3.718-3.718-3.718 0 0 3.477 2.319 6.715.2 8.195-2.079 1.519-1.399.76-3.957 1.998-2.319 1.24-3.478-.24-3.958 2-.48 2.478-.48 8.434 1.879 8.194 2.079-.24 2.558-2.238 4.437-1.24 1.839 1 2.798-1.998 1.839.48-.92 2.759-.24 2.24-1.839 2.999-1.879.76-3.278.48-4.197 1-.96.479-2.599-1.24-2.599-1.24l-2.318-2.998z" fill="#eaaea4" fill-rule="evenodd" fill-opacity="1" stroke="none"/><path d="M50.85 63.641c-3.519-1.239-7.236-7.475-8.396-1.998-1.159 5.476.24 10.193 1.4 11.673.919 1.519 3.717 4.477 2.558 7.235-1.16 2.719-3.278 4.477-1.16 6.476 2.32 1.96 4.878.96 6.277 3.198 1.639 2-1.16 6.237-3.038 7.716-1.84 1.759-4.398 1.239-5.117 4.477-.68 2.998-3.278 5.716 1.879 9.714 5.356 4.197 4.397 5.437 9.554 4.717 5.117-1 5.556-2.238 8.155-6.236 2.318-3.718 1.399-6.196 4.397-8.435 2.798-2.478 3.758-9.434 4.917-10.713 1.16-.96 1.84-4.718 4.877-2.479 3.278 1.999 3.278 4.717 6.756 4.477 3.718-.24 5.117-1.998 6.076-5.196.92-3.478 0-8.236-.959-9.195-.92-1-4.637-3.238-4.197-5.996.48-2.479-.44-7.716 2.798-4.717 3.038 2.718 6.316.52 10.274.24 3.717-.24 4.637.759 6.276-.24 1.639-1 3.718-2.719 4.917-5.957 1.16-3.478 1.36-6.236.92-7.955-.48-1.759-3.718-9.474-5.118-11.193-1.399-1.999-4.437-5.717-8.394-8.435-3.958-2.758-7.476-5.757-10.714-3.238-3.518 2.718-3.958 2.718-6.996 4.717-3.278 1.719-2.798-.52-6.516 1.719-3.758 2.518-5.596 2.239-3.758 5.237 1.64 2.718 5.837 5.716 5.397 7.475-.48 1.48-1.2 2.958-2.598 2.958-1.4 0-3.478-.999-4.198-2.958-.68-2.238-1.159-4.757-2.758-5.476-1.4-.76-3.518-3.238-3.518 0 0 3.477 2.119 6.196.24 7.715-2.079 1.479-1.4.72-3.718 1.959-2.118 1.239-3.278-.24-3.757 1.998-.44 2 0 4.238 2.118 3.998 1.88-.28 2.799-1.519 4.637-.52 1.88 1 2.799 0 2.12 2.479-.92 2.239-1.4 2.758-3.039 3.478-1.639.76-2.798.52-3.718 1-.92.519-2.558-1.24-2.558-1.24l-2.319-2.479z" fill="#7b3117" fill-rule="evenodd" fill-opacity="1" stroke="none"/></svg>