<svg xmlns="http://www.w3.org/2000/svg" version="1.0" viewBox="0 0 147.061 157.304"><defs><clipPath clipPathUnits="userSpaceOnUse" id="a"><path d="M11.993 15.67h146.87v157.425H11.994z"/></clipPath></defs><path clip-path="url(#a)" d="M125.284 30.082C84.47.76 44.913 23.866 22.846 58.944.76 94.023 18.67 144.193 50.75 162.402c32.06 18.648 73.276 7.555 92.864-17.31 19.568-24.425 22.886-85.708-18.329-115.01z" fill="#fdd379" fill-rule="evenodd" fill-opacity="1" stroke="none"/><path clip-path="url(#a)" d="M27.763 117.609c-4.177-16.89 1.24-34.66 10.834-49.75 7.495-11.553 15.43-24.885 26.264-32 15.43-9.775 34.599-10.215 53.347-3.099-37.097-24.005-72.516-3.118-92.124 28.423-20.847 32.44-3.738 79.072 25.845 96.401a89.324 89.324 0 0 0 9.594 4.438c-14.172-9.774-29.183-26.644-33.76-44.413z" fill="#fdf4e1" fill-rule="evenodd" fill-opacity="1" stroke="none"/><path clip-path="url(#a)" d="M124.005 34.899c9.154 14.671 23.306 78.632 5.397 101.718-15.81 19.548-48.271 27.983-62.842 26.204 27.483 8.875 58.264-1.339 74.095-21.327 17.889-23.086 21.207-79.492-16.65-106.595z" fill="#f1ae00" fill-rule="evenodd" fill-opacity="1" stroke="none"/><path d="M136.917 80.711c-1.679 5.777.4 12.453-.42 18.669-1.259 10.214-5.836 19.548-10.393 28.423-4.578 7.995-7.496 13.771-14.572 19.548-3.737 3.098-16.63 8.874-17.469 13.312 2.498-1.32 5.417-1.32 7.915-1.76 7.895-1.338 14.551-4.457 21.207-9.334 14.552-10.213 24.525-22.646 23.706-42.194z" fill="#f1ae00" fill-rule="evenodd" fill-opacity="1" stroke="none"/><path d="M95.282 67.759c-21.627 0-35.358 15.13-35.358 35.139 0 19.988 13.731 38.656 35.358 36.897 21.627-1.779 32.44-20.467 30.782-40.015-1.24-15.571-15.81-32.021-30.782-32.021z" fill="#f1ae00" fill-rule="evenodd" fill-opacity="1" stroke="none"/><path d="M86.068 133.16c8.315.879 20.787.879 26.624-5.777 8.714-9.355 10.793-28.043 4.157-38.277z" fill="#eb9800" fill-rule="evenodd" fill-opacity="1" stroke="none"/><path d="M88.566 61.603c-21.627 0-35.358 15.13-35.358 35.138 0 19.988 13.731 38.657 35.358 36.898 21.627-1.779 32.44-20.468 30.782-40.016-1.24-15.57-15.81-32.02-30.782-32.02z" fill="#00abc3" fill-rule="evenodd" fill-opacity="1" stroke="none"/><path d="M62.442 100.22c0-6.657 7.056-12.413 10.814-17.75 3.318-4.437 4.577-9.754 7.895-12.412 4.577-3.119 8.755-4.878 11.233-4.878-1.659 0-2.898-.46-4.577-.46-19.548 0-32.04 13.772-32.04 31.961 0 10.634 4.177 20.848 11.652 27.044-7.475-11.073-4.977-11.973-4.977-23.506z" fill="#deeef2" fill-rule="evenodd" fill-opacity="1" stroke="none"/><path d="M116.49 94.063c-1.26-11.553-10.414-24.865-21.228-27.983 7.895 5.337 11.653 14.651 12.493 23.985.82 7.996-4.997 12.433-8.755 18.65-4.577 7.095-5.816 16.41-16.23 17.309-3.758.44-7.915.88-11.253-.44 4.997 3.098 11.253 3.977 17.909 3.538 18.728-1.78 28.303-17.75 27.063-35.059z" fill="#0094b2" fill-rule="evenodd" fill-opacity="1" stroke="none"/><path d="M89.346 129.082c18.788-1.76 28.383-17.73 27.143-35.019-.42-3.998-1.679-7.995-3.757-11.993 2.078 7.096 1.659 40.816-23.386 47.012z" fill="#006c8b" fill-rule="evenodd" fill-opacity="1" stroke="none"/><path clip-path="url(#a)" d="M27.423 131.72c-12.052-21.307-14.97-48.85-1.239-70.617 12.073-19.528 30.382-35.079 51.17-38.197C63.62 27.803 4.117 62.442 27.423 131.72z" fill="#fff" fill-rule="evenodd" fill-opacity="1" stroke="none"/><path d="M150.649 74.875c6.656 25.344 1.259 52.448-9.994 66.68-10.414 12.891-26.664 21.766-44.593 23.985 22.086-9.774 60.003-26.204 54.587-90.665z" fill="#eb9800" fill-rule="evenodd" fill-opacity="1" stroke="none"/><path clip-path="url(#a)" d="M125.284 30.082C84.47.76 44.913 23.866 22.846 58.944.76 94.023 18.67 144.193 50.75 162.402c32.06 18.648 73.276 7.555 92.864-17.31 19.568-24.425 22.886-85.708-18.329-115.01" fill="none" stroke="#000" stroke-width=".79951543px" stroke-linecap="round" stroke-linejoin="round" stroke-miterlimit="4" stroke-dasharray="none" stroke-opacity="1"/><path d="M88.566 61.603c-21.627 0-35.358 15.13-35.358 35.138 0 19.988 13.731 38.657 35.358 36.898 21.627-1.779 32.44-20.468 30.782-40.016-1.24-15.57-15.81-32.02-30.782-32.02" fill="none" stroke="#fff" stroke-width=".79951543px" stroke-linecap="round" stroke-linejoin="round" stroke-miterlimit="4" stroke-dasharray="none" stroke-opacity="1"/><path d="M55.766 74.475c0-3.178 2.419-5.757 5.397-5.757 2.998 0 5.397 2.579 5.397 5.757 0 3.198-2.399 5.756-5.397 5.756-2.978 0-5.397-2.558-5.397-5.756zM66.08 66.48c0-1.98 1.499-3.598 3.318-3.598 1.839 0 3.318 1.619 3.318 3.598 0 1.998-1.48 3.598-3.318 3.598-1.819 0-3.318-1.6-3.318-3.598zM53.528 84.909c0-1.56 1.239-2.839 2.758-2.839 1.539 0 2.758 1.28 2.758 2.839 0 1.579-1.219 2.838-2.758 2.838-1.52 0-2.758-1.26-2.758-2.838z" fill="#fff" fill-rule="evenodd" fill-opacity="1" stroke="none"/></svg>