<?xml version="1.0" encoding="utf-8"?>
<!-- Generator: Adobe Adobe Illustrator 24.2.0, SVG Export Plug-In . SVG Version: 6.00 Build 0)  -->
<svg version="1.1" id="レイヤー_1" xmlns="http://www.w3.org/2000/svg" xmlns:xlink="http://www.w3.org/1999/xlink" x="0px"
	 y="0px" width="1000px" height="1000px" viewBox="0 0 1000 1000" style="enable-background:new 0 0 1000 1000;"
	 xml:space="preserve">
<style type="text/css">
	.st0{fill:#F2F0E5;}
	.st1{fill:#050505;}
	.st2{fill:#030303;}
	.st3{fill:#58281B;}
	.st4{fill:#E0D4BF;}
	.st5{fill:#E0D4BE;}
	.st6{fill:#090909;}
	.st7{fill:#F4F2E6;}
	.st8{fill:#F4F1E6;}
	.st9{fill:#DFD3BD;}
	.st10{fill:#F3F1E6;}
	.st11{fill:#EEECE1;}
	.st12{fill:#EDEBE0;}
</style>
<g>
	<path class="st0" d="M440.64,413.37c1.83-0.38,3.47-0.46,5.59-0.6c1.57-0.39,2.41,0.14,3.27,0.67c5.61,3.54,5.68,3.6,9.9-1.76
		c7.24-9.2,15.94-16.22,27.07-20.42c19.03-7.18,38.98,1.9,50.05,13.49c2.28,2.39,4.47,4.91,6.54,7.52c3.76,4.73,4.22,4.75,9.24,1.32
		c0.69-0.47,1.4-0.89,2.61-0.94c2,0.15,3.65,0.23,5.78,0.36c0.8,0.46,1.01,0.94,0.94,1.43c-0.41,2.97-0.55,6.05,3.14,6.82
		c3.64,0.76,6.7-1.52,7.31-4.63c0.89-4.51,3.66-5.67,7.31-6.86c3.34-1.09,6.12-3.37,8.55-5.94c13.29-14.09,29.04-25.43,43.2-38.54
		c8.43-7.8,16.71-15.76,25.5-23.14c16.57-13.91,32.31-28.76,48.23-43.39c10.57-9.71,19.77-20.67,29.24-31.41
		c8.24-9.36,16.26-18.91,24.94-28.32c1.41-0.86,3.25-0.71,3.24-3.02c-0.05-1.98,0.93-3.03,2.42-4.11c0.4-0.31,0.56-0.43,1.19-0.93
		c0.62-0.51,0.77-0.64,1.15-0.96c0.39-0.32,0.55-0.45,0.95-0.76c0.74-0.59,1.24-0.99,2.09-1.44c0.54-0.01,0.76,0.08,1.21,0.45
		c0.84,6.64-0.61,12.89-1.83,18.97c-0.71,3.56-4.53,6.39-6.98,9.52c-11.83,15.07-25,28.99-37.61,43.4
		c-7.47,8.53-16.28,15.74-24.33,23.69c-20.16,19.93-41.46,38.53-63.68,56.11c-5.88,4.65-11.27,9.87-16.87,14.86
		c-7,6.25-15.27,10.7-22.8,16.19c-2.46,1.79-6.34,4.05-3.77,7.39c2.32,3.02,5.35-0.17,7.81-1.7c23.31-14.46,43.79-32.64,64.55-50.33
		c14.8-12.61,29.16-25.79,43.26-39.27c15.22-14.54,28.96-30.33,43.22-45.69c2.28-2.45,4.05-5.3,6.27-7.78
		c0.86-0.96,1.84-2.21,3.34-1.52c1.18,0.54,1.21,1.93,1.29,3.08c0.44,6.34,1.66,12.55,3.15,18.7c1.18,4.88,2.98,9.54,5.71,13.8
		c1.38,2.15,3.1,3.84,5.38,5.07c4.82,2.61,4.88,3.23,0.39,6.67c-10.85,8.3-21.64,16.64-31.42,26.26c-4.58,4.5-11.12,5.89-16.76,8.71
		c-9.41,4.71-18.75,9.43-26.54,16.69c-2.48,2.32-5.58,3.62-8.67,4.87c-29.19,11.78-56.4,27.16-82.36,44.87
		c-2.06,1.41-4.14,2.83-5.9,4.61c-1.35,1.36-2.39,3.08-1.08,4.9c1.38,1.91,3.37,1.19,4.95,0.24c6.13-3.71,12.08-7.71,18.1-11.59
		c23.78-15.29,48.91-27.84,75.36-37.81c3.74-1.41,7.4-1.65,11.26-0.87c7.84,1.59,15.69,3.15,23.43,5.18
		c25.36,6.66,51.23,10.51,77.14,13.99c25.84,3.47,51.88,2.36,77.84,2.04c7.92-0.1,15.88-1.53,23.83-2.35
		c2.15-0.22,4.31-0.85,6.32,1.23c0.32,2.03-0.72,3.14-1.74,4.24c-6.14,6.61-12.9,12.51-20.85,16.8
		c-10.23,5.52-20.74,10.46-31.52,14.83c-2.16,0.87-4.32,1.77-7.15,1.38c-15.08,0.26-29.56,2.56-44.08,4.34
		c-11.74,1.44-23.44,2.73-35.31,2.59c-25.29-0.3-50.58,0.68-75.85,1.25c-25.99,0.59-51.84-0.37-77.7-2.41
		c-4.15-0.33-8.25-1.04-12.3-2.06c-1.86-0.47-3.86-0.61-4.47,1.78c-0.52,2.08,0.75,3.44,2.57,4.3c1.53,0.72,3.18,0.96,4.82,1.23
		c14.14,2.36,28.42,3.02,42.71,3.88c21.13,1.28,42.27,1.22,63.38,0.7c16.8-0.42,33.59-0.81,50.4-0.79c2.61,0,5.38-0.47,7.82,1.86
		c-2.12,2.89-5.26,2.75-8.17,3.04c-23.99,2.39-48.06,3.86-72.14,5.01c-5.15,0.25-10.33,0.45-15.45-0.47
		c-5.36-0.97-10.59,0.68-15.92,0.65c-12.44-0.08-24.84-0.87-37.34,0.59c-6.93,0.81-14.25,0.57-21.36-0.4
		c-2.82-0.39-5.67-0.4-8.41,0.53c-2.54,0.86-4.47,2.36-4.37,5.35c0.1,3.14,2.32,4.44,4.97,4.58c6.97,0.35,13.92,2.03,20.9,1.15
		c6.95-0.88,13.98-0.46,20.89-1.6c1.97-0.33,4.02-0.47,5.98-0.21c13.13,1.74,26.25-0.64,39.35,0.01
		c32.36,1.61,64.96-0.33,97.01,6.05c13.39,2.66,26.53,6.33,39.34,12.31c1.69,2.59-0.22,2.8-1.6,3.05c-2,0.37-3.97-0.3-5.92-0.7
		c-20.55-4.18-40.99-8.99-61.88-11.35c-13.71-1.55-27.43-2.96-41.23-3.71c-8.98-0.49-17.94-0.7-26.92-0.85
		c-15.36-0.26-30.51,2.22-45.75,3.47c-4.69,0.39-9.26,0.57-13.91-0.17c-3.94-0.63-7.74-0.69-9.29,4.28
		c-0.65,2.07-2.74,2.17-4.56,2.44c-2.35,0.36-5.08,0.69-5,3.75c0.08,2.92,2.84,3.36,5.12,3.84c7.34,1.53,14.8,2.26,22.19,3.52
		c28.11,4.79,55.73,11.6,83.18,19.23c1.92,0.53,3.99,1.07,5.31,2.63c7.68,9.04,17.97,14.75,27.41,21.53
		c10.28,7.38,20.42,14.96,30.44,22.69c19.93,15.38,40.64,29.66,62.45,42.18c13.4,7.69,27.52,14.16,41.9,19.93
		c2.3,0.93,4.76,1.59,6.9,3.67c1.04,1.69,1.22,3.21,0.81,4.67c-2.49,8.98-5.2,17.89-10.21,25.88c-0.36,0.57-0.9,0.97-1.82,1.46
		c-2.26-0.15-3.05-1.75-3.99-3.06c-13.09-18.35-30.98-31.06-50.23-41.9c-15.25-8.59-31.24-15.67-48.28-20.17
		c-5.53-1.46-11.25-1.34-16.73-2.59c-13.65-3.13-27-7.32-39.88-12.86c-11.76-5.06-22.96-11.17-34.21-17.33
		c-20.42-11.18-38.27-25.22-54.32-41.84c-4.18-4.33-7.97-8.94-11.33-13.92c-1.02-1.52-1.94-3.13-3.26-4.42
		c-1.69-1.65-3.69-2.6-5.78-0.93c-1.88,1.5-1.55,3.59-0.45,5.44c3.42,5.74,7.27,11.21,11.78,16.11
		c15.18,16.53,32.3,30.8,51.66,42.18c5.53,3.25,8.74,7.4,10.89,13.45c10.72,30.12,25.82,58.04,43.55,84.6
		c12.71,19.03,26.83,36.86,43.53,52.6c7.92,7.46,16.12,14.43,25.9,19.35c1.34,0.67,2.69,1.36,3.61,3.08
		c-0.28,1.99-1.55,2.79-2.86,3.52c-17.81,9.9-36.82,16.43-56.79,20.26c-1.31,0.25-2.63,0.34-4.28-0.26c-2.41-2.52-2-5.57-2.29-8.27
		c-2.12-19.44-8.45-37.65-16.21-55.39c-9.52-21.76-21.43-42.11-36.45-60.59c-3.48-4.29-7.18-8.45-11.46-11.8
		c-4.6-3.59-7.01-8.3-9.24-13.33c-11.04-24.88-23.89-48.75-40.28-70.55c-6.18-8.23-12.63-16.34-20.83-22.78
		c-0.92-0.72-1.76-1.54-2.86-1.98c-1.49-0.59-2.99-0.66-4.2,0.52c-1.37,1.35-1.28,2.98-0.51,4.62c0.44,0.92,1.16,1.61,1.91,2.28
		c15.36,13.45,26.73,30.14,37.07,47.42c23.8,39.74,39.87,82.69,51.04,127.53c3.95,15.85,6.82,31.91,8.57,48.16
		c0.19,1.79,0.78,3.7-1.69,4.92c-8.41-5.85-13.15-14.3-18.07-22.58c-4-6.73-7.28-13.87-11.3-20.59c-2.76-4.61-6.58-7.9-11.7-9.64
		c-1.9-0.65-3.7-1.5-5.51-2.36c-6.81-3.23-10.27-8.03-9.93-16.12c0.87-20.85,0-41.62-4.77-62.09
		c-7.35-31.59-19.97-60.68-39.99-86.38c-2.16-2.77-4.69-5.19-7.23-7.6c-1.52-1.45-3.22-2.51-5.38-1.43
		c-1.98,0.98-2.9,2.74-2.93,4.88c-0.08,4.53,0.83,8.88,2.11,13.25c5.52,18.95,8.94,38.24,9.13,58.06c0.04,4.73-1.59,7.04-6.27,8.54
		c-17.76,5.67-36.11,7.78-54.47,10c-16.77,2.02-33.67,1.68-50.42,0.78c-22.27-1.21-44.43-4.14-65.89-10.93
		c-4.26-1.35-5.81-3.54-5.8-7.87c0.04-20,3.55-39.44,9.13-58.55c1.23-4.21,2.08-8.4,2.13-12.76c0.03-2.32-0.78-4.29-2.96-5.38
		c-2.41-1.21-4.14,0.19-5.75,1.73c-9.39,8.96-16.3,19.77-22.71,30.91c-14.72,25.62-23.46,53.25-27.67,82.42
		c-2.01,13.93-1.71,27.95-1.21,41.9c0.31,8.75-3.44,13.79-10.86,17.08c-1.52,0.68-3.03,1.39-4.61,1.92
		c-5.29,1.8-9.18,5.23-11.97,10.04c-5.43,9.36-9.98,19.22-15.97,28.28c-3.42,5.17-7.22,9.98-12.17,14.31
		c-4.22-0.34-2.78-3.16-2.56-5.21c2.39-21.9,6.98-43.36,12.92-64.57c8.98-32.02,20.98-62.85,36.26-92.37
		c11.06-21.37,24.28-41.32,40.4-59.28c2.12-2.36,4.5-4.44,6.95-6.45c2.08-1.7,3.63-3.96,1.68-6.45c-2.06-2.62-4.46-1.2-6.55,0.42
		c-8.64,6.7-15.38,15.21-21.88,23.83c-17.35,23-30.42,48.47-42.08,74.69c-1.25,2.82-3,5.04-5.34,7.05
		c-12.4,10.65-21.8,23.78-30.38,37.52c-13.65,21.86-24.33,45.09-31.33,69.96c-2.72,9.65-3.75,19.59-5.74,29.71
		c-2.11,1.48-4.08,1.04-6.03,0.65c-19.48-3.85-38.04-10.24-55.45-19.87c-1.17-0.65-2.31-1.32-3.16-2.86
		c0.19-2.54,2.06-3.18,3.65-3.97c7.99-3.94,15-9.31,21.55-15.24c20.76-18.8,37.85-40.68,52.82-64.24
		c16.3-25.65,30.25-52.5,40.11-81.34c1.08-3.17,3.14-5.35,6-7.03c19.47-11.5,37.09-25.33,52.63-41.8
		c5.06-5.36,9.33-11.29,13.38-17.39c1.43-2.15,2.75-4.74,0.15-6.68c-2.83-2.12-5.15-0.14-6.66,2.19
		c-8.81,13.57-20.3,24.65-32.55,34.97c-10.7,9.01-22.4,16.5-34.57,23.53c-11.42,6.6-22.98,12.7-35.08,17.83
		c-13.22,5.61-26.75,10.92-40.9,12.8c-14.43,1.93-28,5.93-41.15,11.59c-23.41,10.08-45.04,23.02-63.23,41.2
		c-4.61,4.61-7.84,10.34-12.9,14.97c-0.86-0.01-1.44-0.11-1.71-0.5c-6.15-9.23-10.28-19.2-10.86-30.76
		c1.27-1.97,2.95-2.71,4.67-3.37c36.4-14,69.01-34.55,99.99-57.92c17.82-13.45,35.63-26.91,54.03-39.58
		c2.19-1.51,4.66-2.89,6.17-5.05c4.19-5.97,10.47-7.69,17-9.46c27.36-7.42,54.93-13.84,82.91-18.44c5.26-0.86,10.6-1.17,15.8-2.41
		c2.28-0.54,4.97-1.07,4.82-4.09c-0.14-2.72-2.63-3.12-4.83-3.4c-2.23-0.28-4.35-0.66-5.12-3.21c-1.04-3.43-3.74-4.13-6.74-3.72
		c-16.26,2.21-32.13-1.99-48.21-2.79c-10.5-0.53-21.02-0.72-31.47-0.14c-16.94,0.94-33.86,2.26-50.72,4.38
		c-20.7,2.6-41.01,7.21-61.42,11.34c-1.79,0.36-3.58,0.88-5.43,0.77c-1.33-0.08-2.73-0.22-2.75-2.36c2.22-2.3,4.84-2.96,7.33-3.88
		c17.77-6.53,36.12-10.4,54.95-12.27c12.93-1.29,25.87-2.45,38.87-1.99c13.34,0.47,26.65-1.46,39.93-0.88
		c20.59,0.89,41.25-1.07,61.79,1.72c6.98,0.95,13.94-0.81,20.92-1.1c2.61-0.11,4.97-1.2,5.24-4.34c0.28-3.26-1.8-4.8-4.54-5.72
		c-1.92-0.64-3.94-0.78-5.93-0.62c-13.13,1.07-26.22,0.99-39.31-0.8c-4.45-0.61-8.92,0.83-13.44,0.76
		c-20.78-0.36-41.57-0.13-62.33-1.17c-17.11-0.85-34.18-2.67-51.25-4.17c-1.98-0.17-3.96-0.57-6.09-1.87
		c0.29-3.01,2.62-2.79,4.46-2.77c15.14,0.16,30.28-0.5,45.44,0.53c15.78,1.07,31.64,0.55,47.46,0.27c21.29-0.37,42.6-1.02,63.72-4.2
		c2.63-0.4,5.31-0.62,7.79-1.7c1.85-0.81,3.11-2.18,2.63-4.27c-0.56-2.43-2.56-2.23-4.43-1.85c-25.64,5.19-51.72,5-77.61,4.9
		c-33.6-0.13-67.23-0.99-100.83-1.95c-18.6-0.53-37.03-4.23-55.58-6.2c-3.32-0.35-6.62-0.7-10.38-0.55
		c-2.61,0.73-4.66,0.27-6.71-0.6c-11.17-4.73-22.3-9.59-32.87-15.54c-8.85-4.98-16.9-11.12-22.76-20.08
		c0.93-2.92,3.13-2.61,5.04-2.33c25.84,3.84,51.86,3.15,77.81,2.53c19.79-0.47,39.36-3.97,58.95-7.03
		c22.28-3.49,43.94-9.61,65.99-14.01c4.57-0.91,8.79-0.6,13.19,1.05c31.06,11.67,59.97,27.4,87.44,45.87
		c1.93,1.3,3.77,2.77,5.97,3.62c1.47,0.56,3.03,0.79,4.06-0.74c0.97-1.44,0.41-2.89-0.53-4.17c-0.9-1.23-2.15-2.09-3.37-2.96
		c-22.2-15.79-45.68-29.36-70.43-40.72c-5.45-2.5-10.94-4.92-16.54-7.08c-2.17-0.84-4.39-1.78-6.1-3.38
		c-11.32-10.55-25.3-16.52-39.08-22.82c-2.31-1.06-4.42-2.32-6.18-4.15c-8.49-8.78-18.2-16.1-27.85-23.51
		c-1.45-1.12-2.94-2.19-4.33-3.38c-1.93-1.64-2.48-3.36,0.33-4.49c6.24-2.51,8.74-7.97,10.86-13.62c2.83-7.53,4.08-15.44,4.97-23.41
		c0.18-1.63-0.23-3.85,1.47-4.48c2.05-0.76,3.13,1.38,4.28,2.75c12.7,15.21,25.37,30.54,39.94,43.97
		c14.07,12.97,27.77,26.34,42.07,39.1c17.06,15.22,35.59,28.56,52.56,43.81c7.22,6.49,15.93,10.92,23.86,16.43
		c1.8,1.25,4.23,2.37,5.86,0.25c1.61-2.1-0.1-4.09-1.69-5.64c-1.43-1.39-3.03-2.66-4.76-3.64c-11.66-6.67-21.74-15.35-31.62-24.32
		c-8.39-7.62-18.04-13.74-26.17-21.65c-11.23-10.92-24.3-19.78-34.96-31.32c-7.02-7.6-15.21-13.98-22.38-21.42
		c-15.36-15.95-30.29-32.3-44.2-49.57c-3.02-3.75-5.98-7.57-9.15-11.2c-1.02-1.17-1.98-2.37-1.94-3.93
		c0.12-5.53-1.73-10.85-1.63-16.7c0.25-0.53,0.38-0.73,0.82-1.1c1.03-0.23,1.54,0.21,2.31,0.82c0.41,0.32,0.57,0.45,0.97,0.77
		c0.4,0.32,0.56,0.45,1.21,0.93c0.67,0.47,0.85,0.58,1.29,0.86c1.52,1.06,2.59,2.09,2.84,4.03c-0.25,2.15,0.89,2.83,2.69,3.36
		c5.83,5.01,9.76,11.28,14.81,16.58c11.82,12.4,21.81,26.47,34.46,38.11c16.15,14.87,31.68,30.41,48.76,44.27
		c7.35,5.97,14.44,12.31,21.25,18.9c12.09,11.7,24.97,22.49,37.87,33.26c4.88,4.07,9.13,8.75,13.65,13.17
		c3.62,3.54,7.44,6.69,12.53,7.82c2.06,0.46,3.19,1.65,3.43,3.72c0.02,0.16,0.05,0.33,0.1,0.49c1.3,4.13,4.78,7.04,7.78,6.33
		C441.45,420.33,440.42,416.74,440.64,413.37z"/>
	<path class="st1" d="M192.02,739.96c19.95,12.19,41.43,19.5,64.59,23.28c3.7-1.99,7.1-0.19,10.85-0.36
		c7.77,1.04,15.11,1.31,22.75-0.68c3.56-0.74,5.94-2.71,8.24-4.84c1.41-1.31,2.63-2.99,5.15-3.24c10.2-9.01,15.99-20.69,22.34-31.98
		c3.32-5.91,5.68-12.42,10.9-17.16c2.11-1.91,4.12-3.85,7.05-4.4c4.57-0.86,8.2-3.47,11.81-6.21c2.78-2.11,3.71-4.53,3.49-8.13
		c-3.04-48.25,7.73-93.22,32.75-134.63c5.66-9.37,11.65-18.57,20.09-25.93c2.04-1.78,3.5-2.76,5.99-1.81c2.6,1,4.27,2.94,4.19,5.64
		c-0.13,4.47-0.31,8.97-1.74,13.3c-6.32,19.11-8.8,38.88-10.15,58.85c-0.3,4.39,0.51,6.1,5.72,7.59
		c15.79,4.51,31.81,7.27,48.02,8.99c40.75,4.33,81.1,2.5,120.7-9.04c7.13-2.08,7.4-2.12,6.81-9.86
		c-1.46-19.27-3.84-38.41-10.12-56.84c-1.41-4.14-1.51-8.52-1.65-12.82c-0.09-2.9,1.65-4.94,4.52-5.91
		c2.36-0.79,3.74,0.02,5.54,1.82c21.08,21.02,33.16,47.12,42.43,74.77c9.28,27.66,12.49,56.16,10.56,85.2
		c-0.28,4.23,0.82,6.99,4.11,9.32c2.72,1.93,5.31,4.31,8.59,4.95c7.64,1.49,11.99,6.7,15.51,12.92
		c6.79,11.99,12.39,24.7,21.43,35.32c1.62,1.9,3.32,3.73,5.29,5.73c3.07,0.59,4.76,2.63,6.67,4.37c1.81,1.65,3.76,3.12,6.59,3.84
		c7.58,2.17,14.9,1.81,22.64,1.01c3.82-0.37,7.21-1.02,10.96-0.14c21.45-2.43,41.08-9.76,59.93-19.39c1.62-0.83,3.2-1.76,5.04-2.92
		c2.69-4.13,7.49-4.81,10.75-8.14c10.94-6.82,20.85-14.38,29.89-23.6c2.9-2.07,4.42-4.96,7.01-7.33
		c6.03-5.33,10.18-11.72,14.35-18.09c2.27-3.46,4.69-6.81,7.45-10.32c2.57-3.29,3.88-7.02,6.92-9.88
		c6.35-9.73,9.72-20.45,12.7-31.73c-1.67-3.96,0.37-7.43,0.28-11.35c1.11-4.77,0.06-9.36,1.5-14.1c-0.04-4.86,0.39-9.32-0.34-14.16
		c-0.9-15.93-5.22-30.49-12.48-44.61c-3.7-8.47-9.1-15.36-14.97-22.35c-6.05-7.54-13.26-13.31-20.85-19.18
		c-6.76-5.46-14.31-8.92-21.71-13.24c-17.83-7.46-36-12.25-54.98-14.66c-22.23-2.83-44.51-2.75-66.8-3.48
		c-18.66-0.61-37.3,0.55-55.95-0.33c-6.28-0.3-12.66,0.42-18.92,1.21c-8.68,1.11-17.29-0.18-25.94-0.16
		c-5.61,0.01-8.7-2.66-8.7-6.84c0-4.26,3.09-6.9,8.71-6.76c30.47,0.77,60.91-0.99,91.39-0.76c23.13,0.18,46.28-1.53,69.31-4.21
		c4.96-0.58,9.95-0.94,15.33-1.52c3.77-2.79,7.96-2.49,11.8-2.95c20.02-2.4,39.19-8.36,58.57-13.48c2.72-0.72,5.43-1.53,8.7-1.46
		c18.87-7.12,37.4-14.15,52.5-27.6c2.71-2.42,5.18-5.1,7.89-7.97c0.6-4.31,4.1-6.33,6.07-9.34c1-1.53,2.06-3.03,3.16-4.95
		c14.35-20.88,19.46-44.55,23.75-68.92c0.94-3.44,1.62-6.53,1.99-10.1c1.92-8.46,4.44-16.33,6.68-24.27
		c2.29-8.14,3.16-16.53,4.23-25.29c0.98-3.79,0.81-7.17-0.05-10.94c-0.46-11.76-3.33-22.32-10.43-31.91
		c-2.5-3.9-4.09-7.79-5.42-12.23c-1.82-7.64-2-14.92-0.53-22.63c0.75-4.02,1.88-7.5,3.4-11.25c4.02-9.37,9.55-17.2,17.11-24.02
		c2.77-3.07,4.77-6.17,5.54-10.31c-0.07-17.77-5.44-23.9-27.87-28.91c-1.13-0.25-2.32-0.16-3.87-0.26c-6.27-1.24-12.14-1-18.4,0.07
		c-13.43,0.32-25.54,4.46-37.46,9.18c-18.13,7.18-34.3,17.64-48.62,30.79c-6.1,5.6-11.38,12.09-16.73,18.44
		c-12.53,14.86-26.05,28.87-38.41,44.36c-5.76,6.24-10.16,13.25-17.18,18.23c-0.34,0.08-0.48,0.17-0.55,0.23
		c0.26,1.12-0.68,1.45-1.52,2c-0.31-0.02-0.38,0.08-0.43,0.1c0.21,0.42,0.14,0.76-0.53,0.98c-0.3-0.07-0.36,0.02-0.4,0.04
		c0.11,0.48-0.02,0.84-0.71,1.13c-1.36,1.17-2.39,2.34-3.54,3.83c0.39,1.81-0.57,2.49-1.98,3.25
		c-13.5,15.39-26.19,31.08-39.97,45.76c-19.16,20.42-40.63,38.43-61.48,57.1c-22.83,20.44-46.41,40.05-68.39,61.43
		c-4.12,4.01-8.3,8.36-14.55,9.05c-1.65,0.18-1.8,1.02-1.77,2.31c0.06,2.56-1.33,4.43-3.13,6c-2.56,2.22-5.45,3.58-8.6,1.36
		c-2.97-2.1-2.84-5.02-1.3-8.4c2.15-2.53,3.43-5.29,7.05-6.19c1.51-0.38,2.44-4.33,3.02-6.81c0.66-2.8,1.75-5.28,3.19-7.74
		c6.23-10.6,11.16-21.8,15.25-33.39c0.66-1.86,1.31-3.79,2.38-5.42c1.77-2.7,4.38-4,7.71-3.2c3.29,0.8,5.04,3.01,5.52,6.28
		c0.84,5.76-1.93,10.62-3.96,16.04c0.37,0.56-0.41,1.57,0.9,1.41c11.81-9.49,22.54-19.96,33.5-30.18
		c18.65-17.38,38.53-33.35,57.04-50.92c20.97-19.9,39.18-42.21,57.81-64.17c14.76-17.39,29.36-34.94,44.61-51.9
		c11.47-12.76,21.55-26.74,34.03-38.6c27.07-25.73,58.64-42.41,95.94-47.25c16.44-2.13,32.51-0.68,47.78,6.72
		c18.81,9.11,26.97,39.46,11.62,56.02c-4.27,4.61-9.08,8.8-12.02,14.59c-4.71,9.28-7.38,18.77-5.48,29.33
		c0.93,5.13,3.75,9.2,6.08,13.56c12.52,23.36,13.23,48.16,6.62,72.86c-5.99,22.37-9.02,45.45-15.89,67.47
		c-9.46,30.3-24.31,57.78-51.35,76.37c-14.57,10.02-30.88,17.26-47.7,22.45c-15.68,4.83-31.43,9.85-47.67,12.75
		c-7.84,1.4-15.73,2.48-24.49,3.85c14.99,4.32,29.32,7.91,42.98,13.56c45,18.59,70.34,53.03,78.27,100.17
		c6.71,39.87-4.81,75.69-27.96,108.26c-34.35,48.34-81.08,76.86-139.13,87.33c-9.03,1.63-18.21,2.01-27.4,1.78
		c-10.42-0.26-19.45-3.89-27.04-11.09c-12.44-11.81-22.37-25.48-29.88-40.86c-2.3-4.7-5.62-7.9-10.02-10.65
		c-5.72-3.57-10.99-7.87-16.37-11.96c-6.83-5.19-8.27-12.59-7.84-20.5c2.11-39.13-5.89-76.11-23.52-111.04
		c-0.66-1.31-0.84-3.39-3.36-3.35c1.05,8.2,2.2,16.31,3.08,24.45c0.67,6.11,1.39,12.27-0.22,18.37c-0.72,2.72-0.11,5.2,1.05,7.71
		c3.28,7.11,6.69,14.13,10.78,20.81c1.04,1.7,2.09,3.43,2.83,5.26c1.46,3.59,1.14,6.99-2.3,9.3c-3.46,2.32-6.79,1.26-9.52-1.38
		c-3.26-3.15-5.44-7.13-7.56-11.1c-1.07-2-2.15-4.01-3.3-6.16c-1.7,1.65-0.95,3.41-1.01,4.95c-0.43,11.49-0.67,22.99-1.17,34.47
		c-0.14,3.3-0.72,6.62-1.45,9.86c-0.61,2.69-2.21,5.49-5.15,5.36c-3.98-0.17-4.37,1.88-4.9,4.89c-2.81,16.07-6.39,31.99-8.58,48.17
		c-0.63,4.65-1.46,9.5-8.03,9.45c-2.09-0.02-1.76,2.06-2.04,3.45c-2.63,13.05-5.2,26.11-7.91,39.14c-0.9,4.35-1.41,9.06-6.95,10.5
		c-1.64,0.43-1.77,2.27-2.32,3.63c-3.01,7.4-6.22,14.72-10.78,21.33c-6.13,8.89-12.55,8.69-18.53-0.25
		c-2.25-3.36-5.13-6.04-9.55-6.56c-9.91-1.18-19.22-1.73-24.9,9.29c-2.73,5.29-9.89,5.37-14.11,0.8
		c-6.2-6.73-9.58-15.11-13.01-23.42c-1.01-2.44-1.86-4.56-4.88-5.72c-3.84-1.47-4.17-5.74-4.9-9.3
		c-2.69-13.04-5.34-26.08-7.85-39.16c-0.46-2.37-0.85-3.74-3.83-3.97c-5.22-0.41-5.62-5.05-6.32-8.92
		c-1.82-9.99-3.38-20.02-5.14-30.02c-1.22-6.88-2.65-13.73-3.88-20.61c-0.3-1.66-0.5-2.7-2.68-2.54c-4.64,0.34-6.38-2.9-7.3-6.7
		c-1.02-4.23-1.29-8.56-1.3-12.91c-0.02-11.59-0.01-23.18-0.01-34.76c-0.69-0.11-1.37-0.22-2.06-0.33
		c-1.11,2.06-2.21,4.12-3.32,6.19c-2.12,3.97-4.3,7.95-7.61,11.06c-2.79,2.62-6.14,3.55-9.53,1.14c-3.15-2.24-3.59-5.45-2.23-8.91
		c0.6-1.54,1.42-3,2.23-4.45c1.63-2.9,3.47-5.69,4.97-8.65c4.3-8.5,9.01-16.37,6.97-27.15c-1.73-9.15,1.03-18.85,2.3-28.26
		c0.35-2.61,0.59-5.24,0.89-7.92c-2.37-0.25-2.39,1.53-2.88,2.5c-17.8,35.05-25.92,72.18-23.69,111.48
		c0.6,10.6-3.49,18.53-12.57,24.17c-5.76,3.57-11.18,7.69-16.72,11.6c-2.27,1.6-3.33,4.1-4.51,6.48
		c-7.44,15.03-17.02,28.51-28.94,40.35c-8.49,8.44-18.58,12.51-30.52,12.46c-42.11-0.18-79.6-14.43-113.69-38.13
		c-33.39-23.21-58.3-53.65-72.37-91.98c-19.46-53.02-4.3-110.38,37.74-147.37c15.66-13.78,34.47-21.05,53.98-27
		c6.79-2.07,13.63-3.96,20.47-6.98c-8.03-1.32-16.16-2.21-24.07-4.04c-30.02-6.93-59.64-15.07-86.64-30.59
		c-15.96-9.17-28.02-22.19-38.02-37.49c-16.79-25.67-23.8-54.59-28.87-84.22c-2.03-11.83-6.71-22.94-8.75-34.81
		c-4.31-25.1-1.09-48.55,12.06-70.7c5.01-8.44,4.08-17.99,1.1-27.16c-2.39-7.37-6.09-13.95-11.81-19.38
		c-10.8-10.25-15.03-22.56-10.72-37.18c3.02-10.23,8.42-18.62,18.45-23.49c17.59-8.54,36.07-9.03,54.72-5.55
		c43.84,8.17,78.41,31.41,106.42,65.64c17.19,21,35.47,41.1,53.14,61.71c11.17,13.02,22.12,26.22,33.25,39.27
		c13.78,16.16,28.62,31.14,44.35,45.32c25.86,23.31,51.79,46.54,77.97,69.97c0.37-0.32,1.36,0.41,1.34-0.66
		c-0.94-4.34-3.25-8.09-3.82-12.43c-0.73-5.57,1.09-9.35,5.19-10.5c4.19-1.18,7.9,1.02,9.71,6.37
		c4.47,13.26,10.13,25.95,17.31,37.96c0.83,1.38,1.05,3.12,1.64,4.66c1.32,3.44,1.1,7.86,6.24,8.81c1.8,0.33,2.22,2.76,3.69,4.31
		c1.95,5.67,1.09,8.61-2.49,9.75c-3.78,1.2-9.31-2.28-9.98-6.86c-0.38-2.57-1.07-3.38-3.66-3.89c-4.71-0.92-8.19-4.34-11.57-7.5
		c-30.16-28.15-61.26-55.24-92.32-82.39c-28.64-25.03-54.09-53.11-78.25-82.83c-1.42-0.63-2.4-1.24-2.56-2.91
		c-0.83-1.61-1.77-2.88-2.98-4.34c-0.72-0.17-1.09-0.33-1.32-0.97c0.06-0.31-0.02-0.35-0.04-0.39c-0.45,0.13-0.79,0.01-0.93-0.64
		c0.13-0.28,0.03-0.34,0-0.39c-1.07,0.11-1.41-0.77-1.87-1.67c0.07-0.3-0.05-0.41-0.12-0.46c-6.64-3.56-9.95-10.29-15.03-15.28
		c-0.69-0.68-1.15-1.58-2.09-2.54c-15.86-19.11-32.13-37.39-48.53-55.54c-23.05-25.5-51.88-40.67-85.45-47.21
		c-2.14-0.42-4.28-0.65-6.84-0.53c-6.26-0.84-12.13-1.48-18.41-0.19c-6.45,0.13-12.15,1.76-17.63,4.17
		c-11.65,5.12-15.34,11.08-15.02,24.35c0.43,4.26,2.45,7.36,5.1,10.53c7.39,6.89,13.28,14.43,17.27,23.81
		c1.54,3.71,2.74,7.14,3.55,11.13c1.66,7.69,1.5,14.96-0.11,22.64c-1.34,4.45-2.68,8.46-5.24,12.38
		c-7.1,9.53-10.29,19.98-10.75,31.75c-0.68,3.75-1.28,7.12-0.32,10.93c1.12,17.21,6.61,33.05,10.89,49.56
		c0.6,3.53,0.92,6.7,1.99,10.13c2.25,11.65,4.18,22.99,7.36,34.02c3.57,12.36,8.85,24.01,16.2,35.08c2.28,5.49,7.51,8.57,9.38,14.29
		c6.03,7.92,13.37,13.95,21.61,18.66c12.09,6.92,24.8,12.64,38.22,17.6c8.6,0.33,16.44,2.72,24.07,5.29
		c15.68,5.29,31.93,7.43,48.1,10.16c2.29,0.39,4.61,0.57,7,1.99c20.14,2.53,40.01,4.48,59.97,5.33c24.11,1.03,48.24,0.62,72.36,0.91
		c14.95,0.18,29.91,0.89,44.89,0.67c5.24-0.07,8.2,2.62,8.22,6.73c0.02,4.02-2.98,6.66-8.17,6.88c-13.3,0.58-26.54,0.04-39.85-0.68
		c-17.42-0.95-34.93-0.44-52.4-0.27c-16.3,0.17-32.62,0.37-48.9,1.19c-27.84,1.41-55.22,5.47-81.47,16.68
		c-0.96,1.45-2.08,2.17-3.36,2.6c-6.72,2.28-12.29,6.52-18.29,10.72c-7.67,5.77-14.84,11.56-20.94,19.05
		c-5.96,6.9-11.3,13.79-15.12,22.18c-7.26,14.08-11.84,28.53-12.68,44.48c-0.9,4.85-0.43,9.35-0.57,14.24
		c0.08,4.83-0.45,9.31,1.32,13.98c0.42,3.95,1.64,7.43,0.74,11.43c2.15,11.47,6.27,21.9,11.88,32.16c3.81,2.36,4.48,6.53,7.15,9.67
		c7.7,9.29,12.61,20.26,21.71,28.48c2.79,2.55,4.6,5.5,7.24,8.18c9.41,8.34,18.73,16.23,29.44,22.9
		C184.52,735.12,188.76,736.59,192.02,739.96z"/>
	<path class="st2" d="M555.47,412.42c-1.05,1.06-1.9,1.83-2.76,2.56c-4.47,3.79-6.17,3.73-9.65-0.84
		c-8.14-10.69-17.86-19.43-31.17-22.74c-17.53-4.37-32.34,1.5-45,13.65c-2.74,2.63-5.11,5.67-7.54,8.62
		c-4.2,5.11-5.7,5.25-10.69,0.72c-0.48-0.44-0.9-0.96-1.64-1.55c-4.34-3.73-5.11-8.5-3.94-13.31c1.95-8.05,5.88-15.01,13.63-19.53
		c1.46-1.73,3.33-2.07,5.41-2.84c5.4-1.24,10.24,0.01,15.49,0.91c4.07-0.16,7.34-2.09,11.32-2.4c0.72,0.46,1.08,1.13,1.41,1.11
		c7.25-0.37,14.54,0.63,22.08-0.74c4.07-0.81,7.16,1.96,11.22,1.91c5.3-0.16,10.08-2.17,15.48-0.98c2.15,0.62,3.94,1.09,5.61,2.66
		c8.37,4.33,15.08,15.78,14.52,24.61C559.04,407.32,558.19,410.08,555.47,412.42z"/>
	<path class="st3" d="M545.14,379.65c-1.75-0.18-3.31-0.64-5.01-1.43c-1.17-0.89-2.35-0.99-3.41-1.45
		c-6.92-3.05-6.92-3.04-12.21,2.3c-4.23,0.13-7.79-0.94-11.45-3.09c9.98-20.97,23.07-39.32,44.28-50.4
		c6.96-3.63,14.38-6.12,22.02-7.85c3.79-0.85,7.19,0.25,8.44,4.27c1.23,3.96-0.6,6.76-4.47,8.23c-0.77,0.29-1.52,0.66-2.52,1.09
		c0.86,1.11,1.69,2.05,2.37,3.09c1.43,2.16,1.44,4.42-0.03,6.54c-1.5,2.17-3.73,2.78-6.19,2.18c-3.11-0.76-6.47-2-8.2-4.42
		c-2.59-3.62-4.51-1.85-7.16-0.25c1.91,2.31,4.78,2.94,6.9,4.63c2.84,2.26,4.87,5.01,2.92,8.58c-1.94,3.55-5.3,3.7-8.7,2.07
		c-3.76-1.81-7.49-3.69-11.13-5.74c-1.07-0.61-1.91-1.25-3.27-0.65c1.45,3.11,4.91,3.58,7.25,5.48c1.56,1.26,3.19,2.39,4.31,4.04
		c1.67,2.46,1.77,5.07-0.26,7.36c-2.04,2.3-4.64,2.56-7.24,1.06c-2.88-1.66-5.55-3.69-8.45-5.3c-2.19-1.22-4.96-4.43-6.83-0.04
		c-1.38,3.23,2.49,2.99,4.04,4.18c1.7,1.3,3.78,2.09,5.59,3.26c2.36,1.53,3.98,3.61,3.71,6.61
		C550.17,377.07,548.18,378.66,545.14,379.65z"/>
	<path class="st3" d="M489.24,375.43c-3.23,2.27-6.66,3.69-10.98,3.57c-0.59,0.03-0.87,0.12-0.9,0.06
		c-3.65-6.27-8.28-5.36-13.3-1.87c-0.39,0.27-0.94,0.3-1.74,0.52c-1.21,1.9-3.2,1.48-4.92,2.27c-2.91-1.5-5.89-2.63-5.9-6.29
		c-0.01-3.92,2.72-5.86,5.7-7.53c2.03-1.14,4.15-2.12,6.15-3.32c1.11-0.67,3.15-1.07,1.51-3.2c-1.09-1.42-2.08-2.59-4.06-1.31
		c-3.2,2.09-6.49,4.05-9.7,6.13c-3.12,2.02-6.29,2.78-8.9-0.49c-2.58-3.23-1.02-6.11,1.29-8.93c2.59-3.16,6.29-4.73,9.37-7.35
		c-3.92-0.55-6.62,2.26-9.65,3.8c-1.55,0.79-3.07,1.85-4.71,2.53c-3.14,1.29-6.08,0.81-7.85-2.22c-1.79-3.06-0.66-5.9,1.97-7.93
		c2.45-1.89,5.16-3.45,7.84-5.21c-2.78-2.26-4.92-3.33-7.44,0.25c-1.21,1.72-3.85,2.51-5.94,3.5c-2.96,1.41-5.95,1.5-8.1-1.36
		c-2.15-2.85-1.36-5.63,0.94-8.11c0.43-0.47,0.82-0.98,1.25-1.5c-6.55-3.14-8.41-5.81-6.94-9.8c1.48-4.01,5.56-4.85,12.13-3.14
		c25.22,6.57,42.9,22.55,55.92,44.41C484.66,366.94,486.89,371.03,489.24,375.43z"/>
	<path class="st4" d="M979.47,135.69c-0.1,4.18-2.4,7.12-4.93,10.24c-5.4,1.05-10.13-1.11-15.03-1.76
		c-16.81-2.23-33.25-0.32-49.44,3.96c-38.91,10.28-70.72,31.81-96.87,62.04c-3.37,3.89-5.88,8.46-8.68,12.92
		c8.89-6.38,18.24-11.99,27.69-17.41c29.94-17.19,61.24-30.9,95.6-36.44c9.66-1.56,19.42-2.74,29.43-0.35
		c-0.83,3.7-1.88,7.08-3.12,10.79c-1.52,1.62-3.22,1.62-4.89,1.59c-25.79-0.6-49.61,7.44-72.92,17.14
		c-21.75,9.05-42.21,20.59-61.6,34c-13.6,9.41-25.95,20.33-38.14,31.44c-3.01,2.75-4.47,10.32-3.02,13.97
		c0.94,2.37,2.35,1.35,3.51,0.42c2.74-2.18,5.6-4.2,8.44-6.24c21.35-15.31,44.45-27.51,68.25-38.49
		c20.91-9.65,42.31-17.97,64.42-24.48c10.12-2.98,20.44-4.7,30.84-6.14c1.64-0.23,3.34-0.31,5.18,0.88
		c1.46,3.76,2.93,7.2,5.05,10.74c-0.78,1.63-2.16,1.72-3.48,1.73c-20.04,0.12-38.66,6.65-57.13,13.26
		c-34.46,12.32-67.25,28.17-97.96,48.18c-6.28,4.09-12.51,8.27-18.12,13.27c-5.29,4.7-5.07,8.89,0.56,13.07
		c6.13,4.55,6,4.33,12.6,0.33c44.17-26.78,90.54-48.14,141.89-57.11c9.4-1.64,18.88-1.7,28.38-1.5c1.33,0.03,2.68,0.04,4.12,1.16
		c1.1,3.61,0.67,7.04,0.52,10.83c-1.44,1.16-2.82,1.58-4.4,1.47c-26.04-1.77-50.48,5.56-74.64,13.74
		c-27.86,9.44-54.23,22.26-79.62,37.09c-11.52,6.73-22.65,14.05-33.73,22.5c11.06-3.09,21.56-6.29,32.16-9.12
		c31.79-8.48,64.04-14.35,96.77-17.58c15.43-1.53,30.91-1.92,46.36-0.08c1.99,0.24,3.98,0.52,5.85,2.16
		c-0.33,3.39-0.9,6.46-1.64,9.85c-1.65,1.16-3.19,1.61-4.93,1.45c-28.61-2.61-56.87,0.55-84.99,5.46
		c-37.17,6.5-73.66,15.71-108.95,29.18c-10.23,3.91-20.58,7.72-30.27,12.96c-2.14,1.16-4.46,2.08-6.85,4.7
		c7.64,1.59,14.55,3.1,21.44,4.68c25.19,5.79,50.7,9.8,76.32,12.95c23,2.83,46.12,3.27,69.29,1.62c12.96-0.92,25.89-1.89,38.74-3.82
		c1.66-0.25,3.32-0.37,5.2,0.75c-1.61,5.45-5.81,8.97-9.27,13.38c-1.32-1.43-2.95-1.23-4.37-1c-20.77,3.35-41.7,2.87-62.63,2.98
		c-25.63,0.14-50.8-3.55-76.04-7.56c-22.63-3.59-44.62-9.8-67.02-14.29c-5.92-1.19-10.76,1.59-15.75,3.56
		c-29.83,11.76-57.71,27.17-84.16,45.23c-0.55,0.37-1.12,0.72-1.66,1.1c-2.73,1.9-6.02,3.62-8.26,0.24
		c-2.02-3.04-0.1-5.94,2.81-8.02c10.8-7.75,21.96-14.98,33.43-21.68c17.82-10.4,36.15-19.84,55.42-27.33
		c3.27-1.27,6.11-3.2,8.71-5.67c6.33-6.02,13.96-10.43,21.84-13.75c11.48-4.85,21.78-11.04,30.61-19.82
		c7.29-7.25,15.99-12.81,24.24-19.4c-12.25-4.39-13.89-15.39-16.47-25.55c-1.42-5.57-2.5-11.32-2.16-18.29
		c-4.24,4.92-7.7,9.22-11.45,13.24c-12.34,13.22-23.24,27.76-37.29,39.41c-6.13,5.08-11.12,11.53-17.14,16.77
		c-18.51,16.12-36.17,33.21-56,47.82c-10.26,7.56-19.09,16.99-30.13,23.61c-3.41,2.04-6.86,4.02-9.98,6.57
		c-2.56,2.09-6.18,3.39-8.36,0.19c-2.05-3.01,0.1-6.03,2.8-8.12c7.48-5.8,16.01-10.04,23.21-16.3
		c12.38-10.78,25.11-21.17,37.64-31.77c22.85-19.33,45.05-39.43,65.7-61.06c13.03-13.65,25.84-27.62,37.46-42.61
		c2.99-3.85,5.52-8.25,9.54-11.31c0.37-0.28,0.83-0.82,0.79-1.21c-0.57-6.43,2.52-12.59,1.15-19.38
		c4.95-6.41,10.17-12.49,15.71-18.69c2.16,1.8,1.24,3.93,0.58,5.92c-1.7,5.19-2.93,10.5-4.27,16.16c-0.48,0.71-0.2,1.58-1.07,1.56
		c-0.05,0-0.07,0.06-0.06,0.04c0.31-0.59,0.99,0.5,0.55-0.14c11.24-19.89,25.41-36.92,42.27-51.84
		c15.34-13.56,32.1-24.94,50.65-33.52c6.23-2.88,11.31-6.76,15.98-11.59c9.39-9.69,19.12-19.02,30.1-26.94
		c1.9-1.37,3.9-2.54,6.4-3.5c6.63-1.54,13.06-1.14,19.84-0.53c1.74,3.86-1.36,4.34-3.41,5.32c-12.26,5.88-22.74,14.17-32.72,23.48
		c1.65,0.84,2.88,0.02,4.13-0.21c19.01-3.5,38.03-3.87,57.07-0.32C974.3,133.37,977,133.69,979.47,135.69z"/>
	<path class="st4" d="M42.92,215.15c1.24-3.75,3.55-6.84,4.38-10.94c2.63-1.87,5.24-1.33,7.91-1.04
		c17.37,1.89,33.94,6.95,50.25,12.84c36.64,13.22,71.72,29.68,104.26,51.26c4.86,3.22,9.62,6.59,14.2,10.2
		c1.02,0.8,2.04,2.14,3.46,1.57c1.75-0.7,1.11-2.55,1.3-3.96c0.78-5.81-1.54-9.89-5.96-13.84c-14.43-12.91-29.22-25.3-45.64-35.61
		c-33.43-21-68.63-37.65-108.09-43.82c-4.66-0.73-9.31-0.36-13.96-0.53c-2.14-0.08-4.35,0.35-6.66-1.03
		c-1.42-3.6-2.54-6.95-3.75-10.67c1.53-2.43,3.85-1.79,5.93-1.86c23.06-0.74,44.92,5,66.25,12.87
		c27.78,10.24,53.82,23.92,78.02,41.03c0.79,0.56,1.51,1.31,2.71,1.38c-8.17-14.66-19.99-25.99-32.61-36.52
		c-25.95-21.65-55.2-36.37-88.87-41.66c-14.13-2.22-28.16-2.11-42.17,0.83c-1.79,0.37-3.54,0.99-5.77,0.55
		c-3.28-2.63-4.77-5.98-5.89-9.88c2.12-2.64,5.06-2.86,7.8-3.38c19.2-3.61,38.39-3.27,57.56,0.32c1.12,0.21,2.2,0.76,3.93,0.32
		c-9.66-9.53-20.11-17.4-32.02-23.32c-2.11-1.05-5.05-1.39-4.69-5.12c6.6-1.84,13.01-0.89,19.79-0.47
		c10.59,4.81,18.87,12.32,26.15,20.29c11.8,12.92,26,21.7,41.17,29.85c27.68,14.87,50.12,36,68.57,61.35
		c3.51,4.82,6.23,10.2,9.68,15.41c0.2,0.36,0.11,0.56,0.31,0.61c-0.37-0.55,0.18,0.1-0.29-0.77c-1.48-5.78-2.63-11.31-4.47-16.67
		c-0.59-1.73-1.11-3.51,0.06-5.6c5.62,5.7,10.96,11.68,16.45,17.94c-1.2,1.6-1.15,3.06-0.79,4.85c0.84,4.21,1.61,8.43,1.64,12.79
		c0.04,4.92,4.48,7.47,7.15,10.7c12.24,14.84,24.9,29.34,37.65,43.75c7.72,8.73,16.77,16.16,25.06,24.32
		c20.26,19.94,41.63,38.57,63.96,56.17c9.89,7.79,18.39,17.29,29.19,24.02c3.94,2.45,7.83,5.02,11.58,7.75
		c2.75,2,4.82,5.16,2.64,8.13c-2.25,3.06-5.6,1.4-8.46-0.31c-21.04-12.59-39.14-29.1-57.96-44.51
		c-15.1-12.37-30.09-25.11-43.84-39.14c-8.14-8.31-17.22-15.75-25.05-24.33c-11.05-12.13-22.71-23.77-32.48-37.05
		c-0.47-0.64-0.93-1.4-1.8-1.36c-3.36,15.52-1.77,33.16-18.7,43.21c5.48,4.29,11.44,8.89,17.34,13.57c3.38,2.68,7.18,5.04,9.87,8.31
		c6.89,8.36,16.57,11.81,25.81,16.31c8.64,4.21,17.27,8.65,24.24,15.52c3.59,3.54,8.31,4.81,12.73,6.65
		c29.57,12.39,57.21,28.21,83.33,46.74c0.54,0.38,1.05,0.81,1.57,1.23c2.42,1.98,3.09,4.78,1.49,7.11c-1.79,2.62-4.64,1.9-7.09,0.32
		c-9.23-5.92-18.34-12.03-27.72-17.72c-21.52-13.05-44.11-23.98-67.78-32.57c-6.07-2.2-12.18,0.63-18.01,2.15
		c-26.8,6.96-54.01,11.89-81.34,15.96c-15.19,2.26-30.61,3.7-46.09,3.41c-12.33-0.24-24.66,0.03-36.99-0.1
		c-9.78-0.11-19.44-1.73-29.15-2.73c-1.65-0.17-3.3-0.57-5.12,0.67c-4.02-3.48-7.43-7.55-10.12-12.56c1.62-2,3.65-1.65,5.62-1.37
		c24.44,3.54,49,5.12,73.69,4.56c20.34-0.46,40.48-2.81,60.57-6.08c22.54-3.67,44.97-7.79,67.18-13.05c1.12-0.27,2.33-0.3,3.66-1.39
		c-1.82-2.27-4.45-3.32-6.88-4.47c-25.18-12.01-51.39-21.18-78.3-28.42c-31.26-8.41-62.87-15.04-95.1-18.35
		c-16.42-1.69-32.89-2.1-49.37-0.67c-1.67,0.14-3.33,0.35-5.22-0.85c-1.08-3.18-1.77-6.2-2.45-9.62c1.44-2.4,3.67-2.59,5.8-2.85
		c15.95-1.93,31.91-1.4,47.85,0.16c27.23,2.66,54.13,7.37,80.75,13.68c15.7,3.72,31.19,8.18,47.51,13.12
		c-36.47-26.85-75.59-46.57-117.35-61.1c-20.03-6.97-40.65-11.62-61.9-13.26c-4.3-0.33-8.54,2.07-13.16-0.13
		c-1.06-3.58-0.64-7.01-0.45-10.8c2.11-2.07,4.51-1.68,6.82-1.77c22.14-0.86,43.34,4.09,64.24,10.63
		c37.89,11.85,73.45,28.76,106.9,50.1c2.65,1.69,4.7,2.24,6.83-0.54c0.59-0.78,1.63-1.14,2.44-1.72c5.93-4.3,6.24-8.61,0.61-13.35
		c-11.64-9.8-24.56-17.73-37.75-25.22c-34.91-19.81-71.36-35.95-110.37-45.9c-7.74-1.97-15.53-3.86-23.65-3.4
		C46.02,216.36,44.5,216.29,42.92,215.15z"/>
	<path class="st5" d="M482,536.98c6.77-0.32,13.06-0.6,19.34-0.98c6.49-0.4,12.84,1.45,19.36,1.03c12.38-0.78,24.78-1.36,36.99-3.79
		c6.22-1.23,8.84,0.74,12,7.91c4.9,11.11,7.11,22.77,7.2,34.78c0.04,5.74-1.12,11.49-1.75,17.23c-0.39,3.55-2.75,5.4-5.73,6.88
		c-10.34,5.15-21.64,5.52-32.77,7.12c-12.5,1.8-24.84-0.69-37.25-0.14c-4.8,0.21-9.66,0.7-14.37,0.69
		c-17.35-0.04-34.75-0.25-51.28-7.14c-5.32-2.22-7.12-5.97-7.73-10.99c-1.65-13.46-1.02-26.77,3.03-39.79
		c1.32-4.26,2.56-8.63,4.59-12.56c2.07-3.99,6.11-4.88,10.39-4.05C456.41,535.6,468.94,536.47,482,536.98z"/>
	<path class="st4" d="M103.7,631c-1.09-3.24-1.79-6.57-2.45-10.32c0.92-2.03,2.58-2.53,4.11-3.13
		c34.21-13.44,65.13-32.54,94.35-54.61c13.02-9.83,26.38-19.2,39.52-28.87c1.47-1.08,2.94-2.19,4.28-2.73
		c-21.31,7.41-42.87,15.34-63.74,24.96c-22.55,10.4-44.68,21.59-63.95,37.61c-3.34,2.78-6.4,5.81-9.13,9.19
		c-1.53,1.9-2.96,4.22-6.36,3.13c-1.14-5-0.43-9.77-0.13-14.93c11.47-13.38,26.21-21.78,40.84-30.22
		c24.13-13.91,49.92-24.26,76.96-34.74c-6.79-0.04-12.45,0.02-18.11-0.04c-5.83-0.06-11.61,0.46-17.41,0.86
		c-12.48,0.86-24.81,2.54-36.93,5.59c-9.56,2.4-18.89,5.39-26.47,12.18c-1.36,1.22-3.01,2.14-5.28,1.14
		c3.41-8.38,8.8-15.3,14.63-22.3c16.96-5.84,34.2-8.85,51.65-9.91c18.75-1.14,37.6-1.37,56.3,1.26c6.74,0.95,13.01,0.45,19.58-1.68
		c28.55-9.23,57.58-16.71,87.05-22.46c4.46-0.87,9.09-0.59,11.9-1.35c-3.72,1.37-9.14,0.06-14.43-0.33
		c-15.43-1.15-30.78-2-46.33-1.1c-20.96,1.22-41.85,2.71-62.6,5.88c-20.93,3.19-41.47,8.42-62.34,11.87
		c-4.11,0.68-8.18,1.63-12.31,2.14c-2.76,0.34-5.8,0.86-7.14-3.04c6.36-6.14,13.87-9.64,21.94-12.83c3.5,2.09,6.6,0.04,9.46-0.58
		c17.95-3.88,35.92-7.81,54.09-10.34c11.28-1.57,22.68-2.61,34.08-3.51c15.08-1.2,30.14-2.01,45.26-1.79
		c14.59,0.22,29.05,2.15,43.51,3.86c5.22,0.62,10.24-0.8,15.37-0.91c3.53-0.07,6.4,0.46,6.56,4.85c0.09,2.56,2.04,2.28,3.65,2.18
		c3.6-0.24,6.75,0.93,7.08,4.62c0.34,3.79-2.68,5.02-6.23,5.54c-30.82,4.51-61.28,10.79-91.37,18.85c-4.32,1.16-8.65,2.3-12.97,3.47
		c-3.55,0.96-6.38,2.64-8.98,5.58c-6.77,7.65-15.95,12.38-24.08,18.39c-18.14,13.41-35.85,27.43-54.44,40.18
		c-15.45,10.59-30.57,21.91-47.7,29.84C131.41,618.72,118.16,625.74,103.7,631z"/>
	<path class="st4" d="M901.29,590.8c1.17,4.82,1.1,9.57,0.8,14.77c-2.62,2.2-4.32,0.49-5.66-1.14c-11.51-14.14-26.88-23.16-42.37-32
		c-30.46-17.38-63.13-29.62-95.61-41.13c3.99,2.12,7.9,5.22,11.84,8.2c12.07,9.16,24.53,17.78,36.67,26.86
		c27.7,20.73,57.18,38.41,89.49,51.11c1.39,0.54,2.82,1.06,4.07,2.5c-0.38,3.69-0.95,7.06-1.67,10.78
		c-41.4-14.95-77.96-38.3-112.56-65.01c-16.42-12.68-33.41-24.57-50.23-36.71c-0.54-0.39-1.28-0.65-1.59-1.17
		c-5.6-9.49-15.79-10.2-24.86-12.67c-21.58-5.86-43.42-10.68-65.39-14.88c-9.09-1.74-18.28-2.94-27.45-4.24
		c-3.22-0.46-5.71-1.96-5.54-5.19c0.18-3.45,2.84-5.05,6.33-4.85c2.52,0.14,4.45,0.07,4.64-3.43c0.17-3.1,2.82-3.64,5.57-3.63
		c6.42,0.02,12.68,1.09,19.28,0.33c20.6-2.36,41.31-4.5,62.08-3.18c14.03,0.89,28.07,1.89,42.08,3.34
		c25.58,2.65,50.58,8.33,75.7,13.47c0.77,0.16,1.63-0.14,2.74-0.46c8.32,2.32,15.49,6.48,22.29,11.92
		c-0.37,5.21-4.17,4.12-6.97,3.67c-7.72-1.25-15.45-2.53-23.13-4.05c-21.89-4.34-43.67-9.34-65.87-11.96
		c-15.37-1.81-30.83-2.63-46.25-3.78c-18.9-1.41-37.56,0.27-56.29,1.71c-2.64,0.2-5.32,0.14-6.72-0.43
		c10.22,0.77,21.35,3.19,32.46,5.72c20.97,4.76,41.93,9.71,62.17,16.88c10.93,3.87,21.36,3.05,32.35,2.21
		c31.86-2.43,63.54-1.54,94.49,7.73c1.45,0.43,2.75,1.17,4.63,1.57c6.53,6.37,11.3,13.71,15.54,21.82c-1.94,2.24-3.8,0.87-5.19-0.36
		c-8.98-7.92-20.05-10.96-31.29-13.42c-22.01-4.82-44.33-6-67.81-5.17c17.3,6.24,33.29,13.13,49.14,20.37
		c21.69,9.92,42.42,21.5,61.12,36.46C896.92,585.42,899.34,587.68,901.29,590.8z"/>
	<path class="st4" d="M821.22,733.22c-3.33,3.05-7.06,4.94-11.03,7.03c-11.05-4.41-20.16-11.29-28.61-19.14
		c-27.46-25.5-48.37-55.9-66.37-88.51c-9.99-18.09-18.61-36.77-25.26-56.34c-0.91-2.67-2.56-4.42-5.03-5.85
		c-21.01-12.16-39.72-27.24-56.04-45.19c-4.22-4.64-7.54-10.09-11.26-15.18c-2.17-2.98-2.46-6.27,0.67-8.35
		c3.06-2.03,6.27-0.71,8.11,2.41c6,10.16,14.31,18.3,22.62,26.46c11.92,11.7,25.4,21.33,39.7,29.87
		c19.38,11.57,39.53,21.41,61.18,28.07c9.52,2.93,19.22,4.71,29.02,6.44c20.55,3.62,39.16,12.71,57.14,22.86
		c14.2,8.01,27.42,17.57,38.69,29.51c4.32,4.57,8.47,9.35,11.48,15.43c-1.14,4.02-3.44,7.02-5.7,10.41c-1.37,0-2.02-0.79-2.51-1.66
		c-11.53-20.43-30.26-32.82-49.64-44.49c-12.21-7.35-25.31-12.71-38.78-17.13c-8.07-2.65-16.66-3.21-25.65-5.47
		c3.36,5.48,7.28,9.68,10.99,13.96c9.94,11.46,18.45,24.09,28.67,35.29c11.88,13.04,23.67,26.23,39.05,35.48
		c4.42,2.66,8.37,6.04,12.58,9.04c1.3,0.93,2.91,1.76,2.97,4.06c-2.01,2.5-3.94,4.64-6.16,6.87c-3.09,1.07-4.95-0.73-7.06-2.05
		c-29.04-18.13-51.38-43.07-71.64-70.17c-8.87-11.87-18.51-23.15-27.47-34.95c-1.01-1.34-2.09-2.66-3.7-3.26
		c-12.28-4.59-24.55-9.19-36.86-15.62c1.7,6.31,4.11,11.41,6.47,16.47c20.2,43.39,45.39,83.35,81.03,115.91
		c7.37,6.74,15.54,12.6,25.47,15.3C819.54,731.08,821.03,731.14,821.22,733.22z"/>
	<path class="st4" d="M122.11,673.27c-2.94-2.74-4.54-6.21-6.41-9.82c4.55-9.77,11.79-17.14,19.54-23.9
		c15.64-13.65,33.32-24.17,52.18-32.74c12.13-5.51,24.54-10.9,37.72-12.43c24.08-2.8,45.72-12.27,67.25-22.25
		c5.33-2.47,10.16-6.46,15.31-8.98c8.29-4.05,15.91-8.95,23.21-14.28c16.98-12.37,32.6-26.25,44.2-44.09
		c0.45-0.69,0.99-1.34,1.54-1.95c2.1-2.32,4.84-2.71,7.18-1.05c2.37,1.68,2.99,4.5,1.18,7.11c-3.78,5.45-7.26,11.21-11.69,16.1
		c-16.28,17.98-34.98,33.08-55.98,45.26c-2.79,1.62-4.45,3.64-5.51,6.66c-11.28,32.19-27.1,62.01-46.2,90.25
		c-12.43,18.38-26.12,35.57-42.13,50.95c-9.18,8.83-18.97,16.65-31.02,22.08c-4.35-1.4-7.71-3.92-11.45-6.39
		c-0.98-1.88,0.27-2.4,1.35-2.69c15.18-4.04,26.06-14.44,36.6-25.12c33.59-34.05,57.6-74.31,76.11-118.1
		c0.51-1.21,1.17-2.4,1.27-4.21c-5.06,1.4-9.32,4.23-13.94,6.15c-6.15,2.56-12.31,5.12-18.62,7.23c-4.2,1.4-7.04,3.97-9.69,7.37
		c-14.34,18.38-28.47,36.94-43.35,54.87c-14.29,17.2-30.24,32.81-49.49,44.63c-3.24,1.99-5.83,5.03-10,6.15
		c-2.65-2.27-4.93-4.58-7.33-7.19c-0.72-2.73,1.34-3.44,2.73-4.46c5.35-3.96,10.6-8.08,16.22-11.68
		c14.06-9.01,25.1-21.34,35.94-33.73c13.49-15.41,25.39-32.14,38.8-47.93c-10.86,2.06-21.75,3.21-32.17,7.14
		c-26.53,10-50.53,23.86-70.65,44.1C129.85,661.35,127.04,667.9,122.11,673.27z"/>
	<path class="st4" d="M268.09,764.33c-3.66-0.08-7.01-0.39-10.71-0.93c-0.09-16.88,4.4-32.68,10.1-48.1
		c9.6-26.01,22.51-50.3,39.52-72.31c5.5-7.12,11.47-13.76,18.58-19.36c3.43-2.71,4.2-7.1,5.85-10.81
		c11.29-25.28,24.47-49.49,41.21-71.56c6.17-8.14,12.76-16.15,21-22.52c2.77-2.14,5.61-2.85,8.01-0.4c2.62,2.68,1.96,5.86-0.84,8.29
		c-18.39,15.91-31.13,36.11-43.01,56.91c-15.23,26.67-26.77,54.97-36.08,84.17c-7.56,23.69-13.8,47.73-16.83,72.51
		c-0.54,4.4-1.25,8.77-1.21,13.47c-2.79,4.14-6.53,7.16-11.27,9.42c-2.17-1.95-1.82-4.37-1.58-6.64
		c3.66-34.77,11.16-68.7,22.72-101.71c0.11-0.32,0.26-0.61,0.37-0.92c-15.15,20.44-27.02,42.64-35.44,66.66
		c-4.69,13.38-9.05,26.86-9.27,41.26C269.18,762.6,268.89,763.39,268.09,764.33z"/>
	<path class="st4" d="M744.98,762.74c-3.31,0.96-6.61,1.47-10.33,1.91c-1.57-0.76-1.82-1.93-1.86-3.1
		c-0.59-18.86-7.15-36.17-14-53.37c-7.75-19.44-18.22-37.38-30.65-54.57c10.98,31.96,18.86,64.29,22.33,97.63
		c0.39,3.76,1.78,7.53-0.23,11.59c-5.17-1.15-8.32-5.01-12.04-8.55c1.82-3.89-0.04-7.5-0.49-10.88
		c-3.92-29.32-10.99-57.93-20.75-85.83c-12.44-35.56-27.54-69.88-49.52-100.75c-7.69-10.8-15.37-21.66-25.99-29.95
		c-2.9-2.26-3.77-5.46-1.31-8.28c2.49-2.83,5.53-2.11,8.33,0.32c16.44,14.17,28.44,31.83,39.53,50.2
		c9.9,16.4,18.28,33.59,25.83,51.17c1.35,3.14,4.14,4.2,6.24,6.19c12.58,11.86,22.43,25.8,31.24,40.51
		c13.3,22.19,23.81,45.62,30.06,70.81C743.37,745.81,744.75,753.97,744.98,762.74z"/>
	<path class="st4" d="M557.08,473.46c4.15-6.2,7.01-7.55,10.89-5.49c4.64,2.46,6.05,7.04,3.95,12.89c-3.3,9.2-11.94,15.5-20.6,15.18
		c-3.72-0.13-6.89-1.8-9.47-4c-2.35-2-4.25-1.88-6.77-0.96c-4.84,1.77-9.8,3.43-15.03,2.71c-7.65-1.06-12.91-5.66-16.74-12.12
		c-0.66-1.11-1.3-2.22-2.25-3.85c-1.64,2.62-2.79,4.99-4.41,6.96c-7.49,9.08-15.15,11.15-27.13,7.16c-3.9-1.3-6.88-1.63-10.86,0.96
		c-11.91,7.75-29.27-2.26-29.66-16.63c-0.11-4.24,3.73-8.91,7.58-9.21c3.49-0.27,8.11,3.75,8.31,7.75c0.14,2.69,1.22,4.66,3.41,5.6
		c2.14,0.92,3.65-1.01,5.06-2.36c4.28-4.11,9.12-5.13,14.68-2.95c2,0.78,4.17,1.15,6.16,1.95c5.33,2.14,8.78,0.21,11.56-4.51
		c1.9-3.22,4.39-7.76,8.53-6.26c4.82,1.75,8.54,2.03,13.36-0.03c3.73-1.59,6.08,2.67,8.09,5.38c5.32,7.18,5.72,7.43,14.39,4.79
		c1.59-0.48,3.19-0.94,4.74-1.55c5.09-2,9.41-0.6,13.35,2.81c1.68,1.46,3.16,3.93,5.86,2.54
		C556.53,478.96,557.36,476.58,557.08,473.46z"/>
	<path class="st4" d="M464.97,453.68c-10.08,9.72-18.51,7.99-25.95-5.21c-2.37-4.2-4.14-8.74-4.01-13.69
		c0.13-4.85,3.52-7.86,8.49-7.81c4.49,0.04,6.34,2.08,6.47,7.45c0.04,1.71,0.43,3.27,0.96,4.86c1.08,3.22,2.98,3.59,5.05,1.13
		c5.08-6.03,10.96-5.19,17.16-2.33c1.66,0.77,3.29,1.61,4.92,2.45c4.17,2.17,7.89,2.73,10.48-2.38c0.58-1.14,1.7-2.07,2.73-2.89
		c3.9-3.07,19.63-1.24,22.15,2.97c2.75,4.61,6.01,4.48,10.11,2.5c4.02-1.94,7.82-4.4,12.49-4.79c4.04-0.34,7.05,1.23,9.65,4.16
		c2.57,2.9,4.55,2.43,5.51-1.38c0.36-1.43,0.78-2.92,0.75-4.37c-0.09-4.31,1.46-7.12,6.11-7.37c4.77-0.26,8.29,2.47,8.92,6.86
		c1.15,8.01-6.86,22.09-14.29,25.11c-5.35,2.18-9.87,0.47-13.55-3.41c-2.51-2.64-4.75-2.95-7.9-1.24
		c-4.88,2.64-10.1,3.93-15.79,3.83c-5.63-0.1-9.29-3.09-12.66-6.93c-0.92-1.04-1.2-2.63-3.22-0.62c-8.87,8.82-16,9.78-27.78,4.33
		C469.73,453.97,467.84,452.18,464.97,453.68z"/>
	<path class="st5" d="M218.34,454.62c-17.1-1.86-33.99-3.64-50.14-8.97c-9.48-3.13-19.36-4.65-29.01-8.21
		c3.28-2.57,7.19-1.59,10.83-1.18c18.4,2.08,36.72,4.96,55.16,6.53c11.74,1,23.67-0.35,35.46,0.35c18.63,1.11,37.32-0.28,55.85,1.16
		c17.69,1.38,35.18-0.82,52.78-0.55c10.69,0.16,21.42-1.79,32.12-2.87c1.12-0.11,2.19-0.73,3.26-1.19c3-1.27,5.96-1.21,7.03,2.2
		c1.03,3.29-0.02,6.48-3.99,7.28c-5.5,1.1-11.04,2.19-16.61,2.77c-33.46,3.48-67.05,3.78-100.6,2.78
		c-16.47-0.49-32.92-0.36-49.37-0.7C220.29,454.01,219.47,454.24,218.34,454.62z"/>
	<path class="st5" d="M862.78,436.84c-16.72,5.18-33.45,11.02-50.94,14.02c-8.99,1.54-18.02,2.79-27.45,4.1
		c-0.68-0.27-0.94-0.63-1.21-0.64c-15.79-0.4-31.59-0.81-47.37,0.25c-1.82,0.12-3.63,0.38-5.45,0.39c-14.33,0.04-28.66,0.27-42.98,0
		c-23.53-0.44-47.06-1.21-70.36-5c-2.79-0.46-5.68-1-6.66-4.33c-0.54-1.82-0.66-3.59,0.72-5.17c1.4-1.61,3.33-1.97,5.02-1.21
		c6.85,3.09,14.3,2.92,21.44,3.48c8.57,0.68,17.19,1.48,25.86,1.38c10.62-0.13,21.29,1.33,31.86,0.69
		c18.13-1.09,36.29,0.14,54.36-1.04c13.15-0.86,26.26-0.47,39.38-0.69c11.97-0.2,23.69-2.62,35.54-3.55
		C837.19,438.53,849.66,434.93,862.78,436.84z"/>
	<path class="st6" d="M419.51,455.48c2.33,2.49,2.6,5.01,0.97,7.51c-1.71,2.61-4.49,2.75-7.14,2.06
		c-6.59-1.7-11.05-5.93-13.08-12.38c-1.09-3.47-0.29-6.83,3.51-8.22c3.51-1.29,6.2,0.24,7.47,3.74
		C412.65,452.05,416.31,453.19,419.51,455.48z"/>
	<path class="st6" d="M590.87,447.79c1.99-3.57,4.71-4.76,8.06-3.03c3.35,1.73,3.67,4.9,2.77,8.19
		c-1.65,6.03-8.54,11.89-14.29,12.31c-2.86,0.21-5.38-0.4-6.47-3.39c-1.12-3.07-0.09-5.54,2.68-7.21
		C586.44,452.96,589.56,451.62,590.87,447.79z"/>
	<path class="st6" d="M562.59,524.43c-3.23-4.72-2.85-7.31,1.35-10.2c2.97-2.04,6.26-3.52,8.76-6.37c1.96-2.23,4.84-2.06,7.22-0.2
		c2.73,2.14,3,5.13,1.83,8.1C579.76,520.81,568.29,526.09,562.59,524.43z"/>
	<path class="st6" d="M435.43,512.62c1.56,1,2.92,1.68,4.02,2.66c2.2,1.96,2.94,4.48,1.6,7.18c-1.37,2.76-3.94,3.63-6.74,2.78
		c-4.96-1.51-9.58-3.88-12.98-7.86c-2.57-3.01-2.54-6.61,0.43-9.38c2.94-2.74,6.14-2.14,8.65,0.9
		C431.73,510.5,433.34,511.54,435.43,512.62z"/>
	<path class="st6" d="M417,436.06c-3.62-3.31-5.69-6.95-5.1-11.64c0.41-3.32,2.24-5.61,5.7-5.87c3.27-0.25,5.43,1.52,5.96,4.74
		c0.4,2.38,1.58,3.74,3.68,4.82c3.3,1.69,5.21,4.45,3.45,8.15c-1.77,3.74-5.3,3.58-8.63,2.6C420.36,438.36,418.87,437.16,417,436.06
		z"/>
	<path class="st6" d="M583.29,418.55c5.51,0.27,7.1,3.54,6.87,8.08c-0.33,6.38-6.89,12.67-13.14,12.76
		c-2.5,0.04-4.66-0.73-5.75-3.11c-1.05-2.29-0.96-4.86,1.15-6.35c3.29-2.32,6.21-4.61,6.96-8.94
		C579.63,419.62,581.35,418.84,583.29,418.55z"/>
	<path class="st6" d="M544.33,524.3c-1.8,1.99-3.37,3.71-5.5,4.76c-2.68,1.32-5.23,1.08-7.23-1.2c-1.86-2.12-2-4.77-0.33-6.89
		c2.84-3.62,5.82-7.06,7.8-11.33c0.99-2.12,3.58-2.27,5.78-1.64c2.66,0.76,4.01,2.76,4.36,5.46
		C549.79,517.91,547,520.89,544.33,524.3z"/>
	<path class="st6" d="M466.2,515.65c1.56,1.76,3.02,3.14,4.19,4.74c1.87,2.55,2.06,5.29-0.21,7.69c-2.1,2.23-4.81,2.37-7.28,0.81
		c-4.43-2.82-7.8-6.74-9.73-11.61c-1.52-3.85,0.29-8.18,3.6-9.17c4.14-1.24,6.64,0.67,7.88,4.63
		C464.93,513.66,465.52,514.49,466.2,515.65z"/>
	<path class="st6" d="M416.1,475.85c1.72,2.79,4.28,4.12,6.48,5.84c2.74,2.14,4.45,4.75,2.5,8.11c-2.04,3.5-5.41,3.5-8.71,2.05
		c-3.85-1.7-6.96-4.51-9.36-7.91c-2.1-2.97-2.34-6.37,0.52-9C410.28,472.41,413.27,472.94,416.1,475.85z"/>
	<path class="st6" d="M596.16,477.72c0.05,6.54-7.85,14.95-13.8,14.97c-2.43,0.01-4.63-0.82-5.71-3.29
		c-1.06-2.43-0.54-4.66,1.34-6.4c3.03-2.81,6.38-5.23,9.26-8.29C589.91,471.89,593.34,473.21,596.16,477.72z"/>
	<path class="st6" d="M524.35,510.32c-1.95,3.54-3.66,6.83-6.98,8.75c-2.99,1.73-6.14,2.22-8.57-0.75
		c-2.22-2.72-1.46-5.56,0.67-8.16c1.47-1.79,2.87-3.64,4.19-5.55c2.23-3.23,5.2-5.1,8.91-3.2
		C526.18,503.26,526.32,506.57,524.35,510.32z"/>
	<path class="st6" d="M494.11,512.79c0.74,3.06,0.14,5.44-2.36,6.81c-2.56,1.4-5.18,0.87-7.53-0.78c-3.85-2.7-6-6.66-7.52-10.91
		c-1.02-2.85,0.17-5.44,2.92-6.66c3.11-1.38,5.93-0.26,7.98,2.35C489.84,506.47,491.89,509.49,494.11,512.79z"/>
	<path class="st4" d="M500.33,464.11c1.3-0.01,2.52-0.14,2.25,1.38c-0.16,0.89-1.02,1.47-1.87,1.18
		C499.56,466.26,498.57,465.49,500.33,464.11z"/>
	<path class="st4" d="M760.31,239.09c0.29-1.03,0.87-1.95,1.67-3.02c1.26,0.02,2.14,0.48,1.49,1.66
		C762.9,238.76,762.24,240.07,760.31,239.09z"/>
	<path class="st4" d="M239.48,235.99c1.03,0.77,1.72,1.61,2.46,2.72c-1.1,0.94-2.1,1.01-2.96-0.23
		C238.37,237.58,237.85,236.78,239.48,235.99z"/>
	<path class="st4" d="M767.99,229.61c0.06-0.67,0.5-1.22,1.16-1.91C769.95,228.71,769.87,229.56,767.99,229.61z"/>
	<path class="st4" d="M232.46,227.92c0.68,0.12,1.2,0.6,1.83,1.32C233.22,229.9,232.33,229.82,232.46,227.92z"/>
	<path class="st4" d="M234.5,229.9c0.35-0.22,0.58-0.06,0.78,0.41C235.04,230.4,234.74,230.28,234.5,229.9z"/>
	<path class="st4" d="M760.45,241.42c0.08-0.06,0.1,0.16,0.1,0.16S760.37,241.48,760.45,241.42z"/>
	<path class="st4" d="M766.93,230.54c-0.26-0.33-0.13-0.57,0.32-0.83C767.37,229.94,767.28,230.25,766.93,230.54z"/>
	<path class="st4" d="M235.47,230.94c0.27-0.09,0.54,0.1,0.9,0.55C236.12,231.57,235.8,231.4,235.47,230.94z"/>
	<path class="st4" d="M765.83,231.72c-0.12-0.26,0.05-0.56,0.46-0.96C766.39,231,766.26,231.34,765.83,231.72z"/>
	<path class="st7" d="M44.43,318.53c11.93-2.02,23.92-1.78,35.87-1.47c20.07,0.53,39.89,3.5,59.59,7.13
		c32.16,5.93,63.77,14.03,94.65,24.86c6.88,2.41,13.47,5.73,20.21,8.3c9.03,3.45,17.75,7.27,26.1,12.07
		c0.96,0.55,2.59,0.78,2.46,2.15c-0.13,1.43-1.67,1.21-2.79,1.45c-14.89,3.15-29.67,7.07-44.7,9.35
		c-19.93,3.02-39.68,7.13-59.85,8.91c-17.11,1.51-34.17,2.02-51.26,1.55c-17.03-0.47-34.07-1.57-50.89-4.67
		c-1.3-0.24-2.65-0.14-4.42-0.18c-11.66-15.24-17.73-32.6-21.29-51C46.94,330.96,45.65,324.96,44.43,318.53z"/>
	<path class="st7" d="M933.33,387.82c-10.52,0.88-20.61,2.8-30.88,3.42c-8.92,0.54-17.81,1.55-26.76,1.74
		c-30.6,0.66-60.8-2.34-91.01-7.51c-21.23-3.63-42.17-8.38-63.28-12.46c-1.11-0.21-2.58,0-2.7-1.52c-0.09-1.15,1.25-1.4,2.09-1.87
		c8.51-4.83,17.59-8.38,26.5-12.33c11.44-5.08,23.08-9.35,34.91-13.12c28.91-9.22,58.35-16.29,88.3-21.35
		c24.27-4.09,48.6-6.49,73.23-5.92c4.35,0.1,8.53,1.33,13.34,1.19C953.36,342.59,948.35,366.79,933.33,387.82z"/>
	<path class="st7" d="M151.07,710.42c9.03-6.9,18.42-13.16,27.26-20.14c10.72-8.47,20.4-18.27,29.08-28.71
		c16.73-20.13,32.52-41.04,48.62-61.68c2.41-3.1,6.05-3.28,9.22-4.48c11.17-4.23,22.15-8.88,33.68-14.83
		c-2.21,7.92-5.26,14.47-8.26,20.96c-13.37,28.9-29.4,56.27-49.24,81.19c-13.13,16.49-27.15,32.28-45.21,43.82
		c-4.69,3-9.83,4.61-15.18,6.64C169.97,727.24,160.5,719.08,151.07,710.42z"/>
	<path class="st7" d="M821.45,733.36c-1.45-2.39-4.13-1.31-6.02-2.05c-9.27-3.66-17.27-9.25-24.5-15.92
		c-35.04-32.31-59.78-71.85-79.93-114.56c-2.89-6.14-5.25-12.53-7.81-18.72c1.33-1.52,2.36-0.32,3.22,0.13
		c11.38,5.92,23.27,10.62,35.37,14.82c1.58,0.55,3,1.25,4.1,2.66c14.44,18.59,28.48,37.51,43.52,55.6
		c12.84,15.45,26.33,30.48,43.45,41.54c6.12,3.95,11.43,9.08,18.5,12.27C842.96,718.69,832.72,726.38,821.45,733.36z"/>
	<path class="st8" d="M31.44,258.53c28.6-3.36,55.11,5.05,81.57,13.9c16.42,5.5,32.26,12.44,47.71,20.12
		c22.62,11.25,44.48,23.89,64.58,39.34c0.87,0.67,1.96,1.31,1.98,3.15c-7.71-2.29-15.25-4.65-22.85-6.78
		c-26.49-7.41-53.26-13.47-80.52-17.39c-20.2-2.9-40.41-5.37-60.86-4.87c-6.63,0.16-13.21,0.87-20.19,2.14
		C38.29,291.91,32.59,275.94,31.44,258.53z"/>
	<path class="st8" d="M959.75,307.9c-19.12-3.08-38.06-1.94-57.12-0.08c-23.27,2.27-46.21,6.3-69,11.28
		c-19.11,4.18-37.98,9.35-56.59,15.4c-0.79,0.26-1.54,0.63-2.58-0.15c3.19-3.93,7.5-6.49,11.52-9.25
		c31.62-21.78,65.54-39.1,101.65-52.2c18.76-6.8,37.89-12.1,57.67-14.67c8-1.04,16.14-2.01,24.7-0.16
		c-0.41,10.79-2.11,21.39-5.3,31.74C962.9,295.67,961.49,301.64,959.75,307.9z"/>
	<path class="st9" d="M428.81,625.95c16.86,2.68,33.39,5.5,50.1,7.21c29.98,3.06,59.38-1.12,88.69-6.65
		c1.47-0.28,2.94-0.57,4.82-0.86c3.45,4.57,2.02,9.66,1.74,14.49c-0.3,5.13-1.55,10.18-2.71,15.21
		c-1.99,8.57-7.57,13.44-15.88,15.32c-8.29,1.87-16.74,2.38-25.22,2.93c-13.79,0.9-27.6,1.36-41.37,0.75
		c-13.91-0.61-27.93-0.42-41.68-3.44c-8.97-1.97-14.92-6.9-16.9-16.13c-1.65-7.65-3.3-15.29-2.89-23.2
		C427.61,629.77,427.49,627.91,428.81,625.95z"/>
	<path class="st8" d="M42.42,215.05c27.35-0.41,51.95,9.47,76.55,19c29.39,11.38,57.35,25.69,83.77,42.91
		c6.52,4.25,13.06,8.57,18.71,14c5.07,4.87,4.32,10.5-1.83,14.19c-1.42,0.85-3.45,1.31-3.93,2.91c-1.14,3.81-3.19,1.9-4.75,0.83
		c-8.39-5.72-17.21-10.72-26.09-15.62c-27.89-15.41-56.97-28.06-87.52-37.23c-13.99-4.2-28.25-7.29-42.77-8.79
		c-7.26-0.75-14.65-0.18-22.48-0.18C32.23,235.53,34.86,224.62,42.42,215.05z"/>
	<path class="st8" d="M970.5,246.66c-29.72-1.49-57.67,6.02-85.17,15.75c-32.54,11.52-63.34,26.67-92.41,45.3
		c-2.75,1.76-4.82,4.06-7.58-0.49c-1.56-2.57-5.62-3.1-7.14-6.55c-1.53-3.48-1.64-6.1,1.4-8.87c9.89-8.99,21.18-15.96,32.53-22.82
		c31.55-19.07,64.93-34.22,100.02-45.45c14.98-4.79,30.11-9.45,46.68-8.64C967.25,223.8,969.15,234.93,970.5,246.66z"/>
	<path class="st9" d="M441.76,692.1c12.84,1.45,25.35,3.29,37.88,4.94c25.11,3.31,49.82-0.43,74.51-4.47
		c1.64-0.27,3.28-0.55,5.35-0.8c2.36,1.9,2.06,4.34,1.79,6.59c-1.21,10.3-3.77,20.25-8.2,29.68c-3.13,6.69-7.84,9.68-15.64,10.94
		c-15.25,2.47-30.47,2.09-45.74,2.56c-11.11,0.34-21.76-2.56-32.69-3.4c-3.04-0.23-5.25-2.31-6.78-4.68
		c-7.56-11.76-10.93-24.83-11.52-38.69C440.69,693.95,441.03,693.15,441.76,692.1z"/>
	<path class="st8" d="M48.04,180.43c27.66-2.04,53.16,6.33,78.07,16.73c23.06,9.63,44.81,21.82,65.1,36.46
		c9.54,6.88,18.91,14.03,27.3,22.35c1.18,1.17,2.21,2.68,3.62,3.41c7.65,3.94,8.7,10.59,7.85,18.16c-0.49,4.35-1.67,5.06-5.08,2.36
		c-21.9-17.33-46.22-30.62-71.32-42.53c-25.83-12.26-52.31-22.89-80.18-29.66c-8.2-1.99-16.53-3.38-25.47-3.78
		C48.76,196.25,50.08,188.59,48.04,180.43z"/>
	<path class="st8" d="M954.5,203.47c-21.3,1.38-41.34,7.88-61.16,15.01c-22.38,8.04-44.06,17.79-65.08,28.94
		c-17.46,9.27-34.51,19.23-50,31.65c-1.33,1.07-2.84,3.14-4.6,2.31c-1.94-0.91-1.32-3.47-1.72-5.38
		c-1.77-8.43,3.52-12.66,8.96-17.75c14.01-13.09,29.03-24.78,45.24-34.92c28.17-17.62,57.84-31.89,90.36-39.68
		c12.02-2.88,24.14-4.28,36.95-3.65C952.4,187.73,952.74,195.4,954.5,203.47z"/>
	<path class="st8" d="M121.84,673.7c7.31-15.63,19.54-26.44,33.03-36.11c18.65-13.37,38.84-23.66,60.93-29.89
		c7.89-2.22,16.14-3.17,24.92-4.83c-4.03,6.68-9.04,11.71-13.39,17.22c-7.7,9.75-15.35,19.56-23.44,28.98
		c-13.09,15.24-26.4,30.28-43.8,41.02c-5.62,3.47-10.67,7.85-16.1,12.16c-5.2-3.98-8.93-9.44-12.74-14.83
		C128.11,682.97,125.03,678.49,121.84,673.7z"/>
	<path class="st8" d="M858.44,702.43c-7.43-6.85-16.05-11.84-24.15-17.52c-11.83-8.3-21.49-18.92-30.89-29.6
		c-13.01-14.79-24.99-30.49-37.39-45.81c-1.54-1.9-2.98-3.88-5.19-6.78c7.16,1.41,13.25,2.53,19.29,3.82
		c28.53,6.11,53.18,20,75.85,37.88c9.9,7.81,18.28,16.88,24.1,28.61C873.28,683.14,867.38,693.72,858.44,702.43z"/>
	<path class="st8" d="M27.88,146.4c13.56-4.44,27.43-5.14,41.64-3.62c16.31,1.75,31.91,5.82,46.93,12.23
		c18.92,8.07,36.03,19.01,51.64,32.44c11.92,10.26,22.66,21.43,30.85,34.91c0.61,1.01,2.62,1.83,1.26,3.18
		c-1.21,1.2-2.39-0.37-3.42-1.1c-17.37-12.35-35.75-23-55.03-32.06c-22.16-10.4-45.11-18.46-69.38-22.26
		c-8.87-1.39-17.86-1.44-27.33-0.98C40.62,160.55,34.98,153.13,27.88,146.4z"/>
	<path class="st8" d="M957.67,168.95c-26.3-1.51-50.88,4.92-74.98,14c-24.53,9.24-47.52,21.45-69.35,35.91
		c-3.04,2.02-6,4.16-8.99,6.25c-0.83,0.58-1.8,1.3-2.66,0.41c-0.99-1.03,0.27-1.71,0.76-2.49c11.28-18.22,26.52-32.68,43.55-45.32
		c20.77-15.42,43.64-26.59,69.02-32.19c19.49-4.3,39.01-5.43,58.85,0.41C967.91,152.98,961.34,159.71,957.67,168.95z"/>
	<path class="st10" d="M873.11,523.31c-1,2.39-2.53,0.99-3.78,0.62c-19.8-5.94-40.03-8.77-60.71-9.02
		c-17.37-0.21-34.7-0.17-51.86,2.95c-1.6,0.29-2.94-0.45-4.34-0.91c-30.88-10.18-62.32-18.2-94.17-24.69
		c-4.67-0.95-9.39-1.62-15.43-2.66c9.27-0.95,17.14-2.24,25.05-2.46c9.79-0.27,19.54-1.94,29.35-1.09c17.15,1.48,34.35,1.9,51.5,3.7
		c26.56,2.8,52.47,8.88,78.61,13.85c6.17,1.17,12.34,2.35,18.55,3.3c2.04,0.31,4.4,0.75,6.08-1.89
		C860.22,509.46,866.64,516.19,873.11,523.31z"/>
	<path class="st10" d="M149.55,504.73c1.98,3.49,5.12,2.47,7.73,1.98c25.34-4.78,50.6-10.06,76.02-14.43
		c14-2.41,28.23-3.4,42.43-4.53c10.09-0.8,20.2-0.85,30.28-1.49c17.35-1.11,34.63,1.92,51.99,3.24
		c-20.3,3.83-40.48,8.13-60.43,13.42c-15.23,4.04-30.51,7.95-45.32,13.32c-5.08,1.84-9.94,1.5-14.58,0.49
		c-12.48-2.71-25.2-2.31-37.65-2.26c-22.81,0.09-45.63,2.33-67.59,9.52c-1.01,0.33-2.09,1.31-3.44-0.08
		C134.61,516.31,141.59,510.22,149.55,504.73z"/>
	<path class="st8" d="M99.96,606.46c2.4-0.13,3.9-1.5,5.11-3.13c7.05-9.54,16.59-16.21,26.37-22.47
		c32.39-20.74,67.7-35.2,103.85-47.82c3.87-1.35,7.71-2.79,11.76-3.81c-2.27,3.34-5.89,4.88-8.92,7.11
		c-19.26,14.11-38.5,28.26-57.95,42.1c-24.21,17.23-50.3,31.01-78.46,41.75C99.54,615.95,100.07,611.39,99.96,606.46z"/>
	<path class="st8" d="M900.84,619.88c-24.82-9.25-48.31-21.02-70.48-35.73c-25.6-16.99-49.36-36.5-74.93-53.49
		c-0.35-0.24-0.53-0.75-1.42-2.08c7.91,2.73,14.96,4.97,21.88,7.57c24.12,9.06,48.08,18.53,70.81,30.78
		c16.67,8.99,33.09,18.39,46.71,31.92c2.49,2.48,3.41,6.76,8.17,7.18C900.46,610.42,901.26,614.99,900.84,619.88z"/>
	<path class="st11" d="M428.85,625.44c-0.66,10.58,0.84,20.73,3.38,30.73c1.85,7.28,6.82,11.31,14.11,12.94
		c9.76,2.19,19.66,2.35,29.56,3.09c12.29,0.92,24.58,1.19,36.82,0.65c14.67-0.64,29.53-0.17,43.91-3.93
		c5.79-1.51,10.61-4.73,12.47-10.9c3.08-10.24,4.55-20.69,3.78-31.9c10.24-3.57,10.34-3.57,9.98,7.24
		c-0.39,11.82-1.14,23.62-1.45,35.44c-0.1,3.91-1.26,5.64-5.37,6.65c-50.49,12.31-100.89,12.22-151.29-0.38
		c-2.07-0.52-3.78-0.85-3.94-3.54c-0.94-16.09-1.79-32.19-1.84-48.67C422.45,623.73,425.5,624.48,428.85,625.44z"/>
	<path class="st0" d="M781.31,232.86c-0.52-6.03,1.74-11.68,3.42-17.46c0.54-1.87,0.86-3.8,1.25-6.11
		c11.39-16.21,25.64-29.59,37.78-44.77c15.14-18.94,33.31-34.24,55.12-45.02c14.98-7.41,30.58-12.86,47.72-14.65
		c-6.11,5.87-13.47,10.62-19.93,16.62c-6.45,6-12.67,12.22-18.94,18.39c-2.99,2.94-6.19,5.2-10.08,7
		c-18.77,8.66-35.96,19.76-51.61,33.4c-12.98,11.3-24.39,23.91-34.4,37.8C788.19,222.84,786.03,228.55,781.31,232.86z"/>
	<path class="st0" d="M221.01,232.57c-3.14-1.67-4.97-4.91-6.85-7.97c-18.2-29.69-43.41-51.9-73.29-69.22
		c-6.47-3.75-13.04-7.3-20.03-10c-1.94-0.75-3.26-2.26-4.66-3.67c-9.8-9.92-19.56-19.89-30.54-28.55
		c-3.37-2.66-6.91-5.11-10.53-7.96c20.64,1.5,39.39,9.25,57.36,19.37c17.81,10.03,32.42,23.76,45.27,39.4
		c12.37,15.05,26.21,28.81,38.2,44.59c0.26,6.45,3.47,11.83,4.4,17.8C220.65,228.29,220.98,230.19,221.01,232.57z"/>
	<path class="st10" d="M113.32,546.04c2.04,0.05,3.62-0.67,4.8-1.82c8.9-8.69,20.51-11.42,31.97-13.95
		c22.13-4.89,44.65-5.83,67.25-5.23c0.99,0.03,2.02-0.05,3.01,1.21c-2.59,2.31-5.97,2.9-9.02,4.1
		c-31.09,12.25-61.79,25.26-89.59,44.19c-7.27,4.95-14.01,10.55-21.04,16.32C101.31,575.1,105.9,560.32,113.32,546.04z"/>
	<path class="st10" d="M901.71,590.46c-6.31-4.39-12.42-9.44-18.85-14.03c-15.72-11.24-32.67-20.37-50.23-28.38
		c-16.73-7.63-33.65-14.8-50.96-21.08c0.54-2.26,2.05-1.89,3.24-1.91c24.93-0.54,49.72,0.52,73.97,6.98
		c8.99,2.4,17.91,5.14,24.78,12.03c1.06,1.06,2.47,1.68,4.4,1.77C896.2,559.53,900.15,574.42,901.71,590.46z"/>
	<path class="st8" d="M710.26,763.39c-0.84-18.2-4.08-35.76-7.74-53.23c-3.92-18.66-8.91-37.05-15.33-55.03
		c-0.49-1.36-0.78-2.79-0.78-4.4c4.86,3.84,7.82,9.11,11.08,14.12c15.4,23.71,26.95,49.13,33.81,76.62
		c1.81,7.26,3.14,14.57,2.87,22.6C726.29,765.39,718.36,766.09,710.26,763.39z"/>
	<path class="st8" d="M268.18,764.69c-0.45-21.04,6.85-40.13,14.61-59.02c7.53-18.34,17.3-35.51,29.09-51.49
		c0.99-1.34,1.82-2.75,3.6-3.6c1.05,1.78-0.26,3.24-0.73,4.56c-8.88,25.06-15.1,50.81-19.47,76.98c-1.66,9.92-3.31,19.92-3.27,30.53
		C284.42,766.64,276.45,764.99,268.18,764.69z"/>
	<path class="st12" d="M441.78,691.57c0.12,13.98,3.86,26.75,9.99,38.92c2.76,5.48,7.66,5.67,13.11,6.85
		c17.5,3.78,35.08,2.27,52.64,2.62c8.81,0.18,17.23-3.06,26.09-3.25c3.04-0.06,5.17-3.45,6.63-6.29
		c6.08-11.82,9.61-24.32,9.71-38.16c3.49-1.31,7.01-2.16,10.98-3.12c-0.34,6.62-2.29,12.63-3.43,18.76
		c-1.77,9.48-3.76,18.91-5.5,28.4c-0.4,2.18-0.87,3.05-3.47,3.63c-38.46,8.57-76.85,8.51-115.27-0.1c-1.54-0.35-2.78-0.23-3.07-2.29
		c-2.21-15.66-6.24-30.96-9.12-46.48c-0.08-0.45,0.11-0.95,0.21-1.68C434.75,690.05,438.11,690.69,441.78,691.57z"/>
	<path class="st9" d="M457.68,755.55c9.19,0.81,18.14,1.68,26.98,3.15c16.24,2.7,32.18,0.03,48.18-2.08c3.46-0.46,6.91-1,10.78-1.46
		c1.86,1.55,1.85,3.43,1.36,5.19c-2.5,9.03-8.15,17.23-19.2,18.15c-16.9,1.41-33.79,1.66-50.66-0.18
		C464.17,777.12,455.5,765.91,457.68,755.55z"/>
	<path class="st0" d="M54.6,104.76c0.35,1.85,1.35,2.64,2.93,3.28c13.6,5.51,24.44,15.04,35.36,24.44c0.81,0.7,2.23,1.48,1.53,2.79
		c-0.67,1.24-2.04,0.65-3.13,0.33c-15.54-4.45-31.48-3.98-47.35-3.45c-7.04,0.24-14.04,1.88-21.28,3.81
		c-2.16-12.05,1.89-20.23,12.53-25.84C41.12,106.99,47.48,105.22,54.6,104.76z"/>
	<path class="st0" d="M979.86,135.55c-14.66-3.61-29.51-3.93-44.44-3.59c-8.15,0.18-16.06,1.78-23.99,3.39
		c-1.38,0.28-3.08,1.46-3.87-0.32c-0.59-1.33,1.14-2.25,2.1-3.05c11.15-9.37,22.07-19.07,35.94-24.47c0.61-0.24,0.91-1.27,1.37-2.31
		c9.94,0.03,18.92,3.01,26.49,9.61c3.79,3.3,6.13,7.29,5.63,12.64C978.85,130,981.05,132.39,979.86,135.55z"/>
	<path class="st12" d="M457.6,755.07c0.55,13.05,7.34,20.54,20.43,21.97c16.7,1.83,33.42,1.49,50.1-0.16
		c8.47-0.84,15.58-10.6,15.91-21.25c2.38-1.06,4.75-1.82,7.85-1.4c-1.66,7.64-3.34,15.15-4.91,22.69c-0.35,1.68-1.68,1.77-2.79,2.43
		c-7.16,4.23-15.29,4.27-23.14,5.26c-17.96,2.27-35.85,1.12-53.65-1.82c-1.14-0.19-2.27-0.49-3.4-0.79
		c-5.54-1.48-9.73-3.83-10.31-10.61c-0.49-5.7-2.31-11.28-3.55-16.97C452.79,753.53,454.98,754.64,457.6,755.07z"/>
	<path class="st12" d="M530.76,796.41c2.66-0.88,5.06-1.45,8.37-2.23c-3.16,10.38-7.09,19.63-12.55,28.29
		c-19.24-15.59-33.45-15.61-51.02,0.05c-5.69-8.48-9.21-17.82-12.78-28.19c2.9,0.55,5.23,0.98,7.88,1.59
		c1.18,1.05,1.44,2.16,1.68,3.32c1.24,6.08,4.78,8.9,10.91,8.03c11.92-1.69,23.77-1.64,35.69,0.02c6.07,0.84,9.61-2.13,10.77-8.23
		C529.86,798.24,530.04,797.44,530.76,796.41z"/>
	<path class="st9" d="M530.59,796.04c0.41,10.8-3.77,13.95-14.39,12.28c-10.12-1.59-20.42-1.58-30.54,0.04
		c-10.07,1.61-14.64-1.63-14.69-11.84c9.3-0.3,18.26,2.47,27.6,2.68C509.3,799.43,519.64,797,530.59,796.04z"/>
	<path class="st12" d="M524.24,379.37c5.29-7.88,5.29-7.88,13.63-3.01c0.56,0.33,1.1,0.69,1.88,1.29
		C534.64,377.44,529.39,377.77,524.24,379.37z"/>
	<path class="st12" d="M462.48,377.88c0.77-0.78,1.97-1.62,3.24-2.34c7.33-4.18,7.33-4.17,11.83,3.31
		c-1.06,2.57-2.34,0.16-3.29-0.17C470.49,377.39,466.71,377.9,462.48,377.88z"/>
	<path class="st8" d="M799.25,228c0.12-0.25,0.47-0.51,0.82-0.77c0.09,0.13,0.17,0.26,0.26,0.39
		C800.05,227.74,799.77,227.86,799.25,228z"/>
	<path class="st8" d="M799,227.99c-0.09,0.04-0.18,0.08-0.12,0.07C799.01,228.01,799,228,799,227.99z"/>
	<path class="st0" d="M781,233c-0.09,0.03-0.18,0.07-0.13,0.06C781.01,233.01,781,233,781,233z"/>
	<path class="st8" d="M202.88,227.78c-0.31,0.08-0.76-0.04-1.2-0.16C202.01,226.89,202.38,227.29,202.88,227.78z"/>
	<path class="st8" d="M202.99,228c0.12,0.15,0.24,0.29,0.36,0.43c-0.08-0.05-0.17-0.11-0.3-0.3C203.01,227.99,203,228,202.99,228z"
		/>
	<path class="st0" d="M221,233c0.12,0.14,0.24,0.28,0.37,0.42c-0.08-0.05-0.17-0.1-0.3-0.29C221.01,232.99,221,233,221,233z"/>
</g>
</svg>
