<?xml version="1.0" encoding="utf-8"?>
<!-- Generator: Adobe Adobe Illustrator 24.2.0, SVG Export Plug-In . SVG Version: 6.00 Build 0)  -->
<svg version="1.1" id="レイヤー_1" xmlns="http://www.w3.org/2000/svg" xmlns:xlink="http://www.w3.org/1999/xlink" x="0px"
	 y="0px" width="1000px" height="1000px" viewBox="0 0 1000 1000" style="enable-background:new 0 0 1000 1000;"
	 xml:space="preserve">
<style type="text/css">
	.st0{fill:#060706;}
	.st1{fill:#98D86A;}
	.st2{fill:#F7F7F7;}
	.st3{fill:#6CAE39;}
	.st4{fill:#6CAD39;}
	.st5{fill:#6BAD39;}
	.st6{fill:#FDFCF0;}
	.st7{fill:#6BAC39;}
	.st8{fill:#FCFBEF;}
	.st9{fill:#FBFAEE;}
	.st10{fill:#FAF9ED;}
	.st11{fill:#F9F8ED;}
	.st12{fill:#F8F7EB;}
	.st13{fill:#DBB78F;}
	.st14{fill:#6AA938;}
	.st15{fill:#EFEEE3;}
	.st16{fill:#CA653C;}
	.st17{fill:#E3BC69;}
	.st18{fill:#F2C970;}
	.st19{fill:#171716;}
	.st20{fill:#FFFFFF;}
	.st21{fill:#0E0E0D;}
</style>
<g>
	<path class="st0" d="M800.74,427.21c6.28-1.14,10.05-4.95,10.42-10.76c0.36-5.62,4.1-7.54,7.99-9.36c5.5-2.56,8.84-6.14,8.81-12.54
		c-0.02-4.3,4.24-5.29,6.91-6.85c5.01-2.93,8.03-6.69,8.97-12.38c0.47-2.84,1.63-5.63,5.17-5.53c15.29,0.44,29.54-4.47,44.01-8.29
		c0.48-0.13,0.99-0.35,1.46-0.3c12.32,1.47,22.32-5.08,33.32-8.78c12.07-4.05,21.94-9.73,29.8-19.74c3.96-5.05,9.46-8.88,15.2-12.03
		c2.71-1.49,5.61-2.52,8.42-0.31c2.67,2.1,2.88,5.04,2.44,8.18c-0.93,6.57-3.3,12.71-7.23,17.89c-7.34,9.68-13.11,20.4-20.45,30.05
		c-3.37,4.42-5.49,8.84-6.45,14.6c-2.44,14.75-8.33,28.35-17.43,40.39c-1.39,1.84-1.99,3.44-1.35,5.86
		c0.91,3.42,0.12,6.95-0.67,10.37c-2.99,13.09-7.61,25.49-15.66,36.39c-1.63,2.2-2.64,4.55-3.15,7.21c-3.46,17.97-12,33.56-24,46.98
		c-4.34,4.86-7.27,9.51-9.22,15.72c-3.81,12.14-12.19,21.69-20.7,30.85c-5.01,5.39-9.44,11.76-17.41,13.55
		c-1,0.22-1.7,1.91-2.46,2.97c-7.46,10.33-16.11,19.52-26.13,27.38c-5.13,4.03-10.74,7.19-18.09,8.64
		c8.31,4.7,16.56,6.53,25.17,7.51c11.93,1.36,24.01-0.51,35.87,1.91c1.63,0.33,3.29,0.56,4.88,1.04c3.06,0.94,7.49,0.77,7.79,4.91
		c0.35,4.79,0.76,10.11-4.57,13.28c-4.21,2.5-8.78,3.94-13.44,5.22c-11.24,3.09-22.55,5.85-34.13,7.28
		c-2.5,0.31-4.35,1.04-5.87,3.04c-1,1.31-2.53,2.23-3.48,3.57c-6.45,9.2-14.86,5.84-23.03,3.6c-1.97-0.54-2.39-2.48-2.76-4.38
		c-0.58-2.97-2.64-3.68-4.51-1.45c-10.01,11.98-23.64,18-37.74,23.24c-2.43,0.9-3.8,2.03-4.51,4.58c-1.24,4.49-3.54,8.58-5.44,12.83
		c-4.88,10.9-14.49,16.49-24.11,22.07c-2.1,1.22-3.23,2.14-3.06,4.83c0.31,4.89-0.97,9.42-5.84,11.76
		c-4.61,2.22-8.73,0.27-12.66-2.17c-0.28-0.18-0.64-0.33-0.79-0.6c-4.7-7.88-10.46-4.41-16.31-1.71c-1.6,0.74-2.12,1.94-2.85,3.2
		c-2.03,3.46-4.32,6.72-7.35,9.4c-5.38,4.76-10.81,3.91-14.64-2.12c-0.77-1.21-0.45-3.99-2.72-3.34c-1.72,0.49-3.6,1.5-4.43,3.68
		c-1.44,3.77-3.77,7.02-6.75,9.78c-6.9,6.4-14.15,5.37-18.29-3.08c-1.62-3.3-3.17-4.16-6.63-3.22c-2.67,0.73-5.6,0.53-8.88,0.75
		c-2.12-0.1-3.74-0.36-5.38-0.6c1.41,0.51,3.12,0.02,4.58,1.44c4.2,4.44,3.72,8.13-1.55,10.18c-6.26,2.44-12.35,5.7-19.67,3.23
		c-4.22-1.42-8.5,0.84-12.63,2.05c-6.94,2.04-9.41,0.73-11.29-6.2c-0.43-1.6-0.82-3.25-0.95-4.9c-0.26-3.22,0.08-6.2,4.39-6.23
		c1.57-0.01,2.8-0.93,2.99-2.16c0.21-1.41-1.53-1.52-2.55-1.79c-1.94-0.51-3.65-3.49-6.01-0.46c-2.07,2.65-5.35,3.79-4.25,8.93
		c0.96,4.46-1.84,9.64,0.9,14.46c0.26,0.46-0.93,2.12-1.8,2.76c-3.88,2.9-3.24,6.11-0.98,9.59c3.5,5.39,3.28,6.64-1.68,10.75
		c-3.9,3.23-8.16,5.61-13.24,6.54c-7.38,1.35-15.27,4.16-22.16,2.26c-10.93-3-20.44,1.26-30.52,2.6
		c-15.62,2.08-31.16,3.06-46.47-1.78c-2.06-0.65-3.05,0.68-4.48,1.35c-18.23,8.44-37.46,12.28-57.25,8.95
		c-6.61-1.11-12.1-0.55-18.18,1.02c-12.25,3.18-24.63,5.86-37.45,4.37c-0.17-0.02-0.36,0.03-0.49-0.05
		c-10.36-5.66-21.31-1.86-32.01-1.97c-12.1-0.12-24.03-1.73-34.84-7.32c-4.43-2.29-8.36-3.21-13.26-2.76
		c-18.58,1.71-35.54-3.78-51.46-12.84c-6.14-3.49-11.52-8.05-14.12-14.97c-0.79-2.09-2.52-1.79-4.02-2.3
		c-23.21-7.95-42.55-20.38-52.01-44.46c-2.26-5.76-3.26-11.8-4.48-18.2c-12.99,5.15-24.98,11.56-36.69,18.53
		c-8.74,5.2-16.84,11.34-25.07,17.26c-1.08,0.78-2.22,1.47-3.37,2.14c-2.54,1.48-5.36,2.99-7.41-0.31
		c-1.81-2.91,0.26-4.89,2.53-6.64c20.39-15.76,42.35-28.78,66.3-38.39c2.17-0.87,4.14-1.53,4.65-4.47
		c3.89-22.45,18.85-34.18,39.48-40.24c9.21-2.71,18.79-2.19,28.23-2.76c3.29-0.2,6.61,1.24,9.32,3.22c2.86,2.09,4.47,1.16,6.36-1.32
		c8.33-10.94,12.68-23.21,13.2-36.96c0.19-4.92-2.5-9.06-2.48-14.09c0.06-14.61,5.36-26.91,14.36-37.93
		c7.11-8.71,15.18-16.65,24.87-22.17c7.07-4.03,14.29-8.21,22.23-10.62c0.79-0.24,1.78-0.78,2.39-0.52
		c5.66,2.42,8.13-2.1,11.39-5.02c6.09-5.46,12.75-10.16,19.67-14.38c-0.06-1.15-0.91-1.34-1.62-1.73
		c-8.35-4.52-16.79-8.9-22.75-16.67c-0.54-0.71-1.18-1.04-2.07-1.15c-13.73-1.79-24.21-9.88-34.24-18.4
		c-6.44-5.48-14.21-10.17-16.15-19.52c-0.2-0.96-1.24-0.95-1.97-1.28c-16.59-7.31-28.96-19.87-40.8-33.04
		c-1.86-2.07-3.71-3.51-6.39-4.31c-9.46-2.81-18.75-6.56-26.38-12.68c-4.86-3.9-9.96-4.83-15.45-6.01
		c-7.34-1.58-14.43-4.02-21.17-7.33c-2.67-1.31-5.27-2.86-7.66-4.64c-3.12-2.32-5.41-5.53-3.74-9.46c1.76-4.15,5.83-4.41,9.82-4.07
		c15.08,1.28,30.14,3.07,45.24,3.59c6.29,0.22,12.58-2.7,19.03-3.46c9.44-1.1,18.89-1.42,28.39-1.66c6.63-0.17,8.67,5.59,13.08,8.33
		c-0.25-11.35,6.62-16.1,17.24-11.69c0.42-0.29,1.51,0.35,1.34-0.75c-16.87-30.83-10.11-59.93,5.92-88.51
		c3.28-5.85,7.76-9.72,14.26-11.41c2.63-0.68,5.28-1.35,7.87-0.6c8.91,2.6,16.4,0.21,23.17-5.8c3.27-2.9,7.34-3.81,11.68-3.23
		c7.21,0.95,14.01,2.95,19.38,8.21c1.33,1.3,2.69,1.63,4.49,1.44c14.95-1.58,28.33,2.33,39.99,11.85c1.75,1.43,2.79,1.37,4.63,0
		c15.78-11.68,39.39-12.52,55.37-1.85c2.49,1.66,4.15,0.95,6.34,0.02c14.58-6.25,29.67-7.74,43.93-0.43
		c6.82,3.49,12.21,3.65,19.2,1.78c14.06-3.75,28.31-3.8,42.16,1.67c2.05,0.81,3.88,0.07,5.83-0.33c17.32-3.49,34.12-1.62,48.99,7.92
		c6.21,3.98,11.84,6.1,19.19,6.86c14.3,1.47,26.5,8.47,36.47,18.9c1.61,1.69,2.91,2.9,5.32,2.8c1.11-0.05,2.38,0.29,3.35,0.85
		c8.87,5.18,16.56,1.13,24.26-2.98c2.92-1.56,5.14-5.5,9.2-3.24c3.87,2.15,2.04,6.19,2.39,9.96c5.23-2.35,10.44-3.03,15.79-2.13
		c1.23,0.21,1.73-0.44,2.41-1.24c7.77-9.21,18.03-15.06,29.13-18.53c8.18-2.56,12.93-7.91,17.07-14.29
		c6.73-10.38,16.48-13.79,28.11-13.17c3.96,0.21,7.87,1.3,11.79,2.06c10.22,1.97,18.54,6.6,24.36,15.71
		c4.01,6.27,9.1,11.84,13.51,17.87c1.33,1.82,3.17,2.29,4.94,3.1c11.44,5.2,17.7,15.78,16.03,27.14
		c-0.95,6.48-5.56,11.87-11.86,13.19c-2.12,0.44-2.4,1.12-1.94,2.91c0.93,3.59,0.87,7.27,0.73,10.93
		c-0.31,7.76-3.85,10.47-11.42,8.79c-1.45-0.32-2.87-0.86-4.24-1.44c-5.5-2.36-6.08-2.25-8.36,3.69c-1.88,4.89-5.05,8.58-9.3,11.4
		c-4.38,2.9-8.11,2.44-12.39-1.37c-0.32-0.15-0.68-0.45-0.68-0.45s-0.47,0.04-0.66,0.16c-2.85,2.55-5.09,5.42-8.37,7.13
		c-7.23,3.76-12.47,1.97-16.17-5.77c-0.79-0.5-1.35-0.77-2.23-0.42c-9.24,6.69-17.46,14.13-25.84,21.37
		c-1.02,0.88-1.99,2.25-3.29,2.02c-4.68-0.82-6.66,2.67-9.13,5.37c-5.09,5.56-10.73,10.02-18.86,9.57
		c-2.24-0.12-2.05,1.78-2.51,3.07c-0.81,2.31,1.35,1.9,2.3,2.15c5,1.27,9.78-0.26,13.85-2.71c4.91-2.95,9.87-2.27,14.93-1.91
		c4.18,0.29,8.14,0.72,11.72-2.51c2.64-2.39,6.1-1.12,6.15,2.33c0.08,5.52,4,4.03,6,3.11c4.96-2.29,10.27-2.3,15.38-3.45
		c4.28-0.96,8.39-2.33,11.4-5.7c2.48-2.78,5.95-2.79,9.12-3.46c3.94-0.83,7.03-2.91,9.83-5.58c0.93-0.89,2.19-2.08,1.26-3.42
		c-0.84-1.21-2.19-0.1-3.15,0.3c-2.76,1.14-5.44,2.47-8.13,3.78c-3.79,1.85-7.72,3.17-11.98,2.97c-5.43-0.25-7.9-4.8-5.27-9.49
		c3.72-6.63,19.36-14.25,27.01-13.16c4.16,0.59,6.03,3.33,6.05,9.16C800.28,427.14,800.41,427.28,800.74,427.21z"/>
	<path class="st0" d="M557.42,814.86c-7.88,0.49-10.79-1.37-11.68-7.16c-1.09-7.06,1.51-11.05,8.57-12.58
		c4.64-1,9.21-0.83,13.21,2.37c4.32,3.45,4.65,6.95,0.78,10.86C565.34,811.33,561.86,813.51,557.42,814.86z"/>
	<path class="st1" d="M591.65,773.6c-2.99-0.31-5.95-0.89-8.9-1.47c3.02-1.56,5.66,0.35,8.72,0.42
		C591.71,772.98,591.7,773.16,591.65,773.6z"/>
	<path class="st2" d="M753.37,413.03c0.12-0.85,0.51-1.98,1.82-0.43C754.73,413.01,754.23,413.02,753.37,413.03z"/>
	<path class="st2" d="M780.1,412.01c-0.08-0.45-0.09-1.33,0.85-0.3C780.81,412.02,780.61,412.02,780.1,412.01z"/>
	<path class="st2" d="M800.74,427c0.02,0.59-0.19,1.09-0.74,0.25C800.15,427.01,800.54,426.99,800.74,427z"/>
	<path class="st3" d="M674.46,582.7c1.81,3.3,3.57,6.33,6.22,8.7c2.4,2.14,1.84,4.07-0.33,5.81c-6.6,5.32-11.25,12.2-15.37,19.45
		c-1.4,2.47-2.99,3.95-5.87,4.74c-7.28,1.99-13.96,5.41-19.93,10.07c-6.68,5.21-12.14,5.75-19.44,1.67
		c-2.03-1.13-4.2-2.21-5.86-3.78c-4.8-4.55-10.24-4.54-15.77-2.26c-16.04,6.61-28.05,18.22-38.49,31.68c-2.5,3.22-2.1,7.36-2.53,11
		c-1.64,13.92-8.69,25.66-14.52,37.88c-1.6,3.36-4.79,5.93-6.96,9.06c-3.46,4.98-6.21,10.29-5.74,16.65
		c0.32,4.28-3.58,6.16-5.52,9.51c-2.17-0.39-2.52-2.13-3.06-3.66c-6.92-19.58-16.73-37.65-28.7-54.58
		c-3.37-4.76-6.75-9.52-11.87-12.63c-2.15-1.31-4.39-2.42-6.98-2.41c-1.24,0.01-2.32,0.48-2.73,1.76c-0.44,1.36,0.29,2.38,1.42,2.83
		c11.12,4.41,16.04,14.61,21.82,23.8c11.75,18.7,20.79,38.65,25.97,60.22c0.67,2.79,1.92,4.58,5.42,4.04
		c5.9,3.87,5.39,3.85,5.21,10.62c-0.13,5.05-2.31,10.13-0.26,15.22c0.17,0.43,0.32,1.12,0.1,1.43c-3.8,5.6-3.16,11.22-0.5,17.06
		c0.77,1.69-1.15,2.82-2.47,3.19c-9.43,2.6-19.45,7.05-28.61,4.38c-7.03-2.05-12.67-1.48-18.92,0.16
		c-14.96,3.93-30.08,5.59-45.47,3.46c-3.24-0.45-6.57-0.66-9.02-3.56c-1.84-2.18-4.16-1.47-6.29-0.03
		c-16.09,10.89-34.42,12.4-53.04,12.54c-1.62,0.01-3.76-0.17-4.77-1.16c-4.35-4.3-8.89-2.33-13.48-0.95
		c-10.7,3.21-21.47,6-32.7,6.64c-6.99,0.4-13.59-0.6-19.55-4.58c-1.83-1.23-3.92-2.22-6.07-0.91c-7.38,4.48-15.43,3.14-23.34,2.71
		c-11.27-0.61-21.67-4.51-31.77-9.22c-2.44-1.14-4.77-0.95-7.29-0.76c-19.85,1.44-37.88-3.7-54.06-15.25
		c-2.6-1.85-4.75-4.01-4.32-7.83c0.32-2.84-1.91-3.85-4.39-4.49c-9.24-2.4-17.97-6.01-26.04-11.18
		c-14.83-9.5-24.79-22.49-28.65-39.85c-0.78-3.53-2.02-7.13,0.65-10.48c0.28-0.35,0.38-0.97,0.31-1.43
		c-2.75-17.43,8.49-26.14,21.39-33.22c11.63-6.38,24.56-6.72,37.5-5.85c1.89,0.13,3.37,1.31,5.01,2.12c2.5,1.22,4.37,3.62,7.71,3.86
		c3.32,1.19,5.67,3.39,8.11,5.33c8.79,6.98,18.82,11.15,29.57,13.87c12.18,3.08,24.07,1.97,35.75-2.35
		c1.55-0.57,3.49-1.29,3.04-3.35c-0.53-2.46-2.81-2.09-4.52-1.68c-6.28,1.5-12.32,3.92-19.01,3.66
		c-12.24-0.47-23.59-3.83-33.95-10.23c-4.65-2.87-9.2-5.96-13.48-9.99c14.46-15.63,20.62-33.71,16.9-54.63
		c-1.59-8.94-0.8-17.33,3.4-25.18c4.61-8.62,10.74-15.8,18.26-22.49c8.36-7.44,17.41-13.11,27.1-18.15c2.98-1.55,5.88-3.44,8.77,1
		c1.62,2.5,5.22,1.5,6.07-1.18c2.2-6.98,8.35-10.09,13.18-14.39c3.44-3.06,7.69-5.22,11.63-7.71c4.39-2.77,8.69-5.11,14.42-3.53
		c3.88,1.07,8.08,0.54,7.57-5.43c2.32-0.13,1.49,1.94,2.33,2.8c1.81,1.85,3.95,2.55,5.63,0.54c7.06-8.4,17.49-10.5,26.8-14.69
		c2.57-1.16,5.35-1.83,8.01-2.79c6.74-2.44,12.25-3.57,18.54,3.07c7.5,7.92,18.77,9.48,29.47,10.69
		c12.91,1.46,25.57,0.66,37.72-4.42c0.81-0.34,1.67-0.72,2.28,0.04c3.13,3.83,8.43,4.86,10.99,9.77
		c4.51,8.62,15.26,10.52,23.44,2.56c6.43-6.25,13.95-8.09,21.49-10.96c8.55-3.25,17.09-6.51,25.03-11.16
		c4.93-2.89,7.91-1.11,8.13,4.33c0.13,3.32,0.37,6.66,0.9,9.93c1.75,10.68,11.1,14.39,19.42,7.44c3.06-2.55,5.54-3.61,9.66-2.82
		c4.21,0.81,9.03,1.63,12.91-1.71c1.68-1.45,2.24-0.1,3.06,0.92c3.13,3.9,6.37,7.7,10.63,10.46c5.94,3.85,12.18,6.13,20.05,3.41
		c0,2.28-0.06,4.18,0.01,6.08c0.3,8.26,5.59,12.39,13.4,9.59c4.44-1.6,8.23-2.76,12.46,0.11c1.21,0.82,2.9,0.64,4.59-0.47
		c2.43-0.32,4.31,0.28,6.32,1.62c0.29,3.1,0.04,5.91,0.82,8.7c1.55,5.48,5.6,9.11,10.83,9.57c5.99,0.52,9.88-1.77,12.79-7.8
		C673.49,582.61,673.83,582.5,674.46,582.7z"/>
	<path class="st4" d="M796.32,627.09c2.53-7.89,5.19-15.66,6.1-24.04c1.86-17.22-1.45-33.09-11.26-47.43
		c-2.57-3.76-7.07-6.2-7.9-11.16c-0.63-3.81-1.77-7.44-3.51-10.87c-6.39-12.57-15.02-23.11-27.65-30.46
		c-1.2-3.66,1.87-4.11,3.58-5.18c20.3-12.73,40.74-25.26,60.46-38.88c15.2-10.5,30.27-21.19,43.58-34.1
		c1.78-1.72,5.25-3.88,2.96-6.42c-2.52-2.79-5.15,0.52-7.12,2.23c-26.19,22.82-55.29,41.59-84.36,60.38
		c-7.68,4.97-15.44,9.83-23.22,14.65c-1.7,1.06-3.39,2.1-5.63,2.87c-3.29-0.12-6.27-0.73-9.22-0.61c-3.88,0.16-6.73-1.28-9.14-4.56
		c4.28-6.77,1.69-14.85,4.83-21.63c0.56-1.2,0.2-2.79-1.28-3.41c-1.74-0.73-2.88,0.43-3.67,1.77c-1.81,3.08-2.46,6.48-2.59,10.04
		c-0.11,3.13,0.61,6.34-1.15,9.59c-2.79-1.04-5.29-2.3-7.79-3.59c-7.77-4.02-15.83-5.92-24.53-3.46c-2.24,0.63-4.1-0.36-6.05-1.53
		c-6.9-4.16-14.25-7.15-22.35-8.07c-2.5-0.28-4.92-0.68-7.32,0.57c-1.06,0.55-2.37,0.58-3-0.78c-0.57-1.23,0.42-1.88,1.32-2.25
		c3.39-1.39,5.31-6.29,10.64-3.3c2.72,1.53,5.63-3.67,8.36-3.06c2.37,0.53,2.95,5.01,6.41,5.61c4.99,0.86,8.88-1.25,11.91-4.82
		c1.71-2.01,2.89-1.98,5.31-1.2c8.05,2.57,15.43-0.16,22.34-4.15c2.19-1.26,3.96-2.28,6.22-0.58c0.13,0.1,0.31,0.2,0.46,0.19
		c8.65-0.56,16.53,4.07,25.15,3.7c0.5-0.02,1.08,0.11,1.49-0.09c10.49-5.21,24.08-1.94,32.84-11.95c0.4-0.45,1.14-0.83,1.73-0.85
		c10.96-0.41,17.34-7.07,22.41-16.05c2.22,2.27,1.25,5.05,1.7,7.57c0.27,1.51,0.65,3.14,2.46,3.19c2.16,0.07,2.38-1.78,2.73-3.42
		c0.67-3.16-1.69-5.55-1.87-8.75c4.64-3.89,7.23-8.6,8.43-14.14c0.42-1.95,0.8-3.7,3.29-4.38c7.95-2.18,11.89-8.03,13.52-15.71
		c0.35-1.66,0.46-2.95,2.5-3.74c6.48-2.51,10.45-7.55,12.42-14.06c0.75-2.48,1.84-3.85,4.45-3.59c4.56,0.45,9.35-2.68,13.77,1.4
		c1.51,1.4,3.74-0.38,5.43-1.46c11.41-7.26,23.65-10.1,37.06-7.14c2.5,0.55,5.17,0.55,6.19-2.58c0.54-1.66,1.88-2.24,3.18-2.94
		c7.94-4.29,16.27-7.65,25.1-9.5c3.47-0.73,5.55-2.31,7.79-5.19c5.5-7.07,11.68-13.64,19.42-18.98c0.32-0.1,0.79,0.02,0.85,0.25
		c-1.32,7.15-5.18,12.78-9.53,18.05c-2.72,3.29-5.37,6.41-7.29,10.39c-3.33,6.88-8.05,13.02-13,18.88
		c-1.58,1.87-2.25,3.83-2.51,6.29c-1.73,16.44-7.67,31.23-18.03,44.15c-1.36,1.7-2.07,3.22-1.85,5.38
		c1.71,17.22-5.29,31.83-14.42,45.55c-1.99,2.98-3.78,5.74-4.41,9.2c-2.86,15.8-10.41,29.36-19.9,42.01
		c-0.5,0.66-0.95,1.58-1.63,1.85c-6.79,2.66-8.02,9.46-9.99,14.93c-5.42,15.08-15.39,26.7-26.27,37.8
		c-1.89,1.93-4.56,2.57-7.34,2.33c-1.97-0.17-4.06,0.22-4.38,2.37c-0.8,5.32-4.38,8.87-7.54,12.66
		c-5.77,6.92-12.15,13.27-19.35,18.72C803.59,623.88,800.52,626.24,796.32,627.09z"/>
	<path class="st5" d="M565.63,406.73c-0.52,2.11-2.07,1.17-3.23,1.15c-23.68-0.41-41.37,10.6-55.06,29.02
		c-1.74,2.34-2.68,3.3-5.8,1.96c-10.31-4.42-20.92-2.55-31.38-0.36c-8.86,1.86-17.28,5-24.8,10.15c-2.07,1.42-3.28,1.26-5.05-0.47
		c-10.08-9.87-22.8-10.87-35.83-9.93c-5.42,0.39-10.92,1.24-16.06,3.26c-1.94,0.76-3.07-0.02-4.45-1.1
		c-10.72-8.36-22.62-13.3-36.49-12.19c-1.79,0.14-3.08-0.3-3.37-2.06c-0.48-2.92-3.73-5.92-0.77-8.78
		c4.8-4.62,6.7-11.16,10.39-15.94c4.68-6.06,10.75-13.11,17.86-15.75c10.83-4.02,20.56-8.32,26.87-18.37
		c0.92-1.46,2.43-1.74,3.87-1.97c10.03-1.53,20.02-3.44,30.22-3.26c3.43,0.06,6.94-0.62,9.95,2.02c1.37,1.2,3.42,0.82,4.65-0.38
		c7.7-7.49,17.74-7.63,27.36-8.44c9.28-0.78,18.67-0.73,27.41,3.58c1.54,0.76,3.55,0.75,4.55-0.85c2.11-3.37,5.54-3.52,8.76-3.82
		c16.6-1.52,33.21-0.59,48.73,5.3c5.73,2.17,9.7,0.25,14.58,0.06c9.62-0.38,19.27,0.69,28.71,2.89c6.65,1.54,13.24,3.29,19.58,5.88
		c2.36,0.96,2.62,1.69,0.56,3.68c-4.75,4.59-9.78,6.69-16.73,7.41c-15.6,1.61-29.33,8.39-40.34,20.52
		c-4.73-5.14-8.01-11.4-13.49-15.89c-1.54-1.26-2.9-2.73-4.68-3.68c-1.23-0.66-2.58-1.07-3.67,0.09c-1.3,1.39-0.53,2.77,0.39,4.03
		c0.49,0.67,1.07,1.29,1.75,1.76C557.89,391.28,561.98,398.63,565.63,406.73z"/>
	<path class="st6" d="M580.14,663.11c-1.11-1.92-2.53-2.5-4.64-2.34c-3.73-0.06-4.87-1.81-3.74-5.34
		c8.98-5.78,16.11-13.41,25.22-18.35c4.29-2.33,8.12-2.83,12.57,0c8.77,5.59,18.46,8.15,28.93,7.03c3.17-0.34,5.77,0.52,8.16,2.75
		c4.94,4.61,10.53,7.95,17.61,8.01c1.66,0.01,3.31,0.35,4.93-0.25c2.1-0.79,3.33-2.19,2.99-4.55c-0.31-2.18-1.76-3.3-3.81-3.15
		c-9,0.67-14.54-5.34-20.88-10.21c22.13-15.54,51.98-9.62,68.45,13.31c14.78,20.57,16.07,49.59,2.66,71.06
		c-4.51,7.22-10.86,12.94-18.49,17.02c-1.35,0.72-2.56,1.13-4.23,0.7c-4.91-1.28-5.9-0.31-5.67,5.53c-2.03,2.78-4.89,3.42-8.22,3.94
		c-2.84-1.18-1.88-2.85-1.12-4.58c1.98-4.5,2.76-9.24,2.09-14.11c-0.4-2.92-1.43-5.81-5.12-5.55c-3.79,0.27-4.06,3.16-3.96,6.23
		c0.38,11.62-3.42,16.8-14.81,19.05c-5.1,1-3.84,4.9-5.05,8.2c-2.62,2.23-5.39,2.16-8.52,1.62c-2.04-2.9-3.92-4.28-7.29-2.46
		c-1.93,1.04-4.39,1.36-6.64,1.49c-2.9,0.16-4.57,1.54-5.68,4.43c-3.74,2.84-7.55,4.61-12.42,3.77c-2.68-4.3-6.26-4.64-10.21-3.28
		c-3.94,1.36-7.87,2.34-12.32,1.27c3.95-7.73,5.56-15.67,4.8-24.13c-1.35-15.05-10.7-24.24-22.93-31.09
		c-2.87-1.61-2.87-2.63-1.59-5.14c2.17-4.23,4.83-8.41,3.96-14.02c4.13,4.27,10.68,2.63,14.87,7.42c2.15,2.45,6.82,2.56,8.28,6.64
		c0.28,0.78,1.82,1.11,2.72,0.62c2.67-1.46,2.92-0.1,2.97,2.13c0.03,1.62,1.1,2.79,2.7,3.2c1.13,0.29,2.15,0.49,3,1.51
		c4.65,5.58,11.05,4.57,13.88-2.13c1.16-2.75,2.27-5.53,3.46-8.27c3.21-7.41,0.57-13.82-3.7-20.2c-2.69-2.21-3.83-5.29-6.56-7.45
		c-1.1-1.52-1.32-3.13-2.6-4.55c-2.95-2.79-6.11-3.07-9.87-1.94c-1.29,0.32-2.25,0.48-3.54,0.9c-3,0.4-5.68,1.06-8.25-1.21
		c-1.03-0.51-1.84-0.68-3.06-0.84C585.82,666.33,583.07,664.95,580.14,663.11z"/>
	<path class="st7" d="M135.98,420.02c-2.95-2.74-6.52-2.25-9.7-2.96c-8.42-1.88-16.65-4.18-25.22-8.75
		c7.63-0.74,14.22,0.22,20.6,1.13c14.35,2.05,28.33,1.35,42.47-1.64c8.27-1.75,16.84-1.98,25.35-1.62c2.27,0.1,4.26,0.3,4.62,3.31
		c0.23,1.96,1.94,3.09,3.7,3.73c2.18,0.79,4.41,1.51,6.68,2c5.82,1.24,10.91,2.18,15.47,7.73c6.2,7.54,16.58,8.49,26.08,9.58
		c2.08,0.24,3.51,0.43,4.82,2.49c3,4.7,8.25,4.7,13.01,4.77c8.67,0.13,17.27-0.82,25.66-3.21c1.1-0.31,2.56-1.04,3.31-0.62
		c8.56,4.8,16.15,1.18,23.57-2.72c3.05-1.6,3.54-1.17,4.21,2.13c1.09,5.37-0.24,8.77-4.65,12.38
		c-16.01,13.12-24.93,30.08-24.96,51.11c-0.01,6.28,1.77,12.2,5.93,17.13c6.27,7.44,12.69,8.25,19.85,1.95
		c2.59-2.28,4.78-2.39,7.94-2.08c8.5,0.83,17.18,2.83,25.33-2.03c1.74-1.04,3.35,0.93,5.09,1.41c-0.29,1.82-1.9,1.66-2.99,2.07
		c-9.5,3.58-19,7.16-27.73,12.47c-0.83,0.5-1.75,1.44-2.72,0.9c-6.11-3.46-11.65-0.29-17.17,1.6c-3.06,1.05-5.67,1.15-8.63-0.1
		c-6.95-2.93-13.42-6.65-19.41-11.2c-0.92-0.7-2.34-1.47-2.48-2.37c-0.97-6.2-6.03-6.2-10.43-7.1
		c-13.48-2.76-23.59-11.27-33.52-19.9c-4.08-3.55-9.38-6.62-8.38-13.68c0.29-2.03-2.16-3.18-4.11-3.84
		c-16.06-5.47-27.35-17.37-38.97-28.84c-1.57-8.69-9.35-8.3-15.36-10.72c-7.8-3.15-16.1-5.42-22.18-11.93
		C139.97,421.38,137.88,421.06,135.98,420.02z"/>
	<path class="st8" d="M729.21,421.92c0.51-5.75,1.71-11.21,3.2-16.66c2.19-8,1.52-16.2-0.85-24.12
		c-4.57-15.26-13.77-26.72-28.99-33.42c7.85-7.09,16.58-11.82,26.11-14.79c5.54-1.72,9.79-4.73,13.43-8.94
		c3.27-3.77,6.3-7.74,9.69-11.39c4.76-5.12,11.16-6.68,17.71-6.21c6.44,0.46,12.74,2.32,18.78,4.77c3.51,1.42,5.02,3.65,2.23,7.53
		c-0.14,3.52-0.81,6.34-4.32,8.05c-1.81,1.1-2.81,2.31-2.48,4.57c0.21,2.35-0.66,3.93-2.33,5.51c-0.11,6.56,4.34,10.65,8.03,14.92
		c1.91,2.21,5.04,1.5,5.67-1.74c0.49-2.53,1.27-4.24,3.59-5.36c1.66-0.8,2.31-2.58,2.23-4.21c-0.16-2.98,1.57-3.88,3.64-5.61
		c2.68-2.25,3.56-1.06,4.77,0.66c8.73,12.39,12.58,25.82,8.2,40.84c-0.48,1.65-0.88,3.18-0.15,5.24c-1.28,2.64-3.41,3.85-6.27,4.55
		c-3.96-1.89-6.97-2.48-7.54,2.98c-0.32,3.03-4.16,2.13-5.41,4.67c-0.46,0.46-0.67,0.71-1.09,1.08c-0.2,0.14-0.14,0.16-0.15,0.14
		c-3.03,2.39-5.95,5.01-10.56,4.48c-4.51-3.09-6.82-2.68-7.77,1.9c-0.73,3.5-4.66,2.65-5.89,5.52c-2.91,1.7-5.53,3.36-9.17,2.62
		c-1.89-4-6.13-4.39-8.84-6.76c-1.49-1.31-3.6,0.69-5.09,2.04C743.08,410.67,735.81,415.74,729.21,421.92z"/>
	<path class="st8" d="M684.8,604.44c17.7-18.28,44.9-28.77,66.8-17.28c18.82,9.88,28.21,26.53,33.09,46.33
		c0.8,3.25-0.38,6.6-0.85,9.89c-3.82,26.89-22.71,48.46-47.85,54.33c1.12-10.25,0.84-20.38-2.12-30.18
		c-7.3-24.2-22.24-40.88-47.46-47.04c-3.05-0.74-6.25-1.23-9.37-1.22c-4.25,0.02-3.45-1.61-1.41-4.15c0.98-0.46,1.66-0.43,2.24-0.09
		c2.55,1.46,5.01,1.88,7.21-0.59c2.21-2.48,1.96-5.13,0.38-7.82C685.14,606.04,684.86,605.44,684.8,604.44z"/>
	<path class="st6" d="M463.45,535.12c-1.08-1.36-1.79-2.83-3.18-2.87c-6.18-0.17-8.38-5.18-10.52-9.35
		c-9.62-18.79-10.59-38.25-2.43-57.77c3.35-8.02,8.86-14.05,18.07-16.26c8.11-1.94,16.13-4.36,24.52-3.66
		c8.44,0.7,15.96,3.69,20.63,11.41c10.37,17.13,14.6,35.85,14.29,55.73c-0.04,2.27-0.91,3.82-2.92,4.76
		c-12.28,5.72-23.97,13.13-38.08,13.64c-3.83,0.14-3.43,3.46-5.15,5.67C473.63,534.86,468.64,535.76,463.45,535.12z"/>
	<path class="st9" d="M260.19,409.17c0.41-4.35-1.31-5.85-5.47-6.04c-10.2-0.47-18.26-5.42-23.2-14.14
		c-15.64-27.58-9.47-54.09,5.13-79.76c4.15-7.3,8.86-7.57,17.14-6.66c8.84,0.97,17.63-1.63,24.59-7.55
		c3.29-2.8,6.29-3.14,10.04-2.36c6.82,1.42,12.02,5.42,17.02,10.41c1.91,1.35,0.63,2.15-0.16,2.85c-3.42,3.01-7.45,2.97-11.93-0.37
		c-4.99,2.09-11.86,0.43-14.83,7.39c-1.48,1.88-2.72,2.5-4.59,1.51c-1.7-0.9-3.53-0.44-5.6,0.34c-2.73,2.1-5.59,1.59-8.66,1.56
		c-4.83,1.09-6.66,4.76-8.33,8.96c-0.79,3.95-1.98,7.37-4.94,10.33c-3.22,4.64-4.03,9.58-1.83,14.23c2.02,4.27,6.83,4.43,10.9,4.45
		c4.46,0.02,3.49-5,5.58-7.33c1-1.12,1.22-3.06,1.49-4.69c0.56-3.36,1.22-5.37,5.17-2.53c2.03,1.46,4.41,0.54,5.4-2.41
		c1.08-3.22,2.85-5.61,6.83-3.7c0.28,0.13,0.66,0.04,0.98,0.12c1.93,0.46,3.23-3.48,5.12-1.11c3.5,4.37,8.06,7.95,10.37,13.21
		c0.93,2.11-1.44,2.24-2.49,2.85c-5.92,3.41-10.54,8.08-13.79,14.05c-7.51,13.78-2.08,29.1,12.37,35.1c0.89,0.37,2,0.3,2.56,1.32
		c-5.39,2.26-12.98,3.54-17.96,3.25c-4.81-0.28-6.71,2.69-7.3,7.36C266.61,410.48,263.6,409.16,260.19,409.17z"/>
	<path class="st8" d="M388.82,451.56c12.14-4.81,24.31-4.89,36.53-2.49c4.11,0.81,7.56,3.65,10.53,6.44c2.51,2.35,3.69,5.3,2.1,9.57
		c-7,18.87-6.11,37.86,1.27,56.46c1.34,3.38,0.98,4.52-2.41,5.49c-16.24,4.63-32.23,3.95-47.9-2.23
		c-10.74-4.24-14.96-13.53-17.37-23.85c-2.53-10.83-1.36-21.48,2.54-31.85C376.9,461.65,382.03,456.15,388.82,451.56z"/>
	<path class="st8" d="M578.26,413.76c-4.23-1.81-4.36-4.06-1.75-7.18c8.88-10.63,20.8-15.47,33.87-18.49
		c7.28-1.68,13.11,0.28,19.5,3.97c20.63,11.92,31.58,43.04,22.11,64.94c-3.17,7.32-9.99,10.47-17.7,8.18
		c-8.09-2.4-16.7-2.4-24.66-5.53c-2.17-0.86-3.32-1.62-4.05-4.1C600.71,439.04,591.58,425.21,578.26,413.76z"/>
	<path class="st9" d="M699.15,516.15c26.71-20.41,62.87-7.69,74.26,24.91c-9.29-2.77-18.41-2.37-27.68-1.52
		c-19.2,1.77-32.47,12.36-42.94,27.48c-3.04,4.39-5.62,9.11-6.92,14.29c-0.9,3.58-3.33,5.99-6.27,6.13
		c-2.65,0.13-4.66-2.87-5.84-5.55c-8.39-18.85-7.33-50.01,13.58-64.26C697.88,517.26,698.35,516.79,699.15,516.15z"/>
	<path class="st10" d="M520,435.03c10.2-10.2,21.93-16.67,36.04-18.35c6.94-0.82,13.43,0.95,18.58,5.53
		c9.85,8.78,16.7,19.72,21.46,32.03c1.02,2.62,0.65,3.5-2.28,3.45c-2.81-0.05-5.73-0.06-8.34,1.19c-2.72,1.3-4.7,0.26-6.72-1.48
		c-3.93-3.38-7.3-7.27-10.65-11.2c-5.18-6.08-11.18-4.97-13.93,2.63c-1.98,5.47-1.77,11.17-0.76,16.75c0.33,1.85,0.2,2.94-0.92,4.43
		c-6.9,9.2-10.06,19.72-10.58,31.13c-0.21,4.66-3.98,7.86-5.22,12.13c-0.11,0.39-1.93,0.68-2.72,0.39c-1.4-0.53-0.66-1.99-0.63-3.02
		c0.49-16.57-2.72-32.41-9.35-47.57c-2.2-5.04-4.56-10.12-8.22-14.2c-2.88-3.21-2.53-5.66-0.08-8.55
		C517.06,438.67,518.39,436.97,520,435.03z"/>
	<path class="st9" d="M748.37,546.95c6.01,0.92,11.66-0.51,17.24,1.4c18.58,6.36,26.21,19.81,28.11,39.98
		c0.94,9.95,0.37,19.95-4.26,29.89c-7.16-16.41-16.9-30.13-32.87-38.35c-16.09-8.29-32.55-7.88-49.57-1.41
		C715.2,560.2,729.03,550.27,748.37,546.95z"/>
	<path class="st10" d="M649.07,572.76c-2.2,0.29-4.05-0.37-6.12-1.46c1.41-3.43,0.26-5.62-2.73-7.16c-1.18-0.61-2.49-1.07-3.5-1.88
		c-3.44-2.78-6.73-3.1-10.34-0.2c-1.49,1.19-3.59,2.7-5.43,1.61c-1.88-1.11-1.52-3.85-0.96-5.49c1.83-5.36-0.81-9.3-2.95-13.83
		c-5.13-10.87-3.18-22.01-0.09-33.11c4.7-16.95,17.33-25.43,33.1-28.42c7.55-1.43,16.83-1.71,23.62,4.54
		c-13.76,6.98-20.9,19.21-25.58,32.96c-5.61,16.49-7.03,33.15,1.38,49.38C650,570.72,649.85,571.57,649.07,572.76z"/>
	<path class="st10" d="M676.99,456.19c-6.12-3.37-10.73,0.22-15.59,2.85c6.23-38.34-2.65-59.9-31.88-77.17
		c1.19-1.63,2.75-2.67,4.78-3.61c1.76,0.15,2.5,1.32,3.41,2.22c1.75,1.71,3.68,2.83,6.15,1.7c2.45-1.12,2.94-3.3,2.78-5.74
		c-0.06-0.97-0.27-1.95,0.05-3.25c8.15-2.49,16.07-2.03,23.31,1.93c14.84,8.11,23.54,20.53,24.9,37.69
		c0.95,12.04-0.59,23.52-7.31,33.92c-0.7,1.09-0.96,2.46-1.56,4.04c-0.39,0.57-0.63,0.81-0.74,1.29c0.12,0.22,0.05,0.24,0.05,0.27
		C682.76,453.82,680.12,455.1,676.99,456.19z"/>
	<path class="st9" d="M329.72,444.25c0.22-5.56-2.25-10.62-0.62-15.92c0.34-1.1,0.36-2.29,0.58-3.43c0.29-1.52,0.71-2.81,2.69-3
		c2.24-0.22,2.3,1.29,2.71,2.74c0.53,1.92,1.15,3.81,1.84,5.68c2.68,7.28,3.49,7.71,11.04,6.88c10.87-1.19,20.17,2.89,28.88,8.84
		c1.48,1.01,2.08,1.9,0.49,3.45c-16.86,16.38-17.71,36.47-13.29,57.76c0.09,0.45,0.01,0.93,0.01,1.44
		C338.15,501.88,315.13,471.16,329.72,444.25z"/>
	<path class="st10" d="M411.75,321.41c3.46,9.79,6.49,19.26,5.23,29.52c-0.32,2.6-0.93,4.14-4.04,4.32
		c-3.79,0.22-7.57,1.04-11.3,1.81c-4.48,0.93-8.66,0.86-11.1,6.95c-2.66,6.64-9.58,10.28-16.88,11.96c-0.58,0.13-1.06,0.9-1.75,0.31
		c-3.85-3.3-6.13-0.6-8.15,2.48c-0.97-1.2-0.79-2.08-0.2-3.01c8.38-13.16,7.8-27.02,3.22-41.2c-1.89-5.85-3.68-11.74-6.62-17.17
		c-1.34-2.46-1.21-3.96,1.28-5.75c10.91-7.79,30.76-8.64,42.31-1.77C408.13,312.49,409.63,316.87,411.75,321.41z"/>
	<path class="st11" d="M702.73,405.46c-2.64-15.87-12-26.71-24.1-35.64c-2.95-2.18-6.2-3.81-9.96-4.26
		c-1.08-0.13-2.61-0.52-2.56-1.9c0.02-0.73,1.1-1.59,1.9-2.09c6.12-3.83,12.8-6.24,19.89-7.42c12.41-2.08,20.14,5.82,27.01,13.92
		c10.92,12.87,11.28,27.92,7.55,43.78c-3.11,13.23-10.36,22.96-21.84,30.13C704.16,430.02,705.08,418.04,702.73,405.46z"/>
	<path class="st9" d="M466.28,321.86c2.56,6.9,4.91,13.46,4.63,20.62c-0.14,3.39-1.13,5.53-5.22,5.55
		c-2.92,0.02-6.11,0.58-8.71,1.86c-9.3,4.56-19.22,3.59-29.01,3.87c-1.38,0.04-3.11,0.71-2.74-2c1.67-12.3-2.08-23.65-6.64-34.74
		c-1.24-3.02-0.88-4.19,2.07-5.38c11.87-4.8,23.72-5.67,35.82-0.79C461.54,312.88,464.32,316.68,466.28,321.86z"/>
	<path class="st12" d="M653.39,534.55c1.42-8.02,4.16-15.1,7.6-22c6.91-13.84,18.99-20.04,33.33-22.41
		c8.31-1.37,14.76,3.74,22.04,8.18c-18.06,5.09-31.93,14.79-39.82,30.88c-7.78,15.87-8.59,32.89-2.65,51.14
		c-4.42-2.54-6.76-1.04-9.28,1.28c-2.82,2.59-7.19,1.25-7.1-2.41C657.89,564.26,649.42,550.19,653.39,534.55z"/>
	<path class="st11" d="M576.12,515.48c-0.41,4.93-0.42,9.41,0.64,14.76c-10.15-6.5-19.06-13.05-23.94-23.79
		c-5.71-12.6,0.09-22.85,7.18-32.44c2.54-3.43,4.12-5.82,1.93-10.05c-1.76-3.42-1.13-7.4,0.01-11.95
		c5.47,5.76,10.36,11.31,16.68,15.26c2,1.25,3.74,2.04,5.96,0.77c6.61-3.77,13.45-2.57,21.68-0.85
		c-7.23,3.58-12.56,7.67-16.77,13.31C581.78,490.81,578.42,502.68,576.12,515.48z"/>
	<path class="st13" d="M577.93,723.77c10.54,7.87,10.58,23.86,7.09,32.03c-1.47,3.46-4.76,5.09-8.22,5.92
		c-9.69,2.33-18.92,0.75-27.34-4.4c-9.33-5.71-12.42-16.24-8.11-26.07c5.3-12.07,13.1-16.29,24.84-13.4
		c1.77,0.44,3.49,1.04,5.5,1.84c1.34,1.91,3.1,2.35,5.1,3.07c0.29,0.18,0.19,0.2,0.18,0.16
		C577.18,723.15,577.42,723.41,577.93,723.77z"/>
	<path class="st10" d="M479.18,341.97c0.02-8.27-2.33-15.54-5.19-22.65c-0.94-2.34-0.45-3.16,1.74-3.91
		c12.91-4.45,25.94-5.48,39.19-1.71c4.15,1.18,7.39,3.68,9.59,7.4c3.4,5.77,5.94,11.89,7.05,18.52c0.61,3.67-0.14,5.84-4.81,5.78
		c-7.79-0.1-15.64,0.23-23.01,3.4c-0.91,0.39-1.83,0.76-2.88,0.36c-6.19-2.39-12.68-2.56-19.18-2.3
		C477.64,347.02,479.54,344.17,479.18,341.97z"/>
	<path class="st11" d="M637.05,475.64c3.4,1.52,0.84,2.02-0.1,2.4c-9.44,3.84-16.23,10.67-22.03,18.81
		c-10.42,14.62-11.65,30.63-7.57,47.48c1.03,4.25,0.36,5.21-4.01,4.38c-8.64-1.63-16.31-10.15-17.27-19.1
		c-1.47-13.73,0.83-26.51,7.64-38.82C601.21,477.25,620.91,466.53,637.05,475.64z"/>
	<path class="st10" d="M580.73,334.58c0.95,4.95,2.25,9.47,0.87,14.16c-0.43,1.47-0.73,2.81-2.76,2.84c-4.06,0.08-8,1.04-12.14-0.59
		c-7.61-3-15.78-3.7-23.82-4.91c-1.23-0.19-3.24,0.57-3.07-2.03c0.62-9.72-3.25-18.17-7.9-26.27c-1.69-2.95-0.42-3.34,1.99-3.55
		c11.77-1.07,23.13,0.31,34.09,5.07C574.78,322.25,578.9,327.1,580.73,334.58z"/>
	<path class="st13" d="M326.75,379.62c-6.69,8.15-15,11.89-25.18,11.39c-12.23-0.61-19.05-11.41-14.33-22.64
		c4.07-9.7,16.69-17.16,27.13-16.05C329.51,353.92,335.14,366.01,326.75,379.62z"/>
	<path class="st14" d="M842.41,664.55c-10.29,2.15-20.01,5.11-30.15,5.89c-3,0.23-5.26,1.63-7.29,3.78
		c-2.17,2.28-4.47,4.46-6.91,6.45c-4.13,3.38-8.54,1.76-11.98-2.09c-4.13-4.62-2.68-8.14-0.37-12.65c2.7-5.3,5.12-10.83,6.24-16.75
		c0.47-2.48,1.58-2.48,3.47-1.64c13.41,5.97,27.71,6.4,42.02,6.44c6.01,0.02,11.94,0.37,17.77,1.89c1.1,0.29,2.41,0.27,2.68,1.76
		c0.32,1.76-1.02,2.41-2.24,2.82C851.39,661.86,847.09,663.12,842.41,664.55z"/>
	<path class="st1" d="M742.39,498.93c7.94-7.07,17.62-11.96,26.63-17.84c27.53-17.96,55.4-35.42,80.4-56.95
		c2.76-2.38,5.7-4.55,8.57-6.8c2.04-1.61,4.45-2.3,6.21-0.13c1.69,2.08,0.73,4.29-1.1,6.2c-7.27,7.58-15.49,14.06-23.81,20.4
		c-26.59,20.27-55.03,37.75-83.43,55.28c-1.38,0.85-2.57,2.03-3.88,3.39C748.47,502.52,746.04,499.72,742.39,498.93z"/>
	<path class="st12" d="M361.69,353.76c-0.06,8.94-2.99,16.28-8.81,22.47c-1.2,1.27-2.24,3.66-4.27,2.57
		c-1.7-0.92,0.52-2.49,0.59-3.91c0.39-7.63-1.37-14.88-3.69-22c-6.01-18.45-13.67-36.02-28.05-49.98c6.88-1.4,21.36,3.87,27.4,9.41
		C356.93,323.38,360.1,338.03,361.69,353.76z"/>
	<path class="st12" d="M301.98,506.35c-3.4-7.6-2.29-14.91-0.15-22.22c2.65-9.08,7.18-17.07,14.44-25.02
		c-0.01,21.27,9.86,36.43,26.09,49c-7.77,1.21-14.59,0.99-21.08-1.85c-2.16-0.95-3.96-1.57-6.39-0.18
		C310.59,508.03,306.55,508.25,301.98,506.35z"/>
	<path class="st1" d="M525.76,761.8c-0.03,2.52-1.7,2.33-3.17,2.11c-2.43-0.37-3.05-2.45-3.45-4.39
		c-1.82-8.82-4.67-17.29-8.02-25.63c-7.09-17.68-16.15-34.29-27.57-49.53c-2.82-3.76-5.85-7.71-11.21-8.58
		c-2.39-0.39-3.86-2.25-3.14-4.79c0.76-2.72,3.02-3.44,5.57-2.87c6.51,1.47,11.26,5.57,15.13,10.74
		c14.54,19.44,26.05,40.5,34.02,63.86C520.96,749.5,520.55,755.72,525.76,761.8z"/>
	<path class="st12" d="M623.45,343.62c3.74,4.93,6.31,9.97,6.94,16.47c-8.46-2.54-16.43-5.25-24.76-6.43
		c-4.44-0.63-8.88-1.32-13.34-1.69c-2.06-0.17-2.76-0.37-2.34-2.78c0.89-5.14,0.09-10.26-1.08-15.33c-1.14-4.96-0.83-5.27,4.4-4.4
		C604.53,331.32,614.51,335.95,623.45,343.62z"/>
	<path class="st1" d="M187.58,689.93c5.83,1.91,9.77,6.45,14.83,9.23c15.43,8.48,31.37,13.43,48.95,6.9
		c1.68-0.62,3.52-0.91,5.31-1.09c1.87-0.19,3.78,0.01,4.29,2.38c0.54,2.5-0.45,4.15-2.86,5.05c-5.29,1.97-10.7,3.98-16.27,4.42
		c-17.03,1.34-32.93-2.29-47.03-12.38c-4.01-2.87-8.62-4.96-11.85-9.3C184.36,693.23,185.83,691.66,187.58,689.93z"/>
	<path class="st12" d="M336.1,354.15c-7.76-8.64-17.42-11.47-28.49-10.1c-2.41,0.3-3.48-0.26-4.41-2.48
		c-1.68-4.01-4.92-7.02-8.16-11.41c6.82,0.01,11.54-4.67,17.79-4.92c1.99-0.08,4.42,0.39,5.89-0.56c5.03-3.24,6,0.56,7.61,3.77
		c3.98,7.87,7.38,15.98,10.16,24.75C336.5,353.74,336.43,353.91,336.1,354.15z"/>
	<path class="st15" d="M566.66,533.84c-3.13,1.89-6.15-1.75-9.6-0.29c-3.37,1.43-4.58,5.21-7.87,6.67c-2.02,0.9-3.65,0.88-4.26-1.51
		c-2.26-8.83-2.31-17.58,1.25-26.78C551.44,521.14,558.68,527.62,566.66,533.84z"/>
	<path class="st1" d="M565.99,406.69c-2.67-0.07-2.79-2.46-3.63-4.11c-3.05-5.97-6.69-11.4-12.35-15.25
		c-0.94-0.64-1.81-1.51-2.45-2.45c-1.12-1.64-2.31-3.41-0.5-5.37c1.8-1.94,3.67-1.84,5.72-0.31c7.26,5.42,13.41,11.78,17.22,20.54
		C568.75,402.19,567.44,404.28,565.99,406.69z"/>
	<path class="st16" d="M617.2,672.68c3.06,1.83,4.61,4.49,5.93,7.64c-2.81,3.45-5.8,5.17-9.26,1.39c-1.34-1.46-2.16-0.44-3.37,0.07
		c-4.98,2.11-7.66,0.51-8.7-5.42c1.1-3.45,1.45-6.64,1.87-10.15c4.15-1.93,7.83-1.74,11.27,1.62c0.63,1.13,0.57,1.97,0.12,2.67
		C613.14,673.46,616.24,671.92,617.2,672.68z"/>
	<path class="st15" d="M642.26,353.09c7.94,2.22,15.07-0.06,23.52-2.73c-4.36,6.25-9.24,9.89-14.78,12.47
		c-2.79,1.3-6.19,1.2-9.18,2.15c-2.89,0.92-3.76-0.34-3.59-2.76c0.26-3.67-0.27-7.23-1.25-10.87
		C639.07,351.29,640.42,352.29,642.26,353.09z"/>
	<path class="st16" d="M292.92,305.5c4.71,2.4,8.92,1.95,12.81-1.9c4.07,1.51,5.31,4.13,1.76,7.58c-1.5,1.45-1.65,2.84-1.53,4.8
		c0.25,4.04-2.83,6.37-6.79,5.54C293.28,320.26,289.51,311.06,292.92,305.5z"/>
	<path class="st1" d="M719.86,490.09c0.54-6.36-1.05-12.93,1.93-19.08c1.26-2.59,2.35-5.64,5.93-4.47c3.84,1.25,3.43,4.42,2.1,7.39
		c-1.89,4.23-2.18,8.65-1.8,13.14c0.25,2.97-0.91,4.73-3.96,5.79c-1.04-0.24-1.87-0.81-2.89-1.62c-0.41-0.48-0.65-0.71-1.1-1.04
		C719.85,490.08,719.87,490.08,719.86,490.09z"/>
	<path class="st16" d="M259.25,316.61c2.49-2.29,5.27-1.61,8.35-1.64c2.34,2.36,3.14,5.38,6.01,7.26c2.17,1.42,1.79,4.28-0.37,6.03
		c-2.05,1.66-4.77,1.8-6.2-0.4c-1.4-2.16-3.2-2.97-5.3-3.92C258.79,322.59,258.69,319.86,259.25,316.61z"/>
	<path class="st16" d="M571.64,655.06c0.19,2.33,0.5,4.35,3.27,5.51c0.28,2.5-0.35,4.54-1.69,6.33c-2.19,2.93-5.14,3.18-7.97,1.46
		c-2.82-1.71-3.32-4.61-1.63-7.42C565.35,658.06,566.61,654.29,571.64,655.06z"/>
	<path class="st17" d="M259.61,409.07c3.5-1.06,6.64-1.5,9.8,0.99c1.04,2.07-0.05,3.73-0.68,5.34c-1.18,3.04-3.33,6.07-6.79,5.37
		c-3.75-0.76-4.68-4.79-5.6-8.09C255.76,410.53,258.67,410.69,259.61,409.07z"/>
	<path class="st18" d="M646.45,372.84c2.24,3.97,2.95,8.08-1.51,10.5c-4.77,2.58-7.7-0.81-10.24-4.79
		C637.86,375.19,641.96,373.99,646.45,372.84z"/>
	<path class="st18" d="M684.57,604.22c2.32,1.93,3.93,4.08,3.47,7.3c-0.82,5.78-6.14,7.57-11.79,3.57
		C678.08,610.86,681.42,607.79,684.57,604.22z"/>
	<path class="st1" d="M810.49,432.58c2.71,2.8,4.15,5.93,3.51,9.85c-0.42,2.6-1.4,4.59-4.25,4.49c-2.56-0.09-3.71-1.93-3.77-4.38
		c-0.06-2.48-0.01-4.97,0.03-7.9C807.4,433.69,808.77,433.19,810.49,432.58z"/>
	<path class="st18" d="M463.1,535.23c5.08-1.06,10.17-2.72,15.1,1.05c-0.83,2.96-3.17,3.98-5.44,4.97
		C467.13,543.68,464.25,541.97,463.1,535.23z"/>
	<path class="st16" d="M278.22,313.79c-0.07-0.47-0.03-0.78,0.05-0.72c1.52,0.5,2.57-0.57,3.82-0.87c3.43-0.82,6.08,0.27,6.7,3.89
		c0.6,3.54-1.42,5.69-4.91,6.08c-3.52,0.39-5.74-1.15-5.82-4.96C278.03,316.23,278.2,315.25,278.22,313.79z"/>
	<path class="st15" d="M563.19,702.12c-1.59,4.45-4.62,3.26-7.72,2.58c0.44-4.47,5.2-7.29,4.66-12.18
		c-0.04-0.36,4.13-1.94,6.07-1.57c2.19,0.42,0.85,2.73,0.3,4.11C565.6,697.36,564.42,699.55,563.19,702.12z"/>
	<path class="st16" d="M592.22,666.62c2.66,0.39,5.19,1.03,8.26,0.28c3.52,3.47,3.44,4.57-0.59,8.66
		C592.08,676.24,589.93,673.7,592.22,666.62z"/>
	<path class="st17" d="M613.13,766.45c4.2-0.59,7.9-2.58,12.25-3.53c-0.23,2.95-1.63,5.55-3.57,7.85c-3.83,4.54-5.74,4.27-7.9-1.11
		C613.54,768.74,613.36,767.75,613.13,766.45z"/>
	<path class="st16" d="M579.62,663c3.18,0.62,6.06,1.46,9.21,2.54c0.28,3.52-1.51,5.47-4.52,6.24c-2.02,0.52-3.92,0.04-5.25-1.79
		C577.39,667.67,577.6,665.41,579.62,663z"/>
	<path class="st16" d="M784.84,326.64c4.28-0.89,3.64-4.76,5.14-7.5c3.2,1,5.72,2.56,5.69,6.1c-0.02,2.55-1.39,4.31-4.34,5.05
		C787.66,331.59,786.03,329.69,784.84,326.64z"/>
	<path class="st17" d="M681.69,748.61c2.21-2.21,5.04-2.9,8.19-3.82c2.27,3.02,4.08,7.43,0.93,9.23
		C687.02,756.16,684.38,751.55,681.69,748.61z"/>
	<path class="st16" d="M781.38,337.26c-0.79-2.29,2.61-3.07,1.44-5.71c3.38-2.59,5.89-1.77,7.89,2.1c0.79,2.89,0.06,4.97-2.3,6.05
		C785.61,340.99,783.41,339.72,781.38,337.26z"/>
	<path class="st16" d="M246.54,335.88c1.13-3.24,2.66-6.47,4.47-9.99c3.5,0.2,4.87,2.28,4.54,5.29c-0.31,2.88-2.49,4.13-5.15,4.54
		C249.27,335.9,248.1,335.84,246.54,335.88z"/>
	<path class="st17" d="M786.03,399.6c3.81-0.78,6.66-3.47,10.5-4.68c-1.02,3.34-1.84,6.97-4.62,9.56c-1.07,0.99-2.13,2.61-3.63,2.22
		c-1.66-0.42-1.41-2.39-1.66-3.82C786.44,401.9,786.23,400.94,786.03,399.6z"/>
	<path class="st17" d="M301.59,506.49c3.94-0.38,7.96-0.4,12.48-0.35c0.37,0.36,0.25,0.67,0.09,0.95c-1.45,2.57-2.85,5.74-6.09,5.76
		C304.59,512.88,303.13,509.61,301.59,506.49z"/>
	<path class="st13" d="M827.58,357.67c-0.53-2.86-0.98-5.31-1.44-7.83c6.25,4.18,7.36,11.26,2.3,17.79
		C828.16,364.09,827.91,361.09,827.58,357.67z"/>
	<path class="st17" d="M810.81,386.47c1.96-1.66,3.98-2.98,6.37-4.4c2.89,2.39,1.4,5.52,1.6,8.36c0.14,1.91-1.34,1.39-2.45,1.09
		C813.77,390.81,811.9,389.3,810.81,386.47z"/>
	<path class="st15" d="M331.3,392.17c-1.63-0.32-3.55-0.53-1.87-2.27c2.69-2.78,4.91-5.94,7.56-9.41c1.15,2.2,0.47,4.6,2.91,5.8
		C339.25,391.22,334.62,390.51,331.3,392.17z"/>
	<path class="st17" d="M676.68,456.59c1.87-3.13,4.95-3.67,8.27-4.35c0.47,2.25-0.74,3.88-1.77,5.57c-0.97,1.58-2.19,3.49-4,3.41
		C676.89,461.13,677.67,458.35,676.68,456.59z"/>
	<path class="st17" d="M331.17,392.36c2.76-1.96,5.76-3.61,8.91-5.55c2.27,1.61,2.39,3.94,0.39,5.63
		C337.71,394.78,334.48,394.93,331.17,392.36z"/>
	<path class="st14" d="M221.03,402.99c1.1,0.93,2.46,1.2,2.44,2.75c-2.85,0.65-5.52-0.13-8.11-1.1c-1.18-0.44-2.83-1.03-2.22-2.7
		c0.58-1.58,2.12-2.03,3.7-1.3C218.18,401.25,219.43,402.07,221.03,402.99z"/>
	<path class="st17" d="M645.18,759.2c2.6-0.7,5.19-1.05,8.2-1.4c-0.12,0.97-0.51,2.07-1.2,2.91c-1.3,1.55-2.27,4.29-4.5,3.79
		C645.87,764.1,645.81,761.35,645.18,759.2z"/>
	<path class="st14" d="M563.17,779.51c-2.42,0.67-4.51,1.2-6.58,1.81c-1.15,0.34-2.36,0.86-2.93-0.67
		c-0.33-0.89-0.66-2.09-0.31-2.84c0.48-1.05,1.75-0.44,2.69-0.37c2.65,0.2,5.42,0,7.91,0.75
		C566.3,778.9,563.56,778.92,563.17,779.51z"/>
	<path class="st15" d="M353.91,386.93c1.59-0.77,2.46-3.71,4.09-1.81c1.42,1.66-1.16,2.58-2.14,3.61c-1.55,1.64-3.3,3.16-5.86,3.7
		C348.78,388.89,352.49,388.88,353.91,386.93z"/>
	<path class="st17" d="M763.13,409.59c2.85-1.07,5.66-1.83,8.9-2.55c-0.53,2.25-2.42,3.54-4.36,4.75
		C765.3,413.28,763.7,412.77,763.13,409.59z"/>
	<path class="st17" d="M532.83,751.17c0.92,1.95,1.72,3.56,2.55,5.25c-5.18-0.12-6.64-3.09-4-8.29
		C531.86,749.12,532.28,749.97,532.83,751.17z"/>
	<path class="st19" d="M790.94,333.66c-1.76-2.25-4.21-3.17-7.67-2.53c-1.08-1.88-0.6-3.49,1.3-4.83c1.67,1.85,2.98,3.85,6.06,4.02
		C790.97,331.37,790.96,332.34,790.94,333.66z"/>
	<path class="st19" d="M599.87,675.78c1.86-2.43,3.4-4.93,1.2-8.56c0.4-1.19,1.27-1.31,2.49-1.35c0.18,3.27,2.93,7.01-1.58,9.79
		C601.27,675.94,600.76,675.9,599.87,675.78z"/>
	<path class="st13" d="M340.57,371.53c-0.22,3.72,0.16,7.45-3.95,10.15c0.38-3.87,2.71-6.61,2.67-10.33
		C339.77,370.86,340.13,370.97,340.57,371.53z"/>
	<path class="st14" d="M340.8,371.44c-0.46,0.18-0.81,0-1.31-0.34c-0.14-2.41-0.14-4.65-0.14-7.5
		C339.95,366.48,340.43,368.78,340.8,371.44z"/>
	<path class="st15" d="M576.91,722.64c-1.67-0.11-4.37,1.47-4.94-2.3C573.85,720.16,575.2,721.45,576.91,722.64z"/>
	<path class="st14" d="M780.23,430.16c-0.98,0.28-2.34,0.89-1.84-0.43c0.58-1.54,2.25-2.02,4.39-1.11
		C781.85,429.21,781.19,429.62,780.23,430.16z"/>
	<path class="st13" d="M252.21,425.53c-0.05-0.55-0.02-0.8,0.14-1.41c0.99,0.55,2.79,1.24,2.17,2.6
		C254.13,427.6,252.98,426.43,252.21,425.53z"/>
	<path class="st12" d="M674.64,582.52c-0.27,0.3-0.61,0.27-1.18,0.31c-0.34-0.84-0.44-1.77-0.55-2.75
		C674.45,580.2,673.94,581.6,674.64,582.52z"/>
	<path class="st12" d="M336.38,353.72c0.25,0.44,0.59,1.28,0.32,1.6c-0.47,0.56-0.54-0.31-0.84-0.83
		C335.83,354.21,336.19,353.88,336.38,353.72z"/>
	<path class="st15" d="M578.06,723.63c-0.18,0.06-0.47-0.15-0.93-0.56C577.3,723.03,577.63,723.2,578.06,723.63z"/>
	<path class="st8" d="M728.91,421.96c-0.08,0.33-0.23,0.57-0.38,0.81c-0.08-0.28-0.17-0.56-0.04-0.95
		C728.71,421.71,728.84,421.88,728.91,421.96z"/>
	<path class="st17" d="M797.14,394.92c-0.11-0.26,0.04-0.57,0.46-0.92C797.72,394.25,797.56,394.56,797.14,394.92z"/>
	<path class="st20" d="M223.47,393.77c0.65,0.54,0.75,1.19-0.67,0.96C222.76,394.38,222.95,394.2,223.47,393.77z"/>
	<path class="st17" d="M685.62,452.16c-0.21-0.19-0.2-0.49,0.04-0.93C686.03,451.43,686.01,451.74,685.62,452.16z"/>
	<path class="st4" d="M719.93,490.34c0.24-0.12,0.55,0.01,0.96,0.4C720.66,490.87,720.33,490.74,719.93,490.34z"/>
	<path class="st4" d="M973.7,330.81c0.33-0.55,0.84-1.07,0.61,0.3C974.14,331.25,973.85,330.96,973.7,330.81z"/>
	<path class="st4" d="M795.96,626.99c-0.08,0.21-0.18,0.41-0.27,0.61c-0.04-0.18-0.09-0.36,0.05-0.59
		C795.93,626.96,795.95,626.98,795.96,626.99z"/>
	<path class="st14" d="M555.61,807.37c-3.74-0.48-3.22-2.31-1.16-3.7c2.13-1.45,4.7-2.21,7.29-0.25
		C560.2,805.51,558.09,806.4,555.61,807.37z"/>
	<path class="st1" d="M273.4,678.33c-17.14,3.72-33.58,8.35-49.45,14.85c-1.68,0.69-3.19,1.77-4.77,2.68
		c-2.45,1.41-4.89,1.71-6.52-1.02c-1.54-2.59,0.05-4.32,2.15-5.79c5.54-3.86,11.94-5.82,18.15-8.13c5.44-2.02,11.07-3.52,16.61-5.3
		c2.03-0.65,4.22-1.06,5.3-3.33c4.99-10.5,12.6-19.17,20.24-27.66c26.1-28.99,55.25-54.65,86.64-77.78
		c3.34-2.46,6.84-4.74,10.42-6.84c2.35-1.38,5.37-2.3,7.22,0.32c1.93,2.74,0,4.73-2.48,6.46c-17.85,12.46-35.02,25.82-51.16,40.42
		c-20.36,18.4-40.56,37-57.38,58.87c-1,1.3-1.83,2.72-3.42,5.11c6.66-1.38,12.35-2.51,18.02-3.73c20.73-4.46,41.66-7.76,62.67-10.57
		c16.24-2.17,32.42-4.76,48.68-6.7c14.63-1.75,29.34-2.86,44.01-4.26c21.47-2.06,42.99-3.17,64.53-4.28
		c14.99-0.77,29.93-0.21,44.89-0.74c3.24-0.11,4.85,1.75,4.91,4.4c0.07,2.83-2.3,3.81-4.91,3.68c-11.32-0.57-22.58,0.97-33.88,0.98
		c-20.27,0.01-40.47,1.73-60.64,3.22c-22.78,1.68-45.53,4.04-68.19,6.96C347.78,664.97,310.55,670.11,273.4,678.33z"/>
	<path class="st1" d="M311.19,694.75c19.89,17.2,36.25,36.99,50.61,58.5c4.16,6.24,7.46,12.93,9.57,20.19
		c0.57,1.98,0.68,3.91,0.67,5.9c-0.01,1.86-0.67,3.28-2.72,3.55c-1.76,0.24-3.34-0.07-4.23-1.86c-0.52-1.04-1.21-2.04-1.51-3.15
		c-4.41-16.01-14.8-28.52-24.6-41.26c-8.3-10.79-17.16-21.2-27.25-30.42c-5.01-4.58-9.93-9.43-16.85-11.14
		c-2.51-0.62-3.11-2.3-2.77-4.51c0.36-2.36,2.18-2.53,4.13-2.67C302.35,687.44,306.24,691.83,311.19,694.75z"/>
	<path class="st1" d="M434.2,610.16c-7.73,10.41-15.79,20.23-18.22,33.14c-0.32,1.71-1.38,2.55-3.12,2.64
		c-1.86,0.09-3.11-0.53-3.87-2.39c-1.83-4.47-0.28-8.49,1.47-12.46c5.27-11.99,13.03-22.42,21.46-32.26
		c10.7-12.5,21.99-24.48,35.19-34.48c3.61-2.74,7.43-5.14,11.85-6.18c3.08-0.72,6.37-0.55,6.94,3.51c0.53,3.8-1.79,5.53-5.44,5.31
		c-3.96-0.24-6.58,2.43-9.14,4.54C457.54,582.87,445.19,595.63,434.2,610.16z"/>
	<path class="st1" d="M543,638.27c-2.52,1.23-4.3,0.48-5.43-1.43c-1.44-2.44,0.02-4.48,1.46-6.34c5.93-7.63,12.8-14.44,19.99-20.82
		c10.78-9.57,21.9-18.77,34.16-26.45c2.38-1.49,4.89-2.85,7.47-3.96c2.4-1.03,5.28-2.35,6.86,1.1c1.51,3.3-0.9,4.9-3.45,6.06
		c-6.25,2.84-11.73,6.87-17.08,11.08c-13.56,10.67-26.91,21.57-38.04,34.9C547.24,634.45,545.19,636.19,543,638.27z"/>
	<path class="st1" d="M832.48,478.63c17.53-3.35,34.52-7.07,51.23-12.04c2.51-0.75,5.61-1.89,6.93,1.47
		c1.55,3.93-1.75,5.23-4.57,6.34c-12.88,5.07-26.4,7.89-39.94,10.25c-16.3,2.84-32.6,6.21-49.33,5.42
		c-5.54-0.26-7.95-2.54-6.71-6.73c0.77-2.59,3.06-4.58,5.21-2.89c5.65,4.47,11.51,1.14,17.13,1.02
		C818.98,481.32,825.52,479.74,832.48,478.63z"/>
	<path class="st1" d="M822.26,540.07c8.54,0.46,16.25-1.73,24.04-3.34c0.81-0.17,1.59-0.54,2.4-0.65c2.49-0.35,4.78-0.05,5.62,2.81
		c0.89,3.04-1.22,4.17-3.51,5.03c-5.62,2.12-11.51,3.13-17.41,4.04c-10.92,1.69-21.85,0.84-32.77,0.01
		c-2.27-0.17-4.46-1.23-6.7-1.83c-2.64-0.72-4.12-2.6-3.66-5.13c0.51-2.8,3.06-3.58,5.49-2.94c5.34,1.42,10.78,1.69,16.22,2.31
		C815.36,540.76,818.54,540.94,822.26,540.07z"/>
	<path class="st1" d="M448.05,434.04c-17.36,0.97-34.24,1.94-51.13,2.89c-1.83,0.1-3.66,0.08-5.49,0.11
		c-2.14,0.03-4.03-0.25-4.37-2.95c-0.34-2.71,1.18-4.22,3.48-4.65c2.75-0.51,5.6-0.48,9.65-0.77c-10.82-2.54-19.21-8.16-28.72-11.01
		c-2.71-0.81-5.33-1.84-8.24-1.65c-2.52,0.17-4.26-0.74-4.21-3.62c0.05-2.58,1.5-3.95,3.94-4.34c3.04-0.48,5.97,0.35,8.84,1.13
		c9.67,2.63,18.41,7.61,27.69,11.21c1.62,0.63,3.05,2.16,2.43,3.91c-1.51,4.27,1.17,3.82,3.74,3.74c20.38-0.65,40.7-2.32,61.03-3.88
		c6.44-0.49,12.96,0.19,19.73-1.64c-3.16-3.68-7.16-6.2-11.03-8.78c-15.09-10.05-30.44-19.66-47.61-25.9
		c-2.14-0.78-4.02-2.06-3.21-4.78c0.91-3.08,3.26-3.51,5.98-2.68c9.6,2.94,18.42,7.59,27.09,12.53
		c14.29,8.14,28.77,16.06,40.14,28.34c1.68,1.82,3.24,3.8,4.58,5.88c1.04,1.62,1.18,3.62-0.37,5.04c-1.51,1.38-3.7,1.47-5.01,0.08
		c-1.98-2.08-3.96-1.57-6.31-1.25c-8.54,1.17-17.11,1.96-25.75,2.1C459.45,433.18,453.99,433.71,448.05,434.04z"/>
	<path class="st21" d="M609.43,734.78c1.19-5.24,3.98-7.51,7.73-6.48c3.94,1.08,5.63,3.72,4.96,7.83c-0.47,2.89-2.4,4.5-5.02,4.62
		C613.29,740.94,610.51,739.08,609.43,734.78z"/>
	<path class="st21" d="M710.11,707.84c-3.59-3.24-3.8-6.82-1.88-10.58c1.23-2.4,3.53-2.84,5.99-2.36c2.39,0.47,2.91,2.26,3.09,4.44
		C717.98,707.61,716.69,709.29,710.11,707.84z"/>
	<path class="st19" d="M617.42,672.48c-1.96-0.09-3.73,3.45-4.95,1.87c-1.72-2.22,2.28-3.28,2.6-5.81
		C615.84,669.51,616.58,670.83,617.42,672.48z"/>
	<path class="st1" d="M298.16,445.84c1.68,3.89,0.08,5.77-3.39,6.18c-15.4,1.8-30.82,1.39-46.24,0.32
		c-7.11-0.49-14.27,0.01-21.34-1.26c-4.88-0.88-9.83-1.31-14.71-2.18c-2.86-0.51-5.18-2.05-4.31-5.46c0.89-3.5,3.84-2.67,6.18-2.16
		c8.62,1.88,17.39,2.4,26.14,2.61c12.12,0.3,24.2,1.71,36.35,1.09c3.97-0.2,7.92,0.02,11.91-0.74
		C291.76,443.66,295.09,443.42,298.16,445.84z"/>
	<path class="st1" d="M259.75,486.72c7.55-8.99,16.24-16.58,21.9-26.69c1.39-2.48,3.95-4.19,6.71-2.55
		c2.84,1.69,2.18,4.59,0.68,7.02c-4.45,7.25-10.27,13.44-15.87,19.77c-3.83,4.32-7.13,9.2-12.18,12.37
		c-2.58,1.62-5.19,3.97-7.85,0.77c-2.85-3.42,0.28-5.31,2.57-7.23C256.98,489.11,258.24,488.04,259.75,486.72z"/>
	<path class="st19" d="M744.13,390.88c-2.31,2.14-4.4,2.25-6.23,0.04c-1.35-1.62-0.99-3.45,0.16-5.04c1.2-1.66,2.89-2.31,4.76-1.22
		C745.23,386.06,745.64,388.14,744.13,390.88z"/>
	<path class="st19" d="M807.02,348.97c3.08-1.47,5.23-0.7,6.47,2.01c0.8,1.76-0.09,3.27-1.56,4.29c-1.88,1.31-3.83,1.17-5.43-0.45
		C804.65,352.95,804.82,350.99,807.02,348.97z"/>
	<path class="st18" d="M724.42,606.17c3.53-1.38,7.29-1.1,8.8-5.67c0.79-2.41,4.14-3.17,6.98-1.81c3.23,1.54,4.6,4.43,4.52,7.72
		c-0.19,7.45-9.34,16.97-16.72,17.64c-3.78,0.35-7.55,0.16-9.41-3.89c-1.85-4.04-0.7-7.83,1.95-11.13
		C721.43,607.91,722.87,607.23,724.42,606.17z"/>
	<path class="st21" d="M769.82,640.77c4,2.06,4.81,10.31,1.61,12.55c-1.54,1.07-3.13,1.02-4.56-0.22
		C763.09,649.81,764.62,642.46,769.82,640.77z"/>
	<path class="st21" d="M484.96,503.95c4.01,0.58,5.76,2.66,4.89,6.26c-0.72,3-2.89,4.44-6,3.77c-3.08-0.67-4.3-2.9-4.12-5.91
		C479.92,505.12,482.17,504.43,484.96,503.95z"/>
	<path class="st21" d="M261.88,375.82c3.96,1.04,4.22,3.75,3.68,6.69c-0.45,2.44-0.98,5.05-4.12,5.41
		c-2.51,0.29-4.54-0.83-5.87-2.91C253.09,381.13,255.85,376.88,261.88,375.82z"/>
	<path class="st21" d="M398.78,496.31c2.07,0.53,3.35,1.57,4.04,3.16c1.32,3.05,2.17,6.36-1.45,8.25c-3.56,1.85-6.24-0.82-7.78-3.42
		c-1.87-3.15-0.61-6.05,2.91-7.6C397.08,496.43,397.76,496.39,398.78,496.31z"/>
	<path class="st21" d="M638.42,444.48c3.11,1.63,4.23,3.81,2.77,6.74c-1.35,2.73-3.93,2.06-6.18,1.72
		c-2.33-0.35-3.58-1.97-3.13-4.28C632.53,445.4,634.78,444.03,638.42,444.48z"/>
	<path class="st0" d="M687.88,578.96c-4.15-1.65-5.87-10.05-2.89-12.43c1.78-1.42,3.8-1.32,5.35,0.44
		C692.4,569.32,691.05,576.74,687.88,578.96z"/>
	<path class="st18" d="M545.84,460.68c-3.69,3.29-7.24,3.45-10.43,0.2c-2.4-2.44-2.39-5.64-0.29-8.18c2.4-2.9,5.85-3.22,9.06-1.41
		C548,453.46,547.84,456.83,545.84,460.68z"/>
	<path class="st19" d="M631.38,534c0.17,0.54,0.22,0.7,0.23,0.86c0.18,2.88,1.53,6.11-1.82,8.08c-1.52,0.89-3.2,0.57-4.6-0.67
		c-2.79-2.47-1.87-5.82-1.95-8.85c-0.04-1.63,1.36-2.61,2.98-2.84C628.68,530.24,630.36,531.31,631.38,534z"/>
	<path class="st18" d="M655.92,387.08c2.07-1.47,3.76-2.83,5.57-4.01c3.54-2.32,8.43-1.27,10.54,2.16c2.36,3.84,1.19,7.52-3.17,9.87
		c-1.9,1.02-3.77,2.12-5.75,2.95c-3.39,1.43-6.73,1.14-8.97-1.93C651.81,392.94,652.7,389.82,655.92,387.08z"/>
	<path class="st21" d="M678.62,435.75c-3.3,3.02-6.36,2.88-8.57-0.52c-1.78-2.74-0.12-5.07,2.29-6.64c1.63-1.07,3.46-1.03,5.07,0.22
		C679.72,430.6,679.79,432.93,678.62,435.75z"/>
	<path class="st21" d="M349.38,484.52c1.16,2.63,2.28,5.06-0.12,7.12c-1.68,1.44-3.77,1.31-5.62,0.35
		c-2.56-1.33-3.69-3.86-2.39-6.25C342.99,482.52,345.94,481.82,349.38,484.52z"/>
	<path class="st18" d="M402.06,318.84c-1.17,5.85-5.79,7.01-10.11,7.89c-5.44,1.11-10.94,0.07-16.1-1.79
		c-4.06-1.46-5.07-5.48-2.97-9.51c2.44-4.7,7.31-7.02,10.45-4.28c3.36,2.93,6.44,2.34,10.09,1.39
		C398.42,311.23,401.12,313.23,402.06,318.84z"/>
	<path class="st0" d="M383.92,351.91c3.52,0.5,4.96,2.51,4.97,5.47c0.01,2.29-0.98,4.13-3.44,4.78c-2.77,0.73-4.86-0.51-6.46-2.54
		C376.4,356.35,378.27,353.23,383.92,351.91z"/>
	<path class="st19" d="M714.4,406.98c1.17,2.66,0.67,4.65-1.66,5.75c-1.75,0.82-3.64,0.7-5.01-0.94c-1.2-1.44-1.33-3.19-0.15-4.59
		C709.49,404.93,711.79,404.83,714.4,406.98z"/>
	<path class="st18" d="M675.94,521.04c-5.19,0.81-7.77-0.89-8.1-4.93c-0.34-4.09,1.78-6.31,5.58-6.87c3.33-0.5,6.38,2.58,6.47,6.1
		C679.95,518.02,678.29,519.55,675.94,521.04z"/>
	<path class="st21" d="M663,553.36c-0.92,2.46-2.29,3.83-4.66,3.25c-2.34-0.57-2.81-2.61-3.12-4.64c-0.1-0.65-0.1-1.33-0.12-1.99
		c-0.08-3.14,0.06-6.66,4.09-6.67c4.12-0.02,4.15,3.49,3.97,6.64C663.1,550.94,663.1,551.94,663,553.36z"/>
	<path class="st18" d="M494.18,324.63c-0.14-3.86,1.03-6.69,4.69-7.46c3.61-0.76,6.53,0.83,8.37,3.93c1.55,2.61,0.67,5.16-1.25,7.24
		C502.79,331.79,497.9,330.36,494.18,324.63z"/>
	<path class="st21" d="M597.02,525.9c-2,2.43-4.1,3-6.12,0.85c-1.73-1.83-1.27-4,0.07-5.91c1.16-1.66,2.9-2.45,4.76-1.56
		C598.65,520.66,598.51,523.03,597.02,525.9z"/>
</g>
</svg>
