<?xml version="1.0" encoding="utf-8"?>
<!-- Generator: Adobe Adobe Illustrator 24.2.0, SVG Export Plug-In . SVG Version: 6.00 Build 0)  -->
<svg version="1.1" id="レイヤー_1" xmlns="http://www.w3.org/2000/svg" xmlns:xlink="http://www.w3.org/1999/xlink" x="0px"
	 y="0px" width="1000px" height="1000px" viewBox="0 0 1000 1000" style="enable-background:new 0 0 1000 1000;"
	 xml:space="preserve">
<style type="text/css">
	.st0{fill:#321D03;}
	.st1{fill:#3B1C04;}
	.st2{fill:#C29444;}
	.st3{fill:#48403A;}
	.st4{fill:#AB9492;}
	.st5{fill:#49423B;}
	.st6{fill:#695D58;}
	.st7{fill:#81706D;}
	.st8{fill:#655A56;}
	.st9{fill:#72684F;}
	.st10{fill:#665E4A;}
	.st11{fill:#5B514B;}
	.st12{fill:#FBE98E;}
	.st13{fill:#585043;}
	.st14{fill:#746662;}
	.st15{fill:#463E38;}
	.st16{fill:#9B8784;}
	.st17{fill:#6C5335;}
	.st18{fill:#8E7C78;}
	.st19{fill:#BFB171;}
	.st20{fill:#8E835B;}
	.st21{fill:#FFFFFF;}
	.st22{fill:#A59967;}
</style>
<g>
	<path class="st0" d="M234.47,689.48c-2.27,11.22-4.93,21.78-9.57,32.14c-5.11,11.41-7.71,24.01-10.84,36.23
		c-2.52,9.83-3.73,10.65-15.75,10.03c-4.97-0.25-9.15-1.83-13.69-3.93c-7.55-3.48-15.93-2.78-23.92-0.06
		c-3.56,1.22-5.89,3.4-6.39,7.41c-0.34,2.73-0.64,6.57-4.6,5.41c-1.59-0.47-2.23-4.12-2.78-6.58c-4.49-2.65-4.66-3.62-1.77-8.26
		c5.36-8.63,13.91-10.98,23.09-11.7c6.06-0.48,12.19-0.09,18.29-0.09c0.08,0.46,0.17,0.91,0.25,1.37c0.36-0.71,0.86-1.39,1.07-2.15
		c3.9-13.86,11.33-25.8,19.88-37.2c1.33-1.77,1.91-4.86,1.47-7.07c-2.97-15.06-2.99-30.1-0.72-45.23c0.28-1.89-0.17-4.32-1.19-5.92
		c-5.36-8.46-8.83-17.47-9.47-27.54c-0.1-1.55-0.7-3.24-1.55-4.55c-4.54-6.99-6.64-14.74-5.48-22.83c0.9-6.27,0.19-12.12-1.21-18.09
		c-1.6-6.82-1.31-13.56,1.46-20.05c1.03-2.42,1.78-4.47-0.74-6.63c-1.15-0.98-1.52-2.91-2.15-4.45
		c-22.04-54.58-51.67-105-84.53-153.6c-18.76-27.75-38.55-54.79-61.56-79.21c-10.36-11-21.86-20.95-32.97-31.23
		c-2.92-2.7-5.37-5.27-2.92-9.37c1.94-3.24,6.05-3.77,9.98-0.2c12.31,11.18,25,22.09,36.18,34.34
		c35.14,38.53,64.39,81.45,91.38,125.93c20.64,34.02,39.41,69.03,54.46,105.94c0.18,0.44,0.53,0.81,0.81,1.22
		c4.13-3.8,4.13-3.8,2.56-10.67c-8.44-37.09-21.2-72.74-36.13-107.65c-12.5-29.25-26.51-57.74-44.45-84.13
		c-1.4-2.06-2.98-4-4.5-5.98c-2.9-3.76-3-7.47-0.24-9.81c2.89-2.46,7.02-1.75,9.75,2.5c9,13.98,18.65,27.65,26.38,42.31
		c26.06,49.44,46.64,101.09,59.8,155.54c0.19,0.77,0.59,1.49,0.86,2.13c24-16.05,48.79-25.98,78.11-13.37
		c6.02-6.05,13.96-6.18,22.87-6.05c13.72,0.2,27.49-1.76,41.22-2.96c3.8-0.33,7.54-1.29,11.34-1.8
		c12.67-1.69,24.34-0.03,33.19,10.78c1.69-1.19,2.89-2.52,4.36-2.97c3.51-1.05,7.14-1.75,10.75-2.44c1.11-0.21,2.32,0.15,3.48,0.1
		c26.99-1.09,53.48,2.95,80.27,7.97c2.29,3.73,2.28,7.73,2.53,11.97c-3.29,2.13-6.39,1.03-9.46,0.5
		c-20.93-3.67-41.96-6.36-63.21-7.08c-4.51-0.15-8.93,0.52-13.38,0.99c-5.85,0.62-6.22,1.08-5.74,7.64
		c-0.76,8.05,0.76,14.93,6.39,20.56c1.2,1.2,1.81,2.82,1.69,4.56c-0.31,4.37,1.01,8.53,1.57,13.2c0.22,1.57,0.29,2.77-0.1,3.87
		c-3.76,10.56-2.84,21.34-1.51,32.13c1.43,11.61,3.51,23.06,7.71,34.04c0.83,2.18,1.7,4.35,2.92,6.35c1.7,2.78,3.6,3.86,7,2.13
		c7.9-4.01,13.36-2.3,18.05,5.47c1.55,2.57,3.56,3.76,6.39,4.11c6.11,0.76,12.3,0.94,18.36,2.05c6.34,1.16,9.98-2.38,13.47-7.22
		c0.63-0.63,1-0.97,1.67-1.51c2.58-1.81,4.02-4.29,6.47-6.21c5.04-3.58,8.61-8.31,13.63-11.9c1.96-2.03,4.03-3.4,6.18-5.2
		c3.03-2.48,5.9-4.61,9.09-6.87c2.51-1.57,4.54-3.25,6.86-5.07c2.04-1.9,4.26-3.06,6.21-5.09c2.77-1.93,4.96-4.02,7.44-6.3
		c1.01-0.84,1.92-1.31,2.54-2.64c-7.13-0.41-13.91-1.79-21.24-1.11c-16.44-0.18-32.44,0.33-48.85,1.93
		c-1.3,0.04-2.16,0.02-3.44,0.01c-5.72,0.21-10.91-0.33-16.16-2.69c-0.57-0.24-0.79-0.35-1.34-0.62c-0.93-0.51-1.53-0.89-2.44-1.4
		c-1.57-1.05-2.82-1.99-4.67-2.55c-9.41-5.56-17.98-11.71-25.87-19.33c-0.81-2.08-0.77-3.85-0.3-5.98c1.66-3.98-1.74-2.72-2.9-3.09
		c-5.51-1.75-6.98-3.61-6.73-8.82c0.1-2.03,0.79-3.51,2.89-4.68c5.72-1.31,10.99-0.3,16.66,0.63c24.75,4.76,48.99,9.95,73.1,15.71
		c17.64,4.22,35.35,8.22,52.7,13.53c5.97,1.83,10.45,1.2,14.6-3.78c4.14-4.97,9.28-9.06,13.74-14.32c2.28-2.39,5.26-3.65,6.07-6.87
		c-1.39-2.29-3.87-2.56-5.98-3.25c-25.7-8.49-51.74-15.72-78.25-21.22c-1.94-0.4-3.96-0.58-5.94-2.06
		c-1.29-6.04,3.07-8.84,6.73-12.37c5.79-0.04,10.85,1.88,16.45,2.96c0.91,0.51,1.31,1,1.55,1.63c2.74,7.01,3.68,7.27,10.21,2.63
		c7.2-0.01,13.54,2.39,20.31,4.54c2.55,1.5,3.59,3.79,4.92,5.84c3.36,5.18,6.47,5.3,10.4,0.1c5.51-1.99,9.68,1.69,14.77,2.71
		c0.58,0.2,0.8,0.28,1.36,0.51c0.76,0.36,1.18,0.59,1.89,1.01c2.45,1.54,3.64,3.76,5.17,5.67c3.36,4.18,4.06,4.28,8.36,1.08
		c1.05-0.78,2.04-1.65,3.45-2.5c3.69-1.82,7.05-3.54,10.44-5.19c5.79-2.81,11.86-4.93,18.28-3.23c2.82,0.75,5.24,3,7.85,4.57
		c1.36,0.81,2.64,1.85,4.1,2.36c5,1.74,8.79,4.44,10.07,10.02c1.18,5.18,3.28,10.19,4.05,15.41c0.73,4.93,3.4,7.77,7,10.79
		c16.58,13.9,33.15,27.82,49.18,42.33c9.3,8.42,19.67,14.63,31.1,19.46c8.32,3.52,16.43,0.41,24.55-0.49
		c17.37-1.92,34.68-4.42,52.02-6.61c6.44-0.81,9.35,0.65,9.92,4.65c0.59,4.13-2.14,7.06-7.99,8.42c-10.19,2.37-20.39,4.7-30.7,7.87
		c6.76,2.11,13.55,4.1,20.27,6.34c30.73,10.24,61.86,19.44,91.96,31.29c14.67,5.78,29.6,10.49,44.36,15.82
		c2.03,0.73,4.5,1.24,5.8,2.71c1.78,2.01,4.02,5.18,3.52,7.22c-0.5,2.02-4.08,4.46-6.46,4.62c-7.79,0.54-15.66,0.45-23.47,0.03
		c-25.76-1.38-51.24-4.86-76.37-10.76c-1.18-0.28-2.47-0.04-3.89,0.79c5.17,2.05,10.47,3.84,15.45,6.28
		c2.17,1.06,4.51,3.19,5.29,5.36c1.65,4.63-2.55,8-8.41,6.66c-11.5-2.63-22.93-5.58-34.38-8.45c-24.34-6.11-48.69-12.19-73-18.43
		c-3.48-0.89-5.2-0.2-7.65,2.74c-2.62,3.15-7.14,4.72-11.18,7.09c-2.05-2.01-0.58-3.54,0.62-5.11c1.08-1.42,2.76-2.37,3.35-4.2
		c-0.37-1.84-2.44-1.49-3.51-2.89c-0.53-1.18,0.23-2.3-0.99-3.26c-2.17-0.9-4.15-1.56-6.11-0.77c-6.38,2.58-13.34,2.86-20.18,5.12
		c-2.31,0.4-4.29,0.53-6.54,1.17c-5,1.45-9.84,2.21-14.85,4.49c3.4,2.72,6.94,3.37,10.56,4.71c2.03,1.43,3.99,2.18,6.36,2.89
		c5.9,3,11.4,6,17.37,8.75c1.45,1.45,2.58,2.77,3.99,3.66c10.14,6.36,20.52,12.37,30.43,19.07c3.91,2.64,6.82,6.76,9.91,9.94
		c7.29-3.47,14.1-7.24,21.32-9.94c4.57-1.71,9.72-2.48,14.63-2.53c8.33-0.09,16.71,10.46,15.55,18.73c-0.5,3.54-2.83,3.98-7.2,1.28
		c-0.86,2.48-1.35,5.17-2.7,7.31c-0.75,1.19-2.94,1.48-4.48,2.18c-0.68-1.66-2.07-3.39-1.9-4.97c0.41-3.9,1.53-7.72,2.67-12.98
		c-4.43,0.63-8.1,0.34-10.99,1.71c-7.45,3.54-15.06,7.11-21.65,11.98c-7.08,5.23-13.23,7.68-22.11,3.79
		c-21.45-9.39-41.78-20.58-60.7-34.3c-2.79-2.02-4.99-2.4-8.06-1.01c-3.56,1.62-7.36,2.73-11.63,4.26
		c-1.33,2.49,3.62,7.69-2.19,8.98c-1.47,0.33-3.79-3.18-5.93-5.11c-3.43,3.74-8.92,1.84-14.11,1.54c-4.94-0.29-10-2.45-14.24,2.41
		c-0.93,1.07-3.46,1.06-5.24,1.01c-4.49-0.12-8.98-0.42-13.45-0.87c-5.49-0.55-10.67-1.84-16.09,1.8c-2.69,1.81-7.42,1.24-11.1,0.76
		c-4.75-0.62-9.39-2.15-14.03-3.46c-4.06-1.14-7.7-2.97-12.05,0.37c-1.74,1.34-5.82,0.43-8.52-0.44c-3.92-1.27-7.6-3.34-11.29-5.24
		c-4.83-2.48-9.39-5.45-15.27-5c-2.04,0.16-4.71-0.27-6.16-1.52c-4.82-4.18-9.4-3.47-14.96-1.43c-8.4,3.07-17.28,3.36-26.09,1.22
		c-8.87-2.16-15.62-7.17-20.08-15.19c-0.56-1-1.22-1.95-1.85-2.9c-0.04-0.06-0.32,0.03-1.06,0.11c0.83,8.32,2,16.65,2.39,25.01
		c0.36,7.68,2.87,14.54,5.83,21.46c2.87,6.72,0.18,11.76-7.39,13.92c2.76,10.18,5.48,20.39,8.35,30.56
		c0.25,0.87,1.39,1.73,2.31,2.13c8.09,3.44,10.8,10.88,13.36,18.25c0.43,1.23-1.36,3.23-2.12,4.88c-1.62-0.75-3.73-1.11-4.75-2.36
		c-1.41-1.73-1.99-4.13-3.39-7.29c-1.29,2.88-1.87,5.1-3.16,6.79c-1.12,1.46-3.04,2.31-4.61,3.44c-0.9-1.75-2.45-3.47-2.52-5.25
		c-0.09-2.14,1.09-4.33,1.55-5.9c-4.97-0.69-9.76-1.43-14.57-2.02c-4.78-0.59-6.94-3.49-7.4-7.99c-1.12-10.93-2.22-21.86-3.33-32.78
		c-0.16-1.6-0.31-3.21-0.5-5.29c-3.99,1.85-7.83,4.93-11.56,0.84c-3.48-3.82-0.36-7.47,0.78-11.15c0.69-2.21,1.76-4.48,1.72-6.71
		c-0.28-13.8-0.82-27.6-1.3-41.99c-7.59,3.51-13.95,1.99-19.72-2.89c-0.49-0.42-1.13-0.97-1.68-0.96
		c-13.99,0.44-18.91-9.89-23.48-20.19c-1.29-2.9-2.75-4.8-5.63-5.42c-1.6-0.34-3.62-0.55-4.99,0.13
		c-8.78,4.35-10.83,4.42-19.07-0.36c-7.33,14.55-20.12,11.75-32.29,9.5c-7.97-1.47-15.74-4.16-23.5-6.61
		c-6.89-2.17-10.49-0.14-12.67,6.6c-3.15,9.78-6.53,19.51-10.51,28.97c-1.87,4.45-5.36,8.22-8.2,12.41c1.47,1.4,3.3,2.42,3.9,3.94
		c0.52,1.32-0.21,3.23-0.66,4.8c-0.24,0.85-1.11,1.51-1.6,2.32c-0.8,1.29-1.52,2.63-2.27,3.94c-1.47-0.84-3.07-1.54-4.38-2.58
		c-0.86-0.69-1.32-1.88-2.1-3.06c-4.67,3.12-7.58,6.96-9.73,12.4c-4.87,12.33-10.96,24.19-16.78,36.13
		c-0.69,1.42-2.66,2.62-4.29,3.12c-4.11,1.26-8.56,3.31-12.51,2.71c-3.94-0.6-7.5-3.94-11.11-6.26c-1.56-1-2.72-3.4-4.23-3.56
		c-6.52-0.67-13.11-1.04-19.66-0.93c-3.94,0.07-6.24,2.61-6.51,6.83c-0.18,2.81-0.48,5.71-1.39,8.34c-0.46,1.33-2.38,2.15-3.64,3.21
		c-0.98-1.31-2.55-2.53-2.8-3.97c-0.33-1.87,0.39-3.93,0.61-6.33c-0.14-0.79-0.27-1.14-0.66-1.3c-2.04,0.3-3.86,0.41-5.68,0.53
		c0.18-1.96-0.22-4.23,0.64-5.82c6.55-12.12,19.74-17.14,36.16-13.91c3.24,0.64,6.4,1.68,9.65,2.56
		c5.13-8.01,9.91-16.36,15.57-24.05c5.46-7.42,10.73-14.71,12.06-24.11c0.14-0.96,0.58-1.92,1.05-2.79
		c8.57-16.1,17.02-32.26,25.81-48.25c3.08-5.59,7.1-10.44,9.08-16.88c2.82-9.15,11.36-11.89,19.9-13.77
		c1.58-0.35,3.17-0.64,5.04-2.04c-6.96-3.02-13.93-6.04-21.35-9.26c-5.58,9.17-10.28,20.48-21.78,26.68
		c-2.18-0.37-2.59-2.05-3.2-3.57c-0.59-1.49-0.76-3.3-3.03-3.81c-2.16,1.47-1.3,3.69-1.14,5.7c0.26,3.2-0.8,4.69-4.39,5.02
		c-3.49,0.32-6.78-0.52-9.86-1.06c-1.94,2.58-0.19,4.58-0.24,6.97c-0.22,0.83-0.33,1.32-0.49,2.19
		C235.29,683.91,234,686.41,234.47,689.48z"/>
	<path class="st1" d="M578.29,536.56c-1.59,1.99-2.81,4.9-4.4,5.12c-2.1,0.29-4.94-1.04-6.63-2.58c-1.85-1.68-2.77-4.4-4.23-7
		c-4.15-3.16-4.88-8.14-7.65-11.79c-1.86-2.45-2.94-5.55-6.18-7c-3.62,3.64-3.11,9.19-6.68,13c-1.86,3.11-3.85,5.48-7.59,4.5
		c-3.56-0.94-4.1-3.81-3.92-7.38c-1.21-1.82-0.51-3.29,0.03-4.62c2.68-6.58,4.36-13.61,8.57-19.52c0.67-0.94,1.13-2.02,1.47-3.14
		c0.59-1.93,0.35-3.68-1.44-4.83c-1.99-1.28-3.5-0.14-4.73,1.34c-4.12,4.98-8.04,10.11-11.6,15.53c-2.62,3.99-5.05,8.18-8.98,11.61
		c-2.62,3.59-4.96,6.96-7.31,10.69c-2.13,1.97-3.83,0.68-5.78-0.76c-0.89-4.09-1.56-7.87-2.23-12.08c1.23-1.38,2.77-2.11,3.64-3.31
		c6.67-9.31,13.17-18.74,19.81-28.07c6.16-8.66,14.84-11.94,23.35-7.86c13.76,6.6,26.97,13.78,36.2,27
		c9.49,13.58,20.37,26.2,30.79,39.55c-4.27,7.8-8.46,8.25-13.54,1.81c-1.2-1.52-2.47-3-4.02-4.64c-0.46-0.32-0.61-0.49-1.01-0.89
		c-0.25-0.24-0.23-0.22-0.22-0.21c-9.9-10.7-19.17-21.96-28.23-33.38c-2.28-2.87-4.88-5.42-7.26-8.18
		c7.68,10.31,14.03,21.39,19.48,33.01C578.56,533.67,579.06,534.91,578.29,536.56z"/>
	<path class="st1" d="M744.58,701.58c2.28,1.14,4.23,2.12,6.18,3.1c-2.38,3.44-4.57,6.58-6.75,10.1c-3.25,2.11-6.39,3.71-7.77,7.74
		c-0.55,1.6-3.24,2.47-5.28,3.72c-6.06-2.51-11.8-5.08-17.74-7.91c-0.65-1.05-0.31-1.71,0.38-2.63c4.3-2.61,8.92-3.39,13.53-5.21
		c0.56-0.19,0.78-0.25,1.34-0.39c2.64-0.24,4.73-0.75,5.8-3.57C737.28,703.72,740.42,701.88,744.58,701.58z"/>
	<path class="st2" d="M236.56,679.15c-1.12-1.38-2.31-2.63-2.42-3.97c-0.14-1.63,0.23-3.65,1.19-4.86c0.43-0.54,2.82,0.59,4.34,0.76
		c2.84,0.31,5.7,0.66,8.53,0.56c0.56-0.02,1.42-1.96,1.48-3.05c0.08-1.44-0.99-3.04-0.66-4.33c0.38-1.5,1.75-2.75,2.69-4.11
		c1.22,0.91,2.87,1.58,3.57,2.79c1.06,1.82,1.46,4.02,2.32,6.4c-2.08,4.4-4.25,8.5-6.65,12.48c-0.73,1.21-1.92,2.53-3.17,2.91
		c-1.17,0.36-3.03-0.08-3.96-0.89c-0.67-0.58-0.73-2.55-0.29-3.56c0.98-2.2,2.46-4.18,3.99-6.67c-2.5,0-4.26,0-6.22,0
		C241.1,676.58,241.31,679.83,236.56,679.15z"/>
	<path class="st2" d="M234.68,689.74c-2.26-2.9-2.06-5.62,0.79-8.27c0.38-0.1,0.5,0.04,0.66,0.09c2.25,0.79,6.34-0.27,5.6,3.68
		c-0.32,1.69-3.73,2.79-5.76,4.14C235.7,689.56,235.34,689.59,234.68,689.74z"/>
	<path class="st3" d="M592,565.05c-6.18,6.96-12.32,13.69-18.92,19.93c-1.21,1.14-4.42,0.79-6.5,0.28
		c-17.83-4.44-35.52-9.46-53.42-13.57c-24.8-5.69-49.75-10.73-74.93-16.31c1.57-2.28,4.16-2.29,6.58-2.65
		c4.26-0.64,8.52-1.23,12.72-2.25c8.04-1.95,13.36-6.32,14.1-15.47c2.09-1.55,4.07-1.08,6.04-0.79
		c37.59,5.61,74.07,15.61,109.93,28.04C589.15,562.79,590.75,563.31,592,565.05z"/>
	<path class="st4" d="M527.2,718.65c-7.41,3.12-14.46,6.53-21.87,8.65c-6.93,1.98-14.3,2.1-20.72-2.18
		c-8.83-5.9-11.62-13.97-9.18-25.14c1.97-9.02,6.6-16.62,12.51-23.53c14.21-16.62,30.06-31.36,47.66-44.47
		c27.27-20.3,52.48-43,75.61-68c6.57-7.1,13.89-13.43,24.38-15.07c3.29,5.2-0.41,8.21-3.51,11.04c-5.14,4.68-10.43,9.22-15.7,13.76
		c-6.03,5.19-11.87,10.6-18.36,15.79c-10.75,10.25-22.74,18.52-33.41,28.85c-9.66,8.49-19.02,16.79-28.59,25.36
		c-5.13,4.37-9.93,8.6-15.02,13c-3.71,3.03-7.24,5.77-9.39,10.24c-2.36,2.74-5.46,4.02-8.08,6.48c-8.66,6.44-9.33,8.81-0.73,15.63
		c8.25,6.54,14.2,14.8,20.91,22.54C525.42,713.57,527.58,715.36,527.2,718.65z"/>
	<path class="st5" d="M395.4,534.41c-0.76,7.58,2.36,13.73,5.43,19.94c1.58,3.2,2.79,6.58,4.14,10.28
		c-3.73,1.39-7.31,0.11-10.66-0.88c-15.7-4.63-31.54-2.82-47.39-1.7c-9.6,0.68-19.19,0.86-29.19-0.23
		c-2.62-2.14-2.93-4.88-2.97-7.48c-0.12-7.36-1.55-14.51-3.01-21.67c-0.97-4.75,0.26-6.09,5.05-5.88c0.33,0.01,0.68,0,0.99,0.1
		c13.36,4.39,26.3,0.63,39.23-2.19c7.23-1.58,14.34-2.24,21.7-1.04C385.78,524.81,390.73,528.92,395.4,534.41z"/>
	<path class="st3" d="M288.67,529.78c7.88,6.95,10.71,15.8,11.26,25.48c0.37,6.59,0.1,13.21,0.1,20.27
		c-1.25,1.8-2.93,1.92-4.56,1.92c-6.56-0.02-13.11,0.19-20.06,0.55c-3.41-1.79-1.78-4.22-1.2-6.26c1.49-5.24,2.01-10.41,0.39-15.72
		c-3.01-9.9-11.32-15.1-21.51-13.36c-11.79,2-23.09,13.86-25.71,26.45c-1.2,5.75-0.6,11.21,0.97,17.07
		c-3.61,3.01-7.81,4.81-11.08,8.5c-2.46-0.2-4.67-0.65-7.09-1.38c-0.75-8.33-2.94-16.38,0.3-24.72c5.72-0.98,7.35-2.75,7.47-8.19
		c0.03-1.48-0.02-2.96-0.01-4.88c-0.42-2.74,1.03-4.12,2.8-5.67c0.99-0.22,1.62-0.05,2.26,0.11c5.75,1.39,7.72-0.25,7.2-5.98
		c-0.09-0.98-0.24-1.95,0.11-3.29c8.86-8.72,19.5-13.03,31.25-14.91C270.89,524.25,279.81,525.47,288.67,529.78z"/>
	<path class="st6" d="M534.81,643.41c9.6-8.67,18.98-17.05,28.69-25.53c1.67,0.15,2.91,0.75,3.82,1.69
		c8.64,8.86,18.74,16.21,26.77,26.13c-8.39,11.97-16.87,23.6-25.63,35.41c-12.75-7.92-21.51-19.74-31.08-30.74
		C535.77,648.52,534.24,646.45,534.81,643.41z"/>
	<path class="st7" d="M592.46,565.35c-25.76-7.39-51.04-15.39-76.65-22.18c-14.18-3.76-28.89-5.5-43.82-8.15
		c-3.08,0.97-5.69,0.25-8.31-0.07c-17.11-2.06-34.24-3.41-51.92-1.57c-1.35-0.12-2.23-0.32-3.33-1.15c-1.47-9.5-1.46-9.4,8-10.42
		c20.08-2.15,39.81,1.13,59.58,3.66c8.07,1.03,16.08,2.53,24.55,3.87c2.21,0.54,3.97,1.03,6.09,1.5
		c21.69,5.38,43.09,10.6,64.36,16.26c9.73,2.59,19.23,6.05,30.25,9.58C597.95,560.03,595.38,562.64,592.46,565.35z"/>
	<path class="st8" d="M428.05,575.79c8.65,5.96,16.91,12.09,25.51,18.28c11,13.93,22.13,27.38,34.46,39.81
		c3.76,3.79,8.46,6.47,12.11,10.82c-1.76,2.31-3.61,4.28-5.78,6.36c-5.95-2.64-10.33-7.16-14.5-11.5
		c-11.38-11.82-22.79-23.7-32.03-37.4c2.9,5.38,5.57,10.88,8.6,16.21c3.05,5.37,6.63,10.34,10.31,15.27
		c2.9,3.88,6.05,7.48,10.22,10.09c2.5,1.56,4,3.58,1.75,6.8c-4,0.73-7.55-0.15-11.44-1.01c-8.66-9.3-15.98-19.14-21.29-29.62
		c3.02,6.97,5.7,14.81,9.95,21.94c0.79,1.33,1.23,2.75-0.01,4.44c-3.85,0.56-7.06-0.46-10.37-2.46
		c-8.21-15.93-13.8-32.39-17.82-49.42c-0.57-2.4-0.71-4.95-2.33-7.47C424.62,582.7,425.62,579.21,428.05,575.79z"/>
	<path class="st9" d="M396.21,585.74c-12.46,19.9-29.32,32.36-53.55,32.42c-3.98,0.01-7.96-0.07-11.94-0.2
		c-5.24-0.17-9.49-2.29-11.23-7.42c-1.85-5.46-3.07-11.13-4.56-17.13c4.8-4.25,10.6-4.46,16.11-3.72
		c8.17,1.09,16.25,0.19,24.28-0.36c11-0.76,22.28-0.14,32.76-4.9C390.63,583.26,393.59,583.05,396.21,585.74z"/>
	<path class="st3" d="M851.35,686.27c-7.91-0.83-15.77-1.82-23.53-3.29c-14.63-2.78-29.37-5.22-43.77-8.92
		c-26.66-6.85-53.29-14.05-78.46-25.47c-7.36-3.34-14.05-8.18-20.91-12.54c-1.26-0.8-2.39-2.48-2.73-3.96
		c-1.8-7.73-3.33-15.52-4.93-23.72c3.25-1.7,5,0.94,6.83,2.52c8.07,6.95,15.94,14.14,24.23,20.82c9.2,7.43,18.65,14.53,29.09,20.21
		c2.81,1.53,5.67,2.75,8.79,3.44c25.56,5.63,50.5,13.48,75.55,20.94c8.29,2.47,16.41,5.5,25.01,6.88
		C848.27,683.46,850.64,683.49,851.35,686.27z"/>
	<path class="st10" d="M396.66,585.94c-3.61,0.27-7.01,0-10.3,0.5c-6.32,0.96-12.54,2.7-18.88,3.47c-8.36,1.01-16.79,1.52-25.2,1.96
		c-2.93,0.15-5.93-0.95-8.85-0.77c-5.91,0.37-11.8,1.23-18.11,1.88c-1.06-5.09-1.71-10.18-2.27-15.72c1.24-2.12,0.14-5.12,3.6-5.65
		c3.19,0.71,6,1.01,8.84,0.89c18.09-0.76,36.2-1.06,54.18-3.48c5.94-0.8,11.9,0.6,17.88-0.21c2.14-0.29,4.17,0.94,6.08,2.84
		C401.58,576.59,399.25,581.17,396.66,585.94z"/>
	<path class="st7" d="M466.67,647.82c4.07,0.88,7.8,1.51,11.96,2.14c5.25-1.67,9.85-0.86,14.59,1.64
		c-4.52,8.77-11.52,11.19-20.75,8.66c-3.32-0.91-6.91-0.91-10.4-1.09c-4.99-0.26-8.89-1.01-11.26-6.73
		c-2.39-5.78-9.67-6.87-15.09-3.56c-4.73,2.89-6.68,2.84-8.74-2.28c-3.39-8.43-6.55-17.1-8.47-25.96
		c-2.96-13.64-5.1-27.51-2.6-41.55c0.49-2.76,1.44-5.45,2.27-8.55c3.09-3.4,6.68-2.62,10.27-1.64c-0.02,2.23-0.06,4.09-0.06,6.34
		c-0.76,3.94-1.56,7.49-2.32,11.45c1.68,4.83,1.63,9.54,2.09,14.11c0.91,8.98,2.75,17.74,5.1,26.41c1.85,6.82,5.13,12.63,12.45,15.7
		c3.38,1.19,6.5,2.07,10,2.95C459.83,644.59,463.07,646.18,466.67,647.82z"/>
	<path class="st11" d="M594.45,645.87c-7-6-13.71-12.17-20.42-18.34c-3.29-3.03-6.57-6.07-10.03-9.42
		c8.08-7.49,16.34-14.66,24.59-21.85c2.63-2.29,5.22-4.62,8.14-7.03c3.02,6.31,7.91,11.07,12.45,16.13
		c1.86,2.07,3.75,4.25,4.82,7.31C607.63,623.91,601.18,634.8,594.45,645.87z"/>
	<path class="st12" d="M410.84,532.23c20.36-2.12,40.24-0.83,60.36,2.62c1.29,7.66-0.69,12.34-7.81,14.61
		c-7.97,2.54-16.4,3.65-25.04,5.52c-6.06-0.3-11.71-0.73-17.82-1.21C411.78,551.74,406.32,539.61,410.84,532.23z"/>
	<path class="st4" d="M316.22,571.56c-1.11,1.8-1.87,3.32-2.85,5.05c-0.61-7.42-1-15.05-1.39-22.67
		c-0.58-11.51-4.93-21.55-12.81-31.34c4.1-0.94,7.62-2.77,10.81-2.3c12.72,1.87,25.15,0.14,37.67-1.66
		c9.84-1.41,19.71-2.87,29.62-3.35c8.98-0.44,18.71,10,18.46,19.05c-1.15-0.02-2.76-0.09-3.34-0.9c-6.74-9.28-16.62-9.88-26.45-8.81
		c-9.68,1.05-19.14,4.13-28.81,5.23c-5.75,0.65-11.75-0.78-17.63-1.3c-2.26-0.2-4.51-0.47-6.71-0.69
		c1.45,11.13,2.82,21.71,4.25,32.71C319.32,564.53,318.27,567.92,316.22,571.56z"/>
	<path class="st7" d="M851.64,686.73c-1.59-0.85-2.71-1.94-4.03-2.31c-20.27-5.75-40.54-11.5-60.87-17.05
		c-13.61-3.72-27.61-6.28-40.87-10.94c-9.07-3.19-17.83-8.23-25.56-14.01c-13.96-10.42-27.04-22.01-40.5-33.09
		c-0.63-0.52-1.39-0.87-2.44-1.35c-1.54-4.08-2.74-8.11-3.94-12.15c0.48-0.3,0.97-0.61,1.45-0.91c7.56,6.4,15.21,12.72,22.67,19.24
		c7.63,6.67,15.07,13.57,22.62,20.34c12.49,11.2,26.67,18.6,43.36,22.09c13.76,2.87,27.1,7.84,40.57,12.07
		c18.7,5.88,37.34,11.93,56,17.94c1.62,0.52,3.17,1.24,4.76,1.87c-0.15,0.49-0.3,0.97-0.44,1.46
		C860.29,688.89,856.15,687.86,851.64,686.73z"/>
	<path class="st13" d="M316.11,572.16c0.11-3.65,0.47-6.98,0.89-10.74c14.34-0.76,28.77,0.04,42.86-1.74
		c14.1-1.79,27.29,1.61,40.82,3.47c1.23,0.17,2.35,1.16,3.89,1.82c0.15,2.15-0.07,4.25-0.48,6.7c-11.46-2.69-22.75-1.39-34.06,0.13
		c-4.08,0.55-8.2,0.99-12.31,1.14c-12.08,0.45-24.16,0.79-36.24,0.99C319.78,573.95,318.07,572.99,316.11,572.16z"/>
	<path class="st14" d="M534.73,643.24c3.41,4.45,6.14,9.33,9.69,13.51c5.32,6.27,11.16,12.11,16.91,18.01
		c2.05,2.1,4.48,3.84,6.79,6.14c-4.29,5.3-8.64,10.2-13.3,15.17c-4.56-0.52-6.26-4.32-8.63-7.01c-7.86-8.94-15.45-18.1-23.85-26.55
		c-1.57-1.59-3.69-3.06-2.55-6.17C524.82,651.82,529.62,647.59,534.73,643.24z"/>
	<path class="st5" d="M614.34,612.8c-5.42-5.8-10.66-11.73-15.64-17.87c-1.05-1.29-1.14-3.35-1.66-5.44
		c10.8-9.86,21.63-19.3,32.36-28.86c3.26-2.9,7.38-5.44,6.6-11.27c2.85-0.26,3.38-0.17,2.93,2.58c-1.02,6.29-1.66,12.9-4.17,18.63
		C628.56,584.82,621.39,598.62,614.34,612.8z"/>
	<path class="st6" d="M661.45,596.81c5.35,24.66,10.4,49.05,15.4,73.84c-4.38,2.35-8.28,5.37-13.54,5.57
		c-1.53-7.72-3.2-15.18-3.89-22.73c-1.66-18.15-2.87-36.33-4.21-54.96C656.94,596.48,658.89,595.91,661.45,596.81z"/>
	<path class="st10" d="M298.86,585.66c0.01,7.76-2.27,14.26-8.45,19.32c-2,0.25-3.75,0.06-5.03-1.05
		c-5.21-4.52-10.98-3.57-16.4-1.18c-7.84,3.45-15.94,5.56-24.76,6.42c-5.11-3.73-9.84-7.36-14.87-11.16
		c-1.35-3.63,1.23-3.73,3.82-4.23c5.69,0.98,10.57,3.8,16.37,2.32c6.67-1.71,12.11-5.16,16.84-9.95c1.38-1.4,2.37-3.23,4.79-3.98
		c4.2,0.04,7.89,0.88,11.57,1.77c3.42,0.83,6.85,0.7,10.29,0.14C295.03,583.77,296.98,583.87,298.86,585.66z"/>
	<path class="st15" d="M367.35,641.27c-4.87-3.79-1.72-8.95-2.97-13.19c-0.11-0.37,1.57-1.66,2.56-1.9
		c15.53-3.74,24.99-15.52,35.73-26.83c1.43,9.46,2.81,18.57,4.31,28.51c-12.36-1.1-21.67,3.82-28.55,14.08
		C374.64,642.56,371.12,642.98,367.35,641.27z"/>
	<path class="st7" d="M519.71,656.17c1.29,1.69,1.98,3.76,3.31,5.26c10.2,11.54,20.52,22.97,31.15,34.58
		c-3.07,3.52-6.48,6.89-10.22,10.22c-2.46,0.78-3.23-1-4.36-2.12c-4.17-4.12-7.02-9.24-10.49-13.89
		c-5.76-7.72-12.11-14.94-18.1-22.88C513.75,663.42,516.57,659.85,519.71,656.17z"/>
	<path class="st3" d="M500.55,645c-12.83-7.58-21.63-19.11-31.28-29.7c-4.98-5.47-9.29-11.56-13.83-17.42
		c-0.67-0.87-0.99-2.01-1.51-3.38c1.23,0.34,2.5,1.03,3.91,1.99c0.5,0.85,1.09,1.02,1.96,1.32c0.26,0.17,0.2,0.18,0.21,0.15
		c16.22,11.96,33.23,22.7,50.79,32.59c1.01,0.57,2.08,1.06,3.1,2.21C509.68,637.03,505.27,640.99,500.55,645z"/>
	<path class="st15" d="M462.23,572.85c19.91,4.35,39.4,8.62,58.89,12.89c-0.07,0.27-0.15,0.54-0.22,0.82
		c-9.89,0.48-19.78,0.92-29.66,1.44c-3.63,0.19-7.26,0.61-10.89,0.9c-6.43,0.51-12.52-0.12-18.09-3.97
		c-7.02-4.85-14.3-9.33-21.48-13.96c0.27-0.74,0.54-1.48,0.81-2.22C448.33,570.08,455.07,571.43,462.23,572.85z"/>
	<path class="st11" d="M480,601.44c16.71-1.04,33.36-1.71,50.48-2.34c6.26,2.17,12.58,2.55,18.44,5.63c-1.9,2.23-4.05,4.16-6.5,6.23
		c-1.83,1.01-3.43,1.16-5.11,0.64c-10.94-3.43-22.15-5.89-33.02-9.57c-0.46-0.16-0.94-0.35-0.91-0.23c8.38,2.45,16.91,5.74,25.46,9
		c2.69,1.03,5.96,1.34,7.33,4.89c-2.21,1.99-4.34,3.61-6.82,5.26c-4.28-0.01-7.58-2.14-11.13-3.4
		c-11.67-4.15-23.15-8.82-34.73-13.23C482.1,603.79,480.67,603.29,480,601.44z"/>
	<path class="st16" d="M527.33,718.87c-4.64-5.72-8.61-11.78-13.32-17.19c-4.92-5.66-10.62-10.63-15.84-16.05
		c-4.46-4.63-4.39-4.96,0.27-9.52c1.16-1.13,2.55-2.04,4.17-3.08c3.01-0.62,4.19,1.56,5.57,3.01c8.61,9.12,16.23,19.1,24.32,28.67
		c1.7,2.02,3.57,3.89,5.29,6.35C534.5,713.87,531.08,716.34,527.33,718.87z"/>
	<path class="st9" d="M244.01,609.36c1.97-0.99,4.09-1.73,6.25-2.35c5.04-1.45,10.09-2.85,15.14-4.26c3.79-1.06,7.53-2.5,11.4-3.01
		c2.19-0.29,4.67,0.7,6.86,1.54c2.12,0.81,4.02,2.18,6.24,3.59c-7.45,8.02-16.57,13.33-27.19,15.6c-2.39,0.51-5.65-0.58-7.82-1.99
		C251.04,615.96,247.72,612.64,244.01,609.36z"/>
	<path class="st17" d="M590.75,697.25c5.41,0.89,10.59,2.04,16.01,3.46c-1.36,3.36-5.71,4.17-6.36,8.46c-1.4,3.6-3.9,6.16-5.51,9.65
		c-1.47,2.22-2.85,4.08-4.18,6.39c-3.48,4.02-4.78,9.24-9.5,11.95c-4.19-0.29-8.06-0.41-12.31-0.72c-0.28-4.9,3.11-8.11,5.19-12.3
		c1.62-2.04,3.09-3.76,4.16-6.16c2.58-3.57,4.57-7.12,6.87-10.87c1.22-1.72,2.25-3.17,3.02-5.15
		C588.93,700.22,589.26,698.61,590.75,697.25z"/>
	<path class="st4" d="M288.89,529.68c-0.71,0.29-1.62,0.47-2.36,0.2c-20.95-7.78-39.08-1.47-56.33,11.32
		c-5.3,0.63-8.38,2.96-8.85,8.48c-1.21,1.74-2.18,3.24-3.25,5.05c-3.72-10.19-3.22-12.49,4.87-18.82
		c14.95-11.71,32.1-16.83,50.83-14.54C279.03,522,283.79,526.59,288.89,529.68z"/>
	<path class="st18" d="M538.21,711.33c-2.24-1.68-4.38-3.25-6.09-5.19c-9.57-10.9-19.05-21.9-28.86-33.01
		c2.15-2.05,4.6-3.96,7.36-6.01c5.98,6.49,11.75,13.04,17.29,19.77c5.12,6.23,9.99,12.68,15.34,19.16
		C541.91,707.88,540.21,709.57,538.21,711.33z"/>
	<path class="st7" d="M646.47,647.89c0.63,3.26,0.91,6.21,1.31,10.37c-16.03,1.34-32.04,2.67-48.05,4.01
		c-0.3-0.4-0.59-0.8-0.89-1.19c2.15-2.95,4.29-5.9,6.73-9.01c4.05-2.45,8.39-1.5,12.42-2.29c6.34-1.24,12.82-1.65,19.65-2.71
		C640.82,646.54,643.55,646.13,646.47,647.89z"/>
	<path class="st8" d="M514.37,632.92c-11.69-6.44-23.27-12.77-34.44-19.75c-6.94-4.33-13.25-9.67-19.87-14.89
		c5.3,0.72,10.63,1.78,16.4,2.88c14.72,8.77,29.02,17.46,43.43,26.5C518.22,629.59,516.44,631.18,514.37,632.92z"/>
	<path class="st15" d="M514.43,520c6.37-9.63,13.04-19.32,20.05-28.75c0.92-1.24,4.03-2.05,5.43-1.45c2.47,1.06,3.96,3.45,2.48,6.6
		c-3.14,6.72-6.2,13.49-9.22,20.26c-0.81,1.81-1.4,3.73-2.13,5.97C525.61,522.01,520.22,521.02,514.43,520z"/>
	<path class="st3" d="M220.95,611.14c1.12-0.75,2.56-1.72,3.35-1.35c2.51,1.21,5.02,2.65,7.11,4.48
		c6.09,5.32,11.97,10.86,18.71,17.03c-3.69,3.2-7.47,6.48-11.6,9.73c-2.2,0.85-3.63-0.17-4.81-1.27
		C225.53,632.16,220.08,623.26,220.95,611.14z"/>
	<path class="st5" d="M292.35,675.25c-1.58-1.3-2.82-2.35-4.32-3.61c3.14-4.94,8.12-5.19,12.7-6.02
		c13.72-2.47,27.29-1.82,40.75,1.97c4.61,1.3,7.15,3.9,7.51,9.02c-1.68,1.76-3.41,1.39-5.1,0.49c-9.98-5.31-20.38-6.34-31.18-3.06
		c-5.29,1.61-10.83,1.22-16.2,2.17C295.21,676.45,293.87,676.26,292.35,675.25z"/>
	<path class="st17" d="M618.81,736.96c-4.25,0.01-8.16,0-12.53-0.08c-1.36-3.53,0.88-5.9,2.63-8.79c1.37-2,2.24-3.87,3.23-6.06
		c1.46-2.76,2.73-5.24,4.01-8.11c1.95-3.14,2.58-6.5,4.57-9.61c4.05,0.63,7.85,1.52,11.97,2.56c1.79,2.47,0.07,4.37-0.59,6.76
		c-1.09,2.48-1.9,4.69-3.11,7.11c-1.04,1.93-1.9,3.56-2.87,5.53C623.25,729.75,622.73,734.35,618.81,736.96z"/>
	<path class="st5" d="M493.62,651.88c-4.67-0.56-9.2-1.21-14.15-1.9c-1.03-1.64-1.18-4.01-2.34-4.71
		c-9.39-5.64-14.58-14.86-20.12-23.62c-4.56-7.21-8.14-15.04-12.15-22.59c0.4-0.26,0.8-0.53,1.2-0.79c1.92,2.46,3.78,4.98,5.78,7.37
		c6.7,7.99,13.16,16.21,20.27,23.82c6.87,7.35,14.43,14.07,21.8,21.39C494.01,651.42,493.92,651.62,493.62,651.88z"/>
	<path class="st4" d="M678.61,682.78c1.56,8.59,3.33,16.9,3.7,25.27c0.1,2.25-3.72,5.46-6.44,6.83c-3.45,1.73-4.85-1.45-5.53-4.37
		c-1.92-8.21-3.76-16.43-5.7-25.07C668.79,682.17,673.54,682.35,678.61,682.78z"/>
	<path class="st19" d="M575.18,723.67c-2.01,4.27-4.24,8.13-6.57,12.29c-1.33,1.41-2.55,2.52-4.41,4.2
		c-8.29-4.41-16.85-8.96-25.85-13.74c2.64-1.86,5.26-3.7,8.19-5.69c7.67,0.81,15.05,0.8,22.44,0.8
		C571.11,721.53,573.29,721.57,575.18,723.67z"/>
	<path class="st15" d="M386.14,672.82c-2.54-9.78-1.52-18.75,4.42-26.72c6.54-8.77,16.85-8.14,22.27,1.41
		c-0.61,0.44-1.19,1.12-1.89,1.3c-12.15,3.14-19.4,11.35-23.68,22.7C387.06,672.09,386.63,672.58,386.14,672.82z"/>
	<path class="st15" d="M709.08,691.98c-3.27,1.61-4.62,0.85-3.77-2.43c1.79-6.9,3.79-13.75,5.54-20.66c0.82-3.24,2.09-4.28,5.6-2.99
		c9.55,3.5,8.88,3.47,7.18,13.46C722.14,688.2,717.26,691.18,709.08,691.98z"/>
	<path class="st3" d="M520.31,627.87c-14.62-8.59-28.92-17.31-43.32-26.35c0.7-0.39,1.48-0.46,2.67-0.5
		c7.83,3.09,15.23,6.22,22.69,9.19c8.72,3.48,17.49,6.82,26.45,10.51C526.21,623.25,523.41,625.49,520.31,627.87z"/>
	<path class="st16" d="M761.92,762.68c-1.71-0.08-3.55-0.3-5.18-1.02c-18.45-8.15-35.76-18.32-52.28-29.86
		c-1.21-0.85-2.28-1.91-3.37-2.92c-0.18-0.17-0.12-0.6-0.26-1.4c0.94,0,1.92-0.28,2.62,0.04c19.84,9.05,39.15,19.03,56.31,32.69
		C760.54,760.82,761.19,761.6,761.92,762.68z"/>
	<path class="st13" d="M292.06,675.38c8.45-1.49,17.05-2.12,25.43-3.83c9.72-1.98,18.46,0.02,27,4.38c1.13,0.57,2.47,0.72,4.1,1.07
		c0.34,0.85,0.3,1.7,0.09,2.82c-3.59,3.06-6.97,2.75-11.26,1.67c-7.68-1.93-15.7-2.85-23.71-1.63c-2.31,0.35-4.62,0.56-7.32,0.93
		c-3.67-0.16-6.98-0.9-10.24-0.71C292.58,680.29,292.93,677.67,292.06,675.38z"/>
	<path class="st19" d="M609.71,727.63c-1.08,3.07-2.41,5.77-3.83,8.82c-3.26,7.66-8.83,7.49-15.08,5.12
		c-3.29-1.24-6.55-2.54-9.88-4.19c2.78-4.27,5.61-8.17,8.71-12.25c0.82-0.56,1.41-1.13,2.02-1.06
		C597.66,724.75,603.77,724.87,609.71,727.63z"/>
	<path class="st17" d="M651.88,736.04c-4.54,0.36-8.7,0.67-13.3,1.01c-2.32-2.8,0.43-4.46,1.39-6.93c1.71-3.02,2.67-5.98,3.9-9.2
		c0.86-2.92,2.22-5.28,2.73-8.32c0.1-1.68,0.21-2.98,1.18-4.42c6.06,0.05,9.85,3.05,12.02,8.67c-0.44,4.71-2.71,8.52-3.95,13.04
		C654.69,732.23,654.02,734.45,651.88,736.04z"/>
	<path class="st15" d="M302.55,627.09c-0.1-6.55-2.85-13.16,1.85-18.11c4,5.7,7.89,11.12,11.58,16.68c0.6,0.91,0.48,2.43,0.39,3.64
		c-0.49,6.52-1.07,13.04-1.64,19.83C308.04,643.84,305.19,635.78,302.55,627.09z"/>
	<path class="st15" d="M638.88,673.89c2.7-4.42,6.62-3.74,9.95-3.7c5.08,8.43-0.32,15.63-1.36,23.42c-4.72,0-9.39,0-14.68,0
		C634.9,686.81,636.84,680.54,638.88,673.89z"/>
	<path class="st15" d="M766.64,690.36c5.09,2.05,9.83,3.95,14.57,5.85c-0.15,0.46-0.3,0.92-0.45,1.38
		c-15.04-4.62-30.08-9.24-45.61-14.01c0.31-1.87,0.36-4.58,1.31-6.93c0.46-1.14,2.82-2.48,3.95-2.2c5.32,1.28,10.55,2.98,15.71,4.81
		c1.15,0.41,2.7,1.92,2.7,2.93C758.86,687.31,762.28,688.96,766.64,690.36z"/>
	<path class="st10" d="M306.33,681.15c3.26-1.17,6.83-2.94,10.42-3c8.18-0.12,16.45-0.46,24.31,3.11c1.68,0.76,4.38-0.73,7.03-1.18
		c-0.34,7.31-2.58,10.02-9.68,8.8C327.71,687.06,317.23,683.91,306.33,681.15z"/>
	<path class="st15" d="M578.47,536.89c-4.25-7.92-7.82-15.96-12.07-23.62c-3.04-5.48-7-10.46-10.47-15.54
		c3.53,0.09,27.42,26.68,38.06,42.94C588.97,539.66,583.91,538.29,578.47,536.89z"/>
	<path class="st20" d="M585.68,706.68c-1.73,3.89-3.82,7.45-6.18,11.2c-9.81,0.21-19.31,2.36-29.21,0.41
		c3.82-4.21,7.97-8.1,12.43-12.14c2.47-1.62,4.95-1.91,7.43-1.63C575.21,705.11,580.36,705,585.68,706.68z"/>
	<path class="st15" d="M233.83,658.32c12.23-4.91,21.19-13.15,28.26-23.9c1.09-1.65,4.66-1.67,7.52-2.42
		c-0.95,11.16-7.9,18.31-17.24,23.1c-5.23,2.68-11.21,3.88-17.26,5.68C234.1,660.12,233.71,659.44,233.83,658.32z"/>
	<path class="st3" d="M646.76,647.8c-2.58,0.36-5.22,0.33-8.3,0.3c-9.21-0.98-17.87-2.41-26.11-6.71c1.32-2.84,2.86-5.35,4.58-8.15
		c1.27-1.25,2.58-1.42,3.88-1.03c8,2.39,16.17,4.28,23.93,8.52c0.31,0.25,0.27,0.28,0.27,0.25c0.14,0.14,0.28,0.3,0.65,0.7
		C646.16,643.75,646.43,645.58,646.76,647.8z"/>
	<path class="st15" d="M460.33,697.45c-1.14-8.55-2.14-16.69-3.17-25.02c5.96,0,11.48,0,17.43,0c-3.01,5.52-6.24,10.3-8.28,15.55
		c-1.99,5.12-2.76,10.72-4.38,17.42C461.3,702.15,460.88,700.01,460.33,697.45z"/>
	<path class="st15" d="M624.01,680.98c-0.49,1.82-1.09,3.22-1.35,4.67c-0.73,4.05-3.14,4.93-6.86,4.18
		c-3.04-0.61-6.15-0.84-9.91-1.33c1.77-4.66,3.36-9.12,5.21-13.48c0.37-0.86,1.66-1.76,2.61-1.87c3.87-0.43,7.78-0.57,12.62-0.87
		C625.48,675.38,624.77,677.98,624.01,680.98z"/>
	<path class="st13" d="M299.35,585.73c-2.96,0.27-5.7,0.53-8.36,0.19c-6.46-0.81-12.88-1.89-19.73-2.93
		c-1.52-2.79,0.13-4.34,2.38-5.89c8.72-0.43,17.08-0.76,25.9-1.1C299.88,579.14,299.74,582.29,299.35,585.73z"/>
	<path class="st15" d="M445.42,707.33c-0.71-7.7-1.18-15.15-1.41-22.6c-0.23-7.48-3.74-10.61-11.08-9.52
		c-0.76,0.11-1.5,0.37-2.25,0.56c-0.34-0.33-0.68-0.67-1.01-1c3.3-4.8,6.61-9.6,9.91-14.4c0.73,0.2,1.45,0.4,2.18,0.59
		c4.13,14.84,5.51,30.23,8.09,45.79C448.55,708.24,447.19,708.19,445.42,707.33z"/>
	<path class="st5" d="M399.4,675.29c3.25-11.78,14.22-17.83,23.36-12.89c-1.81,3.64-3.62,7.31-5.61,11.29
		C411.48,677.24,405.78,678.38,399.4,675.29z"/>
	<path class="st4" d="M210.42,568.15c0.17,8.07-0.01,16.07-0.31,24.45c-1.97-1.05-4.47-2.13-5.56-4.01
		c-3.64-6.29-4.42-13.1-2.31-20.19c0.92-3.1,1.53-6.29,2.13-8.81C206.26,562.41,208.16,565.24,210.42,568.15z"/>
	<path class="st19" d="M640.65,729.71c-0.67,2.41-1.62,4.53-2.56,7.01c-1.61,3.9-4.4,4.86-8.1,4.26c-3.1-0.5-6.27-0.55-9.35-1.11
		c-0.89-0.16-1.6-1.37-2.29-2.49c2.2-3.85,4.3-7.29,6.59-11.03c2.56-2.12,5.15-1.45,7.16-0.09
		C634.68,727.99,637.57,728.47,640.65,729.71z"/>
	<path class="st21" d="M542.61,526.61c1.63-5.35,3.65-10.59,5.94-16.57c6.58,6.17,10.03,13.84,14.19,21.42
		C556.25,530.08,549.62,528.39,542.61,526.61z"/>
	<path class="st11" d="M645.03,640.54c-7.44-1.87-14.9-4.21-22.38-6.48c-1.55-0.47-3.17-0.73-5.15-1.1
		c0.79-2.14,1.97-4.26,3.33-6.67c1.16-1.03,2.3-1.3,3.46-0.93c6.75,2.16,13.83,3.38,20.29,7.42
		C644.92,635.41,644.97,637.76,645.03,640.54z"/>
	<path class="st17" d="M728.19,711.02c-4.6,1.82-8.99,3.36-13.74,4.97c-2.05-2.37-0.09-4.47,0.33-7.11c0.72-2.12,0.71-4.08,2.3-5.8
		c7.44-2.13,14.5-4.19,21.67-5.82c1.75-0.4,3.83,0.65,6.06,1.24c-1.52,3.22-4.8,3.11-7.62,3.5c-3.77,0.53-6.23,2.05-6.97,6.28
		c-0.17,0.56-0.25,0.79-0.52,1.31C729.18,710.22,728.81,710.5,728.19,711.02z"/>
	<path class="st4" d="M453.22,738.84c1.04,8.13,1.81,15.97,2.6,24.07c-2.54,0-5.28,0-8.59,0c-0.33-7.49-0.64-14.71-0.89-22.37
		C448.3,738.36,450.54,738.08,453.22,738.84z"/>
	<path class="st11" d="M611.93,641.34c8.67,1.86,17.14,4.01,25.85,6.46c-10.17,1.6-20.57,2.9-31.44,4.15
		C607.82,648.47,609.78,645.05,611.93,641.34z"/>
	<path class="st15" d="M635.32,598.32c2.34-5.11,4.52-9.88,6.69-14.66c0.22,0.02,0.44,0.05,0.65,0.07c0,9.22,0,18.43,0,28.58
		c-4.06-1.67-7.72-3.17-11.76-4.83C632.45,604.27,633.8,601.46,635.32,598.32z"/>
	<path class="st13" d="M398.97,675.41c5.79-0.73,11.49-1.06,17.6-1.4c-1.15,3.78-2.7,7.57-4.43,11.68
		c-4.08,2.27-8.11,3.15-12.79,1.57C398.95,683.26,398.92,679.54,398.97,675.41z"/>
	<path class="st9" d="M620.64,703.89c-0.79,3.36-1.92,6.53-3.32,9.93c-6.27-0.43-11.96-2.25-17.92-4.49
		c1.16-3.77,2.52-7.4,7.38-8.06C611.44,701.9,615.87,702.8,620.64,703.89z"/>
	<path class="st15" d="M330.77,642.85c-1.05,0.81-1.82,1.39-2.58,1.96c-0.46-0.1-0.92-0.2-1.37-0.3c0.49-4.25,0.87-8.52,1.59-12.73
		c0.12-0.71,1.72-1.65,2.66-1.67c6.75-0.14,13.5-0.08,20.49-0.08C344.44,634.4,337.74,638.51,330.77,642.85z"/>
	<path class="st15" d="M347.13,645.96c6.23-2.96,6.88-2.7,7.85,3.78c0.48,3.21,0.46,6.49,0.7,10.14
		c-6.86-2.39-12.42-4.33-18.99-6.63C340.43,650.61,343.61,648.36,347.13,645.96z"/>
	<path class="st15" d="M699.37,665.28c-2.67,6.36-1.89,13.59-7.42,20.09c-0.73-3.76-1.18-6.07-1.63-8.36c5.2-3.43,5.12-4.84-0.3-8.2
		c-0.53-0.33-1.34-1.11-1.23-1.41c1.1-3.09,2.04-6.34,3.78-9.05c0.49-0.77,4.31-0.65,5.11,0.31
		C698.96,660.18,698.98,662.76,699.37,665.28z"/>
	<path class="st22" d="M549.67,718.09c7.99-0.44,15.7-0.83,23.41-1.05c1.76-0.05,3.54,0.45,5.73,0.86c-0.7,2.05-1.8,3.93-3.16,5.99
		c-3.64-0.17-7.03-0.55-10.42-0.88c-5.98-0.59-11.96-1.14-18.15-2.07C547.71,719.79,548.55,719,549.67,718.09z"/>
	<path class="st16" d="M220.68,611.03c0.62,1.28,1.13,2.81,1.34,4.39c1.44,10.74,6.02,19.55,15.79,25.52c0,2.96-1.63,3.68-4.18,2.72
		C223.52,639.85,215.89,621.12,220.68,611.03z"/>
	<path class="st15" d="M644.91,632.66c-7.73-1.94-15.43-4.29-23.51-6.65c3.32-7.47,3.33-7.49,11.29-4.25
		c2.73,1.11,5.36,2.48,8.09,3.6C643.93,626.64,645.51,628.77,644.91,632.66z"/>
	<path class="st7" d="M678.97,682.63c-4.58,1.01-9.11,1.61-14.01,2.3c-0.9-2.65-1.43-5.39-1.95-8.53c4.35-2.06,8.7-3.71,13.42-5.36
		C677.54,674.78,678.28,678.5,678.97,682.63z"/>
	<path class="st13" d="M661.77,596.69c-1.95,0.71-3.87,1.02-6.15,1.36c-0.16-4.09,0.5-8.25,0.11-12.31
		c-0.4-4.2-1.09-8.67-2.94-12.38c-2.52-5.06-3.68-9.81-0.89-15.7C655.27,570.79,658.54,583.54,661.77,596.69z"/>
	<path class="st11" d="M267.66,723.74c-3.56,9-9.26,16.3-17.59,23.2c0.86-9.45,5.85-15.34,10.77-21.64
		C262.96,723.8,264.91,722.68,267.66,723.74z"/>
	<path class="st5" d="M536.38,615.92c-5.65-2.25-10.96-4.77-16.39-7.02c-5.95-2.46-12.01-4.65-18.02-6.96
		c0.11-0.39,0.21-0.78,0.32-1.17c13,3.42,26,6.84,39.41,10.29C540.3,612.65,538.48,614.21,536.38,615.92z"/>
	<path class="st9" d="M586.33,706.85c-7.66-0.18-15.03-0.5-22.85-0.83c0.98-1.6,2.42-3.19,4.13-4.94c7.3-2.31,14.31-2.76,21.35,0.43
		C588.22,703.56,587.42,705.13,586.33,706.85z"/>
	<path class="st14" d="M445.06,707.53c1.33-0.46,2.64-0.47,4.34-0.42c1.17,6.69,1.95,13.33,2.7,20.41
		c-1.67,1.77-3.44,2.01-5.72,0.76C445.68,721.33,445.37,714.66,445.06,707.53z"/>
	<path class="st5" d="M268.27,723.8c-2.34,0.54-4.4,0.87-6.85,1.21c2.96-7.31,6.31-14.64,9.99-22.04c2.02,2.14,0.88,5.11,2.43,7.71
		C272.17,715.19,270.36,719.39,268.27,723.8z"/>
	<path class="st13" d="M410.79,532.05c-2.41,8.75,0.6,16.22,9.09,21.41c-4.47,7.93-2.78,10.05,11.04,13.39
		c-0.7,0.82-1.27,1.49-2.14,2.29c-3.45,0.39-6.62,0.66-10.13,0.97c-0.76-3-0.85-6.13-1.63-9.07c-0.93-3.51-1.78-7.34-3.84-10.18
		c-4.02-5.51-5.85-11.31-5.12-18.46C408.86,531.97,409.63,532.01,410.79,532.05z"/>
	<path class="st16" d="M237.63,773.63c-2.6,5.03-4.81,9.87-7.55,14.37c-1.01,1.66-3.29,2.55-4.99,3.8
		c-0.58-0.57-1.15-1.14-1.73-1.71c5.32-8.75,10.65-17.49,15.97-26.24c0.65,0.31,1.3,0.62,1.95,0.93
		C240.12,767.62,238.97,770.46,237.63,773.63z"/>
	<path class="st9" d="M399,687.38c4.02-0.72,8.06-1.06,12.53-1.38c-1.33,4.75-3.11,9.49-5.2,15.07
		C401.6,697.09,399.8,692.72,399,687.38z"/>
	<path class="st15" d="M372.82,678.62c-1.97,0.79-5.04,1.94-5.17,1.68c-1.29-2.68-2.82-5.58-2.84-8.43
		c-0.02-2.61,1.74-5.24,2.83-8.15C371.5,667.82,375.63,671.74,372.82,678.62z"/>
	<path class="st13" d="M589.28,701.78c-5.16-0.12-10.05-0.48-14.94-0.77c-1.83-0.11-3.66-0.03-5.97-0.07
		c3.8-6.41,9.99-6.39,16.55-5.14c1.77,0.34,3.53,0.72,5.68,1.15C590.5,698.53,590.02,700.05,589.28,701.78z"/>
	<path class="st17" d="M707.18,715.15c-4.59-1.37-8.8-2.61-14.18-4.19c5.17-5.36,11.45-4.51,16.79-6.72
		c1.79,1.81,0.95,3.63,0.43,5.82C709.44,712.15,709.41,714.2,707.18,715.15z"/>
	<path class="st15" d="M586.03,678.93c4.42-5.29,4.42-5.29,11.81-4.46c-1.13,3.57-2.21,7.01-3.4,10.77
		c-3.89-0.85-7.33-1.6-11.18-2.45C584.34,681.32,585.1,680.28,586.03,678.93z"/>
	<path class="st13" d="M234.16,594.61c-1.74,1.07-3.39,1.8-5.08,2.88c-3.78-0.59-7.52-1.54-11.66-2.53
		c1.46-4.58,4.82-7.21,10.04-7.92C230.79,588.73,232.75,591.3,234.16,594.61z"/>
	<path class="st7" d="M420.18,703.19c0.28-3.02,0.94-5.75,1.81-8.8c3.34-2.42,6.32-0.92,9.67,0.34c0.59,2.69,0.84,5.12,0.98,7.95
		C428.61,705.29,424.6,704.91,420.18,703.19z"/>
	<path class="st19" d="M651.61,736.5c0.83-2.33,1.77-4.23,2.95-6.38c3.36-2.14,6.59-2.08,10.32-0.49c0.98,5.87-1.14,8.37-6.63,8.26
		C656.07,737.84,653.9,737.26,651.61,736.5z"/>
	<path class="st10" d="M647.75,707.64c0.29,1.71,0.26,3.15,0.21,5.01c-5.43,1.09-10.81,2.08-16.62,1.64
		c0.31-2.35,0.95-4.44,1.62-6.89C637.82,707.15,642.63,707.25,647.75,707.64z"/>
	<path class="st8" d="M432.05,694.56c-3.05,0.11-6.05-0.2-9.45-0.51c1.14-4.01,2.69-8.04,4.23-12.06c0.74,0.02,1.49,0.03,2.23,0.05
		C430.07,686.07,431.08,690.1,432.05,694.56z"/>
	<path class="st15" d="M549.49,604.99c-6.34-1.7-12.35-3.43-18.46-5.52c7.58-0.35,15.25-0.35,22.92-0.35
		c0.2,0.56,0.4,1.12,0.59,1.69C552.98,602.19,551.4,603.57,549.49,604.99z"/>
	<path class="st15" d="M219.32,684.32c-0.27-5.47-0.27-10.69-0.27-16.46c4.51,1.27,6.51,3.04,5.47,7.26
		c-0.74,3.02-1.02,6.16-1.6,9.65C221.56,685.96,220.55,685.42,219.32,684.32z"/>
	<path class="st18" d="M445.97,728.46c1.77-0.46,3.5-0.47,5.67-0.48c0.97,3.44,1.5,6.89,1.95,10.74c-2.2,0.71-4.32,1.03-6.81,1.36
		C446.25,736.37,446.09,732.65,445.97,728.46z"/>
	<path class="st16" d="M419.76,703.3c3.99-0.35,7.95-0.3,12.34-0.23c0.19,2.23-0.05,4.45-0.28,6.62
		C423.24,710.27,421.52,709.4,419.76,703.3z"/>
	<path class="st22" d="M665.32,729.5c-3.19,0.4-6.38,0.43-10.04,0.41c1.04-4.12,2.55-8.2,4.31-12.5
		C661.67,721.18,663.49,725.15,665.32,729.5z"/>
	<path class="st19" d="M729.31,710.14c0.07-7.18,0.8-7.95,7.39-9.14c2.59-0.47,5.11-1.31,8.04-2.13c0.92,0.11,1.46,0.37,2,0.64
		c-0.5,0.57-1,1.15-1.66,1.98c-3.35,1.8-6.53,3.35-9.95,5.15C733.57,708.66,731.78,709.72,729.31,710.14z"/>
	<path class="st13" d="M367.04,641.35c3.47-0.18,6.99-0.01,10.81,0.46c-0.97,3.24-2.23,6.16-4.02,10.3
		C371.21,648.06,369.15,644.88,367.04,641.35z"/>
	<path class="st16" d="M233.69,657.99c0.52,0.77,0.76,1.46,1,2.44c-5.28,1.16-7.91-3.05-11.21-5.77c-2.04-1.68-3.56-4.01-4.59-6.89
		c3.76,2.71,7.52,5.41,11.58,8.26c0.65,0.2,0.93,0.36,1.36,0.77C232.5,657.26,232.95,657.59,233.69,657.99z"/>
	<path class="st16" d="M274.14,710.65c-0.88-2.13-1.59-4.58-2.35-7.4c-0.05-0.36,0.13-0.77,0.18-0.98c1.05-1.66,1.41-3.45,2.8-5.03
		C275,696.99,275,697,275,697c0.61-1,1.35-1.78,3.05-1.34C277.05,700.67,275.68,705.5,274.14,710.65z"/>
	<path class="st19" d="M706.89,715.38c0.57-1.78,1.24-3.21,2.08-4.94c1.91-2,3.94-2.59,6.62-1.64c-0.29,2.36-0.89,4.44-1.5,6.89
		c-0.32,0.85-0.63,1.33-1.01,2.09C711,717.28,709,716.51,706.89,715.38z"/>
	<path class="st15" d="M291.27,634.27c-1.65-1.25-3.05-2.43-4.28-3.75c-4.09-4.38-3.6-6.05,2.58-8.15
		C290.25,626.37,290.92,630.32,291.27,634.27z"/>
	<path class="st15" d="M890.27,706.28c10.04,0.78,20.35,1.82,30.66,2.87c-0.08,0.69-0.16,1.38-0.24,2.06
		C910.64,709.66,900.59,708.11,890.27,706.28z"/>
	<path class="st7" d="M203.28,751.28c-0.26,1.21-0.17,2.2-0.63,2.78c-0.6,0.76-1.62,1.19-2.45,1.77c-0.35-0.93-1.22-2.04-0.97-2.77
		c1.31-3.96,2.89-7.83,4.38-11.73c0.5,0.12,1,0.25,1.5,0.37C204.53,744.76,203.97,747.82,203.28,751.28z"/>
	<path class="st20" d="M716.1,708.71c-2.19,0.68-4.19,1.01-6.57,1.38c-0.06-1.66,0.26-3.36,0.61-5.43c2.15-0.87,4.27-1.39,6.83-1.85
		C717.04,704.69,716.66,706.52,716.1,708.71z"/>
	<path class="st18" d="M219.01,684.52c1.09-0.13,2.13,0.18,3.5,0.58c-0.3,4.29-0.92,8.51-1.54,12.72c-0.37,0-0.75,0.01-1.12,0.01
		C219.55,693.55,219.26,689.26,219.01,684.52z"/>
	<path class="st16" d="M205.71,605.06c1.01,2.98,1.62,5.88,2.23,8.78C202.53,610.23,202,606.6,205.71,605.06z"/>
	<path class="st5" d="M278.61,695.58c-1.1,0.59-2.01,0.91-3.27,1.32c0.48-2.13,1.32-4.36,2.15-6.59c0.44,0.14,0.88,0.27,1.31,0.41
		C278.81,692.25,278.81,693.78,278.61,695.58z"/>
	<path class="st5" d="M274.64,697.03c-0.43,1.56-1.22,3.15-2.32,4.88C272.78,700.39,273.53,698.72,274.64,697.03z"/>
	<path class="st15" d="M890.01,705.99c-1.34-0.07-2.68-0.14-4.03-0.2c0.02-0.23,0.04-0.47,0.07-0.7c1.17,0.13,2.33,0.27,3.72,0.66
		C889.99,706.02,890,706,890.01,705.99z"/>
	<path class="st15" d="M881.94,704.7c-0.78,0.16-1.36,0.16-1.94,0.16c0.01-0.2,0.02-0.4,0.03-0.6
		C880.74,704.35,881.44,704.44,881.94,704.7z"/>
	<path class="st21" d="M171.95,800.95c0.1-0.59,0.41-0.99,0.71-1.4c0.05,0.47,0.1,0.93,0.03,1.66
		C172.44,801.36,172.3,801.24,171.95,800.95z"/>
	<path class="st8" d="M459.88,597.72c-0.42,0.05-1.01-0.16-1.75-0.67C458.57,597,459.14,597.23,459.88,597.72z"/>
	<path class="st15" d="M594.08,541.19c0.23-0.13,0.48,0.05,0.76,0.55C594.62,541.86,594.37,541.67,594.08,541.19z"/>
	<path class="st15" d="M231.9,656.71c-0.18,0.11-0.5,0-0.97-0.33C231.11,656.28,231.44,656.38,231.9,656.71z"/>
	<path class="st11" d="M645.81,641.7c-0.23,0.13-0.47-0.05-0.72-0.54C645.31,641.05,645.55,641.23,645.81,641.7z"/>
	<path class="st15" d="M269.99,631.98c0.1-0.03,0.22-0.05,0.19-0.01C270.03,632.03,270,632,269.99,631.98z"/>
	<path class="st16" d="M762.01,762.99c0.25,0.12,0.47,0.26,0.7,0.4c-0.24,0.03-0.48,0.05-0.73-0.14
		C761.96,763.04,761.99,763.01,762.01,762.99z"/>
	<path class="st17" d="M728.99,710.02c1.73-1.01,3.48-2.04,5.56-3.11c-1.35,1.37-3.04,2.78-5.11,4.16c-0.51-0.2-0.64-0.38-0.59-0.83
		C729.03,709.96,729,710,728.99,710.02z"/>
	<path class="st19" d="M728.76,710.09c0.25,0.05,0.24,0.23,0.26,0.68c-0.14,0.32-0.32,0.37-0.78,0.48
		C728.14,710.94,728.32,710.58,728.76,710.09z"/>
	<path class="st0" d="M234.44,595.02c-2.33-2.5-4.3-4.94-6.43-7.68c-5.37-11.66-2.38-22.06,4.06-31.72
		c4.4-6.59,10.35-11.5,18.29-13.73c17.99-5.06,29.04,10.37,26.22,25.76c-0.53,2.92-1.64,5.73-2.52,8.97
		c-1.04,2.14-2.04,3.89-3.12,5.97c-4.8,6.18-10.21,11.08-17.45,13.75C247.01,598.73,240.85,598.11,234.44,595.02z"/>
	<path class="st12" d="M221.45,550.03c-0.87-8.39,0.16-9.5,8.06-8.73c2.26,2.99,3.63,6.01,0.66,8.97
		C227.45,552.98,224.55,552.27,221.45,550.03z"/>
	<path class="st5" d="M445.96,642.83c-8.86-0.05-11.57-7.17-13.55-13.66c-4.07-13.34-6.5-27.1-6.32-41.62
		c0.61,0.01,1.63,0.39,1.73,0.94C431.44,607.3,437.89,625.14,445.96,642.83z"/>
	<path class="st5" d="M466.87,647.74c-3.25-0.35-6.63-1.02-10.39-1.79c-3.78-7.8-7.21-15.48-10.57-23.2
		c-0.82-1.89-1.4-3.89-2.47-6.89C451.72,627.08,459.23,637.26,466.87,647.74z"/>
	<path class="st5" d="M443.01,613.25c0.23,0.12,0.49,0.47,0.74,0.82c-0.13,0.09-0.25,0.17-0.38,0.26
		C443.25,614.05,443.14,613.76,443.01,613.25z"/>
	<path class="st5" d="M443.01,613c-0.24-0.35-0.5-0.69-0.75-1.03c0.12-0.09,0.24-0.17,0.37-0.26c0.11,0.28,0.22,0.55,0.35,1.07
		C442.99,613.01,443,613,443.01,613z"/>
	<path class="st20" d="M599.03,709.42c5.89,1.12,11.71,2.59,17.78,4.33c-0.9,2.8-2.05,5.33-3.46,8.07
		c-6.71,1.12-12.96,0.51-19.2-2.52C595.59,715.87,597.27,712.82,599.03,709.42z"/>
	<path class="st22" d="M593.63,719.11c6.41,0.74,12.54,1.67,19.06,2.75c-0.46,2.03-1.31,3.89-2.44,5.95
		c-6.68-0.81-13.07-1.82-19.9-2.84C591.06,723.06,592.2,721.17,593.63,719.11z"/>
	<path class="st20" d="M630.76,714.26c5.63-0.56,11.01-0.9,16.78-1.21c-0.51,2.48-1.42,4.93-2.51,7.7
		c-5.5,3.4-10.97,2.15-16.76,0.54C628.8,718.81,629.65,716.65,630.76,714.26z"/>
	<path class="st22" d="M627.7,721.17c5.61-0.18,10.97-0.16,16.74-0.12c-0.7,2.86-1.81,5.71-3.21,8.75c-3.81,0.2-7.31,0.75-10.1-2.61
		c-0.9-1.08-3.43-0.81-5.61-1.14C625.91,724.5,626.68,722.94,627.7,721.17z"/>
	<path class="st12" d="M260.76,575.68c-4.35,3.43-8.15,7.29-12.75,9.48c-4.68,2.23-8.74-0.61-10.23-5.65
		c-3.01-10.21,7.42-25.58,18-26.52c4.99-0.44,9.23,2.54,8.92,7.72C264.39,565.66,262.27,570.5,260.76,575.68z"/>
</g>
</svg>
