<?xml version="1.0" encoding="utf-8"?>
<!-- Generator: Adobe Adobe Illustrator 24.2.0, SVG Export Plug-In . SVG Version: 6.00 Build 0)  -->
<svg version="1.1" id="レイヤー_1" xmlns="http://www.w3.org/2000/svg" xmlns:xlink="http://www.w3.org/1999/xlink" x="0px"
	 y="0px" width="1000px" height="1000px" viewBox="0 0 1000 1000" style="enable-background:new 0 0 1000 1000;"
	 xml:space="preserve">
<style type="text/css">
	.st0{fill:#040404;}
	.st1{fill:#AEAEAE;}
	.st2{fill:#050505;}
	.st3{fill:#020202;}
	.st4{fill:#A8A8A8;}
	.st5{fill:#949493;}
	.st6{fill:#AFAFAF;}
	.st7{fill:#939392;}
	.st8{fill:#ABABAB;}
	.st9{fill:#919190;}
	.st10{fill:#AAAAAA;}
</style>
<g>
	<path class="st0" d="M172.27,668.23c-2.3-4.1-4.67-7.73-6.7-11.54c-1.58-2.95-3.5-3.7-6.45-2.12c-5.43,2.9-10.91,5.71-16.35,8.61
		c-3.38,1.8-6.69,3.75-10.55,4.39c-5.04,0.83-9.35-1.16-10.84-5.04c-1.59-4.12-0.14-8.51,4.36-11.07
		c6.94-3.95,14.15-7.42,21.16-11.26c1.23-0.67,4.7-0.83,2.63-3.29c-1.91-2.27-3.44-6.99-7.84-4.7
		c-10.04,5.22-19.85,10.89-29.8,16.27c-2.77,1.5-5.64,2.93-8.62,3.91c-5,1.65-9.53-0.22-11.52-4.33c-1.93-4-0.79-8.32,3.4-11.41
		c5.39-3.97,11.62-6.49,17.48-9.64c4.4-2.37,8.82-4.69,13.3-6.91c2.35-1.16,2.43-2.09,0.48-3.91c-3.74-3.48-7.15-4.92-12.14-1.71
		c-8.11,5.21-16.67,9.74-25.09,14.47c-2.6,1.46-5.26,2.94-8.06,3.89c-4.95,1.67-9.66-0.16-11.66-4.12
		c-2.09-4.15-0.69-9.28,3.96-12.09c7.97-4.82,16.21-9.21,24.25-13.92c1.51-0.88,4.76-1.06,3.79-3.54c-0.78-2.01-3.41-2.45-6.02-2.48
		c-5.08-0.07-9.39,1.62-13.58,4.13c-5.71,3.42-11.44,6.81-17.19,10.18c-1.72,1.01-3.44,2.09-5.29,2.78
		c-4.94,1.83-9.75,0.37-11.9-3.39c-2.21-3.86-1.21-8.63,2.91-12.02c5.95-4.9,12.88-8.26,19.54-12.03c1.41-0.8,3.85-1.06,3.87-2.73
		c0.03-2.07-2.69-2-4.09-3.04c-3.91-2.88-7.93-1.91-11.8-0.13c-3.93,1.8-7.74,3.88-11.54,5.95c-2.21,1.2-4.4,2.41-6.88,2.88
		c-4.38,0.82-8.1-0.48-10.16-4.52c-1.97-3.86-0.93-7.63,2.26-10.41c2.47-2.16,5.4-3.79,8.56-5.94c-2.71-1.14-5.09-2.1-7.45-3.13
		c-3-1.3-5.47-3.23-6.75-6.34c-1.4-3.41-0.59-6.43,1.6-9.34c2.2-2.92,4.79-2.18,7.61-1.4c49.21,13.56,91.7,38.77,128.41,74.03
		c0.57,0.54,1.26,0.96,1.93,1.45c1.32-1.54,0.27-2.68-0.17-3.8c-30.75-79.41-53.43-161.12-69.92-244.6
		c-7.94-40.22-14.26-80.69-17.9-121.53c-3.29-36.89-4.72-73.85-1.3-110.81c1.63-17.62,4.68-35.03,11.67-51.45
		c8.24-19.34,21.47-33.43,42.25-39.52c17.18-5.04,32.01,0.11,42.59,14.62c7.96,10.9,11.19,23.31,12.54,36.35
		c2.69,26.11,11.73,49.74,27.03,71.03c1.92,2.68,3.99,5.28,5.61,8.14c3.87,6.8,9.12,9.23,17.32,9.57
		c39.99,1.67,76.1,14.19,106.16,41.49c25.17,22.85,40.14,51.47,46.8,84.62c6.55,32.59,3.48,64.65-5.29,96.39
		c-0.43,1.57-1.35,3.07-0.61,5.31c4.84-4.6,9.67-8.89,14.14-13.53c4.2-4.36,9.08-7.83,13.81-11.49c5.28-4.09,11.3-5.63,17.88-3.85
		c2.4,0.65,4.11-0.11,5.96-1.48c12.7-9.43,25.43-18.85,38.22-28.16c5.85-4.26,11.41-9.69,19.8-5.99c1.66,0.73,2.55-1.25,3.55-2.25
		c9.98-10.03,19.64-20.4,30.86-29.12c2.64-2.05,5.33-3.97,8.52-5.12c2.99-1.08,6.37-1.53,8.62,0.46c3.81,3.36,5.71,1.49,8.39-1.34
		c8.23-8.72,16.77-17.14,25.08-25.78c5.06-5.26,10.82-7.47,17.49-3.71c7.7,4.35,13.12,1.84,18.9-3.96
		c6.31-6.32,12.92-12.51,21.05-17.27c3.23-1.95,6.4-3.07,10.12-3.62c1.95,0.18,3.54,0.28,5.52,0.44c1.22-0.18,1.82,0.39,2.8,0.7
		c1.43,1.04,2.58,2.02,3.94,3.25c1.35,1.67,1.7,3.44,2.41,5.4c0.91,2.59,1.78,4.86,2.8,7.44c0.69,1.37,1.5,2.17,2.76,3
		c0.71,0.23,1.11,0.31,1.81,0.41c1.49,0.14,2.7-0.01,4.16,0.6c1.03,0.24,1.73,0.33,2.79,0.45c0.94,0.05,1.5,0.18,2.29,0.55
		c1.6,0.43,2.93,0.78,4.68,1.09c9.61-1.52,18.77-2.54,27.84,2.3c0.32,0.31,0.46,0.16,0.41,0.25c0.69,0.36,1.17,0.96,1.93,1.66
		c3.73,3.79,5.58,8.08,5.69,13.54c0.98,3.34-0.95,6.03-0.78,9.29c-0.16,0.73-0.2,1.09-0.25,1.72c-0.8,4.26-0.93,8.4-2.86,12.53
		c-2.07,4.41-3.9,8.52-5.95,12.51c-1.68,3.27-1.13,4.28,2.74,4c13.98-1.01,27.95-1.16,41.88,0.94c28.09,4.23,52.8,14.81,71.06,37.57
		c1.65,2.05,3.36,1.95,5.7,1.58c15.35-2.42,29.26-8.56,42.61-16.16c18.01-10.25,37.15-16.98,57.73-19.81
		c25.09-3.44,51.49,14.07,48.14,47.13c-0.82,8.14-3.74,15.77-6.35,23.53c-6.75,20.13-21.68,33.96-35.95,48.3
		c-40.94,41.13-86.46,76.62-135.06,108.19c-81.7,53.06-169.02,94.4-261.61,124.62c-3.75,1.22-4.51,2.49-1.95,5.68
		c1.21,1.51,2.27,3.53,2.44,5.4c0.53,5.79,4.34,7.48,9.19,8.79c14.66,3.96,29.52,6.79,44.56,8.82c2.3,0.31,4.63,0.75,6.81,1.5
		c5.17,1.8,7.54,5.51,6.82,10.23c-0.68,4.41-3.84,7.1-9.31,7.37c-7.04,0.34-13.95-1-20.82-2.27c-13.27-2.46-26.36-5.65-39.12-10.12
		c-1.78-0.63-3.35-1.01-5.1,0.41c-14.76,12.03-32.09,12.59-49.82,10.76c-10.63-1.1-20.83-4.1-30.7-8.74
		c-0.26,0.9-0.52,1.33-0.49,1.73c0.34,4.67-1.2,8.4-5.89,9.79c-4.89,1.45-8.32-1.08-10.82-5.13c-0.52-0.85-0.95-1.76-1.57-2.96
		c-0.87-1.93-1.49-3.58-1.98-5.61c-0.13-0.68-0.23-1.03-0.41-1.65c-0.72-2.1-0.62-4.6-4.03-4.19c-0.74,0.09-1.14,0.15-1.83,0.28
		c-1.51,0.73-2.95,0.47-4.5,1.16c-0.45,0.64-0.58,1.16-0.63,2.09c1.39,4.53,2.69,8.66-0.07,13.13c-1.45,1.64-2.69,2.91-4.86,3.41
		c-2.33,1.28-4.09,0.29-6.21-0.79c-1.23-1.09-2.11-1.94-3.18-3.04c-1.83-2.23-2.44-4.71-3.44-7.37c-0.58-2.23-0.63-4.62-4.1-3.73
		c-1.65,0.84-1.56,1.98-1.12,3.12c0.98,2.55,0.4,4.88-1.1,7.44c-0.73,0.87-1.25,1.45-1.98,2.23c-2.18,1.38-4.26,2.17-6.99,1.85
		c-1.09-0.35-1.82-0.65-2.8-1.07c-1.92-0.8-2.9-2.21-4.08-3.81c-0.35-0.8-0.61-1.3-1.05-2.02c-1.71-1.11-2.94-2.46-4.92-2.69
		c-4.43-0.51-5.59,0.31-6.45,5.37c0.06,0.75,0.1,1.16,0.18,1.87c1.22,2.31,0.09,4.09-0.66,6.31c-1.12,2.18-2.6,3.45-4.51,4.74
		c-5.12,2.48-9.76,0.59-12.69-4.94c-2.88-5.43-3.21-11.49-3.66-17.41c-0.39-5.12-1.37-10.19-1.22-15.37
		c0.05-1.78-0.01-4.13-2.6-3.97c-3.12,0.19-2.24,2.78-1.98,4.6c1.1,7.89,2.86,15.67,4.14,23.52c1.44,8.87-0.09,11.92-7.19,15.17
		c-7.83,0-10.49-1.89-13.21-8.99c-0.77-2-1.3-4.06-1.83-6.55c-1.18-7.31-1.92-14.27-3-21.18c-0.75-4.78-1.1-4.93-5.21-2.81
		c-6.32,3.25-13.1,1.58-16.06-3.95c-3.05-5.7-0.98-12.25,5.27-15.71c5.63-3.12,11.99-4.14,18.23-4.93
		c6.25-0.79,12.54-1.55,18.9-1.46c17.31,0.26,34.65-0.61,51.91,1.11c14.91,1.49,29.8,3.23,44.56,5.8
		c6.73,1.17,13.17,1.14,19.77-0.46c25.91-6.28,51.48-13.73,76.85-21.94c27.91-9.04,55.36-19.26,82.41-30.57
		c31.52-13.18,62.32-27.85,92.49-43.9c23.98-12.76,47.51-26.29,70.45-40.82c9.28-5.88,18.49-11.89,27.9-18.29
		c10.82-7.72,21.59-14.85,32-23.11c20.1-14.65,38.86-30.33,56.99-46.83c9.13-8.31,17.78-17.07,26.56-25.73
		c10.36-10.22,19.7-21.28,26.71-34.1c4.35-7.97,7.33-16.38,7.23-25.68c-0.13-12.71-7.09-19.73-20.25-19.76
		c-5.69-0.2-10.92,0.58-16.52,1.48c-14.49,3.05-27.38,8.97-39.56,16.53c-4.38,2.72-9.2,4.56-13.91,7.45
		c-7.81,3.19-15.2,6.46-23.5,8.33c-7.7,1.58-15.05,2.79-22.79,4.27c-6.75,1.28-13.2,1.32-20.03,2.04
		c-7.95,0.34-15.43-0.02-23.33-0.96c-6.9-0.23-13.11-1.83-19.79-3.36c-10.86-2.64-21.48-2.71-32.56-2.66
		c-5.43-0.04-10.42,0-15.79,0.93c-21.16,0.87-41.28,5.22-61.61,10.73c-12.91,2.88-25.07,6.83-37.42,11.44
		c-15.32,4.84-29.45,11.55-43.54,18.29c-11.4,5.46-22.6,11.34-33.35,18.74c-14.59,8.27-27.5,18.2-40.02,28.73
		c-11.69,9.84-21.4,21.39-30.68,33.42c-6.4,8.29-15.32,8.57-20.29,0.97c-3.68-5.63-1.07-10.49,2.16-15.59
		c5.85-9.62,11.2-19.04,18.58-27.27c9.96-11.1,20.09-21.99,31.1-32.58c3.24-2.58,1.67-4.57-0.26-6.43
		c-6.65-6.42-14.55-11.07-22.42-15.77c-11.18-6.68-23.04-11.94-35.04-16.94c-5.64-2.35-10.69-2.46-15.22,1.96
		c-13.3,12.97-28.19,24.37-38.96,39.82c-2.63,3.78-5.77,6.97-10.74,7.36c-2.9,0.23-4.22,2.2-5.55,4.43
		c-5.18,8.71-9.22,18.09-15.73,26.03c-2.96,3.61-6.28,5.77-11.07,5.54c-7.55-0.37-12.32-7.03-10.24-14.33
		c0.99-3.47,3.4-6.08,5.15-9.08c6.84-11.75,9.74-24.71,11.51-37.97c3.11-23.3,2.07-46.47-2.93-69.44c-0.25-1.13-0.6-2.25-1.11-3.71
		c-4.38-19.77-12.28-37.67-22.74-54.9c-0.35-0.48-0.49-0.68-0.81-1.17c-0.74-1.3-1.31-2.3-2.22-3.49
		c-6.68-10.06-14.15-18.96-23.61-26.54c-4.7-4.95-10.29-8.06-16.11-11.45c-6.35-3.6-11.71-8-17.56-12.3
		c-5.36-2.78-7.71-8.23-12.43-11.69c-5.11-3.05-8.74-7.26-12.96-11.33c-4.04-4.25-8.12-7.98-12.06-12.33
		c-4.22-5.27-8.7-9.85-13.03-15.01c-3.42-4.78-6.57-9.33-10.15-14c-5.19-7.04-8.88-14.55-13.19-22.13
		c-5.14-7.18-6.33-15.64-10.04-23.46c-1.04-4.94-2.11-9.45-3.9-13.77c-2.62-6.31-1.37-13.14-2.47-19.69
		c-1.59-9.45-4.52-18.34-9.23-27.08c-3.56-5.75-7.38-10.48-15.08-9.96c-18.65,5.69-31.36,17.06-36.74,35.75
		c-5.55,19.3-7.84,39.11-8.27,59.13c-0.27,12.81-0.25,25.63,0,38.43c0.4,20.28,1.85,40.5,4.37,60.63
		c1.94,15.51,3.07,31.12,6.34,46.87c1.89,12.8,3.04,25.29,6.53,37.8c2.63,23.97,8.48,46.91,13.73,69.95
		c9.59,42.08,20.98,83.68,34.46,124.69c7.64,23.25,15.67,46.38,24.81,69.1c0.5,1.24,0.95,2.49,1.35,3.76
		c1.72,5.5,1.14,6.83-3.73,9.81c-2.59,1.58-5.74,2.49-7.87,5.93c2.41-0.13,2.97-1.74,4.01-2.56c6.39-5.05,14.99-1.95,16.62,6.03
		c0.27,1.3,0.13,2.71,0.62,3.94c2.97,7.44,1.18,13-6.27,16.45c-1.99,0.92-1.93,2.9-2.31,4.68
		C187.26,671.81,179.48,674.46,172.27,668.23z"/>
	<path class="st1" d="M807.18,545.5c-23.19,16.6-47.19,31.25-71.63,45.16c-52.01,29.6-106.05,54.9-162.18,75.68
		c-38.72,14.33-78.13,26.44-118.22,36.43c-9.84,2.45-18.81,0.26-28.08-1.09c-34.53-5.05-69.14-7.86-104.01-4.44
		c-6.46,0.63-12.92,1.68-18.97,4.15c-4.24,1.73-7.25,4.83-7.55,9.7c-0.25,4.06,1.71,7.07,5.26,8.92c3.94,2.05,7.55,1.51,11.14-1.24
		c4.15-3.18,5.45-2.54,6.18,2.62c1.03,7.25,1.97,14.51,2.88,22.18c-6.71,4.2-6.68,10.9-7.65,17.59c-6.55,2.73-12.74,5.68-19.58,6.16
		c-5.13,0.36-10.06,2.19-15.68,1.81c-2.55-0.48-4.06,0.4-5.69,1.8c-4.58,3.9-9.86,6.46-16.35,6.91c-1.1-0.91-1.3-1.9-1.61-2.84
		c-2.17-6.47-2.88-6.84-9.24-4.79c-1.12,0.36-2.32,0.93-3.39,0.51c-5.13-2.02-10.3-3.4-15.94-3.07c-2.12,0.12-2.95-2.38-3.97-4.1
		c-3.45-5.82-6.43-6.49-12.22-2.81c-7.9,5.02-10.73,4.37-15.43-3.77c-1.82-3.16-3.6-6.35-4.44-9.98c-1.13-4.87-3.71-7.07-7.27-6.47
		c-3.5,0.59-4.76,3.18-4.22,8.64c0.05,0.5,0.01,0.99-0.38,1.71c-2.5,0.59-4.71,0.96-7.3,1.27c-1-0.39-1.36-0.91-1.59-1.56
		c-2.71-7.98-6.83-10.4-15.06-8.65c-5.87,1.25-11.7,2.6-17.76,2.4c-1.67-0.06-3.33-0.07-4.96-0.48c-5.08-1.29-6.58-4.26-4.12-8.91
		c3.03-5.72,8.04-9.68,13.08-13.52c1.86-1.42,3.8-2.84,5.95-3.63c5.61-2.06,8.64-5.92,9.29-12.17c2.83-1.34,3.71,0.96,4.86,2.32
		c6.42,7.62,14.73,11.56,24.4,13.22c3.61,0.62,6.93-0.01,10.25-1.14c3.49-1.19,5.08-3.78,4.45-7.35c-0.67-3.84-3.63-5.17-7.06-4.69
		c-6.59,0.93-12.52-0.39-17.97-4.14c-1.97-1.36-4.07-2.93-4.16-5.32c-0.24-6.39-3.99-8.54-9.89-9.12
		c-1.53-6.79,1.37-12.25,4.27-17.7c1.21-2.27,3.57-2.85,6.13-3.79c7.23,3.58,10.93,3.38,14.26-0.55c2.42-2.86,0.82-6.84,2.31-9.33
		c1.44-2.41,6.09-1.73,8.09-4.94c2.99-4.81-0.02-18.58-4.85-21.35c-4.88-2.8-9.51-0.83-13.78,5.85c-4.88-4.24-4.85-4.62,0.53-7.6
		c10.47-5.8,10.31-5.74,6-16.98c-22.54-58.78-41.04-118.82-55.55-180.09c-6.33-26.72-12.39-53.49-16.86-81.11
		c3.16-1.41,4.47,1.05,5.99,2.93c3.56,4.39,6.87,8.99,11.06,12.85c2.65,2.44,5.42,4.42,9.31,3.84c3.2-0.48,3.94,1.85,4.47,4.21
		c3.48,15.29,8.69,30.07,14.05,44.74c10.57,28.9,19.78,58.29,31.21,86.87c4.76,11.89,9.79,23.66,13.92,35.8
		c1.49,4.37,1.02,9.37,4.42,13.51c0.69,3.67-1.04,6.51-1.91,9.49c-2.25,7.7-3.81,15.52-4.89,23.45c-0.35,2.55,0.06,4.99,0.81,7.39
		c1.4,4.52,5.03,6.73,9.58,5.94c4.73-0.83,7.4-3.88,6.5-8.94c-1.04-5.85,0.14-11.23,1.71-16.69c0.89-3.12,2.34-4.38,5.82-2.85
		c7.75,3.41,11.71,2.17,16.91-5.15c4.06-5.7,7.87-11.55,12.96-16.45c2.82-2.71,5.7-4.46,9.77-3.7c3.47,0.65,6.41-0.59,8.09-3.65
		c1.72-3.13,1.42-6.52-0.6-9.48c-2.36-3.47-5.49-5.75-9.98-5.6c-1.98,0.07-4.01,0.15-6.25-0.89c-6.41-9.88-9.53-20.83-13.84-31.27
		c-4.74-11.48-5.35-21.82,0.55-34.04c14.12-29.2,21.19-60.88,27.97-92.5c2.72-12.69,5.78-25.32,8.92-37.91
		c4.32-17.32,7.19-34.86,9.13-52.58c0.22-1.99,0.26-4.02,2.27-5.68c9.85,7.35,17.57,16.43,24.22,26.88c0.3,1.42,0.77,2.38,1.8,3.39
		c0.28,0.17,0.15,0.3,0.2,0.23c6.5,12.92,8.08,26.85,8.35,41.14c0.85,44.39-7.77,87.04-23.39,128.39
		c-4.07,10.76-9.24,21.02-15.46,30.73c-2.09,3.27-4.1,6.62-1.52,10.98c1.07,2.12,0.41,3.93,0.33,5.73
		c-0.17,3.88,0.27,7.67,2.35,11.04c1.72,2.8,4.3,4.01,7.63,3.61c3.07-0.37,4.86-2.24,5.45-5.05c0.98-4.68,1.82-9.23,4.35-13.54
		c1.93-3.29-0.57-6.67-2.71-9.97c0.96-7.22,4.49-13.21,7.39-19.24c12.92-26.86,19.6-55.43,24.67-84.52
		c2.23-12.79,3.45-25.7,4.12-38.66c0.09-1.8-0.06-3.73,2.21-4.83c4.02,10.73,5.09,21.88,5.97,32.96c1.83,23.1,0.01,45.9-7.39,68.07
		c-2.09,6.26-5.63,11.64-9.03,17.17c-4.25,6.92-1.26,14.84,6,16.15c5.06,0.91,8.45-1.67,11.48-5.44
		c6.74-8.38,11.06-18.16,16.29-27.41c1.01-1.79,1.68-3.47,4.33-3.21c4.5,0.44,7.85-2.14,10.02-5.54
		c7.73-12.13,19.35-20.52,28.91-30.86c4.3-4.66,8.82-8.86,13.79-12.69c3.02-2.33,6.29-3.07,9.8-1.73
		c19.18,7.31,37.6,16.12,54.38,28.06c2.98,2.12,5.65,4.66,8.6,6.82c3.96,2.89,4.14,5.49-0.57,8.19
		c-10.89-6.24-21.83-11.84-33.12-16.79c-5.2-2.28-10.55-4.1-15.89-5.96c-3.17-1.11-6.16-2.22-8.82-4.42
		c-3.52-2.91-8.48-2.53-12.92,0.8c-7.45,5.6-14.44,11.77-21.35,18.03c-6.29,5.69-13.63,10.59-17.92,17.95
		c-4.68,8.02-10.95,14.49-17.1,21.18c-2.9,3.16-4.06,7.21-6.14,11.2c-5.66,1.92-11.15,3.28-16.08,6.16
		c-2.16,1.26-4.35,2.45-5.94,4.45c-2.77,3.47-3.01,7.08-0.61,10.02c2.62,3.21,5.96,3.29,9.48,1.88c2.16-0.87,4.08-2.22,6.15-3.28
		c3.03-1.54,5.38-1.25,6.99,2.03c4.44,8.99,11.83,11.33,21.23,9.64c4.72-0.85,9.49-1.4,14.34-1.53c6.12-0.15,11.69,0.94,17.23,3.77
		c8.78,4.48,13.15,1.95,15.12-8.24c3.17-3.29,6.92-5.32,9.91-8.36c1.42-1.44,3.63-1.23,5.84-0.04c-0.75,2.36-2.04,4.34-2.77,6.51
		c-1.7,5.06,0,9.7,4.15,12.17c4.44,2.64,9.46,1.99,13.08-2.13c2.74-3.11,5.03-6.62,7.6-9.88c16.8-21.33,37.87-37.73,60.47-52.37
		c1.4-0.9,2.81-1.79,4.59-2.81c1.61,3.61-1.25,5.47-3.42,7.28c-10.12,8.44-18.91,18.22-28.26,27.44
		c-14.9,14.71-29.18,30.02-42.98,45.77c-2.06,2.35-4.02,4.93-7.53,6.09c-2.28,0.04-3.87-0.93-5.55-1.63
		c-7.2-3.01-14.38-1.83-21.48,0.27c-3.49,1.03-5,3.86-4.82,7.32c0.19,3.56,2.4,5.72,5.82,6.6c1.62,0.42,3.31,0.24,4.96,0.38
		c1.63,0.13,3.67-0.1,4.32,1.77c0.58,1.68-0.52,3.33-1.79,4.41c-4.68,3.97-6.44,9.08-6.42,15.37c-4.11,6.57-3.63,8.51,3.23,13.3
		c1.1,2.38-0.36,3.7-1.47,5.1c-1.54,1.96-3,3.97-4.11,6.21c-1.63,3.28-1.63,6.41,1.05,9.17c2.63,2.7,6.43,3.08,10.07,1.17
		c3.88-2.03,6.01-6.21,10.38-8.17c19.05-2.44,36.62-8.84,54.14-15.22c31.54-11.48,61.47-26.39,91.07-42.2
		c13.03-6.95,25.72-14.7,39.4-20.49c4.51-1.91,8.04-2.17,12.51,0.68c14.93,9.54,31.78,14.39,48.8,18.66
		c1.29,0.32,2.63,0.47,3.91,0.82c2.18,0.59,5.17,0.45,5.47,3.41c0.28,2.8-2.5,3.74-4.49,4.76c-20.47,10.47-41.06,20.72-62.08,30.06
		c-29.41,13.08-59.33,24.87-89.96,34.74c-32.73,10.53-65.98,19.02-100.25,22.75c-12.39,1.35-24.89,1.93-37.34,0.16
		c-2.14-0.3-4.31-0.58-6.3-2.31c-0.55-2.79,1.74-3.6,2.87-5.12c2.3-3.09,4.03-6.23,1.4-9.98c-2.37-3.38-5.45-4.1-10.18-2.16
		c-3.69,1.51-7.25,3.27-11.1,4.41c-3.53,1.05-5.69,3.63-5.34,7.46c0.36,3.94,2.86,6.22,6.68,7.04c1.93,0.41,4.02-0.01,6.09,1.38
		c0.43,0.93,0.34,0.08,0.49,0.73c2.25,10.08,3.83,11.02,14.77,12.04c30.83,2.87,60.8-2.55,90.52-9.46
		c48.04-11.18,94.16-28.07,139.27-47.88c34.67-15.22,68.46-32.16,101.27-51.05c6.25-3.6,13.12-3.73,19.84-4.31
		c16.27-1.42,32.41-3.82,48.62-5.67C804.05,543.07,806.48,542.08,807.18,545.5z"/>
	<path class="st2" d="M278.72,769.48c3.22-2.32,6.97-2.39,10.5-2.6c8.36-0.51,15.96-4.05,24.42-5.6c6.67-0.7,11.41,3.55,11.62,9.93
		c0.09,2.71-0.7,5.22-1.72,7.68c-2.91,7.03-3.34,14.42-3.15,22.3c1.34,21.16,6.69,40.75,17.32,58.73c2.3,3.89,5.41,7.2,8.85,10.12
		c3.92,3.32,6.49,2.66,8.16-2.28c2.15-6.36,3.31-13.01,2.84-19.67c-1.32-18.75-5.15-36.91-14.38-54c-2.24-5.08-5.35-9.13-8.49-13.17
		c-5.47-7.02-5.07-11.95,1.78-18.31c5.64-2.97,10.46-1.71,14.41,2.23c3.97,3.96,7.42,8.44,9.54,14.18
		c5.36,11.86,10.81,23.27,13.78,35.65c4.68,19.45,7.21,38.98,1.72,58.71c-1.63,5.86-4.25,11.37-9.06,15.22
		c-2.83,2.27-2.79,4.26-1.73,7.24c7.19,20.23,15.29,40.1,23.49,59.93c1.02,2.46,2.06,4.92,2.85,7.46
		c1.77,5.68,0.03,10.37-4.42,12.37c-4.44,2-9.17,0.19-12.15-4.94c-3.86-6.63-6.88-13.68-9.7-20.8
		c-6.67-16.86-12.83-33.92-18.27-51.22c-0.92-2.93-2.22-4.75-5.28-5.9c-10.46-3.93-16.68-12.68-22.06-21.65
		c-16.34-27.22-23.58-56.65-19.55-88.44c0.38-2.98-0.58-3.38-3.1-3.27c-3.84,0.17-7.65-0.25-11.35-1.39
		C281.57,776.76,278.9,774.38,278.72,769.48z"/>
	<path class="st2" d="M156.97,704.38c-0.21,1.58-0.59,2.58-0.5,3.53c0.51,5.28-1.92,8.18-6.8,10.13
		c-8.2,3.27-14.78,8.91-19.91,16.09c-4.08,5.71-2.93,8.12,4.16,8.86c7.4,0.77,14.58-0.69,21.7-2.48
		c8.94-2.24,14.62,1.74,15.53,11.17c-1.45,3.69-3.79,6.11-7.31,7.3c-12.18,4.12-24.53,5.9-37.31,3.22
		c-4.16-0.87-8.07-2.41-11.21-5.17c-2.76-2.42-5.01-2.1-8.08-0.65c-21.93,10.36-45.05,17.13-68.69,22.21
		c-3.9,0.84-7.93,1.1-11.92,0.49c-4.24-0.65-6.99-3.04-7.66-7.36c-0.7-4.48,1.08-7.9,5.21-9.76c4.9-2.21,10.28-2.68,15.48-3.8
		c21.33-4.63,42.33-10.27,62.27-19.4c3.39-1.55,5.42-3.73,6.62-7.41c3.24-9.89,10.43-16.87,18.41-23.05
		c4.46-3.46,9.13-6.66,13.76-9.9c4.36-3.05,9.68-1.85,14.97,3.18c0.53,0.18,0.67,0.32,0.95,0.73
		C156.9,702.98,156.98,703.37,156.97,704.38z"/>
	<path class="st0" d="M178.8,751.45c-0.46-1.62-0.92-2.87-1.06-4.17c-0.52-4.62,1.75-7.94,5.67-8.47c4.13-0.55,8.14,2.17,8.6,6.46
		c0.64,5.92,3.95,10.41,7.05,15.08c2.39,3.6,5.26,3.51,8.46,1.19c1.08-0.78,2.1-1.63,3.2-2.37c5.55-3.72,10.71-2.45,13.27,3.81
		c1.54,3.77,2.77,4.97,7.12,3.3c3.31-1.27,7.05,1.07,10.26,2.91c1.19,0.68,1.95,1.86,3.86,0.74c7.3-4.33,9.01-3.54,11.23,4.6
		c0.21,0.77,0.15,1.61,0.2,2.8c-7.34,8.85-10.16,9.59-20.2,5.05c-2.25-1.02-4.23-0.6-6.29-0.07c-6.09,1.57-11.34,0.33-15.08-4.86
		c-1.56-2.17-2.88-1.87-4.97-1.13c-8.68,3.07-15.1,1.21-20.91-5.79C184.57,764.94,181.56,758.48,178.8,751.45z"/>
	<path class="st3" d="M156.12,701.79c-0.13-0.36-0.08-0.28-0.06-0.23c0.42-4.37,0.39-8.95,4.8-12.19c9.5-1.02,9.55-1.03,11.28,8.56
		c0.37,2.05,1.6,3.28,3.1,4.29c5.37,3.62,10.99,6.06,17.78,4.52c3.97-0.9,7.31,0.52,8.85,4.58c1.47,3.9-0.48,7.91-4.68,9.77
		c-5.3,2.34-10.79,1.82-16.16,0.44c-9.84-2.54-18-7.63-23.76-16.54c-0.36-0.01-0.3,0.04-0.27,0.06
		C156.23,704.24,156.72,703.07,156.12,701.79z"/>
	<path class="st4" d="M360.78,779.05c-3.04-3.5-5.7-7.43-8.62-11.16c-3.63-4.64-8.17-7.02-14.58-4.79c-2.76,0.23-3.33-1.11-2.8-3.48
		c6.94-3.69,8.34-6.62,6.96-14.49c-1.43-8.18-2.98-16.34-4.25-24.55c-0.36-2.29-1.82-5.41,2.91-5.7c4.03-0.24,4.61,1.57,4.68,4.97
		c0.2,9.8,0.48,19.63,2.78,29.21c1.76,7.34,5.46,10.03,12.61,9.74C360.35,765.46,362.36,772.07,360.78,779.05z"/>
	<path class="st5" d="M708.77,288.87c-8.83-2.62-17.91-2.55-27.39-2.07C688.22,279.52,702.25,281.87,708.77,288.87z"/>
	<path class="st5" d="M366.32,745.71c-1.04-1.94-2.45-4.4,0.41-6.04c3.26-1.88,8.71-0.52,10.5,2.69
		C373.6,743.27,369.73,742.94,366.32,745.71z"/>
	<path class="st5" d="M418.45,747.01c1.11-4.07,0.94-8.2-0.11-12.67C421.06,738.27,421.73,742.57,418.45,747.01z"/>
	<path class="st5" d="M712.78,328.09c0.49-3.92,1.29-7.98,2.39-12.25C716.42,320.06,715.05,324.06,712.78,328.09z"/>
	<path class="st5" d="M394.46,746.02c1.61-3.42-1.27-7.49,1.35-10.82C395.36,738.8,397.88,742.74,394.46,746.02z"/>
	<path class="st5" d="M644.82,263.09c-2.95,1.44-6.09,2.61-9.6,3.73C637.47,263.84,640.87,262.9,644.82,263.09z"/>
	<path class="st5" d="M715.9,313.78c-1.42-2.68,0.19-5.44,0.4-8.66C718.33,307.76,716.74,310.63,715.9,313.78z"/>
	<path class="st5" d="M400.46,738.98c1.93,1.53,2.14,4.23,3.44,6.73C401.21,744.62,401.12,741.8,400.46,738.98z"/>
	<path class="st5" d="M425.26,730.35c4.14-3.03,3.81,0.66,4.2,3.4C428.05,732.84,428.21,730.14,425.26,730.35z"/>
	<path class="st5" d="M385.22,750.08c1.83-1.08,4.24-0.56,6.54-1.89C390.56,750.97,388.07,750.85,385.22,750.08z"/>
	<path class="st5" d="M365.73,754.12c-0.13-1.78,0.06-3.65,0.4-5.91C368.67,750,366.78,751.99,365.73,754.12z"/>
	<path class="st5" d="M406.97,749.45c1.77-0.05,3.6,0.23,5.8,0.65C410.9,752.79,409.01,750.63,406.97,749.45z"/>
	<path class="st5" d="M378.34,745.03c1.3,0.77,2.55,1.9,3.87,3.33C379.91,748.84,379.07,747.15,378.34,745.03z"/>
	<path class="st5" d="M429.59,735.91c1.66,0.98,1.47,2.99,2.11,4.95C429.61,740.12,429.89,738.02,429.59,735.91z"/>
	<path class="st5" d="M659.51,273.05c-1.62-0.91-1.63-2.88-2.42-4.79C659.45,268.73,659.09,270.96,659.51,273.05z"/>
	<path class="st5" d="M419.06,731.74c0.39-1.95,2.1-1.34,3.81-1.46C422.36,731.99,420.77,731.61,419.06,731.74z"/>
	<path class="st5" d="M671.08,284.37c-1.15,0.85-2.34,0.48-3.81-0.18C668.37,282.85,669.67,283.45,671.08,284.37z"/>
	<path class="st5" d="M665.13,283.36c-1.74,0.69-2.36-0.57-2.9-2.19C663.21,281.57,664.14,282.32,665.13,283.36z"/>
	<path class="st5" d="M710.96,290.68c-0.66-0.06-1.35-0.45-2.1-1.14C709.91,288.85,710.39,289.65,710.96,290.68z"/>
	<path class="st5" d="M653.1,264.18c-0.62,0.22-1.4,0.15-2.35-0.17C651.4,263.04,652.18,263.51,653.1,264.18z"/>
	<path class="st5" d="M676.17,285.35c-0.55,0.19-1.14,0.14-1.95-0.14C674.76,284.18,675.45,284.67,676.17,285.35z"/>
	<path class="st5" d="M807.29,545.79c-0.71-2.18-2.25-1.72-3.78-1.51c-16.21,2.26-32.39,5.26-48.76,5.6
		c-15.16,0.32-26.88,8.45-39.34,15.19c-18.29,9.9-36.82,19.32-55.63,28.2c-20.9,9.87-42.05,19.11-63.54,27.6
		c-39.43,15.57-79.72,28.47-121.31,36.81c-14.24,2.86-28.7,4.62-43.29,5.61c-11.69,0.79-23.18,0.78-34.64-1.17
		c-9.15-1.56-10.01-2.9-10-12.57c2.26-3.63,5.7-4.49,9.61-4.89c6.73,3.74,13.95,2.98,20.67,3.09c20.6,0.33,40.97-2.74,61.06-7.09
		c25.8-5.58,51.22-12.6,76.15-21.37c27.28-9.6,54.11-20.29,80.49-32.18c18.52-8.35,36.65-17.47,54.83-26.52
		c1.19-0.59,2.52-1.03,3.53-1.85c1.19-0.97,3.6-1.29,3.11-3.34c-0.41-1.71-2.48-1.18-3.9-1.49c-18.71-4.18-37.22-9.24-53.46-19.69
		c-5.33-3.43-8.94-2.41-13.45-0.05c-23.54,12.29-46.95,24.86-70.69,36.76c-31.1,15.58-63.29,28.53-96.96,37.48
		c-4.91,1.3-9.86,3.08-15.57,2.59c1.14-6.34,4.21-12.06,7.09-18.22c20.88-5.78,40.99-12.71,60.85-20.52
		c8.97-3.52,14.93-7.81,17.93-18.12c4.79-16.47,14.42-31.01,23.52-45.57c16.17-25.86,33.81-50.67,53.21-74.22
		c1.24-1.51,4.84-2.99,1.69-6.41c-0.33-0.82-0.31-1.32,0.01-2.16c11.94-5.22,24.19-8.68,36.91-11.87c1.84,3.51-0.96,5.35-2.71,7.24
		c-25.45,27.46-47.44,57.56-67.97,88.76c-8.42,12.8-16.4,25.9-22.92,39.82c-0.67,1.43-1.98,2.72-1.47,4.89
		c11.18-5.82,22.33-11.36,33.11-17.58c7.65-4.41,15.2-8.97,22.77-13.53c10.43-6.28,18.86-14.66,26.94-23.6
		c13.64-15.09,26.44-30.84,38.73-47.03c11.08-14.59,22.12-29.22,31.79-44.82c1.05-1.69,2.07-3.43,3.94-4.94
		c5.22-1.37,10.29-0.97,15.78-1.02c2.65,3.25,0.68,5.7-0.88,8.27c-17.79,29.37-37.64,57.28-60.34,84.51
		c18.1-13.29,34.65-26.66,50.13-41.44c13.25-12.65,25.48-26.2,37.64-39.84c2.44-2.74,4.32-5.89,6.81-9
		c6.3,0.99,12.29,2.15,18.69,3.46c1.5,1.87,0.2,2.96-0.7,4.08c-17.12,21.05-35.14,41.21-55.18,59.62
		c-15.25,14.01-31.44,26.69-48.16,38.78c-4.86,3.51-10.11,6.43-15.07,9.79c-2.64,1.79-2.68,3.25,0.2,4.56
		c4.7,2.13,9.54,3.93,14.52,5.31c2.67,0.74,4.89-0.55,7.07-1.77c12.82-7.17,24.96-15.34,35.97-25.08
		c11.46-10.14,22.53-20.7,33.49-31.38c16.98-16.55,31.57-35.1,45.35-54.33c2.03-2.83,3.84-5.84,6.67-8.5
		c6.62-0.93,13.01-1.6,19.81-2.18c2.06,2.23,0.54,3.9-0.52,5.5c-14.43,21.62-29.83,42.45-47.66,61.48
		c-15.73,16.8-32.55,32.36-50.25,47c-7.19,5.94-14.83,11.3-23.77,16.18c6.79,0.89,12.86,2.04,19.1,1.59
		c1.94-0.14,3.45-1.04,4.84-2.31c17.07-15.6,34.62-30.65,51.09-46.91c9.28-9.16,17.18-19.45,25.87-29.08
		c14.07-15.58,27.28-31.84,38.88-49.38c1.73-2.62,2.83-5.7,5.66-7.99c7.65-2.77,15.22-4.89,22.64-8.43
		c2.16,2.14,0.21,3.68-0.61,5.32c-10.54,20.79-23.94,39.7-39.2,57.17c-14.23,16.29-27.34,33.6-43.58,48.93
		c18.17-11.54,34.8-24.21,51.47-36.84c19.58-14.83,37.42-31.58,54.29-49.37c11.17-11.78,20.58-24.88,27.7-39.56
		c1.4-2.89,1.73-6.07,3.17-9.27c5.81-1.74,11.52-2.41,17.77-2.27c2.02,3.49,0.43,6.62-0.55,9.68
		c-5.14,15.95-14.37,29.56-24.69,42.49c-14.38,18.02-31.26,33.57-48.65,48.58c-25.75,22.23-53.66,41.52-82.16,59.99
		c-1.11,0.72-2.34,1.22-3.49,2.1c19.54-3.2,39.08-5.71,58.43-9.45c1.49-0.29,2.98-0.42,4.61,0.69
		C828.67,531.52,817.68,538,807.29,545.79z"/>
	<path class="st5" d="M206.4,557.07c-2.34-1-3.34-2.63-3.74-4.71c-2.97-15.61-9.54-29.96-15.86-44.35
		c-7.49-17.06-12.05-35.14-18.76-52.46c-8.21-21.2-15.45-42.74-22.43-64.37c-1.73-5.35-3.03-10.84-4.44-16.29
		c-0.39-1.51-0.35-2.99-2.72-2.21c-4.31,1.42-7.23-1.25-10.1-3.85c-5.07-4.6-8.92-10.24-13.25-15.47c-0.6-0.72-1.56-1.14-2.77-1.89
		c-3.42-12.17-4.76-24.44-6.48-37.05c3.38-1.92,4.66,0.37,5.73,2.7c5.48,11.92,13.72,21.98,22.19,33.24
		c0.04-2.69-0.38-4.34-0.66-5.98c-0.31-1.81-0.6-3.62-0.88-5.43c-5.15-32.92-10.02-65.87-13.45-99.02
		c-3.23-31.16-5.1-62.39-4.18-93.74c0.21-7.21,1.53-14.23,3.44-21.16c4.69-17.1,11.24-33.46,19.9-48.94
		c0.97-1.74,2.07-3.43,3.91-5.04c7.51-0.76,11.52,3.93,15.31,9.46c-10.02,15.83-16.55,32.92-21.09,50.7
		c-3.68,14.42-4.35,29.23-2.91,44.1c0.78,8.11,0.39,16.27,1.1,24.43c1.96,22.38,3.7,44.77,6.58,67.05
		c0.49,3.76,0.49,7.49,0.51,10.61c0.09,1.3,1.14,0.36,0.54,0.65c-0.11,0.05-0.18-0.05-0.2-0.32c-0.71-7.86,0.84-15.57,1.92-23.27
		c4.54-32.19,10.32-64.13,20.57-95.1c1.42-4.28,3.22-8.4,5.01-12.52c0.78-1.8,1.47-3.79,4.15-4.19c3.93,7.44,4.88,15.81,9.75,22.93
		c-4.35,6.72-5.4,14.29-7.25,21.49c-8.06,31.37-13.24,63.26-16.45,95.47c-1.44,14.41-2.87,28.82-2.98,43.32
		c-0.03,4.07-0.03,7.99,3.43,11c1.2,1.04,1.45,2.71,1.49,3.61c-2.25-9.97-0.19-20.64,0.67-31.2c3.09-37.98,12.92-74.44,26.25-110.02
		c0.99-2.65,1.97-5.32,3.17-7.88c0.82-1.77,1.51-3.83,4.43-3.63c3.7,4.44,7.04,8.67,10.36,13.24c0.63,4.03-1.3,7.14-2.47,10.38
		c-8.54,23.72-15.75,47.77-19.82,72.72c-3.2,19.61-5.01,39.3-4.52,59.19c0.08,3.35,0.48,6.64,1.13,9.92c0.45,2.25,1.95,3.77,4.1,3.7
		c2.88-0.09,1.95-2.71,1.9-4.28c-0.64-22.73,0.72-45.3,5.05-67.64c4.05-20.88,10.12-41.09,20.38-59.85
		c1.73-3.16,3.07-6.72,7.03-8.36c4.23,3.94,8.05,7.75,12.01,11.86c-5.63,11.39-10.87,22.67-14.48,34.69
		c-5.44,18.1-8.59,36.56-10.21,55.39c-1.82,21.12-1.04,42.07,2.08,60.67c0.93-46.7,11.35-93.35,33.87-137.08
		c0.31-0.59,0.66-1.16,1.41-1.93c5.34,2.23,7.22,8.09,12.26,11.01c1.64,2.44,0.68,4.45-0.27,6.41
		c-14.74,30.67-23.35,63.09-26.87,96.83c-3.31,31.76-2.28,63.45,3.06,94.97c2.61-7.74,5.61-15.31,7.77-23.17
		c2.16-7.87,4.48-15.71,6.21-23.69c7.47-34.35,16.86-68.27,23.04-102.91c1.87-10.49,3.04-21.1,3.78-31.74
		c0.08-1.17,0.2-2.33,1.06-3.69c6.1,2.54,11.4,6.15,16.44,10.61c-2.25,6.75-2,13.65-2.85,20.33c-2.33,18.46-6.91,36.4-11.25,54.42
		c-5.97,24.79-10.62,49.91-18.07,74.33c-5.38,17.63-11.24,35.11-20,51.44c-1.34,2.5-0.89,4.68-0.21,7.15
		c4.3,15.75,10.36,30.83,17.23,45.98c-4.09,4.26-8.61,7.55-14.25,9.35c-14.21-28.02-22.95-57.43-27.93-88.02
		c-0.11-0.66-0.02,0.17-0.06-0.49c-0.73-11.14-4.16-21.02-10.66-30.43c-7.56-10.96-9.93-24.22-12.29-37.2
		c-1.29-7.08-1.2-7.08-8.29-7.54c-4.55-0.3-8.81-1.64-12.93-3.53c-3.17-1.45-6.14-3.31-9.56-4.77c-1.18,1.78-0.51,3.57-0.22,5.25
		c0.99,5.74,2.41,11.37,4.16,16.96c8.89,28.46,20.23,56.06,29.43,84.41c4.99,15.38,10.63,30.48,16.67,45.46
		c3.92,9.72,6.62,19.86,9.56,30.25C214.16,550.91,209.92,553.26,206.4,557.07z"/>
	<path class="st6" d="M705.58,402.81c-4.51,10.63-11.66,19.84-18.4,29.24c-13.33,18.59-27.59,36.47-41.99,54.25
		c-16.71,20.63-35.92,38.08-59.85,50.09c-11.87,5.96-23.39,12.62-35.1,18.92c-1.11,0.6-2.46,1.99-3.57,1.06
		c-1.52-1.27,0.07-2.76,0.67-4c12.64-26.3,28.79-50.43,45.81-74.04c10.66-14.8,21.91-29.14,33.46-43.24
		c5.25-6.41,10.97-12.44,16.44-18.67c0.42-0.48,0.61-1.15,0.92-2.09c14.67-5.55,30.02-7.61,45.27-10.03
		C694.49,403.47,699.82,403.25,705.58,402.81z"/>
	<path class="st7" d="M443.45,510.87c-3.55-0.19-6.4,0.18-8.32,3.43c-1.5,2.55-4.5,3.14-7.16,4.74c-1.1,0.17-1.75-0.34-2.24-1.02
		c-6.22-8.62-15.14-11.32-25.21-11.7c-7.21-0.28-14.27,0.6-21.29,2.09c-2.65,0.56-5.13,0.47-6.37-2.36
		c-2.68-6.08-7.65-9.42-13.73-12.06c0.28-4.85,2.53-8.51,5.29-11.88c5.28-6.45,11.61-11.78,15.84-19.4
		c5.34-9.62,15.04-15.79,23.07-23.23c5.34-4.95,11.17-9.37,16.76-14.05c5.6-4.69,11.21-4.53,16.9-0.08
		c4.25,3.32,9.87,3.61,14.71,5.69c13.87,5.94,28.06,11.27,40.28,21.01c-10.34,11-20.61,21.81-30.63,32.9
		C454.26,492.79,449.18,501.83,443.45,510.87z"/>
	<path class="st1" d="M838.55,523c-9.91,0.69-19.21,3.21-28.68,4.56c-12.58,1.8-25.14,3.76-38.08,4.8
		c5.71-3.76,11.4-7.56,17.13-11.29c20.44-13.31,40.32-27.42,59.25-42.8c16.64-13.52,32.77-27.66,47.34-43.41
		c15.37-16.64,29.54-34.2,37.06-56.08c1.02-2.96,1.58-6.08,2.38-9.53c14.35-0.38,23.23,9.67,21.45,23.95
		c-1.87,15.04-8.8,27.88-18.27,39.25C909.2,467.14,874.9,495.98,838.55,523z"/>
	<path class="st1" d="M141.69,70.67c-2.1,6.75-6.37,12.51-9.25,19.07c-7.31,16.63-13.64,33.48-16.29,51.55
		c-0.17,1.15-0.14,2.33-0.15,3.49c-0.29,29.23,0.22,58.38,3.69,87.51c1.66,13.93,2.84,27.98,4.42,41.94
		c1.7,14.94,4.12,29.8,6.36,44.67c1.72,11.41,3.64,22.79,5.55,34.67c-4.27-1.98-6.19-5.7-8.35-8.76
		c-6.38-9.04-13.85-17.46-17.63-28.14c-0.59-1.67-1.91-2.17-3.73-2.64c-3.34-9.79-3.7-19.99-5.01-30.02
		c-5.25-40-7.93-80.16-6.24-120.51c0.83-19.81,2.92-39.49,9.12-58.5C110.18,86.63,123.47,76.18,141.69,70.67z"/>
	<path class="st6" d="M273.78,263.79c0.1,15.59-1.93,30.74-5.19,45.59c-7.82,35.59-16.23,71.06-24.64,106.52
		c-3.01,12.72-7.14,25.13-12.47,38.05c-2.45-10.14-3.03-19.67-4.53-29.05c-1.76-11.05-1.34-22.24-1.48-33.28
		c-0.14-10.15,0.23-20.51,1.31-30.77c1.55-14.85,3.79-29.51,7-44.09c4.49-20.39,11.36-39.89,20.22-58.74
		c0.84-1.79,2.08-3.45,2.08-5.97C261.91,255.6,267.74,259.55,273.78,263.79z"/>
	<path class="st6" d="M173.71,142.4c-4.12,3.35-4.89,8.31-6.37,12.48c-8.64,24.27-14.13,49.35-18.42,74.74
		c-2.81,16.64-4.99,33.35-7.81,50.17c-1.04-7.94-2.22-15.86-3.08-23.81c-1.73-16.12-3.29-32.26-4.9-48.4
		c-0.44-4.45-0.9-9.04-0.81-13.37c0.27-13.77-1.68-27.42-0.76-41.3c0.93-14.02,4.06-27.2,8.72-40.18
		c3.19-8.91,7.03-17.6,11.38-26.03c1.18-2.3,3.01-3.95,5.27-5.69c6.85,9.93,10.36,21.22,10.85,32.98
		c0.34,8.16,2.37,15.62,4.69,23.19C172.95,138.76,173.29,140.38,173.71,142.4z"/>
	<path class="st6" d="M797.57,408.81c-3,7.7-8.69,13.82-13.52,20.49c-13.16,18.2-27.98,35.01-44.35,50.37
		c-18.73,17.58-37.05,35.69-59.89,48.28c-5.47,3.02-10.28,4.82-16.19,1.86c-3.55-1.78-7.45-2.85-10.99-4.64
		c-2.43-1.23-3.55-2.88-0.2-4.98c23.09-14.47,44.63-30.91,64.65-49.5c19.03-17.67,36.66-36.52,52.72-56.88
		c1.33-1.69,2.77-3.28,4.21-5.25C781.73,408.4,789.42,408.57,797.57,408.81z"/>
	<path class="st6" d="M916.55,370.76c0.72,8.15-3.97,14.49-7.83,20.96c-13.7,22.99-32.94,41.13-52.7,58.69
		c-23.58,20.96-49.02,39.5-75.41,56.76c-0.88,0.58-1.54,1.89-3.25,1.19c0.11-2.21,2.08-3.14,3.32-4.48
		c24.89-26.9,49.63-53.92,69.79-84.71c4.99-7.63,9.38-15.63,13.44-24.17C880.94,385.88,896.64,374.16,916.55,370.76z"/>
	<path class="st7" d="M283.98,517.94c-4.9-2.85-3.2-6.89-1.21-9.89c15.59-23.5,23.96-49.86,30.59-76.86
		c4.3-17.51,7.07-35.29,8.81-53.28c1.25-12.97,0.93-25.92,0.65-38.84c-0.19-8.89-1.89-17.76-4.97-26.24
		c-0.73-2.02-1.23-4.11-1.77-6.57c6.81,7.76,10.75,17.46,14.93,26.99c3.93,8.97,6.94,18.29,9.32,28.18
		c-1.56,1.41-1.25,2.99-1.31,4.46c-1.27,29.92-6.82,59.08-14.96,87.86c-5.37,18.97-14,36.53-21.96,54.77
		c-0.19,0.44-0.36,0.63-0.46,0.6C293.13,506.64,287.69,510.19,283.98,517.94z"/>
	<path class="st7" d="M606.43,425.49c0.44,0.53,0.5,1.11,0.56,2.13c0.24,1.49-0.47,1.91-1.24,2.27
		c-19.79,9.34-36.48,23.04-52.82,37.29c-14.31,12.48-27.72,25.89-41.2,39.23c-19.76,19.55-38.47,40.08-56.86,60.91
		c-1.23,1.39-2.15,3.59-4.98,2.75c-0.51-0.87-0.7-1.55-0.42-2.15c3.11-6.69,2.08-12.96-1.78-19.35c6.39-4.77,10.6-11.3,15.82-16.81
		c10.25-10.84,20.12-22.03,30.76-32.49c10.66-10.46,20.69-21.56,32.12-31.23c1.6-1.36,3.44-2.71,3.87-5.51
		c15.77-10.54,32.41-18.83,49.42-26.38C588.34,432.29,597.03,428.51,606.43,425.49z"/>
	<path class="st6" d="M840.65,402.77c-4.32,10.36-11.5,19.09-18.12,28.2c-12.12,16.65-26.37,31.54-39.67,47.2
		c-11.59,13.64-24.9,25.85-38.69,37.42c-7.37,6.18-14.79,12.43-21.31,19.46c-4.38,4.73-9.17,5.64-14.74,4.86
		c-4.79-0.67-9.81-0.27-15.12-2.58c10.18-5.87,19.3-12.13,27.79-19.24c5.85-4.89,12.04-9.48,17.32-14.92
		c9.37-9.66,19.77-18.2,28.84-28.23c9.92-10.97,19.49-22.17,28.49-33.89c7.48-9.74,14.57-19.77,21.23-30.1
		c0.64-0.99,1.38-1.88,1.35-3.5C825.42,405.64,832.82,404.19,840.65,402.77z"/>
	<path class="st1" d="M196.11,187.61c-2.09,0.32-2.58,2.12-3.17,3.6c-12.32,30.73-21.62,62.34-26.82,95.05
		c-2.97,18.67-4.37,37.52-4.13,56.45c0.01,0.92-0.23,1.84-0.89,2.89c0.64-4.83-1.11-8.21-5.19-10.5c-0.54-0.3-0.86-1.47-0.84-2.22
		c0.23-7.13-0.66-14.28,0.55-21.4c0.94-5.55,0.79-11.23,1.19-16.84c1.73-23.96,5.34-47.64,9.55-71.25
		c3.2-17.94,7.21-35.71,12.74-53.09c0.53-1.68,0.31-4.28,3.62-4.33C187.42,173.05,191.71,180.16,196.11,187.61z"/>
	<path class="st8" d="M308.78,235.12c24.16,12.88,40.01,33.25,50.55,57.76c13.23,30.75,14.87,62.83,8.59,95.47
		c-0.09,0.45-0.38,0.87-1.11,1.39c-2.04-14.85-5.15-29.44-9.02-44.28c1.4-4.38,1.05-8.26-0.59-12.09
		c-13.47-31.59-28.52-62.37-46.56-91.64C309.46,239.8,307.59,238.05,308.78,235.12z"/>
	<path class="st6" d="M754.9,404.32c-1.47,7.31-7.44,11.57-11.81,16.85c-6.86,8.31-14.05,16.44-21.86,23.84
		c-10.71,10.15-21.11,20.68-32.8,29.76c-8.5,6.6-17.02,13.19-25.52,19.8c-1.28,0.99-2.43,2.23-4.8,1.88
		c2.84-5.11,6.9-8.96,10.3-13.24c17.75-22.37,34.43-45.49,48.99-70.09c1.89-3.19,5.33-5.74,4.65-10.52
		C732.95,401.65,743.81,401.73,754.9,404.32z"/>
	<path class="st7" d="M540.28,412.06c-8.5,7.2-16.81,14.07-25.15,20.91c-1.24,1.02-2.32,2.24-4.12,0.3
		c-11.9-12.78-27.21-20.53-42.42-28.4c-2.06-1.07-4.15-2.1-6.43-3.42c-1.72-3.43,0.49-5.39,2.36-7.12
		c5.32-4.91,11.67-8.22,18.32-10.95c1.92-0.79,3.99-0.71,5.87,0.09c12.68,5.39,26.47,7.95,38.44,15.15
		c3.7,2.23,7.72,3.98,10.81,7.09C539.57,407.33,541.5,408.94,540.28,412.06z"/>
	<path class="st6" d="M243.78,239.81c0.39,2.04-0.39,3.51-1.17,4.99c-14.28,27.15-23.09,56.17-28.28,86.24
		c-2.64,15.31-4.71,30.8-4.38,46.45c0.05,2.26,0.58,4.71-1.58,6.91c-2.24-6.13-2.46-12.43-3.28-18.57
		c-1.66-12.39-1.69-24.93-0.96-37.35c1.94-32.65,7.28-64.58,22.65-94.04c1-1.91,1.73-4,4.02-5.37
		C235.48,232.22,238.71,236.84,243.78,239.81z"/>
	<path class="st6" d="M219.26,216.56c-7.3,8.7-11.38,18.91-15.23,29.12c-7.45,19.76-11.73,40.25-14.28,61.25
		c-1.89,15.59-1.57,31.14-1.76,46.72c-0.02,1.81,0,3.62,0,5.46c-8.63-1.06-9.67-2.01-9.91-12.12c-0.45-19.08,0.73-38.01,3.52-56.97
		c3.66-24.9,10.38-48.88,18.45-72.59c1.76-5.18,3.9-10.23,6-15.73C210.51,206.28,214.83,211.26,219.26,216.56z"/>
	<path class="st7" d="M605.25,372.95c-10.94,6.51-21.75,12.64-32.54,18.79c-1.39,0.79-2.37,0.38-3.52-0.63
		c-13.14-11.45-28.14-19.94-44.01-27.67c-0.98-4.58,1.74-7.24,4.83-9.13c9.43-5.78,19.66-8.48,29.66-2.28
		c12.24,7.58,26.25,10.23,39.21,15.7C601.4,368.81,604.4,369.38,605.25,372.95z"/>
	<path class="st9" d="M658.28,353.37c-7,2.6-13.77,4.88-20.52,7.2c-1.5,0.51-2.87,0.8-4.07-0.64
		c-9.25-11.04-22.41-15.78-34.93-21.47c-6.95-3.16-14.2-5.67-21.6-8.65c-1.39-3.85,1.5-5.63,3.48-7.69
		c8.18-8.51,14.18-9.78,24.5-4.38c15.76,8.25,31.39,16.78,46.33,26.47C654.67,346.28,658.59,348.19,658.28,353.37z"/>
	<path class="st9" d="M308.98,234.51c0.69,6.12,5.15,9.87,7.81,14.54c13.74,24.17,26.33,48.89,37.47,74.35
		c1.8,4.11,3.67,8.2,5.1,12.44c0.98,2.93,1.78,6.14-1.19,9.04c-4.61-10.26-8.14-20.98-13.19-31.08
		c-10.43-20.89-23.96-39.4-41.67-55.12c-6.05-10.47-12.28-20.39-21.7-27.88c-3.19-2.54-4.84-5.88-2.89-10.38
		C289.65,223.34,299.66,227.93,308.98,234.51z"/>
	<path class="st9" d="M719.85,380.1c-0.66,2.02-2.1,1.55-3.12,1.55c-32.24,0.12-63.26,7.39-94.39,16.08
		c-1.05-3.05,1.55-3.1,3.17-3.75c26.21-10.51,52.5-20.83,80.12-28.5c19.65-2.64,38.81-2.06,57.71,3.04
		c2.09,0.56,4.14,1.23,6.45,2.12c-0.01,3-2.31,2.74-3.9,2.67C750.24,372.68,735.38,377.48,719.85,380.1z"/>
	<path class="st9" d="M334.66,759.2c0.29,1.53,0.5,2.84,2.24,3.77c-6.1,6.28-6.4,11.09-0.74,17.8c3.01,3.57,5.5,7.49,7.85,11.87
		c-2,3.39-2.56,6.59-1.94,10.28c0.57,3.4,0.83,7.01-1,10.23c-3.15,5.53-9.51,6.62-14.51,2.56c-4.12-3.34-5.55-8.12-7.05-13.31
		c-0.87-9.07-0.05-17.54,3.27-25.78c3.18-7.9-0.04-13.5-8.48-15.32c-0.29-2.53-0.22-4.85-0.3-7.17c-0.19-5.26,2.61-8.32,7.6-10.11
		c1.17,2.61,1.92,5.28,2.82,7.9C326,756.57,329.14,759.21,334.66,759.2z"/>
	<path class="st10" d="M540.43,412.3c-0.22-4.27-3.49-6.38-6.5-8.24c-11.74-7.25-24.19-12.93-37.72-16.04
		c-0.8-0.18-1.66-0.29-2.37-0.66c-3.6-1.92-7.05-4.85-11.48-2.5c-7.64,4.04-16.43,6.65-20.38,15.94c-2.65-0.03-4.94-1.2-8.17-2.77
		c3.8-2.69,7.01-4.94,10.2-7.2c4.34-3.08,9.08-5.74,12.91-9.35c8.75-8.27,18.89-7.37,28.92-4.5c16.88,4.84,31.01,14.98,45.04,25.13
		c1.84,1.33,2.04,2.26-0.1,3.55C547.37,407.72,544.11,410.01,540.43,412.3z"/>
	<path class="st10" d="M605.47,373.27c-3.03-4.16-7.84-4.69-11.9-6.13c-12.34-4.36-24.72-8.31-36.29-14.78
		c-11.08-6.19-26.52-0.68-32.22,10.51c-10.25-3.09-10.27-3.11-2.6-10.44c2.53-2.41,5.38-4.51,7.75-7.06
		c6.45-6.96,13.48-5.88,21.66-3.19c9.29,3.05,18.65,5.83,27.71,9.58c9.23,3.82,18.31,7.97,27.08,12.75c2.45,1.34,4.74,2.98,7.92,5
		C611.16,370.96,608.5,372.09,605.47,373.27z"/>
	<path class="st4" d="M630.27,303.18c-0.84,0.06-1.35,0.06-1.82-0.09c-1.73-0.54-4.02-1.15-4.4-2.75c-0.47-1.98,2.07-2.73,3.42-3.8
		c4.29-3.4,8.78-6.56,13.11-9.92c1.78-1.38,2.99-1.95,3.79,0.9c2.89,10.24,10.04,14.59,20.36,14.89c3.09,0.09,6.18,0.99,9.09,2.41
		c4.09,2,8.39,1.34,12.7,0.61c9.33-1.59,10.99-0.11,8.76,8.8c-2.91,11.66-7.15,22.89-12.92,33.65c-0.54-0.13-0.7-0.26-1.05-0.63
		c0.61-4.3-0.43-7.94-2.8-11.67c1.85-3.62,3.5-7.05,5.58-10.24c1.87-2.88,2.36-5.99,0.31-8.87c-1.93-2.72-5.14-3.49-8.05-2.49
		c-4.63,1.61-8.42,0.15-12.29-2c-5.81-3.21-11.69-6.3-17.57-9.37C641,299.73,635.81,299.32,630.27,303.18z"/>
	<path class="st4" d="M705.62,365.23c-1.73,3.08-5.27,3.13-8.27,4.04c-23.46,7.07-46.3,15.82-68.96,25.05
		c-2.1,0.86-4.57,0.91-6.35,3.03c-12.01,4.75-23.92,9.2-35.87,13.55c-1.03,0.37-2.29,0.09-3.78-0.23
		c34.35-21.57,71.36-36.84,111.55-43.9C697.7,366.11,701.51,365.71,705.62,365.23z"/>
	<path class="st9" d="M630.15,303.55c3.34-5.02,8.41-6.23,14.25-3.32c7.87,3.92,15.65,8.03,23.39,12.21
		c2.37,1.28,4.49,1.59,7.04,0.53c4.06-1.69,8.11-1.04,10.68,2.49c2.71,3.72,2.23,7.89-0.93,11.42c-2.2,2.45-1.99,6.49-5.81,8.2
		c-12.86-13.25-29.04-21.08-44.86-29.45C632.74,305.01,631.55,304.41,630.15,303.55z"/>
	<path class="st10" d="M278.66,219.95c-1.18,8.22,5.36,11.43,9.83,15.7c6.54,6.25,11.26,13.59,14.64,22.34
		c-19.56-13.68-40.72-25.8-58.04-45.22C257.28,213.93,267.96,216.07,278.66,219.95z"/>
	<path class="st10" d="M719.93,380.69c6.61-4.78,14.91-4.68,22.62-6.7c8.83-2.32,17.94-1.68,27.19-2.74
		c10.98,2.61,20.16,8.16,29.55,16.22c-17.96,1.14-33.96-1.21-49.85-7.09c-1.2-0.35-2.04-0.41-3.21-0.21
		C737.47,383.22,728.86,380.65,719.93,380.69z"/>
	<path class="st4" d="M658.41,353.71c-0.69-4.08-3.9-5.88-6.71-7.81c-10.98-7.53-22.85-13.56-34.36-20.19
		c-3.74-2.16-7.6-4.13-11.38-6.22c-12.63-6.99-20.09-3.95-29,9.77c-2.5-0.16-5.95-0.15-6.68-2.31c-0.87-2.56,2.65-3.7,4.29-5.4
		c3.69-3.83,7.67-7.38,11.2-11.35c2.69-3.02,4.61-3.61,8.69-1.48c10.27,5.37,21.38,9.06,31.58,14.69
		c12.22,6.75,24.57,13.29,34.84,22.98c1.54,1.46,4.32,2.89,3.85,4.8C664.16,353.51,660.9,353.05,658.41,353.71z"/>
	<path class="st4" d="M510.54,724.77c-7.61,2.47-15.04,2.67-22.58,2.5c-6.52-0.15-3.8-5.97-5.55-8.91c-1.1-1.84,2.56-1.99,4.27-2.49
		c6.86-1.99,13.73-3.96,20.63-5.83c4.34-1.18,10.94,3.48,11.38,7.89c0.17,1.7-0.77,2.95-2.04,3.75
		C514.83,722.82,512.84,723.66,510.54,724.77z"/>
	<path class="st9" d="M365.12,715.24c0.9,0.04,1.42-0.01,1.88,0.13c1.42,0.44,3.6-0.38,3.88,2.02c0.11,0.93-0.88,1.4-1.71,1.38
		c-2.01-0.04-4.37,1.53-5.92-0.66C362.4,716.91,362.95,715.56,365.12,715.24z"/>
	<path class="st9" d="M581.77,410.48c0.29-0.16,0.32-0.01,0.27,0.04c-2.15,4.24-6.25,4.96-10.6,6.29
		C574.63,413.81,578.26,412.57,581.77,410.48z"/>
	<path class="st9" d="M746.3,380.37c0.36-1.62,1.37-1.68,2.67-0.41C748.29,380.3,747.49,380.4,746.3,380.37z"/>
	<path class="st7" d="M316.17,305.54c-1.8,0.46-2.2-0.63-2.04-2.52C314.86,303.49,315.51,304.35,316.17,305.54z"/>
	<path class="st9" d="M681.07,347.28c0.36-0.21,0.59-0.04,0.85,0.4C681.67,347.77,681.33,347.67,681.07,347.28z"/>
	<path class="st3" d="M205.99,557.38c2.83-4.42,5.78-8.26,11.68-8.68c2.9-1.47,5.31-0.73,7.36,0.72c2.9,2.05,4.45,1.05,6.42-1.49
		c2.68-3.47,4.84-7.53,9.29-9.74c4.53-3.36,8.59-6.89,14-8.98c5.95-0.69,11.59-1.09,16,3.74c3.41,3.73,4.76,9.14,2.63,12.83
		c-2.61,4.51-6.64,5.9-11.5,4.13c-2.43-0.89-3.82,0.54-5.27,1.79c-4.45,3.82-7.91,8.5-11.21,13.31c-1.13,1.64-2.21,3.32-3.36,4.94
		c-6.44,9.05-11.66,10.12-21.62,3.98c-1.19,6.5-4.57,12.22-2.4,19.18c1.59,5.08-1.63,9.57-6.81,10.96
		c-5.54,1.49-10.36-1.18-12.18-6.6c-1.56-4.64-0.7-9.3,0.04-13.83C200.49,574.81,202.44,566.06,205.99,557.38z"/>
	<path class="st5" d="M372.74,591.42c2.9,6.19,2.77,11.86-0.65,17.45c-2.11,3.45-5.25,5.04-8.87,3.88c-3.76-1.2-5.69-4.25-5.23-8.57
		c0.89-8.31-8.04-20.33-16.26-22.07c-4.51-0.96-8.12,1.33-11.64,3.5c-2.71,1.67-5.43,3.25-8.41,4.33
		c-6.33,2.28-12.15-0.33-14.44-6.67c-1.06-2.94-1.66-6.07-2.24-9.16c-0.48-2.5-1.6-3.8-4.07-2.49c-3.52,1.87-7,3.81-8.67,7.85
		c-2.06,4.96-5.61,6.65-9.64,4.83c-4.17-1.88-5.93-6.93-4.01-11.48c3.29-7.77,18.58-17.87,26.96-17.81
		c5.01,0.04,10.32,3.84,12.24,8.83c0.59,1.55,1.14,3.14,1.49,4.75c0.73,3.35,2.36,4.11,5.21,2.09c12.42-8.79,25.23-5.06,35.48,3.9
		C365.26,579.19,370.13,584.24,372.74,591.42z"/>
	<path class="st5" d="M294.04,642.96c-5.27,6.2-9.37,6.71-13.44,2.21c-2.64-2.91-1.8-5.98-0.48-8.83c2.24-4.8,2.58-9.55,0.71-14.46
		c-1.88-4.94-5.56-6.52-10.75-5.09c-3,0.82-5.16,2.99-7.91,4.15c-3.35,1.41-6.8,2.1-9.89-0.28c-3.23-2.49-3.74-5.86-2.83-9.87
		c0.61-2.7,3.41-6.2,0.48-8.23c-2.44-1.69-5.64,0.85-8.26,2.17c-4.22,2.14-8.47,3.85-9.31,9.83c-0.56,3.98-6.29,5.55-10.39,3.88
		c-4.42-1.8-6.26-6.81-4.3-11.76c2.5-6.31,8.07-9.64,13.35-12.95c6.49-4.06,13.39-7.23,21.49-6.83c7.04,0.35,11.82,3.79,13.38,10.84
		c0.45,2.05,0.6,3.38,3.25,3.08c13.62-1.58,23.73,4.8,27.52,17.91C299,626.85,299.41,635.12,294.04,642.96z"/>
	<path class="st3" d="M358.55,493.72c7.44,0.82,12.31,4.7,15.07,11.1c1.06,2.46,2.16,2.98,4.87,2.4
		c11.39-2.46,22.92-4.33,34.31-0.22c6.1,2.2,12.01,5.01,14.7,12.1c0.71,9.35-6.05,15.03-13.62,10.55
		c-10.97-6.49-21.95-5.01-33.28-3.21c-11.64,1.86-17.29-0.71-22.81-11.03c-1.19-2.23-2.35-2.42-4.26-1.32
		c-2.01,1.16-4.04,2.28-6.03,3.47c-4.5,2.68-9.24,2.18-12.16-1.32c-2.95-3.53-3-8.52,0.67-12.21
		C342.07,497.97,349.69,494.86,358.55,493.72z"/>
	<path class="st3" d="M447.37,548.08c6.87,6.49,6.46,13.64,2.64,21.54c-3.84,6.53-2.42,12.54,0.3,18.61
		c0.65,1.44,0.95,3.18-0.61,4.82c-1.56,6.36-3.9,12.1-7.67,17.6c-3.24,2.99-5.69,6.43-9.39,8.49c-4.61,2.58-9.23,2.28-12.24-1.17
		c-3.26-3.76-3.26-7.87-0.52-11.89c1.96-2.87,4.18-5.57,6.41-8.68c1.29-3.86,1.35-7.03-2.27-9.37c-1.08-0.7-1.77-1.96-1.95-3.69
		c-2.58-9.43,3.92-14.75,9.34-21.17c-3.01,0-5.2,0.06-7.4-0.01c-5.27-0.16-8.81-3.03-9.59-7.7c-0.75-4.49,1.88-8.55,7.12-9.81
		C430.24,543.56,438.96,542.69,447.37,548.08z"/>
	<path class="st3" d="M267.16,637.7c4.41,3.54,4.83,7.68,3.07,12.35c-2.6,6.9-6.71,12.68-13.05,16.53
		c-9.02,5.48-18.87,1.25-21.2-9.02c-0.92-4.04-1.53-8.16-2.32-12.5c-2.83,0.57-3.94,2.93-5.44,4.76c-3.85,4.69-9.02,5.89-13.09,2.97
		c-4.04-2.91-5.02-8.55-1.93-13.41c3.91-6.16,9.19-11.02,15.78-14.18c7.71-3.7,15.37-1.1,19.73,6.3c1.85,3.13,2.74,6.65,4.14,10.55
		C256.83,637.73,260.9,634.33,267.16,637.7z"/>
	<path class="st5" d="M350.23,662c-2.63-4.61-4.16-8.99-4.35-13.96c-0.16-4.09-3.53-4.57-6.65-3.8c-2.81,0.69-5.59,1.03-8.38,0.68
		c-3.83-0.48-6.28-3-7.53-6.49c-1.12-3.13-2.13-2.39-3.38-0.22c-0.5,0.86-0.85,1.82-1.42,2.63c-2.67,3.82-6.48,4.96-9.83,3.01
		c-4.19-2.46-6.17-7.29-3.34-10.96c5.46-7.09,11.58-13.81,20.85-16.04c5.15-1.24,11.14,2.27,11.5,7.39c0.32,4.6,2.37,4.78,5.97,4.82
		c15.01,0.16,21.69,15.54,17.05,26.56c-1.22,2.9-3.24,4.97-6.53,6.16C352.91,663.04,351.73,662.99,350.23,662z"/>
	<path class="st0" d="M296.77,733.59c3.91-0.91,6.57,0.47,8.38,3.44c1.63,2.69,1.21,5.43-0.38,8.04
		c-6.97,11.44-30.83,19.21-41.23,15.14c-10.02-3.92-16.51-10.85-20.01-20.79c-1.47-4.18,0.39-8.45,4.09-10.02
		c3.79-1.61,7.68,0.04,9.91,4.25c1.09,2.05,1.83,4.32,3.18,6.17c6.1,8.36,17.56,8.72,26.94,1.12
		C290.59,738.55,292.57,734.99,296.77,733.59z"/>
	<path class="st3" d="M349.59,661.71c1.44,0.05,2.5,0.2,3.98,0.34c2.64,2.02,5.13,1.14,7.49,0.44c2.7-0.79,5.31-1.89,7.97-2.83
		c4.56-1.6,8.33-0.31,10.78,3.71c2.57,4.21,1.22,8.16-2.24,11.19c-6.18,5.41-13.85,6.95-21.74,7.54c-2.12,0.16-4.36,0.01-6.43-0.5
		c-5.49-1.35-9.05-5.37-9.15-9.91C340.17,667.11,343.4,663.55,349.59,661.71z"/>
	<path class="st3" d="M283.67,518.44c1.17-3.63,2.09-7.08,5.13-9.19c4.01-2.79,8.21-3.12,12.87-0.49c5.91,5.89,6.09,8.39,1,15.07
		c-1.21,1.59-0.87,3.08-0.83,4.7c0.13,5.97-2.41,9.87-6.88,10.63c-5.07,0.86-9.2-2.16-10.97-7.97
		C282.74,527.1,282.92,522.98,283.67,518.44z"/>
	<path class="st2" d="M279.23,653.14c4.54-1.32,7.96-0.03,10.39,3.44c2.34,3.35,2.01,7.01-0.03,10.36
		c-2.67,4.39-5.12,8.97-8.88,12.59c-3.88,3.75-8.95,4.34-12.67,1.55c-3.67-2.76-4.67-8.02-1.54-12.54
		C270.22,663.16,272.54,656.54,279.23,653.14z"/>
	<path class="st0" d="M397.13,644.59c-3.32,1.55-6.44,2.83-9.85,4.33c-3.43,0.27-6.59,0.73-9.51-0.98
		c-3.33-1.94-5.09-4.79-4.74-8.61c0.33-3.58,2.21-6.3,5.76-7.37c3.65-1.11,7.2-2.34,10.64-4.03c5.69-2.81,10.71-1.82,13.15,2.27
		c2.57,4.3,1.28,8.97-3.6,13C398.45,643.61,397.88,643.94,397.13,644.59z"/>
	<path class="st2" d="M288.55,680.73c3.4-2.96,6.6-5.54,9.49-8.57c3.85-4.03,9.4-4.1,13.06-0.85c3.54,3.14,3.98,8.17,0.72,12.65
		c-3.13,4.29-6.47,8.44-11.71,10.51c-4.46,1.76-8.6,1.71-11.85-2.07C285.13,688.76,285.42,684.79,288.55,680.73z"/>
	<path class="st9" d="M421.74,584.03c1.64,1.45,2.63,3.39,4.21,4.37c3.99,2.49,3.2,5.18,0.72,8.43
		C419.22,596.6,416.32,588.14,421.74,584.03z"/>
	<path class="st8" d="M319.25,802.49c2.94,1.24,2.94,4.48,4.07,7.09c3.35,7.78,11.02,9.82,16.02,4.02c3.03-3.52,2.05-8,1.22-11.9
		c-0.8-3.74-0.33-6.41,3.12-8.65c11.21,20.22,16.21,41.79,14.7,64.79c-0.28,4.33-1.28,8.56-3.11,12.53
		c-2.02,4.39-3.73,4.97-7.69,2.31c-6.56-4.4-10.73-10.86-14.22-17.7C325.02,838.63,320.2,821.28,319.25,802.49z"/>
	<path class="st1" d="M155.81,701.82c1.35,0.24,0.99,1.5,1.3,2.86C155.77,704.5,156.19,703.11,155.81,701.82z"/>
	<path class="st6" d="M449.83,593.15c-0.73-4.79-1.35-9.54-4.5-13.49c-1.26-1.58-0.43-2.66,0.5-3.92c1.27-1.73,2.41-3.56,3.87-5.55
		c6.53-4.43,10.24-11.09,15.55-16.24c4.26-4.13,7.74-9.06,11.79-13.43c18.4-19.89,37.41-39.22,57.04-57.87
		c18.49-17.56,37.41-34.76,59.61-47.74c4.1-2.4,7.92-5.51,13.07-6.6c1.37-0.11,3.06-0.36,3.51,0.28c1.04,1.45-0.77,2.22-1.54,3.17
		c-28.5,35.1-54.98,71.54-75.22,112.17c-3.12,6.26-5.57,12.78-7.19,19.58c-0.44,1.84-0.82,3.42-2.82,4.29
		C499.74,578.06,475.75,587.68,449.83,593.15z"/>
	<path class="st6" d="M241.06,537.78c-3.34,4.49-6.9,8.45-9.98,12.76c-1.61,2.26-2.64,2.93-4.91,0.93c-2.02-1.79-4.56-2.7-7.73-2.78
		c-6.81-19.12-14.15-37.83-21.02-56.69c-7.04-19.33-13.14-39.03-20.31-58.34c-4.92-13.24-9.15-26.73-13.8-40.06
		c-3.39-9.71-6.1-19.56-6.77-29.95c1.73-0.7,2.74,0.64,3.94,1.35c7.95,4.7,16.1,8.82,25.74,8c2.83-0.24,3.52,0.99,3.98,3.63
		c1.88,10.77,3.96,21.5,7.99,31.76c2.82,7.18,6.24,14.02,11.48,19.68c3.41,3.68,2.5,8.26,3.02,12.31
		c2.5,19.47,6.98,38.47,12.74,57.17c3.67,11.91,8.52,23.41,13.71,34.75C239.89,533.95,241.05,535.45,241.06,537.78z"/>
</g>
</svg>
