<svg data-name="レイヤー 2" xmlns="http://www.w3.org/2000/svg" viewBox="0 0 268.42 145.12"><defs><pattern id="a" data-name="Unnamed Pattern 2" width="27.33" height="25.33" patternUnits="userSpaceOnUse" viewBox="0 0 27.33 25.33"><path d="M0 0h27.33v25.33H0z" fill="none"/><path d="M0 0h27.33v25.33H0z" fill="#333"/><path d="M3.08 7.62a.5.5 0 0 0 0-1 .5.5 0 0 0 0 1z" fill="#333"/><path d="m20.39 5.51.12.25c.3.57 1.16.07.87-.51L21.25 5c-.29-.57-1.15-.06-.86.51zM12.83 4.12a.5.5 0 0 0 0-1 .5.5 0 0 0 0 1zM4.33 11a.5.5 0 0 0 0-1 .5.5 0 0 0 0 1zM13.33 9.37v.25a.5.5 0 0 0 1 0v-.25a.5.5 0 0 0-1 0zM6.46 7a.5.5 0 0 0 0-1 .5.5 0 0 0 0 1zM4.33 1.87a.5.5 0 0 0 0-1 .5.5 0 0 0 0 1zM26 20a.5.5 0 0 0 0-1 .5.5 0 0 0 0 1zM24 12.37a.5.5 0 0 0 0-1 .5.5 0 0 0 0 1zM18.83 17.12a.5.5 0 0 0 0-1 .5.5 0 0 0 0 1zM20.08 23.37a.5.5 0 0 0 0-1 .5.5 0 0 0 0 1zM9.71 18.5a.5.5 0 0 0 0-1 .5.5 0 0 0 0 1zM7.08 14.5a.5.5 0 0 0 0-1 .5.5 0 0 0 0 1zM4.33 21.5a.5.5 0 0 0 0-1 .5.5 0 0 0 0 1zM15.46 23.62a.5.5 0 0 0 0-1 .5.5 0 0 0 0 1zM25.83 2.75a.5.5 0 0 0 0-1 .5.5 0 0 0 0 1zM1.33 24.37a.5.5 0 0 0 0-1 .5.5 0 0 0 0 1z" fill="#c96" opacity=".6"/></pattern><pattern id="b" data-name="新規パターン" width="52.67" height="48.67" patternUnits="userSpaceOnUse" viewBox="0 0 52.67 48.67"><path d="M0 0h52.67v48.67H0z" fill="none"/><path d="M52.17 36H79.5v25.33H52.17z" fill="#333"/><path d="M25.83 36h27.33v25.33H25.83z" fill="#333"/><path d="M28.92 43.62a.5.5 0 0 0 0-1 .5.5 0 0 0 0 1z" fill="#333"/><path d="m46.22 41.51.13.25c.29.57 1.15.07.86-.51l-.13-.25c-.29-.57-1.15-.06-.86.51zM38.67 40.12a.5.5 0 0 0 0-1 .5.5 0 0 0 0 1zM30.17 47a.5.5 0 0 0 0-1 .5.5 0 0 0 0 1zM39.17 45.37v.25a.5.5 0 0 0 1 0v-.25a.5.5 0 0 0-1 0zM32.29 43a.5.5 0 0 0 0-1 .5.5 0 0 0 0 1zM30.17 37.87a.5.5 0 0 0 0-1 .5.5 0 0 0 0 1zM49.79 48.37a.5.5 0 0 0 0-1 .5.5 0 0 0 0 1zM51.67 38.75a.5.5 0 0 0 0-1 .5.5 0 0 0 0 1z" fill="#c96" opacity=".6"/><path d="M-.5 36h27.33v25.33H-.5z" fill="#333"/><path d="M2.58 43.62a.5.5 0 0 0 0-1 .5.5 0 0 0 0 1z" fill="#333"/><path d="m19.89 41.51.12.25c.3.57 1.16.07.87-.51l-.13-.25c-.29-.57-1.15-.06-.86.51zM12.33 40.12a.5.5 0 0 0 0-1 .5.5 0 0 0 0 1zM3.83 47a.5.5 0 0 0 0-1 .5.5 0 0 0 0 1zM12.83 45.37v.25a.5.5 0 0 0 1 0v-.25a.5.5 0 0 0-1 0zM6 43a.5.5 0 0 0 0-1 .5.5 0 0 0 0 1zM3.83 37.87a.5.5 0 0 0 0-1 .5.5 0 0 0 0 1zM23.46 48.37a.5.5 0 0 0 0-1 .5.5 0 0 0 0 1zM25.33 38.75a.5.5 0 0 0 0-1 .5.5 0 0 0 0 1z" fill="#c96" opacity=".6"/><path d="M-26.83 36H.5v25.33h-27.33zM39 11.67h27.33V37H39z" fill="#333"/><path d="M42.08 19.29a.5.5 0 0 0 0-1 .5.5 0 0 0 0 1z" fill="#333"/><path d="M51.83 15.79a.5.5 0 0 0 0-1 .5.5 0 0 0 0 1zM43.33 22.67a.5.5 0 0 0 0-1 .5.5 0 0 0 0 1zM52.33 21v.25a.5.5 0 0 0 1 0V21a.5.5 0 0 0-1 0zM45.46 18.67a.5.5 0 0 0 0-1 .5.5 0 0 0 0 1zM43.33 13.54a.5.5 0 0 0 0-1 .5.5 0 0 0 0 1zM48.71 30.17a.5.5 0 0 0 0-1 .5.5 0 0 0 0 1zM46.08 26.17a.5.5 0 0 0 0-1 .5.5 0 0 0 0 1zM43.33 33.17a.5.5 0 0 0 0-1 .5.5 0 0 0 0 1zM40.33 36a.5.5 0 0 0 0-1 .5.5 0 0 0 0 1z" fill="#c96" opacity=".6"/><path d="M12.67 11.67H40V37H12.67z" fill="#333"/><path d="M15.75 19.29a.5.5 0 0 0 0-1 .5.5 0 0 0 0 1z" fill="#333"/><path d="m33.05 17.18.13.25c.29.57 1.16.06.86-.51l-.12-.25c-.29-.57-1.16-.07-.87.51zM25.5 15.79a.5.5 0 0 0 0-1 .5.5 0 0 0 0 1zM17 22.67a.5.5 0 0 0 0-1 .5.5 0 0 0 0 1zM26 21v.25a.5.5 0 0 0 1 0V21a.5.5 0 0 0-1 0zM19.13 18.67a.5.5 0 0 0 0-1 .5.5 0 0 0 0 1zM17 13.54a.5.5 0 0 0 0-1 .5.5 0 0 0 0 1zM38.63 31.67a.5.5 0 0 0 0-1 .5.5 0 0 0 0 1zM36.63 24a.5.5 0 0 0 0-1 .5.5 0 0 0 0 1zM31.5 28.79a.5.5 0 0 0 0-1 .5.5 0 0 0 0 1zM32.75 35a.5.5 0 0 0 0-1 .5.5 0 0 0 0 1zM22.38 30.17a.5.5 0 0 0 0-1 .5.5 0 0 0 0 1zM19.75 26.17a.5.5 0 0 0 0-1 .5.5 0 0 0 0 1zM17 33.17a.5.5 0 0 0 0-1 .5.5 0 0 0 0 1zM28.13 35.29a.5.5 0 0 0 0-1 .5.5 0 0 0 0 1zM38.5 14.42a.5.5 0 0 0 0-1 .5.5 0 0 0 0 1zM14 36a.5.5 0 0 0 0-1 .5.5 0 0 0 0 1z" fill="#c96" opacity=".6"/><path d="M-13.67 11.67h27.33V37h-27.33z" fill="#333"/><path d="m6.72 17.18.13.25c.29.57 1.15.06.86-.51l-.13-.25c-.29-.57-1.15-.07-.86.51zM-.33 21v.25a.5.5 0 0 0 1 0V21a.5.5 0 0 0-1 0zM12.29 31.67a.5.5 0 0 0 0-1 .5.5 0 0 0 0 1zM10.29 24a.5.5 0 0 0 0-1 .5.5 0 0 0 0 1zM5.17 28.79a.5.5 0 0 0 0-1 .5.5 0 0 0 0 1zM6.42 35a.5.5 0 0 0 0-1 .5.5 0 0 0 0 1zM1.79 35.29a.5.5 0 0 0 0-1 .5.5 0 0 0 0 1zM12.17 14.42a.5.5 0 0 0 0-1 .5.5 0 0 0 0 1z" fill="#c96" opacity=".6"/><path d="M52.17-12.67H79.5v25.33H52.17z" fill="#333"/><path d="M25.83-12.67h27.33v25.33H25.83z" fill="#333"/><path d="M51.79 7.33a.5.5 0 0 0 0-1 .5.5 0 0 0 0 1zM44.67 4.46a.5.5 0 0 0 0-1 .5.5 0 0 0 0 1zM45.92 10.71a.5.5 0 0 0 0-1 .5.5 0 0 0 0 1zM35.54 5.83a.5.5 0 0 0 0-1 .5.5 0 0 0 0 1zM32.92 1.83a.5.5 0 0 0 0-1 .5.5 0 0 0 0 1zM30.17 8.83a.5.5 0 0 0 0-1 .5.5 0 0 0 0 1zM41.29 11a.5.5 0 0 0 0-1 .5.5 0 0 0 0 1zM27.17 11.71a.5.5 0 0 0 0-1 .5.5 0 0 0 0 1z" fill="#c96" opacity=".6"/><path d="M-.5-12.67h27.33v25.33H-.5z" fill="#333"/><path d="M25.46 7.33a.5.5 0 0 0 0-1 .5.5 0 0 0 0 1zM18.33 4.46a.5.5 0 0 0 0-1 .5.5 0 0 0 0 1zM19.58 10.71a.5.5 0 0 0 0-1 .5.5 0 0 0 0 1zM9.21 5.83a.5.5 0 0 0 0-1 .5.5 0 0 0 0 1zM6.58 1.83a.5.5 0 0 0 0-1 .5.5 0 0 0 0 1zM3.83 8.83a.5.5 0 0 0 0-1 .5.5 0 0 0 0 1zM15 11a.5.5 0 0 0 0-1 .5.5 0 0 0 0 1zM.83 11.71a.5.5 0 0 0 0-1 .5.5 0 0 0 0 1z" fill="#c96" opacity=".6"/><path d="M-26.83-12.67H.5v25.33h-27.33z" fill="#333"/></pattern><pattern id="c" data-name="Unnamed Pattern" width="27.33" height="25.33" patternUnits="userSpaceOnUse" viewBox="0 0 27.33 25.33"><path d="M0 0h27.33v25.33H0z" fill="none"/><path d="M0 0h27.33v25.33H0z" fill="#333"/><path d="M12.67 8.42a.5.5 0 0 0 0-1 .5.5 0 0 0 0 1zm4.58-1.09a.5.5 0 0 0 0-1 .5.5 0 0 0 0 1zM8.33 4.42a.5.5 0 0 0 0-1 .5.5 0 0 0 0 1zm-3.5 6.16a.5.5 0 0 0 0-1 .5.5 0 0 0 0 1zm2.75 8.17a.5.5 0 0 0 0-1 .5.5 0 0 0 0 1zm13.09 2.42a.5.5 0 0 0 0-1 .5.5 0 0 0 0 1zM23.83 14a.5.5 0 0 0 0-1 .5.5 0 0 0 0 1zm-.33-8.75a.5.5 0 0 0 0-1 .5.5 0 0 0 0 1zm-5.75-2.42a.5.5 0 0 0 0-1 .5.5 0 0 0 0 1zm3.58 7a.5.5 0 0 0 0-1 .5.5 0 0 0 0 1zm-4.25 6.75a.5.5 0 0 0 0-1 .5.5 0 0 0 0 1zM10 15.08a.5.5 0 0 0 0-1 .5.5 0 0 0 0 1zm4.08 5.84a.5.5 0 0 0 0-1 .5.5 0 0 0 0 1zM3.42 22.17a.5.5 0 0 0 0-1 .5.5 0 0 0 0 1zM2.17 3.92a.5.5 0 0 0 0-1 .5.5 0 0 0 0 1zM25.5 19.58a.5.5 0 0 0 0-1 .5.5 0 0 0 0 1zM.92 15.42a.5.5 0 0 0 0-1 .5.5 0 0 0 0 1zm25.58-14a.5.5 0 0 0 0-1 .5.5 0 0 0 0 1zm-3.08 22.91a.5.5 0 0 0 0-1 .5.5 0 0 0 0 1zm-10.59-.16a.5.5 0 0 0 0-1 .5.5 0 0 0 0 1z" fill="#ffc"/></pattern><pattern id="d" data-name="新規パターン" x="-15.28" y="-92.26" width="52.67" height="48.67" patternUnits="userSpaceOnUse" viewBox="0 0 52.67 48.67"><path d="M0 0h52.67v48.67H0z" fill="none"/><path d="M52.17 36H79.5v25.33H52.17z" fill="#333"/><path d="M25.83 36h27.33v25.33H25.83z" fill="#333"/><path d="M28.92 43.62a.5.5 0 0 0 0-1 .5.5 0 0 0 0 1z" fill="#333"/><path d="m46.22 41.51.13.25c.29.57 1.15.07.86-.51l-.13-.25c-.29-.57-1.15-.06-.86.51zM38.67 40.12a.5.5 0 0 0 0-1 .5.5 0 0 0 0 1zM30.17 47a.5.5 0 0 0 0-1 .5.5 0 0 0 0 1zM39.17 45.37v.25a.5.5 0 0 0 1 0v-.25a.5.5 0 0 0-1 0zM32.29 43a.5.5 0 0 0 0-1 .5.5 0 0 0 0 1zM30.17 37.87a.5.5 0 0 0 0-1 .5.5 0 0 0 0 1zM49.79 48.37a.5.5 0 0 0 0-1 .5.5 0 0 0 0 1zM51.67 38.75a.5.5 0 0 0 0-1 .5.5 0 0 0 0 1z" fill="#c96" opacity=".6"/><path d="M-.5 36h27.33v25.33H-.5z" fill="#333"/><path d="M2.58 43.62a.5.5 0 0 0 0-1 .5.5 0 0 0 0 1z" fill="#333"/><path d="m19.89 41.51.12.25c.3.57 1.16.07.87-.51l-.13-.25c-.29-.57-1.15-.06-.86.51zM12.33 40.12a.5.5 0 0 0 0-1 .5.5 0 0 0 0 1zM3.83 47a.5.5 0 0 0 0-1 .5.5 0 0 0 0 1zM12.83 45.37v.25a.5.5 0 0 0 1 0v-.25a.5.5 0 0 0-1 0zM6 43a.5.5 0 0 0 0-1 .5.5 0 0 0 0 1zM3.83 37.87a.5.5 0 0 0 0-1 .5.5 0 0 0 0 1zM23.46 48.37a.5.5 0 0 0 0-1 .5.5 0 0 0 0 1zM25.33 38.75a.5.5 0 0 0 0-1 .5.5 0 0 0 0 1z" fill="#c96" opacity=".6"/><path d="M-26.83 36H.5v25.33h-27.33zM39 11.67h27.33V37H39z" fill="#333"/><path d="M42.08 19.29a.5.5 0 0 0 0-1 .5.5 0 0 0 0 1z" fill="#333"/><path d="M51.83 15.79a.5.5 0 0 0 0-1 .5.5 0 0 0 0 1zM43.33 22.67a.5.5 0 0 0 0-1 .5.5 0 0 0 0 1zM52.33 21v.25a.5.5 0 0 0 1 0V21a.5.5 0 0 0-1 0zM45.46 18.67a.5.5 0 0 0 0-1 .5.5 0 0 0 0 1zM43.33 13.54a.5.5 0 0 0 0-1 .5.5 0 0 0 0 1zM48.71 30.17a.5.5 0 0 0 0-1 .5.5 0 0 0 0 1zM46.08 26.17a.5.5 0 0 0 0-1 .5.5 0 0 0 0 1zM43.33 33.17a.5.5 0 0 0 0-1 .5.5 0 0 0 0 1zM40.33 36a.5.5 0 0 0 0-1 .5.5 0 0 0 0 1z" fill="#c96" opacity=".6"/><path d="M12.67 11.67H40V37H12.67z" fill="#333"/><path d="M15.75 19.29a.5.5 0 0 0 0-1 .5.5 0 0 0 0 1z" fill="#333"/><path d="m33.05 17.18.13.25c.29.57 1.16.06.86-.51l-.12-.25c-.29-.57-1.16-.07-.87.51zM25.5 15.79a.5.5 0 0 0 0-1 .5.5 0 0 0 0 1zM17 22.67a.5.5 0 0 0 0-1 .5.5 0 0 0 0 1zM26 21v.25a.5.5 0 0 0 1 0V21a.5.5 0 0 0-1 0zM19.13 18.67a.5.5 0 0 0 0-1 .5.5 0 0 0 0 1zM17 13.54a.5.5 0 0 0 0-1 .5.5 0 0 0 0 1zM38.63 31.67a.5.5 0 0 0 0-1 .5.5 0 0 0 0 1zM36.63 24a.5.5 0 0 0 0-1 .5.5 0 0 0 0 1zM31.5 28.79a.5.5 0 0 0 0-1 .5.5 0 0 0 0 1zM32.75 35a.5.5 0 0 0 0-1 .5.5 0 0 0 0 1zM22.38 30.17a.5.5 0 0 0 0-1 .5.5 0 0 0 0 1zM19.75 26.17a.5.5 0 0 0 0-1 .5.5 0 0 0 0 1zM17 33.17a.5.5 0 0 0 0-1 .5.5 0 0 0 0 1zM28.13 35.29a.5.5 0 0 0 0-1 .5.5 0 0 0 0 1zM38.5 14.42a.5.5 0 0 0 0-1 .5.5 0 0 0 0 1zM14 36a.5.5 0 0 0 0-1 .5.5 0 0 0 0 1z" fill="#c96" opacity=".6"/><path d="M-13.67 11.67h27.33V37h-27.33z" fill="#333"/><path d="m6.72 17.18.13.25c.29.57 1.15.06.86-.51l-.13-.25c-.29-.57-1.15-.07-.86.51zM-.33 21v.25a.5.5 0 0 0 1 0V21a.5.5 0 0 0-1 0zM12.29 31.67a.5.5 0 0 0 0-1 .5.5 0 0 0 0 1zM10.29 24a.5.5 0 0 0 0-1 .5.5 0 0 0 0 1zM5.17 28.79a.5.5 0 0 0 0-1 .5.5 0 0 0 0 1zM6.42 35a.5.5 0 0 0 0-1 .5.5 0 0 0 0 1zM1.79 35.29a.5.5 0 0 0 0-1 .5.5 0 0 0 0 1zM12.17 14.42a.5.5 0 0 0 0-1 .5.5 0 0 0 0 1z" fill="#c96" opacity=".6"/><path d="M52.17-12.67H79.5v25.33H52.17z" fill="#333"/><path d="M25.83-12.67h27.33v25.33H25.83z" fill="#333"/><path d="M51.79 7.33a.5.5 0 0 0 0-1 .5.5 0 0 0 0 1zM44.67 4.46a.5.5 0 0 0 0-1 .5.5 0 0 0 0 1zM45.92 10.71a.5.5 0 0 0 0-1 .5.5 0 0 0 0 1zM35.54 5.83a.5.5 0 0 0 0-1 .5.5 0 0 0 0 1zM32.92 1.83a.5.5 0 0 0 0-1 .5.5 0 0 0 0 1zM30.17 8.83a.5.5 0 0 0 0-1 .5.5 0 0 0 0 1zM41.29 11a.5.5 0 0 0 0-1 .5.5 0 0 0 0 1zM27.17 11.71a.5.5 0 0 0 0-1 .5.5 0 0 0 0 1z" fill="#c96" opacity=".6"/><path d="M-.5-12.67h27.33v25.33H-.5z" fill="#333"/><path d="M25.46 7.33a.5.5 0 0 0 0-1 .5.5 0 0 0 0 1zM18.33 4.46a.5.5 0 0 0 0-1 .5.5 0 0 0 0 1zM19.58 10.71a.5.5 0 0 0 0-1 .5.5 0 0 0 0 1zM9.21 5.83a.5.5 0 0 0 0-1 .5.5 0 0 0 0 1zM6.58 1.83a.5.5 0 0 0 0-1 .5.5 0 0 0 0 1zM3.83 8.83a.5.5 0 0 0 0-1 .5.5 0 0 0 0 1zM15 11a.5.5 0 0 0 0-1 .5.5 0 0 0 0 1zM.83 11.71a.5.5 0 0 0 0-1 .5.5 0 0 0 0 1z" fill="#c96" opacity=".6"/><path d="M-26.83-12.67H.5v25.33h-27.33z" fill="#333"/></pattern></defs><path d="M176.73 129.58c5.64-12 13.06-24.19 25-30.06 6.32-3.12 13.42-4.21 20.39-5.25 4.88-.74 9.86-1.47 14.73-.63s9.69 3.52 11.8 8c1.47 3.09 1.49 6.66 1.28 10.08-.21 3.57-1.9 6.76-3.12 10.11-1.41 3.89-4 8.43-5.78 12-2.4 4.84-8.23 10.24-12.15 14a48.63 48.63 0 0 1-14.07 9.89c-6.15 2.66-18.68 2.43-23.29 1.81-11.19-1.51-25.28-7.95-31.77-17.18a18.21 18.21 0 0 1-3.63-8.93 18 18 0 0 1 1.05-6.85A33.78 33.78 0 0 1 179.44 105" transform="translate(-15.28 -92.26)" stroke="#777" stroke-linecap="round" stroke-linejoin="round" stroke-width="2" fill="url(#a)"/><path d="M175.58 71.29a88.51 88.51 0 0 1-18.1 1.22 1.36 1.36 0 0 0-1.59 0c-5.68-.12-11.37-.44-16.91-.44s-11 .11-16.48.41c-3.19.18-6.44.61-9.65.59a1.24 1.24 0 0 0-1.46-.37l-.67.28a19.23 19.23 0 0 1-4-.71 1.5 1.5 0 0 0-.79-.38 1.85 1.85 0 0 0-.42-.06h-.07l-.38-.14a1.21 1.21 0 0 0-1.7.76 1.08 1.08 0 0 0-.24.18 44.07 44.07 0 0 1-12.57 8 1.49 1.49 0 0 0 0 2.59c5.37 2.65 11.47 2.72 17.36 3.07 3.59.22 7.1 1.2 10.7 1.26s6.62 1.29 10.17 1.37c10.24.22 15.83.21 28-1.7.39.63 5.45.24 6.32-.2 2.75-1.37 5.37-1.55 8.38-2.22a11.31 11.31 0 0 0 4.13-2c2.24-2 1.59-7.4 1.88-10 .14-1.06-1.04-1.67-1.91-1.51zm9.08 34.88c-3.22-.29-6.46-.52-9.7-.6a8.87 8.87 0 0 0-2.1.11h-.07l-.07-.07a.5.5 0 0 0-.83.22 4.77 4.77 0 0 0-.2.65 1.76 1.76 0 0 0-.18.44.51.51 0 0 0 .06.36v.49a.46.46 0 0 0 .29.44v.35a.5.5 0 0 0 .75.43c3.49-1.6 8.31-1.67 12.08-1.79a.515.515 0 0 0-.03-1.03zm10.9 9.1v-.13a.5.5 0 0 0-.25-.43 3.17 3.17 0 0 0-1.81-.3c-3.5-1.45-8.4-.29-11.64.67-2.75.82-5.47 1.77-8.2 2.66-1.08.35-3 .67-2.51 2.26a2.26 2.26 0 0 0 .56.93 7.08 7.08 0 0 0 .47 1.18 9.85 9.85 0 0 0 .7 2.13c.14.24 0 .38.16.62-.15.11.36.22.42.45.27 1.07.27 2.86 1.56 3.12a.52.52 0 0 0 .64-.49 5.71 5.71 0 0 0-.16-1 1.35 1.35 0 0 0 .76-.13c1.15-.53 2.24-2.16 3.33-2.91a25.08 25.08 0 0 1 4-2.25c.11-.06.23-.1.34-.15a23.79 23.79 0 0 0 8.88-3.27c1.33-.48 2.92-.89 2.94-2.52a.44.44 0 0 0-.19-.44zm7.51 6.47a22.27 22.27 0 0 0-6.55 1.64.45.45 0 0 0-.41-.08 37.54 37.54 0 0 0-14.88 8.68.59.59 0 0 0-.23.24.52.52 0 0 0 .43.73 31.61 31.61 0 0 0 15.57 6.84.51.51 0 0 0 .61-.62c-.41-1.87.29-3.54.7-5.34 0-.15 0-.31.08-.46a.45.45 0 0 0 .41-.48 6.24 6.24 0 0 1 .19-2 13.44 13.44 0 0 1 1.15-1.6.58.58 0 0 0-.16-.83 6.45 6.45 0 0 0 .69-1.3 5 5 0 0 0 .52-1.28 13.36 13.36 0 0 1 2-2.78.43.43 0 0 0 .14-.42c.39-.27.28-.94-.26-.94z" fill="#c1a891"/><path d="M239.23 132.68a38.5 38.5 0 0 0-8.13 4.67 1.18 1.18 0 0 0-.53-.28 14.89 14.89 0 0 0 1.12-1.93 3.19 3.19 0 0 0 .8-2.53c-.15-1.56-2.59-2.19-3-.4a8.16 8.16 0 0 1-.4 1.3 12.84 12.84 0 0 1-1.58 1.84 11.56 11.56 0 0 0-1.87 1.3 1.22 1.22 0 0 0-1.26.14l-1 .78a1.49 1.49 0 0 0-.41-.49l4.86-7.86a1.5 1.5 0 0 0-2.35-1.82 81 81 0 0 0-9.74 13 1.17 1.17 0 0 0-1.52-.43l-.52.23a1.43 1.43 0 0 0-1.84-1.2 61.49 61.49 0 0 0-8.51 3.55c.15-.17.32-.34.47-.52.9-1 .07-3.07-1.46-2.5-.41.15-.81.32-1.21.48a1.59 1.59 0 0 0-1.2.08c-3.24 1.51-6.38 3.17-9.46 4.94-1.22.2-2.43.42-3.64.66a1.4 1.4 0 0 0-1.08-.06l-2.63.8a1.3 1.3 0 0 0-1-.75c-2.93-.67-5.73 0-8.56.75.93-1 .23-3-1.39-2.48a74.17 74.17 0 0 0-10.32 4.16l-.67.27a1.6 1.6 0 0 0-2.13-.8l-7.07 3.17a1.57 1.57 0 0 0-.94-1 1.71 1.71 0 0 0-2.24-.95c-2.14.91-4.22 1.9-6.28 3a1.41 1.41 0 0 0-1.95-.47q-2.72 1.66-5.4 3.38a1.28 1.28 0 0 0-1.44 0 53.2 53.2 0 0 0-4.8 3.65 1.54 1.54 0 0 0-2.67-.18 20.56 20.56 0 0 1-3.82 4.59 3.28 3.28 0 0 0-1.8 1.6c-.73 1.2 2.41 1.75 2.6 1.6.42.7 10.21 1.79 10.82 1.74 4.5-.4 9-.86 13.51-1.31s8.42.11 12.86.12c4.77 0 11.93 0 15-.25 2.57.19 9.85-.13 14.71-.49a1.56 1.56 0 0 0 .88.36c3.36.34 6.82-.76 10.12-.13 4.18.79 6.31 3.94 8.42 7.38a1.51 1.51 0 0 0 2.79-.76c.35-3.34 2.91-6.3 4.23-9.33.83-1.91 1.55-3.85 2.45-5.71a1.44 1.44 0 0 0 .67-.63q1.34-2.37 2.72-4.7a33 33 0 0 1 10.56-8.6 1.45 1.45 0 0 0 .53-.47c7.27-4.85 15-8.92 23.63-10.2 1.43-.08-4.41-.05-3-.24h1.16l-1.92 2c.14 0 .62-2 .76-2 1.69-.24-9.53-2.3-14.93-.07zM211 167.55c-.25.48-.49 1-.71 1.46a14.75 14.75 0 0 0-5.41-5.12c-3.14-1.53-6.55-1-9.92-.79a1.88 1.88 0 0 0-.12-.18 13.69 13.69 0 0 0 7.25-6.29l.11-.07c1.3-.82 3.58-1.55 5.35-2.43a5.67 5.67 0 0 0 .61 3.57 4.25 4.25 0 0 0 .49 2.51 2.28 2.28 0 0 0 2.55 1.2 1.82 1.82 0 0 0 0 .33 12.66 12.66 0 0 1-1.15 3.62 1.57 1.57 0 0 0 .95 2.19z" transform="translate(-15.28 -92.26)" fill="url(#a)"/><path d="M48.4 172.69c-5-.32-11.21-.8-16.17-1.11s-10.34-.6-15 1.47c-.86 1.79-1.63 4.19-.18 5.56s3.84.42 5.74-.29a17.33 17.33 0 0 1 10.15-.6c1.27.31 2.8 1.34 2.3 2.55a2.57 2.57 0 0 1-1.24 1.11 42.49 42.49 0 0 0-12.32 10c-1.27 1.51-2.49 3.55-1.64 5.33.95 2 4 2.07 5.76.78s2.75-3.41 3.87-5.32a27.26 27.26 0 0 1 3.84-5.1 10.1 10.1 0 0 1 4.72-3.07 4.56 4.56 0 0 1 5 1.8c1 1.68.39 3.78-.21 5.61l-2.71 8.34c1.35 1 3.33.3 4.4-1a10.83 10.83 0 0 0 1.87-4.53c1.25-4.89 4.74-12.1 8.89-15" transform="translate(-15.28 -92.26)" stroke="#777" stroke-linecap="round" stroke-linejoin="round" stroke-width="2" fill="url(#a)"/><path d="M257.18 133c-.41-5-.87-7.72-2.93-11.74-3.11-6.06-5.35-8.42-9-12.63a46 46 0 0 0-9.13-7.12 52.8 52.8 0 0 0-9.5-4.25 123 123 0 0 0-30.39-3.92c-9.86.21-13.1.74-18.56 3-4.59 1.9-9.37 3.21-17.86 7.21a74.54 74.54 0 0 1-19.64 5.95c-3.9.73-12.62 1.74-17 2.51-10.48 1.83-20.1 2.72-23.55 3.5-4.08.93-13.29 4.55-18.24 7a90.46 90.46 0 0 0-22 14.83c-6.29 5.53-8.68 12.2-12.67 20.84-2 4.33-5 15.16-3.37 18.66 1.5 3.34 12.61 3 18.62 3.25a159.39 159.39 0 0 0 20.66-.09 53.34 53.34 0 0 0 13.52-3.12c10.54-3.87 21.1-8.12 31.86-15.31" transform="translate(-15.28 -92.26)" stroke="#777" stroke-linecap="round" stroke-miterlimit="10" stroke-width="2" fill="url(#b)"/><path d="M89.72 81.86c8.39 4.85 37.42 7.52 48.05 7.19" fill="none" stroke="#777" stroke-linecap="round" stroke-linejoin="round" stroke-width="2"/><path d="M137.77 89.05c11.22.28 25.68-2.15 37.4-4.86" fill="#f93" stroke="#777" stroke-linecap="round" stroke-linejoin="round" stroke-width="2"/><path d="M126.36 166.6c-2.23 4.28-5.34 10.55-7.56 14.83a19 19 0 0 1-3.19 4.84c-2.77 2.74-6.89 3.47-10.72 4.2a180.39 180.39 0 0 0-16.67 4 5.89 5.89 0 0 0-3.06 1.6c-.75.89-.79 2.48.22 3.07a3.07 3.07 0 0 0 2 .17l10.14-1.37c1.32-.18 2.82-.31 3.81.57 1.2 1.06 1 3.09 0 4.35a12 12 0 0 1-3.88 2.75 32 32 0 0 0-6.19 4.51 9.65 9.65 0 0 0-2.81 3.9 4.08 4.08 0 0 0 1.1 4.42c1.67 1.27 4.17.51 5.71-.92s2.5-3.37 3.89-4.94 3.6-2.77 5.56-2a42.36 42.36 0 0 1 2 15.49c2.8.54 5.51-1.73 6.54-4.39s.8-5.61.65-8.46-.16-5.86 1.21-8.36c1.18-2.14 3.22-3.64 4.93-5.39 3.88-3.93 8.08-8.23 10.23-13.32 1.77-4.19 7.94-17.11 9.94-21.45m59.91 29.05c-4.5-1.83-11.88-1.68-16.25.46-1.07.53-2.22 1.87-1.38 2.73a2 2 0 0 0 1.47.42c7.2 0 15.23-1.66 21 2.64a44 44 0 0 0-22.3 4.06c-2.88 1.37-6 4.13-5 7.13 5.81.27 11.36-2.09 16.88-3.9s11.71-3 17-.66c.52 1.79-1.12 3.46-2.73 4.4-3.93 2.28-8.6 3-12.65 5s-7.66 6.41-6.46 10.79c3.28-.51 5.79-3.05 8.36-5.14a37.71 37.71 0 0 1 22.19-8.35 36.41 36.41 0 0 0-7 20.94 2.68 2.68 0 0 0 .27 1.43 1.89 1.89 0 0 0 2.67.21 5.6 5.6 0 0 0 1.55-2.54c2.6-6.71 5.88-13.48 11.5-18 6.72-5.37 18-9.5 22.54-16.8" transform="translate(-15.28 -92.26)" stroke="#777" stroke-linecap="round" stroke-linejoin="round" stroke-width="2" fill="url(#a)"/><path d="M211.44 174.07c4.52-12.49 10.81-25.27 22.14-32.21 6-3.67 13-5.4 19.83-7.07 4.8-1.17 9.7-2.35 14.62-2s10 2.64 12.48 6.89c1.74 2.95 2.08 6.5 2.19 9.93s-1.29 6.9-2.2 10.35c-1.05 4-3.21 8.75-4.67 12.5-1.95 5-7.26 10.94-10.83 15a48.55 48.55 0 0 1-13.12 11.12c-5.88 3.21-18.38 4.12-23 3.91-11.28-.49-25.89-5.62-33.19-14.23a15.56 15.56 0 0 1-4-15.48 33.79 33.79 0 0 1 20.25-23.46" transform="translate(-15.28 -92.26)" stroke="#777" stroke-linecap="round" stroke-linejoin="round" stroke-width="2" fill="url(#a)"/><path d="M186.67 197.88a24.59 24.59 0 0 0-.59 4m-.37 8.28c.23 3.1 3.11 9.41 4.34 12.25" transform="translate(-15.28 -92.26)" stroke="#777" stroke-linecap="round" stroke-linejoin="round" stroke-width="2" fill="url(#c)"/><path d="M179.45 132.21a38.59 38.59 0 0 0 7.89 5.62 39.77 39.77 0 0 0 5.63 2.16c1.12.35 3.59.6 4.63 1" fill="none" stroke="#777" stroke-linecap="round" stroke-linejoin="round" stroke-width="2"/><circle cx="42.11" cy="45.07" r="7.08" fill="#222" stroke="#777" stroke-linecap="round" stroke-linejoin="round" stroke-width="2"/><circle cx="72.81" cy="61.86" r="7.33" fill="#222" stroke="#777" stroke-linecap="round" stroke-linejoin="round" stroke-width="2"/><ellipse cx="32.86" cy="77.73" rx="2.17" ry="1.42" stroke="#777" stroke-linecap="round" stroke-linejoin="round" stroke-width=".75" fill="url(#d)"/><ellipse cx="39.22" cy="82.49" rx="1.44" ry="2.17" stroke="#777" stroke-linecap="round" stroke-linejoin="round" stroke-width=".75" fill="url(#d)"/><circle cx="42.11" cy="41.29" r=".8" fill="#fff" stroke="#eee" stroke-miterlimit="10" stroke-width="2"/><circle cx="76.47" cy="60.07" r=".8" fill="#fff" stroke="#eee" stroke-miterlimit="10" stroke-width="2"/><path d="M55.72 88.1a39.18 39.18 0 0 0 16.88-2.9c5.37-2.09 5.48-2 10.37-5" fill="none" stroke="#777" stroke-linecap="round" stroke-linejoin="round" stroke-width="2"/></svg>