<svg xmlns="http://www.w3.org/2000/svg" version="1.0" viewBox="0 0 274.318 251.339"><defs><clipPath clipPathUnits="userSpaceOnUse" id="a"><path d="M18.469 17.51h273.994v251.527H18.469z"/></clipPath></defs><path clip-path="url(#a)" d="M283.348 105.416c-18.189-58.764-73.955-98.9-144.312-74.275-70.318 24.585-133.4 93.184-110.094 163.581 19.149 58.245 89.506 86.428 159.824 61.843 70.357-24.586 112.531-92.385 94.582-151.149z" fill="#e1c569" fill-rule="evenodd"/><path d="M191.204 49.53c-21.347 9.594-53.847-3.358-67.919 21.747-8.515 15.51-15.07 26.903-29.622 37.017-14.311 9.834-31.54 19.149-35.898 38.017-5.357 23.826 15.27 31.581 28.623 45.293 7.995 8.275 8.754 21.467 17.23 29.262 11.392 10.354 26.943 11.353 40.055 4.917 13.832-6.756 24.505-13.472 40.016-11.153 14.79 2.358 25.224 2.598 36.418-9.314 9.434-10.074 18.428-19.669 19.628-34.94.96-10.873-.96-20.427 6.796-29.222 6.556-7.515 14.55-11.153 15.03-22.506.24-9.314-3.877-18.389-7.515-26.664-3.398-7.515-7.276-12.952-14.071-17.35-5.077-3.117-11.154-3.357-16.51-6.475-6.037-3.358-24.506-30.542-32.74-18.629z" fill="#ccaf5e" fill-rule="evenodd"/><path d="M205.316 82.07c9.474 1.04 16.03 13.752 17.469 22.786 1.679 11.394-2.918 22.027-4.597 33.14-1.72 10.114-.96 20.228-8.235 27.704-8.515 9.354-20.148 14.79-29.103 24.105-5.356 5.956-9.714 11.393-17.23 14.231-5.556 2.319-13.55 3.118-19.627 3.358-7.995 0-16.99 2.839-24.745-.76-8.955-4.157-16.47-17.349-15.271-28.222.48-4.677 2.678-8.555 5.117-12.433 1.2-2.318 5.077-5.956 5.557-8.794 1.239-6.476-7.996-13.232-9.914-19.708-7.796-25.345 24.225-29.502 39.496-33.14 18.428-4.118 42.934-50.49 61.562-22.267z" fill="#b99a50" fill-rule="evenodd"/><path d="M119.867 118.608c-20.347 0-39.476 19.928-39.476 37.278 0 17.07 13.812 33.879 34.14 33.879 20.327 0 35.818-18.889 35.818-35.958 0-17.33-10.154-35.199-30.482-35.199z" fill="#e1c569" fill-rule="evenodd"/><path clip-path="url(#a)" d="M287.106 103.058C268.437 42.454 210.912.999 138.596 26.384 66.04 51.769.999 122.206 25.025 194.962c19.908 60.083 92.464 89.066 164.78 63.721 72.316-25.384 115.97-95.062 97.301-155.625zm-79.832 133.878c-7.995 3.079-12.872-1.319-15.51-12.192-4.158-16.07 20.867-28.463 5.317-49.97-10.674-14.751-36.898-4.677-35.419 15.55.72 9.315 11.633 21.228 15.51 28.743 4.878 9.554 8.755 26.144-8.474 32.1-57.765 12.673-112.092-12.712-128.123-60.842-16.51-50.53 15.271-99.7 60.644-129.242 5.596-3.878 13.112 4.157 12.872 18.149-.24 11.913 7.755 25.864 23.306 20.428 14.071-4.917 12.112-26.664 1.199-32.62-7.995-4.398-27.423-5.677-23.786-13.992 8.275-4.397 16.99-8.275 25.745-11.393 38.337-13.432 71.796-5.677 96.341 14.271 7.036 9.834-13.831 14.231-24.545 19.908-13.072 6.996-12.352 26.184 1 33.7 15.99 9.314 25.704-7.276 27.183-21.787.48-3.598.24-7.236 1.2-10.874 2.198-9.034 6.316-10.073 7.035-9.314 10.194 11.913 17.95 25.904 22.826 41.695 14.552 47.131-13.591 100.459-64.32 127.682z" fill="#f1efa6" fill-rule="evenodd"/><path d="M210.153 151.988c0-11.513 8.594-20.907 19.148-20.907 10.594 0 19.148 9.394 19.148 20.907 0 11.553-8.554 20.907-19.148 20.907-10.554 0-19.148-9.354-19.148-20.907z" fill="#f1efa6" fill-rule="evenodd"/><path d="M217.028 77.433c1.44 1.32 6.277 5.956 2.879 8.035-.96.76-3.358.24-4.358.24-1.439-.24-3.118 0-4.357-.24 1.959 1.56 5.357 1.56 4.118 4.917-.72 2.079-2.639 3.358-4.118 4.637 1.719 0 4.118-.76 5.357.8 1.919 2.319 0 4.917-1.48 6.956 2.44-2.04 4.358-7.236 7.756-7.756 4.357-1.039 4.357 8.555 3.638 11.114.72-3.078 1.439-6.716 3.638-8.755 1.918-1.839 3.637-.8 5.556 0-1.439-1.839-4.597-3.878-4.117-6.756.24-2.319 3.877-4.117 5.796-4.117-2.159-1.28-5.556.24-7.955-1.04-2.199-1.04-1.48-4.637-1-6.716-3.597 4.398-7.715.24-11.353-1.04zm7.876 61.323c-.24 2.079 1.199 5.197-1.72 6.236-1.918.8-4.117-1.04-5.556-2.079.96 2.359 2.678 3.918 2.159 6.756-.48 2.079-2.399 4.158-4.118 5.477 2.199 0 4.877-1.04 6.556.52 2.919 2.838 1.72 9.074.24 12.432 1.959-2.838 2.439-6.716 5.597-8.795 2.878-2.078 5.317-.28 7.715 2.08-1.679-2.08-3.838-4.958-3.358-7.556.72-2.839 5.077-3.878 7.236-3.638-2.159 0-4.837.28-6.516-1.799-2.439-2.358-.48-5.996.48-8.595-1.68 1.04-2.919 2.879-4.838 2.359-1.479-.28-2.918-1.56-3.877-2.599zm-48.011 39.656c0 3.118.48 8.275 4.357 8.035 2.918 0 4.837-4.157 5.317-6.716-.24 2.559-3.398 8.515.96 8.515 1.958 0 5.596-1.799 6.795-3.078-1.959 2.558-10.154 7.235-8.714 11.353 1.199 3.118 9.913 0 12.072-.76-3.358 2.559-7.955 2.839-11.353 5.397-1.44 1.04-2.638 3.118-3.398 4.677-.48 2.039.24 4.398-.48 5.917.24-5.917-3.837-9.555-8.954-9.035 1.959-1.559 8.954-5.157 5.596-9.034-2.198-2.319-7.995-1.28-10.433-1.56 3.638 1.56 7.275-1.798 7.755-5.156.48-2.599 0-4.917.24-7.516z" fill="#f5d970" fill-rule="evenodd"/><path d="M166.18 107.335c0-3.318 3.357-6.076 7.435-6.076 4.117 0 7.435 2.758 7.435 6.076 0 3.358-3.318 6.076-7.435 6.076-4.078 0-7.436-2.718-7.436-6.076zm2.478 36.578c0-3.078 3.238-5.637 7.195-5.637 3.998 0 7.196 2.559 7.196 5.637 0 3.118-3.198 5.636-7.196 5.636-3.957 0-7.195-2.518-7.195-5.636z" fill="#f1efa6" fill-rule="evenodd"/><path d="M172.016 143.993c0-1.4 1.679-2.599 3.678-2.599 2.038 0 3.677 1.2 3.677 2.599 0 1.439-1.639 2.598-3.677 2.598-2 0-3.678-1.16-3.678-2.598zm-2.639-36.618c0-1.759 1.88-3.238 4.158-3.238 2.318 0 4.157 1.479 4.157 3.238 0 1.799-1.839 3.238-4.157 3.238-2.279 0-4.158-1.44-4.158-3.238z" fill="#f5d970" fill-rule="evenodd"/><path d="M70.137 177.892c1.46 3.338.98 6.936-1.199 7.975-2.438 1.02-5.357-.52-6.816-3.857-1.719-3.338-.98-6.956 1.22-8.235 2.178-1.04 5.336.78 6.795 4.117z" fill="#f1efa6" fill-rule="evenodd"/><path d="M67.679 178.932c.72 1.778.72 3.577-.24 4.097-.72.5-2.159-.52-2.878-2.319-.96-1.778-.72-3.577 0-4.097.96-.52 2.398.52 3.118 2.319z" fill="#f5d970" fill-rule="evenodd"/><path d="M107.095 157.904c0 5.937-4.137 11.633-10.214 11.633-6.096 0-10.973-4.917-10.973-10.873 0-5.957 4.877-11.913 10.973-11.913 6.077 0 10.214 5.197 10.214 11.153z" fill="#f1efa6" fill-rule="evenodd"/><path d="M119.867 114.77c-22.806 0-44.433 22.247-44.433 41.635 0 19.388 15.55 37.997 38.377 37.997 22.826 0 40.535-20.927 40.535-40.315 0-19.409-11.652-39.317-34.479-39.317zm-5.816 73.176c-19.188 0-32.3-15.51-32.3-31.8 0-15.511 16.75-33.36 35.218-34.64.96 1.04 2.179 3.098 2.179 6.716-.24 6.716-3.878 7.496-3.878 7.496s-6.796 4.137-6.076 11.113c.72 6.996 4.137 9.055 11.413 10.614 7.535 1.279 10.933-7.496 11.413-13.192.24-5.697-7.296-6.716-7.296-13.452 0-3.618.5-6.716.74-8.775 15.05 3.358 22.326 17.83 22.326 32.32 0 16.03-14.55 33.6-33.74 33.6z" fill="#f1efa6" fill-rule="evenodd"/><path d="M127.962 167.758c.96 4.158-2.918 8.815-8.754 10.374-5.837 1.799-11.433-.26-12.653-4.417-.979-4.138 2.919-8.795 8.755-10.614 5.837-1.559 11.433.52 12.652 4.657z" fill="#f1efa6" fill-rule="evenodd"/><path d="M120.187 138.276c0 1.56.24 2.858-1.22 3.378-.959.52-2.178.26-2.897-.26 2.658 2.079 0 6.217-2.179 7.256 1.46-.52 2.898-1.3 4.117.26 1.44 1.539 1.68 3.877 1.92 5.676-.96-3.877 2.898-8.535 6.276-5.177-4.098-2.058-3.858-6.196-.72-9.054-1.2.52-2.159.78-3.378.26-1.2-.52-1.2-1.3-1.679-2.339zm-29.482 15.631c3.918-.26 3.678 6.196.74 7.495.74-1.299 2.458-1.299 3.437 0 .72.76.98 3.358.48 4.378 0-1.8.5-4.378 1.959-5.417 1.959-1.3 3.678-.78 5.137.78-1.46-1.3-2.439-6.477.48-6.477-1.7-.26-3.178.52-4.638-1.02-.979-1.038-.979-2.338-1.479-3.377-.72 3.118-3.178 3.378-5.856 3.378zm21.227 12.613c.48 1.038 1.46 2.078.96 3.377-.48 1.04-2.18 2.339-3.159 2.598 1.46-.26 2.919-1.039 4.378-.26 1.459.78 2.678 2.859 2.418 4.658-.48-1.8.74-4.398 2.199-5.177 1.699-1.04 3.398-.78 4.837.26-2.658-1.3-1.699-3.638-.24-5.457-.48.52-2.178 1.56-3.138 1.56-1.22 0-1.959-1.56-1.959-2.86-1.199 1.3-1.938 2.08-3.637 2.08-.72 0-2.18 0-2.659-.78zM132.8 72.056c-1.22.26-2.679 2.06-4.618 1.04-1.719-1.04-2.438-3.378-3.418-4.937.74 1.819 1.96 5.696.5 7.515-.98 1.3-5.117 1.56-6.336.52 1.959 1.299 3.898 1.559 4.377 4.397.5 2.339-1.459 3.878-3.398 4.657 1.94 0 5.597-3.098 7.056-.26 1.22 2.859-1.959 5.437-3.658 6.736 1.96-1.818 4.378-4.657 7.536-3.098 2.198 1.02 1.699 3.618 1.959 5.677-.74-2.319 0-7.496 1.459-9.574 2.418-2.839 6.076-1.04 8.974-.52-2.178-.76-6.796-1.02-8.015-3.358-1.22-2.339 1.46-5.956 3.898-6.216-2.439.52-6.316 1.559-6.077-2.579z" fill="#f5d970" fill-rule="evenodd"/><path clip-path="url(#a)" d="M287.106 103.058C268.437 42.454 210.912.999 138.596 26.384 66.04 51.769.999 122.206 25.025 194.962c19.908 60.083 92.464 89.066 164.78 63.721 72.316-25.384 115.97-95.062 97.301-155.625zm-79.832 133.878c-7.995 3.079-12.872-1.319-15.51-12.192-4.158-16.07 20.867-28.463 5.317-49.97-10.674-14.751-36.898-4.677-35.419 15.55.72 9.315 11.633 21.228 15.51 28.743 4.878 9.554 8.755 26.144-8.474 32.1-57.765 12.673-112.092-12.712-128.123-60.842-16.51-50.53 15.271-99.7 60.644-129.242 5.596-3.878 13.112 4.157 12.872 18.149-.24 11.913 7.755 25.864 23.306 20.428 14.071-4.917 12.112-26.664 1.199-32.62-7.995-4.398-27.423-5.677-23.786-13.992 8.275-4.397 16.99-8.275 25.745-11.393 38.337-13.432 71.796-5.677 96.341 14.271 7.036 9.834-13.831 14.231-24.545 19.908-13.072 6.996-12.352 26.184 1 33.7 15.99 9.314 25.704-7.276 27.183-21.787.48-3.598.24-7.236 1.2-10.874 2.198-9.034 6.316-10.073 7.035-9.314 10.194 11.913 17.95 25.904 22.826 41.695 14.552 47.131-13.591 100.459-64.32 127.682z" fill="none" stroke="#343434" stroke-width=".64" stroke-linecap="round" stroke-linejoin="round"/><path d="M210.153 151.988c0-11.513 8.594-20.907 19.148-20.907 10.594 0 19.148 9.394 19.148 20.907 0 11.553-8.554 20.907-19.148 20.907-10.554 0-19.148-9.354-19.148-20.907" fill="none" stroke="#343434" stroke-width=".64" stroke-linecap="round" stroke-linejoin="round"/><path d="M217.068 77.473c1.44 1.32 6.277 5.956 2.879 8.035-.96.76-3.358.24-4.358.24-1.439-.24-3.118 0-4.357-.24 1.959 1.56 5.357 1.56 4.117 4.917-.72 2.079-2.638 3.358-4.117 4.637 1.719 0 4.117-.76 5.357.8 1.919 2.318 0 4.917-1.48 6.956 2.44-2.04 4.358-7.236 7.756-7.756 4.357-1.039 4.357 8.555 3.638 11.114.72-3.078 1.439-6.716 3.638-8.755 1.918-1.839 3.637-.8 5.556 0-1.439-1.839-4.597-3.878-4.117-6.756.24-2.319 3.877-4.117 5.796-4.117-2.159-1.28-5.556.24-7.955-1.04-2.199-1.04-1.48-4.637-1-6.716-3.597 4.398-7.715.24-11.353-1.04m7.876 61.044c-.24 2.079 1.199 5.197-1.72 6.236-1.918.8-4.117-1.04-5.556-2.079.96 2.359 2.678 3.918 2.159 6.756-.48 2.079-2.399 4.158-4.118 5.477 2.199 0 4.877-1.04 6.556.52 2.919 2.838 1.72 9.074.24 12.432 1.959-2.838 2.439-6.716 5.597-8.795 2.878-2.078 5.317-.28 7.715 2.08-1.679-2.08-3.838-4.958-3.358-7.556.72-2.839 5.077-3.878 7.236-3.638-2.159 0-4.837.28-6.516-1.799-2.439-2.359-.48-5.996.48-8.595-1.68 1.04-2.919 2.879-4.838 2.359-1.479-.28-2.918-1.56-3.877-2.599m-48.011 38.857c0 3.118.48 8.275 4.357 8.035 2.918 0 4.837-4.157 5.317-6.716-.24 2.559-3.398 8.515.96 8.515 1.958 0 5.596-1.799 6.795-3.078-1.959 2.558-10.154 7.235-8.715 11.353 1.2 3.118 9.914 0 12.073-.76-3.358 2.559-7.955 2.839-11.353 5.397-1.44 1.04-2.638 3.118-3.398 4.677-.48 2.039.24 4.398-.48 5.917.24-5.917-3.837-9.555-8.954-9.035 1.959-1.559 8.954-5.157 5.596-9.034-2.198-2.319-7.995-1.28-10.433-1.56 3.638 1.56 7.275-1.798 7.755-5.156.48-2.599 0-4.917.24-7.516" fill="none" stroke="#fff" stroke-width="1.039" stroke-miterlimit="8"/><path d="M166.18 107.335c0-3.318 3.357-6.076 7.435-6.076 4.117 0 7.435 2.758 7.435 6.076 0 3.358-3.318 6.076-7.435 6.076-4.078 0-7.436-2.718-7.436-6.076m2.479 36.578c0-3.078 3.238-5.637 7.195-5.637 3.998 0 7.196 2.559 7.196 5.637 0 3.118-3.198 5.636-7.196 5.636-3.957 0-7.195-2.518-7.195-5.636" fill="none" stroke="#343434" stroke-width=".64" stroke-linecap="round" stroke-linejoin="round" stroke-miterlimit="10"/><path d="M172.016 143.993c0-1.4 1.679-2.599 3.678-2.599 2.038 0 3.677 1.2 3.677 2.599 0 1.439-1.639 2.598-3.677 2.598-2 0-3.678-1.16-3.678-2.598m-2.639-36.618c0-1.759 1.88-3.238 4.158-3.238 2.318 0 4.157 1.479 4.157 3.238 0 1.799-1.839 3.238-4.157 3.238-2.279 0-4.158-1.44-4.158-3.238m-99.24 70.517c1.46 3.338.98 6.936-1.199 7.975-2.438 1.02-5.357-.52-6.816-3.857-1.719-3.338-.98-6.956 1.22-8.235 2.178-1.04 5.336.78 6.795 4.117" fill="none" stroke="#343434" stroke-width=".64" stroke-linecap="round" stroke-linejoin="round" stroke-miterlimit="10"/><path d="M67.679 178.932c.72 1.778.72 3.577-.24 4.097-.72.5-2.159-.52-2.878-2.319-.96-1.778-.72-3.577 0-4.097.96-.52 2.398.52 3.118 2.319m39.416-21.028c0 5.937-4.137 11.633-10.214 11.633-6.096 0-10.973-4.917-10.973-10.873 0-5.957 4.877-11.913 10.973-11.913 6.077 0 10.214 5.197 10.214 11.153" fill="none" stroke="#343434" stroke-width=".64" stroke-linecap="round" stroke-linejoin="round" stroke-miterlimit="10"/><path d="M119.867 114.77c-22.806 0-44.433 22.247-44.433 41.635 0 19.388 15.55 37.997 38.377 37.997 22.826 0 40.535-20.927 40.535-40.315 0-19.409-11.652-39.317-34.479-39.317zm-5.816 73.176c-19.188 0-32.3-15.51-32.3-31.8 0-15.511 16.75-33.36 35.218-34.64.96 1.04 2.179 3.098 2.179 6.716-.24 6.716-3.878 7.496-3.878 7.496s-6.796 4.137-6.076 11.113c.72 6.996 4.137 9.055 11.413 10.614 7.535 1.279 10.933-7.496 11.413-13.192.24-5.697-7.296-6.716-7.296-13.452 0-3.618.5-6.716.74-8.775 15.05 3.358 22.326 17.83 22.326 32.32 0 16.03-14.55 33.6-33.74 33.6z" fill="none" stroke="#343434" stroke-width=".64" stroke-linecap="round" stroke-linejoin="round" stroke-miterlimit="10"/><path d="M127.962 167.758c.96 4.158-2.918 8.815-8.754 10.374-5.837 1.799-11.433-.26-12.653-4.417-.979-4.138 2.919-8.795 8.755-10.614 5.837-1.559 11.433.52 12.652 4.657" fill="none" stroke="#343434" stroke-width=".64" stroke-linecap="round" stroke-linejoin="round" stroke-miterlimit="10"/><path d="M120.227 138.316c0 1.56.24 2.858-1.22 3.378-.959.52-2.178.26-2.897-.26 2.658 2.079 0 6.217-2.18 7.256 1.46-.52 2.9-1.3 4.118.26 1.44 1.539 1.68 3.877 1.92 5.676-.96-3.877 2.898-8.535 6.275-5.177-4.097-2.058-3.857-6.196-.72-9.054-1.198.52-2.158.78-3.377.26-1.2-.52-1.2-1.3-1.679-2.339m-29.722 15.631c3.918-.26 3.678 6.196.74 7.495.74-1.3 2.458-1.3 3.437 0 .72.76.98 3.358.48 4.377 0-1.798.5-4.377 1.959-5.416 1.959-1.3 3.678-.78 5.137.78-1.46-1.3-2.439-6.477.48-6.477-1.7-.26-3.178.52-4.638-1.02-.979-1.039-.979-2.338-1.479-3.377-.72 3.118-3.178 3.378-5.856 3.378m20.967 12.873c.48 1.038 1.46 2.078.96 3.377-.48 1.04-2.18 2.339-3.159 2.598 1.46-.26 2.919-1.039 4.378-.26 1.459.78 2.678 2.859 2.418 4.658-.48-1.8.74-4.398 2.199-5.177 1.699-1.04 3.398-.78 4.837.26-2.658-1.3-1.699-3.638-.24-5.457-.48.52-2.178 1.56-3.138 1.56-1.22 0-1.959-1.56-1.959-2.86-1.199 1.3-1.939 2.08-3.637 2.08-.72 0-2.18 0-2.659-.78m20.868-94.463c-1.22.26-2.679 2.06-4.618 1.04-1.719-1.04-2.438-3.378-3.418-4.937.74 1.819 1.96 5.696.5 7.515-.98 1.3-5.117 1.56-6.336.52 1.959 1.299 3.898 1.559 4.377 4.397.5 2.339-1.459 3.878-3.398 4.657 1.94 0 5.597-3.098 7.056-.26 1.22 2.859-1.959 5.437-3.658 6.736 1.96-1.819 4.378-4.657 7.536-3.098 2.198 1.02 1.699 3.618 1.958 5.677-.74-2.319 0-7.496 1.46-9.574 2.418-2.839 6.076-1.04 8.974-.52-2.179-.76-6.796-1.02-8.015-3.358-1.22-2.339 1.46-5.956 3.898-6.216-2.439.52-6.317 1.559-6.077-2.579" fill="none" stroke="#fff" stroke-width="1.039" stroke-miterlimit="8"/><path d="M222.465 81.27c1 .28 2.958 1.32 4.158 0 0 2.08-.24 3.918 1.719 4.958.959.52 2.438.76 3.637.52-3.158 2.318-1.439 5.436 0 8.035-2.158-.76-3.158-4.917-1.918-6.756-2.439 0-3.438-1.04-3.918-3.358-.24-1.56 0-1.56-1.24-1.56-.959 0-2.158-.28-2.158-1.319zm-95.542-7.675h.26c.72 1.3 3.858.78 4.837 0 .24 1.56 1.46 2.579 2.898 2.319-.48 1.28-.96 2.059-.96 3.338.24 1.28.72 2.319 1.44 3.338-1.2.26-3.138 3.078-2.898 4.357-.24-1.279.72-4.097 1.939-4.617-1.22-.76-1.46-4.097-.72-5.397-.98-.24-1.939-.76-1.699-2.038-1.46 0-4.118.26-4.837-1.04zm-6.396 67.799c.5 0 1.499.26 1.999.52 0 .78-.5 1.56-.74 2.578-.26 1.04.24 1.56.5 2.579-1.26-1.02-.5-3.078-.26-4.377-.5-.26-1.24-.52-1.24-1.04zm-23.986 11.353c0 1.58 2.459 2.639 3.678 2.639 0 1.04-.48 1.839-.24 2.878-1.219-.26-.74-1.559-1.459-2.099-.5-.52-.98-.52-1.479-1.039-.5-.54-.24-1.06-.5-1.839zm21.168 14.472c.24 1.839 1.978 2.098 3.218 1.839v.8c-.98 0-1.72.259-2.479.519-.98.26-1.479.78-2.238 1.559.5-1.3.76-2.359 1.998-2.619-.5-.26-.74-1.039-.74-1.819zm64.461 20.547c.76-.52 1.519-.8 1.998-1.839 0 1.56-.24 2.599 1.24 3.118.76.24 2.758.24 3.478 0-1.24 0-2.719 1.28-3.478 2.08-.48 1.039-.72 2.318-.72 3.357 0 1.799.48 4.917 2.479 4.917-.76 0-1.48.52-2 1.28-.479.759-1.998 2.598-1.998 3.078 0-1 .28-2.04 1-2.839 0-.24.759-.76.759-1 0-.519-.76-1.318-.76-1.838-.72-1.799-.72-3.358-.24-5.157.24-1.04.24-2.319 1.24-2.838-1.24.24-1.48-.8-1.48-1.8-.519 0-.999 0-1.239-.279zm49.13-44.853c-.76 1.32-.24 3.918.24 4.957.48 1.28 1 1.8 1.958 2.559-.959-.24-1.718 2.079-1.958 2.878-.24 1-.48 3.078.24 3.878-1.24-.8-2.2-.28-3.438.52-1 .759-2.239 1.558-2.999 2.558.52-1.28 1-2.319 2-3.358.479-.76 1.238-1.04 2.238-1.28-.28-1.319.24-2.078.72-3.357.24-.52 1.239-1.04 1.479-1.56 0-.28-.48-1.039-.48-1.319-.24-.52-.52-1.279-.52-1.798 0-1.28 0-2.599.52-3.638zm-57.765-37.537c3.838-2.119 3.838 4.917.72 4.158.959-.8 1.918-3.918 0-4.158zm2.678 36.578c.48.28 1.16.28 1.6.8.479.24.479.759.479 1.279.2 1.759-2.079 1.759-3.238 1.759.48-.48.92-.48 1.4-.76.239-.52.439-.76.679-1.28 0-.519-.44-1.278-.92-1.518zM65.12 177.053c1.92.54 3.598 3.957 1.92 5.516 0-1.299 0-2.098-.48-3.138-.24-1.06-.96-1.319-1.44-2.098z" fill="#f1c225" fill-rule="evenodd"/><path clip-path="url(#a)" d="M287.066 103.098c-18.669-60.604-76.394-102.059-148.71-76.674C66.08 51.809 1.04 122.486 24.825 195.002c19.908 60.083 92.424 89.066 164.98 63.721 72.276-25.384 115.69-95.062 97.261-155.625" fill="none" stroke="#343434" stroke-width="1.039" stroke-linecap="round" stroke-linejoin="round" stroke-miterlimit="10"/><path d="M119.907 114.81c-22.806 0-44.433 22.247-44.433 41.635 0 19.388 15.55 37.997 38.377 37.997 22.826 0 40.535-20.927 40.535-40.315 0-19.409-11.653-39.317-34.479-39.317" fill="none" stroke="#343434" stroke-width="1.039" stroke-linecap="round" stroke-linejoin="round" stroke-miterlimit="10"/><path d="M114.05 123.405s-20.367 4.158-28.382 22.287c-5.816 13.212 0 23.046 0 23.046s-6.076-16.57 5.817-29.003c11.892-12.172 22.566-16.33 22.566-16.33zm58.286 48.531s-8.515 5.177-9.495 13.971c-.98 9.035 6.336 18.33 6.336 18.33s-7.315-10.854-4.377-19.369c3.158-8.535 7.536-12.932 7.536-12.932zm44.293-34.14s-10.154 11.154-2.399 24.306c0 0-5.317-11.873 2.399-24.306zm-45.093 2.479s-3.678 2.379-1.699 5.517c0 0-.98-2.879 1.699-5.517zm-2.638-37.018s-3.838 3.139-.96 7.036c0 0-1.919-3.897.96-7.036zm40.015-23.985s-7.075 6.716-4.637 16.27c2.479 9.274 9.035 14.431 16.59 15.71 0 0-12.192-4.117-14.87-15.19-2.68-10.834 2.917-16.79 2.917-16.79zm-94.703-7.995s.98 5.696.74 8.275c-.24 2.338.74 15.77 11.733 19.388 0 0-8.315-4.897-9.774-12.652-1.459-7.756-2.698-15.011-2.698-15.011z" fill="#fff" fill-rule="evenodd"/><path clip-path="url(#a)" d="M36.678 111.093s-27.683 40.915-6.796 90.365c20.867 49.19 72.816 59.544 72.816 59.544S51.488 247.55 33.04 198.36c-18.209-49.45 3.638-87.267 3.638-87.267z" fill="#fff" fill-rule="evenodd"/><path d="M65.36 94.303S29.462 131.84 39.896 181.77c9.454 44.773 49.21 59.244 49.21 59.244s-43.394-25.605-47.271-62.602c-5.817-55.127 23.525-84.11 23.525-84.11z" fill="#fff" fill-rule="evenodd"/><path clip-path="url(#a)" d="M190.005 22.027s42.934 1.319 72.276 39.895c39.016 51.57 23.746 94.023 23.746 94.023s9.474-49.45-26.424-90.625c-24.226-27.743-41.695-37.817-69.598-43.293z" fill="#f5e69d" fill-rule="evenodd"/><path d="M130.52 117.569s15.312 2.858 21.128 25.404c5.577 22.287-11.413 39.117-11.413 39.117s16.03-20.988 10.194-38.337c-7.995-23.586-19.908-26.184-19.908-26.184zm57.006 52.368s18.47 6.476 11.673 26.784c0 0 4.158-19.029-11.673-26.784zm48.931-35.818s17.03 8.834 7.795 28.462c0 0 4.877-18.348-7.795-28.462zm-95.942-64.121s10.394 9.594 2.418 23.825c0 0 6.297-11.393-2.418-23.825zm-13.832 68.278s7.516 1.82 1.959 13.112c0 0 3.378-9.754-1.959-13.112zm-23.086 12.633s5.657 7.755-.5 14.47c0 0 3.958-10.073.5-14.47z" fill="#f5e69d" fill-rule="evenodd"/><path d="M112.572 78.313s-2.659 16.75 12.832 24.465c0 0-17.19-4.617-12.832-24.465zm89.825 7.515s-5.356 15.95 10.954 24.945c0 0-19.029-4.877-10.954-24.945zm8.995 53.727s-9.195 17.63 6.276 30.542c0 0-18.629-9.554-6.276-30.542zm-47.991 35.659s-9.954 13.971 5.816 34.14c0 0-19.668-16.291-5.816-34.14zM74.535 148.59s-5.117 20.468 13.372 37.817c0 0-22.147-17.09-13.372-37.817zm-13.372 25.345c-2.199 4.457.26 8.394 2.438 12.312-2.438-.52-4.137-5.237-4.377-7.595 0-1.82.48-3.398 1.7-4.438zm107.455-34.14s-3.198 4.977 1.719 8.635c0 0-6.156-2.339-1.72-8.635zm-2.638-35.978s-2.959 3.938 1.718 8.635c0 0-6.156-3.398-1.719-8.635z" fill="#fff" fill-rule="evenodd"/><path d="M159.703 26.184c-22.366 16.59-38.397 16.85-55.666 60.104-4.377 11.153-3.658 23.066-4.138 35.238-.24 7.256 2.919 15.291 1.94 22.267-7.296-5.177-6.317-25.125-5.577-33.14 1.459-14.511 6.316-29.282 12.632-41.715 6.076-12.172 14.831-20.987 26.264-27.723 3.898-2.319 10.214-4.397 12.393-6.476 2.678-2.578 7.535-5.956 9.974-6.736z" fill="#fff" fill-rule="evenodd"/><path d="M136.917 40.815c0-2.638 2.019-4.797 4.477-4.797 2.479 0 4.478 2.159 4.478 4.797 0 2.659-2 4.797-4.478 4.797-2.458 0-4.477-2.138-4.477-4.797zm14.791-2.918c0-1.42 1.08-2.598 2.399-2.598 1.339 0 2.398 1.179 2.398 2.598 0 1.44-1.06 2.598-2.398 2.598-1.32 0-2.399-1.159-2.399-2.598zM35.938 187.326c0-2.538 1.9-4.597 4.238-4.597 2.358 0 4.237 2.059 4.237 4.597 0 2.539-1.879 4.598-4.237 4.598-2.339 0-4.238-2.06-4.238-4.598zm6.316 13.992c0-1.34 1.1-2.439 2.439-2.439 1.36 0 2.438 1.1 2.438 2.439a2.422 2.422 0 0 1-2.438 2.439 2.435 2.435 0 0 1-2.439-2.439z" fill="#fff" fill-rule="evenodd"/></svg>