<svg xmlns="http://www.w3.org/2000/svg" version="1.0" viewBox="0 0 220.12 215.546"><defs><clipPath clipPathUnits="userSpaceOnUse" id="a"><path d="M8.555 4.557h219.867v215.71H8.555z"/></clipPath></defs><path clip-path="url(#a)" d="M223.205 6.836c-.98-3.518-37.198-1.4-75.854 28.822-22.727 17.73-7.256 2.1-5.597-15.11 1.799-17.23-5.936-9.675-8.555-8.076-2.478 1.58-13.332 17.21-17.45 27.744C111.793 50.769 98.3 81.51 87.768 95.562c-10.694 14.052-17.77 31.62-41.475 47.771-23.846 16.17-43.774 47.271-34.38 53.947 9.375 6.836 13.812-8.255 19.749-15.11 5.756-6.676 14.81-18.11 16.61-18.63 1.819-.519 7.895-.519 16.13-8.074 8.395-7.556 13.172-10.194 17.45-6.676 4.277 3.518-1.64 11.073-4.778 15.11-2.958 4.038-9.534 13.512-10.533 17.57 0 0-5.597 3.158-7.396 5.617-1.819 2.458-13.831 10.193-17.949 11.073-4.117.88-12.832 5.437-8.875 14.93 4.098 9.295 13.492 6.317 22.707.52 9.374-5.976 30.121-24.425 39.336-35.138 9.034-10.894 36.857-32.14 48.21-36.538 11.354-4.217 47.072-16.69 60.224-28.803C215.97 101 229.301 90.465 226.982 83.97c-2.298-6.516-24.025 10.354-26.324 3.338-2.138-7.036 36.198-33.2 22.547-80.471z" fill="#b1d07a" fill-rule="evenodd"/><path d="M201.398 58.684c-5.097-4.737 8.235-22.486 10.214-27.223 4.937-12.832-4.438-21.267-15.97-15.99-9.715 4.577-13.013 15.29-19.769 23.006-4.117 4.397-9.534 8.075-14.81 10.533-5.437 2.479-11.374 3.178-15.97 7.216-2.8 2.458-4.618 7.016-7.916 8.255-4.617 1.759-8.555-1.42-13.012 1.579-10.534 7.016-9.055 20.907-14.152 31.081-3.797 7.735-11.533 15.81-17.13 21.787-2.798 3.158-16.81 15.11-16.47 18.089.32 5.097 9.555 4.557 12.673 5.097 5.777 1.06 7.915 2.099 10.374 7.555.84 1.92-.32 4.917 2.478 5.617 1.979.34 6.756-5.097 8.075-6.316 8.715-8.435 16.47-17.57 26.504-24.425 11.034-7.376 23.066-14.392 36.078-16.51 6.257-.88 20.248 0 19.089-9.475-14.491-2.118-11.693-17.23-1.979-22.846 6.436-3.678 12.033-5.097 12.353-14.231z" fill="#a7ca6f" fill-rule="evenodd"/><path clip-path="url(#a)" d="M41.195 198.24c-4.117.88-12.832 5.437-8.875 14.93 4.098 9.315 13.492 6.317 22.707.52 9.374-5.976 30.121-24.405 39.336-35.138 9.034-10.894 36.857-32.14 48.21-36.538 11.354-4.218 47.072-16.69 60.224-28.803 13.172-12.132 26.504-22.666 24.185-29.162-2.298-6.496-24.025 10.354-26.324 3.338-2.138-7.036 36.198-33.2 22.547-80.471-.98-3.518-37.198-1.4-75.854 28.822-22.727 17.73-7.256 2.1-5.597-15.11 1.799-17.23-5.936-9.675-8.555-8.096-2.478 1.6-13.332 17.23-17.45 27.764C111.793 50.849 98.3 81.59 87.768 95.642c-10.694 14.052-17.77 31.62-41.475 47.791-23.846 16.15-43.774 47.251-34.38 53.927 6.577 4.917 10.854-1.399 14.812-7.915 0 0-8.075 8.435-11.353 3.518-3.298-4.917 2.138-18.449 13.152-29.342 11.033-10.714 22.226-17.73 32.92-27.583 10.693-9.834 24.845-28.983 31.42-41.455 6.597-12.473 16.79-30.922 20.089-40.936 3.298-10.193 20.727-43.213 25.664-41.274 5.117 1.918-8.555 32.5-5.417 34.599 3.118 2.118 19.748-12.993 27.803-17.75 8.235-4.737 53.148-26.704 59.085-20.187 5.916 6.675 5.756 33.72-13.832 62.542-19.588 28.802-4.777 22.126 2.638 19.668 7.396-2.279 13.652-8.615 15.311-5.617 1.799 3.158-24.685 29.162-39.176 34.959-14.471 5.796-49.69 19.148-58.425 26.004-8.714 6.856-26.164 21.247-33.56 28.803-7.415 7.555-47.73 52.348-57.265 36.378-5.276-8.975 5.417-13.532 5.417-13.532z" fill="#d2de88" fill-rule="evenodd"/><path d="M66.54 181.37c1-4.017 7.575-13.472 10.553-17.49 3.118-4.037 9.055-11.552 4.777-15.07-4.297-3.498-9.074-.86-17.469 6.656C56.166 163 50.07 163 48.251 163.52c0 0 8.415-3.678 10.713-7.176 2.479-3.498 18.45-18.389 25.705-10.493 7.235 7.875-2.979 19.068-4.937 20.827-1.98 1.579-12.373 11.733-13.192 14.691z" fill="#d2de88" fill-rule="evenodd"/><path clip-path="url(#a)" d="M41.195 198.24c-4.117.88-12.832 5.437-8.875 14.93 4.098 9.315 13.492 6.317 22.707.52 9.374-5.976 30.121-24.405 39.336-35.138 9.034-10.894 36.857-32.14 48.21-36.538 11.354-4.218 47.072-16.69 60.224-28.803 13.172-12.132 26.504-22.666 24.185-29.162-2.298-6.496-24.025 10.354-26.324 3.338-2.138-7.036 36.198-33.2 22.547-80.471-.98-3.518-37.198-1.4-75.854 28.822-22.727 17.73-7.256 2.1-5.597-15.11 1.799-17.23-5.936-9.675-8.555-8.096-2.478 1.6-13.332 17.23-17.45 27.764C111.793 50.849 98.3 81.59 87.768 95.642c-10.694 14.052-17.77 31.62-41.475 47.791-23.846 16.15-43.774 47.251-34.38 53.927 6.577 4.917 10.854-1.399 14.812-7.915 0 0-8.075 8.435-11.353 3.518-3.298-4.917 2.138-18.449 13.152-29.342 11.033-10.714 22.226-17.73 32.92-27.583 10.693-9.834 24.845-28.983 31.42-41.455 6.597-12.473 16.79-30.922 20.089-40.936 3.298-10.193 20.727-43.213 25.664-41.274 5.117 1.918-8.555 32.5-5.417 34.599 3.118 2.118 19.748-12.993 27.803-17.75 8.235-4.737 53.148-26.704 59.085-20.187 5.916 6.675 5.756 33.72-13.832 62.542-19.588 28.802-4.777 22.126 2.638 19.668 7.396-2.279 13.652-8.615 15.311-5.617 1.799 3.158-24.685 29.162-39.176 34.959-14.471 5.796-49.69 19.148-58.425 26.004-8.714 6.856-26.164 21.247-33.56 28.803-7.415 7.555-47.73 52.348-57.265 36.378-5.276-8.975 5.417-13.532 5.417-13.532" fill="none" stroke="#343434" stroke-width=".64" stroke-miterlimit="8"/><path d="M66.22 182.09c.98-4.038 7.895-14.052 10.873-18.11 3.118-4.037 9.055-11.592 4.777-15.11-4.297-3.518-9.074-.88-17.469 6.676-8.235 7.555-14.331 7.555-16.15 8.095 0 0 8.415-3.698 10.713-7.216 2.479-3.518 18.45-18.469 25.705-10.553 7.235 7.915-2.979 19.168-4.937 20.927-1.98 1.579-12.693 12.133-13.512 15.29" fill="none" stroke="#343434" stroke-width=".64" stroke-linecap="round" stroke-miterlimit="8"/><path d="M149.07 34.699c-4.138 1.4-6.137 9.494-9.774 12.293-2.319 1.938-5.777 2.278-8.096 4.217-2.318 1.939-2.658 5.617.48 6.156 1.5.16 2.978-.54 4.477.16 1.48.7 1.66 2.818 3.139 3.518 2.478 1.4 5.636-1.579 7.775-.34 2.478 1.58.66 5.257-1.48 5.617-2.478.16-2.658-2.119-4.297-3.158-.999-.54-1.819-.36-2.818-1.06-.84-.7-1.16-1.759-1.819-2.458-1.659-1.58-3.318-1.24-5.457-1.42-5.476-.699-5.296-6.495-.66-8.594 3.958-1.939 7.596-3.158 10.754-6.856 2.479-3.158 4.458-6.136 7.776-8.435z" fill="#cfde8f" fill-rule="evenodd"/><path d="M149.07 34.699c-4.138 1.4-6.137 9.494-9.774 12.293-2.319 1.938-5.777 2.278-8.096 4.217-2.318 1.939-2.658 5.617.48 6.156 1.5.16 2.978-.54 4.477.16 1.48.7 1.66 2.818 3.139 3.518 2.478 1.4 5.636-1.579 7.775-.34 2.478 1.58.66 5.257-1.48 5.617-2.478.16-2.658-2.119-4.297-3.158-.999-.54-1.819-.36-2.818-1.06-.84-.7-1.16-1.759-1.819-2.458-1.659-1.58-3.318-1.24-5.457-1.42-5.476-.699-5.296-6.495-.66-8.594 3.958-1.939 7.596-3.158 10.754-6.856 2.479-3.158 4.458-6.136 7.776-8.435" fill="none" stroke="#343434" stroke-width=".32" stroke-miterlimit="8"/><path d="M201.838 82.47c-6.416 7.396-18.59 2.818-24.525 9.854-2.959 3.498-2.14 8.075-4.598 11.753-2.478 3.698-9.234 2.638-9.714 7.735-.18 1.94 1.48 4.737.98 6.496-.5 2.119-3.118 1.94-4.118 3.698-2.638 4.218 2.479 8.595 6.096 5.257 3.778-3.678.98-6.836 0-10.874-1.479-5.636 2.799-6.675 6.257-8.794 1.319-.88 3.298-1.76 4.117-3.518.82-1.58.5-3.338.98-4.917 1.159-3.858 4.117-5.797 7.575-6.836 5.097-1.579 15.31-2.458 16.95-9.314z" fill="#cfde8f" fill-rule="evenodd"/><path d="M202.397 82.15c-6.416 7.376-19.108 3.178-25.224 10.194-2.799 3.518-2.14 8.075-4.438 11.753-2.478 3.698-9.394 2.638-9.894 7.735-.16 1.92 1.48 4.737.98 6.496-.48 2.099-2.958 1.92-4.118 3.678-2.478 4.218 2.479 8.595 6.097 5.277 3.957-3.698 1.159-6.856 0-10.894-1.48-5.616 2.818-6.675 6.276-8.774 1.479-.88 3.298-1.76 4.117-3.518.82-1.58.5-3.338.98-4.917 1.159-3.858 4.137-5.777 7.595-6.836 5.277-1.579 13.512-2.458 16.97-8.075" fill="none" stroke="#343434" stroke-width=".32" stroke-miterlimit="8"/><path d="M163.9 122.126c-1.658 0-2.838 1.919-1.998 3.678 1.679.16 2.998-1.58 2.838-3.318-.34-.18-.5-.18-.84-.36zm-19.168-60.124c-3.018 1.08 2.499 3.438 2-.18-.66-.38-1.5-.38-2.16.18z" fill="#91b538" fill-rule="evenodd"/><path d="M192.563 46.092c0 8.075-12.012 14.551-23.386 14.551-11.353 0-17.789-6.476-17.789-14.55 0-8.076 10.394-15.272 21.747-15.272 11.373 0 19.428 7.196 19.428 15.271z" fill="#d5e089" fill-rule="evenodd"/><path d="M192.563 46.092c0 8.075-12.012 14.551-23.386 14.551-11.353 0-17.789-6.476-17.789-14.55 0-8.076 10.394-15.272 21.747-15.272 11.373 0 19.428 7.196 19.428 15.271" fill="none" stroke="#343434" stroke-width=".32" stroke-miterlimit="8"/><path d="M215.51 37.837c0 9.614-6.717 17.13-12.473 17.13-5.757 0-11.833-7.856-11.833-17.47 0-9.454 6.076-17.15 11.833-17.15 5.756 0 12.472 8.056 12.472 17.49z" fill="#d5e089" fill-rule="evenodd"/><path d="M215.51 37.837c0 9.614-6.717 17.13-12.473 17.13-5.757 0-11.833-7.856-11.833-17.47 0-9.454 6.076-17.15 11.833-17.15 5.756 0 12.472 8.056 12.472 17.49" fill="none" stroke="#343434" stroke-width=".32" stroke-miterlimit="8"/><path d="M203.037 69.518c0 7.875-6.736 15.75-14.131 15.75-7.416 0-14.492-6.116-14.492-13.991 0-7.716 6.916-15.43 14.312-15.43 7.415 0 14.31 5.956 14.31 13.67z" fill="#d5e089" fill-rule="evenodd"/><path d="M203.037 69.518c0 7.875-6.736 15.75-14.131 15.75-7.416 0-14.492-6.116-14.492-13.991 0-7.716 6.916-15.43 14.312-15.43 7.415 0 14.31 5.956 14.31 13.67" fill="none" stroke="#343434" stroke-width=".32" stroke-miterlimit="8"/><path d="M158.184 37.837c-1.16-.52-2.139.54-1.979 1.759-1.139-.16-2.618 2.119-1.799 2.998-1.818.52-1.818 4.398.16 4.737-.5.88-1.319 1.76-.98 2.819.32 1.059 1.32 1.759 2.3 1.579-.16.88 0 2.998.979 3.697.82.52 1.479-1.059 2.139-.36-.16.72-.5 1.42 0 2.12.5.879 1.639.519 2.298 0 .82 1.578 1.979 2.278 3.278.519 1 1.42 3.118 2.459 4.438.88.82.879 2.798 1.239 3.278-.16 1.159 1.579 2.638.86 3.457-.36 1.48.88 3.458.36 3.938-1.58.66.18 1.16.88 1.819.7.98-.18.82-1.759 1.48-2.118.159-.16.479.18.639.18.5 0 .84 0 1.319-.34.66-.54 1.16-1.06 1.479-1.76 1.32 1.22 2.798-.719 2.798-1.938.66 0 1.32-.88 1.48-1.58.16-.539.16-1.058.16-1.578 0-.18-.32-.36-.16-.54 0-.88 1.299-4.037-.66-4.037 0-.52-.16-1.06-.16-1.58-.18-.36-.34-.879-.66-1.239-.16-.34-.66-.34-1-.7-.319-.359-.159-.519-.319-1.059-.16-.879-.66-1.399-1.32-1.918-.319-.18-.659-.36-.819-.72-.48-.52-.32-1.04-.979-1.4-.66-.359-1.16 0-1.639-.179-.5-.34-1-1.06-1.48-1.4-.979-.359-1.818 0-2.797-.18-.5-.179-.98-.519-1.48-.699-1.139-.36-2.138-.54-3.118.18-.5.16-.16.34-.82.34-.319 0-.979-.52-1.318-.52-.48-.18-1.14-.18-1.8 0-.819 0-1.478.52-2.298.7-.98 0-1.979-.52-2.958-.18-.66.36-1.48.7-1.799 1.42-1-1.24-3.778 0-3.778 1.578-.66 0-2.298 1.06-1.819 1.92z" fill="#d2de88" fill-rule="evenodd"/><path d="M158.184 37.837c-1.16-.52-2.139.54-1.979 1.759-1.139-.16-2.618 2.119-1.799 2.998-1.818.52-1.818 4.398.16 4.737-.5.88-1.319 1.76-.98 2.819.32 1.059 1.32 1.759 2.3 1.579-.16.88 0 2.998.979 3.697.82.52 1.479-1.059 2.139-.36-.16.72-.5 1.42 0 2.12.5.879 1.639.519 2.298 0 .82 1.578 1.979 2.278 3.278.519 1 1.42 3.118 2.459 4.438.88.82.879 2.798 1.239 3.278-.16 1.159 1.579 2.638.86 3.457-.36 1.48.88 3.458.36 3.938-1.58.66.18 1.16.88 1.819.7.98-.18.82-1.759 1.48-2.118.159-.16.479.18.639.18.5 0 .84 0 1.319-.34.66-.54 1.16-1.06 1.479-1.76 1.32 1.22 2.798-.719 2.798-1.938.66 0 1.32-.88 1.48-1.58.16-.539.16-1.058.16-1.578 0-.18-.32-.36-.16-.54 0-.88 1.299-4.037-.66-4.037 0-.52-.16-1.06-.16-1.58-.18-.36-.34-.879-.66-1.239-.16-.34-.66-.34-1-.7-.319-.359-.159-.519-.319-1.059-.16-.879-.66-1.399-1.32-1.918-.319-.18-.659-.36-.819-.72-.48-.52-.32-1.04-.979-1.4-.66-.359-1.16 0-1.639-.179-.5-.34-1-1.06-1.48-1.4-.979-.359-1.818 0-2.797-.18-.5-.179-.98-.519-1.48-.699-1.139-.36-2.138-.54-3.118.18-.5.16-.16.34-.82.34-.319 0-.979-.52-1.318-.52-.48-.18-1.14-.18-1.8 0-.819 0-1.478.52-2.298.7-.98 0-1.979-.52-2.958-.18-.66.36-1.48.7-1.799 1.42-1-1.24-3.778 0-3.778 1.578-.66 0-2.298 1.06-1.819 1.92" fill="none" stroke="#343434" stroke-width=".32" stroke-miterlimit="8"/><path d="M158.184 37.837c-1.16-.52-2.139.54-1.979 1.759-1.139-.16-2.618 2.119-1.799 2.998-1.818.52-1.818 4.398.16 4.737-.5.88-1.319 1.76-.98 2.819.32 1.059 1.32 1.759 2.3 1.579-.16.88 0 2.998.979 3.697.82.52 1.479-1.059 2.139-.36-.16.72-.5 1.42 0 2.12.5.879 1.639.519 2.298 0 .82 1.578 1.979 2.278 3.278.519 1 1.42 3.118 2.459 4.438.88.82.879 2.798 1.239 3.278-.16 1.159 1.579 2.638.86 3.457-.36 1.48.88 3.458.36 3.938-1.58.66.18 1.16.88 1.819.7.98-.18.82-1.759 1.48-2.118.159-.16.479.18.639.18.5 0 .84 0 1.319-.34.66-.54 1.16-1.06 1.479-1.76 1.32 1.22 2.798-.719 2.798-1.938.66 0 1.32-.88 1.48-1.58.16-.539.16-1.058.16-1.578 0-.18-.32-.36-.16-.54 0-.88 1.299-4.037-.66-4.037 0-.52-.16-1.06-.16-1.58-.18-.36-.34-.879-.66-1.239-.16-.34-.66-.34-1-.7-.319-.359-.159-.519-.319-1.059-.16-.879-.66-1.399-1.32-1.918-.319-.18-.659-.36-.819-.72-.48-.52-.32-1.04-.979-1.4-.66-.359-1.16 0-1.639-.179-.5-.34-1-1.06-1.48-1.4-.979-.359-1.818 0-2.797-.18-.5-.179-.98-.519-1.48-.699-1.139-.36-2.138-.54-3.118.18-.5.16-.16.34-.82.34-.319 0-.979-.52-1.318-.52-.48-.18-1.14-.18-1.8 0-.819 0-1.478.52-2.298.7-.98 0-1.979-.52-2.958-.18-.66.36-1.48.7-1.799 1.42-1-1.24-3.778 0-3.778 1.578-.66 0-2.298 1.06-1.819 1.92" fill="none" stroke="#343434" stroke-width=".32" stroke-miterlimit="8"/><path d="M184.428 59.424c-1.799 0-4.097 1.04-4.097 3.318-1.64.36-4.438 2.638-3.118 4.737-.66.36-1.32.7-1.82 1.4-.499 1.059-.32 2.818.98 2.818.18.879-.64 1.399-.32 2.458.16 1.04 1.16 1.58 2.139 1.58-.16 1.738 1.16 4.716 3.118 3.857 0 2.438 2.479 4.557 4.597 2.798.34.52.84 1.06 1.48 1.4 1.658.519 2.478-.34 3.797-.88.48.7 1.64.36 2.299-.16.82-.72.82-2.119 1.479-2.639.32-.18.66 0 .98-.18.499-.34.819-1.219.979-1.918.34-.7 1.659-2.639 1-3.518 1.478-.18 3.277-1.919 2.957-3.678 0-.52-.34-.7-.34-1.24 0-.16.5-.699.5-1.039.16-.54.32-1.239.16-1.758-.16-.52-.48-1.06-.98-1.4-.16-.18-.659-.18-.659-.52-.32-.36.16-1.239.16-1.758-.16-1.4-.98-1.76-2.299-1.76-.32 0-.82.18-1.139-.18-.5-.339-.84-1.038-1.48-1.398-.839-.34-1.658-.18-2.478-.34-.82-.18-1.479-1.06-2.138-1.42-.82-.519-1.8-.879-2.799-.699-.32 0-.82.18-1.139.18-.66 0-.82-.18-1.479.18-.82.34-.66.7-.66 1.4z" fill="#d2de88" fill-rule="evenodd"/><path d="M184.428 59.424c-1.799 0-4.097 1.04-4.097 3.318-1.64.36-4.438 2.638-3.118 4.737-.66.36-1.32.7-1.82 1.4-.499 1.059-.32 2.818.98 2.818.18.879-.64 1.399-.32 2.458.16 1.04 1.16 1.58 2.139 1.58-.16 1.738 1.16 4.716 3.118 3.857 0 2.438 2.479 4.557 4.597 2.798.34.52.84 1.06 1.48 1.4 1.658.519 2.478-.34 3.797-.88.48.7 1.64.36 2.299-.16.82-.72.82-2.119 1.479-2.639.32-.18.66 0 .98-.18.499-.34.819-1.219.979-1.918.34-.7 1.659-2.639 1-3.518 1.478-.18 3.277-1.919 2.957-3.678 0-.52-.34-.7-.34-1.24 0-.16.5-.699.5-1.039.16-.54.32-1.239.16-1.758-.16-.52-.48-1.06-.98-1.4-.16-.18-.659-.18-.659-.52-.32-.36.16-1.239.16-1.758-.16-1.4-.98-1.76-2.299-1.76-.32 0-.82.18-1.139-.18-.5-.339-.84-1.038-1.48-1.398-.839-.34-1.658-.18-2.478-.34-.82-.18-1.479-1.06-2.138-1.42-.82-.519-1.8-.879-2.799-.699-.32 0-.82.18-1.139.18-.66 0-.82-.18-1.479.18-.82.34-.66.7-.66 1.4" fill="none" stroke="#343434" stroke-width=".32" stroke-miterlimit="8"/><path d="M184.428 59.424c-1.799 0-4.097 1.04-4.097 3.318-1.64.36-4.438 2.638-3.118 4.737-.66.36-1.32.7-1.82 1.4-.499 1.059-.32 2.818.98 2.818.18.879-.64 1.399-.32 2.458.16 1.04 1.16 1.58 2.139 1.58-.16 1.738 1.16 4.716 3.118 3.857 0 2.438 2.479 4.557 4.597 2.798.34.52.84 1.06 1.48 1.4 1.658.519 2.478-.34 3.797-.88.48.7 1.64.36 2.299-.16.82-.72.82-2.119 1.479-2.639.32-.18.66 0 .98-.18.499-.34.819-1.219.979-1.918.34-.7 1.659-2.639 1-3.518 1.478-.18 3.277-1.919 2.957-3.678 0-.52-.34-.7-.34-1.24 0-.16.5-.699.5-1.039.16-.54.32-1.239.16-1.758-.16-.52-.48-1.06-.98-1.4-.16-.18-.659-.18-.659-.52-.32-.36.16-1.239.16-1.758-.16-1.4-.98-1.76-2.299-1.76-.32 0-.82.18-1.139-.18-.5-.339-.84-1.038-1.48-1.398-.839-.34-1.658-.18-2.478-.34-.82-.18-1.479-1.06-2.138-1.42-.82-.519-1.8-.879-2.799-.699-.32 0-.82.18-1.139.18-.66 0-.82-.18-1.479.18-.82.34-.66.7-.66 1.4" fill="none" stroke="#343434" stroke-width=".32" stroke-miterlimit="8"/><path d="M200.758 23.126c-1.819-.7-3.937 1.06-3.937 2.998-1.8.34-2.459 2.798-1.8 4.557-.819.18-1.478 1.76-1.638 2.639-.16 1.06.16 1.919 1.14 2.278-.32 1.06-.98 1.4-1.14 2.459-.16.7-.32 2.099.66 2.279-1.16 1.399-.66 4.397 1.459 4.397-.64 1.399 0 4.197 1.978 4.037 0 .88-.16 1.4.32 1.92.82 1.059 1.48.539 2.299.36.48.699.98 1.578 1.799 1.758.979.16 1.958-.36 2.298-1.24.64.54 1.3 1.24 2.119.7.82-.34.66-2.098 1.3-2.458.659-.34 1.158.36 1.818-.52.82-1.06.98-2.638.98-3.858 1.958 0 2.618-2.818 1.798-4.397 1.46-.52 1.46-4.217.16-4.917.66-.52 1.3-1.579 1.14-2.458-.32-1.04-1.14-.52-1.46-1.22-.18-.18.16-.88.16-1.059.16-.7.16-1.22-.5-1.759-.479-.52-1.458-.16-1.798-.88-.48-.859.34-2.278-.16-3.317-.66-1.06-1.799-.18-2.459-.88-.66-.7.32-1.419-.979-1.759-.66-.18-1.639-.18-2.119.18-.34-.36-2.458-2.299-2.458-.7-.5 0-.82.34-1.16.7z" fill="#d2de88" fill-rule="evenodd"/><path d="M200.758 23.126c-1.819-.7-3.937 1.06-3.937 2.998-1.8.34-2.459 2.798-1.8 4.557-.819.18-1.478 1.76-1.638 2.639-.16 1.06.16 1.919 1.14 2.278-.32 1.06-.98 1.4-1.14 2.459-.16.7-.32 2.099.66 2.279-1.16 1.399-.66 4.397 1.459 4.397-.64 1.399 0 4.197 1.978 4.037 0 .88-.16 1.4.32 1.92.82 1.059 1.48.539 2.299.36.48.699.98 1.578 1.799 1.758.979.16 1.958-.36 2.298-1.24.64.54 1.3 1.24 2.119.7.82-.34.66-2.098 1.3-2.458.659-.34 1.158.36 1.818-.52.82-1.06.98-2.638.98-3.858 1.958 0 2.618-2.818 1.798-4.397 1.46-.52 1.46-4.217.16-4.917.66-.52 1.3-1.579 1.14-2.458-.32-1.04-1.14-.52-1.46-1.22-.18-.18.16-.88.16-1.059.16-.7.16-1.22-.5-1.759-.479-.52-1.458-.16-1.798-.88-.48-.859.34-2.278-.16-3.317-.66-1.06-1.799-.18-2.459-.88-.66-.7.32-1.419-.979-1.759-.66-.18-1.639-.18-2.119.18-.34-.36-2.458-2.299-2.458-.7-.5 0-.82.34-1.16.7" fill="none" stroke="#343434" stroke-width=".32" stroke-miterlimit="8"/><path d="M200.758 23.126c-1.819-.7-3.937 1.06-3.937 2.998-1.8.34-2.459 2.798-1.8 4.557-.819.18-1.478 1.76-1.638 2.639-.16 1.06.16 1.919 1.14 2.278-.32 1.06-.98 1.4-1.14 2.459-.16.7-.32 2.099.66 2.279-1.16 1.399-.66 4.397 1.459 4.397-.64 1.399 0 4.197 1.978 4.037 0 .88-.16 1.4.32 1.92.82 1.059 1.48.539 2.299.36.48.699.98 1.578 1.799 1.758.979.16 1.958-.36 2.298-1.24.64.54 1.3 1.24 2.119.7.82-.34.66-2.098 1.3-2.458.659-.34 1.158.36 1.818-.52.82-1.06.98-2.638.98-3.858 1.958 0 2.618-2.818 1.798-4.397 1.46-.52 1.46-4.217.16-4.917.66-.52 1.3-1.579 1.14-2.458-.32-1.04-1.14-.52-1.46-1.22-.18-.18.16-.88.16-1.059.16-.7.16-1.22-.5-1.759-.479-.52-1.458-.16-1.798-.88-.48-.859.34-2.278-.16-3.317-.66-1.06-1.799-.18-2.459-.88-.66-.7.32-1.419-.979-1.759-.66-.18-1.639-.18-2.119.18-.34-.36-2.458-2.299-2.458-.7-.5 0-.82.34-1.16.7" fill="none" stroke="#343434" stroke-width=".32" stroke-miterlimit="8"/><path d="M48.37 163.48s-16.33 16.87-21.446 25.306c0 0-8.255 5.616-6.436-6.157 1.818-11.773 16.99-23.725 21.606-25.484 4.798-1.76 10.394.54 6.277 6.336zm-7.095 34.7s15.75-8.095 17.73-10.554c1.798-2.638 6.735-7.055 9.034-4.937 2.118 2.119 5.237 9.854-6.736 19.528-11.993 9.854-21.847 9.854-23.326 4.758-1.48-5.277 3.298-8.795 3.298-8.795z" fill="#cbdb8c" fill-rule="evenodd"/><path d="M48.37 163.48s-16.33 16.87-21.446 25.306c0 0-8.255 5.616-6.436-6.157 1.818-11.773 16.99-23.725 21.606-25.484 4.798-1.76 10.394.54 6.277 6.336m-7.096 34.699s15.75-8.095 17.73-10.554c1.798-2.638 6.735-7.055 9.034-4.937 2.118 2.119 5.237 9.854-6.736 19.528-11.993 9.854-21.847 9.854-23.326 4.758-1.48-5.277 3.298-8.795 3.298-8.795" fill="none" stroke="#343434" stroke-width=".64" stroke-miterlimit="8"/><path d="M37.457 165.42c0-.8.6-1.48 1.32-1.48.74 0 1.319.68 1.319 1.48 0 .82-.58 1.479-1.32 1.479-.72 0-1.319-.66-1.319-1.48zm5.677-4.078c0-.86.64-1.559 1.399-1.559.78 0 1.4.7 1.4 1.56 0 .879-.62 1.558-1.4 1.558-.76 0-1.4-.68-1.4-1.559zM32.98 173.015c0-.76.6-1.399 1.32-1.399.739 0 1.318.64 1.318 1.4 0 .779-.58 1.398-1.319 1.398-.72 0-1.319-.62-1.319-1.399zm-5.677 1.239c0-.84.64-1.519 1.4-1.519.78 0 1.399.68 1.399 1.52 0 .839-.62 1.518-1.4 1.518-.759 0-1.399-.68-1.399-1.519zm0 7.956c0-.64.5-1.16 1.08-1.16.6 0 1.08.52 1.08 1.16 0 .66-.48 1.159-1.08 1.159-.58 0-1.08-.5-1.08-1.16zm-4.477 2.518c0-.92.7-1.679 1.56-1.679.879 0 1.558.76 1.558 1.679 0 .94-.68 1.679-1.559 1.679-.86 0-1.559-.74-1.559-1.679zm20.468 17.909c0-.78.6-1.439 1.319-1.439.74 0 1.32.66 1.32 1.44 0 .799-.58 1.438-1.32 1.438-.72 0-1.32-.64-1.32-1.439zm5.356 2.679c0-.86.7-1.56 1.56-1.56.879 0 1.559.7 1.559 1.56 0 .879-.68 1.559-1.56 1.559-.859 0-1.558-.68-1.558-1.56zm2.639-4.518c0-.88.68-1.599 1.479-1.599.82 0 1.48.72 1.48 1.6 0 .899-.66 1.598-1.48 1.598-.8 0-1.48-.7-1.48-1.599zm5.676-8.075c0-.74.56-1.359 1.24-1.359.7 0 1.239.62 1.239 1.36 0 .759-.54 1.358-1.24 1.358-.679 0-1.239-.6-1.239-1.359zm2.479 4.677c0-.8.64-1.479 1.4-1.479.779 0 1.398.68 1.398 1.48 0 .819-.62 1.478-1.399 1.478-.76 0-1.399-.66-1.399-1.479zm-3.678 4.797c0-.54.34-.999.76-.999s.76.46.76 1c0 .56-.34.999-.76.999s-.76-.44-.76-1zm6.716-13.871c0-1.06.82-1.919 1.799-1.919 1 0 1.799.86 1.799 1.919 0 1.06-.8 1.919-1.799 1.919-.98 0-1.799-.86-1.799-1.92zm2.798 4.517c0-.5.42-.92.92-.92.52 0 .92.42.92.92 0 .52-.4.92-.92.92-.5 0-.92-.4-.92-.92zM32.5 167.978c0-.42.34-.76.72-.76.4 0 .72.34.72.76s-.32.76-.72.76c-.38 0-.72-.34-.72-.76z" fill="#f2c153" fill-rule="evenodd"/><path d="M46.652 156.905c1.339 0 2.338-.52 3.178-1.56.82-1.218.16-2.977 1.16-3.857.339-.34 1.158-.16 1.658-.52.68-.18 1.18-.7 1.5-1.399.679-1.579.839-2.438 2.498-2.978m-7.496 11.113h-.18c.5 1.2 2.139-.18 2.639-.7.98-1.039.66-2.957 2.298-3.137 1.14-.18 1.96.36 2.939-.7.5-.68.82-.68 1.639-1.22m-38.377 33.98c0 2.119-2.079.72-3.038 1.58-.48.539-.16 1.059-.48 1.578-.32.52-.96.18-1.28.52m5.677-.4c-.16.36 0 .88-.34 1.24-.34.34-1.019.16-1.519.52-.68.699.68 1.918-.86 2.078m21.188 15.99c.16 1.24-.82 1.06-1.32 1.76-.339.539 0 1.758-.839 1.758m4.318-2.478h-.16c.64.88-.16 1.219-.48 2.098-.32.52.16 1.56-.32 1.9m27.823-30.862c.5-.16.82 0 1.32-.16.66-.18 1.479-.7 1.959-1.24.819-1.039 0-2.618 1.319-3.497 1.299-.7 2.618.36 3.098-1.739.34-.88.5-1.06 1.16-1.759.479-.52 1.458-1.04 1.618-1.759m-8.874 14.551c2.978 0 4.617-2.078 5.936-4.857.82-1.399 1.16-2.438 2.958-2.438.82-.18 2.139-.36 2.299-1.58" fill="none" stroke="#343434" stroke-width=".64" stroke-linecap="round" stroke-linejoin="round" stroke-miterlimit="10"/><path d="M158.764 73.775c-3.958-5.456-19.748-3.697-23.846.36-3.957 3.858-10.194 12.473-12.992 14.591-2.798 1.94-4.617 3.338-5.936 8.615-1.14 5.277-.82 14.95-6.736 16.53-5.917 1.579-6.916 5.277-9.375 9.334-2.458 3.858-13.651 19.868-16.29 21.627 0 0 1.5.7 2.479 2.799 0 0 11.353-11.254 15.79-13.172 4.278-2.12 16.93-3.698 22.527-7.396 5.596-3.518 8.055-10.194 12.672-11.953 4.757-1.579 38.796-17.41 21.707-41.335zm-20.408 34.82c-4.597 0-4.097-3.339-2.778-5.977 1.299-2.639 5.576-.7 13.312-5.617 7.735-4.937 6.576-12.312 4.597-15.31-1.799-2.979-13.632-.7-16.61.7-3.118 1.418-6.576 9.333-5.916 13.55.66 4.398-3.778 6.337-5.917 2.28-2.138-3.858 5.597-14.412 10.534-19.169 4.917-4.577 17.09-4.037 18.908-1.579 13.972 18.11-11.513 31.121-16.13 31.121z" fill="#d2de88" fill-rule="evenodd"/><path d="M158.764 73.775c-3.958-5.456-19.748-3.697-23.846.36-3.957 3.858-10.194 12.473-12.992 14.591-2.798 1.94-4.617 3.338-5.936 8.615-1.14 5.277-.82 14.95-6.736 16.53-5.917 1.579-6.916 5.277-9.375 9.334-2.458 3.858-13.651 19.868-16.29 21.627 0 0 1.5.7 2.479 2.799 0 0 11.353-11.254 15.79-13.172 4.278-2.12 16.93-3.698 22.527-7.396 5.596-3.518 8.055-10.194 12.672-11.953 4.757-1.579 38.796-17.41 21.707-41.335zm-20.408 34.82c-4.597 0-4.097-3.339-2.778-5.977 1.299-2.639 5.576-.7 13.312-5.617 7.735-4.937 6.576-12.312 4.597-15.31-1.799-2.979-13.632-.7-16.61.7-3.118 1.418-6.576 9.333-5.916 13.55.66 4.398-3.778 6.337-5.917 2.28-2.138-3.858 5.597-14.412 10.534-19.169 4.917-4.577 17.09-4.037 18.908-1.579 13.972 18.11-11.513 31.121-16.13 31.121z" fill="none" stroke="#343434" stroke-width=".48" stroke-miterlimit="8"/><path d="M147.01 84.809c-3.437-2.979-15.93 3.677-9.673 7.855 5.077 3.318 15.25-4.717 9.674-8.195zm9.935-11.973c-4.757-.36-3.598 7.475.66 7.315 4.257-.18 3.617-7.135-.66-7.135z" fill="#91b538" fill-rule="evenodd"/><path d="M130.321 71.417c-.5-5.277-7.915-7.196-14.351-5.277-5.457 1.579-13.192 8.775-14.192 16.31-1 7.715 1.82 12.452-3.298 13.692-5.117 1.219-9.234 7.535-7.915 14.91 1.32 7.356 2.299 11.394-1.499 12.273-3.798.88-2.638 5.597.66 3.858 3.298-1.759 5.456-5.437 3.957-13.692-1.319-8.055-.82-8.754 3.798-10.174 4.457-1.219 7.755-1.918 8.755-8.235.979-6.496.32-6.835 6.596-7.015 6.436-.18 19.148.88 17.489-16.65zm-22.926 14.011c-.84-1.04 1.479-3.318 4.117-2.798 2.799.52 11.394-2.638 8.575-7.895-2.638-5.437-9.234 1.239-10.893 2.278-1.64 1.06-7.416 7.016-.16-3.158s16.99-3.857 17.83-2.098c7.575 16.31-18.65 14.73-19.47 13.671z" fill="#d2de88" fill-rule="evenodd"/><path d="M130.321 71.417c-.5-5.277-7.915-7.196-14.351-5.277-5.457 1.579-13.192 8.775-14.192 16.31-1 7.715 1.82 12.452-3.298 13.692-5.117 1.219-9.234 7.535-7.915 14.91 1.32 7.356 2.299 11.394-1.499 12.273-3.798.88-2.638 5.597.66 3.858 3.298-1.759 5.456-5.437 3.957-13.692-1.319-8.055-.82-8.754 3.798-10.174 4.457-1.219 7.755-1.918 8.755-8.235.979-6.496.32-6.835 6.596-7.015 6.436-.18 19.148.88 17.489-16.65zm-22.926 14.011c-.84-1.04 1.479-3.318 4.117-2.798 2.799.52 11.394-2.638 8.575-7.895-2.638-5.437-9.234 1.239-10.893 2.278-1.64 1.06-7.416 7.016-.16-3.158s16.99-3.857 17.83-2.098c7.575 16.31-18.65 14.73-19.47 13.671z" fill="none" stroke="#343434" stroke-width=".48" stroke-miterlimit="8"/><path d="M116.97 75.174c-1.48-.54-8.036.9-4.918 3.059 1.48.88 7.196-.9 5.077-3.059zm12.591-5.556c-1.818-2.499-3.997 2.139-2.318 4.097 1.999 2.119 4.317-2.138 2.658-3.917z" fill="#91b538" fill-rule="evenodd"/><path d="M158.724 108.774c-.16 2.279-.66 2.459-3.438 3.518-2.798 1.04-6.736 5.617-8.875 8.755-2.138 3.158-6.256 2.118-11.513 2.638s-4.777 8.055-10.194 11.213c-5.256 3.158-12.492-1.579-18.908.18-6.396 1.919-11.013 11.573-6.736 17.71 8.555 12.432 18.909-1.4 21.547-5.257 2.618-3.678 4.597-7.376 8.535-7.376 3.957 0 6.416-3.158 7.555-6.476 1-3.338 2.139-4.557 6.756-3.858 4.437.52 4.917-5.956 7.216-10.174 2.478-4.017 4.117-4.017 6.576-5.436 2.298-1.58 1.479-5.437 1.479-5.437zm-46.352 44.193c-5.577 3.138-8.875-.18-11.173-2.638-2.799-2.978 1-11.053 5.256-12.453 4.438-1.219 12.833-.879 9.375 1.76-3.278 2.638-9.035.18-9.375 5.616-.16 3.858 3.298 7.176 7.736 3.678 4.277-3.518 2.798-5.617 5.097-5.437 2.138.18-1.32 6.316-6.916 9.474z" fill="#d2de88" fill-rule="evenodd"/><path d="M158.724 108.774c-.16 2.279-.66 2.459-3.438 3.518-2.798 1.04-6.736 5.617-8.875 8.755-2.138 3.158-6.256 2.118-11.513 2.638s-4.777 8.055-10.194 11.213c-5.256 3.158-12.492-1.579-18.908.18-6.396 1.919-11.013 11.573-6.736 17.71 8.555 12.432 18.909-1.4 21.547-5.257 2.618-3.678 4.597-7.376 8.535-7.376 3.957 0 6.416-3.158 7.555-6.476 1-3.338 2.139-4.557 6.756-3.858 4.437.52 4.917-5.956 7.216-10.174 2.478-4.017 4.117-4.017 6.576-5.436 2.298-1.58 1.479-5.437 1.479-5.437zm-46.352 44.193c-5.577 3.138-8.875-.18-11.173-2.638-2.799-2.978 1-11.053 5.256-12.453 4.438-1.219 12.833-.879 9.375 1.76-3.278 2.638-9.035.18-9.375 5.616-.16 3.858 3.298 7.176 7.736 3.678 4.277-3.518 2.798-5.617 5.097-5.437 2.138.18-1.32 6.316-6.916 9.474z" fill="none" stroke="#343434" stroke-width=".48" stroke-miterlimit="8"/><path d="M112.812 142.294c-3.258-.18-5.397 7.815-.48 5.876 1.459-.54 2.758-2.498 2.598-4.097 0-.88-.64-1.96-2.278-1.78zm-12.632 6.716c-.82-2.099-4.758 2.778-1.48 4.497 2.938 1.559 4.238-3.978 1.48-4.857z" fill="#91b538" fill-rule="evenodd"/><path d="M147.01 84.809c-3.437-2.979-15.93 3.677-9.673 7.855 5.077 3.318 15.25-4.717 9.674-8.195m9.934-11.633c-4.757-.36-3.598 7.475.66 7.315 4.257-.18 3.617-7.135-.66-7.315m-39.975 2.338c-1.48-.54-8.036.9-4.918 3.059 1.48.88 7.196-.9 5.077-3.059m12.772-5.376c1.66 1.779-.66 6.036-2.658 3.917-1.68-1.958.5-6.596 2.318-4.097l.34.18zm-17.089 72.496c-3.258-.18-5.397 7.815-.48 5.876 1.459-.54 2.758-2.498 2.598-4.097 0-.88-.64-1.78-2.118-1.78m-12.632 6.717c-.82-2.099-4.758 2.778-1.48 4.497 2.938 1.559 4.238-3.978 1.48-4.857" fill="none" stroke="#343434" stroke-width=".48" stroke-miterlimit="8"/><path d="M163.381 37.137c0 .88-.5 3.518-1.999 2.3 1.999.699 1.999 2.098 2.319 4.017-.16-.86-.32-1.92-.48-2.799-.18-.7-.18-.7-.18-1.219.18-.54.66-1.06.34-1.579zm-5.357 12.673c1.66-1.22 4.118.36 3.138 2.658.16-1.06 1.32-1.599 2.139-1.239.82.52 1.14 1.759 1.48 2.458.159-1.219.659-2.098 1.638-2.818 1.32-1.06 1.979-.52 3.278-.34-1.14-.72-4.757-.72-4.917 1.06-.18.16-.18.16-.34.34.34-.7 1-1.4 1-2.459 0-1.42-.34-1.759-1.32-2.658.82 1.239 1.64 2.838.16 4.417-.66-.52-1.798-1.06-2.298 0-.16-.7-.66-1.42-1.32-1.759-.659-.36-2.138.18-2.298 0zm14.831 5.317c-.84-1.4 1.18-4.678 2.998-3.478 0-1.04.34-3.638 2-3.278-1.16.16-3.319.86-2.32 2.598-.999 0-1.998.34-2.498 1.2-.52.699-.84 2.958.16 3.117zm1.959-19.649c1.66.18 2.978 2.839.34 3.199 1.639 1.579-.66 4.757-1.82 3.178 1 .7-.159 2.298-1.158 2.118.66.52 1.819-.88 1.978-1.599.34.36 1.98 1.06 2.799 1.06 1.659.18 2.478-.88 3.458-1.94-1.3 1.06-3.778 2.66-5.417 1.06 1.14-.88 2.458-2.478.82-3.538 1.319.18 2.798-.7 3.297-2.118-.34 1.059-1.818 1.239-2.638 1.419 1.639-1.6-.18-2.839-1.659-3.018zm13.912 8.875c-1.32.18-2.339 2.459-1.16 3.318-.84-.7-1.679.36-1.839 1.06-.16 1.039.34 1.559 1 2.078-.66-.52-1.34-1.04-1.5-1.919-.18-.7.34-2.078 1.34-1.918-.5-1.56.66-2.799 1.839-2.439zm-5.017-6.496c-2.02.54.34 4.218 1.359 2.119-1.18 1.04-.18 3.318 1.499 2.458-.84.52-3.018.34-2.519-1.419-1.838.36-1.838-1.919-.999-2.978zm-14.152-2.878c0 1.639-.34 2.358-2.019 2.358 1.02 2.519 3.518-1.439 2.02-1.978zm-11.293 7.235c-1.16 1.04-1.839 2.1 0 3.478-.16-1.04-1.16-3.298.32-3.837zm12.153 3.099c.84 1.259 1.679 1.259.84 3.018.499-.7 1.318-1.06.839-2.299-.34-.9-.84-.9-1.68-.54zm-2.859 8.694c.34 1.4 1.52 3.118 3.019 1.92-1.5 1.198-3.178.159-3.358-1.74zm33.62-28.542c.82 1.978-.82 2.518-2.478 2.518h.34c.979 1.779-.34 2.678-1.84 2.838.68 0 4.318-.7 2.499-2.498 2.139 1.08 1.48-1.42 1.32-2.679zm-5.816 13.292c.68-.9 1.519-.9 2.338 0 1.18 1.059.84 2.298.5 3.537.5-2.298 2.678-.54 2.498 1.4-.32-3.179 2.499-4.238 4.498-4.238-1.32-.88-2.499.36-3.818.54 0 .34-.34.7-.5 1.06-.34-1.42-1.839-.9-2.178-.18.18-2.12-1-2.12-2.499-2.84zm6.656 11.093c.18-.9.979-1.959 1.639-2.139 1.299-.52 1.639.36 2.118 1.24-.32-.88-.64-1.4-.16-2.48.82-1.398 2.279-1.758 3.258-.519-1.619-1.06-3.737-1.779-3.917 1.24-1.3-.54-3.918 2.298-2.599 2.818zm7.255-18.629c0-.7-1.12 0-1.28.52-.639 1.399.96 2.778 2.08 2.438-1.28-.18-.96 4.158 1.119 3.818-1.28-.52-3.038-1.919-1.919-3.478-2.398.88-2.878-3.638-.32-4.177zm-6.076.08c1.999 1.619.34 5.357-1.999 3.938 1.18-.18 2.838.72 3.658-.72.66-1.06-.16-3.038-1.32-3.218zm5.836 8.595c-1.379-.88-1.998 1.579-.76 2.438-.459-.34-1.238-1.039-1.238-1.559 0-1.06 1.079-2.118 1.858-1.579zm-23.625 21.227c1.319 1.26.16 3.938-1.5 3.578 0-.18-.16-.54-.16-.54 1.16 2.499-1.498 4.457-3.337 2.499 1 1.958 2.178 3.198 0 5.176 2.338.16 1.679-2.138 1.499-3.757-.16 0-.16 0 0 0 1.839 1.779 5.816-.7 6.976-2.319-.48.18-.98.36-1.16.9-1.499.54-2.978 1.419-4.657 1.599.84-.18 2.838-1.78 1.679-2.839 1.659.16 1.32-2.858 1-3.937-.18 0 0 .18 0 .36zm-2.858 16.07c0-1.06.839-1.939 1.838-1.939 1.18 0 1.34.88 1.52 2.299-.68-1.24.659-2.838 1.838-2.838 1.66 0 2.499 2.658 2.499 4.237 0-1.759.16-3.698-1.34-4.417-1.159-.7-2.178 0-2.838 1.06-.66-2.48-4.857-.52-3.837 1.059zm12.812-12.633c-1.28-1.758-4.158 2.98-.16 3.679-1.6-1.06-3.038 4.717.8 4.197-2.56 0-4.638-.34-3.199-3.678h.32c-.8-.52-1.12-1.739-.96-2.798.32-1.04 2.4-2.438 2.4-1.4zm-3.198 11.314c0 3.238 4.877.72 2.938-1.08.16 1.08.98 2.699-.16 3.419-1.3.72-2.778-.54-2.778-1.98z" fill="#95bc45" fill-rule="evenodd"/><path d="M160.763 41.495c-1.84-.36-2.339 3.957-.5 3.618 0 0 1.999-1.04 2.159-1.2.32-.86-1.16-2.078-1.84-1.898zm5.257 4.237c1.439.9.16 2.159.799 3.058.64.9 2.558-.899 2.878-1.619.48-1.079-.48-1.978-1.28-2.338-.799-.18-3.997 0-2.558 1.26zm14.37 2.778c-.979.7-1.778 0-2.598 1.04-.82 1.06-.66 1.939-.5 2.978-4.237-1.22-3.078 6.116.66 2.619.82-.86.48-.86 1.46-1.22.819-.34 1.318 0 1.958-1.04.32-.699 0-5.436-1.459-4.037zm-3.657-15.29c-.82-.88-1.819-.52-2.159.7 1.16-.18 2.479 1.379 3.798.699 1.32-.7 0-1.22-.98-1.579zm-4.517 3.498c2.198-1.42 2.518 2.498 1.019 2.658.84.54 1.18 1.42.5 2.319-.5.88-.84.18-1.68.52-.34.18-.499.36-.839.54-.34.179-.16.699-1 .699-.519 0-1.518-.7-1.678-1.24-.52-.7-.52-1.579.5-2.118h-.5c0-1.42 2.518-2.659 3.678-3.198zm11.133 7.095c-1 .18-3.498-.52-2.499 2.08.18.499 1 .339 1.18.859.16.34-.5 1.199 0 1.719.5.5 8.135-4.478 1.319-4.318zm17.869-12.932c1.659-.54 1.979 1.76 1.5 2.978-.68 0-2-.18-2.68 0-.479.18-.319-.18-.819.36-.16.34.16 1.4-.34 1.74-1.159.699-1.998-1.4-1.818-2.28.16-1.918 2.658-2.798 4.317-2.278zm3.938-5.117c-1.3-.36-2.12 2.319-.48 3.039.48.36 3.078 1.059 3.398.72.64-1.08-1.62-5.018-2.758-4.118zm-.32 14.991c-2.319-1.06-3.978 1.9-3.158 3.978-.82-.16-2.819-1.38-3.478-.52-.84 1.04.66 3.638 1.999 3.298 1-.34 1.319-1.559 2.318-2.079.84-.34 1.82-.18 2.499-.859.66-.7.98-1.919.82-2.778-.16-1.22-.66-.88-1.66-1.4zm2.758 5.417c-.8-.88-2.079 1.939-.48 2.479.64.16 1.6-.54 1.6-1.24 0-.88-.96-1.239-1.6-1.399zm-3.398 2.498c-.5.52-2.518.88-1.499 1.92.82.699 1.82-.52 2.818-.52 0-.7-.32-1.4-.66-1.58zM182.89 61.043c1.019.18 1.678 1.06 1.518 2.119-.68.18-1.179.36-1.859.18.5.88.84 1.938-.16 2.458-.68.52-1.699.52-2.038-.36-.34-.88.52-1.759.86-2.638.16-.52.659-2.638 1.518-1.58zm-4.258 7.296c.66-.18 1.779 1.039 1.299 1.918-.48.7-1.62.18-2.439.34-.48 0-1.619.52-1.619-.16-.18-.88 2.1-1.219 2.599-1.399zM197.7 64.8c-1 .18-4.177.54-2.498 2.12.84.859 1.179-.18 1 .859-.16.7-1 .88-1.16 1.579-.18 1.06.32 1.4 1.339 1.579.5.18 1-.36 1.5-.18.319 0 .499.52.998.52 2.16 0 1.34-2.799 1.16-4.198-.66 0-1.5 0-1.84-.52-.499-.34 0-1.758-1.158-1.219zm-8.315 3.619c-.84 1.239-2.998.36-2.998 2.458-.82 0-2.159-.36-2.818.18-.5.34-.84 1.22 0 1.579.66.34 2.658-.54 3.658-.36.999.18 1.818.88 2.818 1.06.18.18 1.839.34 1.839.34 1.479-1.04-.68-2.44-1-3.159-.34-.86.5-1.919 0-2.798-.34-.88-1.159-1.24-1.659-.36zm-6.655 10.573c.18-2.278 1.838-2.978 2.977-.7.34-1.918 2.16-2.458 3.159-1.039.66 1.22.979 2.798-.34 3.318-1.48.7-2.319-1.22-3.478 0-.48.52-.16 1.74-1.32 1.74-.999-.16-.999-2.1-.999-2.96zm5.616-18.948c-.32-.18-.5 2.218.16 2.738.64.5 2.598.16 3.238-.34 2.258-1.899-1.14-1.899-1.78-2.758zm-26.284-24.865c0 .54.84 2.998-.68 2.838-1.18-.18-1.519-3.198.34-2.838zm2.358 3.757c.16.52.64 1.06.78 1.58.16.699-.3 1.758-.14 2.278.46 1.22 2.179.18 2.339-.88.14-.699-.48-2.458-.94-2.978-.48-.7-2.039-1.239-2.039.34z" fill="#bbd269" fill-rule="evenodd"/><path d="M136.937 100.3c2.598.16 5.037-.52 7.336-1.74 1.139-.7 2.438-1.219 3.417-1.919.98-.7 1.96-1.579 2.759-2.258.82-1.06 1.319-1.74 1.959-2.958.5-1.06.82-2.279.979-3.498.16-1.04.32-2.259-.16-3.118-.16-.7-.66-1.4-1.14-1.92-.319-.359-.979-.699-1.458-1.059.64.54.8 1.92.96 2.799.179 1.219 0 2.598-.32 3.817-.48 1.06-.98 2.279-1.62 3.138-.98 1.58-2.278 2.439-3.757 3.478-1.14.7-2.12 1.4-3.258 1.76-.98.34-1.8 1.039-2.939 1.378-.8.18-1.299.7-2.118 1.22-.16.18-.8 1.04-.98.88zm-6.497 19.667s-5.915 9.535-23.185 11.993c0 0 20.228-7.755 23.186-11.993zm-46.211 24.865c.68 0 1.839 1.06 1.999 1.76.34-.88 1.339-1.76 1.999-2.48.68-.719 1.179-1.598 1.998-2.318-.32.54-1 .72-1.319 1.08-.68.52-1.34 1.059-1.999 1.598-.34.36-1.839 1.24-2.178.36zm76.514-66.04c-.16 1.58-1.84 2.439-3.358 1.92.34 1.398 1.519 2.617 1.858 3.997.5 1.918.5 3.837.66 5.916.18-2.259.34-4.337.18-6.596 0-1.579.34-2.798.5-4.357zm-5.997-6.416c-1.799-.36-1.799 1.64-2.298 2.898-1.16-.36-2.479-.9-3.798-.9-1.64 0-3.278.9-4.777.72.34-.899 1.659-1.079 2.318-1.439.98-.56 1.82-.92 2.799-1.279.98-.36 3.138-1.1 4.117-.54zm-48.95 21.047s.82 8.635-9.894 9.675c0 0 8.914-2.28 9.574-9.675zm-18.329 31.501c-.5.52-.16 1.42.34 1.78.66.699 1.16.359 1.999 0 1.499-.9 1.818-2.5 2.818-3.938-.82 1.259-2.159 2.498-3.318 3.218-.5.18-2.679.18-1.839-.72zm40.975-50.049c.8 0 .8-.36 1.28-.72.16 1.06.16 2.119 0 3.178 0 .52-.32 2.639-.8 2.978.16-1.219.48-2.098.32-3.338 0-.52-.16-1.938-.8-2.098zm-19.188 7.755c1.16-.7 2.298-.86 3.618-.86 1.299-.18 2.118-.36 3.098-.72.98-.339 2.618-1.038 3.278-1.918.48-1.06.16-2.638-.16-3.698 0 1.06 0 1.94-.66 2.819-.98.879-1.959 1.759-3.118 2.458-.48.34-.98.7-1.619.88-.66.34-1.32 0-1.979.18-.64.16-.82.34-1.459.34h-.82z" fill="#9fc54d" fill-rule="evenodd"/><path d="m122.206 89.666-.16.18c-.82.36-4.577 2.298-4.737 6.336 0 4.557-2.139 18.269-8.695 19.488 0 0 6.076 2.458 7.715-5.257 1.46-7.735 2.619-12.472 2.619-14.231-.18-1.58 1.459-5.637 3.258-6.516zm-36.458 53.967s12.373-15.67 15.83-21.507c0 0-8.075 15.17-15.83 21.507zm55.167-59.803s-7.036 2.618-5.897 6.955c0 0-3.618-4.158 5.897-6.956zm6.955-12.573s-10.054-1.42-15.99 7.215c0 0 5.777-7.215 15.99-7.215zm-37.177 5.536v.18c0 .7.32 2.459 2.398 2.12 0 0-3.517 1.218-2.398-2.3zm-8.555 16.87s-.16 2.639-3.618 3.338c-3.458.88-7.235 4.398-7.575 11.773 0 0 .84-7.375 4.937-9.474 4.117-1.939 6.736-2.818 6.256-5.637zm-14.071 31.441c.18-1.08 2.538-1.439 3.198-2.178-.5.56-1 1.099-1.5 1.639-.34.36-1.019 1.079-1.518.72zm19.988 10.134h-.16c-.66.18-7.816.72-9.994 10.154 0 0 3.498-8.915 10.154-10.154zm2.158 6.716s-4.477.18-2.818 5.437c0 0-.66-4.198 2.818-5.437zm29.342-17.629s-5.556-.52-7.035 1.739c-1.32 2.078-4.438 8.335-6.077 9.014 0 0 3.938-3.118 5.577-6.236 1.48-2.938 1.979-4.158 7.535-4.517zm17.83-12.193s-5.037 1.42-8.155 6.156c0 0 4.417-4.737 8.155-6.156z" fill="#d6e08d" fill-rule="evenodd"/><path d="M138.036 129.641s-1.479 1.4-1.659 2.799c-.16 1.219-2.658 6.796-6.816 6.956 0 0 2.839-.86 4.158-3.298 1.5-2.619 2.838-5.757 4.317-6.457zm13.832-12.711s-2.479 3.177-3.818 7.734c-1.319 4.738-4.657 4.398-4.657 4.398s2.838-.7 3.838-3.518c1-2.638 2.978-7.376 4.637-8.615zm-50.929 37.556s5.437 4.897 10.533 1.4c4.937-3.318 6.417-5.777 6.417-5.777s-5.917 5.777-8.555 5.956c-2.459.18-3.278.52-8.395-1.579z" fill="#9fc54d" fill-rule="evenodd"/><path d="M223.984 18.169s-30.381-7.016-62.762 27.523c0 0 23.666-34.359 62.762-27.523zm-65.8 28.922c0-.76.62-1.399 1.36-1.399.759 0 1.358.64 1.358 1.4 0 .779-.6 1.399-1.359 1.399-.74 0-1.359-.62-1.359-1.4zm-3.438 4.398c0-.9.74-1.64 1.64-1.64.919 0 1.638.74 1.638 1.64 0 .92-.72 1.639-1.639 1.639-.9 0-1.639-.72-1.639-1.64zm41.095 36.738c0-.88.68-1.6 1.52-1.6.839 0 1.518.72 1.518 1.6 0 .899-.68 1.599-1.519 1.599-.84 0-1.519-.7-1.519-1.6zm-.319 3.557c0-.64.5-1.159 1.079-1.159.6 0 1.08.52 1.08 1.16 0 .659-.48 1.159-1.08 1.159-.58 0-1.08-.5-1.08-1.16z" fill="#fff" fill-rule="evenodd"/><path d="M221.985 18.349c0-.74.58-1.36 1.28-1.36.72 0 1.279.62 1.279 1.36 0 .76-.56 1.36-1.28 1.36-.699 0-1.279-.6-1.279-1.36zM82.23 145.912c0-1.38 1.06-2.519 2.359-2.519 1.319 0 2.358 1.14 2.358 2.519 0 1.399-1.04 2.518-2.358 2.518-1.3 0-2.359-1.12-2.359-2.518zm3.678 5.276c0-.5.42-.92.92-.92.52 0 .919.42.919.92 0 .52-.4.92-.92.92-.5 0-.92-.4-.92-.92zm-7.675-7.435c0-.64.52-1.16 1.119-1.16.62 0 1.12.52 1.12 1.16 0 .66-.5 1.16-1.12 1.16-.6 0-1.12-.5-1.12-1.16zm-64.761 44.333c0-.84.6-1.52 1.319-1.52.74 0 1.32.68 1.32 1.52s-.58 1.52-1.32 1.52c-.72 0-1.32-.68-1.32-1.52zm.639 4.757c0-.58.46-1.08 1-1.08.56 0 1 .5 1 1.08 0 .6-.44 1.08-1 1.08-.54 0-1-.48-1-1.08zm19.829 15.191c0-.64.52-1.16 1.159-1.16.66 0 1.159.52 1.159 1.16 0 .66-.5 1.16-1.16 1.16-.639 0-1.159-.5-1.159-1.16zm1.359 6.276c0-1.06.84-1.919 1.838-1.919 1.02 0 1.84.86 1.84 1.92 0 1.058-.82 1.918-1.84 1.918-.999 0-1.838-.86-1.838-1.919zm40.935-86.667s-15.73 11.393-47.571 49.25c0 0 25.604-39.956 47.57-49.25zM52.808 199.2s35.299-24.406 46.292-40.936c0 0-27.244 36.198-46.292 40.935zm88.267-182.19s-8.475-2.279-16.63 17.809c0 0 7.355-20.788 16.63-17.81zm77.533 68.098s2.298 6.876-16.61 21.847c.5.7 20.867-14.79 16.61-21.847z" fill="#fff" fill-rule="evenodd"/></svg>