<svg xmlns="http://www.w3.org/2000/svg" version="1.0" viewBox="0 0 223.03 248.806"><defs><clipPath clipPathUnits="userSpaceOnUse" id="a"><path d="M0 0h222.745v248.97H0z"/></clipPath></defs><path d="M155.346 139.875s1.519 10.654 11.513 13.712c9.974 2.898 22.986 11.013 21.807 29.222 0 0 1.179-14.79-11.493-17.31-12.693-2.698-26.724-6.855-28.263-17.489l6.436-8.135zm-85.328 12.792s3.877 15.691-12.313 17.87c-16.19 1.978-26.144 2.878-32.88 16.05-6.756 13.172-10.794 19.108-15.19 17.49 0 0 11.132 2.878 16.709-10.274 5.557-13.172 11.453-15.331 26.984-14.432 15.51.9 27.303-11.912 27.303-11.912l-10.613-14.792z" fill="#f3abac" fill-rule="evenodd"/><path d="M155.026 139.715s1.52 10.654 11.513 13.532c9.974 3.078 22.986 11.193 21.807 29.402 0 0 1.18-14.97-11.493-17.49-12.692-2.518-26.564-6.675-28.263-17.309l6.436-8.135z" fill="none" stroke="#343434" stroke-width=".64" stroke-miterlimit="8"/><path d="M69.678 152.987s4.057 15.69-12.293 17.69c-16.19 2.158-26.144 3.058-32.9 16.23-6.736 13.172-10.613 19.108-15.01 17.31 0 0 11.133 3.057 16.71-10.095 5.556-13.172 11.452-15.33 26.983-14.43 15.33.719 27.303-11.914 27.303-11.914l-10.793-14.79z" fill="none" stroke="#343434" stroke-width=".64" stroke-linecap="round" stroke-linejoin="round" stroke-miterlimit="10"/><path d="M102.998 94.703s5.216-14.931 1.179-26.284c-3.878-11.513-3.558-29.702 2.858-36.358 6.236-6.856 18.21-17.83 18.21-28.823 0 0 3.197 14.411-11.474 31.341s7.096 31.68 1.52 49.87l-12.293 10.254zM44.173 66.72s1.18 22.086 19.049 22.086 24.105 2.519 27.303 13.092l5.217-7.175s-3.538-16.51-19.028-15.61c-15.511.719-27.804 3.237-32.54-12.393z" fill="#f3abac" fill-rule="evenodd"/><path d="M102.998 94.703s5.216-14.931 1.179-26.284c-3.878-11.513-3.558-29.702 2.858-36.358 6.236-6.856 18.21-17.83 18.21-28.823 0 0 3.197 14.411-11.474 31.341s7.096 31.68 1.52 49.87l-12.293 10.254zM44.173 66.72s1.18 22.086 19.049 22.086 24.105 2.519 27.303 13.092l5.217-7.175s-3.538-16.51-19.028-15.61c-15.511.719-27.804 3.237-32.54-12.393" fill="none" stroke="#343434" stroke-width=".64" stroke-miterlimit="8"/><path d="M158.224 94.583c14.991 20.367 6.056 54.966-20.068 77.293-25.944 22.346-59.324 23.965-74.335 3.618-15.01-20.188-6.076-54.787 20.068-77.134 26.124-22.326 59.324-23.965 74.335-3.777z" fill="#f3abac" fill-rule="evenodd"/><path d="M149.35 101.598c19.068 11.354 9.794 46.472-13.672 66.64-23.626 20.168-53.688 21.607-67.18 3.238-13.691-18.189-4.897-43.394 18.57-63.382 23.625-20.187 43.373-17.649 62.281-6.496z" fill="#f09696" fill-rule="evenodd"/><path d="M148.81 115.57c9.774 15.65 7.755 31.5-12.633 46.072-20.227 14.571-54.786 17.81-64.56 2.159-9.774-15.65-10.974-24.845 9.434-39.596 20.228-14.571 57.985-24.306 67.759-8.635z" fill="#eb7d7d" fill-rule="evenodd"/><path d="M158.224 94.583c14.991 20.367 6.056 54.966-20.068 77.293-25.944 22.346-59.324 23.965-74.335 3.618-15.01-20.188-6.076-54.787 20.068-77.134 26.124-22.326 59.324-23.965 74.335-3.777" fill="none" stroke="#343434" stroke-width=".64" stroke-miterlimit="8"/><path d="M124.844 129.382c4.717 10.613-2.538 24.445-15.89 31.28-13.532 6.637-28.063 3.598-32.62-6.835-4.577-10.614 2.538-24.445 15.89-31.281 13.512-6.656 28.043-3.598 32.62 6.836z" fill="#e16464" fill-rule="evenodd"/><path d="M121.326 126.363c4.558 10.614-2.698 24.486-16.03 31.321-13.332 6.656-28.023 3.598-32.58-6.835-4.557-10.614 2.538-24.486 16.05-31.321 13.332-6.676 27.843-3.598 32.56 6.835z" fill="#c94847" fill-rule="evenodd"/><path d="M72.836 148.67s-3.058-16.73 15.37-27.523c18.41-10.614 30.562 2.158 30.562 2.158s-15.87-9.714-29.902-.36c-19.428 13.133-16.03 25.725-16.03 25.725z" fill="#ea6969" fill-rule="evenodd"/><path d="M78.952 156.705s7.096 6.996 21.407 2.339c14.152-4.478 20.388-16.33 20.888-21.008 0 0-5.037 9.874-21.228 15.63-16.33 5.558-21.067 3.039-21.067 3.039z" fill="#af3535" fill-rule="evenodd"/><path d="M83.91 158.844s6.435 4.857 19.287-1.08c13.033-5.956 17.09-16.77 17.09-16.77s-3.878 9.555-17.25 15.331c-13.371 5.937-19.128 2.519-19.128 2.519z" fill="#9b2f2f" fill-rule="evenodd"/><path d="M121.566 126.563c4.558 10.654-2.538 24.565-16.05 31.421-13.352 6.676-28.063 3.618-32.62-6.856-4.577-10.473 2.538-24.565 16.05-31.42 13.352-6.696 28.063-3.618 32.62 6.855" fill="none" stroke="#343434" stroke-width=".32" stroke-miterlimit="8"/><path d="M108.774 85.348s-18.209 4.338-36.278 26.504c-17.89 22.147-15.87 45.752-10.454 58.005 0 0-18.748-51.888 46.732-84.509z" fill="#f3f8fa" fill-rule="evenodd"/><path d="M95.742 187.926s20.767 2.878 46.592-21.587c25.824-24.645 23.286-53.607 20.767-60.283 0 0 10.114 64.6-67.359 81.87z" fill="#eb7d7d" fill-rule="evenodd"/><path d="M108.294 89.026s-35.278 44.093-8.435 89.626c0 0-32.26-46.612 8.435-89.626z" fill="#fff" fill-rule="evenodd"/><path d="M96.302 116.93c.16.539 0 1.078-.34 1.258-.5.18-1 0-1.16-.36-.34-.54-.16-1.079.34-1.259.32-.36.82-.18 1.16.36zm-7.196 2.638c.16.36 0 .919-.34 1.099-.34.18-.66 0-1-.36-.18-.38 0-.92.34-1.1.32-.2.84 0 1 .36zm19.828-30.782c.16.52 0 1.22-.5 1.58-.66.339-1.319.18-1.639-.52-.34-.54 0-1.4.5-1.58.48-.36 1.32-.18 1.639.52z" fill="#fff" fill-rule="evenodd"/><path d="M104.557 138.676c-3.039 2.319-6.736 2.139-8.255-.36-1.52-2.338-.34-6.096 2.858-8.435 3.038-2.158 6.736-2.158 8.255.36 1.679 2.519.34 6.276-2.858 8.435z" fill="#aa3a39" fill-rule="evenodd"/><path d="M139.036 105.176c-5.397-.54-6.596-1.979-6.596-1.979s7.935-20.007 21.447-20.007c13.492 0 27.843 0 36.118-11.334 8.435-11.533 23.446-23.445 30.701-18.748 0 0-16.69-1.26-23.106 18.748-6.416 19.808-48.45 10.974-51.988 32.24 0 0-1.18 1.8-6.576 1.08zm-18.669 59.404c-1.879-4.517-7.276-5.436-7.276-5.436s-12.312 14.43-6.396 35.338c6.077 20.748-1.559 21.627-10.313 26.304-8.635 4.517-15.071 15.151-11.513 24.865 0 0-4.238-14.391 16.39-22.866 26.863-10.993 2.718-41.455 18.948-49.21 0 0 1.839-4.677.16-8.995z" fill="#f3abac" fill-rule="evenodd"/><path d="M115.41 178.172c1.02-1.779 2.539-3.398 4.717-4.477m-13.392-2.239c-1.839 5.956-2.678 13.872-.16 23.066 6.077 20.708-1.519 21.627-10.273 26.304-8.595 4.477-14.991 15.111-11.433 24.825 0 0-4.238-14.391 16.31-22.866 22.386-9.154 9.434-31.7 13.831-43.574m-6.236-13.031c-.5 1.099-.84 2.198-1.36 3.277m5.677-10.313s-1.738 2.198-3.677 5.676" fill="none" stroke="#343434" stroke-width=".64" stroke-linecap="round" stroke-miterlimit="8"/><path d="M88.107 115.99c2.358-5.217.84-6.656.84-6.656s-20.928-17.83-42.015 6.296c-21.108 24.105-29.043 39.396-44.414 32.2 0 0 12.333 11.873 32.92-7.195 20.608-19.069 32.081-37.777 47.272-18.709 0 0 3.038-.72 5.397-5.936z" fill="#f3abac" fill-rule="evenodd"/><path clip-path="url(#a)" d="M132.6 103.317s7.935-19.988 21.447-19.988c13.491 0 27.843 0 36.118-11.333 8.275-11.533 23.466-23.425 30.541-18.728 0 0-16.71-1.26-22.946 18.728-6.416 19.808-48.45 10.974-52.148 32.22m-56.666 5.118s-20.927-17.83-42.014 6.296c-21.108 24.105-29.043 39.396-44.414 32.2 0 0 12.333 11.873 32.92-7.195 20.608-19.069 32.081-37.777 47.272-18.709" fill="none" stroke="#343434" stroke-width=".64" stroke-linecap="round" stroke-miterlimit="8"/><path d="M86.627 117.369c0-.54.42-1 .92-1 .52 0 .92.46.92 1 0 .56-.4 1-.92 1-.5 0-.92-.44-.92-1zm1.28-1.759c0-.32.24-.6.52-.6.3 0 .52.28.52.6 0 .34-.22.6-.52.6-.28 0-.52-.26-.52-.6zm50.369-10.554c0-.46.34-.84.72-.84.4 0 .72.38.72.84 0 .48-.32.84-.72.84-.38 0-.72-.36-.72-.84zm1.999.48c0-.28.22-.52.48-.52.28 0 .48.24.48.52 0 .3-.2.52-.48.52-.26 0-.48-.22-.48-.52z" fill="#fff" fill-rule="evenodd"/><path d="M139.076 88.067c.84.52 3.498 2.638 4.337 2.298 1.16-.72-1-2.478-1.16-3.198-.339-1.419.32-1.06 1.32-.7.5.18 3.498 1.42 3.498 1.24" fill="none" stroke="#f3abac" stroke-width=".64" stroke-miterlimit="8"/><path d="M152.468 96.262c-.82-.16-1.98-1.42-2.319-2.319" fill="none" stroke="#f3abac" stroke-width="1.359" stroke-miterlimit="8"/><path d="M152.907 92.544c.84.54 1.34 1.439 2 2.159" fill="none" stroke="#f3abac" stroke-width=".64" stroke-miterlimit="8"/><path d="M154.946 91.784c.16.54.64 1.42.96 1.76" fill="none" stroke="#f3abac" stroke-width="1.359" stroke-miterlimit="8"/><path d="M80.99 106.815c-.359 0 0 0 .16-.18.34-.74 1.02-1.279 1.54-1.839.34-.54 2.219-2.738 3.058-2.178 1.36.72-1.519 4.557-2.039 5.277" fill="none" stroke="#f3abac" stroke-width=".64" stroke-miterlimit="8"/><path d="M75.794 114.09c-.66 1.1-1.32 2.76-2.159 3.839" fill="none" stroke="#f3abac" stroke-width="1.359" stroke-miterlimit="8"/><path d="M118.608 163.181c0-.36.26-.68.56-.68.32 0 .56.32.56.68 0 .38-.24.68-.56.68-.3 0-.56-.3-.56-.68zm1.519 1.479c0-.26.16-.48.32-.48.18 0 .32.22.32.48 0 .28-.14.48-.32.48-.16 0-.32-.2-.32-.48zM47.451 74.395s2.878 6.836 18.37 6.476c15.35-.36 16.849-2.878 23.925 4.137 0 0-3.698-3.597-8.415-3.597-4.717 0-30.002 3.777-33.88-7.016zm34.459 32.28s-15.31-8.774-30.141 5.537c0 0 13.312-11.073 30.141-5.537zm32.54-80.891s-10.513 7.576-11.193 16.95c0 0 3.238-9.734 11.194-16.95zm25.425 67.719s7.076-10.793 17.83-8.994c0 0-11.254.9-17.83 8.994zm60.364-31.74s-7.316 7.055-10.154 12.472c0 0 9.174-11.733 10.154-12.472zM43.454 174.334s-11.254.2-18.15 12.473c0 0 6.237-9.934 18.15-12.473zm62.662 7.836s-1.18 2.378 2.178 15.99c0 0-2.678-13.072-2.178-15.99zm-4.697 37.257s-10.074 2.558-14.792 12.552c0 0 6.397-9.794 14.792-12.552zm61.003-67.079s2.018 1.259 4.217 1.978c2.179.72 12.412 3.418 17.45 12.013 0 0-7.216-7.515-16.11-10.214-3.878-1.259-5.557-3.777-5.557-3.777z" fill="#fff" fill-rule="evenodd"/></svg>