<svg xmlns="http://www.w3.org/2000/svg" version="1.0" viewBox="0 0 324.019 435.893"><defs><clipPath clipPathUnits="userSpaceOnUse" id="a"><path d="M6.316 29.502H329.96v436.216H6.316z"/></clipPath></defs><path clip-path="url(#a)" d="M309.093 37.058c-48.411-32.94-94.383 70.917-114.97 93.183-23.946 25.665-65.121 31.7-90.506 61.243-39.216 45.732-31.94 91.944-44.773 112.292-20.107 31.94-54.726 42.854-51.089 74.075 3.638 30.981 39.217 36.538 77.473 24.665 38.457-11.873 47.651-22.027 74.035-16.47 26.624 5.357 102.378 97.78 134.32 74.795 31.94-22.747-1.68-61.963-.96-93.184 1.918-68.478 26.624-85.908 20.107-128.762-4.357-29.982-2.198-67.519 8.195-105.016 10.434-37.537 13.792-79.392-11.832-96.821z" fill="#dbe6b9" fill-rule="evenodd"/><path d="M97.94 212.711c-9.673 15.95-30.021 77.433-18.148 106.735 11.872 29.263 34.619 43.054 60.283 49.37 25.665 6.277 71.197 34.58 101.459 18.39 30.021-16.47 67.519-90.546 58.324-134.32-8.954-43.813-28.303-96.101-89.306-101.418-61.282-5.596-105.096 49.37-112.611 61.243z" fill="#a9bc83" fill-rule="evenodd"/><path d="M180.37 169.537c-26.863 3.358-62.961 43.094-73.115 71.397-9.914 28.343-15.51 72.156 20.108 106.735 35.578 34.86 107.695 31.98 135.278-11.833 27.383-43.813 30.981-104.096 8.235-129.76-22.986-25.425-47.691-41.895-90.505-36.539z" fill="#95a572" fill-rule="evenodd"/><path d="M108.854 296.82c3.878 16.23 27.583 45.572 44.293 54.527 20.348 10.873 52.328 10.154 73.396 1.2 12.112-5.078 23.266-14.032 32.94-22.507 11.873-10.434 14.071-27.383 16.71-41.935 1.719-9.434 8.235-32.46-1.44-39.696-11.632-8.754-20.107 17.43-23.505 24.226-8.715 17.909-21.067 38.976-45.533 36.538-23.226-2.399-42.134-28.303-60.283-41.655-23.986-17.91-49.69 5.117-36.578 29.302z" fill="#879363" fill-rule="evenodd"/><path d="M184.928 190.804c-7.236 5.837-12.592 53.528 23.945 63.722 36.538 9.914 47.891-3.638 43.814-26.144-3.878-20.868-38.977-60.844-67.76-37.578z" fill="#e3eab3" fill-rule="evenodd"/><path d="M224.824 288.585c-3.878 11.113 7.755 34.3 21.067 23.666 13.312-10.394 28.063-24.625 25.185-32.86-3.158-8.235-7.516-8.235-17.43-4.598-9.674 3.878-22.986-2.158-28.822 13.792zm-105.336-34.099c-6.317-8.755 3.877-21.827 19.108-27.384 15.47-5.596 26.104-4.837 28.543 2.639 2.158 7.275-1.68 10.673-8.715 14.071-6.756 3.398-13.792 6.276-17.43 11.393-3.837 5.077-15.71 7.236-21.506-.72zm28.822 33.42c-7.995-1-9.714 10.393-15.27 12.592-5.597 2.398-14.352 27.103 6.076 30.981 20.627 4.118 33.22-40.176 9.194-43.573z" fill="#d7241b" fill-rule="evenodd"/><path clip-path="url(#a)" d="M309.133 37.098c-48.411-32.94-94.383 70.917-114.97 93.183-23.946 25.664-65.121 31.7-90.506 61.243-39.216 45.732-31.94 91.944-44.773 112.292-20.108 31.94-54.727 42.854-51.089 74.075 3.638 30.981 39.217 36.538 77.473 24.665 38.457-11.873 47.651-22.027 74.035-16.47 26.624 5.357 102.378 97.78 134.32 74.795 31.94-22.747-1.68-61.963-.96-93.184 1.918-68.478 26.623-85.908 20.107-128.762-4.357-29.982-2.198-67.519 8.195-105.016 10.434-37.537 13.792-79.392-11.832-96.821" fill="none" stroke="#343434" stroke-width="1.039" stroke-miterlimit="8"/><path d="M97.98 212.751c-9.674 15.95-30.021 77.433-18.148 106.735 11.872 29.263 34.619 43.054 60.283 49.37 25.665 6.277 71.197 34.58 101.459 18.39 30.021-16.47 67.519-90.546 58.324-134.32-8.954-43.813-28.303-96.101-89.306-101.418-61.282-5.596-105.096 49.37-112.611 61.243" fill="none" stroke="#fff" stroke-width="1.039" stroke-miterlimit="8"/><path d="M180.41 169.577c-26.863 3.358-62.961 43.094-73.115 71.397-9.914 28.343-15.51 72.156 20.108 106.735 35.578 34.86 107.695 31.98 135.278-11.833 27.383-43.813 30.981-104.096 8.235-129.76-22.986-25.426-47.691-41.896-90.505-36.539" fill="none" stroke="#343434" stroke-width="1.039" stroke-miterlimit="8"/><path d="M184.928 190.804c-7.236 5.837-12.592 53.528 23.945 63.722 36.538 9.914 47.891-3.638 43.814-26.144-3.878-20.868-38.977-60.844-67.76-37.578" fill="none" stroke="#343434" stroke-width=".64" stroke-miterlimit="8"/><path d="M224.824 288.585c-3.878 11.113 7.755 34.3 21.067 23.666 13.312-10.394 28.063-24.625 25.185-32.86-3.158-8.235-7.516-8.235-17.43-4.598-9.674 3.878-22.986-2.158-28.822 13.792m-105.336-34.099c-6.317-8.755 3.877-21.827 19.108-27.384 15.47-5.596 26.104-4.837 28.543 2.639 2.158 7.275-1.68 10.673-8.715 14.071-6.756 3.398-13.792 6.276-17.43 11.393-3.837 5.077-15.71 7.236-21.506-.72m28.822 33.421c-7.995-1-9.714 10.393-15.27 12.592-5.597 2.398-14.352 27.103 6.076 30.981 20.627 4.118 33.22-40.176 9.194-43.573" fill="none" stroke="#343434" stroke-width=".48" stroke-miterlimit="8"/><path d="M136.517 272.595c0-2.279 1.84-4.158 4.078-4.158 2.278 0 4.077 1.88 4.077 4.158 0 2.318-1.799 4.157-4.077 4.157-2.239 0-4.078-1.839-4.078-4.157zm-21.187 2.358c0-1.639 1.36-2.998 2.998-2.998a2.994 2.994 0 0 1 2.998 2.998 2.97 2.97 0 0 1-2.998 2.999 2.994 2.994 0 0 1-2.998-2.999zm12.872 7.436c0-1.52 1.28-2.758 2.839-2.758 1.599 0 2.838 1.239 2.838 2.758 0 1.559-1.24 2.758-2.838 2.758-1.56 0-2.839-1.2-2.839-2.758zm-8.475 11.833a2.935 2.935 0 0 1 2.919-2.919 2.909 2.909 0 0 1 2.918 2.919 2.884 2.884 0 0 1-2.918 2.918 2.909 2.909 0 0 1-2.919-2.918zm50.93 25.184c0-1.918 1.639-3.477 3.597-3.477 2 0 3.598 1.559 3.598 3.477 0 1.96-1.599 3.478-3.598 3.478-1.958 0-3.597-1.519-3.597-3.478zm11.513-10.873c0-1.52 1.279-2.758 2.838-2.758 1.599 0 2.838 1.239 2.838 2.758 0 1.56-1.24 2.758-2.838 2.758-1.56 0-2.838-1.199-2.838-2.758zm9.354 12.392c0-1.559 1.24-2.838 2.718-2.838 1.52 0 2.719 1.28 2.719 2.839 0 1.599-1.2 2.838-2.719 2.838-1.479 0-2.718-1.24-2.718-2.839zm-19.188 21.827c0-2.398 1.958-4.357 4.317-4.357 2.398 0 4.317 1.959 4.317 4.357 0 2.439-1.919 4.358-4.317 4.358-2.359 0-4.317-1.92-4.317-4.358zm17.669-77.232c0-1.84 1.559-3.399 3.398-3.399 1.879 0 3.398 1.56 3.398 3.398a3.395 3.395 0 0 1-3.398 3.398c-1.84 0-3.398-1.52-3.398-3.398zm1.519 15.07c0-1.999 1.559-3.678 3.478-3.678 1.959 0 3.478 1.68 3.478 3.678 0 2.039-1.52 3.678-3.478 3.678-1.919 0-3.478-1.64-3.478-3.678zm13.112-2.798a4.01 4.01 0 0 1 3.998-3.998 3.984 3.984 0 0 1 3.997 3.998 3.959 3.959 0 0 1-3.997 3.997 3.984 3.984 0 0 1-3.998-3.997z" fill="#f8be3e" fill-rule="evenodd"/><path d="M153.947 230.82c-4.598-1-9.475.48-13.832 1.44-5.557 1.438-10.913 4.077-12.592 10.353-.72 2.399-1 5.517 1.439 6.956 3.877 2.398 6.796-1.2 8.715-4.078 4.157-5.796 11.672-6.516 18.189-8.195.24-.48.48-1.2.48-1.679-3.359 3.118-8.955 1.919-13.313 3.598-2.438.96-4.597 2.199-6.316 3.878-1.679 1.199-3.878 3.118-6.036 2.638-2.679-6.276 6.036-10.114 10.393-11.313 2.2-.72 11.394-2.638 11.633-3.838zm-2.719 72.556c1.92-3.638-5.316-11.433-7.995-5.836-1.2 2.678.48 6.076.24 8.754-.24 2.919-3.158 4.118-5.317 6.077-2.438 2.438-8.275 11.393-.24 10.194 2.879-.48 6.996-3.159 7.996-6.077.959-2.198.24-4.117 2.158-6.076-2.678 1.959-3.638 5.836-6.036 7.795-.76.48-3.638 1.68-4.637.72-.96-1.2 1.959-3.638 2.918-4.358 1.719-1.719 3.638-3.917 4.357-6.316.48-2.198-.72-3.917-.96-6.076-.719-6.796 7.516-3.398 7.037 2.678v-.76zm110.973-14.951c1.44-1.2 1.44-5.317-.48-6.276-1.958-1-7.315 1.2-9.234 1.919-5.117 2.159-13.632 1.439-16.79 6.516-2.918 4.837 0 11.353 6.076 7.755 3.678-2.438 10.234-6.796 14.831-3.638-4.357-4.117-9.953-1.199-14.31.96-1.24.72-2.92 2.198-4.398 1.479-2.439-1.24-1.44-4.118-.24-5.597 4.357-5.077 13.112-4.077 18.709-6.276 1.479-.48 4.397-2.638 5.596-1.439.96.72.72 3.638-.48 3.878z" fill="#a91a1c" fill-rule="evenodd"/><path d="M223.225 208.274c-4.877 3.638 2.438 35.578 16.47 29.062 14.311-6.316-6.516-36.338-16.47-29.062z" fill="#9ca064" fill-rule="evenodd"/><path d="M223.225 208.274c-4.877 3.638 2.438 35.578 16.47 29.062 14.311-6.316-6.516-36.338-16.47-29.062" fill="none" stroke="#faf9f9" stroke-width="1.039" stroke-miterlimit="8"/><path d="M124.924 240.494c-1.679 4.318-1.439 12.273 4.837 12.992 2.679.48 5.797-2.398 7.516-4.077 1.679-1.48 3.398-5.077 6.276-4.118.48 1.68-.72 2.639-1.679 3.878-1.679 1.44-3.158 2.638-4.597 4.557-2.679 2.878-6.796 4.078-10.434 2.639-4.837-2.16-8.475-5.277-7.475-10.834.24-2.159 1.439-3.837 2.878-5.277 1.24-1.199 4.117-1.958 2.678.96zm27.064 56.126c4.837 4.597 1.719 14.511-1.44 19.109-1.199 1.719-3.157 3.398-4.836 4.837-1.2 1.479-4.598 2.438-5.077 4.357-1.48 4.357 4.117 1.959 5.796 1 3.398-1.72 5.077-4.118 6.796-7.516 2.399-4.357 3.358-9.194 3.598-14.031 0-3.638-.72-8.755-5.317-7.996zm92.544-13.032c-7.516 0-11.913 3.118-12.153 10.594-.24 3.158 0 5.556 2.199 7.955 1.479 1.479 3.877 2.678 4.877 4.597.96 1.68.48 3.838-1.959 3.598-3.158-.48-6.556-6.476-7.995-8.675-2.918-5.996-3.678-13.472 2.159-18.069 2.438-2.159 6.316-3.638 9.714-3.638 1.719 0 1.719.28 2.678 1.24.72.72 1.919 1.918.48 2.638z" fill="#e53421" fill-rule="evenodd"/><path d="M131.36 319.247c0 1.678 1.44 4.117 2.879 5.116 1.719.72 4.157 1.68 5.836 1.68 4.637.24 8.275-3.878 10.913-7.316-1.439 2.718-2.638 4.637-4.837 6.356-1.958 1.48-3.637 2.438-6.076 2.918-5.077.72-9.234-2.918-9.234-8.035zm122.286-40.656c-1.679.28-3.598 1.24-5.316 1.72-2.4.959-4.838 1.198-7.236 1.438-2.439.48-5.597.48-7.755 2.159-1.96 1.479-3.398 4.117-3.638 6.516-1.72-.24 2.158-5.796 3.158-6.516 1.679-1.44 5.077-2.638 7.235-3.358 2.439-.72 4.838-.24 7.276-.48 1.44-.24 4.597-.24 5.317-1.479zm-114.73-48.331c-.48-.28-1.959.48-2.679.72-1.199.48-2.678.96-3.917 1.919-2.199 1.719-4.637 2.918-6.077 5.357-1.718 2.158-2.958 3.877-3.437 6.516-.48 1.479-.72 2.918-.48 4.397 0 1.2.48 2.159.72 3.118-1.44-2.398-1.72-6.276-.96-8.954.96-3.159 3.398-6.556 6.116-8.475 3.158-2.199 6.836-4.358 10.954-4.598zm-14.871 23.586c0-.56.52-1.08 1.16-1.08.639 0 1.158.52 1.158 1.08 0 .6-.52 1.08-1.159 1.08-.64 0-1.16-.48-1.16-1.08zm4.157.88c0-.4.36-.76.76-.76.44 0 .76.36.76.76 0 .44-.32.76-.76.76a.76.76 0 0 1-.76-.76zm2.159 62.762c0-.32.32-.6.68-.6.4 0 .68.28.68.6 0 .36-.28.6-.68.6-.36 0-.68-.24-.68-.6zm.479-1.879c0-.16.2-.32.44-.32.28 0 .44.16.44.32 0 .2-.16.32-.44.32-.24 0-.44-.12-.44-.32zm97.781-24.505c0-.2.24-.36.52-.36.32 0 .52.16.52.36 0 .2-.2.36-.52.36-.28 0-.52-.16-.52-.36zm.48 2.678c0-.16.2-.32.44-.32.28 0 .44.16.44.32 0 .2-.16.32-.44.32-.24 0-.44-.12-.44-.32z" fill="#fff" fill-rule="evenodd"/><path d="M225.343 210.832c0-2.198 6.477-1.679 6.237 1.48-.24 2.158-1.44.959-2.639.479-2.158-.72-1.199.24-3.118.96-.48-.48-.72-1.2-.72-1.68z" fill="#b7b77a" fill-rule="evenodd"/><path d="M200.319 197.6c0-1.319 1.039-2.398 2.318-2.398 1.32 0 2.319 1.079 2.319 2.398 0 1.36-1 2.399-2.319 2.399-1.279 0-2.318-1.04-2.318-2.399zm-5.517 20.788c0-1.32 1.12-2.399 2.438-2.399 1.36 0 2.439 1.08 2.439 2.399 0 1.359-1.08 2.398-2.439 2.398-1.319 0-2.438-1.04-2.438-2.398zm13.991-1.679c0-1.04.88-1.92 1.92-1.92a1.92 1.92 0 0 1 1.918 1.92c0 1.079-.84 1.918-1.919 1.918a1.92 1.92 0 0 1-1.919-1.918zm5.197 24.185c0-1.24.92-2.279 2-2.279 1.118 0 1.998 1.04 1.998 2.279 0 1.28-.88 2.279-1.999 2.279-1.08 0-1.999-1-1.999-2.279z" fill="#9ca064" fill-rule="evenodd"/><path d="M182.45 216.949c-.76 3.158.48 7.515 1.439 10.673 1.199 4.837 3.158 9.914 6.516 13.552 3.398 3.638 7.515 6.556 12.112 8.994 2.199.96 4.358 2.879 6.556 3.838 2.639 1.24 5.557 1.24 8.475 1.48 7.236.959 18.869 2.638 25.385-1.72 3.398-2.398 6.556-6.516 7.515-10.633 1.2-4.358-.48-8.955-1.439-13.072.24 7.235-4.117 15.47-11.153 18.149-7.995 2.918-17.43.24-24.185-3.878-7.756-4.357-15.511-8.955-22.027-15.27-2.199-2.16-4.597-4.358-6.076-6.997-.72-1.479-.96-4.117-2.16-4.837z" fill="#d1d89b" fill-rule="evenodd"/><path d="M207.834 251.128c1.24 1.919 4.597 2.678 6.556 3.158 2.638.72 5.077.96 7.715 1.2 3.638.239 6.796.959 10.434.239 5.797-1.44 14.231-3.878 13.752-11.433-.72 3.918-6.756 7.555-9.914 9.274-3.598 1.68-8.195.96-12.073 1.2-5.317 0-11.353-1.72-15.95-3.638z" fill="#babf87" fill-rule="evenodd"/><path d="M225.503 225.943c1.48 2.159 1.72 5.037 3.878 6.996 1.719 1.919 4.117 3.598 6.556 3.598 3.638.24 5.796-.96 6.756-4.318.24-1.479-.24-2.438-.72-3.638-.24-1.199-.24-2.398-.72-3.637-.719 1.239 0 4.117-1.198 5.556-.96 1.48-3.159 1.96-4.838 1.72-1.958 0-3.877-1.24-5.596-2.44-.96-.719-3.118-2.398-3.358-3.597z" fill="#8b8c53" fill-rule="evenodd"/><path d="M285.787 283.948c-4.837 17.949-20.788 32.22-36.538 40.495-17.67 9.435-35.539 10.154-53.967 15.95 36.298-.719 77.233-16.23 89.785-52.048zm-.72-9.155c0-1.998 1.32-3.637 2.918-3.637 1.64 0 2.919 1.639 2.919 3.637 0 2.04-1.28 3.638-2.919 3.638-1.599 0-2.918-1.599-2.918-3.638zm1.519-10.513c0-1 1-1.84 2.159-1.84 1.2 0 2.159.84 2.159 1.84 0 1.04-.96 1.839-2.159 1.839-1.16 0-2.159-.8-2.159-1.84z" fill="#fff" fill-rule="evenodd"/><path d="M18.149 359.742c-3.878 11.873 1.959 31.94 12.592 39.456 11.873 8.195 36.098 1.44 47.691-3.158 14.552-5.797 30.262-12.592 45.293-15.47 14.032-2.679 24.905-.96 38.457.719-6.516-6.996-24.186-8.235-34.58-7.516-15.27 1.24-30.021 7.036-44.812 11.154-13.072 3.358-29.542 11.593-42.614 6.516-11.114-4.358-23.466-16.67-22.027-29.502zm218.947 76.713c8.035 9.435 28.383 23.706 41.255 23.706 23.026-.24 24.705-24.705 16.23-39.976.72 16.99-3.637 27.863-20.867 30.542-12.113 1.719-25.704-3.398-32.7-13.552zm37.338-394.6c11.633-.48 21.347-6.796 31.98 1.719 8.755 6.995 12.633 19.108 14.312 29.782 2.158 14.79-2.199 29.062-6.556 42.894-4.118 12.832-6.996 25.904-9.675 38.976-.72-28.343 15.511-56.926 6.556-84.309-2.918-8.475-6.795-18.869-14.071-24.705-3.878-2.878-19.148-6.756-20.827-3.638z" fill="#d2dbaf" fill-rule="evenodd"/><path d="M295.221 46.292c-7.236-3.398-19.828 8.235-25.385 12.352-11.632 8.955-18.149 20.828-24.705 33.9-5.556 10.673-10.393 22.067-15.47 33.18-3.158 7.275-5.077 16.47-10.914 22.306-6.036 6.037-14.75 6.996-22.266 10.874-7.995 3.877-14.511 10.433-20.308 17.19-6.076 7.515-12.592 15.03-15.75 24.464-2.159 7.516-4.118 10.194-6.037 17.43-1.239-18.15 13.073-37.537 25.665-50.61 10.873-11.113 21.027-12.352 32.42-22.026 13.312-11.393 17.19-32.7 23.706-48.45 5.796-13.553 16.23-28.304 28.063-37.298 8.475-6.276 20.827-11.833 28.822-14.751zm3.678.08a2.935 2.935 0 0 1 2.918-2.918 2.909 2.909 0 0 1 2.918 2.918 2.884 2.884 0 0 1-2.918 2.918 2.909 2.909 0 0 1-2.918-2.918zm9.834 3.798c0-1.2 1.08-2.239 2.358-2.239 1.32 0 2.359 1.04 2.359 2.239 0 1.239-1.04 2.238-2.359 2.238-1.279 0-2.358-1-2.358-2.238zM26.304 347.43c-8.255 14.53-10.194 35.818 5.797 46.451-2.419-4.097-6.057-7.255-7.996-11.853-1.439-3.857-2.658-7.975-2.658-12.332-.24-6.056.98-14.271 3.878-19.588zm261.482 104.336c8.514-.72 11.673-15.47 12.152-21.787.48-8.474-3.158-20.107-8.475-26.903.96 3.638 3.158 7.515 4.118 11.633.96 4.117 2.438 8.235 2.678 12.592.48 7.995-1.719 21.107-9.714 24.705zM73.755 300.778a3.48 3.48 0 0 1 3.478-3.478 3.455 3.455 0 0 1 3.478 3.478c0 1.959-1.519 3.478-3.478 3.478a3.455 3.455 0 0 1-3.478-3.478zm1.999 11.232c0-1.038.88-1.918 1.919-1.918 1.08 0 1.919.88 1.919 1.919 0 1.08-.84 1.919-1.92 1.919a1.92 1.92 0 0 1-1.918-1.92zm3.998 8.196c0-.48.44-.92.92-.92a.93.93 0 0 1 .919.92c0 .52-.4.92-.92.92a.93.93 0 0 1-.92-.92zM245.651 164.34c0-2.438 2.079-4.477 4.557-4.477 2.519 0 4.558 2.039 4.558 4.477 0 2.479-2.04 4.478-4.558 4.478-2.478 0-4.557-2-4.557-4.478zm11.593 7.676c0-1.36 1.16-2.479 2.519-2.479 1.399 0 2.518 1.12 2.518 2.479 0 1.399-1.12 2.478-2.518 2.478-1.36 0-2.519-1.08-2.519-2.478z" fill="#fff" fill-rule="evenodd"/></svg>