<svg xmlns="http://www.w3.org/2000/svg" version="1.0" viewBox="0 0 205.115 554.419"><defs><clipPath clipPathUnits="userSpaceOnUse" id="a"><path d="M-.56-.64h204.836v554.864H-.56z"/></clipPath></defs><path d="m149.87 517.766 3.637 6.556 13.152 2.599 4.237-4.398v-6.236l-21.027 1.48z" fill="#fff" fill-rule="evenodd" fill-opacity="1" stroke="none"/><path d="M178.452 516.287s4.597 5.557 6.036 8.195c1.68 2.878 3.638 4.797 4.358 5.997.959.959 1.679 2.638 3.358 3.357 1.439.72 4.357 2.919 5.556 4.118 1.919 1.679 2.159 5.277 2.159 5.277s-.72 2.398-2.159 3.837c-1.2 1.44-4.837 5.277-9.394 4.558-2.199-.24-7.995-.96-12.313-4.797-4.117-4.078-8.475-8.155-10.154-10.074-1.439-1.44-3.118-2.439-3.118-2.439l-2.918 1.72s-7.955-2.92-8.914-4.598V528.8s-2.679-4.798-.24-8.635c0 0 9.634 4.557 13.032 4.317 3.358 0 3.837-3.598 3.837-3.598l10.874-4.597z" fill="#e0e0e0" fill-rule="evenodd" fill-opacity="1" stroke="none"/><path clip-path="url(#a)" d="M178.452 516.287s4.597 5.557 6.036 8.195c1.68 2.878 3.638 4.797 4.358 5.997.959.959 1.679 2.638 3.358 3.357 1.439.72 4.357 2.919 5.556 4.118 1.919 1.679 2.159 5.277 2.159 5.277s-.72 2.398-2.159 3.837c-1.2 1.44-4.837 5.277-9.394 4.558-2.199-.24-7.995-.96-12.313-4.797-4.117-4.078-8.475-8.155-10.154-10.074-1.439-1.44-3.118-2.439-3.118-2.439l-2.918 1.72s-7.955-2.92-8.914-4.598V528.8s-2.679-4.798-.24-8.635c0 0 9.634 4.557 13.032 4.317 3.358 0 3.837-3.598 3.837-3.598l10.874-4.597" fill="none" stroke="#333" stroke-width=".47970927px" stroke-linecap="butt" stroke-linejoin="miter" stroke-miterlimit="8" stroke-dasharray="none" stroke-opacity="1"/><path d="M196.8 548.108s-2.638 2.398-7.954 2.159c-5.557 0-7.236-1.68-11.114-4.078-4.117-2.159-12.072-10.793-15.95-12.233-3.598-1.679-9.394-2.878-10.873-5.037M159.863 536.115l.16-2.958" fill="none" stroke="#333" stroke-width=".47970927px" stroke-linecap="butt" stroke-linejoin="miter" stroke-miterlimit="8" stroke-dasharray="none" stroke-opacity="1"/><path d="M160.303 533.637c-.28.52-.28 1.279-.28 1.998.28-.24.76-.72 1-.999.28 0 .759-.24.999-.24-.24-.24-.48-.24-.72-.48-.52 0-.76 0-1-.28zM150.229 523.803c-.52 1.199.48 3.118.96 4.077.719 1.4 1.678 2.119 3.157 2.599 1.44.48 2.919 1.199 4.598 1.678 1.479.24 3.158 1.64 4.597 1.64-2.159-.68-4.118-2.36-6.276-3.318-1.24-.72-2.679-.96-3.638-1.88-.76-.719-1.72-1.438-2.199-2.158-.48-.48-.96-2.159-1.439-2.399z" fill="#a8a7a7" fill-rule="evenodd" fill-opacity="1" stroke="none"/><path d="M177.932 517.247c.76.76 1.24 1.958 1.959 2.918.72.96 1.44 1.959 2.399 3.158 1.479 1.679 2.678 3.398 4.117 5.317 1.2 1.199 2.159 2.918 1.44 4.597-.72 1.2-1.92 1.439-3.359 1.919-1.24.24-2.438.48-3.638-.24-1.439-.96-2.438-2.878-3.637-4.118-2.399-2.878-5.077-5.556-8.195-7.715-.24-.24-.48-.48-.76-.72" fill="none" stroke="#333" stroke-width=".47970927px" stroke-linecap="butt" stroke-linejoin="miter" stroke-miterlimit="8" stroke-dasharray="none" stroke-opacity="1"/><path d="M188.086 530.199c-1.679.24-3.398 0-5.117.96-1.2.719-3.158 1.918-3.918 3.117M186.167 527.56c-.96.28-1.919 0-3.118.52-.96.24-2.199.72-3.158 1.2a9.246 9.246 0 0 0-2.918 2.917M183.689 524.762c-1.2.24-2.399.48-3.598.96-1 .48-1.72.959-2.679 1.199-.959.72-1.679 1.679-2.438 2.638M181.85 521.804c-2.399.24-4.797 1.199-6.756 2.398-1.44.48-2.878.96-3.398 2.399M169.537 524.282c1.92-3.198 6.196-5.436 9.514-5.436" fill="none" stroke="#333" stroke-width=".79951543px" stroke-linecap="round" stroke-linejoin="miter" stroke-miterlimit="8" stroke-dasharray="none" stroke-opacity="1"/><path d="m56.566 517.766-3.598 6.556-13.152 2.599-4.278-4.398v-6.236l21.028 1.48z" fill="#fff" fill-rule="evenodd" fill-opacity="1" stroke="none"/><path d="M27.783 516.287s-4.357 5.557-5.796 8.195c-1.68 2.878-3.638 4.797-4.358 5.997-.96.959-1.919 2.638-3.358 3.357-1.719.72-4.357 2.919-5.556 4.118-2.199 1.679-2.199 5.277-2.199 5.277s.76 2.398 2.199 3.837c1.199 1.44 4.837 5.277 9.394 4.558 1.959-.24 7.955-.96 12.313-4.797 4.117-4.078 8.434-8.155 10.153-10.074 1.44-1.44 3.119-2.439 3.119-2.439l2.918 1.72s7.955-2.92 8.914-4.598V528.8s2.639-4.798.24-8.635c0 0-9.634 4.557-13.032 4.317-3.358 0-3.878-3.598-3.878-3.598l-10.833-4.597z" fill="#e0e0e0" fill-rule="evenodd" fill-opacity="1" stroke="none"/><path clip-path="url(#a)" d="M27.783 516.287s-4.357 5.557-5.796 8.195c-1.68 2.878-3.638 4.797-4.358 5.997-.96.959-1.919 2.638-3.358 3.357-1.719.72-4.357 2.919-5.556 4.118-2.199 1.679-2.199 5.277-2.199 5.277s.76 2.398 2.199 3.837c1.199 1.44 4.837 5.277 9.394 4.558 1.959-.24 7.955-.96 12.313-4.797 4.117-4.078 8.434-8.155 10.153-10.074 1.44-1.44 3.119-2.439 3.119-2.439l2.918 1.72s7.955-2.92 8.914-4.598V528.8s2.639-4.798.24-8.635c0 0-9.634 4.557-13.032 4.317-3.358 0-3.878-3.598-3.878-3.598l-10.833-4.597" fill="none" stroke="#333" stroke-width=".47970927px" stroke-linecap="butt" stroke-linejoin="miter" stroke-miterlimit="8" stroke-dasharray="none" stroke-opacity="1"/><path d="M9.634 548.108s2.679 2.398 7.755 2.159c5.557 0 7.516-1.68 11.394-4.078 4.117-2.159 12.072-10.793 15.71-12.233 3.878-1.679 9.674-2.878 11.113-5.037M46.572 536.115l.16-2.958" fill="none" stroke="#333" stroke-width=".47970927px" stroke-linecap="butt" stroke-linejoin="miter" stroke-miterlimit="8" stroke-dasharray="none" stroke-opacity="1"/><path d="M46.172 533.637c0 .52.24 1.279.24 1.998-.48-.24-.72-.72-1-.999-.24 0-.72-.24-.999-.24.28-.24.52-.24.76-.48.24 0 .76 0 .999-.28zM56.326 523.803c.24 1.199-.48 3.118-.96 4.077-.72 1.4-1.679 2.119-3.158 2.599-1.679.48-3.158 1.199-4.597 1.678-1.479.24-3.158 1.64-4.637 1.64 2.199-.68 4.157-2.36 6.076-3.318 1.48-.72 2.679-.96 3.878-1.88.76-.719 1.719-1.438 2.199-2.158.48-.48.959-2.159 1.439-2.399z" fill="#a8a7a7" fill-rule="evenodd" fill-opacity="1" stroke="none"/><path d="M28.583 517.247c-.76.76-1.24 1.958-1.96 2.918-.719.96-1.438 1.959-2.398 3.158-1.439 1.679-2.878 3.398-4.077 5.317-1.2 1.199-2.439 2.918-1.44 4.597.72 1.2 1.92 1.439 3.119 1.919 1.439.24 2.638.48 3.598-.24 1.679-.96 2.398-2.878 3.637-4.118 2.639-2.878 5.277-5.556 8.155-7.715.48-.24.72-.48.96-.72" fill="none" stroke="#333" stroke-width=".47970927px" stroke-linecap="butt" stroke-linejoin="miter" stroke-miterlimit="8" stroke-dasharray="none" stroke-opacity="1"/><path d="M18.349 530.199c1.719.24 3.398 0 5.117.96 1.2.719 3.118 1.918 3.598 3.117M20.348 527.56c.96.28 1.919 0 3.118.52.96.24 1.919.72 3.118 1.2 1.2.759 2.159 1.718 2.878 2.917M22.746 524.762c1.24.24 2.439.24 3.638.96 1 .48 1.719.959 2.678 1.199.96.72 1.68 1.679 2.399 2.638M24.585 521.804c2.199.24 4.837 1.199 6.796 2.398 1.2.48 2.878.96 3.358 2.399M36.738 524.282c-1.68-3.198-6.037-5.436-9.674-5.436" fill="none" stroke="#333" stroke-width=".79951543px" stroke-linecap="round" stroke-linejoin="miter" stroke-miterlimit="8" stroke-dasharray="none" stroke-opacity="1"/><path d="M145.592 235.098S164.18 343.712 164.18 363.22c0 19.748 1.68 37.057 2.879 43.334 1.239 6.276 6.036 25.064 5.796 32.5-.48 7.715 2.439 39.736 3.158 49.13.72 9.394 3.598 26.744 3.598 26.744s-9.394 8.875-20.268 7.675c-10.633-.96-20.027-5.996-20.027-5.996s-.72-15.43-1.2-22.626c-.52-7.236-1.479-19.029-1.959-23.146-.24-4.078-.959-11.793-.959-11.793s-4.357-14.192-5.557-21.187c-1.439-6.996-3.358-22.387-4.357-28.183-1.2-5.757-1.2-11.074-2.878-17.31-1.68-6.276-4.597-19.508-5.557-28.183-.96-8.674-4.597-23.346-6.276-31.3-1.679-7.956-8.955-32.98-8.955-32.98s-6.755 25.024-8.434 32.98c-1.92 7.954-5.557 22.626-6.517 31.3-.959 8.675-3.877 21.907-5.556 28.183-1.68 6.236-1.68 11.553-2.878 17.31-1 5.796-2.919 21.187-4.358 28.183-1.199 6.995-5.556 21.187-5.556 21.187s-.48 7.715-.96 11.793c-.48 4.117-1.479 15.91-1.959 23.146-.24 7.195-1.199 22.626-1.199 22.626s-9.394 5.037-20.028 5.996c-10.873 1.2-20.068-7.675-20.068-7.675s2.679-17.35 3.398-26.744c.96-9.394 3.638-41.415 3.158-49.13-.24-7.436 4.558-26.224 5.797-32.5 1.2-6.277 2.878-23.586 2.878-43.334 0-19.508 18.589-128.122 18.589-128.122h87.667z" fill="#fff" fill-rule="evenodd" fill-opacity="1" stroke="none"/><path d="M141.234 353.426s8.475 36.178 19.828 51.329" fill="none" stroke="#333" stroke-width=".79951543px" stroke-linecap="butt" stroke-linejoin="miter" stroke-miterlimit="8" stroke-dasharray="none" stroke-opacity="1"/><path d="M145.592 235.098S164.18 343.712 164.18 363.22c0 19.748 1.68 37.057 2.879 43.334 1.239 6.276 6.036 25.064 5.796 32.5-.48 7.715 2.439 39.736 3.158 49.13.72 9.394 3.598 26.744 3.598 26.744s-9.394 8.875-20.268 7.675c-10.633-.96-20.027-5.996-20.027-5.996s-.72-15.43-1.2-22.626c-.52-7.236-1.479-19.029-1.959-23.146-.24-4.078-.959-11.793-.959-11.793s-4.357-14.192-5.557-21.187c-1.439-6.996-3.358-22.387-4.357-28.183-1.2-5.757-1.2-11.074-2.878-17.31-1.68-6.276-4.597-19.508-5.557-28.183-.96-8.674-4.597-23.346-6.276-31.3-1.679-7.956-8.955-32.98-8.955-32.98s-6.755 25.024-8.434 32.98c-1.92 7.954-5.557 22.626-6.517 31.3-.959 8.675-3.877 21.907-5.556 28.183-1.68 6.236-1.68 11.553-2.878 17.31-1 5.796-2.919 21.187-4.358 28.183-1.199 6.995-5.556 21.187-5.556 21.187s-.48 7.715-.96 11.793c-.48 4.117-1.479 15.91-1.959 23.146-.24 7.195-1.199 22.626-1.199 22.626s-9.394 5.037-20.028 5.996c-10.873 1.2-20.068-7.675-20.068-7.675s2.679-17.35 3.398-26.744c.96-9.394 3.638-41.415 3.158-49.13-.24-7.436 4.558-26.224 5.797-32.5 1.2-6.277 2.878-23.586 2.878-43.334 0-19.508 18.589-128.122 18.589-128.122h87.667z" fill="none" stroke="#333" stroke-width=".79951543px" stroke-linecap="butt" stroke-linejoin="miter" stroke-miterlimit="8" stroke-dasharray="none" stroke-opacity="1"/><path d="M65.28 353.426s-8.474 36.178-19.907 51.329" fill="none" stroke="#333" stroke-width=".79951543px" stroke-linecap="butt" stroke-linejoin="miter" stroke-miterlimit="8" stroke-dasharray="none" stroke-opacity="1"/><path d="M99.74 13.392s-14.752 2.918-16.91 6.036c-2.439 3.118-6.316 16.83-5.837 18.789.24 2.159.72 9.354.72 9.354s-1.68-1.679-3.358-.48c-1.24.96 1.44 4.838 1.679 6.037.24 1.2.72 7.715 5.317 7.235 0 0 1.239 6.476 2.678 8.875 0 0 1.919 19.748-3.158 22.386l22.027 36.338 22.506-38.017s-6.796-7.195-5.317-27.663c0 0 .48-2.398.72-3.398 0 0 2.158 1 3.638-3.118 1.439-3.837 4.317-8.914 3.358-10.833-.96-2.159-3.358-1.2-3.878-.24 0 0-.48-7.436-.48-11.553.24-4.317-5.317-17.55-9.434-18.269-3.878-.48-14.271-1.48-14.271-1.48z" fill="#f8f3ed" fill-rule="evenodd" fill-opacity="1" stroke="none"/><path d="M99.74 13.392s-14.752 2.918-16.91 6.036c-2.439 3.118-6.316 16.83-5.837 18.789.24 2.159.72 9.354.72 9.354s-1.68-1.679-3.358-.48c-1.24.96 1.44 4.838 1.679 6.037.24 1.2.72 7.715 5.317 7.235 0 0 1.239 6.476 2.678 8.875 0 0 1.919 19.748-3.158 22.386l22.027 36.338 22.506-38.017s-6.796-7.195-5.317-27.663c0 0 .48-2.398.72-3.398 0 0 2.158 1 3.638-3.118 1.439-3.837 4.317-8.914 3.358-10.833-.96-2.159-3.358-1.2-3.878-.24 0 0-.48-7.436-.48-11.553.24-4.317-5.317-17.55-9.434-18.269-3.878-.48-14.271-1.48-14.271-1.48" fill="none" stroke="#333" stroke-width=".47970927px" stroke-linecap="butt" stroke-linejoin="miter" stroke-miterlimit="8" stroke-dasharray="none" stroke-opacity="1"/><path d="M100.699 23.866c-5.317.48-8.475-4.078-12.353-4.078-3.597 0-5.076 7.915-6.276 10.114-1.199 2.159-3.638 4.797-3.358 6.956.48 2.198 1.44 8.914-.28 11.313-.48.96-2.398-2.878-2.398-2.878-.96-2.879-.96-5.757-1.919-8.675-1-2.399-.72-3.838-.24-6.476.24-1.2-.48-2.439 0-3.638.24-1.2 1.92-1.679 1.92-2.878.239-.96-.48-.72-.72-1.44-.24-2.878 4.357-3.837 5.556-6.036 0 0-1.439-.72-1.439-.48.96-1.678 3.358-1.678 4.797-2.878-1.679-1.679 2.678-2.878 3.878-2.638-.48-.24-.96-.72-.96-1.44 1.44-.719 3.878-.959 5.557-.719 1.679 0 5.557 1.919 6.996.24 1.239-1.24 7.035.24 8.954 0 1.44 0 7.236-1 6.037 1.919 1.199.24 3.158-.48 3.877 0 1.44.96 0 1.679.24 2.638.72 1.2 2.399.24 3.158 1.44.72.959-.76 2.158 0 3.357.48 1.24 2.159 1.96 2.878 2.919 1.2 1.679.72 2.878.48 4.557 0 1.439 0 .96.72 2.159.96 1.239.72 1.958.48 3.397-.48 1.44 0 3.358-.48 4.558-.48.96-1.2 1.919-1.44 2.878-.24 1.479.24 2.678 0 3.878l-.48 2.878-.959 2.398s-.24-.959-.48-2.878 0-3.358 0-6.756c0-3.118-.719-6.476-2.198-7.435-1.439-1.2-2.159-2.199-2.638-4.597-.24-2.639-1.72-7.196-3.878-7.716-2.159-.24-6.516 5.797-13.032 6.037z" fill="#471805" fill-rule="evenodd" fill-opacity="1" stroke="none"/><path d="M76.354 49.33c1.199-.52 1.479.48 1.719 1.44.24.719.72 1.958.72 2.678h-.48c0 1.199.72 1.918.72 2.878-.24-.72-.96-1.2-1.2-1.919 0-.72.48-1.2.48-1.959-.24-.48-.48-1.2-.76-1.679-.24-.72-.48-1.439-1.48-1.439zM126.283 46.212c-.24 0-.24-1-1.199-.72-.48.24-.72 1.44-.96 1.92-.28.479-.759 1.199-.999 1.678 0 .24-.24.48-.24.72 0 .48.24.24.48.48.24.999-.72 2.198-.96 3.158-.239.48-.759 1.199-.239 1.439.48.48.96 0 1.2-.48-.48.24-.96.48-.96-.24 0-.24.72-.96.72-1.439.24-.48.48-.72.719-1.2v-.959c-.24-.28-.48-.52-.48-.76-.24-.719 1-1.918 1.24-2.638.48-.959.719-1.958 1.678-.959zM97.58 37.297c.48 1 .92 1.72.92 2.919v3.158c0 .96.2 1.919.2 2.878 0 1.2-.44 1.679-.88 2.399.24-.96.68-1.92.68-2.879 0-.96-.24-2.158-.24-3.158 0-.96-.2-1.919-.2-2.638.2-.72.2-.72 0-1.2-.24-.48-.48-.72-.48-1.199zM103.657 37.857c-.28.72-.88.96-.88 1.679 0 .72.32 1.2.32 1.679.28.68 0 1.4 0 2.119v1.879c.56-.92.28-2.599.28-3.758 0-.72 0-1.2-.28-1.68-.32-.719.28-1.438.28-1.918zM96.102 50.41c-.24.759-.24 1.758-.24 2.518.24.76.48 1 .92 1.479-1.84-.48-.92-2.478-.92-3.998zM105.696 50.25c0 .52.24.52.48.999v1.24c0 .719-.48 1.198-.76 1.918 1-.72 1.999-3.638.28-4.157zM104.776 52.648c-.72-.72-2.478.48-2.198 1.2.48.719.72 0 .96-.24.28-.48 1.239-.48 1.239-.96zM97.061 52.968c-.28-.48.24-.72.48-.72.48.48 1.479.72 1.959 1.2-.24.959-1.72-.48-2.199-.48zM100.54 54.367c.239-.28.439 0 .639 0 0 .52-.4.52-.64 0z" fill="#333" fill-rule="evenodd" fill-opacity="1" stroke="none"/><path d="M95.422 34.42c0-2.16-4.557-1.92-6.996-.96-2.158.72-4.557 1.919-5.756 4.037-1.48 2.119 3.358-1.879 7.236-1.879 3.837 0 5.516 1.4 5.516-1.199z" fill="#471805" fill-rule="evenodd" fill-opacity="1" stroke="none"/><path d="M95.182 41.535c.24-.48-.72-.72-1.958-1.68-1.2-.719-3.638-1.198-5.117-.239-1.44 1.2-1.72 2.399-1.72 2.399s1.72 1.199 3.678.959c2.2 0 3.159-.72 3.918-.96.72 0 1.2.24 1.2-.48z" fill="#fff" fill-rule="evenodd" fill-opacity="1" stroke="none"/><path d="M91.984 39.456c.24.48.48.96.48 1.44 0 1.198-.96 2.158-2.199 2.158-1.199 0-2.198-.96-2.198-2.159 0-.48.28-.96.52-1.2.24-.719 2.918-.719 3.397-.239z" fill="#196813" fill-rule="evenodd" fill-opacity="1" stroke="none"/><path d="M89.506 40.775c0-.44.44-.84.92-.84.519 0 .919.4.919.84 0 .48-.4.84-.92.84-.48 0-.92-.36-.92-.84z" fill="#000" fill-rule="evenodd" fill-opacity="1" stroke="none"/><path d="M94.463 39.736s-1.68-1.719-5.077-1.2c-2.639.48-3.638 3.399-3.638 3.399" fill="none" stroke="#333" stroke-width=".47970927px" stroke-linecap="round" stroke-linejoin="miter" stroke-miterlimit="8" stroke-dasharray="none" stroke-opacity="1"/><path d="M105.736 34.42c0-1.92 4.637-2.16 7.036-1.44 2.438.48 4.637 1.44 6.316 3.558 1.439 2.119-3.638-1.64-7.516-1.4-3.877.24-5.316 1.88-5.836-.719z" fill="#471805" fill-rule="evenodd" fill-opacity="1" stroke="none"/><path d="M106.296 41.095c0-.48.72-.72 1.918-1.639 1.44-.72 3.598-1.439 5.037-.24 1.44 1.16 1.68 2.119 1.68 2.119s-1.44 1.4-3.598 1.2c-2.16-.24-2.879-.72-3.598-.96-.96-.24-1.44.24-1.44-.48z" fill="#fff" fill-rule="evenodd" fill-opacity="1" stroke="none"/><path d="M95.182 41.535c.24-.48-.72-.72-1.958-1.68-1.2-.719-3.638-1.198-5.117-.239-1.44 1.2-1.72 2.399-1.72 2.399s1.72 1.199 3.678.959c2.2 0 3.159-.72 3.918-.96.72 0 1.2.24 1.2-.48" fill="none" stroke="#333" stroke-width=".47970927px" stroke-linecap="butt" stroke-linejoin="miter" stroke-miterlimit="8" stroke-dasharray="none" stroke-opacity="1"/><path d="M109.374 38.976c-.24.48-.52.96-.52 1.44 0 1.199 1 2.158 2.239 2.158 1.279 0 2.238-.96 2.238-2.158 0-.48 0-.96-.24-1.44-.48-.48-3.238-.48-3.717 0z" fill="#196813" fill-rule="evenodd" fill-opacity="1" stroke="none"/><path d="M110.373 40.296c0-.44.36-.84.8-.84.48 0 .8.4.8.84 0 .48-.32.84-.8.84-.44 0-.8-.36-.8-.84z" fill="#000" fill-rule="evenodd" fill-opacity="1" stroke="none"/><path d="M107.255 38.936s1.48-1.479 5.117-.959c2.398.48 3.598 3.158 3.598 3.158" fill="none" stroke="#333" stroke-width=".47970927px" stroke-linecap="round" stroke-linejoin="miter" stroke-miterlimit="8" stroke-dasharray="none" stroke-opacity="1"/><path d="M93.104 61.763s2.438-.68 3.677-1.4c1.2-.68 1.68-1.159 2.199-1.159.72.24 1.679.92 2.159.92.76-.2 1.479-.92 2.198-.92.72 0 4.877 1.64 6.077 1.879 0 0-5.077-2.119-5.837-2.359-.72-.24-1.439.72-2.438.72-.72 0-1.44-.48-2.159-.48-.76 0-4.637 2.359-5.876 2.799z" fill="#333" fill-rule="evenodd" fill-opacity="1" stroke="none"/><path d="M95.102 61.763s7.756-.72 12.313 0c0 0-5.037-1.68-12.313 0zM94.942 62.082s.52 2 2.439 2 8.195-.24 8.195-.24 1.44-.52 2.159-1.76c0 0-.48 1.76-2.159 2.239-1.679.24-8.195 0-8.195 0s-1.679.24-2.439-2.239zM83.99 69.558s1.718 4.637 7.315 5.876c5.796 1.44 4.837.96 4.837.96s-2.439-.72-4.358-1.48c-1.958-.719-5.596-1.678-7.795-6.116v.76zM120.207 59.924s-.96 11.992-11.833 15.59c0 0 8.715-1.199 11.593-11.513l.24-4.077zM97.101 76.793s6.076 1.4 9.195-.24c0 0-3.838 2.56-9.195.24zM97.62 80.151s-.479 2.839 3.399 4.038l-.24.68s-4.158-1.64-3.158-4.718z" fill="#333" fill-rule="evenodd" fill-opacity="1" stroke="none"/><path d="M123.365 330.24c1.2 0 .96-2.878 2.159-2.878.96 0 2.918.24 3.878 0 25.104-1.92 41.974-6.037 44.653-7.236l-.24-3.118s2.638-2.399 3.358-4.118c0 0-2.879-15.15-3.598-28.902 0 0 7.475 1.2 8.675-2.159 0 0-.72-7.235-.24-14.71.48-7.237 1.679-25.545.96-33.26-.72-7.436-1.2-12.513-1.2-17.83 0-5.277-.72-17.11-.96-24.305-.24-7.236.72-16.39 0-20.987-.72-4.558-1.199-11.553-1.918-15.391-.96-4.118-.48-10.154-.96-13.272-.52-3.118-2.438-17.59-3.398-21.907-.96-4.597-3.638-12.312-6.996-16.15 0 0-17.15-8.435-35.978-14.711 0 0-6.756-4.318-8.674-5.077 0 0-1.24 6.276-1.96 9.194-.479 1.92-8.194 16.35-16.15 29.622l-1.439-3.118c-6.556-9.914-17.39-24.585-17.869-26.504-.72-2.918-1.959-9.194-1.959-9.194-2.158.76-8.674 5.077-8.674 5.077-18.829 6.276-35.979 14.711-35.979 14.711-3.358 3.838-6.036 11.553-6.995 16.15-.96 4.318-2.879 18.789-3.638 21.907-.48 3.118 0 9.154-.72 13.272-.72 3.838-1.199 10.833-1.919 15.39-.959 4.598 0 13.752 0 20.988-.24 7.195-.959 19.028-.959 24.305 0 5.317-.48 10.394-1.2 17.83-.999 7.715.48 26.023.96 33.26.48 7.475-.24 14.71-.24 14.71.96 3.358 8.675 2.159 8.675 2.159-.72 13.752-3.598 28.902-3.598 28.902.72 1.72 3.358 4.118 3.358 4.118l-.24 3.118c33.54 8.195 65.68 11.553 91.025 10.114z" fill="#fff" fill-rule="evenodd" fill-opacity="1" stroke="none"/><path d="M123.365 330.24c1.2 0 .96-2.878 2.159-2.878.96 0 2.918.24 3.878 0 25.104-1.92 41.974-6.037 44.653-7.236l-.24-3.118s2.638-2.399 3.358-4.118c0 0-2.879-15.15-3.598-28.902 0 0 7.475 1.2 8.675-2.159 0 0-.72-7.235-.24-14.71.48-7.237 1.679-25.545.96-33.26-.72-7.436-1.2-12.513-1.2-17.83 0-5.277-.72-17.11-.96-24.305-.24-7.236.72-16.39 0-20.987-.72-4.558-1.199-11.553-1.918-15.391-.96-4.118-.48-10.154-.96-13.272-.52-3.118-2.438-17.59-3.398-21.907-.96-4.597-3.638-12.312-6.996-16.15 0 0-17.15-8.435-35.978-14.711 0 0-6.756-4.318-8.674-5.077 0 0-1.24 6.276-1.96 9.194-.479 1.92-8.194 16.35-16.15 29.622l-1.439-3.118c-6.556-9.914-17.39-24.585-17.869-26.504-.72-2.918-1.959-9.194-1.959-9.194-2.158.76-8.674 5.077-8.674 5.077-18.829 6.276-35.979 14.711-35.979 14.711-3.358 3.838-6.036 11.553-6.995 16.15-.96 4.318-2.879 18.789-3.638 21.907-.48 3.118 0 9.154-.72 13.272-.72 3.838-1.199 10.833-1.919 15.39-.959 4.598 0 13.752 0 20.988-.24 7.195-.959 19.028-.959 24.305 0 5.317-.48 10.394-1.2 17.83-.999 7.715.48 26.023.96 33.26.48 7.475-.24 14.71-.24 14.71.96 3.358 8.675 2.159 8.675 2.159-.72 13.752-3.598 28.902-3.598 28.902.72 1.72 3.358 4.118 3.358 4.118l-.24 3.118c33.54 8.195 65.68 11.553 91.025 10.114" fill="none" stroke="#333" stroke-width=".79951543px" stroke-linecap="butt" stroke-linejoin="miter" stroke-miterlimit="8" stroke-dasharray="none" stroke-opacity="1"/><path d="M181.53 282.589s1.679-4.078-12.512-7.676c-14.232-3.597-20.268.48-20.268.48v-4.797c0-1.719 1-1.959 1-4.357.24-2.399.24-3.838.719-6.237.72-2.398 0-4.597.72-5.796.48-1.44.719-5.037 1.439-7.196.959-1.919 1.918-5.556 2.158-7.475 0-1.919.48-6.236.72-12.033.24-5.756.48-5.517.48-10.593 0-5.037-1.44-6.956-2.639-12.993" fill="none" stroke="#333" stroke-width=".79951543px" stroke-linecap="butt" stroke-linejoin="miter" stroke-miterlimit="8" stroke-dasharray="none" stroke-opacity="1"/><path d="M153.787 219.187s1.679-6.956.48-9.394c-1.48-2.399-.96-7.955-.72-12.992.24-5.077-1.24-18.589-.76-25.065.28-6.516-2.438-16.39-2.158-19.308.24-2.639 1.199-13.752.96-11.314M159.064 198.8c.84.72 1.359 1.918 1.359 3.118M159.064 196.241c1.239-1.679 3.877-2.678 5.836-3.398 3.398-.72 6.316-1.719 9.434-.48M173.695 284.108l-1.84-.16" fill="none" stroke="#333" stroke-width=".79951543px" stroke-linecap="butt" stroke-linejoin="miter" stroke-miterlimit="8" stroke-dasharray="none" stroke-opacity="1"/><path d="M81.35 60.483s-1.159-4.597-1.358-6.316c-.48-1.719-.96-4.397-.96-4.397" fill="none" stroke="#333" stroke-width=".47970927px" stroke-linecap="round" stroke-linejoin="miter" stroke-miterlimit="8" stroke-dasharray="none" stroke-opacity="1"/><path d="M120.687 58.964s.28-2.398.52-3.877c.24-1.44.76-3.638.999-5.077.24-1.24.48-3.678.48-3.678M106.296 41.095c0-.48.72-.72 1.918-1.639 1.44-.72 3.598-1.439 5.037-.24 1.44 1.16 1.68 2.119 1.68 2.119s-1.44 1.4-3.598 1.2c-2.16-.24-2.879-.72-3.598-.96-.96-.24-1.44.24-1.44-.48" fill="none" stroke="#333" stroke-width=".47970927px" stroke-linecap="butt" stroke-linejoin="miter" stroke-miterlimit="8" stroke-dasharray="none" stroke-opacity="1"/><path d="M88.386 40.895c.24 0 .48.24.72 0 0 0 .24-.24.24-.48.24-.28.48-.52.96-.52.24 0 .719.24.719.52.24.24.48.72.96.48.479-.76-.48-1.479-1.2-1.479-.72-.28-1.919 0-2.399.72v.76zM109.254 40.376c.24.2.48.2.72 0 0 0 .24-.24.24-.48.24-.2.479-.44.959-.44.24 0 .72.24.72.44.239.24.479.68.959.68.48-.88-.48-1.6-1.2-1.6s-1.919 0-2.398.92v.48z" fill="#0b3d07" fill-rule="evenodd" fill-opacity="1" stroke="none"/><path d="M89.026 40.775a.7.7 0 0 1 .68-.68c.4 0 .68.32.68.68 0 .4-.28.68-.68.68-.36 0-.68-.28-.68-.68zM109.893 40.296c0-.36.28-.68.56-.68.32 0 .56.32.56.68 0 .4-.24.68-.56.68-.28 0-.56-.28-.56-.68z" fill="#fff" fill-rule="evenodd" fill-opacity="1" stroke="none"/><path d="M105.576 36.498c-1.679 1-1.679 3.158-1.679 4.837v2.678c0 .72-.24 1.44-.24 2.159 0 .72.48 1.679.72 2.199.48.72 1.439 1.199 1.919 1.679.48.72.72.96.72 1.679 0 .72-.48 1.918-.48 2.438.24.72 2.158 1.919 2.638 2.639.72.959.96 1.918 1.679 2.638-.48-.72-.72-1.679-.96-2.399-.48-.959-.959-1.679-1.199-2.398-.72-1.48-.24-3.158-.24-4.837-1.679-.24-1.679-2.918-1.199-4.118.24-.72.96-1.199.72-2.158-.24-.48-1.44-.96-1.68-1.24-.24-.48-.48-.72-.719-1.439 0-.48.24-.72.24-.96 0-.959-.24-1.918-.24-2.877z" fill="#f5e2d8" fill-rule="evenodd" fill-opacity="1" stroke="none"/><path d="M105.496 40.416c0-.48.24-.96.48-1.44.24-.24.48-.24.96-.48.239-.24.479-.479.719-.479.24-.24.48-.48.72-.48-.48-.48 0-1.199-.24-1.679-.48 0-1.2 0-1.68.24-.24.24-.48.24-.72.48 0 0-.239 0-.479.24zM100.939 59.124c-.24-.24-.48-.24-1-.24-.24-.24-.24-.24-.76-.48.28-.719.52-1.439.52-2.158 0-.48-.52-.96-.52-1.2.28 0 .76.24 1.28.24 0 .24.24 3.838.72 3.838zM103.617 58.205c-.28-.48-.28-.96-.28-1.4v-.959c.28.48.28 1.2.52 1.879.28.24.76.48.76.92-.24-.2-.76-.2-1-.44zM97.58 67.839c1.92.48 4.078-.24 5.757-.48.96 0 2.16 0 3.118.24v-.24c-2.878-1.2-5.756-.24-8.634.48zM126.124 46.412c-.24-.24-.24-.24-.48-.24-.48.72-.96 1.679-1.48 2.638-.479.72 0 1.2 0 2.16 0 .959-.719 1.678-.959 2.638-.52.959.72-.24 1.2 0 0-.24.28-.48.28-.72-.28 0-.28-.24-.52-.24 0-.48.52-1.2.76-1.679V49.53c0-.72.24-1.44.479-1.919.24-.24.24-.96.48-1.439zM76.074 50.05s.72-.28.72 0c.24 0 .24.72.48.96 0 .479.479 1.198.479 1.678 0 .76-.48 1-.24 1.719.24.72 1.2 1.679 1.2 2.399-.72-.24-.96-.96-1.2-1.68-.48-.48-.48-.959-.48-1.678-.24-.76.24-1-.24-1.72-.48-.48-.48-1.199-.72-1.678zM106.775 22.666c.72-.72 1.92-1.199 2.639-1.679.72-.72 1.679-1.199 2.398-1.439.72-.24 1.44-.72 2.159-.48.96.24 1.439 1.68 1.679 2.639.72 2.398.72 4.797 2.159 6.956 1.199 1.918 2.878 3.358 3.358 5.516.24 1.44.48 3.358.24 5.037 0 1.44.24 2.878 0 4.318-.48-1.44-.48-3.118-.96-4.558-.48-.959-.96-1.679-1.44-2.398-.479-.96-.239-1.44-1.198-1.919-.48-.48-1.2-.72-1.68-.96-.24-.24-1.199-.24-1.439-.48-.48-.719 0-2.638 0-3.357-.24-1.2-.24-2.159-.48-3.358-.479-1.919-2.398-5.037-4.796-4.557-.72.24-1.44.72-2.399.96zM121.406 51.769c.24.76-.72 2.198-.72 3.158-.239.96-.479 2.158-.479 3.118-.24 2.159-.48 4.557-.96 6.516-.719 2.398-2.158 4.797-3.837 6.476-.76.96-2.438 2.159-3.398 2.638-1.679.96-3.358 1.68-3.638 1.2.76-.24 1.48-1.44 2.199-2.16 1.2-1.198 2.399-2.398 3.358-3.837 1.48-2.158 3.158-4.317 4.357-6.996.72-1.918.72-3.837 1.44-5.756.48-1.2 1.678-2.638 1.439-4.118z" fill="#f5e2d8" fill-rule="evenodd" fill-opacity="1" stroke="none"/><path d="M119.248 67.679c-.48.96-.24 2.638 0 3.838 0 1.199 0 2.638.24 3.837.24 1.68.48 3.598.959 5.037 0 .72.24.96-.24 1.44-.48.959-1.439 1.678-1.919 2.638-.72.96-1.439 2.158-2.158 3.118-.72 1.2-1.96 1.919-2.679 2.878 1.24-.96 1.72-2.878 2.199-4.317.48-1.2.96-2.878.96-4.318v-4.077c-.24-.72 0-1.68-.48-2.399-.72-1.439-2.439-.48-3.398 0-1.68.48-3.358 1.68-4.837 1.68.52-.72 1.239-.72 2.198-.96.72-.48 1.2-.72 1.92-1.2 1.198-.48 2.398-1.199 3.397-1.918.72-.96 1.44-1.68 2.159-2.639.72-.959.96-1.679 1.679-2.638zM97.061 81.75c.96 1.24 1.68 2.959 3.158 3.678.48 0 2.399.48 1.68 1.2-.48.72-2.919-.48-3.399-.96-1.199-.72-1.199-2.438-1.719-3.638zM106.895 43.054c.96.28 1.44.76 2.439 1 .96.24 1.919.24 2.638.479-.96 0-2.159.24-2.638.96-.52.719-.24 2.398-.24 3.357-.28 1.96-.76 3.878-1 6.037-.48-1.92-.959-3.838-1.439-5.797-.76-1.919-.76-3.358-.24-5.516z" fill="#f5e2d8" fill-rule="evenodd" fill-opacity="1" stroke="none"/><path d="M85.748 22.906c-1.919 1.919-1.679 4.797-2.878 7.196-.96 1.679-2.639 3.358-3.118 5.277-.72 2.638.72 5.037.48 7.675-.48 3.118-.24 5.996.24 9.354.479 1.92.719 3.838 1.199 5.757-.48-3.598-1.44-7.436-.96-11.034.24-3.118 1.2-5.516.48-8.634-.48-2.879.72-5.757 2.158-8.395 1.44-2.159 1.44-5.277 2.399-7.676zM99.06 45.013c0 .96 0 1.919-.28 2.878-.24.72-1 1.2-1.24 1.959-.279.72.48.96 1 1.439.52.48 1.28 1.679 2 1.919 0-.48-.72-1.2-1-1.68 0-.24-.48-.479-.48-.959-.28-.24 0-.48.24-.96.24-.998.52-1.478.24-2.438 0-.72 0-1.679-.24-2.438zM95.902 40.575c0 .96 0 1.68-.96 2.16.48.479.96 0 1.2-.48s0-.96-.24-1.68zM96.581 62.362c0 .24.72.24.96.24.72 0 1.439 0 1.919.24.48 0 .96 0 1.439-.24.72 0 1.24 0 1.959-.24h1.918c.48 0 .72-.28 1.2-.28.24.28.96.28.96.52 0 .52-1.68.52-1.92.52-1.199.24-2.638.48-3.877.48-.96 0-1.92-.24-2.639-.24h-1.199c-.24 0-.48-.24-.72-.24-.52 0-.52-.28-.52-.52zM97.86 60.124c.48-.24.72-.52 1.24-.52.48.28.72.52.96.52-.24.52-.96.28-1.24.28-.48 0-.96-.28-1.24 0zM102.138 60.084c.28-.4 1.24-.64 1.759-.64.48 0 1.2.24 1.2.64h-1.2c-.52 0-1.24-.2-1.759 0zM98.82 79.432c-.28 2.398 2.678 5.756 5.077 5.517.24-1.68-3.398-4.078-4.117-5.277z" fill="#fcfcfc" fill-rule="evenodd" fill-opacity="1" stroke="none"/><path d="M97.82 22.426s.72.24.96.24c.72.24 1.44.24 2.399.24l2.878-.72c1.2-.48 2.398-1.199 3.358-1.918.96-.48 2.159-.96 2.638-1.92-.48.48-1.199.72-1.919.96-.48.24-.72.48-1.199.72.72-.24 1.2-1.2 1.68-1.68.479-.479.959-.959 1.438-1.678-.96.48-1.679.72-2.398.96.48 0 1.199-.72 1.199-1.2-.48.24-.72 0-.96 0 0-.24.24-.24.48-.52-1.679-.24-3.358.28-5.037-.24.72 0 1.92-.24 2.399-.959-.48 0-1.44.24-1.919-.24.24 0 .48-.24.72-.24-.48 0-.96 0-1.2-.24 1.44.24 2.639-.719 3.598-1.439-1.439 0-2.638-.72-4.077-1.439h.72c-.24-.24-1.68-.72-1.44-1.439 0-.48 1.919-.72 2.399-1-1.44 0-3.598 0-4.797.52-.96.48-1.44.96-2.16.96-.959 0-1.678-.24-2.398-.24.24.48.96.48 1.44.72-.24 0-.48 0-.72.24 0 0 .24.24.48.24-.48.959-1.2.959-1.92 1.199.24.48.96.959 1.68 1.439.48.24.72.48 1.199.48.24.24.48.24.72.24-.72.24-1.2.479-1.92.479.24.48.96.96 1.44 1.479 0 0-.24 0-.24-.24 0 .24 0 .24-.24.24.24.24.72.24.72.72h-1.2c.48.72 1.68 1.199 2.399 1.679-.72.24-1.679 0-2.399.24.48.48 1.2.959 1.68 1.439-.48 0-.72 0-.96.24.24.24.48.24.72.48-.24 0 0 .479 0 .719h-.48zM117.409 21.347c.72 1.44.72 2.878.96 4.357.479 2.16 1.918 2.639 3.077 4.078-1.159-.72-1.639-2.159-1.878-3.358.48.24.72.72.919.96 0-.24-.2-.48-.2-.72.2.24.68.48.92.96 0-.48-.24-.72 0-1.2 1.679 1.2 1.199 4.317 1.679 5.996-.48-1.679.44-4.077-.48-5.996.48.72.72 1.2.72 1.679 0-.48-.48-1.44.2-1.44 0-.719-.44-1.478-.92-2.438l.72.72c-.72-1.2-1.44-1.919-1.68-3.358-.24-1.2-.48-2.399-.72-3.638 0 .76-.239 1.24-.239 1.959 0 .96.24 1.919.24 2.638-.24-.72-.68-1.439-.92-1.919-.24.24 0 .72 0 1.2-.24-.24-.24-.24-.48-.24 0 .48.24.72.24 1.2-.48-.48-1.439-1.2-1.918-1.68zM83.03 23.506c-.48 1.679-.72 3.877-1.68 5.317-.959 1.679-3.117 2.878-3.597 4.557.48-.96 1.2-1.92 1.2-2.878-.24.24-.48.72-.72.959v-.48c0 .24-.24.48-.48.48v-1.68c-.24.96-.96 1.92-1.2 2.88-.24-.72-.24-1.68 0-2.4 0 .24-.24.48-.24.72v-.24c-.24.24-.24.72-.479.96-.72-1.44 0-2.878 0-4.318 0 .48-.24 1.2 0 1.68-.24-1.92-.24-3.399.96-5.078.959-1.439 2.398-2.638 3.357-4.077 0 .96-.72 1.679-.959 2.638.48-.48.96-.72 1.2-.96 0 .24 0 .72-.24 1.2.24-.24.48-.24.48-.48.239.24.239.72 0 .96 1.198-.48 2.158-2.639 2.638-3.638-.24 1.48-.72 2.678-1.44 3.878.48-.24.72-.48.96-.72-.24.24-.24.24-.24.48 0 0 .24 0 .24-.24v.96z" fill="#5e210b" fill-rule="evenodd" fill-opacity="1" stroke="none"/><path d="M173.695 276.912v6.476c1.199 0 2.398.24 3.598 0 .68 0 2.838 0 3.318-.72 1.399-1.678-4.038-4.557-5.237-5.276-.48-.24-.96-.24-1.44-.48z" fill="#d8d7d6" fill-rule="evenodd" fill-opacity="1" stroke="none"/><path d="M108.854 60.963c.52.24 1.28.24 1.52 0-.24.48-.76.48-1.24.24zM94.463 61.443s-.24 0-.52.16h-1.04c0-.16-.28-.16-.28-.16s0 .16.28.16c0 .16.28.16.52.16.28 0 .52-.16 1.04-.32z" fill="#333" fill-rule="evenodd" fill-opacity="1" stroke="none"/><path d="M92.024 59.924c-.92 1.439-.44 2.398.44 3.837-.68-.24-1.12-1.199-1.36-1.918-.24-.96 0-1.2.68-1.92zM110.533 58.964c0 .72.72 1.44.72 2.119 0 .48-.48 1.2-.48 1.639.48-.44 1.2-1.4.96-1.879 0-.44-.48-.68-.48-.92l-.72-1.438zM111.972 59.924c.52.72.52 1.439 0 2.158.76-.72 1.52-1.679.28-2.158zM90.385 60.084c-.24.52-.52 1.519-.24 1.998-.52-.48-.8-1.239-.28-1.719z" fill="#f5e2d8" fill-rule="evenodd" fill-opacity="1" stroke="none"/><path d="M150.749 152.108c0-6.716-2.479-13.192-1.24-20.148M75.075 89.266s-3.598 3.158-4.598 5.796l7.516 7.236-3.398 5.517s12.832 17.35 16.67 24.345c4.837 8.435 22.506 31.061 23.465 34.899 1.2 3.877 9.395 157.504 9.155 162.781M131.08 89.266s3.838 3.158 4.558 5.796l-7.436 7.196 3.598 5.557s-18.749 25.504-21.907 32.94M25.025 282.589s-1.72-4.078 12.472-7.676c14.192-3.597 20.188.48 20.188.48v-4.797c0-1.719-.96-1.959-1.2-4.357 0-2.399 0-3.838-.479-6.237-.72-2.398 0-4.597-.72-5.796-.48-1.44-.72-5.037-1.678-7.196-.72-1.919-1.68-5.556-1.92-7.475 0-1.919-.479-6.236-.719-12.033-.48-5.756-.48-5.517-.48-10.593 0-5.037 1.2-6.956 2.639-12.993" fill="none" stroke="#333" stroke-width=".79951543px" stroke-linecap="butt" stroke-linejoin="miter" stroke-miterlimit="8" stroke-dasharray="none" stroke-opacity="1"/><path d="M52.648 219.187s-1.999-6.956-.48-9.394c1.48-2.399.96-7.955.72-12.992-.24-5.077 1-18.589.76-25.065-.28-6.516 2.438-16.39 2.198-19.308-.24-2.639-1.24-13.752-.96-11.314M47.371 198.8c-.76.72-1.279 1.918-1.279 3.118M47.371 196.241c-1.199-1.679-3.877-2.678-5.796-3.398-3.398-.72-6.316-1.719-9.474-.48" fill="none" stroke="#333" stroke-width=".79951543px" stroke-linecap="butt" stroke-linejoin="miter" stroke-miterlimit="8" stroke-dasharray="none" stroke-opacity="1"/><path d="M58.724 281.79c-.72-1.92-.959-5.078-2.638-6.037-2.439-1.2-5.077-1.2-7.755-1.2-2.439-.28-4.837.24-7.276.48-1.2 0-2.159.24-3.398.48-.72.24-1.919.24-2.638.96-.76.719-.48 2.398-.48 3.637 0 1.2-.28 2.159 0 3.358.24-.48.48-1.439.96-1.919.719-.959 2.158-1.439 3.397-1.439 3.119-.48 6.277-1.719 9.675-1.479 2.198 0 4.117 0 6.316.76 1.439.24 2.158 1.199 3.358 1.679z" fill="#f5e2d8" fill-rule="evenodd" fill-opacity="1" stroke="none"/><path d="M32.74 276.912v6.476c-1.16 0-2.358.24-3.558 0-.92 0-2.838 0-3.318-.72-1.439-1.678 4.038-4.557 5.237-5.276.48-.24.96-.24 1.44-.48z" fill="#d8d7d6" fill-rule="evenodd" fill-opacity="1" stroke="none"/><path d="M55.766 152.108c0-6.716 2.399-13.192 1.2-20.148" fill="none" stroke="#333" stroke-width=".79951543px" stroke-linecap="butt" stroke-linejoin="miter" stroke-miterlimit="8" stroke-dasharray="none" stroke-opacity="1"/><path d="M84.949 85.708c.52 3.118 1.239 6.476 2.678 9.394 1.439 2.879 3.358 5.037 5.277 7.716 1.679 2.638 3.398 5.276 5.556 7.715 1.68 1.919 3.118 4.078 4.318 6.476.24-.24.48-2.638.96-3.358.719-1.439 2.158-3.118 2.158-4.597-1.44 2.438-4.557.76-5.757-.72-2.638-2.638-5.077-5.996-7.475-9.154-2.159-2.639-3.358-5.797-4.557-8.915-.72-1.919-1.92-3.598-2.919-5.077z" fill="#f5e2d8" fill-rule="evenodd" fill-opacity="1" stroke="none"/><path d="M103.337 119.807s4.318 4.358 11.274 47.252M173.855 316.888s-1.48-13.232-2.479-18.07M32.58 316.888s.28-4.317 1.04-10.154M64.241 146.95s15.27.72 23.026-1.238v26.943s-13.792 4.558-22.266.24l-.76-25.944z" fill="none" stroke="#333" stroke-width=".79951543px" stroke-linecap="butt" stroke-linejoin="miter" stroke-miterlimit="8" stroke-dasharray="none" stroke-opacity="1"/><path d="m64.401 153.427 11.713 4.597 11.153-5.916" fill="none" stroke="#333" stroke-width=".79951543px" stroke-linecap="butt" stroke-linejoin="miter" stroke-miterlimit="8" stroke-dasharray="none" stroke-opacity="1"/><path d="M172.735 275.913s-14.271-4.597-23.505-.72c0 0-3.398 9.395-4.118 10.834-.96 1.439-1.2 4.357-1.44 6.756-.239 2.158-.719 8.674-.719 10.593l-.76 4.357s2.44 1.92 4.398.48c1.919-1.679 3.118-4.837 3.118-4.837s0 2.199-.72 3.878c-.719 1.439-2.398 4.557-2.918 5.516-.72 1.24-1.918 2.919-1.679 4.118.24.96 1.96 2.159 3.398.96 0 0-.48 2.158 1.2 3.357 1.719.96 2.678-.96 3.637-1.679.96-.72 3.159-2.398 3.159-2.398s1.199.24 2.198-.72c.72-.72 2.639-2.918 2.639-2.918s-.24 1.48.96 1.959c1.238.24 2.677-1.72 3.877-3.158 1-1.2 2.918-3.598 3.398-5.757.76-1.959 2.678-8.435 3.158-9.674.48-1.2 1.199-3.118 1.199-5.037 0-1.679-.48-15.91-.48-15.91z" fill="#f8f3ed" fill-rule="evenodd" fill-opacity="1" stroke="none"/><path d="M172.735 275.913s-14.271-4.597-23.505-.72c0 0-3.398 9.395-4.118 10.834-.96 1.439-1.2 4.357-1.44 6.756-.239 2.158-.719 8.674-.719 10.593l-.76 4.357s2.44 1.92 4.398.48c1.919-1.679 3.118-4.837 3.118-4.837s0 2.199-.72 3.878c-.719 1.439-2.398 4.557-2.918 5.516-.72 1.24-1.918 2.919-1.679 4.118.24.96 1.96 2.159 3.398.96 0 0-.48 2.158 1.2 3.357 1.719.96 2.678-.96 3.637-1.679.96-.72 3.159-2.398 3.159-2.398s1.199.24 2.198-.72c.72-.72 2.639-2.918 2.639-2.918s-.24 1.48.96 1.959c1.238.24 2.677-1.72 3.877-3.158 1-1.2 2.918-3.598 3.398-5.757.76-1.959 2.678-8.435 3.158-9.674.48-1.2 1.199-3.118 1.199-5.037 0-1.679-.48-15.91-.48-15.91" fill="none" stroke="#333" stroke-width=".79951543px" stroke-linecap="butt" stroke-linejoin="miter" stroke-miterlimit="8" stroke-dasharray="none" stroke-opacity="1"/><path d="M149.71 303.456s.28-3.358.519-5.517c0-2.438.52-8.954.52-8.954M148.11 317.528s3.118-2.639 4.318-4.078c.92-1.2 2.358-2.159 3.078-4.557.48-2.639 1.439-8.875 1.639-10.074M155.786 317.048s2.638-2.838 3.118-3.798c.68-.96 1.159-3.118 1.639-4.557.48-1.64 2.598-8.355 2.598-8.355M160.583 313.45s1.919-1.919 2.638-3.598c.48-1.439 2.159-4.077 2.399-5.277.48-1.199 2.158-5.037 2.158-5.037M158.424 296.74c0 .2 0 .4-.32.8M164.02 297.38l-.32.48M168.818 295.381c.24.56-.28 1.12-.56 1.36" fill="none" stroke="#333" stroke-width=".79951543px" stroke-linecap="round" stroke-linejoin="miter" stroke-miterlimit="8" stroke-dasharray="none" stroke-opacity="1"/><path d="M142.674 303.896c.959-.28 2.398 0 2.638 1.2.48 1.238-.48 2.438-1.2 3.397M148.27 316.888c0-.96-.48-1.679-1.439-1.679-1 0-1.719.96-2.478 1.44M152.188 319.846c-.72-.76-.96-1.839-2.159-1.559-.72.28-1.2 1.04-1.919 1.32M163.7 314.17c0-.96-.959-1.2-1.438-.96-.72.24-1.2.72-1.68 1.2" fill="none" stroke="#333" stroke-width=".79951543px" stroke-linecap="butt" stroke-linejoin="miter" stroke-miterlimit="8" stroke-dasharray="none" stroke-opacity="1"/><path d="M147.79 281.79c.76-1.72 1-5.158 2.679-5.877 2.398-1.48 5.077-1.2 7.715-1.48 2.439 0 4.837.28 7.236.52 1 0 2.198.48 3.158.48.96.24 2.159.24 2.878.96.72.759.48 2.718.48 3.677 0 1.2.24 2.439 0 3.398-.48-.48-.48-1.2-.96-1.679-.72-1-2.158-1.479-3.358-1.719-3.398-.24-6.276-1.719-9.674-1.479-2.158.24-4.117.24-6.276.76-1.44.48-2.159 1.199-3.358 1.679zM149.63 296.5c-.24.72 0 1.68-.24 2.639 0 .72 0 1.679-.24 2.398 0 .96 0 1.92-.48 2.639-.48.96-1.2 1.918-1.919 2.638-.24.48-.48.96-.72 1.2-.48.24-.72.24-1.199.479.48-.72.72-1.44.96-2.159.24-.48.48-1.199.96-1.679 2.158-1.918 3.117-5.516 2.877-8.395zM145.152 315.529c.48-.48.96-1.2 1.44-1.92.479-.719.719-1.438 1.198-2.198.72-1.199 1.2-2.158 1.44-3.398 0 1-.96 2.679-1.44 3.638-.24.52-.48 1.48-.72 1.959-.239.48-.479.72-.719.96-.48.24-.72.719-1.199 1.199zM148.35 318.887c-.24-.48.24-.72.48-.96.48-.48 1.2-.96 1.679-1.439 1.399-1.2 3.078-2.398 3.997-3.837-.44.48-.68 1.439-1.159 1.918-.72.72-1.44 1.44-2.119 1.92-.96.719-2.158 1.678-2.878 2.398zM154.346 309.852c-.959 0-2.158-1.599-3.118-2.318.48.48.96.48 1.44.959.48.2.959.92 1.439 1.16zM154.107 308.253c-.48-.24-.96-.52-1.44-1.04.24.8 1.44.52 1.68 1.28zM158.424 312.97c-.72-.48-2.199 0-2.479-1.199.76 0 1.24 1.2 2 1.2zM158.104 312.33c-.44-.24-1.12-.719-1.12-1.199.24.24.92.72 1.12.96zM154.826 307.694c-.24-.24-.72-.48-.96-.48.24 0 .48.24.72.24zM144.353 296.26c.28.72 1.998.96 2.718.72-.48 0-.72-.24-1.2-.24-.52 0-.999 0-1.239-.24zM144.832 294.901c.24.56.96.8 1.44.56-.24-.28-.72-.56-1.2-.56zM162.022 310.652c-.48-.24-.96-.52-1.44-.8.24.28.72.56.96.56zM167.299 308.493c-.24-.24-1-.8-1.52-.8.28.56.76.8 1.28.8z" fill="#f5e2d8" fill-rule="evenodd" fill-opacity="1" stroke="none"/><path d="M33.9 276.233s14.19-4.598 23.145-.72c0 0 3.598 9.394 4.318 10.833.72 1.44 1.2 4.358 1.439 6.756.24 2.16.72 8.675.72 10.594l.72 4.597s-2.64 1.68-4.318.24c-1.92-1.679-3.398-4.837-3.398-4.837s.28 2.438 1 3.878c.719 1.439 2.158 4.557 2.877 5.756.72 1 1.92 2.678 1.68 3.878-.48.96-1.92 2.158-3.359.96 0 0 .48 2.158-1.199 3.357-1.719.96-2.918-.96-3.638-1.679-.96-.72-3.118-2.398-3.118-2.398s-1.199.24-2.198-.72c-.96-.72-2.639-2.918-2.639-2.918s.24 1.479-.96 1.959c-1.199.24-2.638-1.72-3.877-2.919-1.2-1.439-2.878-3.837-3.358-5.996-.72-1.959-2.638-8.195-3.118-9.674-.48-1.2-1.48-3.118-1.48-5.037 0-1.679.76-15.91.76-15.91z" fill="#f8f3ed" fill-rule="evenodd" fill-opacity="1" stroke="none"/><path d="M33.9 276.233s14.19-4.598 23.145-.72c0 0 3.598 9.394 4.318 10.833.72 1.44 1.2 4.358 1.439 6.756.24 2.16.72 8.675.72 10.594l.72 4.597s-2.64 1.68-4.318.24c-1.92-1.679-3.398-4.837-3.398-4.837s.28 2.438 1 3.878c.719 1.439 2.158 4.557 2.877 5.756.72 1 1.92 2.678 1.68 3.878-.48.96-1.92 2.158-3.359.96 0 0 .48 2.158-1.199 3.357-1.719.96-2.918-.96-3.638-1.679-.96-.72-3.118-2.398-3.118-2.398s-1.199.24-2.198-.72c-.96-.72-2.639-2.918-2.639-2.918s.24 1.479-.96 1.959c-1.199.24-2.638-1.72-3.877-2.919-1.2-1.439-2.878-3.837-3.358-5.996-.72-1.959-2.638-8.195-3.118-9.674-.48-1.2-1.48-3.118-1.48-5.037 0-1.679.76-15.91.76-15.91" fill="none" stroke="#333" stroke-width=".79951543px" stroke-linecap="butt" stroke-linejoin="miter" stroke-miterlimit="8" stroke-dasharray="none" stroke-opacity="1"/><path d="M56.566 303.616s0-3.358-.24-5.517c0-2.398-.56-8.634-.56-8.634M58.405 317.847s-3.119-2.638-4.318-4.077c-1-1.24-2.438-2.199-3.158-4.597-.72-2.679-1.439-8.955-1.719-10.194M50.65 317.368s-2.6-2.879-3.319-3.838c-.44-.96-.92-2.878-1.399-4.597-.48-1.68-2.638-8.435-2.638-8.435M45.932 313.77s-1.919-1.919-2.638-3.598c-.72-1.44-2.199-4.078-2.439-5.277-.48-1.2-2.198-5.037-2.198-5.037M47.851 296.9c.24.24.24.72.48.96M42.494 297.54l.32.48M37.617 295.7c-.24.48.24.96.24 1.2" fill="none" stroke="#333" stroke-width=".79951543px" stroke-linecap="round" stroke-linejoin="miter" stroke-miterlimit="8" stroke-dasharray="none" stroke-opacity="1"/><path d="M63.761 304.176c-.96-.24-2.398 0-2.638 1.199-.48 1.16.48 2.358.96 3.278M58.165 317.048c0-.72.52-1.68 1.479-1.68 1 0 1.479.96 2.199 1.44M54.247 320.326c.52-1 .76-1.999 2.239-1.72.72.24 1.199 1 1.919 1.48M42.774 314.49c-.28-.96.96-1.2 1.44-.96.759.24.999.72 1.718 1.2" fill="none" stroke="#333" stroke-width=".79951543px" stroke-linecap="butt" stroke-linejoin="miter" stroke-miterlimit="8" stroke-dasharray="none" stroke-opacity="1"/><path d="M56.806 296.74c.24.72 0 1.68 0 2.639.24.72.24 1.679.48 2.398 0 .92-.24 1.879.24 2.599.719.959 1.398 1.918 2.118 2.638.24.48.48.96.72 1.2.48.24.719.24.919.439-.2-.68-.44-1.4-.68-2.119-.24-.48-.48-1.199-.96-1.439-2.118-2.159-3.077-5.477-2.837-8.355zM61.283 315.689c-.44-.48-.92-1.2-1.4-1.92-.479-.719-.919-1.438-1.159-2.198-.72-1.2-1.199-2.159-1.679-3.398.24 1 .96 2.679 1.44 3.638.48.76.68 1.48.919 1.959.24.48.48.72.72.96.48.24.72.719 1.159 1.199zM58.205 319.366c.2-.72-.24-.959-.48-1.199-.72-.48-1.2-.72-1.679-1.439-1.4-1.24-3.078-2.438-4.038-3.918.48.52.72 1.48 1.2 1.96.72.719 1.439 1.478 2.118 1.958.96.72 1.92 1.679 2.879 2.638zM52.168 310.332c.96-.24 2.16-1.919 3.118-2.638-.48.48-1.199.48-1.439.959-.72.48-.96.96-1.679 1.2zM52.408 308.653c.48-.44.92-.64 1.36-1.12-.2.68-1.36.48-1.6 1.12zM48.01 313.29c.76-.48 2.24 0 2.48-1.2-.72 0-1.48 1.2-2.2 1.2zM48.33 312.65c.24-.24 1.2-.52 1.2-1.359-.48.28-.96.84-1.2 1.12zM51.609 308.013c0-.24.8-.48 1.04-.48-.24.24-.52.24-1.04.48zM62.162 296.42c-.24.72-1.998.96-2.798.96.28-.24.8-.24 1.28-.48.28 0 1.039 0 1.278-.24zM61.683 295.46c-.24.2-1 .4-1.52.2.28-.2.76-.439 1.28-.2zM44.253 310.812c.48 0 .92-.4 1.36-.64 0 .44-.44.44-.88.64zM39.216 308.653c.24-.2.92-.4 1.12-.64 0 .44-.44.64-.88.64zM58.724 281.95c-.72-1.68-.959-5.038-2.638-5.757-2.439-1.44-5.077-1.2-7.755-1.44-2.439 0-4.837.24-7.276.48-.96 0-2.159.48-3.158.48-.96.24-2.159.24-2.878.96-.76.719-.48 2.638-.48 3.837 0 .96-.28 2.159 0 3.118.48-.48.48-1.2.96-1.679.719-.96 2.158-1.439 3.397-1.679 3.358-.24 6.277-1.679 9.675-1.439 2.198.24 4.357.24 6.316.72 1.439.48 2.158 1.199 3.358 1.679z" fill="#f5e2d8" fill-rule="evenodd" fill-opacity="1" stroke="none"/><path d="M105.256 176.533c0-1.999 1.6-3.638 3.518-3.638 1.959 0 3.518 1.64 3.518 3.638 0 2.039-1.56 3.638-3.518 3.638-1.919 0-3.518-1.6-3.518-3.638z" fill="#fff" fill-rule="evenodd" fill-opacity="1" stroke="none"/><path d="M105.256 176.533c0-1.999 1.6-3.638 3.518-3.638 1.959 0 3.518 1.64 3.518 3.638 0 2.039-1.56 3.638-3.518 3.638-1.919 0-3.518-1.6-3.518-3.638" fill="none" stroke="#333" stroke-width=".79951543px" stroke-linecap="butt" stroke-linejoin="miter" stroke-miterlimit="8" stroke-dasharray="none" stroke-opacity="1"/><path d="M107.735 174.494c2.718 0 1.479 2.639 2.718 3.358 2.399-1.439-.76-5.277-2.438-3.358z" fill="#bebfbe" fill-rule="evenodd" fill-opacity="1" stroke="none"/><path d="M105.736 204.316c0-1.919 1.639-3.518 3.638-3.518 2.038 0 3.638 1.6 3.638 3.518 0 1.959-1.6 3.518-3.638 3.518-2 0-3.638-1.559-3.638-3.518z" fill="#fff" fill-rule="evenodd" fill-opacity="1" stroke="none"/><path d="M105.736 204.316c0-1.919 1.639-3.518 3.638-3.518 2.038 0 3.638 1.6 3.638 3.518 0 1.959-1.6 3.518-3.638 3.518-2 0-3.638-1.559-3.638-3.518" fill="none" stroke="#333" stroke-width=".79951543px" stroke-linecap="butt" stroke-linejoin="miter" stroke-miterlimit="8" stroke-dasharray="none" stroke-opacity="1"/><path d="M108.374 202.277c2.759 0 1.24 2.679 2.759 3.638 2.198-1.679-.76-5.596-2.759-3.638z" fill="#bebfbe" fill-rule="evenodd" fill-opacity="1" stroke="none"/><path d="M106.455 232.939c0-1.879 1.6-3.438 3.518-3.438 1.96 0 3.518 1.559 3.518 3.438 0 1.919-1.559 3.438-3.518 3.438-1.918 0-3.518-1.52-3.518-3.438z" fill="#fff" fill-rule="evenodd" fill-opacity="1" stroke="none"/><path d="M106.455 232.939c0-1.879 1.6-3.438 3.518-3.438 1.96 0 3.518 1.559 3.518 3.438 0 1.919-1.559 3.438-3.518 3.438-1.918 0-3.518-1.52-3.518-3.438" fill="none" stroke="#333" stroke-width=".79951543px" stroke-linecap="butt" stroke-linejoin="miter" stroke-miterlimit="8" stroke-dasharray="none" stroke-opacity="1"/><path d="M109.254 231.14c2.358 0 1.2 2.678 2.358 3.398 2.359-1.68-.68-5.357-2.358-3.398z" fill="#bebfbe" fill-rule="evenodd" fill-opacity="1" stroke="none"/><path d="M107.735 256.684c0-1.958 1.639-3.597 3.598-3.597a3.608 3.608 0 0 1 3.597 3.597 3.583 3.583 0 0 1-3.597 3.598 3.608 3.608 0 0 1-3.598-3.598z" fill="#fff" fill-rule="evenodd" fill-opacity="1" stroke="none"/><path d="M107.735 256.684c0-1.958 1.639-3.597 3.598-3.597a3.608 3.608 0 0 1 3.597 3.597 3.583 3.583 0 0 1-3.597 3.598 3.608 3.608 0 0 1-3.598-3.598" fill="none" stroke="#333" stroke-width=".79951543px" stroke-linecap="butt" stroke-linejoin="miter" stroke-miterlimit="8" stroke-dasharray="none" stroke-opacity="1"/><path d="M110.373 254.726c2.599 0 1.2 2.678 2.599 3.637 2.118-1.679-.68-5.596-2.599-3.637z" fill="#bebfbe" fill-rule="evenodd" fill-opacity="1" stroke="none"/><path d="M53.608 247.01s19.068 3.158 32.3 1.96l.96 55.605s-14.192-.24-23.346-3.118" fill="none" stroke="#333" stroke-width=".79951543px" stroke-linecap="butt" stroke-linejoin="miter" stroke-miterlimit="8" stroke-dasharray="none" stroke-opacity="1"/><path d="M86.228 259.643s-23.186 1.679-30.462-1.92M152.188 249.169s-11.833 1.24-16.71.24l2.678 55.166s1.72 0 4.358-.24" fill="none" stroke="#333" stroke-width=".79951543px" stroke-linecap="butt" stroke-linejoin="miter" stroke-miterlimit="8" stroke-dasharray="none" stroke-opacity="1"/><path d="M136.118 259.483s8.075 0 14.63-.64" fill="none" stroke="#333" stroke-width=".79951543px" stroke-linecap="butt" stroke-linejoin="miter" stroke-miterlimit="8" stroke-dasharray="none" stroke-opacity="1"/><path d="M118.608 129.322s-6.356 8.674-7.595 12.072c0 0 3.198 13.952 4.877 27.664 1.479 13.471 9.754 158.144 9.754 158.144-5.837-143.233-4.877-142.754-6.796-158.144-.76-4.798-6.116-23.346-4.158-28.903 1.72-5.277 3.918-10.833 3.918-10.833zM35.219 193.603c3.637-.48 7.275 1.879 10.154 3.078-2.639.68-7.476-.96-9.635-1.88zM161.702 199.599c0-3.358 6.076-5.037 8.715-5.996-.72 3.358-6.756 2.638-7.955 6.236zM51.649 222.465c-1.2 2.679 0 8.435.24 11.313.48 2.919.48 7.716 1.918 9.874 3.158 5.037 14.552 3.838 19.628 4.318-3.597.72-15.23-2.639-17.669-5.997-3.158-4.317-4.837-12.992-5.596-18.029z" fill="#d8d7d6" fill-rule="evenodd" fill-opacity="1" stroke="none"/><path d="M124.764 313.49c.76 2.638.28 6.036.52 8.915.24 2.158.24 3.597 2.638 3.597 2.2 0 4.358.24 6.556-.24 2.399-.24 4.838-.959 7.236-.959-3.118 0-6.276 0-9.434-.24-2.159 0-4.597.24-5.557-1.919-.72-1.679-1.2-4.117-1.439-6.036-.24-1.679.24-3.838-.52-5.317zM105.736 122.526c.52 2.878 2.199 5.037 2.918 7.675.48 1.68.72 5.037 1.44 6.476 0-2.878 4.117-5.756 5.316-7.915-2.638 2.878-5.557-1.44-6.516-3.838-.96-2.878-.24-5.996.72-8.874-.96 2.638-2.399 4.317-3.598 6.716zM70.477 95.502l7.116 7.076-1.32 1.639-5.436-6.076-.36-2.639zM74.475 109.014s19.268 26.744 22.906 33.26c3.838 6.716 15.87 21.187 16.59 26.704 0 0-18.269-22.627-21.427-28.383-2.878-5.557-10.354-18.07-13.232-20.708-2.878-2.678-4.837-10.873-4.837-10.873zM42.494 404.595c1.24.48 10.394-22.187 12.073-26.064 3.358-8.195 4.317-16.63 6.716-25.105-2.878 18.589-15.39 34.779-19.029 52.848zM143.513 355.065c2.638 2.638 2.878 10.553 4.078 14.67 1.439 4.078 2.878 7.956 5.076 11.794 3.119 6.236 5.997 12.992 9.835 18.509-4.318-7.436-7.196-16.59-10.834-24.785-3.118-6.956-6.956-13.712-9.634-20.948zM132.04 437.535c1.48 7.036 2.678 16.43 7.515 21.747 5.077 5.556 11.114 10.353 13.272 17.829-2.398-2.399-3.837-6.236-5.316-9.394-1.92-4.118-4.558-6.996-6.996-10.394-3.878-5.517-5.557-11.553-7.236-17.83zM68.558 436.735c.72 13.072-8.874 25.865-13.431 37.418 2.398-3.358 3.837-7.476 6.236-10.834 1.679-2.678 3.598-5.556 4.797-8.475 1.679-4.797.96-13.272 3.838-16.87zM44.693 323.884s35.938 6.516 48.25 6.995l-1.918 6.956s-36.458-16.87-48.051-2.398l1.719-11.553zM159.144 324.283s-13.033 1.72-26.065 3.678c-1.439.24-5.316 0-6.516.24-1.439.24-.48 2.199-1.679 2.439-5.796.72-10.633.48-14.031.72l1.959 7.035s36.458-16.79 47.77-2.159l-1.438-11.953z" fill="#d8d7d6" fill-rule="evenodd" fill-opacity="1" stroke="none"/><path d="M92.384.2c-.76 0-1.759 0-2.518.28-1.48 0-3.758.48-4.997 1.759-.76.999-.24 2.238-1 2.998-1.28 1.24-4.277 1.24-5.516 1.759-2.999 1.239-6.037 2.998-8.036 5.516-1.998 2.24-3.238 4.997-3.238 7.756-.28 2.238-.52 3.757-1.279 5.756-.48 1.999-.76 3.998.76 5.757 1 1.279 1.998 1.999 2.278 3.757.24 1.28-.52 2.519-.28 4.038.28 1.48 1.28 2.718 2 3.998.759 1.239 2.038 2.518 3.277 3.238 1 .76 2.239 1.998 3.278 1.998.24 0 .24-.24.24-.24 2.239-.24 1.76-2.478 1.24-3.997-.48-1.999 0-2.998.52-4.757.759-2.279.479-5.037 1.758-6.756 1.24-2.279 3.478-3.038 4.477-5.797.76.28 1.28.52 1.76.52 2.518 0 4.516-1.759 7.035-1.999 3.278-.24 6.756-.24 10.034-.52 1.24 0 2.518-.24 3.758-.24h.48c.519 0 .519 0 1.279.24 1.239.28 2.518 0 3.757.28.76.24 1.52.72 2.519 1 1.759.48 2.998 1 4.757 1.999 1.759 1.239 1.759 3.238 2.238 5.237.28 2.278.28 4.517.76 6.516 0 .999 1 4.517 1.759 5.037.24 0 .24.24.24.48.76-.76 1.279-1.76 2.278-2.48 1.24-.759 2-.759 2.999-2.038 1.759-2.239 2.238-4.757 2.998-7.515.76-2 2.998-3.758 2.758-5.997 0-1-1-2.518-1.479-3.758-.52-2.518-.76-5.276-1.28-7.755-.759-4.037-2.518-5.037-5.236-7.515-2.279-1.76-4.517-5.037-7.036-6.277-1-.24-1.759-.52-2.758-.52-1.52 0-2.998.52-4.757.76h-.52c-2.239 0-4.237-1.239-6.276-1.759-.48-.24-1-.24-1.759-.24-2.479 0-5.996.52-6.756 1.76l-.24-.24C97.141.719 94.902.199 92.384.199z" fill="#fff" fill-rule="evenodd" fill-opacity="1" stroke="none"/><path d="m98.62 2.319.24-.28C97.101.559 94.823.04 92.344.04c-.76 0-1.759 0-2.518.28-1.76.24-4.038.48-5.277 1.999-.24.48-.52.999-.52 1.719 0 .52-.24.76-.48 1.279-.52.24-1.519.72-2.518.72-1 .28-2.239.519-2.998.759-2.759 1.24-5.797 2.998-8.035 5.477-2 2.278-3.278 4.997-3.278 7.995-.24 2.278-.48 3.757-1.24 5.756-.28.76-.28 1.76-.28 2.759 0 .999.28 2.238 1.04 3.238l1.479 1.479c.28.52.76 1.279.76 1.998v.52c0 .72-.24 1.72-.24 2.998v.48c.24 1.759 1.239 2.758 1.998 4.237.76 1.28 2.28 2.519 3.518 3.279.52.24 1 .72 1.52 1.239.48.24 1.239.48 1.758.72.24 0 .24-.24.48-.24.52 0 1-.24 1.28-.76.24-.24.479-.72.479-1.24 0-.719-.24-1.718-.48-2.238-.28-.76-.28-1.24-.28-1.48 0-.998.28-1.998.76-3.277.76-2.239.52-4.717 1.759-6.716.52-1 1.519-1.759 2.279-2.518.999-.72 1.758-1.72 2.238-2.999l-.24-.24v.24c.48.28 1.24.52 1.76.52 1.238 0 2.518-.52 3.517-1 1.24-.24 2.239-.759 3.518-.999 3.238-.24 6.756-.24 10.034-.52 1.519 0 2.758-.24 3.758-.24h.999c.24 0 .24.24.76.24 1.239.28 2.518 0 3.757.28.76 0 1.52.72 2.279 1 1.999.48 2.998 1 4.757 1.999 1 .72 1.52 1.239 1.759 2.238.24.76.24 1.76.52 2.998.24 2 .24 4.238.72 6.476 0 .52.279 1.52.519 2.519.24.48.48 1 .76 1.479.24.52.24.76.759 1v.24l.24.519.24-.24c.76-1 1.279-1.999 2.278-2.518.48-.24 1-.48 1.48-.76.52-.24.999-.72 1.279-1.24 1.998-2.478 2.518-4.996 3.238-7.714.28-.76 1.039-1.76 1.519-2.519.76-1 1.239-1.999 1.239-2.998v-.48c0-.52-.24-1.28-.48-1.999-.52-.52-.76-1.279-1-1.759-.519-2.758-.759-5.236-1.278-7.995-.48-1.759-1-2.998-2-4.237-.759-1-1.998-1.999-3.237-2.998-2.279-2-4.557-5.237-7.316-6.476-1-.28-1.759-.52-2.758-.52-1.48 0-2.998.52-4.757.76h-.52c-1.999 0-3.997-1.24-6.276-1.76-.48-.24-1-.24-1.719-.24-1.28 0-2.798.24-4.038.48-1.239.28-2.518.52-2.998 1.28l.24.24v-.52l-.24.28.24-.28-.24.28-.28.24h.28l.24.24v-.24c.52-.52 1.52-.76 2.758-1 1.24-.24 2.759-.52 4.038-.52.72 0 1.24 0 1.719.28 2.039.48 4.037 1.72 6.276 1.72h.52c1.759-.24 3.278-.72 4.757-.72.76 0 1.759.24 2.518.48 2.519 1.239 4.758 4.237 7.036 6.236 1.52 1.279 2.519 1.998 3.518 2.998.76 1.239 1.24 2.238 1.759 4.237.48 2.758.76 5.277 1.24 7.755.279.76.519 1.48.999 2 .28.759.52 1.238.52 1.758v.48c0 .76-.52 1.759-1 2.518-.76 1-1.52 2-1.76 2.999-.759 2.718-1.278 4.957-3.037 7.475-.48.48-.72.76-1.24 1-.48.24-.999.48-1.519.759-.999.72-1.479 1.719-2.238 2.478v.24l.24-.24v-.24c-.24 0-.24 0-.24-.24-.24 0-.52-.28-.52-.759-.76-1.24-1.24-3.238-1.479-3.997-.28-2-.28-4.238-.52-6.476-.24-1-.24-2-.48-2.999-.52-.76-1.039-1.759-2.038-2.278-1.76-1.24-2.758-1.72-4.757-2.239-.76-.24-1.52-.76-2.519-1-1.239-.24-2.518 0-3.757-.24-.24 0-.52-.239-.76-.239h-1c-1.239 0-2.518.24-3.757.24-3.278.24-6.796.24-10.314.48-1 .28-2.239.76-3.238.999-1.28.52-2.279 1-3.518 1-.52 0-1-.24-1.519-.48h-.24l-.24.24c-.52 1.239-1.279 1.998-2.038 2.758-.76.76-1.76 1.479-2.479 2.758-1.279 1.999-1.04 4.717-1.759 6.956-.52 1.28-.76 1.999-.76 3.278 0 .48 0 1 .24 1.479.24.76.52 1.52.52 2.239 0 .52-.28.76-.52 1 0 .239-.52.519-.999.519l-.24.24c-.28 0-1.04-.52-1.519-.76-.52-.24-1-.72-1.519-1-1.24-.999-2.518-1.998-3.238-3.237-.76-1.48-1.759-2.479-2.039-3.998v-.48c0-.999.28-1.998.28-2.998v-.76c0-.759-.52-1.478-1-1.998-.279-.48-.759-1-1.278-1.76-.76-.719-1-1.718-1-2.717 0-1 0-1.76.24-2.759.76-1.999 1-3.478 1.28-5.476 0-2.999 1.238-5.757 3.237-7.996 2.04-2.238 5.037-3.997 7.796-5.236.76-.28 1.758-.52 2.758-.76 1.24-.24 2.279-.52 2.758-1 .52-.52.76-.999.76-1.518 0-.48.24-1 .52-1.48C86.067 1.32 88.305.8 89.825.8c.76-.24 1.758-.24 2.518-.24 2.239 0 4.757.48 5.996 1.998l.28-.24z" fill="#333" fill-rule="evenodd" fill-opacity="1" stroke="none"/><path d="M85.508 27.224c0-.48-.24-.76-.48-1v-.24H82.79c-1.518 0-2.997 0-4.277-.52-.999-.52-1.998-1.279-2.478-2.798l-.52.28c.52 1.52 1.76 2.519 2.998 3.038 1.28.48 2.759.48 4.278.48h1.999v-.24.24c0 .28.24.52.24.76h.48z" fill="#333" fill-rule="evenodd" fill-opacity="1" stroke="none"/><path d="m81.35 26.024-.28-.24c-.239-.24-.239-.52-.239-.52 0-.999.52-1.998.76-2.478.24-1.519.48-2.758.48-3.997 0-1-.24-1.76-.48-2.759l-.52.28c.28.72.52 1.48.52 2.479 0 1.239-.24 2.478-.52 3.757-.24.48-.76 1.72-.76 2.719 0 .28 0 .28.28.52 0 .24.24.48.48.719l.28-.48zM113.571 19.748c.76 1.719 2.798 3.718 4.318 4.717.76.28 2.038.52 3.038.76s1.759.52 2.278.76c.52.479.76 1.239 1 1.998.52 1 .76 1.759 1.04 2.239.239 1 .759 1.998 1.238 2.998.52 1 1.04 1.759 2.04 2.239l.239-.48c-.76-.24-1.52-1.24-1.759-1.999-.52-1-1-1.999-1.28-2.998-.24-.52-.479-1.24-.999-2.239-.24-.76-.76-1.519-.999-1.999-.76-.52-1.799-.76-2.798-.999-1-.28-2.04-.52-2.799-.76-1.519-.76-3.278-2.758-4.037-4.517l-.52.28zM112.132 11.033c2.039 0 3.558 1 5.077 2.479 1.24 1.519 2.239 3.518 2.758 4.997h.48c-.48-1.72-1.48-3.718-2.998-5.237-1.28-1.48-3.278-2.758-5.037-2.758l-.28.52zM71.197 30.781c1.559.48 2.318 1.52 3.078 2.759.48 1.239.76 2.758.76 4.037 0 1.24 0 2.239-.52 3.238h.52c.48-.72.48-1.999.48-3.238 0-1.519-.24-3.038-.76-4.277-.76-1.28-1.76-2.519-3.278-2.798l-.28.28zM90.865 21.227h.28c1.719 0 3.718-.96 5.237-2.199C97.86 17.79 99.1 16.03 99.1 14.311v-.28h-.48v.28c0 1.48-1 3.198-2.478 4.438-1.52 1.239-3.278 1.998-4.997 1.998h-.28v.48z" fill="#333" fill-rule="evenodd" fill-opacity="1" stroke="none"/><path d="M125.444 29.702c.76-3.998 3.518-7.236 4.517-11.513h-.48c-.999 4.038-3.797 7.276-4.557 11.513h.52z" fill="#333" fill-rule="evenodd" fill-opacity="1" stroke="none"/><path d="M116.77 46.892c0-1.2 1.678-2.879 2.398-3.598.72-.96 1.679-1.92 2.158-3.118h.24l.72-.24h.24c0 .96-.96 2.158-1.44 2.878-.719.72-1.199 1.679-1.678 2.399-.24.48-.24.72-.48.959.24-.24.48-.72.48-1.2-1.2.24-1.68 1.44-2.639 1.92M99.98 36.818c.48-.72 1.92-1.92 2.879-1.92h.24c-.48 1.68-2.399 2.88-3.358 4.318-1.2 1.2-2.16 2.399-3.119 3.598-.48.72-.959 1.679-1.439 1.919v-.72c-.96.48-1.919 3.118-3.118 3.358-.48-1.919 1.919-4.077 3.118-5.516 1.44-1.92 2.639-4.078 4.318-5.757l.48.72m13.911 4.317c.24-1.2 2.399-3.118 3.358-3.838.96-1.199 1.919-2.158 2.878-3.358l.24.24c.24.48-1.2 1.92-1.679 2.399-.72.96-1.679 1.679-2.159 2.878.48-.24 1.2-.96 1.68-.96h.24c-.48 1.44-1.92 2.64-2.879 3.838 0 0 0-.24.24-.24-1.2.72-1.919 1.68-2.639 2.639-.48.48-1.199 2.159-1.918 2.159h-.24c.24-1.2 1.199-2.639 1.919-3.358.48-.72 1.918-1.92 2.158-2.879-.48 0-.72.48-1.199.48m.24-8.635c.24-.24.24-.48.48-.48s.48.24.24.72c-.24.72-1.2 1.2-1.44 1.919-.96.96-2.158 2.399-2.878 3.838.96-.48 2.638-1.92 3.598-2.639-.24.48-.96 1.2-1.44 1.68l-2.638 2.638c-1.199 1.439-2.398 3.118-3.837 4.317.24-.96.72-1.919.96-2.878-.96.24-1.44 1.2-2.16 1.679-.24-.72.96-1.68 1.44-2.159.959-.96 1.678-2.159 2.878-3.358.96-1.2 2.158-2.159 3.118-3.598.48-.48.72-1.439 1.439-1.919l.24.24m-17.75 0c0-.48.72-.96 1.2-.96h.48c-.48 1.44-2.16 2.64-3.119 3.839-1.199.959-2.158 2.158-3.118 3.358-.72.959-1.439 2.398-2.398 3.118 0-.48.24-.72 0-.72h-.48c-.96.48-1.2 2.399-2.398 2.399 0-.72.72-1.68 1.439-2.16.96-1.438 1.919-2.877 3.118-4.077.96-1.199 1.919-2.398 3.118-3.597.48-.48 1.2-.96 1.679-1.44l.48.24m5.756-1.439h-1.919c-5.996 0-12.712.48-19.908 1.919v9.594c.48-.96 1.2-1.919 1.44-3.118-.48.24-.72.72-.96 1.2.24-1.92 2.399-3.598 3.598-5.038.72-.72 1.439-1.439 2.159-2.398.24-.24.72-1.2 1.439-1.2h.48c-.48.96-1.68 1.92-1.92 2.879.96-.24 1.68-1.68 2.879-1.68h.24c-1.44 1.92-3.598 3.119-5.277 4.798-.96.96-1.919 1.919-2.639 3.118-.24.72-.959 1.919-1.439 2.399v2.398c.24 0 .24.24.48.48.48.24 1.2.72 2.159 1.2 1.919.959 4.317 1.918 6.956 1.918 2.398 0 4.797-.96 7.195-3.358.24-.24.24-.72.48-1.2.24-.479.72-1.199 1.439-1.678.72-.48 1.44-.48 2.399-.48h.24c.719 0 1.439 0 2.158.48.48.24.96.72 1.2 1.199.48.48.48 1.2.719 1.679 2.398 2.399 4.797 3.358 7.196 3.358 2.398 0 4.797-.96 6.476-1.679 1.439-.72 2.638-1.44 3.118-1.919V32.98c-7.436-1.44-14.392-1.919-20.388-1.919z" fill="#fff" fill-rule="evenodd" fill-opacity="1" stroke="none"/><path d="M101.419 43.534v-.72c-.96 0-1.68 0-2.399.48-.72.48-1.2 1.199-1.44 1.679-.239.72-.479 1.199-.479 1.439h.72l-.48-.48c-2.399 2.639-5.037 3.598-7.435 3.598-2.639 0-5.037-.96-6.956-1.919-.96-.48-1.68-.96-2.159-1.2l-.48-.479-.24-.24-.48.72h.72V32.5h-.72l.24.72c7.196-1.44 14.152-2.159 20.388-2.159v-.72.72h1.92v-.72.72c6.235 0 13.431.48 20.866 2.159l.24-.72h-.72v13.912h.72l-.48-.72c-.24.24-1.439 1.2-3.357 2.159-1.68.72-4.078 1.679-6.476 1.679-2.399 0-5.037-.96-7.436-3.598l-.48.48h.72c0-.24-.24-1.2-.72-1.919a2.89 2.89 0 0 0-1.199-1.2c-.72-.479-1.439-.479-2.398-.479v1.44c.72 0 1.439 0 1.679.239.48.24.72.72.959.96.24.48.24.959.24.959v.48c2.878 2.878 5.996 4.077 8.635 4.077 3.118 0 5.756-1.2 7.675-2.159 1.919-.959 3.118-1.918 3.118-1.918.24-.24.24-.48.24-.48V32.5c0-.48-.24-.72-.48-.72-7.675-1.678-15.11-2.158-21.347-2.158h-1.919c-6.236 0-13.192.72-20.867 2.159-.24 0-.48.24-.48.72v13.91s0 .24.24.48c0 0 1.2.96 3.118 1.92 1.919.959 4.557 2.158 7.676 2.158 2.638 0 5.756-1.2 8.634-4.077v-.48h-.24.24-.24.24c0-.24.24-.72.48-1.2l.72-.719c.24-.24.959-.24 1.679-.24v-.72z" fill="#333" fill-rule="evenodd" fill-opacity="1" stroke="none"/><path d="M79.512 36.098s-3.998 2.399 0 5.757v-5.757zM123.325 36.098v5.996s3.118-3.357 0-5.996z" fill="#333" fill-rule="evenodd" fill-opacity="1" stroke="none"/><path d="M87.987 32.02c-.72 0-1.2 1-1.44 1.24-.719.96-1.439 1.679-2.158 2.398-1.2 1.44-3.358 3.158-3.598 5.077.24-.48.48-.96.96-1.199-.24 1.2-.96 2.159-1.44 3.118v.96c.48-.48 1.2-1.68 1.44-2.399.719-1.2 1.678-2.159 2.638-3.118 1.679-1.719 3.838-2.918 5.277-4.837h-.24c-1.2 0-1.919 1.439-2.878 1.679.24-.96 1.439-1.919 1.918-2.918h-.48z" fill="#fff" fill-rule="evenodd" fill-opacity="1" stroke="none"/><path d="M80.311 42.574c-.32.48-.32.72-.32 1.2l.32-.24v-.96z" fill="#c6c6c6" fill-rule="evenodd" fill-opacity="1" stroke="none"/><path d="M97.58 31.54c-.479 0-1.198.52-1.198 1l-.48-.24c-.48.48-1.2.96-1.68 1.44-1.198 1.199-2.158 2.398-3.117 3.597-1.2 1.24-2.159 2.679-3.118 4.118-.72.48-1.44 1.439-1.44 2.159 1.2 0 1.44-1.92 2.4-2.399h.479c.24 0 0 .24 0 .72.96-.72 1.679-2.16 2.398-3.119.96-1.239 1.92-2.438 3.118-3.397.96-1.2 2.639-2.399 3.119-3.878h-.48zM102.938 34.899c-.96 0-2.399 1.24-2.879 1.959l-.48-.72c-1.678 1.68-2.918 3.838-4.357 5.797-1.199 1.439-3.638 3.597-3.118 5.516 1.2-.24 2.159-2.878 3.118-3.358v.72c.48-.24.96-1.2 1.44-1.919.999-1.2 1.958-2.439 3.158-3.638.959-1.439 2.878-2.638 3.357-4.357h-.24zM114.69 32.02c-.24 0-.24.28-.48.52l-.24-.24c-.719.48-.958 1.44-1.438 1.92-.96 1.438-2.159 2.398-3.158 3.597-1.2 1.24-1.92 2.439-2.879 3.398-.48.48-1.719 1.44-1.439 2.159.72-.48 1.2-1.44 2.159-1.68-.24.96-.72 1.92-.96 2.879 1.44-1.2 2.639-2.878 3.838-4.317 1-.96 1.96-1.96 2.679-2.679.48-.48 1.199-1.199 1.439-1.679-.96.72-2.639 2.159-3.598 2.679.72-1.48 1.919-2.919 2.878-3.878.24-.72 1.2-1.2 1.44-1.919.24-.48 0-.76-.24-.76zM120.127 33.94c-.96 1.239-1.919 2.198-2.878 3.397-.96.72-3.118 2.639-3.358 3.878.48 0 .72-.48 1.2-.48-.24.96-1.68 2.159-2.16 2.879-.719.72-1.678 2.158-1.918 3.358h.24c.72 0 1.439-1.68 1.918-2.16.72-.959 1.44-1.918 2.639-2.638-.24 0-.24.24-.24.24.96-1.199 2.399-2.438 2.878-3.877h-.24c-.48 0-1.199.72-1.679.96.48-1.2 1.44-1.92 2.16-2.88.479-.479 1.918-1.918 1.678-2.398l-.24-.28zM122.286 39.936l-.72.28h-.24c-.48 1.199-1.439 2.158-2.158 3.118-.72.76-2.399 2.438-2.399 3.638.96-.48 1.44-1.68 2.639-1.92 0 .48-.24.96-.48 1.2.24-.24.24-.48.48-.96.48-.719.96-1.678 1.679-2.438.48-.72 1.439-1.919 1.439-2.918h-.24z" fill="#fff" fill-rule="evenodd" fill-opacity="1" stroke="none"/><path d="M101.898 78.472c15.75-2.238 16.23-9.194 17.79-13.272 1.598-4.277 2.918-16.63 2.918-16.63s-4.717 3.838-10.114 3.359c-5.637-.44-8.115-4.478-10.834-4.957h-.68c-2.718.48-5.196 4.517-10.833 4.957-5.396.48-10.153-3.358-10.153-3.358S81.59 60.923 82.95 65.2c1.559 4.077 2.038 11.033 17.789 13.271h1.16z" fill="#68b75f" fill-rule="evenodd" fill-opacity="1" stroke="none"/><path d="M101.898 78.472c15.75-2.238 16.23-9.194 17.79-13.272 1.598-4.277 2.918-16.63 2.918-16.63s-4.717 3.838-10.114 3.359c-5.637-.44-8.115-4.478-10.834-4.957h-.68c-2.718.48-5.196 4.517-10.833 4.957-5.396.48-10.153-3.358-10.153-3.358S81.59 60.923 82.95 65.2c1.559 4.077 2.038 11.033 17.789 13.271h1.16z" fill="none" stroke="#333" stroke-width=".79951543px" stroke-linecap="butt" stroke-linejoin="miter" stroke-miterlimit="8" stroke-dasharray="none" stroke-opacity="1"/><path d="M102.378 75.994c-.44-1.12 0-2.678 0-4.038-.2-1.998-.44-3.797-.68-5.836-.44-3.358-.24-6.516-.44-9.914-.24-2.479-.959-5.397 0-7.875-.959 2.478-.719 5.396-.48 7.875.24 3.398 0 6.556.48 9.914.44 2.039.44 3.838.68 5.836.24 1.36 0 2.919.44 4.038z" fill="#fff" fill-rule="evenodd" fill-opacity="1" stroke="none"/><path d="M81.35 51.089c.24.68 1.6 1.6 2.28 2.039.879.44 2.038.68 2.918.88 1.798.24 3.837.479 5.636.24 3.158-.24 5.397-2.92 7.436-5.198 0 .92-.44 1.8-.68 2.719-.2 1.359-.2 2.478-.44 3.837-.24 2.479.24 4.917.24 7.396 0 4.277.2 8.555 1.32 12.592-.88-.2-1.8-.2-2.679-.2a14.35 14.35 0 0 1-5.876-2.038c-2.679-1.56-4.957-4.038-6.077-6.956-.92-2.479-1.799-4.957-2.238-7.676-.24-1.319-.48-2.438-.68-3.597-.24-.88-.92-1.8-.92-2.679z" fill="#7bd66e" fill-rule="evenodd" fill-opacity="1" stroke="none"/><path d="M102.858 57.605c1.119.88 2.918-.48 3.358-1.12.44-.479.68-1.358 1.119-1.598.48-.24 1.36.24 1.799.44 1.599.24 3.158.919 4.757 1.159 1.32.44 2.678.2 4.038.2.2 1.119-1.36 2.718-2.04 3.398-1.358 1.798-2.917 3.158-4.716 4.717-2.479 2.238-4.518 5.876-5.837 8.794-.24.44-.68 1.8-1.16 1.8-.879.2-1.318-4.278-1.318-4.958-.48-2.478 0-4.517 0-6.995.2-1.12.44-3.598 0-4.478z" fill="#5fa553" fill-rule="evenodd" fill-opacity="1" stroke="none"/><path d="M43.334 321.005c-1.2 0-2.439-1.679-3.638-2.918-1-1.439-2.918-3.877-3.398-6.076-.76-1.919-2.678-8.275-3.198-9.714-.48-1.2-1.44-3.158-1.44-5.117 0-1.68.72-16.03.72-16.03s7.076-2.2 14.352-2.2c3.198 0 6.356.24 9.034 1.44 0 0 3.638 9.514 4.358 10.953.76 1.48 1.239 4.398 1.479 6.836.24 2.159.72 8.755.72 10.674l.719 4.637s-1.2.72-2.679.72c-.48 0-1.199 0-1.679-.48-1.958-1.72-3.158-4.637-3.158-4.637s0 2.198.72 3.677c.72 1.44 2.199 4.598 2.918 5.837.72.96 1.959 2.678 1.72 3.878-.24.72-1.24 1.439-2.2 1.439-.48 0-.999-.24-1.239-.48 0 0 .52 2.199-1.2 3.398-.239.28-.719.28-.959.28-1.239 0-1.958-1.24-2.678-1.96-1-.719-3.198-2.438-3.198-2.438h-.24c-.48 0-1.2 0-1.919-.72-.999-.719-2.678-2.917-2.678-2.917s.24 1.439-1 1.918h-.24m101.02-7.035c-1.44 0-2.679-.96-2.679-.96l.72-4.397c0-1.959.52-8.515.76-10.714.24-2.398.479-5.316 1.438-6.795.72-1.44 4.158-10.954 4.158-10.954 2.918-1.2 6.076-1.439 9.234-1.439 7.316 0 14.352 2.199 14.352 2.199s.52 14.311.52 16.03c0 1.959-.76 3.878-1.24 5.117-.48 1.2-2.439 7.795-3.158 9.714-.48 2.199-2.439 4.637-3.398 5.837-1.24 1.239-2.439 3.158-3.678 3.158h-.24c-1.199-.48-.96-1.92-.96-1.92s-1.958 2.16-2.677 2.919c-.72.72-1.48.72-1.96.72h-.24s-2.198 1.719-3.157 2.438c-.72.48-1.48 1.919-2.679 1.919-.24 0-.72 0-.959-.24-1.719-1.2-1.24-3.398-1.24-3.398-.479.24-.959.48-1.199.48-1.239 0-1.958-.96-2.198-1.44-.24-1.239.96-2.918 1.719-4.157.48-.96 2.158-4.117 2.918-5.596.72-1.68.72-3.878.72-3.878s-1.24 3.158-3.159 4.877c-.48.48-1.239.48-1.718.48M120.727 81.43c-7.276 3.918-14.591 5.118-20.668 5.118-10.233 0-17.27-3.398-17.27-3.398-12.192 7.555-34.099 12.632-42.134 17.989-8.035 5.356-11.673 5.596-15.07 15.11-3.438 9.235-9.035 49.85-9.755 63.202-.48 13.392-4.637 21.907-2.678 37.458 2.199 15.35.72 40.135 0 59.603-.24 11.673 5.597 14.112 10.234 14.112 2.918 0 5.117-.96 5.117-.96s-3.158 34.26-3.158 42.295c0 8.035-4.158 22.146-4.158 38.177 0 16.07-12.672 141.554-12.672 141.554 20.947 6.596 47.97 8.755 74.994 8.755 53.048 0 105.137-8.475 105.137-8.475s-1.92-10.714-3.398-27.504c-1.2-16.79-3.158-32.1-3.158-55.446 0-23.346-2.679-38.936-1.48-68.359 1.48-29.422-1.918-70.997-1.918-70.997 10.194-2.678 9.954-7.795 9.954-15.35 0-7.516-.48-11.913-.96-22.107-.24-10.474.96-11.673.48-20.188-.48-8.514 0-15.59.48-29.462.48-13.831-2.679-26.744-3.878-35.258-1.48-8.515-3.638-43.294-6.836-49.85-3.158-6.796-9.234-13.872-12.872-15.83-3.678-1.68-23.626-10.194-26.304-11.394-2.678-1.479-10.234-3.677-12.912-5.356a80.258 80.258 0 0 0-5.117-3.438z" fill="#6aba65" fill-rule="evenodd" fill-opacity="1" stroke="none"/><path d="M188.646 274.314h.48c0-7.516-.48-11.913-.96-22.347v-3.917c0-5.597.72-8.035.72-12.633 0-.96 0-2.198-.24-3.398v-7.315c0-5.837.24-12.393.48-22.107v-2.678c0-12.912-2.679-24.825-3.878-32.62-.72-4.118-1.72-15.071-2.679-25.785-.72-5.077-1.199-10.433-1.958-14.83-.24-2.16-.72-4.118-.96-5.597-.48-1.68-.72-2.919-1.2-3.878-1.718-3.398-3.917-6.796-6.355-9.714-2.439-2.918-4.877-5.117-6.796-6.076-1.959-1-7.795-3.678-13.632-6.117-2.918-1.199-5.836-2.398-8.035-3.398-2.439-.96-4.158-1.919-4.637-2.198-1.44-.72-4.118-1.68-6.556-2.399-2.679-1-5.117-1.959-6.356-2.918-2.639-1.72-5.077-3.158-5.077-3.158l-.24-.28-.28.28a45.398 45.398 0 0 1-20.428 4.837c-4.877 0-9.234-.72-12.432-1.68-1.44-.239-2.639-.759-3.398-.999-.48-.24-.72-.48-.96-.48h-.24v-.24h-.479c-6.116 3.879-14.631 7.037-22.666 9.715-7.756 2.918-15.311 5.597-19.468 8.275-3.878 2.678-6.796 4.157-9.235 6.076-2.438 1.96-4.397 4.398-6.076 9.275-.76 2.398-1.72 6.556-2.679 11.912-3.158 16.03-6.596 41.335-7.075 51.57-.48 10.433-3.158 18.228-3.158 28.942 0 2.638.24 5.316.48 8.475.999 6.116 1.239 13.391 1.239 21.427 0 12.392-.76 26.264-1.24 37.937v1.199c0 5.596 1.48 9.034 3.638 10.953 1.959 2.199 4.637 2.679 7.076 2.679 2.918 0 5.357-.96 5.357-.96l-.24-.48h-.24s-1 8.515-1.72 17.99c-.959 9.714-1.678 20.187-1.678 24.305 0 3.917-1 9.514-1.959 16.07-1.24 6.316-2.199 14.112-2.199 22.107 0 3.917-.72 14.87-1.958 28.702-1.68 21.187-4.358 49.37-6.556 72.236-1.2 11.434-2.2 21.667-2.919 28.943-.24 3.398-.72 6.356-.72 8.515-.239 1.959-.519 3.158-.519 3.158v.24l.52.28c18.229 6.316 44.773 8.474 71.796 8.474 53.048 0 108.295-8.235 108.295-8.235h.48v-.52s0-.719-.24-1.918c-.72-3.918-2.16-12.912-3.159-25.545-1.199-16.79-3.158-32.1-3.158-55.446 0-18.749-1.719-32.34-1.719-52.048 0-5.117 0-10.474.28-16.31.24-4.878.24-10.194.24-15.791 0-26.504-2.199-55.207-2.199-55.207h-.48l.24.48c2.44-.72 4.358-1.479 5.597-2.438 2.199-1.2 3.398-3.158 4.118-5.117.48-2.199.48-4.358.48-7.036v-1.24h-.96v1.24c0 3.398 0 6.316-1.2 8.515-.759.96-1.478 1.919-2.918 2.918-1.239.72-3.198 1.68-5.356 2.159l-.52.28v.24s0 .48.28 1.199c.24 6.076 1.919 30.901 1.919 54.007 0 5.597 0 10.913-.24 15.79-.24 5.837-.24 11.194-.24 16.31 0 19.709 1.719 33.3 1.719 52.049 0 23.346 1.919 38.896 3.158 55.446 1.44 16.79 3.398 27.464 3.398 27.464h.48v-.48s-.96.24-2.439.24c-11.433 1.719-59.364 8.035-105.856 8.035-27.023 0-53.327-2.199-71.556-8.515l-.24.48h.48s3.158-31.341 6.316-64.68c1.719-16.79 3.158-34.06 4.397-47.932 1.2-14.071 1.919-25.025 1.919-28.942 0-7.995 1-15.55 2.199-22.107.999-6.556 1.958-11.913 1.958-16.07 0-3.878.72-14.591 1.72-24.066.24-4.877.719-9.474.959-12.632.24-1.719.48-3.198.48-4.157v-1.44l.24-.76-.72.24h-.24c-.48.28-2.439 1-4.877 1-2.199 0-4.637-.48-6.556-2.438-1.72-1.72-3.158-4.877-3.158-10.234v-.96c.48-11.912 1.199-25.544 1.199-38.176 0-8.036-.24-15.591-1.2-21.667-.28-2.919-.519-5.597-.519-8.235 0-10.474 2.678-18.27 3.158-28.943.52-6.836 1.959-20.188 3.918-33.1.96-6.556 1.959-12.872 3.158-18.229.96-5.356 1.959-9.514 2.678-11.912 1.72-4.638 3.398-6.836 5.597-8.755 2.438-1.959 5.357-3.438 9.234-6.076 3.918-2.439 11.473-5.117 19.508-8.036 7.996-2.918 16.55-5.836 22.627-9.754l-.24-.48-.24.48s7.276 3.438 17.51 3.438c6.316 0 13.391-1.239 20.947-5.117l-.24-.48-.28.48s.52.48 1.48.96c.959.48 2.198 1.479 3.397 2.198 1.48.96 4.157 1.96 6.596 2.919 2.678.96 5.357 1.958 6.556 2.678.72.24 2.439.96 4.637 1.959 3.638 1.679 8.275 3.638 12.393 5.317 4.397 1.958 8.035 3.677 9.274 4.157 1.68.96 4.118 3.158 6.556 5.837 2.199 2.918 4.637 6.316 6.076 9.714.48.72.72 1.958 1.24 3.398 1.199 5.596 2.158 15.35 3.158 24.585.96 9.234 1.679 17.989 2.438 21.627 1.2 8.035 3.878 19.948 3.878 32.62v2.678c-.24 9.714-.48 16.27-.48 22.107v7.315c.24 1.2.24 2.439.24 3.398 0 4.598-.72 7.036-.72 12.633v4.157c.48 10.194.96 14.591.96 22.107h.48zm-132.4 38.456-.48.24c.72 1.44 2.439 4.598 3.158 5.837.24.48.72.96.96 1.679.24.48.52 1.239.52 1.479v.24c0 .24-.28.48-.76.72-.24.24-.48.479-.96.479-.24 0-.72-.24-.959-.48l-1.24-.72.48 1.2v1c0 .24 0 .719-.24.959 0 .48-.24.72-.719.96-.24.24-.48.24-.72.24-.48 0-.759-.24-1.239-.72-.48-.24-.72-.72-1.199-.96-.48-.48-1.24-1-1.959-1.479-.72-.72-1.2-.96-1.2-.96l-.239-.24h-.28c-.24 0-.96 0-1.439-.479l-1.719-1.719c-.72-.72-.96-1.2-.96-1.2l-1.199-1.238.24 1.479v.959c-.24.24-.52.24-.76.48-.24 0-.479 0-.719-.24l-1.2-1.2c-.519-.48-.759-.999-1.238-1.478-1.2-1.2-2.919-3.638-3.638-5.597-.24-1.2-1-3.158-1.48-5.357-.719-1.919-1.199-3.877-1.438-4.357-.48-1.48-1.48-3.158-1.48-5.117 0-.72.24-4.837.48-8.755v-5.117c.28-1.199.28-2.158.28-2.158h-.52v.48h.52c1.2-.48 7.516-2.2 13.872-2.2 3.158 0 6.316.24 8.994 1.48v-.52l-.24.24s.72 2.438 1.68 4.877c.519 1.48.999 2.678 1.478 3.638.48 1.239.72 2.198.96 2.438.48.76.76 1.72 1 2.919.24 1.239.24 2.438.479 3.677 0 1.2.24 3.398.48 5.557.24 2.199.24 4.157.24 5.117l.72 4.637h.519l-.28-.48c-.24 0-1.2.72-2.399.72-.52 0-.999 0-1.479-.48-.96-.72-1.719-1.719-2.198-2.678-.24-.48-.48-1-.72-1.24v-.48h-.24l-.72.24s0 2.2.72 3.918l.48-.24.48-.24c-.24-.759-.48-1.718-.72-2.438v-1l-.24-.24h-.24l-.48.24s.24 1 .72 1.96c.72.959 1.44 2.198 2.439 2.918.72.72 1.439.72 2.198.72 1.68 0 2.919-.96 2.919-.96l.24-.24-.76-4.637h-.48.48c0-.96 0-3.158-.24-5.357-.24-2.159-.48-4.357-.48-5.597-.24-.959-.24-2.398-.48-3.637-.24-1.2-.479-2.199-.959-3.158-.24-.24-.52-1.2-1-2.2-.719-1.678-1.438-3.877-2.198-5.596a98.45 98.45 0 0 1-1.2-2.918v-.24h-.239c-2.678-1.439-6.076-1.679-9.234-1.679-7.556 0-14.631 2.159-14.631 2.159l-.24.28v.24s-.72 14.35-.72 16.03c0 2.199.96 4.157 1.44 5.357.28.72.999 2.438 1.478 4.637.72 1.919 1.2 4.117 1.72 5.077.479 2.198 2.398 4.637 3.637 6.116.48.48.96 1.2 1.719 1.919.24.24.72.72.96.72.24.28.719.52 1.199.52h.24c.76-.24 1.239-.76 1.239-1.24.24-.48.24-.72.24-.96v-.24h-.48l-.48.24s.48.72 1.2 1.2c.48.76 1.199 1.479 1.719 1.959.72.72 1.678.72 2.158.72h.28v-.48l-.52.48s2.199 1.718 3.198 2.438c.48.24.72.72 1.2.96.48.519 1.199.998 1.958.998.48 0 .72-.24 1.2-.48.72-.28.96-.759 1.239-1.238.24-.48.24-1.2.24-1.44 0-.76 0-1.239-.24-1.239l-.28.24-.48.24c.76.52 1.24.76 1.72.76.719 0 1.199-.24 1.718-.76.48-.24.72-.72.96-1.2v-.48c0-.719-.24-1.238-.72-1.958-.24-.72-.76-1.44-1-1.959-.719-.96-2.198-4.117-2.917-5.556l-.48.24zm115.37-10.713h-.48c-.24.48-.72 2.438-1.479 4.357-.72 2.199-1.2 4.158-1.679 5.357-.48 1.959-2.198 4.397-3.398 5.597-.52.72-1.239 1.479-1.719 1.958l-.72.72c-.24.24-.519.24-.759.24-.48-.24-.48-.24-.72-.48v-.96l.24-1.478-1.199 1.239s-.48.48-1 .96c-.479.719-1.198 1.438-1.678 1.958-.48.48-1.24.48-1.48.48h-.24l-.239.24s-.48.24-1.2.72c-.759.719-1.478 1.239-1.958 1.718-.48.24-.72.72-1.24.96-.479.48-.719.72-1.199.72-.24 0-.48 0-.72-.24-.479-.24-.759-.72-.759-.96-.24-.24-.24-.72-.24-.96v-.999l.52-1.2-1.24.72c-.479.24-.719.48-.959.48-.48 0-.72-.24-1.239-.48-.24-.24-.48-.48-.48-.72v-.239c0-.48.24-1 .48-1.48.24-.719.76-1.438 1-1.918.72-1 2.438-4.157 3.158-5.597.72-1.719.72-3.917.72-3.917l-.72-.24h-.24c-.24.72-1.48 3.158-2.918 4.397-.48.48-1 .48-1.48.48-.72 0-1.199-.24-1.678-.24-.28-.24-.52-.24-.52-.48h-.24l-.24.24.48.24.76-4.637c0-.96 0-2.918.24-5.117.24-2.159.479-4.597.479-5.597.24-1.199.24-2.398.48-3.637.24-1.2.48-2.199.72-2.919.24-.48.759-1.199 1.238-2.438 1.2-3.158 3.159-8.515 3.159-8.515l-.48-.24.24.48c2.678-1.2 5.836-1.44 8.994-1.44 3.638 0 7.316.48 9.994.96 1.2.24 2.199.76 3.158.76.24.24.48.24.72.24.24.24.48.24.48.24v-.48h-.48s0 .96.24 2.158c0 4.158.24 12.673.24 13.872 0 1.959-.72 3.638-1.2 5.117h.48l.48.24c.48-1.2 1.239-3.158 1.239-5.357 0-1.959-.48-16.03-.48-16.03v-.52h-.28s-7.035-2.159-14.59-2.159c-3.159 0-6.557.24-9.235 1.68h-.24v.24s-.24.479-.76 1.478c-.48 1.2-1.199 3.398-1.918 5.357-.48.72-.76 1.68-1 2.439-.48.72-.72 1.199-.72 1.439-.48.96-.719 1.959-.959 3.158-.24 1.24-.24 2.678-.48 3.638 0 1.239-.28 3.438-.52 5.596-.239 2.199-.239 4.398-.239 5.357h.48-.48l-.72 4.637.24.24s1.24.96 2.919.96c.72 0 1.479 0 1.958-.72 1.2-.72 1.96-1.959 2.439-2.918.72-.96.96-1.96.96-1.96l-.48-.239h-.48v.48c0 .48-.24 2.198-.76 3.158-.72 1.479-2.158 4.637-2.918 5.596-.24.52-.72 1.24-.96 1.96-.48.479-.719 1.198-.719 1.958v.48c.24.48.48.96.96 1.199.48.48.999.76 1.718.76.48 0 .96-.28 1.68-.76l-.48-.24-.48-.24v1.24c0 .24 0 .72.24 1.439.24.48.48.96 1.24 1.199.239.28.719.52 1.198.52.72 0 1.48-.52 1.96-1 .479-.24.719-.72.959-.96.96-.719 3.158-2.438 3.158-2.438l-.24-.48v.48h.24c.48 0 1.479 0 2.198-.72.48-.479 1.2-1.239 1.72-1.958.719-.72.959-1.2.959-1.2l-.24-.24h-.48v.24c0 .24 0 .48.24.96 0 .48.48.96.96 1.24h.48c.519 0 .999-.28 1.238-.52.48-.24.96-.72 1.44-1.2.52-.48.76-.96 1.239-1.479 1.2-1.439 2.918-3.877 3.638-6.076.48-.96.959-3.158 1.719-5.077.48-2.199 1.199-4.158 1.439-4.637l-.48-.24z" fill="#333" fill-rule="evenodd" fill-opacity="1" stroke="none"/><path d="M178.652 289.145c-1.24.52-2.679.76-4.398.76h-1.759v.999h1.76c1.718 0 3.437-.24 4.876-.72l-.48-1.04zM171.056 278.791c.28.48.28.96.52 1.719 0 .48.24.72.48.96.24.48.48.719.96.959h.999c.48 0 .72 0 1.199-.24.48-.24.72-.48 1.24-.96.239-.24.479-.24.719-.24h.24l.48.48.239.24c.24.24.52.24.76.24s.48 0 .72-.24c.239 0 .479-.24.719-.48.24-.48.48-.959.76-1.479.24-.48.24-.959.479-1.199.48-1.479 1.2-2.958 1.679-4.397 1-2.439 1.24-4.877 1.719-7.076 0-.24.24-.76.24-1 .24-.479.24-.959.48-1.199 0-.24-.24-.24-.24-.48 0 0 0-.28-.24-.28l-.48.76.24-.24-.24.24.24-.24-.24.24v-.24.24-.24.24s-.24.48-.24.72c-.24.48-.24.72-.48 1.24-.48 2.438-.76 4.876-1.718 7.075-.48 1.44-.96 2.918-1.72 4.157-.24.48-.48 1.2-.719 1.68 0 .24-.24.759-.24.759-.24.24-.24.48-.48.48h-.24c-.24 0-.24-.24-.52-.48-.239 0-.239-.24-.719-.52h-.48c-.48 0-.719 0-.959.28-.52.24-.76.72-1.239.96-.24.24-.72.24-.96.24h-.52c-.239-.24-.479-.24-.719-.48s-.24-.72-.48-1.24c0-.48-.24-.959-.48-1.439l-.759.48zM147.51 283.148a15.005 15.005 0 0 1-4.677-3.877 8.63 8.63 0 0 1-1.479-4.877c0-2.919 1.24-6.077 2.439-9.475 1.479-3.158 2.958-6.356 3.957-9.514 2.2-8.035 6.357-15.79 6.357-24.305 0-1.959 0-3.918-.72-5.837-1.959-7.555-2.438-16.07-2.438-24.585 0-4.157 0-8.275.24-12.152v-.76c0-2.678-.52-4.357-1.24-5.836-.72-1.68-1.479-3.158-2.199-5.597-1.239-4.597-1.719-10.713-1.719-16.03 0-1.959.24-3.918.24-5.877h-.999c0 1.96-.24 3.678-.24 5.877 0 5.317.48 11.433 1.959 16.27.52 2.439 1.479 4.157 1.959 5.597.76 1.479 1.239 2.918 1.239 5.596v.76c-.24 3.877-.24 7.995-.24 12.152 0 8.515.48 17.03 2.439 24.825.76 1.92.76 3.638.76 5.597 0 8.035-4.198 15.79-6.397 24.065-.96 2.919-2.438 6.077-3.678 9.515-1.479 3.158-2.718 6.556-2.718 9.714 0 1.959.52 3.637 1.479 5.356 1.24 1.48 2.718 2.919 5.157 4.118l.52-.72zM57.485 283.388c1.959-1.919 3.158-3.398 4.118-4.837.72-1.479.96-2.918.96-4.397 0-2.679-.96-5.117-2.16-8.755-1.679-5.836-.959-12.672-2.438-18.988-1.2-5.357-2.878-10.714-2.878-16.07v-.24c.24-4.118 1.439-7.516 2.158-12.153.72-7.076 0-14.112 1.2-20.708.52-3.397.999-6.556.999-9.714 0-2.678-.24-5.596-1-8.514-.48-3.159-.959-6.836-.959-10.234v-3.638c.24-1.48.24-3.158.24-4.637 0-2.919-.24-5.837-.24-8.995v-1.479h-.96v1.48c0 3.157.24 6.075.24 8.994 0 1.479 0 3.158-.24 4.637v3.638c0 3.677.48 7.075.96 10.473.72 2.919.96 5.597.96 8.275 0 3.158-.48 6.077-.96 9.475-1.2 6.835-.48 14.111-1.2 20.947-.479 4.357-1.918 7.795-2.198 12.153v.24c0 5.596 1.72 10.953 2.918 16.31 1.44 6.076.72 12.912 2.439 18.988 1.2 3.638 2.159 6.316 2.159 8.515 0 1.24-.24 2.438-.96 3.917-.72 1.2-1.919 2.679-3.877 4.598l.72.72zM29.022 290.184c.48-.48.96-.72 1.72-.96.48-.24 1.199-.519 1.438-.759l-.48-1c-.24.28-.719.52-1.478.76-.48.24-1.2.76-1.96 1l.76.96zM32.18 283.348c-.48-.24-.959-.48-1.439-.48-.52 0-.999.24-1.479.48-.48.24-1 .52-1.239.76-1.48.96-2.439 1.439-4.157 1.439h-.72c-1.48 0-2.479-.48-3.198-1.2-.76-.759-1.24-1.958-1.24-3.397-.24-.52-.24-.76-.24-1 0-2.678 1.24-5.356 1.24-7.995 0-.52 0-1.24-.24-1.959-.28-.959-.28-1.719-.28-2.678 0-1.2.28-2.439.52-3.638.24-1.24.48-2.438.72-4.157v-.96c0-1.959-.48-3.877-.48-5.836v-1.919l-.76-.28c-.24.76-.24 1.48-.24 2.199 0 1.959.52 3.877.52 5.836v.96c0 1.479-.52 2.678-.76 3.917-.24 1.2-.479 2.679-.479 3.878 0 .96 0 1.959.24 2.918.24.48.24 1.2.24 1.72 0 2.398-1.24 5.076-1.24 7.994 0 .24 0 .76.28 1 0 1.679.72 2.918 1.44 4.117.999.96 2.238 1.44 3.957 1.44h.72c1.958 0 3.198-.72 4.637-1.68.28-.24.76-.48 1.239-.72.24 0 .76-.239 1-.239s.48 0 .719.24l.72-.76zM37.217 277.952c-.48-.48-.72-.96-1.199-1.44-.24-.48-.72-.999-1.439-1.479-.72-.48-1.44-.72-2.199-.96-.48-.479-.959-.719-1.439-1.478-.96-1.44-1.199-2.918-1.199-4.837v-1.96c0-1.678-.24-3.397-.24-4.836 0-1.959.24-3.918 1.2-5.357l-.48-.24-.24.48c.48.24.72.48.96.96 0 .24.24.719.24 1.239 0 .24 0 .48-.24.48l.959.24c.24-.24.24-.48.24-.72 0-.76-.24-1.24-.48-1.72s-.48-.959-1.2-1.438l-.48-.28-.239.52c-.96 1.678-1.24 3.637-1.24 5.836 0 1.679.28 3.398.28 4.837v1.959c0 1.919.24 3.638 1.2 5.356.72.96 1.439 1.44 2.159 1.68.48.48 1.239.719 1.958 1.239.48.24.96.72 1.2 1.199.24.24.72.96 1.199 1.44l.72-.72zM46.452 276.672v-.48c0-.48.28-.959.52-1.678.48-.76 1.479-1.48 2.238-2.439 1-.72 1.72-1.719 2.239-2.678.72-1.68.96-3.638.96-5.597 0-2.159-.24-4.117-.96-5.796-1.52-3.918-1.52-6.836-1.76-11.194-.239-3.158-1.238-5.356-2.717-7.995l-.24-.52-.52.52c-.24.48-.76.96-.76 1.44l1 .24c0-.24.28-.72.52-.96l-.52-.48-.24.24c1.48 2.678 2.239 4.597 2.478 7.755.24 4.118.24 7.276 1.76 11.193.719 1.68.999 3.638.999 5.557 0 1.72-.28 3.678-1 5.117-.52 1.2-1.759 2.199-2.758 3.398-.48.48-.96 1.2-1.479 1.719-.48.72-.76 1.44-.76 2.159v.72l1-.24zM163.061 273.794c.28.96.76 1.44 1.24 1.919.48.48.999.72 1.718.72.72 0 1.72-.48 2.439-.96a5.793 5.793 0 0 0 1.479-2.638c.24-1.72 0-3.398.48-4.877.24-1.44 1.239-2.639 1.719-4.118 1.239-3.358 1.479-7.236 2.198-10.394.48-2.918.96-6.316.96-9.194v-1h-.96v1c0 2.878-.48 6.036-.96 8.955-.759 3.397-.998 7.035-2.238 10.153-.48 1.48-1.199 2.679-1.679 4.358-.52 1.719-.28 3.398-.52 4.877-.24.72-.719 1.439-1.199 2.158-.48.48-1.239.72-1.719.72s-.72 0-1.239-.24c-.24-.48-.48-.96-.72-1.679l-.999.24z" fill="#333" fill-rule="evenodd" fill-opacity="1" stroke="none"/><path d="M154.067 273.075c0 .48 0 .72-.24.959 0 0-.24.24-.48.24-.48 0-.72-.24-1.2-.48a5.438 5.438 0 0 1-2.158-1.959c-.48-.96-.72-1.919-.72-2.918 0-.48 0-1.2.24-1.679.24-2.199 1.44-4.397 2.639-6.556 1.2-2.199 2.678-4.397 3.398-6.596 1.919-4.118 4.077-9.234 4.317-14.071 0-.24-.24-.52-.24-.52h-.96s.24.28.24.52c0 4.597-2.398 9.474-4.077 13.831-1 1.959-2.198 4.158-3.398 6.316a20.875 20.875 0 0 0-2.878 6.836c-.28.72-.28 1.2-.28 1.919 0 1.24.28 2.439.76 3.398.72 1 1.439 1.959 2.638 2.438.48.24.96.48 1.68.48.479 0 .998-.24 1.238-.72.48-.24.48-.719.48-1.438h-1zM151.148 218.388c-.48.52-12.152 7.515-43.054 7.515-13.391 0-30.421-1.439-51.808-5.077l-.28.96c21.427 3.637 38.697 5.077 52.088 5.077 31.861 0 43.534-7.476 43.774-7.476l-.72-1z" fill="#333" fill-rule="evenodd" fill-opacity="1" stroke="none"/><path d="m153.067 226.383-.24.28c-1.918.72-17.749 7.715-46.212 7.715-14.111 0-31.34-1.679-51.528-6.996l-.28.96c20.188 5.316 37.457 6.995 51.808 6.995 30.422 0 46.692-7.955 46.692-7.955l-.24-1zM69.358 222.785c.24-.48.24-.96.24-1.679 0-2.199-.72-4.637-1.68-7.076-.959-2.438-2.198-4.877-2.678-6.556-1.199-3.678-2.398-8.075-2.398-11.952 0-2.919.48-5.597 1.919-8.036l-.48-.24v.48h.24c.48 0 .96.24 1.2.48.279.48.519.96.759 1.719l.96-.24c-.24-.76-.48-1.48-.96-1.959-.48-.48-1.24-1-1.96-1h-.479v.28c-1.679 2.679-2.198 5.597-2.198 8.516 0 4.117 1.239 8.514 2.438 12.432.72 1.679 1.719 4.117 2.678 6.316.96 2.439 1.68 4.877 1.68 6.836v1.44l.719.239zM78.073 213.59c-1.2-3.397-1.68-7.035-1.68-10.473 0-9.714 3.359-19.228 3.359-28.983 0-4.357-.72-8.754-2.639-12.912l-.72.28c1.92 4.118 2.4 8.275 2.4 12.632 0 9.515-3.359 19.029-3.359 28.983 0 3.678.48 7.076 1.68 10.713l.959-.24zM135.518 223.984c0-8.994 2.678-17.749 4.837-26.744.72-3.917 1.2-7.795 1.2-11.433 0-7.315-1.44-13.911-2.88-21.427l-.239-.24-.24-.24c-.28 0-.52-.28-1-.28-.479 0-.959.28-1.198.76-.24.24-.48.48-.72.96l.72.48c.24-.24.48-.72.72-.96.239 0 .239-.24.479-.24s.48 0 .72.24l.28-.48-.52.24c1.479 7.276 2.918 14.112 2.918 21.187 0 3.638-.48 7.276-1.2 11.194-1.958 8.994-4.597 17.749-4.877 26.983h1zM125.324 210.153c0-7.756-2.638-16.07-5.037-24.106-2.438-8.275-4.837-16.31-4.837-24.105 0-3.638.48-7.036 1.679-10.434l-.96-.28c-1.199 3.438-1.718 7.076-1.718 10.714 0 8.035 2.438 16.35 4.837 24.385 2.678 8.035 5.077 16.07 5.077 23.826h.96zM98.06 225.423c-.959-1.679-1.439-3.877-1.439-5.836 0-.72.24-1.48.24-2.199.24-1.959.24-4.157.24-6.076 0-3.438-.24-6.836-.72-10.754h-.959c.48 3.918.72 7.316.72 10.754 0 1.919 0 3.878-.24 6.076 0 .72-.24 1.48-.24 2.199 0 2.199.48 4.397 1.44 6.316l.959-.48z" fill="#333" fill-rule="evenodd" fill-opacity="1" stroke="none"/><path d="M90.065 234.378c0 5.876-1.679 11.953-1.679 18.069v.96h.96v-.96c0-6.116 1.679-11.953 1.679-18.07h-.96zM65.76 230.3v.52c0 2.439-1.439 5.597-3.158 8.515-1.44 3.198-3.158 6.356-3.158 9.034v.72h1v-.72c0-2.438 1.438-5.356 3.157-8.514 1.68-2.959 3.119-6.117 3.119-9.035v-.52h-.96zM75.674 232.22v.999c0 1.918.24 3.637.48 5.596v1.2c0 5.356-1.44 11.193-1.919 16.79-.96 13.631-7.036 26.743-7.036 40.375 0 .72 0 1.479.28 2.199.72 15.31 4.797 30.181 5.557 45.492.24 6.796 1.199 14.591 1.199 21.907 0 4.597-.48 9.234-1.679 13.591l.96.24c1.199-4.357 1.678-8.994 1.678-13.831 0-7.556-.959-15.111-1.199-22.147-.72-15.35-5.077-30.182-5.556-45.252-.24-.72-.24-1.48-.24-2.2 0-13.351 5.796-26.503 6.995-40.135.48-5.596 1.92-11.433 1.92-17.03v-1.199c-.24-1.959-.48-3.917-.48-5.596v-1h-.96z" fill="#333" fill-rule="evenodd" fill-opacity="1" stroke="none"/><path d="M69.118 315.369c-7.275 22.146-18.948 43.294-25.784 65.92-6.796 21.667-7.556 44.533-7.556 66.88h1c0-22.347.72-45.213 7.275-66.64 7.076-22.347 18.749-43.774 25.785-65.88l-.72-.28zM123.165 233.658v1c0 .48 0 .96.24 1.679.24.52.24 1 .48 1.719.72 3.877.72 7.795.72 11.912v2.919c0 13.631-1.68 26.744-3.398 40.375-1.2 7.796-1.96 16.55-1.96 25.065 0 6.076.52 11.913 1.72 17.51 3.158 14.35 8.275 28.942 13.631 42.294l.96-.24c-5.357-13.352-10.434-28.183-13.632-42.294-1.2-5.357-1.679-11.433-1.679-17.27 0-8.515.72-17.27 1.959-25.065 1.679-13.392 3.398-26.744 3.398-40.375v-2.918c0-4.118 0-8.275-.72-12.153-.28-.72-.52-1.24-.52-1.959-.24-.48-.24-.72-.24-1.2v-.719l-.959-.28z" fill="#333" fill-rule="evenodd" fill-opacity="1" stroke="none"/><path d="M122.925 342.632c-.24 8.315-1.479 16.35-3.158 24.386-4.677 19.947-8.554 41.135-8.834 61.562h1c.239-20.427 4.157-41.375 8.794-61.323 1.719-8.275 2.918-16.07 3.158-24.625h-.96zM132.4 232.46c-.48 1.478-.76 2.677-.76 4.157 0 2.918.52 5.596 1.24 8.275.759 2.918 1.239 5.596 1.239 8.035v.24c0 9.034-1.96 17.789-1.96 27.063 0 3.158.24 6.316.96 9.474l1-.24c-.76-3.158-1-6.076-1-9.234 0-9.034 1.96-18.029 1.96-27.063v-.24c0-2.679-.48-5.357-1.2-8.275-.76-2.679-1.24-5.357-1.24-8.035 0-1.2.24-2.679.48-3.878l-.72-.28z" fill="#333" fill-rule="evenodd" fill-opacity="1" stroke="none"/><path d="M131.88 241.694c3.398 4.157 6.556 10.753 7.516 16.35h.959c-.96-5.837-4.118-12.673-7.476-17.11l-.999.76zM152.348 339.794c7.115 17.03 7.115 37.218 11.513 55.207 5.117 22.866 8.555 44.293 8.555 67.639v.72h.959v-.72c0-23.346-3.398-45.013-8.555-67.88-4.397-17.748-4.397-38.176-11.713-55.246l-.76.28z" fill="#333" fill-rule="evenodd" fill-opacity="1" stroke="none"/><path d="M32.54 281.59s14.751-4.758 24.226-.76c0 0 3.517 9.754 4.517 11.233.72 1.48 1 4.477 1.24 6.996.239 2.238.999 8.954.999 10.953l.48 4.717s-2.48 1.76-4.478.28c-1.999-1.759-3.238-4.997-3.238-4.997s.24 2.239.72 3.998c.759 1.479 2.518 4.717 3.277 5.716.72 1.24 1.72 2.998 1.48 4.238-.24 1-2 2.238-3.478 1 0 0 .72 2.238-1.28 3.517-1.719.96-2.718-1-3.717-1.759-1-.76-3.278-2.518-3.278-2.518s-1 .28-2-.72c-.998-.76-2.997-2.998-2.997-2.998s.28 1.479-1 1.999c-1.239.24-2.478-1.76-3.717-2.999-1.28-1.479-3.278-3.997-3.758-6.236-.76-1.999-2.758-8.475-3.238-9.954-.52-1.279-1.28-3.238-1.28-5.237 0-1.759.52-16.47.52-16.47z" fill="#ffffbf" fill-rule="evenodd" fill-opacity="1" stroke="none"/><path d="M32.58 281.63s14.751-4.758 24.226-.76c0 0 3.517 9.754 4.517 11.233.72 1.48 1 4.477 1.24 6.996.239 2.238.998 8.954.998 10.953l.48 4.717s-2.478 1.76-4.477.28c-1.999-1.759-3.238-4.997-3.238-4.997s.24 2.239.72 3.998c.759 1.479 2.518 4.717 3.277 5.716.72 1.24 1.72 2.998 1.48 4.238-.24.999-2 2.238-3.478.999 0 0 .72 2.239-1.28 3.518-1.719.96-2.718-1-3.717-1.759-1-.76-3.278-2.519-3.278-2.519s-1 .28-2-.72c-.999-.759-2.997-2.997-2.997-2.997s.28 1.479-1 1.999c-1.239.24-2.478-1.76-3.717-2.999-1.28-1.479-3.278-3.997-3.758-6.236-.76-1.999-2.758-8.475-3.238-9.954-.52-1.28-1.28-3.238-1.28-5.237 0-1.759.52-16.47.52-16.47" fill="none" stroke="#333" stroke-width="1.6789824px" stroke-linecap="butt" stroke-linejoin="miter" stroke-miterlimit="8" stroke-dasharray="none" stroke-opacity="1"/><path d="M56.366 310.052s-.24-3.478-.24-5.716c-.28-2.479-.8-9.235-.8-9.235M58.045 324.843s-3.238-2.758-4.238-4.237c-1.239-1.28-2.758-2.279-3.517-4.797-.48-2.759-1.24-9.275-1.76-10.554M50.05 324.283s-2.719-2.998-3.198-3.997c-.48-1-1.24-3.238-1.72-4.757-.519-1.72-2.758-8.755-2.758-8.755M45.093 320.526s-1.96-1.96-2.719-3.718c-.48-1.52-1.958-4.237-2.478-5.477-.48-1.279-1.999-5.276-1.999-5.276" fill="none" stroke="#333" stroke-width="1.6789824px" stroke-linecap="round" stroke-linejoin="miter" stroke-miterlimit="8" stroke-dasharray="none" stroke-opacity="1"/><path d="M172.416 280.63s-14.712-4.757-23.946-.76c0 0-3.718 9.754-4.477 11.234-.72 1.479-1.24 4.477-1.48 6.995-.24 2.239-.759 8.955-.759 10.954l-.76 4.477s2.759 1.999 4.518.52c1.999-1.76 3.478-4.997 3.478-4.997s-.24 2.238-1 3.997c-.76 1.48-2.238 4.717-2.998 5.717-.76 1.24-1.999 2.998-1.719 4.237.48 1 1.959 2.239 3.478 1 0 0-.52 2.238 1.24 3.517 1.758.96 2.997-.999 3.717-1.758 1-.76 3.238-2.519 3.238-2.519s1.28.28 2.279-.72c1-.759 2.718-2.998 2.718-2.998s-.24 1.48 1 2c1.239.239 2.758-1.76 3.997-3.239 1.24-1.24 2.998-3.758 3.718-5.996.52-2 2.518-8.715 2.998-9.954.52-1.28 1.48-3.238 1.48-5.237 0-1.759-.72-16.47-.72-16.47z" fill="#ffffbf" fill-rule="evenodd" fill-opacity="1" stroke="none"/><path d="M172.455 280.67s-14.71-4.757-23.945-.76c0 0-3.718 9.754-4.477 11.234-.72 1.479-1.24 4.477-1.48 6.995-.24 2.239-.759 8.955-.759 10.954l-.76 4.477s2.759 1.999 4.518.52c1.999-1.76 3.478-4.997 3.478-4.997s-.24 2.238-1 3.997c-.76 1.48-2.238 4.717-2.998 5.717-.76 1.239-1.999 2.998-1.719 4.237.48 1 1.959 2.239 3.478 1 0 0-.52 2.238 1.24 3.517 1.758.96 2.997-.999 3.717-1.758 1-.76 3.238-2.519 3.238-2.519s1.28.28 2.279-.72c1-.759 2.718-2.998 2.718-2.998s-.24 1.48 1 2c1.239.239 2.758-1.76 3.997-3.239 1.24-1.24 2.998-3.758 3.718-5.996.52-2 2.518-8.715 2.998-9.954.52-1.28 1.48-3.238 1.48-5.237 0-1.759-.72-16.47-.72-16.47" fill="none" stroke="#333" stroke-width="1.6789824px" stroke-linecap="butt" stroke-linejoin="miter" stroke-miterlimit="8" stroke-dasharray="none" stroke-opacity="1"/><path d="M148.95 309.093s0-3.478.28-5.717c0-2.478.52-9.234.52-9.234M146.95 323.724s3.239-2.719 4.478-4.198c1-1.279 2.479-2.278 3.238-4.757.76-2.718 1.48-9.194 1.72-10.473M154.946 323.244s2.758-2.958 3.518-3.958c.52-.999 1-3.238 1.519-4.757.48-1.719 2.718-8.714 2.718-8.714M159.903 319.566s1.999-1.958 2.758-3.717c.72-1.52 2.2-4.238 2.479-5.477.48-1.28 2.199-5.277 2.199-5.277" fill="none" stroke="#333" stroke-width="1.6789824px" stroke-linecap="round" stroke-linejoin="miter" stroke-miterlimit="8" stroke-dasharray="none" stroke-opacity="1"/><path d="M23.985 516.207c-2.238 0-3.238 4.278-4.197 5.757-1.52 1.759-3.238 3.038-4.477 4.757-1.52 1.759-3.238 2.518-4.997 3.997-1.48 1.28-2.479 3.039-3.718 4.278-1.48 1.479-2.718 2.998-4.477 3.997-1.48 1.24-1.76 2.239-1 4.238 1.24 2.998 3.998 6.036 6.716 7.755 1.999 1.52 4.478 1.999 7.196 1.999 5.237 0 10.953-1.999 14.671-4.238 2.239-.999 4.237-2.758 6.236-4.237 1.48-1.28 2.479-2.998 4.198-3.998 3.757-2.518 7.955-4.037 11.952-6.036 5.957-3.478 7.436-9.754 3.718-15.51-2.238 2.278-5.716 2.998-8.435 3.757-1.998.52-3.757.76-5.476.76-1 0-2 0-2.999-.24-3.238-.52-5.956-2.279-8.674-3.518-1.76-1-3.998-2.239-5.717-3.238l-.28-.28h-.24z" fill="#fff" fill-rule="evenodd" fill-opacity="1" stroke="none"/><path d="m24.225 516.247.24-.52h-.48c-.76 0-1.279.28-1.758.76-.76.76-1.24 1.999-1.76 2.758-.48 1-.719 2-1.239 2.519-1.239 1.479-2.998 2.998-4.477 4.477-.76 1-1.479 1.52-2.239 2.239-.76.52-1.759 1-2.758 1.999-1.479 1.279-2.478 2.998-3.718 4.277-1.239 1.479-2.758 2.718-4.237 3.997-.48.24-1 .72-1.24 1.24-.24.48-.519 1-.519 1.479 0 .76.28 1.28.52 1.999 1.239 3.278 4.237 5.996 6.716 7.995 2.238 1.519 4.757 1.999 7.715 1.999 5.237 0 11.233-2 14.95-4.238 2.24-1.24 4.238-2.998 6.237-4.477 1.759-1.28 2.718-2.998 4.238-3.998 3.477-2.278 7.955-3.757 11.952-5.996 3.998-2.279 5.957-5.757 5.957-9.514 0-2-.48-4.238-1.96-6.516l-.279-.48-.48.48c-2.238 2.038-5.476 2.758-8.475 3.517-1.758.52-3.477.76-5.236.76-1 0-2 0-2.999-.24-2.958-.52-5.716-1.999-8.434-3.518-1.76-1-4.238-2.238-5.757-3.238l-.24.48.52-.24-.28-.24-.24-.28-.24.52-.24.24v.24h.24c1.72 1.28 3.998 2.518 5.717 3.278 2.758 1.479 5.477 3.238 8.715 3.758.999.24 2.238.24 3.238.24 1.759 0 3.757-.24 5.476-.76 2.998-.76 6.476-1.48 8.995-3.758l-.52-.48-.24.24c1.24 2 1.76 4.238 1.76 5.997 0 3.518-1.76 6.516-5.517 8.754-3.718 2.239-8.195 3.478-11.953 5.997-1.72 1.239-2.719 2.998-4.238 3.997-1.958 1.48-3.957 3.238-6.196 4.478-3.518 1.998-9.474 3.997-14.471 3.997-2.718 0-5.237-.48-6.956-1.719-2.758-1.999-5.477-4.757-6.476-7.515-.24-.76-.52-1.24-.52-1.76 0-.239 0-.719.28-.999.24-.24.48-.72 1-.999 1.719-1.24 3.238-2.718 4.477-3.998 1.479-1.479 2.239-3.238 3.718-4.237.76-.76 1.759-1.48 2.478-1.999 1-.76 1.76-1.239 2.519-2.238 1.479-1.52 3.238-2.999 4.477-4.758.48-.24.76-.999 1-1.479.479-1.039.759-2.038 1.239-2.758.24-.52.76-.76.999-1 .24-.28.48-.28.76-.28h.24v-.479l-.24.24.24-.24z" fill="#333" fill-rule="evenodd" fill-opacity="1" stroke="none"/><path d="M26.744 520.245c-.24 0-.48-.28-.72-.28-.28 0-.52.28-.76.28-.519.48-.759 1.479-1.279 1.998-.999 1.76-1.998 2.759-3.757 3.758-1.48.72-3.478 1.24-4.757 2.479-.76.76-1.76 1.759-2.239 2.998-.76 1.28-1.28 2.518-1.28 3.518v.48h.52v-.48c0-.76.52-1.999 1.24-3.238.52-1.28 1.279-2.279 2.038-2.759 1.24-1.279 3.238-1.759 4.758-2.758 1.998-1 2.998-1.759 3.997-3.758.24-.48.52-.999.76-1.239.24-.24.24-.52.48-.52 0-.24.28-.24.28-.24.24 0 .479 0 .479.24l.24-.48zM28.423 521.804c-.48.76-1.24 1.519-1.48 2.758v.48c0 .72.24 1.479.24 2.238 0 .24-.24.48-.24.72-.24 1-1.239 1.48-2.478 2.239-1 .48-2.238.999-2.998 1.958l.28.24c.72-.72 1.959-1.199 2.958-1.958 1.24-.48 2.239-1.24 2.718-2.24 0-.239.24-.719.24-.959 0-.76-.24-1.519-.24-2.238v-.48c.24-1 .76-1.759 1.48-2.478l-.48-.28zM32.9 523.003v.52c0 1.759 1.28 2.998 1.999 4.277 1 1.999 1.519 4.238 1.999 6.476h.48c-.48-2.238-.96-4.477-1.96-6.756-.759-1.239-1.998-2.758-1.998-3.997v-.52h-.52zM44.093 525.002v1c0 .999-.24 1.758-.48 2.718-.48.76-.719 1.759-.719 2.718 0 .52 0 1 .24 1.479l.48-.24c-.24-.24-.24-.72-.24-1.24 0-.719.24-1.718.72-2.717.24-.72.479-1.72.479-2.719v-1h-.48zM50.81 523.803c.279.76.519 1.239.999 1.479.76.48 1.519.72 2.238 1.239.52.24 1 .96 1 1.919v.48h.48v-.48c0-.72-.24-1.44-.48-1.92-.76-.519-1.48-.999-2.239-1.238-.72-.48-1.24-.72-1.48-1.48h-.519z" fill="#333" fill-rule="evenodd" fill-opacity="1" stroke="none"/><path d="M179.651 516.207h-.48v.28c-1.759 1-3.997 2.239-5.756 2.958-2.718 1.52-5.477 3.238-8.715 3.758-1 .24-1.999.24-2.998.24-1.759 0-3.758-.24-5.517-.76-2.998-.96-6.236-1.719-8.714-3.718-3.518 5.717-2 11.953 3.997 15.431 3.718 1.999 8.235 3.518 11.953 5.757 1.519 1.239 2.518 2.958 4.277 3.957 2 1.52 3.998 3.238 5.957 4.518 3.757 1.958 9.754 4.197 14.99 4.197 2.759 0 5.237-.72 7.236-1.959 2.759-1.759 5.517-4.757 6.756-7.755.72-1.959.48-2.958-1.24-4.198-1.518-1.279-2.997-2.518-4.276-3.997-1.24-1.24-2.24-2.998-3.718-4.238-1.76-1.519-3.518-2.238-4.997-4.237-1.24-1.48-2.998-2.998-4.517-4.477-1.24-1.52-1.96-5.757-4.238-5.757z" fill="#fff" fill-rule="evenodd" fill-opacity="1" stroke="none"/><path d="m179.131 516.247.28.48h.24c.24 0 .76 0 1 .52.48.48.999 1.479 1.479 2.478.52 1 .76 1.999 1.519 2.479 1.239 1.758 2.998 2.998 4.237 4.757.76.72 1.76 1.479 2.479 2.238.999.48 1.759 1.24 2.758 1.72 1.24 1.238 2.239 2.997 3.518 4.237 1.479 1.479 2.998 2.998 4.477 4.237.48.24 1 .76 1 1 .24.24.48.48.48.999 0 .48-.24 1-.48 1.479-1 2.998-3.998 5.717-6.477 7.475-1.758 1.24-4.277 2-6.995 2-4.997 0-10.994-2-14.751-4.238-2-1-3.998-2.759-5.997-4.238-1.479-1.239-2.478-2.758-4.237-3.997-3.758-2.479-8.235-3.958-11.993-5.957-3.758-2.238-5.756-5.236-5.756-8.714 0-2 .76-3.998 1.998-5.957l-.48-.28-.24.52c2.48 1.999 5.997 2.719 8.995 3.718 1.72.52 3.478.76 5.477.76 1 0 1.999 0 2.998-.24 3.478-.52 6.236-2.239 8.995-3.758 1.479-.72 3.997-1.999 5.756-3.238l.24-.24-.52-.24.28.48-.28-.48-.24-.24h-.24l.48.48-.24-.48c-1.758 1-3.997 2.239-5.756 3.238-2.718 1.24-5.477 2.959-8.475 3.478-1 .24-1.999.24-2.998.24-1.759 0-3.478-.24-5.237-.76-2.998-.719-6.236-1.479-8.515-3.477l-.48-.48-.24.48c-1.518 2.238-2.278 4.237-2.278 6.476 0 3.717 2.279 7.235 6.276 9.474 3.998 2.239 8.235 3.478 11.953 5.956 1.52 1 2.519 2.719 3.998 3.998 1.998 1.479 3.997 3.238 6.276 4.477 3.997 1.959 9.954 4.198 15.23 4.198 2.719 0 5.477-.72 7.476-1.96 2.758-1.998 5.757-4.756 6.996-7.994.24-.72.48-1.48.48-1.96 0-.519-.24-.999-.48-1.518-.24-.48-.76-1-1.24-1.48-1.758-.999-2.998-2.478-4.517-3.717-1.239-1.52-1.998-2.998-3.717-4.477-.76-.76-1.76-1.28-2.519-2-1-.519-1.759-.999-2.478-1.998-1.28-1.759-2.999-2.998-4.278-4.477-.24-.24-.48-.76-1-1.48-.239-.999-.719-1.998-1.238-2.997-.48-.24-.72-.76-1-1-.48-.24-1-.52-1.479-.52h-.76v.28l.24.24z" fill="#333" fill-rule="evenodd" fill-opacity="1" stroke="none"/><path d="M176.933 520.724c.24-.24.48-.24.48-.24.24 0 .52 0 .52.24.479.24.719 1 1.238 1.76 1 1.718 2 2.718 3.998 3.717 1.48 1 3.478 1.48 4.717 2.479.48.76 1.48 1.759 1.999 2.998.76 1 1.24 2.238 1.24 3.238v.24l.479.24v-.48c0-1-.48-2.239-1.24-3.478-.719-1.24-1.478-2.479-2.238-2.998-1.24-1.24-3.238-1.72-4.717-2.479-1.999-1-2.758-1.999-3.998-3.718-.24-.52-.24-.999-.76-1.279 0-.24-.24-.48-.479-.72-.24-.28-.52-.28-.76-.28s-.48 0-.76.28l.28.48zM174.654 521.924c.76.76 1.28 1.479 1.52 2.518v.48c0 .76-.24 1.519-.24 2.278 0 .24 0 .48.24 1 .24 1 1.518 1.759 2.758 2.239.999.76 2.238 1.279 2.998 1.998l.24-.24c-.72-.999-2-1.479-3.238-2.238-1-.52-2-1.28-2.24-2.039-.279-.24-.279-.48-.279-.72 0-.76.28-1.519.28-2.278v-.48c-.28-1.28-1-2.039-1.759-2.798l-.28.28zM170.177 522.923v.52c0 1.239-1.24 2.718-1.999 3.957-1 2-1.479 4.238-1.999 6.716h.52c.48-2.238.76-4.477 1.999-6.436.72-1.24 1.959-2.758 1.959-4.237v-.52h-.48zM159.024 524.682c0 .52-.28.76-.28 1.28 0 .999.52 1.998.76 2.718.519.999.759 1.759.759 2.758 0 .48 0 .76-.24 1.24l.48.239c.24-.48.24-1 .24-1.48 0-.998-.48-1.998-.72-2.757-.28-1-.76-2-.76-2.719 0-.28.24-.76.24-1l-.48-.279zM152.268 523.483c-.24.76-.52 1-1 1.239-.52.52-1.519.76-2.038 1.24-.76.519-1.28 1.238-1.28 2.478v.48l.52-.24v-.24c0-.72.24-1.24.52-1.72.48-.519 1-.759 1.759-.999.76-.48 1.519-.999 1.998-1.958l-.48-.28z" fill="#333" fill-rule="evenodd" fill-opacity="1" stroke="none"/></svg>