<?xml version="1.0" encoding="UTF-8" standalone="no"?>
<!-- Created with Inkscape (http://www.inkscape.org/) -->

<svg
   width="14.906006"
   height="39.079163"
   viewBox="0 0 175.82567 0"
   version="1.1"
   id="svg5"
   xml:space="preserve"
   xmlns="http://www.w3.org/2000/svg"
   xmlns:svg="http://www.w3.org/2000/svg"><defs
     id="defs2" /><g
     id="layer1"
     style="display:inline"
     transform="translate(139.66769,-475.25178)"><g
       id="g75391-8-0"
       style="display:inline"
       transform="matrix(0.36298739,0,0,0.36298739,-333.54735,443.4032)"><path
         style="font-variation-settings:normal;display:inline;fill:#ededed;fill-opacity:1;stroke:#000000;stroke-width:0.465;stroke-linecap:butt;stroke-linejoin:miter;stroke-miterlimit:4;stroke-dasharray:none;stroke-dashoffset:0;stroke-opacity:1;stop-color:#000000"
         d="m 570.94013,120.25934 c 4.27572,-7.94252 -11.43659,-7.59354 -4.04395,-14.48095 2.6646,-7.014772 -3.70278,-13.174131 -9.14821,-16.476722 -7.54131,-3.570447 -14.75275,4.385742 -16.92703,10.993162 -2.4486,8.07254 -5.12353,16.23802 -4.49918,24.80084 -0.25062,12.69194 -1.38429,25.4661 -0.67415,38.11726 0.85429,7.42502 0.68816,15.61033 6.74124,21.04604 3.00997,3.5813 8.28465,2.88565 12.46209,4.19393 7.27348,-0.14999 12.9467,-7.90792 14.43844,-14.63084 3.97304,-7.73196 -1.70012,-15.00616 -3.68724,-22.02765 1.04913,-4.26198 -4.11393,-8.49086 -3.67723,-2.15106 1.16208,6.57168 3.1922,13.14987 1.86906,19.8826 -0.74492,4.78752 -9.05597,14.41035 -12.68997,8.52979 -5.0225,-12.17811 0.42861,-25.44892 -1.95736,-38.0531 0.57048,-6.39701 -4.07394,-15.2723 1.96191,-19.72486 5.33527,-4.52886 13.06159,-4.18094 18.6723,-0.37161 z"
         id="path70933-0-9-4-2" /><ellipse
         style="font-variation-settings:normal;display:inline;fill:#adadad;fill-opacity:1;stroke:none;stroke-width:0.574967;stroke-linecap:butt;stroke-linejoin:miter;stroke-miterlimit:4;stroke-dasharray:none;stroke-dashoffset:0;stroke-opacity:1;stop-color:#000000"
         id="path1089-7-01-1-2-5-9-7-9"
         cx="552.86499"
         cy="-97.495888"
         rx="7.8023124"
         ry="8.9505987"
         transform="matrix(0.93780323,0.34716725,-0.36560224,0.93077119,0,0)" /><path
         style="font-variation-settings:normal;display:inline;fill:#adadad;fill-opacity:1;stroke:none;stroke-width:0.517911;stroke-linecap:butt;stroke-linejoin:miter;stroke-miterlimit:4;stroke-dasharray:none;stroke-dashoffset:0;stroke-opacity:1;stop-color:#000000"
         d="m 565.86549,110.93709 c -0.66785,0.76754 6.32414,4.68993 5.36012,4.9651 -2.15943,0.0589 2.18889,3.39994 -0.88202,3.44339 -2.47148,0.035 -12.49909,-3.44123 -13.58696,-1.98064 -1.45236,1.15893 -7.93243,4.89812 -8.89765,3.90766 0.31894,-3.74847 3.2623,-7.04646 7.12682,-7.19741 3.63807,0.26523 5.88102,-2.68525 8.86794,-3.8365 0.73392,-0.0326 1.43187,0.27376 2.01175,0.6984 z"
         id="path72817-1-6-51-3" /><ellipse
         style="font-variation-settings:normal;display:inline;fill:#363636;fill-opacity:1;stroke:#000000;stroke-width:0.258062px;stroke-linecap:butt;stroke-linejoin:miter;stroke-miterlimit:4;stroke-dasharray:none;stroke-dashoffset:0;stroke-opacity:1;stop-color:#000000"
         id="path1089-7-01-1-8-8-4-2"
         cx="554.35925"
         cy="-102.29046"
         rx="6.9508014"
         ry="8.1520023"
         transform="rotate(20.873152)" /><path
         style="font-variation-settings:normal;display:inline;fill:none;fill-opacity:1;stroke:#000000;stroke-width:0.264583px;stroke-linecap:butt;stroke-linejoin:miter;stroke-miterlimit:4;stroke-dasharray:none;stroke-dashoffset:0;stroke-opacity:1;stop-color:#000000"
         d="m 565.22845,110.5124 c -1.7887,-0.52678 -3.67105,0.0938 -4.7285,1.63365 -2.14303,1.8113 -5.1767,1.3871 -7.61137,2.58137 -2.26683,0.57098 -3.99058,2.26222 -4.59269,4.53237 -0.19697,0.45132 -0.34724,0.94779 -0.26731,1.44514"
         id="path72796-6-3-75-2" /><path
         style="font-variation-settings:normal;display:inline;fill:#adadad;fill-opacity:1;stroke:none;stroke-width:0.517911;stroke-linecap:butt;stroke-linejoin:miter;stroke-miterlimit:4;stroke-dasharray:none;stroke-dashoffset:0;stroke-opacity:1;stop-color:#000000"
         d="m 548.11729,120.85994 c -0.76474,4.62779 -1.83367,9.2253 -2.40035,13.87321 -0.0392,9.19261 -0.0818,18.38822 0.52042,27.56603 -3e-5,3.04433 1.65729,5.76037 2.44724,8.64795 0.69352,1.84523 0.12359,-3.55025 0.26028,-4.86817 -0.0105,-6.2305 -0.33467,-12.47403 -0.0962,-18.69656 0.75723,-8.14012 1.51445,-16.28024 2.27168,-24.42036 -1.00102,-0.70069 -2.00202,-1.40144 -3.00306,-2.1021 z"
         id="path73208-5-5-1-3" /><path
         style="font-variation-settings:normal;display:inline;fill:#f0e1c1;fill-opacity:1;stroke:none;stroke-width:0.264583px;stroke-linecap:butt;stroke-linejoin:miter;stroke-miterlimit:4;stroke-dasharray:none;stroke-dashoffset:0;stroke-opacity:1;stop-color:#000000"
         d="m 561.33052,116.05514 c -7.80962,1.02697 -16.23463,6.65273 -16.3624,15.25724 -0.66367,10.32994 0.89981,20.82925 4.15885,30.6304 1.73443,5.89322 8.66872,7.10854 13.91636,5.96971 5.57885,0.54964 7.8644,-5.0585 8.38504,-9.67177 1.12399,-11.30477 1.31725,-22.7989 -0.13952,-34.09322 -1.28141,-4.48575 -5.9524,-6.61552 -9.95833,-8.09236 z"
         id="path70659-8-1-3-5" /><path
         style="font-variation-settings:normal;display:inline;opacity:0.257463;fill:#d69d31;fill-opacity:1;stroke:none;stroke-width:0.457888px;stroke-linecap:butt;stroke-linejoin:miter;stroke-miterlimit:4;stroke-dasharray:none;stroke-dashoffset:0;stroke-opacity:1;stop-color:#000000"
         d="m 547.256,129.25385 c -0.0588,10.67867 -1.01643,21.77371 2.73621,31.99263 2.84751,5.68345 11.55554,7.28636 15.92582,2.45225 1.80383,-0.7816 3.15634,-5.12951 0.0163,-3.00626 -4.00302,2.16561 -10.17113,0.64985 -11.36105,-4.14962 -1.53515,-5.73588 -3.36412,-11.43764 -4.23966,-17.34185 -0.79731,-4.74026 -1.27374,-9.53452 -1.4234,-14.33905 -0.82443,1.35292 -0.96672,2.98003 -1.65418,4.3919 z"
         id="path71008-1-5-3-9" /><circle
         style="font-variation-settings:normal;display:inline;opacity:0.257463;fill:#d69d31;fill-opacity:1;stroke:none;stroke-width:0.457888px;stroke-linecap:butt;stroke-linejoin:miter;stroke-miterlimit:4;stroke-dasharray:none;stroke-dashoffset:0;stroke-opacity:1;stop-color:#000000"
         id="path71090-0-7-8-3"
         cx="562.0813"
         cy="128.51759"
         r="6.4564548" /><path
         style="font-variation-settings:normal;display:inline;opacity:0.216418;fill:#ffffff;fill-opacity:1;stroke:none;stroke-width:0.457888px;stroke-linecap:butt;stroke-linejoin:miter;stroke-miterlimit:4;stroke-dasharray:none;stroke-dashoffset:0;stroke-opacity:1;stop-color:#000000"
         d="m 557.1263,128.06715 c 0.0179,2.15711 1.49086,4.13367 3.43579,4.98764 1.07514,0.49226 2.30434,0.62096 3.45954,0.37901 1.09398,-0.0804 2.00755,-0.83628 2.67152,-1.65785 0.56172,-0.73388 1.04915,-1.65759 0.89225,-2.60997 -0.11827,-0.71977 -0.81043,-1.17284 -1.4867,-1.2889 -0.65138,-0.0209 -1.30035,0.14646 -1.93471,0.28766 -1.64548,0.39179 -3.29097,1.04589 -5.01181,0.87662 -0.56831,-0.0718 -1.15695,-0.21624 -1.63259,-0.5416 -0.14471,-0.13208 -0.26834,-0.28229 -0.39329,-0.43261 z"
         id="path71146-5-5-54-3" /><path
         style="font-variation-settings:normal;display:inline;opacity:0.735075;fill:none;fill-opacity:1;stroke:#777777;stroke-width:1.265;stroke-linecap:round;stroke-linejoin:round;stroke-miterlimit:4;stroke-dasharray:2.53, 2.53, 1.265, 2.53;stroke-dashoffset:0;stroke-opacity:1;stop-color:#000000"
         d="m 551.12031,123.26234 c -0.68887,5.59038 -1.28437,11.21089 -1.4533,16.83888 1.07503,7.08689 2.04777,14.18901 2.95479,21.29925"
         id="path73260-5-2-5-4" /><path
         style="font-variation-settings:normal;display:inline;opacity:0.735075;fill:none;fill-opacity:1;stroke:#777777;stroke-width:1.265;stroke-linecap:round;stroke-linejoin:round;stroke-miterlimit:4;stroke-dasharray:2.53, 2.53, 1.265, 2.53;stroke-dashoffset:0;stroke-opacity:1;stop-color:#000000"
         d="m 557.4266,118.45754 c -0.87831,4.5059 -1.44376,9.11303 -1.06885,13.70618 0.12634,7.99276 1.44492,15.90387 1.84939,23.87993 0.28632,2.53515 1.00717,4.99091 1.62188,7.45892"
         id="path73326-0-3-8-6" /><path
         style="font-variation-settings:normal;display:inline;opacity:0.735075;fill:none;fill-opacity:1;stroke:#777777;stroke-width:1.265;stroke-linecap:round;stroke-linejoin:round;stroke-miterlimit:4;stroke-dasharray:2.53, 2.53, 1.265, 2.53;stroke-dashoffset:0;stroke-opacity:1;stop-color:#000000"
         d="m 565.53471,119.95904 c 2.49781,14.40515 4.24736,29.46358 0.9009,43.54353"
         id="path73328-4-4-7-9" /><path
         style="font-variation-settings:normal;display:inline;opacity:0.735075;fill:none;fill-opacity:1;stroke:#777777;stroke-width:1.265;stroke-linecap:round;stroke-linejoin:round;stroke-miterlimit:4;stroke-dasharray:2.53, 2.53, 1.265, 2.53;stroke-dashoffset:0;stroke-opacity:1;stop-color:#000000"
         d="m 560.7299,128.96805 c 0.6094,6.00033 1.35747,11.99403 1.44173,18.03234 0.10889,2.30344 -0.11084,4.59575 -0.24054,6.89258"
         id="path73330-6-0-0-9" /><path
         style="font-variation-settings:normal;display:inline;fill:#5c5c5c;fill-opacity:1;stroke:none;stroke-width:0.517911;stroke-linecap:butt;stroke-linejoin:miter;stroke-miterlimit:4;stroke-dasharray:none;stroke-dashoffset:0;stroke-opacity:1;stop-color:#000000"
         d="m 560.24087,115.1214 c -7.15615,1.32888 -13.10346,8.56551 -13.81945,10.22651 -0.24068,1.56363 -1.10969,5.67502 -1.08136,7.25397 0.13106,3.26838 0.47946,4.46959 1.0422,7.30236 0.11744,1.68226 0.23612,3.40998 0.92752,4.97397 0.35467,0.95981 0.42008,1.1938 1.82476,5.36854 0.29727,0.50535 0.92398,2.34946 1.0444,1.43183 -0.51501,0.51078 -0.86375,-5.08879 -1.06594,-5.5595 -0.71536,-2.53314 -1.30897,-5.1317 -1.43321,-7.7681 0.31852,-3.5951 0.36166,-7.20974 0.69831,-10.80327 0.92979,-3.16789 4.43244,-7.1568 11.86277,-12.42631 z"
         id="path1222-9-1-5-7-9-0-1" /><path
         style="font-variation-settings:normal;display:inline;fill:#ff8809;fill-opacity:0.506383;stroke:#676767;stroke-width:1.16592;stroke-linecap:butt;stroke-linejoin:miter;stroke-miterlimit:4;stroke-dasharray:none;stroke-dashoffset:0;stroke-opacity:1;stop-color:#000000"
         d="m 550.2194,188.42749 c -11.41649,-3.45435 -17.03482,-15.80678 -15.15851,-27.03396 0.45656,-18.39869 0.73352,-36.9133 2.91778,-55.18179 1.34823,-9.532997 10.36378,-21.737688 21.11598,-16.74245 11.99511,6.263879 12.83113,21.92835 14.88001,33.76394 1.53605,17.20673 -0.0321,34.54315 -1.59466,51.67459 -2.32189,9.42577 -12.32081,17.47183 -22.1606,13.51967 z"
         id="path70543-8-3-24-4" /><path
         style="font-variation-settings:normal;display:inline;fill:#d8d8d8;fill-opacity:1;stroke:none;stroke-width:0.465;stroke-linecap:butt;stroke-linejoin:miter;stroke-miterlimit:4;stroke-dasharray:none;stroke-dashoffset:0;stroke-opacity:1;stop-color:#000000"
         d="m 539.40859,184.22329 c -1.67226,3.13152 -5.61895,3.86727 -3.93658,7.24325 1.43536,3.57955 5.81805,2.26033 8.76647,3.03392 9.60131,1.36267 19.32974,0.90768 28.97691,0.38332 1.78682,-3.14616 -0.99162,-6.3685 -3.51768,-8.005 -4.37422,-2.16574 -9.77279,-6.42203 -14.46395,-7.53164 -6.26412,-0.8766 -10.48734,2.93977 -15.82517,4.87615 z"
         id="path70618-0-7-6-9" /><path
         style="font-variation-settings:normal;opacity:1;fill:#ffffff;fill-opacity:0.693617;stroke:none;stroke-width:3.24641;stroke-linecap:butt;stroke-linejoin:miter;stroke-miterlimit:4;stroke-dasharray:none;stroke-dashoffset:0;stroke-opacity:1;stop-color:#000000;stop-opacity:1"
         d="m 551.04596,91.077018 c -5.60595,3.53593 -10.34004,10.117702 -8.88742,17.029402 2.70391,-5.49997 8.20536,-9.13753 14.26333,-9.568958 7.42386,-2.062526 2.48242,-11.71429 -3.77069,-8.152073 l -0.81935,0.324619 z"
         id="path73911-1-3" /></g><g
       id="g73586"
       transform="matrix(0.14323501,0,0,0.14323501,-214.00633,447.5159)"><path
         style="font-variation-settings:normal;display:inline;fill:#ededed;fill-opacity:1;stroke:#000000;stroke-width:0.465;stroke-linecap:butt;stroke-linejoin:miter;stroke-miterlimit:4;stroke-dasharray:none;stroke-dashoffset:0;stroke-opacity:1;stop-color:#000000"
         d="m 570.94013,120.25934 c 4.27572,-7.94252 -11.43659,-7.59354 -4.04395,-14.48095 2.6646,-7.014772 -3.70278,-13.174131 -9.14821,-16.476722 -7.54131,-3.570447 -14.75275,4.385742 -16.92703,10.993162 -2.4486,8.07254 -5.12353,16.23802 -4.49918,24.80084 -0.25062,12.69194 -1.38429,25.4661 -0.67415,38.11726 0.85429,7.42502 0.68816,15.61033 6.74124,21.04604 3.00997,3.5813 8.28465,2.88565 12.46209,4.19393 7.27348,-0.14999 12.9467,-7.90792 14.43844,-14.63084 3.97304,-7.73196 -1.70012,-15.00616 -3.68724,-22.02765 1.04913,-4.26198 -4.11393,-8.49086 -3.67723,-2.15106 1.16208,6.57168 3.1922,13.14987 1.86906,19.8826 -0.74492,4.78752 -9.05597,14.41035 -12.68997,8.52979 -5.0225,-12.17811 0.42861,-25.44892 -1.95736,-38.0531 0.57048,-6.39701 -4.07394,-15.2723 1.96191,-19.72486 5.33527,-4.52886 13.06159,-4.18094 18.6723,-0.37161 z"
         id="path70933-0" /><ellipse
         style="font-variation-settings:normal;display:inline;fill:#adadad;fill-opacity:1;stroke:none;stroke-width:0.574967;stroke-linecap:butt;stroke-linejoin:miter;stroke-miterlimit:4;stroke-dasharray:none;stroke-dashoffset:0;stroke-opacity:1;stop-color:#000000"
         id="path1089-7-01-1-2-5"
         cx="552.86499"
         cy="-97.495888"
         rx="7.8023124"
         ry="8.9505987"
         transform="matrix(0.93780323,0.34716725,-0.36560224,0.93077119,0,0)" /><path
         style="font-variation-settings:normal;display:inline;fill:#adadad;fill-opacity:1;stroke:none;stroke-width:0.517911;stroke-linecap:butt;stroke-linejoin:miter;stroke-miterlimit:4;stroke-dasharray:none;stroke-dashoffset:0;stroke-opacity:1;stop-color:#000000"
         d="m 565.86549,110.93709 c -0.66785,0.76754 6.32414,4.68993 5.36012,4.9651 -2.15943,0.0589 2.18889,3.39994 -0.88202,3.44339 -2.47148,0.035 -12.49909,-3.44123 -13.58696,-1.98064 -1.45236,1.15893 -7.93243,4.89812 -8.89765,3.90766 0.31894,-3.74847 3.2623,-7.04646 7.12682,-7.19741 3.63807,0.26523 5.88102,-2.68525 8.86794,-3.8365 0.73392,-0.0326 1.43187,0.27376 2.01175,0.6984 z"
         id="path72817-1" /><ellipse
         style="font-variation-settings:normal;display:inline;fill:#363636;fill-opacity:1;stroke:#000000;stroke-width:0.258062px;stroke-linecap:butt;stroke-linejoin:miter;stroke-miterlimit:4;stroke-dasharray:none;stroke-dashoffset:0;stroke-opacity:1;stop-color:#000000"
         id="path1089-7-01-1-8"
         cx="554.35925"
         cy="-102.29046"
         rx="6.9508014"
         ry="8.1520023"
         transform="rotate(20.873152)" /><path
         style="font-variation-settings:normal;display:inline;fill:none;fill-opacity:1;stroke:#000000;stroke-width:0.264583px;stroke-linecap:butt;stroke-linejoin:miter;stroke-miterlimit:4;stroke-dasharray:none;stroke-dashoffset:0;stroke-opacity:1;stop-color:#000000"
         d="m 565.22845,110.5124 c -1.7887,-0.52678 -3.67105,0.0938 -4.7285,1.63365 -2.14303,1.8113 -5.1767,1.3871 -7.61137,2.58137 -2.26683,0.57098 -3.99058,2.26222 -4.59269,4.53237 -0.19697,0.45132 -0.34724,0.94779 -0.26731,1.44514"
         id="path72796-6" /><path
         style="font-variation-settings:normal;display:inline;fill:#adadad;fill-opacity:1;stroke:none;stroke-width:0.517911;stroke-linecap:butt;stroke-linejoin:miter;stroke-miterlimit:4;stroke-dasharray:none;stroke-dashoffset:0;stroke-opacity:1;stop-color:#000000"
         d="m 548.11729,120.85994 c -0.76474,4.62779 -1.83367,9.2253 -2.40035,13.87321 -0.0392,9.19261 -0.0818,18.38822 0.52042,27.56603 -3e-5,3.04433 1.65729,5.76037 2.44724,8.64795 0.69352,1.84523 0.12359,-3.55025 0.26028,-4.86817 -0.0105,-6.2305 -0.33467,-12.47403 -0.0962,-18.69656 0.75723,-8.14012 1.51445,-16.28024 2.27168,-24.42036 -1.00102,-0.70069 -2.00202,-1.40144 -3.00306,-2.1021 z"
         id="path73208-5" /><path
         style="font-variation-settings:normal;display:inline;fill:#f0e1c1;fill-opacity:1;stroke:none;stroke-width:0.264583px;stroke-linecap:butt;stroke-linejoin:miter;stroke-miterlimit:4;stroke-dasharray:none;stroke-dashoffset:0;stroke-opacity:1;stop-color:#000000"
         d="m 561.33052,116.05514 c -7.80962,1.02697 -16.23463,6.65273 -16.3624,15.25724 -0.66367,10.32994 0.89981,20.82925 4.15885,30.6304 1.73443,5.89322 8.66872,7.10854 13.91636,5.96971 5.57885,0.54964 7.8644,-5.0585 8.38504,-9.67177 1.12399,-11.30477 1.31725,-22.7989 -0.13952,-34.09322 -1.28141,-4.48575 -5.9524,-6.61552 -9.95833,-8.09236 z"
         id="path70659-8" /><path
         style="font-variation-settings:normal;display:inline;opacity:0.257463;fill:#d69d31;fill-opacity:1;stroke:none;stroke-width:0.457888px;stroke-linecap:butt;stroke-linejoin:miter;stroke-miterlimit:4;stroke-dasharray:none;stroke-dashoffset:0;stroke-opacity:1;stop-color:#000000"
         d="m 547.256,129.25385 c -0.0588,10.67867 -1.01643,21.77371 2.73621,31.99263 2.84751,5.68345 11.55554,7.28636 15.92582,2.45225 1.80383,-0.7816 3.15634,-5.12951 0.0163,-3.00626 -4.00302,2.16561 -10.17113,0.64985 -11.36105,-4.14962 -1.53515,-5.73588 -3.36412,-11.43764 -4.23966,-17.34185 -0.79731,-4.74026 -1.27374,-9.53452 -1.4234,-14.33905 -0.82443,1.35292 -0.96672,2.98003 -1.65418,4.3919 z"
         id="path71008-1" /><circle
         style="font-variation-settings:normal;display:inline;opacity:0.257463;fill:#d69d31;fill-opacity:1;stroke:none;stroke-width:0.457888px;stroke-linecap:butt;stroke-linejoin:miter;stroke-miterlimit:4;stroke-dasharray:none;stroke-dashoffset:0;stroke-opacity:1;stop-color:#000000"
         id="path71090-0"
         cx="562.0813"
         cy="128.51759"
         r="6.4564548" /><path
         style="font-variation-settings:normal;display:inline;opacity:0.216418;fill:#ffffff;fill-opacity:1;stroke:none;stroke-width:0.457888px;stroke-linecap:butt;stroke-linejoin:miter;stroke-miterlimit:4;stroke-dasharray:none;stroke-dashoffset:0;stroke-opacity:1;stop-color:#000000"
         d="m 557.1263,128.06715 c 0.0179,2.15711 1.49086,4.13367 3.43579,4.98764 1.07514,0.49226 2.30434,0.62096 3.45954,0.37901 1.09398,-0.0804 2.00755,-0.83628 2.67152,-1.65785 0.56172,-0.73388 1.04915,-1.65759 0.89225,-2.60997 -0.11827,-0.71977 -0.81043,-1.17284 -1.4867,-1.2889 -0.65138,-0.0209 -1.30035,0.14646 -1.93471,0.28766 -1.64548,0.39179 -3.29097,1.04589 -5.01181,0.87662 -0.56831,-0.0718 -1.15695,-0.21624 -1.63259,-0.5416 -0.14471,-0.13208 -0.26834,-0.28229 -0.39329,-0.43261 z"
         id="path71146-5" /><path
         style="font-variation-settings:normal;display:inline;opacity:0.735075;fill:none;fill-opacity:1;stroke:#777777;stroke-width:1.265;stroke-linecap:round;stroke-linejoin:round;stroke-miterlimit:4;stroke-dasharray:2.53, 2.53, 1.265, 2.53;stroke-dashoffset:0;stroke-opacity:1;stop-color:#000000"
         d="m 551.12031,123.26234 c -0.68887,5.59038 -1.28437,11.21089 -1.4533,16.83888 1.07503,7.08689 2.04777,14.18901 2.95479,21.29925"
         id="path73260-5" /><path
         style="font-variation-settings:normal;display:inline;opacity:0.735075;fill:none;fill-opacity:1;stroke:#777777;stroke-width:1.265;stroke-linecap:round;stroke-linejoin:round;stroke-miterlimit:4;stroke-dasharray:2.53, 2.53, 1.265, 2.53;stroke-dashoffset:0;stroke-opacity:1;stop-color:#000000"
         d="m 557.4266,118.45754 c -0.87831,4.5059 -1.44376,9.11303 -1.06885,13.70618 0.12634,7.99276 1.44492,15.90387 1.84939,23.87993 0.28632,2.53515 1.00717,4.99091 1.62188,7.45892"
         id="path73326-0" /><path
         style="font-variation-settings:normal;display:inline;opacity:0.735075;fill:none;fill-opacity:1;stroke:#777777;stroke-width:1.265;stroke-linecap:round;stroke-linejoin:round;stroke-miterlimit:4;stroke-dasharray:2.53, 2.53, 1.265, 2.53;stroke-dashoffset:0;stroke-opacity:1;stop-color:#000000"
         d="m 565.53471,119.95904 c 2.49781,14.40515 4.24736,29.46358 0.9009,43.54353"
         id="path73328-4" /><path
         style="font-variation-settings:normal;display:inline;opacity:0.735075;fill:none;fill-opacity:1;stroke:#777777;stroke-width:1.265;stroke-linecap:round;stroke-linejoin:round;stroke-miterlimit:4;stroke-dasharray:2.53, 2.53, 1.265, 2.53;stroke-dashoffset:0;stroke-opacity:1;stop-color:#000000"
         d="m 560.7299,128.96805 c 0.6094,6.00033 1.35747,11.99403 1.44173,18.03234 0.10889,2.30344 -0.11084,4.59575 -0.24054,6.89258"
         id="path73330-6" /><path
         style="font-variation-settings:normal;display:inline;fill:#5c5c5c;fill-opacity:1;stroke:none;stroke-width:0.517911;stroke-linecap:butt;stroke-linejoin:miter;stroke-miterlimit:4;stroke-dasharray:none;stroke-dashoffset:0;stroke-opacity:1;stop-color:#000000"
         d="m 560.24087,115.1214 c -7.15615,1.32888 -13.10346,8.56551 -13.81945,10.22651 -0.24068,1.56363 -1.10969,5.67502 -1.08136,7.25397 0.13106,3.26838 0.47946,4.46959 1.0422,7.30236 0.11744,1.68226 0.23612,3.40998 0.92752,4.97397 0.35467,0.95981 0.42008,1.1938 1.82476,5.36854 0.29727,0.50535 0.92398,2.34946 1.0444,1.43183 -0.51501,0.51078 -0.86375,-5.08879 -1.06594,-5.5595 -0.71536,-2.53314 -1.30897,-5.1317 -1.43321,-7.7681 0.31852,-3.5951 0.36166,-7.20974 0.69831,-10.80327 0.92979,-3.16789 4.43244,-7.1568 11.86277,-12.42631 z"
         id="path1222-9-1-5-7" /><path
         style="font-variation-settings:normal;display:inline;fill:#ffffff;fill-opacity:0.280851;stroke:#676767;stroke-width:0.465;stroke-linecap:butt;stroke-linejoin:miter;stroke-miterlimit:4;stroke-dasharray:none;stroke-dashoffset:0;stroke-opacity:1;stop-color:#000000"
         d="m 550.2194,188.42749 c -11.41649,-3.45435 -17.03482,-15.80678 -15.15851,-27.03396 0.45656,-18.39869 0.73352,-36.9133 2.91778,-55.18179 1.34823,-9.532997 10.36378,-21.737688 21.11598,-16.74245 11.99511,6.263879 12.83113,21.92835 14.88001,33.76394 1.53605,17.20673 -0.0321,34.54315 -1.59466,51.67459 -2.32189,9.42577 -12.32081,17.47183 -22.1606,13.51967 z"
         id="path70543-8" /><path
         style="font-variation-settings:normal;display:inline;fill:#d8d8d8;fill-opacity:1;stroke:none;stroke-width:0.465;stroke-linecap:butt;stroke-linejoin:miter;stroke-miterlimit:4;stroke-dasharray:none;stroke-dashoffset:0;stroke-opacity:1;stop-color:#000000"
         d="m 539.40859,184.22329 c -1.67226,3.13152 -5.61895,3.86727 -3.93658,7.24325 1.43536,3.57955 5.81805,2.26033 8.76647,3.03392 9.60131,1.36267 19.32974,0.90768 28.97691,0.38332 1.78682,-3.14616 -0.99162,-6.3685 -3.51768,-8.005 -4.37422,-2.16574 -9.77279,-6.42203 -14.46395,-7.53164 -6.26412,-0.8766 -10.48734,2.93977 -15.82517,4.87615 z"
         id="path70618-0" /></g></g></svg>
