<svg xmlns="http://www.w3.org/2000/svg" version="1.0" viewBox="0 0 201.487 438.123"><defs><clipPath clipPathUnits="userSpaceOnUse" id="a"><path d="M-.16 1.599h201.238v438.454H-.16z"/></clipPath></defs><path clip-path="url(#a)" d="M180.51 425.642c-22.466 17.49-50.109 16.57-76.033 2.758-25.925-12.892-54.447-50.649-73.456-109.593-14.69-45.113-25.065-116.03-25.065-171.276 6.057-10.134 9.515-21.188 16.43-31.321 6.037-9.215 12.953-18.41 16.41-20.268 3.458-2.758 1.74-18.409 4.318-23.946 1.739 10.134 3.458 14.751 5.197 23.026 1.719 9.215 9.494 2.779 16.41 14.751 6.056 11.953 8.635 24.865-.86 36.818-6.916 7.376-9.514 11.973-14.69 13.832-5.178 1.839 8.634.92 18.148-4.617 8.635-4.598 19.868-11.973 23.326-31.301 3.458-19.349 2.598-25.785 8.635-28.563 5.197-2.758 8.655 8.295 9.514 13.831 0 1.84.86 3.678 2.598 5.517v5.517c7.776 85.648 45.793 144.592 71.717 192.483 25.045 47.891 19.868 94.863-2.598 112.352z" fill="#bea5b1" fill-rule="evenodd"/><path d="M195.402 379.81c-3.458 46.092-38.097 54.367-58.865 52.528-12.992-.92-28.562-5.517-43.294-18.429-28.562-24.885-57.984-73.715-71.836-155.745v-.92c-7.795-42.394-12.992-83.87-14.731-110.593 3.478-7.375 10.394-23.046 15.59-30.401 6.057-9.215 12.993-18.45 16.45-20.288 3.458-2.758 1.74-18.429 4.318-23.966 1.739 10.154 3.478 14.751 5.197 23.046 1.739 9.215 9.534 2.759 16.45 14.751 6.056 11.973 8.655 24.885-.86 36.858-6.935 7.376-9.534 11.993-14.71 13.832-5.198 1.839 8.654.92 18.168-4.617 8.655-4.598 19.908-11.973 23.366-31.321 3.478-19.369 2.598-25.805 8.675-28.583 1.719-.92 3.458-.92 4.317.92 1.74 6.455 2.599 11.992 2.599 16.59 6.915 88.486 49.35 153.906 76.173 206.434 11.254 22.127 14.712 43.314 12.993 59.904zM86.328 328.2c-9.515-19.348-20.788-50.69-25.965-73.715-2.598-8.295-3.477-16.59-5.196-23.966-2.599-11.053-5.197-24.885-8.655-28.562-4.338-4.618-7.795 11.053-8.655 22.106 0 44.233 18.169 114.271 49.33 160.363 1.74 2.758 4.338 6.436 6.056 9.214 9.535 7.376 23.386 7.376 29.443-1.838-13.852-17.51-27.704-44.254-36.358-63.602zm85.708 35.019c0-1.839 0-2.758-.88-3.678-4.317-14.751-11.253-30.421-19.908-46.092-3.458-6.436-6.915-13.812-9.514-20.268-.88-.92-.88-1.839-.88-1.839-10.373-18.428-21.626-12.912-18.168 0 6.915 16.59 14.71 33.18 21.647 47.911 6.056 12.913 10.373 23.966 13.851 34.1v-.92c4.318 11.993 20.768 11.074 13.852-9.214z" fill="#a27f8f" fill-rule="evenodd"/><path d="M113.811 166.659c0-7.356-2.558-14.711-3.398-22.067-.86-6.436-2.578-14.73-1.719-21.167 0-1.839 1.72-4.597 1.72-6.436 0-.92-.86-1.839-1.72-3.678-.86-2.758 0-6.436-1.699-9.194-.86-1.839-3.418-7.376-5.137-8.295-3.418 5.537-4.277 16.57-4.277 23.925.86 10.114 2.578 21.168 5.996 30.362z" fill="#895a71" fill-rule="evenodd"/><path clip-path="url(#a)" d="M5.956 147.43c5.177-9.214 9.495-21.207 16.39-31.36 6.037-9.215 12.953-18.45 16.39-20.288 3.458-2.778 1.74-18.449 4.318-23.986 1.739 10.154 3.458 14.752 5.177 23.067 1.739 9.214 9.494 2.758 16.41 14.75 6.036 11.993 8.615 24.905-.86 36.898-6.915 7.376-9.494 11.993-14.69 13.832-5.178 1.839 8.634.92 18.128-4.617 8.635-4.598 19.848-11.993 23.306-31.361 3.458-19.369 2.599-25.825 8.635-28.583 5.177-2.778 8.635 8.295 9.494 13.832.86 5.536 10.354 15.69 22.427 15.69-10.354-6.476-16.39-11.073-17.25-25.844-.86-14.751-3.458-39.656-17.27-56.266-12.932-15.67-18.988-14.751-18.109-20.288.86-4.617.86-15.67-4.317-17.53C68.08 3.539 60.323.76 55.147 4.458c-5.177 3.698-2.599 15.69-10.354 22.147-6.916 6.456-20.728 17.51-27.623 35.039-5.177 11.992-9.495 30.441-11.214 48.89-1.739 11.073.86 35.978-5.196 42.434 2.598-1.839 4.317-2.758 5.196-5.536z" fill="#d3d49a" fill-rule="evenodd"/><path clip-path="url(#a)" d="M180.51 425.642c-22.466 17.49-50.109 16.57-76.033 2.758-25.925-12.892-54.447-50.649-73.456-109.593-14.69-45.113-25.065-116.03-25.065-171.276 6.057-10.134 9.515-21.188 16.43-31.321 6.037-9.215 12.953-18.41 16.41-20.268 3.458-2.758 1.74-18.409 4.318-23.946 1.739 10.134 3.458 14.751 5.197 23.026 1.719 9.215 9.494 2.779 16.41 14.751 6.056 11.953 8.635 24.865-.86 36.818-6.916 7.376-9.514 11.973-14.69 13.832-5.178 1.839 8.634.92 18.148-4.617 8.635-4.598 19.868-11.973 23.326-31.301 3.458-19.349 2.598-25.785 8.635-28.563 5.197-2.758 8.655 8.295 9.514 13.831 0 1.84.86 3.678 2.598 5.517v5.517c7.776 85.648 45.793 144.592 71.717 192.483 25.045 47.891 19.868 94.863-2.598 112.352" fill="none" stroke="#1a171b" stroke-width=".8" stroke-linecap="round" stroke-linejoin="round"/><path clip-path="url(#a)" d="M5.956 147.43c5.177-9.214 9.495-21.207 16.39-31.36 6.037-9.215 12.953-18.45 16.39-20.288 3.458-2.778 1.74-18.449 4.318-23.986 1.739 10.154 3.458 14.752 5.177 23.067 1.739 9.214 9.494 2.758 16.41 14.75 6.036 11.993 8.615 24.905-.86 36.898-6.915 7.376-9.494 11.993-14.69 13.832-5.178 1.839 8.634.92 18.128-4.617 8.635-4.598 19.848-11.993 23.306-31.361 3.458-19.369 2.599-25.825 8.635-28.583 5.177-2.778 8.635 8.295 9.494 13.832.86 5.536 10.354 15.69 22.427 15.69-10.354-6.476-16.39-11.073-17.25-25.844-.86-14.751-3.458-39.656-17.27-56.266-12.932-15.67-18.988-14.751-18.109-20.288.86-4.617.86-15.67-4.317-17.53C68.08 3.539 60.323.76 55.147 4.458c-5.177 3.698-2.599 15.69-10.354 22.147-6.916 6.456-20.728 17.51-27.623 35.039-5.177 11.992-9.495 30.441-11.214 48.89-1.739 11.073.86 35.978-5.196 42.434 2.598-1.839 4.317-2.758 5.196-5.536" fill="none" stroke="#1a171b" stroke-width=".8" stroke-linecap="round" stroke-linejoin="round"/><path d="M89.846 389.804c7.775 8.315 17.27 19.388 29.362 24.005 11.233 4.617 25.924 8.295 36.278 3.698.86 0 .86-1.859 0-1.859-6.037 0-22.447-10.154-33.68-24.905-11.233-14.77-32.84-54.467-36.298-63.701z" fill="#bea5b1" fill-rule="evenodd"/><path d="M120.687 414.829c-16.39-.92-37.118-29.523-56.106-71.977-16.41-34.16-25.045-89.526-25.045-96.002 5.197 28.623 12.093 56.306 29.362 96.922 12.093 30.461 37.118 66.46 51.789 71.057zm20.867-83.19c-6.856-15.67-15.45-32.28-16.31-35.059 9.454 12.932 30.901 59.044 31.74 71.957-1.698-3.678-8.574-20.288-15.43-36.898z" fill="#e5dce0" fill-rule="evenodd"/><path clip-path="url(#a)" d="M164.92 426.581c12.972-11.033 32-45.112 16.43-82.89-15.55-36.837-76.094-135.377-82.15-168.537-2.579-14.731-5.177-25.785-14.691-20.268-9.514 6.456-36.318 12.912-42.375 7.376 2.599-.92 10.374-6.436 13.832-18.41 2.599-12.911-3.458-23.025-9.494-27.642-5.197-3.678-13.852-2.759-20.768 6.456-6.915 8.275-19.028 23.026-19.028 23.026 5.197-9.215 9.514-20.268 15.57-29.482 6.057-9.215 12.973-18.41 16.43-20.268 3.458-2.758 1.74-18.409 4.318-23.946 1.739 10.134 3.478 14.751 5.197 23.026 1.739 9.215 9.514 2.779 16.43 14.751 6.056 11.973 8.655 24.865-.86 36.838-6.915 7.356-9.514 11.973-14.71 13.812-5.178 1.839 8.654.92 18.168-4.597 8.635-4.618 19.888-11.973 23.346-31.321 3.458-19.349 2.599-25.785 8.635-28.563 1.739-.92 3.478-.92 4.337.94 1.72 6.435 2.599 11.972 2.599 16.57 6.915 88.406 49.27 153.806 76.094 206.294 25.924 53.428 10.373 95.802-17.31 106.835z" fill="#895a71" fill-rule="evenodd"/><path d="M156.985 370.455c2.658 7.396 9.734 22.147 10.613 35.979 0 .92.88 1.839 1.76.92 2.658-5.538 4.417-11.994 5.296-17.51 0-8.315-.88-23.986-3.518-31.381z" fill="#bea5b1" fill-rule="evenodd"/><path d="M177.053 406.474c-12.972 24.905-49.25-50.75-51.849-57.206-8.635-20.307-29.382-46.132-25.045-71.037 2.579-17.549 15.55-10.153 26.784-3.697 24.185 12.912 36.278 37.837 44.913 64.58 3.458 11.074 6.916 21.228 7.775 32.3.86 11.074-2.578 20.289-3.458 31.362z" fill="#a27f8f" fill-rule="evenodd"/><path d="M88.766 111.392c1.74-6.456 0-14.75 5.197-19.348 3.458-4.617 8.635-1.859 12.952 1.84 3.458-7.376 2.599-11.994 0-19.35-1.719-8.294-6.036-16.59-9.494-23.965-3.458-6.456-7.795-9.214-12.972-12.912-4.338-3.678-9.514-8.295-9.514-13.811-2.599 2.758-6.916 0-9.515-.94-.86 0-1.739 2.778-1.739 2.778 4.338 2.759 7.796 7.376 11.254 10.134 3.457 3.678 7.775 6.456 9.514 11.054 2.578 3.697 1.719 5.536.86 9.214-.86 2.778-2.6 2.778-2.6 6.456.86 3.698 1.74 8.295 1.74 11.993 0 5.516-.88 10.134-1.74 15.65-.859 7.376 2.6 16.59 2.6 24.885 0 5.537-3.459 23.046-6.057 26.724 3.458-1.839 6.056-8.295 6.916-14.731.86-4.617 2.598-10.134 2.598-14.751zm-78.502 15.771c3.448-3.678 5.167-11.043 8.615-14.721 3.437-4.597 6.026-8.285 9.464-12.882 3.448-3.678 5.167-4.598 6.896-9.195 2.578-7.365 1.719-13.801 4.297-21.167-3.438 1.849-6.026 11.963-7.745 16.56-3.448 6.446-9.475 9.204-12.912 15.64-2.589 3.678-5.167 7.366-6.886 11.963-1.73 3.678-1.73 7.356-3.448 11.963-.86 2.758-1.72 4.597-1.72 8.275 0 2.758.86 4.597-.869 6.436z" fill="#b7bc58" fill-rule="evenodd"/><path d="M52.648 17.43c.87-6.417 4.317-11.913 6.916-11.913 12.083-.92 18.988 1.839 16.4 18.329-.86 2.748 0 2.748-3.448 3.667-1.729.91-4.317.91-6.046 0-2.589-1.839-3.458-5.496-6.047-7.335-1.729-1.83-5.176 0-6.905-.91zm54.347 62.801c1.74.92 2.619 5.497 3.478 8.255.88 1.82.88 4.578.88 7.316.879 4.577 0 9.154 1.738 12.812-1.738-2.738-3.477-6.396-4.357-10.054-.88-1.839-.88-3.678-1.739-4.577-1.759-2.758-4.377-3.678-5.257-6.416z" fill="#b7bc58" fill-rule="evenodd"/><path d="M47.281 76.364c.86 3.687 1.73 7.385 2.589 11.083.86 1.839.86 4.617 2.588 6.466 1.73 3.688 6.037 3.688 8.625 6.466 1.729.92 2.598 2.768 4.317 4.617 1.73 1.84 1.73 4.618 2.589 7.386 2.588 4.617 6.046 12.003 5.177 16.62 2.588-5.537-.86-13.852-3.448-18.469-1.73-4.617-1.73-13.852-6.037-16.62-1.729-.93-4.317-1.849-6.046-2.778-4.317-1.85-2.588-2.769-4.317-6.466-.86-2.769-2.589-5.537-3.448-9.235-.86-2.768-1.73-5.536-2.589-7.385-.87 0-.87-.93-.87 0 .87.92.87 6.466.87 8.315zM10.114 100.3c.87-3.679.87-7.356 2.608-11.034 0-.92.87-2.758.87-4.597L16.2 73.625c1.73-5.516 3.468-10.123 6.076-15.64 2.599-5.517 6.946-11.043 11.284-15.64 2.608-2.759 6.086-3.678 9.554-5.517 1.739-1.84 3.478-4.598 4.337-7.366-.86 5.527-5.207 12.882-10.413 16.56-5.207 4.607-7.816 11.963-12.163 18.399-1.729 3.688-3.468 6.446-5.207 9.204-.87 3.678-1.739 6.436-3.468 10.124-.87 2.759-2.608 6.436-4.347 10.114z" fill="#e8e8ca" fill-rule="evenodd"/><path d="M49.21 85.748c.87 2.768 1.73 5.537 2.589 8.305 1.719 2.768 1.719 2.768 4.307 3.698 4.307 2.768 9.474 4.607 12.053 10.144-2.579-3.688-3.438-7.376-6.886-10.144-2.589-1.85-4.308-1.85-6.026-3.698-1.73-1.839-2.589-4.607-4.308-5.537zm-33.76-9.424c0-6.426 4.298-14.681 6.876-20.178 1.72-2.758 4.288-5.507 6.007-7.346 1.719-2.748 3.438-3.667 6.006-5.506-.85 2.758-4.287 5.506-6.006 8.265a5432.764 5432.764 0 0 0-5.147 11.003c-1.719 2.748-2.578 5.507-4.297 9.175-.86 1.838-4.298 4.587-3.438 6.416z" fill="#f3f3e4" fill-rule="evenodd"/><path d="M110.553 86.627c-5.177-10.113-4.317-23.006-11.233-32.22-2.579-3.678-6.037-7.376-8.635-10.134-3.458-3.678-8.635-6.436-10.374-11.053 5.197 3.698 6.916 10.134 10.374 15.67.86 1.84 2.598 2.759 4.317 5.517.86 2.758 1.74 6.436 3.458 9.214 1.74 2.759 3.458 3.678 5.177 6.437.88 1.838 1.74 3.677 2.599 5.516 1.739 4.617 3.458 10.134 5.176 14.731zM75.924 29.462V17.5c0-1.848.87-5.526 0-7.375-1.739-1.839-3.478-2.758-6.086-3.678-.87 0-1.74-.92-3.478-.92-1.74-.929-2.609.92-4.358 0 5.227 1.84 12.183 3.678 9.575 10.125-1.74 3.687-1.74 4.607 0 8.294 1.739 3.678 2.608 3.678 5.216 5.517zm-54.407 78.353c3.458-3.698 5.187-8.315 9.504-11.084 6.037-5.536 4.318-11.073 5.177-17.539-.86 4.617-2.588 11.083-6.046 14.771-3.448 4.617-6.906 10.154-10.364 15.69z" fill="#a6b03b" fill-rule="evenodd"/></svg>