<?xml version="1.0" encoding="utf-8"?>
<!-- Generator: Adobe Illustrator 26.0.3, SVG Export Plug-In . SVG Version: 6.00 Build 0)  -->
<svg version="1.1" xmlns="http://www.w3.org/2000/svg" xmlns:xlink="http://www.w3.org/1999/xlink" x="0px" y="0px"
	 viewBox="0 0 1350.2 823.4" style="enable-background:new 0 0 1350.2 823.4;" xml:space="preserve">
<style type="text/css">
	.st0{fill:#FFFFFF;}
	.st1{fill:none;stroke:#000000;stroke-width:1.7881;stroke-linecap:round;}
	.st2{fill:none;stroke:#000000;stroke-width:1.9848;stroke-linecap:round;}
	.st3{fill:none;stroke:#000000;stroke-width:2.4193;stroke-linecap:round;}
	.st4{font-family:'MyriadPro-Regular';}
	.st5{font-size:92px;}
</style>
<g id="Layer_1">
	<g>
		<g id="XMLID_10_">
			<g>
				<path class="st0" d="M18.4,455.3c2.1-0.6,4.2-0.9,6.6-0.8c0.2,15.7-1.5,30.9-1.6,46.8c-3.3-1.8-6.5,0.5-9.7,0.8
					C16.9,487.8,12.4,467.5,18.4,455.3z"/>
				<path class="st0" d="M17.4,631c6.1,14.6-0.2,29.8-1.7,45c-4.3-1.1-7.3,1.5-11.3,1.6c-1.1-14.9-2.1-31.9,0.8-46.8
					C9.2,630.9,13.3,630.5,17.4,631z"/>
				<path class="st0" d="M13.4,766.5c-27.8-11.5-4.5-62.7-9-89c4,0,7-2.6,11.3-1.6C14.9,702.1,11.1,739,13.4,766.5z"/>
				<path class="st0" d="M18.4,455.3c-8.6-100.6,14.4-95.6,6.6-0.8C22.6,454.4,20.5,454.7,18.4,455.3z"/>
				<path class="st0" d="M13.7,502.1c3.3-0.3,6.5-2.5,9.7-0.8c2.7,11.3-0.4,22.8-0.4,33.5c-3.7,1.2-7.9,1-11.7,0.4
					C14.7,524.2,9.6,511.9,13.7,502.1z"/>
				<path class="st0" d="M11.4,535.3c3.8,0.6,8,0.8,11.7-0.4c1.7,11.8-1.2,23.2-1.8,35.1c-4.7,1.2-8.6-0.9-13-1.6
					C10.5,557.7,8.2,545.2,11.4,535.3z"/>
				<path class="st0" d="M8.3,568.4c4.4,0.7,8.3,2.8,13,1.6c-2.9,20,3.8,42.4-3.9,61.1c-4-0.5-8.1-0.1-12.2-0.3
					C3.4,610.2,9.5,589,8.3,568.4z"/>
			</g>
			<g>
				<path class="st1" d="M15.7,676c-0.8,26.1-4.6,63-2.3,90.5c-27.8-11.5-4.5-62.7-9-89"/>
				<path class="st1" d="M4.4,677.6c-1.1-14.9-2.1-31.9,0.8-46.8"/>
				<path class="st1" d="M5.2,630.8c-1.7-20.6,4.3-41.7,3.1-62.4"/>
				<path class="st1" d="M8.3,568.4c2.3-10.7,0-23.2,3.1-33.1"/>
				<path class="st1" d="M11.4,535.3c3.3-11-1.8-23.4,2.3-33.1"/>
				<path class="st1" d="M13.7,502.1c3.2-14.3-1.4-34.6,4.7-46.8"/>
				<path class="st1" d="M25,454.5c7.7-94.8-15.2-99.8-6.6,0.8"/>
				<path class="st1" d="M23.5,501.3c0.1-15.9,1.8-31.1,1.6-46.8"/>
				<path class="st1" d="M25,454.5c-2.4-0.1-4.5,0.1-6.6,0.8"/>
				<path class="st1" d="M23.1,534.9c0-10.8,3.1-22.2,0.4-33.5"/>
				<path class="st1" d="M23.5,501.3c-3.3-1.8-6.5,0.5-9.7,0.8"/>
				<path class="st1" d="M21.3,569.9c0.6-11.9,3.5-23.3,1.8-35.1"/>
				<path class="st1" d="M23.1,534.9c-3.7,1.2-7.9,1-11.7,0.4"/>
				<path class="st1" d="M17.4,631c7.7-18.7,1-41.1,3.9-61.1"/>
				<path class="st1" d="M21.3,569.9c-4.7,1.2-8.6-0.9-13-1.6"/>
				<path class="st1" d="M15.7,676c1.5-15.1,7.8-30.3,1.7-45"/>
				<path class="st1" d="M17.4,631c-4-0.5-8.1-0.1-12.2-0.3"/>
				<path class="st1" d="M15.7,676c-4.3-1.1-7.3,1.5-11.3,1.6"/>
			</g>
		</g>
	</g>
	<g>
		<g id="XMLID_9_">
			<g>
				<path class="st0" d="M223.9,730.8c-4.5,14.3-3.5,29.4-4.7,44.2c-24.4,2.6-14.1-30.7-8.2-46.5
					C215.6,728.3,220.1,728.1,223.9,730.8z"/>
				<path class="st0" d="M223.9,631c0.6,1.1,1.1,1.7,1.6,2.3c-1.6,10.4-0.3,20.8-4.7,30.4c-3.5,1.1-7.3,1.1-10.9,1.6
					c1.6-11-3.2-25.3,1.6-34.3C215.4,629.9,220,629.8,223.9,631z"/>
				<path class="st0" d="M205.6,466.9c-29.5-142.7,18.9-121.8,18.7,1.2C218.3,470.1,211,470.9,205.6,466.9z"/>
				<path class="st0" d="M223.1,665.6c3.5-0.6,8.9-0.2,10.9,2.9c-1.9,4.9-0.2,11.2-3.9,15.6c-2.1-0.7-4.2-1.3-6.2-1.6
					C222.3,677.1,223.5,671.2,223.1,665.6z"/>
				<path class="st0" d="M242.6,635.7c2.2,6.3,0.1,30.2-8.6,32.8c-2-3.1-7.4-3.4-10.9-2.9c-0.7-0.5-1.4-0.9-2.3-1.8
					c4.4-9.6,3.1-20,4.7-30.4C231.3,633.3,237.3,633,242.6,635.7z"/>
				<path class="st0" d="M241.1,561.4c-0.4,8.7-0.1,17.1,2.3,25.2c-5.6,1.6-11.5,0.6-17.1,0c-0.6-8.8,1.2-18-1-26.5
					c0.2-0.7,0.4-1.3,0.7-1.9C231.1,557.2,236.4,559.2,241.1,561.4z"/>
				<path class="st0" d="M230.5,610.4c4,0.7,8.2-1.5,12.1,0.4c4.6,7.3,2.4,17.3,0,25c-5.3-2.7-11.3-2.4-17.1-2.3
					c-0.5-0.7-1-1.2-1.6-2.3C228.2,624.6,223.4,614.7,230.5,610.4z"/>
				<path class="st0" d="M211.4,599.8c4.8,3.3,10.9,2.1,16.4,2.3c2.5,2.1,2,5.4,2.7,8.2c-7.2,4.4-2.4,14.2-6.6,20.7
					c-3.9-1.3-8.5-1.1-12.5,0C211.5,620.9,209.6,610.1,211.4,599.8z"/>
				<path class="st0" d="M227.8,602.2c2-4.7,0.1-10.1-2.6-14c0.2-0.5,0.6-1,1-1.6c5.6,0.6,11.5,1.6,17.1,0
					c3.6,7.7-0.5,16.2-0.8,24.2c-3.9-1.9-8.1,0.3-12.1-0.4C229.8,607.5,230.3,604.2,227.8,602.2z"/>
				<path class="st0" d="M227.8,602.2c-5.5-0.2-11.6,1-16.4-2.3c-0.7-3.8-1.3-7.8-0.4-11.7c4.7,0,9.4,0,14.2,0
					C227.9,592,229.8,597.5,227.8,602.2z"/>
				<path class="st0" d="M210.7,560.5c4.9,1.2,9.6-1.1,14.6-0.4c2.2,8.5,0.5,17.7,1,26.5c-0.4,0.5-0.8,1-1,1.6c-4.7,0-9.5,0-14.2,0
					C211.5,578.8,205,569.4,210.7,560.5z"/>
				<path class="st0" d="M225.2,560.1c-5-0.7-9.7,1.6-14.6,0.4c-5.7-13.9-2.4-30.5-3.9-44.8c4.3,1,9.2,0.9,12.7,3.9
					c-0.4,13.3,1.8,26.5,6.4,38.6C225.6,558.8,225.4,559.4,225.2,560.1z"/>
				<path class="st0" d="M230.9,517.6c-4,0.4-7.1,2.9-11.4,1.9c-3.5-3-8.4-2.9-12.7-3.9c-3.5-15.5-3.1-33-1.2-48.7
					c5.4,4,12.7,3.3,18.7,1.2C224.4,484.9,228,501.5,230.9,517.6z"/>
				<path class="st0" d="M220.8,663.8c0.9,0.9,1.6,1.4,2.3,1.8c0.4,5.6-0.9,11.5,0.8,16.9c-4.1,1.4-8.7,0.7-13,0.5
					c1.5-6.3-3.6-12.4-1-17.7C213.5,664.9,217.3,664.9,220.8,663.8z"/>
				<path class="st0" d="M225.9,558.1c-4.5-12.1-6.8-25.3-6.4-38.6c4.3,0.9,7.4-1.6,11.4-1.9c8,12.9,15.9,28.1,10.1,43.8
					C236.4,559.2,231.1,557.2,225.9,558.1z"/>
				<path class="st0" d="M211,728.5c-0.3-14.6-4.3-31.3-0.1-45.5c4.3,0.2,8.9,0.9,13-0.5c2.1,0.3,4.1,0.8,6.2,1.6
					c-2.9,15.1,1.1,32.5-6.2,46.8C220.1,728.1,215.6,728.3,211,728.5z"/>
			</g>
			<g>
				<path class="st1" d="M234,668.5c-1.9,4.9-0.2,11.2-3.9,15.6"/>
				<path class="st1" d="M230.2,684.1c-2.9,15.1,1.1,32.5-6.2,46.8"/>
				<path class="st1" d="M205.6,466.9c-29.5-142.7,18.9-121.8,18.7,1.2"/>
				<path class="st1" d="M224.3,468c0.1,16.8,3.6,33.5,6.6,49.5"/>
				<path class="st1" d="M230.9,517.6c8,12.9,15.9,28.1,10.1,43.8"/>
				<path class="st1" d="M241.1,561.4c-0.4,8.7-0.1,17.1,2.3,25.2"/>
				<path class="st1" d="M243.4,586.6c3.6,7.7-0.5,16.2-0.8,24.2"/>
				<path class="st1" d="M242.6,610.7c4.6,7.3,2.4,17.3,0,25"/>
				<path class="st1" d="M242.6,635.7c2.2,6.3,0.1,30.2-8.6,32.8"/>
				<path class="st1" d="M242.6,635.7c-5.3-2.7-11.3-2.4-17.1-2.3"/>
				<path class="st1" d="M225.5,633.4c-1.6,10.4-0.3,20.8-4.7,30.4"/>
				<path class="st1" d="M220.8,663.8c0.9,0.9,1.6,1.4,2.3,1.8"/>
				<path class="st1" d="M205.6,466.9c5.4,4,12.7,3.3,18.7,1.2"/>
				<path class="st1" d="M206.8,515.6c4.3,1,9.2,0.9,12.7,3.9"/>
				<path class="st1" d="M205.6,466.9c-1.9,15.7-2.4,33.2,1.2,48.7"/>
				<path class="st1" d="M210.7,560.5c4.9,1.2,9.6-1.1,14.6-0.4"/>
				<path class="st1" d="M225.2,560.1c0.2-0.7,0.4-1.3,0.7-1.9"/>
				<path class="st1" d="M206.8,515.6c1.5,14.3-1.8,30.9,3.9,44.8"/>
				<path class="st1" d="M219.5,519.5c-0.4,13.3,1.8,26.5,6.4,38.6"/>
				<path class="st1" d="M230.9,517.6c-4,0.4-7.1,2.9-11.4,1.9"/>
				<path class="st1" d="M241.1,561.4c-4.7-2.2-10-4.2-15.2-3.2"/>
				<path class="st1" d="M225.2,560.1c2.2,8.5,0.5,17.7,1,26.5"/>
				<path class="st1" d="M210.7,560.5c-5.6,9,0.9,18.3,0.4,27.7"/>
				<path class="st1" d="M211,588.1c4.7,0,9.4,0,14.2,0"/>
				<path class="st1" d="M225.2,588.1c0.2-0.5,0.6-1,1-1.6"/>
				<path class="st1" d="M227.8,602.2c2.5,2.1,2,5.4,2.7,8.2"/>
				<path class="st1" d="M243.4,586.6c-5.6,1.6-11.5,0.6-17.1,0"/>
				<path class="st1" d="M225.2,588.1c2.7,3.9,4.6,9.4,2.6,14"/>
				<path class="st1" d="M211.4,599.8c4.8,3.3,10.9,2.1,16.4,2.3"/>
				<path class="st1" d="M211,588.1c-0.9,3.9-0.3,7.9,0.4,11.7"/>
				<path class="st1" d="M211.4,631c4-1.1,8.5-1.3,12.5,0"/>
				<path class="st1" d="M211.4,599.8c-1.9,10.3,0.1,21,0,31.2"/>
				<path class="st1" d="M230.5,610.4c-7.2,4.4-2.4,14.2-6.6,20.7"/>
				<path class="st1" d="M223.9,631c0.6,1.1,1.1,1.7,1.6,2.3"/>
				<path class="st1" d="M242.6,610.7c-3.9-1.9-8.1,0.3-12.1-0.4"/>
				<path class="st1" d="M211.4,631c-4.7,9,0,23.3-1.6,34.3"/>
				<path class="st1" d="M209.9,665.3c3.6-0.5,7.4-0.4,10.9-1.6"/>
				<path class="st1" d="M209.9,665.3c-2.6,5.3,2.5,11.4,1,17.7"/>
				<path class="st1" d="M210.9,683c4.3,0.2,8.9,0.9,13-0.5"/>
				<path class="st1" d="M234,668.5c-2-3.1-7.4-3.4-10.9-2.9"/>
				<path class="st1" d="M223.1,665.6c0.4,5.6-0.9,11.5,0.8,16.9"/>
				<path class="st1" d="M211,728.5c4.5-0.2,9-0.4,12.9,2.3"/>
				<path class="st1" d="M230.2,684.1c-2.1-0.7-4.2-1.3-6.2-1.6"/>
				<path class="st1" d="M210.9,683c-4.1,14.2-0.2,30.9,0.1,45.5"/>
				<path class="st1" d="M211,728.5c-5.9,15.8-16.2,49.2,8.2,46.5c1.2-14.8,0.2-29.9,4.7-44.2"/>
			</g>
		</g>
	</g>
	<g>
		<g id="XMLID_3_">
			<g>
				<path class="st0" d="M449,590.1c5.3,9.2,0.7,20.6-0.4,30.3c-4.7-2.6-8.7,3.2-13.4-0.4c-0.2-0.9-0.3-2-0.4-3
					c1.5-9.1,0.3-18.7,0-27.7c1.7-0.9,3.5-1.8,5.2-1.7C441.9,591.5,444.9,589.8,449,590.1z"/>
				<path class="st0" d="M402.7,422.2c2.3-13.4-9.1-34.5,0.9-43.2l0.9,1.7c1.6,3,5.9,4.2,6.9,7.8c-1.3,11.6,0.7,21.4-0.9,32.9
					C407.7,421.4,404.6,422.1,402.7,422.2z"/>
				<path class="st0" d="M435.2,620c-9.2,6.3-3.4,21.4-3.5,30.7c-3.9-0.2-7.9,0.4-11.7-0.4c-0.9-4.9-0.4-9.4,0.5-13.9
					c1.3-6.6,3.4-13.1,3-20.3c3.7,0.3,7.7-0.7,11.3,0.9C434.8,618,434.9,619.1,435.2,620z"/>
				<path class="st0" d="M435.2,620c4.7,3.7,8.7-2.2,13.4,0.4c-7.2,10.3-2.6,23.9-9.8,34c-2.9,0.1-4.5-2.8-7.1-3.7
					C431.8,641.4,426,626.3,435.2,620z"/>
				<path class="st0" d="M438.2,563.3c4-2.9,8.2,1.7,12.1,0c1.3,8.7,1.8,18.4-1.3,26.8c-4.2-0.3-7.1,1.4-9.1-2.6
					c-1.1-7.8-3.9-14.9-2.6-23.4C437.6,563.9,437.9,563.6,438.2,563.3z"/>
				<path class="st0" d="M450.3,539c1.5,7.7,4.3,17.3,0,24.2c-3.9,1.7-8.1-2.9-12.1,0c-2.3-7.3,1.4-15.9-3.5-22.5
					C439.7,538.9,445.2,540.7,450.3,539z"/>
				<path class="st0" d="M443.4,511.3c-1.8,10.5,10.8,17.2,6.9,27.7c-5.1,1.7-10.6-0.2-15.6,1.7c-1.6-9.4,0.1-19.2-1.7-28.6
					C436.4,512,440.1,512.7,443.4,511.3z"/>
				<path class="st0" d="M436,479.8c5.1,9.8,6.4,20.7,7.4,31.6c-3.3,1.4-6.9,0.7-10.4,0.9c-2.3-1.7-5.5,0.1-7.8-1.7
					c-4.6-9-0.2-18.6-2.6-28C427.1,481.6,431.8,481.9,436,479.8z"/>
				<path class="st0" d="M439.9,587.5c-1.7-0.1-3.5,0.8-5.2,1.7c-2.4,0.8-4.5,0.7-6.1,0.4c-0.6-8.6,1.3-17,0-25.5c3.1,0,5.7,0,8.7,0
					C436,572.6,438.8,579.7,439.9,587.5z"/>
				<path class="st0" d="M438.8,654.4c2.9,5.4-1.2,10.6-1.2,16.2c-7.4,0.6-14.3,3.6-21.9,2.6c-0.6-6.9-2.4-13.1-3.5-19.9
					c2.8-0.5,5.2-1.8,7.8-3c3.8,0.8,7.8,0.2,11.7,0.4C434.2,651.7,435.8,654.5,438.8,654.4z"/>
				<path class="st0" d="M438.2,563.3c-0.3,0.3-0.6,0.6-0.9,0.9c-3,0-5.5,0-8.7,0c-0.3-0.3-0.6-0.6-0.9-0.9
					c2.1-6.1-2.9-11.2-3.5-17.3c1.1-1.7,1.9-3.9,3-6.1c2.7-0.1,5,0.1,7.4,0.9C439.5,547.4,435.9,556,438.2,563.3z"/>
				<path class="st0" d="M437.6,670.6c-0.5,10.8,0.3,24-8.9,31.1c-4.1,1.7-8.2-0.2-12.4,0c-0.2-0.3-0.4-0.6-0.6-0.9
					c-1-8.7-1.3-17.5-1.7-26.2c0.8-0.6,1.3-1,1.7-1.4C423.3,674.2,430.2,671.3,437.6,670.6z"/>
				<path class="st0" d="M434.7,589.2c0.3,9,1.5,18.6,0,27.7c-3.5-1.6-7.5-0.6-11.3-0.9c-0.3-0.3-0.6-0.6-0.9-0.9
					c2.5-7.2,4-15.5,3.2-23.4c0.5-0.6,1.7-1.4,2.9-2.2C430.3,589.9,432.3,590.1,434.7,589.2z"/>
				<path class="st0" d="M426.1,436.9c8,11.9,8.9,28.5,10,42.9c-4.2,2.1-8.9,1.8-13.4,2.7c-2.3-0.5-4.6-0.5-6.9-0.6
					c-1.9-6.5-1.9-13.3-3-19.9c1.6-6.1-1.2-12.9,1.7-18.6C420,445,421.7,438.3,426.1,436.9z"/>
				<path class="st0" d="M433,512.2c1.8,9.4,0.1,19.2,1.7,28.6c-2.4-0.7-4.7-1-7.4-0.9c-1.2-10.1-8.3-18.7-8.2-29.4
					c2.2,0,4.1,0,6.1,0C427.5,512.3,430.7,510.5,433,512.2z"/>
				<path class="st0" d="M428.7,564.1c1.3,8.5-0.6,16.9,0,25.5c-1.2,0.8-2.4,1.5-2.9,2.2c-6.5,0-13.1,0-19.6,0
					c-0.4-7.9-1.9-15.3-2.6-23.4c7.6-4.7,15.9-2,24.2-5.2C428.1,563.6,428.4,563.9,428.7,564.1z"/>
				<path class="st0" d="M428.7,701.8c0.5,13.1-1.3,27.2-9.5,36.9c-3.8-2.4-9.2-0.2-12.1-4.1c-0.8-12.2,4.1-22.3,9.2-32.9
					C420.4,701.6,424.6,703.4,428.7,701.8z"/>
				<path class="st0" d="M424.3,546c0.5,6.1,5.6,11.2,3.5,17.3c-8.4,3.2-16.6,0.5-24.2,5.2c-2.2-6.9-3.8-17,0.9-22.8
					C410.8,548.1,417.8,546.4,424.3,546z"/>
				<path class="st0" d="M416.3,387.9c8.7,14.6,12,31.9,9.8,49c-4.4,1.4-6,8.1-11.7,6.5c-1.7-7.5-2.2-14.5-3.9-22.1
					c1.5-11.4-0.4-21.3,0.9-32.9l1.7,0.9c0.6,0,1.2,0,1.7,0L416.3,387.9C416.3,387.9,416.3,387.9,416.3,387.9z"/>
				<path class="st0" d="M425.8,591.8c0.8,7.8-0.7,16.2-3.2,23.4c-5.6-1.7-11.7,0.1-17.3-1.7c-0.3-7-2.8-15.2,0.9-21.6
					C412.7,591.8,419.2,591.8,425.8,591.8z"/>
				<path class="st0" d="M425.2,510.5c-1.9,0-3.9,0-6.1,0c-1.4-9.5-6.1-18.8-3.5-28.6c2.3,0.1,4.6,0.1,6.9,0.6
					C425.1,491.8,420.6,501.5,425.2,510.5z"/>
				<path class="st0" d="M427.4,539.9c-1.1,2.2-1.9,4.4-3,6.1c-6.5,0.4-13.6,2.1-19.9-0.3c-3.3-11.2-4.9-25.1,0.9-36.1
					c4.4,1.6,9.3,0.6,13.9,0.9C419.1,521.2,426.2,529.8,427.4,539.9z"/>
				<path class="st0" d="M423.5,616.1c0.5,7.2-1.7,13.7-3,20.3l-0.8-0.2c-2.2,0.1-13.7,1.5-15.2,1.2c-2.3-8.4-3.1-15.7,0.9-23.9
					c5.6,1.8,11.7,0.1,17.3,1.7C422.9,615.5,423.2,615.8,423.5,616.1z"/>
				<path class="st0" d="M419.6,636.2l0.8,0.2c-0.9,4.5-1.4,9-0.5,13.9c-2.6,1.2-5,2.5-7.8,3c-4.1-2.2-8.3,0.2-12.1,1.7
					c-1.5-5.9-2.3-14.8,4.3-17.6C406,637.7,417.5,636.3,419.6,636.2z"/>
				<path class="st0" d="M419.1,510.5c-4.6-0.3-9.4,0.7-13.9-0.9c0.4-16.6-6.3-31.3-2.2-47.6c3.1,1.2,6.4,0.9,9.5,0
					c1.1,6.6,1.1,13.5,3,19.9C413.1,491.7,417.7,501,419.1,510.5z"/>
				<path class="st0" d="M416.5,387.8l-0.2,0.1c0,0,0,0,0-0.1l-1.4,1.5c-0.6,0-1.2,0-1.7,0l-1.7-0.9c-1-3.6-5.4-4.7-6.9-7.8
					l-0.9-1.7l0-0.3C411.8,373,415,381.1,416.5,387.8z"/>
				<path class="st0" d="M415.7,700.9c0.2,0.3,0.4,0.6,0.6,0.9c-5.1,10.6-10,20.7-9.2,32.9c-1.9,1.5-4.5,4.5-7.8,4.3
					c1.7-12.2-3.1-24.5-0.6-36.4C404.7,704.1,409.9,701.5,415.7,700.9z"/>
				<path class="st0" d="M415.7,673.2c-0.5,0.4-0.9,0.9-1.7,1.4c-4.4-1.5-8.4,2.4-13,1.2c1.4-7.3-4.1-13.5-0.9-20.8
					c3.8-1.6,8-3.9,12.1-1.7C413.3,660.1,415.1,666.3,415.7,673.2z"/>
				<path class="st0" d="M414,674.6c0.4,8.8,0.7,17.5,1.7,26.2c-5.7,0.6-11,3.2-17,1.7c-4.7-9.6,4.9-17.2,2.3-26.8
					C405.5,677,409.5,673.2,414,674.6z"/>
				<path class="st0" d="M407,734.7c2.9,3.9,8.3,1.7,12.1,4.1c-6.3,7.9-7.2,18.5-10.4,27.1l-6.1,0c-3.8-8.5-2.5-17.4-3.4-26.9
					C402.5,739.2,405.2,736.2,407,734.7z"/>
				<path class="st0" d="M414.4,443.4c-2.9,5.7-0.2,12.6-1.7,18.6c-3.1,0.9-6.4,1.2-9.5,0c-4.8-12.4-0.7-26.9-0.4-39.8
					c1.9-0.1,5-0.8,7.8-0.9C412.2,428.8,412.7,435.9,414.4,443.4z"/>
			</g>
			<g>
				<path class="st2" d="M403.5,378.7c8.3-5.6,11.5,2.5,13,9.1"/>
				<path class="st2" d="M419.1,738.7c-6.3,7.9-7.2,18.5-10.4,27.1"/>
				<path class="st2" d="M408.8,766.7c1.8,10.1-7.7,8.1-6.2-0.9"/>
				<line class="st2" x1="402.6" y1="765.9" x2="408.8" y2="765.8"/>
				<path class="st2" d="M399.2,739c1.7-12.2-3.1-24.5-0.6-36.4"/>
				<path class="st2" d="M398.7,702.6c-4.7-9.6,4.9-17.2,2.3-26.8"/>
				<path class="st2" d="M401,675.8c1.4-7.3-4.1-13.5-0.9-20.8"/>
				<path class="st2" d="M400.1,655c-1.5-5.9-2.3-14.8,4.3-17.6"/>
				<path class="st2" d="M404.4,637.4c-2.3-8.4-3.1-15.7,0.9-23.9"/>
				<path class="st2" d="M405.3,613.5c-0.3-7-2.8-15.2,0.9-21.6"/>
				<path class="st2" d="M406.2,591.8c-0.4-7.9-1.9-15.3-2.6-23.4"/>
				<path class="st2" d="M403.6,568.5c-2.2-6.9-3.8-17,0.9-22.8"/>
				<path class="st2" d="M404.4,545.7c-3.3-11.2-4.9-25.1,0.9-36.1"/>
				<path class="st2" d="M405.3,509.6c0.4-16.6-6.3-31.3-2.2-47.6"/>
				<path class="st2" d="M403.1,462c-4.8-12.4-0.7-26.9-0.4-39.8"/>
				<path class="st2" d="M402.7,422.2c2.3-13.4-9.1-34.5,0.9-43.2"/>
				<path class="st2" d="M411.4,388.5c-1-3.6-5.4-4.7-6.9-7.8"/>
				<line class="st2" x1="404.4" y1="380.7" x2="403.6" y2="378.9"/>
				<path class="st2" d="M402.7,422.2c1.9-0.1,5-0.8,7.8-0.9"/>
				<path class="st2" d="M410.5,421.3c1.5-11.4-0.4-21.3,0.9-32.9"/>
				<path class="st2" d="M414.8,389.3c-0.6,0-1.2,0-1.7,0"/>
				<line class="st2" x1="413.1" y1="389.3" x2="411.4" y2="388.5"/>
				<path class="st2" d="M426.1,436.9c2.2-17-1.1-34.4-9.8-49c0,0,0,0,0-0.1"/>
				<line class="st2" x1="416.3" y1="387.9" x2="414.8" y2="389.3"/>
				<path class="st2" d="M403.1,462c3.1,1.2,6.4,0.9,9.5,0"/>
				<path class="st2" d="M412.7,462c1.6-6.1-1.2-12.9,1.7-18.6"/>
				<path class="st2" d="M414.4,443.4c-1.7-7.5-2.2-14.5-3.9-22.1"/>
				<path class="st2" d="M412.7,462c1.1,6.6,1.1,13.5,3,19.9"/>
				<path class="st2" d="M436,479.8c-1.1-14.4-1.9-31-10-42.9"/>
				<path class="st2" d="M426.1,436.9c-4.4,1.4-6,8.1-11.7,6.5"/>
				<path class="st2" d="M405.3,509.6c4.4,1.6,9.3,0.6,13.9,0.9"/>
				<path class="st2" d="M419.1,510.5c-1.4-9.5-6.1-18.8-3.5-28.6"/>
				<path class="st2" d="M422.6,482.5c2.4,9.3-2,19,2.6,28"/>
				<path class="st2" d="M443.4,511.3c-0.9-10.9-2.3-21.8-7.4-31.6"/>
				<path class="st2" d="M436,479.8c-4.2,2.1-8.9,1.8-13.4,2.7"/>
				<path class="st2" d="M419.1,510.5c2.2,0,4.1,0,6.1,0"/>
				<path class="st2" d="M422.6,482.5c-2.3-0.5-4.6-0.5-6.9-0.6"/>
				<path class="st2" d="M404.4,545.7c6.4,2.4,13.4,0.7,19.9,0.3"/>
				<path class="st2" d="M424.3,546c1.1-1.7,1.9-3.9,3-6.1"/>
				<path class="st2" d="M427.4,539.9c-1.2-10.1-8.3-18.7-8.2-29.4"/>
				<path class="st2" d="M427.4,539.9c2.7-0.1,5,0.1,7.4,0.9"/>
				<path class="st2" d="M433,512.2c-2.3-1.7-5.5,0.1-7.8-1.7"/>
				<path class="st2" d="M450.3,539c3.9-10.5-8.7-17.2-6.9-27.7"/>
				<path class="st2" d="M443.4,511.3c-3.3,1.4-6.9,0.7-10.4,0.9"/>
				<path class="st2" d="M433,512.2c1.8,9.4,0.1,19.2,1.7,28.6"/>
				<path class="st2" d="M427.8,563.3c0.3,0.3,0.6,0.6,0.9,0.9"/>
				<path class="st2" d="M438.2,563.3c-2.3-7.3,1.4-15.9-3.5-22.5"/>
				<path class="st2" d="M450.3,563.3c4.3-6.9,1.5-16.5,0-24.2"/>
				<path class="st2" d="M450.3,539c-5.1,1.7-10.6-0.2-15.6,1.7"/>
				<path class="st2" d="M403.6,568.5c7.6-4.7,15.9-2,24.2-5.2"/>
				<path class="st2" d="M427.8,563.3c2.1-6.1-2.9-11.2-3.5-17.3"/>
				<path class="st2" d="M438.2,563.3c-0.3,0.3-0.6,0.6-0.9,0.9"/>
				<path class="st2" d="M449,590.1c3.1-8.5,2.6-18.1,1.3-26.8"/>
				<path class="st2" d="M450.3,563.3c-3.9,1.7-8.1-2.9-12.1,0"/>
				<path class="st2" d="M406.2,591.8c6.5,0,13.1,0,19.6,0"/>
				<path class="st2" d="M425.8,591.8c0.5-0.6,1.7-1.4,2.9-2.2"/>
				<path class="st2" d="M428.7,589.7c-0.6-8.6,1.3-17,0-25.5"/>
				<path class="st2" d="M439.9,587.5c-1.1-7.8-3.9-14.9-2.6-23.4"/>
				<path class="st2" d="M437.3,564.1c-3,0-5.5,0-8.7,0"/>
				<path class="st2" d="M448.6,620.4c1.2-9.7,5.8-21.1,0.4-30.3"/>
				<path class="st2" d="M449,590.1c-4.2-0.3-7.1,1.4-9.1-2.6"/>
				<path class="st2" d="M439.9,587.5c-1.7-0.1-3.5,0.8-5.2,1.7"/>
				<path class="st2" d="M423.5,616.1c3.7,0.3,7.7-0.7,11.3,0.9"/>
				<path class="st2" d="M434.7,616.9c1.5-9.1,0.3-18.7,0-27.7"/>
				<path class="st2" d="M434.7,589.2c-2.4,0.8-4.5,0.7-6.1,0.4"/>
				<path class="st2" d="M405.3,613.5c5.6,1.8,11.7,0.1,17.3,1.7"/>
				<path class="st2" d="M422.6,615.2c2.5-7.2,4-15.5,3.2-23.4"/>
				<path class="st2" d="M404.4,637.4c1.5,0.2,13-1.1,15.2-1.2"/>
				<path class="st2" d="M400.1,655c3.8-1.6,8-3.9,12.1-1.7"/>
				<path class="st2" d="M412.2,653.3c2.8-0.5,5.2-1.8,7.8-3"/>
				<path class="st2" d="M420,650.3c-0.9-4.9-0.4-9.4,0.5-13.9c1.3-6.6,3.4-13.1,3-20.3"/>
				<path class="st2" d="M423.5,616.1c-0.3-0.3-0.6-0.6-0.9-0.9"/>
				<path class="st2" d="M420,650.3c3.8,0.8,7.8,0.2,11.7,0.4"/>
				<path class="st2" d="M431.7,650.7c0.1-9.3-5.7-24.4,3.5-30.7"/>
				<path class="st2" d="M435.2,620c-0.2-0.9-0.3-2-0.4-3"/>
				<path class="st2" d="M438.8,654.4c7.2-10.1,2.7-23.7,9.8-34"/>
				<path class="st2" d="M448.6,620.4c-4.7-2.6-8.7,3.2-13.4-0.4"/>
				<path class="st2" d="M437.6,670.6c-0.1-5.5,4-10.8,1.2-16.2"/>
				<path class="st2" d="M438.8,654.4c-2.9,0.1-4.5-2.8-7.1-3.7"/>
				<path class="st2" d="M401,675.8c4.6,1.2,8.5-2.6,13-1.2"/>
				<path class="st2" d="M414,674.6c0.8-0.6,1.3-1,1.7-1.4"/>
				<path class="st2" d="M415.7,673.2c-0.6-6.9-2.4-13.1-3.5-19.9"/>
				<path class="st2" d="M416.3,701.8c4.2-0.2,8.3,1.7,12.4,0"/>
				<path class="st2" d="M428.7,701.8c9.2-7.2,8.5-20.4,8.9-31.1"/>
				<path class="st2" d="M437.6,670.6c-7.4,0.6-14.3,3.6-21.9,2.6"/>
				<path class="st2" d="M398.7,702.6c6,1.4,11.3-1.2,17-1.7"/>
				<path class="st2" d="M415.7,700.9c-1-8.7-1.3-17.5-1.7-26.2"/>
				<path class="st2" d="M399.2,739c3.3,0.2,5.9-2.8,7.8-4.3"/>
				<path class="st2" d="M407,734.7c-0.8-12.2,4.1-22.3,9.2-32.9"/>
				<path class="st2" d="M416.3,701.8c-0.2-0.3-0.4-0.6-0.6-0.9"/>
				<path class="st2" d="M407,734.7c2.9,3.9,8.3,1.7,12.1,4.1"/>
				<path class="st2" d="M419.1,738.7c8.2-9.7,10-23.9,9.5-36.9"/>
				<path class="st2" d="M399.2,739c0.9,9.5-0.4,18.4,3.4,26.9"/>
			</g>
		</g>
	</g>
	<g>
		<g id="XMLID_5_">
			<g>
				<path class="st0" d="M880.8,594.7c4.1,17-3,41.6-10.3,58.6c-9.9,1.8-14.1-10.6-24.5-5.8l-0.2-0.2c0.3-0.3,0.5-0.7,0.7-1.1
					c1-17.1,2.9-35-1.2-52.2c1.1-1.3,2.1-1.9,4.3-2.3C857.9,597.5,870.9,591.6,880.8,594.7z"/>
				<path class="st0" d="M868.7,487.9c1.8,15.8,7.5,30.4,10.5,46c-9.9,2.6-19.5,4.3-29.6,6.2c-1.6-0.5-2.8-0.8-3.9-1.2
					c1.2-16.8-3.9-30.3-7-45.6C849.3,493.4,858.9,490.5,868.7,487.9z"/>
				<path class="st0" d="M804.4,374.8c3.5,17.4,6.3,35.9,6.2,54.6c-3.3,1.9-7.3,2.8-10.9,3.9C797.3,420.1,774.6,351.7,804.4,374.8z"
					/>
				<path class="st0" d="M827.8,649.3c-0.5-18.8,4.6-36.2,8.6-53.8c0.3-0.3,0.5-0.5,0.8-0.8c2.6-0.6,5.1-0.8,8.2-0.8
					c4,17.2,2.2,35.2,1.2,52.2c-0.2,0.5-0.4,0.8-0.7,1.1c-1.9,1.9-6,1.2-7.9,3.9C834.3,650.8,831.6,646.8,827.8,649.3z"/>
				<path class="st0" d="M832.5,490.2c2.6-0.3,5.7,0,6.2,3.1c3.1,15.4,8.2,28.9,7,45.6c-3.6,2-7.6,1.7-11.7,2.7
					c-5.5-6-10.1-13.6-15.6-18.7c0.9-8.8-2.3-18-0.4-27.3C823.2,496.1,829.7,495,832.5,490.2z"/>
				<path class="st0" d="M870.5,653.3c3.2,13-4.3,24.8-13.1,33.4c-8.3-1-15.2-5.7-22.6-9c0.6-8.8,4.1-17.3,3.1-26.6
					c1.9-2.7,6-2,7.9-3.9l0.2,0.2C856.4,642.8,860.6,655.1,870.5,653.3z"/>
				<path class="st0" d="M819.3,682.2l-1,0c-7.2,0.5-13.5-1.6-20.2-3.4c-3.4-11-9-24.8-3.1-35.9c4.4,1.5,7.8-3.5,12.5-3.1
					c6.5,2,9.6,8.8,17.2,9.4c-3.1,9.4-6.2,20.1-1.6,29.6C822.7,680.7,820.6,681.1,819.3,682.2z"/>
				<path class="st0" d="M804.4,374.8c19.7-11.6,20.1,51.8,28.1,65.5c-2.9,1.5-4.6,4-7.3,5.7c-2.9-0.6-5.8-0.1-8.7-0.3
					c-4.8-4.5-1.1-11.8-5.8-16.4C810.7,410.7,807.9,392.2,804.4,374.8z"/>
				<path class="st0" d="M799.3,551.8c7.5-0.1,14.7,2.9,22.2,0.8c1.6,13.1,6.3,26.6,2.7,40.2c-0.4,0.1-0.8,0.2-1.2,0.4
					c-9,0.7-18.8,1.1-28.1-0.8C791.4,581.8,798,564.4,799.3,551.8z"/>
				<path class="st0" d="M819.3,682.2c-0.4,0.4-0.7,0.8-0.9,1.4c0.5,14.1-4.4,30.7,3.9,43.4c-7.5,1.3-11.3-6.2-17.9-7.5
					c-3.7-13.5-8.1-26.2-6.2-40.6c6.7,1.8,13,3.9,20.2,3.4L819.3,682.2z"/>
				<path class="st0" d="M818.4,683.6c0.1-0.6,0.5-1,0.9-1.4c1.3-1.1,3.4-1.5,3.8-3.3c4.1-0.5,7.9,1.7,11.7-1.2
					c7.4,3.2,14.4,8,22.6,9c-7.1,16-17.9,30-29.6,42.1c-2.2-0.7-4-1.3-5.5-1.8C814,714.3,818.9,697.7,818.4,683.6z"/>
				<path class="st0" d="M827.8,728.8c-3.3,82.3-45.1,62.7-23.4-9.4c6.6,1.3,10.4,8.9,17.9,7.5C823.8,727.5,825.6,728.1,827.8,728.8
					z"/>
				<path class="st0" d="M879.3,533.9c5.8,9.2,5.3,23.1,3.1,32.8c-9-1.4-17.5-4.3-26.5-1.6c-2.1-8.4-7.3-15.9-6.2-25
					C859.7,538.2,869.4,536.5,879.3,533.9z"/>
				<path class="st0" d="M868.7,487.9c-9.8,2.6-19.4,5.6-30,5.5c-0.5-3.2-3.6-3.4-6.2-3.1c-1.8-15.2-4.1-29.7-7.3-44.2
					c2.7-1.7,4.4-4.2,7.3-5.7C851.7,449.2,865.9,467.8,868.7,487.9z"/>
				<path class="st0" d="M855.9,565.1c9-2.8,17.5,0.2,26.5,1.6c-2,9.4,3.9,18.9-1.6,28.1c-9.9-3.1-22.9,2.7-31.2-3.1
					c3.7-7.5,2.4-16.4,2.7-24.6C853.5,566.3,854.7,565.7,855.9,565.1z"/>
				<path class="st0" d="M852.3,567c-5.3,0.2-10.8,0.1-16,1.2c-1.3-6.9-1.4-14.3-3.1-21.1c0.7-1.7,0.7-3.8,0.8-5.5
					c4.1-1,8.1-0.7,11.7-2.7c1.1,0.4,2.3,0.7,3.9,1.2c-1,9,4.1,16.5,6.2,25C854.7,565.7,853.5,566.3,852.3,567z"/>
				<path class="st0" d="M845.3,593.9c-3,0-5.6,0.2-8.2,0.8c-1.7-8.6-0.3-17.7-0.8-26.5c5.2-1.1,10.7-1,16-1.2
					c-0.4,8.2,1,17.1-2.7,24.6C847.4,592.1,846.4,592.7,845.3,593.9z"/>
				<path class="st0" d="M827.8,649.3c3.8-2.4,6.5,1.6,10.1,1.8c1,9.3-2.5,17.8-3.1,26.6c-3.8,2.8-7.6,0.6-11.7,1.2
					c-4.7-9.5-1.5-20.2,1.6-29.6C825.7,649.3,826.8,649.3,827.8,649.3z"/>
				<path class="st0" d="M834,541.7c-0.1,1.6-0.1,3.8-0.8,5.5c-2.9-0.1-5.8,0.1-8.6,0.8c-2.6-7.9-8.5-13.5-8.2-22.2
					c0.4-0.8,1.2-1.8,1.9-2.7C823.9,528.1,828.6,535.7,834,541.7z"/>
				<path class="st0" d="M824.7,547.9c2.8-0.7,5.7-0.9,8.6-0.8c1.7,6.8,1.9,14.2,3.1,21.1c0.5,8.8-1,17.9,0.8,26.5
					c-0.2,0.2-0.5,0.5-0.8,0.8c-4.5,0.6-8-1.6-12.1-2.7c3.6-13.6-1.1-27-2.7-40.2C822.3,550.7,823.6,549.3,824.7,547.9z"/>
				<path class="st0" d="M825.2,446c3.2,14.4,5.5,29,7.3,44.2c-2.8,4.8-9.3,5.9-14.4,5.5c-0.7-0.8-1.5-1.6-2.7-2.3
					c-0.2-15.9-0.9-31.2,1.2-47.6C819.4,445.9,822.3,445.5,825.2,446z"/>
				<path class="st0" d="M836.4,595.5c-3.9,17.6-9.1,35-8.6,53.8c-1,0-2.1,0-3.1,0c-7.6-0.6-10.7-7.4-17.2-9.4
					c6.3-15.2,12.4-30.2,15.6-46.8c0.4-0.1,0.8-0.3,1.2-0.4C828.3,593.9,831.9,596.1,836.4,595.5z"/>
				<path class="st0" d="M824.7,547.9c-1.1,1.3-2.3,2.7-3.1,4.7c-7.5,2.1-14.7-0.8-22.2-0.8c-1.5-8.5,0.4-16.7,1.6-25
					c5.7,1.7,9.9,0.8,15.6-1.2C816.2,534.4,822.1,540,824.7,547.9z"/>
				<path class="st0" d="M815.3,493.3c1.2,0.7,2,1.5,2.7,2.3c-1.9,9.3,1.2,18.5,0.4,27.3c-0.8,1-1.6,1.9-1.9,2.7
					c-5.7,2-9.9,2.8-15.6,1.2c-1.4-10.9,2.3-22.7-1.6-32.8C804.7,494.5,809.9,492.8,815.3,493.3z"/>
				<path class="st0" d="M810.6,429.4c4.7,4.6,1,11.9,5.8,16.4c-2.1,16.3-1.4,31.6-1.2,47.6c-5.4-0.5-10.6,1.1-16,0.8
					c-3-19.3-0.9-40.3,0.4-60.8C803.3,432.2,807.3,431.3,810.6,429.4z"/>
				<path class="st0" d="M795,643c-4-16.8,0.3-33.6,0-50.7c9.3,1.9,19,1.5,28.1,0.8c-3.2,16.5-9.3,31.6-15.6,46.8
					C802.9,639.6,799.5,644.6,795,643z"/>
			</g>
			<g>
				<path class="st1" d="M804.4,374.8c19.7-11.6,20.1,51.8,28.1,65.5"/>
				<path class="st1" d="M832.5,440.3c19.3,8.9,33.4,27.5,36.3,47.6"/>
				<path class="st1" d="M868.7,487.9c1.8,15.8,7.5,30.4,10.5,46"/>
				<path class="st1" d="M879.3,533.9c5.8,9.2,5.3,23.1,3.1,32.8"/>
				<path class="st1" d="M882.4,566.7c-2,9.4,3.9,18.9-1.6,28.1"/>
				<path class="st1" d="M880.8,594.7c4.1,17-3,41.6-10.3,58.6"/>
				<path class="st1" d="M870.5,653.3c3.2,13-4.3,24.8-13.1,33.4"/>
				<path class="st1" d="M857.4,686.7c-7.1,16-17.9,30-29.6,42.1"/>
				<path class="st1" d="M799.7,433.3c-2.4-13.1-25.1-81.5,4.7-58.5"/>
				<path class="st1" d="M799.7,433.3c3.6-1.1,7.6-2,10.9-3.9"/>
				<path class="st1" d="M810.6,429.4c0.1-18.7-2.8-37.2-6.2-54.6"/>
				<path class="st1" d="M810.6,429.4c4.7,4.6,1,11.9,5.8,16.4"/>
				<path class="st1" d="M816.5,445.8c2.9,0.2,5.8-0.3,8.7,0.3"/>
				<path class="st1" d="M799.7,433.3c-1.3,20.6-3.4,41.5-0.4,60.8"/>
				<path class="st1" d="M799.3,494.1c5.4,0.3,10.6-1.3,16-0.8"/>
				<path class="st1" d="M825.2,446c3.2,14.4,5.5,29,7.3,44.2"/>
				<path class="st1" d="M832.5,490.2c2.6-0.3,5.7,0,6.2,3.1"/>
				<path class="st1" d="M832.5,440.3c-2.9,1.5-4.6,4-7.3,5.7"/>
				<path class="st1" d="M815.3,493.3c1.2,0.7,2,1.5,2.7,2.3"/>
				<path class="st1" d="M818,495.7c5.2,0.5,11.7-0.7,14.4-5.5"/>
				<path class="st1" d="M816.5,445.8c-2.1,16.3-1.4,31.6-1.2,47.6"/>
				<path class="st1" d="M838.7,493.3c3.1,15.4,8.2,28.9,7,45.6"/>
				<path class="st1" d="M868.7,487.9c-9.8,2.6-19.4,5.6-30,5.5"/>
				<path class="st1" d="M818,495.7c-1.9,9.3,1.2,18.5,0.4,27.3"/>
				<path class="st1" d="M818.4,523c5.5,5.1,10.1,12.7,15.6,18.7"/>
				<path class="st1" d="M800.9,526.9c5.7,1.7,9.9,0.8,15.6-1.2"/>
				<path class="st1" d="M816.5,525.7c0.4-0.8,1.2-1.8,1.9-2.7"/>
				<path class="st1" d="M799.3,494.1c3.9,10,0.2,21.8,1.6,32.8"/>
				<path class="st1" d="M824.7,547.9c2.8-0.7,5.7-0.9,8.6-0.8"/>
				<path class="st1" d="M833.2,547.2c0.7-1.7,0.7-3.8,0.8-5.5"/>
				<path class="st1" d="M816.5,525.7c-0.3,8.7,5.6,14.3,8.2,22.2"/>
				<path class="st1" d="M799.3,551.8c7.5-0.1,14.7,2.9,22.2,0.8"/>
				<path class="st1" d="M821.6,552.6c0.8-1.9,2-3.4,3.1-4.7"/>
				<path class="st1" d="M800.9,526.9c-1.1,8.2-3.1,16.5-1.6,25"/>
				<path class="st1" d="M849.6,540.1c-1,9,4.1,16.5,6.2,25"/>
				<path class="st1" d="M879.3,533.9c-9.9,2.6-19.5,4.3-29.6,6.2"/>
				<path class="st1" d="M833.2,547.2c1.7,6.8,1.9,14.2,3.1,21.1"/>
				<path class="st1" d="M836.4,568.2c5.2-1.1,10.7-1,16-1.2"/>
				<path class="st1" d="M849.6,540.1c-1.6-0.5-2.8-0.8-3.9-1.2"/>
				<path class="st1" d="M845.7,539c-3.6,2-7.6,1.7-11.7,2.7"/>
				<path class="st1" d="M821.6,552.6c1.6,13.1,6.3,26.6,2.7,40.2"/>
				<path class="st1" d="M824.3,592.8c4.1,1.1,7.6,3.3,12.1,2.7"/>
				<path class="st1" d="M836.4,595.5c0.3-0.3,0.5-0.5,0.8-0.8"/>
				<path class="st1" d="M795,592.4c9.3,1.9,19,1.5,28.1,0.8"/>
				<path class="st1" d="M823.1,593.2c0.4-0.1,0.8-0.3,1.2-0.4"/>
				<path class="st1" d="M799.3,551.8c-1.3,12.5-8,29.9-4.3,40.6"/>
				<path class="st1" d="M855.9,565.1c-1.2,0.6-2.3,1.2-3.5,1.9"/>
				<path class="st1" d="M852.3,567c-0.4,8.2,1,17.1-2.7,24.6"/>
				<path class="st1" d="M882.4,566.7c-9-1.4-17.5-4.3-26.5-1.6"/>
				<path class="st1" d="M836.4,568.2c0.5,8.8-1,17.9,0.8,26.5"/>
				<path class="st1" d="M837.1,594.7c2.6-0.6,5.1-0.8,8.2-0.8"/>
				<path class="st1" d="M795,643c4.4,1.5,7.8-3.5,12.5-3.1"/>
				<path class="st1" d="M795,592.4c0.3,17.1-4,33.9,0,50.7"/>
				<path class="st1" d="M880.8,594.7c-9.9-3.1-22.9,2.7-31.2-3.1"/>
				<path class="st1" d="M849.6,591.6c-2.2,0.5-3.2,1.1-4.3,2.3"/>
				<path class="st1" d="M845.3,593.9c4,17.2,2.2,35.2,1.2,52.2"/>
				<path class="st1" d="M807.5,639.9c6.5,2,9.6,8.8,17.2,9.4"/>
				<path class="st1" d="M824.7,649.3c1,0,2.1,0,3.1,0"/>
				<path class="st1" d="M823.1,593.2c-3.2,16.5-9.3,31.6-15.6,46.8"/>
				<path class="st1" d="M836.4,595.5c-3.9,17.6-9.1,35-8.6,53.8"/>
				<path class="st1" d="M827.8,649.3c3.8-2.4,6.5,1.6,10.1,1.8"/>
				<path class="st1" d="M795,643c-5.9,11.1-0.3,24.9,3.1,35.9"/>
				<path class="st1" d="M798.2,678.9c6.7,1.8,13,3.9,20.2,3.4"/>
				<path class="st1" d="M818.4,683.6c0.1-0.6,0.5-1,0.9-1.4c1.3-1.1,3.4-1.5,3.8-3.3"/>
				<path class="st1" d="M837.9,651.1c1,9.3-2.5,17.8-3.1,26.6"/>
				<path class="st1" d="M870.5,653.3c-9.9,1.8-14.1-10.6-24.5-5.8"/>
				<path class="st1" d="M846.5,646.2c-0.2,0.5-0.4,0.8-0.7,1.1c-1.9,1.9-6,1.2-7.9,3.9"/>
				<path class="st1" d="M824.7,649.3c-3.1,9.4-6.2,20.1-1.6,29.6"/>
				<path class="st1" d="M823.1,678.9c4.1-0.5,7.9,1.7,11.7-1.2"/>
				<path class="st1" d="M818.4,683.6c0.5,14.1-4.4,30.7,3.9,43.4"/>
				<path class="st1" d="M857.4,686.7c-8.3-1-15.2-5.7-22.6-9"/>
				<path class="st1" d="M804.4,719.5c6.6,1.3,10.4,8.9,17.9,7.5"/>
				<path class="st1" d="M798.2,678.9c-1.9,14.3,2.6,27.1,6.2,40.6"/>
				<path class="st1" d="M827.8,728.8c-2.2-0.7-4-1.3-5.5-1.8"/>
				<path class="st1" d="M804.4,719.5c-21.7,72.1,20.1,91.7,23.4,9.4"/>
			</g>
		</g>
	</g>
	<g>
		<g id="XMLID_8_">
			<g>
				<path class="st0" d="M1299.3,573.5c-5.9,4.8-8.6,3.9-15.7,3.3v0c0-0.1,0-0.1,0-0.2c1.7-7.1-8-16.9-7.8-23.8
					c4.9-0.3,6.4-6.9,11.7-5.7c0.5,10.8,5.3,18,11.9,26.2C1299.3,573.4,1299.3,573.5,1299.3,573.5z"/>
				<path class="st0" d="M1272.7,593.1c-2.7-5.9-2.7-12.3-2.3-18.9c3.5-1,10.4,0.4,13.1,2.6v0c1,3.8,8,8,9.1,11.5
					c-0.1,0.2-0.2,0.5-0.3,0.7c-5.8,2.7-12.4,2.3-18.1,5C1273.7,593.8,1273.2,593.4,1272.7,593.1z"/>
				<path class="st0" d="M1175.7,368.9c4,36.5,8.3,74.2,20.5,108.4c-0.2,0.2-0.3,0.5-0.5,0.7c-2.7,0.1-5.6-0.3-8.3,0.4
					c-2.6-0.6-5.3-0.7-7.9-1.5C1183.2,462.5,1155.8,357.5,1175.7,368.9z"/>
				<path class="st0" d="M1304.8,589.8c-4.2,0.6-8.2-0.6-12.2-1.5c-1-3.5-8.1-7.7-9.1-11.5c7.1,0.7,9.8,1.5,15.7-3.3
					c1.8,5,3.4,9.8,6.7,14C1305.6,588.3,1305.2,589.1,1304.8,589.8z"/>
				<path class="st0" d="M1270.5,574.2c-2.5-3.6-7.1-2.3-10.9-2.9c-2.9-4.4-6.1-5.6-7.9-10.9c0.8-1.9,1.2-3.9,1.9-4.9
					c5.8,0.9,8.7-4.3,14.3-4.5c2.5,1.3,5,3.7,7.9,1.9c-0.2,6.9,9.4,16.7,7.8,23.8c0,0.1,0,0.1,0,0.2
					C1280.9,574.6,1274,573.2,1270.5,574.2z"/>
				<path class="st0" d="M1210.8,608.7c14.4-4.1,30.6,5.8,45.3-5.1c3.3,1.4,6.5,3,10.1,3.5c0.5,0.7,0.9,1.4,1.4,2.1
					c-4.3,3.9-10.1,4.2-14.5,8.5c-13.6-3.7-27.2,4.9-40.8,1C1212.7,615.3,1210.8,612.1,1210.8,608.7z"/>
				<path class="st0" d="M1268.2,661.5c0,0.5,0,1,0,1.5c-3.6,3.1-10.8,5.2-16.2,4.1c-1.5-3.1-1.1-6.6-1.1-9.9
					c1.5-0.3,4.2-2.8,6.8-3.3C1261.2,656.4,1264.3,659.7,1268.2,661.5z"/>
				<path class="st0" d="M1256.1,603.6c-14.7,10.9-30.9,1-45.3,5.1c-1.3-1.3-2.8-2.8-4.5-3c-0.9-2.5-1.5-5-1.5-7.5c1-0.5,2-1,3-1.5
					c6.1,1.7,29,0.1,41.7-4.1v0c0,0,0.1,0,0.2,0c0,0,0.1,0,0.2,0l0,0.2C1250,593.9,1255.8,602.5,1256.1,603.6z"/>
				<path class="st0" d="M1199.5,798.8c2.2-15.9-12.6-31.1-3.4-44c2.7-0.2,7.1,0.4,7.4-3.4c5.7-0.2,11.5,0.5,17.1-0.4
					c3.7,3.6,0.7,9.8-0.4,14.1c-20.6,11.4-3.4,39.6-12.8,57.2C1194.7,822.7,1198.7,809.7,1199.5,798.8z"/>
				<path class="st0" d="M1251.6,560.4c1.9,5.3,5,6.5,7.9,10.9c-1.4,2.4-3.9,3.9-4.9,5.7c-2.2-2.4-5.6-1.4-8.3-0.7
					c-0.6-0.4-1.2-0.8-1.9-1.1c-1.5-4.9-9.3-11.9-3.4-16.2C1244.5,559.3,1248,560.3,1251.6,560.4z"/>
				<path class="st0" d="M1213.8,712.9c3.5-12.9-0.5-8,12.8-16.9c4.1,6,13.2,3.9,19.3,8c-16.3,10.1-29.4,25.5-25.3,47
					c-5.6,0.8-11.4,0.2-17.1,0.4C1207.9,738.9,1208.8,725.3,1213.8,712.9z"/>
				<path class="st0" d="M1212.3,681.9c-4.1-0.1-5.8-0.2-7.5,3.8c-3.1-1.7-7.2,0.3-10-2.1c4.1-6.8,2.4-15.4,7-22.1
					c2.5-1.1,5.1-1.9,7.5-3c3.4,3,9,3,12.1,7.5C1219.9,672.5,1211.7,674.9,1212.3,681.9z"/>
				<path class="st0" d="M1268.2,663.1c7.7,0.3,10.3,8.9,15.1,13.6c0,12.2-12.5,14-22.3,14c-5.3-3.6-12.5-5.9-19.3-8.2
					c-0.7-7.1,4.8-11.8,10.2-15.2C1257.4,668.3,1264.5,666.2,1268.2,663.1z"/>
				<path class="st0" d="M1270.5,574.2c-0.5,6.6-0.4,12.9,2.3,18.9c-2.2,0.7-4.5,1.3-6,2c-2.7-1.5-5.1-3.6-6.4-4.9
					c1-5.7-6.3-7.5-5.7-13.2c1-1.7,3.5-3.3,4.9-5.7C1263.4,571.9,1268,570.6,1270.5,574.2z"/>
				<path class="st0" d="M1246,704.1c-6.1-4.1-15.2-2-19.3-8c0-3.2,0.6-4.8,1.8-6.8c6,2.2,8.8-4.4,13.3-6.8
					c6.7,2.2,13.9,4.5,19.3,8.2C1257.5,696.5,1251.6,699.9,1246,704.1z"/>
				<path class="st0" d="M1226.7,696c-13.3,8.8-9.3,4-12.8,16.9c-2.2-1.1-4.8-3.1-6-4.5c-2.3-7.5-6.2-14.2-3-22.6
					c1.8-4,3.4-3.9,7.5-3.8c4.7,0,9.3,0,14,0c1.5,2.2,1.7,4.8,2.1,7.3C1227.3,691.3,1226.7,692.8,1226.7,696z"/>
				<path class="st0" d="M1209.6,439c-1.9,12.9,9.5,23,7.2,35.3c-6.8,2-13.1,5.6-20.6,3c-12.2-34.2-16.5-71.9-20.5-108.4
					C1205,368.7,1188.7,423.5,1209.6,439z"/>
				<path class="st0" d="M1312.8,567.2c5.7,1.9,9.8,11.9,9.1,18.1c-5.4-0.1-10.6,1.4-15.9,2.3c-3.3-4.2-4.9-9-6.7-14
					c0-0.1,0-0.1,0-0.2C1303.6,570.8,1309.5,571.3,1312.8,567.2z"/>
				<path class="st0" d="M1322.6,617.7c1,12-7,21.9-10.6,33.2c-6.3-0.4-12.9-0.8-18.9-4c-0.4-11.2,8.3-19.3,8.3-30.8
					C1308.7,614,1314.9,621.2,1322.6,617.7z"/>
				<path class="st0" d="M1321.8,585.3c7.4,7.6,5.1,22.2,0.7,32.5c-7.6,3.4-13.8-3.8-21.1-1.5c0.2-9.3,4.7-17.2,3.4-26.5
					c0.4-0.7,0.8-1.5,1.1-2.3C1311.2,586.7,1316.4,585.1,1321.8,585.3z"/>
				<path class="st0" d="M1312.8,567.2c-3.3,4.1-9.1,3.7-13.4,6.2c-6.6-8.2-11.3-15.4-11.9-26.2c1.1-2.5,3.8-3.4,5.2-5.7
					C1302.4,545.2,1307.3,558.3,1312.8,567.2z"/>
				<path class="st0" d="M1292.4,589.1c0.1-0.2,0.2-0.5,0.3-0.7c4,0.9,8,2.1,12.2,1.5c1.3,9.2-3.1,17.2-3.4,26.5
					c-2.3-0.4-5.3-2.1-7.6-3c-0.7-2-1-4-1.5-6C1293.7,601.4,1293.5,594.9,1292.4,589.1z"/>
				<path class="st0" d="M1292.4,589.1c1.2,5.8,1.3,12.3,0,18.1c-5.6,3.1-12.2,5.1-18.7,5.3c-0.6-0.9-1.2-1.9-1.9-2.9
					c2.7-4.5,2.2-10.4,2.4-15.5C1280,591.3,1286.6,591.7,1292.4,589.1z"/>
				<path class="st0" d="M1273.7,612.5c6.4-0.2,13.1-2.2,18.7-5.3c0.6,2,0.8,4,1.5,6c-5.2,5-4.5,13.7-11.2,17.5
					c-2.1-2.2-5.3-1.5-8-2.4c-1.3-1.9-3.3-4.1-5-4.6C1267.7,619.4,1274.1,616.9,1273.7,612.5z"/>
				<path class="st0" d="M1292.6,541.5c-1.4,2.3-4.1,3.1-5.2,5.7c-5.3-1.2-6.8,5.4-11.7,5.7c-2.9,1.8-5.4-0.6-7.9-1.9
					c1.2-3-1-5.5-1.5-8.3c5.5-5.1,13-5.9,18.5-10.9C1288.9,533.4,1291.4,537.2,1292.6,541.5z"/>
				<path class="st0" d="M1293.1,647c-3.5,1.7-7.6,0.6-11.3,1c-2.8-5.6-0.4-11.7,0.9-17.2c6.7-3.8,6-12.6,11.2-17.5
					c2.3,1,5.3,2.6,7.6,3C1301.4,627.7,1292.7,635.8,1293.1,647z"/>
				<path class="st0" d="M1282.7,630.7c-1.3,5.6-3.7,11.7-0.9,17.2c-1.6,1.6-3.8,2.6-5.7,3.4c-3.8-2.6-8.7-2.3-12.4-4.9
					c0-0.5,0-1,0-1.5c4.6-5.3,11.9-8.4,11.1-16.6C1277.4,629.2,1280.6,628.6,1282.7,630.7z"/>
				<path class="st0" d="M1266.7,595.1c1.5-0.7,3.9-1.3,6-2c0.5,0.3,1,0.7,1.5,1c-0.2,5.1,0.3,11-2.4,15.5c-1.1-0.2-2.9-0.2-4.2-0.3
					c-0.5-0.7-0.9-1.4-1.4-2.1C1268.6,603.4,1266.2,599.2,1266.7,595.1z"/>
				<path class="st0" d="M1269.7,521.1c6.8-0.9,12.7,4.6,15.1,10.6c-5.5,5.1-13,5.8-18.5,10.9c-4.3-1.1-8.5-3.7-10.2-7.9
					C1260.4,529.9,1266.9,527.2,1269.7,521.1z"/>
				<path class="st0" d="M1267.6,609.3c1.3,0.1,3.1,0.2,4.2,0.3c0.7,1,1.3,1.9,1.9,2.9c0.5,4.5-6,7-4,11.3
					c-3.2,3.8-3.7,8.7-7.5,12.1c-4.5-2.7-10.3-2.4-14-6.4c1.4-4.1,3-7.7,4.9-11.7C1257.5,613.5,1263.3,613.1,1267.6,609.3z"/>
				<path class="st0" d="M1268.2,661.5c1.7-4.1,7.7-5.3,7.9-10.2c1.9-0.8,4.1-1.8,5.7-3.4c3.8-0.3,7.8,0.7,11.3-1
					c5.9,3.2,12.5,3.6,18.9,4c-3.6,13.2-16.1,21.9-28.7,25.7c-4.9-4.7-7.4-13.3-15.1-13.6C1268.2,662.6,1268.2,662.1,1268.2,661.5z"
					/>
				<path class="st0" d="M1253.5,555.4c-8.9-4.1-17-10.4-25.8-15.2c-0.2-0.4-0.5-0.7-0.7-1.1c0.2-3.5,2.7-6.1,5.4-7.9
					c7.5,2.6,15.8,3.5,23.8,3.4c1.7,4.2,5.9,6.8,10.2,7.9c0.5,2.8,2.7,5.3,1.5,8.3C1262.2,551.1,1259.3,556.3,1253.5,555.4z"/>
				<path class="st0" d="M1274.7,628.3c0.8,8.2-6.5,11.3-11.1,16.6c-0.5-0.5-1-1-1.5-1.5c0-2,0-5,0-7.5c3.9-3.4,4.4-8.3,7.5-12.1
					C1271.5,624.3,1273.5,626.4,1274.7,628.3z"/>
				<path class="st0" d="M1269.7,521.1c-2.8,6.1-9.3,8.8-13.6,13.6c-8,0.1-16.2-0.8-23.8-3.4c-1.5-3.7-5.1-5.9-5.4-10.2
					c1.5-7.9,12.2-5.3,14.5-12.5C1251.1,511.8,1263.7,511.6,1269.7,521.1z"/>
				<path class="st0" d="M1263.7,646.4c3.7,2.7,8.7,2.3,12.4,4.9c-0.3,4.9-6.2,6-7.9,10.2c-3.9-1.9-7-5.1-10.6-7.5
					C1259.4,651.3,1261.7,648.7,1263.7,646.4z"/>
				<path class="st0" d="M1263.7,644.9c0,0.5,0,1,0,1.5c-2,2.2-4.3,4.8-6.1,7.5c-2.6,0.5-5.3,2.9-6.8,3.3c-4.6-2.5-9.1,1.1-13.5,2.2
					c-1.2-0.9-3-2-4.3-2.8c0.7-1.7,1.1-3.7,1.9-5.7c9.5-1.3,16.9-8.1,27.2-7.5C1262.7,643.9,1263.2,644.4,1263.7,644.9z"/>
				<path class="st0" d="M1248.2,629.4c3.7,4,9.5,3.7,14,6.4c0,2.5,0,5.6,0,7.5c-10.3-0.5-17.7,6.3-27.2,7.5
					c-2.7-0.6-4.9-1.8-6.1-4.5c0.7-7,8.4-10.1,11.3-15.9C1242.8,629.6,1245.6,630,1248.2,629.4z"/>
				<path class="st0" d="M1260.3,590.2c1.4,1.3,3.7,3.4,6.4,4.9c-0.4,4.1,1.9,8.3-0.5,12.1c-3.6-0.5-6.8-2.1-10.1-3.5
					c-0.3-1.2-6.1-9.7-6.3-11.1l0-0.2C1252.3,591.8,1258.2,590.5,1260.3,590.2z"/>
				<path class="st0" d="M1253.5,555.4c-0.6,1-1.1,3.1-1.9,4.9c-3.6,0-7.1-1-10.6-1.5c-1.7-5.9-8-9.3-13.6-10.6
					c-1.3-2.5-2.3-5.9,0.2-8C1236.5,545.1,1244.6,551.4,1253.5,555.4z"/>
				<path class="st0" d="M1249.6,592.4c0,0-0.1,0-0.2,0l0-0.1c-0.3-1.3-2.3-9.1-3.1-10.1c0-2,0-3.9,0-6c2.7-0.6,6.1-1.6,8.3,0.7
					c-0.6,5.7,6.7,7.5,5.7,13.2c-2.1,0.4-7.9,1.6-10.5,2.2C1249.7,592.4,1249.7,592.4,1249.6,592.4z"/>
				<path class="st0" d="M1246.3,582.2c0.8,1,2.8,8.8,3.1,10.1l0,0.1v0c-12.6,4.3-35.5,5.8-41.7,4.1c0-4.1,1.5-8,1.5-12.1
					C1221.6,584.6,1233.9,584.5,1246.3,582.2z"/>
				<path class="st0" d="M1206.3,574c3.2,0.5,6.1-0.9,9-2c10.5,0.3,19.6,8.5,29.1,3.2c0.7,0.3,1.3,0.7,1.9,1.1c0,2.1,0,4,0,6
					c-12.4,2.3-24.7,2.4-37,2.3C1209.4,580.5,1203.9,578,1206.3,574z"/>
				<path class="st0" d="M1237.4,659.4c4.4-1.1,8.9-4.6,13.5-2.2c0,3.4-0.4,6.8,1.1,9.9c-5.4,3.4-10.9,8.2-10.2,15.2
					c-4.5,2.4-7.3,9-13.3,6.8c-0.4-2.5-0.7-5.1-2.1-7.3C1227.5,673.5,1234.6,667.5,1237.4,659.4z"/>
				<path class="st0" d="M1241,558.8c-5.9,4.3,1.9,11.3,3.4,16.2c-9.5,5.4-18.5-2.9-29.1-3.2c-1.2-4.3,0-8.9-1.5-13.1
					c5.8-2.4,9.7-6.1,13.6-10.6C1233,549.6,1239.3,553,1241,558.8z"/>
				<path class="st0" d="M1221,630.2c5.1-4.7,13.8-3,19.3,0.4c-3,5.8-10.6,8.9-11.3,15.9c-5.7-1.7-9.7,4.3-15.1,1.5
					C1217.1,642.2,1219.7,636.8,1221,630.2z"/>
				<path class="st0" d="M1233.1,656.6c1.3,0.8,3.1,1.9,4.3,2.8c-2.8,8.1-9.9,14.1-11.1,22.5c-4.7,0-9.3,0-14,0
					c-0.6-7,7.5-9.4,9.1-15.8C1226.8,665.8,1228.8,659.1,1233.1,656.6z"/>
				<path class="st0" d="M1213.8,648c5.4,2.8,9.4-3.2,15.1-1.5c1.1,2.7,3.4,3.9,6.1,4.5c-0.8,2-1.2,4-1.9,5.7
					c-4.3,2.4-6.2,9.2-11.7,9.5c-3.2-4.5-8.8-4.5-12.1-7.5C1210.2,654.6,1209.1,649.7,1213.8,648z"/>
				<path class="st0" d="M1227.6,540.3c-2.5,2.1-1.5,5.5-0.2,8c-3.8,4.5-7.8,8.2-13.6,10.6c-5.6,1.6-10.5-0.2-15.8-0.7
					c-2.5-2.6-0.8-6.5-2.7-9.4c3.9-4.8,11.2-3.7,14-9.5c5.8-0.8,12-2.2,17.6,0C1227.1,539.6,1227.4,539.9,1227.6,540.3z"/>
				<path class="st0" d="M1205.9,524.5c2.4-1.3,6-2.4,7.9-3.4c4.2,1.9,8.7-0.3,13.1,0c0.3,4.2,3.9,6.5,5.4,10.2
					c-2.8,1.8-5.3,4.4-5.4,7.9c-5.7-2.2-11.8-0.8-17.6,0C1208,534.2,1209.8,528.6,1205.9,524.5z"/>
				<path class="st0" d="M1241.4,508.6c-2.3,7.1-13,4.6-14.5,12.5c-4.4-0.3-8.8,1.9-13.1,0c1.7-6.2-4.3-9.5-4.5-15.1
					c3-4.9,10-3.9,14-7.9C1229.5,502,1240.5,498.3,1241.4,508.6z"/>
				<path class="st0" d="M1206.3,628.3c4.8,1.2,9.8,1,14.7,1.9c-1.3,6.6-3.9,12-7.2,17.7c-4.7,1.8-3.6,6.6-4.5,10.6
					c-2.5,1.1-5.1,1.9-7.5,3c-1.9-2.4-4.9-2.4-7.5-3.5c-1.9-9.1-3.2-17.7,0.7-26.4C1198.7,630.5,1202.4,629.1,1206.3,628.3z"/>
				<path class="st0" d="M1209.3,506c0.2,5.6,6.3,8.9,4.5,15.1c-2,1-5.5,2.1-7.9,3.4c-1.6-0.4-3.5-0.5-4.9-0.6
					c1-5.5-2.2-11.5,0.7-16.4C1204.2,506.8,1206.8,506.3,1209.3,506z"/>
				<path class="st0" d="M1206.3,628.3c-2-4,1.9-9.2,6-9.6c13.6,3.9,27.1-4.7,40.8-1c-1.9,4-3.5,7.5-4.9,11.7
					c-2.6,0.6-5.4,0.2-7.9,1.1c-5.4-3.4-14.2-5.1-19.3-0.4C1216.1,629.3,1211.1,629.5,1206.3,628.3z"/>
				<path class="st0" d="M1206.3,605.7c1.7,0.2,3.2,1.7,4.5,3c0,3.4,1.9,6.6,1.5,10c-4.1,0.4-8,5.6-6,9.6c-3.9,0.8-7.5,2.2-11.3,3.3
					c-4.9-2.6-10-2.9-15.6-2.5c-1.8-5.1-0.2-10.7-1.8-15.9C1187.7,612.3,1196.7,608,1206.3,605.7z"/>
				<path class="st0" d="M1206.3,574c-2.4,4,3.1,6.5,3,10.6c0,4.1-1.5,8-1.5,12.1c-1,0.5-2,1-3,1.5c-8.7-1.5-18-0.6-26.8-0.4
					c-4.5-6-2.4-13.9-2.9-20.8c9.4,0.6,17.3-5.9,26.7-6C1203.2,571.9,1204.6,573,1206.3,574z"/>
				<path class="st0" d="M1207.8,708.4c1.2,1.5,3.8,3.5,6,4.5c-5,12.4-5.9,26-10.3,38.5c-0.4,3.8-4.7,3.2-7.4,3.4
					c-6.5-13.1-5.6-28.1-10.2-41.5C1193,710,1201.1,713,1207.8,708.4z"/>
				<path class="st0" d="M1205.9,524.5c3.9,4.2,2.1,9.8,3.4,14.7c-2.7,5.7-10.1,4.6-14,9.5c-1.2-0.3-2.5-0.5-3.8-0.8
					c-1.6-7-1-14.1-4.2-20.5c0.7-0.3,1.5-0.5,2.3-0.8c4,1.1,8.3-0.1,11.3-2.8C1202.4,524,1204.3,524.1,1205.9,524.5z"/>
				<path class="st0" d="M1204.8,598.1c0,2.5,0.6,5,1.5,7.5c-9.6,2.3-18.5,6.6-28.7,7.5c-2.8-4.4-1.7-10.9,0.4-15.5
					C1186.8,597.5,1196,596.6,1204.8,598.1z"/>
				<path class="st0" d="M1215.3,571.9c-2.9,1.1-5.8,2.5-9,2c-1.7-1-3.1-2-4.5-3c-1.2-4.3-5.1-7.8-3.8-12.8
					c5.3,0.5,10.3,2.3,15.8,0.7C1215.3,563,1214.1,567.6,1215.3,571.9z"/>
				<path class="st0" d="M1196.2,477.3c7.5,2.6,13.8-1,20.6-3c7.4,5.7,3.2,16,6.4,23.8c-3.9,4-10.9,3.1-14,7.9
					c-2.5,0.4-5,0.9-7.5,1.5c-2.2-9.9-5.1-19.2-6-29.4C1195.9,477.8,1196,477.5,1196.2,477.3z"/>
				<path class="st0" d="M1187.4,478.4c2.7-0.7,5.6-0.2,8.3-0.4c0.9,10.3,3.9,19.6,6,29.4c-2.9,4.8,0.2,10.9-0.7,16.4
					c-3,2.7-7.4,3.9-11.3,2.8C1192.5,510.2,1190.8,494,1187.4,478.4z"/>
				<path class="st0" d="M1201.7,570.9c-9.4,0.2-17.3,6.6-26.7,6c0-7.9,2.7-15.6,5.3-23c4.2-1.2,7.3-4.4,11.2-6.1
					c1.3,0.2,2.5,0.5,3.8,0.8c1.9,2.9,0.1,6.8,2.7,9.4C1196.6,563.1,1200.6,566.6,1201.7,570.9z"/>
				<path class="st0" d="M1194.8,683.6c2.8,2.4,6.9,0.4,10,2.1c-3.2,8.4,0.8,15.2,3,22.6c-6.7,4.6-14.8,1.7-21.9,4.9
					c-5.8-9.6-3.5-20.9-4.3-31.4C1186.1,680.4,1190.8,681.1,1194.8,683.6z"/>
				<path class="st0" d="M1194.2,658c2.6,1.1,5.7,1.1,7.5,3.5c-4.6,6.7-2.8,15.2-7,22.1c-4-2.5-8.7-3.2-13.2-1.7
					c-2.3-6.6,4.5-12.9,1.3-19.6C1186.1,659,1189.4,656.9,1194.2,658z"/>
				<path class="st0" d="M1194.9,631.6c-4,8.7-2.7,17.3-0.7,26.4c-4.8-1.1-8.1,1-11.3,4.3c-5.9-9.6-6.7-22.4-3.5-33.2
					C1184.9,628.7,1190,629,1194.9,631.6z"/>
				<path class="st0" d="M1179.5,476.9c2.6,0.7,5.3,0.9,7.9,1.5c3.4,15.6,5.1,31.8,2.3,48.2c-0.7,0.2-1.5,0.5-2.3,0.8
					c-3.3,0.1-6.5,1.3-9.8,1.3C1176.7,511.6,1180.2,493.1,1179.5,476.9z"/>
				<path class="st0" d="M1187.4,527.4c3.2,6.4,2.6,13.5,4.2,20.5c-3.9,1.7-7,4.9-11.2,6.1c-0.9-8.3-4.6-17-2.8-25.3
					C1180.9,528.7,1184.1,527.5,1187.4,527.4z"/>
			</g>
			<g>
				<path class="st1" d="M1175.7,368.9c29.4-0.2,13,54.5,34,70.1c-1.9,12.9,9.5,23,7.2,35.3"/>
				<path class="st1" d="M1216.8,474.3c7.4,5.7,3.2,16,6.4,23.8"/>
				<path class="st1" d="M1223.3,498c6.3,4,17.3,0.2,18.1,10.6"/>
				<path class="st1" d="M1241.4,508.6c9.7,3.2,22.3,2.9,28.3,12.5"/>
				<path class="st1" d="M1269.7,521.1c6.8-0.9,12.7,4.6,15.1,10.6"/>
				<path class="st1" d="M1284.8,531.7c4.1,1.7,6.6,5.6,7.8,9.8"/>
				<path class="st1" d="M1292.6,541.5c9.7,3.7,14.7,16.9,20.1,25.7"/>
				<path class="st1" d="M1312.8,567.2c5.7,1.9,9.8,11.9,9.1,18.1"/>
				<path class="st1" d="M1321.8,585.3c7.4,7.6,5.1,22.2,0.7,32.5"/>
				<path class="st1" d="M1322.6,617.7c1,12-7,21.9-10.6,33.2"/>
				<path class="st1" d="M1312,651c-3.6,13.2-16.1,21.9-28.7,25.7"/>
				<path class="st1" d="M1283.3,676.6c0,12.2-12.5,14-22.3,14"/>
				<path class="st1" d="M1179.5,476.9c3.7-14.4-23.7-119.4-3.8-108"/>
				<path class="st1" d="M1179.5,476.9c2.6,0.7,5.3,0.9,7.9,1.5"/>
				<path class="st1" d="M1187.4,478.4c2.7-0.7,5.6-0.2,8.3-0.4"/>
				<path class="st1" d="M1195.7,478c0.2-0.2,0.3-0.5,0.5-0.7"/>
				<path class="st1" d="M1175.7,368.9c4,36.5,8.3,74.2,20.5,108.4"/>
				<path class="st1" d="M1195.7,478c0.9,10.3,3.9,19.6,6,29.4"/>
				<path class="st1" d="M1201.7,507.5c2.5-0.6,5-1.1,7.5-1.5"/>
				<path class="st1" d="M1216.8,474.3c-6.8,2-13.1,5.6-20.6,3"/>
				<path class="st1" d="M1177.6,528.6c3.3,0,6.5-1.1,9.8-1.3"/>
				<path class="st1" d="M1179.5,476.9c0.8,16.2-2.7,34.7-1.9,51.7"/>
				<path class="st1" d="M1189.6,526.6c4,1.1,8.3-0.1,11.3-2.8"/>
				<path class="st1" d="M1201,523.8c1-5.5-2.2-11.5,0.7-16.4"/>
				<path class="st1" d="M1187.4,478.4c3.4,15.6,5.1,31.8,2.3,48.2"/>
				<path class="st1" d="M1209.3,506c0.2,5.6,6.3,8.9,4.5,15.1"/>
				<path class="st1" d="M1213.8,521.1c4.2,1.9,8.7-0.3,13.1,0"/>
				<path class="st1" d="M1223.3,498c-3.9,4-10.9,3.1-14,7.9"/>
				<path class="st1" d="M1201,523.8c1.4,0.2,3.3,0.3,4.9,0.6"/>
				<path class="st1" d="M1205.9,524.5c2.4-1.3,6-2.4,7.9-3.4"/>
				<path class="st1" d="M1226.9,521.1c0.3,4.2,3.9,6.5,5.4,10.2"/>
				<path class="st1" d="M1232.3,531.3c7.5,2.6,15.8,3.5,23.8,3.4"/>
				<path class="st1" d="M1241.4,508.6c-2.3,7.1-13,4.6-14.5,12.5"/>
				<path class="st1" d="M1205.9,524.5c3.9,4.2,2.1,9.8,3.4,14.7"/>
				<path class="st1" d="M1209.3,539.2c5.8-0.8,12-2.2,17.6,0"/>
				<path class="st1" d="M1226.9,539.2c0.2-3.5,2.7-6.1,5.4-7.9"/>
				<path class="st1" d="M1269.7,521.1c-2.8,6.1-9.3,8.8-13.6,13.6"/>
				<path class="st1" d="M1256.1,534.7c1.7,4.2,5.9,6.8,10.2,7.9"/>
				<path class="st1" d="M1189.6,526.6c-0.7,0.2-1.5,0.5-2.3,0.8"/>
				<path class="st1" d="M1187.4,527.4c3.2,6.4,2.6,13.5,4.2,20.5"/>
				<path class="st1" d="M1191.6,547.9c1.3,0.2,2.5,0.5,3.8,0.8"/>
				<path class="st1" d="M1195.3,548.7c3.9-4.8,11.2-3.7,14-9.5"/>
				<path class="st1" d="M1177.6,528.6c-1.8,8.4,1.9,17,2.8,25.3"/>
				<path class="st1" d="M1180.4,554c4.2-1.2,7.3-4.4,11.2-6.1"/>
				<path class="st1" d="M1226.9,539.2c0.2,0.4,0.5,0.7,0.7,1.1"/>
				<path class="st1" d="M1227.6,540.3c8.9,4.8,17,11.1,25.8,15.2"/>
				<path class="st1" d="M1253.5,555.4c5.8,0.9,8.7-4.3,14.3-4.5"/>
				<path class="st1" d="M1266.3,542.6c0.5,2.8,2.7,5.3,1.5,8.3"/>
				<path class="st1" d="M1267.8,550.9c2.5,1.3,5,3.7,7.9,1.9"/>
				<path class="st1" d="M1284.8,531.7c-5.5,5.1-13,5.8-18.5,10.9"/>
				<path class="st1" d="M1195.3,548.7c1.9,2.9,0.1,6.8,2.7,9.4"/>
				<path class="st1" d="M1198,558.1c5.3,0.5,10.3,2.3,15.8,0.7"/>
				<path class="st1" d="M1213.8,558.8c5.8-2.4,9.7-6.1,13.6-10.6"/>
				<path class="st1" d="M1241,558.8c3.5,0.5,7,1.5,10.6,1.5"/>
				<path class="st1" d="M1227.6,540.3c-2.5,2.1-1.5,5.5-0.2,8"/>
				<path class="st1" d="M1227.4,548.3c5.6,1.3,11.9,4.7,13.6,10.6"/>
				<path class="st1" d="M1287.5,547.1c0.5,10.8,5.3,18,11.9,26.2"/>
				<path class="st1" d="M1292.6,541.5c-1.4,2.3-4.1,3.1-5.2,5.7"/>
				<path class="st1" d="M1287.5,547.1c-5.3-1.2-6.8,5.4-11.7,5.7"/>
				<path class="st1" d="M1275.7,552.8c-0.2,6.9,9.4,16.7,7.8,23.8"/>
				<path class="st1" d="M1180.4,554c-2.6,7.4-5.3,15.1-5.3,23"/>
				<path class="st1" d="M1175,577c9.4,0.6,17.3-5.9,26.7-6"/>
				<path class="st1" d="M1201.7,570.9c-1.2-4.3-5.1-7.8-3.8-12.8"/>
				<path class="st1" d="M1215.3,571.9c10.5,0.3,19.6,8.5,29.1,3.2"/>
				<path class="st1" d="M1244.4,575.1c-1.5-4.9-9.3-11.9-3.4-16.2"/>
				<path class="st1" d="M1253.5,555.4c-0.6,1-1.1,3.1-1.9,4.9"/>
				<path class="st1" d="M1251.6,560.4c1.9,5.3,5,6.5,7.9,10.9"/>
				<path class="st1" d="M1259.5,571.3c3.9,0.6,8.4-0.7,10.9,2.9"/>
				<path class="st1" d="M1270.5,574.2c3.5-1,10.4,0.4,13.1,2.6"/>
				<path class="st1" d="M1201.7,570.9c1.5,1,2.9,2,4.5,3"/>
				<path class="st1" d="M1206.3,574c3.2,0.5,6.1-0.9,9-2"/>
				<path class="st1" d="M1215.3,571.9c-1.2-4.3,0-8.9-1.5-13.1"/>
				<path class="st1" d="M1244.4,575.1c0.7,0.3,1.3,0.7,1.9,1.1"/>
				<path class="st1" d="M1246.3,576.2c2.7-0.6,6.1-1.6,8.3,0.7"/>
				<path class="st1" d="M1254.6,577c1-1.7,3.5-3.3,4.9-5.7"/>
				<path class="st1" d="M1299.3,573.4c0,0,0,0.1,0,0.2"/>
				<path class="st1" d="M1299.3,573.5c1.8,5,3.4,9.8,6.7,14"/>
				<path class="st1" d="M1312.8,567.2c-3.3,4.1-9.1,3.7-13.4,6.2"/>
				<path class="st1" d="M1175,577c0.5,6.9-1.6,14.8,2.9,20.8"/>
				<path class="st1" d="M1177.9,597.7c8.9-0.2,18.1-1.1,26.8,0.4"/>
				<path class="st1" d="M1204.8,598.1c1-0.5,2-1,3-1.5"/>
				<path class="st1" d="M1207.8,596.6c0-4.1,1.5-8,1.5-12.1"/>
				<path class="st1" d="M1254.6,577c-0.6,5.7,6.7,7.5,5.7,13.2"/>
				<path class="st1" d="M1266.7,595.1c1.5-0.7,3.9-1.3,6-2"/>
				<path class="st1" d="M1206.3,574c-2.4,4,3.1,6.5,3,10.6"/>
				<path class="st1" d="M1209.3,584.5c12.3,0.1,24.6,0,37-2.3"/>
				<path class="st1" d="M1246.3,582.2c0-2,0-3.9,0-6"/>
				<path class="st1" d="M1246.3,582.2c0.8,1,2.8,8.8,3.1,10.1"/>
				<path class="st1" d="M1270.5,574.2c-0.5,6.6-0.4,12.9,2.3,18.9"/>
				<path class="st1" d="M1272.7,593.1c0.5,0.3,1,0.7,1.5,1"/>
				<path class="st1" d="M1274.2,594.1c5.8-2.8,12.4-2.4,18.1-5"/>
				<path class="st1" d="M1292.6,588.3c-1-3.5-8.1-7.7-9.1-11.5v0c0-0.1,0-0.1,0-0.2"/>
				<path class="st1" d="M1299.3,573.5c-5.9,4.8-8.6,3.9-15.7,3.3c0,0-0.1,0-0.1,0"/>
				<path class="st1" d="M1207.8,596.6c6.1,1.7,29,0.1,41.7-4.1v0c0,0,0.1,0,0.2,0"/>
				<path class="st1" d="M1306,587.5c-0.4,0.8-0.7,1.5-1.1,2.3"/>
				<path class="st1" d="M1304.8,589.8c1.3,9.2-3.1,17.2-3.4,26.5"/>
				<path class="st1" d="M1321.8,585.3c-5.4-0.1-10.6,1.4-15.9,2.3"/>
				<path class="st1" d="M1292.4,607.2c0.6,2,0.8,4,1.5,6"/>
				<path class="st1" d="M1304.8,589.8c-4.2,0.6-8.2-0.6-12.2-1.5"/>
				<path class="st1" d="M1292.6,588.3c-0.1,0.2-0.2,0.5-0.3,0.7"/>
				<path class="st1" d="M1292.4,589.1c1.2,5.8,1.3,12.3,0,18.1"/>
				<path class="st1" d="M1271.8,609.6c0.7,1,1.3,1.9,1.9,2.9"/>
				<path class="st1" d="M1273.7,612.5c6.4-0.2,13.1-2.2,18.7-5.3"/>
				<path class="st1" d="M1256.1,603.6c3.3,1.4,6.5,3,10.1,3.5"/>
				<path class="st1" d="M1266.2,607.2c2.4-3.8,0.1-8,0.5-12.1"/>
				<path class="st1" d="M1266.7,595.1c-2.7-1.5-5.1-3.6-6.4-4.9"/>
				<path class="st1" d="M1260.3,590.2c-2.1,0.4-7.9,1.6-10.5,2.2c-0.1,0-0.1,0-0.2,0"/>
				<path class="st1" d="M1266.2,607.2c0.5,0.7,0.9,1.4,1.4,2.1"/>
				<path class="st1" d="M1267.6,609.3c1.3,0.1,3.1,0.2,4.2,0.3"/>
				<path class="st1" d="M1271.8,609.6c2.7-4.5,2.2-10.4,2.4-15.5"/>
				<path class="st1" d="M1204.8,598.1c0,2.5,0.6,5,1.5,7.5"/>
				<path class="st1" d="M1206.3,605.7c1.7,0.2,3.2,1.7,4.5,3"/>
				<path class="st1" d="M1210.8,608.7c14.4-4.1,30.6,5.8,45.3-5.1"/>
				<path class="st1" d="M1256.1,603.6c-0.3-1.2-6.1-9.7-6.3-11.1"/>
				<path class="st1" d="M1177.9,597.7c-2.1,4.6-3.2,11-0.4,15.5"/>
				<path class="st1" d="M1177.6,613.2c10.2-0.9,19.1-5.2,28.7-7.5"/>
				<path class="st1" d="M1210.8,608.7c0,3.4,1.9,6.6,1.5,10"/>
				<path class="st1" d="M1212.3,618.7c13.6,3.9,27.1-4.7,40.8-1"/>
				<path class="st1" d="M1253.1,617.7c4.4-4.2,10.2-4.6,14.5-8.5"/>
				<path class="st1" d="M1177.6,613.2c1.6,5.1-0.1,10.7,1.8,15.9"/>
				<path class="st1" d="M1179.3,629.1c5.6-0.4,10.7,0,15.6,2.5"/>
				<path class="st1" d="M1194.9,631.6c3.8-1.1,7.5-2.5,11.3-3.3"/>
				<path class="st1" d="M1273.7,612.5c0.5,4.5-6,7-4,11.3"/>
				<path class="st1" d="M1269.7,623.8c1.7,0.5,3.8,2.6,5,4.6"/>
				<path class="st1" d="M1274.7,628.3c2.6,0.9,5.8,0.2,8,2.4"/>
				<path class="st1" d="M1253.1,617.7c-1.9,4-3.5,7.5-4.9,11.7"/>
				<path class="st1" d="M1248.2,629.4c3.7,4,9.5,3.7,14,6.4"/>
				<path class="st1" d="M1262.2,635.9c3.9-3.4,4.4-8.3,7.5-12.1"/>
				<path class="st1" d="M1301.4,616.3c-2.3-0.4-5.3-2.1-7.6-3"/>
				<path class="st1" d="M1293.9,613.2c-5.2,5-4.5,13.7-11.2,17.5"/>
				<path class="st1" d="M1301.4,616.3c0,11.4-8.7,19.5-8.3,30.8"/>
				<path class="st1" d="M1322.6,617.7c-7.6,3.4-13.8-3.8-21.1-1.5"/>
				<path class="st1" d="M1212.3,618.7c-4.1,0.4-8,5.6-6,9.6"/>
				<path class="st1" d="M1206.3,628.3c4.8,1.2,9.8,1,14.7,1.9"/>
				<path class="st1" d="M1221,630.2c5.1-4.7,13.8-3,19.3,0.4"/>
				<path class="st1" d="M1262.2,635.9c0,2.5,0,5.6,0,7.5"/>
				<path class="st1" d="M1262.2,643.4c0.5,0.5,1,1,1.5,1.5"/>
				<path class="st1" d="M1263.7,644.9c4.6-5.3,11.9-8.4,11.1-16.6"/>
				<path class="st1" d="M1213.8,648c5.4,2.8,9.4-3.2,15.1-1.5"/>
				<path class="st1" d="M1221,630.2c-1.3,6.6-3.9,12-7.2,17.7"/>
				<path class="st1" d="M1182.8,662.3c3.3-3.3,6.6-5.4,11.3-4.3"/>
				<path class="st1" d="M1179.3,629.1c-3.2,10.8-2.4,23.6,3.5,33.2"/>
				<path class="st1" d="M1194.9,631.6c-4,8.7-2.7,17.3-0.7,26.4"/>
				<path class="st1" d="M1194.2,658c2.6,1.1,5.7,1.1,7.5,3.5"/>
				<path class="st1" d="M1201.7,661.5c2.5-1.1,5.1-1.9,7.5-3"/>
				<path class="st1" d="M1209.3,658.5c1-3.9-0.2-8.8,4.5-10.6"/>
				<path class="st1" d="M1263.7,644.9c0,0.5,0,1,0,1.5"/>
				<path class="st1" d="M1263.7,646.4c3.7,2.7,8.7,2.3,12.4,4.9"/>
				<path class="st1" d="M1281.8,648c-2.8-5.6-0.4-11.7,0.9-17.2"/>
				<path class="st1" d="M1240.3,630.6c-3,5.8-10.6,8.9-11.3,15.9"/>
				<path class="st1" d="M1228.9,646.4c1.1,2.7,3.4,3.9,6.1,4.5"/>
				<path class="st1" d="M1248.2,629.4c-2.6,0.6-5.4,0.2-7.9,1.1"/>
				<path class="st1" d="M1233.1,656.6c1.3,0.8,3.1,1.9,4.3,2.8"/>
				<path class="st1" d="M1237.4,659.4c4.4-1.1,8.9-4.6,13.5-2.2"/>
				<path class="st1" d="M1250.8,657.3c1.5-0.3,4.2-2.8,6.8-3.3"/>
				<path class="st1" d="M1262.2,643.4c-10.3-0.5-17.7,6.3-27.2,7.5"/>
				<path class="st1" d="M1209.3,658.5c3.4,3,9,3,12.1,7.5"/>
				<path class="st1" d="M1221.4,666.1c5.4-0.3,7.4-7,11.7-9.5"/>
				<path class="st1" d="M1233.1,656.6c0.7-1.7,1.1-3.7,1.9-5.7"/>
				<path class="st1" d="M1263.7,646.4c-2,2.2-4.3,4.8-6.1,7.5"/>
				<path class="st1" d="M1276.1,651.4c-0.3,4.9-6.2,6-7.9,10.2"/>
				<path class="st1" d="M1312,651c-6.3-0.4-12.9-0.8-18.9-4"/>
				<path class="st1" d="M1293.1,647c-3.5,1.7-7.6,0.6-11.3,1"/>
				<path class="st1" d="M1281.8,648c-1.6,1.6-3.8,2.6-5.7,3.4"/>
				<path class="st1" d="M1250.8,657.3c0,3.4-0.4,6.8,1.1,9.9"/>
				<path class="st1" d="M1268.2,663.1c0-0.5,0-1,0-1.5"/>
				<path class="st1" d="M1268.2,661.5c-3.9-1.9-7-5.1-10.6-7.5"/>
				<path class="st1" d="M1226.3,681.9c1.5,2.2,1.7,4.8,2.1,7.3"/>
				<path class="st1" d="M1228.4,689.2c6,2.2,8.8-4.4,13.3-6.8"/>
				<path class="st1" d="M1241.8,682.4c-0.7-7.1,4.8-11.8,10.2-15.2"/>
				<path class="st1" d="M1182.8,662.3c3.2,6.6-3.6,13-1.3,19.6"/>
				<path class="st1" d="M1181.6,681.9c4.6-1.5,9.3-0.8,13.2,1.7"/>
				<path class="st1" d="M1194.8,683.6c4.1-6.8,2.4-15.4,7-22.1"/>
				<path class="st1" d="M1212.3,681.9c4.7,0,9.3,0,14,0"/>
				<path class="st1" d="M1226.3,681.9c1.2-8.4,8.3-14.4,11.1-22.5"/>
				<path class="st1" d="M1194.8,683.6c2.8,2.4,6.9,0.4,10,2.1"/>
				<path class="st1" d="M1204.8,685.7c1.8-4,3.4-3.9,7.5-3.8"/>
				<path class="st1" d="M1212.3,681.9c-0.6-7,7.5-9.4,9.1-15.8"/>
				<path class="st1" d="M1283.3,676.6c-4.9-4.7-7.4-13.3-15.1-13.6"/>
				<path class="st1" d="M1268.2,663.1c-3.6,3.1-10.8,5.2-16.2,4.1"/>
				<path class="st1" d="M1185.9,713.3c7.1-3.2,15.2-0.3,21.9-4.9"/>
				<path class="st1" d="M1207.8,708.4c-2.3-7.5-6.2-14.2-3-22.6"/>
				<path class="st1" d="M1181.6,681.9c0.8,10.5-1.5,21.8,4.3,31.4"/>
				<path class="st1" d="M1207.8,708.4c1.2,1.5,3.8,3.5,6,4.5"/>
				<path class="st1" d="M1213.8,712.9c3.5-12.9-0.5-8,12.8-16.9"/>
				<path class="st1" d="M1226.7,696c0-3.2,0.6-4.8,1.8-6.8"/>
				<path class="st1" d="M1246,704.1c5.6-4.1,11.5-7.6,15.1-13.4"/>
				<path class="st1" d="M1261,690.6c-5.3-3.6-12.5-5.9-19.3-8.2"/>
				<path class="st1" d="M1220.6,751c-4.1-21.5,9-36.8,25.3-47"/>
				<path class="st1" d="M1246,704.1c-6.1-4.1-15.2-2-19.3-8"/>
				<path class="st1" d="M1185.9,713.3c4.7,13.4,3.7,28.5,10.2,41.5"/>
				<path class="st1" d="M1196.1,754.8c2.7-0.2,7.1,0.4,7.4-3.4"/>
				<path class="st1" d="M1203.5,751.4c4.4-12.5,5.3-26.1,10.3-38.5"/>
				<path class="st1" d="M1196.1,754.8c-9.3,12.8,5.6,28.1,3.4,44c-0.7,10.9-4.8,23.9,8,23.6c9.4-17.6-7.8-45.8,12.8-57.2
					c1.1-4.3,4-10.4,0.4-14.1"/>
				<path class="st1" d="M1220.6,751c-5.6,0.8-11.4,0.2-17.1,0.4"/>
			</g>
		</g>
	</g>
	<g>
		<g id="XMLID_4_">
			<g>
				<path class="st0" d="M656.6,607.3c-5.4,10,1.7,26.1-6.7,32.9c-3-4.3-7.8-7.3-13.2-7.2c0.9-9.2,5.1-18.1-0.7-26.5l0-0.9
					c1.1,0,2.6-0.4,4-0.8v0c1.2-0.3,2.5-0.6,3.4-0.6l0.3,0c4.1,2.7,8.4,0,12.6,2.3C656.5,606.8,656.5,607,656.6,607.3z"/>
				<path class="st0" d="M626.2,602c-1.3,2.2-3.8,2.5-4.9,3.4c-3.9-2.3-8-4.9-12.8-4.5c-5.5-12.3,1-24.8,3-37
					c5.3,0.5,8.5,4.3,13.6,5.3C626,580.2,630.2,591.6,626.2,602z"/>
				<path class="st0" d="M635.2,446.4c-14.1-96.8,12.1-87.8,9.6-1C641.5,444.8,638.3,444.5,635.2,446.4z"/>
				<path class="st0" d="M590.8,746.4c-5.2-9,1.2-27.8,5.1-37.2c2.9,1.2,6.1,0.6,9.1,0.8l4.8,4.8l-0.2,0.5
					c-1.8,11.9-5.1,22.6-11.5,32.6C595.6,747.6,593.3,746.9,590.8,746.4z"/>
				<path class="st0" d="M611.4,563.9c-0.9-13.9-1.4-35.3,15.2-38.2c0.3,0.5,0.7,1,1,1.5c3.3,12.1,3.7,24.6,4.5,37
					c-1.3,2.8-4.1,4.7-7.2,4.9C619.9,568.2,616.8,564.4,611.4,563.9z"/>
				<path class="st0" d="M672.2,613.3c0.8,11.2,0.2,24.3-5.3,35.5c-5.9-0.4-11.2-2.6-16.6-4.5c0-1.5-0.2-2.9-0.4-4.1
					c8.4-6.8,1.3-22.8,6.7-32.9C663.1,606.2,666.3,613.3,672.2,613.3z"/>
				<path class="st0" d="M648.8,562c3.8,0.1,7.6,0,11.3-0.8c0.1,0.1,0.2,0.2,0.3,0.2c4.4,15-1.6,30.2-4.1,45.1
					c-4.3-2.3-8.5,0.3-12.6-2.3l-0.3,0c-0.9,0-2.1,0.3-3.4,0.6c1.3-8.8-1.1-31.9,2.4-40.2C644.3,563.2,646.9,563.4,648.8,562z"/>
				<path class="st0" d="M660.2,561.2c2.4-10.5-4.8-19.7-1.5-30.2c12.1,3.2,8.2,18.9,13.3,27.7c-3.9,0.4-7.9,0.9-11.5,2.7
					C660.4,561.4,660.3,561.3,660.2,561.2z"/>
				<path class="st0" d="M656.4,606.5c2.5-14.9,8.5-30.1,4.1-45.1c3.6-1.9,7.6-2.4,11.5-2.7c6,17.9,0.9,36.3,0.2,54.6
					c-6-0.1-9.1-7.2-15.6-6C656.5,607,656.5,606.8,656.4,606.5z"/>
				<path class="st0" d="M656.1,524.2c1.1,2.2,1.1,4.8,2.5,6.8c-3.3,10.5,3.9,19.7,1.5,30.2c-3.7,0.7-7.5,0.8-11.3,0.8
					c-0.5-12.2,0.9-24.3-4.5-35.9C648.1,524.5,652,523.6,656.1,524.2z"/>
				<path class="st0" d="M650.3,644.3c5.4,2,10.8,4.1,16.6,4.5c-2,14.2-12.8,22.4-23.7,29.7c-3.9-0.1-8.3,0.1-9.9-4.4
					C639.6,665.2,649,656.7,650.3,644.3z"/>
				<path class="st0" d="M650,640.2c0.2,1.3,0.4,2.6,0.4,4.1c-1.3,12.4-10.7,20.9-17,29.8c-5.3,0-10.6-1.7-15.5-3.4
					c0-1-0.1-2-0.2-2.9c1.8-1.6,4.3-3.1,5.2-4.2c6.2-8.2,15.8-17.8,13.1-29.9c0.3-0.2,0.5-0.5,0.8-0.8
					C642.2,632.8,646.9,635.8,650,640.2z"/>
				<path class="st0" d="M635.2,446.4c3-1.9,6.3-1.6,9.6-1c1.6,14.4,4.4,28.7,6.8,43c-5.7,2.9-14.5,1.2-16.8,0l-0.4-0.2
					c-0.3-6,0.8-14.4,0.1-20.4h0l-0.1-3.3C633.8,458.6,632.5,451.8,635.2,446.4z"/>
				<path class="st0" d="M641.6,525.7c0.8,0.1,1.7,0.2,2.7,0.4c5.4,11.5,4,23.7,4.5,35.9c-1.9,1.4-4.5,1.2-6.4,2.7
					c-3.4-0.7-6.8-0.2-10.2-0.4c-0.8-12.4-1.2-24.9-4.5-37C632.4,527.4,637.2,527.1,641.6,525.7z"/>
				<path class="st0" d="M656.1,524.2c-4.1-0.6-8,0.3-11.8,1.9c-1-0.2-1.8-0.3-2.7-0.4c-2-7.4-3.7-19.9-6.2-26.8
					c-0.8-3.2-1.1-7.7-0.6-10.4c2.3,1.2,11.1,2.8,16.8,0C653.6,500.3,655.4,512.2,656.1,524.2z"/>
				<path class="st0" d="M634.8,488.5c-0.5,2.8-0.2,7.3,0.6,10.4c2.5,6.9,4.2,19.4,6.2,26.8c-4.5,1.4-9.3,1.7-14,1.5
					c-0.3-0.5-0.7-1-1-1.5c1.7-5.3,1.2-10.3,1.8-15.8l0.1-0.7c0.3-6.2-0.5-20.4,5.8-20.5l0.1-0.4L634.8,488.5z"/>
				<path class="st0" d="M636,605.6l0,0.9c-0.1-0.2-0.3-0.4-0.5-0.7c-3.5,0.1-6.2-2.7-9.4-3.8c4-10.4-0.2-21.8-1.1-32.9
					c3.1-0.2,5.9-2.1,7.2-4.9c3.4,0.1,6.8-0.3,10.2,0.4c-3.4,8.3-1.1,31.4-2.4,40.2v0C638.6,605.2,637.1,605.5,636,605.6z"/>
				<path class="st0" d="M610.2,714.8l-0.4,0l0.3-0.1c4.9-8.6,3.2-34.8,7.8-44c4.9,1.7,10.2,3.4,15.5,3.4c1.6,4.5,6,4.3,9.9,4.4
					c-2.8,13.4-14.4,23.7-18.6,36.8C618.9,718.6,615.7,717.1,610.2,714.8z"/>
				<path class="st0" d="M636,633.7c-5.5,1.5-9-3-13.6-4.8c-3.5-7.7,2.5-15.6-1.1-23.5c1.2-0.9,3.6-1.2,4.9-3.4
					c3.2,1.1,5.9,3.8,9.4,3.8c0.2,0.2,0.3,0.4,0.5,0.7c5.8,8.5,1.6,17.3,0.7,26.5C636.5,633.3,636.3,633.5,636,633.7z"/>
				<path class="st0" d="M622.4,628.9c4.6,1.8,8,6.3,13.6,4.8c2.7,12.2-6.9,21.8-13.1,29.9c-7-9.3,0.2-20.8-3.9-30.7
					C618.9,631.2,620.7,629.8,622.4,628.9z"/>
				<path class="st0" d="M608.4,600.9c4.8-0.3,8.9,2.2,12.8,4.5c3.7,8-2.4,15.8,1.1,23.5c-1.7,0.8-3.5,2.2-3.4,4
					c-4.9,0.8-6.6-5.4-12.1-4.1C603.8,619.7,606.3,609.9,608.4,600.9z"/>
				<path class="st0" d="M622.9,663.7c-0.9,1.1-3.4,2.6-5.2,4.2c-4.9-1.8-10.4-1.8-15.5-1.2c3.4-11.6-2.6-27.4,4.7-37.8
					c5.4-1.2,7.2,5,12.1,4.1C623.1,642.9,615.9,654.4,622.9,663.7z"/>
				<path class="st0" d="M609.5,715.3l0.2-0.5l0.4,0c5.5,2.3,8.6,3.8,14.4,0.5c0.9,11.8-7.3,23.4-10,35.6
					c-5.4,1.4-12.3,0.7-16.5-2.9C604.4,737.9,607.7,727.2,609.5,715.3z"/>
				<path class="st0" d="M602.2,666.7c5.1-0.7,10.6-0.6,15.5,1.2c0.1,0.8,0.2,1.8,0.2,2.9c-4.6,9.2-2.9,35.4-7.8,44l-0.3,0.1
					L605,710c-3-0.2-6.2,0.5-9.1-0.8c-2.2-10.9,5.3-31.5,6-42.3L602.2,666.7z"/>
			</g>
			<g>
				<path class="st1" d="M624.7,715.3c4.3-13.1,15.8-23.4,18.6-36.8"/>
				<path class="st1" d="M643.3,678.5c-3.9-0.1-8.3,0.1-9.9-4.4"/>
				<path class="st1" d="M633.3,674.1c-5.3,0-10.6-1.7-15.5-3.4"/>
				<path class="st1" d="M617.9,670.7c-4.6,9.2-2.9,35.4-7.8,44"/>
				<path class="st1" d="M617.9,670.7c0-1-0.1-2-0.2-2.9"/>
				<path class="st1" d="M617.7,667.9c-4.9-1.8-10.4-1.8-15.5-1.2c3.4-11.6-2.6-27.4,4.7-37.8"/>
				<path class="st1" d="M606.9,628.8c-3.1-9.1-0.6-18.9,1.5-28"/>
				<path class="st1" d="M608.4,600.9c-5.5-12.3,1-24.8,3-37"/>
				<path class="st1" d="M611.4,563.9c-0.9-13.9-1.4-35.3,15.2-38.2"/>
				<path class="st1" d="M626.7,525.7c1.7-5.3,1.2-10.3,1.8-15.8"/>
				<path class="st1" d="M628.6,509.2c0.3-6.2-0.5-20.4,5.8-20.5"/>
				<path class="st1" d="M634.4,488.3c-0.3-6,0.8-14.4,0.1-20.4c0-0.1,0-0.2,0-0.3"/>
				<line class="st1" x1="634.6" y1="467.8" x2="634.5" y2="464.6"/>
				<path class="st1" d="M614.6,750.8c3.3,4.9-3.3,9.3-0.5,14.3"/>
				<path class="st1" d="M586.1,769.7c1.6-7.7,4.1-15.5,4.7-23.3"/>
				<path class="st1" d="M590.8,746.4c-5.2-9,1.2-27.8,5.1-37.2"/>
				<path class="st1" d="M596,709.2c-2.2-10.9,5.3-31.5,6-42.3"/>
				<path class="st1" d="M596,709.2c2.9,1.2,6.1,0.6,9.1,0.8"/>
				<path class="st1" d="M672.2,613.3c-6-0.1-9.1-7.2-15.6-6"/>
				<path class="st1" d="M667,648.8c5.5-11.2,6.1-24.3,5.3-35.5"/>
				<path class="st1" d="M667,648.8c-5.9-0.4-11.2-2.6-16.6-4.5"/>
				<path class="st1" d="M643.3,678.5c10.9-7.3,21.6-15.5,23.7-29.7"/>
				<path class="st1" d="M644.8,445.4c2.5-86.8-23.6-95.8-9.6,1"/>
				<path class="st1" d="M634.8,488.5c2.3,1.2,11.1,2.8,16.8,0c0,0,0,0,0.1,0"/>
				<path class="st1" d="M634.8,488.5c-0.5,2.8-0.2,7.3,0.6,10.4"/>
				<path class="st1" d="M656.1,524.2c-0.7-12-2.5-23.9-4.5-35.8c-2.4-14.4-5.2-28.7-6.8-43"/>
				<path class="st1" d="M644.8,445.4c-3.3-0.6-6.5-0.9-9.6,1"/>
				<path class="st1" d="M635.2,446.4c-2.8,5.4-1.4,12.2-0.8,18.1"/>
				<path class="st1" d="M626.7,525.7c0.3,0.5,0.7,1,1,1.5"/>
				<path class="st1" d="M641.6,525.7c-2-7.4-3.7-19.9-6.2-26.8"/>
				<path class="st1" d="M644.3,526.1c5.4,11.5,4,23.7,4.5,35.9"/>
				<path class="st1" d="M658.6,531c-1.4-2-1.5-4.6-2.5-6.8"/>
				<path class="st1" d="M656.1,524.2c-4.1-0.6-8,0.3-11.8,1.9"/>
				<path class="st1" d="M611.4,563.9c5.3,0.5,8.5,4.3,13.6,5.3"/>
				<path class="st1" d="M625,569.1c3.1-0.2,5.9-2.1,7.2-4.9"/>
				<path class="st1" d="M632.2,564.2c-0.8-12.4-1.2-24.9-4.5-37"/>
				<path class="st1" d="M644.3,526.1c-1-0.2-1.8-0.3-2.7-0.4"/>
				<path class="st1" d="M641.6,525.7c-4.5,1.4-9.3,1.7-14,1.5"/>
				<path class="st1" d="M672,558.7c-5.1-8.8-1.2-24.5-13.3-27.7"/>
				<path class="st1" d="M658.6,531c-3.3,10.5,3.9,19.7,1.5,30.2"/>
				<path class="st1" d="M660.5,561.4c4.4,15-1.6,30.2-4.1,45.1"/>
				<path class="st1" d="M672.2,613.3c0.7-18.3,5.7-36.7-0.2-54.6"/>
				<path class="st1" d="M672,558.7c-3.9,0.4-7.9,0.9-11.5,2.7"/>
				<path class="st1" d="M660.5,561.4c-0.1-0.1-0.2-0.1-0.3-0.2"/>
				<path class="st1" d="M660.2,561.2c-3.7,0.7-7.5,0.8-11.3,0.8"/>
				<path class="st1" d="M648.8,562c-1.9,1.4-4.5,1.2-6.4,2.7"/>
				<path class="st1" d="M642.4,564.6c-3.4,8.3-1.1,31.4-2.4,40.2"/>
				<path class="st1" d="M642.4,564.6c-3.4-0.7-6.8-0.2-10.2-0.4"/>
				<path class="st1" d="M608.4,600.9c4.8-0.3,8.9,2.2,12.8,4.5"/>
				<path class="st1" d="M626.2,602c4-10.4-0.2-21.8-1.1-32.9"/>
				<path class="st1" d="M606.9,628.8c5.4-1.2,7.2,5,12.1,4.1"/>
				<path class="st1" d="M619,633c-0.1-1.8,1.7-3.2,3.4-4"/>
				<path class="st1" d="M622.4,628.9c-3.5-7.7,2.5-15.6-1.1-23.5"/>
				<path class="st1" d="M636.7,633c0.9-9.2,5.1-18.1-0.7-26.5c-0.1-0.2-0.3-0.4-0.5-0.7"/>
				<path class="st1" d="M635.6,605.8c-3.5,0.1-6.2-2.7-9.4-3.8"/>
				<path class="st1" d="M626.2,602c-1.3,2.2-3.8,2.5-4.9,3.4"/>
				<path class="st1" d="M643.4,604.2c-0.9,0-2.1,0.3-3.4,0.6v0c-1.5,0.3-2.9,0.7-4,0.8c-0.1,0-0.2,0-0.2,0"/>
				<path class="st1" d="M650,640.2c8.4-6.8,1.3-22.8,6.7-32.9"/>
				<path class="st1" d="M656.6,607.3c-0.1-0.2-0.2-0.5-0.3-0.8"/>
				<path class="st1" d="M656.4,606.5c-4.3-2.3-8.5,0.3-12.6-2.3"/>
				<path class="st1" d="M617.7,667.9c1.8-1.6,4.3-3.1,5.2-4.2"/>
				<path class="st1" d="M622.9,663.7c-7-9.3,0.2-20.8-3.9-30.7"/>
				<path class="st1" d="M622.9,663.7c6.2-8.2,15.8-17.8,13.1-29.9"/>
				<path class="st1" d="M636,633.7c-5.5,1.5-9-3-13.6-4.8"/>
				<path class="st1" d="M633.3,674.1c6.3-9,15.7-17.4,17-29.8"/>
				<path class="st1" d="M650.3,644.3c0-1.5-0.2-2.9-0.4-4.1"/>
				<path class="st1" d="M650,640.2c-3-4.3-7.8-7.3-13.2-7.2"/>
				<path class="st1" d="M636.7,633c-0.2,0.3-0.5,0.5-0.8,0.8"/>
				<line class="st1" x1="609.8" y1="714.8" x2="605" y2="710"/>
				<path class="st1" d="M590.8,746.4c2.4,0.5,4.8,1.2,7.3,1.5"/>
				<path class="st1" d="M598.1,747.9c6.3-10,9.6-20.7,11.5-32.6"/>
				<path class="st1" d="M598.1,747.9c4.3,3.7,11.1,4.3,16.5,2.9"/>
				<path class="st1" d="M614.6,750.8c2.7-12.1,11-23.7,10-35.6"/>
				<path class="st1" d="M624.7,715.3c-5.8,3.3-8.9,1.8-14.4-0.5"/>
			</g>
		</g>
	</g>
	<g>
		<g id="XMLID_7_">
			<g>
				<path class="st0" d="M987.2,629.3c7.7,1.5,12.4,4.8,17.6,10.3c-5.1,14.6-35.5,8.3-35.8,24.6c-9.5,2-3.6,13-10.4,17.1
					c-11.5-10-8-27.8-8.9-41c3.6-1.5,8.3-1.8,10.8-4.7C969,632.2,978.4,631.6,987.2,629.3z"/>
				<path class="st0" d="M949.7,640.4c-13.9,0.7-15.8-20.1-6.3-28.1c5.3,1.7,10.8-1.2,16,0.2c0.6,7.7-1.2,15.8,1.1,23.3
					C958,638.6,953.3,638.9,949.7,640.4z"/>
				<path class="st0" d="M969.1,376.7c1.8-21,8.6,6.5,19.2,8.3c1.6,3.6,2.5,7.3,1.6,11.2c-4.3,2.3-9.6,2.6-13.9,4.9
					c-2.1-0.3-4-0.5-6.9-0.5c0-7.8,0-15.6,0-23.5L969.1,376.7z"/>
				<path class="st0" d="M993.9,769.7c-18,2.8-25.6-3.9-22-21.5c9.5-8.2,2.3-26.4,18.3-30.2c3,6.1,8,10.8,13.6,15.4
					C1000.5,745.2,1001.3,759.8,993.9,769.7z"/>
				<path class="st0" d="M988.9,459.6c-11.1-18-14.1-37.7-12.9-58.4c4.3-2.3,9.6-2.6,13.9-4.9c11.9,14.5,5.6,35.1,23,53.3
					c-4.1,7.5-14.3,5.8-20.5,10.9C990.9,460.1,989.5,459.7,988.9,459.6z"/>
				<path class="st0" d="M969,664.2c0.3-16.3,30.7-10,35.8-24.6c2.9,0,6.5,1.1,11.6,1.5c1.7,4.9,4.9,9,7.1,13.7
					c-14.2,9.9-28.9,16.4-44.3,23.9C975.3,674.2,975.2,667.1,969,664.2z"/>
				<path class="st0" d="M1036,678.5c-6.9,10.1-22.8,9.5-22.1,24.1c-6.8,5.9-16,5.6-23.5,9.8c-3.6-4.2-3.1-10.4-7.1-14.4
					c0.5-1.3,0.7-3.6,0.9-5c15.3-10.8,32.4-18.4,49.3-26.6C1034.5,670.5,1033.8,674.8,1036,678.5z"/>
				<path class="st0" d="M1013.9,702.7c-0.7-14.7,15.2-14,22.1-24.1c1.1,0.4,4.3,0.6,7.5,0.7c2.3,2.9-0.7,6.3,0.9,9.3
					c8.8,2.9,11.6,12.7,16,19.5c-8.8,7.5-25,11-35.8,10.3C1024.7,711.7,1017.8,707.5,1013.9,702.7z"/>
				<path class="st0" d="M1143.2,594.2c2.6,11.9,4.2,25.8-4.3,35.8c-6.4-1.5-14.2,0.1-19.2-4.6c6.1-7,3.7-17,4.3-25.4
					c1.4-1.3,2.8-2.6,4.3-3.9C1133.8,598.2,1138.2,596,1143.2,594.2z"/>
				<path class="st0" d="M1121.1,566.2c-7.9-13.1-10.2-27.6-18.5-40.4c2.2-2.8,4.9-5.1,6.4-6.5c23.3,1.2,29.7,22.5,32.1,39.7
					c-5.8,3.8-13.3,3.8-19.2,7.3C1121.6,566.2,1121.3,566.2,1121.1,566.2z"/>
				<path class="st0" d="M1128.2,596.1c-0.9-10.3-7.4-19-6.4-29.8c5.9-3.6,13.4-3.6,19.2-7.3c5.4,10.8,4.1,23.8,2.1,35.2
					C1138.2,596,1133.8,598.2,1128.2,596.1z"/>
				<path class="st0" d="M1123.9,600c-7-0.2-13.4-3.3-20.3-2.4c-1.1-0.5-2.1-1-3.2-1.5c6.8-8.1-7.8-15.2-3.2-24
					c9.1,4.9,16.3-2.8,23.9-6c0.2,0,0.5,0.1,0.7,0.2c-1,10.8,5.5,19.5,6.4,29.8C1126.8,597.4,1125.4,598.7,1123.9,600z"/>
				<path class="st0" d="M1102.6,525.7c8.3,12.8,10.6,27.3,18.5,40.4c-7.6,3.2-14.8,10.9-23.9,6c-0.5-1.6-1.1-3.9-5.3-7.3
					c1.6-11.6-8.1-19.9-12-30.1C1087.6,531.9,1093.8,526.2,1102.6,525.7z"/>
				<path class="st0" d="M1119.7,625.4c5.1,4.7,12.9,3.1,19.2,4.6c-3.7,11.6-3.4,25.3-14.1,33.8c-3.8-1-13.1-7.5-21.3-13l0.3-0.4
					C1110.8,643.5,1114.9,633.7,1119.7,625.4z"/>
				<path class="st0" d="M1105.4,621.5c5-1.8,10.5,0.9,14.3,3.9c-4.8,8.3-8.9,18.1-15.9,24.9l-0.3,0.4c-5.3-3.5-10.2-6.6-12.9-7.5
					c-0.3-0.1-0.6-0.2-0.8-0.2c-1.6-9.8,10.8-10.9,10.7-19.6C1102.5,623.4,1104,622.4,1105.4,621.5z"/>
				<path class="st0" d="M1119.7,625.4c-3.7-3-9.2-5.7-14.3-3.9c-1.3-7.9-0.3-16-1.8-24c6.9-0.8,13.3,2.2,20.3,2.4
					C1123.4,608.4,1125.8,618.4,1119.7,625.4z"/>
				<path class="st0" d="M1103.6,597.6c1.5,7.9,0.5,16,1.8,24c-1.5,0.9-2.9,1.8-5,1.9c-9.2-2.3-19.1,0-28.5-1.3
					c-0.9-3.7,0.4-7.7-0.9-11.4c2.4-4,5.8-7.4,8.5-11.2c7.1,0,13.7-3.6,20.8-3.4C1101.5,596.6,1102.6,597.1,1103.6,597.6z"/>
				<path class="st0" d="M1099.4,686.4c1.2,20.4-23.8,18.4-39,21.7c-4.4-6.8-7.2-16.6-16-19.5c-1.6-3,1.4-6.4-0.9-9.3
					c7.3-8,18.4-11.5,28.7-14.4C1076.5,676.1,1085.2,684.7,1099.4,686.4z"/>
				<path class="st0" d="M1097.2,572.2c-4.6,8.7,10,15.9,3.2,24c-7.1-0.2-13.7,3.4-20.8,3.4c-0.8-7.5-0.4-15.2-3.2-22.5
					c4.1-5.1,9.6-9,15.5-12.2C1096.1,568.3,1096.7,570.6,1097.2,572.2z"/>
				<path class="st0" d="M1089.8,643c0.2,0.1,0.5,0.1,0.8,0.2c2.8,0.9,7.7,4,12.9,7.5c8.3,5.5,17.5,12,21.3,13
					c-0.6,14.2-15.5,15.7-25.4,22.6c-14.2-1.7-22.9-10.2-27.2-21.6c-3.6-6,0.7-11.8,3.6-16.9C1076.5,647.8,1086.4,643.4,1089.8,643z
					"/>
				<path class="st0" d="M1100.4,623.5c0.2,8.7-12.3,9.8-10.7,19.6c-3.3,0.4-13.3,4.8-13.9,4.9c-6.2-1.9-11.7-4.2-15.2-9.7
					c0.2-1.4,0.2-2.8,0.3-4c5.4-3,5-9.7,11-12.1C1081.4,623.4,1091.2,621.2,1100.4,623.5z"/>
				<path class="st0" d="M1109,519.2c-1.5,1.4-4.2,3.7-6.4,6.5c-8.8,0.5-15,6.2-22.7,9c-4.6-1.9-9.4,1.2-14.2,0.8
					c-1.8-10.3-14.4-14-16.5-23.4c10-6.8,23.6-9.8,29.9-21.5C1092.2,495.5,1105.3,506.2,1109,519.2z"/>
				<path class="st0" d="M1079.9,534.7c3.9,10.2,13.6,18.5,12,30.1c-6,3.2-11.5,7.1-15.5,12.2c-1.7-0.4-3.5-0.7-5.3-0.9
					c-1.5-12.8-9.3-23.6-11.8-36.2c2.9-1.5,5.3-3.2,6.4-4.4C1070.5,535.9,1075.3,532.8,1079.9,534.7z"/>
				<path class="st0" d="M1057.7,580.5c5,0.3,9.7-1.3,13.3-4.4c1.8,0.3,3.6,0.6,5.3,0.9c2.8,7.3,2.5,14.9,3.2,22.5
					c-2.8,3.8-6.1,7.2-8.5,11.2c-4.5,0-8.7-3.7-13.3-1c-2.9-2.8-3.4-6.2-4.3-9.8C1056.9,593.8,1056.2,587.1,1057.7,580.5z"/>
				<path class="st0" d="M1072.2,664.8c-10.4,2.9-21.4,6.4-28.7,14.4c-3.2-0.1-6.4-0.2-7.5-0.7c-2.2-3.8-1.5-8.1-2.5-12.1
					c0.6-3.1,0.9-6.2,1.7-9.3c3-11.6,15.6-13.4,25.4-19c3.5,5.5,9,7.8,15.2,9.7C1073,653,1068.7,658.8,1072.2,664.8z"/>
				<path class="st0" d="M1071.1,610.8c1.3,3.7-0.1,7.7,0.9,11.4c-6,2.3-5.6,9-11,12.1c-3.1-1.1-6.4-5-7.1-10.6
					c-0.3-2.1-0.1-4.5,0.6-7c0-0.2,0.1-0.3,0.1-0.5l0-0.4c0.4-2.2,1.1-3.5,3.2-5.9C1062.3,607,1066.6,610.7,1071.1,610.8z"/>
				<path class="st0" d="M1079.1,490.5c-6.3,11.7-19.9,14.7-29.9,21.5c-5.9-2.4-11.9-6.6-18.7-5.4c-6-3.2-6.5-10.1-11.2-14.2
					c6.1-5.8,17.8-4.9,17.1-15.6C1050.8,475.7,1068.5,481.5,1079.1,490.5z"/>
				<path class="st0" d="M1053.9,623.6c0.6,5.6,4,9.5,7.1,10.6c-0.1,1.2-0.1,2.6-0.3,4c-9.7,5.6-22.4,7.4-25.4,19
					c-4.8-1.7-8.3-1.8-11.7-2.4c-2.2-4.7-5.4-8.8-7.1-13.7c9.3-9.8,28.2-7.1,37.2-17.5L1053.9,623.6z"/>
				<path class="st0" d="M1042.8,542c5.3-1.8,11-3.4,16.6-2.1c2.4,12.6,10.2,23.4,11.8,36.2c-3.7,3-8.3,4.7-13.3,4.4
					c-1.8-0.9-3.4-1.7-5.4-2.9c-0.6-6.5-6.4-11.7-9.6-17.3c0-2.9-0.2-4.5-0.4-6.2C1043.1,550.1,1042.6,546,1042.8,542z"/>
				<path class="st0" d="M1053.7,616.4c-12,0.8-51.8,6.8-63.8,6.6c-0.8-3.6-0.8-7.4,0.1-11c0-0.2,0-0.4,0-0.7l0.5,0
					c14.5-0.3,39-8.1,63.1-11.3c0.9,3.6,1.4,7,4.3,9.8c-2.1,2.4-2.8,3.6-3.2,5.9l0,0.4c0,0.2-0.1,0.3-0.1,0.5L1053.7,616.4z"/>
				<path class="st0" d="M1042.8,542c-10.7-0.7-10.5-10.9-16.3-17.2c-0.8-6.3,0.8-12.5,4-18.2c6.8-1.2,12.8,3,18.7,5.4
					c2.1,9.4,14.8,13.2,16.5,23.4c-1.1,1.2-3.5,2.9-6.4,4.4C1053.7,538.6,1048,540.2,1042.8,542z"/>
				<path class="st0" d="M1052.4,577.5c-17,4.7-36.3,1.9-54.5,2.9c-1.2-3.3-0.9-6.5,0-9.8c0.4-0.3,0.7-0.7,1.1-1
					c15-2.1,29-5.6,43.8-9.4C1046,565.9,1051.8,571,1052.4,577.5z"/>
				<path class="st0" d="M996.7,548.5c7,0.8,13.7-2,20.4-3.2c7.4,4.3,16,8.8,25.3,8.8c0.2,1.7,0.4,3.3,0.4,6.2
					c-14.8,3.9-28.8,7.3-43.8,9.4C996.6,562.9,994.2,555.6,996.7,548.5z"/>
				<path class="st0" d="M1026.5,524.8c5.7,6.3,5.6,16.5,16.3,17.2c-0.2,4,0.4,8.1-0.4,12.1c-9.3,0.1-17.8-4.5-25.3-8.8
					c-3.5-6.6-2.8-13.9-4.3-20.9C1017.4,522.8,1021.9,526.5,1026.5,524.8z"/>
				<path class="st0" d="M1023.5,654.8c3.5,0.6,7,0.7,11.7,2.4c-0.8,3-1.1,6.2-1.7,9.3c-16.9,8.2-34,15.8-49.3,26.6
					c-5.9-2.8-6.5-9-5-14.4C994.6,671.1,1009.3,664.7,1023.5,654.8z"/>
				<path class="st0" d="M1015,492.5c1.5,0,2.9,0,4.3,0c4.7,4.1,5.3,11,11.2,14.2c-3.2,5.7-4.8,11.9-4,18.2c-4.6,1.6-9.1-2-13.6-0.4
					c-6.4-2.6-15.7-2.2-19.2-8.5c0.3-5-0.6-10.2,0.5-15.1C1001.8,499.7,1009.2,497.4,1015,492.5z"/>
				<path class="st0" d="M1013.9,702.7c3.8,4.9,10.8,9,10.7,15.6c-8.8,2.6-13.1,10.7-20.8,15.2c-5.6-4.6-10.5-9.2-13.6-15.4
					c0.2-1.7,0.2-4,0.2-5.7C998,708.2,1007.2,708.5,1013.9,702.7z"/>
				<path class="st0" d="M992.3,460.4c6.2-5.1,16.5-3.4,20.5-10.9c3.6,11.3,14.1,19,23.5,27.4c0.7,10.7-11,9.8-17.1,15.6
					c-1.4,0-2.8,0-4.3,0c-6.4-7.6-12.9-14.7-19.7-22C996.3,467,993.6,463.6,992.3,460.4z"/>
				<path class="st0" d="M996.7,548.5c-9-3.2-19.2-0.8-28.2-3.7c-2.1-8.2,1.7-16.1,1.6-24.3c7.8-2.1,15.7-2,23.5-4.6
					c3.6,6.3,12.8,5.9,19.2,8.5c1.5,7,0.8,14.2,4.3,20.9C1010.4,546.5,1003.7,549.3,996.7,548.5z"/>
				<path class="st0" d="M977.8,476.6c3.8-3.7,12.3-5.7,17.5-6.1c6.8,7.2,13.3,14.4,19.7,22c-5.7,4.9-13.2,7.2-20.8,8.3
					c-2-1.2-5.2-3.5-9.1-5c-0.7-3.8-1.8-7.5-3.2-11.1l-2.1-1c-1-1.6-2-4.1-3-6.8L977.8,476.6z"/>
				<path class="st0" d="M997.9,570.7c-11.4-0.1-21.1-4.5-32.1-5.9c1.1-6.1-2.7-11.5-2.1-17.6c1.6-0.7,3.2-1.6,4.8-2.4
					c9,2.9,19.2,0.4,28.2,3.7c-2.5,7.1-0.2,14.4,2.2,21.2C998.6,570,998.3,570.4,997.9,570.7z"/>
				<path class="st0" d="M990,612c-9.1-2.6-19-0.6-28.4-1.3c-1.3-9.4,5.3-19-0.5-27.9c10-2.6,21.5,0.2,32.1,0
					c1.6,4.8-3.3,22.5-3.2,28.4C989.9,611.6,989.9,611.8,990,612z"/>
				<path class="st0" d="M976.7,476.9c-1.7-4.6-3.4-9.9-5-12.5l-1.7-0.1c0.4,0,0.8-0.1,1.2-0.1c4.9-4.5,12.3-1.4,17.7-4.6
					c0.6,0.2,2,0.5,3.4,0.9c1.3,3.2,4,6.5,2.9,10.1c-5.1,0.4-13.7,2.4-17.5,6.1L976.7,476.9z"/>
				<path class="st0" d="M989.9,623c12,0.2,51.8-5.8,63.8-6.6l0.8,0.2c-0.7,2.6-0.8,4.9-0.6,7l-0.2,0c-9,10.4-27.9,7.7-37.2,17.5
					c-5.1-0.3-8.7-1.5-11.6-1.5c-5.2-5.5-9.9-8.7-17.6-10.3C987,627.4,988.4,625.2,989.9,623z"/>
				<path class="st0" d="M1053.4,600c-24,3.2-48.5,11-63.1,11.3l-0.5,0c-0.1-5.9,4.8-23.6,3.2-28.4c1.6-0.9,3.2-1.7,4.8-2.4
					c18.2-1,37.5,1.8,54.5-2.9c2,1.3,3.6,2,5.4,2.9C1056.2,587.1,1056.9,593.8,1053.4,600z"/>
				<path class="st0" d="M987.2,629.3c-8.8,2.2-18.2,2.8-26.7,6.4c-2.3-7.5-0.5-15.6-1.1-23.3c1-0.7,1.6-1.2,2.1-1.7
					c9.4,0.6,19.3-1.4,28.4,1.3c-0.9,3.6-0.8,7.4-0.1,11C988.4,625.2,987,627.4,987.2,629.3z"/>
				<path class="st0" d="M993.6,516c-7.8,2.5-15.7,2.5-23.5,4.6c-1.9-0.4-4-0.8-5.4-0.9c0-5,0-10,0-15c7.3-2.1,13.8-5.3,20.3-8.8
					c3.9,1.5,7.1,3.9,9.1,5C993.1,505.8,993.9,510.9,993.6,516z"/>
				<path class="st0" d="M990.2,718.1c-16,3.8-8.8,22-18.3,30.2c-5.9-13.3-9-27.9-10.3-42.7c7.8-0.9,15.5-2.7,21.7-7.5
					c4.1,4,3.6,10.1,7.1,14.4C990.4,714.1,990.4,716.4,990.2,718.1z"/>
				<path class="st0" d="M983.3,698.1c-6.2,4.8-13.9,6.6-21.7,7.5c-2.9-7.8,1-16.6-3-24.3c6.8-4.1,1-15.1,10.4-17.1
					c6.2,2.9,6.3,9.9,10.1,14.5c-1.5,5.3-0.9,11.5,5,14.4C984,694.5,983.8,696.8,983.3,698.1z"/>
				<path class="st0" d="M948.7,484.7c11.3,1.3,21.9-0.6,33.1,0c1.4,3.6,2.6,7.3,3.2,11.1c-6.5,3.5-13,6.7-20.3,8.8
					c-6.3-2.8-12.3-5.6-19.2-6.5C946.8,493.6,946.1,488.8,948.7,484.7z"/>
				<path class="st0" d="M971.7,464.4c1.6,2.6,3.4,7.9,5,12.5c1,2.8,2.1,5.3,3,6.8l2.1,1c-11.3-0.6-21.9,1.3-33.1,0
					c1.8-7.5,1-16,5.6-22.7c4.7,2.2,10.4,2.9,15.7,2.3L971.7,464.4z"/>
				<path class="st0" d="M969,400.6c2.9,0,4.9,0.2,6.9,0.5c-1.1,20.8,1.9,40.4,12.9,58.4c-5.4,3.2-12.9,0.1-17.7,4.6
					c-0.4,0.1-0.8,0.1-1.2,0.1c-5.3,0.6-10.9-0.1-15.7-2.3C960.6,442.5,950.2,414.3,969,400.6z"/>
				<path class="st0" d="M965.8,564.8c11,1.4,20.7,5.7,32.1,5.9c-0.9,3.2-1.2,6.5,0,9.8c-1.6,0.8-3.2,1.5-4.8,2.4
					c-10.6,0.2-22-2.6-32.1,0c-6.7-1.3-13.6-0.2-20.1,1.5c-1.3-7,1.2-14,2-21C950.4,564.4,957.9,567.9,965.8,564.8z"/>
				<path class="st0" d="M970.1,520.5c0,8.1-3.7,16.1-1.6,24.3c-1.6,0.9-3.2,1.7-4.8,2.4c-6.8-1.6-14-0.5-21-1
					c-0.3-8,1.9-15.9,2.3-23.9c6.4-2.2,13-2.4,19.8-2.7C966.2,519.7,968.2,520.1,970.1,520.5z"/>
				<path class="st0" d="M964.8,504.5c0,5,0,10,0,15c-6.7,0.3-13.4,0.5-19.8,2.7c-4.2-7.5-4.8-16.9,0.5-24.3
					C952.5,499,958.5,501.7,964.8,504.5z"/>
				<path class="st0" d="M961,582.9c5.8,8.8-0.8,18.5,0.5,27.9c-0.6,0.5-1.1,1-2.1,1.7c-5.3-1.3-10.7,1.6-16-0.2
					c1.3-9.4-2.6-18.8-2.5-27.9C947.4,582.7,954.3,581.6,961,582.9z"/>
				<path class="st0" d="M942.7,546.3c7,0.5,14.2-0.6,21,1c-0.6,6,3.2,11.5,2.1,17.6c-7.9,3-15.5-0.4-22.9-1.5
					C940.1,558.4,940.8,551.6,942.7,546.3z"/>
			</g>
			<g>
				<path class="st3" d="M989.9,396.2c11.9,14.5,5.6,35.1,23,53.3"/>
				<path class="st3" d="M1036.4,476.9c14.5-1.2,32.1,4.7,42.7,13.7"/>
				<path class="st3" d="M949.7,640.4c-13.9,0.7-15.8-20.1-6.3-28.1"/>
				<path class="st3" d="M943.4,612.3c1.3-9.4-2.6-18.8-2.5-27.9"/>
				<path class="st3" d="M940.9,584.4c-1.3-7,1.2-14,2-21"/>
				<path class="st3" d="M942.9,563.3c-2.8-4.9-2.1-11.8-0.2-17.1"/>
				<path class="st3" d="M942.7,546.3c-0.3-8,1.9-15.9,2.3-23.9"/>
				<path class="st3" d="M945,522.3c-4.2-7.5-4.8-16.9,0.5-24.3"/>
				<path class="st3" d="M945.5,498c1.3-4.4,0.6-9.2,3.2-13.3"/>
				<path class="st3" d="M948.7,484.7c1.8-7.5,1-16,5.6-22.7"/>
				<path class="st3" d="M954.3,462c6.3-19.5-4.1-47.8,14.7-61.4"/>
				<path class="st3" d="M969,400.6c0-7.8,0-15.6,0-23.5"/>
				<path class="st3" d="M988.3,385c-10.6-1.8-17.3-29.3-19.2-8.3"/>
				<path class="st3" d="M969,400.6c2.9,0,4.9,0.2,6.9,0.5"/>
				<path class="st3" d="M976,401.1c4.3-2.3,9.6-2.6,13.9-4.9"/>
				<path class="st3" d="M989.9,396.2c0.9-3.9,0-7.6-1.6-11.2"/>
				<path class="st3" d="M988.9,459.6c0.6,0.2,2,0.5,3.4,0.9"/>
				<path class="st3" d="M992.3,460.4c6.2-5.1,16.5-3.4,20.5-10.9"/>
				<path class="st3" d="M954.3,462c4.7,2.2,10.4,2.9,15.7,2.3c0.4,0,0.8-0.1,1.2-0.1"/>
				<path class="st3" d="M971.2,464.2c4.9-4.5,12.3-1.4,17.7-4.6"/>
				<path class="st3" d="M988.9,459.6c-11.1-18-14.1-37.7-12.9-58.4"/>
				<path class="st3" d="M1015,492.5c1.5,0,2.9,0,4.3,0"/>
				<path class="st3" d="M1019.3,492.5c6.1-5.8,17.8-4.9,17.1-15.6"/>
				<path class="st3" d="M1036.4,476.9c-9.4-8.3-19.9-16.1-23.5-27.4"/>
				<path class="st3" d="M995.2,470.5c1.1-3.5-1.6-6.9-2.9-10.1"/>
				<path class="st3" d="M979.7,483.7c-1-1.6-2-4.1-3-6.8c-1.7-4.6-3.4-9.9-5-12.5"/>
				<path class="st3" d="M948.7,484.7c11.3,1.3,21.9-0.6,33.1,0"/>
				<line class="st3" x1="981.9" y1="484.7" x2="979.7" y2="483.7"/>
				<path class="st3" d="M985.1,495.8c3.9,1.5,7.1,3.9,9.1,5"/>
				<path class="st3" d="M994.1,500.8c7.6-1.1,15.1-3.4,20.8-8.3"/>
				<path class="st3" d="M1015,492.5c-6.4-7.6-12.9-14.7-19.7-22"/>
				<path class="st3" d="M995.2,470.5c-5.1,0.4-13.7,2.4-17.5,6.1"/>
				<path class="st3" d="M1019.3,492.5c4.7,4.1,5.3,11,11.2,14.2"/>
				<path class="st3" d="M1030.5,506.7c6.8-1.2,12.8,3,18.7,5.4"/>
				<path class="st3" d="M1049.2,512.1c10-6.8,23.6-9.8,29.9-21.5"/>
				<path class="st3" d="M945.5,498c6.9,1,12.9,3.7,19.2,6.5"/>
				<path class="st3" d="M964.8,504.5c7.3-2.1,13.8-5.3,20.3-8.8"/>
				<path class="st3" d="M985.1,495.8c-0.7-3.8-1.8-7.5-3.2-11.1"/>
				<path class="st3" d="M1065.7,535.5c4.8,0.4,9.6-2.7,14.2-0.8"/>
				<path class="st3" d="M1079.9,534.7c7.7-2.8,13.9-8.5,22.7-9"/>
				<path class="st3" d="M1109,519.2c-3.7-13.1-16.8-23.7-29.9-28.7"/>
				<path class="st3" d="M993.6,516c3.6,6.3,12.8,5.9,19.2,8.5"/>
				<path class="st3" d="M1012.9,524.5c4.5-1.7,9,2,13.6,0.4"/>
				<path class="st3" d="M1026.5,524.8c-0.8-6.3,0.8-12.5,4-18.2"/>
				<path class="st3" d="M964.8,519.6c1.4,0.2,3.4,0.5,5.4,0.9"/>
				<path class="st3" d="M970.1,520.5c7.8-2.1,15.7-2,23.5-4.6"/>
				<path class="st3" d="M993.6,516c0.3-5-0.6-10.2,0.5-15.1"/>
				<path class="st3" d="M945,522.3c6.4-2.2,13-2.4,19.8-2.7"/>
				<path class="st3" d="M964.8,519.6c0-5,0-10,0-15"/>
				<path class="st3" d="M1042.8,542c5.3-1.8,11-3.4,16.6-2.1"/>
				<path class="st3" d="M1059.3,539.9c2.9-1.5,5.3-3.2,6.4-4.4"/>
				<path class="st3" d="M1065.7,535.5c-1.8-10.3-14.4-14-16.5-23.4"/>
				<path class="st3" d="M968.5,544.8c9,2.9,19.2,0.4,28.2,3.7"/>
				<path class="st3" d="M996.7,548.5c7,0.8,13.7-2,20.4-3.2"/>
				<path class="st3" d="M1017.1,545.3c-3.5-6.6-2.8-13.9-4.3-20.9"/>
				<path class="st3" d="M942.7,546.3c7,0.5,14.2-0.6,21,1"/>
				<path class="st3" d="M963.7,547.2c1.6-0.7,3.2-1.6,4.8-2.4"/>
				<path class="st3" d="M968.5,544.8c-2.1-8.2,1.7-16.1,1.6-24.3"/>
				<path class="st3" d="M1102.6,525.7c8.3,12.8,10.6,27.3,18.5,40.4"/>
				<path class="st3" d="M1141,559c-2.3-17.2-8.8-38.5-32.1-39.7"/>
				<path class="st3" d="M1109,519.2c-1.5,1.4-4.2,3.7-6.4,6.5"/>
				<path class="st3" d="M1017.1,545.3c7.4,4.3,16,8.8,25.3,8.8"/>
				<path class="st3" d="M1042.4,554.1c0.7-4,0.2-8,0.4-12.1"/>
				<path class="st3" d="M1042.8,542c-10.7-0.7-10.5-10.9-16.3-17.2"/>
				<path class="st3" d="M1091.9,564.8c4.2,3.5,4.8,5.8,5.3,7.3"/>
				<path class="st3" d="M1097.2,572.2c9.1,4.9,16.3-2.8,23.9-6"/>
				<path class="st3" d="M1071.1,576.1c1.8,0.3,3.6,0.6,5.3,0.9"/>
				<path class="st3" d="M1076.4,577c4.1-5.1,9.6-9,15.5-12.2"/>
				<path class="st3" d="M1091.9,564.8c1.6-11.6-8.1-19.9-12-30.1"/>
				<path class="st3" d="M1052.4,577.5c2,1.3,3.6,2,5.4,2.9"/>
				<path class="st3" d="M1057.7,580.5c5,0.3,9.7-1.3,13.3-4.4"/>
				<path class="st3" d="M1071.1,576.1c-1.5-12.8-9.3-23.6-11.8-36.2"/>
				<path class="st3" d="M942.9,563.3c7.5,1.1,15,4.5,22.9,1.5"/>
				<path class="st3" d="M965.8,564.8c1.1-6.1-2.7-11.5-2.1-17.6"/>
				<path class="st3" d="M965.8,564.8c11,1.4,20.7,5.7,32.1,5.9"/>
				<path class="st3" d="M997.9,570.7c0.4-0.3,0.7-0.7,1.1-1"/>
				<path class="st3" d="M999,569.7c-2.4-6.8-4.7-14.1-2.2-21.2"/>
				<path class="st3" d="M999,569.7c15-2.1,29-5.6,43.8-9.4"/>
				<path class="st3" d="M1042.8,560.3c0-2.9-0.2-4.5-0.4-6.2"/>
				<path class="st3" d="M1143.2,594.2c2-11.4,3.3-24.4-2.1-35.2"/>
				<path class="st3" d="M1141,559c-5.8,3.8-13.3,3.8-19.2,7.3"/>
				<path class="st3" d="M997.9,570.7c-0.9,3.2-1.2,6.5,0,9.8"/>
				<path class="st3" d="M997.9,580.5c18.2-1,37.5,1.8,54.5-2.9"/>
				<path class="st3" d="M1052.4,577.5c-0.6-6.5-6.4-11.7-9.6-17.3"/>
				<path class="st3" d="M940.9,584.4c6.5-1.6,13.4-2.8,20.1-1.5"/>
				<path class="st3" d="M961,582.9c10-2.6,21.5,0.2,32.1,0"/>
				<path class="st3" d="M993.1,582.9c1.6-0.9,3.2-1.7,4.8-2.4"/>
				<path class="st3" d="M1076.4,577c2.8,7.3,2.5,14.9,3.2,22.5"/>
				<path class="st3" d="M1079.6,599.5c7.1,0,13.7-3.6,20.8-3.4"/>
				<path class="st3" d="M1100.4,596.1c6.8-8.1-7.8-15.2-3.2-24"/>
				<path class="st3" d="M1100.4,596.1c1.1,0.5,2.1,1,3.2,1.5"/>
				<path class="st3" d="M1123.9,600c1.4-1.3,2.8-2.6,4.3-3.9"/>
				<path class="st3" d="M1128.2,596.1c-0.9-10.3-7.4-19-6.4-29.8"/>
				<path class="st3" d="M1121.8,566.3c-0.2-0.1-0.5-0.1-0.7-0.2"/>
				<path class="st3" d="M1057.7,580.5c-1.5,6.6-0.8,13.3-4.3,19.5"/>
				<path class="st3" d="M1053.4,600c0.9,3.6,1.4,7,4.3,9.8"/>
				<path class="st3" d="M1071.1,610.8c2.4-4,5.8-7.4,8.5-11.2"/>
				<path class="st3" d="M993.1,582.9c1.6,4.8-3.3,22.5-3.2,28.4c0,0.2,0,0.5,0,0.7"/>
				<path class="st3" d="M961.6,610.8c9.4,0.6,19.3-1.4,28.4,1.3"/>
				<path class="st3" d="M943.4,612.3c5.3,1.7,10.8-1.2,16,0.2"/>
				<path class="st3" d="M959.4,612.4c1-0.7,1.6-1.2,2.1-1.7"/>
				<path class="st3" d="M961.6,610.8c-1.3-9.4,5.3-19-0.5-27.9"/>
				<path class="st3" d="M1138.9,630c8.5-10,6.8-24,4.3-35.8"/>
				<path class="st3" d="M1143.2,594.2c-4.9,1.9-9.4,4-15,2"/>
				<path class="st3" d="M1072,622.2c9.4,1.3,19.3-1,28.5,1.3"/>
				<path class="st3" d="M1100.4,623.5c2.1-0.1,3.5-1.1,5-1.9"/>
				<path class="st3" d="M1105.4,621.5c-1.3-7.9-0.3-16-1.8-24"/>
				<path class="st3" d="M1105.4,621.5c5-1.8,10.5,0.9,14.3,3.9"/>
				<path class="st3" d="M1119.7,625.4c6.1-7,3.7-17,4.3-25.4"/>
				<path class="st3" d="M1123.9,600c-7-0.2-13.4-3.3-20.3-2.4"/>
				<path class="st3" d="M989.9,623c12,0.2,51.8-5.8,63.8-6.6"/>
				<path class="st3" d="M1053.4,600c-24,3.2-48.5,11-63.1,11.3"/>
				<path class="st3" d="M1060.9,634.2c5.4-3,5-9.7,11-12.1"/>
				<path class="st3" d="M1072,622.2c-0.9-3.7,0.4-7.7-0.9-11.4"/>
				<path class="st3" d="M1071.1,610.8c-4.5,0-8.7-3.7-13.3-1"/>
				<path class="st3" d="M1057.7,609.8c-2.1,2.4-2.8,3.6-3.2,5.9"/>
				<path class="st3" d="M960.5,635.7c8.5-3.5,17.8-4.1,26.7-6.4"/>
				<path class="st3" d="M987.2,629.3c-0.2-1.9,1.2-4.1,2.7-6.3"/>
				<path class="st3" d="M989.9,623c-0.8-3.6-0.8-7.4,0.1-11"/>
				<path class="st3" d="M949.7,640.4c3.6-1.5,8.3-1.8,10.8-4.7"/>
				<path class="st3" d="M960.5,635.7c-2.3-7.5-0.5-15.6-1.1-23.3"/>
				<path class="st3" d="M987.2,629.3c7.7,1.5,12.4,4.8,17.6,10.3"/>
				<path class="st3" d="M1004.8,639.6c2.9,0,6.5,1.1,11.6,1.5"/>
				<path class="st3" d="M1016.4,641.1c9.3-9.8,28.2-7.1,37.2-17.5"/>
				<path class="st3" d="M1100.4,623.5c0.2,8.7-12.3,9.8-10.7,19.6"/>
				<line class="st3" x1="1090.6" y1="643.3" x2="1093" y2="644"/>
				<path class="st3" d="M1060.6,638.2c3.5,5.5,9,7.8,15.2,9.7"/>
				<path class="st3" d="M1075.9,647.9c0.6-0.1,10.6-4.5,13.9-4.9"/>
				<path class="st3" d="M1016.4,641.1c1.7,4.9,4.9,9,7.1,13.7"/>
				<path class="st3" d="M1023.5,654.8c3.5,0.6,7,0.7,11.7,2.4"/>
				<path class="st3" d="M1035.3,657.2c3-11.6,15.6-13.4,25.4-19"/>
				<path class="st3" d="M1060.6,638.2c0.2-1.4,0.2-2.8,0.3-4"/>
				<path class="st3" d="M1060.9,634.2c-3.1-1.1-6.4-5-7.1-10.6c-0.3-2.1-0.1-4.5,0.6-7c0-0.2,0.1-0.3,0.1-0.5"/>
				<path class="st3" d="M1124.8,663.7c10.7-8.4,10.4-22.2,14.1-33.8"/>
				<path class="st3" d="M1138.9,630c-6.4-1.5-14.2,0.1-19.2-4.6"/>
				<path class="st3" d="M1119.7,625.4c-4.8,8.3-8.9,18.1-15.9,24.9"/>
				<path class="st3" d="M949.7,640.4c0.9,13.2-2.6,31,8.9,41"/>
				<path class="st3" d="M958.6,681.3c6.8-4.1,1-15.1,10.4-17.1"/>
				<path class="st3" d="M969,664.2c0.3-16.3,30.7-10,35.8-24.6"/>
				<path class="st3" d="M969,664.2c6.2,2.9,6.3,9.9,10.1,14.5"/>
				<path class="st3" d="M979.2,678.7c15.4-7.6,30.2-14,44.3-23.9"/>
				<path class="st3" d="M1033.5,666.5c1,4,0.3,8.3,2.5,12.1"/>
				<path class="st3" d="M1036,678.5c1.1,0.4,4.3,0.6,7.5,0.7"/>
				<path class="st3" d="M1043.5,679.2c7.3-8,18.4-11.5,28.7-14.4"/>
				<path class="st3" d="M1075.9,647.9c-2.9,5.1-7.2,10.9-3.6,16.9"/>
				<path class="st3" d="M1099.4,686.4c9.9-6.9,24.8-8.4,25.4-22.6"/>
				<path class="st3" d="M1124.8,663.7c-3.8-1-13.1-7.5-21.3-13c-5.3-3.5-10.2-6.6-12.9-7.5c-0.3-0.1-0.6-0.2-0.8-0.2"/>
				<path class="st3" d="M979.2,678.7c-1.5,5.3-0.9,11.5,5,14.4"/>
				<path class="st3" d="M984.2,693.1c15.3-10.8,32.4-18.4,49.3-26.6"/>
				<path class="st3" d="M1033.5,666.5c0.6-3.1,0.9-6.2,1.7-9.3"/>
				<path class="st3" d="M958.6,681.3c3.9,7.7,0.1,16.4,3,24.3"/>
				<path class="st3" d="M961.6,705.6c7.8-0.9,15.5-2.7,21.7-7.5"/>
				<path class="st3" d="M983.3,698.1c0.5-1.3,0.7-3.6,0.9-5"/>
				<path class="st3" d="M983.3,698.1c4.1,4,3.6,10.1,7.1,14.4"/>
				<path class="st3" d="M990.4,712.4c7.5-4.2,16.7-3.9,23.5-9.8"/>
				<path class="st3" d="M1013.9,702.7c-0.7-14.7,15.2-14,22.1-24.1"/>
				<path class="st3" d="M1060.4,708c15.2-3.2,40.2-1.2,39-21.7"/>
				<path class="st3" d="M1099.4,686.4c-14.2-1.7-22.9-10.2-27.2-21.6"/>
				<path class="st3" d="M1024.6,718.3c10.7,0.7,27-2.7,35.8-10.3"/>
				<path class="st3" d="M1060.4,708c-4.4-6.8-7.2-16.6-16-19.5c-1.6-3,1.4-6.4-0.9-9.3"/>
				<path class="st3" d="M961.6,705.6c1.3,14.7,4.5,29.4,10.3,42.7"/>
				<path class="st3" d="M971.9,748.3c9.5-8.2,2.3-26.4,18.3-30.2"/>
				<path class="st3" d="M990.2,718.1c0.2-1.7,0.2-4,0.2-5.7"/>
				<path class="st3" d="M1003.8,733.4c7.7-4.4,12-12.5,20.8-15.2"/>
				<path class="st3" d="M1024.6,718.3c0.1-6.6-6.8-10.7-10.7-15.6"/>
				<path class="st3" d="M971.9,748.3c-3.7,17.6,3.9,24.3,22,21.5c7.4-9.9,6.6-24.5,9.9-36.3"/>
				<path class="st3" d="M1003.8,733.4c-5.6-4.6-10.5-9.2-13.6-15.4"/>
			</g>
		</g>
	</g>
</g>
<g id="Legend">
	<text transform="matrix(1 0 0 1 27.0513 77.0043)" class="st4 st5">Stages of lateral root development</text>
	<text transform="matrix(1 0 0 1 8.2715 244.4165)" class="st4 st5">I</text>
	<text transform="matrix(1 0 0 1 197.8418 244.4165)" class="st4 st5">II</text>
	<text transform="matrix(1 0 0 1 387.4117 244.4165)" class="st4 st5">III</text>
	<text transform="matrix(1 0 0 1 985.4244 244.4165)" class="st4 st5">VI</text>
	<text transform="matrix(1 0 0 1 584.1583 244.4165)" class="st4 st5">IV</text>
	<text transform="matrix(1 0 0 1 795.7159 244.4165)" class="st4 st5">V</text>
	<text transform="matrix(1 0 0 1 1174.9941 244.4165)" class="st4 st5">VII</text>
</g>
</svg>
