<?xml version="1.0" encoding="UTF-8" standalone="no"?>
<!-- Created with Inkscape (http://www.inkscape.org/) -->

<svg
   xmlns:dc="http://purl.org/dc/elements/1.1/"
   xmlns:cc="http://creativecommons.org/ns#"
   xmlns:rdf="http://www.w3.org/1999/02/22-rdf-syntax-ns#"
   xmlns:svg="http://www.w3.org/2000/svg"
   xmlns="http://www.w3.org/2000/svg"
   xmlns:sodipodi="http://sodipodi.sourceforge.net/DTD/sodipodi-0.dtd"
   xmlns:inkscape="http://www.inkscape.org/namespaces/inkscape"
   width="35.729301mm"
   height="59.062881mm"
   viewBox="0 0 35.729301 59.062881"
   version="1.1"
   id="svg8"
   inkscape:version="0.92.5 (2060ec1f9f, 2020-04-08)"
   sodipodi:docname="pyr.svg">
  <defs
     id="defs2" />
  <sodipodi:namedview
     id="base"
     pagecolor="#ffffff"
     bordercolor="#666666"
     borderopacity="1.0"
     inkscape:pageopacity="0.0"
     inkscape:pageshadow="2"
     inkscape:zoom="3.959798"
     inkscape:cx="190.3157"
     inkscape:cy="64.876335"
     inkscape:document-units="mm"
     inkscape:current-layer="layer1"
     showgrid="false"
     inkscape:window-width="3752"
     inkscape:window-height="2089"
     inkscape:window-x="88"
     inkscape:window-y="34"
     inkscape:window-maximized="1" />
  <metadata
     id="metadata5">
    <rdf:RDF>
      <cc:Work
         rdf:about="">
        <dc:format>image/svg+xml</dc:format>
        <dc:type
           rdf:resource="http://purl.org/dc/dcmitype/StillImage" />
        <dc:title></dc:title>
      </cc:Work>
    </rdf:RDF>
  </metadata>
  <g
     inkscape:label="Layer 1"
     inkscape:groupmode="layer"
     id="layer1"
     transform="translate(-24.459597,-160.46145)">
    <path
       style="fill:#000000;stroke-width:1"
       d="m 32.672263,219.37685 c -0.116416,-0.0785 -0.262508,-0.21137 -0.324647,-0.29524 -0.06214,-0.0839 -0.201278,-0.24776 -0.309197,-0.3642 l -0.196217,-0.21172 -0.147896,0.38726 c -0.14493,0.37949 -0.307659,0.46293 -0.361497,0.18535 -0.02691,-0.13875 0.459466,-1.21255 0.58411,-1.28959 0.03574,-0.0221 0.09145,-0.16067 0.123801,-0.30796 0.07059,-0.3214 0.198387,-0.53624 0.770776,-1.29578 0.312224,-0.41431 0.477518,-0.73601 0.583715,-1.13606 0.193617,-0.72936 0.287837,-0.90615 0.750636,-1.40845 0.401422,-0.43568 0.661505,-0.87166 0.589495,-0.98818 -0.04893,-0.0792 -0.691037,0.27788 -1.174079,0.65287 -0.751971,0.58377 -1.312552,0.89713 -2.217116,1.23935 -0.370137,0.14003 -0.682689,0.16882 -1.989667,0.18323 -1.14479,0.0126 -1.621486,-0.0128 -1.821623,-0.0973 -0.251604,-0.10619 -0.304816,-0.0961 -0.74086,0.14004 -0.43953,0.23806 -0.620092,0.25504 -0.485314,0.0456 0.03185,-0.0495 0.181739,-0.15342 0.33308,-0.23097 0.151342,-0.0775 0.275167,-0.16065 0.275167,-0.18468 0,-0.024 -0.238125,-0.15083 -0.529167,-0.28176 -0.291041,-0.13094 -0.700616,-0.3153 -0.910166,-0.40971 -0.20955,-0.0944 -0.47625,-0.1999 -0.592667,-0.23443 -0.247995,-0.0736 -0.423333,-0.20106 -0.423333,-0.30785 0,-0.0417 0.184212,0.0176 0.409359,0.13171 0.549416,0.27841 1.489772,0.62076 2.336145,0.85049 0.509664,0.13835 1.331852,0.0439 1.829801,-0.21009 0.183977,-0.0939 0.605398,-0.4081 0.936491,-0.69832 0.841464,-0.73757 1.116138,-0.9098 2.70087,-1.69349 0.850204,-0.42045 1.335698,-0.70338 1.240379,-0.72285 -0.301812,-0.0617 -0.73176,0.0778 -1.095131,0.35514 -0.361299,0.27579 -0.713475,0.40302 -1.880914,0.67954 -0.325967,0.0772 -0.731396,0.23206 -0.900953,0.34412 -0.284465,0.18801 -0.411381,0.19905 -0.411381,0.0358 0,-0.0357 0.0762,-0.089 0.169334,-0.1186 0.09313,-0.0296 0.169333,-0.12435 0.169333,-0.21064 0,-0.10519 0.08299,-0.17513 0.251809,-0.21221 0.350974,-0.0771 1.026124,-0.8055 1.452247,-1.56682 0.195481,-0.34925 0.520689,-0.91605 0.722683,-1.25955 0.201993,-0.34351 0.367261,-0.65783 0.367261,-0.6985 0,-0.11555 -0.723622,-0.0867 -1.077786,0.0429 -1.009193,0.36943 -1.549067,0.40208 -0.869547,0.0526 0.450183,-0.23154 1.367628,-0.48061 2.063141,-0.56011 0.311123,-0.0356 0.691884,-0.16031 1.018739,-0.33376 0.287061,-0.15234 0.66988,-0.30473 0.850709,-0.33866 0.302299,-0.0567 0.316119,-0.0709 0.17158,-0.17663 -0.08646,-0.0632 -0.245925,-0.11494 -0.354367,-0.11494 -0.25003,0 -0.818918,-0.35718 -1.229665,-0.77205 -0.208904,-0.21101 -0.426335,-0.33955 -0.635657,-0.37581 -0.734594,-0.12725 -1.493058,-0.40933 -1.781454,-0.66255 -0.250779,-0.22019 -0.370752,-0.26393 -0.723922,-0.26393 -0.263402,0 -0.436654,-0.04 -0.458604,-0.10583 -0.05074,-0.15221 1.071535,-0.14383 1.293494,0.01 0.155331,0.10741 0.829417,0.32593 1.733339,0.56188 0.370721,0.0968 1.27,0.64139 1.27,0.76913 0,0.13252 0.591665,0.42163 1.052089,0.5141 0.56079,0.11262 0.857503,0.0443 1.793189,-0.41295 0.50919,-0.24883 0.788831,-0.31824 1.820333,-0.45178 0.670298,-0.0868 1.447322,-0.19566 1.726722,-0.24193 0.963839,-0.15964 1.18667,-0.19289 1.566334,-0.23376 0.469481,-0.0505 1.132229,-0.33129 1.059571,-0.44885 -0.03361,-0.0544 -0.690413,-0.0874 -1.763068,-0.0885 -1.4702,-0.002 -1.757013,-0.0234 -2.048896,-0.15604 -0.393615,-0.17881 -0.749128,-0.56979 -1.080228,-1.18797 -0.139154,-0.25981 -0.319978,-0.47 -0.445322,-0.51766 -0.35758,-0.13595 -1.229385,-0.18028 -1.538589,-0.0782 -0.418762,0.1382 -0.439559,0.0363 -0.03475,-0.17017 0.241978,-0.12345 0.441443,-0.1635 0.664372,-0.1334 0.765504,0.10335 0.868908,0.11134 0.868908,0.0671 0,-0.0257 -0.1143,-0.23251 -0.254,-0.45955 -0.286582,-0.46575 -0.295844,-0.49645 -0.148167,-0.49106 0.150838,0.006 0.845475,0.96269 1.132692,1.5608 0.298069,0.62071 0.758959,1.09967 1.129496,1.17377 0.399509,0.0799 3.879208,0.0687 3.929485,-0.0127 0.02319,-0.0375 -0.0037,-0.16135 -0.05979,-0.27517 -0.07419,-0.15058 -0.269779,-0.26458 -0.718239,-0.4186 -0.518243,-0.178 -0.663192,-0.27228 -0.911174,-0.59267 -1.020356,-1.31829 -1.011934,-1.31101 -1.222932,-1.05677 -0.05868,0.0707 -0.23211,0.18807 -0.385393,0.26081 -0.153283,0.0727 -0.417025,0.2666 -0.586094,0.43079 -0.169068,0.1642 -0.327243,0.2787 -0.3515,0.25444 -0.08744,-0.0874 0.13148,-0.36339 0.55108,-0.69461 0.23526,-0.18571 0.429275,-0.36718 0.431142,-0.40326 0.0019,-0.0361 -0.08801,-0.10034 -0.199727,-0.14282 -0.192583,-0.0732 -0.474211,-0.38803 -0.474211,-0.53009 0,-0.12349 0.180267,-0.0661 0.458141,0.14584 0.15263,0.11642 0.389989,0.21167 0.527464,0.21167 0.137475,0 0.336363,0.0667 0.441972,0.14817 0.211787,0.16342 1.007546,0.97025 1.25281,1.27024 0.105689,0.12927 0.319663,0.22178 0.663947,0.28706 0.314552,0.0596 0.590368,0.17239 0.724299,0.29609 0.118965,0.10988 0.242279,0.19977 0.274031,0.19977 0.03175,0 0.115392,-0.138 0.185867,-0.30667 0.09882,-0.2365 0.128136,-0.66694 0.128136,-1.88109 0,-1.3283 0.07199,-1.9211 0.08414,-2.27878 0.01215,-0.35768 0.01737,-0.52145 0.01081,-0.88343 -0.0066,-0.36198 -0.257694,-0.47047 -0.04684,-2.20836 0.26827,-2.21111 0.283448,-4.55979 0.133109,-5.98833 -0.03185,-0.30269 -0.01149,-1.55999 0.04524,-2.794 0.131158,-2.85264 0.146436,-5.86431 0.03404,-6.71075 -0.04799,-0.36139 -0.160226,-0.83764 -0.24942,-1.05833 -0.211836,-0.52414 -0.760099,-2.18142 -0.846989,-2.56026 -0.03738,-0.16298 -0.185913,-0.52493 -0.330069,-0.80433 -0.276631,-0.53616 -0.516081,-0.73615 -1.374031,-1.14755 -0.256117,-0.12281 -0.579967,-0.31877 -0.719667,-0.43546 -0.398465,-0.33284 -0.544934,-0.37701 -1.307109,-0.39421 -0.392943,-0.009 -0.730133,-0.0318 -0.749311,-0.051 -0.117315,-0.11731 0.145955,-0.21547 0.577936,-0.21547 h 0.501187 l -0.101308,-0.23283 c -0.05572,-0.12806 -0.24294,-0.39733 -0.416043,-0.59837 -0.311049,-0.36125 -0.47333,-0.7764 -0.369295,-0.94473 0.101651,-0.16448 0.186469,-0.0856 0.293806,0.2731 0.110372,0.36888 0.264133,0.5611 1.146804,1.43369 0.370557,0.36632 0.754241,0.62706 1.418125,0.96369 0.500569,0.25382 1.013767,0.57781 1.140439,0.71998 0.241475,0.27101 0.614337,0.97465 0.615662,1.16184 4.24e-4,0.0602 0.110842,0.3459 0.245369,0.635 0.134528,0.2891 0.291384,0.75316 0.348569,1.03125 0.05719,0.27808 0.17033,0.62942 0.251434,0.78074 l 0.14746,0.27513 0.05285,-0.65374 c 0.02907,-0.35956 0.03321,-1.56815 0.0092,-2.68575 l -0.04367,-2.032 -0.33323,-0.65364 c -0.183276,-0.3595 -0.438421,-0.8167 -0.566988,-1.016 -0.340577,-0.52794 -0.418478,-0.6594 -0.641191,-1.08203 -0.505352,-0.95897 -1.310745,-2.0812 -2.096306,-2.921 -0.217799,-0.23283 -0.545786,-0.63719 -0.72886,-0.89858 -0.378808,-0.54084 -1.236078,-1.32568 -1.528081,-1.39897 -0.10768,-0.027 -0.195781,-0.0756 -0.195781,-0.1079 0,-0.0323 -0.200025,-0.13014 -0.4445,-0.21739 -0.244475,-0.0872 -0.61595,-0.25327 -0.8255,-0.36894 -0.59427,-0.32804 -0.592409,-0.32727 -1.381695,-0.56746 -1.01519,-0.30892 -1.767244,-0.25568 -2.662804,0.18852 -0.581384,0.28836 -0.786207,0.32416 -0.656811,0.1148 0.101583,-0.16437 1.082026,-0.61331 1.478843,-0.67717 0.297408,-0.0479 0.347224,-0.0761 0.2168,-0.12312 -0.540173,-0.19458 -1.058333,-0.4881 -1.058333,-0.59953 0,-0.16808 0.0075,-0.16655 0.527258,0.10727 0.518341,0.27308 1.055226,0.46287 1.885742,0.66661 0.325967,0.08 0.839228,0.23153 1.14058,0.33682 0.301352,0.10529 0.563086,0.17627 0.581632,0.15772 0.01855,-0.0185 -0.108939,-0.22806 -0.283298,-0.46558 -0.17436,-0.23753 -0.409214,-0.61688 -0.521897,-0.843 -0.282881,-0.56767 -0.816086,-1.15032 -1.212922,-1.32541 -0.182787,-0.0806 -0.351714,-0.19711 -0.375393,-0.25882 -0.06347,-0.16539 0.06707,-0.13824 0.520127,0.10817 0.491137,0.26713 0.96078,0.76223 1.316326,1.38769 0.634802,1.11671 1.199175,1.65234 2.376738,2.25569 0.317714,0.16279 1.005546,0.86177 1.45344,1.477 0.316114,0.43422 1.46013,1.81731 1.597426,1.93126 0.07513,0.0623 0.330401,0.44238 0.567267,0.84451 0.236865,0.40213 0.588294,0.9788 0.780952,1.28148 0.192659,0.30268 0.510987,0.85501 0.707395,1.22739 l 0.357106,0.67705 -0.03878,-1.11969 c -0.0304,-0.87769 -0.07623,-1.20702 -0.212024,-1.52372 -0.20376,-0.47521 -0.668773,-1.86619 -0.669526,-2.00274 -2.54e-4,-0.052 -0.05601,-0.20101 -0.123834,-0.33103 -0.06782,-0.13003 -0.146529,-0.37768 -0.174905,-0.55033 -0.112781,-0.68625 -0.54888,-1.51531 -1.669773,-3.1744 -0.73542,-1.08853 -0.767197,-1.1228 -1.121773,-1.20976 -0.13944,-0.0342 -0.272577,-0.0849 -0.29586,-0.11264 -0.02328,-0.0277 -0.293193,-0.17597 -0.5998,-0.32936 -0.559259,-0.2798 -1.880034,-0.60689 -2.459027,-0.60899 -0.453961,-0.002 -0.909619,-0.22319 -1.389753,-0.67573 -0.234801,-0.2213 -0.568176,-0.45345 -0.740833,-0.51588 -0.332458,-0.12022 -0.395812,-0.22273 -0.187147,-0.3028 0.152195,-0.0584 0.836749,0.36606 1.187557,0.73634 0.313308,0.33071 0.538374,0.42826 1.183336,0.51288 1.641875,0.21543 1.74318,0.24071 2.556483,0.63804 0.855999,0.41819 0.959236,0.36558 0.523891,-0.26696 -0.192295,-0.2794 -0.406692,-0.57326 -0.476436,-0.65302 -0.06974,-0.0798 -0.103583,-0.20553 -0.0752,-0.27951 0.04425,-0.11532 0.08053,-0.10672 0.254516,0.0603 0.111598,0.10716 0.312069,0.36274 0.445491,0.56795 0.133422,0.20521 0.384028,0.58621 0.556904,0.84667 0.172876,0.26046 0.354374,0.56314 0.40333,0.67263 0.122432,0.27382 0.702968,1.14901 0.785758,1.18457 0.0371,0.0159 0.143034,0.16834 0.23541,0.33867 0.184493,0.34018 0.294756,0.5223 0.541738,0.89481 0.09014,0.13595 0.250078,0.47901 0.355421,0.76236 l 0.191534,0.51518 0.0044,-0.9222 c 0.0062,-1.29126 0.20072,-1.92404 0.757618,-2.46427 0.367905,-0.3569 0.434662,-0.48019 0.606757,-1.12057 0.106353,-0.39575 0.274341,-0.83897 0.373305,-0.98492 0.09896,-0.14595 0.206396,-0.33446 0.238736,-0.4189 0.05675,-0.14818 0.229329,-0.12726 0.229329,0.0278 0,0.0418 -0.107617,0.2586 -0.239148,0.48184 -0.131531,0.22324 -0.317104,0.6615 -0.412384,0.9739 l -0.173235,0.56801 0.245919,-0.12716 c 0.453275,-0.2344 1.526628,-0.99516 1.623961,-1.15101 0.05296,-0.0848 0.170795,-0.15418 0.261861,-0.15418 0.141636,0 0.124673,0.0422 -0.11732,0.29187 -0.286997,0.29611 -1.477664,1.1557 -1.964159,1.418 -0.894628,0.48237 -1.119446,1.08456 -1.098305,2.94191 0.01402,1.23164 0.119196,1.93209 0.356551,2.37453 0.109226,0.2036 0.584925,1.56934 0.584925,1.67933 0,0.26164 0.161454,0.0496 0.294701,-0.38714 0.0817,-0.26776 0.234454,-0.63924 0.33945,-0.8255 0.104995,-0.18627 0.219052,-0.43392 0.253459,-0.55034 0.0841,-0.28454 0.258645,-0.70063 0.550507,-1.31233 0.133312,-0.2794 0.295655,-0.6604 0.360763,-0.84667 0.209254,-0.59865 1.537445,-2.49766 1.746895,-2.49766 0.185021,0 0.601277,-0.64272 0.688562,-1.06317 0.126321,-0.60848 0.459468,-0.85135 2.093286,-1.52602 0.734091,-0.30314 1.703703,-0.70686 2.154694,-0.89716 0.526252,-0.22206 0.875034,-0.32434 0.973667,-0.28551 0.122348,0.0481 0.076,0.0906 -0.227317,0.20842 -0.20955,0.0814 -0.594226,0.24967 -0.854836,0.37402 -0.26061,0.12435 -0.497781,0.22608 -0.527047,0.22608 -0.02927,0 -0.311339,0.11843 -0.62683,0.26317 -0.315491,0.14473 -0.755358,0.33498 -0.977482,0.42276 -0.667192,0.26367 -1.194206,0.55552 -1.383577,0.76619 -0.164795,0.18334 -0.371561,0.66066 -0.371561,0.85776 0,0.12189 2.061873,0.018 2.624666,-0.13229 0.680427,-0.18166 1.05709,-0.22525 1.1926,-0.13801 0.102894,0.0662 0.102557,0.0881 -0.0024,0.15566 -0.266563,0.17149 -2.013871,0.43097 -2.896941,0.43021 l -0.902406,-7.8e-4 -0.452261,0.37083 c -0.734158,0.60198 -1.078619,1.05919 -1.64438,2.18264 l -0.299074,0.59389 0.387032,-0.26629 c 0.666599,-0.45863 1.33497,-0.74117 1.993161,-0.84256 0.894791,-0.13784 2.050948,-0.40724 2.785818,-0.64911 0.34475,-0.11348 0.640946,-0.19219 0.658212,-0.17492 0.07107,0.0711 -0.220449,0.21016 -0.819364,0.39092 -0.34925,0.10541 -0.84455,0.26108 -1.100666,0.34594 -0.256117,0.0849 -0.713317,0.19956 -1.016,0.25491 -0.302684,0.0553 -0.626534,0.13089 -0.719667,0.16788 -0.09313,0.037 -0.298625,0.10841 -0.456648,0.15872 -0.407212,0.12965 -1.159685,0.63915 -1.688127,1.14303 -0.460877,0.43945 -0.779695,1.00859 -1.071118,1.91212 -0.08261,0.25612 -0.195367,0.52282 -0.250576,0.59267 -0.05521,0.0699 -0.149719,0.3295 -0.210023,0.577 -0.0603,0.2475 -0.169966,0.57092 -0.243693,0.71871 -0.144059,0.28878 -0.159966,0.70648 -0.122648,3.22072 l 0.02117,1.42609 0.609759,-0.56454 c 0.335367,-0.3105 0.744942,-0.6317 0.910166,-0.71377 0.165225,-0.0821 0.681409,-0.3414 1.147075,-0.57627 0.465667,-0.23487 0.941917,-0.45621 1.058334,-0.49186 0.226378,-0.0693 0.462354,-0.21861 1.397,-0.8838 0.325966,-0.23199 0.659859,-0.42281 0.741982,-0.42404 0.08212,-0.001 0.215473,-0.0401 0.296333,-0.0863 0.264843,-0.15137 1.057069,-0.43114 1.099818,-0.38839 0.124012,0.12401 -0.117106,0.29233 -0.718788,0.50179 -0.370756,0.12906 -0.931957,0.41338 -1.247112,0.63181 -0.315157,0.21843 -0.762957,0.51722 -0.995114,0.66398 l -0.422102,0.26683 0.453158,0.0432 c 0.698733,0.0666 1.112814,0.17442 1.154871,0.3006 0.03034,0.091 -0.04731,0.10337 -0.374046,0.0595 -1.656275,-0.22231 -1.87445,-0.18072 -3.454652,0.65853 -0.361341,0.19191 -1.314723,1.15359 -1.438742,1.45126 -0.129102,0.30987 -0.268569,3.971 -0.235492,6.18189 0.01254,0.8382 -0.01581,2.7813 -0.06301,4.318 -0.0472,1.5367 -0.09377,3.84175 -0.103501,5.12233 -0.01234,1.6247 -0.05117,2.44115 -0.128481,2.70163 -0.06567,0.22128 -0.11079,0.8079 -0.11079,1.44058 0,0.90994 -0.02432,1.04754 0.05035,1.42896 0.07467,0.38142 0.171128,0.9692 0.124748,1.41893 -0.04638,0.44974 -0.01004,0.67707 0.04286,2.15468 0.04243,1.18526 0.08904,1.68662 0.154257,1.65937 0.445704,-0.18622 1.541119,-0.48152 1.936408,-0.52201 0.420455,-0.0431 0.542412,-0.0991 0.877846,-0.40358 0.214254,-0.19446 0.420733,-0.42976 0.458841,-0.52289 0.06191,-0.1513 0.06986,-0.14577 0.07465,0.0519 0.0055,0.22686 -0.400815,0.81693 -0.657933,0.95546 -0.22131,0.11924 -0.222074,0.12553 -0.03968,0.32651 0.09492,0.1046 0.239148,0.29495 0.320516,0.423 0.1289,0.20287 0.131077,0.23284 0.01691,0.23284 -0.07207,0 -0.154841,-0.075 -0.18394,-0.1667 -0.06003,-0.18914 -0.850416,-0.64998 -1.052979,-0.61394 -0.403281,0.0717 -1.349806,0.41135 -1.547241,0.55514 -0.282959,0.20609 -0.346385,0.35968 -0.234706,0.56836 0.13324,0.24896 0.404245,0.35995 1.140757,0.46721 0.372533,0.0543 1.106593,0.21803 1.631245,0.36395 1.024277,0.28488 1.395723,0.32042 1.771076,0.16944 0.13109,-0.0527 0.723271,-0.12225 1.315958,-0.1545 0.870023,-0.0473 1.110596,-0.0885 1.248833,-0.21359 0.142895,-0.12932 0.171221,-0.13348 0.171221,-0.0252 0,0.0714 -0.08287,0.18483 -0.184165,0.25208 -0.261771,0.17381 -0.150533,0.3778 0.314787,0.57726 0.21352,0.0915 0.364394,0.20496 0.335276,0.25207 -0.07978,0.12909 -0.453985,0.005 -0.869706,-0.28774 -0.32325,-0.22785 -0.454759,-0.26502 -1.020789,-0.28856 -0.491908,-0.0204 -0.771214,0.0155 -1.149824,0.14784 -0.275048,0.0962 -0.579848,0.17503 -0.677334,0.17526 -0.159506,3.4e-4 -0.151824,0.0216 0.07675,0.21193 0.515561,0.42931 1.362694,0.95515 1.631302,1.01259 0.159246,0.0341 0.659101,0.36455 1.177936,0.77884 1.346016,1.0748 1.155447,0.99883 2.561611,1.02116 l 1.230023,0.0195 1.078608,0.42725 c 1.053968,0.4175 1.085547,0.42436 1.382348,0.30035 0.212025,-0.0886 0.524575,-0.11889 1.035114,-0.10035 0.970188,0.0352 1.050484,0.2107 0.08846,0.1933 -0.386505,-0.007 -0.816497,0.0189 -0.955539,0.0574 -0.23735,0.0658 -0.242526,0.0759 -0.08467,0.16454 0.09248,0.0519 0.4072,0.0857 0.699389,0.0751 0.56997,-0.0208 1.119748,0.16445 1.119748,0.37725 0,0.0645 -0.0095,0.1169 -0.02117,0.11635 -0.01164,-5.9e-4 -0.224851,-0.0552 -0.473796,-0.12148 -0.338018,-0.09 -0.503536,-0.0973 -0.653674,-0.0289 -0.197482,0.09 -0.627943,-0.015 -1.200744,-0.29279 -0.225778,-0.1095 -0.398959,-0.0599 -1.525483,0.43686 -0.431491,0.19028 -0.857867,0.34596 -0.947503,0.34596 -0.419983,0 -0.165949,0.47609 0.364563,0.68323 0.146742,0.0573 0.381103,0.15219 0.520803,0.21088 0.1397,0.0587 0.365919,0.14108 0.502709,0.18309 0.13679,0.042 0.265508,0.12679 0.286043,0.18839 0.0926,0.2778 -1.410097,-0.23675 -2.186773,-0.74879 -0.354347,-0.23361 -0.626888,-0.33459 -1.132187,-0.4195 -0.366024,-0.0615 -0.794189,-0.1841 -0.951479,-0.27245 -0.340454,-0.19122 -0.370469,-0.10176 -0.06751,0.2012 0.18285,0.18285 0.628193,1.25034 0.628193,1.50579 0,0.042 0.200025,0.27297 0.4445,0.51337 1.074609,1.05667 1.689027,1.55968 2.545891,2.08427 0.675718,0.41368 0.944968,0.6286 1.026254,0.81917 0.06061,0.14209 0.208478,0.34895 0.328596,0.45968 0.191759,0.17678 0.278289,0.19633 0.709412,0.1603 0.492804,-0.0412 0.956681,0.0543 0.956681,0.19699 0,0.042 -0.276225,0.077 -0.613834,0.0777 -0.778925,0.002 -0.880114,0.0589 -0.752285,0.42558 0.258475,0.74146 0.01765,0.65864 -0.370802,-0.12752 -0.479023,-0.96947 -0.753783,-1.35803 -1.155029,-1.63343 -0.528099,-0.36247 -1.945057,-1.13848 -1.992388,-1.09115 -0.02203,0.022 0.0011,0.11701 0.05148,0.21107 0.05034,0.0941 0.09153,0.26539 0.09153,0.38072 0,0.19934 0.414881,0.6481 0.599163,0.6481 0.04299,0 0.07817,0.0572 0.07817,0.127 0,0.0699 -0.05029,0.127 -0.11176,0.127 -0.192506,0 -0.835971,-0.61123 -0.962657,-0.91444 -0.132038,-0.31601 -0.602795,-1.02749 -0.871158,-1.31663 -0.09288,-0.10006 -0.255998,-0.31438 -0.362494,-0.47625 -0.2816,-0.42804 -0.68702,-0.67687 -1.018823,-0.62532 -0.310444,0.0482 -0.969761,-0.1618 -1.110016,-0.35361 -0.07766,-0.10622 -0.143088,-0.11216 -0.368754,-0.0335 -0.33678,0.1174 -0.341872,0.19435 -0.03216,0.48601 0.366809,0.34543 0.581929,1.11706 0.311422,1.11706 -0.07202,0 -0.160607,-0.13693 -0.211954,-0.32761 -0.115642,-0.42947 -0.367285,-0.7395 -0.764835,-0.94232 -0.455448,-0.23235 -1.422774,-1.20847 -1.48401,-1.4975 -0.127326,-0.60096 -0.25056,-0.73486 -1.108247,-1.2041 -0.460286,-0.25182 -0.941191,-0.53487 -1.068676,-0.62899 -0.127486,-0.0941 -0.248681,-0.15423 -0.269323,-0.13359 -0.02064,0.0207 0.163888,0.37281 0.410066,0.7826 0.341048,0.5677 0.566397,0.83425 0.946657,1.11973 0.274482,0.20607 0.539826,0.37507 0.589652,0.37556 0.182647,0.002 0.83463,0.64388 1.151297,1.13383 0.622301,0.96282 1.580759,1.86082 3.06825,2.87472 0.735241,0.50115 1.092247,0.65643 1.484613,0.64574 0.616637,-0.0168 1.061206,0.12888 1.68931,0.5536 0.344335,0.23283 0.744385,0.52773 0.889,0.65533 l 0.262937,0.232 -0.296333,-0.0953 c -0.162984,-0.0524 -0.57557,-0.27891 -0.916859,-0.50326 -0.580482,-0.38159 -0.672534,-0.41371 -1.426472,-0.49778 -0.851298,-0.0949 -1.128687,-0.21152 -2.017003,-0.84775 -0.232833,-0.16676 -0.533131,-0.37285 -0.667327,-0.45796 l -0.243994,-0.15476 0.06101,0.3252 c 0.06329,0.33735 0.331682,0.96049 0.898111,2.08516 0.332377,0.65995 0.330577,0.85248 -0.004,0.42714 -0.239116,-0.30398 -1.068077,-1.96597 -1.199693,-2.40527 -0.05992,-0.2 -0.304114,-0.57356 -0.574811,-0.87935 -0.258849,-0.2924 -0.614851,-0.71682 -0.791115,-0.94316 -0.955566,-1.22704 -1.116446,-1.39255 -1.717997,-1.76748 -0.345685,-0.21546 -0.628519,-0.42275 -0.628519,-0.46066 0,-0.0379 -0.09918,-0.1339 -0.220406,-0.21333 l -0.220406,-0.14441 0.05868,0.36751 c 0.06882,0.43102 0.378197,1.5152 0.467265,1.63751 0.09126,0.12531 0.393374,1.07697 0.625692,1.97089 0.112285,0.43205 0.272455,0.88925 0.355934,1.016 0.113666,0.17258 0.163555,0.46813 0.198675,1.17701 0.0574,1.15848 0.142551,1.30383 1.004228,1.71399 0.334951,0.15944 0.609002,0.32137 0.609002,0.35983 0,0.15726 -0.415456,0.0486 -0.972102,-0.25431 -0.810071,-0.44078 -0.902844,-0.6199 -0.975608,-1.88361 -0.03175,-0.55134 -0.09683,-1.05164 -0.144638,-1.11178 -0.0478,-0.0601 -0.134658,-0.26175 -0.193006,-0.44802 -0.127577,-0.40727 -0.500878,-1.42072 -0.899062,-2.44082 -0.160476,-0.41111 -0.306029,-0.84926 -0.323452,-0.97366 -0.08934,-0.63787 -0.51271,-2.0036 -0.824491,-2.65967 -0.348838,-0.73405 -0.396779,-0.77823 -0.80846,-0.74518 -0.1033,0.008 -0.255011,-0.0225 -0.337135,-0.0685 -0.276301,-0.15463 -0.571691,0.13372 -1.047246,1.02227 -0.247686,0.46279 -0.546436,0.91703 -0.663888,1.00942 -0.326794,0.25705 -0.853673,1.10079 -0.853977,1.36754 -1.69e-4,0.13021 -0.128218,0.51121 -0.284601,0.84666 -0.156382,0.33546 -0.335273,0.7522 -0.397534,0.92611 -0.215388,0.60161 -1.317231,1.57358 -2.129187,1.87822 l -0.53328,0.20009 -0.04747,0.70775 c -0.05394,0.80426 -0.278277,1.89484 -0.462379,2.24781 -0.06826,0.13087 -0.124344,0.29319 -0.124631,0.36071 -3.38e-4,0.0786 -0.02982,0.0935 -0.08197,0.0413 -0.09061,-0.0906 0.06597,-0.93734 0.286739,-1.55057 0.16371,-0.45473 0.182682,-1.587 0.02754,-1.64388 -0.08284,-0.0304 -0.08359,-0.0624 -0.0035,-0.14752 0.0652,-0.0692 0.08438,-0.23997 0.05281,-0.47025 -0.07644,-0.55769 0.0103,-0.74237 0.702097,-1.49485 0.893396,-0.97177 1.522959,-1.83428 1.593039,-2.1825 0.106175,-0.52757 0.321753,-1.1363 0.484865,-1.36911 0.08783,-0.12536 0.217026,-0.36515 0.287106,-0.53288 l 0.127419,-0.30495 -0.23552,0.14849 c -0.129537,0.0817 -0.330771,0.24067 -0.447188,0.35334 -0.225915,0.21865 -1.132189,0.65996 -1.833969,0.89306 -0.422051,0.14018 -0.428454,0.14762 -0.574992,0.66831 -0.3168,1.12568 -0.410383,1.38648 -0.742622,2.06954 -0.346146,0.71166 -0.885978,1.31331 -1.431473,1.5954 -0.420996,0.2177 -0.329029,-0.009 0.227146,-0.56044 0.521085,-0.51645 0.947641,-1.2175 1.153936,-1.89652 0.199026,-0.65509 0.404533,-1.51742 0.369881,-1.55207 -0.02108,-0.0211 -0.225714,0.0291 -0.454748,0.11142 -0.338479,0.12171 -0.501688,0.25853 -0.871958,0.73097 -0.250543,0.31967 -0.573153,0.72921 -0.716909,0.91008 -0.143758,0.18086 -0.309065,0.4565 -0.36735,0.61251 -0.193078,0.51682 -0.363463,0.78724 -0.765539,1.215 -0.368466,0.392 -0.542253,0.69455 -1.008925,1.75645 -0.09711,0.22098 -0.342082,0.60498 -0.544373,0.85334 -0.485312,0.59583 -0.820916,1.60196 -0.644379,1.93182 0.150294,0.28083 0.511675,0.65717 0.683367,0.71166 0.174749,0.0555 0.217222,0.29493 0.05107,0.28795 -0.05821,-0.002 -0.201083,-0.0687 -0.3175,-0.1472 z m 6.625779,-5.12133 c 0.407796,-0.27704 0.842503,-0.62318 0.966017,-0.7692 0.381213,-0.45068 0.709605,-1.26661 0.842791,-2.09401 0.150969,-0.93788 0.220904,-1.08313 0.823414,-1.7102 0.478124,-0.49761 1.035069,-1.50469 0.951941,-1.72132 -0.02596,-0.0676 -0.167307,-0.1163 -0.337852,-0.1163 -0.331714,0 -0.579475,0.26753 -0.680671,0.73499 -0.03207,0.14812 -0.113004,0.31471 -0.179861,0.3702 -0.06686,0.0555 -0.121558,0.15307 -0.121558,0.21686 0,0.0638 -0.117526,0.2207 -0.261169,0.34868 -0.239557,0.21345 -0.585497,0.82315 -0.585497,1.03192 0,0.048 -0.07606,0.21201 -0.169017,0.36447 -0.09296,0.15247 -0.16916,0.35429 -0.169333,0.44848 -5.08e-4,0.28285 -0.525602,0.99237 -1.29928,1.75567 -0.755896,0.74576 -0.949892,1.05893 -0.845594,1.36508 0.0336,0.0986 0.05209,0.22634 0.04109,0.2838 -0.03135,0.1638 0.212209,0.0428 1.024581,-0.50912 z m -8.697029,0.075 c 0.685667,-0.0339 1.109529,-0.21805 1.803611,-0.78345 0.248872,-0.20273 0.481864,-0.3686 0.517758,-0.3686 0.0359,0 0.213378,-0.11827 0.394406,-0.26282 0.181028,-0.14455 0.654138,-0.42647 1.051356,-0.62649 0.465405,-0.23436 0.849259,-0.50151 1.0795,-0.75129 0.196508,-0.21319 0.358305,-0.41704 0.359549,-0.453 0.0044,-0.12839 0.64776,-0.76659 0.908798,-0.90158 0.146196,-0.0756 0.455766,-0.17819 0.687933,-0.22798 0.372204,-0.0798 0.428783,-0.12087 0.478462,-0.34705 0.09518,-0.43335 -0.06141,-0.43146 -0.671966,0.008 -0.317518,0.22859 -0.868422,0.55526 -1.224231,0.72593 -0.355809,0.17066 -0.799326,0.38816 -0.985592,0.48333 -0.186267,0.0952 -1.234017,0.62649 -2.328334,1.1807 -1.430488,0.72447 -2.074609,1.09766 -2.291909,1.32788 -0.166233,0.17612 -0.594858,0.48082 -0.9525,0.6771 -0.357642,0.19629 -0.650257,0.37654 -0.650257,0.40056 0,0.024 0.276225,0.0222 0.613833,-0.004 0.337608,-0.0263 0.88192,-0.061 1.209583,-0.0772 z m 1.013866,-2.8844 c 0.261183,-0.068 0.710401,-0.27758 0.998263,-0.46567 0.287861,-0.18809 0.637999,-0.35863 0.778086,-0.37899 0.140086,-0.0204 0.515912,-0.0755 0.83517,-0.12249 0.740746,-0.10909 1.964616,-0.72099 2.556348,-1.2781 l 0.427484,-0.40246 -0.786069,-0.0553 c -0.432338,-0.0304 -0.879972,-0.0909 -0.994742,-0.13459 -0.11477,-0.0436 -0.353456,-0.0983 -0.530415,-0.12155 -0.176957,-0.0232 -0.444598,-0.0791 -0.594757,-0.12418 -0.444959,-0.13359 -1.010682,-0.13952 -1.164082,-0.0122 -0.128193,0.10639 -0.2694,0.31151 -0.918022,1.33354 -0.124967,0.19691 -0.227213,0.38981 -0.227213,0.42866 0,0.0388 -0.11693,0.18254 -0.259844,0.31931 -0.269658,0.25807 -0.756156,0.94489 -0.756156,1.06753 0,0.0965 0.08832,0.0891 0.635949,-0.0535 z m 20.065051,-0.17288 c -0.1397,-0.11608 -0.554923,-0.43022 -0.922717,-0.69808 -0.367795,-0.26786 -0.824995,-0.60743 -1.016,-0.75461 -0.688648,-0.53062 -3.681189,-2.35339 -3.750273,-2.28431 -0.114101,0.1141 0.808196,0.82569 1.957786,1.51051 0.318052,0.18946 0.428023,0.32718 0.642295,0.80433 0.174023,0.38753 0.373253,0.67142 0.609461,0.86847 0.359189,0.29963 0.407345,0.30903 1.261966,0.24624 0.197211,-0.0145 0.38991,0.0364 0.540366,0.14258 0.400259,0.28259 0.586393,0.37425 0.761783,0.3751 0.146445,6.8e-4 0.135001,-0.0277 -0.08467,-0.21023 z m 0.935255,-0.25744 c -0.320012,-0.7659 -1.03478,-1.29921 -1.896089,-1.41473 l -0.367952,-0.0494 0.192318,0.20472 c 0.105775,0.11259 0.239653,0.20471 0.297505,0.20471 0.05785,0 0.117885,0.0321 0.133408,0.0714 0.01552,0.0393 0.256822,0.24594 0.536222,0.45929 0.2794,0.21336 0.634696,0.50556 0.789546,0.64934 0.345108,0.32044 0.479042,0.26715 0.315042,-0.12536 z m 2.753545,-1.10521 c 0.468976,-0.1379 1.188744,-0.40993 1.453551,-0.54937 0.08086,-0.0426 0.217385,-0.0774 0.303389,-0.0774 0.382628,0 0.215478,-0.13163 -0.446168,-0.35136 -0.663302,-0.22028 -0.806749,-0.23691 -1.94591,-0.2257 l -1.22982,0.0121 0.164375,0.17664 c 0.09041,0.0971 0.365841,0.39418 0.612079,0.66007 0.246237,0.26589 0.488414,0.48496 0.538171,0.48684 0.04976,0.002 0.297406,-0.0574 0.550333,-0.13182 z m -1.465716,-0.22197 c -0.0705,-0.10623 -0.361589,-0.44683 -0.646857,-0.75688 -0.455533,-0.49512 -0.587346,-0.5853 -1.082872,-0.74084 -0.310313,-0.0974 -0.599533,-0.17709 -0.64271,-0.17709 -0.04318,0 -0.179637,-0.0715 -0.303241,-0.15881 -0.123605,-0.0873 -0.358087,-0.18718 -0.52107,-0.22186 -0.162984,-0.0347 -0.391584,-0.11132 -0.508,-0.17031 -0.116417,-0.059 -0.687917,-0.14764 -1.27,-0.19701 -0.841969,-0.0714 -1.229233,-0.15049 -1.894271,-0.38687 -0.459765,-0.16342 -0.905235,-0.35984 -0.989934,-0.43649 -0.0847,-0.0767 -0.200542,-0.12385 -0.257429,-0.10489 -0.05689,0.019 0.02663,0.11268 0.1856,0.20826 0.158969,0.0956 0.637832,0.38877 1.064142,0.65154 0.42631,0.26278 0.794978,0.47777 0.819263,0.47777 0.02428,0 0.380336,0.21145 0.791224,0.46989 1.189809,0.74836 1.536727,0.88511 2.677715,1.05553 0.567979,0.0848 1.22319,0.23817 1.456023,0.34075 0.447486,0.19714 1.163004,0.41302 1.217969,0.36749 0.01795,-0.0149 -0.02505,-0.11396 -0.09555,-0.22018 z m -14.931198,-0.20863 c 0.496174,-0.17964 1.079299,-0.53246 1.348429,-0.81586 l 0.239649,-0.25236 -0.840892,0.0463 c -1.066247,0.0588 -1.343726,0.18601 -1.386633,0.63592 -0.04565,0.47872 0.0013,0.63666 0.168133,0.5656 0.07742,-0.033 0.28951,-0.11381 0.471314,-0.17963 z m -1.050219,-1.21218 c 0.09313,-0.0931 0.169785,-0.27411 0.170338,-0.40217 5.93e-4,-0.12806 0.05577,-0.44238 0.122694,-0.6985 0.0979,-0.37465 0.20114,-0.53686 0.528163,-0.82988 l 0.406471,-0.36422 -0.465666,0.0524 c -0.973361,0.10962 -1.32018,0.22406 -2.156454,0.71153 -0.467067,0.27226 -1.077813,0.56049 -1.357213,0.64051 -0.712827,0.20417 -1.266529,0.46257 -1.176304,0.54895 0.0416,0.0398 0.494737,0.15123 1.006971,0.24756 1.170746,0.22018 1.294111,0.23492 2.0955,0.25041 0.553716,0.0107 0.682605,-0.0138 0.8255,-0.15664 z m 3.462123,-0.4445 c 0.209235,-0.55931 0.207978,-0.58128 -0.02713,-0.47416 -0.119716,0.0545 -0.217664,0.13042 -0.217664,0.16862 0,0.0382 -0.180975,0.16366 -0.402167,0.27881 l -0.402166,0.20934 0.488929,0.004 c 0.43131,0.003 0.497327,-0.0185 0.560194,-0.18656 z m -1.686204,-0.20355 c 0.355955,-0.11733 0.605568,-0.23634 2.139914,-1.02022 0.337608,-0.17248 0.698953,-0.35346 0.802988,-0.40217 0.16565,-0.0776 0.445845,-0.58386 0.445845,-0.80562 0,-0.0433 -0.123825,-0.0285 -0.275166,0.0328 -0.151342,0.0613 -0.578117,0.13573 -0.94839,0.16538 -0.825458,0.0661 -1.872234,0.35048 -2.181518,0.59268 -0.126541,0.0991 -0.381485,0.29447 -0.566541,0.43417 -0.387709,0.29268 -0.397273,0.3096 -0.477581,0.84514 l -0.06015,0.40113 0.370842,-0.0592 c 0.203963,-0.0326 0.541355,-0.11541 0.749761,-0.18411 z m 11.516748,-0.49098 c 0,-0.0482 -0.480576,-0.26701 -0.762,-0.34702 -0.253968,-0.0722 -0.497182,-0.23916 -1.423933,-0.97753 -0.84543,-0.67357 -1.252345,-0.80971 -2.626613,-0.87878 -0.760415,-0.0382 -0.949811,-0.0258 -0.910222,0.0596 0.0275,0.0593 0.07351,0.17448 0.102255,0.25597 0.02874,0.0815 0.08776,0.14817 0.131144,0.14817 0.08604,0 0.449024,0.17615 1.171369,0.56846 0.256116,0.1391 0.694266,0.31993 0.973666,0.40184 0.2794,0.0819 0.67945,0.20172 0.889,0.26623 0.20955,0.0645 0.66675,0.15384 1.016,0.19851 0.34925,0.0447 0.7874,0.13742 0.973667,0.20612 0.370389,0.13661 0.465667,0.15676 0.465667,0.0985 z"
       id="path826"
       inkscape:connector-curvature="0"
       sodipodi:nodetypes="ccccccccsccccccccccscccscccccccccscscscsccccccscscscccscscccccccccccsccsccccscccccccscsccccscszzscccscsccccsccccccccccccccccccccccscccccccsccscccccccccccccccscccsccccccccccccccssccccccccsccssccccsccscscccccscccccsscccsccccccccccccccccccccccccccscccccccccccccsssccszzcccccccccscccccscccscccccccccccccccccccscccccsccccccccscccccsccccccsssscccccccscccccccccccsccccccscccscccscsccccccccscccccccccccccccccccccccccsscccccscccccccccccccccccccsccsccscscccccccccssccccccccccccsccccccccccccccsscsccccccccccccccccccscccccccsscccccccccscccccccccscccccccccccccccccccccccccccccsccccccscscscccccccscccccscccccss" />
  </g>
</svg>
