<svg xmlns="http://www.w3.org/2000/svg" viewBox="0 0 1529.996 1687.785" xml:space="preserve"><path d="M1290.526 1280.436c7.603 0 13.934 5.245 15.867 12.455h38.047l1.081 1.137 37.534 37.47c-1.267-19.649-8.297-40.854-15.778-62.38H1263.85l-19.222 19.222a17.467 17.467 0 0 1 3.412 10.351c0 9.433-7.469 17.062-16.607 17.062-9.138 0-16.607-7.629-16.607-17.062 0-8.843 6.614-16.243 14.958-17.119.556-.06 1.078 0 1.649 0 2.865 0 5.558.953 7.905 2.275l20.646-20.702.967-.967h103.908a2277.33 2277.33 0 0 1-1.737-5.004h-135.729l.003-.005-38.218 38.218v75.072l-.569.796-8.133 14.275v56.711l7.903-.069v-59.825l1.137-1.024 10.237-10.351v-35.885l1.706-.967 16.834-9.725.796-.512h109.479l1.024 1.081 15.071 15.185c2.214-1.136 4.693-1.877 7.337-1.877 9.138 0 16.493 7.629 16.493 17.062 0 9.433-7.355 17.005-16.493 17.005-9.138 0-16.607-7.572-16.607-17.005 0-4.142 1.552-7.907 3.924-10.863l-13.649-13.649h-104.646l-14.332 8.303v34.806l-.967.967-10.351 10.351v56.865c6.638-.057 13.277-.112 19.91-.159l-10.354-10.354-1.081-1.137v-38.502l1.081-.967 22.294-22.294c-3.877-3.124-6.427-7.889-6.427-13.365 0-9.433 7.412-17.062 16.55-17.062s16.493 7.629 16.493 17.062-7.355 17.005-16.493 17.005c-1.228 0-2.375-.134-3.526-.398l-23.032 22.92v32.702l13.991 13.877h20.988l.349.349c1.186-.004 2.371-.004 3.556-.008l-9.307-9.327c-.978.186-1.984.284-3.014.284-9.138 0-16.55-7.629-16.55-17.062 0-8.842 6.443-16.187 14.787-17.062.556-.06 1.192 0 1.763 0 9.138 0 16.493 7.63 16.493 17.062 0 5.643-2.573 10.655-6.654 13.763l12.29 12.319c3.695-.007 7.393-.025 11.086-.025a231.52 231.52 0 0 0 5.802-1.258l-14.79-14.79-.91-.967v-1.251l-1.024-42.825v-1.763l1.422-1.137 18.598-14.161c-1.328-2.458-2.161-5.229-2.161-8.247 0-9.432 7.355-17.062 16.493-17.062 9.138 0 16.664 7.629 16.664 17.062 0 9.433-7.526 17.005-16.664 17.005-3.726 0-7.134-1.326-9.896-3.469l-17.517 13.479 1.024 39.583 16.603 16.603c13.119-3.525 24.885-8.089 35.499-13.754l-5.578-5.579h-3.81c-1.561 7.781-8.327 13.536-16.323 13.536-9.138 0-16.493-7.629-16.493-17.062.001-8.843 6.5-16.187 14.844-17.062.556-.06 1.078 0 1.649 0 7.996 0 14.762 5.811 16.323 13.592h6.768l.91.967 8.03 8.03a134.632 134.632 0 0 0 9.403-6.211c.327-8.533 6.687-15.527 14.813-16.379.556-.06 1.192 0 1.763 0 .674 0 1.333.049 1.983.13 7.609-7.997 14.415-17.042 20.567-27.211 5.565-9.321 8.124-19.408 8.612-30.045l-41.626-41.663h-34.693c-1.122 8.302-7.969 14.73-16.323 14.73-9.138 0-16.493-7.629-16.493-17.062-.002-9.428 7.354-17.058 16.492-17.058z"/><path d="M1353.569 1212.984h-153.087l-1.081-1.08-16.152-16.152c-3.012 3.288-7.437 5.403-12.171 5.403-9.138 0-16.493-7.629-16.493-17.062 0-8.843 6.557-16.244 14.901-17.119.556-.06 1.021 0 1.592 0 9.139 0 16.607 7.686 16.607 17.119 0 1.867-.318 3.608-.853 5.289l16.436 16.664h151.843c1.04-3.509 2.443-6.938 4.133-10.293h-149.313l-1.081-.967-9.1-9.043-.967-1.08v-19.224l-11.943-6.938h-29.518l-11.659 11.545v39.696l-1.024 1.081-45.442 45.327v177.614l9.145 9.145c4.313-.035 8.626-.069 12.938-.107l-15.542-15.521-.967-1.137V1288.34l.967-1.024 26.504-26.502c-2.283-2.928-3.64-6.524-3.64-10.578 0-9.433 7.355-17.062 16.493-17.062 9.138 0 16.607 7.629 16.607 17.062 0 9.432-7.469 17.062-16.607 17.062-2.728 0-5.183-.784-7.45-1.991l-25.934 25.763v132.287l19.383 19.356c5.432-.051 10.863-.102 16.293-.155l-23.05-23.068-.967-.967v-113.86l.967-1.081 82.635-82.694 1.137-.91h145.008a44.381 44.381 0 0 1 .452-6.994z"/><path d="M1153.419 1337.479v-36.853l1.081-.967 63.355-63.299.91-.967h137.211a298.8 298.8 0 0 1-.824-2.767 45.81 45.81 0 0 1-1.388-5.707h-142.976l.009.003-80.476 80.532v108.229l26.782 26.782 16.44-.156v-58.704l.398-.739 8.303-14.389v-75.754l1.024-1.081 40.381-40.493 1.137-.91h135.966a598.075 598.075 0 0 1-2.609-7.906h-136.534l-61.251 61.251v33.781c7.537 1.612 13.194 8.694 13.194 16.948.001 9.433-7.412 17.062-16.55 17.062-9.138 0-16.493-7.629-16.493-17.062 0-8.164 5.494-15.125 12.91-16.834z"/><path d="m414.667 1620.883 1.081-1.024 14.389-14.446a18.843 18.843 0 0 1-2.218-8.815c0-10.269 8.329-18.598 18.598-18.598 10.269 0 18.654 8.329 18.654 18.598 0 10.27-8.385 18.598-18.654 18.598-4.551 0-8.711-1.608-11.943-4.322l-12.91 12.91v20.103h12.884l37.847-37.847v-44.588l.967-.967 16.493-16.379c-1.037-2.317-1.706-4.975-1.706-7.678 0-10.27 8.385-18.541 18.654-18.541 10.27 0 18.598 8.272 18.598 18.541 0 10.27-8.329 18.598-18.598 18.598-5.024 0-9.62-1.936-12.967-5.175l-14.503 14.446v44.701l-1.024.967-33.822 33.923h19.565l32.058-31.932c-4.836-3.358-7.962-9.023-7.962-15.356 0-10.269 8.385-18.598 18.654-18.598 10.27 0 18.598 8.329 18.598 18.598 0 10.27-8.329 18.598-18.598 18.598-1.283 0-2.486-.093-3.697-.341h-.172l-28.919 29.031h18.951c3.419-3.779 8.352-6.17 13.837-6.17 5.486 0 10.402 2.391 13.806 6.17h18.727v-218.65l2.559-2.502 36.115-36.115 2.502-2.502h95.431l2.616 2.502 11.829 11.659h303.418l37.819-37.651c-.393-1.504-.682-3.093-.682-4.72 0-10.269 8.385-18.598 18.654-18.598 10.27 0 18.541 8.329 18.541 18.598 0 10.269-8.272 18.654-18.541 18.654-2.167 0-4.322-.455-6.256-1.137l-39.696 39.867-2.559 2.446H683.001l-2.446-2.446-11.716-11.773h-81.158l-30.883 30.882v211.485h7.848v-200.843l1.081-.967 28.209-28.265 1.024-.967h75.923l1.137.967 26.274 26.332.967 1.024v14.73c8.062 1.609 14.161 8.771 14.161 17.289 0 9.692-7.939 17.517-17.63 17.517-9.692 0-17.517-7.825-17.517-17.517 0-8.516 6.009-15.678 14.047-17.289v-11.886l-24.286-24.227h-70.239l-26.217 26.161v197.941h13.308v-196.529l2.502-2.559 9.441-9.27 2.502-2.616h57.156a8.697 8.697 0 0 1 3.014.512h.172c9.588.12 17.346 7.9 17.346 17.517 0 9.692-7.824 17.517-17.517 17.517-9.692 0-17.517-7.824-17.517-17.517 0-.219.056-.406.056-.625h-35.432l-4.322 4.379v189.192h13.423c2.864-3.584 7.083-6.036 11.886-6.524.59-.06 1.157 0 1.763 0 5.522 0 10.469 2.546 13.709 6.524h10.86v-15.113l-17.176-17.176c-2.374 1.196-5.022 1.934-7.848 1.934-9.692 0-17.46-7.882-17.46-17.574 0-9.692 7.768-17.46 17.46-17.46s17.573 7.768 17.573 17.46c0 4.35-1.687 8.179-4.322 11.261l17.631 17.688 1.081.967v18.013h11.752c3.229-4.203 8.308-6.923 14.01-6.923s10.722 2.72 13.902 6.923h13.964v-21.369l-15.356-15.413c-3.202 3.586-7.731 6.028-12.91 6.028-9.692 0-17.63-7.938-17.63-17.63 0-9.691 7.938-17.517 17.63-17.517s17.46 7.825 17.46 17.517c0 1.902-.41 3.797-.967 5.517l17.63 17.517 1.081 1.081v24.269h16.988c3.178-3.281 7.61-5.332 12.529-5.332s9.365 2.051 12.558 5.332h9.495l-76.934-76.99h-40.948l-1.137-1.024-15.299-15.413a17.297 17.297 0 0 1-10.123 3.242c-9.692 0-17.63-7.768-17.63-17.46s7.938-17.63 17.63-17.63 17.517 7.939 17.517 17.63c0 3.403-1.004 6.53-2.673 9.213l14.616 14.446h40.948l.91 1.081 80.931 80.703.967 1.137v1.064h8.303v-6.866l-84.854-84.798h-13.764c-1.806.63-3.664 1.137-5.687 1.137-9.692 0-17.517-7.825-17.517-17.517 0-9.086 6.905-16.618 15.754-17.517.59-.06 1.157 0 1.763 0 9.692 0 17.517 7.825 17.517 17.517 0 3.492-1.035 6.657-2.787 9.384h7.507l1.137 1.024 86.901 86.958 1.024 1.024v9.654h7.621v-14.659l-90.03-90.143-1.081-1.024v-14.218l-14.446-14.446h-51.185l-.967-.967-13.194-13.194c-2.013.813-4.236 1.308-6.54 1.308-9.692 0-17.517-7.938-17.517-17.63s7.824-17.517 17.517-17.517 17.517 7.825 17.517 17.517c0 4.846-1.953 9.262-5.119 12.455l11.147 10.976h51.241l1.024 1.137 16.493 16.379 1.024 1.137v14.161l90.03 90.143 1.081 1.024v17.559h6.938v-19.265l-69.042-69.044-.626-.739-.228-.91-.682-2.559c-8.138-1.511-14.161-8.589-14.161-17.176 0-9.692 7.768-17.687 17.46-17.687s17.63 7.995 17.63 17.687c0 8.396-5.929 15.343-13.82 17.062l69.44 69.328.967 1.137v22.166h6.711v-22.279l-53.859-53.972-1.081-.967v-61.195l-17.346-17.289c-2.971 2.346-6.616 3.81-10.692 3.81-9.692 0-17.517-7.881-17.517-17.574 0-9.692 7.824-17.517 17.517-17.517 9.692 0 17.517 7.825 17.517 17.517 0 3.065-.956 5.787-2.332 8.303l18.826 18.825.967 1.081v61.137l53.915 53.915.967 1.081v25.123h17.48a17.482 17.482 0 0 1 12.151-4.876c4.728 0 9.002 1.858 12.15 4.876h14.466v-2.601l-14.275-14.275h-17.119l-.967-1.024-56.929-56.816-.967-.967V1550.4c-7.38-1.708-12.796-8.288-12.796-16.209-.001-9.23 7.433-16.777 16.664-16.777 9.23 0 16.664 7.547 16.664 16.777 0 8.15-5.866 14.803-13.593 16.266v14.958l54.881 54.654h17.062l1.024.967 16.266 16.322 1.081 1.024v5.503h7.507v-8.687l-69.329-69.328-.967-1.024v-54.086l-22.067-22.067c-3.005 1.791-6.442 2.844-10.18 2.844-11.077 0-20.019-9.113-20.019-20.19 0-11.077 8.942-19.963 20.019-19.963 11.076 0 20.132 8.886 20.132 19.963 0 4.814-1.766 9.326-4.607 12.796v.171l22.636 22.465 1.024 1.081v54.143l69.329 69.157.967 1.081v11.645h8.702v-28.309c-8.204-2.523-14.161-10.129-14.161-19.166 0-11.077 8.999-20.019 20.075-20.019s20.075 8.942 20.075 20.019c-.002 10.712-8.422 19.393-18.996 19.963v27.511h17.585c1.778-.489 3.561-.968 5.335-1.463v-59.319l-16.436-16.436h-32.417l-1.024-1.08-38.047-38.047-1.137-1.08v-34.067c-9.35-1.686-16.379-9.829-16.379-19.677 0-11.077 8.887-20.076 19.963-20.076 11.077 0 20.075 8.998 20.075 20.076 0 9.922-7.246 18.077-16.72 19.677v31.223l36.284 36.115h32.191l1.024.967 18.598 18.654 1.024.91v60.172a955.404 955.404 0 0 0 16.269-4.825 1730.301 1730.301 0 0 1 3.424-21.721l-8.032-8.032-.967-.967v-23.772l-32.132-32.191a19.839 19.839 0 0 1-10.806 3.185c-11.078.002-20.134-9.055-20.134-20.132 0-11.077 9.056-20.019 20.134-20.019s19.963 8.942 19.963 20.019c0 4.578-1.466 8.84-4.038 12.228l32.986 33.043 1.081.967v23.715l3.377 3.385a1312.404 1312.404 0 0 1 4.185-23.371v-28.013c-9.109-1.201-16.152-8.875-16.152-18.312 0-10.269 8.271-18.654 18.54-18.654 4.28 0 8.211 1.471 11.354 3.913.914-3.347 1.841-6.61 2.781-9.787l-4.921-4.874h-42.2l-1.024-.967-14.047-14.161a19.911 19.911 0 0 1-11.09 3.355c-11.078 0-19.963-8.942-19.963-20.019 0-11.077 8.886-20.076 19.963-20.076 11.078 0 20.134 8.999 20.134 20.076 0 4.484-1.54 8.591-4.038 11.943l13.024 12.91h42.142l1.024.967 3.308 3.308c8.688-27.412 18.479-47.586 29.677-58.532H1019l-15.128 15.071c2.741 3.24 4.436 7.367 4.436 11.943 0 10.269-8.385 18.654-18.654 18.654-10.268 0-18.483-8.385-18.483-18.654 0-10.27 8.214-18.541 18.483-18.541 3.124 0 6.173.8 8.758 2.161l16.664-16.55 1.081-1.081h44.474l1.024 1.081 4.071 4.073c4.785-.019 9.569-.051 14.354-.078l-1.477-1.491-1.024-.91-.113-1.422-2.787-188.362-.115-1.536 1.081-1.137 46.635-46.521v-42.142l1.081-.967 22.067-22.238.967-.967h60.456l1.024.967 17.858 17.801c2.093-.99 4.37-1.479 6.825-1.479 9.138 0 16.607 7.629 16.607 17.062 0 9.432-7.469 17.062-16.607 17.062-9.138 0-16.55-7.629-16.55-17.062 0-4.313 1.6-8.143 4.152-11.147l-16.209-16.209h-54.654l-20.075 20.076v42.088l-1.024.967-46.58 46.692 2.787 185.523 5.25 5.297c3.029-.02 6.059-.036 9.088-.059l-5.405-5.409-1.081-.91v-183.467l1.081-.967 45.383-45.498v-39.527l1.024-1.024 13.536-13.593 1.081-1.081h34.238l.91.512 14.446 8.247 1.763.967v20.474l6.938 7.109h150.506c8.268-13.187 20.144-25.203 29.803-36.355 7.472-9.052 2.895-18.414-4.358-27.228H1310.3l-.967-1.024-18.938-18.938h-52.151l-1.024-1.137-40.606-40.606-1.137-.967v-24.229l-27.641-27.697-1.081-1.024V884.555c-6.395-2.358-10.976-8.678-10.976-16.095 0-9.433 7.355-17.062 16.493-17.062 9.138 0 16.55 7.629 16.55 17.062 0 8.953-6.58 16.225-15.071 16.948v121.367l27.698 27.641.967 1.08v24.17l38.729 38.673h52.095l1.137.967 18.767 18.882h69.144c-3.192-3.365-6.402-6.606-9.044-9.668h-54.126l-1.479-1.479-20.646-20.474h-39.47l-1.479-1.479-18.085-18.085c-2.583 1.726-5.564 2.787-8.872 2.787-9.138 0-16.55-7.629-16.55-17.062 0-9.432 7.412-17.062 16.55-17.062 9.138 0 16.493 7.63 16.493 17.062 0 2.113-.403 4.162-1.081 6.029l17.346 17.403h39.525l1.536 1.479 20.474 20.531h43.819c-.332-2.377.459-4.542 2.875-6.446 4.163-3.359 8.433-6.393 12.51-9.422h-49.307l-1.536-1.479-23.603-23.659c-2.527 6.081-8.422 10.408-15.242 10.408-9.138 0-16.607-7.629-16.607-17.062 0-9.432 7.469-17.232 16.607-17.232 6.602 0 12.307 4.094 14.957 9.896l.569-.512 29.175 29.232h57.321c3.958-4.113 7.142-8.744 9.035-14.445h-37.009c-2.588 5.937-8.24 10.123-14.958 10.123-9.138 0-16.607-7.629-16.607-17.062 0-9.432 7.469-17.232 16.607-17.232 7.995 0 14.669 5.961 16.209 13.763h37.388c-.266-6.151-2.766-11.572-6.164-16.778h-15.583v-1.535l-5.118-2.901h-162.257l-1.536-1.422-17.687-17.232-1.649-1.592v-223.58l-18.483-18.541c-.824.142-1.639.227-2.502.227-8.422 0-15.242-6.875-15.242-15.299 0-8.423 6.818-15.242 15.242-15.242 8.423 0 15.185 6.819 15.185 15.242 0 3.628-1.36 6.92-3.469 9.555l18.199 18.142 1.479 1.536v223.578l14.616 14.161h160.949l1.137.796 6.597 3.64h2.388c-3.04-3.921-6.065-7.923-8.497-12.228h-12.09l-1.479-1.706-5.175-5.005c-2.968 4.542-7.939 7.564-13.649 7.564-9.138 0-16.55-7.629-16.55-17.062 0-9.432 7.412-17.175 16.55-17.175 8.281 0 15.056 6.304 16.266 14.502l8.36 8.417h3.515a32.466 32.466 0 0 1-.898-6.951c-1.191-6.15-4.039-13.17-6.406-20.178l-7.583-7.563h-23.659l-36.682 36.853-1.137-1.137c-2.79 5.346-8.147 9.043-14.446 9.043-9.138 0-16.55-7.63-16.55-17.062 0-9.432 7.412-17.005 16.55-17.005 7.209 0 13.321 4.734 15.583 11.375l30.995-30.995 1.479-1.479h31.781c.085-3.271.825-6.324 2.495-9.042h-40.76l-20.985 21.1-1.137.967h-46.237l-17.119 17.119c.895 2.102 1.365 4.323 1.365 6.768 0 9.433-7.355 17.119-16.493 17.119-9.139 0-16.55-7.686-16.55-17.119s7.412-17.062 16.55-17.062c4.27 0 8.159 1.696 11.09 4.436l17.119-17.176.967-1.08h46.521l21.101-21.1.967-.967h50.34c6.424-4.808 14.072-6.767 22.233-8.069.947-8.495 7.887-15.079 16.374-15.079 3.257 0 6.258 1.054 8.815 2.73l63.655-63.695c-.833-3.139-1.918-6.422-3.235-9.837l-41.934 41.968-1.536 1.536h-25.307l-34.578 34.522-1.536 1.592h-70.977c.228 1.144.228 2.367.228 3.583 0 9.432-7.355 17.062-16.493 17.062-9.138 0-16.607-7.629-16.607-17.062 0-8.843 6.557-16.244 14.901-17.119.556-.06 1.136 0 1.706 0 3.481 0 6.723 1.177 9.384 3.071h73.479l34.635-34.579 1.536-1.592h25.307l43.344-43.239a208.133 208.133 0 0 0-5.049-9.865l-38.977 38.943-1.024.967h-29.574l-39.755 39.696-.967 1.081h-38.219l-1.024-1.081-13.934-13.934h-65.231l-1.024-.967-8.588-8.474c-2.99 3.089-7.147 5.005-11.716 5.005-9.139 0-16.55-7.686-16.55-17.119 0-9.432 7.412-17.062 16.55-17.062 9.138 0 16.493 7.629 16.493 17.062 0 2.075-.426 4.076-1.081 5.915l8.701 8.645h65.346l.967 1.137 14.047 13.934h32.304l39.696-39.696 1.081-1.081h29.688l39.254-39.254a337.621 337.621 0 0 0-5.484-9.12l-41.22 41.322-1.137.91h-52.379l-8.872 8.815c4.199 3.195 6.938 8.238 6.938 13.934 0 9.687-7.774 17.574-17.46 17.574s-17.517-7.887-17.517-17.574c0-9.686 7.831-17.517 17.517-17.517 1.364 0 2.708.162 3.981.455l11.488-11.488 1.024-1.137h52.494l41.313-41.313a497.13 497.13 0 0 0-6.193-9.334l-40.523 40.523-1.592 1.536h-64.72l-33.556 33.612-1.592 1.649H1275.9l-1.479-1.649-43.507-43.394c-6.777-1.541-11.83-7.535-11.83-14.787 0-8.423 6.819-15.242 15.242-15.242s15.299 6.819 15.299 15.242c0 5.1-2.501 9.58-6.37 12.341l37.081 37.025h29.857l33.613-33.725 1.536-1.536h64.666l40.396-40.396a767.484 767.484 0 0 0-7.234-10.087l-36.178 36.209-1.024 1.081h-66.54l-32.248 32.133-1.024.967h-30.995l-.91-.967-16.379-16.152-.967-1.137v-60.227l-8.758-8.815c-2.471 5.146-7.735 8.701-13.82 8.701-8.422 0-15.242-6.762-15.242-15.185 0-8.422 6.819-15.299 15.242-15.299 7.745 0 14.081 5.833 15.071 13.308l13.422 13.365 1.024 1.137v60.172l14.161 14.161h25.366l32.02-32.191 1.137-1.024h66.54l35.935-35.905a1049.56 1049.56 0 0 0-5.258-7.027l-29.825 29.851-1.934 1.934h-80.759l-10.464 10.408c.912 1.955 1.536 4.124 1.536 6.427 0 8.424-6.875 15.242-15.299 15.242-8.423 0-15.128-6.818-15.128-15.242 0-8.423 6.706-15.185 15.128-15.185.867 0 1.733.148 2.559.284l13.877-13.763 1.991-2.047h80.815l29.013-29.037a1599.353 1599.353 0 0 0-5.618-7.234l-25.158 25.181-2.104 2.047h-93.954a6.962 6.962 0 0 1-5.517-2.73c-6.394-1.83-11.033-7.75-11.033-14.73 0-8.423 6.706-15.185 15.128-15.185 8.423 0 15.299 6.762 15.299 15.185 0 1.207-.134 2.397-.398 3.526h74.788l24.275-24.319c-2.116-2.67-4.249-5.35-6.397-8.039l-22.766 22.747-.967 1.023h-55.28l-.967-1.023-40.038-39.982h-81.27l-11.83 11.943-1.081 1.024h-39.696l-.967-1.024-11.659-11.602-1.081-1.137v-45.041l1.081-1.024 22.123-22.123c-2.881-2.768-4.72-6.655-4.72-10.977 0-8.423 6.875-15.185 15.299-15.185 8.422 0 15.128 6.762 15.128 15.185 0 8.423-6.705 15.242-15.128 15.242-1.479 0-2.972-.292-4.322-.682l-22.466 22.522v39.185l9.498 9.668h34.124l11.943-11.943 1.081-.967h86.787l.91.967 40.094 40.038h49.537l22.267-22.286c-1.896-2.363-3.8-4.73-5.713-7.102l-20.763 20.8-1.081.967h-39.752l-.967-.967-42.086-42.086h-106.123c-2.006 6.061-7.588 10.408-14.332 10.408-8.422 0-15.242-6.819-15.242-15.242 0-8.423 6.819-15.242 15.242-15.242 7.672 0 13.889 5.711 14.958 13.081h108.457l1.024.967 41.971 42.086h34.068l20.24-20.203c-1.276-1.579-2.556-3.159-3.836-4.74l-18.907 18.858-.967 1.081h-26.844l-.91-1.081-18.541-18.483-1.081-.967v-29.459l-12.057-12.057h-44.532l-.91-1.024-20.587-20.531c-2.555 1.94-5.637 3.185-9.1 3.185-8.423 0-15.242-6.819-15.242-15.242 0-8.423 6.818-15.299 15.242-15.299 8.422 0 15.185 6.876 15.185 15.299 0 2.392-.671 4.585-1.649 6.597l20.019 20.019h44.417l1.081.967 14.104 14.218 1.024 1.023v29.403l16.493 16.493h20.985l18.401-18.401c-4.302-5.304-8.616-10.614-12.917-15.917l-.363.364c.541 1.565.853 3.253.853 5.005 0 8.422-6.761 15.242-15.185 15.242-8.423 0-15.356-6.819-15.356-15.242 0-8.423 6.933-15.242 15.356-15.242 3.517 0 6.726 1.209 9.294 3.208a4983.11 4983.11 0 0 1-10.714-13.275h-12.23l-1.081-.967-30.029-30.029h-3.128c-1.417 6.945-7.473 12.171-14.844 12.171-8.423 0-15.242-6.818-15.242-15.242 0-8.423 6.818-15.185 15.242-15.185 7.062 0 12.887 4.751 14.616 11.261h6.313l1.081 1.137 29.857 29.858h3.836c-16.224-20.294-31.641-40.127-44.833-58.693h-125.188l-2.616-2.616-59.774-59.715h-20.929l-54.769 54.882v67.45h23.091v66.939h-23.091v78.768h.626a15.132 15.132 0 0 1 11.431-5.175 15.138 15.138 0 0 1 15.185 15.185c0 8.424-6.762 15.242-15.185 15.242-5.729 0-10.709-3.185-13.308-7.848h-16.209V719.4h-46.75v111.87l27.243 27.242h113.063l16.948 16.891v124.665h-16.664v23.204l30.143 20.702c2.956-2.864 6.939-4.72 11.318-4.72 9.138 0 16.55 7.629 16.55 17.062 0 9.432-7.412 17.119-16.55 17.119s-16.493-7.686-16.493-17.119c0-2.358.473-4.555 1.308-6.597l-31.621-21.726-1.536-1.137v-26.787h-17.517v-59.091l-26.56-7.052-25.99 25.99v150.712l-36.399 36.455v32.36h-22.636v-42.2l22.636-22.693h-20.985v-61.594l-16.379-4.436-33.328 33.556v75.982l-15.071 15.014h-478.13v-118.351l-25.99-25.99H238.203V901.39h6.54v-22.92c-1.431-2.792-2.218-5.917-2.218-9.27 0-11.293 9.125-20.474 20.418-20.474 11.294 0 20.474 9.181 20.474 20.474 0 .782-.031 1.516-.113 2.275h1.592v29.916h10.465l1.877 86.446 46.237-46.124v-215.77l37.592-37.536v-22.238H312.25v-22.067h-45.554v-.171c-1.231.318-2.422.398-3.754.398-8.423 0-15.299-6.819-15.299-15.242 0-8.423 6.875-15.185 15.299-15.185 2.365 0 4.544.519 6.54 1.479h33.497l14.503-14.446H586.43l2.673-10.237-19.508-11.318c-.619.078-1.123.228-1.763.228-8.423 0-15.412-6.875-15.412-15.299 0-8.423 6.989-15.242 15.412-15.242.714 0 1.359.135 2.047.227h26.957l24.625 24.625v25.99h12.967v69.499h-67.166l4.891 8.531h77.403v-87.924l21.328 21.441h169.88l28.891-16.72h-83.149V579.21h-41.575v-29.29h31.905l17.517-17.517h1.024v-34.067l3.128-3.071 34.179-34.295v-27.015l-38.105-38.162-3.014-3.014V47.719a790.18 790.18 0 0 0-24.114-1.982v145.942l14.446 25.195.967 1.592v139.281l-2.047 2.047-19.736 19.621c.944 1.985 1.592 4.153 1.592 6.484 0 8.423-6.932 15.299-15.356 15.299s-15.242-6.875-15.242-15.299c0-8.423 6.818-15.299 15.242-15.299.941 0 1.834.174 2.73.341l18.938-19.053v-129.67l-14.446-25.137-1.024-1.592V44.917a827.134 827.134 0 0 0-15.64-.619v178.499l9.555 16.493.455.91v10.977c8.164.297 14.787 6.895 14.787 15.128 0 8.423-6.932 15.242-15.356 15.242-8.422 0-15.242-6.819-15.242-15.242 0-6.139 3.651-11.409 8.872-13.82V241.85l-9.611-16.493-.398-.796V44.116c-4.056-.091-8.129-.16-12.228-.194v233.882l33.042 33.101c.54.519.898 1.196 1.024 1.934 6.42 1.806 11.261 7.637 11.261 14.616 0 8.423-6.989 15.185-15.412 15.185a15.138 15.138 0 0 1-15.185-15.185c0-6.79 4.395-12.534 10.521-14.503l-31.222-31.166-.967-1.081V43.898c-4.75-.001-9.526.032-14.332.108V226.18l-1.024.967-9.441 9.555 3.583 13.479c5.517 2.285 9.327 7.695 9.327 14.048 0 8.423-6.761 15.128-15.185 15.128-8.422 0-15.242-6.705-15.242-15.128 0-7.857 5.903-14.241 13.536-15.071l-3.299-12.626-.569-1.934 1.422-1.365 9.953-9.953V44.14c-4.411.104-8.851.249-13.308.42v184.41l-1.706 1.08-19.564 11.261v30.826l16.379 16.379h31.963l.967 1.137 14.787 14.73 1.081.967v50.901l-1.081 1.081-21.044 21.1c.591 1.626.91 3.455.91 5.289 0 8.423-6.761 15.242-15.185 15.242-8.422 0-15.242-6.819-15.242-15.242 0-8.423 6.819-15.242 15.242-15.242 4.017 0 7.52 1.62 10.237 4.152l19.222-19.166v-45.214l-12.853-12.796h-31.85l-.967-.91-18.598-18.655-.967-.967v-37.594l1.706-1.137 19.564-11.261V44.846c-6.751.309-13.559.698-20.415 1.16v165.686l-.967 1.081L636.47 225v53.631l37.421 37.536c2.778-3.659 7.154-6.142 12.114-6.142a15.138 15.138 0 0 1 15.185 15.185c0 8.423-6.762 15.242-15.185 15.242-8.422 0-15.242-6.819-15.242-15.242 0-.789.055-1.519.172-2.275l-40.437-40.437-.967-.967V222.1l.967-.91 12.341-12.341V46.491c-2.89.215-5.793.449-8.702.691v142.389l-1.024.967-9.668 9.611v83.09l30.939 30.939.967 1.024v102.542l21.726 12.512c2.242-1.299 4.838-1.991 7.621-1.991a15.14 15.14 0 0 1 15.185 15.185c0 8.423-6.762 15.242-15.185 15.242s-15.242-6.819-15.242-15.242c0-3.016.939-5.828 2.446-8.19l-21.783-12.512-1.763-.967v-103.85L617.53 287.22l-1.024-1.081v-88.891l1.024-1.024 9.611-9.555V47.797c-4.599.416-9.212.855-13.856 1.34-2.092.219-4.167.458-6.25.689.183 24.831.4 55.4.541 86.228.169 35.74.236 71.738.113 99.47-.06 13.866-.108 25.702-.284 34.351-.088 4.325-.271 7.817-.398 10.465-.124 2.648-.067 4.032-.512 5.687-.135.503.314 2.643 2.559 5.403 2.246 2.76 5.746 5.866 9.327 8.702 7.163 5.67 14.787 10.18 14.787 10.18a3.49 3.49 0 0 1 1.365 1.763c4.194 2.714 6.938 7.389 6.938 12.739 0 8.424-6.875 15.242-15.299 15.242-8.423 0-15.242-6.819-15.242-15.242 0-6.553 4.158-12.067 9.953-14.218-2.139-1.503-4.498-3.163-6.825-5.005-3.804-3.011-7.545-6.392-10.351-9.839-2.805-3.446-5.148-7.246-3.981-11.602-.123.441.163-1.615.284-4.152.123-2.535.311-6.004.398-10.294.175-8.577.224-20.335.284-34.18.124-27.692.049-63.685-.113-99.413-.142-31.108-.352-61.03-.536-85.489a945.42 945.42 0 0 0-16.696 2.129v113.331l11.829 20.702.512.796v147.641l33.556 33.385c6.343 1.864 10.92 7.73 10.92 14.673 0 8.423-6.762 15.299-15.185 15.299-8.422 0-15.356-6.876-15.356-15.299 0-6.553 4.186-12.152 10.01-14.332l-29.857-29.914-1.024-1.024V189.573l-11.943-20.702-.398-.739V53.726a911.1 911.1 0 0 0-21.384 3.34v128.469c2.142-1.148 4.617-1.934 7.223-1.934 8.423 0 15.185 6.876 15.185 15.299s-6.762 15.242-15.185 15.242c-8.422 0-15.242-6.819-15.242-15.242 0-2.07.45-4.061 1.194-5.858a3.501 3.501 0 0 1-.113-1.024V58.248c-20.985 3.706-41.381 8.091-61.18 13.123l9.425 9.404 2.047 2.047v88.437l84 83.944 1.991 2.047v85.991l11.431 19.735 1.024 1.649v43.793l21.101 21.213c2.126-1.107 4.497-1.877 7.052-1.877 8.422 0 15.242 6.819 15.242 15.242 0 8.423-6.818 15.355-15.242 15.355-8.422 0-15.356-6.932-15.356-15.355 0-.64.149-1.201.228-1.82l-24.968-24.911-1.99-2.047V368.38l-11.488-19.848-.967-1.706v-83.773l-83.888-83.944-2.104-2.047V88.569l-13.068-13.068a774.81 774.81 0 0 0-19.923 5.782l18.263 18.262 2.047 2.047v84.23l83.716 83.773 2.047 2.047v85.365l13.365 13.365c.436.404.818.863 1.137 1.365 4.236 2.733 7.052 7.503 7.052 12.91a15.138 15.138 0 0 1-15.185 15.185c-8.422 0-15.299-6.762-15.299-15.185 0-4.601 2.131-8.726 5.346-11.545l-8.36-8.36-1.99-1.991v-85.309L459.88 193.67l-2.047-2.047v-84.286l-21.308-21.338a729.734 729.734 0 0 0-26.613 9.287l41.208 41.171.967 1.024v58.01l38.047 38.104 1.024 1.024v16.265a15.19 15.19 0 0 1 4.664-.739c8.423 0 15.185 6.705 15.185 15.128 0 8.424-6.762 15.299-15.185 15.299-8.422 0-15.242-6.875-15.242-15.299 0-3.712 1.384-6.915 3.583-9.555v-18.086l-38.047-38.047-1.024-1.137V140.38L402.72 98.008a683.676 683.676 0 0 0-8.175 3.199l43.494 43.494 1.137.967v53.005l35.66 35.772 1.024.967v46.181l15.299 8.759h24.968l.967.91 19.449 19.621 1.137 1.024v147.13l13.706 13.536h223.159l19.508-19.564c-1.555-2.388-2.502-5.12-2.502-8.19 0-8.423 6.819-15.299 15.242-15.299 8.423 0 15.242 6.876 15.242 15.299 0 8.423-6.819 15.128-15.242 15.128-2.837 0-5.52-.815-7.792-2.161L778.299 478.6l-.967.967H548.478l-1.024-.967-15.811-15.81-.967-.967V314.805l-17.403-17.517H489.16l-.796-.455-17.744-10.18-1.706-1.08v-47.318l-35.772-35.772-.967-.967v-52.947l-44.583-44.545c-1.496.614-3 1.221-4.487 1.844l39.29 39.29.91.967v61.251l34.978 34.921 1.024 1.024v36.284l36.57 34.75c2.362-1.506 5.174-2.332 8.19-2.332 8.422 0 15.242 6.762 15.242 15.185 0 8.423-6.819 15.185-15.242 15.185-8.423 0-15.242-6.762-15.242-15.185 0-2.872.785-5.559 2.161-7.849l-37.536-35.887-1.081-.967v-36.34l-34.862-34.862-1.137-1.024v-61.31l-40.182-40.147a670.2 670.2 0 0 0-6.376 2.801l41.384 41.384.967 1.081v59.659l35.601 35.601.91 1.08v36.513l28.947 28.948 1.024.967v97.992l16.379 16.436c2.534-1.884 5.635-3.014 9.043-3.014 8.422 0 15.242 6.762 15.242 15.185 0 8.422-6.819 15.242-15.242 15.242-8.423 0-15.242-6.82-15.242-15.242 0-2.482.715-4.757 1.763-6.825l-17.858-17.801-1.081-1.081v-97.992l-28.835-28.891-1.081-1.081v-36.568L406.3 217.784l-1.137-1.081v-59.83l-42.175-42.175a656.476 656.476 0 0 0-13.417 6.318l38.984 38.985 1.081 1.024v65.119l37.025 36.91 1.024 1.137v58.238h2.104c1.905-6.277 7.605-10.863 14.503-10.863 8.422 0 15.299 6.762 15.299 15.185 0 8.423-6.876 15.242-15.299 15.242-7.519 0-13.689-5.471-14.957-12.626h-8.531v-62.274l-37.137-37.137-.967-.91v-65.062l-39.713-39.713c-1.985.992-3.96 1.993-5.927 3.002l41.489 41.489.967.967v79.394c.475-.044.934-.113 1.422-.113 8.423 0 15.299 6.819 15.299 15.242 0 8.423-6.875 15.356-15.299 15.356-8.422 0-15.185-6.932-15.185-15.356 0-5.319 2.705-9.961 6.825-12.683V172.63l-41.995-41.995a615.787 615.787 0 0 0-8.325 4.472l29.106 29.106.967.91v105.556l16.891 16.834h49.876v65.459l17.289 17.289c2.321-1.418 5.005-2.275 7.905-2.275 8.422 0 15.299 6.876 15.299 15.299 0 8.423-6.876 15.299-15.299 15.299-8.423 0-15.299-6.876-15.299-15.299 0-2.986.892-5.711 2.389-8.076l-18.199-18.314-1.024-1.137v-61.251H366.26l-1.081-1.137-18.71-18.654-1.137-1.137v-105.56l-29.396-29.424a618.25 618.25 0 0 0-6.134 3.507l27.339 27.339 1.081.91v105.668l44.93 44.816.91 1.024V428.04c7.37 1.068 13.081 7.286 13.081 14.958 0 8.423-6.819 15.355-15.242 15.355-8.423 0-15.185-6.932-15.185-15.355 0-6.744 4.347-12.268 10.408-14.275V324.76l-44.872-44.987-.967-.967V173.363l-27.666-27.638a601.754 601.754 0 0 0-9.622 5.821l24.947 24.947 1.081 1.137v106.693l26.445 26.445 1.081 1.137v149.177l22.011 12.739h43.223l20.361-20.247c-2.592-2.75-4.152-6.531-4.152-10.578 0-8.423 6.875-15.242 15.299-15.242 8.422-.001 15.299 6.819 15.299 15.242 0 8.422-6.876 15.355-15.299 15.355-1.834 0-3.484-.424-5.119-1.024l-22.407 22.465-1.024 1.024h-48.169l-.796-.512-24.456-14.104-1.706-.967V314.807l-26.502-26.56-1.024-1.024V180.416l-25.099-25.099c-.904.574-1.817 1.141-2.716 1.72l22.697 22.697 1.137.967v108.912l20.929 20.873a3.536 3.536 0 0 1 .227 4.721c3.69 2.776 6.029 7.242 6.029 12.228 0 8.422-6.705 15.185-15.128 15.185-8.422 0-15.299-6.762-15.299-15.185 0-8.424 6.875-15.242 15.299-15.242.264 0 .481.056.739.056l-18.826-18.882-.967-.967V183.602l-22.735-22.713a580.159 580.159 0 0 0-11.897 8.065l22.404 22.382 1.024 1.024v160.495l20.247 20.247c2.678-2.374 6.157-3.867 10.01-3.867 8.422 0 15.128 6.989 15.128 15.413 0 8.423-6.706 15.185-15.128 15.185s-15.299-6.762-15.299-15.185c0-1.987.449-3.938 1.137-5.687l-22.123-22.067-.91-1.137V195.319l-22.286-22.286a563.9 563.9 0 0 0-5.607 4.051l7.875 7.885 1.081 1.024v64.436c5.146 2.44 8.645 7.679 8.645 13.763 0 8.423-6.762 15.128-15.185 15.128-8.423 0-15.299-6.705-15.299-15.128 0-8.274 6.624-15.065 14.844-15.299v-60.001l-7.605-7.605a557.289 557.289 0 0 0-17.531 13.742v82.755l37.137 37.137c.419.447.713.996.853 1.592 1.745 2.478 2.787 5.434 2.787 8.701 0 8.423-6.762 15.242-15.185 15.242-8.423 0-15.299-6.819-15.299-15.242 0-7.37 5.262-13.483 12.228-14.901l-28.322-28.551-1.081-1.024v-79.996a539.85 539.85 0 0 0-22.864 20.427v28.063c6.227 1.909 10.749 7.584 10.749 14.446 0 8.424-6.819 15.356-15.242 15.356s-15.185-6.932-15.185-15.356c0-7.559 5.47-13.812 12.683-15.014v-20.761a524.242 524.242 0 0 0-24.114 25.311v28.322l7.962 8.076h39.072l.91 1.649 11.545 19.963.455.796v40.209l19.337 19.393c2.146-1.135 4.577-1.877 7.166-1.877 8.422 0 15.185 6.819 15.185 15.242 0 8.423-6.762 15.242-15.185 15.242-8.422 0-15.299-6.818-15.299-15.242 0-3.298.992-6.325 2.787-8.816l-19.848-19.963-1.137-1.023v-41.234l-10.01-17.403h-37.763l-1.081-1.024-10.066-10.067-.967-1.137v-23.149a523.804 523.804 0 0 0-5.119 6.077v38.968l15.697 15.754h8.133c1.335-7.05 7.4-12.398 14.844-12.398 8.422 0 15.242 6.819 15.242 15.242 0 8.423-6.819 15.242-15.242 15.242-5.639 0-10.506-3.076-13.138-7.621h-14.218l-1.536-1.536-18.71-18.767-1.479-1.535v-30.371a513.211 513.211 0 0 0-6.826 9.008v35.806l47.091 47.205c2.5-1.82 5.492-3.014 8.815-3.014 8.422 0 15.242 6.989 15.242 15.413 0 8.423-6.819 15.185-15.242 15.185s-15.185-6.762-15.185-15.185c0-1.253.286-2.414.569-3.583l-50.163-50.163-1.536-1.479v-25.61a507.017 507.017 0 0 0-17.687 27.597v20.136l18.085 18.256c1.169-.291 2.387-.569 3.64-.569 8.422 0 15.242 6.989 15.242 15.413 0 8.423-6.818 15.185-15.242 15.185-8.422 0-15.356-6.762-15.356-15.185 0-3.323 1.137-6.409 2.957-8.929l-18.314-18.312-1.536-1.535v-5.949a511.904 511.904 0 0 0-18.484 37.818l30.031 30.007h46.807a15.058 15.058 0 0 1 8.929-2.901c8.423 0 15.299 6.819 15.299 15.242 0 8.423-6.875 15.185-15.299 15.185a15.259 15.259 0 0 1-12.569-6.597h-51.868l-3.014-3.014-26.972-26.994c-8.171 21.072-15.028 42.811-20.537 65.154h50.981l.967.967 20.873 20.873c2.784-3.111 6.77-5.118 11.261-5.118 8.422 0 15.185 6.876 15.185 15.299 0 8.423-6.762 15.242-15.185 15.242-8.422 0-15.299-6.819-15.299-15.242 0-1.361.237-2.608.569-3.867L104.6 480.814H54.794c-4.27 18.345-7.633 37.089-10.089 56.191l23.263-23.263c-1.563-2.394-2.502-5.231-2.502-8.304 0-8.423 6.818-15.242 15.242-15.242 8.423 0 15.356 6.819 15.356 15.242 0 8.424-6.932 15.242-15.356 15.242-2.848 0-5.454-.859-7.735-2.218l-29.598 29.72a600.288 600.288 0 0 0-2.423 28.405l32.193-32.305 1.137-.967h25.819v67.565l-1.024.967-8.417 8.417c1.776 2.494 2.9 5.52 2.9 8.815 0 8.422-6.989 15.242-15.412 15.242-8.423 0-15.128-6.82-15.128-15.242 0-8.423 6.706-15.185 15.128-15.185 2.623 0 5.181.654 7.337 1.82l7.678-7.621v-57.839h-15.98l-33.214 33.157-1.137 1.081h-2.308c-1.306 26.989-.865 54.6 1.365 82.741l1.525-1.468 11.147-11.147 1.479-1.479h49.251l21.895-21.839c-.069-.584-.227-1.217-.227-1.82 0-8.423 6.762-15.128 15.185-15.128 8.423 0 15.242 6.706 15.242 15.128 0 8.423-6.819 15.299-15.242 15.299-3.823 0-7.22-1.545-9.896-3.867l-21.157 21.157-1.422 1.478h-49.31l-8.019 8.019v73.197a781.613 781.613 0 0 0 6.266 29.874l10.233-10.255v-4.265c-3.281-2.79-5.46-6.833-5.46-11.488 0-8.423 6.818-15.242 15.242-15.242 8.422 0 15.242 6.819 15.242 15.242 0 8.196-6.452 14.72-14.559 15.071v5.005l-1.536 1.535-16.313 16.314a825.775 825.775 0 0 0 4.717 18.273c2.266-5.655 7.822-9.677 14.262-9.677 8.423 0 15.185 6.933 15.185 15.355a15.138 15.138 0 0 1-15.185 15.185c-3.408 0-6.659-1.187-9.213-3.071l-.018.011a873.015 873.015 0 0 0 3.66 12.102H93.23l11.716-11.659V720.304l-18.598-18.598c-2.351 1.484-5.203 2.389-8.19 2.389-8.423 0-15.128-6.762-15.128-15.185s6.706-15.356 15.128-15.356c8.423 0 15.412 6.933 15.412 15.356 0 1.579-.352 3.004-.796 4.436l21.101 21.1 1.479 1.479v111.414l-1.479 1.536-14.787 14.787-1.479 1.479H78.167a873.51 873.51 0 0 0 2.788 8.483c.054-.001.107-.008.161-.008 8.423 0 15.242 6.99 15.242 15.412 0 4.839-2.257 9.102-5.768 11.861a945.544 945.544 0 0 0 6.059 15.892h16.483l.967 1.024 18.882 18.825a15.128 15.128 0 0 1 8.701-2.73c8.423 0 15.413 6.762 15.413 15.185 0 8.423-6.989 15.242-15.413 15.242-8.423 0-15.185-6.819-15.185-15.242 0-2.605.672-4.967 1.82-7.109l-18.029-18.199H99.407c9.675 24.117 23.907 47.833 39.952 71.861 8.158.313 14.778 7.155 14.778 15.383 0 1.752-.315 3.426-.866 4.988a4622.758 4622.758 0 0 0 10.642 15.238l10.814-10.672v-25.706c-6.779-1.551-11.886-7.595-11.886-14.844 0-8.423 6.932-15.242 15.356-15.242 8.423 0 15.128 6.819 15.128 15.242a15.24 15.24 0 0 1-11.716 14.844v28.436l-.967 1.024-12.658 12.732c5.696 8.14 11.419 16.359 17.073 24.682h210.06l1.479 1.536 17.119 17.119 1.536 1.479v121.878l6.085 10.578h480.569l1.479 1.536 13.479 13.479h108.342l36.454-36.342v-39.299l1.479-1.536 39.356-39.412 1.536-1.536h103.109l1.536 1.536 21.384 21.328h45.099l1.706 1.593 15.811 15.81h34.806l1.536 1.536 18.085 18.086c1.549-.495 3.183-.796 4.891-.796 9.138 0 16.493 7.629 16.493 17.062 0 9.433-7.355 17.062-16.493 17.062s-16.607-7.629-16.607-17.062c0-3.739 1.271-7.198 3.242-10.01l-15.356-15.413h-34.978l-1.422-1.535-15.981-15.867h-45.156l-1.535-1.536-21.328-21.328h-94.692l-36.115 36.227v39.356l-1.649 1.592-39.356 39.356-1.536 1.593H912.536l-1.479-1.593-13.536-13.479H415.296l-1.479-2.502-8.417-14.502-.569-1.251V1066.2l-14.048-14.048h-198.74c6.061 9.144 11.988 18.424 17.658 27.873l.62-.621 1.479-1.536h158.957l1.592 1.536 10.578 10.578 1.479 1.479v105.215l33.101 33.042h476.147l1.251.626 16.607 9.555h126.257l53.177-53.176v-38.561l1.592-1.479 32.132-32.133 1.593-1.536h81.27l1.536 1.536 19.736 19.735h37.878l1.592 1.649 17.801 17.858c1.775-.67 3.686-1.081 5.687-1.081 9.138 0 16.493 7.573 16.493 17.005 0 9.433-7.355 17.119-16.493 17.119-9.138 0-16.607-7.686-16.607-17.119 0-3.45 1.028-6.642 2.73-9.327l-15.583-15.64h-37.708l-1.536-1.535-19.848-19.735h-72.625l-29.175 29.006v38.615l-1.536 1.536-56.19 56.19-1.536 1.536H908.615l-1.251-.626-16.379-9.555H413.182l-1.536-1.593-36.171-36.056-1.479-1.536v-105.215l-7.564-7.45H216.176l-1.005 1.005c13.23 23.059 24.702 47.167 32.648 72.784 3.403-3.749 8.299-6.117 13.759-6.117 10.27 0 18.598 8.329 18.598 18.598 0 10.269-8.329 18.654-18.598 18.654-2.679 0-5.22-.582-7.522-1.608.929 10.039 1.231 22.142.991 35.911H360.23l35.831 35.716h460.604l24.397 14.161h115.964v90.427H800.821l-13.763-7.905v-53.12H652.667v61.024H562.98l-45.442-45.385H256.325l-9.037 9.037a2140.356 2140.356 0 0 1-1.803 15.583c2.71-6.871 9.382-11.718 17.237-11.718 10.27 0 18.598 8.273 18.598 18.541 0 10.27-8.329 18.598-18.598 18.598-9.436 0-17.166-7.037-18.362-16.144-3.207 25.996-6.99 53.18-11.153 80.645 6.206 3.014 10.496 9.359 10.496 16.72 0 8.378-5.519 15.362-13.138 17.688v61.535l-1.536 1.535-14.556 14.556a3819.869 3819.869 0 0 1-4.332 23.339 995.253 995.253 0 0 0 38.396 18.295c2.587-7.132 9.415-12.171 17.46-12.171 10.27 0 18.598 8.214 18.598 18.483 0 2.986-.677 5.861-1.934 8.36 2.957 1.202 5.956 2.35 8.929 3.526v-41.971l-18.483-18.427a18.825 18.825 0 0 1-8.303 1.934c-10.269 0-18.654-8.329-18.654-18.598 0-10.27 8.385-18.598 18.654-18.598 10.27 0 18.598 8.328 18.598 18.598 0 4.772-1.822 9.106-4.777 12.398l18.767 18.767 1.137.967v47.66c3.096 1.198 6.213 2.358 9.327 3.526v-91.28l-32.587-32.646c-2.875 1.82-6.412 2.787-10.066 2.787a18.503 18.503 0 0 1-18.541-18.541 18.504 18.504 0 0 1 18.541-18.542c10.269.002 18.654 8.272 18.654 18.542 0 4.072-1.419 7.856-3.64 10.919l33.613 33.498.967 1.137v96.74c2.317.85 4.67 1.668 6.995 2.502v-57.042l.967-1.081 32.191-32.076.967-1.024h14.673c2.676-6.191 8.604-10.618 15.64-11.147.469-.049 1.057 0 1.536 0 10.27 0 18.541 8.272 18.541 18.542s-8.272 18.598-18.541 18.598-18.654-8.329-18.654-18.598v-.398H358.76l-29.973 30.142v56.589a996.779 996.779 0 0 0 8.872 3.071v-35.772l1.024-1.137 26.276-26.161 1.024-.91h47.886l16.379-16.436v-.171c-1.404-2.616-2.332-5.639-2.332-8.815 0-10.27 8.329-18.541 18.598-18.541 10.269 0 18.654 8.272 18.654 18.541 0 10.27-8.385 18.598-18.654 18.598-4.52 0-8.606-1.64-11.829-4.322l-16.948 16.948-1.081 1.137h-47.829l-24.227 24.17v35.205c1.654.548 3.347 1.052 5.005 1.592v-3.412l1.138-1.024 20.303-20.303c-1.253-2.503-1.934-5.427-1.934-8.417 0-10.269 8.385-18.598 18.654-18.598 10.27 0 18.541 8.329 18.541 18.598 0 10.27-8.272 18.598-18.541 18.598-4.742 0-9.113-1.855-12.398-4.777l-18.769 18.825v2.73c7.146 2.27 14.331 4.534 21.556 6.654a18.544 18.544 0 0 1 8.645-2.161c6.065 0 11.419 2.926 14.816 7.421h13.052v-23.009zm759.92-827.849a15.138 15.138 0 0 1 15.185 15.185c0 8.423-6.762 15.242-15.185 15.242-8.422 0-15.242-6.818-15.242-15.242 0-8.422 6.82-15.185 15.242-15.185zm-62.388 30.427c-8.422 0-15.242-6.818-15.242-15.242 0-8.423 6.818-15.185 15.242-15.185 8.423 0 15.242 6.762 15.242 15.185 0 8.424-6.82 15.242-15.242 15.242zm.01-124.721c-8.423 0-15.242-6.819-15.242-15.242 0-8.423 6.818-15.242 15.242-15.242s15.242 6.819 15.242 15.242c-.001 8.423-6.82 15.242-15.242 15.242zm1.256-58.522c-8.422 0-15.242-6.819-15.242-15.242 0-8.423 6.818-15.185 15.242-15.185s15.299 6.762 15.299 15.185c0 8.423-6.876 15.242-15.299 15.242zM562.537 458.396c-8.422 0-15.128-6.932-15.128-15.355s6.706-15.242 15.128-15.242 15.299 6.819 15.299 15.242c0 8.423-6.875 15.355-15.299 15.355zm184.777 0c-8.422 0-15.242-6.932-15.242-15.355s6.818-15.242 15.242-15.242c8.423 0 15.356 6.819 15.356 15.242-.001 8.423-6.933 15.355-15.356 15.355zm-245.515 91.565c8.422 0 15.185 6.933 15.185 15.355a15.138 15.138 0 0 1-15.185 15.185c-8.422 0-15.242-6.761-15.242-15.185 0-8.422 6.819-15.355 15.242-15.355zm-62.616.398c8.423 0 15.128 6.819 15.128 15.242 0 8.423-6.705 15.299-15.128 15.299-8.422 0-15.356-6.875-15.356-15.299.001-8.423 6.934-15.242 15.356-15.242zm-59.887-.398c8.423 0 15.242 6.933 15.242 15.355 0 8.424-6.819 15.185-15.242 15.185a15.138 15.138 0 0 1-15.185-15.185c0-8.422 6.763-15.355 15.185-15.355zm-62.276 0c8.422 0 15.242 6.933 15.242 15.355 0 8.424-6.818 15.185-15.242 15.185-8.422 0-15.356-6.761-15.356-15.185 0-8.422 6.934-15.355 15.356-15.355zm-54.097 120.741c8.423 0 15.299 6.819 15.299 15.242 0 8.423-6.875 15.299-15.299 15.299-8.423 0-15.299-6.875-15.299-15.299 0-8.423 6.876-15.242 15.299-15.242zm0 65.005c8.423 0 15.299 6.819 15.299 15.242 0 8.424-6.875 15.242-15.299 15.242-8.423 0-15.299-6.818-15.299-15.242 0-8.422 6.876-15.242 15.299-15.242zM141.671 885.908c-8.423 0-15.185-6.875-15.185-15.299 0-8.423 6.763-15.128 15.185-15.128 8.423 0 15.412 6.705 15.412 15.128.001 8.424-6.989 15.299-15.412 15.299zm45.391-318.999c0-8.422 6.762-15.355 15.185-15.355 8.422 0 15.412 6.933 15.412 15.355 0 8.424-6.99 15.242-15.412 15.242-8.423 0-15.185-6.818-15.185-15.242zm17.851 199.623c-8.423 0-15.356-6.705-15.356-15.128s6.933-15.299 15.356-15.299 15.185 6.876 15.185 15.299c0 8.424-6.763 15.128-15.185 15.128zm0-64.891c-8.423 0-15.356-6.762-15.356-15.185 0-8.423 6.933-15.356 15.356-15.356s15.185 6.933 15.185 15.356a15.14 15.14 0 0 1-15.185 15.185zm.009-56.817c-8.423 0-15.356-6.876-15.356-15.299 0-8.423 6.933-15.128 15.356-15.128s15.185 6.705 15.185 15.128c0 8.424-6.762 15.299-15.185 15.299zm846.281 631.119c10.27 0 18.542 8.329 18.542 18.598 0 10.27-8.272 18.598-18.542 18.598-10.269 0-18.654-8.329-18.654-18.598 0-10.27 8.385-18.598 18.654-18.598zm-789.628-144.512c-10.27 0-18.598-8.385-18.598-18.654 0-10.27 8.329-18.541 18.598-18.541 10.27 0 18.598 8.272 18.598 18.541.001 10.268-8.329 18.654-18.598 18.654zm78.656-37.196a18.503 18.503 0 0 1 18.541 18.541c0 10.269-8.272 18.654-18.541 18.654s-18.654-8.385-18.654-18.654c0-10.27 8.385-18.541 18.654-18.541zm.003 99.016c-10.269 0-18.654-8.385-18.654-18.654 0-10.27 8.385-18.598 18.654-18.598 10.27 0 18.541 8.329 18.541 18.598 0 10.269-8.272 18.654-18.541 18.654zm407.952 139.508c10.269 0 18.654 8.329 18.654 18.598 0 10.27-8.385 18.542-18.654 18.542-10.27 0-18.598-8.272-18.598-18.542-.001-10.27 8.329-18.598 18.598-18.598zm-65.007 2.616c10.27 0 18.598 8.273 18.598 18.541 0 10.27-8.33 18.598-18.598 18.598-10.27 0-18.598-8.328-18.598-18.598s8.329-18.541 18.598-18.541zM505.91 1493.653c-10.27 0-18.598-8.329-18.598-18.598 0-10.27 8.329-18.598 18.598-18.598 10.27 0 18.598 8.328 18.598 18.598s-8.329 18.598-18.598 18.598zm-2.959-158.278c10.269 0 18.654 8.273 18.654 18.541 0 10.27-8.385 18.598-18.654 18.598-10.27 0-18.598-8.328-18.598-18.598s8.329-18.541 18.598-18.541zm-240.228 98.505c-10.27 0-18.541-8.385-18.541-18.654a18.503 18.503 0 0 1 18.541-18.541c10.27 0 18.598 8.272 18.598 18.541s-8.329 18.654-18.598 18.654zm64.037-98.505c10.268 0 18.483 8.273 18.483 18.541 0 10.27-8.214 18.598-18.483 18.598s-18.654-8.328-18.654-18.598 8.385-18.541 18.654-18.541zm.002 98.505c-10.269 0-18.654-8.385-18.654-18.654 0-10.27 8.385-18.541 18.654-18.541 10.268 0 18.483 8.272 18.483 18.541s-8.214 18.654-18.483 18.654zm58.349-98.505c10.27 0 18.598 8.273 18.598 18.541 0 10.27-8.329 18.598-18.598 18.598-10.27 0-18.541-8.328-18.541-18.598a18.503 18.503 0 0 1 18.541-18.541zm.002 98.505c-10.27 0-18.541-8.385-18.541-18.654a18.503 18.503 0 0 1 18.541-18.541c10.27 0 18.598 8.272 18.598 18.541s-8.329 18.654-18.598 18.654zm61.021-98.505c10.27 0 18.598 8.273 18.598 18.541 0 10.27-8.329 18.598-18.598 18.598s-18.654-8.328-18.654-18.598 8.384-18.541 18.654-18.541zm.002 98.505c-10.269 0-18.654-8.385-18.654-18.654 0-10.27 8.384-18.541 18.654-18.541s18.598 8.272 18.598 18.541-8.329 18.654-18.598 18.654z"/><path d="M220.098 1517.464c-.789 4.537-1.583 9.058-2.382 13.557l2.382-2.386v-11.171zm-12.312 67.268c-4.005 20.81-8.026 40.696-11.953 59.155H352.82c-50.493-16.136-98.977-35.977-145.034-59.155zm813.832-932.248v-74.673l2.446-2.502 60.057-60.001 2.502-2.559h35.433l2.559 2.559 59.658 59.774h106.228a475.038 475.038 0 0 1-3.023-4.651 165.395 165.395 0 0 0 5.113-12.638h-84.245l-2.104-1.99-39.184-39.241c-7.318-1.113-12.967-7.379-12.967-15.014 0-8.422 6.819-15.185 15.242-15.185 8.423 0 15.242 6.762 15.242 15.185 0 3.573-1.304 6.79-3.355 9.384l32.93 32.93h82.711a140.197 140.197 0 0 0 4.026-25.428l-2.766-2.78c-1.999.964-4.225 1.592-6.597 1.592-8.423 0-15.242-6.819-15.242-15.242 0-8.423 6.819-15.242 15.242-15.242 3.051 0 5.877.904 8.25 2.446a466.751 466.751 0 0 0-2.24-14.73H1270.2l-23.603 23.715c.244 1.095.398 2.185.398 3.356 0 8.423-6.762 15.242-15.185 15.242-8.423 0-15.242-6.819-15.242-15.242 0-8.422 6.818-15.185 15.242-15.185 4.625 0 8.699 2.045 11.488 5.289l23.033-23.204 1.081-.91h28.905c-.64-3.48-1.325-6.956-2.045-10.428-.888.162-1.804.248-2.741.248-8.423 0-15.242-6.762-15.242-15.185 0-6.899 4.577-12.715 10.861-14.597a478.82 478.82 0 0 0-2.381-8.325h-19l-19.053 18.996a3.957 3.957 0 0 1-.113.056c.243 1.095.398 2.299.398 3.469 0 8.424-6.762 15.299-15.185 15.299-8.423 0-15.242-6.875-15.242-15.299 0-8.422 6.818-15.242 15.242-15.242 3.353.001 6.36 1.072 8.872 2.901l19.165-19.109 1.536-1.536h20.163a480.42 480.42 0 0 0-13.35-36.511h-13.015l-69.441 69.385c.042.476.113.877.113 1.365 0 8.423-6.763 15.355-15.185 15.355-8.423 0-15.242-6.932-15.242-15.355s6.819-15.242 15.242-15.242c3.931 0 7.369 1.601 10.066 4.038l68.589-68.475 1.479-1.535h12.935a486.756 486.756 0 0 0-19.777-39.911c-.19 8.258-6.92 14.888-15.224 14.888-8.423 0-15.299-6.819-15.299-15.242 0-2.926.833-5.588 2.275-7.905l-22.466-22.465-1.422-1.422v-44.089a501.415 501.415 0 0 0-12.853-14.882v45.664l-1.592 1.479-29.119 29.346v44.759l-1.479 1.535-85.081 85.025c.713 1.765 1.024 3.721 1.024 5.744 0 8.423-6.706 15.242-15.128 15.242s-15.356-6.819-15.356-15.242c0-8.423 6.933-15.242 15.356-15.242 2.57 0 4.931.757 7.052 1.877l83.147-83.262v-44.816l1.536-1.536 29.175-29.232v-52.624a509.561 509.561 0 0 0-11.943-12.1v61.537l-1.536 1.649-36.682 36.682v8.929c4.049 2.733 6.768 7.304 6.768 12.569 0 8.423-6.819 15.185-15.242 15.185s-15.185-6.762-15.185-15.185c0-7.746 5.776-14.096 13.251-15.071V302.89l1.535-1.536 36.626-36.626V197.45a523.335 523.335 0 0 0-6.199-5.64v48.918l-1.536 1.592-17.062 17.062a15.132 15.132 0 0 1 2.446 8.303c0 8.423-6.705 15.128-15.128 15.128-8.422 0-15.299-6.705-15.299-15.128s6.875-15.299 15.299-15.299c1.48 0 2.858.292 4.209.682l16.607-16.664v-53.716a526.32 526.32 0 0 0-40.101-30.807l-6.706 6.72v138.656l-1.592 1.479-20.418 20.474c2.141 2.622 3.469 5.897 3.469 9.555a15.138 15.138 0 0 1-15.185 15.185c-8.422 0-15.356-6.762-15.356-15.185 0-8.423 6.932-15.242 15.356-15.242.826 0 1.542.044 2.332.171l20.929-20.814V154.172l1.535-1.536 6.779-6.778a541.983 541.983 0 0 0-14.297-9.19l-15.968 15.968v99.186a5.26 5.26 0 0 1-.171.853 15.207 15.207 0 0 1 12.682 15.014c0 8.423-6.706 15.128-15.128 15.128-8.423 0-15.413-6.705-15.413-15.128 0-5.834 3.411-10.865 8.247-13.422a5.217 5.217 0 0 1-.682-2.446V148.313l1.479-1.479 15.779-15.751a553.835 553.835 0 0 0-14.855-8.515l-20.148 20.114v211.73l18.996 18.996a15.644 15.644 0 0 1 6.597-1.479c8.423 0 15.128 6.82 15.128 15.242 0 8.423-6.706 15.299-15.128 15.299s-15.412-6.876-15.412-15.299c0-2.283.57-4.427 1.479-6.37l-20.53-20.645-1.536-1.479V138.449l1.536-1.536 19.478-19.512a571.56 571.56 0 0 0-26.832-13.286l-13.632 13.632v134.447c4.71 2.586 7.905 7.488 7.905 13.251 0 8.423-6.819 15.242-15.242 15.242-8.422 0-15.185-6.819-15.185-15.242 0-7.334 5.105-13.445 12-14.901V113.368l1.536-1.479 12.386-12.387a595.997 595.997 0 0 0-24.173-10.007l-13.237 13.237V275.57l39.072 39.072a5.23 5.23 0 0 1 1.479 3.412c1.607 2.433 2.673 5.407 2.673 8.531 0 8.424-6.819 15.185-15.242 15.185a15.138 15.138 0 0 1-15.185-15.185c0-6.317 3.803-11.88 9.27-14.218l-31.052-31.052-1.536-1.536V98.528l1.536-1.535L960.69 85.46a621.32 621.32 0 0 0-21.543-7.459v208.668l19.393 19.677 1.479 1.479v49.48l22.01 12.739c.927-.171 1.808-.284 2.787-.284 8.422 0 15.242 6.819 15.242 15.242 0 8.423-6.819 15.242-15.242 15.242-8.423 0-15.185-6.818-15.185-15.242 0-3.189.89-6.202 2.559-8.645l-20.019-11.545-2.559-1.479v-51.244l-19.393-19.45-1.536-1.536V74.693a641.156 641.156 0 0 0-13.081-3.868v216.967l15.185 26.276.682 1.137v61.594l52.834 52.834c.188 0 .322-.113.512-.113 8.422 0 15.242 6.876 15.242 15.299 0 8.423-6.819 15.128-15.242 15.128-8.422 0-15.185-6.704-15.185-15.128 0-4.157 1.632-8.005 4.322-10.749l-51.413-51.413-1.536-1.479v-63.242l-15.014-25.99-.796-1.194V67.976c-1.515-.403-3.026-.809-4.55-1.203v291.896l-1.536 1.479-18.541 18.711c.808 1.859 1.251 3.982 1.251 6.142 0 8.423-6.818 15.242-15.242 15.242-8.422 0-15.185-6.818-15.185-15.242 0-8.423 6.761-15.242 15.185-15.242 2.427 0 4.734.587 6.768 1.592l16.834-16.834V64.171a670.859 670.859 0 0 0-12.512-2.901v192.25c0 .514-.039 1.027-.115 1.535 2.594 2.729 4.266 6.336 4.266 10.408 0 8.423-6.818 15.242-15.242 15.242-8.423 0-15.185-6.819-15.185-15.242 0-4.655 2.179-8.755 5.46-11.545a8.801 8.801 0 0 1 0-.398V57.014a713.131 713.131 0 0 0-15.014-2.671v235.418l22.181 22.181c1.263-.344 2.553-.682 3.924-.682 8.423 0 15.185 6.933 15.185 15.356s-6.762 15.185-15.185 15.185-15.242-6.762-15.242-15.185c0-1.869.354-3.741.967-5.403l-23.715-23.659-2.047-2.104V52.153a736.75 736.75 0 0 0-15.521-2.118v334.18l38.162 38.106 3.014 2.957v44.417l-3.014 3.014-34.351 34.238v25.479h135.301l23.375 23.375v96.683h46.749zm32.354-166.107c8.422 0 15.356 6.762 15.356 15.185 0 8.423-6.933 15.242-15.356 15.242s-15.242-6.819-15.242-15.242c0-8.423 6.819-15.185 15.242-15.185zm-184.779 30.427c-8.423 0-15.128-6.819-15.128-15.242 0-8.423 6.706-15.185 15.128-15.185s15.299 6.762 15.299 15.185c-.001 8.423-6.876 15.242-15.299 15.242zm62.445 0c-8.423 0-15.356-6.819-15.356-15.242 0-8.423 6.932-15.185 15.356-15.185 8.423 0 15.242 6.762 15.242 15.185 0 8.423-6.819 15.242-15.242 15.242zm59.718-30.029c8.422 0 15.185 6.819 15.185 15.242s-6.762 15.242-15.185 15.242c-8.423 0-15.242-6.819-15.242-15.242s6.819-15.242 15.242-15.242zm498.845 377.885-53.65 53.684c21.488-11.389 53.853-24.516 53.65-53.684z"/><path d="M1223.962 307.27c1.516-.5 3.098-.91 4.777-.91 2.669 0 5.175.683 7.356 1.879a494.523 494.523 0 0 0-33.859-49.601v26.849l21.726 21.783z"/></svg>