<?xml version="1.0" encoding="UTF-8" standalone="no"?>
<!-- Created with Inkscape (http://www.inkscape.org/) -->

<svg
   id="svg2"
   version="1.1"
   inkscape:version="1.2 (dc2aeda, 2022-05-15)"
   width="167"
   height="224"
   sodipodi:docname="cryogenic-text.svg"
   viewBox="0 0 167 224"
   xmlns:inkscape="http://www.inkscape.org/namespaces/inkscape"
   xmlns:sodipodi="http://sodipodi.sourceforge.net/DTD/sodipodi-0.dtd"
   xmlns="http://www.w3.org/2000/svg"
   xmlns:svg="http://www.w3.org/2000/svg"
   xmlns:rdf="http://www.w3.org/1999/02/22-rdf-syntax-ns#"
   xmlns:cc="http://creativecommons.org/ns#"
   xmlns:dc="http://purl.org/dc/elements/1.1/">
  <metadata
     id="metadata8">
    <rdf:RDF>
      <cc:Work
         rdf:about="">
        <dc:format>image/svg+xml</dc:format>
        <dc:type
           rdf:resource="http://purl.org/dc/dcmitype/StillImage" />
      </cc:Work>
    </rdf:RDF>
  </metadata>
  <defs
     id="defs6">
    <filter
       inkscape:collect="always"
       id="filter3778"
       color-interpolation-filters="sRGB"
       x="-0.032631711"
       y="-0.038221578"
       width="1.0652634"
       height="1.0764432">
      <feGaussianBlur
         inkscape:collect="always"
         stdDeviation="1.1047398"
         id="feGaussianBlur3780" />
    </filter>
    <filter
       inkscape:collect="always"
       id="filter3914"
       x="-0.037704565"
       y="-0.045154796"
       width="1.0754091"
       height="1.0908374">
      <feGaussianBlur
         inkscape:collect="always"
         stdDeviation="0.62313791"
         id="feGaussianBlur3916" />
    </filter>
  </defs>
  <sodipodi:namedview
     pagecolor="#ffffff"
     bordercolor="#666666"
     borderopacity="1"
     objecttolerance="10"
     gridtolerance="10"
     guidetolerance="10"
     inkscape:pageopacity="0"
     inkscape:pageshadow="2"
     inkscape:window-width="1680"
     inkscape:window-height="1022"
     id="namedview4"
     showgrid="false"
     inkscape:zoom="1.489975"
     inkscape:cx="81.544992"
     inkscape:cy="145.64003"
     inkscape:window-x="0"
     inkscape:window-y="28"
     inkscape:window-maximized="0"
     inkscape:current-layer="svg2"
     inkscape:showpageshadow="2"
     inkscape:pagecheckerboard="0"
     inkscape:deskcolor="#d1d1d1">
    <inkscape:grid
       type="xygrid"
       id="grid3825"
       empspacing="1"
       dotted="true"
       visible="true"
       enabled="true"
       snapvisiblegridlinesonly="true"
       originx="-28.5"
       originy="0"
       spacingx="4.2666667"
       spacingy="4.2666667" />
  </sodipodi:namedview>
  <g
     id="g3871">
    <g
       id="g3854">
      <rect
         style="fill:#34b652;fill-opacity:1;stroke:none"
         id="rect3771"
         width="167"
         height="224"
         x="0"
         y="0" />
      <rect
         style="fill:none;stroke:#ffffff;stroke-width:3;stroke-linecap:round;stroke-linejoin:round;stroke-miterlimit:4;stroke-dasharray:none;stroke-dashoffset:0;stroke-opacity:1"
         id="rect2987"
         width="137.5862"
         height="193.96298"
         x="14.765348"
         y="16.61397" />
      <g
         aria-label="CRYOGENIC
LIQUID"
         id="text3757"
         style="font-weight:bold;line-height:0%;font-family:'Linux Biolinum';-inkscape-font-specification:'Linux Biolinum Bold';text-align:center;letter-spacing:0px;word-spacing:0px;text-anchor:middle;fill:#ffffff">
        <path
           d="m 42.533058,160.19221 q 0,-0.37109 0.273438,-0.66406 0.273437,-0.27344 0.664062,-0.27344 0.390625,0 0.664063,0.27344 0.273437,0.29297 0.273437,0.66406 0,1.07422 -0.410156,2.07032 -0.410156,0.98633 -1.171875,1.73828 -0.751953,0.76172 -1.748047,1.17187 -0.986328,0.41016 -2.060547,0.41016 -1.074219,0 -2.060547,-0.41016 -0.986328,-0.41015 -1.748047,-1.17187 -0.751953,-0.75195 -1.162109,-1.73828 -0.410156,-0.9961 -0.410156,-2.07032 v -4.60937 q 0,-1.07422 0.410156,-2.06055 0.410156,-0.99609 1.162109,-1.74804 0.761719,-0.76172 1.748047,-1.17188 0.986328,-0.41016 2.060547,-0.41016 1.074219,0 2.060547,0.41016 0.996094,0.41016 1.748047,1.17188 0.761719,0.75195 1.171875,1.74804 0.410156,0.98633 0.410156,2.06055 0,0.37109 -0.273437,0.66406 -0.273438,0.27344 -0.664063,0.27344 -0.390625,0 -0.664062,-0.27344 -0.273438,-0.29297 -0.273438,-0.66406 0,-1.44531 -1.02539,-2.49023 -1.044922,-1.0254 -2.490235,-1.0254 -1.435547,0 -2.480469,1.0254 -1.02539,1.04492 -1.02539,2.49023 v 4.60937 q 0,1.44532 1.02539,2.49024 1.044922,1.02539 2.480469,1.02539 1.445313,0 2.490235,-1.02539 1.02539,-1.04492 1.02539,-2.49024 z"
           style="font-size:20px;line-height:1.25;font-family:Pointilised;-inkscape-font-specification:'Pointilised Bold'"
           id="path1275" />
        <path
           d="m 56.341652,164.64534 q 0,0.39062 -0.273438,0.66406 -0.273437,0.27344 -0.664062,0.27344 -0.390625,0 -0.664063,-0.27344 -0.146484,-0.14648 -0.224609,-0.36133 l -2.099609,-6.13281 q -0.107422,0.01 -0.322266,0.01 h -4.277344 v 5.82031 q 0,0.39062 -0.273437,0.66406 -0.273438,0.27344 -0.664063,0.27344 -0.390625,0 -0.664062,-0.27344 -0.273438,-0.27344 -0.273438,-0.66406 v -14.45313 h 1.875 4.277344 q 1.904297,0 3.271484,1.25977 0.644532,0.60547 0.996094,1.40625 0.351563,0.79102 0.351563,1.65039 0,0.85938 -0.351563,1.66016 -0.351562,0.79101 -0.996094,1.39648 -0.498046,0.44922 -1.132812,0.77149 l 2.011719,5.8789 q 0.09766,0.18555 0.09766,0.42969 z m -4.248047,-12.57813 h -4.277344 v 4.88282 h 4.277344 q 1.142578,0 1.943359,-0.71289 0.800782,-0.72266 0.800782,-1.72852 0,-1.00586 -0.800782,-1.72851 -0.800781,-0.7129 -1.943359,-0.7129 z"
           style="font-size:20px;line-height:1.25;font-family:Pointilised;-inkscape-font-specification:'Pointilised Bold'"
           id="path1277" />
        <path
           d="m 62.259621,164.50862 v -6.62109 L 58.73423,151.5887 q -0.117187,-0.20508 -0.117187,-0.45899 0,-0.39062 0.273437,-0.66406 0.273438,-0.27344 0.664063,-0.27344 0.390625,0 0.664062,0.27344 0.126953,0.12696 0.205078,0.30274 l 2.910156,5.20507 2.96875,-5.30273 q 0.04883,-0.0977 0.15625,-0.20508 0.273438,-0.27344 0.664063,-0.27344 0.390625,0 0.664062,0.27344 0.273438,0.27344 0.273438,0.66406 0,0.25391 -0.117188,0.45899 l -3.535156,6.29883 v 6.62109 q 0,0.44922 -0.3125,0.76172 -0.3125,0.3125 -0.761719,0.3125 -0.439453,0 -0.751953,-0.3125 -0.322265,-0.32227 -0.322265,-0.76172 z"
           style="font-size:20px;line-height:1.25;font-family:Pointilised;-inkscape-font-specification:'Pointilised Bold'"
           id="path1279" />
        <path
           d="m 78.997902,160.11409 q 0.332031,-1.07422 0.332031,-2.22656 0,-1.15235 -0.332031,-2.22657 -0.322266,-1.07421 -0.927734,-1.88476 -0.595704,-0.82031 -1.386719,-1.25977 -0.791016,-0.44922 -1.640625,-0.44922 -0.84961,0 -1.640625,0.44922 -0.791016,0.43946 -1.386719,1.25977 -0.595703,0.81055 -0.927734,1.88476 -0.322266,1.06446 -0.322266,2.22657 0,1.16211 0.322266,2.23633 0.332031,1.06445 0.927734,1.875 0.595703,0.82031 1.386719,1.26953 0.791015,0.43945 1.640625,0.43945 0.849609,0 1.640625,-0.43945 0.791015,-0.44922 1.386719,-1.26953 0.605468,-0.81055 0.927734,-1.88477 z m 1.738281,-5.16602 q 0.46875,1.41602 0.46875,2.93946 0,1.52343 -0.46875,2.93945 -0.46875,1.41602 -1.33789,2.5 -0.859375,1.08398 -2.001954,1.66992 -1.132812,0.58594 -2.353515,0.58594 -1.220703,0 -2.353516,-0.58594 -1.132812,-0.58594 -2.001953,-1.66992 -0.859375,-1.08398 -1.328125,-2.49023 -0.46875,-1.41602 -0.46875,-2.94922 0,-1.53321 0.46875,-2.93946 0.46875,-1.41601 1.328125,-2.5 0.869141,-1.08398 2.001953,-1.66992 1.132813,-0.58594 2.353516,-0.58594 1.220703,0 2.353515,0.58594 1.142579,0.58594 2.001954,1.66992 0.86914,1.08399 1.33789,2.5 z"
           style="font-size:20px;line-height:1.25;font-family:Pointilised;-inkscape-font-specification:'Pointilised Bold'"
           id="path1281" />
        <path
           d="m 93.089699,153.69807 q 0,0.39063 -0.273438,0.66407 -0.273437,0.27343 -0.664062,0.27343 -0.390625,0 -0.664063,-0.27343 -0.107422,-0.10743 -0.185547,-0.26368 v -0.01 l -0.0098,-0.01 q -0.195313,-0.41015 -0.449219,-0.71289 -0.263672,-0.33203 -0.615234,-0.5957 -0.371094,-0.2832 -0.751953,-0.42969 -0.400391,-0.16601 -0.830079,-0.23437 -0.351562,-0.0391 -0.517578,-0.0391 -0.107422,0 -0.341797,0.0195 -0.449218,0.0488 -0.839843,0.18554 -0.400391,0.14649 -0.771485,0.38086 -0.390625,0.27344 -0.654297,0.56641 -0.3125,0.37109 -0.498046,0.70312 -0.214844,0.41993 -0.302735,0.80078 -0.107422,0.44922 -0.107422,0.85938 v 4.60937 q 0,1.44532 1.025391,2.49024 1.044922,1.02539 2.480469,1.02539 1.445312,0 2.490234,-1.02539 1.025391,-1.04492 1.025391,-2.49024 h -2.578125 q -0.38086,0 -0.654297,-0.27343 -0.283203,-0.28321 -0.283203,-0.66407 0,-0.38085 0.283203,-0.66406 0.273437,-0.27344 0.654297,-0.27344 h 4.453125 v 1.875 q 0,1.07422 -0.410157,2.07032 -0.410156,0.98633 -1.171875,1.73828 -0.751953,0.76172 -1.748046,1.17187 -0.986329,0.41016 -2.060547,0.41016 -1.074219,0 -2.060547,-0.41016 -0.986328,-0.41015 -1.748047,-1.17187 -0.751953,-0.75195 -1.162109,-1.73828 -0.410157,-0.9961 -0.410157,-2.07032 v -4.60937 q 0,-0.69336 0.15625,-1.31836 0.15625,-0.60547 0.478516,-1.23047 0.332031,-0.5957 0.761719,-1.07422 0.46875,-0.51758 1.005859,-0.86914 0.566406,-0.37109 1.181641,-0.58594 0.625,-0.21484 1.289062,-0.29296 0.166016,-0.0195 0.507813,-0.0195 l 0.810547,0.0586 q 0.683593,0.10742 1.279296,0.36133 0.605469,0.2539 1.142579,0.65429 0.517578,0.39063 0.957031,0.91797 0.419922,0.52735 0.693359,1.11328 0.08789,0.18555 0.08789,0.40039 z"
           style="font-size:20px;line-height:1.25;font-family:Pointilised;-inkscape-font-specification:'Pointilised Bold'"
           id="path1283" />
        <path
           d="m 103.9979,150.46565 q 0.27344,0.27344 0.27344,0.66406 0,0.39063 -0.27344,0.66407 -0.27344,0.27343 -0.66406,0.27343 h -6.416016 v 4.88282 h 4.492186 q 0.39063,0 0.66406,0.27343 0.27344,0.27344 0.27344,0.66407 0,0.39062 -0.27344,0.66406 -0.27343,0.27344 -0.66406,0.27344 h -4.492186 v 4.88281 h 6.416016 q 0.39062,0 0.66406,0.27344 0.27344,0.27343 0.27344,0.66406 0,0.39062 -0.27344,0.66406 -0.27344,0.27344 -0.66406,0.27344 h -6.416016 -1.875 v -15.39063 h 1.875 6.416016 q 0.39062,0 0.66406,0.27344 z"
           style="font-size:20px;line-height:1.25;font-family:Pointilised;-inkscape-font-specification:'Pointilised Bold'"
           id="path1285" />
        <path
           d="m 114.71079,162.23323 v -11.10352 q 0,-0.39062 0.27344,-0.66406 0.27344,-0.27344 0.66406,-0.27344 0.39063,0 0.66407,0.27344 0.27343,0.27344 0.27343,0.66406 v 14.45313 h -1.875 -0.27343 l -6.74805,-12.04102 v 11.10352 q 0,0.39062 -0.27344,0.66406 -0.27344,0.27344 -0.66406,0.27344 -0.39063,0 -0.66406,-0.27344 -0.27344,-0.27344 -0.27344,-0.66406 v -14.45313 h 1.875 0.27344 z"
           style="font-size:20px;line-height:1.25;font-family:Pointilised;-inkscape-font-specification:'Pointilised Bold'"
           id="path1287" />
        <path
           d="m 118.7147,164.64534 v -13.51563 q 0,-0.39062 0.27344,-0.66406 0.29297,-0.27344 0.66406,-0.27344 0.39062,0 0.66406,0.27344 0.27344,0.27344 0.27344,0.66406 v 13.51563 q 0,0.39062 -0.27344,0.66406 -0.27344,0.27344 -0.66406,0.27344 -0.37109,0 -0.66406,-0.27344 -0.27344,-0.27344 -0.27344,-0.66406 z"
           style="font-size:20px;line-height:1.25;font-family:Pointilised;-inkscape-font-specification:'Pointilised Bold'"
           id="path1289" />
        <path
           d="m 131.62486,160.19221 q 0,-0.37109 0.27343,-0.66406 0.27344,-0.27344 0.66407,-0.27344 0.39062,0 0.66406,0.27344 0.27344,0.29297 0.27344,0.66406 0,1.07422 -0.41016,2.07032 -0.41016,0.98633 -1.17188,1.73828 -0.75195,0.76172 -1.74804,1.17187 -0.98633,0.41016 -2.06055,0.41016 -1.07422,0 -2.06055,-0.41016 -0.98632,-0.41015 -1.74804,-1.17187 -0.75196,-0.75195 -1.16211,-1.73828 -0.41016,-0.9961 -0.41016,-2.07032 v -4.60937 q 0,-1.07422 0.41016,-2.06055 0.41015,-0.99609 1.16211,-1.74804 0.76172,-0.76172 1.74804,-1.17188 0.98633,-0.41016 2.06055,-0.41016 1.07422,0 2.06055,0.41016 0.99609,0.41016 1.74804,1.17188 0.76172,0.75195 1.17188,1.74804 0.41016,0.98633 0.41016,2.06055 0,0.37109 -0.27344,0.66406 -0.27344,0.27344 -0.66406,0.27344 -0.39063,0 -0.66407,-0.27344 -0.27343,-0.29297 -0.27343,-0.66406 0,-1.44531 -1.0254,-2.49023 -1.04492,-1.0254 -2.49023,-1.0254 -1.43555,0 -2.48047,1.0254 -1.02539,1.04492 -1.02539,2.49023 v 4.60937 q 0,1.44532 1.02539,2.49024 1.04492,1.02539 2.48047,1.02539 1.44531,0 2.49023,-1.02539 1.0254,-1.04492 1.0254,-2.49024 z"
           style="font-size:20px;line-height:1.25;font-family:Pointilised;-inkscape-font-specification:'Pointilised Bold'"
           id="path1291" />
        <path
           d="m 64.066261,188.98128 q 0.273438,0.27343 0.273438,0.66406 0,0.39062 -0.273438,0.66406 -0.273437,0.27344 -0.664062,0.27344 h -6.416016 -1.875 v -14.45313 q 0,-0.39062 0.273438,-0.66406 0.273437,-0.27344 0.664062,-0.27344 0.390625,0 0.664063,0.27344 0.273437,0.27344 0.273437,0.66406 v 12.57813 h 6.416016 q 0.390625,0 0.664062,0.27344 z"
           style="font-size:20px;line-height:1.25;font-family:Pointilised;-inkscape-font-specification:'Pointilised Bold'"
           id="path1293" />
        <path
           d="m 66.478371,189.64534 v -13.51563 q 0,-0.39062 0.273437,-0.66406 0.292969,-0.27344 0.664063,-0.27344 0.390625,0 0.664062,0.27344 0.273438,0.27344 0.273438,0.66406 v 13.51563 q 0,0.39062 -0.273438,0.66406 -0.273437,0.27344 -0.664062,0.27344 -0.371094,0 -0.664063,-0.27344 -0.273437,-0.27344 -0.273437,-0.66406 z"
           style="font-size:20px;line-height:1.25;font-family:Pointilised;-inkscape-font-specification:'Pointilised Bold'"
           id="path1295" />
        <path
           d="m 81.781105,189.64534 q 0,0.39062 -0.273437,0.66406 -0.273438,0.27344 -0.664063,0.27344 -0.390625,0 -0.664062,-0.27344 -0.15625,-0.15625 -0.234375,-0.39062 l -0.195313,-0.38086 q -1.435547,1.04492 -3.105469,1.04492 -1.220703,0 -2.353515,-0.58594 -1.132813,-0.58594 -2.001953,-1.66992 -0.859375,-1.08398 -1.328125,-2.49023 -0.46875,-1.41602 -0.46875,-2.94922 0,-1.53321 0.46875,-2.93946 0.46875,-1.41601 1.328125,-2.5 0.86914,-1.08398 2.001953,-1.66992 1.132812,-0.58594 2.353515,-0.58594 1.220703,0 2.353516,0.58594 1.142578,0.58594 2.001953,1.66992 0.869141,1.08399 1.337891,2.5 0.46875,1.41602 0.46875,2.93946 0,1.47461 -0.439453,2.85156 -0.439454,1.36719 -1.25,2.44141 l 0.458984,0.86914 q 0.205078,0.2539 0.205078,0.5957 z m -0.849609,-6.75781 q 0,-1.15235 -0.332032,-2.22657 -0.322265,-1.07421 -0.927734,-1.88476 -0.595703,-0.82031 -1.386719,-1.25977 -0.791015,-0.44922 -1.640625,-0.44922 -0.849609,0 -1.640625,0.44922 -0.791015,0.43946 -1.386718,1.25977 -0.595704,0.81055 -0.927735,1.88476 -0.322265,1.06446 -0.322265,2.22657 0,1.16211 0.322265,2.23633 0.332031,1.06445 0.927735,1.875 0.595703,0.82031 1.386718,1.26953 0.791016,0.43945 1.640625,0.43945 1.191407,0 2.226563,-0.84961 l -0.996094,-1.9043 q -0.205078,-0.24414 -0.205078,-0.58593 0,-0.39063 0.273437,-0.66407 0.273438,-0.27343 0.664063,-0.27343 0.390625,0 0.664062,0.27343 l 0.06836,0.0684 0.0098,0.0195 q 0.117188,0.14649 0.15625,0.29297 l 0.615235,1.19141 q 0.810547,-1.5332 0.810547,-3.38867 z"
           style="font-size:20px;line-height:1.25;font-family:Pointilised;-inkscape-font-specification:'Pointilised Bold'"
           id="path1297" />
        <path
           d="m 93.236183,176.12971 q 0,-0.39062 0.273438,-0.66406 0.273437,-0.27344 0.664062,-0.27344 0.390625,0 0.664063,0.27344 0.273437,0.27344 0.273437,0.66406 v 9.0625 q 0,1.07422 -0.410156,2.07032 -0.410156,0.98633 -1.171875,1.73828 -0.751953,0.76172 -1.748047,1.17187 -0.986328,0.41016 -2.060547,0.41016 -1.074219,0 -2.060547,-0.41016 -0.986328,-0.41015 -1.748047,-1.17187 -0.751953,-0.75195 -1.162109,-1.73828 -0.410156,-0.9961 -0.410156,-2.07032 v -9.0625 q 0,-0.39062 0.273437,-0.66406 0.273438,-0.27344 0.664063,-0.27344 0.390625,0 0.664062,0.27344 0.273438,0.27344 0.273438,0.66406 v 9.0625 q 0,1.44532 1.02539,2.49024 1.044922,1.02539 2.480469,1.02539 1.445313,0 2.490235,-1.02539 1.02539,-1.04492 1.02539,-2.49024 z"
           style="font-size:20px;line-height:1.25;font-family:Pointilised;-inkscape-font-specification:'Pointilised Bold'"
           id="path1299" />
        <path
           d="m 97.240089,189.64534 v -13.51563 q 0,-0.39062 0.273438,-0.66406 0.292969,-0.27344 0.664062,-0.27344 0.390625,0 0.664063,0.27344 0.273437,0.27344 0.273437,0.66406 v 13.51563 q 0,0.39062 -0.273437,0.66406 -0.273438,0.27344 -0.664063,0.27344 -0.371093,0 -0.664062,-0.27344 -0.273438,-0.27344 -0.273438,-0.66406 z"
           style="font-size:20px;line-height:1.25;font-family:Pointilised;-inkscape-font-specification:'Pointilised Bold'"
           id="path1301" />
        <path
           d="m 106.63462,190.58284 h -3.50586 -1.875 v -15.39063 h 1.875 3.50586 q 1.09375,0 2.06055,0.41016 1.01562,0.41992 1.74804,1.17188 0.75196,0.73242 1.17188,1.74804 0.41016,0.9668 0.41016,2.06055 v 4.60937 q 0,1.09375 -0.41016,2.06055 -0.41992,1.01563 -1.17188,1.74805 -0.73242,0.75195 -1.74804,1.17187 -0.9668,0.41016 -2.06055,0.41016 z m 0,-1.875 q 0.70313,0 1.34766,-0.26367 0.64453,-0.28321 1.14258,-0.76172 0.47851,-0.49805 0.76171,-1.14258 0.26368,-0.64453 0.26368,-1.34766 v -4.60937 q 0,-0.70313 -0.26368,-1.34766 -0.2832,-0.64453 -0.76171,-1.14257 -0.49805,-0.47852 -1.14258,-0.76172 -0.64453,-0.26368 -1.34766,-0.26368 h -3.50586 v 11.64063 z"
           style="font-size:20px;line-height:1.25;font-family:Pointilised;-inkscape-font-specification:'Pointilised Bold'"
           id="path1303" />
      </g>
      <g
         aria-label="CONTAINS"
         id="text3767"
         style="font-weight:bold;line-height:0%;font-family:'Linux Biolinum';-inkscape-font-specification:'Linux Biolinum Bold';text-align:center;letter-spacing:0px;word-spacing:0px;text-anchor:middle;fill:#ffffff">
        <path
           d="m 60.79258,137.6088 q 0,-0.24122 0.177734,-0.43165 0.177734,-0.17773 0.431641,-0.17773 0.253906,0 0.43164,0.17773 0.177735,0.19043 0.177735,0.43165 0,0.69824 -0.266602,1.3457 -0.266601,0.64111 -0.761719,1.12988 -0.488769,0.49512 -1.13623,0.76172 -0.641113,0.2666 -1.339356,0.2666 -0.698242,0 -1.339355,-0.2666 -0.641113,-0.2666 -1.136231,-0.76172 -0.488769,-0.48877 -0.755371,-1.12988 -0.266601,-0.64746 -0.266601,-1.3457 v -2.9961 q 0,-0.69824 0.266601,-1.33935 0.266602,-0.64746 0.755371,-1.13623 0.495118,-0.49512 1.136231,-0.76172 0.641113,-0.2666 1.339355,-0.2666 0.698243,0 1.339356,0.2666 0.647461,0.2666 1.13623,0.76172 0.495118,0.48877 0.761719,1.13623 0.266602,0.64111 0.266602,1.33935 0,0.24121 -0.177735,0.43164 -0.177734,0.17774 -0.43164,0.17774 -0.253907,0 -0.431641,-0.17774 -0.177734,-0.19043 -0.177734,-0.43164 0,-0.93945 -0.666504,-1.61865 -0.679199,-0.6665 -1.618653,-0.6665 -0.933105,0 -1.612304,0.6665 -0.666504,0.6792 -0.666504,1.61865 v 2.9961 q 0,0.93945 0.666504,1.61865 0.679199,0.6665 1.612304,0.6665 0.939454,0 1.618653,-0.6665 0.666504,-0.6792 0.666504,-1.61865 z"
           style="font-size:13px;line-height:1.25;font-family:Pointilised;-inkscape-font-specification:'Pointilised Bold'"
           id="path1306" />
        <path
           d="m 69.577736,137.55801 q 0.21582,-0.69824 0.21582,-1.44726 0,-0.74903 -0.21582,-1.44727 -0.209473,-0.69824 -0.603027,-1.22509 -0.387207,-0.53321 -0.901368,-0.81885 -0.51416,-0.29199 -1.066406,-0.29199 -0.552246,0 -1.066406,0.29199 -0.51416,0.28564 -0.901367,0.81885 -0.387207,0.52685 -0.603028,1.22509 -0.209472,0.6919 -0.209472,1.44727 0,0.75537 0.209472,1.45361 0.215821,0.6919 0.603028,1.21875 0.387207,0.5332 0.901367,0.8252 0.51416,0.28564 1.066406,0.28564 0.552246,0 1.066406,-0.28564 0.514161,-0.292 0.901368,-0.8252 0.393554,-0.52685 0.603027,-1.2251 z m 1.129883,-3.35791 q 0.304687,0.92041 0.304687,1.91065 0,0.99023 -0.304687,1.91064 -0.304688,0.92041 -0.869629,1.625 -0.558594,0.70459 -1.30127,1.08545 -0.736328,0.38086 -1.529785,0.38086 -0.793457,0 -1.529785,-0.38086 -0.736328,-0.38086 -1.30127,-1.08545 -0.558593,-0.70459 -0.863281,-1.61865 -0.304687,-0.92041 -0.304687,-1.91699 0,-0.99658 0.304687,-1.91065 0.304688,-0.92041 0.863281,-1.625 0.564942,-0.70459 1.30127,-1.08545 0.736328,-0.38085 1.529785,-0.38085 0.793457,0 1.529785,0.38085 0.742676,0.38086 1.30127,1.08545 0.564941,0.70459 0.869629,1.625 z"
           style="font-size:13px;line-height:1.25;font-family:Pointilised;-inkscape-font-specification:'Pointilised Bold'"
           id="path1308" />
        <path
           d="m 77.791603,138.93546 v -7.21729 q 0,-0.25391 0.177734,-0.43164 0.177735,-0.17773 0.431641,-0.17773 0.253906,0 0.431641,0.17773 0.177734,0.17773 0.177734,0.43164 v 9.39453 h -1.21875 -0.177734 l -4.386231,-7.82666 v 7.21729 q 0,0.2539 -0.177734,0.43164 -0.177735,0.17773 -0.431641,0.17773 -0.253906,0 -0.43164,-0.17773 -0.177735,-0.17774 -0.177735,-0.43164 v -9.39453 h 1.21875 0.177735 z"
           style="font-size:13px;line-height:1.25;font-family:Pointilised;-inkscape-font-specification:'Pointilised Bold'"
           id="path1310" />
        <path
           d="m 86.830666,131.28653 q 0.177734,0.17773 0.177734,0.43164 0,0.25391 -0.177734,0.43164 -0.177735,0.17774 -0.431641,0.17774 h -2.285156 v 8.17578 q 0,0.2539 -0.177735,0.43164 -0.177734,0.17773 -0.43164,0.17773 -0.241211,0 -0.431641,-0.17773 -0.177734,-0.17774 -0.177734,-0.43164 v -8.17578 H 80.61631 q -0.253906,0 -0.431641,-0.17774 -0.177734,-0.17773 -0.177734,-0.43164 0,-0.25391 0.177734,-0.43164 0.177735,-0.17773 0.431641,-0.17773 h 5.782715 q 0.253906,0 0.431641,0.17773 z"
           style="font-size:13px;line-height:1.25;font-family:Pointilised;-inkscape-font-specification:'Pointilised Bold'"
           id="path1312" />
        <path
           d="m 93.032326,140.50333 q 0,0.24756 -0.184082,0.43164 -0.177735,0.17773 -0.425293,0.17773 -0.253907,0 -0.431641,-0.17773 -0.114258,-0.11426 -0.152344,-0.2666 h -0.0063 l -0.590332,-2.05665 h -3.027832 l -0.590332,2.05665 h -0.0063 q -0.03809,0.15234 -0.152344,0.2666 -0.177734,0.17773 -0.43164,0.17773 -0.253907,0 -0.431641,-0.17773 -0.177734,-0.17774 -0.177734,-0.43164 0,-0.1333 0.04443,-0.22852 l 2.621582,-9.16601 h 1.269531 l 2.634278,9.1914 q 0.03809,0.0952 0.03809,0.20313 z m -2.13916,-3.11036 -1.167969,-4.06884 -1.161621,4.06884 z"
           style="font-size:13px;line-height:1.25;font-family:Pointilised;-inkscape-font-specification:'Pointilised Bold'"
           id="path1314" />
        <path
           d="m 94.612892,140.50333 v -8.78516 q 0,-0.25391 0.177735,-0.43164 0.190429,-0.17773 0.43164,-0.17773 0.253906,0 0.431641,0.17773 0.177734,0.17773 0.177734,0.43164 v 8.78516 q 0,0.2539 -0.177734,0.43164 -0.177735,0.17773 -0.431641,0.17773 -0.241211,0 -0.43164,-0.17773 -0.177735,-0.17774 -0.177735,-0.43164 z"
           style="font-size:13px;line-height:1.25;font-family:Pointilised;-inkscape-font-specification:'Pointilised Bold'"
           id="path1316" />
        <path
           d="m 103.00449,138.93546 v -7.21729 q 0,-0.25391 0.17774,-0.43164 0.17773,-0.17773 0.43164,-0.17773 0.2539,0 0.43164,0.17773 0.17773,0.17773 0.17773,0.43164 v 9.39453 h -1.21875 -0.17773 l -4.386231,-7.82666 v 7.21729 q 0,0.2539 -0.177735,0.43164 -0.177734,0.17773 -0.43164,0.17773 -0.253906,0 -0.431641,-0.17773 -0.177734,-0.17774 -0.177734,-0.43164 v -9.39453 h 1.21875 0.177734 z"
           style="font-size:13px;line-height:1.25;font-family:Pointilised;-inkscape-font-specification:'Pointilised Bold'"
           id="path1318" />
        <path
           d="m 106.43858,138.30704 q 0,0.31738 0.17138,0.60937 0.17139,0.29199 0.49512,0.51416 0.32373,0.22217 0.74268,0.34278 0.43164,0.1206 0.86962,0.1206 0.43164,0 0.87598,-0.1206 0.41895,-0.12061 0.74268,-0.34278 0.30468,-0.20947 0.49511,-0.51416 0.17139,-0.29199 0.17139,-0.60937 0,-0.31739 -0.17139,-0.60938 -0.19043,-0.30469 -0.49511,-0.51416 -0.32373,-0.22217 -0.74268,-0.34277 -0.44434,-0.12061 -0.87598,-0.12061 -0.71093,0 -1.33935,-0.21582 -0.63477,-0.20947 -1.13623,-0.60302 -0.48242,-0.38721 -0.75537,-0.91407 -0.2666,-0.50146 -0.2666,-1.07275 0,-0.57129 0.2666,-1.07275 0.2666,-0.50782 0.75537,-0.91407 0.50146,-0.39355 1.13623,-0.60302 0.62842,-0.21582 1.33935,-0.21582 0.71729,0 1.33936,0.21582 0.65381,0.21582 1.13623,0.60302 0.49512,0.39991 0.76172,0.91407 0.2666,0.50146 0.2666,1.07275 0,0.25391 -0.17773,0.43164 -0.17774,0.17773 -0.43164,0.17773 -0.25391,0 -0.43165,-0.17773 -0.17773,-0.17773 -0.17773,-0.43164 0,-0.31738 -0.17139,-0.60938 -0.19043,-0.30468 -0.49511,-0.51416 -0.32373,-0.22216 -0.74268,-0.34277 -0.44434,-0.1206 -0.87598,-0.1206 -0.43798,0 -0.86962,0.1206 -0.41895,0.12061 -0.74268,0.34277 -0.32373,0.22217 -0.49512,0.51416 -0.17138,0.292 -0.17138,0.60938 0,0.31738 0.17138,0.60937 0.17139,0.292 0.49512,0.51416 0.32373,0.22217 0.74268,0.34278 0.43164,0.1206 0.86962,0.1206 0.71729,0 1.33936,0.21582 0.65381,0.21582 1.13623,0.60303 0.48877,0.38086 0.76172,0.91406 0.2666,0.50147 0.2666,1.07276 0,0.57129 -0.2666,1.07275 -0.2666,0.51416 -0.76172,0.91406 -0.48242,0.38721 -1.13623,0.60303 -0.62207,0.21582 -1.33936,0.21582 -0.71093,0 -1.33935,-0.21582 -0.63477,-0.20947 -1.13623,-0.60303 -0.48877,-0.40625 -0.75537,-0.91406 -0.2666,-0.50146 -0.2666,-1.07275 0,-0.25391 0.17773,-0.43164 0.17773,-0.17774 0.43164,-0.17774 0.25391,0 0.43164,0.17774 0.17774,0.17773 0.17774,0.43164 z"
           style="font-size:13px;line-height:1.25;font-family:Pointilised;-inkscape-font-specification:'Pointilised Bold'"
           id="path1320" />
      </g>
      <path
         style="fill:#ffffff;stroke:none;filter:url(#filter3778)"
         d="m 152.85491,97.991174 c -5.84888,0.254016 -12.55157,-0.417283 -17.69803,-3.319446 -7.20715,-2.208624 -3.95414,-13.508458 -12.13482,-14.480078 -4.21038,-1.738736 -10.80868,-3.094284 -11.59209,-8.375212 0.93046,-7.699827 -5.06048,-12.115331 -10.93287,-15.183718 -2.94683,-3.358644 -5.701933,-6.848769 -9.121023,-9.756011 -2.378249,-3.98863 -6.477907,-5.528106 -10.982625,-4.39806 -5.602288,1.777113 -9.71879,-2.742085 -8.608352,-8.274531 3.207587,-4.181212 9.478792,-1.673561 13.822723,-3.092906 5.132866,-3.666893 12.056165,-2.54168 17.674767,-0.879882 5.75676,2.535573 12.84409,-0.390997 18.0654,3.976368 3.11749,3.349424 7.70428,4.930619 12.08794,6.113774 4.80421,0.0267 11.36094,-0.45752 14.81209,3.634456 3.25956,2.043966 4.60689,4.439843 4.60689,9.505051 0,14.843398 0,29.686797 0,44.530195 z"
         id="path3773"
         inkscape:connector-curvature="0"
         sodipodi:nodetypes="ccccccccccccccc" />
      <g
         id="g3845">
        <path
           sodipodi:nodetypes="ccczcccccczcc"
           inkscape:connector-curvature="0"
           id="path3820"
           d="M 100,114 H 65 v -10 c -5,-5 -5,-12.477018 -5,-15 0,-2.522982 2.97383,-6.490571 5,-10 l 13.714877,-31.632832 0.576528,-5.54876 c -4.611361,-4.611361 9.463438,-4.47191 4.991528,0 l 0.58454,5.54876 L 100,79 c 2.3277,4.031702 5,6.656872 5,10 0,3.343128 0,10 -5,15 z"
           style="fill:#ffffff;stroke:none" />
        <path
           inkscape:connector-curvature="0"
           id="path3827"
           d="m 55,104 h 55"
           style="fill:none;stroke:#34b652;stroke-width:2;stroke-linecap:butt;stroke-linejoin:miter;stroke-miterlimit:4;stroke-dasharray:none;stroke-opacity:1" />
        <path
           style="fill:none;stroke:#34b652;stroke-width:2;stroke-linecap:butt;stroke-linejoin:miter;stroke-miterlimit:4;stroke-dasharray:none;stroke-opacity:1"
           d="m 55,84 h 55"
           id="path3829"
           inkscape:connector-curvature="0" />
        <path
           sodipodi:nodetypes="cc"
           inkscape:connector-curvature="0"
           id="path3831"
           d="m 65,59 h 35"
           style="fill:none;stroke:#34b652;stroke-width:2;stroke-linecap:butt;stroke-linejoin:miter;stroke-miterlimit:4;stroke-dasharray:none;stroke-opacity:1" />
        <path
           inkscape:connector-curvature="0"
           id="path3839"
           d="M 82.383933,69 65,57.05089 l 35,0.167788 z"
           style="fill:none;stroke:#ffffff;stroke-width:2.5;stroke-linecap:round;stroke-linejoin:round;stroke-miterlimit:4;stroke-dasharray:none;stroke-opacity:1" />
        <path
           style="fill:none;stroke:#34b652;stroke-width:2;stroke-linecap:butt;stroke-linejoin:miter;stroke-miterlimit:4;stroke-dasharray:none;stroke-opacity:1"
           d="M 77.233753,47 H 87.766248"
           id="path3852"
           inkscape:connector-curvature="0"
           sodipodi:nodetypes="cc" />
      </g>
    </g>
  </g>
  <g
     id="g3100"
     style="fill:#000000;fill-opacity:0;stroke:#34b652;stroke-width:2;stroke-linecap:round;stroke-linejoin:round;stroke-miterlimit:4;stroke-dasharray:4, 4;stroke-dashoffset:0;stroke-opacity:1;filter:url(#filter3914)"
     transform="translate(-28.5)">
    <path
       style="fill:#000000;fill-opacity:0;stroke:#34b652;stroke-width:2;stroke-linecap:round;stroke-linejoin:round;stroke-miterlimit:4;stroke-dasharray:4, 4;stroke-dashoffset:0;stroke-opacity:1"
       d="m 115,39 c 5.84,-4.080684 15.61124,2.932457 20.44629,1.84726"
       id="path3082"
       inkscape:connector-curvature="0"
       sodipodi:nodetypes="cc" />
    <path
       style="fill:#000000;fill-opacity:0;stroke:#34b652;stroke-width:2;stroke-linecap:round;stroke-linejoin:round;stroke-miterlimit:4;stroke-dasharray:4, 4;stroke-dashoffset:0;stroke-opacity:1"
       d="m 110,39 c 3.44483,2.298492 7.93782,0.641599 11.50696,2.582885 C 122.3309,42.739449 123.73937,43.423975 125,44"
       id="path3084"
       inkscape:connector-curvature="0" />
    <path
       style="fill:#000000;fill-opacity:0;stroke:#34b652;stroke-width:2;stroke-linecap:round;stroke-linejoin:round;stroke-miterlimit:4;stroke-dasharray:4, 4;stroke-dashoffset:0;stroke-opacity:1"
       d="m 145,39 c 3.1763,1.742273 7.40128,1.809844 9.97482,4.26991 1.61097,3.247683 4.77257,5.036956 8.30319,5.20037 C 164.12971,48.571757 168.0707,48.5001 165,49"
       id="path3086"
       inkscape:connector-curvature="0" />
    <path
       style="fill:#000000;fill-opacity:0;stroke:#34b652;stroke-width:2;stroke-linecap:round;stroke-linejoin:round;stroke-miterlimit:4;stroke-dasharray:4, 4;stroke-dashoffset:0;stroke-opacity:1"
       d="m 150,49 c 0.97437,3.059113 5.14287,2.222557 7.56188,3.311246 2.9796,1.933542 6.66584,1.766749 9.66258,3.007433 C 168.38727,56.359136 168.64196,58.181224 170,59"
       id="path3088"
       inkscape:connector-curvature="0" />
    <path
       style="fill:#000000;fill-opacity:0;stroke:#34b652;stroke-width:2;stroke-linecap:round;stroke-linejoin:round;stroke-miterlimit:4;stroke-dasharray:4, 4;stroke-dashoffset:0;stroke-opacity:1"
       d="m 140,49 c 2.6145,3.204879 6.98954,4.106356 9.82669,7.051296 3.6857,0.580007 8.23439,0.02843 10.40323,3.835527 1.50067,2.981761 4.22997,5.606941 7.83438,4.506418 2.432,-0.830947 6.57004,1.174068 7.83443,0.595095"
       id="path3090"
       inkscape:connector-curvature="0"
       sodipodi:nodetypes="ccccc" />
    <path
       style="fill:#000000;fill-opacity:0;stroke:#34b652;stroke-width:2;stroke-linecap:round;stroke-linejoin:round;stroke-miterlimit:4;stroke-dasharray:4, 4;stroke-dashoffset:0;stroke-opacity:1"
       d="m 145,59 c -1.27176,-1.999009 1.99426,1.304671 2.51505,1.887817 1.0352,3.308255 4.58737,4.476155 5.94881,7.322801 0.92764,3.048685 1.71551,6.978334 5.00226,8.29926 0.51156,0.110165 1.04124,0.05307 1.53388,-0.103095"
       id="path3092"
       inkscape:connector-curvature="0" />
    <path
       style="fill:#000000;fill-opacity:0;stroke:#34b652;stroke-width:2;stroke-linecap:round;stroke-linejoin:round;stroke-miterlimit:4;stroke-dasharray:4, 4;stroke-dashoffset:0;stroke-opacity:1"
       d="m 155,64 c 3.6753,-0.143931 4.47385,2.495516 7.44817,4.591688 1.20665,0.917647 3.47439,1.391628 4.2944,2.190416 C 166.12606,70.226452 165.45631,69.704238 165,69"
       id="path3094"
       inkscape:connector-curvature="0" />
    <path
       style="fill:#000000;fill-opacity:0;stroke:#34b652;stroke-width:2;stroke-linecap:round;stroke-linejoin:round;stroke-miterlimit:4;stroke-dasharray:4, 4;stroke-dashoffset:0;stroke-opacity:1"
       d="m 165,79 c 2.18879,2.89751 3.56836,7.557843 8.1794,6.614525"
       id="path3096"
       inkscape:connector-curvature="0"
       sodipodi:nodetypes="cc" />
    <path
       style="fill:#000000;fill-opacity:0;stroke:#34b652;stroke-width:2;stroke-linecap:round;stroke-linejoin:round;stroke-miterlimit:4;stroke-dasharray:4, 4;stroke-dashoffset:0;stroke-opacity:1"
       d="m 176.18644,92.338983 c -1.54959,-2.923126 -6.07354,0.787669 -6.77403,-2.637108 -1.36337,-1.259853 -4.57517,-3.653536 -5.36156,-2.362892"
       id="path3098"
       inkscape:connector-curvature="0"
       sodipodi:nodetypes="ccc" />
  </g>
</svg>
