<?xml version="1.0" encoding="utf-8"?>
<!-- Generator: Adobe Illustrator 28.1.0, SVG Export Plug-In . SVG Version: 6.00 Build 0)  -->
<svg version="1.1" id="Layer_1" xmlns="http://www.w3.org/2000/svg" xmlns:xlink="http://www.w3.org/1999/xlink" x="0px" y="0px"
	 viewBox="0 0 612 792" style="enable-background:new 0 0 612 792;" xml:space="preserve">
<style type="text/css">
	.st0{fill:#FFFFFF;}
	.st1{fill:#32382A;}
	.st2{fill:#3C4432;}
	.st3{fill:#434D38;}
	.st4{fill:#566543;}
	.st5{fill:#BABAB9;}
	.st6{fill:#485E2D;}
	.st7{fill:#7DB342;}
	.st8{fill:#82B942;}
	.st9{fill:#88BE41;}
	.st10{fill:#7AAF42;}
	.st11{fill:#8BBF41;}
	.st12{fill:#7CB342;}
	.st13{fill:#79B142;}
	.st14{fill:#81B742;}
	.st15{fill:#84BB41;}
	.st16{fill:#8CC041;}
	.st17{fill:#88BF41;}
	.st18{fill:#80B842;}
	.st19{fill:#87BF41;}
	.st20{fill:#7BB242;}
	.st21{fill:#7AB042;}
	.st22{fill:#89BF41;}
	.st23{fill:#81B942;}
	.st24{fill:#79AF42;}
	.st25{fill:#516F32;}
	.st26{fill:#9AC645;}
	.st27{fill:#455827;}
	.st28{fill:#5E8239;}
	.st29{fill:#5B8239;}
	.st30{fill:#597E38;}
	.st31{fill:#567233;}
	.st32{fill:#98C746;}
	.st33{fill:#4A5F2B;}
	.st34{fill:#587A37;}
	.st35{fill:#527435;}
	.st36{fill:#8AC041;}
	.st37{fill:#537535;}
	.st38{fill:#5F873B;}
	.st39{fill:#527335;}
	.st40{fill:#547535;}
	.st41{fill:#47632E;}
	.st42{fill:#9AC746;}
	.st43{fill:#52682F;}
	.st44{fill:#48642D;}
	.st45{fill:#547736;}
	.st46{fill:#577A37;}
	.st47{fill:#96C544;}
	.st48{fill:#5B7534;}
	.st49{fill:#5A7E38;}
	.st50{fill:#5E833A;}
	.st51{fill:#405326;}
	.st52{fill:#608339;}
	.st53{fill:#527334;}
	.st54{fill:#557836;}
	.st55{fill:#557936;}
	.st56{fill:#9EC947;}
	.st57{fill:#587C38;}
	.st58{fill:#4E6C31;}
	.st59{fill:#4E6D31;}
	.st60{fill:#4D6D32;}
	.st61{fill:#5C823A;}
	.st62{fill:#60893C;}
	.st63{fill:#4D6C31;}
	.st64{fill:#9FC947;}
	.st65{fill:#99C746;}
	.st66{fill:#99C745;}
	.st67{fill:#50672E;}
	.st68{fill:#9DC846;}
	.st69{fill:#A1CA48;}
	.st70{fill:#465827;}
	.st71{fill:#5C7433;}
	.st72{fill:#97C544;}
</style>
<g>
	<g>
		<path class="st0" d="M82.51,522.96c0-76.34,0.01-152.69-0.06-229.03c0-2.27,0.51-2.79,2.79-2.79c152.69,0.06,305.37,0.06,458.06,0
			c2.27,0,2.79,0.51,2.79,2.79c-0.06,152.69-0.06,305.38,0,458.06c0,2.27-0.51,2.79-2.79,2.79c-152.69-0.06-305.37-0.06-458.06,0
			c-2.27,0-2.79-0.51-2.79-2.79C82.52,675.65,82.51,599.3,82.51,522.96z"/>
		<path class="st1" d="M256.7,508.24c-2.01,0.1-4.03,0.18-6.04,0.31c-2.39,0.16-3.34-1.22-3.37-3.31c-0.02-1.61-0.04-3.33,0.49-4.8
			c0.97-2.64-0.08-3.69-2.38-4.78c-5.29-2.51-10.54-5.1-16.11-6.95c-1.55-0.51-3.11-0.87-4.74-0.9c-0.68,0.36-1.2,0.29-1.45-0.52
			c1.3-2.19,3.33-1.59,5.12-1.13c5.21,1.34,10.11,3.48,14.9,5.9c0.36,0.18,0.69,0.42,1.04,0.62c4.09,2.29,4.33,2.24,6.96-1.57
			c0.64-1.27,1.69-2.16,2.81-2.99c2.52-2.53,5.91-1.73,8.92-2.18c8.53-1.26,15.53,1.22,20.26,8.91c1.7,2.77,2.5,5.75,2.71,8.88
			c0.16,2.36,0.97,3.16,3.2,2.15c6.43-3.81,13.09-3.96,20.08-1.59c4.29,1.45,8.66,2.25,13.36,1.69c5.98-0.72,10.49-3.76,14.84-7.5
			c5.9-5.08,10.17-11.14,11.91-18.83c0.15-0.69,0.38-1.39,0.78-1.96c4.41-6.24-1.59-15.94-8.45-17c-4.34-0.67-8.65-0.27-12.95-0.82
			c-0.61-0.26-1.34-0.45-1.06-1.39c2.82-5,6.61-9.42,8.65-14.88c1.53-4.07,1.19-7.88-1.17-11.56c-2.18-3.4-4.22-6.89-6.36-10.32
			c-2.3-3.69-3.23-7.73-2.15-11.91c2.09-8.1,3.93-16.33,7.26-24.02c3.45-7.98,9.37-14.41,15.56-20.33
			c6.11-5.85,12.9-11.01,19.48-16.36c7.33-5.96,16.23-8.32,25.1-10.83c13.84-3.91,24.76,0.47,33.62,11.25
			c1.15,1.4,2.23,2.9,3.54,4.14c7.16,6.72,6.3,15.33,5.57,23.81c-1.77,20.44-11.6,36.98-25.87,51.04
			c-5.3,5.22-11.67,9.31-17.82,13.57c-6.49,4.49-13.19,3.16-19.55,0.16c-4.13-1.95-7.88-2.32-11.86-0.37
			c-7.32,3.58-13.21,8.87-18.03,15.4c-0.83,1.12-0.79,1.57,0.68,2.05c5.75,1.88,8.2,6.49,9.38,11.98c0.23,1.05,0.34,2.38-0.1,3.29
			c-2.65,5.45-3.2,11.85-6.82,16.77c-7.35,10-16.03,18.06-29.78,17.11c-3.26-0.22-6.38-1.05-9.42-2.16c-2.7-0.98-5.5-1.26-8.32-1.47
			c-2.2-0.16-4.19,0.44-6.31,2.45c4.18,0.54,7.26,2.99,11.4,2.94c8.17-0.1,16.43-1.04,24.51,0.49c7.63,1.44,15.25,2.9,22.98,3.71
			c5.52,0.58,10.02-1.62,13.75-5.63c4.18-4.5,8.14-9.26,12.69-13.35c6.18-5.55,13.95-7.95,22.08-7.82
			c14.04,0.23,28.11,1.33,41.91,3.84c16.47,3,31.98,9.08,46.73,17.14c12.96,7.09,24.83,15.55,34.62,26.64
			c5.71,6.47,10.42,13.68,12.62,22.2c2.33,9.04,0.05,17.36-3.1,25.94c-3.08,8.4-9.17,11.4-16.92,13.03
			c-22.34,4.71-44.65,3.79-66.79-1c-18.36-3.97-36.44-9.05-54.2-15.26c-4.16-1.45-8.55-2.31-13.12-3.88
			c1.56,4.53,3.15,8.71,4.43,12.98c2.29,7.63,4.82,15.21,5.91,23.15c0.43,3.11,0.02,5.99-1.45,8.79
			c-3.01,5.71-5.45,11.88-10.68,16.01c-14.1,11.11-29.13,14.59-45.86,5.58c-12.56-6.77-22.97-15.73-28.52-28.98
			c-4.71-11.26-4.36-22.89,1.47-33.99c1.13-2.15,2.25-4.3,3.46-6.4c0.9-1.56,1.19-3.22,0.98-4.96c-0.81-6.43-2.09-12.77-4.21-18.9
			c-0.61-1.75-1.93-3.25-3.32-5.48c-0.39,2.34-0.6,4.05-0.96,5.73c-2.75,12.95-10.93,21.76-21.85,28.4
			c-3.28,1.99-6.7,3.74-10.06,5.59c-3.88,2.13-8.21,2.88-12.46,3.49c-5.26,0.76-9.4-2.23-13.49-5.15
			c-7.76-5.54-10.23-13.42-10.4-22.42c-0.02-0.81-0.04-1.62-0.06-2.43c-0.02-1.25-0.22-1.99-1.73-1.07
			c-6.49,3.93-11.69,9.3-16.5,15.04c-1.97,2.34-1.17,5.28-0.35,7.87c2.37,7.4,5.04,14.68,8.14,21.83
			c3.44,7.95,5.16,16.35,3.74,25.12c-0.34,2.13-1.28,3.96-2.47,5.78c-8.98,13.78-21.32,24.44-32.98,35.75
			c-5.5,5.33-11.69,9.94-16.56,15.93c-5.02,6.17-11.94,9.67-19.03,12.55c-10.48,4.26-21.15,8.19-32.56,9.14
			c-8,0.66-16.08,1.97-23.92-1.31c-3.27-1.37-5.92-3.37-7.94-6.3c-5.14-7.45-7.26-15.65-7.84-24.72
			c-1.23-19.38,5.54-36.32,14.93-52.49c6.9-11.89,14.86-23.06,25-32.54c4.95-4.63,9.2-9.9,13.43-15.2
			c7.06-8.85,16.34-13.25,27.75-12.93c5.74,0.16,11.45,0.93,17.21,0.13c3.08-0.42,6.22-0.44,9.36,0.01
			c6.8,0.98,12.47-2.06,17.78-5.66c8.6-5.84,16.95-12.06,25.55-17.91c3.6-2.45,5.83-6.12,8.98-8.93c0.75-0.67,1.45-1.5,2.33-1.92
			c7.59-3.62,9.74-11.35,13.57-17.81c-0.2-0.28-0.25-0.58-0.17-0.91c0.15-0.3,0.4-0.5,0.73-0.59c1.27-0.13,1.81,0.5,1.81,1.71
			c-2.24,5.1-5.28,9.75-8.26,14.42c-1.02,1.59-2.53,2.92-4.25,3.83c-7.36,3.89-10.78,10.66-12.32,18.24
			c-1.46,7.22-1.56,14.67-0.34,22.02c1.42,8.6,9.35,16.8,17.95,18.46c3.91,0.76,7.77-0.46,11.21-1.87
			c8.71-3.59,16.95-8.12,23.68-14.96c6.97-7.09,10.59-15.53,11.18-25.48c0.38-6.44,1.91-12.79,1.75-19.29
			c-0.04-1.62-0.12-3.23-0.57-4.8c-1.71-5.86-5.19-8.59-11.29-8.63c-2.54-0.02-5-0.72-7.55-0.57c-0.91-0.34-1.07-1.14-1.2-1.96
			c-0.47-4.72-0.98-9.27-4.33-13.23c-3.92-4.63-8.7-5.86-14.33-5.37c-0.7,0.06-1.39,0.26-2.09,0.35c-7.72,0.97-12.2,5.6-12.81,13.32
			c-0.11,1.39-0.29,2.84,0.71,4.06c1.03,0.86,2.26,0.42,3.4,0.58C254.83,507.14,256.18,506.72,256.7,508.24z"/>
		<path class="st2" d="M254.18,488.93c-0.95,0.66-1.89,1.34-2.34,2.48c-5.8-3.46-11.24-7.45-16.8-11.28
			c-6.02-4.15-7.41-9.64-6.27-16.32c0.46-2.68,0.76-5.39,1.19-8.08c0.68-4.27-0.35-8.01-2.94-11.35
			c-5.48-7.08-13.02-11.62-20.3-16.52c-6.76-4.55-13.96-3.57-21.28-2.39c-1.09-0.16-2.47,0.29-2.86-1.35
			c3.89-0.58,7.76-1.28,11.67-1.71c6.55-0.71,11.88,2.36,17.07,5.79c4.21,2.78,8,6.09,11.93,9.22c3.6,1.24,5.02,4.69,7.34,7.23
			c2.45,3.64,2.85,7.67,2.32,11.92c-0.53,4.21-1.6,8.34-1.62,12.62c-0.01,2.27,0.68,4.11,2.31,5.7c3.71,3.64,8.04,6.44,12.35,9.27
			c1.11,0.73,1.85,0.72,2.05-0.83c0.6-4.84,3.91-7.28,8.02-9.02c3.82-1.62,7.8-2.8,11.7-4.21c2.16-0.78,2.35-1.68,1.23-3.52
			c-1.94-3.19-2.99-6.85-5.16-9.94c-1.96-2.79-4.19-4.5-7.89-3.46c-4.36,1.23-8.4,0.64-12.39-1.92c-4.14-2.66-9.05-4.03-12.99-7.13
			c-2.18-2.27-4.15-4.72-6.13-7.16c-6.39-7.86-9.47-17.28-12.1-26.8c-1.96-7.09-3.53-14.32-4.69-21.59
			c-1.25-7.87-0.23-15.71,2.04-23.36c1.29-4.35,2.48-8.74,4.49-12.85c3.92-7.98,11-11.1,19.19-12.57
			c14.62-2.62,27.06,1.93,36.44,12.95c7.44,8.74,13.3,18.78,17.19,29.76c5.68,16.04,7.13,32.46,4.52,49.27
			c-0.78,5.03-3.09,9.33-5.93,13.44c-1.55,2.24-3.02,4.55-4.29,6.95c-1.28,2.4-1.85,5.3-0.54,7.61c5.88,10.37,7.8,21.97,10.81,33.25
			c0.12,0.45,0.39,0.86,0.66,1.44c1.95-1.29,2.18-3.24,1.9-4.93c-1.22-7.34,1.81-12.93,7.26-17.24c7.84-6.21,15.85-12.3,26.21-13.8
			c0.26,0.59,0.8,0.73,1.36,0.81c-0.28,1.52-1.65,1.3-2.63,1.52c-10.19,2.33-18.29,8.36-25.82,15.09c-3.24,2.9-4.98,7.03-4.34,11.76
			c0.44,3.24-0.15,6.25-2.85,8.49c-0.63,0.52-1.33,0.96-2.14,1.08c-1.14,0.17-1.75-0.09-2.01-1.5c-1.96-10.99-3.43-22.12-9.17-32.06
			c-3.07-5.32-2.89-10.64,0.91-15.6c4.48-5.85,8.14-12,8.91-19.58c0.95-9.4,0.63-18.7-0.68-28.07c-2.36-16.81-9.46-31.6-19.61-44.77
			c-9.54-12.39-25.61-18.07-41.24-12.67c-6.98,2.41-11.27,7.13-13.75,13.86c-3.56,9.67-6.16,19.57-4.87,29.92
			c1.13,9,2.7,18,5.61,26.64c2.19,6.49,4.23,13.1,8.51,18.66c4.65,6.05,9.53,11.82,17.08,14.43c0.48,0.16,0.94,0.39,1.36,0.66
			c4.56,2.94,9.25,4.53,14.83,2.92c3.25-0.94,6.05,0.46,8.12,3.37c1.54,2.15,2.93,4.35,4.09,6.71c3.17,6.43,6.64,12.73,8.65,19.67
			c0.1,0.98,0.17,1.96-0.83,2.58c-1.28-0.07-1.51-1.17-1.94-2.04c-0.94-1.9-1.66-3.89-2.4-5.87c-0.67-1.8-1.95-2.52-3.82-1.84
			c-4.26,1.54-8.66,2.7-12.76,4.67c-2.68,1.29-4.59,3.22-5.31,6.19c-0.77,3.17-0.64,3.48,2.37,4.73
			C253.55,488.45,253.91,488.61,254.18,488.93z"/>
		<path class="st3" d="M223.25,487.17c0.27,0.54,0.82,0.54,1.31,0.65c-2.5,1.12-4.05,3.14-5.48,5.41
			c-3.27,5.2-7.83,9.08-13.63,10.96c-4.4,1.43-9.07,1.36-13.75,0.66c-5.49-0.83-11.25-1-16.21-3.39
			c-7.39-3.56-14.05-8.35-17.96-16.02c-0.87-1.71-1.68-3.46-2.71-5.06c-4.5-7.02-3.9-14.56-2.38-22.21
			c0.86-4.32,0.67-8.89,3.05-12.85c0.87,0.09,0.91,0.78,1.01,1.42c-0.98,5.26-1.44,10.61-2.45,15.84
			c-1.26,6.57,0.46,12.19,3.2,18.05c3.59,7.69,9.32,13.05,16.16,17.57c2.35,1.55,5.05,2.08,7.71,2.55
			c5.16,0.92,10.33,1.72,15.59,2.12c8.07,0.62,14.02-2.8,18.94-8.72c1.04-1.25,1.71-2.77,2.77-3.97
			C219.72,488.74,220.78,486.78,223.25,487.17z"/>
		<path class="st4" d="M155.96,446.54c-0.15-0.4-0.31-0.8-0.46-1.21c6.02-10.92,15.34-17.63,27.1-21.21
			c0.87,0.94,2.05,0.33,3.05,0.59c0.05,1.22-0.96,1.1-1.68,1.28c-10.87,2.76-19.29,8.95-25.6,18.14
			C157.74,445.06,157.52,446.51,155.96,446.54z"/>
		<path class="st5" d="M229.97,444.64c-2.11-2.53-4.2-5.07-6.71-7.23c0.37-0.15,0.75-0.31,1.12-0.46c2.65,1.6,4.1,4.37,6.28,6.43
			C230.58,443.88,230.45,444.36,229.97,444.64z"/>
		<path class="st6" d="M256.7,508.24c-2.3-1.35-5.07,0.51-7.34-1.07c3.76-1.18,7.56-1.71,11.45-0.67c0,0.39,0,0.79,0,1.18
			C259.44,507.87,258.07,508.06,256.7,508.24z"/>
		<path class="st7" d="M254.18,488.93c-4.27-0.17-4.88-0.98-4.25-4.97c0.52-3.28,2.22-5.71,5.16-6.95
			c4.72-1.98,9.56-3.66,14.38-5.38c1.86-0.66,3.04,0.18,3.72,2c1.09,2.92,2.28,5.8,3.43,8.69c0.86,0.61,0.94,1.67,1.08,1.93
			c-0.7-0.96,0.32-2.82-0.44-4.4c-2.63-7.11-5.98-13.89-9.43-20.62c-1.01-1.98-2.27-3.78-3.56-5.6c-1.68-2.37-3.91-3.61-6.47-2.79
			c-6.53,2.09-11.66-0.96-17.3-3.44c-10.26-4.5-16.93-12.34-21.57-21.96c-4.26-8.8-6.89-18.25-8.3-27.98
			c-0.76-5.27-2.18-10.4-2.15-15.84c0.06-10.03,3-19.26,6.75-28.36c2.83-6.85,8.63-9.99,15.22-11.79
			c11.65-3.17,22.37-0.84,31.99,6.41c11.19,8.44,17.13,20.59,22.17,33.04c6.49,16.03,8.01,32.83,5.55,49.99
			c-0.96,6.7-4.6,11.96-8.39,17.21c-4.03,5.6-4.24,10.21-0.65,15.99c4.02,6.49,5.23,13.88,6.88,21.14c0.65,2.84,1.05,5.78,2.33,8.43
			c0.56,1.17-0.16,1.83-0.66,2.67c1.42,0.9,2.28-0.49,3.38-0.68c0.87,1.64-0.33,2.6-1.27,3.57c-0.82,0.85-1.89,1.45-2.67,2.36
			c-1.9,2.22-1.81,3.21,0.46,5.02c-3.81,0.98-4.14,0.78-4.5-2.76c-0.92-8.94-5.72-15.34-14.06-17.01
			C265.4,485.75,259.5,485.92,254.18,488.93z"/>
		<path class="st8" d="M155.96,446.54c6.73-11.59,16.69-18.78,29.69-21.83c2.39-0.35,4.77-0.92,7.17-0.99
			c4.21-0.13,8.27,0.07,12.21,2.32c6.7,3.83,12.77,8.41,18.62,13.39c6.51,5.55,8.53,12.4,6.55,20.61c-0.64,2.64-0.7,5.38-1.01,8.08
			c-0.5,4.33,1.25,7.27,4.52,9.86c5.38,4.26,10.89,8.32,16.92,11.6c0.79,0.43,1.34,0.86,1.21,1.83c-0.06,0.08-0.13,0.15-0.19,0.24
			c-3.13,4.5-3.09,4.42-8.2,1.53c-4.99-2.82-10.33-4.88-15.85-6.42c-1.47-0.41-2.98-0.53-4.35,0.41c-2.37,0.94-3.84,2.75-5.17,4.86
			c-4.38,6.97-10.49,11.63-18.91,11.83c-6.34,0.15-12.66-1.05-18.85-2.48c-10.35-2.4-17.62-8.83-22.49-18.12
			c-1.12-2.14-2.14-4.34-3.22-6.5c-1.62-3.24-2.47-6.66-1.85-10.25C153.91,459.86,154.09,453.06,155.96,446.54z"/>
		<path class="st9" d="M530.19,547.24c7.4,11.85,7.24,23.92,1.16,36.23c-1.33,2.7-2.48,5.47-4.93,7.41c-1.69,0.9-2.44-0.18-2.92-1.5
			c-1.28-3.56-3.94-5.18-7.54-5.66c-1.4-0.18-2.8-0.41-4.18-0.72c-1.97-0.44-3.57-1.37-4.23-4.02c-0.64,3.17-2.64,3.87-4.84,3.6
			c-7.47-0.93-15-0.73-22.45-2.81c-6.62-1.85-13.61-2.74-20.51-3.69c-5.18-0.71-10.36-1.56-15.39-3.05
			c-1.21-0.36-2.26-0.9-2.66-2.22c-0.35-1.89-0.13-3.8-0.16-5.7c0-0.23,0-0.4-0.13-0.5c-0.02,0.07-0.05,0.13-0.07,0.24
			c-0.06,0.95-0.02,1.86-0.21,2.75c-0.59,2.81-2.47,4.07-5.11,3.03c-8.93-3.49-18.2-5.75-27.47-8.07c-4.88-1.22-5.1-1.56-5.31-6.55
			c-0.02-0.5-0.05-1.01-0.16-1.5c-0.18-0.56-0.26-1.15-0.64-1.81c0.42,1.25,0.61,2.4,0.59,3.59c-0.52,3.73-1.93,4.69-5.44,3.93
			c-9.99-2.17-19.74-5.29-29.71-7.55c-1.42-0.32-2.13-1.28-2.85-2.34c-1.6-7.56-5.84-13.15-12.59-16.88
			c-1.71-1.66-1.36-3.24,0.32-4.59c4.39-3.52,7.14-8.1,8.76-13.4c0.33-1.08,1.22-1.55,1.83-2.31l-0.03,0.02
			c1.97-0.65,3.49-1.91,4.83-3.46c1.45-1.68,3.22-2.29,5.4-1.35c2.47,1.06,5.03,0.95,7.69,0.71c5.48-0.5,10.99-1,16.5-0.21
			c1.93,0.28,3.78,0.77,4.52,2.93c0.27,1.29,0.28,1.29,0.66,0.56c0.18-0.34,0.35-0.68,0.59-0.99c1.34-1.47,2.98-1.71,4.92-1.59
			c8.01,0.51,15.95,1.63,23.88,2.79c3.29,0.48,6.57,1.07,9,3.68c0.24,0.18,0.5,0.33,0.78,0.45c4.45-1,8.5,0.39,12.6,1.89
			c6.24,2.29,12.55,4.44,18.92,6.33c2.95,0.88,5.69,1.98,8.04,3.96c0.29,0.03,0.58,0.06,0.87,0.06c1.97-0.18,3.75,0.41,5.57,1.15
			c5.58,2.25,10.69,5.27,15.38,8.99c3.41,2.71,7.09,5.06,10.79,7.29c3.64,2.18,7.71,3.72,11.97,0.94
			C527.45,546.49,528.86,546.2,530.19,547.24z"/>
		<path class="st10" d="M530.19,547.24c-1.1,0.02-2.25-0.23-3.23,0.45c-5.39,3.73-9.98,1.2-14.66-1.68
			c-8.34-5.12-15.55-12.05-24.97-15.48c-1.88-0.68-3.65-0.93-5.56-0.87c-0.49-2.04,1.45-3.64,1.04-5.67
			c0.34,2.03-1.58,3.64-1.06,5.7c-0.07,0.07-0.14,0.15-0.21,0.22c-4.33-4.44-10.45-4.74-15.83-6.64
			c-6.01-2.12-11.96-4.47-18.18-6.09c-2.21-0.58-3.89,0.92-5.83,0.27c0.87-1.41,0.33-3.1,0.9-4.57c-0.55,1.48-0.12,3.15-0.89,4.59
			c-3.77-4.1-9.02-3.97-13.9-4.66c-6.93-0.99-13.89-1.72-20.84-2.48c-1.41-0.15-2.36,0.98-3.42,1.73c-1.55-1.68,0.58-3.41-0.07-4.81
			c-0.52,1.65,0.25,3.99-1.82,5.44c0.11-2.25-1.76-2.71-3.21-2.93c-2.27-0.35-4.76-0.93-6.85-0.57c-3.81,0.67-7.65-0.14-11.41,0.89
			c-2.27,0.62-4.82,0.33-6.77-0.82c-2.48-1.45-3.85-0.38-5.03,1.4c-1.26,1.89-2.81,2.81-5.07,2.49c4.35-4.75,8.76-9.45,13.03-14.28
			c5.79-6.56,13.51-9.6,21.74-9.79c15.33-0.35,30.66,1.25,45.71,4.11c15.12,2.87,29.35,8.61,43.02,15.8
			c13.43,7.07,25.55,15.73,35.69,27.05C525.55,539.44,528.12,543.18,530.19,547.24z"/>
		<path class="st11" d="M409.03,339.08c8.65,1.6,14.4,7.21,19.32,13.96c1.46,2.4,1.57,4.36-1.17,6.15
			c-1.58,1.03-2.28,3.04-3.01,4.82c-0.77,1.87-1.53,3.73-2.55,5.49c-1.03,1.76-2.28,2.85-4.64,2.03c2.6,2.91,2.6,3.9,1.26,6.87
			c-1.95,4.31-3.59,8.74-6.01,12.85c-4.71,8-8.92,16.35-14.84,23.52c-4.21,5.1-8.79,9.94-14.93,13.07
			c-5.73,2.92-11.1,6.56-16.54,10.01c-1.2,0.76-2.41,1.42-3.71,1.95c-0.53,0.31-0.97,0.82-1.68,0.71c-2.9,1.09-5.54,0.92-8.36-0.71
			c-3.13-1.81-6.54-3.13-9.69-4.98c-2.26-1.33-3.54-3.16-4.05-5.71c-0.7-3.51-0.96-6.93,0.21-10.45c0.79-2.37,0.25-5.03,1.1-7.46
			c1.03-2.97,1.91-6.01,4.7-7.91c0.86-0.59,1.14-1.31,0.9-2.33c-0.41-1.7,0.25-3.19,1.13-4.58c2.32-3.67,4.58-7.37,7.97-10.22
			c9.59-8.05,17.94-17.49,27.75-25.27c5.73-4.54,10.17-10.37,15.91-14.84c0.79-0.62,1.29-1.55,1.77-2.44
			C402.14,339.38,404.03,338.44,409.03,339.08z"/>
		<path class="st12" d="M218.41,590.94c4.64,9.44,8.72,19.08,8.99,29.81c0.1,4.07-1.07,7.65-3.46,11.28
			c-8.86,13.42-21.07,23.65-32.24,34.86c-4.59,4.61-10.06,8.34-14.54,13.13c-1.15-1.19-1.98-0.22-2.86,0.43
			c-5.53,4.06-10.91,8.45-17.2,11.25c-4.31,1.93-8.49,4.8-13.63,4.1c-2.41-0.33-4.95-0.65-6.14-3.21c-1.24-2.66,0.04-4.81,1.52-7
			c2.53-3.75,5.79-6.75,9.41-9.34c1.57-1.12,2.24-2.4,2.25-4.19c2.6-0.21,4.62,1.53,6.71,1.8c-2.03-1.12-5.11-0.94-7.01-3.22
			c-0.09-1.13,0.81-1.54,1.55-2.03c8.19-5.38,15.59-11.78,22.87-18.26c2.72-2.42,5.7-5.13,6.56-9.1c0.15-0.14,0.31-0.28,0.49-0.3
			c0.79-0.1,1.06-0.43,0.89-1.17c6.74-5.62,10.46-13.03,12.62-21.36c0.15-0.58,0.18-1.23,0.49-1.74c1.89-3.05,2.45-6.51,3.12-9.94
			c0.17-0.12,0.39-0.29,0.53-0.22c3.62,1.69,7.19,3.51,11.03,3.91c-0.52-0.74-1.76-0.35-2.72-0.63c-3.16-0.9-6.4-1.61-8.24-4.77
			c2.48-3.24,4.61-6.77,7.97-9.29c2.49-1.87,5.11-3.33,8.3-2.67C217.69,593.5,217.55,591.7,218.41,590.94z"/>
		<path class="st13" d="M365.03,550.32c1.68,1.47,3.76,1.6,5.85,1.95c4.75,0.79,9.05,3.17,13.83,4.02c4.22,0.75,8.4,1.85,12.54,2.98
			c3.94,1.08,4.86,0.5,5.04-3.62c1.08,0.02,0.87,0.7,0.77,1.37c0.43-0.99-0.76-2.29,0.5-3.14c0.74,0.75,0.62,1.72,0.5,2.58
			c-0.42,3.09,0.85,4.47,3.92,5.21c6.33,1.52,12.69,2.86,18.88,5.12c3.11,1.13,6.47,1.82,9.59,3.21c2.16,0.96,3.61-0.15,4.01-2.63
			c0.2-1.26-0.44-2.65,0.57-3.79c1.07,0.98,0.53,2.27,0.66,3.42c0.12,1.08-0.26,2.24,0.57,3.19c0.11,1.38,1.03,1.66,2.22,1.99
			c8.69,2.38,17.7,2.99,26.45,4.92c3.98,0.88,8.21,0.48,12,2.49c2.81,1.5,6.11,1.06,9.17,1.47c3.46,0.46,7.02,0.19,10.53,0.7
			c2.32,0.34,4.35-0.14,4-3.3c-0.07-0.61,0.07-1.32,0.85-1.36c0.79-0.04,0.99,0.62,0.95,1.26c-0.21,3.31,2.22,3.64,4.56,4.04
			c3.44,0.58,7.08,0.52,9.64,3.55c0.79,0.93,1.68,1.69,1.63,3.09c-0.06,1.44,0.9,1.9,2.2,1.84c-5.59,3.93-12.19,4.5-18.63,5.5
			c-26.62,4.11-52.44-0.03-78.07-7.24c-15.06-4.23-29.94-9.03-44.94-13.44c-3.08-0.9-5.33-2.63-7.19-5.16
			c-2.47-3.35-5.35-6.39-8.72-8.79c-2.44-1.74-3.34-3.85-3.46-6.61C365.34,553.54,365.16,551.93,365.03,550.32z"/>
		<path class="st14" d="M284.53,508.99c5.17-0.27,10.62-1.18,15.01,2.3c3.73,2.95,5.36,7.31,5.13,12.11
			c-0.47,10.18-1.16,20.44-3.91,30.23c-2.63,9.36-9.22,16.3-17.28,21.53c-7.27,4.73-14.71,9.22-23.59,10.53
			c-5.33,0.79-9.26-1.76-13.31-4.55c-7.48-5.17-9.96-12.58-10.06-21.21c-0.11-9.26,0.18-18.41,5.33-26.62
			c1.91-3.05,4.3-5.61,7.53-7.25c2.13-1.08,4-2.52,5.22-4.49c2.81-4.54,5.38-9.23,8.04-13.86c0.95-1.39,2.38-1.41,3.8-1.21
			c4.68,0.67,9.42,1.23,13.71,3.4C282.01,510.84,283.2,509.87,284.53,508.99z"/>
		<path class="st15" d="M289.57,506.64c-3.04-0.36-3.47-1.1-2.22-3.83c0.65-1.43,1.72-2.54,3.01-3.33c1.49-0.91,2.41-2.09,2.7-3.8
			c2.01-2.12,2.75-4.66,2.33-7.51c-0.87-5.9,1.68-10.48,5.91-14.1c8.09-6.94,16.9-12.69,27.62-14.77c4.75-0.27,9.45-0.24,14.12,1.08
			c7.3,2.07,11.07,9.7,8.08,16.65c-0.8,1.85-1.4,3.79-1.97,5.73c-2.87,9.87-9.87,16.39-18.22,21.41c-6.38,3.82-13.53,3.52-20.57,1.4
			c-2.51-0.75-4.99-1.56-7.59-2.05C297.85,502.62,293.67,504.38,289.57,506.64z"/>
		<path class="st12" d="M409.03,339.08c-2.32-0.41-4.21,1.26-6.43,1.33c-0.58,0.02-0.86,0.48-0.97,1c-1,4.79-5.31,6.87-8.27,10.03
			c-8.73,9.33-19.32,16.65-28.04,26.02c-3.27,3.51-7.08,6.55-10.79,9.63c-3.26,2.71-5.2,6.36-7.49,9.76
			c-0.89,1.32-1.68,2.77-0.8,4.52c0.37,0.73,0.31,1.57-0.57,2.11c-4.86,2.93-5.41,7.88-5.88,12.82c-0.13,1.31-0.23,2.55-0.73,3.81
			c-1.93,4.94,0.36,11.9,4.91,14.56c3.54,2.07,7.16,4.06,10.94,5.62c1.62,0.67,3.73,0.18,5.62,0.21
			c-7.5,4.22-13.89,9.68-18.69,16.89c-0.53,0.79-1.13,0.92-2.05,0.84c-3.19-0.27-6.34-0.98-9.89-0.36c1.21-3.01,2.87-5.27,4.48-7.55
			c4.83-6.85,6.04-13.74,0.74-20.98c-1.84-2.52-3.26-5.34-4.98-7.96c-3.02-4.59-3.22-9.6-1.61-14.54c1.85-5.66,3.45-11.38,5.1-17.09
			c2.09-7.24,6.77-12.96,11.77-18.12c10.1-10.43,20.59-20.72,33.83-27.08c8.12-3.9,16.94-6.6,26.27-6.17
			C406.7,338.45,407.96,338.32,409.03,339.08z"/>
		<path class="st16" d="M191.9,561.73c1.56,0.01,3.11,0.03,4.67,0.04c2.1,0.97,4.2,1.97,5.98,3.49c7.41,6.31,7.88,15.63,1.05,22.95
			c-3.86,4.13-8.01,7.98-11.68,12.3c-5.74,6.77-11.7,13.33-16.9,20.57c-4,5.56-8.63,10.66-12.67,16.22
			c-1.79,2.46-3.39,5.02-5.08,7.52c-4.53,6.69-9.96,12.72-14.37,19.49c-0.43,0.59-0.74,1.22-0.85,1.96
			c-1.12,3.46-3.54,6.14-5.69,8.88c-3.33,4.26-6.52,8.72-11.88,10.96c-8.2,3.43-16.93-0.73-17.22-10.92
			c-0.26-9.46,3.07-18.01,7.77-26.07c0.14-0.27,0.32-0.52,0.51-0.76c3.46-4.97,6.52-10.2,9.87-15.25c4.86-7.32,10-14.44,15.02-21.64
			c9.22-13.23,20.53-24.62,31.4-36.41c3.81-4.13,7.4-8.51,12.41-11.39C186.68,562.29,188.98,560.94,191.9,561.73z"/>
		<path class="st12" d="M362.21,439.8c5.25-3.81,10.63-7.37,16.42-10.38c6.8-3.54,12.91-8.26,17.59-14.34
			c4.15-5.38,8.4-10.81,11.14-17.13c1.25-2.88,3.17-5.35,4.79-7.96c2.58-4.15,3.6-8.92,6.04-13.07c0.98-1.68,0.24-3.15-1.14-4.23
			c-0.79-0.61-1.69-1.03-1.91-2.13c0.28-0.12,0.53-0.32,0.62-0.26c2.85,1.76,4.47,0.76,5.81-2.11c1.26-2.71,1.99-5.7,3.87-8.12
			c0.3-0.39,0.41-1.17,0.75-1.27c3.34-0.97,2.32-3.51,2.17-5.74c6.72,5.65,7.77,13.04,7.15,21.31c-1.7,22.47-11.78,40.58-28.34,55.3
			c-4.65,4.13-10,7.49-15.14,11.04c-5.35,3.69-11.23,3.37-16.74,0.79C370.94,439.44,366.82,438.37,362.21,439.8z"/>
		<path class="st17" d="M379.3,635.88c-1.74,2.51-4.46,3.73-7.03,5.01c-4.35,2.17-8.66,4.51-13.57,5.29
			c-1.58,0.49-3.21,0.1-4.81,0.24c-1.5,0.12-2.17-0.63-1.76-2c2.05-6.84-1.83-10.81-6.75-14.37c-3.43-2.49-7.23-4.46-10.54-7.06
			c-4.46-3.5-7.9-8.02-10.9-12.88c-2.93-4.74-5.29-9.74-7.19-14.95c-1.35-3.69-3.41-6.84-6.16-9.59c-1.38-1.39-2.58-2.89-1.84-5.07
			c1.35-2.42,2.32-5.06,4.13-7.22c0.85-2.6,0.66-5.21,0.11-7.83l0.02,0.03c-0.67-1.41,0.01-2.33,1.18-2.96
			c2.86-1.55,5.31-3.53,7.17-6.25c0.74-1.08,1.81-1.94,3.34-1.21c4.15,3.18,8.97,2.53,13.7,2.42c4.49-0.51,8.99-0.09,13.48-0.24
			c1.29-0.04,1.94,0.74,1.92,1.82c-0.06,3.66,1.08,7.09,1.76,10.6c0.88,0.55-1.97,1.76,0.38,2.05c3.85,1.17,5.58,4.54,7.52,7.53
			c4.28,6.63,7.09,13.95,9.96,21.29c1.74,4.45,4.38,8.61,7.74,12.17c1.48,1.57,3.58,1.77,5.42,2.56c1.71,0.73,3.38,1.44,3.67,3.6
			c-2.73,6.28-5.31,12.66-10.99,17.03c-0.73-1.27,0.3-2.07,0.83-2.97c2.07-3.52,1.77-6.18-0.55-9.49c-3.03-4.3-5.15-9.13-7.56-13.79
			c-4.68-9.07-8.89-18.47-15.57-26.27c-5.69-6.65-11.19-13.58-18.48-18.68c-2.59-1.81-4.88-2.78-8.29-1.01
			c-2.54,1.32-5.16,2.17-7.47,4.16c-5,4.31-3.84,9.15-1.78,13.41c1.18,2.45,2.62,4.82,4.31,6.95c3.63,4.57,6.65,9.56,10.17,14.21
			c2.94,3.89,6.39,7.22,9.52,10.87c2.98,3.47,5.92,7.2,10.81,8.27c0.28,0.06,0.42,0.41,0.48,0.72c-1.84,1.63-3.86,3.01-6.01,4.22
			c1.35-0.65,2.65-1.36,3.74-2.43c0.64-0.62,1.45-1.14,2.37-0.37c2.13,5.4,6.23,9.22,10.51,12.82c2.28,1.92,6.33,1.72,8.99,0.05
			C376.51,635.82,377.69,634.56,379.3,635.88z"/>
		<path class="st18" d="M101.88,619.96c3.02-6.37,7.77-11.58,11.68-17.35c2.9-4.28,6.26-8.16,10.06-11.6
			c5.72-5.19,10.63-11.03,15.38-17.08c4.4-5.59,9.76-9.91,16.93-11.48c1.1,2.04,3.11,3.11,4.87,4.41c2.26,1.68,3.25,3.57,2.56,6.49
			c-0.55,2.34-0.98,4.7-1.71,6.99c-1.64,0.88-2.81-0.4-4.11-0.97c-1.31-0.58-2.48-1.46-3.83-1.95c2.7,0.8,4.62,3.57,7.84,3.06
			c1.45,0.89,0.59,1.64-0.33,1.8c-3.28,0.58-5.2,3-7.14,5.23c-3.67,4.23-7.92,7.96-10.88,12.82c-1.11,1.82-2.17,3.57-2.29,5.74
			c-0.91,0.5-1.87,0.15-2.58-0.26c-4-2.28-8.33-4.04-11.8-7.2c3.78,3.64,8.74,5.36,13.12,8.03c0.1,0.42,0.05,0.87-0.29,1.11
			c-4.62,3.3-6.78,8.38-9.39,13.11c-2.78,5.04-6.63,9.41-9.21,14.55c-2.07,4.12-5.34,7.56-6.63,12.09
			c-2.72,0.51-4.35-1.28-6.07-2.87c-1.36-2.29-0.5-4.12,0.99-6.04c4.88-6.27,8.44-13.19,9.65-21.15c0.42-2.75-1.66-2.18-2.95-1.85
			c-3.81,1.01-7.46,2.49-10.54,5.05C103.76,621.83,102.5,622.6,101.88,619.96z"/>
		<path class="st19" d="M198.98,606.75c0.34,3.1-0.15,6.03-1.91,8.66c-0.87,1.3-0.98,2.81-1.31,4.29
			c-1.46,6.64-5.47,12.01-8.96,17.63c-0.94,1.52-2.76,1.96-4.26,2.78c-1.72,1.09-3.07-0.29-4.47-0.79c-2.77-1-4.97-2.9-6.36-4.45
			c1.51,1.79,3.96,3.63,6.93,4.81c1,0.4,2.16,0.56,2.75,1.66c0.22,2.04-0.74,3.35-2.07,4.95c-5.67,6.83-12.87,11.88-19.59,17.49
			c-2.9,2.43-6.17,4.42-9.27,6.6c-3.76-0.07-6.04-2.22-7.61-5.38c5.01-4.52,8.32-10.45,12.75-15.5c4.51-5.14,8.93-10.64,12.19-16.83
			c0.52-0.99,0.95-2.05,1.87-2.71c3.4-2.42,5.22-6.13,7.49-9.42c1.56-2.26,3.34-4.26,5.04-6.37c3.08-3.83,6.07-7.75,9.02-11.68
			c2.82-3.76,6.44-6.65,9.57-10.05c2.32-2.52,4.7-5,6.76-7.73c4.66-6.18,4.05-12.45-1.62-17.83c-1.9-1.8-3.69-3.7-5.28-5.78
			c2.24-1,4.48-2.01,6.72-3.01c1.61-0.87,3.01-0.44,4.03,0.9c1.66,2.18,3.38,4.25,5.65,5.85c0.76,0.53,1.13,1.42,0.78,2.43
			c-3.37,2.91-4.49,6.49-3.22,10.79c1.28,4.29,2.54,8.59,3.81,12.89c0.14,2.47,0.11,4.19-3.39,2.73c-1.95-0.81-4.39,0.43-6.1,1.8
			c-2.55,2.04-5.26,4.05-6.65,7.17c-0.55,1.24-1.6,1.73-2.69,2.25c-1.49,0.32-1.86-1-2.54-1.57
			C197.5,604.4,199.18,605.06,198.98,606.75z"/>
		<path class="st0" d="M364.03,558.31c-8.55-3.84-17.45-3.41-26.21-2.07c-8.83,1.35-14.71-3.27-20-8.91
			c-3.9-4.15-7.34-8.81-10.35-13.73c-1.24-2.03-1.89-3.93-1.45-6.22c0.09-0.49,0.13-1,0.16-1.5c0.32-5.77,0.33-5.87,6.02-5.35
			c9.99,0.91,19.19,4.56,28.24,8.58c3.59,1.59,7.03,3.52,10.56,5.25C360.93,539.24,364.46,547.61,364.03,558.31z"/>
		<path class="st18" d="M150.46,672.25c1.21,1.42,1.61,2.31-0.52,3.69c-4.12,2.67-7.76,6-10.59,10.13
			c-1.36,1.99-2.58,3.99-1.41,6.39c1.14,2.32,3.65,2.2,5.75,2.72c3.23,0.8,5.64-1.45,8.44-2.26c5.2-1.52,9.56-4.49,13.9-7.49
			c3.29-2.28,6.32-4.96,9.7-7.09c2.19-1.38,1.02,1.03,1.41,1.69c-7.03,8.04-15.73,13.45-25.93,16.52c-2.22,0.32-4.33,0.93-6.2,2.24
			c-7.03,2.6-14.23,4.52-21.75,5.03c-6.74,0.31-13.5,0.84-20.18-0.63c-4.34-1.18-7.86-3.4-9.74-7.69c-0.79-1.53-1.24-3.19-1.76-4.82
			c-0.15-0.46-0.3-1.02,0.15-1.42c0.58-0.5,1.14-0.15,1.63,0.2c1.22,0.87,2.45,1.71,4.34,2.03c-0.42-6.33-0.06-12.44,0.37-18.53
			c0.42-5.82,0.32-11.68,1.21-17.48c0.49-3.2,2.18-5.84,3.77-8.52c0.82-1.38,2.29-1.91,3.91-1.89c2.08,0.77,4.29,1.36,5.57,3.43
			c-4.79,6.96-6.03,15.04-7.04,23.13c-0.46,3.69-0.29,7.48,0.55,11.11c1.11,4.84,6.13,7.98,10.96,8.3
			c6.46,0.42,10.52-3.45,14.79-7.13c2.37-2.04,4.62-4.24,6.28-6.94c1.09-1.77,2.72-2.98,4.4-4.1c1.21-0.8,2.2-1.76,2.9-3.02
			C147.66,669.43,149.23,670.48,150.46,672.25z"/>
		<path class="st20" d="M308.76,580.49c0.24,3.15,2.8,4.73,4.58,6.86c3.69,4.41,4.85,10.07,7.27,15.1
			c3.79,7.88,8.41,15.31,15.4,20.51c4.78,3.55,10.24,6.22,14.47,10.56c2.88,2.96,3.85,6.49,2.45,10.42
			c-0.62,1.75-0.09,2.19,1.53,2.17c1.41-0.02,2.82,0.04,4.23,0.07c-2.96,0.94-5.99,0.66-8.95,0.16
			c-14.4-2.43-25.44-10.32-35.06-20.97c-8.4-9.3-11.15-20.02-10.07-32.09C305.03,588.73,306.12,584.35,308.76,580.49z"/>
		<path class="st12" d="M107.28,645.52c-4.55,0.39-4.89,4.58-6.44,7.48c-0.95,1.78-1.32,4.09-1.26,6.14
			c0.16,5.06-0.73,10.04-0.74,15.09c-0.01,4.78-0.27,9.56-0.59,14.33c-0.1,1.51,1.63,4.18-0.13,4.21c-1.82,0.03-4.55-0.96-5.95-3.22
			c0.39,1.98,0.78,3.95,1.17,5.93c-3.69-5.29-5.85-11.05-6.57-17.57c-2.36-21.3,4.46-40.09,15.09-57.94
			c0.56,0.94,1.38,1.92,2.31,0.76c2.82-3.52,7.11-4.22,10.87-5.91c1.02-0.45,2.39-0.25,3.58-0.15c1.07,0.09,1.52,0.84,1.33,1.94
			c-1.31,7.64-4.81,14.41-8.76,20.91c-1.34,2.21-4.43,3.49-2.63,6.84c-2.84,0.15-3.87-2.67-5.76-3.36c0.87,0.99,2.47,1.71,3.68,2.9
			C106.96,644.32,107.79,644.61,107.28,645.52z"/>
		<path class="st21" d="M354.89,570.73c-0.5-4.01-2.48-7.76-1.9-11.99c0.19-1.42-1.34-1.16-2.28-1.17c-4.1-0.05-8.2-0.06-12.31-0.08
			c13.62-3.83,27.38,1.1,36.66,12.11c7.24,8.59,9.56,19,12.5,29.23c1.45,5.02,3.32,10,3.28,15.36c-0.01,1.58,0.5,3.24-0.6,4.69
			c-1.16-1.39-2.41-2.71-4.3-3.03c-5.46-0.91-7.71-5.27-10.24-9.39c-2.95-4.79-4.45-10.19-6.64-15.29
			c-2.67-6.22-5.96-12.3-10.68-17.36c-0.72-0.77-1.87-1.13-2.83-1.68C355.07,571.79,356.41,570.56,354.89,570.73z"/>
		<path class="st22" d="M114.04,647.39c-0.18-2.1,0.44-3.73,1.87-5.45c1.85-2.21,3.02-4.97,4.54-7.46
			c4.93-8.05,9.97-16.04,14.78-24.17c1.09-1.84,3.18-2.02,4.32-3.55c0.2-0.58,1.02-0.15,1.21-0.74c-0.83-1.64-0.25-2.96,0.67-4.42
			c4.3-6.79,9.94-12.4,15.51-18.08c1.03-1.05,2.22-1.71,3.74-1.72c0.78-0.01,1.55-0.17,0.76-1.22l-0.04-0.03
			c-0.65-2.28,0.38-4.5,1.06-6.39c1.76-4.9-1.71-6.63-4.62-8.47c-1.46-0.92-2.06-1.68-1.92-3.24c1.31-0.53,2.63-0.98,4.07-0.72
			c4.96-0.38,9.91-0.39,14.87,0.01c4.03,0.54,7.99-0.52,12-0.54c1.7-0.01,3.42-0.3,5.03,0.54c-4.83-0.26-7.72,3.46-11.43,5.52
			c-3.64,2.03-5.25,5.93-8.29,8.58c-3.74,3.26-6.64,7.46-10.13,11.02c-7.55,7.68-14.4,15.92-20.68,24.65
			c-8.44,11.73-16.78,23.52-24.07,36.02c-0.33,0.57-0.69,0.97-1.37,1.02C115.08,648.51,114.09,648.72,114.04,647.39z"/>
		<path class="st10" d="M363.35,513.14c-1.52,4.19-3.14,8.32-5.81,11.97c-1.08,1.47-2.18,2.93-3.73,3.82
			c-2,1.15-2.25,2.61-1.37,4.52c-10.39-5.45-20.98-10.38-32.46-13.17c-3.75-0.91-7.5-1.69-11.35-1.52
			c-1.96,0.09-3.21-0.31-3.86-2.37c-0.5-1.59-1.48-3.02-2.52-5.04c9.88,0.56,19.41-1.14,28.69,1.18c7.18,1.79,14.53,2.19,21.76,3.5
			C356.52,516.72,359.91,514.54,363.35,513.14z"/>
		<path class="st23" d="M260.81,506.5c-3.82,0.22-7.64,0.45-11.45,0.67c-1.08-1.34-0.68-2.87-0.58-4.36
			c0.28-4.4,2.3-8.12,4.82-11.53c1.3-1.77,3.28-2.83,5.74-2.86c2.81-0.03,5.61-0.5,8.43-0.58c6.98-0.21,14.56,6.33,15.48,13.27
			c0.26,1.98,0.42,3.98,0.62,5.97c-0.66,3.27-1.36,3.65-4.49,2.56c-6-2.09-12.09-3.66-18.53-3.12L260.81,506.5z"/>
		<path class="st22" d="M200.64,561.09c3.23,2.17,5.92,4.86,7.9,8.22c0.86,1.46,1.9,2.85,2.54,4.4c1.57,3.8-0.02,7.32-2.06,10.21
			c-3.69,5.22-8.13,9.84-12.97,14.09c-2.53,2.22-4.35,5.24-6.62,7.78c-3.39,3.8-5.75,8.35-9.47,11.97c-2.67,2.59-4.12,6.4-6.55,9.3
			c-5.83,6.96-10.3,14.96-16.14,21.81c-4.03,4.72-7.7,9.68-11.65,14.44c-0.6,0.72-1.62,1.1-2.44,1.63
			c-0.49,0.17-0.66-0.06-0.63-0.52c-0.12-0.56-0.36-1.02,0.13-1.66c6.12-7.81,12.18-15.64,17.66-23.94
			c3.57-5.41,7.59-10.58,11.94-15.46c1.93-2.17,3.84-4.41,5.39-6.86c3.95-6.25,9.59-11.05,14.06-16.84
			c3.96-5.12,9.19-9.03,13.1-14.18c5.29-6.97,2.9-16.96-4.95-21.18c-1.21-0.65-2.55-1.22-3.3-2.53
			C197.92,561.55,199.28,561.32,200.64,561.09z"/>
		<path class="st20" d="M217.81,567.26c-2.28-3.21-5.67-5.39-7.9-8.67c-0.53-0.78-1.69-0.36-2.56-0.52
			c10.02-7.04,20.04-14.08,30.06-21.12c-1.56,5.18-1.95,10.44-2.59,15.67c-0.09,0.75-0.74,1.2-1.34,1.56
			c-5.65,3.42-10.59,7.67-14.88,12.69C218.42,567.08,218.08,567.14,217.81,567.26z"/>
		<path class="st24" d="M324.71,555.06c-4.16,3.17-8.15,6.54-11.69,10.41c-0.84-3.93-1.56-7.88-2.55-11.77
			c-0.67-2.63-1.62-5.2-3.42-7.33c-3.16-3.73-2.86-7.89-1.3-12.73C311.45,541.61,316.71,549.59,324.71,555.06z"/>
		<path class="st6" d="M260.83,506.51c5.38-2.09,10.35,0.29,15.43,1.42c1.07,0.24,2.12,0.64,3.1,1.13c2.35,1.18,3.8,0.51,4.49-1.98
			c0.19,0.65-0.11,1.47,0.68,1.91c-0.79,2.27-2.15,2.9-4.4,1.77c-4.56-2.31-9.58-2.89-14.56-3.57c-1.01-0.14-2.01,0.03-2.93,0.52
			C262.66,506.38,261.61,506.66,260.83,506.51z"/>
		<path class="st12" d="M103.09,703.17c6.71,0.64,13.45,0.55,20.18,0.63C116.53,704.32,109.75,705.81,103.09,703.17z"/>
		<path class="st18" d="M174.87,561.73c-4.96,0-9.91,0-14.87-0.01C164.96,560.64,169.92,561.25,174.87,561.73z"/>
		<path class="st12" d="M145.02,698.78c1.48-2.35,3.78-2.47,6.2-2.24C149.27,697.59,147.19,698.29,145.02,698.78z"/>
		<path class="st24" d="M313,565.45c1.01,2.62,1.27,5.24-0.11,7.83C313.26,570.67,313.13,568.06,313,565.45z"/>
		<path class="st0" d="M229.97,444.64c0.08-0.5,0.13-1.02,0.69-1.26c3.75,2.79,8.01,4.64,12.22,6.57c1.29,0.59,2.52,1.23,3.65,2.11
			c1.6,1.25,3.43,1.63,5.42,1.01c0.29-0.09,0.57-0.2,0.87-0.26c7.51-1.57,9.64-0.57,13.25,6.24c1.56,2.94,3,5.94,4.56,8.88
			c0.67,1.26,0.66,1.73-0.95,2.25c-4.79,1.55-9.51,3.35-14.2,5.19c-3.94,1.54-6.66,4.21-6.82,8.72c-0.09,2.61-1.14,2.33-2.7,1.1
			c-3.32-2.63-6.85-5-10.34-7.37c-5-3.41-5.69-7.87-4.73-13.19c0.5-2.77,0.93-5.56,1.29-8.36
			C232.72,452.17,232.22,448.23,229.97,444.64z"/>
		<path class="st25" d="M277.27,479.86c0.88,2.22,1.52,4.5,1.86,7.5c-2.19-1.58-2.19-3.38-2.49-5.04
			C277.68,481.72,277.08,480.69,277.27,479.86z"/>
		<path class="st19" d="M229.24,406.45c-3.32,0.53-3.83-2.45-4.58-4.29c-2.02-4.93-3.05-10.18-3.2-15.54
			c-0.11-4.07,0.67-4.99,4.5-6.44c0.82-0.31,2.57-0.12,2.25-1.41c-0.37-1.49-1.73-0.3-2.55-0.1c-2.69,0.63-4.36-0.71-3.41-3.26
			c2-5.37,1.98-11.25,4.56-16.49c1.51-3.05,3.48-5.76,5.87-7.92c3.12-2.81,7.14-2.16,10.82-0.8c5.18,1.91,9.25,5.56,13.45,8.97
			c1.71,1.39,3.39,2.74,4.71,4.6c1.28,1.79,1.5,2.98-0.59,4.14c-0.54,0.3-1.43,0.77-0.89,1.61c0.55,0.85,1.24,0.3,1.78-0.19
			c1.62-1.49,3.22-0.38,3.84,0.74c3.78,6.86,7.42,13.82,8.4,21.77c0.48,1.17-1.92,1.76-0.62,3.09c1.79-0.03,2.66,0.81,3.13,2.59
			c1.45,5.55,2.94,11.09,4.67,16.55c0.88,2.76,0.56,4.63-2.32,5.65c-0.83,1.43-1.97,2.11-3.64,1.55c-1.32-2.78-1.37-5.85-2.04-8.79
			c-3.4-14.76-8.56-28.84-16.22-41.94c-3.4-5.81-7.56-10.75-14.54-12.42c-1.71-0.41-3.19-0.42-4.39,1.05c-1.08,0.05-0.89,0.9-1,1.57
			c-2.83,2.57-2.67,5.7-1.59,8.93c1.28,3.84,3.16,7.43,5.06,11c6.14,11.58,10.44,23.81,13.29,36.59c1.17,5.24,2.76,10.32,6.23,14.64
			c1.77,2.2,3.62,4.04,6.51,4.58c0.79,0.15,1.54,0.53,1.92,1.35c0.48,2.12,0.85,4.22-0.45,6.2c-0.06,1.52-1.34,2.46-2.35,2.26
			c-2.58-0.52-5.28-0.01-7.8-1.56c-3.7-2.25-7-4.96-10.4-7.57c-1.47-1.13-1.3-2.58-1.35-4.06c-0.2-1.26,0.9-1.55,1.59-2.07
			c-0.99,0.1-1.56,1.53-2.84,0.9c-0.98,0.12-1.81-0.17-2.41-0.96c-3.31-4.36-7.77-7.81-9.82-13.17c-0.88-2.3-2.34-4.4-3.75-6.45
			c-1.18-1.71-0.62-2.71,0.9-3.6c0.37-1.77,2.12-2.06,3.07-2.98C231.82,405.16,230.86,406.58,229.24,406.45z"/>
		<path class="st26" d="M237.83,359.11c0.49-2.13,1.68-2.5,3.8-2.08c7.94,1.55,12.65,6.89,16.41,13.46
			c8.52,14.86,14.13,30.77,17.28,47.58c0.18,0.98,0.09,2.01,0.12,3.02c0.1,0.51,0,0.81-0.6,0.57c-0.89,1.03-0.04,1.29,0.67,1.18
			c2.65-0.42,3.24,1.43,3.26,3.25c0.06,4.66-0.59,9.2-3.96,12.84c-2.62,2.83-3.33,2.68-4.78-0.92c-1.6-2.21-1-4.87-1.31-7.28
			c-2.67-21.08-9.1-40.84-20.33-58.95c-2.51-4.04-5.49-7.71-9.08-10.86C238.74,360.4,237.99,360,237.83,359.11z"/>
		<path class="st27" d="M237.83,359.11c5.86,3.5,9.36,9.08,12.73,14.7c10.9,18.21,16.87,38.05,19.26,59.05
			c0.19,1.7,0.16,3.43,0.23,5.14c-0.04,1.48-0.09,2.97-0.1,4.45c0,1.21-0.36,1.95-1.76,1.56c-0.01-2.2-0.02-4.41-0.03-6.61
			c-1.41-2.38-1.09-5.12-1.26-7.65c-0.74-11.43-4.01-22.22-7.84-32.87c-3.74-10.38-8.16-20.43-15.05-29.22
			c-2.06-2.62-4.86-4.55-6.67-7.38C236.89,359.64,236.88,359.17,237.83,359.11z"/>
		<path class="st28" d="M273.59,394.93c-0.54,0.17-0.62,1.23-1.32,0.88c-0.67-0.33-0.41-1.05-0.02-1.49c0.7-0.8,0.88-2,1.96-2.49
			c0.84-0.48,1.68-0.97,2.93-1.68C276.52,392.54,274.4,393.26,273.59,394.93z"/>
		<path class="st29" d="M229.24,406.45c1.7-1.33,3.42-2.62,6.12-2.98c-1.65,2.13-3.73,2.95-5.4,4.29
			C228.96,407.74,229.02,407.14,229.24,406.45z"/>
		<path class="st30" d="M245.03,431.93c1.4-0.86,2.71-1.9,4.53-2.2c-0.58,1.77-2.4,2.11-3.27,3.37
			C245.42,433.19,245.05,432.75,245.03,431.93z"/>
		<path class="st31" d="M274.86,421.65c0.2-0.19,0.4-0.38,0.6-0.57c1.4,0.06,2.5-0.65,3.61-1.37c0.31,0.19,0.63,0.38,0.94,0.57
			C278.46,421.39,277.07,423.05,274.86,421.65z"/>
		<path class="st32" d="M214.76,478.16c1.9,1.46,1.53,2.62-0.5,3.5c-4.24,1.84-8.69,1.4-13.1,1.03c-4.23-0.36-8.46-1.4-12.2-3.16
			c-7.72-3.64-15.18-7.94-19.27-16.04c-3.23-6.4,1.8-14.3,8.95-14.6c8-0.33,14.38,3.04,20.18,8.05c0.45,0.39,0.95,0.72,1.43,1.09
			c0.17-0.27,0.35-0.29,0.53-0.01c5.25,1.73,10.05,4.35,14.54,7.52c2.21,1.56,4.01,3.41,4.44,6.37c0.53,3.62,0.13,4.29-3.47,4.32
			c-0.5,0-1,0.01-1.51,0.01c-3.44,1.05-5.97-0.94-8.6-2.57c0.48-1.4,0.68-2.74-0.91-3.63c-6.86-3.85-12.94-9.03-20.43-11.8
			c-1.68-0.62-2.71-0.64-2.1,1.61c-1.39,0.94-2.05-0.32-2.95-0.97c0.11,0.6,0.89,1.05,0.43,1.78c-1.2,1.23-0.72,2.37,0.22,3.45
			c4.31,4.94,9.78,7.9,16.08,9.46c1.52,0.37,2.75-0.17,3.81-1.24c0.82-0.29,1.59-0.03,2.31,0.31
			C206.65,474.54,210.93,475.86,214.76,478.16z"/>
		<path class="st33" d="M214.76,478.16c-4.51-0.8-8.33-3.38-12.56-4.89c-0.65-0.23-1.22-0.75-1.99-0.59
			c-0.19,0.09-0.41,0.19-0.58,0.12c-6.98-2.8-13.43-6.48-19.06-11.52c-0.22-0.2-0.27-0.53-0.31-0.84c-0.37-1.22-2.14-1.16-2.39-2.74
			c2.29-0.54,3,1.98,4.71,2.37c3.59,1.2,6.29,3.89,9.57,5.65c4.09,2.19,8.17,4.38,12.41,6.27c0.65,0.29,1.31,0.55,1.64,1.25
			c2.69,1.47,5.54,2.52,8.58,3c1.98,1.2,4.51,0.47,6.88,1.84C219.1,479.61,216.91,478.04,214.76,478.16z"/>
		<path class="st34" d="M200.77,458.02l-0.26,0.01c0,0-0.26,0-0.26,0c0.29-3.96,2.66-7.1,4.18-10.59
			C204.02,451.25,202.4,454.64,200.77,458.02z"/>
		<path class="st35" d="M183.67,483.45c-0.41,2.33-0.44,4.19-1.86,6.61C181.24,487.19,181.86,485.46,183.67,483.45z"/>
		<path class="st36" d="M391.28,516.22c14.2,0.28,26.55,0.93,38.77,3.51c7.07,1.5,13.98,3.59,20.98,5.23
			c8.53,2,16.6,5.31,25.06,7.46c7.73,1.96,14.91,5.5,21.61,9.89c4.29,2.81,8.6,5.58,12.78,8.55c4.67,3.33,10,5.15,15.36,6.82
			c2.21,0.69,4.1,2.1,6.41,2.49c0.33,0.06,0.64,0.47,0.88,0.78c1.95,2.54,1.54,11.19-0.52,13.79c-0.85,1.08-1.88,1.02-2.98,1.02
			c-6.75,0-13.46-0.36-20.08-1.8c-8.51-1.86-17.35-2.21-25.64-4.95c-4.81-1.6-9.72-2.11-14.56-3.2c-3.2-0.72-6.45-2.11-9.56-3.49
			c-3.64-1.62-7.54-2.04-11.44-2.3c-1.8-0.12-3.16-0.53-4.45-2.02c-1.67-1.93-4.46-1.41-6.7-2.15c-3.89-1.28-8.14-1.15-11.91-3.03
			c-1.64-0.82-3.55-0.39-5.3-0.55c-4.25-0.4-8.49-0.98-12.55-2.07c-10.13-2.72-20.67-3.27-30.74-6.13
			c-3.09-0.88-6.09-2.14-8.99-3.52c-3.05-1.46-4.68-5.64-3.41-8.84c2.82-7.11,7.27-12.22,15.42-13.72
			C384.16,517.13,388.51,516.04,391.28,516.22z"/>
		<path class="st37" d="M401.67,512.69c0.68-2.18,1.38-4.37,0.84-6.7c-0.14-0.59-0.43-1.33,0.31-1.53c0.91-0.24,1.25,0.59,1.22,1.3
			c-0.1,2.1-0.31,4.2-0.48,6.3c-0.17,1.03-0.28,2.1-1.3,2.76C401.37,514.26,401.84,513.39,401.67,512.69z"/>
		<path class="st13" d="M480.3,573.64c0.1,0.35-0.38,1-0.69,0.73c-1.38-1.19-1.54-3.05-2.08-4.68c-0.17-0.5,0.22-1.16,0.78-0.96
			C480.6,569.55,479.57,571.83,480.3,573.64z"/>
		<path class="st38" d="M442.24,570.2c-1.89-0.41-0.96-1.94-1.11-2.98c-0.17-1.19-0.08-2.42-0.11-3.63c0.09-0.48,0.07-1.1,0.65-1.25
			c0.82-0.21,0.7,0.5,0.7,0.94C442.34,565.59,442.28,567.89,442.24,570.2z"/>
		<path class="st39" d="M403.56,553.88c0,1.19,0,2.39,0,4.18c-0.61-1.16-0.94-1.79-1.27-2.41c0.01-1.1-0.17-2.15-0.66-3.16
			c-0.24-0.49-0.73-1.14,0.07-1.49c0.72-0.31,1.02,0.31,1.22,0.91C403.13,552.57,403.34,553.23,403.56,553.88z"/>
		<path class="st40" d="M481.75,529.69c-1.15-0.97-0.31-2-0.14-3.04c0.16-0.95,1.08-1.88,0.35-2.85c-0.54-0.72-0.88-1.21,0.31-1.38
			c0.88-0.13,1.27,0.41,1.3,1.25c0.09,2.2-0.96,4.06-1.79,5.99C481.77,529.66,481.75,529.69,481.75,529.69z"/>
		<path class="st41" d="M441.72,517.47c-0.22-2.4,0.3-4.7,0.86-7.08c1.11,1.54,0.68,4.71-0.87,7.06
			C441.71,517.45,441.72,517.47,441.72,517.47z"/>
		<path class="st42" d="M355.68,426.54c-3.39-1.42-2.9-4.55-2.64-7.11c0.71-7.17,3.92-13.55,7.44-19.66
			c6.36-11.01,13.5-21.51,23.08-30.06c5.32-4.75,10.51-9.68,16.54-13.58c2.33-1.51,4.77-2.62,7.63-2.45
			c3.66,0.22,6.04,3.33,5.27,6.92c-0.54,2.49-1.62,4.73-2.96,6.89c-3.11,5.02-7.65,8.78-11.37,13.24
			c-7.01,8.4-14.65,16.39-19.88,26.12c-3.5,6.51-7.43,12.64-12.67,17.88c-1.38,1.38-3,2.35-4.63,3.36
			c-1.83,1.13-3.22,0.93-4.18-1.09c-0.82-1.43,0.33-2.48,0.8-3.58c1.38-3.24,2.61-6.59,5.13-9.21c1.13,0.48,0.52,1.88,1.41,2.65
			c3.34-2.86,5.73-6.44,7.52-10.35c3.67-8.01,9.33-14.49,15.03-21.07c4.95-5.7,9.52-11.73,14.77-17.2c1.23-1.28,2.9-3.01,0.25-4.71
			c0.59-2.37,2.84-2.8,4.76-4.15c-3.79,1.84-6.62,4.45-9.41,7.04c-9.16,8.5-16.56,18.46-23.45,28.82
			c-6.26,9.42-12.07,19.1-16.68,29.45C357.08,425.48,356.81,426.45,355.68,426.54z"/>
		<path class="st43" d="M355.68,426.54c4.62-9.4,9.32-18.77,15.08-27.56c8.69-13.26,17.78-26.21,30.17-36.4
			c2.28-1.87,4.58-3.81,8.48-4.55c-2.25,2.86-5.39,3.23-7.13,5.36c-0.81,2.27-3.08,3.09-4.62,4.64
			c-9.99,10.08-18.47,21.29-26.05,33.26c-2.74,4.33-4.8,9.08-8.22,12.97c-2.39,4.07-4.44,8.3-6.09,12.72
			c-0.68,1.06-1.36,2.12-2.08,3.24C354.57,428.82,355.38,427.72,355.68,426.54z"/>
		<path class="st12" d="M398.7,397.85c-1.95-0.92-3.91-1.85-5.86-2.78c-0.6-0.28-1.07-0.74-0.71-1.41c0.3-0.58,0.85-0.26,1.32-0.08
			C395.59,394.41,397.59,395.42,398.7,397.85z"/>
		<path class="st44" d="M385.27,418.67c-1.51-0.6-3.05-0.83-4.68-0.72c-0.6,0.04-1.2-0.4-1.1-1.12c0.08-0.63,0.75-0.6,1.21-0.59
			c2.23,0.05,4.32,0.64,6.24,1.81C386.9,419.65,385.91,418.7,385.27,418.67z"/>
		<path class="st12" d="M385.27,418.67c0.59-0.11,1.35,0.23,1.66-0.63c0.85,0.31,2.08,1.05,1.43,1.72
			C387.04,421.13,386.32,419.08,385.27,418.67z"/>
		<path class="st45" d="M142.55,664.42c0.21,0.17,0.42,0.35,0.63,0.52c1.8,2.65,4.36,4.29,7.28,5.44c2.14,1.73,5.03,1.83,7.43,3.45
			c-2.85,0.68-5.02-1.05-7.44-1.58c-1.61-0.83-3.23-1.66-4.84-2.49c-2.42-0.45-3.3-2.4-4.21-4.33
			C141.41,664.68,141.79,664.33,142.55,664.42z"/>
		<path class="st45" d="M198.98,606.75c-1.09-1.82-3.56-3.02-2.56-6.31c0.96,1.9,1.49,3.63,3.15,4.44
			c3.08,3.56,7.71,3.95,12.11,5.72C206.65,610.9,202.73,609.12,198.98,606.75z"/>
		<path class="st46" d="M181.39,641.33c-4.99-1.61-9.56-3.72-11.21-9.3c2.74,4.81,7.34,6.76,12.36,8.08
			c0.25,0.35,0.51,0.69,0.76,1.04C182.66,641.21,182.03,641.27,181.39,641.33z"/>
		<path class="st47" d="M274.8,516.39c-0.32-2.17,1.19-3.51,3.78-3.35c5.6,0.34,10.62,4.9,9.92,10.32
			c-0.36,2.81,0.34,5.35,0.13,7.86c-1.13,13.86-2.91,27.59-12.08,39.07c-1.89,2.36-3.5,4.92-6,6.66
			c-5.68,3.97-10.36,2.04-12.93-4.32c-2.36-5.84-1.32-10.99,0.53-16.64c3-9.12,6.17-18.22,8.22-27.64c0.73-3.36,2.46-6.37,3.83-9.5
			c0.54-1.23,1.49-1.86,2.8-1.98c2.62,0.04,3.91,1.83,4.94,3.87c2.19,4.35,2.24,9.1,1.58,13.65c-1.72,11.93-6,22.93-13.2,32.7
			c7.19-9.7,11.45-20.63,13.22-32.5c0.57-3.86,0.36-7.84-0.63-11.73C278.23,520.23,276.1,518.6,274.8,516.39z"/>
		<path class="st48" d="M274.8,516.39c4.49,2.97,5.43,7.63,5.47,12.44c0.13,13.6-4.78,25.62-12.08,36.83
			c-0.72,1.1-1.53,2.14-2.29,3.2c-0.36,0.5-0.79,1.13-1.43,0.67c-0.72-0.51-0.12-1.04,0.26-1.49c4.94-6.01,8.39-12.84,10.88-20.15
			c2.64-7.77,4.63-15.66,2.92-23.99c-0.68-3.29-2.41-5.65-5.51-6.99C273.44,516.18,274.12,516.27,274.8,516.39z"/>
		<path class="st49" d="M254.83,554.13c-2.5,0.79-4.47,1.42-6.46,2.02c-0.47,0.14-1.07,0.28-1.22-0.4
			c-0.14-0.61,0.39-0.95,0.86-1.06C250.05,554.2,252.08,553.54,254.83,554.13z"/>
		<path class="st50" d="M286.81,556.65c1.16-1.99,3.05-2.95,5.15-3.62C290.72,554.88,288.92,555.97,286.81,556.65z"/>
		<path class="st51" d="M344.98,470.37c-1.95,6.92-28.87,22.09-37.22,21.08C321.92,487.1,334.24,480.68,344.98,470.37z"/>
		<path class="st52" d="M327.48,490.52c2.1,1.38,2.66,3.52,3.28,6.38C328.8,494.73,327.88,492.77,327.48,490.52z"/>
		<path class="st53" d="M318.92,475.13c-1.08-1.63-2.27-3.21-1.75-6.02C318.58,471.35,319.21,473.11,318.92,475.13z"/>
		<path class="st53" d="M380.35,354.6c2.41-0.27,4.04,1.09,5.7,2.38C383.81,356.97,381.94,356.09,380.35,354.6z"/>
		<path class="st54" d="M363.19,375.16c-0.37,0.19-0.57,0.38-0.7,0.34c-1.45-0.43-3.21-0.07-4.22-1.61
			c-0.06-0.09,0.25-0.61,0.42-0.63C360.5,373.08,361.83,374,363.19,375.16z"/>
		<path class="st55" d="M340.45,400.74c2.55-0.42,3.67,0.7,4.86,1.66C343.62,402.92,342.36,402.15,340.45,400.74z"/>
		<path class="st56" d="M120.1,679.54c-4.57-0.06-7.37-4.43-6.45-9.55c1.87-10.37,6.87-19.29,12.47-27.97
			c5.47-8.45,10.9-16.95,17.07-24.9c5.54-7.14,11.62-13.86,17.35-20.87c4.36-5.34,9.3-10.13,14.34-14.76
			c4.12-3.78,7.75-8.31,13.11-10.55c2.55-1.07,5.09-2.3,8.09-1.21c4.45,1.62,6.74,6.72,4.63,11.01c-1.75,3.57-4.57,6.31-7.38,9.04
			c-6.59,6.4-13.09,12.89-19.43,19.54c-5.39,5.65-9.07,12.54-14.25,18.33c-2.59,2.9-4.42,6.45-6.74,9.6
			c-8.17,11.03-15.06,22.86-21.92,34.72C128.74,675.9,125.39,679.46,120.1,679.54z"/>
		<path class="st19" d="M141.4,665.43c1.4,1.44,2.81,2.88,4.21,4.33c0.12,1.3-0.19,2.23-1.49,2.95c-2.66,1.47-4.63,3.65-6.48,6.13
			c-3.7,4.94-8.18,9.64-13.83,11.86c-9.97,3.93-19.29-1.22-19.12-13.32c0.07-5.25,0.5-10.38,1.62-15.37
			c1.07-4.77,1.73-9.98,5.92-13.48c1.34-0.72,2.45,0.07,3.6,0.55c-3.75,6.17-6.09,12.88-7.42,19.93c-0.73,3.84-0.66,7.58,0.82,11.49
			c2.11,5.6,9.72,7.11,14.53,5.14c5.56-2.28,8.85-6.87,12.2-11.33C138.03,671.55,140.76,669.09,141.4,665.43z"/>
		<path class="st57" d="M115.85,649.07c-1.28,0.31-2.4-0.35-3.6-0.55c-1.65-1-3.31-2-4.96-2.99c-1.74-2.38-5.11-3.19-6.46-6.77
			c3.11,1.75,4.92,4.42,7.76,5.59c1.61,1.39,3.37,2.51,5.45,3.04c0.63,0.39,1.26,0.77,1.89,1.16
			C115.88,648.72,115.85,648.89,115.85,649.07z"/>
		<path class="st36" d="M355.55,622.39c-5.61-1.09-8.9-5.29-12.26-9.31c-1.7-2.04-4.17-3.3-5.65-5.39
			c-5.94-8.4-12.3-16.5-17.62-25.33c-4.18-6.95-1.95-14.95,5.52-18.2c2.24-0.97,4.86-0.98,6.94-2.6c0.85-0.67,1.7,0.24,2.5,0.59
			c5.7,2.53,9.86,7.03,13.81,11.57c3.23,3.71,6.92,7,9.81,11.05c4.16,5.84,7.6,12.07,10.91,18.39c2.99,5.71,5.81,11.51,8.73,17.26
			c0.41,0.8,0.95,1.55,1.51,2.26c3.37,4.25,3.47,6.97,0.43,11.34c-0.4,0.57-0.62,1.26-0.92,1.9c0,0,0.04-0.02,0.05-0.02
			c-0.94-0.18-1.95-0.05-2.56,0.59c-2.47,2.63-5.36,2.33-8.58,1.87c-2.34-0.34-3.71-1.98-4.78-3.32c-2.89-3.61-7.67-6.02-7.9-11.46
			C355.16,623.15,355.17,622.76,355.55,622.39z"/>
		<path class="st58" d="M355.55,622.39c-0.02,0.39-0.04,0.78-0.07,1.17c-2.62,1.09-4.21,4.19-7.62,3.79
			C350.15,625.27,352.6,623.46,355.55,622.39z"/>
		<path class="st59" d="M323.43,599.34c0.74-1.27,1.49-2.54,2.21-3.82c0.25-0.45,0.51-0.96,1.09-0.6c0.48,0.3,0.44,0.9,0.22,1.36
			C326.26,597.74,325.23,598.91,323.43,599.34z"/>
		<path class="st60" d="M354.89,570.73c1.12-0.03,1.37-1.71,2.78-1.4c0.25,1.67-1.51,1.81-2.1,2.79c-0.66,0.13-1.21,0.83-2.03,0.36
			C353.6,571.6,354.32,571.22,354.89,570.73z"/>
		<path class="st61" d="M140.77,606.02c0.24,1.3-0.88,0.37-1.21,0.74c-5.29-2.04-10.47-4.26-14.1-8.99
			C130.56,600.53,135.26,604.03,140.77,606.02z"/>
		<path class="st62" d="M161.45,580.57c-0.36,0.63-0.99,0.79-1.57,0.59c-3.01-1.03-5.54-2.85-7.75-5.21
			c3.09,1.53,6.18,3.06,9.27,4.59C161.41,580.55,161.45,580.57,161.45,580.57z"/>
		<path class="st63" d="M373.98,601.98c0.83-1.37,1.67-2.74,2.5-4.11C377.63,600.4,375.7,601.13,373.98,601.98z"/>
		<path class="st64" d="M237.34,360.29c4.88,2.83,8.02,7.37,10.86,11.95c10.08,16.26,16.03,34.1,19.12,52.89
			c0.66,4,1.26,8.14,0.85,12.28c-7.68-0.68-10.14-6.71-12.75-12.52c-2.25-5-2.47-10.55-4.18-15.72c-3.14-9.45-6.11-18.95-11-27.71
			c-2.21-3.96-4.28-8.02-5.63-12.38C233.23,364.64,234.05,362.11,237.34,360.29z"/>
		<path class="st65" d="M206.2,473.24c-8.51-3.24-16.47-7.48-23.62-13.17c0.1-1.15-2.09-1.58-1.13-2.76
			c0.93-1.16,2.26-0.17,3.38,0.16c3.93,1.14,7.39,3.28,10.67,5.58c3.71,2.61,7.99,4.32,11.37,7.42
			C208.26,471.75,208.56,472.82,206.2,473.24z"/>
		<path class="st65" d="M180.27,460.45c6.09,4.99,13.01,8.62,19.94,12.24c-0.39,3.17-2.93,1.87-4.2,1.54
			c-5.3-1.37-10.2-3.7-14.19-7.59c-1.14-1.11-2.46-2.1-3.1-3.66C178.07,461.39,178.3,460.4,180.27,460.45z"/>
		<path class="st66" d="M385.26,529.56c-3.64-1.22-7.38-0.21-11.06-0.56c-0.86-0.08-2.09,0.48-2.48-0.48
			c-0.45-1.09,0.48-2.11,1.19-2.91c2.9-3.24,6.91-4.01,10.9-4.41c4.64-0.47,9.34-0.73,13.99-0.61c5.51,0.15,11.01,0.73,16.5,1.26
			c4.78,0.46,9.58,1.09,14.29,1.89c6.41,1.08,12.72,2.94,18.99,4.74c11.68,3.36,23.36,6.72,34.92,10.46
			c7,2.27,13.66,5.59,19.93,9.43c6.41,3.93,12.69,8.09,18.66,12.71c1.19,0.92,1.93,2,2.56,3.27c0.98,1.95,0.34,2.87-1.79,2.88
			c-0.76-0.01-1.34-0.44-1.86-0.92c-7.41-6.94-16.67-10.51-25.88-14.16c-14.21-5.64-28.99-9.43-43.86-12.79
			c-14.37-3.24-28.9-5.59-43.56-7.16c-6.11-0.66-12.25-1.02-18.35-1.8C387.33,530.27,386.1,530.57,385.26,529.56z"/>
		<path class="st66" d="M518.79,567.1c-2.23,2.49-5.08,1.6-7.52,0.9c-9.86-2.82-19.68-5.78-29.43-8.93
			c-11.38-3.67-22.52-8.12-34.17-10.91c-12.67-3.03-25.31-6.32-38.24-8.01c-6.42-0.84-12.86-1.76-19.37-2.14
			c-5.24-0.31-10.69-0.44-15.44-3.38c-0.95-0.59-2.23-1.12-1.9-2.4c0.33-1.29,1.71-0.73,2.63-0.75c4.14-0.07,8.28-0.06,12.42-0.07
			c1.24-1.09,2.65-0.74,4.05-0.51c1.99,0.55,4.03,0.27,6.05,0.34c15.01,1.78,30.02,3.55,44.83,6.61
			c17.86,3.68,35.56,7.94,52.6,14.56c6.58,2.56,13.08,5.35,18.94,9.37C516.19,563.1,518.35,564.41,518.79,567.1z"/>
		<path class="st67" d="M518.79,567.1c-3.8-4.85-9.11-7.58-14.51-10.1c-12-5.6-24.53-9.63-37.38-12.83
			c-10.5-2.62-21.02-5.24-31.67-7.04c-9.09-1.54-18.2-3.15-27.42-3.84c-3.25-0.24-6.48-0.84-9.71-1.27c-2-0.76-4.16,0.22-6.16-0.55
			c-1.39-0.02-2.78-0.04-4.17-0.07c-4.88-1.09-9.84-0.29-14.76-0.58c-1.24-0.07-2.57,0.38-4.34-0.88
			c5.91-0.85,11.26-0.21,16.58-0.38c35.25,2.02,69.7,8.26,103.17,19.61c8.79,2.98,17.41,6.44,25.37,11.32
			c3.02,1.85,5.76,4.04,8.07,6.75C520.72,570.02,519.81,567.31,518.79,567.1z"/>
		<path class="st68" d="M363.39,414.28c4.99-9.95,11.06-19.24,17.74-28.11c5.96-7.9,12.13-15.65,19.89-21.94
			c0.39-0.31,0.83-0.56,1.25-0.83c2.42-0.21,2.91,0.85,1.85,2.88c-0.42,0.8-0.76,1.72-1.39,2.32c-4,3.85-7.6,8.05-11.06,12.37
			c-7.63,9.52-16.28,18.34-21.06,29.89c-1.14,2.75-3.81,4.38-5.4,6.83c-0.25,0.39-0.69,0.8-1.26,0.61c-0.62-0.21-0.5-0.8-0.52-1.28
			C363.39,416.1,363.4,415.19,363.39,414.28z"/>
		<path class="st69" d="M191.01,580.56c0.88,0.05,1.77,0.11,2.82,0.17c-0.5,1.77-1.36,3.19-2.57,4.19
			c-7.82,6.52-14.81,13.91-22.28,20.81c-2.09,1.93-3.5,4.63-5.17,7.01c-8.37,11.91-16.83,23.76-25.02,35.79
			c-3.05,4.48-5.55,9.34-8.09,14.14c-1.19,2.26-2.59,4.28-4.28,6.17c-0.75,0.84-1.32,2.09-2.53,1.65c-1.07-0.39-1.3-1.69-1.34-2.84
			c-0.02-0.5-0.01-1.01-0.01-1.51c-0.93-1.14-0.04-2.1,0.36-3.05c4.18-10.21,10.49-19.15,16.87-28.04c1.16-1.62,2.07-3.45,3.55-4.84
			c5.57-7.13,11.17-14.22,17.24-20.96c4.98-5.54,9.93-11.09,15.21-16.35c3.93-3.92,8.13-7.52,12.31-11.15
			C188.91,581.03,189.74,580.22,191.01,580.56z"/>
		<path class="st70" d="M191.01,580.56c-8.8,6.47-16.46,14.18-23.84,22.16c-8.19,8.86-15.91,18.14-23.34,27.66
			c-0.62,0.13-0.88-0.1-0.73-0.73c11.92-16.25,25.43-31.08,40.16-44.81c3.66-3.41,7.37-6.8,11.59-9.55
			c0.72-0.47,1.29-0.95,2.29-0.27C195.65,577.49,192.78,578.45,191.01,580.56z"/>
		<path class="st71" d="M143.11,629.65c0.24,0.24,0.48,0.49,0.73,0.73c-5.91,8.47-12.18,16.7-17.05,25.86
			c-1.69,3.17-3.48,6.32-4.23,9.9c-1.21,2.04-0.6,4.2-0.11,6.59c-2.99-1.04-2.7-3.27-2.07-5.01c5.01-13.86,13.4-25.76,22.04-37.5
			C142.59,629.99,142.87,629.84,143.11,629.65z"/>
		<path class="st66" d="M368.29,624.84c-0.55,2.06-1.23,3.06-3.47,1.27c-3.23-2.6-6.07-5.62-8.42-8.9c-2.79-3.9-6.43-6.9-9.46-10.51
			c-4.63-5.51-9.46-10.86-14.06-16.39c-2.88-3.46-5.98-6.79-7.76-11.05c-1.37-3.3-1.1-4.72,1.29-5.96c2.59-0.89,4.15,1.11,5.83,2.32
			c6.16,4.45,11.54,9.73,16.43,15.56c7.1,8.46,13.52,17.35,18.12,27.43C367.69,620.55,369.12,622.45,368.29,624.84z"/>
		<path class="st72" d="M327.57,571.64c0.32-2.58,1.8-3.51,4.54-3.02c3.89,0.69,7.11,2.73,10.09,5.12
			c12.74,10.19,21.46,23.27,27.32,38.37c0.95,2.44,1.69,4.95,2.93,7.28c0.56,1.05,1,2.24,1.17,3.41c0.17,1.14,0.6,2.61-0.53,3.41
			c-1.45,1.02-1.88-1.05-2.96-1.32c-2.33-1.76-2.62-4.66-3.77-7.04c-4.12-8.49-9.39-16.18-15.26-23.54
			c-6.52-8.18-13.84-15.45-22.61-21.2C328.01,572.76,327.54,572.35,327.57,571.64z"/>
		<path class="st67" d="M327.57,571.64c19.69,13.35,33.32,31.55,42.57,53.24c-0.1,1.33,1.68,3.22-0.04,3.77
			c-1.07,0.35-0.83-2.21-1.47-3.35c-0.09-0.17-0.23-0.31-0.35-0.46c-2.08-7.39-6.02-13.84-10.26-20.13
			c-7.21-10.69-15.5-20.42-25.85-28.24c-1.75-1.32-3.42-2.86-5.75-3.17c-0.29-0.82-1.65-0.75-1.62-1.87
			C325.85,570.55,326.67,571.63,327.57,571.64z"/>
		<path class="st36" d="M391.94,531.47c2.06,0.07,4.15-0.18,6.16,0.55C396.04,531.85,393.9,532.66,391.94,531.47z"/>
	</g>
</g>
</svg>
