<?xml version="1.0" standalone="no"?>
<!DOCTYPE svg PUBLIC "-//W3C//DTD SVG 20010904//EN"
 "http://www.w3.org/TR/2001/REC-SVG-20010904/DTD/svg10.dtd">
<svg version="1.0" xmlns="http://www.w3.org/2000/svg"
 width="2048.000000pt" height="2048.000000pt" viewBox="0 0 2048.000000 2048.000000"
 preserveAspectRatio="xMidYMid meet">

<g transform="translate(0.000000,2048.000000) scale(0.100000,-0.100000)"
fill="#000000" stroke="none">
<path d="M12043 18980 c-43 -42 -88 -168 -148 -410 -30 -122 -63 -182 -219
-396 -138 -191 -415 -516 -642 -754 -44 -47 -142 -155 -216 -240 -75 -85 -202
-224 -282 -309 -80 -85 -146 -158 -146 -161 0 -7 -351 -347 -645 -625 -188
-178 -840 -833 -907 -912 -354 -413 -438 -524 -660 -863 -45 -69 -108 -165
-140 -213 -110 -165 -341 -633 -419 -850 -22 -60 -46 -121 -54 -137 -8 -16
-37 -93 -64 -172 -27 -79 -63 -173 -80 -211 -17 -37 -43 -109 -57 -160 -14
-50 -36 -126 -50 -167 -13 -41 -31 -109 -39 -150 -9 -41 -29 -118 -45 -170
-47 -157 -77 -278 -105 -425 -14 -77 -30 -160 -35 -185 -23 -108 -61 -390 -76
-565 -25 -283 -26 -1303 -2 -1535 9 -91 22 -235 28 -320 5 -85 15 -225 21
-310 13 -173 7 -719 -10 -945 -5 -77 -15 -214 -20 -305 -6 -91 -15 -214 -21
-275 -6 -60 -17 -202 -25 -315 -29 -386 -83 -773 -155 -1100 -10 -47 -26 -123
-35 -170 -9 -47 -32 -130 -51 -185 -18 -55 -49 -152 -68 -215 -37 -122 -94
-287 -169 -485 -25 -66 -59 -158 -77 -205 -57 -154 -243 -514 -294 -570 -13
-14 -43 -52 -67 -85 -24 -33 -73 -96 -108 -140 -35 -44 -86 -114 -113 -155
-89 -139 -163 -243 -214 -305 -105 -126 -124 -155 -124 -191 0 -20 4 -44 10
-54 12 -23 61 -40 92 -33 45 11 136 91 358 314 124 124 259 252 300 284 41 33
147 126 235 208 172 161 289 262 400 347 39 29 90 72 115 95 25 23 72 62 105
85 33 24 100 78 148 119 136 116 232 193 342 272 125 89 271 206 350 278 33
30 103 89 155 130 52 42 124 103 160 136 344 316 478 433 613 534 31 24 57 47
57 52 0 5 69 80 153 167 164 168 408 434 522 571 39 46 108 127 155 181 106
121 274 334 340 432 14 20 76 102 139 181 127 163 181 239 385 547 211 319
375 613 501 896 35 80 73 158 85 174 27 38 112 221 135 290 10 30 32 84 48
120 128 280 318 822 380 1085 51 212 102 456 131 625 43 247 89 681 101 945 3
77 10 181 16 230 28 268 48 1037 50 1870 1 557 -35 957 -126 1420 -24 121 -51
270 -60 330 -9 61 -23 151 -31 200 -32 203 -74 643 -74 782 0 245 26 543 60
680 16 66 38 171 49 234 11 63 31 161 44 219 23 98 51 235 112 545 14 72 43
177 65 235 35 92 39 108 29 137 -19 60 -69 69 -116 23z m-263 -947 c-12 -48
-30 -136 -41 -195 -10 -59 -33 -163 -49 -230 -22 -86 -35 -177 -45 -303 -20
-244 -23 -264 -44 -258 -12 3 -22 -7 -34 -33 -10 -20 -17 -38 -15 -39 2 -1 18
-10 36 -19 l32 -17 0 -92 c0 -51 6 -142 14 -203 8 -60 18 -152 22 -204 4 -52
7 -97 8 -98 1 -2 -46 -22 -104 -43 -165 -61 -153 -53 -134 -90 l16 -32 -29 21
-29 21 -17 -46 c-9 -25 -15 -49 -12 -53 9 -15 133 -103 142 -101 4 1 14 18 21
38 11 33 10 39 -8 58 -24 26 -35 18 91 65 l77 29 15 -92 c31 -182 31 -183 -9
-146 l-23 21 -12 -41 c-7 -23 -10 -42 -8 -44 2 -1 25 -19 50 -40 46 -36 47
-38 63 -129 10 -51 30 -156 46 -233 37 -179 56 -323 44 -335 -5 -5 -81 -36
-169 -70 -88 -34 -164 -65 -169 -70 -7 -7 16 -45 64 -102 3 -4 71 17 150 47
92 35 146 51 151 44 3 -6 9 -59 13 -118 3 -60 13 -162 21 -227 14 -111 22
-544 10 -544 -3 0 -57 43 -120 95 -64 52 -119 95 -123 95 -11 0 -36 -99 -28
-107 3 -4 66 -50 139 -103 l132 -96 0 -164 c-1 -216 -7 -256 -43 -265 -38 -9
-182 -66 -182 -71 0 -8 62 -114 66 -114 2 0 32 11 66 25 34 14 66 25 71 25 18
0 -9 -1040 -28 -1058 -2 -3 -44 32 -92 76 l-88 81 -23 -52 c-19 -42 -20 -53
-9 -62 69 -53 193 -151 197 -156 5 -7 -5 -241 -18 -393 l-7 -90 -193 -72
c-106 -39 -196 -75 -200 -79 -7 -7 48 -115 59 -115 4 0 76 25 159 56 83 31
154 54 156 51 7 -7 -22 -248 -52 -437 -23 -140 -90 -470 -99 -478 -1 -2 -27
22 -56 54 -30 31 -89 87 -131 126 l-77 69 -26 -45 c-15 -25 -25 -50 -23 -55 8
-24 204 -180 296 -237 13 -8 -134 -507 -161 -550 -3 -6 -76 -35 -162 -65 -85
-29 -155 -57 -155 -62 0 -20 62 -97 79 -97 10 0 51 11 91 25 40 14 77 25 81
25 12 0 -93 -275 -164 -430 -19 -41 -42 -100 -52 -130 -22 -66 -96 -227 -118
-255 l-16 -20 5 20 c3 14 -12 38 -53 83 l-58 64 -24 -47 -24 -46 66 -62 66
-62 -63 -140 c-68 -151 -185 -378 -223 -435 -12 -19 -23 -38 -23 -42 0 -4 -14
-30 -30 -57 l-31 -49 -304 -122 -305 -122 17 -29 c10 -16 27 -40 38 -53 l20
-25 199 80 c110 43 202 77 204 74 8 -8 -282 -441 -327 -488 -16 -16 -19 -14
-64 45 -60 81 -87 112 -91 107 -10 -12 -36 -70 -36 -81 0 -8 29 -43 65 -78 36
-35 65 -68 65 -72 0 -4 -35 -51 -78 -105 -42 -54 -106 -138 -141 -188 -76
-105 -151 -199 -276 -345 -49 -58 -108 -127 -130 -154 -22 -27 -49 -60 -61
-74 l-20 -25 -65 87 -64 87 -28 -33 c-50 -59 -50 -59 9 -126 31 -34 53 -66 50
-71 -4 -5 -70 -44 -149 -86 -78 -42 -144 -79 -147 -81 -6 -6 42 -94 52 -94 4
0 23 10 43 21 20 12 38 19 41 17 6 -6 -388 -416 -431 -449 -60 -46 -260 -216
-274 -232 -23 -28 -34 -20 -71 48 -19 36 -37 65 -40 65 -3 0 -25 -20 -49 -44
l-43 -44 41 -60 c23 -34 41 -65 41 -69 0 -11 -218 -208 -333 -301 -50 -40
-127 -105 -171 -145 -89 -80 -171 -147 -180 -147 -3 0 -21 29 -41 65 -20 36
-40 65 -44 65 -9 0 -105 -80 -109 -91 -2 -5 10 -33 27 -63 17 -29 31 -60 31
-67 0 -8 -33 -38 -73 -67 -76 -56 -182 -141 -318 -257 -46 -38 -109 -90 -141
-115 -225 -175 -421 -341 -617 -523 -95 -89 -178 -164 -184 -166 -14 -5 15 39
63 99 34 41 82 122 172 290 61 113 167 366 218 523 11 31 29 78 40 105 11 26
42 110 68 187 l47 140 90 47 c50 26 94 49 99 51 9 3 -11 77 -21 77 -2 0 -32
-16 -65 -35 -33 -20 -63 -33 -66 -30 -3 3 13 62 36 133 54 165 68 218 86 327
9 50 21 108 27 130 9 33 13 37 23 23 10 -13 18 -9 65 32 l54 47 -43 74 c-50
85 -50 78 -15 320 14 95 32 241 41 323 8 82 17 152 19 157 3 4 28 15 55 24 55
18 57 22 35 66 -15 29 -16 29 -46 13 -17 -8 -33 -13 -36 -11 -4 4 8 173 34
500 4 55 9 74 17 68 8 -7 27 8 59 44 26 29 47 57 47 60 0 4 -22 44 -49 89
l-49 81 8 145 c5 80 9 265 9 413 1 147 3 267 5 267 3 0 93 27 202 60 108 34
200 60 204 58 5 -2 50 -54 102 -117 51 -63 98 -116 103 -118 10 -2 75 88 75
104 0 11 -208 267 -220 271 -5 2 -26 -20 -47 -49 -36 -51 -37 -51 -51 -30 -8
11 -20 21 -27 21 -8 0 -87 -27 -177 -59 -89 -33 -164 -58 -165 -57 -2 2 -6 61
-9 132 -3 71 -12 198 -21 282 -8 84 -12 156 -9 159 3 3 23 -13 43 -36 l38 -43
38 51 c20 28 37 55 37 59 0 14 -105 142 -146 178 l-35 32 -2 257 -2 258 168
54 c92 30 167 58 167 63 0 5 -9 25 -21 44 l-20 35 -47 -18 c-26 -10 -91 -37
-146 -60 -54 -23 -100 -41 -102 -41 -12 0 8 836 20 847 3 3 25 -15 48 -41 l41
-48 33 58 c22 40 30 63 24 73 -4 9 -36 45 -70 81 l-63 65 17 115 c17 118 47
285 75 424 l16 79 165 59 c90 32 166 61 169 63 6 6 -30 85 -39 85 -13 0 -255
-102 -269 -114 -12 -9 -13 -7 -7 9 4 11 16 52 26 90 9 39 34 126 54 193 20 68
36 132 36 141 0 10 15 67 34 127 19 60 39 133 46 162 7 28 15 52 19 52 3 0 42
-36 86 -80 44 -44 82 -80 85 -80 3 0 16 27 28 60 l24 60 -81 87 c-45 47 -81
90 -81 94 0 14 98 295 113 325 8 16 31 76 52 134 40 115 161 388 179 406 6 6
71 32 145 58 l134 47 24 -23 c24 -23 25 -23 40 -3 8 11 24 38 35 60 l21 40
-102 95 c-56 52 -101 99 -101 103 0 15 307 479 404 611 115 158 254 326 268
326 5 0 58 -43 118 -96 l110 -95 32 65 32 65 -21 18 c-12 10 -56 47 -97 83
-42 35 -76 69 -76 74 0 16 106 139 202 232 l93 92 179 61 c98 34 182 64 187
66 6 4 -6 60 -16 73 -2 2 -54 -17 -116 -42 -62 -25 -115 -44 -117 -41 -5 5
266 288 298 311 12 9 30 0 94 -50 43 -34 79 -66 78 -71 0 -5 -18 -16 -40 -24
-22 -9 -43 -19 -46 -22 -6 -6 21 -79 29 -79 2 0 34 11 71 25 77 29 97 31 114
10 18 -21 23 -19 45 18 10 17 24 36 32 40 17 10 16 27 -3 66 -11 22 -21 30
-32 27 -11 -4 -55 25 -124 79 l-106 84 112 113 c62 62 224 221 360 353 136
132 274 273 307 313 33 39 64 72 68 72 4 0 65 -45 137 -100 71 -55 132 -100
136 -100 9 0 60 89 56 100 -2 4 -55 50 -118 100 -63 51 -117 93 -119 95 -2 2
39 51 90 107 52 57 143 161 202 231 121 143 101 136 203 71 l52 -33 14 22 c8
12 22 34 32 48 l17 26 -50 32 c-85 55 -105 17 199 372 137 160 237 286 311
392 29 43 55 74 57 68 2 -5 -6 -49 -18 -98z m-3642 -4286 l23 -24 -85 -37
c-46 -20 -87 -36 -90 -36 -4 0 12 36 34 80 l41 81 27 -20 c15 -10 37 -30 50
-44z"/>
<path d="M11385 17141 c-31 -50 -31 -55 -1 -69 27 -12 33 -8 59 44 17 33 15
38 -20 58 -8 4 -22 -8 -38 -33z"/>
<path d="M11032 16487 c-14 -18 -42 -75 -42 -86 0 -5 51 -48 112 -96 l113 -85
21 47 c16 36 18 51 10 62 -6 8 -54 49 -108 92 -71 58 -99 75 -106 66z"/>
<path d="M11148 16143 l-88 -34 26 -52 c15 -29 27 -53 29 -55 2 -3 187 67 194
74 10 10 -43 104 -58 103 -9 0 -55 -16 -103 -36z"/>
<path d="M10763 15996 c-73 -29 -136 -55 -139 -59 -9 -9 29 -97 43 -97 12 0
285 98 292 105 8 8 -42 105 -53 104 -6 -1 -71 -25 -143 -53z"/>
<path d="M10298 15817 c-86 -34 -160 -65 -164 -69 -10 -10 26 -88 41 -88 14 0
317 110 327 119 7 7 -31 102 -41 100 -3 0 -77 -28 -163 -62z"/>
<path d="M10114 15498 c-9 -18 -23 -43 -31 -55 -14 -21 -11 -24 47 -70 34 -26
66 -50 71 -51 7 -3 59 96 59 112 0 4 -119 96 -125 96 -2 0 -12 -15 -21 -32z"/>
<path d="M10366 15281 c-15 -28 -26 -55 -26 -60 0 -10 389 -315 395 -309 6 6
45 99 45 108 0 7 -244 202 -377 303 -8 6 -20 -7 -37 -42z"/>
<path d="M11205 14919 c-71 -28 -131 -52 -133 -54 -2 -2 4 -20 13 -40 8 -21
14 -39 13 -41 -2 -1 -43 29 -92 68 -48 38 -92 66 -96 61 -5 -4 -17 -35 -28
-68 l-21 -60 -143 -56 c-79 -30 -143 -60 -143 -65 0 -18 49 -94 60 -94 7 0 61
18 121 41 60 23 133 50 162 61 46 17 52 22 46 41 -6 18 -4 20 7 11 121 -94
180 -137 183 -133 2 2 14 28 25 56 l21 53 -30 22 c-17 12 -30 25 -30 29 0 3
28 17 63 29 34 13 97 36 139 52 l77 29 -36 55 c-20 30 -39 54 -42 54 -3 -1
-64 -24 -136 -51z"/>
<path d="M9194 14644 c-24 -56 -25 -67 -13 -79 8 -7 57 -50 109 -95 l94 -81
28 53 c15 29 27 60 28 69 0 8 -41 51 -92 95 -136 118 -121 114 -154 38z"/>
<path d="M10287 14563 c-79 -31 -116 -50 -113 -59 3 -7 16 -30 30 -52 l25 -40
117 44 c63 24 120 46 124 49 9 6 -48 105 -59 104 -3 0 -59 -21 -124 -46z"/>
<path d="M11305 14540 c-9 -27 -14 -54 -10 -60 3 -6 51 -44 106 -86 65 -49
101 -70 104 -62 36 98 35 94 7 120 -53 47 -171 138 -181 138 -5 0 -17 -22 -26
-50z"/>
<path d="M9873 14402 c-79 -30 -143 -60 -143 -65 0 -6 11 -29 25 -53 l25 -42
141 53 c78 30 144 56 147 60 6 5 -37 93 -48 100 -3 1 -69 -22 -147 -53z"/>
<path d="M9544 14354 c-15 -32 -27 -66 -26 -75 0 -13 -32 -30 -124 -64 -68
-27 -124 -50 -124 -52 0 -4 40 -85 45 -91 1 -1 70 23 153 54 l152 56 85 -72
c47 -40 88 -76 91 -81 11 -18 24 -8 43 35 37 86 43 74 -91 192 -68 59 -135
119 -150 132 l-28 25 -26 -59z"/>
<path d="M8978 14052 c-64 -26 -120 -50 -124 -54 -6 -6 23 -88 31 -88 7 0 268
100 273 104 10 11 -31 86 -47 85 -9 0 -69 -22 -133 -47z"/>
<path d="M9970 13973 c-11 -31 -20 -62 -18 -68 3 -13 237 -219 242 -214 9 10
56 110 56 118 0 11 -238 221 -251 221 -4 0 -17 -25 -29 -57z"/>
<path d="M8542 13877 l-153 -61 6 -36 c4 -19 9 -37 11 -39 8 -8 324 112 324
123 -1 6 -9 25 -18 42 l-17 32 -153 -61z"/>
<path d="M10345 13640 c-18 -37 -25 -64 -19 -69 17 -16 239 -206 256 -219 15
-12 20 -7 47 47 l31 60 -137 121 c-75 66 -140 120 -143 120 -4 0 -19 -27 -35
-60z"/>
<path d="M8430 13578 c-16 -29 -30 -56 -30 -59 0 -4 44 -46 98 -95 53 -48 111
-100 127 -116 l31 -28 32 56 c18 31 32 59 32 63 0 8 -245 231 -254 231 -3 0
-19 -24 -36 -52z"/>
<path d="M11360 13390 c-96 -38 -186 -74 -198 -80 l-24 -10 27 -48 c15 -26 31
-51 36 -56 8 -8 373 126 393 144 6 6 -49 122 -57 119 -1 0 -81 -31 -177 -69z"/>
<path d="M10751 13292 l-30 -59 30 -29 c16 -15 29 -31 29 -35 0 -4 -25 -17
-56 -29 -35 -15 -53 -27 -50 -36 12 -32 57 -94 69 -94 11 0 297 109 306 117 3
2 -8 28 -25 58 -28 53 -30 55 -62 49 -27 -5 -39 -1 -78 32 -26 22 -59 49 -75
62 l-28 23 -30 -59z"/>
<path d="M8811 13235 c-18 -31 -31 -60 -29 -64 3 -7 305 -282 340 -309 15 -12
21 -7 54 42 20 31 35 58 33 59 -2 2 -76 68 -164 148 -88 79 -170 152 -181 162
-21 18 -22 17 -53 -38z"/>
<path d="M11051 13031 l-31 -60 77 -67 78 -67 26 59 c31 68 34 61 -63 146
l-57 49 -30 -60z"/>
<path d="M10445 13031 c-38 -16 -136 -54 -218 -86 -127 -50 -147 -60 -142 -76
6 -17 0 -19 -52 -19 -84 0 -149 -20 -310 -94 -194 -90 -193 -90 -256 -30 -29
27 -71 67 -94 88 l-41 38 -36 -48 c-19 -27 -36 -54 -36 -60 0 -6 45 -50 100
-99 85 -75 98 -90 89 -106 -15 -28 -24 -23 -53 26 -27 45 -27 45 -59 32 -18
-8 -122 -49 -232 -92 -110 -43 -203 -81 -207 -84 -10 -8 51 -101 66 -101 6 0
103 36 216 80 112 43 206 77 209 75 2 -2 -8 -18 -22 -35 -75 -88 -229 -388
-293 -568 -55 -156 -73 -255 -81 -439 -5 -109 -9 -143 -19 -143 -13 0 -64 -88
-64 -111 0 -6 18 -31 39 -54 24 -26 44 -60 51 -87 6 -23 26 -92 46 -152 19
-59 34 -109 32 -111 -2 -1 -60 -24 -130 -50 -71 -26 -128 -52 -128 -57 0 -8
58 -98 63 -98 1 0 62 23 136 50 74 28 139 50 145 50 6 0 33 -18 59 -39 97 -80
164 -109 266 -116 53 -4 69 -9 93 -32 31 -29 29 -30 50 11 13 25 25 32 79 43
89 17 202 77 274 144 51 48 67 57 108 61 75 9 127 69 240 279 26 47 52 91 60
97 7 6 46 23 87 37 41 15 79 30 83 34 4 4 -2 33 -14 65 -21 54 -24 57 -51 51
-15 -4 -28 -4 -28 0 0 13 32 120 66 225 20 58 40 121 47 140 16 52 11 464 -8
572 -44 256 -142 443 -275 529 -28 18 -50 35 -50 38 0 3 74 35 165 70 91 35
165 66 165 69 0 5 -61 112 -63 111 -1 0 -33 -13 -72 -28z"/>
<path d="M11327 12794 c-15 -30 -27 -56 -27 -59 0 -6 203 -175 210 -175 4 0
17 23 31 51 l24 52 -36 31 c-20 17 -67 59 -106 93 l-69 62 -27 -55z"/>
<path d="M7865 12354 c-34 -82 -33 -87 35 -159 35 -36 67 -65 71 -65 4 0 20
25 35 55 l28 55 -76 77 -76 76 -17 -39z"/>
<path d="M8583 12299 c-84 -33 -153 -65 -153 -71 0 -14 53 -88 64 -88 10 0
298 109 305 116 3 3 -58 105 -63 103 0 0 -70 -27 -153 -60z"/>
<path d="M8138 12122 c-64 -26 -120 -50 -124 -54 -3 -4 5 -27 19 -51 23 -38
30 -43 54 -40 26 4 44 -12 182 -156 84 -89 156 -161 160 -161 4 0 19 25 34 56
l28 56 -126 133 c-69 73 -122 135 -118 138 4 2 25 10 46 16 20 7 37 17 37 22
0 17 -52 89 -64 89 -6 -1 -64 -22 -128 -48z"/>
<path d="M7793 11982 l-42 -17 22 -47 22 -46 57 21 58 22 -26 43 c-28 47 -32
48 -91 24z"/>
<path d="M8578 11593 l-25 -58 110 -115 c60 -63 114 -116 118 -118 9 -4 59 90
59 110 0 13 -219 238 -231 238 -4 0 -18 -26 -31 -57z"/>
<path d="M10680 11539 l-33 -50 47 -48 48 -48 -31 -11 c-17 -6 -31 -15 -31
-20 0 -18 32 -102 41 -108 13 -7 208 60 237 82 8 6 -51 106 -66 111 -9 3 -51
37 -94 75 -42 37 -78 68 -81 68 -3 0 -20 -23 -37 -51z"/>
<path d="M11158 11548 l-107 -40 30 -59 c16 -32 31 -59 34 -59 2 0 54 18 114
41 l109 41 -31 59 c-18 32 -34 59 -37 58 -3 0 -53 -18 -112 -41z"/>
<path d="M11038 11258 c-8 -13 -22 -37 -31 -54 l-16 -31 102 -90 c56 -49 107
-92 113 -96 7 -4 23 14 39 45 l28 52 -104 97 c-57 54 -107 98 -110 99 -4 0
-13 -10 -21 -22z"/>
<path d="M7420 10730 l-31 -62 36 -44 c20 -24 38 -44 40 -44 7 0 65 104 64
115 0 6 -17 29 -39 53 l-39 43 -31 -61z"/>
<path d="M8528 10568 c-60 -22 -108 -44 -108 -49 0 -18 53 -89 66 -89 14 0
223 75 231 84 9 9 -51 96 -67 95 -8 0 -63 -18 -122 -41z"/>
<path d="M7612 10514 c-18 -31 -32 -59 -32 -62 1 -4 18 -27 39 -51 l38 -43 32
58 c17 32 31 60 31 63 -1 3 -18 25 -38 49 l-38 42 -32 -56z"/>
<path d="M8145 10423 c-49 -19 -94 -38 -98 -43 -11 -10 30 -90 46 -90 21 0
227 75 227 83 0 19 -54 87 -69 86 -9 0 -56 -16 -106 -36z"/>
<path d="M9756 10394 l-27 -57 98 -99 c54 -54 100 -98 103 -98 8 0 50 87 50
103 0 7 -44 56 -98 110 l-98 97 -28 -56z"/>
<path d="M7816 10322 c-12 -24 -34 -37 -108 -67 -51 -20 -95 -38 -97 -40 -2
-3 15 -36 44 -82 1 -2 37 9 80 23 l78 27 35 -43 35 -42 33 58 32 57 -28 51
c-16 28 -35 53 -42 55 -7 2 -21 10 -30 18 -15 13 -18 12 -32 -15z"/>
<path d="M10073 10065 l-27 -55 94 -95 c52 -52 98 -95 102 -95 4 0 19 23 34
51 l26 51 -94 98 c-51 53 -96 98 -101 99 -4 0 -19 -24 -34 -54z"/>
<path d="M8047 10069 c-9 -13 -23 -41 -33 -61 l-17 -37 49 -57 c27 -31 57 -67
67 -80 10 -13 23 -24 28 -24 10 0 59 92 59 111 0 6 -28 43 -62 83 -34 39 -65
75 -69 80 -4 4 -14 -2 -22 -15z"/>
<path d="M10823 9853 c-90 -30 -163 -58 -163 -62 0 -5 18 -29 40 -54 l40 -45
165 54 164 55 -33 52 c-18 28 -37 52 -42 53 -5 1 -82 -22 -171 -53z"/>
<path d="M10385 9748 c-30 -51 -31 -52 -132 -86 l-102 -33 36 -50 c21 -27 44
-49 53 -49 9 0 56 14 105 30 108 36 115 37 145 5 13 -14 26 -25 30 -25 8 0 50
87 50 105 0 13 -137 155 -149 155 -3 -1 -19 -24 -36 -52z"/>
<path d="M8285 9731 l-28 -59 74 -86 c40 -46 75 -83 79 -81 3 2 18 28 34 58
l30 54 -75 87 c-41 47 -77 86 -80 86 -3 0 -18 -27 -34 -59z"/>
<path d="M9835 9522 c-71 -25 -132 -47 -134 -49 -5 -3 46 -79 63 -92 11 -9
297 77 300 90 3 16 -67 99 -82 98 -9 0 -75 -21 -147 -47z"/>
<path d="M10666 9469 l-26 -54 72 -72 c40 -40 75 -73 78 -73 3 0 16 21 28 46
l23 46 -62 67 c-35 36 -68 72 -75 80 -11 12 -17 6 -38 -40z"/>
<path d="M8551 9430 l-32 -60 93 -108 c51 -59 100 -119 107 -134 8 -15 27 -39
43 -55 l29 -27 177 58 c97 32 179 60 181 62 2 2 -13 25 -33 53 l-37 49 -113
-38 c-62 -21 -117 -35 -122 -31 -5 3 -58 62 -118 131 -60 69 -117 133 -126
143 -16 17 -18 15 -49 -43z"/>
<path d="M9395 9374 c-71 -24 -136 -46 -143 -49 -15 -6 -7 -23 35 -73 l28 -32
140 46 c77 26 143 49 147 53 7 6 -59 102 -70 100 -4 0 -65 -20 -137 -45z"/>
<path d="M7422 9065 c-18 -25 -35 -51 -37 -58 -5 -11 106 -158 125 -165 9 -3
82 96 78 107 -5 13 -123 160 -128 160 -3 0 -20 -20 -38 -44z"/>
<path d="M8355 9023 c-88 -31 -161 -57 -163 -58 -10 -8 56 -84 73 -85 11 0 96
25 188 56 150 50 167 58 155 72 -32 43 -63 72 -77 71 -9 0 -88 -25 -176 -56z"/>
<path d="M8935 8991 c-18 -39 -25 -63 -19 -73 18 -29 178 -207 183 -203 3 2
19 28 35 58 l30 54 -93 106 c-50 59 -95 109 -100 111 -4 3 -20 -21 -36 -53z"/>
<path d="M7880 8860 c-87 -31 -134 -53 -132 -61 5 -21 43 -69 54 -69 17 0 272
82 281 90 11 10 -41 90 -57 89 -6 -1 -72 -23 -146 -49z"/>
<path d="M9241 8641 l-32 -61 102 -115 c57 -64 106 -112 109 -108 4 5 19 29
34 55 l27 46 -92 109 c-51 59 -97 114 -104 121 -9 10 -18 1 -44 -47z"/>
<path d="M7986 8348 c-21 -30 -32 -56 -27 -62 79 -103 256 -312 267 -314 10
-2 14 6 14 26 0 16 9 41 21 56 11 14 19 32 17 40 -4 20 -237 306 -248 306 -5
0 -25 -23 -44 -52z"/>
<path d="M9557 8274 l-28 -56 60 -67 c91 -103 86 -101 116 -41 14 28 22 56 18
63 -10 18 -125 152 -133 155 -3 1 -18 -23 -33 -54z"/>
<path d="M9821 7993 c-17 -35 -29 -43 -95 -69 -42 -16 -76 -32 -76 -37 0 -14
51 -97 60 -97 5 0 41 12 80 26 67 25 72 26 90 9 18 -16 19 -15 35 15 9 17 27
36 40 42 l23 10 -33 52 c-18 28 -39 50 -46 48 -6 -2 -22 7 -35 19 l-23 21 -20
-39z"/>
<path d="M8365 7940 c-10 -11 -24 -20 -30 -20 -15 0 -28 -59 -17 -74 5 -6 47
-58 93 -116 46 -57 89 -110 95 -118 8 -11 19 -3 53 42 l42 57 -102 124 c-57
69 -106 125 -109 125 -4 0 -15 -9 -25 -20z"/>
<path d="M9393 7792 c-50 -21 -94 -40 -98 -44 -3 -3 5 -29 19 -57 l26 -51 53
21 c28 12 76 30 105 41 28 11 52 23 52 27 0 13 -51 101 -58 100 -4 0 -48 -17
-99 -37z"/>
<path d="M9028 7648 c-63 -26 -98 -46 -98 -55 0 -17 40 -93 49 -93 10 0 201
76 207 83 7 6 -44 107 -54 106 -4 0 -51 -19 -104 -41z"/>
<path d="M8662 7532 c-34 -40 -57 -56 -112 -78 -39 -15 -70 -31 -70 -36 0 -19
46 -88 58 -88 7 0 40 11 74 25 34 14 67 25 73 25 6 0 44 -40 84 -90 40 -49 75
-90 76 -90 2 0 22 22 45 50 l42 50 -49 62 c-26 35 -62 89 -78 120 -20 39 -36
58 -48 58 -11 0 -27 10 -36 21 -17 21 -17 21 -59 -29z"/>
<path d="M7351 7355 c-29 -30 -50 -58 -48 -63 8 -15 80 -137 84 -141 7 -9 103
93 103 109 0 8 -20 46 -43 83 l-43 68 -53 -56z"/>
<path d="M8208 7318 c-56 -23 -98 -46 -98 -54 0 -21 33 -84 44 -84 9 0 217 79
224 85 6 6 -51 95 -61 94 -7 0 -56 -19 -109 -41z"/>
<path d="M7850 7172 c-47 -19 -87 -37 -89 -39 -3 -2 5 -23 17 -48 l21 -44 67
25 c36 13 81 31 100 39 l34 14 -20 43 c-10 24 -25 44 -32 45 -7 1 -51 -15 -98
-35z"/>
<path d="M8987 7120 l-38 -49 92 -111 93 -111 37 43 c21 24 38 48 39 53 0 12
-169 225 -178 225 -4 -1 -24 -23 -45 -50z"/>
<path d="M7535 7069 c-22 -23 -68 -54 -102 -70 -35 -15 -63 -31 -63 -34 0 -5
29 -65 34 -72 1 -2 26 6 55 17 29 11 56 18 61 15 4 -3 36 -50 70 -105 34 -55
65 -100 68 -100 15 0 102 82 102 96 0 17 -163 287 -176 291 -5 2 -28 -15 -49
-38z"/>
<path d="M7792 6622 l-53 -47 95 -154 c52 -84 98 -157 103 -161 4 -5 32 13 61
40 l53 47 -97 162 c-53 88 -99 161 -103 161 -3 0 -30 -22 -59 -48z"/>
<path d="M8773 6276 c-62 -34 -116 -65 -119 -69 -7 -7 42 -87 53 -87 8 0 235
119 245 129 10 9 -40 91 -55 90 -7 0 -63 -29 -124 -63z"/>
<path d="M8072 6156 l-46 -44 52 -85 c29 -46 52 -89 52 -94 0 -5 -25 -22 -55
-38 -30 -17 -55 -32 -55 -35 1 -3 11 -24 23 -47 l22 -42 90 49 c50 27 90 56
90 64 0 8 10 25 23 39 l22 23 -75 127 c-42 70 -80 127 -86 127 -6 0 -31 -20
-57 -44z"/>
<path d="M8430 6088 c-41 -22 -77 -42 -79 -44 -7 -6 9 -49 27 -72 l18 -23 80
42 c43 23 81 43 82 45 3 2 -47 94 -51 94 -1 0 -36 -19 -77 -42z"/>
<path d="M7778 5733 l-86 -47 20 -40 c11 -23 22 -43 24 -45 3 -3 172 85 183
95 8 7 -32 84 -43 84 -6 0 -50 -21 -98 -47z"/>
<path d="M7165 5726 l-50 -44 45 -87 c25 -47 48 -89 53 -91 9 -6 107 75 107
89 0 12 -93 177 -100 177 -3 0 -28 -20 -55 -44z"/>
<path d="M7470 5564 c-113 -62 -110 -59 -97 -94 11 -28 9 -32 -31 -73 -23 -23
-42 -45 -42 -49 0 -3 22 -45 48 -92 l49 -87 56 46 c32 25 57 49 57 53 0 4 -8
21 -18 37 -10 17 -30 51 -45 77 l-27 47 81 43 c45 24 83 48 86 55 6 16 -25 73
-40 73 -6 0 -41 -16 -77 -36z"/>
<path d="M7170 5398 c-19 -12 -37 -23 -39 -25 -2 -1 1 -21 8 -43 l12 -40 49
25 c28 14 50 28 50 32 0 19 -25 73 -35 73 -5 0 -26 -10 -45 -22z"/>
</g>
</svg>
