<?xml version="1.0" encoding="UTF-8" standalone="no"?>
<svg
   xmlns:dc="http://purl.org/dc/elements/1.1/"
   xmlns:cc="http://creativecommons.org/ns#"
   xmlns:rdf="http://www.w3.org/1999/02/22-rdf-syntax-ns#"
   xmlns:svg="http://www.w3.org/2000/svg"
   xmlns="http://www.w3.org/2000/svg"
   xmlns:xlink="http://www.w3.org/1999/xlink"
   viewBox="0 0 249.01714 124.35901"
   height="124.35901mm"
   width="249.01714mm"
   version="1.1"
   id="svg40">
  <metadata
     id="metadata44">
    <rdf:RDF>
      <cc:Work
         rdf:about="">
        <dc:format>image/svg+xml</dc:format>
        <dc:type
           rdf:resource="http://purl.org/dc/dcmitype/StillImage" />
        <dc:title></dc:title>
      </cc:Work>
    </rdf:RDF>
  </metadata>
  <defs
     id="defs16">
    <rect
       x="-4.4195946"
       y="-112.33136"
       width="53.035135"
       height="55.244932"
       id="rect1130" />
    <rect
       x="70.315319"
       y="-104.6917"
       width="169.27762"
       height="62.502506"
       id="rect1103" />
    <rect
       x="45.05389"
       y="115.36921"
       width="61.200371"
       height="49.220722"
       id="rect1066" />
    <rect
       x="-35.799595"
       y="-25.668346"
       width="12.338035"
       height="25.596819"
       id="rect908" />
    <rect
       x="-49.610828"
       y="-21.248753"
       width="32.962811"
       height="31.673761"
       id="rect902" />
    <rect
       x="-8.9411764"
       y="-15.529412"
       width="60.235294"
       height="27.764706"
       id="rect955" />
    <radialGradient
       r="12.384"
       fy="125.588"
       fx="38.382"
       cy="125.588"
       cx="38.382"
       gradientTransform="matrix(0.50783939,0,0,0.50783939,35.843103,15.762824)"
       gradientUnits="userSpaceOnUse"
       id="b"
       xlink:href="#a" />
    <radialGradient
       r="12.384"
       fy="125.588"
       fx="38.382"
       cy="125.588"
       cx="38.382"
       gradientTransform="matrix(0.50783939,0,0,0.50783939,35.843103,-9.1411762)"
       gradientUnits="userSpaceOnUse"
       id="c"
       xlink:href="#a" />
    <radialGradient
       gradientTransform="matrix(0.50783939,0,0,0.50783939,39.876298,-18.223176)"
       r="12.384"
       fy="125.588"
       fx="38.382"
       cy="125.588"
       cx="38.382"
       gradientUnits="userSpaceOnUse"
       id="d"
       xlink:href="#a" />
    <radialGradient
       r="12.384"
       fy="125.588"
       fx="38.382"
       cy="125.588"
       cx="38.382"
       gradientTransform="matrix(0.50783939,0,0,0.50783939,39.876298,3.3108238)"
       gradientUnits="userSpaceOnUse"
       id="e"
       xlink:href="#a" />
    <radialGradient
       r="12.384"
       fy="125.588"
       fx="38.382"
       cy="125.588"
       cx="38.382"
       gradientTransform="matrix(0.50783939,0,0,0.50783939,39.876298,24.844824)"
       gradientUnits="userSpaceOnUse"
       id="f"
       xlink:href="#a" />
    <radialGradient
       r="12.384"
       fy="125.588"
       fx="38.382"
       cy="125.588"
       cx="38.382"
       gradientTransform="matrix(0.35148,0,0,0.35148,-48.235,95.83)"
       gradientUnits="userSpaceOnUse"
       id="g"
       xlink:href="#a" />
    <radialGradient
       r="12.384"
       fy="125.588"
       fx="38.382"
       cy="125.588"
       cx="38.382"
       gradientTransform="matrix(0.35148,0,0,0.35148,-48.235,95.83)"
       gradientUnits="userSpaceOnUse"
       id="h"
       xlink:href="#a" />
    <radialGradient
       r="12.384"
       fy="125.588"
       fx="38.382"
       cy="125.588"
       cx="38.382"
       gradientTransform="matrix(0.35148,0,0,0.35148,-48.235,95.83)"
       gradientUnits="userSpaceOnUse"
       id="i"
       xlink:href="#a" />
    <radialGradient
       r="12.384"
       fy="125.588"
       fx="38.382"
       cy="125.588"
       cx="38.382"
       gradientTransform="matrix(0.35148,0,0,0.35148,-48.235,95.83)"
       gradientUnits="userSpaceOnUse"
       id="j"
       xlink:href="#a" />
    <linearGradient
       id="a">
      <stop
         offset="0"
         stop-color="#fff"
         id="stop11" />
      <stop
         offset="1"
         stop-color="#bdcdd4"
         id="stop13" />
    </linearGradient>
    <radialGradient
       xlink:href="#a"
       id="radialGradient917"
       gradientUnits="userSpaceOnUse"
       gradientTransform="matrix(0.50783939,0,0,0.50783939,-205.90724,-18.154988)"
       cx="38.382"
       cy="125.588"
       fx="38.382"
       fy="125.588"
       r="12.384" />
    <radialGradient
       xlink:href="#a"
       id="radialGradient919"
       gradientUnits="userSpaceOnUse"
       gradientTransform="matrix(0.50783939,0,0,0.50783939,-205.90724,3.3790119)"
       cx="38.382"
       cy="125.588"
       fx="38.382"
       fy="125.588"
       r="12.384" />
    <radialGradient
       xlink:href="#a"
       id="radialGradient921"
       gradientUnits="userSpaceOnUse"
       gradientTransform="matrix(0.50783939,0,0,0.50783939,-205.90724,24.913011)"
       cx="38.382"
       cy="125.588"
       fx="38.382"
       fy="125.588"
       r="12.384" />
    <radialGradient
       xlink:href="#a"
       id="radialGradient923"
       gradientUnits="userSpaceOnUse"
       gradientTransform="matrix(0.35148,0,0,0.35148,-48.235,95.83)"
       cx="38.382"
       cy="125.588"
       fx="38.382"
       fy="125.588"
       r="12.384" />
    <radialGradient
       xlink:href="#a"
       id="radialGradient925"
       gradientUnits="userSpaceOnUse"
       gradientTransform="matrix(0.35148,0,0,0.35148,-48.235,95.83)"
       cx="38.382"
       cy="125.588"
       fx="38.382"
       fy="125.588"
       r="12.384" />
    <radialGradient
       xlink:href="#a"
       id="radialGradient927"
       gradientUnits="userSpaceOnUse"
       gradientTransform="matrix(0.35148,0,0,0.35148,-48.235,95.83)"
       cx="38.382"
       cy="125.588"
       fx="38.382"
       fy="125.588"
       r="12.384" />
    <radialGradient
       xlink:href="#a"
       id="radialGradient929"
       gradientUnits="userSpaceOnUse"
       gradientTransform="matrix(0.35148,0,0,0.35148,-48.235,95.83)"
       cx="38.382"
       cy="125.588"
       fx="38.382"
       fy="125.588"
       r="12.384" />
    <rect
       x="-8.9411764"
       y="-15.529412"
       width="60.235294"
       height="27.764706"
       id="rect963" />
    <rect
       x="-8.9411764"
       y="-15.529412"
       width="60.235294"
       height="27.764706"
       id="rect967" />
    <radialGradient
       xlink:href="#a"
       id="radialGradient988"
       gradientUnits="userSpaceOnUse"
       gradientTransform="matrix(0.50783939,0,0,0.50783939,39.8763,-18.154988)"
       cx="38.382"
       cy="125.588"
       fx="38.382"
       fy="125.588"
       r="12.384" />
    <radialGradient
       xlink:href="#a"
       id="radialGradient990"
       gradientUnits="userSpaceOnUse"
       gradientTransform="matrix(0.35148,0,0,0.35148,-48.235,95.83)"
       cx="38.382"
       cy="125.588"
       fx="38.382"
       fy="125.588"
       r="12.384" />
    <radialGradient
       xlink:href="#a"
       id="radialGradient992"
       gradientUnits="userSpaceOnUse"
       gradientTransform="matrix(0.35148,0,0,0.35148,-48.235,95.83)"
       cx="38.382"
       cy="125.588"
       fx="38.382"
       fy="125.588"
       r="12.384" />
    <radialGradient
       xlink:href="#a"
       id="radialGradient994"
       gradientUnits="userSpaceOnUse"
       gradientTransform="matrix(0.35148,0,0,0.35148,-48.235,95.83)"
       cx="38.382"
       cy="125.588"
       fx="38.382"
       fy="125.588"
       r="12.384" />
    <radialGradient
       xlink:href="#a"
       id="radialGradient996"
       gradientUnits="userSpaceOnUse"
       gradientTransform="matrix(0.35148,0,0,0.35148,-48.235,95.83)"
       cx="38.382"
       cy="125.588"
       fx="38.382"
       fy="125.588"
       r="12.384" />
    <radialGradient
       xlink:href="#a"
       id="radialGradient998"
       gradientUnits="userSpaceOnUse"
       gradientTransform="matrix(0.50783939,0,0,0.50783939,39.8763,3.379012)"
       cx="38.382"
       cy="125.588"
       fx="38.382"
       fy="125.588"
       r="12.384" />
    <radialGradient
       xlink:href="#a"
       id="radialGradient1000"
       gradientUnits="userSpaceOnUse"
       gradientTransform="matrix(0.50783939,0,0,0.50783939,39.8763,24.913012)"
       cx="38.382"
       cy="125.588"
       fx="38.382"
       fy="125.588"
       r="12.384" />
    <radialGradient
       xlink:href="#a"
       id="radialGradient1038"
       gradientUnits="userSpaceOnUse"
       gradientTransform="matrix(0.50783939,0,0,0.50783939,34.334578,-27.706176)"
       cx="38.382"
       cy="125.588"
       fx="38.382"
       fy="125.588"
       r="12.384" />
    <radialGradient
       xlink:href="#a"
       id="radialGradient1040"
       gradientUnits="userSpaceOnUse"
       gradientTransform="matrix(0.50783939,0,0,0.50783939,34.334578,-7.0291762)"
       cx="38.382"
       cy="125.588"
       fx="38.382"
       fy="125.588"
       r="12.384" />
    <radialGradient
       xlink:href="#a"
       id="radialGradient1042"
       gradientUnits="userSpaceOnUse"
       gradientTransform="matrix(0.50783939,0,0,0.50783939,34.334578,13.649824)"
       cx="38.382"
       cy="125.588"
       fx="38.382"
       fy="125.588"
       r="12.384" />
    <radialGradient
       xlink:href="#a"
       id="radialGradient1044"
       gradientUnits="userSpaceOnUse"
       gradientTransform="matrix(0.50783939,0,0,0.50783939,34.334578,34.326824)"
       cx="38.382"
       cy="125.588"
       fx="38.382"
       fy="125.588"
       r="12.384" />
    <rect
       x="45.05389"
       y="115.36921"
       width="61.200371"
       height="49.220722"
       id="rect1074" />
  </defs>
  <path
     id="rect1062"
     style="fill:#d76cff;fill-opacity:0.51004;stroke:#d76cff;stroke-width:0.1985;stroke-linecap:round;stroke-linejoin:bevel;stroke-miterlimit:4;stroke-dasharray:none"
     d="m 90.543668,68.339355 h 17.449022 c 0.9748,0 1.75957,0.788484 1.75957,1.767901 v 38.599034 c 0,0.97942 -0.78477,1.7679 -1.75957,1.7679 H 90.543668 c -0.974803,0 -1.759572,-0.78848 -1.759572,-1.7679 V 70.107256 c 0,-0.979417 0.784769,-1.767901 1.759572,-1.767901 z" />
  <path
     id="rect931"
     style="fill:#ccff42;fill-opacity:0.51004;stroke:#9ade00;stroke-width:0.264583;stroke-linecap:round;stroke-linejoin:bevel;stroke-miterlimit:4;stroke-dasharray:none"
     d="m 133.50831,39.143333 h 23.31295 c 1.3024,0 2.3509,1.0485 2.3509,2.350896 v 51.3277 c 0,1.302397 -1.0485,2.350896 -2.3509,2.350896 h -23.31295 c -1.3024,0 -2.3509,-1.048499 -2.3509,-2.350896 v -51.3277 c 0,-1.302396 1.0485,-2.350896 2.3509,-2.350896 z" />
  <path
     id="rect1002"
     style="fill:#ff9900;fill-opacity:0.51004;stroke:#ff9900;stroke-width:0.1985;stroke-linecap:round;stroke-linejoin:bevel;stroke-miterlimit:4;stroke-dasharray:none"
     d="m 90.543668,24.947645 h 17.449022 c 0.9748,0 1.75957,0.788484 1.75957,1.767901 v 38.599033 c 0,0.979417 -0.78477,1.7679 -1.75957,1.7679 H 90.543668 c -0.974803,0 -1.759572,-0.788483 -1.759572,-1.7679 V 26.715546 c 0,-0.979417 0.784769,-1.767901 1.759572,-1.767901 z" />
  <path
     style="fill:none;stroke:#9eabb0;stroke-width:1.32291668;stroke-linecap:butt;stroke-linejoin:miter;stroke-opacity:1;stroke-miterlimit:4;stroke-dasharray:none"
     d="M 59.75411,88.89008 99.229122,57.082922"
     id="path1231" />
  <path
     id="path1080"
     style="fill:none;stroke:#9eabb0;stroke-width:1.37054;stroke-linecap:butt;stroke-linejoin:miter;stroke-miterlimit:4;stroke-dasharray:none;stroke-opacity:1"
     d="M 99.467196,79.609767 144.73241,54.739078 M 99.229121,36.50918 144.73141,54.739078 M 99.489547,98.901596 144.73142,79.899078 m 10e-4,0 -45.503298,-22.816156 45.503298,22.816156" />
  <path
     d="M 59.754108,88.890078 99.489547,98.901596"
     fill="none"
     stroke="#9eabb0"
     stroke-width="1.45991"
     id="path1048" />
  <path
     id="path940"
     style="fill:#19aeff;fill-opacity:0.51004;stroke:#0084c8;stroke-width:0.264583;stroke-linecap:round;stroke-linejoin:bevel;stroke-miterlimit:4;stroke-dasharray:none"
     d="m 219.34424,15.859978 h 23.31296 c 1.30239,0 2.35089,1.0485 2.35089,2.350896 v 97.894406 c 0,1.3024 -1.0485,2.3509 -2.35089,2.3509 h -23.31296 c -1.30239,0 -2.35089,-1.0485 -2.35089,-2.3509 V 18.210874 c 0,-1.302396 1.0485,-2.350896 2.35089,-2.350896 z" />
  <path
     d="m 144.73241,79.899078 41.29601,8.991 45.608,-11.53 -45.322,-34.035 -41.58201,11.414 m 41.29601,34.151 45.448,-32.082 m -0.342,41.844 -45.343,-31.337 45.823,-31.479 -45.585,53.054 45.108,9.76 -45.036,-52.682 -41.37001,33.931 m 0,-25.16 41.06001,12.575 -41.06001,-12.575 m 0,25.16 41.06001,-12.585 45.845,10.046 m -45.845,-10.048 45.685,-10.505 -45.377,-10.839 45.514,-10.132"
     fill="none"
     stroke="#9eabb0"
     stroke-width="1.45991"
     id="path878"
     style="stroke-width:1.45997;stroke-miterlimit:4;stroke-dasharray:none" />
  <path
     d="m 99.098906,78.596943 -39.343798,10.293135 -45.607988,-11.53 45.321988,-34.035 39.760012,13.757844 M 59.755108,88.890078 14.30712,56.808078 m 0.342,41.844 45.342988,-31.337 -45.822988,-31.479 45.584988,53.054 -45.107988,9.76 44.38492,-51.379864 M 99.22912,57.082922 59.992108,67.314078 99.22912,36.50918 m 2.08342,63.70321 -41.320432,-32.898312 -45.844988,10.046 m 45.844988,-10.048 -45.684988,-10.505 45.376988,-10.839 -45.513988,-10.132"
     fill="none"
     stroke="#9eabb0"
     stroke-width="1.45991"
     id="path18" />
  <g
     id="g1099"
     transform="translate(0,0.0093016)">
    <g
       aria-label="y=d(z)"
       transform="translate(223.12656,13.0302)"
       id="text965"
       style="font-style:normal;font-variant:normal;font-weight:normal;font-stretch:normal;font-size:12.7px;line-height:1.25;font-family:'Cambria Math';-inkscape-font-specification:'Cambria Math';white-space:pre;shape-inside:url(#rect967);fill:#000000;fill-opacity:1;stroke:none">
      <path
         d="m -1.7728519,-8.5467774 v -0.8619629 h 5.4942382 v 0.8619629 z m 0,2.5734862 V -6.835254 h 5.4942382 v 0.8619628 z"
         style="font-style:normal;font-variant:normal;font-weight:normal;font-stretch:normal;font-size:12.7px;font-family:Cambria;-inkscape-font-specification:Cambria"
         id="path991" />
      <path
         d="m 9.2776363,-10.804004 q 0,-0.595312 -0.012402,-0.830957 -0.0062,-0.235645 -0.049609,-0.396875 -0.037207,-0.167432 -0.111621,-0.260449 -0.068213,-0.09302 -0.1922364,-0.148828 -0.1178222,-0.05581 -0.434082,-0.111621 v -0.322461 l 1.5006836,-0.06201 h 0.3658695 v 7.1809569 q 0,0.4836914 0.0186,0.6945312 0.0186,0.2046387 0.08062,0.3286621 0.06201,0.1240234 0.192236,0.2046387 0.136426,0.074414 0.471289,0.1426269 v 0.3224609 l -1.4634768,0.062012 H 9.2714351 l 0.074414,-1.0169922 -0.093018,-0.024805 q -0.3906738,0.4154785 -0.6821289,0.6263184 -0.2852539,0.2046386 -0.613916,0.3286621 -0.322461,0.1240234 -0.6945313,0.1240234 -1.0169921,0 -1.5688964,-0.7689453 -0.5519043,-0.7751465 -0.5519043,-2.2324218 0,-1.0169922 0.359668,-1.7239258 0.3596679,-0.7131348 0.9673827,-1.0604004 0.6139161,-0.3472651 1.3766602,-0.3472651 0.4092773,0 0.7441406,0.06821 0.3348633,0.062012 0.6883301,0.2108402 z m 0,3.0633789 q 0,-0.4836914 -0.043408,-0.7751465 Q 9.1908199,-8.8072267 9.0853999,-9.0056642 8.9861812,-9.2041017 8.8125484,-9.3405274 8.6389156,-9.4769532 8.4280757,-9.5389649 8.2234371,-9.6009767 7.931982,-9.6009767 q -0.79375,0 -1.2092285,0.6387207 -0.4154785,0.6325196 -0.4154785,1.8231445 0,1.190625 0.3410644,1.8107422 0.3410645,0.6201172 1.0355957,0.6201172 0.2728516,0 0.4526856,-0.043408 0.1798339,-0.049609 0.3534667,-0.1488281 0.1736329,-0.10542 0.3534668,-0.2852539 0.179834,-0.179834 0.2604493,-0.3286621 0.086816,-0.1488282 0.1302246,-0.3410645 0.043408,-0.1922363 0.043408,-0.4960937 z"
         style="font-style:normal;font-variant:normal;font-weight:normal;font-stretch:normal;font-size:12.7px;font-family:Cambria;-inkscape-font-specification:Cambria"
         id="path993" />
      <path
         d="m 16.117528,-1.3658205 q -1.054199,0 -1.723925,-0.3162598 -0.663526,-0.3162597 -1.035596,-0.9673828 -0.37207,-0.6449218 -0.539502,-1.6805175 -0.167432,-1.0355957 -0.167432,-2.8091309 0,-1.7611327 0.161231,-2.8029296 0.167432,-1.0479979 0.539502,-1.7053219 0.37207,-0.657325 1.041797,-0.985987 0.669726,-0.328662 1.723925,-0.328662 v 0.508496 q -0.434082,0 -0.768945,0.07441 -0.378271,0.08682 -0.644922,0.334864 -0.297656,0.272851 -0.483691,0.762744 -0.217041,0.570508 -0.322461,1.5130857 -0.111621,0.9983887 -0.111621,2.5796875 0,1.3952636 0.09302,2.3750488 0.09302,0.9735839 0.310059,1.5937011 0.173633,0.5208984 0.434082,0.8123535 0.229443,0.2542481 0.545703,0.3844727 0.365869,0.1488281 0.948779,0.1488281 z"
         style="font-style:normal;font-variant:normal;font-weight:normal;font-stretch:normal;font-size:12.7px;font-family:Cambria;-inkscape-font-specification:Cambria"
         id="path995" />
      <path
         d="m 21.661375,-5.8616701 v 1.7983398 h -4.774902 v -0.3038574 l 3.398242,-5.1221679 h -1.680517 q -0.310059,0 -0.489893,0.1116211 -0.179834,0.1116211 -0.341064,0.3720703 -0.161231,0.2604493 -0.310059,0.7007325 H 16.92368 v -1.6867188 h 4.700488 v 0.3100586 l -3.392041,5.1159667 h 1.630909 q 0.32246,0 0.483691,-0.049609 0.16123,-0.049609 0.279053,-0.1550293 0.117822,-0.1116211 0.229443,-0.3472657 0.111621,-0.2356445 0.26665,-0.7441406 z"
         style="font-style:normal;font-variant:normal;font-weight:normal;font-stretch:normal;font-size:12.7px;font-family:Cambria;-inkscape-font-specification:Cambria"
         id="path997" />
      <path
         d="m 22.424121,-12.962012 q 1.054199,0 1.717725,0.31626 0.669726,0.31626 1.041797,0.967383 0.37207,0.644922 0.539501,1.6805174 0.167432,1.0355956 0.167432,2.8091308 0,1.7611328 -0.167432,2.8091308 -0.16123,1.0417968 -0.5333,1.6991211 -0.372071,0.6573242 -1.041797,0.9859863 -0.669727,0.3286621 -1.723926,0.3286621 v -0.5084961 q 0.434082,0 0.768945,-0.074414 0.378272,-0.086816 0.644922,-0.3348632 0.297657,-0.2728516 0.483692,-0.7627442 0.217041,-0.5705078 0.322461,-1.5130859 0.111621,-0.9983886 0.111621,-2.5796875 0,-1.3952636 -0.09302,-2.3688476 -0.09302,-0.979785 -0.310058,-1.599902 -0.173633,-0.520899 -0.434083,-0.812354 -0.229443,-0.254248 -0.545703,-0.384473 -0.365869,-0.148828 -0.948779,-0.148828 z"
         style="font-style:normal;font-variant:normal;font-weight:normal;font-stretch:normal;font-size:12.7px;font-family:Cambria;-inkscape-font-specification:Cambria"
         id="path999" />
      <g
         id="g916"
         transform="translate(43.55657,8.225795)">
        <g
           id="g922"
           transform="translate(-2.6042711,-2.4740575)">
          <g
             id="g928">
            <g
               aria-label="x"
               id="text900"
               style="font-style:normal;font-weight:normal;font-size:12.7px;line-height:1.25;font-family:sans-serif;white-space:pre;shape-inside:url(#rect902);fill:#000000;fill-opacity:1;stroke:none">
              <path
                 d="m -46.386719,-13.360156 0.806153,-1.023194 q 0.130224,-0.167431 0.210839,-0.322461 0.08062,-0.16123 0.08062,-0.328662 0,-0.142627 -0.10542,-0.235644 -0.10542,-0.09302 -0.328662,-0.136426 V -15.7104 h 2.027783 v 0.303857 q -0.235645,0.06821 -0.483692,0.26665 -0.241845,0.198438 -0.595312,0.638721 l -1.283643,1.575098 1.413867,1.903759 q 0.303858,0.409278 0.545704,0.626319 0.241845,0.217041 0.483691,0.310058 v 0.3038577 h -2.492871 v -0.3038577 q 0.514697,-0.06201 0.514697,-0.384472 0,-0.130225 -0.04341,-0.248047 -0.04341,-0.117822 -0.16123,-0.272852 l -0.89917,-1.252636 -0.954981,1.240234 q -0.10542,0.136426 -0.167431,0.254248 -0.05581,0.111621 -0.05581,0.254248 0,0.167432 0.111621,0.279053 0.117822,0.10542 0.365869,0.130224 v 0.3038577 h -2.071191 v -0.3038577 q 0.204638,-0.07441 0.365869,-0.186035 0.167432,-0.111621 0.334863,-0.285254 0.173633,-0.179834 0.452686,-0.520898 l 1.289844,-1.599902 -1.32085,-1.810743 q -0.272852,-0.37207 -0.434082,-0.539502 -0.161231,-0.167431 -0.297656,-0.254248 -0.136426,-0.08682 -0.272852,-0.124023 V -15.7104 h 2.430859 v 0.303857 q -0.489892,0.07441 -0.489892,0.384473 0,0.142627 0.06201,0.285253 0.06821,0.142627 0.204638,0.31626 z"
                 style="font-style:normal;font-variant:normal;font-weight:normal;font-stretch:normal;font-size:12.7px;font-family:Cambria;-inkscape-font-specification:Cambria"
                 id="path1153" />
            </g>
            <g
               aria-label="ˆ"
               transform="translate(-12.553662,4.3621541)"
               id="text906"
               style="font-style:normal;font-weight:normal;font-size:10.5833px;line-height:1.25;font-family:sans-serif;white-space:pre;shape-inside:url(#rect908);fill:#000000;fill-opacity:1;stroke:none">
              <path
                 d="m -33.541602,-23.144092 1.327051,1.953369 -0.427881,0.353467 -1.314648,-1.506885 h -0.06821 l -1.314648,1.506885 -0.42168,-0.353467 1.389062,-1.953369 z"
                 style="font-style:normal;font-variant:normal;font-weight:normal;font-stretch:normal;font-size:12.7px;font-family:Cambria;-inkscape-font-specification:Cambria"
                 id="path1156" />
            </g>
          </g>
        </g>
      </g>
    </g>
  </g>
  <path
     id="path932"
     style="fill:#bdcdd4;fill-opacity:0.51004;stroke:#364e59;stroke-width:0.264583;stroke-linecap:round;stroke-linejoin:bevel;stroke-miterlimit:4;stroke-dasharray:none"
     d="M 2.4831875,15.859978 H 25.796146 c 1.302396,0 2.350895,1.048499 2.350895,2.350895 v 97.894407 c 0,1.3024 -1.048499,2.3509 -2.350895,2.3509 H 2.4831875 c -1.302396,0 -2.350896,-1.0485 -2.350896,-2.3509 V 18.210873 c 0,-1.302396 1.0485,-2.350895 2.350896,-2.350895 z" />
  <g
     aria-label="x"
     transform="translate(19.670433,12.868982)"
     id="g952"
     style="font-style:normal;font-variant:normal;font-weight:normal;font-stretch:normal;font-size:12.7px;line-height:1.25;font-family:'Cambria Math';-inkscape-font-specification:'Cambria Math';white-space:pre;shape-inside:url(#rect955);fill:#000000;fill-opacity:1;stroke:none">
    <path
       d="m -5.7167969,-7.6414064 0.8061523,-1.0231933 q 0.1302246,-0.1674317 0.2108398,-0.3224609 0.080615,-0.1612305 0.080615,-0.3286621 0,-0.142627 -0.1054199,-0.2356446 -0.10542,-0.093018 -0.3286621,-0.1364258 v -0.3038574 h 2.0277831 v 0.3038574 q -0.2356445,0.068213 -0.4836914,0.2666504 -0.2418457,0.1984375 -0.5953125,0.6387207 l -1.2836425,1.5750977 1.4138671,1.9037597 q 0.3038575,0.4092773 0.5457032,0.6263183 0.2418457,0.2170411 0.4836914,0.3100586 v 0.3038574 h -2.4928711 v -0.3038574 q 0.5146973,-0.062012 0.5146973,-0.3844726 0,-0.1302246 -0.043408,-0.2480469 -0.043408,-0.1178223 -0.1612305,-0.2728515 l -0.8991699,-1.2526367 -0.9549805,1.2402343 q -0.1054199,0.1364258 -0.1674316,0.2542481 -0.055811,0.111621 -0.055811,0.254248 0,0.1674316 0.1116211,0.2790527 0.1178223,0.1054199 0.3658692,0.1302246 v 0.3038574 h -2.0711914 v -0.3038574 q 0.2046387,-0.074414 0.3658691,-0.1860351 0.1674317,-0.1116211 0.3348633,-0.2852539 0.1736328,-0.179834 0.4526856,-0.5208985 l 1.2898437,-1.5999023 -1.3208496,-1.8107421 q -0.2728516,-0.3720703 -0.434082,-0.539502 -0.1612305,-0.1674316 -0.2976563,-0.254248 -0.1364258,-0.086816 -0.2728515,-0.1240235 v -0.3038574 h 2.4308593 v 0.3038574 q -0.4898926,0.074414 -0.4898926,0.3844727 0,0.1426269 0.062012,0.2852539 0.068213,0.1426269 0.2046386,0.3162598 z"
       style="font-style:normal;font-variant:normal;font-weight:normal;font-stretch:normal;font-size:12.7px;line-height:1.25;font-family:'Cambria Math';-inkscape-font-specification:'Cambria Math';white-space:pre;shape-inside:url(#rect955);fill:#000000;fill-opacity:1;stroke:none"
       id="path950" />
  </g>
  <path
     d="M 99.22912,36.50918 59.755108,88.890078 m -0.073,-42.922 41.630432,54.244312 M 59.682108,45.968078 99.098906,78.596943 m 0,0 -39.106798,-11.282865 m -0.308,-21.346 39.545012,-9.458898 m 2.08342,63.70321 -41.320432,-32.898312"
     fill="none"
     stroke="#9eabb0"
     stroke-width="1.45991"
     id="path1046" />
  <g
     id="g1229">
    <g
       id="g1026"
       transform="translate(89.829083,0.06679014)">
      <path
         id="circle20"
         style="fill:url(#b);stroke:#364e59;stroke-width:1.97223;stroke-linecap:round;stroke-linejoin:round;paint-order:stroke markers fill"
         d="m 61.574599,79.543289 a 6.2389054,6.2389054 0 0 1 -6.238906,6.238906 6.2389054,6.2389054 0 0 1 -6.238905,-6.238906 6.2389054,6.2389054 0 0 1 6.238905,-6.238905 6.2389054,6.2389054 0 0 1 6.238906,6.238905 z" />
      <path
         id="circle22"
         style="fill:url(#c);stroke:#364e59;stroke-width:1.97223;stroke-linecap:round;stroke-linejoin:round;paint-order:stroke markers fill"
         d="m 61.574599,54.63929 a 6.2389054,6.2389054 0 0 1 -6.238906,6.238905 6.2389054,6.2389054 0 0 1 -6.238905,-6.238905 6.2389054,6.2389054 0 0 1 6.238905,-6.238906 6.2389054,6.2389054 0 0 1 6.238906,6.238906 z" />
    </g>
    <path
       id="circle884"
       style="fill:url(#radialGradient917);stroke:#364e59;stroke-width:1.97223;stroke-linecap:round;stroke-linejoin:round;paint-order:stroke markers fill"
       transform="scale(-1,1)"
       d="m -180.17572,45.625477 a 6.2389054,6.2389054 0 0 1 -6.23891,6.238905 6.2389054,6.2389054 0 0 1 -6.2389,-6.238905 6.2389054,6.2389054 0 0 1 6.2389,-6.238906 6.2389054,6.2389054 0 0 1 6.23891,6.238906 z" />
    <path
       id="circle886"
       style="fill:url(#radialGradient919);stroke:#364e59;stroke-width:1.97223;stroke-linecap:round;stroke-linejoin:round;paint-order:stroke markers fill"
       transform="scale(-1,1)"
       d="m -180.17572,67.159485 a 6.2389054,6.2389054 0 0 1 -6.23891,6.238905 6.2389054,6.2389054 0 0 1 -6.2389,-6.238905 6.2389054,6.2389054 0 0 1 6.2389,-6.238906 6.2389054,6.2389054 0 0 1 6.23891,6.238906 z" />
    <path
       id="circle888"
       style="fill:url(#radialGradient921);stroke:#364e59;stroke-width:1.97223;stroke-linecap:round;stroke-linejoin:round;paint-order:stroke markers fill"
       transform="scale(-1,1)"
       d="m -180.17572,88.693481 a 6.2389054,6.2389054 0 0 1 -6.23891,6.238906 6.2389054,6.2389054 0 0 1 -6.2389,-6.238906 6.2389054,6.2389054 0 0 1 6.2389,-6.238905 6.2389054,6.2389054 0 0 1 6.23891,6.238905 z" />
    <g
       stroke="#364e59"
       stroke-width="1.365"
       stroke-linecap="round"
       stroke-linejoin="round"
       paint-order="stroke markers fill"
       id="g898"
       transform="matrix(-1,0,0,1,238.2255,17.158078)">
      <path
         id="circle890"
         style="fill:url(#radialGradient923)"
         transform="matrix(1.44486,0,0,1.44486,57.425,-183.257)"
         d="m -30.426,139.97301 a 4.3179998,4.3179998 0 0 1 -4.317999,4.318 4.3179998,4.3179998 0 0 1 -4.318,-4.318 4.3179998,4.3179998 0 0 1 4.318,-4.318 4.3179998,4.3179998 0 0 1 4.317999,4.318 z" />
      <path
         id="circle892"
         style="fill:url(#radialGradient925)"
         transform="matrix(1.44486,0,0,1.44486,57.425,-162.58)"
         d="m -30.426,139.97301 a 4.3179998,4.3179998 0 0 1 -4.317999,4.318 4.3179998,4.3179998 0 0 1 -4.318,-4.318 4.3179998,4.3179998 0 0 1 4.318,-4.318 4.3179998,4.3179998 0 0 1 4.317999,4.318 z" />
      <path
         id="circle894"
         style="fill:url(#radialGradient927)"
         transform="matrix(1.44486,0,0,1.44486,57.425,-141.901)"
         d="m -30.426,139.97301 a 4.3179998,4.3179998 0 0 1 -4.317999,4.318 4.3179998,4.3179998 0 0 1 -4.318,-4.318 4.3179998,4.3179998 0 0 1 4.318,-4.318 4.3179998,4.3179998 0 0 1 4.317999,4.318 z" />
      <path
         id="circle896"
         style="fill:url(#radialGradient929)"
         transform="matrix(1.44486,0,0,1.44486,57.425,-121.224)"
         d="m -30.426,139.97301 a 4.3179998,4.3179998 0 0 1 -4.317999,4.318 4.3179998,4.3179998 0 0 1 -4.318,-4.318 4.3179998,4.3179998 0 0 1 4.318,-4.318 4.3179998,4.3179998 0 0 1 4.317999,4.318 z" />
    </g>
    <g
       stroke="#364e59"
       stroke-width="1.365"
       stroke-linecap="round"
       stroke-linejoin="round"
       paint-order="stroke markers fill"
       id="g948"
       transform="translate(6.9148825,17.158078)">
      <path
         id="circle940"
         style="fill:url(#radialGradient990)"
         transform="matrix(1.44486,0,0,1.44486,57.425,-183.257)"
         d="m -30.426,139.97301 a 4.3179998,4.3179998 0 0 1 -4.317999,4.318 4.3179998,4.3179998 0 0 1 -4.318,-4.318 4.3179998,4.3179998 0 0 1 4.318,-4.318 4.3179998,4.3179998 0 0 1 4.317999,4.318 z" />
      <path
         id="circle942"
         style="fill:url(#radialGradient992)"
         transform="matrix(1.44486,0,0,1.44486,57.425,-162.58)"
         d="m -30.426,139.97301 a 4.3179998,4.3179998 0 0 1 -4.317999,4.318 4.3179998,4.3179998 0 0 1 -4.318,-4.318 4.3179998,4.3179998 0 0 1 4.318,-4.318 4.3179998,4.3179998 0 0 1 4.317999,4.318 z" />
      <path
         id="circle944"
         style="fill:url(#radialGradient994)"
         transform="matrix(1.44486,0,0,1.44486,57.425,-141.901)"
         d="m -30.426,139.97301 a 4.3179998,4.3179998 0 0 1 -4.317999,4.318 4.3179998,4.3179998 0 0 1 -4.318,-4.318 4.3179998,4.3179998 0 0 1 4.318,-4.318 4.3179998,4.3179998 0 0 1 4.317999,4.318 z" />
      <path
         id="circle946"
         style="fill:url(#radialGradient996)"
         transform="matrix(1.44486,0,0,1.44486,57.425,-121.224)"
         d="m -30.426,139.97301 a 4.3179998,4.3179998 0 0 1 -4.317999,4.318 4.3179998,4.3179998 0 0 1 -4.318,-4.318 4.3179998,4.3179998 0 0 1 4.318,-4.318 4.3179998,4.3179998 0 0 1 4.317999,4.318 z" />
    </g>
    <g
       id="g1056"
       transform="translate(45.44099,-0.39772554)">
      <path
         id="circle1028"
         style="fill:url(#radialGradient1038);stroke:#364e59;stroke-width:1.97223;stroke-linecap:round;stroke-linejoin:round;paint-order:stroke markers fill"
         d="m 60.066092,36.074287 a 6.2389054,6.2389054 0 0 1 -6.238905,6.238906 6.2389054,6.2389054 0 0 1 -6.238906,-6.238906 6.2389054,6.2389054 0 0 1 6.238906,-6.238905 6.2389054,6.2389054 0 0 1 6.238905,6.238905 z" />
      <path
         id="circle1030"
         style="fill:url(#radialGradient1040);stroke:#364e59;stroke-width:1.97223;stroke-linecap:round;stroke-linejoin:round;paint-order:stroke markers fill"
         d="m 60.066092,56.751289 a 6.2389054,6.2389054 0 0 1 -6.238905,6.238906 6.2389054,6.2389054 0 0 1 -6.238906,-6.238906 6.2389054,6.2389054 0 0 1 6.238906,-6.238905 6.2389054,6.2389054 0 0 1 6.238905,6.238905 z" />
    </g>
    <g
       id="g1060"
       transform="translate(45.44099,1.637979)">
      <path
         id="circle1032"
         style="fill:url(#radialGradient1042);stroke:#364e59;stroke-width:1.97223;stroke-linecap:round;stroke-linejoin:round;paint-order:stroke markers fill"
         d="m 60.066092,77.43029 a 6.2389054,6.2389054 0 0 1 -6.238905,6.238906 6.2389054,6.2389054 0 0 1 -6.238906,-6.238906 6.2389054,6.2389054 0 0 1 6.238906,-6.238905 6.2389054,6.2389054 0 0 1 6.238905,6.238905 z" />
      <path
         id="circle1034"
         style="fill:url(#radialGradient1044);stroke:#364e59;stroke-width:1.97223;stroke-linecap:round;stroke-linejoin:round;paint-order:stroke markers fill"
         d="m 60.066092,98.107292 a 6.2389054,6.2389054 0 0 1 -6.238905,6.238908 6.2389054,6.2389054 0 0 1 -6.238906,-6.238908 6.2389054,6.2389054 0 0 1 6.238906,-6.238905 6.2389054,6.2389054 0 0 1 6.238905,6.238905 z" />
    </g>
    <path
       id="circle934"
       style="fill:url(#radialGradient988);stroke:#364e59;stroke-width:1.97223;stroke-linecap:round;stroke-linejoin:round;paint-order:stroke markers fill"
       d="m 65.607787,45.625477 a 6.2389054,6.2389054 0 0 1 -6.238906,6.238905 6.2389054,6.2389054 0 0 1 -6.238905,-6.238905 6.2389054,6.2389054 0 0 1 6.238905,-6.238906 6.2389054,6.2389054 0 0 1 6.238906,6.238906 z" />
    <path
       id="circle936"
       style="fill:url(#radialGradient998);stroke:#364e59;stroke-width:1.97223;stroke-linecap:round;stroke-linejoin:round;paint-order:stroke markers fill"
       d="m 65.607787,67.159477 a 6.2389054,6.2389054 0 0 1 -6.238906,6.238906 6.2389054,6.2389054 0 0 1 -6.238905,-6.238906 6.2389054,6.2389054 0 0 1 6.238905,-6.238905 6.2389054,6.2389054 0 0 1 6.238906,6.238905 z" />
    <path
       id="circle938"
       style="fill:url(#radialGradient1000);stroke:#364e59;stroke-width:1.97223;stroke-linecap:round;stroke-linejoin:round;paint-order:stroke markers fill"
       d="m 65.607787,88.693481 a 6.2389054,6.2389054 0 0 1 -6.238906,6.238906 6.2389054,6.2389054 0 0 1 -6.238905,-6.238906 6.2389054,6.2389054 0 0 1 6.238905,-6.238905 6.2389054,6.2389054 0 0 1 6.238906,6.238905 z" />
  </g>
  <g
     aria-label="μ(x)"
     transform="translate(42.825037,-107.48821)"
     id="text1064"
     style="font-size:12.7px;line-height:1.25;font-family:sans-serif;white-space:pre;shape-inside:url(#rect1066)">
    <path
       d="m 47.243701,124.32363 q 0,1.16582 0.248047,1.51929 0.248047,0.34727 0.806152,0.34727 0.446485,0 0.89917,-0.44029 0.458887,-0.44028 0.458887,-0.98598 v -3.86333 h 1.066602 v 4.65087 q 0,0.72554 0.446484,0.72554 0.272851,0 0.58291,-0.26045 l 0.241846,0.37207 q -0.651123,0.5395 -1.302246,0.5395 -0.923975,0 -1.00459,-1.0604 l -0.05581,-0.0186 q -0.936377,1.0418 -1.785937,1.0418 -0.471289,0 -0.84336,-0.35967 l -0.04961,0.0372 q 0.10542,1.23403 0.31626,2.05258 v 0.34107 l -0.539502,0.35967 H 46.1771 v -8.41499 h 1.066601 z"
       style="font-style:normal;font-variant:normal;font-weight:normal;font-stretch:normal;font-family:Cambria;-inkscape-font-specification:Cambria"
       id="path1170" />
    <path
       d="m 56.570263,129.53262 q -1.054199,0 -1.723925,-0.31626 -0.663526,-0.31626 -1.035596,-0.96739 -0.37207,-0.64492 -0.539502,-1.68051 -0.167432,-1.0356 -0.167432,-2.80913 0,-1.76114 0.161231,-2.80293 0.167431,-1.048 0.539502,-1.70533 0.37207,-0.65732 1.041797,-0.98598 0.669726,-0.32866 1.723925,-0.32866 v 0.50849 q -0.434082,0 -0.768945,0.0744 -0.378271,0.0868 -0.644922,0.33486 -0.297656,0.27285 -0.483691,0.76274 -0.217041,0.57051 -0.322461,1.51309 -0.111621,0.99839 -0.111621,2.57969 0,1.39526 0.09302,2.37505 0.09302,0.97358 0.310059,1.5937 0.173633,0.5209 0.434082,0.81235 0.229443,0.25425 0.545703,0.38447 0.365869,0.14883 0.948779,0.14883 z"
       style="font-style:normal;font-variant:normal;font-weight:normal;font-stretch:normal;font-family:Cambria;-inkscape-font-specification:Cambria"
       id="path1172" />
    <path
       d="m 60.061523,123.25703 0.806153,-1.02319 q 0.130224,-0.16743 0.21084,-0.32246 0.08062,-0.16123 0.08062,-0.32867 0,-0.14262 -0.10542,-0.23564 -0.10542,-0.093 -0.328662,-0.13643 v -0.30385 h 2.027783 v 0.30385 q -0.235645,0.0682 -0.483691,0.26665 -0.241846,0.19844 -0.595313,0.63873 l -1.283643,1.57509 1.413868,1.90376 q 0.303857,0.40928 0.545703,0.62632 0.241845,0.21704 0.483691,0.31006 v 0.30386 h -2.492871 v -0.30386 q 0.514697,-0.062 0.514697,-0.38447 0,-0.13023 -0.04341,-0.24805 -0.04341,-0.11782 -0.16123,-0.27285 l -0.89917,-1.25264 -0.954981,1.24024 q -0.10542,0.13642 -0.167431,0.25424 -0.05581,0.11163 -0.05581,0.25425 0,0.16743 0.111621,0.27906 0.117823,0.10542 0.365869,0.13022 v 0.30386 h -2.071191 v -0.30386 q 0.204639,-0.0744 0.365869,-0.18604 0.167432,-0.11162 0.334863,-0.28525 0.173633,-0.17983 0.452686,-0.5209 l 1.289844,-1.5999 -1.32085,-1.81074 q -0.272851,-0.37207 -0.434082,-0.5395 -0.16123,-0.16744 -0.297656,-0.25425 -0.136426,-0.0868 -0.272852,-0.12403 v -0.30385 h 2.43086 v 0.30385 q -0.489893,0.0744 -0.489893,0.38448 0,0.14262 0.06201,0.28525 0.06821,0.14263 0.204638,0.31626 z"
       style="font-style:normal;font-variant:normal;font-weight:normal;font-stretch:normal;font-family:Cambria;-inkscape-font-specification:Cambria"
       id="path1174" />
    <path
       d="m 63.242725,117.93643 q 1.054199,0 1.717724,0.31626 0.669727,0.31626 1.041797,0.96738 0.37207,0.64492 0.539502,1.68052 0.167432,1.03559 0.167432,2.80913 0,1.76113 -0.167432,2.80913 -0.16123,1.04179 -0.533301,1.69912 -0.37207,0.65732 -1.041797,0.98598 -0.669726,0.32867 -1.723925,0.32867 v -0.5085 q 0.434082,0 0.768945,-0.0744 0.378271,-0.0868 0.644922,-0.33487 0.297656,-0.27285 0.483691,-0.76274 0.217041,-0.57051 0.322461,-1.51309 0.111621,-0.99839 0.111621,-2.57968 0,-1.39527 -0.09302,-2.36885 -0.09302,-0.97979 -0.310059,-1.5999 -0.173633,-0.5209 -0.434082,-0.81236 -0.229443,-0.25425 -0.545703,-0.38447 -0.365869,-0.14883 -0.948779,-0.14883 z"
       style="font-style:normal;font-variant:normal;font-weight:normal;font-stretch:normal;font-family:Cambria;-inkscape-font-specification:Cambria"
       id="path1176" />
  </g>
  <g
     aria-label="σ(x)"
     transform="translate(42.911853,-5.1736043)"
     id="text1072"
     style="font-size:12.7px;line-height:1.25;font-family:sans-serif;white-space:pre;shape-inside:url(#rect1074)">
    <path
       d="m 49.804785,121.73154 v 0.0496 q 1.32085,0.78135 1.32085,2.39986 0,1.26503 -0.762744,2.00918 -0.762745,0.74414 -2.021582,0.74414 -1.21543,0 -1.940967,-0.76895 -0.725537,-0.76894 -0.725537,-2.00918 0,-1.24643 0.527099,-1.99058 0.533301,-0.75034 1.339453,-1.01079 0.806153,-0.26045 1.996778,-0.26045 h 2.499072 v 0.83716 z m -0.799951,0.0248 q -2.17041,0 -2.17041,2.41225 0,1.08521 0.403076,1.68052 0.403076,0.59531 1.116211,0.59531 1.618506,0 1.618506,-2.22622 0,-1.52549 -0.967383,-2.46186 z"
       style="font-style:normal;font-variant:normal;font-weight:normal;font-stretch:normal;font-family:Cambria;-inkscape-font-specification:Cambria"
       id="path1179" />
    <path
       d="m 56.898926,129.53262 q -1.054199,0 -1.723926,-0.31626 -0.663525,-0.31626 -1.035596,-0.96739 -0.37207,-0.64492 -0.539502,-1.68051 -0.167431,-1.0356 -0.167431,-2.80913 0,-1.76114 0.16123,-2.80293 0.167432,-1.048 0.539502,-1.70533 0.37207,-0.65732 1.041797,-0.98598 0.669727,-0.32866 1.723926,-0.32866 v 0.50849 q -0.434082,0 -0.768945,0.0744 -0.378272,0.0868 -0.644922,0.33486 -0.297657,0.27285 -0.483692,0.76274 -0.217041,0.57051 -0.322461,1.51309 -0.111621,0.99839 -0.111621,2.57969 0,1.39526 0.09302,2.37505 0.09302,0.97358 0.310058,1.5937 0.173633,0.5209 0.434082,0.81235 0.229444,0.25425 0.545704,0.38447 0.365869,0.14883 0.948779,0.14883 z"
       style="font-style:normal;font-variant:normal;font-weight:normal;font-stretch:normal;font-family:Cambria;-inkscape-font-specification:Cambria"
       id="path1181" />
    <path
       d="m 60.390185,123.25703 0.806153,-1.02319 q 0.130224,-0.16743 0.210839,-0.32246 0.08062,-0.16123 0.08062,-0.32867 0,-0.14262 -0.10542,-0.23564 -0.10542,-0.093 -0.328662,-0.13643 v -0.30385 h 2.027783 v 0.30385 q -0.235645,0.0682 -0.483692,0.26665 -0.241845,0.19844 -0.595312,0.63873 l -1.283643,1.57509 1.413868,1.90376 q 0.303857,0.40928 0.545703,0.62632 0.241845,0.21704 0.483691,0.31006 v 0.30386 h -2.492871 v -0.30386 q 0.514697,-0.062 0.514697,-0.38447 0,-0.13023 -0.04341,-0.24805 -0.04341,-0.11782 -0.16123,-0.27285 l -0.89917,-1.25264 -0.954981,1.24024 q -0.10542,0.13642 -0.167431,0.25424 -0.05581,0.11163 -0.05581,0.25425 0,0.16743 0.111621,0.27906 0.117822,0.10542 0.365869,0.13022 v 0.30386 h -2.071191 v -0.30386 q 0.204639,-0.0744 0.365869,-0.18604 0.167432,-0.11162 0.334863,-0.28525 0.173633,-0.17983 0.452686,-0.5209 l 1.289844,-1.5999 -1.32085,-1.81074 q -0.272852,-0.37207 -0.434082,-0.5395 -0.16123,-0.16744 -0.297656,-0.25425 -0.136426,-0.0868 -0.272852,-0.12403 v -0.30385 h 2.43086 v 0.30385 q -0.489893,0.0744 -0.489893,0.38448 0,0.14262 0.06201,0.28525 0.06821,0.14263 0.204638,0.31626 z"
       style="font-style:normal;font-variant:normal;font-weight:normal;font-stretch:normal;font-family:Cambria;-inkscape-font-specification:Cambria"
       id="path1183" />
    <path
       d="m 63.571387,117.93643 q 1.0542,0 1.717725,0.31626 0.669727,0.31626 1.041797,0.96738 0.37207,0.64492 0.539502,1.68052 0.167432,1.03559 0.167432,2.80913 0,1.76113 -0.167432,2.80913 -0.161231,1.04179 -0.533301,1.69912 -0.37207,0.65732 -1.041797,0.98598 -0.669726,0.32867 -1.723926,0.32867 v -0.5085 q 0.434083,0 0.768946,-0.0744 0.378271,-0.0868 0.644922,-0.33487 0.297656,-0.27285 0.483691,-0.76274 0.217041,-0.57051 0.322461,-1.51309 0.111621,-0.99839 0.111621,-2.57968 0,-1.39527 -0.09302,-2.36885 -0.09302,-0.97979 -0.310058,-1.5999 -0.173633,-0.5209 -0.434082,-0.81236 -0.229443,-0.25425 -0.545703,-0.38447 -0.365869,-0.14883 -0.94878,-0.14883 z"
       style="font-style:normal;font-variant:normal;font-weight:normal;font-stretch:normal;font-family:Cambria;-inkscape-font-specification:Cambria"
       id="path1185" />
  </g>
  <g
     id="g1139"
     transform="matrix(0.80419159,0,0,0.80419159,87.716547,109.51492)">
    <g
       aria-label="  (μ,σ)"
       transform="translate(0,-0.91631803)"
       id="text1101"
       style="font-size:12.7px;line-height:1.25;font-family:sans-serif;white-space:pre;shape-inside:url(#rect1103)">
      <path
         d="m 83.808203,-103.0915 q -1.64331,2.05258 -2.455664,3.900533 -0.806152,1.841748 -0.806152,3.553272 0,0.979785 0.235644,1.947167 0.235645,0.961182 0.706934,1.909961 h -0.992187 q -0.570508,-1.066601 -0.849561,-2.071191 -0.279053,-1.010791 -0.279053,-1.978174 0,-1.841748 0.849561,-3.646289 0.855761,-1.810739 2.579687,-3.615279 z"
         style="font-style:italic;font-variant:normal;font-weight:normal;font-stretch:normal;font-family:sans-serif;-inkscape-font-specification:'sans-serif Italic'"
         id="path1188" />
      <path
         d="m 83.175683,-90.813184 1.866553,-9.587016 h 1.147217 l -0.84336,4.322221 q -0.0248,0.130225 -0.04341,0.291455 -0.0186,0.161231 -0.0186,0.322461 0,0.576709 0.359668,0.886768 0.365869,0.310059 1.041796,0.310059 0.917774,0 1.48208,-0.520899 0.564307,-0.520898 0.762745,-1.562695 l 0.787548,-4.04937 h 1.141016 l -1.035596,5.339214 q -0.0248,0.117822 -0.03721,0.204638 -0.0062,0.08682 -0.0062,0.155029 0,0.192237 0.07441,0.285254 0.08062,0.08682 0.248047,0.08682 0.06201,0 0.167432,-0.03101 0.111621,-0.03101 0.310058,-0.111621 l -0.173632,0.917773 q -0.272852,0.136426 -0.520899,0.204639 -0.248047,0.07441 -0.483691,0.07441 -0.409278,0 -0.644922,-0.260449 -0.229444,-0.260449 -0.229444,-0.719336 -0.347265,0.496094 -0.830957,0.737939 -0.47749,0.241846 -1.128613,0.241846 -0.576709,0 -1.010791,-0.26665 -0.427881,-0.266651 -0.564306,-0.700733 l -0.669727,3.429248 z"
         style="font-style:italic;font-variant:normal;font-weight:normal;font-stretch:normal;font-family:sans-serif;-inkscape-font-specification:'sans-serif Italic'"
         id="path1190" />
      <path
         d="m 92.564258,-95.029981 h 1.308447 l -0.204638,1.066602 -1.407666,1.984375 H 91.46045 l 0.892968,-1.984375 z"
         style="font-style:italic;font-variant:normal;font-weight:normal;font-stretch:normal;font-family:sans-serif;-inkscape-font-specification:'sans-serif Italic'"
         id="path1192" />
      <path
         d="m 99.863037,-99.494824 q -0.942578,0 -1.581299,0.682129 -0.675927,0.713134 -0.89917,1.891357 -0.248047,1.246436 0.148828,1.965771 0.390674,0.713135 1.314649,0.713135 0.911572,0 1.581295,-0.719336 0.67593,-0.719336 0.91778,-1.95957 0.21704,-1.134814 -0.16743,-1.891357 -0.35967,-0.682129 -1.314653,-0.682129 z m 0.179833,-0.911576 3.78892,0.006 -0.22325,1.14102 h -1.27744 q 0.48369,0.967383 0.22325,2.337842 -0.33487,1.705322 -1.37046,2.672705 -1.0418,0.973584 -2.530081,0.973584 -1.494483,0 -2.151807,-0.973584 -0.657324,-0.967383 -0.322461,-2.672705 0.328662,-1.711523 1.364258,-2.678906 0.861963,-0.806156 2.499071,-0.806156 z"
         style="font-style:italic;font-variant:normal;font-weight:normal;font-stretch:normal;font-family:sans-serif;-inkscape-font-specification:'sans-serif Italic'"
         id="path1194" />
      <path
         d="m 102.72178,-91.780567 q 1.64951,-2.052587 2.45566,-3.894335 0.80615,-1.84795 0.80615,-3.559473 0,-0.979785 -0.23564,-1.940965 -0.22944,-0.96738 -0.70073,-1.91616 h 0.99219 q 0.5705,1.0728 0.84956,2.07119 0.27905,0.99839 0.27905,1.965769 0,1.847949 -0.86196,3.671094 -0.85577,1.816943 -2.56729,3.60288 z"
         style="font-style:italic;font-variant:normal;font-weight:normal;font-stretch:normal;font-family:sans-serif;-inkscape-font-specification:'sans-serif Italic'"
         id="path1196" />
    </g>
    <path
       style="fill:#000000;stroke-width:0.511273"
       d="m 64.012712,-94.552458 c 0,-0.698416 0.269474,-0.904213 0.950689,-0.726067 0.734277,0.192077 1.145508,-0.238282 1.806488,-1.890243 0.470693,-1.176369 0.994092,-3.147862 1.163135,-4.381112 0.548098,-3.9988 1.445506,-3.79592 2.940619,0.66472 0.734473,2.19125 1.54951,4.322768 1.811193,4.736682 0.559957,0.88574 0.46093,1.105103 2.070669,-4.587112 0.981954,-3.47229 2.370592,-5.62402 3.629465,-5.62402 0.250053,0 0.45465,0.34511 0.45465,0.76692 0,0.4218 -0.332077,0.7669 -0.737934,0.7669 -1.193312,0 -2.197506,1.90854 -3.400771,6.463396 -0.737317,2.790978 -1.377836,4.273337 -1.846515,4.273337 -0.612616,0 -1.540852,-1.746301 -3.668811,-6.902173 -0.343365,-0.83194 -0.586358,-0.45073 -1.303658,2.045085 -0.484888,1.687193 -1.214008,3.5853 -1.620285,4.217997 -0.901511,1.403941 -2.248934,1.509198 -2.248934,0.175652 z"
       id="path1123" />
    <g
       aria-label="z ~"
       transform="translate(50.340627,5.9615628)"
       id="text1128"
       style="font-size:12.7px;line-height:1.25;font-family:sans-serif;white-space:pre;shape-inside:url(#rect1130)">
      <path
         d="m 0.85727531,-102.6644 v 1.79834 H -3.917627 v -0.30386 l 3.39824218,-5.12217 H -2.1999024 q -0.3100586,0 -0.4898925,0.11162 -0.179834,0.11162 -0.3410645,0.37207 -0.1612305,0.26045 -0.3100586,0.70073 h -0.5395019 v -1.68671 h 4.70048818 v 0.31005 l -3.39204098,5.11597 h 1.63090819 q 0.32246094,0 0.4836914,-0.0496 0.16123047,-0.0496 0.27905273,-0.15503 0.11782227,-0.11162 0.22944336,-0.34726 0.11162109,-0.23565 0.26665039,-0.74414 z"
         style="font-style:normal;font-variant:normal;font-weight:normal;font-stretch:normal;font-family:Cambria;-inkscape-font-specification:Cambria"
         id="path1199" />
      <path
         d="m 4.9252443,-103.87363 q 0.3162598,-0.73174 0.8371582,-1.21543 0.5208984,-0.4899 1.2340332,-0.4899 0.7441406,0 1.7735351,0.65113 1.0293945,0.65112 1.5626952,0.65112 0.5271,0 0.880567,-0.27905 0.353466,-0.27905 0.713134,-0.86817 l 0.496094,0.33487 q -0.26665,0.5519 -0.843359,1.11621 -0.576709,0.5581 -1.401465,0.5581 -0.7937502,0 -1.8169435,-0.65112 -1.0169922,-0.65112 -1.5564941,-0.65112 -0.4526856,0 -0.79375,0.28525 -0.3410645,0.28526 -0.6015137,0.83096 z"
         style="font-style:normal;font-variant:normal;font-weight:normal;font-stretch:normal;font-family:Cambria;-inkscape-font-specification:Cambria"
         id="path1201" />
    </g>
  </g>
</svg>
