<svg xmlns="http://www.w3.org/2000/svg" version="1.0" viewBox="0 0 301.757 205.757"><defs><clipPath clipPathUnits="userSpaceOnUse" id="a"><path d="M-.08.4h301.417v205.875H-.08z"/></clipPath></defs><path d="m234.978 110.573 35.178 3.878 22.946 24.025-3.837 29.782-22.507 12.752 21.347-13.312 3.398-28.822-22.746-22.786-34.819-3.518 1.04-1.999z" fill="#888786" fill-rule="evenodd" fill-opacity="1" stroke="none"/><path d="m234.978 110.573 35.178 3.878 22.946 24.025-3.837 29.782-22.507 12.752 21.347-13.312 3.398-28.822-22.746-22.786-34.819-3.518 1.04-1.999z" fill="none" stroke="#343434" stroke-width="1.0393701px" stroke-linecap="round" stroke-linejoin="round" stroke-miterlimit="4" stroke-dasharray="none" stroke-opacity="1"/><path d="m239.095 101.858 33.18-4.157 27.503-13.032.44-31.941-9.354-23.546 7.475 23.546V83.15l-26.824 11.912-35.578 4.917 3.158 1.88z" fill="#888786" fill-rule="evenodd" fill-opacity="1" stroke="none"/><path d="m239.095 101.858 33.18-4.157 27.503-13.032.44-31.941-9.354-23.546 7.475 23.546V83.15l-26.824 11.912-35.578 4.917 3.158 1.88z" fill="none" stroke="#343434" stroke-width="1.0393701px" stroke-linecap="round" stroke-linejoin="round" stroke-miterlimit="4" stroke-dasharray="none" stroke-opacity="1"/><path d="M160.483 128.362s-13.112 19.888-19.888 36.598c0 0-30.562-15.41-41.095-21.607 0 0-5.477-4.617-11.393 2.019-5.757 6.476-8.355 7.355-9.954 5.477 0 0 2.458 3.597 6.796-.86 4.457-4.337 8.215-7.216 13.551-4.037 5.477 3.018 37.478 22.186 41.955 22.766 4.457.42 20.328-25.505 22.766-37.458l-2.738-2.898z" fill="#c17b70" fill-rule="evenodd" fill-opacity="1" stroke="none"/><path d="M160.523 128.402S147.41 148.29 140.635 165c0 0-30.562-15.41-41.095-21.607 0 0-5.477-4.617-11.393 2.019-5.757 6.476-8.355 7.355-9.954 5.477 0 0 2.458 3.597 6.795-.86 4.458-4.337 8.216-7.216 13.552-4.037 5.477 3.018 37.478 22.186 41.955 22.766 4.457.42 20.328-25.505 22.766-37.458l-2.738-2.898z" fill="none" stroke="#343434" stroke-width="1.0393701px" stroke-linecap="round" stroke-linejoin="round" stroke-miterlimit="4" stroke-dasharray="none" stroke-opacity="1"/><path d="M159.383 134.439s-12.992 17.05-15.59 27.423c0 0 15.03-16.15 15.59-27.423z" fill="#d39089" fill-rule="evenodd" fill-opacity="1" stroke="none"/><path d="M158.504 136.837s-.14.16-.28.3c-1.579 2.159-10.653 15.13-11.953 20.887 0 0 11.094-17.43 12.233-21.187z" fill="#f4c3c0" fill-rule="evenodd" fill-opacity="1" stroke="none"/><path d="M141.434 162.621c-.44 1.3-1.439 1.88-2.618 1.16-1.02 1.159 0 2.918-.72 4.077.72.58 1.16 1.18 2.04 1.46.859.14 1.878-.44 2.617-.88 1.3-.86 3.039-2.179 2.759-3.938-1.6-.42-2.479-2.478-4.218-1.739z" fill="#913520" fill-rule="evenodd" fill-opacity="1" stroke="none"/><path d="M141.474 162.661c-.44 1.3-1.439 1.88-2.618 1.16-1.02 1.159 0 2.918-.72 4.077.72.58 1.16 1.18 2.04 1.46.859.14 1.878-.44 2.617-.88 1.3-.86 3.039-2.179 2.759-3.938-1.6-.42-2.479-2.478-4.218-1.739" fill="none" stroke="#343434" stroke-width="1.0393701px" stroke-linecap="round" stroke-linejoin="round" stroke-miterlimit="4" stroke-dasharray="none" stroke-opacity="1"/><path d="M139.316 165.06c.14.72-.16 2.299.42 2.878.739.72 1.878 0 2.598-.42.16-.16 1.299-.879.74-1.159-.16-.14-1.3.28-1.6.28-1-.14-.86-1.739-1.879-1.579z" fill="#b75141" fill-rule="evenodd" fill-opacity="1" stroke="none"/><path d="M136.677 165.38s-19.668-9.874-21.107-11.193c0 0 18.829 7.855 21.107 11.193z" fill="#f4c3c0" fill-rule="evenodd" fill-opacity="1" stroke="none"/><path d="M98.54 143.593c-1.579-1.28-4.197-1.719-5.936-.86-1.46.72-2.898 2-4.218 2.979 1.9-.98 3.338-1.56 5.377-1.7.88-.14 1.74-.14 2.619.14.58.14 1.579.58 2.158.44 0-.44-.14-.72 0-1.139z" fill="#913520" fill-rule="evenodd" fill-opacity="1" stroke="none"/><path d="M157.025 78.113s6.196-23.066 14.151-39.217c0 0-31.86-12.672-43.573-16.39 0 0-7.036-1.039-6.037-9.674 1-8.794 0-11.233-2.478-11.233 0 0 4.197-.6 3.917 5.757-.44 6.196 0 10.793 5.917 12.832 5.916 1.879 41.375 13.112 44.853 15.99 3.438 3.038-5.477 32.14-12.833 42.055l-3.917-.12z" fill="#c17b70" fill-rule="evenodd" fill-opacity="1" stroke="none"/><path clip-path="url(#a)" d="M157.065 78.153s6.196-23.066 14.151-39.217c0 0-31.86-12.672-43.573-16.39 0 0-7.036-1.039-6.037-9.674 1-8.794 0-11.233-2.478-11.233 0 0 4.197-.6 3.917 5.757-.44 6.196 0 10.793 5.917 12.832 5.916 1.879 41.375 13.112 44.853 15.99 3.438 3.038-5.477 32.14-12.833 42.055l-3.917-.12z" fill="none" stroke="#343434" stroke-width="1.0393701px" stroke-linecap="round" stroke-linejoin="round" stroke-miterlimit="4" stroke-dasharray="none" stroke-opacity="1"/><path d="M160.823 73.036s4.157-20.868 10.153-29.822c0 0-1.998 21.907-10.153 29.822z" fill="#d39089" fill-rule="evenodd" fill-opacity="1" stroke="none"/><path d="M162.102 70.877v-.4c.6-2.598 4.237-18.029 7.675-22.946 0 0-5.636 20.068-7.675 23.346z" fill="#f4c3c0" fill-rule="evenodd" fill-opacity="1" stroke="none"/><path d="M169.937 41.095c.88-1.12.56-2.279-.72-2.838.16-1.44 2.16-1.72 2.559-3.038.88 0 1.599 0 2.279.6.72.559.999 1.558.999 2.438.28 1.439.56 3.558-1 4.557-1.279-.84-3.397-.12-3.957-1.999z" fill="#913520" fill-rule="evenodd" fill-opacity="1" stroke="none"/><path d="M169.977 41.135c.88-1.12.56-2.279-.72-2.838.16-1.44 2.16-1.72 2.559-3.038.88 0 1.599 0 2.278.6.72.559 1 1.558 1 2.438.28 1.439.56 3.558-1 4.557-1.279-.84-3.397-.12-3.957-1.999" fill="none" stroke="#343434" stroke-width="1.0393701px" stroke-linecap="round" stroke-linejoin="round" stroke-miterlimit="4" stroke-dasharray="none" stroke-opacity="1"/><path d="M170.417 37.777c.6-.44 1.639-1.759 2.478-1.599 1.04 0 1.32 1.44 1.32 2.199 0 .28.28 1.559-.44 1.439-.12-.16-.44-1.16-.88-1.44-.72-.759-1.719.4-2.318-.32z" fill="#b75141" fill-rule="evenodd" fill-opacity="1" stroke="none"/><path d="M168.978 35.618s-20.588-8.235-22.467-8.394c0 0 18.31 8.794 22.467 8.394z" fill="#f4c3c0" fill-rule="evenodd" fill-opacity="1" stroke="none"/><path d="M127.163 21.707c-1.999-.28-4.018-1.879-4.597-3.918-.44-1.619-.44-3.498-.44-5.117.44 2.06 1.02 3.498 2.159 5.257.58.72 1.159 1.32 1.879 1.74.58.439 1.579.739 1.718 1.318-.28.3-.56.44-.859.72z" fill="#913520" fill-rule="evenodd" fill-opacity="1" stroke="none"/><path d="M144.313 123.245s-38.057 25.965-59.984 46.312c0 0-29.262-11.533-63.282-32.6 0 0-17.01 2.878-20.048 2.459 0 0 15.87 1.139 19.049 0 0 0 53.767 33.02 64.28 33.02 10.535.14 57.686-41.815 61.703-47.172l-1.718-2.019z" fill="#c17b70" fill-rule="evenodd" fill-opacity="1" stroke="none"/><path d="M144.353 123.285s-38.057 25.965-59.984 46.312c0 0-29.262-11.533-63.282-32.6 0 0-17.01 2.878-20.048 2.458 0 0 15.87 1.14 19.049 0 0 0 53.767 33.02 64.28 33.02 10.534.14 57.686-41.814 61.703-47.17l-1.718-2.02z" fill="none" stroke="#343434" stroke-width="1.0393701px" stroke-linecap="round" stroke-linejoin="round" stroke-miterlimit="4" stroke-dasharray="none" stroke-opacity="1"/><path d="M138.116 129.961c-36.298 25.385-36.298 25.105-46.691 35.898 0 0 27.823-12.972 46.691-35.898z" fill="#d39089" fill-rule="evenodd" fill-opacity="1" stroke="none"/><path d="M135.398 132.68s-31.321 21.127-37.098 28.302c0 0 34.8-25.284 37.098-28.302z" fill="#f4c3c0" fill-rule="evenodd" fill-opacity="1" stroke="none"/><path d="M90.165 164.5c-2.898 1.74-4.777 3.618-8.395 2.899-1.019-.28-2.038-.58-2.618.44-.44.579-.14 2.018 0 2.738.72 2.038 3.478 3.617 5.357 3.617 2.758.14 5.077-2.158 6.816-3.897.86-.88 2.018-1.74 1.439-3.338-.28-1-1.88-2.159-2.878-2.299z" fill="#913520" fill-rule="evenodd" fill-opacity="1" stroke="none"/><path d="M90.205 164.54c-2.898 1.74-4.777 3.618-8.395 2.899-1.019-.28-2.038-.58-2.618.44-.44.579-.14 2.018 0 2.738.72 2.038 3.478 3.617 5.357 3.617 2.758.14 5.077-2.158 6.816-3.897.86-.88 2.018-1.74 1.439-3.338-.28-1-1.88-2.159-2.879-2.299" fill="none" stroke="#343434" stroke-width="1.0393701px" stroke-linecap="round" stroke-linejoin="round" stroke-miterlimit="4" stroke-dasharray="none" stroke-opacity="1"/><path d="M80.791 168.918c.58 1.599 1.44 3.957 3.318 4.237.58.14 1.58-.14 2.299-.44.44-.28 2.298-1.599 2.158-2.198 0-.86-1.859.3-2.438.44-1.16.44-1.88.599-2.599-.44-.42-.72-.42-1.16-1.139-1.74-.58-.439-1.3-.599-1.16.28z" fill="#b75141" fill-rule="evenodd" fill-opacity="1" stroke="none"/><path d="M23.466 139.955s44.973 27.543 54.047 29.262c0 0-49.43-25.224-54.047-29.262z" fill="#f4c3c0" fill-rule="evenodd" fill-opacity="1" stroke="none"/><path d="M20.747 137.776c-.56-.3-1.719.28-2.438.42-.86.16-1.879.3-2.738.58-2.16.3-4.318.3-6.496.58 1.299.28 2.598-.14 3.897-.14 1.16.14 2.299-.14 3.458-.3 1.02 0 4.178.44 4.317-1z" fill="#913520" fill-rule="evenodd" fill-opacity="1" stroke="none"/><path d="M146.751 80.571s-41.095-20.987-65.18-38.536c0 0-27.704 15.11-58.845 40.115 0 0-17.31-.86-20.208 0 0 0 15.591-3.158 18.77-2.298 0 0 49.47-39.257 59.843-40.696 10.533-1.299 62.462 34.52 67.06 39.256l-1.44 2.16z" fill="#c17b70" fill-rule="evenodd" fill-opacity="1" stroke="none"/><path d="M146.791 80.611s-41.095-20.987-65.18-38.537c0 0-27.704 15.111-58.845 40.116 0 0-17.31-.86-20.208 0 0 0 15.591-3.158 18.77-2.298 0 0 49.47-39.257 59.843-40.696 10.533-1.299 62.462 34.52 67.06 39.256l-1.44 2.16z" fill="none" stroke="#343434" stroke-width="1.0393701px" stroke-linecap="round" stroke-linejoin="round" stroke-miterlimit="4" stroke-dasharray="none" stroke-opacity="1"/><path d="M139.875 74.875C100.64 54.287 100.64 54.427 88.946 45.053c0 0 29.302 9.374 50.93 29.822z" fill="#d39089" fill-rule="evenodd" fill-opacity="1" stroke="none"/><path d="M136.677 72.396s-33.58-17.01-40.215-23.506c0 0 37.637 20.928 40.215 23.506z" fill="#f4c3c0" fill-rule="evenodd" fill-opacity="1" stroke="none"/><path d="M88.027 46.412c-3.178-1.44-5.197-3.018-8.675-1.859-1.02.28-2.039.86-2.619-.14-.58-.58-.42-2.019-.42-2.738.42-2.019 2.899-4.038 4.918-4.318 2.598-.3 5.217 1.58 7.235 3.158 1.02.72 2.16 1.44 1.88 3.019-.28 1.159-1.74 2.458-2.76 2.738z" fill="#913520" fill-rule="evenodd" fill-opacity="1" stroke="none"/><path d="M88.067 46.452c-3.178-1.44-5.197-3.018-8.675-1.859-1.02.28-2.039.86-2.619-.14-.58-.58-.42-2.019-.42-2.738.42-2.02 2.899-4.038 4.918-4.318 2.598-.3 5.217 1.58 7.235 3.158 1.02.72 2.16 1.44 1.88 3.019-.28 1.159-1.74 2.458-2.76 2.738" fill="none" stroke="#343434" stroke-width="1.0393701px" stroke-linecap="round" stroke-linejoin="round" stroke-miterlimit="4" stroke-dasharray="none" stroke-opacity="1"/><path d="M78.153 43.134c.3-1.74.88-4.078 2.618-4.657.72-.3 1.719 0 2.459.3.42.14 2.438 1.159 2.438 1.738 0 .88-2.019 0-2.438-.14-1.32-.3-2.04-.3-2.619.86-.28.6-.28 1.18-.86 1.759-.579.58-1.299.86-1.299-.16z" fill="#b75141" fill-rule="evenodd" fill-opacity="1" stroke="none"/><path d="M24.745 78.792S66 45.952 74.795 43.214c0 0-45.853 30.981-50.05 35.578z" fill="#f4c3c0" fill-rule="evenodd" fill-opacity="1" stroke="none"/><path d="M22.267 81.31c-.56.28-1.72 0-2.439-.14-1.02 0-1.879-.14-2.898-.14-2.159-.139-4.318.14-6.496.14 1.299-.419 2.758-.279 3.897-.419 1.16-.14 2.319 0 3.478 0 1-.14 4.178-1 4.458.42z" fill="#913520" fill-rule="evenodd" fill-opacity="1" stroke="none"/><path d="M148.99 77.133S55.646 43.693 47.27 98.041c-8.375 54.467 100.28 30.261 100.28 30.261l1.439-51.169z" fill="#e5a183" fill-rule="evenodd" fill-opacity="1" stroke="none"/><path d="M126.763 71.597s-9.974 28.522 0 59.324c0 0-14.471-24.046 0-59.324zM114.29 68.798s-12.332 38.477 0 63.962c0 0-15.51-19.728 0-63.962zM102.218 66.72s-12.392 39.696 0 66.52c0 0-17.75-24.806 0-66.52zM88.147 67.2s-18.769 31.14 0 65.88c0 0-23.266-33.58 0-65.88zM73.116 69.518s-18.589 28.423 0 61.003c0 0-20.628-28.683 0-61.003zM61.043 74.555s-12.432 29.422 0 51.888c0 0-16.07-17.29 0-51.888z" fill="#913520" fill-rule="evenodd" fill-opacity="1" stroke="none"/><path d="M148.87 77.093S55.586 43.653 47.23 98.001c-8.375 54.467 100.2 30.261 100.2 30.261l1.439-51.169z" fill="none" stroke="#343434" stroke-width="1.0393701px" stroke-linecap="round" stroke-linejoin="round" stroke-miterlimit="4" stroke-dasharray="none" stroke-opacity="1"/><path d="M163.7 73.435s-21.626 5.037-38.656 4.318c-17.03-.72-85.948-6.476-90.265 20.148-4.198 26.624 89.985 26.783 89.985 26.783s24.625 1.72 35.619 7.756c0 0 4.317 3.598 25.344-10.794 0 0 10.954.6 17.19-9.194 0 0 6.756 5.477 12.393.44 0 0 6.316 6.036 11.393 0 0 0 13.991.28 15.43-6.357 1.12-5.037-14.151-7.475-14.151-7.475s-6.356-7.755-12.553-.28c0 0-6.915-3.758-11.513.44 0 0-8.514-12.393-15.43-10.514 0 0-14.152-14.231-24.785-15.27z" fill="#c17b70" fill-rule="evenodd" fill-opacity="1" stroke="none"/><path d="M163.74 73.475s-21.626 5.037-38.656 4.318c-17.03-.72-85.948-6.476-90.265 20.148-4.198 26.624 89.985 26.783 89.985 26.783s24.625 1.72 35.619 7.756c0 0 4.317 3.598 25.344-10.794 0 0 10.954.6 17.19-9.194 0 0 6.756 5.477 12.392.44 0 0 6.317 6.036 11.394 0 0 0 13.991.28 15.43-6.357 1.12-5.037-14.151-7.475-14.151-7.475s-6.356-7.755-12.553-.28c0 0-6.915-3.758-11.513.44 0 0-8.514-12.393-15.43-10.514 0 0-14.152-14.231-24.785-15.27" fill="none" stroke="#343434" stroke-width="1.0393701px" stroke-linecap="round" stroke-linejoin="round" stroke-miterlimit="4" stroke-dasharray="none" stroke-opacity="1"/><path d="M189.205 118.368s29.303 27.104 35.659 31.861c0 0-3.918 34.499-7.636 41.255 0 0 5.157 9.834 11.393 13.552 0 0-4.357-2.559-8.794-13.112 0 0 9.194-41.095 8.635-45.013-.56-3.878-32.9-30.422-37.218-31.74l-2.039 3.197z" fill="#c17b70" fill-rule="evenodd" fill-opacity="1" stroke="none"/><path d="M189.245 118.408s29.303 27.104 35.659 31.86c0 0-3.918 34.5-7.636 41.256 0 0 5.157 9.834 11.393 13.552 0 0-4.357-2.559-8.794-13.112 0 0 9.194-41.095 8.635-45.013-.56-3.878-32.9-30.422-37.218-31.74l-2.039 3.197z" fill="none" stroke="#343434" stroke-width="1.0393701px" stroke-linecap="round" stroke-linejoin="round" stroke-miterlimit="4" stroke-dasharray="none" stroke-opacity="1"/><path d="M195.122 120.527s20.347 11.153 28.862 23.985c0 0-18.029-10.673-28.862-23.985z" fill="#d39089" fill-rule="evenodd" fill-opacity="1" stroke="none"/><path d="M197.84 123.165s17.19 16.27 23.826 19.269c0 0-20.348-19.588-23.826-19.269z" fill="#f4c3c0" fill-rule="evenodd" fill-opacity="1" stroke="none"/><path d="M223.185 148.71c2.038.12 3.598-2.039 4.317-3.638 1.839.32 3.118 1.879 2.718 3.918-.28 1.279-1.599 2.878-2.598 3.757-.84.84-2.838 1.12-2.998-.32 0-.719.16-.999-.28-1.558-.44-.6-.72-.88-1-1.44 0-.16-.16-.44-.16-.6z" fill="#913520" fill-rule="evenodd" fill-opacity="1" stroke="none"/><path d="M223.225 148.55c2.038.28 3.598-1.919 4.317-3.678 1.839.44 3.118 2.079 2.718 3.958-.28 1.439-1.719 2.918-2.718 3.917-.72.76-2.718 1.16-2.878-.28 0-.879 0-.999-.4-1.758-.32-.44-.6-.88-.88-1.32-.16-.28-.16-.4-.16-.72" fill="none" stroke="#343434" stroke-width="1.0393701px" stroke-linecap="round" stroke-linejoin="round" stroke-miterlimit="4" stroke-dasharray="none" stroke-opacity="1"/><path d="M226.863 147.35c.16-.28.32-.439.44-.599.16-.28.439-.56.599-.72.6-.16 1.04.28 1.32.6.159.28.279.56.279.88 0 .44 0 .88-.12 1.319-.16.56-.6 1.319-1.2 1.439-.12-.12 0-.28 0-.44.16-.44.16-.72.32-1 0-.439.12-1.478-.32-1.638-.439 0-.999.44-1.318.16z" fill="#b75141" fill-rule="evenodd" fill-opacity="1" stroke="none"/><path d="M225.503 155.466s-4.797 30.301-6.716 34.299c0 0 7.996-28.942 6.716-34.3z" fill="#f4c3c0" fill-rule="evenodd" fill-opacity="1" stroke="none"/><path d="M217.748 191.604c.32.32.88 0 1.32.44.319.44.439 1.279.759 1.878.28.72.88 1.28 1.319 1.84.28.44.44.719.56 1.159.16.28.32.56.44.84-.56-.28-1-1.12-1.44-1.72-.32-.56-.76-1.12-1.199-1.679-.44-.44-.56-.88-1-1.439-.16-.28-.759-.88-.759-1.16z" fill="#913520" fill-rule="evenodd" fill-opacity="1" stroke="none"/><path d="M186.887 89.666s38.856-8.955 46.771-9.954c0 0 13.592-31.861 13.712-39.496 0 0 9.554-6.037 16.59-6.197 0 0-4.877 0-14.111 7.076 0 0-12.273 40.216-14.751 43.214-2.599 3.158-43.734 10.074-48.211 9.074v-3.717z" fill="#c17b70" fill-rule="evenodd" fill-opacity="1" stroke="none"/><path d="M186.927 89.706s38.856-8.955 46.771-9.954c0 0 13.592-31.861 13.712-39.496 0 0 9.554-6.037 16.59-6.197 0 0-4.877 0-14.111 7.076 0 0-12.273 40.216-14.752 43.214-2.598 3.158-43.733 10.074-48.21 9.074v-3.717z" fill="none" stroke="#343434" stroke-width="1.0393701px" stroke-linecap="round" stroke-linejoin="round" stroke-miterlimit="4" stroke-dasharray="none" stroke-opacity="1"/><path d="M193.043 90.705s23.186.56 36.858-6.396c0 0-20.868.32-36.858 6.396z" fill="#d39089" fill-rule="evenodd" fill-opacity="1" stroke="none"/><path d="M196.72 90.025s22.947-5.796 30.302-5.037c0 0-27.383 6.916-30.301 5.037z" fill="#f4c3c0" fill-rule="evenodd" fill-opacity="1" stroke="none"/><path d="M231.18 80.311c1.879.88 2.199 3.478 2.039 5.197 1.879.72 3.757-.12 4.357-1.999.4-1.319 0-3.318-.44-4.637-.28-1-1.879-2.318-2.758-1.16-.28.6-.44.88-1.16 1.32-.44.12-.999.28-1.438.72l-.44.44z" fill="#913520" fill-rule="evenodd" fill-opacity="1" stroke="none"/><path d="M231.22 80.351c1.879.88 2.199 3.478 1.879 5.197 1.919.72 3.797 0 4.517-1.999.4-1.319-.16-3.318-.44-4.637-.28-1-1.879-2.318-2.758-1.16-.44.6-.44.88-1.16 1.32-.559.12-.999.44-1.439.72-.16.16-.44.28-.6.44" fill="none" stroke="#343434" stroke-width="1.0393701px" stroke-linecap="round" stroke-linejoin="round" stroke-miterlimit="4" stroke-dasharray="none" stroke-opacity="1"/><path d="M233.898 83.31v.6c.16.279.16.719.32.879.28.56.84.28 1.28.16.32-.16.439-.32.599-.6.28-.28.44-.72.56-1.16.28-.6.28-1.479-.28-1.918 0 .16-.16.32-.16.44 0 .44-.12.759-.28 1.039-.12.28-.56 1.319-1 1.16-.28-.16-.719-.88-1.039-.72v.12z" fill="#b75141" fill-rule="evenodd" fill-opacity="1" stroke="none"/><path d="M236.697 75.434s10.913-28.582 11.193-33.1c0 0-7.596 29.223-11.193 33.1z" fill="#f4c3c0" fill-rule="evenodd" fill-opacity="1" stroke="none"/><path d="M247.89 40.455c.44-.12.88.44 1.319.16.56-.16 1.16-.88 1.599-1.199.72-.56 1.44-.72 2.159-1.16.28-.16.72-.319 1-.599.319-.16.439-.44.719-.6-.56-.16-1.28.44-1.88.76-.719.44-1.438.72-1.998 1.04-.6.12-1.04.44-1.44.719-.439.16-1.158.32-1.478.6z" fill="#913520" fill-rule="evenodd" fill-opacity="1" stroke="none"/><path d="M83.09 122.126c-24.545-3.618-50.67-9.794-48.351-24.065 2.458-15.97 28.583-20.308 52.528-21.028 0 0 20.208 1.3 38.117 16.43l30.302-5.916s5.616 19.888-1.16 31.121l-28.862-8.935s-23.806 15.111-42.574 12.393z" fill="#a07e7c" fill-rule="evenodd" fill-opacity="1" stroke="none"/><path d="M83.13 122.166c-24.546-3.618-50.67-9.794-48.351-24.065 2.458-15.97 28.583-20.308 52.528-21.028 0 0 20.208 1.3 38.117 16.43l30.302-5.916s5.616 19.888-1.16 31.121l-28.862-8.935s-23.806 15.111-42.574 12.393" fill="none" stroke="#343434" stroke-width="1.0393701px" stroke-linecap="round" stroke-linejoin="round" stroke-miterlimit="4" stroke-dasharray="none" stroke-opacity="1"/><path d="M185.767 121.686s10.994.6 17.19-9.194c0 0 6.796 5.477 12.392.44 0 0 6.357 6.036 11.274.12 1.159.28 4.917-.28 5.916-.12 2.319.12 4.597.84 6.916.72 2.039-.16 1.879-1.44 2.159-3.199 5.636-1 10.673.28 10.673-4.037 0-3.438-5.477-2.719-11.073-4.318.28-.84-.16-2.598-.6-2.718-1.999-.72-3.318 0-4.757 0-1.16 0-1.879.12-3.158.12-.72 0-3.478-.56-4.797-.56-.84-.88-6.636-7.076-12.393-.16 0 0-6.915-3.718-11.553.44 0 0-8.514-12.393-15.43-10.514 0 0-8.955-9.074-18.03-13.272 0 0-11.712 3.478-16.47 11.273-2.438 3.878 1.32 10.954.6 17.55-.72 6.196-3.638 9.794-1.599 13.991 4.198 9.355 15.59 13.232 15.59 13.232 3.878-1.559 9.355-4.317 17.15-9.794z" fill="#494848" fill-rule="evenodd" fill-opacity="1" stroke="none"/><path d="M172.216 106.455c-2.879-2.758.999-7.355 1.878-9.794 1.28-3.198-1.319-7.355-4.477-7.795-5.037-.88-7.515 2.599-9.954 6.476-2.158 3.598-4.357 6.516-3.757 11.113.44 3.438 1.599 7.076 3.597 9.795 2.04 2.758 4.038 5.316 7.676 4.317 3.597-.84 6.636-2.998 7.075-6.916.4-2.878-1.319-4.757-2.198-7.036 0 0 0-.16-.12-.16z" fill="#313131" fill-rule="evenodd" fill-opacity="1" stroke="none"/><path d="M216.469 99.5c.44 2.878 5.636 2.758 7.355 1.319-1.559 2.279-6.476 2.159-7.195-.72zM216.949 110.293c1.159-1.559 2.878-2.398 4.757-1.959 1.279.28 3.038.68 3.717 1.84-.56-1.72-3.438-2.44-4.997-2.44-1.599.16-2.758 1.28-3.477 2.56zM226.143 108.734s4.917.44 8.795-.6c0 0-4.757 2.32-8.795.6zM234.218 103.977s-5.796-1.44-9.274-.72c0 0 4.637-1.918 9.274.72z" fill="#343434" fill-rule="evenodd" fill-opacity="1" stroke="none"/><path d="M173.375 105.976c-1.16-3.598 1.16-7.356 2.159-9.794 1.119-3.198-1.44-7.356-4.598-7.796-5.037-.879-7.355 2.599-9.794 6.477-2.318 3.597-4.477 6.635-3.877 11.113.44 3.438 1.719 7.075 3.717 9.954 2.04 2.598 3.918 5.157 7.636 4.157 3.438-.84 6.596-2.998 7.036-6.916.28-2.878-1.44-4.597-2.28-7.035v-.16z" fill="#646262" fill-rule="evenodd" fill-opacity="1" stroke="none"/><path d="M173.375 105.976c-1.16-3.598 1.16-7.356 2.159-9.794 1.119-3.198-1.44-7.356-4.598-7.796-5.037-.879-7.355 2.599-9.794 6.477-2.318 3.597-4.477 6.635-3.877 11.113.44 3.438 1.719 7.075 3.717 9.954 2.04 2.598 3.918 5.157 7.636 4.157 3.438-.84 6.596-2.998 7.036-6.916.28-2.878-1.44-4.597-2.28-7.035v-.16" fill="none" stroke="#343434" stroke-width=".47970927px" stroke-linecap="round" stroke-linejoin="round" stroke-miterlimit="4" stroke-dasharray="none" stroke-opacity="1"/><path d="M173.415 91.265c-1.879-1.44-4.038-2.319-6.196-1-2.479 1.32-4.038 3.598-5.077 6.197-.4 1.479-1.16 2.918-.12 4.357 1 1.719 3.038 1.719 4.917 2.318 3.438.84 4.757-2.598 5.916-5.196.84-2.199 1.56-4.638.44-6.676z" fill="#71706f" fill-rule="evenodd" fill-opacity="1" stroke="none"/><path d="M172.216 91.864c-1.76-1.279-3.478-1.879-4.598.28-1.039 1.879-.44 5.037 2 5.317 1.558.28 2.598-1.12 2.877-2.439.4-1.439.12-2.278-.28-3.438z" fill="#9e9e9d" fill-rule="evenodd" fill-opacity="1" stroke="none"/><path d="M168.778 91.624c-.32.28-.64.28-.92.16-.32-.32-.48-.76-.16-1.079.16-.32.6-.32.92-.16.28.32.28.76.16 1.08zM168.018 94.703c-.44.6-1.16.72-1.759.32-.56-.44-.72-1.16-.28-1.76.44-.56 1.16-.72 1.72-.28.599.44.719 1.16.32 1.72z" fill="#fff" fill-rule="evenodd" fill-opacity="1" stroke="none"/><path d="M159.224 110.533s4.037 9.674 8.354 9.114c4.318-.56 8.595-4.917 7.316-7.515 0 0-.28 2.159-2.598 3.598-2.279 1.479-6.437 5.197-13.072-5.197z" fill="#8f8e8d" fill-rule="evenodd" fill-opacity="1" stroke="none"/><path d="M196.6 100.819c-1.718 2.318-5.476 2.598-8.234.44-2.758-2.16-3.638-5.757-1.76-8.075 1.76-2.32 5.518-2.479 8.276-.28 2.718 1.998 3.438 5.636 1.719 7.915zM195.322 116.93c-2.759 1.838-6.397 1.558-7.836-.6-1.479-2.16-.28-5.477 2.439-7.356 2.918-1.879 6.396-1.719 7.875.6 1.56 2.158.4 5.476-2.478 7.355z" fill="#515151" fill-rule="evenodd" fill-opacity="1" stroke="none"/><path d="M191.204 93.144c-.4.56-1.28.68-1.999.28-.56-.56-.72-1.44-.28-2.16.56-.559 1.44-.719 2.16-.28.559.56.679 1.44.12 2.16zM194.442 94.743c-.28.44-.88.44-1.319.16a.76.76 0 0 1-.16-1.2c.28-.44.88-.6 1.32-.28.32.28.439.88.16 1.32zM189.525 111.253c-.44.6-1.32.72-1.879.32-.6-.44-.76-1.32-.32-1.88.44-.6 1.32-.759 1.88-.32.599.44.719 1.32.32 1.88zM192.363 109.014c-.28.28-.68.4-.959.12-.44-.28-.44-.68-.16-1.12.28-.28.72-.28 1-.12.4.28.4.68.12 1.12z" fill="#fff" fill-rule="evenodd" fill-opacity="1" stroke="none"/><path d="M187.606 89.346c-1.399.6-3.398 2.878-3.957 4.477-.6 1.44-.28 4.078.56 5.197-3.159-2.718-.28-8.795 3.277-9.834zM186.007 121.127c-2.238-.88-2.958-4.478-3.118-6.636 0-2.16 1.16-4.758 2.838-6.357-1.679 2.2-2.118 4.198-1.838 6.796.16 1.88.56 5.197 1.998 6.317zM202.477 103.737c-.56 1.04-.28 2.359-.28 3.358-.28-.28-.44-.84-.72-1.16-.559-.559-.999-.279-1.718-.439-1.32-.12-2.159-.28-3.478-.12-2.438.12-4.917.28-7.236.12 2.479-.12 4.798-1 7.396-.88 1.719.16 4.917 1.2 5.756-.56z" fill="#343434" fill-rule="evenodd" fill-opacity="1" stroke="none"/><path d="M209.993 98.18c-2.559-.759-4.837 1.72-5.557 3.918-.28 1-.44 2.319-.44 3.318.16 1.2.72 2.039 1 3.198-.68-2.318.16-4.797 1.16-6.796.998-1.759 1.998-2.478 3.437-3.638z" fill="#515151" fill-rule="evenodd" fill-opacity="1" stroke="none"/><path d="M219.547 101.219c-1.32-.44-2.519-1.44-1.919-2.919.44-1.159 1.6-2.318 2.758-2.478.76 0 1.32 0 1.76.44.719.44.44.88.32 1.599-.16 1.319-.16 2.318-1.64 3.078-.44.28-.88.4-1.439.12zM221.146 108.894c-1.04-.6-2.479.72-3.198 1.28-1.04.999-1.48 1.998-.44 3.157.88 1 2.479 1.28 3.758 1.28.76-.12 1.479-.68 1.479-1.4.12-.72-.6-1.319-.72-2.038-.16-.84-.16-1.72-1.039-2.439z" fill="#807977" fill-rule="evenodd" fill-opacity="1" stroke="none"/><path d="M224.264 97.181c0 1.04-.44 1.32-.76 2.039.76.68 2.959-1.32 1.04-2.039zM223.824 110.533c.32.44.6.88.88 1.32.16.319 0 1.159.6.599.839-.72-.6-1.6-1.16-1.76zM236.537 105.416c-3.878-1-7.476-2.318-11.673-1.719-.72.16-2.319.44-2.319 1.44-.16.999 1.32 1.438 2.039 1.718 1.879.72 4.037.6 6.036.6.88 0 6.636-.44 5.917-1.879z" fill="#515151" fill-rule="evenodd" fill-opacity="1" stroke="none"/><path d="M234.938 105.536c-1.44-.88-3.598-.88-5.197-1.28-1.16-.16-3.918-1.318-4.797 0-.88 1.12 4.957 1.56 5.796 1.72.72.12 3.918.4 4.198-.6z" fill="#606060" fill-rule="evenodd" fill-opacity="1" stroke="none"/><path d="M218.588 100.22c-.28.28-.68.399-1.12.12-.28-.28-.44-.68-.12-1.12.28-.28.68-.44 1.12-.12.28.28.4.84.12 1.12zM220.107 100.659c-.16.12-.44.12-.6 0-.16-.12-.16-.4 0-.56.16-.12.28-.28.6-.12.12.28.12.4 0 .68zM218.268 113.171c-.28.4-.88.4-1.16.12-.48-.28-.48-.68-.16-1.119.28-.44.72-.44 1.16-.12.32.28.44.84.16 1.12zM219.787 113.771c-.12.12-.4.12-.52 0-.16 0-.16-.32 0-.44 0-.32.24-.32.4-.16.24.16.24.44.12.6zM235.337 105.336s-7.035-3.358-12.392-.68c0 0 5.077-2.118 12.392.68zM209.433 97.94s-6.036-.759-6.476 7.636c0 0 .32-7.076 6.476-7.635zM214.31 99.26s3.678 2.438 2.958 6.956c0 0 .44-3.798-2.958-6.956zM224.944 97.9s-.12 3.319-4.158 3.439c0 0 3.158-1 4.158-3.438zM221.666 108.694s3.238 0 4.237 3.278c0 0-1.719-2.678-4.237-3.278zM182.29 96.781s-1.12-3.877 3.717-7.915c0 0-8.834-8.115-14.311-10.154 0 0 11.313 6.676 13.192 10.154 0 0-3.718 3.878-2.598 7.915z" fill="#fff" fill-rule="evenodd" fill-opacity="1" stroke="none"/><path d="M170.177 76.554s-16.79 5.796-16.19 13.991c0 0 1.599-8.075 16.19-13.991zM153.747 113.491s-2.599 9.115 14.511 17.03c0 0-14.511-7.036-14.511-17.03zM174.814 89.666s3.318 2.878.16 9.354c0 0 4.157-5.876-.16-9.354z" fill="#6e6d6d" fill-rule="evenodd" fill-opacity="1" stroke="none"/><path d="M125.324 93.503s21.207 17.67 26.384 23.986c0 0-20.887-21.687-26.384-23.986zM125.644 109.733S107.874 98.78 98.78 92.144c-9.254-6.636-19.368-13.432-25.584-12.552 0 0 6.216.42 12.152 5.037 5.917 4.617 35.539 23.386 40.296 25.104z" fill="#fff" fill-rule="evenodd" fill-opacity="1" stroke="none"/><path d="M104.936 97.74s-26.803 6.217-46.691 17.75c0 0 23.785-15.71 46.691-17.75z" fill="#fff" fill-rule="evenodd" fill-opacity="1" stroke="none"/><path d="M84.629 79.832c1.299.88 3.038.16 4.477.44 1.739.3 3.338 1.019 5.057 1.299 2.758.44 5.197 1.299 7.955 2.178 6.196 1.88 13.272 4.617 18.05 8.955 4.476 4.177 9.533 8.375 14.73 11.253 2.159 1.32 4.338 2.618 5.917 4.497.58.72 3.178 3.318 3.318 4.038 0 .14.14.58.14.72-2.739.28-6.057-3.039-8.215-4.338-2.04-1.3-4.478-2.159-6.656-2.738-6.057-1.44-10.674-5.057-16.03-8.235-3.179-1.74-5.337-4.338-8.236-6.656-2.738-2.02-6.056-3.898-9.094-5.337-2.159-.86-4.477-1.58-6.356-2.738-1.44-1.02-2.299-2.319-3.758-3.338zM101.459 101.099c2.158-.88 4.037.58 6.056 1.579 2.298 1.299 4.757 2.738 7.195 4.037 7.496 4.038-4.017 5.777-7.495 6.916-7.336 2.738-14.691 3.458-22.326 1.879-2.599-.58-5.637-.44-8.215-1.16-4.917-1.438 1.299-3.317 3.318-3.877 4.737-1.44 9.654-3.178 14.111-5.337 2.319-1.159 5.916-2.318 7.795-4.037z" fill="#ad8a8a" fill-rule="evenodd" fill-opacity="1" stroke="none"/><path d="M52.888 83.75s-6.916 5.336-7.635 13.271c-.72 7.915 3.897 16.55 3.897 16.55s-32.72-15.11 3.738-29.822z" fill="#aa9889" fill-rule="evenodd" fill-opacity="1" stroke="none"/><path d="M63.202 83.45c3.038 1.459 1.459 3.477.14 5.356-2.18 3.038-3.758 5.777-4.198 9.534-.72 6.357 1.879 11.254-2.618 16.59-8.275-1.579-6.676-10.094-6.236-16.59.3-3.757.879-7.515 3.477-10.413 1.6-1.86 6.097-5.617 8.715-5.777z" fill="#937272" fill-rule="evenodd" fill-opacity="1" stroke="none"/><path d="M102.378 97.061s-23.346 4.198-45.692 18.909l-3.318-.72s30.561-20.068 49.01-18.189z" fill="#816565" fill-rule="evenodd" fill-opacity="1" stroke="none"/><path d="M66.48 79.292s9.094-.28 15.71 4.197c6.496 4.478 20.748 13.852 20.748 13.852s-17.29-8.375-19.449-10.394c-2.158-2.158-12.092-8.235-17.01-7.655zM136.997 102.618s11.693-9.115 15.89-8.535l.42 2.698s-13.132 3.718-16.31 5.837z" fill="#816565" fill-rule="evenodd" fill-opacity="1" stroke="none"/><path d="M152.028 93.084s-10.434 6.136-14.791 8.894c0 0 11.473-9.194 14.79-8.894z" fill="#fff" fill-rule="evenodd" fill-opacity="1" stroke="none"/><path d="M148.15 98.46c-2.458.58-4.917 1.16-4.757 4.058.14 1.579 1.72 7.775 3.318 7.355 1.58-.58 3.018-4.617 3.018-6.056.14-2.179-1.14-3.178-1.879-4.917z" fill="#a07b5b" fill-rule="evenodd" fill-opacity="1" stroke="none"/><path d="M144.912 99.02c-1.399 1.739-1.959 3.338-.98 5.497.14.44.42.88.56 1.459.28.56.14 1.14.28 1.719.28.72.98 1.879 1.82 2.038-.56.56-1.68-1.019-1.96-1.459-.42-.999-.42-2.018-1.119-2.878-1.4-1.879-1.4-5.217 1.26-6.216zM146.511 98.58c.44.3 1.02 0 1.46.44.579.44.579 1 .879 1.579.72 1.16 1.16 2.019 1.16 3.458.419-1.719-.3-2.738-.88-4.178-.28-.72-.14-1.579-.58-2.018-.58-.44-1.16-.14-1.739 0z" fill="#816565" fill-rule="evenodd" fill-opacity="1" stroke="none"/><path d="M146.99 99.58c-.998 0-2.158.44-2.318 1.759 0 1.619 1.02 2.778 1.46 4.237-.14-1.3-.72-2.478-.72-3.938 0-.58.58-2.058 1.3-2.058z" fill="#be9271" fill-rule="evenodd" fill-opacity="1" stroke="none"/><path d="M152.747 94.303c.72 3.897 1.28 7.935.42 11.973-.72 3.038-2.878 7.075-1.299 10.093-.86-.56-1.44-1.718-2.159-2.438-.56-.86-1.439-1.6-2.158-2.319 4.177 0 4.897-5.896 5.336-8.934.14-1.88-.14-3.178-1.579-4.478-.3-.28-1.439-.72-1.439-1.299 0-.72 1.28-1.439 1.72-1.719z" fill="#816565" fill-rule="evenodd" fill-opacity="1" stroke="none"/><path d="M146.511 97.321c1.16-.86 2.159-1.579 3.598-2.159 1.28-.7 2.279-1.579 2.578.3.28 1.44.7 2.858.7 4.437 0 1.44-.42 2.739-.28 4.158-1.14-1.859.28-5.577-1.719-7.316-1.439-1.139-3.298.86-4.717 1.16zM148.51 112.052c1.16.84 1.719 2.539 2.718 3.518-.56-1.679 0-3.098-.14-4.797-.42 1.14-.7 2.838-1.998 1.559z" fill="#715757" fill-rule="evenodd" fill-opacity="1" stroke="none"/><path d="M63.262 115.21c2.458-2.159 6.776-3.298 9.794-4.877 2.458-1.16 7.075-4.757 9.954-3.458-.14 1.44-2.459 2.439-3.318 3.318.86 1.14 4.457 0 2.878 1.72-1 1.138-4.038 1.858-5.477 2.877.44.86 1.44.42 2.159 1-.42.72-1.44.72-2.159 1.16.58.419 3.318.139 3.318.999.14 1.139-2.458.859-3.018.72-2.179-.28-4.177-1-6.196-1.44-1.879-.44-3.758-.14-5.637-.28-1 0-4.757-.16-3.158-1.739zM80.451 78.752c0-.16.14-.3.3-.3 5.757 1.3 12.692-1.019 17.87 2.899-2.02.14-3.878-.58-5.757-.44.86.58 2.018.86 2.598 1.879-2.019 1.299-5.497-3.178-7.515-1.74.44.72 4.917 2.6 3.318 3.759-1.14.86-3.318-1.88-4.038-2.319-1.14-.86-2.738-1.719-4.177-2.299-1.3-.44-3.178-.44-4.338-1.019.16 0 .44 0 .58-.14zM66.02 81.51c2.758-2.478 9.114 2.879 11.873 4.198 2.458 1.3 4.917 2.878 7.375 4.038 1.9.72 3.918 1.599 5.357 3.038-1.879.72-5.497-2.019-7.236-2.739-3.038-1.299-6.076-2.318-8.974-3.777-3.478-1.44-6.796-3.318-10.574-3.178 0-.28.16-.28.3-.58zM79.352 99.92c-5.777 1.878-11.993 4.916-17.19 8.095-1.879 1.159-7.515 6.356-9.834 5.056.44-1.878 4.058-3.318 5.637-4.337 2.758-1.719 5.497-3.758 8.395-5.197 4.337-2.158 8.515-3.178 12.852-4.197z" fill="#ba9999" fill-rule="evenodd" fill-opacity="1" stroke="none"/><path d="M74.555 78.672s10.094-.44 32.44 16.17c22.327 16.77 36.878 19.209 36.878 19.209" fill="none" stroke="#fff" stroke-width=".15990309px" stroke-linecap="round" stroke-linejoin="miter" stroke-miterlimit="8" stroke-dasharray="none" stroke-opacity="1"/><path d="M78.712 78.552s13.712 2.759 25.965 11.713c12.252 8.955 32.42 21.088 39.196 22.667" fill="none" stroke="#fff" stroke-width=".15990309px" stroke-linecap="round" stroke-linejoin="miter" stroke-miterlimit="8" stroke-dasharray="none" stroke-opacity="1"/><path d="M83.35 78.552s16.59 5.357 26.843 12.133c10.374 6.796 32.72 20.648 32.72 20.648" fill="none" stroke="#fff" stroke-width=".15990309px" stroke-linecap="round" stroke-linejoin="miter" stroke-miterlimit="8" stroke-dasharray="none" stroke-opacity="1"/><path d="M136.597 105.096s-25.544-22.726-49.25-26.624M61.043 116.53s40.056-4.618 53.727-9.835M75.354 118.208s30.202-1.279 41.895-7.035M109.334 104.377s-24.925 3.757-37.897 7.915M130.84 95.422s15.691-4.877 18.71-4.717M134.518 98.54s8.395-3.937 10.554-4.797M82.63 97.181s-35.219 8.955-44.613 5.637M92.864 94.303s-46.352-2.159-54.447 1.439M76.873 87.007s-29.901-.3-35.978 3.698M68.319 83.99s-15.371 0-22.867 3.277M40.256 104.776s22.926 0 33.74-2.718M42.654 107.155s10.674.58 17.59-.46" fill="none" stroke="#fff" stroke-width=".15990309px" stroke-linecap="round" stroke-linejoin="miter" stroke-miterlimit="8" stroke-dasharray="none" stroke-opacity="1"/><path d="M160.063 76.094c.44-.58 1.739-.58 2.598-.42-.999 2.299-5.037 4.298-6.915 5.877-3.618 3.018-7.936 2.738-12.573 3.318-2.598.28-5.037.859-7.495 1.439-2.159.42-4.917 1.279-7.076 1.139-4.617-.72-8.655-4.877-12.712-6.896 9.534 1.72 18.928 1 28.303-.86 3.178-.719 6.356-1.299 9.534-2.018 1.879-.42 5.037-.86 6.636-1.859zM109.014 120.587c4.337-.44 8.815-3.758 12.272-5.916 4.178-2.459 8.655-1 12.973 1.019 3.597 1.579 7.355 3.018 11.393 3.738 3.038.58 7.215 2.458 8.654 5.476 1 2.02-1.019 1.46-2.738 1.02-2.878-.58-5.337-1.74-8.075-2.459-4.337-1.14-9.374-1.719-13.852-1.579-6.775.28-13.551.58-20.047-1.02z" fill="#d8948b" fill-rule="evenodd" fill-opacity="1" stroke="none"/><path d="M100.06 79.032s18.208 4.357 24.984 12.872l25.545-4.757-25.105 3.758s-6.796-7.675-25.425-11.873zM151.708 119.068l-26.384-8.215s-16.31 9.794-27.423 11.513c0 0 10.393-.28 27.123-10.494l26.684 7.196z" fill="#e8b2af" fill-rule="evenodd" fill-opacity="1" stroke="none"/><path d="m121.866 88.067 33.76-5.757-35.179 4.637 1.42 1.12zM157.784 77.673l-38.916 8.715-2.658-1.32 41.574-7.395zM120.267 114.13l33.12 9.355-34.539-8.215 1.42-1.14zM113.391 117.649l35.839 7.355-38.777-5.936 2.938-1.42z" fill="#e8b2af" fill-rule="evenodd" fill-opacity="1" stroke="none"/><path d="M101.099 77.973s25.544 1.199 31.32.46c5.617-.76-.439-.3-.439-.3s-25.385 1.938-30.881-.16z" fill="#f7bb91" fill-rule="evenodd" fill-opacity="1" stroke="none"/><path d="M124.145 74.095c.14-.86.86-1.579.3-2.438-.58-.58-3.758-.58-4.498-.72-1.719-.3-4.337-1.739-5.476-.14-.16.42-.74 2.579-.58 3.018.58 1.14 1.879.72 3.038.72 1.879.14 4.038.42 5.917-.14zM127.723 74.715c.16-2.559 2.338-1.84 3.937-1.42 1.6.3 3.498.44 4.937 1.14h-8.435zM111.353 74.135c.28-.72.72-1.859.72-2.718 0-1.42.139-1.28-1.46-1.7-1.16-.16-4.937-1.159-6.116-.719-1.02.56-2.04 4.278-1.02 4.997.74.56 3.498-.14 4.378-.14 1.319 0 2.318.14 3.637.14h-.44zM99.74 68.598c-.14 1.02-1.14 3.918-1.72 4.638-.859.88-2.878.74-4.037.74-1.859 0-5.597.419-7.196-.58.58-1.6 2.319-3.778 3.898-4.358 2.738-.88 6.176 1.3 8.775.3zM82.51 73.715c.44-1.439 1.739-3.318 1.879-4.777-2.159 0-6.376-.3-8.255 1.02-1.16.58-3.338 3.757-3.338 4.917 3.058-.28 5.956-1 8.994-1zM68.179 75.114c.28-1.279 1-2.698 1.419-3.837-1.7 1-6.996 2.998-7.436 5.117 2.299-.42 4.578-1.12 6.876-1.7zM60.243 120.767c1.3 0 3.598 1.459 5.037 1.899 1 .28 2.14.28 2.719 1.019 1 1 1.859 3.478 2.718 4.777-2.438.14-5.297-1.02-7.315-2.019-2.439-1.319-1.86-3.058-2.859-5.236zM71.197 123.405c2.179.58 4.477 1.3 6.796 1.74 1.579.279 3.038 0 4.477.719.14 2.158 2.738 3.018 3.318 4.897.28 1.279.14 1-1.16.86-1.578-.14-3.177-.58-4.756-.72-1.74-.3-3.898-.58-5.197-1.74-1.74-1.279-2.459-3.737-3.478-5.316zM86.068 125.084c2.019 0 4.337.58 6.356.88 1.3.14 2.598.14 3.758.44 2.298.42 2.738 3.617 3.877 5.356-2.878.28-6.776.28-9.514-.3-1.879-.42-3.898-3.617-4.477-5.636zM101.838 127.323c2.719 0 5.297.16 8.035.3.86.999 2.419 2.718 2.419 4.017-2.578-.14-5.157.56-7.735.42-2.859-.28-1.72-2.578-3.298-4.297zM114.17 128.202c1.76-.72 4.658-.42 6.557-.42 1.16 0 2.318.14 3.338.42-.14 1.02.86 1.6.86 2.599-2.32.14-4.798 0-7.116.14-2.619.14-2.899.14-4.078-2.439zM127.863 128.122c1.878.3 5.756.16 7.775 1.02-2.579.42-5.177 1.139-7.775 1-.28-.72-.72-1.3-1.02-1.86zM56.066 119.388c-1.599-.14-2.618-1.3-4.217-1.74.3 2.32 3.777 4.058 5.516 4.478-.58-.72-1.16-2.299-1.299-3.318z" fill="#f6b79b" fill-rule="evenodd" fill-opacity="1" stroke="none"/><path d="M185.807 121.726s10.994.6 17.19-9.194c0 0 6.796 5.476 12.392.44 0 0 6.357 6.036 11.274.12 1.159.28 4.917-.28 5.916-.12 2.319.12 4.597.839 6.916.72 2.039-.16 1.879-1.44 2.159-3.199 5.636-1 10.673.44 10.673-4.038 0-3.597-5.477-2.718-11.073-4.317.28-.84-.16-2.598-.6-2.718-1.999-.72-3.318 0-4.757 0-1.16 0-1.879.12-3.158.12-.72 0-3.478-.56-4.797-.56-.84-.88-6.636-7.076-12.393-.16 0 0-6.915-3.718-11.553.44 0 0-8.514-12.393-15.43-10.514 0 0-8.955-9.074-18.03-13.272 0 0-11.712 3.478-16.47 11.273-2.438 3.878 1.32 10.954.6 17.55-.72 6.196-3.638 9.794-1.599 13.991 4.198 9.355 15.59 13.232 15.59 13.232 3.878-1.559 9.355-4.317 17.15-9.794" fill="none" stroke="#343434" stroke-width="1.0393701px" stroke-linecap="round" stroke-linejoin="round" stroke-miterlimit="10" stroke-dasharray="none" stroke-opacity="1"/><path d="M223.345 96.142c.68 0 1.199.56 1.199 1.199 0 .68-.52 1.2-1.2 1.2-.639 0-1.199-.52-1.199-1.2 0-.64.56-1.2 1.2-1.2zM224.264 112.212c.76 0 1.32.56 1.32 1.24 0 .719-.56 1.238-1.32 1.238-.72 0-1.32-.52-1.32-1.239 0-.68.6-1.239 1.32-1.239z" fill="#393939" fill-rule="evenodd" fill-opacity="1" stroke="none"/><path d="M250.048 104.697s3.278 1.918 0 3.917c0 0 2.12-1.559 0-3.917z" fill="#807977" fill-rule="evenodd" fill-opacity="1" stroke="none"/></svg>