<svg xmlns="http://www.w3.org/2000/svg" version="1.0" viewBox="0 0 189.808 239.849"><defs><clipPath clipPathUnits="userSpaceOnUse" id="a"><path d="M8.555.24H198.12v240.014H8.555z"/></clipPath></defs><path d="M103.497 41.695c8.195.48 13.952 1.519 21.667 7.675 0 0 3.358 0 4.318-8.715 1.439-8.754 1.439-13.871-3.838-19.028-3.358-3.078-8.195-4.637-12.513-4.637-2.878 0-7.195 1.04-9.634 2.598h-.48c-1.918-1.559-6.236-2.598-9.114-2.598-4.837 0-9.634 1.559-12.992 4.637-5.317 5.157-5.317 10.274-3.838 19.028 1.44 8.715 4.797 8.715 4.797 8.715 7.196-6.156 12.993-7.196 21.148-7.675z" fill="#a799c0" fill-rule="evenodd" fill-opacity="1" stroke="none"/><path d="M87.587 18.03c-2.399 1.038-4.797 2.078-6.716 3.597-5.277 5.117-5.277 10.234-3.838 18.908.48 2.08.48 3.598.96 4.598 11.513-8.155 13.432-20.948 9.594-27.104z" fill="#000" fill-rule="evenodd" fill-opacity="1" stroke="none"/><path d="M93.783 17.03c1.48 0 3.878.52 5.797 1-.48-4.078-4.797-7.197-8.195-6.157-2.439 1.04-1.92 3.598-1.44 5.676 1.44-.52 2.399-.52 3.838-.52z" fill="#53446f" fill-rule="evenodd" fill-opacity="1" stroke="none"/><path d="M91.425 11.833h2.878l-.48-.52c-.48-.52-7.675-8.315-12.952-7.795-.96 0-1.44.52-1.44 1.559.48.52.96 1.04 1.44 1.04 3.358-.52 8.155 3.637 10.554 6.236v-.52z" fill="#000" fill-rule="evenodd" fill-opacity="1" stroke="none"/><path d="M86.627 91.345c4.318 8.235 10.074 12.312 16.31 12.312z" fill="#4e4e50" fill-rule="evenodd" fill-opacity="1" stroke="none"/><path d="M80.311 53.408c-4.317-1.56-9.594-5.677-11.992-9.834-.48-1.04-1.92-1.56-2.879-.52-1.439.52-1.439 2.079-.96 3.638.96 1.04 7.676 12.912 14.872 15.47 0-3.078.48-6.196.96-8.754zM78.432 87.667c-7.235 1.04-11.593 1.559-13.991 3.118-.96 1.04-1.48 2.598-.48 3.638.48 1.04 1.92 1.559 2.878.52 1.92-1.04 7.236-1.56 12.073-2.08l7.236-1.558c-.48-1.04-1.44-2.599-1.919-4.678l-5.797 1.04z" fill="#000" fill-rule="evenodd" fill-opacity="1" stroke="none"/><path d="M65.52 40.615c.48-.999.48-1.519 0-2.558 0 0-.48.52-.96.52v-3.598c-.479 0-.959 0-1.438.52-.48-1.56.48-2.599 0-3.598l-.96.48c0-1 0-2.04.48-3.079-.48.52-.96.52-1.44.52.48-.52.48-1.56.96-2.559-.48.52-.96.52-1.439.52.48-.52.48-1.559.48-2.598-1.44 0-.96-1.52-.48-2.559h-1.439c.48-1.04.96-2.078.96-3.078h-1.44c.48-.52.48-2.079.96-2.598-.48.52-.96.52-1.44.52.48-.52.48-2.04.48-2.559 0 0-.48.52-.96.52v-1.56c-.479 0-.479.52-.958 0v-1.518c0 .48-.96.48-1.44.999 0-.52-.48-1.52-.48-2.039-.479.52-.959.52-1.438.52 0-.52-.48-1.04-.48-1.56-.48 0-1 0-1.48.52V9.234c-.479.52-1.438.52-1.438 1.04l-.96-1.04s-.96 0-.96.52c0-.52-.959-2.039-.959-2.039-.96.52-1.439 0-1.439-1.559-.48.52-.96.52-1.439 1.04 0-.52-.48-1.04-.96-1.56 0 .52-.479.52-.959.52 0-.52-.48-1.04-.48-1.519-.48.48-.959.48-1.439 1v-.52c0-.48-.48-1.52 0-2.039-.48.52-.959.52-1.439 1.04-.48-1.04-1.439-3.119-1.959-2.599 0 0 .52 3.118.52 3.598v1.04c3.358 3.597 13.912 8.754 18.27 10.273.479 6.196 2.877 16.99 8.634 27.264.48 0 .48-.48.96-.48.479-.52.959-.52.959-.52 0-.52-.48-1.04-.96-2.079zM64.001 94.423c-.48-.52-.48-1.56-.48-2.079v-.52c-2.878 1.56-5.756 3.078-8.634 4.118-5.757 2.558-10.554 4.637-12.952 7.715-3.398 0-24.026.48-29.822 3.078 0 0-.48 0-.48.48v.52c0 1.04 0 2.078.48 2.558 0-.48.52-.48 1-.48.479 0 .479-.52.958-1.039 0 0 .48.52.48 1.04l1.44-1.56c0 .52.479 1.04.479 1.04.48 0 .96-1.04 1.44-1.04.479 0 .479.52.959 1.04.48 0 .959-1.04 1.439-1.56.48 0 .48 1.04.96 1.04.479 0 .479-.52.959-1.04.48 0 .959.52 1.439.52 1.439 0 1.439-1.039 2.398 0 .96-1.519 1.44-.52 2.878 0 .48-1.519.48-.52 1.44-.52h.959c.48 0 .48-.519.96-.519l.48.52c.479 0 .959-.52.959-.52.48 0 .959.52.959.52.48-.52.48-.52.96-.52s.959-.48 1.439-.48l.48.48c.479 0 .959-.48 1.478-.48.48 0 .96.48 1.44.48s.48-.48.959-.48l.96.48.479-.48c.48 0 .96.48 1.44.48-.48-1 .479-1.52.959-2.558.48.52.959.52.959.52 0-.52 0-1.52.48-1.52.48-.52.96 0 1.439 0 0-.52 0-1.04.48-1.559.48 0 .959 1.04 1.439 1.04 0-1.04.48-1.56.48-2.08.48.52.959.52 1.438.52 0-.52 0-1.519.96-1.519 0 0 .48.52.96 1 0-1 0-1 .479-1.52.48 0 .48.52.96.52 0-2.078 1.439 0 1.918-.52.48-.519 0-1.558.96-1.039.48 0 .96.52 1.439 0 .48-1 0-1.519.96-1 .959 0 .959.48 1.438-.519.48-.52 0-.52.48-.52.48-.52.96 0 1.44-.52.479 0 .479-.519.479-.519 0-.52-.48-.52-.48-1zM82.31 195.921c-.96-1-.96-3.078.96-3.598-1.92.52-1.92-.999-1.44-2.558-2.398.52-2.398 0-1.918-2.558-.48 0-1.44.52-1.92.52-.479-.52-.479-1.04-.959-1.04 0-1 .48-1.52.48-2.039-.96-1.559-1.919-1.04-2.399-1.559v-.48c0-.52 0-1.039.48-2.078-.48 0-.96-.52-1.439 0 0-1.52.48-2.559.48-3.598h-1.44c0-.48.48-2.039.48-2.559-.48-1-1.439 0-1.918-.52h-.48c0-.999-.48-1.518-.48-2.038 0-.52.48-1.52.48-2.559h-1.44v-1.039c0-1 .48-2.039-.959-2.039v-1.04c0-.998.48-1.518.48-2.558h-.96c0-1.039.48-2.038.48-2.558-2.878.52-.48-1.559-1.439-2.558 0-.52 0-.52-.48-.52 0-1.56-.48-2.559-.48-3.598h-1.438c0-.52-.48-1.04-.48-1.559-.96 9.274 7.196 30.821 11.513 37.457.48 2.079 2.878 6.676.48 10.794l-.48.52-16.31 20.507c-.96 1.56-1.44 3.598-.96 3.598.96 1.04 1.44 1.559 2.399 2.039 0-1-.48-2.559 0-3.558.96 0 1.919.48 2.398 0-.48-1.56 0-3.598 2.399-2.599 0-.48-.48-1.519 0-2.038.48-.52.96 0 1.44-.52.959-.52 0-1.52.479-2.039.96-1.04 1.439-1.04 2.398-1.04 0-3.597.48-2.558 3.358-3.077-1.439-2.559 1.44-3.079 2.879-3.598-.48-2.039.48-3.558 2.878-3.558-.48-1.56 0-3.078 1.919-3.078-.48-1.04-.48-2.599.96-2.599-.96-.999-1.44-2.558 0-3.078zM119.288 18.03c2.438 1.038 4.397 2.078 6.316 3.597 5.317 5.117 5.317 10.234 3.878 18.908 0 2.08-.48 3.598-.96 4.598-11.153-8.155-13.112-20.948-9.234-27.104z" fill="#000" fill-rule="evenodd" fill-opacity="1" stroke="none"/><path d="M113.131 17.03c-1.958 0-3.917.52-6.356 1 .52-4.078 4.877-7.197 8.275-6.157 2.919 1.04 2.439 3.598 1.48 5.676-.96-.52-2.44-.52-3.399-.52z" fill="#53446f" fill-rule="evenodd" fill-opacity="1" stroke="none"/><path d="M115.01 11.833h-2.398s0-.52.48-.52c0-.52 7.635-8.315 12.912-7.795.48 0 .92.52.92 1.559 0 .52-.44 1.04-1.4 1.04-2.878-.52-8.115 3.637-10.034 6.236-.48 0-.48-.52-.48-.52z" fill="#000" fill-rule="evenodd" fill-opacity="1" stroke="none"/><path d="M120.287 91.345c-4.317 8.235-10.593 12.312-16.87 12.312z" fill="#4e4e50" fill-rule="evenodd" fill-opacity="1" stroke="none"/><path d="M124.604 101.618c-1.918-6.156-3.837-9.234-4.317-10.273 3.358-5.637 5.757-13.352 6.716-23.106.48-7.676-.96-16.43-1.919-18.989-7.675-6.156-13.432-7.195-21.627-7.715h-.48c-8.154.52-13.911 1.559-21.107 7.715-1.439 2.559-2.878 11.313-1.918 18.989.959 9.754 3.358 17.47 6.715 23.106-.959 1.039-2.398 4.117-4.317 10.273-5.277 15.391-12.033 38.497-6.716 55.407 5.277 16.95 15.83 34.899 27.344 34.899 11.553 0 22.586-17.95 27.863-34.9 5.276-16.909-1.44-40.015-6.237-55.406z" fill="#a799c0" fill-rule="evenodd" fill-opacity="1" stroke="none"/><path d="M126.124 53.408c4.317-1.56 10.073-5.677 11.992-9.834.48-1.04 1.92-1.56 3.358-.52.96.52 1.44 2.079.48 3.638-.48 1.04-7.675 12.912-14.871 15.47 0-3.078-.48-6.196-.96-8.754z" fill="#4e4e50" fill-rule="evenodd" fill-opacity="1" stroke="none"/><path d="M122.726 86.627c-.96 2.08-1.44 3.638-2.439 4.678l7.236 1.559c4.837.52 10.593 1.04 12.032 2.078.96 1.04 2.399.52 3.358-.52.48-1.039.48-2.598-.48-3.637-2.398-1.56-7.195-2.079-14.43-3.118l-5.277-1.04zM140.915 40.615c0-.999-.48-1.519 0-2.558.48 0 .959.52.959.52.48 0 .48-.52.48-.52v-3.078c.48 0 .48 0 .96.52.479-1.56 0-2.599 0-3.598.479 0 .959.48 1.438.48 0-1-.48-2.04-.48-3.079.48.52.48.52.96.52-.48-.52-.48-1.56-.96-2.559.48.52.96.52 1.44.52 0-.52 0-1.559-.48-2.598 1.44 0 1.44-1.52.48-2.559h1.439c-.48-1.04-.48-2.078-.48-3.078h.96c0-.52-.48-2.079-.48-2.598 0 .52.96.52.96.52 0-.52 0-2.04-.48-2.559.48 0 .959.52.959.52l.48-.52v-1.04s.48.52.48 0v-1.518c.48.48 1.438.48 1.438.999 0-.52.48-1.52.96-2.039 0 .52.96.52.96.52 0-.52.479-1.04.479-1.56.48 0 .96 0 1.44.52 0-.52.479-1.039 0-1.559.479.52 1.438.52 1.918 1.04 0-.52.48-.52.48-1.04.48 0 .96 0 1.439.52 0-.52.48-2.039.48-2.039.959.52 1.439 0 1.918-1.559 0 .52.96.52.96 1.04.48-.52.96-1.04.96-1.56.479.52.959.52.959.52.48-.52.48-1.04.96-1.519 0 .48.958.48.958 1v-.52c.48-.48.48-1.52.48-2.039l.96 1.04c.959-1.04 1.918-3.119 1.918-2.599.48 0 0 3.118 0 3.598 0 .52 0 .52-.48 1.04-3.357 3.597-13.431 8.754-17.749 10.273-.959 6.196-2.878 16.99-9.114 27.264l-.48-.48c-.48-.52-.96-.52-1.439-.52.48-.52.48-1.04.96-2.079z" fill="#000" fill-rule="evenodd" fill-opacity="1" stroke="none"/><path d="M142.913 94.423c.48-.52.48-1.56 0-2.079v-.52c2.879 1.56 5.757 3.078 8.635 4.118 5.757 2.558 10.554 4.637 12.952 7.715 3.838 0 23.986.48 29.742 3.078.48 0 .48 0 .96.48v.52c0 1.04-.48 2.078-.48 2.558-.48-.48-.96-.48-.96-.48-.48 0-.959-.52-.959-1.039-.48 0-.48.52-.96 1.04-.479-.52-.479-1.04-.959-1.56-.48.52-.48 1.04-.96 1.04 0 0-.479-1.04-.959-1.04s-.48.52-.959 1.04c-.48 0-.96-1.04-1.919-1.56-.48 0-.48 1.04-.48 1.04-.48 0-.959-.52-1.439-1.04-.48 0-.959.52-1.439.52-.96 0-.96-1.039-2.398 0-.96-1.519-1.44-.52-2.399 0-.48-1.519-.96-.52-1.439-.52h-1.44s-.479-.519-.959-.519c0 0 0 .52-.48.52 0 0-.479-.52-.959-.52s-.48.52-.96.52c-.479-.52-.479-.52-.958-.52-.48 0-.48-.48-.96-.48s-.48.48-.96.48c-.479 0-.959-.48-1.438-.48-.48 0-.96.48-1.44.48l-.48-.48c-.479 0-1.438.48-1.438.48 0-.48 0-.48-.48-.48s-.48.48-.96.48c0-1-.48-1.52-1.439-2.558 0 .52-.48.52-.96.52 0-.52 0-1.52-.479-1.52-.48-.52-.48 0-.96 0 0-.52-.479-1.04-.959-1.559l-.959 1.04c0-1.04-.48-1.56-.96-2.08-.48.52-.48.52-.959.52 0-.52-.48-1.519-.96-1.519-.479 0-.959.52-.959 1-.48-1-.48-1-.96-1.52-.479 0-.479.52-.959.52.48-2.078-1.439 0-1.918-.52-.48-.519 0-1.558-.96-1.039-.48 0-.48.52-.96 0-.959-1-.479-1.519-1.438-1-.96 0-.48.48-.96-.519-.48-.52-.48-.52-.96-.52-.479-.52-.959 0-.959-.52-.48 0-.959-.519-.959-.519.48-.52.48-.52.96-1zM124.085 195.921c1.439-1 .96-3.078-.52-3.598 1.48.52 1.48-.999 1-2.558 2.398.52 2.878 0 1.918-2.558.48 0 1.44.52 2.399.52 0-.52.48-1.04.48-1.04 0-1-.48-1.52 0-2.039.48-1.559 1.439-1.04 1.918-1.559 0-.48 0-.48.48-.48 0-.52-.48-1.039-.48-2.078 0 0 .48-.52.96 0 .48-1.52-.48-2.559-.48-3.598h1.919c0-.48-.96-2.039-.48-2.559.48-1 .96 0 1.92-.52 0-.999.479-1.518.479-2.038 0-.52 0-1.52-.48-2.559h1.44s.519-.52.519-1.039c-.52-1-1-2.039.48-2.039 0-.52.48-.52.48-1.04-.48-.998-.96-1.518-.96-2.558h1.44c0-1.039-.48-2.038-.96-2.558 2.878.52.96-1.559 1.439-2.558 0-.52.48-.52.96-.52v-3.598h1.438c.48-.52.48-1.04.96-1.559.96 9.274-6.756 31.82-11.553 39.016-2.399 4.118-1.92 7.196 0 9.754 1.919 2.559 17.31 22.067 17.31 22.067 1.438 1.52.479 2.039-.48 2.039-.48 1.04-1.44 1.559-1.92 2.039 0-1 0-2.559-.479-3.558-.48 0-1.44.48-2.399 0 .48-1.56 0-3.598-1.918-2.599v-2.038c-.96-.52-1.44 0-1.92-.52-.479-.52 0-1.52-.479-2.039-.48-1.04-1.44-1.04-2.438-1.04 0-3.597-.48-2.558-2.879-3.077 1.44-2.559-1.439-3.079-3.358-3.598.48-2.039-.48-3.558-2.878-3.558.96-1.56 0-3.078-1.44-3.078.48-1.04.48-2.599-.958-2.599.48-.999.959-2.558-.48-3.078z" fill="#000" fill-rule="evenodd" fill-opacity="1" stroke="none"/><path d="m130.92 127.723-1.438-8.235c0 1.039 0 2.078-.48 3.118-2.878.48-4.797 2.558-6.716 3.598-2.399.999-9.634 2.558-11.073.999-.96 1.559-2.879 2.079-3.838 1.04-1.919 1.518-3.838 2.558-6.276 2.038-.48 0-1.92-.52-1.92-.52-.959 0-1.438.52-1.918.52-.96 0-.96-.52-1.919-1-.96 0-.96.48-1.919 0-1.439-.519-2.398-2.078-2.878-3.077-.48.48-1.959 2.038-2.438 2.038-1.92 0-.96-1.559-1.92-2.038-1.438-.52-2.398 1.519-3.357-1.56-1.44.52-2.399-.52-2.399-1.559-1.439.52-1.919-.48-2.398-2.038h-.96v-1.56c-.96 2.599-1.439 5.677-1.959 8.236h.52c0 1.039.48 2.038.96 3.078 0 2.558 1.439 4.637 3.837 6.676 1.92 1.559 1.92 2.598 4.318 3.078 1.918.52 3.837.52 6.276 1.04 1.919.519 2.878 0 4.797 0 .96 0 2.878 1.039 3.358 1.039.96-.52 1.439-1.56 1.919-1.56s.96 1.04 1.439 1.56c1 .52 1.959-1.04 2.438.999 2.399-2.039 3.358-2.039 6.716-2.039 3.358-.52 6.756-2.039 10.114-2.558 1.919-.52 1.44-.52 2.878-2.559v-.52c3.838-2.078 6.237-5.156 6.237-8.234zM132.76 143.633c0 1.559-.96 3.078-1.92 4.637 0-.52-.479-1.04-.959-1.559-.48 3.078-3.358 3.598-5.756 4.637-2.399 1-7.716 3.558-9.634 2.559-.48 1-1.92 1.519-2.399.48-1.44 2.078-2.398 2.078-4.317 1.558-1.44-.52-4.837-2.038-5.317-3.078-1.44.52-3.358.52-4.317-.52-1.44 1.56-4.798 2.04-5.757 0-.96 1.04-2.878 1.04-3.878 0-.96 1.04-2.398 0-2.878-.999-.48 1.52-1.439.48-2.398 0-.48-.52-.96-1.559-1.44-2.078-.48-.48-1.439-.48-1.439-.48-.96-1.04-1.439-2.079-2.398-2.559-1.44-1.039-2.399 1-3.838-1.039l.96 2.039c-.96-1-.96-2.559-.96-3.598h-.52c0 4.637 1 9.234 1.96 13.312.959 1.04 1.918 2.079 3.357 2.598.48 1.52 1.44 2.04 2.399 3.038l1.439 1.56c0 .52 1.439 0 1.919.52.48 0 1.439 1.518 2.398 2.038.48.52 1.44 0 1.959 0 .96 1 1.919 2.039 1.919 3.558 0-2.039 1.919-2.039 2.878-2.559.96 0 3.358-.999 3.838-.999 1.439 0 1.919 1 2.398 1.519 1.44 0 1.44-1 2.879-1 .999-.519 1.479 1 2.438 1 1.44 0 2.878-2.558 3.358.52 1.919-2.039 1.919-1.04 3.838-1.04 1.919-.48 3.358-3.038 4.797-.999.96-1.04 1.959-2.039 2.918-1.56 1.919-2.558 4.317-3.037 6.236-4.596 1.92-1 3.358-2.04 4.318-3.598.96-3.038 1.439-6.636 1.919-9.714v-3.598z" fill="#53446f" fill-rule="evenodd" fill-opacity="1" stroke="none"/><path clip-path="url(#a)" d="M185.208 146.671c-7.716-19.508-35.099-44.613-40.376-53.847-5.277-9.754-14.431-8.755-18.269-18.509l-.48.52c-1.439 6.676-3.357 11.832-5.756 16.43l1.44 2.558c1.918-1 5.756 5.157 5.756 5.157-.48.48-.96 1.52-1.44 2.558-.48.52-.48 1-.959 1.52-8.675 15.91-9.154 32.34-2.878 56.445.48 3.078 1.919 6.676 3.838 10.274 0 .52.48 1.52.959 2.559.48 1.039.96 1.519 1.44 2.558v.52c.479.52.959 1.519 1.438 2.558.48 1.04.96 2.039 1.44 2.559 2.878 5.156 5.756 9.754 9.154 14.39 0 .52 0 .52.48 1 .48.52.959 1.56 1.439 2.079 0 .52.48.52.48 1 .48.52.959 1.039 1.439 2.078.48 0 .48.52.959 1 .48.52.96 1.039 1.44 2.078 0 0 .479.52.479 1 .48.52 1.439 1.039 1.919 2.078l.48.52c.479 1 .959 1.52 1.438 2.039l.48.52c.96 1.519 2.399 2.558 3.358 4.077l.96 1.04 1.439 1.558c0 .48.48 1 .96 1.52.479 0 .959.52 1.438 1.039 0 .52.48 1 .96 1.519.48.52.999.52 1.479 1.04 0 .52.48 1.039.96 1.518.479 0 .959.52 1.438 1.04 0 .52.48 1.04.96 1.04.48.519.96.999.96.999l1.438 1.559c.48.52.96.52.96 1.039.96.48 1.439 1 1.918 1 0 .52.48.52.48.52.96 1.038 1.44 1.558 2.399 2.038l.48.52c.48.52.959.52 1.439 1.039.48 0 .959.52.959.52.48.52.96.52 1.44.999 0 0 .479 0 .959.52 0 0 .48.52.959.52.48 0 .48.52.96.52s.959.519.959.519h.96c.479.52.999.52.999.52.48 0 .48 0 .959.48H188.086c17.27-1.52 4.797-72.837-2.878-92.345zM80.391 101.538c-.48-1.039-.96-2.078-1.439-2.558 0 0 3.838-6.156 5.757-5.157l1.439-2.558c-2.399-4.598-4.318-10.274-5.757-16.95-4.357 9.754-13.472 8.755-18.748 18.509-5.317 9.234-32.74 34.339-40.416 53.847C13.512 166.18 1 237.496 18.83 239.015h3.358c0-.48.48-.48.48-.48.479 0 .959 0 1.438-.52h.48c.48 0 .96-.519 1.44-.519l.479-.52c.48 0 .96-.52 1.44-.52 0-.519.479-.519.958-.519.48-.48.48-.48.96-1 .48 0 .96-.52.96-.52.479-.519.999-.519 1.478-1.038.48 0 .48-.52.96-.52.48-.48 1.439-1 1.919-1.52l.96-1.039c.479-.52.959-.52 1.438-.999l.96-1.04 1.439-1.558c.48 0 .48-.48.96-1 .479 0 .959-.52 1.438-1.04l.96-1.039c.48-.48.96-.999 1.439-1.519.48-.52.96-.52.96-1.039.479-.52.999-1 1.478-1.52.48-.519.96-.519.96-1.038.48-.52.96-1.04 1.439-1.52.48-.52.96-1.039.96-1.559.48 0 .959-.52.959-1.039.96-1 2.398-2.558 3.358-3.558 0-.52.48-.52.48-1.04l1.439-1.558c.48-.48.48-1 .959-1 .48-1.039.96-1.559 1.44-2.078 0-.48.479-.48.959-1s.959-1.559 1.479-2.078c0-.48.48-.48.48-1 .48-.52.959-1.559 1.438-2.079.48-.48.48-.48.96-.999.48-.52.96-1.56 1.439-2.079 0-.48 0-.48.48-1 2.878-4.636 5.756-9.234 8.635-13.87v-.52c.48-.52.959-1.52 1.479-2.04 0-.519 0-.519.48-.519 0-1.04.479-1.519.959-2.558l.48-.52c.48-1.04.48-1.52.959-2.558.48-1.04.96-1.56 1.439-2.559 1.44-3.598 2.878-7.196 3.838-10.274 6.236-25.144 5.756-42.054-4.318-57.965z" fill="#e4e0ec" fill-rule="evenodd" fill-opacity="1" stroke="none"/><path d="M84.229 78.992c-1.919-6.636-1.919-14.83-.96-20.467.48-6.157 2.879-8.715 8.156-10.794 5.276-2.558 11.513-3.078 17.27-2.558 3.837 0 11.032 2.078 11.032 7.195-7.195 1.52-15.83 1-21.107 7.156-4.797 4.637-6.716 11.273-5.756 17.949.48 2.558 5.756 14.831.48 14.351-3.838-.52-7.676-8.195-8.156-11.793z" fill="#cec6dc" fill-rule="evenodd" fill-opacity="1" stroke="none"/><path d="M105.416 46.652c-5.277 2.078-11.553.52-16.35 5.157-4.317 3.557-5.317 10.753-3.358 16.35 1.919-5.597 0-12.793 6.716-14.312 2.399-.52 4.357-1.559 6.276-3.078 1.44-1.519 3.358-1.519 4.797-3.078zM108.734 47.211c-1-.56-2.998 1.04-1.479 2.12 1 .519 2.478-.52 1.999-1.6zM83.19 24.185c-2.399 1.52-1.92 3.998.959 3.518.48-1.519.48-2.518-.96-2.998zM85.268 22.986c-.48 0-.96 1.08-.96 1.64 1.4.519 2.32-.56 1.4-1.64zM82.79 29.862c-.48.52-.48 1.04 0 1.519.48-.48.48-1 .48-1.52zM120.287 23.706c-.52.999-1.04 1.479-1.04 2.478 1.52.96 3.039-1 1.52-1.959zM120.287 20.987c-1 0-1.519.52-1.519 1.52h1.52v-1zM120.767 28.183v1.679c.48-.56.48-.56.96-.56 0-.56-.48-.56-.48-.56z" fill="#fff" fill-rule="evenodd" fill-opacity="1" stroke="none"/><path d="M115.49 19.588c-1.919 2.039-1.44 7.675-.96 10.194.96 3.598 3.359 5.637 4.798 9.234.96 2.519-.48 2.04-2.879 2.04-1.918-.52-6.716-1.04-7.675-2.56-1.919-2.038-.96-7.675-1.919-10.233-.96-2.559-2.398-5.117-4.317-5.597-2.399-1.04-9.115 0-10.074-1.559 2.399-2.039 5.277-2.039 8.635-1 1.439.48 3.358 1.52 5.277 1 .48 0 1.439-1 1.918-1.519 2.879-1.559 5.757-.52 7.196 0z" fill="#cec6dc" fill-rule="evenodd" fill-opacity="1" stroke="none"/><path d="M110.213 21.107c-5.277-.52-.96 13.312 0 15.87 0-4.597-1.919-8.194-.96-12.792.48-1.559.96-2.038 1.92-3.078 0 0 .959 0 .959-.52 0-1.039-.96-.52-1.44-.52zM113.091 19.548v.96c.88 0 .44 0 .88-.48 0-.48-.44 0-.44 0z" fill="#fff" fill-rule="evenodd" fill-opacity="1" stroke="none"/><path d="M84.789 104.737c-.48-8.755 7.195-1.04 10.074.999 1.918 1.04 4.757 2.079 7.155 2.079 2.878 0 5.277-1.56 8.635-2.08 4.277-.479.48 4.638-1.919 5.677-4.797 2.04-9.114 0-12.432 4.598-1.92 2.558-2.399 5.636-5.757 2.558-1.439-2.039-2.878-7.156-3.358-9.754z" fill="#cec6dc" fill-rule="evenodd" fill-opacity="1" stroke="none"/><path d="M88.546 105.656c-.96 1.559.96 6.676 1.92 7.675 0-1.519-1.44-3.558 0-4.597 1.398-1 2.358 1.04 3.277-.52-.44-.999-1.399-1.519-2.838-2.038zM94.783 109.813c1.878.48 2.318-1.998.48-.999zM67.879 45.133h-1.4c-.479 1.599.96 3.198 1.88 4.237-1.4-1.559 0-2.638.919-2.119zM133.719 50.81c.96-1.52 5.277-9.275 6.716-4.638-1.44-.48-2.399 0-2.878 1.04zM45.772 101.099c2.439-2.599 5.837-3.638 8.715-4.158zM108.774 15.39c.96-1.998 3.318-3.517 5.197-1.998-1.4 0-2.798.52-3.278 1.519zM90.905 14.831c-1.48-2.958 2.918-1.959 4.357-.48-.96-1-1.919-.48-2.918 0zM80.311 4.637c.52-1.08 2.479-.52 2 .56-.48.52-.48 0-.48 0zM125.644 4.197c-.52 0-1.04 0-1.04.48.52.48 1.52.48 1.52 0s0 0-.48-.48zM56.886 125.644c.48 1.559 1.439 2.079 1.439 4.117 0 2.08-1.92 5.637-2.399 8.235-1.439 5.637-2.398 12.313-3.358 18.47-1.959 7.195-4.357 13.87-6.756 21.066-1.439 4.598-3.398 9.235-4.357 13.832a83.985 83.985 0 0 0-1.44 15.43c-.479 7.676.48 13.353-5.796 18.47-6.756 5.116-2.878-12.833-2.398-14.872 2.398-8.754 1.919-17.989 5.316-26.184 2.879-6.196 5.757-12.832 8.196-19.508 1.918-4.637 2.398-10.274 3.357-15.43.96-5.637 3.398-10.754 5.797-15.91zM67.36 127.763c-3.838 5.636-5.757 14.35-7.196 20.507-2.439 7.715-2.919 16.43-4.358 24.106-.96 3.597-1.919 6.675-2.878 10.273-1.44 3.078-1.44 6.676-1.919 10.274-1.439 6.156-4.837 12.832-2.878 19.468.48-7.675 8.635-11.793 12.033-16.91 1.918-2.558.959-4.117.48-6.675-.96-5.637 0-11.274.479-16.91.48-5.157.48-10.274 1.44-15.39.479-4.638 2.398-9.235 2.877-13.872.48-6.676 1.44-13.872 3.358-20.028zM75.954 104.617c0 5.676-1.44 11.832-1.44 17.469-.479 5.157-.479 10.793-1.438 15.91-.48 5.157-1.48 7.716 0 12.833 1.439 5.156 1.439 11.313 3.358 15.91 3.398-8.195 5.796-16.91 7.715-25.665.96-5.116 0-10.273-.48-15.39-.48-5.637-2.878-10.794-3.837-16.43zM68.279 160.583c1.439 3.637-.48 9.794-.48 13.911 0 3.598-.52 7.716.48 10.794 1.439-2.04 3.398-4.598 4.357-7.196.96-3.078-.96-7.196-1.44-10.793zM13.992 202.157c.48 8.196-1.48 16.43 2.398 24.106 1.44 3.078 3.358 4.597 4.317 1.04 1.44-5.637 1.44-12.313 1.92-17.47.959-5.117 1.438-10.754 3.397-15.35 1.44-4.118 3.838-8.236 5.757-12.313 3.358-7.716 3.837-15.391 6.236-23.106-2.878 5.156-5.277 10.273-8.155 15.91-3.838 7.196-9.634 12.832-12.992 20.508zM42.334 120.647c0 2.039-1.918 4.077-3.358 5.636-1.439 2.559-3.358 4.598-5.316 7.156-2.399 4.118-4.318 5.637-6.716 9.754-2.399 4.597-6.237 14.871-6.716 19.468-.48 4.118-3.878 12.833-2.879 16.39 1.44-.999 5.757-10.233 6.716-11.752 1.44-2.599 2.879-4.638 4.318-6.676 2.878-5.637 4.317-11.793 6.756-17.43.96-3.078 2.878-5.636 3.837-8.715 1.44-2.558 1.92-5.116 3.838-7.675 2.399-4.117 5.757-7.195 8.155-11.313-1.919 2.079-4.317 4.118-6.716 5.157zM52.488 108.294c3.838-2.558 5.757-7.195 9.554-10.273 2.879-2.04 5.237-4.118 4.797-7.716-1.918 3.118-5.756 5.677-6.715 9.275zM78.952 80.95c-1.439 1.04-5.317 3.639-5.796 5.158-.52 1.04 0 5.676.48 6.676 2.918-2.559 1.918-7.196 5.316-9.754z" fill="#fff" fill-rule="evenodd" fill-opacity="1" stroke="none"/><path d="M81.39 86.627c-1.478 3.638-3.957 7.236-3.957 11.354 1.999-3.079 3.958-5.157 6.876-6.676-.48-1.04-1.44-2.08-1.44-3.118z" fill="#c1c2c2" fill-rule="evenodd" fill-opacity="1" stroke="none"/><path d="M149.63 125.644c-.96 1.559-1.44 2.079-1.44 4.117-.48 2.08 1.919 5.637 2.399 8.235 1.439 5.637 1.919 12.313 3.358 18.47 1.439 7.195 3.837 13.87 6.236 21.066 1.44 4.598 3.838 9.235 4.797 13.832.96 5.157.96 10.274 1.44 15.43 0 7.676-.48 13.353 5.756 18.47 6.236 5.116 2.398-12.833 1.918-14.872-1.918-8.754-1.439-17.989-5.276-26.184-2.879-6.196-5.757-12.832-8.155-19.508-1.92-4.637-2.399-10.274-3.358-15.43-.96-5.637-2.879-10.754-5.277-15.91zM139.036 127.763c3.358 5.636 5.277 14.35 7.195 20.507 1.92 7.715 2.919 16.43 4.358 24.106.48 3.597 1.439 6.675 2.878 10.273.96 3.078.96 6.676 1.919 10.274.96 6.156 4.317 12.832 2.878 19.468-.48-7.675-8.635-11.793-12.512-16.91-1.44-2.558-.48-4.117 0-6.675.48-5.637 0-11.274-.48-16.91-.48-5.157-.48-10.274-1.44-15.39-.959-4.638-2.877-9.235-3.357-13.872-.48-6.676-1.44-13.872-2.918-20.028zM129.961 104.617c0 5.676 1.44 11.832 1.92 17.469 0 5.157.479 10.793.958 15.91.96 5.157 1.44 7.716 0 12.833-.959 5.156-1.439 11.313-3.357 15.91-2.919-8.195-5.317-16.91-7.236-25.665-1.48-5.116-.48-10.273 0-15.39.48-5.637 3.358-10.794 3.838-16.43zM137.637 160.583c-.96 3.637.959 9.794.959 13.911 0 3.598 0 7.716-.96 10.794-.959-2.04-3.397-4.598-3.877-7.196-1.48-3.078.48-7.196 1.44-10.793zM192.004 202.157c0 8.196 1.918 16.43-1.92 24.106-1.438 3.078-3.837 4.597-4.796 1.04-1.44-5.637-.96-12.313-1.92-17.47-.479-5.117-1.438-10.754-2.917-15.35-1.92-4.118-3.838-8.236-5.757-12.313-3.358-7.716-3.838-15.391-6.756-23.106 2.918 5.156 5.317 10.273 8.195 15.91 3.838 7.196 10.114 12.832 13.472 20.508zM163.58 120.647c.52 2.039 2.44 4.077 3.399 5.636 1.919 2.559 3.358 4.598 5.277 7.156 2.918 4.118 4.357 5.637 6.756 9.754 2.398 4.597 6.276 14.871 6.755 19.468.48 4.118 4.318 12.833 2.879 16.39-1.44-.999-5.757-10.233-6.716-11.752-1-2.599-2.918-4.638-3.878-6.676-3.358-5.637-4.797-11.793-6.756-17.43-1.439-3.078-2.878-5.636-4.317-8.715-.96-2.558-1.919-5.116-3.398-7.675-2.878-4.117-5.757-7.195-8.675-11.313 1.959 2.079 4.357 4.118 6.756 5.157zM153.387 108.294c-3.798-2.558-5.716-7.195-9.514-10.273-2.399-2.04-4.797-4.118-4.797-7.716 2.398 3.118 5.756 5.677 6.716 9.275zM127.443 80.95c.96 1.04 4.837 3.639 5.796 5.158.48 1.04-.48 5.676-.96 6.676-2.438-2.559-1.958-7.196-5.356-9.754z" fill="#fff" fill-rule="evenodd" fill-opacity="1" stroke="none"/><path d="M125.084 86.627c.96 3.638 3.838 7.236 3.358 11.354-1.439-3.079-3.358-5.157-6.716-6.676.48-1.04 1.44-2.08 1.44-3.118z" fill="#c1c2c2" fill-rule="evenodd" fill-opacity="1" stroke="none"/><path d="M74.195 138.956c-5.317.52-8.675 7.795-9.634 10.913-.52 1.04-.52 2.599.48 3.638 1.439.48 2.878 0 3.358-1.04.48-.52 2.918-2.078 5.796-3.118v-10.393" fill="none" stroke="#9a9b9d" stroke-width="1.0393701px" stroke-linecap="round" stroke-linejoin="round" stroke-miterlimit="4" stroke-dasharray="none" stroke-opacity="1"/><path d="M74.675 178.532v-1.52h-1.44c0-.519.48-2.078.48-2.558-.48-1.04-1.439 0-1.958-.52h-.48c0-1.039-.48-1.558-.48-2.078 0-.52.48-1.52.48-2.559h-1.44v-1.039c0-1 .48-2.039-.999-2.039v-1.04c0-.999.52-1.518.52-2.558h-1c0-1.039.48-2.038.48-2.558-2.918.52-.48-1.56-1.439-2.558 0-.52 0-.52-.48-.52 0-1.56-.48-2.559-.48-3.598h-1.478c0-.52-.48-1.04-.48-1.559-1 6.676 3.398 20.028 7.276 29.262M78.472 87.707c-7.235 1.04-11.593 1.559-13.991 3.118-.96 1.04-1.48 2.598-.48 3.638.48 1.04 1.919 1.559 2.878.52 1.92-1.04 7.236-1.56 12.073-2.08l7.236-1.558c-.48-1.04-1.44-2.599-1.92-4.678l-5.796 1.04z" fill="none" stroke="#9a9b9d" stroke-width="1.0393701px" stroke-linecap="round" stroke-linejoin="round" stroke-miterlimit="4" stroke-dasharray="none" stroke-opacity="1"/><path d="M61.163 97.54c.48 0 .48 0 .96-.479.48-.52 0-.52.48-.52.479-.52.958 0 1.438-.52.48 0 .48-.519.48-.519 0-.52-.48-.52-.48-1.04-.48-.519-.48-1.558-.48-2.078v-.52M79.432 166.779c-1.44-3.078-2.878-6.676-3.798-9.754-4.317-14.911 0-34.939 4.717-50.37M141.994 149.87c.48-3.599-4.317-12.353-9.155-9.235 0 2.039 0 6.156-.52 8.754 2.919 1 5.358 2.559 5.837 3.079.96 1.039 2.399 1.519 3.358 1.039.96-1.04.48-2.079.48-3.638" fill="none" stroke="#9a9b9d" stroke-width="1.0393701px" stroke-linecap="round" stroke-linejoin="round" stroke-miterlimit="4" stroke-dasharray="none" stroke-opacity="1"/><path d="M132.28 178.572c0-.52-.52-1.04-.52-1.56h1.959c0-.519-.96-2.038-.48-2.558.48-1.04.96 0 1.96-.52 0 0 0 0 0 0 0-1.039.479-1.558.479-2.038 0-.52 0-1.56-.48-2.599h1.44s.479-.52.479-.999c-.48-1.04-.96-2.079.52-2.079 0-.52.48-.52.48-1-.48-1.038-1-1.558-1-2.598h1.479c0-.999-.48-2.038-.96-2.558 2.919.52.96-1.56 1.44-2.558 0-.52.48-.52.96-.52v-3.598h1.478c.48-.52.48-1.04.96-1.559.48 6.676-3.398 20.548-7.276 30.302M122.766 86.667c-.96 2.08-1.44 3.638-2.439 4.678l7.236 1.559c4.837.52 10.593 1.04 12.032 2.078.96 1.04 2.399.52 3.358-.52.48-1.039.48-2.598-.48-3.637-2.398-1.56-7.195-2.079-14.43-3.118l-5.277-1.04z" fill="none" stroke="#9a9b9d" stroke-width="1.0393701px" stroke-linecap="round" stroke-linejoin="round" stroke-miterlimit="4" stroke-dasharray="none" stroke-opacity="1"/><path clip-path="url(#a)" d="M80.431 74.355c-4.357 9.754-13.472 8.755-18.788 18.469-5.277 9.234-32.7 34.379-40.376 53.887-7.715 19.508-20.228 90.785-2.398 92.344 17.31 1.52 58.684-53.368 65.88-79.512 6.716-26.184 5.276-43.613-5.757-60.563 0 0 3.838-6.156 5.757-5.117" fill="none" stroke="#000" stroke-width="1.0393701px" stroke-linecap="round" stroke-linejoin="round" stroke-miterlimit="4" stroke-dasharray="none" stroke-opacity="1"/><path d="M69.798 93.383c-4.318 12.833-14.871 22.587-21.108 33.86-8.195 13.832-13.471 28.702-22.106 42.534-5.757 9.754-11.513 16.39-15.87 27.144" fill="none" stroke="#000" stroke-width="1.0393701px" stroke-linecap="round" stroke-linejoin="round" stroke-miterlimit="4" stroke-dasharray="none" stroke-opacity="1"/><path d="M63.482 105.696c-5.277 11.313-8.635 19.508-13.912 30.821-6.276 13.872-8.195 29.263-13.472 43.094-4.797 12.872-8.635 26.704-10.074 40.576-.52 6.156 0 11.792-1 17.429M64.52 196.92c1-7.155 1-19.468 1.48-27.143.48-11.793 2.399-23.546 4.797-35.338 1.919-12.313 1.919-25.105 4.357-37.418 1.44-7.155 5.277-12.792 7.676-14.351" fill="none" stroke="#000" stroke-width="1.0393701px" stroke-linecap="round" stroke-linejoin="round" stroke-miterlimit="4" stroke-dasharray="none" stroke-opacity="1"/><path d="M69.318 142.154c1.44 8.715 2.878 16.91 4.797 25.584.96 3.078 2.399 6.157 2.399 9.195M41.975 224.744c-.48-15.39 3.837-32.3 8.634-47.691 4.797-13.872 5.277-28.743 9.075-43.094 3.358-11.833 9.594-22.587 11.033-34.38.48-3.597.92-14.39-.48-14.91" fill="none" stroke="#000" stroke-width="1.0393701px" stroke-linecap="round" stroke-linejoin="round" stroke-miterlimit="4" stroke-dasharray="none" stroke-opacity="1"/><path d="M57.845 118.968c-.52 3.638 1.919 5.676 4.837 5.676M43.334 115.97c6.756 2.038 15.91-10.754 20.707-15.351 1.919-1.52 3.838-3.078 5.277-5.637M87.627 18.069c-2.399 1.04-4.797 2.079-6.716 3.598-5.277 5.117-5.277 10.234-3.838 18.908.48 2.08.48 3.598.96 4.598 11.513-8.155 13.432-20.948 9.594-27.104M93.823 17.07c1.48 0 3.878.52 5.797.999 0 0 0 0 0 0-.48-4.077-4.797-7.196-8.195-6.156-2.439 1.04-1.92 3.598-1.44 5.676 1.44-.52 2.399-.52 3.838-.52M86.667 91.385c4.318 8.235 10.074 12.312 16.31 12.312M75.154 90.865c3.838-1 4.798-2.519 7.196 1.959M80.351 53.448c-4.317-1.56-9.594-5.677-11.992-9.834-.48-1.04-1.92-1.56-2.879-.52-1.439.52-1.439 2.079-.96 3.638.96 1.039 7.676 12.912 14.872 15.47 0-3.078.48-6.196.96-8.754M78.992 98.98c-1.439 2.598-4.317 1.56-4.797 4.157" fill="none" stroke="#000" stroke-width="1.0393701px" stroke-linecap="round" stroke-linejoin="round" stroke-miterlimit="4" stroke-dasharray="none" stroke-opacity="1"/><path clip-path="url(#a)" d="M65.56 40.655c.48-.999.48-1.519 0-2.558 0 0-.48.52-.96.52v-3.598c-.479 0-.959 0-1.438.52-.48-1.56.48-2.599 0-3.598l-.96.48s0 0 0 0c0-1 0-2.04.48-3.079-.48.52-.96.52-1.44.52.48-.52.48-1.56.96-2.559-.48.52-.96.52-1.439.52.48-.52.48-1.559.48-2.598-1.44 0-.96-1.52-.48-2.559h-1.439c.48-1.04.96-2.078.96-3.078h-1.44c.48-.52.48-2.079.96-2.598-.48.52-.96.52-1.44.52.48-.52.48-2.04.48-2.56 0 0-.48.52-.96.52v-1.558c-.479 0-.479.52-.959 0v-1.52c0 .48-.959.48-1.439 1 0-.52-.48-1.52-.48-2.039-.479.52-.959.52-1.438.52 0-.52-.48-1.04-.48-1.56-.48 0-1 0-1.48.52V9.274c-.479.52-1.438.52-1.438 1.04l-.96-1.04s-.96 0-.96.52c0-.52-.959-2.039-.959-2.039-.96.52-1.439 0-1.439-1.559-.48.52-.96.52-1.439 1.04 0-.52-.48-1.04-.96-1.56 0 .52-.479.52-.959.52 0-.52-.48-1.04-.48-1.519-.48.48-.959.48-1.439 1v-.52c0-.48-.48-1.52 0-2.039-.48.52-.959.52-1.439 1.04-.48-1.04-1.439-3.119-1.959-2.599 0 0 .52 3.118.52 3.598v1.04c3.358 3.597 13.912 8.754 18.27 10.273.479 6.196 2.877 16.99 8.634 27.263.48 0 .48-.48.96-.48.479-.519.959-.519.959-.519 0-.52-.48-1.04-.96-2.079" fill="none" stroke="#000" stroke-width="1.0393701px" stroke-linecap="round" stroke-linejoin="round" stroke-miterlimit="4" stroke-dasharray="none" stroke-opacity="1"/><path d="M61.643 92.824c-1.92 1.04-4.318 2.078-6.716 3.118-5.757 2.558-10.554 4.637-12.952 7.715-3.358 0-24.026.52-29.822 3.078 0 0-.48 0-.48.52 0 0 0 0 0 0s0 0 0 0v.52s0 0 0 0c0 1.039 0 2.078.48 2.558 0-.48.52-.48.999-.48.48 0 .48-.52.96-1.039 0 0 .48.52.48 1.04l1.438-1.56c0 .52.48 1.04.48 1.04.48 0 .96-1.04 1.44-1.04.479 0 .479.52.959 1.04.48 0 .959-1.04 1.439-1.56.48 0 .48 1.04.96 1.04.479 0 .479-.52.959-1.04.48 0 .959.52 1.439.52 1.439 0 1.439-1.039 2.398 0 .96-1.559 1.44-.52 2.878 0 .48-1.559.48-.52 1.44-.52h.959c.48 0 .48-.519.96-.519l.48.52c.479 0 .959-.52.959-.52.48 0 .959.52.959.52.48-.52.48-.52.96-.52s.959-.52 1.438-.52l.52.52c.48 0 .96-.52 1.44-.52.479 0 .959.52 1.438.52.48 0 .48-.52.96-.52l.96.52.479-.52c.48 0 .96.52 1.44.52-.48-1.04.479-1.52.959-2.558.48.52.959.52.959.52 0-.52 0-1.56.48-1.56.48-.52.96 0 1.439 0 0-.52 0-1.04.48-1.559.48 0 .959 1.04 1.439 1.04 0-1.04.48-1.56.48-2.04.479.48.959.48 1.438.48 0-.48 0-1.519.96-1.519l.96 1.04c0-1.04 0-1.04.479-1.56.48 0 .48.52.96.52 0-2.078 1.439 0 1.918-.52.48-.519 0-1.558.96-1.039M73.236 184.208c.959 2.08 1.918 4.118 2.878 5.117.48 2.079 2.878 6.676.48 10.794l-.48.52-16.31 20.467c-.96 1.56-1.44 3.598-.96 3.598.96 1.04 1.44 1.559 2.399 2.039 0-1-.48-2.559 0-3.558.96 0 1.919.52 2.398 0-.48-1.56 0-3.598 2.399-2.559 0-.52-.48-1.559 0-2.078.48-.52.96 0 1.44-.52.959-.48 0-1.52.479-2.039.96-1 1.439-1 2.398-1 0-3.597.48-2.598 3.358-3.077-1.439-2.559 1.44-3.079 2.879-3.598-.48-2.039.48-3.598 2.878-3.598-.48-1.52 0-3.078 1.919-3.078-.48-1-.48-2.559.96-2.559-.96-1.039-1.44-2.558 0-3.078-.96-1.04-.96-3.078.959-3.598-1.92.52-1.92-.999-1.44-2.558-2.398.52-2.398 0-1.918-2.559-.48 0-1.44.52-1.92.52-.479-.52-.479-1.04-.959-1.04 0-.999.48-1.518.48-2.038-.96-1.519-1.919-1.04-2.399-1.519v-.52c0-.52 0-1.04.48-2.078M137.597 142.154c-1.4 8.715-2.839 16.91-5.197 25.584-.48 3.078-2.399 6.157-1.92 9.195M103.537 41.735c8.195.48 13.952 1.519 21.667 7.675 0 0 3.358 0 4.318-8.715 1.439-8.754 1.439-13.871-3.838-19.028-3.358-3.078-8.195-4.637-12.513-4.637-2.878 0-7.195 1.039-9.634 2.598h-.48c-1.918-1.559-6.236-2.598-9.114-2.598-4.837 0-9.634 1.559-12.992 4.637-5.317 5.157-5.317 10.274-3.838 19.028 1.44 8.715 4.797 8.715 4.797 8.715 7.196-6.156 12.992-7.196 21.148-7.675" fill="none" stroke="#000" stroke-width="1.0393701px" stroke-linecap="round" stroke-linejoin="round" stroke-miterlimit="4" stroke-dasharray="none" stroke-opacity="1"/><path d="M119.328 18.069c2.438 1.04 4.397 2.079 6.316 3.598 5.317 5.117 5.317 10.234 3.877 18.908 0 2.08-.48 3.598-.959 4.598-11.153-8.155-13.112-20.948-9.234-27.104M113.171 17.07c-1.958 0-3.917.52-6.356.999 0 0 0 0 0 0 .52-4.077 4.877-7.196 8.275-6.156 2.918 1.04 2.439 3.598 1.48 5.676-.96-.52-2.44-.52-3.399-.52M120.327 91.385c-4.317 8.235-10.594 12.312-16.87 12.312M81.87 103.137c0-.48 0-.999.48-1.519 2.399-7.675 4.317-10.233 4.317-10.233s0 0 0 0c-3.357-5.637-5.756-13.312-6.715-23.026-.96-7.676.48-16.39 1.918-18.949M126.164 169.337c-5.797 12.353-14.472 22.627-23.186 22.627" fill="none" stroke="#000" stroke-width="1.0393701px" stroke-linecap="round" stroke-linejoin="round" stroke-miterlimit="4" stroke-dasharray="none" stroke-opacity="1"/><path d="M126.164 106.655c4.717 15.431 9.434 35.499 4.717 50.41-.92 3.078-2.359 6.156-3.278 9.234" fill="none" stroke="#9a9b9d" stroke-width="1.0393701px" stroke-linecap="round" stroke-linejoin="round" stroke-miterlimit="4" stroke-dasharray="none" stroke-opacity="1"/><path d="M125.044 49.41c.96 2.598 2.399 11.273 1.919 18.949-.96 9.754-3.358 17.429-6.716 23.066h-.48s1.92 2.558 4.798 10.233c0 .52.48 1.56.48 2.04" fill="none" stroke="#000" stroke-width="1.0393701px" stroke-linecap="round" stroke-linejoin="round" stroke-miterlimit="4" stroke-dasharray="none" stroke-opacity="1"/><path d="M126.164 53.448c4.317-1.56 10.073-5.677 11.992-9.834.48-1.04 1.92-1.56 3.358-.52.96.52 1.44 2.079.48 3.638-.48 1.039-7.675 12.912-14.871 15.47 0-3.078-.48-6.196-.96-8.754M127.443 98.98c1.959 2.598 4.877 1.56 4.877 4.157" fill="none" stroke="#000" stroke-width="1.0393701px" stroke-linecap="round" stroke-linejoin="round" stroke-miterlimit="4" stroke-dasharray="none" stroke-opacity="1"/><path clip-path="url(#a)" d="M140.955 40.655c0-.999-.48-1.519 0-2.558.48 0 .959.52.959.52.48 0 .48-.52.48-.52v-3.078c.48 0 .48 0 .96.52.479-1.56 0-2.599 0-3.598.479 0 .959.48 1.438.48 0 0 0 0 0 0 0-1-.48-2.04-.48-3.079.48.52.48.52.96.52-.48-.52-.48-1.56-.96-2.559.48.52.96.52 1.44.52 0-.52 0-1.559-.48-2.598 1.44 0 1.44-1.52.48-2.559h1.439c-.48-1.04-.48-2.078-.48-3.078h.96c0-.52-.48-2.079-.48-2.598 0 .52.96.52.96.52 0-.52 0-2.04-.48-2.56.48 0 .959.52.959.52l.48-.52v-1.038s.48.52.48 0v-1.52c.48.48 1.438.48 1.438 1 0-.52.48-1.52.96-2.039 0 .52.96.52.96.52 0-.52.479-1.04.479-1.56.48 0 .96 0 1.44.52 0-.52.479-1.039 0-1.559.479.52 1.438.52 1.918 1.04 0-.52.48-.52.48-1.04.48 0 .96 0 1.439.52 0-.52.48-2.039.48-2.039.959.52 1.439 0 1.918-1.559 0 .52.96.52.96 1.04.48-.52.96-1.04.96-1.56.479.52.959.52.959.52.48-.52.48-1.04.959-1.519 0 .48.96.48.96 1v-.52c.48-.48.48-1.52.48-2.039l.959 1.04c.959-1.04 1.918-3.119 1.918-2.599.48 0 0 3.118 0 3.598 0 .52 0 .52-.48 1.04-3.357 3.597-13.431 8.754-17.749 10.273-.959 6.196-2.878 16.99-9.114 27.263l-.48-.48c-.48-.519-.96-.519-1.439-.519.48-.52.48-1.04.96-2.079" fill="none" stroke="#000" stroke-width="1.0393701px" stroke-linecap="round" stroke-linejoin="round" stroke-miterlimit="4" stroke-dasharray="none" stroke-opacity="1"/><path d="M145.272 92.824c1.959 1.04 4.357 2.078 6.276 3.118 5.757 2.558 10.554 4.637 12.952 7.715 3.838 0 24.026.52 29.782 3.078.48 0 .48 0 .96.52 0 0 0 0 0 0s0 0 0 0v.52s0 0 0 0c0 1.039-.48 2.078-.48 2.558-.48-.48-.96-.48-.96-.48-.48 0-.959-.52-.959-1.039-.48 0-.48.52-.96 1.04-.479-.52-.479-1.04-.959-1.56-.48.52-.48 1.04-.96 1.04 0 0-.479-1.04-.959-1.04s-.48.52-.959 1.04c-.48 0-.96-1.04-1.919-1.56-.48 0-.48 1.04-.48 1.04-.48 0-.959-.52-1.439-1.04-.48 0-.96.52-1.439.52-.96 0-.96-1.039-2.398 0-.96-1.559-1.44-.52-2.399 0-.48-1.559-.96-.52-1.439-.52h-1.44s-.479-.519-.959-.519c0 0 0 .52-.48.52 0 0-.479-.52-.959-.52s-.48.52-.96.52c-.479-.52-.479-.52-.998-.52-.48 0-.48-.52-.96-.52s-.48.52-.96.52c-.479 0-.959-.52-1.438-.52-.48 0-.96.52-1.44.52l-.48-.52c-.479 0-1.438.52-1.438.52 0-.52 0-.52-.48-.52s-.48.52-.96.52c0-1.04-.48-1.52-1.439-2.558 0 .52-.48.52-.96.52 0-.52 0-1.56-.479-1.56-.48-.52-.48 0-.96 0 0-.52-.479-1.04-.959-1.559l-.959 1.04c0-1.04-.48-1.56-.96-2.04-.48.48-.48.48-.959.48 0-.48-.48-1.519-.96-1.519-.479 0-.959.52-.959 1.04-.48-1.04-.48-1.04-.96-1.56-.479 0-.479.52-.959.52.48-1.559-.48-1.039-1.439-.52" fill="none" stroke="#000" stroke-width="1.0393701px" stroke-linecap="round" stroke-linejoin="round" stroke-miterlimit="4" stroke-dasharray="none" stroke-opacity="1"/><path d="M146.791 98.02c0-.48 0-.999-.96-.48-.959 0-.48.48-.959-.519-.48-.52-.48-.52-.96-.52-.479-.52-.959 0-.959-.52-.48 0-.96-.519-.96-.519.48-.52.48-.52.96-1 .48-.519.48-1.558 0-2.078v-.52" fill="none" stroke="#9a9b9d" stroke-width="1.0393701px" stroke-linecap="round" stroke-linejoin="round" stroke-miterlimit="4" stroke-dasharray="none" stroke-opacity="1"/><path d="M134.199 184.728c-.96 3.078-2.399 4.597-3.358 6.156-2.399 4.078-1.92 7.156 0 9.754 1.919 2.559 17.31 22.027 17.31 22.027 1.438 1.52.479 2.039-.48 2.039-.48 1.04-1.44 1.559-1.92 2.039 0-1 0-2.559-.479-3.558-.48 0-1.44.52-2.399 0 .48-1.56 0-3.598-1.918-2.559v-2.078c-.96-.52-1.44 0-1.92-.52-.479-.48 0-1.52-.479-2.039-.48-1-1.44-1-2.439-1 0-3.597-.48-2.598-2.878-3.077 1.44-2.559-1.439-3.079-3.358-3.598.48-2.039-.48-3.598-2.878-3.598.96-1.52 0-3.078-1.44-3.078.48-1 .48-2.559-.959-2.559.48-1.039.96-2.558-.48-3.078 1.44-1.04.96-3.078-.519-3.598 1.48.52 1.48-.999 1-2.558 2.398.52 2.878 0 1.918-2.559.48 0 1.44.52 2.399.52 0-.52.48-1.04.48-1.04 0-.999-.48-1.518 0-2.038.48-1.519 1.439-1.04 1.918-1.519 0-.52 0-.52.48-.52 0-.52-.48-1.04-.48-2.078" fill="none" stroke="#000" stroke-width="1.0393701px" stroke-linecap="round" stroke-linejoin="round" stroke-miterlimit="4" stroke-dasharray="none" stroke-opacity="1"/><path clip-path="url(#a)" d="M126.523 74.355c3.838 9.754 12.992 8.755 18.27 18.469 5.316 9.234 32.74 34.379 40.415 53.887 7.715 19.508 20.188 90.785 2.878 92.344-17.79 1.52-59.164-53.368-65.88-79.512-7.236-26.184-5.757-43.613 5.277-60.563 0 0-3.838-6.156-5.757-5.117" fill="none" stroke="#000" stroke-width="1.0393701px" stroke-linecap="round" stroke-linejoin="round" stroke-miterlimit="4" stroke-dasharray="none" stroke-opacity="1"/><path d="M136.637 93.383c4.837 12.833 14.911 22.587 21.627 33.86 7.675 13.832 13.472 28.702 21.627 42.534 6.236 9.754 11.993 16.39 15.83 27.144" fill="none" stroke="#000" stroke-width="1.0393701px" stroke-linecap="round" stroke-linejoin="round" stroke-miterlimit="4" stroke-dasharray="none" stroke-opacity="1"/><path d="M141.994 103.697c5.317 11.313 9.634 21.587 14.91 32.86 6.277 13.832 8.196 29.263 13.473 43.094 4.797 12.832 9.114 26.704 10.074 40.536.48 6.156.48 11.792.96 17.429M141.994 196.92c-.96-7.155-.48-19.468-.96-27.143-.959-11.793-2.878-23.546-4.837-35.338-2.398-12.313-1.918-25.105-4.837-37.418-1.439-7.155-5.316-12.792-7.755-14.351M164.5 224.744c.92-15.39-3.837-32.3-8.634-47.691-4.318-13.872-5.277-28.743-9.075-43.094-2.878-11.833-9.114-22.587-11.033-34.38-.48-3.597-.96-14.39.48-14.91" fill="none" stroke="#000" stroke-width="1.0393701px" stroke-linecap="round" stroke-linejoin="round" stroke-miterlimit="4" stroke-dasharray="none" stroke-opacity="1"/><path d="M148.63 118.488c.48 3.598-1.44 6.156-4.877 6.156M163.58 115.97c-6.715 2.038-15.87-10.754-20.667-15.351-1.918-1.52-3.837-3.078-5.316-5.637M131.76 90.865c-3.798-1-5.197-2.519-7.595 1.959" fill="none" stroke="#000" stroke-width="1.0393701px" stroke-linecap="round" stroke-linejoin="round" stroke-miterlimit="4" stroke-dasharray="none" stroke-opacity="1"/><path d="M87.627 175.534c2.398 0 4.797.48 7.196.48h3.837c.48 0 .96 1.039 1.919 1.039 1.919 0 3.878-2.559 5.317-2.04 1.919 0 2.878 3.08 4.797 0 .48 2.56 4.797 1 6.236-.519.96 1.04 2.399 1.52 2.878-.52.48.52.96.52 1.44 1.04.959-1.04 1.918-1.56 2.878-2.079-.96 2.079-1.92 4.118-3.358 6.156l-.96 1.56v1.519c0-.48-.48-.48-.48 0-.479 0-.479.52-.959 1.039 0 .52 0 1.04.48 1.559-1.44-.52-1.44 1-1.44 2.039h-.959c0 .52-.48 1.04 0 1.559-1.439-.52-1.918 0-1.918 1.519-.96 0-1.92 1.04-1.92 2.558-1.438-1.519-1.918.52-1.438 2.08-.48-1.56-1.44-1.04-1.44 1.518 0-.52-.959-1.519-1.439-1.519-.959 0-.48 2.039-.48 3.558 0-2.039 0-2.559-1.438-3.078-.48-.48-.96 1.04-.96 1.559 0-.52 0-1.56-.48-1.56-.959-.479-.959.52-.959 1.56 0-2.559-2.439.52-2.439 1.04 0 .479 0-2.08-.48-2.6-.959 0-1.438.52-1.918 1.56 1.439-2.039-.96-3.598-2.399-1.56v-.479c.48-1.559-.48-2.598-1.918-1.04.48-1.558 0-3.597-1.92-3.597 0-1.04-.479-1.52-1.438-2.039 0-.52-.96 0-.96 0-.48-.52 0-1.04-.48-1.559-.48-1.04-.48-2.039-.959-3.078-2.399-3.078-4.797-6.676-6.756-10.793 1.48 1.559 3.398 2.078 5.317 3.118z" fill="#53446f" fill-rule="evenodd" fill-opacity="1" stroke="none"/><path d="M124.165 172.975c-.96 2.079-1.92 4.118-3.358 6.156l-.96 1.56v1.519c0-.48-.48-.48-.48 0-.48 0-.48.52-.959 1.039 0 .52 0 1.04.48 1.559-1.44-.52-1.44 1-1.44 2.039h-.959c0 .52-.48 1.04 0 1.559-1.439-.52-1.918 0-1.918 1.519-.96 0-1.92 1.04-1.92 2.558-1.438-1.519-1.918.52-1.438 2.08-.48-1.56-1.44-1.04-1.44 1.518 0-.52-.959-1.519-1.439-1.519-.96 0-.48 2.039-.48 3.558 0-2.039 0-2.559-1.438-3.078-.48-.48-.96 1.04-.96 1.559 0-.52 0-1.56-.48-1.56-.959-.479-.959.52-.959 1.56 0-2.559-2.439.52-2.439 1.04 0 .479 0-2.08-.48-2.6-.959 0-1.438.52-1.918 1.56 1.439-2.039-.96-3.598-2.399-1.56v-.479c.48-1.559-.48-2.598-1.918-1.04.48-1.558 0-3.597-1.92-3.597 0-1.04-.479-1.52-1.438-2.039 0-.52-.96 0-.96 0-.48-.52 0-1.04-.48-1.559-.48-1.04-.48-2.039-.959-3.078 0 0 0 0 0 0-2.399-3.078-4.797-6.676-6.756-10.794" fill="none" stroke="#000" stroke-width="1.0393701px" stroke-linecap="round" stroke-linejoin="round" stroke-miterlimit="4" stroke-dasharray="none" stroke-opacity="1"/></svg>