<svg xmlns="http://www.w3.org/2000/svg" version="1.0" viewBox="0 0 218.306 191.433"><defs><clipPath clipPathUnits="userSpaceOnUse" id="a"><path d="M5.517 10.314h218.028v191.564H5.517z"/></clipPath></defs><path d="M58.565 121.167c.839.84 1.259 1.259 2.098 1.679 2.079.819 8.755 3.318 10.854 4.557 1.259.42 2.498 3.738 3.757 5.816 0 .42.84.84.84.84.4.82.4 1.239.4 1.239.42 0 .42 0 .42-.84 0-.4.42-1.239.42-1.658 0-2.08-.42-3.738-.42-3.738s4.597 0 5.856 1.259c1.659 1.24 3.758 4.138 4.177 4.977.4.84 1.66 1.24 2.079 1.659.42.42.84 1.24.84 1.24.42 0 .42-.4.42-1.24-.42-1.24-.84-4.557-.84-4.557s1.659.4 2.918.82c.84 0 2.099.839 2.498.839.42 0 .84.4 1.26.4.42-.4 0-.4-.42-1.24 0-.42-.42-1.239-.84-1.659 0-.42 1.26-.42 2.1 0 .419.42 1.238.84 1.238 0 0 0-.4-.42-.819-.84-.84-.819-2.099-2.897-3.338-3.317-1.26-.82-2.938-1.66-5.017-2.079-6.676 0-12.932-.42-15.45-.42-2.919 0-8.755-1.659-15.031-3.737z" fill="#d9dadb" fill-rule="evenodd" fill-opacity="1" stroke="none"/><path d="M69.438 125.364c2.099.82 3.758 2.479 5.437 4.118 2.498-4.118 11.693 0 13.352-4.538-4.578 2.059-10.854-.42-15.85.42z" fill="#cacbcc" fill-rule="evenodd" fill-opacity="1" stroke="none"/><path d="M94.863 131.48c-2.06-2.038-3.718-3.278-5.377-3.677-2.079-.42-7.056-2.479-7.895-2.479M89.426 132.36c-.82-1.22-1.66-2.858-2.499-3.278-.42-.4-8.335-2.459-9.174-2.878M76.873 129.002c0-1.2-1.599-2.798-1.599-2.798" fill="none" stroke="#000" stroke-width=".79951543px" stroke-linecap="round" stroke-linejoin="round" stroke-miterlimit="4" stroke-dasharray="none" stroke-opacity="1"/><path d="M58.565 121.167c.839.84 1.259 1.259 2.098 1.679 2.079.819 8.755 3.318 10.854 4.557 1.259.42 2.498 3.738 3.757 5.816 0 .42.84.84.84.84.4.82.4 1.239.4 1.239.42 0 .42 0 .42-.84 0-.4.42-1.239.42-1.658 0-2.08-.42-3.738-.42-3.738s4.597 0 5.856 1.259c1.659 1.24 3.758 4.138 4.177 4.977.4.84 1.66 1.24 2.079 1.659.42.42.84 1.24.84 1.24.42 0 .42-.4.42-1.24-.42-1.24-.84-4.557-.84-4.557s1.659.4 2.918.82c.84 0 2.099.839 2.498.839.42 0 .84.4 1.26.4.42-.4 0-.4-.42-1.24 0-.42-.42-1.239-.84-1.659 0-.42 1.26-.42 2.1 0 .419.42 1.238.84 1.238 0 0 0-.4-.42-.819-.84-.84-.819-2.099-2.897-3.338-3.317-1.26-.82-2.938-1.66-5.017-2.079-6.676 0-12.932-.42-15.45-.42-2.919 0-8.755-1.659-15.031-3.737" fill="none" stroke="#000" stroke-width=".79951543px" stroke-linecap="round" stroke-linejoin="round" stroke-miterlimit="4" stroke-dasharray="none" stroke-opacity="1"/><path clip-path="url(#a)" d="M119.048 15.75C64.08.76 38.697 27.004 32.44 40.735c-1.659 4.178-10.833 19.588-9.154 45.393.42 6.256 0 11.673-.84 14.171-2.918 7.496-10.833 14.991-15.41 36.638-2.918 14.151 6.676 29.562 49.13 38.317 42.074 8.734 65.8 3.318 87.027 4.157 20.828.84 64.541.42 79.112 21.227-14.57-20.807-53.707-24.565-74.515-25.384-21.247-.84-41.654 2.498-84.129-6.256-34.559-8.735-48.29-17.07-44.952-31.221 1.239-6.676 8.315-13.332 12.492-15.83 2.499-2.5 7.076-2.5 12.892 1.658 20.408 12.493 39.157 10.414 44.553 9.994 6.256 0 12.493-1.24 16.67-2.498 11.653-4.997 24.565-1.66 30.802 2.498 1.259.42 2.498 1.26 3.757 2.079 3.318 2.498 11.233 3.757 12.493 5.416 1.239 1.68 2.918 3.758 3.318 4.178.84.4.84 2.079 2.078 1.659.84-.42-.4-1.26-.4-2.079 0-.42.4-2.918-.42-4.177 1.24.42 2.92 1.679 4.158 2.098 1.26.4 2.08 0 2.499.4.42.42.42 1.26 1.26.84.399-.84 0-1.66-1.26-3.738 0 0 .42 0 1.26.4.399.84 1.238.42 1.238.42s-.42-1.24-1.239-2.499c-.42-1.24-.42-2.079-1.26-2.918-.839-.82-3.337-1.24-3.337-1.24s-.4-.42-.82-.839c-.84-.82-5.416-.42-5.836-.82-.42 0-4.997-5.416-5.417-6.675-.82-1.24-.4-2.919 0-2.499.84.42 3.338.84 4.597 2.499.82.84 2.499 2.498 3.318 3.338 1.26.839.84 1.239 1.26 1.239.4 0 1.239-1.24.4-2.499h1.678c1.24.42 2.08.42 2.499 1.26.42.839.42 1.659.82 1.239.839-.82.42-2.898-1.66-5.817 0 0 1.66 0 2.919 1.24 0-1.24-2.08-4.578-3.338-5.417-1.66-1.24-4.158-1.66-5.397-2.079-1.26-.82-3.758-2.918-4.997-4.997-.42-.82 0-1.659.4-2.918l-.4 1.26c1.24-2.92 6.236.839 12.472-2.08 6.257-2.918 6.257-6.676 11.673-6.676 4.158.42 8.735 3.338 11.653 4.598 2.918 1.239 9.155-1.68 11.253-2.1 2.499-.399 5.397-1.658 7.496-4.576 1.659-3.318-2.099-7.915-4.178-13.312-2.498-5.417-5.416-9.594-6.656-13.332.42-9.155-4.577-10.414-4.577-10.414s-4.997-4.577-7.495-10.414c-2.918-5.816-4.577-7.915-7.915-12.072 0 0 .839-12.912-9.155-21.227-9.994-8.335-12.073-4.598-10.833 1.659 1.259 6.656 1.659 12.072 1.659 12.072s-1.66-1.659-4.158-2.918c-.84-.82-15.41-10.414-32.48-15.41z" fill="#ededee" fill-rule="evenodd" fill-opacity="1" stroke="none"/><path d="M59.024 111.552c3.738 2.499 22.067 2.08 26.244.82 11.234-2.918 22.886-9.155 30.402-18.329 8.315-9.574 9.574-26.244 9.154-39.156.84 2.518 4.158 5.416 5.837 7.095 3.738 3.738 7.495 6.656 9.574 12.073 3.318 8.335-4.177 20.827-10.414 26.664-5.416 5.417-12.072 13.752-19.148 15.83-7.096 2.08-15.83 3.738-22.906 4.578-9.175 1.239-21.247-2.08-30.002-3.758z" fill="#e1e1e2" fill-rule="evenodd" fill-opacity="1" stroke="none"/><path d="M20.747 130.7c1.26-3.737 6.676-9.134 10.414-10.813 1.68-.82 2.499-1.659 3.338-2.078 3.338-2.899 5.417 1.679 10.414 4.157 2.498 1.26 9.994 4.997 16.23 7.076 4.997 2.079 10.833 2.478 11.673 2.898 4.577 2.079 20.408 1.26 29.562-.42 9.994-2.058 17.91-8.295 26.224-3.737 3.758 2.078 7.516 4.997 11.253 7.495 3.338 2.479 11.253 4.138 12.493 5.816 1.259 1.66 2.918 3.738 3.338 4.158.82.4.82 2.059 2.078 1.659.84-.42-.42-1.26-.42-2.079 0-.42.42-2.918-.42-4.157 1.26.42 2.92 1.659 4.178 2.078 1.24.42 2.08 0 2.499.42.4.4.4 1.24 1.24.82.419-.82 0-1.66-1.24-3.738 0 0 .4 0 1.24.42.419.82 1.258.42 1.258.42s-.42-1.26-1.259-2.499c-.42-1.24-.42-2.079-1.24-2.918-.839-.82-3.337-1.24-3.337-1.24l-.84-.839c-.82-.82-5.416-.4-5.816-.82-.42 0-4.997-5.396-5.417-6.655-.84-1.24-.42-2.899 0-2.499.82.42 3.318.84 4.577 2.499l3.338 3.338c1.24.819.82 1.239 1.24 1.239.42 0 1.259-1.24.42-2.499h1.658c1.26.42 2.08.42 2.499 1.26.42.819.42 1.659.84 1.239.42-.42.42-1.66 0-2.918-2.919-1.66-6.257-3.318-7.076-5.397-.42-.82 0-2.079.42-3.318-.42-.42-.84-.42-.84-.42-1.26-.84-3.758-2.918-4.997-4.977-.42-.84 0-1.679.42-2.918l-.42 1.24c1.24-2.9 4.577-9.135 14.151-8.716 0 0 2.499.82 7.496 0h2.498c2.079-.42 4.178-.84 5.837 0 2.918 1.24 3.737 2.899 7.495 3.318 2.499 0 4.997-.42 7.496-1.239 5.416-2.079 11.233-5.397 6.656-11.633.84 6.636-4.578 6.236-9.575 4.977-2.078-.42-4.577-1.24-6.656-2.079-2.918-.82-2.918-3.318-6.675-3.318-2.899-.42-6.237 0-9.575 0-2.078-.42-4.157 0-6.656-.42-2.078 0-4.577-.419-6.656-.819-2.498-.42-3.338-3.338-6.256-3.758-7.495-2.078-8.735 6.237-14.151 8.735-4.178 1.66-7.915 3.318-11.673 6.236-4.158 2.899-7.915 9.555-12.912 11.214-12.493 3.737-26.224 3.318-38.717 2.078-9.574-.84-19.568-12.052-29.142-9.134-5.417 1.24-8.335 5.397-12.093 8.715-4.157 3.338-10.414 8.315-10.414 14.55z" fill="#d9dadb" fill-rule="evenodd" fill-opacity="1" stroke="none"/><path d="M99.1 117.329c18.289-4.158 26.184-16.21 32.42-25.784 3.738-4.997 5.817-10.414 3.738-16.65-1.24-3.758 1.26-8.335 4.158-7.496 2.078.84 4.577 2.079 6.655 3.738 2.08 1.679 2.479 3.758 4.558 5.836 1.259 1.24 2.078 1.24 2.078 3.738.42 1.68-.4 2.499.42 4.577 1.26 3.338 4.158 4.997 6.656 7.076 4.557 3.758-2.079 4.997-5.816 5.836-5.417.82-10.814 1.66-15.79 3.318-2.919.84-14.552 14.572-17.45 14.152zM157.285 18.329c4.197-.84 10.054 7.076 11.713 9.994 2.518 3.318 5.017 9.154 2.518 12.892-4.177-.82-4.177-7.475-5.856-10.394-2.519-4.577-5.857-10.833-9.635-13.751zM151.048 52.888c-5.816-1.679-3.318 2.498-3.318 5.816 0 .84-1.239 6.656 1.66 4.178 1.239-.84 0-3.338 0-4.597.42-1.66 1.239-2.08 2.478-3.318zM150.629 46.972c-2.899-5.397-6.217-7.456-12.033-8.295-4.577-.42-10.394-.42-10.394 6.216 3.338-.82 5.817-3.318 9.135-3.318 2.079 0 5.816 1.659 7.475 2.498 3.338 1.24 2.079 2.479 2.918 4.977 1.24 2.479 1.66.42 4.138.82 0-.82-.4-1.66-.82-2.479z" fill="#d9dadb" fill-rule="evenodd" fill-opacity="1" stroke="none"/><path d="M181.03 84.109c-.82-.82.82-4.977-2.898-7.056-3.738-2.498-7.056 1.66-7.056 1.66-.42 2.918 1.66 4.976 3.318 5.816 1.66.82 5.817-.84 5.817-.84l.82.42z" fill="#fff" fill-rule="evenodd" fill-opacity="1" stroke="none"/><path d="M172.795 78.293c1.24-1.64 3.718-2.06 5.797-.82 1.659 1.24 2.059 3.698.82 5.357-1.24 1.639-3.718 2.039-5.797.82-1.66-1.24-2.079-3.698-.82-5.357z" fill="#adaeb0" fill-rule="evenodd" fill-opacity="1" stroke="none"/><path d="M174.754 79.532c.42-.4 1.68-.82 2.099-.4.84.82.84 1.639.42 2.459-.42.4-1.68.8-2.1 0-.839-.42-.839-1.24-.419-2.06z" fill="#555557" fill-rule="evenodd" fill-opacity="1" stroke="none"/><path d="M192.823 71.217c.42.84.42 3.318 1.66 4.137 0-.4-.4-.4-.4-.82.4-9.114-4.618-10.353-4.618-10.353l-.42-.42c.42 1.26.84 2.499 1.68 3.318.839 1.66 1.678 2.899 2.098 4.138z" fill="#adaeb0" fill-rule="evenodd" fill-opacity="1" stroke="none"/><path d="M123.185 124.904c1.26.4 4.997 1.24 6.257 2.059 1.659 1.24 4.997 4.957 7.075 5.377-.82-1.66-3.737-4.138-4.157-5.797-.84-2.478-2.079-7.015-3.758-7.435-1.24-.42-4.997 1.659-8.335 2.898-1.659.82-4.157 1.24-6.236 2.059-4.597 2.079-12.513 3.738-17.51 4.977-9.993 1.239-24.585 2.059-28.762 1.239 7.096 2.059 25.425 2.878 31.261 1.24 5.417-1.24 19.588-7.456 24.165-6.617zM32.42 116.61c5.417-2.46 9.575 2.858 14.152 4.077-2.479-.8-3.318-5.717-5.817-6.536-2.078-.42-5.836.4-7.075 2.039zM184.328 99.06c.42 2.079 1.26 4.137 2.939 4.977.839.82 3.777.82 3.777-.42-3.358 0-2.518-5.397-6.296-5.397z" fill="#cacbcc" fill-rule="evenodd" fill-opacity="1" stroke="none"/><path d="M196.161 100.3c2.079.439.84 2.558 3.318 2.138 1.66-.42 2.918-1.699 3.318-3.418-1.24.44-1.659 1.28-3.318 1.28-1.24 0-2.478-.42-3.318 0z" fill="#a2a4a6" fill-rule="evenodd" fill-opacity="1" stroke="none"/><path d="M149.39 52.888c-3.358.42-2.1 2.858-.84 4.477.42-1.619.84-2.838 2.518-4.057zM130.66 40.316c1.26-1.26 2.939-.84 4.598-.84h4.617c3.338 0 6.696 1.26 7.516 4.617-1.66-3.358-5.857-3.358-9.195-3.358-1.679-.42-3.338 0-4.597-.42-1.679 0-2.938-.839-4.197.42z" fill="#cacbcc" fill-rule="evenodd" fill-opacity="1" stroke="none"/><path d="M151.868 34.899c1.26.44 2.099.44 3.358 0 0 .88-.42 1.3 0 2.159z" fill="#d9dadb" fill-rule="evenodd" fill-opacity="1" stroke="none"/><path d="M161.062 50.73c-6.256 4.996-7.515 21.226-2.498 26.623-1.26-3.318-.84-7.475-.42-11.213 0-2.099-.84-3.338 0-6.656.42-2.499 1.26-6.256 2.918-8.755z" fill="#fff" fill-rule="evenodd" fill-opacity="1" stroke="none"/><path d="M128.622 48.73c-.42 2.499 2.898 7.896 4.557 9.555 2.479 3.318 6.197 4.137 9.495 5.796-2.879-2.478-5.777-4.557-8.255-7.455-1.24-2.499-4.957-4.977-5.797-7.476z" fill="#f8f8f8" fill-rule="evenodd" fill-opacity="1" stroke="none"/><path d="M124.864 45.373c-2.498 4.177.42 13.731 3.318 17.469 1.66 2.498 3.718 4.577 4.977 7.495 1.24 2.499 1.66 5.817 3.298 7.896 1.66-1.24 1.66-3.318 2.919-4.977.819-1.26 2.898-2.08 2.898-3.758.4-3.318-4.977-4.557-7.056-5.817-4.557-2.918-9.534-7.075-10.354-12.892z" fill="#d9dadb" fill-rule="evenodd" fill-opacity="1" stroke="none"/><path d="M139.396 66.56c2.498 1.679 4.557 1.259 6.216 3.777 1.259 2.1 2.898 6.716-.4 8.375z" fill="#d9dadb" fill-rule="evenodd" fill-opacity="1" stroke="none"/><path d="M29.142 62.402c4.178-18.688 12.493-33.64 34.14-41.115 22.046-7.495 26.624-4.997 26.624-4.997-10.394 2.079-47.012 4.997-60.764 46.112z" fill="#fff" fill-rule="evenodd" fill-opacity="1" stroke="none"/><path clip-path="url(#a)" d="M14.97 122.846c-2.917 6.236-15.01 25.344 8.336 38.616-5.837-3.718-17.09-14.531-8.335-38.616z" fill="#fff" fill-rule="evenodd" fill-opacity="1" stroke="none"/><path d="M138.196 32.46c2.918-.84 7.935 2.06 10.434 3.718 1.24.84 2.498 2.079 3.338 3.318 1.24.82 2.079 3.318 3.338 3.718-.42-1.64-.84-3.298-.84-4.957 0-1.66 1.24-2.898.42-4.557-.84-1.24-2.099.82-2.918-.42-.84-1.24-2.499-3.318-4.178-3.738.42 1.26 4.997 3.738 2.499 3.738-.82 0-2.079-.82-2.918-.82-1.24-.42-2.919 0-3.738-.42zM149.87 111.173c1.258-1.24 4.157-.4 5.816-.4 1.679 0 3.757-.42 5.816-1.26 1.68-.819 3.338-1.658 4.997-2.898 1.24-1.259 2.898-3.338 4.557-3.338-3.737 0-7.475-.42-10.793 0-2.079 0-4.158.84-5.817 2.08-1.659 1.258-2.498 2.917-4.157 4.157z" fill="#d9dadb" fill-rule="evenodd" fill-opacity="1" stroke="none"/><path d="M146.511 117.889c2.099-6.656 2.099-8.755 6.676-8.335 4.158 0 9.155-.82 13.312-4.578 4.597-3.757 7.496-3.338 9.994-2.918-7.076-1.679-9.154-.42-11.233.84-2.079 1.239-8.755 2.918-12.073 2.498-3.338-.42-4.577 2.079-6.676 12.493z" fill="#cacbcc" fill-rule="evenodd" fill-opacity="1" stroke="none"/><path clip-path="url(#a)" d="M119.048 15.75C64.08.76 38.697 27.004 32.44 40.735c-1.659 4.178-10.833 19.588-9.154 45.393.42 6.256 0 11.673-.84 14.171-2.918 7.496-10.833 14.991-15.41 36.638-2.918 14.151 6.676 29.562 49.13 38.317 42.074 8.734 65.8 3.318 87.027 4.157 20.828.84 64.541.42 79.112 21.227-14.57-20.807-53.707-24.565-74.515-25.384-21.247-.84-41.654 2.498-84.129-6.256-34.559-8.735-48.29-17.07-44.952-31.221 1.239-6.676 8.315-13.332 12.492-15.83 2.499-2.5 7.076-2.5 12.892 1.658 20.408 12.493 39.157 10.414 44.553 9.994 6.256 0 12.493-1.24 16.67-2.498 11.653-4.997 24.565-1.66 30.802 2.498 1.259.42 2.498 1.26 3.757 2.079 3.318 2.498 11.233 3.757 12.493 5.416 1.239 1.68 2.918 3.758 3.318 4.178.84.4.84 2.079 2.078 1.659.84-.42-.4-1.26-.4-2.079 0-.42.4-2.918-.42-4.177 1.24.42 2.92 1.679 4.158 2.098 1.26.4 2.08 0 2.499.4.42.42.42 1.26 1.26.84.399-.84 0-1.66-1.26-3.738 0 0 .42 0 1.26.4.399.84 1.238.42 1.238.42s-.42-1.24-1.239-2.499c-.42-1.24-.42-2.079-1.26-2.918-.839-.82-3.337-1.24-3.337-1.24s-.4-.42-.82-.839c-.84-.82-5.416-.42-5.836-.82-.42 0-4.997-5.416-5.417-6.675-.82-1.24-.4-2.919 0-2.499.84.42 3.338.84 4.597 2.499.82.84 2.499 2.498 3.318 3.338 1.26.839.84 1.239 1.26 1.239.4 0 1.239-1.24.4-2.499h1.678c1.24.42 2.08.42 2.499 1.26.42.839.42 1.659.82 1.239.839-.82.42-2.898-1.66-5.817 0 0 1.66 0 2.919 1.24 0-1.24-2.08-4.578-3.338-5.417-1.66-1.24-4.158-1.66-5.397-2.079-1.26-.82-3.758-2.918-4.997-4.997-.42-.82 0-1.659.4-2.918l-.4 1.26c1.24-2.92 6.236.839 12.472-2.08 6.257-2.918 6.257-6.676 11.673-6.676 4.158.42 8.735 3.338 11.653 4.598 2.918 1.239 9.155-1.68 11.253-2.1 2.499-.399 5.397-1.658 7.496-4.576 1.659-3.318-2.099-7.915-4.178-13.312-2.498-5.417-5.416-9.594-6.656-13.332.42-9.155-4.577-10.414-4.577-10.414s-4.997-4.577-7.495-10.414c-2.918-5.816-4.577-7.915-7.915-12.072 0 0 .839-12.912-9.155-21.227-9.994-8.335-12.073-4.598-10.833 1.659 1.259 6.656 1.659 12.072 1.659 12.072s-1.66-1.659-4.158-2.918c-.84-.82-15.41-10.414-32.48-15.41" fill="none" stroke="#000" stroke-width=".79951543px" stroke-linecap="round" stroke-linejoin="round" stroke-miterlimit="4" stroke-dasharray="none" stroke-opacity="1"/><path d="M156.025 49.53c-2.498-8.315-15.41-22.466-27.083-12.472-12.093 10.393 4.177 26.204 8.755 27.863 4.577 2.078 9.594 4.157 10.413 7.475" fill="none" stroke="#000" stroke-width=".79951543px" stroke-linecap="round" stroke-linejoin="round" stroke-miterlimit="4" stroke-dasharray="none" stroke-opacity="1"/><path d="M151.068 52.888c-4.117 0-5.356 1.26-3.278 3.738 1.64 2.898-1.659 5.816 1.22 7.455" fill="none" stroke="#000" stroke-width=".79951543px" stroke-linecap="round" stroke-linejoin="round" stroke-miterlimit="4" stroke-dasharray="none" stroke-opacity="1"/><path d="M188.486 102.378c-2.898 3.338-10.794 16.25-8.295 24.145" fill="none" stroke="#333" stroke-width=".31980619px" stroke-linecap="round" stroke-linejoin="round" stroke-miterlimit="4" stroke-dasharray="none" stroke-opacity="1"/><path d="M187.366 102.058c-2.078 2.079-12.152 18.27-12.152 21.987M186.487 101.179c-3.738 2.918-14.151 15.41-15.83 18.309M209.833 88.706c-2.479.8-6.616 2.399-7.036 2.799M206.155 87.027c-1.28.42-3.398 2.938-3.838 3.358M207.354 81.51c-2.498 1.28-5.416 6.317-5.836 7.996M189.365 103.737c-1.239 2.079-5.836 14.951-4.577 21.587M186.487 99.9c-1.24.839-15.41 10.073-21.267 12.152M202.797 91.984c1.26-.4 2.499-.8 4.557.4" fill="none" stroke="#333" stroke-width=".31980619px" stroke-linecap="round" stroke-linejoin="round" stroke-miterlimit="4" stroke-dasharray="none" stroke-opacity="1"/><path d="M181.03 84.109c-.82-.82.82-4.977-2.898-7.056-3.738-2.498-7.056 1.66-7.056 1.66-.42 2.918 1.66 4.976 3.318 5.816 1.66.82 5.817-.84 5.817-.84l.82.42z" fill="none" stroke="#000" stroke-width=".79951543px" stroke-linecap="round" stroke-linejoin="round" stroke-miterlimit="4" stroke-dasharray="none" stroke-opacity="1"/><path d="M172.795 78.293c1.24-1.64 3.718-2.06 5.797-.82 1.659 1.24 2.059 3.698.82 5.357-1.24 1.639-3.718 2.039-5.797.82-1.66-1.24-2.079-3.698-.82-5.357" fill="none" stroke="#000" stroke-width=".79951543px" stroke-linecap="round" stroke-linejoin="round" stroke-miterlimit="4" stroke-dasharray="none" stroke-opacity="1"/><path d="M174.754 79.532c.42-.4 1.68-.82 2.099-.4.84.82.84 1.639.42 2.459-.42.4-1.68.8-2.1 0-.839-.42-.839-1.24-.419-2.06M163.54 140.355c-.819-1.679-2.917-2.958-4.157-2.958-1.259-.42-7.515-2.559-7.515-2.559M156.825 140.675c-.4-.8-3.718-3.258-4.957-3.678M160.183 134.518h-4.158M155.706 33.22c0 1.26 0 2.099-.48 3.358" fill="none" stroke="#000" stroke-width=".79951543px" stroke-linecap="round" stroke-linejoin="round" stroke-miterlimit="4" stroke-dasharray="none" stroke-opacity="1"/><path d="M174.015 79.312c0-.58.46-1.08.999-1.08.56 0 1 .5 1 1.08 0 .6-.44 1.08-1 1.08-.54 0-1-.48-1-1.08z" fill="#fff" fill-rule="evenodd" fill-opacity="1" stroke="none"/><path d="M155.246 49.97c1.28-.42 2.978-.84 2.978-2.519-1.28-.84-2.978 0-3.838.84M147.29 71.557c-.419 0 .84-1.2 1.26-1.6M149.91 53.248c0-.42 0-.84-.48-1.68" fill="none" stroke="#ededee" stroke-width="1.6789824px" stroke-linecap="butt" stroke-linejoin="miter" stroke-miterlimit="8" stroke-dasharray="none" stroke-opacity="1"/><path d="M154.067 136.557c-.44.84-1.36 1.26-1.36 1.68" fill="none" stroke="#d9dadb" stroke-width="1.6789824px" stroke-linecap="butt" stroke-linejoin="miter" stroke-miterlimit="8" stroke-dasharray="none" stroke-opacity="1"/><path d="M153.547 121.167c2.938.84 2.518.42 4.617 2.098.84.82 2.499 2.079 2.499 3.738-1.66-.82-3.338-1.24-5.017-1.659z" fill="#d9dadb" fill-rule="evenodd" fill-opacity="1" stroke="none"/><path d="M157.385 128.202c-.42-2.058-1.26-4.137-2.519-5.796-1.26-1.24-3.358-2.918-3.798-2.918M161.062 124.844c-.84-.82-2.958-3.737-4.237-4.157" fill="none" stroke="#000" stroke-width=".79951543px" stroke-linecap="round" stroke-linejoin="round" stroke-miterlimit="10" stroke-dasharray="none" stroke-opacity="1"/><path d="M151.588 121.207c.38-.42.76-.84 1.12-1.68M153.587 123.205c.88-.36 1.3-.74 2.159-1.119" fill="none" stroke="#d9dadb" stroke-width="1.6789824px" stroke-linecap="butt" stroke-linejoin="miter" stroke-miterlimit="8" stroke-dasharray="none" stroke-opacity="1"/><path d="M150.189 112.052c-.42 1.26-3.358 9.135-2.518 13.272" fill="none" stroke="#000" stroke-width=".79951543px" stroke-linecap="round" stroke-linejoin="round" stroke-miterlimit="10" stroke-dasharray="none" stroke-opacity="1"/><path d="M149.37 119.008c-.86 1.26-.86 2.938-.86 4.197.86-.42 2.998.42 3.838.84-1.28-.84-2.559-2.938-2.559-4.617z" fill="#cacbcc" fill-rule="evenodd" fill-opacity="1" stroke="none"/></svg>