<svg xmlns="http://www.w3.org/2000/svg" version="1.0" viewBox="0 0 218.457 199.748"><defs><clipPath clipPathUnits="userSpaceOnUse" id="a"><path d="M5.836 13.592h218.188V213.47H5.836z"/></clipPath></defs><path clip-path="url(#a)" d="M37.058 61.203c-6.676 24.025-4.158 33.78-6.676 41.815-2.919 7.555-18.31 18.189-22.907 41.295-3.357 15.11 6.676 31.58 48.73 40.895 42.495 9.354 66.28 3.558 87.108 4.437 21.227.92 65 .48 79.552 22.666-14.551-22.186-53.728-26.184-74.995-27.103-20.827-1.32-41.255 2.678-83.749-6.636-34.979-9.355-48.33-18.23-45.412-33.34 2.078-9.794 13.751-20.028 15.83-21.347 3.758-3.118 7.915-3.558 12.512-1.32 7.516 3.998 22.067 8.875 26.664 8.875 4.997 0 19.588.88 28.743-.88 9.594-2.238 17.11-7.994 25.424-.879 3.318 3.079 8.755 7.556 12.513 10.194 3.318 2.679 11.233 7.116 12.472 8.915.84 1.759 2.919 3.558 3.358 4.437.84.44.84 1.76 2.08 1.76.839-.44-.4-1.32-.4-2.2 0-.919.4-3.118-.44-4.437.84.44 2.918 1.759 4.157 1.759 1.28.44 1.679.44 2.519.88.4.44.4 1.359.839.879.84-.88.4-1.759-.84-3.998 0 0 .4 0 .84.48.4.88 1.24.44 1.24.44s-.4-1.36-.84-2.679c-.4-1.319-.84-2.238-1.24-3.118-.839-.88-3.357-1.319-3.357-1.319s-.4-.44-.8-1.359c-.84-.44-5.437 0-5.836-.44-.44 0-6.277-5.317-6.676-6.636-.84-.92.4-3.558 1.239-3.118.84.44 3.358.88 4.597 2.639.84.919 2.479 2.678 3.318 3.557 1.28.92.44 1.36 1.28 1.36.4-.44.799-1.36 0-2.679h2.078c.8.44 2.079.44 2.479 1.32.44.919.44 1.798.839 1.359.4-.92.4-3.119-1.679-6.237 0 0 1.679 0 2.519.88.4-.88-1.68-4.438-3.358-5.757-1.24-.88-4.158-1.359-4.997-1.799-1.24-.88-2.479-1.759-4.558-2.198-2.078-.92-1.279-.92-2.518-3.558 0-.88 0-1.799.84-2.678l-.84.879c1.24-3.118 6.276-9.314 15.83-8.875 0 0 2.519.88 7.516 0 5.396-.88 11.233 3.558 14.151 4.877 3.358 1.36 9.195-1.759 11.673-2.198 2.079-.92 5.437-1.8 7.076-4.917 2.079-3.558-1.64-8.435-4.158-14.192-2.078-5.796-5.396-10.233-6.236-14.231.4-9.794-4.597-11.113-4.597-11.113s-4.997-4.877-7.516-11.114c-2.918-6.236-4.557-8.434-7.915-12.872 0 0 .84-13.791-9.154-22.666-9.994-8.915-12.513-4.917-10.834 1.759 1.24 7.116 1.68 12.872 1.68 12.872s-1.68 1.36-6.277-1.32C80.391.76 42.454 41.656 37.058 61.204z" fill="#e6e6e6" fill-rule="evenodd" fill-opacity="1" stroke="none"/><path d="M61.283 115.49c3.758 2.678 19.188 1.32 23.346.44 11.273-3.118 21.267-9.794 28.742-19.149 7.915-10.673 12.513-26.224 12.073-40.055.44 2.678 4.197 5.796 5.836 7.595 3.758 3.998 7.516 7.116 9.595 12.912 3.318 8.875-4.598 22.227-10.394 28.463-5.437 5.796-11.673 10.234-19.188 12.912-6.676 1.76-14.592 3.558-21.667 4.437-9.155 1.32-16.23-1.319-24.985-3.118z" fill="#d6d6d6" fill-rule="evenodd" fill-opacity="1" stroke="none"/><path d="M59.124 127.323c.44.92 1.28 1.359 2.119 1.799 2.079.92 8.715 3.598 10.394 4.517 1.239.88 2.918 4.477 4.157 6.716 0 .44.44.88.84.88.44.919.44 1.359.44 1.359.399 0 .399-.44.399-.92 0-.44.4-1.32.4-1.759-.4-2.238-.8-4.037-.8-4.037s4.997 0 6.237 1.319c1.239 1.359 3.757 4.477 4.157 5.397.44.88 1.24 1.359 2.079 1.798.44.44.44 1.32.84 1.32.399 0 0-.88 0-1.32 0-1.359-.4-4.957-.4-4.957s1.638.48 2.918.92c.8 0 2.078.88 2.478.88.44 0 .44.44.84.44.4-.44.4-.44 0-1.32-.4-.44-.4-1.799-.84-1.799 0-.44 1.24-.44 2.079 0 .44.44.84.88 1.24 0l-.8-.88c-.84-1.359-2.519-3.158-3.358-3.597-1.24-.92-2.919-1.8-5.397-2.239-6.276 0-12.512-.48-15.43-.48-2.48 0-8.755-1.759-14.592-4.037z" fill="#ccc" fill-rule="evenodd" fill-opacity="1" stroke="none"/><path d="M20.747 137.237c1.68-4.038 7.116-9.355 10.874-11.153 1.24-.88 2.478-2.2 2.918-2.2 3.718-3.117 7.915-3.557 12.473-1.358 7.515 4.037 22.106 8.914 26.703 8.914 4.997 0 19.588.88 28.743-.88 9.594-2.238 17.07-8.034 25.424-.919 3.318 3.119 8.755 7.596 12.513 10.234 3.318 2.679 11.233 7.116 12.512 8.915.8 1.759 2.879 3.558 3.318 4.437.84.44.84 1.76 2.08 1.76.839-.44-.4-1.32-.4-2.2 0-.88.4-3.118-.44-4.437.84.44 2.918 1.759 4.157 1.759 1.28.44 1.679.44 2.519.88.4.44.4 1.359.839.919.84-.92.4-1.799-.84-4.038 0 0 .4 0 .84.48.4.88 1.24.44 1.24.44s-.4-1.36-.84-2.679c-.4-1.319-.84-2.238-1.24-3.118-.839-.88-3.317-1.319-3.317-1.319s-.44-.44-.84-1.359c-.84-.44-5.437 0-5.836-.44-.44 0-6.277-5.317-6.676-6.676-.84-.88.4-3.558 1.239-3.078.84.44 3.358.88 4.597 2.639.84.919 2.479 2.678 3.318 3.557 1.28.92.44 1.36 1.28 1.36.4-.44.799-1.36 0-2.679h2.078c.84.44 2.079.44 2.479 1.32.44.919.44 1.798.839 1.359.44-.44.44-1.8-.4-3.558-2.518-1.36-5.836-3.118-6.676-5.357-.84-.88 0-2.199.4-3.558-.4-.44-.84-.44-.84-.44-1.239-.88-2.478-1.759-4.557-2.238-2.078-.88-1.239-.88-2.518-3.558 0-.88 0-1.759.84-2.639l-.84.88c1.28-3.118 6.276-9.354 15.83-8.875 0 0 2.519.88 7.516 0h2.918c2.079-.48 3.758-.92 5.437 0 2.918 1.32 4.157 3.078 7.475 3.558 2.918 0 5.437-.48 7.915-1.359 5.437-2.199 10.834-5.757 6.676-12.432.84 7.115-4.557 6.675-9.594 5.316-2.079-.44-4.557-1.319-6.636-2.198-2.918-.92-3.358-3.558-6.676-3.558-3.358-.48-6.276 0-9.594 0-2.518-.48-4.597-.48-6.676-.48-2.079 0-4.597-.44-6.676-.88-2.478-.44-3.718-3.557-6.236-3.997-7.516-2.239-8.755 6.676-14.192 8.915-4.157 2.198-7.915 3.997-11.632 7.115-4.198 3.078-9.195 5.757-14.192 7.076-12.073 4.038-25.824 4.038-38.337 2.678-9.594-1.319-19.188-8.434-28.782-5.316-4.997 1.319-7.915 5.756-12.073 9.314-4.157 3.558-9.994 8.915-10.434 15.15z" fill="#ccc" fill-rule="evenodd" fill-opacity="1" stroke="none"/><path d="M105.416 117.729c10.834-3.558 20.388-11.553 26.664-21.787 3.318-5.357 5.796-11.153 3.718-17.83-1.64-3.997 1.279-8.914 3.757-7.994 2.479.879 4.997 2.198 7.076 3.997 2.079 1.799 2.479 3.998 4.158 6.236 1.679 1.32 2.478 1.32 2.478 3.998.44 1.799-.4 2.678.44 4.917 1.24 3.118 4.157 5.317 6.636 7.555 4.157 3.998-2.079 5.357-5.797 6.237-5.436.879-10.833 1.758-16.23 3.557-2.518.88-7.915 4.917-10.833 4.438zM157.864 17.79c4.158-.88 9.595 7.515 11.673 10.593 2.079 3.558 4.957 9.754 2.479 13.711-4.158-.879-4.158-7.955-5.837-11.033-2.478-4.877-5.796-11.513-9.994-14.631zM151.708 54.527c-5.836-1.799-3.318 2.638-3.318 6.196 0 .88-1.679 6.636 1.64 4.438.839-.88-.4-3.558 0-4.878.439-1.758 1.238-2.198 2.478-3.557zM150.869 48.37c-2.519-5.756-5.877-7.954-11.713-8.834-5.037-.48-10.474-.48-10.474 6.596 2.958-.88 5.876-3.518 9.234-3.518 2.08 0 5.397 1.76 7.516 2.639 2.918 1.359 1.679 2.678 2.918 4.877.84 3.078 1.68.88 4.158 1.319-.4-.88-.4-1.76-.8-2.639zM154.187 127.323c2.518.92 2.518 0 4.557 2.318.84.88 2.478 2.28 2.478 4.078-1.639-.88-3.278-1.36-4.957-1.799z" fill="#ccc" fill-rule="evenodd" fill-opacity="1" stroke="none"/><path d="M181.69 87.427c-.84-.88.8-4.837-3.358-7.036-3.758-2.638-6.676 1.76-6.676 1.76-.44 3.077 1.24 5.276 3.318 6.155 1.679.88 5.437-.879 5.437-.879h1.279z" fill="#fff" fill-rule="evenodd" fill-opacity="1" stroke="none"/><path d="M173.295 81.59c1.24-2.238 3.758-2.238 5.437-.879 2.078 1.32 2.478 3.998.84 5.797-1.28 1.759-3.759 2.198-5.438.879-1.679-1.32-2.118-3.998-.839-5.796z" fill="#949494" fill-rule="evenodd" fill-opacity="1" stroke="none"/><path d="M175.374 82.99c.4-.92 1.279-.92 2.118-.44.84.88.84 1.759.44 2.638-.44.44-1.719.88-2.159 0-.839-.44-1.279-1.319-.4-2.198z" fill="#303030" fill-rule="evenodd" fill-opacity="1" stroke="none"/><path d="M193.363 74.115c.44.88.44 3.558 1.679 4.437-.4-.44-.4-.44-.4-.88.4-9.793-4.677-11.112-4.677-11.112l-.44-.48c.44 1.36.88 2.678 1.72 3.598.839 1.319 1.678 2.638 2.118 4.437z" fill="#949494" fill-rule="evenodd" fill-opacity="1" stroke="none"/><path d="M97.421 129.681c5.037-.88 10.434-3.078 15.03-5.316 2.08-.88 4.158-.88 6.277-2.199 3.318-1.32 5.397-3.998 7.476-7.116 1.279-.88 4.197-5.317 5.036-2.638.8 1.759-1.279 4.437-1.679 6.196-.839 2.239-.839 5.317 0 7.556.4 1.758 1.68 3.078 2.479 4.837-2.079-.44-3.318-3.079-4.997-4.398-1.639-.92-3.318-1.799-4.997-2.238-4.157-.88-8.755 1.319-12.912 2.238zM148.31 121.167c-2.119 1.758-2.119 7.515-2.119 10.153 2.12-3.078 3.798-2.198 6.317-1.319-1.24-1.759-4.198-6.636-2.919-9.314zM69.598 131.92c2.518.88 4.157 2.678 5.836 4.437 2.079-4.437 11.233 0 13.272-5.356-4.957 2.238-11.193 0-15.75.919zM37.457 119.847c4.997-2.678 9.195 1.36 14.152 2.679-2.879-.88-3.718-4.478-6.236-5.357-2.08-.48-5.397.44-7.076 2.239zM185.048 103.897c0 2.199.84 4.397 2.518 5.277 1.24.44 4.118.88 4.118-.44-3.318 0-2.479-5.716-6.636-5.716z" fill="#b8b8b8" fill-rule="evenodd" fill-opacity="1" stroke="none"/><path d="M196.64 105.256c2.12.44.44 2.639 3.359 2.199 1.679-.44 2.518-1.76 3.358-3.558-1.24.48-1.68 1.36-3.358 1.36-1.24 0-2.519-.44-3.358 0z" fill="#878787" fill-rule="evenodd" fill-opacity="1" stroke="none"/><path d="M149.59 54.567c-2.919.44-1.64 3.078-.4 4.797.4-1.719.8-3.038 2.038-4.357zM131.32 41.255c1.24-1.32 2.479-1.32 4.558-.88h4.557c3.318 0 6.636 1.32 7.435 4.838-1.639-3.958-6.196-3.518-9.114-3.958-1.64 0-3.318.44-4.957 0-1.24 0-2.479-.88-3.758.44z" fill="#b8b8b8" fill-rule="evenodd" fill-opacity="1" stroke="none"/><path d="M152.508 35.379c.84.48 2.118.48 3.358 0-.4.48-.4 1.439-.4 2.398z" fill="#ccc" fill-rule="evenodd" fill-opacity="1" stroke="none"/><path d="M161.222 52.408c-5.756 5.317-7.035 22.587-2.038 28.303-1.24-3.518-.84-7.955-.84-11.913.4-2.238-.4-3.558.4-7.075.44-2.679.84-6.636 2.478-9.315z" fill="#fff" fill-rule="evenodd" fill-opacity="1" stroke="none"/><path d="M128.682 50.09c0 2.678 3.398 8.475 5.077 10.273 2.518 3.558 6.276 4.438 9.634 6.197-3.358-2.639-6.276-4.877-8.395-7.995-1.679-2.679-5.037-5.357-6.316-7.996z" fill="#f5f5f5" fill-rule="evenodd" fill-opacity="1" stroke="none"/><path d="M125.444 46.572c-2.519 4.477.44 14.71 2.918 18.708 2.119 2.679 4.198 4.917 5.437 8.036 1.24 2.238 1.679 6.236 3.358 8.434 1.679-1.319 1.679-3.557 2.918-5.316.84-1.36 2.519-2.239 2.918-3.998.4-3.598-5.436-4.917-7.515-6.236-4.198-3.598-9.195-7.596-10.034-13.832z" fill="#ccc" fill-rule="evenodd" fill-opacity="1" stroke="none"/><path d="M140.035 69.198c2.479 1.36 4.118 1.36 6.196 3.998 1.24 2.238 2.439 7.115-.84 8.874zM140.435 31.94c2.918 3.558 7.475 5.357 10.354 9.355.84.88 2.078 5.317 2.518 5.317 2.878 1.319 1.64-4.877 1.24-6.196-.4-3.119-.4-3.119-2.48-3.998-2.518-1.36-4.996-2.678-7.475-3.558-4.157-1.799-7.915-3.997-12.072-4.917 1.679 2.239 7.475 4.917 9.994 6.236z" fill="#ccc" fill-rule="evenodd" fill-opacity="1" stroke="none"/><path d="M37.937 74.555c4.197-19.508 12.512-35.978 34.14-43.974C94.142 22.586 98.7 25.265 98.7 25.265c-10.394 2.238-47.011 5.316-60.763 49.29z" fill="#fff" fill-rule="evenodd" fill-opacity="1" stroke="none"/><path clip-path="url(#a)" d="M15.03 129.162c-2.917 6.676-15.07 27.143 8.756 41.335-6.237-3.998-17.11-15.55-8.755-41.335z" fill="#fff" fill-rule="evenodd" fill-opacity="1" stroke="none"/><path d="M147.47 115.81c2.919-4.877 7.916-9.355 13.353-8.875 2.518 0 5.036.44 7.515 0 2.518 0 5.037.88 7.515.44-7.075-.92-14.59-4.038-22.146-1.36-2.479.92-5.397 2.68-6.676 5.358-1.68 3.997-2.079 9.354-2.519 13.791.44-1.32.84-2.638 1.28-3.558.4-2.198 1.679-3.997 2.918-5.796z" fill="#b8b8b8" fill-rule="evenodd" fill-opacity="1" stroke="none"/><path clip-path="url(#a)" d="M37.058 61.203c-6.676 24.025-4.158 33.78-6.676 41.815-2.919 7.555-18.31 18.189-22.907 41.295-3.357 15.11 6.676 31.58 48.73 40.895 42.495 9.354 66.28 3.558 87.108 4.437 21.227.92 65 .48 79.552 22.666-14.551-22.186-53.728-26.184-74.995-27.103-20.827-1.32-41.255 2.678-83.749-6.636-34.979-9.355-48.33-18.23-45.412-33.34 2.078-9.794 13.751-20.028 15.83-21.347 3.758-3.118 7.915-3.558 12.512-1.32 7.516 3.998 22.067 8.875 26.664 8.875 4.997 0 19.588.88 28.743-.88 9.594-2.238 17.11-7.994 25.424-.879 3.318 3.079 8.755 7.556 12.513 10.194 3.318 2.679 11.233 7.116 12.472 8.915.84 1.759 2.919 3.558 3.358 4.437.84.44.84 1.76 2.08 1.76.839-.44-.4-1.32-.4-2.2 0-.919.4-3.118-.44-4.437.84.44 2.918 1.759 4.157 1.759 1.28.44 1.679.44 2.519.88.4.44.4 1.359.839.879.84-.88.4-1.759-.84-3.998 0 0 .4 0 .84.48.4.88 1.24.44 1.24.44s-.4-1.36-.84-2.679c-.4-1.319-.84-2.238-1.24-3.118-.839-.88-3.357-1.319-3.357-1.319s-.4-.44-.8-1.359c-.84-.44-5.437 0-5.836-.44-.44 0-6.277-5.317-6.676-6.636-.84-.92.4-3.558 1.239-3.118.84.44 3.358.88 4.597 2.639.84.919 2.479 2.678 3.318 3.557 1.28.92.44 1.36 1.28 1.36.4-.44.799-1.36 0-2.679h2.078c.8.44 2.079.44 2.479 1.32.44.919.44 1.798.839 1.359.4-.92.4-3.119-1.679-6.237 0 0 1.679 0 2.519.88.4-.88-1.68-4.438-3.358-5.757-1.24-.88-4.158-1.359-4.997-1.799-1.24-.88-2.479-1.759-4.558-2.198-2.078-.92-1.279-.92-2.518-3.558 0-.88 0-1.799.84-2.678l-.84.879c1.24-3.118 6.276-9.314 15.83-8.875 0 0 2.519.88 7.516 0 5.396-.88 11.233 3.558 14.151 4.877 3.358 1.36 9.195-1.759 11.673-2.198 2.079-.92 5.437-1.8 7.076-4.917 2.079-3.558-1.64-8.435-4.158-14.192-2.078-5.796-5.396-10.233-6.236-14.231.4-9.794-4.597-11.113-4.597-11.113s-4.997-4.877-7.516-11.114c-2.918-6.236-4.557-8.434-7.915-12.872 0 0 .84-13.791-9.154-22.666-9.994-8.915-12.513-4.917-10.834 1.759 1.24 7.116 1.68 12.872 1.68 12.872s-1.68 1.36-6.277-1.32C80.391.76 42.454 41.656 37.058 61.204" fill="none" stroke="#333" stroke-width=".79951543px" stroke-linecap="round" stroke-linejoin="round" stroke-miterlimit="4" stroke-dasharray="none" stroke-opacity="1"/><path d="M156.665 51.01c-2.478-8.876-15.43-23.946-27.143-13.313-12.113 10.634 3.757 27.943 8.354 29.702 4.598 2.199 9.635 4.437 10.874 7.955" fill="none" stroke="#333" stroke-width=".79951543px" stroke-linecap="round" stroke-linejoin="round" stroke-miterlimit="4" stroke-dasharray="none" stroke-opacity="1"/><path d="M151.708 54.567c-4.637 0-5.517 1.36-3.798 3.998 2.12 3.118-1.279 6.236 1.68 7.995" fill="none" stroke="#333" stroke-width=".79951543px" stroke-linecap="round" stroke-linejoin="round" stroke-miterlimit="4" stroke-dasharray="none" stroke-opacity="1"/><path d="M189.205 107.335c-2.918 3.598-10.873 17.39-8.355 25.824M187.846 107.015c-2.478 2.239-12.033 19.548-12.472 23.506M187.047 106.056c-4.118 3.118-14.072 16.47-16.15 19.108M209.993 92.704c-2.079.92-6.676 2.758-7.116 3.198M206.635 91.025c-1.24.44-3.318 3.078-3.758 3.518M207.514 85.188c-2.118 1.36-5.077 6.756-5.516 8.555M190.005 108.694c-1.64 2.239-5.837 16.07-4.997 23.186M187.047 104.697c-1.64.919-15.351 10.793-21.188 13.032M203.357 96.262c1.239-.44 2.478-.92 4.477.44" fill="none" stroke="#333" stroke-width=".31980619px" stroke-linecap="round" stroke-linejoin="round" stroke-miterlimit="4" stroke-dasharray="none" stroke-opacity="1"/><path d="M181.69 87.427c-.84-.88.8-4.837-3.358-7.036-3.758-2.638-6.676 1.76-6.676 1.76-.44 3.077 1.24 5.276 3.318 6.155 1.679.88 5.437-.879 5.437-.879h1.279z" fill="none" stroke="#333" stroke-width=".79951543px" stroke-linecap="round" stroke-linejoin="round" stroke-miterlimit="4" stroke-dasharray="none" stroke-opacity="1"/><path d="M173.295 81.59c1.24-2.238 3.758-2.238 5.437-.879 2.078 1.32 2.478 3.998.84 5.797-1.28 1.759-3.759 2.198-5.438.879-1.679-1.32-2.118-3.998-.839-5.796" fill="none" stroke="#333" stroke-width=".79951543px" stroke-linecap="round" stroke-linejoin="round" stroke-miterlimit="4" stroke-dasharray="none" stroke-opacity="1"/><path d="M175.374 82.99c.4-.92 1.279-.92 2.118-.44.84.88.84 1.759.44 2.638-.44.44-1.719.88-2.159 0-.839-.44-1.279-1.319-.4-2.198M95.422 138.516c-2.079-2.199-3.718-3.518-5.836-3.958-1.64-.44-7.076-2.678-7.516-2.678M89.906 139.316c-.8-1.32-1.64-3.079-2.479-3.518-.84-.44-8.355-3.118-9.194-3.118M77.113 135.878c0-1.36-1.359-3.198-1.359-3.198" fill="none" stroke="#333" stroke-width=".79951543px" stroke-linecap="round" stroke-linejoin="round" stroke-miterlimit="4" stroke-dasharray="none" stroke-opacity="1"/><path d="M59.124 127.323c.44.92 1.28 1.359 2.119 1.799 2.079.92 8.715 3.598 10.394 4.517 1.239.88 2.918 4.477 4.157 6.716 0 .44.44.88.84.88.44.919.44 1.359.44 1.359.399 0 .399-.44.399-.92 0-.44.4-1.32.4-1.759-.4-2.238-.8-4.037-.8-4.037s4.997 0 6.237 1.319c1.239 1.359 3.757 4.477 4.157 5.397.44.88 1.24 1.359 2.079 1.798.44.44.44 1.32.84 1.32.399 0 0-.88 0-1.32 0-1.359-.4-4.957-.4-4.957s1.638.48 2.918.92c.8 0 2.078.88 2.478.88.44 0 .44.44.84.44.4-.44.4-.44 0-1.32-.4-.44-.4-1.799-.84-1.799 0-.44 1.24-.44 2.079 0 .44.44.84.88 1.24 0l-.8-.88c-.84-1.359-2.519-3.158-3.358-3.597-1.24-.92-2.919-1.8-5.397-2.239-6.276 0-12.512-.48-15.43-.48-2.48 0-8.755-1.759-14.592-4.037M164.18 147.87c-1.239-1.759-3.317-3.118-4.557-3.557-1.279 0-7.115-2.28-7.115-2.28M157.545 148.35c-.84-.88-4.198-3.518-5.037-3.997M157.864 134.998c-.8-2.198-1.239-4.397-2.478-6.156-1.64-1.759-3.718-3.118-4.158-3.118M161.702 131.32c-.84-.84-2.918-3.877-4.637-4.317M147.87 133.719c-2.438-2.678-3.677-5.357.8-16.55M160.902 141.714h-4.237M156.185 33.78c0 1.319 0 2.158-.32 3.437" fill="none" stroke="#333" stroke-width=".79951543px" stroke-linecap="round" stroke-linejoin="round" stroke-miterlimit="4" stroke-dasharray="none" stroke-opacity="1"/><path d="M174.174 82.83c0-.56.48-1.08 1-1.08.56 0 1 .52 1 1.08 0 .6-.44 1.08-1 1.08-.52 0-1-.48-1-1.08z" fill="#fff" fill-rule="evenodd" fill-opacity="1" stroke="none"/><path d="M155.906 51.409c1.199-.4 2.798-.84 2.798-2.559-1.2-.88-2.798 0-3.598.84M147.99 74.595c-.4 0 .72-1.36.72-1.84M150.389 55.087c0-.44-.32-.92-.32-1.84" fill="none" stroke="#e6e6e6" stroke-width="1.6789824px" stroke-linecap="butt" stroke-linejoin="miter" stroke-miterlimit="8" stroke-dasharray="none" stroke-opacity="1"/><path d="M154.227 143.913c-.4.92-.84 1.399-1.28 1.839M151.748 127.363c.8-.4 1.2-.8 1.2-1.6M154.227 129.761c.44-.44 1.279-.88 1.679-1.359" fill="none" stroke="#ccc" stroke-width="1.6789824px" stroke-linecap="butt" stroke-linejoin="miter" stroke-miterlimit="8" stroke-dasharray="none" stroke-opacity="1"/></svg>