<svg xmlns="http://www.w3.org/2000/svg" version="1.0" viewBox="0 0 327.08 259.994"><defs><clipPath clipPathUnits="userSpaceOnUse" id="a"><path d="M3.118 3.438H329.8V263.6H3.118z"/></clipPath></defs><path clip-path="url(#a)" d="M177.213 85.108c-5.597 35.22-27.983 151.668-29.662 158.824-3.918 16.15-6.157 18.509-22.427 18.509H19.268c-18.508 0-16.23-13.112-12.312-31.021 3.917-19.708 31.34-146.312 31.34-146.312 2.24-10.753 8.436-17.35 22.427-17.35h96.342c15.11 0 21.827 4.798 20.148 17.35z" fill="#e8eef1" fill-rule="evenodd"/><path d="M11.993 253.486c-2.279-2.998 0-13.751 1.679-20.307 3.917-19.708 30.781-145.152 31.34-146.352v-.6c1.68-8.354 6.157-11.352 15.711-11.352h96.342c9.514 0 11.193 1.799 12.312 2.398 1.68 1.8 1.12 4.797 1.12 6.596-6.157 35.818-27.983 152.268-29.103 158.264-1.679 4.757-2.798 10.154-4.477 11.353-1.679 1.2-6.756 1.76-11.793 1.76H19.268c-3.917 0-6.716-.56-7.275-1.76z" fill="#f1f5f6" fill-rule="evenodd"/><path d="M36.178 224.144c3.358 7.196 17.91 6.596 24.625 7.196 16.23.6 62.123 1.759 67.16 0 6.715-2.399 7.275-10.154 8.954-16.75 3.918-14.911 8.395-31.021 8.395-46.572 0-8.954-2.798-10.154-6.156-17.31-1.12-2.958-2.799-11.352-6.157-11.352-2.238-.6-12.312 10.753-13.431 11.952-11.194 10.154-19.589 23.906-33.58 29.862z" fill="#e8eef1" fill-rule="evenodd"/><path d="M35.538 219.987v-46.052c0-10.794 3.958-10.794 9.555-10.794h75.114c6.716 0 7.835 4.198 7.835 8.995v46.651c0 5.997-2.238 7.756-6.716 7.756H42.294c-5.037 0-6.756-1.16-6.756-6.556z" fill="#ffe98f" fill-rule="evenodd"/><path d="M124.125 121.446c-7.835 0-56.566-.6-64.96-.6-8.955 0-11.194 2.4-12.313 5.997-.56 2.998-8.955 31.061-10.674 40.616h.56c1.159-4.158 4.517-4.158 8.435-4.158h75.034c6.716 0 7.835 4.158 7.835 8.955v49.57c1.68-5.957 3.918-17.91 6.157-29.862 1.679-8.955 3.917-19.708 3.917-22.707v-38.216c0-9.595-6.716-9.595-13.991-9.595z" fill="#fff2c0" fill-rule="evenodd"/><path d="M59.044 143.513c.56 4.197 5.597 8.955 8.395 11.353 1.68 1.799 7.835 4.198 10.634 5.397 6.716 1.759 16.79 1.2 22.946-2.998 5.596-3.598 10.633-10.754 8.954-18.51-1.119-4.197-2.798-4.197-5.596-4.197-2.799-.6-5.597-2.958-7.276-4.757-6.156-4.197-11.753-7.195-19.588-4.797z" fill="#ffe98f" fill-rule="evenodd"/><path d="M55.766 122.606c-4.477 0-6.156 1.199-7.275 4.197-1.12 2.998-8.395 32.82-8.395 32.82-.56 1.76 0 1.76 3.917 1.2h20.148c-3.358-.6-18.469-1.8-19.588-4.198-.56-2.398 3.918-22.666 5.037-26.264 1.679-6.556 3.358-6.556 6.156-7.755zm-18.469 99.22v-47.851c0-4.798.56-8.995 6.716-8.995h41.895c-13.952 1.799-32.94 2.998-37.977 4.197-4.477 1.2-7.276 2.999-7.835 11.993 0 8.955-2.799 40.656-2.799 40.656z" fill="#fff" fill-rule="evenodd"/><path d="M126.923 168.578v47.89c0 4.798-.56 8.955-6.716 8.955H78.073c14.071-1.759 33.14-2.958 38.217-4.157 4.477-1.2 7.275-2.998 7.835-11.993 0-8.954 2.798-40.695 2.798-40.695z" fill="#ffe074" fill-rule="evenodd"/><path d="M127.922 221.826c1.72-5.957 3.958-17.91 6.237-29.822 1.719-8.955 3.957-19.708 3.957-22.707v-38.176c0-4.198-1.119-6.596-3.398-7.796.6 5.997-1.679 13.152-3.398 24.505-1.119 6.556-3.398 12.513-5.116 17.31 1.718 1.799 1.718 4.157 1.718 7.156v49.53z" fill="#ffe04f" fill-rule="evenodd"/><path d="M67.999 151.228c.6 1.2 2.838 2.399 3.957 3.598 1.68 1.2 3.358 1.8 5.597 2.399 3.958 1.199 8.995 1.199 12.952 0 3.918-1.2 7.875-4.198 10.674-7.196 2.798-2.398 5.596-7.795 5.596-11.993-2.238 1.8-4.477 3.598-6.716 5.397-2.838 2.399-5.636 5.397-8.994 5.996-3.398.6-6.196 1.2-9.554 1.8z" fill="#ffe260" fill-rule="evenodd"/><path clip-path="url(#a)" d="M177.213 85.108c-5.597 35.22-27.983 151.668-29.662 158.824-3.918 16.15-6.157 18.509-22.427 18.509H19.268c-18.508 0-16.23-13.112-12.312-31.021 3.917-19.708 31.34-146.312 31.34-146.312 2.24-10.753 8.436-17.35 22.427-17.35h96.342c15.11 0 21.827 4.798 20.148 17.35" fill="none" stroke="#1a171b" stroke-width=".8" stroke-linecap="round" stroke-linejoin="round"/><path d="M11.993 253.486c-2.279-2.998 0-13.751 1.679-20.307 3.917-19.708 30.781-145.152 31.34-146.352 0 0 0 0 0 0v-.6c1.68-8.354 6.157-11.352 15.711-11.352h96.342c9.514 0 11.193 1.799 12.312 2.398 1.68 1.8 1.12 4.797 1.12 6.596 0 0 0 0 0 0-6.157 35.818-27.983 152.268-29.103 158.264-1.679 4.757-2.798 10.154-4.477 11.353-1.679 1.2-6.756 1.76-11.793 1.76H19.268c-3.917 0-6.716-.56-7.275-1.76" fill="none" stroke="#1a171b" stroke-width=".8" stroke-linecap="round" stroke-linejoin="round"/><path d="M134.758 125.564c0 5.996-5.117 32.38-7.435 37.177m-91.785 57.246v-46.052c0-10.794 3.958-10.794 9.555-10.794h75.114c6.716 0 7.835 4.198 7.835 8.995v46.651c0 5.997-2.238 7.756-6.716 7.756H42.294c-5.037 0-6.756-1.16-6.756-6.556" fill="none" stroke="#1a171b" stroke-width=".8" stroke-linecap="round" stroke-linejoin="round"/><path d="M124.125 121.446c-7.835 0-56.566-.6-64.96-.6-8.955 0-11.194 2.4-12.313 5.997-.56 2.998-8.955 31.061-10.674 40.616h.56c1.159-4.158 4.517-4.158 8.435-4.158h75.034c6.716 0 7.835 4.158 7.835 8.955v49.57c1.68-5.957 3.918-17.91 6.157-29.862 1.679-8.955 3.917-19.708 3.917-22.707v-38.216c0-9.595-6.716-9.595-13.991-9.595" fill="none" stroke="#1a171b" stroke-width=".8" stroke-linecap="round" stroke-linejoin="round"/><path d="M135.238 126.204c-1.12 0-1.679-.64-2.239-.64m-4.557 36.458c-.48-.56-1-1.12-1.519-1.12" fill="none" stroke="#fff2c0" stroke-width=".8" stroke-linecap="round" stroke-linejoin="round"/><path d="M109.014 119.008c0-1.2 0-2.399-.56-2.998-.56-.6-1.119-.6-1.679 0 0 0-.56 1.799-.56 2.398-3.917 8.955-15.11 16.15-16.83 16.75.6.56 1.16.56 1.16 1.16.56 1.199.56 3.597 0 5.996-.56 5.956-3.957 10.154-9.554 11.353-3.918.6-8.955-.6-13.472-2.998 7.875 5.356 15.15 4.797 19.628 3.598 4.517-.6 14.591-4.798 18.509-13.752 4.477-8.355 3.918-19.109 3.358-21.507z" fill="#ffe074" fill-rule="evenodd"/><path clip-path="url(#a)" d="M197.44 155.586c-24.625-13.152-63.801-34.06-82.83-46.012-19.028-11.953-2.798-45.453 7.836-62.163 8.395-16.15 34.14-32.9 43.094-38.257 9.514-5.396 17.909-8.394 40.855 4.158 22.346 11.953 46.971 25.105 46.971 25.105s24.066 13.152 47.012 25.704c22.946 12.553 25.744 21.547 26.824 32.9 1.119 10.754 3.358 43.014-3.318 59.764-6.716 19.108-22.387 52.568-42.535 43.014-20.147-9.554-59.324-30.462-83.909-44.213z" fill="#e8eef1" fill-rule="evenodd"/><path d="M292.543 196.76c7.795-32.9 3.358-56.805-3.358-66.359-6.716-8.955-41.415-26.904-61.563-37.657h-.56c-20.147-10.754-53.687-31.101-64.88-31.101-10.634-.6-31.341 9.594-51.49 36.498-5.036 5.356 17.35 13.152 38.618 25.704 21.267 13.112 114.69 62.162 125.883 68.718 11.193 5.997 16.79 7.756 17.35 4.198z" fill="#dfe7eb" fill-rule="evenodd"/><path d="M295.381 122.046c5.597-6.596 16.23-21.507 19.588-33.46 1.68-4.797.56-10.154-5.596-13.751-8.955-5.957-40.296-23.266-52.049-29.822-12.312-6.596-50.97-27.504-59.924-31.661-13.431-6.596-18.468-5.996-21.826-.6-7.276 10.154-15.111 31.061-16.27 40.016-1.12 2.958-1.68 2.958 7.315 3.558 4.477.6 35.818 16.75 61.003 29.862 25.225 13.152 50.41 28.063 56.006 31.06 9.514 5.358 9.514 3.599 12.872 1.8z" fill="#f1f5f6" fill-rule="evenodd"/><path d="M90.465 136.437c.56 1.2.56 3.598 0 5.957-.56 5.996-3.917 10.194-9.514 11.393-7.835 1.759-19.029-4.797-23.506-13.152-1.679-4.198-2.238-7.796-.56-10.194 1.12-1.799 3.358-3.598 6.716-2.998 5.597.6 10.074 5.996 11.194 10.793 1.119 2.399.56 4.757-1.12 5.957-1.679 1.199-3.358 1.199-5.596 0-2.799-1.2-5.037-4.758-4.478-8.955 0 0 0-.6.56-.6l.56.6c-.56 3.598 1.679 6.556 3.917 7.755 1.12.6 2.799 1.2 4.478 0 1.119-1.199.56-2.958.56-4.157-1.12-4.198-5.597-8.995-10.634-9.594-2.239 0-3.918.6-5.037 2.398-1.12 1.8-1.12 4.198 1.12 8.395 3.917 7.755 12.871 12.553 20.707 11.353 3.358-.6 8.395-1.799 8.954-8.994.56-2.959.56-5.357.56-5.357v-1.799c.56.6 1.12.6 1.12 1.2z" fill="#fff4ca" fill-rule="evenodd"/><path d="M107.895 115.41s-.56 0-1.12.6c0 0-.56 1.799-.56 2.398-3.957 8.995-15.23 16.19-16.95 16.79.6.6.6.6 1.16.6h.56c2.798-.6 13.552-8.995 16.91-19.189v-1.199z" fill="#fff4ca" fill-rule="evenodd"/><path d="m64.161 134.678.56.56c-.56 3.558 1.679 6.516 3.917 7.715 1.12.6 2.799 1.16 4.478 0 1.119-1.199.56-2.958.56-4.157-.56-2.359-2.24-4.717-4.478-6.516-1.12 2.958-3.358 2.958-5.037 2.398z" fill="#ffda4e" fill-rule="evenodd"/><path d="M89.826 104.776c-4.478-1.199-8.955-1.199-20.148 5.997-12.313 8.355-13.992 17.909-13.992 23.905 0-1.799 0-2.998 1.12-4.197 1.119-1.799 3.358-3.598 6.716-2.998 5.596.6 10.073 5.996 11.193 10.753 1.119 2.399.56 4.797-1.12 5.997-1.119 1.199-3.358 1.199-5.596 0l.56.6c2.798 1.758 7.275 1.758 11.752.599 3.358-1.2 7.276-4.797 8.955-6.596v-3.558c.56.56.56.56 0 0 1.679 0 7.275-4.197 11.753-9.594.56-11.913-6.156-19.708-11.193-20.907z" fill="#ffe98f" fill-rule="evenodd"/><path d="M80.311 145.272c-4.477 1.2-8.954 1.2-11.753-.6l-.56-.6c-2.798-1.199-5.036-4.796-4.476-8.994 0 0 0-.6.56-.6 1.678.6 3.917.6 5.036-2.398-1.679-1.799-3.918-2.399-6.156-2.998-2.239 0-3.918.6-5.037 2.398-1.12 1.8-1.12 4.198 1.12 8.395 3.917 7.796 12.871 12.553 20.707 11.393 3.358-.6 8.395-1.799 8.954-8.994.56-1.2.56-2.399.56-3.598-1.68 1.799-5.597 5.397-8.955 6.596z" fill="#ffe074" fill-rule="evenodd"/><path d="M325.563 114.81c-.56-17.949-2.799-30.501-3.918-26.304-2.798 10.154-18.429 35.859-24.025 41.855-4.478 5.357 3.358 16.71 1.679 35.858-1.12 12.553-2.799 25.705-3.918 29.862 6.716-4.757 20.108-15.51 28.503-48.41 3.318-11.953 2.238-22.707 1.679-32.86z" fill="#d2dde3" fill-rule="evenodd"/><path d="M109.014 88.546c1.12-9.514 10.034-32.22 17.83-42.374 7.834-10.154 25.664-25.664 35.658-30.462-9.435 5.997-37.298 27.464-53.488 72.836z" fill="#fff" fill-rule="evenodd"/><path d="M211.832 77.833c15.71 7.795 50.969 27.503 62.202 33.46 10.633 6.556 17.35 11.952 19.028 13.152 2.239 1.759 9.515-7.196 16.23-20.908 6.716-13.751 6.157-16.71 5.597-19.708 0 7.156-6.156 15.51-12.872 25.065-6.716 8.955-20.707.6-30.781-4.757-10.114-4.797-50.97-24.505-59.404-26.304z" fill="#dfe7eb" fill-rule="evenodd"/><path d="M115.73 95.822c7.835-9.594 25.744-25.784 36.897-29.382 11.753-3.638 16.23-1.2 26.824 3.598 10.634 5.396 48.65 26.983 58.125 31.78-17.87-7.195-55.326-26.384-68.718-29.382-12.873-3.598-32.42 2.998-53.128 23.386z" fill="#d0dce2" fill-rule="evenodd"/><path d="M218.068 160.823c17.35 9.554 59.324 32.3 66.04 35.298 7.275 3.558 11.753-46.652 4.477-59.844 3.358 11.993-.56 39.496-4.477 48.451-3.918 8.995-51.489-17.31-66.04-23.905z" fill="#f2f5f7" fill-rule="evenodd"/><path d="M60.164 125.084c1.718-4.797 6.196-8.994 9.594-11.433 3.917-2.998 11.233-6.596 13.472-7.196 2.798-.64 8.434.6 11.233 4.198-2.799-2.399-9.554-2.399-14.032-.6-3.957 1.8-14.63 6.037-20.267 15.031z" fill="#fffaec" fill-rule="evenodd"/><path d="M107.735 121.486c.56 3.598 1.679 26.344-21.827 32.3 6.156-2.358 16.23-8.954 17.91-16.71 1.118-7.794-2.8-6.595-2.8-6.595 1.68-1.799 6.157-7.196 6.717-8.995z" fill="#ffda4e" fill-rule="evenodd"/><path d="M110.533 144.832c-1.08 4.717-7.156 12.952-12.712 14.711 8.874-1.759 12.712-8.794 12.712-14.71zm21.987-19.268c0 4.797-4.478 30.581-7.316 35.378-1.12 1.8-6.756-.6-20.268.6 4.518-.6 13.512-1.2 15.79-1.2 2.8-.599 4.478-2.398 5.637-5.396.56-2.998 6.157-29.382 6.157-29.382z" fill="#fffaec" fill-rule="evenodd"/><path d="M292.503 196.8c7.835-32.86 3.358-56.765-3.358-66.32-6.716-8.994-41.455-26.903-61.643-37.696m91.385-2.399c-3.358 12.553-15.151 31.021-20.788 37.577" fill="none" stroke="#1a171b" stroke-width=".8" stroke-linecap="round" stroke-linejoin="round"/><path clip-path="url(#a)" d="M197.44 155.586c-24.625-13.152-63.801-34.06-82.83-46.012-19.028-11.953-2.798-45.453 7.836-62.163 8.395-16.15 34.14-32.9 43.094-38.257 9.514-5.396 17.909-8.394 40.855 4.158 22.346 11.953 46.971 25.105 46.971 25.105s0 0 0 0 24.066 13.152 47.012 25.704c22.946 12.553 25.744 21.547 26.824 32.9 1.119 10.754 3.358 43.014-3.318 59.764-6.716 19.108-22.387 52.568-42.535 43.014-20.147-9.554-59.324-30.462-83.909-44.213" fill="none" stroke="#1a171b" stroke-width=".8" stroke-linecap="round" stroke-linejoin="round"/><path d="M110.533 98.22c20.188-26.983 40.895-37.177 51.529-36.577 11.233 0 44.813 20.387 64.96 31.18m-51.488-80.231c-7.316 10.194-15.231 31.181-16.39 40.136m-68.679 83.709c.56 1.2.56 3.598 0 5.957-.56 5.996-3.917 10.194-9.514 11.393-7.835 1.759-19.029-4.797-23.506-13.152-1.679-4.198-2.238-7.796-.56-10.194 1.12-1.799 3.358-3.598 6.716-2.998 5.597.6 10.074 5.996 11.194 10.793 1.119 2.399.56 4.757-1.12 5.957-1.679 1.199-3.358 1.199-5.596 0-2.799-1.2-5.037-4.758-4.478-8.955 0 0 0-.6.56-.6l.56.6c-.56 3.598 1.679 6.556 3.917 7.755 1.12.6 2.799 1.2 4.478 0 1.119-1.199.56-2.958.56-4.157-1.12-4.198-5.597-8.995-10.634-9.594-2.239 0-3.918.6-5.037 2.398-1.12 1.8-1.12 4.198 1.12 8.395 3.917 7.755 12.871 12.553 20.707 11.353 3.358-.6 8.395-1.799 8.954-8.994.56-2.959.56-5.357.56-5.357v-1.799c.56.6 1.12.6 1.12 1.2m.559-.64c2.838-.6 13.512-8.995 16.87-19.269" fill="none" stroke="#1a171b" stroke-width=".8" stroke-linecap="round" stroke-linejoin="round"/><path d="m64.161 134.678.56.56c-.56 3.558 1.679 6.516 3.917 7.715 1.12.6 2.799 1.16 4.478 0 1.119-1.199.56-2.958.56-4.157-.56-2.359-2.24-4.717-4.478-6.516-1.12 2.958-3.358 2.958-5.037 2.398" fill="none" stroke="#1a171b" stroke-width=".48" stroke-linecap="round" stroke-linejoin="round"/><path d="M109.014 119.008c0-1.2 0-2.399-.56-2.998-.56-.6-1.119-.6-1.679 0 0 0-.56 1.799-.56 2.398-3.917 8.955-15.11 16.15-16.83 16.75 0 0 0 0 0 0 .6.56 1.16.56 1.16 1.16.56 1.199.56 3.597 0 5.996-.56 5.956-3.957 10.154-9.554 11.353-3.918.6-8.955-.6-13.472-2.998 7.875 5.356 15.15 4.797 19.628 3.598 4.517-.6 14.591-4.798 18.509-13.752 4.477-8.355 3.918-19.109 3.358-21.507" fill="none" stroke="#1a171b" stroke-width=".8" stroke-linecap="round" stroke-linejoin="round"/><path d="M89.826 104.776c-4.478-1.199-8.955-1.199-20.148 5.997-12.313 8.355-13.992 17.909-13.992 23.905 0 0 0 0 0 0 0-1.799 0-2.998 1.12-4.197 1.119-1.799 3.358-3.598 6.716-2.998 5.596.6 10.073 5.996 11.193 10.753 1.119 2.399.56 4.797-1.12 5.997-1.119 1.199-3.358 1.199-5.596 0l.56.6c2.798 1.758 7.275 1.758 11.752.599 3.358-1.2 7.276-4.797 8.955-6.596v-3.558c.56.56.56.56 0 0 0 0 0 0 0 0 1.679 0 7.275-4.197 11.753-9.594.56-11.913-6.156-19.708-11.193-20.907" fill="none" stroke="#1a171b" stroke-width=".8" stroke-linecap="round" stroke-linejoin="round"/><path d="M80.311 145.272c-4.477 1.2-8.954 1.2-11.753-.6l-.56-.6s0 0 0 0c-2.798-1.199-5.036-4.796-4.476-8.994 0 0 0-.6.56-.6 0 0 0 0 0 0 1.678.6 3.917.6 5.036-2.398-1.679-1.799-3.918-2.399-6.156-2.998-2.239 0-3.918.6-5.037 2.398-1.12 1.8-1.12 4.198 1.12 8.395 3.917 7.796 12.871 12.553 20.707 11.393 3.358-.6 8.395-1.799 8.954-8.994.56-1.2.56-2.399.56-3.598-1.68 1.799-5.597 5.397-8.955 6.596" fill="none" stroke="#1a171b" stroke-width=".48" stroke-linecap="round" stroke-linejoin="round"/><path d="M320.006 92.184c-1.12-.6-2.239-1.799-2.798-.6-.56 1.2.56 1.2.56 1.8.56 1.199 1.678 1.798.56 2.398-1.12.6-2.24-.6-2.8-1.2m-16.229 33.38c-2.799-3.557 1.119-5.356 1.679-1.758M175.534 13.792c-1.12-.6-3.358-1.2-3.918.6-.56 1.798 1.679 1.199 2.239 1.798m-13.432 34.7c-1.12 0-3.918-.6-3.918-2.4.56-1.199 3.918-1.838 4.477-1.199" fill="none" stroke="#e8eef1" stroke-width=".8" stroke-miterlimit="8"/><path d="M111.213 97.5c-.6-.599-1.8-2.398-.6-2.997.6-.6 1.759.6 1.759 1.199m180.131 100.379c.56 0 2.238 0 1.679-.56 0-1.199-1.12-1.199-1.68-1.199" fill="none" stroke="#e8eef1" stroke-width=".8" stroke-linecap="round" stroke-linejoin="round" stroke-miterlimit="10"/></svg>