<svg xmlns="http://www.w3.org/2000/svg" version="1.0" viewBox="0 0 383.093 129.676"><defs><clipPath clipPathUnits="userSpaceOnUse" id="a"><path d="M1.919.32h382.648v129.76H1.919z"/></clipPath></defs><path clip-path="url(#a)" d="M283.328 6.756c33.68 0 52.389 7.995 73.596 26.644 15.59 13.991 43.034 43.314 11.233 55.286-15.59 5.997-31.181-.66-46.792 3.998-17.45 5.337-28.063 12.652-47.391 11.333-36.798-1.999-76.094-6.656-112.912-3.338-39.296 3.998-79.212 1.34-118.508-4.657C25.104 93.363.76 88.686 3.258 63.382c1.26-13.992 16.85-25.985 27.443-28.643 13.732-3.998 27.444-3.998 41.795-10.654C96.202 13.432 118.648 3.438 145.472 1.44c15.59-.68 31.2 3.998 46.791 3.998 11.853-.68 22.447-3.998 34.3-3.998 13.092.66 44.293 6.656 56.765 5.317z" fill="#a8263b" fill-rule="evenodd"/><path clip-path="url(#a)" d="M3.238 67.44c0 21.926 23.086 25.903 39.296 28.562 39.296 5.976 79.232 8.635 118.528 4.657 36.798-3.338 76.094 1.32 112.892 3.318 19.348 1.32 29.942-5.976 47.411-11.293 15.59-4.657 31.181 1.999 46.772-3.978 10.613-3.997 14.97-9.974 14.97-16.61 0 3.978.62 13.272-1.858 21.247-1.26 4.658-5.617 9.295-13.732 11.953-15.59 5.977-31.18 0-46.771 4.657-17.47 5.297-27.444 18.59-46.792 17.25-36.798-1.979-76.714-3.978-113.511-.66-39.296 3.978-79.232 2.659-118.528-3.318-14.332-1.998-31.801-12.612-36.798-27.883C3.238 87.367 3.238 67.44 3.238 67.44z" fill="#7f0329" fill-rule="evenodd"/><path d="M288.825 106.615c3.118 3.978-3.118 10.614 0 13.932 2.498 1.979 11.233-3.318 13.092-5.317 4.377-3.977 8.735-4.637 14.351-6.636 5.597-1.979 9.974-3.977 15.57-5.297-1.238-.66-1.858-1.998-1.858-3.977-.62-.66.62-3.978.62-4.657-1.24-3.318-6.237 0-8.735.68-8.715 2.638-17.45 5.956-25.545 9.274zm74.955-14.071c1.878 6.636-8.096 7.955-11.234 10.613 7.496 0 15.61.66 21.847-4.637 4.377-3.318 6.236-10.633 6.856-16.61-4.977 6.656-9.354 7.976-16.83 9.295zm-256.525 33.44c5.017 1.339 11.253-.66 16.87-.66 7.515 0 14.371 0 21.247-.68 6.256 0 12.492 0 18.749-.66 8.754-2.018 18.129-2.018 26.863-4.037-4.377-4.017-1.239-9.394 0-13.412.62-4.037-.62-4.037-4.377-4.717-4.357 0-8.735 2.02-13.112 2.02-3.118.679-5.617 1.338-8.755 1.338-2.498.68-4.997 0-6.876.68 2.519 6.036-10.613 11.413-14.351 12.752-11.253 4.697-24.385 7.376-35.618 7.376z" fill="#9d0629" fill-rule="evenodd"/><path d="M189.765 103.337c1.879 14.572 20.568 13.912 30.541 17.21-1.858 1.979-6.216 1.32-8.095 1.32-4.357 0-8.115-.66-11.852-1.32-4.358-.66-8.096.66-13.092.66-3.738.66-7.476-.66-11.833-.66-6.856-.66-13.732.66-19.968.66zM44.243 86.627c.63-3.997-.63-9.334 1.25-12.672 2.498-3.997 3.747-7.335 4.996-12.003.63-4.667 0-8.674 1.88-13.341 1.249-3.328 3.127-7.336 4.377-10.674 0 2.009.62 4.008 0 7.346 0 3.997-1.88 7.335-1.25 12.002.62 6.666-1.249 10.004-4.377 16.67-1.879 4.008-6.246 8.005-6.876 12.672zm26.874 6.716c3.738-5.316 7.475-13.312 10.593-21.966 3.119-7.336 5.597-15.99 6.856-23.306 1.86-9.994 7.476-25.984 14.931-33.32-3.717 4.677-4.357 10.674-5.596 16.67-.62 4.657-3.738 9.974-4.358 13.971-.62 3.998 1.24 6.676.62 11.334-.62 5.316-5.597 12.652-8.715 16.65-4.977 7.315-8.715 10.653-14.331 19.308zm33.18 5.277c18.089-11.313 16.23-41.255 21.827-59.244 4.377-13.971 9.994-27.963 21.826-36.618-13.092 12.653-17.45 40.616-21.187 57.925-2.498 9.315-1.26 19.968-8.115 27.304-3.738 4.657-10.593 6.656-14.351 10.633zm45.413-2.658c9.973-16.63 3.737-34.62 11.852-53.248 5.597-12.652 10.574-24.625 18.05-35.958-4.978 7.335-5.597 17.31-9.335 25.305-3.738 8.654-6.236 14.65-7.476 23.965-1.239 7.316-2.498 15.31-3.118 22.626-1.239 9.994-6.856 10.654-9.974 17.97z" fill="#9d0629" fill-rule="evenodd"/><path d="M41.135 48.61c9.374 1.32 21.847-4.637 31.201-7.295 13.112-3.318 27.444-6.636 41.175-7.296 13.112 0 24.325 4.638 36.818 4.638 13.092 0 27.443-3.318 40.535-4.638 24.965-1.319 49.91.66 74.875-1.319 14.351-.68 27.443-.68 41.175 2.639 6.236 1.339 9.974 3.318 16.21 1.998-18.089 6.636-38.676-.66-57.385-1.319-19.968 0-39.936.66-59.884 2.639-19.348 1.998-41.175 4.657-60.523 3.318-17.47-1.98-36.818-5.297-54.287-1.98zM32.42 59.444c7.496 2.678 16.87 0 24.965 0 11.873-.66 23.106-1.32 35.579-2.658 16.23-2 31.84 1.998 48.07 3.338 32.44 2.658 64.282-1.34 96.742-5.997 19.968-2.678 39.316-1.339 59.284.66 10.614 1.339 19.348 4.657 29.962 4.657 8.115 0 39.316-5.317 40.555 7.336-5.616-.66-9.354-3.998-14.97-4.658-6.857-.68-15.611-.68-22.467 0-13.112.66-27.463 3.318-39.936 0-27.463-7.335-60.543-2.678-88.007 1.32-24.345 3.338-50.549-1.32-76.153-1.32-12.473 0-22.467 5.317-35.579 2.659-6.236-1.34-11.233-3.338-18.089-2-6.236 1.34-11.853 4.658-18.729 2z" fill="#9d0629" fill-rule="evenodd"/><path d="M205.835 8.035c-11.853 13.992-11.233 32.64-13.112 49.97-1.859 13.312-8.735 21.307-13.112 32.62 2.499-3.318 6.256-5.976 8.755-9.314 4.357-6.656 4.997-13.992 6.856-21.987 4.377-14.651 3.138-37.297 10.613-50.61zm30.702 5.517c-3.758 4.657-5.017 13.312-6.257 19.288-1.259 7.975-3.138 14.631-5.656 21.947-1.879 4.657-1.879 8.635-3.758 12.632-1.879 3.998-4.377 7.316-6.276 10.634-1.879 3.338-3.758 5.316-6.256 7.995-1.26 1.979-3.778 3.977-3.778 7.295.64-2.658 5.017-5.316 7.535-6.636 3.139-2.658 5.637-5.996 8.156-9.974 1.878-3.997 3.757-8.654 5.636-13.311 1.879-3.318 3.758-6.636 3.758-10.634 0-7.975 2.518-13.952 4.397-21.947 1.26-5.316 0-11.952 2.499-17.29zm27.423-.8c-3.738 3.998-3.738 11.973-4.977 17.97-1.26 8.654-1.879 17.289-5.617 25.264-2.498 6.656-3.757 13.972-4.997 20.628-.64 5.316 0 11.313 0 15.29 0-13.951 4.997-27.923 9.974-41.235 2.499-5.976 1.88-12.632 3.139-18.608 1.239-3.338 2.478-7.336 2.478-10.654 0-3.318-1.859-5.976 0-8.655zm31.74 6.716c-5.576 6.656-8.674 16.65-10.533 24.625-2.478 7.995-1.24 16.65-3.098 24.625-1.859 7.996-4.337 16.65-6.836 24.625 3.118-3.977 4.358-8.634 6.836-13.292 3.098-7.335 3.718-13.991 4.337-21.307.62-6.656.62-13.312 3.099-19.308 1.858-5.976 4.337-13.312 6.196-19.288zm28.703 4.557c-4.937 11.334-8.035 23.986-8.035 36.638-.62 5.337-2.478 10.654-3.098 15.99-.62 4.658-3.098 9.315-3.098 13.972 1.24-7.315 5.577-13.312 7.436-20.627 1.239-5.997.62-11.334 1.239-17.33.62-4.657 3.098-9.994 3.718-15.31 1.239-4.658 1.239-9.335 1.838-13.333zm28.043 19.309c0 7.995-5.596 14.63-6.835 22.626-1.24 5.317-1.86 10.634-2.499 15.95 1.879-9.974 5.597-17.949 8.715-26.604 1.239-3.318 2.478-9.314 1.859-12.632-.62-3.318-1.24-5.317-1.24-8.655z" fill="#9d0629" fill-rule="evenodd"/><path d="M139.735 16.07c6.237-1.339 11.853-2.678 18.709-2.678 6.876.68 13.732 2.678 21.207 3.358 13.732 1.339 28.063-.68 42.414 0 13.092 0 26.205-2.019 39.916.66 5.617.679 6.236.679 12.473.679 3.118 0 13.092-.68 16.21 0-5.597-1.34-13.092.66-18.709-.68-6.856-1.339-13.092-1.339-19.328-2.678-14.351-2.678-29.942-1.999-44.273-1.34-11.853.68-23.706-.659-34.94-1.998-6.855-1.36-14.33-1.36-21.206-.68-5.597.68-9.974 4.018-14.971 4.698zM93.024 86.667c7.495-.68 14.35 1.34 21.826 1.34 8.735-.68 17.47-4.038 26.824-5.397 14.351-2.019 28.683-2.698 43.654-.66 14.351 1.34 28.063 4.717 42.414 3.358 9.974-.68 19.948-2.698 29.922-2.018 6.856.68 12.472 4.717 19.328 4.717-7.475 0-14.331-1.34-21.827-.68-7.475 0-15.59.68-23.066.68-13.711.68-26.184-2.699-39.296-3.378-6.856-.66-13.092-.66-19.328-1.34-7.476-.68-14.971-1.339-21.827 0-8.735 2.02-18.089 4.038-26.804 5.397-4.997.66-11.852.66-16.23-.68z" fill="#9d0629" fill-rule="evenodd"/><path d="M5.717 63.921c2.498-15.95 20.587-27.263 35.558-29.262 9.974-1.34 18.709-2.658 27.443-5.976 12.473-3.998 23.686-12.653 36.778-16.65-17.45 5.336-33.04 21.966-53.008 24.625-13.092 1.999-31.18 4.657-40.535 16.63-1.86 1.998-5.597 7.975-6.236 10.633zM237.656 6.756c4.997 1.32 25.584 4.637 31.82 5.297 6.257 0 20.608.66 27.464-.66 6.856-.66 23.086 1.999 29.942 4.637-8.095-3.977-21.207-6.636-29.942-6.636-9.354-.66-13.112 0-24.325 0-10.614 0-23.726-3.318-33.7-4.637-9.994-1.32-16.85-1.999-26.844.66 6.876-.66 18.73 0 25.585 1.339zM163.381 66.64c8.155 1.998 16.31.68 24.465.68zm33.739.8c8.156 0 15.051-2.1 23.186-3.519zm28.703 3.197c1.879-3.937 1.879-7.895 7.476-9.214 6.236-1.979 9.354-.66 16.19-.66-8.095 0-15.55 0-21.167 7.256zm28.143 1.279c1.879-14.47 16.77-13.152 26.704-9.194-6.816-.66-18.01-3.298-23.586 2.618zm35.499-6.476c6.276 3.898 15.65 1.96 21.906 0-3.737 2.599-11.892 6.476-20.647 1.3zM124.764 78.632c3.738-3.997 1.88-11.313 6.856-13.991 3.738-1.999 13.712-1.32 16.81 0-6.216-.66-17.43 0-19.928 7.995zm8.716-35.898c6.915 1.999 13.191 3.998 20.707 1.999zm36.137 1.999c5.637 0 13.152 0 18.789-1.999zm29.982 7.196c0-11.993 8.095-11.314 17.43-11.314-6.217 1.32-14.312 1.32-16.17 9.315zM135.478 32.02c1.879-5.296 2.498-11.273 6.876-14.61 4.357-2.659 13.092-1.32 18.069-1.32-4.358 1.32-19.329.66-20.568 7.975zM96.062 50.73c0-9.935 4.357-11.274 13.671-10.594-5.576 1.319-13.671 2.638-13.032 10.593zm-3.758 19.907c8.175 0 15.09 0 21.987-4.717-6.276 2.698-13.812 4.717-20.728 4.058zm169.178-25.185c2.478-7.315 6.176-7.995 12.952-6.656-3.698 1.34-7.396 0-9.854 4.658zm30.461-2.718c5.037 1.999 11.933 1.999 16.95 0zM51.129 78.632c3.138-2.638 4.387-8.574 8.155-10.553 3.128-1.32 8.145-.66 11.273-2.639-4.377 4.618-10.024 3.958-15.04 8.575z" fill="#ef9188" fill-rule="evenodd"/><path d="M279.49 55.386c3.139 0 6.257-.66 9.395 0 4.377.64 8.115 1.94 12.492 2.599-10.633 1.939-21.886-1.959-31.9-1.959zm.7-21.286c3.098 1.339 6.196-1.36 9.295 0 1.858 0 2.478 1.339 4.337 1.339 1.859.66 3.718.66 5.557.66-3.698 0-11.134-2.68-11.753 3.357.62-2.678-1.24-5.357-3.718-4.017zm-100.579 3.997c4.397-.66 9.394-1.34 14.411-1.999 6.257-.68 12.513 0 18.769.66-4.997-.66-14.391-2.02-16.27 4.697-1.26-3.358-6.256-4.018-8.755-3.358zM81.03 60.124c4.998-.68 10.614-2 16.231-2 4.997-.679 10.614 1.32 16.23 2-8.115 0-19.968-2-26.204 5.316 1.24-1.319.62-3.318-1.26-3.997zm-30.38 8.514c.619-3.328 1.858-6.656 2.478-9.994 4.337 3.998 9.284 1.34 14.231 2.669-4.947.67-11.133-.67-14.231 3.997zm170.936-10.513c4.357-.68 9.334-1.34 13.671-2.679-4.957.68-9.314 2.679-11.173 7.996.62-1.32.62-3.318.62-4.658zm15.43 27.223c6.257-1.439 13.752 0 19.988-.72zm-68.598-72.596c4.417 1.38 10.074 0 14.471 2.759-2.498-.7-7.535-1.38-8.175 2.038 0-2.038-1.879-3.418-3.778-3.418zm-46.212 23.386c1.919 0 4.457-.68 6.356 0 1.899.66 2.539 1.32 4.437 1.32-2.538 1.978-5.696 2.638-5.696 7.275.62-2.639 1.26-7.935-2.539-7.276z" fill="#820922" fill-rule="evenodd"/><path clip-path="url(#a)" d="M283.328 6.756c33.68 0 52.389 7.995 73.596 26.644 15.59 13.991 43.034 43.314 11.233 55.286-15.59 5.997-31.181-.66-46.792 3.998-17.45 5.337-28.063 12.652-47.391 11.333-36.798-1.999-76.094-6.656-112.912-3.338-39.296 3.998-79.212 1.34-118.508-4.657C25.104 93.363.76 88.686 3.258 63.382c1.26-13.992 16.85-25.985 27.443-28.643 13.732-3.998 27.444-3.998 41.795-10.654C96.202 13.432 118.648 3.438 145.472 1.44c15.59-.68 31.2 3.998 46.791 3.998 11.853-.68 22.447-3.998 34.3-3.998 13.092.66 44.293 6.656 56.765 5.317" fill="none" stroke="#1a171b" stroke-width=".8" stroke-linecap="round" stroke-linejoin="round"/><path clip-path="url(#a)" d="M3.238 67.44c0 21.926 23.086 25.903 39.296 28.562 39.296 5.976 79.232 8.635 118.528 4.657 36.798-3.338 76.094 1.32 112.892 3.318 19.348 1.32 29.942-5.976 47.411-11.293 15.59-4.657 31.181 1.999 46.772-3.978 10.613-3.997 14.97-9.974 14.97-16.61 0 3.978.62 13.272-1.858 21.247-1.26 4.658-5.617 9.295-13.732 11.953-15.59 5.977-31.18 0-46.771 4.657-17.47 5.297-27.444 18.59-46.792 17.25-36.798-1.979-76.714-3.978-113.511-.66-39.296 3.978-79.232 2.659-118.528-3.318-14.332-1.998-31.801-12.612-36.798-27.883C3.238 87.367 3.238 67.44 3.238 67.44" fill="none" stroke="#1a171b" stroke-width=".8" stroke-linecap="round" stroke-linejoin="round"/></svg>