<svg xmlns="http://www.w3.org/2000/svg" version="1.0" viewBox="0 0 641.688 179.641"><defs><clipPath clipPathUnits="userSpaceOnUse" id="a"><path d="M3.998 5.277h640.971v179.73H3.998z"/></clipPath></defs><path clip-path="url(#a)" d="M5.757 62.682c32.34-8.835 77.992 19.468 93.743 17.71 9.114-2.68 19.068-2.68 39.016-14.152 59.724-34.5 119.448-45.133 215.67-55.726 96.261-9.754 128.601.88 141.034 1.759 14.111 1.758 41.495 5.316 56.446 8.834 47.291 7.955 80.47 34.5 87.107 40.696 2.478 3.557 7.435 4.437 3.318 13.272-4.158 9.714-22.427 25.664-37.338 35.378-14.95 8.835-32.38 12.393-36.497 13.272-4.997.88-43.134 14.151-73.836 21.227-30.701 7.076-66.4 18.589-158.464 5.317-92.943-14.151-189.165-41.575-210.752-44.253-22.386-1.76-25.704-.88-25.704-.88-38.977 4.438-52.249 76.954-57.246 78.713-8.275-.88-3.318-70.758-8.275-82.23C25.664 84.788.76 71.556 5.757 62.681z" fill="#d3e1e9" fill-rule="evenodd"/><path d="M588.084 48.49c-1.68-9.753-11.593-16.87-22.347-15.07-9.914 1.759-17.39 11.513-15.71 22.146 1.639 9.754 11.593 16.83 21.507 15.071 10.753-1.759 17.35-11.513 16.55-22.146z" fill="#6f8490" fill-rule="evenodd"/><path d="M593.88 51.249c-.84-7.036-3.318-12.313-9.954-14.991 3.318 3.558 5.797 7.076 6.636 12.353 1.64 12.352-6.636 23.785-19.108 25.544-4.158.88-8.315 0-12.473-1.759 4.997 4.397 11.633 5.277 18.27 2.639 10.833-2.639 18.268-11.434 16.63-23.786z" fill="#f5f8fa" fill-rule="evenodd"/><path d="M576.57 51.249a7.652 7.652 0 0 0-9.194-6.156c-3.358.88-6.716 4.397-5.876 7.955.84 4.397 4.197 7.036 8.395 6.156 4.197-.88 6.676-4.397 6.676-7.955z" fill="#b0bfc7" fill-rule="evenodd"/><path d="M568.256 45.772c-.84-1.799-2.519-3.598-5.037-3.598-2.519.92-4.238 2.719-3.358 5.397 0 1.8 1.679 3.558 4.197 3.558 2.519-.88 4.198-2.678 4.198-5.357z" fill="#fff" fill-rule="evenodd"/><path d="M608.95 102.618c-9.114 3.518-14.11 7.076-23.225 9.714-14.911 4.437-36.498 0-51.409-.88-18.269-.879-42.334-5.316-59.724.88-10.793 4.437-33.18 20.348-83.789 20.348-19.068 0-54.767-3.558-87.947-6.197-30.661-2.638-72.995-10.593-103.697-14.151-18.229-1.759-34.819-2.638-53.088-2.638h-3.318c37.338 7.955 116.17 29.182 193.283 40.695 92.105 13.232 127.763 1.759 158.464-5.317 30.662-7.076 68.839-20.348 73.796-21.227 4.157-.88 21.587-4.437 36.497-13.272 12.473-7.955 26.544-20.348 33.18-29.222-11.593 4.437-15.75 16.83-29.022 21.267z" fill="#e7eef3" fill-rule="evenodd"/><path d="M348.389 63.601c6.636-1.758 11.633-5.276 18.269-5.276 8.275 0 14.91-.88 24.025-1.76 9.115-1.758 18.23 0 27.344 0 9.954 0 19.908 1.76 29.822 6.157-4.957-1.759-25.665-4.397-26.504 4.397 0-7.915-5.797-5.276-9.954-5.276-5.797.879-9.954-1.76-12.433 5.276-.84-2.638-.84-5.276-2.478-7.035-1.64.88-3.318 4.397-5.797 4.397-.84 0-5.796-1.759-7.475-1.759-3.318-.88-13.232-1.759-16.55.88z" fill="#f5f8fa" fill-rule="evenodd"/><path d="M541.712 100.739c-7.476-3.558-18.27-2.638-24.905-7.955-2.479-1.8-2.479-4.438-4.158-7.116-2.478-6.196-3.318-15.07-4.957-22.146-.84-7.956 2.479-12.393 6.636-19.509 4.957-7.955 9.954-14.151 15.75-21.267.84-.88 3.319-3.518 5.837-5.317-12.472-1.758-25.744-3.517-35.698-4.437-4.158 1.799-8.315 4.437-11.633 8.875-2.519 5.317 0 15.07-1.68 21.267-.839 7.116.84 13.312 2.52 22.146 1.638 6.237.799 13.312 4.956 17.75 4.997 7.075 12.473 11.513 20.748 15.95 3.358 1.759 8.315 2.638 11.633 5.317 2.518 1.759 23.266 6.196 26.584 7.955 6.636 4.437 11.633 3.558 19.108 4.437 9.954 0 12.433 1.76 19.068-6.196-14.111 2.638-39.016-2.678-49.81-9.754z" fill="#e7eef3" fill-rule="evenodd"/><path d="M424.023 105.016c-.8-1.759-2.478-3.518-4.117-5.276-1.68-1.8-3.318-3.558-4.997-5.317-4.118-2.679-7.436-6.196-11.593-8.835-6.636-5.317-14.951-8.874-22.387-11.513-9.114-2.638-18.269-4.437-26.544-6.196-7.475-1.76-14.95-4.437-21.587-3.518 2.519 1.759 5.837 1.759 9.155 2.638 4.957 1.76 9.954 4.438 14.91 6.197 6.637 3.518 13.273 7.075 20.748 10.593 3.318 1.8 7.436 4.438 11.593 6.196 5.797 2.679 11.633 3.558 17.43 6.197 4.957 1.759 9.954 3.558 13.272 7.075 1.639.88 2.478 1.76 4.117 2.639zM15.05 69.638c5.817 2.658 11.614 12.392 16.59 16.81 6.637 7.075 10.794 17.709 9.955 26.564-1.66 22.126 2.498 40.715 0 62.841 2.498-15.03 10.773-33.64 17.41-45.132 8.294-15.051 16.59-22.147 32.34-28.343-5.797-1.759-12.433 6.196-18.23 5.317 0-4.418 5.797-5.317 9.115-7.955-8.295-1.78-30.681 2.638-17.41-9.755-2.498-1.758-11.612-4.417-11.612-7.955.82-3.538 9.114-.9 12.432-1.779-18.229-12.392-34-14.171-52.248-13.272zm500.997-18.429c-5.836 7.995-2.478 32.78 4.158 38.097 4.957 3.518 10.753.88 16.59 3.518 6.636 3.558 14.111 7.075 21.547 5.317-5.797.879-12.433-7.076-18.23-9.715-8.314-5.316-16.59-11.513-18.268-23.026-1.64-14.191 6.636-25.664 9.114-38.097-4.117 5.317-8.275 8.875-11.593 15.071zm122.566 17.509c-6.636 3.598-13.272 5.357-18.229 11.593-4.997 5.357-12.432 12.473-14.95 19.588 3.317-2.638 8.314-2.638 11.632-5.316 4.118-1.8 7.436-6.237 10.753-8.915 3.318-1.799 5.797-2.678 8.275-5.357 2.519-3.558 3.318-7.115 5.797-9.794z" fill="#acc7d5" fill-rule="evenodd"/><path d="M488.584 18.389c4.157-8.035 18.269-3.558 24.945-3.558 7.475 0 18.269.88 24.905 4.437-6.636 2.679-9.115 7.995-14.112 13.312 2.479-7.075-4.157-6.196-7.475-3.518-.84-8.035-8.315 0-9.994 2.639 4.157-13.312-11.633-16.87-20.788-12.433z" fill="#d3e1e9" fill-rule="evenodd"/><path d="M562.34 30.901c-11.514 3.518-19.789 15.83-13.992 29.902-6.636-8.795-5.797-27.263 13.991-29.902z" fill="#acc7d5" fill-rule="evenodd"/><path d="M150.349 66.08c23.226-12.313 71.317-30.861 109.454-36.138 38.176-5.317 72.995-10.594 95.382-13.232 22.386-2.639 48.09-5.317 72.116-4.397-11.593 1.758-76.274 9.674-101.978 15.87C299.618 33.46 197.64 42.294 150.349 66.08z" fill="#f5f8fa" fill-rule="evenodd"/><path d="M641.891 66.08c-6.596 1.799-5.757 2.678-15.67 7.076-10.754 4.437-20.668 22.106-26.464 24.745M495.38 17.71c-11.633 5.316-8.315 12.392-7.476 19.427 0 6.197-3.318 10.594 0 22.947 3.318 12.352 4.997 23.825 16.59 33.54 12.433 9.713 26.504 12.352 28.983 13.231M470.475 66.2c-7.436-3.518-57.285-31.94-140.315-1.76 26.584.88 61.443 15.072 71.437 19.51 11.593 6.235 23.226 17.748 23.226 23.945" fill="none" stroke="#1a171b" stroke-width=".8" stroke-linecap="round" stroke-linejoin="round"/><path d="M515.248 44.173c-4.997 8.875-8.315 17.71-5.797 27.464 3.318 14.151 2.479 22.986 14.072 22.986 12.432.88 27.343 15.91 44.733 15.03" fill="none" stroke="#1a171b" stroke-width=".8" stroke-linecap="round" stroke-linejoin="round"/><path clip-path="url(#a)" d="M5.757 62.682c32.34-8.835 77.992 19.468 93.743 17.71 9.114-2.68 19.068-2.68 39.016-14.152 59.724-34.5 119.448-45.133 215.67-55.726 96.261-9.754 128.601.88 141.034 1.759 14.111 1.758 41.495 5.316 56.446 8.834 47.291 7.955 80.47 34.5 87.107 40.696 2.478 3.557 7.435 4.437 3.318 13.272-4.158 9.714-22.427 25.664-37.338 35.378-14.95 8.835-32.38 12.393-36.497 13.272-4.997.88-43.134 14.151-73.836 21.227-30.701 7.076-66.4 18.589-158.464 5.317-92.943-14.151-189.165-41.575-210.752-44.253-22.386-1.76-25.704-.88-25.704-.88-38.977 4.438-52.249 76.954-57.246 78.713-8.275-.88-3.318-70.758-8.275-82.23C25.664 84.788.76 71.556 5.757 62.681" fill="none" stroke="#1a171b" stroke-width=".8" stroke-linecap="round" stroke-linejoin="round"/><path d="M522.523 29.942c-1.639 3.598-3.278 6.276-4.957 8.954m43.094 53.088c-7.395-2.638-14.031-4.397-18.948-8.834-8.275-7.956-11.593-23.906-9.115-25.705M575.611 97.9c-2.478-.799-4.957-1.638-6.636-3.277m19.109-46.133c-1.68-9.753-11.593-16.87-22.347-15.07-9.914 1.759-17.39 11.513-15.71 22.146 1.639 9.754 11.593 16.83 21.507 15.071 10.753-1.759 17.35-11.513 16.55-22.146" fill="none" stroke="#1a171b" stroke-width=".8" stroke-linecap="round" stroke-linejoin="round"/><path d="M467.916 68.119c2.439-2.679 3.238-5.357 1.64-8.955-4.078 1.8-5.717 8.035-7.356 11.593m-39.896 36.138c3.358 0 5.037-2.638 6.716-5.277-3.358-2.638-10.074.88-12.632 3.518m157.584-10.473c-1.679.88-2.518 2.598-3.358 4.317m33.18-1.679c-1.599-.92-3.198-1.839-3.998-3.678m-69.637-32.66c2.478.84 7.355 0 8.954-.84m25.905 51.09c-1.04-1.72-1.04-4.318 0-6.956m-34.14 0c-.84.88-1.679 3.478-1.679 4.317m-36.458-87.547c-2.398-1.759-4.037-3.518-5.676-5.277" fill="none" stroke="#d3e1e9" stroke-width="1.679" stroke-miterlimit="8"/></svg>