<svg xmlns="http://www.w3.org/2000/svg" version="1.0" viewBox="0 0 176.617 248.164"><defs><clipPath clipPathUnits="userSpaceOnUse" id="a"><path d="M1.919 1.12h176.373v248.329H1.919z"/></clipPath></defs><path clip-path="url(#a)" d="M177.113 232.3c0 8.814-38.997 16.15-87.227 16.15-48.031 0-87.008-7.336-87.008-16.15V113.09s-1-14.89 10.634-23.285c11.613-8.395 8.455-30.442 8.455-30.442h135.458s-2.759 24.345 6.696 31.281c7.675 5.457 13.172 10.074 13.172 23.286 0 13.232-.18 118.368-.18 118.368z" fill="#c1c0de" fill-rule="evenodd"/><path clip-path="url(#a)" d="M177.113 232.3c0 8.814-38.997 16.15-87.227 16.15-48.031 0-87.008-7.336-87.008-16.15V113.09s-1-14.89 10.634-23.285c11.613-8.395 8.455-30.442 8.455-30.442h135.458s-2.759 24.345 6.696 31.281c7.675 5.457 13.172 10.074 13.172 23.286 0 13.232-.18 118.368-.18 118.368" fill="none" stroke="#343434" stroke-width=".48" stroke-miterlimit="8"/><path d="M171.596 228.002c0 8.395-36.418 15.09-81.47 15.09-44.853 0-81.251-6.695-81.251-15.09V114.05s-1-14.052 10.034-21.827c10.813-7.975 7.855-28.543 7.855-28.543h126.323s-2.358 22.667 6.496 29.383c7.096 5.256 12.193 9.454 12.193 21.826 0 12.373-.18 113.112-.18 113.112z" fill="#dedded" fill-rule="evenodd"/><path d="M166.5 59.084c0 5.237-34.66 9.634-77.394 9.634-42.734 0-77.393-4.397-77.393-9.634V33.7h154.786v25.384z" fill="#a4a4a5" fill-rule="evenodd"/><path d="M53.847 67.679c10.634.62 22.647 1.04 35.239 1.04 16.33 0 31.48-.62 44.073-1.88V33.7H53.847v33.98z" fill="#b6b6b7" fill-rule="evenodd"/><path d="M75.994 68.299c6.876.22 14.151.42 21.607.42 6.696 0 13.172 0 19.248-.2v-34.82H75.994v34.6z" fill="#cacacb" fill-rule="evenodd"/><path d="M166.5 59.084c0 5.237-34.66 9.634-77.394 9.634-42.734 0-77.393-4.397-77.393-9.634V33.7h154.786v25.384z" fill="none" stroke="#343434" stroke-width=".48" stroke-miterlimit="8"/><path d="M11.713 33.66c0-5.277 34.659-9.555 77.393-9.555 42.754 0 77.393 4.278 77.393 9.555 0 5.276-34.639 9.554-77.393 9.554-42.734 0-77.393-4.278-77.393-9.554z" fill="#bfbfc1" fill-rule="evenodd"/><path d="M18.459 33.28c0-5.017 33.07-9.205 74.405-9.414h-3.148c-42.714 0-77.363 4.187-77.363 9.414 0 5.437 34.649 9.614 77.363 9.614h3.148c-41.335-.2-74.405-4.387-74.405-9.614z" fill="#d7d7db" fill-rule="evenodd"/><path d="M11.713 33.3c0-5.297 34.659-9.594 77.393-9.594 42.754 0 77.393 4.297 77.393 9.594 0 5.317-34.639 9.594-77.393 9.594-42.734 0-77.393-4.277-77.393-9.594" fill="none" stroke="#343434" stroke-width=".48" stroke-miterlimit="8"/><path d="m76.733 33.7-13.771-4.178V9.834s-.4-7.955 6.896-7.955h34.239s10.034.42 10.034 8.795V31.4l-11.793-3.558v-15.27s.18-5.657-7.675-5.657H83.23s-6.497.42-6.497 7.735V33.7z" fill="#d6d6d8" fill-rule="evenodd"/><path clip-path="url(#a)" d="m76.733 33.7-13.771-4.178V9.834s-.4-7.955 6.896-7.955h34.239s10.034.42 10.034 8.795V31.4l-11.793-3.558v-15.27s.18-5.657-7.675-5.657H83.23s-6.497.42-6.497 7.735V33.7" fill="none" stroke="#343434" stroke-width=".48" stroke-miterlimit="8"/><path d="M112.752 29.542v-16.13s.58-6.496-17.57-6.496" fill="none" stroke="#343434" stroke-width=".48" stroke-linecap="round" stroke-miterlimit="8"/><path d="M99.82 7.715s3.138 1.28 3.138 4.857v14.951l9.194 2.739v-16.63s.38-5.057-12.332-5.917z" fill="#a4a4a5" fill-rule="evenodd"/><path d="M68.908 2.439s-4.707 1.049-4.907 5.446l12.163 5.027s.4-4.607 4.707-6.486L68.908 2.44z" fill="#e3e2e5" fill-rule="evenodd"/><path d="M65.2 5.816s.79-1.679 1.77-2.098l11.183 3.987s-1.57 1.68-1.76 2.729L65.2 5.816z" fill="#eaeaed" fill-rule="evenodd"/><path d="M65.68 4.977s9.734 4.417 11.513 4.207c0 0-9.324-4.427-11.513-4.207zm39.017-2.219s8.954.84 8.574 9.115c0 0-.58-6.836-8.574-9.115zM93.823 43.534v24.705h5.357V43.534h-5.357zm-30.301-32.94v18.478L76.154 32.9 64.36 28.073l-.84-17.48z" fill="#fff" fill-rule="evenodd"/><path d="M12.592 35.538v23.506s2.319-18.259 0-23.506z" fill="#cacacb" fill-rule="evenodd"/><path d="M89.266 214.15c-37.797 0-69.878 4.817-80.911 11.313v2.719c0 8.375 36.418 15.07 81.31 15.07 45.073 0 81.471-6.695 81.471-15.07v-2.079c-10.034-6.916-42.894-11.953-81.87-11.953z" fill="#cfcfe5" fill-rule="evenodd"/><path d="M6.476 198.32v32.26s-3.558 9.634 43.853 14.032c0 0-39.336-3.978-41.115-15.071-1.759-11.313-2.738-31.221-2.738-31.221zm147.93-132.8s-1.179 19.948 7.076 26.244c8.455 6.516 11.993 8.195 11.793 41.555 0 0 .98-31.48-9.634-36.098-10.814-4.617-9.235-31.7-9.235-31.7z" fill="#f2f2f9" fill-rule="evenodd"/><path d="M22.926 66.88c.98 3.577 1.759 7.795 1.18 11.792-.4 3.578-2.56 6.316-3.758 9.475 5.137 1.039 12.832-1.68 17.949-2.739 8.675-1.899 18.928-1.479 27.603-.84 13.392.62 25.625.2 38.837-1.258 6.895-.84 18.129-3.798 24.425-2.959-9.255 0-18.13-3.578-27.384-4.417-11.053-1.04-22.286 0-33.52.64-10.053.42-20.707 0-30.56-2.319-5.717-1.26-9.255-5.057-13.593-7.376zm23.086 23.365c-3.518-1.06-10.573 1.88-14.111 3.558-4.498 2.099-7.256 5.457-9.215 10.474-5.297 13.432-3.338 31.021-3.338 45.712 0 9.414-4.117 34.16 2.759 41.275 6.076 6.496 11.573-2.718 13.132-8.175 2.538-9.214.2-20.747 0-30.182-.4-15.09.58-28.922 3.338-43.373.78-4.837 6.855-18.869 6.456-20.348zM22.606 200.159c-1.379 3.578-.2 10.293 0 14.271.2 3.778-.38 7.975.4 11.753.98 5.676 8.055 11.953 13.952 11.333 9.214-.64-.2-10.693-1.78-14.051-3.137-6.297-2.358-16.79-6.675-21.827-1.76-1.06-3.918-.42-5.897-1.06zm115.95-115.49c5.876-.84 13.132 2.738 16.85 7.775 1.759 2.299 12.532 9.854 5.297 11.533-4.897 1.04-10.774-9.434-15.291-11.753-2.139-1.04-14.891-4.197-7.835-8.175zm9.934 15.551c5.097 1.698 9.614 18.148 4.118 17.309-2.759-.62-6.497-14.132-4.518-16.03z" fill="#eaeaf4" fill-rule="evenodd"/></svg>