<svg xmlns="http://www.w3.org/2000/svg" version="1.0" viewBox="0 0 256.706 346.318"><defs><clipPath clipPathUnits="userSpaceOnUse" id="a"><path d="M2.478-.56h256.405v346.59H2.478z"/></clipPath></defs><path clip-path="url(#a)" d="M4.917 224.944c-3.918 23.306 2.359 47.49 17.19 66.64 21.866 28.342 58.604 44.972 98.46 44.972 68.718 0 123.445-41.655 135.158-102.458 5.437-25.824-.8-51.649-17.19-73.315-21.906-29.183-57.845-45.853-96.9-45.853-68.76 0-125.005 45.013-136.718 110.014z" fill="#fde9c9" fill-rule="evenodd"/><path clip-path="url(#a)" d="M12.712 225.703c10.154-61.682 63.282-104.217 128.922-104.217 65.6 0 118.728 52.529 107.015 111.733-11.713 55.846-62.482 95.822-127.363 95.822-65.6 0-118.768-47.492-108.574-103.338z" fill="#b77d98" fill-rule="evenodd"/><path d="M199.44 136.517c32.02 20.868 51.568 55.846 43.733 93.344-10.914 55.846-61.683 95.862-127.283 95.862-22.666 0-43.734-5.837-61.723-14.991 18.749 11.673 42.175 18.309 67.2 18.309 64.8 0 115.57-39.976 127.282-95.822 7.796-40.016-14.071-76.674-49.21-96.702z" fill="#974b6f" fill-rule="evenodd"/><path d="M17.35 230.62c10.952-61.642 63.36-104.097 129.04-104.097 31.261 0 59.444 12.473 79.752 30.822-20.308-21.667-50.81-35.859-84.429-35.859-65.72 0-118.888 42.495-129.082 104.137-5.476 28.343 5.477 54.167 25.825 72.476-17.19-18.309-25.825-41.654-21.108-67.479z" fill="#974b6f" fill-rule="evenodd"/><path d="M43.094 277.392c-11.713-15.031-16.43-32.5-13.272-51.689 9.354-51.688 54.727-88.386 110.213-88.386 31.301 0 60.204 14.191 77.433 37.537 13.272 16.67 17.95 36.658 14.072 56.686-10.194 49.17-53.968 81.67-109.454 81.67-32.06 0-61.803-13.312-78.992-35.818z" fill="#ddbccc" fill-rule="evenodd"/><path d="M41.695 258.243c8.595 10.834 21.866 7.516 29.662 5.837 7.035-1.679 23.426 20.827 60.123 19.188 36.698-2.518 65.56-20.028 73.356-65.88 7.795-45.852-113.931 17.51-113.931 17.51l-19.548 4.197-17.95 11.633z" fill="#c891ab" fill-rule="evenodd"/><path clip-path="url(#a)" d="M12.752 225.743c10.154-61.682 63.282-104.217 128.922-104.217 65.6 0 118.728 52.529 107.015 111.733-11.713 55.846-62.482 95.822-127.363 95.822-65.6 0-118.768-47.492-108.574-103.338" fill="none" stroke="#fff" stroke-width="1.039" stroke-linecap="round" stroke-linejoin="round"/><path clip-path="url(#a)" d="M4.957 224.984c-3.918 23.306 2.359 47.49 17.19 66.64 21.866 28.342 58.604 44.972 98.46 44.972 68.718 0 123.445-41.655 135.158-102.458 5.437-25.824-.8-51.649-17.19-73.315-21.906-29.183-57.845-45.853-96.9-45.853-68.76 0-125.005 45.013-136.718 110.014" fill="none" stroke="#1a171b" stroke-width="1.039" stroke-linecap="round" stroke-linejoin="round"/><path d="M216.709 256.405c-5.477 8.355-10.954 17.509-16.43 26.703-4.678 8.315-10.154 16.63-13.312 27.464 3.158-2.479 1.599 0 4.717-2.479 2.318-2.518 4.677-6.676 6.236-9.994 3.918-9.194 12.512-25.024 17.99-33.34 2.358-3.317 3.117-4.157 7.035-5.836 3.918-2.518 7.835-4.157 10.953-7.515 4.677-4.158 9.355-7.476 8.595-14.991-.8-12.513-21.907 4.157-25.784 6.676z" fill="#974b6f" fill-rule="evenodd"/><path d="M189.325 294.102c-17.949 11.673-41.415 19.148-67.199 19.148-32.06 0-61.803-13.312-78.992-35.818-11.713-14.991-16.43-32.5-13.272-51.649 2.318-12.512 6.236-24.185 12.512-35.019" fill="none" stroke="#f7ecf1" stroke-width="1.039" stroke-miterlimit="8"/><path d="M124.525 232.46c-31.262 0-59.404-12.513-76.594-34.18-4.677-6.676-8.595-14.192-10.953-21.667 5.476 18.309 24.265 72.516 64.12 90.825 8.596 4.197 17.99 4.997 27.344 4.997 10.954 0 21.907-3.318 31.261-7.476 49.25-22.506 66.44-98.38 66.44-98.38-14.831 40.016-53.128 65.88-101.618 65.88z" fill="#fbd089" fill-rule="evenodd"/><path d="M34.46 145.672c-3.16 18.308 1.557 37.457 13.27 52.448 17.23 21.627 45.373 34.1 76.674 34.1 53.207 0 95.422-31.622 105.616-79.073 3.877-19.988-.8-39.976-14.112-56.606-16.43-22.466-44.573-35.818-75.074-35.818-53.968 0-96.982 34.979-106.376 84.949z" fill="#fde9c9" fill-rule="evenodd"/><path d="M40.735 146.631c7.836-47.451 49.29-79.911 100.1-79.911 50.849 0 92.264 39.975 82.91 85.748-8.595 43.253-47.732 74.874-99.34 74.874-50.81 0-91.505-37.417-83.67-80.71z" fill="#b77d98" fill-rule="evenodd"/><path d="M223.784 152.348c0-.84.76-1.68.76-2.479-6.236-33.34-40.615-60.043-81.23-60.043-49.251 0-89.107 31.7-96.902 78.352-.8 4.997-.8 9.994-.8 14.991 12.513 25.864 43.774 44.173 78.953 44.173 51.568 0 90.625-31.66 99.22-74.994z" fill="#976465" fill-rule="evenodd"/><path d="M223.784 152.348c0-.84.76-1.68.76-2.479-6.236-33.34-40.615-60.043-81.23-60.043-49.251 0-89.107 31.7-96.902 78.352-.8 4.997-.8 9.994-.8 14.991 12.513 25.864 43.774 44.173 78.953 44.173 51.568 0 90.625-31.66 99.22-74.994z" fill="#976465" fill-rule="evenodd"/><path d="M213.39 149.91c-.799-8.316-3.117-15.831-7.035-22.507a19.238 19.238 0 0 0-6.236-7.476c-6.237-8.355-14.831-14.151-28.903-19.148-11.713-3.358-21.867-5.037-30.421-5.037h-2.359c-22.626 0-67.16 13.352-80.431 55.846 7.036-17.51 28.143-41.655 57.005-48.33 5.477-.84 10.154-.84 15.63.839 3.119 0 5.438-.84 7.796-.84 1.56.84 2.359 1.68 3.918 1.68.76 0 2.318-.84 3.118 0 .76 0 3.877 1.638 4.677 1.638.8.84.8 1.68 2.359 2.519.76 1.679 1.559 1.679 2.318 2.478.8.84.8 2.519.8 3.358 0 1.68-1.56 2.479-2.359 3.318 0 1.68 0 3.358-.76 4.997-2.358 3.358-5.476 1.68-7.835 4.158-.76 0 0 .84-.76 1.679-.799 0-1.558 0-2.358.84-.76.839-2.318 0-3.118 1.678-3.118 0-7.795 3.318-10.154 4.158-4.677 2.478-10.154 3.318-14.83 5.836 0 0-.76.84-1.56 1.64-2.358.839-4.677 3.357-6.236 7.515-.8.84-2.359 1.679-2.359 3.318-1.559 3.358-1.559 4.997-1.559 8.355-.76 5.836 0 10.833 3.918 14.151 4.677 3.358 10.913 4.997 16.39 3.358 3.118-1.679 10.154-7.515 9.354-11.673v-.84c.8-2.518 3.118-6.675 3.118-9.993.8.84 1.56 1.639 1.56 3.318.799.84 0 1.679 0 2.518.799.84 1.599 1.64 1.599 2.479.76 1.679 0 2.518 0 4.157 0 2.519 0 4.997-1.6 6.676-.759 1.679-1.559 2.518-2.318 4.157-.8 1.68-2.359 1.68-3.918 3.358-1.559 0-2.318 0-3.118.84-1.559.8-2.318 1.639-3.917 2.478h-4.678c-1.559.84-3.118 2.519-5.436 2.519-1.56.8-3.158 0-5.477-.84-1.559-.84-3.918 0-5.477-1.679-1.559-.84-2.318-2.478-3.118-3.318-.8-.84-1.559-.84-2.358-1.679v-.839c-.76-2.479-3.118-3.318-3.118-5.837-.76-1.639.8-6.635-2.319-4.157h-.8v.84c-1.559 1.678-1.559 5.836-.76 7.515h.76-.76c-.799 4.997 0 9.994 1.56 14.99.76 1.64 3.118 5.837 4.677 7.476 1.56 2.519 3.918 4.158 6.236 6.676 1.56 2.519 4.678 3.318 7.036 5.837 2.359 1.679 3.918.84 7.036 1.679 5.437 3.318 10.154 4.157 16.39 4.157 3.118 0 7.036 1.64 10.154.84 3.118-.84 6.995-1.68 10.154-2.519 7.795-2.478 14.031-6.676 21.067-9.994 5.476-2.518 10.154-8.315 15.63-10.833 3.878-.84 6.237-1.68 6.996-5.837 1.56-3.318 3.918-4.997 7.036-7.475 2.358-1.68 3.118-5.837 4.677-8.355.8-1.679 2.359-2.479 3.118-4.157.8-1.68-.76-2.519 0-4.158 0-1.679 1.56-2.518 1.56-4.157.799-.84.799-2.519.799-3.358.76-3.318.76-7.476 0-10.834z" fill="#a67979" fill-rule="evenodd"/><path d="m205.795 93.383.8.8c-.8-.8-.8-.8-1.56-1.64-.799 0-.799-.839-1.558-1.678-.8-.84-2.359-1.64-3.118-3.318h-.8c-1.559-.84-2.359-1.679-3.918-2.519 0-.799-.76-.799-.76-1.639-1.558-.839-2.358-.839-3.117-1.679-.8-.839-.8-.839-1.6-.839-14.03-9.154-31.26-14.151-49.21-14.151-50.809 0-92.224 32.46-100.059 79.911-3.917 21.627 3.918 42.454 20.348 56.606-13.312-14.152-20.348-32.46-16.43-52.448 7.795-47.452 49.25-80.711 100.06-80.711 19.507 0 37.496 6.636 51.568 16.63 18.749 15.83 28.143 39.136 23.426 63.241-8.595 43.294-48.45 74.915-99.26 74.915-17.19 0-33.58-4.997-47.651-12.473 14.83 9.155 32.82 14.951 51.569 14.951 51.608 0 90.665-31.62 99.26-74.874 4.677-22.467-3.119-43.294-17.99-59.085z" fill="#974b6f" fill-rule="evenodd"/><path d="M129.961 235.697c17.15 1.64 57.725-4.997 81.87-38.257-1.558 7.516-11.672 29.103-27.263 45.733-21.867 22.426-37.457 24.905-46.052 26.584-10.114 1.639-23.386.839-28.862-1.68 15.63.84 49.93-5.796 52.288-18.268 3.118-11.633-27.304-8.315-31.98-14.112z" fill="#f8b742" fill-rule="evenodd"/><path d="M240.854 238.975c-7.835 13.312-20.348 19.948-28.942 14.991-7.836-4.997-9.435-19.988-1.6-34.14 7.076-13.311 19.589-19.987 28.183-14.99 8.635 4.997 9.395 19.988 2.359 34.14z" fill="#c8dee7" fill-rule="evenodd"/><path d="M237.016 236.537c-5.516 11.673-15.71 18.309-22.746 14.151-6.276-4.157-7.076-17.51-.8-29.182 6.277-11.673 16.47-17.51 22.747-13.312 7.036 4.157 7.036 16.67.8 28.343z" fill="#a3c9d8" fill-rule="evenodd"/><path d="M237.776 237.296c-6.276 12.473-17.23 18.27-23.506 14.152-7.076-4.158-7.875-17.47-1.599-29.942 6.276-12.433 17.27-19.109 24.345-14.112 7.036 4.158 7.036 17.47.76 29.902z" fill="#a3c9d8" fill-rule="evenodd"/><path d="M216.629 234.898c6.236-12.473 17.23-19.149 24.265-14.991 0 .84.8 1.679 1.56 1.679 0-6.676-1.56-11.673-5.478-14.152-7.035-5.037-18.029 1.64-24.265 14.152-5.517 10.833-5.517 23.306-.8 28.303 0-4.997 1.56-9.994 4.718-14.991z" fill="#8bbbce" fill-rule="evenodd"/><path d="M238.535 236.617c-6.276 11.553-18.828 18.948-25.904 14.031 7.076 4.917 18.869 1.64 25.904-14.031z" fill="#fff" fill-rule="evenodd"/><path d="M214.27 224.824c6.276-12.433 17.23-18.27 24.265-14.112.8.84 2.359 2.519 3.119 4.158-.76-3.318-2.32-5.797-4.678-7.476-7.035-4.997-18.029 1.68-24.265 14.112-4.717 9.994-5.517 19.948-2.358 25.744-1.56-5.796 0-14.111 3.917-22.426z" fill="#77b1c6" fill-rule="evenodd"/><path clip-path="url(#a)" d="M211.872 254.046c-.76-.84-2.319-2.518-3.119-3.358-3.118 5.837-11.712 25.025-21.107 43.374-11.713 21.667-27.343 40.815-27.343 41.655-6.276 7.515 10.953 13.311 15.63 4.997 0 0 6.237-22.507 17.19-43.334 10.953-19.988 21.867-37.498 23.426-41.655-1.56 0-3.118-.84-4.677-1.679z" fill="#a3c9d8" fill-rule="evenodd"/><path d="M161.302 340.753c-.8-1.678-.8-2.518.76-4.996 0 0 15.59-19.189 27.263-40.856 7.796-15.03 14.791-31.7 18.669-40.055-6.996 19.188-16.35 38.376-20.987 47.53-5.477 10.035-18.709 28.384-20.268 32.541-2.319 4.158-1.56 7.515 1.559 8.355-2.319.8-5.437-.84-6.996-2.519z" fill="#ebf3f6" fill-rule="evenodd"/><path d="M161.302 340.714c-.8-1.64-.8-2.479.76-4.997 0 0 15.59-19.229 27.223-40.976-5.436 10.874-20.987 34.3-23.306 38.457-3.118 3.358-4.677 5.037-4.677 7.516z" fill="#fff" fill-rule="evenodd"/><path d="M169.857 343.032c3.118-.8 3.918-2.478 5.437-5.756 1.559-4.158 3.118-10.754 5.436-16.55-3.078 4.957-9.314 21.507-10.873 22.306zm39.696-88.986c2.319 2.519 5.397 2.519 5.397 2.519l-6.956 9.953c3.118-5.796 3.118-9.953 1.559-12.472z" fill="#77b1c6" fill-rule="evenodd"/><path d="M240.894 239.015c-7.835 13.312-20.348 19.948-28.942 14.991-7.836-4.997-9.435-19.988-1.6-34.14 7.076-13.311 19.589-19.987 28.183-14.99 8.635 4.997 9.395 19.988 2.359 34.14" fill="none" stroke="#1a171b" stroke-width="1.039" stroke-linecap="round" stroke-linejoin="round" stroke-miterlimit="10"/><path clip-path="url(#a)" d="M211.912 254.086c-.76-.84-2.319-2.518-3.119-3.358-3.118 5.837-11.712 25.025-21.107 43.374-11.713 21.667-27.343 40.815-27.343 41.655-6.276 7.515 10.953 13.311 15.63 4.996 0 0 6.237-22.506 17.19-43.333 10.953-19.988 21.867-37.498 23.426-41.655-1.56 0-3.118-.84-4.677-1.679" fill="none" stroke="#1a171b" stroke-width="1.039" stroke-linecap="round" stroke-linejoin="round" stroke-miterlimit="10"/><path d="M105.016 280.67c10.954 4.957 53.848 6.596 77.234-15.75-6.996 11.592-43.654 30.62-77.234 15.75z" fill="#fff" fill-rule="evenodd"/><path d="M135.398 157.385c-5.477-7.516-21.067-9.195-21.827 3.318-.8 13.312 13.232 11.673 13.232 4.157-3.877 4.158-8.555 1.68-8.555-3.318 1.56-5.836 18.669-.84 10.914 10.834-7.796 11.632.76 6.636.76 6.636l6.235-3.318z" fill="#976465" fill-rule="evenodd"/><path d="M143.913 185.727c5.436-7.515 5.436-24.984-6.236-34.179 6.995 5.037 17.869 45.013-27.224 45.013 8.555 2.478 26.464 1.679 33.46-10.834zm-22.587-13.311c-9.354 1.678-11.672-14.152-6.995-18.31-5.477 4.158-6.276 20.788 6.995 18.31zm-1.519-8.396c-.8-2.438.76-5.756 6.956-2.438-.76-.84-6.956-1.639-6.956 2.439z" fill="#c3a19f" fill-rule="evenodd"/><path d="M148.59 224.864zm-28.103-1.68c-10.114-.799-20.268-2.478-29.662-5.796-7.795-3.358-12.472-8.315-17.15-14.99-3.118-4.158-4.677-6.637-4.677-12.473-.8-6.676-1.559-13.312-1.559-19.149-.8-14.15 3.878-27.463 12.473-38.256 3.118-4.997 7.795-7.516 12.472-10.834 3.918-2.478 8.595-5.836 13.272-7.475 6.276-1.68 21.867-2.519 18.749 9.154-.76 4.997-5.477 5.797-9.355 6.636-3.917 1.68-7.035 3.358-10.953 4.997-4.677 2.519-9.354 5.837-10.913 12.473-.8 2.518-1.56 6.676 0 8.315.799-16.63 21.067-20.788 32.78-24.945 3.917-1.68 6.236-1.68 7.795-5.837 1.599-3.318.8-4.997-.76-8.315-1.559-3.318-1.559-6.636-5.476-8.315-4.677-.84-10.914-1.679-14.831-.84-14.831.84-28.103 12.473-38.257 23.307-6.236 6.676-8.555 14.99-14.032 22.466-3.917 4.158-8.594 9.155-8.594 15.83v.8c-2.359 7.515-1.56 14.99.8 22.466 0 .84 0 1.68.759 2.519 14.83 19.108 41.375 32.42 71.037 32.42 7.035 0 13.272-.8 19.508-1.639-1.56 0-2.319-.84-3.878-.84-6.276-.839-13.272-.839-19.548-1.678z" fill="#895355" fill-rule="evenodd"/><path d="M116.69 166.579c-2.32-1.639-2.32-5.796-1.56-8.315 0-3.318 1.56-4.157 4.677-4.997 5.437-2.518 11.673-1.679 13.992 4.997-3.078-4.997-10.874-5.836-15.55-2.478-1.56 2.478-4.678 9.154-1.56 10.793z" fill="#895355" fill-rule="evenodd"/><path d="M51.05 143.233c7.075-20.747 26.623-40.695 47.73-48.21-14.071 3.357-39.896 14.99-47.73 48.21z" fill="#fff" fill-rule="evenodd"/><path d="M223.824 152.388c0-.84.76-1.68.76-2.479-6.236-33.34-40.615-60.043-81.23-60.043-49.251 0-89.107 31.7-96.902 78.352-.8 4.997-.8 9.994-.8 14.991 12.513 25.864 43.774 44.173 78.952 44.173 51.57 0 90.626-31.66 99.22-74.994" fill="none" stroke="#d4bab9" stroke-width="1.039" stroke-miterlimit="8"/><path d="M34.5 145.712c-3.159 18.309 1.558 37.457 13.271 52.448 17.23 21.627 45.373 34.1 76.674 34.1 53.207 0 95.422-31.622 105.616-79.073 3.877-19.988-.8-39.976-14.112-56.606-16.43-22.466-44.573-35.818-75.074-35.818-53.968 0-96.982 34.979-106.376 84.949" fill="none" stroke="#1a171b" stroke-width="1.039" stroke-linecap="round" stroke-linejoin="round" stroke-miterlimit="10"/><path d="M124.565 232.5c-31.262 0-59.404-12.513-76.594-34.18-4.677-6.676-8.595-14.192-10.953-21.667 5.476 18.309 24.265 72.516 64.12 90.825 8.595 4.197 17.99 4.997 27.344 4.997 10.953 0 21.907-3.318 31.261-7.476 49.25-22.506 66.44-98.38 66.44-98.38s0 0 0 0c-14.831 40.016-53.128 65.88-101.618 65.88" fill="none" stroke="#1a171b" stroke-width="1.039" stroke-linecap="round" stroke-linejoin="round" stroke-miterlimit="10"/><path d="M40.775 146.671c7.836-47.451 49.29-79.911 100.1-79.911 50.849 0 92.264 39.975 82.91 85.748-8.595 43.253-47.732 74.874-99.34 74.874-50.81 0-91.505-37.417-83.67-80.71" fill="none" stroke="#1a171b" stroke-width="1.039" stroke-linecap="round" stroke-linejoin="round" stroke-miterlimit="10"/><path d="M64.161 230.82c-1.559 9.994-17.989 14.951-18.749 8.315 2.32-7.475 10.154-15.79 18.75-19.948-2.32-.84-14.072-11.633-15.631-14.151-15.63 9.994-24.266 29.102-16.43 43.254 7.035 12.472 17.989 13.271 30.501 6.636 11.753-6.636 18.789-6.636 26.584-2.479z" fill="#fbd089" fill-rule="evenodd"/><path d="M45.612 240.774c.8 4.997 3.118 8.315 10.914 4.158 4.677-2.479 6.196-8.315 6.196-8.315-5.437 4.997-15.55 8.315-17.11 4.157z" fill="#f8b742" fill-rule="evenodd"/><path d="M48.57 205.076c-15.63 9.994-24.265 29.102-16.43 43.254 7.036 12.472 17.99 13.271 30.502 6.635 8.635-4.157 14.072-5.796 19.548-4.996" fill="none" stroke="#1a171b" stroke-width="1.039" stroke-linecap="round" stroke-linejoin="round" stroke-miterlimit="10"/><path d="M64.281 230.78c-1.519 9.994-17.83 14.991-18.629 8.315 0 0 0 0 0 0 2.359-7.475 10.114-15.83 18.629-20.028" fill="none" stroke="#1a171b" stroke-width="1.039" stroke-linecap="round" stroke-linejoin="round" stroke-miterlimit="10"/><path d="M51.089 246.57c-5.437-.799-6.236-4.157-5.437-7.515" fill="none" stroke="#1a171b" stroke-width="1.039" stroke-linecap="round" stroke-linejoin="round" stroke-miterlimit="10"/><path d="M58.045 211.592c0-.8-2.359-1.64-3.918-3.318-.8-.84-1.599-2.519-2.358-2.519 0 0-1.6.84-2.359.84-7.076 3.358-21.227 19.188-17.27 34.18-.799-9.155 3.918-18.31 9.395-24.146 4.717-4.198 10.234-5.837 14.95-5.037 1.56 0 2.32.84 1.56 0z" fill="#fff0da" fill-rule="evenodd"/><path d="M38.577 253.127c3.118 4.957 13.272 4.957 20.267.84 7.796-3.319 14.791-8.276 21.787-6.637-3.078-3.318-10.873-4.157-17.909 0-6.996 4.118-16.35 12.393-24.145 5.797z" fill="#f8b742" fill-rule="evenodd"/><path d="M81.39 248.09c0 .84-.719 2.518 0 3.358m-18.628-33.98c.8 0 2.319 3.358 1.559 3.358-.76.8-3.878-.84-4.677-1.679m3.118 11.593c1.559.76 2.319 1.52 4.637 1.52M50.29 245.771c0 .8-.8 1.56-.8 2.319" fill="none" stroke="#fbd089" stroke-width="1.039" stroke-miterlimit="8"/><path d="M123.605 154.906c3.918-1.679 3.118-9.994 7.036-11.673 5.477-2.518 9.394 2.479 14.87 3.318 5.477.84 12.513-4.997 18.75-4.157 7.795 0 17.189 1.679 25.024-1.68 7.796-4.157 13.272-14.95 14.032-24.145 0-4.157-.76-5.796 3.158-8.315 3.878-3.318 10.154-4.157 14.83-5.836 10.954-4.158 26.585-9.155 28.144-24.145.76-14.152-9.394-32.46-21.867-39.097-7.036-4.197-3.918-18.349-20.348-22.506C199.44 14.19 186.927.84 179.091.84c-18.748 0-35.938 28.342-55.486 30.82-10.154.84-28.902 9.155-28.902 22.467 0 2.519 1.559 4.997 1.559 7.516 0 3.318-3.118 4.997-5.477 7.475-10.953 17.51 28.143 20.827 18.749 36.658-5.437 9.154-3.878 9.994 2.358 17.47 2.359 2.518 4.677 5.836 3.118 9.154-.76 2.518-5.476 24.985 1.56 27.463 0-1.639 3.157-7.475 7.035-4.957z" fill="#f0f1f5" fill-rule="evenodd"/><path d="M215.71 96.581c-16.39-22.506-44.534-35.858-74.995-35.858-18.749 0-35.899 4.198-51.53 11.673-4.716 14.991 28.903 19.188 20.309 33.34-5.477 9.154-3.918 9.994 2.318 17.47 2.359 2.518 4.717 5.836 3.158 9.194-.8 2.478-5.476 24.985 1.56 27.463 0-1.639 3.117-7.475 6.995-4.997 3.918-1.639 3.158-9.994 7.036-11.633 5.477-2.518 9.394 2.479 14.87 3.318 5.438.84 12.473-4.997 18.75-4.157 7.795 0 17.15 1.679 24.984-1.68 7.796-4.157 13.272-14.99 14.072-24.145 0-4.157-.8-5.836 3.118-8.355 3.118-3.318 9.354-4.157 14.031-5.836-1.559-1.639-3.118-4.158-4.677-5.797z" fill="#fff3e2" fill-rule="evenodd"/><path d="M140.755 66.72c-18.749 0-36.698 4.157-51.57 11.672 4.718 9.954 27.344 14.951 20.309 27.424-5.437 9.154-3.878 9.994 2.358 17.47 2.359 2.518 4.677 5.836 3.118 9.154-.76 2.478-5.476 24.945 1.56 27.423 0-1.639 3.117-7.475 7.035-4.957 3.918-1.679 3.118-9.994 7.036-11.673 5.477-2.478 9.354 2.519 14.83 3.358 5.478.8 12.513-4.997 18.75-4.157 7.795 0 17.19 1.639 24.984-1.68 7.836-4.157 13.272-14.95 14.072-24.105 0-4.157-.8-5.836 3.118-8.315 1.559-1.679 4.677-2.518 7.795-3.358-14.03-23.266-42.174-38.256-73.395-38.256z" fill="#d8b8c8" fill-rule="evenodd"/><path d="M203.277 113.171c-15.59-14.151-36.658-23.345-60.044-23.345-11.713 0-23.386 2.518-34.299 5.836 2.319 2.518 3.118 5.836.76 10.034-5.477 9.154-3.918 9.994 2.358 17.51 2.319 2.478 4.677 5.836 3.118 9.154-.8 2.518-5.476 25.025 1.56 27.503 0-1.639 3.117-7.475 6.995-4.997 3.918-1.639 3.118-9.994 7.036-11.673 5.436-2.478 9.354 2.519 14.83 3.358 5.437.84 12.473-4.997 18.71-4.197 7.795 0 17.149 1.679 24.944-1.64 7.796-4.197 13.272-15.03 14.032-24.185v-3.358z" fill="#c3a09f" fill-rule="evenodd"/><path d="M202.477 121.566c-.76-.84-1.559-.84-2.318-1.639-6.237-8.355-14.831-14.191-28.863-19.188-11.673-3.318-21.827-4.997-30.421-4.997h-2.319c-7.795 0-17.15 1.679-27.303 4.997 0 .84 0 2.518-.8 3.358 1.56 0 3.158-.84 4.717-.84 5.437-.84 10.114-.84 15.59.84 3.119 0 5.437-.84 7.796-.84 1.56.84 2.319 1.68 3.878 1.68.8 0 2.358-.84 3.118 0 .8 0 3.917 1.638 4.677 1.638.8.84.8 1.68 2.359 2.519.76 1.639 1.559 1.639 2.318 2.478.8.84.8 2.519.8 3.358 0 1.64-1.56 2.479-2.359 3.318 0 1.68 0 3.318-.76 4.997-2.358 3.318-5.476 1.68-7.795 4.158-.8 0 0 .84-.8 1.679-.759 0-1.558 0-2.318.84-.8.799-2.358 0-3.118 1.638-3.118 0-7.795 3.358-10.154 4.158-4.677 2.518-10.114 3.358-14.79 5.836-.8 7.516-1.6 16.67 3.117 18.31 0-1.64 3.118-7.476 6.996-4.998 3.918-1.639 3.118-9.954 7.036-11.633 5.436-2.518 9.354 2.479 14.79 3.318 5.477.84 12.473-4.997 18.75-4.157 7.795 0 17.149 1.679 24.944-1.68 6.996-3.317 10.914-10.793 13.232-19.148z" fill="#d4b8b6" fill-rule="evenodd"/><path d="M106.535 114.21c6.237-1.678 21.028-2.478 17.91 9.155-.8 5.037-5.437 5.837-9.355 6.676.8.84 0 1.68 0 2.519 0 .84 0 .84-.76 1.639 4.678-.8 8.556-2.479 11.674-3.318 3.877-1.68 6.236-1.68 7.795-5.837 1.519-3.318.76-4.997-.8-8.315-1.559-3.358-1.559-6.676-5.436-8.355-4.677-.84-10.914-1.679-14.791-.84h-4.678c-1.559 3.359-2.358 4.998-1.559 6.677z" fill="#b58d8c" fill-rule="evenodd"/><path d="M116.65 159.863c0-1.639 3.117-7.435 6.995-4.957 1.56 0 2.319-1.639 2.319-3.318-4.638-.84-10.114.84-11.673 6.636.8.84 1.559 1.64 2.358 1.64z" fill="#c3a09f" fill-rule="evenodd"/><path d="M125.204 154.067c0-.84.76-1.68.76-1.68-2.319-.839-4.638 0-6.197.84-3.118.84-4.677 1.68-4.677 4.997v.84l.8.8c.76-.8.76-1.64 1.559-2.48.76-1.678 2.318-2.478 3.078-2.478 1.559-.84 3.118-.84 4.677-.84z" fill="#b58d8c" fill-rule="evenodd"/><path d="M206.355 94.103c-.76-.84-.76-.84-1.56-1.679-.799 0-.799-.8-1.558-1.639-.8-.84-2.359-1.679-3.118-3.318h-.8c-1.559-.84-2.318-1.679-3.877-3.318 0 0-.8 0-.8-.84-1.559-.799-2.359-.799-3.118-1.638-.8-.84-.8-.84-1.56-.84-14.07-9.114-31.26-14.111-49.21-14.111-18.748 0-36.697 4.157-51.568 11.633.8 1.639 2.359 3.318 3.918 4.957 14.83-8.275 32.02-13.272 51.568-13.272 19.508 0 37.458 6.636 51.53 15.75 7.035 5.836 11.712 12.472 15.63 19.068h2.318c-2.318-4.117-5.436-8.275-8.555-11.593l.76.84z" fill="#c294aa" fill-rule="evenodd"/><path d="M150.149 15.87c-8.595 6.676-17.19 14.152-26.584 14.991-10.953.84-29.702 9.155-29.702 23.306 0 .8 0 2.479.8 4.158.76.84.76 1.639.76 3.318s-1.56 3.318-3.119 4.997l-1.559 2.478c-2.359 2.519-3.158 4.997-2.359 7.516.8 5.836 6.277 9.154 11.713 12.472 7.036 4.997 12.513 9.154 8.635 15.83-5.477 9.155-3.918 10.794 2.319 18.31l.8.799c1.558 2.518 3.917 5.836 2.358 8.355-.8 1.639-3.918 17.47-.8 24.945.8 1.679 1.56 2.518 3.118 3.318-1.559-.8-2.318-2.479-3.118-3.318-2.358-6.636 1.56-22.467 2.359-24.146 1.559-4.157-1.56-8.315-3.158-9.954l-.76-.84c-6.276-7.515-7.036-8.314-1.559-16.67 4.677-7.475-2.358-12.472-9.394-17.468-5.477-3.318-10.154-6.636-10.954-11.633-.76-1.68 0-4.158 1.56-6.676l2.358-2.479c.8-1.679 2.359-3.318 3.118-5.836 0-1.68-.76-2.479-.76-4.158-.799-.84-.799-2.518-.799-3.318 0-13.312 17.99-20.827 28.143-22.466 9.394-.84 18.789-7.516 27.384-14.991 9.394-7.516 18.748-14.991 28.142-14.991 3.918 0 10.154 4.157 15.631 8.315 4.717 3.358 8.595 6.676 12.512 7.515 9.395 2.479 12.513 8.315 14.072 13.312 1.559 4.158 3.118 7.476 6.276 9.155 11.713 5.796 21.867 24.945 21.107 38.257-1.559 13.351-14.87 18.308-25.025 22.506l-3.118.8-4.717 1.678c-3.917.84-7.795 2.479-10.154 4.158-3.118 2.518-3.118 4.157-3.118 7.475v1.68c-.8 8.314-5.476 19.148-13.312 23.305-6.236 2.479-12.512 2.479-18.748 1.68h-6.277c-3.118 0-6.236.799-9.354 1.638-3.158 1.68-6.276 2.519-9.394 2.519-2.359 0-3.918-.84-5.477-1.68-3.118-1.678-6.276-3.317-10.154-1.678-1.559.84-3.158 4.197-3.917 6.676 0 2.478-.8 4.997-2.359 5.836v.84c2.359-1.68 3.118-4.198 3.918-6.676.8-2.479 1.559-4.997 3.118-5.837 3.118-.84 5.477 0 8.595 1.68 1.599.839 3.917 1.678 6.276 2.478 3.118 0 6.236-.8 9.394-2.479 3.118-.84 6.236-2.518 9.354-2.518l6.277.84c6.236 0 13.272.839 18.748-2.48 8.595-3.317 14.072-14.99 14.072-24.145l.8-1.679c0-3.318 0-4.157 2.358-5.796 2.318-2.519 6.236-3.358 9.354-4.158l5.477-1.679 2.358-.84c10.954-4.157 25.025-9.993 25.785-23.305 1.559-14.95-8.595-34.1-21.107-40.775-3.119-1.68-3.918-4.158-5.477-7.476-2.319-5.836-4.677-12.512-15.63-14.99-3.119-.84-7.036-4.158-11.714-6.677C190.046 5.037 183.77.04 179.091.04c-10.153 0-19.548 8.355-28.942 15.83z" fill="#fff" fill-rule="evenodd"/><path d="M222.905 95.742c22.666-6.636 22.666-31.58 5.477-44.893-8.595-6.636-7.796-16.63-15.63-24.945-4.678-4.157-17.19-9.154-23.467-10.833 6.276 1.679 9.395 8.355 13.312 12.512 4.677 4.158 10.154 14.112 3.918 20.788 5.477 6.636 14.071 9.954 17.19 18.269 2.358 7.515.759 16.63-1.56 20.787z" fill="#e8e9ef" fill-rule="evenodd"/><path d="M102.658 61.523c3.118-5.797-1.56-12.433 4.677-17.43 3.878-2.478 10.114-4.957 13.991-5.796 5.437-1.68 9.355-2.519 13.992-4.997 6.236-3.318 13.232-8.315 17.11-12.473-3.079 14.152-25.665 10.834-24.106 24.106-6.196-.84-12.432 0-13.991 7.475-5.437 0-6.996 4.158-8.555 7.476zm9.354 30.861c5.477 6.676 2.359 10.873-.76 17.55-.799 3.317-.799 4.157 1.56 6.675 3.118 4.158 6.196 8.315 5.436 14.152.76-7.476-5.436-14.152-3.877-21.667.76-2.519 3.118-5.837 3.118-9.195-.8-3.318-3.118-5.836-5.477-7.515z" fill="#fff" fill-rule="evenodd"/></svg>