<svg xmlns="http://www.w3.org/2000/svg" version="1.0" viewBox="0 0 268.309 369.827"><defs><clipPath clipPathUnits="userSpaceOnUse" id="a"><path d="M1.679.56h267.998v370.095H1.679z"/></clipPath></defs><path d="M2.439 266.638c0-57.005 59.603-103.257 133.079-103.257 73.515 0 133.08 46.252 133.08 103.257 0 57.046-59.565 103.258-133.08 103.258-73.476 0-133.08-46.212-133.08-103.258z" fill="#dce0e2" fill-rule="evenodd"/><path d="M22.346 284.348c-6.236-4.438-1.798-20.908 0-26.544 3.638-12.872 9.275-24.745 19.109-33.98 26.944-25.144 67.799-33.58 103.577-34.579 24.945-.84 55.526 6.836 74.195 24.306 6.236 6.036 13.072 13.471 11.073 22.506-3.797 18.509-31.98 3.038-41.814-.8-18.709-7.435-42.255-7.035-62.163-5.396-17.469 1.199-42.814 4.397-54.287 19.668-6.636 8.874-4.437 22.546-12.472 31.38-5.437 6.037-13.472 8.436-21.507 8.835-5.037.4-14.871.6-15.71-5.796z" fill="#d2d6d8" fill-rule="evenodd"/><path d="M180.13 281.43c-1.598 11.672-5.636 34.339 12.913 25.904 14.271-6.596 25.744-10.634 36.418-21.667 8.235-8.435 22.306-13.272 26.144-25.105 1.2-3.798 3.398-16.27-.6-18.469-5.836-3.238-8.275 8.435-10.273 12.233-6.436 12.073-17.71 19.908-31.581 20.707-12.473.8-27.583-9.234-35.419 3.198z" fill="#c7d0d3" fill-rule="evenodd"/><path d="M96.382 297.22c0-10.874 16.95-19.748 37.817-19.748 20.907 0 37.817 8.874 37.817 19.748 0 10.913-16.91 19.748-37.817 19.748-20.868 0-37.817-8.835-37.817-19.748z" fill="#b0b9c1" fill-rule="evenodd"/><path clip-path="url(#a)" d="M8.035 281.47S-.04 179.37 128.882 172.934c122.885-6.034 134.918 84.43 134.918 84.43s-15.47-81.79-124.844-78.792C3.398 182.409 8.036 281.469 8.036 281.469z" fill="#b0b9c1" fill-rule="evenodd"/><path d="M61.723 175.214h145.911s2.998 79.312-34.579 117.928c-13.472 13.912-16.47 16.91-38.177 17.91-10.873.4-26.744-4.798-31.98-11.673-4.997-6.836-41.615-28.743-41.175-124.165z" fill="#ccd2d6" fill-rule="evenodd"/><path d="M197.2 269.956s3.438-5.196 10.874-5.636c7.395-.4 26.704-8.635 35.099-17.31 0 0-2.599 10.674-35.1 18.55-5.836 1.398-10.873 4.396-10.873 4.396z" fill="#929da5" fill-rule="evenodd"/><path d="M65.92 199.879s23.146 31.78 68.998 30.182c51.849-1.8 68.119-31.022 68.119-31.022s-9.434 34.86-67.719 37.458c-50.49 2.198-69.398-36.618-69.398-36.618z" fill="#d7dee2" fill-rule="evenodd"/><path d="M61.603 179.531c0-26.384 32.7-47.81 73.035-47.81 40.336 0 73.036 21.426 73.036 47.81 0 26.424-32.7 47.811-73.036 47.811-40.335 0-73.035-21.387-73.035-47.81z" fill="#b8bec1" fill-rule="evenodd"/><path d="M200.319 160.583c-11.833-15.87-36.578-26.544-65.32-26.544-31.582 0-58.525 13.072-68.6 31.34 0 0 23.147-26.703 67.8-27.103 44.613-.4 66.12 22.307 66.12 22.307z" fill="#c6cacc" fill-rule="evenodd"/><path d="M135.038 150.749c-36.977 0-66.96 19.148-66.96 42.694 0 2.398.2 4.637.84 6.836 11.833 15.91 36.778 26.743 65.52 26.743 30.182 0 56.326-12.072 67.36-29.382.2-1.399.2-2.798.2-4.197 0-23.546-29.942-42.694-66.96-42.694z" fill="#f7c561" fill-rule="evenodd"/><path d="M205.635 207.114s2 6.437 6.037 4.638c3.837-1.6 19.948-15.91 35.058 2.198 16.11 19.109-1.599 42.255-29.422 50.29-21.347 6.036-17.31 6.436-21.347 9.474-3.837 3.198-10.873 4.797-11.313 1.4 0 0 8.675-25.145 11.313-25.945 2.599-1 15.311 1.599 23.986.4 8.634-1.4 27.183-9.674 16.91-23.946-10.474-14.271-24.386-.8-27.384 3.038-3.038 3.998-4.837 15.271-9.474 8.235-1.04-1.199 5.636-29.782 5.636-29.782z" fill="#ccd2d6" fill-rule="evenodd"/><path d="M207.234 213.35c.6.64 2.799 1.84 2.999 2.64.4 1.198-.8 1.798-1.2 2.797-.6 1.44 0 5.837-2.398 6.037-2.639.2-.4-4.398-.2-5.637 0-1.2-.6-5.397 1-5.397zm-3.318 37.338c-2.598-.6-3.198.4-2.998 3.038 1.2 1 3.398 1 3.398 3.238-2.198.2-2.598-1-4.397-1.399-1.6-.6-3.598.4-4.597-1.639-1.64-3.638 5.796-4.277 7.995-3.438z" fill="#fff" fill-rule="evenodd"/><path d="M238.136 208.714s29.822 17.07 1.04 42.933c0 0 22.545-25.064-1.04-42.933z" fill="#b0b9c1" fill-rule="evenodd"/><path d="M225.104 206.595c2.598-.44 6.636-.2 9.234.4 2.838.8 5.037 3.397 7.036 5.436 2.838 2.639 4.237 5.437 5.836 8.875.6 1.599.8 3.638 1.4 5.437.2 1.239 1.199 4.437-1.2 3.238-1.4-.6-2.398-3.438-3.598-4.638-1.239-1.599-2.838-2.838-4.237-4.237-2.599-2.638-5.437-4.437-9.235-5.437-2.238-.6-8.434-.6-9.034-3.438-.44-2.038 1.999-4.237 3.198-5.236z" fill="#e1e6ea" fill-rule="evenodd"/><path d="M200.558 236.137c0 .4 1.2 1.999 1.6 1.999.64 0 1.439-.8 1.638-1.2 1-1.199 1.64-2.798 2.24-4.197.799-1.4 1.238-3.198 2.038-4.397.8-1.4 2.239-2.2 3.438-2.999-1.6 0-3.638 2.2-4.677 3.398-1.2 1.4-2.239 3.198-3.838 4.198-.64.6-1.24.4-1.839 1-.6.399-.84 1.398-.84 2.198zm-14.711 38.497c.84 2.998 8.275-1.8 9.914-2.839 1.2-1 1.6-1.999 3.198-2.398 2.04-.8 4.438-1.6 6.237-2.998-1.4-.44-2.399.2-3.598.6-1.84.399-3.638.999-5.637 1.198-2.238.4-4.437-.6-6.476.4-1.399.6-1.999 1.999-2.598 3.198-.4 1.04-1.04 1.64-1.04 2.839z" fill="#b0b9c1" fill-rule="evenodd"/><path d="M12.113 272.755s12.712 87.347 124.964 85.908c120.287-1.6 126.723-88.547 126.723-88.547-1 52.528-57.725 94.983-127.523 94.983-70.237 0-124.164-39.017-124.164-92.344z" fill="#f0f1f2" fill-rule="evenodd"/><path d="M261.202 287.866c4.037-4.038 5.636-14.911 3.837-20.388-2.598 1.24-4.237 7.076-5.636 10.114 0-1.44-.6-3.238-.4-4.637-2.638.999-6.636 9.674-9.074 12.272-4.638 4.677-8.635 6.876-14.911 8.475 4.637 0 9.874.4 13.711-2.598 3.438-2.639 4.637-7.876 7.636-10.074 0 .8.44 1.599.64 2.398 2.198-1.199 3.397-3.638 5.236-5.636 0 5.636-.4 8.475-2.638 13.312zm-36.578-78.553c1.04-2.438 6.676-2.438 8.475-1.799 2.998 1 7.035 1.8 9.034 4.438-2.198 1.399-6.836-1.4-9.234-2.24-1.4-.599-2.639-.998-4.238-.998-1.199 0-2.598.799-4.037.6z" fill="#fff" fill-rule="evenodd"/><path d="M110.933 158.864c-8.035-2.839-25.305 15.03-24.106 22.866 1.4 0 2.639.6 4.038.4-1 3.238-5.237 5.436-6.836 8.834-1.599 3.238-2.438 7.636-1.4 11.233 1.4 4.638 4.598 6.037 9.035 6.836 6.836.8 11.633 2.599 18.07 5.237 15.47 6.596 33.18 4.797 48.25-.8 8.235-3.038 28.503-10.033 20.868-22.506-1.4-2.198-4.598-3.598-3.998-6.396.6-3.238 4.437-2.838 2.798-7.235-2.398-6.237-12.832-11.873-18.069-15.271-8.435-5.197-20.108-4.797-29.742-5.197-6.836-.4-12.472.4-18.908 1.2z" fill="#f9ce82" fill-rule="evenodd"/><path d="M110.933 158.864c-8.035-2.839-25.305 15.03-24.106 22.866 1.4 0 2.639.6 4.038.4-1 3.238-5.237 5.436-6.836 8.834-1.599 3.238-2.438 7.636-1.4 11.233 1.4 4.638 4.598 6.037 9.035 6.836 6.836.8 11.633 2.599 18.07 5.237 15.47 6.596 33.18 4.797 48.25-.8 8.235-3.038 28.503-10.033 20.868-22.506-1.4-2.198-4.598-3.598-3.998-6.396.6-3.238 4.437-2.838 2.798-7.235-2.398-6.237-12.832-11.873-18.069-15.271-8.435-5.197-20.108-4.797-29.742-5.197-6.836-.4-12.472.4-18.908 1.2" fill="none" stroke="#f9ce82" stroke-width=".8" stroke-linecap="round" stroke-miterlimit="8"/><path d="M110.933 158.864c-8.035-2.839-25.305 15.03-24.106 22.866 1.4 0 2.639.6 4.038.4-1 3.238-5.237 5.436-6.836 8.834-1.599 3.238-2.438 7.636-1.4 11.233 1.4 4.638 4.598 6.037 9.035 6.836 6.836.8 11.633 2.599 18.07 5.237 15.47 6.596 33.18 4.797 48.25-.8 8.235-3.038 28.503-10.033 20.868-22.506-1.4-2.198-4.598-3.598-3.998-6.396.6-3.238 4.437-2.838 2.798-7.235-2.398-6.237-12.832-11.873-18.069-15.271-8.435-5.197-20.108-4.797-29.742-5.197-6.836-.4-12.472.4-18.908 1.2" fill="none" stroke="#f9ce82" stroke-width=".8" stroke-linecap="round" stroke-miterlimit="8"/><path d="M103.737 160.443c-4.637 1.399-8.455 5.836-10.873 9.654-2.639 4.237-3.638 6.656-3.838 10.873 0 2.02.6 5.037-.6 7.656-1.219 2.618-8.075 7.455-2.838 10.473-2.818 4.438 1.62 6.836 5.857 8.455 4.437 1.62 9.874.4 11.892 6.436-8.055.4-17.35-3.218-22.586-8.055-2.418-1.999-3.018-6.236-3.218-9.254-.42-5.437 1.799-6.037 3.818-10.474.42-1.399.2-3.018.62-4.417.599-1.42 2.018-2.619 2.418-4.038 1.399-4.217-.4-5.836 3.218-9.254 3.838-3.838 9.694-9.274 15.33-8.455zm71.157 6.456c2.199 3.438 12.872 8.075 10.474 13.312-1 1.799-4.638 1-4.837 3.598-.2 2.438 4.037 3.238 4.837 5.236.2 1-1 1.6-.8 2.839.4 1.599 1 1.799 1.6 3.198 1.398 3.438 1.798 3.238-.8 6.436-4.038 5.037-9.275 8.275-13.512 12.872 5.876-1.799 15.91-6.236 19.148-12.073 2.199-3.997.6-7.835-4.437-8.035-.4-2.798 3.038-3.398 2.438-6.436-.6-2.598-3.837-2.798-6.036-3.638 3.998-2.798 9.434-4.397 3.598-9.234-3.398-2.838-7.036-4.637-10.474-6.836z" fill="#f7dbad" fill-rule="evenodd"/><path d="M79.792 170.417S66.08 181.89 69.318 198.76c0 0 6.856 13.471 31.62 22.106 0 0-27.403-10.633-29.821-23.506-2.818-14.67 8.675-26.943 8.675-26.943zm42.734 55.366s45.252 5.237 70.997-19.628c0 0-24.705 21.667-70.997 19.628z" fill="#b58c43" fill-rule="evenodd"/><path d="M145.552 152.508s26.504-.64 48.93 23.026c0 0-20.827-20.428-48.93-23.026z" fill="#f9e4c7" fill-rule="evenodd"/><path d="M68.239 223.984s6.256 46.632 31.66 68.119c0 0-21.566-26.524-31.66-68.119z" fill="#f2f2f2" fill-rule="evenodd"/><path d="M107.735 301.297s27.183 18.15 52.288 1.64c0 0-20.508 13.111-52.288-1.64z" fill="#989fa5" fill-rule="evenodd"/><path d="M95.262 223.185s42.015 21.387 86.428-3.998c0 0-35.738 28.783-86.428 3.998zm-34.139-39.656s-33.86 19.908-46.372 46.851c0 0 19.768-29.542 45.972-44.832l.4-2.02zm147.351-1.519s17.709 8.475 27.343 20.147c0 0-14.471-13.671-27.343-18.508v-1.64z" fill="#fff" fill-rule="evenodd"/><path clip-path="url(#a)" d="M9.194 261.322S2.578 312.23 55.766 345.43c0 0-54.607-27.764-46.572-84.11z" fill="#fff" fill-rule="evenodd"/><path d="M137.317 197.84c-15.67-.2-65.56-21.907-32.98-32.58 7.835-2.599 16.31-1.8 21.307-8.435 0 0 10.873-.64 19.708.8 4.037 12.072 29.542 11.473 26.744 26.943-2 11.473-26.544 12.872-34.98 12.872z" fill="#f9ecd7" fill-rule="evenodd"/><path d="M145.552 157.545c-.8-1.76-.8-3.958 0-6.557 0 0-17.55-.4-18.35 0 0 2.2-.599 4.198-1.638 5.797 0 0 16.99.2 19.988.76z" fill="#f7deb5" fill-rule="evenodd"/><path d="M143.033 131.92c-2.838-6.436-4.437-14.471 1.2-21.107 7.035-8.675 22.146-15.51 24.345-26.544 2.798-14.911-14.072-28.783-24.146-36.418-6.835-5.437-14.87-8.235-13.271-18.109 1.199-7.236 7.035-4.038 5.036-11.673-1.798-7.036-15.11-14.271-21.147-16.91 2.239 4.637 13.072 9.475 12.872 14.711-.2 5.237-15.27 14.072-14.071 20.708 1.4 7.235 12.672 11.473 14.911 18.509 2.998 8.834-4.237 10.273-4.637 15.67-.4 6.476 5.237 11.473 5.836 18.309 2.199 24.345-24.545 7.276-32.78 18.109-6.476 8.875 5.797 18.309 16.47 26.544 0 0 13.272-1 29.382-1.799z" fill="#e2edf7" fill-rule="evenodd"/><path d="M143.033 131.92c.4.8.6 1.56 1 2.159-10.234-.6-28.063 1.319-28.063 1.319 0-.16-.2-.16-.4-.36-.6-.4-1.2-.8-1.839-1.359 0 0 14.471-2.918 29.302-1.759z" fill="#e6edef" fill-rule="evenodd"/><path d="M144.113 134.079c.8 1.799 1.599 3.198 2.398 4.597-19.708-1.4-25.984.4-25.984.4-1.4-1.2-2.998-2.399-4.637-3.598 0 0 14.91-2.239 28.223-1.4z" fill="#f0f6f7" fill-rule="evenodd"/><path d="M120.527 139.276c2.838 2.398 4.837 4.397 5.637 6.436.6 1.799.999 3.598.999 5.197 0 0 12.472-.2 18.509 0 .6-2 3.398-2.399 3.398-6.636 0-1-1.2-2.999-2.599-5.597 0 0-17.67-1.44-25.944.6z" fill="#e6edef" fill-rule="evenodd"/><path d="M97.101 142.913s32.7-13.831 65.4-3.597c0 0-25.064-7.796-65.4 3.597z" fill="#fff" fill-rule="evenodd"/><path d="M153.747 196.041c8.675-1.599 17.31-4.837 18.509-11.473 2.798-15.47-22.707-14.671-26.744-26.744 0 0-.8-3.797.2-6.636.6-1.998 3.637-2.598 3.438-6.636 0-1.199-1.04-2.998-2.439-5.636 0 0 0 0 0 0-.8-1.4-3.398-7.036-3.398-7.036-2.838-6.436-4.637-14.271 1-21.107 7.035-8.475 22.306-15.51 24.545-26.544 2.798-14.911-14.112-28.583-24.146-36.418-6.836-5.237-14.87-8.035-13.272-18.109 1.2-7.236 7.036-3.838 5.037-11.673-1.839-6.836-15.31-14.271-21.147-16.71 2.239 4.637 13.072 9.275 12.872 14.511-.2 5.237-15.27 14.072-14.071 20.908 1.2 7.035 12.672 11.473 14.87 18.509 2.84 8.634-4.197 10.073-4.596 15.47-.4 6.636 5.236 11.673 5.836 18.309 2.199 24.345-24.345 7.436-32.78 18.11-8.675 11.072 16.47 26.743 16.47 26.743.6.4 5.437 4.237 6.836 5.437m20.308 58.124c1.838 0 3.637-.2 5.836-.4m-13.072.6c1.2.2 2.438.2 3.438.2m-7.436-1c1 .2 1.8.4 2.599.6m-11.673-58.124c2.838 2.438 4.837 4.637 5.636 6.436.6 2.038 1.2 5.236 1 5.436 0 2.199-.6 4.238-1.6 5.637-5.236 6.636-13.471 5.836-21.306 8.435-27.783 9.274 4.197 26.344 23.905 31.18" fill="none" stroke="#333" stroke-width=".16" stroke-linecap="round" stroke-miterlimit="8"/><path clip-path="url(#a)" d="M207.634 179.531c36.818 18.31 60.963 50.25 60.963 86.828 0 56.845-59.524 103.057-133 103.057-73.435 0-132.999-46.212-132.999-103.057 0-35.979 23.546-67.32 59.165-85.988" fill="none" stroke="#333" stroke-width=".64" stroke-miterlimit="8"/><path d="M143.513 132.04c36.018 2.838 64.161 23.146 64.161 47.451 0 26.544-32.78 47.851-73.036 47.851-40.415 0-73.035-21.307-73.035-47.85 0-21.708 21.946-39.977 52.328-45.813" fill="none" stroke="#333" stroke-width=".64" stroke-linecap="round" stroke-miterlimit="8"/><path d="M113.891 133.719c6.476-1.2 13.552-1.999 20.787-1.999 3.039 0 5.877.2 8.875.4" fill="none" stroke="#333" stroke-width=".16" stroke-miterlimit="8"/><path d="M185.847 276.273c-3.597 6.196-8.035 12.032-12.832 17.07-13.472 13.87-16.47 16.869-38.177 17.868-10.833.4-26.943-4.797-31.94-11.633-5.037-6.835-41.615-28.742-41.175-124.044m139.155 62.282a97.916 97.916 0 0 1-3.038 10.873m9.754-73.155s.56 13.471-1.599 32.14" fill="none" stroke="#333" stroke-width=".64" stroke-miterlimit="8"/><path d="M205.635 206.795s2.239 6.436 6.037 4.637c4.037-1.64 19.948-15.91 35.258 2.199 16.07 19.068-1.639 42.174-29.622 50.25-21.147 5.995-17.31 6.395-21.147 9.433-3.997 3.198-10.833 4.797-11.273 1.4 0 0 8.675-25.105 11.273-25.905 2.639-1.04 15.111 1.6 23.786.4 8.634-1.44 27.383-9.674 16.91-23.946-10.274-14.23-24.186-.799-27.184 3.039-3.238 3.997-5.037 15.27-9.674 8.235-.8-1.2 5.636-29.742 5.636-29.742" fill="none" stroke="#333" stroke-width=".48" stroke-miterlimit="8"/><path d="M199.24 232.859c0 1.799 0 3.198.399 4.797.2 1.2 0 2.598-.4 3.798-.2.8-.4 1.399-1.04.4-.839-1-.199-3.199-.399-4.398 0-1.599-.2-3.398 1.24-4.597 0 .2 0 .2.2.4zm-14.352 43.533c-1.56-.2-.36-2.798-.36-3.597.36-2.999-1.759.8-2.159 1.799 0 .8-.999 3.997 0 4.597.96.6 1.76-1.999 2.16-2.599z" fill="#b0b9c1" fill-rule="evenodd"/><path d="M32.78 347.27c-.2-5.837 9.275-9.635 25.944-8.835 16.71.8 57.925-3.438 69.598-5.237 11.873-1.999 26.344-3.838 31.381-.4 0 0 9.035-12.872 26.544-17.51 17.51-4.596 33.98-5.836 37.617 1.44 3.798 7.236-19.308 23.706-35.418 28.942-15.87 5.397-21.907.8-28.143-4.437 0 0-9.235-8.235-36.378-3.198-14.511 2.798-39.656 6.196-62.962 15.27-13.072 4.998-27.743 4.998-28.183-6.035z" fill="#f4c36c" fill-rule="evenodd"/><path d="M37.257 345.23s.6 9.835 22.747 3.998c22.186-5.836 53.407-12.272 53.407-12.272s-45.132 11.273-53.607 13.711c-8.435 2.399-23.386 5.397-22.547-5.436z" fill="#e8b25d" fill-rule="evenodd"/><path d="M163.221 340.394s7.476 13.911 37.817-2.639c0 0-25.544 13.152-37.817 2.639z" fill="#d89e50" fill-rule="evenodd"/><path d="M170.896 323.284s15.71-11.673 41.415-11.233c11.833.2 10.234 6.836 10.234 6.836s-6.236-4.438-13.672-3.838c-7.635.6-24.705 3.038-37.977 8.235z" fill="#563f05" fill-rule="evenodd"/><path d="M189.205 319.446s6.836 5.597 5.037 9.994c0 0 23.026-7.595 23.826-10.193.8-2.599-7.596-6.596-10.394-5.397-2.798 1.2-18.469 5.596-18.469 5.596z" fill="#fff" fill-rule="evenodd"/><path d="M163.7 334.118s-2.598 4.237 2.04 6.436c4.597 2.198 29.182 7.195 52.887-18.07 0 0-18.908 13.672-39.416 14.672-20.547 1-15.51-3.038-15.51-3.038z" fill="#f9dd82" fill-rule="evenodd"/><path d="M37.777 342.792s9.674-5.357 21.347-2.678c0 0-14.89-.4-21.347 2.678z" fill="#563f05" fill-rule="evenodd"/><path d="M36.258 351.347s5.637 6.396 28.183-1.4c22.506-7.634 66.36-15.47 72.996-15.03 8.075.2 19.308.8 25.944 6.796" fill="none" stroke="#563f05" stroke-width=".8" stroke-linecap="round" stroke-miterlimit="8"/><path d="M33.18 347.07c-.2-5.837 9.274-9.435 25.944-8.635 16.71.6 57.925-3.438 69.558-5.437 11.873-1.799 26.344-3.837 31.381-.4 0 0 9.035-12.872 26.544-17.509 17.47-4.597 33.94-5.637 37.577 1.639 3.798 7.236-19.308 23.506-35.378 28.942-15.87 5.197-21.907.6-28.143-4.637 0 0-9.275-8.235-36.378-2.998-14.512 2.599-39.616 5.996-62.922 15.071-13.072 5.197-27.743 4.997-28.183-6.036" fill="none" stroke="#333" stroke-width=".48" stroke-miterlimit="8"/><path d="M163.94 328.88c-.599 1-3.597 3.599-2.798 4.598.4.6 1.8.8 2.399 1.399 1.2.8 1.999 1.2 3.398 0 2.198-1.599 3.398-3.998 1.2-5.996-1.4-1.6-2.8-1.4-3.998 0z" fill="#563f05" fill-rule="evenodd"/><path d="M159.104 333.558c.6.8 2.598 3.638 1.599 4.637-.6.6-2.399-1-2.999-1.4-1.998-1.638-.4-4.476 1.8-2.837zM130.76 25.624c-4.636 4.838-.599 13.312 3.239 17.55 5.037 5.437 13.152 7.635 18.589 12.872 4.437 4.038 10.313 12.912 11.313 18.949 1 7.035-7.276 17.509-13.112 20.107 9.474-14.271 4.037-29.182-7.716-40.055-4.637-4.238-11.513-6.636-14.51-12.873-2.24-4.637-3.879-12.112 1.798-15.11z" fill="#fff" fill-rule="evenodd"/><path d="M130.401 53.128c4.997 8.235-6.196 14.67-2.998 23.506 1.599 4.237 3.398 8.634 4.397 13.272 1.6 6.236-1.399 8.834-3.398 13.831 8.195-7.995 3.798-16.03 1.8-25.504-1.4-7.596 7.195-16.67.199-23.466z" fill="#f2f6f9" fill-rule="evenodd"/><path d="M104.297 105.936c-7.236-.84-7.036 7.036-4.038 11.073 3.238 4.397 7.676 7.835 12.273 11.033-4.797-2.998-17.11-16.67-8.635-21.706z" fill="#fff" fill-rule="evenodd"/></svg>