<svg xmlns="http://www.w3.org/2000/svg" version="1.0" viewBox="0 0 58.998 197.594"><defs><clipPath clipPathUnits="userSpaceOnUse" id="a"><path d="M.16.08h58.924V197.8H.16z"/></clipPath></defs><path d="m14.911 99.02 5.836-4.877-.42-7.555 5.417-5.337-.4-7.556 5.417-4.457-.84-7.116 5.418-5.336V49.23l4.997-4.437-.84-7.116 5.417-4.457-.4-7.116 4.577-5.776V14.11l4.158-3.557 1.259-5.337L58.245.76c-.4 1.339-18.749 95.162-19.988 98.26H14.91z" fill="#8bbbce" fill-rule="evenodd"/><path d="m55.846 11.493-3.778 3.998-.4 6.216-4.597 5.776.42 7.116-5.017 4.437.42 7.116-5.017 3.998.42 7.995-5.437 5.337.42 7.115-5.437 4.438.42 7.555-5.417 5.337.4 7.095-4.178 3.998h19.229c1.259-2.219 13.372-63.981 17.949-88.426l-.4.899z" fill="#c8dee7" fill-rule="evenodd"/><path d="M55.746 11.493c-.42 0-4.157 3.538-4.157 3.538l-.42 6.216c-.4.44-4.557 5.777-4.557 5.777s.42 7.095.42 7.535l-4.997 4.437s.42 6.656.42 7.096l-4.978 3.998s.42 7.555.42 7.995c-.42.44-5.397 4.877-5.397 4.877s.4 7.096.4 7.535c-.4 0-5.397 3.998-5.397 3.998s.42 7.555.42 7.995l-5.397 4.877s.42 7.096.42 7.535c0 .46-4.997 4.438-4.997 4.438h20.768c.839-2.219 9.134-43.034 14.95-72.756l2.899-15.99h-.82v.899zm-.42 1.32c-.819 3.557-2.478 13.311-2.478 13.311-5.417 27.523-13.712 68.778-14.551 72.336h-18.27c1.26-.88 3.739-3.098 3.739-3.098s-.4-7.115-.4-7.555c.4-.44 5.796-4.877 5.796-4.877s-.82-7.536-.82-7.995c.42 0 5.398-3.978 5.398-3.978s-.42-7.116-.42-7.555c0-.44 5.397-4.877 5.397-4.877s-.42-7.536-.42-7.996c.42-.44 5.397-4.437 5.397-4.437s-.82-6.196-.82-6.656c.42-.44 5.397-4.437 5.397-4.437s-.84-7.096-.84-7.536c.42 0 4.577-5.776 4.577-5.776s0-5.757.42-6.196c0 0 1.66-1.78 2.898-2.679z" fill="#fff" fill-rule="evenodd"/><path d="M24.905 99.02c.84 1.779 1.659 5.337.84 10.214-3.758 15.53-9.995 30.182-13.732 50.15-1.26 7.535-2.099 19.967-3.338 25.284-1.24 7.096-7.496 11.533-7.915 11.973h17.489c.42-.88 13.312-68.319 19.128-97.621H24.905z" fill="#b77d98" fill-rule="evenodd"/><path d="M10.434 184.648c1.259-5.317 2.078-17.75 3.318-25.305 3.717-19.967 9.914-34.619 13.631-50.17 0 5.338-7.015 30.203-8.674 36.419-1.24 6.216-3.718 14.65-4.138 21.747-.4 7.555-3.298 15.55-4.137 17.31z" fill="#e5d0db" fill-rule="evenodd"/><path d="M15.43 155.806c-1.239 6.656-2.898 13.311-3.317 16.85.42-4.878 1.239-9.315 1.659-13.293 1.659-8.434 3.717-15.97 5.776-23.086-.4 1.78-2.059 10.654-4.117 19.529z" fill="#fff" fill-rule="evenodd"/><path d="m27.383 142.993-10.393 51.49H6.596c4.577-.88 7.495-3.099 10.394-9.755 2.498-6.656 10.393-41.735 10.393-41.735zm.88-41.814h6.636l-2.059 11.113c0-5.317-1.659-10.214-4.577-11.113z" fill="#974b6f" fill-rule="evenodd"/><path d="M26.264 97.181h10.834l13.311-64.84S39.176 87.866 34.18 92.303c-5.416 4.877-7.915 4.877-7.915 4.877z" fill="#a3c9d8" fill-rule="evenodd"/><path clip-path="url(#a)" d="m14.911 99.02 5.836-4.877-.42-7.555 5.417-5.337-.4-7.556 5.417-4.457-.84-7.116 5.418-5.336V49.23l4.997-4.437-.84-7.116 5.417-4.457-.4-7.116 4.577-5.776V14.11l4.158-3.557 1.259-5.337L58.245.76s0 0 0 0c-.4 1.339-18.749 95.162-19.988 98.26H14.91" fill="none" stroke="#1a171b" stroke-width=".8" stroke-linecap="round" stroke-linejoin="round"/><path clip-path="url(#a)" d="M24.905 99.02c.84 1.779 1.659 5.337.84 10.214-3.758 15.53-9.995 30.182-13.732 50.15-1.26 7.535-2.099 19.967-3.338 25.284-1.24 7.096-7.496 11.533-7.915 11.973h17.489c.42-.88 13.312-68.319 19.128-97.621H24.905z" fill="none" stroke="#1a171b" stroke-width=".8" stroke-linecap="round" stroke-linejoin="round"/></svg>