<svg xmlns="http://www.w3.org/2000/svg" version="1.0" viewBox="0 0 187.956 375.345"><defs><clipPath clipPathUnits="userSpaceOnUse" id="a"><path d="M2.958 1.52h187.726v375.61H2.958z"/></clipPath></defs><path d="M177.293 113.651c0-12.033-9.355-22.027-20.888-22.027h-3.358c2.879-2.298 5.037-6.136 5.037-10.493 0-6.916-5.516-12.812-12.232-12.812H48.13c-6.716 0-12.233 5.896-12.233 12.812 0 4.357 2.159 8.195 5.037 10.493h-3.598c-11.293 0-20.647 9.994-20.647 22.027L3.958 339.274c0 14.072 9.134 20.988 24.025 25.605 0 0 31.441 11.253 68.878 10.493C134.32 374.613 166 364.88 166 364.88c12.973-3.838 24.006-11.533 24.006-25.605l-12.712-225.623z" fill="#bdbbdb" fill-rule="evenodd"/><path d="M20.228 184.328c23.066-8.195 51.409-8.714 75.694-2.558 16.09 4.097 31.72 10.753 47.81 14.091 6.737 1.28 12.493 2.299 18.51 5.117 2.638 1.28 6.716 1.8 8.894 3.578 5.277 3.838 2.879 18.709 3.598 24.585 1.2 12.033 1.44 23.826 2.399 35.858 1.199 13.312 1.918 26.644 2.398 39.956.48 9.215 0 18.19-5.756 25.085-2.639 3.338-5.057 1.3-8.415 3.078-3.358 2.059-5.517 5.897-9.135 7.436-2.878 1.539-6.476 2.818-9.614 4.097-4.557 1.779-7.675 1.54-12.252 1.779-9.375.52-18.989 1.799-28.103 3.078-3.618.52-7.216.78-10.574 1.8-4.098 1.538-7.695 3.317-12.273 3.077-8.874-.78-15.61-9.234-24.505-10.513-8.175-1.28-16.33-2.559-24.505-3.578-6.976-1.28-12.492-3.078-17.79-8.195-8.174-8.195-5.276-23.826-5.276-34.84 0-12.532-1.2-25.863.96-37.896 1.679-9.994 3.837-19.708 5.036-29.702 1.2-8.195.48-17.67 0-25.865-.24-3.337-1.199-17.17 1.68-17.669z" fill="#d1d4d2" fill-rule="evenodd"/><path d="m158.504 42.954-.72-9.474c4.318-12.293.24-17.91-1.199-19.449l-.24-2.318H36.838v1.799c-.96 2.059-5.997 14.091-1.2 19.468l-.959 16.37c-1.919 4.877-5.777 17.17-1.44 22.786v.26c0 5.637 28.544 10.234 63.582 10.234 35.299 0 63.602-4.597 63.602-10.234l-.72-12.033c3.118-10.753 0-15.87-1.2-17.409z" fill="#a6a5b1" fill-rule="evenodd"/><path d="M36.738 11.833c0-5.137 26.883-9.315 60.043-9.315 33.18 0 60.044 4.178 60.044 9.315 0 5.157-26.864 9.314-60.044 9.314-33.16 0-60.043-4.157-60.043-9.314z" fill="#888793" fill-rule="evenodd"/><path d="M171.836 114.65s-13.952-6.675-15.39 7.676c-1.46 14.331 4.556 213.83 4.556 213.83s22.847-7.155 20.208-23.545c-2.638-16.39-9.374-197.96-9.374-197.96" fill="none" stroke="#fff" stroke-width=".48" stroke-miterlimit="8"/><path d="M38.757 197.96c35.098 8.435 72.835 19.948 108.394 16.37.24-9.454-.96-17.909-1.44-26.864-20.667-6.136-43.733-11.253-65.38-12.272-10.094-.78-20.187.76-30.761 0-6.976-.26-9.854-.78-10.334.76-1.2 5.376-.48 16.89-2.658 22.006 1.22 0 1.459-.26 2.179 0zm119.107-6.356c5.277 3.838 13.432 6.156 16.55 12.792 1.92 4.617-4.557 4.098-7.195 4.617-3.118.5-6.716 1.54-9.355 3.058-.24-3.318-.48-6.895-.24-10.233 0-2.299 1.44-6.896.24-8.955z" fill="#fff" fill-rule="evenodd"/><path d="M38.277 198.88c5.057 4.877 14.67 4.877 21.167 5.636 7.216 1.04 15.39 2.059 22.346 4.617 2.659 1.02 5.057 2.559 7.456 3.838 4.337 2.319 5.776 3.338 6.496 8.974 2.638 16.89.48 35.859-.96 53.008-1.439 17.17-2.638 34.84-2.638 52.249 0 4.857 3.598 21.507-2.179 23.306-2.398.76-4.557-1.02-6.476-2.299-3.378-2.059-6.016-3.338-9.614-4.098-6.976-1.539-13.951-2.058-20.927-3.597-4.078-1.02-8.175-3.318-12.493-4.358-2.898-.76-6.016 0-7.215-3.837-.96-2.819-.24-7.676-.48-10.754v-11.513c-.48-6.156-.98-12.053-.74-18.189.5-13.072.74-26.644 1.7-39.696.959-11.533 2.638-23.066 4.077-34.579.48-5.636.24-11.273.24-17.17z" fill="#ababbe" fill-rule="evenodd"/><path d="M31.221 179.411c-2.818-.52-4.717 1.54-7.076 2.559-2.378.78-4.037.52-3.318 3.338.7 3.078 6.856 7.435 8.755 9.734.7-4.857-2.139-11.014.46-15.37z" fill="#fff" fill-rule="evenodd"/><path d="M44.033 90.865c9.854 2.299 19.708 4.857 29.802 6.896 8.655 2.059 19.229 4.857 28.123 2.558 15.61-4.097-3.118-12.013-9.854-13.052-10.334-1.519-21.387-1.02-32.2-1.519-4.817-.52-9.614-1.539-14.432-1.799-6.256-.52-5.756 3.578-.48 6.916z" fill="#afafd3" fill-rule="evenodd"/><path d="M36.818 112.492c1.919-.52 4.797 0 6.716.26.72 17.41-2.16 35.838-3.838 53.247-1.679 18.43-1.44 36.598-4.078 54.507-2.878 20.228-5.037 40.456-5.756 60.923-.48 10.754 3.598 47.612-3.358 55.287-.96 1.04-1.679 1.799-2.878 2.558-10.554-7.935 0-53.747 1.199-66.28 1.679-20.747 2.878-41.734 2.878-62.462 0-17.929.72-35.578 2.159-53.247.72-8.435.24-39.157 6.956-42.495zm106.095 6.256c-1.199 16.13 2.639 34.56 4.078 50.69 1.679 17.169 2.398 34.578 3.118 51.988.72 22.026 0 44.293 0 66.32 0 13.811-2.399 38.656 6.956 48.89 3.598-6.896 1.2-15.61.72-23.026-1.2-16.13 0-32.28-.72-48.41-.96-23.806.72-47.872-.96-71.677-2.158-26.124-1.199-53.268-6.236-78.872-1.439-.52-3.358-.26-4.797 0-.24 1.539 0 2.818 0 4.097z" fill="#7f7eb7" fill-rule="evenodd"/><path d="M39.776 125.464c.96-13.092 57.085-9.494 55.166 12.332 0-22.086-8.874-21.826-26.623-24.904-6.716-1.04-42.695-8.755-32.38 9.494zm56.126 13.012c-.48-5.357 3.618-11.473 7.935-13.772 3.358-1.019 60.024-22.726 43.214-2.298-2.159 2.798-23.046 5.616-27.603 6.376-6.976 1.28-20.888 1.779-23.546 10.454z" fill="#7f7eb7" fill-rule="evenodd"/><path d="M153.007 119.248c4.118-7.376 11.114-8.895 18.37-6.356-4.838-10.434-16.67-1.78-19.35 5.356zm-132.959-9.375c5.057-.76 11.813.78 14.69 5.937 0-6.176-9.154-9.035-14.45-7.995-1.22 1.819-.24 2.578-.24 3.098zM154.666 329.62c2.399 7.396-1.199 11.733-7.195 15.071-7.916 4.577-15.61 4.577-24.486 5.357-7.675.76-29.282-3.318-31.68 7.915.72-3.838-2.639-4.337-5.277-4.597-4.078-.26-7.216-.52-10.814-1.8-4.317-1.518-8.394-3.557-12.952-4.836-2.398-.52-8.155 0-9.854-1.54 8.415 1.54 15.85 7.916 24.485 9.195 6.976 1.28 14.652 2.799 16.57 10.714-.96-10.194 12.473-9.954 18.969-10.714 10.074-1.02 19.428-2.558 29.042-5.616 4.318-1.54 11.753-3.578 14.871-7.656 2.159-2.818 1.2-15.59-2.398-11.233z" fill="#7f7eb7" fill-rule="evenodd"/><path d="M96.921 140.295s5.777-15.35 15.63-16.89c10.095-1.539 31.462-9.994 32.201 6.396.72 16.39 6.716 190.225 8.635 204.576 2.159 14.332 0 12.033-9.374 11.513-9.355-.76-40.836 4.098-46.852 9.994-5.996 5.617-48.05-16.39-64.141-13.072-16.11 3.598 12.732-222.225 12.732-222.225s-1.439-3.578 7.935-2.818c10.814.78 36.518 1.799 37.718 9.994 1.439 7.935 1.918 18.169 5.516 12.532m-72.036-28.703s13.212-1.299 11.293 9.974c-1.919 11.533-16.83 211.072-16.83 211.072s-9.394-4.097-9.394-11.253c0-7.175 14.93-209.793 14.93-209.793" fill="none" stroke="#fff" stroke-width=".48" stroke-miterlimit="8"/><path clip-path="url(#a)" d="M8.375 336.956s-2.898 15.13 19.188 22.306c22.327 7.176 119.088 26.384 158.444-16.41 0 0-31.92 20.248-68.898 19.748-37.197-.78-103.697-3.338-108.734-25.644z" fill="#7f7eb7" fill-rule="evenodd"/><path d="M12.113 348.949s5.057 17.969 84.748 22.086c58.105 2.838 88.107-26.724 88.107-26.724s-25.445 31.341-88.107 28.003c-76.333-4.097-84.748-23.365-84.748-23.365z" fill="#fff" fill-rule="evenodd"/><path d="M93.064 142.374v-2.319c0 39.676-2.18 79.852-2.18 119.528v53.747c0 9.474-3.857 35.059 2.42 41.455 5.796-40.935 6.995-85.988 5.796-127.962-.74-17.91-.98-35.579 0-53.488.24-9.214 3.118-31.221-3.138-37.377-1.7 1.039-2.419 2.318-2.898 4.357z" fill="#fff" fill-rule="evenodd"/><path d="m146.99 122.446 10.155 214.19s-2.898-192.164-10.154-214.19z" fill="#c5c5d0" fill-rule="evenodd"/><path d="m43.614 116.77-17.99 216.508s3.598-159.683 17.99-216.509z" fill="#afafd3" fill-rule="evenodd"/><path d="m100.38 137.397.499 37.177s3.178-27.683-.5-37.177zm-9.355-.64-.24 36.458s-3.598-24.465.24-36.458zm7.055 211.872 2.4-132.24s-5.298 131.22 19.247 127.642c0 0-20.447 1.28-21.646 4.598zM20.967 193.603l-7.335 128.242 4.337 4.157 7.815-129.561-4.817-2.838z" fill="#fff" fill-rule="evenodd"/><path d="M89.266 132.04s4.317-9.734-40.196-11.273l-6.496 51.968s36.818-2.298 46.692-.76c0 0-2.179-34.039 0-39.935z" fill="#ababbe" fill-rule="evenodd"/><path d="m87.107 162.741.48-30.9s-26.184-9.715-36.038-7.916c-10.094 1.539 33.16 22.986 35.558 38.816z" fill="#c5c5d0" fill-rule="evenodd"/><path d="M105.256 135.138s33.66-16.69 36.298-7.196c2.639 9.235 2.639 55.667 2.639 55.667l-39.177-8.455s5.777-32.32.24-40.016z" fill="#afafd3" fill-rule="evenodd"/><path d="m173.535 198.4-13.512-9.215s-9.674-82.73 9.414-73.495l4.098 82.71z" fill="#706fad" fill-rule="evenodd"/><path d="m26.344 115.19-4.557 65.86 7.435-3.837s11.034-72.277-2.878-62.023z" fill="#ababbe" fill-rule="evenodd"/><path d="m34.42 198.88-9.355 126.643s11.993-104.337 9.354-126.644z" fill="#fff" fill-rule="evenodd"/><path d="M42.354 94.023c-2.398-2.039-7.675-.5-10.553.5-3.118 1.02-4.318 2.038-5.997 4.817-.96 1.779-3.378 3.817-2.898 6.096.5 2.539 5.297 1.26 7.935 1.779 2.879.76 5.037 2.518 8.155 2.279 3.838-.26 7.916-2.04 11.993-2.539 10.334-.76 20.408 1.26 30.502 2.778 7.915 1.28 16.55 1.52 24.465 1.02 9.614-.5 23.765-2.778 31.2-9.634a33.307 33.307 0 0 0-7.195 0c-4.077.26-7.915 2.038-11.993 2.038-4.557 0-9.374-.26-14.17-.26-9.355 0-18.95.26-28.324-1.518-7.195-1.52-14.151-4.318-21.107-5.837-3.618-.76-8.895-2.019-12.492-1.779z" fill="#5b5ba0" fill-rule="evenodd"/><path d="M171.376 103.177c-1.439-4.617-10.354-6.156-14.191-7.435-2.419-1.02-4.577-2.319-7.236-1.28-2.638 1.02-4.817 4.618-7.455 6.137-5.057 3.078-9.155 7.436-14.691 9.234-5.537 2.06-11.793.76-17.11 3.578 13.012-.24 24.805-3.058 37.097-6.916 6.736-2.298 16.85-5.116 23.586-2.298z" fill="#7f7eb7" fill-rule="evenodd"/><path d="M37.777 78.313c4.317.52 8.635 2.798 13.192 3.557 4.557.76 9.354.76 14.152 1.28 6.476.76 12.712-.76 19.188.5 5.277 1.019 10.793 1.778 16.07 3.297-6.236-.24-12.952-2.018-19.188-2.778-5.517-.52-10.554-.52-16.07-.52-4.798 0-9.835.26-14.632 0-4.797-.24-8.874-3.298-13.431-3.558-.48-.999.24-.999.24-1.259zm-1.039 24.785c11.313 1.299 22.846 3.877 34.159 5.676 10.094 1.56 23.546-2.319 33.16 1.56-20.907 3.077-48.31-.26-67.32-7.236z" fill="#fff" fill-rule="evenodd"/><path d="M57.505 107.555c-8.455-2.299-7.955 11.753-2.658 14.81 6.756 4.078 10.593-7.135 9.394-13.271-2.398-1.28-4.817-1.54-7.475-2.299zM54.887 82.47c-6.476.52-5.517 7.156-4.078 11.493.96 2.559 2.639 2.299 3.358 5.617.48 2.538-2.398 3.577-.24 6.875-.72-4.837 3.598-6.376 2.399-10.193 5.277-3.318 3.838-11.493-1.44-13.012z" fill="#fff" fill-rule="evenodd"/><path d="M27.243 340.773c4.798-.78 11.294 2.04 15.87 3.059 5.757 1.279 11.534 2.318 16.83 4.097 5.277 1.799 9.855 4.357 14.912 5.637 5.516 1.539 11.293 2.558 15.37 6.896-5.037 0-12.012-4.338-17.07-5.617-5.516-1.54-11.292-3.578-16.35-5.637-4.797-2.038-10.333-3.058-15.63-3.318-4.557-.26-11.533.26-14.91-3.837z" fill="#706fad" fill-rule="evenodd"/><path d="M96.402 358.703c7.675-3.838 15.85-5.117 24.245-6.397 4.817-.76 9.854-1.279 14.671-1.778 3.598-.26 8.635-2.06 11.513-1.28-4.797-.26-8.875 2.04-13.452 2.559-4.317.5-8.635 1.02-12.972 2.039-4.557.76-9.354 2.038-13.932 3.058-3.837.78-7.675-.26-11.053 2.038zm61.302-15.911c6.936-6.656 19.129-7.155 22.947-17.669-5.257 6.916-17.91 9.734-22.947 17.17zm-147.75-16.63c.48 2.06 3.598 4.638 5.037 6.177 1.439 1.559 2.638 2.318 4.557 3.098 1.2.26 3.358 1.02 4.078 2.058.96 1.28.96 3.858 1.439 5.137-1.68-.76-2.878-2.558-4.078-3.857-1.439-1.8-3.118-3.078-4.797-4.618-2.398-2.058-4.077-4.897-5.756-7.475zm46.772-200.978c5.037 1.04 6.716-5.377 11.273-5.117 3.358 0 7.195.78 10.553 1.54 3.838.779 7.436 1.798 10.074 5.376 1.92 2.818 3.598 8.455 1.68 11.773.719-8.955-5.038-16.37-13.193-16.89-3.358 0-6.476.76-9.834 1.02-.72 0-1.199-.76-2.158-.5-.24 0-.96 1.779-1.68 2.039-1.678 1.019-4.077 1.019-5.516.26zm96.821-16.09c-4.557.52-9.354 3.538-14.391 4.297-5.037.76-9.595 1.76-14.631 2.019-10.314.5-20.148 1.999-30.462 1.999 5.037-.24 9.834-1.5 14.871-1.76 4.797-.239 9.594-.499 14.391-.759 9.355-.999 18.23-5.276 28.063-5.276zm9.834-4.178c3.838 1.02 6.716-.78 9.354 3.338 2.639 3.858 1.68 7.456 2.159 11.553-1.2-6.935-5.037-12.072-11.033-14.89z" fill="#5b5ba0" fill-rule="evenodd"/><path d="M91.425 6.676c0-.92 2.318-1.679 5.156-1.679 2.859 0 5.157.76 5.157 1.679 0 .94-2.298 1.679-5.157 1.679-2.838 0-5.156-.74-5.156-1.679z" fill="#262626" fill-rule="evenodd"/><path d="M91.904 7.116c0-.68 2.079-1.24 4.637-1.24 2.579 0 4.638.56 4.638 1.24 0 .7-2.06 1.239-4.638 1.239-2.558 0-4.637-.54-4.637-1.24z" fill="#040404" fill-rule="evenodd"/><path d="M91.025 6.416s.98-1.619 5.317-1.619c4.597 0 5.556 1.879 5.556 1.879s-.48-1.879-5.556-2.159c-4.817 0-5.317 1.9-5.317 1.9z" fill="#fff" fill-rule="evenodd"/><path d="M75.035 7.835c0-.9 2.378-1.639 5.276-1.639 2.919 0 5.277.74 5.277 1.64 0 .919-2.358 1.638-5.277 1.638-2.898 0-5.276-.72-5.276-1.639z" fill="#262626" fill-rule="evenodd"/><path d="M75.754 8.155c0-.72 2.079-1.32 4.637-1.32 2.579 0 4.637.6 4.637 1.32 0 .74-2.058 1.32-4.637 1.32-2.558 0-4.637-.58-4.637-1.32z" fill="#040404" fill-rule="evenodd"/><path d="M75.035 7.475s.72-1.499 5.276-1.499c4.318 0 5.277 1.74 5.277 1.74s-.48-1.74-5.277-2c-4.797 0-5.276 1.76-5.276 1.76z" fill="#fff" fill-rule="evenodd"/><path d="M60.563 9.154c0-.999 2.399-1.838 5.317-1.838 2.938 0 5.317.84 5.317 1.838 0 1.02-2.379 1.84-5.317 1.84-2.918 0-5.317-.82-5.317-1.84z" fill="#262626" fill-rule="evenodd"/><path d="M61.043 9.434c0-.68 2.179-1.239 4.837-1.239 2.678 0 4.837.56 4.837 1.24 0 .699-2.159 1.239-4.837 1.239-2.658 0-4.837-.54-4.837-1.24z" fill="#040404" fill-rule="evenodd"/><path d="M60.563 8.995s.74-1.62 5.317-1.62c4.357 0 5.317 1.62 5.317 1.62s-.48-1.88-5.317-1.88c-5.057-.28-5.317 1.88-5.317 1.88z" fill="#fff" fill-rule="evenodd"/><path d="M71.916 14.111c0-.959 2.359-1.758 5.237-1.758 2.898 0 5.237.799 5.237 1.758 0 .98-2.339 1.76-5.237 1.76-2.878 0-5.237-.78-5.237-1.76z" fill="#262626" fill-rule="evenodd"/><path d="M72.396 14.231c0-.68 2.139-1.239 4.757-1.239 2.639 0 4.757.56 4.757 1.24 0 .699-2.118 1.239-4.757 1.239-2.618 0-4.757-.54-4.757-1.24z" fill="#040404" fill-rule="evenodd"/><path d="M71.757 13.872s.959-1.62 5.436-1.62c4.258-.26 5.197 1.62 5.197 1.62s-.46-1.88-5.197-1.88c-4.957-.28-5.436 1.88-5.436 1.88z" fill="#fff" fill-rule="evenodd"/><path d="M85.028 12.512c0-.999 2.399-1.838 5.357-1.838s5.357.839 5.357 1.838c0 1.02-2.399 1.84-5.357 1.84s-5.357-.82-5.357-1.84z" fill="#262626" fill-rule="evenodd"/><path d="M85.908 12.752c0-.7 2.079-1.279 4.637-1.279 2.579 0 4.637.58 4.637 1.28 0 .719-2.058 1.278-4.637 1.278-2.558 0-4.637-.56-4.637-1.279z" fill="#040404" fill-rule="evenodd"/><path d="M85.028 12.353s.74-1.62 5.357-1.88c4.398 0 5.357 1.88 5.357 1.88s-.48-1.88-5.357-1.88c-4.857-.28-5.357 1.88-5.357 1.88z" fill="#fff" fill-rule="evenodd"/><path d="M99.02 12.992c0-1 2.379-1.839 5.277-1.839 2.918 0 5.277.84 5.277 1.84 0 1.019-2.359 1.838-5.277 1.838-2.898 0-5.277-.82-5.277-1.839z" fill="#262626" fill-rule="evenodd"/><path d="M99.74 13.272c0-.68 2.078-1.24 4.637-1.24 2.578 0 4.637.56 4.637 1.24 0 .7-2.059 1.24-4.637 1.24-2.559 0-4.637-.54-4.637-1.24z" fill="#040404" fill-rule="evenodd"/><path d="M99.02 12.832s.96-1.619 5.277-1.879c4.317 0 5.277 1.88 5.277 1.88s-.48-1.88-5.277-1.88c-4.797-.28-5.277 1.88-5.277 1.88z" fill="#fff" fill-rule="evenodd"/><path d="M111.732 14.191c0-.919 2.399-1.679 5.317-1.679 2.938 0 5.317.76 5.317 1.68 0 .939-2.379 1.678-5.317 1.678-2.918 0-5.317-.74-5.317-1.679z" fill="#262626" fill-rule="evenodd"/><path d="M112.212 14.591c0-.7 2.179-1.28 4.837-1.28 2.678 0 4.837.58 4.837 1.28 0 .72-2.159 1.28-4.837 1.28-2.658 0-4.837-.56-4.837-1.28z" fill="#040404" fill-rule="evenodd"/><path d="M111.572 13.792s.96-1.5 5.517-1.5c4.317 0 5.277 1.74 5.277 1.74s-.48-1.74-5.277-2c-5.037 0-5.517 1.76-5.517 1.76z" fill="#fff" fill-rule="evenodd"/><path d="M106.855 7.435c0-.939 2.319-1.718 5.157-1.718 2.858 0 5.157.78 5.157 1.718 0 .96-2.299 1.72-5.157 1.72-2.838 0-5.157-.76-5.157-1.72z" fill="#262626" fill-rule="evenodd"/><path d="M107.415 7.755c0-.76 2.119-1.399 4.717-1.399 2.618 0 4.717.64 4.717 1.4 0 .779-2.099 1.398-4.717 1.398-2.598 0-4.717-.62-4.717-1.399z" fill="#040404" fill-rule="evenodd"/><path d="M106.695 7.156s.98-1.56 5.317-1.56c4.597 0 5.557 1.56 5.557 1.56s-.48-1.84-5.297-1.84c-5.077 0-5.577 1.84-5.577 1.84z" fill="#fff" fill-rule="evenodd"/><path d="M121.406 9.514c0-.9 2.359-1.639 5.237-1.639 2.898 0 5.237.74 5.237 1.64 0 .919-2.339 1.638-5.237 1.638-2.878 0-5.237-.72-5.237-1.639z" fill="#262626" fill-rule="evenodd"/><path d="M121.886 9.754c0-.76 2.139-1.4 4.757-1.4 2.639 0 4.757.64 4.757 1.4 0 .78-2.118 1.4-4.757 1.4-2.618 0-4.757-.62-4.757-1.4z" fill="#040404" fill-rule="evenodd"/><path d="M121.007 9.154s.98-1.559 5.316-1.559c4.598 0 5.557 1.56 5.557 1.56s-.48-1.84-5.297-1.84c-5.077 0-5.576 1.84-5.576 1.84zm35.018 68.519v2.538c0 1.26-.48 2.279-.72 3.538-.719 2.019-1.678 3.798-3.117 5.317-1.7 1.52-3.378 2.019-5.317 2.778-1.44.52-2.399 1.02-4.098 1.02-.959.24-1.918 0-2.898.24 2.419-.5 4.837-2.779 6.756-4.298 1.939-1.519 3.618-3.038 4.098-5.556.48-1.52.48-3.039 1.699-4.058.959-.76 2.638-1.52 3.358-1.52z" fill="#fff" fill-rule="evenodd"/><path d="M156.105 36.018c-3.597 3.858-9.834 6.436-15.11 7.975-4.318 1.3-12.473 3.098-18.949 2.579 7.196 1.539 36.938 4.877 34.3-9.514 0-.52 0-.52-.24-1.04zm-53.247-12.952c3.837 4.597 2.398 15.87 3.597 22.027-4.797-1.02-5.276 5.117-.48 4.357.24 6.396.72 11.773 1.44 17.67.96 6.136-2.159 9.214-4.557 14.85-10.314.5-19.908-1.02-29.502-2.058-7.436-.76-22.067.78-27.584-4.857 5.757 1.539 33.1-6.397 25.905-16.39-2.639-3.838-11.274-1.8-15.351-2.3-5.517-.779-10.554-3.597-14.871-7.435 6.956-.26 33.34 9.994 32.86-5.376-.24-9.994-24.225-3.079-29.982-10.494 10.074 1.519 20.388 5.617 28.543-2.059 1.2-7.175 7.915-8.954 13.911-9.474 5.517-.26 13.432-2.059 16.07 1.539z" fill="#888793" fill-rule="evenodd"/><path d="M109.334 23.486c-9.115-.26-5.997 7.415-5.277 14.051.24 3.318.24 6.396 3.598 7.156 2.638.76 7.435-.76 10.553-.5 7.196 0 15.111-2.059 21.827-4.097 5.517-1.54 11.753-3.578 15.59-8.175 2.879-3.078 5.038-11.513 2.16-15.351-2.4-3.578-9.595 3.078-13.432 4.097-6.237 1.54-13.432 2.04-19.908 2.3-5.277.259-9.834.259-15.111.519zm-3.018 31.361c3.837-1.02 9.594.26 14.171-.24 4.797-.26 9.354-.78 14.171-1.799 4.078-1.02 8.155-1.54 12.013-2.818 3.838-.76 7.915-3.338 11.753-3.078.24.26.48.78.72.78-.24 3.577.72 5.116-.24 8.694-.72 2.818-1.44 5.377-1.68 8.455-.24 7.935-7.435 10.253-14.17 11.013-8.156.78-16.33 1.54-24.746 1.54-3.118 0-6.716.759-9.594 0-4.337-1.28-2.159-3.839-1.919-7.936.48-4.877-.96-9.734-.48-14.611zM34.739 30.502c4.557-4.098 15.35-3.318 21.107-4.618 5.757-1.279 13.912-1.279 18.709-3.837-9.834-.78-20.148-1.28-29.023-5.137-3.597-1.54-7.675-3.598-9.594 1.04-1.679 3.317-2.158 8.454-1.2 12.552zm2.498 8.135c-6.496 9.694 8.895 7.655 13.932 7.395 6.016-.24 16.35-.76 21.387-4.077-6.236-1.28-12.492-2.04-18.729-2.819-4.097-.5-13.471-3.837-16.59-.5zM33.3 68.638c-1.68-2.298-1.44-9.494.96-11.293 2.398-2.059 8.614.26 11.013.52 7.655 1.02 16.03 3.078 23.925 1.539-5.976 2.059-13.392 3.078-19.368 4.357-4.797 1.3-12.453 2.319-16.53 4.877z" fill="#c2c2cc" fill-rule="evenodd"/><path d="M41.415 15.09c-.96 0-3.138-2.578-3.858-1.798-.72 1.02 1.68 2.059 2.159 2.578-.96 1.54-2.159.76-3.118 2.299-.96 1.3-1.7 3.598-1.44 5.137 2.16-3.078 8.176-2.039 11.074-1.54 4.317.26 8.415.78 12.752.78 6.017 0 12.753-.78 18.769-2.058-3.598.26-8.415-.78-12.033-1.02-2.159-.26-5.536-.26-9.874-.78-2.878-.26-5.776-.779-8.415-1.798-1.939-.78-4.097-1.02-5.776-1.8zm-4.997 26.845c1.679-5.917 7.675-3.598 12.213-2.579 6.695 1.54 13.391-.5 20.087.26-6.696 1.28-13.392 1.28-20.087 1.799-1.68 0-11.733 2.039-12.213.52zM32.98 61.942c-.24-6.975 12.033-3.358 16.11-3.617 6.256-.26 12.753-1.02 18.989-.5-7.196 1.799-14.412 3.598-21.867 3.858-3.118 0-5.777.52-8.655 1.039-1.439.26-4.577 1.28-4.577-1.04zm75.154 22.247c6.976 2.558 18.51 0 25.965-.78 6.956-.76 13.691-2.798 20.407-3.577-5.037 5.376-16.33 5.636-23.306 6.656-6.955 1.019-16.57 3.817-23.305.76 0-.5.24-.76.24-1.28z" fill="#fff" fill-rule="evenodd"/><path d="M87.747 84.289c7.195 0 14.391 0 21.347-.78 5.037-.52 9.834-1.039 14.631-1.299 4.078-.26 8.155-.52 12.233-1.299 3.837-.52 7.675-2.079 11.513-2.079 1.199 0 2.398.26 3.358 0 1.439 0 2.398-.52 3.837-.52-2.398.52-4.797 1.3-7.195 1.82-3.358.779-6.476 1.039-9.834 1.558-5.277.52-10.554 1.82-15.83 2.34-5.997.519-12.233.759-18.47.759H89.906c-.48 0-.72-.24-1.2-.24z" fill="#424493" fill-rule="evenodd"/><path clip-path="url(#a)" d="M37.317 76.034c-.959 1.799-1.199 3.598-1.199 5.637 0 4.357 1.919 8.195 5.037 10.513h-3.598c-11.533 0-20.667 9.714-20.667 22.007L4.157 339.794c0 14.072 9.135 20.987 23.786 25.605 0 0 31.7 11.253 69.158 10.493 37.477-.76 68.938-10.493 68.938-10.493 12.973-4.098 24.006-11.533 24.006-25.605l-12.712-225.603c0-12.293-9.375-22.007-20.668-22.007h-3.598c3.118-2.318 5.037-6.156 5.037-10.513 0-1.78-.48-3.578-.96-5.377" fill="none" stroke="#343434" stroke-width="1.039" stroke-miterlimit="8"/><path d="M92.544 135.878c0-3.178 1.579-5.757 3.518-5.757 1.959 0 3.518 2.579 3.518 5.757 0 3.198-1.56 5.756-3.518 5.756-1.939 0-3.518-2.558-3.518-5.756zm2.159-9.834c0-1.06.84-1.92 1.838-1.92 1.02 0 1.84.86 1.84 1.92 0 1.059-.82 1.918-1.84 1.918-.999 0-1.838-.859-1.838-1.918zm.479-4.358c0-.5.54-.92 1.2-.92.68 0 1.199.42 1.199.92 0 .52-.52.92-1.2.92-.659 0-1.199-.4-1.199-.92z" fill="#fff" fill-rule="evenodd"/><path clip-path="url(#a)" d="M36.738 11.673c0-5.137 26.883-9.314 60.043-9.314 33.18 0 60.044 4.177 60.044 9.314 0 5.157-26.864 9.314-60.044 9.314-33.16 0-60.043-4.157-60.043-9.314" fill="none" stroke="#fff" stroke-width=".48" stroke-miterlimit="8"/><path d="M20.907 106.216c0-1.14 1.24-2.08 2.759-2.08 1.539 0 2.758.94 2.758 2.08 0 1.159-1.22 2.078-2.758 2.078-1.52 0-2.759-.92-2.759-2.078zm7.036 1.079c0-.8.94-1.48 2.079-1.48 1.16 0 2.079.68 2.079 1.48 0 .82-.92 1.48-2.08 1.48-1.139 0-2.078-.66-2.078-1.48z" fill="#fff" fill-rule="evenodd"/><path clip-path="url(#a)" d="m158.264 42.974-.48-9.474c4.318-12.033 0-17.67-1.439-19.189v-1.299c.24-.24.48-.76.48-1.02 0-5.376-26.884-9.474-60.024-9.474-33.38 0-60.043 4.098-60.043 9.475l-.24 1.539c-.96 2.059-5.757 14.071-1.2 19.708l-.959 16.39c-1.679 4.597-5.776 17.15-1.439 22.506v.52c0 5.377 28.563 9.974 63.881 9.974 35.06 0 63.622-4.597 63.622-9.974l-.96-12.033c3.358-10.753.24-16.11-1.199-17.649" fill="none" stroke="#343434" stroke-width=".64" stroke-miterlimit="8"/><path d="M103.018 223.545c0-.54.46-1 .999-1 .56 0 1 .46 1 1a.99.99 0 0 1-1 .999c-.54 0-1-.44-1-1zm.559-5.197c0-.54.46-1 1-1 .56 0 .999.46.999 1 0 .56-.44 1-1 1-.539 0-.999-.44-.999-1zm4.797 1.039c0-.54.46-1 1-1 .56 0 1 .46 1 1 0 .56-.44 1-1 1-.54 0-1-.44-1-1zm-.16 4.158c0-.54.38-1 .84-1 .48 0 .84.46.84 1 0 .56-.36.999-.84.999-.46 0-.84-.44-.84-1zm4.638 3.198c0-.46.42-.84.919-.84.52 0 .92.38.92.84 0 .48-.4.84-.92.84-.5 0-.92-.36-.92-.84zm-2.799 4.557c0-.5.46-.92 1-.92.56 0 1 .42 1 .92 0 .52-.44.92-1 .92-.54 0-1-.4-1-.92zm-5.356.64c0-.58.42-1.08.919-1.08.52 0 .92.5.92 1.08 0 .6-.4 1.079-.92 1.079-.5 0-.92-.48-.92-1.08zm-63.962-27.984c0-.5.38-.919.84-.919.48 0 .84.42.84.92 0 .52-.36.919-.84.919-.46 0-.84-.4-.84-.92zm.88 8.795c0-.54.46-1 1-1 .559 0 .999.46.999 1 0 .56-.44 1-1 1-.54 0-1-.44-1-1zm5.436-7.915c0-.58.42-1.08.92-1.08.52 0 .92.5.92 1.08 0 .6-.4 1.08-.92 1.08-.5 0-.92-.48-.92-1.08zm-2.318-6.156c0-.58.46-1.08 1-1.08.559 0 .999.5.999 1.08 0 .6-.44 1.079-1 1.079-.54 0-1-.48-1-1.08zm4.477 3.278c0-.58.46-1.08 1-1.08.56 0 .999.5.999 1.08 0 .6-.44 1.079-1 1.079-.54 0-.999-.48-.999-1.08zm-4.317-.48c0-.58.46-1.08 1-1.08.559 0 .999.5.999 1.08 0 .6-.44 1.08-1 1.08-.54 0-1-.48-1-1.08zm-2.479-2.398c0-.46.42-.84.92-.84.52 0 .92.38.92.84 0 .48-.4.839-.92.839-.5 0-.92-.36-.92-.84zm-3.837-.72c0-.54.42-1 .92-1 .519 0 .919.46.919 1 0 .56-.4 1-.92 1-.5 0-.92-.44-.92-1zm.16 9.434c0-.5.46-.92.999-.92.56 0 1 .42 1 .92 0 .52-.44.92-1 .92-.54 0-1-.4-1-.92zm-.48-5.597c0-.54.46-.999 1-.999.559 0 .999.46.999 1a.99.99 0 0 1-1 .999c-.54 0-1-.44-1-1zm5.357 3.678c0-.54.36-1 .8-1 .459 0 .799.46.799 1 0 .56-.34 1-.8 1-.44 0-.8-.44-.8-1zm8.155 3.038c0-.54.42-.999.92-.999.519 0 .919.46.919 1 0 .56-.4.999-.92.999-.5 0-.92-.44-.92-1zm-3.359 4.157c0-.539.42-.999.92-.999.52 0 .92.46.92 1 0 .56-.4 1-.92 1-.5 0-.92-.44-.92-1zm6.797 5.278c0-.54.42-1 .919-1 .52 0 .92.46.92 1 0 .56-.4 1-.92 1-.5 0-.92-.44-.92-1zm-2.959 8.115c0-.48.42-.88.92-.88.52 0 .92.4.92.88 0 .5-.4.88-.92.88-.5 0-.92-.38-.92-.88zm1.2-24.505c0-.58.4-1.08.88-1.08.499 0 .879.5.879 1.08 0 .6-.38 1.079-.88 1.079-.48 0-.88-.48-.88-1.08zm4.957 6.316c0-.5.38-.92.84-.92.479 0 .839.42.839.92 0 .52-.36.92-.84.92-.46 0-.84-.4-.84-.92zm.799-4.877c0-.46.42-.84.92-.84.52 0 .919.38.919.84 0 .48-.4.84-.92.84-.5 0-.919-.36-.919-.84zm-3.438 1.919c0-.58.46-1.08 1-1.08.56 0 .999.5.999 1.08 0 .6-.44 1.079-1 1.079-.54 0-.999-.48-.999-1.08zm-14.711 17.589c0-.46.46-.84 1-.84.56 0 .999.38.999.84 0 .48-.44.84-1 .84-.54 0-.999-.36-.999-.84zm23.825 42.854c0-.58.46-1.08 1-1.08.56 0 1 .5 1 1.08 0 .6-.44 1.08-1 1.08-.54 0-1-.48-1-1.08zm-8.154 2.079c0-.54.46-1 .999-1 .56 0 1 .46 1 1 0 .56-.44 1-1 1-.54 0-1-.44-1-1zm9.194 7.355c0-.54.38-1 .84-1 .48 0 .839.46.839 1 0 .56-.36 1-.84 1-.46 0-.839-.44-.839-1zm-7.995 3.917c0-.579.38-1.079.84-1.079.48 0 .839.5.839 1.08 0 .6-.36 1.08-.84 1.08-.46 0-.84-.48-.84-1.08zm6.316 9.915c0-.54.42-1 .92-1 .52 0 .919.46.919 1 0 .56-.4 1-.92 1-.5 0-.919-.44-.919-1zm-19.348-2.958c0-.5.46-.92 1-.92.559 0 .999.42.999.92 0 .52-.44.92-1 .92-.54 0-1-.4-1-.92zm-4.158-13.632c0-.6.38-1.12.84-1.12.48 0 .84.52.84 1.12 0 .62-.36 1.12-.84 1.12-.46 0-.84-.5-.84-1.12zm65.321-56.485c0-.5.42-.92.92-.92.519 0 .919.42.919.92 0 .519-.4.919-.92.919-.5 0-.92-.4-.92-.92zm-3.518-2.88c0-.539.46-.999 1-.999.559 0 .999.46.999 1 0 .56-.44 1-1 1-.54 0-1-.44-1-1zm2.638 0c0-.539.46-.999 1-.999.56 0 .999.46.999 1 0 .56-.44 1-1 1-.539 0-.999-.44-.999-1zm3.838.32c0-.459.38-.839.84-.839.48 0 .839.38.839.84 0 .48-.36.84-.84.84-.46 0-.84-.36-.84-.84zm-10.954-1.279c0-.5.46-.919 1-.919.56 0 1 .42 1 .92 0 .52-.44.919-1 .919-.54 0-1-.4-1-.92zm1.12 4.478c0-.54.46-1 1-1 .559 0 .999.46.999 1 0 .56-.44 1-1 1-.54 0-1-.44-1-1zm1.999-.639c0-.5.38-.92.84-.92.479 0 .839.42.839.92 0 .519-.36.919-.84.919-.46 0-.84-.4-.84-.92zm-.48 8.314c0-.58.38-1.08.84-1.08.48 0 .839.5.839 1.08 0 .6-.36 1.08-.84 1.08-.46 0-.839-.48-.839-1.08zm-.479 7.916c0-.54.379-1 .839-1 .48 0 .84.46.84 1 0 .559-.36.999-.84.999-.46 0-.84-.44-.84-1zm3.357 12.792c0-.5.46-.92 1-.92.56 0 .999.42.999.92 0 .52-.44.919-1 .919-.539 0-.999-.4-.999-.92zm13.433 5.356c0-.54.419-1 .919-1 .52 0 .919.46.919 1 0 .56-.4 1-.92 1-.5 0-.919-.44-.919-1zm-3.279 11.593c0-.58.42-1.08.92-1.08.52 0 .919.5.919 1.08 0 .6-.4 1.08-.92 1.08-.5 0-.919-.48-.919-1.08zm11.993-28.702c0-.54.38-1 .84-1 .479 0 .839.46.839 1 0 .56-.36 1-.84 1-.46 0-.84-.44-.84-1zm-9.674-13.032c0-.54.38-1 .84-1 .479 0 .839.46.839 1 0 .56-.36.999-.84.999-.46 0-.84-.44-.84-1zm1.679-5.197c0-.5.46-.92.999-.92.56 0 1 .42 1 .92 0 .52-.44.92-1 .92-.54 0-1-.4-1-.92zm-3.838.48c0-.5.38-.92.84-.92.48 0 .839.42.839.92 0 .52-.36.919-.84.919-.46 0-.839-.4-.839-.92zm-1.679 3.437c0-.54.46-1 1-1 .559 0 .999.46.999 1 0 .56-.44 1-1 1-.54 0-.999-.44-.999-1zm14.951 7.116c0-.54.38-1 .84-1 .48 0 .839.46.839 1 0 .56-.36 1-.84 1-.46 0-.84-.44-.84-1zm3.517-6.636c0-.54.46-1 1-1 .56 0 1 .46 1 1 0 .56-.44 1-1 1-.54 0-1-.44-1-1zm-8.154 2.878c0-.5.38-.92.84-.92.479 0 .839.42.839.92 0 .52-.36.92-.84.92-.46 0-.84-.4-.84-.92zm-6.156 11.353c0-.5.42-.919.919-.919.52 0 .92.42.92.92 0 .52-.4.919-.92.919-.5 0-.92-.4-.92-.92zm17.19 19.828c0-.58.419-1.079.918-1.079.52 0 .92.5.92 1.08 0 .599-.4 1.079-.92 1.079-.5 0-.919-.48-.919-1.08zm10.153-9.914c0-.54.46-.999 1-.999.559 0 .999.46.999 1a.99.99 0 0 1-1 .999c-.54 0-1-.44-1-1z" fill="#fff" fill-rule="evenodd"/></svg>