<svg xmlns="http://www.w3.org/2000/svg" version="1.0" viewBox="0 0 158.098 208.781"><defs><clipPath clipPathUnits="userSpaceOnUse" id="a"><path d="M2.798-.4h157.905v208.914H2.798z"/></clipPath></defs><path d="M3.798 184.608c0-8.355 34.919-15.15 77.952-15.15 43.054 0 77.953 6.795 77.953 15.15 0 8.375-34.899 15.15-77.953 15.15-43.033 0-77.952-6.775-77.952-15.15z" fill="#feedb4" fill-rule="evenodd" fill-opacity="1" stroke="none"/><path clip-path="url(#a)" d="M83.75 198.08c37.536-.32 72.875-6.636 72.875-13.952 0-4.997-16.57-8.654-37.537-10.993 38.157 5.657 49.41 18.629-35.339 24.945z" fill="#fff" fill-rule="evenodd" fill-opacity="1" stroke="none"/><path d="M159.703 192.483c0 8.315-34.979 14.951-77.793 14.951-43.114 0-78.112-6.636-78.112-14.95v-7.996c0 8.315 34.998 15.31 78.112 15.31 42.814 0 77.793-6.995 77.793-15.31v7.995z" fill="#fedf77" fill-rule="evenodd" fill-opacity="1" stroke="none"/><path d="M11.633 102.338c0-2.319 12.652-4.197 28.223-4.197 15.59 0 28.223 1.878 28.223 4.197s-12.633 4.197-28.223 4.197c-15.57 0-28.223-1.878-28.223-4.197zM95.342 151.948c0-2.279 12.673-4.158 28.263-4.158 15.61 0 28.263 1.88 28.263 4.158 0 2.299-12.652 4.157-28.263 4.157-15.59 0-28.263-1.858-28.263-4.157z" fill="#6faabb" fill-rule="evenodd" fill-opacity="1" stroke="none"/><path d="M74.075 37.537v4.318h15.27v-4.318h-15.27z" fill="#feeeb6" fill-rule="evenodd" fill-opacity="1" stroke="none"/><path d="M55.207 173.495c0-2.758 11.832-4.997 26.424-4.997 14.61 0 26.424 2.239 26.424 4.997 0 2.778-11.813 4.997-26.424 4.997-14.592 0-26.424-2.219-26.424-4.997z" fill="#feedb4" fill-rule="evenodd" fill-opacity="1" stroke="none"/><path d="M76.873 160.303c0-.46 2.18-.84 4.837-.84 2.679 0 4.838.38 4.838.84 0 .48-2.16.84-4.838.84-2.658 0-4.837-.36-4.837-.84z" fill="#fede77" fill-rule="evenodd" fill-opacity="1" stroke="none"/><path d="M113.012 183.449c0 3.358-14.032 7.355-31.222 7.355-17.469 0-31.22-3.997-31.22-7.355v-5.357c0 3.698 13.751 7.695 31.22 7.695 17.19 0 31.222-3.997 31.222-7.695v5.357z" fill="#feca2c" fill-rule="evenodd" fill-opacity="1" stroke="none"/><path d="M108.055 177.472c0 2.679-11.873 5.017-26.265 5.017-14.69 0-26.583-2.338-26.583-5.017v-4.017c0 2.678 11.892 5.037 26.583 5.037 14.392 0 26.265-2.359 26.265-5.037v4.017z" fill="#feca2c" fill-rule="evenodd" fill-opacity="1" stroke="none"/><path d="M108.035 175.134v2.338c0 2.659-11.873 4.977-26.245 4.977-14.67 0-26.523-2.318-26.523-4.977v-2.338c-3.119.68-4.698 1.999-4.698 2.998 0 3.658 13.752 7.635 31.221 7.635 17.19 0 31.222-3.977 31.222-7.635 0-1-1.86-2.319-4.977-2.998z" fill="#feeeb8" fill-rule="evenodd" fill-opacity="1" stroke="none"/><path d="m109.054 41.855 1.26 1.998c4.077 5.997 9.713 8.655 12.532 9.335-.3.32-.62 1-.94 1.319-.3.66-.62 1-.62 1.659-3.757-.66-10.033-2.658-14.111-8.655l-1.559-2.318c-4.397-6.337-10.674-11.334-22.906-9.655l1.579-6.995c13.472-.68 20.068 6.656 24.765 13.312z" fill="#a8cad3" fill-rule="evenodd" fill-opacity="1" stroke="none"/><path d="M78.073 4.397C78.073 2.32 79.672.6 81.63.6c1.978 0 3.557 1.719 3.557 3.797 0 2.1-1.579 3.798-3.557 3.798-1.96 0-3.558-1.699-3.558-3.798zM36.578 21.227v8.315h6.156v-8.315h-6.156z" fill="#feeeb6" fill-rule="evenodd" fill-opacity="1" stroke="none"/><path d="M42.534 9.554c-.64.34-.94.68-1.579 1 .64 1.679.94 3.677.94 4.997 0 .999-.94 1.998-1.88 1.998-1.239 0-1.878-.999-1.878-1.998 0-.66-.62-1-.94-1-.62 0-.939.34-.939 1 0 1.998 1.58 3.997 3.758 3.997 1.879 0 3.757-1.999 3.757-3.997 0-1.66-.939-4.318-1.239-5.997z" fill="#7bb0c0" fill-rule="evenodd" fill-opacity="1" stroke="none"/><path d="m60.303 13.912-2.198-.32c-6.896-.68-11.913-4.338-13.792-6.676 0 .68-.32 1-.62 1.679-.32.32-.64.66-.959 1 2.199 3.317 7.216 7.994 14.112 8.994h2.518c7.515 1 14.731 4.317 19.428 16.31l3.438-6.656C76.294 15.25 68.14 14.91 60.303 13.912z" fill="#a8cad3" fill-rule="evenodd" fill-opacity="1" stroke="none"/><path d="M120.367 71.517v8.634h6.156v-8.634h-6.156z" fill="#feeeb6" fill-rule="evenodd" fill-opacity="1" stroke="none"/><path d="M120.967 59.844c.32.34.94.68 1.239 1-.3 1.678-.92 3.997-.92 4.996 0 1.34.92 1.999 2.16 1.999.939 0 1.858-.66 1.858-1.999 0-.32.32-1 .94-1 .3 0 .6.68.6 1 0 2.339-1.54 3.998-3.399 3.998-2.159 0-3.718-1.66-3.718-3.998 0-1.659.62-4.317 1.24-5.996z" fill="#7bb0c0" fill-rule="evenodd" fill-opacity="1" stroke="none"/><path d="M81.87 161.162c-1.559 0-2.798 0-3.418-.34h-1.259v12.333c.64 1.32 8.435 1.979 9.355 0v-12.332h-1.56c-.62.34-1.858.34-3.118.34z" fill="#feeeb6" fill-rule="evenodd" fill-opacity="1" stroke="none"/><path d="M83.75 159.843V42.174h-3.998v117.67c.32.339 3.697.659 3.997 0z" fill="#fede77" fill-rule="evenodd" fill-opacity="1" stroke="none"/><path d="M80.871 6.536c1.26 1.659 4.717-2.998 1.899-4.337.32 1.339.32 3.997-1.26 4.337z" fill="#feca2d" fill-rule="evenodd" fill-opacity="1" stroke="none"/><path d="m80.871 28.203-2.179 3.977c-1.559-4.976-6.236-12.952-16.83-14.27-10.893-1.34-11.832-2.66-14.65-4.998C52.827 16.57 59.063 15.91 65.3 17.57c6.237 1.34 15.271 7.976 15.571 10.634z" fill="#8cb9c6" fill-rule="evenodd" fill-opacity="1" stroke="none"/><path d="M125.324 73.196v5.356h-3.758c1.88-.66 3.758-1.659 3.758-5.356z" fill="#feca2d" fill-rule="evenodd" fill-opacity="1" stroke="none"/><path d="m87.227 30.222-2.199 4.317c4.698-1.32 13.732-1 20.288 8.335 6.236 8.995 8.095 9.334 11.213 10.654-5.916-3.318-8.415-9.315-12.772-14.312-4.377-4.997-14.351-9.674-16.53-8.994z" fill="#8cb9c6" fill-rule="evenodd" fill-opacity="1" stroke="none"/><path d="M41.615 22.586v5.597h-3.838c2.239-.64 3.838-1.64 3.838-5.597zM88.067 38.896v2H77.753c4.377 0 9.694-.32 10.314-2zM80.231 43.534h2.479v114.97s-.92-111.293-.92-113.291zM78.712 172.136c1.9 1 4.737.68 5.997 0v-8.995c-.3 3.678-1.88 8.675-5.997 8.995z" fill="#feca2d" fill-rule="evenodd" fill-opacity="1" stroke="none"/><path d="M89.446 172.116c-.32-1.66-2.838-2.339-2.838-2.339v2.678c-.32 1.66-4.418 3.318-7.576 2.999 7.256.32 10.714-.68 10.414-3.338zM100.679 181.47c3.438.34 8.735-1 8.735-5.377.3.34 1.859 1.02 1.859 1.36.62 1.339-.62 1.998-1.56 2.678-3.118 1.679-6.536 2.678-9.973 2.678z" fill="#feca2d" fill-rule="evenodd" fill-opacity="1" stroke="none"/><path clip-path="url(#a)" d="M37.777 173.135C19.028 176.473-.04 181.13 7.475 187.127c-.64-5.657 8.755-9.655 30.302-13.992z" fill="#fff" fill-rule="evenodd" fill-opacity="1" stroke="none"/><path d="M70.877 170.097c-6.256 1-15.67 2.998-11.273 3.997 1.559-1.659 8.155-3.657 11.273-3.997zM78.712 170.497c0-2.319-.64-5.337 0-7.676.96 0 2.239.34 3.198.34-2.238 1.34-2.238 2.998-2.238 5.337zM80.631 1.879c-1.599.68-2.239 2.998-.64 4.317.32-1.659.96-2.318 1.92-3.638zM122.206 73.216c0 1.339-.32 2.658-.32 3.657.32-1.319 0-2.658.32-3.997.62 0 1.539 0 2.159.34-.92.66-2.16 1.339-2.16 2.658z" fill="#fff" fill-rule="evenodd" fill-opacity="1" stroke="none"/><path d="M81.95 178.532c-14.75 0-26.703-2.339-26.703-5.037" fill="none" stroke="#fec43e" stroke-width="1.1992731px" stroke-linecap="round" stroke-linejoin="round" stroke-miterlimit="4" stroke-dasharray="none" stroke-opacity="1"/><path d="M79.752 8.195v3.358h3.997V8.195h-3.997z" fill="#feeeb6" fill-rule="evenodd" fill-opacity="1" stroke="none"/><path d="m77.233 168.538.16.16" fill="none" stroke="#ffad00" stroke-width="1.1992731px" stroke-linecap="round" stroke-linejoin="round" stroke-miterlimit="4" stroke-dasharray="none" stroke-opacity="1"/><path d="M108.094 177.492c0 2.699-11.872 5.037-26.264 5.037-14.69 0-26.583-2.338-26.583-5.037" fill="none" stroke="#fff" stroke-width="1.1992731px" stroke-linecap="round" stroke-linejoin="round" stroke-miterlimit="4" stroke-dasharray="none" stroke-opacity="1"/><path d="M151.868 152.108c0 8.355-12.792 15.35-28.403 15.35-15.31 0-28.123-6.995-28.123-15.35 0 2.019 12.493 4.017 28.123 4.017 15.61 0 28.403-1.998 28.403-4.017z" fill="#a8cad3" fill-rule="evenodd" fill-opacity="1" stroke="none"/><path d="M123.005 166.1c7.236 0 20.748-1.98 26.704-10.314-3.757.999-7.215 1.339-9.414 1.339-.62 2.998-8.795 7.995-17.29 8.974z" fill="#8cb9c6" fill-rule="evenodd" fill-opacity="1" stroke="none"/><path d="M110.253 163.78c-1.859-.32-6.216-2.638-7.155-4.976-.92-1.98 18.049-.32 20.227-1.66-9.634 1.34-22.406-.999-25.204-1.998-.94 1 1.878 4.997 12.132 8.635zM56.886 99.82c2.818 0 9.694 1.359 10.313 2.718-1.559-.68-7.795-2.039-10.313-2.718zM141.154 149.47c2.819.34 9.375 1.359 9.994 3.038-1.559-1-7.495-2.359-9.994-3.039z" fill="#fff" fill-rule="evenodd" fill-opacity="1" stroke="none"/><path d="M102.438 154.786c4.997.66 12.512 1.32 20.947 1.32 9.075 0 17.21-.66 22.207-1.64 1.239 0-11.253-2.998-22.207-2.998-10.953 0-22.526 2.998-20.947 3.318zM18.649 105.196c4.997.68 12.512 1.34 20.947 1.34 9.075 0 16.89-.66 22.207-1.68 1.239-.34-11.254-3.038-22.207-3.038-10.953 0-22.526 3.038-20.947 3.378z" fill="#2e778e" fill-rule="evenodd" fill-opacity="1" stroke="none"/><path d="M78.073 4.397C78.073 2.32 79.672.6 81.63.6c1.978 0 3.557 1.719 3.557 3.797 0 2.1-1.579 3.798-3.557 3.798-1.96 0-3.558-1.699-3.558-3.798M79.752 8.195h3.997v3.358h-3.997zM109.054 41.855l1.26 1.998c4.077 5.997 9.713 8.655 12.532 9.335-.3.32-.62 1-.94 1.319-.3.66-.62 1-.62 1.659-3.757-.66-10.033-2.658-14.111-8.655l-1.559-2.318c-4.397-6.337-10.674-11.334-22.906-9.655l1.579-6.995c13.472-.68 20.068 6.656 24.765 13.312M60.303 13.912l-2.198-.32c-6.896-.68-11.913-4.338-13.792-6.676 0 .68-.32 1-.62 1.679-.32.32-.64.66-.959 1 2.199 3.317 7.216 7.994 14.112 8.994h2.518c7.515 1 14.731 4.317 19.428 16.31l3.438-6.656C76.294 15.25 68.14 14.91 60.303 13.912" fill="none" stroke="#333" stroke-width=".63961238px" stroke-linecap="round" stroke-linejoin="round" stroke-miterlimit="4" stroke-dasharray="none" stroke-opacity="1"/><path d="M74.075 37.537h15.27v4.318h-15.27zM39.776 16.59l.16 4.637M120.367 71.517h6.156v8.634h-6.156zM36.578 21.227h6.156v8.315h-6.156zM11.633 102.338c0-2.319 12.652-4.197 28.223-4.197 15.59 0 28.223 1.878 28.223 4.197s-12.633 4.197-28.223 4.197c-15.57 0-28.223-1.878-28.223-4.197M95.342 151.948c0-2.279 12.673-4.158 28.263-4.158 15.61 0 28.263 1.88 28.263 4.158 0 2.299-12.652 4.157-28.263 4.157-15.59 0-28.263-1.858-28.263-4.157M123.325 67.2l.24 4.317M84.069 159.463c1.56.34 2.479.34 2.479 1.02 0 .34-2.18.66-4.678.66-2.798 0-4.997-.32-4.997-.66s.94-.68 2.499-1.02" fill="none" stroke="#333" stroke-width=".63961238px" stroke-linecap="round" stroke-linejoin="round" stroke-miterlimit="4" stroke-dasharray="none" stroke-opacity="1"/><path d="M81.87 161.162c-1.559 0-2.798 0-3.418-.34h-1.259v12.333c.64 1.32 8.435 1.979 9.355 0v-12.332h-1.56c-.62.34-1.858.34-3.118.34M83.75 159.843V42.174h-3.998v117.67c.32.339 3.697.659 3.997 0M55.286 175.134c-3.138.68-4.717 1.999-4.717 2.998 0 3.658 13.792 7.635 31.341 7.635" fill="none" stroke="#333" stroke-width=".63961238px" stroke-linecap="round" stroke-linejoin="round" stroke-miterlimit="4" stroke-dasharray="none" stroke-opacity="1"/><path d="M50.57 178.092c0 3.698 13.751 7.695 31.22 7.695 17.19 0 31.222-3.997 31.222-7.695v5.357c0 3.358-14.032 7.355-31.222 7.355-17.469 0-31.22-3.997-31.22-7.355v-4.677" fill="none" stroke="#333" stroke-width=".63961238px" stroke-linecap="round" stroke-linejoin="round" stroke-miterlimit="4" stroke-dasharray="none" stroke-opacity="1"/><path d="M81.77 185.767c17.19 0 31.242-3.977 31.242-7.635 0-1-1.86-2.319-4.997-2.998v2.338c0 2.659-11.873 4.977-26.245 4.977-14.67 0-26.563-2.318-26.563-4.977" fill="none" stroke="#333" stroke-width=".63961238px" stroke-linecap="round" stroke-linejoin="round" stroke-miterlimit="4" stroke-dasharray="none" stroke-opacity="1"/><path d="M50.57 178.092c0 3.678 13.751 7.675 31.22 7.675 17.19 0 31.222-3.997 31.222-7.675" fill="none" stroke="#333" stroke-width=".63961238px" stroke-linecap="round" stroke-linejoin="round" stroke-miterlimit="4" stroke-dasharray="none" stroke-opacity="1"/><path d="M108.055 177.472c0 2.679-11.873 5.017-26.265 5.017-14.69 0-26.583-2.338-26.583-5.017v-4.017c0 2.678 11.892 5.037 26.583 5.037 14.392 0 26.265-2.359 26.265-5.037v4.017zM159.703 192.483c0 8.315-34.979 14.951-77.793 14.951-43.114 0-78.112-6.636-78.112-14.95v-7.996c0 8.315 34.998 15.31 78.112 15.31 42.814 0 77.793-6.995 77.793-15.31v7.995z" fill="none" stroke="#333" stroke-width=".63961238px" stroke-linecap="round" stroke-linejoin="round" stroke-miterlimit="4" stroke-dasharray="none" stroke-opacity="1"/><path d="M86.488 168.498v4.677c-.94 1.999-8.755 1.32-9.375 0v-4.677c-12.512.34-21.906 2.338-21.906 4.997 0 2.678 11.892 4.997 26.583 4.997 14.392 0 26.265-2.319 26.265-4.997 0-2.659-9.375-4.657-21.567-4.997" fill="none" stroke="#333" stroke-width=".63961238px" stroke-linecap="round" stroke-linejoin="round" stroke-miterlimit="4" stroke-dasharray="none" stroke-opacity="1"/><path d="M100.04 169.777c4.996 1 8.114 2.339 8.114 3.678 0 2.658-11.872 4.997-26.244 4.997-14.67 0-26.544-2.339-26.544-4.997 0-1.34 3.119-2.679 8.116-3.678-34.06 1.68-59.684 7.675-59.684 14.671 0 8.315 34.998 15.31 78.112 15.31 42.814 0 77.793-6.995 77.793-15.31 0-6.996-25.304-12.992-59.664-14.67M151.868 152.108c0 8.355-12.792 15.35-28.403 15.35-15.31 0-28.123-6.995-28.123-15.35 0 0 0 0 0 0 0 2.019 12.493 4.017 28.123 4.017 15.61 0 28.403-1.998 28.403-4.017M42.534 9.554c-.64.34-.94.68-1.579 1 .64 1.679.94 3.677.94 4.997 0 .999-.94 1.998-1.88 1.998-1.239 0-1.878-.999-1.878-1.998 0-.66-.62-1-.94-1-.62 0-.939.34-.939 1 0 1.998 1.58 3.997 3.758 3.997 1.879 0 3.757-1.999 3.757-3.997 0-1.66-.939-4.318-1.239-5.997M120.967 59.844c.32.34.94.68 1.239 1-.3 1.678-.92 3.997-.92 4.996 0 1.34.92 1.999 2.16 1.999.939 0 1.858-.66 1.858-1.999 0-.32.32-1 .94-1 .3 0 .6.68.6 1 0 2.339-1.54 3.998-3.399 3.998-2.159 0-3.718-1.66-3.718-3.998 0-1.659.62-4.317 1.24-5.996" fill="none" stroke="#333" stroke-width=".63961238px" stroke-linecap="round" stroke-linejoin="round" stroke-miterlimit="4" stroke-dasharray="none" stroke-opacity="1"/><path d="M119.008 57.205c0-2.198 1.619-3.997 3.598-3.997 1.998 0 3.598 1.799 3.598 3.997 0 2.219-1.6 3.998-3.598 3.998-1.98 0-3.598-1.779-3.598-3.998z" fill="#feeeb6" fill-rule="evenodd" fill-opacity="1" stroke="none"/><path d="M124.445 55.526c1.279 1.36 0 5.037-2.559 4.038 1.28-1 3.198-2.019 2.559-4.038z" fill="#feca2d" fill-rule="evenodd" fill-opacity="1" stroke="none"/><path d="M122.446 53.208c-1.78.68-2.079 3.338-.6 4.317 0-1.659.9-2.318 1.48-3.638z" fill="#fff" fill-rule="evenodd" fill-opacity="1" stroke="none"/><path d="M119.008 57.205c0-2.198 1.619-3.997 3.598-3.997 1.998 0 3.598 1.799 3.598 3.997 0 2.219-1.6 3.998-3.598 3.998-1.98 0-3.598-1.779-3.598-3.998" fill="none" stroke="#333" stroke-width=".63961238px" stroke-linecap="round" stroke-linejoin="round" stroke-miterlimit="4" stroke-dasharray="none" stroke-opacity="1"/><path d="M36.898 6.756c0-2.119 1.619-3.838 3.597-3.838 2 0 3.598 1.72 3.598 3.838 0 2.139-1.599 3.838-3.598 3.838-1.978 0-3.597-1.7-3.597-3.838z" fill="#feeeb6" fill-rule="evenodd" fill-opacity="1" stroke="none"/><path d="M42.174 5.237c1.2 1 0 4.637-2.398 3.977 1.2-.979 2.998-2.318 2.398-3.977z" fill="#feca2d" fill-rule="evenodd" fill-opacity="1" stroke="none"/><path d="M39.936 4.597c-1.919.34-2.559 2.619-.96 3.598.32-1.3-.32-3.598 1.6-3.598z" fill="#fff" fill-rule="evenodd" fill-opacity="1" stroke="none"/><path d="M36.898 6.756c0-2.119 1.619-3.838 3.597-3.838 2 0 3.598 1.72 3.598 3.838 0 2.139-1.599 3.838-3.598 3.838-1.978 0-3.597-1.7-3.597-3.838" fill="none" stroke="#333" stroke-width=".63961238px" stroke-linecap="round" stroke-linejoin="round" stroke-miterlimit="4" stroke-dasharray="none" stroke-opacity="1"/><path d="M78.712 16.19v21.347h5.997V16.19h-5.997z" fill="#fede77" fill-rule="evenodd" fill-opacity="1" stroke="none"/><path d="M74.075 11.553v4.637h15.27v-4.637h-15.27z" fill="#feeeb6" fill-rule="evenodd" fill-opacity="1" stroke="none"/><path d="M77.593 14.911h8.015c1.859.32 2.459-.34 1.54-2.319-.92.34-1.84 1.32-3.079 1.66-.92.32-1.539 0-2.458 0-.92.32-1.86.659-2.779.979zM81.25 17.57c.62.34 1.88-.34 2.2.34.3.339 0 6.995 0 7.335v6.676c0 .66.3 3.338-.32 3.657-.62 1-2.819 0-3.778.68 1.899-1 2.838-2.678 3.158-5.017.3-1.659 0-3.658 0-5.337-.32-1-.64-7.335-.64-8.335z" fill="#feca2d" fill-rule="evenodd" fill-opacity="1" stroke="none"/><path d="M74.075 11.553h15.27v4.637h-15.27zM78.712 16.19h5.997v21.347h-5.997z" fill="none" stroke="#333" stroke-width=".63961238px" stroke-linecap="round" stroke-linejoin="round" stroke-miterlimit="4" stroke-dasharray="none" stroke-opacity="1"/><path d="M11.633 102.138c0 8.675 12.792 15.67 28.083 15.67 15.59 0 28.363-6.995 28.363-15.67 0 2.339-12.773 4.337-28.363 4.337s-28.083-1.998-28.083-4.337z" fill="#a8cad3" fill-rule="evenodd" fill-opacity="1" stroke="none"/><path d="M39.056 116.53c7.196 0 20.628-2 26.864-10.394-3.738.68-7.176 1.359-9.674 1.359-.62 3.018-8.755 8.035-17.19 9.034z" fill="#8cb9c6" fill-rule="evenodd" fill-opacity="1" stroke="none"/><path d="M26.224 114.13c-2.179-.659-6.256-2.977-7.196-4.976-1.259-1.979 17.85-.32 20.348-1.66-9.694 1-22.546-.999-25.364-1.998-.94 1 1.878 4.997 12.212 8.635z" fill="#fff" fill-rule="evenodd" fill-opacity="1" stroke="none"/><path d="M11.633 102.138c0 8.675 12.792 15.67 28.083 15.67 15.59 0 28.363-6.995 28.363-15.67 0 0 0 0 0 0 0 2.339-12.773 4.337-28.363 4.337s-28.083-1.998-28.083-4.337" fill="none" stroke="#333" stroke-width=".63961238px" stroke-linecap="round" stroke-linejoin="round" stroke-miterlimit="4" stroke-dasharray="none" stroke-opacity="1"/><path d="M114.69 178.132c0-1.48 4.977-2.678 11.074-2.678 6.116 0 11.073 1.199 11.073 2.678 0 1.48-4.957 2.678-11.073 2.678-6.097 0-11.074-1.199-11.074-2.678z" fill="#feca2d" fill-rule="evenodd" fill-opacity="1" stroke="none"/><path d="M142.154 118.128h17.15v33.66H87.186v-33.66h54.967z" fill="#fff" fill-rule="evenodd" fill-opacity="1" stroke="none"/><path clip-path="url(#a)" d="M142.154 118.128h17.15v33.66H87.186v-33.66h17.49" fill="none" stroke="#000" stroke-width=".63961238px" stroke-linecap="butt" stroke-linejoin="miter" stroke-miterlimit="8" stroke-dasharray="none" stroke-opacity="1"/><path d="m110.533 118.128 27.024.16" fill="none" stroke="#000" stroke-width=".63961238px" stroke-linecap="butt" stroke-linejoin="miter" stroke-miterlimit="8" stroke-dasharray="none" stroke-opacity="1"/><path d="M151.868 152.108 125.884 80.15M95.342 152.108l25.505-71.957" fill="none" stroke="#333" stroke-width=".63961238px" stroke-linecap="round" stroke-linejoin="round" stroke-miterlimit="10" stroke-dasharray="none" stroke-opacity="1"/><path d="m123.325 80.151.24 38.377" fill="none" stroke="#000" stroke-width=".63961238px" stroke-linecap="butt" stroke-linejoin="miter" stroke-miterlimit="8" stroke-dasharray="none" stroke-opacity="1"/><path d="M58.445 67.52h17.469v33.978H3.798V67.52h54.647z" fill="#fff" fill-rule="evenodd" fill-opacity="1" stroke="none"/><path clip-path="url(#a)" d="M58.445 67.52h17.469v33.978H3.798V67.52h17.17" fill="none" stroke="#000" stroke-width=".63961238px" stroke-linecap="butt" stroke-linejoin="miter" stroke-miterlimit="8" stroke-dasharray="none" stroke-opacity="1"/><path d="m26.904 67.52 26.863.159" fill="none" stroke="#000" stroke-width=".63961238px" stroke-linecap="butt" stroke-linejoin="miter" stroke-miterlimit="8" stroke-dasharray="none" stroke-opacity="1"/><path d="M68.079 101.498 42.414 29.862M11.633 101.498l25.584-71.636" fill="none" stroke="#333" stroke-width=".63961238px" stroke-linecap="round" stroke-linejoin="round" stroke-miterlimit="10" stroke-dasharray="none" stroke-opacity="1"/><path d="m39.776 29.862.16 37.977" fill="none" stroke="#000" stroke-width=".63961238px" stroke-linecap="butt" stroke-linejoin="miter" stroke-miterlimit="8" stroke-dasharray="none" stroke-opacity="1"/></svg>