<svg xmlns="http://www.w3.org/2000/svg" version="1.0" viewBox="0 0 221.027 245.367"><defs><clipPath clipPathUnits="userSpaceOnUse" id="a"><path d="M4.157 0h220.747v245.531H4.157z"/></clipPath></defs><path clip-path="url(#a)" d="M112.612 9.474s-51.25 2.559-83.59 36.098C7.955 67.52 15.071 83.67 22.227 91.824c0 0-5.437 7.796-1.36 12.513 4.078 4.917-3.078 12.512-.32 18.868 2.519 6.356-4.117 16.31-1.039 47.691 3.238 31.381-4.437 37.018-11.753 40.456-7.155 3.438 2.04 5.636 9.874 6.356 7.676.72 11.074-.92 25.865 8.155 14.67 9.235 87.507 42.414 149.27-11.433 11.432-9.954 8.354-9.594 16.51-10.713 8.194-1.08 19.907-1.08 11.752-8.515-8.155-7.236-18.189-16.51-17.35-27.184.68-10.553 6.637-50.25-2.398-73.475 0 0 2.918-5.437 2.918-8.715 0-3.238 7.636-13.032 5.757-22.306-1.68-9.235-14.272-30.102-36.418-40.256-22.307-10.154-23.826-10.154-60.923-13.792z" fill="#dfc99d" fill-rule="evenodd"/><path clip-path="url(#a)" d="M112.612 9.474s-51.25 2.559-83.59 36.098C7.955 67.52 15.071 83.67 22.227 91.824c0 0-5.437 7.796-1.36 12.513 4.078 4.917-3.078 12.512-.32 18.868 2.519 6.356-4.117 16.31-1.039 47.691 3.238 31.381-4.437 37.018-11.753 40.456-7.155 3.438 2.04 5.636 9.874 6.356 7.676.72 11.074-.92 25.865 8.155 14.67 9.235 87.507 42.414 149.27-11.433 11.432-9.954 8.354-9.594 16.51-10.713 8.194-1.08 19.907-1.08 11.752-8.515-8.155-7.236-18.189-16.51-17.35-27.184.68-10.553 6.637-50.25-2.398-73.475 0 0 2.918-5.437 2.918-8.715 0-3.238 7.636-13.032 5.757-22.306-1.68-9.235-14.272-30.102-36.418-40.256-22.307-10.154-23.826-10.154-60.923-13.792" fill="none" stroke="#343434" stroke-width=".64" stroke-linecap="round" stroke-linejoin="round"/><path d="M110.733 1c-6.316.16-14.271 8.874-23.306 14.11-8.995 5.478-40.096 33.94-44.853 39.577-4.597 5.596-6.476 9.594-5.277 12.672 1.36 2.918 2.559 15.59 13.432 21.787 0 0 20.748 3.078 28.903 4.717 8.155 1.6 25.824 4.677 35.178 2.718 9.315-1.998 22.427-6.356 29.223-6.715 6.796-.36 29.542-5.997 35.178-10.354 5.437-4.358 7.276-32.46 7.276-32.46s-8.315-3.638-12.393-5.997c-4.077-2.358-32.62-23.226-40.615-29.182C125.324 5.876 120.047.6 110.733.999z" fill="#fcdd09" fill-rule="evenodd"/><path d="M125.884 19.748c.88 15.03 4.277 32.78 19.068 39.456 2.918 1.44 6.476 2.878 9.035-.36 3.558-4.717-.84-6.875-4.078-9.234-5.277-3.998-9.354-8.315-13.272-13.952-2.918-4.317-4.077-10.113-7.315-14.111-1.2-1.44-1.36-2.319-3.438-2.718zm-25.864-8.355c2.038-1.839 5.796-4.557 8.514-2.558 3.358 2.558 2.519 9.234 1.52 12.872-2.56 10.314-8.156 19.388-15.631 26.424-3.558 3.438-7.796 6.516-12.033 8.715-4.917 2.518-9.994 3.797-15.27 5.436-1.68.52-4.238 1.96-5.957 1.6-1.52-.16-2.039-1.6-1-2.72.84-1.078 2.879-1.238 4.078-1.798 2.039-.88 4.237-1.999 6.276-3.078 1.68-.72 3.038-2.159 4.398-3.438 2.038-1.799 4.237-3.238 6.276-5.077 4.237-4.317 9.354-8.515 11.873-14.311 1.359-3.238 2.238-7.036 2.878-10.674.52-2.358 1.04-4.517 1.879-6.716.68-1.599 1.719-3.598 2.038-4.877z" fill="#f9ca06" fill-rule="evenodd"/><path d="M105.416 3.878s3.238-2.559 8.715-1.8c5.277.88 11.033 5.078 16.51 9.795 5.277 4.717 27.703 19.428 27.703 19.428s-29.102-15.59-33.5-20.707c-4.437-4.877-11.753-9.275-19.428-6.716z" fill="#fced99" fill-rule="evenodd"/><path d="M105.736 5.037c2.079.2 3.438-.36 5.317.56 2.398 1.239 3.278 3.438 3.957 5.956 1.04 3.798.68 6.516-.16 10.154-.88 3.957-1.559 8.675-3.797 11.913.88-2.319 2.598-4.318 3.438-6.676.84-2.359 1.559-4.518 2.038-6.876.72-3.638 1.2-7.436-.16-10.874-.839-2.358-2.558-4.517-4.957-4.877-1.878-.2-3.278.56-4.797.56zm-43.494 32.9c-.68 1.48-2.718 2.758-3.917 3.998-1.52 1.479-2.719 3.118-4.078 4.717-1.519 1.639-3.238 3.118-4.757 4.557a45.153 45.153 0 0 1-4.277 3.998c-2.559 2.158-5.277 5.796-5.957 9.234-.52 1.999.52 3.478 1.36 5.477 1.039 2.358 1.878 4.877 3.078 7.435 1.359 3.278 4.077 7.076 6.995 8.875 1.36.92 2.879 1.639 4.438 1.839 1.519.36 4.077-.56 5.436.36-2.238.52-5.956-2-7.835-3.079-2.558-1.479-2.918-3.478-3.918-5.996-.52-1.28-1.519-1.839-2.038-2.918-.68-1.28-.2-2.719-.68-3.998-.52-.88-1.36-1.28-1.719-2.159-.16-.56.16-1.279 0-1.838-.16-.52-.52-1.08-.68-1.64-.32-2.358 1.36-5.596 2.559-7.595 2.199-3.078 4.757-5.996 7.316-8.715 3.238-3.637 5.636-7.995 8.674-11.633zm111.613 5.517c3.398.92 8.475 2.198 11.033 4.557.32 7.036-.84 15.75-3.038 22.067-1.04 3.437-1.88 5.636-4.757 7.635-3.758 2.318-6.796 1.799-11.393 2.678 2.398-2.678 7.475-2.518 9.514-5.237.68-.919.36-2.158.84-3.437.36-1.08.879-1.08 1.199-2.719.36-1.279-.32-2.159 0-3.438.52-1.439 1.878-2.518 2.198-4.157.16-1.44-.84-2.559-.84-3.638 0-1.799.84-3.798 1.36-5.437-1.36-1.08-.84-3.957-1.52-5.596-1.039-2-1.878-2.159-3.757-2.719zM122.046 32.82s.2 19.069 21.187 30.302c0 0-21.187-6.676-21.187-30.302zm-19.828 19.468c0-.36.28-.68.6-.68.36 0 .6.32.6.68 0 .4-.24.68-.6.68-.32 0-.6-.28-.6-.68zm3.358-3.118c0-.4.36-.76.76-.76.44 0 .76.36.76.76 0 .44-.32.76-.76.76a.76.76 0 0 1-.76-.76zm2.319 5.037c0-.4.32-.76.68-.76.399 0 .679.36.679.76 0 .44-.28.76-.68.76-.36 0-.68-.32-.68-.76zm3.517-1.359c0-.32.2-.6.4-.6.24 0 .4.28.4.6 0 .36-.16.6-.4.6-.2 0-.4-.24-.4-.6zm-8.155 6.396c0-.36.28-.68.56-.68.32 0 .56.32.56.68 0 .4-.24.68-.56.68-.28 0-.56-.28-.56-.68zm5.277-14.111c0-.16.16-.32.36-.32.2 0 .36.16.36.32 0 .2-.16.32-.36.32-.2 0-.36-.12-.36-.32zm-8.794 9.954c0-.28.2-.52.4-.52.24 0 .4.24.4.52 0 .32-.16.52-.4.52-.2 0-.4-.2-.4-.52zm8.474-15.711c0-.28.28-.56.6-.56.36 0 .6.28.6.56 0 .32-.24.56-.6.56-.32 0-.6-.24-.6-.56zm2.879-1.519c0-.04.28-.08.56-.08.32 0 .559.04.559.08 0 .08-.24.08-.56.08-.28 0-.56 0-.56-.08zm.959 7.036c0-.04.28-.08.6-.08.36 0 .6.04.6.08 0 .08-.24.08-.6.08-.32 0-.6 0-.6-.08zM92.224 62.282c0-.36.28-.68.6-.68.36 0 .6.32.6.68 0 .4-.24.68-.6.68-.32 0-.6-.28-.6-.68zm4.477-1.519c0-.44.32-.84.68-.84.4 0 .68.4.68.84 0 .48-.28.84-.68.84-.36 0-.68-.36-.68-.84zm6.237 2.399c0-.48.36-.92.8-.92.479 0 .799.44.799.92 0 .52-.32.92-.8.92-.44 0-.8-.4-.8-.92z" fill="#fced99" fill-rule="evenodd"/><path d="M112.692 44.893c0-.04.36-.08.76-.08.439 0 .759.04.759.08 0 .08-.32.08-.76.08-.4 0-.76 0-.76-.08zm.719-7.955c0-.44.4-.84.84-.84.48 0 .84.4.84.84 0 .48-.36.84-.84.84-.44 0-.84-.36-.84-.84zm2.319-5.158c0-.32.28-.639.6-.639.36 0 .6.32.6.64 0 .36-.24.64-.6.64-.32 0-.6-.28-.6-.64zm1.2-21.626c0-.52.479-1 .999-1 .56 0 .999.48.999 1 0 .56-.44 1-1 1-.52 0-.999-.44-.999-1zm1.438-3.598c0-.48.4-.92.84-.92.48 0 .84.44.84.92 0 .52-.36.92-.84.92-.44 0-.84-.4-.84-.92zm3.678 2.558c0-.44.4-.839.84-.839.48 0 .839.4.839.84a.82.82 0 0 1-.84.839.844.844 0 0 1-.839-.84zm-.48 2.679c0-.32.36-.64.76-.64.44 0 .76.32.76.64 0 .36-.32.64-.76.64-.4 0-.76-.28-.76-.64zm.32 4.157c0-.16.12-.32.24-.32.16 0 .24.16.24.32 0 .2-.08.32-.24.32-.12 0-.24-.12-.24-.32zm-9.994-12.512c0-.44.32-.84.68-.84.4 0 .68.4.68.84 0 .48-.28.84-.68.84-.36 0-.68-.36-.68-.84zm-4.317 1.039c0-.28.24-.52.48-.52.28 0 .48.24.48.52 0 .32-.2.52-.48.52-.24 0-.48-.2-.48-.52zm-2.319 1c0-.24.2-.48.4-.48.24 0 .4.24.4.48 0 .28-.16.48-.4.48-.2 0-.4-.2-.4-.48zm-1.199.399c0-.12.08-.24.16-.24.12 0 .16.12.16.24 0 .16-.04.24-.16.24-.08 0-.16-.08-.16-.24zm-1.119.84c0-.04.08-.12.16-.12.12 0 .16.08.16.12 0 .08-.04.12-.16.12-.08 0-.16-.04-.16-.12zm-.88.52c0-.04.08-.08.16-.08.12 0 .16.04.16.08 0 .08-.04.08-.16.08-.08 0-.16 0-.16-.08zm1.359-2.159c0-.12.08-.24.16-.24.12 0 .16.12.16.24 0 .16-.04.24-.16.24-.08 0-.16-.08-.16-.24zm.8-.8c0-.08.12-.16.24-.16.16 0 .24.08.24.16 0 .12-.08.16-.24.16-.12 0-.24-.04-.24-.16zm.879-.319c0-.24.16-.48.32-.48.2 0 .32.24.32.48 0 .28-.12.48-.32.48-.16 0-.32-.2-.32-.48zm.8-.24c0-.2.2-.4.4-.4.24 0 .4.2.4.4 0 .24-.16.4-.4.4a.4.4 0 0 1-.4-.4zm66.12 43.813c0-.76.56-1.439 1.239-1.439.72 0 1.24.68 1.24 1.44 0 .799-.52 1.438-1.24 1.438-.68 0-1.24-.64-1.24-1.439zm3.997.519c0-.479.4-.919.84-.919.48 0 .84.44.84.92 0 .52-.36.92-.84.92-.44 0-.84-.4-.84-.92zm-.959 4.318c0-.4.32-.76.64-.76.36 0 .64.36.64.76 0 .44-.28.76-.64.76-.32 0-.64-.32-.64-.76zm-2.718.92c0-.24.2-.48.44-.48.28 0 .439.24.439.48 0 .28-.16.48-.44.48-.24 0-.44-.2-.44-.48zm-6.316-6.596c0-.24.16-.44.32-.44.2 0 .319.2.319.44 0 .28-.12.44-.32.44-.16 0-.32-.16-.32-.44zM43.614 62.682c0-.56.48-1.08.999-1.08.56 0 1 .52 1 1.08 0 .6-.44 1.08-1 1.08-.52 0-1-.48-1-1.08zm3.517-1.159c0-.28.28-.56.56-.56.32 0 .56.28.56.56 0 .32-.24.56-.56.56-.28 0-.56-.24-.56-.56zm1.599-2.519c0-.48.44-.92.92-.92.52 0 .92.44.92.92 0 .52-.4.92-.92.92a.93.93 0 0 1-.92-.92zm-3.757 7.356c0-.4.32-.76.64-.76.36 0 .639.36.639.76 0 .44-.28.76-.64.76-.32 0-.64-.32-.64-.76zm2.638-.88c0-.48.36-.92.76-.92.44 0 .76.44.76.92 0 .52-.32.92-.76.92-.4 0-.76-.4-.76-.92zm-2.318-5.916c0-.52.44-1 .919-1 .52 0 .92.48.92 1 0 .56-.4 1-.92 1-.48 0-.92-.44-.92-1zm5.677 4.437c0-.28.279-.56.559-.56.32 0 .56.28.56.56 0 .32-.24.56-.56.56-.28 0-.56-.24-.56-.56zm-1.68 6.676c0-.24.24-.44.48-.44.28 0 .48.2.48.44 0 .28-.2.44-.48.44-.24 0-.48-.16-.48-.44zm4.318-10.833c0-.04.24-.08.48-.08.279 0 .479.04.479.08 0 .08-.2.08-.48.08-.24 0-.48 0-.48-.08zm2.318-4.677c0-.48.48-.92 1-.92.56 0 .999.44.999.92 0 .52-.44.919-1 .919-.52 0-.999-.4-.999-.92zm3.358-1.719c0-.24.2-.48.4-.48.24 0 .4.24.4.48 0 .28-.16.48-.4.48-.2 0-.4-.2-.4-.48zm2.638-2.079c0-.04.08-.08.16-.08.12 0 .16.04.16.08 0 .08-.04.08-.16.08-.08 0-.16 0-.16-.08z" fill="#fced99" fill-rule="evenodd"/><path d="M36.938 62.082c0-3.238-1.52-6.835-2.879-9.874-.52-1.079-1.399-2.158-1.879-3.238-.879-1.839.32-1.279 1.68-.72 2.038.72 4.597 1.24 6.795 1.96.68.2 2.719.36 3.078.919 1 1.08-.839 1.959-1.519 2.678-2.398 2-3.757 5.037-5.116 7.556zM48.57 88.546c-2.318-.52-4.357-1.079-6.875-1.079-2.199 0-5.717-.52-7.596.36.36-1.8 2.879-2.519 3.398-4.717.64-2.719.48-5.237-.36-7.796-1.159-3.238-1.319-7.035-1.678-10.513.999.76 1.199 2.918 1.519 4.197.52 1.44.999 2.719 1.359 4.158.48 2.358 1.16 4.517 2.358 6.516 1.68 2.918 4.678 7.635 7.556 8.874zm83.63 3.958c1.04.16 3.078-.36 4.437-.2 1.68.2 3.358.52 5.237 1.08 4.038 1.239 7.955 1.399 12.153 1.399-2.199.16-4.198-1.04-6.077-1.76-1.519-.719-3.558-1.079-5.236-1.079-2.719-.16-5.437-.36-7.956-.36zm46.372-11.953c.32 2.039 1.199 3.518 2.398 4.797 1.04.92 2.08 2.399.52 3.318-2.079 1.08-3.438 0-3.638-2.198 0-1.84.88-3.318.72-5.157zm2.478-.999c.52-2.599 7.955-1.84 9.115 0 1.519 2.198-2.679.76-3.358.76-1-.2-2.039.16-3.038 0-.84-.2-1.68-.76-2.199-.96zm-12.872-43.934c1.04 1.64 3.078 1.8 4.437 2.719 1.68 1.12 3.039 1.999 4.757 2.918 1.52.76 2.879 1.48 4.398 2.199 1.2.56 3.078 1.998 4.237 1.998-.32-3.637-3.877-7.475-6.436-9.474-2.039-1.639-3.238-2.039-5.756-1.639-1.36 0-4.278.36-5.277.88zM42.094 48.85s1.72 3.079 6.277-1.239c4.757-4.357 26.664-25.185 30.021-27.023 0 0-26.104 18.308-28.822 22.666-2.878 4.357-7.476 5.596-7.476 5.596z" fill="#c1a778" fill-rule="evenodd"/><path d="M153.387 25.145s13.672 9.994 17.59 12.312l3.917-1.599s-12.113-3.997-21.507-10.713zm-113.131 82.19s2.238 3.438 10.753 4.157c8.675.92 11.713 1.84 17.19 3.998 5.236 2.359 21.267 11.233 28.902 10.873 7.835-.16 15.83-2.158 20.068-.72 4.437 1.44 19.068-3.437 22.306-5.996 3.239-2.718 10.554-4.317 14.792-4.877 4.277-.56 20.427-3.797 23.305-6.715 3.079-2.719 9.714-9.994 13.952-9.994 0 0-8.835 3.997-13.592 6.915-4.917 2.879-20.068 7.236-22.626 7.236-2.399 0-9.554.2-15.15 3.638-5.797 3.438-16.51 7.795-20.948 7.076-4.557-.56-15.79 2.918-22.107.72-6.116-2.36-26.544-9.435-32.5-10.874-5.797-1.44-22.467-2.919-24.345-5.437zm49.17 19.988c-3.158-.56-3.998 6.876-4.677 9.234-.68 2.519-.84 5.077-1.16 7.596-.16.72-1.199 4.357-.36 5.077 2.879 2.158 2.879-11.593 3.039-12.833.16-1.639.32-3.837 1-5.436.519-1.28 1.158-1.64 1.998-2.719zm-41.655-14.232c-.16 2.399-3.038 3.838-4.397 5.477-2.04 2.559-3.878 5.277-5.757 7.795-1.2-2.878 3.558-7.795 4.398-10.513.36-1.28-.16-1.48 1.039-2.199 1-.36 2.878-.16 4.077-.16z" fill="#c1a778" fill-rule="evenodd"/><path d="M60.523 116.05c1.88 1.639 1.04 4.717.36 6.915-.36 1.44-.68 2.879-1.2 4.158-.679 1.28-1.878 1.999-2.238 3.238.36-1.44.36-2.878.36-4.517.16-2 .84-3.638 1.2-5.597.16-1.479-1.04-5.477 1.718-4.557zm65.121 11.233c-3.598-.2-1.72 4.517-1 6.676 1.52 4.717 2.559 8.715 3.039 13.751-.68-1.798 0-5.036.2-6.875.16-1.96.48-4.158.32-6.117-.32-2.358-.84-5.436-1.72-7.635zm34.219-11.233c3.278 3.478 5.157 7.995 6.516 12.512 1.36 4.357 2.559 6.556 6.996 7.795-.16-1.958-2.359-4.517-3.238-6.316-1.2-1.999-1.879-4.357-3.078-6.356-1.72-2.918-4.278-4.717-6.316-7.236zm26.464-13.512c0 3.478 3.278 8.195 4.317 11.833 1.04 3.118 1.36 6.196 2.399 9.114.36.92.52 2.719 1.719 2.719 1.4 0 1.2-2 1.719-3.079 1.04-2.358 2.398-3.438 1.04-5.836-1.2-2.159-3.079-4.557-4.638-6.356a46.817 46.817 0 0 1-3.798-4.557c-1.039-1.28-1.519-2.559-2.238-3.838z" fill="#c1a778" fill-rule="evenodd"/><path d="M20.987 93.263c3.078 2.2 5.797 5.677 8.515 7.836 2.399 2.198 4.597 3.997 7.476 5.636 5.636 3.838 10.393 5.837 17.35 7.476 14.27 3.638 26.703 11.273 41.134 13.112 17.51 1.999 33.34.72 49.29-6.756 7.836-3.638 15.83-4.917 23.986-6.556 7.155-1.64 11.553-6.716 17.51-11.273 3.917-3.078 8.314-2.559 12.392-4.558-3.878 3.638-9.315 6.197-13.592 9.115-5.437 3.838-9.834 9.074-15.79 11.633-4.758 1.999-10.714 1.479-15.99 1.999-5.438.56-10.355 3.278-15.472 5.476-7.835 3.438-18.029 5.797-26.503 5.797-3.918 0-7.676-1.08-11.593-1.24-5.757-.36-11.354.36-16.99 0-4.238-.36-7.116-1.638-10.714-3.637-5.077-2.758-23.785-12.193-23.945-12.033-4.957-1.439-11.233-5.437-14.991-9.074-1.839-1.84-2.878-4.038-4.557-5.837-1.88-1.999-4.757-3.278-5.797-6.196z" fill="#c1a778" fill-rule="evenodd"/><path d="M22.267 91.904s3.597 5.477 7.315 7.276c3.918 1.799 6.316 7.435 9.714 9.794 3.398 2.159 2.399 1.44 9.195 3.278 6.795 1.799 13.072 1.799 18.348 3.598 5.277 1.839 16.67 9.434 27.904 11.073 11.073 1.44 14.47-1.999 21.427-.16 6.995 1.6 19.748-3.278 24.345-6.556 4.557-3.238 9.154-3.078 15.27-4.717 5.957-1.44 15.99-1.639 21.787-6.316 5.797-4.717 6.996-7.995 12.753-9.634 5.796-1.44 8.514-.72 10.873-4.877" fill="none" stroke="#343434" stroke-width=".64" stroke-linecap="round" stroke-linejoin="round"/><path clip-path="url(#a)" d="M110.733 1c-6.316.16-14.271 8.874-23.306 14.11-8.995 5.478-40.096 33.94-44.853 39.577-4.597 5.596-6.476 9.594-5.277 12.672 1.36 2.918 2.559 15.59 13.432 21.787 0 0 20.748 3.078 28.903 4.717 8.155 1.6 25.824 4.677 35.178 2.718 9.315-1.998 22.427-6.356 29.223-6.715 6.796-.36 29.542-5.997 35.178-10.354 5.437-4.358 7.276-32.46 7.276-32.46s-8.315-3.638-12.393-5.997c-4.077-2.358-32.62-23.226-40.615-29.182C125.324 5.876 120.047.6 110.733.999" fill="none" stroke="#343434" stroke-width=".64" stroke-linecap="round" stroke-linejoin="round"/><path d="M104.896 6.556s9.475-2.918 8.315 8.915c-1.199 11.952-11.033 50.609-56.246 50.449m65.96-40.136s-.72 31.341 27.584 37.338M37.137 65.76c-.999-2.518-1.199-5.237-1.878-7.955-1.04-3.078-2.08-5.797-3.798-8.515m20.148 40.296c-2.359 0-5.237-.56-7.796-.96-3.397-.4-6.636-.2-10.033.6M46.412 50.61c-1.999.519-4.198-.36-6.076-1.12-1.36-.72-4.398-2.199-5.597-1.999m144.952 32.101c.52-1.8 3.078-2.159 4.597-1.96 2 .16 6.077.88 7.396 1.96m-11.993 0c0 1.12 0 2.039.52 3.118.84 1.639 3.158 2.918 3.158 4.717m3.438-39.976c1.519-6.396-2.759-10.393-7.436-13.352m-54.846 59.964c5.116.2 9.714-1.839 14.83-.16 3.079.72 5.957 1.64 8.875 2.519 1.52.56 6.956 1.639 7.636.4m4.797 17.948c6.995 5.117 13.511 13.632 15.35 22.147m-18.149-21.827c2.919 6.356 7.196 10.874 7.196 18.629m20.348-31.661c-.36 3.278 2.558 7.835 3.597 10.914 1.2 3.997 1.88 7.995 2.2 11.952m-4.718-24.145c1.559 5.956 10.314 7.755 13.192 12.792m-77.553 13.352c-1.919 4.317 3.078 12.792 3.918 17.27M49.09 112.052c1 2.718-2.558 5.797-4.117 7.595-3.238 3.638-7.196 7.036-8.395 11.913m26.224-16.79c-.68 2.359.8 5.077.16 7.596-.68 3.278-2.838 5.796-3.358 9.034m28.623-5.836c-4.558 4.037-6.756 15.67-7.276 21.827m9.274-21.507c3.038 4.037 3.678 12.672 3.518 16.87" fill="none" stroke="#343434" stroke-width=".64" stroke-linecap="round" stroke-linejoin="round"/><path d="M26.424 52.968c-4.237 3.438-7.276 12.312-6.596 17.75.36 2.877 2.039 16.23 6.436 15.71 5.357-.72 3.518-12.833 2.519-16.07-1.88-5.997-2.719-10.514-.68-16.63-.36-.36-.84-.56-1.36-.76zm10.713-10.474c2.24-.2 4.758 1.6 6.996.72 1.84-.72 4.078-3.958 5.597-5.397 3.398-3.078 7.315-5.237 10.513-8.515-8.155 2.359-16.11 6.676-21.746 13.192zm1.36 49.89c-2.359-.2-2.719 2.359-1.84 4.197 1.16 2.359 4.758 3.278 6.797 4.358 6.436 2.718 13.072-.2 20.028.36 6.995.36 13.271 2.358 20.067 4.197 7.156 1.999 13.432 5.797 20.388 7.635 13.592 3.798 25.145-2.558 38.257-5.836 2.039-.52 12.712-.16 10.513-4.917-1.679-3.638-14.111-2.718-17.31-3.078-5.276-.72-9.513-1.44-14.79-.2-4.437 1.28-9.195 2.199-13.792 2.558-8.635.56-17.829.56-26.144-1.639-4.437-1.279-8.675-3.438-13.112-4.557-4.757-1.08-8.835-1.639-13.752-1.799-2.718-.2-13.951-3.118-14.95-1.279zm118.728.44c5.796 1.599 6.316 7.915 12.272 8.115 2.359.16 11.873-.56 11.193-4.677-.16-1.48-4.557-3.638-5.436-4.877-1.84-2.16-.84-3.278-4.398-3.438-2.238-.2-11.752 2.518-11.393 3.078zm32.7-54.567c0 3.118 1.559 6.396 1.719 9.474.36 3.798-.52 6.916-1.36 10.354-.519 3.078-3.637 8.715-2.078 11.833 1.4 2.878 5.317 3.078 6.716 7.075 1.2 3.278 0 9.435 2.558 11.793 2.599-2.518 4.318-8.515 5.517-11.993 1.36-4.357 2.199-10.513 1-15.27-1.52-6.356-6.836-19.628-12.513-22.866zM143.233 15.91c5.117.16 12.113 7.236 16.67 10.154 4.078 2.519 8.875 3.238 13.632 3.078.48-5.276-13.432-8.714-16.67-9.794-4.078-1.439-8.675-2.718-12.233-4.197z" fill="#efdbb9" fill-rule="evenodd"/><path d="M24.025 119.408c-2.078 4.717 2.879 9.074 3.039 13.791.16 2.359-1.36 4.917-1.68 7.276-.52 3.438-.679 6.876-.679 10.314 0 8.914-.2 17.629 1 26.144 1.199 8.555 4.757 17.27 9.034 24.705 4.597 8.155 10.194 13.592 17.67 18.668 6.315 4.558 15.47 10.714 22.985 11.633 9.355 1.28 18.869 1.64 28.223 3.638 9.195 1.8 20.068 2.878 29.582 1.44 9.714-1.28 28.263-5.277 31.301-17.43-13.591-5.996-26.704-.72-40.655-1.799-6.796-.56-14.112-2.359-19.548-6.916-5.797-5.077-6.117-12.152-9.874-18.509-4.917-8.874-15.79-15.95-23.306-22.506-6.436-5.437-12.912-11.433-19.908-15.95-7.995-5.277-17.51-6.356-19.708-17.07-1.04-4.557-.36-9.434-2.918-13.072-1.16-1.44-3.878-5.437-5.237-6.196z" fill="#e5d0aa" fill-rule="evenodd"/><path d="M201.318 126.403c.68.16-3.238 19.389-4.118 22.467-1.678 6.876-2.358 14.311-.999 21.387.68 4.157 1.36 7.795 3.558 11.233 1.2 1.959 3.238 3.798 3.918 6.156 1.519 5.077-5.277 14.671-8.995 18.11-3.238 2.918-6.316 6.715-10.034 8.714-3.758 1.959-7.156 5.037-11.433 4.677 2.399-1.24 3.918-4.517 6.156-6.516 3.558-3.438 7.316-5.956 10.034-10.513 2.719-4.718 2.719-9.755 1.2-15.191-1.72-5.637-2.759-10.514-1.88-16.87 1.36-9.594 4.398-20.668 8.156-29.702 2.198-5.277 3.917-9.594 4.077-15.43zM8.755 214.19s11.113 3.278 17.23 1.64c5.956-1.64 32.02 22.306 73.755 27.343 0 0-52.289-17.39-63.202-27.903-7.476-7.436-10.034.56-27.783-1.08z" fill="#cfb68a" fill-rule="evenodd"/><path d="M176.013 218.148c3.078.16 6.996-.92 10.074-1.999a24.226 24.226 0 0 0 6.117-3.638c3.238-2.518 5.596-5.796 8.834-8.155 5.597-4.357 12.593-1.639 18.549-4.357 3.038-1.28 1.519-3.438-.68-4.917 2.04 3.118-6.796 3.478-8.355 3.478-1.519 0-4.597.72-5.956-.36-1-1.12-.84-3.998-1-5.477 0-.88-.16-4.717-1.518-4.157-.88.36-2.24 4.357-2.759 5.277-1.16 2.358-2.518 4.877-4.397 6.875-2.039 2.199-4.437 4.198-6.636 6.357-2.718 2.718-5.277 5.276-8.515 7.275z" fill="#cfb68a" fill-rule="evenodd"/></svg>