<?xml version="1.0" encoding="utf-8"?>
<!-- Generator: Adobe Illustrator 21.0.0, SVG Export Plug-In . SVG Version: 6.00 Build 0)  -->
<svg version="1.1" id="Calque_1" xmlns="http://www.w3.org/2000/svg" xmlns:xlink="http://www.w3.org/1999/xlink" x="0px" y="0px"
	 viewBox="0 0 464 444" style="enable-background:new 0 0 464 444;" xml:space="preserve">
<style type="text/css">
	.st0{opacity:0.6;fill:#3C3C3B;}
	.st1{opacity:0.8;fill:#F6F6F6;}
	.st2{opacity:0.8;fill:#575756;}
	.st3{opacity:0.9;fill:#77B251;}
	.st4{fill:#F6F6F6;}
	.st5{opacity:0.3;fill:#575756;}
	.st6{opacity:0.8;fill:#66A537;}
</style>
<ellipse class="st0" cx="233.9" cy="214.9" rx="213.3" ry="210.2"/>
<path class="st1" d="M231.7,192.1c0,0,13.9-59.2,30.5-84c9.3-14,75.3,5.2,77.1,28.9c1,13.6-37.9,26.6-51,41.7
	c-6,7-11.7,36.3-19.8,41.1c-33.3,19.9-20.5,8.3-25.9,3.2C233.5,214.7,231.7,192.1,231.7,192.1z"/>
<path class="st1" d="M98.5,187.2c-7.3-10.2,0.9-8.5,16-31.1c5.7-8.6-5.7-31,33.1-28.1c48.8,3.6,97.5,89.4,87.3,109.2
	c-3.6,6.9-11.2,9.7-16.8,14.5c-3.2,2.8-17.6-4-21.4-17.4C189.1,207.4,115.6,211.1,98.5,187.2z"/>
<path class="st2" d="M243.6,236.9l-9.3-0.3l-31.5-38.5c0,0,11.4,0.6,11.6-11.8c0-2.9,34.8,42.9,32.9,45.5
	C244.2,236.1,243.6,236.9,243.6,236.9z"/>
<path class="st3" d="M340.5,371.3l-26.8-53.8c0,0-1.4-4.6-3.7-7.2c31.2-36.7-6.2-74.9-6.2-74.9s5,9.4-33.8,26.1
	c-19.6,8.4-29,4.1-47.8-11.4c-1.9-1.5-2.3,0.6-5.1,2.7c-2.6,2-8.6,8.4-8.6,8.4c1,7.9,11.5,37.3,36.8,52.5
	c12.8,7.7,33.5,11.8,50.1,7.6c0,0.1,0,0.1,0,0.2c4.7,14.9,15.6,17.9,24,43.5c8.5,25.8,6.2,64.6,17.6,70c17.7,8.3,22.2-6.2,22.2-6.2
	L340.5,371.3z"/>
<path class="st2" d="M231,203.1l0.9-3.5c0,0-0.3-0.4-0.7-1c0.1-0.4-0.3-0.7,0.6-4.4c0.7-2.6-5.8-1-7.5,1.5c-1.8,2.5-1.2,5.9,1.2,7.6
	c0.3,0.2,0.6,0.4,0.9,0.5c0.3,0.5,0.6,1.1,1,1.8c4.8,8.9,9.9,24.6,12.3,28.7c2.6,4.4,7-1.9,7-1.9L231,203.1z"/>
<path class="st2" d="M222.1,237.5L210,223.6c0,0-1-1.6-2-2c-0.3-2.7-1.9-5-4.4-5.7c-3.5-1.1-4.9,2.9-6.2,6.8c-1.2,4-1.2,4,1.7,7.6
	c1.4,1.7,4.5,0.3,6.7-2.1c2.4,2.7,5.6,3.4,9.4,9.4c5,8,3.3,9.6,7.8,10.1c6,0.8,6.4-3.8,6.4-3.8L222.1,237.5z"/>
<path class="st2" d="M263.9,217.1c-4.1-2.9-7.1-11-7.1-11s0-0.2-0.1-0.6c0.8-0.4,1.8-0.7,3.2-0.9c3.6-0.4,0.6-5.8-3.1-7.2
	c-3.6-1.4-8.1,1.4-10,6.4c-1.9,4.9,1.6,4.6,5.2,6c0.4,0.1,0.7,0.2,0.9,0.2c0.6,3,2,7,3.9,10.2C260.5,226.7,268,219.9,263.9,217.1z"
	/>
<path class="st2" d="M242.4,195l-1.2-2.6c0,0-0.5-0.9-1.2-1.8c0.5-0.2,1-0.5,1.7-0.8c2.6-1.2-2.5-6.5-5.7-6.5
	c-3.1,0-5.7,2.9-5.7,6.5c0,3.3,2.1,2.7,4.9,2.5c2.4,5.2-1.5-2.9,2.8,6.1c4.9,10.3,9.6,28.7,12.1,33.4c2.7,5,8.5-2.9,8.5-2.9
	L242.4,195z"/>
<path class="st2" d="M236.1,229.4c-4-3.2-9.1-5.9-12.2-7c0.9-2.8-3.8-6.4-6.7-7.5c-3.6-1.4-7.2,9.8-3.6,11.2
	c2.4,0.9,2.6-0.8,4.1-1.4c1.5,0.9,3.7,1.7,3.7,1.7s8.4,5,11.3,10C235.5,241.3,242.8,234.8,236.1,229.4z"/>
<path class="st1" d="M249.8,229.6c0,0,35.9-31.7,62-17.3c10.7,5.9,7.2,5.5,3.8,10.8c-5,7.6-14.8,20.4-22.7,25.3
	c-36.3,22.7-49.1,21.8-58.3,14.5c-4.7-3.7-16-7.4-13.5-14C224.4,240.6,249.8,229.6,249.8,229.6z"/>
<path class="st1" d="M147.1,293.8c-19.7-0.6-6.5-7.4-17.2-7.3c-5.6,0-39.7,16.5-24.3-10.6c6.1-10.7,43.3-32.5,59.5-37.7
	c18.4-6,26.8,5.2,37.1,7.4c21.2,4.5,15.3,7.2,12.6,9.9C199,270.9,171.9,294.5,147.1,293.8z"/>
<g>
	<path class="st4" d="M128.1,155.3c0,0,1.1-0.1,3-0.1c1.9,0,4.6,0.1,7.8,0.6c0.8,0.1,1.6,0.3,2.5,0.4c0.9,0.2,1.7,0.4,2.7,0.6
		c0.9,0.2,1.8,0.5,2.8,0.7c0.9,0.3,1.9,0.6,2.9,0.9c1.9,0.7,3.9,1.4,5.9,2.3c1,0.4,2,0.9,2.9,1.4c1,0.5,2,1,2.9,1.5
		c1,0.5,1.9,1,2.9,1.6l1.4,0.8c0.5,0.3,0.9,0.6,1.4,0.9c1.8,1.2,3.5,2.6,5,4c1.5,1.4,2.9,3,4,4.5c1.2,1.5,2.1,3.1,2.9,4.6
		c0.7,1.5,1.3,3,1.6,4.3c0.4,1.3,0.6,2.5,0.6,3.5c0.1,1,0.1,1.7,0,2.3c0,0.5-0.1,0.8-0.1,0.8l-0.4,0c0,0,0-0.3-0.2-0.7
		c-0.1-0.5-0.3-1.2-0.7-2c-0.3-0.9-0.8-1.9-1.4-3c-0.6-1.1-1.3-2.3-2.2-3.5c-0.9-1.3-1.9-2.5-3.1-3.8c-1.2-1.3-2.5-2.6-3.9-3.9
		c-1.4-1.3-2.9-2.6-4.5-3.9l-1.2-0.9l-1.3-0.9c-0.8-0.6-1.7-1.2-2.6-1.8c-0.9-0.6-1.7-1.2-2.7-1.7c-0.9-0.5-1.8-1.1-2.7-1.5
		c-1.8-1-3.7-1.8-5.5-2.6c-0.9-0.4-1.8-0.7-2.7-1.1c-0.9-0.3-1.8-0.6-2.6-0.9c-0.9-0.3-1.7-0.5-2.5-0.8c-0.8-0.2-1.6-0.4-2.4-0.7
		c-1.5-0.4-3-0.7-4.2-0.9c-1.3-0.2-2.4-0.4-3.3-0.5c-1.9-0.2-2.9-0.2-2.9-0.2L128.1,155.3z"/>
</g>
<g>
	<path class="st4" d="M140.6,279.6c0,0,2.2-3.5,6.4-8.1c2.1-2.3,4.7-4.8,7.8-7.2c3.1-2.4,6.5-4.8,10.2-6.8c1.8-1,3.7-2,5.6-2.8
		c1.9-0.9,3.7-1.6,5.5-2.4c1.8-0.7,3.5-1.3,5.2-1.9c1.7-0.5,3.3-1,4.8-1.3c1.5-0.4,2.9-0.7,4.1-0.9c1.2-0.2,2.3-0.4,3.3-0.5
		c0.9-0.1,1.6-0.1,2.1-0.2c0.5,0,0.8,0,0.8,0l0,0.4c0,0-0.2,0.1-0.7,0.3c-0.4,0.2-1.1,0.5-1.9,0.9c-0.8,0.4-1.8,0.9-2.9,1.4
		c-1.1,0.5-2.4,1.1-3.8,1.7c-1.4,0.6-2.9,1.3-4.5,2c-1.6,0.7-3.3,1.3-5.2,1.9c-1.8,0.6-3.8,1.2-5.6,1.8c-1.9,0.6-3.7,1.4-5.5,2.2
		c-3.6,1.7-7.1,3.7-10.3,5.8c-3.1,2.1-5.9,4.3-8.2,6.4c-2.3,2-4,3.9-5.2,5.2c-1.2,1.3-1.8,2.1-1.8,2.1L140.6,279.6z"/>
</g>
<g>
	<path class="st4" d="M249.6,229.5c0,0,0.4-0.7,1.4-1.7c1-1,2.6-2.1,4.9-2.9c2.2-0.8,5.1-1.2,8-1.1c3,0.1,6.1,0.7,9.1,1.5
		c1.5,0.4,3,0.9,4.5,1.4l0.5,0.2l0.6,0.2c0.4,0.2,0.8,0.3,1.1,0.5c0.7,0.4,1.4,0.8,2,1.2c2.6,1.8,4.4,4,5.7,6c0.7,1,1.2,2,1.6,2.8
		c0.4,0.9,0.7,1.7,0.9,2.3c0.4,1.3,0.6,2.1,0.6,2.1l-0.4,0.2c0,0-0.5-0.6-1.4-1.6c-0.5-0.5-1-1.1-1.6-1.7c-0.6-0.7-1.4-1.4-2.1-2.1
		c-1.6-1.5-3.5-3.1-5.6-4.7c-0.5-0.4-1.1-0.8-1.6-1.1c-0.3-0.2-0.6-0.4-0.8-0.5l-0.4-0.2l-0.5-0.3c-1.2-0.6-2.6-1.2-4-1.8
		c-1.4-0.5-2.8-1-4.2-1.4c-1.4-0.4-2.8-0.7-4.1-0.9c-2.7-0.4-5.3-0.3-7.4,0.1c-2.1,0.5-3.8,1.4-4.8,2.1c-0.5,0.4-0.9,0.7-1.1,1
		c-0.2,0.3-0.3,0.4-0.3,0.4L249.6,229.5z"/>
</g>
<g>
	<path class="st4" d="M258.8,183.6c0,0,0.2-1.3,0.7-3.5c0.2-1.1,0.6-2.5,1-4c0.4-1.5,0.9-3.2,1.4-5.1c0.6-1.8,1.2-3.9,2-5.9
		c0.8-2.1,1.8-4.2,2.7-6.5c1-2.2,1.9-4.6,2.7-7c0.8-2.4,1.5-4.9,2.1-7.4c0.3-1.3,0.6-2.5,1-3.8l0.3-0.9l0.3-1
		c0.2-0.6,0.5-1.3,0.7-1.9c1.2-2.5,2.9-4.6,4.7-6.4c1.9-1.8,3.9-3.1,6-4.2c2-1.1,4.1-1.9,5.9-2.5c3.8-1.3,7-1.8,9.3-2.1
		c2.3-0.3,3.6-0.2,3.6-0.2l0,0.3c0,0-1.2,0.4-3.4,1.1c-2.1,0.7-5.2,1.8-8.6,3.4c-1.7,0.8-3.5,1.7-5.4,2.8c-1.8,1.1-3.7,2.3-5.4,3.8
		c-1.7,1.5-3.3,3.2-4.4,5.3c-0.3,0.5-0.5,1-0.8,1.6l-0.4,0.8l-0.4,0.9c-0.5,1.2-1,2.4-1.5,3.6c-1,2.4-2,4.8-2.8,7.2
		c-0.9,2.4-1.5,4.8-2.1,7.2c-0.6,2.4-1.1,4.7-1.8,6.8c-0.6,2.1-1.4,4.1-2.1,5.9c-0.7,1.8-1.3,3.5-2,4.9c-0.6,1.5-1.2,2.7-1.7,3.8
		c-1,2.1-1.6,3.2-1.6,3.2L258.8,183.6z"/>
</g>
<path class="st5" d="M213.9,186.1c0,0-4.9,1.2-8.7,4.2c-3.8,3.1-2.4,7.3-2.4,7.3s4.3,0.3,7.4-2.5
	C214.1,191.5,213.9,186.1,213.9,186.1z"/>
<path class="st6" d="M298.4,246c5.3,0.8,15.2,9.5,19.2,19.9c4.1,10.3,5.3,13.3,5.3,13.3s-2.5,28.3-16.7,27.9
	c-10.4-0.3-17.4-16.7-18.6-22.1c-1.2-5.4-9.4-19.9-4.6-27.6C287.7,249.6,298.4,246,298.4,246z"/>
<path class="st6" d="M287.3,322.5c-4.9,1.7-24.5-0.3-35.4-5.6c-11-5.2-12.1-8-12.1-8s-19-24.5-7.3-34.8c8.6-7.5,29,8.9,29,8.9
	s22.4,17.1,24.3,26.8C287.7,319.4,287.3,322.5,287.3,322.5z"/>
</svg>
