<?xml version="1.0" encoding="UTF-8" standalone="no"?>
<!-- Created with Inkscape (http://www.inkscape.org/) -->

<svg
   width="132.66168mm"
   height="87.525269mm"
   viewBox="0 0 132.66168 87.525269"
   version="1.1"
   id="svg1"
   inkscape:version="1.4 (86a8ad7, 2024-10-11)"
   sodipodi:docname="6 well.svg"
   xmlns:inkscape="http://www.inkscape.org/namespaces/inkscape"
   xmlns:sodipodi="http://sodipodi.sourceforge.net/DTD/sodipodi-0.dtd"
   xmlns="http://www.w3.org/2000/svg"
   xmlns:svg="http://www.w3.org/2000/svg">
  <sodipodi:namedview
     id="namedview1"
     pagecolor="#ffffff"
     bordercolor="#000000"
     borderopacity="0.25"
     inkscape:showpageshadow="2"
     inkscape:pageopacity="0.0"
     inkscape:pagecheckerboard="0"
     inkscape:deskcolor="#d1d1d1"
     inkscape:document-units="mm"
     inkscape:zoom="1.0244809"
     inkscape:cx="335.29175"
     inkscape:cy="386.53721"
     inkscape:window-width="1366"
     inkscape:window-height="768"
     inkscape:window-x="0"
     inkscape:window-y="0"
     inkscape:window-maximized="1"
     inkscape:current-layer="layer1">
    <inkscape:page
       x="0"
       y="0"
       width="132.66168"
       height="87.525269"
       id="page2"
       margin="0"
       bleed="0" />
  </sodipodi:namedview>
  <defs
     id="defs1" />
  <g
     inkscape:label="Layer 1"
     inkscape:groupmode="layer"
     id="layer1"
     transform="translate(-40.000002,-80.000008)">
    <rect
       style="fill:#373e48;fill-opacity:1;stroke:#000000;stroke-width:0.25;stroke-linecap:round;stroke-linejoin:bevel;paint-order:stroke fill markers"
       id="rect1-8"
       width="85"
       height="130"
       x="-167.40027"
       y="42.536686"
       ry="5.6974039"
       transform="rotate(-90)" />
    <rect
       style="fill:#d7eef4;fill-opacity:1;stroke:#000000;stroke-width:0.25;stroke-linecap:round;stroke-linejoin:bevel;paint-order:stroke fill markers"
       id="rect1"
       width="85"
       height="130"
       x="-165.125"
       y="40.125"
       ry="5.6974039"
       transform="rotate(-90)" />
    <path
       id="rect2"
       style="fill:#d7eef4;fill-opacity:0.05;stroke:#000000;stroke-width:0.25;stroke-linecap:round;stroke-linejoin:bevel;paint-order:stroke fill markers"
       d="m 44.562761,151.39096 0.0456,-66.544836 c 3.97194,-0.0975 10.43288,0.005 13.58925,0.005 H 159.98983 c 3.15636,0 5.69741,2.541031 5.69741,5.697373 v 64.017463 c 0,3.15636 -2.54105,5.69184 -5.69741,5.6974 l -103.618349,0.18262 c -3.15636,0.006 -11.81089,-5.89866 -11.80872,-9.05502 z"
       sodipodi:nodetypes="scsssssss" />
    <path
       style="fill:none;fill-opacity:0.6;stroke:#000000;stroke-width:0.223314;stroke-linecap:round;stroke-linejoin:bevel;paint-order:stroke fill markers"
       id="path9"
       sodipodi:type="arc"
       sodipodi:cx="71.126045"
       sodipodi:cy="108.74081"
       sodipodi:rx="15.80143"
       sodipodi:ry="15.892735"
       sodipodi:start="0"
       sodipodi:end="6.2712234"
       sodipodi:arc-type="arc"
       d="M 86.927475,108.74081 A 15.80143,15.892735 0 0 1 71.173299,124.63347 15.80143,15.892735 0 0 1 55.324898,108.83586 15.80143,15.892735 0 0 1 70.984286,92.848712 15.80143,15.892735 0 0 1 86.926344,108.5507"
       sodipodi:open="true" />
    <path
       style="fill:#e80000;fill-opacity:0.6;stroke:#000000;stroke-width:0.209899;stroke-linecap:round;stroke-linejoin:bevel;paint-order:stroke fill markers"
       id="path2"
       sodipodi:type="arc"
       sodipodi:cx="70.98082"
       sodipodi:cy="108.68688"
       sodipodi:rx="14.895047"
       sodipodi:ry="14.895043"
       sodipodi:start="0"
       sodipodi:end="6.2712234"
       sodipodi:arc-type="arc"
       d="M 85.875867,108.68688 A 14.895047,14.895043 0 0 1 71.025363,123.58186 14.895047,14.895043 0 0 1 56.086039,108.77597 14.895047,14.895043 0 0 1 70.847192,93.792438 14.895047,14.895043 0 0 1 85.874801,108.50871"
       sodipodi:open="true" />
    <path
       style="fill:#e80000;fill-opacity:0.6;stroke:#000000;stroke-width:0.209899;stroke-linecap:round;stroke-linejoin:bevel;paint-order:stroke fill markers"
       id="path4"
       sodipodi:type="arc"
       sodipodi:cx="70.98082"
       sodipodi:cy="142.0242"
       sodipodi:rx="14.895047"
       sodipodi:ry="14.895043"
       sodipodi:start="0"
       sodipodi:end="6.2712234"
       sodipodi:arc-type="arc"
       d="M 85.875867,142.0242 A 14.895047,14.895043 0 0 1 71.025363,156.91918 14.895047,14.895043 0 0 1 56.086039,142.11329 14.895047,14.895043 0 0 1 70.847192,127.12976 14.895047,14.895043 0 0 1 85.874801,141.84603"
       sodipodi:open="true" />
    <path
       style="fill:#e80000;fill-opacity:0.45;stroke:#000000;stroke-width:0.209899;stroke-linecap:round;stroke-linejoin:bevel;paint-order:stroke fill markers"
       id="path5"
       sodipodi:type="arc"
       sodipodi:cx="107.91214"
       sodipodi:cy="108.68688"
       sodipodi:rx="14.895047"
       sodipodi:ry="14.895043"
       sodipodi:start="0"
       sodipodi:end="6.2712234"
       sodipodi:arc-type="arc"
       d="M 122.80719,108.68688 A 14.895047,14.895043 0 0 1 107.95668,123.58186 14.895047,14.895043 0 0 1 93.017359,108.77597 14.895047,14.895043 0 0 1 107.77851,93.792438 14.895047,14.895043 0 0 1 122.80612,108.50871"
       sodipodi:open="true" />
    <path
       style="fill:#e80000;fill-opacity:0.45;stroke:#000000;stroke-width:0.209899;stroke-linecap:round;stroke-linejoin:bevel;paint-order:stroke fill markers"
       id="path6"
       sodipodi:type="arc"
       sodipodi:cx="107.91214"
       sodipodi:cy="142.0242"
       sodipodi:rx="14.895047"
       sodipodi:ry="14.895043"
       sodipodi:start="0"
       sodipodi:end="6.2712234"
       sodipodi:arc-type="arc"
       d="m 122.80719,142.0242 a 14.895047,14.895043 0 0 1 -14.85051,14.89498 14.895047,14.895043 0 0 1 -14.939321,-14.80589 14.895047,14.895043 0 0 1 14.761151,-14.98353 14.895047,14.895043 0 0 1 15.02761,14.71627"
       sodipodi:open="true" />
    <path
       style="fill:#e80000;fill-opacity:0.3;stroke:#000000;stroke-width:0.209899;stroke-linecap:round;stroke-linejoin:bevel;paint-order:stroke fill markers"
       id="path7"
       sodipodi:type="arc"
       sodipodi:cx="144.8434"
       sodipodi:cy="108.68688"
       sodipodi:rx="14.895047"
       sodipodi:ry="14.895043"
       sodipodi:start="0"
       sodipodi:end="6.2712234"
       sodipodi:arc-type="arc"
       d="m 159.73845,108.68688 a 14.895047,14.895043 0 0 1 -14.85051,14.89498 14.895047,14.895043 0 0 1 -14.93932,-14.80589 14.895047,14.895043 0 0 1 14.76115,-14.983532 14.895047,14.895043 0 0 1 15.02761,14.716272"
       sodipodi:open="true" />
    <path
       style="fill:#e80000;fill-opacity:0.3;stroke:#000000;stroke-width:0.209899;stroke-linecap:round;stroke-linejoin:bevel;paint-order:stroke fill markers"
       id="path8"
       sodipodi:type="arc"
       sodipodi:cx="144.8434"
       sodipodi:cy="142.0242"
       sodipodi:rx="14.895047"
       sodipodi:ry="14.895043"
       sodipodi:start="0"
       sodipodi:end="6.2712234"
       sodipodi:arc-type="arc"
       d="m 159.73845,142.0242 a 14.895047,14.895043 0 0 1 -14.85051,14.89498 14.895047,14.895043 0 0 1 -14.93932,-14.80589 14.895047,14.895043 0 0 1 14.76115,-14.98353 14.895047,14.895043 0 0 1 15.02761,14.71627"
       sodipodi:open="true" />
    <path
       style="fill:none;fill-opacity:0.6;stroke:#000000;stroke-width:0.223314;stroke-linecap:round;stroke-linejoin:bevel;paint-order:stroke fill markers"
       id="path10"
       sodipodi:type="arc"
       sodipodi:cx="107.93891"
       sodipodi:cy="108.74081"
       sodipodi:rx="15.80143"
       sodipodi:ry="15.892735"
       sodipodi:start="0"
       sodipodi:end="6.2712234"
       sodipodi:arc-type="arc"
       d="M 123.74034,108.74081 A 15.80143,15.892735 0 0 1 107.98617,124.63347 15.80143,15.892735 0 0 1 92.137764,108.83586 15.80143,15.892735 0 0 1 107.79715,92.848712 15.80143,15.892735 0 0 1 123.73921,108.5507"
       sodipodi:open="true" />
    <path
       style="fill:none;fill-opacity:0.6;stroke:#000000;stroke-width:0.223314;stroke-linecap:round;stroke-linejoin:bevel;paint-order:stroke fill markers"
       id="path11"
       sodipodi:type="arc"
       sodipodi:cx="144.90892"
       sodipodi:cy="108.74081"
       sodipodi:rx="15.80143"
       sodipodi:ry="15.892735"
       sodipodi:start="0"
       sodipodi:end="6.2712234"
       sodipodi:arc-type="arc"
       d="m 160.71035,108.74081 a 15.80143,15.892735 0 0 1 -15.75418,15.89266 15.80143,15.892735 0 0 1 -15.8484,-15.79761 15.80143,15.892735 0 0 1 15.65939,-15.987148 15.80143,15.892735 0 0 1 15.94206,15.701988"
       sodipodi:open="true" />
    <path
       style="fill:none;fill-opacity:0.6;stroke:#000000;stroke-width:0.223314;stroke-linecap:round;stroke-linejoin:bevel;paint-order:stroke fill markers"
       id="path12"
       sodipodi:type="arc"
       sodipodi:cx="144.90892"
       sodipodi:cy="142.07812"
       sodipodi:rx="15.80143"
       sodipodi:ry="15.892735"
       sodipodi:start="0"
       sodipodi:end="6.2712234"
       sodipodi:arc-type="arc"
       d="m 160.71035,142.07812 a 15.80143,15.892735 0 0 1 -15.75418,15.89267 15.80143,15.892735 0 0 1 -15.8484,-15.79761 15.80143,15.892735 0 0 1 15.65939,-15.98715 15.80143,15.892735 0 0 1 15.94206,15.70199"
       sodipodi:open="true"
       inkscape:label="path12" />
    <path
       style="fill:none;fill-opacity:0.6;stroke:#000000;stroke-width:0.223314;stroke-linecap:round;stroke-linejoin:bevel;paint-order:stroke fill markers"
       id="path13"
       sodipodi:type="arc"
       sodipodi:cx="107.96791"
       sodipodi:cy="142.07812"
       sodipodi:rx="15.80143"
       sodipodi:ry="15.892735"
       sodipodi:start="0"
       sodipodi:end="6.2712234"
       sodipodi:arc-type="arc"
       d="m 123.76934,142.07812 a 15.80143,15.892735 0 0 1 -15.75418,15.89267 15.80143,15.892735 0 0 1 -15.848396,-15.79761 15.80143,15.892735 0 0 1 15.659386,-15.98715 15.80143,15.892735 0 0 1 15.94206,15.70199"
       sodipodi:open="true"
       inkscape:label="path12" />
    <path
       style="fill:none;fill-opacity:0.6;stroke:#000000;stroke-width:0.223314;stroke-linecap:round;stroke-linejoin:bevel;paint-order:stroke fill markers"
       id="path14"
       sodipodi:type="arc"
       sodipodi:cx="71.126045"
       sodipodi:cy="142.07812"
       sodipodi:rx="15.80143"
       sodipodi:ry="15.892735"
       sodipodi:start="0"
       sodipodi:end="6.2712234"
       sodipodi:arc-type="arc"
       d="M 86.927475,142.07812 A 15.80143,15.892735 0 0 1 71.173299,157.97079 15.80143,15.892735 0 0 1 55.324898,142.17318 15.80143,15.892735 0 0 1 70.984286,126.18603 15.80143,15.892735 0 0 1 86.926344,141.88802"
       sodipodi:open="true"
       inkscape:label="path12" />
    <path
       id="path15"
       style="fill:#ffffff;fill-opacity:0.670103;stroke:#000000;stroke-width:0;stroke-linecap:round;stroke-linejoin:bevel;stroke-dasharray:none;paint-order:stroke fill markers"
       d="m 58.15921,110.4561 c -0.562046,-3.84915 0.494511,-7.76029 2.914476,-10.788746 2.419966,-3.028457 5.983304,-4.898871 9.82935,-5.159474 0,0 -6.224933,3.30632 -8.388051,5.97088 -2.287182,2.81739 -4.355775,9.97734 -4.355775,9.97734 z"
       sodipodi:nodetypes="cscsc" />
    <path
       id="path15-7"
       style="fill:#ffffff;fill-opacity:0.670103;stroke:#000000;stroke-width:0;stroke-linecap:round;stroke-linejoin:bevel;stroke-dasharray:none;paint-order:stroke fill markers"
       d="m 58.091488,144.00657 c -0.562046,-3.84915 0.494511,-7.76029 2.914476,-10.78875 2.419966,-3.02846 5.983304,-4.89887 9.82935,-5.15947 0,0 -6.224933,3.30632 -8.388051,5.97088 -2.287182,2.81739 -4.355775,9.97734 -4.355775,9.97734 z"
       sodipodi:nodetypes="cscsc" />
    <path
       id="path15-5"
       style="fill:#ffffff;fill-opacity:0.453608;stroke:#000000;stroke-width:0;stroke-linecap:round;stroke-linejoin:bevel;stroke-dasharray:none;paint-order:stroke fill markers"
       d="m 94.868596,110.93363 c -0.562046,-3.84915 0.494511,-7.76029 2.914476,-10.78874 2.419968,-3.028458 5.983328,-4.898872 9.829388,-5.159475 0,0 -6.22497,3.30632 -8.388094,5.970875 -2.287177,2.81739 -4.35577,9.97734 -4.35577,9.97734 z"
       sodipodi:nodetypes="cscsc" />
    <path
       id="path15-5-2"
       style="fill:#ffffff;fill-opacity:0.453608;stroke:#000000;stroke-width:0;stroke-linecap:round;stroke-linejoin:bevel;stroke-dasharray:none;paint-order:stroke fill markers"
       d="m 94.339403,144.2711 c -0.56205,-3.84915 0.494507,-7.76029 2.914455,-10.78874 2.419955,-3.02846 5.983312,-4.89887 9.829372,-5.15948 0,0 -6.22497,3.30632 -8.388081,5.97088 -2.287168,2.81739 -4.355746,9.97734 -4.355746,9.97734 z"
       sodipodi:nodetypes="cscsc" />
    <path
       id="path15-5-1"
       style="fill:#ffffff;fill-opacity:0.273196;stroke:#000000;stroke-width:0;stroke-linecap:round;stroke-linejoin:bevel;stroke-dasharray:none;paint-order:stroke fill markers"
       d="m 132.18741,111.04872 c -0.56205,-3.84915 0.49451,-7.76029 2.91447,-10.78874 2.41997,-3.028462 5.98333,-4.898878 9.82939,-5.159481 0,0 -6.22497,3.306319 -8.38809,5.970881 -2.28718,2.81739 -4.35577,9.97734 -4.35577,9.97734 z"
       sodipodi:nodetypes="cscsc" />
    <path
       id="path15-5-1-1"
       style="fill:#ffffff;fill-opacity:0.273196;stroke:#000000;stroke-width:0;stroke-linecap:round;stroke-linejoin:bevel;stroke-dasharray:none;paint-order:stroke fill markers"
       d="m 131.38105,144.53572 c -0.56205,-3.84915 0.49451,-7.76029 2.91447,-10.78874 2.41997,-3.02846 5.98333,-4.89888 9.82939,-5.15948 0,0 -6.22497,3.30632 -8.38809,5.97088 -2.28718,2.81739 -4.35577,9.97734 -4.35577,9.97734 z"
       sodipodi:nodetypes="cscsc" />
    <text
       xml:space="preserve"
       style="font-size:7.05556px;text-align:start;writing-mode:lr-tb;direction:ltr;text-anchor:start;fill:#666666;fill-opacity:0.907217;stroke:#000000;stroke-width:0;stroke-linecap:round;stroke-linejoin:bevel;stroke-dasharray:none;paint-order:stroke fill markers"
       x="48.66404"
       y="109.20557"
       id="text15"><tspan
         sodipodi:role="line"
         id="tspan15"
         style="font-size:7.05556px;fill:#666666;fill-opacity:0.907217;stroke-width:0"
         x="48.66404"
         y="109.20557">A</tspan></text>
    <text
       xml:space="preserve"
       style="font-size:7.05556px;text-align:start;writing-mode:lr-tb;direction:ltr;text-anchor:start;fill:#666666;fill-opacity:0.907217;stroke:#000000;stroke-width:0;stroke-linecap:round;stroke-linejoin:bevel;stroke-dasharray:none;paint-order:stroke fill markers"
       x="48.839741"
       y="143.77141"
       id="text15-7"><tspan
         sodipodi:role="line"
         id="tspan15-6"
         style="font-size:7.05556px;fill:#666666;fill-opacity:0.907217;stroke-width:0"
         x="48.839741"
         y="143.77141">B</tspan></text>
    <text
       xml:space="preserve"
       style="font-size:7.05556px;text-align:start;writing-mode:lr-tb;direction:ltr;text-anchor:start;fill:#666666;fill-opacity:0.907217;stroke:#000000;stroke-width:0;stroke-linecap:round;stroke-linejoin:bevel;stroke-dasharray:none;paint-order:stroke fill markers"
       x="68.172577"
       y="91.562119"
       id="text16"><tspan
         sodipodi:role="line"
         id="tspan16"
         style="fill:#666666;fill-opacity:0.907217;stroke-width:0"
         x="68.172577"
         y="91.562119">1</tspan></text>
    <text
       xml:space="preserve"
       style="font-size:7.05556px;text-align:start;writing-mode:lr-tb;direction:ltr;text-anchor:start;fill:#666666;fill-opacity:0.907217;stroke:#000000;stroke-width:0;stroke-linecap:round;stroke-linejoin:bevel;stroke-dasharray:none;paint-order:stroke fill markers"
       x="105.46164"
       y="91.824387"
       id="text17"><tspan
         sodipodi:role="line"
         id="tspan17"
         style="fill:#666666;fill-opacity:0.907217;stroke-width:0"
         x="105.46164"
         y="91.824387">2</tspan></text>
    <text
       xml:space="preserve"
       style="font-size:7.05556px;text-align:start;writing-mode:lr-tb;direction:ltr;text-anchor:start;fill:#666666;fill-opacity:0.907217;stroke:#000000;stroke-width:0;stroke-linecap:round;stroke-linejoin:bevel;stroke-dasharray:none;paint-order:stroke fill markers"
       x="142.50945"
       y="91.966156"
       id="text18"><tspan
         sodipodi:role="line"
         id="tspan18"
         style="fill:#666666;fill-opacity:0.907217;stroke-width:0"
         x="142.50945"
         y="91.966156">3</tspan></text>
    <path
       id="path27"
       style="fill:#000000;fill-opacity:0.541237;stroke:#000000;stroke-width:0.25;stroke-linecap:round;stroke-linejoin:bevel;paint-order:stroke fill markers"
       d="m 163.14663,86.33328 c 0.60042,0.90292 0.95291,1.986703 0.95291,3.156915 v 64.017595 c 0,3.15636 -2.54096,5.69179 -5.69732,5.69735 l -103.618484,0.18242 c -1.960402,0.004 -6.037626,-2.27398 -8.848555,-4.75581 2.568193,3.00129 8.059289,6.34784 10.436055,6.34332 l 103.618484,-0.18242 c 3.15636,-0.006 5.69732,-2.541 5.69732,-5.69736 V 91.077696 c 0,-1.986138 -1.00792,-3.725364 -2.54041,-4.744416 z" />
  </g>
</svg>
