<svg xmlns="http://www.w3.org/2000/svg" viewBox="0 0 1600 1200"><path d="M0 0v1200h1600V0H0z" fill="#010101" stroke="none"/><path d="m828 65 1 1-1-1M282 553h1c0-38.273 7.128-76.365 17.612-113.039C366.051 211.038 594.874 67 827 67c-13.27-5.568-36.934-.531-51 .83-44.413 4.298-87.372 12.895-130 26.145C447.697 155.61 282 339.259 282 553z" fill="#bd5958" stroke="none"/><path d="M827 66.464c-42.905 3.755-84.536 4.581-127 13.96-121.163 26.763-233.977 92.629-312.105 189.665-35.239 43.769-66.584 96.627-82.186 150.911-18.849 65.581-28.723 131.739-20.424 200 4.37 35.934 13.663 72.376 26.751 106.015 18.777 48.256 43.237 93.378 75.859 133.896C502.57 1003.34 694.498 1080.1 876 1062.83c81.39-7.75 159.71-29.75 232-68.318 121.72-64.936 216.11-179.116 251.87-312.527 41.32-154.127-5.91-321.5-113.16-437.896C1177.46 168.93 1086.89 116.475 989 88.572c-39.536-11.269-80.059-17.855-121-20.662-13.204-.905-27.82-2.6-41-1.446z" fill="#cd9090" stroke="none"/><path d="M831 66v1h32l-32-1m33 1v1h14l-14-1m14 1v1h11l-11-1m11 1v1h9l-9-1m10 1v1h7l-7-1m7 1v1h7l-7-1m7 1v1h7l-7-1m7 1v1h6l-6-1m6 1v1l48 9c-11.55-6.964-34.58-9.723-48-10m48 10v1l8 1-8-2m8 2v1l14 3-14-4m14 4v1l7 1-7-2m7 2v1h3l-3-1m3 1v1l15 4v-1l-15-4z" fill="#bd5958" stroke="none"/><path d="m632 98 1 1-1-1z" fill="#910909" stroke="none"/><path d="M1021 98v1l32 11v-1l-32-11z" fill="#bd5958" stroke="none"/><path d="m1024 98 1 1-1-1z" fill="#910909" stroke="none"/><path d="m800.667 100.333.666.334-.666-.334M804 100v1h10l-10-1m43 0v1h4l-4-1m-60 1v1h4l-4-1m-13 1v1h7l-7-1m104 0v1h3l-3-1m-112 1v1h6l-6-1m121 0v1h3l-3-1m-129 1v1h5l-5-1m137 0v1h4l-4-1m-145 1v1h6l-6-1m151 0v1h5l-5-1m-157 1v1h5l-5-1m165 0v1h4l-4-1m-171 1v1h5l-5-1m176 0v1h4l-4-1m-181 1v1h4l-4-1m188 0v1h3l-3-1m-194 1v1h4l-4-1m-4.333 1.333.666.334-.666-.334M1053 110v1l55 25v-1c-17.04-8.325-36.14-21.753-55-25m-334.333 1.333.666.334-.666-.334M938 111l1 1-1-1m-241 4v1l7-1h-7m8-1 1 1-1-1m-10.333 2.333.666.334-.666-.334M686 118v1l7-1h-7m279.667-.667.666.334-.666-.334m3 1 .666.334-.666-.334M673 122v1l12-3-12 2m300-3 1 1-1-1m2.667 1.333.666.334-.666-.334M978 121v1h3l-3-1m4.667 1.333.666.334-.666-.334m-312 1 .666.334-.666-.334M664 125l1 1-1-1m-8 2v1l6-1h-6m339-1 1 1-1-1m3 0v2h2l-2-2m-348 3v1l4-1h-4m-16 6v1l15-5-15 4m375-5 3 2v-1l-3-1m5 2 1 1-1-1m2.67 1.333.66.334-.66-.334m2.33.667 1 1-1-1m2.67 1.333.66.334-.66-.334M629 137v1l4-1h-4m396-1 1 1-1-1m83 0v1l5 2v-1l-5-2m-81 1 1 1-1-1m-400 1 1 1-1-1m402 0 1 1-1-1m-405 1 1 1-1-1m489 0v1l9 4v-1l-9-4m-491 1 1 1-1-1m412 0 1 1-1-1m-416 1-48 23v1l49-23-1-1m422 1 3 2v-1l-3-1m5 2 1 1-1-1m77 0v1c45.24 28.831 86.92 59.811 123.84 99.089C1322.44 325.581 1374 440.233 1374 553h1c0-128.888-62.92-254.592-158-340.169-21.42-19.282-43.5-37.886-68-53.255-8.6-5.398-17.22-12.535-27-15.576m-75 1v1l7 3v-1l-7-3m8 4v1l10 4v-1l-10-4z" fill="#bd5958" stroke="none"/><path d="m514 155 1 1-1-1m628 0 1 1-1-1z" fill="#910909" stroke="none"/><path d="m1071 156 1 1-1-1m2 1v1l8 4v-1l-8-4m9 5 3 2v-1l-3-1m-515 4 1 1-1-1m-2 1 1 1-1-1m526 0 1 1-1-1m-530 3 3-2-3 2m533-2v2h2l-2-2m-535 2-10 6v1l11-6-1-1m540 1 1 1-1-1m3 2v1l4 2v-1l-4-2m5 3 1 1-1-1z" fill="#bd5958" stroke="none"/><path d="m482 177 1 1-1-1z" fill="#910909" stroke="none"/><path d="m547 177-20 13v1c5.366-2.034 18.421-8.3 20-14m562 0 2 2-2-2z" fill="#bd5958" stroke="none"/><path d="m1174 177 1 1-1-1z" fill="#910909" stroke="none"/><path d="m1112 179 5 4v-1l-5-3m7 4v2h2l-2-2m3 2 8 6v-1l-8-5z" fill="#bd5958" stroke="none"/><path d="m470 186 1 1-1-1m716 0 1 1-1-1z" fill="#910909" stroke="none"/><path d="m789 188 1 1-1-1m3 0 1 1-1-1m5 0v1h26l-26-1m28 0 1 1-1-1m2 0 1 1-1-1m-53 1v1h9l-9-1z" fill="#bd5958" stroke="none"/><path d="M491 272c-2.879 3.575-13.298 11.223-5.851 15.539 6.87 3.982 17.496-5.981 23.851-8.538 12.966-5.217 29.121-12.931 43-14.636 5.23-.642 10.746 1.409 16 1.635-13.167 16.163-41.078 26.731-60 34.396-8.147 3.3-18.003 5.561-24.96 11.136-9.323 7.472-8.528 19.162 2.96 23.855 10.796 4.41 23.038 2.246 34-.274 39.847-9.162 71.544-34.776 110-45.973 9.119-2.655 24.153-10.659 33.714-8.871 6.153 1.151 19.234 17.407 22.429 22.731 7.668 12.781 4.143 38.863 2.281 53-.653 4.963-.083 10.635-3.013 14.985-7.971 11.838-27.268 19.813-38.411 28.82-21.94 17.734-41.145 39.398-56.305 63.195C525.859 564.779 545.534 701.022 635 781.83c90.019 81.308 228.722 100.787 338 47.912 110.03-53.241 177.73-172.359 147.37-293.742-5.12-20.492-12.68-42.085-24.07-60-51.49-81.009-158.353-106.571-245.3-74.05-21.069 7.88-41.012 19.558-58 34.339-7.373 6.416-13.388 15.455-21.286 21.108-4.472 3.201-22.531 3.78-24.411-2.456-1.923-6.379-4.061-20.943-.985-26.941 2.544-4.96 8.52-7.85 10.546-13 2.108-5.356-5.536-9.51-.592-14.61 13.301-13.721 36.076-16.872 49.26-31.561 7.006-7.806 4.455-17.684 8.098-26.829 6.175-15.498 25.864-22.282 41.37-22.961 25.063-1.097 46.047 12.004 70 16.04 8.223 1.386 22.254 1.043 27.248-7.389 2.474-4.176-5.656-7.491-8.248-9.277-10.741-7.4-22.641-12.385-35-16.413 8.542-6.068 15.661-2.721 25 .001 16.414 4.783 32.777 9.93 49 15.332 73.91 24.612 152.21 55.938 193.19 126.667 12.64 21.814 16.75 48.361 31.38 68.996 8.93 12.605 24.68 17.907 38.43 9.651 25.8-15.498 14.33-57.743 5.8-79.647-25.57-65.65-74.01-112.215-137.8-141.626-16.69-7.694-36.21-13.253-52-22.329-12.21-7.014-23.01-16.964-35-24.515-29.575-18.631-62.024-35.94-95-47.666-58.219-20.702-119.312-19.109-180-14.953-30.488 2.087-60.776 1.896-91 7.549-50.072 9.366-95.488 26.034-141 48.787-9.745 4.872-19.602 8.664-30 11.856-3.767 1.157-9.435 1.068-11.485 5.118C474.817 272.527 487.172 272 491 272z" fill="#910909" stroke="none"/><path d="M784 189v1h4l-4-1m50 0 1 1-1-1m2 0v1h13l-13-1m-76 1v1h8l-8-1m90 0v1h9l-9-1m10 0 1 1-1-1m-110 1v1h6l-6-1m112 0v1h6l-6-1m7 0 1 1-1-1m-345 1-17 12v1l18-12-1-1m194 0 1 1-1-1m2.667.333.666.334-.666-.334M723 192v1h9l-9-1m11 0 1 1-1-1m2.667.333.666.334-.666-.334M873 192v1h4l-4-1m259 0 2 2-2-2m-426 1v1h7l-7-1m174 0v1h3l-3-1m-186 1v1h5l-5-1m6.667.333.666.334-.666-.334M886 194v1h4l-4-1m250 0 4 4-4-4m-452 1v1h6l-6-1m207 0v1h4l-4-1m-216 1v1h6l-6-1m222.667.333.666.334-.666-.334M668 197v1h6l-6-1m232 0v1h4l-4-1m-238 1v1h6l-6-1m242 0v1h4l-4-1m-246 1v1h3l-3-1m251.667.333.666.334-.666-.334M1142 199v1l8 5v-1l-8-5m-490 1v1h5l-5-1m259 0v1h4l-4-1m-264 1v1h4l-4-1m268.667.333.666.334-.666-.334M641 202v1h5l-5-1m277 0v1h4l-4-1m-282 1v1h4l-4-1m286.667.333.666.334-.666-.334M632 204v1h4l-4-1m292.667.333.666.334-.666-.334M628 205v1h4l-4-1m299 0v1h3l-3-1m-302 1v1h3l-3-1m306.667.333.666.334-.666-.334M485 222l20-14c-6.303-.523-16.191 9.321-20 14m136-15v1h3l-3-1m312.667.333.666.334-.666-.334M1153 207l1 1-1-1m-536 1v1h3l-3-1m319 0 1 1-1-1m-323 1v1h3l-3-1m325.667.333.666.334-.666-.334M609 210v1h3l-3-1m331.667.333.666.334-.666-.334M1157 210l6 5v-1l-6-4m-550 1 1 1-1-1m336.667.333.666.334-.666-.334M603 212v1h3l-3-1m342.667.333.666.334-.666-.334m-345 1 .666.334-.666-.334M947 213v1h3l-3-1m-349.333 1.333.666.334-.666-.334m353 0 .666.334-.666-.334M594 215v1h3l-3-1m359 0 1 1-1-1m-361.333 1.333.666.334-.666-.334m364 0 .666.334-.666-.334M589 217l1 1-1-1m369 0 1 1-1-1m208 0 5 5-5-5m-580 1 1 1-1-1m374 0 1 1-1-1m-377 1 1 1-1-1m378.667.333.666.334-.666-.334m-381 1 .666.334-.666-.334m383 0 .666.334-.666-.334M578 221l1 1-1-1m387.667.333.666.334-.666-.334M574 222v1h3l-3-1m393.667.333.666.334-.666-.334M483 223c-32.593 26.543-61.115 58.474-85.025 93-8.504 12.28-18.184 25.165-23.975 39 10.213-8.32 15.542-24.207 23.039-35 15.56-22.398 33.053-43.425 52-63.004 7.68-7.936 15.771-15.428 23.961-22.826 3.549-3.205 8.835-6.363 10-11.17m90 0 1 1-1-1m396.667.333.666.334-.666-.334M570 224l1 1-1-1m402 0 1 1-1-1m-404 1 1 1-1-1m406 0 1 1-1-1m202 0 19 19.17 21 19.83c-7.42-14.303-26.9-29.782-40-39m-610.333 1.333.666.334-.666-.334m411 0 .666.334-.666-.334m-413 1 .666.334-.666-.334m415 0 .666.334-.666-.334M561 228l1 1-1-1m419.667.333.666.334-.666-.334m-422 1 .666.334-.666-.334m424 0 .666.334-.666-.334m-426 1 .666.334-.666-.334M984 230l1 1-1-1m-429.333 1.333.666.334-.666-.334M986 231l1 1-1-1m-434 1 1 1-1-1m435.667.333.666.334-.666-.334m-438 1 .666.334-.666-.334m440 0 .666.334-.666-.334m-442 1 .666.334-.666-.334m444 0 .666.334-.666-.334M546 235l1 1-1-1m448 0 1 1-1-1m-450.333 1.333.666.334-.666-.334m452 0 .666.334-.666-.334m-454 1 .666.334-.666-.334M997 237l1 1-1-1m-458 1 1 1-1-1m459.667.333.666.334-.666-.334m-461 1 .666.334-.666-.334m463.003 0 .66.334-.66-.334m-465.003 1 .666.334-.666-.334M1003 240l1 1-1-1m-470 1 1 1-1-1m472 0 1 1-1-1m-474.333 1.333.666.334-.666-.334M1006 242l1 1-1-1m-477 1 1 1-1-1m478.67.333.66.334-.66-.334m-481.003 1 .666.334-.666-.334m483.003 0 .66.334-.66-.334M525 245l1 1-1-1m487 0 1 1-1-1m-489 1 1 1-1-1m490 0 1 1-1-1m-492.333 1.333.666.334-.666-.334m494.003 0 .66.334-.66-.334m-496.003 1 .666.334-.666-.334m498.003 0 .66.334-.66-.334M517 249l1 1-1-1m501.67.333.66.334-.66-.334m-504.003 1 .666.334-.666-.334M1020 250l1 1-1-1m-507.333 1.333.666.334-.666-.334M1021 251l1 1-1-1m-510.333 1.333.666.334-.666-.334M1023 252l1 1-1-1m-515 1 1 1-1-1m517 0 1 1-1-1m-519.333 1.333.666.334-.666-.334M1027 254l1 1-1-1m-524 1 1 1-1-1m525 0 1 1-1-1m-529 1v1h4l-4-1m530.67.333.66.334-.66-.334M496 257v1h3l-3-1m535.67.333.66.334-.66-.334m-538.003 1 .666.334-.666-.334M1033 258l1 1-1-1m-542.333 1.333.666.334-.666-.334M1034 259l1 1-1-1m-548 1v1h4l-4-1m550 0 1 1-1-1m-555 1v1h3l-3-1m556 0 1 1-1-1m-557.333 1.333.666.334-.666-.334m559.003 0 .66.334-.66-.334m-560.337 1.334.334.666-.334-.666M1040 263l1 1-1-1m-490 1v1h7l-7-1m492 0 1 1-1-1m-564.667 1.667.334.666-.334-.666M547 265l1 1-1-1m13 0v1h3l-3-1m483 0 1 1-1-1m-498.333 1.333.666.334-.666-.334m22.666.334.334.666-.334-.666M741 266v1h6l-6-1z" fill="#bd5958" stroke="none"/><path d="M703 272c9.7 25.082 37.797 40.776 63 32.974 7.386-2.286 16.063-4.402 19.82-11.974 3.061-6.169-.534-16.331-.82-23-26.804-3.388-55.58-6.028-82 2z" fill="#cd9090" stroke="none"/><path d="M755 266v1h4l-4-1m5.667.333.666.334-.666-.334M1045 266l1 1-1-1m-569 1 1 1-1-1m65.667.333.666.334-.666-.334M729 267v1h7l-7-1m36 0v1h5l-5-1m281 0 1 1-1-1m173 0c3.1 6.933 11.48 17.091 18 21l-18-21m-680.333 1.333.666.334-.666-.334M566 268l1 1-1-1m153 0v1h6l-6-1m53 0v1h7l-7-1m275 0 1 1-1-1m-570 1 1 1-1-1m58 0v1h3l-3-1m29 0 1 1-1-1m149 0v1h5l-5-1m68 0v1h3l-3-1m268 0 1 1-1-1m-571 1 1 1-1-1m55 0 1 1-1-1m30 0 1 1-1-1m143 0v1h5l-5-1m344 0 1 1-1-1m-570.333 1.333.666.334-.666-.334M531 271l1 1-1-1m30.667.333.666.334-.666-.334M702 271v3h1l1-3h-2m83 0v5h1l-1-5m266 0 1 1-1-1m-569 1v1l9 1-9-2m45.667.333.666.334-.666-.334M560 272l1 1-1-1m492 0 1 1-1-1m-528.333 1.333.666.334-.666-.334M558 273l1 1-1-1m249 0 1 7h1v-7h-2m247 0 1 1-1-1m-565.333 1.333.666.334-.666-.334m33 0 .666.334-.666-.334M557 274l1 1-1-1m146 0 1 1-1-1z" fill="#bd5958" stroke="none"/><path d="M808 274c.646 8.296 8.75 5.538 15 6.286 12.817 1.532 24.846 4.893 37 9.124 5.674 1.975 11.654 3.464 16-1.41-21.359-6.016-45.868-12.238-68-14z" fill="#cd9090" stroke="none"/><path d="M812 274v1h4l-4-1m243 0 1 1-1-1m-568 1 1 1-1-1m31.667.333.666.334-.666-.334m37 0 .666.334-.666-.334M704 275l1 1-1-1m113 0v1h4l-4-1m239.67.333.66.334-.66-.334M486 276l1 1-1-1m29 0v1h3l-3-1m39 0 1 1-1-1m268 0v1h5l-5-1m236 0 1 1-1-1m-573 1 1 1-1-1m27 0v1h3l-3-1m40 0 1 1-1-1m153 0 1 1-1-1m81 0v9h1l-1-9m41 0v1h4l-4-1m232 0 1 1-1-1m-575 1 1 1-1-1m26.667.333.666.334-.666-.334m40 0 .666.334-.666-.334M706 278l1 1-1-1m126 0v1h4l-4-1m228.67.333.66.334-.66-.334z" fill="#bd5958" stroke="none"/><path d="m378 279 1 1-1-1z" fill="#910909" stroke="none"/><path d="m483 279 1 1-1-1m24 0v1h3l-3-1m41.667.333.666.334-.666-.334M664 279l1 1-1-1m43 0 1 1-1-1m129 0v1h5l-5-1m226.67.333.66.334-.66-.334z" fill="#bd5958" stroke="none"/><path d="m1278 279 1 1-1-1z" fill="#910909" stroke="none"/><path d="m482.333 280.667.334.666-.334-.666M505 280l1 1-1-1m42 0 1 1-1-1m113 0v1h4l-4-1m5 0 1 1-1-1m43.333.667.334.666-.334-.666M817 280v1h8l-8-1m24 0v1h4l-4-1m223 0v1h3l-3-1m-561.333 1.333.666.334-.666-.334m43 0 .666.334-.666-.334M656 281v1h4l-4-1m10 0 1 1-1-1m161 0v1h5l-5-1m19 0v1h4l-4-1m221 0v1h4l-4-1m-586 1v4h1l-1-4m20 0 1 1-1-1m42.667.333.666.334-.666-.334M652 282v1h3l-3-1m15 0 1 1-1-1m42 0 1 1-1-1m124 0v1h4l-4-1m17 0v1h5l-5-1m221.67.333.66.334-.66-.334M499 283l1 1-1-1m43 0 1 1-1-1m106 0v1h3l-3-1m20 0 1 1-1-1m42 0 1 1-1-1m128 0v1h4l-4-1m17 0v1h4l-4-1m218.67.333.66.334-.66-.334m-576.003 1 .666.334-.666-.334M540 284l1 1-1-1m104 0v1h4l-4-1m25 0 1 1-1-1m42 0 1 1-1-1m132 0v1h3l-3-1m18 0v1h3l-3-1m215 0 1 1-1-1m-580 1 1 1-1-1m42.667.333.666.334-.666-.334M641 285v1h3l-3-1m205 0v1h3l-3-1m20.667.333.666.334-.666-.334m212.003 0 .66.334-.66-.334M482 286l1 1-1-1m13 0 1 1-1-1m42 0 1 1-1-1m100 0v1h3l-3-1m33 0 1 1-1-1m180.667.333.666.334-.666-.334M870 286v1h3l-3-1m210.67.333.66.334-.66-.334m-597.003 1 .666.334-.666-.334M493 287l1 1-1-1m42 0 1 1-1-1m100.667.333.666.334-.666-.334M671 287l1 1-1-1m42 0 1 1-1-1m74 0v5h1l-1-5m66.667.333.666.334-.666-.334m21 0 .666.334-.666-.334M1082 287v1h3l-3-1m-596.333 1.333.666.334-.666-.334m6 0 .666.334-.666-.334m41 0 .666.334-.666-.334m100 0 .666.334-.666-.334M672 288l1 1-1-1m42 0 1 1-1-1m142.667.333.666.334-.666-.334M876 288l1 1-1-1m209.67.333.66.334-.66-.334m-597.003 1 .666.334-.666-.334M531 289l1 1-1-1m97.667.333.666.334-.666-.334M673 289l1 1-1-1m42 0 1 1-1-1m144.667.333.666.334-.666-.334M875 289l1 1-1-1m212.67.333.66.334-.66-.334M1238 289v2h2l-2-2m-709 1 1 1-1-1m96.667.333.666.334-.666-.334M674 290l1 1-1-1m42 0 1 1-1-1m146 0 1 1-1-1m12 0 1 1-1-1m216.67.333.66.334-.66-.334m-563.003 1 .666.334-.666-.334M622 291v1h3l-3-1m53 0 1 1-1-1m42 0 1 1-1-1m149 0v1h4l-4-1m6.667.333.666.334-.666-.334m221.003 0 .66.334-.66-.334M525 292l1 1-1-1m94.667.333.666.334-.666-.334M676 292l1 1-1-1m42 0 1 1-1-1m68.333.667.334.666-.334-.666m309.337-.334.66.334-.66-.334M1240 292l9 11-9-11m-716.333 1.333.666.334-.666-.334M617 293l1 1-1-1m60 0 1 1-1-1m421 0 1 1-1-1z" fill="#bd5958" stroke="none"/><path d="m367 294 1 1-1-1z" fill="#910909" stroke="none"/><path d="m521.667 294.333.666.334-.666-.334M613 294v1h3l-3-1m65 0 1 1-1-1m107 0 1 1-1-1m314.67.333.66.334-.66-.334z" fill="#bd5958" stroke="none"/><path d="m1289 294 1 1-1-1z" fill="#910909" stroke="none"/><path d="m519 295 1 1-1-1m92.667.333.666.334-.666-.334M679 295l1 1-1-1m105 0 1 1-1-1m317.67.333.66.334-.66-.334M516 296l1 1-1-1m93 0 1 1-1-1m71 0 1 1-1-1m41 0 1 1-1-1m62 0 1 1-1-1m320.67.333.66.334-.66-.334M514 297l1 1-1-1m93 0 1 1-1-1m74 0 1 1-1-1m42 0 1 1-1-1m59 0 1 1-1-1m134 0 1 1-1-1m189.67.333.66.334-.66-.334m-594.003 1 .666.334-.666-.334m94 0 .666.334-.666-.334M682 298l1 1-1-1m42 0 1 1-1-1m57 0 1 1-1-1m133 0 1 1-1-1m5 0v1h3l-3-1m188.67.333.66.334-.66-.334m-598.003 1 .666.334-.666-.334M604 299l1 1-1-1m122 0 1 1-1-1m54 0 1 1-1-1m132 0 1 1-1-1m10 0v1h4l-4-1m188 0 1 1-1-1m-603.333 1.333.666.334-.666-.334M602 300l1 1-1-1m126 0 1 1-1-1m51 0 1 1-1-1m131 0 1 1-1-1m17.667.333.666.334-.666-.334m184.003 0 .66.334-.66-.334M503 301v1h3l-3-1m97.667.333.666.334-.666-.334M685 301l1 1-1-1m44.667.333.666.334-.666-.334m47 0 .666.334-.666-.334M909 301l1 1-1-1m20 0v1h4l-4-1m185 0 1 1-1-1m-612.333 1.333.666.334-.666-.334M599 302l1 1-1-1m87.333.667.334.666-.334-.666m45.334-.334.666.334-.666-.334m42 0 .666.334-.666-.334m137 0 .666.334-.666-.334m24 0 .666.334-.666-.334m182.003 0 .66.334-.66-.334m-618.003 1 .666.334-.666-.334M597 303l1 1-1-1m137 0 1 1-1-1m36.667.333.666.334-.666-.334m143 0 .666.334-.666-.334M936 303v1h4l-4-1m182.67.333.66.334-.66-.334m-622.003 1 .666.334-.666-.334M595 304l1 1-1-1m140.667.333.666.334-.666-.334m32 0 .666.334-.666-.334m149 0 .666.334-.666-.334m24 0 .666.334-.666-.334m180.003 0 .66.334-.66-.334M1249 304c4.57 8.202 12.89 24.431 21 29-4.76-8.936-12.24-23.702-21-29m-755 1 1 1-1-1m99 0 1 1-1-1m94 0v4h1l-1-4m51 0 1 1-1-1m26.667.333.666.334-.666-.334M918 305v1h3l-3-1m25 0v1h4l-4-1m179.67.333.66.334-.66-.334m-631.003 1 .666.334-.666-.334m100 0 .666.334-.666-.334m149 0 .666.334-.666-.334M760 306v1h3l-3-1m161.667.333.666.334-.666-.334m26 0 .666.334-.666-.334M1124 306l1 1-1-1m-634.333 1.333.666.334-.666-.334m100 0 .666.334-.666-.334m153 0 .666.334-.666-.334M756 307v1h3l-3-1m168.667.333.666.334-.666-.334M950 307v1h3l-3-1m175.67.333.66.334-.66-.334M487 308l1 1-1-1m101 0 1 1-1-1m157.667.333.666.334-.666-.334M751 308v1h4l-4-1m175.667.333.666.334-.666-.334M954 308l1 1-1-1m173.67.333.66.334-.66-.334M485 309l1 1-1-1m101 0 1 1-1-1m342.667.333.666.334-.666-.334M956 309v1h3l-3-1m173.67.333.66.334-.66-.334m-646.003 1 .666.334-.666-.334M584 310l1 1-1-1m104 0v9h1l-1-9m242.667.333.666.334-.666-.334M961 310l1 1-1-1m171 0 1 1-1-1m-650 1 1 1-1-1m100.667.333.666.334-.666-.334m350 0 .666.334-.666-.334m31 0 .666.334-.666-.334M1134 311l1 1-1-1m-653 1 1 1-1-1m99 0 1 1-1-1m354.667.333.666.334-.666-.334m33 0 .666.334-.666-.334M1135 312l1 1-1-1m-655 1 1 1-1-1m98.667.333.666.334-.666-.334M936 313l1 1-1-1m33.667.333.666.334-.666-.334m167.003 0 .66.334-.66-.334M479 314l1 1-1-1m97.667.333.666.334-.666-.334M938 314l1 1-1-1m34 0v1h3l-3-1m166.67.333.66.334-.66-.334m-660.337 1.334.334.666-.334-.666M574 315l1 1-1-1m365.667.333.666.334-.666-.334m37 0 .666.334-.666-.334m164.003 0 .66.334-.66-.334M572 316l1 1-1-1m369 0 1 1-1-1m38.667.333.666.334-.666-.334M1142 316l1 1-1-1m-665 1 1 1-1-1m93 0 1 1-1-1m372 0 1 1-1-1m40.667.333.666.334-.666-.334M1143 317l1 1-1-1m-575 1 1 1-1-1m376 0 1 1-1-1m41.667.333.666.334-.666-.334m160.003 0 .66.334-.66-.334M476 319l1 1-1-1m89.667.333.666.334-.666-.334M850 319v1h16l-16-1m95 0 1 1-1-1m42 0v1h3l-3-1m160 0 1 1-1-1m-672 1v6h1l-1-6m88.667.333.666.334-.666-.334M844 320v1h5l-5-1m25 0v1h6l-6-1m77.667.333.666.334-.666-.334M991 320v1h3l-3-1m158 0 1 1-1-1m-587.333 1.333.666.334-.666-.334M840 321v1h3l-3-1m36 0v1h4l-4-1m72.667.333.666.334-.666-.334m46 0 .666.334-.666-.334M1150 321l1 1-1-1m-591 1 1 1-1-1m278.667.333.666.334-.666-.334M881 322v1h4l-4-1m69 0 1 1-1-1m46 0v1h4l-4-1m155.67.333.66.334-.66-.334m-595.003 1 .666.334-.666-.334M689 323v14h1l-1-14m145.667.333.666.334-.666-.334M885 323v1h3l-3-1m67 0 1 1-1-1m48.67.333.66.334-.66-.334M1153 323l1 1-1-1m-598.333 1.333.666.334-.666-.334m277 0 .666.334-.666-.334m58 0 .666.334-.666-.334M953 324l1 1-1-1m50.67.333.66.334-.66-.334M1155 324l1 1-1-1m-603.333 1.333.666.334-.666-.334m278 0 .666.334-.666-.334m63 0 .666.334-.666-.334m61.666.334.334.666-.334-.666m51.337-.334.66.334-.66-.334M1156 325l1 1-1-1m-679.667 1.667.334.666-.334-.666m73.334-.334.666.334-.666-.334M828 326l1 1-1-1m67.667.333.666.334-.666-.334M1008 326v1h3l-3-1m150 0 1 1-1-1m-611.333 1.333.666.334-.666-.334M826 327l1 1-1-1m72.667.333.666.334-.666-.334M953 327l1 1-1-1m59.67.333.66.334-.66-.334M1159 327l1 1-1-1m-616 1v1h3l-3-1m281.667.333.666.334-.666-.334m77 0 .666.334-.666-.334M952 328l1 1-1-1m62.67.333.66.334-.66-.334m146 0 .66.334-.66-.334M477 329l1 1-1-1m62 0v1h4l-4-1m284 0 1 1-1-1m81.667.333.666.334-.666-.334M950 329l1 1-1-1m67.67.333.66.334-.66-.334m145 0 .66.334-.66-.334M478 330l1 1-1-1m59.667.333.666.334-.666-.334M822 330l1 1-1-1m84 0v1h3l-3-1m43 0 1 1-1-1m70 0v1h3l-3-1m145 0 1 1-1-1m-685 1 1 1-1-1m55 0v1h3l-3-1m286 0 1 1-1-1m89 0v1h3l-3-1m38.667.333.666.334-.666-.334M1022 331v1h3l-3-1m143 0 1 1-1-1m-685 1 1 1-1-1m50 0v1h3l-3-1m289 0 1 1-1-1m93 0v1h3l-3-1m34 0 1 1-1-1m79.67.333.66.334-.66-.334M1167 332l1 1-1-1m-685.333 1.333.666.334-.666-.334M526 333v1h3l-3-1m292 0 1 1-1-1m97 0v1h3l-3-1m29 0 1 1-1-1m84.67.333.66.334-.66-.334M1168 333l1 1-1-1m-685 1 1 1-1-1m39 0v1h3l-3-1m295.333.667.334.666-.334-.666M919 334v1h3l-3-1m22.667.333.666.334-.666-.334m89.003 0 .66.334-.66-.334m139 0 .66.334-.66-.334M1270 334l2 4h1l-3-4m-785.333 1.333.666.334-.666-.334M518 335v1h3l-3-1m405 0v1h5l-5-1m14 0v1h3l-3-1m95.67.333.66.334-.66-.334M1171 335l1 1-1-1m-684 1v1h3l-3-1m25 0v1h5l-5-1m304 0 1 1-1-1m114 0v1h5l-5-1m105.67.333.66.334-.66-.334M1172 336l1 1-1-1m-681 1v1h4l-4-1m15 0v1h4l-4-1m309.333.667.334.666-.334-.666m223.337-.334.66.334-.66-.334M1174 337l1 1-1-1m-132.33 1.333.66.334-.66-.334M1175 338l1 1-1-1m-360.667 1.667.334.666-.334-.666m229.337-.334.66.334-.66-.334M1176 339l1 1-1-1m97 0 10 16-10-16m-585 1 1 1-1-1m358 0 1 1-1-1m131.67.333.66.334-.66-.334M1048 341l1 1-1-1m131 0 1 1-1-1m-365.667 1.667.334.666-.334-.666M1051 342l1 1-1-1m129 0 1 1-1-1m-492 1v13h1l-1-13m365 0 1 1-1-1m128 0 1 1-1-1z" fill="#bd5958" stroke="none"/><path d="M748 458c6.596 0 17.006 1.97 23-1.028 5.415-2.708 8.81-8.762 13.039-12.883 7.964-7.757 16.726-14.904 25.961-21.088 26.134-17.5 54.894-28.924 86-33.726 73.216-11.304 151.4 18.051 195.25 78.725 36.89 51.022 47.24 126.959 30.32 187C1077.45 811.575 902.33 894.313 750 846.975c-51.033-15.859-97.867-44.159-133.83-83.975-64.983-71.944-85.753-180.448-42.912-269 15.957-32.981 37.5-62.225 64.742-86.83 9.668-8.733 20.245-16.795 31-24.141 4.437-3.031 12.424-5.976 14.763-11.122 3.263-7.181-16.806-27.201-23.763-27.21-7.113-.01-17.417 9.741-23 13.73-21.207 15.155-40.646 32.599-57.411 52.573-73.901 88.05-89.893 209.853-38.319 313 11.452 22.903 26.701 43.832 43.575 63 148.556 168.748 455.995 138.484 555.895-68 15.49-32.015 24.02-65.743 27.43-101 3.47-35.906-1.5-72.632-12.2-107-34.78-111.813-151.44-175.227-264.97-158.421-41.342 6.12-80.451 21.425-114 46.548-9.488 7.105-26.242 18.609-30.802 29.873-2.939 7.259.833 21.335 1.802 29z" fill="#e0d6be" stroke="none"/><path d="M812 344v4h1l-1-4m243 0 1 1-1-1m127 0 1 1-1-1m-125 1 1 1-1-1m127 0 1 1-1-1m-124.33 1.333.66.334-.66-.334M1185 346l1 1-1-1m-123.33 1.333.66.334-.66-.334M1186 347l1 1-1-1m-122.33 1.333.66.334-.66-.334M1187 348l1 1-1-1m-122 1 1 1-1-1m123.67.333.66.334-.66-.334M811 350v10h1l-1-10m256 0 1 1-1-1m1.67 1.333.66.334-.66-.334M1191 351l1 1-1-1m-120.33 1.333.66.334-.66-.334M1192 352l1 1-1-1m-119.33 1.333.66.334-.66-.334M1193 353l1 1-1-1m-118 1 1 1-1-1m119 0 1 1-1-1m-117 1 1 1-1-1m118 0 1 1-1-1m-822 1 1 1-1-1m706 0 1 1-1-1m117 0 1 1-1-1m87 0 1 1-1-1m-202.33 1.333.66.334-.66-.334M1197 357l1 1-1-1m-825 1-26.45 59L334 454h1c8.751-23.471 16.007-46.896 25.872-70 3.045-7.132 12.484-18.261 11.128-26m710 0 1 1-1-1m116 0 1 1-1-1m86 0 17 36h1c-3.14-10.91-9.9-27.988-18-36m-597 1v7h1l-1-7m397 0 1 1-1-1m115 0 1 1-1-1m-388.667 1.667.334.666-.334-.666M1086 360l1 1-1-1m114 0 1 1-1-1m-112 1 1 1-1-1m113 0 1 1-1-1m-111 1 1 1-1-1m112 0 1 1-1-1m-393 1 1 1-1-1m282.67.333.66.334-.66-.334M1203 363l1 1-1-1m-110 1 1 1-1-1m111 0 1 1-1-1m-396 1 1 1-1-1m287 0 1 1-1-1m110 0 1 1-1-1m-398 1 1 1-1-1m289.67.333.66.334-.66-.334M1206 366l1 1-1-1m-520 1v4h1l-1-4m120 0 1 1-1-1m292 0 1 1-1-1m109 0 1 1-1-1m-107.33 1.333.66.334-.66-.334M1208 368l1 1-1-1m-106.33 1.333.66.334-.66-.334M1209 369l1 1-1-1m-106 1 1 1-1-1m107 0 1 1-1-1z" fill="#bd5958" stroke="none"/><path d="m684 371 1 1-1-1z" fill="#cd9090" stroke="none"/><path d="m685 371 1 1-1-1m117 0 1 1-1-1m302.67.333.66.334-.66-.334M1211 371l1 1-1-1m-527 1 1 1-1-1m117 0 1 1-1-1m305 0 1 1-1-1m106.33.667.34.666-.34-.666M683 373l1 1-1-1m117 0 1 1-1-1m308 0 1 1-1-1m-426 1 1 1-1-1m117 0 1 1-1-1m310 0 1 1-1-1m104 0 1 1-1-1z" fill="#bd5958" stroke="none"/><path d="m680 375 1 1-1-1z" fill="#cd9090" stroke="none"/><path d="m681 375 1 1-1-1m116 0 1 1-1-1m314 0 1 1-1-1m103 0 1 1-1-1z" fill="#bd5958" stroke="none"/><path d="m679 376 1 1-1-1z" fill="#cd9090" stroke="none"/><path d="m796 376 1 1-1-1m316.67.333.66.334-.66-.334M1215 376l1 1-1-1z" fill="#bd5958" stroke="none"/><path d="m677 377 1 1-1-1z" fill="#cd9090" stroke="none"/><path d="m678 377 1 1-1-1m116 0 1 1-1-1m320 0 1 1-1-1m102 0 1 1-1-1m-540 1 1 1-1-1m117 0 1 1-1-1m322 0 1 1-1-1z" fill="#bd5958" stroke="none"/><path d="m674 379 1 1-1-1z" fill="#cd9090" stroke="none"/><path d="m675 379 1 1-1-1m116 0 1 1-1-1m326 0 1 1-1-1m100 0 1 1-1-1z" fill="#bd5958" stroke="none"/><path d="m672 380-1 2 1-2z" fill="#cd9090" stroke="none"/><path d="m673 380 1 1-1-1m116.667.333.666.334-.666-.334M1218 380l1 1-1-1m-546 1 1 1-1-1m116 0 1 1-1-1m332 0 1 1-1-1m99 0 1 1-1-1z" fill="#bd5958" stroke="none"/><path d="m669 382-1 2 1-2z" fill="#cd9090" stroke="none"/><path d="m670 382 1 1-1-1m116 0 1 1-1-1m335.67.333.66.334-.66-.334M1220 382l1 1-1-1m-551 1 1 1-1-1m115.667.333.666.334-.666-.334M1123 383l1 1-1-1z" fill="#bd5958" stroke="none"/><path d="m666 384-1 2 1-2z" fill="#cd9090" stroke="none"/><path d="m667 384 1 1-1-1m116 0 1 1-1-1m341 0 1 1-1-1m97 0 1 1-1-1m-555 1 1 1-1-1m115 0 1 1-1-1m344 0 1 1-1-1m97 0 1 1-1-1m-558 1 1 1-1-1m115 0 1 1-1-1m347 0 1 1-1-1m97 0 1 1-1-1z" fill="#bd5958" stroke="none"/><path d="m662 387 1 1-1-1z" fill="#cd9090" stroke="none"/><path d="m663 387 1 1-1-1m115 0 1 1-1-1z" fill="#bd5958" stroke="none"/><path d="M910 387v1h6l-6-1z" fill="#cd9090" stroke="none"/><path d="M916 387v1h22l-22-1z" fill="#bd5958" stroke="none"/><path d="M938 387v1h7l-7-1z" fill="#cd9090" stroke="none"/><path d="m1128 387 1 1-1-1z" fill="#bd5958" stroke="none"/><path d="m661 388 1 1-1-1z" fill="#cd9090" stroke="none"/><path d="m776 388 1 1-1-1z" fill="#bd5958" stroke="none"/><path d="M901 388v1h3l-3-1z" fill="#cd9090" stroke="none"/><path d="M904 388v1h5l-5-1m42 0v1h5l-5-1z" fill="#bd5958" stroke="none"/><path d="M951 388v1h3l-3-1z" fill="#cd9090" stroke="none"/><path d="m1129 388 1 1-1-1m95 0 1 1-1-1m-564 1 1 1-1-1m114 0 1 1-1-1z" fill="#bd5958" stroke="none"/><path d="m894.667 389.333.666.334-.666-.334z" fill="#cd9090" stroke="none"/><path d="M896 389v1h3l-3-1m60 0v1h3l-3-1z" fill="#bd5958" stroke="none"/><path d="m959.667 389.333.666.334-.666-.334z" fill="#cd9090" stroke="none"/><path d="m1130 389 1 1-1-1m95 0 1 1-1-1z" fill="#bd5958" stroke="none"/><path d="m658 390 1 1-1-1z" fill="#cd9090" stroke="none"/><path d="m659 390 1 1-1-1m113 0 1 1-1-1z" fill="#bd5958" stroke="none"/><path d="m889 390 1 1-1-1z" fill="#cd9090" stroke="none"/><path d="m890.667 390.333.666.334-.666-.334m73 0 .666.334-.666-.334z" fill="#bd5958" stroke="none"/><path d="m965 390 1 1-1-1m-308 1 1 1-1-1z" fill="#cd9090" stroke="none"/><path d="m771 391 1 1-1-1z" fill="#bd5958" stroke="none"/><path d="m883.667 391.333.666.334-.666-.334z" fill="#cd9090" stroke="none"/><path d="m885.667 391.333.666.334-.666-.334m83 0 .666.334-.666-.334z" fill="#bd5958" stroke="none"/><path d="m970 391 1 1-1-1z" fill="#cd9090" stroke="none"/><path d="m1132.67 391.333.66.334-.66-.334M1226 391l1 1-1-1m-570 1 1 1-1-1m113 0 1 1-1-1z" fill="#bd5958" stroke="none"/><path d="m879 392 1 1-1-1z" fill="#cd9090" stroke="none"/><path d="m880.667 392.333.666.334-.666-.334M973 392l1 1-1-1z" fill="#bd5958" stroke="none"/><path d="m974.667 392.333.666.334-.666-.334z" fill="#cd9090" stroke="none"/><path d="m1134 392 1 1-1-1m93.33.667.34.666-.34-.666z" fill="#bd5958" stroke="none"/><path d="m654 393 1 1-1-1z" fill="#cd9090" stroke="none"/><path d="m655 393 1 1-1-1m112 0 1 1-1-1z" fill="#bd5958" stroke="none"/><path d="m874.667 393.333.666.334-.666-.334z" fill="#cd9090" stroke="none"/><path d="m876.667 393.333.666.334-.666-.334m101 0 .666.334-.666-.334z" fill="#bd5958" stroke="none"/><path d="m979.667 393.333.666.334-.666-.334z" fill="#cd9090" stroke="none"/><path d="m1135 393 1 1-1-1m-482 1 1 1-1-1m112 0 1 1-1-1z" fill="#bd5958" stroke="none"/><path d="M870 394v1h3l-3-1z" fill="#cd9090" stroke="none"/><path d="m873 394 1 1-1-1m108.667.333.666.334-.666-.334z" fill="#bd5958" stroke="none"/><path d="m983.667 394.333.666.334-.666-.334z" fill="#cd9090" stroke="none"/><path d="m1136 394 1 1-1-1m92 0 1 1-1-1z" fill="#bd5958" stroke="none"/><path d="m651 395-1 2 1-2z" fill="#cd9090" stroke="none"/><path d="m652 395 1 1-1-1m112 0 1 1-1-1z" fill="#bd5958" stroke="none"/><path d="m867.667 395.333.666.334-.666-.334z" fill="#cd9090" stroke="none"/><path d="m869 395 1 1-1-1m116 0 1 1-1-1z" fill="#bd5958" stroke="none"/><path d="m986.667 395.333.666.334-.666-.334z" fill="#cd9090" stroke="none"/><path d="m1137 395 1 1-1-1m92.33.667.34.666-.34-.666M1302 395l1 1-1-1m-651 1 1 1-1-1m111 0 1 1-1-1z" fill="#bd5958" stroke="none"/><path d="m864 396 1 1-1-1z" fill="#cd9090" stroke="none"/><path d="m865.667 396.333.666.334-.666-.334m123 0 .666.334-.666-.334z" fill="#bd5958" stroke="none"/><path d="m990 396 1 1-1-1z" fill="#cd9090" stroke="none"/><path d="m1138 396 1 1-1-1z" fill="#bd5958" stroke="none"/><path d="m649 397 1 1-1-1z" fill="#cd9090" stroke="none"/><path d="m760 397 1 1-1-1z" fill="#bd5958" stroke="none"/><path d="m861 397 1 1-1-1z" fill="#cd9090" stroke="none"/><path d="m862.667 397.333.666.334-.666-.334m129 0 .666.334-.666-.334z" fill="#bd5958" stroke="none"/><path d="m993.667 397.333.666.334-.666-.334z" fill="#cd9090" stroke="none"/><path d="m1139 397 1 1-1-1m91 0 1 1-1-1m73 0 9.89 27 9.11 30h1l-11.94-38-8.06-19m-655 1 1 1-1-1m110 0 1 1-1-1z" fill="#bd5958" stroke="none"/><path d="m858 398 1 1-1-1z" fill="#cd9090" stroke="none"/><path d="m859.667 398.333.666.334-.666-.334m135 0 .666.334-.666-.334z" fill="#bd5958" stroke="none"/><path d="m996 398 1 1-1-1z" fill="#cd9090" stroke="none"/><path d="m1140 398 1 1-1-1m91.33.667.34.666-.34-.666M647 399l1 1-1-1m109.667.333.666.334-.666-.334z" fill="#bd5958" stroke="none"/><path d="m855 399 1 1-1-1z" fill="#cd9090" stroke="none"/><path d="m856.667 399.333.666.334-.666-.334m141 0 .666.334-.666-.334z" fill="#bd5958" stroke="none"/><path d="m999 399 1 1-1-1z" fill="#cd9090" stroke="none"/><path d="m1141 399 1 1-1-1z" fill="#bd5958" stroke="none"/><path d="m645 400 1 1-1-1z" fill="#cd9090" stroke="none"/><path d="m646 400 1 1-1-1m109 0 1 1-1-1z" fill="#bd5958" stroke="none"/><path d="m852 400 1 1-1-1z" fill="#cd9090" stroke="none"/><path d="m853.667 400.333.666.334-.666-.334M1000 400v1l4 1v-1l-4-1z" fill="#bd5958" stroke="none"/><path d="m1002 400 1 1-1-1z" fill="#cd9090" stroke="none"/><path d="m1142 400 1 1-1-1m90.33.667.34.666-.34-.666z" fill="#bd5958" stroke="none"/><path d="m644 401 1 1-1-1z" fill="#cd9090" stroke="none"/><path d="m754 401 1 1-1-1z" fill="#bd5958" stroke="none"/><path d="m850 401 1 1-1-1z" fill="#cd9090" stroke="none"/><path d="m851.667 401.333.666.334-.666-.334z" fill="#bd5958" stroke="none"/><path d="m1004 401 1 1-1-1z" fill="#cd9090" stroke="none"/><path d="m1143 401 1 1-1-1z" fill="#bd5958" stroke="none"/><path d="m643 402 1 1-1-1m204 0 1 1-1-1z" fill="#cd9090" stroke="none"/><path d="m848.667 402.333.666.334-.666-.334M1005 402v1l4 1v-1l-4-1z" fill="#bd5958" stroke="none"/><path d="m1007 402 1 1-1-1z" fill="#cd9090" stroke="none"/><path d="m1144 402 1 1-1-1m89.33.667.34.666-.34-.666M642 403l1 1-1-1m111.333.667.334.666-.334-.666z" fill="#bd5958" stroke="none"/><path d="m845 403 1 1-1-1z" fill="#cd9090" stroke="none"/><path d="m846 403 1 1-1-1z" fill="#bd5958" stroke="none"/><path d="m1009 403 1 1-1-1z" fill="#cd9090" stroke="none"/><path d="m1145 403 1 1-1-1m-504 1 1 1-1-1z" fill="#bd5958" stroke="none"/><path d="m842.667 404.333.666.334-.666-.334z" fill="#cd9090" stroke="none"/><path d="m844 404 1 1-1-1m166 0 1 1-1-1z" fill="#bd5958" stroke="none"/><path d="m1011.67 404.333.66.334-.66-.334z" fill="#cd9090" stroke="none"/><path d="m1146 404 1 1-1-1m88 0 1 1-1-1z" fill="#bd5958" stroke="none"/><path d="m639 405-2 3 2-3z" fill="#cd9090" stroke="none"/><path d="m640 405 1 1-1-1m114.333.667.334.666-.334-.666z" fill="#bd5958" stroke="none"/><path d="m840 405 1 1-1-1z" fill="#cd9090" stroke="none"/><path d="m841.667 405.333.666.334-.666-.334m171.003 0 .66.334-.66-.334z" fill="#bd5958" stroke="none"/><path d="m1014 405 1 1-1-1z" fill="#cd9090" stroke="none"/><path d="m1147 405 1 1-1-1m88.33.667.34.666-.34-.666M639 406l1 1-1-1z" fill="#bd5958" stroke="none"/><path d="m838 406 1 1-1-1z" fill="#cd9090" stroke="none"/><path d="m839 406 1 1-1-1m176 0 1 1-1-1z" fill="#bd5958" stroke="none"/><path d="m1016 406 1 1-1-1z" fill="#cd9090" stroke="none"/><path d="m1148 406 1 1-1-1m-510 1 1 1-1-1m117.333.667.334.666-.334-.666z" fill="#bd5958" stroke="none"/><path d="m836 407 1 1-1-1z" fill="#cd9090" stroke="none"/><path d="m837 407 1 1-1-1m180 0 1 1-1-1z" fill="#bd5958" stroke="none"/><path d="m1018 407 1 1-1-1z" fill="#cd9090" stroke="none"/><path d="m1149 407 1 1-1-1z" fill="#bd5958" stroke="none"/><path d="m636 408 1 1-1-1m198 0 1 1-1-1z" fill="#cd9090" stroke="none"/><path d="m835 408 1 1-1-1m184 0 1 1-1-1z" fill="#bd5958" stroke="none"/><path d="m1020 408 1 1-1-1z" fill="#cd9090" stroke="none"/><path d="m1150 408 1 1-1-1m86 0 1 1-1-1z" fill="#bd5958" stroke="none"/><path d="m635 409 1 1-1-1z" fill="#cd9090" stroke="none"/><path d="m756 409 1 1-1-1z" fill="#bd5958" stroke="none"/><path d="m832 409 1 1-1-1z" fill="#cd9090" stroke="none"/><path d="m833 409 1 1-1-1m188 0 1 1-1-1z" fill="#bd5958" stroke="none"/><path d="m1022 409 1 1-1-1z" fill="#cd9090" stroke="none"/><path d="m1237.33 409.667.34.666-.34-.666z" fill="#bd5958" stroke="none"/><path d="m634 410 1 1-1-1m196 0 1 1-1-1z" fill="#cd9090" stroke="none"/><path d="m831 410 1 1-1-1m192 0 1 1-1-1z" fill="#bd5958" stroke="none"/><path d="m1024 410 1 1-1-1z" fill="#cd9090" stroke="none"/><path d="m1152 410 1 1-1-1m-519 1 1 1-1-1m124 0 1 1-1-1z" fill="#bd5958" stroke="none"/><path d="m828 411 1 1-1-1z" fill="#cd9090" stroke="none"/><path d="m829 411 1 1-1-1m196 0 1 1-1-1z" fill="#bd5958" stroke="none"/><path d="m1026 411 1 1-1-1z" fill="#cd9090" stroke="none"/><path d="m1153.33 411.667.34.666-.34-.666m85 0 .34.666-.34-.666M632 412l1 1-1-1z" fill="#bd5958" stroke="none"/><path d="m826 412 1 1-1-1z" fill="#cd9090" stroke="none"/><path d="m827 412 1 1-1-1m200 0 1 1-1-1z" fill="#bd5958" stroke="none"/><path d="m1028 412 1 1-1-1z" fill="#cd9090" stroke="none"/><path d="m631 413 1 1-1-1m127 0-11 13c3.993-2.813 11.111-7.759 11-13m67 0 1 1-1-1m204 0 1 1-1-1m125 0 1 1-1-1m85.33.667.34.666-.34-.666M630 414l1 1-1-1z" fill="#bd5958" stroke="none"/><path d="m823 414 1 1-1-1z" fill="#cd9090" stroke="none"/><path d="m824 414 1 1-1-1m206 0 1 1-1-1z" fill="#bd5958" stroke="none"/><path d="m1031 414 1 1-1-1z" fill="#cd9090" stroke="none"/><path d="m1155 414 1 1-1-1m-526 1 1 1-1-1z" fill="#bd5958" stroke="none"/><path d="m758 415 1 1-1-1m63 0 1 1-1-1z" fill="#cd9090" stroke="none"/><path d="m822 415 1 1-1-1m210 0 1 1-1-1z" fill="#bd5958" stroke="none"/><path d="m1033 415 1 1-1-1z" fill="#cd9090" stroke="none"/><path d="m1156 415 1 1-1-1m84.33.667.34.666-.34-.666M628 416l1 1-1-1z" fill="#bd5958" stroke="none"/><path d="m757 416 1 1-1-1z" fill="#cd9090" stroke="none"/><path d="m820 416 1 1-1-1m214 0 1 1-1-1m123 0 1 1-1-1m-530 1 1 1-1-1z" fill="#bd5958" stroke="none"/><path d="m756 417 1 1-1-1m62 0 1 1-1-1m218 0 1 1-1-1z" fill="#cd9090" stroke="none"/><path d="m1158 417 1 1-1-1m-532 1 1 1-1-1z" fill="#bd5958" stroke="none"/><path d="m755 418 1 1-1-1m61 0 1 1-1-1z" fill="#cd9090" stroke="none"/><path d="m817 418 1 1-1-1m220 0 1 1-1-1z" fill="#bd5958" stroke="none"/><path d="m1038 418 1 1-1-1z" fill="#cd9090" stroke="none"/><path d="m1159.33 418.667.34.666-.34-.666M1241 418l1 1-1-1m-616 1 1 1-1-1z" fill="#bd5958" stroke="none"/><path d="m754 419 1 1-1-1z" fill="#cd9090" stroke="none"/><path d="m815 419 1 1-1-1m224 0 1 1-1-1m-415 1 1 1-1-1z" fill="#bd5958" stroke="none"/><path d="m753 420 1 1-1-1m60 0 1 1-1-1z" fill="#cd9090" stroke="none"/><path d="m814 420 1 1-1-1m226 0 1 1-1-1z" fill="#bd5958" stroke="none"/><path d="m1041 420 1 1-1-1z" fill="#cd9090" stroke="none"/><path d="m1160 420 1 1-1-1m-537 1 1 1-1-1z" fill="#bd5958" stroke="none"/><path d="m752 421 1 1-1-1z" fill="#cd9090" stroke="none"/><path d="m812 421 1 1-1-1m230 0 1 1-1-1m119.33.667.34.666-.34-.666M1242 421l1 1-1-1m-620 1 1 1-1-1z" fill="#bd5958" stroke="none"/><path d="m751 422 1 1-1-1m59 0 1 1-1-1z" fill="#cd9090" stroke="none"/><path d="m811 422 1 1-1-1m232 0 1 1-1-1z" fill="#bd5958" stroke="none"/><path d="m1044 422 1 1-1-1z" fill="#cd9090" stroke="none"/><path d="m1243 422 1 1-1-1m-622 1 1 1-1-1z" fill="#bd5958" stroke="none"/><path d="m750 423 1 1-1-1z" fill="#cd9090" stroke="none"/><path d="m809 423 1 1-1-1m236 0 1 1-1-1m117 0 1 1-1-1m82 0v3h1l-1-3m-624 1 1 1-1-1z" fill="#bd5958" stroke="none"/><path d="m749 424 1 1-1-1m58 0 1 1-1-1z" fill="#cd9090" stroke="none"/><path d="m808 424 1 1-1-1m238 0 1 1-1-1z" fill="#bd5958" stroke="none"/><path d="m1047 424 1 1-1-1z" fill="#cd9090" stroke="none"/><path d="m1163 424 1 1-1-1z" fill="#bd5958" stroke="none"/><path d="m619 425 1 1-1-1m129 0 1 1-1-1z" fill="#cd9090" stroke="none"/><path d="m806 425 1 1-1-1z" fill="#bd5958" stroke="none"/><path d="m1048 425 1 1-1-1z" fill="#cd9090" stroke="none"/><path d="m1164 425 1 1-1-1z" fill="#bd5958" stroke="none"/><path d="m618 426 1 1-1-1m129 0 1 1-1-1m57 0 1 1-1-1z" fill="#cd9090" stroke="none"/><path d="m805 426 1 1-1-1m244 0 1 1-1-1m196.33.667.34.666-.34-.666z" fill="#bd5958" stroke="none"/><path d="m617 427 1 1-1-1m129 0 1 1-1-1m57 0 1 1-1-1z" fill="#cd9090" stroke="none"/><path d="m1050 427 1 1-1-1z" fill="#bd5958" stroke="none"/><path d="m1051 427 1 1-1-1z" fill="#cd9090" stroke="none"/><path d="m1165 427 1 1-1-1z" fill="#bd5958" stroke="none"/><path d="m616 428 1 1-1-1m129 0 1 1-1-1z" fill="#cd9090" stroke="none"/><path d="m802 428 1 1-1-1m250 0 1 1-1-1m114 0 1 1-1-1z" fill="#bd5958" stroke="none"/><path d="m615 429-1 2 1-2m185 0-1 2 1-2z" fill="#cd9090" stroke="none"/><path d="m801 429 1 1-1-1m252 0 2 2-2-2z" fill="#bd5958" stroke="none"/><path d="m1054 429 1 1-1-1z" fill="#cd9090" stroke="none"/><path d="m1167 429 1 1-1-1m79.33.667.34.666-.34-.666M615 430l1 1-1-1m185 0 1 1-1-1z" fill="#bd5958" stroke="none"/><path d="m1055 430 1 1-1-1z" fill="#cd9090" stroke="none"/><path d="m614 431 1 1-1-1z" fill="#bd5958" stroke="none"/><path d="M745 431v3h1l-1-3m53 0 1 1-1-1m258 0 1 1-1-1z" fill="#cd9090" stroke="none"/><path d="m1168 431 1 1-1-1m79.33.667.34.666-.34-.666M613 432l1 1-1-1m184 0 1 1-1-1m260 0 1 1-1-1m112.33.667.34.666-.34-.666M612 433l1 1-1-1z" fill="#bd5958" stroke="none"/><path d="m795 433-1 2 1-2z" fill="#cd9090" stroke="none"/><path d="m796 433 1 1-1-1m262 0 2 2-2-2z" fill="#bd5958" stroke="none"/><path d="m1059 433 1 1-1-1z" fill="#cd9090" stroke="none"/><path d="m1248.33 433.667.34.666-.34-.666z" fill="#bd5958" stroke="none"/><path d="m611 434 1 1-1-1z" fill="#cd9090" stroke="none"/><path d="M745 434v4h1l-1-4m50 0 1 1-1-1z" fill="#bd5958" stroke="none"/><path d="m1060 434 1 1-1-1z" fill="#cd9090" stroke="none"/><path d="m1170 434 1 1-1-1z" fill="#bd5958" stroke="none"/><path d="m610 435-1 2 1-2m183 0 1 1-1-1m268 0 1 1-1-1z" fill="#cd9090" stroke="none"/><path d="m1171.33 435.667.34.666-.34-.666M1249 435v3h1l-1-3m-639 1 1 1-1-1z" fill="#bd5958" stroke="none"/><path d="m792 436 1 1-1-1m270 0 1 1-1-1z" fill="#cd9090" stroke="none"/><path d="m298 437 1 1-1-1z" fill="#910909" stroke="none"/><path d="m609 437 1 1-1-1m182 0 1 1-1-1z" fill="#bd5958" stroke="none"/><path d="m1063 437 1 1-1-1z" fill="#cd9090" stroke="none"/><path d="m1172 437 1 1-1-1z" fill="#bd5958" stroke="none"/><path d="m1358 437 1 1-1-1z" fill="#910909" stroke="none"/><path d="m608 438 1 1-1-1m182 0 1 1-1-1m274 0 1 1-1-1m186.33.667.34.666-.34-.666M607 439l1 1-1-1m182 0 1 1-1-1m276 0 1 1-1-1m108 0 1 1-1-1z" fill="#bd5958" stroke="none"/><path d="m606 440 1 1-1-1z" fill="#cd9090" stroke="none"/><path d="m788 440 1 1-1-1m278 0 1 1-1-1z" fill="#bd5958" stroke="none"/><path d="m605 441-1 2 1-2m181 0-6 7 6-7z" fill="#cd9090" stroke="none"/><path d="m787 441 1 1-1-1m280 0 1 1-1-1m107 0 1 1-1-1m77.33.667.34.666-.34-.666M605 442l1 1-1-1z" fill="#bd5958" stroke="none"/><path d="M746 442v3h1l-1-3z" fill="#cd9090" stroke="none"/><path d="m786 442 1 1-1-1m282 0 1 1-1-1m107.33.667.34.666-.34-.666M604 443l1 1-1-1m181 0 1 1-1-1m284 0 1 1-1-1m183.33.667.34.666-.34-.666M603 444l1 1-1-1m181 0 1 1-1-1m286 0 4 4-4-4z" fill="#bd5958" stroke="none"/><path d="m1071 444 1 1-1-1z" fill="#cd9090" stroke="none"/><path d="m1176.33 444.667.34.666-.34-.666z" fill="#bd5958" stroke="none"/><path d="m602 445-1 2 1-2z" fill="#cd9090" stroke="none"/><path d="M746 445v5h1l-1-5m37 0 1 1-1-1z" fill="#bd5958" stroke="none"/><path d="m1072 445 1 1-1-1z" fill="#cd9090" stroke="none"/><path d="m602 446 1 1-1-1m180 0 1 1-1-1z" fill="#bd5958" stroke="none"/><path d="m1073 446 1 1-1-1z" fill="#cd9090" stroke="none"/><path d="m1177 446 1 1-1-1m76.33.667.34.666-.34-.666M601 447l1 1-1-1m180 0 1 1-1-1m397 0v3h1l-1-3m-578 1 1 1-1-1m180 0 1 1-1-1m294 0 1 1-1-1z" fill="#bd5958" stroke="none"/><path d="m599 449-1 2 1-2z" fill="#cd9090" stroke="none"/><path d="m779 449 1 1-1-1m296 0 1 1-1-1m179 0v3h1l-1-3m-655 1 1 1-1-1m179 0 1 1-1-1m298 0 1 1-1-1m103 0 1 1-1-1m-581 1 1 1-1-1m179 0 1 1-1-1m300 0 1 1-1-1z" fill="#bd5958" stroke="none"/><path d="m597 452-1 2 1-2z" fill="#cd9090" stroke="none"/><path d="m776 452 1 1-1-1z" fill="#bd5958" stroke="none"/><path d="m1078 452 1 1-1-1z" fill="#cd9090" stroke="none"/><path d="m1180 452 1 1-1-1m75.33.667.34.666-.34-.666M597 453l1 1-1-1m178 0 1 1-1-1z" fill="#bd5958" stroke="none"/><path d="m1079 453 1 1-1-1z" fill="#cd9090" stroke="none"/><path d="m596 454 1 1-1-1z" fill="#bd5958" stroke="none"/><path d="M747 454v3h1l-1-3m27 0 1 1-1-1m306 0 3 3-3-3z" fill="#cd9090" stroke="none"/><path d="m1181.33 454.667.34.666-.34-.666M333 455l-1 5h1v-5z" fill="#bd5958" stroke="none"/><path d="m595 455 1 1-1-1m178 0 1 1-1-1z" fill="#cd9090" stroke="none"/><path d="m1080 455 1 1-1-1m176 0v4h1l-1-4m67 0 10 52h1c-.3-14.634-3.32-39.42-11-52z" fill="#bd5958" stroke="none"/><path d="m594 456 1 1-1-1m178 0-1 2 1-2z" fill="#cd9090" stroke="none"/><path d="m1081 456 1 1-1-1m101.33.667.34.666-.34-.666M594 457l1 1-1-1m153 0 1 1-1-1m25 0 1 1-1-1m310 0 1 1-1-1m-489 1 1 1-1-1m155 0v1h24l-24-1m335 0 1 1-1-1m100.33.667.34.666-.34-.666z" fill="#bd5958" stroke="none"/><path d="m592 459 1 1-1-1z" fill="#cd9090" stroke="none"/><path d="m1084 459 1 1-1-1m173 0v3h1l-1-3m-665 1 1 1-1-1z" fill="#bd5958" stroke="none"/><path d="m1085 460 1 1-1-1z" fill="#cd9090" stroke="none"/><path d="m1184.33 460.667.34.666-.34-.666M332 461c-5.141 13.626-8.699 31.433-9 46h1l5.789-30L332 461m259 0 1 1-1-1z" fill="#bd5958" stroke="none"/><path d="m1086 461 1 1-1-1m-496 1 1 1-1-1z" fill="#cd9090" stroke="none"/><path d="m1086 462 1 1-1-1m99 0v3h1l-1-3m73 0v4h1l-1-4m-668 1 1 1-1-1m497 0 1 1-1-1z" fill="#bd5958" stroke="none"/><path d="m589 464 1 1-1-1m499 0 1 1-1-1m-500 1 1 1-1-1m501 0 2 2-2-2z" fill="#cd9090" stroke="none"/><path d="m588 466 1 1-1-1m501 0 1 1-1-1m97.33.667.34.666-.34-.666z" fill="#bd5958" stroke="none"/><path d="m587 467 1 1-1-1z" fill="#cd9090" stroke="none"/><path d="m1090 467 1 1-1-1m169 0v3h1l-1-3m-672 1 1 1-1-1z" fill="#bd5958" stroke="none"/><path d="m1091 468 1 1-1-1z" fill="#cd9090" stroke="none"/><path d="m1187.33 468.667.34.666-.34-.666z" fill="#bd5958" stroke="none"/><path d="m586 469-1 2 1-2m506 0 1 1-1-1z" fill="#cd9090" stroke="none"/><path d="m586 470 1 1-1-1m506 0 1 1-1-1m-507 1 1 1-1-1z" fill="#bd5958" stroke="none"/><path d="m1093 471 1 1-1-1z" fill="#cd9090" stroke="none"/><path d="m1188.33 471.667.34.666-.34-.666M1260 471v3h1l-1-3z" fill="#bd5958" stroke="none"/><path d="m584 472 1 1-1-1m510 0 1 1-1-1z" fill="#cd9090" stroke="none"/><path d="m584 473 1 1-1-1m510 0 1 1-1-1m95 0v3h1l-1-3z" fill="#bd5958" stroke="none"/><path d="m583 474 1 1-1-1m512 0 1 1-1-1z" fill="#cd9090" stroke="none"/><path d="m583 475 1 1-1-1z" fill="#bd5958" stroke="none"/><path d="m1096 475 1 1-1-1z" fill="#cd9090" stroke="none"/><path d="m582 476-1 3 1-3m514 0 1 1-1-1m94.33.667.34.666-.34-.666z" fill="#bd5958" stroke="none"/><path d="m581 477 1 1-1-1m516 0 1 1-1-1z" fill="#cd9090" stroke="none"/><path d="M1261 477v5h1l-1-5z" fill="#bd5958" stroke="none"/><path d="m1098 478 1 1-1-1m-518 1 1 1-1-1z" fill="#cd9090" stroke="none"/><path d="m1098 479 1 1-1-1m93 0 1 1-1-1m-611 1 1 1-1-1z" fill="#bd5958" stroke="none"/><path d="m1099 480 1 1-1-1z" fill="#cd9090" stroke="none"/><path d="m1192.33 480.667.34.666-.34-.666z" fill="#bd5958" stroke="none"/><path d="m579 481 1 1-1-1z" fill="#cd9090" stroke="none"/><path d="m1099 481 1 1-1-1m-520 1 1 1-1-1z" fill="#bd5958" stroke="none"/><path d="m1100 482 1 1-1-1m-522 1 1 1-1-1z" fill="#cd9090" stroke="none"/><path d="m1100 483 1 1-1-1m93.33.667.34.666-.34-.666M1262 483l1 1-1-1m-684 1 1 1-1-1z" fill="#bd5958" stroke="none"/><path d="m1101 484 1 1-1-1m-524 1 1 1-1-1z" fill="#cd9090" stroke="none"/><path d="m1101 485 1 1-1-1m93 0v3h1l-1-3m-617 1 1 1-1-1z" fill="#bd5958" stroke="none"/><path d="m1102 486 1 1-1-1m-526 1 1 1-1-1z" fill="#cd9090" stroke="none"/><path d="m1102 487 1 1-1-1m-526 1 1 1-1-1z" fill="#bd5958" stroke="none"/><path d="m1103 488 1 1-1-1z" fill="#cd9090" stroke="none"/><path d="m1195.33 488.667.34.666-.34-.666z" fill="#bd5958" stroke="none"/><path d="m286 489 1 1-1-1z" fill="#910909" stroke="none"/><path d="m575 489 1 1-1-1z" fill="#cd9090" stroke="none"/><path d="m1103 489 1 1-1-1m158 0v9h1l-1-9z" fill="#bd5958" stroke="none"/><path d="m1370 489 1 1-1-1z" fill="#910909" stroke="none"/><path d="m575 490 1 1-1-1z" fill="#bd5958" stroke="none"/><path d="m1104 490 1 1-1-1m-530 1 1 1-1-1z" fill="#cd9090" stroke="none"/><path d="m1104 491 1 1-1-1m92 0 1 1-1-1m-622 1 1 1-1-1z" fill="#bd5958" stroke="none"/><path d="m1105 492 1 1-1-1m-532 1 1 1-1-1z" fill="#cd9090" stroke="none"/><path d="m1105 493 1 1-1-1m-532 1 1 1-1-1z" fill="#bd5958" stroke="none"/><path d="m1106 494 1 1-1-1z" fill="#cd9090" stroke="none"/><path d="m1197 494 1 1-1-1z" fill="#bd5958" stroke="none"/><path d="m572 495-1 4h1v-4z" fill="#cd9090" stroke="none"/><path d="m1106 495 1 4h1l-2-4z" fill="#bd5958" stroke="none"/><path d="m1107 496 1 1-1-1z" fill="#cd9090" stroke="none"/><path d="m1198 496 1 1-1-1m-626 1 1 1-1-1m627 0v3h1l-1-3m61 1v3h1l-1-3m-689 1 1 1-1-1z" fill="#bd5958" stroke="none"/><path d="m1108 499 1 1-1-1m-538 1 1 1-1-1z" fill="#cd9090" stroke="none"/><path d="m1108 500 1 1-1-1m92.33.667.34.666-.34-.666m-629.997 1 .334.666-.334-.666z" fill="#bd5958" stroke="none"/><path d="m1109 501 1 1-1-1z" fill="#cd9090" stroke="none"/><path d="M1259 501v4h1l-1-4z" fill="#bd5958" stroke="none"/><path d="m569.333 502.667.334.666-.334-.666z" fill="#cd9090" stroke="none"/><path d="m1109.33 502.667.34.666-.34-.666M1201 503l1 1-1-1m-632 1 1 1-1-1m541.33.667.34.666-.34-.666m92 0 .34.666-.34-.666z" fill="#bd5958" stroke="none"/><path d="m568 505 1 1-1-1z" fill="#cd9090" stroke="none"/><path d="m1258.33 505.667.34.666-.34-.666M568 506l1 1-1-1z" fill="#bd5958" stroke="none"/><path d="m1111 506 1 1-1-1z" fill="#cd9090" stroke="none"/><path d="m1203.33 506.667.34.666-.34-.666z" fill="#bd5958" stroke="none"/><path d="m567.333 507.667.334.666-.334-.666z" fill="#cd9090" stroke="none"/><path d="m1111 507 1 1-1-1m93 1 1 1-1-1m53 0 1 1-1-1m-935 1v5h1l-1-5m245 0 1 1-1-1z" fill="#bd5958" stroke="none"/><path d="m1112 509 1 1-1-1z" fill="#cd9090" stroke="none"/><path d="m1205.33 509.667.34.666-.34-.666M1334 509v5h1l-1-5z" fill="#bd5958" stroke="none"/><path d="m566 510 1 1-1-1z" fill="#cd9090" stroke="none"/><path d="m1112 510 1 1-1-1m144 0 1 1-1-1m-689.667 1.667.334.666-.334-.666z" fill="#bd5958" stroke="none"/><path d="m1113 511 1 1-1-1z" fill="#cd9090" stroke="none"/><path d="m1206 511 1 1-1-1z" fill="#bd5958" stroke="none"/><path d="m565.333 512.667.334.666-.334-.666z" fill="#cd9090" stroke="none"/><path d="m1113.33 512.667.34.666-.34-.666m142 0 .34.666-.34-.666M1207 513l1 1-1-1m-642 1 1 1-1-1z" fill="#bd5958" stroke="none"/><path d="m1114 514 1 1-1-1z" fill="#cd9090" stroke="none"/><path d="m1208 514 1 1-1-1m46 0 1 1-1-1z" fill="#bd5958" stroke="none"/><path d="m564.333 515.667.334.666-.334-.666z" fill="#cd9090" stroke="none"/><path d="m1114 515 1 1-1-1m95 0 1 1-1-1m44 0 1 1-1-1m-43 1 1 1-1-1m42 0 1 1-1-1m-931 1-1 27h1v-27m243 0 1 1-1-1z" fill="#bd5958" stroke="none"/><path d="m1115 517 1 1-1-1z" fill="#cd9090" stroke="none"/><path d="m1335 517 1 27h1l-2-27z" fill="#bd5958" stroke="none"/><path d="m563.333 518.667.334.666-.334-.666z" fill="#cd9090" stroke="none"/><path d="m1115.33 518.667.34.666-.34-.666M1211 518l1 1-1-1m40 0 1 1-1-1m-38 1 1 1-1-1m37 0 1 1-1-1m-687 1 1 1-1-1z" fill="#bd5958" stroke="none"/><path d="m1116 520 1 1-1-1z" fill="#cd9090" stroke="none"/><path d="m1214 520 1 1-1-1m35 0 1 1-1-1z" fill="#bd5958" stroke="none"/><path d="m562.333 521.667.334.666-.334-.666z" fill="#cd9090" stroke="none"/><path d="m1116.33 521.667.34.666-.34-.666M1215 521l1 1-1-1m33 0 1 1-1-1m-32 1 1 1-1-1m30 0 1 1-1-1m-683.667 1.667.334.666-.334-.666z" fill="#bd5958" stroke="none"/><path d="m1117 523 1 1-1-1z" fill="#cd9090" stroke="none"/><path d="m1218 523 1 1-1-1m26.67.333.66.334-.66-.334z" fill="#bd5958" stroke="none"/><path d="m561.333 524.667.334.666-.334-.666z" fill="#cd9090" stroke="none"/><path d="m1117.33 524.667.34.666-.34-.666m102.34-.334.66.334-.66-.334m23 0 .66.334-.66-.334M1222 525v1h3l-3-1m18.67.333.66.334-.66-.334m-679.337 1.334.334.666-.334-.666z" fill="#bd5958" stroke="none"/><path d="m1118.33 526.667.34.666-.34-.666z" fill="#cd9090" stroke="none"/><path d="m1226.67 526.333.66.334-.66-.334M1236 526v1h3l-3-1z" fill="#bd5958" stroke="none"/><path d="M560 527v3h1l-1-3z" fill="#cd9090" stroke="none"/><path d="m1118 528 1 1-1-1m-558 2 1 1-1-1z" fill="#bd5958" stroke="none"/><path d="m1119 530 1 1-1-1m-559.667 1.667.334.666-.334-.666z" fill="#cd9090" stroke="none"/><path d="m1119.33 531.667.34.666-.34-.666m-559.997 2 .334.666-.334-.666z" fill="#bd5958" stroke="none"/><path d="m1120.33 533.667.34.666-.34-.666m-561.997 2 .334.666-.334-.666z" fill="#cd9090" stroke="none"/><path d="m1120.33 535.667.34.666-.34-.666z" fill="#bd5958" stroke="none"/><path d="M1121 536v3h1l-1-3z" fill="#cd9090" stroke="none"/><path d="m558.333 537.667.334.666-.334-.666z" fill="#bd5958" stroke="none"/><path d="m557.333 539.667.334.666-.334-.666z" fill="#cd9090" stroke="none"/><path d="m1121.33 539.667.34.666-.34-.666z" fill="#bd5958" stroke="none"/><path d="M1122 540v3h1l-1-3z" fill="#cd9090" stroke="none"/><path d="m557.333 541.667.334.666-.334-.666z" fill="#bd5958" stroke="none"/><path d="m556.333 543.667.334.666-.334-.666z" fill="#cd9090" stroke="none"/><path d="m1122.33 543.667.34.666-.34-.666M556 545v3h1l-1-3z" fill="#bd5958" stroke="none"/><path d="M1123 545v3h1l-1-3m-567.667 3.667.334.666-.334-.666z" fill="#cd9090" stroke="none"/><path d="m1123.33 548.667.34.666-.34-.666z" fill="#bd5958" stroke="none"/><path d="M1124 549v4h1l-1-4z" fill="#cd9090" stroke="none"/><path d="M555 550v4h1l-1-4z" fill="#bd5958" stroke="none"/><path d="M554 553v3h1l-1-3z" fill="#cd9090" stroke="none"/><path d="M1124 553v3h1l-1-3m-843 1 1 1-1-1m1094 0 1 1-1-1m-1093 1 1 1-1-1z" fill="#bd5958" stroke="none"/><path d="M1125 555v4h1l-1-4z" fill="#cd9090" stroke="none"/><path d="m1374 555 1 1-1-1m-1093 1v5h1l-1-5m273 0v4h1l-1-4m821 0v5h1l-1-5z" fill="#bd5958" stroke="none"/><path d="M553 559v3h1l-1-3z" fill="#cd9090" stroke="none"/><path d="M1125 559v4h1l-1-4m-843 2 1 1-1-1z" fill="#bd5958" stroke="none"/><path d="M1126 561v5h1l-1-5z" fill="#cd9090" stroke="none"/><path d="m1374 561 1 1-1-1m-1092.667 1.667.334.666-.334-.666M553 562v5h1l-1-5m822.33.667.34.666-.34-.666M282 564l1 1-1-1m1092 0 1 1-1-1m-1093 1 1 1-1-1m1094 0 1 1-1-1m-1093 1 1 1-1-1z" fill="#bd5958" stroke="none"/><path d="M552 566v4h1l-1-4z" fill="#cd9090" stroke="none"/><path d="M1126 566v5h1l-1-5m248 0 1 1-1-1m-1092.667 1.667.334.666-.334-.666m1093.997 0 .34.666-.34-.666M282 569l1 1-1-1z" fill="#bd5958" stroke="none"/><path d="M1127 569v7h1l-1-7z" fill="#cd9090" stroke="none"/><path d="m1374 569 1 1-1-1m-1093 1v5h1l-1-5m271 0v7h1l-1-7m823 0v5h1l-1-5m-1093 5 1 1-1-1m1092 0 1 1-1-1m-1093 1 1 1-1-1z" fill="#bd5958" stroke="none"/><path d="M551 576v6h1l-1-6z" fill="#cd9090" stroke="none"/><path d="M1127 576v7h1l-1-7m248 0 1 1-1-1m-38.67 1.667.34.666-.34-.666M1374 577c0 113.224-51.18 228.017-128.16 309.911-36.92 39.278-78.6 70.258-123.84 99.089v1c9.41-2.927 17.74-9.707 26-14.947a438.817 438.817 0 0 0 59-44.883c70.87-64.094 119.8-138.672 149.75-229.17 9.24-27.921 14.59-57.753 17.42-87 .93-9.613 3.62-24.962-.17-34m-1092 1c0 128.888 62.915 254.591 158 340.169 21.425 19.282 43.499 37.886 68 53.255 8.605 5.398 17.221 12.535 27 15.576v-1c-101.67-64.796-187.417-152.819-226.961-269.015-10.534-30.954-18.141-63.598-22.614-95.985-1.765-12.777 1.458-31.364-3.425-43z" fill="#bd5958" stroke="none"/><path d="M1128 581v30h1l-1-30z" fill="#cd9090" stroke="none"/><path d="M551 582v28h1l-1-28m-231 7v15h1l-1-15m1016 3v12h1l-1-12M321 606v8h1l-1-8m1014 0v7h1l-1-7m-208 3v7h1l-1-7z" fill="#bd5958" stroke="none"/><path d="M551 610v6h1l-1-6z" fill="#cd9090" stroke="none"/><path d="M552 615v7h1l-1-7z" fill="#bd5958" stroke="none"/><path d="M1127 616v7h1l-1-7z" fill="#cd9090" stroke="none"/><path d="M322 617v4h1l-1-4m1012 0v3h1l-1-3m-208 4v5h1l-1-5z" fill="#bd5958" stroke="none"/><path d="M552 622v4h1l-1-4z" fill="#cd9090" stroke="none"/><path d="M323 624c.301 14.567 3.859 32.374 9 46h1c-3.266-12.624-2.188-35.846-10-46m1010 0-8 45h1c1.63-12.141 11.73-33.406 7-45m-780 1v5h1l-1-5z" fill="#bd5958" stroke="none"/><path d="M1126 626v5h1l-1-5z" fill="#cd9090" stroke="none"/><path d="M1125 629v4h1l-1-4z" fill="#bd5958" stroke="none"/><path d="M553 630v3h1l-1-3z" fill="#cd9090" stroke="none"/><path d="M554 632v4h1l-1-4z" fill="#bd5958" stroke="none"/><path d="M1125 633v4h1l-1-4m-571 3v3h1l-1-3z" fill="#cd9090" stroke="none"/><path d="M1124 636v3h1l-1-3m-569 2v4h1l-1-4z" fill="#bd5958" stroke="none"/><path d="M1124 639v3h1l-1-3z" fill="#cd9090" stroke="none"/><path d="m286 641 1 1-1-1z" fill="#910909" stroke="none"/><path d="M1123 641v3h1l-1-3z" fill="#bd5958" stroke="none"/><path d="m1370 641 1 1-1-1z" fill="#910909" stroke="none"/><path d="m555.333 642.667.334.666-.334-.666z" fill="#cd9090" stroke="none"/><path d="M556 644v3h1l-1-3z" fill="#bd5958" stroke="none"/><path d="M1123 644v3h1l-1-3m-566.667 3.667.334.666-.334-.666z" fill="#cd9090" stroke="none"/><path d="m1122.33 647.667.34.666-.34-.666M557 648v3h1l-1-3z" fill="#bd5958" stroke="none"/><path d="M1122 649v3h1l-1-3m-564.667 2.667.334.666-.334-.666z" fill="#cd9090" stroke="none"/><path d="m1121.33 651.667.34.666-.34-.666m-562.997 2 .334.666-.334-.666z" fill="#bd5958" stroke="none"/><path d="M1121 653v3h1l-1-3m-562.667 2.667.334.666-.334-.666z" fill="#cd9090" stroke="none"/><path d="m1120 656 1 1-1-1m-560.667 1.667.334.666-.334-.666z" fill="#bd5958" stroke="none"/><path d="m1120.33 657.667.34.666-.34-.666m-560.997 2 .334.666-.334-.666z" fill="#cd9090" stroke="none"/><path d="m1119.33 659.667.34.666-.34-.666M560 661l1 1-1-1z" fill="#bd5958" stroke="none"/><path d="m1119 661 1 1-1-1m-559 1v3h1l-1-3z" fill="#cd9090" stroke="none"/><path d="m1118 663 1 1-1-1m-556.667 1.667.334.666-.334-.666z" fill="#bd5958" stroke="none"/><path d="m1118.33 664.667.34.666-.34-.666m-556.997 2 .334.666-.334-.666z" fill="#cd9090" stroke="none"/><path d="m1117.33 666.667.34.666-.34-.666m-554.997 1 .334.666-.334-.666z" fill="#bd5958" stroke="none"/><path d="m1117 668 1 1-1-1m-554.667 1.667.334.666-.334-.666z" fill="#cd9090" stroke="none"/><path d="m1116 670 1 1-1-1m208 0v3h1l-1-3m-991.667 1.667.334.666-.334-.666M563 671l1 1-1-1z" fill="#bd5958" stroke="none"/><path d="m1116 671 1 1-1-1m-552.667 1.667.334.666-.334-.666z" fill="#cd9090" stroke="none"/><path d="m1115.33 672.667.34.666-.34-.666m-781.997 2 .334.666-.334-.666M564 674l1 1-1-1z" fill="#bd5958" stroke="none"/><path d="m1115 674 1 1-1-1z" fill="#cd9090" stroke="none"/><path d="m1323.33 674.667.34.666-.34-.666z" fill="#bd5958" stroke="none"/><path d="m564.333 675.667.334.666-.334-.666z" fill="#cd9090" stroke="none"/><path d="m1114.33 675.667.34.666-.34-.666M565 677l1 1-1-1z" fill="#bd5958" stroke="none"/><path d="m1114 677 1 1-1-1z" fill="#cd9090" stroke="none"/><path d="m334 678 9 30h1c-1.794-8.667-4.182-23.34-10-30z" fill="#bd5958" stroke="none"/><path d="m565.333 678.667.334.666-.334-.666z" fill="#cd9090" stroke="none"/><path d="m1113.33 678.667.34.666-.34-.666M1322 678l-14 43h1l10.59-30 2.41-13m-755.667 1.667.334.666-.334-.666z" fill="#bd5958" stroke="none"/><path d="m1113 680 1 1-1-1m-547 1 1 1-1-1z" fill="#cd9090" stroke="none"/><path d="m1112 681 1 1-1-1m-545 1 1 1-1-1z" fill="#bd5958" stroke="none"/><path d="m1112 682 1 1-1-1m-544.667 1.667.334.666-.334-.666z" fill="#cd9090" stroke="none"/><path d="m1111 684 1 1-1-1m-543 1 1 1-1-1z" fill="#bd5958" stroke="none"/><path d="m1111 685 1 1-1-1m-542.667 1.667.334.666-.334-.666z" fill="#cd9090" stroke="none"/><path d="m1110.33 686.667.34.666-.34-.666m-540.997 1 .334.666-.334-.666z" fill="#bd5958" stroke="none"/><path d="m569 689 1 1-1-1z" fill="#cd9090" stroke="none"/><path d="m1109 689 1 1-1-1m-539 1 1 1-1-1z" fill="#bd5958" stroke="none"/><path d="m1109 690 1 1-1-1m-539 1 1 1-1-1z" fill="#cd9090" stroke="none"/><path d="m1108 691 1 1-1-1m-537 1 1 1-1-1z" fill="#bd5958" stroke="none"/><path d="m1108 692 1 1-1-1z" fill="#cd9090" stroke="none"/><path d="m298 693 1 1-1-1z" fill="#910909" stroke="none"/><path d="m571.333 693.667.334.666-.334-.666z" fill="#cd9090" stroke="none"/><path d="m1107 693-1 4h1v-4z" fill="#bd5958" stroke="none"/><path d="m1358 693 1 1-1-1z" fill="#910909" stroke="none"/><path d="m572.333 694.667.334.666-.334-.666z" fill="#bd5958" stroke="none"/><path d="m1107 695 1 1-1-1m-535 1 1 1-1-1z" fill="#cd9090" stroke="none"/><path d="m573 697 1 1-1-1z" fill="#bd5958" stroke="none"/><path d="m1106 697 1 1-1-1m-533 1 1 1-1-1z" fill="#cd9090" stroke="none"/><path d="m1105 698 1 1-1-1m-531 1 1 1-1-1z" fill="#bd5958" stroke="none"/><path d="m1105 699 1 1-1-1m-531 1 1 1-1-1z" fill="#cd9090" stroke="none"/><path d="m1104 700 1 1-1-1m-529 1 1 1-1-1z" fill="#bd5958" stroke="none"/><path d="m1104 701 1 1-1-1m-529 1 1 1-1-1z" fill="#cd9090" stroke="none"/><path d="m1103 702 1 1-1-1m-527 1 1 1-1-1z" fill="#bd5958" stroke="none"/><path d="m1103 703 1 1-1-1m-527 1 1 1-1-1z" fill="#cd9090" stroke="none"/><path d="m1102 704 1 1-1-1m-525 1 1 1-1-1z" fill="#bd5958" stroke="none"/><path d="m1102 705 1 1-1-1m-525 1 1 1-1-1z" fill="#cd9090" stroke="none"/><path d="m1101 706 1 1-1-1m-523 1 1 1-1-1z" fill="#bd5958" stroke="none"/><path d="m1101 707 1 1-1-1m-523 1 1 1-1-1z" fill="#cd9090" stroke="none"/><path d="m1100 708 1 1-1-1m-756 1 1 1-1-1m235 0 1 1-1-1z" fill="#bd5958" stroke="none"/><path d="m1100 709 1 1-1-1m-521 1 1 1-1-1z" fill="#cd9090" stroke="none"/><path d="m1099 710 1 1-1-1m-754 1 3 10h1l-4-10m235 0 1 1-1-1z" fill="#bd5958" stroke="none"/><path d="m1099 711 1 1-1-1m-519 1 1 1-1-1z" fill="#cd9090" stroke="none"/><path d="m1098 712 1 1-1-1m-517 1 1 1-1-1z" fill="#bd5958" stroke="none"/><path d="m1098 713 1 1-1-1m-517 1 1 1-1-1z" fill="#cd9090" stroke="none"/><path d="m1097 714 1 1-1-1m-515 1 1 1-1-1z" fill="#bd5958" stroke="none"/><path d="m1097 715 1 1-1-1z" fill="#cd9090" stroke="none"/><path d="m583 716 1 1-1-1m513 0 1 1-1-1z" fill="#bd5958" stroke="none"/><path d="m583 717 1 1-1-1z" fill="#cd9090" stroke="none"/><path d="m1095 717 1 1-1-1m-511 1 1 1-1-1z" fill="#bd5958" stroke="none"/><path d="m1095 718 1 1-1-1m-511 1 1 1-1-1z" fill="#cd9090" stroke="none"/><path d="m1094 719 1 1-1-1m-509 1 2 2-2-2z" fill="#bd5958" stroke="none"/><path d="m1094 720 1 1-1-1m-509 1 1 1-1-1z" fill="#cd9090" stroke="none"/><path d="m1093 721-1 2 1-2m-744 1 2 7h1l-3-7z" fill="#bd5958" stroke="none"/><path d="m586 722 1 1-1-1m507 0 1 1-1-1z" fill="#cd9090" stroke="none"/><path d="m1307 722-5 14h1l4-14m-720 1 1 1-1-1z" fill="#bd5958" stroke="none"/><path d="m1092 723 1 1-1-1m-505 1 1 1-1-1z" fill="#cd9090" stroke="none"/><path d="m1091 724 1 1-1-1m-503 1 1 1-1-1z" fill="#bd5958" stroke="none"/><path d="m1091 725 1 1-1-1m-503 1 1 1-1-1z" fill="#cd9090" stroke="none"/><path d="m1090 726-1 2 1-2z" fill="#bd5958" stroke="none"/><path d="m589 727 1 1-1-1m501 0 1 1-1-1z" fill="#cd9090" stroke="none"/><path d="m590 728 1 1-1-1z" fill="#bd5958" stroke="none"/><path d="m1089 728 1 1-1-1m-499 1 1 1-1-1z" fill="#cd9090" stroke="none"/><path d="m1088 729 1 1-1-1m-736 1 1 4h1l-2-4m239 0 1 1-1-1z" fill="#bd5958" stroke="none"/><path d="m1088 730 1 1-1-1z" fill="#cd9090" stroke="none"/><path d="m592 731 1 1-1-1z" fill="#bd5958" stroke="none"/><path d="m1087 731 1 1-1-1m-495 1 1 1-1-1z" fill="#cd9090" stroke="none"/><path d="m1086 732 1 1-1-1m-493 1 1 1-1-1z" fill="#bd5958" stroke="none"/><path d="m1086 733 1 1-1-1z" fill="#cd9090" stroke="none"/><path d="m594 734 1 1-1-1z" fill="#bd5958" stroke="none"/><path d="m1085 734 1 1-1-1z" fill="#cd9090" stroke="none"/><path d="m354 735 1 1-1-1z" fill="#bd5958" stroke="none"/><path d="m594 735 1 1-1-1z" fill="#cd9090" stroke="none"/><path d="m1084 735-1 2 1-2z" fill="#bd5958" stroke="none"/><path d="m595 736 1 1-1-1m489 0 1 1-1-1z" fill="#cd9090" stroke="none"/><path d="m355 737 1 1-1-1m241 0 1 1-1-1z" fill="#bd5958" stroke="none"/><path d="m1083 737 1 1-1-1z" fill="#cd9090" stroke="none"/><path d="m1301 737-5 12h1l4-12z" fill="#bd5958" stroke="none"/><path d="m596 738 1 1-1-1z" fill="#cd9090" stroke="none"/><path d="m1082 738 1 1-1-1m-726 1 3 8h1l-4-8z" fill="#bd5958" stroke="none"/><path d="m597 739 1 1-1-1z" fill="#cd9090" stroke="none"/><path d="m1081 739 1 1-1-1m-483 1 1 1-1-1z" fill="#bd5958" stroke="none"/><path d="m1081 740 1 1-1-1z" fill="#cd9090" stroke="none"/><path d="m599 741 1 1-1-1m481 0 1 1-1-1z" fill="#bd5958" stroke="none"/><path d="m599 742 1 1-1-1z" fill="#cd9090" stroke="none"/><path d="m1079 742-1 2 1-2m-479 1 1 1-1-1z" fill="#bd5958" stroke="none"/><path d="m1079 743 1 1-1-1z" fill="#cd9090" stroke="none"/><path d="m601 744 2 2-2-2z" fill="#bd5958" stroke="none"/><path d="m1078 744 1 1-1-1m-477 1 1 1-1-1z" fill="#cd9090" stroke="none"/><path d="m1077 745 1 1-1-1z" fill="#bd5958" stroke="none"/><path d="m602 746 1 1-1-1z" fill="#cd9090" stroke="none"/><path d="m1076 746-1 2 1-2z" fill="#bd5958" stroke="none"/><path d="m603 747 1 1-1-1m473 0 1 1-1-1z" fill="#cd9090" stroke="none"/><path d="m360 748 3 8h1l-4-8m244 0 2 2-2-2z" fill="#bd5958" stroke="none"/><path d="m1075 748 1 1-1-1m-471 1 1 1-1-1z" fill="#cd9090" stroke="none"/><path d="m1074 749 1 1-1-1z" fill="#bd5958" stroke="none"/><path d="m605 750 1 1-1-1z" fill="#cd9090" stroke="none"/><path d="m1073 750 1 1-1-1m222 0-3 7h1l2-7z" fill="#bd5958" stroke="none"/><path d="m606 751 1 1-1-1z" fill="#cd9090" stroke="none"/><path d="m1072 751-1 2 1-2m-465 1 1 1-1-1z" fill="#bd5958" stroke="none"/><path d="m1072 752 1 1-1-1z" fill="#cd9090" stroke="none"/><path d="m608 753 1 1-1-1z" fill="#bd5958" stroke="none"/><path d="m1071 753 1 1-1-1z" fill="#cd9090" stroke="none"/><path d="m609 754 2 2-2-2z" fill="#bd5958" stroke="none"/><path d="m1070 754 1 1-1-1m-461 1 1 1-1-1z" fill="#cd9090" stroke="none"/><path d="m1069 755 1 1-1-1z" fill="#bd5958" stroke="none"/><path d="m610 756 1 1-1-1z" fill="#cd9090" stroke="none"/><path d="m1068 756 1 1-1-1z" fill="#bd5958" stroke="none"/><path d="m611 757 1 1-1-1z" fill="#cd9090" stroke="none"/><path d="m1067 757 1 1-1-1m-455 1 1 1-1-1z" fill="#bd5958" stroke="none"/><path d="m1067 758 1 1-1-1z" fill="#cd9090" stroke="none"/><path d="m365 759 7 14h1l-8-14m248 0 1 1-1-1z" fill="#bd5958" stroke="none"/><path d="m1066 759 1 1-1-1z" fill="#cd9090" stroke="none"/><path d="m1291 759-7 14h1l6-14m-677 1 4 4-4-4z" fill="#bd5958" stroke="none"/><path d="m1065 760 1 1-1-1m-451 1 1 1-1-1z" fill="#cd9090" stroke="none"/><path d="m1064 761 1 1-1-1z" fill="#bd5958" stroke="none"/><path d="m615 762 1 1-1-1z" fill="#cd9090" stroke="none"/><path d="m1063 762 1 1-1-1z" fill="#bd5958" stroke="none"/><path d="m616 763 1 1-1-1z" fill="#cd9090" stroke="none"/><path d="m1062 763 1 1-1-1z" fill="#bd5958" stroke="none"/><path d="m617 764 1 1-1-1z" fill="#cd9090" stroke="none"/><path d="m1061 764-4 5 4-5z" fill="#bd5958" stroke="none"/><path d="m618 765 1 1-1-1m443 0 1 1-1-1m-442 1 1 1-1-1m441 0 1 1-1-1z" fill="#cd9090" stroke="none"/><path d="m620 767 1 1-1-1z" fill="#bd5958" stroke="none"/><path d="m1059 767 1 1-1-1z" fill="#cd9090" stroke="none"/><path d="m621 768 1 1-1-1z" fill="#bd5958" stroke="none"/><path d="m1058 768 1 1-1-1z" fill="#cd9090" stroke="none"/><path d="m622 769 1 1-1-1z" fill="#bd5958" stroke="none"/><path d="m1057 769 1 1-1-1z" fill="#cd9090" stroke="none"/><path d="m623 770 1 1-1-1z" fill="#bd5958" stroke="none"/><path d="m1056 770 1 1-1-1z" fill="#cd9090" stroke="none"/><path d="m624 771 1 1-1-1z" fill="#bd5958" stroke="none"/><path d="m1055 771 1 1-1-1z" fill="#cd9090" stroke="none"/><path d="m625 772 1 1-1-1z" fill="#bd5958" stroke="none"/><path d="m1054 772 1 1-1-1z" fill="#cd9090" stroke="none"/><path d="m626 773 1 1-1-1z" fill="#bd5958" stroke="none"/><path d="m1053 773 1 1-1-1z" fill="#cd9090" stroke="none"/><path d="m373 774 1 1-1-1m254 0 1 1-1-1z" fill="#bd5958" stroke="none"/><path d="m1052 774 1 1-1-1z" fill="#cd9090" stroke="none"/><path d="m1283 774 1 1-1-1m-655 1 1 1-1-1z" fill="#bd5958" stroke="none"/><path d="m1051 775 1 1-1-1z" fill="#cd9090" stroke="none"/><path d="m374 776 9 16h1l-10-16m255 0 1 1-1-1z" fill="#bd5958" stroke="none"/><path d="m1050 776 1 1-1-1z" fill="#cd9090" stroke="none"/><path d="m1282 776-2 4h1l1-4m-652 1 1 1-1-1z" fill="#bd5958" stroke="none"/><path d="m1049 777 1 1-1-1z" fill="#cd9090" stroke="none"/><path d="m631 778 1 1-1-1z" fill="#bd5958" stroke="none"/><path d="m1048 778 1 1-1-1z" fill="#cd9090" stroke="none"/><path d="m632 779 1 1-1-1m414 0-2 3 2-3z" fill="#bd5958" stroke="none"/><path d="m1047 779 1 1-1-1m-414 1 1 1-1-1m413 0 1 1-1-1m-412 1 1 1-1-1m411 0 1 1-1-1z" fill="#cd9090" stroke="none"/><path d="m1278 781-5 11h1l6-11h-2z" fill="#bd5958" stroke="none"/><path d="m635 782 1 1-1-1z" fill="#cd9090" stroke="none"/><path d="m1043 782 1 1-1-1z" fill="#bd5958" stroke="none"/><path d="m636 783 1 1-1-1z" fill="#cd9090" stroke="none"/><path d="m1042 783 1 1-1-1z" fill="#bd5958" stroke="none"/><path d="m637 784 1 1-1-1z" fill="#cd9090" stroke="none"/><path d="m638 784 1 1-1-1m403 0 1 1-1-1m-402 1 1 1-1-1m401 0 1 1-1-1m-400 1 1 1-1-1z" fill="#bd5958" stroke="none"/><path d="m1039 786 1 1-1-1z" fill="#cd9090" stroke="none"/><path d="m641 787 1 1-1-1z" fill="#bd5958" stroke="none"/><path d="m1038 787 1 1-1-1m-396 1 1 1-1-1z" fill="#cd9090" stroke="none"/><path d="m1036 788 1 1-1-1z" fill="#bd5958" stroke="none"/><path d="m1037 788 1 1-1-1m-394 1 2 2-2-2z" fill="#cd9090" stroke="none"/><path d="m644 789 1 1-1-1m391 0 1 1-1-1m-390 1 1 1-1-1m389 0 1 1-1-1m-388 1 1 1-1-1z" fill="#bd5958" stroke="none"/><path d="m1033 791 1 1-1-1z" fill="#cd9090" stroke="none"/><path d="m647 792 1 1-1-1z" fill="#bd5958" stroke="none"/><path d="m1032 792 1 1-1-1z" fill="#cd9090" stroke="none"/><path d="m384 793 2 4h1l-3-4z" fill="#bd5958" stroke="none"/><path d="m648 793 1 1-1-1z" fill="#cd9090" stroke="none"/><path d="m1030 793 1 1-1-1z" fill="#bd5958" stroke="none"/><path d="m1031 793 1 1-1-1z" fill="#cd9090" stroke="none"/><path d="m1272 793-2 4h1l1-4z" fill="#bd5958" stroke="none"/><path d="m649 794 2 2-2-2z" fill="#cd9090" stroke="none"/><path d="m650 794 1 1-1-1m379 0 1 1-1-1m-378 1 1 1-1-1m377 0 1 1-1-1m-376 1 1 1-1-1z" fill="#bd5958" stroke="none"/><path d="m1027 796 1 1-1-1m-374 1 2 2-2-2z" fill="#cd9090" stroke="none"/><path d="m654 797 1 1-1-1m371 0 1 1-1-1z" fill="#bd5958" stroke="none"/><path d="m1026 797 1 1-1-1z" fill="#cd9090" stroke="none"/><path d="m387 798 11 15-11-15m268 0 1 1-1-1m369 0 1 1-1-1m244 0-18 28h1l19-28h-2m-612 1 1 1-1-1z" fill="#bd5958" stroke="none"/><path d="m1023 799 1 1-1-1m-366 1 2 2-2-2z" fill="#cd9090" stroke="none"/><path d="m658 800 1 1-1-1m363 0 1 1-1-1z" fill="#bd5958" stroke="none"/><path d="m1022 800 1 1-1-1z" fill="#cd9090" stroke="none"/><path d="m659 801 1 1-1-1m361 0 1 1-1-1z" fill="#bd5958" stroke="none"/><path d="m660 802 1 1-1-1m359 0 1 1-1-1m-358 1 2 2-2-2z" fill="#cd9090" stroke="none"/><path d="m662 803 1 1-1-1m355 0 1 1-1-1z" fill="#bd5958" stroke="none"/><path d="m1018 803 1 1-1-1z" fill="#cd9090" stroke="none"/><path d="m663 804 1 1-1-1m353 0 1 1-1-1z" fill="#bd5958" stroke="none"/><path d="m664 805 1 1-1-1z" fill="#cd9090" stroke="none"/><path d="m1014 805-1 2 1-2z" fill="#bd5958" stroke="none"/><path d="m1015 805 1 1-1-1m-350 1 1 1-1-1z" fill="#cd9090" stroke="none"/><path d="m666 806 1 1-1-1z" fill="#bd5958" stroke="none"/><path d="m1014 806 1 1-1-1z" fill="#cd9090" stroke="none"/><path d="m667 807 1 1-1-1m344 0-1 2 1-2z" fill="#bd5958" stroke="none"/><path d="m1012 807 1 1-1-1m-344 1 1 1-1-1z" fill="#cd9090" stroke="none"/><path d="m669 808 1 1-1-1z" fill="#bd5958" stroke="none"/><path d="m1011 808 1 1-1-1m-341 1 1 1-1-1z" fill="#cd9090" stroke="none"/><path d="m1008 809-1 2 1-2z" fill="#bd5958" stroke="none"/><path d="m1009 809 1 1-1-1m-338 1 1 1-1-1z" fill="#cd9090" stroke="none"/><path d="m672 810 1 1-1-1z" fill="#bd5958" stroke="none"/><path d="m1008 810 1 1-1-1m-335 1 1 1-1-1z" fill="#cd9090" stroke="none"/><path d="m1005 811 1 1-1-1z" fill="#bd5958" stroke="none"/><path d="m1006 811 1 1-1-1m-332 1 1 1-1-1z" fill="#cd9090" stroke="none"/><path d="m675 812 1 1-1-1m329 0 1 1-1-1z" fill="#bd5958" stroke="none"/><path d="m676 813 1 1-1-1z" fill="#cd9090" stroke="none"/><path d="m1002 813 1 1-1-1z" fill="#bd5958" stroke="none"/><path d="m1003 813 1 1-1-1z" fill="#cd9090" stroke="none"/><path d="m398 814 8 12h1l-9-12m280 0 1 1-1-1z" fill="#bd5958" stroke="none"/><path d="m1001 814 1 1-1-1m-322 1 1 1-1-1z" fill="#cd9090" stroke="none"/><path d="m680 815 1 1-1-1m319 0 1 1-1-1m-318 1 1 1-1-1m316 0 1 1-1-1z" fill="#bd5958" stroke="none"/><path d="m998 816 1 1-1-1m-316 1 1 1-1-1z" fill="#cd9090" stroke="none"/><path d="m683 817 1 1-1-1z" fill="#bd5958" stroke="none"/><path d="m996 817 1 1-1-1m-312 1 1 1-1-1z" fill="#cd9090" stroke="none"/><path d="m685 818 1 1-1-1m309 0 1 1-1-1z" fill="#bd5958" stroke="none"/><path d="m995 818 1 1-1-1m-309 1 1 1-1-1z" fill="#cd9090" stroke="none"/><path d="m687 819 1 1-1-1m305 0 1 1-1-1z" fill="#bd5958" stroke="none"/><path d="m993 819 1 1-1-1m-305 1 1 1-1-1z" fill="#cd9090" stroke="none"/><path d="m990 820 1 1-1-1z" fill="#bd5958" stroke="none"/><path d="m991 820 1 1-1-1z" fill="#cd9090" stroke="none"/><path d="m690 821 1 1-1-1z" fill="#bd5958" stroke="none"/><path d="m989 821 1 1-1-1m-298 1 1 1-1-1z" fill="#cd9090" stroke="none"/><path d="m692 822 1 1-1-1z" fill="#bd5958" stroke="none"/><path d="m987 822 1 1-1-1m-294 1 1 1-1-1z" fill="#cd9090" stroke="none"/><path d="m694 823 1 1-1-1m291 0 1 1-1-1z" fill="#bd5958" stroke="none"/><path d="m986 823 1 1-1-1m-291 1 1 1-1-1z" fill="#cd9090" stroke="none"/><path d="m696 824 1 1-1-1m287 0 1 1-1-1z" fill="#bd5958" stroke="none"/><path d="m984 824 1 1-1-1m-287 1 1 1-1-1z" fill="#cd9090" stroke="none"/><path d="m698 825 1 1-1-1m283 0 1 1-1-1z" fill="#bd5958" stroke="none"/><path d="m982 825 1 1-1-1m-283 1 1 1-1-1z" fill="#cd9090" stroke="none"/><path d="m700 826 1 1-1-1m279 0 1 1-1-1z" fill="#bd5958" stroke="none"/><path d="m980 826 1 1-1-1m-279 1 1 1-1-1z" fill="#cd9090" stroke="none"/><path d="m702 827 1 1-1-1m275 0 1 1-1-1z" fill="#bd5958" stroke="none"/><path d="m978 827 1 1-1-1z" fill="#cd9090" stroke="none"/><path d="m408 828 11 14-11-14z" fill="#bd5958" stroke="none"/><path d="m703 828 1 1-1-1z" fill="#cd9090" stroke="none"/><path d="m704 828 1 1-1-1m271 0 1 1-1-1z" fill="#bd5958" stroke="none"/><path d="m976 828 1 1-1-1z" fill="#cd9090" stroke="none"/><path d="m1248 828 1 1-1-1z" fill="#bd5958" stroke="none"/><path d="m705 829 1 1-1-1z" fill="#cd9090" stroke="none"/><path d="m706 829 1 1-1-1m267 0 1 1-1-1z" fill="#bd5958" stroke="none"/><path d="m974 829 1 1-1-1m-267 1 1 1-1-1z" fill="#cd9090" stroke="none"/><path d="m708 830 1 1-1-1m263 0 1 1-1-1z" fill="#bd5958" stroke="none"/><path d="m972 830 1 1-1-1z" fill="#cd9090" stroke="none"/><path d="m1246 830-8 12 8-12z" fill="#bd5958" stroke="none"/><path d="m709 831 1 1-1-1z" fill="#cd9090" stroke="none"/><path d="m710 831 1 1-1-1m259 0 1 1-1-1z" fill="#bd5958" stroke="none"/><path d="m970 831 1 1-1-1m-259 1 1 1-1-1z" fill="#cd9090" stroke="none"/><path d="m712 832 1 1-1-1m254.667.333.666.334-.666-.334z" fill="#bd5958" stroke="none"/><path d="m713 833 1 1-1-1z" fill="#cd9090" stroke="none"/><path d="m714.667 833.333.666.334-.666-.334M964 833l1 1-1-1z" fill="#bd5958" stroke="none"/><path d="m965 833 1 1-1-1m-249.333 1.333.666.334-.666-.334z" fill="#cd9090" stroke="none"/><path d="m717 834 1 1-1-1m245 0 1 1-1-1z" fill="#bd5958" stroke="none"/><path d="m963 834 1 1-1-1m-245 1 1 1-1-1z" fill="#cd9090" stroke="none"/><path d="m719 835 1 1-1-1m240.667.333.666.334-.666-.334z" fill="#bd5958" stroke="none"/><path d="m961 835 1 1-1-1z" fill="#cd9090" stroke="none"/><path d="m367 836 1 1-1-1z" fill="#910909" stroke="none"/><path d="m720.667 836.333.666.334-.666-.334z" fill="#cd9090" stroke="none"/><path d="m722 836 1 1-1-1m235 0 1 1-1-1z" fill="#bd5958" stroke="none"/><path d="m958.667 836.333.666.334-.666-.334z" fill="#cd9090" stroke="none"/><path d="m1289 836 1 1-1-1z" fill="#910909" stroke="none"/><path d="m723 837 1 1-1-1z" fill="#cd9090" stroke="none"/><path d="m724 837 1 1-1-1m230.667.333.666.334-.666-.334z" fill="#bd5958" stroke="none"/><path d="m956 837 1 1-1-1m-231 1 1 1-1-1z" fill="#cd9090" stroke="none"/><path d="m726.667 838.333.666.334-.666-.334M952 838l1 1-1-1z" fill="#bd5958" stroke="none"/><path d="m953 838 1 1-1-1m-225 1 1 1-1-1z" fill="#cd9090" stroke="none"/><path d="m729.667 839.333.666.334-.666-.334m220 0 .666.334-.666-.334z" fill="#bd5958" stroke="none"/><path d="m951 839 1 1-1-1m-220.333 1.333.666.334-.666-.334z" fill="#cd9090" stroke="none"/><path d="m732 840 1 1-1-1m214.667.333.666.334-.666-.334z" fill="#bd5958" stroke="none"/><path d="m948 840 1 1-1-1m-214.333 1.333.666.334-.666-.334z" fill="#cd9090" stroke="none"/><path d="m735 841 1 1-1-1m209 0 1 1-1-1z" fill="#bd5958" stroke="none"/><path d="m945.667 841.333.666.334-.666-.334M736 842l1 1-1-1z" fill="#cd9090" stroke="none"/><path d="m737.667 842.333.666.334-.666-.334m204 0 .666.334-.666-.334z" fill="#bd5958" stroke="none"/><path d="m943 842 1 1-1-1z" fill="#cd9090" stroke="none"/><path d="m420 843 18 21c-3.099-6.933-11.48-17.091-18-21z" fill="#bd5958" stroke="none"/><path d="m739 843 1 1-1-1z" fill="#cd9090" stroke="none"/><path d="m740.667 843.333.666.334-.666-.334m198 0 .666.334-.666-.334z" fill="#bd5958" stroke="none"/><path d="m940 843 1 1-1-1z" fill="#cd9090" stroke="none"/><path d="m1236 843-17 21c5.43-3.903 16.57-14.092 17-21z" fill="#bd5958" stroke="none"/><path d="m742 844 1 1-1-1z" fill="#cd9090" stroke="none"/><path d="m743.667 844.333.666.334-.666-.334M935 844l1 1-1-1z" fill="#bd5958" stroke="none"/><path d="m936.667 844.333.666.334-.666-.334m-191 1 .666.334-.666-.334z" fill="#cd9090" stroke="none"/><path d="m747 845 1 1-1-1m184.667.333.666.334-.666-.334z" fill="#bd5958" stroke="none"/><path d="m933.667 845.333.666.334-.666-.334m-185 1 .666.334-.666-.334z" fill="#cd9090" stroke="none"/><path d="m750 846 1 1-1-1m178.667.333.666.334-.666-.334z" fill="#bd5958" stroke="none"/><path d="m930.667 846.333.666.334-.666-.334M751 847v1h3l-3-1z" fill="#cd9090" stroke="none"/><path d="m754 847 1 1-1-1m171 0 1 1-1-1z" fill="#bd5958" stroke="none"/><path d="m926.667 847.333.666.334-.666-.334m-171 1 .666.334-.666-.334z" fill="#cd9090" stroke="none"/><path d="m757 848 1 1-1-1m164.667.333.666.334-.666-.334z" fill="#bd5958" stroke="none"/><path d="m923.667 848.333.666.334-.666-.334M758 849v1h3l-3-1z" fill="#cd9090" stroke="none"/><path d="m761 849 1 1-1-1m157 0 1 1-1-1z" fill="#bd5958" stroke="none"/><path d="m919.667 849.333.666.334-.666-.334M762 850v1h3l-3-1z" fill="#cd9090" stroke="none"/><path d="m765 850 1 1-1-1m149 0 1 1-1-1z" fill="#bd5958" stroke="none"/><path d="M915 850v1h3l-3-1z" fill="#cd9090" stroke="none"/><path d="m378 851 1 1-1-1z" fill="#910909" stroke="none"/><path d="M766 851v1h3l-3-1z" fill="#cd9090" stroke="none"/><path d="m769 851 1 1-1-1m140.667.333.666.334-.666-.334z" fill="#bd5958" stroke="none"/><path d="M911 851v1h3l-3-1z" fill="#cd9090" stroke="none"/><path d="m1278 851 1 1-1-1z" fill="#910909" stroke="none"/><path d="M770 852v1h3l-3-1z" fill="#cd9090" stroke="none"/><path d="M773 852v1h3l-3-1m131 0v1h3l-3-1z" fill="#bd5958" stroke="none"/><path d="M907 852v1h3l-3-1m-132 1v1h3l-3-1z" fill="#cd9090" stroke="none"/><path d="M778 853v1h3l-3-1m121 0v1h3l-3-1z" fill="#bd5958" stroke="none"/><path d="M902 853v1h3l-3-1m-122 1v1h3l-3-1z" fill="#cd9090" stroke="none"/><path d="M783 854v1h3l-3-1m110 0v1h4l-4-1z" fill="#bd5958" stroke="none"/><path d="M897 854v1h3l-3-1m-110.333 1.333.666.334-.666-.334z" fill="#cd9090" stroke="none"/><path d="M788 855v1h4l-4-1m99 0v1h4l-4-1z" fill="#bd5958" stroke="none"/><path d="M891 855v1h3l-3-1m-99 1v1h3l-3-1z" fill="#cd9090" stroke="none"/><path d="M795 856v1h4l-4-1m85 0v1h5l-5-1z" fill="#bd5958" stroke="none"/><path d="M885 856v1h3l-3-1m-86 1v1h3l-3-1z" fill="#cd9090" stroke="none"/><path d="M802 857v1h6l-6-1m70 0v1h6l-6-1z" fill="#bd5958" stroke="none"/><path d="m878.667 857.333.666.334-.666-.334M808 858v1h3l-3-1z" fill="#cd9090" stroke="none"/><path d="M811 858v1h9l-9-1m50 0v1h7l-7-1z" fill="#bd5958" stroke="none"/><path d="M868 858v1h4l-4-1m-48 1v1h6l-6-1z" fill="#cd9090" stroke="none"/><path d="M826 859v1h28l-28-1z" fill="#bd5958" stroke="none"/><path d="M854 859v1h6l-6-1z" fill="#cd9090" stroke="none"/><path d="M441 867c7.42 14.302 26.902 29.782 40 39l-20-20.089L441 867m772 1-37 38c12.42-8.742 32.41-24.153 39-38h-2m-728 41 6 5-6-5m685 0-4 5 4-5m-676 7 6 5-6-5m663 5 6-4-6 4m-655 1v2h2l-2-2m651 1 1 1-1-1m-646 3v1l8 5v-1l-8-5m642 0-7 5v1l8-5-1-1m-633 7v1l5 3-5-4m623 0-3 4 3-4m-617 4v1l4 2-4-3m611 0-1 2 1-2m-606 3v1l11 7-11-8m602 0-7 6 8-5-1-1z" fill="#bd5958" stroke="none"/><path d="m470 944 1 1-1-1m716 0 1 1-1-1z" fill="#910909" stroke="none"/><path d="M1119 946v2l2-2h-2m-580 2v1l6 3-6-4m573 4 6-3-6 3m-566 0 2 2-2-2m564 0-1 2 1-2z" fill="#bd5958" stroke="none"/><path d="m482 953 1 1-1-1m692 0 1 1-1-1z" fill="#910909" stroke="none"/><path d="M549 954v1l9 5v-1l-9-5m558 0 1 1-1-1m-2 1-3 2v1l4-2-1-1m-5 3-2 1v1l2-2m-539 3 2 2v-2h-2m533 0v2l2-2h-2m-529 2 1 1-1-1m526 0 1 1-1-1m-521 3v1l5 2v-1l-5-2m512 3 3-1-3 1m-506 0v1l10 5v-1l-10-5m504 0-4 2v1l5-2-1-1m-6 3-2 1v1l2-2m-4 2 1 1-1-1z" fill="#bd5958" stroke="none"/><path d="m514 975 1 1-1-1z" fill="#910909" stroke="none"/><path d="m587 975 1 1-1-1m481 0 1 1-1-1z" fill="#bd5958" stroke="none"/><path d="m1142 975 1 1-1-1z" fill="#910909" stroke="none"/><path d="m589 976 1 1-1-1m2 0 11 6v-1l-11-5m475 0 1 1-1-1m-11 5v1l10-4-10 3m-452 1v1l9 4v-1l-9-4m441 4v1l10-4-10 3m-509 1v1l9 4v-1l-9-4m78 0v1l4 1v-1l-4-1m427 2 3-1-3 1m73 2v1l9-4-9 3m-491-1 1 1-1-1m412 0 1 1-1-1m-409.333 1.333.666.334-.666-.334M544 992v1l5 2v-1l-5-2m83 0 1 1-1-1m402 0 1 1-1-1m79 2v1l5-2-5 1m-479-1v1l3 1-3-2m398 0 1 1-1-1m-3 1 1 1-1-1m-475 1v1c17.044 8.32 36.141 21.75 55 25v-1l-55-25m85 0v1l7 2v-1l-7-2m387.67.333.66.334-.66-.334M1053 1020v1c18.86-3.25 37.96-16.68 55-25l-17 6.75-38 17.25m-37-23v1l4-1h-4m-374 1 1 1-1-1m372 0 1 1-1-1m-370 1v1l5 1v-1l-5-1m364 1v1l4-1h-4m-358 1 1 1-1-1m2.667 1.33.666.34-.666-.34m3.333.67v1l6 1-6-2m342 0v2l2-2h-2m-2.333 1.33.666.34-.666-.34M670 1007l1 1-1-1m3 1v1l6 1v-1l-6-1m309.667.33.666.34-.666-.34M978 1009v1h3l-3-1m-297.333 1.33.666.34-.666-.34m295 0 .666.34-.666-.34m-292 1 .666.34-.666-.34m289 0 .666.34-.666-.34M686 1012v1l6 1-6-2m282.667.33.666.34-.666-.34m-3 1 .666.34-.666-.34m-271 1 .666.34-.666-.34m2.333.67v1h3l-3-1m4 1v1h3l-3-1m17.667 3.33.666.34-.666-.34M938 1019l1 1-1-1m-215.333 1.33.666.34-.666-.34M604 1021v1l32 11v-1l-32-11m123 0v1h4l-4-1m294 11v1l32-11c-8.33-2.31-23.62 7.57-32 10m-288-10v1h4l-4-1m188 0v1h3l-3-1m-183 1v1h5l-5-1m176 0v1h4l-4-1m-170 1v1h5l-5-1m165 0v1h4l-4-1m-159 1v1h6l-6-1m151 0v1h5l-5-1m-143 1v1h5l-5-1m137 0v1h4l-4-1m-129 1v1h6l-6-1m121 0v1h3l-3-1m-113 1v1h7l-7-1m104 0v1h3l-3-1m-91 1v1h4l-4-1m13.667 1.33.666.34-.666-.34M804 1030v1h10l-10-1m43 0v1h4l-4-1z" fill="#bd5958" stroke="none"/><path d="m632 1032 1 1-1-1m392 0 1 1-1-1z" fill="#910909" stroke="none"/><path d="M636 1033v1l15 4v-1l-15-4m370 4v1l15-4-15 3m-355 1v1h3l-3-1m352 0v1h3l-3-1m-349 1v1l7 1-7-2m342 1v1l7-1h-7m-335 1v1l14 3-14-4m321 3v1l14-3-14 2m-307 1v1l8 1-8-2m299 1v1l8-1h-8m-291 1v1l48 9c-12.403-5.96-34.217-8.9-48-10m243 9v1l48-9-16 2.12-32 5.88m-195 1v1h6l-6-1m182 1v1l13-1h-13m-176 0v1h7l-7-1m7 1v1h7l-7-1m154 1v1l15-1h-15m-147 0v1h7l-7-1m8 1v1h9l-9-1m119 1v1l20-1h-20m-110 0v1h11l-11-1m11 1v1h14l-14-1m85 0v1h14l-14-1m-70 1v1h33l-33-1m37 0v1h32l-32-1m-3 1 1 1-1-1z" fill="#bd5958" stroke="none"/></svg>