<svg xmlns="http://www.w3.org/2000/svg" shape-rendering="geometricPrecision" text-rendering="geometricPrecision" image-rendering="optimizeQuality" fill-rule="evenodd" clip-rule="evenodd" viewBox="0 0 1600 1200"><path fill="#c07a7a" d="M1184.5 185.5c.47 1.406 1.47 2.073 3 2a395.681 395.681 0 0 1 43 39c1 1.667 2.33 3 4 4 25.31 24.966 47.64 52.3 67 82a208.193 208.193 0 0 1 9 17c.53 1.73 1.53 3.064 3 4a113.029 113.029 0 0 1 9 18c.53 1.73 1.53 3.064 3 4 3.18 5.696 5.84 11.696 8 18 .25 2.174 1.25 3.841 3 5 3.39 7.84 6.39 15.84 9 24 .25 2.467 1.25 4.467 3 6a270.45 270.45 0 0 1 8 27c.63 2.897 1.63 5.564 3 8 4 14.342 7 29.008 9 44 .46 2.83 1.13 5.497 2 8a213.883 213.883 0 0 1 3.5 27c.18 10.577.68 21.077 1.5 31.5-.3 16.443-.8 34.277-1.5 53.5a191.055 191.055 0 0 1-2.5 21c-1.73 4.383-2.73 9.05-3 14-2 14.992-5 29.658-9 44-1.6 2.348-2.6 5.014-3 8a270.45 270.45 0 0 1-8 27c-1.75 1.533-2.75 3.533-3 6-5.14 16.432-11.8 32.099-20 47-1.47.936-2.47 2.27-3 4a113.029 113.029 0 0 1-9 18c-1.47.936-2.47 2.27-3 4a208.193 208.193 0 0 1-9 17c-19.36 29.7-41.69 57.034-67 82-1.67 1-3 2.333-4 4a395.681 395.681 0 0 1-43 39c-1.53-.073-2.53.594-3 2-87.05 66.99-185.712 106.16-296 117.5-144.311 13.26-276.311-20.41-396-101a193.36 193.36 0 0 1-21-16.5c-.473-1.406-1.473-2.073-3-2a396.055 396.055 0 0 1-43-39c-1-1.667-2.333-3-4-4-25.306-24.966-47.64-52.3-67-82a208.193 208.193 0 0 1-9-17c-.526-1.73-1.526-3.064-3-4a113.366 113.366 0 0 1-9-18c-.526-1.73-1.526-3.064-3-4a322.165 322.165 0 0 1-9-19c.271-1.88-.396-3.213-2-4a258.889 258.889 0 0 1-9-24c-.255-2.467-1.255-4.467-3-6a271.78 271.78 0 0 1-8-27c-.403-2.986-1.403-5.652-3-8a321.524 321.524 0 0 1-9-44c-.27-4.95-1.27-9.617-3-14a519.386 519.386 0 0 1-4-52.5c.298-16.443.798-34.277 1.5-53.5a189.372 189.372 0 0 1 2.5-21c1.483-4.45 2.483-9.117 3-14a321.524 321.524 0 0 1 9-44c1.371-2.436 2.371-5.103 3-8a271.78 271.78 0 0 1 8-27c1.745-1.533 2.745-3.533 3-6a258.889 258.889 0 0 1 9-24c1.75-1.159 2.75-2.826 3-5a402.712 402.712 0 0 1 31-58c1.474-.936 2.474-2.27 3-4a76.484 76.484 0 0 1 9-14c1.474-.936 2.474-2.27 3-4 5.909-10.23 12.909-19.563 21-28 1-.333 1.667-1 2-2a82.928 82.928 0 0 1 6.5-9C496.862 145.982 620.028 83.815 767.5 68c144.311-13.257 276.31 20.41 396 101a193.943 193.943 0 0 1 21 16.5Z"/><path fill="#c38b8b" d="M1345.5 619.5a305.298 305.298 0 0 0-8.5-30c-26.45-81.894-62.79-158.894-109-231-50.2-74.203-115.37-131.37-195.5-171.5a530.767 530.767 0 0 0-95-32 748.153 748.153 0 0 0-57-10 2121.299 2121.299 0 0 0-97-8 1043.07 1043.07 0 0 0-138 2 403.655 403.655 0 0 0-64 15.5c110.206-53.387 225.872-69.886 347-49.5 106.43 18.219 199.1 63.553 278 136 72.82 68.782 118.65 152.616 137.5 251.5 6.66 42.421 7.16 84.754 1.5 127Z"/><path fill="#cf9696" d="M1345.5 619.5c-5.51 45.058-18.01 88.058-37.5 129-41.11 82.947-100.95 148.947-179.5 198-62.05 12.418-124.05 11.918-186-1.5-56.128-12.765-110.461-30.599-163-53.5 105.503 16.078 199.837-8.755 283-74.5 73.89-64.297 109.06-145.464 105.5-243.5-8.25-99.521-58.08-168.688-149.5-207.5-35.971-12.461-72.971-17.794-111-16-57.45 4.071-107.117 25.571-149 64.5a82.559 82.559 0 0 1-5-11 10.258 10.258 0 0 1 1.5-4 462.376 462.376 0 0 0 46.5-27.5c4.65-3.486 7.65-7.986 9-13.5.211-21.733 11.211-34.567 33-38.5a201.322 201.322 0 0 1 36 1 1611.225 1611.225 0 0 0 43 14c12.507 2.83 22.84-.503 31-10a7732.24 7732.24 0 0 1-19-13 31.774 31.774 0 0 0-7-2.5c-5.133-3.545-10.799-6.045-17-7.5a3.647 3.647 0 0 1-1-1.5 19.221 19.221 0 0 1 5-3 18.453 18.453 0 0 1 6 .5 1286.082 1286.082 0 0 1 128 43 693.2 693.2 0 0 1 69 38c29.4 21.016 51.56 47.849 66.5 80.5a566.313 566.313 0 0 0 21 51c4.17 6.347 9.67 11.014 16.5 14 11.95 4.28 22.12 1.613 30.5-8 8.34-12.025 11.34-25.358 9-40-8.45-42.068-26.78-79.068-55-111-31.89-30.559-68.06-54.725-108.5-72.5-12.73-5.039-25.4-10.039-38-15a384.42 384.42 0 0 0-55-37c-35.003-20.324-72.003-35.658-111-46a365.235 365.235 0 0 0-55-6 930.035 930.035 0 0 0-61 0 2297.174 2297.174 0 0 0-103 7c-41.436 5.929-81.103 17.262-119 34a2580.785 2580.785 0 0 0-49 24 416.476 416.476 0 0 1-27 8.5c-4.001 2.613-4.001 5.446 0 8.5 3.711.175 7.378.675 11 1.5-4.861 2.19-7.861 5.857-9 11 1.734 4.682 5.067 6.182 10 4.5a57.143 57.143 0 0 1 15-9 1914.775 1914.775 0 0 1 41-14 48.037 48.037 0 0 1 19 1.5 133.612 133.612 0 0 1-18 13c-8.728 4.695-17.395 9.362-26 14a236.057 236.057 0 0 0-42 18.5c-5.71 5.436-6.376 11.27-2 17.5 2.795 4.241 6.795 6.741 12 7.5 12.621 1.353 24.954.02 37-4a365.689 365.689 0 0 0 45-17 1714.947 1714.947 0 0 0 41-22 375.901 375.901 0 0 1 52-14.5 211.634 211.634 0 0 0 20.5 22 54.628 54.628 0 0 0 2 7 423.162 423.162 0 0 1-1.5 59c-.14 1.53-.807 2.53-2 3-5.812-10.986-13.978-19.986-24.5-27-78.568 46.423-127.234 114.423-146 204a409.73 409.73 0 0 0-2.5 20c-1.552 8.777-2.219 17.777-2 27-.134 10.871.533 21.538 2 32a514.088 514.088 0 0 0 12 56c-24.638-37.594-46.472-76.928-65.5-118a456.63 456.63 0 0 1-30-105c-2.573-37.632-.24-74.965 7-112 6.901-41.365 19.401-80.865 37.5-118.5-.556-.383-.889-.883-1-1.5 33.223-29.295 69.89-53.628 110-73a403.655 403.655 0 0 1 64-15.5 1043.07 1043.07 0 0 1 138-2 2121.299 2121.299 0 0 1 97 8 748.153 748.153 0 0 1 57 10 530.767 530.767 0 0 1 95 32c80.13 40.13 145.3 97.297 195.5 171.5 46.21 72.106 82.55 149.106 109 231a305.298 305.298 0 0 1 8.5 30Z"/><path fill="#faf1f1" d="M1184.5 185.5c1.53-.073 2.53.594 3 2-1.53.073-2.53-.594-3-2Z" opacity=".133"/><path fill="#900909" d="M1221.5 524.5c.28-.789.78-1.456 1.5-2 1.34 1.265 2.84 1.765 4.5 1.5a794.387 794.387 0 0 0-45.5-113.5c-15.93-27.604-37.1-50.438-63.5-68.5-28.92-20.453-60.92-33.786-96-40a1059.37 1059.37 0 0 0-99-13.5c-5.615-.026-9.948 2.307-13 7a71.254 71.254 0 0 1 4 2 19.221 19.221 0 0 0-5 3 3.647 3.647 0 0 0 1 1.5c6.201 1.455 11.867 3.955 17 7.5-15.587-4.013-31.254-3.847-47 .5-14.938-1.119-29.271 1.215-43 7a169.242 169.242 0 0 0-22 11 70.588 70.588 0 0 0-9.5 10.5c-.758 3.829.242 7.162 3 10 .216-1.884.883-3.551 2-5a233.36 233.36 0 0 0-.5 15c-22.971 2.716-44.638 10.216-65 22.5a220.345 220.345 0 0 0-15 9.5c-6.924 8.499-10.424 18.165-10.5 29 .772 1.349 1.939 2.182 3.5 2.5 8.144.894 16.144 1.727 24 2.5-2.39 1.876-3.39 4.376-3 7.5a8141.18 8141.18 0 0 1 3 25.5 177.566 177.566 0 0 0 19 1.5l-5 1a1815.749 1815.749 0 0 0 31 13.5 395.499 395.499 0 0 1 70-14.5c60.053-6.307 113.72 9.026 161 46 25.11 24.05 44.94 51.884 59.5 83.5a268.244 268.244 0 0 1 12 41c3.39 23.72.72 46.72-8 69a296.542 296.542 0 0 1-27 52c-21.13 21.468-45.3 38.635-72.5 51.5a417.99 417.99 0 0 1-54 6 805.366 805.366 0 0 1-154-8c-33.547-4.454-64.214-16.121-92-35a134.693 134.693 0 0 1-25.5-29.5c-30.952-50.518-50.619-105.185-59-164-1.999-41.004 4.334-80.671 19-119a579.235 579.235 0 0 0 14-29c.282-3.876-.551-7.543-2.5-11 .363-.683.696-1.35 1-2 13.391-13.552 28.391-25.052 45-34.5a38.47 38.47 0 0 0 5-5.5c1.193-.47 1.86-1.47 2-3a423.162 423.162 0 0 0 1.5-59 54.628 54.628 0 0 1-2-7 211.634 211.634 0 0 1-20.5-22c-1.469-1.605-1.135-2.105 1-1.5a35.063 35.063 0 0 0 6.5 7.5c-1.305-4.982-4.472-8.482-9.5-10.5-27.819-2.047-54.486 2.62-80 14a604.779 604.779 0 0 1-74 32c-10.31 3.055-20.644 3.222-31 .5-1.273 2.731-1.273 5.397 0 8-4.376-6.23-3.71-12.064 2-17.5a236.057 236.057 0 0 1 42-18.5c3.026 1.534 5.359.7 7-2.5.949-.617 1.782-.451 2.5.5 6.816-5.828 14.483-7.162 23-4 13.864-2.884 17.864-10.884 12-24-7.051-7.019-15.551-9.519-25.5-7.5a178.385 178.385 0 0 0-50 14c-3.923.793-7.756.626-11.5-.5-1.06-2.45-1.227-4.783-.5-7a416.476 416.476 0 0 0 27-8.5 2580.785 2580.785 0 0 1 49-24c37.897-16.738 77.564-28.071 119-34a2297.174 2297.174 0 0 1 103-7 930.035 930.035 0 0 1 61 0c18.49.61 36.824 2.61 55 6 38.997 10.342 75.997 25.676 111 46a384.42 384.42 0 0 1 55 37c12.6 4.961 25.27 9.961 38 15 40.44 17.775 76.61 41.941 108.5 72.5 28.22 31.932 46.55 68.932 55 111 2.34 14.642-.66 27.975-9 40-8.38 9.613-18.55 12.28-30.5 8Z"/><path fill="#f4dddd" d="M1230.5 226.5c2.33.333 3.67 1.667 4 4-1.67-1-3-2.333-4-4Z" opacity=".169"/><path fill="#c99191" d="M471.5 227.5c.111.617.444 1.117 1 1.5-18.099 37.635-30.599 77.135-37.5 118.5-7.24 37.035-9.573 74.368-7 112a456.63 456.63 0 0 0 30 105c19.028 41.072 40.862 80.406 65.5 118 34.089 90.925 96.422 154.425 187 190.5a180.392 180.392 0 0 0 27 8.5c10.857 4.213 22.19 6.879 34 8 2.461 1.031 5.127 1.698 8 2 52.539 22.901 106.872 40.735 163 53.5 61.95 13.418 123.95 13.918 186 1.5-92.71 57.15-193.881 85.48-303.5 85-132.541-2.17-249.708-45-351.5-128.5C347.538 792.144 296.038 653.311 319 486.5c21.59-103.888 72.423-190.222 152.5-259Z"/><path fill="#851212" d="M755.5 254.5c28.721-2.108 41.221 11.225 37.5 40-6.901 19.385-20.734 29.385-41.5 30-12.499-.251-23.499-4.418-33-12.5-10.593-7.258-19.093-16.425-25.5-27.5-2.004-7.137-.171-12.97 5.5-17.5a45.11 45.11 0 0 0 14-8 1100.41 1100.41 0 0 0 43-4.5Z"/><path fill="#861413" d="M522.5 293.5c8.605-4.638 17.272-9.305 26-14a133.612 133.612 0 0 0 18-13 48.037 48.037 0 0 0-19-1.5 1914.775 1914.775 0 0 0-41 14 57.143 57.143 0 0 0-15 9c-4.933 1.682-8.266.182-10-4.5 1.139-5.143 4.139-8.81 9-11a62.744 62.744 0 0 0-11-1.5c-4.001-3.054-4.001-5.887 0-8.5-.727 2.217-.56 4.55.5 7 3.744 1.126 7.577 1.293 11.5.5a178.385 178.385 0 0 1 50-14c9.949-2.019 18.449.481 25.5 7.5 5.864 13.116 1.864 21.116-12 24-8.517-3.162-16.184-1.828-23 4-.718-.951-1.551-1.117-2.5-.5-1.641 3.2-3.974 4.034-7 2.5Z"/><path fill="#fbf5f5" d="M391.5 263.5c-.333 1-1 1.667-2 2 0-1.333.667-2 2-2Z" opacity=".457"/><path fill="#cf9594" d="M784.5 269.5c-.056 5.231.611 10.231 2 15a32.462 32.462 0 0 1-.5 8 39.991 39.991 0 0 1-7.5 7.5 207.414 207.414 0 0 1-25 8c-3 .667-6 .667-9 0a302.632 302.632 0 0 1-21-10c-8.813-7.954-15.813-17.121-21-27.5 27.336-5.67 54.669-6.004 82-1Z"/><path fill="#841312" d="M875.5 288.5c-.291-1.149-1.124-1.816-2.5-2a1058.482 1058.482 0 0 0-65.5-13v6c4.532-.318 8.866.015 13 1a8.43 8.43 0 0 0-4 .5 615.76 615.76 0 0 0 28 5 333.78 333.78 0 0 0 24 7.5c3.726-.428 7.059-1.761 10-4 1.152 2.606 1.318 5.273.5 8a896.133 896.133 0 0 1-18.5 2.5 702.15 702.15 0 0 1-53 0c-10.405-4.32-13.571-11.82-9.5-22.5 2.287-2.962 5.12-5.129 8.5-6.5a462.27 462.27 0 0 1 43 0c12.323-.674 21.656 4.159 28 14.5-.442 1.239-1.109 2.239-2 3Z"/><path fill="#841313" d="M665.5 279.5a375.901 375.901 0 0 0-52 14.5 1714.947 1714.947 0 0 1-41 22 365.689 365.689 0 0 1-45 17c-12.046 4.02-24.379 5.353-37 4-5.205-.759-9.205-3.259-12-7.5-1.273-2.603-1.273-5.269 0-8 10.356 2.722 20.69 2.555 31-.5a604.779 604.779 0 0 0 74-32c25.514-11.38 52.181-16.047 80-14 5.028 2.018 8.195 5.518 9.5 10.5a35.063 35.063 0 0 1-6.5-7.5c-2.135-.605-2.469-.105-1 1.5Z"/><path fill="#c98888" d="M875.5 288.5c-2.704 2.803-6.037 3.637-10 2.5a177.453 177.453 0 0 0-45-10.5c-4.134-.985-8.468-1.318-13-1v-6a1058.482 1058.482 0 0 1 65.5 13c1.376.184 2.209.851 2.5 2Z"/><path fill="#b65f5f" d="M784.5 269.5c1.389 4.769 2.056 9.769 2 15-1.389-4.769-2.056-9.769-2-15Z"/><path fill="#841312" d="M1221.5 524.5c-6.83-2.986-12.33-7.653-16.5-14a566.313 566.313 0 0 1-21-51c-14.94-32.651-37.1-59.484-66.5-80.5a693.2 693.2 0 0 0-69-38 1286.082 1286.082 0 0 0-128-43 18.453 18.453 0 0 0-6-.5 71.254 71.254 0 0 0-4-2c3.052-4.693 7.385-7.026 13-7a1059.37 1059.37 0 0 1 99 13.5c35.08 6.214 67.08 19.547 96 40 26.4 18.062 47.57 40.896 63.5 68.5a794.387 794.387 0 0 1 45.5 113.5c-1.66.265-3.16-.235-4.5-1.5-.72.544-1.22 1.211-1.5 2Z"/><path fill="#f5e2e2" d="M368.5 293.5c-.526 1.73-1.526 3.064-3 4 .054-2.132 1.054-3.465 3-4Z" opacity=".494"/><path fill="#861413" d="M927.5 309.5a31.774 31.774 0 0 1 7 2.5 7732.24 7732.24 0 0 0 19 13c-8.16 9.497-18.493 12.83-31 10a1611.225 1611.225 0 0 1-43-14 201.322 201.322 0 0 0-36-1c-21.789 3.933-32.789 16.767-33 38.5.008-5.06.174-10.06.5-15-1.117 1.449-1.784 3.116-2 5-2.758-2.838-3.758-6.171-3-10a70.588 70.588 0 0 1 9.5-10.5 169.242 169.242 0 0 1 22-11c13.729-5.785 28.062-8.119 43-7 15.746-4.347 31.413-4.513 47-.5Z"/><path fill="#f6e3e3" d="M356.5 311.5c-.526 1.73-1.526 3.064-3 4 .054-2.132 1.054-3.465 3-4Z" opacity=".494"/><path fill="#f7e9e9" d="M1310.5 329.5c1.95.535 2.95 1.868 3 4-1.47-.936-2.47-2.27-3-4Z" opacity=".312"/><path fill="#dfd5bd" d="M684.5 370.5a38.47 38.47 0 0 1-5 5.5c-16.609 9.448-31.609 20.948-45 34.5-31.622 28.142-54.788 62.142-69.5 102a411.2 411.2 0 0 0-9.5 35c-2.178 8.408-3.511 17.075-4 26v4c-1.16 13.16-1.327 26.494-.5 40 .354 4.889 1.187 9.556 2.5 14 .24 4.106.907 8.106 2 12-.661 4.893.339 9.226 3 13 .934 1.068 1.268 2.401 1 4 .223 3.662 1.223 6.995 3 10 21.814 62.653 61.147 111.153 118 145.5 32.553 19.463 67.553 32.296 105 38.5 9.411 2.22 19.078 3.553 29 4 73.646 4.591 140.98-13.575 202-54.5 56.74-40.599 92.41-95.099 107-163.5 2.27-4.951 3.27-10.284 3-16 5.36-50.377-3.48-98.044-26.5-143-25.35-40.842-60.85-68.842-106.5-84-3.585-2.306-7.585-3.639-12-4-59.318-14.668-114.984-6.168-167 25.5-16.105 10.57-30.438 23.236-43 38-7.993.5-15.993.666-24 .5a8141.18 8141.18 0 0 0-3-25.5c-.39-3.124.61-5.624 3-7.5l11-10c41.883-38.929 91.55-60.429 149-64.5 38.029-1.794 75.029 3.539 111 16 91.42 38.812 141.25 107.979 149.5 207.5 3.56 98.036-31.61 179.203-105.5 243.5-83.163 65.745-177.497 90.578-283 74.5-2.873-.302-5.539-.969-8-2-.111-.617-.444-1.117-1-1.5a47.098 47.098 0 0 1-16-4l-17-2.5a180.392 180.392 0 0 1-27-8.5c-90.578-36.075-152.911-99.575-187-190.5a514.088 514.088 0 0 1-12-56 481.918 481.918 0 0 1 0-59 409.73 409.73 0 0 1 2.5-20c18.766-89.577 67.432-157.577 146-204 10.522 7.014 18.688 16.014 24.5 27Z"/><path fill="#f7e7e7" d="M1322.5 351.5c1.95.535 2.95 1.868 3 4-1.47-.936-2.47-2.27-3-4Z" opacity=".125"/><path fill="#841212" d="M810.5 358.5c-1.35 5.514-4.35 10.014-9 13.5a462.376 462.376 0 0 1-46.5 27.5 10.258 10.258 0 0 0-1.5 4 82.559 82.559 0 0 0 5 11l-11 10a2144.156 2144.156 0 0 1-24-2.5c-1.561-.318-2.728-1.151-3.5-2.5.076-10.835 3.576-20.501 10.5-29a220.345 220.345 0 0 1 15-9.5c20.362-12.284 42.029-19.784 65-22.5Z"/><path fill="#f8ebeb" d="M1333.5 373.5c1.75 1.159 2.75 2.826 3 5-1.75-1.159-2.75-2.826-3-5Z" opacity=".331"/><path fill="#f7e6e6" d="M322.5 373.5c-.25 2.174-1.25 3.841-3 5 .25-2.174 1.25-3.841 3-5Z" opacity=".4"/><path fill="#831312" d="M981.5 393.5c3.716 1.905 7.716 3.239 12 4 45.65 15.158 81.15 43.158 106.5 84 23.02 44.956 31.86 92.623 26.5 143-1.41 5.13-2.41 10.463-3 16-14.59 68.401-50.26 122.901-107 163.5-61.02 40.925-128.354 59.091-202 54.5a239.8 239.8 0 0 0-29-4c-37.447-6.204-72.447-19.037-105-38.5-56.853-34.347-96.186-82.847-118-145.5-.223-3.662-1.223-6.995-3-10 .268-1.599-.066-2.932-1-4-.382-4.592-1.382-8.925-3-13a56.464 56.464 0 0 1-2-12v-3a45.196 45.196 0 0 0 4-12 566.716 566.716 0 0 1-2-61v-8a411.2 411.2 0 0 1 9.5-35c14.712-39.858 37.878-73.858 69.5-102-.304.65-.637 1.317-1 2 1.949 3.457 2.782 7.124 2.5 11a579.235 579.235 0 0 1-14 29c-14.666 38.329-20.999 77.996-19 119 8.381 58.815 28.048 113.482 59 164a134.693 134.693 0 0 0 25.5 29.5c27.786 18.879 58.453 30.546 92 35a805.366 805.366 0 0 0 154 8 417.99 417.99 0 0 0 54-6c27.2-12.865 51.37-30.032 72.5-51.5a296.542 296.542 0 0 0 27-52c8.72-22.28 11.39-45.28 8-69a268.244 268.244 0 0 0-12-41c-14.56-31.616-34.39-59.45-59.5-83.5-47.28-36.974-100.947-52.307-161-46a395.499 395.499 0 0 0-70 14.5 1815.749 1815.749 0 0 1-31-13.5l5-1a177.566 177.566 0 0 1-19-1.5c8.007.166 16.007 0 24-.5 12.562-14.764 26.895-27.43 43-38 52.016-31.668 107.682-40.168 167-25.5Z"/><path fill="#c38f7e" d="M981.5 393.5c4.415.361 8.415 1.694 12 4-4.284-.761-8.284-2.095-12-4Z"/><path fill="#f7e9e9" d="M310.5 402.5c-.255 2.467-1.255 4.467-3 6 .255-2.467 1.255-4.467 3-6Z" opacity=".4"/><path fill="#f6e5e5" d="M1345.5 402.5c1.75 1.533 2.75 3.533 3 6-1.75-1.533-2.75-3.533-3-6Z" opacity=".4"/><path fill="#faf3f3" d="M1356.5 435.5c2.15 2.117 3.15 4.784 3 8-1.37-2.436-2.37-5.103-3-8Z" opacity=".378"/><path fill="#faf1f1" d="M299.5 435.5c-.629 2.897-1.629 5.564-3 8-.155-3.216.845-5.883 3-8Z" opacity=".331"/><path fill="#fbf5f5" d="M1368.5 487.5c.62.111 1.12.444 1.5 1 .5 2.31.66 4.643.5 7a47.583 47.583 0 0 1-2-8Z" opacity=".554"/><path fill="#f8ebeb" d="M287.5 487.5c-.517 4.883-1.517 9.55-3 14a121.16 121.16 0 0 1 1.5-13c.383-.556.883-.889 1.5-1Z" opacity=".196"/><path fill="#ad5549" d="M555.5 547.5v8a600.197 600.197 0 0 0-4 18c.489-8.925 1.822-17.592 4-26Z"/><path fill="#900d0b" d="M555.5 555.5a566.716 566.716 0 0 0 2 61 45.196 45.196 0 0 1-4 12 385.117 385.117 0 0 1-2-51v-4a600.197 600.197 0 0 1 4-18Z"/><path fill="#d5b1a6" d="M511.5 567.5a481.918 481.918 0 0 0 0 59c-1.467-10.462-2.134-21.129-2-32-.219-9.223.448-18.223 2-27Z"/><path fill="#bb7769" d="M551.5 577.5a385.117 385.117 0 0 0 2 51v3c-1.313-4.444-2.146-9.111-2.5-14-.827-13.506-.66-26.84.5-40Z"/><path fill="#cba18f" d="M1126.5 624.5c.27 5.716-.73 11.049-3 16 .59-5.537 1.59-10.87 3-16Z"/><path fill="#f6e4e4" d="M284.5 628.5c1.73 4.383 2.73 9.05 3 14-.617-.111-1.117-.444-1.5-1a121.16 121.16 0 0 1-1.5-13Z" opacity=".224"/><path fill="#f6e4e4" d="M1371.5 628.5c-.26 4.353-.76 8.687-1.5 13-.38.556-.88.889-1.5 1 .27-4.95 1.27-9.617 3-14Z" opacity=".447"/><path fill="#ca9b89" d="M555.5 643.5c1.618 4.075 2.618 8.408 3 13-2.661-3.774-3.661-8.107-3-13Z"/><path fill="#c08474" d="M559.5 660.5c1.777 3.005 2.777 6.338 3 10-1.777-3.005-2.777-6.338-3-10Z"/><path fill="#faf1f1" d="M296.5 686.5c1.597 2.348 2.597 5.014 3 8-2.155-2.117-3.155-4.784-3-8ZM1359.5 686.5c.15 3.216-.85 5.883-3 8 .4-2.986 1.4-5.652 3-8Z" opacity=".584"/><path fill="#f8eaea" d="M307.5 721.5c1.745 1.533 2.745 3.533 3 6-1.745-1.533-2.745-3.533-3-6Z" opacity=".133"/><path fill="#f8eaea" d="M1348.5 721.5c-.25 2.467-1.25 4.467-3 6 .25-2.467 1.25-4.467 3-6Z" opacity=".267"/><path fill="#fcf6f6" d="M319.5 751.5c1.604.787 2.271 2.12 2 4-1.174-1.014-1.84-2.347-2-4Z" opacity=".461"/><path fill="#f8eaea" d="M330.5 774.5c1.474.936 2.474 2.27 3 4-1.946-.535-2.946-1.868-3-4Z" opacity=".125"/><path fill="#f8eaea" d="M1325.5 774.5c-.05 2.132-1.05 3.465-3 4 .53-1.73 1.53-3.064 3-4Z" opacity=".255"/><path fill="#f9eded" d="M342.5 796.5c1.474.936 2.474 2.27 3 4-1.946-.535-2.946-1.868-3-4Z" opacity=".439"/><path fill="#f9eded" d="M1313.5 796.5c-.05 2.132-1.05 3.465-3 4 .53-1.73 1.53-3.064 3-4Z" opacity=".504"/><path fill="#aa564b" d="M785.5 854.5a239.8 239.8 0 0 1 29 4c-9.922-.447-19.589-1.78-29-4Z"/><path fill="#d3bead" d="m737.5 881.5 17 2.5a47.098 47.098 0 0 0 16 4c.556.383.889.883 1 1.5-11.81-1.121-23.143-3.787-34-8Z"/><path fill="#f4dddd" d="M421.5 899.5c1.667 1 3 2.333 4 4-2.333-.333-3.667-1.667-4-4Z" opacity=".169"/><path fill="#f6e4e3" d="M1234.5 899.5c-.33 2.333-1.67 3.667-4 4 1-1.667 2.33-3 4-4Z" opacity=".447"/><path fill="#f8ecec" d="M468.5 942.5c1.527-.073 2.527.594 3 2-1.527.073-2.527-.594-3-2Z" opacity=".4"/><path fill="#fbf4f4" d="M1187.5 942.5c-.47 1.406-1.47 2.073-3 2 .47-1.406 1.47-2.073 3-2Z" opacity=".267"/></svg>