<svg xmlns="http://www.w3.org/2000/svg" viewBox="0 0 1600 1200"><path d="M0 0v1200h1600V0H0z" fill="#010101" stroke="none"/><path d="M828 65.71C628.141 68.37 431.481 166.038 335.742 346.985c-15.873 29.999-30.171 61.992-38.703 95.015-11.967 46.32-16.847 92.333-15.075 140.004 1.794 48.278 7.932 99.015 27.206 143.996 26.095 60.899 57.224 114.318 101.75 163.911 50.312 56.037 115.133 96.756 183.08 127.779 82.407 37.63 174.297 49.49 264 47.3 75.073-1.84 152.25-22.45 220-54.21 63.57-29.803 125.35-71.251 171.43-124.781 50.54-58.708 86.33-121.205 109.98-194.999 14.28-44.588 18.33-94.566 15.67-141.015-3.43-59.886-13.54-116.605-38.12-171.985C1250.25 182.627 1038.7 62.904 828 65.71z" fill="#c06564" stroke="none"/><path d="m686 82 1 1-1-1m284 0 1 1-1-1M632 98l1 1-1-1m392 0 1 1-1-1z" fill="#910a0a" stroke="none"/><path d="M1331 625c4.09-2.65 3.8-9.258 3.87-13.83.16-10.599 1.31-21.557 1.98-32.155 3.12-48.678-7.13-97.37-20.43-144.015-8.94-31.368-23.95-60.86-40.08-89-79.27-138.289-227.97-221.883-383.34-241.714-112.658-14.38-240.987 8.694-338 69.628-82.135 51.588-157.131 120.753-195.204 212.082-23.017 55.216-39.376 112.73-40.618 173.083-.877 42.633 6.573 86.187 18.394 126.921 10.375 35.754 25.336 68.969 44.003 101 128.36 220.26 421.742 296.34 651.425 204.2 118.14-47.396 211.6-135.532 266-250.03 12.66-26.641 22.03-55.319 27.8-84.17 1.87-9.371 6.76-22.683 4.2-32z" fill="#cd9090" stroke="none"/><path d="M852 150v1h4l-4-1z" fill="#c06564" stroke="none"/><path d="M856 150.424c-12.671 1.669-24.601 3.709-36 9.885-8.103 4.39-16.165 12.637-25 15.181-12.064 3.474-25.156-4.531-37-5.4-22.641-1.661-41.226 7.52-59 21.04-8.059 6.13-21.562 18.158-18.181 29.87 4.534 15.71 24.735 14.263 37.181 18.692 16.997 6.049 29.092 18.193 43 29.188 8.253 6.525 23.51 16.657 15.272 29.105C770.585 306.579 761.042 306 752 306c-16.942 0-33.474-.252-50 4.155-46.413 12.377-94.031 52.111-110.308 97.845-6.877 19.321-10.412 42.154-3.613 62 3.805 11.107 16.466 22.02 15.926 34-.597 13.258-6.372 26.451-6.966 40-.96 21.936 2.917 44.292 1.582 66-.918 14.933-8.638 28.881-9.023 44-.239 9.404 6.115 17.291 8.475 26 5.481 20.234 6.119 36.221 21.101 53 11.294 12.65 25.888 20.973 41.826 26.333 7.964 2.678 21.423 3.045 27.536 8.946 9.159 8.84 15.681 19.92 25.464 28.432 28.749 25.012 66.867 38.946 105 35.118 24.334-2.442 47.35-14.29 64.996-30.918 7.135-6.724 12.421-18.839 21.019-23.469 10.308-5.551 25.618-4.519 36.985-7.593 30.187-8.164 59.37-24.152 76.92-50.849 9.28-14.11 15.83-31.047 16.99-48 .62-9.05-2.61-23.996 1.4-32 5.94-11.848 15.68-21.901 21.72-34 8.12-16.241 10.45-32.686 14.5-50 1.99-8.53 6.29-16.224 7.86-25 4.12-23.149-1.2-46.705-12.82-67-24.68-43.129-62.06-91.494-102.57-120.572-34.417-24.706-79.412-26.006-91.844-73.428-4.879-18.609 6.923-31.457 24.844-33.999 27.862-3.952 76.877 2.247 82.56-35.001.687-4.499.033-9.597-1.089-14-2.889-11.33-17.719-17.827-27.471-22.138-27.801-12.29-66.862-17.406-97-13.438z" fill="#910a0a" stroke="none"/><path d="M887 150v1h6l-6-1m-43 1v1h3l-3-1m55 0v1h3l-3-1m-58 1 1 1-1-1m66 0v1h3l-3-1m-70.333 1.333.666.334-.666-.334M913 153v1h3l-3-1m-80.333 1.333.666.334-.666-.334m88 0 .666.334-.666-.334z" fill="#c06564" stroke="none"/><path d="m514 155 1 1-1-1z" fill="#910a0a" stroke="none"/><path d="m830 155 1 1-1-1m94 0v1h3l-3-1z" fill="#c06564" stroke="none"/><path d="m1142 155 1 1-1-1z" fill="#910a0a" stroke="none"/><path d="m827 156 1 1-1-1m102.667.333.666.334-.666-.334M825 157l1 1-1-1m108.667.333.666.334-.666-.334M823 158l1 1-1-1m114.667.333.666.334-.666-.334M821 159l1 1-1-1m119.667.333.666.334-.666-.334M819 160l1 1-1-1m125 0 1 1-1-1m3 1 1 1-1-1m-131 1 1 1-1-1m133.667.333.666.334-.666-.334M814 163l1 1-1-1m138 0 1 1-1-1m2 1 1 1-1-1m-143 1 1 1-1-1m145 0 1 1-1-1m2 1 1 1-1-1m-150 1 1 1-1-1m152 0 1 1-1-1m2 1 1 1-1-1m-218 1v1h15l-15-1m61 0 1 1-1-1m159 0 1 1-1-1m-227.333 1.333.666.334-.666-.334m25 0 .666.334-.666-.334M965 170l1 1-1-1m-231 1 1 1-1-1m31 0 1 1-1-1m37 0 1 1-1-1m165 0 1 1-1-1m-236 1 1 1-1-1m37.667.333.666.334-.666-.334M729 173l1 1-1-1m43 0v1h3l-3-1m27 0 1 1-1-1m171 0 1 1-1-1m-244 1 1 1-1-1m52.667.333.666.334-.666-.334M971 174l1 1-1-1m-247 1 1 1-1-1m59 0v1h4l-4-1m13 0 1 1-1-1m-74 1 1 1-1-1z" fill="#c06564" stroke="none"/><path d="m482 177 1 1-1-1z" fill="#910a0a" stroke="none"/><path d="m720 177 1 1-1-1z" fill="#c06564" stroke="none"/><path d="m1174 177 1 1-1-1z" fill="#910a0a" stroke="none"/><path d="m717 179 1 1-1-1m-2 1 1 1-1-1m-2 1 1 1-1-1m-2 1 1 1-1-1m268 0 1 1-1-1m-269 1 1 1-1-1m-2 1 1 1-1-1m272.333.667.334.666-.334-.666z" fill="#c06564" stroke="none"/><path d="m470 186 1 1-1-1z" fill="#910a0a" stroke="none"/><path d="m705 186 1 1-1-1z" fill="#c06564" stroke="none"/><path d="m1186 186 1 1-1-1z" fill="#910a0a" stroke="none"/><path d="m702 188 1 1-1-1m-1 1 1 1-1-1m280 0v4h1l-1-4m-283 2 1 1-1-1m-1 1 1 1-1-1m-6 5 1 1-1-1m-1 1 1 1-1-1m-1 1 1 1-1-1m-1 1 1 1-1-1m293 0v3h1l-1-3m-295 3 1 1-1-1m-1 1 1 1-1-1m295.333 1.667.334.666-.334-.666M683 207l1 1-1-1m296.333 1.667.334.666-.334-.666M682 209l1 1-1-1m-1 2 1 1-1-1m297 0 1 1-1-1m-1 2 1 1-1-1m-296.667 1.667.334.666-.334-.666M976 215l1 1-1-1m-295.667 5.667.334.666-.334-.666M971 220l1 1-1-1m-1 1 1 1-1-1m-2 1 1 1-1-1m-287 1 1 1-1-1m285 0 1 1-1-1m-2 1 1 1-1-1m-282 1 1 1-1-1m280 0 1 1-1-1m-279 1 1 1-1-1m276 0 1 1-1-1m-275 1 1 1-1-1m272 0 1 1-1-1m-271 1 1 1-1-1m267.667.333.666.334-.666-.334M686 229l1 1-1-1m262.667.333.666.334-.666-.334M687 230l1 1-1-1m256.667.333.666.334-.666-.334M688 231l1 1-1-1m249 0v1h3l-3-1m-247 1 1 1-1-1m240 0v1h4l-4-1m-239 1 1 1-1-1m229 0v1h6l-6-1m-226.333 1.333.666.334-.666-.334M902 234v1h7l-7-1m-200.333 1.333.666.334-.666-.334M895 235v1h3l-3-1m-188.333 1.333.666.334-.666-.334M891 236l1 1-1-1m-180.333 1.333.666.334-.666-.334M888 237l1 1-1-1m-174.333 1.333.666.334-.666-.334M885 238l1 1-1-1m-168 1 1 1-1-1m166 0 1 1-1-1m-163.333 1.333.666.334-.666-.334M882 240l1 1-1-1m-160 1 1 1-1-1m3 1 1 1-1-1m154 0 1 1-1-1m-152 1 1 1-1-1m2 1 1 1-1-1m2 1 1 1-1-1m146 0 1 1-1-1m-144 1 1 1-1-1m143 0 1 1-1-1m-140 2 1 1-1-1m139 0 1 1-1-1m-138 1 1 1-1-1z" fill="#c06564" stroke="none"/><path d="m875 249 1 1-1-1z" fill="#cd9090" stroke="none"/><path d="M876 249c-4.715 9.784-2.041 20.398 1.8 30 14.038 35.092 45.718 38.294 75.2 55.15 16.186 9.255 28.91 21.76 42 34.85 22.17 22.175 41.08 47.179 58.75 73 18.39 26.888 34.16 52.882 28.17 87-1.49 8.47-5.58 15.815-7.54 24-4.44 18.456-7.17 35.629-15.64 53-5.52 11.321-18.41 22.381-21.91 34-2.54 8.423.95 20.053-.12 29-3.59 30.053-17.82 56.523-41.71 75.485-17.172 13.63-37.89 21.931-59 27.141-9.66 2.384-23.391 1.34-31.96 6.463-9.869 5.902-16.956 20.063-26.04 27.777-25.26 21.447-58.234 30.961-91 25.696-27.97-4.495-54.009-17.772-75-36.732-8.727-7.882-15.488-21.708-25.174-27.892-6.866-4.384-18.048-4.591-25.826-7.282-19.469-6.736-37.043-18.359-48.641-35.656-10.354-15.441-10.115-29.092-14.996-46-2.445-8.471-8.656-15.716-8.259-25 .586-13.691 7.274-26.475 8.722-40 2.184-20.383-3.146-41.422-1.737-62 1.074-15.672 7.77-32.664 7.553-48-.138-9.72-8.291-16.863-12.372-25-6.11-12.183-8.605-26.452-6.984-40C591.442 378.163 644.08 327.797 700 310.347c17.112-5.34 35.276-5.376 53-5.347 9.027.015 18.569 1.811 23.543-8.004 6.161-12.156-6.437-21.061-14.543-27.36-5.238-4.07-11.333-11.839-18-13.304-5.047-1.11-11.2 1.924-16 3.243-12.155 3.339-24.184 7.007-36 11.489C565.969 318.868 471.934 442.64 478.205 580c1.436 31.438 9.453 63.668 20.479 93 12.315 32.761 31.609 63.05 54.047 89.826C666.187 898.22 877.707 920.682 1025 830.442c34.58-21.187 65.73-49.142 90.23-81.442 21.45-28.274 37.89-59.24 48.93-93 9.08-27.744 14.25-57.831 14.83-87 .44-22.391-3.05-44.09-7.75-65.911C1141.04 362.789 1014.7 266.431 876 249z" fill="#e1d7be" stroke="none"/><path d="m738 250 1 1-1-1m136 1 1 1-1-1m-133 1 1 1-1-1m1 1 1 1-1-1m1 1 1 1-1-1m130.333.667.334.666-.334-.666z" fill="#c06564" stroke="none"/><path d="M873 256v3h1l-1-3z" fill="#cd9090" stroke="none"/><path d="m748 258 1 1-1-1m1 1 1 1-1-1z" fill="#c06564" stroke="none"/><path d="m750 260 1 1-1-1z" fill="#cd9090" stroke="none"/><path d="m752 261 1 1-1-1m1 1 1 1-1-1z" fill="#c06564" stroke="none"/><path d="m754 263 1 1-1-1m119.333.667.334.666-.334-.666M755 264l1 1-1-1z" fill="#cd9090" stroke="none"/><path d="m873.333 265.667.334.666-.334-.666M703 266l1 1-1-1m55 0 1 1-1-1m195 0 1 1-1-1m-194 1 1 1-1-1m-62 1 1 1-1-1z" fill="#c06564" stroke="none"/><path d="m760 268 1 1-1-1z" fill="#cd9090" stroke="none"/><path d="m959 268 1 1-1-1m-264 1 1 1-1-1z" fill="#c06564" stroke="none"/><path d="m761 269 1 1-1-1m113 0 1 1-1-1m-112 1 1 1-1-1z" fill="#cd9090" stroke="none"/><path d="m874 270 1 1-1-1z" fill="#c06564" stroke="none"/><path d="m764 271 1 1-1-1z" fill="#cd9090" stroke="none"/><path d="m766 272 1 1-1-1z" fill="#c06564" stroke="none"/><path d="m767 273 1 1-1-1z" fill="#cd9090" stroke="none"/><path d="m875 273 1 1-1-1m-105 2 1 1-1-1z" fill="#c06564" stroke="none"/><path d="m876 275 1 1-1-1z" fill="#cd9090" stroke="none"/><path d="m677 276 1 1-1-1m94 0 1 1-1-1m105 0 1 1-1-1m-201 1 1 1-1-1m97 0 1 1-1-1m209 0 1 1-1-1m-309 1 1 1-1-1m205 0 1 1-1-1m107 0 1 1-1-1z" fill="#c06564" stroke="none"/><path d="m378 279 1 1-1-1z" fill="#910a0a" stroke="none"/><path d="m773 279 1 1-1-1z" fill="#cd9090" stroke="none"/><path d="m1278 279 1 1-1-1z" fill="#910a0a" stroke="none"/><path d="m668 280 1 1-1-1z" fill="#c06564" stroke="none"/><path d="m774 280 1 1-1-1m104 0 1 1-1-1z" fill="#cd9090" stroke="none"/><path d="m666 281 1 1-1-1m109 0 1 1-1-1m103 0 1 1-1-1m112 0 1 1-1-1m-214 2 1 1-1-1z" fill="#c06564" stroke="none"/><path d="m879 283 1 1-1-1z" fill="#cd9090" stroke="none"/><path d="m777 285 1 1-1-1z" fill="#c06564" stroke="none"/><path d="m880 285 1 1-1-1m-103 1 1 1-1-1z" fill="#cd9090" stroke="none"/><path d="m880 286 1 1-1-1z" fill="#c06564" stroke="none"/><path d="m881 287 1 1-1-1z" fill="#cd9090" stroke="none"/><path d="M778 288v5h1l-1-5m103 0 1 1-1-1z" fill="#c06564" stroke="none"/><path d="m882 289 1 1-1-1m1 2 1 1-1-1z" fill="#cd9090" stroke="none"/><path d="m884 293 1 1-1-1z" fill="#c06564" stroke="none"/><path d="m367 294 1 1-1-1z" fill="#910a0a" stroke="none"/><path d="m885 294 1 1-1-1z" fill="#cd9090" stroke="none"/><path d="m1289 294 1 1-1-1z" fill="#910a0a" stroke="none"/><path d="m777 295 1 1-1-1z" fill="#cd9090" stroke="none"/><path d="m638.667 296.333.666.334-.666-.334M777 296l1 1-1-1m109 0 1 1-1-1z" fill="#c06564" stroke="none"/><path d="m776 297 1 1-1-1z" fill="#cd9090" stroke="none"/><path d="m887 297 1 1-1-1m-111 1 1 1-1-1z" fill="#c06564" stroke="none"/><path d="m888 298 1 1-1-1z" fill="#cd9090" stroke="none"/><path d="m775 299 1 1-1-1z" fill="#c06564" stroke="none"/><path d="m889 299 1 1-1-1m-115 1 1 1-1-1z" fill="#cd9090" stroke="none"/><path d="m773 301 1 1-1-1m-1 1 1 1-1-1m-2 1 1 1-1-1m-145 1-3 2v1l4-2-1-1m143 0 1 1-1-1z" fill="#c06564" stroke="none"/><path d="m894 304 1 1-1-1m-269 1 1 1-1-1m103 0v1h3l-3-1z" fill="#cd9090" stroke="none"/><path d="M731 305v1h23l-23-1z" fill="#c06564" stroke="none"/><path d="M754 305v1h8l-8-1m11 0 1 1-1-1z" fill="#cd9090" stroke="none"/><path d="m766 305 1 1-1-1z" fill="#c06564" stroke="none"/><path d="m895 305 1 1-1-1z" fill="#cd9090" stroke="none"/><path d="m1033 305 1 1-1-1z" fill="#c06564" stroke="none"/><path d="m623 306 1 1-1-1m95.667.333.666.334-.666-.334z" fill="#cd9090" stroke="none"/><path d="M720 306v1h3l-3-1m176 0 1 1-1-1z" fill="#c06564" stroke="none"/><path d="m712 307 1 1-1-1z" fill="#cd9090" stroke="none"/><path d="m713.667 307.333.666.334-.666-.334M897 307l1 1-1-1z" fill="#c06564" stroke="none"/><path d="m707 308 1 1-1-1z" fill="#cd9090" stroke="none"/><path d="m708.667 308.333.666.334-.666-.334z" fill="#c06564" stroke="none"/><path d="m702 309 1 1-1-1z" fill="#cd9090" stroke="none"/><path d="m703.667 309.333.666.334-.666-.334z" fill="#c06564" stroke="none"/><path d="m900 309 1 1-1-1m-201 1 1 1-1-1z" fill="#cd9090" stroke="none"/><path d="m700 310 1 1-1-1m201 0 1 1-1-1m-204.333 1.333.666.334-.666-.334z" fill="#c06564" stroke="none"/><path d="m903 311 1 1-1-1m-210 1 1 1-1-1z" fill="#cd9090" stroke="none"/><path d="m694 312 1 1-1-1m210 0 1 1-1-1m-292 1 1 1-1-1z" fill="#c06564" stroke="none"/><path d="m690 313 1 1-1-1z" fill="#cd9090" stroke="none"/><path d="m691 313 1 1-1-1m215 0 1 1-1-1z" fill="#c06564" stroke="none"/><path d="m687 314 1 1-1-1z" fill="#cd9090" stroke="none"/><path d="m688 314 1 1-1-1z" fill="#c06564" stroke="none"/><path d="m908 314 1 1-1-1z" fill="#cd9090" stroke="none"/><path d="m685 315 1 1-1-1z" fill="#c06564" stroke="none"/><path d="m910 315 1 1-1-1m-228 1 1 1-1-1z" fill="#cd9090" stroke="none"/><path d="m683 316 1 1-1-1z" fill="#c06564" stroke="none"/><path d="m912 316 1 1-1-1m-232 1 1 1-1-1z" fill="#cd9090" stroke="none"/><path d="m681 317 1 1-1-1m233 0 1 1-1-1z" fill="#c06564" stroke="none"/><path d="m915 317 1 1-1-1m-237 1 1 1-1-1z" fill="#cd9090" stroke="none"/><path d="m917 318 1 1-1-1z" fill="#c06564" stroke="none"/><path d="m676 319 1 1-1-1z" fill="#cd9090" stroke="none"/><path d="m919 319 1 1-1-1z" fill="#c06564" stroke="none"/><path d="m920 319 1 1-1-1m-246 1 1 1-1-1z" fill="#cd9090" stroke="none"/><path d="m923 320 1 1-1-1m-322 1-1 2 1-2z" fill="#c06564" stroke="none"/><path d="m672 321 1 1-1-1z" fill="#cd9090" stroke="none"/><path d="m673 321 1 1-1-1m253 0 1 1-1-1z" fill="#c06564" stroke="none"/><path d="m927 321 1 1-1-1z" fill="#cd9090" stroke="none"/><path d="m1055 321 1 1-1-1z" fill="#c06564" stroke="none"/><path d="m601 322 1 1-1-1z" fill="#cd9090" stroke="none"/><path d="m671 322 1 1-1-1z" fill="#c06564" stroke="none"/><path d="m930 322 1 1-1-1z" fill="#cd9090" stroke="none"/><path d="m1056 322 2 2-2-2m-457 1 1 1-1-1m70 0 1 1-1-1z" fill="#c06564" stroke="none"/><path d="m932 323 1 1-1-1m124 0 1 1-1-1m-389 1 1 1-1-1m267 0 1 1-1-1m-269 1 1 1-1-1m271 0 1 1-1-1z" fill="#cd9090" stroke="none"/><path d="m595 326-1 2 1-2m69 0 1 1-1-1z" fill="#c06564" stroke="none"/><path d="m938 326 1 1-1-1z" fill="#cd9090" stroke="none"/><path d="m1061 326 1 1-1-1z" fill="#c06564" stroke="none"/><path d="m595 327 1 1-1-1m67 0 1 1-1-1m278 0 1 1-1-1z" fill="#cd9090" stroke="none"/><path d="m1062 327 1 1-1-1m-401 1 1 1-1-1z" fill="#c06564" stroke="none"/><path d="m942 328 1 1-1-1z" fill="#cd9090" stroke="none"/><path d="m659 329 1 1-1-1z" fill="#c06564" stroke="none"/><path d="m944 329 1 1-1-1m-287 1 1 1-1-1z" fill="#cd9090" stroke="none"/><path d="m945 330 1 1-1-1z" fill="#c06564" stroke="none"/><path d="m946 330 1 1-1-1z" fill="#cd9090" stroke="none"/><path d="m656 331 1 1-1-1m291 0 1 1-1-1z" fill="#c06564" stroke="none"/><path d="m948 331 1 1-1-1z" fill="#cd9090" stroke="none"/><path d="m949 332 1 1-1-1z" fill="#c06564" stroke="none"/><path d="m950 332 1 1-1-1z" fill="#cd9090" stroke="none"/><path d="m587 333 1 1-1-1z" fill="#c06564" stroke="none"/><path d="m653 333 1 1-1-1z" fill="#cd9090" stroke="none"/><path d="m951 333 1 1-1-1m-368 4 4-2-4 2m69-3 1 1-1-1m301 0 1 1-1-1m118 0 1 1-1-1z" fill="#c06564" stroke="none"/><path d="m585 335 1 1-1-1m65 0 1 1-1-1z" fill="#cd9090" stroke="none"/><path d="m955 335 1 1-1-1z" fill="#c06564" stroke="none"/><path d="m584 336 1 1-1-1z" fill="#cd9090" stroke="none"/><path d="m649 336 1 1-1-1z" fill="#c06564" stroke="none"/><path d="m957 336 1 1-1-1z" fill="#cd9090" stroke="none"/><path d="m582 337 1 1-1-1m66 0 1 1-1-1m310 0 1 1-1-1m116 0 1 1-1-1m-493 1-1 2 1-2z" fill="#c06564" stroke="none"/><path d="m646 338 1 1-1-1m314 0 1 1-1-1z" fill="#cd9090" stroke="none"/><path d="m1075 338 1 1-1-1z" fill="#c06564" stroke="none"/><path d="m581 339 1 1-1-1z" fill="#cd9090" stroke="none"/><path d="m645 339 1 1-1-1m316 0 1 1-1-1m115 0 1 1-1-1m-497 1 1 1-1-1m65 0 1 1-1-1z" fill="#c06564" stroke="none"/><path d="m963 340 1 1-1-1z" fill="#cd9090" stroke="none"/><path d="m578 341-1 2 1-2m386 0 1 1-1-1m114 0 2 2-2-2z" fill="#c06564" stroke="none"/><path d="m578 342 1 1-1-1m63 0 1 1-1-1m325 0 1 1-1-1m112 0 1 1-1-1m-438 1 1 1-1-1z" fill="#cd9090" stroke="none"/><path d="m967 343 1 1-1-1z" fill="#c06564" stroke="none"/><path d="m639 344 1 1-1-1z" fill="#cd9090" stroke="none"/><path d="m968 344 1 1-1-1m-395 1-6 7 6-7m65 0 1 1-1-1z" fill="#c06564" stroke="none"/><path d="m970 345 1 1-1-1m-397 1 1 1-1-1z" fill="#cd9090" stroke="none"/><path d="m637 346 1 1-1-1z" fill="#c06564" stroke="none"/><path d="m971 346 1 1-1-1m-399 1 1 1-1-1z" fill="#cd9090" stroke="none"/><path d="m972 347 1 1-1-1m113 0 1 1-1-1z" fill="#c06564" stroke="none"/><path d="m571 348 1 1-1-1z" fill="#cd9090" stroke="none"/><path d="m973 348 1 1-1-1m113 0 3 3-3-3z" fill="#c06564" stroke="none"/><path d="m570 349 1 1-1-1m63 0 1 1-1-1m453 0 1 1-1-1m-517 1 1 1-1-1m63 0 1 1-1-1m344 0 1 1-1-1m111 0 1 1-1-1m-519 1 1 1-1-1m63 0 1 1-1-1m346 0 1 1-1-1m-347 1 1 1-1-1m348 0 1 1-1-1m-349 1 1 1-1-1z" fill="#cd9090" stroke="none"/><path d="m979 353 1 1-1-1z" fill="#c06564" stroke="none"/><path d="m628 354 1 1-1-1z" fill="#cd9090" stroke="none"/><path d="m980 354 1 1-1-1z" fill="#c06564" stroke="none"/><path d="m627 355 1 1-1-1z" fill="#cd9090" stroke="none"/><path d="m981 355 1 1-1-1m-418 1 1 1-1-1m63 0 1 1-1-1m356 0 1 1-1-1z" fill="#c06564" stroke="none"/><path d="m625 357 1 1-1-1z" fill="#cd9090" stroke="none"/><path d="m983 357 1 1-1-1z" fill="#c06564" stroke="none"/><path d="m624 358 1 1-1-1z" fill="#cd9090" stroke="none"/><path d="m984 358 1 1-1-1z" fill="#c06564" stroke="none"/><path d="m623 359 1 1-1-1z" fill="#cd9090" stroke="none"/><path d="m559 360-4 6h1l3-6z" fill="#c06564" stroke="none"/><path d="m622 360 1 1-1-1z" fill="#cd9090" stroke="none"/><path d="m1097 360 3 3-3-3z" fill="#c06564" stroke="none"/><path d="m559 361 1 1-1-1m62 0 1 1-1-1m476 0 1 1-1-1m-539 1 1 1-1-1m62 0 1 1-1-1m478 0 1 1-1-1m-541 1 1 1-1-1m62 0 1 1-1-1z" fill="#cd9090" stroke="none"/><path d="m1100 363 2 2-2-2z" fill="#c06564" stroke="none"/><path d="m1100 364 1 1-1-1z" fill="#cd9090" stroke="none"/><path d="m991 365 1 1-1-1m1 1 1 1-1-1m-376 1 1 1-1-1m377 0 1 1-1-1m-378 1 1 1-1-1m379 0 1 1-1-1m-380 1 1 1-1-1m381 0 1 1-1-1m-445 1 1 1-1-1z" fill="#c06564" stroke="none"/><path d="m613 370 1 1-1-1z" fill="#cd9090" stroke="none"/><path d="m996 370 1 1-1-1m110 0 1 1-1-1m-109 1 1 1-1-1m-448 1 1 1-1-1m449 0 1 1-1-1m-450 1 1 1-1-1m63 0 1 1-1-1m388 0 1 1-1-1m-389 1 1 1-1-1z" fill="#c06564" stroke="none"/><path d="m1000 374 1 1-1-1m-391 1 1 1-1-1m392 0 1 1-1-1z" fill="#cd9090" stroke="none"/><path d="m545 376-1 2 1-2z" fill="#c06564" stroke="none"/><path d="m1002 376 1 1-1-1m-457 1 1 1-1-1z" fill="#cd9090" stroke="none"/><path d="m608 377 1 1-1-1z" fill="#c06564" stroke="none"/><path d="m1003 377 1 1-1-1z" fill="#cd9090" stroke="none"/><path d="m1112 377 1 1-1-1m-505 1 1 1-1-1z" fill="#c06564" stroke="none"/><path d="m1004 378 1 1-1-1z" fill="#cd9090" stroke="none"/><path d="m543 379 1 1-1-1z" fill="#c06564" stroke="none"/><path d="m606 379 1 1-1-1z" fill="#cd9090" stroke="none"/><path d="m1113 379 1 1-1-1m-571 1-1 3h1v-3m572 0 2 2-2-2z" fill="#c06564" stroke="none"/><path d="m542 381 1 1-1-1z" fill="#cd9090" stroke="none"/><path d="m605 381 1 1-1-1z" fill="#c06564" stroke="none"/><path d="m1114 381 1 1-1-1m-510 1 1 1-1-1z" fill="#cd9090" stroke="none"/><path d="m1008 383 1 1-1-1m-405 1 1 1-1-1m406 0 1 1-1-1z" fill="#c06564" stroke="none"/><path d="m602 385 1 1-1-1z" fill="#cd9090" stroke="none"/><path d="m1010 385 1 1-1-1z" fill="#c06564" stroke="none"/><path d="m1011 386 1 1-1-1z" fill="#cd9090" stroke="none"/><path d="m601 387 1 1-1-1z" fill="#c06564" stroke="none"/><path d="m1012 387 1 1-1-1z" fill="#cd9090" stroke="none"/><path d="m536 388 1 1-1-1z" fill="#c06564" stroke="none"/><path d="m600 388 1 1-1-1m-1 2 1 1-1-1z" fill="#cd9090" stroke="none"/><path d="m1015 391 1 1-1-1m-482 1 1 1-1-1m65 0 1 1-1-1m418 0 1 1-1-1m107 0 1 1-1-1m-106 1 1 1-1-1m-420 1 1 1-1-1z" fill="#c06564" stroke="none"/><path d="m1018 394 1 1-1-1z" fill="#cd9090" stroke="none"/><path d="m531 395 1 1-1-1m594 0 1 1-1-1m-529 1 1 1-1-1m-66 1-2 3 2-3m596 0 3 3-3-3z" fill="#c06564" stroke="none"/><path d="m530 398 1 1-1-1z" fill="#cd9090" stroke="none"/><path d="m595 398 1 1-1-1m426 0 1 1-1-1z" fill="#c06564" stroke="none"/><path d="m1126 398 1 1-1-1m-597 1 1 1-1-1z" fill="#cd9090" stroke="none"/><path d="m1022 399 1 1-1-1z" fill="#c06564" stroke="none"/><path d="m1127 399 1 1-1-1z" fill="#cd9090" stroke="none"/><path d="m594 400 1 1-1-1z" fill="#c06564" stroke="none"/><path d="m1023 400 1 1-1-1z" fill="#cd9090" stroke="none"/><path d="m527 401-2 4h1l1-4z" fill="#c06564" stroke="none"/><path d="m527 402 1 1-1-1m66 0 1 1-1-1z" fill="#cd9090" stroke="none"/><path d="m1130 402 1 1-1-1m-537 1 1 1-1-1m432 0 1 1-1-1z" fill="#c06564" stroke="none"/><path d="m526 404 1 1-1-1z" fill="#cd9090" stroke="none"/><path d="m1026 404 1 1-1-1m-434 1 1 1-1-1z" fill="#c06564" stroke="none"/><path d="m1027 405 1 1-1-1m-436 2 1 1-1-1z" fill="#cd9090" stroke="none"/><path d="m591 408 1 1-1-1m438 0 1 1-1-1m1 1 1 1-1-1z" fill="#c06564" stroke="none"/><path d="m590 410 1 1-1-1m441 0 1 1-1-1z" fill="#cd9090" stroke="none"/><path d="m521 411-2 5h1l1-5m69 0 1 1-1-1m545 0 1 3h1l-2-3z" fill="#c06564" stroke="none"/><path d="m521 412 1 1-1-1m614 0 1 1-1-1m-546 1 1 1-1-1z" fill="#cd9090" stroke="none"/><path d="m1033 413 1 1-1-1z" fill="#c06564" stroke="none"/><path d="m520 414 1 1-1-1z" fill="#cd9090" stroke="none"/><path d="m589 414 1 1-1-1z" fill="#c06564" stroke="none"/><path d="m1034 414 1 1-1-1z" fill="#cd9090" stroke="none"/><path d="m1137 414 1 1-1-1m-619 2 1 1-1-1m620 0 1 1-1-1m-621 1 1 1-1-1z" fill="#c06564" stroke="none"/><path d="m588 417 1 1-1-1z" fill="#cd9090" stroke="none"/><path d="m1036 417 1 1-1-1m103 0 1 1-1-1m-551 1 1 1-1-1z" fill="#c06564" stroke="none"/><path d="m1037 418 1 1-1-1m1 1 1 1-1-1m-451 1 1 1-1-1z" fill="#cd9090" stroke="none"/><path d="m587.333 421.667.334.666-.334-.666M1039 421l1 1-1-1z" fill="#c06564" stroke="none"/><path d="m1040 422 1 1-1-1m-453.667 2.667.334.666-.334-.666z" fill="#cd9090" stroke="none"/><path d="m1041 424 1 1-1-1m-528 1-3 6 3-6m529 0 1 1-1-1m101 0 2 4h1l-3-4z" fill="#c06564" stroke="none"/><path d="m513.333 426.667.334.666-.334-.666z" fill="#cd9090" stroke="none"/><path d="m586 426 1 1-1-1z" fill="#c06564" stroke="none"/><path d="m1043 426 1 1-1-1m100 0 1 1-1-1z" fill="#cd9090" stroke="none"/><path d="m1044 428 1 1-1-1z" fill="#c06564" stroke="none"/><path d="m1144 428 1 1-1-1m-632 1 1 1-1-1m73.333.667.334.666-.334-.666M1045 429l1 1-1-1z" fill="#cd9090" stroke="none"/><path d="m585.333 431.667.334.666-.334-.666M1046 431l1 1-1-1z" fill="#c06564" stroke="none"/><path d="m1047 432 1 1-1-1z" fill="#cd9090" stroke="none"/><path d="m508 435 1 1-1-1m541 0 1 1-1-1z" fill="#c06564" stroke="none"/><path d="m584.333 436.667.334.666-.334-.666M1050 436l1 1-1-1z" fill="#cd9090" stroke="none"/><path d="m298 437 1 1-1-1m1060 0 1 1-1-1z" fill="#910a0a" stroke="none"/><path d="M584 438v6h1l-1-6z" fill="#c06564" stroke="none"/><path d="m1051 438 1 1-1-1z" fill="#cd9090" stroke="none"/><path d="m1052 440 1 1-1-1m-547 1 1 1-1-1z" fill="#c06564" stroke="none"/><path d="m1053 441 1 1-1-1z" fill="#cd9090" stroke="none"/><path d="m1151 441 1 1-1-1m-647 2-1 3 1-3m648 0 2 3-2-3z" fill="#c06564" stroke="none"/><path d="m296 444 1 1-1-1z" fill="#910a0a" stroke="none"/><path d="m1055 444 1 1-1-1z" fill="#c06564" stroke="none"/><path d="m1360 444 1 1-1-1z" fill="#910a0a" stroke="none"/><path d="m504 445 1 1-1-1m552 0 1 1-1-1m96 0 1 1-1-1z" fill="#cd9090" stroke="none"/><path d="m502 447 1 1-1-1m82 0v7h1l-1-7m570 0 1 1-1-1m-96 1 1 1-1-1z" fill="#c06564" stroke="none"/><path d="m1059 449 1 1-1-1m1 1 1 1-1-1z" fill="#cd9090" stroke="none"/><path d="m1062 453 1 1-1-1m-563 1 1 1-1-1z" fill="#c06564" stroke="none"/><path d="M584 454v3h1l-1-3m479 0 1 1-1-1z" fill="#cd9090" stroke="none"/><path d="m1064 456 1 1-1-1z" fill="#c06564" stroke="none"/><path d="m1065 457 1 1-1-1z" fill="#cd9090" stroke="none"/><path d="m497 459 1 1-1-1m88.333.667.334.666-.334-.666M1066 459l1 1-1-1z" fill="#c06564" stroke="none"/><path d="m1067 460 1 1-1-1m-482 1 1 1-1-1z" fill="#cd9090" stroke="none"/><path d="m1067 461 1 1-1-1z" fill="#c06564" stroke="none"/><path d="m1068 462 1 1-1-1z" fill="#cd9090" stroke="none"/><path d="m496 463 1 1-1-1m664 0 1 1-1-1m-574 1 1 1-1-1m483 0 1 1-1-1z" fill="#c06564" stroke="none"/><path d="m586 465 1 1-1-1z" fill="#cd9090" stroke="none"/><path d="m1070 466 1 1-1-1m-483 2 1 1-1-1m484 0 1 1-1-1z" fill="#c06564" stroke="none"/><path d="m587 469 1 1-1-1z" fill="#cd9090" stroke="none"/><path d="m1072 470 1 1-1-1m-578.667 1.667.334.666-.334-.666M588 471l1 1-1-1m575.33.667.34.666-.34-.666M1073 472l1 1-1-1m-484 1 1 1-1-1m-97 1 1 1-1-1z" fill="#c06564" stroke="none"/><path d="m589 474 1 1-1-1z" fill="#cd9090" stroke="none"/><path d="m1074 474 1 1-1-1m90 0 1 1-1-1m-673 2v3h1l-1-3m99 0 1 1-1-1z" fill="#c06564" stroke="none"/><path d="m1075 476 1 1-1-1z" fill="#cd9090" stroke="none"/><path d="m1165 476 1 1-1-1m-90 1 1 1-1-1m-484 1 1 1-1-1m485 1 1 1-1-1m-585.667 1.667.334.666-.334-.666z" fill="#c06564" stroke="none"/><path d="m592 480 1 1-1-1z" fill="#cd9090" stroke="none"/><path d="m1166.33 480.667.34.666-.34-.666z" fill="#c06564" stroke="none"/><path d="m1077 481 1 1-1-1m-484 1 1 1-1-1z" fill="#cd9090" stroke="none"/><path d="m1077 482 1 1-1-1m-588 1-1 5h1v-5m105 0 1 1-1-1m573.33.667.34.666-.34-.666z" fill="#c06564" stroke="none"/><path d="m1078 484 1 1-1-1m-483 1 1 1-1-1z" fill="#cd9090" stroke="none"/><path d="m1078 485 1 1-1-1z" fill="#c06564" stroke="none"/><path d="m489.333 486.667.334.666-.334-.666z" fill="#cd9090" stroke="none"/><path d="m596 486 1 1-1-1m572 0 1 1-1-1z" fill="#c06564" stroke="none"/><path d="m1079 488 1 1-1-1z" fill="#cd9090" stroke="none"/><path d="m286 489 1 1-1-1z" fill="#910a0a" stroke="none"/><path d="m598 489 1 1-1-1z" fill="#cd9090" stroke="none"/><path d="m1079 489 1 1-1-1z" fill="#c06564" stroke="none"/><path d="m1370 489 1 1-1-1z" fill="#910a0a" stroke="none"/><path d="m599 490 1 1-1-1m1 1 1 1-1-1z" fill="#c06564" stroke="none"/><path d="m1080 491 1 1-1-1z" fill="#cd9090" stroke="none"/><path d="m1080.33 492.667.34.666-.34-.666M601 493l1 1-1-1z" fill="#c06564" stroke="none"/><path d="m601 494 1 1-1-1z" fill="#cd9090" stroke="none"/><path d="m602 496 1 1-1-1z" fill="#c06564" stroke="none"/><path d="m1081 496 1 1-1-1z" fill="#cd9090" stroke="none"/><path d="M485 497v4h1l-1-4z" fill="#c06564" stroke="none"/><path d="m602 497 1 1-1-1z" fill="#cd9090" stroke="none"/><path d="m1081.33 497.667.34.666-.34-.666M1171 497v4h1l-1-4m-568 2 1 1-1-1z" fill="#c06564" stroke="none"/><path d="m486 500 1 1-1-1m117 0 1 1-1-1m567 0 1 1-1-1m-87.67 1.667.34.666-.34-.666z" fill="#cd9090" stroke="none"/><path d="m604.333 502.667.334.666-.334-.666M484 503v3h1l-1-3m598 0v3h1l-1-3m90.33.667.34.666-.34-.666z" fill="#c06564" stroke="none"/><path d="m603 505 1 1-1-1z" fill="#cd9090" stroke="none"/><path d="m603.333 506.667.334.666-.334-.666M483 507v5h1l-1-5m690 0 1 1-1-1z" fill="#c06564" stroke="none"/><path d="m602 509 1 1-1-1z" fill="#cd9090" stroke="none"/><path d="m602 510 1 1-1-1m571 0 1 1-1-1z" fill="#c06564" stroke="none"/><path d="m601 513 1 1-1-1z" fill="#cd9090" stroke="none"/><path d="M482 514v4h1l-1-4m119 0 1 1-1-1m573 0v3h1l-1-3z" fill="#c06564" stroke="none"/><path d="m600 517 1 1-1-1z" fill="#cd9090" stroke="none"/><path d="m600.333 518.667.334.666-.334-.666M481 519v5h1l-1-5m694 1v4h1l-1-4m-93 1v3h1l-1-3z" fill="#c06564" stroke="none"/><path d="m599.333 522.667.334.666-.334-.666z" fill="#cd9090" stroke="none"/><path d="m599 524 1 1-1-1z" fill="#c06564" stroke="none"/><path d="m1082.33 524.667.34.666-.34-.666m-483.997 4 .334.666-.334-.666z" fill="#cd9090" stroke="none"/><path d="m1081.33 529.667.34.666-.34-.666m-482.997 1 .334.666-.334-.666z" fill="#c06564" stroke="none"/><path d="m1081 531 1 1-1-1z" fill="#cd9090" stroke="none"/><path d="m1080 534 1 1-1-1z" fill="#c06564" stroke="none"/><path d="m597.333 535.667.334.666-.334-.666M1080 535l1 1-1-1z" fill="#cd9090" stroke="none"/><path d="M597 537v3h1l-1-3m482 1 1 1-1-1z" fill="#c06564" stroke="none"/><path d="m1079 539 1 1-1-1z" fill="#cd9090" stroke="none"/><path d="m1078 541 1 1-1-1z" fill="#c06564" stroke="none"/><path d="m1078 542 1 1-1-1z" fill="#cd9090" stroke="none"/><path d="m478 544 1 1-1-1m599 0 1 1-1-1m101 0 1 1-1-1z" fill="#c06564" stroke="none"/><path d="m1077 545 1 1-1-1m-481 2v9h1l-1-9m480 0 1 1-1-1z" fill="#cd9090" stroke="none"/><path d="m1075 549 1 1-1-1m-1 2 1 1-1-1m-1 3v3h1l-1-3m-476.667 2.667.334.666-.334-.666z" fill="#c06564" stroke="none"/><path d="m1073.33 557.667.34.666-.34-.666M596 558l1 1-1-1z" fill="#cd9090" stroke="none"/><path d="m596.333 559.667.334.666-.334-.666z" fill="#c06564" stroke="none"/><path d="m596 561 1 1-1-1z" fill="#cd9090" stroke="none"/><path d="m596.333 562.667.334.666-.334-.666m475.997 0 .34.666-.34-.666z" fill="#c06564" stroke="none"/><path d="M596 564v14h1l-1-14m476 0 1 1-1-1z" fill="#cd9090" stroke="none"/><path d="m1071 568 1 1-1-1z" fill="#c06564" stroke="none"/><path d="m1071.33 569.667.34.666-.34-.666z" fill="#cd9090" stroke="none"/><path d="m1070 573 1 1-1-1z" fill="#c06564" stroke="none"/><path d="m1070 574 1 1-1-1z" fill="#cd9090" stroke="none"/><path d="m1069.33 576.667.34.666-.34-.666M1068 580l1 1-1-1z" fill="#c06564" stroke="none"/><path d="m1068 581 1 1-1-1z" fill="#cd9090" stroke="none"/><path d="m1067 583 1 1-1-1z" fill="#c06564" stroke="none"/><path d="m1067 584 1 1-1-1z" fill="#cd9090" stroke="none"/><path d="M478 585v3h1l-1-3m700.33.667.34.666-.34-.666M1066 586l1 1-1-1z" fill="#c06564" stroke="none"/><path d="m1066 587 1 1-1-1z" fill="#cd9090" stroke="none"/><path d="M597 589v6h1l-1-6m468 0 1 1-1-1z" fill="#c06564" stroke="none"/><path d="m1065 590 1 1-1-1z" fill="#cd9090" stroke="none"/><path d="m1064 592 1 1-1-1m-1 2 1 1-1-1z" fill="#c06564" stroke="none"/><path d="M597 595v5h1l-1-5m466 0 1 1-1-1z" fill="#cd9090" stroke="none"/><path d="m1062 597 1 1-1-1m-1 2 1 1-1-1m-1 2 1 1-1-1z" fill="#c06564" stroke="none"/><path d="m1060 602 1 1-1-1m-1 2 1 1-1-1z" fill="#cd9090" stroke="none"/><path d="M598 606v6h1l-1-6z" fill="#c06564" stroke="none"/><path d="m1058 606 1 1-1-1z" fill="#cd9090" stroke="none"/><path d="m1175 606 1 1-1-1m-118 1 1 1-1-1z" fill="#c06564" stroke="none"/><path d="m1057 608 1 1-1-1z" fill="#cd9090" stroke="none"/><path d="m481 609 1 1-1-1m575 0 1 1-1-1z" fill="#c06564" stroke="none"/><path d="m1056 610 1 1-1-1z" fill="#cd9090" stroke="none"/><path d="m1055 611 1 1-1-1m120 0 1 1-1-1z" fill="#c06564" stroke="none"/><path d="m1055 612 1 1-1-1z" fill="#cd9090" stroke="none"/><path d="m1054 613 1 1-1-1z" fill="#c06564" stroke="none"/><path d="m597 615 1 1-1-1m456 0 1 1-1-1z" fill="#cd9090" stroke="none"/><path d="m1174.33 615.667.34.666-.34-.666M482 616l1 1-1-1m115 0 1 1-1-1z" fill="#c06564" stroke="none"/><path d="m1052 617 1 1-1-1z" fill="#cd9090" stroke="none"/><path d="m1051 618 1 1-1-1z" fill="#c06564" stroke="none"/><path d="m596 619 1 1-1-1z" fill="#cd9090" stroke="none"/><path d="m1173 619 1 1-1-1m-577 1 1 1-1-1m454 0 1 1-1-1m-1 1 1 1-1-1m124.33 1.667.34.666-.34-.666z" fill="#c06564" stroke="none"/><path d="m595 623 1 1-1-1z" fill="#cd9090" stroke="none"/><path d="m1048 623 1 1-1-1m-453 1 1 1-1-1m-110.667 2.667.334.666-.334-.666z" fill="#c06564" stroke="none"/><path d="m1046 626 1 1-1-1z" fill="#cd9090" stroke="none"/><path d="m1172 626 1 1-1-1z" fill="#c06564" stroke="none"/><path d="m594 627 1 1-1-1z" fill="#cd9090" stroke="none"/><path d="m1045 627 1 1-1-1m-451 1 1 1-1-1z" fill="#c06564" stroke="none"/><path d="m1044 629 1 1-1-1m-1 1 1 1-1-1m-450 1 1 1-1-1z" fill="#cd9090" stroke="none"/><path d="m1042 631 1 1-1-1m-449 1 1 1-1-1m578 0 1 1-1-1z" fill="#c06564" stroke="none"/><path d="m1040 634 1 1-1-1m-448 1 1 1-1-1m447 0 1 1-1-1z" fill="#cd9090" stroke="none"/><path d="m592 636 1 1-1-1m446 0 1 1-1-1m-283 1 1 1-1-1z" fill="#c06564" stroke="none"/><path d="m591 639 1 1-1-1z" fill="#cd9090" stroke="none"/><path d="m1036 639 1 1-1-1m-445 1 1 1-1-1z" fill="#c06564" stroke="none"/><path d="m286 641 1 1-1-1m1084 0 1 1-1-1z" fill="#910a0a" stroke="none"/><path d="m590 643 1 1-1-1m446 0v3h1l-1-3z" fill="#cd9090" stroke="none"/><path d="m488 644 1 1-1-1m102.333.667.334.666-.334-.666M1168 644l1 1-1-1m-132 2v7h1l-1-7m131.33.667.34.666-.34-.666M489 647l1 1-1-1m1 2 1 1-1-1z" fill="#c06564" stroke="none"/><path d="m589.333 649.667.334.666-.334-.666z" fill="#cd9090" stroke="none"/><path d="m1166.33 649.667.34.666-.34-.666M589 651v3h1l-1-3m576 1v3h1l-1-3m-674 2 1 1-1-1m1 2 1 1-1-1m97.333.667.334.666-.334-.666M1164 656l1 1-1-1z" fill="#c06564" stroke="none"/><path d="m589 658 1 1-1-1z" fill="#cd9090" stroke="none"/><path d="m1163 659 1 1-1-1m-573 1 1 1-1-1m446 0v7h1l-1-7z" fill="#c06564" stroke="none"/><path d="m590 661 1 1-1-1z" fill="#cd9090" stroke="none"/><path d="m591.333 663.667.334.666-.334-.666M592 666l1 1-1-1z" fill="#c06564" stroke="none"/><path d="m592 667 1 1-1-1m444 0v4h1l-1-4z" fill="#cd9090" stroke="none"/><path d="m593 669 1 1-1-1m1 2 1 1-1-1m1 2 1 1-1-1m440.33 1.667.34.666-.34-.666M596 675l1 1-1-1z" fill="#c06564" stroke="none"/><path d="m1035.33 676.667.34.666-.34-.666M597 677l1 1-1-1z" fill="#cd9090" stroke="none"/><path d="M598 681v3h1l-1-3m436.33.667.34.666-.34-.666z" fill="#c06564" stroke="none"/><path d="m1034 683 1 1-1-1m-435.667 1.667.334.666-.334-.666z" fill="#cd9090" stroke="none"/><path d="m503 685 1 3h1l-2-3z" fill="#c06564" stroke="none"/><path d="m504 685 1 1-1-1z" fill="#cd9090" stroke="none"/><path d="m1033.33 685.667.34.666-.34-.666M1153 685l1 1-1-1z" fill="#c06564" stroke="none"/><path d="m296 686 1 1-1-1z" fill="#910a0a" stroke="none"/><path d="m1152.33 686.667.34.666-.34-.666z" fill="#c06564" stroke="none"/><path d="m1360 686 1 1-1-1z" fill="#910a0a" stroke="none"/><path d="m1033 687 1 1-1-1z" fill="#cd9090" stroke="none"/><path d="m599.333 689.667.334.666-.334-.666M1032 689l1 1-1-1m119 0 1 1-1-1z" fill="#c06564" stroke="none"/><path d="m1032 690 1 1-1-1m-432.667 1.667.334.666-.334-.666z" fill="#cd9090" stroke="none"/><path d="m1031 692 1 1-1-1z" fill="#c06564" stroke="none"/><path d="m298 693 1 1-1-1z" fill="#910a0a" stroke="none"/><path d="m1031 693 1 1-1-1z" fill="#cd9090" stroke="none"/><path d="m1358 693 1 1-1-1z" fill="#910a0a" stroke="none"/><path d="m1030 695 1 1-1-1m-429.667 1.667.334.666-.334-.666z" fill="#c06564" stroke="none"/><path d="m1030 696 1 1-1-1m-429.667 2.667.334.666-.334-.666z" fill="#cd9090" stroke="none"/><path d="m1029 698 1 1-1-1z" fill="#c06564" stroke="none"/><path d="m1029 699 1 1-1-1z" fill="#cd9090" stroke="none"/><path d="m510 700 1 3h1l-2-3z" fill="#c06564" stroke="none"/><path d="m511 700 1 1-1-1m634 0 1 1-1-1z" fill="#cd9090" stroke="none"/><path d="m1146 700 1 1-1-1z" fill="#c06564" stroke="none"/><path d="m1028 701 1 1-1-1z" fill="#cd9090" stroke="none"/><path d="m1145 701-2 5h1l1-5m-543.667 1.667.334.666-.334-.666z" fill="#c06564" stroke="none"/><path d="m1144 702 1 1-1-1z" fill="#cd9090" stroke="none"/><path d="m1027 703 1 1-1-1m-515 1 2 2-2-2z" fill="#c06564" stroke="none"/><path d="m513 704 1 1-1-1m630 0 1 1-1-1z" fill="#cd9090" stroke="none"/><path d="m1026 705 1 1-1-1z" fill="#c06564" stroke="none"/><path d="m602 706 1 1-1-1z" fill="#cd9090" stroke="none"/><path d="m1025 707 1 1-1-1m-422 1 1 1-1-1z" fill="#c06564" stroke="none"/><path d="m1025 708 1 1-1-1z" fill="#cd9090" stroke="none"/><path d="m1024 709 1 1-1-1z" fill="#c06564" stroke="none"/><path d="m604 710 1 1-1-1z" fill="#cd9090" stroke="none"/><path d="m1023 711 1 1-1-1m-417 2 1 1-1-1z" fill="#c06564" stroke="none"/><path d="m1022 713 1 1-1-1z" fill="#cd9090" stroke="none"/><path d="m518 714 1 1-1-1m503 0 1 1-1-1m117 0 1 1-1-1m-531 1 1 1-1-1m-88 1 1 1-1-1m501 0 1 1-1-1m117 0 1 1-1-1m-529 1 1 1-1-1m-88 1 1 1-1-1z" fill="#c06564" stroke="none"/><path d="m1019 718 1 1-1-1z" fill="#cd9090" stroke="none"/><path d="m1136 718 1 1-1-1m-615 1 1 1-1-1m88 0 1 1-1-1m409 0 1 1-1-1m117 0 1 1-1-1z" fill="#c06564" stroke="none"/><path d="m610 721 1 1-1-1z" fill="#cd9090" stroke="none"/><path d="m611 722 1 1-1-1z" fill="#c06564" stroke="none"/><path d="m1016 722 1 1-1-1z" fill="#cd9090" stroke="none"/><path d="m1015 723 1 1-1-1z" fill="#c06564" stroke="none"/><path d="m612 724 1 1-1-1z" fill="#cd9090" stroke="none"/><path d="m613 725 1 1-1-1m-88 1 1 1-1-1z" fill="#c06564" stroke="none"/><path d="m1013 726 1 1-1-1z" fill="#cd9090" stroke="none"/><path d="m1131 726 1 1-1-1z" fill="#c06564" stroke="none"/><path d="m614 727 1 1-1-1z" fill="#cd9090" stroke="none"/><path d="m1012 727 1 1-1-1m-486 1 1 1-1-1m89 0 1 1-1-1m396 0 1 1-1-1m119 0 1 1-1-1m-514 1 1 1-1-1m394 0 1 1-1-1m-481 3 1 1-1-1z" fill="#c06564" stroke="none"/><path d="m618 732 1 1-1-1z" fill="#cd9090" stroke="none"/><path d="m1127 732 1 1-1-1z" fill="#c06564" stroke="none"/><path d="m619 733 1 1-1-1m1 1 1 1-1-1m386 0 1 1-1-1z" fill="#cd9090" stroke="none"/><path d="m531 735 1 1-1-1m90 0 1 1-1-1z" fill="#c06564" stroke="none"/><path d="m1005 735 1 1-1-1z" fill="#cd9090" stroke="none"/><path d="m1125 735 1 1-1-1m-503 1 1 1-1-1z" fill="#c06564" stroke="none"/><path d="m1004 736 1 1-1-1m-381 1 1 1-1-1z" fill="#cd9090" stroke="none"/><path d="m533 738 1 1-1-1z" fill="#c06564" stroke="none"/><path d="m624 738 1 1-1-1z" fill="#cd9090" stroke="none"/><path d="m1123 738 1 1-1-1z" fill="#c06564" stroke="none"/><path d="m625 739 1 1-1-1m1 1 1 1-1-1z" fill="#cd9090" stroke="none"/><path d="m999 740 1 1-1-1m-1 1 1 1-1-1m-369 1 1 1-1-1m368 0 1 1-1-1m-367 1 1 1-1-1z" fill="#c06564" stroke="none"/><path d="m996 743 1 1-1-1m-365 1 1 1-1-1m364 0 1 1-1-1z" fill="#cd9090" stroke="none"/><path d="m993 745 1 1-1-1m-359 1 1 1-1-1z" fill="#c06564" stroke="none"/><path d="m992 746 1 1-1-1m-357 1 1 1-1-1z" fill="#cd9090" stroke="none"/><path d="m637 748 1 1-1-1m352 0 1 1-1-1m-448 1 2 2-2-2z" fill="#c06564" stroke="none"/><path d="m542 749 1 1-1-1m96 0 1 1-1-1z" fill="#cd9090" stroke="none"/><path d="m639 749 1 1-1-1z" fill="#c06564" stroke="none"/><path d="m988 749 1 1-1-1m126 0 1 1-1-1z" fill="#cd9090" stroke="none"/><path d="m1115 749 1 1-1-1z" fill="#c06564" stroke="none"/><path d="m640 750 1 1-1-1z" fill="#cd9090" stroke="none"/><path d="m986 750 1 1-1-1m128 0 1 1-1-1m-472 1 1 1-1-1z" fill="#c06564" stroke="none"/><path d="m985 751 1 1-1-1z" fill="#cd9090" stroke="none"/><path d="m644 752 1 1-1-1m339 0 1 1-1-1m-337 1 1 1-1-1m335 0 1 1-1-1m-333 1 1 1-1-1z" fill="#c06564" stroke="none"/><path d="m980 754 1 1-1-1m-330 1 1 1-1-1m328 0 1 1-1-1m-326 1 1 1-1-1z" fill="#cd9090" stroke="none"/><path d="m653 756 1 1-1-1m323 0 1 1-1-1m-428 1 1 1-1-1m107 0 1 1-1-1m319 0 1 1-1-1z" fill="#c06564" stroke="none"/><path d="m657 758 1 1-1-1z" fill="#cd9090" stroke="none"/><path d="m658 758 1 1-1-1m314 0 1 1-1-1z" fill="#c06564" stroke="none"/><path d="m660 759 1 1-1-1z" fill="#cd9090" stroke="none"/><path d="m661 759 1 1-1-1m309 0 1 1-1-1m-420 1 1 1-1-1z" fill="#c06564" stroke="none"/><path d="m663 760 1 1-1-1z" fill="#cd9090" stroke="none"/><path d="m664 760 1 1-1-1m304 0 1 1-1-1m138 0 1 1-1-1z" fill="#c06564" stroke="none"/><path d="m666 761 1 1-1-1z" fill="#cd9090" stroke="none"/><path d="m667 761 1 1-1-1z" fill="#c06564" stroke="none"/><path d="m966 761 1 1-1-1m-296 1 1 1-1-1z" fill="#cd9090" stroke="none"/><path d="m671 762 1 1-1-1m292 0 1 1-1-1z" fill="#c06564" stroke="none"/><path d="m964 762 1 1-1-1m-290 1 1 1-1-1z" fill="#cd9090" stroke="none"/><path d="m675 763 1 1-1-1m286 0 1 1-1-1z" fill="#c06564" stroke="none"/><path d="m678 764 1 1-1-1z" fill="#cd9090" stroke="none"/><path d="m679.667 764.333.666.334-.666-.334M958 764l1 1-1-1z" fill="#c06564" stroke="none"/><path d="m959 764 1 1-1-1m-276 1 1 1-1-1z" fill="#cd9090" stroke="none"/><path d="m684 765 1 1-1-1m272 0 1 1-1-1m-401 1 2 2-2-2z" fill="#c06564" stroke="none"/><path d="m556 766 1 1-1-1z" fill="#cd9090" stroke="none"/><path d="m687 766 1 1-1-1m266 0 1 1-1-1z" fill="#c06564" stroke="none"/><path d="m1100 766 1 1-1-1z" fill="#cd9090" stroke="none"/><path d="m1101 766 1 1-1-1m-413 1 1 1-1-1m262 0 1 1-1-1z" fill="#c06564" stroke="none"/><path d="m951 767 1 1-1-1z" fill="#cd9090" stroke="none"/><path d="m1100 767 1 1-1-1m-154 1 1 1-1-1z" fill="#c06564" stroke="none"/><path d="m947 768 1 1-1-1z" fill="#cd9090" stroke="none"/><path d="m1099 768 1 1-1-1m-541 1 1 1-1-1z" fill="#c06564" stroke="none"/><path d="m689 769 1 1-1-1z" fill="#cd9090" stroke="none"/><path d="m943 769 1 1-1-1z" fill="#c06564" stroke="none"/><path d="m944 769 1 1-1-1z" fill="#cd9090" stroke="none"/><path d="m1098 769 1 1-1-1z" fill="#c06564" stroke="none"/><path d="m690 770 1 1-1-1z" fill="#cd9090" stroke="none"/><path d="m939 770 1 1-1-1z" fill="#c06564" stroke="none"/><path d="m940 770 1 1-1-1z" fill="#cd9090" stroke="none"/><path d="m691 771 1 1-1-1m244 0 1 1-1-1z" fill="#c06564" stroke="none"/><path d="m936 771 1 1-1-1z" fill="#cd9090" stroke="none"/><path d="m930.667 772.333.666.334-.666-.334z" fill="#c06564" stroke="none"/><path d="m932 772 1 1-1-1m-240 1 1 1-1-1z" fill="#cd9090" stroke="none"/><path d="m924.667 773.333.666.334-.666-.334z" fill="#c06564" stroke="none"/><path d="m926.667 773.333.666.334-.666-.334M693 774l1 1-1-1z" fill="#cd9090" stroke="none"/><path d="m917.667 774.333.666.334-.666-.334z" fill="#c06564" stroke="none"/><path d="m919.667 774.333.666.334-.666-.334z" fill="#cd9090" stroke="none"/><path d="m694 775 1 1-1-1m216.667.333.666.334-.666-.334z" fill="#c06564" stroke="none"/><path d="m912.667 775.333.666.334-.666-.334z" fill="#cd9090" stroke="none"/><path d="m906 776 1 1-1-1z" fill="#c06564" stroke="none"/><path d="m907 776 1 1-1-1z" fill="#cd9090" stroke="none"/><path d="m904 777 1 1-1-1z" fill="#c06564" stroke="none"/><path d="m696 778 1 1-1-1z" fill="#cd9090" stroke="none"/><path d="m902 778 1 1-1-1m-205 1 1 1-1-1z" fill="#c06564" stroke="none"/><path d="m901 779 1 1-1-1z" fill="#cd9090" stroke="none"/><path d="m568 780 1 1-1-1m130 0 1 1-1-1m202 0 1 1-1-1z" fill="#c06564" stroke="none"/><path d="m1087 780-1 2 1-2z" fill="#cd9090" stroke="none"/><path d="m1088 780 1 1-1-1m-519 1 1 1-1-1m518 0 1 1-1-1m-517 1 1 1-1-1z" fill="#c06564" stroke="none"/><path d="m899 782 1 1-1-1z" fill="#cd9090" stroke="none"/><path d="m1086 782 1 1-1-1m-515 1 1 1-1-1z" fill="#c06564" stroke="none"/><path d="m700 783 1 1-1-1z" fill="#cd9090" stroke="none"/><path d="m898 783 1 1-1-1m187 0 1 1-1-1z" fill="#c06564" stroke="none"/><path d="m701 784 1 1-1-1m1 1 1 1-1-1m195 0 1 1-1-1z" fill="#cd9090" stroke="none"/><path d="m703 786 1 1-1-1m193 0 1 1-1-1m-192 1 1 1-1-1m191 0 1 1-1-1m-190 1 1 1-1-1m374 0 1 1-1-1m-373 1 1 1-1-1z" fill="#c06564" stroke="none"/><path d="m894 789 1 1-1-1z" fill="#cd9090" stroke="none"/><path d="m707 790 1 1-1-1z" fill="#c06564" stroke="none"/><path d="m893 790 1 1-1-1z" fill="#cd9090" stroke="none"/><path d="m580 791 1 1-1-1m128 0 1 1-1-1m184 0 1 1-1-1m184 0 1 1-1-1m-495 1 1 1-1-1m128 0 1 1-1-1m182 0 1 1-1-1m184 0 1 1-1-1m-493 1 1 1-1-1m128 0 1 1-1-1m180 0 1 1-1-1m184 0 1 1-1-1m-363 1 1 1-1-1m-127 1 2 2-2-2z" fill="#c06564" stroke="none"/><path d="m585 795 1 1-1-1m127 0 1 1-1-1m1 1 1 1-1-1m175 0 1 1-1-1z" fill="#cd9090" stroke="none"/><path d="m1071 796 1 1-1-1z" fill="#c06564" stroke="none"/><path d="m887 797 1 1-1-1z" fill="#cd9090" stroke="none"/><path d="m716 798 1 1-1-1z" fill="#c06564" stroke="none"/><path d="m886 798 1 1-1-1z" fill="#cd9090" stroke="none"/><path d="m717 799 1 1-1-1z" fill="#c06564" stroke="none"/><path d="m885 799 1 1-1-1m-167 1 1 1-1-1m166 0 1 1-1-1m-165 1 1 1-1-1m164 0 1 1-1-1z" fill="#cd9090" stroke="none"/><path d="m721 802 1 1-1-1m-127 1 1 1-1-1z" fill="#c06564" stroke="none"/><path d="m722 803 1 1-1-1z" fill="#cd9090" stroke="none"/><path d="m1062 803 1 1-1-1m-467 1 1 1-1-1z" fill="#c06564" stroke="none"/><path d="m723 804 1 1-1-1z" fill="#cd9090" stroke="none"/><path d="m879 804 1 1-1-1m182 0 1 1-1-1m-336 1 1 1-1-1m153 0 1 1-1-1z" fill="#c06564" stroke="none"/><path d="m726 806 1 1-1-1m151 0 1 1-1-1z" fill="#cd9090" stroke="none"/><path d="m599 807 1 1-1-1m129 0 1 1-1-1z" fill="#c06564" stroke="none"/><path d="m876 807 1 1-1-1z" fill="#cd9090" stroke="none"/><path d="m1057 807 1 1-1-1m-457 1 1 1-1-1z" fill="#c06564" stroke="none"/><path d="m729 808 1 1-1-1z" fill="#cd9090" stroke="none"/><path d="m1056 808 1 1-1-1m-455 1 1 1-1-1m130 0 1 1-1-1m142 0 1 1-1-1m182 0 1 1-1-1z" fill="#c06564" stroke="none"/><path d="m732 810 1 1-1-1m140 0 1 1-1-1z" fill="#cd9090" stroke="none"/><path d="m734 811 1 1-1-1z" fill="#c06564" stroke="none"/><path d="m735 812 1 1-1-1z" fill="#cd9090" stroke="none"/><path d="m869 812 1 1-1-1z" fill="#c06564" stroke="none"/><path d="m737 813 1 1-1-1m131 0 1 1-1-1z" fill="#cd9090" stroke="none"/><path d="m739 814 1 1-1-1m127 0 1 1-1-1m-125 1 1 1-1-1z" fill="#c06564" stroke="none"/><path d="m865 815 1 1-1-1m-123 1 1 1-1-1z" fill="#cd9090" stroke="none"/><path d="m863 816 1 1-1-1z" fill="#c06564" stroke="none"/><path d="m744 817 1 1-1-1z" fill="#cd9090" stroke="none"/><path d="m861 817 1 1-1-1z" fill="#c06564" stroke="none"/><path d="m862 817 1 1-1-1m-116 1 1 1-1-1m114 0 1 1-1-1z" fill="#cd9090" stroke="none"/><path d="m615 819 1 1-1-1z" fill="#c06564" stroke="none"/><path d="m748 819 1 1-1-1z" fill="#cd9090" stroke="none"/><path d="m858 819 1 1-1-1z" fill="#c06564" stroke="none"/><path d="m750 820 1 1-1-1z" fill="#cd9090" stroke="none"/><path d="m856 820 1 1-1-1z" fill="#c06564" stroke="none"/><path d="m752 821 1 1-1-1z" fill="#cd9090" stroke="none"/><path d="m753 821 1 1-1-1m101 0 1 1-1-1m-99 1 1 1-1-1m97 0 1 1-1-1z" fill="#c06564" stroke="none"/><path d="m757 823 1 1-1-1z" fill="#cd9090" stroke="none"/><path d="m758 823 1 1-1-1z" fill="#c06564" stroke="none"/><path d="m850 823 1 1-1-1z" fill="#cd9090" stroke="none"/><path d="m622 824 2 2-2-2z" fill="#c06564" stroke="none"/><path d="m623 824 1 1-1-1m136 0 1 1-1-1z" fill="#cd9090" stroke="none"/><path d="m760 824 1 1-1-1m87 0 1 1-1-1z" fill="#c06564" stroke="none"/><path d="m848 824 1 1-1-1m-86 1 1 1-1-1z" fill="#cd9090" stroke="none"/><path d="m763 825 1 1-1-1m82 0 1 1-1-1m188 0 1 1-1-1m-408 1 1 1-1-1z" fill="#c06564" stroke="none"/><path d="m765 826 1 1-1-1z" fill="#cd9090" stroke="none"/><path d="m766 826 1 1-1-1m76 0 1 1-1-1z" fill="#c06564" stroke="none"/><path d="m843 826 1 1-1-1m-74.333 1.333.666.334-.666-.334z" fill="#cd9090" stroke="none"/><path d="m770 827 1 1-1-1m69 0 1 1-1-1z" fill="#c06564" stroke="none"/><path d="m840 827 1 1-1-1m-68 1 1 1-1-1z" fill="#cd9090" stroke="none"/><path d="m773.667 828.333.666.334-.666-.334M835 828l1 1-1-1z" fill="#c06564" stroke="none"/><path d="m836 828 1 1-1-1m-60 1 1 1-1-1z" fill="#cd9090" stroke="none"/><path d="m777.667 829.333.666.334-.666-.334m54 0 .666.334-.666-.334z" fill="#c06564" stroke="none"/><path d="m833 829 1 1-1-1m-52 1 1 1-1-1z" fill="#cd9090" stroke="none"/><path d="m782.667 830.333.666.334-.666-.334m44 0 .666.334-.666-.334z" fill="#c06564" stroke="none"/><path d="m828 830 1 1-1-1m-41.333 1.333.666.334-.666-.334z" fill="#cd9090" stroke="none"/><path d="M788 831v1h3l-3-1m33.667.333.666.334-.666-.334z" fill="#c06564" stroke="none"/><path d="m823 831 1 1-1-1m-29 1v1h3l-3-1z" fill="#cd9090" stroke="none"/><path d="M797 832v1h8l-8-1m12 0v1h6l-6-1z" fill="#c06564" stroke="none"/><path d="m815.667 832.333.666.334-.666-.334z" fill="#cd9090" stroke="none"/><path d="m367 836 1 1-1-1m922 0 1 1-1-1z" fill="#910a0a" stroke="none"/><path d="m666 849 1 1-1-1m324 0 1 1-1-1z" fill="#c06564" stroke="none"/><path d="m378 851 1 1-1-1m900 0 1 1-1-1z" fill="#910a0a" stroke="none"/><path d="m672 852 1 1-1-1m312 0 1 1-1-1m-309 1 1 1-1-1m306 0 1 1-1-1m-284 9 1 1-1-1m262 0 1 1-1-1m-6 2 1 1-1-1m-189 16 1 1-1-1z" fill="#c06564" stroke="none"/><path d="m470 944 1 1-1-1m716 0 1 1-1-1m-704 9 1 1-1-1m692 0 1 1-1-1m-660 22 1 1-1-1m628 0 1 1-1-1m-510 57 1 1-1-1m392 0 1 1-1-1m-338 16 1 1-1-1m284 0 1 1-1-1z" fill="#910a0a" stroke="none"/></svg>