<svg xmlns="http://www.w3.org/2000/svg" xml:space="preserve" id="Layer_1" x="0" y="0" version="1.1" viewBox="0 0 1600 1200" enable-background="new 0 0 1600 1200"><style>.st1{fill:#ce6868}.st2{fill:#e08484}.st3{fill:#782c2b}.st4{fill:#d77879}.st5{fill:#e3ea2f}</style><path d="M0 0v1200h1600V0H0z" fill="#010101"/><path d="M434 88c-8.4.2-21.3 6.5-28.9 1.9-7.9-4.8-13.9-18-18.3-25.9-1.8-3.2-5.1-8.2-9.4-5.9-3.8 2-6.2 7.7-8.8 10.9-5 6.2-12.8 14.4-20.5 17.1-3.4 1.2-13.2-1.2-12.5 4.9.4 4 4.8 7.1 7.2 9.9 5.1 6.2 9.6 15.8 6.8 24-3.9 11.4-13.9 19.9-17.2 32-14.9 54.3-4.7 107.9 29.8 152 6.7 8.6 13.2 17.8 22 24.5 9.7 7.5 25.6 11.5 37 5.2 11.4-6.2 15.2-26.6 10-37.7 21.8 3.6 41.1-24 30-43-8.4-14.4-29.9-20.9-45-25.3-10.6-3.1-21.2-5.5-26.1-16.7-13.8-31.3 8.8-74.2 46.1-65.3 69.4 16.6 74.7 96.6 69.2 154.3-1.6 17.2-.2 36.8-7.5 53-8.6 19.2-19.4 37.5-31 55-7.4 11-17.4 22-21.1 35-6.7 23.7-8.5 50.6-9.6 75-.5 10.4 1.1 22.9-1.4 33-2.8 11.6-20.7 25.6-30.7 31-4.5 2.4-15.2 5-13.8 12 5.3 25.4 33.8.8 43.8-9 0 24.2.4 48.9 2.1 73 1.2 17.9 4.5 35.1.5 53-9.5 42.6-40.5 82.9-66.3 117-7.5 9.9-13.2 21.2-20.9 31-5.5 6.9-13.3 12.1-17.6 20-3.1 5.7-5.3 17.3-.3 22.6 4.6 4.9 8.8-.8 11.3-4.6 6.7-9.9 13-19.9 19.3-30 27-42.8 52.9-86.7 75.4-132 12.1-24.5 7.6-51.6 7.3-78-.7-58-8.5-115.2-.7-173 1.8-13.5 4.4-27.5 10-40 6.8-15 18.4-26.3 27.1-40 8.7-13.5 16.2-30 22.1-45 4.5-11.6 4.5-24.8 5.6-37 2.1-22.2 3.8-44.6 2.8-67-2-45.3-16.8-95.9-64-113.9-12.9-4.9-30.5-7.4-43-.7-22.9 12.3-32 54.9-21.6 77.6 9 19.6 39.8 20.5 56.6 29.3 6 3.1 13.3 7.1 16 13.7 7.4 18.3-19.6 30.5-34 27.8-4.7-.9-6.5-9.9-10.9-7.7-9.6 4.8-.5 23.2 2.9 12.9l10 3c0 16.2-9.1 36.5-29 26.6-17.4-8.6-30.4-27.8-40.7-43.6-4.4-6.8-9.7-15.8-8.3-24h-1c-6.2 3.8-8.2-5.7-6-10l-3-1v-2l4-1c-5.8-13.1-6-28.9-6-43 0-31.6 11.4-66.6 36-87.7 14.9-12.8 29.5-17.2 48-21 57-11.7 118.1 8 143.7 64.7 12.8 28.3 11.7 61.7 10.4 92-2.1 48-2.3 100.2-19.1 146-10.2 27.9-31.4 51.1-39.2 80-6.7 24.9-5.1 55.4-5.7 81-.7 29.6 0 59.4 0 89 0 13.7-2 33.1 2.4 46 12.2 35.1 34.5 63 56.9 92 29.3 37.9 61 77.3 79.7 122 9.2-2.7 9.5-9.4 4.2-17-13.6-19.5-28.4-37.4-40.9-58-21.5-35-46.3-68-68-103-9.1-14.7-20.3-25.9-25.2-43-9.5-33.4 3-70.6-5-104 9.9 9.9 32.8 39.3 40.7 13 1.5-5-5.7-8.8-8.7-11.4-10.5-8.9-19.1-19.4-27.1-30.6-9-12.5-4.8-41.9-2.8-56.6 5.5-40.3 37-68 49.8-105.4 8.3-24.2 9.3-50.4 12.1-75.6 3.8-34.9 7-68.2 5.1-103.4-.7-12-.2-24.3-3.5-36-3.9-13.8-9.9-27.1-17.9-39-3.7-5.4-9.8-10.2-12.6-16-5.8-12.1 16.1-17.5 19.6-26 2.2-5.5-6.5-10.8-8.2-16-1.4-4.5-1.6-9.9-6.5-12-17.9-7.8-35.2 18.8-48.1 25-5.2 2.5-16.8-3.8-22.8-4 0-11.9-3.4-32-14.1-39.4-4.6-3.2-12.5-2.8-17.9-3.9-7.1-1.4-17.1-7.3-22.3 1.4-2.4 4 1.9 9.1 3.2 12.9 3.1 9.3 4.1 18.5 4 28.1z" class="st1"/><path d="m430 43 1 1-1-1m11 0 1 1-1-1m2 1 1 1-1-1m-16 1 1 1-1-1m20 0 1 1-1-1m-21 1 1 1-1-1m27 0 1 1-1-1m13 2 2 2v-2h-2m-41 2 1 1-1-1m43 0 1 1-1-1m-42 2 1 1-1-1m44 1 1 1-1-1m-43 1 1 1-1-1m1 2 1 1-1-1m-46.3 1.3.7.3-.7-.3m1.3.7 1 1-1-1m46 0 1 1-1-1m44 0 1 1-1-1m-98 1 1 1-1-1m10 2 1 1-1-1m45 0 1 1-1-1m44 0 1 1-1-1m-101 1 1 1-1-1m-1 1 1 1-1-1m14 0 1 1-1-1m89 0 1 1-1-1m-88 2 1 1-1-1m89 0 1 1-1-1m-106 1 1 1-1-1m18 1 1 1-1-1m89 0 1 1-1-1m-88 1 1 1-1-1m151 0 1 1-1-1m-172 1 1 1-1-1m64 0 1 1-1-1m46 0 1 1-1-1m60 0 1 1-1-1m-171 1 1 1-1-1m23 0 1 1-1-1m-24 1 1 1-1-1m25 1 1 1-1-1m140 0 1 1-1-1m-167 1 1 1-1-1m165 0 1 1-1-1m-166 1 1 1-1-1m70 0 1 1-1-1m-71 1 1 1-1-1m31 0 1 1-1-1m133 0 1 1-1-1m-165 1 1 1-1-1m163 0 1 1-1-1m-164 1 1 1-1-1m-1 1 1 1-1-1m36 0 1 1-1-1m126 0 1 1-1-1m-41 1 1 1-1-1m-124 1 1 1-1-1m78.3.7.3.7-.3-.7M558 80l1 1-1-1m-203 1 1 1-1-1m161 0 1 1-1-1m-162 1 1 1-1-1m44 0 1 1-1-1m117 0 1 1-1-1m-163 1 1 1-1-1m162 0 1 1-1-1m-163 1 1 1-1-1m162 0 1 1-1-1m-163 1 1 1-1-1m50 0 1 1-1-1m112 0 1 1-1-1m48 0 1 1-1-1m-222 1 1 1-1-1m-3 1 1 1-1-1m92 0-1 2h2l-1-2m135 0 1 1-1-1m-160 1 1 1-1-1m1 1 1 1-1-1m83 0 1 1-1-1m-81 1 1 1-1-1m12 0 1 1-1-1m-9 1 1 1-1-1m3 0 1 1-1-1m-53 173-12-2c-2.4 8.7 5.7 20 10.3 27 9.7 14.6 22.1 32.7 38.7 40.1 11.5 5.2 25.5-.3 28.5-13.1 1-4.5.5-9.4.5-14l-10-3c-5.5 9.8-11.3-9.9-2-12.7 3.6-1.1 4.9 6.6 9 7.4 15.9 3 38.7-6.8 35.8-25.8-2.6-16.8-30.1-20.2-42.8-25.2-9-3.6-20.2-7.5-26.8-14.8-11.8-13.2-7.9-37.6-3.2-53 9.3-30.6 37.9-40.4 66-27.7 25.9 11.8 42.7 30.4 48 58.7 6.1 32.6 14.4 76.1 12.1 109-1.1 15.5-.8 33.3-6.6 48-5.9 15-13.4 31.5-22.1 45-18.5 12-28.1 36.2-33.8 61-14.6 63.7-4.2 130.5-2.6 195 .5 19-7.7 45.1-11 64-1.9 11 1.2 16.1-3.8 26-13.2 26.4-28.7 51.7-43.8 77-11.1 18.4-22.3 36.7-33.6 55-4.6 7.4-9.8 19.1-17.8 23v1l33 22c-1.8-2.6-5.5-5.6-5.8-9-.3-3.6 3-8 4.6-11 4.6-8.7 9.4-17.3 13.9-26 20.8-40.7 44.4-80.6 70.5-118 7.8-11.2 19.6-32.9 35-34.3 4.8-.4 1.1 2 3.9 5.2 7.4 8.4 16.9 18.2 23.9 27 29.6 37 51.2 79.5 79.6 117.1 7.1 9.5 14.6 20.1 22.1 29.4 2.5 3.2 2.3 10.3 6.5 11.4 3.3.9 20-12 22.4-14.5 3.7-3.9-1.4-9.8-3.3-13.4-6.2-11.4-12.3-22.8-18.9-34-29-48.9-71.8-88.8-98-139-5.4-10.4-12.2-21.5-14.8-33-3.4-15.2-1.5-34.4-1.5-50 0-30-.4-60.1 1-90 1-23.1-1.5-49.7 5.1-72 8.1-27.4 27.4-49.6 37.8-76 11.5-29.4 8.2 6 12.2-25 2.4-18.8 14.2-104.1 15-123 1.7-39.8-4.9-82-30.2-115-12.8-16.7-29.3-31.3-48.8-39.6-14.5-6.2-28.7-6.5-44-6.9-31.1-.7-62.5 2.8-87 23.8-26.4 22.6-35 59.5-35 92.7 0 10.2-.4 25.6 4.4 34.9 3.8 7.8 12.8 14.9 19.4 20.3M497 92l1 1-1-1m8 0 1 1-1-1m-170 1 1 1-1-1m165 0 1 1-1-1m4 0 1 1-1-1m-168 1 1 1-1-1m166.7.3.7.3-.7-.3M337 95l1 1-1-1m1 1 1 1-1-1m1 1 1 1-1-1m1 1 1 1-1-1m1 1 1 1-1-1m1 1 1 1-1-1m1 1 1 1-1-1m216 2 1 1-1-1m-214 1 1 1-1-1m209 2 1 1-1-1m-4 3 1 1-1-1m-202 1 1 1-1-1m200 2 1 1-1-1m-2 3 1 1-1-1m-195.7 4.7.3.7-.3-.7z" class="st2"/><path d="m351.8 130.2 1 1-1-1m16 187c-4.5-9.8-13.5-17.8-19.3-27-9-14.2-10.1-32.6-28.7-37l-2 6h-2l72 33-58-54-5 7 8 4c-5.6-28.8-6.8-62 3.2-90 3.7-10.2 10.5-18.6 15.8-28-14.1 4.1-26.2 16.1-35.4 27-20.1 23.9-43.6 57.5-34.1 91 4.2 15 19.1 29.3 30.5 39.1 13.1 11.3 36.5 33.3 55 28.9z" class="st3"/><path d="m554 131 1 1-1-1m1 1 1 1-1-1m1 1 1 1-1-1m2 3 1 1-1-1m1 1 1 1-1-1m1 2 1 1-1-1m2 3 1 1-1-1m1 2 1 1-1-1m2 3 1 1-1-1m1 2 1 1-1-1m-148.3 1.3.7.3-.7-.3m17.3-.3 1 1-1-1m132 0 1 1-1-1m-125 2 1 1-1-1m3 1 1 1-1-1z" class="st2"/><path d="M413 232c-.1-25.5-13.1-51.3-7-77-28.7 12.1-27.9 73.9 7 77z" class="st3"/><path d="m412 223 1 1-1-1m-134 2 1 1-1-1z" class="st1"/><path d="m417.7 233.3.7.3-.7-.3z" class="st2"/><path d="m303 237 1 1-1-1z" class="st1"/><path d="m323 237 1 1-1-1m181 0 1 1-1-1zM433 239v1l5 1-5-2zM440 241l1 1-1-1z" class="st2"/><path d="m324 242 1 1-1-1z" class="st1"/><path d="m329 246 1 1-1-1z" class="st2"/><path d="M336 248v2l11 6c-1-6.1-4.7-9.5-11-8z" class="st3"/><path d="m341 247 1 1-1-1z" class="st1"/><path d="m450 247 1 1-1-1zM451 248l1 1-1-1m-140 2" class="st2"/><path d="m346 251 1 6h1l-2-6z" class="st1"/><path d="m337.3 255.7.3.7-.3-.7z" class="st2"/><path d="m345 255 1 1-1-1z" class="st1"/><path d="m338 259 7 4-7-4z" class="st3"/><path d="m340.7 259.3.7.3-.7-.3z" class="st1"/><path d="m342 259 1 1-1-1z" class="st2"/><path d="m343 260 1 1-1-1z" class="st1"/><path d="m434 589 1 1-1-1z" class="st3"/><path d="M414.2 91.9v1h6l-6-1m13 209-7-2v-1l26-6v-1c-6.9 1.6-19.2 7.2-25.7 2-4-3.3 18.3-12.6 12.5-15.3-14.3-6.6-15.5-6.8-27-18.1-19.5-19.1-60.2-51.1-57.7-77.6 5.6-57.7 74.2-85.5 125.8-77.4 21.9 3.4 43 20.1 59.8 34.6 16.5 14.2 20.5 104.3 35.5 122.3 22.5-9-2.6-106.2-7.7-113.4-20.7-29.7-49.4-50.8-86.7-55.2-34.1-4-78-1.9-105.2 20.3-46.2 37.9-45.3 123.5-15.6 171.9 10 16.3 23.5 36 40.8 45.1 12.4 6.5 27.8 1 31.4-13.1 1.5-5.2.8-11 .8-16.1m66-209v1c6 1.4 12.4 6 16-1h-1c-4.3 4.5-9.6.8-15 0z" class="st4"/><path d="m351.8 123.9 1 1-1-1m16 187c-4.5-9.8-3.9-54.1-9.7-63.2-9-14.2-13.5 5.4-32.1 1l2.5 39.5c-.3-1.1 6.7-14.8 5.5-14.8l14.5 10.5 9.6-21.2v-15l-33.3-8.8 8 4c-5.6-28.8-6.8-62 3.2-90 3.7-10.2 10.5-18.6 15.8-28-14.1 4.1-26.2 16.1-35.4 27-20.1 23.9-43.6 57.5-34.1 91 4.2 15 19.1 29.3 30.5 39.1 13.1 11.3 36.5 33.3 55 28.9z" class="st3"/><path d="M359.5 261.9c-6.8-6.4-14.4-12.3-22.1-17.4-12.3-8.1-20.5-5.9-10.7 5.2 6.6 7.5 18.7 15.1 27.5 20 13 7.3 16.1 2.5 5.3-7.8z" class="st5"/><path d="m355.6 261.3-25.9-15.1c.5.7 1.4.8 2.1.4l23.8 14.7c-.5-2.3-46.9-35.9-46.9-35.9-5.7-4.3-6.5 26.3 13-7.2-18 4.4-26.4-2.1-25.2 0 9.4 15.8-6.7 32.9 13.6 16.9 0 0-1.3 2 0 0 .5-.8 29.1 25.5 29.8 26.1" class="st5"/><path d="M434 88c-8.4.2-21.3 6.5-28.9 1.9-7.9-4.8-13.9-18-18.3-25.9-1.8-3.2-5.1-8.2-9.4-5.9-3.8 2-6.2 7.7-8.8 10.9-5 6.2-12.8 14.4-20.5 17.1-3.4 1.2-13.2-1.2-12.5 4.9.4 4 4.8 7.1 7.2 9.9 5.1 6.2 9.6 15.8 6.8 24-3.9 11.4-13.9 19.9-17.2 32-14.9 54.3-4.7 107.9 29.8 152 6.7 8.6 13.2 17.8 22 24.5 9.7 7.5 25.6 11.5 37 5.2 11.4-6.2 15.2-26.6 10-37.7 21.8 3.6 41.1-24 30-43-8.4-14.4-29.9-20.9-45-25.3-10.6-3.1-21.2-5.5-26.1-16.7-13.8-31.3 8.8-74.2 46.1-65.3 69.4 16.6 74.7 96.6 69.2 154.3-1.6 17.2-.2 36.8-7.5 53-8.6 19.2-19.4 37.5-31 55-7.4 11-17.4 22-21.1 35-6.7 23.7-8.5 50.6-9.6 75-.5 10.4 1.1 22.9-1.4 33-2.8 11.6-20.7 25.6-30.7 31-4.5 2.4-15.2 5-13.8 12 5.3 25.4 33.8.8 43.8-9 0 24.2.4 48.9 2.1 73 1.2 17.9 4.5 35.1.5 53-9.5 42.6-40.5 82.9-66.3 117-7.5 9.9-13.2 21.2-20.9 31-5.5 6.9-13.3 12.1-17.6 20-3.1 5.7-5.3 17.3-.3 22.6 4.6 4.9 8.8-.8 11.3-4.6 6.7-9.9 13-19.9 19.3-30 27-42.8 52.9-86.7 75.4-132 12.1-24.5 7.6-51.6 7.3-78-.7-58-8.5-115.2-.7-173 1.8-13.5 4.4-27.5 10-40 6.8-15 18.4-26.3 27.1-40 8.7-13.5 16.2-30 22.1-45 4.5-11.6 4.5-24.8 5.6-37 2.1-22.2 3.8-44.6 2.8-67-2-45.3-16.8-95.9-64-113.9-12.9-4.9-30.5-7.4-43-.7-22.9 12.3-32 54.9-21.6 77.6 9 19.6 39.8 20.5 56.6 29.3 6 3.1 13.3 7.1 16 13.7 7.4 18.3-19.6 30.5-34 27.8-4.7-.9-6.5-9.9-10.9-7.7-9.6 4.8-.5 23.2 2.9 12.9l10 3c0 16.2-9.1 36.5-29 26.6-17.4-8.6-30.4-27.8-40.7-43.6-4.4-6.8-9.7-15.8-8.3-24l-12.5-22.8c-6.2 3.8 3.2 17.1 5.5 12.8l-3-1 9 11-5-14c-5.8-13.1-6-28.9-6-43 0-31.6 11.4-66.6 36-87.7 14.9-12.8 29.5-17.2 48-21 57-11.7 118.1 8 143.7 64.7 12.8 28.3 11.7 61.7 10.4 92-2.1 48-2.3 100.2-19.1 146-10.2 27.9-31.4 51.1-39.2 80-6.7 24.9-5.1 55.4-5.7 81-.7 29.6 0 59.4 0 89 0 13.7-2 33.1 2.4 46 12.2 35.1 34.5 63 56.9 92 29.3 37.9 61 77.3 79.7 122 9.2-2.7 9.5-9.4 4.2-17-13.6-19.5-28.4-37.4-40.9-58-21.5-35-46.3-68-68-103-9.1-14.7-20.3-25.9-25.2-43-9.5-33.4 3-70.6-5-104 9.9 9.9 32.8 39.3 40.7 13 1.5-5-5.7-8.8-8.7-11.4-10.5-8.9-19.1-19.4-27.1-30.6-9-12.5-4.4-23.4-2.8-56.6 5.5-40.3 37-68 49.8-105.4 8.3-24.2 9.3-50.4 12.1-75.6 3.8-34.9 7-68.2 5.1-103.4-.7-12-.2-24.3-3.5-36-3.9-13.8-9.9-27.1-17.9-39-3.7-5.4-9.8-10.2-12.6-16-5.8-12.1 16.1-17.5 19.6-26 2.2-5.5-6.5-10.8-8.2-16-1.4-4.5-1.6-9.9-6.5-12-17.9-7.8-35.2 18.8-48.1 25-5.2 2.5-16.8-3.8-22.8-4 0-11.9-3.4-32-14.1-39.4-4.6-3.2-12.5-2.8-17.9-3.9-7.1-1.4-17.1-7.3-22.3 1.4-2.4 4 1.9 9.1 3.2 12.9 3.1 9.3 4.1 18.5 4 28.1z" class="st1"/><path d="M400.5 150.5c6.6-2.4 12.7-6.5 20-6.9 35.3-1.7 69.8 30.8 81.9 61.9 6.5 16.7 4.1 41 9 54 1.6 23.2-.5 46.9-2.7 70-1.1 11.3-.9 23.3-5.1 34-5.8 14.7-13 31.9-21.8 45-8.6 12.9-19.7 23.9-26.5 38-7.7 16.1-10.4 34.4-12.5 52-6.1 50.5-1.7 103.5 1.8 154-2.6 26 6.1 60.3-5.3 84-22.4 46.3-49.7 89.9-76.1 134-6.1 10.2-12.7 20.1-19.3 30-3.6 5.4-4.8 19-12.3 4h-1c15.2 14.5 14.1 12.4 21 15 31.4-43.8 55.3-94.3 82.4-141 14.4-24.8 35.7-49.4 41.6-78 4.6-22.7.6-46 0-69-1.1-46.5-2.5-93.2 6.8-139 2.5-12.2 5.1-25.8 10.6-37 11.6-3 31.9-37.4 40.2-55.7 12.1-26.3 15.4-48.6 17.4-77.3 0 12 5.1-25.3 5-50-.1-20.6-1.6-76.8-12-95.3-21.4-38-67.8-48.8-110-40.5-11 2.1-25.7 4.8-33.1 13.8m-57-14-4 8h1l3-8z" class="st4"/><path d="M551.9 68c-17.9-7.8-43.2 16.8-56.1 23-5.2 2.5-8.8-1.7-14.8-2 0-11.9 2.6-33.6-8-41-4.6-3.2-18.6-1.2-24-2.3-7.1-1.4-17.1-7.3-22.3 1.4-2.4 4 1.9 9.1 3.2 12.9 3.2 9.2-3.8 19.4-3.9 29l8-1c-8.4.2-21.3 6.5-28.9 1.9-7.9-4.8-13.9-18-18.3-25.9-1.8-3.2-5.1-8.2-9.4-5.9-3.8 2-6.2 7.7-8.8 10.9-5 6.2-12.8 14.4-20.5 17.1-3.4 1.2-13.2-1.2-12.5 4.9.4 4 4.8 7.1 7.2 9.9 5.1 6.2 9.6 15.8 6.8 24-3.9 11.4-13.9 19.9-17.2 32-14.9 54.3-4.7 107.9 29.8 152 6.7 8.6 13.2 17.8 22 24.5 9.7 7.5 25.6 11.5 37 5.2 11.4-6.2 15.2-26.6 10-37.7 21.8 3.6 41.1-24 30-43-8.4-14.4-29.9-20.9-45-25.3-10.6-3.1-21.2-5.5-26.1-16.7-13.8-31.3 8.8-74.2 46.1-65.3 69.2 16.6 74.2 96.7 69.2 154.3-1.6 17.2-.2 36.8-7.5 53-8.6 19.2-19.4 37.5-31 55-7.4 11-17.4 22-21.1 35-6.7 23.7-8.5 50.6-9.6 75-.5 10.4 1.1 22.9-1.4 33-2.8 11.6-20.7 25.6-30.7 31-4.5 2.4-15.2 5-13.8 12 5.3 25.4 33.8.8 43.8-9 0 24.2.4 48.9 2.1 73 1.2 17.9 4.5 35.1.5 53-9.5 42.6-40.5 82.9-66.3 117-7.5 9.9-13.2 21.2-20.9 31-5.5 6.9-13.3 12.1-17.6 20-3.1 5.7-5.3 17.3-.3 22.6 4.6 4.9 8.8-.8 11.3-4.6 6.7-9.9 13-19.9 19.3-30 27-42.8 52.9-86.7 75.4-132 12.1-24.5 7.6-51.6 7.3-78-.7-58-8.5-115.2-.7-173 1.8-13.5 4.4-27.5 10-40 6.8-15 18.4-26.3 27.1-40 8.7-13.5 16.2-30 22.1-45 4.5-11.6 4.5-24.8 5.6-37 2.1-22.2 3.8-44.6 2.8-67-2-45.3-16.8-95.9-64-113.9-12.9-4.9-30.5-7.4-43-.7-22.9 12.3-32 54.9-21.6 77.6 9 19.6 39.8 20.5 56.6 29.3 6 3.1 13.3 7.1 16 13.7 7.4 18.3-19.6 30.5-34 27.8-4.7-.9-6.5-9.9-10.9-7.7-9.6 4.8-.5 23.2 2.9 12.9l10 3c0 16.2-9.1 36.5-29 26.6-17.4-8.6-30.4-27.8-40.7-43.6-4.4-6.8-9.7-15.8-8.3-24l-12.5-22.8c-6.2 3.8 3.2 17.1 5.5 12.8l-3-1 9 11-5-14c-5.8-13.1-6-28.9-6-43 0-31.6 11.4-66.6 36-87.7 14.9-12.8 29.5-17.2 48-21 57-11.7 118.1 8 143.7 64.7 12.8 28.3 11.7 61.7 10.4 92-2.1 48-2.3 100.2-19.1 146-10.2 27.9-31.4 51.1-39.2 80-6.7 24.9-5.1 55.4-5.7 81-.7 29.6 0 59.4 0 89 0 13.7-2 33.1 2.4 46 12.2 35.1 34.5 63 56.9 92 29.3 37.9 61 77.3 79.7 122 9.2-2.7 9.5-9.4 4.2-17-13.6-19.5-28.4-37.4-40.9-58-21.5-35-46.3-68-68-103-9.1-14.7-20.3-25.9-25.2-43-9.5-33.4 3-70.6-5-104 9.9 9.9 32.8 39.3 40.7 13 1.5-5-5.7-8.8-8.7-11.4-10.5-8.9-19.1-19.4-27.1-30.6-9-12.5-4.4-23.4-2.8-56.6 5.5-40.3 37-68 49.8-105.4 8.3-24.2 12-49.1 14.8-74.2 3.8-34.9 4.3-69.6 2.4-104.8-.7-12-.2-24.3-3.5-36-3.9-13.8-9.9-27.1-17.9-39-3.7-5.4-9.8-10.2-12.6-16-5.8-12.1 16.1-17.5 19.6-26 2.2-5.5-6.5-10.8-8.2-16" class="st1"/><path d="M392.5 849.6 354.1 891l-.2.2-13.2 6.3c-.2.1-.4.3-.4.5l-1.9 12.9c0 .3.1.5.3.7l18.4 13.2c.4.3.9.1 1.1-.3 22.7-53.8 56.9-105.4 89.3-153.8 7.7-11.4 15.2-23.3 23.7-34.1 3-3.8 9.6-9.1 15-8 4.7 1 8 6.6 10.9 10 7 8.3 14 16.6 20.9 25.1 29.1 36.2 51.2 100.1 79.1 136.9 8.5 11.2 15.1-.3 24.1 10.6 3.6 4.4 1.1 14.9 6.7 9.1 3.9-4 12.1-15.6 9.7-19.7-6.7-11.2-19.9-20.2-27.8-30.5-12.5-16.3-23.3-27.7-35.7-44-7.7-10.1-16.9-25.2-24.5-35.3-12.9-17.2-26.8-33.4-35.6-53.2-3-6.7-8.3-14-9.8-21.1-1.9-8.7 2.9-20.2 3.3-29.1 1-21.6-1-43.6-1-65.2 0-33.5-.4-67 1.9-100.4 1-13.9.1-28.5 3.5-42.2 7.8-32.1 32.1-57.9 42.5-89.3 17.2-52.5 17.9-113.9 17.9-168.6l-1 .5c-.5.2-1-.1-1-.6-.1-10.7-2.1-20.9-8.8-29.6-1.8-2.3-4.2-3.5-6.1-5.6-.5-.5.1-1.4.7-1.1l5.7 1.9c.5.2 1.1-.3.9-.9-18.5-68.3-80.9-99.9-147.7-81.7-21.4 5.8-44.1 18-57.7 35.8-22.5 29.3-18.8 77 2 106.4 13.1 18.5 30.3 24.1 49.1 34.5 5.3 2.9 4.2 9.8 10.1 11.2 15.4 3.6 39.5-7.7 36-25.7-1.7-8.6-8.3-19.7-15.5-23.3-16.6-8.2-45.8-4.2-54.5-23-3.7-8-7.6-15.4-7.5-24 .2-18.7 8-40 23.3-51.7 25.4-19.5 67.4-7.3 92.7 10.7 44.9 31.8 50 68.2 48.8 117.3-1 41.1-1.9 84.6-17.4 123.4-8.5 21.3-43.5 35.3-52.4 56.3-23 54.2-25.4 125.4-24 182.7.6 23.4 20.5 43.2 15 66.3-6.2 26.2-27.2 48-41 70.7-23.4 38.5-39.6 79.2-61 118.8-5.4 9.9-1.9-5.1-7 5m0-4.9L337.2 878c-.5-.4-1.2 0-1.1.6l2.2 32.7m219.7-810 1 1-1-1m-216.4 1 1 1-1-1z" class="st2"/><path d="M551.8 68c-17.9-7.8-43.2 16.8-56.1 23-5.2 2.5-8.8-1.7-14.8-2 0-11.9 2.6-33.6-8-41-4.6-3.2-18.6-1.2-24-2.3-7.1-1.4-17.1-7.3-22.3 1.4-2.4 4 1.9 9.1 3.2 12.9 3.2 9.2-3.8 19.4-3.9 29l8-1c-8.4.2-21.3 6.5-28.9 1.9-7.9-4.8-13.9-18-18.3-25.9-1.8-3.2-5.1-8.2-9.4-5.9-3.8 2-6.2 7.7-8.8 10.9-5 6.2-12.8 14.4-20.5 17.1-3.4 1.2-13.2-1.2-12.5 4.9.4 4 4.8 7.1 7.2 9.9 5.1 6.2 9.6 15.8 6.8 24-3.9 11.4-13.9 19.9-17.2 32-14.9 54.3-4.7 107.9 29.8 152 6.7 8.6 13.2 17.8 22 24.5 9.7 7.5 25.6 11.5 37 5.2 11.4-6.2 15.2-26.6 10-37.7 21.8 3.6 41.1-24 30-43-8.4-14.4-29.9-20.9-45-25.3-10.6-3.1-21.2-5.5-26.1-16.7-13.8-31.3 8.8-74.2 46.1-65.3C505 167.4 510 247.4 505 305c-1.6 17.2-.2 36.8-7.5 53-8.6 19.2-19.4 37.5-31 55-7.4 11-17.4 22-21.1 35-6.7 23.7-8.5 50.6-9.6 75-.5 10.4 1.1 22.9-1.4 33-2.8 11.6-20.7 25.6-30.7 31-4.5 2.4-15.2 5-13.8 12 5.3 25.4 33.8.8 43.8-9 0 24.2.4 48.9 2.1 73 1.2 17.9 4.5 35.1.5 53-9.5 42.6-40.5 82.9-66.3 117-7.5 9.9-13.2 21.2-20.9 31-5.5 6.9-13.3 12.1-17.6 20-3.1 5.7-5.3 17.3-.3 22.6 4.6 4.9 8.8-.8 11.3-4.6 6.7-9.9 13-19.9 19.3-30 27-42.8 52.9-86.7 75.4-132 12.1-24.5 7.6-51.6 7.3-78-.7-58-8.5-115.2-.7-173 1.8-13.5 4.4-27.5 10-40 6.8-15 18.4-26.3 27.1-40 8.7-13.5 16.2-30 22.1-45 4.5-11.6 4.5-24.8 5.6-37 2.1-22.2 3.8-44.6 2.8-67-2-45.3-16.8-95.9-64-113.9-12.9-4.9-30.5-7.4-43-.7-22.9 12.3-32 54.9-21.6 77.6 9 19.6 39.8 20.5 56.6 29.3 6 3.1 13.3 7.1 16 13.7 7.4 18.3-19.6 30.5-34 27.8-4.7-.9-6.5-9.9-10.9-7.7-9.6 4.8-.5 23.2 2.9 12.9l10 3c0 16.2-9.1 36.5-29 26.6C377 320 364 300.8 353.7 285c-4.4-6.8-9.7-15.8-8.3-24l-12.5-22.8c-6.2 3.8 3.2 17.1 5.5 12.8l-3-1 9 11-5-14c-5.8-13.1-6-28.9-6-43 0-31.6 11.4-66.6 36-87.7 14.9-12.8 29.5-17.2 48-21 57-11.7 118.1 8 143.7 64.7 12.8 28.3 11.7 61.7 10.4 92-2.1 48-2.3 100.2-19.1 146-10.2 27.9-31.4 51.1-39.2 80-6.7 24.9-5.1 55.4-5.7 81-.7 29.6 0 59.4 0 89 0 13.7-2 33.1 2.4 46 12.2 35.1 34.5 63 56.9 92 29.3 37.9 61 77.3 79.7 122 9.2-2.7 9.5-9.4 4.2-17-13.6-19.5-28.4-37.4-40.9-58-21.5-35-46.3-68-68-103-9.1-14.7-20.3-25.9-25.2-43-9.5-33.4 3-70.6-5-104 9.9 9.9 32.8 39.3 40.7 13 1.5-5-5.7-8.8-8.7-11.4-10.5-8.9-19.1-19.4-27.1-30.6-9-12.5-4.4-23.4-2.8-56.6 5.5-40.3 37-68 49.8-105.4 8.3-24.2 12-49.1 14.8-74.2 3.8-34.9 4.3-69.6 2.4-104.8-.7-12-.2-24.3-3.5-36-3.9-13.8-9.9-27.1-17.9-39-3.7-5.4-9.8-10.2-12.6-16-5.8-12.1 16.1-17.5 19.6-26 2.2-5.5-6.5-10.8-8.2-16" class="st1"/><path d="M368 932c21.5-7.3 18.4-23.5 26.9-40.9 17.3-35.1 40.3-67.5 58.9-102 5.7-10.6 11.3-21.2 16.6-32 2.6-5.3 4.6-11.3 10.8-13.4 6.3-2.1 11 3.2 14.8 7.4 8.7 9.6 16.1 20.4 23.6 31 26 36.7 48.4 75.6 73.2 113 5.8 8.8 11 17.5 15.5 27 1.6 3.3 3.8 10.1 7.3 11.9 6 3.2 10.2-9.5 12.6-12.9-12.5-18-28.3-33.8-40.7-52-21.3-31.3-38.5-64.7-61.5-95-8.6-11.3-17.9-22-26.9-33-3.1-3.8-7.7-11.4-13-12.2-5.7-.8-12 4.1-15.3 8.2-8.1 10-14.6 21.4-22.1 32-26.3 37.2-49.6 77.4-70.3 118-4.6 9.1-9.8 17.9-14.5 27-1.6 3-4.7 7.4-4 11 .9 3.7 5.9 3.9 8.1 6.9z" class="st1"/><path d="M540.5 583.2c-9-8-25.6-23.3-27.8-35.7-5.1-28.6.7-63.9 14.3-89 10.3-19 25-37 32.4-57.6 20-56.1 22.1-120.5 22.1-179.4l-8 2-1-17 1 17v1c0 54.2-.7 115-17.7 167-10.2 31.4-35.4 57.7-42.2 90-4.5 21.4-3.2 44.3-4.2 66-1.8 40.2-1 80.7-1 121h1v-5h1c.3 6.1 4.2 14 0 19v-7h-1c0 13-5.7 29.5-3.6 42 1.1 6.2 5.7 12.3 8.3 18 9.8 21.7 24.1 38.6 37.7 58 7.5 10.7 12.8 22.9 21.1 33 16.6 20.3 34.8 39.1 49.5 61 5.9 8.7 12.8 16.4 15 27l10-7L644 889l5.9 8.5.6 3.7-6-14.7 9 12h1c-1.7-5.4-5.2-11-11-12-2.3-8.3-10-15.7-14.6-23-12.1-19.4-24.8-38.2-37.8-57-5.8-8.5-11.8-22.7-20.7-28 0-8.2-8.7-16.2-12.8-23-12-19.7-28.9-37.8-37.8-59-5.7-13.7-5.1-28.4-5.4-43-.6-23.2-.2-46.9-2-70" class="st4"/><path d="M551.8 68c-17.9-7.8-43.2 16.8-56.1 23-5.2 2.5-8.8-1.7-14.8-2 0-11.9 2.6-33.6-8-41-4.6-3.2-18.6-1.2-24-2.3-7.1-1.4-17.1-7.3-22.3 1.4-2.4 4 1.9 9.1 3.2 12.9 3.2 9.2-3.8 19.4-3.9 29l8-1c-8.4.2-21.3 6.5-28.9 1.9-7.9-4.8-13.9-18-18.3-25.9-1.8-3.2-5.1-8.2-9.4-5.9-3.8 2-6.2 7.7-8.8 10.9-5 6.2-12.8 14.4-20.5 17.1-3.4 1.2-13.2-1.2-12.5 4.9.4 4 4.8 7.1 7.2 9.9 5.1 6.2 9.6 15.8 6.8 24-3.9 11.4-13.9 19.9-17.2 32-14.9 54.3-4.7 107.9 29.8 152 6.7 8.6 13.2 17.8 22 24.5 9.7 7.5 25.6 11.5 37 5.2 11.4-6.2 15.2-26.6 10-37.7 21.8 3.6 41.1-24 30-43-8.4-14.4-29.9-20.9-45-25.3-10.6-3.1-21.2-5.5-26.1-16.7-13.8-31.3 8.8-74.2 46.1-65.3C505 167.4 510 247.4 505 305c-1.6 17.2-.2 36.8-7.5 53-8.6 19.2-19.4 37.5-31 55-7.4 11-17.4 22-21.1 35-6.7 23.7-8.5 50.6-9.6 75-.5 10.4 1.1 22.9-1.4 33-2.8 11.6-20.7 25.6-30.7 31-4.5 2.4-15.2 5-13.8 12 5.3 25.4 33.8.8 43.8-9 0 24.2.4 48.9 2.1 73 1.2 17.9 4.5 35.1.5 53-9.5 42.6-40.5 82.9-66.3 117-7.5 9.9-13.2 21.2-20.9 31-5.5 6.9-13.3 12.1-17.6 20-3.1 5.7-5.3 17.3-.3 22.6 4.6 4.9 8.8-.8 11.3-4.6 6.7-9.9 13-19.9 19.3-30 27-42.8 52.9-86.7 75.4-132 12.1-24.5 7.6-51.6 7.3-78-.7-58-8.5-115.2-.7-173 1.8-13.5 4.4-27.5 10-40 6.8-15 18.4-26.3 27.1-40 8.7-13.5 16.2-30 22.1-45 4.5-11.6 4.5-24.8 5.6-37 2.1-22.2 3.8-44.6 2.8-67-2-45.3-16.8-95.9-64-113.9-12.9-4.9-30.5-7.4-43-.7-22.9 12.3-32 54.9-21.6 77.6 9 19.6 39.8 20.5 56.6 29.3 6 3.1 13.3 7.1 16 13.7 7.4 18.3-19.6 30.5-34 27.8-4.7-.9-6.5-9.9-10.9-7.7-9.6 4.8-.5 23.2 2.9 12.9l10 3c0 16.2-9.1 36.5-29 26.6C377 320 364 300.8 353.7 285c-4.4-6.8-9.7-15.8-8.3-24l-12.5-22.8c-6.2 3.8 3.2 17.1 5.5 12.8l-3-1 9 11-5-14c-5.8-13.1-6-28.9-6-43 0-31.6 11.4-66.6 36-87.7 14.9-12.8 29.5-17.2 48-21 57-11.7 118.1 8 143.7 64.7 12.8 28.3 11.7 61.7 10.4 92-2.1 48-2.3 100.2-19.1 146-10.2 27.9-31.4 51.1-39.2 80-6.7 24.9-5.1 55.4-5.7 81-.7 29.6 0 59.4 0 89 0 13.7-2 33.1 2.4 46 12.2 35.1 34.5 63 56.9 92 29.3 37.9 61 77.3 79.7 122 9.2-2.7 9.5-9.4 4.2-17-13.6-19.5-28.4-37.4-40.9-58-21.5-35-46.3-68-68-103-9.1-14.7-20.3-25.9-25.2-43-9.5-33.4 3-70.6-5-104 9.9 9.9 32.8 39.3 40.7 13 1.5-5-5.7-8.8-8.7-11.4-10.5-8.9-19.1-19.4-27.1-30.6-9-12.5-4.4-23.4-2.8-56.6 5.5-40.3 37-68 49.8-105.4 8.3-24.2 12-49.1 14.8-74.2 3.8-34.9 4.3-69.6 2.4-104.8-.7-12-.2-24.3-3.5-36-3.9-13.8-9.9-27.1-17.9-39-3.7-5.4-9.8-10.2-12.6-16-5.8-12.1 16.1-17.5 19.6-26 2.2-5.5-6.5-10.8-8.2-16" class="st1"/></svg>