<svg xmlns="http://www.w3.org/2000/svg" shape-rendering="geometricPrecision" text-rendering="geometricPrecision" image-rendering="optimizeQuality" fill-rule="evenodd" clip-rule="evenodd" viewBox="0 0 1600 1200"><path fill="#c25555" d="M550.5 126.5a44.424 44.424 0 0 0 6 7c13.662 19.656 21.995 41.323 25 65-.977 2.787-1.31 5.787-1 9v12l-8 2a77.772 77.772 0 0 0-1-17c2.457-1.501 2.457-3.168 0-5 1.193-.47 1.86-1.47 2-3l-.5-3c-2.617-.719-4.784-2.053-6.5-4 2.399-8.552 1.566-16.885-2.5-25-14.95-31.616-38.45-54.449-70.5-68.5-33.544-6.718-66.877-5.718-100 3a127.583 127.583 0 0 0-33.5 24.5 222.537 222.537 0 0 0-14 21c-7.138 17.097-11.638 34.93-13.5 53.5-1.464 48.657 15.202 89.657 50 123a102.264 102.264 0 0 0 11 8c22.763 4.413 33.096-5.087 31-28.5a20.086 20.086 0 0 1-10-2c-1.795 4.107-4.295 4.773-7.5 2-1.195-5.1-.362-9.767 2.5-14 1.35-1.45 3.016-2.117 5-2 .814 2.131 1.314 4.464 1.5 7 14.114 4.592 26.448 1.592 37-9 5.595-9.472 4.428-17.972-3.5-25.5-9.922-6.087-20.589-10.42-32-13a421.439 421.439 0 0 1-25-11c-7.044-4.572-11.211-11.072-12.5-19.5-2.445-20.965 1.888-40.298 13-58a146.475 146.475 0 0 1 10.5-10c19.329-6.781 37.663-4.614 55 6.5 14.876 10.542 27.376 23.376 37.5 38.5a114.466 114.466 0 0 1 10 25c7.721 49.16 6.721 98.16-3 147a1401.553 1401.553 0 0 1-22 45 297.973 297.973 0 0 1-18 23c-11.432 17.626-18.098 36.96-20 58a510.967 510.967 0 0 0-3.5 58.5c.43 28.89 1.93 57.723 4.5 86.5a1979.51 1979.51 0 0 1 0 89 547.881 547.881 0 0 1-19 40 2646.916 2646.916 0 0 1-87.5 145c-.825.886-1.825 1.219-3 1-3.356-.525-5.189-2.525-5.5-6-1.31-7.371-.31-14.371 3-21a241.166 241.166 0 0 1 18-19l57-83 23-44c5.628-13.763 8.461-28.096 8.5-43a1423.052 1423.052 0 0 1-5.5-102c-8.58 8.375-18.414 14.875-29.5 19.5-3.394.752-6.727.585-10-.5-.225-4.644-1.892-8.644-5-12 1.092-2.594 2.759-4.761 5-6.5 16.782-7.108 30.282-18.274 40.5-33.5a575.996 575.996 0 0 1 11-110 114.317 114.317 0 0 1 18-30 471.538 471.538 0 0 0 35-62 170.242 170.242 0 0 0 6-36 556.738 556.738 0 0 0 2-70c-.838-43.549-20.338-75.382-58.5-95.5-17.918-7.593-34.585-5.593-50 6-10.378 14.548-13.878 30.715-10.5 48.5 1.386 7.981 5.553 13.814 12.5 17.5a607.958 607.958 0 0 0 37 13 79.544 79.544 0 0 1 20 13c11.893 14.905 10.559 28.405-4 40.5a62.216 62.216 0 0 1-17.5 9c-3.512 2.676-4.346 6.176-2.5 10.5-.769 23.111-12.435 32.444-35 28-10.437-3.428-18.937-9.595-25.5-18.5a282.305 282.305 0 0 1-30-39c-13.79-30.171-19.456-61.837-17-95a725.073 725.073 0 0 1 7-33 117.987 117.987 0 0 1 16.5-28c1.582-6.527 1.082-12.86-1.5-19-3.251-5.255-7.251-9.922-12-14a24.935 24.935 0 0 1-.5-7c5.017.24 10.017-.26 15-1.5 11.045-7.379 20.045-16.712 27-28 2.269-.758 4.436-.591 6.5.5A165.064 165.064 0 0 0 403.5 89a66.557 66.557 0 0 0 6 2.5 688.55 688.55 0 0 0 16-3.5l1.5-1.5c2.041.923 4.208 1.256 6.5 1 .384-13.63-2.616-26.463-9-38.5 2.061-4.379 5.561-6.879 10.5-7.5a223.734 223.734 0 0 0 32.5 7 112.278 112.278 0 0 1 10.5 20 69.613 69.613 0 0 1 2.5 20 95.983 95.983 0 0 1 21.5 5A118.822 118.822 0 0 0 515.5 81a215.69 215.69 0 0 1 17-10 36.877 36.877 0 0 1 14.5-4.5c3.175.113 6.008 1.113 8.5 3l3.5 14 8.5 8.5a38.293 38.293 0 0 1-2.5 6.5 40.858 40.858 0 0 1-13.5 8.5 113.414 113.414 0 0 0-5.5 8.5c-1.606 5.015-.106 8.681 4.5 11Z" opacity=".994"/><path fill="#d67777" d="M566.5 189.5c-.667 0-1-.333-1-1-7.641-27.106-22.641-49.273-45-66.5-24.107-16.625-50.773-22.959-80-19-28.459 2.362-53.292 12.862-74.5 31.5-17.494 20.081-24.161 43.414-20 70 6.237 39.899 28.57 65.899 67 78 1.03.336 1.53 1.003 1.5 2-1.984-.117-3.65.55-5 2-2.862 4.233-3.695 8.9-2.5 14 3.205 2.773 5.705 2.107 7.5-2a20.086 20.086 0 0 0 10 2c2.096 23.413-8.237 32.913-31 28.5a102.264 102.264 0 0 1-11-8c-34.798-33.343-51.464-74.343-50-123 1.862-18.57 6.362-36.403 13.5-53.5a222.537 222.537 0 0 1 14-21A127.583 127.583 0 0 1 393.5 99c33.123-8.718 66.456-9.718 100-3 32.05 14.051 55.55 36.884 70.5 68.5 4.066 8.115 4.899 16.448 2.5 25Z"/><path fill="#df8484" d="M565.5 188.5a34.48 34.48 0 0 0-11-3 4.934 4.934 0 0 0 .5 3 68.927 68.927 0 0 0 8.5 6c-.177 5.661 2.49 8.994 8 10a77.772 77.772 0 0 1 1 17c-.43 23-.93 46-1.5 69a2602.31 2602.31 0 0 1-11 82 244.681 244.681 0 0 1-15 44 375.974 375.974 0 0 0-30 56 51.448 51.448 0 0 0-3 11 1978.64 1978.64 0 0 0-3.5 201 14033.872 14033.872 0 0 1-3.5 33 682.497 682.497 0 0 1 18 37 1078.975 1078.975 0 0 0 27 35 1180.505 1180.505 0 0 0 21.5 35 561.405 561.405 0 0 1 22.5 24 2498.338 2498.338 0 0 1 39 53 27.752 27.752 0 0 1 3.5 11 2464.252 2464.252 0 0 0-7 6 612.096 612.096 0 0 1-41.5-51 813.433 813.433 0 0 1-34-57 639.51 639.51 0 0 0-64.5-82.5c-6.609-.783-12.109 1.383-16.5 6.5-42.827 59.957-80.327 123.29-112.5 190a91.679 91.679 0 0 1-11-7 257.26 257.26 0 0 0 18.5-25 598.59 598.59 0 0 1 25-49 5425.603 5425.603 0 0 1 72-120c6.892-13.738 11.059-28.238 12.5-43.5a505.031 505.031 0 0 1-2.5-40.5 2969.016 2969.016 0 0 1 0-109c2.477-26.72 8.144-52.72 17-78a327.088 327.088 0 0 1 24-36c8.776-15.66 14.776-32.327 18-50a479.852 479.852 0 0 0 8.5-106.5l-.5-39.5c.531-20.3-5.802-38.3-19-54-21.592-28.53-50.092-39.364-85.5-32.5-12.286 1.395-23.619 5.228-34 11.5a146.475 146.475 0 0 0-10.5 10c-11.112 17.702-15.445 37.035-13 58 1.289 8.428 5.456 14.928 12.5 19.5a421.439 421.439 0 0 0 25 11c11.411 2.58 22.078 6.913 32 13 7.928 7.528 9.095 16.028 3.5 25.5-10.552 10.592-22.886 13.592-37 9-.186-2.536-.686-4.869-1.5-7 .03-.997-.47-1.664-1.5-2-38.43-12.101-60.763-38.101-67-78-4.161-26.586 2.506-49.919 20-70 21.208-18.638 46.041-29.138 74.5-31.5 29.227-3.959 55.893 2.375 80 19 22.359 17.227 37.359 39.394 45 66.5Z"/><path fill="#7e3939" d="M550.5 126.5c12.451-1.575 24.117.592 35 6.5 16.635 20.327 30.469 42.493 41.5 66.5 14.924 36.839 15.257 73.839 1 111a2649.34 2649.34 0 0 1-49 105c-16.239 38.026-25.405 77.692-27.5 119a465.095 465.095 0 0 0 12.5 81 546.907 546.907 0 0 1 2 33 183.133 183.133 0 0 0 3 13 137.896 137.896 0 0 0 9 13c13.039 10.039 24.373 21.706 34 35 13.293 26.446 16.959 54.113 11 83a48.222 48.222 0 0 1-7 16 297.447 297.447 0 0 0-12.5 14 98.16 98.16 0 0 1-8-11c8.238-7.132 13.405-16.132 15.5-27 2.546-17.203 1.546-34.203-3-51-5.974-14.627-13.974-27.96-24-40a271.967 271.967 0 0 0-33.5-24.5c-6.709-5.585-10.042-12.752-10-21.5a361.301 361.301 0 0 1 5-26 256.247 256.247 0 0 0-2-14c1.322.17 2.489-.163 3.5-1-.509-4.643 1.324-7.977 5.5-10 1.083-.865 1.249-1.865.5-3a233.19 233.19 0 0 1-22.5-22c-4.583-23.263-3.416-46.263 3.5-69a224.943 224.943 0 0 0 6-20 1917.28 1917.28 0 0 0 25-53 11931.803 11931.803 0 0 1 39-101 254.827 254.827 0 0 0 16-64c1.526-17.239.193-34.239-4-51-5.671-26.834-16.838-51.001-33.5-72.5a126.032 126.032 0 0 0-26-7.5 44.424 44.424 0 0 1-6-7Z" opacity=".961"/><path fill="#d67777" d="M349.5 917.5a108.275 108.275 0 0 1-15-9c1.175.219 2.175-.114 3-1a2646.916 2646.916 0 0 0 87.5-145 547.881 547.881 0 0 0 19-40 1979.51 1979.51 0 0 0 0-89 1167.39 1167.39 0 0 1-4.5-86.5 510.967 510.967 0 0 1 3.5-58.5c1.902-21.04 8.568-40.374 20-58a297.973 297.973 0 0 0 18-23 1401.553 1401.553 0 0 0 22-45c9.721-48.84 10.721-97.84 3-147a114.466 114.466 0 0 0-10-25c-10.124-15.124-22.624-27.958-37.5-38.5-17.337-11.114-35.671-13.281-55-6.5 10.381-6.272 21.714-10.105 34-11.5 35.408-6.864 63.908 3.97 85.5 32.5 13.198 15.7 19.531 33.7 19 54l.5 39.5a479.852 479.852 0 0 1-8.5 106.5c-3.224 17.673-9.224 34.34-18 50a327.088 327.088 0 0 0-24 36c-8.856 25.28-14.523 51.28-17 78a2969.016 2969.016 0 0 0 0 109 505.031 505.031 0 0 0 2.5 40.5c-1.441 15.262-5.608 29.762-12.5 43.5a5425.603 5425.603 0 0 0-72 120 598.59 598.59 0 0 0-25 49 257.26 257.26 0 0 1-18.5 25Z"/><path fill="#701d1d" d="M556.5 133.5a126.032 126.032 0 0 1 26 7.5c16.662 21.499 27.829 45.666 33.5 72.5 4.193 16.761 5.526 33.761 4 51a254.827 254.827 0 0 1-16 64 11931.803 11931.803 0 0 0-39 101 1917.28 1917.28 0 0 1-25 53 224.943 224.943 0 0 1-6 20c-6.916 22.737-8.083 45.737-3.5 69a188.356 188.356 0 0 1-17.5-22 456.54 456.54 0 0 1 1-55 79.344 79.344 0 0 1 6-24c8.745-18.053 19.078-35.053 31-51a173.563 173.563 0 0 0 17-46 841.44 841.44 0 0 0 12.5-154v-12c2.745 1.238 5.079 3.071 7 5.5-1.368 1.873-3.034 3.54-5 5 7.784 2.011 15.784 2.845 24 2.5a71.233 71.233 0 0 0-10-21 32.298 32.298 0 0 1-4.5 5c-3.894-1.412-7.394-3.412-10.5-6-3.005-23.677-11.338-45.344-25-65Z"/><path fill="#dfdf30" d="M565.5 188.5c0 .667.333 1 1 1 1.716 1.947 3.883 3.281 6.5 4l.5 3c-.14 1.53-.807 2.53-2 3l-8-5a68.927 68.927 0 0 1-8.5-6 4.934 4.934 0 0 1-.5-3 34.48 34.48 0 0 1 11 3Z"/><path fill="#782722" d="m563.5 194.5 8 5c2.457 1.832 2.457 3.499 0 5-5.51-1.006-8.177-4.339-8-10Z"/><path fill="#e0e52d" d="M581.5 198.5c3.106 2.588 6.606 4.588 10.5 6a32.298 32.298 0 0 0 4.5-5 71.233 71.233 0 0 1 10 21c-8.216.345-16.216-.489-24-2.5 1.966-1.46 3.632-3.127 5-5-1.921-2.429-4.255-4.262-7-5.5-.31-3.213.023-6.213 1-9Z"/><path fill="#7e3a39" d="M278.5 214.5c1.098 1.101 1.265 2.434.5 4a8.43 8.43 0 0 1-.5-4Z" opacity=".025"/><path fill="#c55b5b" d="M580.5 219.5a841.44 841.44 0 0 1-12.5 154 173.563 173.563 0 0 1-17 46c-11.922 15.947-22.255 32.947-31 51a79.344 79.344 0 0 0-6 24 456.54 456.54 0 0 0-1 55 188.356 188.356 0 0 0 17.5 22 233.19 233.19 0 0 0 22.5 22c.749 1.135.583 2.135-.5 3-4.176 2.023-6.009 5.357-5.5 10-1.011.837-2.178 1.17-3.5 1-2.925.04-5.591-.793-8-2.5a341.539 341.539 0 0 1-22.5-21.5 857.756 857.756 0 0 0 3 102c3.655 14.318 10.655 26.651 21 37a3053.982 3053.982 0 0 0 58.5 89 98.16 98.16 0 0 0 8 11 299.666 299.666 0 0 1 17 28 4.934 4.934 0 0 1-.5 3 352.115 352.115 0 0 0-13.5-17 20318.084 20318.084 0 0 1-17.5-29c-10.638-9.298-18.971-20.298-25-33a511.74 511.74 0 0 1-37.5-48c-8.184-13.037-14.184-27.037-18-42a1978.64 1978.64 0 0 1 3.5-201 51.448 51.448 0 0 1 3-11 375.974 375.974 0 0 1 30-56 244.681 244.681 0 0 0 15-44 2602.31 2602.31 0 0 0 11-82c.57-23 1.07-46 1.5-69l8-2Z"/><path fill="#7e3a39" d="M279.5 220.5c1.098 1.101 1.265 2.434.5 4a8.43 8.43 0 0 1-.5-4Z" opacity=".04"/><path fill="#7e3a39" d="M280.5 226.5c1.025.397 1.192 1.063.5 2a2.428 2.428 0 0 1-.5-2Z" opacity=".018"/><path fill="#7e3a39" d="M281.5 231.5c1.333.667 1.333.667 0 0Z" opacity=".004"/><path fill="#bf53b6" d="M314.5 246.5c2.26.738 2.427 1.738.5 3-1.728-.852-1.895-1.852-.5-3Z" opacity=".467"/><path fill="#701d1d" d="M543.5 607.5a256.247 256.247 0 0 1 2 14 361.301 361.301 0 0 0-5 26c-.042 8.748 3.291 15.915 10 21.5a271.967 271.967 0 0 1 33.5 24.5c10.026 12.04 18.026 25.373 24 40 4.546 16.797 5.546 33.797 3 51-2.095 10.868-7.262 19.868-15.5 27a3053.982 3053.982 0 0 1-58.5-89c-10.345-10.349-17.345-22.682-21-37a857.756 857.756 0 0 1-3-102 341.539 341.539 0 0 0 22.5 21.5c2.409 1.707 5.075 2.54 8 2.5Z"/><path fill="#d87b7b" d="M508.5 684.5c3.816 14.963 9.816 28.963 18 42 2.116 6.3 4.95 12.3 8.5 18a8855.61 8855.61 0 0 1 71.5 92 352.115 352.115 0 0 1 13.5 17 4.934 4.934 0 0 0 .5-3c1.826 1.647 3.16 3.647 4 6-.958-.453-1.792-1.119-2.5-2-.325 2.053.009 4.053 1 6a1549.176 1549.176 0 0 1 24.5 46c-3.178 2.758-6.845 4.758-11 6a27.752 27.752 0 0 0-3.5-11 2498.338 2498.338 0 0 0-39-53 561.405 561.405 0 0 0-22.5-24 1180.505 1180.505 0 0 1-21.5-35 1078.975 1078.975 0 0 1-27-35 682.497 682.497 0 0 0-18-37c1.191-11.107 2.358-22.107 3.5-33Z" opacity=".999"/><path fill="#c65c5c" d="M629.5 918.5a102.317 102.317 0 0 1-8 14.5c-2.079.808-4.079.641-6-.5a149.103 149.103 0 0 1-9.5-21 5737.328 5737.328 0 0 1-69-108 667.27 667.27 0 0 0-45.5-60.5c-6.648-3.007-11.982-1.507-16 4.5a1505.093 1505.093 0 0 1-76.5 136 142.917 142.917 0 0 0-12 36c-4.23 6.891-10.23 11.558-18 14a107.125 107.125 0 0 1-8.5-9c32.173-66.71 69.673-130.043 112.5-190 4.391-5.117 9.891-7.283 16.5-6.5a639.51 639.51 0 0 1 64.5 82.5 813.433 813.433 0 0 0 34 57 612.096 612.096 0 0 0 41.5 51Z"/><path fill="#d06d6d" d="M526.5 726.5a511.74 511.74 0 0 0 37.5 48c6.029 12.702 14.362 23.702 25 33 5.856 9.722 11.689 19.389 17.5 29a8855.61 8855.61 0 0 0-71.5-92 85.347 85.347 0 0 1-8.5-18Z"/><path fill="#c75c5c" d="M624.5 856.5a661.519 661.519 0 0 1 16.5 24c9.222 5.776 13.722 14.11 13.5 25a51.569 51.569 0 0 1-7 1 1549.176 1549.176 0 0 0-24.5-46c-.991-1.947-1.325-3.947-1-6 .708.881 1.542 1.547 2.5 2Z" opacity=".999"/></svg>