<svg xmlns="http://www.w3.org/2000/svg" xmlns:xlink="http://www.w3.org/1999/xlink" id="Capa_1" data-name="Capa 1" viewBox="0 0 134.651 134.267" version="1.1" width="134.651" height="134.267"><defs id="defs4"><linearGradient xlink:href="#a" id="linearGradient883" x1="83.378" y1="107.313" x2="156.965" y2="107.313" gradientUnits="userSpaceOnUse" gradientTransform="translate(-51.499 -43.224)"/><linearGradient id="a"><stop offset="0" stop-color="#fff" id="stop886"/><stop offset="1" stop-color="#bdcdd4" id="stop888"/></linearGradient><style id="style2">.cls-4{fill:#7a56a6}</style><path id="rect970" d="M-35.983 171.018H71.56v65.901H-35.983z"/></defs><path id="rect22" d="M31.879 29.535h73.587v69.106H31.879z" fill="url(#linearGradient883)" fill-opacity="1"/><path d="M19.312 65.288h-8.178a3.51 3.51 0 0 1-.355-.002.406.406 0 0 0-.482.342 4.518 4.518 0 0 1-1.336 2.064 4.86 4.86 0 0 1-6.345.14 4.598 4.598 0 0 1-1.672-2.946 4.67 4.67 0 0 1 1.692-4.479 4.794 4.794 0 0 1 6.434.27c.54.532.956 1.176 1.218 1.887.14.374.142.38.543.382.637.005 1.274.002 1.91.002h14.89c.664 0 .664 0 .665-.654v-10.8c0-.606-.002-.607-.614-.607a38437.285 38437.285 0 0 0-9.245 0 .491.491 0 0 0-.572.356 2.428 2.428 0 0 1-1.837 1.457 2.573 2.573 0 0 1-3.04-2.442 2.641 2.641 0 0 1 1.894-2.543 2.538 2.538 0 0 1 2.947 1.34.61.61 0 0 0 .618.385c3.127-.007 6.253-.003 9.379-.006.444 0 .468-.029.469-.49.002-2.371.002-4.742 0-7.112-.001-.45-.028-.47-.484-.479a275.43 275.43 0 0 1-3.906-.105 157.105 157.105 0 0 0-3.107-.073 1.654 1.654 0 0 1-1.254-.529 101.833 101.833 0 0 0-3.501-3.474c-.972-.914-1.875-1.897-2.866-2.789a.917.917 0 0 1-.33-.782c.117-2.22.05-4.441.084-6.662.02-1.407.006-2.815.009-4.223a4.528 4.528 0 0 1 .034-.664c.061-.406.044-.432-.344-.597a4.73 4.73 0 0 1-2.588-2.502c-1.37-3.051.704-6.537 4.039-6.79 3.335-.253 5.91 2.88 5.018 6.102a4.662 4.662 0 0 1-3.15 3.295c-.668.226-.668.22-.67.94-.007 1.821.033 3.645-.037 5.465-.06 1.57-.02 3.14-.057 4.708a.928.928 0 0 0 .302.745c1.77 1.727 3.535 3.46 5.293 5.2a.8.8 0 0 0 .593.243c1.258.023 2.516.063 3.773.102.694.021 1.39.03 2.085.062.236.011.474.016.71.006.297-.013.333-.053.352-.337.008-.118.003-.237.003-.355 0-2.46.026-4.92-.009-7.379a3.593 3.593 0 0 1 3.561-3.568c2.623-.006 5.245-.002 7.868-.002.133 0 .266.003.4 0 .417-.012.445-.036.446-.47.003-1.57.004-13.141 0-14.712 0-1.481-.004-2.963.005-4.445a.544.544 0 0 0-.357-.579c-1.726-.76-2.045-3.073-.588-4.272 2.93-2.455 6.198 2.525 2.78 4.236a.63.63 0 0 0-.395.653c.01 3.008.006 16.015.006 19.023 0 .074-.003.149.004.222.025.276.07.32.358.34.118.008.237.004.356.004h12.712c.698 0 .698 0 .699-.718 0-.607-.02-1.216.007-1.822a1.19 1.19 0 0 0-.397-.977c-1.281-1.254-2.536-2.535-3.813-3.793a1.1 1.1 0 0 1-.36-.858c.014-1.97 0-3.94.013-5.911a.655.655 0 0 0-.427-.714 2.495 2.495 0 0 1-1.356-2.854 2.588 2.588 0 0 1 2.517-1.996 2.54 2.54 0 0 1 2.512 2.527 2.433 2.433 0 0 1-1.441 2.355.56.56 0 0 0-.366.578c.01 1.852.01 3.704 0 5.556 0 .267.119.52.323.694 1.293 1.284 2.573 2.58 3.873 3.858.254.227.391.557.372.898-.022.903-.01 1.807-.006 2.71.002.433.029.465.45.465 2.711.003 5.423.003 8.134 0 .394 0 .421-.04.431-.44.003-.132 0-.266 0-.4V10.326c0-.118.002-.237 0-.355-.005-.424-.004-.429-.397-.567a4.72 4.72 0 0 1-2.744-2.393c-1.448-2.849.225-6.292 3.36-6.915 3.133-.624 5.996 1.918 5.749 5.104a4.68 4.68 0 0 1-3.14 4.159c-.39.158-.489.074-.489.696.001 5.586.002 11.172.001 16.757 0 .06 0 .119.002.178.019.336.062.38.392.4.088.004.178.001.266.001h6.801c.666 0 .667-.001.667-.66 0-2.49-.006-4.979.007-7.468a.778.778 0 0 0-.477-.83 2.44 2.44 0 0 1-1.26-2.855 2.475 2.475 0 0 1 2.453-1.95 2.56 2.56 0 0 1 2.502 1.955 2.524 2.524 0 0 1-1.353 2.902.629.629 0 0 0-.428.67c.013 2.563.007 5.126.007 7.69 0 .088.003.177.004.266a.251.251 0 0 0 .278.274c.104.003.208.006.311.006h11.69c.598 0 .6-.002.6-.584V15.561c0-.527.026-.52-.516-.717a4.902 4.902 0 0 1-3.145-4.478 4.826 4.826 0 1 1 9.51 1.117 4.732 4.732 0 0 1-3.1 3.402c-.473.177-.475.176-.475.69v11.246c0 .104 0 .207.006.31a.238.238 0 0 0 .254.25c.103.006.207.008.31.008h6.179c.575 0 .577-.003.578-.561 0-1.349.012-2.697-.007-4.045a1.13 1.13 0 0 1 .377-.896c1.028-1.003 2.033-2.032 3.057-3.04a.931.931 0 0 0 .313-.74 39.954 39.954 0 0 1 0-2.134.598.598 0 0 0-.398-.647 2.435 2.435 0 0 1-1.41-1.874c-.578-3.43 4.616-4.199 5.058-.75a2.526 2.526 0 0 1-1.382 2.608.665.665 0 0 0-.43.727c.018.874-.002 1.748.01 2.622a1 1 0 0 1-.324.786c-1.035 1.018-2.052 2.055-3.088 3.072a.995.995 0 0 0-.331.78c.015 1.171.006 2.342.006 3.512 0 .074-.003.149.003.222.023.285.067.339.344.353.266.014.534.004.8.006a3.585 3.585 0 0 1 3.651 3.668c.005 3.26.005 6.52.002 9.779 0 .686 0 .671.692.616.442-.035.888-.02 1.332-.024 1.436-.013 2.87-.126 4.306-.105.074 0 .148 0 .222-.002.39.026.77-.12 1.042-.4.096-.11.225-.192.33-.296l3.945-3.911c.295-.291.6-.573.909-.848.193-.165.3-.41.288-.663-.014-3.008-.006-6.015-.04-9.022-.006-.56-.05-1.123-.052-1.685a.36.36 0 0 0-.316-.403 4.81 4.81 0 0 1-1.889-.951 4.71 4.71 0 0 1-1.703-2.93c-.67-3.976 3.536-6.974 7.074-5.044 3.539 1.93 3.296 7.09-.41 8.678-.443.189-.43.194-.428.65.008 1.555-.042 3.113.023 4.666.095 2.251.005 4.502.082 6.752.025.37-.121.73-.397.976a1094.308 1094.308 0 0 0-6.177 6.077l-.032.031c-.34.393-.84.612-1.36.595-1.45-.026-2.899.075-4.35.105-.886.018-1.774.049-2.662.076-.39.012-.422.039-.427.444-.007.622-.002 1.245-.002 1.867 0 1.6 0 3.2.002 4.8.001.456.027.482.478.482l9.068.004a.767.767 0 0 0 .59-.242c.907-.916 1.822-1.824 2.732-2.737.272-.273.268-.277.037-.575-1.743-2.102.564-5.107 3.044-3.97 2.48 1.136 1.709 4.845-1.02 4.897a.928.928 0 0 0-.696.314c-1.074 1.084-2.173 2.144-3.226 3.248a1.6 1.6 0 0 1-1.287.522c-2.993-.02-5.986-.01-8.979-.01-.784 0-.743-.018-.742.764 0 1.14-.002 2.282.002 3.422.002.478.021.497.508.497 2.874.002 5.749-.004 8.623.007.27.033.525-.13.609-.388a2.527 2.527 0 0 1 3.974-.824c1.628 1.413.88 4.083-1.246 4.444a2.503 2.503 0 0 1-2.743-1.433.571.571 0 0 0-.588-.36c-2.89.008-5.778.004-8.667.007-.423 0-.467.044-.47.455a254.278 254.278 0 0 0 .001 3.111c.002.368.053.407.41.424.104.005.208.002.312.002h16.579c.65.006.571-.074.731-.5a4.824 4.824 0 0 1 6.707-2.63c3.37 1.708 3.561 6.45.34 8.424a4.815 4.815 0 0 1-7.017-2.36c-.24-.591-.234-.594-.878-.594h-16.49c-.701 0-.698-.06-.698.71.001 3.26.002 6.519.001 9.779 0 .66.001.66.657.661.992 0 1.985-.01 2.978.006.31.018.612-.105.821-.335 1.288-1.31 2.599-2.598 3.887-3.907.231-.251.561-.386.902-.37 1.911.013 3.823-.005 5.734.014a.817.817 0 0 0 .863-.499c1.579-2.923 5.984-.674 4.54 2.319a2.443 2.443 0 0 1-2.269 1.456 2.415 2.415 0 0 1-2.323-1.43.635.635 0 0 0-.68-.41 357.21 357.21 0 0 1-5.379 0 .953.953 0 0 0-.742.31c-1.25 1.265-2.525 2.504-3.758 3.785a1.57 1.57 0 0 1-1.288.521c-1.08-.032-2.163-.01-3.245-.01-.103 0-.207-.003-.31.003-.327.02-.381.063-.384.405a197.08 197.08 0 0 0 0 2.978c.002.38.053.417.45.43.088.003.177 0 .266 0h8.89c.074-.003.148-.003.222.002a.55.55 0 0 0 .614-.385 2.378 2.378 0 0 1 1.71-1.363 2.514 2.514 0 0 1 3.017 1.72 2.56 2.56 0 0 1-1.366 3.088 2.506 2.506 0 0 1-3.291-1.076.867.867 0 0 0-.917-.545c-2.993.02-5.986.01-8.978.01-.618 0-.62.001-.62.609-.002 1.156-.001 2.311 0 3.467.003.477.022.494.51.496 1.688.006 3.373.11 5.061.125.56.005 1.123.055 1.685.053a.848.848 0 0 1 .63.272c.714.71 1.434 1.415 2.158 2.115 1.388 1.335 2.74 2.707 4.107 4.063.11.12.23.23.36.329.256.167.386.47.332.77-.13 1.478-.045 4.96-.085 6.44a259.374 259.374 0 0 0-.095 6.973c0 .546-.013.546.5.777 4.22 1.826 3.748 7.953-.7 9.112-4.447 1.16-7.85-3.958-5.06-7.61a4.732 4.732 0 0 1 2.484-1.71c.436-.122.435-.131.44-.572.009-.859-.01-1.72.028-2.577.092-2.043.053-4.086.097-6.13.013-.604.044-3.21.057-3.817a.783.783 0 0 0-.252-.632c-1.234-1.174-2.404-2.413-3.654-3.571a32.976 32.976 0 0 1-1.571-1.571 1.161 1.161 0 0 0-.932-.397c-1.687.013-3.373-.122-5.061-.106-.252.003-.497-.08-.752-.061-.179.012-.275.09-.28.27-.005.134-.008.267-.008.4 0 2.208.006 4.416-.002 6.623a3.592 3.592 0 0 1-2.863 3.497c-.233.042-.47.06-.707.053h-7.779c-.118 0-.237-.002-.355 0-.428.009-.447.024-.449.46-.003 1.096.007 6.192-.007 7.288a.946.946 0 0 0 .306.744c1.318 1.302 2.618 2.621 3.938 3.92.263.237.407.58.392.934-.017 1.94 0 3.882-.014 5.822-.037.31.14.607.43.72a2.476 2.476 0 0 1 1.397 2.476 2.506 2.506 0 0 1-1.937 2.282 2.55 2.55 0 0 1-3.18-2.415 2.406 2.406 0 0 1 1.411-2.337.676.676 0 0 0 .44-.713 382.52 382.52 0 0 1 0-5.333 1.005 1.005 0 0 0-.323-.784c-1.318-1.301-2.618-2.62-3.938-3.92a1.142 1.142 0 0 1-.373-.9c.017-1.185.006-6.37.006-7.556 0-.118-.003-.237-.002-.355.002-.214-.087-.338-.317-.33-.074.002-.148-.002-.222-.002H86.67a5.37 5.37 0 0 0-.31.008.215.215 0 0 0-.224.226 7.015 7.015 0 0 0-.007.355c0 3.2.004 6.4-.007 9.6a.686.686 0 0 0 .445.75 2.489 2.489 0 0 1 1.366 2.652c-.278 1.87-2.416 2.804-3.977 1.737-1.56-1.067-1.466-3.398.175-4.336.09-.052.182-.1.278-.14a.404.404 0 0 0 .267-.418c-.002-.103.003-.207.003-.31V101.5c0-.655-.001-.656-.662-.656H76.95c-.394.011-.412.03-.421.443v.044c0 1.467.005 2.934-.006 4.4-.03.253.12.492.36.576 1.814.816 2.044 3.3.41 4.435-1.635 1.135-3.883.052-4.014-1.933a2.469 2.469 0 0 1 1.49-2.505c.2-.07.326-.265.31-.476-.005-1.526.001-3.052-.005-4.578-.001-.365-.044-.403-.42-.404-1.762-.004-3.526-.004-5.289 0-.37.001-.4.04-.414.411-.005.118-.002.237-.002.356v22.49c0 .589 0 .589.565.819a4.793 4.793 0 0 1 2.656 6.463c-2.058 4.684-9.037 3.344-9.213-1.77a4.778 4.778 0 0 1 .797-2.86 4.729 4.729 0 0 1 2.406-1.883c.446-.158.449-.16.45-.62v-22.89c0-.09-.003-.178-.006-.267a.23.23 0 0 0-.252-.246c-.088-.002-.177-.005-.266-.005H62.04c-.089 0-.178.003-.267.004a.25.25 0 0 0-.284.266c-.005.133-.007.266-.007.4 0 2.118-.011 4.237.008 6.356a1.37 1.37 0 0 1-.445 1.094c-1.055 1.019-2.075 2.074-3.122 3.1-.23.21-.354.511-.337.822.015 1.318.012 2.637.002 3.956a.543.543 0 0 0 .357.576 2.539 2.539 0 0 1 1.238 3.482 2.508 2.508 0 0 1-2.386 1.418 2.584 2.584 0 0 1-2.345-1.813 2.537 2.537 0 0 1 .859-2.75c.16-.134.335-.245.524-.33a.463.463 0 0 0 .308-.524c-.008-.163-.001-.326-.001-.489 0-1.348.011-2.696-.007-4.045a1.23 1.23 0 0 1 .397-.979c1.073-1.043 2.118-2.114 3.184-3.165a.955.955 0 0 0 .32-.738c-.01-2.045-.005-4.09-.005-6.134l-.003-.222c0-.178-.079-.28-.265-.281-.104 0-.208-.004-.311-.004h-9.868c-.537.004-.547.01-.548.547-.002 2.652.005 5.304-.007 7.956a.686.686 0 0 0 .45.71c2.351 1.216 1.525 4.763-1.12 4.817-2.643.054-3.613-3.457-1.314-4.767a1.02 1.02 0 0 1 .199-.1.48.48 0 0 0 .346-.54c-.007-2.726-.003-5.452-.006-8.178 0-.424-.022-.443-.462-.444-2.045-.002-4.09-.002-6.134 0-.454 0-.471.028-.486.477-.06 1.745-.158 3.489-.186 5.235-.005.31-.073.617-.063.93a.582.582 0 0 1-.212.423c-.871.908-1.74 1.818-2.61 2.728-1.217 1.274-2.427 2.555-3.652 3.82-.772.798-.527.672-1.523.674-3.66.005-7.319.006-10.979.002a3.24 3.24 0 0 1-.355-.002.651.651 0 0 0-.712.391 4.372 4.372 0 0 1-1.663 1.691 4.636 4.636 0 0 1-4.904.05c-3.334-1.927-3.173-6.793.28-8.496a4.595 4.595 0 0 1 5.066.496 4.495 4.495 0 0 1 1.71 2.53c.063.244.115.49.157.739a.267.267 0 0 0 .298.258l.133.003h.133c3.393.008 6.786.011 10.178.03.355.023.7-.118.938-.383 1.436-1.535 2.889-3.055 4.337-4.578.276-.29.553-.579.842-.855a.956.956 0 0 0 .291-.714c.022-.799.057-1.597.088-2.395l.084-2.262c.005-.148.011-.297.002-.445-.017-.29-.057-.327-.343-.345-.119-.007-.237-.003-.356-.003-1.882 0-3.764-.024-5.645.007a3.595 3.595 0 0 1-3.55-3.568c.035-2.785.01-5.57.01-8.356 0-.119.001-.237-.002-.356-.009-.407-.028-.427-.424-.438-.06-.002-.119 0-.178 0-1.881 0-7.763.008-9.645-.009a1.137 1.137 0 0 0-.893.378c-1.635 1.655-3.29 3.289-4.924 4.945-.24.26-.584.4-.938.381-1.911-.015-3.823 0-5.734-.012a.675.675 0 0 0-.72.422c-.966 1.952-3.776 1.87-4.627-.134a2.554 2.554 0 0 1 1.236-3.32 2.527 2.527 0 0 1 3.351 1.11.748.748 0 0 0 .783.486c1.733-.02 3.467-.015 5.2-.003.31.014.611-.11.822-.339 1.647-1.664 3.311-3.31 4.956-4.976a1.2 1.2 0 0 1 .94-.386c1.985.014 7.97.006 9.956.006.118 0 .237.002.355 0 .458-.01.478-.028.484-.478.003-.222.001-.444.001-.666v-6.934c0-.134-.004-.267-.002-.4.003-.197-.084-.308-.288-.311-.09-.002-.178-.005-.267-.005-3.052 0-6.104.004-9.156-.006a.676.676 0 0 0-.717.428c-1.412 2.82-5.68 1.072-4.708-1.929.667-2.145 3.585-2.432 4.657-.458.136.36.504.578.885.523 2.978-.018 5.956-.009 8.934-.009.103 0 .207.004.31-.002.301-.016.331-.045.35-.333.006-.088.002-.178.002-.267V65.88c0-.59-.002-.592-.583-.592h-8.4zM67.8 30.974H32.6c-.728 0-.72-.07-.72.733v64.802c0 .753 0 .753.754.753h70.313c.803 0 .733.009.733-.719V31.696c0-.775.053-.722-.722-.722H67.8zm-49.258 82.117a2.425 2.425 0 0 0-2.486-2.52c-3.375-.012-3.373 5.058.002 5.044a2.43 2.43 0 0 0 2.483-2.524zM5.713 61.621a2.49 2.49 0 0 0-2.524 2.492c-.034 3.384 5.054 3.397 5.037.013a2.496 2.496 0 0 0-2.513-2.504zm64.563 67.804a2.495 2.495 0 0 0-2.506-2.51c-3.355-.016-3.385 5.021-.03 5.038a2.5 2.5 0 0 0 2.536-2.528zM67.793 2.328a2.475 2.475 0 0 0-2.549 2.465c-.061 3.385 5.031 3.435 5.036.05a2.475 2.475 0 0 0-2.487-2.515zm52.69 114.268a2.474 2.474 0 0 0 2.537-2.486c.05-3.384-5.037-3.424-5.041-.04a2.474 2.474 0 0 0 2.504 2.526zM92.575 12.81c3.373.013 3.35-5.06-.023-5.016a2.461 2.461 0 0 0-2.496 2.535 2.434 2.434 0 0 0 2.519 2.481zm-75.636 4.211c.088-3.378-5-3.457-5.015-.077a2.504 2.504 0 0 0 2.483 2.544 2.478 2.478 0 0 0 2.532-2.467zM132.325 64.12c-.02-2.238-2.74-3.331-4.305-1.73-1.565 1.6-.411 4.293 1.828 4.264a2.492 2.492 0 0 0 2.477-2.534zm-13.75-44.721c-.02 3.353 5.008 3.388 5.035.035.038-3.37-5.025-3.406-5.035-.035zM42.36 4.85a1.106 1.106 0 0 0-1.094-1.113 1.143 1.143 0 0 0-1.107 1.114 1.131 1.131 0 0 0 1.083 1.133A1.103 1.103 0 0 0 42.36 4.85zm34.37 11.38a1.104 1.104 0 0 0 1.113 1.088 1.132 1.132 0 0 0 1.081-1.131c0-.61-.492-1.104-1.1-1.106a1.075 1.075 0 0 0-1.094 1.15zm-2 92.366a1.075 1.075 0 0 0 1.084 1.158c.61 0 1.107-.49 1.113-1.1a1.125 1.125 0 0 0-1.075-1.135 1.104 1.104 0 0 0-1.123 1.077zm-26.393 2.633c-.982 0-1.476 1.185-.784 1.882.692.697 1.88.21 1.887-.771a1.125 1.125 0 0 0-1.103-1.11zm9.665 8.513c-.025-.98-1.222-1.443-1.9-.734-.677.71-.162 1.884.82 1.865a1.126 1.126 0 0 0 1.08-1.131zm68.444-47.155a1.146 1.146 0 0 0-1.117-1.148 1.12 1.12 0 0 0-1.084 1.125 1.103 1.103 0 0 0 1.084 1.114c.606 0 1.102-.485 1.117-1.091zM99.009 121.9a1.138 1.138 0 0 0-1.133 1.082c-.01 1.489 2.22 1.511 2.241.023a1.137 1.137 0 0 0-1.108-1.105zM53.385 10.308a1.094 1.094 0 0 0-1.09-1.106 1.121 1.121 0 0 0-1.1 1.152c.012.592.49 1.07 1.083 1.082a1.066 1.066 0 0 0 1.107-1.128zM16.67 77.183a1.104 1.104 0 0 0-1.057-1.135c-1.485-.023-1.519 2.205-.034 2.227a1.05 1.05 0 0 0 1.09-1.092zM1.479 93.076c.603 0 .449 1.11 1.052 1.138 1.494.037 1.536-2.208.042-2.227-.613-.027-1.708 1.089-1.094 1.089zm121.776-46.873c.005-.99-1.194-1.484-1.888-.78s-.183 1.895.805 1.877a1.053 1.053 0 0 0 1.083-1.097zM85.43 112.94a1.17 1.17 0 0 0-1.144 1.079 1.157 1.157 0 0 0 1.068 1.155 1.178 1.178 0 0 0 1.163-1.062 1.144 1.144 0 0 0-1.087-1.172zM14.458 50.213a1.059 1.059 0 0 0 1.096 1.082c1.49-.01 1.444-2.253-.044-2.204a1.05 1.05 0 0 0-1.052 1.122zm105.95 7.992a1.12 1.12 0 0 0-1.115-1.09c-.99.004-1.477 1.208-.769 1.9.708.693 1.9.18 1.884-.81zM105.47 14.139c1.459-.003 1.473-2.184.014-2.206-1.496-.035-1.51 2.223-.014 2.206zm13.44 68.33a1.056 1.056 0 0 0 1.103 1.08 1.095 1.095 0 0 0 1.086-1.116 1.083 1.083 0 0 0-1.118-1.075 1.049 1.049 0 0 0-1.071 1.11z" id="path24"/><circle class="cls-4" cx="16.035" cy="113.093" r="3.403" id="circle30" fill="#19aeff"/><circle class="cls-4" cx="129.818" cy="64.089" r="3.403" id="circle32" fill="#ff4141"/><circle class="cls-4" cx="67.78" cy="4.842" r="3.403" id="circle34" fill="#f90"/><text xml:space="preserve" id="text968" style="line-height:1.25;white-space:pre;shape-inside:url(#rect970)" transform="translate(98.535 -221.806) scale(1.49456)" font-style="normal" font-weight="400" font-size="40" font-family="sans-serif" fill="#000" fill-opacity="1" stroke="none"><tspan x="-35.982" y="206.408"><tspan style="-inkscape-font-specification:'Source Sans Pro Semi-Bold'" font-weight="600" font-family="Source Sans Pro">AI</tspan></tspan></text></svg>