<?xml version="1.0" encoding="UTF-8" standalone="no"?>
<!-- Created with Inkscape (http://www.inkscape.org/) -->

<svg
   width="154.36755mm"
   height="159.64912mm"
   viewBox="0 0 154.36755 159.64912"
   version="1.1"
   id="svg1"
   xmlns="http://www.w3.org/2000/svg"
   xmlns:svg="http://www.w3.org/2000/svg">
  <defs
     id="defs1" />
  <g
     id="layer1"
     transform="translate(-31.839849,-37.052208)">
    <g
       id="g6">
      <path
         id="path5"
         style="fill:#338000;fill-opacity:0.614286;stroke:#0b280b;stroke-width:1.5;stroke-linecap:round;stroke-linejoin:bevel;stroke-dasharray:none;stroke-opacity:0.701031;paint-order:markers stroke fill"
         d="m 142.59222,149.03707 c -5.68815,8.7496 14.78691,24.85446 13.40913,28.29116 -1.37779,3.4367 -18.30397,-14.21834 -29.26647,-15.45133 -6.75867,-0.76017 -15.33871,0.0685 -19.70884,5.28001 -6.09607,7.2697 -0.40263,23.77419 -2.46135,28.35554 -2.05871,4.58134 -6.129728,-28.12817 -17.691139,-31.54832 -8.448163,-2.49917 -16.392962,9.171 -23.388502,12.30991 -6.99554,3.13892 7.541129,-15.4396 6.276905,-23.42341 -1.063719,-6.71758 -5.438038,-13.36239 -11.111951,-17.11261 -7.267462,-4.80349 -22.65517,-1.73493 -25.743374,-4.5038 -3.088204,-2.76886 17.288117,-8.16503 22.552424,-15.64898 3.913009,-5.56289 6.169688,-12.96528 5.281797,-19.708356 C 59.397198,85.672531 37.477198,74.633874 45.29983,69.13772 c 5.888321,-4.137113 19.358854,9.930671 28.282292,10.882984 16.181764,1.726924 15.839812,-40.389667 28.347368,-39.108595 5.18241,0.530802 0.28555,26.513401 10.20893,28.77934 14.01493,3.200216 24.10842,-27.537331 30.63153,-30.358635 13.14605,-5.685793 10.6632,4.263348 -6.21253,37.671582 0,0 4.09163,11.672362 9.05634,14.428349 10.40785,5.77756 34.10602,-13.003472 35.71162,0.116034 0.58455,4.776419 -22.77076,9.045761 -28.40041,18.932921 -3.36529,5.91035 -4.38737,14.43913 -1.06878,20.37583 6.19407,11.08073 36.16294,15.13547 33.44054,18.22287 -1.36119,1.5437 1.66864,-1.03037 -6.5807,0.84934 -8.24935,1.87971 -29.55872,-10.9912 -36.12381,-0.89267 z" />
      <path
         style="fill:#0a280a;fill-opacity:0.701961;stroke:#0b280b;stroke-width:0;stroke-linecap:round;stroke-linejoin:bevel;stroke-dasharray:none;stroke-opacity:0.701031;paint-order:markers stroke fill"
         d="m 79.540691,106.93313 c 3.880694,-6.68153 11.261176,-11.409123 18.595958,-13.838855 2.873681,-0.951941 9.081751,0 9.081751,0 8.24585,0 16.43347,7.218915 19.89335,14.703785 1.57923,10.6692 -4.271,22.27359 -6.91942,32.86727 -1.49662,5.98649 -11.74817,4.1714 -17.89204,4.7513 -5.404997,0.51017 -11.351202,-0.27545 -15.990935,-3.32566 -2.876753,-1.8912 -9.185005,-15.34384 -8.912923,-17.57491 0,0 -0.821177,-12.47723 2.144259,-17.58293 z"
         id="path6" />
    </g>
  </g>
</svg>
