<?xml version="1.0" encoding="utf-8"?>
<!-- Generator: Adobe Adobe Illustrator 24.2.0, SVG Export Plug-In . SVG Version: 6.00 Build 0)  -->
<svg version="1.1" xmlns="http://www.w3.org/2000/svg" xmlns:xlink="http://www.w3.org/1999/xlink" x="0px" y="0px" width="1000px"
	 height="1000px" viewBox="0 0 1000 1000" style="enable-background:new 0 0 1000 1000;" xml:space="preserve">
<style type="text/css">
	.st0{display:none;}
	.st1{display:inline;}
	.st2{fill:#2C2C2C;}
	.st3{fill:#F1F1F1;}
	.st4{fill:#D1D1D1;}
	.st5{fill:#9E9E9E;}
	.st6{fill:#C8C8C8;}
	.st7{fill:#BFBFBF;}
	.st8{fill:#B2B2B2;}
	.st9{fill:#A8A8A8;}
	.st10{fill:#B9B9B9;}
	.st11{fill:#B5B5B5;}
	.st12{fill:#C3C3C3;}
	.st13{fill:#F0F0F0;}
	.st14{fill:#D2D2D2;}
	.st15{fill:#9D9D9D;}
	.st16{fill:#BEBEBE;}
	.st17{fill:#B3B3B3;}
	.st18{fill:#C0C0C0;}
	.st19{fill:#B7B7B7;}
	.st20{fill:#B0B0B0;}
	.st21{fill:#9C9C9C;}
	.st22{fill:#A4A4A4;}
	.st23{fill:#AFAFAF;}
	.st24{fill:#B8B8B8;}
</style>
<g id="レイヤー_1" class="st0">
	<g class="st1">
		<path class="st2" d="M589.61,61.43c105.77,22.56,192.63,75.38,260.2,159.31c43.07,53.5,71.54,114.21,86.71,181.16
			c9.19,40.54,12.93,81.7,10.04,123.05c-9.44,135.2-66.76,245.81-173.53,329.73c-56.56,44.45-120.98,72.33-191.79,85.41
			c-27.75,5.13-55.74,8.31-83.88,7.53c-151.63-4.19-273.46-66.52-362.87-189.47C93.11,701.26,68.48,637,57.81,567.36
			c-4.66-30.44-6.56-61.07-4.4-91.64c9.88-139.86,70.04-252.97,182.64-337.15c58.79-43.95,125.3-70.2,197.77-81.27
			c31.69-4.84,63.61-6.27,95.61-4.03C549.51,54.67,569.45,57.39,589.61,61.43z"/>
		<path class="st3" d="M442.3,87.21c20.1-2.66,39.87-4.49,59.67-4.01c131.86,3.18,240.29,55.28,323.82,157.49
			c44.78,54.8,72.7,117.84,84.89,187.54c14.17,80.98,5.16,159.59-27.34,235.09c-36.09,83.83-93.8,149.05-172.26,195.72
			c-43.32,25.77-89.99,42.75-139.6,51.52c-18.19,3.22-36.56,4.82-55.05,5.65c-49.94,2.27-98.65-4.37-145.88-20.32
			c-107.3-36.24-187.63-104.69-240.69-204.7c-23.77-44.8-38.12-92.71-43.99-143.17C66.8,383.93,147.68,222.43,290.23,140.13
			c46.31-26.74,95.73-44.52,148.7-52.25C439.92,87.73,440.89,87.46,442.3,87.21z"/>
		<path class="st4" d="M837.55,597.73c-5.14,18.73-12.13,36.59-20.35,54.08c-9.52,20.26-21.17,39.16-34.35,57.12
			c-11.2,15.27-23.48,29.73-37.26,42.76c-23.61,22.34-49.39,41.72-78.13,57.15c-33.94,18.22-69.8,30.34-107.68,37.36
			c-27.7,5.13-55.54,5.69-83.37,4.45c-25.5-1.13-50.52-6.38-75.11-13.47c-21.8-6.29-42.73-14.73-62.83-25.13
			c-24.26-12.56-46.71-27.82-67.56-45.57c-29.26-24.89-53.47-53.96-73.3-86.72c-15.38-25.41-26.78-52.65-35.48-81.42
			c3.95-1.5,7.91-2.16,12.14-1.59c5.92,0.79,12.15,0.87,17.84,0.14c14.91-1.92,30.18-1.1,44.74-6.25
			c7.48-2.65,15.78-2.49,23.73-2.87c11.14-0.54,22.2-1.82,33.32-2.48c12.91-0.76,25.82-1.47,38.76-0.95c2.36,0.1,4.63-0.5,6.95-0.67
			c5.78-0.42,11.29,0.3,16.31,3.51c2.6,1.66,5.49,2.21,8.6,2.04c12.29-0.69,24.57-1.65,36.89-1.68c2.68,0,5.39-0.04,7.8-1.34
			c5.93-3.2,12.29-4,18.89-3.66c3.74,0.19,7.14-0.49,10.48-2.49c4.23-2.54,9.09-1.51,13.71-1.28c16.07,0.83,32,3.65,48.19,2.85
			c9.26-0.46,18.46-0.21,27.8-1.47c8.76-1.18,17.86-1.68,26.85-1.58c1.67,0.02,3.48-0.09,4.87,0.85c4.89,3.3,10.36,3.27,15.88,3.13
			c3.88-0.1,7.78,0.27,11.2,2.08c4.93,2.61,10.1,2.84,15.49,2.98c10.81,0.29,21.61,0.76,32.4,1.55c3.29,0.24,6.35-0.22,9.1-1.98
			c4.7-3.01,9.89-3.97,15.31-3.61c12.58,0.83,25.19,0.69,37.79,1.35c20.1,1.05,40.13,2.69,60.16,4.56
			c5.23,0.49,10.05,2.39,14.98,3.72c10.09,2.73,20.49,1.76,30.67,3.42c7.91,1.29,16.2,0.44,24.32,0.31
			C830.61,596.88,833.91,596.8,837.55,597.73z"/>
		<path class="st5" d="M148.54,503.22c-1.07-16.18,0.37-31.86,2.15-47.58c2.9-25.59,8.95-50.41,17.57-74.57
			c13.99-39.24,34.3-74.95,61.06-106.98c28.06-33.58,61.03-61.19,99.31-82.45c35.37-19.65,73-32.73,112.87-39.7
			c25.71-4.5,51.59-6.08,77.52-4.54c37.03,2.2,72.95,9.95,107.7,23.38c51.59,19.93,95.93,50.32,133.24,90.93
			c27.14,29.54,48.38,62.97,64.17,99.93c10.98,25.69,18.64,52.31,23.27,79.77c3.37,20,5.35,40.21,4.36,61.03
			c-5.65,9.63-16.82,11.59-26.55,9.15c-9.53-2.39-16.68-11.81-17.62-21.92c-0.71-7.59-0.83-15.23-2.01-23.19
			c-0.92-8.83-1.96-17.23-4.39-25.8c-1.69-10.34-5.17-19.8-7.82-29.87c-1.05-4.3-2.7-8-4.18-12.14
			c-6.23-15.99-13.1-31.25-22.35-45.79c-10.07-17.42-21.85-33.11-34.66-48.07c-4.56-5.32-9.7-10.1-14.22-15.41
			c-5.88-6.9-13.29-8.93-21.79-8.92c-28.65,0.02-57.3,0.01-85.95,0.01c-2.14,0-4.28,0.05-6.43,0.01c12.28-0.07,23.58,5.18,35.64,6.4
			c3.94,0.4,3.54,5.02,5.64,7.36c0.74,0.82-1.83,1.96-3.3,2.05c-6.82,0.41-13.56,1.86-20.36,2.02c-13.65,0.33-27.24,1.3-40.86,2.03
			c-10.47,0.56-20.94-0.74-31.38-1.53c-7.64-0.58-15.28-0.51-22.93-1.07c-9.93-0.73-19.9-1.9-29.91-1.27
			c-15.93,1.01-31.88,1.63-47.81,2.74c-17.61,1.23-35.19,1.11-52.82-0.3c-11.43-0.91-22.94-0.77-34.33-2.42
			c-1.31-0.19-2.67-0.09-3.94-0.57c-1-0.38-1.76-0.97-1.71-2.15c0.1-3.02,3.46-6.97,6.65-7.23c8.7-0.71,16.8-4.17,25.4-5.29
			c2.81-0.37,5.61-0.7,8.45-0.73c-31.02-0.05-62.04-0.08-93.06-0.04c-8.13,0.01-14.91,2.44-20.91,8.64
			c-18.51,19.12-34.89,39.8-48.69,63.02c-9.24,14.56-16.24,29.77-22.46,45.79c-1.52,4.1-3.19,7.75-4.21,12.04
			c-3.65,10.28-6.27,20.45-8.53,31.13c-1.72,8.2-2.95,16.06-3.91,24.39c-1.21,8.47-1.11,16.64-2.07,24.72
			c-1.18,9.91-8.34,19.1-17.69,21.39C165.48,513.86,154.58,512.32,148.54,503.22z"/>
		<path class="st6" d="M837.94,597.58c-6.69,0.53-13.31,1.92-20.01,0.49c-4.54-0.97-9.13,1.79-13.72,0.32
			c-9.6-3.09-19.72-0.69-29.57-3.56c-10.75-3.14-21.99-5.45-33.32-5.74c-13.12-0.33-26.11-2.47-39.17-2.73
			c-5.76-0.11-11.51-0.99-17.39-0.62c-9.31,0.59-18.71-0.54-28.08-0.7c-4.33-0.08-8.49,0.72-12.1,3.67
			c-2.34,1.91-5.47,2.47-8.46,2.2c-13.22-1.18-26.45-1.97-39.72-1.92c-1.84,0.01-3.68,0.07-5.32-0.96
			c-6.06-3.8-12.75-4.41-19.68-4.06c-4.04,0.2-7.62-0.57-11.26-2.94c-3.85-2.5-8.79-1.25-13.15-0.76
			c-4.91,0.55-9.79,1.61-14.69,0.66c-4.55-0.88-8.26,2.2-12.64,2.1c-8.08-0.19-16.17-0.23-24.24,0c-8.09,0.23-16.04-0.99-24-1.5
			c-9.47-0.61-19.01-2.18-28.58-1.53c-0.98,0.07-2.29,0.04-2.85,0.62c-4.28,4.55-9.79,3.38-14.98,3.3
			c-5.28-0.08-10.23,0.82-14.83,3.46c-1.91,1.1-3.91,1.64-6.17,1.63c-13.44-0.1-26.84,0.67-40.22,1.9
			c-2.84,0.26-5.94-0.19-8.05-1.94c-5.12-4.26-11.02-4.1-17-3.92c-8.7,0.26-17.4,0.94-26.09,0.83c-8.98-0.12-17.85,1.08-26.79,1.38
			c-7.86,0.26-15.7,1.22-23.53,1.91c-9.96,0.88-19.97,1.03-29.83,4.17c-7.35,2.34-15.21,4.7-23.45,2.97
			c-2.54-0.53-5.52,0.62-8.22,1.3c-4.34,1.09-8.57,1.64-13.06,0.58c-2.69-0.63-5.62-0.54-8.42,0.17c-0.48,0.12-1.05,0.56-1.41,0.42
			c-4.95-1.98-10.13,0.67-15.48-0.81c-3.31-11.51-6.79-22.87-8.75-34.6c-2.1-12.51-3.92-25.05-4.71-37.72
			c-0.14-2.29-0.58-4.56-0.84-7.27c4.38-2.37,8.51,0.08,12.7,0.44c5.08,0.44,9.56-0.38,13.96-2.64c1.18-0.61,2.67-0.99,2.63-2.63
			c-0.07-3.78,2.78-4.59,5.47-5.45c2.7-0.86,5.52-1.26,8.33-1.61c19.66-2.43,39.36-4.24,59.16-5.12
			c26.62-1.17,53.23-2.05,79.88-1.88c23.12,0.15,46.26,0.28,69.31,1.86c11,0.75,21.88,1.37,32.85,0.32
			c2.82-0.27,5.64,0.49,8.43,0.91c16.07,2.42,32.16,2.41,48.32,1.05c14.15-1.19,28.26,1.2,42.43,0.91
			c10.84-0.22,21.64-0.59,32.31-2.6c4.38-0.82,8.64,0.13,12.93,0.53c9.37,0.88,18.55-1.42,27.87-1.36
			c12.95,0.09,25.92-0.44,38.84-1.06c16.17-0.78,32.34-0.99,48.45-0.42c28.26,1,56.58,0.57,84.79,3.49
			c10.91,1.13,21.81,2.48,32.74,3.5c3.64,0.34,7.29,0.94,10.59,2.69c1.71,0.9,3.87,1.51,2.81,4.34c-0.55,1.47,0.76,1.97,1.8,2.52
			c3.89,2.08,7.88,3.23,12.45,2.79c4.58-0.44,9.15-2.03,14.17-0.32C849.61,545.47,845.97,571.71,837.94,597.58z"/>
		<path class="st7" d="M851.81,518.59c-5.13,0.93-10.22,1.47-15.3,2.08c-3.72,0.45-7.2-0.21-10.41-2.09
			c-0.99-0.58-1.78-1.42-3.03-1.58c-1.37-0.18-3.41,0.72-3.83-1.29c-0.45-2.19,2.46-1.88,3.3-3.77c-2.23-1.83-5.07-2.52-7.89-2.89
			c-12.44-1.67-24.89-3.15-37.41-4.25c-23.5-2.07-47.03-2.24-70.56-3.09c-17.8-0.65-35.58-0.82-53.33-0.48
			c-11.29,0.22-22.66,0.55-33.98,1.26c-6,0.38-12.42,1.01-18.61-0.08c-3.1-0.55-5.77,1.54-8.69,1.49c-7.12-0.13-14.28,0.9-21.38-0.7
			c-1.89-0.42-4.01-0.27-5.94,0.08c-18.07,3.29-36.2,3.27-54.47,1.94c-8.38-0.61-16.87-0.24-25.36,0.38
			c-11.21,0.82-22.53,0.88-33.84-0.28c-8.63-0.89-17.18-2.01-26.07-1.64c-20.61,0.85-41.2-2.49-61.82-2.38
			c-11.08,0.06-22.15-0.37-33.21-0.47c-23.79-0.22-47.56,0.74-71.3,1.48c-18.1,0.56-36.32,1.5-54.35,4.39
			c-6.63,1.06-13.52,1.19-20.12,2.64c-1.49,0.33-8.76-0.93-3.8,5.29c0.97,1.22-0.67,1.78-1.76,2.28
			c-9.75,4.47-19.63,4.61-30.04,1.05c-0.41-0.45-0.44-0.89-0.45-1.64c1.18-1.73,1.13-3.25,0.22-5.09c-0.22-2.67-0.22-5.07-0.15-7.92
			c1.51-0.25,2.39,0.77,3.35,1.7c7.33,7.12,16.2,7.87,25,4.43c9.02-3.52,13.59-10.92,14.64-20.83c0.77-7.25,0.21-14.6,1.86-22.19
			c2.13-3.27,5.19-3.78,8.44-3.95c47.05-2.48,94.15-4.2,141.25-2.79c20.81,0.62,41.61,0.4,62.4,1.01
			c20.12,0.59,40.24,1.34,60.38,0.77c5.19-0.15,9.57-1.07,11.31-6.88c0.89-2.96,3.51-3.92,6.32-3.99
			c11.32-0.28,22.65-0.21,33.97-0.04c2.91,0.05,5.27,1.2,6.12,4.18c1.44,5.04,5.09,6.61,9.86,6.68c17.47,0.24,34.92,0.08,52.39-0.53
			c14.12-0.49,28.3-0.06,42.42-0.52c31.96-1.03,63.93-1.17,95.89-0.82c20.95,0.23,41.9,1.24,62.81,2.75
			c4.16,0.3,8.33,0.04,12.49,0.19c2.7,0.1,5.36,0.33,7.45,3.17c1,8.57,1.39,16.82,2.45,24.99c1.21,9.28,6.43,16.18,15.27,19.14
			c8.54,2.87,17.02,2.11,24.03-4.65c0.82-0.79,1.81-1.41,3.04-2.19c0.39,2.32,0.45,4.73,0.49,7.58c-1.21,1.84-1.14,3.36-0.25,5.21
			C851.84,516.75,851.84,517.49,851.81,518.59z"/>
		<path class="st6" d="M148.12,511.4c2.81,0.83,2.66,2.52,0.4,4.53C148.14,514.62,148.11,513.22,148.12,511.4z"/>
		<path class="st6" d="M851.87,515.6c-2.79-0.86-2.66-2.53-0.37-4.54C851.87,512.38,851.89,513.78,851.87,515.6z"/>
		<path class="st8" d="M210.42,398.3c5.03-15.99,12.16-30.87,21.35-45.08c1.77-1.51,3.59-1.76,5.44-1.54
			c9.04,1.1,17.92-0.73,26.87-1.39c14.76-1.08,29.5-2.26,44.29-2.94c17.93-0.83,35.88-1.36,53.81-2.5
			c12.44-0.79,24.92-0.91,37.34-2.19c3.12-0.32,5.91,0.78,8.35,2.72c2.72,2.17,5.82,3.07,9.27,3.14c8.1,0.16,16.19,3.35,24.27,0.78
			c11.23-3.57,22.86-4.31,34.44-5.19c15.94-1.21,31.94-1.07,47.89-0.07c11.6,0.73,23.18,1.75,34.46,5.16
			c9.55,2.89,19.13-0.87,28.72-1.17c0.49-0.02,1.07-0.14,1.41-0.45c8.02-7.36,17.64-4.45,26.66-3.72
			c10.79,0.86,21.59,0.87,32.38,1.53c25.05,1.53,50.16,1.9,75.22,3.76c13.56,1.01,27.05,4.04,40.79,2.51
			c1.33-0.15,2.66,0.07,4.21,1.08c9.96,13.89,16.28,29.13,22.31,44.9c-4.51,2.25-9.17,0.84-13.69,0.45
			c-4.42-0.38-8.46-0.18-12.7,1.34c-5.14,1.85-10.91,1.48-15.97,3.83c-17.34,8.06-35.91,5.24-54.06,6.29
			c-20.92,1.21-41.87,1.65-62.79,3.26c-13.41,1.04-26.78,3.11-40.32,2.75c-8.01-0.21-15.89,1.64-23.77,2.79
			c-7.74,1.12-15.53,2.26-23.25,2.8c-20.06,1.42-40.16,1.87-60.33,1.23c-14.66-0.47-29.29-1.45-43.76-3.23
			c-19.01-2.34-38.07-3.89-57.14-5.23c-12.43-0.88-24.79-2.58-37.34-2.63c-14.78-0.06-29.56-1.91-44.37-1.83
			c-9.17,0.05-18.29-1.1-27.42-0.88c-8.35,0.2-15.46-3.63-22.99-6.08c-6.19-2.01-12.65-2.67-18.91-4.44
			c-5.19-1.47-10.86,0.75-16.36,0.71C213.4,398.77,212.07,399.09,210.42,398.3z"/>
		<path class="st9" d="M767.92,352.66c-16.83,2.03-33.39-1.67-50.12-2.47c-7.12-0.34-14.19-1.26-21.35-1.3
			c-10.75-0.06-21.49-1.34-32.24-1.53c-9.89-0.18-19.74-0.84-29.6-1.2c-10.94-0.4-21.86-0.59-32.72-2.07
			c-3.38-0.46-6.68-0.11-9.18,2.71c-2.15,2.42-5.01,3.23-8.08,3.19c-5.34-0.07-10.51,1.03-15.75,1.82
			c-4.65,0.7-9.39-0.23-13.66-1.74c-7.64-2.7-15.58-3.09-23.43-3.97c-16.56-1.85-33.25-1.65-49.82-0.84
			c-12.62,0.62-25.46,0.82-37.73,5.06c-6.5,2.24-13.4,1.91-20.07,0.46c-2.82-0.62-5.58-0.7-8.39-0.75
			c-3.07-0.06-6.02-0.57-8.17-2.97c-2.64-2.95-6-3.44-9.59-2.96c-10.53,1.41-21.1,1.84-31.73,2.02c-8.42,0.14-16.82,1.23-25.24,1.67
			c-2.9,0.15-5.87,0.11-8.74,0.06c-8.5-0.15-16.9,1.05-25.36,1.21c-17.22,0.34-34.37,1.69-51.46,3.84
			c-7.48,0.94-15.03,0.83-22.99,0.12c2.75-8.9,8.78-16.14,14.13-23.64c10.9-15.26,23.03-29.53,36.24-42.95
			c5.21-5.29,11.18-7.21,17.75-7.27c32.66-0.26,65.32-0.12,97.98-0.1c0.94,0,2.01-0.32,3.81,2.11c-15.56,0.33-29.23,5.97-44.02,7.26
			c2.59,3.05,2.59,3.05-2.36,5.76c4.08,1.69,8.1,0.66,11.83,1.61c3.1,0.79,6.58,1.13,9.82,1.11c15.29-0.07,30.5,2.14,45.73,1.95
			c16.21-0.2,32.4-1.89,48.61-2.76c19.88-1.06,39.75-1.92,59.61,0.78c6.89,0.94,13.9,0.45,20.87,0.91
			c17.5,1.15,35.06,1.56,52.6-0.59c8.03-0.98,16.25,0.18,24.36-1.11c4.95-0.79,9.98-1.04,14.94-1.53c-0.04-2.72-8.06-0.45-2.49-6.07
			c-14.98-1.27-28.63-7.21-43.45-7.68c1.48-2.43,3.24-1.75,4.77-1.75c31.49-0.05,62.99-0.1,94.48,0.01
			c7.78,0.03,14.42,2.2,20.37,8.25c18.02,18.33,33.54,38.53,47.48,60.02C766.51,348.88,767.11,350.65,767.92,352.66z"/>
		<path class="st10" d="M806.92,465.58c-3.43-1.59-7.18-1.57-11.02-1.63c-18.42-0.28-36.83-1.28-55.22-2.18
			c-29.13-1.43-58.26-0.89-87.35-0.46c-15.22,0.22-30.46,0.35-45.69,0.74c-18.63,0.47-37.27,0.74-55.9,1.17
			c-6.61,0.15-13.15-0.59-19.75-0.3c-6.1,0.27-8.64-1.93-9.98-7.93c-0.52-2.3-1.75-2.98-3.83-2.98
			c-11.83,0.01-23.66-0.02-35.49,0.03c-2.48,0.01-4.46,0.64-4.77,3.83c-0.49,5.19-4.46,6.98-8.82,7.04
			c-16.08,0.22-32.18,0.5-48.25-0.04c-14.36-0.48-28.69-0.34-43.04-0.47c-21.91-0.19-43.82-1.66-65.77-1.43
			c-12.33,0.13-24.67-0.22-36.99,0.08c-18.75,0.45-37.51,0.96-56.22,2.14c-6.13,0.39-12.25,0.78-18.38,0.75
			c-2.5-0.01-4.43,1.29-7.01,2.02c0.31-8.12,1.46-16.21,3.56-24.56c3.24-3.81,7.51-3.7,11.65-3.88c8.82-0.39,17.43-2.34,26.24-3.25
			c-3.72-1.42-7.54-1.79-11.42-1.76c-5.16,0.04-10.34,0.09-15.46-0.63c-2.97-0.41-5.57-1.45-5.92-5c-0.34-3.5,1.73-6.52,5.47-7.22
			c11.12-2.08,22.41-2.13,33.08,1.42c8.31,2.77,16.66,3.11,25.08,3.31c15.46,0.37,30.91,1.29,46.36,1.62
			c20.62,0.44,41.23,1.44,61.78,2.74c27.39,1.73,54.83,2.21,82.22,4.29c22.16,1.68,44.48,2.16,66.84,0.85
			c15.59-0.91,31.22-1.72,46.84-2.47c23.92-1.16,47.85-2.42,71.77-3.57c14.77-0.71,29.57-1.26,44.35-1.93
			c21.26-0.96,42.57-0.52,63.79-2.45c2.35-0.21,4.55-0.92,6.77-1.65c11.3-3.7,22.85-4.05,34.53-2.48c1.99,0.27,3.97,0.69,5.28,2.47
			c3.39,4.59,1.6,8.6-4.12,9.69c-8.73,1.66-17.66,0.3-26.38,1.9c-0.63,0.12-1.31-0.01-2.32,0.69c2.86,1.1,5.54,1.28,8.25,1.39
			c8.15,0.35,16.14,2.37,24.33,2.38c1.8,0,3.63,0.5,5.56,1.84c3.42,5.33,2.94,11.24,4.25,16.72
			C806.53,459.28,806.59,462.25,806.92,465.58z"/>
		<path class="st11" d="M801.95,439.58c-12.65-0.9-25.3-2.22-37.94-3.58c-0.97-0.1-1.91-0.53-2.86-0.82
			c-0.96-0.28-2.11-0.53-1.94-1.83c0.17-1.26,1.33-1.35,2.34-1.31c5.99,0.22,11.85-1.74,17.86-1.02c4.86,0.59,9.54-1.15,14.36-1.06
			c1.97,0.04,3.4-1.09,3.01-3.08c-0.44-2.28-0.27-5.3-3.61-5.8c-6.4-0.96-12.77-1.44-19.29-0.62c-18.06,2.28-35.76,6.63-54.33,6
			c-10.66-0.36-21.66,0.39-32.5,1.09c-10.3,0.67-20.7,1.25-31.07,1.4c-12.27,0.18-24.5,1.41-36.73,1.73
			c-8.91,0.23-17.73,1.54-26.67,1.42c-16.24-0.22-32.44,1.04-48.59,2.86c-0.49,0.06-1,0.04-1.5,0.04
			c-19.95-0.11-39.89,1.97-59.84,0.94c-20.16-1.05-40.36-1.78-60.46-3.85c-2.31-0.24-4.66-0.14-6.99-0.07
			c-17.95,0.56-35.78-1.82-53.71-2.25c-12.23-0.3-24.5-0.93-36.72-1.85c-9.99-0.74-20.02-1.03-29.99-1.38
			c-8.53-0.3-17.12-1.06-25.73-0.67c-7.2,0.32-14.44-0.55-21.67-0.88c-3.69-0.17-6.47-2.75-10.22-3.37
			c-9.83-1.63-19.5-1.92-29.37-0.72c-4.09,0.5-4.27,3.34-4.6,5.95c-0.41,3.33,2.71,3.55,4.82,3.77c9.2,0.96,18.51-0.31,27.7,1.36
			c1.44,0.26,3.51-0.2,3.73,1.61c0.25,2.02-2.16,1.98-3.33,2.14c-8.66,1.23-17.35,2.48-26.07,3.15c-4.17,0.32-8.24,0.7-12.59,2.07
			c1.64-10.34,4.23-20.59,8.24-30.74c5.05-8.09,13.14-7.39,20.66-8.03c1.77-0.15,3.66,0.49,2.78,2.86c-1,2.7,0.57,3.15,2.51,3.65
			c12.62,3.25,25.47,5.71,38.46,5.66c24.18-0.11,48.23,1.95,72.34,2.92c22.3,0.89,44.42,3.91,66.74,4.44
			c10.46,0.25,20.85,2.19,31.3,3.12c14.6,1.3,29.24,1.7,43.87,2.1c31.48,0.85,62.85-0.76,94.16-4.13
			c15.72-1.69,31.57-1.84,47.28-3.43c24.2-2.46,48.54-2.03,72.72-4.56c6.96-0.73,14.03-0.84,20.96-0.48
			c14.81,0.76,29.22-1.56,43.62-4.29c3.22-0.61,7.96-0.17,6.57-6.19c-0.27-1.17,1.42-1.99,2.56-1.84
			c7.53,0.99,16.01-0.61,21.41,7.69C797.62,419.45,800.62,429.08,801.95,439.58z"/>
		<path class="st11" d="M793.98,409.6c-0.95,0.22-2.45,0.37-2.8-0.19c-5.1-8.15-13.8-3.55-20.45-6.87
			c-0.45,3.01,3.21,3.52,1.86,5.95c-1.19,2.13-3.56,1.84-5.33,2.18c-15.74,2.99-31.38,5.8-47.68,5.08
			c-12.12-0.53-24.49-0.02-36.62,2.08c-0.98,0.17-1.99,0.23-2.98,0.17c-11.81-0.66-23.64,0.38-35.32,1.33
			c-15.15,1.23-30.33,2.44-45.49,3.4c-12.89,0.82-25.68,2.5-38.56,3.38c-15.23,1.04-30.54,0.91-45.69,2.21
			c-18.1,1.55-36.03-0.24-54-0.61c-16.63-0.34-33.3-2.08-49.84-4.54c-6.35-0.94-12.91-0.72-19.35-0.94
			c-16.73-0.59-33.32-2.82-50.06-3.46c-24.41-0.94-48.76-2.89-73.23-2.92c-13.54-0.02-26.92-2.9-40.07-6.26
			c-7.14-1.83-0.51-3.9,1.15-6.38c-6.25,0.7-11.4,1.31-16.56,1.84c-1.4,0.15-1.98,1.12-2.49,2.17c-0.76,1.59-1.67,2.91-4.08,2.78
			c-0.45-4.22,2.06-7.65,3.4-11.75c6.18-0.89,12.08-1.58,17.99-2.2c1.15-0.12,2.5-0.37,3.47,0.08c9.32,4.23,20.16,3.24,29.16,8.85
			c2.61,1.63,6.35,1.81,9.6,1.96c11.38,0.52,22.77,0.9,34.17,1.04c18.42,0.23,36.84,1.25,55.18,2.42
			c16.28,1.04,32.61,2.64,48.9,4.05c17.66,1.52,35.19,4.11,52.85,5.45c10.17,0.77,20.42,0.48,30.6,1.19
			c10.43,0.74,20.83,0.11,31.22-0.23c13.21-0.43,26.5-1.18,39.55-3.15c12.53-1.89,24.96-3.75,37.67-3.82
			c7.08-0.04,14.14-1.32,21.22-1.93c6.67-0.58,13.38-1.63,19.98-1.7c12.13-0.13,24.25-0.79,36.33-1.48
			c12.58-0.72,25.15-0.17,37.67-0.97c7.22-0.46,14.7,0.18,21.69-2.07c5.9-1.9,11.34-5.36,17.61-6.01c4.98-0.52,9.53-3.18,14.26-3.43
			c6.69-0.35,13.46,1.05,20.62,1.71C791.78,401.57,793.42,405.19,793.98,409.6z"/>
		<path class="st12" d="M520.03,484.68c-12.65,0.24-24.94,0.22-37.23,0.37c-2.37,0.03-3.73-0.64-4.29-3.01
			c-0.58-2.45,1.29-3.04,2.7-4.14c8.5-6.64,18.47-5.21,28.06-4.65c4.17,0.24,7.71,3.61,11.28,5.95
			C522.88,480.74,521.14,482.73,520.03,484.68z"/>
	</g>
</g>
<g id="レイヤー_2">
	<g>
		<path class="st2" d="M896.76,522.12c33.8,79.05,24.65,153.82-22.67,223.82c-34.79,51.46-83.75,83.89-144.64,96.4
			c-59.42,12.2-114.84,1.18-165.06-33.6c-1.22-0.85-2.45-1.69-3.98-2.75c-5.69,13.69-12.55,26.53-20.95,38.49
			c-32.57,46.33-76.56,75.67-132.37,85.27c-76.15,13.1-141.78-9.81-197.12-62.63c-39.16-37.38-62.17-83.62-69.49-137.17
			c-7.7-56.4,4.53-108.44,37.31-155.29c2.5-3.57,1.45-4.73-1.77-6.45c-33.23-17.76-59.75-42.68-79.32-74.89
			c-16.08-26.48-25.44-55.24-28.6-86.02c-9.94-96.77,47.17-187.33,130.11-227.46c53.98-26.12,109.81-31.87,167.53-14.67
			c18.56,5.53,36.21,13.39,52.33,24.27c3.32,2.24,4.62,1.89,6.41-1.79c16.64-34.18,40.68-62.03,72.72-82.55
			c30.7-19.66,64.29-31.26,100.88-33.01c75.48-3.62,138.4,23.85,188.19,79.78c41.48,46.6,61.32,102.01,58.19,164.77
			c-1.92,38.57-13.86,74.08-35.41,106.22c-2.03,3.03-2.25,4.3,1.3,6.24c22.62,12.35,42.21,28.47,58.43,48.51
			C879.78,491.18,889.37,505.76,896.76,522.12z"/>
		<path class="st13" d="M400.48,538.4c7.73-1.65,15.08-3.03,22.35-4.79c2.83-0.69,5.23-0.3,7.67,0.96
			c18.24,9.47,35.4,20.49,50.68,34.37c5.14,4.67,8.24,10.47,9.83,16.85c15.29,61.12,30.57,122.25,45.28,183.51
			c2.39,9.95,2.35,20.16-2.54,30.45c-26.9,56.61-70.54,91.95-132.16,103.35c-52.85,9.78-101.76-2.38-145.56-32.94
			c-50.22-35.03-80.19-83.46-88.55-144.16c-6.67-48.44,3.6-93.47,31.12-134.51c5.32-7.93,11.78-11.56,20.19-13.4
			C279.2,564.87,339.64,551.7,400.48,538.4z"/>
		<path class="st13" d="M764.86,450.94c5.74-1.35,11.06-2.7,16.41-3.89c2.81-0.62,5.69-0.58,8.27,0.9
			c18.82,10.86,36.55,23.03,51.43,39.17c27.75,30.1,43.73,65.68,47.18,106.13c6.27,73.45-20.43,133.79-76.73,180.71
			c-37.59,31.32-81.54,46.45-130.52,45.61c-36.92-0.63-70.42-12.1-101.1-32.9c-10.18-6.9-15.06-15.72-17.79-26.87
			c-15.03-61.36-30.12-122.71-45.33-184.02c-1-4.02-0.4-7.55,0.97-11.15c8.74-22.95,21.18-43.7,37.1-62.38
			c3.77-4.43,8.52-7.12,14.3-8.38C634.19,479.64,699.31,465.31,764.86,450.94z"/>
		<path class="st13" d="M190.76,545.29c-54.04-29.37-86.97-74.03-94.41-134.65c-9.53-77.68,20.34-139.93,81.96-186.69
			c44.75-33.96,95.86-46.61,151.69-39c25.08,3.42,48.38,11.97,70.02,25.09c2.41,1.46,4.88,2.88,7.44,4.05
			c3.55,1.62,5.64,4.31,7.3,7.79c4.63,9.7,7.07,20.05,9.71,30.38c14.02,54.74,28.14,109.46,42.17,164.2
			c1.31,5.12,2.38,10.32,3.28,15.53c0.77,4.45-0.91,8.55-2.67,12.52c-7.46,16.87-17.38,32.2-29.19,46.34
			c-2.56,3.06-5.24,6.01-7.29,9.49c-1.89,3.21-5.02,4.75-8.56,5.52c-69.49,15.18-139,30.2-208.4,45.78
			c-7.01,1.57-11.78-1.43-17.33-3.55C194.61,547.38,192.88,546.35,190.76,545.29z"/>
		<path class="st13" d="M469.63,318.43c-7.84-30.34-15.34-60.34-23.39-90.19c-2.89-10.71-2.18-20.18,3.13-30.17
			c30.7-57.74,78.27-91.21,143.22-97.98c62.59-6.52,116.37,14.35,161.66,57.43c27.39,26.05,46.48,57.5,56.09,94.04
			c15.19,57.72,7.24,111.88-27.42,161.33c-3.08,4.39-6.92,7.14-12.35,8.46c-64.96,15.76-130.51,28.83-195.69,43.62
			c-7.6,1.72-15.12,3.63-23.02,2c-1.48-0.31-2.92-0.55-4.27-1.24c-14.87-7.62-28.9-16.52-41.8-27.19
			c-4.81-3.97-7.72-8.74-9.26-14.86C487.76,388.68,478.71,353.77,469.63,318.43z"/>
		<path class="st13" d="M477.17,483.15c3.73-6.52,7.49-12.63,10.74-19c1.63-3.19,2.79-3.13,5.37-1.07
			c10.96,8.74,22.6,16.49,35.03,22.98c2.21,1.16,2.96,1.95,1.07,4.32c-12.85,16.07-23.55,33.48-31.89,52.3
			c-1.05,2.37-1.82,3.1-4.14,1.07c-11.71-10.2-24.43-19.01-38.04-26.48c-2.78-1.52-2.14-2.49-0.52-4.31
			C463.01,503.77,470.32,493.86,477.17,483.15z"/>
		<path class="st14" d="M498.67,702.71c2.48,8.39,4.55,16.54,6.64,24.69c3.01,11.72,5.95,23.46,9.1,35.14
			c0.74,2.74,0.67,5.22-0.37,7.77c-7.32,18.06-16.73,34.88-28.95,50.13c-11.4,14.22-24.44,26.7-39.78,36.5
			c-12.1,7.73-24.86,14.29-38.81,18.43c-15.18,4.51-30.66,7.01-46.4,7.18c-8.54,0.09-17.12-1.28-25.59-2.89
			c-17.98-3.41-34.95-9.77-50.35-19.45c-15.76-9.91-29.9-21.83-41.6-36.69c-10.97-13.93-20.14-28.78-27.14-44.96
			c-4.27-9.86-8.1-19.95-9.36-31.2c1.4-1.51,2.85-0.86,4.3-0.61c7.76,1.37,13.75-2.81,14.98-10.63c0.62-3.94,0.4-7.93,0.12-11.9
			c-0.55-7.62,0.07-15.18,1.11-22.72c0.25-1.82,0.64-3.6,2.44-5.19c5.52-2.27,10.74-3.26,16.4-2.99c12.99,0.61,25.85-1.71,38.8-2.27
			c21.41-0.93,42.77-2.48,64.26-0.93c11.92,0.86,23.88,1.53,35.82,2.11c21.3,1.04,42.35,3.94,63.45,6.64
			c12.69,1.62,25.35,3.53,38.26,2.14C490.03,700.55,494.11,702.44,498.67,702.71z"/>
		<path class="st15" d="M229.28,696.67c-2.63,8.81-2.68,17.52-2.48,26.26c0.1,4.32,0.47,8.66,0.15,12.94
			c-0.62,8.3-9.42,16.56-20.49,11.09c-0.76-0.78-1.15-1.52-1.62-2.57c-0.31-0.83-0.65-1.3-0.89-2.13c-0.1-1-0.13-1.72-0.22-2.8
			c-0.55-1.25-0.64-2.31-1.3-3.47c-0.16-0.97-0.19-1.65-0.24-2.68c-0.22-1.56,0.1-2.87-0.8-4.26c-0.17-0.67-0.18-1.07-0.2-1.78
			c-1.38-10.29-1.11-20.35-1.23-30.84c-0.03-1.84,0-3.25-0.01-5.07c0.2-1.87,0.08-3.33,0.17-5.1c0.05-1.32,0.08-2.34,0.13-3.73
			c1.39-6.85,1.45-13.53,3.32-20.32c0.23-0.8,0.29-1.22,0.35-1.95c0.13-2.55,1-4.61,1.64-7.1c0.22-0.75,0.28-1.17,0.35-1.9
			c0.42-2.17,1.08-3.95,1.72-6.1c0.28-1,0.39-1.68,0.54-2.7c0.41-0.91,0.85-1.44,1.32-2.35c0.65-1.66,1.16-3.02,1.78-4.71
			c3.35-6.12,6.44-12.01,10.38-17.35c1.76-2.37,0.98-5.13,2.19-7.81c10.99-8.34,22.76-13.88,36.04-16.91
			c46.49-10.61,92.86-21.72,139.27-32.67c1.48-0.35,2.89-0.6,4.42-0.34c20.9,3.43,39.44,12.89,57.67,22.95
			c4.56,2.52,6.12,8.17,9.42,12.12c7.24,8.64,10.86,18.69,12.65,29.83c2.48,15.4,5.94,30.64,9.01,46.38c-2.86,2-4.61-0.12-6.45-1.65
			c-2.18-1.82-3.53-4.33-5.33-6.95c-4.14-5.81-8.37-11.06-13.72-15.84c-8.27-8.6-17.33-15.57-26.99-21.83
			c-3.28-2.13-6.74-3.5-10.63-3.97c-15.5-1.84-31.08-2.8-46.63-4.09c-22.19-1.84-44.45-1.83-66.64-3.47
			c-17.35-1.29-18.88-0.9-36.14,10.03c-6.5,4.43-12.57,8.76-17.9,14.58c-10.75,10.48-19,22.24-24.71,36.18
			C233.89,681.84,232.19,689.28,229.28,696.67z"/>
		<path class="st16" d="M480.61,661.74c3.65,3.83,5.46,8.95,11.33,10.24c1.84,4.29,3.06,8.59,3.22,13.55
			c-5.3,3.36-11.02,1.97-16.54,1.63c-4.31-0.27-8.62-0.54-12.94-0.65c-23.76-0.6-47.59-0.34-71.26-2.31
			c-19.71-1.64-39.42-3.25-59.15-4.38c-11.13-0.64-22.38-0.58-33.13-3.58c-7.84-2.18-15.66-3.54-23.58-2.55
			c-12.77,1.59-25.63-0.16-38.36,1.53c-1.17,0.15-2.32-0.05-3.75-0.91c5.26-13.93,13.36-25.85,24.29-36.19
			c1.61-0.96,3.01-1.28,4.57-1.24c38.28,0.98,76.37,4.3,114.36,9.07c28.59,3.59,56.83,9.34,85.39,13.04
			C470.13,659.64,475.44,659.04,480.61,661.74z"/>
		<path class="st6" d="M235.93,674.31c13.63-2.63,27.32-0.15,40.83-2.27c10.14-1.6,20.01,0.99,29.72,3.37
			c7.16,1.76,14.35,2.1,21.59,2.57c14.68,0.94,29.37,1.73,44.04,2.68c11.05,0.72,22.04,2.19,33.14,2.62
			c12.94,0.5,25.9-0.03,38.8,0.8c16.71,1.08,33.43,1.3,50.64,1.88c3.26,5.03,2.74,10.85,4.35,16.58c-3.38,1.45-6.72,2.11-10.04-0.01
			c-2.44-1.56-4.81,0.44-7.26,0.5c-11.63,0.28-23.06-1.59-34.58-2.7c-16.76-1.62-33.3-4.8-50.21-5.66
			c-17.63-0.9-35.27-2.69-52.91-3.47c-12.72-0.56-25.56-1.24-38.3,0.62c-1.47,0.21-2.99,0.16-4.48,0.14
			c-14.75-0.11-29.39,1.39-44.04,2.91c-3.13,0.33-6.35,0.39-9.47,0.03c-6.18-0.73-12.04,0.58-18.32,2.05
			C229.69,689.04,233,681.92,235.93,674.31z"/>
		<path class="st17" d="M223.7,609.99c1.88,4.45-0.28,7.88-2.79,11.22c-3.28,4.36-5.03,9.72-9.25,13.76
			c1.31-7.48,3.96-14.67,7.73-21.42C220.28,611.99,221.53,610.63,223.7,609.99z"/>
		<path class="st4" d="M199.64,696.3c0.62,0.22,1.28,0.74,1.28,1.27c0.05,9.61-0.13,19.22,0.51,29.1
			c-1.94-3.86-2.32-8.25-2.32-12.66C199.1,708.22,199.28,702.41,199.64,696.3z"/>
		<path class="st4" d="M203.4,661.97c-0.19,6.58-0.79,13.3-2.8,20.02C199.55,675.25,200.83,668.61,203.4,661.97z"/>
		<path class="st4" d="M205.38,652.96c0.97,2.29-0.43,4.33-1.18,6.77C202.48,657.35,203.97,655.25,205.38,652.96z"/>
		<path class="st4" d="M207.46,644.96c0.83,2-0.24,3.75-1.27,5.78C205.14,648.74,205.87,646.85,207.46,644.96z"/>
		<path class="st4" d="M199.85,686.18c1.58,1.21,1.27,2.76,0.34,4.55C198.65,689.51,198.92,687.97,199.85,686.18z"/>
		<path class="st4" d="M201.16,729.16c2.05,0.28,2.01,1.71,1.24,3.57C200.82,732.14,201.08,730.8,201.16,729.16z"/>
		<path class="st4" d="M202.22,736.07c1.41,0.08,1.87,1.03,1.55,2.7C202.3,738.69,201.99,737.69,202.22,736.07z"/>
		<path class="st4" d="M203.68,742.16c0.54,0.32,0.88,0.81,1.14,1.62C203.87,743.83,203.01,743.55,203.68,742.16z"/>
		<path class="st4" d="M209.33,639.92c0.61,0.83,0.4,1.55-0.85,2.1C208.07,641.25,208.24,640.51,209.33,639.92z"/>
		<path class="st14" d="M868.45,632.74c-0.6,12.59-2.34,24.82-6.22,36.68c-3.69,11.27-8.14,22.16-14.07,32.48
			c-5.31,9.24-11.5,17.87-18.55,25.74c-20.32,22.71-45.17,39.06-73.64,49.65c-15.52,5.78-31.77,8.95-48.29,10.72
			c-27.76,2.97-54.94,0.11-81.56-8.09c-6.93-2.14-13.69-4.91-20.41-7.68c-3.73-1.53-6.97-4.1-9.2-7.46
			c-5.97-9.02-11.45-18.32-14.12-28.98c-6.07-24.26-12.17-48.52-18.23-72.79c-0.24-0.96-0.18-1.98-0.28-3.38
			c1.13-2.19,3.18-1.95,4.85-2.56c5.88-2.14,9.1-7.54,8.21-13.76c-0.47-3.26-1.82-6.46-0.5-10.22c2.66-3.16,6.06-3.47,9.36-3.54
			c9.31-0.18,18.63,0.01,27.91-1.1c8.08-0.96,15.77,2.06,23.76,2.36c4.14,0.16,8.28,0.63,12.44,0.63c31.3-0.01,62.59-0.02,93.89,0
			c22.45,0.01,44.85,2.11,67.3,2c3.5-0.02,6.99,0.08,10.42-0.86c1.13-0.31,2.32-0.46,3.45-0.09c10.32,3.41,21.15,1.4,31.63,2.96
			C860.92,636.09,864.18,633.29,868.45,632.74z"/>
		<path class="st15" d="M576.8,633.66c0.47,3.02,0.79,5.65,1.24,8.25c1.71,9.86-3.34,16.39-13.74,17.23
			c-4.37-10.88-6.16-22.41-9.23-33.61c-2.85-10.42-5.18-20.98-7.92-31.43c-1.89-7.2,1.05-13.74,2.45-20.48
			c3.3-15.91,12.06-29.49,18.91-43.89c0.67-1.41,1.78-2.34,3.02-3.24c4.73-3.39,9.51-6.74,14.09-10.33
			c5.38-4.21,11.43-6.38,18.1-7.77c45.08-9.41,90.05-19.28,134.42-31.69c10.15-2.84,19.72-2.11,29.4,2.82
			c13.67,6.96,26.99,14.34,39.27,24.1c0.66,0.91,1.23,1.45,2.09,2.09c5.85,4.19,10.91,8.83,15.82,14.11
			c1.23,1.88,2.26,3.5,4.02,4.93c1.15,1.34,2.77,1.82,3.27,3.7c1.87,2.56,3.78,4.74,0.98,7.63c-1.28,1.32-0.56,2.75,0.22,4.1
			c3.99,6.9,7.09,14.24,10.57,21.81c3.33,8.7,3.74,16.59-3.99,23.43c-5.74,3.8-11.11,3.59-16.74-0.25
			c-3.45-2.87-5.35-6.3-6.53-10.14c-1.66-5.36-4.01-10.44-6.42-15.89c-3.12-6.1-7.27-10.98-11.74-16.13
			c-1.37-1.55-2.71-2.57-3.75-3.87c-4.73-5.9-10.79-7.5-18.32-8.05c-10.75-0.78-21.64,0.59-32.29-2.09
			c-3.55-0.89-7.26,0.46-10.93,0.45c-21.79-0.05-43.59-0.56-65.35,0.33c-11.48,0.47-22.94,0.37-34.41,0.66
			c-2.76,0.07-5.21,0.89-7.48,2.43c-3.31,2.24-6.39,4.79-9.77,7.59c-7.19,5.34-12.73,11.75-18.27,18.65
			c-6.43,9-12.24,17.94-15.77,28.57c-3.13,10.22-5.36,20.21-5.62,30.98C575.95,623.83,578.33,628.49,576.8,633.66z"/>
		<path class="st18" d="M575.47,619.3c-0.46-11.09,1.81-21.46,5.39-31.96c5.65-3.34,11.69-2.42,17.22-1.52
			c12.89,2.11,25.9,1.06,38.8,2.34c6.08,0.61,12.19-1.31,18.33-1.78c23.2-1.78,46.46-2.11,69.68-3.19
			c28.93-1.34,57.85-0.28,86.77-0.77c3.51-0.06,6.97,0.36,10.82,1.42c5.32,3.28,10.37,4.3,16.09,1.28c4.32-1.04,8.39-0.9,12.24-0.11
			c4.1,0.84,7.11-0.01,9.93-3.21c3.72,4.65,2.79,10.54,5.15,15.8c0.03,0.98,0.2,1.52,0.75,2.22c0.56,4.26,0.94,8.28,1.32,12.74
			c-2.99,6.47-4.76,7.45-11.79,6.79c-12.76-1.2-25.54-0.81-38.33-0.94c-13.45-0.13-26.9-0.65-40.33-1.57
			c-2.66-0.18-5.31-0.29-7.97-0.29c-32.11,0-64.22,0.07-96.32-0.04c-12.45-0.04-24.91-0.61-37.36-0.74
			c-12.94-0.13-25.86,1.45-38.79,2.19C589.97,618.36,583.02,620.48,575.47,619.3z"/>
		<path class="st6" d="M575.07,619.44c11.93-2.6,24.01-3.6,36.01-4.05c9.73-0.37,19.4-1.79,29.28-1.13c5.88,0.39,12,1.89,18.14,0.19
			c2.53-0.7,5.53,0.49,8.32,0.5c29.49,0.05,58.99-0.08,88.48,0.07c15.46,0.08,30.97-0.09,46.35,1.17
			c13.91,1.14,27.77-0.2,41.62,0.76c4.13,0.29,8.24-0.12,12.39,0.85c4.68,1.09,9.19,0.45,11.93-4.77c0.78,6.29,1.84,12.6,1.3,19.45
			c-7.07,6.24-15.02,4.67-23.06,3.61c-4.26-0.56-8.65-0.18-12.98-0.11c-2.55,0.04-4.99-0.1-7.09-1.77c-0.79-0.63-1.54-1.08-2.7-0.79
			c-11.79,2.87-23.65,1.45-35.55,0.74c-9.21-0.55-18.47-0.2-27.71-0.39c-2.96-0.06-5.9-0.77-8.86-0.78
			c-33.47-0.06-66.94-0.04-100.41-0.03c-8.95,0-17.79-0.58-26.6-2.67c-4.26-1.01-9.06-0.92-13.41-0.17
			c-7.97,1.37-15.92,0.52-23.88,0.82c-3.33,0.13-6.59,0.33-9.57,2.78C575.58,629.43,575.14,624.68,575.07,619.44z"/>
		<path class="st19" d="M861.1,581.52c-1.59,5.99-5.29,6.24-10.17,4.72c-3.59-1.12-7.57,0.55-11.62-1.1
			c6.62-6.54,6.51-14.19,3.6-22.75c2.57-2.13,5.43-2.94,8.9-2.69c3.68,5.11,6.24,10.34,7.27,16.63c0.32,1.12,0.89,1.65,1.59,2.44
			C860.92,579.72,860.99,580.44,861.1,581.52z"/>
		<path class="st20" d="M852.11,559.54c-2.84,0.77-5.26,3.1-8.82,2.45c-4.92-7.62-7.58-16.18-12.57-23.55
			c-0.61-0.91-0.73-1.92,0.45-2.49c3.62-1.73,2.04-4.1,0.87-6.8c4.15,1.85,5.8,6.16,8.31,9.68
			C844.92,545.2,849.12,551.84,852.11,559.54z"/>
		<path class="st20" d="M828.95,524.64c-2.47,0.08-3.75-1.38-4.07-4.15C826.81,520.95,828.08,522.42,828.95,524.64z"/>
		<path class="st20" d="M809.07,505.55c-0.92,0.4-1.76,0.21-2.06-1.29C807.89,504,808.64,504.32,809.07,505.55z"/>
		<path class="st18" d="M860.86,578.67c-0.96,0.22-1.73-0.12-1.8-1.59C859.93,576.98,860.71,577.32,860.86,578.67z"/>
		<path class="st14" d="M866.84,599.73c-0.92,0.09-1.99,0.01-1.16-1.58C866.22,598.47,866.54,598.95,866.84,599.73z"/>
		<path class="st14" d="M433.65,381.86c4.47,12.69,6.83,25.75,8.89,38.74c0.89,5.6-2.13,11.95-3.86,17.81
			c-4.43,14.95-12.52,28.22-19.93,41.77c-1.17,2.13-4.06,3.28-6.06,5.01c-12.91,11.16-28.39,15.4-44.91,17.96
			c-21.72,3.36-43.27,7.88-64.82,12.27c-22.07,4.5-43.81,10.34-65.8,15.1c-1.73,0.37-3.18,0.32-4.81-0.34
			c-27.1-11.08-50.96-26.98-70.36-48.92c-16.74-18.93-29-40.42-35.3-65.29c-4.03-15.9-6.54-31.85-5.48-48.13
			c0.93-14.2,3.65-28.19,9.68-41.6c3.4,1.56,1.29,3.91,0.7,5.75c-4.13,12.88-6.86,25.95-6.18,39.58c0.27,5.48,0.87,10.92,2.33,16.21
			c2.9,10.52,11.78,13.62,20.74,7.34c1.09-0.76,2.13-1.59,3.81-2.18c23.01-2.83,45.45-6.59,68.28-7.71
			c25.73-1.26,51.4-3.48,77.2-3.95c18.27-0.33,36.57-1.06,54.82-1.98c15.1-0.76,30.21-1.94,45.28-3.33c2.32-0.22,4.63-0.5,6.97-0.37
			c2.49,0.14,4.66,0.85,5.48,3.49c0.86,2.76,2.93,3.33,5.43,3.38C421.59,382.58,427.41,382.57,433.65,381.86z"/>
		<path class="st15" d="M152.22,393.62c-9.03,7.94-16.31,8.31-22.53,1.53c-2.13-2.33-2.96-5.17-3.62-8.08
			c-3.98-17.64-2.14-34.94,3.11-52.04c0.87-2.83,2.33-5.49,2.25-8.75c0.38-1.65,1-3.07,1.65-4.83c2.06-3.74,3.42-7.48,5.58-11.21
			c0.26-0.7,0.34-1.1,0.44-1.8c0.46-0.85,0.94-1.36,1.55-2.2c0.97-3.86,3.71-6.32,5.42-9.74c0.51-0.96,1.06-1.48,1.71-2.28
			c0.17-0.23,0.28-0.65,0.31-0.87c0.49-0.81,1.04-1.34,1.7-2.13c0.17-0.22,0.29-0.64,0.32-0.85c0.47-0.84,1.02-1.36,1.7-2.14
			c14.37-19.56,32.55-34.28,53.14-46.3c22.61-13.19,47.16-20.66,72.92-23.7c31.95-3.78,63.3-0.63,93.61,10.86
			c5.44,2.06,10.79,4.27,16.14,6.55c5.55,2.37,8.83,6.57,12.08,11.37c9.81,14.5,12.57,31.29,16.23,47.81
			c1.72,7.78,3.33,15.58,4.98,23.76c-4.15,2.42-6.96-0.32-10.24-2.65c-3.4-4.22-4.86-8.83-5.73-14.07
			c-0.54-4.03-2.25-7.24-3.85-10.88c-1.9-3.65-3.83-6.85-6.27-10.21c-1.43-1.92-2.74-3.44-3.95-5.03c-4.02-5.3-8.75-7.45-15.9-6.7
			c-8.48,0.89-17.14,0.8-25.79-0.85c-8.97-1.71-18.25-0.92-27.37-0.31c-3.98,0.27-7.95,0.59-11.94,0.65
			c-26.26,0.39-52.49,1.74-78.75,2.12c-10.19,0.15-19,4.4-27.14,11.03c-5.49,3.81-10.31,7.79-14.91,12.59
			c-3.81,3.82-7.63,7.14-10.99,11.39c-5.23,6.35-9.87,12.67-13.45,20.16c-8.62,15.38-12.53,31.46-11.16,49.15
			c0.35,4.56,1.37,8.64,0.97,12.83C154.25,389.79,154.05,391.77,152.22,393.62z"/>
		<path class="st16" d="M152.48,375.29c-1.84-15.87,1.42-30.62,7.93-44.75c0.83-1.8,2.03-3.42,3.33-5.33
			c3.05-2.65,6.42-3.39,9.97-3.65c22.41-1.67,44.84-2.86,67.26-4.24c34.9-2.15,69.79-3.64,104.77-4.18
			c18.12-0.28,36.27,0.34,54.38-0.61c3.49-0.18,7.03-0.1,10.52,2.27c3.12,2.32,6.1,3.77,9.89,4.19c3.43,14.39,6.5,28.8,9.58,43.61
			c-1.14,2.83-3.39,2.75-5.55,2.8c-1.17,0.02-2.39-0.07-3.42-0.59c-15.3-7.63-31.47-5.57-47.48-3.97
			c-8.12,0.81-16.28,1.08-24.38,1.42c-12.78,0.54-25.6,0.84-38.37,1.43c-21.9,1.01-43.85,1.3-65.69,3.61
			c-22.98,2.43-46.05,3.76-69.06,5.85c-6.68,0.61-13.41,0.11-19.86,2.53C155.2,376.08,153.98,376.02,152.48,375.29z"/>
		<path class="st6" d="M152.09,375.47c4.44-1.53,9.25-1.44,12.99-4.73c0.51-0.45,1.78-0.7,2.28-0.38c6.58,4.12,13.3,0.23,19.93,0.31
			c5.41,0.07,10.82-1.39,16.25-1.58c15.07-0.51,29.99-2.44,44.96-3.94c4.77-0.48,9.64-0.81,14.36-0.88
			c9.31-0.13,18.55-1.2,27.85-1.35c11.42-0.18,22.83-1.59,34.24-1.46c5.44,0.06,10.83-0.49,16.24-0.58
			c14.23-0.24,28.42-1.31,42.61-2.61c12.65-1.16,25.52-1.43,37.35,5.09c2.53,1.39,5.48,0.99,8.61-0.21
			c2.66,5.67,3.42,11.82,4.34,18.36c-7.32,4.5-15.24,1.84-22.89,2.29c-1.22,0.07-2.19-1.18-2.06-2.43c0.51-4.71-2.54-4.58-5.69-4.35
			c-10.22,0.73-20.43,1.69-30.66,2.17c-8.21,0.38-16.28,2.14-24.55,1.88c-14.27-0.44-28.53,0.73-42.78,1.2
			c-16.71,0.55-33.47,0.51-50.15,1.83c-19.94,1.58-39.99,2.2-59.83,4.33c-12.71,1.36-25.56,2.87-38.19,5.35
			c-1.45,0.28-2.98,0.15-4.92,0.18C154.01,387.94,152.88,381.92,152.09,375.47z"/>
		<path class="st14" d="M138.51,310c0.14,4.29-2.44,7.55-5.04,11.03C133.62,316.88,135.3,313.2,138.51,310z"/>
		<path class="st14" d="M151.68,288.05c0.37,0.9,0.1,1.65-1.21,2.03C150.08,289.19,150.31,288.41,151.68,288.05z"/>
		<path class="st14" d="M149.64,291.03c0.41,0.91,0.14,1.66-1.19,2.03C148.08,292.18,148.3,291.4,149.64,291.03z"/>
		<path class="st14" d="M147.63,294.03c0.43,0.91,0.16,1.66-1.16,2.05C146.08,295.2,146.3,294.42,147.63,294.03z"/>
		<path class="st14" d="M140.54,306c0.51,0.91,0.29,1.67-1.08,2.07C139.07,307.21,139.29,306.45,140.54,306z"/>
		<path class="st4" d="M782.55,283.83c1.66,11.21,2.74,22.13,1.8,33.33c-1.08,12.74-2.6,25.35-5.44,37.77
			c-2.99,13.07-7.25,25.75-13.16,37.82c-0.96,1.95-2.55,3.32-4.33,4.68c-13.79,10.56-29.87,15.54-46.43,19.43
			c-13.53,3.18-27.08,6.28-40.59,9.55c-17.05,4.13-34.07,8.41-51.11,12.59c-11.09,2.72-22.27,5.15-33.29,8.15
			c-8.43,2.29-16.11-0.9-23.86-2.72c-14.66-3.44-27.75-10.95-40.87-18.03c-4.81-2.6-6.73-8.53-10.43-12.52
			c-9.3-10.05-11.09-22.92-13.81-35.48c-4.78-21.99-9.56-43.97-14.42-65.94c-1.43-6.46-3.12-12.86-4.7-19.68
			c3.15-3.01,7.38-2.92,11.34-4.68c16.18,4.09,32.27,1.43,48.16,2.52c8.97,0.61,17.94,0.43,26.89,0.9
			c5.53,0.29,10.96-0.65,16.44-0.91c7.95-0.38,15.87-1.26,23.89-0.18c10.85,1.47,21.48-1.87,32.27-2.29
			c19.3-0.76,38.61-1.15,57.9,0.08c6.16,0.39,12.42,0.34,18.39-0.13c9.14-0.72,18.19,0.88,27.38-0.47
			c6.41-0.94,13.27-0.42,19.91,0.02C770.84,288.06,777.05,288.45,782.55,283.83z"/>
		<path class="st21" d="M493.28,288.78c-3.5,2.1-6.7,3.8-10.97,3.52c-3.38-10.39-6.34-20.86-9.29-31.34
			c-0.67-2.38-1.31-4.76-1.96-7.53c-0.04-0.96-0.17-1.49-0.63-2.22c-0.51-3.25-1.96-6.12-1.32-9.68c2.59-4.8,3.96-9.71,6.49-14.48
			c0.45-1.36,0.78-2.39,1.27-3.7c1.26-1.35,1.86-2.76,2.76-4.33c0.15-0.68,0.2-1.04,0.32-1.68c0.63-0.83,1.15-1.41,1.71-2.32
			c0.25-2.71,2.13-4.3,3.25-6.63c0.67-0.88,1.2-1.44,1.79-2.31c0.12-0.26,0.18-0.64,0.25-0.82c0.62-0.73,1.15-1.3,1.75-2.18
			c0.67-1.39,1.22-2.52,2.03-3.83c1.91-1.36,2.45-3.4,3.98-5.08c0.45-0.73,0.74-1.18,1.16-1.86c2.73-3.03,4.84-6.27,7.8-9.18
			c0.39-0.79,0.62-1.28,1.1-1.9c5.09-4.97,10.1-9.62,14.99-14.89c0.65-0.59,1.05-0.95,1.73-1.36c2.18-1.16,3.46-2.96,5.29-4.63
			c0.24-0.22,0.61-0.35,0.81-0.38c4.52-3.03,8.58-6.39,13.17-9.61c0.25-0.23,0.64-0.36,0.84-0.38c1.83-1.03,3.52-1.96,5.22-3.43
			c0.62-0.31,0.98-0.43,1.61-0.61c1.04-0.3,1.56-0.89,2.37-1.57c0.58-0.28,0.94-0.38,1.57-0.51c2.91-1.4,5.65-2.57,8.39-4.46
			c0.91-0.34,1.55-0.45,2.53-0.58c5.03-2.63,10.26-3.94,15.47-6.23c0.74-0.27,1.16-0.34,1.92-0.42c3.47-0.89,6.86-0.85,10.11-2.61
			c0.71-0.23,1.15-0.29,1.91-0.33c1.17-0.12,2.05-0.11,3.09-0.73c0.7-0.24,1.13-0.3,1.89-0.34c4.22,0.24,7.94-0.98,12.07-1.57
			c1.38-0.24,2.43-0.32,3.89-0.35c16.74-0.69,32.75,1.39,48.91,5.85c0.86,0.05,1.29,0.08,2.04,0.17c5.91,3.25,12.56,3.83,18.38,7.44
			c0.71,0.19,1.08,0.24,1.72,0.36c1.89,1.7,4.44,1.83,6.32,3.67c0.69,0.14,1.06,0.19,1.69,0.31c1.84,1.73,4.09,2.3,6.18,3.76
			c0.29,0.17,0.68,0.23,0.87,0.3c2.27,2.55,5.58,3.3,8.14,5.69c0.29,0.17,0.69,0.21,0.88,0.28c1.4,1.22,3.1,2.51,2.86,4.09
			c-0.68,4.55,2.43,6.42,5.23,8.77c15.35,12.87,28.83,27.4,39.27,44.61c0.6,1,1.37,1.87,2.31,3.08c2.34,4.69,5.22,8.69,7.28,13.55
			c0.68,4.66,1.3,9-1.06,12.98c-4.38,7.4-13.59,9.45-20.76,4.66c-2.95-1.97-5.34-4.51-6.86-7.74c-2.56-5.43-5.95-10.36-9.25-15.77
			c-5.09-8.27-11.26-15.13-18.29-21.76c-11.84-12.81-25.8-22.01-41.15-29.25c-15.91-7.51-32.83-11.43-50.25-11.71
			c-26.83-0.43-51.15,7.7-72.45,24.28c-8.07,6.28-15.09,13.57-21.33,22.14c-4.58,6.7-9.1,13-12.49,20.43
			c-5.18,11.63-9.22,23.23-11.46,35.82c-0.82,5.91-1.76,11.39-2.12,16.96C497.99,282.81,496.72,286.19,493.28,288.78z"/>
		<path class="st6" d="M493.32,289.05c4.34-5.87,3.38-13.15,4.66-19.85c0.4-2.09,0.69-4.21,1.07-6.73c1.77-2.38,4.1-3.37,6.52-3.94
			c10.81-2.55,21.53-5.56,32.87-5.07c18.12,0.79,36.22-0.75,54.34-0.94c5.65-0.06,11.31-0.15,16.92,0.78
			c2.47,0.41,5.06,0.47,7.44-0.26c12.32-3.76,25.11-2.37,37.66-3.28c10.74-0.78,21.55-1.95,32.37-1.23
			c10.12,0.68,20.25,1.41,30.39,0.94c10.79-0.5,21.58-1.01,32.37-1.33c8.12-0.24,16.21-0.59,24.67-1.33c3.58,9.74,6,19.43,7.4,29.79
			c-0.01,1.01,0.15,1.55,0.71,2.24c0.22,1.6,0.25,2.98,0.28,4.78c-0.48,0.56-1.26,0.58-1.38,0.86c-2.65,6.55-8.29,4.83-13.27,4.81
			c-4.65-0.01-9.37,0.29-13.95-0.35c-8.65-1.21-17.06,1.52-25.86,0.52c-7.1-0.81-14.72-0.45-22.05,0.51
			c-4.72,0.62-9.21-0.99-13.86-0.97c-14.6,0.06-29.21-0.34-43.79,0.17c-7.87,0.27-15.76,0.73-23.64,2.34
			c-6.71,1.37-14.07,1.28-20.86,0.15c-8.12-1.35-15.82,1.08-23.75,0.83c-2.02-0.07-4.24,0.56-6.39,0.53
			c-13.35-0.18-26.68-0.6-40.02-1.43c-6.97-0.44-14.22,0.22-21.34,0.44C506.25,292.24,499.94,290.94,493.32,289.05z"/>
		<path class="st18" d="M774.97,246.67c-7.22,3.15-14.65,2.58-22.2,2.47c-5.32-0.08-10.76,0.85-16.18,1.01
			c-14.51,0.43-28.97,1.57-43.55,0.15c-8.84-0.86-17.88-0.02-26.85,0.45c-11.08,0.59-22.19,1.97-33.33,1.3
			c-2.5-0.15-4.93,0.18-7.37,0.89c-7.25,2.1-14.53,1.88-22.08,1.37c-10.55-0.7-21.2-0.35-31.85,0.51
			c-11.75,0.95-23.63,0.18-35.46,0.23c-7.63,0.03-15.04,0.85-22.46,3.32c-4.42,1.47-9.28,2.1-14.18,3.68
			c1.65-12.41,5.73-24.18,11.25-35.79c2.43-2.01,5.06-2.09,7.4-1.29c5.46,1.87,10.9,1.36,16.3,0.31
			c21.37-4.14,42.94-4.83,64.63-4.97c12.94-0.08,25.89-1.82,38.85-2.37c17.44-0.74,34.86-2.63,52.37-0.71
			c10.25,1.12,20.66-0.51,30.92,1.25c2.15,0.37,4.31,0.51,6.46,2.24c4.62,5.38,7.73,11.16,10.71,17.04
			c2.36,4.65,6.04,8.03,11.15,9.13c8.28,1.77,15.46-4.38,15.49-12.9c0.01-1.66-0.05-3.31-0.08-5.42c-0.42-1.26-0.03-1.87,0.85-2.59
			c2.69,0.41,2.27,2.76,3.26,4.6c1.95,3.35,2.61,6.92,4.62,10.25C774.23,242.82,774.6,244.55,774.97,246.67z"/>
		<path class="st17" d="M758.28,214.92c-4.96-6.03-9.42-12.33-14.13-18.44c-8.61-11.16-18.61-21-29.47-29.95
			c-2.58-2.13-5.7-3.45-3.98-7.82c0.37-0.94-1.08-2.59-1.72-4.27c6.35,3.64,12.14,8.42,17.54,13.65c4.66,4.51,9.31,9.03,13.34,14.56
			c0.61,0.91,1.14,1.46,1.89,2.21c0.5,0.65,0.78,1.09,1.19,1.78c0.51,0.92,1.08,1.46,1.84,2.2c0.55,0.62,0.88,1.05,1.25,1.75
			c0.41,0.97,0.98,1.5,1.74,2.26c3.29,3.97,5.96,8,8.25,12.66c0.42,1.04,0.98,1.57,1.7,2.35c0.56,0.95,0.91,1.69,1.3,2.73
			C759.93,212.28,759.91,213.57,758.28,214.92z"/>
		<path class="st17" d="M662.75,131.79c-2.85,2.43-5.4-0.26-8.04-0.85c-13.22-2.95-26.62-3.67-40.37-4.43
			c3.71-2.59,8.11-1.43,12.24-1.23c11.23,0.54,22.37,2.03,33.26,4.96C660.78,130.49,661.63,131.07,662.75,131.79z"/>
		<path class="st16" d="M757.95,215.46c0.3-1.51,0.66-2.66,1.06-4.19c3.54,3.78,6.19,8.36,7.08,14.19c-0.3,0.94-0.61,1.51-1.06,2.37
			C762.41,224.12,759.79,220.2,757.95,215.46z"/>
		<path class="st17" d="M519.65,166.09c-2.89,6.43-8.46,10.64-14.3,14.95C508.49,174.85,513.94,170.52,519.65,166.09z"/>
		<path class="st17" d="M683.16,139.48c-6.11-1.49-12.35-3.33-18.18-6.85C671.16,133.99,677.61,135.22,683.16,139.48z"/>
		<path class="st17" d="M540.65,150.11c-2.79,4.56-7.49,7.17-12.49,9.84C531.05,155.5,535.53,152.63,540.65,150.11z"/>
		<path class="st17" d="M578.69,132.3c-3.78,3.88-9.38,4.45-14.68,6.54C567.5,134.31,573.34,134.25,578.69,132.3z"/>
		<path class="st17" d="M475.42,226.86c-0.61,5.02-2.87,9.65-5.9,14.17C470.2,236,472.34,231.38,475.42,226.86z"/>
		<path class="st17" d="M609.63,126.27c-2.98,2.96-6.96,3.04-11.35,2.14C601.53,126.34,605.31,125.94,609.63,126.27z"/>
		<path class="st17" d="M503.49,182.89c-0.64,4.07-3.95,6.41-7.14,9.13C497.36,188.22,499.78,185.22,503.49,182.89z"/>
		<path class="st17" d="M590.67,129.27c-1.77,4.2-6.01,2.26-9.43,3.12C583.7,129.91,587.16,130.06,590.67,129.27z"/>
		<path class="st14" d="M773.86,240.72c-3.47-1.8-3.43-5.77-4.79-9.41C772.39,233.19,772.41,237.12,773.86,240.72z"/>
		<path class="st17" d="M708.09,153.58c-3.17-0.5-6.08-1.91-8.12-5.11C703.02,149.21,705.98,150.49,708.09,153.58z"/>
		<path class="st17" d="M560.66,139.14c-1.13,3.25-4.4,3.66-7.62,4.72C554.42,140.98,557.57,140.41,560.66,139.14z"/>
		<path class="st17" d="M526.67,160.11c-0.12,2.58-1.78,4.06-4.55,4.82C522.49,162.55,524.13,161.07,526.67,160.11z"/>
		<path class="st17" d="M494.54,193.95c0.18,2.19-0.46,4.16-3.21,5.06C491.36,196.92,492.15,195.07,494.54,193.95z"/>
		<path class="st17" d="M699.06,147.61c-2.36,0.1-4.52-0.73-6.05-3.19C695.31,144.49,697.37,145.43,699.06,147.61z"/>
		<path class="st17" d="M691.19,143.46c-2.55,0.56-4.2-1.34-6.18-3.02C687.21,140.66,689.68,140.81,691.19,143.46z"/>
		<path class="st17" d="M546.73,146.29c-0.13,2.56-2.2,3.08-4.57,3.66C542.63,147.84,544.51,147.04,546.73,146.29z"/>
		<path class="st17" d="M479.42,218.84c0.56,1.71,0,3.18-2.04,4.17C477.1,221.38,477.76,220,479.42,218.84z"/>
		<path class="st17" d="M595.71,128.22c0.05,1.63-0.8,2.14-2.48,1.24C593.49,128.2,594.4,128.1,595.71,128.22z"/>
		<path class="st17" d="M550.71,144.16c0.21,0.99-0.18,1.72-1.65,1.74C548.99,145.02,549.43,144.33,550.71,144.16z"/>
		<path class="st16" d="M741.92,184.74c-0.92,0.25-1.71-0.02-1.9-1.45C740.9,183.1,741.66,183.42,741.92,184.74z"/>
		<path class="st16" d="M744.96,188.72c-0.94,0.27-1.75,0-1.9-1.49C743.92,187.08,744.68,187.41,744.96,188.72z"/>
		<path class="st16" d="M747.94,192.73c-0.94,0.26-1.74-0.03-1.88-1.51C746.93,191.08,747.69,191.42,747.94,192.73z"/>
		<path class="st17" d="M488.51,202.9c0.44,0.89,0.29,1.73-1.16,2.12C487,204.14,487.33,203.41,488.51,202.9z"/>
		<path class="st17" d="M486.52,205.91c0.44,0.86,0.3,1.7-1.1,2.12C485.03,207.16,485.34,206.43,486.52,205.91z"/>
		<path class="st16" d="M757.9,207.74c-0.95,0.23-1.73-0.08-1.84-1.55C756.94,206.07,757.69,206.42,757.9,207.74z"/>
		<path class="st17" d="M481.46,214.85c0.49,0.88,0.38,1.73-1.1,2.15C479.99,216.14,480.3,215.4,481.46,214.85z"/>
		<path class="st17" d="M470.23,251.26c0.95-0.05,1.86,0.19,1.05,1.61C470.76,252.54,470.46,252.05,470.23,251.26z"/>
		<path class="st4" d="M782.87,278.77c-0.92,0.1-2.04,0.06-1.13-1.57C782.28,277.51,782.58,277.99,782.87,278.77z"/>
		<path class="st17" d="M480.87,661.66c-12.08-0.47-24.22-1.99-36.26-4.05c-17.9-3.06-35.77-6.26-53.78-8.6
			c-19.15-2.49-38.33-4.86-57.53-6.9c-10.52-1.12-21.19-0.97-31.68-2.26c-13.22-1.63-26.55,0.27-40.15-1.89
			c4.02-5.78,9.84-9.92,16.26-13.87c7.6-1.19,14.96-0.95,22.22-0.46c19.4,1.32,38.81,2.63,58.13,4.89
			c33.88,3.97,67.71,8.3,101.12,15.42c2.77,0.59,5.55,1.12,8.43,2.78C473.23,650.9,476.94,656.16,480.87,661.66z"/>
		<path class="st9" d="M467.87,646.66c-9.43-1.5-18.99-3.4-28.59-5.06c-17.08-2.95-34.14-5.96-51.41-7.72
			c-11.65-1.18-23.19-3.33-34.83-4.67c-9.03-1.04-18.12-1.57-27.19-2.22c-15.04-1.09-30.07-2.45-45.18-2.09
			c-0.62,0.01-1.25-0.39-2.26-0.77c9.11-6.56,17.78-14.65,31.01-11.54c3.15,0.74,7.1,0.29,10.65,0.25
			c12.3-0.17,24.55,0.87,36.8,1.39c16.65,0.7,33.32,1.7,49.93,3.59c6.71,0.76,13.49,1.63,20.21,1.81c7.4,0.2,12.93,3.91,18.47,7.72
			C453.55,632.88,461.26,638.92,467.87,646.66z"/>
		<path class="st19" d="M822.79,583.68c-2.74,2.52-5.62,0.25-8.51,0.26c-26.78,0.09-53.56-0.42-80.32,0.22
			c-18.04,0.43-36.1,1.14-54.12,2.05c-13.31,0.68-26.67,2.57-39.93,3.26c-10.7,0.56-21.81,0.37-32.67-1.22
			c-8.38-1.22-16.83-1.53-25.76-1.25c2.84-10.24,8.44-19.2,15.18-27.86c5.89-2.9,12.03-1.86,17.9-2.56
			c18.18-2.15,36.5-2.64,54.76-2.83c16.28-0.17,32.57-0.76,48.86-0.31c8.15,0.23,16.28-0.5,24.4-0.94
			c9.36-0.52,18.61,0.83,27.91,1.1c11.45,0.34,22.89,1.53,34.31,2.61c1.83,0.17,3.64,0.43,5.7,1.56c2.98,5.75,5.49,11.3,7.27,17.14
			C818.75,578.12,820.29,580.97,822.79,583.68z"/>
		<path class="st20" d="M810.77,557.69c-18.18-1.01-36.49-2.5-54.82-3.57c-5.76-0.34-11.58,0.22-17.37,0.49
			c-14.87,0.72-29.85-0.35-44.69,0.61c-10.22,0.66-20.38-1.16-30.65,0.48c-5.01,0.8-10.5,0.27-15.77,0.35
			c-13.08,0.2-26.1,1.3-39.1,2.8c-3.45,0.4-6.99,0.11-10.95,0.13c3.88-6.95,9.4-12.8,16.25-17.85c7.57-2.14,15.06-2.78,22.51-2.62
			c22.44,0.51,44.83-1.27,67.26-1.21c6.44,0.02,12.92-0.69,19.39-0.97c10.86-0.47,21.43,2.05,32.23,2.48
			c12.9,0.51,25.86,1.2,38.74,2.58c1.82,0.2,3.65,0.24,5.72,1.38C803.91,547.49,807.59,552.2,810.77,557.69z"/>
		<path class="st9" d="M799.79,542.7c-19.22-0.03-38.7-0.83-57.77-3.25c-21.69-2.75-43.03,0.22-64.51-0.04
			c-11.85-0.15-23.85,0.3-35.78,0.51c-8.45,0.15-16.84,0.55-25.18,1.9c-0.58,0.09-1.25-0.34-2.22-0.68
			c6.49-6.98,13.14-13.29,24.3-12.37c9.52,0.79,19.21-0.16,28.82-0.52c21.53-0.8,43.12,0.02,64.67-0.34
			c17.35-0.29,34.55,2.23,51.87,2.12c3.82-0.02,6.23,2.77,8.7,5.22C795.05,537.6,797.33,540.01,799.79,542.7z"/>
		<path class="st19" d="M410.91,314.69c-8.25-0.73-16.61-1.3-25.07,0.19c-2.82,0.5-5.8-0.92-8.83-0.89
			c-24.42,0.23-48.83,0.96-73.25,1.3c-18.67,0.25-37.35,1.82-56.02,2.9c-11.23,0.65-22.44,1.55-33.69,1.96
			c-14.03,0.52-27.98,2.55-42.05,3.01c-2.41,0.08-4.79,1.21-7.59,1.86c2.48-7.36,7.25-13.48,12.52-19.66
			c1.74-1.31,3.47-1.85,5.35-1.84c19.99,0.07,39.86-2.23,59.79-3.29c19.46-1.04,38.92-1.11,58.35-2.01
			c19.82-0.92,39.63-0.07,59.41-0.84c13.18-0.52,26.26,0.47,39.37,1.17c2.17,0.12,4.34,0.33,6.44,2.18
			C406.88,305.74,408.07,310.32,410.91,314.69z"/>
		<path class="st20" d="M406,300.66c-8.87-0.75-17.76-1.6-26.71-1.61c-22.06-0.04-44.14-0.61-66.17,0.19
			c-15.29,0.55-30.59,0.02-45.82,0.96c-16.85,1.04-33.74,1.65-50.57,2.95c-12.9,1-25.77,2.06-39.18,1.89
			c2.52-4.03,6.32-7.26,10.2-10.87c3.25-1.99,6.64-2.17,9.92-2.43c12.42-0.99,24.89-1.36,37.31-2.33
			c20.22-1.57,40.51-1.34,60.74-2.79c6.8-0.49,13.64-0.16,20.46-0.17c20.79-0.03,41.59-0.16,62.38,0.07
			c7.61,0.09,15.29,0.43,23.04,3.27C403.6,293.36,405.18,296.67,406,300.66z"/>
		<path class="st9" d="M401.88,289.73c-31.99-3.38-64.24-1.43-96.42-1.55c-20.21-0.08-40.45,0.7-60.62,2.03
			c-15.34,1.01-30.69,1.84-46.03,2.9c-3.28,0.23-6.51,1.23-10.31,0.92c3.16-4.9,8.08-8.34,13.21-11.96
			c6.75-2.32,13.54-2.06,20.09-2.29c17.77-0.62,35.53-1.68,53.29-2.47c32.1-1.43,64.2-0.59,96.3-0.74c8.07-0.04,16.3,0.3,24.27,4.16
			C398.85,283.2,399.73,286.7,401.88,289.73z"/>
		<path class="st22" d="M395.99,280.68c-13.49-2.53-27.2-2.82-40.97-2.69c-21.12,0.19-42.25-0.21-63.36,0.13
			c-16.72,0.27-33.43,1.14-50.13,1.98c-12.99,0.65-25.97,1.66-39.21,2.22c7.95-8.88,18.18-13.2,29.87-13.18
			c18.6,0.03,37.17-1.03,55.76-1.33c18.2-0.29,36.4-1.78,54.64-1.76c7.87,0.01,15.5,2.9,23.49,1.92c2.94-0.36,6.26,0.82,8.91-0.11
			c7.66-2.67,12.38,1.19,16.71,6.43C393.26,276.18,394.54,278.31,395.99,280.68z"/>
		<path class="st23" d="M523.22,206.48c5.69-10.26,13.93-18.04,22.95-24.79c16.18-12.09,34.33-20.03,54.52-22.51
			c21.78-2.67,42.8,0.53,63.17,8.77c15.58,6.3,29.2,15.56,41.86,26.4c1.65,1.41,3.09,3.02,4.11,5.37c0.77,4.15-2.34,3.65-4.3,3.73
			c-6.82,0.3-13.65,0.13-20.47,0.07c-14.82-0.12-29.64,0.2-44.46,0.1c-13.13-0.09-26.26-0.21-39.39-0.16
			c-23.35,0.09-46.57,1.3-69.69,4.55C528.74,208.42,525.87,209.13,523.22,206.48z"/>
		<path class="st24" d="M522.73,206.25c5.69,2.43,11.12-0.11,16.4-0.61c9.36-0.89,18.66-2.19,28.09-2.77
			c14.12-0.88,28.22-0.75,42.32-0.8c19.39-0.07,38.77-0.02,58.16-0.02c12.37,0,24.73,0.04,37.1-0.04c1.69-0.01,3.73,0.89,5.08-1.58
			c4.27,0.27,5.16,4.45,7.72,6.85c4.06,3.81,7.59,8.13,10.37,13.38c-10.09-1.59-20.35-1.62-30.63-1.68
			c-9.78-0.07-19.53-1.46-29.32-0.92c-16.35,0.89-32.71,1.54-49.05,2.77c-10.88,0.82-21.82,1.62-32.81,1.29
			c-16.93-0.52-33.63,1.56-50.29,4.6c-5.65,1.03-11.67,2.71-17.59-0.28c-1.75-0.89-4.25-0.3-6.85-0.4
			C513.44,218.71,518.37,212.83,522.73,206.25z"/>
	</g>
</g>
</svg>
