<?xml version="1.0" encoding="utf-8"?>
<!-- Generator: Adobe Adobe Illustrator 24.2.0, SVG Export Plug-In . SVG Version: 6.00 Build 0)  -->
<svg version="1.1" id="レイヤー_1" xmlns="http://www.w3.org/2000/svg" xmlns:xlink="http://www.w3.org/1999/xlink" x="0px"
	 y="0px" width="1000px" height="1000px" viewBox="0 0 1000 1000" style="enable-background:new 0 0 1000 1000;"
	 xml:space="preserve">
<style type="text/css">
	.st0{fill:#CD8105;}
	.st1{fill:#F0E0CC;}
	.st2{fill:#F1D9B8;}
	.st3{fill:#E4D2B7;}
	.st4{fill:#DBD2C8;}
	.st5{fill:#C0C0BE;}
	.st6{fill:#EDD3B0;}
	.st7{opacity:0.4;fill:#C0C0BE;}
	.st8{fill:#F5DEBC;}
	.st9{fill:#FEF0CB;}
	.st10{fill:#F8E4C2;}
	.st11{fill:#FDEDC8;}
	.st12{fill:#F3DCBA;}
	.st13{fill:#FBE8C5;}
	.st14{fill:#F7E2BF;}
	.st15{fill:#CE8105;}
	.st16{fill:#FBF1DC;}
	.st17{fill:#FFFAEB;}
	.st18{fill:#FEF6E1;}
	.st19{fill:#FEF8EA;}
	.st20{fill:#EADFCE;}
	.st21{fill:#F7F0E2;}
	.st22{fill:#FFF2CE;}
	.st23{fill:#EFD5B3;}
</style>
<g>
	<path class="st0" d="M88.16,396.25c1.65-2.58,3.06-4.96,4.97-6.84c2.58-2.53,5.98-4.31,8.26-7.05
		c10.43-12.55,24.46-19.32,38.98-25.69c6.72-2.95,12.69-7.63,19.31-11.68c5.66-1.31,7.88,0.81,8.3,7.93
		c-2.73,5.59-7.7,8.19-12.36,10.98c-4.41,2.64-9.06,4.91-14.26,6.83c-10.59,4.11-19.33,10.29-27.97,18.99
		c17.03-0.37,32.16-3.26,46.01-12.5c9.12-4.66,13.32-11.81,12.93-22.07c2.41-3.47,5.3-4.9,9.51-3.5c3.2,1.86,4.32,4.44,4.12,7.67
		c-0.11,1.7,0.16,3.29,1.67,4.84c2.46,2.59,5.16,3.65,8.34,3.27c4.14-0.49,7.03,1.33,9.33,5.05c2.28,4.09,5.4,5.2,9.49,4.08
		c3.99-1.09,7.53-0.13,10.75,2.47c3.72,3.01,8.02,3.84,12.71,3.03c3.99-0.69,7.87-0.28,11.85,0.72c5.71,1.44,11.55,1.64,17.14-0.86
		c3.24-1.45,6.4-1.28,9.7-0.06c5.7,2.11,11.47,3.32,17.56,1.26c3.12-1.05,6.2-0.04,9.26,1.03c5.71,1.98,11.48,3.48,17.54,1.07
		c2.42-0.96,4.92-0.44,7.22,0.84c5.74,3.21,11.79,3.28,17.92,1.52c2.98-0.86,5.9-0.99,8.87-0.25c6.16,1.52,12.19,1.14,18.19-0.92
		c4.65-1.6,9.24,0.26,13.84,0.61c8.59,0.66,16.23-0.77,21.74-8.23c1.78-2.41,4.08-4.39,6.57-6.68c3.18-2.6,7.51-3.39,8.61-8.18
		c3.66-7.36,8.57-13.09,15.9-16.22c5.77-2.47,11.64,1.65,10.77,7.27c-0.41,2.67-2.21,4.36-4.53,6.11c-3.45,2.62-6.7,4.92-8.52,9.06
		c-1.76,4.21-3.76,7.81-7.68,10.45c-7.56,3.62-12.48,8.75-13.18,17.17c-0.18,2.15-0.82,4.26-1.56,6.3
		c-1.78,4.88-5.46,7.78-10.41,6.34c-10.55-3.07-16.62,1.02-21.03,10.34c-3.11,6.58-9.09,8.96-16.29,7.82
		c-5.51-0.88-10.12,1.31-14.59,4.05c-10.01,6.14-15.53,15.86-20.15,26.1c-2.36,5.22,0.63,8.44,6.45,7.49
		c4.79-0.78,9.31-2.41,13.67-4.63c7.15-3.63,14.51-6.74,22.67-7.37c1.5-0.11,2.99-0.3,4.47,0.05c18.75,4.48,34.44-2.35,48.6-13.72
		c7.33-5.88,12.83-13.21,15.88-22.53c3.37-10.3,11.75-15.4,22.08-17.27c11.81-2.15,22.19-6.96,30.94-15.82
		c4.03-3.17,5.65-7.68,8.75-11.56c5.67-3.97,9.13-3.19,12.15,2.37c0.53,0.98,0.69,2.21,2.21,2.86c7.05,3.51,6.97,6.9,2.78,13.01
		c-5.73,8.35-15.6,10.46-22.48,16.94c-8.84,8.32-17.08,16.79-19.28,29.42c-0.63,3.59-2.93,6.32-6.82,6.1
		c-13.88-0.78-22.35,7.89-30.56,17.09c-1.66,1.86-3.14,3.89-4.43,6.03c-2.22,3.67-5.32,5.69-9.66,6.21
		c-4.57,0.55-8.62,2.59-11.84,5.92c-1.71,1.77-3.74,3.78-1.85,6.53c1.72,2.5,4.06,3.79,7.31,2.97c6.8-1.71,13.34-4.23,19.84-6.76
		c34.72-13.5,66.76-31.66,94.82-56.31c14.04-12.33,26.53-26.17,36.42-42.62c3.42-3.98,4.81-8.66,7.13-13.24
		c3.79-7.37,5.85-8.54,11.89-6.66c0.86,0.6,1.57,1,1.69,1.59c1.05,5.14,4.11,9.35,6.37,14.32c0.2,3.54-1.59,5.75-3.75,7.64
		c-9.58,8.36-13.47,19.56-15.87,31.52c-0.46,2.31-0.35,4.64,0.08,6.96c0.79,4.25-1.05,7.11-4.79,8.85
		c-13.67,6.35-23.23,17.01-30.75,29.65c-2.31,3.89-5.43,6.09-9.57,7.4c-8.87,2.8-16.45,7.94-23.77,13.49c-1.59,1.2-3,2.67-4.22,4.25
		c-1.49,1.93-3.85,3.88-2.39,6.56c1.37,2.5,4.29,2.38,6.76,2.14c4.98-0.48,9.84-1.67,14.59-3.27c24.87-8.35,46.47-22.03,65.75-39.71
		c7.4-6.79,14.73-13.7,19.92-22.21c7.54-12.37,16.8-23.54,24.07-36.06c2.74-4.73,4.08-10.23,8.09-14.7
		c3.64-4.13,6.89-8.1,10.12-12.08c1.74-2.14,3.73-3.65,6.64-3.83c5.62-0.36,7.88,1.81,7.92,8.26c-1.7,5.31-6.53,7.73-9.3,12.23
		c-7.27,8.19-11,18.2-17.03,26.77c-2.87,4.08-6.01,7.96-8.71,12.14c-1.03,1.6-2.65,3.52-1.07,5.44c1.42,1.72,3.68,1.18,5.64,0.8
		c2.33-0.46,4.39-1.65,6.19-3.11c8.82-7.19,15.99-15.49,17.87-27.24c0.08-0.49,0.13-0.99,0.22-1.48c0.95-5.08,3.93-7.76,7.87-7.11
		c3.9,0.65,7,4.97,6.22,9.45c-1.11,6.39-2.78,12.66-5.72,18.52c-0.73,1.45-1.96,2.71-2.04,5.17c6.97-0.35,14.19,0.05,19.05-5.86
		c6.02-7.33,11.21-15.3,12.92-25.35c2.55-7.73,4.41-15.42,11.29-20.8c1.87-1.19,3.51-2.02,5.31-2.44c3.65-0.83,6.71,0.12,8.53,3.5
		c1.81,3.36,0.54,6.25-2.27,8.33c-4.41,3.26-7.18,7.35-7.59,12.89c-0.07,0.98-0.25,2,0.8,3.37c6.71-4.69,14.39-8.08,20.25-13.98
		c5.43-5.46,11.15-10.5,17.41-14.95c2.87-2.04,5.88-3.81,9.28-4.79c5.01-1.44,7.87-0.24,10.88,4.83c0.57,4.25-1.21,6.87-4.7,8.19
		c-8.52,3.21-15.08,8.99-21.31,15.86c-3.44,5.12-8.92,6.89-13.41,9.95c-5.37,3.66-10.78,7.19-15.54,11.68
		c-3.37,3.18-7.2,5.76-11.46,7.87c-6.57,3.25-12.57,7.54-17.86,12.68c-2.45,2.38-5.38,3.59-8.51,4.9
		c-15.08,6.32-28.48,15.13-38.83,28.07c-2.69,3.36-5.49,6.63-5.46,11.18c2.48,1.58,4.56,0.59,6.56-0.08
		c12.7-4.25,24.94-9.38,35.2-18.35c2.78-2.43,6.27-3.75,9.68-5.12c11.64-4.65,23.03-9.7,32.07-18.8c1.32-1.33,2.88-2.56,4.79-2.41
		c9.57,0.76,16.12-5.54,23.27-10.13c3.82-2.45,7.46-4.51,11.94-5.76c8.9-2.49,16.6-7.75,23.86-13.31c4.08-3.13,8.52-5.78,12.35-9.29
		c2.77-2.55,6.71-2.17,9.05,0.3c2.6,2.75,3.08,5.8,0.88,9.07c-2.83,4.22-7.41,6.59-11.51,11.01c14.52-1.36,26.28-6.64,36.42-16.5
		c13.46-12.14,16.84-27.78,17.21-44.95c-0.77-8.91-3.29-16.9-7.4-24.82c-4.33-6.16-5.37-12.8-5.61-19.74
		c-0.58-16.38-15.12-30.82-30.53-30.56c-6.03,0.1-10.93,2.4-14.87,6.98c-5.71,6.65-9.32,6.78-15.69,0.61
		c-4.22-4.09-9.01-7.38-13.95-10.5c-0.99-0.62-2.04-1.46-3.15-1.44c-6.73,0.13-10.57-4.28-15.03-8.44
		c-6.58-6.14-15-9.25-23.81-10.83c-4.11-0.74-7.33-2.52-10.58-5.08c-7.04-5.56-14.88-9.45-24.28-8.58c-3.5,0.32-5.95-1.3-8.25-3.76
		c-6.32-6.74-14.73-7.94-23.34-8.24c-1.96-0.07-4.15,0.73-4.17,3.36c-0.02,2.27,0.66,4.43,3.21,5.05c4.78,1.15,9.4,2.4,14.54,2.64
		c13.13,0.63,25.28,4.53,33.07,16.48c2.51,3.86,5.88,6.56,10.04,8.69c5.14,2.63,9.72,6.12,15.71,7.23c3.58,0.66,5.17,4.12,4.43,7.89
		c-0.75,3.86-3.68,5.56-7.26,5.68c-5.67,0.19-10.73-2.07-15.53-4.84c-8.11-4.69-15.64-9.89-20.87-18.13
		c-3.16-4.98-8.92-6.73-14.58-7.93c-1.75-0.37-3.29,0.13-4.7,1.15c-4.07,2.93-7.72,2.16-11.25-1.09c-3.24-2.98-7.04-4.51-11.48-3.27
		c-4.61,1.29-5.49,4.96-1.93,8.17c2.23,2.01,4.94,3.36,7.6,4.76c4.52,2.36,6.21,6.04,4.67,9.73c-1.38,3.3-5.36,4.77-9.85,3.68
		c-2.31-0.56-4.35-1.66-6.26-3.02c-6.51-4.63-13.06-9.18-19.23-14.31c-6.95-5.79-15.8-7.76-24.25-10.19
		c-11.04-3.17-22.38-4.67-33.39-4.62c0.31-0.1,1.17-0.08,1.91,0.34c9.98,5.83,19.54,12.17,26,22.12c1.46,2.25,2.61,4.66,2.57,7.45
		c-0.06,4.13-2.54,7.38-6.13,8.01c-4.35,0.76-6.94-0.94-8.31-5.77c-0.66-2.32-1.66-4.41-3.33-6.06
		c-6.81-6.75-14.39-12.67-23.42-15.84c-15.92-5.59-32.5-8.32-49.27-10.21c-8.46-0.95-16.98-0.22-25.39-1.71
		c-2.55-0.45-5.19-0.21-8.47-0.09c11.46,6.24,22.22,12.18,31,21.01c2.26,2.27,4.96,2.46,7.88,1.8c2.14-0.48,4.3-0.7,6.37,0.3
		c4.72,2.28,5.34,8.34,1.17,11.53c-6.49,4.97-21.55,3.33-25.87-2.43c-6.78-9.03-16.68-14.19-26.8-18.57
		c-12.44-5.39-25.62-8.29-39.03-10.07c-7.43-0.99-14.88-1.39-22.37-1.78c-14.51-0.75-28.92-0.81-43.15,2.51
		c-4.75,1.11-9.78,1.62-14.43,4.93c3.99,3.92,8.11,6.18,13.15,5.97c6.47-0.27,11.94,2.11,17.4,5.25c8.57,4.92,17.64,5.68,26.7,1.34
		c3.15-1.51,6.13-0.94,9.26-0.59c6.92,0.77,13.33,2.86,18.95,7.09c1.88,1.42,3.48,3.11,4.63,5.18c1.85,3.33,1.59,6.56-1.19,9.11
		c-2.71,2.48-5.88,2.27-8.64-0.06c-7.2-6.1-15.01-8.22-24.09-4.56c-3.45,1.39-7.23,0.94-10.89,0.96c-5.46,0.03-10.89-1.31-16.4-0.16
		c-1.97,0.41-3.97-0.42-5.71-1.47c-4.46-2.67-8.9-2.23-12.47,1.17c-6.65,6.33-14.03,5.72-21.8,3.2c-4.41-1.43-8.61-0.58-12.64,1.2
		c-5.33,2.36-10.58,3.21-16.44,1.77c-5.06-1.25-10.03,0.32-13.86,3.97c-3.54,3.37-7.54,4.51-12.28,4.36
		c-8.31-0.26-16.29,0.9-23.04,6.44c-1.64,1.35-3.75,1.81-5.68,1.17c-4.98-1.64-9.19,0.09-13.19,2.7c-4.49,2.92-9.08,5.24-14.49,6.31
		c-4.57,0.9-8.58,3.49-10.7,8.22c-1.28,2.85-3.74,4.5-6.89,3.77c-7.3-1.7-12.05,2.21-16.83,7.24c-1.8,1.06-3.39,1.08-5.39,0.77
		c-1.85-0.67-3.01-1.53-3.11-3.28c-0.54,2.01-1.77,3.51-3.8,4.83c-1.99,0.78-3.71,0.72-5.78,0.52c-1.46-0.31-2.58-0.52-3.95-1.04
		c-7.6-3.11-14.92-6.06-22.26-8.93c-9.8-3.84-19.78-6.91-30.42-7.38c-1.65-0.07-3.32-0.46-4.89-0.96c-3.68-1.16-7.62-2.26-8.27-6.9
		c-0.61-4.37,2.56-6.56,5.64-8.64c8.11-5.45,17.31-7.61,26.84-8.55c17.07-1.69,33.61,0.41,49.12,8.06
		c3.68,1.81,7.07,4.38,10.24,7.02c4.11,3.42,7.64,3.21,12.22,0.52c6.06-3.57,12.67-6.19,19.05-9.23c1.03-0.49,2.13-0.88,3.08-1.5
		c7.35-4.78,15.05-8.01,24.06-8.77c5.81-0.49,11.32-3.99,17.15-4.84c7.46-1.1,14.41-2.28,21.24-6.26c6.35-3.69,14.04-5.2,21.71-2.32
		c0.95,0.36,2.37-0.66,3.6-0.86c6.99-1.17,13.96-2.68,21-3.23c2.63-0.21,5.45,1.85,8.61,3.03c0.97-0.88,2.42-2.19,4.11-3.73
		c-3.15-1.82-6-3.45-8.83-5.1c-0.86-0.5-1.78-0.95-2.54-1.58c-12.78-10.7-10.4-16.55,1.26-22.88c10.92-5.93,22.98-7.68,35.12-8.81
		c19.18-1.8,38.27-0.51,57.32,2.1c1.93,0.26,4.02-0.51,6-0.92c1.78-0.37,3.49-1.15,5.28-1.32c29.37-2.85,58.56-1.46,87.65,3.35
		c3.15,0.52,6.6,0.24,9.74-0.43c30.7-6.59,59.87-2.29,87.71,11.97c0.86,0.44,1.7,0.91,2.52,1.35c1.55-1.8,2.83-3.55,4.38-5.02
		c1.43-1.36,3.15-2.42,4.76-3.63c-6.35-4.89-4.82-16.3,3.27-21.15c3.43-2.06,7.66-3.47,11.64-3.8c9.63-0.79,19.13,0.97,27.45,5.87
		c5.56,3.28,11.31,5.16,17.43,6.81c8.87,2.39,17.26,6.08,24.2,12.44c0.67,0.61,1.69,1.04,2.6,1.17c12.21,1.77,22.9,6.71,31.96,15.12
		c0.48,0.45,1.01,0.88,1.59,1.19c9.17,4.86,18.36,9.71,28.18,14.89c12.25-10.66,26.99-11.6,41.89-3.12
		c16.34,9.3,24.65,23.76,24.24,42.89c-0.04,1.84,0.51,3.94,1.45,5.53c13.01,21.97,15.08,44.75,5.36,68.84
		c-3.24,10.43-10.17,17.74-18.16,24.72c-10.68,8.77-22.62,14.03-35.71,16.74c-4.62,0.95-9.28,1-13.72-1.08
		c-6.13-2.86-11.61-2.2-17.96,0.77c-11.65,5.46-22.09,13.2-33.89,18.09c-15.68,6.49-29.15,17.46-45.67,22.1
		c-1.31,0.37-2.31,1.29-3.32,2.17c-11.94,10.41-26.19,16.33-41.02,21.13c-4.7,1.52-9.54,1.58-14.36,1.22
		c-9.85-0.75-15.63-10.84-11.23-19.63c6.99-13.97,16.82-25.54,29.72-34.43c1.78-1.23,3.62-2.38,5.39-3.62
		c0.12-0.08,0.15-0.28,0.38-0.71c-3.69,1.7-6.85,3.82-10.19,5.59c-6.79,3.59-13.63,4.29-20.57,0.82c-3.23-1.61-4.87,0.03-6.71,2.23
		c-15.32,18.31-33.12,33.76-53.82,45.7c-15.36,8.87-31.43,16.09-49,19.51c-3.64,0.71-7.29,0.94-10.93,0.37
		c-7.61-1.18-13.98-4.58-15.83-12.52c-1.85-7.97-0.68-15.57,6.35-21.26c10.01-8.11,20.36-15.64,32.49-20.31
		c1.98-0.76,3.3-2.1,4.44-3.82c7.93-11.9,17.49-22.23,29.54-30.05c2.78-1.8,2.35-4.54,3.03-7.37c0.26-0.74,0.62-1.04,0.8-1.4
		c0.3-0.58,0.12,0.28-0.26-0.26s-0.75,0.14-0.09,0.05c0.02,0,0.08,0.13-0.03,0.68c-6.06,8-13.07,14.69-20.32,20.97
		c-34.15,29.57-73.1,50.72-115.87,65c-1.42,0.47-2.85,0.93-4.29,1.33c-9.99,2.73-20.74-2.21-25.19-11.6
		c-4.79-10.11-0.98-20.66,9.17-25.41c1.95-0.91,3.92-1.81,6.29-2.65c0.88-0.63,1.58-0.8,2.52-1.26c2.98-2.04,6.77-1.83,9.08-5.02
		c0.4-0.56,0.92-0.6,0.98-1.04c0.01-0.11-0.11-0.17-0.22-0.15c-0.66,0.09,0.06-0.22-0.23,0.65c-2.63,3-6.31,3.53-9.58,5.51
		c-0.94,0.49-1.67,0.63-2.56,1.3c-13.54,7.07-27.52,8.45-42.06,6.22c-4.15-0.64-7.82,1.19-11.41,3.02
		c-8.06,4.11-16.41,7.32-25.47,8.43c-10.74,1.32-19.7-4.66-21.93-14.54c-0.73-3.24-0.26-6.37,0.71-9.36
		c5.42-16.79,15.09-30.31,30.77-39.01c5.33-2.96,11.07-4.63,17.22-4.43c3.38,0.11,5.69-1.13,7.18-4.25c1.43-3,3.47-5.65,6.56-8.79
		c-9.62,2.08-18.29,3.15-27.05,1.24c-1.14-0.25-2.34-0.01-3.46,0.34c-5.04,1.62-10.52,2.18-15.31,0.85
		c-11.34-3.15-23.28-0.46-34.43-4.33c-1.1-0.38-2.33-0.49-3.47-0.31c-7.36,1.2-14.57,0.38-21.75-1.37
		c-1.97-0.48-3.96,0.24-5.93,0.54c-7.46,1.13-14.96,1.57-22.3-0.45c-4.85-1.34-9.56,0.72-14.4-0.21
		c-8.44-1.62-16.42-5.09-25.23-5.39c-4.44-0.15-8.4-2.84-11.45-6.49c-3.59-4.29-9.33-3.87-14-5.81c-1.17-0.49-2.21,1.22-3.18,2.11
		c-14.28,13.09-31.31,19.89-50.39,21.97c-6.29,0.69-12.58,1.34-19.34,1.02c-4.13-0.63-7.88-0.86-11.63-1.12
		C92.43,402.94,88.78,401.66,88.16,396.25z"/>
	<path class="st1" d="M489.45,819.22c-3.85-0.22-7.25-0.24-11.11-0.28c-9.08-0.95-17.72-0.26-26.77-0.25
		c-2.7-0.12-4.99-0.51-7.28-0.68c-18.65-1.34-37.3-2.62-55.95-3.95c-9.24-0.66-18.49-1.24-27.72-2.1
		c-12.16-1.13-24.32-2.42-36.46-3.8c-11.16-1.27-22.32-2.52-33.42-4.2c-12.73-1.94-25.49-3.86-38.05-6.67
		c-22.91-5.12-45.95-9.95-68.43-16.62c-23.91-7.09-46.58-17.55-67.94-30.68c-16.05-9.87-31.41-20.61-44.28-34.48
		c-4.61-4.97-8.53-10.58-12.88-16.22c1.48-3.25,4.57-3.03,7.19-3.53c5.51-1.04,10.93-2.13,15.63-6.17c3.49-0.25,4.92,2.16,6.54,4.16
		c3.52,4.37,7.49,8.27,12.02,12.14c17.71,14.92,37.03,26.62,57.6,36.33c1.51,0.71,3.02,1.41,5.05,1.87
		c37.36,16.26,76.55,23.93,116,30.87c26.11,4.6,52.4,7.36,78.77,9.73c20.39,1.83,40.77,3.65,61.15,5.58c6.29,0.6,12.66,0.97,18.93,1
		c12.66,0.08,25.26,1.66,37.93,1.24c16.66-0.56,33.26,1.69,49.92,1c2.63-0.11,5.33,0.41,8.27-0.92c4.65-0.79,8.95,0.22,13.63-0.55
		c6.75,1.45,12.99-0.44,19.25-0.72c7.24-0.31,14.55-0.27,22.13-1.69c5.93-0.44,11.55,0.55,17.41-1.32
		c11.92,0.83,23.3-0.9,34.66-2.05c33.94-3.45,67.66-8.46,101.21-14.64c36.73-6.77,72.75-16.13,107.48-30.1
		c3.56-1.43,6.85-3.41,10.79-4.96c13.16-5.1,24.96-11.95,36.64-19.03c2-1.21,3.9-2.58,6.71-2.85c5.15-0.64,9.58-2.59,14.29-3.45
		c2.52-0.46,4.86-0.71,6.62,1.84c1.54,2.22,3.85,1.26,5.92,1c4.19-0.54,8.31-2.45,12.89-0.33c-9.78,12.06-22.18,21.13-35.58,28.36
		c-17.93,9.68-36.32,18.68-55.1,26.56c-14.22,5.97-29.24,10.2-44.14,14.35c-17.79,4.94-35.71,9.57-53.8,13.22
		c-19.4,3.92-39.04,6.66-58.6,9.73c-13.53,2.12-27.08,4.1-40.67,5.82c-8.36,1.06-16.79,1.59-25.2,2.18
		c-19.47,1.38-38.94,2.76-58.43,3.92c-10.1,0.6-20.22,0.76-30.8,1.11c-5.38,1.06-10.35,0.39-15.29,0.43
		C514.09,819.53,501.99,819.56,489.45,819.22z"/>
	<path class="st2" d="M167.72,337.93c2.28-0.04,4.24-0.02,6.62-0.02c2.47-0.59,3.99-2.55,6.75-2.24c1.79,0.03,3.19,0,4.92,0.02
		c3.27-1.26,6.39-1.73,9.53-2.07c10.74-1.15,21.48-2.34,32.21-3.58c2.78-0.32,5.28,0.23,8.02,1.85c3.29,3.53,6.71,3.56,10.8,2.57
		c19.12-4.62,38.6-6.69,58.6-7.7c1.61,0.27,2.82,0.31,4.27-0.53c3.1-0.82,5.89-0.59,9.03-0.4c1.57,0.27,2.72,0.13,4.13-0.66
		c3.44-0.8,6.55-0.58,10.04-0.32c1.86,0.5,3.27,0.44,4.93-0.68c4.15-0.9,7.96-0.62,12.16-0.34c2.41,0.68,4.41,1.1,6.61-0.59
		c3.43-0.88,6.48-0.84,9.94-0.12c6.45,3.76,12.66,3.49,19.3,0.6c1.13-0.57,1.96-0.64,3.21-0.42c2.22,1.36,4.2,0.98,6.17,0.71
		c17.53-2.38,35.25-2.42,52.81-4.44c2.78-0.32,5.64-0.19,8.25-2.43c1.16-0.91,2.15-1.13,3.55-1.08c1.35,0.26,2.28,1.02,3.69,0.29
		c1.19-0.38,2.09-0.38,3.32-0.13c3.03,2.27,5.05,0.51,7.48-1.2c7.72-0.85,15.08-0.59,22.87-0.24c4.38,0.99,8.3,1.69,12.52-0.66
		c1.07-0.35,1.72-0.54,2.38-0.54c23.75-0.2,47.5-0.48,71.69,0.23c3.59,1.96,6.91,2.35,10.82,1.12c10.48-0.75,20.54-0.59,31.01-0.12
		c2.17,0.66,3.71,2.22,6.19,1.13c6.39-0.64,12.38-0.53,18.77-0.11c1.63,0.4,2.72,1.25,4.46,1.03c4.36-0.36,8.34-0.42,12.69,0.03
		c1.53,0.4,2.54,1.22,4.19,1.04c2.18-0.28,4.02-0.43,5.82-0.25c4.11,0.43,7.49-0.75,10.42-4.26c5.13-1.5,9.63-0.79,14.24,1.93
		c2.55,3.5,5.73,4.26,9.44,4.21c10.64-0.13,21.05,2.25,31.59,3.19c2.24,0.2,3.76,1.37,4.02,3.68c0.36,3.1,1.65,6.11,0.74,9.65
		c-6.91,0.14-13.57-0.12-20.09-0.83c-11.66-1.27-23.27-0.21-34.9-0.6c-18.8-0.63-37.65-0.62-56.45-0.41
		c-18.42,0.21-36.93,0.3-55.29,2.85c-9.06,1.26-18.27,0.48-27.42,1.19c-10.28,0.8-20.6,1.38-30.85,2.48
		c-10.78,1.16-21.61,0.77-32.4,1.63c-16.58,1.32-33.18,2.59-49.78,3.68c-12.45,0.82-24.93,1.21-37.36,2.39
		c-2.82,0.27-5.7,0.23-8.42,0.98c-11.81,3.26-23.46,1.18-35.12-0.91c-2.47-0.44-4.9-1.08-7.42-0.7c-3.44,0.52-6.74-0.06-9.68-1.7
		c-4.94-2.76-10.16-2.9-15.53-2.4c-11.27,1.06-22.59,1.19-33.88,1.78c-22.59,1.18-45.21,1.71-67.78,3.6
		c-11.92,1-23.92,1.35-35.86,2.38c-2.32,0.2-4.66,0.23-7.3,1.25c-3.66-1.17-6.35-0.46-8.69,2.65c-2.46,0.15-4.75,0.41-7.08-1.26
		c0.38-6.23-0.61-7.78-6.29-9.21c0.39-0.98,1.15-1.86,2.17-2.89c0.57-0.27,0.85-0.45,1.26-0.87c0.15-0.2,0.19-0.2,0.18-0.22
		c0.49-0.38,0.54-0.95,0.82-1.72c0.16-0.23,0.16-0.27,0.18-0.28C165.7,338.39,166.55,338.18,167.72,337.93z"/>
	<path class="st3" d="M83.27,689.64c-6.45,7.37-15.71,6.27-23.88,9.2c-9.13-12.34-14.83-26.19-15.17-41.42
		c-0.36-15.8,4.79-30.23,14.62-42.89c11.79-15.18,27.96-23.68,45.47-30.07c17.16-6.26,34.76-10.87,53.13-11.43
		c12.13-0.37,24.28-0.09,36.42-0.02c8.69,0.05,17.32-0.32,26.09,0.71c10.16,1.2,20.57,0.22,30.87,0.35c2.79,0.03,5.57,0.62,8.8,0.97
		c1.34,0.5,2.28-0.1,3.55,0.18c8.87,6.54,15.72,14.72,23.22,22.23c1.06,1.06,1.75,2.51,0.11,4.21c-6.63,1.3-12.99,1.03-19.26,0.54
		c-12.28-0.96-24.58-1.16-36.87-1.73c-17.44-0.81-34.86-2.47-52.34-2.01c-28.26,0.75-55.79,5.17-80.99,18.75
		c-16.18,8.72-26.38,21.84-25.53,41.29c0.4,9.26,4.67,17.25,9.42,24.97C82.03,685.28,83.67,686.88,83.27,689.64z"/>
	<path class="st3" d="M944.36,713.89c-6.97,0.82-13.64,1.49-20.68,2.19c0.37-4.58-1.84-4.46-5.03-3.51
		c-4.56,1.36-9.25,2.31-14.3,3.43c-1.51-2.95,1.05-3.75,2.66-4.88c11.54-8.14,21.39-17.92,29.59-29.45
		c13.18-18.53,13.22-40.84,2.6-57.26c-6.06-9.36-14.7-15.23-24.67-19.55c-17.02-7.36-35.02-10.55-53.3-12.51
		c-16.57-1.78-33.2-2.3-49.86-2.03c-1.82,0.03-3.69,0.09-5.58-1.33c-0.31-8.48,3.06-15.84,5.11-23.5c0.51-1.89,2.05-2.18,3.96-2.07
		c4.81,0.27,9.64,0.01,14.86,0.32c25.69-0.07,50.66,2.59,75.08,9.24c17.29,4.72,33.86,11.31,46.8,24.29
		c16.1,16.14,23.67,35.95,22.26,58.67c-1.14,18.31-9.2,34.06-20.54,48.2C950.63,707.5,947.55,710.54,944.36,713.89z"/>
	<path class="st4" d="M287.08,601.34c-0.69-1.47-1.11-2.8-1.98-3.67c-7.12-7.18-14.33-14.28-21.81-21.55
		c-0.82-0.72-1.46-1.16-2.21-1.9c-1.07-0.99-1.95-1.76-2.95-2.81c-0.32-0.56-0.55-0.84-1.02-1.25c-1.42-1.28-2.64-2.39-3.98-3.79
		c-0.57-0.93-0.88-1.69-1.92-2.2c-0.25-0.17-0.2-0.18-0.21-0.16c-0.4-0.44-0.46-1.04-0.85-1.79c-0.21-0.21-0.15-0.23-0.16-0.2
		c-0.19-0.24-0.41-0.49-0.85-0.85c-0.19-0.15-0.13-0.17-0.14-0.14c-0.4-0.48-0.99-0.54-1.79-0.86c-0.24-0.17-0.2-0.18-0.21-0.16
		c-0.41-0.44-0.46-1.04-0.85-1.79c-0.21-0.21-0.15-0.23-0.16-0.2c-0.19-0.24-0.41-0.49-0.84-0.85c-0.19-0.15-0.14-0.17-0.15-0.15
		c-0.19-0.24-0.41-0.49-0.85-0.85c-0.19-0.15-0.14-0.17-0.15-0.15c-0.19-0.24-0.41-0.49-0.85-0.85c-0.19-0.15-0.14-0.17-0.15-0.15
		c-0.19-0.25-0.41-0.49-0.85-0.85c-0.19-0.15-0.14-0.18-0.15-0.15c-0.19-0.25-0.41-0.49-0.85-0.85c-0.19-0.15-0.14-0.17-0.15-0.15
		c-0.19-0.25-0.41-0.49-0.85-0.85c-0.19-0.15-0.14-0.17-0.15-0.15c-0.19-0.24-0.41-0.49-0.85-0.85c-0.19-0.15-0.14-0.17-0.15-0.15
		c-0.19-0.25-0.41-0.49-0.85-0.85c-0.19-0.15-0.14-0.18-0.15-0.15c-0.19-0.24-0.41-0.49-0.85-0.85c-0.19-0.15-0.14-0.18-0.15-0.15
		c-0.19-0.25-0.41-0.49-0.85-0.85c-0.19-0.15-0.14-0.17-0.15-0.14c-0.19-0.24-0.41-0.49-0.85-0.85c-0.19-0.15-0.14-0.17-0.15-0.14
		c-0.19-0.24-0.41-0.49-0.85-0.85c-0.19-0.15-0.14-0.18-0.15-0.15c-0.19-0.25-0.41-0.49-0.85-0.85c-0.19-0.15-0.14-0.18-0.15-0.15
		c-0.19-0.25-0.41-0.49-0.85-0.85c-0.19-0.15-0.14-0.17-0.15-0.14c-0.19-0.24-0.41-0.49-0.85-0.86c-0.19-0.15-0.14-0.17-0.15-0.14
		c-0.19-0.24-0.41-0.49-0.85-0.85c-0.19-0.15-0.14-0.18-0.15-0.15c-0.19-0.25-0.41-0.49-0.85-0.85c-0.19-0.15-0.14-0.18-0.15-0.15
		c-0.2-0.25-0.41-0.49-0.85-0.85c-0.19-0.15-0.14-0.17-0.15-0.14c-0.19-0.25-0.41-0.49-0.85-0.86c-0.19-0.15-0.14-0.17-0.15-0.14
		c-0.19-0.24-0.41-0.49-0.85-0.85c-0.19-0.15-0.14-0.18-0.15-0.15c-0.19-0.25-0.41-0.49-0.85-0.85c-0.19-0.15-0.14-0.18-0.15-0.15
		c-0.19-0.25-0.41-0.49-0.85-0.85c-0.19-0.15-0.14-0.17-0.15-0.15c-0.19-0.24-0.41-0.49-0.85-0.85c-0.19-0.15-0.14-0.17-0.15-0.15
		c-0.19-0.24-0.41-0.49-0.85-0.85c-0.19-0.15-0.14-0.17-0.15-0.15c-0.19-0.25-0.41-0.49-0.85-0.85c-0.19-0.15-0.14-0.18-0.15-0.15
		c-0.19-0.25-0.41-0.49-0.85-0.85c-0.19-0.15-0.14-0.17-0.15-0.15c-0.19-0.24-0.41-0.49-0.85-0.85c-0.19-0.15-0.14-0.17-0.15-0.15
		c-0.19-0.24-0.41-0.49-0.85-0.85c-0.19-0.15-0.14-0.17-0.15-0.15c-0.19-0.25-0.41-0.49-0.85-0.85c-0.19-0.15-0.14-0.17-0.15-0.15
		c-0.19-0.24-0.41-0.49-0.85-0.85c-0.19-0.15-0.14-0.17-0.15-0.15c-0.19-0.25-0.41-0.49-0.85-0.85c-0.19-0.15-0.14-0.17-0.15-0.15
		c-0.19-0.24-0.41-0.49-0.85-0.85c-0.19-0.15-0.14-0.17-0.15-0.15c-0.19-0.24-0.41-0.49-0.85-0.85c-0.19-0.15-0.14-0.17-0.15-0.15
		c-0.19-0.24-0.41-0.49-0.85-0.85c-0.19-0.15-0.14-0.17-0.15-0.15c-0.19-0.25-0.41-0.49-0.85-0.85c-0.19-0.15-0.14-0.17-0.15-0.15
		c-0.19-0.24-0.41-0.49-0.85-0.85c-0.19-0.15-0.14-0.17-0.15-0.15c-0.19-0.24-0.41-0.49-0.85-0.85c-0.19-0.15-0.14-0.17-0.15-0.15
		c-0.19-0.24-0.41-0.49-0.85-0.85c-0.19-0.15-0.14-0.18-0.15-0.15c-0.19-0.25-0.41-0.49-0.85-0.85c-0.19-0.15-0.14-0.17-0.15-0.14
		c-0.19-0.25-0.41-0.49-0.85-0.85c-0.19-0.15-0.14-0.17-0.15-0.15c-0.19-0.24-0.41-0.49-0.85-0.85c-0.19-0.15-0.14-0.17-0.15-0.15
		c-0.19-0.25-0.41-0.49-0.85-0.85c-0.19-0.15-0.14-0.17-0.15-0.15c-0.19-0.25-0.41-0.49-0.85-0.85c-0.19-0.15-0.14-0.17-0.15-0.14
		c-0.19-0.25-0.41-0.49-0.85-0.85c-0.19-0.15-0.14-0.17-0.15-0.15c-0.19-0.25-0.41-0.49-0.85-0.85c-0.19-0.15-0.14-0.17-0.15-0.15
		c-0.19-0.25-0.41-0.49-0.85-0.85c-0.19-0.15-0.14-0.17-0.15-0.15c-0.19-0.25-0.41-0.49-0.85-0.86c-0.19-0.15-0.14-0.17-0.15-0.14
		c-0.19-0.25-0.41-0.49-0.85-0.86c-0.19-0.15-0.14-0.17-0.15-0.14c-0.19-0.24-0.41-0.49-0.85-0.86c-0.19-0.15-0.14-0.17-0.15-0.14
		c-0.19-0.24-0.41-0.49-0.85-0.86c-0.19-0.15-0.14-0.17-0.15-0.14c-0.19-0.24-0.41-0.49-0.85-0.86c-0.19-0.15-0.14-0.17-0.15-0.14
		c-0.19-0.24-0.41-0.49-0.85-0.86c-0.19-0.15-0.14-0.17-0.15-0.14c-0.19-0.24-0.41-0.49-0.85-0.86c-0.19-0.15-0.14-0.17-0.15-0.14
		c-0.19-0.24-0.41-0.49-0.85-0.86c-0.19-0.15-0.14-0.17-0.15-0.14c-0.19-0.24-0.41-0.49-0.85-0.86c-0.19-0.15-0.14-0.17-0.15-0.14
		c-0.19-0.24-0.41-0.49-0.85-0.86c-0.19-0.15-0.14-0.17-0.15-0.14c-0.19-0.24-0.41-0.49-0.85-0.86c-0.19-0.15-0.14-0.17-0.15-0.14
		c-0.19-0.24-0.41-0.49-0.85-0.86c-0.19-0.15-0.14-0.17-0.15-0.14c-0.19-0.24-0.41-0.49-0.85-0.86c-0.19-0.15-0.14-0.17-0.15-0.14
		c-0.19-0.24-0.41-0.49-0.85-0.86c-0.19-0.15-0.14-0.17-0.15-0.14c-0.19-0.24-0.41-0.49-0.85-0.86c-0.19-0.15-0.14-0.17-0.15-0.14
		c-0.19-0.24-0.41-0.49-0.85-0.86c-0.19-0.15-0.14-0.17-0.15-0.14c-0.19-0.24-0.41-0.49-0.85-0.86c-0.19-0.15-0.14-0.17-0.15-0.14
		c-0.19-0.24-0.41-0.49-0.85-0.86c-0.19-0.15-0.14-0.17-0.15-0.14c-0.19-0.24-0.41-0.49-0.85-0.86c-0.2-0.15-0.14-0.17-0.15-0.14
		c-0.19-0.24-0.41-0.49-0.85-0.86c-0.2-0.15-0.14-0.17-0.15-0.14c-0.19-0.24-0.41-0.49-0.85-0.86c-0.2-0.15-0.14-0.17-0.15-0.14
		c-0.19-0.24-0.41-0.49-0.85-0.86c-0.2-0.15-0.14-0.17-0.15-0.14c-0.19-0.24-0.41-0.49-0.85-0.86c-0.2-0.15-0.14-0.17-0.15-0.14
		c-0.19-0.24-0.41-0.49-0.85-0.86c-0.2-0.15-0.14-0.17-0.15-0.14c-0.19-0.24-0.41-0.49-0.85-0.86c-0.2-0.15-0.14-0.17-0.15-0.14
		c-0.19-0.24-0.41-0.49-0.85-0.86c-0.2-0.15-0.14-0.17-0.15-0.14c-0.19-0.24-0.41-0.49-0.85-0.86c-0.2-0.15-0.14-0.17-0.15-0.14
		c-0.19-0.24-0.41-0.49-0.85-0.86c-0.2-0.15-0.14-0.17-0.14-0.14c-0.19-0.24-0.41-0.49-0.86-0.86c-0.2-0.15-0.14-0.17-0.14-0.14
		c-0.19-0.24-0.41-0.49-0.86-0.86c-0.2-0.15-0.14-0.17-0.14-0.14c-0.23-0.27-0.49-0.54-1.05-0.88
		c-13.2-12.98-26.16-25.83-39.08-38.72c-12.98-12.96-25.98-25.9-38.77-39.04c-1.74-1.79-2.31-4.72-3.16-7.34
		c1.63,3.97,4.67,5.6,8.91,5.77c3.46,0.14,6.9,0.62,10.74,1.08c2.15,1.09,3.75,2.23,5.18,3.67c22.35,22.4,45.15,44.37,67.01,67.24
		c32.81,34.31,66.99,67.23,100.54,101.29c8.71,8.86,17.28,17.38,26.12,26.12c20.96,21.1,41.81,41.81,62.56,62.62
		c1.64,1.64,3.45,3.13,4.77,5.53c0.34,6.53,1.26,12.56,3.72,18.65c-1.45,2.4-2.86,1.27-4.16,0.32c-1.57-1.15-2.83-2.65-4.5-4.24
		c-25.75-26.02-51.5-51.52-77.07-77.19C290.12,605.25,288.25,603.8,287.08,601.34z"/>
	<path class="st4" d="M829.81,563.65c-4.34,0.31-8.99,0.52-13.63,0.29c-2.92-0.14-3.98,0.95-4.63,3.7
		c-1.62,6.9-3.62,13.72-5.51,20.96c1.07,1.77,0.5,3.23,0.13,4.66c-8.07,31.19-16.6,62.26-24.9,93.38c-0.22,0.81-0.53,1.57-1.47,2.38
		c-1.04-0.04-1.65-0.52-1.62-1.18c0.28-6.29-3.83-10.19-7.76-14.64c2.23-12.8,6.08-24.82,9.26-37.02
		c4.02-15.42,8.46-30.73,12.26-46.62c3-8.42,4.52-16.83,6.99-25.39c5.86-19.19,10.54-38.28,15.62-57.27
		c7.92-29.6,15.99-59.17,23.73-88.82c0.3-1.14,0.74-2.21,1.53-3.56c6.32-8.02,12.38-15.73,18.72-23.66
		c-1.85,8.32-3.98,16.86-6.29,25.71c-1.21,1.33-0.58,2.68-1.05,4.16c-0.19,0.32-0.21,0.26-0.18,0.26
		c-1.84,8.57-4.41,16.96-6.81,25.8c-0.19,0.35-0.18,0.78-0.2,0.99c-0.78,0.91-0.42,1.88-0.81,2.99c-0.18,0.28-0.2,0.23-0.17,0.22
		c-0.84,0.72-0.4,1.79-0.83,3c-2.31,9.17-4.35,18.04-6.67,26.84c-6.93,26.31-13.97,52.59-20.95,78.89c-0.21,0.77-0.3,1.57-0.55,2.94
		C819.4,562.9,824.45,563.13,829.81,563.65z"/>
	<path class="st5" d="M489.29,819.31c16.73-0.3,33.75-0.29,51.24-0.3c-0.09,0.29-0.66,0.85-1.22,0.85
		C522.73,819.82,506.15,819.71,489.29,819.31z"/>
	<path class="st5" d="M844.31,446.92c1.86-8.34,4.01-16.91,6.45-25.7C848.9,429.56,846.75,438.12,844.31,446.92z"/>
	<path class="st5" d="M451.6,818.89c8.27-0.21,16.99-0.38,25.99-0.27C469.27,818.92,460.66,818.92,451.6,818.89z"/>
	<path class="st6" d="M167.87,337.69c-0.6,0.56-1.39,0.93-2.53,1.28c-0.34-0.21-0.33-0.39-0.26-0.86
		C165.98,337.71,166.83,337.6,167.87,337.69z"/>
	<path class="st5" d="M260.83,574.25c0.72,0.2,1.4,0.64,2.11,1.4c-0.81,0.19-1.65,0.06-2.69-0.34
		C260.35,574.93,260.6,574.74,260.83,574.25z"/>
	<path class="st5" d="M851.3,420.81c-0.12-0.98,0.04-2.21,0.49-3.68C851.92,418.12,851.75,419.34,851.3,420.81z"/>
	<path class="st5" d="M251.1,564.27c0.51,0.21,1.17,0.68,1.86,1.49C252.41,565.58,251.82,565.05,251.1,564.27z"/>
	<path class="st5" d="M842.31,454.07c-0.12-0.7,0.02-1.67,0.46-2.85C842.9,451.93,842.73,452.87,842.31,454.07z"/>
	<path class="st5" d="M843.29,450.85c-0.13-0.67,0.02-1.56,0.43-2.65C843.85,448.87,843.71,449.75,843.29,450.85z"/>
	<path class="st5" d="M249.92,562.33c0.36,0.16,0.7,0.63,1.05,1.4C250.63,563.57,250.27,563.11,249.92,562.33z"/>
	<path class="st5" d="M247.14,560.26c0.39-0.07,0.96,0.11,1.69,0.55C248.43,560.88,247.87,560.69,247.14,560.26z"/>
	<path class="st5" d="M245.92,558.33c0.35,0.16,0.69,0.63,1.05,1.4C246.63,559.57,246.27,559.1,245.92,558.33z"/>
	<path class="st6" d="M164.71,339.17c0.09,0.39-0.07,0.94-0.49,1.63C164.13,340.4,164.29,339.86,164.71,339.17z"/>
	<path class="st5" d="M238.01,550.29c0.22-0.08,0.49,0.11,0.87,0.53C238.67,550.89,238.37,550.72,238.01,550.29z"/>
	<path class="st5" d="M239.01,551.29c0.21-0.07,0.49,0.11,0.86,0.54C239.67,551.89,239.37,551.72,239.01,551.29z"/>
	<path class="st5" d="M240.01,552.29c0.21-0.07,0.49,0.11,0.86,0.53C240.67,552.89,240.37,552.72,240.01,552.29z"/>
	<path class="st5" d="M241.01,553.29c0.22-0.08,0.49,0.11,0.87,0.53C241.67,553.89,241.37,553.72,241.01,553.29z"/>
	<path class="st5" d="M242.01,554.29c0.22-0.08,0.49,0.11,0.87,0.53C242.67,554.89,242.37,554.72,242.01,554.29z"/>
	<path class="st5" d="M243.01,555.29c0.21-0.07,0.49,0.11,0.87,0.53C243.67,555.89,243.37,555.72,243.01,555.29z"/>
	<path class="st5" d="M244.01,556.29c0.21-0.07,0.49,0.11,0.87,0.54C244.67,556.89,244.37,556.72,244.01,556.29z"/>
	<path class="st5" d="M245,557.29c0.21-0.08,0.49,0.11,0.87,0.53C245.67,557.89,245.37,557.72,245,557.29z"/>
	<path class="st5" d="M249.01,561.29c0.21-0.07,0.49,0.11,0.86,0.53C249.67,561.89,249.37,561.72,249.01,561.29z"/>
	<path class="st5" d="M172.02,484.27c0.2-0.06,0.48,0.12,0.86,0.55C172.69,484.88,172.4,484.7,172.02,484.27z"/>
	<path class="st5" d="M171.02,483.27c0.2-0.06,0.48,0.13,0.86,0.55C171.69,483.88,171.4,483.7,171.02,483.27z"/>
	<path class="st5" d="M257.02,570.24c0.16-0.03,0.46,0.18,0.87,0.65C257.72,570.92,257.44,570.7,257.02,570.24z"/>
	<path class="st5" d="M170.02,482.27c0.2-0.06,0.48,0.13,0.86,0.55C170.69,482.88,170.4,482.7,170.02,482.27z"/>
	<path class="st5" d="M168.85,481.27c0.18-0.06,0.52,0.1,1,0.53C169.66,481.87,169.34,481.68,168.85,481.27z"/>
	<path class="st6" d="M163.69,341.04c0.04,0.2-0.17,0.47-0.64,0.8C163.01,341.64,163.22,341.38,163.69,341.04z"/>
	<path class="st5" d="M204.01,516.29c0.21-0.07,0.49,0.11,0.87,0.53C204.68,516.88,204.38,516.71,204.01,516.29z"/>
	<path class="st5" d="M203.01,515.28c0.21-0.07,0.49,0.11,0.86,0.53C203.68,515.88,203.38,515.71,203.01,515.28z"/>
	<path class="st5" d="M202.01,514.28c0.21-0.07,0.49,0.11,0.86,0.54C202.68,514.88,202.38,514.71,202.01,514.28z"/>
	<path class="st5" d="M201.01,513.28c0.21-0.07,0.49,0.11,0.86,0.54C201.68,513.88,201.38,513.71,201.01,513.28z"/>
	<path class="st5" d="M200.01,512.28c0.21-0.07,0.49,0.11,0.86,0.54C200.68,512.88,200.38,512.71,200.01,512.28z"/>
	<path class="st5" d="M199.01,511.28c0.21-0.07,0.49,0.11,0.86,0.54C199.68,511.88,199.38,511.71,199.01,511.28z"/>
	<path class="st5" d="M198.02,510.28c0.21-0.07,0.49,0.11,0.86,0.54C198.68,510.88,198.38,510.71,198.02,510.28z"/>
	<path class="st5" d="M197.02,509.28c0.21-0.07,0.49,0.11,0.86,0.54C197.68,509.88,197.38,509.71,197.02,509.28z"/>
	<path class="st5" d="M196.02,508.28c0.21-0.07,0.49,0.12,0.86,0.54C196.68,508.88,196.38,508.71,196.02,508.28z"/>
	<path class="st5" d="M195.02,507.28c0.21-0.07,0.49,0.12,0.86,0.54C195.68,507.88,195.38,507.71,195.02,507.28z"/>
	<path class="st5" d="M194.02,506.28c0.21-0.07,0.49,0.12,0.86,0.54C194.68,506.88,194.39,506.71,194.02,506.28z"/>
	<path class="st5" d="M193.02,505.28c0.21-0.07,0.49,0.12,0.86,0.54C193.68,505.88,193.39,505.71,193.02,505.28z"/>
	<path class="st5" d="M192.02,504.28c0.21-0.07,0.49,0.12,0.86,0.54C192.68,504.88,192.39,504.71,192.02,504.28z"/>
	<path class="st5" d="M191.02,503.28c0.21-0.07,0.49,0.12,0.86,0.54C191.68,503.88,191.39,503.71,191.02,503.28z"/>
	<path class="st5" d="M190.02,502.28c0.21-0.07,0.49,0.12,0.86,0.54C190.68,502.88,190.39,502.71,190.02,502.28z"/>
	<path class="st5" d="M189.02,501.28c0.21-0.07,0.49,0.12,0.86,0.54C189.68,501.88,189.39,501.71,189.02,501.28z"/>
	<path class="st5" d="M188.02,500.28c0.2-0.07,0.49,0.12,0.86,0.54C188.68,500.88,188.39,500.71,188.02,500.28z"/>
	<path class="st5" d="M187.02,499.28c0.2-0.07,0.49,0.12,0.86,0.54C187.68,499.88,187.39,499.71,187.02,499.28z"/>
	<path class="st5" d="M186.02,498.28c0.2-0.07,0.49,0.12,0.86,0.54C186.68,498.88,186.39,498.71,186.02,498.28z"/>
	<path class="st5" d="M185.02,497.28c0.2-0.07,0.48,0.12,0.86,0.54C185.68,497.88,185.39,497.71,185.02,497.28z"/>
	<path class="st5" d="M184.02,496.28c0.2-0.07,0.48,0.12,0.86,0.54C184.68,496.88,184.39,496.71,184.02,496.28z"/>
	<path class="st5" d="M183.02,495.28c0.2-0.07,0.48,0.12,0.86,0.54C183.68,495.88,183.39,495.71,183.02,495.28z"/>
	<path class="st5" d="M182.02,494.28c0.2-0.07,0.48,0.12,0.86,0.54C182.68,494.88,182.39,494.71,182.02,494.28z"/>
	<path class="st5" d="M181.02,493.27c0.2-0.07,0.48,0.12,0.86,0.55C181.68,493.88,181.39,493.7,181.02,493.27z"/>
	<path class="st5" d="M180.02,492.27c0.2-0.07,0.48,0.12,0.86,0.55C180.69,492.88,180.39,492.7,180.02,492.27z"/>
	<path class="st5" d="M179.02,491.27c0.2-0.07,0.48,0.12,0.86,0.55C179.69,491.88,179.39,491.7,179.02,491.27z"/>
	<path class="st5" d="M178.02,490.27c0.2-0.07,0.48,0.12,0.86,0.55C178.69,490.88,178.39,490.7,178.02,490.27z"/>
	<path class="st5" d="M177.02,489.27c0.2-0.07,0.48,0.12,0.86,0.55C177.69,489.88,177.39,489.7,177.02,489.27z"/>
	<path class="st5" d="M176.02,488.27c0.2-0.06,0.48,0.12,0.86,0.55C176.69,488.88,176.39,488.7,176.02,488.27z"/>
	<path class="st5" d="M175.02,487.27c0.2-0.06,0.48,0.12,0.86,0.55C175.69,487.88,175.4,487.7,175.02,487.27z"/>
	<path class="st5" d="M174.02,486.27c0.2-0.06,0.48,0.12,0.86,0.55C174.69,486.88,174.4,486.7,174.02,486.27z"/>
	<path class="st5" d="M173.02,485.27c0.2-0.06,0.48,0.12,0.86,0.55C173.69,485.88,173.4,485.7,173.02,485.27z"/>
	<path class="st5" d="M237,549.29c0.22-0.08,0.49,0.11,0.87,0.53C237.67,549.89,237.37,549.72,237,549.29z"/>
	<path class="st5" d="M236.01,548.29c0.21-0.07,0.49,0.11,0.86,0.53C236.67,548.88,236.37,548.72,236.01,548.29z"/>
	<path class="st5" d="M235.01,547.28c0.21-0.07,0.49,0.12,0.86,0.54C235.68,547.89,235.38,547.71,235.01,547.28z"/>
	<path class="st5" d="M234.01,546.29c0.22-0.08,0.49,0.11,0.87,0.53C234.67,546.89,234.37,546.72,234.01,546.29z"/>
	<path class="st5" d="M233,545.29c0.22-0.08,0.49,0.11,0.87,0.53C233.67,545.89,233.37,545.72,233,545.29z"/>
	<path class="st5" d="M232.01,544.29c0.21-0.07,0.49,0.11,0.86,0.53C232.67,544.88,232.38,544.71,232.01,544.29z"/>
	<path class="st5" d="M231.01,543.28c0.21-0.07,0.49,0.12,0.86,0.54C231.68,543.89,231.38,543.71,231.01,543.28z"/>
	<path class="st5" d="M230.01,542.29c0.22-0.08,0.49,0.11,0.87,0.53C230.67,542.89,230.37,542.72,230.01,542.29z"/>
	<path class="st5" d="M229.01,541.29c0.22-0.08,0.49,0.11,0.87,0.53C229.67,541.89,229.37,541.72,229.01,541.29z"/>
	<path class="st5" d="M228.01,540.28c0.21-0.07,0.49,0.11,0.86,0.53C228.67,540.88,228.38,540.71,228.01,540.28z"/>
	<path class="st5" d="M227.01,539.28c0.21-0.07,0.49,0.12,0.86,0.54C227.68,539.89,227.38,539.71,227.01,539.28z"/>
	<path class="st5" d="M226.01,538.29c0.21-0.07,0.49,0.11,0.87,0.53C226.67,538.89,226.37,538.72,226.01,538.29z"/>
	<path class="st5" d="M225.01,537.29c0.22-0.08,0.49,0.11,0.87,0.53C225.67,537.89,225.37,537.72,225.01,537.29z"/>
	<path class="st5" d="M224.01,536.29c0.21-0.07,0.49,0.11,0.86,0.53C224.67,536.88,224.37,536.71,224.01,536.29z"/>
	<path class="st5" d="M223.01,535.28c0.21-0.07,0.49,0.11,0.86,0.54C223.68,535.89,223.38,535.71,223.01,535.28z"/>
	<path class="st5" d="M222.01,534.29c0.21-0.07,0.49,0.11,0.86,0.53C222.68,534.89,222.38,534.72,222.01,534.29z"/>
	<path class="st5" d="M205.01,517.28c0.21-0.07,0.49,0.11,0.87,0.53C205.68,517.89,205.38,517.71,205.01,517.28z"/>
	<path class="st5" d="M206.01,518.28c0.21-0.07,0.49,0.11,0.86,0.54C206.68,518.88,206.38,518.71,206.01,518.28z"/>
	<path class="st5" d="M207.01,519.28c0.21-0.07,0.49,0.11,0.86,0.53C207.68,519.88,207.38,519.71,207.01,519.28z"/>
	<path class="st5" d="M208.01,520.29c0.21-0.07,0.49,0.11,0.87,0.53C208.67,520.89,208.38,520.72,208.01,520.29z"/>
	<path class="st5" d="M209.01,521.29c0.21-0.07,0.49,0.11,0.87,0.53C209.68,521.89,209.38,521.72,209.01,521.29z"/>
	<path class="st5" d="M210.01,522.28c0.21-0.07,0.49,0.11,0.86,0.53C210.68,522.88,210.38,522.71,210.01,522.28z"/>
	<path class="st5" d="M211.01,523.28c0.21-0.07,0.49,0.11,0.86,0.53C211.68,523.88,211.38,523.71,211.01,523.28z"/>
	<path class="st5" d="M212.01,524.29c0.21-0.07,0.49,0.11,0.87,0.53C212.67,524.89,212.38,524.72,212.01,524.29z"/>
	<path class="st5" d="M213.01,525.29c0.21-0.07,0.49,0.11,0.87,0.53C213.68,525.89,213.38,525.72,213.01,525.29z"/>
	<path class="st5" d="M214.01,526.28c0.21-0.07,0.49,0.11,0.86,0.53C214.68,526.88,214.38,526.71,214.01,526.28z"/>
	<path class="st5" d="M215.01,527.29c0.21-0.07,0.49,0.11,0.86,0.53C215.68,527.88,215.38,527.71,215.01,527.29z"/>
	<path class="st5" d="M216.01,528.29c0.21-0.07,0.49,0.11,0.87,0.53C216.67,528.89,216.38,528.71,216.01,528.29z"/>
	<path class="st5" d="M217.01,529.29c0.21-0.07,0.49,0.11,0.87,0.53C217.67,529.89,217.38,529.72,217.01,529.29z"/>
	<path class="st5" d="M218.01,530.29c0.21-0.07,0.49,0.11,0.86,0.53C218.68,530.89,218.38,530.71,218.01,530.29z"/>
	<path class="st5" d="M219.01,531.29c0.21-0.07,0.49,0.11,0.86,0.53C219.68,531.88,219.38,531.71,219.01,531.29z"/>
	<path class="st5" d="M220.01,532.29c0.21-0.07,0.49,0.11,0.87,0.53C220.67,532.88,220.37,532.72,220.01,532.29z"/>
	<path class="st5" d="M221.01,533.29c0.21-0.08,0.49,0.11,0.87,0.53C221.67,533.89,221.37,533.72,221.01,533.29z"/>
	<path class="st7" d="M839.77,414.29c-1.84,9.1-3.81,18.33-6.21,27.44c-7.44,28.2-15,56.36-22.6,84.51
		c-3.37,12.47-6.94,24.89-10.7,37.57c-5.55,2.8-11.32,2.47-16.88,2.66c-19.81,0.67-39.48,2.94-59.21,4.63
		c-19.06,1.63-38.14,3.08-57.22,4.58c-21.9,1.72-43.84,2.55-65.76,3.67c-15.63,0.8-31.32-0.24-46.95,0.31
		c-59.1,2.07-118.21,0.77-177.32,0.74c-28.93-0.02-57.88-1.2-86.82-1.88c-3.18-0.07-6.31-0.55-9.63-2.24
		c-1.91-1.54-3.47-2.78-4.87-4.18c-29.65-29.63-59.35-59.21-88.89-88.95c-26.24-26.42-52.3-53.02-78.59-79.83
		c21.32-0.35,42.03-3.43,60.13-16.16c4.31-3.03,8.14-6.76,12.04-10.04c3.96,1.17,8.19,2.36,12.39,3.69c1,0.32,2.27,0.85,2.72,1.67
		c3.98,7.19,10.82,8.02,17.96,8.52c2.7,0.19,5.37,0.95,8.01,1.64c2.24,0.59,4.42,2.09,6.62,2.08c14.66-0.09,29.19,4.4,44,0.81
		c3.24-0.78,7.07,1.3,10.66,1.52c13.32,0.79,26.66,1.34,39.98,2.04c1.29,0.07,2.56,0.59,3.82,0.97c7.63,2.34,15.28,3.14,23.05,0.58
		c1.21-0.4,2.66-0.65,3.86-0.37c8.49,1.98,16.83,1.36,25.1-1.14c0.78-0.23,1.62-0.31,2.43-0.31c0.43,0,0.86,0.33,0.99,0.39
		c-2.97,4.76-5.85,9.54-8.93,14.17c-0.62,0.93-2.08,1.96-3.07,1.88c-17.75-1.44-29.69,8.26-39.42,21.21
		c-4.42,5.89-7.99,12.75-10.47,19.7c-4.85,13.55,3.7,24.69,17.95,23.15c7.61-0.82,15.27-3.29,22.36-6.31
		c6.97-2.97,13.26-5.86,21.36-4.51c12.56,2.09,24.79-0.78,36.93-5.48c-1.81,1.13-3.95,2.37-6.15,3.48
		c-10.99,5.54-13.88,19.86-5.4,28.72c5.84,6.1,12.27,9.47,21.73,6.31c49.71-16.59,94.58-41.06,131.72-78.61
		c2.58-2.6,5.11-5.26,7.96-8.02c0.31-0.14,0.76-0.05,0.8,0.18c0.58,5.85-1.86,9.08-6.72,12.42c-10.47,7.19-18.97,16.66-25.91,27.44
		c-1.13,1.76-3.11,3.4-5.06,4.14c-12.67,4.83-23.32,12.83-33.56,21.36c-5.39,4.49-6.77,13.96-3.95,20.39
		c2.87,6.54,10.35,11.7,18.47,10.03c12.3-2.54,24.73-5.67,36.22-10.61c29.43-12.64,53.96-32.11,74.1-57.07
		c0.61-0.75,1.3-1.43,2.22-2.43c11.38,8.4,21.39,3.57,31.31-2.98c1.55-1.02,3.66-1.19,5.51-1.75c0.22,0.56,0.44,1.11,0.66,1.67
		c-2.01,1.35-4.01,2.72-6.04,4.05c-13.85,9.07-24.32,21.11-31.71,35.9c-3.64,7.28,1.39,16.63,9.68,17.23
		c4.1,0.3,8.44,0.23,12.37-0.82c15.92-4.23,30.79-10.73,43.3-21.82c0.86-0.76,1.79-1.49,2.8-2c11.39-5.73,22.77-11.48,34.23-17.07
		c6.63-3.23,13.48-6,20.07-9.29c10.85-5.42,21.54-11.14,32.36-16.62c1.17-0.59,3-0.98,4.07-0.48c20.41,9.55,36.98-0.05,53.4-10.51
		C837.93,415.69,838.66,414.99,839.77,414.29z"/>
	<path class="st6" d="M701.9,315.92c-4.56-0.57-8.75-1.24-13.37-1.91c-4.29-4.67-9.43-5.27-15.17-5.61
		c-30.06-1.77-60.15-2.38-90.25-3.19c-21.64-0.58-43.29-1.01-64.88-0.44c-21.11,0.56-42.25,0.5-63.34,1.87
		c-8.96,0.58-17.93,1.12-26.86,2.16c-1.99,0.23-3.97,0.57-5.85,1.26c-2.52,0.93-4.61,2.41-4.01,5.46c0.62,3.15,3.34,2.96,5.61,2.64
		c7.59-1.06,15.22-1.59,22.84-2.32c3.3-0.32,6.63-0.94,10.1,1.02c-1.3,1.53-2.79,3.55-4.5,3.75c-11.09,1.34-22.21,2.41-33.34,3.33
		c-7.79,0.65-15.61,1-23.43,1.34c-2.09,0.09-4.2-0.37-6.38-0.95c2.32-9.31,1.09-10.76-8.69-10.89c-19.78-0.27-39.45,1.54-59.16,2.82
		c-20.39,1.33-40.71,3.19-60.93,6.1c-4.78,0.69-9.47,1.8-14.21,2.61c-4.63,0.8-8.01,2.98-9.97,7.79c-8.35-3.22-16.2-0.01-24.11,0.73
		c-8.22,0.78-16.43,1.59-25.13,2.31c4.31-5.66,9.24-10.6,17.81-8.12c1.44,0.41,4.76-1.58,5.37-3.16c2.32-6.05,7.62-7.41,12.71-9.32
		c3.2-1.2,6.46-2.29,9.57-3.7c3.62-1.64,7.1-3.61,10.68-5.35c0.88-0.43,2.25-1.07,2.82-0.71c5.51,3.46,8.88-0.89,13.33-2.77
		c5.34-2.26,11.52-2.94,17.4-3.41c5.05-0.41,9.34-0.57,13.48-4.7c4.08-4.08,9.93-5.1,16.23-3.67c3.74,0.85,8.27,0.24,11.95-1.08
		c5.89-2.1,11.07-3.44,17.62-1.37c5.08,1.61,11.32,3.11,16.65-2.22c4.64-4.63,10.58-7,17-2.12c0.96,0.73,2.52,0.88,3.81,0.9
		c6.6,0.09,13.21,0.22,19.8-0.03c3.45-0.13,7.05-0.53,10.28-1.67c8.03-2.83,14.75-0.69,20.73,4.66c2.85,2.55,5.84,3.85,8.79,1.02
		c3.07-2.94,2.19-6.42-0.46-9.35c-5.3-5.87-12.36-8.25-19.86-9.57c-4.58-0.81-8.62,0.13-13.25,1.74
		c-8.33,2.91-17.18,2.03-25.36-2.82c-4.02-2.38-8.9-4.92-13.29-4.74c-7.59,0.31-12.97-3.12-19.7-7.63c3.16-1.46,5.47-3.15,8.01-3.6
		c11.92-2.12,23.86-5.15,35.87-5.55c22.34-0.74,44.61,1.28,66.23,7.58c13.32,3.88,25.54,10.08,36.35,18.89
		c0.9,0.73,1.75,1.56,2.5,2.44c5.68,6.67,14.38,9.17,22.62,6.36c3.67-1.25,6.42-3.52,5.16-7.77c-1.17-3.94-4.5-4.71-8.11-3.64
		c-4.49,1.33-7.54-0.32-11.19-3.11c-10.11-7.72-20.81-14.68-31.32-21.96c3.2,0,7.18-0.31,11.1,0.05c16.06,1.47,32.2,2.52,48.13,4.92
		c17.71,2.67,34.88,7.44,48.35,20.5c2.95,2.86,6.23,5.33,6.47,10.17c0.07,1.49,2.57,3.92,4.08,4.02c2.1,0.14,5.8-1.12,6.17-2.49
		c0.82-3.05,1.28-7.56-0.39-9.67c-4.89-6.18-10.64-11.77-16.56-17.01c-3.67-3.25-8.28-5.44-12.47-8.1c0.05-0.46,0.1-0.92,0.15-1.38
		c9.22,1.12,18.65,1.37,27.59,3.59c10.42,2.59,20.85,6,30.43,10.74c7.46,3.69,13.52,10.14,20.43,15.04c2.5,1.77,5.63,3.42,8.55,3.56
		c2.21,0.11,5.5-1.73,6.59-3.67c1.68-2.98-0.39-5.59-3.42-7.22c-3.21-1.72-6.47-3.42-9.41-5.53c-4.23-3.04-3.51-7.56,1.3-9.64
		c4.68-2.02,10.05-1,13.86,2.63c4.88,4.66,5.57,4.66,11.22,0.44c0.73-0.54,1.88-1.1,2.65-0.9c7.74,2,15.78,3.59,19.66,11.97
		c0.35,0.75,0.79,1.5,1.36,2.08c8.02,8.28,17.42,14.33,28.66,17.21c1.54,0.39,3.74,0.61,4.83-0.2c1.91-1.41,4.41-3.69,4.39-5.57
		c-0.02-1.89-2.76-5.29-4.43-5.37c-8.15-0.36-13.1-6.82-19.89-9.63c-2.08-0.86-3.8-3.26-5.06-5.34
		c-6.85-11.27-22.56-18.18-35.98-16.96c-4.76,0.43-10.03-1.73-14.58-3.78c-1.5-0.68-1.48-4.73-2.55-8.68
		c3.99-0.41,7.77-1.41,11.41-1.05c8.01,0.8,15.75,2.5,21.08,9.69c1.04,1.4,3.88,2.45,5.66,2.17c10.56-1.64,18.36,3.9,26.36,9.3
		c2.34,1.58,5.02,2.9,7.73,3.67c11.26,3.18,22.63,5.97,29.98,16.36c0.88,1.25,2.65,2.72,3.96,2.68
		c10.37-0.35,16.42,6.96,23.34,12.73c1.28,1.06,2.29,2.48,3.65,3.4c2.97,2.02,5.97,1.97,8.56-0.72
		c13.65-14.18,29.5-13.68,41.94,1.53c4.97,6.07,7.89,13.05,8.04,21.06c0.12,6.21,1.14,12.22,5,17.77c-1.57,2.01-3.6,1.76-5.56,1.43
		c-26.23-4.37-52.53-8.1-79.46-10.14c-1.96-3.75-0.23-7.39,4-9.42c1.22-0.58,2.56-0.72,3.84-1.07c2.3-0.61,4.07-1.86,3.87-4.46
		c-0.21-2.71-2.12-4.1-4.66-4.41c-4.49-0.55-8.98,1.05-11.16,4.41c-6.21,9.58-14.75,6.61-23.05,5.35
		c-6.91-1.05-13.85-1.65-20.83-1.96C707.62,310.15,704.21,311.67,701.9,315.92z"/>
	<path class="st8" d="M182.27,353.19c0.83-1.21,1.87-2.96,3.04-3.06c10.4-0.88,20.82-1.42,31.23-2.14
		c13.37-0.93,26.74-1.95,40.11-2.91c1.49-0.11,3-0.05,4.5-0.08c13.29-0.33,26.58-0.52,39.87-1.05c10.92-0.44,21.82-1.45,32.75-1.83
		c2.62-0.09,5.28,1.44,7.96,2.01c3.59,0.76,7.22,1.38,10.85,1.92c5.06,0.76,10.23,0.99,15.19,2.17c9.59,2.29,19,1.31,28.49-0.4
		c4.7-0.85,9.48-1.47,14.25-1.76c13.4-0.81,26.84-1.2,40.23-2.12c16.01-1.1,31.99-2.63,47.99-3.85c3.81-0.29,7.68,0.14,11.49-0.14
		c11.05-0.84,22.07-2.05,33.12-2.78c9.44-0.63,18.91-0.64,28.36-1.21c14.04-0.84,28.06-2.15,42.11-2.84
		c9.06-0.44,18.15-0.13,27.23-0.13c18.77-0.01,37.54-0.12,56.31,0.05c14.21,0.13,28.41,0.54,42.61,1.04
		c2.4,0.08,4.75,1.24,7.52,1.92c4.4,3.1,4.9,8.61,8.65,11.92c1.31,1.15,2.63,2.56,1.95,5c-5,2.32-9.75,0.4-14.48,0.15
		c-20.11-1.06-40.17-2.25-60.36-0.96c-14.6,0.93-29.29,0.68-43.93,1.43c-2.85,0.15-6.5-1.19-7.55,3.48
		c-0.27,1.19-2.23,1.23-3.56,1.35c-2.16,0.19-4.33,0.45-6.47,0.48c-9.42,0.16-18.4,2.28-27.54,5.41c-6.34-1.39-7.59-0.64-10.56,6.1
		c-3.93-1.61-7.8-1.85-11.82-0.82c-0.96,0.24-2.01,0.52-2.96,0.36c-12.98-2.17-26.21,0.81-39.19-2.23
		c-10.54-2.47-21.36-2.87-32.2-3.31c-16.27-0.65-32.56-0.81-48.81-1.94c-1.17-0.08-2.31-0.26-3.66-1.21
		c4.99-4.9,6.02-7.83,3.4-10.93c-2.64-3.12-8.01-2.93-12.27,1.24c-3.82,3.74-6.94,8.2-10.67,12.53c-7.79-1.11-15.23,0.07-22.7,0.47
		c-14.2,0.77-28.28-0.95-42.37-2.31c-3.99-0.38-7.96-0.67-11.96-0.67c-25.31,0.04-50.63-0.35-75.92,0.97
		c-3.35,0.17-6.66-0.76-9.95-0.71c-23.13,0.38-46.28,0.27-69.38,1.68c-1.84,0.11-3.6,0.64-5.75,1.49c-1.26-1.72-2.15-3.55-2.86-5.44
		C183.8,357.53,183.2,355.46,182.27,353.19z"/>
	<path class="st9" d="M499.27,384.75c-8.42,9.57-18.73,14.98-30.73,17c-12.3,2.07-20.26,8.2-24.12,20.64
		c-3.21,10.32-11.44,17.5-20.24,23.4c-13.43,9.01-27.84,13.22-44.48,10.18c-5.99-1.09-12.92,1.85-19.19,3.75
		c-7.28,2.2-14.12,5.92-21.46,7.76c-6.93,1.74-10.41-2.79-7.42-9.25c4.33-9.38,9.25-18.49,17.99-24.75
		c6.1-4.37,12.3-7.15,20.37-6.13c3.56,0.45,8.08-2.39,11.27-4.88c2.58-2.01,4.3-5.56,5.52-8.76c1.6-4.18,4.64-5.53,8.5-5.63
		c2.8-0.07,5.63,0.39,8.42,0.79c7.08,1.02,10.06-1.07,11.44-8.17c0.63-3.24,0.33-7.17,2.11-9.58c3.15-4.27,7.55-7.62,11.76-11.36
		c5.58-1.84,10.88-2.18,16.44-1.55c6.07,0.69,12.24,0.31,18.36,0.18c9.95-0.22,19.8,1.44,29.75,1.18
		C496.48,379.5,499.91,379.75,499.27,384.75z"/>
	<path class="st9" d="M576.42,383.07c-10.02,17.24-23.06,31.47-37.64,44.17c-33.2,28.94-71.36,49.13-113.22,62.47
		c-1.87,0.6-4.38,0.87-6.06,0.11c-6.11-2.76-7.04-7.2-1.88-11.24c3.77-2.96,8.75-4.35,13.09-6.62c2.64-1.38,5.5-2.69,7.58-4.73
		c6.24-6.14,11.85-12.94,18.3-18.85c4.34-3.98,9.92-5.92,16.17-5.16c3.84,0.47,7.34-0.8,7.86-5.1c1.49-12.35,9.24-20.87,17.75-28.6
		c4.96-4.5,11.55-7.16,16.78-11.42c3.9-3.17,7.29-7.26,9.95-11.54c1.65-2.65-0.46-5.36-3.73-6.89c-2.02-2.82-0.73-4.15,1.82-4.77
		c1.65-0.4,3.33-0.12,4.9,0.45c13.17,4.8,26.83,5.57,40.66,5.18C571.43,380.47,574.49,379.79,576.42,383.07z"/>
	<path class="st9" d="M647.25,381.73c-4.63,8.72-8.98,17.33-14.37,25.23c-9.25,13.54-17.94,27.76-29.02,39.7
		c-23.65,25.46-52.07,43.96-86.56,51.71c-2.53,0.57-5.32,0.51-7.91,0.16c-4.97-0.67-6.13-3.6-3.12-7.6
		c7.69-10.19,18.32-16.35,30.01-20.6c4.86-1.77,7.87-4.32,10.65-8.76c7.65-12.2,16.72-23.17,30.81-28.79
		c1.84-0.73,3.87-4.11,3.74-6.13c-1.07-16,4.52-29.21,15.6-40.45c1.59-1.61,2.75-3.64,4.24-5.82c1.55-2.7,3.93-2.82,6.26-2.84
		c11.11-0.1,22.24-0.41,33.3,1.04C643.22,378.88,645.47,379.3,647.25,381.73z"/>
	<path class="st9" d="M835.33,402.04c-10.44,11.22-31.18,19.4-39.66,15.65c3.52-2.91,7.09-5.51,10.2-8.57
		c1.67-1.65,3.27-4.03,3.51-6.23c0.17-1.61-1.78-4.77-3.05-4.92c-2.45-0.28-5.46,0.5-7.6,1.85c-10.17,6.4-19.99,13.38-30.24,19.64
		c-3.84,2.34-8.74,2.87-12.79,4.95c-4.25,2.18-7.91,5.48-12.08,7.84c-4.6,2.6-8.8,6.59-15.01,4.82c-1.1-0.31-3.08,1.13-4.15,2.24
		c-8.65,9.08-20.12,13.34-31.03,18.61c-4.58,2.21-9.24,4.49-13.31,7.49c-11.16,8.24-23.51,13.75-36.79,17.37
		c-1.4,0.38-2.94,0.26-4.82,0.4c-1.08-4.97,1.41-8.48,3.87-11.94c7.8-10.96,18.16-18.97,29.87-25.27c4.47-2.4,9.36-4.01,14-6.13
		c1.47-0.67,2.73-1.83,4.09-2.76c7.78-5.31,15.62-10.54,23.33-15.96c3.1-2.18,5.8-4.94,8.88-7.15c6.74-4.84,13.66-9.44,20.41-14.28
		c2.24-1.6,4.17-3.62,6.54-5.62c5.5-2.18,11.03-2.51,16.47-2.49c14.95,0.04,29.89-0.87,44.84-0.12c3.55,0.18,6.71,0.32,9.41,3.41
		c2.3,2.64,6.26,1.66,9.43,2.54C832.11,398.1,835.12,398.01,835.33,402.04z"/>
	<path class="st10" d="M647.71,382c-5.57-0.88-10.84-2.53-16.19-2.84c-8.8-0.5-17.65-0.16-26.48-0.1c-0.95,0.01-1.9,0.52-3.23,0.89
		c-3.6-4.63-6.2-9.64-7.81-15.54c11.29-7.62,24.51-6.36,38.06-7.8c-1.55-1.14-2.53-1.85-4.05-2.97c2.86-0.61,5.19-1.43,7.55-1.56
		c8.87-0.48,17.76-0.83,26.64-1.05c16.45-0.41,32.91-1.18,49.35-0.87c14.38,0.27,28.73,1.82,43.1,2.76
		c0.95,0.06,1.93-0.27,3.14-0.73c3.44-0.43,5.35,2.04,7.4,3.74c4.46,3.68,9.61,4.34,14.95,4.26c6.6-0.1,6.6-0.25,5.33,6.08
		c-0.23,1.14-0.32,2.3-1.06,3.71c-2.49,1.58-4.87,2.09-7.75,1.31c-2.3-5.18-6.38-6.55-10.44-4.19c-7.27,4.22-14.88,8.47-20.74,14.33
		c-8.32,8.33-18.7,13.4-27.68,20.88c-2.06-6.79,0.07-14.91,4.95-18.41c3.44-2.46,6.95-4.65,4.13-9.52
		c-1.94-3.35-5.48-3.33-11.42-0.18c-3.01-2.25-5.99-2.84-9.52-2.25c-6.02,1-12.16,0.92-18.23,1.25c-5.8,0.32-11.35,1.86-17.43,2.05
		c-0.24-3.37,0.44-7.03-3.69-8.02c-3.69-0.89-7.04-0.11-9.55,3.45C654.29,374.57,651.02,378.12,647.71,382z"/>
	<path class="st11" d="M417.33,371.75c-3.02,3.92-5.98,7.52-9.29,10.76c-5.5,5.38-12.48,6.46-19.81,6.03
		c-1.48-0.09-2.93-0.58-4.4-0.81c-4.55-0.71-8.82-0.89-13.45,0.96c-3.45,1.38-7.86,0.8-11.77,0.43c-4.94-0.47-9.54-0.76-14.65,0.38
		c-4.75,1.06-10.22-1.07-15.36-1.87c-2.2-0.34-4.73-1.84-6.48-1.17c-7.14,2.75-13.67,0.74-20.39-1.33
		c-2.26-0.69-5.03-1.31-7.13-0.62c-6.1,2.01-11.83,1.22-17.48-1.13c-3.61-1.5-6.7-0.65-10.39,0.17c-5.6,1.24-11.63,0.66-17.48,0.6
		c-3.41-0.03-6.92-1.24-10.2-0.72c-5.76,0.91-10.45-0.02-15.24-3.66c-2.32-1.77-6.66-2.35-9.57-1.56c-5.13,1.4-7.85-0.29-9.93-4.9
		c2.73-4.05,6.9-3.57,10.84-3.91c18.63-1.58,37.28,0.2,55.86-0.27c29.98-0.76,59.95-0.07,89.91-0.94
		c9.97-0.29,19.94-0.37,29.91-0.68c7.33-0.23,14.59,1.21,21.93,1.11C414.63,368.62,416.36,369.35,417.33,371.75z"/>
	<path class="st12" d="M758.88,321.22c18.04,1.67,35.77,3.42,53.47,5.45c10.65,1.22,21.24,2.87,32.3,4.32
		c3.05,8.07,5.67,16.14,8.22,24.63c-5.89,6.41-12.72,9.01-21.18,7.37c-7.97-1.54-16.13-1.44-24.6-2.07
		c-1.92-0.99-1.38-2.38-1.33-3.68c0.17-4.94-2.48-6.86-7.23-5.26c-1.11,0.37-2.1,0.99-3.11,1.57c-2.58,1.46-4.96,1.86-6.96-0.99
		c-1.27-1.82-3.19-2.16-5.29-2.16c-11.76,0.01-20.8-6.43-24.75-17.57C757.06,329,755.79,325.18,758.88,321.22z"/>
	<path class="st13" d="M805.51,359.84c9.7,0.77,19.08,1.32,28.43,2.17c5.55,0.5,10.43-0.65,14.77-4.18c0.97-0.79,2.25-1.21,3.74-1.8
		c1.48,17.88-3.61,33.47-16.97,46.28c-2.09-5.45-7.38-2.83-10.95-4.1c-2.7-0.96-6.05-0.01-6.94-4.09c-0.11-0.52-1.6-1.01-2.47-1.07
		c-4.79-0.32-9.6-0.71-14.4-0.68c-8.38,0.06-16.77,0.36-25.15,0.64c-8.29,0.27-16.57,0.63-25.32,0.93
		c5.51-7.23,12.61-12.85,21.36-16.51c1.98-0.83,3.09-3.72,4.66-6.05c2.33-0.71,4.6-1.05,7.27-1.38c7.1,2.61,7.42,2.48,11.89-3.2
		C798,363.55,800.7,360.39,805.51,359.84z"/>
	<path class="st10" d="M417.74,372.13c-2.23-0.65-4.12-1.97-6.06-2.03c-8.74-0.28-17.49-0.25-26.24-0.24
		c-32.74,0.03-65.47,0.03-98.21,0.19c-8.12,0.04-16.24,0.9-24.36,0.88c-9.12-0.02-18.26-1.11-27.35-0.79
		c-10.2,0.36-20.37,1.79-30.92,2.81c-2.29-3.27-4.97-4.39-8.95-4.32c-2.77,0.05-5.58-1.86-8.53-3.21c1.4-1.35,2.93-3.23,4.53-3.29
		c13.93-0.56,27.87-0.75,41.81-1.15c7.62-0.22,15.23-0.93,22.84-0.91c9.37,0.03,18.73,0.92,28.1,0.86
		c21.76-0.13,43.52-0.95,65.28-0.78c10.53,0.08,21.04,2.17,31.58,2.6c9.43,0.38,18.9-0.44,28.35-0.39
		c5.02,0.03,10.05,0.78,15.3,1.54C425.34,369.16,420.88,369.85,417.74,372.13z"/>
	<path class="st11" d="M704.07,393.71c-1.64,11.76-7.18,21.33-15.57,28.93c-5.42,4.91-12.79,4.1-19.45,4.38
		c2.56-6.87,5.08-13.43,7.44-20.04c0.67-1.86,1.09-3.87,1.28-5.84c0.38-4.08-2.06-7.61-5.42-7.71c-4.1-0.12-5.81,2.39-6.38,6.2
		c-2.22,14.69-10.34,25.22-23.18,32.28c-3.63,2-7.29,2.08-10.98-1.35c1.36-2.54,2.59-5.21,4.15-7.68
		c6.29-9.98,12.66-19.92,19.06-29.83c1.53-2.37,3.31-4.57,5.24-7.03c4.94-2.83,9.76-0.88,14.37-0.22c9.01,1.3,17.77,3.93,26.6,6.12
		C702.2,392.17,703.07,392.67,704.07,393.71z"/>
	<path class="st10" d="M576.61,383.3c-2.07-0.28-3.89-1.26-5.68-1.22c-15.1,0.29-30.07-0.07-44.45-5.65
		c-1.91-0.74-5.21-2.02-5.45,2.73c-2.1,0.94-3.02,0.44-3.57-2.01c-1.25-5.55-4.59-6.56-10.11-3.25
		c-16.91-2.09-33.59-1.11-50.24-1.36c-6.64-0.1-13.27-0.57-20.12-2.29c2.14-3.27,4.61-6.2,7.38-9.24
		c13.71,0.26,27.14,0.33,40.53,1.08c18.43,1.03,36.79,2.38,55.1,5.36c11.58,1.88,23.77,0.1,35.68-0.28c3-0.1,5.65-0.29,7.52,3.12
		C581.25,374.8,579.06,378.93,576.61,383.3z"/>
	<path class="st13" d="M704.53,393.8c-14.48-2.43-28.75-5.15-43.51-7.91c2.48-3.53,5.44-7.01,8.66-10.7
		c9.5-1.53,18.73-2.9,27.98-4.16c3.26-0.44,6.54-0.78,9.82-0.89c2.97-0.1,6.54-1.15,7.59,3.74
		C709.34,379.45,706.62,386.26,704.53,393.8z"/>
	<path class="st13" d="M436.43,370.14c18.78,0.13,37.32,0.36,55.86,0.96c4.81,0.16,9.58,1.48,14.55,2.62
		c-2.25,3.96-4.7,7.57-7.45,11.33c-0.17-3.13-1.9-4.05-4.97-4.09c-15.79-0.23-31.57-0.64-47.36-0.94
		c-5.57-0.11-11.15-0.08-17.22-0.19C431.63,376.63,433.91,373.5,436.43,370.14z"/>
	<path class="st11" d="M160.29,377.78c-14.86,10.35-31.24,13.28-49.8,12.95c9.18-9.45,18.45-16.51,30.11-20.76
		c4.77,0.63,9.23,0.37,13.64,0.76C159.18,371.16,160.66,372.87,160.29,377.78z"/>
	<path class="st6" d="M141.21,315.78c-3.34-1.18-6.27-2.41-9.29-3.28c-2.86-0.82-5.83-1.26-8.69-2.21
		c21.39-4.37,41.82-2.94,60.96,9.92c-2.43,3.09-4.43,5.64-6.68,8.52C165.75,324.54,153.67,320.22,141.21,315.78z"/>
	<path class="st14" d="M160.4,378.07c0.07-4.46-2.51-5.84-6.54-6.12c-4.15-0.28-8.27-0.91-12.64-1.69
		c8.63-4.67,17.98-8.27,24.89-16.27c2.41,0.16,4.6,0.52,7.09,1.27c-0.45,7.1-0.28,14.15-6.82,18.61
		C164.45,375.19,162.61,376.61,160.4,378.07z"/>
	<path class="st5" d="M478.58,411.96c-2.61,6.05-5.58,12.1-8.64,18.09c-0.32,0.63-1.14,1.21-1.84,1.43
		c-5.91,1.8-11.84,3.52-16.82,4.98c1.91-4.65,3.74-10.61,6.78-15.89c1.55-2.7,4.99-4.83,8.04-6.04
		C469.88,413.03,474.14,412.75,478.58,411.96z"/>
	<path class="st5" d="M421.42,461.98c2.72-1.9,5.81-3.88,9.22-5.94C430.34,461.7,425.15,460.4,421.42,461.98z"/>
	<path class="st6" d="M181.29,335.48c-1.77,0.99-3.75,1.74-6.12,2.45c0.86-1.45,2.11-2.87,3.55-4.51
		C179.39,333.94,180.23,334.59,181.29,335.48z"/>
	<path class="st5" d="M419,463.01c0.49-0.3,0.96-0.61,1.75-0.94c0.31-0.02,0.28-0.04,0.27-0.06c-0.5,0.28-0.99,0.57-1.77,0.91
		C418.96,462.97,418.99,462.99,419,463.01z"/>
	<path class="st5" d="M431,456.01c0.11,0,0.21-0.01,0.13-0.04C430.96,455.96,430.99,455.99,431,456.01z"/>
	<path class="st5" d="M479.01,412.01c0.11,0,0.22-0.01,0.14-0.02C478.97,411.98,479,412,479.01,412.01z"/>
	<path class="st5" d="M568.9,414.89c0.08-0.33,0.29-0.52,0.51-0.72c0.07,0.26,0.14,0.53,0.06,0.96
		C569.31,415.29,569.03,415.02,568.9,414.89z"/>
	<path class="st15" d="M770.79,673.1c6.28,3.33,8.81,8.3,8.21,15.46c2.45,3.54,0.58,6.78,0.31,9.96c-0.24,2.8-1.12,5.49-1.9,8.6
		c-1.01,3.35-1.99,6.29-3.31,9.51c-0.84,1.69-1.55,3.02-2.09,4.84c-7.22,15.88-17.62,27.96-33.89,34.67
		c-10.05,4.14-19.99,8.14-30.87,9.59c-6.51,0.86-12.48-1.54-18.73-2.21c-6.18-0.67-5.94-0.84-8.53,4.84
		c-3.97,8.71-11.41,12.73-20.54,13.79c-4.45,0.52-9,0.54-13.39-0.78c-2.95-0.89-5.28-0.63-7.6,1.86c-5.11,5.49-12.1,5.44-18.67,4.62
		c-4.31-0.54-8.11-0.34-12.36,1.32c-5.81,0.29-11.24,0.61-17.08,0.95c-6.62-1.36-12.73-3.71-19.25-1.4
		c-0.8,0.28-1.98-0.24-2.87-0.64c-4.37-1.96-8.11-1.4-11.82,1.86c-2.04,1.79-4.73,3.07-8.08,3.06c-4.38-0.05-8.4-0.12-12.82-0.2
		c-5.5,0.52-9.17-2.72-13.12-5.02c-8.15-4.76-14.32-11.45-17.71-20.32c-5.92-15.49,1.42-30.98,17.23-35.82
		c6.39-1.95,11.95-4.66,16.71-9.41c3.42-3.41,7.97-4.76,12.85-4.45c4,0.25,8.32,0.46,11.59,2.63c6.77,4.51,12.96,3.92,19.67-0.57
		c7.54-2.3,14.76-3.17,22.47-1.05c0.74,0.43,1.04,0.82,1.43,1.07c0.56,0.35-0.23,0.04,0.41-0.15c0.18-0.05,0.01-0.17-0.74-0.42
		c-5.84-7.37-6.33-11.88-1.39-19.21c2.59-3.84,0.57-6.46-1.25-9.98c-26.28,8.7-53.14,14.52-80.93,17.82
		c-0.9,0.18-1.41,0.25-2.32,0.32c-1.93,0.11-3.49,0.05-5.38,0.61c-2.2,0.49-4.05,0.44-6.29,0.5c-1.45,0.02-2.5,0.06-3.9,0.54
		c-3.09,0.64-5.82,0.39-8.95,0.53c-1.25,0.02-2.06,0.23-3.28,0.57c-5.33,0.77-10.28,0.32-15.64,0.45c-1.61-0.05-2.77,0.05-4.31,0.57
		c-7.68,0.77-14.93,0.56-22.62,0.19c-8.31-1.57-16.33-0.64-24.26-1.71c-9.74-1.31-19.4-2.97-29-4.99
		c-3.94-0.83-7.52-2.65-10.99-5.47c-0.7-0.57-1.07-0.9-1.72-1.46c-1.31-1.04-2.34-1.86-3.34-3.17c-0.39-0.58-0.59-0.91-0.94-1.48
		c-0.37-0.52-0.59-0.8-1-1.26c-0.3-0.32-0.42-0.44-0.71-0.77c-0.27-0.34-0.37-0.48-0.59-0.85c-0.25-0.55-0.35-0.88-0.4-1.72
		c-3.16-6.42-4.91-12.65-4.14-19.89c-1.48-6.22,1.74-10.82,4.23-15.33c7.09-12.82,17.5-22.62,30.02-29.98
		c10.64-6.26,21.86-11.25,34.33-12.98c6.68-0.93,13.08-0.53,18.87,2.82c6.34,3.67,11.8,2.78,17.63-1.18
		c8.84-6.02,18.65-7.66,29.06-4.85c11.4,3.08,14.49,10.22,8.99,20.15c5.75,0.33,10.6-2.07,15.52-5.14
		c5.91-3.69,12.73-4.87,19.69-3.69c5.57,0.95,10.9-0.79,16.36-0.93c0.82-0.02,1.62-0.5,2.21-1.09c8.53-8.67,19.53-12.38,31.25-15.54
		c17.54-4.38,34.8-5.98,52.68-2.31c11.87,2.51,20.15,9.33,26.2,19.06c8.07,13,12.06,26.98,9.67,42.39
		c-0.13,0.83-0.17,1.66,0.29,2.42c6.52,0.8,17.41-5.31,20.33-11.69c4.7-10.25,10.62-19.62,19.06-27.21
		c3.74-3.36,7.74-6.34,13.09-6.63c8.12-0.44,14.17,3.72,14.44,11.78c0.88,26.23-5.75,49.49-28.61,65.47
		c-8.2,5.73-16.99,10.5-25.59,15.57c-1.36,0.8-3.24,1.06-3.72,3.27c1.53,2.27,3.97,1.93,6.2,1.73c2.98-0.27,5.93-0.8,8.9-1.24
		c6.09-0.89,10.52-3.71,13.89-9.27c7.42-12.24,17.14-22.52,29.59-29.82C761.47,672.94,765.75,670.49,770.79,673.1z"/>
	<path class="st16" d="M286.54,601c1.02,0.37,1.64,0.67,2.1,1.13c26.71,26.75,53.4,53.51,80.24,80.56
		c-0.89,1.37-2.22,1.39-3.57,1.31c-18.3-1.09-36.67-1.09-54.92-0.2c-13.4,0.65-26.86,0.95-40.29,2.05
		c-22.54,1.85-44.99,4.71-67.6,5.93c-17.89,0.96-35.75,3.43-53.54,5.99c-10.84,1.56-21.65,3.6-32.68,3.95
		c-5.47,0.17-10.99,1.06-15.88,5.01c-5.84-5.31-11.29-10.87-17.04-16.58c-3.61-6.39-7.34-12.45-10.16-18.91
		c-7.44-16.98-1.47-37.07,13.17-48.56c15.53-12.19,33.86-17.22,52.45-21.51c8.32-1.92,16.99-2.5,25.55-3.1
		c9.75-0.69,19.57-1.24,29.33-0.95c23.02,0.69,46.03,1.92,69.04,2.92C270.51,600.38,278.29,600.69,286.54,601z"/>
	<path class="st17" d="M448.65,710.84c8.07-0.15,15.7-0.21,23.79-0.19c1.3,0.31,2.14,0.39,3.28,0c5.62-0.43,10.93-0.74,16.71-0.99
		c1,0.22,1.54,0.27,2.33-0.04c3.25-0.39,6.25-0.67,9.7-0.89c1.3,0.24,2.14,0.32,3.26-0.15c2.31-0.4,4.32-0.65,6.78-0.87
		c2.01,0.94,3.55,1.12,5.26-0.36c0.68-0.3,1.12-0.4,1.9-0.44c6.09,0.59,11.87,0.49,17.64,0.64c14.95,0.39,29.95-0.99,44.86,0.98
		c1.9,0.25,4.09-0.03,5.42,2.86c-4.86,3.65-11.24,1.6-15.59,4.27c1.71,0.15,4.13,0.44,6.48,1.05c1.88,0.49,3.57,1.19,2.75,4.05
		c-0.65,0.61-1.09,0.85-1.49,1.14c-6.17,4.33-11.79,3.83-18.59,0.16c-9.39-5.07-18.78-4.47-26.96,4.08
		c-2.77,2.89-7.22,4.75-11.24,5.75c-18.36,4.57-26.52,23.29-16.83,39.51c6.17,10.32,15.43,16.77,26.75,21.16
		c-1.58,0.96-3.44,2.36-5.29,2.34c-22.45-0.18-44.9-0.41-67.35-0.96c-14.09-0.35-28.19-0.95-42.23-2.02
		c-16.65-1.28-33.24-3.28-49.87-4.81c-12.69-1.16-25.43-1.82-38.1-3.17c-12.98-1.38-25.96-2.97-38.83-5.13
		c-19.56-3.29-39.09-6.81-58.5-10.86c-23.26-4.85-46.09-11.28-67.87-20.99c-1.36-0.61-2.77-1.11-4.48-1.81
		c-2.34-3.77-1.9-5.2,1.83-6.14c2.9-0.73,5.91-0.97,8.89-1.25c25.15-2.34,50.2-5.73,75.44-6.99c8.12-0.41,16.26-0.89,24.41-0.5
		c1.34,0.06,2.67,0.1,3.97-0.26c27.66-7.64,56.08-10.86,84.42-14.63c11.91-1.58,23.75-2.39,35.79-1.03
		c10.98,1.24,21.87-1.35,32.79-2.31C435.97,711.49,442.13,711.86,448.65,710.84z"/>
	<path class="st16" d="M776.05,708.23c0.72-6.31,1.79-12.35,2.94-18.82c4.39-16.39,8.69-32.35,13.01-48.31
		c4.63-17.12,9.28-34.23,13.96-51.73c10.03-0.38,20.04-0.86,29.99-0.27c26.45,1.55,52.81,3.66,77.77,13.89
		c17.42,7.14,29.64,18.78,33.54,37.62c3.28,15.87-1.06,30.14-10.47,43.13c-8.46,11.69-18.67,21.5-30.59,29.57
		c-0.79,0.54-1.41,1.33-2.18,2.34c-6.24,3.69-12.33,7.18-18.59,10.35c-7.48,3.8-15.1,7.34-23.03,11c-3.37-3.17-7.18-3.31-11.28-3.65
		c-17.73-1.5-35.52-1.67-53.25-3.01c-1.62-0.12-3.38-0.2-4.1-2.09c-0.02-1.56,1.11-2.08,2.22-2.34c7.74-1.86,15.25-4.69,23.44-4.46
		c6.89,0.19,13.48-1.85,19.98-3.94c1.68-0.54,3.46-1.23,4.45-2.98c-0.42-1.38-1.61-1.03-2.46-1.01
		c-20.67,0.38-41.07-3.41-61.66-4.13C778.55,709.36,777.4,709.17,776.05,708.23z"/>
	<path class="st18" d="M448.72,710.58c-3.19,0.84-6.73,1.76-10.33,2.09c-13.35,1.22-26.7,2.45-40.08,3.23
		c-5.25,0.31-10.63-1.2-15.85-0.77c-13.83,1.13-27.67,2.53-41.41,4.45c-18,2.51-35.92,5.59-53.86,8.48
		c-1.63,0.26-3.35,0.58-4.76,1.36c-4.1,2.25-8.11,2.42-12.86,1.98c-7.36-0.7-14.89,0.3-22.33,0.79c-6.93,0.46-13.85,1.12-20.75,1.85
		c-13.97,1.48-27.92,3.15-41.89,4.59c-6.26,0.65-12.55,0.9-18.82,1.42c-2.5,0.21-5.45,0.22-3.8,4.6
		c-14.41-7.59-29.03-15.25-43.23-23.63c-6.48-3.83-12.12-9.1-18.43-13.87c0.7-1.48,1.44-3.53,2.74-3.99
		c3.87-1.37,7.91-2.47,11.97-3.03c8.99-1.23,18.05-1.99,27.07-3.09c10.66-1.31,21.28-2.94,31.95-4.12
		c10.45-1.16,20.95-1.91,31.42-2.9c13.16-1.24,26.31-2.56,39.47-3.8c4.45-0.42,8.91-0.71,13.36-1.06
		c9.06-0.71,18.11-1.83,27.18-2.05c23.94-0.57,47.89-0.79,71.83-1.03c3.62-0.04,7.24,0.61,11.29,0.94c2.91,1.97,5.38,3.95,8.21,5.89
		c0.35-0.04,0.32-0.03,0.32-0.02c0.28,0.57,0.33,1.22,0.99,1.76c0.32,0,0.32,0.07,0.29,0.05c-0.14,0.43-0.02,0.78,0.69,1.08
		c0.59,0.21,0.78,0.43,0.91,0.95c0.17,0.4,0.31,0.57,0.66,1c1.14,1.14,2.07,2.01,3.19,3.15c0.35,0.41,0.53,0.54,0.97,0.89
		c16.91,10.8,36.06,10.18,54.6,12.29C442.37,710.39,445.37,710.29,448.72,710.58z"/>
	<path class="st19" d="M775.5,708.26c17.52,1.02,34.84,2.42,52.16,3.62c4.81,0.33,9.66,0.1,14.49,0.12c1.75,0.01,3.5,0,5.98,0
		c-2.57,5.41-6.89,7.07-11.08,7.86c-9.23,1.75-18.63,2.61-27.89,4.18c-4.92,0.84-9.72,2.42-14.55,4.51
		c5.64,0.48,11.27,1.13,16.92,1.42c15.24,0.76,30.49,1.25,45.71,2.22c1.64,0.1,3.13,2.66,4.73,4.45c-8.86,4.3-17.55,8.79-26.7,12.03
		c-30.48,10.78-61.67,19.03-93.58,24.37c-21.97,3.68-43.93,7.49-65.97,10.72c-13.22,1.94-26.58,3.03-39.91,4.2
		c-9.36,0.83-18.76,1.16-28.45,1.44c3.44-3.33,7.13-4.33,12.28-2.9c8.66,2.41,16.25-1.01,20.57-8.06
		c8.18,2.53,16.64,3.97,25.19,1.11c8.88-2.97,14.2-8.92,14.93-18.22c39.06,6.76,70.82-2.28,90.21-40.13
		c2.28-1.83,4.65-2.23,7.14-2.19c-1.7-0.23-3.41-0.47-5.04-1.85C773.39,714.12,774.34,711.34,775.5,708.26z"/>
	<path class="st18" d="M548.29,793.29c3.69-2.65,7.56-5.22,11.7-7.25c1.46-0.71,3.68-0.47,5.36,0c4.83,1.34,9.6,3.56,13.74-0.79
		c3.57,1.6,6.89,3.09,10.54,4.73c-0.93,0.76-2.16,1.84-3.45,1.92c-7.93,0.49-15.88,0.76-23.83,1.1
		C557.76,793.2,553.16,793.4,548.29,793.29z"/>
	<path class="st15" d="M457.4,317.13c-11.48,1.02-22.57,1.92-33.66,2.91c-3.33,0.3-6.65,0.45-7.72-3.55
		c-1.11-4.16,1.13-6.65,4.97-7.89c0.94-0.31,1.93-0.55,2.91-0.67c5.12-0.63,10.23-1.51,15.37-1.76c17.96-0.88,35.93-1.88,53.91-2.21
		c26.48-0.5,52.99-1.04,79.47-0.51c35.29,0.7,70.57,2.39,105.85,3.72c4.23,0.16,8.57,0.56,9.5,6.49c-1.66,4.98-5.21,6.02-9.7,5.45
		c-2.09-0.27-4.21-0.22-6.78-0.28c-0.93,0.08-1.4,0.06-2.2-0.12c-5-0.39-9.66-0.68-14.79-0.93c-0.93,0.1-1.4,0.1-2.21-0.05
		c-7.01-0.39-13.67-0.69-20.8-0.93c-1.6,0.2-2.75,0.28-4.21-0.09c-10.99-0.4-21.66-0.69-32.78-0.92c-3.23,0.3-5.99,0.35-9.15-0.09
		c-14.81-0.28-29.22-0.49-43.64-0.56c-10.61-0.05-21.22,0.11-32.28,0.28c-3.83,1.04-7.27,0.45-11.11,0.5
		c-8.43,0.09-16.43,0.22-24.88,0.46c-2.16,0.97-3.94,1.11-6.16,0.54c-1.44-0.08-2.49-0.09-3.93-0.02c-0.76,0.48-1.21,0.64-2.07,0.37
		C459.93,317.05,458.86,317.05,457.4,317.13z"/>
	<path class="st15" d="M805.97,359.61c-3.75,3.54-7.72,6.44-10.9,10.04c-3.63,4.11-6.41,4.66-10.89,0.62
		c0.11-3.15,0.47-6.02,0.9-9.4c-10.16,2.35-19.01-1.11-26.74-8.85c-3.55-5.24-6.79-10.34-10.25-15.72
		c-0.98-4.15-1.73-8.01-2.59-12.42c-12.22-0.93-24.71-1.68-37.15-2.99c-2.3-0.24-4.36-2.72-6.68-4.52c0.12-5.5,3.49-7.21,7.94-7.15
		c5.81,0.07,11.64,0.28,17.41,0.86c7.21,0.73,14.37,1.89,20.28,2.7c5.21-4.04,9.39-8.04,14.29-10.76c2.27-1.26,6.23-0.77,8.84,0.32
		c1.54,0.64,2.87,4.13,2.59,6.1c-0.23,1.64-2.84,4.02-4.58,4.18c-5.13,0.48-7.76,3.23-9.26,8.04c-3.8,14.38,9.36,30.05,23.58,28.3
		c4.37-0.54,7.06,1.1,8.05,5.81c2.61-1.48,4.61-3.22,6.88-3.73c2.51-0.56,5.78-0.86,7.8,0.31
		C808.58,353.14,807.86,356.46,805.97,359.61z"/>
	<path class="st15" d="M235.95,333.31c-0.8-5.84,2.55-8.23,7.27-9.05c12.28-2.14,24.53-4.85,36.91-5.91
		c30.32-2.61,60.71-4.48,91.08-6.49c4.96-0.33,10.04-0.25,14.94,0.51c2.21,0.34,5.2,2.44,5.82,4.39c0.57,1.78-1.58,4.43-2.75,6.94
		c-0.97,0.3-1.72,0.35-2.84,0.49c-2.66,1.63-5.1,0.81-7.47,0.45c-3.73-0.57-7.46,0.43-11.54-0.42c-3.73-0.15-7.1-0.06-10.91,0.14
		c-1.83,0.78-3.31,0.63-5.15,0.55c-4.71,0.11-9.06,0.26-13.85,0.53c-1.23,0.44-2.04,0.56-3.2,0.48c-4,0.12-7.68,0.26-11.81,0.54
		c-0.88,0.29-1.34,0.38-2.16,0.42c-3.7,0.14-7.05,0.29-10.84,0.57c-0.88,0.29-1.33,0.39-2.15,0.45
		c-21.05,2.74-41.76,5.37-62.42,8.32C241.28,336.74,238.33,337,235.95,333.31z"/>
	<path class="st6" d="M367.05,324.36c6.01-0.37,12.06-0.34,18.54-0.19c0.34,0.43,0.36,0.85,0.16,1.06
		C382.99,328.05,369.99,327.71,367.05,324.36z"/>
	<path class="st6" d="M498.2,316.17c3.13-0.51,6.53-0.7,10.37-0.78C505.5,315.83,501.99,316.16,498.2,316.17z"/>
	<path class="st6" d="M585.14,315.88c2.65-0.37,5.45-0.41,8.59-0.25C591.14,315.95,588.22,316.08,585.14,315.88z"/>
	<path class="st6" d="M467.09,317.15c1.62-0.52,3.39-0.71,5.54-0.79C471.64,319.86,469.64,319.79,467.09,317.15z"/>
	<path class="st6" d="M351.16,325.16c1.23-0.49,2.68-0.69,4.49-0.79C354.47,324.79,352.92,325.12,351.16,325.16z"/>
	<path class="st6" d="M627.11,316.88c1.05-0.34,2.21-0.38,3.67-0.24C629.78,316.95,628.5,317.06,627.11,316.88z"/>
	<path class="st6" d="M334.12,326.15c0.65-0.44,1.46-0.62,2.59-0.69C336.11,325.84,335.19,326.12,334.12,326.15z"/>
	<path class="st6" d="M307.09,328.12c0.38-0.41,0.89-0.59,1.67-0.66C308.42,327.83,307.82,328.09,307.09,328.12z"/>
	<path class="st6" d="M320.07,327.09c0.39-0.4,0.91-0.57,1.68-0.62C321.41,326.83,320.81,327.08,320.07,327.09z"/>
	<path class="st6" d="M461.04,317.35c0.4-0.37,0.85-0.44,1.63-0.44c0.11,0.59-0.11,1.11-0.33,1.64
		C461.92,318.24,461.5,317.94,461.04,317.35z"/>
	<path class="st6" d="M652.07,317.86c0.47-0.3,1.01-0.36,1.78-0.24C653.43,317.91,652.79,318.01,652.07,317.86z"/>
	<path class="st6" d="M669.06,318.84c0.47-0.28,1.02-0.32,1.78-0.17C670.42,318.93,669.78,319.01,669.06,318.84z"/>
	<path class="st20" d="M655.4,600.69c-18.29-3.1-36-1.81-54.01,2.32c-65.55,3.59-130.76,2.69-195.95,2.39
		c-20.77-0.1-41.58-0.25-62.35-1c-10.3-0.37-20.6-0.69-30.91-0.81c-1.85-0.02-3.65-0.22-5.75-1.35
		c-8.99-8.69-17.56-17.15-26.26-25.9c26.77,0.36,53.67,1.01,80.57,1.66c13.95,0.34,27.9,0.92,41.86,0.96
		c44.98,0.12,89.96,0.15,134.94-0.01c20.95-0.07,41.9-0.48,62.85-1.04c14.25-0.38,28.5-1.1,42.73-1.99
		c18.34-1.15,36.67-2.42,54.97-4c20.26-1.75,40.48-3.96,60.72-5.85c6.1-0.57,12.24-0.76,18.36-1.06c7.29-0.36,14.58-0.67,22.32-0.98
		c-1.67,8.17-3.8,16.33-6.2,24.73c-6.03,2.97-12.33,2.21-18.34,2.6c-18.24,1.16-36.41,3.12-54.61,4.67
		c-14.73,1.25-29.45,2.58-44.2,3.54C669.37,600,662.61,600.83,655.4,600.69z"/>
	<path class="st21" d="M306.16,602.3c27.31,0.04,54.77,0.46,82.22,0.69c46.45,0.4,92.9,0.8,139.35,0.94
		c18.45,0.05,36.91-0.58,55.37-0.95c5.77-0.12,11.54-0.38,17.6-0.29c-4.26,1.84-8.92,3.14-13.34,5c-3.96,1.67-8.55,3.16-11.28,6.16
		c-7.12,7.83-16.04,7.21-24.98,6.68c-8.85-0.53-16.83,1.16-23.87,6.74c-0.97,0.77-2.29,1.3-3.52,1.52
		c-3.73,0.67-7.5,1.12-11.71,1.73c0.79-0.97,1.49-1.88,2.25-2.73c5.76-6.47,4.3-14.03-3.75-17.27c-10.54-4.25-21.14-3.6-30.53,2.74
		c-7.11,4.8-13.44,6.33-21.09,1.52c-6.3-3.96-13.47-3.2-20.39-1.65c-23.43,5.25-43.07,16.7-56.83,36.7
		c-3.77,5.48-5.66,12.26-8.55,18.8c-3.61-2.96-7.16-6.2-10.55-9.6C343.77,640.25,325.04,621.42,306.16,602.3z"/>
	<path class="st21" d="M655.35,601.09c0.64-0.79,1.58-1.93,2.59-2c11.9-0.79,23.83-1.2,35.72-2.15c13.01-1.04,25.99-2.58,38.98-3.84
		c7.57-0.74,15.14-1.53,22.73-2.03c12.23-0.8,24.48-1.39,37.2-2.06c-1.54,8.32-3.4,16.67-5.59,24.94
		c-5.2,19.6-10.55,39.17-15.97,59.14c-6-0.63-10.96,1.69-15.57,4.83c-11.32,7.72-20.65,17.4-27.25,29.43
		c-2.21,4.03-5.22,6.54-9.47,7.34c-5.55,1.04-11.18,1.91-16.8,2.18c-2.07,0.1-4.23-1.73-7.37-3.14c2.2-1.42,3.22-2.13,4.28-2.76
		c9.86-5.89,19.66-11.88,29.6-17.62c8.44-4.87,14.01-12.16,18.2-20.68c6.11-12.42,9.84-25.46,9.44-39.43
		c-0.16-5.5-1.24-10.73-6.96-13.37c-5.51-2.55-10.41-0.8-14.96,2.47c-9.61,6.89-16.59,16.12-21,26.83
		c-2.99,7.26-8.04,11.14-14.71,13.81c-3.32,1.33-6.75,2.36-10.31,3.59c0-8.69,1.13-16.78-0.24-24.43
		c-2.77-15.52-9.81-28.98-23.87-37.56C661.5,603.02,658.48,602.32,655.35,601.09z"/>
	<path class="st15" d="M797.09,316.34c-5.5,1.4-12.43-1.1-14.3-5.59c-0.85-2.04-0.6-5.51,0.67-7.14c1-1.29,4.51-1.4,6.59-0.85
		c2.28,0.6,4.3,2.44,6.25,3.97C799.73,309.4,800.49,312.55,797.09,316.34z"/>
	<path class="st22" d="M576.23,760.39c-5.63,2.4-5.52,7-5.15,12.16c-0.59,1.29-1.47,1.39-2.72,1.4c-1.23-0.41-2.18-0.71-3-1.23
		c-4.6-2.97-7.84-2.57-11.26,1.58c-8.52,10.33-13.77,8.09-21.17,4.32c-6.35-3.24-11.74-7.64-14.99-14.14
		c-4.87-9.74-0.58-18.61,10.08-20.75c7.27-1.46,13.18-5.11,18.31-10.27c3.14-3.15,11.27-2.51,16.71,1.36
		c0.94,0.67,1.73,1.54,2.57,2.34c4.17,3.94,7.72,4.1,12.39,0.64c8.69-6.44,17.91-8.92,28.51-4.72c9.58,3.79,17.41-2.56,16.3-13.25
		c-0.49-2.32,0.76-3.21,2.21-3.71c8.05-2.82,16.3-1.99,24.52-1.08c1.77,0.2,2.84,1.58,3.62,3.66c0.71,5.91,0.85,11.48,2.05,16.82
		c0.48,2.12,3.33,3.7,5.44,5.66c1.29,0.82,2.54,1.1,3.32,2.53c-1.15,0.98-2.35,1.94-3.68,2.19c-5.06,0.96-10.09,1.85-13.52,6.8
		c-0.63,1.05-0.81,1.84-0.58,3.01c3.19,5.48,4.8,5.9,10.16,3.77c2.25-0.89,4.8-1.47,7.19-1.4c1.48,0.05,3.73,1.31,4.15,2.54
		c0.46,1.35-0.47,3.5-1.4,4.89c-0.76,1.13-2.33,1.84-3.69,2.4c-10.26,4.26-24.54-1.44-29.36-11.38c-0.92-1.89-3.01-3.22-4.9-4.97
		c-0.85-0.36-1.36-0.43-2.12-0.08c-4.92,2.29-5.32,6.04-3.49,10.15c1.27,2.84,3.22,5.39,5.02,8.38c1.02,1.24,1.24,2.29,0.54,3.84
		c-7.91,2.8-16.19-1.27-20.64-9.31c-1.21-2.18-3.31-3.86-5.32-5.94c-0.82-0.37-1.33-0.48-2.1-0.2c-4.8,2.99-5.73,5.91-3.43,10.81
		c0.83,1.77,2,3.39,3.12,5.41c0.61,1.18,0.86,2.07,0.42,3.49c-4.39-0.42-9.03-0.5-12.7-2.42c-2.32-1.22-3.92-5.04-4.51-7.96
		c-0.64-3.16-1.19-5.74-4.79-7.13C577.51,760.19,577,760.1,576.23,760.39z"/>
	<path class="st12" d="M629.17,662.66c3.08,3.61,5.32,7.52,8.45,10.5c2.76,2.63,6.5,3.4,9.64-0.17c3.19-3.63,1.02-6.24-1.97-8.97
		c-1.3-1.69-2.21-3.23-3.4-4.91c-0.31-0.12-0.55-0.56-0.53-0.81c1.75-2.44,4.23-2.73,6.73-2.74c4.14-0.01,8.22,0.75,12.3,1.3
		c2.32,0.31,4.61,1.25,3.9,4.87c-7.08,3.59-13.5,7.19-15.22,15.88c-2.63,2.38-5.48,1.14-8.16,0.86c-8.84-0.95-17.65-1.53-26.91-0.21
		c-4.03-4.23-8.06-4.35-12.79-1.99c-3.65,1.81-7.65,2.93-11.86,4.38c-2.5-1.59-5.01-1.66-7.5-1.54
		c-11.96,0.56-23.99-0.59-35.85-0.06c-22.1,1-44.19,0.06-66.29,1c-16.02,0.68-32.17,0.86-48.28,0.39
		c-12.27-0.36-24.58-0.01-36.88,0.24c-2.03,0.04-3.83,1.07-6.25,1.53c-1.36-3.81-2.27-7.72-3.03-12c3.77-2.7,7.77-2.93,11.98-3.28
		c9.96-0.81,19.89-0.42,29.83-0.36c2.98,0.02,6.09-0.17,8.4,3.08c2.84,6.59,3.47,6.82,9.89,5.68c5.55-0.98,11.16-1.62,16.74-2.4
		c0.33-0.05,0.75,0.07,0.98-0.1c5.26-3.92,11.02-4.56,17.52-4.29c2.34,0.1,4.89-4.79,7.63-7.55c3.58-1.45,6.93-1.72,10.5-1.76
		c26.73-0.29,53.5,1.6,80.18-1.54c3.48-0.41,6.99-0.41,10.43,0.36c8.72,1.94,17.5,1.64,26.31,0.99
		C620.4,658.69,625,659.04,629.17,662.66z"/>
	<path class="st14" d="M388,682.59c2.26-1.39,4.63-3.31,7.09-3.44c7.97-0.41,15.97-0.15,23.96-0.15c12.23,0,24.46,0.1,36.69-0.02
		c27.16-0.27,54.33-0.7,81.49-0.96c13.06-0.13,26.12-0.02,39.18-0.02c3.57,0,7.15-0.09,10.71,0.1c0.64,0.03,1.23,1.2,1.86,2.22
		c-20.16,4.8-40.15,10.71-60.56,13.3c-25.15,3.19-50.62,4.2-76,5.04c-16.43,0.54-32.9-1.22-48.9-5.67
		C397.33,691.26,391.5,688.94,388,682.59z"/>
	<path class="st23" d="M629.57,662.34c-8.53-3.08-17.48-0.98-26.28-1.4c-4.93-0.23-9.83-1.49-14.75-1.5
		c-8.41-0.01-16.83,0.58-25.24,0.97c-1.81,0.08-3.6,0.56-5.41,0.56c-18.89,0.04-37.77,0.03-56.66,0.02c-3.93,0-7.86-0.04-12.25-0.11
		c3.63-1.95,7.76-3.75,11.78-5.78c2.09-1.06,4.64-2.06,5.86-3.85c4.65-6.85,10.56-10.64,19.1-10.53c2.54,0.03,5.69-1.14,7.56-2.85
		c6-5.5,12.76-6.63,20.36-5c1.3,0.28,2.89,1.13,3.86,0.68c8.48-3.98,15.17,0.76,22.46,3.89c15.81,6.8,32.2,7.19,48.8,3.08
		c2.72-0.67,5.49-1.16,8.77-1.59C632.94,645.83,627.69,652.54,629.57,662.34z"/>
	<path class="st11" d="M666.45,739.98c-0.59-3.14,0.08-6.35-0.73-9.12c-1.73-5.92-1.06-10.85,2.8-13.59
		c4.21-2.99,10.43-2.61,14.87,0.92c0.26,0.21,0.55,0.41,0.73,0.68c7.81,11.87,19.2,11.27,30.97,8.62
		c5.59-1.26,11.23-2.78,16.44-5.11c2.57-1.15,4.48-4.21,6.22-6.72c3.19-4.6,6.03-9.44,9.28-14.39c5.91-3.78,11.46-2.67,17.24,0.45
		c-2.34,12.15-7.62,22.98-15.53,31.7c-5.02,5.53-12.75,8.85-19.69,12.32c-5.3,2.65-11.16,4.42-16.95,5.83
		c-10.96,2.67-21.39-0.4-31.54-4.24c-1.89-0.72-3.69-2.38-4.9-4.06C673.39,740.12,670.71,738.97,666.45,739.98z"/>
	<path class="st14" d="M613.78,678.42c11.3-4.74,22.85-1.45,34.81-0.42c-0.06,6.1,0.45,12,4.41,17.01c1.21,1.53,2.62,3.51,4.29,3.94
		c2.26,0.58,6,0.78,7.03-0.51c1.31-1.64,1.55-5.5,0.48-7.43c-4.33-7.8-4.96-11.03-1.48-14.67c3.3-3.45,6.72-2.93,14.52,0.46
		c3.38,1.47,7.82,2.19,11.32,1.34c6.86-1.66,13.4-4.66,20.43-7.17c4.74-0.5,9.14-0.59,13.55-0.39c3.05,0.14,5.84,0.84,7.54,4.31
		c-2.24,2.72-4.31,5.49-7.06,7.2c-10.57,6.58-21.22,13.06-32.14,19.03c-2.96,1.62-6.96,1.41-10.49,1.92
		c-4.73,0.67-9.47,1.21-14.61,1.82c-3.18-1.34-6.17-1.34-9.16-1.35c-7.79-0.02-15.58,0.02-23.37-0.02
		c-3.16-0.02-6.32-0.08-9.46-2.13c4.27-7.74,4.15-8.09-3.73-12.8c-0.73-0.44-1.14-1.43-1.65-2.2
		C617.33,683.81,615.66,681.25,613.78,678.42z"/>
	<path class="st6" d="M664.48,662.13c-1.37-1.28-2.25-3.66-3.3-3.73c-6.27-0.43-12.58-0.33-19.34-0.38c1.21-3.24,2.32-7.03,4.7-9.69
		c4.61-5.16,6.91-11.48,4.57-15.54c-3.11-5.41-11.46-8.45-18.13-5.86c-12.36,4.8-25,5.15-37.78,2.92c-4.56-0.8-8.9-2.78-13.35-4.23
		c0.01-0.63,0.03-1.26,0.04-1.88c3.65-1.84,7.15-4.09,10.96-5.47c17.79-6.42,36.09-8.67,54.94-6.43c6.6,0.78,12.28,3.29,16.62,8.12
		c9.33,10.37,13.88,22.62,12.42,36.63c-0.17,1.65-2.82,3.54-4.73,4.37C669.94,661.9,667.32,661.76,664.48,662.13z"/>
	<path class="st6" d="M392.98,655.16c13.66-18.53,32.16-28.83,54.98-31.09c2.73-0.27,6.04,0.9,8.43,2.42
		c9.33,5.93,18.19,3.92,26.77-1.22c5.39-3.23,10.7-6.08,17.24-5.19c0.78,0.11,1.55,0.3,4.11,0.81c-4.15,2.89-6.88,5.49-10.13,6.91
		c-7.9,3.47-15.85,7.1-24.13,9.36c-11.52,3.14-20.12,9.93-27.86,18.91c-2.16-3.95-5.22-4.55-9.58-4.03
		c-8.56,1.02-17.24,0.57-25.86,1.23C402.28,653.62,398.06,656.14,392.98,655.16z"/>
	<path class="st18" d="M583.41,721.14c-1.33-1.07-2.11-2.8-3.2-3.01c-4.13-0.81-8.35-1.12-12.72-2.73
		c6.95-1.44,13.91-2.87,20.86-4.31c0.02-0.23,0.04-0.45,0.07-0.68c-4.6-0.47-9.21-1.28-13.82-1.34
		c-13.61-0.18-27.23,0.03-40.84-0.12c-3.88-0.04-7.76-0.81-11.7-1.61c12.2-2.45,24.57-4.05,36.69-6.75
		c15.52-3.45,30.84-7.79,46.35-11.77c1.05,2.34,2.35,5.25,3.71,8.3c-7.65,10.2-7.82,12.29-1.48,22.12c0.05,0.51-0.02,0.68-0.34,0.94
		C599,718.06,591.37,718.68,583.41,721.14z"/>
	<path class="st2" d="M392.39,655.07c12.38-4.08,24.89-4.13,37.42-4.11c1.94,0,3.88-0.62,5.83-0.89c4.04-0.56,7.04,0.18,6.44,5.74
		c-2.03,4.77-4.09,9.1-6.24,13.81c-3.39-0.29-6.72-1.57-10.02-1.5c-8.65,0.19-17.32-1.55-26.01,0.7c-4.3,1.11-8.99,0.75-13.94,1.03
		C387.66,664.97,389.89,660.12,392.39,655.07z"/>
	<path class="st23" d="M731.08,675.16c-3.5-3.54-7.83-3.25-12.17-3.19c-2.79,0.04-5.59-0.27-8.68-0.74
		c7.64-3.91,11.26-10.71,14.48-18.41c3.73-8.89,9.63-16.5,19.17-22.5C744.8,647.42,740.16,661.76,731.08,675.16z"/>
	<path class="st11" d="M623.81,701.23c12.36,0.12,24.45,0.36,36.54,0.86c1.86,0.08,3.68,1.32,5.58,2.41
		c-5.94,3.24-10.71,7.2-12.4,14.36c-2.73-2.52-5.84-3.23-9.52-2.9c-5.97,0.53-11.97,0.67-17.95,1.14c-1,0.08-1.94,1.03-3.09,1.95
		c-1.47-1.55-2.56-3.65-4.07-5.37c-4.75-5.39-4.77-5.53,1.19-9.44C621.33,703.41,622.4,702.37,623.81,701.23z"/>
	<path class="st1" d="M454.68,661.62c3.02-6.37,8.73-9.21,15.16-11.43c9.95-3.43,19.73-7.37,29.58-11.09
		c0.26,0.34,0.53,0.69,0.79,1.03c-1.62,1.24-3.06,3.17-4.88,3.61c-6.89,1.69-12.34,5.5-17.22,10.39c-0.69,0.69-1.39,1.6-2.25,1.85
		C468.94,657.98,461.97,659.84,454.68,661.62z"/>
	<path class="st12" d="M764.7,701.75c-5.64-0.03-11.12-0.38-17-0.71c5.22-5.24,10.83-10.48,17.02-16.26
		C768.47,691.46,765.64,696.43,764.7,701.75z"/>
	<path class="st16" d="M772.24,717.15c3.51,0.28,6.84,0.81,10.16,1.34c0.01,0.32,0.02,0.64,0.04,0.96
		c-3.59,0.51-7.19,1.02-11.22,1.52C771.21,719.78,771.63,718.59,772.24,717.15z"/>
	<path class="st18" d="M519.63,707.08c-0.59,3.06-2.02,4.31-4.63,1.03C516.38,707.5,517.82,707.26,519.63,707.08z"/>
	<path class="st11" d="M664.31,743.8c-1.21-0.48-2.2-1.19-3.26-2.2c1.32-0.73,2.71-1.17,4.45-1.67c0.35-0.07,0.52,0.09,0.61,0.18
		C665.64,741.31,665.09,742.44,664.31,743.8z"/>
	<path class="st6" d="M641.57,659.36c1.15,1,2.29,2.37,3.44,4.09C643.87,662.44,642.72,661.08,641.57,659.36z"/>
	<path class="st11" d="M568.25,774.19c0.56-0.56,1.35-0.87,2.47-1.19c0.51,0.56,0.68,1.13,0.85,1.7
		C570.53,774.61,569.51,774.52,568.25,774.19z"/>
	<path class="st11" d="M628.42,774.13c-0.38-0.98-0.42-2.02-0.48-3.45C629.01,771.37,632.01,772.01,628.42,774.13z"/>
	<path class="st18" d="M475.71,710.42c-0.63,0.36-1.57,0.61-2.66,0.58C473.73,710.59,474.56,710.46,475.71,710.42z"/>
	<path class="st18" d="M507.7,708.34c-0.61,0.38-1.54,0.68-2.63,0.71C505.73,708.6,506.56,708.43,507.7,708.34z"/>
	<path class="st11" d="M646.39,755.64c-0.21-0.6-0.28-1.56-0.09-2.59C646.55,753.75,646.53,754.52,646.39,755.64z"/>
	<path class="st11" d="M600.53,778.46c-0.4-0.83-0.46-1.74-0.5-3.09C600.31,776.08,600.59,777.24,600.53,778.46z"/>
	<path class="st11" d="M576.33,760.57c0.29-0.25,0.92-0.44,1.61-0.4C577.56,760.47,577.11,760.55,576.33,760.57z"/>
	<path class="st18" d="M494.75,709.4c-0.36,0.33-0.99,0.57-1.74,0.56C493.42,709.58,493.95,709.44,494.75,709.4z"/>
	<path class="st11" d="M600.33,758.55c0.29-0.25,0.92-0.43,1.61-0.38C601.56,758.47,601.11,758.55,600.33,758.55z"/>
	<path class="st11" d="M626.33,751.63c0.28-0.27,0.9-0.49,1.6-0.49C627.56,751.47,627.12,751.57,626.33,751.63z"/>
	<path class="st4" d="M378.37,690.34c-0.4-0.08-0.85-0.44-1.28-1.14C377.52,689.26,377.91,689.66,378.37,690.34z"/>
	<path class="st18" d="M607.26,719.75c0.05,0.17-0.07,0.52-0.36,0.69C606.74,720.28,607.09,719.92,607.26,719.75z"/>
	<path class="st16" d="M384.99,697.73c-0.23,0.19-0.5,0.05-0.84-0.4C384.38,697.1,384.67,697.22,384.99,697.73z"/>
	<path class="st16" d="M380.83,693.74c-0.27,0.13-0.5-0.07-0.73-0.58C380.4,692.97,380.65,693.16,380.83,693.74z"/>
	<path class="st4" d="M379.31,691.56c-0.25,0.08-0.6-0.1-0.94-0.59C378.65,690.87,378.93,691.09,379.31,691.56z"/>
	<path class="st23" d="M637.87,638.87c0.12-0.23,0.3-0.39,0.49-0.55c0.04,0.21,0.07,0.42-0.08,0.69
		C638.08,639.07,637.94,638.94,637.87,638.87z"/>
</g>
</svg>
