<?xml version="1.0" encoding="utf-8"?>
<!-- Generator: Adobe Adobe Illustrator 24.2.0, SVG Export Plug-In . SVG Version: 6.00 Build 0)  -->
<svg version="1.1" id="レイヤー_1" xmlns="http://www.w3.org/2000/svg" xmlns:xlink="http://www.w3.org/1999/xlink" x="0px"
	 y="0px" width="1000px" height="1000px" viewBox="0 0 1000 1000" style="enable-background:new 0 0 1000 1000;"
	 xml:space="preserve">
<style type="text/css">
	.st0{fill:#030201;}
	.st1{fill:#EAA320;}
	.st2{fill:#D28E3B;}
	.st3{fill:#ECA420;}
	.st4{fill:#EBA420;}
	.st5{fill:#040404;}
	.st6{fill:#030302;}
	.st7{fill:#CE8B3A;}
	.st8{fill:#D08D3A;}
	.st9{fill:#CF8C3A;}
	.st10{fill:#BA661D;}
	.st11{fill:#E39E1F;}
	.st12{fill:#C48538;}
	.st13{fill:#DB981E;}
	.st14{fill:#040301;}
	.st15{fill:#EAE3DD;}
	.st16{fill:#E53E07;}
	.st17{fill:#E53E08;}
	.st18{fill:#E53F09;}
</style>
<g>
	<path class="st0" d="M701.9,730.67c-12.42,9.5-24.7,19.19-37.3,28.45c-26.07,19.14-53.74,35.78-82.61,50.29
		c-40.88,20.54-81.26,19-119.07-6.82c-14.08-9.61-25.51-23.22-37.71-35.45c-13.87-13.91-27.23-28.32-40.87-42.46
		c-0.92-0.95-2.3-1.45-4.34-2.69c5.03,14.12,3.11,26.79-1.91,39.19c-5.08,12.56-12.92,23.09-25.09,29.36
		c-5.31,2.74-11.58,3.88-17.55,4.96c-2.59,0.47-4.16,0.72-4.98,3.46c-0.9,2.98-2.36,5.79-3.86,9.35c6.28-0.98,12.01-2.23,17.81-2.72
		c22.24-1.88,43.64,0.56,62.4,14.03c22.53,16.17,24.78,42.7,5.36,62.43c-13.79,14.02-31.23,20.49-50.21,23.38
		c-21.3,3.25-41.87,1-61.09-9.33c-9.12-4.9-16.74-11.48-21.08-21.96c-0.83-11.98,6.27-17.62,18.42-14.94
		c1.94,1.79,4.03,3.06,5.37,4.88c5.32,7.21,12.66,11.17,21.03,13.38c14.12,3.74,28.33,3.62,42.42-0.07
		c10.24-2.69,19.9-6.71,27.19-14.85c5.86-6.54,5.41-15.07-1.62-20.33c-4.04-3.02-8.8-5.32-13.55-7.13
		c-10.83-4.11-22.26-4.21-33.51-2.9c-15.68,1.83-30.16,6.68-40.78,19.52c-1.73,2.09-4.49,3.32-7.2,4.97
		c-6.29,1.11-11-0.84-14.25-5.74c-3.32-5-2.57-10.11,0.47-15.01c0.7-1.13,1.56-2.16,2.3-3.26c2.18-3.27,1.3-4.46-2.26-5.95
		c-4.49-1.89-8.73-4.48-12.84-7.16c-1.95-1.27-3.32-3.42-5.01-5.23c-0.46,0.62-0.75,0.85-0.81,1.13c-0.17,0.81-0.39,1.65-0.34,2.46
		c0.34,6.64-1.94,11.9-8.4,14.39c-6.69,2.57-11.69-0.53-16.49-5.14c-2.9-2.79-6.58-5.26-10.36-6.57
		c-10.15-3.51-19.88,1.85-20.51,10.95c-0.58,8.39,3.39,14.76,10.05,19.46c6.4,4.52,13.4,5.84,20.67,2.22
		c5.63-2.81,11.11-3.77,16.37,0.42c5.06,4.03,5.74,9.43,4.08,15.35c-7.38,10.6-18.49,13.01-30.19,12.71
		c-23.77-0.6-44.5-20.08-47.31-43.66c-2.47-20.81,10.89-39.58,31.36-44.04c0.79-0.17,1.58-0.31,2.85-0.56
		c-2.01-4.24-3.8-8.27-5.85-12.16c-0.38-0.73-1.8-1.24-2.76-1.28c-8.23-0.35-14.72-4.18-19.68-10.39
		c-9.91-12.42-14.18-26.93-12.19-42.5c1.8-14.03,7.84-25.88,24.81-29.22c-9.15-4.97-15.64-10.89-19.32-19.63
		c-4.09-9.73-4.34-19.45-0.35-29.09c1.4-3.39,0.79-5.55-1.12-8.5c-10.56-16.28-15.74-34.73-20.44-53.28
		c-1.46-5.77-2.14-11.78-2.73-17.73c-0.63-6.34,1.69-11.43,8.32-14.53c9.15-0.64,14.47,2.96,15.15,10.65
		c1.44,16.38,7.58,31.3,13.78,46.19c2.33,5.6,5.69,10.77,8.69,16.32c2.96-1.33,5.04-2.3,7.16-3.2c13-5.58,26.57-8.56,40.72-8.98
		c21.85-0.65,41.27,7.29,59.28,18.34c50.5,30.98,95.09,69.03,133.29,114.39c13.41,15.92,27.52,30.8,47.06,39.36
		c21.08,9.25,42.7,12.76,64.36,3.26c22.03-9.66,43.57-20.4,63.97-33.41c58.34-37.23,109.51-82.08,149.15-139.22
		c34.59-49.86,57.23-104.27,61.2-165.49c3.16-48.79-6.82-94.76-30.88-137.35c-33.4-59.11-83.98-98.89-144.74-126.93
		c-1.31-0.6-3.05-1.36-4.23-0.97c-6.52,2.16-11.74-0.78-16.87-3.98c-7.39-4.62-15.5-6.81-24.08-7.26c-1.31-0.07-3.45,1.09-3.93,2.22
		c-1.43,3.38-3.54,6.36-7.17,5.78c-3.09-0.49-5.93-2.81-8.78-4.48c-1.03-0.6-1.92-2.55-2.61-2.43c-4.52,0.81-9.54,1.06-13.3,3.32
		c-5.72,3.44-10.81,3.89-16.36,0.58c-5.28-3.16-10.37-6.67-15.78-9.59c-1.78-0.96-5.53-1.58-6.26-0.66
		c-5.12,6.42-11.51,12.26-12.32,21.17c-0.41,4.55-2.41,7.6-7.11,8.25c-4.34,0.6-7.7-2.01-9.19-6.7c-1.78-5.6,0.39-10.47,2.68-15.32
		c2.11-4.48,1.36-6.59-3.28-8.21c-6.59-2.3-13.34-4.22-19.81-6.83c-8.15-3.28-15.38-2.24-22.65,2.57
		c-8.49,5.62-17.69,8.25-27.92,4.67c-3.91-1.37-8.04-2.09-12.08-3.07c-5.81-1.4-7.71-0.21-9.27,5.59c4.61,0,9.27-0.18,13.91,0.05
		c5.54,0.28,9.52,3.68,10.83,8.78c1.26,4.93-0.83,9.91-5.75,12.64c-2.28,1.26-4.93,2.41-7.47,2.56c-8.55,0.49-17.27,1.96-25.47-2.81
		c-1.23,2.85-2.23,5.49-3.49,8.01c-2.33,4.64-6.48,6.44-10.72,4.82c-3.83-1.46-5.85-5.69-4.65-10.36c0.9-3.52,2.17-6.94,3.41-10.47
		c0.08,0,0.01,0.07-0.41,0.02c-13.67,8.71-28.25,11.84-44.1,10.36c-4.18-0.39-8.51,1.03-12.79,1.49
		c-16.67,1.79-26.93,15.74-41.38,21.73c-28.18,24.97-54.09,51.9-72.22,85.35c-4.99,9.21-9.11,18.9-13.89,28.9
		c10.98,1.11,18.1,6.21,22.18,14.6c10.84,22.28,12.55,45.63,6.15,69.46c-1.63,6.09-5.68,10.36-12.01,13.11
		c-3.04,1.32-5.72,6.01-6.47,9.6c-2.02,9.73-2.24,19.86-4.45,29.54c-2.57,11.22-7.96,20.65-21.69,21.2
		c-0.74,4.4-1.46,8.64-2.16,12.86c0.02-0.03,0.06-0.08-0.26,0.09c-3.79,13.53-10.16,25.56-17.31,37.22
		c-6.15,6.05-11.88,12.62-18.56,18c-7.49,6.02-16.51,8.73-26.26,6.97C104.87,565,95.66,554.4,93,538.35
		c-3.13-18.93,1.08-36.75,8.7-53.92c5.39-12.13,12.73-22.95,22.33-32.25c1.23-1.19,1.47-3.93,1.35-5.9
		c-0.28-4.35-1.33-8.64-1.6-12.99c-0.24-3.94,0.38-7.93,0.2-11.88c-3.02-65.36,15.96-122.98,60.06-171.91
		c16.47-18.28,33.59-35.63,56.26-46.38c11.65-5.52,23.46-10.25,36.51-11.18c1.53-0.11,2.97-1.24,4.49-1.83
		c4.27-1.67,8.8-2.86,12.78-5.06c6.57-3.63,14.11-5.04,18.8-12.58c17.51-28.15,38.98-52.73,67.84-69.99
		c2.27-1.36,4.67-2.63,7.17-3.46c4.04-1.34,7.71-0.46,10.01,3.35c2.26,3.75,1.61,7.43-1.5,10.44c-1.9,1.84-4.06,3.46-6.26,4.94
		c-19.54,13.09-36.39,29.09-51.11,47.37c-1.42,1.77-2.79,3.59-4.7,6.06c12.27,0.04,23.64,1.18,33.72-6.21
		c4.94-3.62,10.48-6.43,15.75-9.6c0.86-0.52,1.66-1.37,2.57-1.5c8.4-1.18,14.73-7.23,22.7-9.5c2.35-0.67,4.72-2.47,6.34-4.37
		c9.83-11.59,19.91-22.92,32.53-31.58c4.36-2.99,9.13-5.48,13.94-7.69c5.66-2.59,10.46-1.26,12.7,2.87
		c2.29,4.22,0.48,8.4-4.42,12.28c-10.54,8.34-20.88,16.94-31.25,25.51c-1.37,1.13-2.38,2.7-3.77,4.3c6.8,1.85,12.6,3.15,19.03-1.48
		c10.9-7.86,23.37-9.32,36.15-4.81c9.33,3.29,18.48,7.11,27.71,10.67c0.58,0.22,1.39,0.65,1.78,0.42c5.07-2.89,11.05-3.3,15.57-8.16
		c10.28-11.06,21.39-21.37,32.46-31.66c2.71-2.52,6.46-4.11,9.98-5.52c5.17-2.07,10.13-0.38,12.2,3.6
		c2.16,4.15,0.58,8.38-4.08,12.05c-7.84,6.16-15.57,12.46-23.28,18.78c-3.6,2.95-7.06,6.08-10.97,9.45
		c7.37,5.65,13.25,9.28,21.87,6.77c8.39-2.45,17.32-3.03,25.93-4.79c1.82-0.37,3.65-2,4.92-3.5c17.45-20.6,36.93-38.87,60.27-52.69
		c4.55-2.7,9.45-4.91,14.39-6.84c6.94-2.72,12.03-1.07,14.1,4c2,4.92-0.13,9.69-6.72,12.62c-23.15,10.28-41.45,26.98-59.42,44.16
		c-1.18,1.13-2.24,2.4-2.94,3.16c8.43,3.77,16.81,7.54,25.21,11.25c0.55,0.25,1.35,0.36,1.89,0.16c6.51-2.39,12.17,0.31,17.58,3.25
		c14.58,7.93,29.02,16.11,43.54,24.16c0.53,0.29,1.27,0.19,2.41,0.53c1.11,1.07,1.72,1.88,2.67,2.74c0.78,0.03,1.22,0.03,1.63,0.01
		c-0.02-0.02-0.08-0.06-0.07,0.3c16.3,13.27,32.6,26.18,49.04,39.37c30.09,29.25,53.66,62.64,69.05,101.44
		c24.7,62.26,25.36,125.53,6.56,189.3c-14.79,50.17-40.05,94.89-72.95,135.27c-12.8,15.71-27.07,30.22-40.98,45.41
		C720.21,713.71,711.06,722.19,701.9,730.67z M203.88,697.68c-0.11-0.04-0.23-0.08-0.34-0.13c0.16,0.14,0.32,0.28,0.89,1
		c5.47,0.94,8.39,4.45,9.33,9.66c0.82,4.59-1.89,9.21-6.4,12.05c-1.88,1.18-4.09,2.49-5.09,4.31c-3.03,5.52-1.32,16.61,2.93,21.84
		c3.75-21.03,11.38-39.66,30.69-51.5c-1.46-0.17-3.84-1.22-5.13-0.45C222.27,699.55,212.96,697.32,203.88,697.68z M256.17,797.27
		c0.1,0.03,0.2,0.07,0.29,0.1c-0.18-0.1-0.36-0.2-0.28-1.05c-8.52-22.51-14.57-45.57-14.71-71.23c-6.26,8.38-9.15,16.29-9.43,24.94
		C231.39,770.01,241,784.91,256.17,797.27z M123.76,500.59c-4.12,10.32-6.06,21.02-4.68,32.07c0.36,2.86,1.72,6.68,3.85,7.87
		c1.63,0.91,5.58-1.08,7.81-2.71c8.34-6.12,13.89-14.51,18.48-24.45c2.62-8.87,5.3-17.73,7.76-26.65c0.25-0.92-0.47-2.62-1.29-3.25
		c-4.7-3.62-9.56-7.03-14.69-10.74C133.45,480.64,127.64,489.56,123.76,500.59z M188.29,366.17c-8.16,7.15-13.8,16.12-19.11,26.11
		c-4.66,9.37-9.01,18.9-14.06,28.05c-4.6,8.34-2.32,15.66,2.07,22.91c1.45,2.4,3.48,4.45,5.09,6.77c1.41,2.03,3.44,4.12,3.71,6.36
		c0.61,5.15,4.23,6.66,8.1,8.21c6.58,2.64,7.27,2.21,8.01-4.69c0.25-2.31,0.72-4.61,0.86-6.92c0.85-13.66,4.43-26.42,12.86-38.14
		c6.71-2.41,8.9-7.82,8.83-14.25c-0.09-9.2-0.63-18.39-0.95-28.34C201.71,363.69,195.02,360.85,188.29,366.17z M282.23,789.17
		c3.43,6.86,7.38,13.28,14.31,17.23c12.18-15.62,16.81-38.07,11.87-57.31c-5.15-20.1-17.96-34.51-34.34-46.31
		c-2.54-1.83-5.52-3.62-7.05-6.17c-2.1-3.49-4.71-4.45-8.2-3.75c-5.85,1.19-11.65,2.64-16.84,3.84c1.49,1.25,4.02,2.7,5.57,4.86
		c1.63,2.26,3.18,2.66,5.8,2.46c7.55-0.55,12.6,4.47,12.6,12.15c0,3.16-0.31,6.33-0.22,9.48
		C266.39,747.82,272.84,768.49,282.23,789.17z M368.35,710.14c-7.05-5.91-14.09-11.81-21.45-17.98
		c-6.46,13.25-19.12,11.57-30.43,14.38c13.7,18.63,21.28,38.74,20.53,63.01c3.58-2.54,6.38-3.97,8.46-6.11
		c7.39-7.61,11.16-16.75,10.71-27.5c-0.66-15.66,3.74-19.8,19.05-18.08c0.12,0.01,0.25-0.14,1.02-0.61
		C373.7,714.95,371.29,712.78,368.35,710.14z M283.43,662.8c0-4.08,0-8.16,0-11.78c-16.37-8.64-33.29-10.88-51.74-5.15
		c2.24,5.33,4.1,10.46,6.51,15.32c4.52,9.11,4.63,8.45,14.52,7.92c10.64-0.57,21.35,0.11,32.22,0.25
		C284.65,668.07,284.16,665.85,283.43,662.8z M188.87,297.4c5.67-10.34,11.34-20.69,17.01-31.03
		c-27.37,27.56-44.28,60.49-50.96,98.82c1.29-0.64,2.28-1.55,3.18-2.55c3.56-3.96,6.69-8.43,10.75-11.78
		c3.95-3.27,5.74-6.49,6.1-11.82C175.93,324.33,182.49,311.23,188.87,297.4z M203.56,660.15c-0.94,9.33,4.47,14.86,12.88,13
		c-2.28-6.02-4.55-12.02-7.44-19.64C206.81,655.98,205.3,657.69,203.56,660.15z M323,680.42c1.69-0.49,3.39-0.98,6.37-1.85
		c-6.84-4.67-12.68-8.66-18.52-12.66c-0.33,0.33-0.66,0.66-0.99,0.99c2.41,3.93,4.6,8.02,7.36,11.69
		C318.16,679.83,320.53,679.99,323,680.42z"/>
	<path class="st1" d="M383.97,186.99c-1.1,3.47-2.37,6.89-3.27,10.41c-1.2,4.68,0.82,8.91,4.65,10.36c4.24,1.62,8.4-0.18,10.72-4.82
		c1.26-2.51,2.26-5.16,3.49-8.01c8.2,4.77,16.92,3.3,25.47,2.81c2.54-0.14,5.19-1.29,7.47-2.56c4.92-2.73,7.01-7.71,5.75-12.64
		c-1.31-5.1-5.28-8.51-10.83-8.78c-4.64-0.23-9.3-0.05-13.91-0.05c1.56-5.81,3.45-7,9.27-5.59c4.04,0.97,8.18,1.7,12.08,3.07
		c10.23,3.58,19.43,0.95,27.92-4.67c7.27-4.81,14.5-5.85,22.65-2.57c6.47,2.6,13.21,4.52,19.81,6.83c4.64,1.62,5.4,3.73,3.28,8.21
		c-2.29,4.85-4.46,9.72-2.68,15.32c1.49,4.69,4.85,7.3,9.19,6.7c4.7-0.65,6.7-3.7,7.11-8.25c0.8-8.91,7.2-14.76,12.32-21.17
		c0.73-0.92,4.48-0.3,6.26,0.66c5.41,2.92,10.5,6.43,15.78,9.59c5.54,3.32,10.63,2.86,16.36-0.58c3.76-2.26,8.78-2.51,13.3-3.32
		c0.69-0.12,1.58,1.83,2.61,2.43c2.85,1.68,5.69,3.99,8.78,4.48c3.64,0.58,5.74-2.4,7.17-5.78c0.48-1.13,2.61-2.29,3.93-2.22
		c8.58,0.46,16.69,2.65,24.08,7.26c5.12,3.2,10.34,6.13,16.87,3.98c1.18-0.39,2.92,0.37,4.23,0.97
		c60.76,28.04,111.34,67.82,144.74,126.93c24.06,42.59,34.05,88.57,30.88,137.35c-3.97,61.22-26.62,115.64-61.2,165.49
		c-39.64,57.14-90.81,102-149.15,139.22c-20.39,13.01-41.93,23.75-63.97,33.41c-21.66,9.5-43.28,5.98-64.36-3.26
		c-19.53-8.57-33.65-23.44-47.06-39.36c-38.2-45.36-82.79-83.41-133.29-114.39c-18.02-11.05-37.43-18.99-59.28-18.34
		c-14.14,0.42-27.72,3.4-40.72,8.98c-2.11,0.91-4.19,1.88-7.16,3.2c-2.99-5.56-6.35-10.72-8.69-16.32
		c-6.2-14.89-12.34-29.81-13.78-46.19c-0.68-7.69-6-11.29-14.89-10.92c-1.04-3.95-1.71-7.77-2.48-12
		c7.05-12.08,13.42-24.1,17.35-37.28c1.93,3.59,2.47,8.14,5.03,10.17c7.01,5.57,10.95,12.69,12.09,21.08
		c1.59,11.68,1.88,23.53,3.29,35.24c0.68,5.68,1.5,11.86,4.25,16.67c6.15,10.75,14.83,19.15,28.38,19.14
		c12.55-0.01,20.68-7.45,26.32-17.81c5.05-9.27,6.31-19.63,6.58-29.96c0.18-7.03-4.26-12.15-9.99-13.22
		c-6.25-1.16-11.94,1.86-14.5,8.74c-1.72,4.61-2,9.74-3.3,14.53c-1.04,3.82-2.67,7.47-4.11,11.4c-6.1-3.23-7.38-7.62-7.72-12.72
		c-0.54-8.13-1.13-16.27-2.13-24.36c-1.92-15.49-6.9-29.77-17.48-41.69c-9.49-10.71-19.68-9.84-26.6,2.37
		c0.72-4.24,1.43-8.49,2.18-12.89c13.73-0.55,19.13-9.98,21.69-21.2c2.21-9.68,2.43-19.8,4.45-29.54c0.75-3.6,3.43-8.28,6.47-9.6
		c6.33-2.75,10.37-7.02,12.01-13.11c6.4-23.83,4.69-47.18-6.15-69.46c-4.08-8.39-11.21-13.49-22.18-14.6
		c4.77-10,8.89-19.69,13.89-28.9c18.12-33.44,44.04-60.37,72.22-85.35c14.45-5.99,24.71-19.94,41.38-21.73
		c4.28-0.46,8.61-1.88,12.79-1.49c15.86,1.48,30.44-1.66,44.08-10.38C384.02,187.03,383.97,186.99,383.97,186.99z M751.26,278.25
		c-8.38-8.33-16.19-17.34-25.24-24.86c-29.28-24.33-62.87-39.2-100.53-45.75c-20.79-3.61-41.22-2.92-61.34,1.72
		c-20.24,4.66-38.58,14.48-55.9,25.91c-49.37,32.57-83.55,77.63-107.12,131.27c-3.44,7.83-6.43,15.86-9.63,23.79
		c-0.63-6.23-0.55-12.33,0.04-18.38c0.74-7.61-3.04-13.49-9.75-14.44c-6.28-0.89-11.69,3.7-12.77,11.19
		c-0.96,6.62-1.59,13.28-2.3,19.45c-2.76-6.71-5.31-13.93-8.63-20.76c-9.66-19.85-23.53-35.82-43.6-45.82
		c-26.77-13.34-56.15-3.7-69.67,22.91c-9.16,18.02-10.01,37.04-6.39,56.5c0.97,5.24,4.08,9.02,9.3,10.86
		c1.04,0.37,2.3,0.96,2.83,1.83c3.85,6.28,7.72,12.54,3.42,20.34c-1.67,3.03-2.69,6.45-3.73,9.78c-3.39,10.84-4.52,21.86-1.12,32.88
		c4.08,13.23,9.15,25.76,25.91,27.37c0.1,0.93,0.29,1.9,0.3,2.87c0.17,13.09,2.09,25.89,6.59,38.2
		c7.31,19.99,16.32,39.14,31.49,54.49c10.26,10.38,22.85,15.81,37.67,12.11c14.3-3.57,21.81-14.41,26.88-27.36
		c0.67-1.7,1.27-3.43,2.28-6.18c13.8,50.57,23.33,69.51,54.36,109.04c11.75,14.97,27.21,24.35,45.16,29.73
		c37.62,11.26,74.72,7.26,110.58-6.64c72.52-28.11,128.98-75.96,168.67-142.84c32.79-55.24,48.3-114.78,39.97-179.3
		C793.7,347.27,778.22,310.6,751.26,278.25z M410.03,290.56c16.38-22.55,35.53-42.34,58.44-58.33c5.31-3.71,11.02-6.85,16.46-10.38
		c5.21-3.38,7.58-8.79,6.41-14.07c-1.27-5.69-5.64-10.29-11.36-10.24c-3.77,0.03-7.91,1.35-11.23,3.24
		c-25.8,14.66-47.53,34.22-66.53,56.82c-19.32,22.98-35.44,47.91-44.23,76.98c-2.74,9.05,0.45,16.29,8.11,18.72
		c7.45,2.37,14.35-1.55,16.98-10.43C388.69,323.92,398.5,307.21,410.03,290.56z M386.04,675.45c13.24,20.83,29.83,38.73,48.17,55.12
		c8.45,7.55,18.01,13.14,28.6,16.93c7.39,2.65,13.89-1.77,13.53-8.88c-0.23-4.56-3.14-6.97-6.93-8.95
		c-6.46-3.38-13.51-6.17-19.01-10.77c-28.46-23.81-51.31-52.17-66.86-86.05c-2.97-6.47-4.97-13.39-7.42-20.09
		c-1.69-4.61-5.28-6.95-9.58-6.03c-4.56,0.98-7,4.04-6.67,8.59c0.27,3.77,0.99,7.62,2.21,11.19
		C367.91,643.59,375.74,659.73,386.04,675.45z M287.53,261.8c3.56-6.73,3.03-12.43-1.58-16.89c-4.58-4.43-11.35-4.93-17.44-0.84
		c-2.87,1.93-5.51,4.34-7.81,6.93c-18.37,20.61-33.45,43.52-46.66,67.69c-1.24,2.27-1.97,5-2.22,7.58
		c-0.69,6.96,2.94,12.35,8.87,13.8c6.11,1.5,11.3-1.48,14.35-7.96c1.83-3.9,3.64-7.89,6.05-11.44
		C255.02,300.16,268.84,279.52,287.53,261.8z M462.07,190.35c1.74,1.22,3.33,3.1,5.26,3.55c8.51,1.98,16.5,0.04,23.4-5.06
		c3.94-2.92,4.65-7.59,2.98-12.22c-1.68-4.67-5.35-7.63-10.17-7.44c-5.37,0.2-10.99,0.9-15.98,2.76
		C459.5,174.94,457.5,182.09,462.07,190.35z"/>
	<path class="st2" d="M729.98,704.97c13.6-15.06,27.87-29.57,40.67-45.28c32.91-40.37,58.16-85.09,72.95-135.27
		c18.8-63.77,18.15-127.04-6.56-189.3c-15.4-38.8-38.96-72.19-68.92-101.8c0.85-2.25,1.63-3.9,2.59-5.45
		c14.29-23.08,33.46-41.46,55.51-56.94c20.38-14.31,42.26-25.51,66.91-30.46c4.47-0.9,9.04-1.32,13.3-1.92
		c0.53-5.55,1.01-10.59,1.49-15.64c-0.01,32.31,0.02,64.62-0.03,96.94c-0.07,47.13-0.17,94.26-0.31,141.4
		c-0.29,101.28-0.6,202.55-0.92,303.83c-0.25,76.79-0.54,153.57-0.83,230.36c-0.01,1.66-0.23,3.31-0.64,4.77
		c-0.29-3.43-0.29-6.65-0.29-9.78c-22.95-2.2-39.5-7.65-56.09-15.54c-27.76-13.2-50.69-32.39-69.92-56.32
		c-20.61-25.64-34.73-54.42-42.93-86.16C733.64,723.35,731.96,714.12,729.98,704.97z"/>
	<path class="st3" d="M908.03,122.48c-0.57,5.49-1.05,10.54-1.58,16.08c-4.27,0.61-8.83,1.03-13.3,1.92
		c-24.66,4.95-46.54,16.15-66.91,30.46c-22.05,15.48-41.22,33.86-55.51,56.94c-0.96,1.55-1.75,3.21-2.75,5.17
		c-16.42-12.56-32.72-25.47-48.58-38.88c9.49,0.97,13.03-0.81,17.57-8.78c2.46-4.32,4.91-8.69,7.82-12.71
		c15.25-21.09,35.57-36.27,58.32-48.13c23.22-12.11,47.61-20.28,74.42-18.76c8.88,0.5,13.16-3.93,14.88-13.89
		c9.97,3.33,14.34,10.93,15.55,20.76C908.34,115.74,908.09,118.9,908.03,122.48z"/>
	<path class="st4" d="M729.67,705.1c2.29,9.02,3.96,18.25,6.3,27.3c8.2,31.74,22.32,60.52,42.93,86.16
		c19.23,23.93,42.16,43.11,69.92,56.32c16.59,7.89,33.14,13.35,56.09,15.54c0,3.12,0,6.35-0.03,10.04c-0.89,5.87-2.12,11.01-6.44,15
		c-6.95,6.43-14.84,8.25-23.91,5.87c-2.35-0.62-4.83-0.76-7.71-1.61c-1.42-8.12-4.64-11.88-11.97-13.61
		c-34.54-8.18-64.62-24.45-89.39-49.96c-24.23-24.95-39.79-54.3-43.58-89.31c-1.08-9.97-5.84-14.11-16.2-14.14
		c-1.24-7.05-2.48-14.1-3.75-21.59C711.06,722.19,720.21,713.71,729.67,705.1z"/>
	<path class="st5" d="M23.64,393.63c3.91-2.25,7.54-4.27,11.16-6.31c0.71-0.4,1.35-0.92,2.87-1.96c-2.47-0.63-4.22-1.06-5.96-1.52
		c-10.87-2.86-13.91-13.7-6.39-22.1c0.98-1.09,0.98-3.36,0.9-5.05c-0.25-4.91-1.55-9.91-0.96-14.69c0.59-4.83,4.5-7.65,9.53-8.08
		c5.03-0.44,9.32,1.63,10.82,6.31c2.24,6.99,3.42,14.31,5.05,21.5c-0.42,0.17-0.84,0.34-1.25,0.51c3.04,1.56,6.08,3.13,9.92,5.1
		c-0.45-5.28-0.81-9.71-1.19-14.13c-0.59-6.9,2.17-11.93,7.52-13.68c6.25-2.05,13.15,1.1,14.23,7.96
		c1.65,10.46,2.36,21.14,2.49,31.73c0.05,3.99,0.17,6.97,3.47,9.48c2.35,1.79,4.4,3.98,7.48,6.83c0-5.36-0.1-10.08,0.03-14.79
		c0.1-3.66,0.2-7.35,0.81-10.95c0.95-5.65,5.31-9.39,10.58-9.64c4.97-0.23,9.45,3.01,11.27,8.23c3.19,9.17,1.44,18.5,0.6,27.73
		c-0.77,8.44-2.32,16.8-3.26,25.23c-0.2,1.82,0.53,3.85,1.21,5.64c1.11,2.95,2.82,5.69,3.76,8.68c2.17,6.9-0.98,13.72-7.14,16.15
		c-6.14,2.42-12.52-0.15-16.02-6.47c-3.84-6.94-7.65-13.9-11.06-20.1c-8.15,4.05-15.35,7.99-22.86,11.19
		c-3.07,1.31-6.84,1.59-10.23,1.37c-5.68-0.37-9.64-4.71-10.08-10.01c-0.45-5.47,2.71-9.77,8.09-11.78
		c6.45-2.41,12.78-5.17,20.08-8.15c-3.81-3.58-6.68-6.28-9.31-8.74c-6.42,3.87-12.46,7.62-18.62,11.17
		c-2.13,1.23-4.48,2.24-6.85,2.89c-5.83,1.61-11.32-0.47-13.91-4.99C17.72,403.5,18.73,398.55,23.64,393.63z"/>
	<path class="st6" d="M705.34,752.92c10.71-0.19,15.47,3.95,16.55,13.92c3.79,35.01,19.36,64.37,43.58,89.31
		c24.77,25.5,54.85,41.78,89.39,49.96c7.32,1.73,10.54,5.49,11.57,13.54c-2.8,9.83-8.26,13.55-17.48,11.16
		c-68.59-17.78-118.58-57.36-143.99-124.78c-4.4-11.68-6.21-24.4-8.6-36.77C694.87,761.47,697.88,756.76,705.34,752.92z"/>
	<path class="st6" d="M892.25,91.56c-1.56,10.3-5.84,14.73-14.72,14.23c-26.82-1.52-51.21,6.65-74.42,18.76
		c-22.76,11.87-43.07,27.05-58.32,48.13c-2.91,4.02-5.36,8.39-7.82,12.71c-4.54,7.97-8.08,9.75-17.58,8.42
		c-0.44,0.15-0.38,0.18-0.36-0.14c-0.64-0.11-1.31,0.09-1.98,0.3c-0.61-0.82-1.22-1.63-1.95-2.74c-3.48-5.39-3.74-10.63-1.28-16.23
		c4.89-11.12,11.94-20.78,20.2-29.52c32.3-34.2,71.45-56.04,117.94-64c8.46-1.45,17.24-1.28,25.88-1.25
		C885.07,80.25,890.09,83.99,892.25,91.56z"/>
	<path class="st7" d="M260.55,869.17c1.34-6.09,0.66-11.49-4.4-15.52c-5.26-4.19-10.74-3.22-16.37-0.42
		c-7.27,3.62-14.26,2.3-20.67-2.22c-6.66-4.7-10.63-11.07-10.05-19.46c0.63-9.1,10.36-14.46,20.51-10.95
		c3.78,1.31,7.45,3.78,10.36,6.57c4.8,4.62,9.8,7.71,16.49,5.14c6.46-2.48,8.73-7.74,8.4-14.39c-0.04-0.81,0.17-1.65,0.34-2.46
		c0.06-0.28,0.35-0.5,0.81-1.13c1.69,1.81,3.06,3.96,5.01,5.23c4.1,2.67,8.34,5.27,12.84,7.16c3.56,1.49,4.44,2.68,2.26,5.95
		c-0.74,1.11-1.6,2.13-2.3,3.26c-3.04,4.91-3.79,10.01-0.47,15.01c3.25,4.9,7.96,6.85,14.26,6.12c0.44,0.87,0.45,1.38,0.45,1.89
		c-11.94-2.42-19.05,3.22-18.39,14.88C273.31,872.58,267.09,870.96,260.55,869.17z"/>
	<path class="st8" d="M298.21,859.22c-0.21-0.77-0.21-1.28-0.22-2.17c2.28-2.01,5.04-3.24,6.77-5.33
		c10.62-12.84,25.11-17.69,40.78-19.52c11.25-1.31,22.69-1.22,33.51,2.9c4.75,1.8,9.5,4.11,13.55,7.13
		c7.04,5.26,7.48,13.79,1.62,20.33c-7.29,8.14-16.95,12.17-27.19,14.85c-14.09,3.7-28.3,3.81-42.42,0.07
		c-8.37-2.22-15.71-6.17-21.03-13.38C302.24,862.28,300.16,861.01,298.21,859.22z"/>
	<path class="st9" d="M282.1,788.82c-9.25-20.33-15.71-41-16.35-63.16c-0.09-3.16,0.22-6.32,0.22-9.48c0-7.68-5.05-12.7-12.6-12.15
		c-2.62,0.19-4.17-0.2-5.8-2.46c-1.56-2.16-4.09-3.62-5.57-4.86c5.19-1.2,10.99-2.65,16.84-3.84c3.49-0.71,6.1,0.25,8.2,3.75
		c1.53,2.55,4.51,4.34,7.05,6.17c16.37,11.8,29.18,26.21,34.34,46.31c4.93,19.24,0.31,41.7-11.87,57.31
		C289.61,802.45,285.66,796.03,282.1,788.82z"/>
	<path class="st7" d="M368.62,710.38c2.67,2.4,5.08,4.57,7.62,6.86c-0.76,0.47-0.9,0.62-1.02,0.61
		c-15.31-1.72-19.71,2.43-19.05,18.08c0.45,10.75-3.32,19.89-10.71,27.5c-2.08,2.14-4.88,3.57-8.46,6.11
		c0.75-24.27-6.83-44.38-20.53-63.01c11.3-2.81,23.97-1.13,30.43-14.38C354.26,698.33,361.31,704.24,368.62,710.38z"/>
	<path class="st10" d="M195.23,415.17c-7.85,11.38-11.43,24.14-12.27,37.8c-0.14,2.32-0.62,4.61-0.86,6.92
		c-0.74,6.9-1.43,7.33-8.01,4.69c-3.86-1.55-7.48-3.06-8.1-8.21c-0.27-2.24-2.3-4.33-3.71-6.36c-1.61-2.32-3.63-4.37-5.09-6.77
		c-4.39-7.25-6.67-14.57-2.07-22.91c5.05-9.15,9.4-18.68,14.66-28.11c7.29,6.53,13.94,13.16,20.7,19.67
		C191.85,413.21,193.64,414.09,195.23,415.17z"/>
	<path class="st8" d="M195.52,415c-1.89-0.91-3.67-1.8-5.04-3.11c-6.76-6.52-13.41-13.15-20.43-19.87
		c4.44-9.73,10.08-18.7,18.94-25.94c5.36,2.25,10.02,4.58,14.68,6.92c0.35,9.2,0.89,18.39,0.98,27.59
		C204.71,407.01,202.53,412.42,195.52,415z"/>
	<path class="st7" d="M283.55,663.22c0.61,2.63,1.1,4.85,1.38,6.15c-10.87-0.14-21.58-0.82-32.22-0.25
		c-9.89,0.53-9.99,1.19-14.52-7.92c-2.41-4.86-4.27-9.99-6.51-15.32c18.45-5.73,35.37-3.49,51.74,5.15
		C283.43,654.65,283.43,658.72,283.55,663.22z"/>
	<path class="st11" d="M188.7,297.73c-6.21,13.5-12.77,26.6-13.76,41.3c-0.36,5.33-2.15,8.56-6.1,11.82
		c-4.06,3.36-7.19,7.82-10.75,11.78c-0.89,0.99-1.88,1.9-3.18,2.55c6.68-38.33,23.59-71.26,50.96-98.82
		C200.21,276.71,194.54,287.05,188.7,297.73z"/>
	<path class="st9" d="M124.16,499.95c3.48-10.4,9.3-19.31,16.84-27.23c5.12,3.71,9.99,7.12,14.69,10.74
		c0.82,0.63,1.54,2.33,1.29,3.25c-2.46,8.92-5.14,17.77-8.29,26.9C140.16,509.24,132.16,504.6,124.16,499.95z"/>
	<path class="st10" d="M123.96,500.27c8.2,4.32,16.2,8.97,24.54,13.66c-3.87,9.38-9.42,17.77-17.76,23.89
		c-2.23,1.64-6.19,3.63-7.81,2.71c-2.13-1.19-3.49-5.02-3.85-7.87C117.69,521.61,119.64,510.91,123.96,500.27z"/>
	<path class="st7" d="M255.99,797c-14.98-12.09-24.6-26.99-23.94-46.97c0.28-8.64,3.17-16.55,9.43-24.94
		c0.14,25.67,6.19,48.73,14.6,71.59C255.96,797.04,255.99,797,255.99,797z"/>
	<path class="st12" d="M203.99,698.02c8.97-0.69,18.28,1.53,26.76-3.54c1.28-0.77,3.66,0.29,5.13,0.45
		c-19.31,11.84-26.94,30.47-30.69,51.5c-4.25-5.23-5.95-16.32-2.93-21.84c1-1.83,3.21-3.13,5.09-4.31c4.51-2.84,7.23-7.46,6.4-12.05
		c-0.93-5.21-3.85-8.72-9.54-9.94C204,698,203.99,698.02,203.99,698.02z"/>
	<path class="st12" d="M203.67,659.77c1.62-2.08,3.13-3.79,5.33-6.26c2.89,7.63,5.16,13.63,7.44,19.64
		C208.04,675.02,202.63,669.48,203.67,659.77z"/>
	<path class="st12" d="M322.62,680.53c-2.09-0.54-4.46-0.7-5.4-1.94c-2.76-3.67-4.95-7.76-7.36-11.69c0.33-0.33,0.66-0.66,0.99-0.99
		c5.84,3.99,11.68,7.98,18.52,12.66C326.39,679.43,324.69,679.92,322.62,680.53z"/>
	<path class="st13" d="M203.68,372.62c-4.67-1.96-9.33-4.29-14.37-6.65C195.02,360.85,201.71,363.69,203.68,372.62z"/>
	<path class="st3" d="M717.39,194.01c0.33-0.24,1-0.45,1.66-0.31C718.61,194.04,718.17,194.04,717.39,194.01z"/>
	<path class="st12" d="M204.01,697.99c-0.15-0.15-0.31-0.29-0.47-0.43c0.11,0.04,0.23,0.08,0.39,0.29
		C203.99,698.02,204,698,204.01,697.99z"/>
	<path class="st1" d="M384.04,187.04c0.09-0.04,0.15-0.11,0.07-0.11C383.97,186.99,384.02,187.03,384.04,187.04z"/>
	<path class="st7" d="M255.94,797.06c0.16,0.12,0.34,0.22,0.52,0.31c-0.1-0.03-0.2-0.07-0.39-0.24
		C255.99,797,255.96,797.04,255.94,797.06z"/>
	<path class="st0" d="M751.5,278.51c26.72,32.09,42.2,68.76,47.48,109.65c8.32,64.52-7.19,124.06-39.97,179.3
		c-39.7,66.88-96.15,114.73-168.67,142.84c-35.86,13.9-72.96,17.9-110.58,6.64c-17.95-5.37-33.41-14.76-45.16-29.73
		c-31.03-39.53-40.56-58.47-54.36-109.04c-1.01,2.75-1.61,4.47-2.28,6.18c-5.07,12.95-12.58,23.78-26.88,27.36
		c-14.83,3.7-27.41-1.73-37.67-12.11c-15.18-15.35-24.19-34.5-31.49-54.49c-4.5-12.31-6.42-25.12-6.59-38.2
		c-0.01-0.97-0.2-1.94-0.3-2.87c-16.76-1.61-21.82-14.14-25.91-27.37c-3.4-11.02-2.27-22.04,1.12-32.88
		c1.04-3.33,2.06-6.75,3.73-9.78c4.3-7.8,0.42-14.05-3.42-20.34c-0.53-0.87-1.79-1.46-2.83-1.83c-5.22-1.84-8.32-5.62-9.3-10.86
		c-3.62-19.45-2.77-38.48,6.39-56.5c13.52-26.61,42.9-36.24,69.67-22.91c20.07,10,33.95,25.97,43.6,45.82
		c3.33,6.83,5.87,14.05,8.63,20.76c0.72-6.16,1.35-12.83,2.3-19.45c1.08-7.49,6.49-12.08,12.77-11.19
		c6.71,0.95,10.49,6.83,9.75,14.44c-0.59,6.05-0.67,12.15-0.04,18.38c3.2-7.94,6.19-15.96,9.63-23.79
		c23.58-53.64,57.75-98.7,107.12-131.27c17.31-11.42,35.66-21.24,55.9-25.91c20.13-4.64,40.56-5.33,61.34-1.72
		c37.66,6.55,71.25,21.42,100.53,45.75C735.07,260.91,742.88,269.92,751.5,278.51z M352.51,517.14
		c-3.51-15.28-9.11-29.67-17.17-42.58c-10.81,6.36-21.09,12.18-31.06,18.48c-2.01,1.27-3.91,4.34-4.04,6.68
		c-0.84,14.51,1.68,28.48,8.49,42.26c4.54,8.84,8.66,17.94,13.78,26.44c3.2,5.32,7.43,10.26,12.05,14.44
		c6.51,5.89,13.05,4.13,16.8-3.8c1.13-2.38,2.05-4.91,2.71-7.46C358.75,553.6,356.87,535.75,352.51,517.14z M333.99,378.27
		c-5.44-7.49-10.08-15.79-16.57-22.23c-5.35-5.31-12.44-9.6-19.54-12.26c-12.12-4.54-22.3-0.01-28.73,11.21
		c-5.76,10.04-6.68,21.07-5.93,32.35c0.06,0.96,0.41,2,0.92,2.81c4.58,7.31,9.22,14.58,14,22.59c3.48,7.05,3.99,14.4,1.88,21.88
		c-2.03,7.2-3.72,14.6-6.77,21.37c-3.04,6.74-1.57,12.52,0.92,18.66c1.26,3.11,2.98,4.19,6.09,2.47
		c8.28-4.59,16.98-8.57,24.79-13.85c10.59-7.16,20.72-15.05,30.59-23.18c3.16-2.6,6.37-6.69,7.02-10.52
		C345.68,411.85,342.72,394.86,333.99,378.27z M480.37,338.96c7.14,2.49,9.15,7.86,8.05,14.98c5.89,0,11.55-0.48,17.09,0.12
		c7,0.76,11.67,6.57,11.34,12.95c-0.35,6.71-5.68,11.69-12.91,12c-2.15,0.09-4.34-0.18-6.47,0.05c-4.93,0.54-9.85,1.28-15.62,2.06
		c10.14,7.73,7.01,19.19-3.72,22.55c-3.26,1.02-6.84,1.04-11.09,1.36c-7.26-1.67-14.51-3.37-21.79-4.99
		c-1.19-0.26-2.83-0.66-3.65-0.1c-5.21,3.58-10.26,7.4-15.89,11.54c8.99,2.83,12.02,2.95,24.2,1.29c6.22-0.85,10.97,1.58,13.09,6.69
		c2.15,5.2,0.42,10.95-4.78,14.37c-2.3,1.51-5.02,2.75-7.71,3.26c-13.59,2.56-26.47-0.62-38.8-6c-5.06-2.21-6.36,1.12-7.64,4.14
		c-1.3,3.07-3.51,6.69,1.9,8.89c10.29,4.18,20.54,7.33,31.93,5.08c13.3-2.63,19.01,6.57,15.38,15.93c-2.29,2.07-4.25,5.11-6.94,6.02
		c-5.53,1.89-11.44,2.64-17.98,3.62c-9.98-2.29-19.96-4.58-29.92-6.87c-4.55,24.32-2.79,69.35,3.92,99.98
		c7.28,33.18,19.6,64.24,39.89,91.63c8.16,11.02,16.7,22.04,29.48,28.62c24.07,12.39,49.51,12.9,75.51,9.32
		c27.53-3.79,52.32-15.45,75.95-28.85c56.88-32.25,100.03-78,128.21-137.22c22.59-47.48,32.04-97.3,22.47-149.52
		c-11.12-60.66-43.86-106.06-99.39-133.7c-28.36-14.12-58.28-22.17-90.66-18.16c-23.15,2.86-43.26,12.65-62.35,25
		c-36.16,23.4-63.37,55.11-84.4,92.39c-2.07,3.67-4.67,6.9-1.54,11.71c1.34,2.06,0.2,5.79,0.06,8.75c-0.08,1.71-0.42,3.4-0.67,5.36
		c10.63-4.89,20.68-9.52,29.31-13.49c0.23-4.78-0.41-9.3,0.82-13.22C467.22,339.67,473.32,338.51,480.37,338.96z M374.92,432.43
		c0.78-1.4,1.56-2.8,2.18-3.91c-2.35-3.36-4.39-6.27-6.28-8.97c-1.01,6.67-1.8,13.39-3.09,20.01c-1.15,5.91-3.73,10.97-9.96,13.3
		c-3.14,1.17-2.95,3.14-1.37,5.9c4.28,7.48,8.26,15.14,12.23,22.79c1.33,2.57,2.27,5.34,3.81,9.03c0.5-6.46,1-11.69,1.2-16.92
		c0.04-0.97-0.88-2.33-1.76-2.91c-7.41-4.93-9.27-9.34-6.17-17.72C368.24,446.22,371.55,439.7,374.92,432.43z"/>
	<path class="st0" d="M409.81,290.84c-11.32,16.37-21.12,33.08-26.73,52.01c-2.63,8.89-9.53,12.8-16.98,10.43
		c-7.66-2.44-10.85-9.67-8.11-18.72c8.8-29.07,24.92-54,44.23-76.98c19-22.6,40.73-42.16,66.53-56.82
		c3.32-1.89,7.46-3.21,11.23-3.24c5.72-0.04,10.09,4.55,11.36,10.24c1.18,5.27-1.2,10.69-6.41,14.07
		c-5.44,3.53-11.15,6.67-16.46,10.38C445.56,248.22,426.41,268,409.81,290.84z"/>
	<path class="st0" d="M180.89,505.15c6.89-12.19,17.08-13.05,26.58-2.34c10.57,11.93,15.56,26.2,17.48,41.69
		c1,8.08,1.59,16.23,2.13,24.36c0.34,5.1,1.62,9.49,7.72,12.72c1.44-3.92,3.06-7.58,4.11-11.4c1.31-4.79,1.59-9.92,3.3-14.53
		c2.56-6.88,8.25-9.9,14.5-8.74c5.73,1.07,10.18,6.19,9.99,13.22c-0.27,10.33-1.53,20.69-6.58,29.96
		c-5.64,10.36-13.76,17.8-26.32,17.81c-13.54,0.01-22.22-8.4-28.38-19.14c-2.75-4.81-3.57-10.99-4.25-16.67
		c-1.41-11.71-1.69-23.56-3.29-35.24c-1.14-8.38-5.09-15.5-12.09-21.08c-2.55-2.03-3.1-6.58-4.71-10.34
		C180.95,505.07,180.91,505.12,180.89,505.15z"/>
	<path class="st14" d="M385.86,675.14c-10.12-15.41-17.95-31.55-23.78-48.63c-1.22-3.57-1.94-7.42-2.21-11.19
		c-0.33-4.55,2.11-7.61,6.67-8.59c4.29-0.92,7.89,1.42,9.58,6.03c2.45,6.71,4.45,13.62,7.42,20.09
		c15.56,33.88,38.41,62.24,66.86,86.05c5.5,4.6,12.55,7.4,19.01,10.77c3.79,1.98,6.7,4.38,6.93,8.95
		c0.36,7.11-6.14,11.53-13.53,8.88c-10.59-3.8-20.15-9.39-28.6-16.93C415.87,714.18,399.28,696.28,385.86,675.14z"/>
	<path class="st0" d="M287.3,262.09c-18.46,17.43-32.28,38.06-46.22,58.58c-2.41,3.55-4.21,7.54-6.05,11.44
		c-3.05,6.48-8.24,9.46-14.35,7.96c-5.92-1.45-9.56-6.84-8.87-13.8c0.26-2.58,0.99-5.31,2.22-7.58
		c13.2-24.17,28.28-47.08,46.66-67.69c2.3-2.59,4.95-5,7.81-6.93c6.09-4.09,12.86-3.59,17.44,0.84
		C290.56,249.37,291.09,255.07,287.3,262.09z"/>
	<path class="st14" d="M461.84,190.05c-4.34-7.96-2.35-15.11,5.71-18.12c4.99-1.86,10.6-2.56,15.98-2.76
		c4.82-0.18,8.49,2.78,10.17,7.44c1.67,4.63,0.97,9.3-2.98,12.22c-6.89,5.11-14.89,7.05-23.4,5.06
		C465.4,193.45,463.82,191.57,461.84,190.05z"/>
	<path class="st15" d="M453.87,464.73c3.06-8.98-2.65-18.17-15.96-15.55c-11.39,2.25-21.64-0.91-31.93-5.08
		c-5.41-2.2-3.2-5.82-1.9-8.89c1.27-3.01,2.58-6.34,7.64-4.14c12.33,5.38,25.21,8.56,38.8,6c2.69-0.51,5.41-1.75,7.71-3.26
		c5.2-3.42,6.93-9.16,4.78-14.37c-2.11-5.11-6.87-7.54-13.09-6.69c-12.18,1.66-15.21,1.54-24.2-1.29
		c5.63-4.14,10.67-7.96,15.89-11.54c0.82-0.56,2.46-0.16,3.65,0.1c7.27,1.61,14.53,3.31,22.27,5.39
		c10.13,17.88,24.89,25.89,44.72,23.66c6.72-0.75,13.64-1.96,19.87-4.45c36.69-14.64,63.76-40.45,83.68-74.06
		c8.16-13.76,13.58-28.57,13.13-44.94c-0.61-22.1-15.75-38.51-37.56-40.94c-10.86-1.21-21.3,0.72-31.29,4.71
		c-34.69,13.85-60.47,38.15-80.4,69.19c-6.37-0.11-12.47,1.05-14.61,7.87c-1.24,3.93-0.59,8.44-0.82,13.22
		c-8.63,3.97-18.69,8.6-29.31,13.49c0.26-1.96,0.59-3.65,0.67-5.36c0.14-2.96,1.29-6.69-0.06-8.75c-3.13-4.82-0.53-8.05,1.54-11.71
		c21.03-37.28,48.24-68.99,84.4-92.39c19.09-12.36,39.2-22.14,62.35-25c32.38-4.01,62.3,4.04,90.66,18.16
		c55.53,27.65,88.27,73.04,99.39,133.7c9.57,52.22,0.13,102.04-22.47,149.52c-28.19,59.23-71.33,104.97-128.21,137.22
		c-23.64,13.4-48.42,25.07-75.95,28.85c-26,3.58-51.44,3.06-75.51-9.32c-12.78-6.58-21.32-17.6-29.48-28.62
		c-20.29-27.4-32.62-58.45-39.89-91.63c-6.72-30.63-8.48-75.65-3.92-99.98c9.96,2.29,19.94,4.58,30.14,7.28
		c-10.35,12.33-14.44,25.94-9.93,41.5c4.4,15.21,20.07,24.96,34.18,21.56c16.46-3.97,26.9-14.25,30.57-30.69
		C488.59,484.33,474.44,465.24,453.87,464.73z M714.11,433.63c16.86-14.58,23.15-36.7,16.19-56.92
		c-7.27-21.13-25.58-34.99-47.54-35.98c-29.53-1.33-53.18,21.13-55.76,52.42c-0.58,7.06-2.09,14.21-4.31,20.94
		c-5.26,15.96-24.01,25.41-40.31,21.21c-4.95-1.28-10.09-1.91-15.19-2.54c-37.84-4.75-71.34,30.3-65.41,69.17
		c6.8,44.6,58.1,67.08,95.03,41.17c18.7-13.12,26.69-31.66,26.38-54.15c-0.32-22.8,11.84-38.14,34.27-42.21
		c6.63-1.2,13.6-0.87,20.39-0.69C691.28,446.4,703.03,442.19,714.11,433.63z M571.48,652.27c5.59,0.39,11.44,2.03,16.73,0.96
		c26.77-5.41,46.61-21.28,61.66-43.4c3.38-4.97,5.7-11,7.15-16.88c4.95-20-9.27-37.98-29.85-37.95c-5.09,0.01-10.43,0.65-15.22,2.29
		c-24.64,8.43-43.73,24.04-56.35,46.79C544.68,623.79,551.29,643.53,571.48,652.27z M688.14,470.68c-0.69,0.94-1.39,1.87-2.06,2.82
		c-10.63,15.31-19.25,31.51-21.68,50.33c-2.03,15.78,8.01,33.52,28.18,29.66c5.48-1.05,11.34-3.6,15.53-7.21
		c20.76-17.82,33.85-40.45,38.47-67.45c1.9-11.14-1.26-21.51-11.43-27.89c-10.14-6.35-20.42-4.07-29.34,2.68
		C699.52,458.39,694.29,464.56,688.14,470.68z M523.95,650.5c-0.61-18.21-15.76-29.57-31.84-23.9
		c-14.55,5.13-23.17,22.91-18.21,37.53c4.78,14.06,20.55,20.5,33.65,13.5C517.94,672.07,523.11,663.03,523.95,650.5z M441.23,589.48
		c7.94,4.28,15.74,3.98,22.95-1.39c6.64-4.95,9.64-11.84,8.28-20.1c-1.66-10.06-9.19-17.09-18.68-17.98
		c-9.56-0.9-18.66,4.87-21.91,13.88C428.45,573.39,431.7,582.79,441.23,589.48z M443.42,617.95c0.48,2.91,0.47,6.02,1.54,8.7
		c3.67,9.2,15.06,13.07,23.77,8.37c8.64-4.67,11.59-15.72,6.39-23.99c-4.05-6.45-9.93-9.06-17.4-8.08
		C450.77,603.87,445.63,609.12,443.42,617.95z"/>
	<path class="st16" d="M480.03,338.79c19.59-31.22,45.37-55.51,80.05-69.36c10-3.99,20.43-5.92,31.29-4.71
		c21.81,2.43,36.95,18.84,37.56,40.94c0.45,16.37-4.97,31.17-13.13,44.94c-19.92,33.61-46.99,59.41-83.68,74.06
		c-6.23,2.49-13.15,3.69-19.87,4.45c-19.83,2.23-34.6-5.78-44.32-23.58c3.35-0.81,6.93-0.82,10.2-1.85
		c10.72-3.36,13.85-14.82,3.72-22.55c5.77-0.78,10.68-1.52,15.62-2.06c2.13-0.23,4.32,0.04,6.47-0.05c7.24-0.31,12.56-5.29,12.91-12
		c0.33-6.37-4.34-12.19-11.34-12.95c-5.54-0.6-11.2-0.12-17.09-0.12C489.52,346.82,487.51,341.45,480.03,338.79z"/>
	<path class="st10" d="M334.05,378.99c8.67,15.88,11.63,32.87,8.6,50.59c-0.65,3.84-3.86,7.92-7.02,10.52
		c-9.87,8.13-20,16.02-30.59,23.18c-7.81,5.28-16.51,9.26-24.79,13.85c-3.11,1.72-4.83,0.64-6.09-2.47
		c-2.5-6.14-3.96-11.92-0.92-18.66c3.05-6.77,4.74-14.18,6.77-21.37c2.11-7.47,1.6-14.83-1.64-22.38
		C297.09,400.82,315.57,389.9,334.05,378.99z"/>
	<path class="st17" d="M453.58,464.92c20.86,0.32,35.01,19.41,29.83,42.63c-3.67,16.44-14.1,26.72-30.57,30.69
		c-14.11,3.4-29.77-6.35-34.18-21.56c-4.51-15.57-0.42-29.17,10.33-41.38c5.92-1.52,11.83-2.27,17.36-4.15
		C449.04,470.22,451,467.19,453.58,464.92z"/>
	<path class="st8" d="M334.02,378.63c-18.45,11.27-36.93,22.19-55.73,33.25c-4.94-7.14-9.58-14.41-14.16-21.72
		c-0.51-0.82-0.85-1.85-0.92-2.81c-0.75-11.28,0.16-22.3,5.93-32.35c6.44-11.22,16.61-15.75,28.73-11.21
		c7.1,2.66,14.19,6.95,19.54,12.26C323.9,362.49,328.55,370.78,334.02,378.63z"/>
	<path class="st8" d="M308.56,541.28c-6.64-13.08-9.16-27.04-8.32-41.55c0.14-2.34,2.03-5.41,4.04-6.68
		c9.97-6.3,20.24-12.11,31.06-18.48c8.05,12.91,13.66,27.3,16.79,42.98c-3.4,1.7-6.56,2.73-9.42,4.32
		C331.28,528.25,319.94,534.79,308.56,541.28z"/>
	<path class="st10" d="M308.65,541.63c11.29-6.84,22.63-13.38,34.07-19.76c2.86-1.59,6.02-2.63,9.47-3.91
		c4.68,17.78,6.56,35.63,1.89,53.64c-0.66,2.55-1.59,5.07-2.71,7.46c-3.75,7.93-10.29,9.69-16.8,3.8
		c-4.62-4.18-8.85-9.12-12.05-14.44C317.39,559.93,313.27,550.83,308.65,541.63z"/>
	<path class="st13" d="M374.71,432.74c-3.16,6.96-6.47,13.49-9,20.3c-3.1,8.38-1.25,12.79,6.17,17.72c0.88,0.58,1.8,1.95,1.76,2.91
		c-0.21,5.24-0.71,10.46-1.2,16.92c-1.54-3.69-2.47-6.47-3.81-9.03c-3.97-7.65-7.95-15.31-12.23-22.79
		c-1.58-2.77-1.77-4.73,1.37-5.9c6.23-2.33,8.81-7.39,9.96-13.3c1.29-6.62,2.08-13.34,3.09-20.01c1.89,2.7,3.93,5.61,6.28,8.97
		C376.48,429.63,375.7,431.03,374.71,432.74z"/>
	<path class="st16" d="M713.83,433.86c-10.79,8.33-22.55,12.54-35.96,12.19c-6.8-0.18-13.77-0.51-20.39,0.69
		c-22.42,4.07-34.59,19.4-34.27,42.21c0.32,22.5-7.68,41.03-26.38,54.15c-36.93,25.91-88.23,3.43-95.03-41.17
		c-5.93-38.87,27.57-73.92,65.41-69.17c5.09,0.64,10.23,1.27,15.19,2.54c16.3,4.2,35.04-5.25,40.31-21.21
		c2.22-6.73,3.73-13.88,4.31-20.94c2.59-31.29,26.24-53.75,55.76-52.42c21.96,0.99,40.27,14.85,47.54,35.98
		C737.26,396.94,730.97,419.05,713.83,433.86z"/>
	<path class="st17" d="M571.11,652.14c-19.82-8.61-26.43-28.36-15.49-48.07c12.63-22.75,31.71-38.36,56.35-46.79
		c4.79-1.64,10.13-2.28,15.22-2.29c20.58-0.03,34.79,17.95,29.85,37.95c-1.45,5.88-3.77,11.91-7.15,16.88
		c-15.05,22.12-34.89,37.99-61.66,43.4C582.92,654.3,577.08,652.66,571.11,652.14z"/>
	<path class="st17" d="M688.36,470.39c5.93-5.83,11.15-12.01,17.45-16.77c8.92-6.76,19.21-9.04,29.34-2.68
		c10.17,6.38,13.34,16.75,11.43,27.89c-4.62,27.01-17.71,49.63-38.47,67.45c-4.19,3.6-10.06,6.16-15.53,7.21
		c-20.18,3.86-30.22-13.88-28.18-29.66c2.43-18.82,11.05-35.02,21.68-50.33C686.75,472.54,687.45,471.62,688.36,470.39z"/>
	<path class="st18" d="M523.94,650.94c-0.83,12.09-6,21.13-16.39,26.69c-13.1,7-28.87,0.57-33.65-13.5
		c-4.97-14.63,3.66-32.4,18.21-37.53C508.19,620.92,523.33,632.29,523.94,650.94z"/>
	<path class="st18" d="M440.91,589.29c-9.21-6.49-12.46-15.89-9.04-25.39c3.25-9.01,12.35-14.78,21.91-13.88
		c9.49,0.89,17.02,7.91,18.68,17.98c1.36,8.26-1.64,15.15-8.28,20.1C456.97,593.47,449.17,593.77,440.91,589.29z"/>
	<path class="st18" d="M443.51,617.57c2.13-8.45,7.26-13.7,14.21-14.61c7.47-0.98,13.35,1.63,17.4,8.08
		c5.2,8.27,2.26,19.33-6.39,23.99c-8.71,4.7-20.1,0.83-23.77-8.37C443.89,623.98,443.9,620.87,443.51,617.57z"/>
</g>
</svg>
