<?xml version="1.0" encoding="utf-8"?>
<!-- Generator: Adobe Adobe Illustrator 24.2.0, SVG Export Plug-In . SVG Version: 6.00 Build 0)  -->
<svg version="1.1" id="レイヤー_1" xmlns="http://www.w3.org/2000/svg" xmlns:xlink="http://www.w3.org/1999/xlink" x="0px"
	 y="0px" width="1000px" height="1000px" viewBox="0 0 1000 1000" style="enable-background:new 0 0 1000 1000;"
	 xml:space="preserve">
<style type="text/css">
	.st0{fill:#040303;}
	.st1{fill:#060505;}
	.st2{fill:#050505;}
	.st3{fill:#D8C298;}
	.st4{fill:#914701;}
	.st5{fill:#EDECE7;}
	.st6{fill:#DAC49A;}
	.st7{fill:#7C4F1E;}
	.st8{fill:#B07B00;}
	.st9{fill:#5C290C;}
	.st10{fill:#EFEEE9;}
</style>
<g>
	<path class="st0" d="M520.6,456.24c5.3-0.03,9.91,1.42,14.48,2.94c15.94,5.31,31.52,11.55,46.82,18.47
		c5,2.26,10.37,4.24,10.74,11.1c0.04,0.7,0.86,1.39,1.38,2.03c12.76,16.05,21.68,34.19,29.01,53.21c0.47,1.22,1.31,2.29,1.85,3.49
		c1.23,2.74,1.15,5.93-1.56,7.05c-4.85,2.01-2.89,4.28-1.39,7.26c5.09,10.09,10.24,20.16,13.38,31.1c1.95,6.81,1.57,13.4-2.3,19.49
		c-0.88,1.39-0.36,2.51-0.18,3.78c1.06,7.77,2.1,15.53,0.26,23.34c-0.99,4.2-2.85,7.84-6.54,10.25c-2.64,1.73-5.41,1.84-7.75-0.52
		c-2.16-2.18-2.33-4.88-0.66-7.33c6.71-9.87,3.77-20.31,1.04-30.27c-0.77-2.81-2.7-7.27-7.27-8.47c-2.39-0.63-3.08-3.4-3.42-5.74
		c-1.94-13.49-5.2-26.79-5.95-40.45c-0.06-1.1,0.25-1.93-1.3-1.85c-5.61,0.29-6.86-3.68-7.69-7.99c-3-15.52-6.3-30.96-10.44-46.22
		c-0.82-3.03-2.14-4.48-5.29-4.81c-4.44-0.46-8.83-1.36-13.66-2.13c1.19,4.28,3.47,8.09,1.23,12.22c-0.37,0.68-0.24,1.25,0.26,1.79
		c7.44,8.09,8.04,18.38,8.77,28.46c0.79,10.99,0.84,22.04-4.82,32.1c-0.86,1.53-0.03,2.47,0.36,3.68c6.77,20.97,4.53,40.99-6.54,60
		c-1.02,1.76-1.6,3.08-1.08,5.4c5.22,23.3,4.9,45.95-8.97,66.7c-0.97,1.46-0.85,2.48-0.29,4.03c5.54,15.37-0.52,38.6-12.96,49.53
		c-1.52,1.33-2.15,2.6-2.32,4.59c-0.23,2.61-0.64,5.4-1.78,7.72c-7.23,14.66-17.64,26.55-31.85,34.81
		c-3.79,2.2-8.23,2.23-11.96,0.11c-14.6-8.31-25.93-20.12-32.1-35.65c-2.57-6.47-5.74-11.92-9.52-17.64
		c-8.81-13.32-12.84-28.1-7.34-44.07c0.55-1.6,0.03-2.42-0.7-3.53c-13.68-20.64-13.96-43.15-8.99-66.29
		c0.46-2.16,0.4-3.55-0.72-5.44c-11.36-19.1-13.56-39.28-6.68-60.42c0.41-1.25,0.98-2.17,0.21-3.67
		c-6.73-13.15-5.7-27.13-3.76-41.05c0.96-6.88,2.26-13.87,7.54-19.15c0.68-0.68,0.89-1.26,0.44-2.16
		c-2.05-4.07-0.05-7.77,1.39-12.07c-5.5,0.89-10.68,1.73-15.87,2.56c-2.34,0.37-2.54,2.32-3.02,4.06
		c-4.04,14.6-7.28,29.37-10.13,44.25c-0.91,4.76-1.05,10.51-8.31,10.3c-1.69-0.05-1.03,1.06-1.1,1.99
		c-0.98,13.8-4.02,27.3-6.17,40.93c-0.38,2.42-1.45,4.51-3.8,5.52c-4.27,1.84-6,5.91-7.31,9.61c-2.11,5.96-2.37,12.39-2.05,18.77
		c0.17,3.4,1.03,6.5,3.2,9.26c2.1,2.67,2.27,5.66-0.31,8.11c-2.78,2.65-5.76,1.94-8.56-0.25c-3.96-3.1-5.47-7.48-6.1-12.17
		c-0.42-3.12-0.91-6.42-0.33-9.45c1.56-8.25,0.41-16.03-2.15-23.91c-1.49-4.57,0.17-9.22,1.66-13.66
		c3.87-11.53,9.57-22.25,14.95-33.11c-6.75-3.12-6.6-3.87-3.85-11.98c4.36-12.85,10.88-24.6,17.3-36.43
		c3.26-6.01,6.97-11.73,11.45-16.93c0.65-0.75,1.67-1.54,1.74-2.38c0.65-7.68,6.85-9.65,12.43-12.08
		c16.45-7.19,33-14.12,50.26-19.23c2.74-0.81,5.47-1.45,8.74-1.29c4.38-0.24,8.32-0.9,12.31-0.73c4.8,0.21,7.69,2.48,8.19,6.37
		c0.55,4.33-1.94,7.91-6.96,8.76c-6.27,1.07-12.36,2.4-17.99,5.53c-2.91,1.62-5.82,3.2-8.73,5.51c-3.03,1.8-5.24,3.96-7.6,6.5
		c-1.85,1.74-3.27,3.36-4.58,5.57c-0.83,1.1-1.42,1.91-1.89,2.79c-1.97,3.69-1.54,5.07,2.55,6.12c7.58,1.95,15.38,2.71,23.11,3.81
		c8.66,1.23,17.29-0.57,25.83,0.11c13.23,1.04,26.2-0.07,39.18-2.21c1.97-0.33,3.94-0.68,5.88-1.12c6.71-1.52,7.17-2.65,3.29-8.87
		c-1.44-2.11-2.59-3.97-4.51-5.68c-2.41-2.46-4.44-4.81-7.48-6.59c-7.88-5.85-16.04-10.1-25.61-11.09c-1.5-0.16-2.92-0.57-4.29-1.23
		c-3.43-1.66-4.93-4.45-4.34-8.13c0.6-3.75,3.08-5.71,6.83-6.11C511.95,455.33,516.07,456.38,520.6,456.24z"/>
	<path class="st1" d="M557.66,379.48c1.7-4.71,5.54-5.61,9.28-6.47c15.55-3.57,31.16-6.89,46.68-10.6
		c43.67-10.44,86.21-24.43,128.48-39.55c29.62-10.59,60.28-17.76,91.84-20.36c19.42-1.6,38.53,0.8,57.66,3.68
		c20.57,3.09,40.91,7.21,60.9,12.91c9.5,2.71,18.26,6.51,24.46,15.16c6.75,9.42,7.74,19.15,4.38,29.79
		c-3.32,10.52-9.1,19.71-16.57,27.61c-18.68,19.78-39.12,37.46-63.4,50.24c-3.43,1.8-7.11,2.71-11.1,3.95
		c-6.08,3.21-12.67,2.97-19.1,5.05c-5.43,1.06-10.55,1.43-15.99,2.53c-17.8,2.43-35.26,3.22-53.22,2.99
		c-1.03-0.02-1.61-0.03-2.62-0.05c-13.69-1.41-26.58-4.82-39.65-7.28c-2.13-0.4-4.28-0.62-6.82-1.01c-9-3.03-17.69-5.65-26.86-8.11
		c-33.54-10.07-67.51-16.15-101.62-21.53c-4.26-0.67-8.51-1.43-13.22-2c-8.5-1.32-16.78-1.08-25.11-3.59
		c-3.33-2.44-4-5.37-2.66-8.64c1.36-3.32,4.24-4.6,7.65-4.58c11.01,0.07,21.87,1.69,33.19,3.2c12.58,1.99,24.78,3.48,36.9,5.56
		c5.9,1.01,11.75,2.31,18.06,3.45c18.69,3.89,36.8,8.31,55.09,13.81c15.58,4.45,30.9,8.35,46.37,11.34
		c16.15,3.11,32.52,4.86,49.03,2.79c1.99-0.25,3.98-0.21,6.39-0.17c16.05-1.05,31.47-3.48,46.7-7.08c5.88-1.39,10.8-5.09,16.57-7.78
		c3.74-2.09,7.07-4.11,10.71-6.3c12.14-7.64,23.31-15.96,33.89-25.65c2.6-2.49,4.92-4.76,7.37-7.4c7.82-8.9,14.94-17.79,17.15-29.9
		c0.15-3.61,0.49-6.89-1.59-10.17c-5.49-8.13-14.13-10.61-22.24-13.14c-20.39-6.36-41.45-9.62-62.69-11.82
		c-14.09-1.46-28.18-2.23-42.77-1.91c-5.63,0.3-10.77,1.42-16.44,1.03c-13.37,0.34-25.89,3.24-38.77,6.46
		c-3.32,0.49-6.14,1.32-9.32,2.33c-17.71,3.71-34.11,10.29-50.74,16.08c-20.1,7-40.52,13.03-61.06,19.97
		c-8.32,2.35-16.42,4.02-24.69,6.61c-13.99,3.34-27.65,6.34-41.23,9.6c-10.02,2.41-19.89,5.37-30.55,6.85
		C559.26,386.91,557.39,385.26,557.66,379.48z"/>
	<path class="st1" d="M106.53,446.26c-18.96-5.37-33.51-17.19-47.96-29.21c-10.87-9.06-21.92-17.91-30.62-29.24
		c-6.32-8.23-11.45-16.99-14.27-27.16c-4.31-15.57,5.86-31.02,16.9-36.53c11.58-5.77,24.22-8.05,36.64-11.01
		c21.21-5.04,42.76-8.25,64.39-10.46c21.83-2.23,43.51,0.52,65.01,4.72c36.17,7.07,70.41,20.32,105.13,32.16
		c37.44,12.78,75.78,22.42,114.55,30.35c5.04,1.03,10,2.47,14.98,3.75c2.81,0.73,5.36,1.88,6.68,5.15c1.5,5.47-0.37,7.64-7.39,8.58
		c-9.17-1.22-17.81-2.83-26.27-5.49c-9.85-3.1-20.16-4.4-30.16-7.03c-4.99-1.31-10.04-2.42-15.46-3.69
		c-8.27-2.62-16.36-4.36-24.72-6.6c-23.32-7.53-46.37-14.61-69.09-22.64c-13.96-4.93-27.85-10-42.68-13.44
		c-3.2-0.85-5.92-1.97-9.26-2.35c-12.85-3.24-25.36-6.05-38.68-6.69c-5.67,0.45-10.83-0.45-16.45-0.95
		c-35.69-0.62-70.38,3.6-104.33,13.06c-8.68,2.42-17.68,5.08-23.89,13.16c-2.33,3.22-2.18,6.56-2.14,10.24
		c1.33,9.16,5.9,16.38,11.19,23.2c1.71,2.21,3.51,4.37,5.61,6.73c2.43,2.65,4.74,4.93,7.34,7.42c10.5,9.77,21.67,18.08,33.78,25.75
		c3.61,2.21,6.9,4.24,10.63,6.29c16.11,10.48,34.36,11.7,52.23,14.19c3.43,0.48,6.87,1.28,10.8,1.05c5.77-0.47,11,0.91,16.32,1.02
		c23.7,0.51,46.55-4.48,69.27-10.41c5.31-1.38,10.65-2.65,16.3-4.37c18.33-5.28,36.35-10.02,55.06-13.78
		c18.29-3.88,36.36-6.48,54.9-9.01c10.27-1.76,20.22-2.54,30.15-3.43c2.47-0.22,5.02-0.27,7.41,0.62c4.97,1.85,6.07,6.66,2.39,12.08
		c-5.01,2.88-10.31,2.06-15.28,2.95c-3.05,0.54-6.19,0.78-9.72,1.15c-38.89,5.65-77.17,12.21-114.93,23.34
		c-9.18,2.38-17.83,5.11-26.82,8.11c-15.71,2.21-30.58,6.73-46.4,8.48c-1.01,0.06-1.59,0.07-2.61,0.09
		c-17.96,0.26-35.43-0.45-53.24-2.83c-5.46-1.08-10.58-1.51-16.05-2.46C119.29,449.05,112.78,448.96,106.53,446.26z"/>
	<path class="st0" d="M439.35,379.38c0.82-2.95,0.73-4.98-1.64-7.01c-2.52-2.16-3.57-5.55-4.81-8.64
		c-6.74-16.84-13.01-33.82-15.1-52.01c-0.18-1.59-0.74-2.82-1.95-3.87c-3.67-3.17-7.44-6.46-12.14-7.66
		c-7.36-1.88-11.42-7.02-14.57-13.22c-2.02-3.99-3.78-8.14-5.29-12.36c-1.51-4.24,0.07-8.26,3.4-9.18c4.41-1.22,6.41,1.44,7.67,5.13
		c0.54,1.57,1.27,3.06,1.88,4.6c2.71,6.84,5.66,13.09,14.09,14.94c4.11,0.9,7.48,4.21,10.76,7.06c2.34,2.03,4.42,4.12,8.15,3.89
		c3.53-0.22,4.12,3.75,5.8,6.38c2.03-1.5,1.86-3.45,2.28-5.05c1.77-6.7,4.8-12.69,9.31-18c3.84-4.52,8.39-6.38,14.16-4.48
		c1.38,0.45,2.82,0.78,3.47-0.71c0.83-1.9-1.17-1.95-2.17-2.34c-3.55-1.39-7.18-2.6-10.77-3.89c-2.74-0.98-5.36-2.19-5.85-5.47
		c-0.22-1.49-0.87-1.89-2.24-1.94c-2.14-0.08-3.83-1.18-5.03-2.88c-5.53-7.81-9.31-16.49-11.82-25.66c-1.1-4.01,1.66-7.63,5.49-7.99
		c4.41-0.41,6.07,2.05,6.64,6.22c0.85,6.19,4.84,11.22,7.01,16.92c2.29,6.01,5.47,9.59,12.54,10.41c6.16,0.72,11.82,4.3,17.19,7.65
		c1.92,1.2,3.49,1.31,5.51,0.56c11.03-4.13,22.13-4.16,33.16-0.03c2.26,0.85,3.89,0.46,5.96-0.7c7.53-4.22,15.14-8.41,24.05-8.98
		c0.86-0.05,1.67-0.03,1.96-1.07c2.12-7.76,7.35-14.13,9.79-21.74c0.35-1.09,0.61-2.24,0.7-3.37c0.32-4.01,2.36-6.39,6.43-5.84
		c3.99,0.53,6.1,3.17,5.79,7.35c-0.07,0.98-0.32,1.98-0.65,2.91c-2.52,7.05-5.42,13.94-9.23,20.4c-1.71,2.9-3.61,5.68-7.49,5.9
		c-0.64,0.04-1.5-0.05-1.61,0.78c-0.78,6.14-6.04,6.27-10.29,7.81c-2.5,0.9-4.96,1.9-7.4,2.95c-0.78,0.34-2.17,0.6-1.47,1.94
		c0.44,0.83,1.29,1.55,2.48,1.12c10.49-3.78,15.25,3.29,19.79,10.56c3.21,5.14,4.91,10.88,5.92,17.23
		c2.82-3.74,4.78-8.39,10.64-7.29c0.74,0.14,1.81-1.31,2.69-2.08c4.15-3.63,8.33-7.72,13.61-9.05c6.73-1.71,9.66-6.15,11.85-11.88
		c1.07-2.79,2.41-5.47,3.49-8.26c1.26-3.25,3.45-5.02,6.93-4.08c3.46,0.94,5.19,4.1,4.15,6.99c-4.03,11.23-6.67,23.63-20.52,27.85
		c-4.64,1.41-8.44,4.58-12.09,7.78c-1.22,1.07-1.63,2.37-1.82,3.93c-2.32,19.18-8.99,37.07-16.36,54.74
		c-0.95,2.28-1.94,4.75-3.98,6.26c-2.04,1.5-1.88,3.28-1.41,5.67c1.55,4.95-0.19,8.77-3,12.73c-7.44,3.74-11.42,2.11-12.73-5.19
		c1.18-3.87,0.75-6.62-2.47-9.07c-2.55-1.94-2.6-5.26-2.53-8.3c0.06-2.36-0.63-3.75-3.39-3.69c-4.04,0.09-6.67-1.97-7.29-6.02
		c-0.55-3.57,1.79-6.62,5.93-8.16c2.5-0.93,2.9-0.93,6.5,0.09c-3.12-2.63-5.47-5.55-8.83-7.37c-1.64-0.89-2.48-2.64-2.81-4.92
		c-0.3-5.2,2.47-7.96,6.72-8.9c15.21-3.35,14.61-25.04,7.03-33.49c-0.46-0.51-1.01-0.83-2.06-0.45c-6.15,3.93-7.56,9.99-8.62,16.63
		c-0.99,5.29-1.75,10.22-1.45,15.23c0.19,3.09-0.48,5.93-2.34,8.87c-2.42,1.59-2.48,3.18-1.33,5.32c1.81,3.35,2.11,6.77-1.13,9.5
		c-3.13,2.64-6.43,2.41-9.5-0.17c-2.03-1.71-4.82-0.24-6.65-1.47c-5.64-3.76-10.74-3.82-16.72-0.24c-2.66,1.59-6.51,1.43-9.65,3.2
		c-2.43,1.37-5.2,0.35-7.24-1.79c-2.24-2.35-2.19-4.99-1.21-7.89c0.61-1.8,3.08-3.68-0.16-5.86c-2.36-3.06-3.11-6.21-2.91-9.65
		c0.28-4.68-0.39-9.29-1.32-14.26c-1.01-6.71-2.31-12.86-8.18-17.17c-2.58-1.17-3.29,0.75-4.06,2.04
		c-3.82,6.41-4.83,13.32-2.87,20.52c1.49,5.47,4.97,9.19,10.58,10.8c4.02,1.16,7.37,3.12,7.51,8.37c-0.16,3.3-1.61,5.65-4.2,6.64
		c-3.16,1.2-4.15,5.17-7.67,5.82c3.02-0.69,5.92-0.06,8.62,1.46c3.07,1.72,4.57,4.42,3.88,7.88c-0.65,3.26-2.92,5.46-6.26,5.35
		c-3.82-0.13-4.48,1.74-4.35,4.87c0.13,3.11-0.62,6.12-3.21,7.99c-2.68,1.94-2.82,4.2-1.82,7.34c-0.58,7.7-3.95,9.6-11.96,6.72
		C440.03,388.22,438.29,384.42,439.35,379.38z"/>
	<path class="st2" d="M443.84,428.16c0.52,6.65-2.87,9.1-7.81,11.94c-12.12,6.96-23.08,15.73-33.42,25.2
		c-2.48,2.27-4.88,4.62-8.67,4.14c-2.84-0.36-2.59,1.95-3,3.61c-3.07,12.44-5.35,25.04-7.6,37.65c-1.06,5.99-2.93,7.44-8.86,6.06
		c-1.98-0.46-2.59,0.11-3.47,1.47c-3.09,4.76-6.51,9.27-10.51,13.3c-1.63,1.64-3.43,3.2-5.4,4.36c-2.83,1.67-5.85,1.81-8.07-1.08
		c-2.38-3.09-1.42-6.11,1.25-8.4c4.72-4.05,8.56-8.83,12.27-13.76c1.55-2.06,1.8-3.54-0.04-5.98c-3.34-4.42-2.18-9.56-0.2-14.24
		c4.29-10.14,10.12-19.45,15.92-28.77c0.88-1.41,3.09-2.86,1.38-4.75c-1.76-1.94-3.33,0.28-4.75,1.03
		c-18.87,9.93-36.6,21.74-54.4,33.41c-16.9,11.08-34.68,20.3-54.11,26.05c-11.3,3.35-22.67,6.44-34.07,9.45
		c-11.87,3.13-23.2,0.19-34.07-4.2c-25.31-10.23-48.77-23.72-69.17-41.99c-7.66-6.86-14.59-14.59-19.56-24.24
		c-0.52-7.38,1.47-9.18,8.59-7.74c3.44,2.1,4.49,5.74,7.3,8.38c7.36,9.54,15.91,17.26,25.87,23.98c3.44,2.56,6.67,4.79,10.44,6.86
		c12.75,7.66,25.32,14.88,39.26,20.25c2.47,1.08,4.59,2.05,6.58,3.22c6.4,3.77,13.02,4.68,20.37,1.76
		c14.39-3.74,28.2-8.06,42.16-13.21c6.86-1.77,12.9-4.59,19.31-7.49c10.37-3.96,19.35-9.54,28.12-15.69
		c17.17-12.04,34.91-23.21,53.98-32.87c19.39-10.1,39.79-16.47,60.3-22.48c3.96-1.16,8.19-1.55,12.21,1.44
		c0.45,0.42,0.62,0.6,1.01,1.07C443.44,426.58,443.65,427.01,443.84,428.16z"/>
	<path class="st2" d="M888.86,457.63c-5.69,10.78-13.32,19.58-22.26,27.1c-22.35,18.79-47.2,33.3-74.99,42.6
		c-9.77,3.27-19.44,3.12-29.44,0.69c-34.52-8.39-67.1-20.91-96.11-42.02c-11.27-8.2-23.37-15.3-35.59-22.08
		c-2.18-1.21-4.26-2.68-6.55-3.59c-1.78-0.71-3.54-3.65-5.59-1.31c-1.74,1.98,0.79,3.63,1.75,5.16c5.3,8.46,10.37,17.03,14.7,26.04
		c1.84,3.83,2.84,7.78,2.45,12.05c-0.12,1.35-0.11,2.89-1.16,3.72c-3.62,2.89-1.64,5.38,0.32,7.94c3.24,4.23,6.55,8.39,10.67,11.85
		c2.98,2.5,4.61,5.62,1.8,9.08c-2.81,3.47-6.34,2.42-9.36,0.19c-5.69-4.22-9.85-9.89-13.72-15.72c-1.39-2.09-2.43-3.2-5.38-2.37
		c-4.43,1.24-6.84-0.72-7.64-5.39c-2.17-12.62-4.57-25.2-7.46-37.68c-0.63-2.73-0.93-5.12-4.88-4.54c-2.6,0.38-4.57-1.73-6.39-3.45
		c-9.34-8.84-19.77-16.28-30.24-23.68c-1.89-1.33-3.9-2.68-6.05-3.42c-4.67-1.61-6.22-4.63-5.37-9.95c-0.21-1.12-0.08-1.56,0.26-2.3
		c0.31-0.51,0.45-0.71,0.84-1.18c4.1-3.73,8.68-3.2,12.96-1.95c20.19,5.92,40.29,12.16,59.41,22.05
		c20.51,10.51,39.65,22.54,58.11,35.68c7.36,5.24,15.17,9.6,23.99,12.91c6.32,3.13,12.53,5.54,19.23,7.77
		c14.07,4.73,27.73,9.48,42.16,13.01c10.15,4.79,18.38,0.13,26.98-4.43c13.97-5.35,26.61-12.49,39.36-20.21
		c3.76-2.08,7.08-4.2,10.49-6.81c9.98-6.67,18.61-14.3,25.96-23.84c2.82-2.61,4.1-6,7.08-8.51
		C886.2,448.83,888.64,450.49,888.86,457.63z"/>
	<path class="st3" d="M846.76,483.73c-2.9,2.58-5.99,4.84-9.42,7.14c-17.52-5.74-34.8-11.21-52.12-16.59
		c-3.99-1.24-7.85-1.21-11.67,0.52c-5.33,2.42-8.44,6.63-8.79,12.36c-0.34,5.46,1.82,10.1,6.6,13.18c5.12,3.3,11.07,4.46,16.74,6.35
		c3.12,1.04,6.58,1.3,9.13,4.26c-2.37,1.64-4.95,2.75-7.32,4.21c-6.25,3.86-12.75,3.79-19.71,1.28c-2.43-2.43-3.55-5.23-4.81-7.94
		c-6.04-12.95-12.29-25.8-18.45-38.69c-0.93-1.95-1.93-3.87-3.13-5.67c-4.63-6.95-12.64-9.3-19.52-5.72
		c-7.05,3.67-9.96,11.38-6.85,19.19c2.58,6.48,6.06,12.57,8.74,19.02c0.75,1.82,1.99,3.52,1.11,5.96
		c-6.87-1.17-12.83-4.45-19.36-7.09c-0.01-2.01,1.26-3.21,2.08-4.64c4.98-8.77,2.07-17.79-7.2-21.88
		c-5.97-2.63-12.42-3.72-18.64-5.52c-15.97-4.62-32-9.05-48.04-13.46c-3.22-0.88-6.2-2.37-9.78-3.25
		c-19.77-9.53-40.15-16.42-60.92-22.23c-4.17-1.17-8.57-2.18-12.11,2.42c-2.24-2.46-1.78-4.96,0.29-7.01
		c3.55-3.52,3.7-7.09,0.85-11.04c-1.14-1.58-1.65-3.46-0.26-5.04c3.64-4.14,1.46-7.15-1.83-10.42c-0.26-0.85-0.26-1.36-0.04-2.23
		c1.93-3.87,4.45-7.14,4.03-11.84c0.46-0.6,0.77-0.59,1.31-0.32c0.22,5.01,2.66,7.41,8.04,7.24c1.36,1.79,0.31,3.28-0.18,4.81
		c-3.74,11.72,2.87,20.71,15.17,20.6c1.65-0.02,3.31-0.29,5.32,0.11c8.31,1.12,16.26,2.12,24.61,3.27c1.35,1.37,0.83,2.67,0.58,3.96
		c-1.83,9.49,2.16,16.15,11.59,18.88c5.26,1.52,10.69,2.44,16.05,3.56c20.98,4.4,41.91,9.04,62.86,13.56
		c1.79,0.39,3.59,0.68,5.4,0.93c8.79,1.2,15.84-3.89,17.35-12.53c0.26-1.46,0.19-3,1.37-4.55c8.76,2.23,17.21,4.69,25.96,7.33
		c1.38,2.05,0.88,4.02,0.69,6c-0.9,9.58,4.79,16.46,14.43,17.35c6.35,0.59,12.65-0.41,18.82-1.59c4.74-0.9,8.48-3.75,10.38-8.5
		c0.55-1.38,1.02-2.83,2.52-4.11c0.74-0.32,1.2-0.36,2.01-0.31c0.56,0.34,0.87,0.59,0.92,0.89c1.81,10.76,9.41,15.08,18.97,17.84
		C829.41,476.35,838.24,479.24,846.76,483.73z"/>
	<path class="st3" d="M288.23,494.86c-5.86,3.59-12.24,5.75-18.92,8.07c-1.82-2.07-0.59-3.84,0.2-5.63
		c2.62-5.93,5.31-11.82,8.21-17.61c2-3.99,2.78-8.19,1.31-12.55c-2-5.93-6.23-9.46-12.32-10.25c-5.95-0.78-10.8,1.8-14.08,6.7
		c-3.79,5.67-6.5,11.96-9.32,18.16c-4.74,10.44-10.04,20.61-14.79,31.04c-0.49,1.07-1.15,2.02-2.24,3.12
		c-10.29,5.61-18.59,0.05-27.38-4.31c0.69-2.94,3.27-3.14,5.39-3.8c5.4-1.68,10.88-3.13,16.14-5.22
		c8.78-3.5,12.74-11.14,10.05-19.03c-2.72-7.98-10.93-11.83-19.94-9.14c-17.05,5.1-33.93,10.76-51.23,16.35
		c-3.54-1.92-6.75-4.01-10.12-6.39c0.72-1.91,2.38-2.32,3.93-2.86c7.83-2.72,15.47-6.02,23.49-8.13
		c9.49-2.49,16.05-7.58,18.15-17.93c0.7-0.37,1.16-0.44,1.96-0.43c1.7,1.15,2.43,2.63,3.04,4.2c2.07,5.35,6.31,8.26,11.66,9.04
		c5.24,0.76,10.51,1.64,15.87,1.44c11.04-0.43,17.19-7.3,16.13-18.19c-0.14-1.47-0.65-2.96,0.34-4.75c8.5-2.93,16.89-5.5,25.67-8.08
		c2.02,1.08,1.76,2.88,2.03,4.47c1.55,8.99,8.57,14.35,17.58,12.74c19.14-3.43,38.02-8.13,57.06-12.06
		c8.46-1.75,16.91-3.56,25.35-5.44c6.76-1.5,11.82-5.06,13.8-12.16c1-3.59-1.03-6.85-0.52-10.67c8.17-1.42,16.13-2.5,24.48-3.6
		c2.67-0.81,5-0.17,7.3-0.24c11.07-0.34,17.47-9.3,14.18-19.89c-0.49-1.57-1.36-3.04-1-5.12c4.53-0.44,8.32-1.23,8.3-7.21
		c0.4-0.45,0.71-0.54,1.24-0.59c0.39,4.18,1.54,7.95,4.18,11.6c0.28,0.84,0.35,1.34,0.25,2.22c-3.4,3.84-5.49,7.35-1.55,11.9
		c1.37,1.58,0.01,3.48-1.01,4.97c-2.38,3.52-2.22,6.78,0.82,9.79c2.09,2.07,2.81,4.38,1.36,7.42c-3.7-3.58-7.96-3.73-12.51-2.39
		c-20.54,6.05-41.01,12.31-60.42,22.37c-20.48,6.31-40.93,11.49-61.16,17.42c-4.47,1.31-9.05,2.19-13.45,3.77
		c-12.2,4.36-15.45,13.73-8.55,24.75C287.56,493.29,287.91,493.85,288.23,494.86z"/>
	<path class="st4" d="M542.85,487.99c1.59,1.23,2.87,2.65,4.23,4.37c0.33,5.22-1.98,7.8-7.96,8.85c-6.7,1.19-13.67,0.9-20.24,2.41
		c-9.03,2.08-18.14,0.42-27.11,1.71c-5.29,0.76-10.04-1.84-15.22-2.02c-6.61-0.23-13.24-0.92-19.78-2.12
		c-5.34-0.98-7.47-3.07-8.08-8.11c0.7-2.39,2.39-3.49,3.87-5.13c1.92,0.82,2.51,2.69,3.77,4.02c2.63,2.76,5.82,3.74,9.02,1.81
		c3.36-2.03,6.21-1.6,9.37,0.05c3.02,1.57,6.3,2.07,9.71,1.83c2.13-0.15,3.83-1.05,5.07-2.78c0.83-1.16,1.18-2.42,0.41-3.73
		c-0.78-1.33-2.16-1.83-3.46-1.29c-5.03,2.09-9.06,0.04-12.96-2.84c-2.82-2.08-5.48-1.5-8.35,0.15c-3.96,2.28-4.79,1.73-5.38-3.3
		c7.76-6.62,16.25-10.9,26.18-11.92c2.9-0.3,5.68-0.85,7.34-3.53c2.63-4.24-0.3-8.85-5.61-9.6c-4.11-0.59-8.14,2.3-12.43-0.21
		c-0.27-0.48-0.3-0.69-0.25-1.23c2.64-3.44,6.01-3.78,9.56-2.81c3.82,1.04,7.5,1.31,11.14-0.6c1.04-0.55,2.3-0.97,3.37-0.4
		c4.6,2.43,9.23,1.92,14.04,0.71c2.68-0.67,5.26,0.25,7.61,2.44c0.26,0.56,0.32,0.77,0.32,1.31c-1.64,1.87-3.4,1.9-5.53,1.45
		c-2.39-0.51-4.92-0.58-7.39-0.52c-3.38,0.08-5.66,1.87-6.16,5.29c-0.54,3.68,1.25,6.11,4.77,7.02c2.38,0.61,4.89,0.68,7.3,1.21
		c8.04,1.79,15.17,5.52,21.84,10.82c1.29,2.01,0.71,3.52-0.72,4.66c-1.46,1.16-2.9,0.24-4.11-0.62c-3.34-2.39-6.39-2.04-9.61,0.39
		c-3.29,2.48-6.89,4.04-11.17,2.31c-1.66-0.67-3.39-0.51-4.28,1.37c-0.85,1.8,0.1,3.22,1.35,4.44c2.46,2.41,5.52,1.96,8.5,1.68
		c2.52-0.24,4.8-1.34,7.08-2.38c1.7-0.77,3.36-1.25,5.29-0.57C536.81,495.59,537.3,495.41,542.85,487.99z"/>
	<path class="st0" d="M521.22,454.87c-4.38-1.43-8.5-0.63-12.71-0.65c-7.09-0.04-14.2,0.27-21.26,0.04
		c-3.91-0.13-7.69-1.01-11.82,0.68c-7.54-2.93-10.07-7.77-9.28-17.39c0.27-2.52,1.94-3.25,3.89-4.18c2.61-0.52,4.4,0.45,6.39,1.98
		c3.23,5.86,9.21,5.42,13.79,5.56c7.44,0.23,15.05,0.87,22.53-1c2.59-0.65,4.66-1.36,6.24-3.97c1.81-1.74,3.57-2.76,6.16-2.74
		c2.16,0.58,3.69,1.44,4.64,3.53C530.53,447.19,528.23,452.03,521.22,454.87z"/>
	<path class="st2" d="M443.02,427.04c0.86-2.67,0.65-4.81-1.82-6.92c-4.25-3.63-4.43-6.76-0.93-11.19c1.67-2.12,2.42-3.32-0.08-5.61
		c-3.37-3.08-2.58-5.65,2.56-10.44c8.57-0.59,11.36,1.52,12.72,9.44c0.42,2.44,1.68,4.66,1.65,7.58
		c-2.96,6.65-0.22,11.84,3.24,17.25c0.33,0.75,0.46,1.2,0.58,2.01c0.07,1.76-0.37,3.01-1.57,4.28c-3.89,4.13-7.39,3.28-10.79-0.1
		c-1.38-1.37-2.7-2.8-4.38-4.35c-0.32-0.14-0.24-0.04-0.2,0.01c-0.41-0.41-0.47-1.03-0.85-1.83
		C442.97,426.95,443,427.01,443.02,427.04z"/>
	<path class="st2" d="M552.47,392.75c6.4,4.43,6.66,5.58,2.1,11.72c-1.37,1.84-0.12,2.63,0.7,3.78c4.01,5.65,4.02,7.78-0.97,12.25
		c-2.02,1.81-1.59,3.77-1.56,6.19c0.24,0.37,0.27,0.31,0.29,0.28c-0.47,0.4-0.53,1.03-0.89,1.84c-0.19,0.24-0.1,0.14-0.06,0.09
		c-1.87,1.75-3.72,3.61-5.7,5.33c-2.89,2.51-5.87,2.88-9.13-0.29c-1.5-0.97-1.94-2.1-2.22-3.71c-0.02-0.86,0.03-1.35,0.24-2.18
		c1.39-3.02,3.24-5.34,4.14-8.27c0.92-3.02,1.18-5.79-0.39-9c-0.08-4.55,1.29-8.5,2.34-12.42
		C542.74,393.17,547.49,392.58,552.47,392.75z"/>
	<path class="st5" d="M889.13,457.84c-1.05-6.75-3.23-8.25-9.75-5.89c-3.41,1.61-6.16,1.19-8.57-1.63
		c6.1-1.74,12.19-3.03,18.71-4.29C889.59,449.9,890.57,453.81,889.13,457.84z"/>
	<path class="st6" d="M117.28,452.3c-6.52-2.66-8.88-1.37-9.92,5.36c-2.15-3.16-0.35-7.07-1.11-11.22
		c6.08,0.65,12.21,1.76,18.64,3.07C123.86,453.79,120.76,453.08,117.28,452.3z"/>
	<path class="st4" d="M535.43,429.66c0.72,1.31,1.13,2.38,1.51,3.72c-2.11,1.4-4.2,2.54-6.68,3.7c-1.57-0.78-2.74-1.59-4.12-2.62
		c-0.58-5.66-0.01-6.24,5.14-5.53C532.55,429.11,533.87,428.97,535.43,429.66z"/>
	<path class="st4" d="M459.45,433.83c-0.04-1.26,0.27-2.32,0.7-3.66c1.48-1.47,3.24-0.83,4.76-1.28c4.25-1.28,5.69,0.71,5.33,5.01
		c-1.28,1.24-2.4,2.13-3.8,3.12C463.57,437.01,461.86,435.15,459.45,433.83z"/>
	<path class="st7" d="M551.69,660.7c0.78,13.16-1.41,25.38-8.97,36.25c-1.19,1.71-2.45,2.9-4.47,3.61
		c-26.69,9.43-53.35,9.36-80.08,0.15c-5.25-1.81-6.9-6.52-8.9-10.71c-4.22-8.84-5.68-18.36-5.35-28.6c2.02-2.03,4.15-1.34,6.24-0.86
		c3.88,0.89,7.79,1.73,11.6,2.85c26.31,7.79,52.4,6.06,78.45-1.39C543.77,660.98,547.37,659.13,551.69,660.7z"/>
	<path class="st7" d="M559.77,598.74c-0.29,10.71-2.29,20.58-9.42,28.89c-3.74,4.35-8.96,4.21-13.56,5.01
		c-28.39,4.93-56.74,4.96-84.99-1.58c-5.49-1.27-8.07-5.06-10.25-9.18c-3.6-6.8-5.43-14.23-5.69-22.42
		c5.91-2.03,11.92-1.37,17.58,0.03c13.46,3.34,27.1,5.42,40.87,5.76c14.96,0.37,29.86-1.19,44.42-5.02
		C545.54,598.44,552.46,598.21,559.77,598.74z"/>
	<path class="st7" d="M560.74,535.75c2.14,8.27,0.95,16.14-1.24,23.83c-1.09,3.82-5.09,4.52-8.39,5.43
		c-8.19,2.28-16.67,3.03-25.08,3.76c-25.58,2.22-51.1,1.59-76.47-2.72c-1.96-0.33-3.93-0.71-5.84-1.26
		c-4.64-1.35-7.88-3.94-8.44-9.2c-0.66-6.27-1.89-12.5-0.57-19.21c1.74-1.68,3.58-1.58,5.4-1.2c5.83,1.24,11.78,1.68,17.45,4
		c5.25,2.14,11.04,2.32,16.73,2.31c16-0.02,31.99,0.04,47.99-0.03c6.86-0.03,13.45-1.29,20.04-3.52
		C548.03,536.01,554.11,534.45,560.74,535.75z"/>
	<path class="st7" d="M458.32,741.45c-3.24-7.57-5.84-14.91-5.44-22.97c0.29-5.82,0.63-6.09,6.07-4.48
		c10.71,3.16,21.52,5.68,32.78,5.87c16.03,0.28,31.82-0.95,47.04-6.43c2.9-1.04,4.13,0.05,4.22,2.86
		c0.42,13.2-2.42,25.38-13.11,34.07c-5.41,4.39-12.78,5.01-19.43,5.38c-11.4,0.62-22.85,1.03-34.28-1.51
		C468.18,752.45,462.59,748.48,458.32,741.45z"/>
	<path class="st4" d="M560.34,598.69c-14.48,0.74-28.08,5.63-42.14,6.82c-9.61,0.81-19.34,1.1-29.11,0.96
		c-16.57-0.23-32.01-6.95-48.48-6.62c-1.28,0.03-2.57-0.54-4.29-0.83c-1.76-3.77-1.09-7.63-0.65-11.81c3.04,0.69,3.61,3.6,5.16,5.67
		c3.81,5.1,6.85,5.95,12.25,2.62c2.65-1.63,4.98-1.52,7.48-0.13c4.29,2.39,8.96,3.54,13.77,4.14c3.01,0.38,6,0.25,8.69-1.43
		c1.17-0.74,2.13-1.73,1.85-3.25c-0.28-1.52-1.49-2.11-2.88-2.36c-1.15-0.21-2.32-0.24-3.48-0.17c-6.02,0.35-11.53-1.17-16.6-4.38
		c-3.62-2.3-7.16-3.19-11.08-0.39c-3.37,2.41-5.67,0.42-7.1-2.64c-1.22-2.6-2.32-5.17-5.44-6.64c0.49-2.72,2.11-1.74,3.75-1.41
		c37.41,7.52,74.82,7.58,112.22-0.09c1.33-0.27,2.56-0.92,3.64,0.9c-2.52,1.94-4.26,4.13-5.54,7.01c-1.89,4.28-3.79,4.85-7.82,2.48
		c-3.11-1.83-5.95-1.88-8.88-0.02c-5.93,3.76-12.31,5.69-19.4,5.23c-2.11-0.14-4.81-0.17-5.05,2.75c-0.22,2.67,2.19,3.6,4.31,4.05
		c6.29,1.34,12.28-0.16,17.89-2.87c3.87-1.87,7.12-2.73,11.06,0.13c3.3,2.4,6.68,1.23,9.67-2.13c1.99-2.24,2.87-5.28,5.65-7.29
		C561.42,590.65,560.8,594.51,560.34,598.69z"/>
	<path class="st4" d="M561.15,535.57c-7.26,1.84-14.76,1.65-21.69,4.99c-4.46,2.15-9.64,2.33-14.58,2.37
		c-17.96,0.14-35.92,0.21-53.88-0.03c-6.07-0.08-11.97-1.33-17.85-3.58c-5.43-2.08-11.57-2.28-17.84-3.31
		c-0.44-2.79-0.56-5.58,0.53-8.64c2.78-0.42,3.64,1.92,5.15,3.29c5.06,4.59,8.23,5.25,13.68,1.16c4.21-3.15,7.96-3.7,12.79-1.71
		c3.8,1.56,7.88,2.55,11.85,3.79c2.73,0.85,5.54,1.25,8.31,0.21c1.48-0.55,2.58-1.65,2.59-3.33c0.02-2.03-1.63-2.27-3.12-2.49
		c-5.45-0.79-10.5-3.08-15.86-4.23c-2.09-0.45-4.18-1.2-5.3-3.66c12.29,0.93,24.57,0.66,36.86,0.81c8.82,0.1,17.58-0.54,26.8-1.23
		c0.03,3.31-2.83,3.6-5.06,4.12c-5.33,1.25-10.39,3.52-15.86,4.24c-1.36,0.18-2.76,0.54-2.88,2.2c-0.12,1.68,0.91,2.85,2.38,3.46
		c2.92,1.22,5.9,0.8,8.76-0.2c5.02-1.75,10.2-2.97,15.19-4.81c2.24-0.83,4.07-0.49,6.08,0.79c10.35,6.61,10.57,6.55,19.41-1.82
		c0.49-0.46,1.02-0.85,2.01-1.02C561.37,529.57,560.95,532.4,561.15,535.57z"/>
	<path class="st4" d="M552.09,660.48c-9.59,2.5-19.2,4.29-28.66,6.64c-19.44,4.81-38.65,3.4-57.84-1.39
		c-6.9-1.72-13.86-3.19-21.21-4.78c-0.66-4.48-0.4-8.9,0.39-13.32c1.11-6.21,1.02-6.23,7.21-4.06c-1.37,2.2-5.54,2.51-4.12,6.45
		c1.42,3.95,4.86,5.8,8.64,5.39c4.57-0.5,8.32,0.71,12.3,2.65c3.92,1.91,8.32,2.35,12.6,0.79c2.06-0.75,4.31-1.89,3.7-4.54
		c-0.61-2.61-3.17-2.2-5-1.8c-6.6,1.44-11.53-1.54-16.11-6.01c7.41,0.32,14.87,0.64,22.2,1.75c13.68,2.08,27.08-0.42,40.57-1.71
		c1.48-0.14,2.95-0.36,4.85-0.47c-3.16,4.91-7.93,7.1-13.97,6.66c-2.45-0.18-6.14-1.83-6.64,1.85c-0.51,3.74,3.34,4.46,6.29,4.89
		c4.22,0.62,8.32-0.18,11.99-2.34c2.71-1.6,5.39-2.38,8.52-1.71c1.98,0.42,3.97,0.07,5.82-0.8c2.33-1.11,4.33-2.57,4.72-5.34
		c0.44-3.12-2.29-3.64-4.36-5.16c6.17-3.13,6.07-3.12,7.3,3.66C552.01,651.85,552.14,655.92,552.09,660.48z"/>
	<path class="st7" d="M505.87,788.81c-8.8,8.45-7.45,7.16-15.13,0.69c-6.43-5.42-11.64-11.79-16.82-18.27
		c-1.01-1.26-2.51-2.87-1.68-4.41c0.99-1.84,2.91-0.54,4.43-0.18c14.3,3.33,28.6,3.36,42.89-0.08c1.42-0.34,3.16-1.36,4.16,0.01
		c0.98,1.35-0.32,2.93-1.19,4.04C517.48,776.97,512.79,783.67,505.87,788.81z"/>
	<path class="st7" d="M448.55,492.88c0.87,4.38,4.17,6.33,8.11,6.97c6.02,0.99,12.12,1.75,18.21,2.03
		c4.18,0.19,8.52,2.27,12.06,1.73c9-1.38,17.9,1.59,27.02-1.09c7.62-2.24,16.05-1.74,24.11-2.54c4.2-0.42,7.76-1.89,9.03-6.92
		c2.69,2.05,5.62,5.18,4.78,8.44c-0.79,3.05-5.27,2.75-8.24,3.44c-9.57,2.24-19.36,3.12-29.13,3.76
		c-5.43,0.36-10.98-1.02-16.39-0.56c-15.38,1.3-30.49-0.21-45.55-3.12C442.25,503.02,441.63,501.33,448.55,492.88z"/>
	<path class="st8" d="M465.69,519.94c6.65,4.23,14.14,5.06,21.26,6.91c2.22,0.58,4.92-0.07,5.01,3.33c0.09,3.37-1.91,5.28-5.02,5.72
		c-2.09,0.3-4.38,0.26-6.4-0.3c-5.58-1.54-11.12-3.24-16.54-5.25c-2.25-0.83-3.63-0.95-5.73,0.64c-9.67,7.35-14.42,6.45-21.98-3.81
		c-0.76-3.1,0.78-5.46,2.07-8.23c3.1-1.59,5.15-0.06,6.61,2.04c2.43,3.51,5.03,3.42,7.81,0.75c3.19-3.07,7.01-2.32,11.13-2.05
		C464.66,519.82,465.04,519.84,465.69,519.94z"/>
	<path class="st8" d="M559.98,526.63c-1.08,1.62-2.1,2.92-3.23,4.11c-6.05,6.37-9.73,6.96-16.8,1.71c-3.4-2.53-6.1-2.77-10.17-1.47
		c-6.23,1.98-12.23,5.15-19.06,5.09c-2.35-0.02-4.15-0.69-5.66-2.48c-1.22-1.44-1.32-3.04-0.82-4.67c0.53-1.72,2.08-1.78,3.63-2
		c7.55-1.05,14.75-3.33,21.95-6.61c0.58-0.37,0.95-0.45,1.61-0.52c4.82-0.82,9.11-0.82,12.8,2.67c2.27,2.14,4.38,1.59,6.29-0.89
		c1.5-1.95,3.14-4.03,6.53-3.01C559.34,520.83,558.71,523.86,559.98,526.63z"/>
	<path class="st8" d="M437.8,578.28c4.06-0.9,5.3,1.48,6.4,4.62c1.85,5.3,2.99,5.7,7.58,2.5c3-2.09,5.66-1.57,8.3,0.12
		c6.49,4.15,13.43,6.35,21.19,5.44c2.98-0.35,4.95,0.97,5.44,3.81c0.48,2.81-1.71,4.25-3.88,5.08c-6.65,2.55-13.18,0.9-19.25-1.78
		c-4.38-1.93-7.76-3.78-12.4,0.01c-3.33,2.72-7.43,0.72-10.01-2.58c-1.92-2.46-3.31-5.33-5.12-8.33
		C435.79,583.97,436.52,581.25,437.8,578.28z"/>
	<path class="st8" d="M560.13,586.46c-1.5,2.98-2.82,5.7-4.54,8.13c-3.61,5.11-8.47,5.98-13.22,2.03c-2.36-1.96-4.07-1.48-6.23-0.24
		c-5.14,2.97-10.75,4.3-16.63,4.58c-1.16,0.05-2.4,0.15-3.47-0.19c-3.11-0.99-7.12-1.64-6.68-6.01c0.44-4.32,4.21-4.02,7.41-3.78
		c6.19,0.46,11.82-1.01,17.03-4.38c4-2.59,7.88-3.82,12.26-0.09c3.96,3.37,4.6-1.25,5.61-3.34c1.24-2.58,1.66-5.58,5.92-5.21
		C559.44,580.47,559.96,583.22,560.13,586.46z"/>
	<path class="st8" d="M459.62,481.69c0.89,3.16,1.54,5.61,5.38,2.04c2.98-2.76,6.36-2.17,9.5,0.28c3.43,2.67,6.7,5.17,11.56,2.29
		c2.29-1.36,4.93-0.04,5.82,2.93c0.91,3.04-2.38,7.31-6.05,7.74c-4.74,0.55-9.24-0.3-13.41-2.74c-1.59-0.93-3.18-1.8-4.96-0.13
		c-4.65,4.38-12.58,1.77-14.57-5.92C454.64,485.43,456.89,483.55,459.62,481.69z"/>
	<path class="st8" d="M542.99,487.52c-0.97,7.63-9.2,11.23-14.23,6.74c-2.01-1.79-3.62-0.93-5.38,0.07
		c-3.87,2.2-8.01,2.94-12.44,2.74c-3.32-0.15-5.12-2.26-6.54-4.68c-0.94-1.61-0.67-3.53,0.77-5.06c1.46-1.54,3.5-1.99,5-0.99
		c4.32,2.87,7.63,0.61,10.72-1.85c3.64-2.9,7.16-3.61,10.68-0.31c3.22,3.03,3.68,0.5,4.45-2.25
		C538.76,482.92,540.72,485.16,542.99,487.52z"/>
	<path class="st8" d="M463.66,646.05c5.64,3.35,10.68,7.25,17.71,5.01c1.98-0.63,4.91-0.78,5.56,2.54c0.58,2.96-1.13,4.94-3.5,5.97
		c-5.87,2.57-11.77,1.84-17.23-1.19c-2.57-1.42-4.65-2.45-7.82-1.6c-4.13,1.11-7.96-0.61-10.7-3.85c-3.54-4.17-1.81-8.11,4.14-9.03
		c0.41-0.06,0.78-0.02,0.95,0.06c2.5,2.87,5.59,2.29,8.95,1.96C462.49,645.91,462.92,645.94,463.66,646.05z"/>
	<path class="st8" d="M543.57,643.85c2.87,0.14,5.75,0.17,6.33,3.65c0.52,3.1-0.94,5.53-3.48,7.17c-1.51,0.97-3.52,2.45-4.9,2.1
		c-6.49-1.67-11.66,1.91-17.3,3.62c-3.95,1.2-7.92,0.95-11.62-0.79c-2.33-1.09-4.07-2.96-3.55-5.92c0.59-3.34,3.5-3.27,5.47-2.61
		c6.78,2.25,11.73-1.62,17.28-4.67c0.65-0.33,1.07-0.42,1.82-0.5c3.28,0.04,6.44,1.29,9.18-1.65
		C543.05,644.02,543.39,643.87,543.57,643.85z"/>
	<path class="st4" d="M557.3,518.34c-2.6,0.42-4.73,1.72-5.87,4.03c-2.22,4.48-5.09,4.09-8.06,1.17c-3.08-3.03-6.66-3.95-11.21-3.67
		c6.71-2.14,14.25-2.6,21.3-5.14C556.74,513.55,556.21,516.62,557.3,518.34z"/>
	<path class="st4" d="M463.96,519.57c-4.46-0.08-8.73,1.11-12.24,4.56c-2.66,2.62-4.85,2.11-6.69-1.05
		c-1.26-2.17-2.78-4.12-6.03-4.32c0.32-3.62,1.77-5.05,5.75-3.5C450.77,517.6,457.29,518.16,463.96,519.57z"/>
	<path class="st4" d="M390.82,541.44c-0.82,1.59-1.88,2.62-3.26,1.78c-1.04-0.64-0.17-1.81,0.21-2.67c1.45-3.3,2.94-6.59,5.17-9.6
		C392.26,534.32,391.58,537.69,390.82,541.44z"/>
	<path class="st4" d="M605.3,533.82c1.08,2.42,2.02,4.5,2.89,6.62c0.4,0.98,1.48,2.45,0.01,2.95c-1.45,0.49-2.76-0.53-3.1-2.32
		c-0.64-3.35-1.36-6.68-2.08-10.21C604.52,531.38,604.63,532.59,605.3,533.82z"/>
	<path class="st9" d="M620.08,586.38c1.05,2.78,2,5.24,2.76,7.75c0.32,1.06,0.53,2.46-1.16,2.69c-1.32,0.17-1.55-0.9-1.66-1.93
		c-0.29-2.92-0.59-5.84-0.86-8.76c-0.01-0.07,0.19-0.21,0.28-0.21C619.6,585.93,619.75,586.02,620.08,586.38z"/>
	<path class="st9" d="M375.92,586.39c2.15,3.22-0.43,6.49-0.42,9.91c0,0.65-1.08,0.73-1.67,0.45c-0.86-0.41-1.02-1.34-0.77-2.13
		C373.9,591.95,374.85,589.32,375.92,586.39z"/>
	<path class="st4" d="M461.78,645.63c-2.94,1.61-6.34,4.26-8.78-1.25C455.91,643.74,458.63,645.05,461.78,645.63z"/>
	<path class="st4" d="M542.64,643.98c-1.05,5.92-4.93,3.17-8.47,2.2C536.56,644.59,539.42,644.38,542.64,643.98z"/>
	<path class="st6" d="M967.89,344.76c2.62,3.29,2.62,6.84,2.02,10.87c-2.77,1.81-5.39,0.72-7.96,0.29
		c-21.2-3.5-42.35-7.3-63.54-10.88c-6.43-1.09-11.99,0.49-15.95,5.86c-5.52,7.47-2.95,17.06,5.57,21.52
		c3.61,1.89,7.59,2.47,11.53,3.11c14.63,2.38,29.2,5.14,43.84,7.51c2.76,0.45,5.66,0.65,8.33,2.69c-1.83,2.59-3.92,4.85-6.32,7.21
		c-2.25,1.28-4.19,0.45-6.12,0.06c-14.35-2.88-28.67-5.96-43.02-8.84c-2.62-0.53-5.24-0.92-7.93-0.73
		c-7.11,0.52-12.78,5.57-13.79,12.27c-0.99,6.6,2.96,13.46,9.4,15.97c6.56,2.55,13.6,3.13,20.39,4.75c2.09,0.5,4.3,0.63,6.35,2.31
		c-2.84,2.28-5.93,4.24-9.36,6.26c-6.06-0.19-11.4-2.17-16.84-3.6c-10.61-2.8-21.22-5.55-31.85-8.27
		c-5.81-1.49-11.53-1.56-16.39,2.98c-5.9,5.51-6.7,13.22-1.92,19.75c0.97,1.33,2.3,2.43,2.67,4.52
		c-20.36,2.93-40.51,1.62-60.47-2.67c-14.11-3.03-28.14-6.43-42.33-10.7c-1.04-1.09-0.78-2.06-0.59-3.05
		c2.14-11.02-4.1-19.09-15.23-18.35c-8.65,0.58-17.29,0.58-25.93,0.82c-5.09,0.14-8.66,3.01-12.33,6.6
		c-18.45-2.83-36.49-6.15-55.05-8.6c0.78-1.78,2.51-1.74,4.15-1.84c26.19-1.64,52.34-3.8,78.54-5.14c3.98-0.2,7.96-0.71,11.87-1.5
		c7.12-1.43,12.37-7.53,12.51-14.24c0.13-6.41-4.8-12.51-11.69-14.44c-2.59-0.72-5.25-0.89-7.92-0.67
		c-22.17,1.9-44.42,2.81-66.58,4.76c-2.62,0.23-5.33,0.5-8.09-1.22c7.39-3.28,15.49-4.67,23.74-6.87c13.4-1.42,26.42-2.84,39.45-4.1
		c18.52-1.79,37.01-3.93,55.55-5.55c2.66-0.23,5.29-0.53,7.86-1.26c9.6-2.72,13.71-10.55,10.52-20.08
		c-0.47-1.42-1.14-2.77-1.17-4.71c2.84-1.19,5.58-1.97,8.73-2.71c2,2.4,0.33,4.5-0.28,6.61c-2.23,7.79,0.67,14.96,7.62,18.45
		c6.62,3.33,13.53,1.6,18.39-4.95c4.79-6.46,6.69-14.38,10.29-21.45c0.9-1.76,1.35-3.76,3.2-5.38c5.59-0.53,10.93-0.79,16.7-0.98
		c4.09,6.59,10.08,9.14,17.11,10.51c29.89,5.85,59.76,11.76,89.58,17.96C952.82,347.24,960.2,348.26,967.89,344.76z"/>
	<path class="st10" d="M637.21,369.82c9.04,0.7,17.63-0.65,26.2-1.34c5.61-0.46,11.24-0.45,16.87-1.08
		c11.86-1.34,23.82-1.85,35.76-2.25c7.89-0.27,15.07,5.01,16.88,11.53c2.98,10.71-3.83,20.38-15.39,21.29
		c-15.54,1.22-31.12,2-46.67,3.13c-15.05,1.09-30.08,2.59-45.65,3.01c-9.55-0.81-18.62-1.77-27.71-2.67
		c-2.31-0.23-4.64-0.39-6.95-0.38c-2.65,0.01-4.98,1-6.14,3.51c-1.17,2.53-0.58,4.86,1.79,7.03c-7.9,3.02-14.94,1.34-19.87-4.75
		c-5.22-6.44-4.04-13.13-0.24-20.14C589.69,380.85,613.26,375.35,637.21,369.82z"/>
	<path class="st10" d="M952.29,385.94c-19.7-3.23-39.1-6.53-58.47-9.96c-14.3-2.54-20.25-15.7-12.07-26.58
		c3.72-4.95,9.12-7.02,14.93-6.09c23.51,3.76,46.95,7.94,70.42,11.98c0.65,0.11,1.25,0.43,2.27,0.71
		C967.73,368.1,960.39,377.08,952.29,385.94z"/>
	<path class="st10" d="M725.86,438.42c-0.32,12.19-5.26,18.94-15.1,19.17c-5.83,0.13-11.74-1.79-17.57-3.02
		c-22.87-4.83-45.72-9.77-68.59-14.62c-12.78-2.71-19.09-13.72-13.62-24.37c15.13,0.99,29.92,4.05,44.79,6.61
		C679.31,426.26,702.63,431.4,725.86,438.42z"/>
	<path class="st5" d="M968.18,344.56c-5.23,4.02-10.82,4.96-17.33,3.61c-33.22-6.89-66.53-13.36-99.77-20.18
		c-5.55-1.14-10.89-3.3-12.18-10.36c35.9-1.52,71.06,3.52,105.66,12.75c5.56,1.48,10.75,4.38,16.04,6.79
		C963.84,338.64,966.42,340.99,968.18,344.56z"/>
	<path class="st10" d="M911.29,418.99c-8.77-1.67-17.31-3.02-25.61-5.27c-9.09-2.47-14.22-10.75-12.52-18.79
		c1.86-8.83,9.86-14.57,19.59-12.76c17.26,3.2,34.37,7.15,51.95,10.84C935.21,403.31,923.51,411.24,911.29,418.99z"/>
	<path class="st5" d="M773.52,327.14c9.26,13.16,2.04,26.4-14.47,27.9c-22.93,2.08-45.79,4.84-68.73,6.73
		c-9.22,0.76-18.37,2.88-28.02,1.75c22.23-7.66,44.89-14.72,67.27-22.57C743.97,335.9,758.33,330.84,773.52,327.14z"/>
	<path class="st5" d="M847.29,483.96c-11.64-3.76-23-7.45-34.23-11.52c-7.53-2.74-11.9-8.18-12.09-16.9
		c17.71-1.5,35.53-0.56,53.56-3.32c5.96,0.19,10.95,2.42,16.05,4.2c1.36,0.48,2.88,1.01,2.68,3.32
		C866.32,469.87,857.33,477.25,847.29,483.96z"/>
	<path class="st5" d="M837.42,440.83c-6.18-5.17-9.37-11.3-6.76-19.02c2.79-8.27,10.96-12.78,20.04-10.55
		c16.69,4.1,33.23,8.78,50.07,13.5c-12.76,10.09-28.33,11.78-43.68,14.06C850.71,439.77,844.26,440.22,837.42,440.83z"/>
	<path class="st10" d="M821.59,317.73c-2.92,9.16-6.39,18.18-11.24,26.46c-4.96,8.48-12.96,10.85-20.78,7.11
		c-8.11-3.87-11.23-12.11-8.09-21.39c0.48-1.41,0.95-2.83,1.45-4.64C795.43,321.1,808.2,318.84,821.59,317.73z"/>
	<path class="st5" d="M798.52,454.94c-2.45,10.86-7.02,14.51-18.21,15.15c-2.97,0.17-5.91,0.82-8.87,0.86
		c-16.09,0.2-22.91-8.19-19.36-24.12C767.6,448.35,782.58,453.16,798.52,454.94z"/>
	<path class="st5" d="M680.11,413.43c1.58-5.92,6.27-8.13,11.55-8.3c9.08-0.29,18.15-0.41,27.24-0.91
		c10.05-0.55,17.5,6.93,17.09,15.78c-0.1,2.27-1.18,4.1-2.04,6.45C716.12,422.21,698.5,417.02,680.11,413.43z"/>
	<path class="st3" d="M873.42,459.99c-0.61-2.3-2.84-2.23-4.4-2.79c-4.48-1.61-9.03-2.99-13.82-4.7c4.75-1.08,9.76-1.91,15.19-2.69
		c2.63,1.65,5.23,1.89,8.22,2.26C877.25,454.7,875.49,457.28,873.42,459.99z"/>
	<path class="st6" d="M262.32,426.48c-33.58,10.14-67.14,18.61-102.88,14.43c-0.68-2.27,0.99-3.39,2.03-4.83
		c3.64-5.02,4.34-10.34,1.61-15.98c-2.72-5.63-7.56-7.62-13.47-7.74c-2.87-0.06-5.63,0.51-8.37,1.25
		c-13.17,3.58-26.43,6.85-39.61,10.38c-1.92,0.52-3.84,1.15-6.26,1.05c-3.57-1.79-6.76-3.6-10.14-5.69
		c1.27-2.21,3.54-2.26,5.62-2.74c6.32-1.46,12.81-2.2,19.01-4.15c8.33-2.62,12.99-9.83,11.44-17.41
		c-1.57-7.68-8.55-12.58-17.34-11.47c-10.07,1.28-19.89,3.99-29.87,5.85c-7.49,1.4-14.83,3.7-22.86,3.84
		c-2.56-2.32-4.77-4.45-7.11-6.88c1.63-2.5,4.26-2.56,6.67-2.97c14.94-2.56,29.86-5.23,44.82-7.72c2.96-0.49,5.93-0.93,8.8-1.82
		c8.56-2.66,13.4-9.81,11.73-17.26c-1.83-8.2-9.27-13.05-18.28-11.57c-19.4,3.19-38.74,6.71-58.13,9.94
		c-4.25,0.71-8.44,2.02-13.18,1.32c-1.46-3.9-0.84-7.41,0.87-11.12c0.74-0.45,1.28-0.71,1.71-0.47c7.14,4,14.43,2.41,21.84,0.89
		c29.83-6.1,59.7-12.03,89.58-17.95c6.6-1.31,12.56-3.38,16.22-10.09c5.62-0.14,10.95,0.01,16.73,0.25
		c5.23,6.56,7.35,14.33,10.77,21.46c2.57,5.35,5.64,10.15,11.94,11.74c10.55,2.66,20.5-7.22,17.95-17.84
		c-0.61-2.54-2.2-4.88-1.39-7.97c3.16-0.28,5.84,0.85,8.94,1.78c0.83,2.32-0.38,4.06-0.98,5.93c-2.91,9.1,1.53,17.32,10.92,19.39
		c9.43,2.09,19.14,2.16,28.7,3.31c24.24,2.92,48.64,4.36,73.22,7.78c8.34,1.89,16.27,3.9,24.5,6.17c-2.52,2.91-5.97,1.94-9.18,1.71
		c-19.05-1.4-38.08-2.88-57.16-3.77c-2.5-0.12-4.95-0.57-7.44-0.8c-4.2-0.39-8.32-0.11-12.14,1.92c-5.64,3-8.89,8.61-8.27,14.21
		c0.68,6.09,5.37,11.43,11.56,12.95c3.88,0.95,7.89,1.41,11.85,1.6c22.23,1.07,44.41,2.98,66.62,4.34
		c5.57,0.34,11.3,0.07,17.03,2.17c-17.79,3.36-35.87,6.37-54.36,9.36c-5.89-6.22-12.96-7.42-20.79-6.94
		c-5.3,0.32-10.61,0.04-15.94-0.64c-12.51-1.59-19.94,6.69-17.38,18.98C262.62,425.14,262.59,425.63,262.32,426.48z"/>
	<path class="st10" d="M371.69,404.24c-13-0.77-25.59-1.43-38.17-2.29c-18.53-1.25-37.07-2.46-55.57-4.04
		c-9.18-0.78-16.27-8.78-15.81-16.89c0.5-8.9,8.19-16.21,17.85-15.85c12.75,0.47,25.47,1.68,38.19,2.67
		c5.29,0.41,10.59,0.26,15.91,0.93c7.72,0.97,15.57,0.89,23.84,1.15c16.9,3.82,33.56,6.75,49.81,11.49
		c6.99,2.04,14.24,3.14,21.76,4.81c3.45,6.46,5.51,12.83,1.17,19.43c-4.31,6.56-11.69,8.91-20.63,6.39
		c1.65-2.29,3.08-4.71,1.47-7.68c-1.53-2.81-4.3-3.6-7.26-3.33C393.53,402.04,382.82,403.17,371.69,404.24z"/>
	<path class="st10" d="M26.19,356.44c15.19-3.06,30.32-5.75,45.46-8.39c8.63-1.5,17.3-2.81,25.92-4.39
		c9.56-1.75,17.65,3.22,20.05,12.55c1.99,7.75-2.9,16.39-11.82,18.64c-10.56,2.66-21.4,4.2-32.14,6.13
		c-9.6,1.73-19.22,3.33-29.24,5.05C35.65,377.79,28.93,368.5,26.19,356.44z"/>
	<path class="st10" d="M384.55,415.15c5.06,13.44-0.26,22.04-14.34,24.96c-25.46,5.28-50.86,10.86-76.26,16.43
		c-10.46,2.29-17.53,0.13-21.86-6.93c-1.93-3.14-2.18-6.56-2.21-10.53c23.19-7.94,47.06-12.77,71.05-17
		C355.3,419.56,369.74,417.42,384.55,415.15z"/>
	<path class="st5" d="M156.63,317.19c-0.07,5.15-4.15,9.22-10.97,10.71c-11.48,2.51-23.01,4.77-34.53,7.07
		c-22.56,4.5-45.14,8.89-67.68,13.47c-5.6,1.14-10.49,0.07-15.35-3.41c1.83-5.61,6.78-7.65,11.61-9.95
		c13.5-6.45,28.08-9.04,42.57-11.75C106.66,318.78,131.3,316.48,156.63,317.19z"/>
	<path class="st10" d="M51.04,393.37c17.04-3.95,34.19-7.72,51.4-11.18c8.41-1.69,16.26,2.28,19.21,9.13
		c2.98,6.9,0.93,15.07-5.18,19.67c-4.25,3.2-9.53,3.71-14.53,4.82c-5.33,1.19-10.72,2.1-16.49,3.2
		C72.72,411.99,61.59,403.31,51.04,393.37z"/>
	<path class="st5" d="M333.66,363.13c-6.08,2.42-12.43-0.11-18.78-0.49c-11.9-0.71-23.74-2.34-35.61-3.6
		c-15.33-1.63-30.7-2.89-45.96-5.01c-14.04-1.95-19.24-14.36-11.39-26.56c11.37,2.07,22.36,5.28,33.07,9.3
		c23,8.65,46.49,15.79,69.87,23.27C327.7,360.96,330.49,362.01,333.66,363.13z"/>
	<path class="st5" d="M194.62,455.07c0.3,8.87-3.69,14.6-12.32,17.67c-10.79,3.84-21.68,7.44-32.89,11.23
		c-10.48-6.04-19.05-13.87-26.39-23.54c-0.98-2.2,0.21-3.17,1.68-3.68c5.1-1.76,9.99-4.35,15.99-4.38
		C158.71,454.53,176.48,454.38,194.62,455.07z"/>
	<path class="st5" d="M95.21,425.33c5.52-3.46,12.08-3.98,18.22-5.81c10.16-3.02,20.49-5.5,30.79-8.01
		c6.68-1.63,13.21-0.84,17.93,4.48c4.5,5.08,5.25,11.29,2.56,17.74c-1.14,2.73-3.36,4.5-5.53,6.75
		C137.1,438.72,114.87,437.99,95.21,425.33z"/>
	<path class="st10" d="M212.76,324.66c0.93,2.29,1.54,4.35,2.2,6.4c2.62,8.21-0.73,16.36-8.28,20.13c-7.4,3.7-15.68,1.62-20.41-5.89
		c-5.23-8.3-8.27-17.69-12.23-27.03c8.66-0.97,16.92,1.86,25.38,3.15C203.82,322.08,208.12,323.4,212.76,324.66z"/>
	<path class="st5" d="M243.47,446.37c1.05,4.56,2.57,9.03,0.75,13.73c-2.7,6.96-8.69,10.86-17.34,10.9
		c-5.99,0.03-11.95-0.5-17.75-1.9c-6.87-1.66-10.47-6.62-12.01-13.66C212.4,452.17,227.72,449.27,243.47,446.37z"/>
	<path class="st5" d="M262.49,426.84c-7.14-12.47,3.35-24.33,16.84-22.64c7.78,0.97,15.51,0.74,23.28,0.81
		c5.83,0.05,10.68,1.96,13.55,7.86C298.33,417.38,280.45,421.52,262.49,426.84z"/>
	<path class="st3" d="M140.68,452.12c-5.39,3.08-12.23,3.34-17.7,7.65c-2.7-1.57-3.83-4.63-5.97-7.34c2.59-0.34,5.2-1.04,7.97-2.37
		C130.24,450.48,135.26,451.23,140.68,452.12z"/>
	<path class="st7" d="M539.73,410.79c2.49,3.48,1.86,10.17-1.02,14.14c-0.67,0.93-1.34,1.86-2.26,3.03
		c-2.23-1.51-2.7-4.37-5.13-5.88c-3.75-2.33-6.55-2.35-9.79,0.74c-1.27,1.21-2.46,2.36-4.3,1.93c-3.68-0.86-6.1,0.93-7.97,3.73
		c-2.21,3.31-6.74,4.47-8.26,8.9c-1.77,0.98-3.3,0.98-5.22,0.46c-2.77-4.77-7.04-7.94-10.84-10.98c-4.26-3.4-10.33-4.48-15.62-6.13
		c-4.21-1.31-7.11,3.16-9.23,7.27c-3.77-2.96-4.34-7.47-5.89-11.53c-0.81-2.12,0.29-3.43,1.57-5.18c1.79-1.42,2.66-0.23,3.46,0.79
		c1.44,1.85,3.01,3.37,5.35,1.55c2.08-1.62,2.35-3.86,1.48-6.28c-0.17-0.47-0.35-0.97-0.69-1.31c-2.97-2.91-2.77-5.71-0.64-9.25
		c2.31-3.83,0.84-6.98-3.26-8.79c-2.12-0.94-4.46-1.26-6.77-2.6c-2.03-3.39-3.62-6.01,1.39-8.32c3.53-1.63,3.21-5.91,2.88-9.45
		c-0.29-3.15-0.23-5.32,4.09-3.92c3.14,1.01,5.7-0.73,6.67-3.74c0.98-3.03-0.33-5.57-3.18-7.1c-2.68-1.44-5.6-1.98-8.89-1.78
		c3.09-3.19,4.63-7.42,9.24-8.57c1.35-0.34,2.13-2.03,2.46-3.97c0.56-1.25,1.18-1.92,2.59-1.95c2.73,0.25,5.01,0.35,2.48,3.63
		c-0.98,1.28-1.57,2.93-2.07,4.49c-0.86,2.7,0.1,4.97,2.4,6.48c2.32,1.53,4.95,1.53,6.8-0.55c1.64-1.83,3.12-2.24,5.49-1.86
		c2.94,0.46,5.5-1.17,7.61-3.07c2.24-2.03,4.11-2.24,6.48-0.15c2.66,2.34,5.72,4.15,9.51,2.97c1.8-0.56,2.31,0.76,3.18,1.68
		c2.11,2.23,4.66,2.65,7.19,1.1c2.73-1.67,3.59-4.27,2.33-7.33c-0.63-1.52-1.32-3.06-2.25-4.41c-1.8-2.64,0.15-2.61,2.21-2.87
		c1.41-0.35,2.2,0.05,3.01,1.18c0.53,1.97,0.98,4.1,2.57,4.46c4.7,1.08,6.22,5.36,9.34,8.58c-2.9,0.17-5.64,0.4-8.15,1.58
		c-3.08,1.44-4.8,3.89-3.88,7.23c0.92,3.33,3.61,4.95,6.98,3.94c3.38-1.02,4.23,0.03,3.87,3.22c-0.57,5.09,0.08,9.43,5.5,12.15
		c3.1,1.55-0.75,3.55-0.86,5.79c-1.97,1.98-4.41,2.05-6.53,2.91c-4.76,1.95-6.32,5.05-3.76,9.32c2.05,3.41,2.06,6-0.65,8.84
		c-1.04,1.09-1.41,2.61-1.24,4.17c0.19,1.74,0.92,3.21,2.55,4c1.84,0.9,3.14-0.02,4.26-1.45
		C537.13,411.6,537.83,410.37,539.73,410.79z"/>
	<path class="st7" d="M507.25,334.79c-7.31-5.17-11.14-5.44-17.87-0.35c-2.66,2.01-4.92,0.78-6.95,0.15
		c-2.52-0.78-0.31-3.12-0.16-4.63c1.27-13.41-0.59-26.17-7.65-37.81c-1.78-2.94-1.7-4.45,1.48-6.18
		c14.62-7.93,29.11-7.99,43.74-0.03c3.08,1.68,3.46,3.12,1.6,6.14c-7.03,11.46-9.07,24.08-7.62,37.28
		C514.49,335.38,514.11,335.91,507.25,334.79z"/>
	<path class="st9" d="M472.17,336.32c-0.61,0.78-1.36,1.22-2.4,1.76c-0.52-3.38-2.15-5.64-5.54-6.91
		c-13.42-5.04-18.13-16.87-12.14-30.25c1.21-2.71,2.4-5.49,4.9-7.35c0.83-0.62,1.53-0.32,2.07,0.84c0.62,1.28,0.29,2.24,0.08,3.21
		c-1.89,8.86-0.52,11.19,8.38,14.05c2.89,5.41,2.4,10.99,2.35,16.49C469.86,331.02,469.9,333.77,472.17,336.32z"/>
	<path class="st9" d="M526.65,337.8c-0.88,0-1.64-0.38-2.67-0.95c1.9-2.89,2.37-6.02,2.14-9.39c-0.34-5.08,0.2-10.1,1.75-15.3
		c0.7-0.58,1.1-0.89,1.58-1.04c7.9-2.54,9.38-5.15,7.48-13.26c-0.19-0.81-0.43-1.6-0.18-2.79c0.97-3.12,2.25-1.69,3.25-0.58
		c9.33,10.36,8.9,33.62-7.37,36.55C529.3,331.65,526.77,333.5,526.65,337.8z"/>
	<path class="st8" d="M540.06,410.59c-1.16,0.43-1.94,0.95-2.36,1.98c-1.17,2.93-3.28,4.45-6.25,2.97c-2.8-1.39-4.63-4.8-3.1-7.09
		c3.28-4.91,3.43-9.05,0.8-14.27c-1.47-2.92,0.88-5.82,4.04-6.97c2.46-0.9,4.87-2.21,7.99-2.08c1.04,6.94,4.01,8.67,10.92,5.84
		c0.51,0.34,0.68,0.8,0.78,1.63c-8.08,0.92-10.28,3-10.77,10.55C541.95,405.67,539.65,407.54,540.06,410.59z"/>
	<path class="st8" d="M454.41,385.57c3.36-0.8,6.25,0.74,9.09,1.96c3.49,1.51,5.15,6.3,2.75,9.28c-2.93,3.63-2.44,5.99,0.53,9.07
		c1.66,1.72,1.62,4.28,0.49,6.59c-0.92,1.88-2.04,3.39-4.4,3.53c-2.17,0.13-3.4-0.93-4.23-2.79c-0.4-0.89-0.81-1.86-2.29-2.17
		c-0.6-4.14-2.11-7.99-2.73-12.04c-0.73-4.76-5.49-5.64-10.17-6.16c-0.34-0.55-0.3-0.99-0.08-1.7
		C450.23,393.88,453.43,392.43,454.41,385.57z"/>
	<path class="st4" d="M553.03,341.04c2.87-4.04,5.54-7.78,8.22-11.52c-2.21,10.83-5.95,21.03-10.84,31.54
		c-0.97-5.7-4.26-8.37-10.49-9.58C546.22,349.27,549.64,345.42,553.03,341.04z"/>
	<path class="st4" d="M435.26,330.05c5.78,7.92,9.94,16.88,20.39,21.34c-5.42,1.4-9.25,3.71-9.94,9.88
		c-4.96-10.53-8.53-20.61-11.56-30.89c-0.04-0.13,0.04-0.41,0.13-0.44C434.49,329.84,434.77,329.84,435.26,330.05z"/>
	<path class="st3" d="M536.54,294.74c1.51,2.68,2.87,5.25,2.6,8.38c-0.48,5.75-3.75,8.66-10.56,8.75
		C528.48,305.09,530.58,299.1,536.54,294.74z"/>
	<path class="st3" d="M467.9,311.52c-10.01,0.34-13.74-6.52-8.9-16.39C465.79,298.18,466.78,304.72,467.9,311.52z"/>
	<path class="st10" d="M226.46,516.17c0.77-5.05,3.58-9.41,5.73-14.03c5.67-12.19,11.44-24.35,17.52-36.34
		c5.47-10.78,15.98-13.48,25.19-6.88c6.18,4.43,7.95,12.5,4.34,20.6c-2.64,5.91-5.51,11.71-8.24,17.58
		c-0.76,1.64-1.38,3.36-2.06,5.42C255.34,508.67,241.12,512.49,226.46,516.17z"/>
	<path class="st10" d="M159.27,491.12c0.03-2.74,2.36-2.51,3.91-3.01c15.77-5.12,31.56-10.16,47.38-15.13
		c9.06-2.84,18.45,1.53,21.22,9.72c2.95,8.73-1.47,17.76-10.68,21.1c-7.17,2.6-14.49,4.76-22.09,7.32
		C184.81,506.27,172.14,498.88,159.27,491.12z"/>
	<path class="st5" d="M288.66,495.18c-10.07-8.03-8.35-22.24,3.47-27.07c8.24-3.37,17.04-5.39,25.64-7.83
		c16.58-4.72,33.18-9.31,49.79-13.93c0.6-0.17,1.28-0.01,2.19,0.24c-20.42,10.87-39.85,23.54-58.88,36.86
		C304.05,488.22,296.64,491.85,288.66,495.18z"/>
	<path class="st4" d="M400.86,448.87c-1.02,3.05-3.73,4.47-5.94,6.31c-3.09,2.57-4.46-0.84-6.7-2.36c1.79-1.69,3.73-2.33,6.05-2.94
		c0.98-0.19,1.62-0.35,2.48-0.74c0.22-0.24,0.27-0.16,0.23-0.19C398.09,448.31,399.31,448.52,400.86,448.87z"/>
	<path class="st9" d="M371.33,500.37c-0.76-2.78,0.75-4.56,2.32-6.36C373.36,496.32,374.22,498.93,371.33,500.37z"/>
	<path class="st7" d="M401.18,449.13c-1.11-0.02-2.24-0.08-3.8-0.17c2.1-1.69,4.86-2.73,8.25-3.02c0.06,1.12-0.87,1.53-2.01,2.09
		c-0.88,0.32-1.51,0.45-2.35,0.83C401.06,449.09,401.15,449.09,401.18,449.13z"/>
	<path class="st3" d="M442.89,427.34c1.05-0.39,0.97,0.45,1.19,1.37C442.69,429.51,443.08,428.3,442.89,427.34z"/>
	<path class="st4" d="M401.38,449.13c0.2-0.38,0.74-0.72,1.61-1.05C402.79,448.46,402.25,448.82,401.38,449.13z"/>
	<path class="st7" d="M396.65,448.91c-0.22,0.34-0.77,0.67-1.68,0.97C395.18,449.54,395.75,449.23,396.65,448.91z"/>
	<path class="st7" d="M406.02,446.01c0.11-0.22,0.26-0.65,0.33-0.64c0.44,0.07,0.45,0.29-0.13,0.58
		C406.01,446.01,406.02,446.01,406.02,446.01z"/>
	<path class="st10" d="M727.33,503.14c-2.52-7.92-6.36-14.9-9.86-22.03c-2.76-5.62-3.74-11.19-0.6-17.12
		c5.58-10.55,20.24-11.59,27.22-1.8c3.11,4.36,5.14,9.3,7.43,14.08c6.22,13.01,12.28,26.1,18.41,39.53
		C755.48,513.07,741.47,508.45,727.33,503.14z"/>
	<path class="st10" d="M797.69,511.24c-7.74-2.38-15.19-4.69-22.51-7.34c-11.53-4.17-15.5-16.35-8.3-25.64
		c4.11-5.3,10.04-7.72,16.38-5.84c17.65,5.23,35.12,11.09,52.65,16.73c0.39,0.13,0.64,0.69,1.03,1.41
		C824.54,498.67,811.75,505.79,797.69,511.24z"/>
	<path class="st5" d="M626.28,446.99c0.5-1.06,1.42-0.87,2.43-0.58c23.28,6.55,46.57,13.06,69.85,19.61
		c3.04,0.86,6.06,1.85,8.62,3.79c8.56,6.47,9.03,17.27,0.82,25.22c-9.91-3.21-18.55-8.4-26.83-14.24
		C663.68,468.46,645.63,457.01,626.28,446.99z"/>
	<path class="st4" d="M601.06,449.78c2.64,0.35,4.64,1.32,6.47,2.79c-2.57,3.9-5.3,4.68-8.59,0.88c-1.17-1.34-2.65-2.42-4.06-3.94
		c0.9-1.47,2.18-0.84,3.75-0.75c0.42,0.18,0.35,0.24,0.37,0.2C599.43,449.53,600.13,449.52,601.06,449.78z"/>
	<path class="st9" d="M625.08,499.01c-0.29,1.51-1.27,2.41-1.76,1.01c-0.67-1.9-1.69-3.92-1.08-6.3
		C624.04,494.99,624.42,496.89,625.08,499.01z"/>
	<path class="st7" d="M598.82,448.65c-0.91,0.33-2.04,0.37-3.6,0.47c-0.42,0.05-0.37-0.03-0.33-0.03c-0.35-0.61-1.04-0.58-1.93-0.87
		c-1.12-0.63-1.95-1.14-2.88-1.92C593.2,445.5,595.74,447.54,598.82,448.65z"/>
	<path class="st3" d="M552.32,429.12c-0.24-0.73-0.1-1.39,0.38-2.12C552.93,427.7,552.81,428.44,552.32,429.12z"/>
	<path class="st4" d="M592.89,448.34c0.41-0.1,1.05,0.04,1.87,0.47C594.34,448.92,593.73,448.75,592.89,448.34z"/>
	<path class="st7" d="M601.16,449.61c-0.44,0.13-1.1,0.01-1.95-0.4C599.66,449.06,600.29,449.21,601.16,449.61z"/>
	<path class="st7" d="M589.98,446.01c-0.23-0.14-0.45-0.28-0.68-0.42c0.22,0,0.45,0,0.67,0.21
		C589.98,446.02,589.98,446.01,589.98,446.01z"/>
	<path class="st8" d="M459.85,428.48c-0.39-5.5,3.41-7.73,7.24-9.15c3.34-1.24,6.98-0.74,8.84,3.29c0.61,1.32,1.63,1.36,2.92,0.97
		c1.09-0.33,2.28-0.58,3.39-0.48c2.29,0.2,12.31,10.54,12.89,13.47c-1.76,5.16-7.17,6.23-11.85,2.28c-2.07-1.75-4.01-2.68-6.91-2.65
		c-1.94-1.17-3.58-2.1-5.93-1.96c-1.32-2.74-1.54-6.53-6.18-3.63c-0.69,0.43-2.17-0.41-3.64-0.69
		C460.14,429.52,460.03,429.15,459.85,428.48z"/>
	<path class="st8" d="M500.77,437.34c-0.03-2.87,0.56-4.94,3.25-5.88c1.96-0.69,3.14-2.24,4.3-3.93c2.14-3.11,4.63-5.82,9.04-3.89
		c1.3,0.57,2.24,0.06,2.82-1.19c1.77-3.81,5.3-4.31,8.44-3.17c3.58,1.3,7.58,3.05,7.52,8.52c-0.03,0.78-0.11,1.16-0.31,1.82
		c-1.54,0.53-3.42,1.49-4.33,0.91c-4.01-2.53-4.57,0.23-5.45,3.36c-2.07,0.26-3.88,0.65-5.8,1.95c-3.19,0.61-5.7,1.39-8.14,3.44
		C508.13,442.61,503.53,441.63,500.77,437.34z"/>
	<path class="st4" d="M500.44,436.98c4.18,4.26,9.3,4.52,12.41,0.01c2.12-3.07,3.93-2.76,6.75-1.03c-2.12,7.51-9.35,5.85-14.2,6.16
		c-7.49,0.48-15.25,0.85-22.9-1.04c-3.13-0.77-5.05-1.58-6.3-4.75c2.8-1.8,5.09-2.57,7.42,1.28c2.23,3.67,7.48,3.28,11.33-0.31
		C496.78,436.98,498.41,436.98,500.44,436.98z"/>
	<path class="st10" d="M818.05,427.86c-4.06,7-10.81,9.9-18.29,8.68c-16.02-2.62-32.09-4.89-48.1-7.57
		c-7.01-1.17-11.78-5.44-13.38-12.48c-1.45-6.39,0.64-11.79,5.66-16.04c4.31-3.65,9.48-4.07,14.64-3.33
		c15.42,2.19,30.85,4.36,46.17,7.13C817.86,406.63,823.15,418.54,818.05,427.86z"/>
	<path class="st10" d="M803.05,361.67c6.31,4.95,8.69,11.15,6.28,18.34c-2.78,8.31-9.74,11.46-17.9,11.87
		c-11.94,0.6-23.9,0.94-35.85,1.13c-10.87,0.18-18.28-6.33-18.61-15.94c-0.31-8.87,7.12-16.59,17.43-16.87
		c13.12-0.37,26.2-1.72,39.34-1.29C797.01,359.01,799.93,359.95,803.05,361.67z"/>
	<path class="st10" d="M825.49,371.11c11.03,0.39,21.56,1.64,31.95,3.68c8.73,1.71,14.56,9.86,13.42,17.66
		c-1.28,8.77-8.88,15.15-18.01,14.43c-8.74-0.69-17.47-1.77-26.12-3.18c-9.28-1.51-15.45-7.67-15.61-15.61
		C811.01,381.9,813.7,373.91,825.49,371.11z"/>
	<path class="st10" d="M870.16,365.37c-5.14,3.99-10.53,4.66-16.27,2.81c-7.42-2.39-14.87-4.72-22.19-7.39
		c-13.43-4.9-17.61-16.23-9.95-26.49c3.58-4.8,10.67-7.43,16.37-5.64c8.86,2.77,17.75,5.52,26.42,8.83
		C877.1,342.27,879.78,355.54,870.16,365.37z"/>
	<path class="st10" d="M198.25,403.06c12.71-1.92,25.01-3.64,37.24-5.75c10.69-1.85,19,2.11,21.81,10.9
		c2.7,8.46-1.63,17.12-10.14,19.93c-8.55,2.82-17.59,3.12-26.38,4.75c-7.81,1.45-15.84,1.76-23.57,3.46
		c-9.84,2.17-19.48-3.65-21.06-13.76c-1.36-8.73,6.02-17.14,16.27-18.57C194.23,403.76,196.01,403.4,198.25,403.06z"/>
	<path class="st10" d="M199.36,391.05c-10.12-3.34-14.65-10.06-13.3-19.13c1.14-7.58,8.7-13.13,18.14-12.95
		c12.28,0.23,24.57,0.57,36.84,1.13c14.38,0.66,22.05,13.08,15.54,24.92c-2.72,4.94-7.38,7.63-12.6,7.84
		C229.23,393.47,214.49,392.29,199.36,391.05z"/>
	<path class="st10" d="M143.08,406.97c-13.86-1.23-21.34-11.31-16.72-22.3c2.48-5.9,7.2-9.53,13.61-10.42
		c8.69-1.21,17.39-2.42,26.13-3.14c10.21-0.84,18.09,5.93,18.87,15.63c0.7,8.66-7.32,16.3-17.8,17.32
		C159.26,404.82,151.4,405.98,143.08,406.97z"/>
	<path class="st10" d="M145.14,367.2c-11.88,4.03-21.02,0.55-24.2-8.94c-2.65-7.92,0.39-16.39,8.21-19.6
		c9.79-4.02,19.9-7.4,30.08-10.33c6.82-1.96,15.07,3.49,17.71,10.61c2.8,7.54-0.17,15.42-7.61,19.45
		C161.84,362.44,153.45,364.14,145.14,367.2z"/>
</g>
</svg>
