<?xml version="1.0" encoding="utf-8"?>
<!-- Generator: Adobe Adobe Illustrator 24.2.0, SVG Export Plug-In . SVG Version: 6.00 Build 0)  -->
<svg version="1.1" id="レイヤー_1" xmlns="http://www.w3.org/2000/svg" xmlns:xlink="http://www.w3.org/1999/xlink" x="0px"
	 y="0px" width="1000px" height="1000px" viewBox="0 0 1000 1000" style="enable-background:new 0 0 1000 1000;"
	 xml:space="preserve">
<style type="text/css">
	.st0{fill:#050404;}
	.st1{fill:#0B0A09;}
	.st2{fill:#805220;}
	.st3{fill:#E4E3D8;}
	.st4{fill:#D7C39F;}
	.st5{fill:#EDEBE6;}
	.st6{fill:#E0CCA4;}
	.st7{fill:#D49F4A;}
	.st8{fill:#DC8A1E;}
</style>
<g>
	<path class="st0" d="M166.8,329.24c-9.53-26.44-10.36-52.39-1.51-79.07c5.44-16.4,32.37-23.02,43.55-12.09
		c5.1,4.99,9.86,10.33,15.01,15.26c2.02,1.93,4.49,3.91,7.1,4.64c12.65,3.54,25.4,6.71,38.15,9.85c1.48,0.37,3.28,0.04,4.79-0.43
		c3.96-1.24,7.78-2.97,11.78-4.06c3.99-1.09,7.49,0.24,9.01,4.25c1.53,4.02-0.18,7.39-3.98,9.08c-4.7,2.09-9.74,3.41-14.41,5.55
		c-2.23,1.02-4.58,2.78-5.79,4.85c-5.87,10.05-11.42,20.3-16.94,30.55c-0.9,1.67-1.74,3.79-1.53,5.57
		c1.52,12.33,1.4,24.56-1.73,37.17c3.64-0.53,6.82-1.32,10.02-1.41c12.82-0.36,23.1,5.66,32.25,13.78
		c16.49,14.64,27.77,33.15,37.03,52.8c3.54,7.52,8.24,12.49,15.57,16.23c20.58,10.51,40.85,21.64,61.25,32.52
		c1.24,0.66,2.53,1.24,4.02,1.97c-1.38-10.99-0.46-14.19,4.14-15.24c4.91-1.12,6.93,0.98,10.87,11.6c2.75-0.73,5.53-1.56,8.36-2.21
		c4.72-1.07,8.48,0.85,9.63,4.8c1.16,3.95-0.9,7.38-5.63,9.1c-2.79,1.01-5.65,1.82-8.78,2.82c0.7,2.91,1.54,5.58,1.94,8.32
		c0.6,4.03-0.61,7.34-4.87,8.67c-3.91,1.22-7.41-0.75-8.99-5.06c-0.91-2.49-1.53-5.08-2.62-8.79c-1.76,1.86-3.45,2.94-4.14,4.47
		c-12.97,28.62-25.87,57.27-38.61,85.99c-1.01,2.29-1.12,5.17-0.99,7.74c1.41,27.74,0.75,55.31-6.75,82.3
		c-3.41,12.28-8.26,23.93-17.37,33.26c-5.1,5.22-11.07,8.98-18.4,10.35c-5.27,0.98-10.26,1.29-14.21-3.39
		c-0.69-0.81-1.98-1.17-3.06-1.59c-29.1-11.23-53.17-29.34-72.95-53.32c-0.32-0.38-0.54-0.84-1.65-2.58
		c-0.18,2.87-0.34,4.2-0.34,5.54c0.05,16.16,0.1,32.32,0.22,48.49c0.03,3.78-0.31,7.23-3.66,9.85c-0.91,0.71-1.2,2.62-1.22,3.99
		c-0.11,5.66,0.08,11.33-0.03,16.99c-0.12,5.83-2.49,9.05-8.24,9.33c-12.14,0.59-24.31,0.71-36.46,0.55
		c-4.95-0.07-8.54-4.11-8.86-9.19c-0.34-5.48-0.03-10.99-0.26-16.48c-0.06-1.44-0.68-3.5-1.74-4.14c-3.51-2.15-4.33-5.34-4.33-8.97
		c-0.03-30.46-0.02-60.92-0.02-91.71c-5.92-0.66-13.05,0.95-13.45-7.71c-0.22-4.74,2.59-6.22,13.27-7.64c0-2.35,0-4.75,0-7.69
		c-1.56,0-3-0.02-4.44,0c-17.99,0.32-35.97,0.64-53.96,0.96c-9.1,0.16-12.35-3.04-12.39-12.14c-0.1-22.32-0.17-44.64-0.37-66.96
		c-0.04-4.37,1.91-6.99,5.98-7.95c2.07-0.49,4.3-0.7,6.41-0.53c3.32,0.26,4.95-0.93,6.15-4.17c18.74-50.3,37.61-100.56,56.55-150.79
		c1.11-2.94,0.91-5.1-0.64-7.84C171.68,340.24,169.43,334.85,166.8,329.24z M262.95,612.62c0.34,0.5,0.68,0.99,1.12,2.19
		c4.04,7.83,7.79,15.84,12.19,23.46c12.81,22.22,27.92,42.56,48.32,58.6c3.28,2.58,6.07,2.53,8.18-0.12
		c4.7-5.91,9.84-11.82,12.96-18.58c6.77-14.65,8.86-30.59,10.09-46.59c0.37-4.82,0.54-9.67,0.8-14.5c-1.92,1.32-2.73,2.87-3.44,4.46
		c-6.69,14.85-13.36,29.72-20.07,44.57c-0.75,1.66-1.53,3.36-2.61,4.8c-2.13,2.84-5.06,3.85-8.4,2.45
		c-3.33-1.39-4.74-4.16-4.18-7.67c0.28-1.77,1.01-3.5,1.76-5.15c11.3-25.18,22.68-50.33,33.9-75.54c1.04-2.33,1.8-5.14,1.58-7.62
		c-3.81-43.71-13.6-86.03-30.23-126.67c-1.02-2.5-3.34-5.02-5.71-6.32c-21.02-11.47-42.19-22.67-63.32-33.95
		c-5.49-2.93-7.5-7.02-5.43-11.15c2.01-4.02,6.94-4.83,12.21-2c14.8,7.95,29.59,15.91,44.39,23.85c1.38,0.74,2.82,1.39,4.23,2.09
		c-2.13-5.31-4.78-10.04-7.72-14.57c-7.67-11.79-16.18-22.89-28.31-30.5c-12.25-7.69-22.25-5.71-30.83,5.85
		c-7.36,9.92-9.96,21.7-12.31,33.42c-5.99,29.93-5.32,60.04-0.39,89.96c2.86,17.34,7.54,34.39,11.34,52.35
		c0.32,1.11,0.56,2.26,0.97,3.33c6.31,16.32,12.64,32.64,18.97,48.94C263.01,612,262.99,611.99,262.95,612.62z M115.09,548.5
		c0,10.59,0,21.17,0,31.9c28.25,0,55.89,0,83.06,0c-2.77-20.67-5.59-41.73-8.29-61.88c-2.46,0.57-5.68,1.85-8.95,1.97
		c-20.62,0.77-41.24,1.28-61.87,1.89c-1.27,0.04-2.54,0.18-3.96,0.29C115.09,531.22,115.09,539.36,115.09,548.5z M186.08,677.5
		c0,8.94,0,17.87,0,26.67c12.28,0,23.79,0,35.6,0c0-2.42,0.01-4.23,0-6.04c-0.14-19.64-0.27-39.29-0.43-58.93
		c-0.02-2.6,0.53-5.53-0.46-7.73c-2.72-6.04-6.12-11.76-9.23-17.59c-8.09,6.3-17.6,1.76-25.48,3.68
		C186.07,637.28,186.07,656.89,186.08,677.5z M205.65,512.5c1.14,14.43,1.18,29.04,3.62,43.24c8.72,50.58,32.09,92.62,75.04,122.8
		c-47.16-66.86-70.08-141.38-71.33-222.85C208.2,474.01,206.23,492.66,205.65,512.5z M195.43,264.34c-3.54-1.32-5.5-3.9-5.15-7.64
		c0.46-4.93,4.39-6.18,8.7-6.93c-7.75-4.97-12.99-2.64-14.26,6.12c-0.29,1.97-0.43,3.99-0.37,5.97
		c0.98,32.78,11.49,62.27,31.36,88.28c4.04,5.29,9.58,9.45,15.59,15.25c2.84-6.74,5.1-12.09,7.35-17.45
		c-0.39-0.19-0.78-0.37-1.17-0.56c-0.57,0.77-1.19,1.51-1.7,2.32c-3.37,5.47-7.35,7.21-11.3,4.9c-3.97-2.31-4.45-6.56-1.32-12.29
		c3.75-6.86,7.74-13.59,11.24-20.57c1.01-2.02,1.61-4.98,0.91-7c-4.44-12.84-9.3-25.53-14-38.29c-1.84-4.99-5.33-7.54-10.62-8.35
		C205.79,267.35,200.99,265.86,195.43,264.34z M177.84,396.73c0-2.13,0-4.26,0-6.39c-0.33-0.01-0.67-0.03-1-0.04
		c-14.58,38.85-29.16,77.69-43.6,116.17c15.06,0,29.78,0,44.6,0C177.85,469.57,177.85,433.62,177.84,396.73z M377.47,531.99
		c5.03-11.18,10.05-22.36,15.25-33.92c-4.97,0.08-9.51-0.22-10.64-5.64c-1.29-6.21,3.61-7.99,8.5-9.95
		c-15.7-8.39-30.91-16.51-47.23-25.23c11.65,31.93,19.23,63.4,24.1,96.98C371.05,546.2,374.09,539.44,377.47,531.99z M207.8,421.31
		c5.7-13.44,11.39-26.87,17.24-40.68c-11.95,0.08-22.29-5.24-31.87-12.58c0,35.11,0,69.93,0,104.84
		C197.99,455.76,202.74,438.9,207.8,421.31z M214.85,733.53c0.61-0.64,1.72-1.26,1.75-1.92c0.17-3.91,0.08-7.84,0.08-11.77
		c-8.95,0-17.28,0-25.73,0c0,4.87,0,9.27,0,13.73C198.79,733.57,206.37,733.57,214.85,733.53z M248,297.46
		c3.17-5.73,6.34-11.47,9.77-17.67c-7.28-1.77-13.75-3.34-20.46-4.97c3.02,7.93,5.77,15.23,8.62,22.49
		C246.1,297.74,247.06,297.85,248,297.46z M197.16,593.13c-3.2,0.6-6.4,1.2-9.8,1.84c0,2.34,0,4.75,0,7.47c6.56,0,12.88,0,19.56,0
		c-1.75-4.72-3.41-9.2-5.28-14.24C199.9,590.24,198.86,591.46,197.16,593.13z M176.91,313.61c3.62,12.85,9.12,24.74,17.94,34.96
		c-6.76-15.41-13.52-30.81-20.64-47.04C175.18,305.83,175.96,309.32,176.91,313.61z"/>
	<path class="st1" d="M752.74,399.25c-7.27-5.59-10.15-16.99-5.86-23.56c-1.19-1.26-2.39-2.55-4.21-4.48
		c-3.02,6.28-5.4,12.17-5.49,18.73c-0.05,3.26-0.27,6.41-4.26,6.62c-4.08,0.22-5.74-3.06-5.49-6.32c0.35-4.75,0.98-9.75,2.83-14.07
		c3.91-9.11,8.68-17.84,13.46-27.44c-0.98-2.37-2.4-5.84-4.32-10.49c-1.12,2.42-1.73,3.84-2.42,5.24
		c-5.1,10.27-10.63,20.35-15.19,30.85c-4.01,9.22-12.59,13.05-20.21,16.84c-13.47,6.69-27.98,11.3-42.12,16.61
		c-2.46,0.92-5.21,1.1-7.84,1.5c-9.34,1.41-10.52,0.81-14.51-7.91c-4.2-9.18-3.3-18.55-0.55-27.85c5.5-18.59,16.17-34.32,28.42-48.9
		c9.41-11.2,19.83-21.55,29.77-32.31c5.4-5.85,10.5-12,16.16-17.58c6.83-6.74,14.11-13.02,21.69-19.95
		c-4.84-3.35-8.34-5.26-11.2-7.87c-3.61-3.29-6.64-7.2-10.03-10.74c-1.46-1.52-3.51-2.54-4.73-4.19c-1.28-1.75-3.18-4.99-2.53-5.82
		c1.3-1.68,4.69-3.51,6.23-2.88c3.05,1.25,6.16,3.67,7.93,6.44c4.85,7.64,11.88,12.35,19.96,16.58c1.96-1.83,4.01-3.73,6.03-5.67
		c0.47-0.45,1.26-1.24,1.13-1.53c-1.65-3.72,0.48-6.5,2.04-9.52c1.33-2.57,2.27-5.34,3.41-8.07c-5.03-5.88-10.54-12.47-16.26-18.89
		c-1.13-1.27-3.04-1.84-4.58-2.74c-4.14-2.4-8.57-4.43-12.27-7.39c-1.25-1-0.65-4.31-0.9-6.56c2.26-0.09,4.79-0.87,6.74-0.13
		c4.47,1.7,8.77,3.96,12.92,6.35c2.31,1.33,4.36,3.25,6.22,5.2c1.64,1.73,2.85,3.88,5.02,5.96c-1.3-16.95,5.37-27.82,21.53-31.53
		c-6.96-8.4-14.05-17.19-21.44-25.73c-2.59-2.99-5.95-5.32-8.87-8.03c-2.21-2.05-3.93-4.46-1.55-7.36c2.36-2.88,5.11-1.9,7.47,0.08
		c9.71,8.14,19.29,16.4,25.21,28c0.68,1.32,2.26,2.25,3.55,3.19c4.23,3.08,8.39,6.31,12.87,8.99c1.6,0.95,4.08,0.3,6.09,0.72
		c3.95,0.82,6.63-1.64,9.95-2.82c15.15-5.4,21.01-20.86,33.38-29.01c2.91-1.92,5.58-4.22,8.51-6.11c2.51-1.63,5.6-1.91,6.78,1.16
		c0.66,1.71-0.19,5.25-1.6,6.29c-10.4,7.7-19.72,16.33-27.03,27.1c-1.28,1.89-3.73,2.98-6.33,4.96c7.72,2.03,13.03,6.16,16.83,12.32
		c3.89,6.31,3.62,13.13,2.26,20.15c0.45,0.19,0.9,0.37,1.35,0.56c1.59-1.92,3.12-3.9,4.8-5.74c1.31-1.44,2.58-3.2,4.26-3.96
		c5.42-2.46,10.95-4.78,16.61-6.6c1.61-0.52,4.67,0.24,5.51,1.47c0.85,1.25,0.49,4.85-0.6,5.6c-3.91,2.68-8.41,4.48-12.56,6.83
		c-2.48,1.4-4.92,2.99-7.04,4.87c-5.23,4.64-10.27,9.49-15.98,14.27c-5.61,1.09-5.51-3.03-6.41-6.29c-1.59,0.32-2.89,0.57-4.23,0.84
		c1.48,2.78,2.7,5.07,4.06,7.63c1.54,0,3.35,0,5.16,0c1.43,2.18,3,4.28,4.26,6.55c3.17,5.73,0.04,14.29,8.75,17.82
		c6.9-3.29,14.29-6.79,19.41-13.88c1.89-2.62,4.72-4.71,7.48-6.49c2.9-1.87,5.99-1.31,7.68,1.91c1.79,3.42,0.19,5.65-3.27,6.9
		c-1.05,0.38-2.31,0.98-2.85,1.86c-5.29,8.61-13.9,13-22.69,17.82c3.51,4.28,6.82,8.38,10.2,12.42c20.07,23.92,41.24,47,58.22,73.35
		c9.25,14.35,16.97,29.47,19.06,46.78c1.14,9.46-0.65,18.16-6.64,25.9c-2.27,2.94-4.7,3.84-8.18,3.08
		c-15.44-3.33-30.01-8.93-43.58-16.95c-7.26-4.29-14.3-9-21.08-14.01c-2.4-1.77-4.22-4.77-5.46-7.58
		c-4.92-11.08-9.5-22.31-14.2-33.48c-0.56-1.34-1.09-2.7-2.12-5.27c-2.21,4.18-3.9,7.39-5.72,10.84
		c6.79,10.66,12.03,22.1,13.98,34.78c0.44,2.87,0.48,6.16-0.55,8.76c-0.69,1.74-3.59,2.6-5.5,3.86c-1.2-1.9-3.06-3.67-3.47-5.72
		c-1.3-6.59-2.06-13.29-3.14-20.69c-4.13,2.4-4.49,4.19-4.29,7.77c0.44,7.93-1.73,15.52-9.2,20.27c-3.7-1.6-4.91-4.19-4.08-8
		c1.12-2.01,2.14-3.7,2.83-5.52c1.18-3.09,2.15-6.26,3.44-9.66c0.62-4.39,1-8.51,1.43-13.05c0.79-4.93,1.52-9.45,2.17-14.32
		c0.08-4.05,0.24-7.76,0.57-11.87c-0.09-5.55-0.35-10.68-0.29-15.81c0.6-4.52-1.88-7.67-5.09-10.87c-4.18-2.34-8.21-4.35-12.64-6.45
		c-2.54-0.8-4.69-1.49-6.94-2.52c-2.02-4.93-6.6-7.99-10.34-7.76c-3.35,0.21-8.86,1.75-10.33,7.28c-2.63,0.67-4.88,1.24-7.52,1.76
		c-4.06,1.39-7.73,2.83-11.73,4.33c-1.51,1.58-2.9,2.98-3.81,4.64c-1.23,2.25-2.08,4.7-3.07,7.44c-0.42,2.44-1.19,4.5-1.22,6.57
		c-0.04,3.27,0.42,6.54,0.55,10.21c-0.18,3.83-0.24,7.25-0.6,10.79c0.27,5.07,0.86,10.02,1.41,15.38c0.64,3.95,2.52,7.58-0.93,10.75
		c0.65,0.68,1.29,1.35,2.12,2.41c1.69,5.1,3.2,9.82,4.7,14.93C758.37,396.72,756.08,398.41,752.74,399.25z M741.53,297.43
		c0.02-0.47,0.04-0.95,0.56-1.9c1.53-6.25,3.06-12.51,4.38-19.51c-1.77-4.12-3.54-8.23-4.98-13.01c0.15-2.02,0.3-4.05,0.9-5.93
		c0.04-0.25,0.07-0.5,0.11-0.74c-0.16,0.23-0.32,0.47-1.15,0.81c-5.06,5.18-10.12,10.36-15.78,15.91
		c-11.81,13-23.63,25.99-36.09,39.17c-1.69,1.79-3.5,3.48-5.04,5.39c-4.58,5.68-9.05,11.45-13.54,17.21c0,0,0,0.03-0.61,0.08
		c-0.15,0.36-0.3,0.73-1.05,1.37c-9.47,11.07-16.89,23.41-21.74,37.13c-1.63,4.61-2.54,9.67-2.68,14.56
		c-0.32,10.94,2.84,12.88,13.9,9c3.08-1.01,6.15-2.03,9.98-3.05c5.23-2.07,10.63-3.79,15.65-6.28c7.63-3.79,16.14-6.23,22.54-13.38
		c3.97-6.09,7.95-12.18,12.34-18.8c0.02-0.22,0.03-0.45,0.02-0.8c0,0-0.13,0.02,0.52-0.37c3.3-7.45,7.02-14.74,9.79-22.37
		c3.66-10.1,6.57-20.47,9.63-30.74c0,0,0.06,0.17,0.76,0.03C740.31,300.11,740.67,299.03,741.53,297.43z M813.04,189.87
		c-1.14,4.33,0.53,6.86,4.97,8.33c1.43,2.5,2.86,5,4.42,7.75c5.71-7.54,3.28-17.59-4.68-20.64c-1.62-0.62-3.92,0.54-5.91,0.88
		C812.37,187.16,812.89,188.14,813.04,189.87z M772.55,188.49c0.01-1.31,0.38-3.6-0.04-3.76c-1.88-0.7-4.37-1.64-5.94-0.94
		c-7.58,3.4-11.23,13.25-4.97,20.14c1.23-2.48,2.33-4.71,4.21-6.75C770.83,196.71,772.99,194.06,772.55,188.49z M838.01,260.37
		c-0.23,0.03-0.46,0.06-0.7,0.09c0.19,0.17,0.37,0.34,0.46,1.37c0.14,1.93,0.29,3.87,0.11,6.48c-1.92,3.82-3.84,7.63-6.15,12.11
		c1.39,6.47,2.78,12.95,4.17,20.26c3.36,12.33,6.42,24.75,10.18,36.95c2.41,7.84,5.84,15.36,8.5,23.67
		c3.82,6.21,7.64,12.43,11.7,19.27c10.5,9.99,23.29,16.02,36.93,21.8c2.92,0.95,5.85,1.9,9.32,3.32c1.57,0.53,3.13,1.13,4.72,1.58
		c5.57,1.56,6.71,1.08,8.11-4.59c0.79-3.18,1.31-6.64,0.92-9.85c-2.19-18.34-10.39-34.13-21.35-49.27
		c-0.31-0.19-0.61-0.39-0.94-0.57c0,0,0.01-0.01,0.11-0.72c-6.17-8.11-12.33-16.22-18.72-25.04c-1.02-1.05-2.13-2.03-3.03-3.17
		c-9.6-12.07-19.16-24.17-28.83-36.85C848.36,271.74,843.19,266.27,838.01,260.37z M809.77,274.8c2.42,0.49,4.27,0.37,4.3-2.92
		c0.13-12.96,0.37-25.92,0.57-38.89c0.05-3.19-1.4-5.06-4.7-5.07c-13.46-0.03-26.93-0.13-40.38,0.15c-1.5,0.03-4.23,2.31-4.24,3.58
		c-0.16,13.44,0.12,26.88,0.01,41.05c0.45,0.41,0.88,1.16,1.34,1.17C780.75,274.16,794.84,274.37,809.77,274.8z M781.19,193.63
		c-2.8,4.16-5.61,8.31-8.64,12.8c10.86,1.51,12.58,2.91,13.34,10.2c3.78,0,7.55,0,11.59,0c0.26-8.93,7.43-8.1,13.28-9.1
		c-3.43-6.37-7.52-12.03-9.57-18.36c-1.63-5.03-3.9-7.21-8.82-7.24c-4.61-0.02-7.99,1.33-8.5,6.72
		C783.73,190.16,782.39,191.56,781.19,193.63z M821.67,284.48c-1.21,0.76-3.03,1.23-3.54,2.32c-2.55,5.37-6.33,8.3-12.5,7.47
		c-0.08-0.01-0.24,0.55-0.15,0.34c6.88,3.39,13.72,6.76,20.3,10C824.7,298.64,823.47,291.78,821.67,284.48z M761.22,287.14
		c-1.41-1.56-2.82-3.11-4.83-5.33c-1.97,7.8-3.62,14.35-5.22,20.71c5.72-2.72,11.26-5.36,16.57-7.88
		C765.67,292.35,763.62,290.07,761.22,287.14z M826.24,245.19c-0.4-0.57-0.8-1.13-1.82-2.57c0,9.99,0,18.85,0,27.81
		c1.08-2.56,2.09-4.94,3.11-7.32c0.85-2,1.21-4.71,2.72-5.76c1.28-0.89,3.9,0.15,6.16,0.36
		C833.07,253.71,829.8,249.78,826.24,245.19z M754.89,249c-0.08-1.39-0.17-2.78-0.25-4.17c-0.38-0.22-0.76-0.43-1.14-0.65
		c-2.87,3.36-5.75,6.73-8.71,10.19c9.31-3.44,6.46,5.8,8.89,9.72c0.4-0.17,0.8-0.34,1.21-0.51
		C754.88,259.01,754.88,254.45,754.89,249z M787.63,286.91c2.53,0.47,5.05,1.19,7.6,1.31c1.34,0.06,2.72-0.91,4.09-1.42
		c-0.18-0.6-0.35-1.2-0.53-1.81c-6.44-0.33-12.88-0.66-19.33-0.99c-0.23,0.58-0.46,1.15-0.69,1.73c1.23,0.72,2.4,1.88,3.7,2.05
		C783.83,287.98,785.32,287.21,787.63,286.91z M817.46,215.52c0.36,0.02,0.72,0.04,1.08,0.06
		C818.28,215.45,818.03,215.31,817.46,215.52z"/>
	<path class="st0" d="M245,901.08c-48.98,0.22-97.45,0.44-145.93,0.66c-0.67,0-1.33,0.03-2,0c-6.09-0.22-9.31-2.85-9.2-7.5
		c0.1-4.34,3.37-7.06,9.06-7.21c6.16-0.16,12.33-0.08,18.49-0.13c1.14-0.01,2.27-0.15,3.39-0.22
		c13.47-38.61,26.89-77.03,40.23-115.48c0.42-1.21,0.51-3-0.09-4.02c-4.38-7.3-2.02-12.31,6.48-12.66
		c16.64-0.68,33.29-1.17,49.95-1.57c9.47-0.23,18.96-0.09,28.43-0.18c6.04-0.06,8.7,3.42,10.47,8.75
		c8.4,25.41,16.95,50.77,25.61,76.09c5,14.61,10.41,29.08,15.44,43.68c1.19,3.45,2.73,5.13,6.67,4.75
		c4.46-0.43,8.99-0.16,13.48-0.14c6.69,0.03,10.46,2.74,10.41,7.42c-0.05,4.71-3.59,7.21-10.52,7.27
		C292.09,900.78,268.79,900.92,245,901.08z M140.82,868.35c-2.06,6.01-4.13,12.02-6.2,18.03c29.78,0,58.73,0,88.36,0
		c-10.64-39.71-21.12-78.83-31.56-117.84c-3.75,0-7.09,0.23-10.38-0.06c-4.18-0.37-5.96,1.4-7.32,5.35
		C162.97,805.14,151.96,836.35,140.82,868.35z M212.78,791.72c8.11,30.36,16.26,60.71,24.28,91.09c0.74,2.79,2,3.68,4.82,3.62
		c9.15-0.22,18.31-0.19,27.47-0.25c3.57-0.02,7.14,0,11.2,0c-0.6-1.93-0.91-3.02-1.27-4.09c-4.46-13.22-8.96-26.42-13.39-39.65
		c-8.13-24.27-16.21-48.56-24.43-72.79c-0.37-1.08-1.93-2.47-2.95-2.49c-10.46-0.18-20.92-0.11-32.31-0.11
		C208.55,775.94,210.53,783.44,212.78,791.72z"/>
	<path class="st0" d="M498.34,472.26c-4.95,2.08-9.42,4.51-14.19,5.76c-2.85,0.75-6.7,0.56-9.16-0.85c-3.21-1.84-3.01-5.7-1.29-8.96
		c1.45-2.75,2.77-5.74,4.85-7.97c15.33-16.45,30.81-32.77,46.31-49.07c7.42-7.8,13.61-7,18.99,2.3c2.73,4.72,5.41,9.47,8.21,14.38
		c10.25-5.34,20.07-10.54,29.98-15.57c2.49-1.27,5.19-2.34,7.92-2.9c5.81-1.19,10.33,3.62,8.72,9.28c-0.67,2.35-1.78,4.75-3.29,6.64
		c-12.8,15.95-25.76,31.77-38.62,47.68c-6.49,8.03-13.72,7.93-20.1-0.38c-2.03-2.64-4.48-5.04-6.09-7.9
		c-2.35-4.18-4.94-4.08-8.9-2.23C514.16,465.98,506.38,468.93,498.34,472.26z M544.55,459.06c1.14,0.51,3.09,1.69,3.29,1.44
		c5.59-6.86,10.99-13.87,16.43-20.85c-0.29-0.36-0.59-0.72-0.88-1.08c-2.77,1.28-5.49,2.7-8.33,3.81
		c-7.65,3.01-10.57,1.9-14.64-5.28c-2.43-4.29-4.89-8.57-7.6-13.31c-8.68,9.23-16.86,17.92-25.04,26.62
		c2.63,0.58,4.58,0.3,6.38-0.38c3.57-1.34,7.04-2.96,10.6-4.35c5.81-2.29,8.4-1.52,12.03,3.34
		C539.19,452.21,541.65,455.35,544.55,459.06z"/>
	<path class="st1" d="M814.67,405.05c-0.28,2.54,0.23,5.58-0.99,7.54c-5.58,8.97-12.76,16.55-21.79,22.21
		c-5.36,3.37-11.28,3.69-15.68-0.74c-7.2-7.24-13.75-15.17-20.04-23.22c-1.4-1.79-0.58-5.31-0.46-8.37c4.23-2.6,6.96-1.48,8.71,2.94
		c3.89,9.36,10.57,15.91,18.33,21.48c0.66,0.48,2.09,0.68,2.73,0.29c8.59-5.25,16.23-11.47,20.58-21.34
		C808.87,401.71,811.71,402.33,814.67,405.05z"/>
	<path class="st2" d="M764.42,405.01c-1.73-4.02-4.47-5.15-8.73-2.93c-1.22-0.75-2.08-1.44-2.95-2.49c3.33-1.19,5.62-2.88,5.62-7.2
		c11.75,0.9,23.04,2.72,34.4,3.36c6.69,0.38,13.49-1.11,20.24-1.76c-0.59,3.56,0.62,6.15,4.05,7.84c-0.54,1.1-1.06,1.88-1.98,2.94
		c-3.37-2.45-6.2-3.07-9.42,1.06c-11.74,1.46-22.81,3.75-33.92,0.19C769.42,405.29,766.87,405.33,764.42,405.01z"/>
	<path class="st2" d="M830.45,224.8c-2.02,0.35-3.83,0.35-5.38,0.35c-1.36-2.55-2.58-4.85-4.06-7.63c1.34-0.26,2.64-0.52,4.23-0.84
		c0.9,3.27,0.8,7.38,6.13,6.4C831.35,223.6,831.01,224.02,830.45,224.8z"/>
	<path class="st3" d="M243.13,558.95c-3.86-17.18-8.54-34.22-11.4-51.57c-4.93-29.92-5.6-60.03,0.39-89.96
		c2.35-11.72,4.94-23.5,12.31-33.42c8.58-11.56,18.57-13.54,30.83-5.85c12.13,7.61,20.64,18.71,28.31,30.5
		c2.94,4.53,5.6,9.25,7.72,14.57c-1.41-0.69-2.84-1.34-4.23-2.09c-14.8-7.94-29.6-15.9-44.39-23.85c-5.27-2.83-10.2-2.03-12.21,2
		c-2.06,4.13-0.06,8.22,5.43,11.15c21.13,11.27,42.3,22.48,63.32,33.95c2.38,1.3,4.69,3.82,5.71,6.32
		c16.62,40.65,26.42,82.96,30.23,126.67c0.22,2.49-0.55,5.29-1.58,7.62c-11.22,25.21-22.6,50.36-33.9,75.54
		c-0.74,1.65-1.48,3.39-1.76,5.15c-0.56,3.52,0.86,6.28,4.18,7.67c3.34,1.4,6.27,0.39,8.4-2.45c1.08-1.44,1.86-3.14,2.61-4.8
		c6.71-14.85,13.38-29.71,20.07-44.57c0.71-1.59,1.52-3.13,3.44-4.46c-0.26,4.83-0.43,9.67-0.8,14.5
		c-1.24,15.99-3.32,31.93-10.09,46.59c-3.12,6.76-8.26,12.67-12.96,18.58c-2.11,2.65-4.9,2.7-8.18,0.12
		c-20.4-16.04-35.51-36.38-48.32-58.6c-4.4-7.63-8.15-15.63-12.21-24.14c-0.37-1.16-0.72-1.66-1.07-2.15c0,0,0.02,0.01,0.06-0.39
		c-4.37-15.45-8.85-30.49-13.14-45.58C248.85,562.31,246.75,560.01,243.13,558.95z M261.58,535.9c-3.9,2.11-4.35,5.85-4.83,9.72
		c-0.5,4.05-0.24,7.81,3.65,9.97c4.24,2.35,6.9-0.66,9.88-3.24c4.87-4.22,2.1-8.5,0.45-12.62
		C269.27,536.11,266.33,534.44,261.58,535.9z"/>
	<path class="st4" d="M115.09,548c0-8.64,0-16.78,0-25.33c1.42-0.11,2.69-0.25,3.96-0.29c20.62-0.61,41.25-1.12,61.87-1.89
		c3.27-0.12,6.49-1.4,8.95-1.97c2.7,20.15,5.52,41.21,8.29,61.88c-27.17,0-54.81,0-83.06,0C115.09,569.67,115.09,559.09,115.09,548z
		"/>
	<path class="st4" d="M186.07,677c0-20.11,0-39.72,0-59.45c7.88-1.92,17.39,2.62,25.48-3.68c3.12,5.83,6.52,11.55,9.23,17.59
		c0.99,2.2,0.44,5.13,0.46,7.73c0.16,19.64,0.29,39.29,0.43,58.93c0.01,1.81,0,3.63,0,6.04c-11.81,0-23.32,0-35.6,0
		C186.08,695.37,186.08,686.44,186.07,677z"/>
	<path class="st4" d="M205.65,512c0.58-19.34,2.55-37.99,7.33-56.3c1.25,81.47,24.17,155.99,71.33,222.85
		c-42.94-30.18-66.31-72.22-75.04-122.8C206.82,541.54,206.79,526.93,205.65,512z"/>
	<path class="st3" d="M195.79,264.52c5.2,1.34,10.01,2.83,14.92,3.59c5.29,0.81,8.79,3.36,10.62,8.35
		c4.69,12.75,9.56,25.45,14,38.29c0.7,2.02,0.1,4.98-0.91,7c-3.51,6.98-7.49,13.71-11.24,20.57c-3.14,5.73-2.65,9.97,1.32,12.29
		c3.95,2.3,7.93,0.56,11.3-4.9c0.5-0.81,1.13-1.55,1.7-2.32c0.39,0.19,0.78,0.37,1.17,0.56c-2.26,5.35-4.51,10.71-7.35,17.45
		c-6.01-5.8-11.55-9.96-15.59-15.25c-19.87-26.01-30.38-55.49-31.36-88.28c-0.06-1.99,0.08-4,0.37-5.97
		c1.27-8.75,6.51-11.09,14.26-6.12c-4.31,0.75-8.24,2.01-8.7,6.93C189.93,260.44,191.9,263.02,195.79,264.52z M209.92,306.85
		c-1.33-4.43-4.6-6.39-8.66-4.81c-1.96,0.76-4.08,3.91-4.17,6.05c-0.15,3.64,2.71,5.96,6.47,6.03
		C207.73,314.19,209.86,311.78,209.92,306.85z"/>
	<path class="st4" d="M214.4,733.55c-8.03,0.02-15.61,0.02-23.45,0.02c0-4.46,0-8.85,0-13.73c8.45,0,16.78,0,25.73,0
		c0,3.93,0.08,7.86-0.08,11.77C216.57,732.27,215.46,732.89,214.4,733.55z"/>
	<path class="st5" d="M247.83,297.78c-0.77,0.07-1.73-0.04-1.9-0.46c-2.85-7.26-5.6-14.56-8.62-22.49
		c6.71,1.63,13.18,3.2,20.46,4.97C254.34,286,251.17,291.73,247.83,297.78z"/>
	<path class="st4" d="M243.1,559.34c3.65,0.67,5.75,2.97,6.81,6.69c4.29,15.09,8.77,30.13,13.14,45.59
		c-6.37-15.91-12.7-32.23-19.01-48.55C243.62,561.99,243.38,560.84,243.1,559.34z"/>
	<path class="st4" d="M197.49,592.91c1.37-1.44,2.41-2.67,4.15-4.71c1.87,5.04,3.53,9.52,5.28,14.24c-6.68,0-13,0-19.56,0
		c0-2.71,0-5.12,0-7.47C190.76,594.33,193.96,593.73,197.49,592.91z"/>
	<path class="st4" d="M176.82,313.21c-0.86-3.89-1.64-7.38-2.61-11.68c7.12,16.23,13.88,31.64,20.64,47.04
		C186.03,338.35,180.53,326.46,176.82,313.21z"/>
	<path class="st4" d="M262.97,612.31c0.37,0.18,0.72,0.67,1.03,1.48C263.63,613.62,263.29,613.12,262.97,612.31z"/>
	<path class="st6" d="M885.61,317.94c6.17,8.11,12.33,16.22,18.09,24.71c-7.8-4.69-15.2-9.76-22.6-14.83
		c-0.54,0.44-1.07,0.88-1.61,1.33c3.34,6.68,6.07,13.77,10.17,19.95c7.45,11.22,12.31,23.49,16.46,36.12
		c2.17,6.6,3.92,13.33,5.86,20.01c-2.92-0.95-5.85-1.9-8.92-3.58c-3.85-17.05-9.83-32.35-20.19-46.14c-6.05-0.34-12-0.31-17.95-0.27
		c0.05,0.63,0.1,1.26,0.19,2.27c3.03,7.62,1.78,15.04,0.93,22.44c-3.82-6.21-7.64-12.43-11.29-19.46
		c0.27-22.23-6.98-41.41-17.28-59.55c2.89-0.32,5.38-0.63,8.12-0.73c1.25,1.49,2.49,2.66,3.19,4.1c1.49,3.04,3.62,3.88,6.97,2.48
		c-0.5-2.01-1.28-3.9-2.27-5.96c-0.31-0.7-0.4-1.23-0.23-2.02c0.98-2.66-0.01-6.36,4.87-5.71c1.83,2.84,3.42,5.51,4.81,8.28
		c1.02,2.04,1.21,5.19,2.79,6.13C872.13,311.34,878.94,314.52,885.61,317.94z M873.21,347.02c0.21-1.44,0.88-3,0.53-4.28
		c-0.41-1.5-1.99-2.65-2.58-4.14c-2.28-5.8-4.4-11.65-6.52-17.51c-1.5-4.15-4.3-5.01-8.51-3.42c0.11,1.1,0,2.27,0.35,3.29
		c2.4,7.05,5.27,13.96,7.24,21.13C865.12,347.17,867.37,349.14,873.21,347.02z"/>
	<path class="st6" d="M670.87,334.81c4.51-5.74,8.98-11.51,13.56-17.19c1.54-1.91,3.35-3.6,5.74-5.54
		c10.73-4.29,22.12-6.52,25.98-19.07c0.58-1.9,2.58-3.36,4.3-5c4.1,1.16,3.7,4.16,3.54,7.02c-0.01-0.04,0.07-0.05-0.16,0.07
		c-0.44,0.4-0.64,0.68-0.85,0.92c0-0.04,0.07-0.04-0.17,0.14c-0.43,0.76-0.62,1.33-0.81,1.87c-0.01-0.03,0.06-0.05-0.22,0.12
		c-0.2,1.32-0.11,2.47,0.23,3.91c2.88,1.62,4.8,1.05,6.32-1.59c0.76-1.32,2.09-2.32,3.62-3.49c2.68,0.37,4.91,0.76,7.12,1.56
		c0.05,1.2,0.12,2,0.19,2.8c0,0-0.06-0.17-0.33-0.13c-1.9,1.89-4,3.5-5.07,5.63c-3.11,6.19-5.85,12.57-8.64,18.92
		c-4.05,9.21-6.47,18.77-6.09,28.92c0,0,0.13-0.02-0.02,0.17c-0.27,0.26-0.48,0.35-0.47,0.41c0.03,0.25,0.12,0.49,0.19,0.73
		c-3.97,6.09-7.95,12.18-12.35,17.86c0.14-7.82,0.71-15.23,1.64-22.75c0.64-0.57,0.92-1.04,1.2-1.51
		c-5.43-0.16-10.85-0.33-16.52-0.26c-1.73,1.2-3.77,1.83-4.63,3.2c-4.74,7.49-9.65,14.93-13.6,22.83
		c-2.91,5.83-4.45,12.35-6.59,18.57c-3.08,1.01-6.15,2.03-9.58,2.62c3.62-10.08,7.49-19.78,11.6-29.38
		c4.31-10.07,9.78-19.3,17.12-27.67c3.92-4.47,5.53-10.97,8.19-16.55c-0.39-0.36-0.77-0.72-1.16-1.08
		c-3.38,1.87-6.76,3.72-10.13,5.6C679.61,329.91,675.25,332.36,670.87,334.81z M712.01,334.49c3.02-7.23,6.04-14.46,9.09-21.77
		c-4.65-1.4-7.95-1.18-9.97,3c-3.9,8.09-7.89,16.15-11.8,24.23c-0.1,0.21,0.17,0.6,0.28,0.91
		C706.68,343.68,708.13,343.01,712.01,334.49z"/>
	<path class="st6" d="M765.6,271.97c-0.16-13.44-0.44-26.88-0.28-40.32c0.01-1.26,2.74-3.55,4.24-3.58
		c13.46-0.28,26.92-0.18,40.38-0.15c3.3,0.01,4.75,1.88,4.7,5.07c-0.2,12.96-0.44,25.92-0.57,38.89c-0.03,3.28-1.88,3.41-4.81,2.44
		c-0.81-2.75-1.36-5.02-1.38-7.29c-0.09-10.42-0.04-20.84-0.04-31.44c-12.21,0-23.8,0-35.92,0c0,9.76,0,19.3,0,29.45
		c8.62,0,17.16,0,25.73,0c0-6.52,0-12.95,0-19.69c-5.09,0-9.9-0.28-14.62,0.22c-1.01,0.11-2.29,3.01-2.42,4.71
		c-0.15,1.84-1.9,5.3,2.51,5.21c0.25-0.43,0.52-0.69,0.57-0.99c0.84-5.22,2.49-6.49,7.56-6.07c4.53,0.38,4.03,3.51,3.82,6.58
		c-0.07,0.99,0.01,1.99,0.1,2.98c0.26,2.99-1.27,4.35-4.09,4.38c-4.16,0.05-8.32-0.07-12.48,0.03c-3.66,0.09-5.07-1.62-4.97-5.17
		c0.13-4.49,0.14-8.99,0-13.48c-0.13-4.1,2-5.79,5.75-5.83c6.82-0.09,13.65-0.04,20.47-0.09c3.47-0.02,5.27,1.59,5.3,5.11
		c0.06,8.32,0.11,16.64,0.21,24.96c0.05,3.7-2.11,5.11-5.37,5.04C788.53,272.7,777.07,272.31,765.6,271.97z"/>
	<path class="st5" d="M912.26,405.46c-2.21-6.91-3.96-13.65-6.13-20.25c-4.16-12.63-9.01-24.9-16.46-36.12
		c-4.1-6.18-6.83-13.27-10.17-19.95c0.54-0.44,1.07-0.88,1.61-1.33c7.4,5.07,14.79,10.14,22.55,15.19c0.36-0.02,0.35-0.01,0.37,0.27
		c0.32,0.48,0.62,0.68,0.93,0.89c10.96,14.54,19.15,30.34,21.34,48.68c0.38,3.21-0.14,6.67-0.92,9.85c-1.4,5.67-2.54,6.14-8.11,4.59
		C915.66,406.83,914.1,406.23,912.26,405.46z"/>
	<path class="st5" d="M670.88,334.82c4.36-2.46,8.73-4.91,13.11-7.35c3.37-1.88,6.76-3.74,10.13-5.6c0.39,0.36,0.77,0.72,1.16,1.08
		c-2.65,5.58-4.27,12.08-8.19,16.55c-7.34,8.37-12.81,17.6-17.12,27.67c-4.11,9.6-7.98,19.3-11.98,29.33
		c-10.33,4.36-13.5,2.42-13.18-8.52c0.14-4.89,1.05-9.96,2.68-14.56c4.85-13.72,12.26-26.05,22.34-37.31
		c0.75-0.53,0.91-0.88,1.06-1.23C670.89,334.86,670.89,334.83,670.88,334.82z"/>
	<path class="st5" d="M882.96,355.89c10.27,13.41,16.25,28.71,19.9,45.48c-13.3-4.78-26.1-10.81-36.71-21.11
		c0.74-7.71,1.99-15.13-0.63-22.79C871.6,356.67,877.28,356.28,882.96,355.89z"/>
	<path class="st5" d="M668.33,393.92c1.77-6.21,3.31-12.73,6.22-18.56c3.95-7.91,8.86-15.35,13.6-22.83
		c0.87-1.37,2.9-1.99,5.02-3.15c5.28,0.48,9.93,1.16,14.58,1.83c-0.57,7.41-1.14,14.82-1.63,22.72
		c-5.63,7.49-14.14,9.93-21.77,13.72C679.33,390.13,673.93,391.85,668.33,393.92z"/>
	<path class="st7" d="M813.25,393.74c-6.99,0.91-13.79,2.4-20.48,2.02c-11.36-0.64-22.65-2.46-34.39-3.75
		c-1.93-4.69-3.43-9.41-4.63-14.56c1.79-0.32,3.28-0.25,4.76-0.08c10.68,1.21,21.34,3.14,32.05,3.44
		c9.55,0.27,19.15-1.26,28.73-1.99c-1.06,3.14-2.03,6.31-3.2,9.4C815.39,390.04,814.37,391.73,813.25,393.74z"/>
	<path class="st2" d="M819.52,378.56c-9.82,0.99-19.42,2.52-28.97,2.25c-10.71-0.3-21.37-2.24-32.05-3.44
		c-1.48-0.17-2.96-0.24-4.94-0.3c-1.14-0.62-1.78-1.3-2.43-1.97c3.45-3.17,1.57-6.81,1.32-10.75c22.92,6.31,45.61,6.62,68.45,1.58
		C820.52,370.05,820.14,374.17,819.52,378.56z"/>
	<path class="st2" d="M818.46,312.99c3.07,2.85,5.54,6,4.51,10.62c-2.72,0.43-4.67,0.83-6.64,1.1c-12.83,1.77-25.67,3.73-38.63,1.37
		c-8.62-1.57-17.2-3.38-25.8-5.09c1.01-2.37,1.87-4.82,3.1-7.07c0.91-1.66,2.3-3.06,3.86-4.3c0.82,0.74,1.2,1.52,1.69,1.59
		c11.09,1.56,22.16,3.78,33.31,4.27C802.01,315.85,810.25,313.9,818.46,312.99z"/>
	<path class="st2" d="M823.52,339.74c-0.16,3.7-0.32,7.4-0.75,11.6c-1.47,0.87-2.66,1.24-4.28,1.59c-2.23,0.2-4.04,0.31-5.82,0.64
		c-5.23,0.97-10.27,1.61-15.59-0.38c-3.05-1.14-6.73-0.57-11.34-0.84c-1.9-0.09-5.14-1-7.88-0.2c-5.86,1.71-11.34,1.42-16.95-0.62
		c-1.5-0.55-3.25-0.41-5.15-0.83c-1.77-0.79-3.28-1.34-4.78-1.88c0.06-3.42,0.11-6.84,0.67-10.64
		C775.76,344.69,799.54,345.77,823.52,339.74z"/>
	<path class="st2" d="M781.39,193.32c0.99-1.76,2.33-3.16,2.48-4.67c0.52-5.39,3.9-6.74,8.5-6.72c4.92,0.02,7.19,2.2,8.82,7.24
		c2.04,6.32,6.13,11.99,9.57,18.36c-5.85,1-13.02,0.17-13.28,9.1c-4.03,0-7.81,0-11.59,0c-0.76-7.29-2.48-8.68-13.34-10.19
		C775.58,201.94,778.39,197.78,781.39,193.32z"/>
	<path class="st7" d="M823.69,339.32c-24.15,6.45-47.93,5.37-71.94-1.53c-0.62-3.3-1.09-6.58-1.05-9.84
		c0.03-2.07,0.8-4.13,1.22-6.57c8.57,1.33,17.15,3.15,25.77,4.71c12.96,2.36,25.8,0.4,38.63-1.37c1.97-0.27,3.92-0.67,6.32-1.11
		C823.34,328.64,823.6,333.77,823.69,339.32z M752.98,329.31c1.04,4.85,4.25,7.07,8.99,7.72c3.05,0.42,6.05,1.2,9.07,1.86
		c1.45,0.32,3.4,1.49,4.21,0.93c2.49-1.68,5.7-3.66,6.48-6.18c1.16-3.78-2.55-3.51-5.23-3.72c-1.56-0.12-3.05-0.95-4.6-1.35
		c-2.19-0.57-4.41-1.04-6.62-1.54c-2.06-0.46-4.19-0.72-6.19-1.38C756.04,324.64,753.48,324.23,752.98,329.31z M795.53,339
		c3.23,2.45,6.52,1.4,9.89,0.31c1.49-0.48,3.16-0.89,4.68-0.72c4.05,0.46,7.48-0.4,10.32-3.45c1.75-1.87,4.11-4,1.56-6.23
		c-1.38-1.21-4.35-1.08-6.52-0.81c-5.49,0.69-10.93,1.77-16.38,2.76c-1.89,0.34-5.15,0.61-5.32,1.41
		C793.38,334.18,794.47,336.39,795.53,339z"/>
	<path class="st2" d="M765.47,272.34c11.6-0.03,23.06,0.36,34.53,0.62c3.26,0.07,5.42-1.34,5.37-5.04
		c-0.1-8.32-0.15-16.64-0.21-24.96c-0.02-3.52-1.83-5.14-5.3-5.11c-6.82,0.05-13.65,0-20.47,0.09c-3.75,0.05-5.88,1.73-5.75,5.83
		c0.15,4.49,0.13,8.99,0,13.48c-0.1,3.55,1.31,5.26,4.97,5.17c4.16-0.1,8.32,0.02,12.48-0.03c2.82-0.04,4.34-1.39,4.09-4.38
		c-0.09-0.99-0.16-1.99-0.1-2.98c0.21-3.07,0.71-6.2-3.82-6.58c-5.08-0.42-6.73,0.85-7.56,6.07c-0.05,0.3-0.31,0.56-0.57,0.99
		c-4.41,0.09-2.65-3.36-2.51-5.21c0.13-1.7,1.41-4.6,2.42-4.71c4.73-0.5,9.54-0.22,14.62-0.22c0,6.74,0,13.16,0,19.69
		c-8.57,0-17.11,0-25.73,0c0-10.16,0-19.69,0-29.45c12.11,0,23.7,0,35.92,0c0,10.6-0.05,21.02,0.04,31.44
		c0.02,2.27,0.56,4.54,0.95,7.19c-14,0.15-28.09-0.06-42.17-0.34C766.21,273.87,765.78,273.11,765.47,272.34z"/>
	<path class="st7" d="M818.91,352.94c1.19-0.37,2.38-0.73,3.94-1.25c-0.37,4.37-1.11,8.89-1.89,13.82
		c-22.9,5.45-45.58,5.14-68.47-1.59c-0.97-4.95-1.56-9.9-1.83-14.97c1.82,0.42,3.32,0.97,4.93,2.09
		c-3.09,5.86,0.13,11.22,7.32,11.85c7.49,0.65,14.9,0.19,21.7-3.81c1.01-0.6,2.89-0.04,4.27,0.35c6.29,1.78,12.45,4.62,18.85,5.31
		C815.82,365.61,820.81,359.61,818.91,352.94z"/>
	<path class="st5" d="M731.49,297c-1.07,1.14-2.4,2.14-3.16,3.46c-1.52,2.63-3.44,3.2-6.25,1.21c-0.13-1.67-0.08-2.69-0.02-3.7
		c0,0-0.07,0.01,0.24-0.08c0.46-0.7,0.61-1.31,0.76-1.92c0,0-0.07,0.01,0.2-0.02c0.45-0.34,0.63-0.66,0.81-0.98
		c0,0-0.07,0.02,0.22-0.16c3.01-5.64,5.61-11.16,8.48-16.54c2.65-4.95,5.59-9.74,8.4-14.61c1.77,4.12,3.54,8.23,5.12,12.96
		C741.22,283.83,736.35,290.41,731.49,297z"/>
	<path class="st5" d="M855.46,306.9c-3.07,1.29-5.2,0.44-6.69-2.6c-0.7-1.44-1.94-2.61-3.42-4.38c-4.73-7.04-8.98-13.6-13.23-20.16
		c1.92-3.82,3.84-7.63,6.24-11.63c2.19,2.94,4.14,5.95,5.57,9.19c3.16,7.18,6.05,14.48,9.04,21.74c0.09,0.53,0.19,1.06,0.62,2.14
		C854.44,303.46,854.95,305.18,855.46,306.9z"/>
	<path class="st8" d="M798.84,304.01c2.15,0.7,4.3,1.4,6.83,2.56c0.31,4.78-2.67,6.22-6.18,6.35c-6.44,0.24-12.91,0.32-19.34-0.04
		c-6.65-0.37-8.71-2.42-9.22-7.88c2.25-0.57,4.5-1.14,7.56-1.85C785.82,303.35,792.33,303.68,798.84,304.01z"/>
	<path class="st3" d="M885.5,317.59c-6.56-3.07-13.37-6.25-19.79-10.09c-1.58-0.94-1.76-4.1-2.79-6.13
		c-1.39-2.77-2.97-5.44-4.8-8.64c-1.05-2.45-1.91-4.38-2.48-6.39c-0.79-2.81-1.37-5.69-2.03-8.53
		c9.57,12.09,19.14,24.19,28.74,36.26C883.26,315.2,884.37,316.18,885.5,317.59z"/>
	<path class="st3" d="M720.08,287.99c-1.34,1.66-3.34,3.13-3.93,5.02c-3.86,12.55-15.25,14.78-25.65,18.97
		c11.44-12.94,23.26-25.94,35.32-38.71c-0.41,2.08-0.99,3.96-1.75,5.77C722.8,282.06,721.42,285.01,720.08,287.99z"/>
	<path class="st3" d="M837.06,300.95c10.71,18.12,17.96,37.3,17.84,59.21c-2.98-7.17-6.41-14.69-8.83-22.53
		c-3.76-12.21-6.82-24.63-9.96-37.2C836.57,300.44,836.82,300.7,837.06,300.95z"/>
	<path class="st3" d="M719.44,354.48c-0.71-9.95,1.71-19.52,5.76-28.73c2.79-6.35,5.54-12.73,8.64-18.92
		c1.07-2.13,3.17-3.74,5.16-5.62c-2.87,10.22-5.78,20.6-9.45,30.7C726.79,339.54,723.07,346.83,719.44,354.48z"/>
	<path class="st7" d="M853.57,277.51c0.71,3.14,1.28,6.01,2.08,8.83c0.57,2.01,1.42,3.93,2.14,6.26c-4.55-0.16-3.57,3.54-4.55,6.2
		c-3.27-6.99-6.16-14.29-9.31-21.48c-1.42-3.24-3.38-6.25-5.41-9.53c-0.46-2.1-0.6-4.03-0.64-6.42c0.11-0.45,0.13-0.58,0.13-0.58
		C843.19,266.27,848.36,271.74,853.57,277.51z"/>
	<path class="st7" d="M720.45,288.01c0.97-3,2.35-5.95,3.62-8.96c0.76-1.81,1.34-3.7,2.05-5.96c5.12-5.59,10.17-10.77,15.55-16.02
		c0.32-0.08,0.27-0.13,0.27-0.13c-0.15,2.02-0.3,4.05-0.62,6.4c-2.98,5.19-5.92,9.99-8.56,14.94c-2.87,5.38-5.47,10.9-8.48,16.57
		C724.16,292.17,724.55,289.17,720.45,288.01z"/>
	<path class="st7" d="M770.54,304.95c0.9,5.52,2.96,7.57,9.61,7.94c6.43,0.36,12.9,0.28,19.34,0.04c3.51-0.13,6.49-1.57,6.57-6.26
		c4.04,1.63,8.08,3.63,12.26,5.98c-8.06,1.26-16.3,3.21-24.45,2.85c-11.15-0.49-22.22-2.72-33.31-4.27
		c-0.49-0.07-0.87-0.85-1.36-1.65C762.81,307.78,766.48,306.34,770.54,304.95z"/>
	<path class="st8" d="M826.38,245.52c3.42,4.26,6.69,8.19,10.03,12.19c-2.26-0.21-4.88-1.25-6.16-0.36
		c-1.51,1.05-1.87,3.76-2.72,5.76c-1.02,2.38-2.02,4.77-3.11,7.32c0-8.97,0-17.83,0-27.81
		C825.44,244.05,825.84,244.62,826.38,245.52z"/>
	<path class="st2" d="M765.04,197c-1.1,2.23-2.21,4.45-3.44,6.93c-6.26-6.89-2.61-16.75,4.97-20.14c1.57-0.7,4.06,0.24,5.94,0.94
		c0.42,0.16,0.05,2.45-0.37,3.96c-2.42,0.52-5.48,0.2-6.18,1.33C764.82,191.84,765.26,194.62,765.04,197z"/>
	<path class="st2" d="M813.42,189.12c-0.53-0.98-1.05-1.95-1.58-2.93c1.99-0.34,4.29-1.5,5.91-0.88c7.95,3.05,10.39,13.1,4.68,20.64
		c-1.57-2.74-3-5.25-4.15-8.28c0.84-2.15,2.21-4.01,1.81-5.33C819.18,189.28,816.58,188.28,813.42,189.12z"/>
	<path class="st7" d="M731.95,296.98c4.41-6.56,9.27-13.15,14.43-19.97c-1.23,6.02-2.76,12.27-4.88,18.85
		c-1.18,0.96-1.78,1.6-2.41,2.24c-0.02,0-0.01,0.05-0.01,0.05C736.86,297.74,734.63,297.35,731.95,296.98z"/>
	<path class="st7" d="M837.47,300.93c-0.65-0.24-0.9-0.49-1.35-0.92c-1.6-6.64-2.99-13.12-4.19-19.92
		c4.44,6.23,8.69,12.79,13.17,19.63C842.85,300.31,840.36,300.61,837.47,300.93z"/>
	<path class="st7" d="M798.73,303.68c-6.4,0-12.91-0.32-19.86-0.62c0.66-5.39,6.16-6.94,9.52-7.14
		C792.13,295.69,796.71,298.75,798.73,303.68z"/>
	<path class="st8" d="M754.88,249.44c0,5.01,0,9.57,0,14.14c-0.4,0.17-0.8,0.34-1.21,0.51c-2.43-3.92,0.43-13.16-8.89-9.72
		c2.96-3.47,5.83-6.83,8.71-10.19c0.38,0.22,0.76,0.43,1.14,0.65C754.72,246.22,754.8,247.61,754.88,249.44z"/>
	<path class="st2" d="M787.19,286.89c-1.87,0.32-3.36,1.09-4.72,0.9c-1.3-0.17-2.47-1.33-3.7-2.05c0.23-0.58,0.46-1.15,0.69-1.73
		c6.44,0.33,12.88,0.66,19.33,0.99c0.18,0.6,0.35,1.2,0.53,1.81c-1.36,0.51-2.75,1.48-4.09,1.42
		C792.68,288.1,790.16,287.38,787.19,286.89z"/>
	<path class="st6" d="M765.43,197.09c-0.17-2.47-0.6-5.25,0.52-7.07c0.7-1.13,3.76-0.81,6.06-0.98
		C772.99,194.06,770.83,196.71,765.43,197.09z"/>
	<path class="st6" d="M813.23,189.5c3.35-1.22,5.95-0.22,6.87,2.84c0.4,1.33-0.97,3.18-1.84,5
		C813.57,196.73,811.9,194.2,813.23,189.5z"/>
	<path class="st3" d="M739.6,301.26c-0.42-0.73-0.49-1.53-0.54-2.73c0.02-0.4,0.01-0.45,0.35-0.46c0.77-0.05,1.19-0.09,1.62-0.13
		C740.67,299.03,740.31,300.11,739.6,301.26z"/>
	<path class="st6" d="M741.28,297.69c-0.67,0.3-1.1,0.34-1.85,0.39c0.28-0.63,0.88-1.27,1.82-1.99
		C741.57,296.48,741.55,296.95,741.28,297.69z"/>
	<path class="st2" d="M817.61,215.35c0.41-0.04,0.67,0.1,0.92,0.23C818.18,215.56,817.82,215.54,817.61,215.35z"/>
	<path class="st3" d="M719.02,355.72c-0.28,0.02-0.37-0.22-0.4-0.47c-0.01-0.06,0.21-0.15,0.49-0.34
		C719.26,355.01,719.24,355.23,719.02,355.72z"/>
	<path class="st6" d="M904.94,343.87c-0.3,0.09-0.6-0.11-0.91-0.59C904.32,343.18,904.63,343.38,904.94,343.87z"/>
	<path class="st7" d="M742.01,257.01c0.18-0.21,0.34-0.44,0.5-0.68c-0.04,0.25-0.07,0.5-0.33,0.67
		C741.94,256.94,741.99,256.99,742.01,257.01z"/>
	<path class="st6" d="M670.59,334.88c0.15,0.32,0,0.67-0.45,1.07C669.98,335.64,670.13,335.27,670.59,334.88z"/>
	<path class="st8" d="M837.93,260.95c-0.25-0.15-0.43-0.32-0.62-0.49c0.23-0.03,0.46-0.06,0.7,0.12
		C838.02,260.8,837.99,260.93,837.93,260.95z"/>
	<path class="st4" d="M140.93,867.97c11.04-31.62,22.05-62.84,32.79-94.14c1.36-3.95,3.14-5.72,7.32-5.35
		c3.29,0.29,6.63,0.06,10.38,0.06c10.45,39.01,20.93,78.13,31.56,117.84c-29.64,0-58.59,0-88.36,0
		C136.69,880.36,138.75,874.35,140.93,867.97z"/>
	<path class="st4" d="M212.64,791.33c-2.11-7.89-4.1-15.39-6.45-24.3c11.39,0,21.85-0.07,32.31,0.11c1.03,0.02,2.59,1.41,2.95,2.49
		c8.22,24.24,16.3,48.53,24.43,72.79c4.43,13.23,8.93,26.43,13.39,39.65c0.36,1.07,0.67,2.17,1.27,4.09c-4.06,0-7.63-0.02-11.2,0
		c-9.16,0.05-18.32,0.03-27.47,0.25c-2.83,0.07-4.08-0.82-4.82-3.62C229.03,852.43,220.89,822.08,212.64,791.33z"/>
	<path class="st8" d="M544.31,458.79c-2.67-3.44-5.12-6.58-7.51-9.78c-3.63-4.86-6.22-5.63-12.03-3.34
		c-3.55,1.4-7.02,3.01-10.6,4.35c-1.8,0.68-3.76,0.96-6.38,0.38c8.18-8.7,16.36-17.39,25.04-26.62c2.71,4.74,5.17,9.02,7.6,13.31
		c4.07,7.18,6.99,8.29,14.64,5.28c2.84-1.11,5.55-2.53,8.33-3.81c0.29,0.36,0.59,0.72,0.88,1.08c-5.44,6.98-10.85,13.99-16.43,20.85
		C547.64,460.75,545.69,459.57,544.31,458.79z"/>
	<path class="st7" d="M764.44,405.41c2.43-0.08,4.99-0.12,7.29,0.62c11.11,3.56,22.19,1.27,33.7,0.1
		c-3.71,9.58-11.34,15.8-19.93,21.05c-0.63,0.39-2.06,0.19-2.73-0.29C775,421.32,768.33,414.76,764.44,405.41z"/>
	<path class="st1" d="M261.93,535.76c4.41-1.32,7.34,0.35,8.79,3.96c1.66,4.13,4.42,8.41-0.45,12.62c-2.98,2.58-5.64,5.59-9.88,3.24
		c-3.89-2.16-4.15-5.92-3.65-9.97C257.22,541.74,257.68,538,261.93,535.76z"/>
	<path class="st1" d="M209.96,307.24c-0.1,4.54-2.23,6.95-6.4,6.88c-3.77-0.07-6.62-2.39-6.47-6.03c0.09-2.15,2.21-5.3,4.17-6.05
		C205.31,300.46,208.58,302.42,209.96,307.24z"/>
	<path class="st5" d="M872.81,347.04c-5.45,2.09-7.7,0.12-9.1-4.96c-1.97-7.16-4.84-14.08-7.24-21.13
		c-0.35-1.02-0.24-2.18-0.35-3.29c4.21-1.59,7.01-0.73,8.51,3.42c2.11,5.86,4.24,11.72,6.52,17.51c0.59,1.49,2.17,2.64,2.58,4.14
		C874.09,344.02,873.42,345.58,872.81,347.04z"/>
	<path class="st4" d="M882.87,355.5c-5.59,0.77-11.28,1.17-17.38,1.59c-0.47-0.6-0.52-1.23-0.57-1.86
		C870.87,355.2,876.83,355.16,882.87,355.5z"/>
	<path class="st7" d="M855.74,306.78c-0.79-1.6-1.3-3.32-1.93-5.42C854.46,302.88,855.24,304.77,855.74,306.78z"/>
	<path class="st5" d="M711.91,334.86c-3.78,8.14-5.23,8.81-12.31,6.01c-0.1-0.31-0.38-0.7-0.28-0.91c3.92-8.09,7.9-16.14,11.8-24.23
		c2.02-4.19,5.32-4.4,9.97-3C718.05,320.03,715.03,327.26,711.91,334.86z"/>
	<path class="st4" d="M708.1,351.1c-5-0.57-9.65-1.24-14.69-1.96c5.04,0.12,10.47,0.28,15.89,0.45
		C709.01,350.05,708.73,350.52,708.1,351.1z"/>
	<path class="st7" d="M721.77,298.14c0.23,0.85,0.18,1.86,0.05,3.25C721.66,300.61,721.58,299.46,721.77,298.14z"/>
	<path class="st7" d="M722.81,296.16c0.09,0.43-0.06,1.03-0.51,1.77C722.19,297.49,722.38,296.91,722.81,296.16z"/>
	<path class="st7" d="M723.83,295.1c0.05,0.2-0.13,0.51-0.58,0.89C723.19,295.78,723.39,295.5,723.83,295.1z"/>
	<path class="st8" d="M818.48,352.93c2.32,6.68-2.66,12.68-10.77,11.81c-6.4-0.68-12.55-3.53-18.85-5.31
		c-1.38-0.39-3.25-0.95-4.27-0.35c-6.8,4-14.21,4.46-21.7,3.81c-7.2-0.63-10.41-5.99-7.06-11.61c1.8-0.15,3.55-0.28,5.06,0.26
		c5.62,2.04,11.1,2.33,16.95,0.62c2.74-0.8,5.98,0.11,7.88,0.2c4.61,0.27,8.29-0.3,11.34,0.84c5.32,1.99,10.37,1.35,15.59,0.38
		C814.44,353.24,816.26,353.13,818.48,352.93z"/>
	<path class="st8" d="M752.98,328.9c0.5-4.67,3.06-4.27,6.11-3.25c2,0.66,4.12,0.92,6.19,1.38c2.21,0.49,4.43,0.97,6.62,1.54
		c1.55,0.4,3.04,1.23,4.6,1.35c2.68,0.21,6.39-0.06,5.23,3.72c-0.77,2.52-3.99,4.5-6.48,6.18c-0.82,0.55-2.77-0.62-4.21-0.93
		c-3.02-0.66-6.02-1.44-9.07-1.86C757.23,336.38,754.02,334.16,752.98,328.9z"/>
	<path class="st8" d="M795.25,338.74c-0.77-2.35-1.86-4.56-1.48-6.47c0.16-0.8,3.43-1.06,5.32-1.41c5.45-0.99,10.89-2.07,16.38-2.76
		c2.16-0.27,5.14-0.4,6.52,0.81c2.54,2.23,0.18,4.36-1.56,6.23c-2.84,3.05-6.27,3.91-10.32,3.45c-1.52-0.17-3.19,0.24-4.68,0.72
		C802.05,340.4,798.75,341.45,795.25,338.74z"/>
</g>
</svg>
