<?xml version="1.0" encoding="UTF-8" standalone="no"?>
<svg
   xmlns:dc="http://purl.org/dc/elements/1.1/"
   xmlns:cc="http://creativecommons.org/ns#"
   xmlns:rdf="http://www.w3.org/1999/02/22-rdf-syntax-ns#"
   xmlns:svg="http://www.w3.org/2000/svg"
   xmlns="http://www.w3.org/2000/svg"
   width="392.64716"
   height="335.09473"
   viewBox="0 0 392.64714 335.09472"
   xml:space="preserve"
   version="1.1"
   id="svg793"><metadata
     id="metadata799"><rdf:RDF><cc:Work
         rdf:about=""><dc:format>image/svg+xml</dc:format><dc:type
           rdf:resource="http://purl.org/dc/dcmitype/StillImage" /><dc:title></dc:title></cc:Work></rdf:RDF></metadata><defs
     id="defs797" /><radialGradient
     id="a"
     cx="280.673"
     cy="232.439"
     r="182.007"
     gradientUnits="userSpaceOnUse"
     gradientTransform="translate(-84.352836,-64.89)"><stop
       offset="0"
       stop-color="#fff"
       id="stop2" /><stop
       offset="1"
       stop-color="#fffaf5"
       id="stop4" /></radialGradient><path
     fill="url(#a)"
     stroke="#000000"
     stroke-miterlimit="10"
     d="m 46.147164,207.5 c 0,0 -15,-39 6,-60 21,-21 43,-16 55.999996,1 13,17 21.68,64.775 28,85 10,32 45,68 91,72 46,4 93.359,1.53 130,-34 33,-32 35,-66 35,-86 0,-20 -6,-54 -33,-80 -21.622,-20.821 -34,-30 -49,-44 -8.174,-7.629 -23,-21 -31,-36 -8,-15 -7,-25 -12,-25 -5,0 -4.782,10.832 -4,21 1,13 4.018,22.337 6,28 7,20 24,37 31,43 7,6 28.178,28.201 36,41 11,18 16.437,40.003 8,67 -10,32 -39.961,61.281 -89,59 -43,-2 -63,-10 -77,-38 -12.907,-25.815 -12,-54 -24,-81 -12,-27 -42.983,-48 -71.999996,-48 -32,0 -50,10 -64,29 -18.27399986,24.8 -23.0969999,53.757 -10.9999999,84 7.9999999,20 11.9999999,25 26.9999999,45 15.704,20.938 22,36 24,47 2.689,14.791 -5,43 0,36 5,-7 7,-15 8,-22 1,-7 5,-27 1,-46 -4,-19 -16,-48 -21,-58 z"
     id="path7"
     style="fill:url(#a)" /></svg>
