<?xml version="1.0" encoding="utf-8"?>
<!-- Generator: Adobe Adobe Illustrator 24.2.0, SVG Export Plug-In . SVG Version: 6.00 Build 0)  -->
<svg version="1.1" id="レイヤー_1" xmlns="http://www.w3.org/2000/svg" xmlns:xlink="http://www.w3.org/1999/xlink" x="0px"
	 y="0px" width="1000px" height="1000px" viewBox="0 0 1000 1000" style="enable-background:new 0 0 1000 1000;"
	 xml:space="preserve">
<style type="text/css">
	.st0{fill:#040202;}
	.st1{fill:#E4AC33;}
	.st2{fill:#C76C22;}
	.st3{fill:#A33F13;}
	.st4{fill:#A44013;}
	.st5{fill:#C56B22;}
	.st6{fill:#E1A932;}
	.st7{fill:#C06921;}
	.st8{fill:#870502;}
</style>
<g>
	<path class="st0" d="M629.84,154.92c8.19,9.96,10.55,22.06,13.81,33.52c7.83,27.49,15.29,55.11,19.88,83.41
		c4.33,26.67,7.52,53.45,8.7,80.46c0.4,9.14,1.58,18.29-1.33,27.27c-0.44,1.34,0.24,2.58,0.65,3.85
		c14.26,43.94,18.53,88.81,12.54,134.64c-0.11,0.83-0.06,1.73-0.39,2.46c-5.76,12.88-2.4,25.69-0.29,38.71
		c4.8,29.59,6.27,59.31,0.65,89.02c-1.33,7.05-5.54,13.63-6.32,20.26c-0.77,6.51,3.05,13.72,2.83,20.91
		c-1.06,34.53-9.93,66.64-29.99,95.18c-1.03,1.47-1.35,2.88-1.52,4.57c-3.05,31.02-16.87,56.65-39.19,78
		c-0.95,0.91-2.07,1.45-1.87,3.15c1.08,9.21-2.4,17.47-6.32,25.32c-13.59,27.26-31.47,51.25-55.64,70.18
		c-5.34,4.18-11.32,6.95-18.08,7.88c-0.99,0.14-2.33,0.68-2.92,0.24c-5.22-3.86-8.22,0.78-11.93,2.88
		c-8.44,4.76-20.19,3.65-28.1-2.8c-1.86-1.52-3.04-2.07-5.47-0.77c-3.63,1.95-7.52,0.2-11.14-0.87c-9.91-2.95-17.4-9.74-24.47-16.73
		c-19.21-18.97-35.28-40.27-45.92-65.3c-2.67-6.28-4.97-12.77-4.06-19.81c0.21-1.6-0.65-2.28-1.66-3.24
		c-22.52-21.4-36.42-47.18-39.34-78.41c-0.21-2.2-1.25-3.63-2.35-5.29c-20.49-30.72-30.09-64.53-28.73-101.44
		c0.01-0.33,0.06-0.66,0.1-1c0.74-6.53-0.35-19.06-2.19-25.44c-3.97-13.73-5.06-27.85-5.3-42.02c-0.4-23.24,1.66-46.31,6.85-68.97
		c1.14-4.99,0.88-9.16-0.49-13.83c-4.91-16.81-5.81-34.13-5.55-51.48c0.48-32.79,4.31-65.11,15.27-96.26
		c0.45-1.29,0.93-2.54,0.49-3.88c-3.71-11.32-1.58-22.88-0.93-34.26c2.43-42.84,8.86-85.13,19.96-126.6
		c5.01-18.74,9.62-37.66,16.81-55.73c1.85-4.64,4.45-9.99,11.06-9.81c1.9,0.05,2.12-1.22,2.73-2.29
		c11.35-19.78,24.88-37.76,42.92-52.01c1.48-1.17,2.48-2.64,3.52-4.16c12.52-18.16,29.87-26.41,51.79-24.55
		c7.92,0.67,15.55-2.64,23.34-1.35c12.69,2.11,25.66-0.55,38.21,2.28c14.7,3.32,26.65,10.98,34.7,24.07
		c0.97,1.58,2.21,2.86,3.67,4.03c17.69,14.12,31.07,31.82,42.26,51.29c0.97,1.69,1.64,3.05,4.01,2.63
		C626.78,152.54,628.32,153.47,629.84,154.92z"/>
	<path class="st1" d="M349.92,547.6c30.98,7.08,62.02,10.99,93.26,13.03c16.27,1.07,32.63,0.82,48.95,0.82
		c31.95,0,63.95,0.78,95.76-3.36c21.11-2.75,42.29-5.13,63.38-10.42c3.48,0,3.99,2.45,4.61,4.65c0.58,2.07,0.77,4.23,1.02,6.78
		c-0.15,1.98-1.13,3.11-2,4.34c-4.7,6.65-3.54,11.51,3.6,15.24c0.74,0.39,1.46,0.79,2.2,1.82c1.36,15.02,1.25,29.64-0.79,44.22
		c-0.49,3.47-1.09,6.91-1.6,10.38c-1.61,10.99-7.4,18.25-18.49,21.01c-10.57,2.63-21.37,3.42-32.15,4.33
		c-21.74,1.83-43.56,1.97-65.32,3.24c-8.51,0.5-16.91,1.05-25.4-0.04c-4.97-0.64-9.91,0.95-14.94,0.92
		c-26.11-0.12-52.2-1.04-78.27-2.26c-18.27-0.85-36.6-1.65-54.7-4.75c-2.96-0.51-5.86-1.24-8.75-2.06
		c-9.39-2.67-14.39-9.22-16.24-18.43c-3.66-18.25-4.25-36.7-3.13-55.64c0.61-1.8,1.85-2.32,3.03-2.96c6.54-3.49,7.71-8.55,3.4-14.7
		c-0.76-1.09-1.67-2.08-2.16-3.78C345.89,555.33,344.75,550.38,349.92,547.6z"/>
	<path class="st1" d="M508.57,412.73c0.86,0.98,1.64,1.61,1.75,2.35c1.37,8.7,8.2,11.71,15.19,14
		c47.43,15.55,90.69,8.46,129.08-24.27c1.01-0.86,1.85-1.91,2.76-2.87c0.78-0.82,1.55-1.63,2.68-2.83
		c2.38,6.48,3.54,12.8,4.82,19.47c-0.34,1.13-0.74,1.81-1.77,2.46c-7.81,2.36-7.75,2.35-5.99,9.93c1.15,4.94,2.26,9.91,1.75,15.42
		c-0.27,0.66-0.41,0.97-0.64,1.21c-8.43,8.61-7.65,16.57,2.5,23.94c1.88,9.04-0.03,17.61-0.72,26.2c-0.39,4.78-1.5,9.52-2.45,14.25
		c-0.59,2.94-2.16,4.58-4.9,5.68c-19.18,7.73-39.19,11.48-59.74,12.98c-20.73,1.51-41.52,1.86-62.25,3.06
		c-12.48,0.72-24.94,0.94-37.41,0.76c-21.77-0.33-43.51-1.79-65.27-2.69c-12.82-0.53-25.55-1.7-38.27-3.24
		c-14.33-1.73-27.89-6.24-41.31-11.27c-2.03-0.76-3.29-2.23-3.72-4.35c-2.67-13.23-4.8-26.51-3.77-40.49
		c2.17-3.44,6.16-4.39,7.42-8.62c2.02-6.79,1.62-12.24-5.06-16.51c-0.93-6.06,0.52-11.53,1.77-17c1.64-7.17,1.73-7.15-5.63-8.9
		c-0.88-0.31-1.32-0.59-1.93-1.3c0.01-7.34,2.5-13.81,4.19-21.38c11.22,13.01,24.35,21.82,39.33,27.76
		c29.33,11.62,59.23,14.28,89.69,4.75c9.54-2.98,19.18-6.08,22.1-17.93C497.99,410.44,503.08,411.09,508.57,412.73z"/>
	<path class="st1" d="M350.61,714.06c4.9-3.16,6.38-7.51,5.66-12.55c-0.68-4.78-4.05-7.24-8.88-8.45
		c-2.84-5.24-2.47-10.32,0.3-15.66c0.81-0.29,1.25-0.29,2-0.2c0.52,0.19,0.73,0.29,1.27,0.47c39.03,7.45,78.21,9.62,117.46,11.57
		c31.01,1.55,61.94,0.4,92.84-1.34c29.72-1.68,59.43-4,89.08-10.09c0.72-0.01,1.01-0.1,1.46-0.43c0.65-0.16,1.08-0.24,1.83-0.29
		c4.18,4.71,3.06,9.95,1.66,15.52c-4.92,1.45-8.77,3.66-9.5,8.71c-0.68,4.74,0.19,9.2,5.16,12.11c0.92,1.44,1.17,2.75,0.83,4.08
		c-3.56,14.22-7.03,28.46-15.03,41.05c-4.74,7.46-11.05,11.78-20.3,10.98c-3.47-0.3-6.99,0.02-10.48-0.06
		c-18.81-0.45-37.59,0.74-56.38,0.97c-18.8,0.22-37.56-1.33-56.38-1.07c-10.49,0.14-20.93,1.08-31.41,1.08
		c-26.45,0-52.89-1.59-79.36-0.96c-6.65,0.16-11.36-3.27-15.23-8.15c-4.07-5.14-6.88-10.99-9.13-17.11
		c-2.88-7.82-5.26-15.79-7.28-23.87C350.33,718.43,349.66,716.49,350.61,714.06z"/>
	<path class="st2" d="M368.35,210.5c-0.26-0.71-0.26-1,0.08-1.41c0.52-0.23,0.78-0.43,0.76-0.92c1.03-7.51,2.49-14.79,5.29-22.72
		c3.27,6.91,5.91,13.14,9.1,19.08c7.89,14.68,18.1,27.75,28.18,40.97c25.02,32.81,46.9,67.51,61.32,106.46
		c4.23,11.44,7.33,23.13,8.39,35.34c0.32,3.7,0.14,7.31-0.54,11.35c-2.29,2.72-5.2,3.58-8.1,4.27c-12.88,3.09-25.82,4.78-39.07,2.23
		c-8.99-1.73-18.04-3.21-27-5.08c-12.94-2.7-24.81-8.48-34.9-16.61c-8.48-6.82-12.37-17.36-13.15-28.23
		c-1.28-17.75-0.76-35.59,0.07-53.33c1.04-22.23,1.92-44.5,4.71-66.63C364.53,227.03,366.91,219.06,368.35,210.5z"/>
	<path class="st2" d="M521.51,399.38c-2.67-13.38,0.54-25.83,4.34-38.08c9.63-30.95,25.36-58.9,43.05-85.85
		c10.79-16.44,23.14-31.73,34.85-47.5c8.46-11.4,16.1-23.61,21.19-37.1c0.57-1.52,1.31-2.97,2.39-5.39
		c3.26,7.57,3.95,14.81,5.71,22.13c-0.28,0.55-0.38,0.71-0.32,0.89c0.06,0.19,0.12,0.28,0.43,0.38c0.56,0.22,0.72,0.46,0.67,1.02
		c-0.64,2.06-0.28,3.83,0.3,5.6c4.42,13.57,5.23,27.66,6.42,41.75c2.15,25.54,3.12,51.14,3.44,76.72
		c0.17,13.91,1.05,28.36-7.15,41.19c-2.75,4.31-5.56,8.05-9.84,10.95c-16.62,11.27-35.59,15.13-54.9,18.52
		c-13.9,2.44-27.48,2.06-41.09-1.22C527.76,402.6,524.52,401.81,521.51,399.38z"/>
	<path class="st3" d="M481.06,317.29c-7.13-2.65-10.3-8.23-13.47-14.19c-15.06-28.33-33.08-54.72-53.45-79.46
		c-11.13-13.51-20.34-27.9-25.94-44.6c-1.12-3.33-0.84-6.18,0.03-9.1c3.14-10.61,8.57-19.96,16.37-29
		c2.57,18.47,8.2,35.06,16.67,50.63c8.27,15.2,18.05,29.21,32.95,38.79c2.17,1.4,2.6,3.26,2.56,5.53
		c-0.3,15.62,6.93,28.16,16.41,39.7c6.56,7.99,13.77,15.33,22.27,21.35c3.4,2.41,6.78,3.15,10.12,0.65
		c14.54-10.9,27.1-23.54,34.9-40.32c3.07-6.61,5.04-13.37,4.76-20.71c-0.09-2.34,0-4.51,2.4-6.1
		c19.11-12.67,30.24-31.47,39.28-51.79c5.23-11.74,8.51-24.08,10.45-37.44c4.02,3.81,6.73,7.97,9.1,12.2
		c3.3,5.92,6.54,11.9,7.81,18.78c0.42,2.29,0.27,4.07-0.35,6.18c-5.77,19.48-17.83,35.09-30.33,50.59
		c-19.81,24.55-37.24,50.76-51.65,78.85c-2.4,4.67-6.42,6.31-10.31,9.14c-5.41,1.29-10.58,1.56-16.23,1.47
		c-2.77,0.08-5.11,0.02-7.88,0.01C491.85,318.63,486.64,318.12,481.06,317.29z"/>
	<path class="st4" d="M586.71,864.31c3.55,0.31,5.02,1.61,5.39,5.54c1.03,10.83-4.27,19.38-9.12,27.97
		c-11.52,20.42-25.76,38.75-43.96,53.76c-2.17,1.79-4.58,3.35-7.06,4.68c-2.48,1.33-5.06,2.3-8.04,0.8
		c-4.77-2.39-8.95-1.14-12.71,2.48c-5.96,5.73-14.41,5.65-20.59-0.16c-3.16-2.98-6.94-4.79-10.87-2.89
		c-4.9,2.37-8.68,0.74-12.5-1.84c-11.87-8.01-21.15-18.67-29.99-29.74c-9.27-11.6-17.37-23.96-23.63-37.47
		c-2.54-5.49-4.17-11.03-3.72-17.31c0.25-3.43,1.17-5.24,4.71-6.06c5.98,9.41,11.02,19.17,17.03,28.36c2.55,3.9,5.17,7.76,7.66,11.7
		c1.9,3,4.29,3.71,7.67,2.68c13.53-4.14,27.26-7.59,41.02-10.87c8.52-2.03,17.2-2.06,25.72-0.06c13.77,3.24,27.5,6.68,41.02,10.86
		c3.89,1.21,6.23,0.02,8.37-3.2C571.51,890.92,579.44,878.03,586.71,864.31z"/>
	<path class="st2" d="M586.68,863.88c-0.56,6.67-4.73,11.66-7.81,17.06c-4.85,8.48-10.54,16.49-15.68,24.81
		c-1.92,3.11-4.11,3.73-7.52,2.66c-14.69-4.64-29.64-8.36-44.65-11.78c-6.47-1.48-13.36-1.55-19.79-0.05
		c-14.98,3.5-29.82,7.68-44.66,11.74c-2.8,0.77-5.22,1.24-7.06-1.53c-8.64-12.99-17.18-26.04-24.1-40.07
		c-0.28-0.57-0.29-1.28-0.41-2.3c14.67-6.6,30.07-9.73,45.85-11.21c17.55-1.64,35.14-2.96,52.75-1.96
		C538.29,852.65,563.07,853.9,586.68,863.88z"/>
	<path class="st3" d="M479.12,258.03c-4.59-6.68-7.11-14-7.35-22.3c-0.23-7.74-2.58-14.27-10.06-19.15
		c-15.13-9.85-24.26-24.91-31.44-41.08c-6.73-15.18-10.99-31.03-11.11-47.78c-0.03-4,6.6-12.78,10.17-13.76
		c1.91-0.52,2.76,0.87,3.7,1.92c3.25,3.63,6.84,6.83,11.33,8.83c1.94,0.87,2.59,2.11,2.68,4.23c0.51,11.38,4.93,21.29,11.83,30.17
		c1.4,1.8,2.14,3.28,1.52,5.81c-1.26,5.14,0.16,10.29,1.54,15.23c5.51,19.71,12.97,38.51,26.83,54.06c7.31,8.2,17.2,8.38,24.29,0.13
		c15.93-18.54,25.46-40.29,28.42-64.33c0.83-6.72,2.54-11.94,6-17.34c4.54-7.1,7.17-15.02,7.45-23.53c0.08-2.34,0.85-3.63,2.95-4.57
		c4.32-1.94,7.89-4.95,10.88-8.58c2.01-2.43,3.64-2.51,6.21-0.49c5.96,4.67,8.81,10.11,7.88,18.02
		c-3.01,25.54-11.34,48.83-27.53,69.05c-4.5,5.62-9.26,11.15-15.65,14.52c-7.09,3.73-9.12,10.26-9.34,16.95
		c-0.28,8.65-2.58,16.34-6.92,23.97c-1.85-3.16-3.6-3.83-6.52-0.79c-6.81,7.08-25.17,7.28-32.45-0.46
		C482.17,254.31,480.39,254.18,479.12,258.03z"/>
	<path class="st2" d="M589.29,849.08c-12.68-3.82-24.97-7.86-37.92-9.64c-40.93-5.62-81.61-5.46-121.91,4.58
		c-5.31,1.32-10.43,3.39-16.03,5.16c-6.98-6.05-11.96-13.49-17.38-20.55c-2-2.61-4.16-5.16-5.67-8.53c1.58-3.09,2.36-6,1.54-9.63
		c5.61-2.01,11.44-1.82,17.18-1.96c12.82-0.3,25.66-0.08,38.49-0.1c14.82-0.03,29.66-0.86,44.43-0.74
		c34.14,0.29,68.28,0.78,102.42,0.83c4.96,0.01,9.93,0.62,15.29,1.23c-0.09,3.41-0.29,6.48,1.81,9.63
		c-4.85,9.79-12.12,17.55-18.61,25.88C591.9,846.54,590.99,847.95,589.29,849.08z"/>
	<path class="st5" d="M341.78,470.69c-0.12,14.19,1.46,27.82,4.13,41.37c0.38,1.93,0.72,3.24,2.93,3.98
		c12.42,4.14,24.69,8.83,37.74,10.59c10.16,1.37,20.37,2.69,30.6,3.25c18.89,1.03,37.86,0.99,56.72,2.36
		c13.15,0.96,26.26,0.96,39.37,0.63c24.38-0.61,48.77-1.53,73.11-3.03c22.88-1.41,45.39-5.16,66.85-13.81
		c1.86-0.75,2.47-1.72,2.82-3.54c2.56-13.38,4.28-26.84,3.91-40.96c1.16-2.26,2.9-2.96,5.35-2.91c2.34,2.17,1.23,4.61,1.05,6.79
		c-1.2,14.09-3.01,28.08-7.39,41.61c-1.64,5.07-4.37,9.68-6.6,14.95c-13.39,4.68-27.1,6.31-40.78,7.9
		c-18.16,2.1-36.33,4.42-54.56,5.54c-16.59,1.02-33.27,0.66-49.91,0.75c-12.48,0.07-24.97-0.38-37.44-0.11
		c-24.88,0.54-49.44-2.84-74.06-5.56c-15.2-1.68-30.37-3.63-45.47-7.95c-8.4-14.74-11.66-30.64-13.49-46.93
		c-0.55-4.92-1.93-9.85-0.23-15.22C338.36,468.67,339.97,469.13,341.78,470.69z"/>
	<path class="st5" d="M341.89,579.92c-0.43,18.76-0.31,37.21,3.26,55.4c2.77,14.11,7.84,17.93,23.68,20.62
		c16.2,2.75,32.58,3.72,49.01,4.24c18.9,0.6,37.78,2.37,56.68,2.55c8.41,0.08,16.88,0.43,25.27,0.11
		c17.56-0.66,35.14,0.63,52.67-0.88c14.73-1.27,29.56-0.9,44.27-2.12c13.5-1.12,27.14-1.49,40.42-4.69
		c13.87-3.34,17.59-8.57,20.09-22.86c2.98-17.02,2.9-34.05,2.72-51.62c2.45-2.36,5.46-3.64,7.42-6.7c0.73-0.39,1.2-0.42,1.92-0.07
		c0.39,1.59,0.53,2.93,0.64,4.67c-0.82,8.68-0.98,16.99-1.44,25.28c-1.12,19.99-6.91,38.54-16.03,56.19
		c-0.46,0.89-1.04,1.7-2.2,2.57c-9.67,3.63-19.51,4.22-29.25,5.19c-35.63,3.56-71.34,5.87-107.14,6.82
		c-18.67,0.5-37.3-0.57-55.95-1.14c-25.64-0.78-51.14-3.46-76.68-5.67c-9.6-0.83-19.23-1.73-28.86-4.75
		c-6.14-6.89-8.57-15.23-11.64-23.3c-6.55-17.26-7.52-35.35-8.15-53.5c-0.07-2.16,0.07-4.33-0.42-6.88
		c-0.03-1.75,0.03-3.1,0.18-4.84c0.41-0.77,0.81-0.97,1.63-0.81C336.39,576.3,338.63,578.51,341.89,579.92z"/>
	<path class="st1" d="M610.36,809.81c-5.49,1.99-10.75,0.23-16,0.23c-19.95-0.01-39.91,0.04-59.86-0.12
		c-10.28-0.08-20.57-1.11-30.83-0.79c-32.56,1.03-65.12,0.74-97.68,0.96c-4.42,0.03-8.84,1.7-13.68-0.07
		c-2.2-2.25-4.26-4.16-7.08-5.69c-3.21-4.42-3.12-6.74,0.55-11.89c1.65-0.39,2.97-0.6,4.29-0.6c74.31-0.01,148.61-0.01,222.92,0
		c0.66,0,1.33,0.08,2.45,0.22c4.14,4.24,4.53,6.89,1.85,11.74C614.7,805.74,612.13,807.06,610.36,809.81z"/>
	<path class="st6" d="M368.11,210.45c1.4,1.09,1.08,2.85,0.68,4.39c-5.16,19.87-5.56,40.26-6.96,60.58
		c-1.22,17.74-1.53,35.47-2.11,53.22c-0.31,9.46-0.58,19.06,0.64,28.22c1.84,13.78,8.41,24.99,21.96,32.17
		c15.07,7.98,31.19,10.74,47.42,14.03c13.77,2.8,27.33,2.28,40.85-1.08c3.2-0.79,6.31-1.93,9.83-2.91
		c-0.07,8.26-4.78,14.39-11.97,16.62c-39.64,12.29-76.29,6.15-108.71-20.26c-11.22-9.14-15.42-21.41-14.86-36.31
		c1.85-48.58,10.07-96.12,21.22-143.28C366.52,214.11,367.35,212.49,368.11,210.45z"/>
	<path class="st6" d="M521.16,399.44c7.5,1.74,15.01,3.49,22.7,4.79c10.45,1.77,20.48-0.04,30.6-1.59c5.88-0.9,11.65-2.53,17.53-3.4
		c14.06-2.09,25.91-9.19,37.5-16.64c6.19-3.97,7.23-11.68,10.36-17.82c1.9-3.72,2.13-7.89,2.27-12.11
		c0.54-15.42,0.27-30.84-0.25-46.23c-0.66-19.69-1.91-39.36-3.63-59.01c-0.97-11.09-2.36-22.03-5.09-32.82
		c-0.31-1.22,0.06-2.62,0.36-4.22c4.71,14.27,7.67,29.19,10.78,44.08c7.61,36.4,11.8,73.21,12.9,110.35
		c0.42,14.13-7.24,24.6-17.66,33.15c-16.74,13.74-36.41,20.25-57.61,22.89c-15.24,1.9-30.21,0.74-44.9-3.79
		C528.4,414.41,522.64,409.06,521.16,399.44z"/>
	<path class="st7" d="M350.42,713.67c4.34,15.92,7.65,32.11,17.35,45.94c3.96,5.64,8.95,8.76,16.32,8.57
		c15.31-0.39,30.67-0.67,45.96,0.08c11.48,0.56,22.96,1.2,34.38,0.57c18.3-1.02,36.6-1.11,54.88-0.64
		c13.13,0.34,26.28,1.34,39.38,0.66c20.79-1.08,41.58-0.72,62.37-0.8c5.94-0.02,9.68-3.82,13-8.13c6.64-8.63,9.61-18.91,12.78-29.05
		c1.68-5.37,2.85-10.91,4.3-16.8c1.07-0.31,2.07-0.2,3.46-0.05c1.86,1.6,1.64,3.44,1.1,5.22c-5.67,18.51-12.19,36.67-22.7,53.11
		c-0.72,1.12-1.42,2.26-2.75,3.38c-2.33,1.24-4.52,0.93-6.67,0.93c-40.97-0.02-81.94-0.08-122.91-0.08
		c-41.14,0-82.27,0.06-123.41,0.07c-1.49,0-2.97-0.23-4.84-0.5c-7.14-7.55-10.72-16.8-14.9-25.64c-4.56-9.64-7.56-19.91-10.86-30.05
		c-0.62-1.9-1.22-3.85,0.12-6.1C348.03,713.95,349.03,713.83,350.42,713.67z"/>
	<path class="st3" d="M483.95,196.2c-3.45-6.57-5.45-13.4-7.44-20.24c-0.71-2.44-0.25-3.63,2.46-2.87
		c7.44,2.09,14.13,0.42,20.22-4.05c1.25-0.91,2.11-1.14,3.47-0.13c6.05,4.51,12.71,6.3,20.17,4.21c3.08-0.86,3.28,0.54,2.58,3.13
		c-1.78,6.58-4.15,12.95-6.85,19.53c-0.88,0.54-1.07,1.13-1.35,2.02c-0.16,0.27-0.08,0.23-0.06,0.27
		c-9.08,7.49-22.94,7.72-31.96,0.3c-0.34-0.26-0.3-0.33-0.27-0.31C484.58,197.56,484.54,196.9,483.95,196.2z"/>
	<path class="st7" d="M508.93,412.65c-4.96,0.37-9.96,0.37-15.42,0.37c6.81-18.31,2.93-36.31-2.09-54.24
		c-1.29-4.61-2.87-9.15-4.87-15.46c9.93,10.65,19.04,10.46,28.94,0.04c-3.84,11.75-7.27,21.97-9.01,32.63
		C504.47,388.26,503.7,400.47,508.93,412.65z"/>
	<path class="st3" d="M529.06,152.07c-2.46,2.01-4.55,3.91-7.19,5.08c-6.68,2.96-11.72,0.46-12.66-6.81
		c-1.46-11.39,2.07-21.31,9.78-29.78c1.54-1.69,2.88-2.38,4.97-0.49c3.85,3.48,8.17,6.28,13.42,7.28c2.1,0.4,2.31,1.54,1.95,3.62
		C538,138.94,534.55,145.78,529.06,152.07z"/>
	<path class="st3" d="M480.05,157.1c-10.57-5.93-15.22-15.29-17.45-26.35c-0.47-2.33,0.39-3.1,2.24-3.46
		c4.9-0.96,9.06-3.43,12.59-6.75c2.57-2.42,4.17-1.7,6.1,0.53c7.1,8.21,10.47,17.64,9.38,28.5
		C492.14,157.11,487.75,159.74,480.05,157.1z"/>
	<path class="st3" d="M337.29,469.24c0.49,19.9,2.44,39.19,11.37,57.05c0.82,1.65,1.6,3.29,1.24,5.62
		c-16.62-2.96-13.6-1.08-16.27-14.93c-3.64-18.87-3.1-37.99-1.89-57.09c0.84-13.25,2.31-26.42,5.33-39.78
		c0.58-0.29,0.95-0.22,1.58-0.07c1.5,1.35,1.1,2.88,0.76,4.26c-1.43,5.76-2.42,11.49-1.14,17.46c0.44,2.06-0.31,4.23-0.56,6.74
		C334.16,455.52,334.98,462.2,337.29,469.24z"/>
	<path class="st3" d="M652.58,532.3c-0.94-2.23-0.23-4.23,0.85-6.17c6.96-12.47,8.43-26.41,10.5-40.15
		c0.83-5.51,0.96-11.12,1.11-16.93c-0.69-2.19,0.58-3.71,1.04-5.44c1.3-4.85,0.75-9.49-1.67-14.32c-0.61-9.78,0-19.24-1.57-28.86
		c0.69-0.63,1.11-0.94,1.77-1.37c2.87,10.74,4.03,21.82,5.18,32.88c1.46,14.09,1.45,28.25,1.07,42.4
		c-0.26,9.48-1.66,18.83-3.4,28.17c-0.97,5.23-3.45,7.92-8.62,8.5C656.86,531.25,654.93,531.84,652.58,532.3z"/>
	<path class="st3" d="M650.34,662.9c4.31-10.27,8.82-20.57,12.09-31.43c2.8-9.31,3.88-18.76,4.62-28.35
		c0.56-7.29,1.14-14.56,1-21.87c-0.02-0.87,0.24-1.63,1.46-2.18c2.44,4.59,1.78,9.7,2.03,14.52c0.91,17.56,0.04,35.04-2.55,52.53
		C667.32,657.48,660.91,661.77,650.34,662.9z"/>
	<path class="st3" d="M331.81,579.28c3.45,0.62,2.09,3.27,2.12,5.13c0.33,21.24,2.29,42.18,10.76,61.99
		c2.27,5.32,4.83,10.52,7.31,16.12c-4.12-0.65-8.3-1.65-12.46-2.67c-2.31-0.56-2.82-2.6-3.54-4.44c-4.08-10.5-4.98-21.64-5.63-32.67
		C329.51,608.37,329.93,593.94,331.81,579.28z"/>
	<path class="st3" d="M346.68,713.95c1.1,9.51,5.23,17.92,8.22,26.64c4.21,12.26,10.51,23.55,17.09,35.06
		c-5.22,1.63-8.65-0.45-11.52-4.95c-10.37-16.24-16.26-34.17-20.32-52.79c-0.83-3.81-3.25-7.41-1.65-11.8
		C340.17,709.61,342.2,712.88,346.68,713.95z"/>
	<path class="st8" d="M466.53,109.68c-7.77,4.91-17.85,2.87-22.81-4.25c-1.24-1.77-0.68-3.09,0.59-4.4
		c7.72-7.96,17.08-12.4,28.17-13.18c4.4-0.31,5.06,1.49,3.66,5.38C473.98,99.23,471.72,105.07,466.53,109.68z"/>
	<path class="st8" d="M544.31,91.54c5.22,2.43,9.57,5.39,13.27,9.33c1.87,1.99,1.75,3.53-0.22,5.48
		c-10.02,9.94-20.97,8.46-27.64-4.01c-1.71-3.2-2.77-6.74-4.15-10.12c-1.21-2.98-0.26-4.26,2.99-4.36
		C534.04,87.69,539,89.47,544.31,91.54z"/>
	<path class="st3" d="M630.41,776.1c0.02-3.39,2.54-5.54,4.07-8.25c8.94-15.79,15.01-32.74,20.34-50c0.28-0.92,0.13-1.97,0.17-3.37
		c3.31-1.23,5.8-3.15,7.72-6.32c-0.83,16.78-6.51,32.47-13.18,47.86c-2.3,5.32-5.22,10.33-8.37,15.23
		C638.6,775.24,635.49,777.07,630.41,776.1z"/>
	<path class="st3" d="M389.97,819.79c6.98,6.65,11.57,14.99,17.83,22.02c1.83,2.05,4.09,3.94,5.14,7.07
		c-3.03,1.79-6.19,3.21-9.31,4.71c-1.78,0.86-3.12,0.35-4.45-0.97c-9.06-8.96-15.75-19.51-21.69-31.8
		C382.29,822.52,386.06,821.9,389.97,819.79z"/>
	<path class="st3" d="M589.19,849.46c3.57-7.27,9.55-12.64,14.05-19.14c2.44-3.52,5.14-6.85,8.09-10.43
		c4.17,1.3,7.89,3.31,13.42,0.29c-6.29,13.26-13.15,23.97-22.55,32.99c-1.32,1.26-2.67,0.91-4.12,0.27
		C595.21,852.16,592.31,850.95,589.19,849.46z"/>
	<path class="st3" d="M507.78,85.17c2.83,5.66,2.59,12.32,5.21,18.22c0.22,0.49,0.05,1.5-0.33,1.84
		c-4.12,3.64-7.76,7.66-10.74,12.31c-0.76,1.18-1.72,0.34-2.34-0.54c-1.25-1.75-2.12-4.04-3.78-5.18c-6.91-4.75-7.3-10.63-4.2-17.75
		c1.16-2.66,1.17-5.81,2.08-8.86C498.52,85.68,503.02,85.35,507.78,85.17z"/>
	<path class="st5" d="M478.9,258.57c-0.05-0.5-0.05-0.67,0-0.83c0.48-1.7-0.91-4.31,0.9-5.05c2.22-0.9,3.94,1.29,5.28,2.93
		c6.15,7.46,25.78,7.54,31.9-0.12c0.1-0.13,0.24-0.23,0.35-0.36c1.26-1.36,2.83-3.13,4.54-2.6c2.21,0.68,0.68,3.2,1.22,5.26
		c-0.62,2.95-2.24,4.91-4.16,7.07c-1.35,0.98-2.86,1.22-3.59,2.34c-5.05,7.72-12.8,6.21-20.14,5.9c-2.78-0.12-4.95-1.78-6.71-3.84
		c-1.3-1.52-2.58-3.01-4.83-3.98C481.32,263.43,480.07,261.22,478.9,258.57z"/>
	<path class="st6" d="M513.71,204.73c-2.19,6.44-5.84,11.92-9.7,17.29c-2.2,3.05-4.12,2.58-6.2-0.22
		c-3.75-5.06-6.88-10.49-9.79-16.44c1.37-1.72,3.01-1.48,4.53-0.73c5.71,2.8,11.36,2.76,17.04-0.06
		C510.8,203.96,512.11,203.88,513.71,204.73z"/>
	<path class="st6" d="M496.95,317.51c2.53-0.23,4.75-0.26,7.38-0.24c2.14,3.69,4.05,7.21,6.85,10.46
		c-12.49,12.37-8.16,11.39-20.12,0.65C492.22,324.3,496.28,322.03,496.95,317.51z"/>
	<path class="st6" d="M483.47,265.37c2.26-0.68,4,0.16,5.34,2.25c2.03,3.18,4.98,4.5,8.83,4.47c6.47-0.05,13.14,0.91,17.07-6.17
		c0.6-1.08,2.04-0.94,3.59-0.83c-3.87,5.08-8.02,10.21-12.7,14.91c-3.19,3.21-5.98,3.6-9.09,0.05
		C492.26,275.2,487.91,270.44,483.47,265.37z"/>
	<path class="st7" d="M347.76,676.85c-1.08,5.16-0.88,10.17-0.74,15.63c-4.2,1.5-7.27,3.94-9.08,8.11
		c-0.96-7.19-1.29-14.18,0.23-21.2c0.85-3.93,2.53-5.52,6.47-3.62C345.51,676.19,346.53,676.32,347.76,676.85z"/>
	<path class="st7" d="M655.29,693.09c-0.38-5.17,0.38-10.25-1.31-15.58c0.24-0.62,0.46-0.92,0.76-1.02c7.84-2.65,7.84-2.6,9.51,5.6
		c1.24,6.08,0.54,12.13,0.18,19.78C662.13,696.97,659.75,694.03,655.29,693.09z"/>
	<path class="st7" d="M656.38,560.43c-1.94-4.14-0.5-9.02-4.39-12.58c2.02-0.93,4.37-1.63,6.72-2.31c5.91-1.69,5.98-1.7,7.26,4.59
		c1.01,4.98,1.84,10,2.74,15.4c-0.37,0.75-0.81,0.93-1.67,0.75C664.6,562.03,660.71,561.2,656.38,560.43z"/>
	<path class="st7" d="M350.03,547.41c-4.01,3.07-2.28,8.15-4.06,12.38c-3.52,2.04-8.31,1.21-10.4,6.1c-0.72,0.49-1.2,0.57-1.99,0.27
		c0.86-6.53,2.1-12.81,3.14-19.12c0.43-2.65,1.45-3.2,3.97-2.29C343.6,545.81,346.69,546.41,350.03,547.41z"/>
	<path class="st7" d="M514.3,204.8c-4.23-0.74-6.63,3.08-10.42,3.37c-5.51,0.42-10.17-1.72-15.51-3.17
		c-1.98-1.78-2.73-3.98-3.52-6.54c0.8-0.31,1.96-0.6,2.37-0.17c6.3,6.59,14.34,2.71,21.56,3.64c3.29,0.43,4.23-4.21,8-3.88
		C517.03,200.56,515.46,202.45,514.3,204.8z"/>
	<path class="st3" d="M626.78,792.24c6.8-0.37,6.96-0.22,5.57,5.92c-1.31,5.78-2.59,11.58-6.24,18.15
		c0.29-5.32,0.05-9.22-3.98-11.88C621.63,799.54,624.77,796.3,626.78,792.24z"/>
	<path class="st3" d="M380.21,803.8c-3.72,3.08-5.05,6.74-4.66,11.26c-3.67-6.41-5.58-13.33-6.42-20.49
		c-0.47-4.06,3.1-2.17,5.4-2.67C377.34,795.52,379.48,799.19,380.21,803.8z"/>
	<path class="st5" d="M496.79,317.22c0.89,4.9-1.54,8.04-5.68,10.58c-3.78-2.92-7.41-6.07-10.29-10.4
		C485.89,315.12,491.1,317.81,496.79,317.22z"/>
	<path class="st5" d="M511.4,327.95c-3.46-2.53-7.31-4.77-6.59-10.26c5.19-0.01,10.39-2.37,16.1-0.65
		C519.01,321.46,514.88,324.21,511.4,327.95z"/>
	<path class="st5" d="M380.47,804.15c-1.92-3.9-4.78-7.19-5.49-11.82c3.4-0.39,6.81-0.4,10.68-0.29c-0.62,3.77-2.77,7.3-0.7,11.68
		C383.62,804.14,382.25,804.15,380.47,804.15z"/>
	<path class="st5" d="M626.57,791.91c0.27,4.48-2.78,7.71-4.5,11.9c-1.5,0.35-2.86,0.36-4.64,0.34c1.12-3.93,0.34-7.63-1.47-11.61
		C619.3,792.07,622.7,791.96,626.57,791.91z"/>
	<path class="st7" d="M507.64,84.91c-3.95,2.59-8.5,1.88-13.33,0.44C498.41,83.51,502.81,83.94,507.64,84.91z"/>
	<path class="st3" d="M666.87,566.3c0.63-0.34,0.98-0.35,1.59-0.36c0.61,2.47,0.96,4.94,1.2,7.81c-0.44,0.39-0.77,0.35-1.34,0.29
		C666.19,571.84,666.19,569.27,666.87,566.3z"/>
	<path class="st3" d="M333.16,566.33c0.47-0.39,0.82-0.38,1.43-0.36c1.91,2.55,0.83,5-0.34,7.75c-0.64,0.32-0.97,0.35-1.55,0.41
		C331.78,571.61,333.15,569.23,333.16,566.33z"/>
	<path class="st3" d="M663.02,708.03c0.18-0.68,0.33-1.37,0.49-2.06c0.53,0.6,0.26,1.19-0.29,1.9
		C662.97,707.98,663.01,708.01,663.02,708.03z"/>
	<path class="st7" d="M517.34,197.94c-0.08-0.47,0.14-1.07,0.66-1.79C518.09,196.62,517.86,197.22,517.34,197.94z"/>
	<path class="st7" d="M483.77,196.34c0.33,0.15,0.75,0.61,1.17,1.4C484.58,197.6,484.22,197.12,483.77,196.34z"/>
	<path class="st6" d="M633.33,208.7c-0.17,0.02-0.4-0.21-0.47-0.57C633.09,208.15,633.18,208.3,633.33,208.7z"/>
	<path class="st7" d="M651.76,677.23c-0.02,0.24-0.28,0.43-0.79,0.57C650.98,677.56,651.25,677.37,651.76,677.23z"/>
	<path class="st6" d="M368.86,208.22c0.25-0.01,0.38,0.21,0.5,0.43c-0.12,0.06-0.24,0.12-0.56,0.24
		C368.65,208.78,368.69,208.62,368.86,208.22z"/>
	<path class="st7" d="M351.12,677.55c-0.16,0.17-0.48,0.14-0.96-0.08C350.32,677.3,350.64,677.33,351.12,677.55z"/>
	<path class="st0" d="M334.03,574.36c0.23-2.76,0.55-5.18,0.85-7.99c1.48-5.65,4.91-7.55,10.59-6.23c2.31,1.9,4.1,3.84,5.12,6.3
		c2.58,6.19-0.32,11.14-8.17,13.66C338.21,580.11,335.57,578.26,334.03,574.36z"/>
	<path class="st0" d="M667.03,565.62c0.38,2.76,0.65,5.16,0.97,7.99c-1.49,3.54-3.1,6.58-7.69,6.52
		c-11.27-3.33-12.92-10.95-4.4-19.66C661.06,559.01,665.12,559.75,667.03,565.62z"/>
	<path class="st0" d="M664.61,448.89c4.78,6.07,4.89,12.65,0.31,19.61c-1.3,1.51-2.86,1.8-4.64,2.42c-8.37-1.1-7.9-7.99-8.97-13.51
		c-0.92-4.76,1.73-8.13,6.39-10.25C660.67,445.3,662.59,446.79,664.61,448.89z"/>
	<path class="st0" d="M337.46,469.71c-2.13-4.15-4.24-8-3.59-12.77c0.37-2.75,0.85-5.19,3.18-7.38c1.56-2.7,3.52-3.73,6.53-2.63
		c4.77,1.82,7.8,4.84,7.19,9.7c-1.06,8.42-2.23,13.74-8.38,14.3C340.63,470.65,339.22,470.24,337.46,469.71z"/>
	<path class="st2" d="M343.88,446.81c-2.29,0.17-4.14,1.16-6.31,2.33c-1.49-0.64-1.69-1.72-1.16-2.91c0.84-1.92,1.05-4.09,0.47-5.87
		c-2.23-6.85,0.89-13.03,1.99-19.84c0.83-0.21,1.63-0.04,2.43,0.14c7.23,1.58,7.31,1.6,5.4,8.71
		C345.2,434.94,344.35,440.61,343.88,446.81z"/>
	<path class="st2" d="M665.07,449.01c-2.28-0.58-4.07-1.93-6.72-1.93c-0.36-7.03-1.79-13.77-3.68-20.36
		c-1.26-4.39-0.49-6.21,4.27-5.79c1.08,0.1,2.21-0.51,3.73-0.8C666.44,429.46,665.25,439.16,665.07,449.01z"/>
</g>
</svg>
