<?xml version="1.0" encoding="UTF-8" standalone="no"?>
<svg
   xmlns:dc="http://purl.org/dc/elements/1.1/"
   xmlns:cc="http://creativecommons.org/ns#"
   xmlns:rdf="http://www.w3.org/1999/02/22-rdf-syntax-ns#"
   xmlns:svg="http://www.w3.org/2000/svg"
   xmlns="http://www.w3.org/2000/svg"
   width="458.20764"
   height="144.16393"
   viewBox="0 0 458.20762 144.16392"
   xml:space="preserve"
   version="1.1"
   id="svg991"><metadata
     id="metadata997"><rdf:RDF><cc:Work
         rdf:about=""><dc:format>image/svg+xml</dc:format><dc:type
           rdf:resource="http://purl.org/dc/dcmitype/StillImage" /><dc:title></dc:title></cc:Work></rdf:RDF></metadata><defs
     id="defs995" /><path
     fill="#c4c2b6"
     stroke="#000000"
     stroke-width="0.867"
     stroke-miterlimit="10"
     d="m 236.28305,28.505428 c 0,0 -30.047,-25.0399996 -41.43,-27.3159996 -11.381,-2.277 -19.12,0.91 -25.494,5.007 -6.374,4.0969996 -15.024,10.4719996 -17.301,13.6579996 -2.275,3.188 -8.65,8.195 -4.097,13.202 4.552,5.008 15.479,9.562 20.031,10.017 4.554,0.456 68.291,-14.568 68.291,-14.568 z"
     id="path2" /><linearGradient
     id="a"
     gradientUnits="userSpaceOnUse"
     x1="228.937"
     y1="375.00101"
     x2="312.86499"
     y2="375.00101"
     gradientTransform="matrix(-1,0,0,1,460.82605,-355.07157)"><stop
       offset=".006"
       stop-color="#2e3192"
       id="stop4" /><stop
       offset="1"
       stop-color="#0054bf"
       id="stop6" /></linearGradient><path
     opacity="0.37"
     fill="url(#a)"
     d="m 231.88905,27.441428 c 0,0 -26.58,-16.757 -31.78,-16.757 -5.2,0 -6.934,-2.3119996 -6.934,-2.3119996 l 5.777,7.5119996 c 0,0 -4.044,-4.624 -10.978,-4.624 -6.934,0 -10.4,-2.8879996 -10.4,0 0,2.89 -0.578,5.779 -0.578,5.779 0,0 -4.623,-3.467 -9.823,0 -5.2,3.467 -11.557,9.246 -11.557,9.246 0,0 -5.199,7.511 -4.622,9.245 l -3.033,-2.474 c 0,0 1.298,-7.927 7.078,-11.972 5.777,-4.045 13.288,-9.824 15.601,-9.246 2.311,0.578 1.733,-2.8889996 4.045,-2.8889996 2.312,0 6.934,-2.89 11.557,-1.156 4.623,1.734 0.577,-3.467 4.044,-3.467 3.467,0 19.068,7.5119996 19.068,7.5119996 z"
     id="path9"
     style="fill:url(#a)" /><path
     opacity="0.51"
     fill="#787878"
     d="m 225.67505,27.588428 c 0,0 -34.235,-24.7019996 -36.835,-24.7019996 -2.601,0 3.034,3.034 3.034,3.034 l 28.169,19.5009996 c 0,0 2.167,3.033 5.632,2.167 z m -9.389,0.433 c 0,0 -22.535,-16.757 -26.002,-17.334 -3.467,-0.578 -13.863,-1.1599996 -15.599,-1.7349996 -1.735,-0.577 5.775,2.0239996 8.665,2.0239996 2.889,0 5.778,0 9.822,2.889 4.046,2.888 20.803,16.467 23.114,14.156 z"
     id="path11" /><path
     opacity="0.5"
     fill="#787878"
     d="m 207.47505,28.887428 c 0,0 -19.068,-13.868 -22.102,-14.734 -3.034,-0.867 -14.734,-3.9 -18.635,-3.467 -3.9,0.433 9.534,2.6 13.434,3.9 3.9,1.3 11.702,6.501 13.001,7.368 1.301,0.867 12.568,8.667 14.302,6.933 z m -7.801,3.034 c 0,0 -15.168,-9.967 -22.102,-10.834 -6.934,-0.867 -11.268,-0.867 -13.435,-1.734 -2.167,-0.867 -5.634,-4.333 -5.634,-3.033 0,1.3 5.2,5.2 8.667,5.2 3.468,0 10.835,1.3 13.435,1.733 2.601,0.434 16.469,9.535 19.069,8.668 z m -7.8,0.434 c 0,0 -12.568,-6.501 -16.468,-6.501 -3.9,0 -13.001,-1.3 -14.734,-2.6 -1.733,-1.3 -5.197,-3.904 -5.632,-2.168 -0.436,1.735 9.532,5.202 11.699,5.202 2.166,0 9.101,1.3 10.4,1.3 1.299,0 12.134,5.633 14.735,4.767 z"
     id="path13" /><path
     opacity="0.5"
     fill="#787878"
     d="m 184.07205,31.921428 c 0,0 -3.317,-1.549 -6.16,-2.433 -1.138,-0.354 -2.197,-0.601 -2.94,-0.601 -2.6,0 -17.768,-3.034 -17.768,-3.034 0,0 -4.334,-3.467 -5.201,-1.733 -0.866,1.733 3.9,3.9 6.067,3.9 0,0.001 21.669,1.734 26.002,3.901 z m -3.033,1.3 c 0,0 -25.568,-1.733 -28.169,-3.034 -2.601,-1.301 -3.467,2.167 -1.3,2.167 2.166,0.001 24.703,2.601 29.469,0.867 z m -5.634,3.034 c 0,0 4.767,-0.867 0.434,-0.867 -4.334,0 -19.502,0.867 -21.669,0 -2.167,-0.867 2.601,1.734 4.334,1.734 1.733,0 12.567,0.433 16.901,-0.867 z"
     id="path15" /><linearGradient
     id="b"
     gradientUnits="userSpaceOnUse"
     x1="231.724"
     y1="498.80499"
     x2="231.724"
     y2="371.121"
     gradientTransform="matrix(-1,0,0,1,460.82605,-355.07157)"><stop
       offset="0"
       stop-color="#b6a472"
       id="stop17" /><stop
       offset=".123"
       stop-color="#fff"
       id="stop19" /><stop
       offset=".24"
       stop-color="#fcfbf9"
       id="stop21" /><stop
       offset=".402"
       stop-color="#f2efe7"
       id="stop23" /><stop
       offset=".592"
       stop-color="#e3dcc9"
       id="stop25" /><stop
       offset=".8"
       stop-color="#cec2a0"
       id="stop27" /><stop
       offset="1"
       stop-color="#b6a472"
       id="stop29" /></linearGradient><path
     fill="url(#b)"
     stroke="#000000"
     stroke-width="0.867"
     stroke-linecap="round"
     stroke-linejoin="round"
     stroke-miterlimit="10"
     d="m 454.49505,61.024428 c 0,0 8.233,-0.434 -7.367,-9.101 -17.962,-9.979 -30.336,-13.868 -52.871,-18.202 -22.535,-4.334 -76.273,-8.667 -99.675,-8.667 -23.402,0 -58.072,1.733 -98.809,12.134 -40.736,10.401 -66.738,19.068 -103.141998,12.134 0,0 -19.788,-4.84 -32.99,-14.401 -13.203,-9.56 -32.78,-17.755 -40.065,-18.21 -7.284,-0.456 -23.2190003,-3.643 -17.7540003,9.56 5.463,13.204 11.3810003,15.934 11.3810003,19.577 0,3.641 5.009,9.105 7.284,10.926 2.277,1.821 2.732,10.472 3.188,11.837 0.456,1.365 -1.821,5.919 -2.276,7.284 -0.456,1.365 -6.829,10.017 -6.829,15.024 0,5.009 -4.099,9.561002 -5.9180003,11.837002 -1.822,2.276 -8.65100005,9.561 -8.19500005,12.748 0.455,3.187 4.09900005,11.836 20.03100035,5.918 15.935,-5.918 39.607,-18.211 44.617,-19.121 5.007,-0.911 17.754,-7.284002 21.397,-7.284002 3.642,0 31.411998,-0.911 31.411998,-0.911 0,0 -2.73,1.821 -2.275,4.097 0.456,2.277002 5.463,14.113002 8.195,14.113002 2.73,0 5.008,6.374 6.829,6.374 1.82,0 5.917,5.008 8.193,5.464 2.277,0.455 5.008,5.008 6.374,5.008 1.366,0 2.276,1.365 5.92,2.276 3.641,0.911 3.186,6.374 7.284,6.374 4.097,0 22.762,4.553 36.42,-3.643 13.66,-8.195 13.204,-3.642 19.123,-9.105 5.918,-5.463 10.017,-10.471 14.568,-10.471 4.552,0 5.918,4.097 6.374,5.918 0.455,1.821 -1.821,5.918 0,9.106 1.821,3.187 6.374,8.649 6.829,9.104 0.455,0.455 4.098,5.009 8.65,5.009 4.552,0 13.657,-7.74 17.299,-9.562 3.643,-1.821 12.748,-10.927 15.024,-10.927 2.276,0 4.097,-2.276 4.097,-2.276 0,0 18.666,1.822 24.585,1.822 5.919,0 71.021,-4.553 84.68,-14.113 0,0 18.946,-6.035 29.376,-11.249002 13.002,-6.499 42.037,-35.968 29.036,-36.401 z"
     id="path32"
     style="fill:url(#b)" /><path
     opacity="0.42"
     fill="#7a7359"
     stroke="#000000"
     stroke-width="0.867"
     stroke-linecap="round"
     stroke-linejoin="round"
     stroke-miterlimit="10"
     d="m 234.01305,118.45143 c 6.933,-3.933 17.165,-2.03 25.614,-3.183 11.924,-1.625 23.529,0.15 28.072,5.6 l -1.17,-0.111 c 0,0 -1.82,2.275 -4.097,2.275 -2.277,0 -11.382,9.105 -15.024,10.927 -3.642,1.822 -12.747,9.562 -17.299,9.562 -4.553,0 -8.195,-4.554 -8.65,-5.009 -0.455,-0.456 -5.008,-5.919 -6.829,-9.104 -1.821,-3.188 0.455,-7.284 0,-9.105 a 12.373,12.373 0 0 0 -0.617,-1.852 z"
     id="path34" /><linearGradient
     id="c"
     gradientUnits="userSpaceOnUse"
     x1="406.76501"
     y1="388.51001"
     x2="453.56799"
     y2="388.51001"
     gradientTransform="matrix(-1,0,0,1,460.82605,-355.07157)"><stop
       offset=".006"
       stop-color="#2e3192"
       id="stop36" /><stop
       offset="1"
       stop-color="#0068bf"
       id="stop38" /></linearGradient><path
     opacity="0.93"
     fill="url(#c)"
     d="m 54.062052,35.822428 c 0,0 -9.101,-3.034 -13.868,-3.467 l -4.767,-0.434 8.667,6.067 c 0,0 -6.934,-3.034 -11.7,-3.467 -4.768,-0.433 -8.234,-0.867 -8.234,-0.867 l 2.601,4.334 c 0,0 -3.9,-2.167 -7.801,-1.733 -3.9,0.433 -7.367,5.2 -7.367,5.2 l -4.3340003,-6.067 2.167,-2.6 -1.733,-3.9 c 0,0 8.6670003,-0.433 13.8670003,0 5.201,0.434 1.301,-3.467 1.301,-3.467 0,0 7.801,0.433 12.567,2.167 4.765,1.733 18.634,8.234 18.634,8.234 z"
     id="path41"
     style="fill:url(#c)" /><linearGradient
     id="d"
     gradientUnits="userSpaceOnUse"
     x1="408.49799"
     y1="457.35001"
     x2="456.603"
     y2="457.35001"
     gradientTransform="matrix(-1,0,0,1,460.82605,-355.07157)"><stop
       offset=".006"
       stop-color="#2e3192"
       id="stop43" /><stop
       offset="1"
       stop-color="#0068bf"
       id="stop45" /></linearGradient><path
     opacity="0.93"
     fill="url(#d)"
     d="m 40.627052,104.72843 11.701,-6.935002 c 0,0 -10.4,3.900002 -12.567,3.900002 -2.167,0 2.6,-4.767002 2.6,-4.767002 0,0 -3.467,-1.733 -8.667,0.866 -5.2,2.601002 -7.801,3.900002 -7.801,3.900002 l 1.3,-3.467002 c 0,0 -9.101,3.900002 -11.268,4.334002 -2.167,0.433 4.334,-4.768002 4.334,-4.768002 l -9.101,5.634002 0.866,-4.333002 -7.8010003,9.101002 8.6680003,-2.601 1.3,2.601 6.067,-4.334 3.033,3.467 c 0,0 10.835,-6.934 12.135,-6.934 1.3,0 -1.733,6.067 -1.733,6.067 0,0 3.467,-0.431 6.934,-1.731 z"
     id="path48"
     style="fill:url(#d)" /><linearGradient
     id="e"
     gradientUnits="userSpaceOnUse"
     x1="239.05"
     y1="464.522"
     x2="345.20401"
     y2="464.522"
     gradientTransform="matrix(-1,0,0,1,460.82605,-355.07157)"><stop
       offset=".006"
       stop-color="#2e3192"
       id="stop50" /><stop
       offset="1"
       stop-color="#0054bf"
       id="stop52" /></linearGradient><path
     fill="url(#e)"
     d="m 115.63905,97.703428 8.195,5.724002 c 0,0 5.634,2.601 8.668,2.601 3.033,0 9.534,2.167 12.567,2.167 3.033,0 13.435,1.733 16.902,1.733 3.467,0 13.868,2.6 16.901,2.6 h 8.668 c 4.333,0 10.4,1.734 13,1.734 2.601,0 9.534,0.866 9.534,0.866 l 11.701,1.733 -4.767,4.334 h -13.435 c -2.167,0 -25.568,-0.867 -29.902,-3.034 -4.334,-2.166 -12.135,-2.166 -15.168,-2.166 -3.033,0 -14.301,-1.301 -14.301,-1.301 l -12.568,-1.3 c 0,0 -3.9,-3.467 -5.634,-3.467 -1.734,0 -3.9,0.866 -3.9,0.866 0,0 -6.855,-7.544 -6.461,-13.090002 z"
     id="path55"
     style="fill:url(#e)" /><linearGradient
     id="f"
     gradientUnits="userSpaceOnUse"
     x1="253.785"
     y1="479.51801"
     x2="328.32401"
     y2="479.51801"
     gradientTransform="matrix(-1,0,0,1,460.82605,-355.07157)"><stop
       offset=".006"
       stop-color="#2e3192"
       id="stop57" /><stop
       offset="1"
       stop-color="#0054bf"
       id="stop59" /></linearGradient><path
     fill="url(#f)"
     d="m 132.50205,118.16143 h 8.233 c 3.9,0 12.568,3.468 12.568,3.468 h 9.101 c 3.467,0 9.968,1.3 9.968,1.3 l 12.134,0.866 13.001,0.867 9.534,3.033 -6.501,3.034 h -8.234 c 0,0 -11.701,-2.167 -17.335,-2.167 -5.634,0 -13.435,-0.867 -15.601,-1.3 -2.167,-0.434 -10.401,-3.9 -13.002,-2.601 l -2.6,1.3 -4.913,-2.308 c 0.002,0.002 -5.487,-3.757 -6.353,-5.492 z"
     id="path62"
     style="fill:url(#f)" /><path
     opacity="0.39"
     fill="#ffffff"
     d="m 207.47505,112.96143 c 0,0 -15.601,17.769 -23.402,21.235 0,0 -3.033,-0.434 0.434,-2.167 3.467,-1.733 16.035,-13.435 17.335,-15.168 1.3,-1.733 5.2,-5.633 5.633,-3.9 z m -6.501,-0.433 c 0,0 -15.601,17.769 -23.402,21.235 0,0 -3.034,-0.434 0.434,-2.167 3.467,-1.733 16.034,-13.435 17.334,-15.168 1.3,-1.733 5.201,-5.634 5.634,-3.9 z m -7.367,-0.433 c 0,0 -15.601,17.768 -23.402,21.234 0,0 -3.034,-0.433 0.434,-2.166 3.467,-1.733 16.034,-13.435 17.334,-15.168 1.3,-1.733 5.2,-5.633 5.634,-3.9 z m -7.368,-0.434 c 0,0 -15.601,17.769 -23.401,21.235 0,0 -3.034,-0.434 0.433,-2.167 3.468,-1.733 16.035,-13.435 17.335,-15.168 1.3,-1.733 5.201,-5.633 5.633,-3.9 z m -7.367,-0.433 c 0,0 -15.602,17.769 -23.401,21.235 0,0 -3.034,-0.434 0.433,-2.167 3.468,-1.733 16.035,-13.435 17.335,-15.168 1.3,-1.733 5.2,-5.634 5.633,-3.9 z m -7.367,-0.434 c 0,0 -12.567,15.602 -20.368,19.068 0,0 -3.034,-0.433 0.434,-2.167 3.467,-1.733 13.001,-11.268 14.301,-13.001 1.3,-1.733 5.199,-5.633 5.633,-3.9 z m -7.367,-0.432 c 0,0 -11.268,14.301 -19.068,17.768 0,0 -3.033,-0.434 0.434,-2.167 3.467,-1.733 11.701,-9.967 13.001,-11.7 1.299,-1.735 5.199,-5.636 5.633,-3.901 z m -4.334,-3.468 c 0,0 -11.268,14.302 -19.068,17.769 0,0 -3.033,-0.434 0.434,-2.167 3.467,-1.733 11.7,-9.968 13,-11.702 1.301,-1.733 5.201,-5.634 5.634,-3.9 z m -6.5,-1.776 c 0,0 -10.066,12.94 -17.034,16.077 0,0 -2.708,-0.393 0.388,-1.961 3.097,-1.568 10.452,-9.02 11.613,-10.587 1.161,-1.568 4.645,-5.096 5.033,-3.529 z m -8.235,-0.88 c 0,0 -7.9,10.858 -13.368,13.491 0,0 -2.127,-0.329 0.303,-1.646 2.431,-1.317 8.203,-7.569 9.116,-8.885 0.91,-1.315 3.645,-4.277 3.949,-2.96 z m -5.2,-1.307 c 0,0 -7.418,9.12 -12.555,11.331 0,0 -1.997,-0.277 0.285,-1.382 2.283,-1.106 7.704,-6.356 8.561,-7.462 0.857,-1.106 3.423,-3.593 3.709,-2.487 z m 72.975,12.619 c 0,0 -8.141,11.166 -13.776,13.873 0,0 -2.19,-0.339 0.313,-1.691 2.505,-1.354 8.454,-7.784 9.394,-9.137 0.939,-1.355 3.756,-4.399 4.069,-3.045 z m -77.742,-15.611002 c 0,0 -7.178,8.737002 -12.147,10.855002 0,0 -1.932,-0.266 0.275,-1.323 2.21,-1.06 7.456,-6.091 8.283,-7.149 0.828,-1.06 3.313,-3.443002 3.589,-2.383002 z m -5.634,-0.9 c 0,0 -6.456,6.671002 -10.926,8.288002 0,0 -1.738,-0.203 0.249,-1.011 1.986,-0.809 6.704,-4.65 7.449,-5.457 0.744,-0.809 2.979,-2.628002 3.228,-1.820002 z m -5.634,-2.578 c 0,0 -4.291,4.909002 -7.262,6.100002 0,0 -1.153,-0.149 0.166,-0.744 1.32,-0.595 4.455,-3.422002 4.951,-4.017002 0.495,-0.594 1.981,-1.933 2.145,-1.339 z"
     id="path64" /><path
     fill="#787878"
     d="m 4.6570517,27.588428 c 0,0 26.8690003,-2.167 58.9380003,16.468 0,0 -6.5,-1.733 -11.268,-3.9 -4.767,-2.167 -16.468,-6.5 -26.869,-8.667 -10.4,-2.167 -17.7680003,-2.601 -17.7680003,-2.601 l -1.733,0.867 -1.734,1.734 -1.733,-3.034 z m 2.601,7.8 c 0,0 38.5700003,7.368 59.3710003,15.602 l 6.067,2.167 c 0,0 -5.634,-0.434 -10.4,-1.733 -4.768,-1.3 -16.901,-5.634 -22.103,-6.501 -5.2,-0.867 -22.968,-5.634 -25.135,-6.5 -2.167,-0.866 -3.9,-0.434 -7.8000003,-3.035 z m 5.9450003,9.961 c 0,0 39.992,9.541 58.193,13.008 0,0 -11.268,-0.867 -15.602,-1.733 -4.333,-0.867 -27.302,-6.067 -29.902,-6.067 -2.6,0 -10.834,-2.6 -10.834,-2.6 0,0 -2.409,0.852 -1.855,-2.608 z m 8.789,11.274 c 0,0 13.435,3.034 21.235,3.034 7.8,0 28.169,3.9 28.169,3.9 0,0 -20.368,-2.167 -24.269,-2.167 -3.901,0 -13.001,-1.3 -13.001,-1.3 l -12.568,-1.3 -1.071,-2.516 m 2.805,9.304 c 0,0 39.004,2.312 45.071,2.312 h -20.802 c -4.334,0 -23.887,0.221 -23.887,0.221 z m -1.154,7.801 c 0,0 27.59,-0.721 34.091,-1.154 6.501,-0.433 9.968,-0.867 9.968,-0.867 0,0 -12.568,2.601 -18.635,2.601 h -15.602 l -10.562,1.438 z m -2.311,7.223 c 0,0 38.645,-1.033 44.202,-2.743 5.634,-1.733 -7.801,3.033 -12.567,3.033 -4.768,0 -25.136,1.3 -25.136,1.3 l -7.367,1.301 -3.467,2.6 z m -5.258,9.818 c 0,0 16.382,-3.031 23.17,-3.463 6.788,-0.432 18.056,0.436 23.256,-2.165 0,0 -14.301,3.467 -17.768,3.467 -3.467,0 -7.367,-0.866 -10.834,0.434 -3.468,1.3 -9.968,2.601 -12.135,2.601 -2.167,0 -6.501,3.033 -6.501,3.033 z M 250.23305,140.26443 c 0,0 24.702,-18.635 28.169,-18.635 3.467,0 3.9,-4.334 -15.168,7.801 -19.068,12.134 -13.001,10.834 -13.001,10.834 z m -4.044,-0.867 c 0,0 24.702,-18.635 28.169,-18.635 3.467,0 3.9,-4.334 -15.168,7.801 -19.068,12.135 -13.001,10.834 -13.001,10.834 z m -2.889,-2.6 c 0,0 24.702,-18.636 28.169,-18.636 3.467,0 3.9,-4.333 -15.168,7.801 -19.069,12.135 -13.001,10.835 -13.001,10.835 z m -2.38,-2.598 c 0,0 22.858,-17.25 26.065,-17.25 3.209,0 3.609,-4.012 -14.035,7.221 -17.644,11.232 -12.03,10.029 -12.03,10.029 z m -1.812,-2.884 c 0,0 20.782,-15.032 23.698,-15.032 2.918,0 3.281,-3.495 -12.76,6.293 -16.042,9.788 -10.938,8.739 -10.938,8.739 z m -2.782,-3.731 c 0,0 19.276,-11.539 21.842,-11.341 2.565,0.197 3.118,-2.788 -11.641,4.554 -14.761,7.344 -10.201,6.787 -10.201,6.787 z m -0.845,-3.648 c 0,0 14.609,-7.591 16.566,-7.439 1.956,0.15 2.355,-1.847 -8.84,2.967 -11.198,4.814 -7.726,4.472 -7.726,4.472 z"
     id="path66" /><path
     fill="none"
     stroke="#000000"
     stroke-width="0.867"
     stroke-linecap="round"
     stroke-linejoin="round"
     stroke-miterlimit="10"
     d="m 392.95705,46.222428 c 0,0 -7.801,13.868 -10.834,18.635 -3.034,4.767 -6.501,9.101 -6.501,11.701 0,2.601 -4.767,14.302 1.733,19.068 6.5,4.768002 14.734,7.801002 19.502,7.801002 h 4.767"
     id="path68" /><path
     fill="#787878"
     d="m 12.892052,96.927428 c 0,0 15.168,0 24.702,-1.301 9.534,-1.3 20.802,-3.467 20.802,-3.467 0,0 -2.601,2.167 -5.2,2.167 -2.601,0 -19.068,3.9 -19.502,3.467 -0.434,-0.433 -17.335,0.867 -17.335,0.867 l -4.334,0.434 1.733,-4.768 m -5.1070003,7.931002 c 0,0 28.9420003,-0.997 35.8760003,-2.297002 l 6.935,-1.3 c 0,0 -12.135,3.467002 -16.035,3.467002 -3.9,0 -15.168,1.733 -15.168,1.733 l -14.3010003,0.868 z m -4.427,5.938 c 0,0 18.2020003,0 22.9690003,-1.301 4.768,-1.3 -8.667,2.601 -10.834,2.601 -2.167,0 -10.4010003,0.433 -10.4010003,0.433 l -4.334,1.3 z m -3.76800005,6.81 c 0,0 17.63600035,-1.61 21.10300035,-2.91 3.467,-1.301 0,0.433 -3.467,1.3 -3.467,0.867 -9.1010003,1.733 -9.1010003,1.733 l -5.2,1.3 -1.733,2.167 z"
     id="path70" /><linearGradient
     id="g"
     gradientUnits="userSpaceOnUse"
     x1="414.271"
     y1="479.017"
     x2="414.271"
     y2="371.621"
     gradientTransform="matrix(-1,0,0,1,460.82605,-355.07157)"><stop
       offset=".006"
       stop-color="#8a8a8a"
       id="stop72" /><stop
       offset=".313"
       stop-color="#c9c9c9"
       id="stop74" /><stop
       offset=".484"
       stop-color="#c5c5c5"
       id="stop76" /><stop
       offset=".673"
       stop-color="#b8b8b8"
       id="stop78" /><stop
       offset=".869"
       stop-color="#a2a2a2"
       id="stop80" /><stop
       offset="1"
       stop-color="#8f8f8f"
       id="stop82" /></linearGradient><path
     fill="url(#g)"
     d="m 8.6510517,103.25743 c 1.8190003,-2.276 5.9180003,-6.828002 5.9180003,-11.838002 0,-5.007 6.373,-13.658 6.829,-15.023 0.455,-1.365 2.731,-5.919 2.276,-7.284 -0.455,-1.365 -0.91,-10.016 -3.188,-11.837 -2.275,-1.822 -7.284,-7.285 -7.284,-10.926 0,-3.643 -5.9180003,-6.374 -11.3810003,-19.578 -5.465,-13.203 10.4700003,-10.015 17.7540003,-9.56 7.285,0.454 26.862,8.65 40.065,18.21 13.202,9.561 32.99,14.401 32.99,14.401 l 0.044,0.007 c -6.432,6.594 -9.868,13.929 -9.868,21.95 0,7.627 2.262,15.707 6.907,23.679 -1.516,0.037 -2.652,0.06 -3.213,0.06 -3.644,0 -16.391,6.373002 -21.397,7.284002 -5.01,0.909 -28.683,13.203 -44.617,19.121 -15.9330003,5.918 -19.57600035,-2.732 -20.03100035,-5.918 -0.454999997135,-3.188 6.37400005,-10.473 8.19600005,-12.748 z"
     id="path85"
     style="fill:url(#g)" /><linearGradient
     id="h"
     gradientUnits="userSpaceOnUse"
     x1="72.286003"
     y1="409.61499"
     x2="447.168"
     y2="409.61499"
     gradientTransform="matrix(-1,0,0,1,460.82605,-355.07157)"><stop
       offset=".006"
       stop-color="#2e3192"
       id="stop87" /><stop
       offset="1"
       stop-color="#0068bf"
       id="stop89" /></linearGradient><path
     opacity="0.93"
     fill="url(#h)"
     d="m 383.42205,48.812428 c 0,0 6.296,0.279 4.922,2.457 -3.189,5.055 -4.922,4.477 -4.922,4.477 l -51.531,3.263 c 0,0 -7.74,2.732 -10.927,2.732 -3.187,0 -15.479,-2.277 -15.479,-2.277 h -15.934 l -27.316,1.821 -32.324,1.821 c 0,0 -17.301,1.821 -20.032,1.821 l -54.631,10e-4 -35.056,1.821 c 0,0 -15.935,1.821 -32.778998,-6.374 -16.845,-8.195 -31.869,-6.374 -31.869,-6.374 l -22.764,-1.366 -12.292,1.366 h -1.821 l -5.008,-7.284 7.74,-0.456 14.568,0.91 -3.642,-3.642 12.747,5.008 -2.276,-6.374 11.381,6.374 c 0,0 6.374,-0.455 11.383,0 5.008,0.455 14.113,4.098 17.299,4.098 3.188,0 8.197,6.83 34.602998,5.919 26.406,-0.911 91.508,-5.464 101.979,-5.464 10.472,0 62.372,-3.642 75.119,-3.187 12.748,0.455 42.34,1.366 45.982,1.366 3.642,0 25.951,-4.098 31.414,-4.098 5.463,0 11.466,1.641 11.466,1.641 z"
     id="path92"
     style="fill:url(#h)" /><linearGradient
     id="i"
     gradientUnits="userSpaceOnUse"
     x1="64.741997"
     y1="401.41599"
     x2="339.72501"
     y2="401.41599"
     gradientTransform="matrix(-1,0,0,1,460.82605,-355.07157)"><stop
       offset=".006"
       stop-color="#2e3192"
       id="stop94" /><stop
       offset="1"
       stop-color="#0068bf"
       id="stop96" /></linearGradient><path
     opacity="0.93"
     fill="url(#i)"
     d="m 396.08405,40.343428 -5.919,3.642 h -5.919 c 0,0 -1.82,-1.821 -5.008,-1.821 -3.187,0 -27.771,3.187 -33.689,3.187 h -40.52 c -10.471,0 -37.332,-0.456 -43.25,-0.456 -5.918,0 -19.577,1.821 -25.495,1.821 -5.919,0 -43.705,2.277 -43.705,2.277 l -42.795,4.552 -28.683,0.911 c 0,0 10.471,-1.821 31.868,-4.098 21.397,-2.276 65.559,-6.374 71.022,-6.374 5.463,0 36.877,-3.642 49.625,-2.731 12.747,0.91 54.632,0 61.006,0 6.374,0 30.958,-2.732 37.332,-2.732 6.374,0 15.025,-1.365 24.13,1.822 z"
     id="path99"
     style="fill:url(#i)" /><linearGradient
     id="j"
     gradientUnits="userSpaceOnUse"
     x1="80.293999"
     y1="426.19901"
     x2="438.68799"
     y2="426.19901"
     gradientTransform="matrix(-1,0,0,1,460.82605,-355.07157)"><stop
       offset=".006"
       stop-color="#2e3192"
       id="stop101" /><stop
       offset="1"
       stop-color="#0068bf"
       id="stop103" /></linearGradient><path
     opacity="0.93"
     fill="url(#j)"
     d="m 380.53205,64.413428 -4.765,8.099 c 0,0 -10.979,1.734 -20.225,2.312 -9.245,0.578 -29.469,0.578 -29.469,0.578 0,0 -43.914,2.889 -52.004,2.889 -8.09,0 -60.095,2.312 -65.295,2.312 -5.201,0 -17.335,-0.578 -23.113,0 -5.777,0.577 -87.829998,-1.156 -87.829998,-1.156 0,0 -3.467,0 -9.245,-1.733 -5.777,-1.733 -14.446,-4.623 -24.269,-5.201 -9.823,-0.577 -42.181,0 -42.181,0 l 1.537,-4.4 -0.383,-2.533 -1.154,-4.045 34.091,3.467 c 0,0 11.557,1.734 17.914,2.312 6.354,0.577 16.179,4.044 30.622998,4.044 14.447,0 62.984,2.312 62.984,2.312 0,0 12.712,-2.312 24.846,-2.312 12.134,0 43.915,-1.154 43.915,-1.154 0,0 41.603,-3.468 52.583,-3.468 10.979,0 26.002,2.312 37.559,0 11.557,-2.312 23.113,-2.312 28.892,-2.312 5.779,0 22.678,1.723 24.989,-0.011 z"
     id="path106"
     style="fill:url(#j)" /><linearGradient
     id="k"
     gradientUnits="userSpaceOnUse"
     x1="94.880997"
     y1="443.47501"
     x2="446.25699"
     y2="443.47501"
     gradientTransform="matrix(-1,0,0,1,460.82605,-355.07157)"><stop
       offset=".006"
       stop-color="#2e3192"
       id="stop108" /><stop
       offset="1"
       stop-color="#0068bf"
       id="stop110" /></linearGradient><path
     opacity="0.93"
     fill="url(#k)"
     d="m 19.827052,80.602428 c 0,0 45.647,5.778 61.249,5.778 15.602,0 62.983998,2.889 73.962998,2.889 10.978,0 53.158,-0.001 68.183,-0.578 15.023,-0.577 124.232,-7.511 124.232,-7.511 l 18.491,-0.578 c 0,0 -35.248,9.245 -47.961,9.245 -12.711,0 -32.936,4.623 -48.537,4.623 -15.601,0 -54.314,1.733 -60.671,1.733 -6.356,0 -61.251,-1.733 -61.251,-1.733 0,0 -71.071998,-6.356 -76.271998,-6.356 -5.201,0 -18.489,1.155 -18.489,1.155 l -4.046,-1.733 -17.335,4.045 6.356,-4.623 -16.179,3.467 6.355,-4.622 -13.347,4.618 c 10e-4,-0.001 1.215,-8.086 5.259,-9.819 z"
     id="path113"
     style="fill:url(#k)" /><linearGradient
     id="l"
     gradientUnits="userSpaceOnUse"
     x1="163.64301"
     y1="456.04401"
     x2="343.50201"
     y2="456.04401"
     gradientTransform="matrix(-1,0,0,1,460.82605,-355.07157)"><stop
       offset=".006"
       stop-color="#2e3192"
       id="stop115" /><stop
       offset="1"
       stop-color="#0068bf"
       id="stop117" /></linearGradient><path
     opacity="0.93"
     fill="url(#l)"
     d="m 297.18405,108.33743 c 0,0 -28.891,-4.045 -39.292,-2.889 -10.401,1.155 -31.781,1.155 -39.871,1.155 -8.088,0 -42.758,-5.778 -42.758,-5.778 0,0 -17.912,1.156 -22.535,-1.155002 -4.623,-2.311 -17.335,-3.467 -17.335,-3.467 l -17.479,-2.597 c 0,0 -2.745,3.175 3.611,3.175 6.354,0 25.423,7.511002 32.357,7.511002 6.934,0 20.224,0.578 25.425,0.578 5.2,0 25.425,3.467 25.425,3.467 0,0 52.004,-1.155 58.938,-1.155 6.934,0 33.514,1.155 33.514,1.155 z"
     id="path120"
     style="fill:url(#l)" /><path
     opacity="0.51"
     fill="#ffffff"
     d="m 229.34205,27.588428 c 0,0 -34.236,-24.7029996 -36.836,-24.7029996 -2.601,0 3.033,3.034 3.033,3.034 l 28.17,19.5009996 c 0.001,0 2.167,3.034 5.633,2.168 z m -9.389,0.433 c 0,0 -22.535,-16.757 -26.003,-17.335 -3.467,-0.578 -13.862,-1.1589996 -15.599,-1.7339996 -1.735,-0.577 5.775,2.0229996 8.665,2.0229996 2.889,0 5.777,0 9.822,2.889 4.046,2.889 20.803,16.468 23.115,14.157 z"
     id="path122" /><path
     opacity="0.5"
     fill="#ffffff"
     d="m 211.14105,28.887428 c 0,0 -19.068,-13.867 -22.102,-14.734 -3.034,-0.866 -14.734,-3.9 -18.635,-3.467 -3.901,0.433 9.534,2.601 13.434,3.9 3.9,1.301 11.701,6.501 13.002,7.367 1.3,0.868 12.568,8.668 14.301,6.934 z m -7.801,3.034 c 0,0 -15.168,-9.968 -22.102,-10.834 -6.934,-0.867 -11.268,-0.867 -13.435,-1.733 -2.167,-0.867 -5.634,-4.334 -5.634,-3.033 0,1.299 5.2,5.199 8.667,5.199 3.468,0 10.835,1.301 13.435,1.734 2.602,0.434 16.47,9.533 19.069,8.667 z m -7.8,0.434 c 0,0 -12.567,-6.501 -16.468,-6.501 -3.901,0 -13.001,-1.3 -14.734,-2.6 -1.733,-1.301 -5.197,-3.904 -5.632,-2.169 -0.436,1.735 9.532,5.202 11.699,5.202 2.166,0 9.101,1.301 10.4,1.301 1.299,0 12.135,5.633 14.735,4.767 z"
     id="path124" /><path
     opacity="0.5"
     fill="#ffffff"
     d="m 187.73905,31.921428 c 0,0 -3.317,-1.549 -6.16,-2.433 -1.138,-0.354 -2.197,-0.602 -2.94,-0.602 -2.6,0 -17.768,-3.033 -17.768,-3.033 0,0 -4.334,-3.467 -5.201,-1.733 -0.866,1.733 3.9,3.9 6.067,3.9 0,0.001 21.669,1.734 26.002,3.901 z m -3.033,1.3 c 0,0 -25.568,-1.732 -28.169,-3.033 -2.601,-1.301 -3.467,2.167 -1.3,2.167 2.166,0 24.702,2.6 29.469,0.866 z m -5.634,3.034 c 0,0 4.767,-0.867 0.434,-0.867 -4.334,0 -19.502,0.867 -21.669,0 -2.167,-0.866 2.601,1.733 4.334,1.733 1.733,0 12.567,0.434 16.901,-0.866 z"
     id="path126" /><path
     fill="none"
     stroke="#000000"
     stroke-width="0.867"
     stroke-linecap="round"
     stroke-linejoin="round"
     stroke-miterlimit="10"
     d="m 454.49505,60.524428 c 0,0 -3.034,1.3 -4.333,6.5 -1.301,5.201 -1.301,7.368 -5.201,10.835"
     id="path130" /><path
     opacity="0.25"
     d="m 401.62405,63.124428 c 0,0 2.167,20.802 6.501,23.835 l 4.334,3.033 c 0,0 -4.768,6.067 -3.468,8.234 1.3,2.167002 -3.9,-3.9 -3.9,-3.9 v -4.334 c 0,0 -6.934,-13.434 -3.467,-26.868 z"
     id="path132" /><radialGradient
     id="m"
     cx="29.233"
     cy="418.76401"
     r="14.343"
     gradientTransform="matrix(-1,0,0,1,460.82605,-355.07157)"
     gradientUnits="userSpaceOnUse"><stop
       offset="0"
       stop-color="#fff"
       id="stop134" /><stop
       offset=".69"
       stop-color="#fff"
       id="stop136" /><stop
       offset=".804"
       stop-color="#fff"
       id="stop138" /><stop
       offset=".833"
       stop-color="#f7f7f7"
       id="stop140" /><stop
       offset=".88"
       stop-color="#e0e0e0"
       id="stop142" /><stop
       offset=".939"
       stop-color="#bbb"
       id="stop144" /><stop
       offset="1"
       stop-color="#8c8c8c"
       id="stop146" /></radialGradient><ellipse
     fill="url(#m)"
     stroke="#000000"
     stroke-width="0.867"
     stroke-linecap="round"
     stroke-linejoin="round"
     stroke-miterlimit="10"
     cx="431.59305"
     cy="63.692436"
     rx="14.569"
     ry="14.113"
     id="ellipse149"
     style="fill:url(#m)" /><linearGradient
     id="n"
     gradientUnits="userSpaceOnUse"
     x1="20.195"
     y1="417.789"
     x2="36.210999"
     y2="417.789"
     gradientTransform="matrix(-1,0,0,1,460.82605,-355.07157)"><stop
       offset="0"
       stop-color="#424242"
       id="stop151" /><stop
       offset=".115"
       stop-color="#2d2d2d"
       id="stop153" /><stop
       offset=".264"
       stop-color="#191919"
       id="stop155" /><stop
       offset=".435"
       stop-color="#0b0b0b"
       id="stop157" /><stop
       offset=".644"
       stop-color="#020202"
       id="stop159" /><stop
       offset="1"
       id="stop161" /></linearGradient><ellipse
     opacity="0.88"
     fill="url(#n)"
     cx="432.62305"
     cy="62.71743"
     rx="8.0080004"
     ry="7.6329999"
     id="ellipse164"
     style="fill:url(#n)" /><g
     opacity="0.52"
     id="g200"
     transform="translate(-56.829948,-355.07157)"><linearGradient
       id="o"
       gradientUnits="userSpaceOnUse"
       x1="4.3080001"
       y1="414.634"
       x2="4.3940001"
       y2="414.634"
       gradientTransform="matrix(-1,0,0,1,517.656,0)"><stop
         offset="0"
         stop-color="#fff"
         id="stop166" /><stop
         offset=".002"
         stop-color="#fffefe"
         id="stop168" /><stop
         offset=".135"
         stop-color="#e9e6e5"
         id="stop170" /><stop
         offset=".281"
         stop-color="#d7d3d1"
         id="stop172" /><stop
         offset=".448"
         stop-color="#cbc5c3"
         id="stop174" /><stop
         offset=".652"
         stop-color="#c4bdba"
         id="stop176" /><stop
         offset="1"
         stop-color="#c2bbb8"
         id="stop178" /></linearGradient><path
       fill="url(#p)"
       d="m 71.257,445.876 c 0,-2.165 1.192,-5.011 2.582,-7.653 15.657,4.324 33.713,6.792 52.945,6.792 15.119,0 29.514,-1.527 42.587,-4.279 32.051,16.041 91.416,26.814 159.363,26.814 98.553,0 179.062,-22.66 184.334,-51.192 7.706,3.49 -18.695,29.911 -30.921,36.024 -10.43,5.214 -29.376,11.249 -29.376,11.249 -13.659,9.562 -78.762,14.113 -84.681,14.113 -5.919,0 -24.585,-1.821 -24.585,-1.821 0,0 -1.82,2.276 -4.097,2.276 -2.277,0 -11.382,9.104 -15.023,10.926 -3.642,1.822 -12.747,9.562 -17.3,9.562 -4.553,0 -8.195,-4.552 -8.65,-5.008 -0.455,-0.455 -5.007,-5.918 -6.829,-9.105 -1.821,-3.188 0.456,-7.284 0,-9.105 -0.455,-1.822 -1.821,-5.919 -6.373,-5.919 -4.552,0 -8.65,5.008 -14.568,10.473 -5.918,5.463 -5.463,0.908 -19.123,9.104 -13.658,8.195 -32.324,3.644 -36.42,3.644 -4.099,0 -3.643,-5.463 -7.284,-6.374 -3.643,-0.91 -4.554,-2.276 -5.92,-2.276 -1.366,0 -4.097,-4.553 -6.373,-5.008 -2.277,-0.455 -6.374,-5.465 -8.193,-5.465 -1.822,0 -4.099,-6.373 -6.829,-6.373 -2.732,0 -7.74,-11.837 -8.195,-14.113 -0.455,-2.275 2.275,-4.097 2.275,-4.097 0,0 -27.771,0.91 -31.413,0.91 -3.643,0 -16.39,6.374 -21.397,7.285 -5.009,0.91 -28.682,13.202 -44.617,19.12 -15.933,5.918 -19.576,-2.73 -20.031,-5.918 -0.455,-3.187 6.374,-10.471 8.195,-12.747 1.818,-2.279 5.917,-6.831 5.917,-11.839 z"
       id="path198"
       style="fill:url(#p)" /><path
       fill="url(#o)"
       d="m 513.312,414.273 c 0.066,0.285 0.04,0.523 -0.05,0.722 0.023,-0.24 0.036,-0.48 0.05,-0.722 z"
       id="path181"
       style="fill:url(#o)" /><linearGradient
       id="p"
       gradientUnits="userSpaceOnUse"
       x1="3.2019999"
       y1="457.522"
       x2="460.534"
       y2="457.522"
       gradientTransform="matrix(-1,0,0,1,517.656,0)"><stop
         offset="0"
         stop-color="#fff"
         id="stop183" /><stop
         offset=".002"
         stop-color="#fffefe"
         id="stop185" /><stop
         offset=".135"
         stop-color="#e9e6e5"
         id="stop187" /><stop
         offset=".281"
         stop-color="#d7d3d1"
         id="stop189" /><stop
         offset=".448"
         stop-color="#cbc5c3"
         id="stop191" /><stop
         offset=".652"
         stop-color="#c4bdba"
         id="stop193" /><stop
         offset="1"
         stop-color="#c2bbb8"
         id="stop195" /></linearGradient></g><g
     opacity="0.82"
     id="g208"
     transform="translate(-56.829948,-355.07157)"><path
       opacity="0.42"
       fill="#7a7359"
       stroke="#000000"
       stroke-width="0.867"
       stroke-linecap="round"
       stroke-linejoin="round"
       stroke-miterlimit="10"
       d="m 432.018,448.964 c 0,0 -31.436,-14.626 -41.025,-16.756 -5.199,-1.156 -28.891,-4.312 -28.891,6.355 0,4.622 5.777,14.445 5.777,16.757 0,2.312 5.201,8.667 9.246,9.245 5.148,0.735 19.068,2.311 40.447,-6.935 0,10e-4 6.934,-7.51 14.446,-8.666 z"
       id="path202" /><path
       fill="#787878"
       d="m 375.884,461.22 c 0,0 35.399,-2.389 36.698,-4.746 1.3,-2.357 7.541,0.699 -16.627,4.282 -24.168,3.584 -20.071,0.464 -20.071,0.464 z"
       id="path204" /><path
       fill="#787878"
       d="m 376.947,456.861 c 0,0 35.473,-0.732 36.88,-3.026 1.409,-2.294 7.501,1.05 -16.808,3.501 -24.31,2.451 -20.072,-0.475 -20.072,-0.475 z m -2.35,-4.661 c 0,0 35.478,0.411 36.958,-1.837 1.481,-2.247 7.463,1.292 -16.912,2.958 -24.377,1.665 -20.046,-1.121 -20.046,-1.121 z m -1.736,-6.119 c 0,0 35.286,3.708 36.969,1.607 1.684,-2.099 7.311,1.98 -17.114,1.372 -24.425,-0.606 -19.855,-2.979 -19.855,-2.979 z m -3.33,-5.9 c 0,0 34.863,6.587 36.713,4.63 1.85,-1.953 7.123,2.573 -17.17,-0.033 -24.293,-2.606 -19.543,-4.597 -19.543,-4.597 z m 4.82,-6.074 c 0,0 28.055,8.284 29.733,6.832 1.679,-1.449 5.631,2.699 -14.082,-1.446 -19.712,-4.145 -15.651,-5.386 -15.651,-5.386 z"
       id="path206" /></g><linearGradient
     id="q"
     gradientUnits="userSpaceOnUse"
     x1="24.822001"
     y1="428.397"
     x2="56.137001"
     y2="428.397"
     gradientTransform="matrix(-1,0,0,1,460.82605,-355.07157)"><stop
       offset="0"
       stop-color="#fff"
       id="stop210" /><stop
       offset=".002"
       stop-color="#fffffe"
       id="stop212" /><stop
       offset=".135"
       stop-color="#eae8e5"
       id="stop214" /><stop
       offset=".281"
       stop-color="#d9d6d1"
       id="stop216" /><stop
       offset=".448"
       stop-color="#cecac3"
       id="stop218" /><stop
       offset=".652"
       stop-color="#c7c2ba"
       id="stop220" /><stop
       offset="1"
       stop-color="#c5c0b8"
       id="stop222" /></linearGradient><path
     opacity="0.68"
     fill="url(#q)"
     d="m 436.00405,78.859428 c 0,0 -8.666,1.156 -11.557,0 -2.889,-1.155 -7.512,-6.356 -7.512,-6.356 l -2.311,-8.089 c 0,0 -4.045,-5.778 -6.357,-4.045 -2.311,1.733 -4.044,5.778 -3.467,12.134 0.578,6.356 8.09,13.868 16.757,13.868 10e-4,-10e-4 4.047,2.312 14.447,-7.512 z"
     id="path225"
     style="fill:url(#q)" /></svg>
