<svg xmlns="http://www.w3.org/2000/svg" version="1.0" viewBox="0 0 45.354 132.661"><defs><clipPath clipPathUnits="userSpaceOnUse" id="a"><path d="M.16 0h43.973v131.44H.16z"/></clipPath><clipPath clipPathUnits="userSpaceOnUse" id="b"><path d="M-.48-.64h45.253v132.72H-.48z"/></clipPath></defs><path d="M8.115000000000009 34.259000000000015v-7.115M7.475 33.46v-4.637" fill="none" stroke="#f0f1f1" stroke-width=".31980619px" stroke-linecap="round" stroke-linejoin="round" stroke-miterlimit="4" stroke-dasharray="none" stroke-opacity="1"/><path d="m39.456 119.887-1.839.16" fill="none" stroke="#b1b2b4" stroke-width=".31980619px" stroke-linecap="round" stroke-linejoin="round" stroke-miterlimit="4" stroke-dasharray="none" stroke-opacity="1"/><path d="M2.039 34.819h32.86c.72 0 .72.52.72 1.559v90.745c0 3.198-.84 3.318-2.4 3.318H3.599c-1.44 0-2.439-.24-2.439-3.318V35.978c0-.76.12-1.16.88-1.16z" fill="#f9d3e2" fill-rule="evenodd" fill-opacity="1" stroke="none"/><path d="M35.299 118.608H7.635L1.6 129.442c.64.8-.12.919 1 .919H32.06c2.038 0 3.238.24 3.238-3.358v-8.395z" fill="#e7b5d1" fill-rule="evenodd" fill-opacity="1" stroke="none"/><path d="M1.16 35.978v91.065c0 .88 0 1.56.24 2.039l6.875-10.554-.2-83.71H2c-.72 0-.84.4-.84 1.16z" fill="#edbed6" fill-rule="evenodd" fill-opacity="1" stroke="none"/><path d="M10.674 27.303h31.9v-.28c0-1.039 0-1.558-.72-1.558H8.995c-.759 0-.879.4-.879 1.159v89.146c0 2.438.52 3.078 1.48 3.198.12.12.239.12.359.12l-.12-.12h25.784s-.12-1 0-1.16c-7.235-.12-18.428-.759-21.347-.759-2.638 0-3.957-.12-4.437-.52V28.423c0-.76.12-1.12.84-1.12z" fill="#e2bad5" fill-rule="evenodd" fill-opacity="1" stroke="none"/><path d="m40.695 25.624-1.239 98.42 2.559-3.957c.72-.92 1.439-2.598 1.439-3.118V25.624h-2.759z" fill="#bcaed2" fill-rule="evenodd" fill-opacity="1" stroke="none"/><path d="m41.495 25.624-5.237 8.755v94.543l5.357-8.475-.12-94.823z" fill="#e8cade" fill-rule="evenodd" fill-opacity="1" stroke="none"/><path d="M1.16 127.803v.52c.12.28.12.519.24.759l1.438-2.159V37.817c0-.8.12-1.32.84-1.559l4.437-1.28v-.16H2c-.72 0-.84.4-.84 1.16v91.825z" fill="#bcaed2" fill-rule="evenodd" fill-opacity="1" stroke="none"/><path d="M2.758 125.884c0 1.359.48 2.558 4.677 2.558 4.238 0 26.265 1.2 27.464.8 1.2-.4-.84 1.079-.84 1.079l-31.3.12-1.6-1.44z" fill="#bcaed2" fill-rule="evenodd" fill-opacity="1" stroke="none"/><path d="M2.119 35.778H32.86s1.56.16 1.56 1.68v4.796c-.24-3.677-8.995-5.436-16.91-5.676-7.916-.28-15.391-.8-15.391-.8z" fill="#fff" fill-rule="evenodd" fill-opacity="1" stroke="none"/><path d="M40.735 121.207c-.96 1.439-3.358 6.036-3.358 4.237v-48.65c.6 7.235-.48 44.812 1.44 44.932 1.918.12 1.918-.64 1.918-.64z" fill="#bcaed2" fill-rule="evenodd" fill-opacity="1" stroke="none"/><path d="M8.315 25.624h32.58c.24 0 .72 0 .36.68-1.32 1.799-4.197 6.196-5.157 7.755-.6.76-.48.64-1.08.64H2.199c-.639 0-.879 0-.759-.24 1.36-1.959 4.597-6.876 5.437-8.155.24-.4 1.08-.68 1.439-.68z" fill="#fef4f8" fill-rule="evenodd" fill-opacity="1" stroke="none"/><path d="M8.315 25.624h32.58c.24 0 .72 0 .36.68-1.32 1.799-4.197 6.196-5.157 7.755-.6.76-.48.64-1.08.64H2.199c-.639 0-.879 0-.759-.24 1.36-1.959 4.597-6.876 5.437-8.155.24-.4 1.08-.68 1.439-.68" fill="none" stroke="#fff" stroke-width=".31980619px" stroke-linecap="round" stroke-linejoin="round" stroke-miterlimit="4" stroke-dasharray="none" stroke-opacity="1"/><path d="M38.697 38.177c.959-6.036 1.199-8.475 2.598-10.554l-4.158 6.836v20.987c0 1.52.24-8.634 1.56-17.27z" fill="#bcaed2" fill-rule="evenodd" fill-opacity="1" stroke="none"/><path d="M32.98 131.08c2.039 0 3.118-.48 3.118-4.077V11.673c0-.28-.12-.68-.6-.68H1.16c-.24 0-.52.16-.64.28 0 0 0 0 0 0-.12.12-.12.12-.12.24H.28v-.12 115.61c0 3.598 1.48 4.078 3.279 4.078H32.98z" fill="none" stroke="#000" stroke-width=".31980619px" stroke-linecap="round" stroke-linejoin="round" stroke-miterlimit="4" stroke-dasharray="none" stroke-opacity="1"/><path d="M1.799 34.819h33.06c.6 0 .6.52.6 1.559v90.745c0 3.198-.84 3.318-2.399 3.318H3.478c-1.56 0-2.559-.24-2.559-3.318V35.978c0-.76.12-1.16.88-1.16" fill="none" stroke="#000" stroke-width=".31980619px" stroke-linecap="round" stroke-linejoin="round" stroke-miterlimit="4" stroke-dasharray="none" stroke-opacity="1"/><path d="M3.958 34.859c0-.68.52-1.24 1.159-1.24.64 0 1.16.56 1.16 1.24 0 .72-.52 1.24-1.16 1.24-.64 0-1.16-.52-1.16-1.24zM6.756 34.939a.7.7 0 0 1 .68-.68c.4 0 .68.32.68.68 0 .4-.28.68-.68.68-.36 0-.68-.28-.68-.68zM2.119 34.939a.7.7 0 0 1 .68-.68c.4 0 .679.32.679.68 0 .4-.28.68-.68.68-.36 0-.68-.28-.68-.68z" fill="#fff" fill-rule="evenodd" fill-opacity="1" stroke="none"/><path d="m41.615 6.836.16 97.22" fill="none" stroke="#b1b2b4" stroke-width=".31980619px" stroke-linecap="round" stroke-linejoin="round" stroke-miterlimit="4" stroke-dasharray="none" stroke-opacity="1"/><path clip-path="url(#b)" d="M42.254 6.836c-.64.16-.999.28-1.239.76.24.4.72.639 1.24.759-.52.24-1.12.36-1.52.76.52.64 2 1.119.52 1.758 1.48 1 1.24 1.76-.24 2.599" fill="none" stroke="#acdef5" stroke-width=".63961238px" stroke-linecap="butt" stroke-linejoin="miter" stroke-miterlimit="8" stroke-dasharray="none" stroke-opacity="1"/><path d="M43.294.68v115.09c0 1.799-.24 2.838-.72 3.318" fill="none" stroke="#000" stroke-width=".31980619px" stroke-linecap="round" stroke-linejoin="round" stroke-miterlimit="10" stroke-dasharray="none" stroke-opacity="1"/><path d="m18.589 29.782 6.276-18.309h9.874c-3.598.4-7.196.68-8.915 3.118-1.799 2.479-7.235 15.19-7.235 15.19z" fill="#fff" fill-rule="evenodd" fill-opacity="1" stroke="none"/><path d="m24.425 11.153-6.076 17.99-6.076-17.99h12.152z" fill="#e0f2fb" fill-rule="evenodd" fill-opacity="1" stroke="none"/><path d="m18.429 28.823-3.998-16.55 9.674-1.12H12.273l6.156 17.67z" fill="#b6e1f6" fill-rule="evenodd" fill-opacity="1" stroke="none"/><path d="m18.269 29.142-5.996-17.989M18.269 29.142l6.156-17.989" fill="none" stroke="#000" stroke-width=".31980619px" stroke-linecap="round" stroke-linejoin="round" stroke-miterlimit="10" stroke-dasharray="none" stroke-opacity="1"/></svg>