<svg xmlns="http://www.w3.org/2000/svg" version="1.0" viewBox="0 0 98.23 21.392"><defs><clipPath clipPathUnits="userSpaceOnUse" id="a"><path d="M-.16 2.159h98.1v21.347H-.16z"/></clipPath></defs><path d="M48.81 21.787h40.336c3.638 0 7.555-1.72 7.555-8.955 0-7.275-3.917-9.194-7.555-9.194H8.475C4.717 3.638.76 5.557.76 12.832c0 7.236 3.957 8.955 7.715 8.955H48.81z" fill="#e1e5e6" fill-rule="evenodd" fill-opacity="1" stroke="none"/><path d="M51.03 10.594v6.795h3.137c-3.438 0-3.138-3.218-3.138-6.795z" fill="#b5bec0" fill-rule="evenodd" fill-opacity="1" stroke="none"/><path d="M51.089 13.152V6.036h1.879c-2.479 0-1.879 3.298-1.879 7.116z" fill="#b5bec0" fill-rule="evenodd" fill-opacity="1" stroke="none"/><path d="M93.823 5.717c.32 1.239.44 2.438.44 3.797 0 7.276-3.918 7.955-7.556 7.955H10.114c-3.798 0-7.556-.88-7.556-8.115 0-1.039 0-1.359.12-2.238-.88 1.399-1.359 2.918-1.359 5.676 0 6.396 3.638 8.275 7.436 8.275h80.071c3.638 0 7.396-1.359 7.396-7.915 0-3.798-.88-6.036-2.399-7.435z" fill="#b5bec0" fill-rule="evenodd" fill-opacity="1" stroke="none"/><path d="M10.853 6.256h37.638V4.517H8.735c-3.778 0-7.416 1.22-7.416 7.796 0 3.797.76 5.696 2.279 7.075-.16-.68-.3-1.539-.46-2.418.76.7 1.819 1.559 1.819 1.559s4.537-.52 1.52-1.38c-2.12-.52-3.179-2.938-3.04-5.196 0-4.318 2.58-5.697 7.416-5.697z" fill="#b5bec0" fill-rule="evenodd" fill-opacity="1" stroke="none"/><path d="M8.735 4.537c-5.137 0-7.416 2.918-7.416 8.255l.16 1.88-.16-1.88c0-4.997 2.739-7.575 7.416-7.575l37.517-.86-37.517.18z" fill="#556265" fill-rule="evenodd" fill-opacity="1" stroke="none"/><path d="M9.834 6.916c3.178-.34 27.343-.86 34.58-1.04h-33.52c-4.838 0-7.416 1.38-7.416 5.837.32-2.559 3.178-4.278 6.356-4.797z" fill="#fff" fill-rule="evenodd" fill-opacity="1" stroke="none"/><path d="M86.707 6.276H49.05V4.517h39.776c3.638 0 7.396 1.24 7.396 7.796 0 3.797-.88 5.716-2.399 7.075.32-.68.44-1.519.44-2.398-.76.68-1.64 1.559-1.64 1.559s-4.556-.52-1.678-1.4c2.279-.52 3.198-2.918 3.198-5.196 0-4.318-2.758-5.677-7.436-5.677z" fill="#b5bec0" fill-rule="evenodd" fill-opacity="1" stroke="none"/><path d="M50.57 5.717v11.912h.48V5.717h-.48zM46.532 10.594v6.795h-2.998c3.278 0 2.998-3.218 2.998-6.795z" fill="#b5bec0" fill-rule="evenodd" fill-opacity="1" stroke="none"/><path d="M46.512 13.152V6.036h-2.019c2.638 0 2.019 3.298 2.019 7.116z" fill="#b5bec0" fill-rule="evenodd" fill-opacity="1" stroke="none"/><path d="M46.492 5.717v11.912h.48V5.717h-.48z" fill="#b5bec0" fill-rule="evenodd" fill-opacity="1" stroke="none"/><path d="M51.769 13.312V8.835c0-1.04.76-1.92 2.438-1.92H67.52c-3.178.18-10.893.52-12.552.88-1.68.16-2.439 1.04-2.579 2.419-.16 1.2-.62 3.098-.62 3.098z" fill="#fff" fill-rule="evenodd" fill-opacity="1" stroke="none"/><path d="M2.518 18.149c1.36 2.079 3.798 2.918 6.197 2.918h80.111c3.638 0 7.396-1.359 7.396-7.915 0-3.638-.88-5.876-2.239-7.276 1.2 1.24 1.639 3.638 1.639 6.756 0 4.478-2.558 7.076-6.796 7.076H47.131l-.32.52H8.716c-2.559 0-4.518-.68-6.197-2.079 0-.16 0-.16 0 0z" fill="#556265" fill-rule="evenodd" fill-opacity="1" stroke="none"/><path d="M95.582 12.672c0 4.318-2.718 6.716-6.796 6.716l-11.033.32h11.033c4.557 0 6.796-2.398 6.796-7.036z" fill="#fff" fill-rule="evenodd" fill-opacity="1" stroke="none"/><path d="M46.972 14.031v6.157h-1.2c1.06 0 1.2-3.238 1.2-6.157zM50.57 13.472v6.236h1.199c-1.04 0-1.2-3.278-1.2-6.236z" fill="#556265" fill-rule="evenodd" fill-opacity="1" stroke="none"/><path d="M89.506 4.517H51.689c1.359.16 32.86.64 37.817 0z" fill="#7e8b8e" fill-rule="evenodd" fill-opacity="1" stroke="none"/><path d="M46.972 21.587c0 .52.76.68 1.199.68h1.2c.459 0 1.198-.16 1.198-.68V3.857c0-.519-.74-.699-1.199-.699h-1.2c-.439 0-1.198.18-1.198.7v17.729z" fill="#cdd4d5" fill-rule="evenodd" fill-opacity="1" stroke="none"/><path d="M47.451 21.467V3.997c0-.52.74-.34 1.2-.34h.72c-.44.18-1.32.34-1.32 1.04s-.6 16.77-.6 16.77z" fill="#fff" fill-rule="evenodd" fill-opacity="1" stroke="none"/><path d="M50.17 3.958v17.489c0 .5-.76.5-1.22.5h-.78c.48-.16 1.4-.5 1.4-1.2 0-.52.6-16.79.6-16.79z" fill="#aab5b7" fill-rule="evenodd" fill-opacity="1" stroke="none"/><path clip-path="url(#a)" d="M46.972 21.587c0 .52.76.68 1.199.68h1.2c.459 0 1.198-.16 1.198-.68V3.857c0-.519-.74-.699-1.199-.699h-1.2c-.439 0-1.198.18-1.198.7v17.729z" fill="none" stroke="#97a3a6" stroke-width=".79951543px" stroke-linecap="butt" stroke-linejoin="miter" stroke-miterlimit="8" stroke-dasharray="none" stroke-opacity="1"/><path d="M89.146 3.678H50.489c0-.32-.6-.52-1.079-.52h-1.2c-.439 0-1.039.2-1.198.52H8.475C4.717 3.678.76 5.597.76 12.832c0 7.196 3.957 8.955 7.715 8.955h38.537c.16.48.759.48 1.199.48h1.2c.479 0 1.078 0 1.078-.48h38.657c3.638 0 7.555-1.76 7.555-8.955 0-7.235-3.917-9.154-7.555-9.154" fill="none" stroke="#333" stroke-width=".79951543px" stroke-linecap="round" stroke-linejoin="round" stroke-miterlimit="10" stroke-dasharray="none" stroke-opacity="1"/></svg>