<svg xmlns="http://www.w3.org/2000/svg" version="1.0" viewBox="0 0 260.787 391.332"><defs><clipPath clipPathUnits="userSpaceOnUse" id="a"><path d="M6.156 2.958h260.482v391.603H6.156z"/></clipPath></defs><path clip-path="url(#a)" d="M236.217 12.193c15.71-1.24 9.874 15.95 10.234 32.78.76 30.421 18.908 50.929 18.908 73.435 0 22.547-14.511 93.104-8.035 144.033 6.556 51.049 22.626 120.127-31.221 128.162-53.847 7.915-34.22-4.357-80.032.76-45.932 4.997-34.219-8.795-81.51-2.958-47.371 5.876-57.485-18.989-55.327-56.046 2.2-37.138-5.116-38.617 10.114-66.28 15.351-27.624-2.438-59.564-6.796-77.114-2.078-8.155-5.716-24.105-4.997-40.335.72-15.59 7.196-52.488 24.226-92.824 10.353-24.505-1.44-48.73 15.23-48.73 26.944 0-4.357 64.8 15.351 64.08C81.99 70.438 55.806 4.119 84.19 4.119c28.383 0-9.514 70.557 14.471 70.557 24.026 0-12.272-69.318 17.55-68.359 23.265.76-7.156 61.923 11.593 64.84 14.63 2.2-5.477-59.723 16.55-61.922 22.066-2.158-9.235 63.762 14.75 64.841 16.71.6-5.116-66.16 13.153-65.56 22.546.72-4.358 69.078 16.71 69.078 21.067 0-10.954-64.68 16.67-66.88 27.663-2.198-6.437 63.242 16.83 60.444 18.148-2.199-6.597-57.525 13.75-58.964z" fill="#dc86b3" fill-rule="evenodd" fill-opacity="1" stroke="none"/><path clip-path="url(#a)" d="M236.776 16.99c10.834-.24 4.718 20.587 5.117 36.338.72 28.622 16.91 50.929 16.91 72.116 0 21.227-13.632 87.507-7.555 135.398 6.236 47.93 21.187 112.852-29.342 120.287-50.57 7.555-32.181-3.998-75.195.76-43.094 4.757-32.14-8.195-76.514-2.679-44.453 5.477-53.687-17.789-51.648-52.648 2.078-34.859-4.757-36.338 9.634-62.282 14.391-25.984-3.158-56.086-7.316-72.396-1.958-7.796-5.356-22.786-4.757-38.017.76-14.631 5.237-54.607 21.227-92.504 9.874-23.026-1.119-49.49 9.115-49.73 20.108-.6-9.994 64.36 14.75 63.721 28.024-.6-2.078-66.88 23.507-67.119 18.908-.28-15.59 71.637 15.23 71.157 26.944-.48-6.835-68.359 15.351-66.92 18.389 1.24-13.632 63.762 12.193 64.361 20.947.48-1.12-61.562 16.43-62.042 13.032-.48-11.913 63.522 13.272 63.522 24.625 0 .88-66.92 14.99-66.08 20.108 1.239-12.152 69.957 16.71 70.197 27.544.36-4.757-65.92 16.79-66.76 20.988-.879-16.19 63.962 16.95 61.163 23.146-1.958 2.559-59.484 14.151-59.843z" fill="#eda5c6" fill-rule="evenodd" fill-opacity="1" stroke="none"/><path clip-path="url(#a)" d="M236.257 12.233c15.71-1.24 9.874 15.95 10.234 32.78.76 30.421 18.908 50.929 18.908 73.435 0 22.547-14.511 93.104-8.035 144.033 6.556 51.049 22.626 120.127-31.221 128.162-53.847 7.915-34.22-4.357-80.032.76-45.932 4.997-34.219-8.795-81.51-2.958-47.371 5.876-57.485-18.989-55.327-56.046 2.199-37.138-5.117-38.617 10.114-66.28 15.35-27.624-2.438-59.564-6.796-77.114-2.078-8.155-5.716-24.105-4.997-40.335.72-15.59 7.196-52.488 24.226-92.824 10.353-24.505-1.44-48.73 15.23-48.73 26.944 0-4.357 64.8 15.351 64.08C82.03 70.478 55.846 4.158 84.23 4.158c28.383 0-9.514 70.558 14.471 70.558 24.026 0-12.272-69.318 17.55-68.359 23.265.76-7.156 61.923 11.593 64.84 14.63 2.2-5.477-59.723 16.55-61.922 22.066-2.158-9.235 63.762 14.75 64.841 16.71.6-5.116-66.16 13.153-65.56 22.546.72-4.358 69.078 16.71 69.078 21.067 0-10.954-64.68 16.67-66.88 27.663-2.198-6.437 63.242 16.83 60.444 18.148-2.199-6.597-57.525 13.75-58.964" fill="none" stroke="#343434" stroke-width="1.0393701px" stroke-linecap="butt" stroke-linejoin="miter" stroke-miterlimit="8" stroke-dasharray="none" stroke-opacity="1"/><path clip-path="url(#a)" d="M236.816 17.03c10.834-.24 4.718 20.587 5.117 36.338.72 28.622 16.91 50.929 16.91 72.116 0 21.227-13.632 87.507-7.555 135.398 6.236 47.93 21.187 112.851-29.343 120.287-50.569 7.555-32.18-3.998-75.194.76-43.094 4.757-32.14-8.196-76.514-2.679-44.453 5.477-53.687-17.79-51.648-52.648 2.078-34.859-4.757-36.338 9.634-62.282 14.391-25.984-3.158-56.086-7.316-72.396-1.958-7.796-5.356-22.787-4.757-38.017.76-14.631 5.237-54.607 21.227-92.504 9.874-23.026-1.119-49.49 9.115-49.73 20.108-.6-9.994 64.36 14.75 63.721 28.024-.6-2.078-66.88 23.507-67.119 18.908-.28-15.59 71.637 15.23 71.157 26.944-.48-6.835-68.359 15.351-66.92 18.389 1.24-13.632 63.762 12.193 64.361 20.947.48-1.12-61.562 16.43-62.042 13.032-.48-11.913 63.522 13.272 63.522 24.625 0 .88-66.92 14.99-66.08 20.108 1.239-12.152 69.957 16.71 70.197 27.544.36-4.757-65.92 16.79-66.76 20.988-.879-16.19 63.962 16.95 61.163 23.146-1.958 2.559-59.484 14.151-59.843" fill="none" stroke="#fff" stroke-width="1.5190793px" stroke-linecap="butt" stroke-linejoin="miter" stroke-miterlimit="8" stroke-dasharray="none" stroke-opacity="1"/><path d="M239.095 151.388c5.357 4.518.36 24.625-.12 30.941-1.439 18.15-1.439 36.458-3.278 54.727-2.798 27.144 7.196 53.728 7.196 80.871-.12 31.181-24.745 39.496-51.33 42.654-15.23 1.96-34.018 6.676-43.773-8.914-8.315-13.152-2.078-26.904 5.957-38.737 9.034-13.272 20.148-22.506 25.504-38.496 4.877-14.591 4.638-31.661 5.597-47.012 1.599-23.865 1.24-50.809 11.113-73.235 4.997-11.194 25.225-48.611 39.017-26.185 3.877 6.476 4.357 15.83 5.596 22.667zM195.202 95.862c-6.197 1.679-13.992 3.758-20.468 2.279-7.395-1.68-11.073-8.036-18.988-8.875-13.272-1.36-25.345 9.634-39.337 6.436-5.876-1.2-10.593-7.396-16.95-7.036-7.195.6-10.833 7.915-18.988 7.316-12.432-.88-17.67-7.556-26.824 5.237-15.23 21.427-3.158 57.485-1.079 80.87 1.2 13.992-4.037 26.904-3.398 40.816.12 5.077.96 10.194 7.436 9.594 8.035-.84 14.111-17.03 17.15-23.146 6.116-12.392 8.034-26.304 13.91-38.976 5.238-11.193 13.273-21.787 22.747-29.702 15.47-12.912 37.297-16.59 56.526-18.629 9.994-1.12 21.827-.4 29.622-7.316 5.117-4.517 9.114-18.149-1.36-18.149z" fill="#edb2cd" fill-rule="evenodd" fill-opacity="1" stroke="none"/></svg>