<svg xmlns="http://www.w3.org/2000/svg" version="1.0" viewBox="0 0 336.189 38.324"><defs><clipPath clipPathUnits="userSpaceOnUse" id="a"><path d="M1.919 1.44h335.796v38.296H1.92z"/></clipPath></defs><path clip-path="url(#a)" d="M333.118 28.303c-8.715-1.16-15.39-5.837-21.427-10.474-4.037-2.318-8.035-3.478-10.074-4.677-2.678 0-3.358 2.359-1.999 2.359 3.358 1.159 6.037 3.477 10.074 5.796 2 2.359 5.357 3.518 8.035 5.837 3.358 1.159 6.037 3.477 9.355 4.637h8.075c1.32 0 3.318-3.478-2.039-3.478z" fill="#f0037f" fill-rule="evenodd" fill-opacity="1" stroke="none"/><path d="M278.711 15.63c6.076-1.159 12.792 5.757 20.188 10.394 6.076 3.438 11.473 5.757 20.228 8.075.64 0 .64 1.12.64 0-3.359-1.159-6.717-3.478-9.395-4.637-4.717-2.318-8.755-5.756-12.792-9.234-4.717-3.438-10.794-8.075-15.51-9.235-3.359 0-5.358 0-6.717 3.478-2.039 2.319 0 1.16 3.358 1.16z" fill="#88c829" fill-rule="evenodd" fill-opacity="1" stroke="none"/><path d="M327.122 31.66c-3.358-1.158-6.037-1.158-8.715-3.437-5.357-2.279-9.394-5.757-13.432-8.035-6.036-4.597-10.713-9.195-16.75-9.195-.68 0-2.038 1.16-2.038 2.319 2.038 0 4.717 2.279 6.715 3.438 4.038 1.16 7.396 3.438 10.754 6.876 2.678 1.159 4.677 3.438 6.716 4.597.64 0 1.32 1.16 1.999 1.16h.68c.639 1.119 1.318 1.119 1.318 1.119.68 0 .68 0 1.36 1.159h1.319s.68 0 .68 1.16h2.038c1.999 1.118 3.318 1.118 6.037 1.118.64 0 2.678-1.119 3.318-2.278h-2z" fill="#bb7984" fill-rule="evenodd" fill-opacity="1" stroke="none"/><path d="M305.575 30.502c-8.035-2.28-15.39-5.717-20.708-10.314-4.037-2.279-8.714-4.597-10.713-4.597-1.999-1.16-2.679 1.159-1.999 2.318 3.998 1.12 6.036 2.279 10.034 5.717 1.999 1.159 5.996 3.438 8.675 5.756 2.678 1.12 5.356 3.438 8.674 4.557h8.036c1.319 0 3.318-3.437-2-3.437z" fill="#f0037f" fill-rule="evenodd" fill-opacity="1" stroke="none"/><path d="M253.207 15.59c5.356 0 12.072 6.876 19.468 11.474 6.036 4.597 11.393 6.875 20.148 9.194.64 0 .64 1.12.64 0-3.359-2.319-6.037-3.438-8.716-5.756-5.356-2.28-9.394-5.717-12.752-9.155-4.717-3.438-10.753-8.035-16.11-9.194-3.358 0-5.357-1.16-6.716 2.318-1.36 3.438.68 1.12 4.038 1.12z" fill="#88c829" fill-rule="evenodd" fill-opacity="1" stroke="none"/><path d="M300.338 33.94c-2.718-1.16-7.436-1.16-10.114-2.32 0 0-7.395-4.596-11.473-8.074-6.036-5.757-10.074-10.394-16.15-10.394-.68 0-2.039 1.16-2.719 1.16 2.719 1.159 4.718 3.477 7.436 4.637 3.358 2.278 6.716 4.597 10.114 8.075 2.678 1.159 4.717 3.438 6.716 5.756h2.039c0 1.16 0 1.16.68 1.16.679 0 .679 1.159 1.318 1.159h.68c3.398 2.278 7.435 1.159 10.114 1.159.68 0 2.718-1.16 3.358-1.16-.64-1.159-1.32-1.159-1.999-1.159z" fill="#bb7984" fill-rule="evenodd" fill-opacity="1" stroke="none"/><path d="M279.35 31.78c-8.674-2.318-15.35-6.955-21.346-10.393-3.358-3.478-8.036-4.637-10.034-5.796-2.679-1.16-3.358 1.159-2 2.318 3.319 1.16 5.997 3.478 10.035 5.797 1.999 2.278 5.317 4.597 7.995 6.915 2.678 1.16 6.036 3.478 9.354 4.598h8.035c1.32 0 2.639-2.279-2.038-3.438z" fill="#f0037f" fill-rule="evenodd" fill-opacity="1" stroke="none"/><path d="M225.863 14.471c5.357 1.16 12.073 8.075 19.468 12.673 5.357 4.597 11.393 8.075 20.148 10.393.64 0 0 1.12 0 0-3.358-2.318-6.036-3.478-8.755-5.796-4.677-3.438-8.714-6.916-12.752-10.354-4.037-3.478-10.074-8.075-15.43-9.234-3.358-1.16-5.357-1.16-6.716 1.159-1.36 3.478.68 1.16 4.037 1.16z" fill="#88c829" fill-rule="evenodd" fill-opacity="1" stroke="none"/><path d="M272.675 36.378c-2.679-1.16-5.357-2.279-7.995-3.438 0 0-.68 0-.68-1.16-4.677-2.278-9.354-5.716-12.712-9.154-6.037-5.756-10.034-10.353-16.07-10.353-.64 0-2 0-2.679 1.159 2.678 1.16 4.717 2.318 7.396 4.597 3.318 2.279 6.676 4.597 9.994 8.035 2.038 2.279 4.717 3.438 6.715 5.717.64 0 .64 0 1.32 1.159h.68c.679 1.16 1.318 1.16 1.998 1.16l.68 1.119c.68 0 1.319 0 1.319 1.159H264c.68 0 .68 0 1.32 1.16 1.998 0 3.357 1.119 6.036 1.119.68 0 2.678-1.12 3.318-2.279h-2z" fill="#bb7984" fill-rule="evenodd" fill-opacity="1" stroke="none"/><path d="M251.927 33.02c-8.035-2.319-15.39-8.115-20.707-12.752-4.038-2.319-8.035-4.637-10.714-5.837-1.998 0-2.678 1.2-1.998 2.359 3.997 1.16 6.036 3.478 10.033 6.956 2 2.318 5.997 4.637 8.675 5.796 1.999 2.319 5.357 4.637 8.675 5.797 1.36 0 4.677 1.159 8.035 1.159 1.32 0 3.318-3.478-1.999-3.478z" fill="#f0037f" fill-rule="evenodd" fill-opacity="1" stroke="none"/><path d="M198.28 13.432c5.996 0 12.033 7.995 19.428 12.552 6.036 4.557 11.393 7.995 20.108 10.274.64 0 0 1.12 0 0-2.679-1.16-6.036-3.438-8.715-5.717-4.717-2.278-8.715-6.835-12.073-9.114-4.677-4.597-10.713-9.154-15.43-11.433-3.318 0-5.357-1.16-6.676 2.279-2.039 2.278 0 1.159 3.358 1.159z" fill="#88c829" fill-rule="evenodd" fill-opacity="1" stroke="none"/><path d="M245.811 35.099c-3.318-1.16-5.996-1.16-8.675-3.438h-.64c-4.677-3.438-8.674-6.876-12.712-10.314-5.316-4.597-9.994-10.354-15.99-10.354-.68 0-2.039 0-2.039 1.16 2.04 1.159 4.677 2.318 6.676 4.597 3.358 2.278 6.676 4.597 10.714 8.035 1.999 2.279 3.997 3.438 5.996 5.717.68 0 1.32 1.159 1.999 1.159l.68 1.16s.64 0 1.319 1.118h.68c.679 0 1.318 1.16 1.998 1.16h.68c.64 1.159 1.319 1.159 1.319 1.159 1.999 1.12 3.997 1.12 5.996 1.12.68 0 2.679 0 3.998-1.12-1.32 0-1.999 0-1.999-1.16z" fill="#bb7984" fill-rule="evenodd" fill-opacity="1" stroke="none"/><path d="M223.784 31.78c-8.035-2.278-14.75-8.034-20.787-12.592-3.998-3.438-8.035-5.756-10.034-5.756-1.999-1.16-3.358 1.16-1.999 1.16 3.358 2.278 6.037 3.437 9.355 6.875 2.678 2.279 6.036 4.597 8.714 6.876 2.679 2.318 5.357 4.597 8.715 5.756 1.32 1.12 4.677 1.12 8.035 1.12 1.32 0 3.318-3.438-1.999-3.438z" fill="#f0037f" fill-rule="evenodd" fill-opacity="1" stroke="none"/><path d="M170.816 10.993c5.357 1.16 12.073 8.115 18.75 13.912 6.035 4.637 11.392 6.956 20.747 10.434 0 0 0 1.159 0 0-3.318-2.319-5.997-4.638-8.675-5.797-4.677-3.478-8.715-6.956-12.713-10.434-4.037-4.637-10.073-9.274-15.43-10.433-3.318-1.2-5.357-1.2-6.676 1.159-1.36 3.478.68 1.16 3.997 1.16z" fill="#88c829" fill-rule="evenodd" fill-opacity="1" stroke="none"/><path d="M217.668 34.22c-2.678-1.16-5.996-2.32-7.995-3.479-.68 0-.68-1.159-.68-1.159-4.677-2.279-9.354-5.756-12.712-9.194-6.036-5.757-10.034-11.553-16.07-11.553-.64 0-1.999 1.159-2.679 1.159 2.679 1.16 4.718 3.478 7.396 4.637 3.318 2.279 6.676 5.757 9.994 9.195 2.039 1.159 4.037 3.477 6.716 5.756.64 0 .64 0 1.319 1.16h.68c.68 0 1.319 1.159 1.319 1.159.68 0 .68 0 1.359 1.159h1.32l.679 1.16c.68 0 1.359 0 1.999 1.159 1.998 0 3.358 1.119 6.036 1.119.68 0 2.678-1.12 3.318-1.12-.64-1.159-1.32-1.159-1.999-1.159z" fill="#bb7984" fill-rule="evenodd" fill-opacity="1" stroke="none"/><path d="M197 29.342c-8.714-2.318-15.39-6.916-20.747-11.553-4.037-3.438-8.035-5.756-10.713-6.916-2.04-1.159-2.719 1.16-2.04 2.319 4.038 2.319 6.037 3.478 10.075 6.916 1.999 2.318 5.357 4.637 8.035 6.916 2.678 2.318 6.036 3.478 9.354 4.637 1.36 1.16 4.717 1.16 7.396 2.278 1.999 0 3.318-3.437-1.36-4.597z" fill="#f0037f" fill-rule="evenodd" fill-opacity="1" stroke="none"/><path d="M143.473 9.914c5.996 0 11.993 8.035 19.308 12.592 6.037 4.598 11.353 8.035 20.028 10.314.64 0 0 1.12 0 0-2.678-1.16-5.996-3.438-8.675-5.716-4.677-2.319-8.674-6.876-11.992-10.314-4.677-3.438-10.674-8.035-15.351-10.314-3.318 0-5.317-1.16-6.676 2.279-1.999 2.318 0 1.159 3.358 1.159z" fill="#88c829" fill-rule="evenodd" fill-opacity="1" stroke="none"/><path d="M190.884 31.66c-3.318-1.158-5.996-1.158-8.674-3.477h-.68c-4.677-3.478-8.675-6.956-12.712-10.394-5.357-5.796-10.034-10.433-16.03-11.593-.68 0-2.04 1.16-2.04 2.319 2.04 1.16 4.718 2.318 6.717 4.637 3.318 2.319 6.676 4.637 10.673 8.075 2.039 2.319 4.038 3.478 6.036 5.797.68 0 1.32 1.159 2 1.159l.679 1.16s.68 0 1.319 1.159h.68c.68 0 1.359 1.159 1.998 1.159h.68c.68 1.16 1.36 1.16 1.36 1.16 1.998 1.118 3.997 1.118 5.996 1.118.68 0 2.678 0 3.997-1.119-1.32 0-1.999 0-1.999-1.16z" fill="#bb7984" fill-rule="evenodd" fill-opacity="1" stroke="none"/><path d="M169.457 28.343c-8.674-2.279-15.31-8.035-20.627-12.593-3.998-3.437-7.995-5.756-10.674-5.756-1.999-1.16-2.678 1.16-1.999 1.16 3.998 2.278 5.997 3.437 9.994 6.875 2 2.279 5.317 4.597 7.996 6.876 2.638 2.319 5.996 4.597 8.634 5.756 2 1.12 5.357 1.12 7.995 1.12 2 0 3.318-3.438-1.319-3.438z" fill="#f0037f" fill-rule="evenodd" fill-opacity="1" stroke="none"/><path d="M115.91 7.535c5.357 1.16 12.052 8.116 19.428 13.932 6.036 4.637 11.393 6.956 20.108 10.434.66 0 0 1.159 0 0-3.358-2.319-6.037-4.638-8.715-5.797-4.697-3.478-8.715-6.956-12.053-10.453-4.697-4.638-10.733-9.275-15.43-10.434-3.338-1.18-5.357-1.18-7.356 1.16-1.359 3.477.66 1.158 4.018 1.158z" fill="#88c829" fill-rule="evenodd" fill-opacity="1" stroke="none"/><path d="m162.821 30.781-8.035-3.478-.64-1.159c-4.677-2.318-8.674-5.796-12.712-10.394-5.316-4.637-9.994-10.433-15.99-10.433-.68 0-2.039 1.16-2.039 1.16 2.039 1.158 4.677 3.477 6.676 4.636 3.358 2.319 6.676 5.797 10.034 9.235 1.999 1.159 4.677 3.478 6.676 5.796.68 0 1.32 0 1.32 1.16h1.358s.64 1.159 1.32 1.159c0 0 .68 0 .68 1.159h1.318c.68 1.16.68 1.16 1.36 1.16.64 0 .64 0 1.319 1.159 1.999 0 3.318 1.119 5.996 1.119.68 0 2.679-1.12 3.998-1.12-1.32-1.159-2-1.159-2.639-1.159z" fill="#bb7984" fill-rule="evenodd" fill-opacity="1" stroke="none"/><path d="M142.174 25.884c-8.075-2.318-15.49-6.955-20.888-12.732l-10.093-5.796c-2.699-1.16-3.378 1.159-2.02 2.318 3.359 1.16 6.057 3.478 9.435 6.956 2.678 2.299 6.056 4.617 8.755 6.936 2.678 2.318 5.377 3.478 8.755 4.637 1.339 1.16 4.717 1.16 8.075 2.299 1.339 0 3.358-3.458-2.02-4.618z" fill="#f0037f" fill-rule="evenodd" fill-opacity="1" stroke="none"/><path d="M88.566 6.476c6.017 0 12.053 8.015 19.429 12.592 6.036 4.578 11.393 8.016 20.107 10.294.66 0 .66 1.14.66 0-3.338-1.14-6.016-3.438-8.695-5.716-4.697-2.299-8.714-6.876-12.732-10.314-4.697-3.438-10.054-9.155-15.43-10.294-3.339-1.16-5.357-1.16-6.697 2.279-2.018 2.298.68 1.16 3.358 1.16z" fill="#88c829" fill-rule="evenodd" fill-opacity="1" stroke="none"/><path d="M136.118 28.203c-3.378-1.16-6.057-1.16-8.076-3.478h-.68c-5.376-3.458-9.413-6.936-12.771-10.394-6.057-5.776-10.094-10.413-16.15-11.573-.68 0-2.699 1.16-2.699 2.319 2.698 1.16 4.717 2.319 6.736 4.617 4.037 1.16 6.716 4.637 10.753 8.095 2.02 2.319 4.038 3.478 6.736 5.777 0 0 .68 1.159 1.34 1.159 0 0 .68 0 .68 1.16h1.338c.68 1.159.68 1.159 1.34 1.159 0 0 .679 1.159 1.359 1.159h.66c.679 1.16 1.358 1.16 2.018 1.16 2.019 1.139 3.378 1.139 6.056 1.139 0 0 2.699 0 3.358-1.14-.66 0-1.339 0-1.999-1.16z" fill="#bb7984" fill-rule="evenodd" fill-opacity="1" stroke="none"/><path d="M116.67 24.785c-8.076-2.319-15.491-6.956-20.888-11.613-4.038-3.478-8.075-5.796-10.774-5.796-2.018-1.18-2.698 1.159-2.018 2.318 4.037 1.16 6.056 2.319 10.114 5.797 2.018 2.338 6.056 4.657 8.754 6.975 2.679 1.16 5.377 3.478 8.755 4.638 1.34 1.159 4.717 1.159 8.075 1.159 1.34 0 3.358-3.478-2.019-3.478z" fill="#f0037f" fill-rule="evenodd" fill-opacity="1" stroke="none"/><path d="M63.062 6.276c5.357 1.16 12.052 8.175 19.428 12.852 6.036 4.658 11.393 6.996 20.108 9.335.66 0 .66 1.159.66 0-3.339-1.16-6.017-3.498-8.695-5.837-4.697-2.338-8.715-5.836-12.733-9.354-4.697-3.498-10.733-8.175-15.43-9.334-3.338-1.18-5.357-1.18-7.356 1.159-1.359 3.518.66 1.18 4.018 1.18z" fill="#88c829" fill-rule="evenodd" fill-opacity="1" stroke="none"/><path d="M110.693 27.303c-3.378-1.159-6.056-2.318-8.075-3.477h-.68c-5.377-3.498-9.414-6.996-13.452-10.474-5.376-4.657-10.094-9.314-16.15-9.314-.66 0-2.019 0-2.019 1.179 2.02 1.16 4.718 2.318 6.736 4.637 3.358 1.18 6.716 4.657 10.754 8.155 2.019 1.16 4.037 3.478 6.736 4.637 0 1.18.68 1.18 1.339 1.18l.68 1.159c.68 0 1.339 0 1.339 1.16h1.339s.68 1.158 1.359 1.158h.66c.68 1.16 1.359 1.16 2.018 1.16 2.02 1.159 3.378 1.159 6.057 1.159 0 0 2.698-1.16 3.358-1.16-.66-1.159-1.34-1.159-2-1.159z" fill="#bb7984" fill-rule="evenodd" fill-opacity="1" stroke="none"/><path d="M89.026 21.427c-8.715-1.16-15.41-4.677-21.447-9.374-4.018-2.339-8.035-4.677-10.054-4.677-2.678-1.18-3.358 1.179-1.999 2.338 3.338 1.18 6.017 2.339 10.054 5.857 1.999 1.179 5.357 3.517 8.695 5.856 2.698 1.18 5.377 2.339 8.715 3.518 1.339 1.16 4.697 1.16 8.055 1.16 1.339-1.16 3.338-4.678-2.019-4.678z" fill="#f0037f" fill-rule="evenodd" fill-opacity="1" stroke="none"/><path d="M34.919 8.775c6.036 0 12.732 5.736 20.108 10.313 6.036 4.598 11.393 6.896 20.787 8.036.66 0 0 1.139 0 0-3.358-1.14-6.036-3.438-8.715-4.598-5.356-2.278-9.394-5.736-12.732-8.015-5.377-4.597-11.413-8.035-16.09-9.194-3.358 0-5.377 0-6.716 2.298-2.019 3.438.68 2.299 3.358 1.16z" fill="#88c829" fill-rule="evenodd" fill-opacity="1" stroke="none"/><path d="M83.03 24.705c-2.679-1.16-6.037-1.16-8.735-2.299-5.357-2.298-9.374-5.736-13.412-9.174-6.036-3.458-10.733-9.194-16.77-8.035-.66 0-2.019 1.14-2.019 1.14 2.699 1.158 4.698 2.298 7.396 4.596 3.338 1.14 6.696 3.438 10.054 6.876 2.678 1.16 4.697 2.299 7.375 4.597 0 0 .68 0 1.34 1.14h.68c.679 0 1.338 1.159 1.338 1.159h1.34c.68 0 .68 1.14 1.339 1.14h.68c.659 0 1.339 1.139 2.018 1.139h6.036c.66 0 2.679-1.14 3.338-1.14-.66 0-1.339-1.139-1.998-1.139z" fill="#bb7984" fill-rule="evenodd" fill-opacity="1" stroke="none"/><path d="M61.683 21.507c-8.715-1.16-15.411-4.597-21.447-8.055-4.018-2.299-8.036-3.458-10.714-4.617-2.019 0-2.698 2.318-2.019 3.458 4.018 0 6.696 2.298 10.054 4.617 2.679 1.14 6.037 3.438 9.375 4.597 2.698 2.299 5.376 3.458 8.714 3.458 2.02 1.14 5.377 1.14 8.055 0 1.34 0 3.338-3.458-2.018-3.458z" fill="#f0037f" fill-rule="evenodd" fill-opacity="1" stroke="none"/><path clip-path="url(#a)" d="M7.256 12.273c5.356-1.14 12.732 5.716 20.107 9.134 6.037 3.438 12.073 5.717 20.788 5.717.66 0 0 1.139 0 0-3.358-1.14-6.037-2.28-8.715-3.418-5.357-2.299-9.394-4.578-13.412-7.996-4.697-3.437-10.733-6.875-16.09-6.875-3.358 0-5.357 0-6.696 2.298-1.36 3.418.66 1.14 4.018 1.14z" fill="#88c829" fill-rule="evenodd" fill-opacity="1" stroke="none"/><path d="M55.666 24.785c-2.678 0-6.036 0-8.055-2.319h-.68c-5.376-1.159-9.414-4.637-13.451-6.975-6.057-4.638-10.774-9.295-16.83-8.115-.68 0-2.019 1.159-2.698 2.318 2.698 0 5.396 1.16 7.415 3.478 3.358 1.16 7.396 3.478 10.754 5.816 2.698 1.16 4.717 3.478 7.415 4.638h1.34c0 1.159.679 1.159.679 1.159.66 0 1.339 0 1.339 1.16h1.34c.679 0 .679 0 1.358 1.159H48.271c2.019 1.159 3.378 1.159 6.056 0 .68 0 2.698-1.16 3.358-1.16-.66 0-1.34-1.159-2.019-1.159z" fill="#bb7984" fill-rule="evenodd" fill-opacity="1" stroke="none"/><path clip-path="url(#a)" d="M333.118 28.303c-8.715-1.16-15.39-5.837-21.427-10.474-4.037-2.318-8.035-3.478-10.074-4.677-2.678 0-3.358 2.359-1.999 2.359 3.358 1.159 6.037 3.477 10.074 5.796 2 2.359 5.357 3.518 8.035 5.837 3.358 1.159 6.037 3.477 9.355 4.637h8.075c1.32 0 3.318-3.478-2.039-3.478" fill="none" stroke="#333" stroke-width=".47970927px" stroke-linecap="butt" stroke-linejoin="miter" stroke-miterlimit="8" stroke-dasharray="none" stroke-opacity="1"/><path d="M278.711 15.63c6.076-1.159 12.792 5.757 20.188 10.394 6.076 3.438 11.473 5.757 20.228 8.075.64 0 .64 1.12.64 0-3.359-1.159-6.717-3.478-9.395-4.637-4.717-2.318-8.755-5.756-12.792-9.234-4.717-3.438-10.794-8.075-15.51-9.235-3.359 0-5.358 0-6.717 3.478-2.039 2.319 0 1.16 3.358 1.16" fill="none" stroke="#333" stroke-width=".47970927px" stroke-linecap="butt" stroke-linejoin="miter" stroke-miterlimit="8" stroke-dasharray="none" stroke-opacity="1"/><path d="M327.122 31.66c-3.358-1.158-6.037-1.158-8.715-3.437-5.357-2.279-9.394-5.757-13.432-8.035-6.036-4.597-10.713-9.195-16.75-9.195-.68 0-2.038 1.16-2.038 2.319 2.038 0 4.717 2.279 6.715 3.438 4.038 1.16 7.396 3.438 10.754 6.876 2.678 1.159 4.677 3.438 6.716 4.597.64 0 1.32 1.16 1.999 1.16h.68c.639 1.119 1.318 1.119 1.318 1.119.68 0 .68 0 1.36 1.159h1.319s.68 0 .68 1.16h2.038c1.999 1.118 3.318 1.118 6.037 1.118.64 0 2.678-1.119 3.318-2.278h-2M305.575 30.502c-8.035-2.28-15.39-5.717-20.708-10.314-4.037-2.279-8.714-4.597-10.713-4.597-1.999-1.16-2.679 1.159-1.999 2.318 3.998 1.12 6.036 2.279 10.034 5.717 1.999 1.159 5.996 3.438 8.675 5.756 2.678 1.12 5.356 3.438 8.674 4.557h8.036c1.319 0 3.318-3.437-2-3.437M253.207 15.59c5.356 0 12.072 6.876 19.468 11.474 6.036 4.597 11.393 6.875 20.148 9.194.64 0 .64 1.12.64 0-3.359-2.319-6.037-3.438-8.716-5.756-5.356-2.28-9.394-5.717-12.752-9.155-4.717-3.438-10.753-8.035-16.11-9.194-3.358 0-5.357-1.16-6.716 2.318-1.36 3.438.68 1.12 4.038 1.12" fill="none" stroke="#333" stroke-width=".47970927px" stroke-linecap="butt" stroke-linejoin="miter" stroke-miterlimit="8" stroke-dasharray="none" stroke-opacity="1"/><path d="M300.338 33.94c-2.718-1.16-7.436-1.16-10.114-2.32 0 0-7.395-4.596-11.473-8.074-6.036-5.757-10.074-10.394-16.15-10.394-.68 0-2.039 1.16-2.719 1.16 2.719 1.159 4.718 3.477 7.436 4.637 3.358 2.278 6.716 4.597 10.114 8.075 2.678 1.159 4.717 3.438 6.716 5.756h2.039c0 1.16 0 1.16.68 1.16.679 0 .679 1.159 1.318 1.159h.68c3.398 2.278 7.435 1.159 10.114 1.159.68 0 2.718-1.16 3.358-1.16-.64-1.159-1.32-1.159-1.999-1.159M279.35 31.78c-8.674-2.318-15.35-6.955-21.346-10.393-3.358-3.478-8.036-4.637-10.034-5.796-2.679-1.16-3.358 1.159-2 2.318 3.319 1.16 5.997 3.478 10.035 5.797 1.999 2.278 5.317 4.597 7.995 6.915 2.678 1.16 6.036 3.478 9.354 4.598h8.035c1.32 0 2.639-2.279-2.038-3.438" fill="none" stroke="#333" stroke-width=".47970927px" stroke-linecap="butt" stroke-linejoin="miter" stroke-miterlimit="8" stroke-dasharray="none" stroke-opacity="1"/><path clip-path="url(#a)" d="M225.863 14.471c5.357 1.16 12.073 8.075 19.468 12.673 5.357 4.597 11.393 8.075 20.148 10.393.64 0 0 1.12 0 0-3.358-2.318-6.036-3.478-8.755-5.796-4.677-3.438-8.714-6.916-12.752-10.354-4.037-3.478-10.074-8.075-15.43-9.234-3.358-1.16-5.357-1.16-6.716 1.159-1.36 3.478.68 1.16 4.037 1.16" fill="none" stroke="#333" stroke-width=".47970927px" stroke-linecap="butt" stroke-linejoin="miter" stroke-miterlimit="8" stroke-dasharray="none" stroke-opacity="1"/><path clip-path="url(#a)" d="M272.675 36.378c-2.679-1.16-5.357-2.279-7.995-3.438 0 0-.68 0-.68-1.16-4.677-2.278-9.354-5.716-12.712-9.154-6.037-5.756-10.034-10.353-16.07-10.353-.64 0-2 0-2.679 1.159 2.678 1.16 4.717 2.318 7.396 4.597 3.318 2.279 6.676 4.597 9.994 8.035 2.038 2.279 4.717 3.438 6.715 5.717.64 0 .64 0 1.32 1.159h.68c.679 1.16 1.318 1.16 1.998 1.16l.68 1.119c.68 0 1.319 0 1.319 1.159H264c.68 0 .68 0 1.32 1.16 1.998 0 3.357 1.119 6.036 1.119.68 0 2.678-1.12 3.318-2.279h-2" fill="none" stroke="#333" stroke-width=".47970927px" stroke-linecap="butt" stroke-linejoin="miter" stroke-miterlimit="8" stroke-dasharray="none" stroke-opacity="1"/><path d="M251.927 33.02c-8.035-2.319-15.39-8.115-20.707-12.752-4.038-2.319-8.035-4.637-10.714-5.837-1.998 0-2.678 1.2-1.998 2.359 3.997 1.16 6.036 3.478 10.033 6.956 2 2.318 5.997 4.637 8.675 5.796 1.999 2.319 5.357 4.637 8.675 5.797 1.36 0 4.677 1.159 8.035 1.159 1.32 0 3.318-3.478-1.999-3.478M198.28 13.432c5.996 0 12.033 7.995 19.428 12.552 6.036 4.557 11.393 7.995 20.108 10.274.64 0 0 1.12 0 0-2.679-1.16-6.036-3.438-8.715-5.717-4.717-2.278-8.715-6.835-12.073-9.114-4.677-4.597-10.713-9.154-15.43-11.433-3.318 0-5.357-1.16-6.676 2.279-2.039 2.278 0 1.159 3.358 1.159" fill="none" stroke="#333" stroke-width=".47970927px" stroke-linecap="butt" stroke-linejoin="miter" stroke-miterlimit="8" stroke-dasharray="none" stroke-opacity="1"/><path d="M245.811 35.099c-3.318-1.16-5.996-1.16-8.675-3.438h-.64c-4.677-3.438-8.674-6.876-12.712-10.314-5.316-4.597-9.994-10.354-15.99-10.354-.68 0-2.039 0-2.039 1.16 2.04 1.159 4.677 2.318 6.676 4.597 3.358 2.278 6.676 4.597 10.714 8.035 1.999 2.279 3.997 3.438 5.996 5.717.68 0 1.32 1.159 1.999 1.159l.68 1.16s.64 0 1.319 1.118h.68c.679 0 1.318 1.16 1.998 1.16h.68c.64 1.159 1.319 1.159 1.319 1.159 1.999 1.12 3.997 1.12 5.996 1.12.68 0 2.679 0 3.998-1.12-1.32 0-1.999 0-1.999-1.16M223.784 31.78c-8.035-2.278-14.75-8.034-20.787-12.592-3.998-3.438-8.035-5.756-10.034-5.756-1.999-1.16-3.358 1.16-1.999 1.16 3.358 2.278 6.037 3.437 9.355 6.875 2.678 2.279 6.036 4.597 8.714 6.876 2.679 2.318 5.357 4.597 8.715 5.756 1.32 1.12 4.677 1.12 8.035 1.12 1.32 0 3.318-3.438-1.999-3.438M170.816 10.993c5.357 1.16 12.073 8.115 18.75 13.912 6.035 4.637 11.392 6.956 20.747 10.434 0 0 0 1.159 0 0-3.318-2.319-5.997-4.638-8.675-5.797-4.677-3.478-8.715-6.956-12.713-10.434-4.037-4.637-10.073-9.274-15.43-10.433-3.318-1.2-5.357-1.2-6.676 1.159-1.36 3.478.68 1.16 3.997 1.16" fill="none" stroke="#333" stroke-width=".47970927px" stroke-linecap="butt" stroke-linejoin="miter" stroke-miterlimit="8" stroke-dasharray="none" stroke-opacity="1"/><path d="M217.668 34.22c-2.678-1.16-5.996-2.32-7.995-3.479-.68 0-.68-1.159-.68-1.159-4.677-2.279-9.354-5.756-12.712-9.194-6.036-5.757-10.034-11.553-16.07-11.553-.64 0-1.999 1.159-2.679 1.159 2.679 1.16 4.718 3.478 7.396 4.637 3.318 2.279 6.676 5.757 9.994 9.195 2.039 1.159 4.037 3.477 6.716 5.756.64 0 .64 0 1.319 1.16h.68c.68 0 1.319 1.159 1.319 1.159.68 0 .68 0 1.359 1.159h1.32l.679 1.16c.68 0 1.359 0 1.999 1.159 1.998 0 3.358 1.119 6.036 1.119.68 0 2.678-1.12 3.318-1.12-.64-1.159-1.32-1.159-1.999-1.159M197 29.342c-8.714-2.318-15.39-6.916-20.747-11.553-4.037-3.438-8.035-5.756-10.713-6.916-2.04-1.159-2.719 1.16-2.04 2.319 4.038 2.319 6.037 3.478 10.075 6.916 1.999 2.318 5.357 4.637 8.035 6.916 2.678 2.318 6.036 3.478 9.354 4.637 1.36 1.16 4.717 1.16 7.396 2.278 1.999 0 3.318-3.437-1.36-4.597M143.473 9.914c5.996 0 11.993 8.035 19.308 12.592 6.037 4.598 11.353 8.035 20.028 10.314.64 0 0 1.12 0 0-2.678-1.16-5.996-3.438-8.675-5.716-4.677-2.319-8.674-6.876-11.992-10.314-4.677-3.438-10.674-8.035-15.351-10.314-3.318 0-5.317-1.16-6.676 2.279-1.999 2.318 0 1.159 3.358 1.159" fill="none" stroke="#333" stroke-width=".47970927px" stroke-linecap="butt" stroke-linejoin="miter" stroke-miterlimit="8" stroke-dasharray="none" stroke-opacity="1"/><path d="M190.884 31.66c-3.318-1.158-5.996-1.158-8.674-3.477h-.68c-4.677-3.478-8.675-6.956-12.712-10.394-5.357-5.796-10.034-10.433-16.03-11.593-.68 0-2.04 1.16-2.04 2.319 2.04 1.16 4.718 2.318 6.717 4.637 3.318 2.319 6.676 4.637 10.673 8.075 2.039 2.319 4.038 3.478 6.036 5.797.68 0 1.32 1.159 2 1.159l.679 1.16s.68 0 1.319 1.159h.68c.68 0 1.359 1.159 1.998 1.159h.68c.68 1.16 1.36 1.16 1.36 1.16 1.998 1.118 3.997 1.118 5.996 1.118.68 0 2.678 0 3.997-1.119-1.32 0-1.999 0-1.999-1.16M169.457 28.343c-8.674-2.279-15.31-8.035-20.627-12.593-3.998-3.437-7.995-5.756-10.674-5.756-1.999-1.16-2.678 1.16-1.999 1.16 3.998 2.278 5.997 3.437 9.994 6.875 2 2.279 5.317 4.597 7.996 6.876 2.638 2.319 5.996 4.597 8.634 5.756 2 1.12 5.357 1.12 7.995 1.12 2 0 3.318-3.438-1.319-3.438M115.91 7.535c5.357 1.16 12.052 8.116 19.428 13.932 6.036 4.637 11.393 6.956 20.108 10.434.66 0 0 1.159 0 0-3.358-2.319-6.037-4.638-8.715-5.797-4.697-3.478-8.715-6.956-12.053-10.453-4.697-4.638-10.733-9.275-15.43-10.434-3.338-1.18-5.357-1.18-7.356 1.16-1.359 3.477.66 1.158 4.018 1.158" fill="none" stroke="#333" stroke-width=".47970927px" stroke-linecap="butt" stroke-linejoin="miter" stroke-miterlimit="8" stroke-dasharray="none" stroke-opacity="1"/><path d="m162.821 30.781-8.035-3.478-.64-1.159c-4.677-2.318-8.674-5.796-12.712-10.394-5.316-4.637-9.994-10.433-15.99-10.433-.68 0-2.039 1.16-2.039 1.16 2.039 1.158 4.677 3.477 6.676 4.636 3.358 2.319 6.676 5.797 10.034 9.235 1.999 1.159 4.677 3.478 6.676 5.796.68 0 1.32 0 1.32 1.16h1.358s.64 1.159 1.32 1.159c0 0 .68 0 .68 1.159h1.318c.68 1.16.68 1.16 1.36 1.16.64 0 .64 0 1.319 1.159 1.999 0 3.318 1.119 5.996 1.119.68 0 2.679-1.12 3.998-1.12-1.32-1.159-2-1.159-2.639-1.159M142.174 25.884c-8.075-2.318-15.49-6.955-20.888-12.732l-10.093-5.796c-2.699-1.16-3.378 1.159-2.02 2.318 3.359 1.16 6.057 3.478 9.435 6.956 2.678 2.299 6.056 4.617 8.755 6.936 2.678 2.318 5.377 3.478 8.755 4.637 1.339 1.16 4.717 1.16 8.075 2.299 1.339 0 3.358-3.458-2.02-4.618" fill="none" stroke="#333" stroke-width=".47970927px" stroke-linecap="butt" stroke-linejoin="miter" stroke-miterlimit="8" stroke-dasharray="none" stroke-opacity="1"/><path clip-path="url(#a)" d="M88.566 6.476c6.017 0 12.053 8.015 19.429 12.592 6.036 4.578 11.393 8.016 20.107 10.294.66 0 .66 1.14.66 0-3.338-1.14-6.016-3.438-8.695-5.716-4.697-2.299-8.714-6.876-12.732-10.314-4.697-3.438-10.054-9.155-15.43-10.294-3.339-1.16-5.357-1.16-6.697 2.279-2.018 2.298.68 1.16 3.358 1.16" fill="none" stroke="#333" stroke-width=".47970927px" stroke-linecap="butt" stroke-linejoin="miter" stroke-miterlimit="8" stroke-dasharray="none" stroke-opacity="1"/><path clip-path="url(#a)" d="M136.118 28.203c-3.378-1.16-6.057-1.16-8.076-3.478h-.68c-5.376-3.458-9.413-6.936-12.771-10.394-6.057-5.776-10.094-10.413-16.15-11.573-.68 0-2.699 1.16-2.699 2.319 2.698 1.16 4.717 2.319 6.736 4.617 4.037 1.16 6.716 4.637 10.753 8.095 2.02 2.319 4.038 3.478 6.736 5.777 0 0 .68 1.159 1.34 1.159 0 0 .68 0 .68 1.16h1.338c.68 1.159.68 1.159 1.34 1.159 0 0 .679 1.159 1.359 1.159h.66c.679 1.16 1.358 1.16 2.018 1.16 2.019 1.139 3.378 1.139 6.056 1.139 0 0 2.699 0 3.358-1.14-.66 0-1.339 0-1.999-1.16" fill="none" stroke="#333" stroke-width=".47970927px" stroke-linecap="butt" stroke-linejoin="miter" stroke-miterlimit="8" stroke-dasharray="none" stroke-opacity="1"/><path d="M116.67 24.785c-8.076-2.319-15.491-6.956-20.888-11.613-4.038-3.478-8.075-5.796-10.774-5.796-2.018-1.18-2.698 1.159-2.018 2.318 4.037 1.16 6.056 2.319 10.114 5.797 2.018 2.338 6.056 4.657 8.754 6.975 2.679 1.16 5.377 3.478 8.755 4.638 1.34 1.159 4.717 1.159 8.075 1.159 1.34 0 3.358-3.478-2.019-3.478" fill="none" stroke="#333" stroke-width=".47970927px" stroke-linecap="butt" stroke-linejoin="miter" stroke-miterlimit="8" stroke-dasharray="none" stroke-opacity="1"/><path clip-path="url(#a)" d="M63.062 6.276c5.357 1.16 12.052 8.175 19.428 12.852 6.036 4.658 11.393 6.996 20.108 9.335.66 0 .66 1.159.66 0-3.339-1.16-6.017-3.498-8.695-5.837-4.697-2.338-8.715-5.836-12.733-9.354-4.697-3.498-10.733-8.175-15.43-9.334-3.338-1.18-5.357-1.18-7.356 1.159-1.359 3.518.66 1.18 4.018 1.18" fill="none" stroke="#333" stroke-width=".47970927px" stroke-linecap="butt" stroke-linejoin="miter" stroke-miterlimit="8" stroke-dasharray="none" stroke-opacity="1"/><path d="M110.693 27.303c-3.378-1.159-6.056-2.318-8.075-3.477h-.68c-5.377-3.498-9.414-6.996-13.452-10.474-5.376-4.657-10.094-9.314-16.15-9.314-.66 0-2.019 0-2.019 1.179 2.02 1.16 4.718 2.318 6.736 4.637 3.358 1.18 6.716 4.657 10.754 8.155 2.019 1.16 4.037 3.478 6.736 4.637 0 1.18.68 1.18 1.339 1.18l.68 1.159c.68 0 1.339 0 1.339 1.16h1.339s.68 1.158 1.359 1.158h.66c.68 1.16 1.359 1.16 2.018 1.16 2.02 1.159 3.378 1.159 6.057 1.159 0 0 2.698-1.16 3.358-1.16-.66-1.159-1.34-1.159-2-1.159" fill="none" stroke="#333" stroke-width=".47970927px" stroke-linecap="butt" stroke-linejoin="miter" stroke-miterlimit="8" stroke-dasharray="none" stroke-opacity="1"/><path d="M89.026 21.427c-8.715-1.16-15.41-4.677-21.447-9.374-4.018-2.339-8.035-4.677-10.054-4.677-2.678-1.18-3.358 1.179-1.999 2.338 3.338 1.18 6.017 2.339 10.054 5.857 1.999 1.179 5.357 3.517 8.695 5.856 2.698 1.18 5.377 2.339 8.715 3.518 1.339 1.16 4.697 1.16 8.055 1.16 1.339-1.16 3.338-4.678-2.019-4.678M34.919 8.775c6.036 0 12.732 5.736 20.108 10.313 6.036 4.598 11.393 6.896 20.787 8.036.66 0 0 1.139 0 0-3.358-1.14-6.036-3.438-8.715-4.598-5.356-2.278-9.394-5.736-12.732-8.015-5.377-4.597-11.413-8.035-16.09-9.194-3.358 0-5.377 0-6.716 2.298-2.019 3.438.68 2.299 3.358 1.16" fill="none" stroke="#333" stroke-width=".47970927px" stroke-linecap="butt" stroke-linejoin="miter" stroke-miterlimit="8" stroke-dasharray="none" stroke-opacity="1"/><path d="M83.03 24.705c-2.679-1.16-6.037-1.16-8.735-2.299-5.357-2.298-9.374-5.736-13.412-9.174-6.036-3.458-10.733-9.194-16.77-8.035-.66 0-2.019 1.14-2.019 1.14 2.699 1.158 4.698 2.298 7.396 4.596 3.338 1.14 6.696 3.438 10.054 6.876 2.678 1.16 4.697 2.299 7.375 4.597 0 0 .68 0 1.34 1.14h.68c.679 0 1.338 1.159 1.338 1.159h1.34c.68 0 .68 1.14 1.339 1.14h.68c.659 0 1.339 1.139 2.018 1.139h6.036c.66 0 2.679-1.14 3.338-1.14-.66 0-1.339-1.139-1.998-1.139M61.683 21.507c-8.715-1.16-15.411-4.597-21.447-8.055-4.018-2.299-8.036-3.458-10.714-4.617-2.019 0-2.698 2.318-2.019 3.458 4.018 0 6.696 2.298 10.054 4.617 2.679 1.14 6.037 3.438 9.375 4.597 2.698 2.299 5.376 3.458 8.714 3.458 2.02 1.14 5.377 1.14 8.055 0 1.34 0 3.338-3.458-2.018-3.458" fill="none" stroke="#333" stroke-width=".47970927px" stroke-linecap="butt" stroke-linejoin="miter" stroke-miterlimit="8" stroke-dasharray="none" stroke-opacity="1"/><path clip-path="url(#a)" d="M7.256 12.273c5.356-1.14 12.732 5.716 20.107 9.134 6.037 3.438 12.073 5.717 20.788 5.717.66 0 0 1.139 0 0-3.358-1.14-6.037-2.28-8.715-3.418-5.357-2.299-9.394-4.578-13.412-7.996-4.697-3.437-10.733-6.875-16.09-6.875-3.358 0-5.357 0-6.696 2.298-1.36 3.418.66 1.14 4.018 1.14" fill="none" stroke="#333" stroke-width=".47970927px" stroke-linecap="butt" stroke-linejoin="miter" stroke-miterlimit="8" stroke-dasharray="none" stroke-opacity="1"/><path d="M55.666 24.785c-2.678 0-6.036 0-8.055-2.319h-.68c-5.376-1.159-9.414-4.637-13.451-6.975-6.057-4.638-10.774-9.295-16.83-8.115-.68 0-2.019 1.159-2.698 2.318 2.698 0 5.396 1.16 7.415 3.478 3.358 1.16 7.396 3.478 10.754 5.816 2.698 1.16 4.717 3.478 7.415 4.638h1.34c0 1.159.679 1.159.679 1.159.66 0 1.339 0 1.339 1.16h1.34c.679 0 .679 0 1.358 1.159H48.271c2.019 1.159 3.378 1.159 6.056 0 .68 0 2.698-1.16 3.358-1.16-.66 0-1.34-1.159-2.019-1.159" fill="none" stroke="#333" stroke-width=".47970927px" stroke-linecap="butt" stroke-linejoin="miter" stroke-miterlimit="8" stroke-dasharray="none" stroke-opacity="1"/></svg>