<svg xmlns="http://www.w3.org/2000/svg" version="1.0" viewBox="0 0 335.357 57.26"><defs><clipPath clipPathUnits="userSpaceOnUse" id="a"><path d="M1.28.8h334.996v57.245H1.28z"/></clipPath></defs><path d="M181.57 26.584c-8.035-2.559-14.191-7.675-19.748-12.832-3.078-3.838-7.396-5.117-9.234-6.396-1.88-1.32-3.119 1.279-1.88 2.558 3.079 1.28 5.557 2.558 9.275 6.396 1.839 2.599 4.917 5.157 7.396 7.715 2.438 2.559 5.556 3.838 7.995 5.117 1.879 1.28 4.957 1.28 7.395 1.28 1.88 0 3.078-3.838-1.199-3.838z" fill="#f0037f" fill-rule="evenodd" fill-opacity="1" stroke="none"/><path d="M132.12 6.076c4.957 1.32 11.153 9.035 17.989 14.192 5.557 5.157 10.514 7.755 18.589 10.313.6 0 0 1.28 0 0-2.479-1.279-5.597-3.877-8.075-6.436-4.318-2.598-8.035-6.436-11.154-10.313-4.317-3.878-9.914-9.035-14.87-10.314-3.079-1.32-4.958-1.32-6.197 1.28-1.24 3.877.64 1.278 3.718 1.278z" fill="#88c829" fill-rule="evenodd" fill-opacity="1" stroke="none"/><path d="M175.454 29.302c-2.479-1.279-4.957-1.279-7.436-3.837h-.6c-4.357-2.559-8.075-7.716-11.792-10.274-5.557-6.396-9.275-11.553-14.871-11.553-.6 0-1.84 0-2.479 1.319 2.479 1.28 4.358 2.558 6.836 5.117 3.078 1.28 6.196 5.117 9.274 8.994 1.88 1.28 4.358 3.838 6.197 5.117.64 1.28 1.239 1.28 1.239 1.28.64 0 .64 1.279 1.24 1.279 0 0 .639 0 1.238 1.279h.64c.6 0 1.24 1.28 1.839 1.28h.64c.6 1.278 1.239 1.278 1.239 1.278 1.839 1.28 3.718 1.28 5.556 1.28.64 0 2.479-1.28 3.718-1.28-1.24 0-1.839-1.279-2.478-1.279z" fill="#bb7984" fill-rule="evenodd" fill-opacity="1" stroke="none"/><path d="M156.265 25.305c-8.115-2.559-14.311-7.716-19.908-12.833a954.034 954.034 0 0 1-9.354-6.436c-2.478 0-3.118 2.599-1.839 2.599 3.078 2.558 5.597 3.837 8.675 7.675 2.518 2.599 5.596 5.157 8.115 6.436 2.478 2.559 5.597 3.838 8.075 6.396 1.879 0 4.957 1.28 7.476 1.28 1.239 0 3.078-3.838-1.24-5.117z" fill="#f0037f" fill-rule="evenodd" fill-opacity="1" stroke="none"/><path d="M106.056 6.356c5.556 0 11.733 7.656 18.528 14.032 4.938 3.817 10.494 7.655 18.53 10.213.599 0 0 1.26 0 0-3.099-2.558-5.577-3.837-8.036-6.396-4.317-2.538-8.035-6.376-11.733-10.193-4.317-5.117-9.894-10.214-14.211-11.494-3.078 0-4.937-1.279-6.176 2.559-1.86 2.558.62 1.28 3.098 1.28z" fill="#88c829" fill-rule="evenodd" fill-opacity="1" stroke="none"/><path d="M150.109 29.302c-2.478-1.279-4.997-2.598-7.475-3.877 0 0-.6 0-.6-1.28-4.357-2.598-8.715-6.436-11.833-10.313-5.597-5.157-9.314-11.633-15.55-11.633 0 0-1.88 1.319-1.88 2.598 2.52 0 4.358 2.599 6.876 3.878 3.079 2.558 6.197 5.157 9.315 9.034 1.879 2.559 3.718 3.838 6.196 6.436.64 0 .64 1.28 1.28 1.28h.599c.64 1.279 1.24 1.279 1.879 1.279l.6 1.319h1.239c.64 1.28.64 1.28 1.279 1.28.6 0 .6 0 1.24 1.278 1.838 0 3.077 1.28 5.596 1.28.6 0 2.478-1.28 3.078-2.559h-1.839z" fill="#bb7984" fill-rule="evenodd" fill-opacity="1" stroke="none"/><path d="M130.84 25.225c-8.094-2.519-14.31-7.556-19.288-12.593-3.737-3.777-7.475-5.037-9.954-6.296-1.858-1.26-2.498 1.26-1.858 2.519 3.717 1.259 5.596 2.518 9.314 6.296 1.879 2.518 5.597 5.037 8.095 7.555 1.859 2.519 4.977 3.778 8.075 5.037 1.26 1.24 4.357 1.24 7.476 1.24 1.239 0 3.098-3.758-1.86-3.758z" fill="#f0037f" fill-rule="evenodd" fill-opacity="1" stroke="none"/><path d="M81.27 5.057c4.958 1.26 11.154 8.875 17.97 13.951 5.576 5.077 10.533 7.616 18.589 10.154.62 0 .62 1.26.62 0-3.099-1.259-5.577-3.797-8.676-6.336-4.337-2.538-8.055-6.356-11.153-10.154-4.337-3.817-9.914-8.894-14.251-10.154-3.718-1.279-4.957-1.279-6.816 1.26-1.24 3.817.62 1.279 3.718 1.279z" fill="#88c829" fill-rule="evenodd" fill-opacity="1" stroke="none"/><path d="M125.304 27.863c-3.098-1.28-5.597-1.28-8.075-3.838-4.977-2.578-8.715-7.715-12.453-10.273-4.956-6.416-9.314-11.553-14.91-11.553-.62 0-1.88 0-1.88 1.299 1.88 1.28 4.358 2.558 6.237 5.117 3.098 1.299 6.216 5.137 9.934 8.994 1.879 1.28 3.738 3.838 5.596 5.117.62 1.3 1.26 1.3 1.88 1.3l.619 1.279c.62 0 .62 0 1.24 1.279h1.238s.62 1.28 1.24 1.28h.64c.619 1.278 1.239 1.278 1.858 1.278 1.86 1.28 3.098 1.28 5.597 1.28 0 0 2.478-1.28 3.098-1.28-.62 0-1.24-1.279-1.859-1.279z" fill="#bb7984" fill-rule="evenodd" fill-opacity="1" stroke="none"/><path d="M107.335 24.145c-8.055-2.578-14.251-6.456-19.828-11.633-3.098-3.877-7.436-5.176-9.294-6.476-2.479 0-3.099 2.599-1.86 2.599 3.099 2.578 5.577 3.877 9.295 7.755 1.859 1.3 4.957 3.878 7.436 6.476 2.478 1.28 5.576 3.878 8.674 5.157h7.436c1.24 0 3.098-3.878-1.859-3.878z" fill="#f0037f" fill-rule="evenodd" fill-opacity="1" stroke="none"/><path d="M57.005 7.336c5.597 0 11.813 7.695 18.65 12.832 5.616 3.857 10.593 6.416 18.668 8.974.62 0 .62 1.28.62 0-3.099-1.279-5.597-3.837-8.695-5.117-4.358-3.857-8.095-6.416-11.213-10.273-4.358-3.838-9.954-8.975-14.931-10.254-3.099-1.3-4.977-1.3-6.217 2.558-1.879 3.858.62 1.28 3.118 1.28z" fill="#88c829" fill-rule="evenodd" fill-opacity="1" stroke="none"/><path d="M101.718 27.883c-3.098-1.28-5.576-2.558-8.055-3.838h-.62c-4.337-2.538-8.055-6.376-11.772-10.193-5.577-5.097-9.295-10.214-15.49-10.214l-1.86 1.279c2.479 1.28 4.338 2.558 6.816 5.117 3.098 1.26 6.196 3.818 9.294 7.635 2.479 2.559 4.338 3.838 6.197 6.376h1.859c0 1.28 0 1.28.62 1.28.619 0 .619 0 1.238 1.279h1.24s.62 1.28 1.239 1.28h.62c.62 1.278 1.239 1.278 1.858 1.278 1.86 1.26 3.099 1.26 5.577 1.26 0 0 2.479-1.26 3.098-2.539h-1.859z" fill="#bb7984" fill-rule="evenodd" fill-opacity="1" stroke="none"/><path d="M81.89 22.766c-8.095-1.259-14.311-5.097-19.908-10.194-3.737-2.538-7.475-3.817-9.954-3.817-1.858-1.28-2.498 1.279-1.858 2.558 3.717 1.26 5.596 2.539 9.314 5.097 2.498 2.539 5.597 3.818 8.095 6.356 2.479 1.28 5.597 2.559 8.715 3.818h7.455c1.24 0 2.479-3.818-1.859-3.818z" fill="#f0037f" fill-rule="evenodd" fill-opacity="1" stroke="none"/><path d="M31.7 11.173c4.938-1.279 11.114 6.416 18.53 10.274 5.556 3.858 10.493 6.416 19.128 7.695 0 0 0 1.28 0 0-3.078-1.279-5.557-2.558-8.635-5.137-4.317-2.558-8.035-5.116-11.733-8.974-4.317-3.858-9.894-7.695-14.83-7.695-3.079-1.3-4.938-1.3-6.177 2.558-1.24 3.858.62 1.28 3.718 1.28z" fill="#88c829" fill-rule="evenodd" fill-opacity="1" stroke="none"/><path d="M76.234 26.484c-3.098-1.26-5.557-1.26-8.035-2.519h-.62c-4.317-2.518-8.635-6.296-12.352-8.814-4.937-5.037-9.255-10.074-14.811-8.815-.62 0-1.86 1.26-2.479 2.519 2.479 0 4.957 1.259 6.796 3.777 3.098 1.26 6.176 3.778 9.894 6.297 1.839 1.259 4.317 3.777 6.156 5.036.62 0 1.24 1.26 1.859 1.26h.62c.62 1.259.62 1.259 1.239 1.259h1.24c0 1.26.619 1.26 1.218 1.26h.62c.62 0 1.24 1.238 1.859 1.238h5.557c.62 0 2.478-1.239 3.078-2.498h-1.84z" fill="#bb7984" fill-rule="evenodd" fill-opacity="1" stroke="none"/><path d="M56.486 24.185c-8.075-1.299-14.292-5.157-19.888-9.014-3.718-2.559-8.075-3.858-9.934-3.858-2.479 0-3.118 2.579-1.859 2.579 3.718 1.279 5.577 2.578 9.314 5.136 2.479 2.579 5.597 3.858 8.075 5.157 2.479 2.559 5.597 2.559 8.695 3.838h7.456c1.239-1.28 3.098-5.137-1.86-3.838z" fill="#f0037f" fill-rule="evenodd" fill-opacity="1" stroke="none"/><path clip-path="url(#a)" d="M6.196 16.45c4.957-1.28 11.153 5.137 18.569 8.995 5.577 3.857 10.534 5.136 19.188 5.136.62 0 0 1.28 0 0-3.078 0-5.556-2.558-8.654-3.857-4.338-1.28-8.056-5.137-11.773-7.696-4.318-3.857-10.514-7.715-14.851-7.715-3.098 0-4.957 0-6.197 3.858-1.239 3.857.62 1.279 3.718 1.279z" fill="#88c829" fill-rule="evenodd" fill-opacity="1" stroke="none"/><path d="M50.95 28.043c-3.119-1.28-5.597 0-8.096-1.28 0-1.258 0-1.258-.62-1.258-4.357-1.28-8.714-5.117-12.452-7.656-5.597-3.818-9.954-8.934-15.55-7.655-.62 0-1.88 1.279-1.88 2.558 2.499 0 4.358 1.28 6.856 3.818 3.118 0 6.217 2.558 9.954 6.376 1.88 1.28 4.358 2.559 6.237 3.818.62 0 1.239 1.279 1.858 1.279h.62c.62 0 1.24 1.28 1.24 1.28h1.259c.62 0 .62 0 1.239 1.278h2.499c1.858 1.26 3.097 1.26 5.596 0 .62 0 2.478-1.279 3.098-2.558h-1.859z" fill="#bb7984" fill-rule="evenodd" fill-opacity="1" stroke="none"/><path clip-path="url(#a)" d="M332.119 52.128c-7.396-3.837-13.592-10.233-18.51-16.59-3.717-3.837-7.395-6.396-9.273-7.675-1.84-1.28-2.479 1.28-1.84 2.559 3.079 1.279 5.557 3.837 8.635 8.954 1.84 2.519 4.957 5.077 7.396 7.636 2.478 2.558 4.957 5.116 8.035 7.675 1.24 1.28 4.317 1.28 7.396 2.518 1.239 0 3.078-3.797-1.84-5.077z" fill="#f0037f" fill-rule="evenodd" fill-opacity="1" stroke="none"/><path d="M283.788 22.586c4.957 1.28 10.554 10.234 17.35 17.87 4.956 5.116 9.913 8.954 17.949 14.071.6 0 0 1.24.6 0-3.079-2.558-5.557-5.117-8.036-7.675-4.317-3.838-8.035-8.955-11.153-12.753-3.678-5.117-9.274-11.513-13.592-14.071-3.118-1.28-4.957-2.559-6.836 1.28-1.239 2.558.64 1.278 3.718 1.278z" fill="#88c829" fill-rule="evenodd" fill-opacity="1" stroke="none"/><path d="M326.562 54.647c-3.078-2.559-5.557-3.838-7.435-5.117-.6 0-.6-1.28-.6-1.28-4.317-3.837-8.035-7.675-11.753-12.831-4.957-6.397-8.675-12.793-14.231-14.112-.64 0-1.88 0-1.88 1.32 1.88 1.279 3.719 3.837 6.197 6.395 3.118 2.559 5.597 6.397 9.274 10.234 1.88 2.599 3.718 5.157 5.597 7.716.6 0 .6 0 1.24 1.279 0 0 .599 0 .599 1.279.64 0 1.24 0 1.24 1.28h1.238c0 1.278.6 1.278 1.24 1.278l.6 1.28c.639 0 1.239 0 1.878 1.279 1.24 1.28 3.078 1.28 4.957 1.28.6 1.278 2.479 0 3.678 0-.6-1.28-1.2-1.28-1.839-1.28z" fill="#bb7984" fill-rule="evenodd" fill-opacity="1" stroke="none"/><path d="M306.814 46.852c-7.435-3.838-13.672-10.234-18.629-16.59-3.118-3.838-7.475-6.396-9.314-7.676-1.879-1.279-2.518 0-1.879 1.28 3.118 2.558 5.597 5.116 8.715 8.954 1.839 2.559 4.957 6.356 7.435 8.915 2.479 2.558 4.997 5.117 8.075 6.396 1.24 1.28 4.358 2.558 7.476 2.558 1.24 1.24 3.078-2.558-1.879-3.837z" fill="#f0037f" fill-rule="evenodd" fill-opacity="1" stroke="none"/><path d="M258.483 17.83c4.957 1.278 10.514 10.153 17.35 16.51 4.957 6.315 9.914 10.153 17.989 13.95.6 0 .6 1.24.6 0-3.079-1.278-5.557-5.076-8.036-7.635-4.357-3.797-8.075-7.595-11.193-12.672-3.718-5.077-9.274-11.393-13.632-12.672-3.078-1.28-4.957-2.559-6.835 0-1.24 3.797.64 2.518 3.757 2.518z" fill="#88c829" fill-rule="evenodd" fill-opacity="1" stroke="none"/><path d="M301.217 48.41c-2.478-1.279-5.596-2.558-7.475-5.116h-.6c-4.357-3.838-8.075-8.955-11.793-12.792-4.996-6.397-8.714-12.793-14.31-14.072-.6-1.28-1.88 0-1.88 1.28 1.88 1.278 4.358 3.837 6.237 5.116 3.118 2.559 5.596 6.396 9.314 11.513 1.879 1.28 3.718 3.838 5.596 6.396.6 1.28.6 1.28 1.24 1.28l.6 1.279c.639 0 1.279 1.279 1.279 1.279.6 0 .6 1.28 1.239 1.28 0 0 .6 0 1.24 1.278h.599c.64 1.28 1.239 1.28 1.879 1.28 1.239 1.279 3.118 2.558 4.957 2.558.64 0 3.118 0 3.717-1.28-.6 0-1.239 0-1.839-1.278z" fill="#bb7984" fill-rule="evenodd" fill-opacity="1" stroke="none"/><path d="M281.95 41.895c-7.436-5.077-13.593-11.473-18.55-16.55-3.717-5.077-7.435-7.636-9.274-8.915-1.879-1.28-3.118 1.28-1.879 2.558 3.118 2.559 4.957 3.798 8.675 8.915 1.839 2.519 4.957 5.077 7.435 7.635 2.479 3.798 4.957 5.077 8.035 7.636 1.24 1.28 4.318 2.518 6.796 2.518 1.88 0 3.079-2.518-1.239-3.797z" fill="#f0037f" fill-rule="evenodd" fill-opacity="1" stroke="none"/><path d="M233.698 12.552c4.957 1.28 10.514 10.154 17.35 16.51 4.957 6.317 9.914 10.154 17.989 13.952.6 0 0 1.24 0 0-2.479-2.559-4.957-5.077-7.436-7.635-4.357-3.798-8.075-8.875-11.193-12.673-4.317-5.077-9.274-11.393-13.631-13.951-3.079-1.28-4.957-1.28-6.836 1.279-1.24 2.518.64 1.28 3.757 2.518z" fill="#88c829" fill-rule="evenodd" fill-opacity="1" stroke="none"/><path d="M276.432 43.134c-3.078-2.559-5.556-2.559-7.435-5.117h-.6c-4.357-3.838-8.075-8.955-11.753-14.072-4.957-6.396-8.674-12.792-14.27-14.071-.6 0-1.84 1.28-2.48 1.28 2.48 2.558 4.358 3.837 6.197 6.395 3.118 2.559 6.196 6.396 9.314 10.234 1.84 2.559 3.678 5.117 6.156 7.676 0 0 .64 1.279 1.24 1.279l.64 1.279c.599 0 .599 0 1.239 1.28h.6c.639 1.278 1.238 1.278 1.878 1.278 0 1.28.6 1.28.6 1.28.64 0 1.239 1.279 1.239 1.279 1.879 1.28 3.718 1.28 5.597 2.558.6 0 2.478 0 3.677-1.279-1.199 0-1.839-1.28-1.839-1.28z" fill="#bb7984" fill-rule="evenodd" fill-opacity="1" stroke="none"/><path d="M258.483 35.459c-7.435-3.838-13.631-8.915-18.588-15.231-3.718-3.838-7.436-6.356-9.275-7.636-2.478-1.279-3.118 1.28-2.478 2.559 3.717 2.518 5.556 3.798 9.274 7.595 1.879 2.559 4.957 6.356 7.436 8.875 2.478 2.558 4.957 3.838 8.035 6.356 1.239 1.28 4.357 1.28 7.435 2.518 1.24 0 3.078-3.797-1.839-5.036z" fill="#f0037f" fill-rule="evenodd" fill-opacity="1" stroke="none"/><path d="M209.473 8.915c5.557 1.279 11.153 10.233 17.99 16.59 4.956 5.116 9.913 8.954 17.988 12.792.6 0 .6 1.239.6 0-3.078-1.28-5.557-3.838-8.035-6.396-4.358-3.838-8.075-8.955-11.193-12.753-4.318-5.117-9.914-10.233-14.272-12.792-3.078-1.28-4.957-1.28-6.196 1.28-1.879 2.558.64 1.279 3.118 1.279z" fill="#88c829" fill-rule="evenodd" fill-opacity="1" stroke="none"/><path d="M252.927 37.977c-3.118-1.28-5.597-2.558-7.436-5.077h-.64c-4.317-3.798-8.035-8.915-11.792-12.712-4.957-6.356-8.675-12.713-14.871-12.713 0 0-1.88 0-1.88 1.28 2.52 1.279 4.358 3.837 6.237 5.077 3.078 2.558 6.196 6.356 9.275 10.153 1.878 2.559 3.717 5.117 6.236 7.636.6 0 .6 0 1.239 1.28h.6c.64 1.278 1.239 1.278 1.239 1.278.64 0 .64 1.24 1.24 1.24 0 0 .639 0 1.238 1.279h.64c.6 1.279 1.24 1.279 1.839 1.279 1.24 1.28 3.118 1.28 5.596 2.518 0 0 2.479-1.239 3.079-1.239-.6-1.279-1.24-1.279-1.84-1.279z" fill="#bb7984" fill-rule="evenodd" fill-opacity="1" stroke="none"/><path d="M233.618 29.222c-8.035-2.558-14.191-7.635-19.748-12.672-3.078-3.798-7.395-6.356-9.234-7.635-1.879 0-3.118 2.558-1.879 2.558 3.078 2.519 5.557 3.798 8.635 7.595 2.478 2.519 5.557 5.077 8.035 7.596 2.439 2.558 4.917 3.798 7.995 5.077 1.24 1.279 4.957 1.279 7.396 1.279 1.239 1.24 3.078-2.558-1.2-3.798z" fill="#f0037f" fill-rule="evenodd" fill-opacity="1" stroke="none"/><path d="M184.168 7.475c4.957 1.28 11.154 8.955 17.95 15.311 4.957 5.117 10.513 7.676 18.548 10.234.6 0 0 1.24 0 0-3.078-1.28-5.556-3.838-8.035-6.396-4.317-2.559-8.035-6.396-11.753-10.194-3.717-5.117-9.274-10.234-14.231-11.513-3.078-1.28-4.957-1.28-6.196 1.28-1.24 3.837.64 1.278 3.717 1.278z" fill="#88c829" fill-rule="evenodd" fill-opacity="1" stroke="none"/><path d="M227.422 31.74c-2.478-1.278-4.957-1.278-7.395-3.797h-.64c-4.317-3.798-8.635-7.635-11.753-11.433-5.556-5.077-9.274-11.433-14.83-11.433-.6 0-1.84 1.28-2.48 1.28 2.48 1.278 4.358 3.797 6.837 5.076 3.078 2.559 6.156 5.077 9.234 8.875 1.879 2.558 3.718 5.077 6.196 6.356.64 1.28.64 1.28 1.24 1.28.599 0 .599 1.278.599 1.278.64 0 1.24 0 1.879 1.24h.6c.64 0 .64 1.279 1.239 1.279h1.239c0 1.279.64 1.279 1.24 1.279 1.838 1.24 3.077 1.24 5.556 1.24.64 0 2.478 0 3.078-1.24-.6 0-1.2 0-1.839-1.28z" fill="#bb7984" fill-rule="evenodd" fill-opacity="1" stroke="none"/><path d="M208.314 25.185c-8.115-2.559-14.312-7.676-19.908-11.473-3.758-3.838-7.476-5.117-9.355-6.396-2.478-1.28-3.118 1.279-1.838 2.558 3.078 1.28 5.596 3.838 8.674 6.396 2.519 2.519 5.597 5.077 8.115 7.636 2.479 1.279 5.597 2.558 8.076 5.076h7.475c1.839 0 3.078-3.797-1.24-3.797z" fill="#f0037f" fill-rule="evenodd" fill-opacity="1" stroke="none"/><path d="M158.104 7.515c5.557 0 11.113 7.676 18.549 12.833 4.917 5.117 10.474 7.675 18.509 10.233.6 0 0 1.28 0 0-3.078-1.279-5.557-3.837-8.035-6.396-4.318-2.558-8.036-6.436-11.713-8.994-4.358-5.117-9.914-10.234-14.232-11.553-3.078 0-4.917 0-6.156 2.598-1.879 3.838 0 1.28 3.078 1.28z" fill="#88c829" fill-rule="evenodd" fill-opacity="1" stroke="none"/><path d="m201.998 29.302-7.436-3.837h-.6c-4.357-3.838-8.674-7.716-11.792-10.274-5.557-6.396-9.914-11.553-15.471-11.553-.64 0-1.879 1.319-1.879 2.598 1.879 0 4.357 2.559 6.196 3.838 3.118 2.558 6.197 5.117 9.914 8.994 1.88 1.28 3.718 3.838 6.197 5.117.64 1.28.64 1.28 1.239 1.28.64 0 .64 1.279.64 1.279h1.838c0 1.279.64 1.279.64 1.279.6 0 1.24 0 1.24 1.28h1.238c.6 0 .6 1.278 1.24 1.278 1.839 0 3.717 1.28 5.556 1.28.64 0 2.479-1.28 3.718-2.559h-2.478z" fill="#bb7984" fill-rule="evenodd" fill-opacity="1" stroke="none"/><path d="M181.57 26.584c-8.035-2.559-14.191-7.675-19.748-12.832-3.078-3.838-7.396-5.117-9.234-6.396-1.88-1.32-3.119 1.279-1.88 2.558 3.079 1.28 5.557 2.558 9.275 6.396 1.839 2.599 4.917 5.157 7.396 7.715 2.438 2.559 5.556 3.838 7.995 5.117 1.879 1.28 4.957 1.28 7.395 1.28 1.88 0 3.078-3.838-1.199-3.838M132.12 6.076c4.957 1.32 11.153 9.035 17.989 14.192 5.557 5.157 10.514 7.755 18.589 10.313.6 0 0 1.28 0 0-2.479-1.279-5.597-3.877-8.075-6.436-4.318-2.598-8.035-6.436-11.154-10.313-4.317-3.878-9.914-9.035-14.87-10.314-3.079-1.32-4.958-1.32-6.197 1.28-1.24 3.877.64 1.278 3.718 1.278" fill="none" stroke="#333" stroke-width=".31980619px" stroke-linecap="butt" stroke-linejoin="miter" stroke-miterlimit="8" stroke-dasharray="none" stroke-opacity="1"/><path d="M175.454 29.302c-2.479-1.279-4.957-1.279-7.436-3.837h-.6c-4.357-2.559-8.075-7.716-11.792-10.274-5.557-6.396-9.275-11.553-14.871-11.553-.6 0-1.84 0-2.479 1.319 2.479 1.28 4.358 2.558 6.836 5.117 3.078 1.28 6.196 5.117 9.274 8.994 1.88 1.28 4.358 3.838 6.197 5.117.64 1.28 1.239 1.28 1.239 1.28.64 0 .64 1.279 1.24 1.279 0 0 .639 0 1.238 1.279h.64c.6 0 1.24 1.28 1.839 1.28h.64c.6 1.278 1.239 1.278 1.239 1.278 1.839 1.28 3.718 1.28 5.556 1.28.64 0 2.479-1.28 3.718-1.28-1.24 0-1.839-1.279-2.478-1.279M156.265 25.305c-8.115-2.559-14.311-7.716-19.908-12.833a954.034 954.034 0 0 1-9.354-6.436c-2.478 0-3.118 2.599-1.839 2.599 3.078 2.558 5.597 3.837 8.675 7.675 2.518 2.599 5.596 5.157 8.115 6.436 2.478 2.559 5.597 3.838 8.075 6.396 1.879 0 4.957 1.28 7.476 1.28 1.239 0 3.078-3.838-1.24-5.117" fill="none" stroke="#333" stroke-width=".31980619px" stroke-linecap="butt" stroke-linejoin="miter" stroke-miterlimit="8" stroke-dasharray="none" stroke-opacity="1"/><path clip-path="url(#a)" d="M106.056 6.356c5.556 0 11.733 7.656 18.528 14.032 4.938 3.817 10.494 7.655 18.53 10.213.599 0 0 1.26 0 0-3.099-2.558-5.577-3.837-8.036-6.396-4.317-2.538-8.035-6.376-11.733-10.193-4.317-5.117-9.894-10.214-14.211-11.494-3.078 0-4.937-1.279-6.176 2.559-1.86 2.558.62 1.28 3.098 1.28" fill="none" stroke="#333" stroke-width=".31980619px" stroke-linecap="butt" stroke-linejoin="miter" stroke-miterlimit="8" stroke-dasharray="none" stroke-opacity="1"/><path d="M150.109 29.302c-2.478-1.279-4.997-2.598-7.475-3.877 0 0-.6 0-.6-1.28-4.357-2.598-8.715-6.436-11.833-10.313-5.597-5.157-9.314-11.633-15.55-11.633 0 0-1.88 1.319-1.88 2.598 2.52 0 4.358 2.599 6.876 3.878 3.079 2.558 6.197 5.157 9.315 9.034 1.879 2.559 3.718 3.838 6.196 6.436.64 0 .64 1.28 1.28 1.28h.599c.64 1.279 1.24 1.279 1.879 1.279l.6 1.319h1.239c.64 1.28.64 1.28 1.279 1.28.6 0 .6 0 1.24 1.278 1.838 0 3.077 1.28 5.596 1.28.6 0 2.478-1.28 3.078-2.559h-1.839M130.84 25.225c-8.094-2.519-14.31-7.556-19.288-12.593-3.737-3.777-7.475-5.037-9.954-6.296-1.858-1.26-2.498 1.26-1.858 2.519 3.717 1.259 5.596 2.518 9.314 6.296 1.879 2.518 5.597 5.037 8.095 7.555 1.859 2.519 4.977 3.778 8.075 5.037 1.26 1.24 4.357 1.24 7.476 1.24 1.239 0 3.098-3.758-1.86-3.758" fill="none" stroke="#333" stroke-width=".31980619px" stroke-linecap="butt" stroke-linejoin="miter" stroke-miterlimit="8" stroke-dasharray="none" stroke-opacity="1"/><path clip-path="url(#a)" d="M81.27 5.057c4.958 1.26 11.154 8.875 17.97 13.951 5.576 5.077 10.533 7.616 18.589 10.154.62 0 .62 1.26.62 0-3.099-1.259-5.577-3.797-8.676-6.336-4.337-2.538-8.055-6.356-11.153-10.154-4.337-3.817-9.914-8.894-14.251-10.154-3.718-1.279-4.957-1.279-6.816 1.26-1.24 3.817.62 1.279 3.718 1.279" fill="none" stroke="#333" stroke-width=".31980619px" stroke-linecap="butt" stroke-linejoin="miter" stroke-miterlimit="8" stroke-dasharray="none" stroke-opacity="1"/><path d="M125.304 27.863c-3.098-1.28-5.597-1.28-8.075-3.838-4.977-2.578-8.715-7.715-12.453-10.273-4.956-6.416-9.314-11.553-14.91-11.553-.62 0-1.88 0-1.88 1.299 1.88 1.28 4.358 2.558 6.237 5.117 3.098 1.299 6.216 5.137 9.934 8.994 1.879 1.28 3.738 3.838 5.596 5.117.62 1.3 1.26 1.3 1.88 1.3l.619 1.279c.62 0 .62 0 1.24 1.279h1.238s.62 1.28 1.24 1.28h.64c.619 1.278 1.239 1.278 1.858 1.278 1.86 1.28 3.098 1.28 5.597 1.28 0 0 2.478-1.28 3.098-1.28-.62 0-1.24-1.279-1.859-1.279M107.335 24.145c-8.055-2.578-14.251-6.456-19.828-11.633-3.098-3.877-7.436-5.176-9.294-6.476-2.479 0-3.099 2.599-1.86 2.599 3.099 2.578 5.577 3.877 9.295 7.755 1.859 1.3 4.957 3.878 7.436 6.476 2.478 1.28 5.576 3.878 8.674 5.157h7.436c1.24 0 3.098-3.878-1.859-3.878M57.005 7.336c5.597 0 11.813 7.695 18.65 12.832 5.616 3.857 10.593 6.416 18.668 8.974.62 0 .62 1.28.62 0-3.099-1.279-5.597-3.837-8.695-5.117-4.358-3.857-8.095-6.416-11.213-10.273-4.358-3.838-9.954-8.975-14.931-10.254-3.099-1.3-4.977-1.3-6.217 2.558-1.879 3.858.62 1.28 3.118 1.28" fill="none" stroke="#333" stroke-width=".31980619px" stroke-linecap="butt" stroke-linejoin="miter" stroke-miterlimit="8" stroke-dasharray="none" stroke-opacity="1"/><path d="M101.718 27.883c-3.098-1.28-5.576-2.558-8.055-3.838h-.62c-4.337-2.538-8.055-6.376-11.772-10.193-5.577-5.097-9.295-10.214-15.49-10.214l-1.86 1.279c2.479 1.28 4.338 2.558 6.816 5.117 3.098 1.26 6.196 3.818 9.294 7.635 2.479 2.559 4.338 3.838 6.197 6.376h1.859c0 1.28 0 1.28.62 1.28.619 0 .619 0 1.238 1.279h1.24s.62 1.28 1.239 1.28h.62c.62 1.278 1.239 1.278 1.858 1.278 1.86 1.26 3.099 1.26 5.577 1.26 0 0 2.479-1.26 3.098-2.539h-1.859M81.89 22.766c-8.095-1.259-14.311-5.097-19.908-10.194-3.737-2.538-7.475-3.817-9.954-3.817-1.858-1.28-2.498 1.279-1.858 2.558 3.717 1.26 5.596 2.539 9.314 5.097 2.498 2.539 5.597 3.818 8.095 6.356 2.479 1.28 5.597 2.559 8.715 3.818h7.455c1.24 0 2.479-3.818-1.859-3.818M31.7 11.173c4.938-1.279 11.114 6.416 18.53 10.274 5.556 3.858 10.493 6.416 19.128 7.695 0 0 0 1.28 0 0-3.078-1.279-5.557-2.558-8.635-5.137-4.317-2.558-8.035-5.116-11.733-8.974-4.317-3.858-9.894-7.695-14.83-7.695-3.079-1.3-4.938-1.3-6.177 2.558-1.24 3.858.62 1.28 3.718 1.28" fill="none" stroke="#333" stroke-width=".31980619px" stroke-linecap="butt" stroke-linejoin="miter" stroke-miterlimit="8" stroke-dasharray="none" stroke-opacity="1"/><path d="M76.234 26.484c-3.098-1.26-5.557-1.26-8.035-2.519h-.62c-4.317-2.518-8.635-6.296-12.352-8.814-4.937-5.037-9.255-10.074-14.811-8.815-.62 0-1.86 1.26-2.479 2.519 2.479 0 4.957 1.259 6.796 3.777 3.098 1.26 6.176 3.778 9.894 6.297 1.839 1.259 4.317 3.777 6.156 5.036.62 0 1.24 1.26 1.859 1.26h.62c.62 1.259.62 1.259 1.239 1.259h1.24c0 1.26.619 1.26 1.218 1.26h.62c.62 0 1.24 1.238 1.859 1.238h5.557c.62 0 2.478-1.239 3.078-2.498h-1.84M56.486 24.185c-8.075-1.299-14.292-5.157-19.888-9.014-3.718-2.559-8.075-3.858-9.934-3.858-2.479 0-3.118 2.579-1.859 2.579 3.718 1.279 5.577 2.578 9.314 5.136 2.479 2.579 5.597 3.858 8.075 5.157 2.479 2.559 5.597 2.559 8.695 3.838h7.456c1.239-1.28 3.098-5.137-1.86-3.838" fill="none" stroke="#333" stroke-width=".31980619px" stroke-linecap="butt" stroke-linejoin="miter" stroke-miterlimit="8" stroke-dasharray="none" stroke-opacity="1"/><path clip-path="url(#a)" d="M6.196 16.45c4.957-1.28 11.153 5.137 18.569 8.995 5.577 3.857 10.534 5.136 19.188 5.136.62 0 0 1.28 0 0-3.078 0-5.556-2.558-8.654-3.857-4.338-1.28-8.056-5.137-11.773-7.696-4.318-3.857-10.514-7.715-14.851-7.715-3.098 0-4.957 0-6.197 3.858-1.239 3.857.62 1.279 3.718 1.279" fill="none" stroke="#333" stroke-width=".31980619px" stroke-linecap="butt" stroke-linejoin="miter" stroke-miterlimit="8" stroke-dasharray="none" stroke-opacity="1"/><path d="M50.95 28.043c-3.119-1.28-5.597 0-8.096-1.28 0-1.258 0-1.258-.62-1.258-4.357-1.28-8.714-5.117-12.452-7.656-5.597-3.818-9.954-8.934-15.55-7.655-.62 0-1.88 1.279-1.88 2.558 2.499 0 4.358 1.28 6.856 3.818 3.118 0 6.217 2.558 9.954 6.376 1.88 1.28 4.358 2.559 6.237 3.818.62 0 1.239 1.279 1.858 1.279h.62c.62 0 1.24 1.28 1.24 1.28h1.259c.62 0 .62 0 1.239 1.278h2.499c1.858 1.26 3.097 1.26 5.596 0 .62 0 2.478-1.279 3.098-2.558h-1.859" fill="none" stroke="#333" stroke-width=".31980619px" stroke-linecap="butt" stroke-linejoin="miter" stroke-miterlimit="8" stroke-dasharray="none" stroke-opacity="1"/><path clip-path="url(#a)" d="M332.119 52.128c-7.396-3.837-13.592-10.233-18.51-16.59-3.717-3.837-7.395-6.396-9.273-7.675-1.84-1.28-2.479 1.28-1.84 2.559 3.079 1.279 5.557 3.837 8.635 8.954 1.84 2.519 4.957 5.077 7.396 7.636 2.478 2.558 4.957 5.116 8.035 7.675 1.24 1.28 4.317 1.28 7.396 2.518 1.239 0 3.078-3.797-1.84-5.077" fill="none" stroke="#333" stroke-width=".31980619px" stroke-linecap="butt" stroke-linejoin="miter" stroke-miterlimit="8" stroke-dasharray="none" stroke-opacity="1"/><path d="M283.788 22.586c4.957 1.28 10.554 10.234 17.35 17.87 4.956 5.116 9.913 8.954 17.949 14.071.6 0 0 1.24.6 0-3.079-2.558-5.557-5.117-8.036-7.675-4.317-3.838-8.035-8.955-11.153-12.753-3.678-5.117-9.274-11.513-13.592-14.071-3.118-1.28-4.957-2.559-6.836 1.28-1.239 2.558.64 1.278 3.718 1.278" fill="none" stroke="#333" stroke-width=".31980619px" stroke-linecap="butt" stroke-linejoin="miter" stroke-miterlimit="8" stroke-dasharray="none" stroke-opacity="1"/><path clip-path="url(#a)" d="M326.562 54.647c-3.078-2.559-5.557-3.838-7.435-5.117-.6 0-.6-1.28-.6-1.28-4.317-3.837-8.035-7.675-11.753-12.831-4.957-6.397-8.675-12.793-14.231-14.112-.64 0-1.88 0-1.88 1.32 1.88 1.279 3.719 3.837 6.197 6.395 3.118 2.559 5.597 6.397 9.274 10.234 1.88 2.599 3.718 5.157 5.597 7.716.6 0 .6 0 1.24 1.279 0 0 .599 0 .599 1.279.64 0 1.24 0 1.24 1.28h1.238c0 1.278.6 1.278 1.24 1.278l.6 1.28c.639 0 1.239 0 1.878 1.279 1.24 1.28 3.078 1.28 4.957 1.28.6 1.278 2.479 0 3.678 0-.6-1.28-1.2-1.28-1.839-1.28" fill="none" stroke="#333" stroke-width=".31980619px" stroke-linecap="butt" stroke-linejoin="miter" stroke-miterlimit="8" stroke-dasharray="none" stroke-opacity="1"/><path d="M306.814 46.852c-7.435-3.838-13.672-10.234-18.629-16.59-3.118-3.838-7.475-6.396-9.314-7.676-1.879-1.279-2.518 0-1.879 1.28 3.118 2.558 5.597 5.116 8.715 8.954 1.839 2.559 4.957 6.356 7.435 8.915 2.479 2.558 4.997 5.117 8.075 6.396 1.24 1.28 4.358 2.558 7.476 2.558 1.24 1.24 3.078-2.558-1.879-3.837M258.483 17.83c4.957 1.278 10.514 10.153 17.35 16.51 4.957 6.315 9.914 10.153 17.989 13.95.6 0 .6 1.24.6 0-3.079-1.278-5.557-5.076-8.036-7.635-4.357-3.797-8.075-7.595-11.193-12.672-3.718-5.077-9.274-11.393-13.632-12.672-3.078-1.28-4.957-2.559-6.835 0-1.24 3.797.64 2.518 3.757 2.518" fill="none" stroke="#333" stroke-width=".31980619px" stroke-linecap="butt" stroke-linejoin="miter" stroke-miterlimit="8" stroke-dasharray="none" stroke-opacity="1"/><path d="M301.217 48.41c-2.478-1.279-5.596-2.558-7.475-5.116h-.6c-4.357-3.838-8.075-8.955-11.793-12.792-4.996-6.397-8.714-12.793-14.31-14.072-.6-1.28-1.88 0-1.88 1.28 1.88 1.278 4.358 3.837 6.237 5.116 3.118 2.559 5.596 6.396 9.314 11.513 1.879 1.28 3.718 3.838 5.596 6.396.6 1.28.6 1.28 1.24 1.28l.6 1.279c.639 0 1.279 1.279 1.279 1.279.6 0 .6 1.28 1.239 1.28 0 0 .6 0 1.24 1.278h.599c.64 1.28 1.239 1.28 1.879 1.28 1.239 1.279 3.118 2.558 4.957 2.558.64 0 3.118 0 3.717-1.28-.6 0-1.239 0-1.839-1.278M281.95 41.895c-7.436-5.077-13.593-11.473-18.55-16.55-3.717-5.077-7.435-7.636-9.274-8.915-1.879-1.28-3.118 1.28-1.879 2.558 3.118 2.559 4.957 3.798 8.675 8.915 1.839 2.519 4.957 5.077 7.435 7.635 2.479 3.798 4.957 5.077 8.035 7.636 1.24 1.28 4.318 2.518 6.796 2.518 1.88 0 3.079-2.518-1.239-3.797M233.698 12.552c4.957 1.28 10.514 10.154 17.35 16.51 4.957 6.317 9.914 10.154 17.989 13.952.6 0 0 1.24 0 0-2.479-2.559-4.957-5.077-7.436-7.635-4.357-3.798-8.075-8.875-11.193-12.673-4.317-5.077-9.274-11.393-13.631-13.951-3.079-1.28-4.957-1.28-6.836 1.279-1.24 2.518.64 1.28 3.757 2.518" fill="none" stroke="#333" stroke-width=".31980619px" stroke-linecap="butt" stroke-linejoin="miter" stroke-miterlimit="8" stroke-dasharray="none" stroke-opacity="1"/><path d="M276.432 43.134c-3.078-2.559-5.556-2.559-7.435-5.117h-.6c-4.357-3.838-8.075-8.955-11.753-14.072-4.957-6.396-8.674-12.792-14.27-14.071-.6 0-1.84 1.28-2.48 1.28 2.48 2.558 4.358 3.837 6.197 6.395 3.118 2.559 6.196 6.396 9.314 10.234 1.84 2.559 3.678 5.117 6.156 7.676 0 0 .64 1.279 1.24 1.279l.64 1.279c.599 0 .599 0 1.239 1.28h.6c.639 1.278 1.238 1.278 1.878 1.278 0 1.28.6 1.28.6 1.28.64 0 1.239 1.279 1.239 1.279 1.879 1.28 3.718 1.28 5.597 2.558.6 0 2.478 0 3.677-1.279-1.199 0-1.839-1.28-1.839-1.28M258.483 35.459c-7.435-3.838-13.631-8.915-18.588-15.231-3.718-3.838-7.436-6.356-9.275-7.636-2.478-1.279-3.118 1.28-2.478 2.559 3.717 2.518 5.556 3.798 9.274 7.595 1.879 2.559 4.957 6.356 7.436 8.875 2.478 2.558 4.957 3.838 8.035 6.356 1.239 1.28 4.357 1.28 7.435 2.518 1.24 0 3.078-3.797-1.839-5.036M209.473 8.915c5.557 1.279 11.153 10.233 17.99 16.59 4.956 5.116 9.913 8.954 17.988 12.792.6 0 .6 1.239.6 0-3.078-1.28-5.557-3.838-8.035-6.396-4.358-3.838-8.075-8.955-11.193-12.753-4.318-5.117-9.914-10.233-14.272-12.792-3.078-1.28-4.957-1.28-6.196 1.28-1.879 2.558.64 1.279 3.118 1.279" fill="none" stroke="#333" stroke-width=".31980619px" stroke-linecap="butt" stroke-linejoin="miter" stroke-miterlimit="8" stroke-dasharray="none" stroke-opacity="1"/><path d="M252.927 37.977c-3.118-1.28-5.597-2.558-7.436-5.077h-.64c-4.317-3.798-8.035-8.915-11.792-12.712-4.957-6.356-8.675-12.713-14.871-12.713 0 0-1.88 0-1.88 1.28 2.52 1.279 4.358 3.837 6.237 5.077 3.078 2.558 6.196 6.356 9.275 10.153 1.878 2.559 3.717 5.117 6.236 7.636.6 0 .6 0 1.239 1.28h.6c.64 1.278 1.239 1.278 1.239 1.278.64 0 .64 1.24 1.24 1.24 0 0 .639 0 1.238 1.279h.64c.6 1.279 1.24 1.279 1.839 1.279 1.24 1.28 3.118 1.28 5.596 2.518 0 0 2.479-1.239 3.079-1.239-.6-1.279-1.24-1.279-1.84-1.279M233.618 29.222c-8.035-2.558-14.191-7.635-19.748-12.672-3.078-3.798-7.395-6.356-9.234-7.635-1.879 0-3.118 2.558-1.879 2.558 3.078 2.519 5.557 3.798 8.635 7.595 2.478 2.519 5.557 5.077 8.035 7.596 2.439 2.558 4.917 3.798 7.995 5.077 1.24 1.279 4.957 1.279 7.396 1.279 1.239 1.24 3.078-2.558-1.2-3.798M184.168 7.475c4.957 1.28 11.154 8.955 17.95 15.311 4.957 5.117 10.513 7.676 18.548 10.234.6 0 0 1.24 0 0-3.078-1.28-5.556-3.838-8.035-6.396-4.317-2.559-8.035-6.396-11.753-10.194-3.717-5.117-9.274-10.234-14.231-11.513-3.078-1.28-4.957-1.28-6.196 1.28-1.24 3.837.64 1.278 3.717 1.278" fill="none" stroke="#333" stroke-width=".31980619px" stroke-linecap="butt" stroke-linejoin="miter" stroke-miterlimit="8" stroke-dasharray="none" stroke-opacity="1"/><path d="M227.422 31.74c-2.478-1.278-4.957-1.278-7.395-3.797h-.64c-4.317-3.798-8.635-7.635-11.753-11.433-5.556-5.077-9.274-11.433-14.83-11.433-.6 0-1.84 1.28-2.48 1.28 2.48 1.278 4.358 3.797 6.837 5.076 3.078 2.559 6.156 5.077 9.234 8.875 1.879 2.558 3.718 5.077 6.196 6.356.64 1.28.64 1.28 1.24 1.28.599 0 .599 1.278.599 1.278.64 0 1.24 0 1.879 1.24h.6c.64 0 .64 1.279 1.239 1.279h1.239c0 1.279.64 1.279 1.24 1.279 1.838 1.24 3.077 1.24 5.556 1.24.64 0 2.478 0 3.078-1.24-.6 0-1.2 0-1.839-1.28" fill="none" stroke="#333" stroke-width=".31980619px" stroke-linecap="butt" stroke-linejoin="miter" stroke-miterlimit="8" stroke-dasharray="none" stroke-opacity="1"/><path d="M208.314 25.185c-8.115-2.559-14.312-7.676-19.908-11.473-3.758-3.838-7.476-5.117-9.355-6.396-2.478-1.28-3.118 1.279-1.838 2.558 3.078 1.28 5.596 3.838 8.674 6.396 2.519 2.519 5.597 5.077 8.115 7.636 2.479 1.279 5.597 2.558 8.076 5.076h7.475c1.839 0 3.078-3.797-1.24-3.797M158.104 7.515c5.557 0 11.113 7.676 18.549 12.833 4.917 5.117 10.474 7.675 18.509 10.233.6 0 0 1.28 0 0-3.078-1.279-5.557-3.837-8.035-6.396-4.318-2.558-8.036-6.436-11.713-8.994-4.358-5.117-9.914-10.234-14.232-11.553-3.078 0-4.917 0-6.156 2.598-1.879 3.838 0 1.28 3.078 1.28" fill="none" stroke="#333" stroke-width=".31980619px" stroke-linecap="butt" stroke-linejoin="miter" stroke-miterlimit="8" stroke-dasharray="none" stroke-opacity="1"/><path d="m201.998 29.302-7.436-3.837h-.6c-4.357-3.838-8.674-7.716-11.792-10.274-5.557-6.396-9.914-11.553-15.471-11.553-.64 0-1.879 1.319-1.879 2.598 1.879 0 4.357 2.559 6.196 3.838 3.118 2.558 6.197 5.117 9.914 8.994 1.88 1.28 3.718 3.838 6.197 5.117.64 1.28.64 1.28 1.239 1.28.64 0 .64 1.279.64 1.279h1.838c0 1.279.64 1.279.64 1.279.6 0 1.24 0 1.24 1.28h1.238c.6 0 .6 1.278 1.24 1.278 1.839 0 3.717 1.28 5.556 1.28.64 0 2.479-1.28 3.718-2.559h-2.478" fill="none" stroke="#333" stroke-width=".31980619px" stroke-linecap="butt" stroke-linejoin="miter" stroke-miterlimit="8" stroke-dasharray="none" stroke-opacity="1"/></svg>