<svg xmlns="http://www.w3.org/2000/svg" version="1.0" viewBox="0 0 489.222 55.786"><defs><clipPath clipPathUnits="userSpaceOnUse" id="a"><path d="M-.08 2.239h488.664v55.806H-.08z"/></clipPath></defs><path clip-path="url(#a)" d="M1 13.552C22.625 7.595 42.373.999 65.2 4.317c23.466 3.958 44.454 6.596 67.88 6.596 20.387 0 83.948 0 101.858 1.32 19.108 1.958 40.095 11.193 48.77 13.192 14.191 4.597 43.813 9.874 58.605 9.874 27.783-.64 53.687-10.554 82.11-5.277 20.347 3.957 42.574 5.277 62.922 11.233-18.51-1.999-49.97-6.596-69.118-7.915-6.796 0-21.587 0-33.94 3.278-11.113 2.638-14.191 12.552-14.191 17.15-3.078-10.554-14.192-6.597-21.587-7.236-8.635-.68-19.149-1.32-27.783-3.318-7.396-.64-16.07-2.639-23.466-1.959-9.874 1.959-23.426 5.916-32.7 9.874-21.587 11.193-48.131 3.958-69.118-7.915-12.953-7.236-16.07-15.151-37.058-19.788-12.952-3.278-27.743-4.597-40.735-4.597-14.192 0-27.144-5.277-40.736-5.277-7.995 0-17.27-3.958-27.143-4.637-14.192 0-41.975 1.998-48.77 4.637z" fill="#f9b500" fill-rule="evenodd" fill-opacity="1" stroke="none"/><path d="M160.902 19.488c11.753 3.298 21.008 7.236 30.282 16.43 8.035 7.236 18.529 10.514 28.403 13.152 10.514 2.619 21.007 5.897 32.12 3.938 14.831-3.298 29.043-13.152 44.474-15.111-6.177 0-9.875 1.959-16.05 2.618-3.099 0-8.036 2.639-11.114 1.98-3.098-.66-6.176-3.938-8.655-5.258-1.859-1.319-4.937-3.278-6.796-2.638-1.859 0-1.859 1.979-3.078 2.638-8.035 3.278-20.387 0-28.423-2.638-7.415-2.618-14.211-6.556-22.246-5.896-8.015.64-11.113-3.298-17.91-6.576-4.936-1.98-11.113-2.639-15.43-3.298z" fill="#f29400" fill-rule="evenodd" fill-opacity="1" stroke="none"/><path d="M202.257 23.406c-1.858 8.555 16.07 17.13 28.443 17.789 12.353.66 27.204 3.938 28.443-7.256 1.22-11.193-55.027-19.108-56.886-10.533z" fill="#933b72" fill-rule="evenodd" fill-opacity="1" stroke="none"/><path d="M246.79 28.063c-12.992-5.876-25.344-5.876-33.4-4.557-7.415 1.959-10.513 3.897-3.697 9.114 7.415 4.577 14.211 5.217 21.027 3.918 6.796-1.3 12.373-3.258 17.93-.66 5.556 3.258 4.956-5.217-1.86-7.815z" fill="#b984a2" fill-rule="evenodd" fill-opacity="1" stroke="none"/><path d="M222.025 23.985c-9.874 0-19.148 5.997-9.254 7.996 4.937 1.319 4.317-.68 8.655-2 3.078-.679 11.113 2 12.352-3.337.6-1.999-6.796-3.338-11.753-2.659z" fill="#d5b9c9" fill-rule="evenodd" fill-opacity="1" stroke="none"/><path d="M344.311 42.474c6.157 3.298 19.089-4.637 24.006 2.639 1.859-3.978 4.317-7.276 8.615-8.615-7.376 1.34-14.152 3.318-21.527 3.318z" fill="#f29400" fill-rule="evenodd" fill-opacity="1" stroke="none"/><path d="M176.893 16.11c9.914 0 19.188-2.638 28.463 0-1.84 0-3.698 0-5.557 1.3-1.859.659-3.098 3.277-4.337 4.597-4.338 1.299-8.655-3.278-12.993-4.598zM241.174 18.849c8.035-.66 16.05 1.299 23.446 4.577 9.254 3.917 18.508 7.175 28.362 10.433-1.838 0-3.697-.64-5.536 0-3.698 0-5.557 1.32-8.635 2.619-4.317 1.3-6.796 1.3-9.874-1.3-5.557-4.577-7.396-9.793-14.811-12.412z" fill="#ffe7b8" fill-rule="evenodd" fill-opacity="1" stroke="none"/><path d="M186.247 16.81c1.859.66 4.318 2.658 6.156 2.658 1.22-.66 1.84-2.658 3.678-1.999-1.839-1.319-4.917-1.998-6.756-.66zM263.32 27.283c1.88.66 3.119 1.32 4.358 1.98 1.859 1.978 1.859 3.957 3.718 5.276 3.098 1.959 6.815-2.638 9.914-.66-5.577-1.978-11.773-8.574-17.99-6.596z" fill="#fff" fill-rule="evenodd" fill-opacity="1" stroke="none"/><path clip-path="url(#a)" d="M1.04 13.592c21.626-5.957 41.374-12.553 64.2-9.235 23.466 3.958 44.454 6.596 67.88 6.596 20.387 0 83.948 0 101.858 1.32 19.108 1.958 40.095 11.193 48.77 13.192 14.191 4.597 43.813 9.874 58.605 9.874 27.783-.64 53.687-10.554 82.11-5.277 20.347 3.957 42.574 5.277 62.922 11.233-18.51-1.999-49.97-6.596-69.118-7.915-6.796 0-21.587 0-33.94 3.278-11.113 2.638-14.191 12.552-14.191 17.15-3.078-10.554-14.192-6.597-21.587-7.236-8.635-.68-19.149-1.32-27.783-3.318-7.396-.64-16.07-2.639-23.466-1.959-9.874 1.959-23.426 5.916-32.7 9.874-21.587 11.193-48.131 3.958-69.118-7.915-12.953-7.236-16.07-15.151-37.058-19.788-12.952-3.278-27.743-4.597-40.735-4.597-14.192 0-27.144-5.277-40.736-5.277-7.995 0-17.27-3.958-27.143-4.637-14.192 0-41.975 1.998-48.77 4.637" fill="none" stroke="#000" stroke-width="1.0393701px" stroke-linecap="round" stroke-linejoin="round" stroke-miterlimit="4" stroke-dasharray="none" stroke-opacity="1"/><path d="M202.297 23.446c-1.858 8.555 16.07 17.13 28.443 17.789 12.353.66 27.204 3.938 28.443-7.256 1.22-11.193-55.027-19.108-56.886-10.533" fill="none" stroke="#000" stroke-width="1.0393701px" stroke-linecap="round" stroke-linejoin="round" stroke-miterlimit="4" stroke-dasharray="none" stroke-opacity="1"/><path d="M207.314 18.789c.62-2.639 3.698-3.958 6.157-2.639 1.858.66 3.078 3.958 2.478 5.937-1.24 2.638-3.698 3.937-6.176 2.638-2.459-.66-3.698-3.298-2.459-5.936zM219.007 19.428c.62-1.299 1.84-1.959 3.058-1.299 1.24 0 1.84 1.939 1.84 3.238-.6 1.3-2.44 1.939-3.678 1.3-1.22 0-1.84-1.94-1.22-3.239zM201.018 24.145c.62-1.299 1.859-1.958 3.078-1.299 1.86.64 2.459 1.939 1.86 3.878-.62 1.299-2.48 1.939-3.699 1.299-1.239-.64-1.858-1.939-1.239-3.878z" fill="#fff" fill-rule="evenodd" fill-opacity="1" stroke="none"/></svg>