<svg xmlns="http://www.w3.org/2000/svg" version="1.0" viewBox="0 0 532.913 62.135"><defs><clipPath clipPathUnits="userSpaceOnUse" id="a"><path d="M-.16 1.2h532.317v62.122H-.16z"/></clipPath></defs><path clip-path="url(#a)" d="M1 33.26c12.352 1.319 27.743 1.959 40.095 2.598 16.63.68 23.386 3.318 40.056-1.959 28.942-9.194 51.768-9.874 81.35-11.832 23.386-1.32 41.895-15.111 65.92-17.75C255.526 1 276.513 1.68 302.977 8.915c40.096 11.832 76.434 26.304 118.968 30.261 20.948 2.599 41.895-7.915 62.243-8.555 15.39-1.319 30.181 7.236 46.811 7.236-12.912 2.638-28.942-4.597-45.572-2.638-17.27 1.958-35.139 12.512-49.33 11.832-20.308-.64-46.812-7.235-48.69 15.111-12.313-24.985-47.452-26.943-71.477-21.667-23.426 4.598-40.056 14.472-63.482 13.152-24.625-1.319-46.812-13.152-72.076-15.79-31.461-3.278-54.247-7.915-84.43 1.959-13.59 4.597-26.503 1.959-40.694 1.959-14.152 0-41.895-5.917-54.248-8.515z" fill="#f9b500" fill-rule="evenodd" fill-opacity="1" stroke="none"/><path d="M150.749 30.621c14.79.64 30.221 1.96 44.413 5.237 12.912 2.639 25.864 7.236 38.816 9.874 12.313 1.96 25.865 5.877 38.217 3.278 13.552-2.638 25.864-8.555 39.416-12.472-3.678.64-9.234.64-12.912 0-4.317-.68-4.957-2.639-8.035-5.917-1.24-.68-5.517-5.916-6.756-5.916-1.879-.68-8.035 3.918-10.474 4.597-7.395 2.639-15.43 2.639-23.426 1.96-9.274 0-17.27-3.919-25.904-7.237-2.478 11.194-29.582 7.236-36.338 5.277-6.796-1.959-8.635-.68-15.43-.68-6.796.68-15.391 1.32-21.587 1.32z" fill="#f29400" fill-rule="evenodd" fill-opacity="1" stroke="none"/><path d="M227.062 25.345c-1.239 13.192 13.552 17.15 29.582 16.51 15.431-.68 27.144 0 29.583-11.873 3.078-11.233-19.109-16.51-31.421-15.83-12.313.639-25.265 1.958-27.744 11.193z" fill="#933b72" fill-rule="evenodd" fill-opacity="1" stroke="none"/><path d="M272.795 18.789c-14.192-4.598-27.783-1.28-35.819 1.998-7.395 3.918-10.513 9.195-2.478 14.432 4.357 2.638 8.035 3.278 11.753 2.638 3.718-.64 8.635-7.875 11.753-9.194 6.796-2.639 13.591 0 19.748-1.32 7.395-1.319 2.478-6.556-4.957-8.554z" fill="#b984a2" fill-rule="evenodd" fill-opacity="1" stroke="none"/><path d="M245.731 19.508c-9.874 2.639-14.231 7.915-8.635 11.233 1.2 1.28 4.917-.68 9.235-2.638 3.118-1.999 11.153-.68 11.753-6.596.6-3.318-7.396-3.318-12.353-1.999z" fill="#d5b9c9" fill-rule="evenodd" fill-opacity="1" stroke="none"/><path d="M325.683 35.219c3.677-2.639 12.912-.64 17.23-.64 6.155 0 11.712.64 17.269 2.598 5.516 2 11.713 4.638 16.63 7.916 3.078 2.638 5.556 7.235 8.634 8.515 3.079-3.279 4.318-5.877 8.595-7.196-2.438 0-6.156 1.32-8.595.64-3.717-1.32-7.395-4.598-10.473-6.557-8.035-4.597-17.87-7.235-26.504-10.513-9.235-2.639-21.547-3.318-30.822-1.32-3.677.64-6.755 2.639-10.473 5.237-3.678 2.639-7.396 3.278-11.713 5.277 4.957.64 11.113-.68 15.43-1.999 5.517-.64 11.713 0 16.03-1.958z" fill="#f29400" fill-rule="evenodd" fill-opacity="1" stroke="none"/><path d="M192.723 19.468c8.635-2.598 16.63-6.556 25.265-9.834 7.395-2.638 22.786-4.637 30.142-1.999-7.996 0-20.308 0-27.704 5.277-4.277 2.639-5.516 5.917-11.073 6.556-3.078 0-6.156-1.279-8.595-.64zM273.314 8.955c7.436-1.96 16.07.68 23.466 2.638 7.396 1.28 14.192 2.598 20.348 7.835a13.427 13.427 0 0 0-8.635-.68c-3.678 0-5.557 3.279-8.635 3.918-3.678 0-5.556-3.917-7.395-5.876-3.078-3.238-5.557-3.918-9.874-5.197z" fill="#ffe7b8" fill-rule="evenodd" fill-opacity="1" stroke="none"/><path d="M288.105 12.193c2.479 1.319 4.358 1.319 6.197 3.278 1.239 1.319 2.478 3.917 3.717 4.557 1.88.64 3.118-1.28 4.957-1.28 1.24-.679 3.118-.679 4.318-.679-4.917-1.28-9.275-5.197-14.831-5.197zM203.197 17.51c2.438 0 7.315 1.319 9.154.679 1.84-1.36 3.038-4.038 5.477-5.357-3.638-1.359-8.515.68-11.553 1.999zM220.426 10.194c-1.239 2.638 4.278 2.638 3.079-1.36h-1.24z" fill="#fff" fill-rule="evenodd" fill-opacity="1" stroke="none"/><path clip-path="url(#a)" d="M1.04 33.3c12.352 1.319 27.743 1.959 40.095 2.598 16.63.68 23.386 3.318 40.056-1.959 28.942-9.194 51.768-9.874 81.35-11.832 23.386-1.32 41.895-15.111 65.92-17.75 27.104-3.318 48.091-2.638 74.555 4.598 40.096 11.832 76.434 26.304 118.968 30.261 20.948 2.599 41.895-7.915 62.243-8.555 15.39-1.319 30.181 7.236 46.811 7.236-12.912 2.638-28.942-4.597-45.572-2.638-17.27 1.958-35.139 12.512-49.33 11.832-20.308-.64-46.812-7.235-48.69 15.111-12.313-24.985-47.452-26.943-71.478-21.667-23.425 4.598-40.055 14.472-63.481 13.152-24.625-1.319-46.812-13.152-72.076-15.79-31.461-3.278-54.247-7.915-84.43 1.959-13.59 4.597-26.503 1.959-40.695 1.959-14.15 0-41.894-5.917-54.247-8.515" fill="none" stroke="#000" stroke-width="1.0393701px" stroke-linecap="round" stroke-linejoin="round" stroke-miterlimit="4" stroke-dasharray="none" stroke-opacity="1"/><path d="M227.102 25.385c-1.239 13.192 13.552 17.15 29.582 16.51 15.431-.68 27.144 0 29.583-11.873 3.078-11.233-19.109-16.51-31.421-15.83-12.313.639-25.265 1.958-27.744 11.193" fill="none" stroke="#000" stroke-width="1.0393701px" stroke-linecap="round" stroke-linejoin="round" stroke-miterlimit="4" stroke-dasharray="none" stroke-opacity="1"/><path d="M229.66 17.43c0-2.599 2.44-4.598 4.918-3.918 2.438 0 4.277 2.598 3.678 5.237 0 2.598-2.439 4.557-4.917 3.917-2.439 0-4.318-2.598-3.678-5.237zM240.694 15.51c0-1.998 1.879-2.678 3.118-2.678 1.24 0 2.479 1.36 2.479 3.358-.6 1.32-1.84 2.639-3.078 1.999-1.88 0-2.519-1.36-2.519-2.678zM224.704 24.705c0-1.999 1.24-2.678 3.038-2.678 1.2 0 2.399 1.998 1.799 3.358 0 1.319-1.2 2.638-2.399 2.638-1.799-.64-2.438-1.999-2.438-3.318z" fill="#fff" fill-rule="evenodd" fill-opacity="1" stroke="none"/></svg>