<svg xmlns="http://www.w3.org/2000/svg" version="1.0" viewBox="0 0 315.553 539.112"><defs><clipPath clipPathUnits="userSpaceOnUse" id="a"><path d="M1.36.32h315.168v539.513H1.36z"/></clipPath></defs><path d="m123.405 49.45 19.668 3.818s-17.689.34-19.668-3.818z" fill="#fff" fill-rule="evenodd" fill-opacity="1" stroke="none"/><path d="M5.597 24.825s47.35 23.166 48.67 83.13c.34 13.691.66 65.24.66 65.24s-20.388 51.209-.32 110.493c-10.534 33.32-16.45 74.355-.34 116.79v30.86S50.33 490.264 1.96 503.596l25.664 5.257s43.094-14.012 44.413-77.853c0-7.716 3.298-18.25.34-29.822-6.916-27.703-19.748-42.075 0-116.79-10.214-38.936-10.873-56.465 0-111.192l-.34-59.264s4.598-53.668-34.879-83.49l-31.56-5.616z" fill="#eaa4c0" fill-rule="evenodd" fill-opacity="1" stroke="none"/><path d="M181.25 485.706s43.054-14.032 44.373-77.513c1-66.64 0-317.408 0-317.408s4.597-53.648-34.859-83.47L36.858 30.822c39.136 29.822 34.539 83.47 34.539 83.47s.32 15.43.32 39.976c0 32.98-18.39 81.03.36 130.12-5.597 22.787-19.749 68.759-.36 116.77 0 12.272 0 22.466-.32 30.182-1 63.84-44.413 77.832-44.413 77.832l154.266-23.465z" fill="#de85b3" fill-rule="evenodd" fill-opacity="1" stroke="none"/><path d="m72.516 173.255.16.16" fill="none" stroke="#333" stroke-width="1.9987886px" stroke-linecap="round" stroke-linejoin="round" stroke-miterlimit="4" stroke-dasharray="none" stroke-opacity="1"/><path clip-path="url(#a)" d="m37.237 30.482-31.6-5.617s47.41 23.166 48.73 83.13c.32 13.691.64 65.24.64 65.24s-20.408 51.209-.32 110.493c-10.534 33.32-16.47 74.355-.32 116.79v30.86s-3.958 58.925-52.368 72.257l25.684 5.257" fill="none" stroke="#333" stroke-width="1.9987886px" stroke-linecap="round" stroke-linejoin="round" stroke-miterlimit="4" stroke-dasharray="none" stroke-opacity="1"/><path d="M181.29 485.746s43.054-14.032 44.373-77.513c1-66.64 0-317.408 0-317.408s4.597-53.648-34.859-83.47L36.898 30.862c39.136 29.822 34.539 83.47 34.539 83.47s.32 15.43.32 39.975c0 32.98-18.39 81.031.36 130.122-5.597 22.786-19.749 68.758-.36 116.769 0 12.272 0 22.466-.32 30.182-1 63.84-44.413 77.832-44.413 77.832l154.266-23.465z" fill="none" stroke="#333" stroke-width="1.9987886px" stroke-linecap="round" stroke-linejoin="round" stroke-miterlimit="4" stroke-dasharray="none" stroke-opacity="1"/><path d="m7.156 24.825 31.34 6.636L190.725 7.316l-28.782-5.997L7.156 24.825z" fill="#f0dde6" fill-rule="evenodd" fill-opacity="1" stroke="none"/><path clip-path="url(#a)" d="m7.196 25.505 31.34 6.636L190.765 7.995 161.982 2 7.196 25.505z" fill="none" stroke="#333" stroke-width="1.9987886px" stroke-linecap="round" stroke-linejoin="round" stroke-miterlimit="4" stroke-dasharray="none" stroke-opacity="1"/><path d="m12.832 27.943 23.346 4.717s-17.75-.72-23.346-4.717zM38.497 27.943 180.25 7.316S48.73 21.307 38.497 27.943z" fill="#fff" fill-rule="evenodd" fill-opacity="1" stroke="none"/><path d="M136.597 53.568s-39.136 7.395-40.455 67.718c-.32 11.913-1.64 31.541-.68 55.407 14.152 28.063 16.47 66.28 0 110.133 13.512 22.786 22.067 80.671.36 115.73 0 23.866.32 42.095.32 42.095s-2.958 60.003 67.399 94.342l-40.775-6.995s-43.414-24.186-44.374-87.707c-.36-10.154-3.957-24.545-.36-41.015 7.596-34.38 14.832-60.324-.32-117.17 17.75-54.686 6.597-83.469.32-111.172.36-28.743.36-47.691.36-47.691s-7.595-48.77 31.901-78.592l26.304 4.917z" fill="#eaa4c0" fill-rule="evenodd" fill-opacity="1" stroke="none"/><path d="M314.81 512.89c-70.358-34.38-67.76-94.304-67.76-94.304s-1.319-262.96 0-323.284c1.32-60.323 38.177-66.64 38.177-66.64l-148.67 24.226s-39.496 7.355-40.815 67.639c-.32 11.593-.32 30.861-.32 54.007 17.11 54.687 10.194 80.312 0 114.65 20.068 72.957 0 84.51.32 113.972v40.655s-2.638 59.964 67.759 94.303l151.308-25.225z" fill="#de85b3" fill-rule="evenodd" fill-opacity="1" stroke="none"/><path clip-path="url(#a)" d="M96.182 444.69s-2.958 60.004 67.399 94.343l-40.775-6.995s-43.414-24.186-44.374-87.707c-.36-10.154-3.957-24.545-.36-41.015 7.596-34.38 14.832-60.324-.32-117.17 17.75-54.686 6.597-83.469.32-111.172.36-28.743.36-47.691.36-47.691s-7.595-48.77 31.901-78.593l26.304 4.918s-39.136 7.395-40.455 67.718c-.32 11.913-1.64 31.541-.68 55.407" fill="none" stroke="#333" stroke-width="1.9987886px" stroke-linecap="round" stroke-linejoin="round" stroke-miterlimit="4" stroke-dasharray="none" stroke-opacity="1"/><path clip-path="url(#a)" d="M314.85 512.93c-70.358-34.38-67.76-94.304-67.76-94.304s-1.319-262.96 0-323.284c1.32-60.323 38.177-66.64 38.177-66.64l-148.67 24.226s-39.496 7.355-40.815 67.639c-.32 11.593-.32 30.861-.32 54.007 17.11 54.687 10.194 80.312 0 114.65 20.068 72.957 0 84.51.32 113.972v40.655s-2.638 59.964 67.759 94.303l151.308-25.225z" fill="none" stroke="#333" stroke-width="1.9987886px" stroke-linecap="round" stroke-linejoin="round" stroke-miterlimit="4" stroke-dasharray="none" stroke-opacity="1"/><path d="m110.293 47.97 25.665 5.318 149.509-24.945-24.305-5.197-150.869 24.825z" fill="#f0dde6" fill-rule="evenodd" fill-opacity="1" stroke="none"/><path d="m110.333 48.01 25.665 5.318 149.509-24.945-24.305-5.197L110.333 48.01z" fill="none" stroke="#333" stroke-width="1.9987886px" stroke-linecap="round" stroke-linejoin="round" stroke-miterlimit="4" stroke-dasharray="none" stroke-opacity="1"/><path d="m137.237 50.41 138.396-22.787S147.79 43.413 137.237 50.41z" fill="#fff" fill-rule="evenodd" fill-opacity="1" stroke="none"/><path d="M97.101 175.634c1.32-6.996 7.216-12.253 14.072-12.253 7.855 0 14.39 6.996 14.39 15.39 0 8.396-6.535 15.391-14.39 15.391-4.238 0-8.175-2.098-10.794-5.237z" fill="#d34693" fill-rule="evenodd" fill-opacity="1" stroke="none"/><path d="M121.406 195.442c0-8.415 6.437-15.271 14.352-15.271 7.935 0 14.351 6.856 14.351 15.27 0 8.435-6.416 15.271-14.351 15.271-7.915 0-14.352-6.836-14.352-15.27z" fill="#d34693" fill-rule="evenodd" fill-opacity="1" stroke="none"/><path d="M146.111 212.111c0-8.474 6.437-15.39 14.312-15.39 7.915 0 14.311 6.916 14.311 15.39 0 8.515-6.396 15.391-14.311 15.391-7.875 0-14.312-6.876-14.312-15.39z" fill="#d34693" fill-rule="evenodd" fill-opacity="1" stroke="none"/><path d="M165.06 235.777c0-8.395 6.436-15.23 14.311-15.23 7.915 0 14.312 6.835 14.312 15.23 0 8.435-6.397 15.23-14.312 15.23-7.875 0-14.311-6.795-14.311-15.23zM191.684 249.249c0-8.515 6.436-15.43 14.351-15.43 7.955 0 14.351 6.915 14.351 15.43 0 8.555-6.396 15.43-14.35 15.43-7.916 0-14.352-6.875-14.352-15.43z" fill="#d34693" fill-rule="evenodd" fill-opacity="1" stroke="none"/><path d="M245.651 254.925c-2.598 3.518-6.876 5.597-11.153 5.597-7.835 0-14.431-6.636-14.431-15.07 0-8.795 6.596-15.471 14.43-15.471 3.958 0 7.556 1.759 10.195 4.597zM165.7 188.925c0-8.474 6.516-15.39 14.51-15.39 8.036 0 14.512 6.916 14.512 15.39 0 8.515-6.476 15.391-14.511 15.391-7.995 0-14.511-6.876-14.511-15.39z" fill="#d34693" fill-rule="evenodd" fill-opacity="1" stroke="none"/><path d="M192.723 176.133c0-8.395 6.516-15.23 14.471-15.23 7.996 0 14.472 6.835 14.472 15.23 0 8.435-6.476 15.231-14.472 15.231-7.955 0-14.47-6.796-14.47-15.23zM245.331 175.694c-2.598 2.798-6.236 4.877-10.473 4.877-7.876 0-14.152-6.996-14.152-15.431 0-8.395 6.276-15.43 14.152-15.43 3.917 0 7.555 1.758 10.154 4.596zM135.238 241.574c0-8.515 6.416-15.431 14.311-15.431 7.916 0 14.312 6.916 14.312 15.43 0 8.535-6.396 15.431-14.312 15.431-7.895 0-14.311-6.896-14.311-15.43z" fill="#d34693" fill-rule="evenodd" fill-opacity="1" stroke="none"/><path d="M116.13 264c0-8.535 6.416-15.47 14.31-15.47 7.916 0 14.312 6.935 14.312 15.47 0 8.555-6.396 15.47-14.311 15.47-7.895 0-14.311-6.915-14.311-15.47z" fill="#d34693" fill-rule="evenodd" fill-opacity="1" stroke="none"/><path d="M96.781 286.227c0-8.395 6.456-15.231 14.392-15.231 7.955 0 14.39 6.836 14.39 15.23 0 8.415-6.435 15.231-14.39 15.231-7.936 0-14.392-6.816-14.392-15.23zM98.14 405.634c0-8.515 6.457-15.43 14.392-15.43 7.955 0 14.391 6.915 14.391 15.43 0 8.535-6.436 15.43-14.391 15.43-7.935 0-14.391-6.895-14.391-15.43z" fill="#d34693" fill-rule="evenodd" fill-opacity="1" stroke="none"/><path d="M125.564 397.48c0-8.416 6.436-15.272 14.351-15.272 7.935 0 14.352 6.856 14.352 15.271 0 8.435-6.417 15.27-14.352 15.27-7.915 0-14.351-6.835-14.351-15.27z" fill="#d34693" fill-rule="evenodd" fill-opacity="1" stroke="none"/><path d="M141.714 372.494c0-8.395 6.436-15.23 14.351-15.23 7.956 0 14.352 6.835 14.352 15.23 0 8.435-6.396 15.231-14.352 15.231-7.915 0-14.35-6.796-14.35-15.23z" fill="#d34693" fill-rule="evenodd" fill-opacity="1" stroke="none"/><path d="M154.586 345.19c0-8.434 6.436-15.27 14.312-15.27 7.915 0 14.311 6.836 14.311 15.27 0 8.436-6.396 15.272-14.311 15.272-7.876 0-14.312-6.836-14.312-15.271z" fill="#d34693" fill-rule="evenodd" fill-opacity="1" stroke="none"/><path d="M176.093 325.363c0-8.515 6.396-15.43 14.232-15.43 7.875 0 14.231 6.915 14.231 15.43 0 8.555-6.356 15.43-14.231 15.43-7.836 0-14.232-6.875-14.232-15.43z" fill="#d34693" fill-rule="evenodd" fill-opacity="1" stroke="none"/><path d="M197.36 303.816c0-8.435 6.516-15.31 14.512-15.31 8.035 0 14.51 6.875 14.51 15.31 0 8.475-6.475 15.31-14.51 15.31-7.996 0-14.512-6.835-14.512-15.31z" fill="#d34693" fill-rule="evenodd" fill-opacity="1" stroke="none"/><path d="M245.731 300.498c-2.638 2.079-5.597 3.118-9.194 3.118-7.876 0-14.152-6.636-14.152-15.03 0-8.396 6.276-15.432 14.152-15.432 3.597 0 6.915 1.44 9.514 3.518z" fill="#d34693" fill-rule="evenodd" fill-opacity="1" stroke="none"/><path d="M97.141 173.735c0-8.475 6.456-15.351 14.391-15.351 7.956 0 14.392 6.876 14.392 15.35 0 8.496-6.436 15.351-14.392 15.351-7.935 0-14.39-6.855-14.39-15.35z" fill="#8ad7f9" fill-rule="evenodd" fill-opacity="1" stroke="none"/><path d="M97.141 173.735c0-8.475 6.456-15.351 14.391-15.351 7.956 0 14.392 6.876 14.392 15.35 0 8.496-6.436 15.351-14.392 15.351-7.935 0-14.39-6.855-14.39-15.35" fill="none" stroke="#333" stroke-width="1.9987886px" stroke-linecap="round" stroke-linejoin="round" stroke-miterlimit="4" stroke-dasharray="none" stroke-opacity="1"/><path d="M112.192 160.942c-4.617-.36-8.915 2.799-10.574 7.336-.999 3.158-.999 6.996 1.32 9.454 3.637 3.478 3.977-2.798 5.616-4.897 2.319-3.158 9.574-2.798 8.255-8.055-.66-2.099-2.958-3.498-4.617-3.498z" fill="#afe5f9" fill-rule="evenodd" fill-opacity="1" stroke="none"/><path d="M113.091 161.942s-7.235-.72-10.533 4.217c-3.298 5.257-2.958 9.475-1.64 13.692 0 0-1.658-15.81 12.173-17.91z" fill="#fff" fill-rule="evenodd" fill-opacity="1" stroke="none"/><path d="M108.934 162.621c0-.58.52-1.079 1.16-1.079.659 0 1.159.5 1.159 1.08 0 .6-.5 1.079-1.16 1.079-.64 0-1.159-.48-1.159-1.08zM112.132 161.622c0-.38.36-.72.8-.72.46 0 .8.34.8.72 0 .4-.34.72-.8.72-.44 0-.8-.32-.8-.72z" fill="#fff" fill-rule="evenodd" fill-opacity="1" stroke="none"/><path d="M103.277 184.068c1 0 1.66 1.06 2.319 1.42.98.7 1.979.7 2.958 1.059 1.999.34 3.978.34 5.957 0 1.978-.36 3.957-1.779 4.957-3.538.979-1.759.32-2.478-1.66-1.759-3.297 1.06-5.936 1.76-9.574 1.06-.999-.36-4.957-2.14-5.296.34l.34.719z" fill="#64b3f4" fill-rule="evenodd" fill-opacity="1" stroke="none"/><path d="M121.766 190.405c0-8.535 6.516-15.471 14.511-15.471 8.016 0 14.512 6.936 14.512 15.47 0 8.555-6.496 15.471-14.512 15.471-7.995 0-14.51-6.916-14.51-15.47z" fill="#8ad7f9" fill-rule="evenodd" fill-opacity="1" stroke="none"/><path d="M121.766 190.405c0-8.535 6.516-15.471 14.511-15.471 8.016 0 14.512 6.936 14.512 15.47 0 8.555-6.496 15.471-14.512 15.471-7.995 0-14.51-6.916-14.51-15.47" fill="none" stroke="#333" stroke-width="1.9987886px" stroke-linecap="round" stroke-linejoin="round" stroke-miterlimit="4" stroke-dasharray="none" stroke-opacity="1"/><path d="M136.817 177.373c-4.617 0-9.254 3.158-10.574 7.715-.999 3.158-.999 6.656 1.32 9.094 3.637 3.498 3.977-2.438 5.616-4.537 2.319-3.158 9.255-2.818 8.275-8.415-.66-1.739-2.978-3.498-4.637-3.498z" fill="#afe5f9" fill-rule="evenodd" fill-opacity="1" stroke="none"/><path d="M137.876 178.732s-7.195-.72-10.473 4.217c-3.278 4.937-3.278 9.514-1.64 13.372 0 0-1.638-15.83 12.113-17.59z" fill="#fff" fill-rule="evenodd" fill-opacity="1" stroke="none"/><path d="M133.56 179.451c0-.6.519-1.12 1.158-1.12.66 0 1.16.52 1.16 1.12 0 .62-.5 1.12-1.16 1.12-.64 0-1.159-.5-1.159-1.12zM136.917 178.292c0-.5.34-.92.76-.92s.76.42.76.92c0 .52-.34.92-.76.92s-.76-.4-.76-.92z" fill="#fff" fill-rule="evenodd" fill-opacity="1" stroke="none"/><path d="M127.902 200.538c1 .36 1.32 1.06 2.32 1.76.978.34 1.978.699 2.957.699 2 .34 3.978.68 5.957 0 1.978-.36 3.957-1.4 4.957-3.158.98-1.74 0-2.798-1.66-2.099-3.297 1.4-5.936 2.099-9.574 1.06-.999-.36-4.957-1.76-5.296.34 0 .36.34.699.34 1.059z" fill="#64b3f4" fill-rule="evenodd" fill-opacity="1" stroke="none"/><path d="M146.471 207.035c0-8.435 6.436-15.311 14.312-15.311 7.915 0 14.31 6.876 14.31 15.31 0 8.475-6.395 15.311-14.31 15.311-7.876 0-14.312-6.836-14.312-15.31z" fill="#8ad7f9" fill-rule="evenodd" fill-opacity="1" stroke="none"/><path d="M146.471 207.035c0-8.435 6.436-15.311 14.312-15.311 7.915 0 14.31 6.876 14.31 15.31 0 8.475-6.395 15.311-14.31 15.311-7.876 0-14.312-6.836-14.312-15.31" fill="none" stroke="#333" stroke-width="1.9987886px" stroke-linecap="round" stroke-linejoin="round" stroke-miterlimit="4" stroke-dasharray="none" stroke-opacity="1"/><path d="M161.502 194.202c-4.577-.36-9.174 2.819-10.474 7.376-.979 3.158-1.319 7.016 1.3 9.474 3.617 3.498 3.937-2.818 5.256-4.917 2.28-3.158 9.475-2.798 8.176-8.075-.32-2.099-2.619-3.498-4.258-3.498z" fill="#afe5f9" fill-rule="evenodd" fill-opacity="1" stroke="none"/><path d="M162.581 195.282s-7.235-.72-10.533 4.217c-3.298 4.917-3.298 9.474-1.979 13.692 0 0-1.32-15.81 12.512-17.91z" fill="#fff" fill-rule="evenodd" fill-opacity="1" stroke="none"/><path d="M158.264 195.961c0-.58.52-1.08 1.16-1.08.659 0 1.159.5 1.159 1.08 0 .6-.5 1.08-1.16 1.08-.64 0-1.159-.48-1.159-1.08zM161.542 194.922c0-.42.38-.76.84-.76.48 0 .84.34.84.76s-.36.76-.84.76c-.46 0-.84-.34-.84-.76z" fill="#fff" fill-rule="evenodd" fill-opacity="1" stroke="none"/><path d="M152.627 217.388c.64 0 1.32 1.04 1.96 1.4.999.679 1.958.679 3.277 1.039 2 .32 3.958.32 5.917 0 1.999-.36 3.638-1.76 4.957-3.518.96-1.72 0-2.439-1.64-2.079-3.317 1.4-6.275 2.079-9.553 1.4-1.32-.36-5.277-2.12-5.277.36l.36.679z" fill="#64b3f4" fill-rule="evenodd" fill-opacity="1" stroke="none"/><path d="M165.42 230.7c0-8.515 6.516-15.47 14.511-15.47 8.035 0 14.511 6.955 14.511 15.47 0 8.555-6.476 15.47-14.511 15.47-7.995 0-14.511-6.915-14.511-15.47z" fill="#8ad7f9" fill-rule="evenodd" fill-opacity="1" stroke="none"/><path d="M165.42 230.7c0-8.515 6.516-15.47 14.511-15.47 8.035 0 14.511 6.955 14.511 15.47 0 8.555-6.476 15.47-14.511 15.47-7.995 0-14.511-6.915-14.511-15.47" fill="none" stroke="#333" stroke-width="1.9987886px" stroke-linecap="round" stroke-linejoin="round" stroke-miterlimit="4" stroke-dasharray="none" stroke-opacity="1"/><path d="M180.65 218.028c-4.637-.36-9.274 2.798-10.593 7.355-1 3.158-1 6.636 1.32 9.075 3.637 3.838 3.997-2.439 5.636-4.517 2.318-3.158 9.234-2.799 8.275-8.395-.68-1.76-2.998-3.518-4.637-3.518z" fill="#afe5f9" fill-rule="evenodd" fill-opacity="1" stroke="none"/><path d="M181.53 219.027s-7.236-.72-10.514 4.238c-3.318 4.957-3.318 9.554-1.639 13.432 0 0-1.679-15.91 12.153-17.67z" fill="#fff" fill-rule="evenodd" fill-opacity="1" stroke="none"/><path d="M177.213 219.867c0-.52.52-1 1.159-1 .64 0 1.16.48 1.16 1 0 .56-.52 1-1.16 1-.64 0-1.16-.44-1.16-1zM180.57 218.747c0-.4.4-.76.84-.76.48 0 .84.36.84.76 0 .44-.36.76-.84.76-.44 0-.84-.32-.84-.76z" fill="#fff" fill-rule="evenodd" fill-opacity="1" stroke="none"/><path d="M171.736 240.854c1 .36 1.32 1.4 2.319 1.759.959.32 1.958.68 2.958 1.04 1.999 0 3.957.32 5.956 0 1.959-.72 3.958-1.76 4.957-3.519.96-1.718 0-2.798-1.679-2.078-3.278 1.399-5.916 2.078-9.554 1.04-1 0-4.957-1.76-5.317.359 0 .36.36.68.36 1.04z" fill="#64b3f4" fill-rule="evenodd" fill-opacity="1" stroke="none"/><path d="M192.124 244.292c0-8.395 6.436-15.23 14.31-15.23 7.916 0 14.312 6.835 14.312 15.23 0 8.435-6.396 15.23-14.311 15.23-7.875 0-14.311-6.795-14.311-15.23z" fill="#8ad7f9" fill-rule="evenodd" fill-opacity="1" stroke="none"/><path d="M192.124 244.292c0-8.395 6.436-15.23 14.31-15.23 7.916 0 14.312 6.835 14.312 15.23 0 8.435-6.396 15.23-14.311 15.23-7.875 0-14.311-6.795-14.311-15.23" fill="none" stroke="#333" stroke-width="1.9987886px" stroke-linecap="round" stroke-linejoin="round" stroke-miterlimit="4" stroke-dasharray="none" stroke-opacity="1"/><path d="M207.274 231.38c-4.637-.36-9.234 2.798-10.553 7.355-1 3.158-1.36 6.996 1.319 9.435 3.598 3.477 3.958-2.799 5.277-4.877 2.318-3.159 9.554-2.799 8.235-8.076-.32-2.078-2.639-3.477-4.597-3.477z" fill="#afe5f9" fill-rule="evenodd" fill-opacity="1" stroke="none"/><path d="M208.234 232.38s-7.236-.72-10.514 4.237c-3.278 4.917-3.278 9.474-1.959 13.671 0 0-1.679-16.15 12.473-17.909z" fill="#fff" fill-rule="evenodd" fill-opacity="1" stroke="none"/><path d="M203.836 233.139c0-.52.56-1 1.2-1 .68 0 1.199.48 1.199 1 0 .56-.52 1-1.2 1-.639 0-1.199-.44-1.199-1zM207.194 232.1c0-.4.32-.76.68-.76.4 0 .68.36.68.76 0 .44-.28.759-.68.759-.36 0-.68-.32-.68-.76z" fill="#fff" fill-rule="evenodd" fill-opacity="1" stroke="none"/><path d="M198.44 254.566c.64 0 1.319 1.04 1.959 1.399.999.68 1.958.68 3.278 1.04 1.998.32 3.637.32 5.916 0 1.679-.36 3.638-1.76 4.957-3.519.96-1.719 0-2.438-1.639-2.078-3.318 1.399-6.276 2.078-9.874 1.399-1-.36-4.957-2.119-4.957.36 0 0 0 .68.36.68z" fill="#64b3f4" fill-rule="evenodd" fill-opacity="1" stroke="none"/><path d="M220.426 240.214c0-8.514 6.516-15.47 14.472-15.47 7.995 0 14.47 6.956 14.47 15.47 0 8.555-6.475 15.471-14.47 15.471-7.956 0-14.472-6.916-14.472-15.47z" fill="#8ad7f9" fill-rule="evenodd" fill-opacity="1" stroke="none"/><path d="M220.426 240.214c0-8.514 6.516-15.47 14.472-15.47 7.995 0 14.47 6.956 14.47 15.47 0 8.555-6.475 15.471-14.47 15.471-7.956 0-14.472-6.916-14.472-15.47" fill="none" stroke="#333" stroke-width="1.9987886px" stroke-linecap="round" stroke-linejoin="round" stroke-miterlimit="4" stroke-dasharray="none" stroke-opacity="1"/><path d="M235.617 227.542c-4.637-.36-9.234 2.798-10.553 7.356-1 3.158-1 6.636 1.319 9.074 3.638 3.838 3.957-2.438 5.596-4.517 2.319-3.158 9.195-2.798 8.235-8.395-.68-1.759-2.958-3.518-4.597-3.518z" fill="#afe5f9" fill-rule="evenodd" fill-opacity="1" stroke="none"/><path d="M236.537 228.541s-7.236-.72-10.514 4.238c-3.318 4.917-3.318 9.514-1.639 13.352 0 0-1.679-15.83 12.153-17.59z" fill="#fff" fill-rule="evenodd" fill-opacity="1" stroke="none"/><path d="M232.22 229.221c0-.56.519-1.08 1.159-1.08s1.159.52 1.159 1.08c0 .6-.52 1.08-1.16 1.08-.639 0-1.159-.48-1.159-1.08zM235.497 228.262c0-.4.4-.76.84-.76.48 0 .84.36.84.76 0 .44-.36.76-.84.76-.44 0-.84-.32-.84-.76z" fill="#fff" fill-rule="evenodd" fill-opacity="1" stroke="none"/><path d="M226.743 250.368c.959.36 1.279 1.4 2.278 1.76.96.319 1.959.679 2.918 1.039 1.96 0 3.918.32 5.877 0 1.959-.72 3.917-1.76 4.877-3.518.96-1.72 0-2.799-1.64-2.079-3.237 1.4-5.836 2.079-9.433 1.04-1 0-5.237-1.76-5.237.36 0 .359.36.679.36 1.038z" fill="#64b3f4" fill-rule="evenodd" fill-opacity="1" stroke="none"/><path d="M166.14 183.929c0-8.435 6.515-15.311 14.47-15.311 7.996 0 14.472 6.876 14.472 15.31 0 8.475-6.476 15.311-14.471 15.311-7.956 0-14.472-6.836-14.472-15.31z" fill="#8ad7f9" fill-rule="evenodd" fill-opacity="1" stroke="none"/><path d="M166.14 183.929c0-8.435 6.515-15.311 14.47-15.311 7.996 0 14.472 6.876 14.472 15.31 0 8.475-6.476 15.311-14.471 15.311-7.956 0-14.472-6.836-14.472-15.31" fill="none" stroke="#333" stroke-width="1.9987886px" stroke-linecap="round" stroke-linejoin="round" stroke-miterlimit="4" stroke-dasharray="none" stroke-opacity="1"/><path d="M181.29 171.096c-4.637-.36-9.274 2.799-10.593 7.716-1 2.798-1 6.636 1.319 9.074 3.638 3.478 3.957-2.798 5.636-4.557 2.319-3.478 9.555-3.118 8.235-8.395-.64-2.079-2.958-3.478-4.597-3.478z" fill="#afe5f9" fill-rule="evenodd" fill-opacity="1" stroke="none"/><path d="M182.25 172.056s-7.236-.36-10.514 4.597c-3.318 4.917-2.958 9.154-1.64 13.352 0 0-1.678-15.83 12.154-17.95z" fill="#fff" fill-rule="evenodd" fill-opacity="1" stroke="none"/><path d="M177.852 172.775c0-.56.56-1.08 1.2-1.08.68 0 1.199.52 1.199 1.08 0 .6-.52 1.08-1.2 1.08-.64 0-1.199-.48-1.199-1.08zM181.21 171.976c0-.48.4-.92.84-.92.48 0 .84.44.84.92 0 .52-.36.92-.84.92-.44 0-.84-.4-.84-.92z" fill="#fff" fill-rule="evenodd" fill-opacity="1" stroke="none"/><path d="M172.455 194.242c.96.36 1.64 1.04 2.28 1.4.998.679 1.998 1.039 2.957 1.039 2 .36 3.958.68 5.917 0 1.999-.36 3.957-1.4 4.957-3.478.96-1.759.32-2.479-1.64-1.759-3.317 1.04-5.916 2.079-9.553 1.04-1-.36-4.918-1.76-5.277.36 0 .359.36.679.36 1.038z" fill="#64b3f4" fill-rule="evenodd" fill-opacity="1" stroke="none"/><path d="M193.083 171.176c0-8.515 6.516-15.43 14.511-15.43 8.035 0 14.511 6.915 14.511 15.43 0 8.555-6.476 15.43-14.51 15.43-7.996 0-14.512-6.875-14.512-15.43z" fill="#8ad7f9" fill-rule="evenodd" fill-opacity="1" stroke="none"/><path d="M193.083 171.176c0-8.515 6.516-15.43 14.511-15.43 8.035 0 14.511 6.915 14.511 15.43 0 8.555-6.476 15.43-14.51 15.43-7.996 0-14.512-6.875-14.512-15.43" fill="none" stroke="#333" stroke-width="1.9987886px" stroke-linecap="round" stroke-linejoin="round" stroke-miterlimit="4" stroke-dasharray="none" stroke-opacity="1"/><path d="M208.314 158.384c-4.318-.36-8.915 2.838-10.594 7.436-1 3.198-1 7.075 1.32 9.194 3.637 3.878 4.317-2.479 5.636-4.597 2.319-3.158 9.554-2.839 8.235-8.475-.64-1.76-2.958-3.198-4.597-3.558z" fill="#afe5f9" fill-rule="evenodd" fill-opacity="1" stroke="none"/><path d="M209.193 159.623s-7.235-.72-10.513 4.198c-3.318 4.877-2.959 9.394-1.64 13.552 0 0-1.678-16.03 12.153-17.75z" fill="#fff" fill-rule="evenodd" fill-opacity="1" stroke="none"/><path d="M204.876 160.223c0-.52.52-1 1.16-1 .639 0 1.158.48 1.158 1 0 .56-.52 1-1.159 1-.64 0-1.16-.44-1.16-1zM208.234 159.104c0-.4.36-.76.8-.76.479 0 .799.36.799.76 0 .44-.32.76-.8.76-.44 0-.8-.32-.8-.76z" fill="#fff" fill-rule="evenodd" fill-opacity="1" stroke="none"/><path d="M199.4 181.21c.999.36 1.638 1.4 2.318 1.76.96.679 1.959.679 2.958 1.038 1.999.32 3.958.32 5.956 0 1.96-.72 3.958-1.758 4.957-3.517.96-1.72.32-2.799-1.679-2.08-3.278 1.4-5.916 2.08-9.554 1.04-1 0-4.957-1.759-5.317.36 0 .36.36.68.36 1.04z" fill="#64b3f4" fill-rule="evenodd" fill-opacity="1" stroke="none"/><path d="M221.066 160.023c0-8.395 6.436-15.23 14.311-15.23 7.916 0 14.312 6.835 14.312 15.23 0 8.435-6.396 15.23-14.312 15.23-7.875 0-14.311-6.795-14.311-15.23z" fill="#8ad7f9" fill-rule="evenodd" fill-opacity="1" stroke="none"/><path d="M221.066 160.023c0-8.395 6.436-15.23 14.311-15.23 7.916 0 14.312 6.835 14.312 15.23 0 8.435-6.396 15.23-14.312 15.23-7.875 0-14.311-6.795-14.311-15.23" fill="none" stroke="#333" stroke-width="1.9987886px" stroke-linecap="round" stroke-linejoin="round" stroke-miterlimit="4" stroke-dasharray="none" stroke-opacity="1"/><path d="M236.257 147.27c-4.637-.359-9.235 2.799-10.554 7.356-.96 3.158-1.319 6.996 1.32 9.075 3.637 3.837 3.957-2.439 5.276-4.517 2.279-3.159 9.514-2.799 8.235-8.076-.36-2.078-2.638-3.477-4.277-3.477z" fill="#afe5f9" fill-rule="evenodd" fill-opacity="1" stroke="none"/><path d="M237.176 148.27s-7.235-.72-10.513 4.238c-3.278 4.917-3.278 9.474-1.96 13.671 0 0-1.678-16.15 12.473-17.909z" fill="#fff" fill-rule="evenodd" fill-opacity="1" stroke="none"/><path d="M232.859 148.95c0-.56.52-1.08 1.16-1.08.639 0 1.158.52 1.158 1.08 0 .6-.52 1.08-1.159 1.08-.64 0-1.16-.48-1.16-1.08zM236.217 147.91c0-.36.32-.68.64-.68.36 0 .64.32.64.68 0 .4-.28.68-.64.68-.32 0-.64-.28-.64-.68z" fill="#fff" fill-rule="evenodd" fill-opacity="1" stroke="none"/><path d="M227.382 170.457c.64 0 1.28 1.04 1.959 1.399.96.68 1.959.68 3.278 1.04 1.959.319 3.598.319 5.876 0 1.96-.36 3.598-1.76 4.917-3.519.96-1.719 0-2.438-1.639-2.078-3.278 1.399-6.236 2.078-9.514 1.399-1.279-.36-5.237-2.119-5.237 0 0 .36 0 1.04.36 1.04z" fill="#64b3f4" fill-rule="evenodd" fill-opacity="1" stroke="none"/><path d="M135.598 236.457c0-8.395 6.476-15.231 14.431-15.231 7.975 0 14.431 6.836 14.431 15.23 0 8.416-6.456 15.231-14.43 15.231-7.956 0-14.432-6.815-14.432-15.23z" fill="#8ad7f9" fill-rule="evenodd" fill-opacity="1" stroke="none"/><path d="M135.598 236.457c0-8.395 6.476-15.231 14.431-15.231 7.975 0 14.431 6.836 14.431 15.23 0 8.416-6.456 15.231-14.43 15.231-7.956 0-14.432-6.815-14.432-15.23" fill="none" stroke="#333" stroke-width="1.9987886px" stroke-linecap="round" stroke-linejoin="round" stroke-miterlimit="4" stroke-dasharray="none" stroke-opacity="1"/><path d="M150.649 223.704c-4.618-.36-9.255 2.799-10.574 7.336-1 3.158-1 6.996 1.32 9.454 3.637 3.478 3.977-2.798 5.616-4.897 2.319-3.158 9.254-2.798 8.275-8.055-.66-2.099-2.978-3.498-4.637-3.498z" fill="#afe5f9" fill-rule="evenodd" fill-opacity="1" stroke="none"/><path d="M151.548 224.704s-7.156-.72-10.414 4.237c-3.258 4.937-3.258 9.534-1.619 13.752 0 0-1.639-15.87 12.033-17.99z" fill="#fff" fill-rule="evenodd" fill-opacity="1" stroke="none"/><path d="M147.39 225.423c0-.6.52-1.119 1.16-1.119.66 0 1.16.52 1.16 1.12 0 .619-.5 1.119-1.16 1.119-.64 0-1.16-.5-1.16-1.12zM150.749 224.344c0-.36.34-.68.76-.68.419 0 .759.32.759.68 0 .38-.34.68-.76.68s-.76-.3-.76-.68z" fill="#fff" fill-rule="evenodd" fill-opacity="1" stroke="none"/><path d="M141.734 246.87c1 0 1.32 1.04 2.319 1.4.98.7 1.978.7 2.958 1.039 1.999.34 3.977.34 5.956 0 1.98-.34 3.958-1.739 4.957-3.498.98-1.739 0-2.439-1.659-2.099-3.298 1.4-5.936 2.099-9.574 1.4-1-.34-4.957-2.1-5.297.36l.34.699z" fill="#64b3f4" fill-rule="evenodd" fill-opacity="1" stroke="none"/><path d="M116.49 258.923c0-8.395 6.416-15.23 14.31-15.23 7.916 0 14.312 6.835 14.312 15.23 0 8.415-6.396 15.23-14.311 15.23-7.895 0-14.312-6.815-14.312-15.23z" fill="#8ad7f9" fill-rule="evenodd" fill-opacity="1" stroke="none"/><path d="M116.49 258.923c0-8.395 6.416-15.23 14.31-15.23 7.916 0 14.312 6.835 14.312 15.23 0 8.415-6.396 15.23-14.311 15.23-7.895 0-14.312-6.815-14.312-15.23" fill="none" stroke="#333" stroke-width="1.9987886px" stroke-linecap="round" stroke-linejoin="round" stroke-miterlimit="4" stroke-dasharray="none" stroke-opacity="1"/><path d="M131.62 246.17c-4.617-.359-9.234 2.82-10.553 7.376-1 3.158-1.34 7.016 1.319 9.115 3.638 3.857 3.957-2.459 5.277-4.557 2.318-3.159 9.574-2.799 8.255-8.415-.32-1.76-2.639-3.158-4.618-3.158z" fill="#afe5f9" fill-rule="evenodd" fill-opacity="1" stroke="none"/><path d="M132.6 247.23s-7.236-.7-10.514 4.198c-3.298 4.877-3.298 9.394-1.979 13.571 0 0-1.659-16.01 12.493-17.769z" fill="#fff" fill-rule="evenodd" fill-opacity="1" stroke="none"/><path d="M127.882 247.93c0-.58.62-1.08 1.36-1.08.76 0 1.359.5 1.359 1.08 0 .6-.6 1.08-1.36 1.08-.739 0-1.359-.48-1.359-1.08zM131.56 246.81a.7.7 0 0 1 .68-.68c.38 0 .68.32.68.68 0 .38-.3.68-.68.68-.36 0-.68-.3-.68-.68z" fill="#fff" fill-rule="evenodd" fill-opacity="1" stroke="none"/><path d="M122.786 269.337c.64 0 1.299 1.04 1.958 1.399.96.7 1.94.7 2.919 1.04 2.278.34 3.917.34 5.876 0 1.959-.34 3.898-1.74 5.217-3.499.96-1.739 0-2.798-1.64-2.098-3.257 1.399-6.195 2.098-9.773 1.399-.98-.34-4.897-2.099-4.897 0 0 .36 0 .7.34 1.06z" fill="#64b3f4" fill-rule="evenodd" fill-opacity="1" stroke="none"/><path d="M97.141 281.27c0-8.515 6.456-15.431 14.391-15.431 7.956 0 14.392 6.916 14.392 15.43 0 8.535-6.436 15.431-14.392 15.431-7.935 0-14.39-6.896-14.39-15.43z" fill="#8ad7f9" fill-rule="evenodd" fill-opacity="1" stroke="none"/><path d="M97.141 281.27c0-8.515 6.456-15.431 14.391-15.431 7.956 0 14.392 6.916 14.392 15.43 0 8.535-6.436 15.431-14.392 15.431-7.935 0-14.39-6.896-14.39-15.43" fill="none" stroke="#333" stroke-width="1.9987886px" stroke-linecap="round" stroke-linejoin="round" stroke-miterlimit="4" stroke-dasharray="none" stroke-opacity="1"/><path d="M112.192 268.477c-4.617-.36-8.915 2.839-10.574 7.436-.999 3.178-.999 7.075 1.32 9.194 3.637 3.878 3.977-2.478 5.616-4.597 2.319-3.178 9.574-2.838 8.255-8.495-.66-1.759-2.958-3.178-4.617-3.538z" fill="#afe5f9" fill-rule="evenodd" fill-opacity="1" stroke="none"/><path d="M113.091 269.697s-7.235-.7-10.533 4.197c-3.298 4.877-2.958 9.394-1.64 13.572 0 0-1.658-16.01 12.173-17.77z" fill="#fff" fill-rule="evenodd" fill-opacity="1" stroke="none"/><path d="M108.934 270.316c0-.54.52-1 1.16-1 .659 0 1.159.46 1.159 1 0 .56-.5 1-1.16 1-.64 0-1.159-.44-1.159-1zM112.132 269.237c0-.38.36-.72.8-.72.46 0 .8.34.8.72 0 .4-.34.72-.8.72-.44 0-.8-.32-.8-.72z" fill="#fff" fill-rule="evenodd" fill-opacity="1" stroke="none"/><path d="M103.277 291.323c1 .36 1.66 1.42 2.319 1.78.98.699 1.979.699 2.958 1.059 1.999.34 3.978.34 5.957 0 1.978-.72 3.957-1.78 4.957-3.538.979-1.76.32-2.838-1.66-2.119-3.297 1.42-5.936 2.119-9.574 1.06-.999 0-4.957-1.78-5.296.36 0 .34.34.699.34 1.059z" fill="#64b3f4" fill-rule="evenodd" fill-opacity="1" stroke="none"/><path d="M98.5 400.677c0-8.395 6.456-15.23 14.392-15.23 7.955 0 14.39 6.835 14.39 15.23 0 8.415-6.435 15.23-14.39 15.23-7.936 0-14.392-6.815-14.392-15.23z" fill="#8ad7f9" fill-rule="evenodd" fill-opacity="1" stroke="none"/><path d="M98.5 400.677c0-8.395 6.456-15.23 14.392-15.23 7.955 0 14.39 6.835 14.39 15.23 0 8.415-6.435 15.23-14.39 15.23-7.936 0-14.392-6.815-14.392-15.23" fill="none" stroke="#333" stroke-width="1.9987886px" stroke-linecap="round" stroke-linejoin="round" stroke-miterlimit="4" stroke-dasharray="none" stroke-opacity="1"/><path d="M113.471 387.765c-4.617-.36-9.254 2.798-10.573 7.336-1 3.158-1 6.995 1.319 9.094 3.638 3.838 3.977-2.438 5.616-4.537 2.319-3.158 9.575-2.799 8.255-8.395-.66-1.76-2.958-3.158-4.617-3.158z" fill="#afe5f9" fill-rule="evenodd" fill-opacity="1" stroke="none"/><path d="M114.45 388.764s-7.235-.72-10.533 4.238c-3.298 4.937-3.298 9.534-1.639 13.751 0 0-1.659-16.23 12.173-17.989z" fill="#fff" fill-rule="evenodd" fill-opacity="1" stroke="none"/><path d="M110.293 389.524c0-.58.5-1.08 1.08-1.08.6 0 1.079.5 1.079 1.08 0 .6-.48 1.08-1.08 1.08-.58 0-1.079-.48-1.079-1.08zM113.411 388.485c0-.42.38-.76.84-.76.48 0 .84.34.84.76s-.36.76-.84.76c-.46 0-.84-.34-.84-.76z" fill="#fff" fill-rule="evenodd" fill-opacity="1" stroke="none"/><path d="M104.637 410.93c.979 0 1.639 1.04 2.298 1.4.98.7 1.979.7 2.958 1.04 1.98.34 3.958.34 5.917 0 1.979-.34 3.957-1.74 4.937-3.498.98-1.74.34-2.799-1.64-2.1-3.297 1.4-5.916 2.1-9.533 1.4-1-.34-4.937-2.099-5.277 0 0 .36.34.7.34 1.06z" fill="#64b3f4" fill-rule="evenodd" fill-opacity="1" stroke="none"/><path d="M125.924 392.362c0-8.495 6.436-15.39 14.351-15.39 7.935 0 14.351 6.895 14.351 15.39 0 8.515-6.416 15.39-14.351 15.39-7.915 0-14.351-6.875-14.351-15.39z" fill="#8ad7f9" fill-rule="evenodd" fill-opacity="1" stroke="none"/><path d="M125.924 392.362c0-8.495 6.436-15.39 14.351-15.39 7.935 0 14.351 6.895 14.351 15.39 0 8.515-6.416 15.39-14.351 15.39-7.915 0-14.351-6.875-14.351-15.39" fill="none" stroke="#333" stroke-width="1.9987886px" stroke-linecap="round" stroke-linejoin="round" stroke-miterlimit="4" stroke-dasharray="none" stroke-opacity="1"/><path d="M141.134 379.77c-4.617-.36-9.234 2.798-10.553 7.355-1 3.158-1.34 6.656 1.32 9.095 3.637 3.498 3.957-2.439 5.276-4.537 2.318-3.158 9.574-2.819 8.255-8.415-.32-1.74-2.639-3.498-4.298-3.498z" fill="#afe5f9" fill-rule="evenodd" fill-opacity="1" stroke="none"/><path d="M142.114 380.75s-7.236-.7-10.534 4.197c-3.298 4.877-3.298 9.414-1.979 13.252 0 0-1.319-15.69 12.513-17.45z" fill="#fff" fill-rule="evenodd" fill-opacity="1" stroke="none"/><path d="M137.876 381.529c0-.58.52-1.08 1.12-1.08.62 0 1.12.5 1.12 1.08 0 .6-.5 1.08-1.12 1.08-.6 0-1.12-.48-1.12-1.08zM141.075 380.41a.7.7 0 0 1 .68-.68c.379 0 .679.32.679.68 0 .38-.3.679-.68.679-.36 0-.68-.3-.68-.68z" fill="#fff" fill-rule="evenodd" fill-opacity="1" stroke="none"/><path d="M132.22 402.576c.66.36 1.32 1.06 1.979 1.759 1 .34 1.978.7 3.298.7 1.998.34 3.977.68 5.956.34 1.979-.7 3.638-1.74 4.957-3.499.98-1.739 0-2.798-1.659-2.098-3.298 1.399-6.276 2.098-9.574 1.06-1.32-.36-5.297-1.76-5.297.339 0 .36.34.7.34 1.06z" fill="#64b3f4" fill-rule="evenodd" fill-opacity="1" stroke="none"/><path d="M142.154 367.537c0-8.515 6.436-15.43 14.311-15.43 7.915 0 14.311 6.915 14.311 15.43 0 8.555-6.396 15.43-14.31 15.43-7.876 0-14.312-6.875-14.312-15.43z" fill="#8ad7f9" fill-rule="evenodd" fill-opacity="1" stroke="none"/><path d="M142.154 367.537c0-8.515 6.436-15.43 14.311-15.43 7.915 0 14.311 6.915 14.311 15.43 0 8.555-6.396 15.43-14.31 15.43-7.876 0-14.312-6.875-14.312-15.43" fill="none" stroke="#333" stroke-width="1.9987886px" stroke-linecap="round" stroke-linejoin="round" stroke-miterlimit="4" stroke-dasharray="none" stroke-opacity="1"/><path d="M157.285 354.825c-4.618-.36-9.235 2.798-10.554 7.336-1 3.158-1.34 6.655 1.32 9.094 3.637 3.838 3.957-2.439 5.276-4.537 2.319-3.158 9.574-2.799 8.255-8.395-.32-1.76-2.638-3.158-4.297-3.498z" fill="#afe5f9" fill-rule="evenodd" fill-opacity="1" stroke="none"/><path d="M158.264 355.824s-7.236-.72-10.534 4.218c-3.298 4.917-3.298 9.474-1.978 13.691 0 0-1.32-16.15 12.512-17.909z" fill="#fff" fill-rule="evenodd" fill-opacity="1" stroke="none"/><path d="M153.867 356.584c0-.54.54-1 1.199-1 .68 0 1.2.46 1.2 1 0 .56-.52 1-1.2 1-.66 0-1.2-.44-1.2-1zM157.225 355.505c0-.38.32-.72.68-.72.38 0 .679.34.679.72 0 .4-.3.72-.68.72-.36 0-.68-.32-.68-.72z" fill="#fff" fill-rule="evenodd" fill-opacity="1" stroke="none"/><path d="M148.45 377.591c.64.36 1.3 1.42 1.959 1.78.96.339 1.939.699 3.258 1.058 1.939 0 3.578.34 5.856 0 1.96-.72 3.578-1.778 4.897-3.537.96-1.76 0-2.839-1.639-2.12-3.258 1.42-6.196 2.12-9.454 1.06-1.3 0-5.217-1.779-5.217.36 0 .34.34.7.34 1.06z" fill="#64b3f4" fill-rule="evenodd" fill-opacity="1" stroke="none"/><path d="M154.946 340.154c0-8.515 6.516-15.47 14.471-15.47 7.995 0 14.472 6.955 14.472 15.47 0 8.555-6.477 15.47-14.472 15.47-7.955 0-14.47-6.915-14.47-15.47z" fill="#8ad7f9" fill-rule="evenodd" fill-opacity="1" stroke="none"/><path d="M154.946 340.154c0-8.515 6.516-15.47 14.471-15.47 7.995 0 14.472 6.955 14.472 15.47 0 8.555-6.477 15.47-14.472 15.47-7.955 0-14.47-6.915-14.47-15.47" fill="none" stroke="#333" stroke-width="1.9987886px" stroke-linecap="round" stroke-linejoin="round" stroke-miterlimit="4" stroke-dasharray="none" stroke-opacity="1"/><path d="M170.177 327.482c-4.637-.36-9.275 2.798-10.594 7.355-1 3.158-1 6.636 1.32 9.075 3.637 3.837 3.957-2.439 5.636-4.518 2.319-3.158 9.554-2.798 8.235-8.395-.64-1.759-2.958-3.517-4.597-3.517z" fill="#afe5f9" fill-rule="evenodd" fill-opacity="1" stroke="none"/><path d="M171.056 328.48s-7.235-.719-10.513 4.238c-3.318 4.957-3.318 9.555-1.64 13.752 0 0-1.678-16.23 12.153-17.99z" fill="#fff" fill-rule="evenodd" fill-opacity="1" stroke="none"/><path d="M166.739 329.16c0-.56.52-1.079 1.16-1.079.639 0 1.159.52 1.159 1.08 0 .6-.52 1.079-1.16 1.079-.64 0-1.16-.48-1.16-1.08zM170.097 328.201c0-.4.36-.76.8-.76.48 0 .799.36.799.76 0 .44-.32.76-.8.76-.44 0-.8-.32-.8-.76z" fill="#fff" fill-rule="evenodd" fill-opacity="1" stroke="none"/><path d="M161.262 350.308c.96.36 1.28 1.399 2.279 1.759 1 .32 1.959.68 2.958 1.039 1.959 0 3.918.32 5.877 0 1.958-.72 3.917-1.759 4.917-3.518.959-1.719.32-2.798-1.64-2.079-3.277 1.4-5.876 2.08-9.514 1.04-.96 0-4.877-1.76-5.237.36 0 .36.36.68.36 1.039z" fill="#64b3f4" fill-rule="evenodd" fill-opacity="1" stroke="none"/><path d="M176.453 320.326c0-8.435 6.396-15.31 14.231-15.31 7.876 0 14.232 6.875 14.232 15.31 0 8.475-6.356 15.31-14.232 15.31-7.835 0-14.23-6.835-14.23-15.31z" fill="#8ad7f9" fill-rule="evenodd" fill-opacity="1" stroke="none"/><path d="M176.453 320.326c0-8.435 6.396-15.31 14.231-15.31 7.876 0 14.232 6.875 14.232 15.31 0 8.475-6.356 15.31-14.232 15.31-7.835 0-14.23-6.835-14.23-15.31" fill="none" stroke="#333" stroke-width="1.9987886px" stroke-linecap="round" stroke-linejoin="round" stroke-miterlimit="4" stroke-dasharray="none" stroke-opacity="1"/><path d="M191.444 307.494c-4.637-.36-9.234 2.798-10.554 7.355-.999 3.158-1.359 6.996 1.32 9.434 3.597 3.478 3.957-2.798 5.276-4.877 2.319-3.158 9.555-2.798 8.235-8.075-.32-2.078-2.638-3.478-4.277-3.478z" fill="#afe5f9" fill-rule="evenodd" fill-opacity="1" stroke="none"/><path d="M192.403 308.493s-7.235-.72-10.513 4.237c-3.318 5.317-3.318 9.555-1.999 13.752 0 0-1.32-15.87 12.512-17.989z" fill="#fff" fill-rule="evenodd" fill-opacity="1" stroke="none"/><path d="M188.246 309.173c0-.56.52-1.08 1.08-1.08.599 0 1.079.52 1.079 1.08 0 .6-.48 1.079-1.08 1.079-.56 0-1.08-.48-1.08-1.08zM191.364 308.213c0-.4.32-.76.68-.76.4 0 .68.36.68.76 0 .44-.28.76-.68.76-.36 0-.68-.32-.68-.76z" fill="#fff" fill-rule="evenodd" fill-opacity="1" stroke="none"/><path d="M182.61 330.68c.639 0 1.319 1.039 1.958 1.399 1 .68 1.959.68 3.278 1.04 1.999.319 3.638.319 5.917 0 1.998-.36 3.637-1.76 4.957-3.519.959-1.719 0-2.438-1.64-1.719-3.317 1.04-6.276 1.72-9.554 1.04-1.319-.36-5.276-2.12-5.276.36l.36.679z" fill="#64b3f4" fill-rule="evenodd" fill-opacity="1" stroke="none"/><path d="M197.72 298.739c0-8.475 6.516-15.39 14.511-15.39 8.036 0 14.512 6.915 14.512 15.39 0 8.515-6.476 15.39-14.512 15.39-7.995 0-14.51-6.875-14.51-15.39z" fill="#8ad7f9" fill-rule="evenodd" fill-opacity="1" stroke="none"/><path d="M197.72 298.739c0-8.475 6.516-15.39 14.511-15.39 8.036 0 14.512 6.915 14.512 15.39 0 8.515-6.476 15.39-14.512 15.39-7.995 0-14.51-6.875-14.51-15.39" fill="none" stroke="#333" stroke-width="1.9987886px" stroke-linecap="round" stroke-linejoin="round" stroke-miterlimit="4" stroke-dasharray="none" stroke-opacity="1"/><path d="M213.15 285.787c-4.556 0-9.154 3.158-10.793 7.715-.999 3.158-.999 6.676 1.32 9.115 3.597 3.477 4.237-2.799 5.556-4.558 2.279-3.518 9.474-3.158 8.195-8.395-.32-1.758-2.958-3.517-4.597-3.517z" fill="#afe5f9" fill-rule="evenodd" fill-opacity="1" stroke="none"/><path d="M213.83 287.226s-7.195-.72-10.473 4.197c-3.278 4.877-2.918 9.395-1.64 13.232 0 0-1.638-15.67 12.113-17.43z" fill="#fff" fill-rule="evenodd" fill-opacity="1" stroke="none"/><path d="M209.513 287.746c0-.68.52-1.24 1.16-1.24.639 0 1.159.56 1.159 1.24 0 .72-.52 1.239-1.16 1.239-.64 0-1.159-.52-1.159-1.24zM213.19 286.626c0-.44.32-.84.68-.84.4 0 .68.4.68.84 0 .48-.28.84-.68.84-.36 0-.68-.36-.68-.84z" fill="#fff" fill-rule="evenodd" fill-opacity="1" stroke="none"/><path d="M203.876 308.973c1 .36 1.64 1.04 2.319 1.759.96.32 1.959.68 2.958.68 1.999.36 3.958.679 5.957 0 1.958-.36 3.957-1.4 4.957-3.159.959-1.719.32-2.798-1.32-2.079-3.637 1.4-6.276 2.08-9.914 1.04-.999-.36-4.957-1.76-5.316.36 0 .36.36.68.36 1.039z" fill="#64b3f4" fill-rule="evenodd" fill-opacity="1" stroke="none"/><path d="M222.745 283.348c0-8.555 6.436-15.51 14.311-15.51 7.916 0 14.312 6.955 14.312 15.51 0 8.595-6.396 15.51-14.312 15.51-7.875 0-14.311-6.915-14.311-15.51z" fill="#8ad7f9" fill-rule="evenodd" fill-opacity="1" stroke="none"/><path d="M222.745 283.348c0-8.555 6.436-15.51 14.311-15.51 7.916 0 14.312 6.955 14.312 15.51 0 8.595-6.396 15.51-14.312 15.51-7.875 0-14.311-6.915-14.311-15.51" fill="none" stroke="#333" stroke-width="1.9987886px" stroke-linecap="round" stroke-linejoin="round" stroke-miterlimit="4" stroke-dasharray="none" stroke-opacity="1"/><path d="M237.816 270.636c-4.557-.36-9.115 2.798-10.434 7.395-.96 3.159-1.319 6.996 1.32 9.115 3.557 3.838 3.877-2.479 5.196-4.557 2.279-3.158 9.435-2.799 8.155-8.435-.32-1.76-2.598-3.158-4.237-3.518z" fill="#afe5f9" fill-rule="evenodd" fill-opacity="1" stroke="none"/><path d="M238.855 271.715s-7.235-.72-10.513 4.238c-3.318 4.917-3.318 9.474-2 13.671 0 0-1.318-16.15 12.513-17.909z" fill="#fff" fill-rule="evenodd" fill-opacity="1" stroke="none"/><path d="M234.538 272.395c0-.56.52-1.08 1.16-1.08.639 0 1.158.52 1.158 1.08 0 .6-.52 1.08-1.159 1.08-.64 0-1.16-.48-1.16-1.08zM237.816 271.396c0-.36.32-.72.68-.72.4 0 .679.36.679.72 0 .4-.28.72-.68.72-.36 0-.68-.32-.68-.72z" fill="#fff" fill-rule="evenodd" fill-opacity="1" stroke="none"/><path d="M229.061 293.502c.64.36 1.28 1.4 1.959 1.76.96.719 1.959.719 3.278 1.078 1.959.32 3.598.32 5.876 0 1.96-.72 3.598-1.799 4.917-3.557.96-1.76 0-2.839-1.639-2.12-3.278 1.44-6.236 2.12-9.514 1.08-1.279 0-5.237-1.799-5.237.36 0 .32.36.68.36 1.04z" fill="#64b3f4" fill-rule="evenodd" fill-opacity="1" stroke="none"/><path d="M48.37 173.335c0-8.415 6.417-15.27 14.312-15.27 7.915 0 14.311 6.855 14.311 15.27 0 8.435-6.396 15.27-14.311 15.27-7.895 0-14.311-6.835-14.311-15.27z" fill="#caeff9" fill-rule="evenodd" fill-opacity="1" stroke="none"/><path d="M48.37 173.335c0-8.415 6.417-15.27 14.312-15.27 7.915 0 14.311 6.855 14.311 15.27 0 8.435-6.396 15.27-14.311 15.27-7.895 0-14.311-6.835-14.311-15.27" fill="none" stroke="#333" stroke-width="1.9987886px" stroke-linecap="round" stroke-linejoin="round" stroke-miterlimit="4" stroke-dasharray="none" stroke-opacity="1"/><path d="M63.502 160.942c-4.618-.36-8.915 2.799-10.574 7.356-1 2.798-1 6.656 1.32 9.094 3.637 3.498 3.977-2.798 5.616-4.537 2.318-3.518 9.254-3.158 8.275-8.415-.66-1.739-2.978-3.498-4.637-3.498z" fill="#def4f9" fill-rule="evenodd" fill-opacity="1" stroke="none"/><path d="M64.48 161.942s-7.235-.72-10.533 4.217c-3.298 4.937-2.958 9.155-1.639 13.372 0 0-1.659-15.83 12.173-17.59z" fill="#fff" fill-rule="evenodd" fill-opacity="1" stroke="none"/><path d="M60.164 162.621c0-.58.52-1.079 1.159-1.079.66 0 1.16.5 1.16 1.08 0 .6-.5 1.079-1.16 1.079-.64 0-1.16-.48-1.16-1.08zM63.442 161.622c0-.38.38-.72.839-.72.48 0 .84.34.84.72 0 .4-.36.72-.84.72-.46 0-.84-.32-.84-.72z" fill="#fff" fill-rule="evenodd" fill-opacity="1" stroke="none"/><path d="M54.667 183.729c.98 0 1.639 1.079 2.298 1.419.98.72 1.98.72 2.959 1.08 1.978.339 3.957.339 5.916 0 1.979-.36 3.958-1.78 4.937-3.559.98-1.779 0-2.498-1.639-1.779-3.298 1.06-5.916 1.78-9.534 1.06-1-.34-4.937-1.78-5.277.36 0 .36.34.72.34.72z" fill="#8ad7f9" fill-rule="evenodd" fill-opacity="1" stroke="none"/><path d="M47.97 284.588c0-8.395 6.437-15.231 14.352-15.231 7.935 0 14.352 6.836 14.352 15.23 0 8.415-6.417 15.231-14.352 15.231-7.915 0-14.351-6.816-14.351-15.23z" fill="#caeff9" fill-rule="evenodd" fill-opacity="1" stroke="none"/><path d="M47.97 284.588c0-8.395 6.437-15.231 14.352-15.231 7.935 0 14.352 6.836 14.352 15.23 0 8.415-6.417 15.231-14.352 15.231-7.915 0-14.351-6.816-14.351-15.23" fill="none" stroke="#333" stroke-width="1.9987886px" stroke-linecap="round" stroke-linejoin="round" stroke-miterlimit="4" stroke-dasharray="none" stroke-opacity="1"/><path d="M63.182 271.675c-4.617-.36-9.255 2.819-10.574 7.396-1 3.178-1 7.056 1.32 9.514 3.637 3.518 3.977-2.818 5.616-4.937 2.319-3.158 9.254-2.818 8.275-8.095-.66-2.119-2.978-3.518-4.637-3.518z" fill="#def4f9" fill-rule="evenodd" fill-opacity="1" stroke="none"/><path d="M64.161 272.815s-7.236-.7-10.534 4.217c-3.298 4.897-3.298 9.434-1.639 13.632 0 0-1.659-15.73 12.173-17.85z" fill="#fff" fill-rule="evenodd" fill-opacity="1" stroke="none"/><path d="M59.764 273.514c0-.54.54-1 1.2-1 .679 0 1.198.46 1.198 1 0 .56-.52 1-1.199 1-.66 0-1.2-.44-1.2-1zM63.122 272.395c0-.42.38-.76.84-.76.479 0 .839.34.839.76s-.36.76-.84.76c-.46 0-.84-.34-.84-.76z" fill="#fff" fill-rule="evenodd" fill-opacity="1" stroke="none"/><path d="M54.267 294.841c1 0 1.32 1.04 2.319 1.4.66.699 1.979.699 2.958 1.039 1.999.34 3.978.34 5.956 0 1.98-.34 3.958-1.74 4.957-3.498.98-1.739 0-2.439-1.659-1.739-3.298 1.04-5.936 1.739-9.574 1.04-1-.34-5.297-2.1-5.297.36l.34.699z" fill="#8ad7f9" fill-rule="evenodd" fill-opacity="1" stroke="none"/><path d="M74.355 286.426c0-8.494 6.416-15.39 14.311-15.39 7.915 0 14.312 6.896 14.312 15.39 0 8.515-6.397 15.391-14.312 15.391-7.895 0-14.311-6.876-14.311-15.39z" fill="#caeff9" fill-rule="evenodd" fill-opacity="1" stroke="none"/><path d="M74.355 286.426c0-8.494 6.416-15.39 14.311-15.39 7.915 0 14.312 6.896 14.312 15.39 0 8.515-6.397 15.391-14.312 15.391-7.895 0-14.311-6.876-14.311-15.39" fill="none" stroke="#333" stroke-width="1.9987886px" stroke-linecap="round" stroke-linejoin="round" stroke-miterlimit="4" stroke-dasharray="none" stroke-opacity="1"/><path d="M89.486 273.514c-4.617-.36-9.235 2.799-10.554 7.696-1 2.798-1.339 6.636 1.32 9.094 3.637 3.478 3.957-2.798 5.276-4.557 2.319-3.498 9.574-3.138 8.255-8.395-.32-1.739-2.638-3.498-4.297-3.498z" fill="#def4f9" fill-rule="evenodd" fill-opacity="1" stroke="none"/><path d="M90.465 274.474s-7.235-.36-10.533 4.597c-3.298 4.957-3.298 9.554-1.98 13.432 0 0-1.318-15.91 12.513-18.03z" fill="#fff" fill-rule="evenodd" fill-opacity="1" stroke="none"/><path d="M86.148 275.393c0-.7.52-1.28 1.16-1.28.659 0 1.158.58 1.158 1.28 0 .72-.5 1.28-1.159 1.28-.64 0-1.16-.56-1.16-1.28zM89.426 274.314c0-.46.32-.84.68-.84.38 0 .679.38.679.84 0 .48-.3.84-.68.84-.36 0-.68-.36-.68-.84z" fill="#fff" fill-rule="evenodd" fill-opacity="1" stroke="none"/><path d="M80.651 296.64c.66.36 1.32 1.06 1.979 1.4.98.699 1.959 1.059 3.278 1.059 1.979.34 3.618.68 5.916 0 1.98-.36 3.618-1.4 4.937-3.498.98-1.4 0-2.459-1.639-1.76-3.298 1.4-6.256 2.1-9.534 1.06-1.32-.36-5.277-1.759-5.277.34 0 .36.34.7.34 1.06z" fill="#8ad7f9" fill-rule="evenodd" fill-opacity="1" stroke="none"/><path d="M72.516 174.494c0-8.395 6.456-15.23 14.391-15.23 7.956 0 14.392 6.835 14.392 15.23 0 8.415-6.436 15.231-14.392 15.231-7.935 0-14.39-6.816-14.39-15.23z" fill="#caeff9" fill-rule="evenodd" fill-opacity="1" stroke="none"/><path d="M72.516 174.494c0-8.395 6.456-15.23 14.391-15.23 7.956 0 14.392 6.835 14.392 15.23 0 8.415-6.436 15.231-14.392 15.231-7.935 0-14.39-6.816-14.39-15.23" fill="none" stroke="#333" stroke-width="1.9987886px" stroke-linecap="round" stroke-linejoin="round" stroke-miterlimit="4" stroke-dasharray="none" stroke-opacity="1"/><path d="M87.487 161.582c-4.617-.36-9.254 2.798-10.574 7.336-.999 3.158-.999 6.995 1.32 9.094 3.637 3.838 3.977-2.438 5.616-4.537 2.319-3.158 9.255-2.798 8.275-8.395-.66-1.759-2.978-3.158-4.637-3.498z" fill="#def4f9" fill-rule="evenodd" fill-opacity="1" stroke="none"/><path d="M88.466 162.581s-7.235-.72-10.533 4.238c-3.298 4.937-3.298 9.534-1.64 13.752 0 0-1.658-16.23 12.173-17.99z" fill="#fff" fill-rule="evenodd" fill-opacity="1" stroke="none"/><path d="M84.309 163.341c0-.54.5-1 1.08-1 .599 0 1.079.46 1.079 1 0 .56-.48 1-1.08 1-.58 0-1.08-.44-1.08-1zM87.427 162.302c0-.42.38-.76.84-.76.48 0 .839.34.839.76s-.36.76-.84.76c-.46 0-.839-.34-.839-.76z" fill="#fff" fill-rule="evenodd" fill-opacity="1" stroke="none"/><path d="M78.652 184.748c.98 0 1.32 1.04 2.299 1.4.98.699 1.979.699 2.958 1.039 1.979.34 3.958.34 5.917 0 1.978-.7 3.957-1.74 4.937-3.498.979-1.74 0-2.799-1.64-2.1-3.297 1.4-5.916 2.1-9.534 1.06-1 0-5.276-1.759-5.276.34 0 .36.34.7.34 1.06z" fill="#8ad7f9" fill-rule="evenodd" fill-opacity="1" stroke="none"/><path d="M47.331 401.517c0-8.515 6.516-15.431 14.512-15.431 8.015 0 14.51 6.916 14.51 15.43 0 8.535-6.495 15.431-14.51 15.431-7.996 0-14.512-6.896-14.512-15.43z" fill="#caeff9" fill-rule="evenodd" fill-opacity="1" stroke="none"/><path d="M47.331 401.517c0-8.515 6.516-15.431 14.512-15.431 8.015 0 14.51 6.916 14.51 15.43 0 8.535-6.495 15.431-14.51 15.431-7.996 0-14.512-6.896-14.512-15.43" fill="none" stroke="#333" stroke-width="1.9987886px" stroke-linecap="round" stroke-linejoin="round" stroke-miterlimit="4" stroke-dasharray="none" stroke-opacity="1"/><path d="M62.542 388.804c-4.617-.36-9.254 2.819-10.573 7.396-1 3.178-1 6.696 1.319 9.174 3.638 3.858 3.977-2.478 5.616-4.597 2.319-3.158 9.574-2.818 8.255-8.455-.66-1.759-2.958-3.518-4.617-3.518z" fill="#def4f9" fill-rule="evenodd" fill-opacity="1" stroke="none"/><path d="M63.442 389.944s-7.236-.7-10.534 4.197c-3.298 4.877-3.298 9.394-1.64 13.572 0 0-1.658-16.01 12.174-17.77z" fill="#fff" fill-rule="evenodd" fill-opacity="1" stroke="none"/><path d="M59.284 390.563c0-.54.5-1 1.08-1 .6 0 1.079.46 1.079 1 0 .56-.48 1-1.08 1-.58 0-1.079-.44-1.079-1zM62.482 389.564c0-.34.38-.64.84-.64.48 0 .84.3.84.64 0 .36-.36.64-.84.64-.46 0-.84-.28-.84-.64z" fill="#fff" fill-rule="evenodd" fill-opacity="1" stroke="none"/><path d="M53.627 411.57c1 .36 1.66 1.42 2.32 1.78.978.34 1.978.7 2.957 1.059 2 0 3.978.34 5.957 0 1.978-.72 3.957-1.78 4.957-3.538.98-1.759.32-2.838-1.66-2.119-3.297 1.42-5.936 2.119-9.574 1.06-.999 0-4.957-1.78-5.296.36 0 .34.34.699.34 1.059z" fill="#8ad7f9" fill-rule="evenodd" fill-opacity="1" stroke="none"/><path d="M73.635 403.435c0-8.474 6.436-15.35 14.352-15.35 7.935 0 14.351 6.876 14.351 15.35 0 8.495-6.416 15.351-14.351 15.351-7.916 0-14.352-6.856-14.352-15.35z" fill="#caeff9" fill-rule="evenodd" fill-opacity="1" stroke="none"/><path d="M73.635 403.435c0-8.474 6.436-15.35 14.352-15.35 7.935 0 14.351 6.876 14.351 15.35 0 8.495-6.416 15.351-14.351 15.351-7.916 0-14.352-6.856-14.352-15.35" fill="none" stroke="#333" stroke-width="1.9987886px" stroke-linecap="round" stroke-linejoin="round" stroke-miterlimit="4" stroke-dasharray="none" stroke-opacity="1"/><path d="M88.846 390.563c-4.617-.36-9.234 2.819-10.553 7.376-1 3.158-1.34 7.016 1.319 9.474 3.638 3.498 3.957-2.818 5.277-4.917 2.318-3.158 9.574-2.798 8.255-8.075-.32-2.099-2.639-3.498-4.298-3.498z" fill="#def4f9" fill-rule="evenodd" fill-opacity="1" stroke="none"/><path d="M89.746 391.643s-7.236-.72-10.534 4.217c-3.298 4.917-3.298 9.474-1.979 13.692 0 0-1.319-15.81 12.513-17.91z" fill="#fff" fill-rule="evenodd" fill-opacity="1" stroke="none"/><path d="M85.588 392.322c0-.58.5-1.08 1.08-1.08.6 0 1.079.5 1.079 1.08 0 .6-.48 1.08-1.08 1.08-.58 0-1.079-.48-1.079-1.08zM88.786 391.323c0-.38.38-.72.84-.72.48 0 .84.34.84.72 0 .4-.36.72-.84.72-.46 0-.84-.32-.84-.72z" fill="#fff" fill-rule="evenodd" fill-opacity="1" stroke="none"/><path d="M79.932 413.77c.66 0 1.319 1.059 2.318 1.418.66.7 1.64.7 2.958 1.06 2 .34 3.978.34 5.957 0 1.979-.36 3.638-1.78 4.957-3.538.98-1.76 0-2.479-1.66-1.76-3.297 1.06-6.275 1.76-9.573 1.06-1.32-.36-5.297-2.138-5.297.34l.34.72z" fill="#8ad7f9" fill-rule="evenodd" fill-opacity="1" stroke="none"/><path d="M72.996 187.946c-4.897 4.557-4.897 16.13-5.237 22.806-.66 8.055-.66 16.13-.66 24.186 0 10.873-2.618 31.22 7.856 37.177-5.877-14.371-3.918-31.9-2.619-47.331.66-7.716 1-15.79 1-23.506 0-4.557-1.32-9.474-1-14.391zM73.595 298.26c-1.299 2.118-3.238 4.576-4.217 7.035-1.3 4.217-.98 8.775-1.3 12.992-.34 9.834-1.638 19.668-1.958 29.522-.32 8.075-1.959 16.51.66 24.585 1.299 4.917 2.918 13.692 7.135 16.85-3.897-18.249-4.877-37.237-4.877-56.206.34-7.715.66-14.391 1.959-21.767.66-3.518 2.279-8.075 1.959-11.593zM73.955 423.224c.66 12.272.34 24.904-2.618 36.817-2.619 11.213-5.897 27.344-16.37 33.3 3.937-.7 6.556-4.897 9.174-7.695 3.278-3.518 5.237-7.016 7.196-11.573 2.298-6.316 3.278-12.633 3.598-19.289.34-5.616.979-10.513.34-16.13-.66-4.197-1.32-8.415-1.32-12.612zM58.325 45.133c6.216 3.498 11.453 17.569 13.092 24.945 1.639 8.434 1.959 17.21 2.938 25.984 1.959-8.775 1.639-20.368-.64-29.163-1.319-4.917-5.896-22.486-12.772-21.427v-.7z" fill="#d670a8" fill-rule="evenodd" fill-opacity="1" stroke="none"/></svg>