<svg xmlns="http://www.w3.org/2000/svg" version="1.0" viewBox="0 0 35.754 20.183"><path d="M1.04 10.034c0-4.877 3.757-8.835 8.314-8.835 4.598 0 8.315 3.958 8.315 8.835 0 4.917-3.717 8.835-8.315 8.835-4.557 0-8.315-3.918-8.315-8.835z" fill="#f7e67f" fill-rule="evenodd" fill-opacity="1" stroke="none"/><path d="M1.04 10.034c0-4.877 3.757-8.835 8.314-8.835 4.598 0 8.315 3.958 8.315 8.835 0 4.917-3.717 8.835-8.315 8.835-4.557 0-8.315-3.918-8.315-8.835" fill="none" stroke="#343434" stroke-width="1.0393701px" stroke-linecap="round" stroke-linejoin="round" stroke-miterlimit="4" stroke-dasharray="none" stroke-opacity="1"/><path d="M9.754 2.678c-2.638-.16-5.277 1.64-6.116 4.318-.52 1.799-.64 3.837.84 5.237 2.038 2.038 2.278-1.52 3.117-2.679 1.32-1.799 5.397-1.639 4.678-4.717-.24-1.16-1.56-1.919-2.639-2.039z" fill="#f6f3b6" fill-rule="evenodd" fill-opacity="1" stroke="none"/><path d="M10.354 3.238s-4.118-.4-6.037 2.439c-1.839 2.958-1.839 5.516-.959 7.795 0 0-1-9.075 6.996-10.234z" fill="#fff" fill-rule="evenodd" fill-opacity="1" stroke="none"/><path d="M7.795 3.638c0-.32.32-.64.68-.64.4 0 .68.32.68.64 0 .36-.28.64-.68.64-.36 0-.68-.28-.68-.64zM9.794 3.078c0-.2.2-.4.44-.4.28 0 .44.2.44.4 0 .24-.16.4-.44.4-.24 0-.44-.16-.44-.4z" fill="#fff" fill-rule="evenodd" fill-opacity="1" stroke="none"/><path d="M4.757 15.87c.4.12.76.64 1.24.88.48.4 1.079.52 1.678.64 1.2.12 2.279.24 3.478 0 1.08-.24 2.159-1.04 2.759-2.04.6-.919.12-1.398-.84-1.039-1.919.64-3.598 1.16-5.517.64-.72-.24-3.038-1.16-3.038.12 0 .16.12.4.24.52z" fill="#f3c071" fill-rule="evenodd" fill-opacity="1" stroke="none"/><path d="M17.83 9.874c0-4.877 3.717-8.835 8.274-8.835 4.597 0 8.275 3.958 8.275 8.835 0 4.917-3.678 8.835-8.275 8.835-4.557 0-8.275-3.918-8.275-8.835z" fill="#f7e67f" fill-rule="evenodd" fill-opacity="1" stroke="none"/><path d="M17.83 9.874c0-4.877 3.717-8.835 8.274-8.835 4.597 0 8.275 3.958 8.275 8.835 0 4.917-3.678 8.835-8.275 8.835-4.557 0-8.275-3.918-8.275-8.835" fill="none" stroke="#343434" stroke-width="1.0393701px" stroke-linecap="round" stroke-linejoin="round" stroke-miterlimit="4" stroke-dasharray="none" stroke-opacity="1"/><path d="M26.544 2.439c-2.638-.16-5.277 1.679-6.116 4.357-.52 1.799-.64 3.878.84 5.277 2.038 2.038 2.278-1.56 3.117-2.719 1.32-1.799 5.397-1.639 4.677-4.757-.24-1.16-1.559-1.919-2.638-2.039z" fill="#f6f3b6" fill-rule="evenodd" fill-opacity="1" stroke="none"/><path d="M26.984 3.078s-4.038-.4-5.917 2.559c-1.919 2.838-1.799 5.396-1.08 7.675 0 0-.839-9.075 6.997-10.234z" fill="#fff" fill-rule="evenodd" fill-opacity="1" stroke="none"/><path d="M24.665 3.558c0-.28.32-.56.64-.56.36 0 .64.28.64.56 0 .32-.28.56-.64.56-.32 0-.64-.24-.64-.56zM26.504 2.918c0-.2.2-.4.4-.4.24 0 .4.2.4.4 0 .24-.16.4-.4.4a.4.4 0 0 1-.4-.4z" fill="#fff" fill-rule="evenodd" fill-opacity="1" stroke="none"/><path d="M21.427 15.71c.52.12.88.64 1.36.88.479.4 1.079.52 1.678.64 1.2.12 2.279.24 3.358 0 1.2-.24 2.279-1.04 2.878-2.04.6-.919.12-1.398-.84-1.039-2.038.64-3.597 1.16-5.636.64-.6-.24-2.918-1.16-2.918.12 0 .16.12.4.12.52z" fill="#f3c071" fill-rule="evenodd" fill-opacity="1" stroke="none"/></svg>