<svg xmlns="http://www.w3.org/2000/svg" version="1.0" viewBox="0 0 142.11 139.049"><defs><clipPath clipPathUnits="userSpaceOnUse" id="a"><path d="M3.678.96h141.914v139.115H3.678z"/></clipPath></defs><path clip-path="url(#a)" d="M66.66 2.339c14.231-1.9 28.642 1.339 41.275 8.534.54.38 1.079.58 1.619.96 1.239.76 1.599 2.458 0 4.357-1.26 1.52-2.14 3.418-2.14 5.497 0 4.557 3.559 8.355 7.816 8.355 2.858 0 5.357-1.72 6.596-4.178 1.06-2.078 3.198-2.278 6.056 1.72 8.715 10.233 14.592 22.945 16.19 36.977 4.438 38.497-25.624 69.038-61.762 73.795-19.928 2.639-39.496-4.377-54.267-17.829-1.959-1.719-2.319-4.937-.18-7.036 1.24-1.499 2.139-3.598 2.139-5.676 0-4.558-3.578-8.355-7.835-8.355-1.26 0-2.499.38-3.558.96-.72.379-5.177 2.458-6.416.179a69.282 69.282 0 0 1-7.296-23.326C.44 38.577 30.342 7.096 66.66 2.34z" fill="#fff5ad" fill-rule="evenodd" fill-opacity="1" stroke="none"/><path d="M105.756 13.092C93.663 6.456 79.952 3.798 67.119 5.517 47.891 7.975 30.621 18.229 19.41 33.4 11.572 44.193 7.474 56.526 7.474 69.618c0 2.458.18 4.917.36 7.395.9 6.816 2.679 13.452 5.697 19.908.36.76 1.599 2.279 3.917.96 1.44-.96 3.039-1.34 4.818-1.34 5.876 0 10.673 5.117 10.673 11.374 0 2.658-1.06 5.136-2.498 7.215-1.06 1.32-1.42 2.279-.52 3.218 14.77 13.272 33.64 19.528 52.168 17.07 17.27-2.279 33.28-10.814 44.313-23.326 10.154-11.373 15.311-25.405 15.311-40.016 0-2.278 0-4.737-.34-7.015-1.439-12.893-6.776-25.025-15.31-35.28-1.08-1.318-2.499-.759-3.039-.179-1.778 2.079-4.617 3.598-7.655 3.598-5.876 0-10.673-5.117-10.673-11.373 0-2.279.7-4.557 1.958-6.456.7-1.52-.54-2.08-.9-2.279z" fill="#a0c7d7" fill-rule="evenodd" fill-opacity="1" stroke="none"/><path clip-path="url(#a)" d="M66.66 2.339c14.231-1.9 28.642 1.339 41.275 8.534.54.38 1.079.58 1.619.96 1.239.76 1.599 2.458 0 4.357-1.26 1.52-2.14 3.418-2.14 5.497 0 4.557 3.559 8.355 7.816 8.355 2.858 0 5.357-1.72 6.596-4.178 1.06-2.078 3.198-2.278 6.056 1.72 8.715 10.233 14.592 22.945 16.19 36.977 4.438 38.497-25.624 69.038-61.762 73.795-19.928 2.639-39.496-4.377-54.267-17.829-1.959-1.719-2.319-4.937-.18-7.036 1.24-1.499 2.139-3.598 2.139-5.676 0-4.558-3.578-8.355-7.835-8.355-1.26 0-2.499.38-3.558.96-.72.379-5.177 2.458-6.416.179a69.282 69.282 0 0 1-7.296-23.326C.44 38.577 30.342 7.096 66.66 2.34" fill="none" stroke="#58585a" stroke-width=".47970927px" stroke-linecap="round" stroke-linejoin="round" stroke-miterlimit="4" stroke-dasharray="none" stroke-opacity="1"/><path d="M105.756 13.092C93.663 6.456 79.952 3.798 67.119 5.517c0 0 0 0 0 0C47.891 7.975 30.621 18.229 19.41 33.4 11.572 44.193 7.474 56.526 7.474 69.618c0 2.458.18 4.917.36 7.395.9 6.816 2.679 13.452 5.697 19.908.36.76 1.599 2.279 3.917.96 1.44-.96 3.039-1.34 4.818-1.34 5.876 0 10.673 5.117 10.673 11.374 0 2.658-1.06 5.136-2.498 7.215-1.06 1.32-1.42 2.279-.52 3.218 14.77 13.272 33.64 19.528 52.168 17.07 17.27-2.279 33.28-10.814 44.313-23.326 10.154-11.373 15.311-25.405 15.311-40.016 0-2.278 0-4.737-.34-7.015-1.439-12.893-6.776-25.025-15.31-35.28-1.08-1.318-2.499-.759-3.039-.179-1.778 2.079-4.617 3.598-7.655 3.598-5.876 0-10.673-5.117-10.673-11.373 0-2.279.7-4.557 1.958-6.456.7-1.52-.54-2.08-.9-2.279" fill="none" stroke="#58585a" stroke-width=".31980619px" stroke-linecap="round" stroke-linejoin="round" stroke-miterlimit="4" stroke-dasharray="none" stroke-opacity="1"/></svg>