<svg xmlns="http://www.w3.org/2000/svg" version="1.0" viewBox="0 0 31.332 68.825"><defs><clipPath clipPathUnits="userSpaceOnUse" id="a"><path d="M2.239 2.159h31.26v68.838H2.24z"/></clipPath></defs><path d="M3.158 18.709c0-8.585 6.536-15.55 14.591-15.55 8.065 0 14.591 6.965 14.591 15.55 0 8.594-6.526 15.55-14.59 15.55-8.056 0-14.592-6.956-14.592-15.55z" fill="#6e12ff" fill-rule="evenodd" fill-opacity="1" stroke="none"/><path clip-path="url(#a)" d="M3.158 18.709c0-8.585 6.536-15.55 14.591-15.55 8.065 0 14.591 6.965 14.591 15.55 0 8.594-6.526 15.55-14.59 15.55-8.056 0-14.592-6.956-14.592-15.55" fill="none" stroke="#002e93" stroke-width=".79951543px" stroke-linecap="butt" stroke-linejoin="miter" stroke-miterlimit="8" stroke-dasharray="none" stroke-opacity="1"/><path d="m23.586 44.943.42.44c0 .45 0 .45.41.889v.45c0 .44.409.44.409.44v20.857c0 1.339-.82 2.218-2.059 2.218-1.249 0-2.069-.879-2.069-2.218V48.49c0-.89-1.239-2.659-2.898-2.659-2.069 0-3.308 1.77-3.308 2.659v19.528c0 1.339-.83 2.218-2.069 2.218-.819 0-2.068-.879-2.068-2.218V48.49c0-.44 0-.89.42-1.33v-.44s0-.449.41-.449v-.44c.419-.45.419-.89.419-.89l.41-.449c0-.44.41-.88.83-.88 0-.45.409-.45.409-.889h.41c0-.45.42-.45.83-.45v-.44c.419 0 .829-.44.829-.44V33.85c0-.889.83-2.228 2.068-2.228 1.24 0 2.07 1.339 2.07 2.228v7.546c1.238.44 2.478 1.33 3.717 2.658v.44c.41 0 .41.45.41.45z" fill="#002672" fill-rule="evenodd" fill-opacity="1" stroke="none"/><path d="M11.153 67.11V47.61s.4 6.646.8 10.194v11.953c-.4-.88-.8-1.77-.8-2.649zM21.507 67.1c0 .889.42 2.218.84 2.658-.84-.88-1.26-1.77-1.26-2.659V48.441c0-.44-.84-2.669-2.099-2.669 2.519 0 2.939 2.229 2.939 3.558l-.42 17.77zM7.795 14.551c0-2.798 2.139-5.077 4.757-5.077 2.629 0 4.758 2.279 4.758 5.077 0 2.808-2.13 5.077-4.758 5.077-2.618 0-4.757-2.269-4.757-5.077z" fill="#fff" fill-rule="evenodd" fill-opacity="1" stroke="none"/></svg>