<svg xmlns="http://www.w3.org/2000/svg" viewBox="0 0 240.14 128.79"><defs><style>.cls-1{opacity:0.66;}.cls-2{fill:#ea4b6a;stroke-width:0.25px;}.cls-15,.cls-16,.cls-17,.cls-18,.cls-19,.cls-2{stroke:#999;}.cls-10,.cls-11,.cls-12,.cls-13,.cls-15,.cls-16,.cls-17,.cls-18,.cls-19,.cls-2,.cls-3,.cls-5,.cls-6,.cls-7,.cls-8,.cls-9{stroke-miterlimit:10;}.cls-10,.cls-11,.cls-12,.cls-13,.cls-3,.cls-5,.cls-6,.cls-7,.cls-8,.cls-9{fill:#39dd17;stroke:#29688e;}.cls-3{stroke-width:0.08px;}.cls-4{fill:#04b526;}.cls-5{stroke-width:0.08px;}.cls-6{stroke-width:0.08px;}.cls-7{stroke-width:0.08px;}.cls-8{stroke-width:0.08px;}.cls-9{stroke-width:0.08px;}.cls-10{stroke-width:0.08px;}.cls-11{stroke-width:0.08px;}.cls-12{stroke-width:0.08px;}.cls-13{stroke-width:0.08px;}.cls-14{fill:#333;opacity:0.07;}.cls-15{fill:#d10b48;fill-opacity:0.31;stroke-width:0.26px;}.cls-16,.cls-18,.cls-19{fill:#e2e2e2;}.cls-16{fill-opacity:0.23;stroke-width:0.25px;}.cls-16,.cls-17,.cls-18,.cls-19{opacity:0.72;}.cls-17{fill:#bcbcbc;fill-opacity:0.12;stroke-width:0.32px;}.cls-18,.cls-19{fill-opacity:0.21;}.cls-18{stroke-width:0.4px;}.cls-19{stroke-width:0.42px;}</style></defs><g id="Layer_2" data-name="Layer 2"><g id="_96well" data-name="96well"><g id="_96well_plate" data-name="96well plate"><g class="cls-1"><path class="cls-2" d="M54.89,69.17a10.94,10.94,0,0,0-9,2.52c-2.16,2.07-1.65,4.36,1.18,5.07a10.8,10.8,0,0,0,9.16-2.6C58.31,72.05,57.72,69.85,54.89,69.17Z"/><path class="cls-2" d="M150.88,29.81c2.8.51,6.25-.41,7.67-2s.28-3.39-2.49-3.89-6.16.42-7.6,2.06S148.07,29.29,150.88,29.81Z"/><path class="cls-2" d="M175.8,34.34c3,.53,6.41-.45,7.72-2.19s-.09-3.47-3-4-6.3.45-7.63,2.15S172.86,33.81,175.8,34.34Z"/><path class="cls-2" d="M132.71,80.78c-1.77,2.24-.59,4.69,2.65,5.45s7.4-.51,9.13-2.82.44-4.62-2.79-5.35S134.49,78.52,132.71,80.78Z"/><path class="cls-2" d="M188.69,36.68c3.05.53,6.45-.46,7.71-2.25s-.26-3.53-3.21-4-6.38.48-7.64,2.21S185.68,36.15,188.69,36.68Z"/><path class="cls-2" d="M182.85,44.47c3,.59,6.61-.41,7.94-2.23s0-3.74-3-4.31-6.5.43-7.85,2.18S179.78,43.87,182.85,44.47Z"/><path class="cls-2" d="M169.79,42c3,.57,6.54-.43,7.91-2.21s.08-3.68-2.87-4.22-6.41.43-7.81,2.17S166.79,41.42,169.79,42Z"/><path class="cls-2" d="M74.8,24a10,10,0,0,0,7.67-2c1.72-1.56,1.08-3.19-1.42-3.65a10.15,10.15,0,0,0-7.63,2C71.69,21.9,72.3,23.54,74.8,24Z"/><path class="cls-2" d="M158.82,86.77c1.69-2.34.33-4.78-3-5.53s-7.28.47-9,2.73-.46,4.84,2.89,5.62S157.15,89.09,158.82,86.77Z"/><path class="cls-2" d="M162.86,71.73c-3.22-.71-7.11.43-8.75,2.57s-.42,4.59,2.84,5.35,7.28-.46,8.89-2.65S166.14,72.46,162.86,71.73Z"/><path class="cls-2" d="M93,78.18a10.34,10.34,0,0,0-9.11,2.63c-2.08,2.23-1.29,4.68,1.81,5.43A10.45,10.45,0,0,0,95,83.53C97,81.3,96.09,78.9,93,78.18Z"/><path class="cls-2" d="M154.42,35.42C153,37.16,154.07,39,157,39.57s6.51-.42,7.93-2.19.19-3.58-2.66-4.12S155.88,33.69,154.42,35.42Z"/><path class="cls-2" d="M172.59,67.59c1.48-2.08.09-4.27-3.09-4.93s-7,.47-8.53,2.54-.21,4.33,3,5S171.07,69.72,172.59,67.59Z"/><path class="cls-2" d="M147.43,62.32c-1.63,2.05-.4,4.29,2.74,4.94s7-.5,8.57-2.56.26-4.23-2.88-4.86S149,60.31,147.43,62.32Z"/><path class="cls-2" d="M49.08,47.14a10.74,10.74,0,0,0-8.45,2.27c-2,1.82-1.57,3.81,1.06,4.4a10.84,10.84,0,0,0,8.58-2.35C52.27,49.62,51.73,47.7,49.08,47.14Z"/><path class="cls-2" d="M58.83,43.64c1.94-1.77,1.39-3.6-1.19-4.15a10.63,10.63,0,0,0-8.25,2.16c-2,1.76-1.47,3.68,1.15,4.22A10.61,10.61,0,0,0,58.83,43.64Z"/><path class="cls-2" d="M43.83,71.22c2.19-2.06,1.72-4.23-1-4.9a11,11,0,0,0-9,2.44c-2.25,2-1.83,4.31,1,5A11,11,0,0,0,43.83,71.22Z"/><path class="cls-2" d="M67.27,72.1a10.74,10.74,0,0,0-9,2.55c-2.16,2.12-1.54,4.48,1.41,5.2a10.72,10.72,0,0,0,9.16-2.63C70.91,75.07,70.2,72.78,67.27,72.1Z"/><path class="cls-2" d="M149,68.74c-3.15-.69-7,.42-8.71,2.53s-.59,4.5,2.61,5.23,7.19-.47,8.85-2.61S152.19,69.44,149,68.74Z"/><path class="cls-2" d="M113.57,65.48c-1.77,2.06-.78,4.28,2.26,5s7.08-.52,8.81-2.61.58-4.26-2.49-4.89S115.33,63.44,113.57,65.48Z"/><path class="cls-2" d="M104.21,21.32c2.61.47,6-.4,7.53-2s.74-3.16-1.84-3.6-6,.45-7.5,2S101.63,20.86,104.21,21.32Z"/><path class="cls-2" d="M134.16,59.54c-1.65,2-.56,4.16,2.48,4.81s7-.48,8.6-2.51.42-4.11-2.61-4.74S135.83,57.54,134.16,59.54Z"/><path class="cls-2" d="M223,39.18c1.08-1.8-.56-3.66-3.65-4.18s-6.57.51-7.69,2.28.49,3.7,3.67,4.24S221.91,41,223,39.18Z"/><path class="cls-2" d="M70.4,46c1.87-1.8,1.2-3.66-1.47-4.2a10.49,10.49,0,0,0-8.27,2.24c-1.89,1.77-1.28,3.71,1.37,4.27A10.45,10.45,0,0,0,70.4,46Z"/><path class="cls-2" d="M186.73,70.62c1.46-2.16,0-4.41-3.34-5.08s-7,.48-8.51,2.56-.06,4.46,3.23,5.16S185.28,72.76,186.73,70.62Z"/><path class="cls-2" d="M101.39,69a10.1,10.1,0,0,0-8.89,2.56c-1.93,2.11-1.09,4.4,1.91,5.11s7.17-.49,9-2.64S104.38,69.63,101.39,69Z"/><path class="cls-2" d="M82.28,17.34a9.76,9.76,0,0,0,7.5-2c1.59-1.48.87-3-1.59-3.44a10,10,0,0,0-7.43,1.93C79.12,15.34,79.79,16.9,82.28,17.34Z"/><path class="cls-2" d="M106.37,81.33a10.11,10.11,0,0,0-9.19,2.73c-2,2.27-1.08,4.73,2.07,5.5s7.42-.5,9.35-2.81S109.49,82.07,106.37,81.33Z"/><path class="cls-2" d="M166.46,100.68c1.67-2.49.22-5.11-3.23-5.93s-7.64.47-9.38,2.93-.33,5.2,3.2,6S164.77,103.2,166.46,100.68Z"/><path class="cls-2" d="M53.08,62.45c2.1-2,1.57-4-1.15-4.66a10.82,10.82,0,0,0-8.75,2.34c-2.14,2-1.66,4.11,1.1,4.75A10.79,10.79,0,0,0,53.08,62.45Z"/><path class="cls-2" d="M188.7,93.61c1.53-2.43-.09-5-3.63-5.76s-7.5.51-9.06,2.86,0,5,3.43,5.85S187.15,96.07,188.7,93.61Z"/><path class="cls-2" d="M63.82,60.47a10.73,10.73,0,0,0-8.74,2.4c-2.09,2-1.52,4.19,1.3,4.85a10.61,10.61,0,0,0,8.89-2.53C67.29,63.18,66.63,61.1,63.82,60.47Z"/><path class="cls-2" d="M40.21,55.14a11,11,0,0,0-8.65,2.3c-2.19,1.93-1.82,4,.87,4.67a11,11,0,0,0,8.82-2.42C43.36,57.76,42.88,55.75,40.21,55.14Z"/><path class="cls-2" d="M31.8,68.32c2.23-2,1.82-4.15-.87-4.8a11.18,11.18,0,0,0-9,2.41c-2.28,2-1.93,4.22.82,4.89A11.21,11.21,0,0,0,31.8,68.32Z"/><path class="cls-2" d="M178.32,98.31c-3.53-.82-7.69.5-9.36,3s-.15,5.34,3.45,6.22,7.91-.53,9.51-3.14S181.88,99.14,178.32,98.31Z"/><path class="cls-2" d="M196.24,47c3.12.59,6.68-.43,8-2.29s-.22-3.81-3.3-4.38-6.63.45-7.91,2.28S193.14,46.41,196.24,47Z"/><path class="cls-2" d="M110.85,87.3c-1.95,2.32-1,4.85,2.23,5.65s7.51-.46,9.41-2.82.78-4.82-2.46-5.58S112.78,85,110.85,87.3Z"/><path class="cls-2" d="M60.63,49.63a10.68,10.68,0,0,0-8.45,2.24c-2.06,1.86-1.57,3.92,1.13,4.54a10.62,10.62,0,0,0,8.62-2.35C63.92,52.18,63.33,50.23,60.63,49.63Z"/><path class="cls-2" d="M105.6,74.51c-1.91,2.18-1,4.53,2.17,5.25s7.19-.51,9-2.68.78-4.49-2.33-5.17A9.92,9.92,0,0,0,105.6,74.51Z"/><path class="cls-2" d="M160.77,45.58c-1.47,1.84-.27,3.83,2.75,4.44s6.73-.44,8.17-2.33.08-3.86-2.92-4.41S162.23,43.75,160.77,45.58Z"/><path class="cls-2" d="M177,74.79c-3.3-.71-7.2.48-8.76,2.67s-.14,4.7,3.23,5.44,7.39-.53,8.91-2.82S180.32,75.5,177,74.79Z"/><path class="cls-2" d="M93.17,19.32c2.58.44,5.92-.44,7.51-2s.74-3.07-1.77-3.49a9.86,9.86,0,0,0-7.46,2C89.86,17.3,90.62,18.87,93.17,19.32Z"/><path class="cls-2" d="M85.84,26.11a9.8,9.8,0,0,0,7.73-2.05c1.63-1.57.87-3.21-1.65-3.67a10.08,10.08,0,0,0-7.67,2C82.58,24,83.28,25.63,85.84,26.11Z"/><path class="cls-2" d="M73.91,56.68c1.93-1.92,1.24-3.91-1.52-4.5a10.48,10.48,0,0,0-8.54,2.33c-2,1.89-1.33,4,1.4,4.58A10.44,10.44,0,0,0,73.91,56.68Z"/><path class="cls-2" d="M142.1,33.14c-1.51,1.71-.46,3.52,2.39,4.07s6.44-.44,7.9-2.18.29-3.51-2.5-4S143.6,31.44,142.1,33.14Z"/><path class="cls-2" d="M141.22,51.14c-1.58,1.9-.45,4,2.54,4.57s6.81-.48,8.36-2.42.29-3.93-2.67-4.51S142.8,49.23,141.22,51.14Z"/><path class="cls-2" d="M185,50.29c1.38-1.91,0-3.94-3.11-4.51s-6.63.47-8,2.32-.09,4,3,4.56S183.64,52.19,185,50.29Z"/><path class="cls-2" d="M191.54,77.94c-3.38-.73-7.3.47-8.8,2.7s0,4.8,3.47,5.57,7.51-.52,8.95-2.86S195,78.67,191.54,77.94Z"/><path class="cls-2" d="M126.77,68.35c-1.76,2.11-.67,4.4,2.47,5.08s7.1-.51,8.79-2.62.51-4.35-2.62-5S128.51,66.27,126.77,68.35Z"/><path class="cls-2" d="M198.67,52.92c1.3-1.93-.19-4-3.3-4.57s-6.79.46-8.14,2.36.12,4,3.3,4.64S197.36,54.87,198.67,52.92Z"/><path class="cls-2" d="M173.56,90.16c1.61-2.37.17-4.85-3.21-5.63s-7.45.43-9.11,2.76S161,92.24,164.4,93,171.94,92.53,173.56,90.16Z"/><path class="cls-2" d="M119,77.59c-1.87,2.22-.81,4.63,2.4,5.37s7.26-.51,9.05-2.73.63-4.58-2.56-5.29S120.84,75.41,119,77.59Z"/><path class="cls-2" d="M75,28.92c1.75-1.61,1.11-3.31-1.39-3.78a10.32,10.32,0,0,0-7.83,2c-1.8,1.6-1.22,3.32,1.31,3.82A10.23,10.23,0,0,0,75,28.92Z"/><path class="cls-2" d="M218,47.21c1.14-1.88-.49-3.86-3.62-4.42s-6.71.5-7.91,2.35S206.79,49,210,49.6,216.77,49.13,218,47.21Z"/><path class="cls-2" d="M148,43.08c-1.54,1.84-.4,3.82,2.58,4.39s6.61-.47,8.09-2.3.24-3.79-2.69-4.33S149.5,41.29,148,43.08Z"/><path class="cls-2" d="M192.86,61.53c1.35-2-.14-4.15-3.33-4.79s-6.93.47-8.34,2.48,0,4.2,3.24,4.86S191.48,63.6,192.86,61.53Z"/><path class="cls-2" d="M201.28,73.65c1.35-2.18-.25-4.45-3.59-5.15s-7.2.48-8.61,2.62.16,4.52,3.49,5.24S199.9,75.87,201.28,73.65Z"/><path class="cls-2" d="M201.77,39.06c3.12.56,6.56-.44,7.76-2.25s-.35-3.6-3.35-4.13-6.48.46-7.7,2.21S198.71,38.5,201.77,39.06Z"/><path class="cls-2" d="M163.23,32.05c2.88.52,6.31-.43,7.67-2.11s.1-3.45-2.74-3.94-6.23.45-7.61,2.12S160.35,31.53,163.23,32.05Z"/><path class="cls-2" d="M97.05,28.23a9.69,9.69,0,0,0,7.73-2c1.67-1.61.88-3.3-1.72-3.79a10,10,0,0,0-7.7,2C93.7,26,94.45,27.73,97.05,28.23Z"/><path class="cls-2" d="M80,75.1a10.62,10.62,0,0,0-9.08,2.59c-2.12,2.16-1.41,4.58,1.6,5.32a10.6,10.6,0,0,0,9.22-2.67C83.79,78.16,83,75.81,80,75.1Z"/><path class="cls-2" d="M154.25,53.76c-1.54,1.93-.33,4,2.72,4.67s6.9-.46,8.4-2.44.19-4-2.84-4.61S155.79,51.82,154.25,53.76Z"/><path class="cls-2" d="M78.41,38.43c1.84-1.73,1.16-3.54-1.48-4a10.33,10.33,0,0,0-8,2.11c-1.87,1.71-1.25,3.58,1.39,4.11A10.24,10.24,0,0,0,78.41,38.43Z"/><path class="cls-2" d="M109.35,60.17a10,10,0,0,0-8.59,2.41c-1.89,2-1,4.24,2,4.91s6.92-.48,8.74-2.49S112.32,60.81,109.35,60.17Z"/><path class="cls-2" d="M148.44,91.26c-3.39-.8-7.51.48-9.31,2.9s-.53,5,2.87,5.88,7.68-.51,9.44-3S151.82,92.05,148.44,91.26Z"/><path class="cls-2" d="M134.07,87.87c-3.26-.78-7.35.45-9.23,2.78s-.81,5,2.53,5.8,7.55-.48,9.38-2.86S137.39,88.65,134.07,87.87Z"/><path class="cls-2" d="M57.72,34.27c-1.86,1.67-1.31,3.48,1.25,4a10.39,10.39,0,0,0,8.12-2.17c1.83-1.68,1.21-3.45-1.35-4A10.48,10.48,0,0,0,57.72,34.27Z"/><path class="cls-2" d="M138.83,27.62c2.76.51,6.23-.42,7.68-2.05s.35-3.3-2.33-3.79-6.1.42-7.58,2S136.09,27.11,138.83,27.62Z"/><path class="cls-2" d="M127.08,25.48c2.69.48,6.11-.42,7.6-2s.48-3.28-2.19-3.74-6,.43-7.52,2S124.37,25,127.08,25.48Z"/><path class="cls-2" d="M77.69,68.08c2-2.06,1.23-4.21-1.68-4.85a10.55,10.55,0,0,0-8.77,2.47c-2,2-1.34,4.27,1.56,4.93A10.54,10.54,0,0,0,77.69,68.08Z"/><path class="cls-2" d="M76.74,29.31c-1.75,1.62-1.1,3.37,1.48,3.89a10,10,0,0,0,7.94-2.12c1.71-1.63,1-3.35-1.55-3.84A10.19,10.19,0,0,0,76.74,29.31Z"/><path class="cls-2" d="M115.56,23.39c2.65.46,6-.45,7.55-2s.57-3.21-2.06-3.65-6,.45-7.48,2S112.89,22.92,115.56,23.39Z"/><path class="cls-2" d="M129.64,54.41c-2.95-.62-6.66.43-8.39,2.36s-.76,4.12,2.24,4.76,6.91-.49,8.57-2.48S132.6,55,129.64,54.41Z"/><path class="cls-2" d="M81.5,73.61A10.42,10.42,0,0,0,90.43,71c1.93-2.09,1-4.29-1.92-4.94a10.37,10.37,0,0,0-8.8,2.53C77.73,70.67,78.52,72.93,81.5,73.61Z"/><path class="cls-2" d="M90,64.62c2.91.65,6.93-.5,8.74-2.5s.93-4.06-2-4.68a10.19,10.19,0,0,0-8.57,2.38C86.25,61.78,87,64,90,64.62Z"/><path class="cls-2" d="M128.47,48.6c-1.61,1.87-.54,3.89,2.39,4.46s6.76-.51,8.32-2.42.36-3.86-2.53-4.4S130.07,46.72,128.47,48.6Z"/><path class="cls-2" d="M178.94,58.74c1.44-2,0-4.12-3.12-4.72s-6.78.47-8.25,2.42-.14,4.17,3,4.79S177.5,60.74,178.94,58.74Z"/><path class="cls-2" d="M84.42,54.78a10.34,10.34,0,0,0-8.53,2.33c-2,1.93-1.26,4.08,1.57,4.71a10.33,10.33,0,0,0,8.7-2.45C88,57.41,87.25,55.38,84.42,54.78Z"/><path class="cls-2" d="M212.64,55.62c1.23-2-.37-4-3.56-4.66s-6.87.48-8.15,2.41.31,4.12,3.56,4.74S211.4,57.61,212.64,55.62Z"/><path class="cls-2" d="M82.16,48.54c1.84-1.83,1.13-3.73-1.58-4.3a10.37,10.37,0,0,0-8.32,2.24c-1.87,1.8-1.22,3.78,1.47,4.37A10.27,10.27,0,0,0,82.16,48.54Z"/><path class="cls-2" d="M97.57,33.34c1.72-1.69.94-3.46-1.7-4A10.13,10.13,0,0,0,88,31.45c-1.75,1.66-1,3.48,1.63,4A9.92,9.92,0,0,0,97.57,33.34Z"/><path class="cls-2" d="M80.32,38.79c-1.83,1.73-1.13,3.65,1.56,4.19A10.08,10.08,0,0,0,90,40.78c1.79-1.76,1-3.6-1.66-4.13A10.22,10.22,0,0,0,80.32,38.79Z"/><path class="cls-2" d="M207.09,64.42c1.31-2.08-.33-4.28-3.63-4.91s-7,.5-8.31,2.51.2,4.28,3.47,5S205.77,66.53,207.09,64.42Z"/><path class="cls-2" d="M135.46,40.67c-1.58,1.78-.55,3.7,2.33,4.28s6.59-.45,8.12-2.26.38-3.68-2.45-4.23S137,38.89,135.46,40.67Z"/><path class="cls-2" d="M108.57,30.41c2.68.5,6.15-.42,7.76-2.06s.7-3.37-2-3.85-6.16.47-7.73,2.07S105.9,29.91,108.57,30.41Z"/><path class="cls-2" d="M132.23,34.89c2.8.54,6.37-.42,7.89-2.13s.43-3.45-2.29-4-6.23.41-7.78,2.09S129.45,34.35,132.23,34.89Z"/><path class="cls-2" d="M101.85,43.23c1.8-1.75,1-3.66-1.72-4.25A10.14,10.14,0,0,0,92,41.1c-1.84,1.73-1.11,3.7,1.62,4.3A10,10,0,0,0,101.85,43.23Z"/><path class="cls-2" d="M96.21,51.49c-1.82,1.85-1,3.92,1.77,4.56a10.05,10.05,0,0,0,8.53-2.33c1.78-1.86.91-3.88-1.89-4.49A10,10,0,0,0,96.21,51.49Z"/><path class="cls-2" d="M123.22,38.27c-1.65,1.76-.69,3.68,2.16,4.23s6.45-.45,8-2.21.54-3.65-2.27-4.18S124.85,36.54,123.22,38.27Z"/><path class="cls-2" d="M120.38,32.64c2.77.48,6.29-.5,7.76-2.15s.46-3.43-2.26-3.88-6.18.5-7.68,2.12S117.6,32.16,120.38,32.64Z"/><path class="cls-2" d="M116,46.07c-1.65,1.85-.68,3.82,2.18,4.38s6.7-.51,8.29-2.36.52-3.79-2.31-4.33S117.65,44.24,116,46.07Z"/><path class="cls-2" d="M92.46,46.71A10.18,10.18,0,0,0,84.1,49c-1.84,1.83-1.12,3.85,1.63,4.46A10.16,10.16,0,0,0,94.2,51.1C96,49.24,95.22,47.29,92.46,46.71Z"/><path class="cls-2" d="M113.27,40.11c2.86.51,6.52-.53,8-2.27s.51-3.56-2.22-4-6.4.52-7.92,2.22S110.51,39.62,113.27,40.11Z"/><path class="cls-2" d="M109.33,35.53c1.59-1.72.68-3.49-2-4s-6.31.51-7.91,2.18-.77,3.51,1.92,4S107.75,37.25,109.33,35.53Z"/><path class="cls-2" d="M108.6,54.1c-1.81,1.93-.91,4,2,4.67s6.76-.47,8.5-2.39.75-4-2.16-4.6S110.37,52.21,108.6,54.1Z"/><path class="cls-2" d="M111.93,41.33c-2.84-.51-6.45.51-8.09,2.27s-.79,3.8,2,4.32,6.68-.56,8.24-2.38S114.71,41.82,111.93,41.33Z"/></g><path class="cls-3" d="M30,66.64c-.16,1.49-1,3-2.83,2.87s-3.74-1.58-3.58-3.08A2.78,2.78,0,0,1,26.82,64C28.68,64.15,30.15,65.14,30,66.64Z"/><ellipse class="cls-4" cx="25.85" cy="66.7" rx="0.85" ry="1.19" transform="translate(-42.83 86.72) rotate(-85.07)"/><path class="cls-3" d="M39.79,58c-.16,1.49-1,3-2.83,2.87s-3.74-1.58-3.58-3.08a2.78,2.78,0,0,1,3.24-2.46C38.47,55.45,40,56.45,39.79,58Z"/><ellipse class="cls-4" cx="35.64" cy="58.01" rx="0.85" ry="1.19" transform="matrix(0.09, -1, 1, 0.09, -25.22, 88.54)"/><path class="cls-3" d="M42.72,52.56c-.81-1.26-1.14-3,.41-4s3.89-1.14,4.7.12a2.81,2.81,0,0,1-1,4C45.31,53.66,43.53,53.82,42.72,52.56Z"/><ellipse class="cls-4" cx="45.9" cy="49.88" rx="1.19" ry="0.85" transform="translate(-20.24 35.04) rotate(-34.73)"/><path class="cls-3" d="M51.82,44.62c-.81-1.26-1.15-3,.4-4s3.9-1.14,4.71.12a2.81,2.81,0,0,1-1,4C54.4,45.72,52.63,45.88,51.82,44.62Z"/><ellipse class="cls-4" cx="55" cy="41.94" rx="1.19" ry="0.85" transform="translate(-14.1 38.81) rotate(-34.73)"/><path class="cls-3" d="M59.83,36.93c-.81-1.26-1.15-3,.4-4s3.89-1.15,4.7.12a2.79,2.79,0,0,1-1,4C62.41,38,60.64,38.19,59.83,36.93Z"/><ellipse class="cls-4" cx="63.01" cy="34.25" rx="1.19" ry="0.85" transform="translate(-8.29 42) rotate(-34.73)"/><path class="cls-3" d="M68.2,29.36c-.82-1.26-1.15-3,.4-4s3.89-1.15,4.7.12a2.79,2.79,0,0,1-1,4C70.78,30.46,69,30.62,68.2,29.36Z"/><ellipse class="cls-4" cx="71.37" cy="26.68" rx="1.19" ry="0.85" transform="translate(-2.48 45.42) rotate(-34.73)"/><path class="cls-3" d="M75,22.77c-.81-1.27-1.15-3,.4-4s3.89-1.14,4.71.12a2.81,2.81,0,0,1-1,4C77.57,23.87,75.8,24,75,22.77Z"/><ellipse class="cls-4" cx="78.17" cy="20.09" rx="1.19" ry="0.85" transform="translate(2.48 48.12) rotate(-34.73)"/><path class="cls-3" d="M83,15.56c-.81-1.26-1.14-3,.41-4s3.89-1.14,4.7.12a2.82,2.82,0,0,1-1,4C85.58,16.66,83.8,16.82,83,15.56Z"/><ellipse class="cls-4" cx="86.17" cy="12.88" rx="1.19" ry="0.85" transform="translate(8.02 51.39) rotate(-34.73)"/><path class="cls-3" d="M41,68.71c-.16,1.5-1,3.05-2.83,2.87S34.46,70,34.62,68.51A2.79,2.79,0,0,1,37.86,66C39.71,66.22,41.19,67.22,41,68.71Z"/><ellipse class="cls-4" cx="36.88" cy="68.78" rx="0.85" ry="1.19" transform="translate(-34.81 99.62) rotate(-85.07)"/><path class="cls-3" d="M50.83,60c-.16,1.5-1,3-2.83,2.87s-3.74-1.58-3.58-3.07a2.79,2.79,0,0,1,3.24-2.47C49.51,57.53,51,58.53,50.83,60Z"/><ellipse class="cls-4" cx="46.68" cy="60.09" rx="0.85" ry="1.19" transform="translate(-17.2 101.44) rotate(-85.07)"/><path class="cls-3" d="M53.76,54.63c-.81-1.26-1.14-3,.4-4s3.9-1.14,4.71.12a2.81,2.81,0,0,1-1,4C56.34,55.73,54.57,55.89,53.76,54.63Z"/><ellipse class="cls-4" cx="56.94" cy="51.95" rx="1.19" ry="0.85" transform="translate(-19.45 41.7) rotate(-34.73)"/><path class="cls-3" d="M62.86,46.7c-.81-1.27-1.15-3,.4-4s3.9-1.14,4.71.12a2.81,2.81,0,0,1-1,4C65.44,47.8,63.67,48,62.86,46.7Z"/><ellipse class="cls-4" cx="66.04" cy="44.02" rx="1.19" ry="0.85" transform="translate(-13.31 45.47) rotate(-34.73)"/><path class="cls-3" d="M70.86,39c-.81-1.26-1.14-3,.41-4s3.89-1.14,4.7.12a2.81,2.81,0,0,1-1,4C73.45,40.11,71.68,40.27,70.86,39Z"/><ellipse class="cls-4" cx="74.04" cy="36.32" rx="1.19" ry="0.85" transform="translate(-7.5 48.66) rotate(-34.73)"/><path class="cls-3" d="M79.23,31.44c-.81-1.27-1.14-3,.41-4s3.89-1.14,4.7.12a2.82,2.82,0,0,1-1,4C81.82,32.54,80,32.7,79.23,31.44Z"/><ellipse class="cls-4" cx="82.41" cy="28.75" rx="1.19" ry="0.85" transform="translate(-1.7 52.08) rotate(-34.73)"/><path class="cls-3" d="M86,24.84c-.82-1.26-1.15-3,.4-4s3.89-1.14,4.7.12a2.81,2.81,0,0,1-1,4C88.61,25.94,86.84,26.1,86,24.84Z"/><ellipse class="cls-4" cx="89.21" cy="22.16" rx="1.19" ry="0.85" transform="translate(3.27 54.77) rotate(-34.73)"/><path class="cls-3" d="M94,17.64c-.81-1.26-1.14-3,.4-4s3.9-1.15,4.71.12a2.8,2.8,0,0,1-1,4C96.61,18.74,94.84,18.9,94,17.64Z"/><ellipse class="cls-4" cx="97.21" cy="14.96" rx="1.19" ry="0.85" transform="matrix(0.82, -0.57, 0.57, 0.82, 8.8, 58.05)"/><path class="cls-3" d="M53.52,71c-.16,1.5-1,3-2.83,2.87S47,72.32,47.11,70.83a2.79,2.79,0,0,1,3.24-2.47C52.21,68.54,53.68,69.54,53.52,71Z"/><ellipse class="cls-4" cx="49.38" cy="71.1" rx="0.85" ry="1.19" transform="translate(-25.7 114.19) rotate(-85.07)"/><path class="cls-3" d="M63.32,62.34c-.16,1.5-1,3-2.83,2.87s-3.74-1.58-3.58-3.07a2.79,2.79,0,0,1,3.24-2.47C62,59.85,63.48,60.85,63.32,62.34Z"/><ellipse class="cls-4" cx="59.18" cy="62.41" rx="0.85" ry="1.19" transform="matrix(0.09, -1, 1, 0.09, -8.09, 116)"/><path class="cls-3" d="M66.25,57c-.81-1.26-1.14-3,.41-4s3.89-1.14,4.7.12a2.81,2.81,0,0,1-1,4C68.84,58.05,67.07,58.21,66.25,57Z"/><ellipse class="cls-4" cx="69.43" cy="54.27" rx="1.19" ry="0.85" transform="translate(-18.55 49.23) rotate(-34.73)"/><path class="cls-3" d="M75.35,49c-.81-1.27-1.14-3,.41-4s3.89-1.14,4.7.12a2.81,2.81,0,0,1-1,4C77.93,50.12,76.16,50.28,75.35,49Z"/><ellipse class="cls-4" cx="78.53" cy="46.34" rx="1.19" ry="0.85" transform="translate(-12.41 53) rotate(-34.73)"/><path class="cls-3" d="M83.36,41.32c-.81-1.26-1.15-3,.4-4s3.89-1.14,4.71.12a2.81,2.81,0,0,1-1,4C85.94,42.43,84.17,42.59,83.36,41.32Z"/><ellipse class="cls-4" cx="86.54" cy="38.64" rx="1.19" ry="0.85" transform="translate(-6.6 56.19) rotate(-34.73)"/><path class="cls-3" d="M91.73,33.75c-.81-1.26-1.15-3,.4-4s3.89-1.14,4.7.12a2.8,2.8,0,0,1-1,4C94.31,34.86,92.54,35,91.73,33.75Z"/><ellipse class="cls-4" cx="94.91" cy="31.07" rx="1.19" ry="0.85" transform="translate(-0.79 59.61) rotate(-34.73)"/><path class="cls-3" d="M98.52,27.16c-.81-1.26-1.15-3,.4-4s3.9-1.14,4.71.12a2.81,2.81,0,0,1-1,4C101.1,28.26,99.33,28.42,98.52,27.16Z"/><ellipse class="cls-4" cx="101.7" cy="24.48" rx="1.19" ry="0.85" transform="translate(4.17 62.31) rotate(-34.73)"/><path class="cls-3" d="M106.52,20c-.81-1.26-1.14-3,.41-4s3.89-1.14,4.7.13a2.79,2.79,0,0,1-1,4C109.11,21.06,107.34,21.22,106.52,20Z"/><ellipse class="cls-4" cx="109.7" cy="17.28" rx="1.19" ry="0.85" transform="translate(9.7 65.58) rotate(-34.73)"/><path class="cls-5" d="M66.08,74.4c-.15,1.55-.92,3.17-2.67,3s-3.53-1.64-3.38-3.2a2.69,2.69,0,0,1,3.06-2.56C64.84,71.81,66.23,72.85,66.08,74.4Z"/><ellipse class="cls-4" cx="62.17" cy="74.47" rx="0.88" ry="1.12" transform="translate(-19.27 127.17) rotate(-83.05)"/><path class="cls-5" d="M75.33,65.36c-.15,1.56-.92,3.17-2.67,3s-3.53-1.65-3.38-3.2a2.69,2.69,0,0,1,3.06-2.56C74.09,62.77,75.48,63.81,75.33,65.36Z"/><ellipse class="cls-4" cx="71.42" cy="65.43" rx="0.88" ry="1.12" transform="translate(-2.17 128.41) rotate(-83.05)"/><path class="cls-5" d="M78.1,59.76c-.76-1.31-1.08-3.1.38-4.18s3.68-1.19,4.44.12A3.09,3.09,0,0,1,82,59.83C80.54,60.91,78.87,61.07,78.1,59.76Z"/><ellipse class="cls-4" cx="81.1" cy="56.98" rx="1.17" ry="0.85" transform="translate(-17.01 71.01) rotate(-43.23)"/><path class="cls-5" d="M86.69,51.51c-.77-1.31-1.08-3.1.38-4.18s3.68-1.19,4.44.13a3.08,3.08,0,0,1-.92,4.12C89.13,52.66,87.46,52.82,86.69,51.51Z"/><ellipse class="cls-4" cx="89.69" cy="48.73" rx="1.17" ry="0.85" transform="translate(-9.03 74.65) rotate(-43.23)"/><path class="cls-5" d="M94.25,43.52c-.77-1.31-1.08-3.11.38-4.19s3.67-1.18,4.44.13a3.09,3.09,0,0,1-.92,4.12C96.68,44.66,95,44.83,94.25,43.52Z"/><ellipse class="cls-4" cx="97.25" cy="40.73" rx="1.17" ry="0.85" transform="translate(-1.51 77.66) rotate(-43.23)"/><path class="cls-5" d="M102.15,35.65c-.77-1.31-1.08-3.11.38-4.18s3.67-1.19,4.44.12a3.08,3.08,0,0,1-.92,4.12C104.59,36.79,102.91,37,102.15,35.65Z"/><ellipse class="cls-4" cx="105.15" cy="32.86" rx="1.17" ry="0.85" transform="translate(6.03 80.94) rotate(-43.23)"/><path class="cls-5" d="M108.56,28.79c-.76-1.31-1.08-3.1.38-4.18s3.68-1.18,4.44.13a3.08,3.08,0,0,1-.92,4.12C111,29.94,109.33,30.11,108.56,28.79Z"/><ellipse class="cls-4" cx="111.56" cy="26.01" rx="1.17" ry="0.85" transform="translate(12.46 83.47) rotate(-43.23)"/><path class="cls-5" d="M116.12,21.31c-.77-1.32-1.08-3.11.38-4.19s3.67-1.18,4.44.13a3.08,3.08,0,0,1-.92,4.12C118.56,22.45,116.88,22.62,116.12,21.31Z"/><ellipse class="cls-4" cx="119.12" cy="18.52" rx="1.17" ry="0.85" transform="translate(19.64 86.61) rotate(-43.23)"/><path class="cls-6" d="M79.17,78.32c-.15,1.61-.9,3.28-2.59,3.09s-3.41-1.7-3.27-3.31a2.67,2.67,0,0,1,3-2.65C78,75.64,79.31,76.71,79.17,78.32Z"/><ellipse class="cls-4" cx="75.38" cy="78.39" rx="0.91" ry="1.09" transform="translate(-14.56 139.53) rotate(-80.33)"/><path class="cls-6" d="M88.11,69c-.14,1.61-.89,3.28-2.58,3.09s-3.41-1.7-3.27-3.31a2.67,2.67,0,0,1,3-2.65C86.91,66.28,88.26,67.35,88.11,69Z"/><ellipse class="cls-4" cx="84.33" cy="69.03" rx="0.91" ry="1.09" transform="translate(2.11 140.56) rotate(-80.33)"/><path class="cls-6" d="M90.79,63.16c-.74-1.36-1-3.22.37-4.34s3.56-1.23,4.3.13a3.36,3.36,0,0,1-.89,4.28C93.15,64.34,91.53,64.52,90.79,63.16Z"/><ellipse class="cls-4" cx="93.7" cy="60.27" rx="1.17" ry="0.85" transform="translate(-12.96 92.46) rotate(-49.54)"/><path class="cls-6" d="M99.1,54.61c-.74-1.36-1-3.22.37-4.33s3.56-1.23,4.3.13a3.34,3.34,0,0,1-.9,4.27C101.46,55.8,99.84,56,99.1,54.61Z"/><ellipse class="cls-4" cx="102" cy="51.72" rx="1.17" ry="0.85" transform="translate(-3.54 95.78) rotate(-49.54)"/><path class="cls-6" d="M106.41,46.33c-.74-1.36-1-3.22.37-4.34s3.56-1.22,4.3.13a3.36,3.36,0,0,1-.89,4.28C108.77,47.51,107.15,47.69,106.41,46.33Z"/><ellipse class="cls-4" cx="109.32" cy="43.44" rx="1.17" ry="0.85" transform="translate(5.33 98.43) rotate(-49.54)"/><path class="cls-6" d="M114.06,38.18c-.74-1.36-1-3.22.36-4.34s3.56-1.23,4.3.13a3.34,3.34,0,0,1-.89,4.27C116.41,39.36,114.8,39.54,114.06,38.18Z"/><ellipse class="cls-4" cx="116.96" cy="35.29" rx="1.17" ry="0.85" transform="translate(14.22 101.39) rotate(-49.54)"/><path class="cls-6" d="M120.26,31.08c-.74-1.36-1.05-3.22.37-4.34s3.55-1.23,4.29.13a3.33,3.33,0,0,1-.89,4.27C122.62,32.26,121,32.44,120.26,31.08Z"/><ellipse class="cls-4" cx="123.16" cy="28.19" rx="1.17" ry="0.85" transform="translate(21.8 103.61) rotate(-49.54)"/><path class="cls-6" d="M127.57,23.32c-.74-1.36-1-3.22.37-4.33s3.55-1.23,4.29.13a3.32,3.32,0,0,1-.89,4.27C129.93,24.5,128.31,24.68,127.57,23.32Z"/><ellipse class="cls-4" cx="130.47" cy="20.43" rx="1.17" ry="0.85" transform="translate(30.27 106.45) rotate(-49.54)"/><path class="cls-7" d="M91.65,80.32c-.15,1.62-.88,3.3-2.55,3.1s-3.38-1.71-3.23-3.33a2.63,2.63,0,0,1,2.92-2.66C90.46,77.62,91.79,78.7,91.65,80.32Z"/><ellipse class="cls-4" cx="87.91" cy="80.39" rx="0.92" ry="1.07" transform="translate(-7.48 151.74) rotate(-79.24)"/><path class="cls-7" d="M100.49,70.9c-.15,1.62-.89,3.3-2.56,3.11s-3.37-1.71-3.22-3.33A2.65,2.65,0,0,1,97.63,68C99.3,68.2,100.63,69.28,100.49,70.9Z"/><ellipse class="cls-4" cx="96.75" cy="70.98" rx="0.92" ry="1.07" transform="translate(8.95 152.77) rotate(-79.24)"/><path class="cls-7" d="M103.13,65.07c-.73-1.37-1-3.24.37-4.36s3.51-1.24,4.24.13a3.41,3.41,0,0,1-.88,4.3C105.46,66.26,103.86,66.43,103.13,65.07Z"/><ellipse class="cls-4" cx="106" cy="62.16" rx="1.17" ry="0.84" transform="translate(-8.89 105.76) rotate(-51.17)"/><path class="cls-7" d="M111.34,56.47c-.73-1.37-1-3.23.36-4.36s3.51-1.23,4.25.13a3.42,3.42,0,0,1-.88,4.3C113.67,57.66,112.07,57.84,111.34,56.47Z"/><ellipse class="cls-4" cx="114.21" cy="53.57" rx="1.17" ry="0.84" transform="translate(0.87 108.94) rotate(-51.17)"/><path class="cls-7" d="M118.56,48.14c-.73-1.37-1-3.24.36-4.36s3.52-1.24,4.25.13a3.42,3.42,0,0,1-.88,4.3C120.89,49.33,119.29,49.51,118.56,48.14Z"/><ellipse class="cls-4" cx="121.43" cy="45.24" rx="1.17" ry="0.84" transform="translate(10.05 111.46) rotate(-51.17)"/><path class="cls-7" d="M126.11,39.94c-.73-1.37-1-3.23.36-4.36s3.52-1.23,4.25.13a3.42,3.42,0,0,1-.88,4.3C128.44,41.13,126.84,41.31,126.11,39.94Z"/><ellipse class="cls-4" cx="128.98" cy="37.04" rx="1.17" ry="0.84" transform="translate(19.25 114.28) rotate(-51.17)"/><path class="cls-7" d="M132.24,32.8c-.73-1.37-1-3.24.36-4.36s3.51-1.24,4.24.13a3.39,3.39,0,0,1-.88,4.3C134.57,34,133,34.17,132.24,32.8Z"/><ellipse class="cls-4" cx="135.11" cy="29.9" rx="1.17" ry="0.84" transform="translate(27.1 116.39) rotate(-51.17)"/><path class="cls-7" d="M139.46,25c-.73-1.37-1-3.24.36-4.36s3.51-1.24,4.25.13a3.42,3.42,0,0,1-.88,4.3C141.79,26.19,140.19,26.36,139.46,25Z"/><ellipse class="cls-4" cx="142.33" cy="22.09" rx="1.17" ry="0.84" transform="translate(35.87 119.11) rotate(-51.17)"/><path class="cls-8" d="M104.57,83.21c-.14,1.64-.86,3.34-2.48,3.14S98.83,84.62,99,83s1.21-2.9,2.83-2.7S104.71,81.57,104.57,83.21Z"/><ellipse class="cls-4" cx="100.94" cy="83.28" rx="0.92" ry="1.04" transform="translate(-5.04 160.05) rotate(-75.44)"/><path class="cls-8" d="M113.13,73.69c-.14,1.64-.85,3.34-2.47,3.14s-3.27-1.73-3.13-3.37,1.21-2.89,2.83-2.69S113.27,72.05,113.13,73.69Z"/><ellipse class="cls-4" cx="109.51" cy="73.76" rx="0.92" ry="1.04" transform="translate(10.58 161.21) rotate(-75.44)"/><path class="cls-8" d="M115.7,67.78c-.71-1.38-1-3.27.35-4.4s3.4-1.25,4.11.13a3.54,3.54,0,0,1-.85,4.34C118,69,116.41,69.17,115.7,67.78Z"/><ellipse class="cls-4" cx="118.48" cy="64.85" rx="1.16" ry="0.83" transform="translate(-2.75 124.4) rotate(-54.86)"/><path class="cls-8" d="M123.65,59.09c-.71-1.38-1-3.27.35-4.41s3.4-1.25,4.11.13a3.55,3.55,0,0,1-.85,4.35C125.91,60.3,124.36,60.47,123.65,59.09Z"/><ellipse class="cls-4" cx="126.43" cy="56.15" rx="1.16" ry="0.83" transform="translate(7.74 127.21) rotate(-54.86)"/><path class="cls-8" d="M130.65,50.66c-.71-1.38-1-3.27.35-4.4s3.4-1.26,4.11.13a3.54,3.54,0,0,1-.85,4.34C132.9,51.87,131.35,52.05,130.65,50.66Z"/><ellipse class="cls-4" cx="133.42" cy="47.73" rx="1.16" ry="0.83" transform="translate(17.6 129.36) rotate(-54.86)"/><path class="cls-8" d="M138,42.37c-.71-1.38-1-3.27.35-4.41s3.41-1.25,4.12.13a3.55,3.55,0,0,1-.86,4.35C140.22,43.58,138.67,43.75,138,42.37Z"/><ellipse class="cls-4" cx="140.74" cy="39.43" rx="1.16" ry="0.83" transform="translate(27.48 131.82) rotate(-54.86)"/><path class="cls-8" d="M143.9,35.15c-.71-1.39-1-3.28.35-4.41s3.4-1.25,4.11.13a3.55,3.55,0,0,1-.85,4.35C146.15,36.35,144.61,36.53,143.9,35.15Z"/><ellipse class="cls-4" cx="146.68" cy="32.21" rx="1.16" ry="0.83" transform="translate(35.91 133.61) rotate(-54.86)"/><path class="cls-8" d="M150.89,27.25c-.7-1.38-1-3.27.36-4.4s3.4-1.25,4.11.13a3.54,3.54,0,0,1-.85,4.34C153.15,28.46,151.6,28.64,150.89,27.25Z"/><ellipse class="cls-4" cx="153.67" cy="24.32" rx="1.16" ry="0.83" transform="translate(45.33 135.98) rotate(-54.86)"/><path class="cls-9" d="M118.23,87c-.13,1.69-.83,3.45-2.4,3.25a3.57,3.57,0,0,1-3-3.48c.14-1.7,1.18-3,2.75-2.79A2.82,2.82,0,0,1,118.23,87Z"/><ellipse class="cls-4" cx="114.71" cy="87.03" rx="0.95" ry="1.02" transform="translate(-15.07 149.39) rotate(-62.85)"/><path class="cls-9" d="M126.55,77.1c-.13,1.7-.83,3.45-2.4,3.25a3.57,3.57,0,0,1-3-3.48c.14-1.69,1.18-3,2.75-2.79A2.83,2.83,0,0,1,126.55,77.1Z"/><ellipse class="cls-4" cx="123.03" cy="77.18" rx="0.95" ry="1.02" transform="translate(-1.78 151.44) rotate(-62.85)"/><path class="cls-9" d="M129,71c-.69-1.43-1-3.39.34-4.56s3.31-1.3,4,.13a3.84,3.84,0,0,1-.83,4.5C131.23,72.24,129.73,72.43,129,71Z"/><ellipse class="cls-4" cx="131.74" cy="67.96" rx="1.18" ry="0.82" transform="translate(6.61 147.43) rotate(-59.71)"/><path class="cls-9" d="M136.76,62c-.68-1.43-1-3.39.35-4.56s3.3-1.3,4,.13a3.83,3.83,0,0,1-.83,4.5C139,63.25,137.45,63.44,136.76,62Z"/><ellipse class="cls-4" cx="139.46" cy="58.97" rx="1.18" ry="0.82" transform="translate(18.2 149.64) rotate(-59.71)"/><path class="cls-9" d="M143.56,53.29c-.69-1.43-1-3.38.34-4.56s3.31-1.29,4,.14a3.84,3.84,0,0,1-.83,4.49C145.75,54.54,144.25,54.72,143.56,53.29Z"/><ellipse class="cls-4" cx="146.26" cy="50.25" rx="1.18" ry="0.82" transform="matrix(0.5, -0.86, 0.86, 0.5, 29.09, 151.19)"/><path class="cls-9" d="M150.66,44.71c-.68-1.43-1-3.38.35-4.55s3.3-1.3,4,.13a3.83,3.83,0,0,1-.83,4.5C152.86,46,151.35,46.14,150.66,44.71Z"/><ellipse class="cls-4" cx="153.36" cy="41.68" rx="1.18" ry="0.82" transform="translate(40.02 153.08) rotate(-59.71)"/><path class="cls-9" d="M156.43,37.24c-.69-1.43-1-3.38.34-4.55s3.31-1.3,4,.13a3.86,3.86,0,0,1-.83,4.5C158.62,38.49,157.12,38.67,156.43,37.24Z"/><ellipse class="cls-4" cx="159.13" cy="34.21" rx="1.18" ry="0.82" transform="translate(49.32 154.35) rotate(-59.71)"/><path class="cls-9" d="M163.23,29.08c-.69-1.43-1-3.38.34-4.55s3.3-1.3,4,.13a3.83,3.83,0,0,1-.83,4.5C165.42,30.33,163.91,30.51,163.23,29.08Z"/><ellipse class="cls-4" cx="165.92" cy="26.05" rx="1.18" ry="0.82" transform="translate(59.74 156.18) rotate(-59.71)"/><path class="cls-10" d="M132.52,89.88c-.13,1.71-.81,3.49-2.34,3.28a3.56,3.56,0,0,1-3-3.52c.13-1.71,1.15-3,2.69-2.82A2.83,2.83,0,0,1,132.52,89.88Z"/><ellipse class="cls-4" cx="129.09" cy="89.95" rx="0.95" ry="1.01" transform="translate(-24.05 126.06) rotate(-48.14)"/><path class="cls-10" d="M140.64,79.92c-.13,1.71-.81,3.49-2.35,3.28a3.56,3.56,0,0,1-3-3.52c.13-1.71,1.15-3,2.68-2.82A2.83,2.83,0,0,1,140.64,79.92Z"/><ellipse class="cls-4" cx="137.2" cy="79.99" rx="0.95" ry="1.01" transform="translate(-13.93 128.79) rotate(-48.14)"/><path class="cls-10" d="M143.07,73.74c-.67-1.45-.95-3.42.33-4.61s3.23-1.31,3.9.14a4,4,0,0,1-.81,4.54C145.21,75,143.74,75.19,143.07,73.74Z"/><ellipse class="cls-4" cx="145.7" cy="70.67" rx="1.18" ry="0.81" transform="translate(15.12 166.44) rotate(-62.13)"/><path class="cls-10" d="M150.61,64.64c-.67-1.44-1-3.42.33-4.61s3.23-1.3,3.9.14a4,4,0,0,1-.81,4.55C152.75,65.91,151.28,66.09,150.61,64.64Z"/><ellipse class="cls-4" cx="153.24" cy="61.57" rx="1.18" ry="0.81" transform="translate(27.18 168.26) rotate(-62.13)"/><path class="cls-10" d="M157.24,55.83c-.67-1.45-1-3.42.34-4.61s3.22-1.31,3.89.14a3.94,3.94,0,0,1-.81,4.54C159.38,57.09,157.91,57.28,157.24,55.83Z"/><ellipse class="cls-4" cx="159.88" cy="52.76" rx="1.18" ry="0.81" transform="translate(38.5 169.43) rotate(-62.13)"/><path class="cls-10" d="M164.18,47.15c-.68-1.44-1-3.42.33-4.61s3.23-1.3,3.9.14a4,4,0,0,1-.81,4.55C166.32,48.42,164.85,48.6,164.18,47.15Z"/><ellipse class="cls-4" cx="166.81" cy="44.08" rx="1.18" ry="0.81" transform="translate(49.86 170.94) rotate(-62.13)"/><path class="cls-10" d="M169.8,39.6c-.67-1.45-1-3.42.34-4.61s3.22-1.31,3.9.14a4,4,0,0,1-.81,4.54C171.94,40.86,170.48,41.05,169.8,39.6Z"/><ellipse class="cls-4" cx="172.44" cy="36.53" rx="1.18" ry="0.81" transform="translate(59.54 171.89) rotate(-62.13)"/><path class="cls-10" d="M176.44,31.34c-.67-1.44-.95-3.42.33-4.61s3.23-1.31,3.9.14a4,4,0,0,1-.81,4.55C178.58,32.61,177.11,32.79,176.44,31.34Z"/><ellipse class="cls-4" cx="179.07" cy="28.27" rx="1.18" ry="0.81" transform="translate(70.37 173.36) rotate(-62.13)"/><path class="cls-11" d="M146.21,93.48c-.13,1.75-.79,3.55-2.29,3.35A3.59,3.59,0,0,1,141,93.24c.13-1.74,1.12-3.07,2.61-2.86A2.84,2.84,0,0,1,146.21,93.48Z"/><ellipse class="cls-4" cx="142.86" cy="93.56" rx="0.94" ry="1.01" transform="translate(-27.4 80.37) rotate(-28.79)"/><path class="cls-11" d="M154.1,83.36c-.12,1.74-.78,3.55-2.28,3.34a3.57,3.57,0,0,1-2.88-3.58c.13-1.74,1.12-3.07,2.61-2.87A2.84,2.84,0,0,1,154.1,83.36Z"/><ellipse class="cls-4" cx="150.76" cy="83.44" rx="0.94" ry="1.01" transform="translate(-21.55 82.93) rotate(-28.79)"/><path class="cls-11" d="M156.47,77.09c-.65-1.47-.92-3.48.32-4.69s3.14-1.33,3.8.14a4.18,4.18,0,0,1-.79,4.62C158.55,78.37,157.12,78.56,156.47,77.09Z"/><ellipse class="cls-4" cx="159.03" cy="73.96" rx="1.19" ry="0.79" transform="translate(24.36 186.32) rotate(-64.78)"/><path class="cls-11" d="M163.8,67.84c-.65-1.47-.92-3.48.33-4.68s3.14-1.33,3.79.14a4.18,4.18,0,0,1-.79,4.62C165.88,69.12,164.46,69.31,163.8,67.84Z"/><ellipse class="cls-4" cx="166.37" cy="64.72" rx="1.19" ry="0.79" transform="translate(36.93 187.65) rotate(-64.78)"/><path class="cls-11" d="M170.26,58.88c-.66-1.47-.93-3.48.32-4.68s3.14-1.33,3.79.14a4.16,4.16,0,0,1-.78,4.62C172.34,60.17,170.91,60.35,170.26,58.88Z"/><ellipse class="cls-4" cx="172.82" cy="55.76" rx="1.19" ry="0.79" transform="translate(48.74 188.35) rotate(-64.78)"/><path class="cls-11" d="M177,50.07c-.65-1.47-.92-3.48.33-4.69s3.14-1.33,3.79.14a4.18,4.18,0,0,1-.78,4.62C179.09,51.35,177.66,51.54,177,50.07Z"/><ellipse class="cls-4" cx="179.57" cy="46.94" rx="1.19" ry="0.79" transform="translate(60.58 189.39) rotate(-64.78)"/><path class="cls-11" d="M182.48,42.39c-.65-1.47-.92-3.48.33-4.69s3.13-1.33,3.79.14a4.18,4.18,0,0,1-.79,4.62C184.56,43.67,183.13,43.86,182.48,42.39Z"/><ellipse class="cls-4" cx="185.04" cy="39.27" rx="1.19" ry="0.79" transform="translate(70.67 189.94) rotate(-64.78)"/><path class="cls-11" d="M188.93,34c-.65-1.47-.92-3.48.33-4.69s3.14-1.33,3.79.14a4.17,4.17,0,0,1-.78,4.62C191,35.28,189.59,35.47,188.93,34Z"/><ellipse class="cls-4" cx="191.5" cy="30.88" rx="1.19" ry="0.79" transform="translate(81.97 190.96) rotate(-64.78)"/><path class="cls-12" d="M160.32,96.88c-.12,1.79-.77,3.64-2.25,3.43a3.64,3.64,0,0,1-2.84-3.67c.13-1.78,1.1-3.15,2.58-2.94A2.87,2.87,0,0,1,160.32,96.88Z"/><ellipse class="cls-4" cx="157.03" cy="96.96" rx="0.93" ry="1.02" transform="translate(-23 56.35) rotate(-18.98)"/><path class="cls-12" d="M168.11,86.52c-.12,1.78-.77,3.63-2.25,3.42A3.64,3.64,0,0,1,163,86.27c.13-1.78,1.1-3.15,2.57-2.94A2.87,2.87,0,0,1,168.11,86.52Z"/><ellipse class="cls-4" cx="164.82" cy="86.6" rx="0.93" ry="1.02" transform="translate(-19.2 58.32) rotate(-18.98)"/><path class="cls-12" d="M170.45,80.09c-.65-1.51-.91-3.56.32-4.8s3.09-1.36,3.74.14a4.43,4.43,0,0,1-.78,4.74C172.5,81.4,171.09,81.59,170.45,80.09Z"/><ellipse class="cls-4" cx="172.97" cy="76.89" rx="1.21" ry="0.79" transform="translate(34.18 205.61) rotate(-66.81)"/><path class="cls-12" d="M177.68,70.62c-.65-1.5-.91-3.56.32-4.8s3.09-1.36,3.74.15A4.41,4.41,0,0,1,181,70.7C179.73,71.94,178.32,72.13,177.68,70.62Z"/><ellipse class="cls-4" cx="180.21" cy="67.43" rx="1.21" ry="0.79" transform="translate(47.26 206.52) rotate(-66.81)"/><path class="cls-12" d="M184,61.45c-.64-1.51-.91-3.56.32-4.8s3.1-1.36,3.74.14a4.4,4.4,0,0,1-.77,4.74C186.1,62.76,184.69,63,184,61.45Z"/><ellipse class="cls-4" cx="186.57" cy="58.25" rx="1.21" ry="0.79" transform="translate(59.56 206.81) rotate(-66.81)"/><path class="cls-12" d="M190.7,52.42c-.65-1.5-.91-3.56.32-4.8s3.09-1.36,3.74.15A4.41,4.41,0,0,1,194,52.5C192.75,53.73,191.34,53.93,190.7,52.42Z"/><ellipse class="cls-4" cx="193.22" cy="49.22" rx="1.21" ry="0.79" transform="translate(71.89 207.45) rotate(-66.81)"/><path class="cls-12" d="M196.1,44.56c-.65-1.51-.91-3.57.32-4.8s3.09-1.36,3.74.14a4.41,4.41,0,0,1-.78,4.73C198.15,45.87,196.74,46.06,196.1,44.56Z"/><ellipse class="cls-4" cx="198.62" cy="41.36" rx="1.21" ry="0.79" transform="translate(82.39 207.65) rotate(-66.81)"/><path class="cls-12" d="M202.46,36c-.64-1.5-.91-3.56.32-4.79s3.1-1.37,3.74.14a4.39,4.39,0,0,1-.77,4.73C204.51,37.28,203.11,37.47,202.46,36Z"/><ellipse class="cls-4" cx="204.99" cy="32.77" rx="1.21" ry="0.79" transform="translate(94.15 208.29) rotate(-66.81)"/><path class="cls-13" d="M177,101c-.12,1.84-.72,3.75-2.06,3.53a3.71,3.71,0,0,1-2.61-3.79c.12-1.83,1-3.24,2.36-3A2.92,2.92,0,0,1,177,101Z"/><ellipse class="cls-4" cx="173.98" cy="101.07" rx="0.86" ry="1.05" transform="translate(-12.82 26.3) rotate(-8.34)"/><path class="cls-13" d="M184.13,90.3c-.12,1.83-.71,3.74-2.06,3.53A3.71,3.71,0,0,1,179.46,90c.12-1.84,1-3.24,2.36-3A2.92,2.92,0,0,1,184.13,90.3Z"/><ellipse class="cls-4" cx="181.11" cy="90.38" rx="0.86" ry="1.05" transform="translate(-11.19 27.22) rotate(-8.34)"/><path class="cls-13" d="M186.26,83.67c-.59-1.56-.83-3.68.3-5s2.83-1.41,3.42.15a5,5,0,0,1-.71,4.88C188.14,85,186.85,85.22,186.26,83.67Z"/><ellipse class="cls-4" cx="188.58" cy="80.37" rx="1.23" ry="0.73" transform="translate(53.5 234.56) rotate(-71.87)"/><path class="cls-13" d="M192.88,73.9c-.59-1.55-.83-3.67.3-4.94s2.83-1.41,3.42.14a5,5,0,0,1-.71,4.88C194.76,75.26,193.47,75.46,192.88,73.9Z"/><ellipse class="cls-4" cx="195.2" cy="70.61" rx="1.23" ry="0.73" transform="translate(67.34 234.13) rotate(-71.87)"/><path class="cls-13" d="M198.71,64.44c-.59-1.55-.83-3.67.29-4.95s2.84-1.4,3.43.15a5,5,0,0,1-.71,4.88C200.59,65.8,199.3,66,198.71,64.44Z"/><ellipse class="cls-4" cx="201.02" cy="61.15" rx="1.23" ry="0.73" transform="translate(80.35 233.15) rotate(-71.87)"/><path class="cls-13" d="M204.8,55.13c-.59-1.55-.83-3.67.29-5s2.84-1.4,3.43.15a5,5,0,0,1-.71,4.88C206.68,56.49,205.39,56.68,204.8,55.13Z"/><ellipse class="cls-4" cx="207.11" cy="51.83" rx="1.23" ry="0.73" transform="translate(93.39 232.53) rotate(-71.87)"/><path class="cls-13" d="M209.74,47c-.59-1.55-.83-3.67.3-5s2.83-1.4,3.42.15a5,5,0,0,1-.71,4.88C211.62,48.37,210.33,48.57,209.74,47Z"/><ellipse class="cls-4" cx="212.06" cy="43.72" rx="1.23" ry="0.73" transform="translate(104.5 231.64) rotate(-71.87)"/><path class="cls-13" d="M215.57,38.16c-.59-1.55-.83-3.67.29-4.95s2.84-1.4,3.43.15a5,5,0,0,1-.71,4.88C217.45,39.51,216.16,39.71,215.57,38.16Z"/><ellipse class="cls-4" cx="217.88" cy="34.86" rx="1.23" ry="0.73" transform="translate(116.94 231.07) rotate(-71.87)"/><polygon class="cls-14" points="232.09 32.4 80.53 4.87 184.69 113.83 232.09 32.4"/><path class="cls-15" d="M54.68,66.22a10.91,10.91,0,0,0-9,2.52c-2.14,2.06-1.63,4.34,1.18,5A10.83,10.83,0,0,0,56,71.17C58.09,69.07,57.5,66.88,54.68,66.22Z"/><path class="cls-15" d="M150.54,26.72c2.81.51,6.26-.43,7.69-2.07s.28-3.38-2.5-3.87-6.18.45-7.62,2.09S147.73,26.22,150.54,26.72Z"/><path class="cls-15" d="M175.53,31.13c3,.52,6.44-.46,7.75-2.21s-.08-3.46-3-4-6.32.48-7.66,2.18S172.58,30.62,175.53,31.13Z"/><path class="cls-15" d="M132.34,77.56c-1.77,2.23-.59,4.67,2.65,5.42s7.41-.52,9.15-2.83.44-4.61-2.8-5.32S134.12,75.31,132.34,77.56Z"/><path class="cls-15" d="M188.47,33.42c3.07.52,6.49-.49,7.75-2.28s-.26-3.52-3.22-4-6.41.51-7.68,2.24S185.45,32.9,188.47,33.42Z"/><path class="cls-15" d="M182.61,41.21c3,.58,6.64-.43,8-2.25s0-3.74-3.06-4.29-6.54.45-7.9,2.21S179.53,40.63,182.61,41.21Z"/><path class="cls-15" d="M169.5,38.8c3,.56,6.56-.45,7.94-2.23s.08-3.67-2.88-4.21-6.43.46-7.84,2.2S166.49,38.24,169.5,38.8Z"/><path class="cls-15" d="M74.51,21.29a10.06,10.06,0,0,0,7.65-2c1.72-1.56,1.08-3.18-1.41-3.62a10.14,10.14,0,0,0-7.61,2C71.42,19.2,72,20.83,74.51,21.29Z"/><path class="cls-15" d="M158.5,83.46c1.69-2.33.33-4.75-3-5.5s-7.29.49-9,2.74-.46,4.83,2.9,5.59S156.82,85.78,158.5,83.46Z"/><path class="cls-15" d="M162.55,68.47c-3.23-.7-7.13.44-8.78,2.58s-.42,4.58,2.85,5.32,7.31-.47,8.91-2.66S165.83,69.18,162.55,68.47Z"/><path class="cls-15" d="M92.67,75.06a10.36,10.36,0,0,0-9.08,2.65c-2.08,2.22-1.28,4.65,1.8,5.39a10.43,10.43,0,0,0,9.25-2.72C96.64,78.17,95.74,75.78,92.67,75.06Z"/><path class="cls-15" d="M154.09,32.3c-1.47,1.74-.35,3.57,2.56,4.13s6.53-.45,8-2.22.18-3.56-2.67-4.09S155.55,30.57,154.09,32.3Z"/><path class="cls-15" d="M172.31,64.31c1.48-2.08.09-4.26-3.1-4.91s-7,.49-8.56,2.56-.21,4.32,3,5S170.79,66.44,172.31,64.31Z"/><path class="cls-15" d="M147.08,59.13c-1.63,2-.4,4.28,2.75,4.91s7-.52,8.58-2.57.27-4.22-2.88-4.84S148.68,57.12,147.08,59.13Z"/><path class="cls-15" d="M48.91,44.35a10.78,10.78,0,0,0-8.41,2.29c-2,1.81-1.56,3.79,1.06,4.36a10.75,10.75,0,0,0,8.52-2.36C52.08,46.81,51.54,44.91,48.91,44.35Z"/><path class="cls-15" d="M58.61,40.84c1.93-1.75,1.38-3.57-1.19-4.11a10.59,10.59,0,0,0-8.2,2.17c-2,1.76-1.47,3.66,1.14,4.19A10.61,10.61,0,0,0,58.61,40.84Z"/><path class="cls-15" d="M43.68,68.28c2.18-2.06,1.71-4.21-1-4.86a11,11,0,0,0-8.95,2.45c-2.24,2-1.82,4.27,1,4.95A11,11,0,0,0,43.68,68.28Z"/><path class="cls-15" d="M67,69.09a10.74,10.74,0,0,0-9,2.55c-2.15,2.12-1.54,4.46,1.39,5.17a10.72,10.72,0,0,0,9.13-2.64C70.63,72,69.93,69.76,67,69.09Z"/><path class="cls-15" d="M148.65,65.52c-3.15-.68-7,.45-8.72,2.54s-.59,4.49,2.61,5.21,7.2-.49,8.87-2.63S151.85,66.21,148.65,65.52Z"/><path class="cls-15" d="M113.2,62.38c-1.77,2.06-.78,4.26,2.26,4.91s7.07-.53,8.8-2.62.59-4.24-2.48-4.85S115,60.34,113.2,62.38Z"/><path class="cls-15" d="M103.86,18.48c2.6.45,5.94-.43,7.51-2s.75-3.14-1.83-3.57-5.94.47-7.49,2S101.28,18,103.86,18.48Z"/><path class="cls-15" d="M133.8,56.4c-1.66,2-.56,4.14,2.47,4.79s7-.5,8.62-2.53.41-4.1-2.62-4.72S135.46,54.41,133.8,56.4Z"/><path class="cls-15" d="M223,35.78c1.08-1.8-.57-3.66-3.68-4.16s-6.61.53-7.74,2.31.49,3.69,3.7,4.22S221.9,37.61,223,35.78Z"/><path class="cls-15" d="M70.13,43.18C72,41.39,71.32,39.53,68.67,39a10.5,10.5,0,0,0-8.24,2.26C58.55,43,59.15,45,61.79,45.5A10.43,10.43,0,0,0,70.13,43.18Z"/><path class="cls-15" d="M186.51,67.29c1.47-2.15,0-4.4-3.35-5.06s-7.07.5-8.56,2.58-.06,4.45,3.25,5.14S185.06,69.43,186.51,67.29Z"/><path class="cls-15" d="M101,65.87a10.17,10.17,0,0,0-8.88,2.57c-1.93,2.11-1.09,4.39,1.91,5.08s7.15-.51,9-2.64S104,66.54,101,65.87Z"/><path class="cls-15" d="M82,14.62a9.8,9.8,0,0,0,7.48-2c1.59-1.48.87-3-1.58-3.41a10,10,0,0,0-7.41,1.94C78.82,12.65,79.49,14.19,82,14.62Z"/><path class="cls-15" d="M106,78.17a10.11,10.11,0,0,0-9.18,2.74c-2,2.26-1.08,4.7,2.06,5.46s7.42-.51,9.35-2.82S109.12,78.89,106,78.17Z"/><path class="cls-15" d="M166.16,97.32c1.68-2.48.22-5.1-3.25-5.91s-7.66.49-9.4,2.94-.33,5.19,3.21,6S164.46,99.84,166.16,97.32Z"/><path class="cls-15" d="M52.88,59.54c2.09-2,1.57-4-1.14-4.62A10.85,10.85,0,0,0,43,57.27c-2.12,1.95-1.65,4.09,1.09,4.72A10.75,10.75,0,0,0,52.88,59.54Z"/><path class="cls-15" d="M188.48,90.23c1.54-2.43-.08-5-3.64-5.74s-7.53.52-9.09,2.87,0,5,3.44,5.83S186.93,92.69,188.48,90.23Z"/><path class="cls-15" d="M63.57,57.55A10.69,10.69,0,0,0,54.88,60c-2.09,2-1.52,4.16,1.28,4.81A10.62,10.62,0,0,0,65,62.23C67,60.23,66.37,58.17,63.57,57.55Z"/><path class="cls-15" d="M40.08,52.33a11,11,0,0,0-8.59,2.31c-2.18,1.92-1.81,4,.86,4.63a11,11,0,0,0,8.77-2.43C43.21,54.92,42.74,52.93,40.08,52.33Z"/><path class="cls-15" d="M31.73,65.43c2.21-2,1.8-4.12-.87-4.76A11.14,11.14,0,0,0,22,63.09c-2.27,2-1.93,4.19.8,4.85A11.15,11.15,0,0,0,31.73,65.43Z"/><path class="cls-15" d="M178.06,94.94c-3.54-.82-7.72.51-9.39,3s-.16,5.32,3.46,6.19,7.94-.54,9.55-3.14S181.64,95.76,178.06,94.94Z"/><path class="cls-15" d="M196.07,43.7c3.14.58,6.71-.45,8-2.31s-.22-3.81-3.32-4.37-6.66.48-7.95,2.31S193,43.11,196.07,43.7Z"/><path class="cls-15" d="M110.48,84.1c-2,2.31-1,4.82,2.23,5.62s7.5-.47,9.41-2.82.77-4.81-2.47-5.56S112.41,81.82,110.48,84.1Z"/><path class="cls-15" d="M60.4,46.79A10.71,10.71,0,0,0,52,49c-2,1.86-1.55,3.9,1.13,4.51a10.58,10.58,0,0,0,8.58-2.37C63.67,49.31,63.08,47.37,60.4,46.79Z"/><path class="cls-15" d="M105.24,71.39c-1.91,2.17-1,4.51,2.17,5.21s7.18-.52,9-2.69.78-4.46-2.33-5.14S107.12,69.25,105.24,71.39Z"/><path class="cls-15" d="M160.45,42.4c-1.47,1.85-.27,3.82,2.76,4.42s6.75-.46,8.19-2.35.09-3.86-2.93-4.39S161.92,40.57,160.45,42.4Z"/><path class="cls-15" d="M176.72,71.47c-3.32-.69-7.23.5-8.8,2.69s-.13,4.69,3.24,5.42,7.43-.55,9-2.84S180.07,72.17,176.72,71.47Z"/><path class="cls-15" d="M92.83,16.53a9.58,9.58,0,0,0,7.5-2c1.55-1.51.74-3.06-1.76-3.46a9.88,9.88,0,0,0-7.45,2C89.54,14.54,90.29,16.11,92.83,16.53Z"/><path class="cls-15" d="M85.53,23.32a9.83,9.83,0,0,0,7.7-2.07c1.63-1.57.88-3.2-1.65-3.64a10.06,10.06,0,0,0-7.64,2C82.27,21.2,83,22.86,85.53,23.32Z"/><path class="cls-15" d="M73.62,53.75c1.93-1.92,1.24-3.89-1.51-4.47a10.47,10.47,0,0,0-8.51,2.35c-1.94,1.88-1.33,3.94,1.4,4.54A10.44,10.44,0,0,0,73.62,53.75Z"/><path class="cls-15" d="M141.74,30.08c-1.5,1.71-.45,3.51,2.4,4s6.45-.46,7.91-2.2.29-3.5-2.5-4S143.24,28.37,141.74,30.08Z"/><path class="cls-15" d="M140.86,48c-1.58,1.9-.45,4,2.54,4.55s6.83-.5,8.38-2.44.29-3.92-2.67-4.49S142.45,46.11,140.86,48Z"/><path class="cls-15" d="M184.78,47c1.38-1.91,0-3.93-3.12-4.49s-6.66.5-8.07,2.35-.1,3.94,3,4.53S183.4,48.92,184.78,47Z"/><path class="cls-15" d="M191.35,74.58c-3.4-.72-7.35.49-8.85,2.72s0,4.79,3.49,5.55,7.54-.54,9-2.87S194.79,75.3,191.35,74.58Z"/><path class="cls-15" d="M126.4,65.19c-1.77,2.11-.67,4.39,2.47,5.06s7.1-.53,8.8-2.64.51-4.33-2.63-5S128.14,63.12,126.4,65.19Z"/><path class="cls-15" d="M198.51,49.59c1.3-1.93-.19-4-3.32-4.55s-6.82.48-8.18,2.38.12,4,3.32,4.62S197.19,51.54,198.51,49.59Z"/><path class="cls-15" d="M173.28,86.81c1.61-2.36.17-4.83-3.22-5.6s-7.47.44-9.14,2.77-.27,4.93,3.18,5.72S171.66,89.19,173.28,86.81Z"/><path class="cls-15" d="M118.63,74.42c-1.86,2.21-.8,4.61,2.4,5.33s7.27-.52,9.06-2.74.63-4.56-2.56-5.25S120.47,72.24,118.63,74.42Z"/><path class="cls-15" d="M74.67,26.16c1.75-1.61,1.11-3.29-1.38-3.76a10.39,10.39,0,0,0-7.8,2.06c-1.79,1.6-1.22,3.3,1.3,3.79A10.2,10.2,0,0,0,74.67,26.16Z"/><path class="cls-15" d="M217.91,43.82c1.15-1.89-.49-3.85-3.64-4.4s-6.76.52-8,2.38.38,3.86,3.57,4.44S216.72,45.75,217.91,43.82Z"/><path class="cls-15" d="M147.64,40c-1.55,1.83-.4,3.8,2.58,4.36s6.62-.49,8.1-2.32.25-3.77-2.69-4.31S149.15,38.17,147.64,40Z"/><path class="cls-15" d="M192.67,58.2c1.36-2-.14-4.14-3.35-4.77s-7,.5-8.38,2.5,0,4.19,3.25,4.84S191.28,60.27,192.67,58.2Z"/><path class="cls-15" d="M201.13,70.28c1.37-2.18-.25-4.45-3.61-5.13s-7.23.49-8.65,2.64.16,4.5,3.51,5.22S199.74,72.49,201.13,70.28Z"/><path class="cls-15" d="M201.63,35.74c3.13.55,6.6-.46,7.8-2.27s-.35-3.6-3.37-4.11-6.51.49-7.74,2.23S198.55,35.2,201.63,35.74Z"/><path class="cls-15" d="M162.92,28.91c2.88.5,6.33-.46,7.69-2.14s.1-3.44-2.75-3.92-6.24.48-7.63,2.15S160,28.4,162.92,28.91Z"/><path class="cls-15" d="M96.71,25.38a9.77,9.77,0,0,0,7.72-2c1.66-1.61.87-3.29-1.72-3.76a10,10,0,0,0-7.69,2C93.37,23.21,94.11,24.89,96.71,25.38Z"/><path class="cls-15" d="M79.68,72a10.56,10.56,0,0,0-9,2.59c-2.12,2.16-1.41,4.56,1.59,5.28a10.59,10.59,0,0,0,9.19-2.67C83.47,75.07,82.67,72.73,79.68,72Z"/><path class="cls-15" d="M153.92,50.57c-1.54,1.94-.34,4,2.72,4.65s6.92-.48,8.43-2.46.19-4-2.85-4.59S155.46,48.64,153.92,50.57Z"/><path class="cls-15" d="M78.12,35.6c1.82-1.73,1.15-3.53-1.48-4a10.37,10.37,0,0,0-8,2.14c-1.86,1.7-1.24,3.56,1.39,4.08A10.33,10.33,0,0,0,78.12,35.6Z"/><path class="cls-15" d="M109,57.1a10,10,0,0,0-8.58,2.44c-1.88,2-1,4.21,2,4.87s6.91-.49,8.73-2.51S112,57.73,109,57.1Z"/><path class="cls-15" d="M148.09,88c-3.39-.78-7.52.5-9.33,2.91s-.52,5,2.88,5.85,7.69-.51,9.46-3S151.48,88.74,148.09,88Z"/><path class="cls-15" d="M133.71,84.61c-3.28-.76-7.36.47-9.24,2.79s-.81,5,2.53,5.78,7.55-.49,9.38-2.87S137,85.39,133.71,84.61Z"/><path class="cls-15" d="M57.5,31.55c-1.85,1.66-1.3,3.46,1.25,4a10.38,10.38,0,0,0,8.09-2.19c1.81-1.67,1.2-3.42-1.35-3.91A10.46,10.46,0,0,0,57.5,31.55Z"/><path class="cls-15" d="M138.47,24.59c2.77.5,6.24-.44,7.69-2.07s.36-3.29-2.33-3.76-6.11.44-7.6,2S135.73,24.09,138.47,24.59Z"/><path class="cls-15" d="M126.71,22.51c2.69.47,6.11-.44,7.6-2s.49-3.27-2.18-3.72-6,.46-7.52,2S124,22,126.71,22.51Z"/><path class="cls-15" d="M77.39,65.07c2-2.06,1.23-4.2-1.67-4.82A10.54,10.54,0,0,0,67,62.73c-2,2-1.34,4.25,1.55,4.89A10.55,10.55,0,0,0,77.39,65.07Z"/><path class="cls-15" d="M76.45,26.54c-1.75,1.62-1.1,3.35,1.47,3.86a10.07,10.07,0,0,0,7.92-2.14c1.71-1.63,1-3.34-1.55-3.81A10.18,10.18,0,0,0,76.45,26.54Z"/><path class="cls-15" d="M115.19,20.48c2.65.45,6-.47,7.55-2s.57-3.21-2.06-3.63-6,.48-7.47,2S112.53,20,115.19,20.48Z"/><path class="cls-15" d="M129.27,51.3c-3-.6-6.66.46-8.39,2.39s-.77,4.1,2.23,4.73,6.92-.52,8.58-2.5S132.23,51.91,129.27,51.3Z"/><path class="cls-15" d="M81.19,70.55a10.45,10.45,0,0,0,8.91-2.62c1.92-2.09,1-4.28-1.92-4.92a10.4,10.4,0,0,0-8.78,2.55C77.43,67.64,78.22,69.89,81.19,70.55Z"/><path class="cls-15" d="M89.61,61.6c2.91.63,6.92-.52,8.73-2.52s.93-4-2-4.65a10.25,10.25,0,0,0-8.55,2.39C85.93,58.78,86.72,61,89.61,61.6Z"/><path class="cls-15" d="M128.1,45.52c-1.61,1.87-.54,3.88,2.39,4.44s6.76-.54,8.32-2.44.37-3.85-2.52-4.37S129.71,43.65,128.1,45.52Z"/><path class="cls-15" d="M178.69,55.46c1.44-2,0-4.11-3.14-4.7s-6.8.5-8.28,2.45-.14,4.15,3,4.77S177.24,57.46,178.69,55.46Z"/><path class="cls-15" d="M84.11,51.82a10.4,10.4,0,0,0-8.51,2.35c-2,1.92-1.26,4.06,1.56,4.68a10.34,10.34,0,0,0,8.68-2.47C87.7,54.43,86.92,52.42,84.11,51.82Z"/><path class="cls-15" d="M212.57,52.24c1.23-2-.38-4-3.59-4.64s-6.91.5-8.2,2.43.31,4.12,3.58,4.72S211.32,54.23,212.57,52.24Z"/><path class="cls-15" d="M81.85,45.63c1.83-1.83,1.12-3.71-1.58-4.26A10.32,10.32,0,0,0,72,43.62c-1.86,1.8-1.21,3.76,1.47,4.34A10.3,10.3,0,0,0,81.85,45.63Z"/><path class="cls-15" d="M97.23,30.46c1.71-1.68.93-3.45-1.71-3.93a10.15,10.15,0,0,0-7.83,2.09c-1.75,1.66-1,3.46,1.62,4A10,10,0,0,0,97.23,30.46Z"/><path class="cls-15" d="M80,36c-1.82,1.73-1.12,3.63,1.56,4.16a10.16,10.16,0,0,0,8.13-2.22c1.78-1.76,1-3.59-1.66-4.1A10.24,10.24,0,0,0,80,36Z"/><path class="cls-15" d="M207,61.05c1.32-2.08-.34-4.28-3.65-4.9s-7,.52-8.36,2.54.2,4.27,3.49,5S205.65,63.16,207,61.05Z"/><path class="cls-15" d="M135.09,37.61c-1.57,1.78-.55,3.68,2.33,4.25s6.61-.47,8.14-2.28.38-3.67-2.45-4.21S136.66,35.83,135.09,37.61Z"/><path class="cls-15" d="M108.21,27.5c2.68.49,6.14-.45,7.75-2.09s.7-3.35-1.95-3.81-6.15.49-7.72,2.09S105.54,27,108.21,27.5Z"/><path class="cls-15" d="M131.86,31.86c2.81.53,6.38-.45,7.9-2.15s.44-3.44-2.29-3.94-6.23.44-7.79,2.12S129.09,31.33,131.86,31.86Z"/><path class="cls-15" d="M101.5,40.28c1.79-1.75,1-3.65-1.72-4.22a10.17,10.17,0,0,0-8.1,2.14c-1.83,1.72-1.11,3.68,1.62,4.27A10.09,10.09,0,0,0,101.5,40.28Z"/><path class="cls-15" d="M95.87,48.52c-1.82,1.84-1,3.9,1.76,4.53s6.71-.44,8.52-2.35.91-3.86-1.89-4.47A10.06,10.06,0,0,0,95.87,48.52Z"/><path class="cls-15" d="M122.85,35.27c-1.65,1.75-.69,3.65,2.16,4.19s6.46-.47,8-2.22.53-3.64-2.27-4.16S124.48,33.54,122.85,35.27Z"/><path class="cls-15" d="M120,29.67c2.77.47,6.29-.52,7.76-2.17s.46-3.42-2.26-3.86-6.18.53-7.68,2.14S117.24,29.2,120,29.67Z"/><path class="cls-15" d="M115.65,43.06c-1.65,1.84-.68,3.8,2.18,4.35s6.7-.53,8.29-2.39.53-3.77-2.31-4.29S117.28,41.23,115.65,43.06Z"/><path class="cls-15" d="M92.12,43.77a10.23,10.23,0,0,0-8.34,2.28c-1.83,1.82-1.12,3.82,1.62,4.42a10.18,10.18,0,0,0,8.46-2.34C95.66,46.28,94.87,44.34,92.12,43.77Z"/><path class="cls-15" d="M112.91,37.13c2.85.5,6.51-.55,8-2.29s.51-3.54-2.22-4-6.39.55-7.92,2.24S110.15,36.65,112.91,37.13Z"/><path class="cls-15" d="M109,32.59c1.58-1.72.67-3.47-2-3.93s-6.3.53-7.9,2.2-.77,3.5,1.92,4S107.39,34.31,109,32.59Z"/><path class="cls-15" d="M108.23,51.07c-1.8,1.92-.9,4,2,4.64s6.76-.49,8.5-2.41.75-4-2.16-4.57S110,49.18,108.23,51.07Z"/><path class="cls-15" d="M111.56,38.35c-2.83-.49-6.44.53-8.08,2.29s-.78,3.78,2,4.29,6.67-.58,8.23-2.39S114.34,38.83,111.56,38.35Z"/><polygon class="cls-16" points="0.26 77.19 187.43 123.74 239.3 33.84 80.18 5.15 0.26 77.19"/><polygon class="cls-17" points="222.63 25.06 231.29 33.93 184.9 114.1 3.72 70.61 79.35 0.17 222.63 25.06"/><path class="cls-18" d="M185.26,119.2l-.35-5.45,46.36-80.13s0,0,0,0l.55,6.87L185.7,119.35,4.06,76l-.37-5.72,181.13,43.57Z"/><path class="cls-19" d="M188,128.39l-.38-5.7L239.32,33a0,0,0,0,1,0,0l.57,7.2-51.48,88.39L1.1,83,.4,77.08l187.14,45.68Z"/></g></g></g></svg>