<?xml version="1.0" encoding="UTF-8" standalone="no"?>
<!DOCTYPE svg PUBLIC "-//W3C//DTD SVG 1.1//EN" "http://www.w3.org/Graphics/SVG/1.1/DTD/svg11.dtd">
<svg width="100%" height="100%" viewBox="0 0 628 622" version="1.1" xmlns="http://www.w3.org/2000/svg" xmlns:xlink="http://www.w3.org/1999/xlink" xml:space="preserve" xmlns:serif="http://www.serif.com/" style="fill-rule:evenodd;clip-rule:evenodd;stroke-linejoin:round;stroke-miterlimit:2;">
    <g transform="matrix(1,0,0,1,-1221.32,-1684.13)">
        <g transform="matrix(6.1391,0,0,7.15584,-17055.4,-3137.19)">
            <g transform="matrix(1.98505,0.0449577,-0.0518441,1.68483,-332.177,-1600.12)">
                <circle cx="1727.56" cy="1329.28" r="24.609" style="fill:rgb(183,185,186);"/>
                <path d="M1727.56,1303.54C1741.77,1303.54 1753.3,1315.08 1753.3,1329.28C1753.3,1343.49 1741.77,1355.03 1727.56,1355.03C1713.36,1355.03 1701.83,1343.49 1701.83,1329.28C1701.83,1315.08 1713.36,1303.54 1727.56,1303.54ZM1727.56,1304.67C1713.98,1304.67 1702.95,1315.7 1702.95,1329.28C1702.95,1342.86 1713.98,1353.89 1727.56,1353.89C1741.14,1353.89 1752.17,1342.86 1752.17,1329.28C1752.17,1315.7 1741.14,1304.67 1727.56,1304.67Z" style="fill:rgb(131,134,138);"/>
            </g>
            <g transform="matrix(1.98505,0.0449577,-0.0518441,1.68483,-332.177,-1600.12)">
                <path d="M1742.09,1309.42C1748.2,1313.9 1752.17,1321.13 1752.17,1329.28C1752.17,1342.86 1741.14,1353.89 1727.56,1353.89C1719.41,1353.89 1712.18,1349.92 1707.7,1343.81C1711.77,1346.79 1716.8,1348.56 1722.23,1348.56C1735.81,1348.56 1746.84,1337.53 1746.84,1323.95C1746.84,1318.52 1745.07,1313.49 1742.09,1309.42Z" style="fill:rgb(166,169,172);"/>
            </g>
            <g transform="matrix(2.25002,1.43423,-1.6885,1.90894,1385.69,-4289.49)">
                <path d="M1720.69,1311.42C1722.81,1311.19 1725.36,1313.29 1723.32,1313.89C1720.85,1314.62 1720.8,1314.58 1719.83,1315.56C1717.82,1317.61 1715.27,1316.91 1716.84,1315.28C1718.5,1313.54 1719.17,1311.59 1720.69,1311.42Z" style="fill:rgb(214,214,211);"/>
            </g>
            <g transform="matrix(0.308523,0.00698747,-0.00805778,0.261862,2939.32,527.685)">
                <text x="236.64px" y="740.555px" style="font-family:'SegoeUI-Semibold', 'Segoe UI', sans-serif;font-weight:600;font-size:100px;fill:white;">Ag</text>
                <g transform="matrix(58.3,0,0,58.3,405.253,707.255)">
                </g>
                <text x="364.033px" y="707.255px" style="font-family:'SegoeUI-Bold', 'Segoe UI', sans-serif;font-weight:700;font-size:58.3px;fill:white;">+</text>
            </g>
        </g>
    </g>
</svg>
