<svg xmlns="http://www.w3.org/2000/svg" width="428.712" height="560.497" viewBox="0 0 428.712 560.497" xml:space="preserve"><g transform="translate(-65.197 -119.394)"><linearGradient id="a" gradientUnits="userSpaceOnUse" x1="484.78" y1="605.743" x2="488.577" y2="605.743"><stop offset="0" stop-color="#050505"/><stop offset=".217" stop-color="#080808"/><stop offset=".388" stop-color="#121212"/><stop offset=".544" stop-color="#232323"/><stop offset=".69" stop-color="#3a3a3a"/><stop offset=".718" stop-color="#404040"/><stop offset="1"/></linearGradient><ellipse fill="url(#a)" cx="486.679" cy="605.743" rx="1.898" ry="8.351"/><linearGradient id="b" gradientUnits="userSpaceOnUse" x1="480.227" y1="612.576" x2="493.131" y2="612.576"><stop offset="0" stop-color="#050505"/><stop offset=".217" stop-color="#080808"/><stop offset=".388" stop-color="#121212"/><stop offset=".544" stop-color="#232323"/><stop offset=".69" stop-color="#3a3a3a"/><stop offset=".718" stop-color="#404040"/><stop offset="1"/></linearGradient><ellipse fill="url(#b)" cx="486.679" cy="612.575" rx="6.452" ry="3.037"/></g><g transform="translate(-65.197 -119.394)"><linearGradient id="c" gradientUnits="userSpaceOnUse" x1="476.032" y1="617.718" x2="485.065" y2="617.718"><stop offset="0" stop-color="#050505"/><stop offset=".217" stop-color="#080808"/><stop offset=".388" stop-color="#121212"/><stop offset=".544" stop-color="#232323"/><stop offset=".69" stop-color="#3a3a3a"/><stop offset=".718" stop-color="#404040"/><stop offset="1"/></linearGradient><path fill="url(#c)" d="M476.494 616.373c1.097-3.305 3.803-5.381 6.042-4.636 2.239.743 3.164 4.026 2.065 7.328-1.096 3.304-3.802 5.381-6.042 4.636-2.237-.743-3.162-4.026-2.065-7.328z"/><linearGradient id="d" gradientUnits="userSpaceOnUse" x1="476.683" y1="618.482" x2="488.329" y2="618.482"><stop offset="0" stop-color="#050505"/><stop offset=".217" stop-color="#080808"/><stop offset=".388" stop-color="#121212"/><stop offset=".544" stop-color="#232323"/><stop offset=".69" stop-color="#3a3a3a"/><stop offset=".718" stop-color="#404040"/><stop offset="1"/></linearGradient><path fill="url(#d)" d="m488.329 614.801-5.793-3.064-5.853 11.284 6.462 2.206"/><ellipse transform="rotate(-161.634 483.974 619.212)" cx="483.986" cy="619.246" rx="4.271" ry="6.302"/></g><linearGradient id="e" gradientUnits="userSpaceOnUse" x1="169.369" y1="578.919" x2="173.164" y2="578.919" gradientTransform="translate(-65.197 -119.394)"><stop offset="0" stop-color="#050505"/><stop offset=".217" stop-color="#080808"/><stop offset=".388" stop-color="#121212"/><stop offset=".544" stop-color="#232323"/><stop offset=".69" stop-color="#3a3a3a"/><stop offset=".718" stop-color="#404040"/><stop offset="1"/></linearGradient><ellipse fill="url(#e)" cx="106.069" cy="459.525" rx="1.898" ry="8.351"/><linearGradient id="f" gradientUnits="userSpaceOnUse" x1="164.814" y1="584.234" x2="177.72" y2="584.234" gradientTransform="translate(-65.197 -119.394)"><stop offset="0" stop-color="#050505"/><stop offset=".217" stop-color="#080808"/><stop offset=".388" stop-color="#121212"/><stop offset=".544" stop-color="#232323"/><stop offset=".69" stop-color="#3a3a3a"/><stop offset=".718" stop-color="#404040"/><stop offset="1"/></linearGradient><ellipse fill="url(#f)" cx="106.07" cy="464.84" rx="6.453" ry="3.036"/><g transform="translate(-65.197 -119.394)"><linearGradient id="g" gradientUnits="userSpaceOnUse" x1="153.906" y1="584.867" x2="163.062" y2="584.867"><stop offset="0" stop-color="#050505"/><stop offset=".217" stop-color="#080808"/><stop offset=".388" stop-color="#121212"/><stop offset=".544" stop-color="#232323"/><stop offset=".69" stop-color="#3a3a3a"/><stop offset=".718" stop-color="#404040"/><stop offset="1"/></linearGradient><path fill="url(#g)" d="M154.374 583.501c1.113-3.351 3.855-5.455 6.125-4.698 2.269.753 3.208 4.081 2.095 7.428-1.112 3.349-3.855 5.455-6.125 4.699-2.269-.755-3.207-4.081-2.095-7.429z"/><linearGradient id="h" gradientUnits="userSpaceOnUse" x1="154.566" y1="585.64" x2="166.372" y2="585.64"><stop offset="0" stop-color="#050505"/><stop offset=".217" stop-color="#080808"/><stop offset=".388" stop-color="#121212"/><stop offset=".544" stop-color="#232323"/><stop offset=".69" stop-color="#3a3a3a"/><stop offset=".718" stop-color="#404040"/><stop offset="1"/></linearGradient><path fill="url(#h)" d="m166.372 581.909-5.873-3.106-5.933 11.437 6.55 2.236"/><ellipse transform="rotate(-161.623 161.601 586.422)" cx="161.613" cy="586.414" rx="4.331" ry="6.389"/></g><g transform="translate(-65.197 -119.394)"><linearGradient id="i" gradientUnits="userSpaceOnUse" x1="85.325" y1="619.66" x2="97.29" y2="619.66"><stop offset="0" stop-color="#050505"/><stop offset=".217" stop-color="#080808"/><stop offset=".388" stop-color="#121212"/><stop offset=".544" stop-color="#232323"/><stop offset=".69" stop-color="#3a3a3a"/><stop offset=".718" stop-color="#404040"/><stop offset="1"/></linearGradient><path fill="url(#i)" d="M85.937 617.875c1.454-4.376 5.038-7.127 8.003-6.14 2.966.984 4.191 5.333 2.737 9.707-1.455 4.377-5.037 7.128-8.004 6.14-2.965-.983-4.191-5.33-2.736-9.707z"/><linearGradient id="j" gradientUnits="userSpaceOnUse" x1="86.187" y1="620.671" x2="101.614" y2="620.671"><stop offset="0" stop-color="#050505"/><stop offset=".217" stop-color="#080808"/><stop offset=".388" stop-color="#121212"/><stop offset=".544" stop-color="#232323"/><stop offset=".69" stop-color="#3a3a3a"/><stop offset=".718" stop-color="#404040"/><stop offset="1"/></linearGradient><path fill="url(#j)" d="m101.614 615.795-7.674-4.059-7.753 14.947 8.56 2.924"/><ellipse transform="rotate(-161.623 95.863 621.691)" cx="95.862" cy="621.684" rx="5.659" ry="8.35"/></g><linearGradient id="k" gradientUnits="userSpaceOnUse" x1="183.17" y1="503.771" x2="488.342" y2="503.771"><stop offset="0" stop-color="#e0e0e0"/><stop offset=".26" stop-color="#d6d6d6"/><stop offset="1" stop-color="#bababa"/></linearGradient><path fill="url(#k)" stroke="#000" stroke-width="1.518" stroke-miterlimit="10" transform="translate(-65.197 -119.394)" d="m183.17 410.399 305.172 16.7-.76 170.045-304.412-28.846v-3.796z"/><linearGradient id="l" gradientUnits="userSpaceOnUse" x1="85.242" y1="515.159" x2="183.93" y2="515.159"><stop offset="0" stop-color="#d9d9d9"/><stop offset="1" stop-color="#c4c4c4"/></linearGradient><path fill="url(#l)" stroke="#000" stroke-width="1.518" stroke-miterlimit="10" transform="translate(-65.197 -119.394)" d="m85.242 619.16 97.928-50.862.76-157.14-98.688 27.833z"/><linearGradient id="m" gradientUnits="userSpaceOnUse" x1="80.181" y1="439.498" x2="485.052" y2="439.498"><stop offset="0" stop-color="#7a7a7a"/><stop offset=".607" stop-color="#e0e0e0"/><stop offset="1" stop-color="#454545"/></linearGradient><path fill="url(#m)" stroke="#000" stroke-width="1.518" stroke-linecap="round" stroke-linejoin="round" stroke-miterlimit="10" transform="translate(-65.197 -119.394)" d="m485.052 432.917-44.535 28.847-360.336-20.241 5.061-2.532 72.118-21.76z"/><linearGradient id="n" gradientUnits="userSpaceOnUse" x1="157.36" y1="340.431" x2="485.052" y2="340.431"><stop offset="0" stop-color="#7a7a7a"/><stop offset=".607" stop-color="#e0e0e0"/><stop offset="1" stop-color="#454545"/></linearGradient><path fill="url(#n)" stroke="#000" stroke-width="1.518" stroke-linecap="round" stroke-linejoin="round" stroke-miterlimit="10" transform="translate(-65.197 -119.394)" d="M485.052 432.917V250.726l-325.415-2.781h-2.277v169.286z"/><g transform="translate(-65.197 -119.394)" stroke="#000" stroke-miterlimit="10"><path fill="#ebebeb" stroke-width=".875" d="m187.467 268.341-.003.594c-.274-.185-.563-.306-.874-.308-1.449-.009-2.638 2.201-2.655 4.937-.015 2.735 1.148 4.958 2.597 4.966.309.002.601-.114.876-.296l-.005.594 8.752.052.062-10.487z"/><ellipse transform="translate(1.572 -1.119)" fill="#ebebeb" stroke-width=".958" cx="195.837" cy="273.634" rx="3.15" ry="4.953"/><path opacity=".35" fill="#fff" stroke-width="1.277" d="m279.876 269.465-81.936-.48c-.321-.179-.663-.295-1.024-.298-1.74-.01-3.163 2.199-3.179 4.934-.016 2.735 1.382 4.959 3.121 4.97.36.003.705-.111 1.028-.285l81.935.48z"/><path opacity=".23" fill="#fff" stroke-width="1.277" d="m195.838 273.634 84.01.491"/><path fill="#ebebeb" stroke-width=".958" d="m280.578 268.887-.003.594c-.33-.186-.679-.307-1.049-.309-1.739-.01-3.163 2.199-3.181 4.933-.013 2.735 1.382 4.96 3.122 4.971.372.002.721-.115 1.053-.296l-.005.594 10.505.062.061-10.486z"/><path fill="#ebebeb" stroke-width=".958" d="M294.198 274.21c.017-2.736-1.38-4.961-3.12-4.97-1.739-.011-3.162 2.197-3.181 4.933-.015 2.735 1.383 4.959 3.125 4.969 1.736.011 3.165-2.196 3.176-4.932z"/></g><g stroke="#000" stroke-miterlimit="10"><path fill="#ebebeb" stroke-width=".875" d="m254.405 149.292-.008.593c-.271-.188-.561-.31-.87-.315-1.45-.02-2.656 2.18-2.695 4.915-.037 2.736 1.108 4.968 2.558 4.987.309.006.604-.108.879-.289l-.01.594 8.752.123.146-10.487z"/><path fill="#ebebeb" stroke-width=".958" d="M265.882 154.695c.039-2.736-1.342-4.97-3.08-4.996-1.74-.024-3.181 2.173-3.222 4.908-.035 2.735 1.344 4.971 3.083 4.995 1.74.025 3.182-2.173 3.219-4.907z"/><path opacity=".35" fill="#fff" stroke-width="1.277" d="m346.803 151.16-81.93-1.14c-.321-.182-.662-.3-1.021-.306-1.74-.024-3.182 2.172-3.22 4.908-.037 2.734 1.34 4.97 3.08 4.994.36.006.707-.104 1.032-.275l81.928 1.14z"/><path opacity=".23" fill="#fff" stroke-width="1.277" d="m262.733 154.651 84.004 1.168"/><path fill="#ebebeb" stroke-width=".958" d="m347.508 150.586-.006.594c-.33-.188-.677-.312-1.047-.317-1.741-.023-3.183 2.173-3.222 4.908-.034 2.735 1.343 4.972 3.082 4.996.373.005.723-.109 1.056-.288l-.01.594 10.504.146.146-10.486z"/><path fill="#ebebeb" stroke-width=".958" d="M361.085 156.02c.04-2.736-1.341-4.972-3.08-4.995-1.738-.025-3.18 2.171-3.221 4.907-.035 2.734 1.343 4.97 3.085 4.994 1.737.024 3.18-2.172 3.216-4.906z"/></g><linearGradient id="o" gradientUnits="userSpaceOnUse" x1="440.513" y1="662.79" x2="448.846" y2="662.79"><stop offset="0" stop-color="#050505"/><stop offset=".217" stop-color="#080808"/><stop offset=".388" stop-color="#121212"/><stop offset=".544" stop-color="#232323"/><stop offset=".69" stop-color="#3a3a3a"/><stop offset=".718" stop-color="#404040"/><stop offset="1"/></linearGradient><path fill="url(#o)" stroke="#000" stroke-width="1.369" stroke-miterlimit="10" transform="translate(-65.197 -119.394)" d="m447.26 671.864-6.747-1.974 1.538-15.118 6.795-1.057z"/><linearGradient id="p" gradientUnits="userSpaceOnUse" x1="155.083" y1="582.974" x2="451.65" y2="582.974"><stop offset="0" stop-color="#ccc"/><stop offset=".26" stop-color="#c1c1c1"/><stop offset="1" stop-color="#a6a6a6"/></linearGradient><path fill="url(#p)" stroke="#000" stroke-width="1.518" stroke-linecap="round" stroke-linejoin="round" stroke-miterlimit="10" transform="translate(-65.197 -119.394)" d="m434.444 603.975-279.361-28.34 29.354-13.663 267.213 22.774z"/><path fill="#f9f9f9" stroke="#000" stroke-width="1.61" stroke-linecap="round" stroke-linejoin="round" stroke-miterlimit="10" d="M369.246 490.656v-7.593l-279.36-26.822v6.327z"/><linearGradient id="q" gradientUnits="userSpaceOnUse" x1="435.202" y1="668.882" x2="440.516" y2="668.882" gradientTransform="translate(-65.197 -119.394)"><stop offset="0" stop-color="#050505"/><stop offset=".217" stop-color="#080808"/><stop offset=".388" stop-color="#121212"/><stop offset=".544" stop-color="#232323"/><stop offset=".69" stop-color="#3a3a3a"/><stop offset=".718" stop-color="#404040"/><stop offset="1"/></linearGradient><ellipse fill="url(#q)" cx="372.662" cy="549.489" rx="2.657" ry="9.489"/><path fill="#f7f7f7" stroke="#000" stroke-width="1.518" stroke-miterlimit="10" d="m393.538.763 17.207 5.06v41.5l-18.22-4.049-305.676 4.05V12.908z"/><path fill="#ededed" stroke="#000" stroke-width="1.518" stroke-miterlimit="10" d="m18.022 322.634 345.152 19.231v26.822L18.022 344.9z"/><path fill="none" stroke="#000" stroke-width="1.518" stroke-linecap="round" stroke-linejoin="round" stroke-miterlimit="10" d="M386.453 465.352v7.085l-17.207 19.738v-7.594z"/><path fill="#f2f2f2" stroke="#000" stroke-width="1.518" stroke-miterlimit="10" d="m11.695 149.047 6.073-1.518h2.277v352.237l-8.35-.759z"/><linearGradient id="r" gradientUnits="userSpaceOnUse" x1="85.242" y1="354.854" x2="157.36" y2="354.854"><stop offset="0" stop-color="#c9c9c9"/><stop offset=".513" stop-color="#8e8e8e"/><stop offset="1" stop-color="#525252"/></linearGradient><path fill="url(#r)" stroke="#000" stroke-width="1.518" stroke-linecap="round" stroke-linejoin="round" stroke-miterlimit="10" transform="translate(-65.197 -119.394)" d="M85.242 438.991V270.718l72.118 1.519v144.994z"/><path opacity=".26" fill="#fff" stroke="#000" stroke-width="1.518" stroke-linecap="round" stroke-linejoin="round" stroke-miterlimit="10" d="M21.118 267.472V152.084l332.945 3.796v125.256z"/><path fill="#d3885e" d="M335.772 309.501c.7-1.736 5.962-2.646 7.478-3.035 5.04-1.297 10.269-1.845 15.45-2.173 9.485-.603 20.728-.812 29.49 3.433 3.6 1.743 4.05 4.456 2.782 8.084-1.707 4.887-8.744 4.985-12.915 4.771-8.99-.464-21.341-4.176-27.646-10.999-.6 1.354-1.197 2.71-1.796 4.064 19.683-6.08 37.779 6.642 57.478 5.072 2.157-.172 4.159-4.66 1.422-4.443-20.136 1.604-38.286-11.18-58.522-4.928-1.521.47-3.121 2.63-1.796 4.064 7.618 8.242 23.104 12.338 33.934 11.584 5.503-.383 10.588-2.886 13.218-7.882 2.049-3.893 2.416-8.815-1.006-11.924-3.407-3.094-8.906-4.025-13.271-4.655-6.928-1-13.945-1.065-20.922-.623-7.588.482-23.818.922-27.313 9.58-1.227 3.034 3.04 2.223 3.935.01z"/><path fill="#1c1c1c" stroke="#000" stroke-width=".367" stroke-miterlimit="10" d="M337.513 275.068v32.59H320.84v-6.478l-.341-26.112z"/><g transform="translate(-65.197 -119.394)"><radialGradient id="s" cx="390.224" cy="432.869" r="13.587" gradientUnits="userSpaceOnUse"><stop offset="0" stop-color="#c9c9c9"/><stop offset=".08" stop-color="silver"/><stop offset=".707" stop-color="#7a7a7a"/><stop offset="1" stop-color="#5e5e5e"/></radialGradient><path fill="url(#s)" stroke="#000" stroke-width=".687" stroke-miterlimit="10" d="M404.642 432.869c0 9.269-6.455 12.701-14.418 12.701-7.963 0-14.418-2.059-14.418-12.701 0-7.015 6.455-12.701 14.418-12.701 7.963 0 14.418 5.686 14.418 12.701z"/><linearGradient id="t" gradientUnits="userSpaceOnUse" x1="384.388" y1="418.793" x2="395.79" y2="418.793"><stop offset="0"/><stop offset=".595" stop-color="#828282"/><stop offset=".687" stop-color="#626262"/><stop offset=".901" stop-color="#1c1c1c"/><stop offset="1"/></linearGradient><path fill="url(#t)" stroke="#000" stroke-width=".343" stroke-miterlimit="10" d="M384.388 412.336v9.526h.064c.396 2.691 2.766 3.39 5.637 3.39 2.871 0 5.24-.698 5.637-3.39h.064v-9.526z"/><linearGradient id="u" gradientUnits="userSpaceOnUse" x1="383.701" y1="412.272" x2="396.745" y2="412.272"><stop offset="0"/><stop offset=".595" stop-color="#828282"/><stop offset=".687" stop-color="#626262"/><stop offset=".901" stop-color="#1c1c1c"/><stop offset="1"/></linearGradient><path fill="url(#u)" stroke="#000" stroke-width=".343" stroke-miterlimit="10" d="M383.701 409.182v4.121h.073c.453 1.164 3.164 2.059 6.449 2.059 3.285 0 5.994-.896 6.448-2.059h.073v-4.121z"/><ellipse cx="390.223" cy="409.525" rx="6.522" ry="2.403"/><path fill="#424242" stroke="#000" stroke-width=".343" stroke-miterlimit="10" d="m395.806 417.481-.09 4.746h-.064c-.396 2.691-2.765 3.39-5.637 3.39-2.871 0-5.24-.698-5.637-3.39h-.064v-5.053l-.343-.075-5.493 8.926L410 428.89l4.119-9.611zm4.398 4.893c-.713 1.767-.98 3.326-1.766 3.009-.781-.316.107-1.624.82-3.392.715-1.767.982-3.323 1.766-3.009.785.317-.105 1.625-.82 3.392zm4.12 1.03c-.714 1.767-.981 3.325-1.765 3.009-.784-.317.105-1.625.818-3.392.715-1.767.982-3.325 1.766-3.009.784.318-.105 1.624-.819 3.392zm4.119 1.03c-.714 1.766-.981 3.324-1.765 3.008-.784-.316.104-1.623.818-3.391.715-1.767.982-3.325 1.766-3.009.784.318-.105 1.625-.819 3.392z"/></g><linearGradient id="v" gradientUnits="userSpaceOnUse" x1="419.26" y1="360.033" x2="445.576" y2="360.033" gradientTransform="translate(-65.197 -119.394)"><stop offset="0" stop-color="#7a7a7a"/><stop offset=".607" stop-color="#e0e0e0"/><stop offset="1" stop-color="#454545"/></linearGradient><path fill="url(#v)" stroke="#000" stroke-width="1.518" stroke-linecap="round" stroke-linejoin="round" stroke-miterlimit="10" d="M380.379 141.456v195.097s-1.262 6.322-6.578 5.817c-5.314-.504-12.905-1.263-16.701-1.263h-3.037v-200.41s12.905-4.555 26.316.76z"/><path fill="#f9f9f9" stroke="#000" stroke-width="1.61" stroke-linecap="round" stroke-linejoin="round" stroke-miterlimit="10" d="M354.063 294.8 22.118 281.136v-13.664l331.945 13.664z"/><path opacity=".21" fill="#636363" d="M410.745 48.84V5.823L393.538.763v44.03z"/><linearGradient id="w" gradientUnits="userSpaceOnUse" x1="429.129" y1="676.854" x2="446.588" y2="676.854" gradientTransform="translate(-65.197 -119.394)"><stop offset="0" stop-color="#050505"/><stop offset=".217" stop-color="#080808"/><stop offset=".388" stop-color="#121212"/><stop offset=".544" stop-color="#232323"/><stop offset=".69" stop-color="#3a3a3a"/><stop offset=".718" stop-color="#404040"/><stop offset="1"/></linearGradient><ellipse fill="url(#w)" cx="372.661" cy="557.46" rx="8.729" ry="3.037"/><linearGradient id="x" gradientUnits="userSpaceOnUse" x1="82.566" y1="626.632" x2="86.945" y2="626.632" gradientTransform="translate(-65.197 -119.394)"><stop offset="0" stop-color="#050505"/><stop offset=".217" stop-color="#080808"/><stop offset=".388" stop-color="#121212"/><stop offset=".544" stop-color="#232323"/><stop offset=".69" stop-color="#3a3a3a"/><stop offset=".718" stop-color="#404040"/><stop offset="1"/></linearGradient><ellipse fill="url(#x)" cx="19.559" cy="507.238" rx="2.19" ry="10.747"/><linearGradient id="y" gradientUnits="userSpaceOnUse" x1="77.311" y1="634.314" x2="92.201" y2="634.314" gradientTransform="translate(-65.197 -119.394)"><stop offset="0" stop-color="#050505"/><stop offset=".217" stop-color="#080808"/><stop offset=".388" stop-color="#121212"/><stop offset=".544" stop-color="#232323"/><stop offset=".69" stop-color="#3a3a3a"/><stop offset=".718" stop-color="#404040"/><stop offset="1"/></linearGradient><ellipse fill="url(#y)" cx="19.559" cy="514.919" rx="7.445" ry="3.067"/><ellipse transform="rotate(-174.111)" cx="-437.204" cy="-502.231" rx="2.661" ry="8.35"/><path fill="#dbdbdb" stroke="#000" stroke-width="1.518" stroke-miterlimit="10" d="M427.953 52.89v427.643l-50.61 60.73s-12.145 4.05-14.17-2.024c-2.022-6.072 0-197.373 0-197.373s8.098 0 12.147-1.013c4.05-1.013 44.535-27.329 44.535-27.329V131.332l-39.98 2.531 1.012-91.6 11.64 1.011z"/><linearGradient id="z" gradientUnits="userSpaceOnUse" x1="428.837" y1="560.394" x2="445.07" y2="560.394" gradientTransform="translate(-65.197 -119.394)"><stop offset="0" stop-color="#fff"/><stop offset="1" stop-color="#8a8a8a"/></linearGradient><path fill="url(#z)" d="M367.728 542.277s7.087 1.008 9.616-2.533c2.529-3.54 2.529-2.02 2.529-2.02V339.588s-4.555 3.036-8.351 3.036c-3.795 0-6.831-.76-6.831-.76v185.23s-3.795 13.664 3.037 15.182z"/><path fill="none" stroke="#000" stroke-width="1.518" stroke-miterlimit="10" d="M274.354 339.59v20.496l69.84 4.555v-21.256z"/><path fill="#fafafa" stroke="#000" stroke-width="1.518" stroke-miterlimit="10" d="M.826 56.434v87.047s0 1.518.379 3.162c.379 1.646 1.139 3.417 2.657 3.924l3.037 1.012 362.863 5.061 9.616-15.182.507-99.194-9.616-2.023L5.887 47.326c0-.002-5.82 1.516-5.061 9.108z"/><linearGradient id="A" gradientUnits="userSpaceOnUse" x1="252.581" y1="263.056" x2="252.388" y2="274.106" gradientTransform="translate(-65.197 -119.394)"><stop offset="0" stop-color="#d4d4d4"/><stop offset="1" stop-color="#a8a8a8"/></linearGradient><path fill="url(#A)" d="m13.973 144.492 351.477 2.278 6.832 9.868L7.9 151.578s-5.314.25-5.694-4.937z"/><linearGradient id="B" gradientUnits="userSpaceOnUse" x1="77.928" y1="218.377" x2="67.023" y2="218.377" gradientTransform="translate(-65.197 -119.394)"><stop offset="0" stop-color="#e0e0e0"/><stop offset="1" stop-color="#d9d9d9"/></linearGradient><path fill="url(#B)" d="M12.73 56.156v89.578l-10.61 2.91-.293-90.209s1.369-9.11 3.91-9.11c2.542 0 6.994 6.831 6.994 6.831z"/><linearGradient id="C" gradientUnits="userSpaceOnUse" x1="430.647" y1="217.507" x2="445.829" y2="217.507" gradientTransform="translate(-65.197 -119.394)"><stop offset="0" stop-color="#d4d4d4"/><stop offset="1" stop-color="#adadad"/></linearGradient><path fill="url(#C)" d="M380.632 45.046v96.41l-8.351 15.182-6.832-9.868V39.732s9.11-1.518 15.183 5.314z"/><path fill="#dededd" d="M277.39 342.246v15.942l11.894.885-.127-16.068z"/><path fill="#919aad" d="M292.826 344.523v14.424l14.932.885-.13-14.55zm16.956.759v14.424l14.93.886-.128-14.55zm16.955.759v14.425l14.93.885-.13-14.55z"/><circle fill="#e0dcdc" cx="330.909" cy="356.076" r="2.491"/><circle fill="#e0dcdc" cx="337.552" cy="356.647" r="2.491"/><circle fill="#e0dcdc" cx="314.375" cy="355.151" r="2.491"/><circle fill="#e0dcdc" cx="321.017" cy="355.721" r="2.491"/><circle fill="#e0dcdc" cx="297.294" cy="354.392" r="2.491"/><circle fill="#e0dcdc" cx="303.937" cy="354.962" r="2.49"/><path opacity=".26" fill="#fff" stroke="#000" stroke-width="1.518" stroke-linecap="round" stroke-linejoin="round" stroke-miterlimit="10" d="m379.875 133.863 39.98-2.53v182.19l-39.476 24.547V130.323"/><linearGradient id="D" gradientUnits="userSpaceOnUse" x1="251.694" y1="164.341" x2="251.863" y2="174.032"><stop offset="0" stop-color="#fff"/><stop offset=".26" stop-color="#fcfcfc"/><stop offset=".437" stop-color="#f3f3f3"/><stop offset=".59" stop-color="#e4e4e4"/><stop offset=".729" stop-color="#cecece"/><stop offset=".858" stop-color="#b2b2b2"/><stop offset=".978" stop-color="#919191"/><stop offset="1" stop-color="#8a8a8a"/></linearGradient><path fill="url(#D)" transform="translate(-65.197 -119.394)" d="m434.467 161.151-365.533 7.085 8.994 8.832 351.478-7.843z"/><path opacity=".3" fill="#fff" stroke="#000" stroke-width="1.518" stroke-linecap="round" stroke-linejoin="round" stroke-miterlimit="10" d="M25.167 266.46V152.59l329.908 3.796v123.738zm354.202-133.104 36.945-2.529V311.5l-36.441 23.03V129.816"/><linearGradient id="E" gradientUnits="userSpaceOnUse" x1="77" y1="356.89" x2="86" y2="356.89" gradientTransform="translate(-65.197 -119.394)"><stop offset="0" stop-color="#7a7a7a"/><stop offset=".245" stop-color="#e0e0e0"/><stop offset=".55" stop-color="#a4a4a4"/><stop offset="1" stop-color="#454545"/></linearGradient><path fill="url(#E)" stroke="#000" stroke-width="1.518" stroke-linecap="round" stroke-linejoin="round" stroke-miterlimit="10" d="M11.803 151.497h9v172h-9z"/></svg>