<?xml version="1.0" encoding="iso-8859-1"?>
<!-- Generator: Adobe Illustrator 24.3.0, SVG Export Plug-In . SVG Version: 6.00 Build 0)  -->
<svg version="1.1" xmlns="http://www.w3.org/2000/svg" xmlns:xlink="http://www.w3.org/1999/xlink" x="0px" y="0px"
	 viewBox="0 0 400 400" style="enable-background:new 0 0 400 400;" xml:space="preserve">
<style type="text/css">
	.st0{fill:#E4E4E4;}
	.st1{fill:#CACECE;}
	.st2{fill:#70706E;}
	.st3{fill:#AEAEAE;}
	.st4{fill:#FFFFFF;}
	.st5{fill:#B6B6B6;}
	.st6{fill:#B2ABAB;}
	.st7{fill:none;}
	.st8{fill:#676868;}
	.st9{fill:#F6F7F5;}
	.st10{fill:#1B1B1B;}
	.st11{fill:#828282;}
	.st12{fill:#EDEDED;}
	.st13{fill:#9E9A9A;}
</style>
<g id="&#x672C;&#x4F53;">
	<g>
		<path class="st0" d="M243.37,379.28c0,0-0.32,1.36-1.15,3.02c-0.01,0.01-0.01,0.01-0.01,0.01c-0.94,1.89-2.53,4.18-5.04,5.33
			c-4.72,2.16-43.01,7.28-60.41-3.77c-4.04-2.7-5.52-5.26-5.66-10.79c-0.12-5.17-0.02-152.21,0-171.09c0-1.3,0-1.99,0-1.99
			s-0.13-7.91,3.51-12.54s7.55-9.89,7.55-9.89s4.58-6.47,1.08-13.21c-2.16-6.74-4.05-13.21-4.05-13.21s-0.12-0.75-0.22-2.09
			c-0.32-4.02-0.53-13.34,2.92-23.26c1.89-9.31,3.64-21.17,4.04-29.13c0.31-5.96,1.52-44.55,2.11-63.46
			c0.2-6.3,0.32-10.42,0.32-10.42c2.07-7.74,7.65-12.4,14-13.92c1.13-0.26,2.28-0.43,3.44-0.5c8.46-0.52,17.39,4.25,20.85,14.42
			l1.89,74.15c0,0,0,18.88,3.5,25.89c2.63,8.96,5.26,25.48,1.62,31.28l-3.23,11.06c0,0-2.56,7.95,1.88,13.48
			c4.45,5.53,7.82,10.52,7.82,10.52s0.77,0.55,1.57,2.05c0.15,0.28,0.3,0.59,0.44,0.94c0.7,1.68,1.29,4.2,1.23,7.84
			c-0.01,0.44-0.01,1.33-0.02,2.6v0.31C243.25,227.13,243.37,379.28,243.37,379.28z"/>
	</g>
	<path class="st1" d="M243.37,379.28c0,0-0.32,1.36-1.15,3.02c-0.01,0.01-0.01,0.01-0.01,0.01c-0.94,1.89-2.53,4.18-5.04,5.33
		c-4.72,2.16-43.01,7.28-60.41-3.77c-4.04-2.7-5.52-5.26-5.66-10.79c-0.12-5.17-0.02-152.21,0-171.09
		c16.36-1.25,32.78-1.56,49.18-0.92c7.7,0.3,15.39,0.81,23.07,1.53v0.31C243.25,227.13,243.37,379.28,243.37,379.28z"/>
</g>
<g id="&#x30C4;&#x30E4;">
	<path class="st2" d="M180.529,199.385c19.583-0.151,39.167-0.303,58.75-0.454c1.28-0.01,2.797,0.106,3.455,1.203
		c0.742,1.237-0.256,2.921-1.601,3.443s-2.848,0.242-4.269-0.005c-8.374-1.458-16.92-1.525-25.42-1.589
		c-10.554-0.079-21.107-0.158-31.661-0.236c-2.028-0.015-4.535,0.276-5.27,2.165c-0.416,1.069-0.066,2.262,0.207,3.377
		c1.318,5.385,0.682,11.226-1.762,16.201c0.723-1.471-0.362-5.69-0.462-7.385c-0.151-2.574-0.291-5.149-0.421-7.725
		c-0.11-2.182-0.62-4.778-0.142-6.931c0.357-1.61,1.552-2.811,1.627-4.514C175.061,199.217,178.048,199.405,180.529,199.385z"/>
	<path class="st3" d="M242.12,194.59c-0.1,0.92-0.43,1.97-1.3,2.28c-1.06,0.37-2.08-0.58-2.79-1.44
		c-4.59-5.5-9.24-11.08-12.28-17.57s-4.35-14.1-2.01-20.87c1.61-4.66,4.87-8.8,5.32-13.71c0.46-5.01-2.09-9.72-3.51-14.55
		c-1.72-5.85-1.77-12.04-1.82-18.14c-0.18-23.28-0.35-46.56-0.53-69.84c-0.04-5.78-0.11-11.7-2.15-17.11
		c-2.03-5.41-6.46-10.3-12.17-11.2c-4.47-0.7-7.84,1.75-11.97,2.18c1.79-2.57,5.892-1.914,9.562-3.384
		c8.46-0.52,15.718,1.384,19.178,11.554l2.89,74.15c0,0,0,18.88,3.5,25.89c2.63,8.96,5.26,25.48,1.62,31.28l-3.23,11.06
		c0,0-2.56,7.95,1.88,13.48c4.45,5.53,7.82,10.52,7.82,10.52s1.09,0.77,2.01,2.99C242.2,192.96,242.21,193.77,242.12,194.59z"/>
	<path class="st4" d="M218.779,19.786c-0.529-0.328-1.179-0.453-1.792-0.345c-0.238,1.214-0.188,2.483,0.143,3.674
		c0.87,0.287,1.923-0.209,2.255-1.063c0.332-0.854-0.109-1.931-0.945-2.307"/>
	<path class="st4" d="M221.42,25.083c-0.496,0.369-2.552,0.635-2.968,1.092c-0.588,0.645-1.43,1.053-2.301,1.114
		c1.037,1.559,1.514,3.482,1.326,5.344c-0.079,0.782-0.198,1.744,0.447,2.193c-1.228,1.603-0.873,3.854-0.635,5.859
		c0.281,2.361,0.165,5.102-1.659,6.627c0.516,0.418,1.16,0.678,1.822,0.735c-0.626,0.644-0.834,1.66-0.512,2.498
		c0.125,0.325,0.322,0.625,0.385,0.968c0.105,0.565-0.17,1.12-0.311,1.677c-0.41,1.619,0.314,3.281,0.571,4.931
		c0.533,3.423-0.964,6.944-0.307,10.346c0.165,0.854,0.461,1.754,0.15,2.566c-0.298,0.78-1.135,1.427-0.975,2.247
		c0.105,0.538,0.621,0.907,0.792,1.427c0.391,1.188-1.138,2.497-0.533,3.592c0.214,0.387,0.64,0.601,0.934,0.93
		c1.009,1.127,0.138,2.855-0.457,4.246c-2.526,5.909,0.977,12.652,0.447,19.057c-0.108,1.311-0.331,2.81,0.553,3.783
		c0.214,0.236,0.488,0.429,0.623,0.717c0.516,1.098-1.324,2.245-0.872,3.371c0.643,0.029,1.285,0.058,1.928,0.087
		c-0.102,0.76-0.414,1.492-0.892,2.092c1.227-0.085,2.442-0.347,3.595-0.774c-0.288,0.467-0.309,1.087-0.054,1.573
		c0.991-0.046,1.798-1.912,2.199-2.819s0.99-0.418,1.708-0.899c0.254-6.723-0.966-14.394-1.273-21.115
		c-0.11-2.418,0.105-5.312,0.914-7.29c-0.745-17.757-0.317-35.583-2.336-53.241c-0.087-0.757-0.048-2.295-0.463-2.934
		C222.725,24.247,222.297,24.432,221.42,25.083z"/>
	<path class="st5" d="M235.285,209.51c0.222,22.641,0.445,45.281,0.667,67.922c0.052,5.283,0.104,10.571-0.189,15.847
		c-1.351,24.342-10.012,48.384-7.014,72.578c0.14,1.127,0.323,2.298,0.978,3.225c0.61,0.862,1.556,1.41,2.382,2.069
		c2.514,2.005,3.984,5.253,3.83,8.465c2.181-3.133,3.228-6.905,4.044-10.635c3.557-16.248,3.434-33.047,3.296-49.679
		c-0.218-26.187-0.436-52.375-0.654-78.562c-0.087-10.429-0.17-20.898-1.522-31.257c-0.254-1.944-0.185-8.883-2.135-10.262
		C235.427,196.716,235.266,207.546,235.285,209.51z"/>
	<path class="st6" d="M178.041,232.195c-1.219,5.083-2.298,10.223-2.62,15.441c-0.281,4.557,0.017,9.128,0.226,13.689
		c1.58,34.516-1.996,69.266,2.126,103.572c0.437,3.639,1.142,7.612,3.945,9.973c2.495,2.102,6.007,2.37,9.265,2.541
		c0.919,2.068-0.946,4.51-3.141,5.061c-2.195,0.551-4.483-0.202-6.621-0.945c-3.526-1.227-7.41-2.767-8.969-6.159
		c-0.834-1.815-0.85-3.884-0.85-5.882c-0.005-27.348-0.011-54.696-0.016-82.044c-0.001-6.011-0.002-12.022-0.004-18.033
		c-0.004-18.406-0.007-36.813-0.011-55.219c-0.001-3.304,0.1-6.904,2.208-9.447c2.108-2.543,5.754-3.348,8.923-3.303
		c4.769,0.067,3.42,2.453,2.304,6.191C182.376,215.768,180.021,223.934,178.041,232.195z"/>
	<path class="st4" d="M228.402,132.06c-0.819-0.108-1.663-0.022-2.444,0.248c0.811,1.467,0.965,3.281,0.413,4.864
		c0.472-1.053,0.944-2.106,1.416-3.159c0.245,0.695,0.389,1.426,0.425,2.162c0.208-0.01,0.417-0.02,0.625-0.03
		c-0.224-1.363-0.448-2.726-0.672-4.089"/>
	<path class="st4" d="M229.439,141.511c-1.009-0.274-2.223-0.503-2.989,0.21c-0.386,0.36-0.562,0.888-0.691,1.4
		c-0.208,0.828-0.333,1.677-0.371,2.529c1.272,0.275,2.383,1.205,2.879,2.409c1.276-1.864,1.443-4.43,0.42-6.444"/>
	<path class="st4" d="M232.495,143c-0.429-0.173-0.977,0.061-1.149,0.49c-0.139,0.348-0.047,0.743-0.101,1.113
		c-0.059,0.406-0.293,0.767-0.375,1.169c-0.082,0.402,0.077,0.919,0.481,0.993c0.993-0.776,1.42-2.204,1.015-3.398"/>
	<path class="st4" d="M234.797,193.158c-0.154,0.928-1.329,1.205-2.263,1.314c-0.934,0.108-2.109,0.515-2.118,1.455
		c-0.002,0.239,0.08,0.469,0.162,0.694c0.261,0.714,0.606,1.507,1.322,1.761c0.362,0.128,0.76,0.09,1.142,0.051
		c0.894-0.092,1.788-0.184,2.682-0.275c0.441-0.045,0.938-0.123,1.188-0.489c0.279-0.409,0.107-0.963-0.095-1.415
		c-0.495-1.111-1.116-2.165-1.849-3.135"/>
	<path class="st4" d="M243.37,379.28c0,0-0.32,1.36-1.15,3.02c-0.01,0.01-0.01,0.01-0.01,0.01c-0.96,1.35-2.23,2.3-3.92,2.47
		c0.02-2.34,0.04-4.69,0.06-7.03c0.01-1.4,0.03-2.84,0.62-4.1c0.54-1.16,1.51-2.07,2.11-3.19c0.86-1.62,0.89-3.53,0.9-5.36
		c0.15-22.71,0.05-45.42-0.3-68.12c-0.24-15.43-0.58-30.85-0.93-46.27c-0.1-4.49-0.2-8.99-0.3-13.48c-0.1-4.21-0.19-8.41-0.49-12.61
		c-0.22-3.22-0.56-6.44-0.66-9.66c-0.11-3.83,0.14-7.67,0.55-11.48c1.4-0.64,2.55-0.8,3.5-0.57
		C243.25,227.13,243.37,379.28,243.37,379.28z"/>
	<path class="st4" d="M184.566,196.492c0.434-0.799,0.4-1.916-0.296-2.503c-0.399-0.336-0.935-0.448-1.447-0.548
		c-1.811-0.354-3.622-0.708-5.433-1.062c-0.431-0.084-0.904-0.163-1.288,0.051c-0.469,0.261-0.623,0.851-0.718,1.379
		c-1.844,10.232,1.742,20.896-0.301,31.09c-0.285,1.423-0.624,3.082,0.324,4.181c0.105-0.778,1.406-0.72,1.782-0.03
		s0.144,1.534-0.041,2.298c-0.184,0.763-0.271,1.68,0.291,2.229c2.753-2.023,2.804-6.043,2.588-9.453
		c-0.378-5.961-0.756-11.922-1.133-17.883c-0.132-2.082-0.902-4.739,0.545-6.419C180.777,198.268,183.446,198.555,184.566,196.492z"
		/>
	<path class="st4" d="M186.727,382.317c-2.758-0.835-5.475-1.81-8.135-2.919c1.167,2.298,3.221,4.131,5.637,5.029
		c1.621,0.603,3.669,0.7,4.865-0.55c-1.011-0.955-2.213-1.708-3.514-2.202"/>
	<path class="st4" d="M277.888,249.573c-0.18,0-0.36,0-0.539,0"/>
	<path class="st7" d="M155.62,75.488c0.045-0.287-0.555-0.248-0.474,0.03"/>
	<path class="st7" d="M255.775,80.36c-0.09,0-0.18,0-0.27,0"/>
	<path class="st4" d="M201.321,37.293c-0.143,7.363-0.286,14.726-0.428,22.089c0.239-1.114,0.648-2.192,1.207-3.186
		c-0.25,12.32-0.5,24.641-0.751,36.961c1.618-6.521,1.908-13.289,2.113-20.005c0.066-2.167,0.124-4.335,0.174-6.503
		c0.126-5.498,0.201-10.998,0.11-16.496c-0.046-2.81-0.155-5.616-0.267-8.424c-0.029-0.731,0.251-2.77-0.103-3.3
		C203.242,38.231,201.332,36.715,201.321,37.293z"/>
	<path class="st8" d="M223.007,21.446c-0.134-0.212-0.671-1.144-0.805-1.356c-0.535-0.299-0.688,0.114-1.3,0.065
		s-1.295,0.236-1.51,0.81c1.632,0.989,2.988,2.429,3.876,4.118c0.328-1.856,0.207-3.789-0.35-5.589L223.007,21.446z"/>
	<g>
		<path class="st9" d="M243.35,361.97c-22.177,7.918-48.788,8.749-72.308-1.431c-0.04-28.71,0.018-105.849,0.038-142.049
			c24.156,3.173,50.093,2.903,72.24-0.98C243.29,252.09,243.33,327.82,243.35,361.97z"/>
		<g>
			<g>
				<g>
					<g>
						<polygon class="st10" points="244.019,361.97 244.056,361.765 243.952,361.235 						"/>
						<path class="st10" d="M243.787,358.482c-0.019,0.102-0.05,0.053-0.069,0.157l0.297,2.047
							C244.183,359.771,243.675,359.085,243.787,358.482z"/>
						<path class="st10" d="M243.817,357.879c0.069-0.795-0.07-1.124-0.117-1.309C243.807,356.848,243.667,358.052,243.817,357.879z
							"/>
						<path class="st10" d="M243.733,287.938c0.003,0.074,0.006,0.172,0.009,0.246C243.747,288.06,243.742,287.98,243.733,287.938z"
							/>
						<path class="st10" d="M243.257,269.69l-0.111-0.191c0.199,3.404-0.002,7.245,0.085,10.847l-0.039-0.244
							c-0.041,9.137,0.146,17.564,0.232,26.63c-0.012-0.141-0.045-0.189-0.057-0.335c0.039,0.437,0.11,0.922,0.1,1.413
							c-0.025,0.128-0.052-0.137-0.063-0.295c-0.183,1.914,0.118,5.623-0.024,6.82c0.02,0.538,0.096,0.776,0.154,0.476
							c0.048,7.096,0.085,14.687,0.231,21.914c-0.025,0.348-0.075,0.411-0.138,0.316c0.299,6.177,0.182,12.651,0.135,18.972
							c0.078,0.242,0.083-0.645,0.164-0.022c0.097-2.032-0.192-3.721-0.05-5.565l0.075,0.236c0.048-1.341-0.19-0.272-0.093-1.663
							c0.063-0.548,0.096,0.137,0.102-0.118c-0.032-2.85,0.036-5.823-0.148-8.506c0.164-0.663,0.005-3.062,0.162-4.116
							c-0.065-0.737-0.048-1.477-0.157-1.758c0.085-9.975-0.076-20.166-0.066-30.384c-0.318-4.782,0.059-10.508-0.049-16.184
							c0.011-0.039,0.023-0.032,0.033,0.006c-0.079-1.85-0.116-4.546-0.078-6.755l-0.134-1.871
							c0.273-13.288,0.076-26.868,0.188-40.365c0.044-7.678,0.085-14.893,0.125-22.044l-3.31,0.537
							c-0.901,0.152-1.803,0.296-2.709,0.418c-1.809,0.266-3.622,0.527-5.451,0.747c-3.653,0.481-7.361,0.861-11.171,1.24
							c0.017-0.032-0.104-0.042,0.279-0.077c-4.293,0.33-8.217,0.405-12.268,0.53l0.012-0.032
							c-10.062,0.454-20.94-0.306-30.614-1.02c-1.178-0.13-2.374-0.238-3.613-0.392c-1.28-0.157-2.61-0.32-4.023-0.494
							c0.026,9.628,0.055,20.221,0.083,30.266l-0.063-0.029c0.13,10.012-0.206,19.687-0.108,29.677
							c-0.146,10.273,0.355,21.126,0.161,31.486c-0.311,6.41,0.349,14.83,0.028,20.851c-0.243,6.185-0.287,12.278-0.236,18.37
							c0.046,3.046,0.091,6.092,0.137,9.15l0.048,2.309c-0.035,0.124,0.078,0.146,0.174,0.178l0.276,0.104l0.539,0.202l1.078,0.404
							l2.16,0.808c0.724,0.26,1.468,0.469,2.202,0.706c5.359,1.937,10.942,3.21,16.531,3.998c5.596,0.779,11.195,1.051,16.715,1.098
							c5.21-0.345,11.023-0.398,16.762-1.539l-0.219-0.037c1.049-0.084,2.18-0.389,3.213-0.659c1.024-0.314,1.951-0.593,2.628-0.574
							l-0.211,0.067c1.126-0.077,2.397-1.008,3.091-1.007l0.149-0.134c1.28-0.392,0.179,0.053,1.183-0.197
							c0.371-0.117,0.097-0.195,0.891-0.369c0.287,0.334,3.101-1.068,3.314-0.715c-0.698,0.232,1.144-0.215-0.397,0.387
							c0.46-0.109,2.595-0.841,2.344-0.939c0.119-0.239,0.894-0.675-0.442-0.361l-0.216,0.212c-0.48,0.02-0.353,0.048-0.542,0.005
							c-1.695,0.545-1.98,0.437-3.211,0.762c0.013,0,0.026-0.001,0.01,0.012c-0.789,0.396-1.976,0.633-2.644,0.801l-0.285,0.005
							c-0.441-0.031-1.865,0.841-1.413,0.441c-3.488,0.92-7.529,1.86-11.532,2.387c-0.272,0.092-1.037,0.205-1.62,0.302
							c-0.586,0.081-0.993,0.139-0.542,0.191c-1.036-0.133-4.017,0.192-5.132,0.228c0.04-0.023,0.086-0.05,0.26-0.052
							c-2.173-0.17-2.541,0.457-4.58,0.163c-0.311,0.233-3.674,0.026-4.821,0.248c-0.249-0.062-0.331-0.115-0.24-0.156
							c-1.821-0.052-3.737-0.115-5.574-0.315c-0.919-0.087-1.822-0.151-2.683-0.25c-0.859-0.114-1.681-0.223-2.444-0.324
							c-0.659-0.032-1.386-0.086-2.135-0.193c-0.744-0.134-1.517-0.272-2.279-0.409c-0.762-0.133-1.513-0.264-2.212-0.386
							c-0.696-0.141-1.345-0.251-1.914-0.303c-0.904-0.258-2.107-0.513-3.366-0.913c-1.263-0.385-2.626-0.755-3.899-1.071
							c0.084,0.014,0.167,0.034,0.253,0.043c-1.404-0.459-2.983-0.976-4.451-1.457c-1.449-0.536-2.792-1.028-3.773-1.316
							c-0.088-0.074-0.183-0.145-0.285-0.214c-0.099-0.068-0.08-0.084-0.108-0.115c-0.024-0.018,0-0.059,0.012-0.087l0.017-0.037
							l0.014-0.212c0.028-0.592,0.058-1.234,0.088-1.878c-0.133-1.985-0.093-5.993-0.213-9.022c0.133-0.464-0.056-2.499,0.137-2.656
							c-0.37-8.487-0.237-18.982,0.047-28.046l0.014,0.131c-0.106-1.176-0.339-2.531-0.476-3.728
							c0.017-0.118,0.049-0.104,0.048,0.147c-0.035-1.656,0.155-3.204,0.12-4.857c0.032,0.014,0.032,0.014,0.062,0.282
							c-0.085-1.551,0.155-3.207,0.006-5.038l0.051-0.103l-0.071-1.165c0.064,0.028,0.16,0.073,0.139,0.695
							c0.066-14.212-0.261-28.882-0.209-43.473l0.06,0.535l-0.108-2.829c0.032,0.016,0.048,0.15,0.062,0.285
							c0.109-3.604-0.07-7.344-0.042-10.856c0.031,0.016,0.093,0.548,0.128,0.056c-0.173-2.6,0.227-4.176-0.134-5.478
							c0.017-0.121,0.098-0.203,0.127,0.061c-0.118-7.234-0.109-14.661-0.049-21.949c-0.032-0.706-0.065-1.423-0.099-2.172
							l0.706,0.06l1.02,0.105c0.682,0.076,1.369,0.153,2.06,0.23c1.383,0.144,2.78,0.29,4.181,0.435
							c2.803,0.267,5.621,0.499,8.358,0.556l-0.035,0.063c8.157,0.326,16.816,0.703,25.279,0.4c3.514-0.102,5.882-0.297,9.403-0.544
							l0.094,0.074c5.897-0.729,12.482-0.868,18.561-2.203l-0.405,0.178c0.576-0.207,2.069-0.391,2.638-0.511
							c0.014,0.345,0.052,0.58,0.155,0.422l-0.089,1.111c0.389,4.212-0.177,7.665,0.075,12.826l-0.07-0.339
							c0.054,1.372,0.098,2.972,0.034,3.988c-0.01-0.159-0.031-0.085-0.049-0.411c-0.275,4.298,0.031,9.081,0.021,13.616
							l-0.13-0.514c0.153,2.192,0.012,6.212,0.082,9.094l-0.061-0.175l0.086,1.458l-0.123,0.038
							C243.135,262.502,243.241,266.031,243.257,269.69z"/>
						<path class="st10" d="M243.404,307.515c0.001-0.011,0.003-0.027,0.004-0.04C243.397,307.363,243.398,307.418,243.404,307.515z
							"/>
						<path class="st10" d="M238.582,362.943c0.168-0.039,0.306-0.071,0.447-0.104C238.989,362.829,238.724,362.907,238.582,362.943
							z"/>
					</g>
				</g>
			</g>
		</g>
	</g>
	<g>
		<g>
			<g>
				<g>
					<g>
						<polygon class="st10" points="244.019,361.968 244.056,361.564 243.952,360.518 						"/>
						<path class="st10" d="M243.786,355.088c-0.019,0.201-0.05,0.104-0.069,0.309l0.297,4.039
							C244.182,357.63,243.674,356.277,243.786,355.088z"/>
						<path class="st10" d="M243.816,353.899c0.069-1.568-0.071-2.217-0.118-2.582C243.806,351.864,243.666,354.239,243.816,353.899
							z"/>
						<path class="st10" d="M243.722,215.913c0.002,0.146,0.006,0.34,0.008,0.486C243.735,216.153,243.731,215.996,243.722,215.913z
							"/>
						<path class="st10" d="M235.112,182.359l-0.316-0.232c1.766,2.181,3.518,4.551,5.228,7.057c0.015,0.018,0.026,0.04,0.044,0.056
							l0.055,0.046c0.759,0.674,1.319,1.575,1.731,2.518c0.449,0.934,0.734,1.942,0.948,2.957c0.429,2.04,0.478,4.125,0.458,6.171
							l-0.035-0.482c-0.121,18.031,0.11,34.654,0.188,52.54c-0.024-0.278-0.033-0.374-0.058-0.661
							c0.039,0.862,0.11,1.819,0.101,2.787c-0.025,0.252-0.052-0.271-0.063-0.581c-0.183,3.776,0.119,11.094-0.022,13.455
							c0.02,1.062,0.097,1.531,0.154,0.939c0.05,13.999,0.088,28.976,0.235,43.233c-0.025,0.686-0.075,0.811-0.138,0.623
							c0.3,12.186,0.184,24.96,0.139,37.429c0.079,0.478,0.083-1.272,0.164-0.044c0.097-4.009-0.193-7.342-0.052-10.978l0.076,0.466
							c0.048-2.646-0.191-0.535-0.094-3.281c0.063-1.082,0.096,0.27,0.102-0.233c-0.032-5.623,0.035-11.487-0.15-16.782
							c0.164-1.308,0.004-6.042,0.161-8.12c-0.065-1.455-0.049-2.914-0.158-3.467c0.083-19.679-0.08-39.785-0.072-59.945
							c-0.318-9.435,0.053-20.731-0.048-31.929c0.011-0.077,0.023-0.064,0.032,0.011c-0.071-3.649-0.096-8.97-0.049-13.326
							c-0.04-1.229-0.059-2.452-0.118-3.695c-0.018-1.737-0.189-3.488-0.642-5.196c-0.471-1.688-1.171-3.408-2.545-4.688
							l-0.03-0.024c-0.01-0.008-0.015-0.021-0.023-0.031c-1.577-2.332-3.266-4.673-4.986-6.953c-0.864-1.142-1.74-2.278-2.637-3.398
							c-0.866-1.103-1.544-2.323-1.975-3.656c-0.872-2.664-0.828-5.584-0.285-8.348c0.284-1.367,0.767-2.74,1.147-4.128l1.212-4.151
							l1.203-4.109c0.727-1.232,1.133-2.739,1.399-4.161c0.483-2.898,0.442-5.825,0.275-8.72c-0.392-5.795-1.39-11.525-2.85-17.134
							l-0.378-1.372c-0.014-0.051-0.03-0.121-0.08-0.23l-0.067-0.158l-0.133-0.316l-0.267-0.631
							c-0.307-0.863-0.606-1.735-0.809-2.634c-0.468-1.78-0.751-3.603-1.02-5.409c-0.486-3.626-0.76-7.241-0.91-10.828
							c-0.168-7.194-0.333-14.258-0.497-21.298c-0.344-14.09-0.748-28.08-1.333-42.805c0.032,0.038,0.043-0.201,0.075,0.56
							c-0.111-4.251-0.217-8.313-0.321-12.313c-0.023-1-0.045-1.996-0.068-2.991l-0.017-0.745c-0.003-0.09,0.01-0.337-0.071-0.466
							l-0.135-0.353l-0.544-1.409c-0.823-1.839-1.867-3.583-3.156-5.155l0.041,0c-3.222-3.881-7.96-6.643-13.099-7.319
							c-2.557-0.355-5.192-0.269-7.72,0.323c-2.527,0.604-4.937,1.712-7.015,3.27c-2.088,1.539-3.836,3.531-5.104,5.771
							c-0.639,1.118-1.168,2.293-1.58,3.503c-0.096,0.304-0.209,0.604-0.291,0.912l-0.132,0.459
							c-0.011,0.07-0.068,0.166-0.059,0.274l-0.007,0.246l-0.053,1.885c-0.119,5.018-0.235,9.951-0.348,14.739
							c-0.388,11.654-0.801,24.069-1.219,36.655c-0.199,6.293-0.399,12.629-0.599,18.934c-0.078,3.153-0.377,6.286-0.714,9.395
							c-0.353,3.108-0.744,6.196-1.236,9.241l-0.052-0.066c-0.417,2.433-0.833,4.855-1.247,7.27
							c-0.211,1.207-0.422,2.412-0.633,3.615c-0.122,1.227-0.674,2.328-0.972,3.517c-1.382,4.682-2.126,9.522-2.33,14.378
							c-0.084,2.429-0.073,4.864,0.18,7.293l0.092,0.912c0.022,0.144,0.011,0.313,0.074,0.471l0.131,0.436l0.527,1.745l1.057,3.494
							c0.71,2.33,1.422,4.664,2.136,7.005c1.059,2.237,1.669,4.604,1.378,7.05c-0.137,1.241-0.45,2.465-0.904,3.639
							c-0.468,1.166-1.008,2.32-1.814,3.3c-1.55,2.041-3.109,4.093-4.674,6.153c-0.779,1.032-1.56,2.067-2.342,3.103
							c-0.801,1.046-1.435,2.214-1.915,3.434c-0.962,2.447-1.409,5.061-1.568,7.669c-0.038,10.45,0.103,20.907-0.014,31.129
							c-0.311,12.646,0.349,29.258,0.027,41.138c-0.486,24.406-0.179,48.081,0.107,72.48c-0.013,5.627-0.026,11.252-0.038,16.865
							c0.016,2.806,0.033,5.609,0.049,8.407c0.067,2.791-0.114,5.614,0.396,8.335c0.272,1.348,0.72,2.674,1.512,3.788
							c0.762,1.136,1.844,2.016,2.987,2.764c0.578,0.371,1.193,0.682,1.812,0.987c0.619,0.303,1.222,0.638,1.851,0.916l1.917,0.77
							l0.958,0.383l0.983,0.316c5.227,1.732,10.649,2.722,16.053,3.37c5.145,0.409,10.571,0.65,16.151,0.534
							c5.575-0.122,11.312-0.593,16.958-1.738l-0.419-0.001c1.03-0.113,2.096-0.357,3.16-0.626c0.531-0.137,1.064-0.274,1.591-0.41
							c0.276-0.097,0.501-0.237,0.75-0.352c0.245-0.116,0.484-0.236,0.694-0.402c0.914-0.55,1.571-1.335,2.151-2.015
							c0.53-0.728,0.949-1.406,1.296-1.962c-0.048,0.139-0.11,0.271-0.177,0.401c0.578-0.951,0.895-2.22,1.043-3.372
							c0.16-1.156,0.161-2.205,0.323-2.854l-0.062-0.357c0.072-2.628,0.136-0.305,0.191-2.341c-0.012-0.768-0.161-0.292-0.113-1.894
							c0.36-0.348-0.088-6.477,0.316-6.66c0.002,1.446,0.153-2.267,0.243,0.981c0.04-0.926,0.013-5.358-0.158-4.96
							c-0.184-0.378-0.346-2.109-0.481,0.585l0.134,0.541c-0.131,0.908-0.065,0.69-0.164,1.015c-0.012,3.52-0.205,3.99-0.281,6.514
							c0.004-0.025,0.008-0.05,0.014-0.011c0.153,1.717,0.091,4.127,0.03,5.459l-0.097,0.533c-0.103,0.4-0.096,1.378-0.16,2.122
							c-0.043,0.749-0.13,1.256-0.146,0.72c-0.309,1.707-0.868,3.453-1.904,4.936c-0.993,1.497-2.579,2.643-4.403,3.017
							c-3.797,0.978-7.793,1.593-11.744,2.048c-0.55,0.098-2.063,0.294-3.228,0.377c-1.164,0.092-1.972,0.17-1.097,0.206
							c-2.005,0.004-7.927,0.08-10.127,0.053c0.082-0.021,0.177-0.045,0.52-0.037c-4.252-0.351-5.069,0.152-9.032-0.483
							c-0.323,0.113-2.124-0.118-4.129-0.343c-1.993-0.311-4.192-0.613-5.32-0.726c-0.473-0.15-0.624-0.231-0.44-0.239
							c-3.523-0.666-7.179-1.673-10.504-3.072c-0.417-0.171-0.833-0.341-1.245-0.51c-0.395-0.202-0.788-0.403-1.178-0.603
							c-0.773-0.406-1.563-0.774-2.249-1.227c-1.38-0.899-2.507-1.972-3.18-3.206c-0.657-1.007-1.057-2.337-1.27-3.768
							c-0.208-1.437-0.221-2.973-0.208-4.516c0.003-3.069-0.005-6.045-0.164-8.29c0.06-3.724,0.189-9.751,0.068-14.951l0.037,0.505
							c-0.017-5.867-0.031-13.196-0.22-17.22c0.288-1.735,0.231-4.271,0.324-6.807c-0.133-3.917-0.093-11.824-0.213-17.8
							c0.133-0.916-0.056-4.931,0.137-5.239c-0.37-16.745-0.237-37.451,0.047-55.331l0.014,0.259
							c-0.106-2.32-0.339-4.994-0.476-7.356c0.017-0.232,0.049-0.205,0.048,0.29c-0.035-3.266,0.155-6.32,0.12-9.582
							c0.032,0.027,0.032,0.027,0.062,0.556c-0.085-3.061,0.155-6.326,0.006-9.94l0.051-0.202l-0.071-2.298
							c0.064,0.056,0.159,0.145,0.138,1.372c0.006-3.505,0.012-7.024,0.018-10.555c0-1.766-0.001-3.534-0.001-5.305
							c0.024-1.772-0.065-3.56,0.06-5.28c0.127-1.74,0.39-3.477,0.847-5.156c0.451-1.677,1.092-3.314,2.065-4.72
							c2.08-2.831,4.298-5.706,6.445-8.565c0.54-0.732,1.084-1.397,1.622-2.184c0.488-0.795,0.887-1.624,1.224-2.483
							c0.676-1.713,1.05-3.557,1.03-5.414c-0.014-1.855-0.464-3.715-1.32-5.362l-1.591-5.091l-1.597-5.156l-0.797-2.579
							l-0.099-0.322c-0.033-0.076-0.027-0.165-0.045-0.287l-0.071-0.663l-0.136-1.327c-0.27-3.569-0.175-7.166,0.205-10.723
							l-0.04,1.051c0.13-1.844,0.342-3.685,0.653-5.51c0.026,0.036-0.006,0.298-0.039,0.562c0.323-1.737,0.739-3.472,1.212-5.195
							c0.235-0.862,0.494-1.719,0.777-2.567c0.07-0.236,0.133-0.375,0.208-0.69l0.113-0.667l0.224-1.334
							c0.596-3.556,1.178-7.089,1.791-10.504c0.025,0.036-0.096,1.08,0.107,0.129c0.6-5.099,1.344-8.152,1.252-10.752
							c0.041-0.236,0.139-0.39,0.114,0.134c0.168-1.781,0.309-3.571,0.405-5.37c0.081-1.799,0.108-3.595,0.168-5.398
							c0.111-3.604,0.222-7.222,0.334-10.843c0.254-7.241,0.508-14.495,0.761-21.68c0.036-5.991,0.238-12.327,0.452-18.721
							c0.101-3.197,0.202-6.409,0.303-9.598c0.037-1.595,0.074-3.185,0.111-4.764c0.014-0.79,0.028-1.577,0.041-2.361l0.016-1.174
							c0.047-0.336,0.179-0.742,0.28-1.103l0.043,0.078c1.129-3.831,3.477-7.413,6.824-9.835c3.311-2.461,7.502-3.717,11.673-3.637
							c4.174,0.055,8.334,1.437,11.696,3.92c3.365,2.477,5.926,5.992,7.331,9.899c0.075,0.197,0.15,0.392,0.224,0.585
							c0.006,0.205,0.012,0.407,0.018,0.608c0.01,0.417,0.02,0.825,0.03,1.228c0.021,0.805,0.042,1.583,0.062,2.344
							c0.045,1.522,0.089,2.974,0.132,4.427c0.086,2.906,0.173,5.816,0.276,9.297l-0.077,0.176
							c0.608,11.713,0.35,24.637,1.002,36.856l-0.132-0.841c0.22,1.893,0.128,7.396,0.403,6.668l-0.034,2.16
							c0.294,4.15,0.364,7.93,0.379,11.945c0.011,4.01,0.093,8.275,0.774,13.324l-0.14-0.658c0.326,2.69,0.857,5.799,1.252,7.766
							c-0.086-0.302-0.076-0.154-0.219-0.782c2.493,8.067,4.841,17.283,5.129,26.247l-0.166-1.007
							c0.164,2.142,0.234,5.24-0.465,8.388c-0.067,0.398-0.195,0.781-0.328,1.163c-0.132,0.382-0.234,0.779-0.442,1.128
							l-0.274,0.539l-0.146,0.288l-0.09,0.301c-0.115,0.391-0.229,0.78-0.342,1.166c-0.445,1.548-0.876,3.048-1.268,4.414
							l0.039-0.349l-0.724,2.785l-0.138,0.036c-0.494,1.769-1.121,3.514-1.329,5.336c-0.233,1.804-0.238,3.63,0.072,5.405
							c0.322,1.769,0.98,3.486,2.025,4.953C232.874,179.557,234.033,180.909,235.112,182.359z"/>
						<path class="st10" d="M243.393,254.536c0.001-0.021,0.003-0.054,0.004-0.079C243.386,254.236,243.387,254.344,243.393,254.536
							z"/>
						<path class="st10" d="M242.8,371.532c0.009-0.341,0.016-0.622,0.023-0.907C242.799,370.694,242.805,371.241,242.8,371.532z"/>
					</g>
				</g>
			</g>
		</g>
	</g>
	<path class="st11" d="M181.714,152.894c1.032,2.988,2.72,5.751,3.415,8.835c0.253,1.12,0.37,2.266,0.487,3.408
		c0.244,2.389,0.488,4.777,0.733,7.166c0.698-0.659,1.234-1.489,1.547-2.396c0.055-0.16,0.104-0.326,0.101-0.496
		c-0.006-0.26-0.133-0.499-0.243-0.735c-0.898-1.928-0.738-4.157-1.045-6.262c-0.726-4.972-4.077-9.267-4.789-14.24
		c-0.279-1.952,0.397-5.673-0.779-7.256C179.801,144.507,180.497,149.37,181.714,152.894z"/>
	<path class="st11" d="M184.227,137.189c-0.126-0.174-0.254-0.374-0.461-0.429c-0.203-0.053-0.421,0.062-0.551,0.227
		s-0.19,0.373-0.248,0.575c-0.093,0.328-0.187,0.656-0.28,0.983c-0.058,0.204-0.11,0.445,0.024,0.61
		c0.078,0.096,0.203,0.141,0.322,0.174c0.634,0.177,2.469,0.256,2.876-0.463C186.258,138.253,184.706,137.849,184.227,137.189z"/>
	<path class="st4" d="M211.55,10.05c-6.86-0.46-13.56,4.17-14.3,11c-0.1,0.87-0.14,1.82-0.7,2.5c-0.56,0.67-1.89,0.7-2.14-0.14
		c-1.11,1.25,0.44,3.04,1.7,4.13c1.3,1.11,2.47,2.48,2.82,4.15c0.35,1.67-0.37,3.65-1.95,4.28c-1.48,0.58-3.42-0.6-3.42-2.11
		c-0.54,5.52-1,11.06-1.38,16.59c-0.07,0.91-0.12,1.86,0.27,2.68c0.29,0.61,0.8,1.09,1.12,1.68c0.42,0.76,0.49,1.65,0.56,2.52
		c0.64,8.61,1.29,17.23,1.94,25.84c0.15,2.06,0.3,4.17-0.29,6.15c-0.31,1.05-0.84,2.06-0.97,3.15c-0.1,0.9,0.07,1.8,0.16,2.7
		c0.33,3.53-0.76,7.17-2.98,9.93c-1.5,1.88-3.62,3.7-3.45,6.1c1.78-2.08,4.32-3.48,7.02-3.88c-0.69,1.33-0.74,2.98-0.13,4.35
		c0.22,0.5,0.53,1,0.5,1.54c-0.09,1.44-2.1,1.59-3.44,2.12c-2.37,0.94-3.13,3.86-3.55,6.38c-0.69,4.13-1.3,8.63,0.69,12.33
		c0.61,1.12,1.44,2.55,0.62,3.54c-0.86-0.3-1.88-0.05-2.51,0.6c1.35,1.11,2.46,2.52,3.22,4.09c-1.79-0.03-3.16,1.72-4.93,1.97
		c-2.03,0.29-3.85-1.56-4.32-3.56c-0.46-1.99,0.05-4.06,0.52-6.06c1.63-7.04,2.59-14.24,2.88-21.46c0.9-5.97,1.59-11.88,1.82-16.49
		c0.31-5.96,1.52-44.55,2.11-63.46c0.2-6.3,0.32-10.42,0.32-10.42c1.23-4.58,3.68-8.09,6.8-10.48
		C200.77,9.67,206.53,9.71,211.55,10.05z"/>
	<path class="st4" d="M187.355,152.085c0.255,0.879,0.511,1.758,0.766,2.637c-0.201-1.033,0.097-2.151,0.784-2.948
		c0.263,3.171,0.526,6.341,0.788,9.512c0.075,0.904,0.16,1.842,0.615,2.626c0.728,1.254,2.399,2.299,1.955,3.68
		c-0.123,0.383-0.405,0.7-0.53,1.082c-0.243,0.745,0.181,1.577,0.807,2.049c0.626,0.472,1.412,0.665,2.175,0.846
		c-0.886,0.394-1.773,0.789-2.659,1.183c0.711,0.361,1.421,0.723,2.132,1.084c-1.526,0.472-3.123,0.715-4.72,0.718
		c0.819,0.48,1.639,0.959,2.458,1.439c-1.817-0.419-3.777-0.187-5.446,0.645c0.45,0.728,0.899,1.455,1.349,2.183
		c-0.826,0.089-1.633,0.359-2.346,0.787c0.462,0.466,0.923,0.931,1.385,1.397c-0.802,0.526-1.603,1.052-2.405,1.579
		c0.154,0.311,0.308,0.622,0.462,0.932c-0.564,0.794-1.64,0.982-2.497,1.444c-0.857,0.462-1.526,1.708-0.795,2.352
		c-0.834,0.614-1.668,1.228-2.502,1.842c0.527,0.17,0.535,0.982,0.151,1.379c-0.385,0.398-0.967,0.509-1.497,0.669
		c-1.464,0.441-2.763,1.407-3.608,2.681c-0.3-0.374-0.601-0.748-0.901-1.122c2.504-6.387,8.119-11.03,11.449-17.028
		c1.333-2.401,2.49-5.212,4.985-6.36c0.22-0.073-1.396-8.712-1.53-9.55C187.77,157.268,186.055,154.622,187.355,152.085z"/>
	<path class="st11" d="M234.873,145.574c-0.154-0.466-0.323-0.927-0.507-1.382c-0.038-0.094-0.08-0.192-0.16-0.254
		c-0.182-0.141-0.442-0.027-0.643,0.086c-0.243,0.137-0.501,0.274-0.78,0.282c-0.279,0.008-0.584-0.156-0.642-0.429
		c-0.049-0.234,0.087-0.462,0.126-0.698s-0.127-0.55-0.355-0.48c-0.878,1.365-0.666,3.343-1.87,4.431
		c-0.165,0.149-0.366,0.302-0.381,0.524c-0.011,0.156,0.079,0.305,0.079,0.461c0.001,0.381-0.558,0.555-0.864,0.327
		c-0.306-0.228-0.374-0.663-0.324-1.041c0.628-0.024,0.915-0.776,1.076-1.384c0.39-1.469,0.953-2.892,1.674-4.229
		c0.185,0.163,0.37,0.326,0.556,0.488c0.652-0.621,1.26-1.289,1.818-1.996c0.196,0.687,0.414,1.396,0.774,2.002
		c0.169-0.063,0.398-0.061,0.559-0.122C235.421,143.092,235.094,144.566,234.873,145.574z"/>
	<path class="st11" d="M224.787,154.551c-0.353,0.797-0.805,1.553-1.078,2.382c-0.227,0.689-0.324,1.413-0.421,2.131
		c-0.2,1.49-0.4,2.979-0.6,4.469c1.065-1.271,2.146-2.569,2.778-4.102c0.317-0.769,0.514-1.58,0.71-2.388
		c0.404-1.669,0.809-3.338,1.213-5.007c0.264-1.089-0.487-3.254-1.618-1.73C225.138,151.157,225.278,153.444,224.787,154.551z"/>
	<path class="st11" d="M229.75,157.322c-1.713,3.797-1.884,8.119-1.473,12.264c0.067,0.675,0.1,1.476-0.431,1.899
		c-0.782,0.623-2.146-0.102-2.853,0.605c0.672,1.129,1.146,2.376,1.392,3.667c-0.773-0.995-1.545-1.99-2.318-2.985
		c-0.421-0.542-0.89-1.117-1.554-1.29c-0.664-0.173-1.522,0.322-1.423,1.001c0.088,0.61,0.794,0.878,1.37,1.099
		c1.897,0.726,3.487,2.218,4.333,4.064c-0.752,0.491-1.539,1.021-1.926,1.831s-0.174,1.977,0.661,2.306
		c0.43,0.17,1.067,0.215,1.112,0.676c0.04,0.412-0.476,0.619-0.741,0.938c-0.415,0.498-1.102,1.683-0.511,1.951
		c0.591,0.268,4.536,0.203,5.029-0.218c1.369-1.17-1.461-4.311-3.199-4.785c-0.25-0.068-0.537-0.114-0.685-0.326
		c-0.358-0.509,0.444-1.001,0.833-1.487c0.966-1.208-0.748-3.232,0.192-4.46c1.012-0.375,1.57-1.501,1.667-2.576
		c0.097-1.075-0.164-2.146-0.285-3.218c-0.54-4.791,1.655-9.285,2.943-13.775c0.17-0.594,1.552-5.927-0.18-3.96
		c-0.52,0.591-0.227,2.497-0.44,3.305C230.94,155.073,230.268,156.174,229.75,157.322z"/>
	<path class="st4" d="M225.154,88.548c-0.11-2.418,0.105-5.312,0.914-7.29c-2.336-1.124-0.317-35.583-2.336-53.241"/>
	<path class="st12" d="M194.968,24.364c-0.082-0.707-1.023-1.104-1.64-0.749c-0.617,0.354-0.795,1.247-0.457,1.873
		c0.338,0.626,1.084,0.966,1.795,0.939c0.516-0.006,0.613-0.741,0.507-1.247c-0.103-0.493-0.235-0.98-0.395-1.458"/>
	<path class="st13" d="M190.258,50.28c-0.135,2.1-0.24,4.336,0.797,6.167c0.668-0.314,1.183-0.938,1.365-1.654
		c-0.145,2.89,0.01,5.795,0.462,8.653c0.118,0.749,0.891,1.711,1.392,1.141c-0.434,3.812-0.132,7.705,0.885,11.404
		c1.923-6.666,0.335-13.78-1.258-20.532c0.145-0.217,0.258,0.354,0.003,0.302c-0.255-0.052-0.296-0.395-0.282-0.655
		c0.173-3.184-0.206-6.398-1.114-9.455c-0.287-0.965-0.63-1.951-0.526-2.953c0.239-2.299,2.612-3.921,2.091-6.393
		c-0.281-1.335-1.724-3.499-2.595-4.45C190.631,37.89,190.648,44.19,190.258,50.28z"/>
	<path class="st7" d="M284.404,147.865c-1.412,0.064-2.824,0.128-4.237,0.193c0.284-0.165,0.568-0.33,0.852-0.495"/>
	<path class="st4" d="M229.473,141.062c-1.511,0.197-2.984,0.675-4.323,1.402c-0.237,0.128-0.491,0.294-0.548,0.557
		c-0.143,0.661,0.937,0.83,1.316,1.391c0.416,0.615-0.156,1.447-0.022,2.177c0.13,0.711,1.057,1.139,1.683,0.776
		c0.21-0.122,0.374-0.306,0.526-0.495c1.001-1.237,1.63-2.771,1.786-4.354c0.035-0.354,0.036-0.746-0.187-1.023
		c-0.223-0.278-0.748-0.308-0.887,0.019"/>
	<path class="st4" d="M221.524,176.266c-0.795-0.576-0.975-1.838-0.373-2.613c0.189-0.244,0.459-0.522,0.345-0.809
		c-0.096-0.242-0.405-0.303-0.664-0.329c-1.439-0.146-2.878-0.292-4.318-0.438c1.076-0.4,2.152-0.8,3.228-1.2
		c-0.439-0.397-0.748-0.937-0.867-1.516c1.135-0.052,2.258-0.356,3.264-0.885c-1.033-0.369-1.225-1.824-0.764-2.819
		c0.461-0.995,1.343-1.728,1.947-2.643c1.052-1.595,1.188-3.603,1.76-5.427c0.37-1.179,0.93-2.299,1.198-3.506
		s0.195-2.576-0.588-3.532c-0.503-0.614-1.321-1.357-0.874-2.014c1.048,0.139,2.106,0.197,3.163,0.174
		c0.725,4.563-1.625,9.042-1.898,13.654c-0.087,1.476-0.075,3.208-1.262,4.089c-0.409,0.304-0.972,0.528-1.074,1.027
		c-0.197,0.966,1.455,1.267,1.754,2.207c0.243,0.764-0.513,1.445-1.16,1.92s-1.343,1.263-0.969,1.973
		c0.419,0.796,1.891,0.609,2.617,0.777C224.787,175.168,223.156,177.448,221.524,176.266z"/>
	<path class="st4" d="M200.709,135.603c-0.676,1.055-1.351,2.11-2.027,3.166c0.604,0.182,1.207,0.365,1.811,0.547
		c-0.14,0.685-0.533,1.315-1.086,1.741c0.183,0.22,0.365,0.439,0.548,0.659c-0.562,0.694-1.29,1.253-2.105,1.615
		c0.838,0.144,1.676,0.288,2.514,0.433c-0.595,0.964-1.199,1.975-1.306,3.103c-0.107,1.128,0.441,2.402,1.518,2.753
		c-0.51,0.279-1.04,0.576-1.359,1.061c-0.319,0.485-0.343,1.218,0.106,1.587c0.213,0.174,0.522,0.271,0.612,0.531
		c0.086,0.249-0.08,0.508-0.238,0.719c-0.69,0.925-1.379,1.85-2.069,2.775c0.984,0.396,1.968,0.792,2.952,1.189
		c0.378,0.152,0.783,0.326,0.99,0.677c0.207,0.351,0.066,0.921-0.337,0.978c0.666-0.311,1.332-0.622,1.998-0.933
		c-0.119-1.023-1.581-1.294-2.04-2.216c-0.703-1.412,1.375-2.988,0.875-4.484c-0.122-0.365-0.393-0.68-0.439-1.062
		c-0.068-0.567,0.374-1.16,0.134-1.679c-0.126-0.272-0.411-0.438-0.567-0.694c-0.396-0.649,0.196-1.46,0.824-1.889
		c0.628-0.429,1.405-0.839,1.547-1.586c-0.905,0.226-1.93-0.444-2.087-1.363c-0.121-0.708,0.209-1.403,0.369-2.103
		c0.16-0.7,0.059-1.592-0.59-1.9c0.555-0.269,1.138-0.562,1.473-1.081c0.335-0.518,0.295-1.331-0.243-1.633
		c-1.89-1.059,0.296-0.928-0.329-2.236c-0.594-1.245-2.519-0.196-3.02,0.465C199.21,134.788,200.68,135.648,200.709,135.603z"/>
</g>
</svg>
