<svg width="171.976" height="55.035" viewBox="0 0 45.502 14.561" xmlns="http://www.w3.org/2000/svg">
    <defs>
        <filter style="color-interpolation-filters:sRGB" id="a" x="-.046" y="-.476" width="1.092" height="1.952">
            <feGaussianBlur stdDeviation=".749"/>
        </filter>
        <filter style="color-interpolation-filters:sRGB" id="b" x="-.055" y="-.117" width="1.111" height="1.234">
            <feGaussianBlur stdDeviation=".49"/>
        </filter>
    </defs>
    <g transform="translate(-72.69 -59.128)">
        <path style="font-variation-settings:normal;display:inline;vector-effect:none;fill:#fff;fill-opacity:.541237;stroke:#000;stroke-width:.123031;stroke-linecap:butt;stroke-linejoin:miter;stroke-miterlimit:4;stroke-dasharray:none;stroke-dashoffset:0;stroke-opacity:1;-inkscape-stroke:none;stop-color:#000" d="M101.782 61.587c-2.488-1.068-5.218-.38-7.804-.846-1.782-.263-3.305-1.74-5.177-1.363-1.26.215-1.814 1.615-2.766 2.335-1.156.738-1.291 2.31.408 2.365 1.802-.163 3.602-.567 5.404-.835l9.935-1.656zM96.531 70.922c-2.217 1.02-4.482 1.974-6.837 2.62-1.044.246-2.13-.046-2.955-.718-1.06-.354-1.553-1.36-1.51-2.435-.198-1.003 1.092-1.553 1.875-1.644 3.142.728 6.285 1.451 9.427 2.177zM105.783 72.506c-1.097.164-2.193.346-3.291.5-.583-.007-1.169.016-1.748-.014l-1.629-.57c.792-.106 1.582-.238 2.375-.329l4.293.413z"/>
        <path style="font-variation-settings:normal;display:inline;fill:#fff;fill-opacity:.541237;stroke:#000;stroke-width:.123031;stroke-linecap:butt;stroke-linejoin:miter;stroke-miterlimit:4;stroke-dasharray:none;stroke-dashoffset:0;stroke-opacity:1;stop-color:#000" d="M86.696 64.088c-3.475-1.098-6.846-2.5-10.144-4.045-1.653-.534-2.702 1.296-2.973 2.659-.421 1.638-.854 3.324-.477 5.007.103.874.118 1.929.98 2.404.5.45.977.972 1.715.624 4.265-.51 8.536-1.05 12.733-1.982l-1.834-4.667z"/>
        <path style="font-variation-settings:normal;display:inline;vector-effect:none;fill:#ededed;fill-opacity:1;stroke:#000;stroke-width:.123031;stroke-linecap:butt;stroke-linejoin:miter;stroke-miterlimit:4;stroke-dasharray:none;stroke-dashoffset:0;stroke-opacity:1;-inkscape-stroke:none;stop-color:#000" d="M117.73 66.51c-.747-1.813-2.774-1.71-4.055-2.884-1.416-1.083-3.078-1.965-4.902-1.977-2.649-.226-5.32-.214-7.97-.154-4.345.573-8.697 1.11-12.986 2.027-1.785.296-3.589.69-5.39.758-.926-.262-1.891-1.332-2.258.188.076 1.291.491 2.643 1.006 3.738.877 1.01 2.424.224 3.589.461 2.662.072 4.937 1.78 7.57 2.043 4.578.807 9.143 1.71 13.768 2.217 1.445-.12 2.927-.006 4.33-.416 1.127.146 2.411 1.105 3.08-.363 1.112-1.196 2.944-1.343 4.02-2.605.974-.466.701-1.637-.4-1.013-1.07.208 1.092-1.403.597-2.02z"/>
        <path style="font-variation-settings:normal;display:inline;opacity:.234513;vector-effect:none;fill:none;fill-opacity:1;stroke:#fab82a;stroke-width:5.265;stroke-linecap:round;stroke-linejoin:round;stroke-miterlimit:4;stroke-dasharray:none;stroke-dashoffset:0;stroke-opacity:1;-inkscape-stroke:none;filter:url(#a);stop-color:#000" d="M211.174-15.913c-14.004-.084-27.087 4.774-39.52-2.698-4.63-11.955-16.175-9.276-25.54-4.947-13.747 4.588-28.637 3.943-42.966 3.79l-2.06-.11-2.06-.13" transform="matrix(.26458 0 0 .26458 59.828 71.299)"/>
        <path style="font-variation-settings:normal;display:inline;vector-effect:none;fill:#f0e1c1;fill-opacity:1;stroke:none;stroke-width:.264583px;stroke-linecap:butt;stroke-linejoin:miter;stroke-miterlimit:4;stroke-dasharray:none;stroke-dashoffset:0;stroke-opacity:1;-inkscape-stroke:none;filter:url(#b);stop-color:#000" d="m167.387-32.61-8.665-.017 10.87 18.919 3.465 4.41 12.916 3.15 11.34-1.575 11.656-3.15 5.985-3.465-15.435-6.93-9.766-.946-17.01-6.93z" transform="matrix(.26458 0 0 .26458 59.828 71.299)"/>
        <circle style="font-variation-settings:normal;display:inline;fill:#adadad;fill-opacity:1;stroke:none;stroke-width:.142236;stroke-linecap:butt;stroke-linejoin:miter;stroke-miterlimit:4;stroke-dasharray:none;stroke-dashoffset:0;stroke-opacity:1;stop-color:#000" cx="111.39" cy="67.016" r="2.361"/>
        <circle style="font-variation-settings:normal;display:inline;fill:#fff;fill-opacity:1;stroke:#000;stroke-width:.127704;stroke-linecap:butt;stroke-linejoin:miter;stroke-miterlimit:4;stroke-dasharray:none;stroke-dashoffset:0;stroke-opacity:1;stop-color:#000" cx="111.571" cy="67.303" r="2.12"/>
        <circle style="font-variation-settings:normal;display:inline;fill:#000;fill-opacity:1;stroke:#000;stroke-width:.0283221px;stroke-linecap:butt;stroke-linejoin:miter;stroke-miterlimit:4;stroke-dasharray:none;stroke-dashoffset:0;stroke-opacity:1;stop-color:#000" cx="111.696" cy="67.478" r=".826"/>
        <path style="display:inline;fill:none;stroke:#000;stroke-width:.0700042px;stroke-linecap:butt;stroke-linejoin:miter;stroke-opacity:1" d="m109.277 71.824 1.43.697"/>
        <path style="font-variation-settings:normal;display:inline;vector-effect:none;fill:#d5d5d5;fill-opacity:1;stroke:none;stroke-width:.137031;stroke-linecap:butt;stroke-linejoin:miter;stroke-miterlimit:4;stroke-dasharray:none;stroke-dashoffset:0;stroke-opacity:1;-inkscape-stroke:none;stop-color:#000" d="m109.148 71.857.959.541-1.48.209z"/>
        <path style="font-variation-settings:normal;display:inline;vector-effect:none;fill:#adadad;fill-opacity:1;stroke:none;stroke-width:.137031;stroke-linecap:butt;stroke-linejoin:miter;stroke-miterlimit:4;stroke-dasharray:none;stroke-dashoffset:0;stroke-opacity:1;-inkscape-stroke:none;stop-color:#000" d="M106.934 72.825c-2.052-1.557-2.697-3.48-3.21-6.498-.78-.52-2.77.023-3.547.26-1.395.262-2.367 1.397-3.545 2.087-1.216.82-2.673 1.455-4.17 1.208-1.719-.223-3.402-.658-5.107-.962-.574-.189-.255.07.05.261 1.16.765 2.576.924 3.889 1.282 2.246.532 4.543.796 6.805 1.242 2.473.395 6.444.885 8.835 1.12z"/>
        <path style="font-variation-settings:normal;display:inline;vector-effect:none;fill:#ededed;fill-opacity:1;stroke:none;stroke-width:.123031;stroke-linecap:butt;stroke-linejoin:miter;stroke-miterlimit:4;stroke-dasharray:none;stroke-dashoffset:0;stroke-opacity:1;-inkscape-stroke:none;stop-color:#000" d="M102.45 66.671c-1.01.184-2.122.212-2.955.893-1.205.737-2.487 1.35-3.629 2.187-.473.603.225 1.397.866 1.465 1.205.07 2.409.207 3.598.433.733.074 1.485.37 2.21.296l1.243-.44c-.022-1.32.144-2.738-.47-3.958-.227-.346-.547-.615-.864-.876z"/>
        <path style="font-variation-settings:normal;display:inline;vector-effect:none;fill:#f0e1c1;fill-opacity:1;stroke:none;stroke-width:.264583px;stroke-linecap:butt;stroke-linejoin:miter;stroke-miterlimit:4;stroke-dasharray:none;stroke-dashoffset:0;stroke-opacity:1;-inkscape-stroke:none;filter:url(#b);stop-color:#000" d="m100.288-25.679-2.52 3.78v5.356l3.465 4.095L111-10.243l12.6 1.575 8.82-.63 8.821-5.355 7.876-5.04 11.34-1.576 3.15-1.575.63-5.355-4.095-5.985h-6.93l-11.34 1.89-16.697 3.15-17.956 2.205h-3.78z" transform="matrix(.26458 0 0 .26458 59.828 71.299)"/>
        <path style="font-variation-settings:normal;display:inline;vector-effect:none;fill:#eeddb9;fill-opacity:1;stroke:none;stroke-width:.264583px;stroke-linecap:butt;stroke-linejoin:miter;stroke-miterlimit:4;stroke-dasharray:none;stroke-dashoffset:0;stroke-opacity:1;-inkscape-stroke:none;filter:url(#b);stop-color:#000" d="M155.101-14.653c-3.397 1.848-6.867 3.561-10.218 5.493-.573.65-1.54 1.13-1.676 2.043.674.616 1.814.305 2.657.693 2.396.577 4.85 1.086 7.329.902 3.003.03 6.06.148 8.994-.616 1.218.243 2.238-.824 2.027-2.022.393-1.1.354-2.216-.33-3.189-.865-1.769-2.243-3.363-4.058-4.19l-4.725.886z" transform="matrix(.26458 0 0 .26458 59.828 71.299)"/>
        <ellipse style="font-variation-settings:normal;display:inline;vector-effect:none;fill:#faf1d5;fill-opacity:1;stroke:none;stroke-width:.106892;stroke-linecap:butt;stroke-linejoin:miter;stroke-miterlimit:4;stroke-dasharray:none;stroke-dashoffset:0;stroke-opacity:1;-inkscape-stroke:none;stop-color:#000" cx="46.174" cy="104.881" rx="1.069" ry=".539" transform="matrix(.9145 -.40457 .5591 .8291 0 0)"/>
        <g style="display:inline">
            <path style="font-variation-settings:normal;display:inline;vector-effect:none;fill:#e9e9e9;fill-opacity:1;stroke:none;stroke-width:.510461;stroke-linecap:butt;stroke-linejoin:miter;stroke-miterlimit:4;stroke-dasharray:none;stroke-dashoffset:0;stroke-opacity:1;-inkscape-stroke:none;stop-color:#000" d="m258.079 132.614 14.367 12.92 3.564 3.787-1.336.445zM260.613 131.835l14.479 13.699 3.564 3.787-1.336.445zM264.039 132.642l13.699 12.363 3.564 3.786-1.337.446zM267.464 132.892l12.92 11.584 3.564 3.786-1.337.446zM271.753 133.254l11.806 10.692 3.564 3.787-1.337.446zM252.896 144.7l5.792 4.009 3.564 3.787-1.337.445zM253.872 142.054l7.462 6.126 3.564 3.786-1.337.446zM255.292 140.188l8.688 7.463 3.564 3.786-1.337.446zM255.349 136.43l11.806 10.691 3.564 3.787-1.337.446zM257.995 135.371l11.805 10.692 3.564 3.787-1.336.445zM278.603 136.29l8.13 7.127 3.565 3.787-1.337.445zM282.363 137.43l7.017 5.458 3.564 3.787-1.337.445zM287.904 139.352l4.121 3.007 3.564 3.787-1.336.445zM292.666 140.605l2.005 1.225 3.564 3.786-1.336.446zM296.844 141.19c2.237 1.283 3.252 2.5 4.566 3.897l-1.336.446zM299.49 141.19c2.237 1.283 3.251 2.5 4.566 3.897l-1.336.446zM302.136 140.66c2.237 1.284 3.251 2.501 4.566 3.898l-1.337.446zM304.781 140.66c2.237 1.284 3.252 2.501 4.567 3.898l-1.337.446zM307.427 140.13c2.237 1.285 3.252 2.502 4.567 3.899l-1.337.445zM310.073 140.13c2.237 1.285 3.252 2.502 4.567 3.899l-1.337.445zM312.719 139.602c2.237 1.284 3.252 2.5 4.566 3.898l-1.336.445z" transform="matrix(.20535 0 0 .20535 33.497 32.056)"/>
        </g>
        <g style="display:inline">
            <path style="font-variation-settings:normal;display:inline;vector-effect:none;fill:#e9e9e9;fill-opacity:1;stroke:none;stroke-width:.510461;stroke-linecap:butt;stroke-linejoin:miter;stroke-miterlimit:4;stroke-dasharray:none;stroke-dashoffset:0;stroke-opacity:1;-inkscape-stroke:none;stop-color:#000" d="m286.153 124.92 14.673-6.195 4.937-1.635-.16 1.4zM288.799 125.978l14.673-6.195 4.937-1.635-.16 1.4zM291.444 127.037l14.674-6.196 4.937-1.634-.16 1.4zM295.149 128.095l14.673-6.195 4.937-1.635-.16 1.4zM298.236 129.43l14.674-6.195 4.936-1.634-.16 1.4zM301.411 130.489l14.674-6.196 4.937-1.634-.16 1.4zM304.057 131.547l14.674-6.195 4.936-1.635-.16 1.4zM306.703 132.605l14.674-6.195 4.936-1.634-.16 1.4zM310.407 133.664l14.674-6.196 4.936-1.634-.16 1.4zM334.432 127.436l-3.148-.572-1.145 2.29-2.29.572 4.58-.572 2.003-1.718zM364.828 132.242l-2.411-2.103-2.156 1.38-2.26-.68 4.227 1.852 2.6-.449z" transform="matrix(.23944 0 0 .23944 14.127 41.11)"/>
        </g>
        <path style="font-variation-settings:normal;display:inline;vector-effect:none;fill:#cecece;fill-opacity:1;stroke:none;stroke-width:.135059;stroke-linecap:butt;stroke-linejoin:miter;stroke-miterlimit:4;stroke-dasharray:none;stroke-dashoffset:0;stroke-opacity:1;-inkscape-stroke:none;stop-color:#000" d="M80.779 64.088c.65 1.158 2.065 1.487 3.297 1.494 3.07-.002 6.142.237 9.209.028 2.926-.17 5.664-1.414 8.582-1.635.326-.032 1.398.012.565.114-4.15.82-8.253 2.348-12.544 2.037-2.704-.06-5.403-.321-8.11-.288-.517-.45-.854-1.085-1-1.75z"/>
        <path style="font-variation-settings:normal;display:inline;vector-effect:none;fill:none;fill-opacity:1;stroke:#777;stroke-width:.334698;stroke-linecap:round;stroke-linejoin:round;stroke-miterlimit:4;stroke-dasharray:.669396,.669396,.334698,.669396;stroke-dashoffset:0;stroke-opacity:1;-inkscape-stroke:none;stop-color:#000" d="M85.94 66.252c4.908.337 8.03.155 12.111-.558"/>
        <path style="display:inline;fill:none;stroke:#777;stroke-width:.334698;stroke-linecap:round;stroke-linejoin:round;stroke-dasharray:.669396,.669396,.334698,.669396;stroke-dashoffset:0;stroke-opacity:1" d="M86.563 64.956c3.443.28 6.934-.077 10.263-.988 1.784-.654 5.36-1.447 7.335-1.41"/>
        <path style="font-variation-settings:normal;display:inline;vector-effect:none;fill:#e9e9e9;fill-opacity:1;stroke:none;stroke-width:.123814;stroke-linecap:butt;stroke-linejoin:miter;stroke-miterlimit:4;stroke-dasharray:none;stroke-dashoffset:0;stroke-opacity:1;-inkscape-stroke:none;stop-color:#000" d="M80.868 64.364c-1.208-1.148-.937-.967-2.704-2.486l1.224.327zM79.891 65.6c-2.196-.783-3.272-1.15-6.533-2.076l.22-.92zM79.948 65.742c-2.324-.187-4.073-.68-6.759-.918l.05-.911zM80.21 66.157c-2.26.573-4.89 1.018-7.509 1.66l-.01-.804zM80.553 66.131c-2.035 1.139-4.423 1.915-6.786 3.213l-.779-.404-.119-.651zM80.223 66.005c-2.446.115-4.534.296-7.46.68l.254-1.46zM80.48 64.733c-1.773-.996-3.729-2.733-5.441-3.829l.855.06zM80.48 64.895c-1.996-.874-4.529-2.576-6.36-3.748l.585-.156zM80.223 65.152c-1.995-.874-4.69-2.333-6.522-3.505l.342-.265ZM80.04 65.456a87.802 87.802 0 0 1-6.468-3.153l.126-.4zM80.949 64.71c-1.572-1.29-2.984-2.19-4.48-3.566l.721.22zM79.968 66.618c-1.577 1.131-2.987 1.799-4.817 2.886l-1.018-.115ZM80.225 66.814c-1.578 1.13-2.123 1.799-3.953 2.886l-.72-.088zM80.32 67.01c-1.146 1.239-1.286 1.501-2.71 2.832l-.694-.142zM80.4 67.118c-.875 1.482-.771 1.258-1.683 2.832l-.667-.115Z"/>
        <path style="font-variation-settings:normal;display:inline;fill:#5c5c5c;fill-opacity:1;stroke:none;stroke-width:.137031;stroke-linecap:butt;stroke-linejoin:miter;stroke-miterlimit:4;stroke-dasharray:none;stroke-dashoffset:0;stroke-opacity:1;stop-color:#000" d="M103.317 66.623c-.45-.118-1.514-.461-1.992-.437-.399.126-1.476.402-1.847.593-.76.414-1.005.637-1.611 1.102-.385.225-.781.456-1.072.803-.186.196-.234.24-1.06 1.061-.085.13-.449.495-.217.416-.182-.063 1.106-.801 1.194-.904.517-.466 1.064-.911 1.675-1.25.89-.345 1.753-.758 2.645-1.099.861-.15 1.722-.25 2.285-.285z"/>
    </g>
</svg>
