<?xml version="1.0" encoding="UTF-8" standalone="no"?>
<!-- Created with Inkscape (http://www.inkscape.org/) -->

<svg
   width="185.95041"
   height="67.451294"
   viewBox="0 0 175.82567 0"
   version="1.1"
   id="svg5"
   xml:space="preserve"
   xmlns="http://www.w3.org/2000/svg"
   xmlns:svg="http://www.w3.org/2000/svg"><defs
     id="defs2"><filter
       style="color-interpolation-filters:sRGB"
       id="filter3599"
       x="-0.045907963"
       y="-0.47590989"
       width="1.0918159"
       height="1.9518225"><feGaussianBlur
         stdDeviation="0.74862459"
         id="feGaussianBlur3601" /></filter><filter
       style="color-interpolation-filters:sRGB"
       id="filter5052"
       x="-0.055284075"
       y="-0.11686803"
       width="1.110568"
       height="1.2337362"><feGaussianBlur
         stdDeviation="0.48967154"
         id="feGaussianBlur5054" /></filter></defs><g
     id="layer1"
     style="display:inline"
     transform="translate(-41.637209,-14.981301)"><path
       style="font-variation-settings:normal;opacity:1;vector-effect:none;fill:#ffffff;fill-opacity:0.541237;stroke:#000000;stroke-width:0.465;stroke-linecap:butt;stroke-linejoin:miter;stroke-miterlimit:4;stroke-dasharray:none;stroke-dashoffset:0;stroke-opacity:1;-inkscape-stroke:none;stop-color:#000000;stop-opacity:1"
       d="m 164.30855,28.514362 c -4.59387,-2.75443 -9.61731,-5.52773 -15.18015,-4.74925 -7.90912,0.24921 -16.06616,1.16369 -23.6504,-1.72359 -5.56123,-1.53394 -10.82687,-4.15037 -16.42685,-5.43378 -6.35163,-0.43524 -13.139265,0.37344 -16.270995,6.74953 -3.68577,3.41835 -4.16078,8.98774 1.37569,10.5969 4.17284,4.99164 10.524815,4.24224 16.151245,2.86816 18.00047,-2.76934 36.00107,-5.53856 54.00146,-8.30797 z"
       id="path7575" /><path
       style="font-variation-settings:normal;opacity:1;vector-effect:none;fill:#ffffff;fill-opacity:0.541237;stroke:#000000;stroke-width:0.465;stroke-linecap:butt;stroke-linejoin:miter;stroke-miterlimit:4;stroke-dasharray:none;stroke-dashoffset:0;stroke-opacity:1;-inkscape-stroke:none;stop-color:#000000;stop-opacity:1"
       d="m 101.93826,39.651912 c -7.391985,-3.50579 -14.790555,-7.06889 -21.791675,-11.28434 -7.192272,-2.17877 -14.116817,-5.04551 -21.012963,-8.01737 -3.707623,-1.53126 -10.113717,-1.36903 -12.400352,2.48183 -2.81854,6.7709 -3.497946,14.18579 -4.689728,21.3578 -0.604044,3.4133 0.504283,6.68073 1.311209,9.9409 5.741492,4.20844 13.254863,3.03103 19.923323,4.03148 4.945094,0.27472 9.874271,1.12288 14.758109,1.65142 7.598522,-0.68021 15.191562,-1.41967 22.788327,-2.11889 0.37125,-6.01428 0.7425,-12.02855 1.11375,-18.04283 z"
       id="path7577" /><path
       style="font-variation-settings:normal;opacity:1;vector-effect:none;fill:#ffffff;fill-opacity:0.541237;stroke:#000000;stroke-width:0.465;stroke-linecap:butt;stroke-linejoin:miter;stroke-miterlimit:4;stroke-dasharray:none;stroke-dashoffset:0;stroke-opacity:1;-inkscape-stroke:none;stop-color:#000000;stop-opacity:1"
       d="m 151.83449,75.514832 c -2.45026,2.07901 -4.90052,4.15802 -7.35078,6.23703 3.93527,0.1485 7.87053,0.297 11.8058,0.4455 3.15669,-2.16883 6.86312,-3.30265 10.42067,-4.62394 1.46758,-0.5504 2.97606,-1.03864 4.32962,-1.84281 -6.40177,-0.072 -12.80354,-0.14385 -19.20531,-0.21578 z"
       id="path7579" /><path
       style="font-variation-settings:normal;opacity:1;vector-effect:none;fill:#ffffff;fill-opacity:0.541237;stroke:#000000;stroke-width:0.465;stroke-linecap:butt;stroke-linejoin:miter;stroke-miterlimit:4;stroke-dasharray:none;stroke-dashoffset:0;stroke-opacity:1;-inkscape-stroke:none;stop-color:#000000;stop-opacity:1"
       d="m 137.13292,72.173562 c -7.94737,1.62077 -15.90626,3.18675 -23.83436,4.90052 -6.12739,-0.76689 -12.85705,-0.092 -18.184755,-3.79784 -3.15084,-0.68359 -6.45073,-2.33205 -6.34249,-5.98067 -0.43729,-2.23502 -0.87458,-4.47004 -1.31186,-6.70506 5.72275,-0.34743 11.53538,-2.26933 17.200545,-1.60799 10.89856,2.68926 21.79711,5.37852 32.69567,8.06777 -0.0742,1.70776 -0.1485,3.41551 -0.22275,5.12327 z"
       id="path7581" /><path
       style="font-variation-settings:normal;opacity:1;vector-effect:none;fill:#ffffff;fill-opacity:0.541237;stroke:#000000;stroke-width:0.465;stroke-linecap:butt;stroke-linejoin:miter;stroke-miterlimit:4;stroke-dasharray:none;stroke-dashoffset:0;stroke-opacity:1;-inkscape-stroke:none;stop-color:#000000;stop-opacity:1"
       d="m 201.28521,74.401072 c -3.98003,1.76088 -7.899,3.65949 -11.91686,5.33463 -3.21311,-0.72537 -7.03173,0.16715 -9.80473,-1.84104 -1.20726,-1.28202 -5.86323,-3.43015 -1.85832,-3.39401 7.14547,-1.23356 14.32015,-2.77221 21.5801,-2.89015 1.19834,0.38518 1.17959,1.95989 1.99981,2.79057 z"
       id="path7583" /><path
       style="font-variation-settings:normal;opacity:1;vector-effect:none;fill:#ededed;fill-opacity:1;stroke:#000000;stroke-width:0.465;stroke-linecap:butt;stroke-linejoin:miter;stroke-miterlimit:4;stroke-dasharray:none;stroke-dashoffset:0;stroke-opacity:1;-inkscape-stroke:none;stop-color:#000000;stop-opacity:1"
       d="m 225.78783,49.675712 c -2.39297,-2.74177 -4.20364,-6.14082 -7.67533,-7.665 -4.92234,-2.94821 -10.08117,-5.48655 -14.87966,-8.65783 -3.18683,-2.06423 -7.20684,-2.13713 -10.76578,-3.31198 -4.59351,-1.11844 -9.12774,-2.62309 -13.91163,-2.5012 -6.04319,-0.48596 -12.08815,-0.71002 -18.13808,-0.19938 -8.85435,0.32679 -17.66484,1.47305 -26.45769,2.47475 -12.75299,2.39866 -25.44092,5.1997 -38.134265,7.83208 -3.21979,-0.0292 -6.50889,0.37832 -9.49962,-1.09434 -2.28602,-0.51507 -4.53213,-1.93712 -6.84335,-1.87965 -2.545933,-0.23571 -2.760242,1.9835 -3.240617,3.92257 -0.889716,1.88822 -0.855056,3.73682 0.218682,5.54087 1.507235,2.5739 0.217289,5.82142 0.990196,8.42828 1.315993,1.59703 2.979819,2.47671 5.065279,2.48682 5.53089,0.8888 11.01206,2.08808 16.17988,4.29794 8.559895,2.84861 17.083295,5.83407 25.915395,7.74443 3.78192,0.92231 7.82953,1.93585 10.45435,5.01267 1.40939,1.46224 2.88085,2.80283 5.03059,2.81387 5.43049,0.93679 10.76309,2.83243 16.33581,2.37622 5.95372,-0.0301 11.93432,0.31814 17.80298,-0.90892 6.93292,-0.81371 13.81343,-2.25416 20.68417,-3.2675 2.35414,0.18734 4.49297,0.94124 6.36607,2.39442 1.99375,0.32738 4.15708,1.28441 5.50601,-0.78235 2.81495,-2.3037 5.35339,-5.04128 8.90757,-6.18506 2.51777,-1.40561 5.76816,-1.8804 7.23275,-4.62411 1.47185,-1.85344 2.94369,-3.70687 4.41554,-5.56031 -0.27539,-2.81818 -2.75081,-1.68956 -4.71184,-1.48374 -2.40162,0.47978 1.88245,-2.08383 2.48433,-2.97128 0.69413,-1.44517 1.49846,-2.63413 0.66826,-4.23227 z"
       id="path7573" /><path
       style="font-variation-settings:normal;opacity:1;vector-effect:none;fill:#adadad;fill-opacity:1;stroke:none;stroke-width:0.517911;stroke-linecap:butt;stroke-linejoin:miter;stroke-miterlimit:4;stroke-dasharray:none;stroke-dashoffset:0;stroke-opacity:1;-inkscape-stroke:none;stop-color:#000000;stop-opacity:1"
       d="m 172.55034,57.833732 c -1.06016,-6.44658 -0.71287,-11.59693 -6.02283,-13.3482 -4.24229,-0.36882 -8.22059,1.73656 -12.12447,3.07688 -4.41747,2.7145 -8.63633,5.93016 -12.18745,9.71987 -3.36582,2.89938 -3.43005,10.19065 -9.25242,9.19353 -4.73685,-0.88759 -9.33128,-2.48322 -14.13868,-3.09678 -6.29083,-1.35496 -12.59331,-2.66063 -18.890985,-3.98605 16.467965,5.83577 32.936015,11.67207 49.450725,17.37458 10.47214,-0.28163 27.30889,-1.28691 37.73674,-2.40807 -8.17733,-2.36139 -11.901,-5.60816 -14.57063,-16.52576 z"
       id="path7686" /><path
       style="font-variation-settings:normal;opacity:1;vector-effect:none;fill:#ededed;fill-opacity:1;stroke:none;stroke-width:0.468607;stroke-linecap:butt;stroke-linejoin:miter;stroke-miterlimit:4;stroke-dasharray:none;stroke-dashoffset:0;stroke-opacity:1;-inkscape-stroke:none;stop-color:#000000;stop-opacity:1"
       d="m 157.19896,49.007452 c 2.12002,-0.31038 4.24114,-1.83114 6.40522,-0.86145 3.71588,1.28746 6.85439,4.7853 6.83795,8.85321 0.2515,4.22493 -0.57013,8.50749 -2.22589,12.39219 -1.25966,2.76941 -3.62277,5.32127 -6.78193,5.71308 -5.4606,1.1165 -10.79356,-1.06099 -16.11504,-1.93464 -1.9791,-0.20087 -3.89962,-0.6807 -5.68673,-1.54748 -1.20614,-0.48674 -3.0417,-0.81518 -3.37576,-2.22699 0.008,-2.30807 2.16099,-3.70975 3.18806,-5.57576 1.28668,-2.13205 2.66203,-4.22924 4.48829,-5.94552 2.96474,-2.96801 6.3223,-5.5536 9.91822,-7.70741 1.04973,-0.54863 2.17414,-0.97381 3.34761,-1.15923 z"
       id="path7698" /><path
       style="font-variation-settings:normal;opacity:1;vector-effect:none;fill:#eeddb9;fill-opacity:1;stroke:none;stroke-width:0.264583px;stroke-linecap:butt;stroke-linejoin:miter;stroke-miterlimit:4;stroke-dasharray:none;stroke-dashoffset:0;stroke-opacity:1;-inkscape-stroke:none;filter:url(#filter5052);stop-color:#000000;stop-opacity:1"
       d="m 160.29903,49.230212 c -6.72748,2.93829 -15.38671,5.57055 -17.64525,13.48745 4.66206,7.50103 14.70875,3.78487 21.79471,1.74252 5.01184,-3.12742 6.00212,-12.39701 -1.55109,-14.44168 l -1.27687,-0.4703 z"
       id="path15093" /><ellipse
       style="font-variation-settings:normal;display:inline;opacity:1;vector-effect:none;fill:#faf1d5;fill-opacity:1;stroke:none;stroke-width:0.590509;stroke-linecap:butt;stroke-linejoin:miter;stroke-miterlimit:4;stroke-dasharray:none;stroke-dashoffset:0;stroke-opacity:1;-inkscape-stroke:none;stop-color:#000000"
       id="path3593-1"
       cx="109.41849"
       cy="125.2496"
       rx="5.5806618"
       ry="3.1480656"
       transform="rotate(-28.643053)" /><ellipse
       style="font-variation-settings:normal;display:inline;opacity:1;vector-effect:none;fill:#ffffff;fill-opacity:1;stroke:none;stroke-width:0.590793;stroke-linecap:butt;stroke-linejoin:miter;stroke-miterlimit:4;stroke-dasharray:none;stroke-dashoffset:0;stroke-opacity:1;-inkscape-stroke:none;stop-color:#000000;stop-opacity:1"
       id="path3593-1-6"
       cx="106.70754"
       cy="122.97192"
       rx="3.1189485"
       ry="1.710529"
       transform="matrix(0.88778616,-0.46025615,0.49875839,0.86674106,0,0)" /><path
       style="font-variation-settings:normal;opacity:0.234513;vector-effect:none;fill:none;fill-opacity:1;stroke:#fab82a;stroke-width:5.265;stroke-linecap:round;stroke-linejoin:round;stroke-miterlimit:4;stroke-dasharray:none;stroke-dashoffset:0;stroke-opacity:1;-inkscape-stroke:none;filter:url(#filter3599);stop-color:#000000;stop-opacity:1"
       d="m 217.32329,53.016972 c -15.97284,0.0403 -31.75686,1.44857 -45.17877,-8.88557 -8.57448,-6.41611 -19.04315,-3.37905 -28.27327,-0.57878 -13.68707,3.14071 -27.80144,7.69139 -41.91296,5.68735 -3.216915,-0.75305 -6.352895,-1.8237 -9.598315,-2.46003"
       id="path7826" /><path
       style="font-variation-settings:normal;opacity:1;vector-effect:none;fill:#f0e1c1;fill-opacity:1;stroke:none;stroke-width:0.264583px;stroke-linecap:butt;stroke-linejoin:miter;stroke-miterlimit:4;stroke-dasharray:none;stroke-dashoffset:0;stroke-opacity:1;-inkscape-stroke:none;filter:url(#filter5052);stop-color:#000000;stop-opacity:1"
       d="m 176.11435,49.898462 0.891,8.91004 7.12804,6.23703 h 8.91004 l 7.12803,3.11851 8.91004,-2.67301 4.45502,-0.4455 6.68253,-4.45502 h -3.56402 l 2.22752,-4.00952 -28.06769,-16.03128 -7.45804,-7.9734 -6.70252,-1.88808 z"
       id="path11302" /><circle
       style="font-variation-settings:normal;display:inline;fill:#adadad;fill-opacity:1;stroke:none;stroke-width:0.517911;stroke-linecap:butt;stroke-linejoin:miter;stroke-miterlimit:4;stroke-dasharray:none;stroke-dashoffset:0;stroke-opacity:1;stop-color:#000000"
       id="path1089-1-7"
       cx="199.1973"
       cy="49.676201"
       r="8.5959225" /><circle
       style="font-variation-settings:normal;display:inline;fill:#ffffff;fill-opacity:1;stroke:#000000;stroke-width:0.497571;stroke-linecap:butt;stroke-linejoin:miter;stroke-miterlimit:4;stroke-dasharray:none;stroke-dashoffset:0;stroke-opacity:1;stop-color:#000000"
       id="path1089-6"
       cx="200.28285"
       cy="50.817192"
       r="8.2583332" /><circle
       style="font-variation-settings:normal;display:inline;fill:#000000;fill-opacity:1;stroke:#000000;stroke-width:0.110351px;stroke-linecap:butt;stroke-linejoin:miter;stroke-miterlimit:4;stroke-dasharray:none;stroke-dashoffset:0;stroke-opacity:1;stop-color:#000000"
       id="path1089-7-8"
       cx="202.90453"
       cy="50.457115"
       r="3.2188537" /><path
       style="font-variation-settings:normal;opacity:1;vector-effect:none;fill:#f0e1c1;fill-opacity:1;stroke:none;stroke-width:0.264583px;stroke-linecap:butt;stroke-linejoin:miter;stroke-miterlimit:4;stroke-dasharray:none;stroke-dashoffset:0;stroke-opacity:1;-inkscape-stroke:none;filter:url(#filter5052);stop-color:#000000;stop-opacity:1"
       d="m 93.919235,40.320172 -4.23227,11.58305 15.815315,6.23703 17.82008,2.89576 10.69205,2.45026 4.67777,-5.79153 6.23703,-6.23702 7.12803,-4.90053 12.02856,-3.11851 4.67777,-1.78201 14.09471,6.37023 -2.17809,-4.31333 -2.17811,-3.61808 -2.31321,-10.14116 -12.99408,-1.21722 -15.59257,1.55926 -15.14707,1.78201 -27.17562,5.34602 z"
       id="path7866" /><path
       style="font-variation-settings:normal;display:inline;vector-effect:none;fill:#cecece;fill-opacity:1;stroke:none;stroke-width:0.510461;stroke-linecap:butt;stroke-linejoin:miter;stroke-miterlimit:4;stroke-dasharray:none;stroke-dashoffset:0;stroke-opacity:1;-inkscape-stroke:none;stop-color:#000000"
       d="m 79.248837,37.012962 c 1.872408,7.98789 11.471228,8.69805 18.123298,9.73676 11.957685,2.55079 24.351165,1.94009 36.327705,-0.0905 8.50909,-2.6305 17.47855,-4.16208 25.39021,-8.4479 -8.22705,5.44247 -18.12577,7.32518 -27.40915,10.18177 -11.36425,1.78116 -22.98284,1.5618 -34.265255,-0.6914 -5.58923,-1.36068 -12.05623,-1.69518 -16.6908,-5.2362 -1.11686,-1.58265 -1.31794,-3.57997 -1.476008,-5.45256 z"
       id="path7781" /><path
       style="font-variation-settings:normal;opacity:1;vector-effect:none;fill:#e9e9e9;fill-opacity:1;stroke:none;stroke-width:0.510461;stroke-linecap:butt;stroke-linejoin:miter;stroke-miterlimit:4;stroke-dasharray:none;stroke-dashoffset:0;stroke-opacity:1;-inkscape-stroke:none;stop-color:#000000;stop-opacity:1"
       d="m 95.812615,15.760942 14.367435,12.91956 3.56402,3.78677 -1.33651,0.4455 z"
       id="path7914" /><path
       style="font-variation-settings:normal;display:inline;vector-effect:none;fill:#e9e9e9;fill-opacity:1;stroke:none;stroke-width:0.510461;stroke-linecap:butt;stroke-linejoin:miter;stroke-miterlimit:4;stroke-dasharray:none;stroke-dashoffset:0;stroke-opacity:1;-inkscape-stroke:none;stop-color:#000000"
       d="m 98.347075,14.981312 14.478815,13.69919 3.56401,3.78677 -1.33651,0.4455 z"
       id="path7914-8" /><path
       style="font-variation-settings:normal;display:inline;vector-effect:none;fill:#e9e9e9;fill-opacity:1;stroke:none;stroke-width:0.510461;stroke-linecap:butt;stroke-linejoin:miter;stroke-miterlimit:4;stroke-dasharray:none;stroke-dashoffset:0;stroke-opacity:1;-inkscape-stroke:none;stop-color:#000000"
       d="m 77.367885,34.736092 c -4.97928,-4.73344 -3.864089,-3.98653 -11.14743,-10.25206 l 5.046808,1.34821 z"
       id="path7914-8-6" /><path
       style="font-variation-settings:normal;display:inline;vector-effect:none;fill:#e9e9e9;fill-opacity:1;stroke:none;stroke-width:0.510461;stroke-linecap:butt;stroke-linejoin:miter;stroke-miterlimit:4;stroke-dasharray:none;stroke-dashoffset:0;stroke-opacity:1;-inkscape-stroke:none;stop-color:#000000"
       d="m 73.341209,39.827672 c -9.053998,-3.22598 -13.490117,-4.74023 -26.936662,-8.55493 l 0.906104,-3.79627 z"
       id="path7914-8-6-4" /><path
       style="font-variation-settings:normal;display:inline;vector-effect:none;fill:#e9e9e9;fill-opacity:1;stroke:none;stroke-width:0.510461;stroke-linecap:butt;stroke-linejoin:miter;stroke-miterlimit:4;stroke-dasharray:none;stroke-dashoffset:0;stroke-opacity:1;-inkscape-stroke:none;stop-color:#000000"
       d="m 73.573105,40.416842 c -9.580435,-0.77271 -16.791443,-2.80269 -27.862452,-3.78549 l 0.207698,-3.75524 z"
       id="path7914-8-6-4-0" /><path
       style="font-variation-settings:normal;display:inline;vector-effect:none;fill:#e9e9e9;fill-opacity:1;stroke:none;stroke-width:0.510461;stroke-linecap:butt;stroke-linejoin:miter;stroke-miterlimit:4;stroke-dasharray:none;stroke-dashoffset:0;stroke-opacity:1;-inkscape-stroke:none;stop-color:#000000"
       d="m 74.652186,42.126822 c -9.316366,2.36371 -20.158915,4.19598 -30.953801,6.84241 l -0.0464,-3.3123 z"
       id="path7914-8-6-4-9" /><path
       style="font-variation-settings:normal;display:inline;vector-effect:none;fill:#e9e9e9;fill-opacity:1;stroke:none;stroke-width:0.510461;stroke-linecap:butt;stroke-linejoin:miter;stroke-miterlimit:4;stroke-dasharray:none;stroke-dashoffset:0;stroke-opacity:1;-inkscape-stroke:none;stop-color:#000000"
       d="m 76.067471,42.021162 c -8.387145,4.69442 -18.234801,7.89385 -27.976915,13.24402 l -3.209604,-1.66319 -0.491527,-2.68505 z"
       id="path7914-8-6-4-0-8" /><path
       style="font-variation-settings:normal;display:inline;vector-effect:none;fill:#e9e9e9;fill-opacity:1;stroke:none;stroke-width:0.510461;stroke-linecap:butt;stroke-linejoin:miter;stroke-miterlimit:4;stroke-dasharray:none;stroke-dashoffset:0;stroke-opacity:1;-inkscape-stroke:none;stop-color:#000000"
       d="m 74.708121,41.500862 c -10.084017,0.47315 -18.692856,1.22176 -30.754752,2.8037 l 1.04564,-6.01664 z"
       id="path7914-8-6-4-0-2" /><path
       style="font-variation-settings:normal;display:inline;vector-effect:none;fill:#e9e9e9;fill-opacity:1;stroke:none;stroke-width:0.510461;stroke-linecap:butt;stroke-linejoin:miter;stroke-miterlimit:4;stroke-dasharray:none;stroke-dashoffset:0;stroke-opacity:1;-inkscape-stroke:none;stop-color:#000000"
       d="M 75.766015,36.256882 C 68.459354,32.150822 60.394372,24.988802 53.334287,20.470972 l 3.526332,0.24429 z"
       id="path7914-8-6-5-0" /><path
       style="font-variation-settings:normal;display:inline;vector-effect:none;fill:#e9e9e9;fill-opacity:1;stroke:none;stroke-width:0.510461;stroke-linecap:butt;stroke-linejoin:miter;stroke-miterlimit:4;stroke-dasharray:none;stroke-dashoffset:0;stroke-opacity:1;-inkscape-stroke:none;stop-color:#000000"
       d="M 75.765482,36.925682 C 67.53981,33.320952 57.096015,26.304612 49.546986,21.473902 l 2.412577,-0.64672 z"
       id="path7914-8-6-5-0-7" /><path
       style="font-variation-settings:normal;display:inline;vector-effect:none;fill:#e9e9e9;fill-opacity:1;stroke:none;stroke-width:0.510461;stroke-linecap:butt;stroke-linejoin:miter;stroke-miterlimit:4;stroke-dasharray:none;stroke-dashoffset:0;stroke-opacity:1;-inkscape-stroke:none;stop-color:#000000"
       d="m 74.707148,37.984022 c -8.225672,-3.60473 -19.33772,-9.61869 -26.886749,-14.4494 l 1.410197,-1.09222 z"
       id="path7914-8-6-5-0-7-6" /><path
       style="font-variation-settings:normal;display:inline;vector-effect:none;fill:#e9e9e9;fill-opacity:1;stroke:none;stroke-width:0.510461;stroke-linecap:butt;stroke-linejoin:miter;stroke-miterlimit:4;stroke-dasharray:none;stroke-dashoffset:0;stroke-opacity:1;-inkscape-stroke:none;stop-color:#000000"
       d="M 73.951554,39.237992 C 65.725882,35.633262 55.95034,30.955812 47.287556,26.236472 l 0.519192,-1.6491 z"
       id="path7914-8-6-5-0-7-6-8" /><path
       style="font-variation-settings:normal;display:inline;vector-effect:none;fill:#e9e9e9;fill-opacity:1;stroke:none;stroke-width:0.510461;stroke-linecap:butt;stroke-linejoin:miter;stroke-miterlimit:4;stroke-dasharray:none;stroke-dashoffset:0;stroke-opacity:1;-inkscape-stroke:none;stop-color:#000000"
       d="m 77.701438,36.160652 c -6.48117,-5.31427 -12.301659,-9.02504 -18.468398,-14.70192 l 2.971828,0.90786 z"
       id="path7914-8-6-5" /><path
       style="font-variation-settings:normal;display:inline;vector-effect:none;fill:#e9e9e9;fill-opacity:1;stroke:none;stroke-width:0.510461;stroke-linecap:butt;stroke-linejoin:miter;stroke-miterlimit:4;stroke-dasharray:none;stroke-dashoffset:0;stroke-opacity:1;-inkscape-stroke:none;stop-color:#000000"
       d="m 101.77253,15.788652 13.69919,12.36268 3.56402,3.78677 -1.33651,0.4455 z"
       id="path7914-8-0" /><path
       style="font-variation-settings:normal;display:inline;vector-effect:none;fill:#e9e9e9;fill-opacity:1;stroke:none;stroke-width:0.510461;stroke-linecap:butt;stroke-linejoin:miter;stroke-miterlimit:4;stroke-dasharray:none;stroke-dashoffset:0;stroke-opacity:1;-inkscape-stroke:none;stop-color:#000000"
       d="m 105.198,16.039112 12.91956,11.58305 3.56401,3.78677 -1.33651,0.4455 z"
       id="path7914-8-0-9" /><path
       style="font-variation-settings:normal;display:inline;vector-effect:none;fill:#e9e9e9;fill-opacity:1;stroke:none;stroke-width:0.510461;stroke-linecap:butt;stroke-linejoin:miter;stroke-miterlimit:4;stroke-dasharray:none;stroke-dashoffset:0;stroke-opacity:1;-inkscape-stroke:none;stop-color:#000000"
       d="m 109.48675,16.400942 11.80581,10.69205 3.56401,3.78677 -1.3365,0.4455 z"
       id="path7914-8-0-9-2" /><path
       style="font-variation-settings:normal;display:inline;vector-effect:none;fill:#e9e9e9;fill-opacity:1;stroke:none;stroke-width:0.510461;stroke-linecap:butt;stroke-linejoin:miter;stroke-miterlimit:4;stroke-dasharray:none;stroke-dashoffset:0;stroke-opacity:1;-inkscape-stroke:none;stop-color:#000000"
       d="m 90.630185,27.846002 5.79153,4.00952 3.56402,3.78677 -1.33651,0.4455 z"
       id="path7914-86" /><path
       style="font-variation-settings:normal;display:inline;vector-effect:none;fill:#e9e9e9;fill-opacity:1;stroke:none;stroke-width:0.510461;stroke-linecap:butt;stroke-linejoin:miter;stroke-miterlimit:4;stroke-dasharray:none;stroke-dashoffset:0;stroke-opacity:1;-inkscape-stroke:none;stop-color:#000000"
       d="m 91.605395,25.200702 7.46215,6.12565 3.564015,3.78677 -1.33651,0.4455 z"
       id="path7914-8-7" /><path
       style="font-variation-settings:normal;display:inline;vector-effect:none;fill:#e9e9e9;fill-opacity:1;stroke:none;stroke-width:0.510461;stroke-linecap:butt;stroke-linejoin:miter;stroke-miterlimit:4;stroke-dasharray:none;stroke-dashoffset:0;stroke-opacity:1;-inkscape-stroke:none;stop-color:#000000"
       d="m 93.026095,23.335022 8.687285,7.46216 3.56402,3.78677 -1.33651,0.4455 z"
       id="path7914-8-0-8" /><path
       style="font-variation-settings:normal;display:inline;vector-effect:none;fill:#e9e9e9;fill-opacity:1;stroke:none;stroke-width:0.510461;stroke-linecap:butt;stroke-linejoin:miter;stroke-miterlimit:4;stroke-dasharray:none;stroke-dashoffset:0;stroke-opacity:1;-inkscape-stroke:none;stop-color:#000000"
       d="m 93.082585,19.575962 11.805795,10.69205 3.56402,3.78677 -1.33651,0.4455 z"
       id="path7914-8-0-9-3" /><path
       style="font-variation-settings:normal;display:inline;vector-effect:none;fill:#e9e9e9;fill-opacity:1;stroke:none;stroke-width:0.510461;stroke-linecap:butt;stroke-linejoin:miter;stroke-miterlimit:4;stroke-dasharray:none;stroke-dashoffset:0;stroke-opacity:1;-inkscape-stroke:none;stop-color:#000000"
       d="m 95.728415,18.517622 11.805805,10.69205 3.56401,3.78677 -1.33651,0.4455 z"
       id="path7914-8-0-9-2-4" /><path
       style="font-variation-settings:normal;display:inline;vector-effect:none;fill:#e9e9e9;fill-opacity:1;stroke:none;stroke-width:0.510461;stroke-linecap:butt;stroke-linejoin:miter;stroke-miterlimit:4;stroke-dasharray:none;stroke-dashoffset:0;stroke-opacity:1;-inkscape-stroke:none;stop-color:#000000"
       d="m 116.33715,19.435792 8.13041,7.12803 3.56402,3.78677 -1.33651,0.4455 z"
       id="path7914-6" /><path
       style="font-variation-settings:normal;display:inline;vector-effect:none;fill:#e9e9e9;fill-opacity:1;stroke:none;stroke-width:0.510461;stroke-linecap:butt;stroke-linejoin:miter;stroke-miterlimit:4;stroke-dasharray:none;stroke-dashoffset:0;stroke-opacity:1;-inkscape-stroke:none;stop-color:#000000"
       d="m 120.09674,20.577252 7.01666,5.4574 3.56402,3.78677 -1.33651,0.4455 z"
       id="path7914-8-3" /><path
       style="font-variation-settings:normal;display:inline;vector-effect:none;fill:#e9e9e9;fill-opacity:1;stroke:none;stroke-width:0.510461;stroke-linecap:butt;stroke-linejoin:miter;stroke-miterlimit:4;stroke-dasharray:none;stroke-dashoffset:0;stroke-opacity:1;-inkscape-stroke:none;stop-color:#000000"
       d="m 125.63834,22.498342 4.1209,3.00714 3.56403,3.78677 -1.33651,0.4455 z"
       id="path7914-8-0-3" /><path
       style="font-variation-settings:normal;display:inline;vector-effect:none;fill:#e9e9e9;fill-opacity:1;stroke:none;stroke-width:0.510461;stroke-linecap:butt;stroke-linejoin:miter;stroke-miterlimit:4;stroke-dasharray:none;stroke-dashoffset:0;stroke-opacity:1;-inkscape-stroke:none;stop-color:#000000"
       d="m 130.4003,23.751182 2.00479,1.22513 3.56403,3.78677 -1.33651,0.4455 z"
       id="path7914-8-0-9-4" /><path
       style="font-variation-settings:normal;display:inline;vector-effect:none;fill:#e9e9e9;fill-opacity:1;stroke:none;stroke-width:0.510461;stroke-linecap:butt;stroke-linejoin:miter;stroke-miterlimit:4;stroke-dasharray:none;stroke-dashoffset:0;stroke-opacity:1;-inkscape-stroke:none;stop-color:#000000"
       d="m 134.57768,24.335762 c 2.23704,1.28417 3.25169,2.50121 4.56646,3.89815 l -1.33651,0.4455 z"
       id="path7914-8-0-9-2-8" /><path
       style="font-variation-settings:normal;display:inline;vector-effect:none;fill:#e9e9e9;fill-opacity:1;stroke:none;stroke-width:0.510461;stroke-linecap:butt;stroke-linejoin:miter;stroke-miterlimit:4;stroke-dasharray:none;stroke-dashoffset:0;stroke-opacity:1;-inkscape-stroke:none;stop-color:#000000"
       d="m 137.22353,24.335762 c 2.23704,1.28417 3.25169,2.50121 4.56646,3.89815 l -1.33651,0.4455 z"
       id="path7914-8-0-9-2-8-6" /><path
       style="font-variation-settings:normal;display:inline;vector-effect:none;fill:#e9e9e9;fill-opacity:1;stroke:none;stroke-width:0.510461;stroke-linecap:butt;stroke-linejoin:miter;stroke-miterlimit:4;stroke-dasharray:none;stroke-dashoffset:0;stroke-opacity:1;-inkscape-stroke:none;stop-color:#000000"
       d="m 139.86938,23.806592 c 2.23704,1.28417 3.25169,2.50121 4.56646,3.89815 l -1.33651,0.4455 z"
       id="path7914-8-0-9-2-8-6-6" /><path
       style="font-variation-settings:normal;display:inline;vector-effect:none;fill:#e9e9e9;fill-opacity:1;stroke:none;stroke-width:0.510461;stroke-linecap:butt;stroke-linejoin:miter;stroke-miterlimit:4;stroke-dasharray:none;stroke-dashoffset:0;stroke-opacity:1;-inkscape-stroke:none;stop-color:#000000"
       d="m 142.51523,23.806592 c 2.23704,1.28417 3.25169,2.50121 4.56646,3.89815 l -1.33651,0.4455 z"
       id="path7914-8-0-9-2-8-6-6-5" /><path
       style="font-variation-settings:normal;display:inline;vector-effect:none;fill:#e9e9e9;fill-opacity:1;stroke:none;stroke-width:0.510461;stroke-linecap:butt;stroke-linejoin:miter;stroke-miterlimit:4;stroke-dasharray:none;stroke-dashoffset:0;stroke-opacity:1;-inkscape-stroke:none;stop-color:#000000"
       d="m 145.16108,23.277422 c 2.23704,1.28417 3.25169,2.50121 4.56646,3.89815 l -1.33651,0.4455 z"
       id="path7914-8-0-9-2-8-6-6-5-5" /><path
       style="font-variation-settings:normal;display:inline;vector-effect:none;fill:#e9e9e9;fill-opacity:1;stroke:none;stroke-width:0.510461;stroke-linecap:butt;stroke-linejoin:miter;stroke-miterlimit:4;stroke-dasharray:none;stroke-dashoffset:0;stroke-opacity:1;-inkscape-stroke:none;stop-color:#000000"
       d="m 147.80693,23.277422 c 2.23704,1.28417 3.25169,2.50121 4.56646,3.89815 l -1.33651,0.4455 z"
       id="path7914-8-0-9-2-8-6-6-5-5-9" /><path
       style="font-variation-settings:normal;display:inline;vector-effect:none;fill:#e9e9e9;fill-opacity:1;stroke:none;stroke-width:0.510461;stroke-linecap:butt;stroke-linejoin:miter;stroke-miterlimit:4;stroke-dasharray:none;stroke-dashoffset:0;stroke-opacity:1;-inkscape-stroke:none;stop-color:#000000"
       d="m 150.45278,22.748252 c 2.23704,1.28417 3.25169,2.50121 4.56646,3.89815 l -1.33651,0.4455 z"
       id="path7914-8-0-9-2-8-6-6-5-5-9-4" /><path
       style="fill:none;stroke:#000000;stroke-width:0.264583px;stroke-linecap:butt;stroke-linejoin:miter;stroke-opacity:1"
       d="m 197.49845,73.510072 c -2.56738,-1.88777 -2.62747,-2.26537 -4.90056,-4.45502"
       id="path8299" /><path
       style="font-variation-settings:normal;opacity:1;vector-effect:none;fill:#d5d5d5;fill-opacity:1;stroke:none;stroke-width:0.517911;stroke-linecap:butt;stroke-linejoin:miter;stroke-miterlimit:4;stroke-dasharray:none;stroke-dashoffset:0;stroke-opacity:1;-inkscape-stroke:none;stop-color:#000000;stop-opacity:1"
       d="m 195.37619,72.458852 -1.33882,-1.02381 -1.49633,-1.73259 -7.48477,-0.90301 -9.76244,-6.42116 0.96441,4.26143 4.07222,3.69673 6.84974,3.01601 6.4634,-0.65734 z"
       id="path8386" /><path
       style="font-variation-settings:normal;display:inline;vector-effect:none;fill:#e9e9e9;fill-opacity:1;stroke:none;stroke-width:0.510461;stroke-linecap:butt;stroke-linejoin:miter;stroke-miterlimit:4;stroke-dasharray:none;stroke-dashoffset:0;stroke-opacity:1;-inkscape-stroke:none;stop-color:#000000"
       d="m 79.280554,67.517452 14.673621,-6.19533 4.93661,-1.63454 -0.15971,1.39972 z"
       id="path7914-8-0-9-2-4-9" /><path
       style="font-variation-settings:normal;display:inline;vector-effect:none;fill:#e9e9e9;fill-opacity:1;stroke:none;stroke-width:0.510461;stroke-linecap:butt;stroke-linejoin:miter;stroke-miterlimit:4;stroke-dasharray:none;stroke-dashoffset:0;stroke-opacity:1;-inkscape-stroke:none;stop-color:#000000"
       d="m 82.455555,68.575792 14.67362,-6.19533 4.936605,-1.63454 -0.15971,1.39972 z"
       id="path7914-8-0-9-2-4-9-2" /><path
       style="font-variation-settings:normal;display:inline;vector-effect:none;fill:#e9e9e9;fill-opacity:1;stroke:none;stroke-width:0.510461;stroke-linecap:butt;stroke-linejoin:miter;stroke-miterlimit:4;stroke-dasharray:none;stroke-dashoffset:0;stroke-opacity:1;-inkscape-stroke:none;stop-color:#000000"
       d="m 85.101395,69.634132 14.67361,-6.19533 4.936605,-1.63454 -0.15971,1.39972 z"
       id="path7914-8-0-9-2-4-9-2-6" /><path
       style="font-variation-settings:normal;display:inline;vector-effect:none;fill:#e9e9e9;fill-opacity:1;stroke:none;stroke-width:0.510461;stroke-linecap:butt;stroke-linejoin:miter;stroke-miterlimit:4;stroke-dasharray:none;stroke-dashoffset:0;stroke-opacity:1;-inkscape-stroke:none;stop-color:#000000"
       d="m 87.747225,70.692472 14.673615,-6.19533 4.93661,-1.63454 -0.15971,1.39972 z"
       id="path7914-8-0-9-2-4-9-2-6-2" /><path
       style="font-variation-settings:normal;display:inline;vector-effect:none;fill:#e9e9e9;fill-opacity:1;stroke:none;stroke-width:0.510461;stroke-linecap:butt;stroke-linejoin:miter;stroke-miterlimit:4;stroke-dasharray:none;stroke-dashoffset:0;stroke-opacity:1;-inkscape-stroke:none;stop-color:#000000"
       d="m 73.656459,44.027512 c -6.50221,4.66344 -12.313813,7.41626 -19.8592,11.8998 l -4.195589,-0.47355 z"
       id="path7914-8-0-9-2-4-9-2-6-2-9" /><path
       style="font-variation-settings:normal;display:inline;vector-effect:none;fill:#e9e9e9;fill-opacity:1;stroke:none;stroke-width:0.510461;stroke-linecap:butt;stroke-linejoin:miter;stroke-miterlimit:4;stroke-dasharray:none;stroke-dashoffset:0;stroke-opacity:1;-inkscape-stroke:none;stop-color:#000000"
       d="m 74.714793,44.835392 c -6.50221,4.66344 -8.749796,7.41626 -16.295183,11.8998 l -2.970459,-0.36217 z"
       id="path7914-8-0-9-2-4-9-2-6-2-9-8" /><path
       style="font-variation-settings:normal;display:inline;vector-effect:none;fill:#e9e9e9;fill-opacity:1;stroke:none;stroke-width:0.510461;stroke-linecap:butt;stroke-linejoin:miter;stroke-miterlimit:4;stroke-dasharray:none;stroke-dashoffset:0;stroke-opacity:1;-inkscape-stroke:none;stop-color:#000000"
       d="m 75.104874,45.643272 c -4.720202,5.10894 -5.297155,6.19113 -11.17191,11.67705 l -2.859083,-0.58492 z"
       id="path7914-8-0-9-2-4-9-2-6-2-9-8-8" /><path
       style="font-variation-settings:normal;display:inline;vector-effect:none;fill:#e9e9e9;fill-opacity:1;stroke:none;stroke-width:0.510461;stroke-linecap:butt;stroke-linejoin:miter;stroke-miterlimit:4;stroke-dasharray:none;stroke-dashoffset:0;stroke-opacity:1;-inkscape-stroke:none;stop-color:#000000"
       d="m 75.439001,46.089322 c -3.606447,6.11132 -3.181021,5.18875 -6.939641,11.67705 l -2.747708,-0.47355 z"
       id="path7914-8-0-9-2-4-9-2-6-2-9-8-8-7" /><path
       style="font-variation-settings:normal;display:inline;vector-effect:none;fill:#e9e9e9;fill-opacity:1;stroke:none;stroke-width:0.510461;stroke-linecap:butt;stroke-linejoin:miter;stroke-miterlimit:4;stroke-dasharray:none;stroke-dashoffset:0;stroke-opacity:1;-inkscape-stroke:none;stop-color:#000000"
       d="m 91.451395,71.750812 14.673615,-6.19533 4.93661,-1.63454 -0.15971,1.39972 z"
       id="path7914-8-0-9-2-4-9-2-6-8" /><path
       style="font-variation-settings:normal;display:inline;vector-effect:none;fill:#e9e9e9;fill-opacity:1;stroke:none;stroke-width:0.510461;stroke-linecap:butt;stroke-linejoin:miter;stroke-miterlimit:4;stroke-dasharray:none;stroke-dashoffset:0;stroke-opacity:1;-inkscape-stroke:none;stop-color:#000000"
       d="m 94.538995,73.086232 14.673615,-6.19533 4.93661,-1.63454 -0.15971,1.39972 z"
       id="path7914-8-0-9-2-4-9-4" /><path
       style="font-variation-settings:normal;display:inline;vector-effect:none;fill:#e9e9e9;fill-opacity:1;stroke:none;stroke-width:0.510461;stroke-linecap:butt;stroke-linejoin:miter;stroke-miterlimit:4;stroke-dasharray:none;stroke-dashoffset:0;stroke-opacity:1;-inkscape-stroke:none;stop-color:#000000"
       d="m 97.714005,74.144572 14.673605,-6.19533 4.93661,-1.63454 -0.15971,1.39972 z"
       id="path7914-8-0-9-2-4-9-2-3" /><path
       style="font-variation-settings:normal;display:inline;vector-effect:none;fill:#e9e9e9;fill-opacity:1;stroke:none;stroke-width:0.510461;stroke-linecap:butt;stroke-linejoin:miter;stroke-miterlimit:4;stroke-dasharray:none;stroke-dashoffset:0;stroke-opacity:1;-inkscape-stroke:none;stop-color:#000000"
       d="m 100.35983,75.202912 14.67362,-6.19533 4.93661,-1.63454 -0.15971,1.39972 z"
       id="path7914-8-0-9-2-4-9-2-6-89" /><path
       style="font-variation-settings:normal;display:inline;vector-effect:none;fill:#e9e9e9;fill-opacity:1;stroke:none;stroke-width:0.510461;stroke-linecap:butt;stroke-linejoin:miter;stroke-miterlimit:4;stroke-dasharray:none;stroke-dashoffset:0;stroke-opacity:1;-inkscape-stroke:none;stop-color:#000000"
       d="m 103.00567,76.261252 14.67361,-6.19533 4.93661,-1.63454 -0.15971,1.39972 z"
       id="path7914-8-0-9-2-4-9-2-6-2-6" /><path
       style="font-variation-settings:normal;display:inline;vector-effect:none;fill:#e9e9e9;fill-opacity:1;stroke:none;stroke-width:0.510461;stroke-linecap:butt;stroke-linejoin:miter;stroke-miterlimit:4;stroke-dasharray:none;stroke-dashoffset:0;stroke-opacity:1;-inkscape-stroke:none;stop-color:#000000"
       d="m 106.70984,77.319592 14.67361,-6.19533 4.93661,-1.63454 -0.15971,1.39972 z"
       id="path7914-8-0-9-2-4-9-2-6-8-3" /><path
       style="font-variation-settings:normal;display:inline;vector-effect:none;fill:#e9e9e9;fill-opacity:1;stroke:none;stroke-width:0.510461;stroke-linecap:butt;stroke-linejoin:miter;stroke-miterlimit:4;stroke-dasharray:none;stroke-dashoffset:0;stroke-opacity:1;-inkscape-stroke:none;stop-color:#000000"
       d="m 130.73441,71.092252 c -1.04935,-0.19079 -2.09871,-0.38159 -3.14806,-0.57238 -0.38159,0.76317 -0.76317,1.52634 -1.14475,2.28951 -0.76317,0.19079 -1.52634,0.38158 -2.28951,0.57237 1.52634,-0.19079 3.05267,-0.38158 4.57901,-0.57237 0.66777,-0.57238 1.33554,-1.14475 2.00331,-1.71713 z"
       id="path5115-6" /><path
       style="font-variation-settings:normal;display:inline;vector-effect:none;fill:#e9e9e9;fill-opacity:1;stroke:none;stroke-width:0.510461;stroke-linecap:butt;stroke-linejoin:miter;stroke-miterlimit:4;stroke-dasharray:none;stroke-dashoffset:0;stroke-opacity:1;-inkscape-stroke:none;stop-color:#000000"
       d="m 153.66202,78.498052 c -1.04935,-0.19079 -2.37714,-0.27021 -3.42649,-0.461 -0.38159,0.76317 -0.76317,1.52634 -1.14475,2.28951 l -2.28951,0.57237 4.579,-0.57237 c 0.66777,-0.57238 1.61398,-1.25613 2.28175,-1.82851 z"
       id="path5115-6-9" /><path
       style="font-variation-settings:normal;display:inline;vector-effect:none;fill:#e9e9e9;fill-opacity:1;stroke:none;stroke-width:0.510461;stroke-linecap:butt;stroke-linejoin:miter;stroke-miterlimit:4;stroke-dasharray:none;stroke-dashoffset:0;stroke-opacity:1;-inkscape-stroke:none;stop-color:#000000"
       d="m 157.61694,78.609432 c -1.04935,-0.19079 -2.15439,0.008 -3.20374,-0.18257 -0.38159,0.76317 -0.70748,1.13653 -1.08906,1.8997 l -2.28951,0.57237 4.579,-0.57237 c 0.66777,-0.57238 1.33554,-1.14475 2.00331,-1.71713 z"
       id="path5115-6-9-9" /><path
       style="font-variation-settings:normal;opacity:1;vector-effect:none;fill:none;fill-opacity:1;stroke:#777777;stroke-width:1.265;stroke-linecap:round;stroke-linejoin:round;stroke-miterlimit:4;stroke-dasharray:2.53, 2.53, 1.265, 2.53;stroke-dashoffset:0;stroke-opacity:1;-inkscape-stroke:none;stop-color:#000000;stop-opacity:1"
       d="m 83.140165,43.476802 c 12.85237,4.72115 26.226095,8.83368 39.986765,6.83887 7.31502,-1.2551 14.72593,-2.04048 21.91093,-3.98133"
       id="path24693" /><path
       style="display:inline;fill:none;stroke:#777777;stroke-width:1.265;stroke-linecap:round;stroke-linejoin:round;stroke-dasharray:2.53, 2.53, 1.265, 2.53;stroke-dashoffset:0;stroke-opacity:1"
       d="m 96.127685,43.862292 c 11.344635,3.87297 23.132405,-0.51377 34.625275,-1.09559 7.76912,-0.84481 15.00477,-4.13379 22.61746,-5.77477 7.08136,-1.96414 14.33979,-2.842 21.68366,-2.30065"
       id="path24693-5" /></g><path
     style="font-variation-settings:normal;display:inline;vector-effect:none;fill:#5c5c5c;fill-opacity:1;stroke:none;stroke-width:0.517911;stroke-linecap:butt;stroke-linejoin:miter;stroke-miterlimit:4;stroke-dasharray:none;stroke-dashoffset:0;stroke-opacity:1;-inkscape-stroke:none;stop-color:#000000"
     d="m 126.96095,31.384329 c -1.71775,-0.37155 -5.791,-1.49996 -7.59185,-1.33125 -1.48738,0.53903 -5.51161,1.74914 -6.88337,2.53154 -2.80476,1.68309 -3.69153,2.56509 -5.90698,4.41794 -1.41966,0.91015 -2.87859,1.8432 -3.9191,3.2002 -0.67197,0.77168 -0.84588,0.94134 -3.834819,4.17674 -0.30076,0.50328 -3.82321,7.29322 -2.96031,6.95861 -0.69525,-0.2068 6.255569,-8.55464 6.571549,-8.95788 1.87933,-1.84299 3.87447,-3.61056 6.12802,-4.98446 3.30712,-1.44538 6.49927,-3.14177 9.81371,-4.5705 3.22556,-0.7041 6.46282,-1.22031 8.58315,-1.44094 z"
     id="path1222-9" /></svg>
