<?xml version="1.0" encoding="UTF-8" standalone="no"?>
<!-- Created with Inkscape (http://www.inkscape.org/) -->

<svg
   width="17.512123mm"
   height="18.564575mm"
   viewBox="0 0 17.512123 18.564575"
   version="1.1"
   id="svg6261"
   xml:space="preserve"
   xmlns="http://www.w3.org/2000/svg"
   xmlns:svg="http://www.w3.org/2000/svg"><defs
     id="defs6258" /><g
     id="layer1"
     transform="translate(236.088,-100.34416)"><ellipse
       style="font-variation-settings:normal;vector-effect:none;fill:#939393;fill-opacity:1;stroke:none;stroke-width:0.0294881;stroke-linecap:butt;stroke-linejoin:miter;stroke-miterlimit:4;stroke-dasharray:none;stroke-dashoffset:0;stroke-opacity:0.985836;-inkscape-stroke:none;stop-color:#000000"
       id="path26269-6"
       cx="-223.44109"
       cy="117.04274"
       rx="1.8786446"
       ry="1.6834276" /><ellipse
       style="font-variation-settings:normal;opacity:1;fill:#ffffff;fill-opacity:0.637394;stroke:#000000;stroke-width:0.161;stroke-linecap:butt;stroke-linejoin:miter;stroke-miterlimit:4;stroke-dasharray:none;stroke-dashoffset:0;stroke-opacity:0.985836;stop-color:#000000;stop-opacity:1"
       id="path26269"
       cx="-223.42578"
       cy="116.17603"
       rx="2.5461066"
       ry="2.652194" /><path
       style="font-variation-settings:normal;opacity:1;vector-effect:none;fill:#f1f1f1;fill-opacity:0.770538;stroke:none;stroke-width:0.0430892;stroke-linecap:butt;stroke-linejoin:miter;stroke-miterlimit:4;stroke-dasharray:none;stroke-dashoffset:0;stroke-opacity:0.985836;-inkscape-stroke:none;stop-color:#000000;stop-opacity:1"
       d="m -222.96117,118.43919 c 0.72658,-0.14475 1.46398,-0.64078 1.5905,-1.41817 0.0776,-0.44872 0.26123,-1.06985 -0.0842,-1.43156 -0.39271,-0.0527 -0.3868,0.45144 -0.56311,0.68184 -0.23114,0.43034 -0.66519,0.72205 -1.14707,0.78978 -0.50662,0.0978 -1.11385,0.17136 -1.40378,0.65934 -0.1895,0.46885 0.38973,0.74231 0.77492,0.7357 0.27772,0.0199 0.55506,-0.0188 0.83279,-0.0169 z"
       id="path26409" /><ellipse
       style="font-variation-settings:normal;fill:#939393;fill-opacity:1;stroke:none;stroke-width:0.0294881;stroke-linecap:butt;stroke-linejoin:miter;stroke-miterlimit:4;stroke-dasharray:none;stroke-dashoffset:0;stroke-opacity:0.985836;stop-color:#000000"
       id="path26269-6-2"
       cx="-158.41208"
       cy="-190.27161"
       rx="1.8786446"
       ry="1.6834276"
       transform="rotate(-77.290284)" /><ellipse
       style="font-variation-settings:normal;fill:#ffffff;fill-opacity:0.637394;stroke:#000000;stroke-width:0.161;stroke-linecap:butt;stroke-linejoin:miter;stroke-miterlimit:4;stroke-dasharray:none;stroke-dashoffset:0;stroke-opacity:0.985836;stop-color:#000000"
       id="path26269-5"
       cx="-158.39677"
       cy="-191.13832"
       rx="2.5461066"
       ry="2.652194"
       transform="rotate(-77.290284)" /><path
       style="font-variation-settings:normal;fill:#f1f1f1;fill-opacity:0.770538;stroke:none;stroke-width:0.0430892;stroke-linecap:butt;stroke-linejoin:miter;stroke-miterlimit:4;stroke-dasharray:none;stroke-dashoffset:0;stroke-opacity:0.985836;stop-color:#000000"
       d="m -218.99409,112.50767 c 0.0186,-0.74063 -0.30299,-1.5691 -1.03349,-1.86355 -0.42067,-0.17438 -0.98616,-0.49021 -1.41502,-0.23277 -0.13779,0.37149 0.35528,0.47664 0.54124,0.69932 0.36894,0.32015 0.55801,0.80775 0.51806,1.29273 -0.0161,0.51571 -0.0779,1.12425 0.33434,1.51444 0.41567,0.28801 0.80986,-0.21686 0.88817,-0.59406 0.0805,-0.26656 0.10381,-0.5456 0.16669,-0.81611 z"
       id="path26409-1" /><ellipse
       style="font-variation-settings:normal;fill:#939393;fill-opacity:1;stroke:none;stroke-width:0.0294881;stroke-linecap:butt;stroke-linejoin:miter;stroke-miterlimit:4;stroke-dasharray:none;stroke-dashoffset:0;stroke-opacity:0.985836;stop-color:#000000"
       id="path26269-6-23"
       cx="222.83551"
       cy="121.47598"
       rx="1.8786446"
       ry="1.6834276"
       transform="rotate(125.97625)" /><ellipse
       style="font-variation-settings:normal;fill:#ffffff;fill-opacity:0.637394;stroke:#000000;stroke-width:0.161;stroke-linecap:butt;stroke-linejoin:miter;stroke-miterlimit:4;stroke-dasharray:none;stroke-dashoffset:0;stroke-opacity:0.985836;stop-color:#000000"
       id="path26269-7"
       cx="222.85083"
       cy="120.60926"
       rx="2.5461066"
       ry="2.652194"
       transform="rotate(125.97625)" /><path
       style="font-variation-settings:normal;fill:#f1f1f1;fill-opacity:0.770538;stroke:none;stroke-width:0.0430892;stroke-linecap:butt;stroke-linejoin:miter;stroke-miterlimit:4;stroke-dasharray:none;stroke-dashoffset:0;stroke-opacity:0.985836;stop-color:#000000"
       d="m -230.62242,108.539 c -0.30969,0.67302 -0.34146,1.56117 0.21333,2.12023 0.31758,0.32636 0.71232,0.83989 1.208,0.77279 0.27333,-0.28685 -0.13811,-0.57822 -0.22099,-0.85624 -0.21247,-0.43986 -0.19356,-0.96249 0.0347,-1.39224 0.21848,-0.46743 0.51566,-1.00206 0.29107,-1.52335 -0.2681,-0.42879 -0.82966,-0.12068 -1.0506,0.19492 -0.1792,0.21309 -0.31088,0.46022 -0.47551,0.68389 z"
       id="path26409-7" /><ellipse
       style="font-variation-settings:normal;fill:#939393;fill-opacity:1;stroke:none;stroke-width:0.0294881;stroke-linecap:butt;stroke-linejoin:miter;stroke-miterlimit:4;stroke-dasharray:none;stroke-dashoffset:0;stroke-opacity:0.985836;stop-color:#000000"
       id="path26269-6-6"
       cx="-156.325"
       cy="-193.41113"
       rx="1.8786446"
       ry="1.6834276"
       transform="rotate(-76.336881)" /><ellipse
       style="font-variation-settings:normal;fill:#ffffff;fill-opacity:0.637394;stroke:#000000;stroke-width:0.161;stroke-linecap:butt;stroke-linejoin:miter;stroke-miterlimit:4;stroke-dasharray:none;stroke-dashoffset:0;stroke-opacity:0.985836;stop-color:#000000"
       id="path26269-4"
       cx="-156.30969"
       cy="-194.27785"
       rx="2.5461066"
       ry="2.652194"
       transform="rotate(-76.336881)" /><path
       style="font-variation-settings:normal;fill:#f1f1f1;fill-opacity:0.770538;stroke:none;stroke-width:0.0430892;stroke-linecap:butt;stroke-linejoin:miter;stroke-miterlimit:4;stroke-dasharray:none;stroke-dashoffset:0;stroke-opacity:0.985836;stop-color:#000000"
       d="m -223.39353,106.07857 c 0.031,-0.74021 -0.27683,-1.57391 -1.00233,-1.88048 -0.4177,-0.1814 -0.97787,-0.50655 -1.41094,-0.25634 -0.14396,0.36915 0.3473,0.48249 0.52953,0.70823 0.36356,0.32626 0.54449,0.81693 0.49648,1.30117 -0.0247,0.51538 -0.0966,1.12281 0.30909,1.5198 0.41082,0.29489 0.81337,-0.20336 0.89793,-0.57921 0.0848,-0.26518 0.11284,-0.54379 0.18029,-0.81321 z"
       id="path26409-9" /><ellipse
       style="font-variation-settings:normal;fill:#939393;fill-opacity:1;stroke:none;stroke-width:0.0294881;stroke-linecap:butt;stroke-linejoin:miter;stroke-miterlimit:4;stroke-dasharray:none;stroke-dashoffset:0;stroke-opacity:0.985836;stop-color:#000000"
       id="path26269-6-2-2"
       cx="159.20116"
       cy="-193.1035"
       rx="1.8786446"
       ry="1.6834276"
       transform="rotate(-153.62716)" /><ellipse
       style="font-variation-settings:normal;fill:#ffffff;fill-opacity:0.637394;stroke:#000000;stroke-width:0.161;stroke-linecap:butt;stroke-linejoin:miter;stroke-miterlimit:4;stroke-dasharray:none;stroke-dashoffset:0;stroke-opacity:0.985836;stop-color:#000000"
       id="path26269-5-9"
       cx="159.21646"
       cy="-193.97021"
       rx="2.5461066"
       ry="2.652194"
       transform="rotate(-153.62716)" /><path
       style="font-variation-settings:normal;fill:#f1f1f1;fill-opacity:0.770538;stroke:none;stroke-width:0.0430892;stroke-linecap:butt;stroke-linejoin:miter;stroke-miterlimit:4;stroke-dasharray:none;stroke-dashoffset:0;stroke-opacity:0.985836;stop-color:#000000"
       d="m -228.22012,100.82265 c -0.71527,-0.19302 -1.59626,-0.0762 -2.05493,0.56405 -0.26881,0.36758 -0.70928,0.84246 -0.56043,1.31999 0.32843,0.22164 0.54708,-0.23263 0.80738,-0.36073 0.39824,-0.28288 0.9167,-0.35142 1.37852,-0.19804 0.49731,0.13746 1.07404,0.34126 1.55056,0.0328 0.37805,-0.33588 -0.0194,-0.83817 -0.36746,-1.00336 -0.23999,-0.14119 -0.50563,-0.22975 -0.75364,-0.35475 z"
       id="path26409-1-0" /><ellipse
       style="font-variation-settings:normal;fill:#939393;fill-opacity:1;stroke:none;stroke-width:0.0294881;stroke-linecap:butt;stroke-linejoin:miter;stroke-miterlimit:4;stroke-dasharray:none;stroke-dashoffset:0;stroke-opacity:0.985836;stop-color:#000000"
       id="path26269-6-23-7"
       cx="-67.829918"
       cy="249.53764"
       rx="1.8786446"
       ry="1.6834276"
       transform="rotate(49.639369)" /><ellipse
       style="font-variation-settings:normal;fill:#ffffff;fill-opacity:0.637394;stroke:#000000;stroke-width:0.161;stroke-linecap:butt;stroke-linejoin:miter;stroke-miterlimit:4;stroke-dasharray:none;stroke-dashoffset:0;stroke-opacity:0.985836;stop-color:#000000"
       id="path26269-7-3"
       cx="-67.814598"
       cy="248.67093"
       rx="2.5461066"
       ry="2.652194"
       transform="rotate(49.639369)" /><path
       style="font-variation-settings:normal;fill:#f1f1f1;fill-opacity:0.770538;stroke:none;stroke-width:0.0430892;stroke-linecap:butt;stroke-linejoin:miter;stroke-miterlimit:4;stroke-dasharray:none;stroke-dashoffset:0;stroke-opacity:0.985836;stop-color:#000000"
       d="m -234.82324,111.18446 c 0.58083,0.45991 1.43634,0.70057 2.11063,0.29354 0.39214,-0.23151 0.98438,-0.49377 1.03627,-0.99128 -0.21417,-0.33335 -0.59448,-0.002 -0.88422,0.0125 -0.4776,0.10256 -0.98097,-0.0393 -1.34465,-0.36258 -0.40258,-0.32271 -0.85189,-0.73777 -1.41148,-0.64267 -0.47998,0.15923 -0.31324,0.77768 -0.0588,1.06691 0.16473,0.22447 0.37376,0.4108 0.55221,0.6236 z"
       id="path26409-7-7" /></g></svg>
